<?xml version="1.0" encoding="UTF-8"?>
<svg xmlns="http://www.w3.org/2000/svg" xmlns:xlink="http://www.w3.org/1999/xlink" width="56pt" height="56pt" viewBox="0 0 56 56" version="1.1">
<g id="surface1">
<rect x="0" y="0" width="56" height="56" style="fill:rgb(92.211914%,14.884949%,16.999817%);fill-opacity:1;stroke:none;"/>
<path style=" stroke:none;fill-rule:nonzero;fill:rgb(100%,100%,100%);fill-opacity:1;" d="M 21.101562 23.054688 C 21.101562 23.8125 21.445312 24.566406 22.335938 24.566406 C 23.160156 24.566406 35.65625 21.820312 35.65625 18.320312 C 35.65625 14.957031 32.496094 13.101562 29.886719 13.101562 C 24.328125 13.101562 21.101562 19.074219 21.101562 23.054688 Z M 11.832031 29.851562 C 11.832031 13.238281 21.03125 5 30.230469 5 C 37.785156 5 44.167969 9.257812 44.167969 17.355469 C 44.167969 32.121094 22.0625 29.03125 22.0625 36.167969 C 22.0625 39.398438 27.28125 41.730469 30.710938 41.730469 C 41.972656 41.730469 41.972656 33.152344 42.933594 33.152344 C 43.964844 33.152344 44.167969 36.71875 44.167969 37.269531 C 44.167969 45.988281 37.441406 51 29.203125 51 C 16.910156 51 11.832031 40.839844 11.832031 29.851562 "/>
</g>
</svg>
