<?xml version="1.0" encoding="UTF-8"?>
<svg xmlns="http://www.w3.org/2000/svg" xmlns:xlink="http://www.w3.org/1999/xlink" width="56pt" height="56pt" viewBox="0 0 56 56" version="1.1">
<g id="surface1">
<rect x="0" y="0" width="56" height="56" style="fill:rgb(95.666504%,95.776367%,96.775818%);fill-opacity:1;stroke:none;"/>
<path style=" stroke:none;fill-rule:nonzero;fill:rgb(12.860107%,11.213684%,11.195374%);fill-opacity:1;" d="M 2.320312 30.132812 C 2.347656 29.972656 2.375 29.808594 2.402344 29.648438 C 2.507812 28.980469 2.609375 28.3125 2.710938 27.644531 C 2.8125 27.011719 2.910156 26.375 3.007812 25.742188 C 3.113281 25.050781 3.222656 24.359375 3.332031 23.667969 C 3.371094 23.417969 3.40625 23.167969 3.445312 22.917969 C 3.449219 22.894531 3.457031 22.875 3.460938 22.84375 C 3.488281 22.84375 3.515625 22.84375 3.542969 22.84375 C 3.996094 22.84375 4.449219 22.847656 4.902344 22.84375 C 4.964844 22.84375 4.996094 22.863281 5.023438 22.921875 C 5.875 24.78125 6.730469 26.636719 7.585938 28.496094 C 7.597656 28.515625 7.605469 28.535156 7.628906 28.558594 C 7.894531 26.65625 8.15625 24.753906 8.417969 22.847656 C 8.832031 22.847656 9.242188 22.847656 9.664062 22.847656 C 9.648438 22.96875 9.632812 23.085938 9.613281 23.199219 C 9.519531 23.804688 9.425781 24.410156 9.332031 25.015625 C 9.230469 25.648438 9.132812 26.277344 9.035156 26.910156 C 8.933594 27.574219 8.832031 28.238281 8.726562 28.902344 C 8.664062 29.308594 8.597656 29.71875 8.535156 30.128906 C 8.53125 30.167969 8.515625 30.179688 8.476562 30.179688 C 8.03125 30.179688 7.585938 30.179688 7.144531 30.179688 C 7.09375 30.179688 7.082031 30.152344 7.066406 30.117188 C 6.816406 29.589844 6.566406 29.0625 6.3125 28.535156 C 5.675781 27.199219 5.039062 25.859375 4.398438 24.523438 C 4.394531 24.511719 4.386719 24.5 4.367188 24.46875 C 4.105469 26.382812 3.84375 28.273438 3.578125 30.171875 C 3.5625 30.171875 3.546875 30.179688 3.53125 30.179688 C 3.140625 30.179688 2.746094 30.179688 2.351562 30.179688 C 2.34375 30.179688 2.332031 30.175781 2.320312 30.175781 C 2.320312 30.160156 2.320312 30.148438 2.320312 30.132812 "/>
<path style=" stroke:none;fill-rule:nonzero;fill:rgb(12.860107%,11.213684%,11.195374%);fill-opacity:1;" d="M 51.75 22.722656 C 51.898438 22.738281 52.042969 22.75 52.191406 22.765625 C 52.6875 22.816406 53.167969 22.921875 53.644531 23.074219 C 53.65625 23.078125 53.664062 23.082031 53.679688 23.089844 C 53.546875 23.496094 53.414062 23.90625 53.28125 24.320312 C 53.253906 24.308594 53.230469 24.300781 53.210938 24.292969 C 52.8125 24.121094 52.410156 23.976562 51.984375 23.910156 C 51.601562 23.847656 51.226562 23.839844 50.867188 24.011719 C 50.6875 24.09375 50.53125 24.210938 50.410156 24.371094 C 50.203125 24.652344 50.199219 24.953125 50.410156 25.230469 C 50.582031 25.460938 50.800781 25.632812 51.039062 25.785156 C 51.328125 25.964844 51.617188 26.136719 51.910156 26.304688 C 52.21875 26.488281 52.496094 26.707031 52.71875 26.988281 C 52.988281 27.328125 53.117188 27.710938 53.09375 28.148438 C 53.058594 28.660156 52.898438 29.121094 52.546875 29.503906 C 52.246094 29.832031 51.875 30.042969 51.457031 30.171875 C 51.003906 30.308594 50.539062 30.34375 50.070312 30.316406 C 49.332031 30.269531 48.625 30.074219 47.925781 29.832031 C 47.917969 29.828125 47.910156 29.824219 47.894531 29.816406 C 48.054688 29.414062 48.21875 29.011719 48.378906 28.609375 C 48.535156 28.675781 48.683594 28.746094 48.835938 28.808594 C 49.207031 28.96875 49.585938 29.09375 49.984375 29.152344 C 50.433594 29.222656 50.851562 29.167969 51.21875 28.882812 C 51.355469 28.773438 51.46875 28.648438 51.550781 28.492188 C 51.710938 28.179688 51.667969 27.902344 51.421875 27.628906 C 51.253906 27.441406 51.046875 27.300781 50.835938 27.164062 C 50.484375 26.9375 50.125 26.71875 49.777344 26.484375 C 49.527344 26.316406 49.304688 26.117188 49.105469 25.890625 C 48.734375 25.464844 48.632812 24.980469 48.78125 24.441406 C 48.953125 23.824219 49.34375 23.394531 49.894531 23.09375 C 50.28125 22.878906 50.703125 22.769531 51.140625 22.734375 C 51.164062 22.734375 51.191406 22.726562 51.214844 22.722656 C 51.394531 22.722656 51.570312 22.722656 51.75 22.722656 "/>
<path style=" stroke:none;fill-rule:nonzero;fill:rgb(12.860107%,11.213684%,11.195374%);fill-opacity:1;" d="M 13.175781 29.066406 C 14.234375 29.066406 15.285156 29.066406 16.34375 29.066406 C 16.335938 29.15625 16.324219 29.238281 16.316406 29.324219 C 16.285156 29.59375 16.253906 29.863281 16.21875 30.132812 C 16.214844 30.148438 16.1875 30.167969 16.167969 30.175781 C 16.152344 30.183594 16.132812 30.179688 16.113281 30.179688 C 14.675781 30.179688 13.242188 30.179688 11.804688 30.179688 C 11.773438 30.179688 11.742188 30.179688 11.703125 30.179688 C 11.726562 30.035156 11.746094 29.898438 11.765625 29.765625 C 11.871094 29.097656 11.972656 28.429688 12.078125 27.761719 C 12.171875 27.15625 12.265625 26.550781 12.359375 25.945312 C 12.453125 25.339844 12.546875 24.734375 12.640625 24.132812 C 12.703125 23.71875 12.769531 23.304688 12.835938 22.894531 C 12.835938 22.875 12.863281 22.855469 12.886719 22.847656 C 12.898438 22.839844 12.921875 22.84375 12.9375 22.84375 C 14.335938 22.84375 15.726562 22.84375 17.125 22.84375 C 17.152344 22.84375 17.183594 22.84375 17.21875 22.84375 C 17.160156 23.21875 17.105469 23.585938 17.046875 23.957031 C 16.019531 23.957031 15 23.957031 13.972656 23.957031 C 13.871094 24.597656 13.773438 25.234375 13.671875 25.882812 C 14.511719 25.882812 15.339844 25.882812 16.179688 25.882812 C 16.125 26.253906 16.070312 26.621094 16.011719 26.996094 C 15.980469 26.996094 15.953125 26.996094 15.921875 26.996094 C 15.140625 26.996094 14.359375 26.996094 13.578125 26.992188 C 13.515625 26.992188 13.492188 27.007812 13.480469 27.074219 C 13.382812 27.726562 13.277344 28.382812 13.175781 29.035156 C 13.175781 29.042969 13.175781 29.050781 13.175781 29.066406 "/>
<path style=" stroke:none;fill-rule:nonzero;fill:rgb(12.860107%,11.213684%,11.195374%);fill-opacity:1;" d="M 38.066406 22.84375 C 38.007812 23.222656 37.949219 23.585938 37.890625 23.957031 C 36.867188 23.957031 35.847656 23.957031 34.820312 23.957031 C 34.71875 24.597656 34.617188 25.234375 34.515625 25.882812 C 35.351562 25.882812 36.179688 25.882812 37.023438 25.882812 C 36.96875 26.257812 36.914062 26.621094 36.859375 26.996094 C 36.019531 26.996094 35.179688 26.996094 34.339844 26.996094 C 34.230469 27.6875 34.125 28.371094 34.015625 29.0625 C 35.074219 29.0625 36.125 29.0625 37.191406 29.0625 C 37.179688 29.152344 37.171875 29.226562 37.160156 29.304688 C 37.128906 29.582031 37.09375 29.855469 37.066406 30.128906 C 37.058594 30.167969 37.042969 30.183594 37.007812 30.179688 C 36.992188 30.175781 36.980469 30.179688 36.96875 30.179688 C 35.523438 30.179688 34.082031 30.179688 32.636719 30.179688 C 32.609375 30.179688 32.585938 30.179688 32.546875 30.179688 C 32.570312 30.035156 32.589844 29.902344 32.609375 29.765625 C 32.703125 29.191406 32.789062 28.613281 32.882812 28.039062 C 32.972656 27.433594 33.070312 26.828125 33.160156 26.222656 C 33.257812 25.617188 33.347656 25.015625 33.445312 24.410156 C 33.523438 23.902344 33.601562 23.398438 33.679688 22.894531 C 33.683594 22.855469 33.699219 22.839844 33.738281 22.84375 C 33.753906 22.847656 33.769531 22.84375 33.785156 22.84375 C 35.179688 22.84375 36.574219 22.84375 37.96875 22.84375 C 38 22.84375 38.03125 22.84375 38.066406 22.84375 "/>
<path style=" stroke:none;fill-rule:nonzero;fill:rgb(12.860107%,11.213684%,11.195374%);fill-opacity:1;" d="M 26.007812 33.277344 C 25.835938 32.921875 25.667969 32.574219 25.496094 32.214844 C 25.523438 32.207031 25.546875 32.199219 25.574219 32.1875 C 25.886719 32.070312 26.207031 31.964844 26.511719 31.824219 C 27.148438 31.535156 27.574219 31.042969 27.832031 30.398438 C 28.003906 29.96875 28.105469 29.527344 28.171875 29.074219 C 28.277344 28.394531 28.382812 27.714844 28.484375 27.035156 C 28.585938 26.382812 28.679688 25.730469 28.777344 25.078125 C 28.867188 24.476562 28.957031 23.878906 29.046875 23.28125 C 29.070312 23.140625 29.089844 22.996094 29.109375 22.851562 C 29.554688 22.851562 29.992188 22.851562 30.445312 22.851562 C 30.425781 22.96875 30.410156 23.085938 30.390625 23.199219 C 30.292969 23.835938 30.195312 24.472656 30.09375 25.109375 C 29.984375 25.789062 29.878906 26.472656 29.769531 27.152344 C 29.667969 27.792969 29.566406 28.429688 29.464844 29.070312 C 29.367188 29.644531 29.277344 30.21875 29.0625 30.765625 C 28.609375 31.917969 27.800781 32.710938 26.632812 33.128906 C 26.511719 33.167969 26.382812 33.199219 26.257812 33.230469 C 26.175781 33.25 26.097656 33.261719 26.007812 33.277344 "/>
<path style=" stroke:none;fill-rule:nonzero;fill:rgb(12.860107%,11.213684%,11.195374%);fill-opacity:1;" d="M 43.007812 23.957031 C 42.277344 23.957031 41.546875 23.957031 40.8125 23.957031 C 40.839844 23.78125 40.863281 23.613281 40.886719 23.441406 C 40.910156 23.265625 40.941406 23.089844 40.964844 22.914062 C 40.96875 22.867188 40.980469 22.84375 41.035156 22.84375 C 42.894531 22.84375 44.75 22.84375 46.609375 22.84375 C 46.628906 22.84375 46.648438 22.847656 46.671875 22.847656 C 46.613281 23.21875 46.554688 23.585938 46.5 23.957031 C 46.46875 23.957031 46.441406 23.957031 46.414062 23.957031 C 45.734375 23.957031 45.054688 23.957031 44.378906 23.957031 C 44.324219 23.957031 44.300781 23.96875 44.292969 24.027344 C 44.171875 24.820312 44.046875 25.613281 43.925781 26.40625 C 43.808594 27.15625 43.691406 27.90625 43.574219 28.660156 C 43.5 29.144531 43.421875 29.628906 43.347656 30.113281 C 43.34375 30.15625 43.335938 30.179688 43.285156 30.179688 C 42.886719 30.179688 42.484375 30.179688 42.085938 30.179688 C 42.070312 30.179688 42.054688 30.175781 42.03125 30.171875 C 42.359375 28.101562 42.683594 26.03125 43.007812 23.957031 "/>
<path style=" stroke:none;fill-rule:nonzero;fill:rgb(12.860107%,11.213684%,11.195374%);fill-opacity:1;" d="M 25.960938 22.847656 C 25.90625 23.21875 25.847656 23.585938 25.789062 23.953125 C 25.054688 23.953125 24.328125 23.953125 23.59375 23.953125 C 23.269531 26.03125 22.949219 28.101562 22.628906 30.175781 C 22.191406 30.175781 21.761719 30.175781 21.324219 30.175781 C 21.648438 28.101562 21.972656 26.03125 22.296875 23.957031 C 21.566406 23.957031 20.839844 23.957031 20.101562 23.957031 C 20.121094 23.808594 20.144531 23.667969 20.164062 23.53125 C 20.195312 23.324219 20.226562 23.113281 20.253906 22.90625 C 20.261719 22.855469 20.28125 22.84375 20.328125 22.84375 C 22.183594 22.84375 24.042969 22.84375 25.898438 22.84375 C 25.917969 22.84375 25.9375 22.847656 25.960938 22.847656 "/>
</g>
</svg>
