<?xml version="1.0" encoding="UTF-8"?>
<svg xmlns="http://www.w3.org/2000/svg" xmlns:xlink="http://www.w3.org/1999/xlink" width="56pt" height="56pt" viewBox="0 0 56 56" version="1.1">
<defs>
<clipPath id="clip1">
  <path d="M 5 19 L 22 19 L 22 47 L 5 47 Z M 5 19 "/>
</clipPath>
<clipPath id="clip2">
  <path d="M 18.671875 19.585938 C 11.15625 19.585938 5.039062 25.703125 5.039062 33.21875 C 5.039062 40.734375 11.15625 46.851562 18.671875 46.851562 C 19.65625 46.851562 20.613281 46.746094 21.535156 46.546875 L 21.535156 36.433594 C 20.777344 37.113281 19.773438 37.527344 18.671875 37.527344 C 16.296875 37.527344 14.363281 35.59375 14.363281 33.21875 C 14.363281 30.84375 16.296875 28.910156 18.671875 28.910156 C 19.773438 28.910156 20.777344 29.324219 21.535156 30.003906 L 21.535156 19.890625 C 20.613281 19.691406 19.65625 19.585938 18.671875 19.585938 "/>
</clipPath>
<clipPath id="clip3">
  <path d="M 5 19 L 22 19 L 22 46.964844 L 5 46.964844 Z M 5 19 "/>
</clipPath>
<clipPath id="clip4">
  <path d="M 18.671875 19.585938 C 11.15625 19.585938 5.039062 25.703125 5.039062 33.21875 C 5.039062 40.734375 11.15625 46.851562 18.671875 46.851562 C 19.65625 46.851562 20.613281 46.746094 21.535156 46.546875 L 21.535156 36.433594 C 20.777344 37.113281 19.773438 37.527344 18.671875 37.527344 C 16.296875 37.527344 14.363281 35.59375 14.363281 33.21875 C 14.363281 30.84375 16.296875 28.910156 18.671875 28.910156 C 19.773438 28.910156 20.777344 29.324219 21.535156 30.003906 L 21.535156 19.890625 C 20.613281 19.691406 19.65625 19.585938 18.671875 19.585938 "/>
</clipPath>
<clipPath id="clip5">
  <path d="M 23 9 L 51 9 L 51 46 L 23 46 Z M 23 9 "/>
</clipPath>
<clipPath id="clip6">
  <path d="M 37.328125 9.148438 C 29.8125 9.148438 23.699219 15.257812 23.695312 22.773438 L 23.695312 45.40625 L 30.691406 41.695312 L 33.027344 40.457031 L 33.019531 22.773438 C 33.027344 20.402344 34.957031 18.472656 37.328125 18.472656 C 39.703125 18.472656 41.636719 20.40625 41.636719 22.78125 C 41.636719 25.15625 39.703125 27.089844 37.328125 27.089844 C 37.320312 27.089844 37.3125 27.089844 37.304688 27.089844 L 35.152344 27.089844 L 35.152344 34.097656 L 35.140625 36.414062 L 37.265625 36.414062 C 37.285156 36.414062 37.308594 36.414062 37.328125 36.414062 C 39.304688 36.414062 41.183594 35.992188 42.882812 35.230469 L 43.132812 35.097656 L 43.128906 35.117188 C 47.753906 32.933594 50.960938 28.222656 50.960938 22.78125 C 50.960938 15.265625 44.84375 9.148438 37.328125 9.148438 "/>
</clipPath>
<clipPath id="clip7">
  <path d="M 23 9.121094 L 51 9.121094 L 51 46 L 23 46 Z M 23 9.121094 "/>
</clipPath>
<clipPath id="clip8">
  <path d="M 37.328125 9.148438 C 29.8125 9.148438 23.699219 15.257812 23.695312 22.773438 L 23.695312 45.40625 L 30.691406 41.695312 L 33.027344 40.457031 L 33.019531 22.773438 C 33.027344 20.402344 34.957031 18.472656 37.328125 18.472656 C 39.703125 18.472656 41.636719 20.40625 41.636719 22.78125 C 41.636719 25.15625 39.703125 27.089844 37.328125 27.089844 C 37.320312 27.089844 37.3125 27.089844 37.304688 27.089844 L 35.152344 27.089844 L 35.152344 34.097656 L 35.140625 36.414062 L 37.265625 36.414062 C 37.285156 36.414062 37.308594 36.414062 37.328125 36.414062 C 39.304688 36.414062 41.183594 35.992188 42.882812 35.230469 L 43.132812 35.097656 L 43.128906 35.117188 C 47.753906 32.933594 50.960938 28.222656 50.960938 22.78125 C 50.960938 15.265625 44.84375 9.148438 37.328125 9.148438 "/>
</clipPath>
</defs>
<g id="surface1">
<rect x="0" y="0" width="56" height="56" style="fill:rgb(94.165039%,23.878479%,32.28302%);fill-opacity:1;stroke:none;"/>
<path style=" stroke:none;fill-rule:nonzero;fill:rgb(100%,100%,100%);fill-opacity:1;" d="M 18.671875 19.585938 C 11.15625 19.585938 5.039062 25.703125 5.039062 33.21875 C 5.039062 40.734375 11.15625 46.851562 18.671875 46.851562 C 19.65625 46.851562 20.613281 46.746094 21.535156 46.546875 L 21.535156 36.433594 C 20.777344 37.113281 19.773438 37.527344 18.671875 37.527344 C 16.296875 37.527344 14.363281 35.59375 14.363281 33.21875 C 14.363281 30.84375 16.296875 28.910156 18.671875 28.910156 C 19.773438 28.910156 20.777344 29.324219 21.535156 30.003906 L 21.535156 19.890625 C 20.613281 19.691406 19.65625 19.585938 18.671875 19.585938 "/>
<g clip-path="url(#clip1)" clip-rule="nonzero">
<g clip-path="url(#clip2)" clip-rule="nonzero">
<path style=" stroke:none;fill-rule:nonzero;fill:rgb(100%,100%,100%);fill-opacity:1;" d="M 4.679688 46.964844 L 196.21875 46.964844 L 196.21875 9.121094 L 4.679688 9.121094 L 4.679688 46.964844 "/>
</g>
</g>
<g clip-path="url(#clip3)" clip-rule="nonzero">
<g clip-path="url(#clip4)" clip-rule="nonzero">
<path style=" stroke:none;fill-rule:nonzero;fill:rgb(100%,100%,100%);fill-opacity:1;" d="M 4.679688 46.964844 L 23.46875 46.964844 L 23.46875 17.65625 L 4.679688 17.65625 L 4.679688 46.964844 "/>
</g>
</g>
<path style=" stroke:none;fill-rule:nonzero;fill:rgb(100%,100%,100%);fill-opacity:1;" d="M 37.328125 9.148438 C 29.8125 9.148438 23.699219 15.257812 23.695312 22.773438 L 23.695312 45.40625 L 30.691406 41.695312 L 33.027344 40.457031 L 33.019531 22.773438 C 33.027344 20.402344 34.957031 18.472656 37.328125 18.472656 C 39.703125 18.472656 41.636719 20.40625 41.636719 22.78125 C 41.636719 25.15625 39.703125 27.089844 37.328125 27.089844 C 37.320312 27.089844 37.3125 27.089844 37.304688 27.089844 L 35.152344 27.089844 L 35.152344 34.097656 L 35.140625 36.414062 L 37.265625 36.414062 C 37.285156 36.414062 37.308594 36.414062 37.328125 36.414062 C 39.304688 36.414062 41.183594 35.992188 42.882812 35.230469 L 43.132812 35.097656 L 43.128906 35.117188 C 47.753906 32.933594 50.960938 28.222656 50.960938 22.78125 C 50.960938 15.265625 44.84375 9.148438 37.328125 9.148438 "/>
<g clip-path="url(#clip5)" clip-rule="nonzero">
<g clip-path="url(#clip6)" clip-rule="nonzero">
<path style=" stroke:none;fill-rule:nonzero;fill:rgb(100%,100%,100%);fill-opacity:1;" d="M 4.679688 46.964844 L 196.21875 46.964844 L 196.21875 9.121094 L 4.679688 9.121094 L 4.679688 46.964844 "/>
</g>
</g>
<g clip-path="url(#clip7)" clip-rule="nonzero">
<g clip-path="url(#clip8)" clip-rule="nonzero">
<path style=" stroke:none;fill-rule:nonzero;fill:rgb(100%,100%,100%);fill-opacity:1;" d="M 21.761719 46.964844 L 52.890625 46.964844 L 52.890625 7.21875 L 21.761719 7.21875 L 21.761719 46.964844 "/>
</g>
</g>
</g>
</svg>
