<?xml version="1.0" encoding="UTF-8"?>
<svg xmlns="http://www.w3.org/2000/svg" xmlns:xlink="http://www.w3.org/1999/xlink" width="59pt" height="33.81pt" viewBox="0 0 59 33.81" version="1.1">
<defs>
<clipPath id="clip1">
  <path d="M 0 0 L 59 0 L 59 33.808594 L 0 33.808594 Z M 0 0 "/>
</clipPath>
</defs>
<g id="surface1">
<g clip-path="url(#clip1)" clip-rule="nonzero">
<path style=" stroke:none;fill-rule:nonzero;fill:rgb(14.128113%,31.048584%,59.794617%);fill-opacity:1;" d="M 40.171875 18.660156 L 40.910156 18.660156 C 45.539062 18.660156 44.480469 25.996094 38.785156 25.996094 C 38.785156 25.996094 37.695312 26.003906 37.589844 25.996094 Z M 54.378906 17.695312 C 53.566406 17.722656 52.824219 17.8125 52.171875 17.96875 C 50.253906 18.394531 49.042969 19.308594 48.894531 20.574219 C 48.707031 22.175781 50.175781 22.597656 51.625 23.050781 C 53.710938 23.707031 54.53125 23.910156 54.441406 24.542969 C 54.367188 25.0625 53.855469 25.40625 53.367188 25.59375 C 52.75 25.835938 51.867188 25.988281 50.953125 25.972656 C 50.421875 25.960938 48.488281 25.894531 48.558594 25.28125 C 48.578125 25.101562 48.679688 24.71875 48.894531 24.144531 L 47.738281 24.144531 L 46.835938 26.582031 C 48.167969 26.886719 49.699219 27.015625 51.164062 26.960938 C 55.652344 27.007812 57.445312 25.265625 57.65625 23.765625 C 57.878906 22.195312 56.425781 21.816406 54.523438 21.265625 C 52.621094 20.714844 51.855469 20.519531 51.941406 19.902344 C 51.984375 19.574219 52.175781 19.296875 52.527344 19.082031 C 53.0625 18.78125 53.894531 18.621094 54.921875 18.640625 C 55.453125 18.648438 57.371094 18.777344 57.296875 19.398438 C 57.277344 19.574219 57.15625 19.957031 56.941406 20.53125 L 58.117188 20.53125 L 59 18.074219 C 58.503906 17.9375 57.195312 17.734375 55.21875 17.695312 C 54.929688 17.6875 54.648438 17.683594 54.378906 17.695312 Z M 41.8125 17.695312 L 35.972656 17.714844 L 35.65625 18.597656 C 35.65625 18.597656 36.585938 18.617188 36.707031 18.617188 C 37 18.617188 37 18.871094 36.980469 18.976562 L 34.605469 25.679688 C 34.550781 25.785156 34.375 26.035156 34.082031 26.035156 C 33.957031 26.035156 33.007812 26.058594 33.007812 26.058594 L 32.695312 26.980469 L 39.667969 26.960938 C 48.074219 26.960938 49.019531 17.695312 41.8125 17.695312 Z M 21.410156 17.570312 L 32.253906 17.570312 L 31.390625 20.027344 L 29.773438 20.027344 C 29.9375 19.566406 29.988281 19.28125 30.027344 19.058594 C 30.089844 18.695312 29.5625 18.746094 28.574219 18.746094 L 25.507812 18.746094 L 24.5 21.582031 L 26.390625 21.582031 C 26.972656 21.585938 27.078125 21.601562 27.292969 21.054688 L 27.441406 20.65625 L 28.742188 20.65625 L 27.652344 23.703125 L 26.371094 23.703125 L 26.496094 23.304688 C 26.667969 22.761719 26.554688 22.796875 25.96875 22.800781 L 24.078125 22.800781 L 22.988281 25.890625 L 26.054688 25.890625 C 27.039062 25.890625 27.472656 25.871094 27.777344 25.382812 C 27.914062 25.160156 27.992188 25.0625 28.15625 24.605469 L 29.753906 24.605469 L 28.890625 27.066406 L 18.046875 27.066406 L 18.46875 25.890625 C 18.46875 25.890625 19.417969 25.890625 19.539062 25.890625 C 19.835938 25.890625 20.011719 25.613281 20.066406 25.511719 L 22.335938 19.101562 C 22.355469 18.996094 22.355469 18.765625 22.0625 18.765625 C 21.941406 18.765625 21.011719 18.746094 21.011719 18.746094 Z M 16.914062 0.00390625 C 7.578125 0.00390625 0 7.582031 0 16.917969 C 0 26.25 7.578125 33.808594 16.914062 33.808594 C 26.25 33.808594 33.808594 26.25 33.808594 16.917969 C 33.808594 7.582031 26.25 0.00390625 16.914062 0.00390625 "/>
</g>
</g>
</svg>
