<?xml version="1.0" encoding="UTF-8"?>
<svg xmlns="http://www.w3.org/2000/svg" xmlns:xlink="http://www.w3.org/1999/xlink" width="56pt" height="56pt" viewBox="0 0 56 56" version="1.1">
<g id="surface1">
<rect x="0" y="0" width="56" height="56" style="fill:rgb(57.258606%,9.941101%,11.868286%);fill-opacity:1;stroke:none;"/>
<path style=" stroke:none;fill-rule:evenodd;fill:rgb(100%,100%,100%);fill-opacity:1;" d="M 14.894531 26.917969 C 19.941406 30.597656 21.96875 36.222656 21.820312 43.234375 C 23.40625 38.929688 25.433594 34.820312 28.007812 31.042969 Z M 5.027344 22.960938 C 8.34375 23.601562 11.113281 24.609375 13.375 25.929688 L 28.816406 29.90625 C 29.492188 28.964844 30.203125 28.039062 30.960938 27.152344 Z M 7.289062 22.316406 L 5.703125 22.679688 L 32 25.960938 C 33.253906 24.558594 34.605469 23.222656 36.074219 21.9375 Z M 50.972656 12.765625 C 37.230469 15.800781 23.175781 18.835938 9.367188 21.871094 L 37.644531 20.632812 C 41.386719 17.597656 45.792969 14.960938 50.972656 12.765625 "/>
</g>
</svg>
