<?xml version="1.0" encoding="UTF-8"?>
<svg xmlns="http://www.w3.org/2000/svg" xmlns:xlink="http://www.w3.org/1999/xlink" width="56pt" height="56pt" viewBox="0 0 56 56" version="1.1">
<g id="surface1">
<rect x="0" y="0" width="56" height="56" style="fill:rgb(95.66803%,95.779419%,96.777344%);fill-opacity:1;stroke:none;"/>
<path style=" stroke:none;fill-rule:nonzero;fill:rgb(12.860107%,11.213684%,11.195374%);fill-opacity:1;" d="M 51.644531 25.007812 C 52.25 24.414062 52.503906 23.863281 52.230469 23.152344 C 51.957031 22.4375 52.460938 21.894531 51.464844 20.925781 C 50.46875 19.964844 48.578125 18.699219 47.949219 18.125 C 47.320312 17.550781 45.941406 16.578125 45.941406 16.578125 C 45.941406 16.578125 45.871094 16.589844 45.59375 15.878906 C 45.316406 15.167969 45.132812 14.972656 44.625 14.679688 C 44.121094 14.390625 40.832031 12.84375 40.832031 12.84375 C 40.832031 12.84375 42.066406 11.25 41.265625 9.261719 C 41.265625 9.261719 38.570312 10.347656 38.046875 13.335938 C 37.894531 14.203125 38.28125 15.960938 40.289062 16.667969 C 40.289062 16.667969 38.503906 17.671875 37.222656 15.996094 C 37.222656 15.996094 32.425781 17.914062 33.121094 24.492188 C 33.8125 31.066406 35.542969 34.871094 38.769531 36.050781 C 38.769531 36.050781 33.867188 33.953125 30.753906 36.027344 C 30.753906 36.027344 35.441406 35.570312 38.179688 38.28125 C 39.136719 39.230469 40.070312 38.707031 41.480469 38.992188 C 42.890625 39.277344 47.808594 43.195312 46.125 46.542969 C 46.125 46.542969 48.296875 44.53125 46.496094 40.460938 C 46.117188 39.613281 45.078125 37.972656 44.792969 36.347656 C 44.511719 34.722656 42.730469 31.917969 41.484375 30.386719 C 40.234375 28.859375 39.710938 27.199219 40.238281 25.433594 C 40.238281 25.433594 35.359375 24.777344 36.835938 19.792969 C 36.835938 19.792969 37.214844 22.484375 39.039062 23.324219 C 40.886719 24.175781 42.515625 23.355469 42.515625 23.355469 C 42.515625 23.355469 43.308594 24.640625 44.046875 24.960938 C 44.78125 25.289062 45.402344 25.371094 46.003906 25.796875 C 46.605469 26.222656 47.75 26.617188 48.886719 26.53125 C 49.707031 26.464844 50.035156 26.128906 49.609375 25.441406 C 49.609375 25.441406 50.617188 26.027344 51.644531 25.007812 "/>
<path style=" stroke:none;fill-rule:nonzero;fill:rgb(12.860107%,11.213684%,11.195374%);fill-opacity:1;" d="M 36.707031 13.039062 C 36.707031 13.039062 36.996094 10.78125 38.601562 10.042969 C 38.601562 10.042969 38.339844 8.566406 37.957031 8.101562 C 37.957031 8.101562 35.710938 9.488281 35.429688 12.203125 C 35.429688 12.203125 32.171875 13.46875 31.160156 14.5625 C 30.140625 15.65625 26.550781 16.296875 26.550781 16.296875 C 26.550781 16.296875 26.898438 17.453125 27.46875 17.65625 C 27.46875 17.65625 25.488281 19.300781 25.136719 19.894531 L 26.109375 20.257812 C 26.109375 20.257812 23.210938 21.835938 22.335938 23.742188 C 22.335938 23.742188 23.210938 24.421875 24.519531 24.117188 C 24.519531 24.117188 23.109375 25.585938 22.996094 26.214844 C 22.996094 26.214844 23.855469 26.820312 25.273438 26.269531 C 25.273438 26.269531 23.332031 28.136719 22.503906 28.585938 C 22.503906 28.585938 24.171875 29.054688 25.097656 28.734375 C 25.097656 28.734375 22.046875 30.726562 21.453125 32.503906 C 21.453125 32.503906 22.671875 32.589844 24.710938 31.695312 C 24.710938 31.695312 25.433594 33.242188 23.265625 35.53125 C 23.265625 35.53125 24.808594 35.714844 25.671875 35.03125 L 26.53125 34.339844 C 26.53125 34.339844 29.714844 34.382812 29.503906 30.160156 C 29.292969 25.933594 29.515625 15.539062 36.707031 13.039062 "/>
<path style=" stroke:none;fill-rule:nonzero;fill:rgb(93.235779%,13.763428%,19.059753%);fill-opacity:1;" d="M 26.757812 35.59375 C 27.128906 35.304688 27.074219 36.984375 28.46875 37.191406 C 29.863281 37.402344 34.296875 37.679688 37.628906 39.449219 C 40.960938 41.21875 42.953125 44.824219 42.828125 47.125 C 28.539062 49.667969 19.425781 45.117188 19.425781 45.117188 C 21.734375 44.480469 22.660156 41.117188 22.660156 41.117188 C 22.660156 41.117188 24.269531 42.582031 25.21875 41.503906 C 26.164062 40.421875 26.355469 39.027344 24.808594 38.757812 C 22.003906 38.269531 16.53125 36.136719 16.582031 27.125 C 16.589844 26.285156 16.101562 25.230469 14.332031 24.628906 C 12.5625 24.03125 5.816406 21.730469 4.324219 20.550781 L 4.246094 17.515625 C 4.246094 17.515625 8.214844 20.769531 13.464844 22.273438 C 18.714844 23.773438 22.257812 25.890625 20.929688 29.09375 L 21.671875 29.417969 C 21.671875 29.417969 20.203125 30.976562 19.894531 32.242188 C 19.589844 33.519531 19.839844 33.242188 19.839844 33.242188 C 19.839844 33.242188 21.324219 34.351562 23.078125 33.585938 C 23.078125 33.585938 22.335938 35.84375 21.621094 36.046875 C 21.621094 36.046875 23.828125 37.867188 26.757812 35.59375 "/>
<path style=" stroke:none;fill-rule:nonzero;fill:rgb(19.303894%,68.727112%,25.280762%);fill-opacity:1;" d="M 3.660156 21.5 C 4.894531 22.5 9.113281 24.1875 14.523438 25.738281 L 14.679688 26.628906 C 14.679688 26.628906 7.039062 24.863281 4.046875 23.71875 "/>
<path style=" stroke:none;fill-rule:nonzero;fill:rgb(19.303894%,68.727112%,25.280762%);fill-opacity:1;" d="M 14.703125 27.613281 C 12.117188 27.082031 5.546875 25.816406 4.179688 24.914062 C 4.179688 24.914062 4.371094 26.855469 6.761719 27.578125 C 9.152344 28.292969 15.179688 29.050781 15.179688 29.050781 "/>
<path style=" stroke:none;fill-rule:nonzero;fill:rgb(19.303894%,68.727112%,25.280762%);fill-opacity:1;" d="M 15.203125 30.035156 C 15.203125 30.035156 6.851562 29.386719 4.242188 27.871094 C 4.242188 27.871094 5.710938 30.65625 7.71875 30.90625 C 9.730469 31.160156 15.703125 31.617188 15.703125 31.617188 "/>
<path style=" stroke:none;fill-rule:nonzero;fill:rgb(19.303894%,68.727112%,25.280762%);fill-opacity:1;" d="M 15.8125 32.667969 C 11.617188 32.878906 6.59375 32.246094 5.140625 30.835938 C 5.140625 30.835938 6.5625 34.234375 9.773438 34.421875 C 12.980469 34.617188 16.265625 33.957031 16.265625 33.957031 "/>
<path style=" stroke:none;fill-rule:nonzero;fill:rgb(19.303894%,68.727112%,25.280762%);fill-opacity:1;" d="M 16.59375 34.964844 C 14.757812 35.289062 9.574219 36.289062 7.335938 35.160156 C 7.335938 35.160156 7.734375 37.449219 10.988281 37.480469 C 14.242188 37.515625 17.445312 35.953125 17.445312 35.953125 "/>
<path style=" stroke:none;fill-rule:nonzero;fill:rgb(19.303894%,68.727112%,25.280762%);fill-opacity:1;" d="M 17.980469 36.851562 C 16.859375 37.351562 13.527344 39.46875 9.824219 38.601562 C 9.824219 38.601562 11.613281 41.480469 13.507812 41.070312 C 15.394531 40.65625 19.546875 38.019531 19.546875 38.019531 "/>
<path style=" stroke:none;fill-rule:nonzero;fill:rgb(19.303894%,68.727112%,25.280762%);fill-opacity:1;" d="M 20.261719 38.652344 C 19.128906 39.539062 16.582031 41.363281 14.066406 42.113281 C 14.066406 42.113281 14.234375 44.367188 16.667969 43.171875 C 19.105469 41.980469 21.074219 39.421875 21.074219 39.421875 "/>
<path style=" stroke:none;fill-rule:nonzero;fill:rgb(19.303894%,68.727112%,25.280762%);fill-opacity:1;" d="M 21.644531 40.082031 C 20.859375 41.210938 19.113281 43.34375 17.570312 44.003906 C 17.570312 44.003906 20.070312 44.472656 20.914062 42.800781 C 21.753906 41.128906 22.050781 40.242188 22.050781 40.242188 "/>
<path style=" stroke:none;fill-rule:nonzero;fill:rgb(97.041321%,80.9021%,3.158569%);fill-opacity:1;" d="M 9.273438 19.058594 C 11.441406 20.199219 16.035156 21.4375 16.035156 21.4375 C 16.035156 21.4375 13.96875 19.519531 12.785156 17.519531 C 11.601562 15.523438 11.007812 14.714844 10.472656 14.660156 C 9.929688 14.601562 9.5625 14.210938 9.503906 15.59375 C 9.441406 16.972656 9.273438 19.058594 9.273438 19.058594 "/>
</g>
</svg>
