<?xml version="1.0" encoding="UTF-8"?>
<svg xmlns="http://www.w3.org/2000/svg" xmlns:xlink="http://www.w3.org/1999/xlink" width="56pt" height="56pt" viewBox="0 0 56 56" version="1.1">
<g id="surface1">
<rect x="0" y="0" width="56" height="56" style="fill:rgb(92.987061%,13.728333%,13.821411%);fill-opacity:1;stroke:none;"/>
<path style=" stroke:none;fill-rule:nonzero;fill:rgb(100%,100%,100%);fill-opacity:1;" d="M 8.140625 33.953125 C 8.140625 33.949219 11.988281 29.949219 12.273438 29.644531 C 12.710938 29.679688 19.699219 30.367188 19.699219 30.367188 C 19.714844 30.371094 23.042969 30.59375 24.859375 30.664062 C 24.476562 31.777344 19.824219 45.46875 19.824219 45.46875 L 23.453125 45.214844 C 23.453125 45.214844 33.761719 30.800781 34.03125 30.410156 L 44.09375 30.410156 L 46.578125 30.199219 C 47.984375 29.980469 50.113281 28.4375 50.195312 28.363281 L 50.714844 27.976562 L 50.195312 27.59375 C 50.113281 27.53125 47.984375 26.019531 46.578125 25.804688 L 44.09375 25.589844 C 44.09375 25.589844 34.511719 25.589844 34.03125 25.589844 L 23.453125 10.789062 L 19.824219 10.53125 L 20.042969 11.214844 C 20.042969 11.214844 24.476562 24.222656 24.859375 25.335938 C 23.78125 25.378906 19.742188 25.589844 19.742188 25.589844 C 19.699219 25.59375 13.449219 26.273438 12.316406 26.402344 C 12.03125 26.085938 8.140625 22.050781 8.140625 22.050781 L 5.285156 22.347656 C 5.285156 22.347656 7.332031 27.621094 7.457031 27.9375 C 7.332031 28.25 5.285156 33.652344 5.285156 33.652344 L 8.140625 33.953125 "/>
</g>
</svg>
