<?xml version="1.0" encoding="UTF-8"?>
<svg xmlns="http://www.w3.org/2000/svg" xmlns:xlink="http://www.w3.org/1999/xlink" width="56pt" height="56pt" viewBox="0 0 56 56" version="1.1">
<g id="surface1">
<rect x="0" y="0" width="56" height="56" style="fill:rgb(16.653442%,48.21167%,21.405029%);fill-opacity:1;stroke:none;"/>
<path style=" stroke:none;fill-rule:nonzero;fill:rgb(100%,100%,100%);fill-opacity:1;" d="M 42.664062 35.953125 C 29.226562 35.953125 15.820312 35.953125 2.320312 35.953125 C 2.648438 35.765625 2.898438 35.617188 3.15625 35.476562 C 5.789062 34.03125 8.425781 32.589844 11.058594 31.144531 C 12.960938 30.097656 14.859375 29.054688 16.757812 28.011719 C 18.855469 26.859375 20.953125 25.707031 23.046875 24.550781 C 24.558594 23.71875 26.0625 22.882812 27.574219 22.050781 C 28.707031 21.429688 29.84375 20.8125 30.976562 20.1875 C 31.152344 20.09375 31.324219 20.042969 31.523438 20.050781 C 31.796875 20.058594 32.070312 20.050781 32.414062 20.050781 C 32.15625 20.363281 31.941406 20.628906 31.71875 20.890625 C 31.015625 21.734375 30.304688 22.582031 29.597656 23.425781 C 28.894531 24.257812 28.191406 25.09375 27.484375 25.921875 C 27.171875 26.289062 26.882812 26.671875 26.691406 27.113281 C 26.542969 27.457031 26.449219 27.804688 26.503906 28.191406 C 26.585938 28.785156 26.957031 29.128906 27.464844 29.34375 C 27.792969 29.480469 28.144531 29.570312 28.511719 29.5625 C 29.710938 29.539062 30.90625 29.527344 32.105469 29.507812 C 32.835938 29.496094 33.566406 29.488281 34.296875 29.476562 C 35.808594 29.457031 37.320312 29.429688 38.828125 29.40625 C 40.253906 29.382812 41.679688 29.359375 43.105469 29.332031 C 43.417969 29.324219 43.730469 29.320312 44.039062 29.28125 C 44.195312 29.261719 44.355469 29.179688 44.492188 29.09375 C 45.34375 28.539062 46.191406 27.972656 47.039062 27.410156 C 48.605469 26.371094 50.175781 25.335938 51.746094 24.296875 C 52.324219 23.914062 52.898438 23.523438 53.476562 23.140625 C 53.53125 23.101562 53.589844 23.074219 53.679688 23.085938 C 50.007812 27.378906 46.332031 31.667969 42.664062 35.953125 "/>
</g>
</svg>
