<?xml version="1.0" encoding="UTF-8"?>
<svg xmlns="http://www.w3.org/2000/svg" xmlns:xlink="http://www.w3.org/1999/xlink" width="56pt" height="56pt" viewBox="0 0 56 56" version="1.1">
<g id="surface1">
<rect x="0" y="0" width="56" height="56" style="fill:rgb(69.644165%,9.765625%,21.699524%);fill-opacity:1;stroke:none;"/>
<path style=" stroke:none;fill-rule:nonzero;fill:rgb(100%,100%,100%);fill-opacity:1;" d="M 48.90625 35.605469 C 47.386719 35.441406 45.859375 35.296875 44.339844 35.101562 C 41.476562 34.742188 38.742188 33.90625 36.09375 32.765625 C 33.730469 31.746094 31.347656 30.773438 28.808594 30.257812 C 28.121094 30.117188 27.414062 30.050781 26.714844 29.960938 C 26.394531 29.921875 26.074219 29.886719 25.753906 29.886719 C 23.117188 29.882812 20.585938 30.429688 18.15625 31.421875 C 15.414062 32.542969 12.726562 33.800781 9.894531 34.675781 C 8.570312 35.085938 7.242188 35.535156 5.824219 35.496094 C 5.511719 35.484375 5.304688 35.402344 5.320312 35.027344 C 5.332031 34.722656 5.574219 34.699219 5.746094 34.667969 C 7.234375 34.433594 8.59375 33.839844 9.898438 33.140625 C 12.023438 31.992188 14.113281 30.777344 16.21875 29.59375 C 17.628906 28.796875 19.011719 27.9375 20.460938 27.222656 C 22.738281 26.101562 25.140625 25.289062 27.644531 24.839844 C 28.945312 24.609375 30.257812 24.40625 31.578125 24.304688 C 33.171875 24.179688 34.78125 24.199219 36.386719 24.121094 C 37.0625 24.089844 37.746094 24.011719 38.414062 23.882812 C 38.664062 23.832031 38.878906 23.585938 39.109375 23.433594 C 38.890625 23.296875 38.679688 23.085938 38.441406 23.042969 C 37.40625 22.855469 36.359375 22.707031 35.316406 22.558594 C 33.621094 22.324219 31.941406 22.03125 30.339844 21.402344 C 30.101562 21.3125 29.929688 21.070312 29.726562 20.898438 C 29.964844 20.78125 30.195312 20.578125 30.4375 20.558594 C 31.660156 20.476562 32.894531 20.34375 34.113281 20.414062 C 35.550781 20.5 36.945312 20.890625 38.304688 21.398438 C 39.859375 21.976562 41.324219 22.71875 42.679688 23.660156 C 43.394531 24.15625 44.046875 24.746094 44.710938 25.316406 C 45.167969 25.714844 45.28125 26.253906 45.210938 26.835938 C 45.160156 27.199219 44.761719 27.464844 44.273438 27.464844 C 43.03125 27.46875 41.792969 27.570312 40.621094 28.015625 C 40.210938 28.171875 39.792969 28.394531 39.464844 28.683594 C 38.421875 29.605469 38.628906 30.816406 39.757812 31.605469 C 40.84375 32.371094 42.074219 32.835938 43.34375 33.160156 C 44.984375 33.585938 46.640625 33.949219 48.292969 34.320312 C 48.917969 34.460938 49.554688 34.542969 50.183594 34.675781 C 50.332031 34.707031 50.507812 34.792969 50.589844 34.910156 C 50.792969 35.210938 50.644531 35.480469 50.28125 35.492188 C 49.828125 35.507812 49.375 35.496094 48.917969 35.496094 C 48.914062 35.53125 48.910156 35.570312 48.90625 35.605469 "/>
</g>
</svg>
