<?xml version="1.0" encoding="UTF-8"?>
<svg xmlns="http://www.w3.org/2000/svg" xmlns:xlink="http://www.w3.org/1999/xlink" width="56pt" height="56pt" viewBox="0 0 56 56" version="1.1">
<g id="surface1">
<rect x="0" y="0" width="56" height="56" style="fill:rgb(95.666504%,95.776367%,96.775818%);fill-opacity:1;stroke:none;"/>
<path style=" stroke:none;fill-rule:nonzero;fill:rgb(98.455811%,78.450012%,2.806091%);fill-opacity:1;" d="M 23.277344 34.179688 L 30.367188 21.820312 L 38.597656 21.820312 L 38.597656 34.179688 L 33.652344 34.179688 L 33.652344 25.949219 L 28.742188 34.179688 L 23.277344 34.179688 "/>
<path style=" stroke:none;fill-rule:nonzero;fill:rgb(98.455811%,78.450012%,2.806091%);fill-opacity:1;" d="M 20.640625 21.820312 L 13.550781 34.179688 L 5.320312 34.179688 L 5.320312 21.820312 L 10.265625 21.820312 L 10.265625 30.046875 L 15.175781 21.820312 L 20.640625 21.820312 "/>
<path style=" stroke:none;fill-rule:nonzero;fill:rgb(98.455811%,78.450012%,2.806091%);fill-opacity:1;" d="M 22.59375 21.820312 L 28.449219 21.820312 L 21.257812 34.179688 L 15.402344 34.179688 L 22.59375 21.820312 "/>
<path style=" stroke:none;fill-rule:nonzero;fill:rgb(92.700195%,11.358643%,15.148926%);fill-opacity:1;" d="M 45.757812 34.15625 C 45.757812 34.15625 45.683594 31.398438 45.683594 31.195312 C 45.683594 30.996094 45.78125 30.964844 45.941406 31.039062 L 48.339844 31.570312 C 48.339844 31.570312 48.046875 30.605469 48.003906 30.460938 C 47.960938 30.320312 48.003906 30.171875 48.132812 30.03125 C 48.265625 29.886719 50.679688 27.792969 50.679688 27.792969 C 50.679688 27.792969 50.15625 27.390625 50.027344 27.289062 C 49.894531 27.1875 49.894531 27.027344 49.960938 26.886719 C 50.066406 26.65625 50.558594 25.617188 50.558594 25.617188 C 50.558594 25.617188 49.445312 25.898438 49.195312 25.957031 C 49.042969 25.996094 48.886719 25.964844 48.8125 25.816406 C 48.738281 25.667969 48.445312 25.074219 48.445312 25.074219 L 48.449219 25.078125 C 48.449219 25.078125 47.773438 25.710938 47.210938 26.222656 C 47.011719 26.410156 46.847656 26.222656 46.890625 26.035156 C 46.933594 25.847656 47.492188 23.351562 47.492188 23.351562 C 47.492188 23.351562 46.675781 23.570312 46.515625 23.605469 C 46.355469 23.644531 46.226562 23.539062 46.160156 23.398438 C 46.050781 23.167969 45.347656 21.820312 45.347656 21.820312 C 45.347656 21.820312 44.640625 23.167969 44.53125 23.398438 C 44.46875 23.539062 44.34375 23.644531 44.179688 23.605469 C 44.023438 23.570312 43.203125 23.351562 43.203125 23.351562 C 43.203125 23.351562 43.765625 25.847656 43.808594 26.035156 C 43.851562 26.222656 43.691406 26.410156 43.488281 26.222656 C 42.925781 25.710938 42.253906 25.078125 42.253906 25.078125 L 42.253906 25.074219 C 42.253906 25.074219 41.960938 25.667969 41.886719 25.816406 C 41.816406 25.964844 41.65625 25.996094 41.503906 25.957031 C 41.257812 25.898438 40.140625 25.617188 40.140625 25.617188 C 40.140625 25.617188 40.636719 26.65625 40.742188 26.886719 C 40.808594 27.027344 40.808594 27.1875 40.679688 27.289062 C 40.550781 27.390625 40.023438 27.792969 40.023438 27.792969 C 40.023438 27.792969 42.445312 29.886719 42.578125 30.03125 C 42.707031 30.171875 42.75 30.320312 42.707031 30.460938 C 42.664062 30.605469 42.375 31.570312 42.375 31.570312 L 44.769531 31.039062 C 44.929688 30.964844 45.03125 30.996094 45.03125 31.195312 C 45.03125 31.398438 44.960938 34.15625 44.960938 34.15625 L 45.757812 34.15625 "/>
</g>
</svg>
