<?xml version="1.0" encoding="UTF-8"?>
<svg xmlns="http://www.w3.org/2000/svg" xmlns:xlink="http://www.w3.org/1999/xlink" width="56pt" height="56pt" viewBox="0 0 56 56" version="1.1">
<g id="surface1">
<rect x="0" y="0" width="56" height="56" style="fill:rgb(95.66803%,95.779419%,96.777344%);fill-opacity:1;stroke:none;"/>
<path style=" stroke:none;fill-rule:nonzero;fill:rgb(92.662048%,15.351868%,25.341797%);fill-opacity:1;" d="M 51.128906 27.894531 C 51.113281 27.921875 51.085938 27.953125 51.082031 27.980469 C 50.964844 29.078125 50.589844 30.089844 50.050781 31.042969 C 49.625 31.792969 49.101562 32.476562 48.523438 33.113281 C 47.882812 33.824219 47.1875 34.472656 46.421875 35.042969 C 46.050781 35.324219 45.628906 35.53125 45.210938 35.746094 C 44.425781 36.152344 43.585938 36.421875 42.71875 36.59375 C 41.886719 36.757812 41.035156 36.796875 40.191406 36.726562 C 39.296875 36.652344 38.417969 36.480469 37.574219 36.167969 C 37.289062 36.066406 37.007812 35.960938 36.726562 35.851562 C 36.699219 35.839844 36.675781 35.808594 36.652344 35.785156 C 36.722656 35.796875 36.800781 35.804688 36.871094 35.828125 C 37.515625 36.03125 38.171875 36.152344 38.839844 36.203125 C 39.253906 36.230469 39.667969 36.214844 40.085938 36.179688 C 40.492188 36.144531 40.890625 36.0625 41.277344 35.949219 C 42.027344 35.730469 42.714844 35.378906 43.347656 34.925781 C 44.0625 34.417969 44.683594 33.816406 45.226562 33.132812 C 46 32.167969 46.753906 31.1875 47.390625 30.121094 C 47.433594 30.046875 47.511719 29.988281 47.570312 29.925781 C 48.003906 29.78125 48.394531 29.558594 48.773438 29.316406 C 49.480469 28.859375 50.058594 28.273438 50.5 27.558594 C 50.703125 27.230469 50.871094 26.886719 51.003906 26.527344 C 51.027344 26.460938 51.085938 26.40625 51.128906 26.347656 C 51.128906 26.863281 51.128906 27.378906 51.128906 27.894531 "/>
<path style=" stroke:none;fill-rule:nonzero;fill:rgb(15.890503%,32.261658%,66.28418%);fill-opacity:1;" d="M 47.570312 29.925781 C 47.511719 29.988281 47.433594 30.046875 47.390625 30.121094 C 46.753906 31.1875 46 32.167969 45.226562 33.132812 C 44.683594 33.816406 44.0625 34.417969 43.347656 34.925781 C 42.714844 35.378906 42.027344 35.730469 41.277344 35.949219 C 40.890625 36.0625 40.492188 36.144531 40.085938 36.179688 C 39.667969 36.214844 39.253906 36.230469 38.839844 36.203125 C 38.171875 36.152344 37.515625 36.03125 36.871094 35.828125 C 36.800781 35.804688 36.722656 35.796875 36.652344 35.785156 L 36.648438 35.789062 C 36.574219 35.691406 36.457031 35.679688 36.347656 35.660156 C 35.191406 35.191406 34.144531 34.539062 33.199219 33.726562 C 32.816406 33.398438 32.449219 33.046875 32.058594 32.726562 C 31.296875 32.101562 30.425781 31.710938 29.449219 31.550781 C 28.808594 31.445312 28.167969 31.476562 27.53125 31.570312 C 26.683594 31.699219 25.867188 31.933594 25.070312 32.238281 C 24.710938 32.375 24.371094 32.554688 24.023438 32.71875 C 23 33.203125 21.976562 33.683594 20.957031 34.171875 C 19.765625 34.738281 18.578125 35.308594 17.386719 35.878906 C 16.273438 36.410156 15.15625 36.941406 14.039062 37.476562 C 13.617188 37.675781 13.199219 37.882812 12.777344 38.082031 C 12.695312 38.117188 12.605469 38.136719 12.523438 38.164062 C 12.550781 38.132812 12.574219 38.09375 12.605469 38.070312 C 13.300781 37.597656 13.996094 37.128906 14.6875 36.65625 C 14.710938 36.644531 14.730469 36.628906 14.75 36.609375 L 14.746094 36.613281 C 14.765625 36.597656 14.785156 36.582031 14.804688 36.570312 L 14.820312 36.566406 C 14.886719 36.574219 14.941406 36.5625 14.929688 36.472656 L 14.929688 36.476562 C 14.988281 36.457031 15.058594 36.445312 15.109375 36.410156 C 15.402344 36.226562 15.683594 36.03125 15.972656 35.84375 C 16.359375 35.597656 16.75 35.359375 17.136719 35.113281 C 17.390625 34.957031 17.640625 34.789062 17.894531 34.632812 C 18.484375 34.269531 19.070312 33.90625 19.660156 33.546875 C 20.144531 33.25 20.628906 32.949219 21.121094 32.660156 C 21.707031 32.320312 22.292969 31.988281 22.886719 31.660156 C 23.582031 31.277344 24.28125 30.894531 24.984375 30.527344 C 25.484375 30.265625 26 30.027344 26.507812 29.78125 C 26.792969 29.640625 27.078125 29.484375 27.371094 29.355469 C 27.851562 29.148438 28.339844 28.964844 28.820312 28.757812 C 29.664062 28.402344 30.53125 28.121094 31.414062 27.898438 C 31.804688 27.800781 32.203125 27.730469 32.601562 27.664062 C 32.925781 27.609375 33.25 27.558594 33.578125 27.535156 C 33.996094 27.507812 34.417969 27.546875 34.835938 27.617188 C 35.355469 27.710938 35.855469 27.859375 36.300781 28.152344 C 36.347656 28.183594 36.414062 28.1875 36.46875 28.203125 L 36.464844 28.203125 C 36.480469 28.21875 36.5 28.238281 36.515625 28.257812 C 37.113281 28.9375 37.789062 29.527344 38.601562 29.941406 C 39.410156 30.359375 40.277344 30.546875 41.183594 30.472656 C 41.851562 30.414062 42.488281 30.230469 43.101562 29.964844 C 44.074219 29.535156 44.9375 28.945312 45.738281 28.257812 C 45.96875 28.058594 46.140625 27.789062 46.328125 27.542969 C 46.847656 26.855469 47.347656 26.15625 47.777344 25.40625 C 48.234375 24.605469 48.617188 23.769531 48.875 22.878906 C 48.960938 22.59375 49.003906 22.304688 49.007812 22.007812 C 49.019531 21.285156 48.699219 20.75 48.089844 20.375 C 48.078125 20.367188 48.0625 20.363281 48.050781 20.355469 C 47.699219 20.152344 47.699219 20.15625 47.328125 20.316406 C 46.714844 20.582031 46.074219 20.71875 45.40625 20.65625 C 44.9375 20.613281 44.488281 20.480469 44.042969 20.328125 C 43.832031 20.253906 43.613281 20.183594 43.40625 20.097656 C 42.953125 19.90625 42.480469 19.835938 41.996094 19.800781 C 41.878906 19.792969 41.761719 19.757812 41.609375 19.726562 C 41.667969 19.664062 41.699219 19.625 41.734375 19.59375 C 42.4375 19.011719 43.113281 18.394531 43.878906 17.886719 C 44.445312 17.511719 45.054688 17.234375 45.722656 17.109375 C 46.085938 17.042969 46.457031 17.003906 46.828125 17.078125 C 46.871094 17.089844 46.917969 17.082031 46.972656 17.082031 C 46.992188 17.027344 47.015625 16.972656 47.035156 16.917969 C 47.074219 16.824219 47.0625 16.746094 46.980469 16.675781 C 46.90625 16.613281 46.839844 16.539062 46.777344 16.464844 C 46.589844 16.234375 46.363281 16.066406 46.082031 15.972656 C 46.011719 15.949219 45.953125 15.90625 45.894531 15.871094 C 45.902344 15.839844 45.898438 15.816406 45.90625 15.8125 C 46.394531 15.53125 46.90625 15.320312 47.476562 15.269531 C 48.144531 15.210938 48.671875 15.464844 49.078125 15.984375 C 49.34375 16.328125 49.53125 16.714844 49.664062 17.144531 C 49.613281 17.148438 49.570312 17.167969 49.53125 17.15625 C 49.214844 17.074219 48.902344 17.148438 48.589844 17.1875 C 48.550781 17.195312 48.515625 17.214844 48.476562 17.210938 C 48.246094 17.183594 48.113281 17.308594 48.011719 17.515625 C 48.046875 17.542969 48.085938 17.582031 48.128906 17.605469 C 49.050781 18.113281 49.660156 18.878906 50.007812 19.867188 C 50.296875 20.707031 50.421875 21.570312 50.382812 22.453125 C 50.359375 22.980469 50.261719 23.503906 50.148438 24.019531 C 49.816406 25.535156 49.226562 26.953125 48.492188 28.316406 C 48.199219 28.859375 47.878906 29.390625 47.570312 29.925781 "/>
<path style=" stroke:none;fill-rule:nonzero;fill:rgb(25.942993%,69.560242%,77.378845%);fill-opacity:1;" d="M 36.46875 28.203125 C 36.414062 28.1875 36.347656 28.183594 36.300781 28.152344 C 35.855469 27.859375 35.355469 27.710938 34.835938 27.617188 C 34.417969 27.546875 33.996094 27.507812 33.578125 27.535156 C 33.25 27.558594 32.925781 27.609375 32.601562 27.664062 C 32.203125 27.730469 31.804688 27.800781 31.414062 27.898438 C 30.53125 28.121094 29.664062 28.402344 28.820312 28.757812 C 28.339844 28.964844 27.851562 29.148438 27.371094 29.355469 C 27.078125 29.484375 26.792969 29.640625 26.507812 29.78125 C 26 30.027344 25.484375 30.265625 24.984375 30.527344 C 24.28125 30.894531 23.582031 31.277344 22.886719 31.660156 C 22.292969 31.988281 21.707031 32.320312 21.121094 32.660156 C 20.628906 32.949219 20.144531 33.25 19.660156 33.546875 C 19.070312 33.90625 18.484375 34.269531 17.894531 34.632812 C 17.640625 34.789062 17.390625 34.957031 17.136719 35.113281 C 16.75 35.359375 16.359375 35.597656 15.972656 35.84375 C 15.683594 36.03125 15.402344 36.226562 15.109375 36.410156 C 15.058594 36.445312 14.988281 36.457031 14.929688 36.476562 C 14.996094 36.40625 15.058594 36.332031 15.132812 36.269531 C 15.542969 35.925781 15.957031 35.585938 16.371094 35.25 C 16.945312 34.78125 17.519531 34.320312 18.09375 33.851562 C 18.664062 33.386719 19.238281 32.917969 19.800781 32.441406 C 20.324219 31.996094 20.835938 31.535156 21.351562 31.085938 C 21.964844 30.558594 22.578125 30.03125 23.191406 29.511719 C 23.707031 29.070312 24.21875 28.625 24.746094 28.199219 C 25.46875 27.605469 26.199219 27.023438 26.9375 26.445312 C 27.71875 25.835938 28.511719 25.230469 29.308594 24.640625 C 30.078125 24.070312 30.882812 23.550781 31.703125 23.054688 C 31.8125 22.988281 31.917969 22.917969 32.027344 22.851562 C 32.648438 22.648438 33.265625 22.425781 33.890625 22.246094 C 34.644531 22.03125 35.402344 21.820312 36.179688 21.742188 C 36.734375 21.6875 37.296875 21.667969 37.878906 21.835938 C 37.765625 21.960938 37.664062 22.066406 37.566406 22.175781 C 37.011719 22.804688 36.515625 23.476562 36.167969 24.246094 C 35.84375 24.960938 35.742188 25.710938 35.828125 26.480469 C 35.886719 27.039062 36.117188 27.550781 36.398438 28.039062 C 36.429688 28.089844 36.445312 28.148438 36.46875 28.203125 "/>
<path style=" stroke:none;fill-rule:nonzero;fill:rgb(49.853516%,79.574585%,17.182922%);fill-opacity:1;" d="M 32.027344 22.851562 C 31.917969 22.917969 31.8125 22.988281 31.703125 23.054688 C 30.882812 23.550781 30.078125 24.070312 29.308594 24.640625 C 28.511719 25.230469 27.71875 25.835938 26.9375 26.445312 C 26.199219 27.023438 25.46875 27.605469 24.746094 28.199219 C 24.21875 28.625 23.707031 29.070312 23.191406 29.511719 C 22.578125 30.03125 21.964844 30.558594 21.351562 31.085938 C 20.835938 31.535156 20.324219 31.996094 19.800781 32.441406 C 19.238281 32.917969 18.664062 33.386719 18.09375 33.851562 C 17.519531 34.320312 16.945312 34.78125 16.371094 35.25 C 15.957031 35.585938 15.542969 35.925781 15.132812 36.269531 C 15.058594 36.332031 14.996094 36.40625 14.929688 36.476562 L 14.929688 36.472656 C 14.894531 36.503906 14.855469 36.535156 14.820312 36.566406 L 14.804688 36.570312 C 14.785156 36.582031 14.765625 36.597656 14.746094 36.613281 L 14.75 36.609375 C 14.730469 36.628906 14.710938 36.644531 14.6875 36.65625 C 13.996094 37.128906 13.300781 37.597656 12.605469 38.070312 C 12.574219 38.09375 12.550781 38.132812 12.523438 38.164062 C 12.144531 38.363281 11.773438 38.574219 11.390625 38.765625 C 10.765625 39.082031 10.125 39.355469 9.460938 39.585938 C 9.042969 39.730469 8.621094 39.855469 8.191406 39.972656 C 7.648438 40.121094 7.101562 40.261719 6.554688 40.386719 C 6.019531 40.515625 5.484375 40.621094 4.949219 40.738281 C 4.925781 40.742188 4.902344 40.734375 4.871094 40.703125 C 5.015625 40.644531 5.164062 40.585938 5.308594 40.53125 C 5.957031 40.285156 6.597656 40.019531 7.214844 39.707031 C 7.660156 39.484375 8.113281 39.28125 8.542969 39.03125 C 9.292969 38.609375 10.03125 38.167969 10.757812 37.71875 C 11.695312 37.136719 12.585938 36.488281 13.460938 35.824219 C 14.070312 35.367188 14.667969 34.894531 15.25 34.40625 C 15.980469 33.792969 16.695312 33.167969 17.40625 32.535156 C 18.003906 32.003906 18.585938 31.457031 19.167969 30.90625 C 19.53125 30.574219 19.871094 30.222656 20.238281 29.894531 C 20.691406 29.484375 21.152344 29.078125 21.625 28.691406 C 22.230469 28.199219 22.839844 27.703125 23.472656 27.242188 C 24.128906 26.761719 24.808594 26.3125 25.488281 25.867188 C 26.484375 25.210938 27.535156 24.648438 28.617188 24.148438 C 29.246094 23.859375 29.890625 23.605469 30.53125 23.347656 C 30.921875 23.191406 31.324219 23.054688 31.71875 22.914062 C 31.816406 22.882812 31.921875 22.871094 32.027344 22.851562 "/>
<path style=" stroke:none;fill-rule:nonzero;fill:rgb(92.662048%,15.351868%,25.341797%);fill-opacity:1;" d="M 36.347656 35.660156 C 36.457031 35.679688 36.574219 35.691406 36.648438 35.789062 C 36.546875 35.746094 36.449219 35.707031 36.347656 35.660156 "/>
<path style=" stroke:none;fill-rule:nonzero;fill:rgb(25.942993%,69.560242%,77.378845%);fill-opacity:1;" d="M 36.515625 28.257812 C 36.5 28.238281 36.480469 28.21875 36.464844 28.203125 C 36.480469 28.21875 36.5 28.238281 36.515625 28.257812 "/>
</g>
</svg>
