<?xml version="1.0" encoding="UTF-8"?>
<svg xmlns="http://www.w3.org/2000/svg" xmlns:xlink="http://www.w3.org/1999/xlink" width="56pt" height="56pt" viewBox="0 0 56 56" version="1.1">
<g id="surface1">
<rect x="0" y="0" width="56" height="56" style="fill:rgb(32.229614%,72.875977%,92.630005%);fill-opacity:1;stroke:none;"/>
<path style=" stroke:none;fill-rule:nonzero;fill:rgb(100%,100%,100%);fill-opacity:1;" d="M 6.363281 45.039062 C 6.53125 43.734375 6.652344 42.488281 6.863281 41.257812 C 7.488281 37.675781 8.230469 34.113281 8.769531 30.519531 C 9.121094 28.15625 9.378906 25.777344 10.152344 23.519531 C 12.460938 16.765625 17.398438 13.363281 24.332031 12.390625 C 28.742188 11.769531 33.148438 12.152344 37.554688 12.058594 C 41.515625 11.972656 45.472656 12.039062 49.429688 12.042969 C 49.683594 12.042969 49.941406 12.101562 50.277344 12.140625 C 49.480469 16.570312 48.722656 20.917969 47.914062 25.253906 C 47.695312 26.417969 47.453125 27.605469 47 28.695312 C 45.671875 31.886719 43.148438 33.585938 39.757812 33.757812 C 36.410156 33.925781 33.046875 33.742188 29.695312 33.863281 C 24.703125 34.046875 19.777344 34.738281 15.273438 37.070312 C 12.039062 38.746094 9.269531 41.042969 7.25 44.140625 C 7.074219 44.414062 6.878906 44.675781 6.679688 44.933594 C 6.652344 44.972656 6.574219 44.972656 6.363281 45.039062 "/>
</g>
</svg>
