<?xml version="1.0" encoding="UTF-8"?>
<svg xmlns="http://www.w3.org/2000/svg" xmlns:xlink="http://www.w3.org/1999/xlink" width="56pt" height="56pt" viewBox="0 0 56 56" version="1.1">
<g id="surface1">
<rect x="0" y="0" width="56" height="56" style="fill:rgb(95.666504%,95.776367%,96.775818%);fill-opacity:1;stroke:none;"/>
<path style=" stroke:none;fill-rule:nonzero;fill:rgb(12.860107%,11.213684%,11.195374%);fill-opacity:1;" d="M 19.914062 27.996094 L 22.804688 25.105469 L 21.859375 24.242188 C 20.824219 24.933594 19.578125 25.335938 18.242188 25.335938 C 14.640625 25.335938 11.71875 22.417969 11.71875 18.816406 C 11.71875 15.214844 14.640625 12.296875 18.242188 12.296875 C 21.84375 12.296875 24.761719 15.214844 24.761719 18.816406 C 24.761719 19.855469 24.511719 20.835938 24.078125 21.707031 L 25.191406 22.722656 L 27.910156 20.003906 L 28.238281 20.332031 C 28.339844 19.765625 28.394531 19.183594 28.394531 18.589844 C 28.394531 12.980469 23.847656 8.433594 18.242188 8.433594 C 12.632812 8.433594 8.085938 12.980469 8.085938 18.589844 C 8.085938 24.199219 12.632812 28.746094 18.242188 28.746094 C 18.988281 28.746094 19.71875 28.65625 20.417969 28.5 L 19.914062 27.996094 "/>
<path style=" stroke:none;fill-rule:nonzero;fill:rgb(28.645325%,42.137146%,18.208313%);fill-opacity:1;" d="M 36.085938 27.996094 L 33.195312 25.105469 L 34.140625 24.242188 C 35.175781 24.933594 36.421875 25.335938 37.761719 25.335938 C 41.359375 25.335938 44.28125 22.417969 44.28125 18.816406 C 44.28125 15.214844 41.359375 12.296875 37.761719 12.296875 C 34.15625 12.296875 31.238281 15.214844 31.238281 18.816406 C 31.238281 19.855469 31.488281 20.835938 31.917969 21.707031 L 30.808594 22.722656 L 28.089844 20.003906 L 27.761719 20.332031 C 27.660156 19.765625 27.601562 19.183594 27.601562 18.589844 C 27.601562 12.980469 32.152344 8.433594 37.761719 8.433594 C 43.367188 8.433594 47.914062 12.980469 47.914062 18.589844 C 47.914062 24.199219 43.367188 28.746094 37.761719 28.746094 C 37.011719 28.746094 36.28125 28.65625 35.582031 28.5 L 36.085938 27.996094 "/>
<path style=" stroke:none;fill-rule:nonzero;fill:rgb(93.115234%,56.735229%,7.226562%);fill-opacity:1;" d="M 19.914062 28.003906 L 22.804688 30.894531 L 21.859375 31.757812 C 20.824219 31.066406 19.578125 30.664062 18.242188 30.664062 C 14.640625 30.664062 11.71875 33.582031 11.71875 37.183594 C 11.71875 40.785156 14.640625 43.707031 18.242188 43.707031 C 21.84375 43.707031 24.761719 40.785156 24.761719 37.183594 C 24.761719 36.144531 24.511719 35.164062 24.078125 34.292969 L 25.191406 33.277344 L 27.910156 35.996094 L 28.238281 35.667969 C 28.339844 36.234375 28.394531 36.816406 28.394531 37.410156 C 28.394531 43.019531 23.847656 47.566406 18.242188 47.566406 C 12.632812 47.566406 8.085938 43.019531 8.085938 37.410156 C 8.085938 31.800781 12.632812 27.253906 18.242188 27.253906 C 18.988281 27.253906 19.71875 27.34375 20.417969 27.5 L 19.914062 28.003906 "/>
<path style=" stroke:none;fill-rule:nonzero;fill:rgb(74.902344%,12.084961%,14.343262%);fill-opacity:1;" d="M 36.085938 28.003906 L 33.195312 30.894531 L 34.140625 31.757812 C 35.175781 31.066406 36.421875 30.664062 37.761719 30.664062 C 41.359375 30.664062 44.28125 33.582031 44.28125 37.183594 C 44.28125 40.785156 41.359375 43.707031 37.761719 43.707031 C 34.15625 43.707031 31.238281 40.785156 31.238281 37.183594 C 31.238281 36.144531 31.488281 35.164062 31.917969 34.292969 L 30.808594 33.277344 L 28.089844 35.996094 L 27.761719 35.667969 C 27.660156 36.234375 27.601562 36.816406 27.601562 37.410156 C 27.601562 43.019531 32.152344 47.566406 37.761719 47.566406 C 43.367188 47.566406 47.914062 43.019531 47.914062 37.410156 C 47.914062 31.800781 43.367188 27.253906 37.761719 27.253906 C 37.011719 27.253906 36.28125 27.34375 35.582031 27.5 L 36.085938 28.003906 "/>
</g>
</svg>
