<?xml version="1.0" encoding="UTF-8"?>
<svg xmlns="http://www.w3.org/2000/svg" xmlns:xlink="http://www.w3.org/1999/xlink" width="56pt" height="56pt" viewBox="0 0 56 56" version="1.1">
<g id="surface1">
<rect x="0" y="0" width="56" height="56" style="fill:rgb(30.09491%,56.861877%,83.241272%);fill-opacity:1;stroke:none;"/>
<path style=" stroke:none;fill-rule:nonzero;fill:rgb(100%,100%,100%);fill-opacity:1;" d="M 49.03125 28.015625 C 49.019531 27.09375 48.945312 26.175781 48.820312 25.265625 C 48.742188 24.703125 48.648438 24.144531 48.507812 23.597656 C 48.378906 23.101562 48.238281 22.609375 48.097656 22.117188 C 47.933594 21.535156 47.714844 20.96875 47.480469 20.414062 C 47.15625 19.652344 46.792969 18.910156 46.375 18.195312 C 45.984375 17.519531 45.554688 16.863281 45.082031 16.242188 C 44.792969 15.863281 44.503906 15.488281 44.1875 15.132812 C 43.789062 14.675781 43.378906 14.226562 42.949219 13.804688 C 42.386719 13.261719 41.796875 12.75 41.175781 12.269531 C 40.378906 11.65625 39.546875 11.097656 38.671875 10.601562 C 37.957031 10.191406 37.210938 9.828125 36.449219 9.503906 C 35.425781 9.070312 34.371094 8.71875 33.292969 8.453125 C 32.296875 8.203125 31.289062 8.027344 30.265625 7.921875 C 29.632812 7.859375 28.996094 7.824219 28.363281 7.808594 C 27.472656 7.785156 26.585938 7.839844 25.699219 7.929688 C 25.03125 7.996094 24.363281 8.09375 23.703125 8.226562 C 23.074219 8.351562 22.453125 8.515625 21.835938 8.695312 C 20.8125 8.996094 19.820312 9.371094 18.851562 9.816406 C 17.894531 10.261719 16.972656 10.78125 16.089844 11.367188 C 15.195312 11.960938 14.34375 12.613281 13.550781 13.339844 C 12.371094 14.421875 11.324219 15.617188 10.421875 16.945312 C 9.742188 17.941406 9.15625 18.988281 8.664062 20.085938 C 8.21875 21.082031 7.867188 22.109375 7.601562 23.164062 C 7.496094 23.578125 7.398438 23.996094 7.324219 24.417969 C 7.238281 24.886719 7.175781 25.359375 7.125 25.828125 C 7.070312 26.316406 7.023438 26.804688 7.003906 27.292969 C 6.96875 28.253906 7.011719 29.207031 7.117188 30.164062 C 7.195312 30.878906 7.308594 31.589844 7.46875 32.289062 C 7.78125 33.667969 8.234375 35 8.835938 36.277344 C 9.296875 37.257812 9.832031 38.195312 10.445312 39.089844 C 11.027344 39.945312 11.671875 40.753906 12.390625 41.503906 C 12.8125 41.945312 13.257812 42.367188 13.707031 42.785156 C 14.304688 43.339844 14.945312 43.839844 15.613281 44.304688 C 16.441406 44.886719 17.304688 45.410156 18.210938 45.863281 C 18.949219 46.238281 19.707031 46.5625 20.480469 46.855469 C 21.097656 47.085938 21.722656 47.285156 22.359375 47.453125 C 23.375 47.71875 24.402344 47.914062 25.445312 48.039062 C 26.246094 48.136719 27.050781 48.160156 27.851562 48.195312 C 28.121094 48.203125 28.390625 48.179688 28.65625 48.167969 C 29.039062 48.152344 29.421875 48.144531 29.804688 48.109375 C 30.335938 48.0625 30.871094 48 31.398438 47.921875 C 31.921875 47.84375 32.441406 47.75 32.957031 47.628906 C 33.476562 47.507812 33.988281 47.351562 34.503906 47.203125 C 35.222656 46.996094 35.921875 46.726562 36.609375 46.425781 C 37.878906 45.875 39.085938 45.210938 40.222656 44.425781 C 41 43.886719 41.75 43.316406 42.4375 42.667969 C 42.976562 42.160156 43.492188 41.617188 44 41.078125 C 44.507812 40.539062 44.953125 39.953125 45.378906 39.351562 C 46.085938 38.347656 46.699219 37.292969 47.214844 36.175781 C 47.609375 35.328125 47.9375 34.457031 48.203125 33.558594 C 48.371094 32.996094 48.511719 32.425781 48.628906 31.847656 C 48.75 31.230469 48.851562 30.609375 48.910156 29.988281 C 48.96875 29.332031 48.992188 28.671875 49.03125 28.015625 Z M 4.410156 28.390625 C 4.410156 27.871094 4.410156 27.347656 4.410156 26.824219 C 4.421875 26.777344 4.445312 26.730469 4.449219 26.683594 C 4.515625 26.050781 4.558594 25.414062 4.648438 24.785156 C 4.738281 24.171875 4.851562 23.5625 4.992188 22.960938 C 5.152344 22.273438 5.347656 21.597656 5.578125 20.933594 C 5.84375 20.148438 6.15625 19.382812 6.507812 18.636719 C 6.953125 17.683594 7.46875 16.769531 8.046875 15.890625 C 8.894531 14.605469 9.863281 13.421875 10.945312 12.332031 C 11.589844 11.683594 12.269531 11.070312 12.984375 10.503906 C 13.695312 9.945312 14.433594 9.421875 15.203125 8.945312 C 16.003906 8.449219 16.828125 7.996094 17.683594 7.597656 C 18.460938 7.234375 19.257812 6.914062 20.066406 6.636719 C 21.167969 6.257812 22.292969 5.960938 23.4375 5.742188 C 24.042969 5.625 24.664062 5.566406 25.277344 5.480469 C 26.136719 5.355469 27 5.335938 27.867188 5.320312 C 28.21875 5.3125 28.570312 5.335938 28.921875 5.347656 C 29.222656 5.359375 29.523438 5.367188 29.820312 5.394531 C 30.421875 5.453125 31.023438 5.515625 31.621094 5.589844 C 32.445312 5.691406 33.253906 5.867188 34.054688 6.070312 C 34.648438 6.21875 35.230469 6.40625 35.8125 6.59375 C 36.511719 6.820312 37.195312 7.089844 37.867188 7.390625 C 38.605469 7.714844 39.324219 8.074219 40.023438 8.476562 C 40.800781 8.921875 41.554688 9.40625 42.277344 9.9375 C 42.980469 10.457031 43.664062 11.007812 44.304688 11.601562 C 45.355469 12.582031 46.328125 13.632812 47.183594 14.789062 C 47.730469 15.523438 48.234375 16.28125 48.6875 17.078125 C 49.132812 17.863281 49.546875 18.664062 49.882812 19.507812 C 50.117188 20.101562 50.351562 20.703125 50.550781 21.3125 C 50.726562 21.847656 50.867188 22.398438 51.007812 22.949219 C 51.109375 23.355469 51.191406 23.769531 51.265625 24.183594 C 51.332031 24.566406 51.378906 24.953125 51.433594 25.339844 C 51.414062 25.394531 51.394531 25.449219 51.457031 25.488281 C 51.464844 25.59375 51.472656 25.695312 51.480469 25.800781 C 51.460938 25.871094 51.429688 25.9375 51.507812 25.996094 C 51.519531 26.148438 51.527344 26.300781 51.539062 26.457031 C 51.53125 26.460938 51.523438 26.464844 51.523438 26.472656 C 51.480469 26.71875 51.539062 26.957031 51.589844 27.195312 C 51.589844 27.886719 51.589844 28.578125 51.589844 29.269531 C 51.578125 29.308594 51.550781 29.347656 51.546875 29.386719 C 51.515625 29.722656 51.496094 30.058594 51.457031 30.394531 C 51.398438 30.894531 51.34375 31.398438 51.253906 31.894531 C 51.136719 32.558594 50.992188 33.21875 50.796875 33.859375 C 50.605469 34.488281 50.414062 35.121094 50.1875 35.734375 C 49.820312 36.726562 49.371094 37.683594 48.859375 38.613281 C 48.355469 39.519531 47.796875 40.386719 47.175781 41.214844 C 46.730469 41.8125 46.253906 42.382812 45.753906 42.933594 C 45.058594 43.695312 44.320312 44.410156 43.53125 45.070312 C 42.707031 45.765625 41.835938 46.402344 40.917969 46.980469 C 40.035156 47.535156 39.121094 48.035156 38.171875 48.46875 C 37.570312 48.742188 36.949219 48.984375 36.328125 49.222656 C 35.4375 49.5625 34.527344 49.820312 33.601562 50.035156 C 32.660156 50.253906 31.714844 50.429688 30.753906 50.515625 C 30.578125 50.53125 30.402344 50.542969 30.226562 50.566406 C 29.609375 50.652344 28.988281 50.65625 28.371094 50.675781 C 27.964844 50.691406 27.558594 50.660156 27.152344 50.65625 C 26.324219 50.644531 25.5 50.5625 24.679688 50.449219 C 24.203125 50.382812 23.726562 50.3125 23.253906 50.21875 C 22.382812 50.039062 21.523438 49.820312 20.675781 49.554688 C 19.578125 49.214844 18.515625 48.789062 17.476562 48.300781 C 16.742188 47.953125 16.03125 47.5625 15.339844 47.132812 C 14.601562 46.675781 13.890625 46.1875 13.203125 45.65625 C 12.664062 45.238281 12.140625 44.800781 11.640625 44.339844 C 10.875 43.628906 10.15625 42.871094 9.492188 42.0625 C 8.875 41.308594 8.300781 40.523438 7.785156 39.699219 C 7.097656 38.597656 6.503906 37.449219 6.019531 36.246094 C 5.894531 35.945312 5.792969 35.628906 5.683594 35.320312 C 5.671875 35.140625 5.605469 34.980469 5.5 34.835938 C 5.492188 34.804688 5.484375 34.777344 5.480469 34.75 C 5.542969 34.683594 5.488281 34.667969 5.4375 34.652344 C 5.410156 34.550781 5.386719 34.453125 5.359375 34.351562 C 5.382812 34.296875 5.371094 34.257812 5.3125 34.234375 C 5.304688 34.207031 5.300781 34.179688 5.296875 34.152344 C 5.359375 34.089844 5.308594 34.070312 5.257812 34.050781 C 5.25 33.996094 5.238281 33.941406 5.226562 33.890625 C 5.238281 33.84375 5.242188 33.800781 5.1875 33.78125 C 5.183594 33.757812 5.179688 33.730469 5.175781 33.707031 C 5.191406 33.640625 5.21875 33.570312 5.117188 33.546875 C 5.113281 33.515625 5.109375 33.488281 5.105469 33.460938 C 5.175781 33.402344 5.128906 33.378906 5.074219 33.359375 C 5.0625 33.292969 5.050781 33.222656 5.039062 33.15625 C 5.058594 33.101562 5.050781 33.058594 4.988281 33.035156 C 4.984375 32.992188 4.976562 32.949219 4.972656 32.90625 C 5.035156 32.851562 4.992188 32.828125 4.941406 32.804688 C 4.929688 32.722656 4.914062 32.640625 4.902344 32.554688 C 4.917969 32.511719 4.917969 32.46875 4.867188 32.445312 C 4.863281 32.40625 4.859375 32.363281 4.855469 32.324219 C 4.871094 32.261719 4.890625 32.195312 4.804688 32.160156 C 4.800781 32.117188 4.792969 32.074219 4.785156 32.03125 C 4.84375 31.96875 4.835938 31.921875 4.757812 31.886719 C 4.742188 31.785156 4.730469 31.6875 4.714844 31.589844 C 4.726562 31.53125 4.753906 31.46875 4.679688 31.433594 C 4.675781 31.363281 4.667969 31.292969 4.664062 31.222656 C 4.675781 31.144531 4.730469 31.054688 4.613281 31.011719 C 4.605469 30.953125 4.601562 30.894531 4.597656 30.832031 C 4.652344 30.78125 4.65625 30.734375 4.585938 30.695312 C 4.582031 30.667969 4.582031 30.644531 4.578125 30.621094 C 4.589844 30.550781 4.625 30.472656 4.542969 30.417969 C 4.539062 30.332031 4.535156 30.246094 4.53125 30.160156 C 4.535156 30.058594 4.59375 29.953125 4.492188 29.863281 C 4.484375 29.742188 4.476562 29.617188 4.46875 29.496094 C 4.476562 29.488281 4.484375 29.484375 4.488281 29.480469 C 4.523438 29.117188 4.5 28.761719 4.425781 28.40625 C 4.425781 28.398438 4.414062 28.394531 4.410156 28.390625 "/>
<path style=" stroke:none;fill-rule:nonzero;fill:rgb(100%,100%,100%);fill-opacity:1;" d="M 4.46875 29.496094 C 4.449219 29.496094 4.429688 29.496094 4.410156 29.496094 C 4.410156 29.128906 4.410156 28.761719 4.410156 28.390625 C 4.414062 28.394531 4.425781 28.398438 4.425781 28.40625 C 4.5 28.761719 4.523438 29.117188 4.488281 29.480469 C 4.484375 29.484375 4.476562 29.488281 4.46875 29.496094 "/>
<path style=" stroke:none;fill-rule:nonzero;fill:rgb(100%,100%,100%);fill-opacity:1;" d="M 5.683594 35.320312 C 5.566406 35.179688 5.511719 35.015625 5.5 34.835938 C 5.605469 34.980469 5.671875 35.140625 5.683594 35.320312 "/>
<path style=" stroke:none;fill-rule:nonzero;fill:rgb(100%,100%,100%);fill-opacity:1;" d="M 4.53125 30.160156 C 4.425781 30.074219 4.460938 29.96875 4.492188 29.863281 C 4.59375 29.953125 4.535156 30.058594 4.53125 30.160156 "/>
<path style=" stroke:none;fill-rule:nonzero;fill:rgb(100%,100%,100%);fill-opacity:1;" d="M 4.578125 30.621094 C 4.492188 30.566406 4.496094 30.496094 4.542969 30.417969 C 4.625 30.472656 4.589844 30.550781 4.578125 30.621094 "/>
<path style=" stroke:none;fill-rule:nonzero;fill:rgb(100%,100%,100%);fill-opacity:1;" d="M 4.664062 31.222656 C 4.585938 31.167969 4.59375 31.089844 4.613281 31.011719 C 4.730469 31.054688 4.675781 31.144531 4.664062 31.222656 "/>
<path style=" stroke:none;fill-rule:nonzero;fill:rgb(100%,100%,100%);fill-opacity:1;" d="M 4.597656 30.832031 C 4.550781 30.789062 4.535156 30.746094 4.585938 30.695312 C 4.65625 30.734375 4.652344 30.78125 4.597656 30.832031 "/>
<path style=" stroke:none;fill-rule:nonzero;fill:rgb(100%,100%,100%);fill-opacity:1;" d="M 4.714844 31.589844 C 4.648438 31.550781 4.625 31.5 4.679688 31.433594 C 4.753906 31.46875 4.726562 31.53125 4.714844 31.589844 "/>
<path style=" stroke:none;fill-rule:nonzero;fill:rgb(100%,100%,100%);fill-opacity:1;" d="M 4.785156 32.03125 C 4.726562 31.992188 4.734375 31.941406 4.757812 31.886719 C 4.835938 31.921875 4.84375 31.96875 4.785156 32.03125 "/>
<path style=" stroke:none;fill-rule:nonzero;fill:rgb(100%,100%,100%);fill-opacity:1;" d="M 4.855469 32.324219 C 4.78125 32.285156 4.773438 32.230469 4.804688 32.160156 C 4.890625 32.195312 4.871094 32.261719 4.855469 32.324219 "/>
<path style=" stroke:none;fill-rule:nonzero;fill:rgb(100%,100%,100%);fill-opacity:1;" d="M 5.175781 33.707031 C 5.109375 33.671875 5.097656 33.613281 5.117188 33.546875 C 5.21875 33.570312 5.191406 33.640625 5.175781 33.707031 "/>
<path style=" stroke:none;fill-rule:nonzero;fill:rgb(100%,100%,100%);fill-opacity:1;" d="M 4.902344 32.554688 C 4.859375 32.527344 4.804688 32.503906 4.867188 32.445312 C 4.917969 32.46875 4.917969 32.511719 4.902344 32.554688 "/>
<path style=" stroke:none;fill-rule:nonzero;fill:rgb(100%,100%,100%);fill-opacity:1;" d="M 4.972656 32.90625 C 4.921875 32.886719 4.917969 32.847656 4.941406 32.804688 C 4.992188 32.828125 5.035156 32.851562 4.972656 32.90625 "/>
<path style=" stroke:none;fill-rule:nonzero;fill:rgb(100%,100%,100%);fill-opacity:1;" d="M 5.039062 33.15625 C 4.988281 33.128906 4.957031 33.097656 4.988281 33.035156 C 5.050781 33.058594 5.058594 33.101562 5.039062 33.15625 "/>
<path style=" stroke:none;fill-rule:nonzero;fill:rgb(100%,100%,100%);fill-opacity:1;" d="M 5.105469 33.460938 C 5.09375 33.425781 5.085938 33.394531 5.074219 33.359375 C 5.128906 33.378906 5.175781 33.402344 5.105469 33.460938 "/>
<path style=" stroke:none;fill-rule:nonzero;fill:rgb(100%,100%,100%);fill-opacity:1;" d="M 5.226562 33.890625 C 5.1875 33.863281 5.125 33.84375 5.1875 33.78125 C 5.242188 33.800781 5.238281 33.84375 5.226562 33.890625 "/>
<path style=" stroke:none;fill-rule:nonzero;fill:rgb(100%,100%,100%);fill-opacity:1;" d="M 5.296875 34.152344 C 5.285156 34.117188 5.269531 34.085938 5.257812 34.050781 C 5.308594 34.070312 5.359375 34.089844 5.296875 34.152344 "/>
<path style=" stroke:none;fill-rule:nonzero;fill:rgb(100%,100%,100%);fill-opacity:1;" d="M 5.359375 34.351562 C 5.316406 34.324219 5.277344 34.292969 5.3125 34.234375 C 5.371094 34.257812 5.382812 34.296875 5.359375 34.351562 "/>
<path style=" stroke:none;fill-rule:nonzero;fill:rgb(100%,100%,100%);fill-opacity:1;" d="M 5.480469 34.75 C 5.464844 34.71875 5.449219 34.683594 5.4375 34.652344 C 5.488281 34.667969 5.542969 34.683594 5.480469 34.75 "/>
<path style=" stroke:none;fill-rule:nonzero;fill:rgb(100%,100%,100%);fill-opacity:1;" d="M 13.730469 25.703125 C 14.074219 25.074219 14.488281 24.496094 14.980469 23.976562 C 15.636719 23.296875 16.382812 22.746094 17.238281 22.335938 C 17.910156 22.011719 18.613281 21.789062 19.34375 21.648438 C 19.949219 21.527344 20.558594 21.480469 21.171875 21.488281 C 22.0625 21.503906 22.9375 21.640625 23.800781 21.863281 C 24.621094 22.078125 25.367188 22.433594 26.070312 22.898438 C 26.640625 23.28125 27.21875 23.65625 27.835938 23.96875 C 28.550781 24.332031 29.296875 24.605469 30.085938 24.742188 C 30.574219 24.828125 31.066406 24.84375 31.554688 24.792969 C 32.734375 24.667969 33.707031 24.144531 34.480469 23.242188 C 34.785156 22.890625 35.027344 22.503906 35.246094 22.097656 C 35.648438 21.367188 36.136719 20.699219 36.730469 20.117188 C 37.265625 19.59375 37.871094 19.164062 38.574219 18.886719 C 39.171875 18.648438 39.792969 18.539062 40.4375 18.574219 C 41.082031 18.613281 41.691406 18.785156 42.257812 19.09375 C 42.550781 19.253906 42.828125 19.453125 43.105469 19.636719 C 43.191406 19.691406 43.261719 19.761719 43.371094 19.851562 C 43.269531 19.878906 43.203125 19.902344 43.132812 19.914062 C 42.394531 20.023438 41.6875 20.25 41.019531 20.578125 C 40.242188 20.960938 39.554688 21.472656 38.960938 22.101562 C 38.398438 22.695312 37.925781 23.355469 37.53125 24.070312 C 37.464844 24.195312 37.414062 24.335938 37.363281 24.472656 C 36.988281 25.496094 36.503906 26.46875 35.914062 27.386719 C 35.207031 28.480469 34.363281 29.464844 33.394531 30.335938 C 32.558594 31.09375 31.640625 31.746094 30.65625 32.300781 C 29.804688 32.78125 28.910156 33.15625 28 33.503906 C 27.199219 33.808594 26.402344 34.125 25.609375 34.445312 C 24.898438 34.730469 24.1875 35.015625 23.484375 35.324219 C 22.75 35.644531 22.023438 35.980469 21.292969 36.320312 C 20.40625 36.734375 19.539062 37.199219 18.699219 37.703125 C 18.003906 38.121094 17.324219 38.566406 16.636719 38.992188 C 16.550781 39.046875 16.472656 39.121094 16.316406 39.15625 C 16.394531 39.050781 16.4375 38.980469 16.488281 38.917969 C 17.003906 38.289062 17.519531 37.664062 18.039062 37.035156 C 18.683594 36.257812 19.324219 35.476562 19.980469 34.703125 C 20.316406 34.304688 20.667969 33.917969 21.027344 33.539062 C 21.550781 32.992188 22.078125 32.441406 22.625 31.914062 C 23.175781 31.382812 23.757812 30.882812 24.324219 30.367188 C 24.5 30.207031 24.683594 30.050781 24.828125 29.867188 C 25.265625 29.308594 25.324219 28.691406 25.042969 28.046875 C 24.640625 27.125 23.902344 26.613281 22.933594 26.421875 C 22.699219 26.378906 22.460938 26.398438 22.222656 26.453125 C 21.566406 26.605469 20.917969 26.78125 20.308594 27.078125 C 19.816406 27.320312 19.367188 27.621094 18.960938 27.992188 C 18.457031 28.453125 17.953125 28.910156 17.449219 29.367188 C 17.414062 29.398438 17.378906 29.421875 17.324219 29.464844 C 17.316406 29.40625 17.308594 29.371094 17.308594 29.335938 C 17.34375 28.472656 17.570312 27.671875 18.117188 26.988281 C 18.390625 26.644531 18.722656 26.359375 19.09375 26.117188 C 19.695312 25.726562 20.339844 25.441406 21.027344 25.238281 C 21.300781 25.15625 21.570312 25.074219 21.839844 24.988281 C 22.117188 24.898438 22.375 24.777344 22.59375 24.570312 C 22.894531 24.285156 22.875 23.863281 22.621094 23.582031 C 22.375 23.308594 22.058594 23.15625 21.722656 23.054688 C 21.25 22.90625 20.761719 22.847656 20.269531 22.871094 C 19.925781 22.890625 19.582031 22.941406 19.246094 23.003906 C 18.832031 23.078125 18.417969 23.164062 18.015625 23.277344 C 16.710938 23.640625 15.535156 24.253906 14.507812 25.128906 C 14.265625 25.335938 14.039062 25.554688 13.808594 25.765625 C 13.78125 25.746094 13.757812 25.722656 13.730469 25.703125 "/>
<path style=" stroke:none;fill-rule:nonzero;fill:rgb(100%,100%,100%);fill-opacity:1;" d="M 13.730469 25.703125 C 13.757812 25.722656 13.78125 25.746094 13.808594 25.765625 C 13.75 25.828125 13.691406 25.894531 13.636719 25.957031 C 13.605469 25.835938 13.667969 25.769531 13.730469 25.703125 "/>
<path style=" stroke:none;fill-rule:nonzero;fill:rgb(100%,100%,100%);fill-opacity:1;" d="M 16.324219 39.199219 C 16.308594 39.199219 16.292969 39.199219 16.277344 39.203125 C 16.277344 39.199219 16.273438 39.191406 16.273438 39.1875 C 16.289062 39.183594 16.304688 39.183594 16.324219 39.179688 C 16.324219 39.183594 16.324219 39.191406 16.324219 39.199219 "/>
</g>
</svg>
