<?xml version="1.0" encoding="UTF-8"?>
<svg xmlns="http://www.w3.org/2000/svg" xmlns:xlink="http://www.w3.org/1999/xlink" width="56pt" height="56pt" viewBox="0 0 56 56" version="1.1">
<g id="surface1">
<rect x="0" y="0" width="56" height="56" style="fill:rgb(92.866516%,8.280945%,26.086426%);fill-opacity:1;stroke:none;"/>
<path style=" stroke:none;fill-rule:nonzero;fill:rgb(100%,100%,100%);fill-opacity:1;" d="M 8.46875 8.320312 C 8.773438 8.445312 9.085938 8.574219 9.390625 8.703125 C 9.945312 8.9375 10.503906 9.164062 11.050781 9.414062 C 12.09375 9.894531 13.140625 10.355469 14.160156 10.878906 C 16.628906 12.136719 19.015625 13.53125 21.179688 15.273438 C 22.011719 15.941406 22.800781 16.652344 23.390625 17.558594 C 23.648438 17.957031 23.804688 18.390625 23.882812 18.867188 C 24.078125 20.074219 24.019531 21.296875 24.074219 22.511719 C 24.113281 23.386719 24.15625 24.261719 24.445312 25.105469 C 24.820312 26.195312 25.675781 26.726562 26.816406 26.550781 C 27.640625 26.425781 28.460938 26.300781 29.296875 26.375 C 30.550781 26.488281 31.707031 26.859375 32.6875 27.679688 C 32.949219 27.898438 33.15625 28.15625 33.296875 28.496094 C 32.988281 28.535156 32.695312 28.558594 32.410156 28.617188 C 31.8125 28.746094 31.210938 28.867188 30.632812 29.050781 C 30.347656 29.140625 30.082031 29.328125 29.851562 29.523438 C 29.550781 29.78125 29.574219 30.042969 29.867188 30.308594 C 30.261719 30.671875 30.753906 30.84375 31.257812 30.945312 C 32.289062 31.148438 33.324219 31.316406 34.359375 31.480469 C 35.410156 31.652344 36.464844 31.796875 37.457031 32.21875 C 38.21875 32.539062 38.859375 33.019531 39.394531 33.652344 C 40.601562 35.082031 41.617188 36.644531 42.5 38.285156 C 43.390625 39.941406 44.253906 41.613281 45.101562 43.289062 C 45.757812 44.585938 46.546875 45.800781 47.320312 47.027344 C 47.421875 47.1875 47.527344 47.339844 47.625 47.5 C 47.652344 47.539062 47.660156 47.585938 47.6875 47.667969 C 47.511719 47.667969 47.359375 47.699219 47.226562 47.660156 C 46.085938 47.3125 44.921875 47.050781 43.824219 46.570312 C 42.199219 45.855469 40.785156 44.839844 39.515625 43.609375 C 38.644531 42.765625 37.929688 41.796875 37.195312 40.839844 C 36.28125 39.65625 35.394531 38.449219 34.414062 37.320312 C 33.328125 36.058594 32.054688 35 30.519531 34.292969 C 29.34375 33.753906 28.117188 33.402344 26.84375 33.199219 C 24.890625 32.886719 22.929688 32.886719 20.964844 33.050781 C 20.070312 33.125 19.179688 33.265625 18.289062 33.308594 C 16.765625 33.386719 15.324219 33.0625 14.027344 32.238281 C 13.714844 32.039062 13.472656 31.726562 13.203125 31.464844 C 13.15625 31.417969 13.136719 31.347656 13.089844 31.261719 C 13.367188 31.207031 13.617188 31.167969 13.867188 31.105469 C 15.363281 30.742188 16.816406 30.269531 18.128906 29.441406 C 18.96875 28.910156 19.636719 28.226562 19.945312 27.253906 C 20.222656 26.367188 20.113281 25.492188 19.820312 24.632812 C 19.425781 23.464844 18.785156 22.425781 18.03125 21.464844 C 17.335938 20.582031 16.601562 19.71875 15.847656 18.882812 C 14.898438 17.820312 13.882812 16.824219 12.945312 15.75 C 11.917969 14.570312 10.828125 13.4375 9.988281 12.105469 C 9.425781 11.207031 8.910156 10.285156 8.621094 9.257812 C 8.5625 9.0625 8.453125 8.882812 8.386719 8.6875 C 8.34375 8.570312 8.335938 8.441406 8.3125 8.320312 C 8.363281 8.320312 8.414062 8.320312 8.46875 8.320312 "/>
</g>
</svg>
