<?xml version="1.0" encoding="UTF-8"?>
<svg xmlns="http://www.w3.org/2000/svg" xmlns:xlink="http://www.w3.org/1999/xlink" width="56pt" height="56pt" viewBox="0 0 56 56" version="1.1">
<g id="surface1">
<rect x="0" y="0" width="56" height="56" style="fill:rgb(95.666504%,95.776367%,96.775818%);fill-opacity:1;stroke:none;"/>
<path style=" stroke:none;fill-rule:nonzero;fill:rgb(13.729858%,12.159729%,12.548828%);fill-opacity:1;" d="M 39.695312 20.199219 C 39.652344 20.246094 39.609375 20.296875 39.609375 20.292969 C 39.609375 20.292969 39.667969 20.261719 39.726562 20.230469 C 39.820312 20.132812 39.910156 20.035156 40.003906 19.9375 C 40.023438 19.910156 40.042969 19.890625 40.058594 19.863281 C 40.03125 19.882812 40.007812 19.898438 39.980469 19.910156 C 39.886719 20.007812 39.789062 20.101562 39.695312 20.199219 "/>
<path style=" stroke:none;fill-rule:nonzero;fill:rgb(13.729858%,12.159729%,12.548828%);fill-opacity:1;" d="M 25.253906 34.359375 C 25.246094 34.367188 25.238281 34.378906 25.230469 34.386719 C 25.246094 34.386719 25.265625 34.386719 25.28125 34.390625 L 25.253906 34.359375 "/>
<path style=" stroke:none;fill-rule:nonzero;fill:rgb(13.729858%,12.159729%,12.548828%);fill-opacity:1;" d="M 29.585938 30.890625 C 29.574219 30.898438 29.5625 30.90625 29.550781 30.910156 C 29.570312 30.914062 29.589844 30.914062 29.609375 30.917969 L 29.585938 30.890625 "/>
<path style=" stroke:none;fill-rule:nonzero;fill:rgb(14.906311%,29.408264%,63.83667%);fill-opacity:1;" d="M 40.003906 19.9375 C 39.910156 20.035156 39.820312 20.132812 39.726562 20.230469 C 39.667969 20.261719 39.609375 20.292969 39.609375 20.292969 C 39.609375 20.296875 39.652344 20.246094 39.695312 20.199219 C 39.789062 20.101562 39.886719 20.007812 39.980469 19.910156 C 40.007812 19.898438 40.03125 19.882812 40.058594 19.863281 C 40.535156 19.257812 41.019531 18.65625 41.488281 18.042969 C 42.441406 16.789062 42.886719 15.386719 42.8125 13.589844 C 38.449219 17.992188 33.171875 20.496094 27.464844 22.78125 C 27.511719 22.695312 27.554688 22.613281 27.601562 22.527344 C 26.34375 23.753906 25.042969 24.984375 24.507812 25.378906 C 25.121094 25.082031 26.515625 24.421875 26.851562 24.015625 C 24.15625 28.15625 21.511719 29.933594 21.511719 29.933594 C 21.511719 29.933594 23.097656 29.789062 23.628906 28.972656 C 20.453125 34.410156 20.40625 33.351562 18.863281 35.085938 C 19.828125 34.554688 20.980469 33.835938 20.980469 33.835938 C 20.980469 33.835938 18.585938 40.296875 21.335938 47.664062 C 21.339844 47.667969 21.34375 47.675781 21.347656 47.679688 C 21.320312 47.023438 21.113281 46.488281 20.96875 45.933594 C 20.835938 45.429688 20.625 44.886719 20.699219 44.398438 C 21.191406 41.234375 22.042969 38.199219 24.171875 35.679688 C 24.53125 35.253906 24.878906 34.816406 25.230469 34.386719 C 24.835938 34.367188 24.429688 34.34375 23.789062 34.3125 C 24.539062 33.964844 25.078125 33.777344 25.554688 33.480469 C 26.902344 32.648438 28.222656 31.773438 29.550781 30.910156 C 29.09375 30.878906 28.632812 30.84375 28.171875 30.804688 C 28.941406 30.433594 29.730469 30.242188 30.484375 29.953125 C 31.238281 29.660156 31.976562 29.304688 32.6875 28.914062 C 33.351562 28.550781 33.972656 28.105469 34.832031 27.554688 C 34.023438 27.628906 33.53125 27.675781 33.042969 27.722656 C 35.320312 26.875 37.449219 25.90625 39.078125 23.632812 C 38.535156 23.878906 38.242188 24.027344 37.941406 24.140625 C 37.636719 24.257812 37.320312 24.34375 37.007812 24.441406 C 39.234375 23.109375 41.113281 21.582031 41.757812 18.882812 C 41.132812 19.246094 40.59375 19.554688 40.058594 19.863281 C 40.042969 19.890625 40.023438 19.910156 40.003906 19.9375 "/>
<path style=" stroke:none;fill-rule:nonzero;fill:rgb(73.81897%,73.342896%,73.460388%);fill-opacity:1;" d="M 28.367188 15.410156 C 28.382812 15.296875 28.394531 15.179688 28.410156 15.066406 C 28.34375 15.15625 28.277344 15.242188 28.210938 15.332031 C 28.265625 15.359375 28.316406 15.386719 28.367188 15.410156 "/>
<path style=" stroke:none;fill-rule:nonzero;fill:rgb(91.931152%,11.561584%,15.446472%);fill-opacity:1;" d="M 20.980469 33.835938 C 20.980469 33.835938 19.828125 34.554688 18.863281 35.085938 C 20.40625 33.351562 20.453125 34.410156 23.628906 28.972656 C 23.097656 29.789062 21.511719 29.933594 21.511719 29.933594 C 21.511719 29.933594 24.15625 28.15625 26.851562 24.015625 C 26.515625 24.421875 25.121094 25.082031 24.507812 25.378906 C 24.417969 25.449219 24.34375 25.492188 24.300781 25.507812 C 24.128906 25.566406 24.246094 25.507812 24.507812 25.378906 C 25.042969 24.984375 26.34375 23.753906 27.601562 22.527344 C 28.246094 21.367188 28.851562 20.398438 28.972656 19.1875 C 28.644531 19.363281 27.542969 20.222656 27.550781 20.179688 C 27.648438 20.089844 28.578125 18.703125 28.820312 18.265625 C 29.640625 16.773438 29.863281 15.191406 29.707031 13.351562 C 29.203125 13.992188 28.835938 14.464844 28.46875 14.925781 C 28.460938 14.957031 28.453125 14.988281 28.445312 15.015625 C 28.433594 15.03125 28.421875 15.050781 28.410156 15.066406 C 28.394531 15.179688 28.382812 15.296875 28.367188 15.410156 C 28.316406 15.386719 28.265625 15.359375 28.210938 15.332031 C 28.277344 15.242188 28.34375 15.15625 28.410156 15.066406 C 28.414062 15.042969 28.414062 15.015625 28.417969 14.992188 C 28.433594 14.972656 28.453125 14.949219 28.46875 14.925781 C 28.703125 13.984375 28.972656 13.046875 29.148438 12.089844 C 29.378906 10.808594 29.121094 9.597656 28.40625 8.320312 C 28.226562 8.707031 28.128906 8.917969 28.035156 9.136719 C 26.628906 12.375 24.800781 15.355469 22.480469 18.023438 C 21.15625 19.542969 19.839844 21.074219 18.46875 22.554688 C 14.976562 26.320312 13.175781 30.730469 13.179688 35.878906 C 13.179688 36.585938 13.351562 37.160156 13.789062 37.730469 C 15.804688 40.363281 17.78125 43.027344 19.777344 45.671875 C 20.285156 46.347656 20.816406 47 21.335938 47.664062 C 18.585938 40.296875 20.980469 33.835938 20.980469 33.835938 "/>
<path style=" stroke:none;fill-rule:nonzero;fill:rgb(73.81897%,73.342896%,73.460388%);fill-opacity:1;" d="M 24.300781 25.507812 C 24.34375 25.492188 24.417969 25.449219 24.507812 25.378906 C 24.246094 25.507812 24.128906 25.566406 24.300781 25.507812 "/>
<path style=" stroke:none;fill-rule:nonzero;fill:rgb(73.81897%,73.342896%,73.460388%);fill-opacity:1;" d="M 28.410156 15.066406 C 28.421875 15.050781 28.433594 15.03125 28.445312 15.015625 C 28.453125 14.988281 28.460938 14.957031 28.46875 14.925781 C 28.453125 14.949219 28.433594 14.972656 28.417969 14.992188 C 28.414062 15.015625 28.414062 15.042969 28.410156 15.066406 "/>
<path style=" stroke:none;fill-rule:nonzero;fill:rgb(13.729858%,12.159729%,12.548828%);fill-opacity:1;" d="M 25.28125 34.390625 C 25.292969 34.351562 25.304688 34.320312 25.316406 34.28125 C 25.292969 34.308594 25.273438 34.335938 25.253906 34.359375 L 25.28125 34.390625 "/>
<path style=" stroke:none;fill-rule:nonzero;fill:rgb(13.729858%,12.159729%,12.548828%);fill-opacity:1;" d="M 29.609375 30.917969 C 29.644531 30.871094 29.679688 30.828125 29.714844 30.785156 C 29.707031 30.808594 29.707031 30.84375 29.691406 30.855469 C 29.660156 30.875 29.621094 30.878906 29.585938 30.890625 L 29.609375 30.917969 "/>
</g>
</svg>
