<?xml version="1.0" encoding="UTF-8"?>
<svg xmlns="http://www.w3.org/2000/svg" xmlns:xlink="http://www.w3.org/1999/xlink" width="56pt" height="56pt" viewBox="0 0 56 56" version="1.1">
<g id="surface1">
<rect x="0" y="0" width="56" height="56" style="fill:rgb(85.090637%,11.703491%,14.611816%);fill-opacity:1;stroke:none;"/>
<path style=" stroke:none;fill-rule:nonzero;fill:rgb(100%,100%,100%);fill-opacity:1;" d="M 49.230469 29.703125 C 48.292969 29.222656 47.5 29.375 46.769531 29.722656 C 45.628906 30.265625 44.519531 30.878906 43.421875 31.507812 C 40.925781 32.941406 38.488281 34.484375 35.941406 35.824219 C 34.789062 36.421875 33.460938 36.808594 32.167969 36.984375 C 29.417969 37.363281 28.261719 35.8125 29.242188 33.234375 C 29.527344 32.480469 29.925781 31.769531 30.199219 31.015625 C 30.582031 29.960938 30.144531 29.410156 29.054688 29.675781 C 27.941406 29.945312 26.871094 30.390625 25.78125 30.757812 C 23.921875 31.375 22.097656 32.121094 20.203125 32.578125 C 15.75 33.640625 11.632812 32.757812 7.914062 30.070312 C 7.601562 29.84375 7.292969 29.613281 6.738281 29.207031 C 6.875 30.53125 6.519531 31.609375 7.726562 32.335938 C 12.203125 35.03125 16.851562 35.765625 21.757812 33.65625 C 23.449219 32.925781 25.089844 32.078125 26.765625 31.308594 C 27.527344 30.964844 28.265625 30.46875 29.394531 30.675781 C 29.285156 31.164062 29.242188 31.59375 29.09375 31.980469 C 28.847656 32.628906 28.488281 33.230469 28.261719 33.878906 C 27.523438 35.996094 28.703125 37.902344 30.941406 38.105469 C 31.84375 38.1875 32.789062 38.097656 33.683594 37.933594 C 36.789062 37.359375 39.578125 35.972656 42.300781 34.453125 C 44.402344 33.28125 46.425781 31.925781 49.054688 32.007812 C 49.121094 31.128906 49.175781 30.40625 49.230469 29.703125 Z M 37.460938 46.882812 C 36.71875 46.6875 36.222656 46.550781 35.726562 46.429688 C 34.21875 46.058594 32.664062 45.808594 31.207031 45.296875 C 29.808594 44.804688 28.433594 44.152344 27.179688 43.363281 C 25.617188 42.382812 24.898438 40.816406 24.851562 38.964844 C 24.835938 38.402344 24.847656 37.839844 24.847656 37.277344 C 23.660156 38.882812 22.765625 40.597656 21.75 42.238281 C 20.683594 43.957031 19.007812 45.09375 17.382812 46.300781 C 22.78125 50.085938 32.253906 50.171875 37.460938 46.882812 Z M 49.085938 25.09375 C 49.085938 24.765625 49.113281 24.589844 49.082031 24.425781 C 47 13.191406 37.011719 6.667969 27.730469 6.804688 C 18.8125 6.933594 10.109375 13.078125 7.484375 22.109375 C 7.253906 22.898438 7.324219 23.523438 7.683594 24.234375 C 9.816406 28.484375 13.242188 30.71875 17.988281 30.949219 C 21.199219 31.105469 24.292969 30.53125 27.335938 29.554688 C 28.09375 29.308594 28.90625 29.140625 29.695312 29.132812 C 30.582031 29.121094 31.046875 29.765625 30.898438 30.636719 C 30.8125 31.140625 30.609375 31.628906 30.4375 32.117188 C 30.222656 32.714844 29.921875 33.285156 29.773438 33.894531 C 29.445312 35.234375 30.019531 35.898438 31.394531 35.777344 C 31.902344 35.730469 32.445312 35.628906 32.894531 35.402344 C 34.015625 34.828125 35.15625 34.253906 36.179688 33.527344 C 38.621094 31.785156 40.980469 29.933594 43.402344 28.167969 C 45.121094 26.914062 46.871094 25.683594 49.085938 25.09375 Z M 25.347656 34.046875 C 24.496094 35.121094 23.707031 36.253906 22.78125 37.261719 C 20.691406 39.542969 18.070312 40.929688 15.050781 41.570312 C 14.125 41.765625 13.183594 41.898438 12.210938 42.066406 C 13.078125 43.726562 14.304688 44.3125 15.96875 43.683594 C 17.09375 43.257812 18.242188 42.828125 19.261719 42.207031 C 21.003906 41.140625 22.34375 39.617188 23.507812 37.949219 C 23.960938 37.300781 24.460938 36.695312 25.144531 35.800781 C 25.195312 36.441406 25.234375 36.703125 25.230469 36.964844 C 25.203125 40.078125 26.378906 41.78125 29.308594 42.828125 C 30.953125 43.414062 32.65625 43.640625 34.402344 43.65625 C 36.476562 43.671875 38.585938 43.535156 40.621094 43.835938 C 42.296875 44.085938 43.03125 43.296875 43.839844 42.078125 C 42.800781 41.714844 41.867188 41.648438 40.867188 41.738281 C 38.515625 41.953125 36.152344 42.183594 33.796875 42.175781 C 32.261719 42.167969 30.699219 41.871094 29.199219 41.496094 C 27.621094 41.097656 26.332031 40.144531 26.003906 38.429688 C 25.730469 37 25.800781 35.550781 26.777344 34.316406 C 26.710938 34.773438 26.617188 35.226562 26.582031 35.683594 C 26.375 38.277344 27.378906 39.683594 29.925781 40.347656 C 31.578125 40.78125 33.238281 40.636719 34.90625 40.398438 C 38.828125 39.84375 42.574219 38.269531 46.664062 38.425781 C 47.039062 37.671875 47.390625 36.96875 47.808594 36.136719 C 47.300781 36.054688 46.957031 35.910156 46.65625 35.96875 C 45.472656 36.203125 44.28125 36.4375 43.132812 36.785156 C 40.867188 37.46875 38.644531 38.269531 36.378906 38.9375 C 34.539062 39.484375 32.632812 39.6875 30.726562 39.441406 C 27.863281 39.070312 26.6875 37.261719 27.515625 34.539062 C 27.765625 33.71875 28.191406 32.949219 28.503906 32.144531 C 28.613281 31.867188 28.628906 31.550781 28.761719 30.871094 C 27.675781 31.515625 26.878906 31.945312 26.132812 32.445312 C 25.171875 33.085938 24.261719 33.792969 23.308594 34.449219 C 19.585938 37.007812 15.496094 37.699219 11.097656 36.855469 C 10.292969 36.699219 9.472656 36.617188 8.347656 36.457031 C 8.808594 37.320312 9.039062 37.917969 9.417969 38.398438 C 9.675781 38.726562 10.125 39.058594 10.519531 39.101562 C 14.011719 39.484375 17.46875 39.417969 20.554688 37.449219 C 22.207031 36.394531 23.753906 35.183594 25.347656 34.046875 Z M 28.007812 50.679688 C 15.742188 50.507812 5.273438 41.183594 5.273438 28.011719 C 5.277344 15.769531 14.597656 5.871094 28.082031 5.320312 C 41.898438 5.988281 50.800781 16.34375 50.722656 28.171875 C 50.640625 40.992188 40.359375 50.519531 28.007812 50.679688 "/>
<path style=" stroke:none;fill-rule:nonzero;fill:rgb(100%,100%,100%);fill-opacity:1;" d="M 30.160156 24.09375 C 30.925781 24.464844 31.480469 24.730469 32.148438 25.054688 C 30.679688 25.289062 29.355469 25.644531 28.023438 25.667969 C 26.964844 25.683594 25.90625 25.289062 24.847656 25.082031 C 24.832031 24.953125 24.820312 24.828125 24.804688 24.699219 C 25.519531 24.375 26.230469 24.046875 26.980469 23.707031 C 26.613281 22.851562 25.847656 22.601562 25.066406 22.382812 C 23.957031 22.066406 22.847656 21.753906 21.738281 21.445312 C 19.746094 20.898438 18.238281 19.769531 17.230469 17.933594 C 16.539062 16.667969 15.742188 15.449219 14.300781 14.765625 C 16.773438 13.699219 18.566406 14.519531 20.121094 16.390625 C 21.148438 17.632812 22.265625 18.808594 23.417969 19.941406 C 24.660156 21.164062 26.113281 22.089844 27.902344 22.679688 C 28.285156 22.167969 28.648438 21.664062 29.03125 21.175781 C 30.753906 18.96875 33.003906 17.550781 35.789062 17.453125 C 38.398438 17.359375 40.820312 16.945312 43.070312 15.210938 C 43.148438 16.878906 42.519531 17.914062 41.195312 18.710938 C 38.054688 16.984375 35.597656 18.4375 33.363281 20.632812 C 32.300781 21.675781 31.335938 22.816406 30.160156 24.09375 "/>
</g>
</svg>
