<?xml version="1.0" encoding="UTF-8"?>
<svg xmlns="http://www.w3.org/2000/svg" xmlns:xlink="http://www.w3.org/1999/xlink" width="56pt" height="56pt" viewBox="0 0 56 56" version="1.1">
<g id="surface1">
<rect x="0" y="0" width="56" height="56" style="fill:rgb(95.66803%,95.779419%,96.777344%);fill-opacity:1;stroke:none;"/>
<path style=" stroke:none;fill-rule:nonzero;fill:rgb(91.867065%,12.510681%,23.884583%);fill-opacity:1;" d="M 28.972656 31.476562 C 28.894531 31.433594 24.847656 30.550781 21.617188 28.535156 C 21.332031 28.855469 21.050781 29.164062 20.773438 29.46875 C 21.890625 30.183594 23.414062 30.867188 25.449219 31.269531 C 25.449219 31.3125 28.144531 31.769531 28.972656 31.476562 "/>
<path style=" stroke:none;fill-rule:nonzero;fill:rgb(15.734863%,20.533752%,45.7901%);fill-opacity:1;" d="M 26.609375 43.914062 C 26.609375 43.914062 25.03125 44.003906 24.253906 43.574219 C 24.324219 43.574219 26.902344 43.976562 28.777344 41.226562 C 29.222656 40.574219 29.46875 39.769531 29.429688 38.949219 C 29.371094 37.824219 28.792969 36.355469 26.59375 35.171875 C 26.59375 35.171875 31.128906 35.398438 31.03125 40.039062 C 30.980469 40.796875 30.652344 43.476562 26.609375 43.914062 Z M 19.941406 40.636719 C 19.890625 40.695312 16.988281 38.566406 16.800781 37.585938 C 16.996094 37.746094 20.226562 40.234375 24.941406 39.21875 C 24.914062 39.246094 28.203125 38.332031 28.617188 37.738281 C 28.617188 37.738281 29.320312 40.476562 26.964844 42.296875 C 26.890625 42.328125 25.621094 43.425781 23.441406 42.769531 C 23.496094 42.738281 25.101562 42.820312 26.265625 40.828125 C 26.1875 40.855469 22.5625 42.625 19.941406 40.636719 Z M 37.84375 28.914062 C 37.78125 28.890625 37.589844 28.835938 37.523438 28.839844 C 37.042969 28.855469 35.617188 28.53125 34.941406 31.15625 C 34.902344 31.117188 34.246094 28.664062 31.125 27.460938 C 31.085938 27.460938 28.890625 26.511719 28.890625 26.511719 L 26.933594 25.601562 C 26.933594 25.601562 26.089844 25.195312 25.285156 24.472656 C 25.253906 24.507812 25.21875 24.542969 25.1875 24.582031 L 25.023438 24.761719 C 24.648438 25.175781 24.273438 25.59375 23.898438 26.007812 C 24.179688 26.117188 24.464844 26.222656 24.738281 26.324219 C 24.714844 26.324219 30.425781 28.332031 31.765625 29.078125 C 32.277344 29.40625 34.160156 30.238281 34.210938 34.441406 C 34.21875 34.683594 34.191406 38.710938 32.152344 41.480469 C 32.125 41.539062 30.726562 43.476562 29.484375 43.765625 C 29.613281 43.707031 32.074219 42.433594 32.066406 39.144531 C 32.09375 39.117188 32.296875 35.769531 28.667969 34.941406 C 28.691406 34.941406 26.261719 34.511719 26.261719 34.511719 L 23.933594 34.054688 C 23.933594 34.054688 21.183594 33.527344 19.539062 30.839844 C 18.546875 31.9375 17.710938 32.867188 17.125 33.519531 C 16.476562 34.234375 15.78125 34.902344 15.027344 35.507812 C 14.007812 36.332031 12.421875 37.566406 10.53125 38.847656 C 8.203125 40.425781 9.328125 44.066406 12.140625 44.0625 L 28.808594 44.03125 C 31.289062 44.03125 33.511719 42.503906 34.40625 40.1875 L 38.242188 30.285156 L 38.550781 29.492188 C 38.53125 29.320312 38.390625 29.097656 37.84375 28.914062 "/>
<path style=" stroke:none;fill-rule:nonzero;fill:rgb(15.734863%,20.533752%,45.7901%);fill-opacity:1;" d="M 46.375 12.308594 C 43.523438 11.753906 37.28125 11.191406 33.339844 15.628906 C 33.289062 15.628906 29.828125 19.445312 26.03125 23.648438 L 25.734375 23.976562 C 26.050781 24.210938 26.398438 24.433594 26.816406 24.632812 C 26.832031 24.632812 29.988281 26.03125 31.164062 26.554688 C 31.335938 26.628906 31.515625 26.667969 31.699219 26.664062 C 31.699219 26.664062 33.285156 26.75 34.035156 26.273438 L 34.242188 26.113281 L 33.972656 26.09375 C 34.476562 25.683594 35.710938 25.710938 35.710938 25.710938 C 36.359375 25.71875 37.113281 25.890625 37.46875 26.550781 C 37.515625 26.617188 37.726562 27.125 37.726562 27.125 C 37.726562 27.125 37.242188 27.070312 36.757812 26.757812 C 36.691406 26.71875 36.625 26.679688 36.554688 26.652344 C 36.398438 26.59375 36.191406 26.550781 36.324219 26.847656 C 36.363281 26.914062 36.5 27.222656 36.5 27.222656 C 36.5 27.222656 37.621094 27.042969 38.246094 27.605469 C 38.246094 27.605469 38.796875 28.082031 38.835938 28.753906 L 38.847656 28.71875 L 38.941406 28.480469 L 38.96875 28.40625 L 43.375 17.027344 C 43.828125 15.855469 44.519531 14.78125 45.433594 13.921875 C 45.765625 13.613281 46.128906 13.320312 46.511719 13.097656 C 46.851562 12.898438 46.761719 12.382812 46.375 12.308594 "/>
</g>
</svg>
