<?xml version="1.0" encoding="UTF-8"?>
<svg xmlns="http://www.w3.org/2000/svg" xmlns:xlink="http://www.w3.org/1999/xlink" width="56pt" height="56pt" viewBox="0 0 56 56" version="1.1">
<g id="surface1">
<rect x="0" y="0" width="56" height="56" style="fill:rgb(19.848633%,43.35022%,75.067139%);fill-opacity:1;stroke:none;"/>
<path style=" stroke:none;fill-rule:nonzero;fill:rgb(100%,100%,100%);fill-opacity:1;" d="M 38.597656 13.398438 C 39.558594 17.640625 39.546875 20.246094 39.121094 23.222656 C 38.367188 28.578125 35.925781 32.679688 34.878906 34.050781 C 34.148438 33.113281 33.046875 31.21875 32.304688 29.441406 C 32.304688 29.441406 30.921875 26.058594 30.550781 22.765625 C 30.429688 21.730469 30.363281 20.683594 30.363281 19.625 C 30.363281 17.324219 30.667969 14.945312 31.410156 12.363281 C 32.394531 8.980469 34.335938 5.925781 34.855469 5.140625 C 35.195312 5.699219 37.628906 9.15625 38.597656 13.398438 Z M 38.316406 20.605469 C 38.347656 18.980469 38.183594 16.234375 37.398438 13.363281 C 36.601562 10.496094 35.078125 7.761719 34.847656 7.410156 C 34.617188 7.761719 33.398438 9.984375 32.328125 13.453125 C 32.042969 14.488281 31.53125 16.746094 31.445312 18.949219 C 31.335938 21.609375 31.707031 24.261719 31.847656 25 C 31.847656 24.128906 31.867188 21.183594 32.414062 18.753906 C 32.960938 16.320312 33.996094 13.519531 34.847656 12.089844 C 35.761719 13.59375 36.90625 16.832031 37.3125 18.761719 C 37.714844 20.703125 37.921875 23.191406 37.835938 24.945312 C 38.085938 23.933594 38.273438 22.21875 38.316406 20.605469 Z M 34.855469 32.996094 C 35.359375 32.078125 36.199219 30.074219 36.132812 27.519531 C 36.023438 24.914062 35.140625 23.015625 34.878906 22.558594 C 34.574219 23.015625 33.558594 25.199219 33.570312 27.75 C 33.648438 30.390625 34.390625 32.101562 34.855469 32.996094 "/>
<path style=" stroke:none;fill-rule:nonzero;fill:rgb(100%,100%,100%);fill-opacity:1;" d="M 40.679688 45.851562 C 37.789062 48.925781 33.691406 50.855469 29.132812 50.855469 C 20.398438 50.855469 13.320312 43.78125 13.320312 35.035156 C 13.320312 26.308594 20.398438 19.222656 29.132812 19.222656 L 29.132812 31.121094 C 26.863281 31.121094 24.59375 31.980469 22.851562 33.714844 C 22.4375 34.128906 22.078125 34.578125 21.761719 35.035156 C 19.4375 38.492188 19.796875 43.222656 22.851562 46.277344 C 24.59375 48.011719 26.863281 48.886719 29.132812 48.886719 C 31.402344 48.886719 33.65625 48.023438 35.390625 46.300781 C 35.402344 46.289062 35.414062 46.289062 35.414062 46.277344 C 35.425781 46.265625 35.433594 46.265625 35.445312 46.257812 C 37.179688 44.523438 37.179688 41.699219 35.445312 39.964844 C 33.703125 38.230469 30.890625 38.230469 29.15625 39.964844 C 29.144531 39.972656 29.144531 39.972656 29.132812 39.984375 L 29.132812 35.035156 L 40.679688 35.035156 L 40.679688 45.851562 "/>
</g>
</svg>
