<?xml version="1.0" encoding="UTF-8"?>
<svg xmlns="http://www.w3.org/2000/svg" xmlns:xlink="http://www.w3.org/1999/xlink" width="56pt" height="56pt" viewBox="0 0 56 56" version="1.1">
<g id="surface1">
<rect x="0" y="0" width="56" height="56" style="fill:rgb(38.621521%,64.852905%,87.339783%);fill-opacity:1;stroke:none;"/>
<path style=" stroke:none;fill-rule:nonzero;fill:rgb(100%,100%,100%);fill-opacity:1;" d="M 39.945312 35.574219 C 42.871094 33.738281 43.058594 31.1875 39.832031 29.640625 C 37.898438 28.714844 35.824219 27.851562 33.949219 26.898438 C 32.203125 26.015625 30.484375 25.105469 29.03125 24.117188 C 27.230469 22.898438 27.890625 21.601562 30.59375 20.824219 C 33.042969 20.121094 35.742188 19.898438 38.5625 20.292969 C 39.199219 20.382812 39.839844 20.476562 40.484375 20.574219 C 46.761719 22.324219 50.597656 25.261719 50.597656 28 C 50.597656 30.816406 46.542969 33.84375 39.945312 35.574219 Z M 5.402344 28 C 5.402344 24.316406 12.34375 20.269531 22.832031 19.242188 C 22.78125 19.257812 22.722656 19.273438 22.671875 19.289062 C 17.519531 20.882812 16.261719 23.066406 19.761719 25.464844 C 21.710938 26.796875 24.433594 27.886719 26.8125 29.085938 C 28.050781 29.714844 29.492188 30.277344 30.507812 30.976562 C 33.609375 33.105469 31.667969 35.316406 26.21875 35.765625 C 23.160156 36.015625 19.558594 35.851562 13.261719 34.714844 C 8.332031 32.941406 5.402344 30.394531 5.402344 28 Z M 46.515625 19.800781 C 46.515625 19.800781 46.519531 19.800781 46.519531 19.796875 C 46.511719 19.796875 46.507812 19.792969 46.5 19.792969 C 41.894531 17.539062 35.363281 16.148438 28 16.148438 C 13.730469 16.148438 2.558594 21.355469 2.558594 28 C 2.558594 31.175781 5.113281 34.023438 9.335938 36.128906 C 9.335938 36.128906 9.335938 36.128906 9.332031 36.132812 C 9.339844 36.132812 9.347656 36.132812 9.351562 36.136719 C 13.964844 38.433594 20.558594 39.851562 28 39.851562 C 42.265625 39.851562 53.441406 34.644531 53.441406 28 C 53.441406 24.789062 50.828125 21.914062 46.515625 19.800781 "/>
</g>
</svg>
