<?xml version="1.0" encoding="UTF-8"?>
<svg xmlns="http://www.w3.org/2000/svg" xmlns:xlink="http://www.w3.org/1999/xlink" width="56pt" height="56pt" viewBox="0 0 56 56" version="1.1">
<g id="surface1">
<rect x="0" y="0" width="56" height="56" style="fill:rgb(92.904663%,10.717773%,15.06958%);fill-opacity:1;stroke:none;"/>
<path style=" stroke:none;fill-rule:nonzero;fill:rgb(100%,100%,100%);fill-opacity:1;" d="M 42.523438 22.601562 C 39.355469 24.582031 36.183594 26.554688 33.023438 28.539062 C 26.199219 32.828125 19.371094 37.109375 12.566406 41.425781 C 11.644531 42.011719 10.71875 42.296875 9.632812 42.257812 C 8.175781 42.203125 6.71875 42.242188 5.203125 42.105469 C 9.136719 40.394531 11.769531 37.171875 14.648438 34.269531 C 20.519531 28.34375 26.363281 22.390625 32.15625 16.394531 C 33.921875 14.570312 35.945312 13.699219 38.464844 13.742188 C 41.871094 13.796875 45.28125 13.753906 48.691406 13.757812 C 49.304688 13.757812 49.921875 13.757812 50.796875 13.757812 C 46.480469 23.355469 42.28125 32.703125 37.988281 42.242188 C 35.167969 42.242188 32.332031 42.25 29.496094 42.234375 C 29.085938 42.230469 28.660156 42.175781 28.273438 42.050781 C 26.304688 41.414062 25.664062 40.503906 25.523438 38.027344 C 23.8125 39.242188 22.589844 40.84375 21.003906 42.15625 C 20.183594 42.15625 19.300781 42.15625 17.960938 42.15625 C 26.453125 35.582031 34.613281 29.257812 42.777344 22.933594 C 42.691406 22.824219 42.605469 22.710938 42.523438 22.601562 "/>
</g>
</svg>
