<?xml version="1.0" encoding="UTF-8"?>
<svg xmlns="http://www.w3.org/2000/svg" xmlns:xlink="http://www.w3.org/1999/xlink" width="56pt" height="56pt" viewBox="0 0 56 56" version="1.1">
<g id="surface1">
<rect x="0" y="0" width="56" height="56" style="fill:rgb(50.889587%,10.958862%,55.593872%);fill-opacity:1;stroke:none;"/>
<path style=" stroke:none;fill-rule:nonzero;fill:rgb(96.955872%,59.364319%,6.866455%);fill-opacity:1;" d="M 26.828125 34.175781 C 25.625 34.507812 24.171875 34.675781 22.511719 34.675781 C 17.84375 34.675781 12.425781 33.359375 9 32.371094 C 11.355469 32.054688 14.601562 31.507812 17.925781 30.601562 L 19.671875 30.125 L 18.109375 29.214844 C 16.351562 28.1875 14.675781 27.417969 13.195312 26.742188 C 11.066406 25.765625 9.226562 24.921875 8.957031 24.03125 L 8.789062 23.46875 L 8.203125 23.488281 C 8.082031 23.492188 7.957031 23.496094 7.839844 23.496094 C 5.511719 23.496094 4.078125 22.664062 3.234375 21.851562 C 7.300781 22.945312 16.59375 25.253906 22.527344 25.253906 C 22.933594 25.253906 23.324219 25.242188 23.691406 25.21875 C 27.265625 28.019531 29.589844 29.238281 31.542969 29.367188 L 32.941406 30.257812 L 32.746094 31.640625 C 31.511719 32.4375 29.855469 33.34375 26.828125 34.175781 Z M 46.414062 26.960938 C 42.691406 27.890625 40.613281 28.140625 39.273438 28.140625 C 37.742188 28.140625 37.175781 27.816406 36.21875 27.816406 C 35.921875 27.816406 35.585938 27.847656 35.171875 27.929688 C 33.9375 28.175781 33.054688 28.632812 31.882812 28.632812 C 30.292969 28.632812 28.171875 27.792969 23.929688 24.441406 C 23.488281 24.476562 23.023438 24.496094 22.527344 24.496094 C 14.941406 24.496094 1.445312 20.566406 1.445312 20.566406 C 1.445312 20.566406 2.738281 24.253906 7.839844 24.253906 C 7.96875 24.253906 8.097656 24.253906 8.230469 24.246094 C 8.8125 26.1875 13.078125 27.15625 17.726562 29.867188 C 11.332031 31.613281 5.324219 32 5.324219 32 C 5.324219 32 14.832031 35.433594 22.511719 35.433594 C 24.132812 35.433594 25.675781 35.28125 27.03125 34.90625 C 34.519531 32.847656 34.050781 30.246094 38.203125 30.246094 C 38.347656 30.246094 38.503906 30.25 38.660156 30.257812 C 41.742188 30.386719 42.261719 30.4375 42.3125 30.4375 C 42.375 30.4375 41.761719 30.363281 44.085938 30.257812 C 44.296875 30.246094 44.5 30.242188 44.691406 30.242188 C 46.617188 30.242188 47.664062 30.679688 49.03125 30.679688 C 50.289062 30.679688 51.820312 30.308594 54.550781 28.898438 C 51.453125 28.511719 48.933594 27.15625 46.414062 26.960938 "/>
</g>
</svg>
