<?xml version="1.0" encoding="UTF-8"?>
<svg xmlns="http://www.w3.org/2000/svg" xmlns:xlink="http://www.w3.org/1999/xlink" width="56pt" height="56pt" viewBox="0 0 56 56" version="1.1">
<g id="surface1">
<rect x="0" y="0" width="56" height="56" style="fill:rgb(65.577698%,9.922791%,21.437073%);fill-opacity:1;stroke:none;"/>
<path style=" stroke:none;fill-rule:nonzero;fill:rgb(100%,100%,100%);fill-opacity:1;" d="M 16.285156 34.898438 C 16.285156 34.898438 27.128906 23.90625 28.152344 22.878906 C 29.179688 21.855469 30.410156 19.851562 27.144531 19.851562 C 25.242188 19.851562 11.503906 19.851562 11.503906 19.851562 C 11.503906 19.851562 12.730469 20.78125 11.703125 21.8125 C 10.671875 22.839844 3.980469 29.769531 3.238281 30.511719 C 2.496094 31.253906 1.070312 34.898438 5.167969 34.898438 C 8.019531 34.898438 16.285156 34.898438 16.285156 34.898438 "/>
<path style=" stroke:none;fill-rule:nonzero;fill:rgb(100%,100%,100%);fill-opacity:1;" d="M 33.984375 34.898438 C 33.984375 34.898438 45.332031 23.90625 46.355469 22.878906 C 47.382812 21.855469 48.613281 19.851562 45.347656 19.851562 C 43.449219 19.851562 29.441406 19.851562 29.441406 19.851562 C 29.441406 19.851562 31.074219 20.574219 29.558594 22.089844 C 28.53125 23.117188 22.183594 29.769531 21.441406 30.511719 C 20.699219 31.253906 19.273438 34.898438 23.371094 34.898438 C 26.222656 34.898438 33.984375 34.898438 33.984375 34.898438 "/>
<path style=" stroke:none;fill-rule:nonzero;fill:rgb(100%,100%,100%);fill-opacity:1;" d="M 45.019531 30.585938 C 44.480469 30.585938 44.046875 30.152344 44.046875 29.613281 C 44.046875 29.078125 44.480469 28.640625 45.019531 28.640625 C 45.554688 28.640625 45.992188 29.078125 45.992188 29.613281 C 45.992188 30.152344 45.554688 30.585938 45.019531 30.585938 Z M 51.15625 27.511719 C 50.089844 27.511719 42.507812 27.507812 42.507812 27.507812 L 35.222656 34.898438 C 35.222656 34.898438 45.746094 34.898438 46.695312 34.898438 C 47.644531 34.898438 47.507812 36.148438 47.507812 36.148438 C 47.507812 36.148438 51.832031 31.824219 52.707031 30.949219 C 55.058594 28.59375 52.226562 27.511719 51.15625 27.511719 "/>
</g>
</svg>
