<?xml version="1.0" encoding="UTF-8"?>
<svg xmlns="http://www.w3.org/2000/svg" xmlns:xlink="http://www.w3.org/1999/xlink" width="56pt" height="56pt" viewBox="0 0 56 56" version="1.1">
<g id="surface1">
<rect x="0" y="0" width="56" height="56" style="fill:rgb(12.413025%,20.021057%,37.335205%);fill-opacity:1;stroke:none;"/>
<path style=" stroke:none;fill-rule:nonzero;fill:rgb(100%,100%,100%);fill-opacity:1;" d="M 37.414062 20.332031 C 38.1875 20.339844 38.71875 20.574219 39.148438 20.777344 C 40.042969 21.199219 41.089844 21.6875 42.402344 22.316406 C 42.402344 22.324219 44.527344 20.816406 44.636719 20.738281 C 45.355469 20.246094 46.050781 20.621094 46.273438 21.042969 C 47.066406 22.53125 48.523438 25.628906 49.292969 28.457031 C 49.386719 28.796875 49.277344 29.328125 48.742188 29.484375 C 48.4375 29.578125 47.910156 29.652344 47.359375 29.722656 C 46.59375 29.820312 46.605469 30.4375 46.605469 30.8125 C 46.605469 31.277344 46.613281 34.402344 46.613281 35.46875 C 46.632812 36.128906 46.128906 38.269531 43.652344 38.269531 C 43.488281 38.269531 37.976562 38.265625 38.003906 38.265625 C 35.867188 38.277344 34.148438 36.46875 34.136719 34.546875 C 34.136719 33.285156 34.136719 24.488281 34.140625 23.5 C 34.148438 21.59375 35.859375 20.3125 37.414062 20.332031 "/>
<path style=" stroke:none;fill-rule:nonzero;fill:rgb(100%,100%,100%);fill-opacity:1;" d="M 28.480469 38.265625 L 10.109375 38.265625 L 10.109375 40.308594 L 31.664062 40.308594 C 31.664062 40.308594 32.441406 38.503906 32.441406 36.507812 C 32.441406 36.402344 32.449219 22.65625 32.449219 22.65625 C 32.449219 21.5625 32.894531 19.71875 35.140625 19.230469 C 35.199219 19.21875 35.265625 19.203125 35.328125 19.191406 C 41.691406 17.6875 48.25 19.054688 51.945312 20.652344 C 52.609375 20.972656 52.765625 20.441406 52.742188 20.21875 C 52.824219 17.101562 50.457031 13.554688 46.101562 13.339844 C 42.566406 13.257812 40.605469 14.53125 39.886719 14.882812 C 39.832031 14.910156 39.738281 14.898438 39.660156 14.808594 C 39.007812 14.164062 37.613281 13.199219 36.050781 12.753906 C 35.816406 12.699219 35.792969 12.359375 36.066406 12.328125 C 39.410156 11.96875 42.339844 12.347656 43.5625 12.546875 C 43.84375 12.59375 44.050781 12.425781 43.941406 12.167969 C 43.855469 11.972656 43.785156 11.878906 43.644531 11.574219 C 43.347656 10.933594 42.558594 10.257812 41.554688 9.976562 C 38.925781 9.246094 34.449219 8.613281 30.457031 8.589844 C 25.964844 8.5625 21.230469 9.460938 20.03125 9.726562 C 19.746094 9.789062 19.34375 9.890625 19.273438 9.90625 C 18.945312 9.972656 18.867188 10.28125 19.011719 10.433594 C 19.097656 10.535156 19.34375 10.742188 19.464844 10.886719 C 19.613281 11.070312 19.679688 11.335938 19.398438 11.609375 L 11.09375 19.070312 L 16.777344 19.070312 L 16.839844 19.066406 C 17.210938 19.058594 17.558594 19.394531 17.5625 19.820312 C 17.5625 20.203125 17.257812 20.5625 16.867188 20.5625 L 16.820312 20.566406 L 9.4375 20.566406 L 7.179688 22.617188 L 16.898438 22.617188 C 17.277344 22.617188 17.574219 23.011719 17.566406 23.371094 C 17.5625 23.699219 17.285156 24.105469 16.898438 24.105469 L 16.839844 24.109375 L 5.523438 24.109375 L 3.257812 26.152344 L 22.78125 26.152344 L 22.84375 26.15625 C 23.230469 26.15625 23.527344 26.550781 23.53125 26.894531 C 23.539062 27.296875 23.253906 27.660156 22.859375 27.65625 L 3.253906 27.65625 L 3.253906 29.691406 L 22.765625 29.691406 L 22.824219 29.699219 C 23.269531 29.699219 23.53125 30.105469 23.527344 30.476562 C 23.527344 30.816406 23.199219 31.179688 22.8125 31.179688 L 3.253906 31.179688 L 3.253906 33.238281 L 28.785156 33.238281 C 29.210938 33.246094 29.480469 33.613281 29.46875 34.007812 C 29.457031 34.351562 29.171875 34.722656 28.789062 34.722656 L 10.113281 34.722656 L 10.113281 36.773438 L 28.863281 36.773438 C 29.210938 36.773438 29.507812 37.199219 29.507812 37.546875 C 29.507812 37.890625 29.203125 38.265625 28.859375 38.265625 L 28.480469 38.265625 "/>
<path style=" stroke:none;fill-rule:nonzero;fill:rgb(100%,100%,100%);fill-opacity:1;" d="M 16.96875 45.320312 L 16.964844 47.40625 C 16.964844 47.40625 19.726562 47.417969 21.296875 47.40625 C 25.179688 47.382812 27.722656 45.320312 27.722656 45.320312 L 16.96875 45.320312 "/>
<path style=" stroke:none;fill-rule:nonzero;fill:rgb(100%,100%,100%);fill-opacity:1;" d="M 16.96875 41.804688 L 16.964844 43.847656 L 29.433594 43.847656 C 30.011719 43.269531 30.75 42.199219 30.945312 41.804688 L 16.96875 41.804688 "/>
</g>
</svg>
