<?xml version="1.0" encoding="UTF-8"?>
<svg xmlns="http://www.w3.org/2000/svg" xmlns:xlink="http://www.w3.org/1999/xlink" width="56pt" height="56pt" viewBox="0 0 56 56" version="1.1">
<g id="surface1">
<rect x="0" y="0" width="56" height="56" style="fill:rgb(95.66803%,95.779419%,96.777344%);fill-opacity:1;stroke:none;"/>
<path style=" stroke:none;fill-rule:nonzero;fill:rgb(80.239868%,14.732361%,27.911377%);fill-opacity:1;" d="M 17.746094 25.847656 C 15.09375 25.964844 9.933594 26.722656 5.320312 29.835938 C 5.4375 19.183594 14.539062 13.878906 17.746094 13.832031 C 28.101562 13.3125 32.066406 24.75 32.699219 26.570312 L 32.710938 26.605469 C 34.359375 30.441406 32.238281 31.550781 28.175781 29.136719 C 24.226562 26.792969 21.28125 24.929688 17.746094 25.847656 "/>
<path style=" stroke:none;fill-rule:nonzero;fill:rgb(38.827515%,67.738342%,88.98468%);fill-opacity:1;" d="M 5.320312 29.835938 C 9.90625 26.78125 14.621094 25.964844 17.746094 25.847656 C 17.097656 26.144531 9.785156 27.28125 5.582031 32.746094 C 5.464844 32.453125 5.320312 31.132812 5.320312 29.835938 "/>
<path style=" stroke:none;fill-rule:nonzero;fill:rgb(95.602417%,72.889709%,30.879211%);fill-opacity:1;" d="M 43.789062 26.191406 C 43.90625 29.84375 38.957031 32.550781 34.066406 33.433594 C 46.203125 35.023438 49.796875 27.3125 50.679688 24.484375 L 50.644531 24.515625 C 49.296875 25.6875 47.640625 27.125 43.789062 26.191406 "/>
<path style=" stroke:none;fill-rule:nonzero;fill:rgb(16.8396%,17.773438%,44.287109%);fill-opacity:1;" d="M 17.746094 25.847656 C 17.746094 25.847656 9.667969 27.308594 5.582031 32.746094 C 6.820312 39.105469 11.207031 43.449219 15.683594 45.273438 C 22.695312 48.394531 31.238281 45.6875 35.304688 40.144531 C 25.109375 43.507812 22.695312 36.914062 20.574219 33.492188 C 18.363281 29.921875 17.628906 28.554688 13.914062 29.371094 C 13.679688 28.757812 14.800781 27.9375 15.390625 27.605469 C 15.695312 26.632812 17.746094 25.847656 17.746094 25.847656 "/>
<path style=" stroke:none;fill-rule:nonzero;fill:rgb(24.116516%,42.152405%,73.603821%);fill-opacity:1;" d="M 33.832031 32.734375 C 38.015625 23.492188 36.480469 12.898438 25.109375 9.835938 C 40.195312 7.304688 42.550781 16.664062 42.433594 20.550781 C 42.375 22.90625 39.425781 28.203125 33.832031 32.734375 "/>
<path style=" stroke:none;fill-rule:nonzero;fill:rgb(38.827515%,67.738342%,88.98468%);fill-opacity:1;" d="M 18.15625 26.671875 C 17.554688 26.828125 17.097656 27.261719 16.921875 27.671875 C 16.921875 27.671875 17.542969 27.828125 17.921875 27.730469 C 18.523438 27.582031 18.984375 27.027344 19.101562 26.671875 C 19.101562 26.671875 18.515625 26.582031 18.15625 26.671875 "/>
</g>
</svg>
