<?xml version="1.0" encoding="UTF-8"?>
<svg xmlns="http://www.w3.org/2000/svg" xmlns:xlink="http://www.w3.org/1999/xlink" width="56pt" height="56pt" viewBox="0 0 56 56" version="1.1">
<g id="surface1">
<rect x="0" y="0" width="56" height="56" style="fill:rgb(94.744873%,32.450867%,10.507202%);fill-opacity:1;stroke:none;"/>
<path style=" stroke:none;fill-rule:nonzero;fill:rgb(100%,100%,100%);fill-opacity:1;" d="M 18.257812 36.722656 C 18.257812 38.589844 16.746094 40.101562 14.878906 40.101562 L 5.699219 40.101562 C 3.832031 40.101562 2.320312 38.589844 2.320312 36.722656 L 2.320312 19.277344 C 2.320312 17.410156 3.832031 15.898438 5.699219 15.898438 L 14.878906 15.898438 C 16.746094 15.898438 18.257812 17.410156 18.257812 19.277344 L 18.257812 36.722656 "/>
<path style=" stroke:none;fill-rule:nonzero;fill:rgb(100%,100%,100%);fill-opacity:1;" d="M 35.96875 36.722656 C 35.96875 38.589844 34.457031 40.101562 32.589844 40.101562 L 23.410156 40.101562 C 21.542969 40.101562 20.03125 38.589844 20.03125 36.722656 L 20.03125 19.277344 C 20.03125 17.410156 21.542969 15.898438 23.410156 15.898438 L 32.589844 15.898438 C 34.457031 15.898438 35.96875 17.410156 35.96875 19.277344 L 35.96875 36.722656 "/>
<path style=" stroke:none;fill-rule:nonzero;fill:rgb(100%,100%,100%);fill-opacity:1;" d="M 51.320312 20.101562 C 51.320312 19.085938 50.492188 18.257812 49.472656 18.257812 L 40.765625 18.257812 C 39.746094 18.257812 38.921875 19.085938 38.921875 20.101562 L 38.921875 35.898438 C 38.921875 36.914062 39.746094 37.742188 40.765625 37.742188 L 49.472656 37.742188 C 50.492188 37.742188 51.320312 36.914062 51.320312 35.898438 Z M 53.679688 35.886719 C 53.679688 38.214844 51.792969 40.101562 49.464844 40.101562 L 40.777344 40.101562 C 38.449219 40.101562 36.558594 38.214844 36.558594 35.886719 L 36.558594 20.113281 C 36.558594 17.785156 38.449219 15.898438 40.777344 15.898438 L 49.464844 15.898438 C 51.792969 15.898438 53.679688 17.785156 53.679688 20.113281 L 53.679688 35.886719 "/>
<path style=" stroke:none;fill-rule:nonzero;fill:rgb(94.744873%,32.450867%,10.507202%);fill-opacity:1;" d="M 4.179688 31.796875 L 6.5 31.601562 C 6.671875 32.730469 7.070312 33.582031 7.699219 34.148438 C 8.324219 34.71875 9.078125 35.003906 9.960938 35.003906 C 11.027344 35.003906 11.929688 34.601562 12.664062 33.800781 C 13.402344 32.996094 13.769531 31.933594 13.769531 30.605469 C 13.769531 29.34375 13.414062 28.351562 12.707031 27.621094 C 12 26.894531 11.074219 26.527344 9.925781 26.527344 C 9.214844 26.527344 8.570312 26.691406 8 27.015625 C 7.425781 27.335938 6.976562 27.757812 6.648438 28.273438 L 4.570312 28.003906 L 6.316406 18.753906 L 15.269531 18.753906 L 15.269531 20.867188 L 8.085938 20.867188 L 7.113281 25.707031 C 8.195312 24.953125 9.328125 24.578125 10.515625 24.578125 C 12.089844 24.578125 13.414062 25.121094 14.496094 26.210938 C 15.574219 27.296875 16.117188 28.699219 16.117188 30.410156 C 16.117188 32.039062 15.640625 33.449219 14.691406 34.636719 C 13.535156 36.09375 11.960938 36.820312 9.960938 36.820312 C 8.324219 36.820312 6.988281 36.363281 5.953125 35.445312 C 4.917969 34.527344 4.324219 33.3125 4.179688 31.796875 "/>
<path style=" stroke:none;fill-rule:nonzero;fill:rgb(94.744873%,32.450867%,10.507202%);fill-opacity:1;" d="M 29.378906 30.476562 L 29.378906 22.289062 L 23.691406 30.476562 Z M 29.378906 36.867188 L 29.378906 32.519531 L 21.5 32.519531 L 21.5 30.476562 L 29.785156 18.707031 L 31.605469 18.707031 L 31.605469 30.476562 L 34.058594 30.476562 L 34.058594 32.519531 L 31.605469 32.519531 L 31.605469 36.867188 L 29.378906 36.867188 "/>
</g>
</svg>
