<?xml version="1.0" encoding="UTF-8"?>
<svg xmlns="http://www.w3.org/2000/svg" xmlns:xlink="http://www.w3.org/1999/xlink" width="56pt" height="56pt" viewBox="0 0 56 56" version="1.1">
<g id="surface1">
<rect x="0" y="0" width="56" height="56" style="fill:rgb(95.66803%,95.779419%,96.777344%);fill-opacity:1;stroke:none;"/>
<path style=" stroke:none;fill-rule:nonzero;fill:rgb(94.389343%,93.711853%,11.31897%);fill-opacity:1;" d="M 26.992188 29.113281 C 26.972656 29.132812 26.953125 29.132812 26.953125 29.148438 C 26.953125 29.132812 26.972656 29.113281 26.992188 29.113281 "/>
<path style=" stroke:none;fill-rule:nonzero;fill:rgb(93.112183%,12.861633%,16.671753%);fill-opacity:1;" d="M 43.089844 5.695312 C 43.003906 5.976562 42.925781 6.261719 42.828125 6.535156 C 42.277344 8.097656 41.71875 9.65625 41.160156 11.214844 C 40.226562 13.816406 39.289062 16.414062 38.339844 19.058594 C 36.660156 19.265625 34.996094 19.566406 33.203125 19.757812 C 34.550781 15.78125 35.863281 11.910156 37.183594 8.015625 C 37.9375 7.726562 38.671875 7.441406 39.410156 7.160156 C 40.492188 6.742188 41.578125 6.328125 42.65625 5.902344 C 42.761719 5.863281 42.847656 5.765625 42.941406 5.695312 C 42.988281 5.695312 43.039062 5.695312 43.089844 5.695312 "/>
<path style=" stroke:none;fill-rule:nonzero;fill:rgb(22.067261%,34.042358%,68.688965%);fill-opacity:1;" d="M 30.484375 11.722656 C 32.023438 10.851562 33.542969 9.992188 35.199219 9.058594 C 34.574219 11.039062 33.84375 12.832031 33.210938 14.660156 C 32.582031 16.476562 31.902344 18.277344 31.222656 20.144531 C 30.007812 20.632812 28.75 21.132812 27.398438 21.671875 C 27.457031 21.433594 27.488281 21.273438 27.535156 21.121094 C 28.308594 18.675781 29.085938 16.230469 29.855469 13.785156 C 30.0625 13.128906 30.257812 12.46875 30.484375 11.722656 "/>
<path style=" stroke:none;fill-rule:nonzero;fill:rgb(89.96582%,60.3302%,18.745422%);fill-opacity:1;" d="M 27.277344 13.695312 C 25.675781 14.6875 24.230469 15.890625 22.878906 17.195312 C 21.988281 18.050781 21.148438 18.96875 20.316406 19.886719 C 19.636719 20.636719 18.953125 21.390625 18.351562 22.203125 C 17.492188 23.375 16.675781 24.582031 15.90625 25.8125 C 15.492188 26.476562 15.214844 27.226562 14.871094 27.9375 C 14.828125 27.984375 14.785156 28.035156 14.742188 28.085938 C 14.738281 28.136719 14.730469 28.1875 14.726562 28.234375 C 14.675781 28.335938 14.628906 28.4375 14.582031 28.535156 L 14.578125 28.539062 C 14.535156 28.636719 14.488281 28.734375 14.445312 28.832031 C 14.160156 29.742188 13.867188 30.65625 13.585938 31.570312 C 13.226562 32.746094 13.0625 33.96875 12.957031 35.183594 C 12.820312 36.738281 12.988281 38.285156 13.425781 39.792969 C 13.511719 40.089844 13.683594 40.363281 13.820312 40.648438 C 13.824219 40.738281 13.832031 40.832031 13.839844 40.925781 C 13.886719 40.976562 13.929688 41.03125 13.976562 41.085938 C 13.984375 41.179688 13.992188 41.277344 14.003906 41.375 C 14.042969 41.421875 14.085938 41.472656 14.128906 41.519531 C 14.136719 41.570312 14.144531 41.621094 14.152344 41.671875 C 14.195312 41.722656 14.234375 41.769531 14.277344 41.820312 C 14.285156 41.871094 14.292969 41.921875 14.300781 41.972656 C 14.34375 42.019531 14.386719 42.070312 14.425781 42.117188 C 14.933594 43.207031 15.683594 44.121094 16.488281 44.992188 C 17.246094 45.816406 18.097656 46.53125 18.992188 47.199219 C 20.339844 48.203125 21.742188 49.125 23.277344 49.824219 C 23.898438 50.109375 24.539062 50.351562 25.273438 50.296875 C 25.351562 49.90625 25.417969 49.554688 25.476562 49.261719 C 25.050781 48.632812 24.433594 48.394531 23.890625 48.0625 C 22.421875 47.15625 20.855469 46.414062 19.53125 45.277344 C 18.246094 44.171875 17.085938 42.972656 16.199219 41.523438 C 16.15625 41.472656 16.113281 41.425781 16.070312 41.375 C 16.015625 41.277344 15.960938 41.175781 15.910156 41.074219 C 15.863281 41.023438 15.820312 40.96875 15.773438 40.914062 C 15.777344 40.867188 15.773438 40.820312 15.761719 40.777344 C 15.714844 40.722656 15.671875 40.667969 15.625 40.617188 C 15.628906 40.570312 15.621094 40.523438 15.609375 40.476562 C 15.566406 40.425781 15.519531 40.371094 15.476562 40.320312 C 15.46875 40.222656 15.457031 40.125 15.449219 40.03125 C 15.40625 39.976562 15.363281 39.929688 15.324219 39.878906 C 15.328125 39.832031 15.320312 39.78125 15.304688 39.738281 C 15.269531 39.597656 15.230469 39.457031 15.191406 39.316406 C 14.703125 37.710938 14.578125 36.105469 14.996094 34.449219 C 15.273438 33.359375 15.714844 32.359375 16.21875 31.371094 C 16.265625 31.324219 16.308594 31.273438 16.355469 31.222656 C 16.367188 31.175781 16.371094 31.132812 16.371094 31.082031 C 16.417969 31.03125 16.464844 30.976562 16.511719 30.921875 C 16.566406 30.828125 16.617188 30.730469 16.667969 30.632812 C 16.714844 30.582031 16.765625 30.527344 16.8125 30.476562 C 16.863281 30.375 16.914062 30.277344 16.964844 30.175781 C 17.011719 30.128906 17.058594 30.078125 17.105469 30.03125 C 17.15625 29.929688 17.210938 29.832031 17.265625 29.734375 C 17.3125 29.683594 17.363281 29.632812 17.410156 29.582031 L 17.410156 29.578125 C 17.457031 29.53125 17.503906 29.480469 17.546875 29.429688 C 17.558594 29.386719 17.5625 29.339844 17.566406 29.289062 C 17.617188 29.238281 17.664062 29.1875 17.714844 29.132812 L 17.714844 29.136719 C 17.761719 29.085938 17.808594 29.03125 17.859375 28.980469 C 17.90625 28.933594 17.953125 28.882812 18 28.835938 C 18.054688 28.738281 18.109375 28.640625 18.164062 28.542969 C 18.210938 28.492188 18.261719 28.4375 18.308594 28.386719 C 18.355469 28.335938 18.40625 28.285156 18.457031 28.234375 C 18.503906 28.183594 18.550781 28.136719 18.601562 28.085938 L 18.605469 28.082031 C 18.652344 28.03125 18.699219 27.984375 18.746094 27.9375 C 18.800781 27.84375 18.859375 27.75 18.914062 27.65625 C 19.222656 27.367188 19.523438 27.074219 19.839844 26.792969 C 20.300781 26.382812 20.746094 25.949219 21.242188 25.582031 C 22.234375 24.855469 23.265625 24.179688 24.269531 23.460938 C 25.003906 22.933594 25.570312 22.285156 25.855469 21.382812 C 26.597656 19.058594 27.390625 16.753906 28.15625 14.4375 C 28.292969 14.03125 28.421875 13.617188 28.589844 13.097656 C 28.074219 13.328125 27.648438 13.464844 27.277344 13.695312 "/>
</g>
</svg>
