<?xml version="1.0" encoding="UTF-8"?>
<svg xmlns="http://www.w3.org/2000/svg" xmlns:xlink="http://www.w3.org/1999/xlink" width="56pt" height="56pt" viewBox="0 0 56 56" version="1.1">
<g id="surface1">
<rect x="0" y="0" width="56" height="56" style="fill:rgb(95.66803%,95.779419%,96.777344%);fill-opacity:1;stroke:none;"/>
<path style=" stroke:none;fill-rule:nonzero;fill:rgb(72.099304%,86.056519%,8.808899%);fill-opacity:1;" d="M 42.667969 12.714844 C 41.773438 16.496094 37.984375 19.273438 34.214844 18.914062 C 30.445312 18.554688 28.109375 15.199219 29.011719 11.414062 C 29.90625 7.628906 33.695312 4.851562 37.464844 5.210938 C 41.234375 5.570312 43.566406 8.929688 42.667969 12.714844 M 45.085938 24.769531 C 46.914062 25.984375 47.945312 28.445312 47.113281 31.699219 C 45.519531 38.082031 40.488281 43.566406 37.5 45.800781 C 32.089844 49.953125 24.875 51.140625 21.019531 50.75 C 16.746094 50.3125 13.230469 48.269531 11.238281 45.878906 C 14.667969 48.332031 18.714844 47.363281 22.402344 45.960938 C 26.925781 44.242188 29.542969 41.710938 31.839844 38.078125 C 34.695312 33.554688 34.882812 28.507812 36.867188 26.203125 C 39.359375 23.304688 42.742188 23.25 45.085938 24.769531 "/>
<path style=" stroke:none;fill-rule:nonzero;fill:rgb(37.506104%,72.323608%,19.715881%);fill-opacity:1;" d="M 15.308594 38.367188 C 14.726562 36.695312 13.113281 36.167969 11.796875 36.300781 C 9.535156 36.53125 8.195312 38.777344 8.703125 40.808594 C 9.210938 42.832031 10.148438 44.570312 11.242188 45.882812 C 14.667969 48.332031 18.71875 47.378906 22.488281 45.929688 C 17.984375 45.273438 15.960938 40.230469 15.308594 38.367188 M 9.011719 26.40625 C 8.285156 24.261719 9.453125 21.75 11.621094 20.796875 C 13.789062 19.839844 16.136719 20.800781 16.863281 22.941406 C 17.589844 25.085938 16.421875 27.601562 14.25 28.554688 C 12.082031 29.511719 9.738281 28.550781 9.011719 26.40625 "/>
</g>
</svg>
