<?xml version="1.0" encoding="UTF-8"?>
<svg xmlns="http://www.w3.org/2000/svg" xmlns:xlink="http://www.w3.org/1999/xlink" width="56pt" height="56pt" viewBox="0 0 56 56" version="1.1">
<g id="surface1">
<rect x="0" y="0" width="56" height="56" style="fill:rgb(95.66803%,95.779419%,96.777344%);fill-opacity:1;stroke:none;"/>
<path style=" stroke:none;fill-rule:nonzero;fill:rgb(11.34491%,31.45752%,15.353394%);fill-opacity:1;" d="M 17.382812 31.765625 C 18.679688 30.011719 19.96875 28.25 21.273438 26.5 C 24.984375 21.519531 28.695312 16.539062 32.40625 11.554688 C 32.511719 11.414062 32.582031 11.246094 32.667969 11.09375 C 36.949219 11.09375 41.222656 11.09375 45.5 11.09375 C 45.566406 12.261719 45.617188 13.429688 45.695312 14.597656 C 45.757812 15.585938 45.859375 16.570312 45.929688 17.554688 C 46.054688 19.371094 46.164062 21.191406 46.296875 23.007812 C 46.480469 25.523438 46.683594 28.039062 46.863281 30.554688 C 46.996094 32.398438 47.105469 34.242188 47.234375 36.085938 C 47.417969 38.601562 47.613281 41.117188 47.796875 43.636719 C 47.820312 43.964844 47.800781 44.296875 47.800781 44.667969 C 44.214844 44.75 40.65625 44.828125 37.050781 44.90625 C 37.011719 44.335938 36.957031 43.824219 36.9375 43.3125 C 36.855469 41.28125 36.789062 39.253906 36.710938 37.222656 C 36.613281 34.800781 36.503906 32.386719 36.40625 29.964844 C 36.296875 27.363281 36.191406 24.761719 36.082031 22.160156 C 36.03125 20.964844 35.988281 19.769531 35.925781 18.574219 C 35.894531 17.996094 35.839844 17.417969 35.277344 17.039062 C 34.609375 16.84375 34.214844 17.238281 33.875 17.734375 C 33.082031 18.894531 32.289062 20.054688 31.496094 21.21875 C 29.355469 24.355469 27.214844 27.496094 25.070312 30.636719 C 25.015625 30.71875 24.941406 30.792969 24.835938 30.917969 C 22.355469 30.878906 19.882812 31.125 17.472656 31.855469 C 17.441406 31.824219 17.410156 31.792969 17.382812 31.765625 "/>
<path style=" stroke:none;fill-rule:nonzero;fill:rgb(62.135315%,77.197266%,12.471008%);fill-opacity:1;" d="M 8.191406 44.707031 C 8.363281 44.425781 8.484375 44.203125 8.628906 44 C 10.515625 41.359375 12.410156 38.726562 14.28125 36.078125 C 14.75 35.414062 15.402344 34.988281 16.0625 34.59375 C 17.496094 33.726562 19.074219 33.246094 20.730469 32.984375 C 22.277344 32.738281 23.828125 32.691406 25.390625 32.695312 C 28.203125 32.710938 31.019531 32.699219 34.011719 32.699219 C 32.476562 34.027344 30.964844 35.132812 29.503906 36.292969 C 28.738281 36.292969 28.007812 36.265625 27.28125 36.296875 C 25.117188 36.402344 22.996094 36.714844 21.042969 37.722656 C 20.042969 38.238281 19.191406 38.9375 18.496094 39.855469 C 17.289062 41.449219 16.011719 42.988281 14.761719 44.546875 C 14.714844 44.609375 14.652344 44.65625 14.59375 44.707031 C 12.484375 44.707031 10.382812 44.707031 8.191406 44.707031 "/>
<path style=" stroke:none;fill-rule:nonzero;fill:rgb(55.661011%,69.436646%,59.165955%);fill-opacity:1;" d="M 17.472656 31.855469 C 17.433594 31.859375 17.398438 31.867188 17.359375 31.871094 C 17.367188 31.835938 17.375 31.800781 17.382812 31.765625 C 17.410156 31.792969 17.441406 31.824219 17.472656 31.855469 "/>
</g>
</svg>
