<?xml version="1.0" encoding="UTF-8"?>
<svg xmlns="http://www.w3.org/2000/svg" xmlns:xlink="http://www.w3.org/1999/xlink" width="56pt" height="56pt" viewBox="0 0 56 56" version="1.1">
<g id="surface1">
<rect x="0" y="0" width="56" height="56" style="fill:rgb(8.200073%,11.672974%,21.64917%);fill-opacity:1;stroke:none;"/>
<path style=" stroke:none;fill-rule:nonzero;fill:rgb(100%,100%,100%);fill-opacity:1;" d="M 29.058594 26.742188 C 29.914062 24.988281 30.773438 23.234375 31.621094 21.492188 C 31.605469 21.460938 31.605469 21.453125 31.601562 21.449219 C 31.199219 21.230469 30.800781 21.003906 30.398438 20.789062 C 30.25 20.710938 30.085938 20.707031 29.921875 20.761719 C 29.433594 20.921875 28.945312 21.089844 28.453125 21.25 C 27.078125 21.703125 25.710938 22.175781 24.328125 22.601562 C 23.21875 22.945312 22.089844 23.210938 20.945312 23.398438 C 19.75 23.59375 18.546875 23.671875 17.34375 23.585938 C 15.796875 23.476562 14.335938 23.0625 12.980469 22.289062 C 12.273438 21.886719 11.625 21.398438 11.019531 20.851562 C 10.195312 20.105469 9.445312 19.289062 8.730469 18.441406 C 7.914062 17.464844 7.15625 16.445312 6.476562 15.367188 C 6.105469 14.773438 5.753906 14.164062 5.488281 13.511719 C 5.472656 13.472656 5.460938 13.433594 5.480469 13.367188 C 5.515625 13.402344 5.558594 13.433594 5.585938 13.476562 C 5.863281 13.882812 6.136719 14.296875 6.417969 14.703125 C 7.519531 16.316406 8.773438 17.796875 10.261719 19.070312 C 11.5 20.132812 12.875 20.972656 14.433594 21.484375 C 15.316406 21.773438 16.21875 21.945312 17.144531 22.015625 C 18.242188 22.097656 19.332031 22.039062 20.417969 21.894531 C 21.746094 21.71875 23.046875 21.414062 24.335938 21.054688 C 26.046875 20.582031 27.722656 20.015625 29.394531 19.421875 C 30.617188 18.988281 31.839844 18.542969 33.0625 18.105469 C 33.207031 18.054688 33.296875 17.976562 33.363281 17.84375 C 34.191406 16.257812 35.019531 14.671875 35.847656 13.089844 C 35.894531 13 35.945312 12.910156 35.992188 12.820312 C 36.007812 12.824219 36.027344 12.828125 36.042969 12.832031 C 36.136719 14.246094 36.226562 15.664062 36.320312 17.117188 C 37.878906 16.574219 39.394531 15.964844 40.960938 15.507812 C 40.96875 15.523438 40.980469 15.535156 40.988281 15.550781 C 39.484375 17.019531 37.984375 18.492188 36.484375 19.960938 C 36.574219 21.394531 36.660156 22.816406 36.75 24.277344 C 35.636719 23.71875 34.570312 23.183594 33.492188 22.644531 C 32.078125 24.085938 30.644531 25.488281 29.109375 26.785156 C 29.09375 26.773438 29.074219 26.757812 29.058594 26.742188 "/>
<path style=" stroke:none;fill-rule:nonzero;fill:rgb(100%,100%,100%);fill-opacity:1;" d="M 50.613281 42.488281 C 50.550781 42.40625 50.484375 42.324219 50.425781 42.238281 C 49.886719 41.476562 49.351562 40.714844 48.804688 39.960938 C 48.332031 39.308594 47.828125 38.679688 47.222656 38.140625 C 46.953125 37.902344 46.703125 37.636719 46.449219 37.375 C 45.6875 36.597656 44.796875 35.992188 43.855469 35.460938 C 42.785156 34.859375 41.648438 34.429688 40.445312 34.183594 C 39.167969 33.921875 37.882812 33.871094 36.585938 33.964844 C 35.402344 34.050781 34.234375 34.246094 33.089844 34.539062 C 32.082031 34.796875 31.085938 35.09375 30.089844 35.40625 C 29.070312 35.726562 28.0625 36.085938 27.046875 36.429688 C 26.023438 36.78125 24.996094 37.140625 23.972656 37.496094 C 23.699219 37.589844 23.425781 37.675781 23.152344 37.765625 C 22.882812 37.851562 22.710938 38.027344 22.585938 38.285156 C 21.988281 39.503906 21.375 40.71875 20.765625 41.933594 C 20.582031 42.296875 20.394531 42.65625 20.207031 43.015625 C 20.179688 43.074219 20.144531 43.128906 20.070312 43.179688 C 20.03125 42.46875 19.992188 41.761719 19.949219 41.054688 C 19.902344 40.347656 19.886719 39.644531 19.820312 38.917969 C 18.285156 39.433594 16.785156 39.9375 15.285156 40.441406 C 15.277344 40.429688 15.269531 40.417969 15.261719 40.40625 C 15.40625 40.261719 15.546875 40.113281 15.695312 39.96875 C 16.957031 38.714844 18.21875 37.457031 19.488281 36.207031 C 19.617188 36.082031 19.664062 35.957031 19.652344 35.777344 C 19.574219 34.515625 19.503906 33.253906 19.433594 31.992188 C 19.429688 31.90625 19.433594 31.820312 19.433594 31.6875 C 20.496094 32.242188 21.507812 32.816406 22.550781 33.367188 C 24.042969 31.960938 25.535156 30.558594 27.027344 29.15625 C 27.042969 29.164062 27.058594 29.175781 27.074219 29.183594 C 26.21875 30.949219 25.363281 32.714844 24.5 34.496094 C 24.5625 34.53125 24.617188 34.5625 24.671875 34.589844 C 24.980469 34.753906 25.292969 34.902344 25.589844 35.082031 C 25.832031 35.226562 26.066406 35.265625 26.328125 35.175781 C 26.742188 35.035156 27.152344 34.894531 27.566406 34.757812 C 28.980469 34.296875 30.386719 33.832031 31.804688 33.390625 C 32.890625 33.050781 33.996094 32.777344 35.117188 32.589844 C 36.191406 32.40625 37.273438 32.300781 38.363281 32.339844 C 39.855469 32.394531 41.289062 32.691406 42.640625 33.363281 C 43.78125 33.929688 44.785156 34.691406 45.695312 35.578125 C 46.773438 36.628906 47.710938 37.800781 48.574219 39.03125 C 49.191406 39.90625 49.785156 40.796875 50.308594 41.734375 C 50.417969 41.925781 50.515625 42.128906 50.613281 42.324219 C 50.636719 42.367188 50.644531 42.417969 50.65625 42.464844 C 50.644531 42.472656 50.628906 42.480469 50.613281 42.488281 "/>
<path style=" stroke:none;fill-rule:nonzero;fill:rgb(100%,100%,100%);fill-opacity:1;" d="M 5.496094 16.34375 C 5.6875 16.609375 5.878906 16.882812 6.074219 17.148438 C 6.613281 17.886719 7.128906 18.648438 7.703125 19.359375 C 8.722656 20.636719 9.867188 21.785156 11.191406 22.75 C 12.300781 23.554688 13.507812 24.175781 14.824219 24.550781 C 16.332031 24.980469 17.875 25.082031 19.4375 24.953125 C 20.589844 24.859375 21.722656 24.660156 22.839844 24.378906 C 23.597656 24.1875 24.34375 23.953125 25.09375 23.71875 C 26.253906 23.359375 27.414062 22.984375 28.574219 22.613281 C 29.164062 22.425781 29.757812 22.234375 30.34375 22.042969 C 30.40625 22.023438 30.472656 22.007812 30.566406 21.976562 C 30.550781 22.042969 30.550781 22.09375 30.535156 22.132812 C 30.316406 22.601562 30.09375 23.066406 29.882812 23.539062 C 29.785156 23.746094 29.605469 23.847656 29.410156 23.917969 C 29.078125 24.039062 28.738281 24.132812 28.398438 24.238281 C 27.578125 24.503906 26.757812 24.769531 25.933594 25.035156 C 24.804688 25.40625 23.664062 25.746094 22.511719 26.027344 C 21.570312 26.25 20.617188 26.425781 19.652344 26.515625 C 18.445312 26.625 17.246094 26.601562 16.054688 26.367188 C 14.21875 26.011719 12.625 25.183594 11.210938 23.96875 C 9.800781 22.761719 8.652344 21.332031 7.5625 19.84375 C 7.007812 19.09375 6.488281 18.324219 6.027344 17.515625 C 5.84375 17.195312 5.683594 16.859375 5.515625 16.53125 C 5.488281 16.480469 5.476562 16.425781 5.457031 16.371094 C 5.46875 16.359375 5.480469 16.351562 5.496094 16.34375 "/>
<path style=" stroke:none;fill-rule:nonzero;fill:rgb(100%,100%,100%);fill-opacity:1;" d="M 50.613281 39.507812 C 50.449219 39.273438 50.28125 39.039062 50.117188 38.804688 C 49.492188 37.90625 48.867188 37.007812 48.128906 36.199219 C 47.578125 35.589844 47.023438 34.988281 46.453125 34.394531 C 45.742188 33.652344 44.898438 33.078125 44.007812 32.574219 C 42.988281 32 41.917969 31.535156 40.777344 31.265625 C 39.792969 31.03125 38.792969 30.945312 37.785156 30.960938 C 36.894531 30.976562 36.015625 31.066406 35.136719 31.207031 C 33.699219 31.4375 32.289062 31.796875 30.902344 32.238281 C 29.679688 32.628906 28.46875 33.058594 27.25 33.464844 C 26.726562 33.640625 26.191406 33.789062 25.660156 33.953125 C 25.636719 33.960938 25.605469 33.960938 25.554688 33.96875 C 25.570312 33.898438 25.578125 33.84375 25.59375 33.792969 C 25.707031 33.410156 25.847656 33.039062 26.054688 32.695312 C 26.292969 32.300781 26.632812 32.03125 27.070312 31.917969 C 28.117188 31.65625 29.125 31.265625 30.15625 30.953125 C 31.265625 30.617188 32.378906 30.289062 33.496094 29.992188 C 34.496094 29.726562 35.515625 29.542969 36.546875 29.445312 C 37.328125 29.371094 38.109375 29.351562 38.894531 29.414062 C 41.054688 29.585938 42.988281 30.335938 44.65625 31.730469 C 45.542969 32.472656 46.386719 33.261719 47.117188 34.15625 C 47.886719 35.09375 48.589844 36.082031 49.261719 37.089844 C 49.734375 37.796875 50.199219 38.507812 50.566406 39.277344 C 50.597656 39.339844 50.625 39.410156 50.652344 39.476562 C 50.640625 39.484375 50.625 39.496094 50.613281 39.507812 "/>
<path style=" stroke:none;fill-rule:nonzero;fill:rgb(100%,100%,100%);fill-opacity:1;" d="M 27.265625 30.445312 C 27.480469 29.878906 27.664062 29.351562 28.015625 28.902344 C 28.199219 28.667969 28.449219 28.527344 28.730469 28.4375 C 29.992188 28.046875 31.253906 27.640625 32.523438 27.28125 C 33.300781 27.058594 34.097656 26.882812 34.898438 26.734375 C 36.148438 26.5 37.414062 26.394531 38.691406 26.472656 C 40.894531 26.609375 42.871094 27.34375 44.59375 28.734375 C 45.769531 29.679688 46.796875 30.769531 47.714844 31.964844 C 48.660156 33.199219 49.519531 34.484375 50.300781 35.832031 C 50.414062 36.027344 50.511719 36.234375 50.613281 36.441406 C 50.632812 36.46875 50.636719 36.503906 50.644531 36.535156 C 50.628906 36.542969 50.617188 36.550781 50.605469 36.558594 C 50.460938 36.355469 50.308594 36.160156 50.171875 35.957031 C 49.242188 34.5625 48.226562 33.242188 47.058594 32.039062 C 45.742188 30.679688 44.230469 29.597656 42.480469 28.863281 C 41.683594 28.527344 40.847656 28.304688 39.992188 28.167969 C 39.195312 28.039062 38.390625 27.980469 37.585938 28 C 36.703125 28.019531 35.828125 28.117188 34.964844 28.273438 C 33.476562 28.542969 32.03125 28.964844 30.59375 29.425781 C 29.554688 29.761719 28.511719 30.078125 27.46875 30.40625 C 27.421875 30.417969 27.371094 30.425781 27.265625 30.445312 "/>
<path style=" stroke:none;fill-rule:nonzero;fill:rgb(100%,100%,100%);fill-opacity:1;" d="M 5.386719 19.09375 C 5.515625 19.28125 5.644531 19.46875 5.769531 19.65625 C 6.828125 21.292969 8.011719 22.835938 9.414062 24.195312 C 10.3125 25.070312 11.296875 25.835938 12.390625 26.453125 C 13.5625 27.117188 14.8125 27.585938 16.144531 27.800781 C 17.320312 27.992188 18.496094 27.996094 19.679688 27.882812 C 20.773438 27.78125 21.847656 27.589844 22.90625 27.316406 C 23.929688 27.050781 24.941406 26.75 25.953125 26.441406 C 26.769531 26.191406 27.578125 25.902344 28.390625 25.636719 C 28.542969 25.585938 28.699219 25.5625 28.886719 25.519531 C 28.859375 25.597656 28.851562 25.640625 28.835938 25.675781 C 28.621094 26.121094 28.402344 26.566406 28.191406 27.015625 C 28.125 27.15625 28.03125 27.265625 27.894531 27.332031 C 27.710938 27.421875 27.523438 27.511719 27.328125 27.574219 C 26.253906 27.898438 25.175781 28.21875 24.101562 28.539062 C 23.152344 28.820312 22.191406 29.058594 21.21875 29.246094 C 19.953125 29.488281 18.671875 29.605469 17.382812 29.503906 C 15.996094 29.390625 14.683594 29.019531 13.445312 28.382812 C 12.597656 27.953125 11.804688 27.441406 11.082031 26.824219 C 10.5 26.332031 9.984375 25.773438 9.484375 25.199219 C 8.253906 23.78125 7.136719 22.285156 6.164062 20.683594 C 5.917969 20.273438 5.699219 19.84375 5.472656 19.421875 C 5.417969 19.324219 5.386719 19.21875 5.34375 19.117188 C 5.359375 19.109375 5.371094 19.101562 5.386719 19.09375 "/>
</g>
</svg>
