<?xml version="1.0" encoding="UTF-8"?>
<svg xmlns="http://www.w3.org/2000/svg" xmlns:xlink="http://www.w3.org/1999/xlink" width="56pt" height="56pt" viewBox="0 0 56 56" version="1.1">
<g id="surface1">
<rect x="0" y="0" width="56" height="56" style="fill:rgb(95.66803%,95.779419%,96.777344%);fill-opacity:1;stroke:none;"/>
<path style=" stroke:none;fill-rule:nonzero;fill:rgb(13.729858%,12.159729%,12.548828%);fill-opacity:1;" d="M 29.722656 29.691406 C 30.136719 29.46875 30.539062 29.210938 30.96875 29.023438 C 33.589844 27.871094 36.257812 26.847656 39.023438 26.109375 C 41.039062 25.570312 43.101562 25.265625 45.199219 25.445312 C 46.210938 25.535156 47.210938 25.71875 48.210938 25.878906 C 48.84375 25.980469 49.46875 26.109375 50.148438 26.238281 C 50.019531 25.984375 49.816406 25.894531 49.644531 25.773438 C 48.398438 24.902344 47.027344 24.296875 45.558594 23.902344 C 44.132812 23.515625 42.675781 23.339844 41.203125 23.261719 C 38.804688 23.132812 36.4375 23.367188 34.078125 23.753906 C 29.476562 24.511719 25.007812 25.78125 20.636719 27.394531 C 18.320312 28.25 16.027344 29.164062 13.738281 30.09375 C 10.886719 31.25 8.074219 32.507812 5.339844 33.929688 C 4.84375 34.183594 4.363281 34.46875 3.867188 34.726562 C 3.644531 34.84375 3.414062 34.949219 3.175781 35.035156 C 3.101562 35.0625 3 35.011719 2.886719 34.992188 C 2.9375 34.75 3.097656 34.648438 3.242188 34.546875 C 3.890625 34.113281 4.519531 33.652344 5.191406 33.265625 C 7.101562 32.171875 9.015625 31.089844 10.945312 30.035156 C 13.589844 28.589844 16.289062 27.261719 19.039062 26.035156 C 22.878906 24.320312 26.8125 22.882812 30.914062 21.933594 C 32.8125 21.5 34.726562 21.15625 36.675781 21.046875 C 37.753906 20.984375 38.839844 20.933594 39.917969 20.96875 C 42.722656 21.0625 45.429688 21.597656 47.921875 22.953125 C 49.773438 23.957031 51.320312 25.296875 52.390625 27.132812 C 52.652344 27.582031 52.835938 28.078125 53.027344 28.5625 C 53.113281 28.777344 53.167969 29.015625 53.019531 29.300781 C 52.761719 29.15625 52.503906 29.035156 52.269531 28.878906 C 51.179688 28.160156 50.0625 27.492188 48.828125 27.050781 C 47.527344 26.585938 46.191406 26.324219 44.816406 26.222656 C 43.546875 26.128906 42.277344 26.152344 41.019531 26.332031 C 40.320312 26.429688 39.621094 26.585938 38.941406 26.777344 C 36.007812 27.601562 33.109375 28.523438 30.246094 29.558594 C 30.074219 29.621094 29.886719 29.640625 29.707031 29.679688 L 29.722656 29.691406 "/>
</g>
</svg>
