<?xml version="1.0" encoding="UTF-8"?>
<svg xmlns="http://www.w3.org/2000/svg" xmlns:xlink="http://www.w3.org/1999/xlink" width="56pt" height="56pt" viewBox="0 0 56 56" version="1.1">
<g id="surface1">
<rect x="0" y="0" width="56" height="56" style="fill:rgb(95.66803%,95.779419%,96.777344%);fill-opacity:1;stroke:none;"/>
<path style=" stroke:none;fill-rule:nonzero;fill:rgb(89.685059%,12.950134%,14.137268%);fill-opacity:1;" d="M 41.390625 16.929688 C 41.09375 16.929688 40.734375 17.105469 40.558594 17.40625 C 40.320312 17.761719 40.082031 18.179688 39.785156 18.535156 C 39.070312 19.609375 38.355469 20.621094 37.640625 21.632812 C 37.460938 21.871094 37.460938 22.167969 37.582031 22.40625 C 38.175781 23.179688 38.773438 24.015625 39.425781 24.847656 C 39.664062 25.144531 39.902344 25.503906 40.140625 25.800781 C 40.320312 26.039062 40.675781 26.097656 41.035156 25.976562 C 46.273438 23.777344 50.738281 21.273438 50.679688 19.429688 C 50.621094 17.644531 46.273438 16.988281 41.390625 16.929688 "/>
<path style=" stroke:none;fill-rule:nonzero;fill:rgb(89.685059%,12.950134%,14.137268%);fill-opacity:1;" d="M 23.289062 12.464844 C 23.527344 12.523438 23.765625 12.640625 24.066406 12.699219 C 24.78125 12.9375 25.492188 13.238281 26.148438 13.476562 C 26.328125 13.535156 26.566406 13.476562 26.804688 13.296875 C 27.636719 12.640625 28.53125 11.925781 29.421875 11.210938 C 29.78125 10.972656 30.078125 10.675781 30.433594 10.4375 C 30.671875 10.261719 30.792969 9.960938 30.792969 9.78125 C 30.136719 6.746094 29.183594 4.601562 27.816406 5.078125 C 26.445312 5.496094 24.78125 8.414062 23.230469 11.925781 C 22.992188 12.164062 23.050781 12.402344 23.289062 12.464844 "/>
<path style=" stroke:none;fill-rule:nonzero;fill:rgb(89.685059%,12.950134%,14.137268%);fill-opacity:1;" d="M 10.96875 30.800781 C 11.207031 30.445312 11.441406 30.148438 11.679688 29.789062 C 12.335938 28.835938 12.992188 27.945312 13.644531 27.050781 C 13.824219 26.8125 13.882812 26.574219 13.765625 26.394531 C 13.46875 25.742188 13.167969 25.027344 12.871094 24.3125 C 12.753906 24.074219 12.695312 23.777344 12.574219 23.539062 C 12.515625 23.359375 12.277344 23.300781 12.039062 23.417969 C 8.585938 25.144531 5.726562 26.929688 5.371094 28.359375 C 4.953125 29.847656 7.15625 30.683594 10.191406 31.21875 C 10.488281 31.21875 10.789062 31.097656 10.96875 30.800781 "/>
<path style=" stroke:none;fill-rule:nonzero;fill:rgb(89.685059%,12.950134%,14.137268%);fill-opacity:1;" d="M 26.683594 40.03125 C 26.328125 39.792969 26.03125 39.613281 25.671875 39.375 C 24.78125 38.78125 23.945312 38.183594 23.171875 37.648438 C 22.992188 37.53125 22.695312 37.53125 22.398438 37.707031 C 21.445312 38.480469 20.433594 39.257812 19.421875 39.96875 C 19.0625 40.269531 18.648438 40.507812 18.289062 40.804688 C 17.992188 40.984375 17.8125 41.339844 17.871094 41.699219 C 18.171875 46.699219 19.003906 51.046875 20.789062 50.988281 C 22.636719 50.925781 24.898438 46.34375 26.921875 40.863281 C 26.980469 40.507812 26.921875 40.148438 26.683594 40.03125 "/>
<path style=" stroke:none;fill-rule:nonzero;fill:rgb(23.013306%,57.876587%,76.615906%);fill-opacity:1;" d="M 36.691406 27.824219 C 33.773438 28.957031 31.628906 29.371094 31.09375 28.480469 C 30.617188 27.707031 31.449219 25.917969 33.058594 23.777344 C 33.296875 23.417969 35.738281 20.144531 36.691406 18.773438 C 40.679688 12.9375 44.429688 6.628906 42.761719 5.734375 C 41.335938 5.019531 36.453125 8.234375 31.6875 11.867188 C 31.449219 12.046875 31.332031 12.34375 31.332031 12.523438 C 31.628906 14.546875 31.511719 16.273438 30.554688 17.046875 C 29.664062 17.761719 28.292969 17.523438 26.746094 16.75 C 26.507812 16.632812 24.425781 15.675781 23.652344 15.320312 C 19.71875 13.714844 15.433594 12.402344 13.886719 14.011719 C 12.574219 15.378906 13.410156 18.535156 14.71875 21.808594 C 14.777344 21.988281 15.015625 22.046875 15.253906 21.929688 C 17.398438 20.976562 19.066406 20.5 19.421875 21.214844 C 19.71875 21.808594 18.945312 23.238281 17.578125 25.085938 C 17.28125 25.441406 14.539062 29.074219 13.46875 30.683594 C 9.65625 36.101562 5.847656 42.054688 6.738281 43.601562 C 7.574219 45.09375 12.335938 42.171875 17.28125 38.542969 C 17.519531 38.363281 17.695312 38.007812 17.695312 37.707031 C 17.636719 35.03125 17.933594 33.003906 18.945312 32.289062 C 19.839844 31.574219 21.210938 32.050781 22.757812 33.183594 C 22.996094 33.359375 25.378906 35.03125 26.390625 35.683594 C 31.867188 39.199219 39.308594 43.128906 41.632812 40.625 C 43.597656 38.542969 40.796875 32.886719 37.640625 27.882812 C 37.34375 27.765625 37.046875 27.707031 36.691406 27.824219 "/>
</g>
</svg>
