<?xml version="1.0" encoding="UTF-8"?>
<svg xmlns="http://www.w3.org/2000/svg" xmlns:xlink="http://www.w3.org/1999/xlink" width="56pt" height="56pt" viewBox="0 0 56 56" version="1.1">
<g id="surface1">
<rect x="0" y="0" width="56" height="56" style="fill:rgb(95.666504%,95.776367%,96.775818%);fill-opacity:1;stroke:none;"/>
<path style=" stroke:none;fill-rule:nonzero;fill:rgb(17.573547%,19.674683%,50.808716%);fill-opacity:1;" d="M 39.382812 32.902344 C 39.382812 33.933594 39.382812 34.90625 39.382812 35.882812 C 39.664062 35.882812 39.910156 35.882812 40.164062 35.882812 C 40.164062 34.867188 40.164062 33.898438 40.164062 32.902344 C 39.894531 32.902344 39.660156 32.902344 39.382812 32.902344 Z M 29.699219 35.90625 C 29.699219 35.351562 29.699219 34.875 29.699219 34.394531 C 29.695312 33.902344 29.6875 33.40625 29.683594 32.921875 C 29.367188 32.921875 29.117188 32.921875 28.839844 32.921875 C 28.839844 33.445312 28.835938 33.925781 28.839844 34.40625 C 28.84375 34.902344 28.847656 35.394531 28.855469 35.90625 C 29.15625 35.90625 29.390625 35.90625 29.699219 35.90625 Z M 35.570312 35.902344 C 36.335938 35.902344 37.035156 35.902344 37.761719 35.902344 C 37.761719 35.730469 37.761719 35.582031 37.761719 35.363281 C 37.300781 35.363281 36.867188 35.363281 36.410156 35.363281 C 36.375 34.503906 36.425781 33.707031 36.375 32.90625 C 36.070312 32.90625 35.835938 32.90625 35.570312 32.90625 C 35.570312 33.90625 35.570312 34.882812 35.570312 35.902344 Z M 52.691406 32.996094 C 51.914062 32.71875 51.53125 32.710938 51.015625 32.957031 C 50.296875 33.300781 50.347656 33.957031 50.710938 34.335938 C 50.84375 34.472656 51.046875 34.550781 51.226562 34.640625 C 51.367188 34.710938 51.527344 34.746094 51.675781 34.8125 C 51.828125 34.878906 51.976562 34.96875 51.925781 35.167969 C 51.878906 35.359375 51.710938 35.40625 51.546875 35.394531 C 51.269531 35.375 50.992188 35.328125 50.714844 35.296875 C 50.660156 35.292969 50.605469 35.320312 50.53125 35.335938 C 50.488281 35.484375 50.449219 35.632812 50.410156 35.773438 C 51.105469 36.09375 51.683594 36.113281 52.28125 35.847656 C 52.914062 35.566406 53.019531 34.8125 52.460938 34.394531 C 52.273438 34.253906 52.039062 34.171875 51.824219 34.070312 C 51.609375 33.96875 51.351562 33.941406 51.257812 33.65625 C 51.601562 33.195312 52.082031 33.558594 52.515625 33.472656 C 52.566406 33.332031 52.621094 33.1875 52.691406 32.996094 Z M 46.648438 32.894531 C 46.648438 33.929688 46.648438 34.90625 46.648438 35.878906 C 47.484375 35.976562 48.777344 35.960938 48.90625 35.828125 C 48.910156 35.773438 48.929688 35.695312 48.917969 35.617188 C 48.910156 35.546875 48.875 35.476562 48.839844 35.363281 C 48.390625 35.363281 47.957031 35.363281 47.503906 35.363281 C 47.472656 35.105469 47.425781 34.894531 47.570312 34.652344 C 47.933594 34.652344 48.3125 34.652344 48.722656 34.652344 C 48.722656 34.441406 48.722656 34.273438 48.722656 34.042969 C 48.292969 34.042969 47.902344 34.042969 47.503906 34.042969 C 47.503906 33.832031 47.503906 33.675781 47.503906 33.46875 C 47.945312 33.46875 48.359375 33.46875 48.820312 33.46875 C 48.808594 33.238281 48.796875 33.074219 48.789062 32.894531 C 48.058594 32.894531 47.378906 32.894531 46.648438 32.894531 Z M 24.132812 35.890625 C 24.421875 35.890625 24.671875 35.890625 24.957031 35.890625 C 25.039062 35.675781 25.121094 35.457031 25.210938 35.21875 C 25.535156 35.21875 25.851562 35.21875 26.167969 35.21875 C 26.285156 35.46875 26.390625 35.695312 26.496094 35.921875 C 26.789062 35.90625 27.046875 35.996094 27.300781 35.832031 C 26.953125 34.839844 26.613281 33.859375 26.28125 32.917969 C 25.859375 32.917969 25.503906 32.917969 25.140625 32.917969 C 24.800781 33.914062 24.472656 34.882812 24.132812 35.890625 Z M 33.515625 34.546875 C 33.65625 34.367188 33.804688 34.226562 33.902344 34.058594 C 34.113281 33.691406 34.003906 33.296875 33.632812 33.078125 C 33.496094 33 33.34375 32.910156 33.191406 32.898438 C 32.617188 32.859375 32.039062 32.851562 31.445312 32.90625 C 31.445312 33.925781 31.445312 34.902344 31.445312 35.886719 C 31.726562 35.886719 31.972656 35.886719 32.210938 35.886719 C 32.335938 35.492188 32.175781 35.101562 32.328125 34.746094 C 32.921875 34.878906 32.921875 34.878906 33.085938 35.378906 C 33.140625 35.546875 33.207031 35.710938 33.277344 35.894531 C 33.542969 35.894531 33.792969 35.894531 34.046875 35.894531 C 33.914062 35.152344 33.84375 34.980469 33.515625 34.546875 Z M 42.65625 33.800781 C 43.140625 34.558594 43.582031 35.25 44.003906 35.902344 C 44.328125 35.902344 44.585938 35.902344 44.835938 35.902344 C 44.957031 35.132812 44.933594 33.34375 44.804688 32.910156 C 44.59375 32.910156 44.378906 32.910156 44.140625 32.910156 C 44.140625 33.574219 44.140625 34.210938 44.140625 34.78125 C 43.757812 34.1875 43.34375 33.539062 42.945312 32.917969 C 42.582031 32.917969 42.273438 32.917969 41.921875 32.917969 C 41.921875 33.445312 41.921875 33.921875 41.921875 34.402344 C 41.925781 34.898438 41.933594 35.394531 41.941406 35.898438 C 42.21875 35.921875 42.433594 35.972656 42.65625 35.839844 C 42.65625 35.171875 42.65625 34.511719 42.65625 33.800781 Z M 53.679688 31.941406 C 53.679688 33.597656 53.679688 35.21875 53.679688 36.882812 C 36.566406 36.882812 19.480469 36.882812 2.398438 36.882812 C 2.304688 36.449219 2.289062 32.625 2.382812 31.941406 C 19.460938 31.941406 36.542969 31.941406 53.679688 31.941406 "/>
<path style=" stroke:none;fill-rule:nonzero;fill:rgb(17.573547%,19.674683%,50.808716%);fill-opacity:1;" d="M 17.128906 30.644531 C 17.015625 30.660156 16.9375 30.675781 16.863281 30.679688 C 16.058594 30.679688 15.257812 30.679688 14.421875 30.679688 C 13.917969 29.75 13.414062 28.839844 12.921875 27.921875 C 12.417969 26.984375 11.910156 26.050781 11.4375 25.097656 C 10.976562 24.171875 10.554688 23.226562 10.035156 22.316406 C 10.035156 25.082031 10.035156 27.847656 10.035156 30.648438 C 9.25 30.648438 8.515625 30.648438 7.78125 30.648438 C 7.625 30.050781 7.695312 20.214844 7.867188 19.246094 C 8.835938 19.246094 9.8125 19.246094 10.828125 19.246094 C 10.90625 19.386719 10.996094 19.535156 11.082031 19.695312 C 11.933594 21.242188 12.800781 22.78125 13.621094 24.347656 C 14.003906 25.074219 14.296875 25.847656 14.628906 26.597656 C 14.714844 26.792969 14.800781 26.988281 14.941406 27.167969 C 14.824219 24.53125 14.789062 21.902344 14.980469 19.242188 C 15.757812 19.242188 16.507812 19.242188 17.304688 19.242188 C 17.246094 23.042969 17.1875 26.832031 17.128906 30.644531 "/>
<path style=" stroke:none;fill-rule:nonzero;fill:rgb(17.573547%,19.674683%,50.808716%);fill-opacity:1;" d="M 36.316406 24.351562 C 36.894531 24.328125 37.414062 24.335938 37.929688 24.273438 C 38.609375 24.195312 39.054688 23.789062 39.289062 23.148438 C 39.539062 22.453125 39.28125 21.652344 38.695312 21.292969 C 38.15625 20.964844 36.9375 20.914062 36.316406 21.199219 C 36.316406 22.21875 36.316406 23.238281 36.316406 24.351562 Z M 39.867188 25.28125 C 40.503906 25.660156 40.929688 26.144531 41.117188 26.773438 C 41.5 28.035156 41.835938 29.308594 42.199219 30.609375 C 41.738281 30.738281 41.320312 30.664062 40.90625 30.679688 C 40.488281 30.691406 40.066406 30.679688 39.636719 30.679688 C 39.34375 30.210938 39.265625 29.691406 39.136719 29.191406 C 38.988281 28.628906 38.871094 28.058594 38.726562 27.496094 C 38.441406 26.386719 37.90625 26.277344 37.167969 26.160156 C 36.882812 26.117188 36.578125 26.15625 36.25 26.15625 C 36.195312 27.675781 36.144531 29.136719 36.089844 30.664062 C 35.289062 30.699219 34.496094 30.671875 33.652344 30.683594 C 33.683594 26.902344 33.71875 23.167969 33.746094 19.441406 C 34.261719 19.199219 34.757812 19.269531 35.226562 19.214844 C 35.585938 19.171875 35.949219 19.171875 36.308594 19.148438 C 37.398438 19.074219 38.484375 19.128906 39.546875 19.375 C 40.785156 19.65625 41.675781 20.402344 41.875 21.679688 C 42.09375 23.082031 41.78125 24.1875 40.261719 25.070312 C 40.15625 25.128906 40.050781 25.179688 39.867188 25.28125 "/>
<path style=" stroke:none;fill-rule:nonzero;fill:rgb(17.573547%,19.674683%,50.808716%);fill-opacity:1;" d="M 46.996094 25.835938 C 47.460938 25.835938 47.859375 25.855469 48.257812 25.832031 C 48.664062 25.808594 49.089844 25.9375 49.511719 25.730469 C 49.101562 24.214844 48.695312 22.730469 48.261719 21.132812 C 47.828125 22.75 47.421875 24.246094 46.996094 25.835938 Z M 49.84375 27.746094 C 48.71875 27.746094 47.65625 27.746094 46.550781 27.746094 C 46.273438 28.71875 46 29.675781 45.71875 30.652344 C 44.832031 30.652344 43.972656 30.652344 43.074219 30.652344 C 44.28125 26.855469 45.484375 23.066406 46.699219 19.246094 C 47.8125 19.246094 48.929688 19.246094 50.105469 19.246094 C 51.214844 23.019531 52.324219 26.796875 53.4375 30.605469 C 52.953125 30.746094 52.511719 30.660156 52.078125 30.675781 C 51.65625 30.695312 51.238281 30.679688 50.75 30.679688 C 50.453125 29.714844 50.152344 28.75 49.84375 27.746094 "/>
<path style=" stroke:none;fill-rule:nonzero;fill:rgb(17.573547%,19.674683%,50.808716%);fill-opacity:1;" d="M 21.628906 30.644531 C 21.675781 27.566406 21.722656 24.515625 21.769531 21.402344 C 20.722656 21.363281 19.726562 21.40625 18.726562 21.375 C 18.726562 20.640625 18.726562 19.964844 18.726562 19.296875 C 19.199219 19.191406 26.726562 19.164062 27.503906 19.261719 C 27.503906 19.933594 27.503906 20.613281 27.503906 21.359375 C 26.988281 21.414062 26.46875 21.378906 25.957031 21.382812 C 25.441406 21.390625 24.921875 21.386719 24.339844 21.386719 C 24.304688 24.507812 24.265625 27.554688 24.230469 30.644531 C 23.371094 30.644531 22.554688 30.644531 21.628906 30.644531 "/>
<path style=" stroke:none;fill-rule:nonzero;fill:rgb(17.573547%,19.674683%,50.808716%);fill-opacity:1;" d="M 28.851562 19.242188 C 29.789062 19.242188 30.621094 19.242188 31.5 19.242188 C 31.433594 23.058594 31.367188 26.84375 31.304688 30.65625 C 30.441406 30.65625 29.644531 30.65625 28.777344 30.65625 C 28.671875 26.871094 28.96875 23.089844 28.851562 19.242188 "/>
<path style=" stroke:none;fill-rule:nonzero;fill:rgb(17.573547%,19.674683%,50.808716%);fill-opacity:1;" d="M 5.363281 30.652344 C 4.535156 30.652344 3.699219 30.652344 2.804688 30.652344 C 2.867188 26.859375 2.929688 23.078125 2.996094 19.222656 C 3.863281 19.199219 4.671875 19.210938 5.476562 19.210938 C 5.574219 19.921875 5.472656 29.976562 5.363281 30.652344 "/>
<path style=" stroke:none;fill-rule:nonzero;fill:rgb(17.573547%,19.674683%,50.808716%);fill-opacity:1;" d="M 32.292969 33.371094 C 32.515625 33.402344 32.707031 33.417969 32.890625 33.453125 C 33.066406 33.488281 33.175781 33.601562 33.171875 33.789062 C 33.171875 34.003906 33.03125 34.125 32.84375 34.164062 C 32.675781 34.199219 32.496094 34.171875 32.292969 34.171875 C 32.292969 33.902344 32.292969 33.675781 32.292969 33.371094 "/>
<path style=" stroke:none;fill-rule:nonzero;fill:rgb(17.573547%,19.674683%,50.808716%);fill-opacity:1;" d="M 25.738281 33.546875 C 25.839844 33.882812 25.941406 34.214844 26.050781 34.582031 C 25.8125 34.582031 25.621094 34.582031 25.359375 34.582031 C 25.460938 34.214844 25.546875 33.875 25.636719 33.539062 C 25.667969 33.542969 25.703125 33.542969 25.738281 33.546875 "/>
</g>
</svg>
