<?xml version="1.0" encoding="UTF-8"?>
<svg xmlns="http://www.w3.org/2000/svg" xmlns:xlink="http://www.w3.org/1999/xlink" width="56pt" height="56pt" viewBox="0 0 56 56" version="1.1">
<g id="surface1">
<rect x="0" y="0" width="56" height="56" style="fill:rgb(95.66803%,95.779419%,96.777344%);fill-opacity:1;stroke:none;"/>
<path style=" stroke:none;fill-rule:nonzero;fill:rgb(25.65155%,15.745544%,14.562988%);fill-opacity:1;" d="M 42.511719 9.867188 C 42.464844 9.847656 42.414062 9.816406 42.367188 9.816406 C 35.683594 9.8125 29.003906 9.8125 22.316406 9.8125 C 22.269531 9.8125 22.222656 9.8125 22.171875 9.8125 C 22.148438 9.066406 22.15625 8.359375 22.164062 7.601562 C 22.195312 7.582031 22.21875 7.554688 22.246094 7.550781 C 22.277344 7.539062 22.308594 7.546875 22.339844 7.546875 C 29.015625 7.546875 35.691406 7.546875 42.367188 7.546875 C 42.414062 7.546875 42.464844 7.527344 42.511719 7.519531 C 42.511719 8.300781 42.511719 9.085938 42.511719 9.867188 "/>
<path style=" stroke:none;fill-rule:nonzero;fill:rgb(25.65155%,15.745544%,14.562988%);fill-opacity:1;" d="M 26.914062 25.871094 C 28.527344 25.914062 30.03125 26.003906 31.511719 25.664062 C 32.367188 25.46875 33.011719 24.9375 33.4375 24.171875 C 33.644531 23.804688 33.820312 23.425781 33.976562 23.039062 C 34.722656 21.195312 35.292969 19.296875 35.5625 17.328125 C 35.671875 16.535156 35.699219 15.714844 35.640625 14.917969 C 35.574219 14.078125 35.15625 13.691406 34.316406 13.527344 C 32.988281 13.273438 31.65625 13.429688 30.285156 13.394531 C 29.160156 17.550781 28.058594 21.636719 26.914062 25.871094 Z M 22.832031 41.082031 C 24.40625 41.082031 25.851562 41.082031 27.296875 41.082031 C 29 41.082031 30.140625 40.242188 30.816406 38.71875 C 30.925781 38.464844 31.03125 38.207031 31.128906 37.941406 C 31.847656 35.914062 32.40625 33.84375 32.746094 31.71875 C 32.847656 31.085938 32.929688 30.441406 32.917969 29.804688 C 32.902344 28.582031 32.34375 27.902344 31.15625 27.578125 C 30.757812 27.46875 30.335938 27.398438 29.921875 27.386719 C 28.789062 27.359375 27.652344 27.378906 26.492188 27.378906 C 25.269531 31.953125 24.070312 36.449219 22.832031 41.082031 Z M 13.488281 41.882812 C 13.566406 41.648438 13.640625 41.414062 13.746094 41.097656 C 14.683594 41.097656 15.652344 41.097656 16.679688 41.097656 C 19.167969 31.863281 21.640625 22.691406 24.140625 13.410156 C 23.160156 13.410156 22.308594 13.410156 21.355469 13.410156 C 21.386719 12.894531 21.410156 12.46875 21.4375 12.007812 C 21.6875 11.976562 21.875 11.929688 22.0625 11.929688 C 25.777344 11.933594 29.488281 11.917969 33.203125 11.957031 C 34.855469 11.972656 36.488281 12.164062 38.066406 12.710938 C 40.570312 13.578125 41.804688 15.304688 41.785156 17.953125 C 41.757812 21.507812 39.691406 24.453125 36.328125 25.609375 C 35.410156 25.925781 34.429688 26.054688 33.480469 26.269531 C 33.285156 26.316406 33.089844 26.363281 32.894531 26.414062 C 32.890625 26.484375 32.886719 26.554688 32.882812 26.628906 C 33.101562 26.6875 33.324219 26.738281 33.535156 26.808594 C 34.40625 27.105469 35.316406 27.316406 36.128906 27.726562 C 37.574219 28.453125 38.554688 29.664062 38.828125 31.261719 C 39.449219 34.90625 38.59375 38.09375 35.582031 40.46875 C 33.859375 41.828125 31.816406 42.363281 29.660156 42.53125 C 29.183594 42.566406 28.710938 42.570312 28.234375 42.570312 C 23.460938 42.574219 18.683594 42.574219 13.90625 42.570312 C 13.769531 42.570312 13.628906 42.558594 13.488281 42.550781 C 13.488281 42.328125 13.488281 42.105469 13.488281 41.882812 "/>
<path style=" stroke:none;fill-rule:nonzero;fill:rgb(25.65155%,15.745544%,14.562988%);fill-opacity:1;" d="M 35.667969 46.277344 C 35.667969 46.976562 35.667969 47.636719 35.667969 48.296875 C 35.527344 48.480469 14.820312 48.5625 14.402344 48.375 C 14.402344 47.699219 14.402344 47.019531 14.402344 46.277344 C 21.484375 46.277344 28.566406 46.277344 35.667969 46.277344 "/>
</g>
</svg>
