<?xml version="1.0" encoding="UTF-8"?>
<svg xmlns="http://www.w3.org/2000/svg" xmlns:xlink="http://www.w3.org/1999/xlink" width="56pt" height="56pt" viewBox="0 0 56 56" version="1.1">
<g id="surface1">
<rect x="0" y="0" width="56" height="56" style="fill:rgb(95.66803%,95.779419%,96.777344%);fill-opacity:1;stroke:none;"/>
<path style=" stroke:none;fill-rule:nonzero;fill:rgb(83.732605%,11.791992%,14.657593%);fill-opacity:1;" d="M 31.066406 5.285156 C 31.148438 5.296875 31.234375 5.304688 31.316406 5.316406 C 31.316406 5.34375 31.316406 5.375 31.316406 5.40625 C 31.242188 5.417969 31.167969 5.429688 31.09375 5.441406 C 31.042969 5.386719 31.015625 5.421875 30.992188 5.472656 C 30.59375 5.542969 30.191406 5.617188 29.789062 5.691406 C 29.71875 5.703125 29.644531 5.710938 29.570312 5.710938 C 28.542969 5.707031 27.527344 5.8125 26.503906 5.898438 C 25.601562 5.972656 24.703125 6.058594 23.796875 6.109375 C 23.085938 6.152344 22.371094 6.15625 21.660156 6.160156 C 21.15625 6.164062 20.65625 6.101562 20.164062 5.980469 C 20.085938 5.960938 20.015625 5.929688 19.941406 5.902344 C 19.9375 5.886719 19.9375 5.871094 19.933594 5.851562 C 20.015625 5.808594 20.09375 5.753906 20.175781 5.71875 C 20.574219 5.570312 20.988281 5.488281 21.410156 5.433594 C 21.769531 5.386719 22.132812 5.359375 22.492188 5.324219 C 22.539062 5.320312 22.582031 5.316406 22.628906 5.3125 C 22.835938 5.304688 23.042969 5.292969 23.253906 5.28125 C 23.359375 5.324219 23.460938 5.335938 23.5625 5.265625 C 24.039062 5.253906 24.515625 5.238281 24.988281 5.226562 C 25.332031 5.230469 25.671875 5.230469 26.015625 5.230469 C 26.039062 5.242188 26.066406 5.261719 26.09375 5.261719 C 26.613281 5.25 27.132812 5.234375 27.65625 5.214844 C 27.671875 5.214844 27.691406 5.195312 27.707031 5.179688 C 28.359375 5.179688 29.015625 5.179688 29.667969 5.179688 C 29.84375 5.207031 30.019531 5.242188 30.199219 5.257812 C 30.300781 5.265625 30.40625 5.242188 30.515625 5.234375 C 30.664062 5.246094 30.8125 5.257812 30.960938 5.265625 C 30.996094 5.273438 31.03125 5.28125 31.066406 5.285156 "/>
<path style=" stroke:none;fill-rule:nonzero;fill:rgb(83.390808%,11.782837%,14.637756%);fill-opacity:1;" d="M 17.457031 50.820312 C 17.449219 50.804688 17.449219 50.785156 17.4375 50.78125 C 16.773438 50.605469 16.230469 50.230469 15.726562 49.78125 C 14.957031 49.085938 14.339844 48.277344 13.976562 47.292969 C 13.804688 46.832031 13.703125 46.355469 13.824219 45.855469 C 13.863281 45.691406 13.902344 45.527344 14.042969 45.363281 C 14.082031 45.449219 14.121094 45.515625 14.140625 45.585938 C 14.34375 46.238281 14.535156 46.890625 14.742188 47.539062 C 14.832031 47.820312 14.953125 48.09375 15.066406 48.363281 C 15.261719 48.832031 15.640625 49.113281 16.0625 49.34375 C 16.378906 49.519531 16.710938 49.667969 17.03125 49.84375 C 17.335938 50.011719 17.632812 50.1875 17.925781 50.378906 C 18.050781 50.460938 18.152344 50.585938 18.269531 50.695312 C 18.207031 50.75 18.167969 50.78125 18.125 50.820312 C 17.902344 50.820312 17.679688 50.820312 17.457031 50.820312 "/>
<path style=" stroke:none;fill-rule:nonzero;fill:rgb(84.605408%,11.772156%,14.665222%);fill-opacity:1;" d="M 26.941406 9.273438 C 26.894531 9.261719 26.867188 9.246094 26.839844 9.246094 C 26.195312 9.199219 25.550781 9.125 24.910156 9.117188 C 23.835938 9.109375 22.757812 9.128906 21.683594 9.160156 C 21.097656 9.175781 20.515625 9.226562 19.933594 9.296875 C 19.464844 9.355469 18.992188 9.425781 18.546875 9.59375 C 18.316406 9.683594 18.292969 9.707031 18.292969 9.945312 C 18.292969 10.015625 18.296875 10.082031 18.296875 10.148438 C 18.3125 10.546875 18.507812 10.832031 18.851562 11.023438 C 19.117188 11.167969 19.40625 11.226562 19.703125 11.242188 C 20.035156 11.257812 20.371094 11.253906 20.703125 11.253906 C 21.691406 11.25 22.675781 11.246094 23.664062 11.242188 C 24.40625 11.238281 25.148438 11.285156 25.882812 11.148438 C 26.398438 11.054688 26.894531 10.832031 26.980469 10.082031 C 27.011719 9.808594 27.027344 9.535156 26.941406 9.273438 Z M 26.550781 16.046875 C 26.148438 15.929688 25.773438 15.824219 25.375 15.828125 C 25.058594 15.832031 24.910156 16.042969 24.867188 16.265625 C 24.832031 16.429688 24.8125 16.601562 24.808594 16.769531 C 24.800781 17.253906 24.8125 17.734375 24.804688 18.21875 C 24.785156 19.46875 24.75 20.722656 24.738281 21.976562 C 24.722656 23.28125 24.726562 24.589844 24.71875 25.894531 C 24.71875 26.101562 24.691406 26.308594 24.691406 26.515625 C 24.695312 26.820312 24.695312 27.125 24.734375 27.421875 C 24.773438 27.734375 25.019531 27.933594 25.332031 27.953125 C 25.5 27.960938 25.671875 27.964844 25.84375 27.949219 C 26.117188 27.917969 26.351562 27.800781 26.519531 27.566406 C 26.699219 27.308594 26.765625 27.011719 26.765625 26.707031 C 26.761719 25.941406 26.742188 25.179688 26.722656 24.414062 C 26.71875 24.117188 26.703125 23.824219 26.691406 23.527344 C 26.660156 22.703125 26.621094 21.882812 26.605469 21.058594 C 26.578125 19.722656 26.566406 18.390625 26.550781 17.054688 C 26.546875 16.722656 26.550781 16.390625 26.550781 16.046875 Z M 20.199219 16.015625 C 19.871094 15.96875 19.566406 15.898438 19.257812 15.890625 C 18.789062 15.875 18.554688 16.027344 18.449219 16.503906 C 18.390625 16.753906 18.367188 17.019531 18.363281 17.277344 C 18.335938 18.46875 18.328125 19.664062 18.304688 20.859375 C 18.296875 21.34375 18.269531 21.824219 18.246094 22.304688 C 18.234375 22.574219 18.214844 22.839844 18.207031 23.105469 C 18.179688 23.847656 18.144531 24.589844 18.140625 25.328125 C 18.140625 25.800781 18.175781 26.277344 18.21875 26.75 C 18.25 27.101562 18.3125 27.453125 18.363281 27.800781 C 19.003906 28.011719 19.621094 28 20.242188 27.792969 C 20.265625 27.632812 20.296875 27.480469 20.304688 27.328125 C 20.351562 26.5 20.425781 25.671875 20.429688 24.839844 C 20.441406 23.105469 20.421875 21.367188 20.398438 19.628906 C 20.390625 18.800781 20.34375 17.96875 20.304688 17.140625 C 20.285156 16.777344 20.238281 16.417969 20.199219 16.015625 Z M 31.101562 29.824219 C 31.199219 29.871094 31.289062 29.917969 31.386719 29.960938 C 32.261719 30.34375 33.183594 30.363281 34.117188 30.300781 C 34.730469 30.261719 35.347656 30.21875 35.957031 30.332031 C 36.28125 30.390625 36.59375 30.515625 36.910156 30.625 C 36.972656 30.644531 37.046875 30.710938 37.0625 30.765625 C 37.15625 31.125 37.234375 31.492188 37.1875 31.863281 C 37.160156 32.070312 37.101562 32.273438 37.074219 32.476562 C 37.0625 32.582031 37.015625 32.640625 36.917969 32.667969 C 36.628906 32.746094 36.339844 32.84375 36.039062 32.902344 C 35.472656 33.011719 34.894531 33.019531 34.3125 33.03125 C 33.878906 33.035156 33.441406 33.054688 33.003906 33.089844 C 32.46875 33.132812 31.996094 33.320312 31.644531 33.753906 C 31.277344 34.203125 31.101562 34.71875 31.210938 35.285156 C 31.335938 35.957031 31.785156 36.351562 32.4375 36.515625 C 33.097656 36.675781 33.769531 36.589844 34.433594 36.585938 C 34.96875 36.582031 35.503906 36.550781 36.035156 36.570312 C 36.6875 36.589844 37.335938 36.640625 37.988281 36.609375 C 38.28125 36.59375 38.5625 36.539062 38.839844 36.460938 C 39.164062 36.367188 39.207031 36.308594 39.214844 35.972656 C 39.21875 35.863281 39.226562 35.75 39.207031 35.640625 C 39.183594 35.511719 39.152344 35.378906 39.089844 35.265625 C 38.949219 35.015625 38.699219 34.9375 38.429688 34.914062 C 38.046875 34.878906 37.671875 34.941406 37.304688 35.011719 C 36.597656 35.148438 35.898438 35.304688 35.183594 35.382812 C 34.542969 35.453125 33.90625 35.386719 33.277344 35.296875 C 33.132812 35.277344 33.054688 35.1875 33.050781 35.085938 C 33.042969 34.933594 33.160156 34.75 33.289062 34.734375 C 33.605469 34.699219 33.921875 34.660156 34.242188 34.652344 C 34.566406 34.644531 34.894531 34.6875 35.21875 34.683594 C 35.683594 34.679688 36.15625 34.679688 36.617188 34.636719 C 37.503906 34.546875 38.09375 34.027344 38.464844 33.246094 C 38.882812 32.363281 38.964844 31.445312 38.71875 30.496094 C 38.480469 29.574219 37.917969 28.964844 37.015625 28.65625 C 36.496094 28.484375 35.960938 28.414062 35.417969 28.410156 C 34.738281 28.40625 34.054688 28.441406 33.371094 28.457031 C 33.136719 28.460938 32.898438 28.453125 32.664062 28.457031 C 32.324219 28.464844 31.980469 28.460938 31.644531 28.492188 C 31.363281 28.519531 31.195312 28.695312 31.128906 28.972656 C 31.0625 29.253906 31.089844 29.53125 31.101562 29.824219 Z M 26.746094 12.515625 C 26.699219 12.5 26.671875 12.488281 26.644531 12.484375 C 26.164062 12.445312 25.683594 12.382812 25.207031 12.371094 C 24.351562 12.347656 23.496094 12.355469 22.644531 12.359375 C 21.703125 12.367188 20.761719 12.386719 19.820312 12.402344 C 19.429688 12.410156 19.054688 12.5 18.710938 12.683594 C 18.511719 12.792969 18.347656 12.941406 18.296875 13.179688 C 18.195312 13.664062 18.601562 14.242188 19.121094 14.316406 C 19.347656 14.347656 19.578125 14.359375 19.808594 14.355469 C 20.214844 14.355469 20.621094 14.328125 21.03125 14.324219 C 21.167969 14.324219 21.304688 14.355469 21.445312 14.371094 C 21.46875 14.476562 21.492188 14.554688 21.507812 14.632812 C 21.640625 15.277344 21.691406 15.925781 21.699219 16.578125 C 21.710938 17.828125 21.671875 19.070312 21.570312 20.316406 C 21.511719 21.015625 21.472656 21.71875 21.433594 22.421875 C 21.398438 23.15625 21.351562 23.890625 21.351562 24.625 C 21.347656 25.3125 21.386719 26.003906 21.433594 26.691406 C 21.453125 26.960938 21.539062 27.226562 21.601562 27.492188 C 21.613281 27.546875 21.632812 27.613281 21.675781 27.648438 C 21.921875 27.839844 22.183594 28.003906 22.515625 28.007812 C 22.84375 28.011719 23.136719 27.894531 23.441406 27.789062 C 23.46875 27.660156 23.496094 27.539062 23.511719 27.414062 C 23.625 26.589844 23.679688 25.761719 23.6875 24.929688 C 23.695312 23.320312 23.671875 21.707031 23.660156 20.097656 C 23.65625 19.414062 23.644531 18.730469 23.652344 18.046875 C 23.660156 17.023438 23.683594 16 23.707031 14.976562 C 23.707031 14.808594 23.742188 14.640625 23.761719 14.46875 C 24.085938 14.375 24.402344 14.359375 24.722656 14.351562 C 25.105469 14.34375 25.492188 14.335938 25.878906 14.316406 C 26.355469 14.292969 26.683594 14.011719 26.765625 13.589844 C 26.832031 13.234375 26.796875 12.882812 26.746094 12.515625 Z M 26.066406 41.867188 C 26.078125 41.921875 26.089844 41.949219 26.089844 41.976562 C 26.109375 42.355469 26.128906 42.734375 26.144531 43.109375 C 26.164062 43.667969 26.164062 44.222656 26.148438 44.777344 C 26.136719 45.355469 26.066406 45.929688 26.140625 46.511719 C 26.160156 46.675781 26.210938 46.816406 26.332031 46.917969 C 26.453125 47.015625 26.578125 47.117188 26.71875 47.171875 C 27.246094 47.375 27.773438 47.273438 28.019531 46.765625 C 28.117188 46.566406 28.164062 46.328125 28.183594 46.101562 C 28.234375 45.492188 28.140625 44.890625 28.089844 44.28125 C 28.066406 43.972656 28.027344 43.660156 28.035156 43.351562 C 28.039062 42.835938 28.09375 42.316406 28.097656 41.796875 C 28.117188 39.390625 28.160156 36.984375 28.074219 34.582031 C 28.046875 33.824219 28.019531 33.070312 27.980469 32.3125 C 27.941406 31.574219 27.890625 30.835938 27.75 30.105469 C 27.679688 29.746094 27.539062 29.425781 27.28125 29.160156 C 26.878906 28.742188 26.355469 28.660156 25.808594 28.6875 C 25.542969 28.699219 25.277344 28.75 25.019531 28.804688 C 24.53125 28.914062 24.164062 29.167969 23.996094 29.660156 C 23.960938 29.769531 23.914062 29.871094 23.882812 29.976562 C 23.703125 30.515625 23.648438 31.078125 23.617188 31.636719 C 23.558594 32.636719 23.523438 33.636719 23.480469 34.636719 C 23.460938 35.144531 23.449219 35.648438 23.441406 36.152344 C 23.425781 37.046875 23.402344 37.949219 23.398438 38.84375 C 23.398438 40.492188 23.402344 42.140625 23.425781 43.789062 C 23.4375 44.71875 23.492188 45.644531 23.519531 46.570312 C 23.527344 46.792969 23.613281 46.949219 23.832031 47.019531 C 23.921875 47.050781 24.011719 47.09375 24.105469 47.113281 C 24.476562 47.175781 24.824219 47.117188 25.046875 46.703125 C 25.222656 46.371094 25.289062 46.011719 25.285156 45.652344 C 25.28125 45 25.230469 44.347656 25.199219 43.699219 C 25.175781 43.214844 25.152344 42.734375 25.132812 42.253906 C 25.128906 42.148438 25.15625 42.039062 25.167969 41.921875 C 25.480469 41.902344 25.769531 41.882812 26.066406 41.867188 Z M 20.644531 41.878906 C 20.664062 41.945312 20.695312 42.007812 20.703125 42.070312 C 20.722656 42.289062 20.746094 42.511719 20.753906 42.734375 C 20.769531 43.253906 20.785156 43.773438 20.789062 44.292969 C 20.796875 44.878906 20.84375 45.460938 20.941406 46.039062 C 20.996094 46.347656 21.074219 46.648438 21.238281 46.917969 C 21.417969 47.21875 21.667969 47.386719 22.03125 47.332031 C 22.382812 47.285156 22.597656 47.078125 22.667969 46.742188 C 22.742188 46.394531 22.808594 46.042969 22.839844 45.695312 C 22.867188 45.316406 22.855469 44.933594 22.847656 44.558594 C 22.828125 43.546875 22.78125 42.539062 22.777344 41.53125 C 22.773438 40.871094 22.839844 40.214844 22.835938 39.554688 C 22.835938 37.289062 22.824219 35.023438 22.804688 32.761719 C 22.800781 31.929688 22.738281 31.101562 22.484375 30.300781 C 22.335938 29.828125 22.109375 29.394531 21.707031 29.082031 C 21.207031 28.695312 20.632812 28.65625 20.035156 28.742188 C 19.753906 28.78125 19.488281 28.871094 19.25 29.03125 C 18.757812 29.359375 18.507812 29.847656 18.359375 30.398438 C 18.199219 30.988281 18.136719 31.59375 18.128906 32.203125 C 18.109375 33.664062 18.101562 35.125 18.09375 36.585938 C 18.082031 37.980469 18.09375 39.378906 18 40.773438 C 17.953125 41.480469 17.898438 42.191406 17.875 42.902344 C 17.847656 43.886719 17.820312 44.875 17.996094 45.855469 C 18.0625 46.222656 18.152344 46.578125 18.386719 46.882812 C 18.566406 47.121094 18.828125 47.207031 19.113281 47.136719 C 19.425781 47.054688 19.570312 46.832031 19.644531 46.539062 C 19.785156 45.992188 19.722656 45.445312 19.671875 44.902344 C 19.613281 44.285156 19.570312 43.671875 19.597656 43.054688 C 19.609375 42.800781 19.667969 42.550781 19.792969 42.335938 C 19.972656 42.03125 20.253906 41.882812 20.644531 41.878906 Z M 33.601562 45.273438 C 33.652344 45.277344 33.695312 45.28125 33.734375 45.289062 C 34.234375 45.367188 34.320312 45.558594 34.304688 45.925781 C 34.304688 45.964844 34.308594 46 34.304688 46.039062 C 34.296875 46.3125 34.335938 46.582031 34.425781 46.847656 C 34.457031 46.941406 34.5 46.992188 34.59375 47.027344 C 35.066406 47.199219 35.503906 47.09375 35.925781 46.882812 C 35.976562 46.855469 36.019531 46.765625 36.027344 46.699219 C 36.066406 46.371094 36.105469 46.039062 36.121094 45.707031 C 36.152344 45.042969 36.132812 44.386719 36.042969 43.730469 C 35.984375 43.285156 35.902344 42.851562 35.71875 42.441406 C 35.566406 42.097656 35.324219 41.824219 34.960938 41.703125 C 34.71875 41.625 34.457031 41.566406 34.203125 41.5625 C 33.734375 41.554688 33.269531 41.597656 32.800781 41.625 C 32.355469 41.648438 31.910156 41.679688 31.476562 41.546875 C 31.246094 41.480469 31.039062 41.375 30.890625 41.164062 C 30.925781 41.136719 30.945312 41.113281 30.96875 41.101562 C 31.011719 41.085938 31.050781 41.074219 31.09375 41.058594 C 31.554688 40.929688 32.03125 40.902344 32.503906 40.890625 C 33.210938 40.871094 33.910156 40.925781 34.613281 41 C 35.097656 41.050781 35.582031 41.125 36.054688 41.242188 C 36.382812 41.328125 36.671875 41.464844 36.800781 41.808594 C 36.832031 41.902344 36.867188 41.992188 36.890625 42.085938 C 37.0625 42.785156 37.03125 43.5 37.003906 44.210938 C 36.976562 44.84375 36.964844 45.46875 37.023438 46.101562 C 37.046875 46.363281 37.101562 46.625 37.210938 46.875 C 37.246094 46.957031 37.292969 47.023438 37.402344 47.035156 C 37.523438 47.046875 37.644531 47.089844 37.769531 47.105469 C 38.125 47.144531 38.457031 47.046875 38.769531 46.921875 C 38.917969 46.3125 38.996094 45.71875 39.015625 45.121094 C 39.03125 44.527344 39.003906 43.933594 38.988281 43.339844 C 38.972656 42.789062 38.863281 42.253906 38.714844 41.722656 C 38.613281 41.355469 38.476562 41.007812 38.265625 40.6875 C 37.925781 40.167969 37.410156 39.90625 36.84375 39.71875 C 36.226562 39.515625 35.582031 39.449219 34.941406 39.425781 C 34.160156 39.402344 33.378906 39.425781 32.601562 39.425781 C 32.097656 39.421875 31.59375 39.414062 31.101562 39.277344 C 30.96875 39.242188 30.835938 39.214844 30.714844 39.078125 C 30.863281 39 30.988281 38.90625 31.125 38.871094 C 31.359375 38.808594 31.601562 38.761719 31.84375 38.75 C 32.117188 38.734375 32.390625 38.773438 32.664062 38.777344 C 33.257812 38.785156 33.851562 38.789062 34.445312 38.792969 C 34.863281 38.796875 35.277344 38.789062 35.695312 38.800781 C 36.398438 38.820312 37.101562 38.859375 37.804688 38.859375 C 38.152344 38.859375 38.496094 38.78125 38.816406 38.617188 C 39.28125 38.386719 39.496094 37.84375 39.40625 37.492188 C 39.121094 37.355469 38.800781 37.308594 38.488281 37.28125 C 37.785156 37.21875 37.082031 37.164062 36.378906 37.148438 C 35.324219 37.128906 34.269531 37.140625 33.214844 37.148438 C 32.710938 37.152344 32.207031 37.183594 31.703125 37.179688 C 31.34375 37.179688 30.996094 37.113281 30.6875 36.875 C 30.652344 35.464844 30.613281 34.050781 30.574219 32.640625 C 30.640625 32.621094 30.679688 32.601562 30.722656 32.597656 C 31.261719 32.550781 31.800781 32.488281 32.339844 32.46875 C 33.050781 32.449219 33.765625 32.457031 34.476562 32.460938 C 34.855469 32.464844 35.234375 32.492188 35.613281 32.488281 C 35.90625 32.484375 36.1875 32.421875 36.390625 32.175781 C 36.609375 31.917969 36.652344 31.605469 36.683594 31.273438 C 36.539062 31.222656 36.402344 31.164062 36.261719 31.125 C 35.570312 30.929688 34.859375 30.898438 34.148438 30.90625 C 33.949219 30.90625 33.746094 30.933594 33.546875 30.9375 C 32.910156 30.957031 32.273438 30.984375 31.636719 30.984375 C 31.378906 30.984375 31.121094 30.945312 30.875 30.839844 C 30.753906 30.789062 30.695312 30.707031 30.648438 30.589844 C 30.519531 30.261719 30.496094 29.914062 30.460938 29.570312 C 30.429688 29.289062 30.386719 29.011719 30.328125 28.738281 C 30.273438 28.511719 30.109375 28.359375 29.882812 28.316406 C 29.628906 28.273438 29.367188 28.28125 29.09375 28.382812 C 29.050781 28.558594 28.984375 28.742188 28.964844 28.929688 C 28.898438 29.558594 28.824219 30.183594 28.796875 30.8125 C 28.757812 31.628906 28.753906 32.445312 28.746094 33.261719 C 28.742188 33.667969 28.769531 34.074219 28.769531 34.484375 C 28.765625 35.609375 28.742188 36.738281 28.75 37.867188 C 28.753906 38.628906 28.78125 39.394531 28.832031 40.15625 C 28.871094 40.734375 28.992188 41.300781 29.222656 41.835938 C 29.476562 42.417969 29.878906 42.832031 30.503906 43.011719 C 30.855469 43.109375 31.21875 43.136719 31.582031 43.136719 C 32.070312 43.140625 32.558594 43.105469 33.050781 43.105469 C 33.421875 43.109375 33.789062 43.15625 34.128906 43.328125 C 34.164062 43.34375 34.195312 43.371094 34.238281 43.40625 C 34.074219 43.535156 33.902344 43.609375 33.722656 43.636719 C 33.328125 43.695312 32.929688 43.746094 32.53125 43.761719 C 31.90625 43.785156 31.28125 43.765625 30.660156 43.789062 C 30.304688 43.800781 29.953125 43.824219 29.609375 43.949219 C 29.25 44.074219 29.003906 44.300781 28.859375 44.65625 C 28.75 44.925781 28.675781 45.207031 28.65625 45.492188 C 28.625 46.011719 28.71875 46.507812 29.09375 46.894531 C 29.480469 47.292969 29.914062 47.324219 30.242188 46.90625 C 30.484375 46.597656 30.621094 46.238281 30.527344 45.824219 C 30.480469 45.632812 30.527344 45.546875 30.710938 45.476562 C 30.847656 45.421875 30.988281 45.378906 31.128906 45.328125 C 31.195312 45.375 31.261719 45.414062 31.316406 45.460938 C 31.46875 45.59375 31.570312 45.742188 31.503906 45.964844 C 31.414062 46.257812 31.453125 46.554688 31.5625 46.835938 C 31.589844 46.90625 31.652344 46.992188 31.714844 47.007812 C 32.050781 47.09375 32.394531 47.164062 32.746094 47.125 C 33.042969 47.089844 33.269531 46.941406 33.339844 46.636719 C 33.398438 46.371094 33.421875 46.097656 33.460938 45.828125 C 33.484375 45.636719 33.488281 45.441406 33.601562 45.273438 Z M 27.984375 23.90625 C 28.046875 23.917969 28.089844 23.929688 28.132812 23.933594 C 28.984375 23.964844 29.835938 23.992188 30.6875 24.019531 C 31.269531 24.039062 31.84375 24.054688 32.421875 24.074219 C 32.457031 24.078125 32.492188 24.09375 32.507812 24.097656 C 32.507812 24.726562 32.523438 25.34375 32.503906 25.960938 C 32.488281 26.328125 32.464844 27.632812 32.503906 27.792969 C 32.898438 27.941406 33.300781 28.027344 33.722656 28.007812 C 34.261719 27.984375 34.546875 27.714844 34.621094 27.183594 C 34.699219 26.65625 34.613281 26.132812 34.601562 25.609375 C 34.589844 25.164062 34.546875 24.722656 34.523438 24.277344 C 34.515625 24.199219 34.519531 24.121094 34.519531 24.011719 C 35.929688 24.035156 37.316406 24.054688 38.695312 24.078125 C 38.878906 23.648438 39.019531 23.238281 38.988281 22.785156 C 38.964844 22.480469 38.8125 22.261719 38.546875 22.109375 C 38.246094 21.9375 37.910156 21.898438 37.582031 21.90625 C 37.054688 21.917969 36.53125 21.980469 36.007812 22.015625 C 35.714844 22.035156 35.414062 22.0625 35.121094 22.046875 C 34.867188 22.039062 34.808594 21.96875 34.746094 21.714844 C 34.609375 21.15625 34.609375 20.585938 34.632812 20.011719 C 34.632812 19.941406 34.660156 19.871094 34.675781 19.808594 C 35.210938 19.699219 35.726562 19.785156 36.242188 19.808594 C 36.738281 19.832031 37.234375 19.875 37.730469 19.882812 C 37.949219 19.886719 38.175781 19.84375 38.386719 19.785156 C 38.710938 19.691406 38.949219 19.488281 39.027344 19.140625 C 39.09375 18.855469 39.078125 18.570312 38.992188 18.285156 C 38.925781 18.050781 38.78125 17.894531 38.550781 17.835938 C 38.40625 17.800781 38.257812 17.792969 38.109375 17.792969 C 37.359375 17.792969 36.609375 17.808594 35.859375 17.804688 C 35.503906 17.800781 35.148438 17.769531 34.792969 17.746094 C 34.738281 17.742188 34.683594 17.710938 34.632812 17.695312 C 34.632812 17.027344 34.632812 16.375 34.632812 15.707031 C 34.726562 15.703125 34.816406 15.695312 34.902344 15.695312 C 35.378906 15.710938 35.851562 15.730469 36.324219 15.746094 C 36.46875 15.75 36.609375 15.746094 36.746094 15.753906 C 37.230469 15.789062 37.710938 15.757812 38.179688 15.652344 C 38.507812 15.582031 38.8125 15.453125 38.964844 15.128906 C 39.058594 14.929688 39.125 14.714844 39.175781 14.5 C 39.28125 14.058594 39.09375 13.769531 38.640625 13.699219 C 38.3125 13.648438 37.976562 13.632812 37.648438 13.601562 C 37.40625 13.574219 37.15625 13.558594 36.921875 13.511719 C 36.507812 13.421875 36.179688 13.207031 36.105469 12.765625 C 36.039062 12.402344 36.078125 12.039062 36.199219 11.6875 C 36.25 11.546875 36.332031 11.433594 36.472656 11.378906 C 36.617188 11.328125 36.765625 11.269531 36.917969 11.253906 C 37.367188 11.207031 37.820312 11.179688 38.269531 11.140625 C 38.488281 11.121094 38.707031 11.097656 38.925781 11.074219 C 39.003906 10.667969 39.011719 10.296875 38.898438 9.925781 C 38.78125 9.566406 38.546875 9.335938 38.183594 9.226562 C 37.863281 9.132812 37.535156 9.121094 37.210938 9.175781 C 36.710938 9.257812 36.207031 9.359375 35.714844 9.480469 C 34.914062 9.675781 34.414062 10.171875 34.300781 11.003906 C 34.242188 11.453125 34.214844 11.902344 34.171875 12.351562 C 34.128906 12.777344 34.105469 13.207031 33.96875 13.640625 C 33.578125 13.628906 33.1875 13.710938 32.785156 13.691406 C 32.785156 13.589844 32.785156 13.515625 32.78125 13.441406 C 32.769531 12.839844 32.765625 12.238281 32.738281 11.640625 C 32.71875 11.214844 32.640625 10.800781 32.476562 10.40625 C 32.304688 10.003906 32.023438 9.714844 31.617188 9.550781 C 31.289062 9.421875 30.945312 9.367188 30.59375 9.371094 C 29.933594 9.375 29.277344 9.402344 28.617188 9.425781 C 28.476562 9.429688 28.339844 9.460938 28.175781 9.480469 C 28.175781 9.945312 28.175781 10.40625 28.175781 10.875 C 28.277344 10.894531 28.371094 10.917969 28.464844 10.929688 C 28.953125 10.976562 29.441406 11.011719 29.925781 11.074219 C 30.121094 11.097656 30.320312 11.15625 30.496094 11.238281 C 30.785156 11.382812 30.902344 11.660156 30.957031 11.960938 C 31.0625 12.515625 31.007812 13.070312 31.003906 13.621094 C 30.964844 13.644531 30.941406 13.660156 30.914062 13.671875 C 30.871094 13.683594 30.828125 13.691406 30.78125 13.703125 C 30.386719 13.796875 29.988281 13.761719 29.589844 13.722656 C 29.269531 13.691406 28.945312 13.640625 28.617188 13.6875 C 28.335938 13.730469 28.136719 13.894531 28.066406 14.164062 C 28 14.421875 28.035156 14.679688 28.03125 14.9375 C 28.03125 15.253906 28.210938 15.324219 28.457031 15.382812 C 29.117188 15.546875 29.789062 15.582031 30.464844 15.601562 C 31.074219 15.617188 31.679688 15.609375 32.289062 15.617188 C 32.378906 15.617188 32.464844 15.628906 32.558594 15.636719 C 32.558594 16.394531 32.558594 17.132812 32.558594 17.886719 C 32.464844 17.902344 32.386719 17.925781 32.304688 17.925781 C 31.914062 17.933594 31.519531 17.953125 31.128906 17.9375 C 30.589844 17.910156 30.050781 17.851562 29.511719 17.816406 C 29.230469 17.796875 28.949219 17.785156 28.667969 17.800781 C 28.320312 17.820312 28.105469 17.988281 28.03125 18.324219 C 27.984375 18.542969 27.980469 18.78125 28.007812 19.003906 C 28.066406 19.46875 28.300781 19.664062 28.804688 19.710938 C 29.160156 19.742188 29.519531 19.738281 29.871094 19.761719 C 30.671875 19.808594 31.472656 19.824219 32.273438 19.753906 C 32.308594 19.753906 32.34375 19.761719 32.390625 19.769531 C 32.402344 19.847656 32.417969 19.921875 32.417969 19.996094 C 32.429688 20.296875 32.449219 20.601562 32.4375 20.90625 C 32.429688 21.121094 32.398438 21.335938 32.34375 21.542969 C 32.253906 21.859375 32.050781 22.097656 31.714844 22.167969 C 31.515625 22.210938 31.304688 22.246094 31.101562 22.230469 C 30.769531 22.207031 30.441406 22.140625 30.113281 22.082031 C 29.71875 22.007812 29.324219 21.949219 28.917969 21.988281 C 28.554688 22.023438 28.261719 22.191406 28.117188 22.535156 C 27.9375 22.96875 27.894531 23.421875 27.984375 23.90625 Z M 16.214844 18.53125 C 16.117188 18.40625 16.027344 18.289062 15.933594 18.175781 C 15.5625 17.714844 15.457031 17.207031 15.625 16.632812 C 15.785156 16.101562 15.832031 15.554688 15.792969 15 C 15.765625 14.601562 15.734375 14.199219 15.53125 13.839844 C 15.300781 13.433594 15.316406 13.015625 15.457031 12.59375 C 15.613281 12.132812 15.78125 11.671875 15.945312 11.210938 C 15.960938 11.160156 15.976562 11.113281 15.996094 11.058594 C 15.710938 10.9375 15.746094 10.65625 15.667969 10.398438 C 15.984375 10.269531 16.296875 10.144531 16.578125 10.027344 C 16.578125 9.773438 16.570312 9.542969 16.582031 9.316406 C 16.601562 8.8125 16.761719 8.367188 17.144531 8.027344 C 17.398438 7.796875 17.707031 7.667969 18.035156 7.589844 C 18.46875 7.484375 18.914062 7.445312 19.359375 7.476562 C 19.835938 7.511719 20.304688 7.585938 20.777344 7.621094 C 21.050781 7.644531 21.328125 7.652344 21.601562 7.625 C 22.359375 7.546875 23.117188 7.449219 23.878906 7.355469 C 24.449219 7.285156 25.023438 7.207031 25.597656 7.140625 C 26.054688 7.09375 26.515625 7.054688 26.972656 7.019531 C 27.464844 6.976562 27.949219 7.066406 28.433594 7.113281 C 29.152344 7.183594 29.863281 7.289062 30.589844 7.242188 C 30.734375 7.234375 30.882812 7.199219 31.023438 7.164062 C 31.421875 7.0625 31.824219 7.011719 32.234375 7.039062 C 32.917969 7.082031 33.597656 7.097656 34.28125 7.148438 C 35.453125 7.238281 36.613281 7.390625 37.71875 7.824219 C 38.265625 8.039062 38.773438 8.328125 39.195312 8.753906 C 39.734375 9.296875 40.046875 9.949219 40.152344 10.710938 C 40.242188 11.359375 40.175781 12.003906 40.113281 12.644531 C 40.039062 13.46875 40.054688 14.289062 40.242188 15.097656 C 40.328125 15.46875 40.421875 15.835938 40.519531 16.199219 C 40.667969 16.746094 40.65625 17.300781 40.601562 17.855469 C 40.554688 18.3125 40.492188 18.769531 40.457031 19.226562 C 40.417969 19.773438 40.496094 20.308594 40.601562 20.84375 C 40.746094 21.59375 40.800781 22.339844 40.679688 23.097656 C 40.601562 23.609375 40.386719 24.058594 40.085938 24.472656 C 39.863281 24.769531 39.625 25.054688 39.414062 25.359375 C 39.292969 25.535156 39.171875 25.722656 39.113281 25.921875 C 39.011719 26.273438 39.152344 26.578125 39.390625 26.839844 C 39.566406 27.039062 39.757812 27.226562 39.945312 27.414062 C 40.304688 27.773438 40.625 28.160156 40.859375 28.613281 C 41.015625 28.921875 41.109375 29.238281 41.132812 29.589844 C 41.199219 30.605469 41.183594 31.625 41.152344 32.640625 C 41.128906 33.53125 41.082031 34.417969 41.035156 35.308594 C 41.019531 35.605469 40.972656 35.898438 40.960938 36.195312 C 40.949219 36.457031 40.9375 36.71875 40.972656 36.972656 C 41.0625 37.640625 41.03125 38.292969 40.796875 38.925781 C 40.601562 39.46875 40.578125 40.027344 40.597656 40.59375 C 40.605469 40.800781 40.621094 41.007812 40.628906 41.214844 C 40.644531 42.222656 40.679688 43.234375 40.664062 44.242188 C 40.65625 45.058594 40.570312 45.875 40.320312 46.65625 C 40.210938 46.988281 40.078125 47.3125 39.914062 47.617188 C 39.679688 48.058594 39.332031 48.394531 38.878906 48.625 C 38.445312 48.851562 38.019531 49.085938 37.59375 49.332031 C 37.261719 49.527344 36.957031 49.597656 36.589844 49.371094 C 36.230469 49.152344 35.824219 49.019531 35.445312 48.832031 C 35.097656 48.664062 34.746094 48.660156 34.382812 48.75 C 33.769531 48.898438 33.15625 49.039062 32.542969 49.1875 C 32.136719 49.28125 31.722656 49.304688 31.304688 49.277344 C 31.003906 49.257812 30.699219 49.230469 30.394531 49.226562 C 29.851562 49.21875 29.332031 49.339844 28.84375 49.5625 C 28.523438 49.707031 28.191406 49.769531 27.847656 49.757812 C 27.269531 49.730469 26.691406 49.695312 26.113281 49.667969 C 25.371094 49.636719 24.628906 49.609375 23.886719 49.570312 C 22.792969 49.515625 21.695312 49.460938 20.597656 49.382812 C 19.835938 49.328125 19.078125 49.25 18.320312 49.15625 C 17.878906 49.101562 17.441406 49.011719 17.046875 48.78125 C 16.597656 48.523438 16.398438 48.132812 16.460938 47.628906 C 16.503906 47.269531 16.589844 46.914062 16.679688 46.5625 C 16.792969 46.125 16.925781 45.691406 16.945312 45.238281 C 16.964844 44.859375 16.910156 44.492188 16.710938 44.167969 C 16.484375 43.796875 16.355469 43.398438 16.296875 42.980469 C 16.199219 42.265625 16.117188 41.550781 16.03125 40.835938 C 15.976562 40.363281 15.921875 39.894531 15.871094 39.421875 C 15.824219 38.984375 15.769531 38.550781 15.738281 38.113281 C 15.683594 37.324219 15.632812 36.53125 15.601562 35.738281 C 15.5625 34.824219 15.664062 33.914062 15.78125 33.007812 C 15.875 32.265625 15.933594 31.519531 15.996094 30.773438 C 16.085938 29.703125 15.992188 28.636719 15.867188 27.574219 C 15.777344 26.804688 15.792969 26.035156 15.933594 25.269531 C 16.070312 24.53125 16.167969 23.789062 16.085938 23.035156 C 16.027344 22.488281 15.953125 21.945312 15.878906 21.402344 C 15.792969 20.816406 15.703125 20.226562 15.613281 19.644531 C 15.59375 19.507812 15.617188 19.40625 15.734375 19.3125 C 15.953125 19.136719 16.050781 18.960938 16.214844 18.53125 "/>
<path style=" stroke:none;fill-rule:nonzero;fill:rgb(83.760071%,11.79657%,14.663696%);fill-opacity:1;" d="M 42.351562 28.523438 C 42.09375 27.992188 41.972656 27.503906 42 26.957031 C 42.039062 26.199219 41.996094 25.441406 41.988281 24.683594 C 41.980469 23.652344 41.972656 22.621094 41.964844 21.589844 C 41.960938 21.34375 41.976562 21.09375 41.9375 20.855469 C 41.886719 20.550781 41.792969 20.253906 41.714844 19.953125 C 41.683594 19.832031 41.644531 19.710938 41.597656 19.59375 C 41.355469 18.988281 41.398438 18.371094 41.511719 17.753906 C 41.613281 17.207031 41.726562 16.660156 41.820312 16.113281 C 41.925781 15.472656 41.867188 14.839844 41.699219 14.21875 C 41.621094 13.949219 41.535156 13.679688 41.457031 13.410156 C 41.390625 13.195312 41.398438 13 41.503906 12.789062 C 41.675781 12.445312 41.746094 12.070312 41.671875 11.6875 C 41.644531 11.535156 41.59375 11.386719 41.53125 11.242188 C 41.382812 10.910156 41.3125 10.570312 41.347656 10.207031 C 41.371094 9.933594 41.390625 9.65625 41.394531 9.382812 C 41.410156 8.441406 40.960938 7.773438 40.160156 7.320312 C 39.53125 6.960938 38.839844 6.761719 38.140625 6.597656 C 37.292969 6.402344 36.445312 6.222656 35.597656 6.03125 C 35.277344 5.957031 34.957031 5.863281 34.632812 5.699219 C 34.691406 5.664062 34.722656 5.640625 34.757812 5.628906 C 35.261719 5.445312 35.78125 5.492188 36.296875 5.523438 C 36.714844 5.550781 37.128906 5.570312 37.542969 5.609375 C 38.246094 5.683594 38.9375 5.816406 39.570312 6.15625 C 39.800781 6.28125 40.03125 6.429688 40.238281 6.59375 C 40.695312 6.949219 41.09375 7.367188 41.46875 7.8125 C 42.035156 8.484375 42.289062 9.261719 42.277344 10.132812 C 42.273438 10.578125 42.273438 11.023438 42.269531 11.46875 C 42.265625 12.128906 42.320312 12.785156 42.390625 13.445312 C 42.476562 14.242188 42.480469 15.042969 42.460938 15.847656 C 42.445312 16.394531 42.425781 16.945312 42.414062 17.492188 C 42.394531 18.558594 42.492188 19.613281 42.707031 20.65625 C 42.785156 21.039062 42.789062 21.421875 42.742188 21.808594 C 42.65625 22.535156 42.582031 23.265625 42.507812 23.996094 C 42.457031 24.527344 42.527344 25.050781 42.566406 25.574219 C 42.609375 26.1875 42.699219 26.800781 42.636719 27.417969 C 42.605469 27.703125 42.53125 27.984375 42.46875 28.265625 C 42.453125 28.339844 42.402344 28.410156 42.351562 28.523438 "/>
<path style=" stroke:none;fill-rule:nonzero;fill:rgb(83.732605%,11.791992%,14.657593%);fill-opacity:1;" d="M 33.480469 50.503906 C 33.441406 50.382812 33.40625 50.277344 33.367188 50.148438 C 33.445312 50.136719 33.507812 50.128906 33.570312 50.125 C 34.199219 50.105469 34.832031 50.101562 35.460938 50.066406 C 36.628906 50.003906 37.78125 49.867188 38.890625 49.476562 C 39.316406 49.328125 39.734375 49.152344 40.136719 48.953125 C 40.894531 48.582031 41.289062 47.9375 41.4375 47.121094 C 41.5625 46.417969 41.585938 45.707031 41.613281 44.996094 C 41.65625 43.984375 41.707031 42.976562 41.726562 41.96875 C 41.746094 40.980469 41.753906 39.996094 41.734375 39.007812 C 41.722656 38.492188 41.640625 37.972656 41.59375 37.457031 C 41.523438 36.667969 41.441406 35.875 41.5625 35.082031 C 41.613281 34.726562 41.699219 34.382812 41.917969 34.089844 C 41.964844 34.027344 42.019531 33.96875 42.082031 33.898438 C 42.191406 34.039062 42.203125 34.1875 42.226562 34.332031 C 42.382812 35.1875 42.457031 36.050781 42.496094 36.917969 C 42.542969 38 42.585938 39.085938 42.597656 40.167969 C 42.609375 41.265625 42.605469 42.363281 42.574219 43.464844 C 42.546875 44.285156 42.476562 45.105469 42.398438 45.925781 C 42.34375 46.515625 42.132812 47.066406 41.855469 47.585938 C 41.460938 48.324219 40.964844 48.984375 40.347656 49.554688 C 39.863281 50.003906 39.304688 50.269531 38.65625 50.382812 C 37.386719 50.605469 36.105469 50.65625 34.820312 50.601562 C 34.429688 50.585938 34.035156 50.5625 33.644531 50.542969 C 33.59375 50.539062 33.542969 50.519531 33.480469 50.503906 "/>
<path style=" stroke:none;fill-rule:nonzero;fill:rgb(84.172058%,11.801147%,14.682007%);fill-opacity:1;" d="M 13.949219 42.496094 C 13.570312 42.136719 13.414062 41.734375 13.332031 41.296875 C 13.222656 40.71875 13.199219 40.132812 13.261719 39.546875 C 13.359375 38.632812 13.480469 37.71875 13.566406 36.804688 C 13.664062 35.730469 13.714844 34.65625 13.65625 33.582031 C 13.632812 33.164062 13.578125 32.753906 13.542969 32.339844 C 13.496094 31.835938 13.507812 31.332031 13.625 30.835938 C 13.722656 30.421875 13.75 30 13.722656 29.574219 C 13.863281 29.511719 13.988281 29.515625 14.117188 29.566406 C 14.496094 29.707031 14.496094 29.707031 14.460938 30.101562 C 14.445312 30.234375 14.425781 30.367188 14.398438 30.496094 C 14.328125 30.8125 14.335938 31.128906 14.386719 31.445312 C 14.542969 32.375 14.707031 33.300781 14.847656 34.234375 C 14.949219 34.871094 14.964844 35.519531 14.898438 36.164062 C 14.800781 37.09375 14.589844 38.003906 14.40625 38.921875 C 14.300781 39.425781 14.261719 39.949219 14.203125 40.464844 C 14.148438 40.976562 14.117188 41.496094 14.0625 42.015625 C 14.046875 42.164062 13.992188 42.308594 13.949219 42.496094 "/>
<path style=" stroke:none;fill-rule:nonzero;fill:rgb(84.176636%,11.801147%,14.682007%);fill-opacity:1;" d="M 14.078125 12.210938 C 13.867188 12.253906 13.777344 12.152344 13.71875 11.996094 C 13.59375 11.671875 13.554688 11.335938 13.550781 10.992188 C 13.539062 10.179688 13.652344 9.382812 13.949219 8.621094 C 14.042969 8.382812 14.160156 8.15625 14.359375 7.992188 C 14.761719 7.65625 15.066406 7.234375 15.371094 6.816406 C 15.535156 6.585938 15.726562 6.378906 15.976562 6.238281 C 16.359375 6.03125 16.753906 6.042969 17.1875 6.179688 C 17.082031 6.292969 16.996094 6.386719 16.914062 6.476562 C 16.609375 6.8125 16.300781 7.140625 16.007812 7.484375 C 15.765625 7.761719 15.476562 7.980469 15.179688 8.191406 C 14.671875 8.546875 14.394531 9.042969 14.253906 9.632812 C 14.109375 10.25 14.097656 10.882812 14.082031 11.511719 C 14.074219 11.746094 14.078125 11.980469 14.078125 12.210938 "/>
<path style=" stroke:none;fill-rule:nonzero;fill:rgb(83.958435%,11.819458%,14.694214%);fill-opacity:1;" d="M 14.066406 20.417969 C 14.019531 20.359375 13.957031 20.304688 13.925781 20.234375 C 13.792969 19.910156 13.753906 19.566406 13.710938 19.21875 C 13.628906 18.554688 13.621094 17.886719 13.644531 17.222656 C 13.667969 16.386719 13.71875 15.550781 13.761719 14.671875 C 13.945312 14.828125 13.941406 15.03125 14.054688 15.167969 C 14.058594 15.242188 14.070312 15.316406 14.070312 15.390625 C 14.070312 16.027344 14.070312 16.664062 14.066406 17.304688 C 14.066406 18.34375 14.066406 19.378906 14.066406 20.417969 "/>
<path style=" stroke:none;fill-rule:nonzero;fill:rgb(83.389282%,11.78894%,14.642334%);fill-opacity:1;" d="M 40.910156 26.832031 C 40.828125 26.84375 40.769531 26.847656 40.714844 26.855469 C 40.355469 26.707031 40.148438 25.488281 40.390625 24.929688 C 40.722656 25.082031 40.929688 25.335938 40.988281 25.695312 C 41.054688 26.074219 40.992188 26.449219 40.910156 26.832031 "/>
<path style=" stroke:none;fill-rule:nonzero;fill:rgb(84.60083%,11.776733%,14.671326%);fill-opacity:1;" d="M 30.003906 50.519531 C 30.390625 49.894531 31.023438 49.816406 31.609375 50.308594 C 31.226562 50.675781 30.488281 50.804688 30.003906 50.519531 "/>
<path style=" stroke:none;fill-rule:nonzero;fill:rgb(87.438965%,29.824829%,40.348816%);fill-opacity:1;" d="M 22.628906 5.3125 C 22.582031 5.316406 22.539062 5.320312 22.492188 5.324219 C 22.539062 5.320312 22.582031 5.316406 22.628906 5.3125 "/>
<path style=" stroke:none;fill-rule:nonzero;fill:rgb(87.599182%,33.239746%,43.39447%);fill-opacity:1;" d="M 31.066406 5.285156 C 31.03125 5.28125 30.996094 5.273438 30.960938 5.265625 C 30.996094 5.273438 31.03125 5.28125 31.066406 5.285156 "/>
<path style=" stroke:none;fill-rule:nonzero;fill:rgb(87.599182%,33.239746%,43.39447%);fill-opacity:1;" d="M 30.992188 5.472656 C 31.015625 5.421875 31.042969 5.386719 31.09375 5.441406 C 31.0625 5.453125 31.027344 5.460938 30.992188 5.472656 "/>
<path style=" stroke:none;fill-rule:nonzero;fill:rgb(96.882629%,88.284302%,1.972961%);fill-opacity:1;" d="M 27.984375 23.90625 C 27.894531 23.421875 27.9375 22.96875 28.117188 22.535156 C 28.261719 22.191406 28.554688 22.023438 28.917969 21.988281 C 29.324219 21.949219 29.71875 22.007812 30.113281 22.082031 C 30.441406 22.140625 30.769531 22.207031 31.101562 22.230469 C 31.304688 22.246094 31.515625 22.210938 31.714844 22.167969 C 32.050781 22.097656 32.253906 21.859375 32.34375 21.542969 C 32.398438 21.335938 32.429688 21.121094 32.4375 20.90625 C 32.449219 20.601562 32.429688 20.296875 32.417969 19.996094 C 32.417969 19.921875 32.402344 19.847656 32.390625 19.769531 C 32.34375 19.761719 32.308594 19.753906 32.273438 19.753906 C 31.472656 19.824219 30.671875 19.808594 29.871094 19.761719 C 29.519531 19.738281 29.160156 19.742188 28.804688 19.710938 C 28.300781 19.664062 28.066406 19.46875 28.007812 19.003906 C 27.980469 18.78125 27.984375 18.542969 28.03125 18.324219 C 28.105469 17.988281 28.320312 17.820312 28.667969 17.800781 C 28.949219 17.785156 29.230469 17.796875 29.511719 17.816406 C 30.050781 17.851562 30.589844 17.910156 31.128906 17.9375 C 31.519531 17.953125 31.914062 17.933594 32.304688 17.925781 C 32.386719 17.925781 32.464844 17.902344 32.558594 17.886719 C 32.558594 17.132812 32.558594 16.394531 32.558594 15.636719 C 32.464844 15.628906 32.378906 15.617188 32.289062 15.617188 C 31.679688 15.609375 31.074219 15.617188 30.464844 15.601562 C 29.789062 15.582031 29.117188 15.546875 28.457031 15.382812 C 28.210938 15.324219 28.03125 15.253906 28.03125 14.9375 C 28.035156 14.679688 28 14.421875 28.066406 14.164062 C 28.136719 13.894531 28.335938 13.730469 28.617188 13.6875 C 28.945312 13.640625 29.269531 13.691406 29.589844 13.722656 C 29.988281 13.761719 30.386719 13.796875 30.78125 13.703125 C 30.828125 13.691406 30.871094 13.683594 30.914062 13.671875 C 30.941406 13.660156 30.964844 13.644531 31.003906 13.621094 C 31.007812 13.070312 31.0625 12.515625 30.957031 11.960938 C 30.902344 11.660156 30.785156 11.382812 30.496094 11.238281 C 30.320312 11.15625 30.121094 11.097656 29.925781 11.074219 C 29.441406 11.011719 28.953125 10.976562 28.464844 10.929688 C 28.371094 10.917969 28.277344 10.894531 28.175781 10.875 C 28.175781 10.40625 28.175781 9.945312 28.175781 9.480469 C 28.339844 9.460938 28.476562 9.429688 28.617188 9.425781 C 29.277344 9.402344 29.933594 9.375 30.59375 9.371094 C 30.945312 9.367188 31.289062 9.421875 31.617188 9.550781 C 32.023438 9.714844 32.304688 10.003906 32.476562 10.40625 C 32.640625 10.800781 32.71875 11.214844 32.738281 11.640625 C 32.765625 12.238281 32.769531 12.839844 32.78125 13.441406 C 32.785156 13.515625 32.785156 13.589844 32.785156 13.691406 C 33.1875 13.710938 33.578125 13.628906 33.96875 13.640625 C 34.105469 13.207031 34.128906 12.777344 34.171875 12.351562 C 34.214844 11.902344 34.242188 11.453125 34.300781 11.003906 C 34.414062 10.171875 34.914062 9.675781 35.714844 9.480469 C 36.207031 9.359375 36.710938 9.257812 37.210938 9.175781 C 37.535156 9.121094 37.863281 9.132812 38.183594 9.226562 C 38.546875 9.335938 38.78125 9.566406 38.898438 9.925781 C 39.011719 10.296875 39.003906 10.667969 38.925781 11.074219 C 38.707031 11.097656 38.488281 11.121094 38.269531 11.140625 C 37.820312 11.179688 37.367188 11.207031 36.917969 11.253906 C 36.765625 11.269531 36.617188 11.328125 36.472656 11.378906 C 36.332031 11.433594 36.25 11.546875 36.199219 11.6875 C 36.078125 12.039062 36.039062 12.402344 36.105469 12.765625 C 36.179688 13.207031 36.507812 13.421875 36.921875 13.511719 C 37.15625 13.558594 37.40625 13.574219 37.648438 13.601562 C 37.976562 13.632812 38.3125 13.648438 38.640625 13.699219 C 39.09375 13.769531 39.28125 14.058594 39.175781 14.5 C 39.125 14.714844 39.058594 14.929688 38.964844 15.128906 C 38.8125 15.453125 38.507812 15.582031 38.179688 15.652344 C 37.710938 15.757812 37.230469 15.789062 36.746094 15.753906 C 36.609375 15.746094 36.46875 15.75 36.324219 15.746094 C 35.851562 15.730469 35.378906 15.710938 34.902344 15.695312 C 34.816406 15.695312 34.726562 15.703125 34.632812 15.707031 C 34.632812 16.375 34.632812 17.027344 34.632812 17.695312 C 34.683594 17.710938 34.738281 17.742188 34.792969 17.746094 C 35.148438 17.769531 35.503906 17.800781 35.859375 17.804688 C 36.609375 17.808594 37.359375 17.792969 38.109375 17.792969 C 38.257812 17.792969 38.40625 17.800781 38.550781 17.835938 C 38.78125 17.894531 38.925781 18.050781 38.992188 18.285156 C 39.078125 18.570312 39.09375 18.855469 39.027344 19.140625 C 38.949219 19.488281 38.710938 19.691406 38.386719 19.785156 C 38.175781 19.84375 37.949219 19.886719 37.730469 19.882812 C 37.234375 19.875 36.738281 19.832031 36.242188 19.808594 C 35.726562 19.785156 35.210938 19.699219 34.675781 19.808594 C 34.660156 19.871094 34.632812 19.941406 34.632812 20.011719 C 34.609375 20.585938 34.609375 21.15625 34.746094 21.714844 C 34.808594 21.96875 34.867188 22.039062 35.121094 22.046875 C 35.414062 22.0625 35.714844 22.035156 36.007812 22.015625 C 36.53125 21.980469 37.054688 21.917969 37.582031 21.90625 C 37.910156 21.898438 38.246094 21.9375 38.546875 22.109375 C 38.8125 22.261719 38.964844 22.480469 38.988281 22.785156 C 39.019531 23.238281 38.878906 23.648438 38.695312 24.078125 C 37.316406 24.054688 35.929688 24.035156 34.519531 24.011719 C 34.519531 24.121094 34.515625 24.199219 34.523438 24.277344 C 34.546875 24.722656 34.589844 25.164062 34.601562 25.609375 C 34.613281 26.132812 34.699219 26.65625 34.621094 27.183594 C 34.546875 27.714844 34.261719 27.984375 33.722656 28.007812 C 33.300781 28.027344 32.898438 27.941406 32.503906 27.792969 C 32.464844 27.632812 32.488281 26.328125 32.503906 25.960938 C 32.523438 25.34375 32.507812 24.726562 32.507812 24.097656 C 32.492188 24.09375 32.457031 24.078125 32.421875 24.074219 C 31.84375 24.054688 31.269531 24.039062 30.6875 24.019531 C 29.835938 23.992188 28.984375 23.964844 28.132812 23.933594 C 28.089844 23.929688 28.046875 23.917969 27.984375 23.90625 "/>
<path style=" stroke:none;fill-rule:nonzero;fill:rgb(96.728516%,90.287781%,1.919556%);fill-opacity:1;" d="M 33.601562 45.273438 C 33.488281 45.441406 33.484375 45.636719 33.460938 45.828125 C 33.421875 46.097656 33.398438 46.371094 33.339844 46.636719 C 33.269531 46.941406 33.042969 47.089844 32.746094 47.125 C 32.394531 47.164062 32.050781 47.09375 31.714844 47.007812 C 31.652344 46.992188 31.589844 46.90625 31.5625 46.835938 C 31.453125 46.554688 31.414062 46.257812 31.503906 45.964844 C 31.570312 45.742188 31.46875 45.59375 31.316406 45.460938 C 31.261719 45.414062 31.195312 45.375 31.128906 45.328125 C 30.988281 45.378906 30.847656 45.421875 30.710938 45.476562 C 30.527344 45.546875 30.480469 45.632812 30.527344 45.824219 C 30.621094 46.238281 30.484375 46.597656 30.242188 46.90625 C 29.914062 47.324219 29.480469 47.292969 29.09375 46.894531 C 28.71875 46.507812 28.625 46.011719 28.65625 45.492188 C 28.675781 45.207031 28.75 44.925781 28.859375 44.65625 C 29.003906 44.300781 29.25 44.074219 29.609375 43.949219 C 29.953125 43.824219 30.304688 43.800781 30.660156 43.789062 C 31.28125 43.765625 31.90625 43.785156 32.53125 43.761719 C 32.929688 43.746094 33.328125 43.695312 33.722656 43.636719 C 33.902344 43.609375 34.074219 43.535156 34.238281 43.40625 C 34.195312 43.371094 34.164062 43.34375 34.128906 43.328125 C 33.789062 43.15625 33.421875 43.109375 33.050781 43.105469 C 32.558594 43.105469 32.070312 43.140625 31.582031 43.136719 C 31.21875 43.136719 30.855469 43.109375 30.503906 43.011719 C 29.878906 42.832031 29.476562 42.417969 29.222656 41.835938 C 28.992188 41.300781 28.871094 40.734375 28.832031 40.15625 C 28.78125 39.394531 28.753906 38.628906 28.75 37.867188 C 28.742188 36.738281 28.765625 35.609375 28.769531 34.484375 C 28.769531 34.074219 28.742188 33.667969 28.746094 33.261719 C 28.753906 32.445312 28.757812 31.628906 28.796875 30.8125 C 28.824219 30.183594 28.898438 29.558594 28.964844 28.929688 C 28.984375 28.742188 29.050781 28.558594 29.09375 28.382812 C 29.367188 28.28125 29.628906 28.273438 29.882812 28.316406 C 30.109375 28.359375 30.273438 28.511719 30.328125 28.738281 C 30.386719 29.011719 30.429688 29.289062 30.460938 29.570312 C 30.496094 29.914062 30.519531 30.261719 30.648438 30.589844 C 30.695312 30.707031 30.753906 30.789062 30.875 30.839844 C 31.121094 30.945312 31.378906 30.984375 31.636719 30.984375 C 32.273438 30.984375 32.910156 30.957031 33.546875 30.9375 C 33.746094 30.933594 33.949219 30.90625 34.148438 30.90625 C 34.859375 30.898438 35.570312 30.929688 36.261719 31.125 C 36.402344 31.164062 36.539062 31.222656 36.683594 31.273438 C 36.652344 31.605469 36.609375 31.917969 36.390625 32.175781 C 36.1875 32.421875 35.90625 32.484375 35.613281 32.488281 C 35.234375 32.492188 34.855469 32.464844 34.476562 32.460938 C 33.765625 32.457031 33.050781 32.449219 32.339844 32.46875 C 31.800781 32.488281 31.261719 32.550781 30.722656 32.597656 C 30.679688 32.601562 30.640625 32.621094 30.574219 32.640625 C 30.613281 34.050781 30.652344 35.464844 30.6875 36.875 C 30.996094 37.113281 31.34375 37.179688 31.703125 37.179688 C 32.207031 37.183594 32.710938 37.152344 33.214844 37.148438 C 34.269531 37.140625 35.324219 37.128906 36.378906 37.148438 C 37.082031 37.164062 37.785156 37.21875 38.488281 37.28125 C 38.800781 37.308594 39.121094 37.355469 39.40625 37.492188 C 39.496094 37.84375 39.28125 38.386719 38.816406 38.617188 C 38.496094 38.78125 38.152344 38.859375 37.804688 38.859375 C 37.101562 38.859375 36.398438 38.820312 35.695312 38.800781 C 35.277344 38.789062 34.863281 38.796875 34.445312 38.792969 C 33.851562 38.789062 33.257812 38.785156 32.664062 38.777344 C 32.390625 38.773438 32.117188 38.734375 31.84375 38.75 C 31.601562 38.761719 31.359375 38.808594 31.125 38.871094 C 30.988281 38.90625 30.863281 39 30.714844 39.078125 C 30.835938 39.214844 30.96875 39.242188 31.101562 39.277344 C 31.59375 39.414062 32.097656 39.421875 32.601562 39.425781 C 33.378906 39.425781 34.160156 39.402344 34.941406 39.425781 C 35.582031 39.449219 36.226562 39.515625 36.84375 39.71875 C 37.410156 39.90625 37.925781 40.167969 38.265625 40.6875 C 38.476562 41.007812 38.613281 41.355469 38.714844 41.722656 C 38.863281 42.253906 38.972656 42.789062 38.988281 43.339844 C 39.003906 43.933594 39.03125 44.527344 39.015625 45.121094 C 38.996094 45.71875 38.917969 46.3125 38.769531 46.921875 C 38.457031 47.046875 38.125 47.144531 37.769531 47.105469 C 37.644531 47.089844 37.523438 47.046875 37.402344 47.035156 C 37.292969 47.023438 37.246094 46.957031 37.210938 46.875 C 37.101562 46.625 37.046875 46.363281 37.023438 46.101562 C 36.964844 45.46875 36.976562 44.84375 37.003906 44.210938 C 37.03125 43.5 37.0625 42.785156 36.890625 42.085938 C 36.867188 41.992188 36.832031 41.902344 36.800781 41.808594 C 36.671875 41.464844 36.382812 41.328125 36.054688 41.242188 C 35.582031 41.125 35.097656 41.050781 34.613281 41 C 33.910156 40.925781 33.210938 40.871094 32.503906 40.890625 C 32.03125 40.902344 31.554688 40.929688 31.09375 41.058594 C 31.050781 41.074219 31.011719 41.085938 30.96875 41.101562 C 30.945312 41.113281 30.925781 41.136719 30.890625 41.164062 C 31.039062 41.375 31.246094 41.480469 31.476562 41.546875 C 31.910156 41.679688 32.355469 41.648438 32.800781 41.625 C 33.269531 41.597656 33.734375 41.554688 34.203125 41.5625 C 34.457031 41.566406 34.71875 41.625 34.960938 41.703125 C 35.324219 41.824219 35.566406 42.097656 35.71875 42.441406 C 35.902344 42.851562 35.984375 43.285156 36.042969 43.730469 C 36.132812 44.386719 36.152344 45.042969 36.121094 45.707031 C 36.105469 46.039062 36.066406 46.371094 36.027344 46.699219 C 36.019531 46.765625 35.976562 46.855469 35.925781 46.882812 C 35.503906 47.09375 35.066406 47.199219 34.59375 47.027344 C 34.5 46.992188 34.457031 46.941406 34.425781 46.847656 C 34.335938 46.582031 34.296875 46.3125 34.304688 46.039062 C 34.308594 46 34.304688 45.964844 34.304688 45.925781 C 34.320312 45.558594 34.234375 45.367188 33.734375 45.289062 C 33.695312 45.28125 33.652344 45.277344 33.601562 45.273438 "/>
<path style=" stroke:none;fill-rule:nonzero;fill:rgb(96.882629%,88.284302%,1.972961%);fill-opacity:1;" d="M 19.886719 36.042969 C 19.875 36.140625 19.855469 36.226562 19.859375 36.3125 C 19.871094 36.625 19.894531 36.933594 19.914062 37.246094 C 19.941406 37.71875 19.972656 38.191406 19.996094 38.664062 C 20.007812 38.871094 19.992188 39.082031 20.011719 39.289062 C 20.023438 39.441406 20.0625 39.59375 20.09375 39.746094 C 20.109375 39.820312 20.160156 39.847656 20.238281 39.851562 C 20.527344 39.867188 20.78125 39.671875 20.828125 39.382812 C 20.859375 39.195312 20.882812 39 20.878906 38.808594 C 20.875 38.425781 20.847656 38.039062 20.835938 37.65625 C 20.820312 37.164062 20.804688 36.675781 20.792969 36.1875 C 20.789062 36.144531 20.777344 36.101562 20.769531 36.042969 C 20.480469 36.042969 20.203125 36.042969 19.886719 36.042969 Z M 20.117188 34.320312 C 20.148438 34.320312 20.1875 34.324219 20.222656 34.324219 C 20.253906 34.324219 20.28125 34.324219 20.3125 34.324219 C 20.632812 34.300781 20.796875 34.144531 20.824219 33.824219 C 20.832031 33.71875 20.828125 33.613281 20.8125 33.511719 C 20.753906 33.085938 20.722656 32.65625 20.78125 32.226562 C 20.832031 31.835938 20.847656 31.445312 20.753906 31.058594 C 20.648438 30.640625 20.613281 30.445312 20.097656 30.371094 C 20.078125 30.425781 20.046875 30.476562 20.039062 30.535156 C 19.96875 31.007812 19.863281 31.480469 19.839844 31.960938 C 19.8125 32.550781 19.851562 33.144531 19.871094 33.734375 C 19.875 33.957031 19.941406 34.15625 20.117188 34.320312 Z M 20.644531 41.878906 C 20.253906 41.882812 19.972656 42.03125 19.792969 42.335938 C 19.667969 42.550781 19.609375 42.800781 19.597656 43.054688 C 19.570312 43.671875 19.613281 44.285156 19.671875 44.902344 C 19.722656 45.445312 19.785156 45.992188 19.644531 46.539062 C 19.570312 46.832031 19.425781 47.054688 19.113281 47.136719 C 18.828125 47.207031 18.566406 47.121094 18.386719 46.882812 C 18.152344 46.578125 18.0625 46.222656 17.996094 45.855469 C 17.820312 44.875 17.847656 43.886719 17.875 42.902344 C 17.898438 42.191406 17.953125 41.480469 18 40.773438 C 18.09375 39.378906 18.082031 37.980469 18.09375 36.585938 C 18.101562 35.125 18.109375 33.664062 18.128906 32.203125 C 18.136719 31.59375 18.199219 30.988281 18.359375 30.398438 C 18.507812 29.847656 18.757812 29.359375 19.25 29.03125 C 19.488281 28.871094 19.753906 28.78125 20.035156 28.742188 C 20.632812 28.65625 21.207031 28.695312 21.707031 29.082031 C 22.109375 29.394531 22.335938 29.828125 22.484375 30.300781 C 22.738281 31.101562 22.800781 31.929688 22.804688 32.761719 C 22.824219 35.023438 22.835938 37.289062 22.835938 39.554688 C 22.839844 40.214844 22.773438 40.871094 22.777344 41.53125 C 22.78125 42.539062 22.828125 43.546875 22.847656 44.558594 C 22.855469 44.933594 22.867188 45.316406 22.839844 45.695312 C 22.808594 46.042969 22.742188 46.394531 22.667969 46.742188 C 22.597656 47.078125 22.382812 47.285156 22.03125 47.332031 C 21.667969 47.386719 21.417969 47.21875 21.238281 46.917969 C 21.074219 46.648438 20.996094 46.347656 20.941406 46.039062 C 20.84375 45.460938 20.796875 44.878906 20.789062 44.292969 C 20.785156 43.773438 20.769531 43.253906 20.753906 42.734375 C 20.746094 42.511719 20.722656 42.289062 20.703125 42.070312 C 20.695312 42.007812 20.664062 41.945312 20.644531 41.878906 "/>
<path style=" stroke:none;fill-rule:nonzero;fill:rgb(96.882629%,88.284302%,1.972961%);fill-opacity:1;" d="M 25.308594 36.128906 C 25.308594 36.167969 25.308594 36.214844 25.308594 36.257812 C 25.300781 36.671875 25.3125 37.085938 25.28125 37.5 C 25.234375 38.078125 25.207031 38.652344 25.300781 39.226562 C 25.339844 39.453125 25.425781 39.671875 25.617188 39.820312 C 25.679688 39.867188 25.769531 39.90625 25.839844 39.898438 C 26.003906 39.875 26.214844 39.566406 26.199219 39.394531 C 26.1875 39.234375 26.160156 39.074219 26.15625 38.910156 C 26.136719 37.992188 26.121094 37.074219 26.101562 36.15625 C 26.101562 36.113281 26.085938 36.074219 26.078125 36.039062 C 25.816406 36.070312 25.570312 36.097656 25.308594 36.128906 Z M 25.480469 30.542969 C 25.339844 31.820312 25.269531 33.089844 25.15625 34.363281 C 25.46875 34.394531 25.742188 34.417969 26.039062 34.445312 C 26.066406 34.25 26.09375 34.074219 26.117188 33.902344 C 26.179688 33.5 26.261719 33.097656 26.238281 32.6875 C 26.234375 32.613281 26.234375 32.539062 26.242188 32.464844 C 26.304688 31.964844 26.234375 31.476562 26.148438 30.984375 C 26.105469 30.734375 25.996094 30.632812 25.742188 30.585938 C 25.667969 30.570312 25.597656 30.5625 25.480469 30.542969 Z M 26.066406 41.867188 C 25.769531 41.882812 25.480469 41.902344 25.167969 41.921875 C 25.15625 42.039062 25.128906 42.148438 25.132812 42.253906 C 25.152344 42.734375 25.175781 43.214844 25.199219 43.699219 C 25.230469 44.347656 25.28125 45 25.285156 45.652344 C 25.289062 46.011719 25.222656 46.371094 25.046875 46.703125 C 24.824219 47.117188 24.476562 47.175781 24.105469 47.113281 C 24.011719 47.09375 23.921875 47.050781 23.832031 47.019531 C 23.613281 46.949219 23.527344 46.792969 23.519531 46.570312 C 23.492188 45.644531 23.4375 44.71875 23.425781 43.789062 C 23.402344 42.140625 23.398438 40.492188 23.398438 38.84375 C 23.402344 37.949219 23.425781 37.046875 23.441406 36.152344 C 23.449219 35.648438 23.460938 35.144531 23.480469 34.636719 C 23.523438 33.636719 23.558594 32.636719 23.617188 31.636719 C 23.648438 31.078125 23.703125 30.515625 23.882812 29.976562 C 23.914062 29.871094 23.960938 29.769531 23.996094 29.660156 C 24.164062 29.167969 24.53125 28.914062 25.019531 28.804688 C 25.277344 28.75 25.542969 28.699219 25.808594 28.6875 C 26.355469 28.660156 26.878906 28.742188 27.28125 29.160156 C 27.539062 29.425781 27.679688 29.746094 27.75 30.105469 C 27.890625 30.835938 27.941406 31.574219 27.980469 32.3125 C 28.019531 33.070312 28.046875 33.824219 28.074219 34.582031 C 28.160156 36.984375 28.117188 39.390625 28.097656 41.796875 C 28.09375 42.316406 28.039062 42.835938 28.035156 43.351562 C 28.027344 43.660156 28.066406 43.972656 28.089844 44.28125 C 28.140625 44.890625 28.234375 45.492188 28.183594 46.101562 C 28.164062 46.328125 28.117188 46.566406 28.019531 46.765625 C 27.773438 47.273438 27.246094 47.375 26.71875 47.171875 C 26.578125 47.117188 26.453125 47.015625 26.332031 46.917969 C 26.210938 46.816406 26.160156 46.675781 26.140625 46.511719 C 26.066406 45.929688 26.136719 45.355469 26.148438 44.777344 C 26.164062 44.222656 26.164062 43.667969 26.144531 43.109375 C 26.128906 42.734375 26.109375 42.355469 26.089844 41.976562 C 26.089844 41.949219 26.078125 41.921875 26.066406 41.867188 "/>
<path style=" stroke:none;fill-rule:nonzero;fill:rgb(96.882629%,88.284302%,1.972961%);fill-opacity:1;" d="M 26.746094 12.515625 C 26.796875 12.882812 26.832031 13.234375 26.765625 13.589844 C 26.683594 14.011719 26.355469 14.292969 25.878906 14.316406 C 25.492188 14.335938 25.105469 14.34375 24.722656 14.351562 C 24.402344 14.359375 24.085938 14.375 23.761719 14.46875 C 23.742188 14.640625 23.707031 14.808594 23.707031 14.976562 C 23.683594 16 23.660156 17.023438 23.652344 18.046875 C 23.644531 18.730469 23.65625 19.414062 23.660156 20.097656 C 23.671875 21.707031 23.695312 23.320312 23.6875 24.929688 C 23.679688 25.761719 23.625 26.589844 23.511719 27.414062 C 23.496094 27.539062 23.46875 27.660156 23.441406 27.789062 C 23.136719 27.894531 22.84375 28.011719 22.515625 28.007812 C 22.183594 28.003906 21.921875 27.839844 21.675781 27.648438 C 21.632812 27.613281 21.613281 27.546875 21.601562 27.492188 C 21.539062 27.226562 21.453125 26.960938 21.433594 26.691406 C 21.386719 26.003906 21.347656 25.3125 21.351562 24.625 C 21.351562 23.890625 21.398438 23.15625 21.433594 22.421875 C 21.472656 21.71875 21.511719 21.015625 21.570312 20.316406 C 21.671875 19.070312 21.710938 17.828125 21.699219 16.578125 C 21.691406 15.925781 21.640625 15.277344 21.507812 14.632812 C 21.492188 14.554688 21.46875 14.476562 21.445312 14.371094 C 21.304688 14.355469 21.167969 14.324219 21.03125 14.324219 C 20.621094 14.328125 20.214844 14.355469 19.808594 14.355469 C 19.578125 14.359375 19.347656 14.347656 19.121094 14.316406 C 18.601562 14.242188 18.195312 13.664062 18.296875 13.179688 C 18.347656 12.941406 18.511719 12.792969 18.710938 12.683594 C 19.054688 12.5 19.429688 12.410156 19.820312 12.402344 C 20.761719 12.386719 21.703125 12.367188 22.644531 12.359375 C 23.496094 12.355469 24.351562 12.347656 25.207031 12.371094 C 25.683594 12.382812 26.164062 12.445312 26.644531 12.484375 C 26.671875 12.488281 26.699219 12.5 26.746094 12.515625 "/>
<path style=" stroke:none;fill-rule:nonzero;fill:rgb(96.728516%,90.287781%,1.919556%);fill-opacity:1;" d="M 31.101562 29.824219 C 31.089844 29.53125 31.0625 29.253906 31.128906 28.972656 C 31.195312 28.695312 31.363281 28.519531 31.644531 28.492188 C 31.980469 28.460938 32.324219 28.464844 32.664062 28.457031 C 32.898438 28.453125 33.136719 28.460938 33.371094 28.457031 C 34.054688 28.441406 34.738281 28.40625 35.417969 28.410156 C 35.960938 28.414062 36.496094 28.484375 37.015625 28.65625 C 37.917969 28.964844 38.480469 29.574219 38.71875 30.496094 C 38.964844 31.445312 38.882812 32.363281 38.464844 33.246094 C 38.09375 34.027344 37.503906 34.546875 36.617188 34.636719 C 36.15625 34.679688 35.683594 34.679688 35.21875 34.683594 C 34.894531 34.6875 34.566406 34.644531 34.242188 34.652344 C 33.921875 34.660156 33.605469 34.699219 33.289062 34.734375 C 33.160156 34.75 33.042969 34.933594 33.050781 35.085938 C 33.054688 35.1875 33.132812 35.277344 33.277344 35.296875 C 33.90625 35.386719 34.542969 35.453125 35.183594 35.382812 C 35.898438 35.304688 36.597656 35.148438 37.304688 35.011719 C 37.671875 34.941406 38.046875 34.878906 38.429688 34.914062 C 38.699219 34.9375 38.949219 35.015625 39.089844 35.265625 C 39.152344 35.378906 39.183594 35.511719 39.207031 35.640625 C 39.226562 35.75 39.21875 35.863281 39.214844 35.972656 C 39.207031 36.308594 39.164062 36.367188 38.839844 36.460938 C 38.5625 36.539062 38.28125 36.59375 37.988281 36.609375 C 37.335938 36.640625 36.6875 36.589844 36.035156 36.570312 C 35.503906 36.550781 34.96875 36.582031 34.433594 36.585938 C 33.769531 36.589844 33.097656 36.675781 32.4375 36.515625 C 31.785156 36.351562 31.335938 35.957031 31.210938 35.285156 C 31.101562 34.71875 31.277344 34.203125 31.644531 33.753906 C 31.996094 33.320312 32.46875 33.132812 33.003906 33.089844 C 33.441406 33.054688 33.878906 33.035156 34.3125 33.03125 C 34.894531 33.019531 35.472656 33.011719 36.039062 32.902344 C 36.339844 32.84375 36.628906 32.746094 36.917969 32.667969 C 37.015625 32.640625 37.0625 32.582031 37.074219 32.476562 C 37.101562 32.273438 37.160156 32.070312 37.1875 31.863281 C 37.234375 31.492188 37.15625 31.125 37.0625 30.765625 C 37.046875 30.710938 36.972656 30.644531 36.910156 30.625 C 36.59375 30.515625 36.28125 30.390625 35.957031 30.332031 C 35.347656 30.21875 34.730469 30.261719 34.117188 30.300781 C 33.183594 30.363281 32.261719 30.34375 31.386719 29.960938 C 31.289062 29.917969 31.199219 29.871094 31.101562 29.824219 "/>
<path style=" stroke:none;fill-rule:nonzero;fill:rgb(96.882629%,88.284302%,1.972961%);fill-opacity:1;" d="M 20.199219 16.015625 C 20.238281 16.417969 20.285156 16.777344 20.304688 17.140625 C 20.34375 17.96875 20.390625 18.800781 20.398438 19.628906 C 20.421875 21.367188 20.441406 23.105469 20.429688 24.839844 C 20.425781 25.671875 20.351562 26.5 20.304688 27.328125 C 20.296875 27.480469 20.265625 27.632812 20.242188 27.792969 C 19.621094 28 19.003906 28.011719 18.363281 27.800781 C 18.3125 27.453125 18.25 27.101562 18.21875 26.75 C 18.175781 26.277344 18.140625 25.800781 18.140625 25.328125 C 18.144531 24.589844 18.179688 23.847656 18.207031 23.105469 C 18.214844 22.839844 18.234375 22.574219 18.246094 22.304688 C 18.269531 21.824219 18.296875 21.34375 18.304688 20.859375 C 18.328125 19.664062 18.335938 18.46875 18.363281 17.277344 C 18.367188 17.019531 18.390625 16.753906 18.449219 16.503906 C 18.554688 16.027344 18.789062 15.875 19.257812 15.890625 C 19.566406 15.898438 19.871094 15.96875 20.199219 16.015625 "/>
<path style=" stroke:none;fill-rule:nonzero;fill:rgb(96.728516%,90.287781%,1.919556%);fill-opacity:1;" d="M 26.550781 16.046875 C 26.550781 16.390625 26.546875 16.722656 26.550781 17.054688 C 26.566406 18.390625 26.578125 19.722656 26.605469 21.058594 C 26.621094 21.882812 26.660156 22.703125 26.691406 23.527344 C 26.703125 23.824219 26.71875 24.117188 26.722656 24.414062 C 26.742188 25.179688 26.761719 25.941406 26.765625 26.707031 C 26.765625 27.011719 26.699219 27.308594 26.519531 27.566406 C 26.351562 27.800781 26.117188 27.917969 25.84375 27.949219 C 25.671875 27.964844 25.5 27.960938 25.332031 27.953125 C 25.019531 27.933594 24.773438 27.734375 24.734375 27.421875 C 24.695312 27.125 24.695312 26.820312 24.691406 26.515625 C 24.691406 26.308594 24.71875 26.101562 24.71875 25.894531 C 24.726562 24.589844 24.722656 23.28125 24.738281 21.976562 C 24.75 20.722656 24.785156 19.46875 24.804688 18.21875 C 24.8125 17.734375 24.800781 17.253906 24.808594 16.769531 C 24.8125 16.601562 24.832031 16.429688 24.867188 16.265625 C 24.910156 16.042969 25.058594 15.832031 25.375 15.828125 C 25.773438 15.824219 26.148438 15.929688 26.550781 16.046875 "/>
<path style=" stroke:none;fill-rule:nonzero;fill:rgb(96.728516%,90.287781%,1.919556%);fill-opacity:1;" d="M 26.941406 9.273438 C 27.027344 9.535156 27.011719 9.808594 26.980469 10.082031 C 26.894531 10.832031 26.398438 11.054688 25.882812 11.148438 C 25.148438 11.285156 24.40625 11.238281 23.664062 11.242188 C 22.675781 11.246094 21.691406 11.25 20.703125 11.253906 C 20.371094 11.253906 20.035156 11.257812 19.703125 11.242188 C 19.40625 11.226562 19.117188 11.167969 18.851562 11.023438 C 18.507812 10.832031 18.3125 10.546875 18.296875 10.148438 C 18.296875 10.082031 18.292969 10.015625 18.292969 9.945312 C 18.292969 9.707031 18.316406 9.683594 18.546875 9.59375 C 18.992188 9.425781 19.464844 9.355469 19.933594 9.296875 C 20.515625 9.226562 21.097656 9.175781 21.683594 9.160156 C 22.757812 9.128906 23.835938 9.109375 24.910156 9.117188 C 25.550781 9.125 26.195312 9.199219 26.839844 9.246094 C 26.867188 9.246094 26.894531 9.261719 26.941406 9.273438 "/>
<path style=" stroke:none;fill-rule:nonzero;fill:rgb(83.854675%,11.807251%,14.677429%);fill-opacity:1;" d="M 20.117188 34.320312 C 19.941406 34.15625 19.875 33.957031 19.871094 33.734375 C 19.851562 33.144531 19.8125 32.550781 19.839844 31.960938 C 19.863281 31.480469 19.96875 31.007812 20.039062 30.535156 C 20.046875 30.476562 20.078125 30.425781 20.097656 30.371094 C 20.613281 30.445312 20.648438 30.640625 20.753906 31.058594 C 20.847656 31.445312 20.832031 31.835938 20.78125 32.226562 C 20.722656 32.65625 20.753906 33.085938 20.8125 33.511719 C 20.828125 33.613281 20.832031 33.71875 20.824219 33.824219 C 20.796875 34.144531 20.632812 34.300781 20.3125 34.324219 C 20.28125 34.324219 20.253906 34.324219 20.222656 34.324219 C 20.1875 34.324219 20.148438 34.320312 20.117188 34.320312 "/>
<path style=" stroke:none;fill-rule:nonzero;fill:rgb(83.879089%,11.811829%,14.683533%);fill-opacity:1;" d="M 19.886719 36.042969 C 20.203125 36.042969 20.480469 36.042969 20.769531 36.042969 C 20.777344 36.101562 20.789062 36.144531 20.792969 36.1875 C 20.804688 36.675781 20.820312 37.164062 20.835938 37.65625 C 20.847656 38.039062 20.875 38.425781 20.878906 38.808594 C 20.882812 39 20.859375 39.195312 20.828125 39.382812 C 20.78125 39.671875 20.527344 39.867188 20.238281 39.851562 C 20.160156 39.847656 20.109375 39.820312 20.09375 39.746094 C 20.0625 39.59375 20.023438 39.441406 20.011719 39.289062 C 19.992188 39.082031 20.007812 38.871094 19.996094 38.664062 C 19.972656 38.191406 19.941406 37.71875 19.914062 37.246094 C 19.894531 36.933594 19.871094 36.625 19.859375 36.3125 C 19.855469 36.226562 19.875 36.140625 19.886719 36.042969 "/>
<path style=" stroke:none;fill-rule:nonzero;fill:rgb(83.863831%,11.808777%,14.678955%);fill-opacity:1;" d="M 25.480469 30.542969 C 25.597656 30.5625 25.667969 30.570312 25.742188 30.585938 C 25.996094 30.632812 26.105469 30.734375 26.148438 30.984375 C 26.234375 31.476562 26.304688 31.964844 26.242188 32.464844 C 26.234375 32.539062 26.234375 32.613281 26.238281 32.6875 C 26.261719 33.097656 26.179688 33.5 26.117188 33.902344 C 26.09375 34.074219 26.066406 34.25 26.039062 34.445312 C 25.742188 34.417969 25.46875 34.394531 25.15625 34.363281 C 25.269531 33.089844 25.339844 31.820312 25.480469 30.542969 "/>
<path style=" stroke:none;fill-rule:nonzero;fill:rgb(83.850098%,11.805725%,14.677429%);fill-opacity:1;" d="M 25.308594 36.128906 C 25.570312 36.097656 25.816406 36.070312 26.078125 36.039062 C 26.085938 36.074219 26.101562 36.113281 26.101562 36.15625 C 26.121094 37.074219 26.136719 37.992188 26.15625 38.910156 C 26.160156 39.074219 26.1875 39.234375 26.199219 39.394531 C 26.214844 39.566406 26.003906 39.875 25.839844 39.898438 C 25.769531 39.90625 25.679688 39.867188 25.617188 39.820312 C 25.425781 39.671875 25.339844 39.453125 25.300781 39.226562 C 25.207031 38.652344 25.234375 38.078125 25.28125 37.5 C 25.3125 37.085938 25.300781 36.671875 25.308594 36.257812 C 25.308594 36.214844 25.308594 36.167969 25.308594 36.128906 "/>
</g>
</svg>
