<?xml version="1.0" encoding="UTF-8"?>
<svg xmlns="http://www.w3.org/2000/svg" xmlns:xlink="http://www.w3.org/1999/xlink" width="56pt" height="56pt" viewBox="0 0 56 56" version="1.1">
<g id="surface1">
<rect x="0" y="0" width="56" height="56" style="fill:rgb(95.666504%,95.776367%,96.775818%);fill-opacity:1;stroke:none;"/>
<path style=" stroke:none;fill-rule:nonzero;fill:rgb(14.692688%,27.325439%,54.110718%);fill-opacity:1;" d="M 31.054688 11.894531 C 21.257812 11.894531 13.289062 19.863281 13.289062 29.660156 C 13.289062 39.457031 21.257812 47.425781 31.054688 47.425781 C 40.851562 47.425781 48.820312 39.457031 48.820312 29.660156 C 48.820312 19.863281 40.851562 11.894531 31.054688 11.894531 Z M 31.054688 49.285156 C 20.234375 49.285156 11.429688 40.480469 11.429688 29.660156 C 11.429688 18.839844 20.234375 10.035156 31.054688 10.035156 C 41.878906 10.035156 50.679688 18.839844 50.679688 29.660156 C 50.679688 40.480469 41.878906 49.285156 31.054688 49.285156 "/>
<path style=" stroke:none;fill-rule:nonzero;fill:rgb(80.586243%,15.135193%,18.644714%);fill-opacity:1;" d="M 5.320312 29.660156 L 47.824219 29.660156 L 24.449219 6.714844 L 17.007812 6.714844 L 27.246094 28.25 L 5.320312 29.660156 "/>
</g>
</svg>
