<?xml version="1.0" encoding="UTF-8"?>
<svg xmlns="http://www.w3.org/2000/svg" xmlns:xlink="http://www.w3.org/1999/xlink" width="56pt" height="56pt" viewBox="0 0 56 56" version="1.1">
<g id="surface1">
<rect x="0" y="0" width="56" height="56" style="fill:rgb(58.918762%,8.94165%,18.717957%);fill-opacity:1;stroke:none;"/>
<path style=" stroke:none;fill-rule:nonzero;fill:rgb(100%,100%,100%);fill-opacity:1;" d="M 47.746094 12.644531 L 35.300781 12.644531 C 33.980469 15.476562 27.886719 26.511719 25.5 31.21875 C 23.816406 34.53125 20.699219 38.777344 20.019531 39.558594 C 18.035156 41.917969 12.597656 41.738281 9 41.902344 C 8.605469 42.664062 8.253906 43.28125 8.253906 43.28125 L 26.195312 43.355469 C 28.796875 43.371094 30.335938 41.125 31.699219 38.367188 C 33.265625 35.203125 34.847656 31.386719 35.546875 29.5 L 31.035156 29.5 L 31.035156 28.171875 L 36.160156 28.171875 L 38.40625 21.71875 L 39.410156 21.71875 L 37.554688 28.171875 L 47.746094 28.171875 L 47.746094 12.644531 "/>
<path style=" stroke:none;fill-rule:nonzero;fill:rgb(100%,100%,100%);fill-opacity:1;" d="M 47.746094 29.5 C 44.210938 29.5 40.671875 29.5 37.144531 29.5 C 37.144531 29.5 34.914062 34.792969 34.480469 36.261719 C 34.214844 37.128906 31.738281 43.328125 35.617188 43.355469 C 36.234375 43.355469 47.746094 43.355469 47.746094 43.355469 C 47.746094 38.738281 47.746094 34.121094 47.746094 29.5 Z M 40.269531 33.734375 L 41.351562 33.734375 L 40.359375 38.835938 L 44.3125 38.835938 L 44.3125 40.289062 L 38.597656 40.289062 L 40.269531 33.734375 "/>
</g>
</svg>
