<?xml version="1.0" encoding="UTF-8"?>
<svg xmlns="http://www.w3.org/2000/svg" xmlns:xlink="http://www.w3.org/1999/xlink" width="56pt" height="56pt" viewBox="0 0 56 56" version="1.1">
<defs>
<clipPath id="clip1">
  <path d="M 3 28 L 29 28 L 29 40 L 3 40 Z M 3 28 "/>
</clipPath>
<clipPath id="clip2">
  <path d="M 46.492188 39.460938 C 46.492188 39.460938 17.160156 19.160156 3.058594 32.910156 C 20.09375 28.503906 36.933594 44.828125 46.492188 39.460938 Z M 46.492188 39.460938 "/>
</clipPath>
<clipPath id="clip3">
  <path d="M 8 28 L 29 28 L 29 40 L 8 40 Z M 8 28 "/>
</clipPath>
<clipPath id="clip4">
  <path d="M 46.492188 39.460938 C 46.492188 39.460938 17.160156 19.160156 3.058594 32.910156 C 20.09375 28.503906 36.933594 44.828125 46.492188 39.460938 Z M 46.492188 39.460938 "/>
</clipPath>
<clipPath id="clip5">
  <path d="M 9 28 L 29 28 L 29 40 L 9 40 Z M 9 28 "/>
</clipPath>
<clipPath id="clip6">
  <path d="M 46.492188 39.460938 C 46.492188 39.460938 17.160156 19.160156 3.058594 32.910156 C 20.09375 28.503906 36.933594 44.828125 46.492188 39.460938 Z M 46.492188 39.460938 "/>
</clipPath>
<clipPath id="clip7">
  <path d="M 9 28 L 30 28 L 30 40 L 9 40 Z M 9 28 "/>
</clipPath>
<clipPath id="clip8">
  <path d="M 46.492188 39.460938 C 46.492188 39.460938 17.160156 19.160156 3.058594 32.910156 C 20.09375 28.503906 36.933594 44.828125 46.492188 39.460938 Z M 46.492188 39.460938 "/>
</clipPath>
<clipPath id="clip9">
  <path d="M 9 28 L 30 28 L 30 41 L 9 41 Z M 9 28 "/>
</clipPath>
<clipPath id="clip10">
  <path d="M 46.492188 39.460938 C 46.492188 39.460938 17.160156 19.160156 3.058594 32.910156 C 20.09375 28.503906 36.933594 44.828125 46.492188 39.460938 Z M 46.492188 39.460938 "/>
</clipPath>
<clipPath id="clip11">
  <path d="M 10 28 L 30 28 L 30 41 L 10 41 Z M 10 28 "/>
</clipPath>
<clipPath id="clip12">
  <path d="M 46.492188 39.460938 C 46.492188 39.460938 17.160156 19.160156 3.058594 32.910156 C 20.09375 28.503906 36.933594 44.828125 46.492188 39.460938 Z M 46.492188 39.460938 "/>
</clipPath>
<clipPath id="clip13">
  <path d="M 10 28 L 31 28 L 31 41 L 10 41 Z M 10 28 "/>
</clipPath>
<clipPath id="clip14">
  <path d="M 46.492188 39.460938 C 46.492188 39.460938 17.160156 19.160156 3.058594 32.910156 C 20.09375 28.503906 36.933594 44.828125 46.492188 39.460938 Z M 46.492188 39.460938 "/>
</clipPath>
<clipPath id="clip15">
  <path d="M 10 28 L 47 28 L 47 41 L 10 41 Z M 10 28 "/>
</clipPath>
<clipPath id="clip16">
  <path d="M 46.492188 39.460938 C 46.492188 39.460938 17.160156 19.160156 3.058594 32.910156 C 20.09375 28.503906 36.933594 44.828125 46.492188 39.460938 Z M 46.492188 39.460938 "/>
</clipPath>
<clipPath id="clip17">
  <path d="M 11 21 L 34 21 L 34 31 L 11 31 Z M 11 21 "/>
</clipPath>
<clipPath id="clip18">
  <path d="M 49.269531 31.207031 C 49.269531 31.207031 23.367188 13.28125 10.917969 25.425781 C 25.960938 21.53125 40.828125 35.949219 49.269531 31.207031 Z M 49.269531 31.207031 "/>
</clipPath>
<clipPath id="clip19">
  <path d="M 15 21 L 34 21 L 34 31 L 15 31 Z M 15 21 "/>
</clipPath>
<clipPath id="clip20">
  <path d="M 49.269531 31.207031 C 49.269531 31.207031 23.367188 13.28125 10.917969 25.425781 C 25.960938 21.53125 40.828125 35.949219 49.269531 31.207031 Z M 49.269531 31.207031 "/>
</clipPath>
<clipPath id="clip21">
  <path d="M 15 21 L 34 21 L 34 32 L 15 32 Z M 15 21 "/>
</clipPath>
<clipPath id="clip22">
  <path d="M 49.269531 31.207031 C 49.269531 31.207031 23.367188 13.28125 10.917969 25.425781 C 25.960938 21.53125 40.828125 35.949219 49.269531 31.207031 Z M 49.269531 31.207031 "/>
</clipPath>
<clipPath id="clip23">
  <path d="M 16 21 L 34 21 L 34 32 L 16 32 Z M 16 21 "/>
</clipPath>
<clipPath id="clip24">
  <path d="M 49.269531 31.207031 C 49.269531 31.207031 23.367188 13.28125 10.917969 25.425781 C 25.960938 21.53125 40.828125 35.949219 49.269531 31.207031 Z M 49.269531 31.207031 "/>
</clipPath>
<clipPath id="clip25">
  <path d="M 16 21 L 35 21 L 35 32 L 16 32 Z M 16 21 "/>
</clipPath>
<clipPath id="clip26">
  <path d="M 49.269531 31.207031 C 49.269531 31.207031 23.367188 13.28125 10.917969 25.425781 C 25.960938 21.53125 40.828125 35.949219 49.269531 31.207031 Z M 49.269531 31.207031 "/>
</clipPath>
<clipPath id="clip27">
  <path d="M 16 21 L 35 21 L 35 33 L 16 33 Z M 16 21 "/>
</clipPath>
<clipPath id="clip28">
  <path d="M 49.269531 31.207031 C 49.269531 31.207031 23.367188 13.28125 10.917969 25.425781 C 25.960938 21.53125 40.828125 35.949219 49.269531 31.207031 Z M 49.269531 31.207031 "/>
</clipPath>
<clipPath id="clip29">
  <path d="M 17 21 L 35 21 L 35 33 L 17 33 Z M 17 21 "/>
</clipPath>
<clipPath id="clip30">
  <path d="M 49.269531 31.207031 C 49.269531 31.207031 23.367188 13.28125 10.917969 25.425781 C 25.960938 21.53125 40.828125 35.949219 49.269531 31.207031 Z M 49.269531 31.207031 "/>
</clipPath>
<clipPath id="clip31">
  <path d="M 17 21 L 36 21 L 36 33 L 17 33 Z M 17 21 "/>
</clipPath>
<clipPath id="clip32">
  <path d="M 49.269531 31.207031 C 49.269531 31.207031 23.367188 13.28125 10.917969 25.425781 C 25.960938 21.53125 40.828125 35.949219 49.269531 31.207031 Z M 49.269531 31.207031 "/>
</clipPath>
<clipPath id="clip33">
  <path d="M 17 21 L 50 21 L 50 33 L 17 33 Z M 17 21 "/>
</clipPath>
<clipPath id="clip34">
  <path d="M 49.269531 31.207031 C 49.269531 31.207031 23.367188 13.28125 10.917969 25.425781 C 25.960938 21.53125 40.828125 35.949219 49.269531 31.207031 Z M 49.269531 31.207031 "/>
</clipPath>
<clipPath id="clip35">
  <path d="M 18 15 L 39 15 L 39 25 L 18 25 Z M 18 15 "/>
</clipPath>
<clipPath id="clip36">
  <path d="M 52.941406 24.488281 C 52.941406 24.488281 29.511719 8.277344 18.25 19.261719 C 31.855469 15.738281 45.304688 28.777344 52.941406 24.488281 Z M 52.941406 24.488281 "/>
</clipPath>
<clipPath id="clip37">
  <path d="M 22 15 L 39 15 L 39 25 L 22 25 Z M 22 15 "/>
</clipPath>
<clipPath id="clip38">
  <path d="M 52.941406 24.488281 C 52.941406 24.488281 29.511719 8.277344 18.25 19.261719 C 31.855469 15.738281 45.304688 28.777344 52.941406 24.488281 Z M 52.941406 24.488281 "/>
</clipPath>
<clipPath id="clip39">
  <path d="M 23 15 L 39 15 L 39 25 L 23 25 Z M 23 15 "/>
</clipPath>
<clipPath id="clip40">
  <path d="M 52.941406 24.488281 C 52.941406 24.488281 29.511719 8.277344 18.25 19.261719 C 31.855469 15.738281 45.304688 28.777344 52.941406 24.488281 Z M 52.941406 24.488281 "/>
</clipPath>
<clipPath id="clip41">
  <path d="M 23 15 L 40 15 L 40 25 L 23 25 Z M 23 15 "/>
</clipPath>
<clipPath id="clip42">
  <path d="M 52.941406 24.488281 C 52.941406 24.488281 29.511719 8.277344 18.25 19.261719 C 31.855469 15.738281 45.304688 28.777344 52.941406 24.488281 Z M 52.941406 24.488281 "/>
</clipPath>
<clipPath id="clip43">
  <path d="M 23 15 L 40 15 L 40 26 L 23 26 Z M 23 15 "/>
</clipPath>
<clipPath id="clip44">
  <path d="M 52.941406 24.488281 C 52.941406 24.488281 29.511719 8.277344 18.25 19.261719 C 31.855469 15.738281 45.304688 28.777344 52.941406 24.488281 Z M 52.941406 24.488281 "/>
</clipPath>
<clipPath id="clip45">
  <path d="M 24 15 L 40 15 L 40 26 L 24 26 Z M 24 15 "/>
</clipPath>
<clipPath id="clip46">
  <path d="M 52.941406 24.488281 C 52.941406 24.488281 29.511719 8.277344 18.25 19.261719 C 31.855469 15.738281 45.304688 28.777344 52.941406 24.488281 Z M 52.941406 24.488281 "/>
</clipPath>
<clipPath id="clip47">
  <path d="M 24 15 L 41 15 L 41 26 L 24 26 Z M 24 15 "/>
</clipPath>
<clipPath id="clip48">
  <path d="M 52.941406 24.488281 C 52.941406 24.488281 29.511719 8.277344 18.25 19.261719 C 31.855469 15.738281 45.304688 28.777344 52.941406 24.488281 Z M 52.941406 24.488281 "/>
</clipPath>
<clipPath id="clip49">
  <path d="M 24 15 L 53 15 L 53 26 L 24 26 Z M 24 15 "/>
</clipPath>
<clipPath id="clip50">
  <path d="M 52.941406 24.488281 C 52.941406 24.488281 29.511719 8.277344 18.25 19.261719 C 31.855469 15.738281 45.304688 28.777344 52.941406 24.488281 Z M 52.941406 24.488281 "/>
</clipPath>
</defs>
<g id="surface1">
<rect x="0" y="0" width="56" height="56" style="fill:rgb(95.666504%,95.776367%,96.775818%);fill-opacity:1;stroke:none;"/>
<g clip-path="url(#clip1)" clip-rule="nonzero">
<g clip-path="url(#clip2)" clip-rule="evenodd">
<path style=" stroke:none;fill-rule:evenodd;fill:rgb(59.674072%,83.837891%,87.121582%);fill-opacity:1;" d="M 27.519531 19.527344 L 28.558594 20.441406 L 8.675781 39.238281 L 3.058594 33.234375 L 3.058594 19.527344 L 27.519531 19.527344 "/>
</g>
</g>
<g clip-path="url(#clip3)" clip-rule="nonzero">
<g clip-path="url(#clip4)" clip-rule="evenodd">
<path style=" stroke:none;fill-rule:evenodd;fill:rgb(59.674072%,83.837891%,87.121582%);fill-opacity:1;" d="M 28.558594 20.257812 L 28.589844 20.289062 L 8.703125 39.179688 L 8.675781 39.148438 L 28.558594 20.257812 "/>
<path style=" stroke:none;fill-rule:evenodd;fill:rgb(59.236145%,83.821106%,87.109375%);fill-opacity:1;" d="M 28.589844 20.289062 L 28.617188 20.320312 L 8.734375 39.210938 L 8.703125 39.179688 L 28.589844 20.289062 "/>
<path style=" stroke:none;fill-rule:evenodd;fill:rgb(58.834839%,83.432007%,87.173462%);fill-opacity:1;" d="M 28.617188 20.320312 L 28.648438 20.351562 L 8.761719 39.242188 L 8.734375 39.210938 L 28.617188 20.320312 "/>
<path style=" stroke:none;fill-rule:evenodd;fill:rgb(58.514404%,83.442688%,87.158203%);fill-opacity:1;" d="M 28.648438 20.351562 L 28.679688 20.382812 L 8.792969 39.273438 L 8.761719 39.242188 L 28.648438 20.351562 "/>
<path style=" stroke:none;fill-rule:evenodd;fill:rgb(58.21991%,83.479309%,86.756897%);fill-opacity:1;" d="M 28.679688 20.382812 L 28.710938 20.414062 L 8.824219 39.304688 L 8.792969 39.273438 L 28.679688 20.382812 "/>
<path style=" stroke:none;fill-rule:evenodd;fill:rgb(57.948303%,83.494568%,86.737061%);fill-opacity:1;" d="M 28.710938 20.414062 L 28.738281 20.445312 L 8.851562 39.335938 L 8.824219 39.304688 L 28.710938 20.414062 "/>
<path style=" stroke:none;fill-rule:evenodd;fill:rgb(57.550049%,83.126831%,86.831665%);fill-opacity:1;" d="M 28.738281 20.445312 L 28.769531 20.476562 L 8.882812 39.367188 L 8.851562 39.335938 L 28.738281 20.445312 "/>
<path style=" stroke:none;fill-rule:evenodd;fill:rgb(57.182312%,83.102417%,86.825562%);fill-opacity:1;" d="M 28.769531 20.476562 L 28.796875 20.507812 L 8.914062 39.398438 L 8.882812 39.367188 L 28.769531 20.476562 "/>
<path style=" stroke:none;fill-rule:evenodd;fill:rgb(56.863403%,83.085632%,86.837769%);fill-opacity:1;" d="M 28.796875 20.507812 L 28.828125 20.539062 L 8.941406 39.429688 L 8.914062 39.398438 L 28.796875 20.507812 "/>
<path style=" stroke:none;fill-rule:evenodd;fill:rgb(56.616211%,83.102417%,86.836243%);fill-opacity:1;" d="M 28.828125 20.539062 L 28.855469 20.570312 L 8.972656 39.460938 L 8.941406 39.429688 L 28.828125 20.539062 "/>
<path style=" stroke:none;fill-rule:evenodd;fill:rgb(56.289673%,82.733154%,86.448669%);fill-opacity:1;" d="M 28.855469 20.570312 L 28.886719 20.601562 L 9 39.492188 L 8.972656 39.460938 L 28.855469 20.570312 "/>
</g>
</g>
<g clip-path="url(#clip5)" clip-rule="nonzero">
<g clip-path="url(#clip6)" clip-rule="evenodd">
<path style=" stroke:none;fill-rule:evenodd;fill:rgb(56.021118%,82.731628%,86.442566%);fill-opacity:1;" d="M 28.886719 20.601562 L 28.917969 20.632812 L 9.03125 39.523438 L 9 39.492188 L 28.886719 20.601562 "/>
<path style=" stroke:none;fill-rule:evenodd;fill:rgb(55.677795%,82.725525%,86.424255%);fill-opacity:1;" d="M 28.917969 20.632812 L 28.945312 20.664062 L 9.0625 39.554688 L 9.03125 39.523438 L 28.917969 20.632812 "/>
<path style=" stroke:none;fill-rule:evenodd;fill:rgb(55.233765%,82.714844%,86.39679%);fill-opacity:1;" d="M 28.945312 20.664062 L 28.976562 20.695312 L 9.089844 39.585938 L 9.0625 39.554688 L 28.945312 20.664062 "/>
</g>
</g>
<g clip-path="url(#clip7)" clip-rule="nonzero">
<g clip-path="url(#clip8)" clip-rule="evenodd">
<path style=" stroke:none;fill-rule:evenodd;fill:rgb(54.88739%,82.315063%,86.56311%);fill-opacity:1;" d="M 28.976562 20.695312 L 29.007812 20.726562 L 9.121094 39.617188 L 9.089844 39.585938 L 28.976562 20.695312 "/>
<path style=" stroke:none;fill-rule:evenodd;fill:rgb(54.59137%,82.333374%,86.552429%);fill-opacity:1;" d="M 29.007812 20.726562 L 29.035156 20.757812 L 9.148438 39.648438 L 9.121094 39.617188 L 29.007812 20.726562 "/>
<path style=" stroke:none;fill-rule:evenodd;fill:rgb(54.096985%,82.354736%,85.905457%);fill-opacity:1;" d="M 29.035156 20.757812 L 29.066406 20.789062 L 9.179688 39.679688 L 9.148438 39.648438 L 29.035156 20.757812 "/>
<path style=" stroke:none;fill-rule:evenodd;fill:rgb(53.623962%,82.37915%,85.917664%);fill-opacity:1;" d="M 29.066406 20.789062 L 29.09375 20.820312 L 9.210938 39.710938 L 9.179688 39.679688 L 29.066406 20.789062 "/>
<path style=" stroke:none;fill-rule:evenodd;fill:rgb(53.308105%,81.932068%,86.077881%);fill-opacity:1;" d="M 29.09375 20.820312 L 29.125 20.851562 L 9.238281 39.742188 L 9.210938 39.710938 L 29.09375 20.820312 "/>
<path style=" stroke:none;fill-rule:evenodd;fill:rgb(52.984619%,81.965637%,86.058044%);fill-opacity:1;" d="M 29.125 20.851562 L 29.15625 20.882812 L 9.269531 39.773438 L 9.238281 39.742188 L 29.125 20.851562 "/>
<path style=" stroke:none;fill-rule:evenodd;fill:rgb(52.709961%,82.03125%,86.047363%);fill-opacity:1;" d="M 29.15625 20.882812 L 29.183594 20.914062 L 9.300781 39.804688 L 9.269531 39.773438 L 29.15625 20.882812 "/>
<path style=" stroke:none;fill-rule:evenodd;fill:rgb(52.432251%,82.099915%,86.056519%);fill-opacity:1;" d="M 29.183594 20.914062 L 29.214844 20.945312 L 9.328125 39.835938 L 9.300781 39.804688 L 29.183594 20.914062 "/>
<path style=" stroke:none;fill-rule:evenodd;fill:rgb(51.919556%,81.619263%,85.644531%);fill-opacity:1;" d="M 29.214844 20.945312 L 29.242188 20.976562 L 9.359375 39.867188 L 9.328125 39.835938 L 29.214844 20.945312 "/>
<path style=" stroke:none;fill-rule:evenodd;fill:rgb(51.548767%,81.625366%,85.658264%);fill-opacity:1;" d="M 29.242188 20.976562 L 29.273438 21.007812 L 9.386719 39.898438 L 9.359375 39.867188 L 29.242188 20.976562 "/>
<path style=" stroke:none;fill-rule:evenodd;fill:rgb(51.272583%,81.663513%,85.693359%);fill-opacity:1;" d="M 29.273438 21.007812 L 29.304688 21.039062 L 9.417969 39.929688 L 9.386719 39.898438 L 29.273438 21.007812 "/>
<path style=" stroke:none;fill-rule:evenodd;fill:rgb(50.933838%,81.225586%,85.760498%);fill-opacity:1;" d="M 29.304688 21.039062 L 29.332031 21.070312 L 9.449219 39.960938 L 9.417969 39.929688 L 29.304688 21.039062 "/>
<path style=" stroke:none;fill-rule:evenodd;fill:rgb(50.637817%,81.228638%,85.760498%);fill-opacity:1;" d="M 29.332031 21.070312 L 29.363281 21.101562 L 9.476562 39.992188 L 9.449219 39.960938 L 29.332031 21.070312 "/>
</g>
</g>
<g clip-path="url(#clip9)" clip-rule="nonzero">
<g clip-path="url(#clip10)" clip-rule="evenodd">
<path style=" stroke:none;fill-rule:evenodd;fill:rgb(50.363159%,81.242371%,85.766602%);fill-opacity:1;" d="M 29.363281 21.101562 L 29.394531 21.132812 L 9.507812 40.023438 L 9.476562 39.992188 L 29.363281 21.101562 "/>
<path style=" stroke:none;fill-rule:evenodd;fill:rgb(49.961853%,81.30188%,85.388184%);fill-opacity:1;" d="M 29.394531 21.132812 L 29.421875 21.164062 L 9.535156 40.054688 L 9.507812 40.023438 L 29.394531 21.132812 "/>
<path style=" stroke:none;fill-rule:evenodd;fill:rgb(49.601746%,80.831909%,85.421753%);fill-opacity:1;" d="M 29.421875 21.164062 L 29.453125 21.195312 L 9.566406 40.085938 L 9.535156 40.054688 L 29.421875 21.164062 "/>
<path style=" stroke:none;fill-rule:evenodd;fill:rgb(49.398804%,80.87616%,85.432434%);fill-opacity:1;" d="M 29.453125 21.195312 L 29.480469 21.226562 L 9.597656 40.117188 L 9.566406 40.085938 L 29.453125 21.195312 "/>
<path style=" stroke:none;fill-rule:evenodd;fill:rgb(49.002075%,80.880737%,85.449219%);fill-opacity:1;" d="M 29.480469 21.226562 L 29.511719 21.257812 L 9.625 40.148438 L 9.597656 40.117188 L 29.480469 21.226562 "/>
<path style=" stroke:none;fill-rule:evenodd;fill:rgb(48.796082%,80.957031%,85.453796%);fill-opacity:1;" d="M 29.511719 21.257812 L 29.542969 21.289062 L 9.65625 40.179688 L 9.625 40.148438 L 29.511719 21.257812 "/>
<path style=" stroke:none;fill-rule:evenodd;fill:rgb(48.248291%,80.406189%,85.455322%);fill-opacity:1;" d="M 29.542969 21.289062 L 29.570312 21.320312 L 9.6875 40.210938 L 9.65625 40.179688 L 29.542969 21.289062 "/>
<path style=" stroke:none;fill-rule:evenodd;fill:rgb(47.842407%,80.473328%,85.10437%);fill-opacity:1;" d="M 29.570312 21.320312 L 29.601562 21.351562 L 9.714844 40.242188 L 9.6875 40.210938 L 29.570312 21.320312 "/>
<path style=" stroke:none;fill-rule:evenodd;fill:rgb(47.637939%,80.528259%,85.102844%);fill-opacity:1;" d="M 29.601562 21.351562 L 29.632812 21.386719 L 9.746094 40.273438 L 9.714844 40.242188 L 29.601562 21.351562 "/>
<path style=" stroke:none;fill-rule:evenodd;fill:rgb(47.434998%,80.578613%,85.116577%);fill-opacity:1;" d="M 29.632812 21.386719 L 29.660156 21.414062 L 9.773438 40.304688 L 9.746094 40.273438 L 29.632812 21.386719 "/>
<path style=" stroke:none;fill-rule:evenodd;fill:rgb(46.884155%,80.070496%,85.098267%);fill-opacity:1;" d="M 29.660156 21.414062 L 29.691406 21.449219 L 9.804688 40.335938 L 9.773438 40.304688 L 29.660156 21.414062 "/>
<path style=" stroke:none;fill-rule:evenodd;fill:rgb(46.490479%,80.030823%,85.093689%);fill-opacity:1;" d="M 29.691406 21.449219 L 29.71875 21.476562 L 9.835938 40.367188 L 9.804688 40.335938 L 29.691406 21.449219 "/>
<path style=" stroke:none;fill-rule:evenodd;fill:rgb(46.09375%,79.989624%,85.070801%);fill-opacity:1;" d="M 29.71875 21.476562 L 29.75 21.511719 L 9.863281 40.402344 L 9.835938 40.367188 L 29.71875 21.476562 "/>
<path style=" stroke:none;fill-rule:evenodd;fill:rgb(45.883179%,80.088806%,84.587097%);fill-opacity:1;" d="M 29.75 21.511719 L 29.78125 21.539062 L 9.894531 40.429688 L 9.863281 40.402344 L 29.75 21.511719 "/>
<path style=" stroke:none;fill-rule:evenodd;fill:rgb(45.533752%,79.579163%,84.65271%);fill-opacity:1;" d="M 29.78125 21.539062 L 29.808594 21.574219 L 9.921875 40.464844 L 9.894531 40.429688 L 29.78125 21.539062 "/>
<path style=" stroke:none;fill-rule:evenodd;fill:rgb(45.333862%,79.598999%,84.613037%);fill-opacity:1;" d="M 29.808594 21.574219 L 29.839844 21.605469 L 9.953125 40.492188 L 9.921875 40.464844 L 29.808594 21.574219 "/>
<path style=" stroke:none;fill-rule:evenodd;fill:rgb(44.935608%,79.574585%,84.564209%);fill-opacity:1;" d="M 29.839844 21.605469 L 29.867188 21.636719 L 9.984375 40.527344 L 9.953125 40.492188 L 29.839844 21.605469 "/>
<path style=" stroke:none;fill-rule:evenodd;fill:rgb(44.535828%,79.56543%,84.539795%);fill-opacity:1;" d="M 29.867188 21.636719 L 29.898438 21.667969 L 10.011719 40.554688 L 9.984375 40.527344 L 29.867188 21.636719 "/>
</g>
</g>
<g clip-path="url(#clip11)" clip-rule="nonzero">
<g clip-path="url(#clip12)" clip-rule="evenodd">
<path style=" stroke:none;fill-rule:evenodd;fill:rgb(44.377136%,79.170227%,84.667969%);fill-opacity:1;" d="M 29.898438 21.667969 L 29.925781 21.699219 L 10.042969 40.589844 L 10.011719 40.554688 L 29.898438 21.667969 "/>
<path style=" stroke:none;fill-rule:evenodd;fill:rgb(43.97583%,79.173279%,84.132385%);fill-opacity:1;" d="M 29.925781 21.699219 L 29.957031 21.730469 L 10.074219 40.617188 L 10.042969 40.589844 L 29.925781 21.699219 "/>
<path style=" stroke:none;fill-rule:evenodd;fill:rgb(43.772888%,79.214478%,84.12323%);fill-opacity:1;" d="M 29.957031 21.730469 L 29.988281 21.761719 L 10.101562 40.652344 L 10.074219 40.617188 L 29.957031 21.730469 "/>
</g>
</g>
<g clip-path="url(#clip13)" clip-rule="nonzero">
<g clip-path="url(#clip14)" clip-rule="evenodd">
<path style=" stroke:none;fill-rule:evenodd;fill:rgb(43.566895%,79.260254%,84.136963%);fill-opacity:1;" d="M 29.988281 21.761719 L 30.019531 21.792969 L 10.132812 40.679688 L 10.101562 40.652344 L 29.988281 21.761719 "/>
<path style=" stroke:none;fill-rule:evenodd;fill:rgb(43.214417%,78.813171%,84.213257%);fill-opacity:1;" d="M 30.019531 21.792969 L 30.046875 21.824219 L 10.160156 40.714844 L 10.132812 40.679688 L 30.019531 21.792969 "/>
<path style=" stroke:none;fill-rule:evenodd;fill:rgb(42.817688%,78.773499%,84.191895%);fill-opacity:1;" d="M 30.046875 21.824219 L 30.078125 21.855469 L 10.191406 40.742188 L 10.160156 40.714844 L 30.046875 21.824219 "/>
<path style=" stroke:none;fill-rule:evenodd;fill:rgb(42.420959%,78.741455%,84.194946%);fill-opacity:1;" d="M 30.078125 21.855469 L 30.105469 21.886719 L 10.222656 40.777344 L 10.191406 40.742188 L 30.078125 21.855469 "/>
<path style=" stroke:none;fill-rule:evenodd;fill:rgb(42.256165%,78.427124%,83.883667%);fill-opacity:1;" d="M 30.105469 21.886719 L 30.136719 21.917969 L 10.25 40.804688 L 10.222656 40.777344 L 30.105469 21.886719 "/>
<path style=" stroke:none;fill-rule:evenodd;fill:rgb(42.054749%,78.437805%,83.879089%);fill-opacity:1;" d="M 30.136719 21.917969 L 30.164062 21.949219 L 10.28125 40.839844 L 10.25 40.804688 L 30.136719 21.917969 "/>
<path style=" stroke:none;fill-rule:evenodd;fill:rgb(41.853333%,78.451538%,83.895874%);fill-opacity:1;" d="M 30.164062 21.949219 L 30.195312 21.980469 L 10.308594 40.871094 L 10.28125 40.839844 L 30.164062 21.949219 "/>
<path style=" stroke:none;fill-rule:evenodd;fill:rgb(41.455078%,78.414917%,83.8974%);fill-opacity:1;" d="M 30.195312 21.980469 L 30.226562 22.011719 L 10.339844 40.902344 L 10.308594 40.871094 L 30.195312 21.980469 "/>
<path style=" stroke:none;fill-rule:evenodd;fill:rgb(41.099548%,78.034973%,84.074402%);fill-opacity:1;" d="M 30.226562 22.011719 L 30.257812 22.042969 L 10.371094 40.933594 L 10.339844 40.902344 L 30.226562 22.011719 "/>
<path style=" stroke:none;fill-rule:evenodd;fill:rgb(40.898132%,78.041077%,84.068298%);fill-opacity:1;" d="M 30.257812 22.042969 L 30.285156 22.074219 L 10.398438 40.964844 L 10.371094 40.933594 L 30.257812 22.042969 "/>
<path style=" stroke:none;fill-rule:evenodd;fill:rgb(40.496826%,78.036499%,83.595276%);fill-opacity:1;" d="M 30.285156 22.074219 L 30.316406 22.105469 L 10.429688 40.996094 L 10.398438 40.964844 L 30.285156 22.074219 "/>
<path style=" stroke:none;fill-rule:evenodd;fill:rgb(40.290833%,78.079224%,83.590698%);fill-opacity:1;" d="M 30.316406 22.105469 L 30.34375 22.136719 L 10.460938 41.027344 L 10.429688 40.996094 L 30.316406 22.105469 "/>
<path style=" stroke:none;fill-rule:evenodd;fill:rgb(39.936829%,77.676392%,83.807373%);fill-opacity:1;" d="M 30.34375 22.136719 L 30.375 22.167969 L 10.488281 41.058594 L 10.460938 41.027344 L 30.34375 22.136719 "/>
<path style=" stroke:none;fill-rule:evenodd;fill:rgb(39.733887%,77.69165%,83.807373%);fill-opacity:1;" d="M 30.375 22.167969 L 30.40625 22.199219 L 10.519531 41.089844 L 10.488281 41.058594 L 30.375 22.167969 "/>
<path style=" stroke:none;fill-rule:evenodd;fill:rgb(39.337158%,77.656555%,83.811951%);fill-opacity:1;" d="M 30.40625 22.199219 L 30.433594 22.230469 L 10.546875 41.121094 L 10.519531 41.089844 L 30.40625 22.199219 "/>
<path style=" stroke:none;fill-rule:evenodd;fill:rgb(38.94043%,77.627563%,83.818054%);fill-opacity:1;" d="M 30.433594 22.230469 L 30.464844 22.261719 L 10.578125 41.152344 L 10.546875 41.121094 L 30.433594 22.230469 "/>
<path style=" stroke:none;fill-rule:evenodd;fill:rgb(38.780212%,77.293396%,83.444214%);fill-opacity:1;" d="M 30.464844 22.261719 L 30.492188 22.292969 L 10.609375 41.183594 L 10.578125 41.152344 L 30.464844 22.261719 "/>
<path style=" stroke:none;fill-rule:evenodd;fill:rgb(38.575745%,77.304077%,83.441162%);fill-opacity:1;" d="M 30.492188 22.292969 L 30.523438 22.324219 L 10.636719 41.214844 L 10.609375 41.183594 L 30.492188 22.292969 "/>
<path style=" stroke:none;fill-rule:evenodd;fill:rgb(38.372803%,77.314758%,83.43811%);fill-opacity:1;" d="M 30.523438 22.324219 L 30.550781 22.355469 L 10.667969 41.246094 L 10.636719 41.214844 L 30.523438 22.324219 "/>
<path style=" stroke:none;fill-rule:evenodd;fill:rgb(38.169861%,77.323914%,83.436584%);fill-opacity:1;" d="M 30.550781 22.355469 L 30.582031 22.386719 L 10.695312 41.277344 L 10.667969 41.246094 L 30.550781 22.355469 "/>
<path style=" stroke:none;fill-rule:evenodd;fill:rgb(37.82196%,76.925659%,83.596802%);fill-opacity:1;" d="M 30.582031 22.386719 L 30.613281 22.417969 L 10.726562 41.308594 L 10.695312 41.277344 L 30.582031 22.386719 "/>
<path style=" stroke:none;fill-rule:evenodd;fill:rgb(37.62207%,76.925659%,83.607483%);fill-opacity:1;" d="M 30.613281 22.417969 L 30.644531 22.449219 L 10.757812 41.339844 L 10.726562 41.308594 L 30.613281 22.417969 "/>
<path style=" stroke:none;fill-rule:evenodd;fill:rgb(37.22229%,76.872253%,82.99408%);fill-opacity:1;" d="M 30.644531 22.449219 L 30.671875 22.480469 L 10.785156 41.371094 L 10.757812 41.339844 L 30.644531 22.449219 "/>
<path style=" stroke:none;fill-rule:evenodd;fill:rgb(37.020874%,76.858521%,82.981873%);fill-opacity:1;" d="M 30.671875 22.480469 L 30.703125 22.511719 L 10.816406 41.402344 L 10.785156 41.371094 L 30.671875 22.480469 "/>
<path style=" stroke:none;fill-rule:evenodd;fill:rgb(36.669922%,76.495361%,83.19397%);fill-opacity:1;" d="M 30.703125 22.511719 L 30.730469 22.542969 L 10.84375 41.433594 L 10.816406 41.402344 L 30.703125 22.511719 "/>
<path style=" stroke:none;fill-rule:evenodd;fill:rgb(36.663818%,76.538086%,83.178711%);fill-opacity:1;" d="M 30.730469 22.542969 L 30.761719 22.574219 L 10.875 41.464844 L 10.84375 41.433594 L 30.730469 22.542969 "/>
</g>
</g>
<g clip-path="url(#clip15)" clip-rule="nonzero">
<g clip-path="url(#clip16)" clip-rule="evenodd">
<path style=" stroke:none;fill-rule:evenodd;fill:rgb(36.663818%,76.538086%,83.178711%);fill-opacity:1;" d="M 31.003906 22.574219 L 46.972656 39.136719 L 46.972656 45.058594 L 14.070312 45.058594 L 10.996094 41.582031 L 31.003906 22.574219 "/>
</g>
</g>
<g clip-path="url(#clip17)" clip-rule="nonzero">
<g clip-path="url(#clip18)" clip-rule="evenodd">
<path style=" stroke:none;fill-rule:evenodd;fill:rgb(59.674072%,83.837891%,87.121582%);fill-opacity:1;" d="M 32.550781 13.402344 L 33.453125 14.292969 L 16.011719 30.976562 L 11.230469 25.75 L 11.230469 13.402344 L 32.550781 13.402344 "/>
</g>
</g>
<g clip-path="url(#clip19)" clip-rule="nonzero">
<g clip-path="url(#clip20)" clip-rule="evenodd">
<path style=" stroke:none;fill-rule:evenodd;fill:rgb(59.674072%,83.837891%,87.121582%);fill-opacity:1;" d="M 33.453125 14.230469 L 33.480469 14.261719 L 15.882812 30.976562 L 15.855469 30.949219 L 33.453125 14.230469 "/>
</g>
</g>
<g clip-path="url(#clip21)" clip-rule="nonzero">
<g clip-path="url(#clip22)" clip-rule="evenodd">
<path style=" stroke:none;fill-rule:evenodd;fill:rgb(59.236145%,83.821106%,87.109375%);fill-opacity:1;" d="M 33.480469 14.261719 L 33.507812 14.289062 L 15.910156 31.003906 L 15.882812 30.976562 L 33.480469 14.261719 "/>
<path style=" stroke:none;fill-rule:evenodd;fill:rgb(58.834839%,83.432007%,87.173462%);fill-opacity:1;" d="M 33.507812 14.289062 L 33.53125 14.316406 L 15.933594 31.03125 L 15.910156 31.003906 L 33.507812 14.289062 "/>
<path style=" stroke:none;fill-rule:evenodd;fill:rgb(58.514404%,83.442688%,87.158203%);fill-opacity:1;" d="M 33.53125 14.316406 L 33.558594 14.34375 L 15.960938 31.058594 L 15.933594 31.03125 L 33.53125 14.316406 "/>
<path style=" stroke:none;fill-rule:evenodd;fill:rgb(58.21991%,83.479309%,86.756897%);fill-opacity:1;" d="M 33.558594 14.34375 L 33.585938 14.371094 L 15.988281 31.085938 L 15.960938 31.058594 L 33.558594 14.34375 "/>
<path style=" stroke:none;fill-rule:evenodd;fill:rgb(57.948303%,83.494568%,86.737061%);fill-opacity:1;" d="M 33.585938 14.371094 L 33.609375 14.398438 L 16.015625 31.113281 L 15.988281 31.085938 L 33.585938 14.371094 "/>
</g>
</g>
<g clip-path="url(#clip23)" clip-rule="nonzero">
<g clip-path="url(#clip24)" clip-rule="evenodd">
<path style=" stroke:none;fill-rule:evenodd;fill:rgb(57.550049%,83.126831%,86.831665%);fill-opacity:1;" d="M 33.609375 14.398438 L 33.636719 14.425781 L 16.039062 31.144531 L 16.015625 31.113281 L 33.609375 14.398438 "/>
<path style=" stroke:none;fill-rule:evenodd;fill:rgb(57.182312%,83.102417%,86.825562%);fill-opacity:1;" d="M 33.636719 14.425781 L 33.664062 14.453125 L 16.066406 31.167969 L 16.039062 31.144531 L 33.636719 14.425781 "/>
<path style=" stroke:none;fill-rule:evenodd;fill:rgb(56.863403%,83.085632%,86.837769%);fill-opacity:1;" d="M 33.664062 14.453125 L 33.691406 14.480469 L 16.09375 31.199219 L 16.066406 31.167969 L 33.664062 14.453125 "/>
<path style=" stroke:none;fill-rule:evenodd;fill:rgb(56.616211%,83.102417%,86.836243%);fill-opacity:1;" d="M 33.691406 14.480469 L 33.714844 14.507812 L 16.117188 31.226562 L 16.09375 31.199219 L 33.691406 14.480469 "/>
<path style=" stroke:none;fill-rule:evenodd;fill:rgb(56.289673%,82.733154%,86.448669%);fill-opacity:1;" d="M 33.714844 14.507812 L 33.742188 14.535156 L 16.144531 31.253906 L 16.117188 31.226562 L 33.714844 14.507812 "/>
<path style=" stroke:none;fill-rule:evenodd;fill:rgb(56.021118%,82.731628%,86.442566%);fill-opacity:1;" d="M 33.742188 14.535156 L 33.769531 14.566406 L 16.171875 31.28125 L 16.144531 31.253906 L 33.742188 14.535156 "/>
<path style=" stroke:none;fill-rule:evenodd;fill:rgb(55.677795%,82.725525%,86.424255%);fill-opacity:1;" d="M 33.769531 14.566406 L 33.792969 14.59375 L 16.199219 31.308594 L 16.171875 31.28125 L 33.769531 14.566406 "/>
<path style=" stroke:none;fill-rule:evenodd;fill:rgb(55.233765%,82.714844%,86.39679%);fill-opacity:1;" d="M 33.792969 14.59375 L 33.820312 14.621094 L 16.222656 31.335938 L 16.199219 31.308594 L 33.792969 14.59375 "/>
<path style=" stroke:none;fill-rule:evenodd;fill:rgb(54.88739%,82.315063%,86.56311%);fill-opacity:1;" d="M 33.820312 14.621094 L 33.847656 14.648438 L 16.25 31.363281 L 16.222656 31.335938 L 33.820312 14.621094 "/>
<path style=" stroke:none;fill-rule:evenodd;fill:rgb(54.59137%,82.333374%,86.552429%);fill-opacity:1;" d="M 33.847656 14.648438 L 33.875 14.675781 L 16.277344 31.390625 L 16.25 31.363281 L 33.847656 14.648438 "/>
<path style=" stroke:none;fill-rule:evenodd;fill:rgb(54.096985%,82.354736%,85.905457%);fill-opacity:1;" d="M 33.875 14.675781 L 33.898438 14.703125 L 16.300781 31.417969 L 16.277344 31.390625 L 33.875 14.675781 "/>
<path style=" stroke:none;fill-rule:evenodd;fill:rgb(53.623962%,82.37915%,85.917664%);fill-opacity:1;" d="M 33.898438 14.703125 L 33.925781 14.730469 L 16.328125 31.445312 L 16.300781 31.417969 L 33.898438 14.703125 "/>
<path style=" stroke:none;fill-rule:evenodd;fill:rgb(53.308105%,81.932068%,86.077881%);fill-opacity:1;" d="M 33.925781 14.730469 L 33.953125 14.757812 L 16.355469 31.472656 L 16.328125 31.445312 L 33.925781 14.730469 "/>
<path style=" stroke:none;fill-rule:evenodd;fill:rgb(52.984619%,81.965637%,86.058044%);fill-opacity:1;" d="M 33.953125 14.757812 L 33.976562 14.785156 L 16.382812 31.503906 L 16.355469 31.472656 L 33.953125 14.757812 "/>
</g>
</g>
<g clip-path="url(#clip25)" clip-rule="nonzero">
<g clip-path="url(#clip26)" clip-rule="evenodd">
<path style=" stroke:none;fill-rule:evenodd;fill:rgb(52.709961%,82.03125%,86.047363%);fill-opacity:1;" d="M 33.976562 14.785156 L 34.003906 14.8125 L 16.40625 31.53125 L 16.382812 31.503906 L 33.976562 14.785156 "/>
<path style=" stroke:none;fill-rule:evenodd;fill:rgb(52.432251%,82.099915%,86.056519%);fill-opacity:1;" d="M 34.003906 14.8125 L 34.03125 14.839844 L 16.433594 31.558594 L 16.40625 31.53125 L 34.003906 14.8125 "/>
<path style=" stroke:none;fill-rule:evenodd;fill:rgb(51.919556%,81.619263%,85.644531%);fill-opacity:1;" d="M 34.03125 14.839844 L 34.058594 14.867188 L 16.460938 31.585938 L 16.433594 31.558594 L 34.03125 14.839844 "/>
<path style=" stroke:none;fill-rule:evenodd;fill:rgb(51.548767%,81.625366%,85.658264%);fill-opacity:1;" d="M 34.058594 14.867188 L 34.085938 14.894531 L 16.484375 31.613281 L 16.460938 31.585938 L 34.058594 14.867188 "/>
<path style=" stroke:none;fill-rule:evenodd;fill:rgb(51.272583%,81.663513%,85.693359%);fill-opacity:1;" d="M 34.085938 14.894531 L 34.109375 14.921875 L 16.511719 31.640625 L 16.484375 31.613281 L 34.085938 14.894531 "/>
<path style=" stroke:none;fill-rule:evenodd;fill:rgb(50.933838%,81.225586%,85.760498%);fill-opacity:1;" d="M 34.109375 14.921875 L 34.136719 14.953125 L 16.539062 31.667969 L 16.511719 31.640625 L 34.109375 14.921875 "/>
<path style=" stroke:none;fill-rule:evenodd;fill:rgb(50.637817%,81.228638%,85.760498%);fill-opacity:1;" d="M 34.136719 14.953125 L 34.160156 14.980469 L 16.566406 31.695312 L 16.539062 31.667969 L 34.136719 14.953125 "/>
<path style=" stroke:none;fill-rule:evenodd;fill:rgb(50.363159%,81.242371%,85.766602%);fill-opacity:1;" d="M 34.160156 14.980469 L 34.1875 15.007812 L 16.589844 31.722656 L 16.566406 31.695312 L 34.160156 14.980469 "/>
<path style=" stroke:none;fill-rule:evenodd;fill:rgb(49.961853%,81.30188%,85.388184%);fill-opacity:1;" d="M 34.1875 15.007812 L 34.214844 15.035156 L 16.617188 31.75 L 16.589844 31.722656 L 34.1875 15.007812 "/>
<path style=" stroke:none;fill-rule:evenodd;fill:rgb(49.601746%,80.831909%,85.421753%);fill-opacity:1;" d="M 34.214844 15.035156 L 34.242188 15.0625 L 16.644531 31.777344 L 16.617188 31.75 L 34.214844 15.035156 "/>
<path style=" stroke:none;fill-rule:evenodd;fill:rgb(49.398804%,80.87616%,85.432434%);fill-opacity:1;" d="M 34.242188 15.0625 L 34.269531 15.089844 L 16.671875 31.804688 L 16.644531 31.777344 L 34.242188 15.0625 "/>
<path style=" stroke:none;fill-rule:evenodd;fill:rgb(49.002075%,80.880737%,85.449219%);fill-opacity:1;" d="M 34.269531 15.089844 L 34.292969 15.117188 L 16.695312 31.835938 L 16.671875 31.804688 L 34.269531 15.089844 "/>
<path style=" stroke:none;fill-rule:evenodd;fill:rgb(48.796082%,80.957031%,85.453796%);fill-opacity:1;" d="M 34.292969 15.117188 L 34.320312 15.144531 L 16.722656 31.859375 L 16.695312 31.835938 L 34.292969 15.117188 "/>
<path style=" stroke:none;fill-rule:evenodd;fill:rgb(48.248291%,80.406189%,85.455322%);fill-opacity:1;" d="M 34.320312 15.144531 L 34.347656 15.171875 L 16.75 31.890625 L 16.722656 31.859375 L 34.320312 15.144531 "/>
<path style=" stroke:none;fill-rule:evenodd;fill:rgb(47.842407%,80.473328%,85.10437%);fill-opacity:1;" d="M 34.347656 15.171875 L 34.371094 15.199219 L 16.777344 31.917969 L 16.75 31.890625 L 34.347656 15.171875 "/>
<path style=" stroke:none;fill-rule:evenodd;fill:rgb(47.637939%,80.528259%,85.102844%);fill-opacity:1;" d="M 34.371094 15.199219 L 34.398438 15.226562 L 16.800781 31.945312 L 16.777344 31.917969 L 34.371094 15.199219 "/>
<path style=" stroke:none;fill-rule:evenodd;fill:rgb(47.434998%,80.578613%,85.116577%);fill-opacity:1;" d="M 34.398438 15.226562 L 34.425781 15.253906 L 16.828125 31.972656 L 16.800781 31.945312 L 34.398438 15.226562 "/>
<path style=" stroke:none;fill-rule:evenodd;fill:rgb(46.884155%,80.070496%,85.098267%);fill-opacity:1;" d="M 34.425781 15.253906 L 34.453125 15.28125 L 16.855469 32 L 16.828125 31.972656 L 34.425781 15.253906 "/>
</g>
</g>
<g clip-path="url(#clip27)" clip-rule="nonzero">
<g clip-path="url(#clip28)" clip-rule="evenodd">
<path style=" stroke:none;fill-rule:evenodd;fill:rgb(46.490479%,80.030823%,85.093689%);fill-opacity:1;" d="M 34.453125 15.28125 L 34.476562 15.3125 L 16.878906 32.027344 L 16.855469 32 L 34.453125 15.28125 "/>
<path style=" stroke:none;fill-rule:evenodd;fill:rgb(46.09375%,79.989624%,85.070801%);fill-opacity:1;" d="M 34.476562 15.3125 L 34.503906 15.339844 L 16.90625 32.054688 L 16.878906 32.027344 L 34.476562 15.3125 "/>
<path style=" stroke:none;fill-rule:evenodd;fill:rgb(45.883179%,80.088806%,84.587097%);fill-opacity:1;" d="M 34.503906 15.339844 L 34.53125 15.367188 L 16.933594 32.082031 L 16.90625 32.054688 L 34.503906 15.339844 "/>
<path style=" stroke:none;fill-rule:evenodd;fill:rgb(45.533752%,79.579163%,84.65271%);fill-opacity:1;" d="M 34.53125 15.367188 L 34.554688 15.394531 L 16.960938 32.109375 L 16.933594 32.082031 L 34.53125 15.367188 "/>
<path style=" stroke:none;fill-rule:evenodd;fill:rgb(45.333862%,79.598999%,84.613037%);fill-opacity:1;" d="M 34.554688 15.394531 L 34.582031 15.421875 L 16.984375 32.136719 L 16.960938 32.109375 L 34.554688 15.394531 "/>
<path style=" stroke:none;fill-rule:evenodd;fill:rgb(44.935608%,79.574585%,84.564209%);fill-opacity:1;" d="M 34.582031 15.421875 L 34.609375 15.449219 L 17.011719 32.164062 L 16.984375 32.136719 L 34.582031 15.421875 "/>
</g>
</g>
<g clip-path="url(#clip29)" clip-rule="nonzero">
<g clip-path="url(#clip30)" clip-rule="evenodd">
<path style=" stroke:none;fill-rule:evenodd;fill:rgb(44.535828%,79.56543%,84.539795%);fill-opacity:1;" d="M 34.609375 15.449219 L 34.636719 15.476562 L 17.039062 32.195312 L 17.011719 32.164062 L 34.609375 15.449219 "/>
<path style=" stroke:none;fill-rule:evenodd;fill:rgb(44.377136%,79.170227%,84.667969%);fill-opacity:1;" d="M 34.636719 15.476562 L 34.660156 15.503906 L 17.0625 32.21875 L 17.039062 32.195312 L 34.636719 15.476562 "/>
<path style=" stroke:none;fill-rule:evenodd;fill:rgb(43.97583%,79.173279%,84.132385%);fill-opacity:1;" d="M 34.660156 15.503906 L 34.6875 15.53125 L 17.089844 32.246094 L 17.0625 32.21875 L 34.660156 15.503906 "/>
<path style=" stroke:none;fill-rule:evenodd;fill:rgb(43.772888%,79.214478%,84.12323%);fill-opacity:1;" d="M 34.6875 15.53125 L 34.714844 15.558594 L 17.117188 32.277344 L 17.089844 32.246094 L 34.6875 15.53125 "/>
<path style=" stroke:none;fill-rule:evenodd;fill:rgb(43.566895%,79.260254%,84.136963%);fill-opacity:1;" d="M 34.714844 15.558594 L 34.738281 15.585938 L 17.144531 32.304688 L 17.117188 32.277344 L 34.714844 15.558594 "/>
<path style=" stroke:none;fill-rule:evenodd;fill:rgb(43.214417%,78.813171%,84.213257%);fill-opacity:1;" d="M 34.738281 15.585938 L 34.765625 15.613281 L 17.167969 32.332031 L 17.144531 32.304688 L 34.738281 15.585938 "/>
<path style=" stroke:none;fill-rule:evenodd;fill:rgb(42.817688%,78.773499%,84.191895%);fill-opacity:1;" d="M 34.765625 15.613281 L 34.792969 15.644531 L 17.195312 32.359375 L 17.167969 32.332031 L 34.765625 15.613281 "/>
<path style=" stroke:none;fill-rule:evenodd;fill:rgb(42.420959%,78.741455%,84.194946%);fill-opacity:1;" d="M 34.792969 15.644531 L 34.820312 15.671875 L 17.222656 32.386719 L 17.195312 32.359375 L 34.792969 15.644531 "/>
<path style=" stroke:none;fill-rule:evenodd;fill:rgb(42.256165%,78.427124%,83.883667%);fill-opacity:1;" d="M 34.820312 15.671875 L 34.84375 15.699219 L 17.246094 32.414062 L 17.222656 32.386719 L 34.820312 15.671875 "/>
<path style=" stroke:none;fill-rule:evenodd;fill:rgb(42.054749%,78.437805%,83.879089%);fill-opacity:1;" d="M 34.84375 15.699219 L 34.871094 15.726562 L 17.273438 32.441406 L 17.246094 32.414062 L 34.84375 15.699219 "/>
<path style=" stroke:none;fill-rule:evenodd;fill:rgb(41.853333%,78.451538%,83.895874%);fill-opacity:1;" d="M 34.871094 15.726562 L 34.898438 15.753906 L 17.300781 32.46875 L 17.273438 32.441406 L 34.871094 15.726562 "/>
<path style=" stroke:none;fill-rule:evenodd;fill:rgb(41.455078%,78.414917%,83.8974%);fill-opacity:1;" d="M 34.898438 15.753906 L 34.925781 15.78125 L 17.328125 32.496094 L 17.300781 32.46875 L 34.898438 15.753906 "/>
<path style=" stroke:none;fill-rule:evenodd;fill:rgb(41.099548%,78.034973%,84.074402%);fill-opacity:1;" d="M 34.925781 15.78125 L 34.949219 15.808594 L 17.351562 32.527344 L 17.328125 32.496094 L 34.925781 15.78125 "/>
<path style=" stroke:none;fill-rule:evenodd;fill:rgb(40.898132%,78.041077%,84.068298%);fill-opacity:1;" d="M 34.949219 15.808594 L 34.976562 15.835938 L 17.378906 32.550781 L 17.351562 32.527344 L 34.949219 15.808594 "/>
</g>
</g>
<g clip-path="url(#clip31)" clip-rule="nonzero">
<g clip-path="url(#clip32)" clip-rule="evenodd">
<path style=" stroke:none;fill-rule:evenodd;fill:rgb(40.496826%,78.036499%,83.595276%);fill-opacity:1;" d="M 34.976562 15.835938 L 35.003906 15.863281 L 17.40625 32.582031 L 17.378906 32.550781 L 34.976562 15.835938 "/>
<path style=" stroke:none;fill-rule:evenodd;fill:rgb(40.290833%,78.079224%,83.590698%);fill-opacity:1;" d="M 35.003906 15.863281 L 35.03125 15.890625 L 17.433594 32.609375 L 17.40625 32.582031 L 35.003906 15.863281 "/>
<path style=" stroke:none;fill-rule:evenodd;fill:rgb(39.936829%,77.676392%,83.807373%);fill-opacity:1;" d="M 35.03125 15.890625 L 35.054688 15.917969 L 17.457031 32.636719 L 17.433594 32.609375 L 35.03125 15.890625 "/>
<path style=" stroke:none;fill-rule:evenodd;fill:rgb(39.733887%,77.69165%,83.807373%);fill-opacity:1;" d="M 35.054688 15.917969 L 35.082031 15.945312 L 17.484375 32.664062 L 17.457031 32.636719 L 35.054688 15.917969 "/>
<path style=" stroke:none;fill-rule:evenodd;fill:rgb(39.337158%,77.656555%,83.811951%);fill-opacity:1;" d="M 35.082031 15.945312 L 35.109375 15.972656 L 17.511719 32.691406 L 17.484375 32.664062 L 35.082031 15.945312 "/>
<path style=" stroke:none;fill-rule:evenodd;fill:rgb(38.94043%,77.627563%,83.818054%);fill-opacity:1;" d="M 35.109375 15.972656 L 35.136719 16.003906 L 17.535156 32.71875 L 17.511719 32.691406 L 35.109375 15.972656 "/>
<path style=" stroke:none;fill-rule:evenodd;fill:rgb(38.780212%,77.293396%,83.444214%);fill-opacity:1;" d="M 35.136719 16.003906 L 35.160156 16.03125 L 17.5625 32.746094 L 17.535156 32.71875 L 35.136719 16.003906 "/>
<path style=" stroke:none;fill-rule:evenodd;fill:rgb(38.575745%,77.304077%,83.441162%);fill-opacity:1;" d="M 35.160156 16.03125 L 35.1875 16.058594 L 17.589844 32.773438 L 17.5625 32.746094 L 35.160156 16.03125 "/>
<path style=" stroke:none;fill-rule:evenodd;fill:rgb(38.372803%,77.314758%,83.43811%);fill-opacity:1;" d="M 35.1875 16.058594 L 35.214844 16.085938 L 17.617188 32.800781 L 17.589844 32.773438 L 35.1875 16.058594 "/>
<path style=" stroke:none;fill-rule:evenodd;fill:rgb(38.169861%,77.323914%,83.436584%);fill-opacity:1;" d="M 35.214844 16.085938 L 35.238281 16.113281 L 17.640625 32.828125 L 17.617188 32.800781 L 35.214844 16.085938 "/>
<path style=" stroke:none;fill-rule:evenodd;fill:rgb(37.82196%,76.925659%,83.596802%);fill-opacity:1;" d="M 35.238281 16.113281 L 35.265625 16.140625 L 17.667969 32.855469 L 17.640625 32.828125 L 35.238281 16.113281 "/>
<path style=" stroke:none;fill-rule:evenodd;fill:rgb(37.62207%,76.925659%,83.607483%);fill-opacity:1;" d="M 35.265625 16.140625 L 35.292969 16.167969 L 17.695312 32.886719 L 17.667969 32.855469 L 35.265625 16.140625 "/>
<path style=" stroke:none;fill-rule:evenodd;fill:rgb(37.22229%,76.872253%,82.99408%);fill-opacity:1;" d="M 35.292969 16.167969 L 35.320312 16.195312 L 17.71875 32.910156 L 17.695312 32.886719 L 35.292969 16.167969 "/>
<path style=" stroke:none;fill-rule:evenodd;fill:rgb(37.020874%,76.858521%,82.981873%);fill-opacity:1;" d="M 35.320312 16.195312 L 35.34375 16.222656 L 17.746094 32.941406 L 17.71875 32.910156 L 35.320312 16.195312 "/>
<path style=" stroke:none;fill-rule:evenodd;fill:rgb(36.669922%,76.495361%,83.19397%);fill-opacity:1;" d="M 35.34375 16.222656 L 35.371094 16.25 L 17.773438 32.96875 L 17.746094 32.941406 L 35.34375 16.222656 "/>
<path style=" stroke:none;fill-rule:evenodd;fill:rgb(36.663818%,76.538086%,83.178711%);fill-opacity:1;" d="M 35.371094 16.25 L 35.398438 16.277344 L 17.800781 32.996094 L 17.773438 32.96875 L 35.371094 16.25 "/>
</g>
</g>
<g clip-path="url(#clip33)" clip-rule="nonzero">
<g clip-path="url(#clip34)" clip-rule="evenodd">
<path style=" stroke:none;fill-rule:evenodd;fill:rgb(36.663818%,76.538086%,83.178711%);fill-opacity:1;" d="M 35.269531 16.277344 L 49.019531 30.882812 L 49.019531 35.867188 L 20.605469 35.867188 L 17.734375 32.957031 L 35.269531 16.277344 "/>
</g>
</g>
<g clip-path="url(#clip35)" clip-rule="nonzero">
<g clip-path="url(#clip36)" clip-rule="evenodd">
<path style=" stroke:none;fill-rule:evenodd;fill:rgb(59.674072%,83.837891%,87.121582%);fill-opacity:1;" d="M 37.847656 8.292969 L 38.652344 9.128906 L 22.765625 24.273438 L 18.378906 19.585938 L 18.378906 8.292969 L 37.847656 8.292969 "/>
</g>
</g>
<g clip-path="url(#clip37)" clip-rule="nonzero">
<g clip-path="url(#clip38)" clip-rule="evenodd">
<path style=" stroke:none;fill-rule:evenodd;fill:rgb(59.674072%,83.837891%,87.121582%);fill-opacity:1;" d="M 38.652344 9.121094 L 38.671875 9.148438 L 22.726562 24.296875 L 22.703125 24.269531 L 38.652344 9.121094 "/>
<path style=" stroke:none;fill-rule:evenodd;fill:rgb(59.236145%,83.821106%,87.109375%);fill-opacity:1;" d="M 38.671875 9.148438 L 38.699219 9.171875 L 22.75 24.320312 L 22.726562 24.296875 L 38.671875 9.148438 "/>
<path style=" stroke:none;fill-rule:evenodd;fill:rgb(58.834839%,83.432007%,87.173462%);fill-opacity:1;" d="M 38.699219 9.171875 L 38.722656 9.195312 L 22.773438 24.34375 L 22.75 24.320312 L 38.699219 9.171875 "/>
<path style=" stroke:none;fill-rule:evenodd;fill:rgb(58.514404%,83.442688%,87.158203%);fill-opacity:1;" d="M 38.722656 9.195312 L 38.746094 9.222656 L 22.796875 24.371094 L 22.773438 24.34375 L 38.722656 9.195312 "/>
<path style=" stroke:none;fill-rule:evenodd;fill:rgb(58.21991%,83.479309%,86.756897%);fill-opacity:1;" d="M 38.746094 9.222656 L 38.769531 9.246094 L 22.820312 24.394531 L 22.796875 24.371094 L 38.746094 9.222656 "/>
<path style=" stroke:none;fill-rule:evenodd;fill:rgb(57.948303%,83.494568%,86.737061%);fill-opacity:1;" d="M 38.769531 9.246094 L 38.792969 9.273438 L 22.84375 24.421875 L 22.820312 24.394531 L 38.769531 9.246094 "/>
<path style=" stroke:none;fill-rule:evenodd;fill:rgb(57.550049%,83.126831%,86.831665%);fill-opacity:1;" d="M 38.792969 9.273438 L 38.816406 9.296875 L 22.867188 24.445312 L 22.84375 24.421875 L 38.792969 9.273438 "/>
<path style=" stroke:none;fill-rule:evenodd;fill:rgb(57.182312%,83.102417%,86.825562%);fill-opacity:1;" d="M 38.816406 9.296875 L 38.839844 9.320312 L 22.894531 24.472656 L 22.867188 24.445312 L 38.816406 9.296875 "/>
<path style=" stroke:none;fill-rule:evenodd;fill:rgb(56.863403%,83.085632%,86.837769%);fill-opacity:1;" d="M 38.839844 9.320312 L 38.863281 9.347656 L 22.914062 24.496094 L 22.894531 24.472656 L 38.839844 9.320312 "/>
<path style=" stroke:none;fill-rule:evenodd;fill:rgb(56.616211%,83.102417%,86.836243%);fill-opacity:1;" d="M 38.863281 9.347656 L 38.886719 9.371094 L 22.941406 24.519531 L 22.914062 24.496094 L 38.863281 9.347656 "/>
<path style=" stroke:none;fill-rule:evenodd;fill:rgb(56.289673%,82.733154%,86.448669%);fill-opacity:1;" d="M 38.886719 9.371094 L 38.910156 9.398438 L 22.964844 24.546875 L 22.941406 24.519531 L 38.886719 9.371094 "/>
<path style=" stroke:none;fill-rule:evenodd;fill:rgb(56.021118%,82.731628%,86.442566%);fill-opacity:1;" d="M 38.910156 9.398438 L 38.933594 9.421875 L 22.988281 24.570312 L 22.964844 24.546875 L 38.910156 9.398438 "/>
<path style=" stroke:none;fill-rule:evenodd;fill:rgb(55.677795%,82.725525%,86.424255%);fill-opacity:1;" d="M 38.933594 9.421875 L 38.960938 9.445312 L 23.011719 24.597656 L 22.988281 24.570312 L 38.933594 9.421875 "/>
</g>
</g>
<g clip-path="url(#clip39)" clip-rule="nonzero">
<g clip-path="url(#clip40)" clip-rule="evenodd">
<path style=" stroke:none;fill-rule:evenodd;fill:rgb(55.233765%,82.714844%,86.39679%);fill-opacity:1;" d="M 38.960938 9.445312 L 38.980469 9.472656 L 23.035156 24.621094 L 23.011719 24.597656 L 38.960938 9.445312 "/>
</g>
</g>
<g clip-path="url(#clip41)" clip-rule="nonzero">
<g clip-path="url(#clip42)" clip-rule="evenodd">
<path style=" stroke:none;fill-rule:evenodd;fill:rgb(54.88739%,82.315063%,86.56311%);fill-opacity:1;" d="M 38.980469 9.472656 L 39.007812 9.496094 L 23.058594 24.644531 L 23.035156 24.621094 L 38.980469 9.472656 "/>
<path style=" stroke:none;fill-rule:evenodd;fill:rgb(54.59137%,82.333374%,86.552429%);fill-opacity:1;" d="M 39.007812 9.496094 L 39.03125 9.523438 L 23.082031 24.671875 L 23.058594 24.644531 L 39.007812 9.496094 "/>
<path style=" stroke:none;fill-rule:evenodd;fill:rgb(54.096985%,82.354736%,85.905457%);fill-opacity:1;" d="M 39.03125 9.523438 L 39.054688 9.546875 L 23.105469 24.695312 L 23.082031 24.671875 L 39.03125 9.523438 "/>
<path style=" stroke:none;fill-rule:evenodd;fill:rgb(53.623962%,82.37915%,85.917664%);fill-opacity:1;" d="M 39.054688 9.546875 L 39.078125 9.570312 L 23.128906 24.722656 L 23.105469 24.695312 L 39.054688 9.546875 "/>
<path style=" stroke:none;fill-rule:evenodd;fill:rgb(53.308105%,81.932068%,86.077881%);fill-opacity:1;" d="M 39.078125 9.570312 L 39.101562 9.597656 L 23.152344 24.746094 L 23.128906 24.722656 L 39.078125 9.570312 "/>
<path style=" stroke:none;fill-rule:evenodd;fill:rgb(52.984619%,81.965637%,86.058044%);fill-opacity:1;" d="M 39.101562 9.597656 L 39.125 9.621094 L 23.175781 24.769531 L 23.152344 24.746094 L 39.101562 9.597656 "/>
<path style=" stroke:none;fill-rule:evenodd;fill:rgb(52.709961%,82.03125%,86.047363%);fill-opacity:1;" d="M 39.125 9.621094 L 39.148438 9.648438 L 23.203125 24.796875 L 23.175781 24.769531 L 39.125 9.621094 "/>
<path style=" stroke:none;fill-rule:evenodd;fill:rgb(52.432251%,82.099915%,86.056519%);fill-opacity:1;" d="M 39.148438 9.648438 L 39.171875 9.671875 L 23.226562 24.820312 L 23.203125 24.796875 L 39.148438 9.648438 "/>
<path style=" stroke:none;fill-rule:evenodd;fill:rgb(51.919556%,81.619263%,85.644531%);fill-opacity:1;" d="M 39.171875 9.671875 L 39.195312 9.695312 L 23.25 24.847656 L 23.226562 24.820312 L 39.171875 9.671875 "/>
<path style=" stroke:none;fill-rule:evenodd;fill:rgb(51.548767%,81.625366%,85.658264%);fill-opacity:1;" d="M 39.195312 9.695312 L 39.21875 9.722656 L 23.273438 24.871094 L 23.25 24.847656 L 39.195312 9.695312 "/>
<path style=" stroke:none;fill-rule:evenodd;fill:rgb(51.272583%,81.663513%,85.693359%);fill-opacity:1;" d="M 39.21875 9.722656 L 39.242188 9.746094 L 23.296875 24.894531 L 23.273438 24.871094 L 39.21875 9.722656 "/>
<path style=" stroke:none;fill-rule:evenodd;fill:rgb(50.933838%,81.225586%,85.760498%);fill-opacity:1;" d="M 39.242188 9.746094 L 39.269531 9.773438 L 23.320312 24.921875 L 23.296875 24.894531 L 39.242188 9.746094 "/>
<path style=" stroke:none;fill-rule:evenodd;fill:rgb(50.637817%,81.228638%,85.760498%);fill-opacity:1;" d="M 39.269531 9.773438 L 39.292969 9.796875 L 23.34375 24.945312 L 23.320312 24.921875 L 39.269531 9.773438 "/>
<path style=" stroke:none;fill-rule:evenodd;fill:rgb(50.363159%,81.242371%,85.766602%);fill-opacity:1;" d="M 39.292969 9.796875 L 39.316406 9.820312 L 23.367188 24.972656 L 23.34375 24.945312 L 39.292969 9.796875 "/>
<path style=" stroke:none;fill-rule:evenodd;fill:rgb(49.961853%,81.30188%,85.388184%);fill-opacity:1;" d="M 39.316406 9.820312 L 39.339844 9.847656 L 23.390625 24.996094 L 23.367188 24.972656 L 39.316406 9.820312 "/>
</g>
</g>
<g clip-path="url(#clip43)" clip-rule="nonzero">
<g clip-path="url(#clip44)" clip-rule="evenodd">
<path style=" stroke:none;fill-rule:evenodd;fill:rgb(49.601746%,80.831909%,85.421753%);fill-opacity:1;" d="M 39.339844 9.847656 L 39.363281 9.871094 L 23.414062 25.019531 L 23.390625 24.996094 L 39.339844 9.847656 "/>
<path style=" stroke:none;fill-rule:evenodd;fill:rgb(49.398804%,80.87616%,85.432434%);fill-opacity:1;" d="M 39.363281 9.871094 L 39.386719 9.898438 L 23.4375 25.046875 L 23.414062 25.019531 L 39.363281 9.871094 "/>
<path style=" stroke:none;fill-rule:evenodd;fill:rgb(49.002075%,80.880737%,85.449219%);fill-opacity:1;" d="M 39.386719 9.898438 L 39.410156 9.921875 L 23.460938 25.070312 L 23.4375 25.046875 L 39.386719 9.898438 "/>
<path style=" stroke:none;fill-rule:evenodd;fill:rgb(48.796082%,80.957031%,85.453796%);fill-opacity:1;" d="M 39.410156 9.921875 L 39.433594 9.945312 L 23.484375 25.097656 L 23.460938 25.070312 L 39.410156 9.921875 "/>
<path style=" stroke:none;fill-rule:evenodd;fill:rgb(48.248291%,80.406189%,85.455322%);fill-opacity:1;" d="M 39.433594 9.945312 L 39.457031 9.972656 L 23.511719 25.121094 L 23.484375 25.097656 L 39.433594 9.945312 "/>
<path style=" stroke:none;fill-rule:evenodd;fill:rgb(47.842407%,80.473328%,85.10437%);fill-opacity:1;" d="M 39.457031 9.972656 L 39.480469 9.996094 L 23.535156 25.144531 L 23.511719 25.121094 L 39.457031 9.972656 "/>
<path style=" stroke:none;fill-rule:evenodd;fill:rgb(47.637939%,80.528259%,85.102844%);fill-opacity:1;" d="M 39.480469 9.996094 L 39.507812 10.023438 L 23.558594 25.171875 L 23.535156 25.144531 L 39.480469 9.996094 "/>
<path style=" stroke:none;fill-rule:evenodd;fill:rgb(47.434998%,80.578613%,85.116577%);fill-opacity:1;" d="M 39.507812 10.023438 L 39.53125 10.046875 L 23.582031 25.195312 L 23.558594 25.171875 L 39.507812 10.023438 "/>
<path style=" stroke:none;fill-rule:evenodd;fill:rgb(46.884155%,80.070496%,85.098267%);fill-opacity:1;" d="M 39.53125 10.046875 L 39.550781 10.070312 L 23.605469 25.222656 L 23.582031 25.195312 L 39.53125 10.046875 "/>
<path style=" stroke:none;fill-rule:evenodd;fill:rgb(46.490479%,80.030823%,85.093689%);fill-opacity:1;" d="M 39.550781 10.070312 L 39.578125 10.097656 L 23.628906 25.246094 L 23.605469 25.222656 L 39.550781 10.070312 "/>
<path style=" stroke:none;fill-rule:evenodd;fill:rgb(46.09375%,79.989624%,85.070801%);fill-opacity:1;" d="M 39.578125 10.097656 L 39.601562 10.121094 L 23.652344 25.273438 L 23.628906 25.246094 L 39.578125 10.097656 "/>
<path style=" stroke:none;fill-rule:evenodd;fill:rgb(45.883179%,80.088806%,84.587097%);fill-opacity:1;" d="M 39.601562 10.121094 L 39.625 10.148438 L 23.675781 25.296875 L 23.652344 25.273438 L 39.601562 10.121094 "/>
<path style=" stroke:none;fill-rule:evenodd;fill:rgb(45.533752%,79.579163%,84.65271%);fill-opacity:1;" d="M 39.625 10.148438 L 39.648438 10.171875 L 23.699219 25.320312 L 23.675781 25.296875 L 39.625 10.148438 "/>
<path style=" stroke:none;fill-rule:evenodd;fill:rgb(45.333862%,79.598999%,84.613037%);fill-opacity:1;" d="M 39.648438 10.171875 L 39.671875 10.195312 L 23.722656 25.347656 L 23.699219 25.320312 L 39.648438 10.171875 "/>
<path style=" stroke:none;fill-rule:evenodd;fill:rgb(44.935608%,79.574585%,84.564209%);fill-opacity:1;" d="M 39.671875 10.195312 L 39.695312 10.222656 L 23.746094 25.371094 L 23.722656 25.347656 L 39.671875 10.195312 "/>
<path style=" stroke:none;fill-rule:evenodd;fill:rgb(44.535828%,79.56543%,84.539795%);fill-opacity:1;" d="M 39.695312 10.222656 L 39.71875 10.246094 L 23.773438 25.398438 L 23.746094 25.371094 L 39.695312 10.222656 "/>
<path style=" stroke:none;fill-rule:evenodd;fill:rgb(44.377136%,79.170227%,84.667969%);fill-opacity:1;" d="M 39.71875 10.246094 L 39.742188 10.273438 L 23.796875 25.421875 L 23.773438 25.398438 L 39.71875 10.246094 "/>
<path style=" stroke:none;fill-rule:evenodd;fill:rgb(43.97583%,79.173279%,84.132385%);fill-opacity:1;" d="M 39.742188 10.273438 L 39.765625 10.296875 L 23.820312 25.445312 L 23.796875 25.421875 L 39.742188 10.273438 "/>
<path style=" stroke:none;fill-rule:evenodd;fill:rgb(43.772888%,79.214478%,84.12323%);fill-opacity:1;" d="M 39.765625 10.296875 L 39.789062 10.324219 L 23.84375 25.472656 L 23.820312 25.445312 L 39.765625 10.296875 "/>
<path style=" stroke:none;fill-rule:evenodd;fill:rgb(43.566895%,79.260254%,84.136963%);fill-opacity:1;" d="M 39.789062 10.324219 L 39.816406 10.347656 L 23.867188 25.496094 L 23.84375 25.472656 L 39.789062 10.324219 "/>
<path style=" stroke:none;fill-rule:evenodd;fill:rgb(43.214417%,78.813171%,84.213257%);fill-opacity:1;" d="M 39.816406 10.347656 L 39.839844 10.371094 L 23.890625 25.523438 L 23.867188 25.496094 L 39.816406 10.347656 "/>
<path style=" stroke:none;fill-rule:evenodd;fill:rgb(42.817688%,78.773499%,84.191895%);fill-opacity:1;" d="M 39.839844 10.371094 L 39.863281 10.398438 L 23.914062 25.546875 L 23.890625 25.523438 L 39.839844 10.371094 "/>
<path style=" stroke:none;fill-rule:evenodd;fill:rgb(42.420959%,78.741455%,84.194946%);fill-opacity:1;" d="M 39.863281 10.398438 L 39.886719 10.421875 L 23.9375 25.570312 L 23.914062 25.546875 L 39.863281 10.398438 "/>
<path style=" stroke:none;fill-rule:evenodd;fill:rgb(42.256165%,78.427124%,83.883667%);fill-opacity:1;" d="M 39.886719 10.421875 L 39.910156 10.449219 L 23.960938 25.597656 L 23.9375 25.570312 L 39.886719 10.421875 "/>
<path style=" stroke:none;fill-rule:evenodd;fill:rgb(42.054749%,78.437805%,83.879089%);fill-opacity:1;" d="M 39.910156 10.449219 L 39.933594 10.472656 L 23.984375 25.621094 L 23.960938 25.597656 L 39.910156 10.449219 "/>
<path style=" stroke:none;fill-rule:evenodd;fill:rgb(41.853333%,78.451538%,83.895874%);fill-opacity:1;" d="M 39.933594 10.472656 L 39.957031 10.496094 L 24.007812 25.648438 L 23.984375 25.621094 L 39.933594 10.472656 "/>
</g>
</g>
<g clip-path="url(#clip45)" clip-rule="nonzero">
<g clip-path="url(#clip46)" clip-rule="evenodd">
<path style=" stroke:none;fill-rule:evenodd;fill:rgb(41.455078%,78.414917%,83.8974%);fill-opacity:1;" d="M 39.957031 10.496094 L 39.980469 10.523438 L 24.03125 25.671875 L 24.007812 25.648438 L 39.957031 10.496094 "/>
</g>
</g>
<g clip-path="url(#clip47)" clip-rule="nonzero">
<g clip-path="url(#clip48)" clip-rule="evenodd">
<path style=" stroke:none;fill-rule:evenodd;fill:rgb(41.099548%,78.034973%,84.074402%);fill-opacity:1;" d="M 39.980469 10.523438 L 40.003906 10.546875 L 24.054688 25.695312 L 24.03125 25.671875 L 39.980469 10.523438 "/>
<path style=" stroke:none;fill-rule:evenodd;fill:rgb(40.898132%,78.041077%,84.068298%);fill-opacity:1;" d="M 40.003906 10.546875 L 40.027344 10.574219 L 24.082031 25.722656 L 24.054688 25.695312 L 40.003906 10.546875 "/>
<path style=" stroke:none;fill-rule:evenodd;fill:rgb(40.496826%,78.036499%,83.595276%);fill-opacity:1;" d="M 40.027344 10.574219 L 40.050781 10.597656 L 24.105469 25.746094 L 24.082031 25.722656 L 40.027344 10.574219 "/>
<path style=" stroke:none;fill-rule:evenodd;fill:rgb(40.290833%,78.079224%,83.590698%);fill-opacity:1;" d="M 40.050781 10.597656 L 40.074219 10.621094 L 24.128906 25.773438 L 24.105469 25.746094 L 40.050781 10.597656 "/>
<path style=" stroke:none;fill-rule:evenodd;fill:rgb(39.936829%,77.676392%,83.807373%);fill-opacity:1;" d="M 40.074219 10.621094 L 40.097656 10.648438 L 24.152344 25.796875 L 24.128906 25.773438 L 40.074219 10.621094 "/>
<path style=" stroke:none;fill-rule:evenodd;fill:rgb(39.733887%,77.69165%,83.807373%);fill-opacity:1;" d="M 40.097656 10.648438 L 40.121094 10.671875 L 24.175781 25.820312 L 24.152344 25.796875 L 40.097656 10.648438 "/>
<path style=" stroke:none;fill-rule:evenodd;fill:rgb(39.337158%,77.656555%,83.811951%);fill-opacity:1;" d="M 40.121094 10.671875 L 40.148438 10.699219 L 24.199219 25.847656 L 24.175781 25.820312 L 40.121094 10.671875 "/>
<path style=" stroke:none;fill-rule:evenodd;fill:rgb(38.94043%,77.627563%,83.818054%);fill-opacity:1;" d="M 40.148438 10.699219 L 40.171875 10.722656 L 24.222656 25.871094 L 24.199219 25.847656 L 40.148438 10.699219 "/>
<path style=" stroke:none;fill-rule:evenodd;fill:rgb(38.780212%,77.293396%,83.444214%);fill-opacity:1;" d="M 40.171875 10.722656 L 40.195312 10.746094 L 24.246094 25.898438 L 24.222656 25.871094 L 40.171875 10.722656 "/>
<path style=" stroke:none;fill-rule:evenodd;fill:rgb(38.575745%,77.304077%,83.441162%);fill-opacity:1;" d="M 40.195312 10.746094 L 40.21875 10.773438 L 24.269531 25.921875 L 24.246094 25.898438 L 40.195312 10.746094 "/>
<path style=" stroke:none;fill-rule:evenodd;fill:rgb(38.372803%,77.314758%,83.43811%);fill-opacity:1;" d="M 40.21875 10.773438 L 40.242188 10.796875 L 24.292969 25.945312 L 24.269531 25.921875 L 40.21875 10.773438 "/>
<path style=" stroke:none;fill-rule:evenodd;fill:rgb(38.169861%,77.323914%,83.436584%);fill-opacity:1;" d="M 40.242188 10.796875 L 40.265625 10.824219 L 24.316406 25.972656 L 24.292969 25.945312 L 40.242188 10.796875 "/>
<path style=" stroke:none;fill-rule:evenodd;fill:rgb(37.82196%,76.925659%,83.596802%);fill-opacity:1;" d="M 40.265625 10.824219 L 40.289062 10.847656 L 24.34375 25.996094 L 24.316406 25.972656 L 40.265625 10.824219 "/>
<path style=" stroke:none;fill-rule:evenodd;fill:rgb(37.62207%,76.925659%,83.607483%);fill-opacity:1;" d="M 40.289062 10.847656 L 40.3125 10.871094 L 24.363281 26.023438 L 24.34375 25.996094 L 40.289062 10.847656 "/>
<path style=" stroke:none;fill-rule:evenodd;fill:rgb(37.22229%,76.872253%,82.99408%);fill-opacity:1;" d="M 40.3125 10.871094 L 40.335938 10.898438 L 24.390625 26.046875 L 24.363281 26.023438 L 40.3125 10.871094 "/>
<path style=" stroke:none;fill-rule:evenodd;fill:rgb(37.020874%,76.858521%,82.981873%);fill-opacity:1;" d="M 40.335938 10.898438 L 40.359375 10.921875 L 24.414062 26.070312 L 24.390625 26.046875 L 40.335938 10.898438 "/>
<path style=" stroke:none;fill-rule:evenodd;fill:rgb(36.669922%,76.495361%,83.19397%);fill-opacity:1;" d="M 40.359375 10.921875 L 40.386719 10.949219 L 24.4375 26.097656 L 24.414062 26.070312 L 40.359375 10.921875 "/>
<path style=" stroke:none;fill-rule:evenodd;fill:rgb(36.663818%,76.538086%,83.178711%);fill-opacity:1;" d="M 40.386719 10.949219 L 40.40625 10.972656 L 24.460938 26.121094 L 24.4375 26.097656 L 40.386719 10.949219 "/>
</g>
</g>
<g clip-path="url(#clip49)" clip-rule="nonzero">
<g clip-path="url(#clip50)" clip-rule="evenodd">
<path style=" stroke:none;fill-rule:evenodd;fill:rgb(36.663818%,76.538086%,83.178711%);fill-opacity:1;" d="M 40.488281 10.972656 L 53.101562 24.164062 L 53.101562 28.71875 L 26.984375 28.71875 L 24.5 26.09375 L 40.488281 10.972656 "/>
</g>
</g>
</g>
</svg>
