<?xml version="1.0" encoding="UTF-8"?>
<svg xmlns="http://www.w3.org/2000/svg" xmlns:xlink="http://www.w3.org/1999/xlink" width="56pt" height="56pt" viewBox="0 0 56 56" version="1.1">
<g id="surface1">
<rect x="0" y="0" width="56" height="56" style="fill:rgb(58.053589%,8.825684%,19.969177%);fill-opacity:1;stroke:none;"/>
<path style=" stroke:none;fill-rule:nonzero;fill:rgb(100%,100%,100%);fill-opacity:1;" d="M 10.847656 30.785156 L 10.832031 30.773438 Z M 18.09375 24.4375 L 18.09375 24.785156 L 17.859375 25.136719 L 17.742188 25.371094 L 17.507812 25.722656 L 17.273438 25.957031 L 17.039062 26.074219 L 16.808594 26.304688 L 16.457031 26.539062 L 16.222656 26.65625 L 15.523438 26.890625 L 15.171875 26.890625 L 14.585938 27.007812 L 14.238281 27.125 L 12.890625 27.125 L 15.058594 22.683594 L 16.339844 22.683594 L 16.339844 22.566406 L 16.921875 22.683594 L 17.039062 22.683594 L 17.273438 22.800781 L 17.390625 22.800781 L 17.625 22.917969 L 17.742188 22.917969 L 17.859375 23.035156 L 18.09375 23.035156 L 18.09375 23.386719 L 18.210938 23.5 L 18.210938 24.203125 L 18.09375 24.4375 L 18.324219 24.496094 Z M 14.9375 22.332031 L 14.9375 22.390625 L 14.820312 22.363281 L 14.820312 22.332031 Z M 23.933594 22.097656 L 23.933594 21.75 L 23.816406 21.515625 L 23.699219 21.164062 L 23.46875 20.699219 L 23.117188 20.230469 L 22.765625 19.878906 L 21.011719 19.179688 L 20.3125 19.0625 L 19.726562 18.945312 L 18.910156 18.945312 L 18.09375 18.828125 L 16.691406 18.828125 L 16.691406 19.0625 L 16.691406 18.828125 L 11.433594 18.828125 L 11.433594 18.945312 L 2.4375 36.9375 L 2.667969 36.996094 L 2.785156 37.027344 L 2.785156 37.171875 L 7.8125 37.171875 L 7.925781 37.054688 L 7.695312 36.996094 L 7.925781 37.054688 L 10.964844 30.863281 L 13.417969 30.863281 L 13.378906 30.746094 L 13.417969 30.863281 L 15.054688 30.863281 L 15.871094 30.746094 L 16.808594 30.511719 L 17.507812 30.160156 L 18.324219 29.925781 L 19.144531 29.578125 L 19.84375 29.226562 L 20.429688 28.757812 L 20.78125 28.410156 L 21.128906 28.175781 L 21.714844 27.589844 L 22.179688 27.007812 L 22.414062 26.65625 L 22.765625 26.421875 L 22.882812 26.074219 L 23.46875 24.90625 L 23.699219 23.96875 L 23.589844 23.933594 L 23.589844 23.929688 L 23.699219 23.96875 L 23.933594 23.269531 L 23.933594 22.917969 L 24.050781 22.449219 L 23.933594 22.097656 "/>
<path style=" stroke:none;fill-rule:nonzero;fill:rgb(100%,100%,100%);fill-opacity:1;" d="M 2.320312 37.171875 L 2.667969 37.171875 L 2.667969 36.996094 L 2.4375 36.9375 L 2.320312 37.171875 "/>
<path style=" stroke:none;fill-rule:nonzero;fill:rgb(100%,100%,100%);fill-opacity:1;" d="M 28.5625 37.171875 L 28.675781 37.171875 L 28.5625 36.996094 Z M 28.5625 37.171875 "/>
<path style=" stroke:none;fill-rule:nonzero;fill:rgb(100%,100%,100%);fill-opacity:1;" d="M 38.960938 32.847656 Z M 53.332031 19.179688 L 53.679688 18.828125 L 48.074219 18.828125 L 47.957031 18.945312 L 48.148438 19.007812 L 47.957031 18.945312 L 39.617188 31.554688 L 43.398438 19.0625 L 43.164062 19.003906 L 43.398438 19.0625 L 43.398438 18.828125 L 36.621094 18.828125 L 36.621094 18.945312 L 36.8125 19.007812 L 36.621094 18.945312 L 28.058594 31.578125 L 31.949219 19.0625 L 31.832031 19.023438 L 31.949219 19.0625 L 32.066406 18.828125 L 26.925781 18.828125 L 26.925781 18.945312 L 26.925781 18.828125 L 26.691406 18.828125 L 26.691406 18.945312 L 21.902344 36.9375 L 22.136719 36.996094 L 21.902344 36.9375 L 21.785156 37.171875 L 28.5625 37.171875 L 28.5625 36.996094 L 28.675781 37.171875 L 37.300781 24.445312 L 33.585938 36.9375 L 33.820312 36.996094 L 33.585938 36.9375 L 33.585938 37.171875 L 40.476562 37.171875 L 53.332031 19.179688 L 53.214844 19.101562 L 53.332031 19.179688 "/>
</g>
</svg>
