<?xml version="1.0" encoding="UTF-8"?>
<svg xmlns="http://www.w3.org/2000/svg" xmlns:xlink="http://www.w3.org/1999/xlink" width="56pt" height="56pt" viewBox="0 0 56 56" version="1.1">
<g id="surface1">
<rect x="0" y="0" width="56" height="56" style="fill:rgb(95.66803%,95.779419%,96.777344%);fill-opacity:1;stroke:none;"/>
<path style=" stroke:none;fill-rule:nonzero;fill:rgb(94.389343%,93.711853%,11.31897%);fill-opacity:1;" d="M 26.992188 29.113281 C 26.972656 29.132812 26.953125 29.132812 26.953125 29.148438 C 26.953125 29.132812 26.972656 29.113281 26.992188 29.113281 "/>
<path style=" stroke:none;fill-rule:nonzero;fill:rgb(94.029236%,23.928833%,11.940002%);fill-opacity:1;" d="M 50.679688 17.34375 C 50.121094 17.785156 49.660156 18.132812 49.21875 18.5 C 46.097656 21.054688 43.617188 24.171875 41.273438 27.414062 C 39.957031 29.238281 38.6875 31.097656 37.328125 32.890625 C 34.804688 36.222656 31.359375 38.035156 27.253906 38.367188 C 23.714844 38.648438 20.152344 38.585938 16.601562 38.675781 C 16.535156 38.675781 16.46875 38.648438 16.320312 38.617188 C 16.453125 38.429688 16.550781 38.28125 16.660156 38.136719 C 20.332031 33.308594 24.011719 28.488281 27.679688 23.65625 C 30.253906 20.265625 33.628906 18.195312 37.828125 17.476562 C 38.328125 17.390625 38.839844 17.328125 39.347656 17.324219 C 42.972656 17.3125 46.597656 17.316406 50.222656 17.320312 C 50.328125 17.320312 50.429688 17.332031 50.679688 17.34375 "/>
<path style=" stroke:none;fill-rule:nonzero;fill:rgb(13.832092%,26.898193%,50.628662%);fill-opacity:1;" d="M 34.128906 17.324219 C 32.640625 17.914062 31 18.492188 29.421875 19.207031 C 27.667969 20.007812 26.246094 21.234375 25.078125 22.789062 C 21.195312 27.941406 17.273438 33.058594 13.378906 38.199219 C 13.117188 38.542969 12.847656 38.691406 12.414062 38.6875 C 10.234375 38.667969 8.050781 38.679688 5.871094 38.675781 C 5.71875 38.675781 5.5625 38.65625 5.320312 38.640625 C 5.480469 38.414062 5.59375 38.246094 5.714844 38.089844 C 9.355469 33.304688 13.039062 28.558594 16.617188 23.730469 C 19.1875 20.265625 22.636719 18.382812 26.796875 17.640625 C 27.625 17.488281 28.464844 17.363281 29.304688 17.339844 C 30.972656 17.292969 32.644531 17.324219 34.128906 17.324219 "/>
</g>
</svg>
