<?xml version="1.0" encoding="UTF-8"?>
<svg xmlns="http://www.w3.org/2000/svg" xmlns:xlink="http://www.w3.org/1999/xlink" width="56pt" height="56pt" viewBox="0 0 56 56" version="1.1">
<g id="surface1">
<rect x="0" y="0" width="56" height="56" style="fill:rgb(95.66803%,95.779419%,96.777344%);fill-opacity:1;stroke:none;"/>
<path style=" stroke:none;fill-rule:nonzero;fill:rgb(77.667236%,11.038208%,17.991638%);fill-opacity:1;" d="M 29.757812 26.191406 C 29.359375 26.613281 29.058594 27.109375 28.726562 27.582031 C 28.023438 28.667969 27.34375 29.785156 26.898438 31.007812 C 26.203125 32.8125 25.511719 34.617188 24.796875 36.410156 C 24.332031 37.613281 23.820312 38.800781 23.382812 40.015625 C 23.613281 39.695312 23.777344 39.332031 23.953125 38.976562 C 24.382812 38.148438 24.835938 37.332031 25.277344 36.511719 C 25.953125 35.277344 26.613281 34.035156 27.335938 32.828125 C 28.566406 30.789062 29.574219 28.601562 30.132812 26.28125 C 30.007812 26.253906 29.882812 26.222656 29.757812 26.191406 Z M 28.976562 25.933594 C 27.828125 26.859375 26.671875 27.796875 25.707031 28.921875 C 24.992188 29.671875 24.40625 30.535156 23.789062 31.367188 C 23.046875 32.429688 22.21875 33.425781 21.453125 34.46875 C 20.65625 35.523438 19.816406 36.539062 19.039062 37.609375 C 19.511719 37.238281 19.84375 36.734375 20.257812 36.308594 C 21.179688 35.335938 22.140625 34.398438 23.058594 33.421875 C 23.976562 32.570312 24.847656 31.671875 25.75 30.804688 C 26.179688 30.425781 26.539062 29.984375 26.914062 29.554688 C 27.5625 28.785156 28.175781 27.980469 28.730469 27.136719 C 28.960938 26.78125 29.222656 26.445312 29.417969 26.066406 C 29.304688 25.960938 29.132812 25.792969 28.976562 25.933594 M 47.898438 17.726562 C 46.644531 18.144531 45.390625 18.570312 44.125 18.964844 C 42.90625 19.347656 41.683594 19.738281 40.4375 20.042969 C 38.066406 20.625 35.796875 21.574219 33.65625 22.738281 C 33.683594 22.863281 33.710938 22.988281 33.734375 23.113281 C 34.570312 23.03125 35.390625 22.824219 36.203125 22.632812 C 38.320312 22.101562 40.378906 21.316406 42.308594 20.296875 C 43.273438 19.859375 44.253906 19.46875 45.226562 19.058594 C 46.453125 18.558594 47.664062 18.027344 48.890625 17.53125 C 49.101562 17.433594 49.355469 17.386719 49.503906 17.191406 C 48.972656 17.378906 48.441406 17.5625 47.898438 17.726562 M 48.203125 11.960938 C 48.402344 11.804688 48.667969 11.828125 48.90625 11.824219 C 50.824219 11.832031 52.742188 11.796875 54.65625 11.824219 C 54.519531 12.121094 54.339844 12.394531 54.15625 12.667969 C 52.179688 15.730469 50.207031 18.796875 48.234375 21.863281 C 48.136719 21.875 48.042969 21.886719 47.945312 21.894531 C 46.328125 21.996094 44.707031 22.144531 43.085938 22.214844 C 42.539062 22.242188 41.992188 22.292969 41.445312 22.3125 C 39.417969 22.351562 37.390625 22.574219 35.40625 22.996094 C 34.902344 23.109375 34.390625 23.195312 33.90625 23.390625 C 33.894531 23.515625 33.882812 23.640625 33.871094 23.765625 C 36.546875 23.976562 39.242188 23.746094 41.867188 23.210938 C 43.222656 22.949219 44.589844 22.75 45.949219 22.503906 C 46.605469 22.402344 47.253906 22.246094 47.917969 22.199219 C 47.917969 22.238281 47.90625 22.316406 47.90625 22.355469 C 47.277344 23.386719 46.582031 24.378906 45.957031 25.414062 L 45.996094 25.441406 C 45.859375 25.441406 45.726562 25.445312 45.59375 25.441406 C 44.324219 25.308594 43.078125 25.011719 41.824219 24.78125 C 39.226562 24.199219 36.5625 23.996094 33.90625 24.042969 C 33.878906 24.152344 33.847656 24.261719 33.820312 24.371094 C 34.425781 24.652344 35.085938 24.804688 35.730469 24.96875 C 36.984375 25.285156 38.269531 25.492188 39.554688 25.605469 C 41.398438 25.738281 43.246094 25.738281 45.085938 25.890625 C 45.21875 25.902344 45.355469 25.90625 45.492188 25.914062 C 45.507812 25.980469 45.503906 26.046875 45.488281 26.109375 C 45.003906 26.894531 44.480469 27.652344 44.007812 28.441406 C 43.082031 28.078125 42.164062 27.691406 41.277344 27.246094 C 40.472656 26.863281 39.667969 26.46875 38.824219 26.171875 C 37.160156 25.597656 35.484375 25.011719 33.742188 24.710938 C 33.714844 24.832031 33.683594 24.953125 33.652344 25.074219 C 35.429688 26.164062 37.328125 27.074219 39.328125 27.6875 C 40.136719 27.917969 40.960938 28.109375 41.769531 28.34375 C 42.367188 28.519531 42.980469 28.644531 43.566406 28.863281 C 43.597656 28.875 43.664062 28.902344 43.695312 28.917969 C 43.179688 29.667969 42.707031 30.449219 42.195312 31.207031 C 41.335938 30.621094 40.53125 29.957031 39.734375 29.292969 C 39.308594 28.941406 38.90625 28.558594 38.457031 28.242188 C 36.867188 27.113281 35.1875 26.097656 33.40625 25.300781 C 33.34375 25.40625 33.277344 25.507812 33.214844 25.609375 C 34.683594 27.171875 36.363281 28.546875 38.238281 29.59375 C 39.476562 30.234375 40.679688 30.945312 41.878906 31.65625 C 41.542969 32.207031 41.210938 32.804688 41.234375 33.46875 C 41.261719 34.085938 41.699219 34.597656 42.203125 34.914062 C 42.707031 35.265625 43.292969 35.46875 43.855469 35.710938 C 43.019531 35.699219 42.1875 35.667969 41.351562 35.628906 C 40.699219 34.792969 39.996094 34 39.363281 33.148438 C 38.601562 32.15625 37.894531 31.125 37.160156 30.117188 C 36.460938 29.179688 35.660156 28.324219 34.832031 27.503906 C 34.207031 26.902344 33.609375 26.261719 32.886719 25.773438 C 32.816406 25.871094 32.746094 25.96875 32.691406 26.078125 C 32.769531 26.402344 33.003906 26.664062 33.164062 26.953125 C 34.230469 28.75 35.53125 30.417969 37.09375 31.816406 C 37.949219 32.535156 38.695312 33.371094 39.492188 34.152344 C 39.964844 34.644531 40.492188 35.085938 40.902344 35.632812 C 39.53125 35.574219 38.15625 35.664062 36.785156 35.71875 C 36.738281 35.613281 36.6875 35.511719 36.640625 35.40625 C 36.222656 34.378906 35.835938 33.339844 35.492188 32.289062 C 35.058594 31.046875 34.535156 29.835938 33.910156 28.679688 C 33.453125 27.828125 32.914062 27.023438 32.382812 26.210938 C 32.25 26.238281 32.113281 26.269531 31.980469 26.296875 C 32.039062 26.824219 32.183594 27.332031 32.320312 27.839844 C 32.753906 29.371094 33.339844 30.863281 34.125 32.25 C 34.523438 32.941406 35.027344 33.566406 35.375 34.285156 C 35.597656 34.765625 35.929688 35.195312 36.085938 35.707031 C 36.316406 35.769531 36.550781 35.742188 36.785156 35.765625 C 36.402344 35.847656 36.003906 35.746094 35.617188 35.820312 C 34.84375 35.871094 34.078125 35.988281 33.308594 36.058594 C 33.226562 36.0625 33.144531 36.066406 33.0625 36.066406 C 32.859375 34.597656 32.96875 33.105469 32.789062 31.636719 C 32.65625 30.417969 32.40625 29.21875 32.105469 28.03125 C 31.96875 27.507812 31.8125 26.988281 31.6875 26.460938 C 31.519531 26.457031 31.347656 26.457031 31.179688 26.453125 C 31.082031 28.453125 31.039062 30.488281 31.511719 32.449219 C 31.671875 33.148438 31.957031 33.808594 32.105469 34.507812 C 32.214844 34.992188 32.359375 35.472656 32.40625 35.96875 C 32.410156 36.03125 32.414062 36.15625 32.417969 36.21875 C 31.765625 36.296875 31.113281 36.417969 30.472656 36.582031 C 30.058594 36.683594 29.65625 36.824219 29.238281 36.90625 C 29.496094 35.515625 29.828125 34.136719 30.207031 32.773438 C 30.492188 31.800781 30.617188 30.796875 30.726562 29.792969 C 30.84375 28.679688 30.890625 27.5625 30.886719 26.445312 C 30.738281 26.453125 30.59375 26.457031 30.449219 26.464844 C 29.957031 27.691406 29.558594 28.953125 29.300781 30.25 C 28.917969 32.015625 28.964844 33.828125 28.832031 35.617188 C 28.789062 36.074219 28.792969 36.53125 28.710938 36.980469 C 28.703125 37.011719 28.6875 37.066406 28.679688 37.09375 C 27.738281 37.398438 26.785156 37.761719 26.023438 38.410156 C 25.609375 38.753906 25.335938 39.324219 25.484375 39.863281 C 25.664062 40.410156 26.089844 40.832031 26.539062 41.164062 C 27.410156 41.796875 28.40625 42.230469 29.417969 42.582031 C 30.808594 43.050781 32.265625 43.335938 33.734375 43.4375 C 35.023438 43.539062 36.320312 43.589844 37.613281 43.550781 C 36.003906 43.898438 34.359375 44.101562 32.714844 44.171875 C 30.25 44.269531 27.734375 43.890625 25.484375 42.851562 C 24.277344 42.246094 23.136719 41.523438 22.035156 40.742188 C 21.078125 40.050781 20.128906 39.347656 19.164062 38.671875 C 18.074219 37.980469 16.925781 37.382812 15.757812 36.832031 C 13.691406 35.882812 11.496094 35.238281 9.273438 34.765625 C 6.652344 34.21875 3.988281 33.902344 1.34375 33.515625 C 1.578125 33.472656 1.820312 33.460938 2.058594 33.46875 C 6.953125 33.546875 11.867188 33.175781 16.65625 32.132812 C 17.027344 32.046875 17.410156 32.011719 17.761719 31.851562 C 18.460938 31.53125 19.15625 31.191406 19.839844 30.828125 C 20.09375 30.683594 20.347656 30.53125 20.625 30.441406 C 20.351562 30.71875 20.003906 30.898438 19.699219 31.144531 C 19.324219 31.441406 18.945312 31.734375 18.558594 32.015625 C 17.800781 32.566406 17.070312 33.144531 16.320312 33.703125 C 15.964844 33.976562 15.589844 34.230469 15.261719 34.542969 C 15.769531 34.28125 16.246094 33.964844 16.734375 33.671875 C 18.480469 32.621094 20.171875 31.476562 21.949219 30.476562 C 23.253906 29.71875 24.617188 29.0625 25.824219 28.152344 C 26.878906 27.367188 27.898438 26.535156 28.84375 25.625 C 28.777344 25.535156 28.714844 25.445312 28.648438 25.355469 C 30.144531 24.371094 31.625 23.367188 33.113281 22.375 C 33.292969 22.429688 33.492188 22.523438 33.675781 22.425781 C 35.507812 21.628906 37.242188 20.621094 38.839844 19.421875 C 40.796875 17.921875 42.726562 16.382812 44.722656 14.929688 C 45.445312 14.363281 46.214844 13.855469 46.917969 13.269531 C 46.191406 13.636719 45.511719 14.089844 44.820312 14.523438 C 44.664062 14.617188 44.484375 14.660156 44.3125 14.707031 C 44.453125 14.578125 44.605469 14.457031 44.765625 14.347656 C 45.914062 13.554688 47.058594 12.757812 48.203125 11.960938 "/>
<path style=" stroke:none;fill-rule:nonzero;fill:rgb(94.102478%,55.549622%,7.182312%);fill-opacity:1;" d="M 44.820312 14.523438 C 45.511719 14.089844 46.191406 13.636719 46.917969 13.269531 C 46.214844 13.855469 45.445312 14.363281 44.722656 14.929688 C 42.726562 16.382812 40.796875 17.921875 38.839844 19.421875 C 37.242188 20.621094 35.507812 21.628906 33.675781 22.425781 C 33.492188 22.523438 33.292969 22.429688 33.113281 22.375 C 34.027344 21.636719 35.058594 21.066406 36 20.367188 C 36.300781 20.132812 36.636719 19.953125 36.953125 19.734375 C 38.164062 18.929688 39.324219 18.046875 40.5625 17.28125 C 41.164062 16.902344 41.671875 16.394531 42.289062 16.03125 C 42.722656 15.757812 43.117188 15.425781 43.5625 15.164062 C 43.816406 15.019531 44.027344 14.792969 44.3125 14.707031 C 44.484375 14.660156 44.664062 14.617188 44.820312 14.523438 "/>
<path style=" stroke:none;fill-rule:nonzero;fill:rgb(94.102478%,55.549622%,7.182312%);fill-opacity:1;" d="M 47.898438 17.726562 C 48.441406 17.5625 48.972656 17.378906 49.503906 17.191406 C 49.355469 17.386719 49.101562 17.433594 48.890625 17.53125 C 47.664062 18.027344 46.453125 18.558594 45.226562 19.058594 C 44.253906 19.46875 43.273438 19.859375 42.308594 20.296875 C 40.378906 21.316406 38.320312 22.101562 36.203125 22.632812 C 35.390625 22.824219 34.570312 23.03125 33.734375 23.113281 C 33.710938 22.988281 33.683594 22.863281 33.65625 22.738281 C 35.796875 21.574219 38.066406 20.625 40.4375 20.042969 C 41.683594 19.738281 42.90625 19.347656 44.125 18.964844 C 45.390625 18.570312 46.644531 18.144531 47.898438 17.726562 "/>
<path style=" stroke:none;fill-rule:nonzero;fill:rgb(94.102478%,55.549622%,7.182312%);fill-opacity:1;" d="M 43.085938 22.214844 C 44.707031 22.144531 46.328125 21.996094 47.945312 21.894531 C 48.015625 21.890625 48.15625 21.882812 48.226562 21.878906 C 48.128906 22.046875 48.035156 22.214844 47.90625 22.355469 C 47.90625 22.316406 47.917969 22.238281 47.917969 22.199219 C 47.253906 22.246094 46.605469 22.402344 45.949219 22.503906 C 44.589844 22.75 43.222656 22.949219 41.867188 23.210938 C 39.242188 23.746094 36.546875 23.976562 33.871094 23.765625 C 33.882812 23.640625 33.894531 23.515625 33.90625 23.390625 C 34.390625 23.195312 34.902344 23.109375 35.40625 22.996094 C 37.390625 22.574219 39.417969 22.351562 41.445312 22.3125 C 41.992188 22.292969 42.539062 22.242188 43.085938 22.214844 "/>
<path style=" stroke:none;fill-rule:nonzero;fill:rgb(94.102478%,55.549622%,7.182312%);fill-opacity:1;" d="M 33.90625 24.042969 C 36.5625 23.996094 39.226562 24.199219 41.824219 24.78125 C 43.078125 25.011719 44.324219 25.308594 45.59375 25.441406 C 45.707031 25.453125 45.820312 25.460938 45.933594 25.464844 C 45.828125 25.636719 45.722656 25.808594 45.605469 25.972656 C 45.46875 25.839844 45.257812 25.917969 45.085938 25.890625 C 43.246094 25.738281 41.398438 25.738281 39.554688 25.605469 C 38.269531 25.492188 36.984375 25.285156 35.730469 24.96875 C 35.085938 24.804688 34.425781 24.652344 33.820312 24.371094 C 33.847656 24.261719 33.878906 24.152344 33.90625 24.042969 "/>
<path style=" stroke:none;fill-rule:nonzero;fill:rgb(94.102478%,55.549622%,7.182312%);fill-opacity:1;" d="M 33.742188 24.710938 C 35.484375 25.011719 37.160156 25.597656 38.824219 26.171875 C 39.667969 26.46875 40.472656 26.863281 41.277344 27.246094 C 42.164062 27.691406 43.082031 28.078125 44.007812 28.441406 C 43.917969 28.605469 43.820312 28.761719 43.710938 28.910156 C 43.671875 28.898438 43.601562 28.875 43.566406 28.863281 C 42.980469 28.644531 42.367188 28.519531 41.769531 28.34375 C 40.960938 28.109375 40.136719 27.917969 39.328125 27.6875 C 37.328125 27.074219 35.429688 26.164062 33.652344 25.074219 C 33.683594 24.953125 33.714844 24.832031 33.742188 24.710938 "/>
<path style=" stroke:none;fill-rule:nonzero;fill:rgb(94.102478%,55.549622%,7.182312%);fill-opacity:1;" d="M 33.214844 25.609375 C 33.277344 25.507812 33.34375 25.40625 33.40625 25.300781 C 35.1875 26.097656 36.867188 27.113281 38.457031 28.242188 C 38.90625 28.558594 39.308594 28.941406 39.734375 29.292969 C 40.53125 29.957031 41.335938 30.621094 42.195312 31.207031 C 42.113281 31.371094 42.011719 31.527344 41.878906 31.65625 C 40.679688 30.945312 39.476562 30.234375 38.238281 29.59375 C 36.363281 28.546875 34.683594 27.171875 33.214844 25.609375 "/>
<path style=" stroke:none;fill-rule:nonzero;fill:rgb(94.102478%,55.549622%,7.182312%);fill-opacity:1;" d="M 27.304688 26.21875 C 27.753906 25.933594 28.183594 25.617188 28.648438 25.355469 C 28.714844 25.445312 28.777344 25.535156 28.84375 25.625 C 27.898438 26.535156 26.878906 27.367188 25.824219 28.152344 C 24.617188 29.0625 23.253906 29.71875 21.949219 30.476562 C 20.171875 31.476562 18.480469 32.621094 16.734375 33.671875 C 16.246094 33.964844 15.769531 34.28125 15.261719 34.542969 C 15.589844 34.230469 15.964844 33.976562 16.320312 33.703125 C 17.070312 33.144531 17.800781 32.566406 18.558594 32.015625 C 18.945312 31.734375 19.324219 31.441406 19.699219 31.144531 C 20.003906 30.898438 20.351562 30.71875 20.625 30.441406 C 20.808594 30.246094 21.042969 30.117188 21.28125 29.996094 C 21.992188 29.632812 22.65625 29.1875 23.335938 28.765625 C 23.847656 28.488281 24.316406 28.140625 24.804688 27.832031 C 25.652344 27.316406 26.46875 26.75 27.304688 26.21875 "/>
<path style=" stroke:none;fill-rule:nonzero;fill:rgb(94.102478%,55.549622%,7.182312%);fill-opacity:1;" d="M 32.691406 26.078125 C 32.746094 25.96875 32.816406 25.871094 32.886719 25.773438 C 33.609375 26.261719 34.207031 26.902344 34.832031 27.503906 C 35.660156 28.324219 36.460938 29.179688 37.160156 30.117188 C 37.894531 31.125 38.601562 32.15625 39.363281 33.148438 C 39.996094 34 40.699219 34.792969 41.351562 35.628906 C 41.203125 35.628906 41.050781 35.632812 40.902344 35.632812 C 40.492188 35.085938 39.964844 34.644531 39.492188 34.152344 C 38.695312 33.371094 37.949219 32.535156 37.09375 31.816406 C 35.53125 30.417969 34.230469 28.75 33.164062 26.953125 C 33.003906 26.664062 32.769531 26.402344 32.691406 26.078125 "/>
<path style=" stroke:none;fill-rule:nonzero;fill:rgb(94.102478%,55.549622%,7.182312%);fill-opacity:1;" d="M 28.976562 25.933594 C 29.132812 25.792969 29.304688 25.960938 29.417969 26.066406 C 29.222656 26.445312 28.960938 26.78125 28.730469 27.136719 C 28.175781 27.980469 27.5625 28.785156 26.914062 29.554688 C 26.539062 29.984375 26.179688 30.425781 25.75 30.804688 C 24.847656 31.671875 23.976562 32.570312 23.058594 33.421875 C 22.140625 34.398438 21.179688 35.335938 20.257812 36.308594 C 19.84375 36.734375 19.511719 37.238281 19.039062 37.609375 C 19.816406 36.539062 20.65625 35.523438 21.453125 34.46875 C 22.21875 33.425781 23.046875 32.429688 23.789062 31.367188 C 24.40625 30.535156 24.992188 29.671875 25.707031 28.921875 C 26.671875 27.796875 27.828125 26.859375 28.976562 25.933594 "/>
<path style=" stroke:none;fill-rule:nonzero;fill:rgb(94.102478%,55.549622%,7.182312%);fill-opacity:1;" d="M 29.757812 26.191406 C 29.882812 26.222656 30.007812 26.253906 30.132812 26.28125 C 29.574219 28.601562 28.566406 30.789062 27.335938 32.828125 C 26.613281 34.035156 25.953125 35.277344 25.277344 36.511719 C 24.835938 37.332031 24.382812 38.148438 23.953125 38.976562 C 23.777344 39.332031 23.613281 39.695312 23.382812 40.015625 C 23.820312 38.800781 24.332031 37.613281 24.796875 36.410156 C 25.511719 34.617188 26.203125 32.8125 26.898438 31.007812 C 27.34375 29.785156 28.023438 28.667969 28.726562 27.582031 C 29.058594 27.109375 29.359375 26.613281 29.757812 26.191406 "/>
<path style=" stroke:none;fill-rule:nonzero;fill:rgb(94.102478%,55.549622%,7.182312%);fill-opacity:1;" d="M 31.980469 26.296875 C 32.113281 26.269531 32.25 26.238281 32.382812 26.210938 C 32.914062 27.023438 33.453125 27.828125 33.910156 28.679688 C 34.535156 29.835938 35.058594 31.046875 35.492188 32.289062 C 35.835938 33.339844 36.222656 34.378906 36.640625 35.40625 C 36.691406 35.523438 36.738281 35.644531 36.785156 35.765625 C 36.550781 35.742188 36.316406 35.769531 36.085938 35.707031 C 35.929688 35.195312 35.597656 34.765625 35.375 34.285156 C 35.027344 33.566406 34.523438 32.941406 34.125 32.25 C 33.339844 30.863281 32.753906 29.371094 32.320312 27.839844 C 32.183594 27.332031 32.039062 26.824219 31.980469 26.296875 "/>
<path style=" stroke:none;fill-rule:nonzero;fill:rgb(94.102478%,55.549622%,7.182312%);fill-opacity:1;" d="M 29.300781 30.25 C 29.558594 28.953125 29.957031 27.691406 30.449219 26.464844 C 30.59375 26.457031 30.738281 26.453125 30.886719 26.445312 C 30.890625 27.5625 30.84375 28.679688 30.726562 29.792969 C 30.617188 30.796875 30.492188 31.800781 30.207031 32.773438 C 29.828125 34.136719 29.496094 35.515625 29.238281 36.90625 C 29.058594 36.988281 28.875 37.058594 28.6875 37.121094 L 28.710938 36.980469 C 28.792969 36.53125 28.789062 36.074219 28.832031 35.617188 C 28.964844 33.828125 28.917969 32.015625 29.300781 30.25 "/>
<path style=" stroke:none;fill-rule:nonzero;fill:rgb(94.102478%,55.549622%,7.182312%);fill-opacity:1;" d="M 31.179688 26.453125 C 31.347656 26.457031 31.519531 26.457031 31.6875 26.460938 C 31.8125 26.988281 31.96875 27.507812 32.105469 28.03125 C 32.40625 29.21875 32.65625 30.417969 32.789062 31.636719 C 32.96875 33.105469 32.859375 34.597656 33.0625 36.066406 C 33.144531 36.066406 33.226562 36.0625 33.308594 36.058594 C 33.03125 36.175781 32.730469 36.199219 32.433594 36.21875 C 32.425781 36.132812 32.417969 36.050781 32.40625 35.96875 C 32.359375 35.472656 32.214844 34.992188 32.105469 34.507812 C 31.957031 33.808594 31.671875 33.148438 31.511719 32.449219 C 31.039062 30.488281 31.082031 28.453125 31.179688 26.453125 "/>
</g>
</svg>
