<?xml version="1.0" encoding="UTF-8"?>
<svg xmlns="http://www.w3.org/2000/svg" xmlns:xlink="http://www.w3.org/1999/xlink" width="59pt" height="27.45pt" viewBox="0 0 59 27.45" version="1.1">
<defs>
<clipPath id="clip1">
  <path d="M 0 0 L 59 0 L 59 27.449219 L 0 27.449219 Z M 0 0 "/>
</clipPath>
<clipPath id="clip2">
  <path d="M 4 22 L 22 22 L 22 27.449219 L 4 27.449219 Z M 4 22 "/>
</clipPath>
</defs>
<g id="surface1">
<g clip-path="url(#clip1)" clip-rule="nonzero">
<path style=" stroke:none;fill-rule:evenodd;fill:rgb(14.250183%,29.429626%,64.910889%);fill-opacity:1;" d="M 7.710938 16.785156 C 7.710938 16.785156 0.527344 26.746094 0 27.449219 C 1.101562 27.273438 4.1875 26.613281 6.652344 23.441406 L 11.5 17.273438 C 11.589844 17.183594 12.953125 15.464844 15.027344 15.113281 L 36.042969 11.234375 C 41.109375 10.265625 46.484375 8.152344 52.039062 4.84375 C 55.429688 2.820312 57.898438 0.925781 59 0 C 57.105469 0.484375 17.535156 10.175781 17.535156 10.175781 C 10.839844 11.808594 7.753906 16.742188 7.710938 16.785156 "/>
</g>
<g clip-path="url(#clip2)" clip-rule="nonzero">
<path style=" stroke:none;fill-rule:evenodd;fill:rgb(93.489075%,16.244507%,23.9151%);fill-opacity:1;" d="M 4.363281 27.230469 C 6.167969 27.1875 10.839844 27.007812 10.839844 27.007812 C 16.257812 26.832031 20.488281 23.484375 21.765625 22.339844 C 20.3125 22.46875 10.925781 23.308594 10.925781 23.308594 C 10.925781 23.308594 8.722656 23.484375 8.59375 23.527344 C 6.785156 25.730469 5.332031 26.746094 4.363281 27.230469 "/>
</g>
<path style=" stroke:none;fill-rule:evenodd;fill:rgb(100%,94.898987%,0%);fill-opacity:1;" d="M 12.734375 18.375 C 12.734375 18.375 10.617188 20.972656 10.132812 21.589844 C 11.015625 21.5 21.328125 20.398438 21.328125 20.398438 C 24.808594 20.003906 28.421875 18.726562 32.121094 16.523438 C 34.28125 15.246094 35.824219 14.011719 36.574219 13.394531 C 34.148438 13.789062 15.644531 16.832031 15.644531 16.832031 C 13.792969 17.140625 12.777344 18.328125 12.734375 18.375 "/>
</g>
</svg>
