<?xml version="1.0" encoding="UTF-8"?>
<svg xmlns="http://www.w3.org/2000/svg" xmlns:xlink="http://www.w3.org/1999/xlink" width="56pt" height="56pt" viewBox="0 0 56 56" version="1.1">
<g id="surface1">
<rect x="0" y="0" width="56" height="56" style="fill:rgb(67.410278%,11.206055%,13.513184%);fill-opacity:1;stroke:none;"/>
<path style=" stroke:none;fill-rule:nonzero;fill:rgb(94.389343%,93.711853%,11.31897%);fill-opacity:1;" d="M 26.992188 29.113281 C 26.972656 29.132812 26.953125 29.132812 26.953125 29.148438 C 26.953125 29.132812 26.972656 29.113281 26.992188 29.113281 "/>
<path style=" stroke:none;fill-rule:evenodd;fill:rgb(100%,100%,100%);fill-opacity:1;" d="M 23.566406 32.164062 C 25.703125 28.105469 27.839844 23.941406 29.976562 19.882812 L 30.082031 19.882812 C 30.402344 23.941406 30.832031 28.105469 31.257812 32.164062 C 28.695312 32.164062 26.128906 32.164062 23.566406 32.164062 Z M 37.882812 11.015625 C 33.714844 11.015625 29.65625 11.015625 25.488281 11.015625 C 19.292969 21.054688 12.992188 31.097656 6.796875 41.140625 C 8.503906 40.390625 10.214844 39.75 12.03125 39.003906 C 15.449219 37.71875 19.082031 36.546875 22.605469 35.585938 C 26.128906 34.515625 29.761719 33.769531 33.289062 33.128906 C 36.066406 32.699219 38.84375 32.273438 41.621094 32.273438 C 40.339844 25.222656 39.054688 18.066406 37.882812 11.015625 "/>
<path style=" stroke:none;fill-rule:evenodd;fill:rgb(100%,100%,100%);fill-opacity:1;" d="M 43.96875 31.953125 C 44.609375 32.59375 45.253906 33.128906 45.894531 33.660156 C 45.574219 34.515625 45.144531 35.371094 44.824219 36.117188 C 46.535156 35.050781 48.242188 33.875 49.953125 32.699219 C 47.921875 32.484375 46 32.273438 43.96875 31.953125 "/>
<path style=" stroke:none;fill-rule:evenodd;fill:rgb(100%,100%,100%);fill-opacity:1;" d="M 38.203125 32.808594 C 39.378906 32.699219 40.445312 32.59375 41.621094 32.59375 C 41.726562 33.128906 41.835938 33.554688 41.835938 33.980469 C 39.484375 34.300781 37.027344 34.730469 34.675781 35.371094 C 29.335938 36.652344 24.101562 38.46875 19.082031 40.5 C 15.875 41.886719 12.671875 43.277344 9.679688 44.878906 C 9.574219 44.878906 9.574219 44.984375 9.464844 44.984375 C 8.289062 44.878906 7.222656 44.984375 6.046875 44.878906 C 8.71875 43.488281 11.390625 42.101562 14.058594 40.820312 C 17.371094 39.324219 20.574219 37.933594 23.992188 36.652344 C 26.984375 35.476562 30.191406 34.410156 33.289062 33.660156 C 34.890625 33.339844 36.597656 33.019531 38.203125 32.808594 "/>
<path style=" stroke:none;fill-rule:evenodd;fill:rgb(100%,100%,100%);fill-opacity:1;" d="M 40.339844 34.515625 C 40.871094 34.410156 41.40625 34.410156 41.941406 34.410156 C 42.046875 35.050781 42.15625 35.796875 42.367188 36.441406 C 40.339844 36.761719 38.414062 37.082031 36.492188 37.507812 C 34.144531 38.042969 31.792969 38.683594 29.546875 39.429688 C 28.265625 39.429688 26.984375 39.429688 25.808594 39.429688 C 28.265625 38.148438 30.9375 37.082031 33.609375 36.226562 C 35.851562 35.476562 38.09375 34.835938 40.339844 34.515625 "/>
<path style=" stroke:none;fill-rule:evenodd;fill:rgb(100%,100%,100%);fill-opacity:1;" d="M 38.203125 37.507812 C 39.589844 37.1875 40.980469 36.972656 42.367188 36.867188 C 42.902344 39.535156 43.328125 42.207031 43.757812 44.984375 C 40.019531 44.984375 36.28125 44.984375 32.433594 44.984375 C 32.328125 43.0625 32.113281 41.246094 31.898438 39.429688 C 34.035156 38.683594 36.066406 38.042969 38.203125 37.507812 "/>
<path style=" stroke:none;fill-rule:evenodd;fill:rgb(100%,100%,100%);fill-opacity:1;" d="M 15.234375 44.984375 C 15.980469 44.453125 16.730469 44.023438 17.585938 43.597656 C 17.265625 44.023438 17.050781 44.453125 16.835938 44.984375 C 16.300781 44.878906 15.769531 44.984375 15.234375 44.984375 "/>
</g>
</svg>
