<?xml version="1.0" encoding="UTF-8"?>
<svg xmlns="http://www.w3.org/2000/svg" xmlns:xlink="http://www.w3.org/1999/xlink" width="56pt" height="56pt" viewBox="0 0 56 56" version="1.1">
<g id="surface1">
<rect x="0" y="0" width="56" height="56" style="fill:rgb(89.466858%,10.258484%,19.393921%);fill-opacity:1;stroke:none;"/>
<path style=" stroke:none;fill-rule:nonzero;fill:rgb(100%,100%,100%);fill-opacity:1;" d="M 2.320312 20.976562 L 5.332031 20.976562 L 5.332031 26.394531 L 10.882812 26.394531 L 10.882812 20.976562 L 13.894531 20.976562 L 13.894531 34.660156 L 10.882812 34.660156 L 10.882812 29.167969 L 5.332031 29.167969 L 5.332031 34.660156 L 2.320312 34.660156 L 2.320312 20.976562 "/>
<path style=" stroke:none;fill-rule:nonzero;fill:rgb(100%,100%,100%);fill-opacity:1;" d="M 27.304688 28.28125 L 27.304688 28.238281 C 27.304688 25.835938 25.539062 23.832031 23.054688 23.832031 C 20.570312 23.832031 18.847656 25.792969 18.847656 28.199219 L 18.847656 28.238281 C 18.847656 30.644531 20.609375 32.648438 23.09375 32.648438 C 25.582031 32.648438 27.304688 30.683594 27.304688 28.28125 M 15.621094 28.28125 L 15.621094 28.238281 C 15.621094 24.25 18.769531 20.984375 23.09375 20.984375 C 27.421875 20.984375 30.53125 24.210938 30.53125 28.199219 L 30.53125 28.238281 C 30.53125 32.226562 27.382812 35.492188 23.054688 35.492188 C 18.726562 35.492188 15.621094 32.265625 15.621094 28.28125 "/>
<path style=" stroke:none;fill-rule:nonzero;fill:rgb(100%,100%,100%);fill-opacity:1;" d="M 37.550781 27.90625 C 39.058594 27.90625 39.9375 27.003906 39.9375 25.832031 L 39.9375 25.792969 C 39.9375 24.445312 39 23.722656 37.496094 23.722656 L 35.167969 23.722656 L 35.167969 27.90625 Z M 32.15625 21.003906 L 37.746094 21.003906 C 41.011719 21.003906 42.988281 22.941406 42.988281 25.734375 L 42.988281 25.773438 C 42.988281 28.941406 40.523438 30.582031 37.457031 30.582031 L 35.167969 30.582031 L 35.167969 34.6875 L 32.15625 34.6875 L 32.15625 21.003906 "/>
<path style=" stroke:none;fill-rule:nonzero;fill:rgb(100%,100%,100%);fill-opacity:1;" d="M 53.679688 22.328125 L 46.132812 31.320312 L 43.964844 29.5 L 51.511719 20.507812 L 53.679688 22.328125 "/>
<path style=" stroke:none;fill-rule:nonzero;fill:rgb(100%,100%,100%);fill-opacity:1;" d="M 42.707031 35.097656 C 41.660156 35.105469 40.8125 34.261719 40.8125 33.21875 C 40.804688 32.175781 41.648438 31.328125 42.691406 31.328125 C 43.734375 31.324219 44.582031 32.164062 44.585938 33.207031 C 44.589844 34.25 43.746094 35.097656 42.707031 35.097656 "/>
</g>
</svg>
