<?xml version="1.0" encoding="UTF-8"?>
<svg xmlns="http://www.w3.org/2000/svg" xmlns:xlink="http://www.w3.org/1999/xlink" width="56pt" height="56pt" viewBox="0 0 56 56" version="1.1">
<g id="surface1">
<rect x="0" y="0" width="56" height="56" style="fill:rgb(95.66803%,95.779419%,96.777344%);fill-opacity:1;stroke:none;"/>
<path style=" stroke:none;fill-rule:nonzero;fill:rgb(84.761047%,9.753418%,22.721863%);fill-opacity:1;" d="M 16.140625 29.574219 C 12.234375 24.429688 8.328125 19.285156 4.355469 14.058594 C 4.632812 14.023438 4.800781 13.988281 4.96875 13.988281 C 8.5625 13.984375 12.152344 13.988281 15.742188 13.976562 C 16.109375 13.976562 16.394531 14.082031 16.671875 14.328125 C 22.429688 19.347656 28.195312 24.359375 33.957031 29.371094 C 34.023438 29.429688 34.074219 29.511719 34.132812 29.582031 C 31.765625 29.585938 29.402344 29.589844 27.03125 29.589844 C 23.402344 29.585938 19.773438 29.578125 16.140625 29.574219 "/>
<path style=" stroke:none;fill-rule:nonzero;fill:rgb(55.625916%,59.689331%,61.700439%);fill-opacity:1;" d="M 16.140625 29.574219 C 19.773438 29.578125 23.402344 29.585938 27.03125 29.589844 C 29.402344 29.589844 31.765625 29.585938 34.132812 29.582031 C 34.40625 29.609375 34.679688 29.664062 34.953125 29.664062 C 36.996094 29.671875 39.042969 29.683594 41.089844 29.65625 C 41.464844 29.652344 41.867188 29.550781 42.199219 29.378906 C 43.585938 28.660156 44.964844 27.917969 46.320312 27.136719 C 46.824219 26.84375 47.222656 26.832031 47.714844 27.136719 C 48.90625 27.875 50.125 28.574219 51.332031 29.289062 C 51.445312 29.359375 51.546875 29.441406 51.644531 29.648438 C 51.40625 29.664062 51.171875 29.699219 50.933594 29.699219 C 48.773438 29.714844 46.609375 29.703125 44.445312 29.742188 C 43.8125 29.753906 43.160156 29.839844 42.546875 30 C 39.707031 30.742188 39.71875 30.769531 37.332031 32.5 C 33.136719 35.535156 28.929688 38.550781 24.734375 41.582031 C 24.324219 41.878906 23.90625 42.027344 23.394531 42.023438 C 21.300781 42 19.207031 42.015625 17.113281 42.011719 C 16.894531 42.011719 16.671875 41.988281 16.300781 41.964844 C 19.273438 37.867188 22.164062 33.882812 25.054688 29.894531 C 25.027344 29.839844 25 29.78125 24.972656 29.726562 C 24.730469 29.726562 24.488281 29.726562 24.25 29.726562 C 21.832031 29.726562 19.417969 29.730469 17.003906 29.71875 C 16.714844 29.71875 16.429688 29.625 16.140625 29.574219 "/>
</g>
</svg>
