<?xml version="1.0" encoding="UTF-8"?>
<svg xmlns="http://www.w3.org/2000/svg" xmlns:xlink="http://www.w3.org/1999/xlink" width="56pt" height="56pt" viewBox="0 0 56 56" version="1.1">
<g id="surface1">
<rect x="0" y="0" width="56" height="56" style="fill:rgb(95.666504%,95.776367%,96.775818%);fill-opacity:1;stroke:none;"/>
<path style=" stroke:none;fill-rule:nonzero;fill:rgb(81.047058%,10.676575%,19.863892%);fill-opacity:1;" d="M 14.238281 39.496094 C 13.699219 43.066406 16.4375 46.699219 19.988281 47.226562 C 23.214844 47.878906 26.558594 45.804688 27.714844 42.789062 C 26.050781 39.972656 24.988281 36.867188 23.738281 33.859375 C 19.699219 32.132812 14.652344 35.140625 14.238281 39.496094 Z M 20.039062 11.832031 C 25.710938 6.011719 35.089844 3.414062 42.660156 6.875 C 45.367188 8.25 47.78125 10.703125 48.292969 13.792969 C 48.804688 16.039062 47.976562 18.269531 47.484375 20.4375 C 45.90625 26.683594 44.394531 32.945312 42.800781 39.183594 C 42.742188 39.1875 42.636719 39.195312 42.582031 39.199219 C 41.105469 35.53125 39.800781 31.78125 37.957031 28.277344 C 36.609375 25.839844 34.332031 23.554688 31.402344 23.394531 C 29.355469 23.375 27.300781 23.296875 25.257812 23.472656 C 27.886719 23.574219 29.78125 25.695312 31.109375 27.746094 C 33.222656 31.15625 34.351562 35.039062 35.921875 38.695312 C 37.027344 41.136719 38.347656 43.582031 40.46875 45.285156 C 40.160156 45.679688 39.84375 46.070312 39.53125 46.460938 C 35.582031 43.765625 34.042969 38.988281 32.410156 34.738281 C 31.035156 31.519531 29.953125 27.996094 27.398438 25.476562 C 26.105469 24.121094 24.246094 23.351562 22.371094 23.375 C 20.507812 23.386719 18.644531 23.296875 16.785156 23.46875 C 17.730469 23.59375 18.695312 23.800781 19.476562 24.378906 C 22.089844 26.109375 23.542969 29.015625 24.710938 31.828125 C 26.175781 35.148438 27.132812 38.710938 29.074219 41.808594 C 30.128906 43.480469 31.433594 45.101562 33.230469 46.011719 C 35.03125 46.984375 37.152344 46.605469 39.089844 47.070312 C 35.238281 51.027344 29.855469 53.390625 24.359375 53.667969 C 20.929688 53.777344 17.328125 53.09375 14.539062 50.992188 C 12.65625 49.570312 11.132812 47.554688 10.714844 45.1875 C 10.214844 43.179688 10.933594 41.175781 11.363281 39.230469 C 13.140625 32.109375 14.890625 24.984375 16.679688 17.867188 C 17.210938 15.589844 18.429688 13.519531 20.039062 11.832031 "/>
</g>
</svg>
