<?xml version="1.0" encoding="UTF-8"?>
<svg xmlns="http://www.w3.org/2000/svg" xmlns:xlink="http://www.w3.org/1999/xlink" width="56pt" height="56pt" viewBox="0 0 56 56" version="1.1">
<g id="surface1">
<rect x="0" y="0" width="56" height="56" style="fill:rgb(95.666504%,95.776367%,96.775818%);fill-opacity:1;stroke:none;"/>
<path style=" stroke:none;fill-rule:nonzero;fill:rgb(64.607239%,59.228516%,38.702393%);fill-opacity:1;" d="M 30.171875 42.96875 C 28.699219 43.808594 27.121094 44.1875 25.484375 44.285156 C 20.285156 44.597656 15.835938 42.710938 11.867188 39.515625 C 9.078125 37.265625 6.875 34.542969 5.613281 31.148438 C 4.78125 28.90625 4.5 26.605469 5.554688 24.359375 C 7.289062 20.648438 12.863281 17.148438 18.398438 21.371094 C 19.742188 22.394531 20.910156 23.640625 22.121094 24.75 C 22.34375 24.101562 21.542969 22.28125 20.425781 21.085938 C 19.40625 19.992188 18.109375 19.402344 16.65625 19.09375 C 16.65625 19 16.660156 18.90625 16.664062 18.8125 C 17.128906 18.734375 17.589844 18.632812 18.058594 18.585938 C 18.472656 18.542969 18.835938 18.566406 19.230469 18.234375 C 19.527344 17.988281 20.15625 18.019531 20.605469 18.09375 C 22.375 18.398438 23.863281 19.320312 25.285156 20.367188 C 25.558594 20.570312 25.832031 20.78125 26.199219 21.058594 C 26.300781 20.445312 26.355469 19.890625 26.496094 19.359375 C 27.507812 15.523438 29.75 12.835938 33.710938 11.871094 C 36.441406 11.207031 41.226562 12.257812 42.941406 15.296875 C 43.917969 17.027344 44.300781 18.902344 44.46875 20.839844 C 44.640625 22.808594 44.605469 24.816406 44.988281 26.738281 C 45.652344 30.078125 47.671875 32.589844 50.425781 34.535156 C 50.632812 34.679688 50.84375 34.8125 51.128906 35 C 50.171875 35.867188 49.085938 36.171875 47.878906 36.058594 C 46.144531 35.890625 44.667969 35.089844 43.332031 34.039062 C 40.210938 31.59375 38.085938 28.476562 36.980469 24.644531 C 36.707031 23.691406 36.195312 22.777344 35.648438 21.9375 C 34.730469 20.527344 33.503906 20.109375 31.882812 20.484375 C 29.371094 21.070312 28.050781 23.296875 28.8125 25.75 C 29.59375 28.28125 31.210938 30.230469 33.253906 31.851562 C 36.671875 34.5625 40.617188 36.171875 44.761719 37.371094 C 44.894531 37.410156 45.019531 37.460938 45.28125 37.550781 C 44.542969 37.820312 43.917969 38.042969 43.296875 38.277344 C 42.652344 38.519531 42.003906 38.757812 41.367188 39.019531 C 39.046875 39.972656 36.738281 40.957031 34.40625 41.882812 C 34.066406 42.019531 33.570312 42.039062 33.246094 41.894531 C 28.40625 39.742188 25.167969 36.0625 23.195312 31.214844 C 22.648438 29.875 21.957031 28.679688 20.628906 28 C 19.246094 27.292969 17.851562 27.320312 16.597656 28.285156 C 15.402344 29.210938 15.101562 30.523438 15.34375 31.949219 C 15.636719 33.671875 16.597656 35.054688 17.808594 36.257812 C 21.207031 39.628906 25.222656 41.894531 29.925781 42.90625 C 30.007812 42.921875 30.089844 42.949219 30.171875 42.96875 "/>
</g>
</svg>
