<?xml version="1.0" encoding="UTF-8"?>
<svg xmlns="http://www.w3.org/2000/svg" xmlns:xlink="http://www.w3.org/1999/xlink" width="56pt" height="56pt" viewBox="0 0 56 56" version="1.1">
<g id="surface1">
<rect x="0" y="0" width="56" height="56" style="fill:rgb(83.792114%,11.807251%,14.675903%);fill-opacity:1;stroke:none;"/>
<path style=" stroke:none;fill-rule:nonzero;fill:rgb(100%,100%,100%);fill-opacity:1;" d="M 28.316406 53.675781 C 28.121094 53.179688 27.925781 52.679688 27.734375 52.183594 C 26.527344 49.03125 25.316406 45.882812 24.109375 42.730469 C 23.15625 40.242188 22.199219 37.757812 21.25 35.269531 C 21.1875 35.105469 21.09375 35.011719 20.933594 34.949219 C 18.128906 33.863281 15.328125 32.773438 12.523438 31.683594 C 10.246094 30.796875 7.96875 29.90625 5.6875 29.015625 C 4.839844 28.683594 3.988281 28.355469 3.136719 28.023438 C 3.0625 27.996094 2.988281 27.957031 2.855469 27.898438 C 3.207031 27.765625 3.507812 27.648438 3.808594 27.535156 C 8.785156 25.683594 13.761719 23.828125 18.734375 21.976562 C 19.480469 21.699219 20.226562 21.417969 20.976562 21.152344 C 21.207031 21.070312 21.335938 20.945312 21.421875 20.703125 C 22.046875 18.917969 22.695312 17.136719 23.335938 15.355469 C 24.632812 11.738281 25.933594 8.121094 27.234375 4.503906 C 27.472656 3.839844 27.707031 3.175781 27.945312 2.515625 C 27.964844 2.46875 27.984375 2.425781 28.035156 2.320312 C 28.117188 2.546875 28.175781 2.71875 28.238281 2.894531 C 29.324219 5.921875 30.40625 8.949219 31.492188 11.976562 C 32.546875 14.917969 33.597656 17.859375 34.648438 20.800781 C 34.710938 20.980469 34.804688 21.070312 34.976562 21.136719 C 37.835938 22.246094 40.691406 23.363281 43.546875 24.472656 C 46.660156 25.6875 49.777344 26.898438 52.890625 28.109375 C 52.960938 28.136719 53.027344 28.167969 53.144531 28.21875 C 52.652344 28.402344 52.207031 28.566406 51.761719 28.730469 C 48.953125 29.777344 46.144531 30.824219 43.332031 31.867188 C 40.601562 32.882812 37.867188 33.898438 35.132812 34.90625 C 34.933594 34.976562 34.820312 35.085938 34.753906 35.289062 C 33.675781 38.410156 32.597656 41.527344 31.519531 44.644531 C 30.546875 47.445312 29.574219 50.246094 28.601562 53.046875 C 28.53125 53.257812 28.453125 53.46875 28.378906 53.679688 C 28.359375 53.679688 28.335938 53.679688 28.316406 53.675781 "/>
</g>
</svg>
