<?xml version="1.0" encoding="UTF-8"?>
<svg xmlns="http://www.w3.org/2000/svg" xmlns:xlink="http://www.w3.org/1999/xlink" width="56pt" height="56pt" viewBox="0 0 56 56" version="1.1">
<g id="surface1">
<rect x="0" y="0" width="56" height="56" style="fill:rgb(95.666504%,95.776367%,96.775818%);fill-opacity:1;stroke:none;"/>
<path style=" stroke:none;fill-rule:evenodd;fill:rgb(91.946411%,11.31134%,15.167236%);fill-opacity:1;" d="M 5.382812 32.554688 C 10.160156 32.714844 14.882812 32.375 19.519531 31.300781 C 21.699219 30.34375 24.28125 28.816406 27.148438 26.894531 C 33.289062 22.839844 39.304688 18.65625 45.3125 14.460938 L 50.617188 14.4375 L 40.339844 30.402344 C 38.753906 32.476562 38.9375 33.59375 41.710938 34.496094 C 38.105469 34.246094 34.558594 34.394531 31.078125 35.019531 C 28.078125 35.667969 26.199219 36.488281 26.128906 37.578125 C 25.949219 38.960938 29.21875 40.523438 32.40625 40.867188 C 33.753906 41.015625 35.105469 41.050781 36.453125 41.011719 C 32.90625 41.730469 29.433594 41.925781 26.199219 40.464844 C 24.363281 39.582031 22.613281 38.199219 20.847656 36.914062 C 16.074219 34.003906 12.5 33.488281 5.382812 32.554688 "/>
<path style=" stroke:none;fill-rule:evenodd;fill:rgb(92.138672%,52.981567%,17.073059%);fill-opacity:1;" d="M 22.265625 29.953125 L 17.507812 33.550781 L 21.34375 31.15625 C 22.398438 30.472656 23.507812 29.847656 24.636719 29.242188 C 26.230469 28.382812 27.613281 27.210938 28.972656 25.996094 L 28.746094 25.824219 C 26.679688 27.257812 24.527344 28.636719 22.265625 29.953125 "/>
<path style=" stroke:none;fill-rule:nonzero;fill:rgb(92.138672%,52.981567%,17.073059%);fill-opacity:1;" d="M 22.265625 29.953125 L 22.25 29.925781 L 17.488281 33.527344 L 17.523438 33.578125 L 21.359375 31.183594 C 22.410156 30.5 23.523438 29.875 24.652344 29.269531 C 26.25 28.40625 27.632812 27.234375 28.992188 26.019531 L 29.019531 25.992188 L 28.765625 25.800781 L 28.746094 25.785156 L 28.726562 25.796875 C 26.664062 27.230469 24.511719 28.609375 22.253906 29.921875 L 22.265625 29.953125 L 22.28125 29.976562 C 24.542969 28.664062 26.699219 27.285156 28.765625 25.851562 L 28.746094 25.824219 L 28.726562 25.847656 L 28.953125 26.019531 L 28.972656 25.996094 L 28.949219 25.972656 C 27.59375 27.1875 26.210938 28.355469 24.621094 29.214844 C 23.492188 29.820312 22.382812 30.445312 21.328125 31.132812 L 18.078125 33.15625 L 22.285156 29.976562 L 22.265625 29.953125 "/>
<path style=" stroke:none;fill-rule:evenodd;fill:rgb(92.138672%,52.981567%,17.073059%);fill-opacity:1;" d="M 29.207031 26.210938 C 27.773438 27.296875 26.515625 28.484375 25.511719 29.808594 C 23.871094 32.085938 22.230469 34.191406 20.589844 36.273438 C 22.4375 34.152344 24.539062 32.058594 26.742188 29.972656 C 27.808594 28.777344 28.671875 27.578125 29.425781 26.378906 L 29.207031 26.210938 "/>
<path style=" stroke:none;fill-rule:nonzero;fill:rgb(92.138672%,52.981567%,17.073059%);fill-opacity:1;" d="M 29.207031 26.210938 L 29.1875 26.183594 C 27.753906 27.273438 26.492188 28.460938 25.488281 29.789062 C 23.847656 32.066406 22.203125 34.171875 20.5625 36.253906 L 20.609375 36.292969 C 22.460938 34.171875 24.5625 32.078125 26.765625 29.996094 C 27.835938 28.792969 28.699219 27.597656 29.453125 26.398438 L 29.46875 26.371094 L 29.226562 26.183594 L 29.207031 26.167969 L 29.1875 26.183594 L 29.207031 26.210938 L 29.1875 26.234375 L 29.40625 26.40625 L 29.425781 26.378906 L 29.402344 26.363281 C 28.648438 27.5625 27.785156 28.757812 26.722656 29.953125 C 24.519531 32.035156 22.414062 34.132812 20.566406 36.253906 L 20.613281 36.292969 C 22.253906 34.210938 23.898438 32.105469 25.535156 29.828125 C 26.539062 28.507812 27.796875 27.320312 29.226562 26.234375 L 29.207031 26.210938 L 29.1875 26.234375 L 29.207031 26.210938 "/>
<path style=" stroke:none;fill-rule:evenodd;fill:rgb(92.138672%,52.981567%,17.073059%);fill-opacity:1;" d="M 29.726562 26.492188 C 28.589844 28.003906 27.675781 29.527344 27.160156 31.074219 C 26.257812 33.4375 25.335938 35.804688 24.351562 38.167969 C 25.441406 36.007812 26.570312 33.921875 27.738281 31.914062 C 28.777344 30.222656 29.53125 28.449219 30.023438 26.597656 L 29.726562 26.492188 "/>
<path style=" stroke:none;fill-rule:nonzero;fill:rgb(92.138672%,52.981567%,17.073059%);fill-opacity:1;" d="M 29.726562 26.492188 L 29.703125 26.472656 C 28.5625 27.984375 27.648438 29.511719 27.132812 31.0625 C 26.226562 33.425781 25.308594 35.792969 24.324219 38.15625 L 24.378906 38.183594 C 25.46875 36.019531 26.597656 33.9375 27.765625 31.929688 C 28.804688 30.234375 29.558594 28.457031 30.050781 26.605469 L 30.058594 26.578125 L 29.738281 26.464844 L 29.71875 26.457031 L 29.703125 26.472656 L 29.726562 26.492188 L 29.71875 26.523438 L 30.011719 26.625 L 30.023438 26.597656 L 29.992188 26.589844 C 29.5 28.4375 28.75 30.210938 27.710938 31.902344 C 26.542969 33.90625 25.414062 35.992188 24.324219 38.15625 L 24.351562 38.167969 L 24.382812 38.179688 C 25.367188 35.816406 26.285156 33.449219 27.191406 31.085938 C 27.703125 29.539062 28.617188 28.019531 29.753906 26.511719 L 29.726562 26.492188 L 29.71875 26.523438 L 29.726562 26.492188 "/>
<path style=" stroke:none;fill-rule:evenodd;fill:rgb(92.138672%,52.981567%,17.073059%);fill-opacity:1;" d="M 30.34375 26.707031 C 29.535156 28.6875 29.117188 30.667969 29.089844 32.648438 C 29.046875 33.636719 28.980469 34.621094 28.898438 35.605469 L 29.253906 35.46875 C 29.515625 34.15625 29.824219 32.847656 30.203125 31.539062 C 30.527344 29.945312 30.640625 28.347656 30.652344 26.753906 L 30.34375 26.707031 "/>
<path style=" stroke:none;fill-rule:nonzero;fill:rgb(92.138672%,52.981567%,17.073059%);fill-opacity:1;" d="M 30.34375 26.707031 L 30.316406 26.695312 C 29.503906 28.679688 29.085938 30.664062 29.058594 32.648438 C 29.015625 33.632812 28.949219 34.617188 28.867188 35.601562 L 28.863281 35.652344 L 29.265625 35.496094 L 29.28125 35.492188 L 29.285156 35.476562 C 29.542969 34.164062 29.855469 32.855469 30.230469 31.546875 C 30.558594 29.949219 30.667969 28.351562 30.679688 26.753906 L 30.679688 26.726562 L 30.347656 26.675781 L 30.324219 26.671875 L 30.316406 26.695312 L 30.34375 26.707031 L 30.339844 26.734375 L 30.644531 26.785156 L 30.652344 26.753906 L 30.621094 26.753906 C 30.605469 28.347656 30.496094 29.941406 30.171875 31.53125 C 29.792969 32.839844 29.484375 34.152344 29.222656 35.464844 L 29.253906 35.46875 L 29.242188 35.441406 L 28.890625 35.574219 L 28.898438 35.605469 L 28.929688 35.609375 C 29.011719 34.621094 29.078125 33.636719 29.121094 32.652344 C 29.148438 30.671875 29.566406 28.695312 30.371094 26.71875 L 30.34375 26.707031 L 30.339844 26.734375 L 30.34375 26.707031 "/>
<path style=" stroke:none;fill-rule:evenodd;fill:rgb(92.138672%,52.981567%,17.073059%);fill-opacity:1;" d="M 30.960938 26.75 C 30.828125 28.867188 30.835938 30.9375 31.648438 33.054688 L 32.046875 34.855469 L 32.453125 34.804688 L 32.332031 33.054688 C 32.371094 30.871094 31.917969 28.773438 31.289062 26.707031 L 30.960938 26.75 "/>
<path style=" stroke:none;fill-rule:nonzero;fill:rgb(92.138672%,52.981567%,17.073059%);fill-opacity:1;" d="M 30.960938 26.75 L 30.929688 26.75 C 30.890625 27.34375 30.867188 27.941406 30.867188 28.53125 C 30.867188 30.039062 31.03125 31.539062 31.617188 33.066406 L 31.648438 33.054688 L 31.617188 33.058594 L 32.023438 34.886719 L 32.457031 34.835938 L 32.484375 34.835938 L 32.363281 33.050781 C 32.363281 32.964844 32.367188 32.878906 32.367188 32.789062 C 32.367188 30.695312 31.921875 28.679688 31.320312 26.695312 L 31.3125 26.671875 L 30.957031 26.71875 L 30.929688 26.722656 L 30.929688 26.75 L 30.960938 26.75 L 30.964844 26.78125 L 31.292969 26.734375 L 31.289062 26.707031 L 31.261719 26.714844 C 31.859375 28.699219 32.304688 30.707031 32.304688 32.789062 C 32.304688 32.878906 32.304688 32.964844 32.300781 33.050781 L 32.417969 34.777344 L 32.074219 34.820312 L 31.675781 33.046875 L 31.675781 33.042969 C 31.09375 31.527344 30.925781 30.035156 30.925781 28.53125 C 30.925781 27.941406 30.953125 27.347656 30.988281 26.753906 L 30.960938 26.75 L 30.964844 26.78125 L 30.960938 26.75 "/>
<path style=" stroke:none;fill-rule:evenodd;fill:rgb(92.138672%,52.981567%,17.073059%);fill-opacity:1;" d="M 31.605469 26.617188 C 32.082031 28.773438 32.796875 30.804688 34.132812 32.648438 L 35.128906 34.476562 L 35.554688 34.476562 L 34.796875 32.511719 C 34.074219 30.160156 33.257812 28.519531 31.90625 26.523438 L 31.605469 26.617188 "/>
<path style=" stroke:none;fill-rule:nonzero;fill:rgb(92.138672%,52.981567%,17.073059%);fill-opacity:1;" d="M 31.605469 26.617188 L 31.574219 26.625 C 32.050781 28.785156 32.769531 30.820312 34.109375 32.667969 L 34.132812 32.648438 L 34.105469 32.664062 L 35.109375 34.503906 L 35.601562 34.503906 L 34.828125 32.5 C 34.101562 30.148438 33.285156 28.503906 31.933594 26.503906 L 31.917969 26.484375 L 31.59375 26.589844 L 31.570312 26.59375 L 31.574219 26.625 L 31.605469 26.617188 L 31.613281 26.648438 L 31.914062 26.550781 L 31.90625 26.523438 L 31.882812 26.539062 C 33.230469 28.535156 34.042969 30.171875 34.769531 32.519531 L 35.507812 34.445312 L 35.144531 34.445312 L 34.160156 32.632812 C 32.828125 30.792969 32.109375 28.765625 31.636719 26.609375 L 31.605469 26.617188 L 31.613281 26.648438 L 31.605469 26.617188 "/>
<path style=" stroke:none;fill-rule:evenodd;fill:rgb(92.138672%,52.981567%,17.073059%);fill-opacity:1;" d="M 32.167969 26.351562 C 33.285156 28.394531 34.65625 30.226562 36.476562 31.679688 L 37.78125 33.027344 L 39.132812 34.378906 L 39.4375 34.40625 C 38.386719 33.183594 37.40625 31.949219 36.546875 30.683594 C 35.378906 28.949219 33.964844 27.488281 32.40625 26.183594 L 32.167969 26.351562 "/>
<path style=" stroke:none;fill-rule:nonzero;fill:rgb(92.138672%,52.981567%,17.073059%);fill-opacity:1;" d="M 32.167969 26.351562 L 32.140625 26.367188 C 33.257812 28.410156 34.632812 30.246094 36.457031 31.703125 L 37.757812 33.050781 L 39.117188 34.410156 L 39.433594 34.4375 L 39.464844 34.386719 C 38.410156 33.164062 37.429688 31.929688 36.574219 30.667969 C 35.40625 28.929688 33.984375 27.46875 32.425781 26.160156 L 32.40625 26.144531 L 32.152344 26.324219 L 32.128906 26.34375 L 32.140625 26.367188 L 32.167969 26.351562 L 32.183594 26.378906 L 32.421875 26.210938 L 32.40625 26.183594 L 32.382812 26.210938 C 33.941406 27.511719 35.355469 28.96875 36.523438 30.703125 C 37.378906 31.964844 38.363281 33.207031 39.414062 34.425781 L 39.4375 34.40625 L 39.441406 34.375 L 39.144531 34.347656 L 37.800781 33.007812 L 36.5 31.65625 C 34.679688 30.203125 33.3125 28.375 32.195312 26.335938 L 32.167969 26.351562 L 32.183594 26.378906 L 32.167969 26.351562 "/>
<path style=" stroke:none;fill-rule:evenodd;fill:rgb(92.138672%,52.981567%,17.073059%);fill-opacity:1;" d="M 32.640625 25.996094 C 34.027344 27.425781 35.558594 28.722656 37.496094 29.644531 L 39.894531 31.027344 L 40.105469 30.71875 C 39.082031 29.964844 38.164062 29.203125 37.257812 28.414062 C 35.824219 27.375 34.363281 26.496094 32.8125 25.773438 L 32.640625 25.996094 "/>
<path style=" stroke:none;fill-rule:nonzero;fill:rgb(92.138672%,52.981567%,17.073059%);fill-opacity:1;" d="M 32.640625 25.996094 L 32.617188 26.019531 C 34.007812 27.449219 35.542969 28.746094 37.484375 29.671875 L 39.902344 31.066406 L 40.128906 30.734375 L 40.148438 30.710938 L 40.121094 30.695312 C 39.101562 29.941406 38.183594 29.179688 37.28125 28.390625 C 35.839844 27.347656 34.382812 26.46875 32.828125 25.746094 L 32.800781 25.734375 L 32.617188 25.976562 L 32.597656 25.996094 L 32.617188 26.019531 L 32.640625 25.996094 L 32.664062 26.015625 L 32.839844 25.792969 L 32.8125 25.773438 L 32.800781 25.800781 C 34.347656 26.523438 35.808594 27.402344 37.242188 28.4375 C 38.144531 29.226562 39.0625 29.988281 40.085938 30.742188 L 40.105469 30.71875 L 40.078125 30.699219 L 39.882812 30.984375 L 37.511719 29.617188 C 35.578125 28.695312 34.050781 27.402344 32.664062 25.972656 L 32.640625 25.996094 L 32.664062 26.015625 L 32.640625 25.996094 "/>
<path style=" stroke:none;fill-rule:evenodd;fill:rgb(92.138672%,52.981567%,17.073059%);fill-opacity:1;" d="M 32.996094 25.523438 C 34.761719 26.59375 36.625 27.476562 38.707031 27.960938 L 41.402344 28.695312 L 41.628906 28.398438 C 40.582031 27.992188 39.609375 27.542969 38.679688 27.0625 C 36.847656 26.238281 34.984375 25.691406 33.113281 25.261719 L 32.996094 25.523438 "/>
<path style=" stroke:none;fill-rule:nonzero;fill:rgb(92.138672%,52.981567%,17.073059%);fill-opacity:1;" d="M 32.996094 25.523438 L 32.980469 25.550781 C 34.746094 26.621094 36.613281 27.507812 38.699219 27.992188 L 41.414062 28.730469 L 41.652344 28.414062 L 41.679688 28.382812 L 41.640625 28.367188 C 40.59375 27.964844 39.625 27.515625 38.695312 27.035156 C 36.855469 26.210938 34.996094 25.660156 33.121094 25.230469 L 33.097656 25.226562 L 32.96875 25.511719 L 32.957031 25.535156 L 32.980469 25.550781 L 32.996094 25.523438 L 33.023438 25.535156 L 33.144531 25.277344 L 33.113281 25.261719 L 33.109375 25.292969 C 34.976562 25.71875 36.835938 26.269531 38.667969 27.089844 C 39.59375 27.570312 40.570312 28.023438 41.617188 28.425781 L 41.628906 28.398438 L 41.605469 28.378906 L 41.390625 28.660156 L 38.714844 27.929688 C 36.636719 27.449219 34.777344 26.566406 33.011719 25.496094 L 32.996094 25.523438 L 33.023438 25.535156 L 32.996094 25.523438 "/>
<path style=" stroke:none;fill-rule:evenodd;fill:rgb(92.138672%,52.981567%,17.073059%);fill-opacity:1;" d="M 33.1875 24.976562 C 35.242188 25.667969 37.464844 26.035156 39.675781 26.042969 L 43.015625 26.210938 L 43.203125 25.949219 C 41.765625 25.726562 40.355469 25.457031 38.960938 25.15625 C 37.273438 24.816406 35.289062 24.71875 33.210938 24.695312 L 33.1875 24.976562 "/>
<path style=" stroke:none;fill-rule:nonzero;fill:rgb(92.138672%,52.981567%,17.073059%);fill-opacity:1;" d="M 33.1875 24.976562 L 33.175781 25.007812 C 35.238281 25.699219 37.464844 26.066406 39.675781 26.074219 L 43.03125 26.238281 L 43.230469 25.964844 L 43.257812 25.925781 L 43.207031 25.917969 C 41.773438 25.695312 40.363281 25.425781 38.96875 25.125 C 37.273438 24.789062 35.289062 24.6875 33.210938 24.664062 L 33.179688 24.660156 L 33.15625 24.976562 L 33.152344 25 L 33.175781 25.007812 L 33.1875 24.976562 L 33.21875 24.980469 L 33.238281 24.699219 L 33.210938 24.695312 L 33.207031 24.726562 C 35.285156 24.75 37.269531 24.847656 38.953125 25.1875 C 40.351562 25.484375 41.761719 25.757812 43.199219 25.980469 L 43.203125 25.949219 L 43.179688 25.929688 L 43 26.175781 L 39.675781 26.011719 C 37.46875 26.003906 35.25 25.640625 33.195312 24.949219 L 33.1875 24.976562 L 33.21875 24.980469 L 33.1875 24.976562 "/>
<path style=" stroke:none;fill-rule:evenodd;fill:rgb(92.138672%,52.981567%,17.073059%);fill-opacity:1;" d="M 33.210938 24.433594 C 35.449219 24.578125 37.6875 24.421875 39.925781 23.941406 L 45.027344 23.058594 L 45.191406 22.894531 C 43.226562 23.058594 41.261719 23.1875 39.296875 23.273438 C 37.207031 23.339844 35.167969 23.609375 33.199219 24.148438 L 33.210938 24.433594 "/>
<path style=" stroke:none;fill-rule:nonzero;fill:rgb(92.138672%,52.981567%,17.073059%);fill-opacity:1;" d="M 33.210938 24.433594 L 33.207031 24.464844 C 33.738281 24.5 34.273438 24.515625 34.804688 24.515625 C 36.511719 24.515625 38.222656 24.339844 39.929688 23.96875 L 45.042969 23.089844 L 45.214844 22.914062 L 45.191406 22.863281 C 43.222656 23.027344 41.257812 23.15625 39.292969 23.242188 C 37.207031 23.308594 35.164062 23.578125 33.1875 24.117188 L 33.164062 24.125 L 33.179688 24.433594 L 33.179688 24.464844 L 33.207031 24.464844 L 33.210938 24.433594 L 33.242188 24.433594 L 33.226562 24.148438 L 33.199219 24.148438 L 33.207031 24.179688 C 35.175781 23.640625 37.210938 23.371094 39.296875 23.304688 C 41.261719 23.21875 43.230469 23.089844 45.195312 22.921875 L 45.191406 22.894531 L 45.171875 22.871094 L 45.011719 23.03125 L 39.917969 23.910156 C 38.214844 24.277344 36.511719 24.453125 34.804688 24.453125 C 34.273438 24.453125 33.742188 24.4375 33.210938 24.402344 L 33.210938 24.433594 L 33.242188 24.433594 L 33.210938 24.433594 "/>
<path style=" stroke:none;fill-rule:evenodd;fill:rgb(92.138672%,52.981567%,17.073059%);fill-opacity:1;" d="M 33.089844 23.890625 C 35.597656 23.480469 37.996094 22.714844 40.269531 21.484375 L 46.304688 18.960938 C 43.945312 19.765625 41.585938 20.550781 39.222656 21.234375 C 37.070312 21.714844 34.996094 22.523438 33.003906 23.628906 L 33.089844 23.890625 "/>
<path style=" stroke:none;fill-rule:nonzero;fill:rgb(92.138672%,52.981567%,17.073059%);fill-opacity:1;" d="M 33.089844 23.890625 L 33.09375 23.917969 C 35.605469 23.507812 38.011719 22.746094 40.28125 21.515625 L 46.316406 18.988281 L 46.292969 18.929688 C 43.933594 19.738281 41.574219 20.519531 39.21875 21.207031 C 37.058594 21.683594 34.984375 22.492188 32.988281 23.601562 L 32.964844 23.613281 L 33.058594 23.898438 L 33.070312 23.921875 L 33.09375 23.917969 L 33.089844 23.890625 L 33.121094 23.878906 L 33.03125 23.617188 L 33.003906 23.628906 L 33.015625 23.65625 C 35.011719 22.550781 37.082031 21.742188 39.230469 21.265625 C 41.59375 20.578125 43.957031 19.792969 46.316406 18.992188 L 46.304688 18.960938 L 46.292969 18.933594 L 40.257812 21.457031 C 37.988281 22.6875 35.589844 23.449219 33.085938 23.859375 L 33.089844 23.890625 L 33.121094 23.878906 L 33.089844 23.890625 "/>
<path style=" stroke:none;fill-rule:evenodd;fill:rgb(92.138672%,52.981567%,17.073059%);fill-opacity:1;" d="M 32.640625 23.296875 L 32.832031 23.367188 C 34.695312 22.597656 36.433594 21.53125 38.066406 20.214844 C 39.976562 18.695312 42.03125 17.171875 44.105469 15.644531 L 40.003906 18.175781 L 32.640625 23.296875 "/>
<path style=" stroke:none;fill-rule:nonzero;fill:rgb(92.138672%,52.981567%,17.073059%);fill-opacity:1;" d="M 32.640625 23.296875 L 32.628906 23.324219 L 32.820312 23.398438 L 32.832031 23.402344 L 32.84375 23.398438 C 34.710938 22.625 36.453125 21.558594 38.085938 20.242188 C 39.996094 18.71875 42.050781 17.195312 44.121094 15.671875 L 44.089844 15.621094 L 39.988281 18.148438 L 32.574219 23.304688 L 32.628906 23.324219 L 32.640625 23.296875 L 32.65625 23.324219 L 40.023438 18.203125 L 44.121094 15.671875 L 44.105469 15.644531 L 44.085938 15.621094 C 42.015625 17.144531 39.960938 18.667969 38.042969 20.191406 C 36.414062 21.507812 34.679688 22.570312 32.820312 23.339844 L 32.832031 23.367188 L 32.84375 23.339844 L 32.652344 23.269531 L 32.640625 23.296875 L 32.65625 23.324219 L 32.640625 23.296875 "/>
</g>
</svg>
