<?xml version="1.0" encoding="UTF-8"?>
<svg xmlns="http://www.w3.org/2000/svg" xmlns:xlink="http://www.w3.org/1999/xlink" width="56pt" height="56pt" viewBox="0 0 56 56" version="1.1">
<g id="surface1">
<rect x="0" y="0" width="56" height="56" style="fill:rgb(95.66803%,95.779419%,96.777344%);fill-opacity:1;stroke:none;"/>
<path style=" stroke:none;fill-rule:nonzero;fill:rgb(92.274475%,84.550476%,16.766357%);fill-opacity:1;" d="M 29.601562 49.917969 C 29.632812 49.933594 29.660156 49.949219 29.6875 49.960938 C 29.660156 49.960938 29.632812 49.960938 29.601562 49.960938 C 29.601562 49.945312 29.601562 49.929688 29.605469 49.917969 L 29.601562 49.917969 "/>
<path style=" stroke:none;fill-rule:nonzero;fill:rgb(27.92511%,68.626404%,22.615051%);fill-opacity:1;" d="M 17.257812 34.335938 C 17.230469 34.253906 17.199219 34.167969 17.171875 34.085938 C 17.167969 34.058594 17.175781 34.027344 17.164062 34.003906 C 17.042969 33.730469 17.03125 33.441406 17.039062 33.148438 C 17.042969 33 17.039062 32.847656 17.042969 32.699219 C 17.042969 32.65625 17.039062 32.613281 17.046875 32.570312 C 17.164062 32.101562 17.292969 31.632812 17.535156 31.207031 C 17.574219 31.136719 17.609375 31.058594 17.648438 30.984375 C 17.660156 30.984375 17.671875 30.984375 17.683594 30.984375 C 17.828125 31.109375 17.980469 31.21875 18.148438 31.316406 C 18.273438 31.390625 18.410156 31.414062 18.539062 31.457031 C 18.828125 31.550781 19.132812 31.527344 19.425781 31.488281 C 19.667969 31.460938 19.898438 31.359375 20.117188 31.242188 C 20.597656 30.984375 21.105469 30.359375 20.96875 29.589844 C 20.898438 29.210938 20.734375 28.878906 20.574219 28.539062 C 20.492188 28.296875 20.414062 28.058594 20.335938 27.820312 C 20.238281 27.515625 20.160156 27.210938 20.128906 26.890625 C 20.117188 26.75 20.082031 26.613281 20.054688 26.476562 C 20.066406 26.460938 20.09375 26.4375 20.09375 26.433594 C 20.027344 26.300781 20.09375 26.171875 20.09375 26.039062 C 20.09375 25.683594 20.160156 25.34375 20.269531 25.007812 C 20.429688 24.507812 20.695312 24.070312 21.03125 23.675781 C 21.335938 23.320312 21.691406 23.011719 22.074219 22.738281 C 22.085938 22.734375 22.101562 22.734375 22.117188 22.734375 C 22.136719 22.757812 22.148438 22.785156 22.167969 22.800781 C 22.644531 23.167969 23.183594 23.375 23.78125 23.417969 C 24.074219 23.4375 24.367188 23.429688 24.660156 23.417969 C 24.84375 23.410156 25.023438 23.367188 25.203125 23.335938 C 25.359375 23.308594 25.515625 23.273438 25.691406 23.234375 C 25.726562 23.199219 25.773438 23.152344 25.832031 23.09375 C 25.808594 23.003906 25.804688 22.90625 25.757812 22.835938 C 25.601562 22.589844 25.425781 22.359375 25.273438 22.117188 C 25.125 21.886719 25 21.640625 24.863281 21.40625 C 25.246094 21.277344 25.628906 21.136719 26.015625 21.023438 C 26.453125 20.894531 26.878906 20.742188 27.308594 20.589844 C 27.867188 20.394531 28.425781 20.191406 28.96875 19.949219 C 29.554688 19.6875 30.140625 19.433594 30.71875 19.15625 C 31.160156 18.945312 31.597656 18.714844 32.03125 18.476562 C 32.367188 18.289062 32.707031 18.101562 33.027344 17.882812 C 33.296875 17.695312 33.59375 17.546875 33.867188 17.363281 C 34.34375 17.042969 34.804688 16.714844 35.273438 16.390625 C 35.332031 16.347656 35.390625 16.3125 35.449219 16.277344 C 35.429688 16.328125 35.425781 16.386719 35.394531 16.433594 C 35.15625 16.792969 34.914062 17.152344 34.675781 17.511719 C 34.414062 17.90625 34.160156 18.308594 33.898438 18.703125 C 33.738281 18.945312 33.574219 19.183594 33.414062 19.425781 C 33.21875 19.714844 33.035156 20.007812 32.84375 20.296875 C 32.59375 20.660156 32.339844 21.015625 32.09375 21.382812 C 31.945312 21.605469 31.8125 21.839844 31.671875 22.070312 C 31.636719 22.128906 31.605469 22.195312 31.574219 22.257812 C 31.5625 22.273438 31.550781 22.285156 31.539062 22.300781 C 31.46875 22.324219 31.503906 22.382812 31.492188 22.429688 L 31.496094 22.425781 C 31.457031 22.445312 31.40625 22.453125 31.386719 22.480469 C 31.160156 22.796875 30.941406 23.113281 30.71875 23.429688 C 30.4375 23.828125 30.160156 24.230469 29.878906 24.625 C 29.488281 25.167969 29.089844 25.707031 28.703125 26.253906 C 28.347656 26.753906 28 27.257812 27.644531 27.757812 C 27.207031 28.375 26.765625 28.984375 26.328125 29.597656 C 26.078125 29.949219 25.832031 30.300781 25.585938 30.65625 C 25.5625 30.691406 25.542969 30.726562 25.523438 30.765625 C 25.316406 31 25.203125 31.289062 25.066406 31.5625 C 24.882812 31.921875 24.738281 32.304688 24.636719 32.699219 C 24.558594 33.011719 24.464844 33.324219 24.449219 33.644531 C 24.425781 34.117188 24.421875 34.59375 24.519531 35.066406 C 24.609375 35.515625 24.753906 35.941406 24.933594 36.359375 C 25.070312 36.675781 25.234375 36.980469 25.429688 37.265625 C 25.671875 37.613281 25.917969 37.957031 26.175781 38.292969 C 26.300781 38.460938 26.453125 38.613281 26.59375 38.773438 C 26.574219 38.84375 26.519531 38.808594 26.476562 38.820312 C 26.441406 38.828125 26.410156 38.847656 26.375 38.863281 C 26.320312 38.859375 26.261719 38.859375 26.203125 38.859375 C 26.140625 38.78125 26.058594 38.835938 25.984375 38.820312 C 25.878906 38.808594 25.773438 38.804688 25.667969 38.785156 C 25.449219 38.746094 25.230469 38.699219 25.011719 38.648438 C 24.714844 38.585938 24.417969 38.527344 24.128906 38.445312 C 23.699219 38.324219 23.273438 38.183594 22.847656 38.042969 C 22.3125 37.863281 21.792969 37.644531 21.289062 37.394531 C 20.886719 37.195312 20.488281 36.980469 20.101562 36.753906 C 19.773438 36.558594 19.457031 36.34375 19.144531 36.128906 C 18.832031 35.910156 18.527344 35.683594 18.222656 35.453125 C 17.925781 35.230469 17.664062 34.96875 17.460938 34.65625 C 17.390625 34.550781 17.328125 34.445312 17.257812 34.335938 "/>
<path style=" stroke:none;fill-rule:nonzero;fill:rgb(19.332886%,27.423096%,62.872314%);fill-opacity:1;" d="M 35.449219 16.277344 C 35.390625 16.3125 35.332031 16.347656 35.273438 16.390625 C 34.804688 16.714844 34.34375 17.042969 33.867188 17.363281 C 33.59375 17.546875 33.296875 17.695312 33.027344 17.882812 C 32.707031 18.101562 32.367188 18.289062 32.03125 18.476562 C 31.597656 18.714844 31.160156 18.945312 30.71875 19.15625 C 30.140625 19.433594 29.554688 19.6875 28.96875 19.949219 C 28.425781 20.191406 27.867188 20.394531 27.308594 20.589844 C 26.878906 20.742188 26.453125 20.894531 26.015625 21.023438 C 25.628906 21.136719 25.246094 21.277344 24.863281 21.40625 C 24.84375 21.402344 24.828125 21.398438 24.808594 21.398438 C 24.664062 21.113281 24.527344 20.828125 24.382812 20.542969 C 24.109375 19.992188 23.917969 19.414062 23.8125 18.816406 C 23.722656 18.316406 23.714844 17.808594 23.789062 17.300781 C 23.90625 16.476562 24.277344 15.78125 24.832031 15.175781 C 25.21875 14.753906 25.664062 14.40625 26.152344 14.105469 C 26.671875 13.789062 27.210938 13.519531 27.777344 13.308594 C 28.488281 13.046875 29.207031 12.800781 29.914062 12.53125 C 30.527344 12.292969 31.136719 12.039062 31.746094 11.789062 C 32.433594 11.507812 33.121094 11.226562 33.800781 10.929688 C 34.300781 10.710938 34.789062 10.46875 35.285156 10.238281 C 35.570312 10.109375 35.855469 9.980469 36.136719 9.847656 C 36.378906 9.730469 36.617188 9.609375 36.855469 9.484375 C 37.203125 9.308594 37.550781 9.136719 37.894531 8.949219 C 38.539062 8.59375 39.179688 8.222656 39.824219 7.859375 C 40.625 7.410156 41.394531 6.90625 42.152344 6.390625 C 42.285156 6.296875 42.417969 6.203125 42.554688 6.113281 C 42.605469 6.082031 42.667969 6.066406 42.722656 6.042969 L 42.722656 6.039062 C 42.714844 6.066406 42.714844 6.097656 42.699219 6.117188 C 42.324219 6.609375 41.945312 7.097656 41.570312 7.589844 C 41.257812 8.003906 40.941406 8.417969 40.632812 8.832031 C 40.144531 9.488281 39.660156 10.148438 39.179688 10.808594 C 38.8125 11.316406 38.449219 11.824219 38.089844 12.335938 C 37.847656 12.671875 37.609375 13.007812 37.378906 13.347656 C 37.132812 13.710938 36.890625 14.078125 36.644531 14.445312 C 36.421875 14.773438 36.199219 15.101562 35.976562 15.433594 C 35.855469 15.609375 35.734375 15.78125 35.621094 15.960938 C 35.554688 16.0625 35.503906 16.171875 35.449219 16.277344 "/>
<path style=" stroke:none;fill-rule:nonzero;fill:rgb(93.47229%,80.078125%,3.833008%);fill-opacity:1;" d="M 17.257812 34.335938 C 17.328125 34.445312 17.390625 34.550781 17.460938 34.65625 C 17.664062 34.96875 17.925781 35.230469 18.222656 35.453125 C 18.527344 35.683594 18.832031 35.910156 19.144531 36.128906 C 19.457031 36.34375 19.773438 36.558594 20.101562 36.753906 C 20.488281 36.980469 20.886719 37.195312 21.289062 37.394531 C 21.792969 37.644531 22.3125 37.863281 22.847656 38.042969 C 23.273438 38.183594 23.699219 38.324219 24.128906 38.445312 C 24.417969 38.527344 24.714844 38.585938 25.011719 38.648438 C 25.230469 38.699219 25.449219 38.746094 25.667969 38.785156 C 25.773438 38.804688 25.878906 38.808594 25.984375 38.820312 C 26.027344 38.835938 26.074219 38.847656 26.117188 38.863281 C 26.191406 38.953125 26.292969 38.886719 26.378906 38.90625 C 26.40625 38.90625 26.429688 38.90625 26.457031 38.90625 C 26.476562 38.917969 26.492188 38.929688 26.507812 38.941406 C 26.605469 38.945312 26.707031 38.949219 26.804688 38.953125 C 26.820312 38.992188 26.835938 38.992188 26.855469 38.953125 C 26.882812 38.949219 26.910156 38.949219 26.9375 38.945312 L 26.933594 38.949219 C 26.964844 38.964844 26.992188 38.976562 27.023438 38.992188 C 27.148438 39.003906 27.277344 39.023438 27.402344 39.03125 C 27.746094 39.0625 28.09375 39.109375 28.441406 39.113281 C 29.183594 39.128906 29.929688 39.117188 30.675781 39.117188 L 30.679688 39.125 C 30.664062 39.257812 30.636719 39.394531 30.640625 39.527344 C 30.648438 39.839844 30.679688 40.148438 30.796875 40.441406 C 30.996094 40.933594 31.328125 41.3125 31.753906 41.617188 C 32.132812 41.890625 32.546875 42.097656 32.976562 42.28125 C 33.640625 42.5625 34.335938 42.71875 35.023438 42.902344 C 35.207031 42.949219 35.398438 42.964844 35.585938 42.996094 C 35.640625 43.007812 35.695312 43.027344 35.761719 43.046875 C 35.636719 43.167969 35.480469 43.160156 35.34375 43.199219 C 35.105469 43.265625 34.863281 43.316406 34.621094 43.359375 C 34.378906 43.402344 34.132812 43.433594 33.886719 43.464844 C 33.597656 43.496094 33.308594 43.535156 33.019531 43.539062 C 32.757812 43.546875 32.492188 43.578125 32.226562 43.515625 C 32.15625 43.496094 32.074219 43.511719 31.992188 43.511719 C 31.65625 43.507812 31.328125 43.464844 31.003906 43.390625 C 30.824219 43.351562 30.640625 43.324219 30.460938 43.296875 C 30.101562 43.242188 29.761719 43.128906 29.417969 43.023438 C 28.941406 42.882812 28.488281 42.6875 28.035156 42.488281 C 27.351562 42.195312 26.710938 41.816406 26.070312 41.433594 C 25.820312 41.285156 25.589844 41.113281 25.335938 40.945312 C 25.308594 40.980469 25.273438 41.007812 25.269531 41.035156 C 25.226562 41.394531 25.1875 41.753906 25.242188 42.117188 C 25.277344 42.335938 25.296875 42.554688 25.335938 42.769531 C 25.417969 43.222656 25.550781 43.660156 25.726562 44.085938 C 25.886719 44.480469 26.058594 44.871094 26.257812 45.246094 C 26.488281 45.683594 26.746094 46.109375 27.011719 46.527344 C 27.445312 47.210938 27.929688 47.859375 28.441406 48.488281 C 28.71875 48.820312 28.996094 49.152344 29.273438 49.488281 C 29.289062 49.507812 29.296875 49.539062 29.308594 49.5625 C 29.304688 49.605469 29.300781 49.644531 29.296875 49.683594 C 29.203125 49.65625 29.128906 49.601562 29.046875 49.539062 C 28.820312 49.367188 28.578125 49.21875 28.347656 49.050781 C 28.015625 48.808594 27.691406 48.554688 27.363281 48.300781 C 27.132812 48.125 26.902344 47.949219 26.675781 47.761719 C 26.394531 47.535156 26.117188 47.300781 25.835938 47.074219 C 25.539062 46.828125 25.242188 46.585938 24.945312 46.339844 C 24.675781 46.121094 24.410156 45.894531 24.136719 45.675781 C 23.746094 45.367188 23.359375 45.058594 22.957031 44.765625 C 22.34375 44.316406 21.710938 43.894531 21.101562 43.445312 C 20.59375 43.066406 20.105469 42.664062 19.609375 42.269531 C 18.894531 41.695312 18.238281 41.058594 17.613281 40.390625 C 17.363281 40.117188 17.144531 39.816406 16.921875 39.523438 C 16.683594 39.214844 16.480469 38.878906 16.324219 38.523438 C 16.207031 38.269531 16.109375 38.007812 16.042969 37.726562 C 15.980469 37.476562 15.933594 37.226562 15.9375 36.972656 C 15.945312 36.421875 16.078125 35.902344 16.367188 35.417969 C 16.613281 35.011719 16.902344 34.648438 17.257812 34.335938 "/>
<path style=" stroke:none;fill-rule:nonzero;fill:rgb(19.425964%,27.607727%,62.90741%);fill-opacity:1;" d="M 25.585938 30.65625 C 25.832031 30.300781 26.078125 29.949219 26.328125 29.597656 C 26.765625 28.984375 27.207031 28.375 27.644531 27.757812 C 28 27.257812 28.347656 26.753906 28.703125 26.253906 C 29.089844 25.707031 29.488281 25.167969 29.878906 24.625 C 30.160156 24.230469 30.4375 23.828125 30.71875 23.429688 C 30.941406 23.113281 31.160156 22.796875 31.386719 22.480469 C 31.40625 22.453125 31.457031 22.445312 31.496094 22.425781 C 31.476562 22.519531 31.476562 22.617188 31.4375 22.695312 C 31.339844 22.90625 31.308594 23.136719 31.289062 23.355469 C 31.261719 23.730469 31.253906 24.109375 31.304688 24.488281 C 31.347656 24.777344 31.410156 25.058594 31.496094 25.335938 C 31.554688 25.53125 31.628906 25.722656 31.710938 25.914062 C 32.003906 26.59375 32.421875 27.195312 32.941406 27.71875 C 33.574219 28.347656 34.304688 28.832031 35.164062 29.101562 C 35.53125 29.21875 35.902344 29.285156 36.285156 29.324219 C 36.703125 29.363281 37.101562 29.3125 37.511719 29.242188 C 38.140625 29.132812 38.722656 28.902344 39.296875 28.644531 C 40.121094 28.269531 40.898438 27.8125 41.640625 27.296875 C 42.15625 26.9375 42.660156 26.566406 43.125 26.148438 C 43.15625 26.121094 43.195312 26.101562 43.230469 26.078125 C 43.269531 26.082031 43.304688 26.085938 43.339844 26.089844 C 43.160156 26.480469 42.984375 26.875 42.796875 27.261719 C 42.550781 27.78125 42.292969 28.292969 42.046875 28.8125 C 41.890625 29.136719 41.738281 29.464844 41.648438 29.816406 C 41.574219 30.105469 41.582031 30.394531 41.703125 30.671875 C 41.785156 30.851562 41.9375 30.980469 42.089844 31.097656 C 42.660156 31.550781 43.242188 32.003906 43.820312 32.453125 C 44.050781 32.632812 44.28125 32.804688 44.546875 33.007812 C 44.464844 33.007812 44.410156 33.015625 44.363281 33.007812 C 43.816406 32.890625 43.269531 32.78125 42.714844 32.703125 C 42.265625 32.640625 41.820312 32.5625 41.367188 32.5 C 41.074219 32.460938 40.777344 32.4375 40.480469 32.40625 C 40.097656 32.363281 39.71875 32.320312 39.335938 32.28125 C 39.136719 32.261719 38.9375 32.25 38.738281 32.234375 C 38.300781 32.203125 37.859375 32.175781 37.417969 32.144531 C 37.054688 32.117188 36.695312 32.089844 36.332031 32.058594 C 35.972656 32.03125 35.609375 32 35.25 31.976562 C 34.773438 31.945312 34.296875 31.917969 33.820312 31.886719 C 33.628906 31.875 33.4375 31.859375 33.246094 31.84375 C 32.847656 31.804688 32.453125 31.765625 32.058594 31.726562 C 31.859375 31.710938 31.660156 31.6875 31.460938 31.679688 C 31.0625 31.664062 30.667969 31.605469 30.277344 31.554688 C 30.007812 31.519531 29.738281 31.496094 29.472656 31.464844 C 28.992188 31.402344 28.515625 31.339844 28.039062 31.257812 C 27.453125 31.152344 26.867188 31.050781 26.292969 30.90625 C 26.164062 30.871094 26.03125 30.839844 25.902344 30.804688 C 25.898438 30.78125 25.890625 30.757812 25.878906 30.710938 C 25.847656 30.742188 25.832031 30.757812 25.816406 30.773438 C 25.789062 30.769531 25.761719 30.765625 25.730469 30.761719 C 25.734375 30.675781 25.675781 30.6875 25.621094 30.699219 C 25.609375 30.683594 25.597656 30.667969 25.585938 30.65625 "/>
<path style=" stroke:none;fill-rule:nonzero;fill:rgb(19.425964%,27.607727%,62.90741%);fill-opacity:1;" d="M 26.59375 38.773438 C 26.453125 38.613281 26.300781 38.460938 26.175781 38.292969 C 25.917969 37.957031 25.671875 37.613281 25.429688 37.265625 C 25.234375 36.980469 25.070312 36.675781 24.933594 36.359375 C 24.753906 35.941406 24.609375 35.515625 24.519531 35.066406 C 24.421875 34.59375 24.425781 34.117188 24.449219 33.644531 C 24.464844 33.324219 24.558594 33.011719 24.636719 32.699219 C 24.738281 32.304688 24.882812 31.921875 25.066406 31.5625 C 25.203125 31.289062 25.316406 31 25.523438 30.765625 C 25.558594 30.824219 25.613281 30.875 25.636719 30.941406 C 25.800781 31.382812 26.070312 31.769531 26.347656 32.144531 C 26.652344 32.550781 27.011719 32.910156 27.375 33.265625 C 27.800781 33.675781 28.269531 34.039062 28.746094 34.390625 C 29.328125 34.820312 29.941406 35.210938 30.566406 35.578125 C 31.019531 35.84375 31.480469 36.089844 31.945312 36.332031 C 32.492188 36.617188 33.039062 36.894531 33.597656 37.15625 C 34.199219 37.441406 34.808594 37.714844 35.417969 37.980469 C 35.734375 38.121094 36.0625 38.238281 36.386719 38.367188 C 36.433594 38.386719 36.480469 38.417969 36.574219 38.46875 C 36.414062 38.503906 36.296875 38.53125 36.183594 38.550781 C 35.769531 38.613281 35.355469 38.671875 34.941406 38.730469 C 34.578125 38.785156 34.214844 38.84375 33.847656 38.894531 C 33.636719 38.921875 33.421875 38.929688 33.210938 38.949219 C 32.859375 38.984375 32.507812 39.027344 32.15625 39.066406 C 32.125 39.070312 32.097656 39.066406 32.070312 39.070312 C 31.605469 39.089844 31.140625 39.105469 30.679688 39.125 L 30.675781 39.117188 C 30.691406 39.078125 30.714844 39.039062 30.71875 39 C 30.757812 38.597656 30.945312 38.25 31.101562 37.894531 C 31.246094 37.570312 31.441406 37.277344 31.632812 36.980469 C 31.664062 36.929688 31.6875 36.875 31.726562 36.800781 C 31.65625 36.800781 31.613281 36.792969 31.578125 36.800781 C 31.457031 36.835938 31.335938 36.882812 31.21875 36.917969 C 30.601562 37.101562 30.015625 37.339844 29.453125 37.652344 C 29.152344 37.816406 28.847656 37.980469 28.5625 38.167969 C 28.273438 38.359375 28.003906 38.574219 27.726562 38.78125 C 27.582031 38.886719 27.425781 38.964844 27.238281 38.949219 C 27.167969 38.945312 27.097656 38.949219 27.023438 38.949219 C 26.996094 38.949219 26.964844 38.949219 26.933594 38.949219 L 26.9375 38.945312 C 26.824219 38.890625 26.707031 38.832031 26.59375 38.773438 "/>
<path style=" stroke:none;fill-rule:nonzero;fill:rgb(19.425964%,27.607727%,62.90741%);fill-opacity:1;" d="M 22.074219 22.738281 C 21.691406 23.011719 21.335938 23.320312 21.03125 23.675781 C 20.695312 24.070312 20.429688 24.507812 20.269531 25.007812 C 20.160156 25.34375 20.09375 25.683594 20.09375 26.039062 C 20.09375 26.171875 20.027344 26.300781 20.09375 26.433594 C 20.09375 26.4375 20.066406 26.460938 20.054688 26.476562 C 19.957031 26.304688 19.851562 26.140625 19.761719 25.96875 C 19.527344 25.527344 19.296875 25.089844 19.070312 24.648438 C 18.71875 23.957031 18.363281 23.265625 18.027344 22.570312 C 17.726562 21.957031 17.453125 21.335938 17.167969 20.714844 C 16.980469 20.304688 16.796875 19.890625 16.621094 19.472656 C 16.488281 19.160156 16.371094 18.84375 16.25 18.523438 C 16.050781 17.980469 15.851562 17.433594 15.65625 16.886719 C 15.621094 16.792969 15.597656 16.691406 15.605469 16.574219 C 15.75 16.679688 15.894531 16.792969 16.042969 16.894531 C 16.40625 17.148438 16.792969 17.355469 17.226562 17.464844 C 17.375 17.503906 17.535156 17.507812 17.691406 17.523438 C 18.160156 17.566406 18.585938 17.726562 18.96875 18 C 19.363281 18.277344 19.648438 18.644531 19.839844 19.082031 C 20.019531 19.488281 20.210938 19.890625 20.410156 20.289062 C 20.625 20.722656 20.847656 21.148438 21.101562 21.558594 C 21.257812 21.8125 21.421875 22.0625 21.632812 22.277344 C 21.78125 22.429688 21.925781 22.582031 22.074219 22.738281 "/>
<path style=" stroke:none;fill-rule:nonzero;fill:rgb(93.482971%,80.081177%,3.829956%);fill-opacity:1;" d="M 17.648438 30.984375 C 17.609375 31.058594 17.574219 31.136719 17.535156 31.207031 C 17.292969 31.632812 17.164062 32.101562 17.046875 32.570312 C 17.039062 32.613281 17.042969 32.65625 17.042969 32.699219 C 17.039062 32.847656 17.042969 33 17.039062 33.148438 C 17.03125 33.441406 17.042969 33.730469 17.164062 34.003906 C 17.175781 34.027344 17.167969 34.058594 17.171875 34.085938 C 17.144531 34.066406 17.113281 34.046875 17.09375 34.019531 C 16.625 33.238281 16.113281 32.488281 15.566406 31.761719 C 15.1875 31.257812 14.800781 30.753906 14.378906 30.28125 C 14.019531 29.875 13.667969 29.464844 13.296875 29.070312 C 12.8125 28.558594 12.316406 28.0625 11.824219 27.5625 C 11.742188 27.476562 11.644531 27.402344 11.554688 27.324219 C 11.53125 27.300781 11.511719 27.273438 11.453125 27.203125 C 11.609375 27.230469 11.71875 27.242188 11.820312 27.265625 C 12.367188 27.386719 12.914062 27.453125 13.472656 27.414062 C 13.683594 27.398438 13.894531 27.363281 14.101562 27.320312 C 14.667969 27.203125 15.199219 27.4375 15.488281 27.921875 C 15.542969 28.019531 15.59375 28.121094 15.632812 28.226562 C 15.75 28.554688 15.953125 28.832031 16.140625 29.113281 C 16.355469 29.4375 16.597656 29.742188 16.847656 30.046875 C 17.0625 30.308594 17.300781 30.558594 17.527344 30.816406 C 17.574219 30.867188 17.605469 30.925781 17.648438 30.984375 "/>
<path style=" stroke:none;fill-rule:nonzero;fill:rgb(19.734192%,27.571106%,62.92572%);fill-opacity:1;" d="M 20.574219 28.539062 C 20.734375 28.878906 20.898438 29.210938 20.96875 29.589844 C 21.105469 30.359375 20.597656 30.984375 20.117188 31.242188 C 19.898438 31.359375 19.667969 31.460938 19.425781 31.488281 C 19.132812 31.527344 18.828125 31.550781 18.539062 31.457031 C 18.410156 31.414062 18.273438 31.390625 18.148438 31.316406 C 17.980469 31.21875 17.828125 31.109375 17.683594 30.984375 C 17.710938 30.929688 17.730469 30.867188 17.765625 30.816406 C 17.992188 30.46875 18.253906 30.148438 18.550781 29.859375 C 19.140625 29.289062 19.808594 28.84375 20.574219 28.539062 "/>
<path style=" stroke:none;fill-rule:nonzero;fill:rgb(92.886353%,80.090332%,3.981018%);fill-opacity:1;" d="M 24.808594 21.398438 C 24.828125 21.398438 24.84375 21.402344 24.863281 21.40625 C 25 21.640625 25.125 21.886719 25.273438 22.117188 C 25.425781 22.359375 25.601562 22.589844 25.757812 22.835938 C 25.804688 22.90625 25.808594 23.003906 25.832031 23.09375 C 25.773438 23.152344 25.726562 23.199219 25.691406 23.234375 C 25.515625 23.273438 25.359375 23.308594 25.203125 23.335938 C 25.023438 23.367188 24.84375 23.410156 24.660156 23.417969 C 24.367188 23.429688 24.074219 23.4375 23.78125 23.417969 C 23.183594 23.375 22.644531 23.167969 22.167969 22.800781 C 22.148438 22.785156 22.136719 22.757812 22.117188 22.734375 C 22.128906 22.71875 22.136719 22.695312 22.152344 22.683594 C 22.480469 22.464844 22.820312 22.261719 23.171875 22.082031 C 23.703125 21.816406 24.257812 21.609375 24.808594 21.398438 "/>
<path style=" stroke:none;fill-rule:nonzero;fill:rgb(92.274475%,84.550476%,16.766357%);fill-opacity:1;" d="M 29.40625 49.6875 C 29.539062 49.707031 29.585938 49.800781 29.601562 49.917969 L 29.605469 49.917969 C 29.476562 49.910156 29.445312 49.792969 29.371094 49.71875 C 29.382812 49.710938 29.394531 49.699219 29.40625 49.6875 "/>
<path style=" stroke:none;fill-rule:nonzero;fill:rgb(92.274475%,84.550476%,16.766357%);fill-opacity:1;" d="M 29.296875 49.683594 C 29.300781 49.644531 29.304688 49.605469 29.308594 49.5625 C 29.34375 49.605469 29.375 49.648438 29.40625 49.6875 C 29.394531 49.699219 29.382812 49.710938 29.371094 49.71875 C 29.347656 49.707031 29.324219 49.695312 29.296875 49.683594 "/>
<path style=" stroke:none;fill-rule:nonzero;fill:rgb(19.425964%,27.607727%,62.90741%);fill-opacity:1;" d="M 25.621094 30.699219 C 25.675781 30.6875 25.734375 30.675781 25.730469 30.761719 C 25.667969 30.785156 25.644531 30.742188 25.621094 30.699219 "/>
<path style=" stroke:none;fill-rule:nonzero;fill:rgb(19.425964%,27.607727%,62.90741%);fill-opacity:1;" d="M 25.816406 30.773438 C 25.832031 30.757812 25.847656 30.742188 25.878906 30.710938 C 25.890625 30.757812 25.898438 30.78125 25.902344 30.804688 C 25.875 30.792969 25.847656 30.785156 25.816406 30.773438 "/>
<path style=" stroke:none;fill-rule:nonzero;fill:rgb(19.425964%,27.607727%,62.90741%);fill-opacity:1;" d="M 31.492188 22.429688 C 31.503906 22.382812 31.46875 22.324219 31.539062 22.300781 C 31.535156 22.347656 31.558594 22.40625 31.492188 22.429688 "/>
<path style=" stroke:none;fill-rule:nonzero;fill:rgb(19.425964%,27.607727%,62.90741%);fill-opacity:1;" d="M 31.539062 22.300781 C 31.550781 22.285156 31.5625 22.273438 31.574219 22.257812 C 31.5625 22.273438 31.550781 22.285156 31.539062 22.300781 "/>
<path style=" stroke:none;fill-rule:nonzero;fill:rgb(27.952576%,68.562317%,22.616577%);fill-opacity:1;" d="M 26.59375 38.773438 C 26.707031 38.832031 26.824219 38.890625 26.9375 38.945312 C 26.910156 38.949219 26.882812 38.949219 26.855469 38.953125 C 26.835938 38.953125 26.820312 38.953125 26.804688 38.953125 C 26.707031 38.949219 26.605469 38.945312 26.507812 38.941406 C 26.492188 38.929688 26.476562 38.917969 26.457031 38.90625 C 26.429688 38.90625 26.40625 38.90625 26.378906 38.90625 C 26.378906 38.890625 26.378906 38.878906 26.375 38.863281 C 26.410156 38.847656 26.441406 38.828125 26.476562 38.820312 C 26.519531 38.808594 26.574219 38.84375 26.59375 38.773438 "/>
<path style=" stroke:none;fill-rule:nonzero;fill:rgb(48.832703%,76.287842%,19.044495%);fill-opacity:1;" d="M 26.375 38.863281 C 26.378906 38.878906 26.378906 38.890625 26.378906 38.90625 C 26.292969 38.886719 26.191406 38.953125 26.117188 38.863281 C 26.144531 38.859375 26.175781 38.859375 26.203125 38.859375 C 26.261719 38.859375 26.320312 38.859375 26.375 38.863281 "/>
<path style=" stroke:none;fill-rule:nonzero;fill:rgb(27.952576%,68.562317%,22.616577%);fill-opacity:1;" d="M 26.203125 38.859375 C 26.175781 38.859375 26.144531 38.859375 26.117188 38.863281 C 26.074219 38.847656 26.027344 38.835938 25.984375 38.820312 C 26.058594 38.835938 26.140625 38.78125 26.203125 38.859375 "/>
<path style=" stroke:none;fill-rule:nonzero;fill:rgb(27.952576%,68.562317%,22.616577%);fill-opacity:1;" d="M 27.023438 38.949219 C 27.097656 38.949219 27.167969 38.945312 27.238281 38.949219 C 27.425781 38.964844 27.582031 38.886719 27.726562 38.78125 C 28.003906 38.574219 28.273438 38.359375 28.5625 38.167969 C 28.847656 37.980469 29.152344 37.816406 29.453125 37.652344 C 30.015625 37.339844 30.601562 37.101562 31.21875 36.917969 C 31.335938 36.882812 31.457031 36.835938 31.578125 36.800781 C 31.613281 36.792969 31.65625 36.800781 31.726562 36.800781 C 31.6875 36.875 31.664062 36.929688 31.632812 36.980469 C 31.441406 37.277344 31.246094 37.570312 31.101562 37.894531 C 30.945312 38.25 30.757812 38.597656 30.71875 39 C 30.714844 39.039062 30.691406 39.078125 30.675781 39.117188 C 29.929688 39.117188 29.183594 39.128906 28.441406 39.113281 C 28.09375 39.109375 27.746094 39.0625 27.402344 39.03125 C 27.277344 39.023438 27.148438 39.003906 27.023438 38.992188 C 27.023438 38.976562 27.023438 38.964844 27.023438 38.949219 "/>
<path style=" stroke:none;fill-rule:nonzero;fill:rgb(48.832703%,76.287842%,19.044495%);fill-opacity:1;" d="M 27.023438 38.949219 C 27.023438 38.964844 27.023438 38.976562 27.023438 38.992188 C 26.992188 38.976562 26.964844 38.964844 26.933594 38.949219 C 26.964844 38.949219 26.996094 38.949219 27.023438 38.949219 "/>
<path style=" stroke:none;fill-rule:nonzero;fill:rgb(48.832703%,76.287842%,19.044495%);fill-opacity:1;" d="M 26.457031 38.90625 C 26.476562 38.917969 26.492188 38.929688 26.507812 38.941406 C 26.492188 38.929688 26.476562 38.917969 26.457031 38.90625 "/>
<path style=" stroke:none;fill-rule:nonzero;fill:rgb(48.832703%,76.287842%,19.044495%);fill-opacity:1;" d="M 26.804688 38.953125 C 26.820312 38.953125 26.835938 38.953125 26.855469 38.953125 C 26.835938 38.992188 26.820312 38.992188 26.804688 38.953125 "/>
</g>
</svg>
