<?xml version="1.0" encoding="UTF-8"?>
<svg xmlns="http://www.w3.org/2000/svg" xmlns:xlink="http://www.w3.org/1999/xlink" width="56pt" height="56pt" viewBox="0 0 56 56" version="1.1">
<g id="surface1">
<rect x="0" y="0" width="56" height="56" style="fill:rgb(96.205139%,49.777222%,8.51593%);fill-opacity:1;stroke:none;"/>
<path style=" stroke:none;fill-rule:nonzero;fill:rgb(100%,100%,100%);fill-opacity:1;" d="M 28.691406 20.203125 C 24.160156 20.175781 20.832031 23.515625 20.878906 27.96875 C 20.90625 30.761719 22.554688 32.203125 25.285156 31.664062 C 28.269531 31.082031 30.855469 29.695312 32.878906 27.378906 C 33.292969 26.902344 33.660156 26.351562 33.925781 25.777344 C 34.738281 24.035156 34.273438 22.4375 32.671875 21.394531 C 31.445312 20.597656 30.101562 20.152344 28.691406 20.203125 Z M 37.488281 32.375 C 36.867188 32.964844 36.257812 33.570312 35.625 34.148438 C 29.613281 39.632812 22.566406 41.742188 14.570312 40.359375 C 12.914062 40.070312 11.273438 39.296875 9.796875 38.449219 C 6.785156 36.71875 5.039062 33.988281 4.707031 30.527344 C 3.925781 22.34375 6.308594 15.261719 12.894531 10.140625 C 27.214844 -0.996094 46.375 6.230469 50.640625 22.039062 C 54.382812 35.917969 44.457031 50.054688 30.128906 51.15625 C 23.484375 51.667969 17.660156 49.773438 12.566406 45.53125 C 12.113281 45.15625 11.671875 44.738281 11.316406 44.277344 C 11.136719 44.042969 11 43.539062 11.128906 43.371094 C 11.324219 43.117188 11.761719 42.921875 12.09375 42.929688 C 12.519531 42.9375 12.9375 43.175781 13.359375 43.308594 C 19.859375 45.359375 25.945312 44.511719 31.558594 40.632812 C 33.988281 38.953125 35.914062 36.769531 37.382812 34.207031 C 37.652344 33.738281 37.71875 33.160156 37.878906 32.632812 C 37.75 32.546875 37.617188 32.460938 37.488281 32.375 "/>
</g>
</svg>
