<?xml version="1.0" encoding="UTF-8"?>
<svg xmlns="http://www.w3.org/2000/svg" xmlns:xlink="http://www.w3.org/1999/xlink" width="56pt" height="56pt" viewBox="0 0 56 56" version="1.1">
<g id="surface1">
<rect x="0" y="0" width="56" height="56" style="fill:rgb(8.334351%,45.431519%,75.915527%);fill-opacity:1;stroke:none;"/>
<path style=" stroke:none;fill-rule:nonzero;fill:rgb(100%,100%,100%);fill-opacity:1;" d="M 26.46875 30.3125 C 19.273438 31.554688 9.742188 32.390625 2.421875 34.613281 C 8.144531 34.558594 13.988281 34.535156 19.964844 34.535156 C 23.519531 34.535156 27.007812 34.535156 30.46875 34.570312 C 33.464844 34.570312 36.394531 34.59375 39.164062 34.648438 C 44.082031 34.679688 48.886719 34.761719 53.578125 34.871094 C 53.285156 33.160156 52.015625 31.183594 47.992188 31.183594 L 45.667969 31.152344 L 45.667969 31.164062 C 46.316406 32.691406 44.71875 33.675781 43.320312 32.917969 C 42.59375 32.546875 42.203125 31.777344 43.230469 30.992188 C 44.269531 30.199219 45.980469 29.027344 46.839844 28.523438 C 49.710938 26.804688 49.601562 23.898438 45.46875 23.585938 C 35.609375 22.769531 17.84375 21.683594 11.382812 21.128906 C 15.886719 24.035156 22.222656 24.816406 28.035156 26.804688 C 31.789062 28.089844 29.855469 29.730469 26.46875 30.3125 "/>
</g>
</svg>
