<?xml version="1.0" encoding="UTF-8"?>
<svg xmlns="http://www.w3.org/2000/svg" xmlns:xlink="http://www.w3.org/1999/xlink" width="56pt" height="56pt" viewBox="0 0 56 56" version="1.1">
<g id="surface1">
<rect x="0" y="0" width="56" height="56" style="fill:rgb(85.896301%,12.194824%,15.197754%);fill-opacity:1;stroke:none;"/>
<path style=" stroke:none;fill-rule:nonzero;fill:rgb(100%,100%,100%);fill-opacity:1;" d="M 41.417969 26.054688 C 41.695312 26.070312 41.914062 25.933594 41.949219 25.699219 L 42.078125 24.957031 L 42.078125 24.871094 C 42.078125 24.65625 41.90625 24.546875 41.660156 24.546875 L 41.628906 24.546875 C 41.171875 24.546875 40.734375 24.597656 40.273438 24.703125 C 39.859375 24.796875 39.441406 25.003906 38.972656 25.304688 L 39.011719 25.121094 L 39.011719 25.03125 C 39.011719 24.820312 38.855469 24.664062 38.648438 24.664062 L 37.757812 24.664062 C 37.640625 24.664062 37.527344 24.707031 37.433594 24.796875 C 37.34375 24.871094 37.28125 24.96875 37.238281 25.082031 L 35.582031 33.953125 L 35.582031 34.027344 C 35.582031 34.25 35.730469 34.398438 35.9375 34.398438 L 36.867188 34.398438 C 36.980469 34.398438 37.097656 34.351562 37.191406 34.277344 C 37.292969 34.191406 37.363281 34.097656 37.390625 33.980469 L 38.75 26.742188 C 39.207031 26.488281 39.609375 26.308594 39.992188 26.210938 C 40.371094 26.101562 40.832031 26.054688 41.363281 26.054688 Z M 54.324219 21.597656 C 54.242188 21.515625 54.128906 21.480469 54.015625 21.484375 L 53.039062 21.484375 C 52.75 21.46875 52.484375 21.671875 52.453125 21.957031 L 50.199219 33.855469 L 50.199219 33.949219 C 50.199219 34.066406 50.226562 34.179688 50.304688 34.28125 C 50.398438 34.363281 50.515625 34.398438 50.632812 34.398438 L 51.605469 34.398438 C 51.742188 34.398438 51.882812 34.34375 51.988281 34.25 C 52.09375 34.15625 52.160156 34.046875 52.183594 33.925781 L 54.445312 22 L 54.445312 21.921875 C 54.457031 21.804688 54.417969 21.691406 54.324219 21.597656 M 47.140625 32.082031 C 46.632812 32.398438 46.179688 32.636719 45.761719 32.800781 C 45.347656 32.976562 44.929688 33.054688 44.5 33.054688 C 44.0625 33.054688 43.703125 32.933594 43.402344 32.675781 C 43.109375 32.441406 42.953125 32.003906 42.953125 31.339844 C 42.953125 31.21875 42.964844 31.082031 42.96875 30.949219 C 42.984375 30.808594 43.003906 30.679688 43.027344 30.550781 L 43.367188 28.761719 C 43.542969 27.855469 43.875 27.167969 44.375 26.699219 C 44.859375 26.242188 45.578125 26 46.539062 26 C 46.9375 26 47.28125 26.023438 47.550781 26.054688 C 47.804688 26.078125 48.035156 26.121094 48.253906 26.164062 Z M 50.261719 25.285156 C 50.25 25.101562 50.074219 24.988281 49.84375 24.945312 C 49.363281 24.824219 48.839844 24.730469 48.253906 24.65625 C 47.6875 24.585938 47.105469 24.546875 46.539062 24.546875 C 45.972656 24.546875 45.425781 24.609375 44.882812 24.75 C 44.351562 24.875 43.863281 25.105469 43.421875 25.421875 C 42.984375 25.730469 42.613281 26.148438 42.289062 26.660156 C 41.960938 27.183594 41.730469 27.8125 41.578125 28.574219 L 41.246094 30.292969 C 41.171875 30.65625 41.128906 31.015625 41.128906 31.359375 C 41.128906 31.898438 41.203125 32.371094 41.375 32.769531 C 41.53125 33.164062 41.746094 33.496094 42.011719 33.75 C 42.289062 34.019531 42.613281 34.203125 42.96875 34.328125 C 43.339844 34.457031 43.734375 34.515625 44.140625 34.515625 C 44.464844 34.515625 44.746094 34.507812 45 34.457031 C 45.253906 34.414062 45.5 34.351562 45.742188 34.261719 C 45.972656 34.179688 46.203125 34.066406 46.445312 33.933594 C 46.632812 33.832031 46.832031 33.71875 47.039062 33.578125 L 46.984375 33.910156 L 46.984375 34.027344 C 46.984375 34.136719 47 34.214844 47.0625 34.28125 C 47.125 34.371094 47.222656 34.398438 47.339844 34.398438 L 48.105469 34.398438 C 48.222656 34.398438 48.335938 34.351562 48.429688 34.273438 C 48.519531 34.191406 48.59375 34.09375 48.613281 33.980469 L 50.226562 25.445312 C 50.238281 25.421875 50.261719 25.351562 50.261719 25.285156 M 33.425781 26.125 L 35.550781 26.125 C 35.671875 26.125 35.800781 26.082031 35.878906 26 C 35.972656 25.933594 36.03125 25.824219 36.0625 25.707031 L 36.183594 25.121094 L 36.183594 25.03125 C 36.183594 24.804688 36.019531 24.664062 35.800781 24.664062 L 33.71875 24.664062 L 34.03125 22.871094 L 34.03125 22.804688 C 34.03125 22.617188 33.90625 22.464844 33.71875 22.464844 L 33.660156 22.464844 L 32.652344 22.617188 C 32.382812 22.644531 32.199219 22.804688 32.167969 23.035156 L 31.890625 24.582031 C 30.902344 24.570312 28.855469 24.558594 28.390625 24.550781 C 28.132812 24.546875 27.566406 24.546875 27.207031 24.546875 C 26.742188 24.546875 26.265625 24.585938 25.792969 24.664062 C 25.316406 24.75 24.890625 24.898438 24.527344 25.105469 C 24.15625 25.328125 23.855469 25.605469 23.613281 25.964844 C 23.371094 26.324219 23.253906 26.769531 23.253906 27.308594 C 23.253906 28.113281 23.800781 28.835938 24.851562 29.484375 L 26.566406 30.503906 C 27.007812 30.753906 27.300781 30.984375 27.425781 31.15625 C 27.554688 31.316406 27.625 31.492188 27.625 31.664062 C 27.625 31.933594 27.5625 32.152344 27.464844 32.332031 C 27.355469 32.511719 27.207031 32.636719 27.023438 32.75 C 26.835938 32.847656 26.628906 32.933594 26.371094 32.980469 C 26.121094 33.027344 25.863281 33.054688 25.59375 33.054688 C 25.433594 33.054688 25.238281 33.054688 24.980469 33.042969 C 24.75 33.027344 24.480469 33.023438 24.21875 33 C 23.949219 32.980469 23.683594 32.957031 23.429688 32.941406 C 23.160156 32.914062 22.921875 32.894531 22.691406 32.867188 L 22.574219 32.867188 C 22.347656 32.859375 22.179688 32.984375 22.132812 33.195312 L 22.027344 33.808594 L 22.027344 33.878906 C 22.015625 33.980469 22.0625 34.09375 22.15625 34.144531 C 22.226562 34.191406 22.304688 34.230469 22.398438 34.261719 C 22.617188 34.304688 22.859375 34.34375 23.113281 34.375 C 23.371094 34.414062 23.636719 34.441406 23.902344 34.457031 C 24.15625 34.480469 24.425781 34.480469 24.683594 34.507812 C 24.921875 34.511719 25.144531 34.515625 25.339844 34.515625 C 25.863281 34.515625 26.371094 34.46875 26.859375 34.371094 C 27.371094 34.273438 27.808594 34.097656 28.179688 33.878906 C 28.574219 33.632812 28.875 33.332031 29.109375 32.953125 C 29.339844 32.558594 29.457031 32.082031 29.457031 31.515625 C 29.457031 31.105469 29.324219 30.730469 29.09375 30.386719 C 28.851562 30.03125 28.398438 29.660156 27.765625 29.269531 L 26.074219 28.246094 C 25.746094 28.050781 25.492188 27.859375 25.316406 27.695312 C 25.15625 27.535156 25.085938 27.367188 25.085938 27.167969 C 25.085938 26.925781 25.144531 26.742188 25.246094 26.601562 C 25.363281 26.449219 25.515625 26.347656 25.703125 26.253906 C 25.886719 26.167969 26.082031 26.101562 26.3125 26.074219 C 26.535156 26.03125 26.753906 26.023438 26.960938 26.023438 C 27.433594 26.023438 30.621094 26.050781 31.617188 26.070312 L 31.609375 26.117188 L 30.476562 32.082031 C 30.453125 32.21875 30.441406 32.347656 30.429688 32.449219 C 30.414062 32.542969 30.40625 32.660156 30.40625 32.777344 C 30.40625 33.398438 30.636719 33.863281 31.085938 34.136719 C 31.542969 34.386719 32.074219 34.515625 32.722656 34.515625 C 32.894531 34.515625 33.09375 34.511719 33.3125 34.488281 C 33.519531 34.480469 33.71875 34.457031 33.914062 34.421875 C 34.066406 34.398438 34.164062 34.371094 34.238281 34.296875 C 34.304688 34.234375 34.339844 34.167969 34.378906 34.066406 L 34.488281 33.445312 L 34.488281 33.355469 C 34.503906 33.257812 34.457031 33.160156 34.363281 33.125 C 34.304688 33.101562 34.222656 33.09375 34.148438 33.09375 L 33 33.09375 C 32.710938 33.09375 32.5 33.070312 32.375 33.007812 C 32.28125 32.980469 32.222656 32.867188 32.222656 32.628906 C 32.222656 32.511719 32.246094 32.347656 32.28125 32.140625 Z M 6.375 28.511719 L 8.761719 24.21875 C 8.855469 24.042969 9.085938 24.011719 9.226562 24.015625 C 9.511719 24.035156 9.550781 24.21875 9.550781 24.21875 L 10.046875 28.511719 Z M 11.03125 23.035156 C 10.902344 22.851562 10.753906 22.691406 10.578125 22.582031 C 10.40625 22.464844 10.207031 22.390625 10 22.347656 C 9.8125 22.316406 9.617188 22.300781 9.433594 22.300781 C 9.257812 22.300781 9.0625 22.320312 8.839844 22.363281 C 8.632812 22.410156 8.414062 22.480469 8.214844 22.582031 C 8 22.691406 7.8125 22.835938 7.625 23.015625 C 7.441406 23.203125 7.277344 23.433594 7.140625 23.714844 L 1.601562 33.75 C 1.578125 33.820312 1.554688 33.902344 1.554688 33.996094 C 1.542969 34.097656 1.585938 34.226562 1.679688 34.296875 C 1.773438 34.378906 1.878906 34.398438 1.996094 34.398438 L 3.132812 34.398438 C 3.246094 34.398438 3.363281 34.351562 3.464844 34.296875 C 3.558594 34.226562 3.640625 34.144531 3.6875 34.027344 L 5.585938 30.148438 L 10.175781 30.148438 L 10.640625 33.980469 C 10.640625 34.089844 10.683594 34.179688 10.742188 34.25 C 10.808594 34.351562 10.941406 34.398438 11.054688 34.398438 L 12.191406 34.398438 C 12.332031 34.398438 12.46875 34.363281 12.5625 34.261719 C 12.65625 34.167969 12.679688 34.027344 12.679688 33.890625 L 12.679688 33.816406 L 11.265625 23.757812 C 11.226562 23.472656 11.148438 23.230469 11.03125 23.035156 M 22.722656 24.910156 C 22.722656 24.824219 22.691406 24.734375 22.644531 24.664062 C 22.582031 24.585938 22.480469 24.546875 22.363281 24.546875 L 21.4375 24.546875 C 21.320312 24.546875 21.207031 24.585938 21.113281 24.664062 C 20.996094 24.734375 20.929688 24.84375 20.902344 24.957031 L 19.523438 32.242188 C 18.945312 32.511719 18.457031 32.675781 18.078125 32.753906 C 17.683594 32.84375 17.3125 32.882812 16.953125 32.882812 C 16.28125 32.882812 15.828125 32.769531 15.632812 32.558594 C 15.410156 32.347656 15.296875 32.054688 15.296875 31.640625 C 15.296875 31.515625 15.304688 31.363281 15.320312 31.199219 C 15.34375 31.03125 15.367188 30.871094 15.390625 30.707031 L 16.480469 24.984375 L 16.480469 24.910156 C 16.480469 24.6875 16.316406 24.546875 16.085938 24.546875 L 15.191406 24.546875 C 15.066406 24.546875 14.949219 24.585938 14.855469 24.664062 C 14.765625 24.734375 14.695312 24.84375 14.65625 24.957031 L 13.566406 30.679688 C 13.511719 31.007812 13.464844 31.316406 13.464844 31.632812 C 13.464844 32.011719 13.535156 32.371094 13.636719 32.703125 C 13.742188 33.042969 13.914062 33.332031 14.148438 33.589844 C 14.394531 33.84375 14.695312 34.042969 15.066406 34.179688 C 15.421875 34.324219 15.863281 34.398438 16.371094 34.398438 C 17.019531 34.398438 17.574219 34.320312 18.054688 34.144531 C 18.472656 34 18.875 33.832031 19.285156 33.628906 L 19.257812 33.820312 L 19.246094 33.90625 C 19.246094 33.996094 19.28125 34.074219 19.328125 34.15625 C 19.398438 34.238281 19.5 34.28125 19.617188 34.28125 L 20.542969 34.28125 C 20.65625 34.28125 20.773438 34.230469 20.859375 34.144531 C 20.960938 34.066406 21.019531 33.960938 21.054688 33.859375 L 22.722656 24.984375 L 22.722656 24.910156 "/>
</g>
</svg>
