<?xml version="1.0" encoding="UTF-8"?>
<svg xmlns="http://www.w3.org/2000/svg" xmlns:xlink="http://www.w3.org/1999/xlink" width="56pt" height="56pt" viewBox="0 0 56 56" version="1.1">
<g id="surface1">
<rect x="0" y="0" width="56" height="56" style="fill:rgb(95.66803%,95.779419%,96.777344%);fill-opacity:1;stroke:none;"/>
<path style=" stroke:none;fill-rule:nonzero;fill:rgb(12.04834%,39.889526%,23.484802%);fill-opacity:1;" d="M 44.667969 17.277344 C 44.761719 17.40625 44.847656 17.535156 44.941406 17.660156 C 45.15625 17.957031 45.371094 18.25 45.585938 18.542969 C 45.828125 18.875 46.074219 19.203125 46.316406 19.535156 C 46.484375 19.761719 46.648438 19.992188 46.816406 20.21875 C 46.980469 20.445312 47.148438 20.671875 47.3125 20.894531 C 47.480469 21.128906 47.652344 21.359375 47.820312 21.589844 C 48.085938 21.949219 48.351562 22.308594 48.613281 22.671875 C 48.820312 22.953125 49.027344 23.234375 49.230469 23.515625 C 49.382812 23.722656 49.53125 23.925781 49.683594 24.132812 C 49.855469 24.367188 50.03125 24.605469 50.207031 24.84375 C 50.367188 25.066406 50.53125 25.289062 50.695312 25.511719 C 50.863281 25.742188 51.03125 25.972656 51.203125 26.203125 C 51.402344 26.472656 51.597656 26.738281 51.792969 27.007812 C 51.964844 27.238281 52.132812 27.472656 52.300781 27.703125 C 52.464844 27.929688 52.632812 28.152344 52.796875 28.378906 C 53.003906 28.664062 53.214844 28.949219 53.421875 29.230469 C 53.484375 29.320312 53.546875 29.402344 53.609375 29.488281 C 53.632812 29.519531 53.65625 29.546875 53.675781 29.582031 C 53.679688 29.585938 53.679688 29.59375 53.679688 29.597656 C 53.652344 29.613281 53.625 29.609375 53.59375 29.609375 C 52.460938 29.609375 51.328125 29.609375 50.191406 29.609375 C 50.15625 29.609375 50.117188 29.605469 50.082031 29.605469 C 49.867188 29.605469 49.65625 29.570312 49.453125 29.519531 C 49.027344 29.410156 48.644531 29.21875 48.300781 28.949219 C 48.09375 28.789062 47.914062 28.597656 47.757812 28.382812 C 47.492188 28.019531 47.222656 27.65625 46.960938 27.289062 C 46.710938 26.949219 46.464844 26.605469 46.214844 26.265625 C 45.929688 25.875 45.640625 25.484375 45.355469 25.09375 C 45.109375 24.757812 44.863281 24.417969 44.617188 24.078125 C 44.421875 23.808594 44.222656 23.542969 44.027344 23.277344 C 43.847656 23.03125 43.667969 22.785156 43.492188 22.539062 C 43.226562 22.175781 42.957031 21.8125 42.691406 21.445312 C 42.445312 21.105469 42.195312 20.761719 41.949219 20.421875 C 41.6875 20.066406 41.425781 19.714844 41.167969 19.359375 C 40.988281 19.109375 40.808594 18.863281 40.625 18.613281 C 40.4375 18.355469 40.25 18.097656 40.058594 17.839844 C 40.054688 17.832031 40.046875 17.828125 40.039062 17.824219 C 40.011719 17.816406 39.996094 17.84375 39.984375 17.859375 C 39.90625 17.964844 39.835938 18.066406 39.757812 18.167969 C 39.527344 18.488281 39.292969 18.804688 39.0625 19.125 C 38.886719 19.363281 38.714844 19.601562 38.539062 19.839844 C 38.3125 20.148438 38.082031 20.460938 37.855469 20.773438 C 37.671875 21.023438 37.488281 21.273438 37.300781 21.527344 C 37.082031 21.828125 36.863281 22.128906 36.640625 22.429688 C 36.46875 22.667969 36.292969 22.90625 36.117188 23.144531 C 35.890625 23.457031 35.664062 23.769531 35.4375 24.078125 C 35.261719 24.316406 35.089844 24.554688 34.914062 24.792969 C 34.683594 25.109375 34.453125 25.421875 34.222656 25.738281 C 34.050781 25.96875 33.882812 26.203125 33.714844 26.433594 C 33.480469 26.75 33.25 27.070312 33.015625 27.386719 C 32.84375 27.625 32.667969 27.863281 32.492188 28.101562 C 32.289062 28.378906 32.085938 28.65625 31.882812 28.9375 C 31.734375 29.136719 31.589844 29.339844 31.441406 29.542969 C 31.425781 29.5625 31.410156 29.582031 31.398438 29.59375 C 31.390625 29.601562 31.386719 29.601562 31.382812 29.601562 C 31.378906 29.605469 31.375 29.605469 31.371094 29.605469 C 29.71875 29.605469 28.066406 29.609375 26.414062 29.609375 C 26.40625 29.609375 26.398438 29.605469 26.390625 29.605469 C 26.386719 29.601562 26.382812 29.601562 26.375 29.59375 C 26.464844 29.472656 26.550781 29.347656 26.640625 29.226562 C 26.8125 28.992188 26.984375 28.757812 27.15625 28.523438 C 27.421875 28.164062 27.6875 27.800781 27.953125 27.441406 C 28.132812 27.191406 28.3125 26.941406 28.492188 26.695312 C 28.710938 26.398438 28.929688 26.101562 29.152344 25.800781 C 29.316406 25.574219 29.484375 25.34375 29.652344 25.117188 C 29.816406 24.886719 29.984375 24.660156 30.152344 24.429688 C 30.335938 24.183594 30.515625 23.933594 30.699219 23.6875 C 30.921875 23.382812 31.144531 23.078125 31.367188 22.773438 C 31.539062 22.539062 31.710938 22.300781 31.882812 22.066406 C 32.109375 21.753906 32.34375 21.4375 32.574219 21.125 C 32.742188 20.894531 32.910156 20.660156 33.082031 20.429688 C 33.3125 20.113281 33.546875 19.792969 33.777344 19.476562 C 33.949219 19.242188 34.121094 19.007812 34.292969 18.769531 C 34.441406 18.566406 34.585938 18.363281 34.761719 18.183594 C 34.863281 18.082031 34.96875 17.988281 35.085938 17.902344 C 35.378906 17.691406 35.691406 17.527344 36.039062 17.425781 C 36.183594 17.382812 36.328125 17.34375 36.480469 17.324219 C 36.554688 17.316406 36.625 17.308594 36.699219 17.300781 C 36.710938 17.296875 36.71875 17.285156 36.726562 17.277344 C 39.375 17.277344 42.023438 17.277344 44.667969 17.277344 "/>
<path style=" stroke:none;fill-rule:nonzero;fill:rgb(12.04834%,39.889526%,23.484802%);fill-opacity:1;" d="M 33.570312 17.277344 C 33.574219 17.304688 33.554688 17.324219 33.539062 17.34375 C 33.386719 17.566406 33.226562 17.785156 33.070312 18.007812 C 32.917969 18.21875 32.765625 18.433594 32.613281 18.648438 C 32.382812 18.96875 32.15625 19.289062 31.921875 19.605469 C 31.777344 19.804688 31.59375 19.96875 31.394531 20.117188 C 31.15625 20.289062 30.898438 20.421875 30.621094 20.523438 C 30.457031 20.582031 30.285156 20.625 30.113281 20.65625 C 29.910156 20.6875 29.707031 20.703125 29.5 20.703125 C 27.136719 20.703125 24.773438 20.703125 22.410156 20.703125 C 22.359375 20.703125 22.3125 20.695312 22.257812 20.710938 C 22.253906 20.734375 22.25 20.753906 22.25 20.773438 C 22.25 20.808594 22.25 20.84375 22.25 20.882812 C 22.25 23.738281 22.25 26.59375 22.25 29.449219 C 22.25 29.5 22.246094 29.546875 22.246094 29.589844 C 22.238281 29.597656 22.234375 29.601562 22.230469 29.601562 C 22.226562 29.605469 22.222656 29.605469 22.21875 29.605469 C 20.847656 29.605469 19.472656 29.605469 18.09375 29.605469 C 18.089844 29.585938 18.085938 29.570312 18.082031 29.546875 C 18.082031 29.511719 18.082031 29.472656 18.082031 29.4375 C 18.082031 26.582031 18.082031 23.726562 18.082031 20.871094 C 18.082031 20.820312 18.082031 20.773438 18.082031 20.71875 C 18.058594 20.710938 18.042969 20.703125 18.023438 20.703125 C 17.980469 20.703125 17.941406 20.703125 17.898438 20.703125 C 14.613281 20.703125 11.332031 20.703125 8.046875 20.703125 C 8 20.703125 7.949219 20.707031 7.894531 20.695312 C 7.894531 20.652344 7.890625 20.609375 7.890625 20.570312 C 7.890625 20.136719 7.890625 19.699219 7.890625 19.265625 C 7.890625 18.648438 7.890625 18.03125 7.890625 17.414062 C 7.890625 17.367188 7.894531 17.324219 7.894531 17.277344 C 16.453125 17.277344 25.011719 17.277344 33.570312 17.277344 "/>
<path style=" stroke:none;fill-rule:nonzero;fill:rgb(12.04834%,39.889526%,23.484802%);fill-opacity:1;" d="M 6.511719 17.277344 C 6.511719 17.324219 6.507812 17.367188 6.507812 17.414062 C 6.507812 20.425781 6.507812 23.4375 6.507812 26.449219 C 6.507812 26.613281 6.496094 26.777344 6.480469 26.941406 C 6.457031 27.164062 6.402344 27.382812 6.320312 27.59375 C 6.230469 27.820312 6.117188 28.03125 5.96875 28.226562 C 5.78125 28.46875 5.558594 28.671875 5.296875 28.832031 C 5.019531 29.007812 4.71875 29.117188 4.398438 29.183594 C 4.160156 29.238281 3.917969 29.285156 3.675781 29.335938 C 3.425781 29.386719 3.171875 29.433594 2.921875 29.484375 C 2.746094 29.523438 2.570312 29.5625 2.394531 29.601562 C 2.375 29.605469 2.355469 29.601562 2.328125 29.601562 C 2.324219 29.582031 2.320312 29.566406 2.320312 29.550781 C 2.320312 29.515625 2.320312 29.476562 2.320312 29.441406 C 2.320312 26.417969 2.320312 23.394531 2.320312 20.371094 C 2.320312 20.28125 2.3125 20.1875 2.339844 20.101562 C 2.34375 20.089844 2.34375 20.078125 2.34375 20.0625 C 2.351562 19.832031 2.410156 19.609375 2.480469 19.394531 C 2.566406 19.136719 2.691406 18.902344 2.851562 18.691406 C 3.058594 18.414062 3.3125 18.191406 3.617188 18.023438 C 3.875 17.878906 4.144531 17.777344 4.429688 17.71875 C 4.769531 17.652344 5.109375 17.578125 5.449219 17.507812 C 5.75 17.445312 6.050781 17.386719 6.351562 17.328125 C 6.394531 17.316406 6.433594 17.308594 6.472656 17.296875 C 6.476562 17.292969 6.480469 17.285156 6.488281 17.277344 C 6.496094 17.277344 6.503906 17.277344 6.511719 17.277344 "/>
<path style=" stroke:none;fill-rule:nonzero;fill:rgb(74.554443%,12.521362%,14.135742%);fill-opacity:1;" d="M 41.507812 25.03125 C 41.507812 25.039062 41.507812 25.050781 41.503906 25.054688 C 40.394531 26.570312 39.285156 28.089844 38.179688 29.59375 C 38.167969 29.601562 38.164062 29.605469 38.160156 29.605469 C 38.15625 29.605469 38.152344 29.609375 38.148438 29.609375 C 38.113281 29.609375 38.082031 29.609375 38.046875 29.609375 C 36.429688 29.609375 34.808594 29.609375 33.191406 29.609375 C 33.183594 29.609375 33.175781 29.605469 33.167969 29.601562 C 33.164062 29.601562 33.160156 29.597656 33.15625 29.59375 C 33.191406 29.539062 33.230469 29.484375 33.269531 29.433594 C 33.550781 29.046875 33.835938 28.65625 34.117188 28.269531 C 34.339844 27.96875 34.5625 27.671875 34.78125 27.367188 C 34.988281 27.089844 35.191406 26.804688 35.398438 26.523438 C 35.496094 26.386719 35.59375 26.25 35.699219 26.121094 C 35.824219 25.960938 35.96875 25.820312 36.125 25.695312 C 36.328125 25.527344 36.554688 25.394531 36.796875 25.285156 C 37.007812 25.1875 37.230469 25.117188 37.460938 25.070312 C 37.65625 25.027344 37.859375 25.015625 38.058594 25.015625 C 39.175781 25.015625 40.292969 25.015625 41.414062 25.015625 C 41.445312 25.015625 41.480469 25.007812 41.507812 25.03125 "/>
<path style=" stroke:none;fill-rule:nonzero;fill:rgb(12.04834%,39.889526%,23.484802%);fill-opacity:1;" d="M 26.535156 36.214844 C 26.640625 36.003906 26.722656 35.792969 26.8125 35.582031 C 26.898438 35.371094 26.984375 35.164062 27.070312 34.957031 C 27.15625 34.746094 27.246094 34.53125 27.332031 34.320312 C 27.421875 34.109375 27.507812 33.898438 27.597656 33.6875 C 27.683594 33.476562 27.765625 33.269531 27.851562 33.0625 C 27.941406 32.851562 28.027344 32.640625 28.121094 32.40625 C 28.300781 32.847656 28.464844 33.269531 28.632812 33.691406 C 28.796875 34.109375 28.964844 34.527344 29.128906 34.945312 C 29.296875 35.367188 29.464844 35.789062 29.632812 36.207031 C 29.667969 36.214844 29.671875 36.195312 29.679688 36.175781 C 29.753906 35.996094 29.824219 35.820312 29.894531 35.640625 C 30.035156 35.289062 30.175781 34.941406 30.316406 34.589844 C 30.488281 34.152344 30.664062 33.714844 30.839844 33.277344 C 30.921875 33.066406 31.007812 32.851562 31.09375 32.640625 C 31.101562 32.625 31.109375 32.609375 31.113281 32.601562 C 31.121094 32.597656 31.125 32.59375 31.128906 32.59375 C 31.132812 32.589844 31.136719 32.589844 31.140625 32.589844 C 31.492188 32.589844 31.839844 32.589844 32.191406 32.589844 C 32.199219 32.589844 32.207031 32.589844 32.214844 32.59375 C 32.21875 32.59375 32.21875 32.597656 32.226562 32.601562 C 32.21875 32.617188 32.21875 32.636719 32.210938 32.65625 C 31.382812 34.667969 30.554688 36.675781 29.726562 38.6875 C 29.722656 38.699219 29.71875 38.707031 29.710938 38.71875 C 29.171875 37.414062 28.640625 36.109375 28.105469 34.808594 C 28.105469 34.804688 28.101562 34.800781 28.097656 34.800781 C 28.09375 34.800781 28.089844 34.796875 28.082031 34.796875 C 27.898438 35.226562 27.710938 35.660156 27.527344 36.09375 C 27.34375 36.53125 27.164062 36.96875 26.976562 37.40625 C 26.789062 37.839844 26.609375 38.273438 26.425781 38.703125 C 26.414062 38.699219 26.40625 38.699219 26.40625 38.699219 C 26.398438 38.6875 26.390625 38.675781 26.386719 38.664062 C 25.570312 36.648438 24.75 34.628906 23.933594 32.609375 C 23.929688 32.609375 23.933594 32.605469 23.9375 32.597656 C 23.945312 32.59375 23.957031 32.589844 23.96875 32.589844 C 24.148438 32.582031 24.980469 32.585938 25.070312 32.597656 C 25.3125 33.199219 25.554688 33.800781 25.796875 34.40625 C 26.035156 35.007812 26.277344 35.613281 26.535156 36.214844 "/>
<path style=" stroke:none;fill-rule:nonzero;fill:rgb(12.04834%,39.889526%,23.484802%);fill-opacity:1;" d="M 19.140625 35.324219 C 19.183594 35.328125 19.210938 35.332031 19.238281 35.332031 C 19.402344 35.332031 19.566406 35.332031 19.730469 35.332031 C 19.828125 35.328125 19.925781 35.328125 20.027344 35.308594 C 20.136719 35.292969 20.242188 35.269531 20.34375 35.226562 C 20.574219 35.136719 20.738281 34.972656 20.8125 34.738281 C 20.875 34.550781 20.882812 34.359375 20.839844 34.167969 C 20.78125 33.910156 20.632812 33.71875 20.394531 33.59375 C 20.207031 33.496094 20.007812 33.464844 19.800781 33.457031 C 19.605469 33.449219 19.40625 33.457031 19.210938 33.457031 C 19.191406 33.457031 19.167969 33.453125 19.148438 33.46875 C 19.148438 33.476562 19.140625 33.488281 19.140625 33.5 C 19.140625 34.105469 19.140625 34.707031 19.140625 35.324219 Z M 20.832031 36.035156 C 20.925781 36.1875 21.039062 36.320312 21.136719 36.460938 C 21.234375 36.597656 21.335938 36.730469 21.433594 36.867188 C 21.535156 37.003906 21.640625 37.144531 21.742188 37.28125 C 21.839844 37.417969 21.9375 37.554688 22.035156 37.691406 C 22.140625 37.828125 22.242188 37.964844 22.34375 38.105469 C 22.441406 38.242188 22.546875 38.371094 22.636719 38.519531 C 22.621094 38.523438 22.609375 38.527344 22.597656 38.527344 C 22.203125 38.527344 21.808594 38.527344 21.414062 38.527344 C 21.292969 38.375 21.183594 38.21875 21.066406 38.0625 C 20.953125 37.910156 20.835938 37.753906 20.722656 37.597656 C 20.609375 37.445312 20.5 37.292969 20.386719 37.144531 C 20.273438 36.988281 20.15625 36.835938 20.042969 36.675781 C 19.929688 36.523438 19.820312 36.363281 19.703125 36.21875 C 19.585938 36.207031 19.253906 36.207031 19.148438 36.21875 C 19.148438 36.234375 19.140625 36.257812 19.140625 36.277344 C 19.140625 36.429688 19.140625 36.585938 19.140625 36.742188 C 19.140625 37.292969 19.140625 37.84375 19.140625 38.394531 C 19.140625 38.433594 19.136719 38.476562 19.136719 38.511719 C 19.128906 38.519531 19.125 38.523438 19.121094 38.523438 C 19.117188 38.527344 19.113281 38.527344 19.109375 38.527344 C 19.078125 38.527344 19.042969 38.527344 19.011719 38.527344 C 18.707031 38.527344 18.402344 38.527344 18.105469 38.527344 C 18.082031 38.507812 18.082031 38.488281 18.082031 38.46875 C 18.082031 38.433594 18.082031 38.402344 18.082031 38.367188 C 18.082031 36.496094 18.082031 34.621094 18.082031 32.75 C 18.082031 32.703125 18.085938 32.652344 18.085938 32.597656 C 18.105469 32.59375 18.121094 32.589844 18.132812 32.589844 C 18.761719 32.589844 19.390625 32.589844 20.019531 32.59375 C 20.226562 32.59375 20.425781 32.636719 20.625 32.6875 C 20.859375 32.75 21.082031 32.847656 21.28125 32.984375 C 21.597656 33.207031 21.824219 33.496094 21.933594 33.867188 C 21.972656 33.996094 22.003906 34.128906 22.003906 34.265625 C 22.003906 34.351562 22.003906 34.4375 22.003906 34.523438 C 22.003906 34.710938 21.957031 34.890625 21.886719 35.058594 C 21.746094 35.40625 21.507812 35.667969 21.1875 35.859375 C 21.09375 35.914062 21 35.960938 20.898438 35.996094 C 20.878906 36.003906 20.859375 36.019531 20.832031 36.035156 "/>
<path style=" stroke:none;fill-rule:nonzero;fill:rgb(12.04834%,39.889526%,23.484802%);fill-opacity:1;" d="M 8.617188 34.53125 C 8.59375 34.578125 8.574219 34.601562 8.5625 34.632812 C 8.464844 34.835938 8.371094 35.039062 8.277344 35.242188 C 8.125 35.566406 7.972656 35.886719 7.824219 36.210938 C 7.804688 36.242188 7.792969 36.277344 7.78125 36.3125 C 7.773438 36.328125 7.761719 36.34375 7.78125 36.355469 C 7.898438 36.371094 8.800781 36.378906 9.425781 36.367188 C 9.445312 36.363281 9.464844 36.363281 9.488281 36.359375 C 9.480469 36.304688 9.457031 36.261719 9.4375 36.21875 C 9.234375 35.808594 9.035156 35.394531 8.835938 34.980469 C 8.765625 34.839844 8.699219 34.695312 8.617188 34.53125 Z M 10.480469 38.519531 C 10.421875 38.417969 10.382812 38.304688 10.332031 38.199219 C 10.28125 38.089844 10.238281 37.980469 10.191406 37.871094 C 10.144531 37.765625 10.09375 37.660156 10.046875 37.558594 C 10 37.449219 9.953125 37.339844 9.90625 37.230469 C 9.859375 37.210938 9.8125 37.21875 9.769531 37.21875 C 9.011719 37.21875 8.25 37.21875 7.488281 37.21875 C 7.449219 37.21875 7.40625 37.21875 7.363281 37.21875 C 7.34375 37.25 7.328125 37.277344 7.3125 37.304688 C 7.25 37.445312 7.1875 37.582031 7.125 37.71875 C 7.03125 37.921875 6.9375 38.121094 6.839844 38.320312 C 6.808594 38.386719 6.78125 38.453125 6.75 38.519531 C 6.644531 38.53125 5.742188 38.53125 5.613281 38.519531 C 5.601562 38.503906 5.613281 38.488281 5.621094 38.476562 C 5.730469 38.246094 5.84375 38.019531 5.957031 37.792969 C 6.125 37.449219 6.292969 37.105469 6.457031 36.765625 C 6.617188 36.445312 6.773438 36.121094 6.929688 35.800781 C 7.101562 35.449219 7.273438 35.09375 7.445312 34.742188 C 7.609375 34.410156 7.769531 34.078125 7.929688 33.746094 C 8.097656 33.402344 8.265625 33.058594 8.433594 32.71875 C 8.480469 32.617188 8.527344 32.519531 8.574219 32.417969 C 8.585938 32.402344 8.585938 32.378906 8.617188 32.371094 C 8.628906 32.390625 8.644531 32.410156 8.652344 32.429688 C 8.910156 32.945312 9.164062 33.460938 9.417969 33.972656 C 9.679688 34.503906 9.941406 35.035156 10.203125 35.5625 C 10.484375 36.132812 10.765625 36.703125 11.046875 37.273438 C 11.230469 37.652344 11.417969 38.03125 11.601562 38.410156 C 11.617188 38.445312 11.644531 38.472656 11.640625 38.515625 C 11.628906 38.519531 11.617188 38.527344 11.605469 38.527344 C 11.429688 38.535156 10.566406 38.53125 10.480469 38.519531 "/>
<path style=" stroke:none;fill-rule:nonzero;fill:rgb(12.04834%,39.889526%,23.484802%);fill-opacity:1;" d="M 36.546875 36.355469 C 36.539062 36.335938 36.535156 36.320312 36.527344 36.304688 C 36.445312 36.128906 36.359375 35.957031 36.277344 35.78125 C 36.171875 35.570312 36.070312 35.355469 35.964844 35.140625 C 35.878906 34.957031 35.785156 34.773438 35.695312 34.589844 C 35.6875 34.574219 35.671875 34.558594 35.65625 34.539062 C 35.371094 35.148438 35.089844 35.75 34.808594 36.351562 C 34.828125 36.359375 34.839844 36.363281 34.847656 36.363281 C 34.984375 36.371094 36.457031 36.367188 36.546875 36.355469 Z M 36.953125 37.226562 C 36.839844 37.21875 34.601562 37.214844 34.417969 37.222656 C 34.40625 37.238281 34.390625 37.257812 34.382812 37.28125 C 34.289062 37.476562 34.199219 37.671875 34.105469 37.871094 C 34.007812 38.085938 33.902344 38.300781 33.800781 38.519531 C 33.78125 38.523438 33.761719 38.527344 33.738281 38.527344 C 33.394531 38.527344 33.050781 38.527344 32.703125 38.527344 C 32.691406 38.527344 32.679688 38.523438 32.667969 38.523438 C 32.652344 38.488281 32.679688 38.464844 32.691406 38.441406 C 32.878906 38.054688 33.070312 37.667969 33.257812 37.28125 C 33.425781 36.933594 33.597656 36.589844 33.765625 36.242188 C 33.925781 35.914062 34.085938 35.585938 34.242188 35.257812 C 34.414062 34.910156 34.585938 34.566406 34.753906 34.21875 C 34.902344 33.910156 35.054688 33.597656 35.207031 33.289062 C 35.34375 33.007812 35.480469 32.722656 35.621094 32.4375 C 35.632812 32.414062 35.644531 32.394531 35.652344 32.375 C 35.683594 32.371094 35.691406 32.394531 35.699219 32.410156 C 35.777344 32.578125 35.855469 32.742188 35.9375 32.910156 C 36.039062 33.117188 36.140625 33.320312 36.242188 33.527344 C 36.453125 33.957031 36.660156 34.382812 36.871094 34.808594 C 37.019531 35.113281 37.164062 35.414062 37.3125 35.71875 C 37.484375 36.070312 37.65625 36.421875 37.832031 36.777344 C 37.988281 37.105469 38.148438 37.433594 38.308594 37.761719 C 38.421875 37.992188 38.53125 38.21875 38.644531 38.449219 C 38.65625 38.46875 38.664062 38.492188 38.671875 38.515625 C 38.660156 38.519531 38.652344 38.527344 38.644531 38.527344 C 38.289062 38.527344 37.929688 38.527344 37.574219 38.527344 C 37.558594 38.527344 37.546875 38.523438 37.53125 38.515625 C 37.332031 38.09375 37.152344 37.65625 36.953125 37.226562 "/>
<path style=" stroke:none;fill-rule:nonzero;fill:rgb(12.04834%,39.889526%,23.484802%);fill-opacity:1;" d="M 50.089844 34.160156 C 49.957031 34.058594 49.832031 33.957031 49.703125 33.859375 C 49.488281 33.699219 49.253906 33.574219 49 33.488281 C 48.769531 33.410156 48.53125 33.382812 48.285156 33.40625 C 48.125 33.421875 47.972656 33.46875 47.839844 33.566406 C 47.769531 33.617188 47.710938 33.683594 47.675781 33.761719 C 47.570312 33.988281 47.558594 34.214844 47.699219 34.429688 C 47.769531 34.542969 47.871094 34.628906 47.984375 34.691406 C 48.074219 34.738281 48.160156 34.785156 48.25 34.824219 C 48.589844 34.972656 48.929688 35.113281 49.265625 35.265625 C 49.472656 35.355469 49.660156 35.476562 49.839844 35.621094 C 50.027344 35.773438 50.171875 35.957031 50.273438 36.175781 C 50.339844 36.316406 50.378906 36.460938 50.394531 36.613281 C 50.402344 36.6875 50.414062 36.757812 50.410156 36.832031 C 50.402344 37.171875 50.3125 37.488281 50.117188 37.769531 C 49.980469 37.964844 49.8125 38.121094 49.613281 38.25 C 49.359375 38.417969 49.078125 38.515625 48.785156 38.574219 C 48.679688 38.59375 48.574219 38.609375 48.46875 38.609375 C 48.367188 38.605469 48.269531 38.609375 48.171875 38.609375 C 47.960938 38.609375 47.757812 38.570312 47.550781 38.519531 C 47.292969 38.457031 47.046875 38.351562 46.816406 38.222656 C 46.707031 38.160156 46.605469 38.089844 46.515625 38.015625 C 46.511719 38.007812 46.507812 38.003906 46.507812 38 C 46.503906 37.996094 46.503906 37.992188 46.503906 37.988281 C 46.503906 37.640625 46.503906 37.289062 46.503906 36.941406 C 46.503906 36.933594 46.507812 36.925781 46.507812 36.917969 C 46.527344 36.90625 46.539062 36.917969 46.550781 36.925781 C 46.722656 37.074219 46.90625 37.207031 47.097656 37.324219 C 47.308594 37.457031 47.53125 37.554688 47.773438 37.613281 C 47.917969 37.652344 48.070312 37.675781 48.222656 37.675781 C 48.300781 37.671875 48.378906 37.675781 48.457031 37.675781 C 48.601562 37.671875 48.738281 37.644531 48.878906 37.597656 C 49.007812 37.550781 49.121094 37.484375 49.214844 37.378906 C 49.289062 37.292969 49.339844 37.199219 49.359375 37.085938 C 49.367188 37.042969 49.378906 36.996094 49.378906 36.953125 C 49.386719 36.714844 49.296875 36.523438 49.101562 36.382812 C 49.027344 36.328125 48.953125 36.28125 48.871094 36.242188 C 48.703125 36.164062 48.535156 36.089844 48.367188 36.011719 C 48.105469 35.890625 47.84375 35.769531 47.585938 35.648438 C 47.410156 35.566406 47.246094 35.464844 47.097656 35.339844 C 46.84375 35.132812 46.671875 34.863281 46.601562 34.539062 C 46.5625 34.359375 46.558594 34.171875 46.578125 33.988281 C 46.601562 33.765625 46.65625 33.546875 46.769531 33.347656 C 46.863281 33.183594 46.976562 33.046875 47.125 32.925781 C 47.34375 32.746094 47.597656 32.636719 47.871094 32.566406 C 48.152344 32.492188 48.4375 32.476562 48.722656 32.5 C 49.007812 32.519531 49.28125 32.589844 49.539062 32.710938 C 49.6875 32.777344 49.824219 32.855469 49.953125 32.953125 C 50 32.984375 50.042969 33.023438 50.082031 33.050781 C 50.089844 33.066406 50.089844 33.070312 50.089844 33.074219 C 50.09375 33.078125 50.09375 33.082031 50.09375 33.085938 C 50.09375 33.433594 50.09375 33.78125 50.09375 34.132812 C 50.09375 34.140625 50.09375 34.148438 50.089844 34.160156 "/>
<path style=" stroke:none;fill-rule:nonzero;fill:rgb(12.04834%,39.889526%,23.484802%);fill-opacity:1;" d="M 39.445312 32.601562 C 39.460938 32.59375 39.46875 32.589844 39.472656 32.589844 C 39.859375 32.589844 40.246094 32.589844 40.636719 32.589844 C 40.65625 32.613281 40.675781 32.632812 40.691406 32.65625 C 40.890625 32.941406 41.085938 33.230469 41.28125 33.515625 C 41.542969 33.894531 41.804688 34.273438 42.066406 34.652344 C 42.101562 34.710938 42.144531 34.765625 42.1875 34.824219 C 42.222656 34.824219 42.234375 34.792969 42.246094 34.769531 C 42.398438 34.542969 42.546875 34.320312 42.695312 34.09375 C 43.019531 33.609375 43.339844 33.121094 43.660156 32.636719 C 43.667969 32.621094 43.679688 32.609375 43.6875 32.601562 C 43.695312 32.597656 43.699219 32.59375 43.703125 32.59375 C 43.707031 32.589844 43.710938 32.589844 43.714844 32.589844 C 44.085938 32.589844 44.453125 32.589844 44.824219 32.589844 C 44.84375 32.589844 44.863281 32.589844 44.886719 32.589844 C 44.890625 32.589844 44.894531 32.589844 44.898438 32.59375 C 44.902344 32.59375 44.90625 32.597656 44.90625 32.601562 C 44.90625 32.605469 44.910156 32.617188 44.910156 32.621094 C 44.179688 33.695312 43.449219 34.765625 42.714844 35.839844 C 42.714844 36.285156 42.714844 36.730469 42.714844 37.179688 C 42.714844 37.621094 42.714844 38.066406 42.714844 38.511719 C 42.691406 38.519531 42.675781 38.527344 42.660156 38.527344 C 42.328125 38.527344 41.996094 38.527344 41.664062 38.527344 C 41.65625 38.527344 41.648438 38.523438 41.632812 38.519531 C 41.628906 38.503906 41.621094 38.484375 41.617188 38.464844 C 41.617188 38.433594 41.617188 38.402344 41.617188 38.367188 C 41.617188 37.570312 41.617188 36.773438 41.617188 35.976562 C 41.617188 35.929688 41.617188 35.886719 41.617188 35.839844 C 41.375 35.476562 41.136719 35.113281 40.894531 34.753906 C 40.652344 34.398438 40.410156 34.039062 40.167969 33.683594 C 39.925781 33.324219 39.679688 32.96875 39.445312 32.601562 "/>
<path style=" stroke:none;fill-rule:nonzero;fill:rgb(12.04834%,39.889526%,23.484802%);fill-opacity:1;" d="M 15.039062 38.515625 C 14.941406 38.53125 14.136719 38.535156 13.953125 38.523438 C 13.933594 38.511719 13.933594 38.488281 13.933594 38.46875 C 13.933594 38.433594 13.933594 38.402344 13.933594 38.367188 C 13.933594 36.496094 13.933594 34.621094 13.933594 32.75 C 13.933594 32.703125 13.9375 32.652344 13.9375 32.613281 C 13.957031 32.585938 13.980469 32.589844 14 32.589844 C 14.328125 32.589844 14.65625 32.589844 14.984375 32.589844 C 15 32.589844 15.015625 32.59375 15.03125 32.59375 C 15.035156 32.605469 15.042969 32.609375 15.042969 32.617188 C 15.042969 34.574219 15.046875 36.527344 15.046875 38.484375 C 15.046875 38.496094 15.039062 38.507812 15.039062 38.515625 "/>
</g>
</svg>
