<?xml version="1.0" encoding="UTF-8"?>
<svg xmlns="http://www.w3.org/2000/svg" xmlns:xlink="http://www.w3.org/1999/xlink" width="56pt" height="56pt" viewBox="0 0 56 56" version="1.1">
<g id="surface1">
<rect x="0" y="0" width="56" height="56" style="fill:rgb(28.637695%,33.325195%,62.304688%);fill-opacity:1;stroke:none;"/>
<path style=" stroke:none;fill-rule:evenodd;fill:rgb(100%,100%,100%);fill-opacity:1;" d="M 40.320312 14.480469 C 40.328125 14.46875 40.335938 14.453125 40.34375 14.441406 L 41.527344 10.722656 C 41.609375 10.464844 41.320312 10.242188 41.09375 10.394531 L 38.332031 12.203125 C 38.121094 12.339844 37.851562 12.167969 37.886719 11.921875 L 38.355469 8.617188 C 38.394531 8.34375 38.066406 8.175781 37.867188 8.367188 L 35.460938 10.6875 C 35.28125 10.859375 34.984375 10.742188 34.96875 10.496094 L 34.757812 7.058594 C 34.742188 6.789062 34.390625 6.6875 34.230469 6.90625 L 32.25 9.644531 C 32.101562 9.84375 31.785156 9.78125 31.730469 9.535156 L 30.992188 6.226562 C 30.933594 5.960938 30.574219 5.917969 30.453125 6.160156 L 28.71875 9.644531 C 28.714844 9.667969 28.710938 9.6875 28.703125 9.707031 C 28.699219 9.726562 28.695312 9.746094 28.691406 9.765625 L 28.285156 21.960938 C 28.28125 22.070312 28.367188 22.160156 28.480469 22.171875 C 29.683594 22.269531 30.863281 22.734375 31.835938 23.570312 C 31.921875 23.644531 32.050781 23.636719 32.125 23.554688 L 40.28125 14.546875 C 40.292969 14.523438 40.308594 14.503906 40.320312 14.480469 Z M 27.179688 9.804688 L 27.175781 9.792969 C 27.164062 9.757812 27.15625 9.722656 27.148438 9.6875 L 25.351562 6.222656 C 25.226562 5.980469 24.867188 6.03125 24.8125 6.296875 L 24.144531 9.527344 C 24.09375 9.769531 23.777344 9.839844 23.628906 9.640625 L 21.617188 6.972656 C 21.453125 6.753906 21.101562 6.867188 21.097656 7.140625 L 21.035156 10.484375 C 21.03125 10.730469 20.738281 10.859375 20.554688 10.695312 L 17.96875 8.414062 C 17.765625 8.234375 17.449219 8.40625 17.492188 8.675781 L 18.027344 12.011719 C 18.066406 12.257812 17.796875 12.433594 17.585938 12.300781 L 14.71875 10.480469 C 14.488281 10.335938 14.203125 10.558594 14.289062 10.816406 L 15.53125 14.503906 C 15.546875 14.53125 15.5625 14.554688 15.578125 14.578125 L 15.59375 14.609375 L 23.945312 23.519531 C 24.019531 23.597656 24.148438 23.601562 24.230469 23.53125 C 25.152344 22.75 26.316406 22.246094 27.59375 22.152344 C 27.707031 22.140625 27.792969 22.046875 27.789062 21.933594 Z M 14.558594 15.707031 C 14.53125 15.691406 14.511719 15.675781 14.488281 15.664062 L 14.453125 15.644531 L 10.730469 14.460938 C 10.46875 14.378906 10.25 14.667969 10.398438 14.898438 L 12.214844 17.652344 C 12.347656 17.863281 12.175781 18.132812 11.929688 18.097656 L 8.621094 17.628906 C 8.347656 17.589844 8.179688 17.917969 8.371094 18.117188 L 10.695312 20.523438 C 10.867188 20.699219 10.75 20.996094 10.503906 21.011719 L 7.0625 21.222656 C 6.789062 21.242188 6.6875 21.589844 6.910156 21.746094 L 9.648438 23.726562 C 9.851562 23.871094 9.785156 24.191406 9.542969 24.242188 L 6.226562 24.980469 C 5.960938 25.039062 5.917969 25.402344 6.160156 25.523438 L 9.652344 27.253906 L 9.769531 27.28125 L 21.980469 27.683594 C 22.09375 27.6875 22.183594 27.601562 22.191406 27.492188 C 22.289062 26.289062 22.757812 25.109375 23.59375 24.140625 C 23.667969 24.054688 23.660156 23.925781 23.578125 23.851562 Z M 9.691406 28.820312 L 9.8125 28.789062 L 21.957031 28.179688 C 22.070312 28.175781 22.164062 28.261719 22.171875 28.375 C 22.269531 29.652344 22.773438 30.8125 23.554688 31.734375 C 23.628906 31.820312 23.621094 31.945312 23.539062 32.019531 L 14.621094 40.355469 L 14.59375 40.375 C 14.566406 40.390625 14.542969 40.40625 14.515625 40.421875 L 10.824219 41.660156 C 10.566406 41.75 10.339844 41.464844 10.488281 41.230469 L 12.308594 38.371094 C 12.441406 38.160156 12.265625 37.890625 12.019531 37.929688 L 8.679688 38.464844 C 8.414062 38.507812 8.238281 38.191406 8.417969 37.988281 L 10.699219 35.40625 C 10.863281 35.21875 10.734375 34.929688 10.488281 34.921875 L 7.144531 34.863281 C 6.867188 34.859375 6.753906 34.507812 6.972656 34.34375 L 9.644531 32.339844 C 9.84375 32.1875 9.777344 31.875 9.53125 31.824219 L 6.296875 31.15625 C 6.03125 31.097656 5.980469 30.738281 6.222656 30.613281 Z M 15.675781 41.46875 L 15.65625 41.5 L 14.476562 45.21875 C 14.390625 45.476562 14.683594 45.699219 14.910156 45.546875 L 17.671875 43.738281 C 17.878906 43.601562 18.152344 43.773438 18.117188 44.019531 L 17.644531 47.324219 C 17.605469 47.597656 17.933594 47.761719 18.132812 47.574219 L 20.542969 45.253906 C 20.71875 45.082031 21.019531 45.199219 21.03125 45.445312 L 21.246094 48.882812 C 21.261719 49.152344 21.609375 49.253906 21.769531 49.035156 L 23.753906 46.296875 C 23.898438 46.09375 24.214844 46.160156 24.269531 46.40625 L 25.007812 49.714844 C 25.066406 49.980469 25.429688 50.023438 25.550781 49.78125 L 27.28125 46.292969 C 27.289062 46.273438 27.292969 46.257812 27.296875 46.234375 C 27.300781 46.214844 27.308594 46.195312 27.3125 46.175781 L 27.714844 33.980469 C 27.71875 33.871094 27.632812 33.78125 27.523438 33.769531 C 26.316406 33.671875 25.136719 33.207031 24.164062 32.371094 C 24.082031 32.296875 23.953125 32.304688 23.875 32.386719 L 15.71875 41.394531 C 15.707031 41.417969 15.691406 41.445312 15.675781 41.46875 Z M 28.824219 46.144531 L 28.820312 46.136719 L 28.210938 34.007812 C 28.203125 33.894531 28.289062 33.796875 28.402344 33.789062 C 29.679688 33.695312 30.84375 33.191406 31.765625 32.410156 C 31.851562 32.335938 31.976562 32.34375 32.054688 32.421875 L 40.402344 41.332031 L 40.421875 41.363281 C 40.429688 41.375 40.4375 41.390625 40.445312 41.40625 C 40.449219 41.410156 40.453125 41.414062 40.457031 41.417969 C 40.457031 41.421875 40.460938 41.429688 40.464844 41.433594 L 41.707031 45.121094 C 41.792969 45.382812 41.507812 45.605469 41.277344 45.460938 L 38.410156 43.640625 C 38.203125 43.507812 37.929688 43.683594 37.96875 43.929688 L 38.507812 47.265625 C 38.550781 47.53125 38.230469 47.707031 38.027344 47.527344 L 35.445312 45.246094 C 35.257812 45.082031 34.964844 45.210938 34.960938 45.457031 L 34.902344 48.800781 C 34.894531 49.074219 34.542969 49.1875 34.378906 48.96875 L 32.371094 46.300781 C 32.222656 46.101562 31.90625 46.167969 31.855469 46.414062 L 31.1875 49.644531 C 31.132812 49.910156 30.773438 49.960938 30.648438 49.71875 L 28.851562 46.253906 C 28.84375 46.21875 28.835938 46.183594 28.824219 46.144531 Z M 41.441406 40.234375 C 41.46875 40.25 41.488281 40.261719 41.511719 40.277344 L 41.546875 40.296875 L 45.269531 41.476562 C 45.53125 41.558594 45.75 41.273438 45.601562 41.042969 L 43.785156 38.285156 C 43.652344 38.078125 43.824219 37.804688 44.070312 37.84375 L 47.378906 38.3125 C 47.652344 38.351562 47.820312 38.023438 47.628906 37.824219 L 45.304688 35.417969 C 45.132812 35.242188 45.25 34.945312 45.496094 34.929688 L 48.941406 34.71875 C 49.210938 34.699219 49.3125 34.351562 49.09375 34.195312 L 46.351562 32.214844 C 46.148438 32.066406 46.214844 31.75 46.457031 31.699219 L 49.773438 30.960938 C 50.039062 30.902344 50.085938 30.539062 49.839844 30.417969 L 46.347656 28.6875 L 46.230469 28.65625 L 34.019531 28.253906 C 33.90625 28.253906 33.816406 28.335938 33.804688 28.449219 C 33.710938 29.652344 33.242188 30.832031 32.40625 31.800781 C 32.332031 31.886719 32.339844 32.015625 32.421875 32.089844 Z M 46.308594 27.121094 L 46.1875 27.152344 L 34.042969 27.761719 C 33.929688 27.765625 33.835938 27.679688 33.828125 27.566406 C 33.730469 26.289062 33.226562 25.128906 32.445312 24.207031 C 32.371094 24.125 32.378906 23.996094 32.460938 23.921875 L 41.378906 15.585938 L 41.40625 15.566406 C 41.433594 15.550781 41.457031 15.535156 41.480469 15.519531 L 45.175781 14.28125 C 45.433594 14.191406 45.65625 14.480469 45.511719 14.710938 L 43.691406 17.570312 C 43.554688 17.78125 43.734375 18.050781 43.980469 18.011719 L 47.320312 17.476562 C 47.585938 17.433594 47.761719 17.75 47.582031 17.953125 L 45.296875 20.535156 C 45.136719 20.722656 45.265625 21.011719 45.511719 21.015625 L 48.855469 21.078125 C 49.132812 21.082031 49.246094 21.433594 49.027344 21.597656 L 46.351562 23.601562 C 46.152344 23.753906 46.222656 24.066406 46.46875 24.117188 L 49.703125 24.785156 C 49.96875 24.84375 50.019531 25.203125 49.777344 25.328125 Z M 33.140625 27.96875 C 33.140625 30.808594 30.839844 33.109375 28 33.109375 C 25.164062 33.109375 22.859375 30.808594 22.859375 27.96875 C 22.859375 25.132812 25.164062 22.832031 28 22.832031 C 30.839844 22.832031 33.140625 25.132812 33.140625 27.96875 "/>
</g>
</svg>
