<?xml version="1.0" encoding="UTF-8"?>
<svg xmlns="http://www.w3.org/2000/svg" xmlns:xlink="http://www.w3.org/1999/xlink" width="56pt" height="56pt" viewBox="0 0 56 56" version="1.1">
<g id="surface1">
<rect x="0" y="0" width="56" height="56" style="fill:rgb(95.66803%,95.779419%,96.777344%);fill-opacity:1;stroke:none;"/>
<path style=" stroke:none;fill-rule:nonzero;fill:rgb(97.570801%,81.152344%,2.987671%);fill-opacity:1;" d="M 16.492188 22.4375 C 17.988281 22.4375 19.09375 22.25 19.804688 21.878906 C 20.515625 21.507812 21.058594 20.984375 21.441406 20.308594 C 21.820312 19.632812 22.007812 18.773438 22.007812 17.726562 C 22.007812 16.679688 21.820312 15.820312 21.449219 15.152344 C 21.074219 14.484375 20.539062 13.972656 19.84375 13.625 C 19.148438 13.277344 18.03125 13.109375 16.492188 13.121094 Z M 16.492188 23.796875 L 16.492188 31.386719 L 16.476562 32.257812 C 16.476562 32.886719 16.621094 33.359375 16.914062 33.679688 C 17.203125 34 17.632812 34.160156 18.199219 34.160156 C 19.042969 34.160156 19.820312 33.953125 20.53125 33.539062 C 21.242188 33.128906 21.789062 32.53125 22.167969 31.742188 C 22.546875 30.960938 22.734375 30.085938 22.734375 29.117188 C 22.734375 28.011719 22.503906 27.023438 22.039062 26.144531 C 21.578125 25.265625 20.941406 24.652344 20.128906 24.304688 C 19.316406 23.953125 18.105469 23.785156 16.492188 23.796875 Z M 22.246094 22.90625 C 24.277344 23.429688 25.707031 24.066406 26.527344 24.808594 C 27.707031 25.867188 28.296875 27.238281 28.296875 28.925781 C 28.296875 30.707031 27.648438 32.175781 26.355469 33.339844 C 24.761719 34.746094 22.453125 35.453125 19.417969 35.453125 L 8.53125 35.453125 L 8.53125 34.804688 C 9.519531 34.804688 10.191406 34.703125 10.542969 34.5 C 10.898438 34.296875 11.144531 34.03125 11.289062 33.707031 C 11.429688 33.382812 11.5 32.578125 11.5 31.296875 L 11.5 15.945312 C 11.5 14.667969 11.429688 13.859375 11.289062 13.53125 C 11.144531 13.199219 10.894531 12.933594 10.535156 12.734375 C 10.179688 12.539062 9.511719 12.441406 8.53125 12.441406 L 8.53125 11.792969 L 18.800781 11.792969 C 21.253906 11.792969 22.992188 12.035156 24.015625 12.519531 C 25.035156 13 25.84375 13.722656 26.433594 14.679688 C 27.023438 15.640625 27.316406 16.660156 27.316406 17.742188 C 27.316406 18.882812 26.945312 19.898438 26.195312 20.789062 C 25.449219 21.675781 24.132812 22.382812 22.246094 22.90625 "/>
<path style=" stroke:none;fill-rule:nonzero;fill:rgb(6.266785%,5.734253%,5.047607%);fill-opacity:1;" d="M 16.703125 13.332031 L 16.703125 22.222656 C 18.050781 22.207031 19.0625 22.027344 19.707031 21.691406 C 20.378906 21.339844 20.898438 20.839844 21.257812 20.203125 C 21.617188 19.566406 21.796875 18.730469 21.796875 17.726562 C 21.796875 16.722656 21.617188 15.890625 21.265625 15.253906 C 20.910156 14.628906 20.402344 14.140625 19.75 13.816406 C 19.121094 13.496094 18.097656 13.335938 16.703125 13.332031 Z M 16.492188 22.648438 L 16.28125 22.648438 L 16.28125 12.910156 L 16.492188 12.910156 C 18.09375 12.902344 19.207031 13.070312 19.9375 13.4375 C 20.667969 13.804688 21.238281 14.347656 21.632812 15.050781 C 22.023438 15.746094 22.21875 16.648438 22.21875 17.726562 C 22.21875 18.804688 22.019531 19.707031 21.625 20.410156 C 21.226562 21.121094 20.644531 21.675781 19.902344 22.066406 C 19.164062 22.453125 18.015625 22.648438 16.492188 22.648438 Z M 16.703125 24.007812 L 16.6875 32.261719 C 16.6875 32.832031 16.816406 33.261719 17.070312 33.539062 C 17.316406 33.8125 17.695312 33.949219 18.199219 33.949219 C 19.003906 33.949219 19.75 33.75 20.425781 33.359375 C 21.097656 32.96875 21.617188 32.394531 21.976562 31.652344 C 22.339844 30.902344 22.523438 30.046875 22.523438 29.117188 C 22.523438 28.054688 22.296875 27.085938 21.855469 26.242188 C 21.414062 25.414062 20.804688 24.824219 20.042969 24.496094 C 19.300781 24.175781 18.175781 24.011719 16.703125 24.007812 Z M 18.199219 34.371094 C 17.570312 34.371094 17.085938 34.1875 16.757812 33.824219 C 16.433594 33.464844 16.265625 32.9375 16.265625 32.257812 L 16.28125 31.382812 L 16.28125 23.589844 L 16.492188 23.585938 C 16.542969 23.585938 16.59375 23.585938 16.644531 23.585938 C 18.207031 23.585938 19.40625 23.761719 20.210938 24.109375 C 21.066406 24.476562 21.742188 25.128906 22.226562 26.042969 C 22.703125 26.949219 22.945312 27.984375 22.945312 29.117188 C 22.945312 30.109375 22.746094 31.027344 22.355469 31.835938 C 21.960938 32.65625 21.382812 33.289062 20.636719 33.722656 C 19.898438 34.152344 19.078125 34.371094 18.199219 34.371094 Z M 8.742188 35.238281 L 19.417969 35.238281 C 22.382812 35.238281 24.667969 34.546875 26.214844 33.183594 C 27.457031 32.066406 28.085938 30.636719 28.085938 28.925781 C 28.085938 27.3125 27.515625 25.976562 26.386719 24.964844 C 25.59375 24.246094 24.183594 23.625 22.191406 23.109375 L 21.429688 22.914062 L 22.191406 22.703125 C 24.023438 22.195312 25.316406 21.503906 26.035156 20.652344 C 26.746094 19.804688 27.105469 18.828125 27.105469 17.742188 C 27.105469 16.707031 26.820312 15.714844 26.253906 14.792969 C 25.6875 13.871094 24.902344 13.171875 23.925781 12.707031 C 22.9375 12.242188 21.214844 12.003906 18.800781 12.003906 L 8.742188 12.003906 L 8.742188 12.230469 C 9.652344 12.246094 10.273438 12.351562 10.640625 12.550781 C 11.039062 12.773438 11.320312 13.074219 11.480469 13.449219 C 11.636719 13.808594 11.710938 14.625 11.710938 15.945312 L 11.710938 31.296875 C 11.710938 32.621094 11.636719 33.4375 11.480469 33.789062 C 11.320312 34.15625 11.042969 34.457031 10.648438 34.683594 C 10.289062 34.894531 9.660156 35 8.742188 35.015625 Z M 19.417969 35.660156 L 8.320312 35.660156 L 8.320312 34.59375 L 8.53125 34.59375 C 9.710938 34.59375 10.21875 34.445312 10.4375 34.316406 C 10.757812 34.136719 10.96875 33.90625 11.09375 33.621094 C 11.183594 33.417969 11.289062 32.847656 11.289062 31.296875 L 11.289062 15.945312 C 11.289062 14.394531 11.183594 13.820312 11.09375 13.613281 C 10.96875 13.324219 10.753906 13.097656 10.433594 12.921875 C 10.109375 12.742188 9.46875 12.652344 8.53125 12.652344 L 8.320312 12.652344 L 8.320312 11.582031 L 18.800781 11.582031 C 21.308594 11.582031 23.046875 11.828125 24.105469 12.328125 C 25.160156 12.824219 26.003906 13.578125 26.613281 14.570312 C 27.21875 15.558594 27.527344 16.628906 27.527344 17.742188 C 27.527344 18.929688 27.136719 20 26.355469 20.921875 C 25.683594 21.726562 24.558594 22.386719 23.007812 22.898438 C 24.695312 23.390625 25.925781 23.980469 26.667969 24.652344 C 27.890625 25.75 28.507812 27.1875 28.507812 28.925781 C 28.507812 30.761719 27.832031 32.296875 26.496094 33.496094 C 24.871094 34.933594 22.488281 35.660156 19.417969 35.660156 "/>
<path style=" stroke:none;fill-rule:nonzero;fill:rgb(92.138672%,40.827942%,11.009216%);fill-opacity:1;" d="M 37.386719 36.179688 L 34.195312 28.03125 L 30.910156 36.179688 Z M 37.925781 37.472656 L 30.355469 37.472656 L 29.457031 39.773438 C 29.160156 40.542969 29.015625 41.175781 29.015625 41.675781 C 29.015625 42.339844 29.257812 42.828125 29.738281 43.140625 C 30.023438 43.328125 30.722656 43.46875 31.84375 43.558594 L 31.84375 44.207031 L 24.714844 44.207031 L 24.714844 43.558594 C 25.484375 43.433594 26.117188 43.082031 26.613281 42.503906 C 27.105469 41.929688 27.71875 40.738281 28.445312 38.9375 L 36.109375 20.058594 L 36.40625 20.058594 L 44.136719 39.460938 C 44.871094 41.296875 45.476562 42.457031 45.953125 42.933594 C 46.308594 43.292969 46.816406 43.503906 47.46875 43.558594 L 47.46875 44.207031 L 37.101562 44.207031 L 37.101562 43.558594 L 37.53125 43.558594 C 38.363281 43.558594 38.949219 43.433594 39.285156 43.175781 C 39.515625 42.988281 39.632812 42.722656 39.632812 42.375 C 39.632812 42.164062 39.601562 41.949219 39.535156 41.726562 C 39.515625 41.621094 39.355469 41.1875 39.0625 40.417969 L 37.925781 37.472656 "/>
<path style=" stroke:none;fill-rule:nonzero;fill:rgb(6.266785%,5.734253%,5.047607%);fill-opacity:1;" d="M 31.222656 35.96875 L 37.078125 35.96875 L 34.191406 28.601562 Z M 37.699219 36.390625 L 30.597656 36.390625 L 34.199219 27.460938 Z M 37.316406 43.996094 L 47.257812 43.996094 L 47.257812 43.746094 C 46.648438 43.664062 46.160156 43.441406 45.800781 43.082031 C 45.304688 42.578125 44.695312 41.417969 43.9375 39.539062 L 36.25 20.269531 L 28.640625 39.015625 C 27.898438 40.855469 27.285156 42.042969 26.773438 42.640625 C 26.28125 43.210938 25.664062 43.578125 24.925781 43.734375 L 24.925781 43.996094 L 31.632812 43.996094 L 31.632812 43.753906 C 30.570312 43.65625 29.929688 43.515625 29.625 43.320312 C 29.078125 42.964844 28.800781 42.410156 28.800781 41.675781 C 28.800781 41.152344 28.957031 40.484375 29.257812 39.699219 L 30.214844 37.261719 L 38.070312 37.261719 L 39.257812 40.34375 C 39.65625 41.378906 39.726562 41.605469 39.742188 41.6875 C 39.808594 41.910156 39.84375 42.148438 39.84375 42.375 C 39.84375 42.789062 39.699219 43.113281 39.414062 43.339844 C 39.03125 43.632812 38.417969 43.773438 37.53125 43.773438 L 37.316406 43.773438 Z M 47.679688 44.417969 L 36.894531 44.417969 L 36.894531 43.347656 L 37.53125 43.347656 C 38.308594 43.347656 38.859375 43.234375 39.15625 43.007812 C 39.332031 42.867188 39.421875 42.65625 39.421875 42.375 C 39.421875 42.183594 39.390625 41.988281 39.335938 41.785156 C 39.320312 41.71875 39.246094 41.484375 38.867188 40.496094 L 37.78125 37.683594 L 30.5 37.683594 L 29.652344 39.851562 C 29.367188 40.589844 29.222656 41.203125 29.222656 41.675781 C 29.222656 42.269531 29.429688 42.691406 29.855469 42.964844 C 30.03125 43.078125 30.519531 43.238281 31.859375 43.351562 L 32.050781 43.367188 L 32.050781 44.417969 L 24.503906 44.417969 L 24.503906 43.382812 L 24.679688 43.351562 C 25.394531 43.234375 25.992188 42.902344 26.453125 42.367188 C 26.929688 41.808594 27.535156 40.628906 28.25 38.855469 L 35.96875 19.847656 L 36.550781 19.847656 L 44.332031 39.382812 C 45.054688 41.183594 45.652344 42.328125 46.101562 42.785156 C 46.421875 43.105469 46.890625 43.296875 47.488281 43.351562 L 47.679688 43.367188 L 47.679688 44.417969 "/>
</g>
</svg>
