<?xml version="1.0" encoding="UTF-8"?>
<svg xmlns="http://www.w3.org/2000/svg" xmlns:xlink="http://www.w3.org/1999/xlink" width="56pt" height="56pt" viewBox="0 0 56 56" version="1.1">
<g id="surface1">
<rect x="0" y="0" width="56" height="56" style="fill:rgb(95.66803%,95.779419%,96.777344%);fill-opacity:1;stroke:none;"/>
<path style=" stroke:none;fill-rule:nonzero;fill:rgb(81.788635%,61.912537%,8.935547%);fill-opacity:1;" d="M 45.160156 33.699219 L 45.082031 33.707031 L 45 33.707031 C 44.816406 33.757812 44.636719 33.8125 44.457031 33.863281 C 43.394531 34.042969 42.335938 34.230469 41.277344 34.394531 C 40.46875 34.515625 39.664062 34.621094 38.855469 34.710938 C 38.101562 34.792969 37.347656 34.878906 36.59375 34.90625 C 32.675781 35.074219 28.757812 35.171875 24.839844 35.074219 C 22.949219 35.027344 21.050781 34.910156 19.167969 34.71875 C 16.507812 34.449219 13.859375 34.109375 11.230469 33.582031 C 8.875 33.109375 6.582031 32.488281 4.375 31.558594 C 3.324219 31.117188 2.335938 30.5625 1.507812 29.738281 C 0.992188 29.222656 0.609375 28.667969 0.507812 27.867188 C 0.628906 27.007812 1.148438 26.328125 1.878906 25.792969 C 3.335938 24.726562 4.96875 24.007812 6.6875 23.527344 C 8.507812 23.019531 10.355469 22.609375 12.203125 22.214844 C 13.222656 21.996094 14.269531 21.878906 15.304688 21.742188 C 16.71875 21.558594 18.132812 21.402344 19.546875 21.234375 C 19.605469 21.226562 19.664062 21.222656 19.722656 21.222656 C 21.035156 21.15625 22.34375 21.085938 23.65625 21.03125 C 25.027344 20.972656 26.398438 20.878906 27.769531 20.886719 C 30.046875 20.90625 32.324219 20.992188 34.601562 21.050781 C 34.570312 21.152344 34.535156 21.253906 34.496094 21.382812 C 34.171875 21.382812 33.886719 21.382812 33.597656 21.382812 C 32.003906 21.382812 30.410156 21.378906 28.816406 21.390625 C 28.574219 21.390625 28.285156 21.277344 28.101562 21.554688 C 26.277344 21.738281 24.441406 21.789062 22.621094 22.058594 C 19.878906 22.460938 17.164062 22.953125 14.539062 23.84375 C 13.269531 24.277344 11.992188 24.722656 10.882812 25.507812 C 10.457031 25.808594 10.019531 26.132812 9.699219 26.535156 C 8.957031 27.476562 8.890625 27.914062 9.710938 28.945312 C 10.484375 29.910156 11.582031 30.421875 12.699219 30.878906 C 15.03125 31.828125 17.464844 32.402344 19.941406 32.808594 C 21.34375 33.039062 22.769531 33.152344 24.179688 33.363281 C 25.621094 33.578125 27.078125 33.613281 28.53125 33.738281 C 31.398438 33.984375 34.261719 33.875 37.121094 33.839844 C 38.808594 33.820312 40.496094 33.625 42.179688 33.5 C 42.761719 33.457031 43.339844 33.394531 43.917969 33.339844 C 44.3125 33.351562 44.707031 33.363281 45.09375 33.378906 C 45.125 33.53125 45.140625 33.613281 45.160156 33.699219 "/>
<path style=" stroke:none;fill-rule:nonzero;fill:rgb(26.916504%,57.904053%,83.512878%);fill-opacity:1;" d="M 40.71875 25.496094 C 40.207031 26.1875 39.808594 26.722656 39.351562 27.34375 C 39.886719 27.347656 40.304688 27.445312 40.71875 27.257812 C 40.71875 26.71875 40.71875 26.210938 40.71875 25.496094 Z M 44.167969 23.839844 C 44.085938 24.664062 44.007812 25.324219 43.957031 25.984375 C 43.925781 26.363281 43.933594 26.746094 43.933594 27.128906 C 43.929688 28.210938 43.929688 29.292969 43.929688 30.363281 C 43.316406 30.5625 41.65625 30.601562 40.429688 30.445312 C 40.445312 30.148438 40.449219 29.839844 40.476562 29.535156 C 40.5 29.257812 40.550781 28.980469 40.59375 28.644531 C 39.867188 28.644531 39.234375 28.644531 38.492188 28.644531 C 38.097656 29.226562 37.667969 29.871094 37.242188 30.5 C 36.183594 30.5 35.195312 30.5 34.09375 30.5 C 35.769531 28.214844 37.394531 25.996094 38.972656 23.839844 C 40.679688 23.839844 42.339844 23.839844 44.167969 23.839844 "/>
<path style=" stroke:none;fill-rule:nonzero;fill:rgb(26.916504%,57.904053%,83.512878%);fill-opacity:1;" d="M 53.257812 25.828125 C 53.203125 26.125 53.160156 26.339844 53.113281 26.582031 C 53.660156 26.300781 54.152344 26.011719 54.671875 25.796875 C 54.894531 25.707031 55.179688 25.78125 55.484375 25.78125 C 55.535156 26.40625 55.253906 26.835938 55.046875 27.273438 C 54.390625 27.238281 53.789062 27.203125 53.21875 27.171875 C 52.699219 27.636719 52.375 28.136719 52.179688 28.734375 C 51.996094 29.3125 51.789062 29.882812 51.582031 30.488281 C 50.578125 30.488281 49.59375 30.488281 48.519531 30.488281 C 49.15625 28.902344 49.769531 27.375 50.386719 25.828125 C 51.34375 25.828125 52.242188 25.828125 53.257812 25.828125 "/>
<path style=" stroke:none;fill-rule:nonzero;fill:rgb(26.916504%,57.904053%,83.512878%);fill-opacity:1;" d="M 44.15625 30.488281 C 44.785156 28.914062 45.394531 27.390625 46.03125 25.796875 C 47.023438 25.769531 47.996094 25.769531 49.035156 25.808594 C 48.378906 27.425781 47.757812 28.949219 47.132812 30.488281 C 46.121094 30.488281 45.167969 30.488281 44.15625 30.488281 "/>
<path style=" stroke:none;fill-rule:nonzero;fill:rgb(19.665527%,24.357605%,59.509277%);fill-opacity:1;" d="M 22.527344 24.355469 C 20.894531 24.355469 19.265625 24.355469 17.550781 24.355469 C 17.632812 24.148438 17.679688 24.027344 17.738281 23.875 C 19.761719 23.875 21.773438 23.875 23.832031 23.875 C 23.832031 24.324219 23.511719 24.511719 23.257812 24.714844 C 22.074219 25.664062 20.871094 26.59375 19.679688 27.535156 C 18.765625 28.261719 17.859375 28.992188 16.8125 29.832031 C 18.839844 29.855469 20.71875 29.824219 22.667969 29.867188 C 22.582031 30.085938 22.539062 30.1875 22.484375 30.324219 C 20.265625 30.324219 18.054688 30.324219 15.863281 30.324219 C 15.726562 29.945312 15.957031 29.808594 16.167969 29.644531 C 17.824219 28.347656 19.476562 27.042969 21.128906 25.738281 C 21.628906 25.34375 22.113281 24.929688 22.605469 24.527344 C 22.578125 24.46875 22.550781 24.414062 22.527344 24.355469 "/>
<path style=" stroke:none;fill-rule:nonzero;fill:rgb(19.665527%,24.357605%,59.509277%);fill-opacity:1;" d="M 23.894531 29.894531 C 24.722656 30.433594 25.496094 30.148438 26.238281 29.792969 C 26.867188 29.492188 27.40625 29.078125 27.558594 28.242188 C 26.570312 28.253906 25.664062 28.109375 24.789062 28.433594 C 24.03125 28.710938 23.875 28.953125 23.894531 29.894531 Z M 28.535156 26.132812 C 28.617188 26.320312 28.722656 26.550781 28.808594 26.734375 C 28.605469 28.042969 27.761719 29.105469 27.894531 30.472656 C 27.628906 30.472656 27.417969 30.472656 27.179688 30.472656 C 27.109375 30.21875 27.050781 30.003906 26.976562 29.738281 C 26.394531 30.203125 25.765625 30.535156 25.039062 30.644531 C 24.296875 30.757812 23.585938 30.730469 23.066406 30.113281 C 22.996094 29.15625 23.351562 28.492188 24.253906 28.175781 C 24.929688 27.9375 25.664062 27.839844 26.382812 27.742188 C 26.839844 27.683594 27.308594 27.734375 27.875 27.734375 C 27.894531 27.285156 27.914062 26.898438 27.929688 26.5625 C 26.84375 25.902344 25.925781 26.046875 24.832031 27.007812 C 24.679688 27.007812 24.515625 27.007812 24.332031 27.007812 C 24.996094 25.757812 27.03125 25.324219 28.535156 26.132812 "/>
<path style=" stroke:none;fill-rule:nonzero;fill:rgb(19.665527%,24.357605%,59.509277%);fill-opacity:1;" d="M 30.304688 25.785156 C 30.523438 25.785156 30.660156 25.785156 30.871094 25.785156 C 30.847656 26.054688 30.832031 26.292969 30.816406 26.476562 C 31.335938 26.230469 31.863281 25.953125 32.417969 25.738281 C 32.679688 25.636719 32.984375 25.617188 33.273438 25.613281 C 34.140625 25.613281 34.414062 25.824219 34.792969 26.800781 C 34.402344 27.945312 33.980469 29.179688 33.550781 30.433594 C 33.300781 30.433594 33.09375 30.433594 32.847656 30.433594 C 33.140625 29.097656 33.957031 27.976562 33.914062 26.546875 C 33.707031 26.414062 33.503906 26.179688 33.28125 26.164062 C 32.828125 26.132812 32.339844 26.132812 31.910156 26.269531 C 31.117188 26.523438 30.589844 27.109375 30.300781 27.894531 C 29.996094 28.710938 29.699219 29.53125 29.371094 30.414062 C 29.179688 30.441406 28.964844 30.46875 28.636719 30.511719 C 29.210938 28.886719 29.746094 27.363281 30.304688 25.785156 "/>
<path style=" stroke:none;fill-rule:nonzero;fill:rgb(26.916504%,57.904053%,83.512878%);fill-opacity:1;" d="M 49.808594 23.710938 C 49.601562 24.28125 49.4375 24.734375 49.257812 25.234375 C 48.277344 25.257812 47.359375 25.269531 46.316406 25.210938 C 46.507812 24.667969 46.660156 24.242188 46.84375 23.734375 C 47.800781 23.632812 48.738281 23.667969 49.808594 23.710938 "/>
<path style=" stroke:none;fill-rule:nonzero;fill:rgb(81.788635%,61.912537%,8.935547%);fill-opacity:1;" d="M 28.101562 21.554688 C 28.285156 21.277344 28.574219 21.390625 28.816406 21.390625 C 30.410156 21.378906 32.003906 21.382812 33.597656 21.382812 C 33.886719 21.382812 34.171875 21.382812 34.496094 21.382812 C 34.535156 21.253906 34.570312 21.152344 34.601562 21.050781 C 35.714844 20.960938 36.792969 21.199219 37.886719 21.335938 C 38.628906 21.433594 39.375 21.496094 40.109375 21.734375 C 38.792969 21.679688 37.476562 21.601562 36.15625 21.574219 C 34.816406 21.542969 33.472656 21.5625 32.128906 21.5625 C 30.785156 21.558594 29.445312 21.558594 28.101562 21.554688 "/>
<path style=" stroke:none;fill-rule:nonzero;fill:rgb(81.788635%,61.912537%,8.935547%);fill-opacity:1;" d="M 45.160156 33.699219 C 45.140625 33.613281 45.125 33.53125 45.09375 33.378906 C 44.707031 33.363281 44.3125 33.351562 43.917969 33.339844 C 43.984375 33.289062 44.050781 33.199219 44.121094 33.195312 C 45.472656 33.082031 46.824219 32.964844 48.148438 32.660156 C 48.371094 32.605469 48.613281 32.640625 48.84375 32.632812 C 49.019531 32.691406 49.195312 32.75 49.371094 32.808594 C 48.195312 33.078125 47.019531 33.351562 45.84375 33.613281 C 45.621094 33.664062 45.386719 33.671875 45.160156 33.699219 "/>
<path style=" stroke:none;fill-rule:nonzero;fill:rgb(81.788635%,61.912537%,8.935547%);fill-opacity:1;" d="M 49.371094 32.808594 C 49.195312 32.75 49.019531 32.691406 48.84375 32.632812 C 49.621094 32.179688 50.515625 32.332031 51.324219 32.046875 C 51.34375 32.117188 51.359375 32.1875 51.375 32.257812 C 50.707031 32.441406 50.039062 32.625 49.371094 32.808594 "/>
<path style=" stroke:none;fill-rule:nonzero;fill:rgb(81.788635%,61.912537%,8.935547%);fill-opacity:1;" d="M 44.457031 33.863281 C 44.636719 33.8125 44.816406 33.757812 45 33.707031 C 44.816406 33.757812 44.636719 33.8125 44.457031 33.863281 "/>
</g>
</svg>
