<?xml version="1.0" encoding="UTF-8"?>
<svg xmlns="http://www.w3.org/2000/svg" xmlns:xlink="http://www.w3.org/1999/xlink" width="56pt" height="56pt" viewBox="0 0 56 56" version="1.1">
<g id="surface1">
<rect x="0" y="0" width="56" height="56" style="fill:rgb(95.666504%,95.776367%,96.775818%);fill-opacity:1;stroke:none;"/>
<path style=" stroke:none;fill-rule:nonzero;fill:rgb(88.497925%,11.453247%,14.463806%);fill-opacity:1;" d="M 43.671875 31.878906 L 31.578125 31.878906 L 34.050781 26.378906 L 46.148438 26.378906 L 43.671875 31.878906 "/>
<path style=" stroke:none;fill-rule:nonzero;fill:rgb(25.325012%,48.908997%,78.541565%);fill-opacity:1;" d="M 39.367188 41.101562 L 18.25 41.101562 L 20.726562 35.601562 L 41.84375 35.601562 L 39.367188 41.101562 "/>
<path style=" stroke:none;fill-rule:nonzero;fill:rgb(14.707947%,50.335693%,22.845459%);fill-opacity:1;" d="M 50.453125 17.152344 L 40.789062 17.152344 C 40.492188 18.886719 40.035156 20.757812 39.332031 22.652344 L 47.976562 22.652344 L 50.453125 17.152344 "/>
<path style=" stroke:none;fill-rule:nonzero;fill:rgb(97.544861%,82.176208%,3.916931%);fill-opacity:1;" d="M 38.359375 17.152344 L 40.789062 17.152344 C 41.632812 12.175781 41.117188 8.320312 41.117188 8.320312 C 41.117188 8.320312 40.640625 8.5 38.863281 11.496094 C 35.582031 17.03125 26.5625 21.847656 21.4375 26.976562 C 16.3125 32.101562 9.546875 47.269531 9.546875 47.269531 L 11.1875 47.679688 C 11.1875 47.679688 11.800781 46.859375 13.851562 42.351562 C 18.773438 43.171875 27.996094 38.660156 35.378906 29.640625 C 37.183594 27.429688 38.449219 25.027344 39.332031 22.652344 L 35.882812 22.652344 L 38.359375 17.152344 "/>
<path style=" stroke:none;fill-rule:nonzero;fill:rgb(97.544861%,82.176208%,3.916931%);fill-opacity:1;" d="M 38.359375 17.152344 L 35.882812 22.652344 L 39.332031 22.652344 C 40.035156 20.757812 40.492188 18.886719 40.789062 17.152344 L 38.359375 17.152344 "/>
</g>
</svg>
