<?xml version="1.0" encoding="UTF-8"?>
<svg xmlns="http://www.w3.org/2000/svg" xmlns:xlink="http://www.w3.org/1999/xlink" width="56pt" height="56pt" viewBox="0 0 56 56" version="1.1">
<g id="surface1">
<rect x="0" y="0" width="56" height="56" style="fill:rgb(95.66803%,95.779419%,96.777344%);fill-opacity:1;stroke:none;"/>
<path style=" stroke:none;fill-rule:nonzero;fill:rgb(94.389343%,93.711853%,11.31897%);fill-opacity:1;" d="M 26.992188 29.113281 C 26.972656 29.132812 26.953125 29.132812 26.953125 29.148438 C 26.953125 29.132812 26.972656 29.113281 26.992188 29.113281 "/>
<path style=" stroke:none;fill-rule:nonzero;fill:rgb(15.797424%,20.960999%,48.233032%);fill-opacity:1;" d="M 7.84375 44.988281 L 41.726562 44.988281 L 50.679688 24.058594 L 41.082031 24.058594 L 17.957031 36.917969 L 7.84375 44.988281 "/>
<path style=" stroke:none;fill-rule:nonzero;fill:rgb(84.120178%,65.223694%,8.050537%);fill-opacity:1;" d="M 28.089844 32.214844 L 41.082031 24.058594 L 27.183594 24.058594 L 25.734375 11.011719 L 18.847656 24.058594 L 5.320312 24.058594 L 14.613281 32.078125 L 7.84375 44.988281 L 20.375 37.054688 L 29.507812 44.933594 L 28.089844 32.214844 "/>
<path style=" stroke:none;fill-rule:nonzero;fill:rgb(97.691345%,86.717224%,1.982117%);fill-opacity:1;" d="M 7.84375 44.988281 L 20.375 37.054688 L 29.511719 44.988281 L 28.097656 32.261719 L 41.082031 24.058594 C 41.082031 24.058594 20.777344 25.289062 7.84375 44.988281 "/>
</g>
</svg>
