<?xml version="1.0" encoding="UTF-8"?>
<svg xmlns="http://www.w3.org/2000/svg" xmlns:xlink="http://www.w3.org/1999/xlink" width="56pt" height="56pt" viewBox="0 0 56 56" version="1.1">
<g id="surface1">
<rect x="0" y="0" width="56" height="56" style="fill:rgb(30.171204%,68.440247%,90.223694%);fill-opacity:1;stroke:none;"/>
<path style=" stroke:none;fill-rule:nonzero;fill:rgb(100%,100%,100%);fill-opacity:1;" d="M 26.316406 36.382812 C 16.558594 22.304688 15.011719 2.257812 25.195312 5.722656 C 35.433594 9.242188 49.882812 19.695312 26.316406 36.382812 "/>
<path style=" stroke:none;fill-rule:nonzero;fill:rgb(100%,100%,100%);fill-opacity:1;" d="M 26.316406 36.382812 C 16.664062 42.78125 3.496094 43.3125 4.988281 37.449219 C 6.535156 31.265625 12.828125 21.71875 26.316406 36.382812 "/>
<path style=" stroke:none;fill-rule:nonzero;fill:rgb(100%,100%,100%);fill-opacity:1;" d="M 27.007812 37.503906 C 30.046875 42.671875 37.460938 44.753906 43.109375 39.261719 C 50.789062 31.796875 62.039062 15.535156 27.007812 37.503906 "/>
<path style=" stroke:none;fill-rule:nonzero;fill:rgb(100%,100%,100%);fill-opacity:1;" d="M 27.007812 37.503906 C 19.4375 42.566406 13.359375 50.726562 17.039062 50.671875 C 20.769531 50.5625 29.78125 45.550781 27.007812 37.503906 "/>
</g>
</svg>
