<?xml version="1.0" encoding="UTF-8"?>
<svg xmlns="http://www.w3.org/2000/svg" xmlns:xlink="http://www.w3.org/1999/xlink" width="56pt" height="56pt" viewBox="0 0 56 56" version="1.1">
<g id="surface1">
<rect x="0" y="0" width="56" height="56" style="fill:rgb(88.537598%,13.240051%,14.231873%);fill-opacity:1;stroke:none;"/>
<path style=" stroke:none;fill-rule:nonzero;fill:rgb(100%,100%,100%);fill-opacity:1;" d="M 34.238281 24.097656 L 36.949219 26.71875 C 37.628906 27.449219 38.847656 27.449219 39.933594 26.71875 L 46.035156 22.632812 L 44.40625 21.167969 L 53.085938 21.167969 L 40.203125 30.382812 C 38.578125 31.273438 37.492188 31.375 36.542969 30.59375 C 35.457031 29.804688 34.914062 29.335938 34.914062 29.441406 C 34.101562 28.289062 32.882812 28.132812 31.390625 28.914062 L 23.390625 34.832031 L 9.152344 34.832031 L 22.710938 24.625 L 2.914062 24.726562 L 5.628906 22.109375 L 30.710938 22.109375 C 32.070312 21.953125 33.152344 22.632812 34.238281 24.097656 "/>
</g>
</svg>
