<?xml version="1.0" encoding="UTF-8"?>
<svg xmlns="http://www.w3.org/2000/svg" xmlns:xlink="http://www.w3.org/1999/xlink" width="56pt" height="56pt" viewBox="0 0 56 56" version="1.1">
<defs>
<clipPath id="clip1">
  <path d="M 25 24 L 26 24 L 26 25 L 25 25 Z M 25 24 "/>
</clipPath>
<clipPath id="clip2">
  <path d="M 25.726562 24.511719 C 25.734375 24.539062 25.757812 24.554688 25.78125 24.558594 L 25.828125 24.511719 C 25.777344 24.515625 25.726562 24.511719 25.726562 24.511719 "/>
</clipPath>
<clipPath id="clip3">
  <rect x="0" y="0" width="2" height="1"/>
</clipPath>
<g id="surface5" clip-path="url(#clip3)">
<path style=" stroke:none;fill-rule:nonzero;fill:rgb(6.266785%,5.734253%,5.047607%);fill-opacity:1;" d="M 0 -0.5 L 1 -0.5 L 1 1.5 L 0 1.5 L 0 -0.5 "/>
</g>
<pattern id="pattern0" patternUnits="userSpaceOnUse" width="2" height="1" patternTransform="matrix(0.809293,0,0,-0.809293,0.2,55.8)">
<use xlink:href="#surface5"/>
</pattern>
</defs>
<g id="surface1">
<rect x="0" y="0" width="56" height="56" style="fill:rgb(95.666504%,95.776367%,96.775818%);fill-opacity:1;stroke:none;"/>
<path style=" stroke:none;fill-rule:nonzero;fill:rgb(97.084045%,92.507935%,3.053284%);fill-opacity:1;" d="M 33.113281 17.222656 L 44.4375 17.222656 L 22.902344 38.777344 L 11.578125 38.777344 L 33.113281 17.222656 "/>
<path style=" stroke:none;fill-rule:nonzero;fill:rgb(12.849426%,8.666992%,7.872009%);fill-opacity:1;" d="M 3.640625 29.605469 L 5.621094 33.238281 L 6.199219 33.238281 L 4.125 29.441406 L 3.640625 29.605469 "/>
<path style=" stroke:none;fill-rule:nonzero;fill:rgb(12.849426%,8.666992%,7.872009%);fill-opacity:1;" d="M 8.753906 27.179688 C 8.449219 27.179688 6.847656 27.210938 6.847656 29.652344 C 6.847656 30.734375 7.351562 31.929688 8.707031 31.929688 C 8.707031 31.929688 10.65625 32.035156 10.65625 29.652344 C 10.65625 27.269531 9.054688 27.179688 8.753906 27.179688 M 8.753906 31.605469 C 8.753906 31.605469 7.390625 31.734375 7.390625 29.554688 C 7.390625 27.375 8.753906 27.511719 8.753906 27.511719 C 8.753906 27.511719 10.082031 27.390625 10.082031 29.558594 C 10.082031 31.726562 8.753906 31.605469 8.753906 31.605469 "/>
<path style=" stroke:none;fill-rule:nonzero;fill:rgb(12.849426%,8.666992%,7.872009%);fill-opacity:1;" d="M 11.898438 27.277344 L 12.394531 27.277344 L 13.550781 29.652344 L 14.734375 27.277344 L 15.140625 27.277344 L 15.140625 27.378906 L 13.769531 30.105469 L 13.769531 31.847656 L 13.277344 31.847656 L 13.277344 30.074219 L 11.898438 27.390625 L 11.898438 27.277344 "/>
<path style=" stroke:none;fill-rule:nonzero;fill:rgb(12.849426%,8.666992%,7.872009%);fill-opacity:1;" d="M 18.289062 27.277344 L 17.71875 27.277344 L 16.21875 31.773438 L 16.21875 31.847656 L 16.648438 31.847656 L 17.15625 30.273438 L 18.769531 30.273438 L 19.292969 31.847656 L 19.792969 31.847656 L 19.792969 31.726562 Z M 17.273438 29.914062 L 17.957031 27.808594 L 18.652344 29.914062 Z M 17.273438 29.914062 "/>
<path style=" stroke:none;fill-rule:nonzero;fill:rgb(12.849426%,8.666992%,7.872009%);fill-opacity:1;" d="M 22.101562 31.488281 L 22.101562 27.277344 L 21.59375 27.277344 L 21.59375 31.847656 L 24.019531 31.847656 L 24.019531 31.488281 L 22.101562 31.488281 "/>
<path style=" stroke:none;fill-rule:nonzero;fill:rgb(12.849426%,8.666992%,7.872009%);fill-opacity:1;" d="M 3.492188 26.660156 L 2.320312 26.660156 L 2.320312 31.847656 L 2.824219 31.847656 L 2.824219 29.664062 L 3.363281 29.664062 C 3.988281 29.664062 5.242188 29.492188 5.242188 28.089844 C 5.242188 26.605469 3.640625 26.660156 3.492188 26.660156 M 3.414062 29.3125 L 2.832031 29.3125 L 2.832031 27.003906 L 3.421875 27.003906 C 3.644531 27.003906 4.710938 26.957031 4.683594 28.203125 C 4.65625 29.445312 3.414062 29.3125 3.414062 29.3125 "/>
<path style=" stroke:none;fill-rule:nonzero;fill:rgb(12.849426%,8.666992%,7.872009%);fill-opacity:1;" d="M 29.589844 29.121094 C 29.589844 29.121094 30.460938 28.863281 30.421875 27.898438 C 30.382812 26.933594 29.652344 26.652344 28.796875 26.652344 L 27.445312 26.652344 L 27.445312 31.847656 L 29.082031 31.847656 C 29.082031 31.847656 30.519531 31.859375 30.609375 30.542969 C 30.707031 29.226562 29.589844 29.121094 29.589844 29.121094 M 27.992188 27 C 27.996094 26.988281 27.996094 26.980469 27.996094 26.980469 L 28.835938 26.980469 C 28.835938 26.980469 29.863281 26.957031 29.847656 27.921875 C 29.835938 28.886719 29.03125 28.972656 28.742188 28.972656 L 27.992188 28.972656 Z M 30.035156 30.445312 C 30.003906 31.527344 29.042969 31.53125 28.429688 31.53125 C 28.195312 31.53125 28.066406 31.53125 27.992188 31.53125 L 27.992188 29.320312 L 28.890625 29.320312 C 29.019531 29.320312 30.070312 29.328125 30.035156 30.445312 "/>
<path style=" stroke:none;fill-rule:nonzero;fill:rgb(12.849426%,8.666992%,7.872009%);fill-opacity:1;" d="M 33.757812 29.808594 L 35.609375 33.242188 L 36.1875 33.242188 L 34.238281 29.648438 L 33.757812 29.808594 "/>
<path style=" stroke:none;fill-rule:nonzero;fill:rgb(12.849426%,8.666992%,7.872009%);fill-opacity:1;" d="M 33.597656 27.261719 L 32.640625 27.261719 L 32.640625 31.851562 L 33.148438 31.851562 L 33.148438 29.9375 L 33.613281 29.9375 C 34.15625 29.9375 35.238281 29.785156 35.238281 28.53125 C 35.238281 27.167969 33.726562 27.261719 33.597656 27.261719 M 33.652344 29.609375 L 33.15625 29.609375 L 33.15625 27.597656 L 33.660156 27.597656 C 33.847656 27.597656 34.734375 27.558594 34.734375 28.640625 C 34.734375 29.683594 33.652344 29.609375 33.652344 29.609375 "/>
<path style=" stroke:none;fill-rule:nonzero;fill:rgb(12.849426%,8.666992%,7.872009%);fill-opacity:1;" d="M 37.316406 27.316406 L 37.839844 27.316406 L 37.839844 29.992188 C 37.839844 30.550781 37.9375 30.953125 38.128906 31.195312 C 38.320312 31.441406 38.613281 31.566406 39.039062 31.566406 C 39.261719 31.566406 39.449219 31.53125 39.605469 31.46875 C 39.761719 31.402344 39.886719 31.304688 39.980469 31.175781 C 40.078125 31.042969 40.148438 30.878906 40.191406 30.683594 C 40.230469 30.488281 40.253906 30.257812 40.253906 29.992188 L 40.253906 27.316406 L 40.644531 27.316406 L 40.644531 30.117188 C 40.644531 30.703125 40.511719 31.152344 40.242188 31.460938 C 39.976562 31.773438 39.578125 31.925781 39.039062 31.925781 C 38.496094 31.925781 37.976562 31.769531 37.714844 31.453125 C 37.449219 31.136719 37.316406 30.691406 37.316406 30.117188 L 37.316406 27.316406 "/>
<path style=" stroke:none;fill-rule:nonzero;fill:rgb(12.849426%,8.666992%,7.872009%);fill-opacity:1;" d="M 43.398438 27.894531 L 43.386719 27.894531 L 43.386719 31.855469 L 42.957031 31.855469 L 42.957031 27.316406 L 43.496094 27.316406 L 45.878906 31.050781 L 45.890625 31.050781 L 45.890625 27.316406 L 46.3125 27.316406 L 46.3125 31.855469 L 45.863281 31.855469 L 43.398438 27.894531 "/>
<path style=" stroke:none;fill-rule:nonzero;fill:rgb(12.849426%,8.666992%,7.872009%);fill-opacity:1;" d="M 48.652344 31.855469 L 48.652344 27.316406 L 51.054688 27.316406 L 51.054688 27.679688 L 49.15625 27.679688 L 49.15625 29.320312 L 50.871094 29.320312 L 50.871094 29.683594 L 49.15625 29.683594 L 49.15625 31.488281 L 51.117188 31.488281 L 51.117188 31.855469 L 48.652344 31.855469 "/>
<path style=" stroke:none;fill-rule:nonzero;fill:rgb(12.849426%,8.666992%,7.872009%);fill-opacity:1;" d="M 53.167969 27.316406 L 53.679688 27.316406 L 53.679688 31.855469 L 53.167969 31.855469 L 53.167969 27.316406 "/>
<path style=" stroke:none;fill-rule:nonzero;fill:rgb(12.849426%,8.666992%,7.872009%);fill-opacity:1;" d="M 26.449219 36.207031 L 26.449219 34.414062 L 26.207031 34.414062 L 26.207031 36.359375 L 27.265625 36.359375 L 27.265625 36.207031 L 26.449219 36.207031 "/>
<path style=" stroke:none;fill-rule:nonzero;fill:rgb(12.849426%,8.666992%,7.872009%);fill-opacity:1;" d="M 24.757812 36.359375 L 24.300781 35.511719 C 24.492188 35.445312 24.675781 35.292969 24.675781 34.960938 C 24.675781 34.378906 24.035156 34.417969 23.980469 34.417969 L 23.5 34.417969 L 23.5 36.371094 L 23.746094 36.371094 L 23.746094 35.554688 L 23.984375 35.554688 C 24 35.554688 24.015625 35.554688 24.03125 35.554688 L 24.464844 36.359375 Z M 23.960938 35.417969 L 23.75 35.417969 L 23.75 34.5625 L 23.964844 34.5625 C 24.042969 34.5625 24.421875 34.542969 24.421875 35.003906 C 24.421875 35.449219 23.960938 35.417969 23.960938 35.417969 "/>
<path style=" stroke:none;fill-rule:nonzero;fill:rgb(12.849426%,8.666992%,7.872009%);fill-opacity:1;" d="M 30.726562 34.664062 L 30.722656 34.664062 L 30.722656 36.347656 L 30.539062 36.347656 L 30.539062 34.414062 L 30.820312 34.414062 L 31.78125 36.007812 L 31.789062 36.007812 L 31.789062 34.414062 L 31.996094 34.414062 L 31.996094 36.347656 L 31.722656 36.347656 L 30.726562 34.664062 "/>
<path style=" stroke:none;fill-rule:nonzero;fill:rgb(12.849426%,8.666992%,7.872009%);fill-opacity:1;" d="M 33.574219 36.347656 L 33.574219 34.414062 L 34.632812 34.414062 L 34.632812 34.574219 L 33.828125 34.574219 L 33.828125 35.269531 L 34.554688 35.269531 L 34.554688 35.425781 L 33.828125 35.425781 L 33.828125 36.191406 L 34.660156 36.191406 L 34.660156 36.347656 L 33.574219 36.347656 "/>
<path style=" stroke:none;fill-rule:nonzero;fill:rgb(12.849426%,8.666992%,7.872009%);fill-opacity:1;" d="M 21.65625 34.414062 L 21.914062 34.414062 L 21.914062 36.347656 L 21.65625 36.347656 L 21.65625 34.414062 "/>
<path style=" stroke:none;fill-rule:nonzero;fill:rgb(12.849426%,8.666992%,7.872009%);fill-opacity:1;" d="M 28.664062 34.414062 L 28.921875 34.414062 L 28.921875 36.347656 L 28.664062 36.347656 L 28.664062 34.414062 "/>
<path style=" stroke:none;fill-rule:nonzero;fill:rgb(12.849426%,8.666992%,7.872009%);fill-opacity:1;" d="M 19.738281 34.414062 L 19.414062 34.414062 L 18.777344 36.328125 L 18.777344 36.359375 L 18.996094 36.359375 L 19.191406 35.753906 L 19.898438 35.753906 L 20.085938 36.359375 L 20.359375 36.359375 L 20.359375 36.308594 Z M 19.246094 35.582031 L 19.550781 34.640625 L 19.84375 35.582031 Z M 19.246094 35.582031 "/>
<path style=" stroke:none;fill-rule:nonzero;fill:rgb(12.849426%,8.666992%,7.872009%);fill-opacity:1;" d="M 37.140625 34.78125 L 36.90625 34.835938 C 36.90625 34.835938 36.824219 34.527344 36.507812 34.511719 C 36.195312 34.492188 36.171875 34.808594 36.171875 34.808594 C 36.171875 34.808594 36.152344 34.980469 36.222656 35.0625 C 36.292969 35.144531 36.527344 35.230469 36.601562 35.261719 C 36.710938 35.308594 37.183594 35.425781 37.128906 35.875 C 37.097656 36.117188 37.003906 36.378906 36.523438 36.390625 C 35.9375 36.40625 35.835938 35.953125 35.835938 35.953125 L 36.066406 35.882812 C 36.066406 35.882812 36.132812 36.226562 36.496094 36.25 C 36.859375 36.273438 36.941406 35.894531 36.871094 35.730469 C 36.800781 35.566406 36.703125 35.527344 36.488281 35.453125 C 36.277344 35.378906 35.910156 35.238281 35.925781 34.933594 C 35.941406 34.574219 36.148438 34.402344 36.496094 34.375 C 36.855469 34.347656 37.085938 34.558594 37.140625 34.78125 "/>
<path style=" stroke:none;fill-rule:nonzero;fill:rgb(12.849426%,8.666992%,7.872009%);fill-opacity:1;" d="M 24.632812 24.402344 C 24.632812 24.402344 24.40625 24.476562 24.191406 25.019531 C 24.28125 24.941406 24.464844 24.882812 24.632812 24.894531 C 24.800781 24.90625 25.082031 25.019531 25.082031 25.019531 C 25.082031 25.019531 25.511719 25.175781 25.515625 24.9375 C 25.515625 24.699219 25.234375 24.738281 25.199219 24.746094 C 25.164062 24.753906 24.875 24.863281 24.707031 24.828125 C 24.550781 24.792969 24.476562 24.566406 24.628906 24.433594 C 24.65625 24.40625 24.664062 24.390625 24.632812 24.402344 "/>
<path style=" stroke:none;fill-rule:nonzero;fill:rgb(12.849426%,8.666992%,7.872009%);fill-opacity:1;" d="M 24.621094 24.617188 C 24.621094 24.730469 24.753906 24.777344 24.910156 24.757812 C 25.070312 24.738281 25.191406 24.65625 25.351562 24.675781 C 25.515625 24.699219 25.578125 24.863281 25.574219 24.90625 C 25.621094 24.8125 25.703125 24.65625 25.703125 24.65625 L 25.011719 24.453125 C 25.011719 24.453125 24.621094 24.367188 24.621094 24.617188 "/>
<path style=" stroke:none;fill-rule:nonzero;fill:rgb(12.849426%,8.666992%,7.872009%);fill-opacity:1;" d="M 29.910156 24.386719 C 29.910156 24.386719 30.15625 24.476562 30.371094 25.019531 C 30.28125 24.941406 30.09375 24.882812 29.929688 24.894531 C 29.761719 24.90625 29.480469 25.019531 29.480469 25.019531 C 29.480469 25.019531 29.050781 25.175781 29.046875 24.9375 C 29.046875 24.699219 29.328125 24.738281 29.363281 24.746094 C 29.398438 24.753906 29.6875 24.863281 29.855469 24.828125 C 30.019531 24.789062 30.101562 24.519531 29.910156 24.386719 "/>
<path style=" stroke:none;fill-rule:nonzero;fill:rgb(12.849426%,8.666992%,7.872009%);fill-opacity:1;" d="M 29.941406 24.617188 C 29.941406 24.730469 29.808594 24.777344 29.652344 24.757812 C 29.492188 24.738281 29.371094 24.65625 29.210938 24.675781 C 29.046875 24.699219 28.984375 24.863281 28.988281 24.90625 C 28.941406 24.8125 28.859375 24.65625 28.859375 24.65625 L 29.550781 24.453125 C 29.550781 24.453125 29.941406 24.367188 29.941406 24.617188 "/>
<path style=" stroke:none;fill-rule:nonzero;fill:rgb(12.849426%,8.666992%,7.872009%);fill-opacity:1;" d="M 24.761719 24.363281 L 24.972656 24.058594 C 24.972656 24.058594 25.097656 23.886719 25.332031 23.925781 C 25.5625 23.964844 26.328125 24.171875 26.757812 24.238281 C 27.070312 24.285156 27.308594 24.273438 27.308594 24.273438 C 27.308594 24.273438 27.78125 24.25 28.03125 24.199219 C 28.285156 24.144531 29.285156 23.863281 29.417969 23.910156 C 29.554688 23.960938 29.84375 24.378906 29.84375 24.378906 C 29.84375 24.378906 29.679688 24.382812 29.589844 24.394531 C 29.363281 24.421875 28.292969 24.847656 27.246094 24.847656 C 26.199219 24.847656 25.136719 24.328125 24.761719 24.363281 "/>
<path style=" stroke:none;fill-rule:nonzero;fill:rgb(12.849426%,8.666992%,7.872009%);fill-opacity:1;" d="M 27.375 17.304688 C 27.375 17.265625 27.34375 17.230469 27.300781 17.230469 C 27.261719 17.230469 27.226562 17.265625 27.226562 17.304688 C 27.226562 17.347656 27.261719 17.378906 27.300781 17.378906 C 27.34375 17.378906 27.375 17.347656 27.375 17.304688 "/>
<path style=" stroke:none;fill-rule:nonzero;fill:rgb(12.849426%,8.666992%,7.872009%);fill-opacity:1;" d="M 27.339844 18.171875 L 27.261719 18.171875 L 27.261719 17.339844 L 27.339844 17.339844 L 27.339844 18.171875 "/>
<path style=" stroke:none;fill-rule:nonzero;fill:rgb(12.849426%,8.666992%,7.872009%);fill-opacity:1;" d="M 27.339844 19.128906 L 27.300781 19.167969 L 27.261719 19.128906 L 27.261719 18.855469 L 27.339844 18.855469 L 27.339844 19.128906 "/>
<path style=" stroke:none;fill-rule:nonzero;fill:rgb(12.849426%,8.666992%,7.872009%);fill-opacity:1;" d="M 27.269531 17.429688 C 27.269531 17.429688 27.371094 17.386719 27.488281 17.449219 C 27.605469 17.511719 27.707031 17.609375 27.875 17.605469 C 27.824219 17.695312 27.65625 17.726562 27.65625 17.726562 C 27.65625 17.726562 27.71875 17.761719 27.738281 17.789062 C 27.757812 17.820312 27.789062 17.878906 27.867188 17.878906 C 27.804688 17.933594 27.65625 17.949219 27.609375 17.910156 C 27.566406 17.867188 27.46875 17.78125 27.304688 17.785156 C 27.285156 17.648438 27.269531 17.429688 27.269531 17.429688 "/>
<path style=" stroke:none;fill-rule:nonzero;fill:rgb(12.849426%,8.666992%,7.872009%);fill-opacity:1;" d="M 27.777344 18.203125 C 27.777344 18.25 27.5625 18.285156 27.300781 18.285156 C 27.039062 18.285156 26.828125 18.25 26.828125 18.203125 C 26.828125 18.15625 27.039062 18.121094 27.300781 18.121094 C 27.5625 18.121094 27.777344 18.15625 27.777344 18.203125 "/>
<path style=" stroke:none;fill-rule:nonzero;fill:rgb(12.849426%,8.666992%,7.872009%);fill-opacity:1;" d="M 27.78125 18.289062 C 27.625 18.347656 27.320312 18.355469 27.300781 18.355469 C 27.28125 18.355469 26.980469 18.347656 26.824219 18.289062 C 26.824219 18.289062 26.769531 18.621094 26.707031 18.71875 C 26.855469 18.636719 26.902344 18.566406 26.902344 18.566406 L 26.957031 18.78125 C 26.957031 18.78125 27.078125 18.6875 27.117188 18.601562 C 27.203125 18.730469 27.28125 18.792969 27.300781 18.804688 L 27.300781 18.808594 C 27.300781 18.808594 27.300781 18.804688 27.300781 18.804688 C 27.300781 18.804688 27.304688 18.808594 27.304688 18.808594 L 27.304688 18.804688 C 27.320312 18.792969 27.402344 18.730469 27.484375 18.601562 C 27.527344 18.6875 27.648438 18.78125 27.648438 18.78125 L 27.703125 18.566406 C 27.703125 18.566406 27.746094 18.636719 27.894531 18.71875 C 27.835938 18.621094 27.78125 18.289062 27.78125 18.289062 "/>
<path style=" stroke:none;fill-rule:nonzero;fill:rgb(12.849426%,8.666992%,7.872009%);fill-opacity:1;" d="M 29.582031 19.371094 C 29.582031 19.371094 29.414062 19.449219 29.035156 19.410156 C 28.652344 19.371094 28.230469 18.957031 27.871094 18.949219 C 27.53125 18.941406 27.320312 19.203125 27.296875 19.234375 C 27.273438 19.203125 27.0625 18.941406 26.722656 18.949219 C 26.363281 18.957031 25.941406 19.371094 25.558594 19.410156 C 25.179688 19.449219 25.011719 19.371094 25.011719 19.371094 C 25.011719 19.371094 25.300781 19.886719 25.777344 19.632812 C 25.746094 19.675781 25.746094 19.734375 25.480469 19.777344 C 25.484375 19.863281 25.648438 20.078125 26.121094 19.816406 C 26.066406 19.902344 25.953125 19.976562 25.816406 20.007812 C 25.90625 20.117188 26.015625 20.253906 26.476562 19.941406 C 26.394531 20.101562 26.191406 20.171875 26.191406 20.171875 C 26.191406 20.171875 26.34375 20.335938 26.6875 20.230469 C 27.03125 20.128906 27.085938 19.867188 27.085938 19.867188 L 27.152344 19.90625 C 27.152344 19.90625 27.023438 20.128906 27.023438 20.320312 C 27.023438 20.515625 27.179688 20.535156 27.179688 20.535156 L 27.296875 20.421875 L 27.296875 20.414062 C 27.296875 20.417969 27.296875 20.421875 27.296875 20.421875 L 27.414062 20.535156 C 27.414062 20.535156 27.570312 20.515625 27.570312 20.320312 C 27.570312 20.128906 27.445312 19.90625 27.445312 19.90625 L 27.507812 19.867188 C 27.507812 19.867188 27.566406 20.128906 27.90625 20.230469 C 28.253906 20.335938 28.402344 20.171875 28.402344 20.171875 C 28.402344 20.171875 28.203125 20.101562 28.117188 19.941406 C 28.582031 20.253906 28.6875 20.117188 28.78125 20.007812 C 28.640625 19.976562 28.527344 19.902344 28.472656 19.816406 C 28.945312 20.078125 29.109375 19.863281 29.113281 19.777344 C 28.847656 19.734375 28.847656 19.675781 28.816406 19.632812 C 29.292969 19.886719 29.582031 19.371094 29.582031 19.371094 "/>
<path style=" stroke:none;fill-rule:nonzero;fill:rgb(12.849426%,8.666992%,7.872009%);fill-opacity:1;" d="M 27.585938 21.246094 C 27.546875 21.058594 27.414062 20.976562 27.414062 20.8125 C 27.414062 20.648438 27.554688 20.554688 27.554688 20.554688 C 27.554688 20.554688 27.421875 20.578125 27.367188 20.65625 C 27.363281 20.574219 27.289062 20.519531 27.28125 20.511719 C 27.273438 20.519531 27.199219 20.574219 27.195312 20.65625 C 27.144531 20.578125 27.007812 20.554688 27.007812 20.554688 C 27.007812 20.554688 27.148438 20.648438 27.148438 20.8125 C 27.148438 20.976562 27.015625 21.058594 26.976562 21.246094 C 26.941406 21.4375 27.171875 21.535156 27.171875 21.535156 L 27.28125 21.429688 L 27.394531 21.535156 C 27.394531 21.535156 27.621094 21.4375 27.585938 21.246094 "/>
<path style=" stroke:none;fill-rule:nonzero;fill:rgb(12.849426%,8.666992%,7.872009%);fill-opacity:1;" d="M 27.648438 22.417969 C 27.605469 22.191406 27.441406 22.09375 27.441406 21.894531 C 27.441406 21.695312 27.609375 21.582031 27.609375 21.582031 C 27.609375 21.582031 27.449219 21.609375 27.386719 21.703125 C 27.382812 21.601562 27.292969 21.539062 27.28125 21.53125 C 27.269531 21.539062 27.179688 21.601562 27.175781 21.703125 C 27.113281 21.609375 26.953125 21.582031 26.953125 21.582031 C 26.953125 21.582031 27.121094 21.695312 27.121094 21.894531 C 27.121094 22.09375 26.960938 22.191406 26.914062 22.417969 C 26.867188 22.648438 27.148438 22.769531 27.148438 22.769531 L 27.28125 22.636719 L 27.414062 22.769531 C 27.414062 22.769531 27.695312 22.648438 27.648438 22.417969 "/>
<path style=" stroke:none;fill-rule:nonzero;fill:rgb(12.849426%,8.666992%,7.872009%);fill-opacity:1;" d="M 23.65625 20.152344 C 23.617188 20.152344 23.492188 20.507812 23.585938 20.917969 C 23.683594 21.328125 23.914062 21.515625 23.914062 21.515625 C 23.914062 21.515625 24.222656 21.679688 24.316406 21.8125 C 24.292969 22.109375 24.226562 23.171875 24.226562 23.171875 C 24.226562 23.171875 24.527344 23.300781 24.910156 23.183594 C 24.863281 22.648438 24.777344 21.847656 24.777344 21.847656 C 24.777344 21.847656 24.800781 21.523438 24.734375 21.390625 C 24.667969 21.261719 24.515625 21.175781 24.515625 21.175781 C 24.515625 21.175781 24.195312 20.75 24.035156 20.722656 C 23.996094 20.742188 24.023438 20.871094 24.152344 21.058594 C 24.28125 21.25 24.253906 21.339844 24.253906 21.339844 C 24.253906 21.339844 24.058594 21.136719 23.882812 21.121094 C 23.8125 20.929688 23.722656 20.789062 23.722656 20.789062 C 23.722656 20.789062 23.722656 20.449219 23.707031 20.410156 C 23.71875 20.320312 23.714844 20.15625 23.65625 20.152344 "/>
<path style=" stroke:none;fill-rule:nonzero;fill:rgb(12.849426%,8.666992%,7.872009%);fill-opacity:1;" d="M 23.867188 20.183594 C 23.808594 20.164062 23.730469 20.375 23.773438 20.6875 C 23.800781 20.804688 23.914062 21.050781 23.914062 21.050781 C 23.914062 21.050781 24.039062 21.054688 24.164062 21.195312 C 24.066406 21.027344 23.90625 20.734375 23.90625 20.734375 L 23.890625 20.398438 C 23.890625 20.398438 23.929688 20.203125 23.867188 20.183594 "/>
<path style=" stroke:none;fill-rule:nonzero;fill:rgb(12.849426%,8.666992%,7.872009%);fill-opacity:1;" d="M 24.015625 20.300781 C 23.972656 20.296875 23.925781 20.402344 23.957031 20.6875 C 23.984375 20.667969 24.046875 20.664062 24.046875 20.664062 L 24.050781 20.402344 C 24.050781 20.402344 24.070312 20.308594 24.015625 20.300781 "/>
<path style=" stroke:none;fill-rule:nonzero;fill:rgb(12.849426%,8.666992%,7.872009%);fill-opacity:1;" d="M 24.160156 20.449219 C 24.117188 20.453125 24.113281 20.527344 24.113281 20.574219 C 24.113281 20.621094 24.109375 20.695312 24.109375 20.695312 L 24.191406 20.757812 L 24.191406 20.539062 C 24.191406 20.539062 24.191406 20.445312 24.160156 20.449219 "/>
<path style=" stroke:none;fill-rule:nonzero;fill:rgb(12.849426%,8.666992%,7.872009%);fill-opacity:1;" d="M 24.589844 23.40625 C 24.34375 23.40625 24.175781 23.339844 24.167969 23.335938 C 24.148438 23.328125 24.136719 23.300781 24.148438 23.28125 C 24.15625 23.257812 24.179688 23.246094 24.203125 23.257812 C 24.203125 23.257812 24.359375 23.320312 24.589844 23.320312 C 24.8125 23.320312 24.925781 23.257812 24.925781 23.257812 C 24.945312 23.246094 24.972656 23.253906 24.984375 23.273438 C 24.996094 23.292969 24.988281 23.320312 24.96875 23.332031 C 24.964844 23.335938 24.835938 23.40625 24.589844 23.40625 "/>
<path style=" stroke:none;fill-rule:nonzero;fill:rgb(12.849426%,8.666992%,7.872009%);fill-opacity:1;" d="M 24.589844 23.5625 C 24.308594 23.5625 24.117188 23.496094 24.109375 23.492188 C 24.089844 23.484375 24.078125 23.460938 24.085938 23.4375 C 24.09375 23.417969 24.117188 23.40625 24.140625 23.414062 C 24.140625 23.414062 24.324219 23.476562 24.589844 23.476562 C 24.855469 23.476562 24.988281 23.414062 24.988281 23.414062 C 25.011719 23.402344 25.039062 23.410156 25.046875 23.433594 C 25.058594 23.453125 25.050781 23.480469 25.027344 23.488281 C 25.023438 23.492188 24.878906 23.5625 24.589844 23.5625 "/>
<path style=" stroke:none;fill-rule:nonzero;fill:rgb(12.849426%,8.666992%,7.872009%);fill-opacity:1;" d="M 24.59375 23.742188 C 24.28125 23.742188 24.074219 23.675781 24.066406 23.671875 C 24.042969 23.664062 24.03125 23.640625 24.035156 23.617188 C 24.042969 23.597656 24.070312 23.582031 24.089844 23.589844 C 24.09375 23.59375 24.296875 23.65625 24.59375 23.65625 C 24.886719 23.65625 25.035156 23.589844 25.039062 23.589844 C 25.058594 23.582031 25.085938 23.589844 25.09375 23.613281 C 25.105469 23.632812 25.09375 23.660156 25.074219 23.667969 C 25.066406 23.671875 24.90625 23.742188 24.59375 23.742188 "/>
<path style=" stroke:none;fill-rule:nonzero;fill:rgb(12.849426%,8.666992%,7.872009%);fill-opacity:1;" d="M 30.90625 20.152344 C 30.945312 20.152344 31.070312 20.507812 30.976562 20.917969 C 30.878906 21.328125 30.648438 21.515625 30.648438 21.515625 C 30.648438 21.515625 30.339844 21.679688 30.246094 21.8125 C 30.269531 22.109375 30.335938 23.171875 30.335938 23.171875 C 30.335938 23.171875 30.035156 23.300781 29.65625 23.183594 C 29.699219 22.648438 29.785156 21.847656 29.785156 21.847656 C 29.785156 21.847656 29.761719 21.523438 29.828125 21.390625 C 29.894531 21.261719 30.046875 21.175781 30.046875 21.175781 C 30.046875 21.175781 30.367188 20.75 30.527344 20.722656 C 30.566406 20.742188 30.539062 20.871094 30.410156 21.058594 C 30.28125 21.25 30.308594 21.339844 30.308594 21.339844 C 30.308594 21.339844 30.503906 21.136719 30.679688 21.121094 C 30.75 20.929688 30.839844 20.789062 30.839844 20.789062 C 30.839844 20.789062 30.839844 20.449219 30.851562 20.410156 C 30.84375 20.320312 30.847656 20.15625 30.90625 20.152344 "/>
<path style=" stroke:none;fill-rule:nonzero;fill:rgb(12.849426%,8.666992%,7.872009%);fill-opacity:1;" d="M 30.695312 20.183594 C 30.757812 20.164062 30.832031 20.375 30.785156 20.6875 C 30.761719 20.804688 30.648438 21.050781 30.648438 21.050781 C 30.648438 21.050781 30.523438 21.054688 30.402344 21.195312 C 30.496094 21.027344 30.65625 20.734375 30.65625 20.734375 L 30.671875 20.398438 C 30.671875 20.398438 30.632812 20.203125 30.695312 20.183594 "/>
<path style=" stroke:none;fill-rule:nonzero;fill:rgb(12.849426%,8.666992%,7.872009%);fill-opacity:1;" d="M 30.546875 20.300781 C 30.589844 20.296875 30.636719 20.402344 30.605469 20.6875 C 30.578125 20.667969 30.515625 20.664062 30.515625 20.664062 L 30.511719 20.402344 C 30.511719 20.402344 30.492188 20.308594 30.546875 20.300781 "/>
<path style=" stroke:none;fill-rule:nonzero;fill:rgb(12.849426%,8.666992%,7.872009%);fill-opacity:1;" d="M 30.402344 20.449219 C 30.445312 20.453125 30.449219 20.527344 30.449219 20.574219 C 30.449219 20.621094 30.453125 20.695312 30.453125 20.695312 L 30.371094 20.757812 L 30.371094 20.539062 C 30.371094 20.539062 30.371094 20.445312 30.402344 20.449219 "/>
<path style=" stroke:none;fill-rule:nonzero;fill:rgb(12.849426%,8.666992%,7.872009%);fill-opacity:1;" d="M 29.972656 23.40625 C 30.21875 23.40625 30.386719 23.339844 30.394531 23.335938 C 30.414062 23.328125 30.425781 23.300781 30.414062 23.28125 C 30.40625 23.257812 30.382812 23.246094 30.359375 23.257812 C 30.359375 23.257812 30.203125 23.320312 29.972656 23.320312 C 29.75 23.320312 29.636719 23.257812 29.636719 23.257812 C 29.613281 23.246094 29.589844 23.253906 29.578125 23.273438 C 29.566406 23.292969 29.574219 23.320312 29.59375 23.332031 C 29.597656 23.335938 29.726562 23.40625 29.972656 23.40625 "/>
<path style=" stroke:none;fill-rule:nonzero;fill:rgb(12.849426%,8.666992%,7.872009%);fill-opacity:1;" d="M 29.972656 23.5625 C 30.253906 23.5625 30.445312 23.496094 30.453125 23.492188 C 30.472656 23.484375 30.484375 23.460938 30.476562 23.4375 C 30.46875 23.417969 30.445312 23.40625 30.421875 23.414062 C 30.421875 23.414062 30.238281 23.476562 29.972656 23.476562 C 29.707031 23.476562 29.574219 23.414062 29.574219 23.414062 C 29.550781 23.402344 29.527344 23.410156 29.515625 23.433594 C 29.503906 23.453125 29.511719 23.480469 29.535156 23.488281 C 29.539062 23.492188 29.683594 23.5625 29.972656 23.5625 "/>
<path style=" stroke:none;fill-rule:nonzero;fill:rgb(12.849426%,8.666992%,7.872009%);fill-opacity:1;" d="M 29.96875 23.742188 C 30.28125 23.742188 30.488281 23.675781 30.496094 23.671875 C 30.519531 23.664062 30.53125 23.640625 30.527344 23.617188 C 30.519531 23.597656 30.492188 23.582031 30.472656 23.589844 C 30.46875 23.59375 30.265625 23.65625 29.96875 23.65625 C 29.675781 23.65625 29.527344 23.589844 29.523438 23.589844 C 29.503906 23.582031 29.476562 23.589844 29.46875 23.613281 C 29.457031 23.632812 29.46875 23.660156 29.488281 23.667969 C 29.496094 23.671875 29.65625 23.742188 29.96875 23.742188 "/>
<path style=" stroke:none;fill-rule:nonzero;fill:rgb(12.849426%,8.666992%,7.872009%);fill-opacity:1;" d="M 28.878906 20.253906 C 29.058594 20.550781 29.164062 20.898438 29.164062 21.273438 C 29.164062 22.246094 28.464844 23.050781 27.554688 23.195312 C 27.601562 22.945312 27.824219 22.804688 27.824219 22.804688 C 27.824219 22.804688 27.558594 22.847656 27.453125 22.992188 C 27.449219 22.839844 27.300781 22.738281 27.28125 22.726562 C 27.265625 22.738281 27.117188 22.839844 27.109375 22.992188 C 27.003906 22.847656 26.738281 22.804688 26.738281 22.804688 C 26.738281 22.804688 26.964844 22.945312 27.007812 23.195312 C 26.085938 23.066406 25.371094 22.257812 25.371094 21.273438 C 25.371094 20.898438 25.476562 20.550781 25.65625 20.253906 C 25.238281 20.664062 24.976562 21.234375 24.976562 21.867188 C 24.976562 23.117188 26.003906 24.136719 27.269531 24.136719 C 28.535156 24.136719 29.558594 23.117188 29.558594 21.867188 C 29.558594 21.234375 29.300781 20.664062 28.878906 20.253906 "/>
<g clip-path="url(#clip1)" clip-rule="nonzero">
<g clip-path="url(#clip2)" clip-rule="nonzero">
<path style=" stroke:none;fill-rule:nonzero;fill:url(#pattern0);" d="M 25.726562 24.558594 L 25.828125 24.558594 L 25.828125 24.511719 L 25.726562 24.511719 Z M 25.726562 24.558594 "/>
</g>
</g>
<path style=" stroke:none;fill-rule:nonzero;fill:rgb(97.084045%,92.507935%,3.053284%);fill-opacity:1;" d="M 26.613281 24.585938 C 26.613281 24.585938 26.617188 24.589844 26.621094 24.597656 C 26.628906 24.570312 26.621094 24.542969 26.617188 24.542969 C 26.585938 24.636719 26.535156 24.609375 26.511719 24.59375 C 26.5 24.605469 26.484375 24.621094 26.46875 24.628906 C 26.484375 24.644531 26.511719 24.671875 26.542969 24.667969 C 26.566406 24.664062 26.585938 24.652344 26.597656 24.636719 C 26.59375 24.632812 26.59375 24.628906 26.59375 24.628906 L 26.613281 24.585938 "/>
<path style=" stroke:none;fill-rule:nonzero;fill:rgb(97.084045%,92.507935%,3.053284%);fill-opacity:1;" d="M 26.511719 24.59375 C 26.503906 24.589844 26.5 24.585938 26.5 24.585938 L 26.460938 24.617188 C 26.460938 24.617188 26.464844 24.621094 26.46875 24.628906 C 26.484375 24.621094 26.5 24.605469 26.511719 24.59375 "/>
<path style=" stroke:none;fill-rule:nonzero;fill:rgb(97.084045%,92.507935%,3.053284%);fill-opacity:1;" d="M 26.613281 24.585938 L 26.59375 24.628906 C 26.59375 24.628906 26.59375 24.632812 26.597656 24.636719 C 26.609375 24.625 26.617188 24.609375 26.621094 24.597656 C 26.617188 24.589844 26.613281 24.585938 26.613281 24.585938 "/>
<path style=" stroke:none;fill-rule:nonzero;fill:rgb(100%,100%,100%);fill-opacity:1;" d="M 26.148438 23.566406 L 26.199219 23.558594 L 26.1875 23.503906 L 26.136719 23.511719 L 26.148438 23.566406 "/>
<path style=" stroke:none;fill-rule:nonzero;fill:rgb(100%,100%,100%);fill-opacity:1;" d="M 26.664062 23.542969 L 26.652344 23.488281 L 26.605469 23.496094 L 26.617188 23.550781 L 26.664062 23.542969 "/>
<path style=" stroke:none;fill-rule:nonzero;fill:rgb(100%,100%,100%);fill-opacity:1;" d="M 25.46875 22.902344 C 25.515625 22.90625 25.613281 22.882812 25.605469 22.847656 C 25.597656 22.8125 25.542969 22.734375 25.574219 22.71875 C 25.609375 22.699219 25.660156 22.699219 25.65625 22.769531 C 25.652344 22.785156 25.652344 22.792969 25.652344 22.792969 C 25.652344 22.792969 25.730469 22.796875 25.71875 22.734375 C 25.710938 22.671875 25.59375 22.660156 25.566406 22.679688 C 25.535156 22.703125 25.503906 22.71875 25.511719 22.75 C 25.523438 22.78125 25.5625 22.855469 25.539062 22.867188 C 25.515625 22.882812 25.285156 22.703125 25.285156 22.460938 C 25.285156 22.460938 25.285156 22.460938 25.285156 22.464844 C 25.277344 22.484375 25.269531 22.589844 25.253906 22.601562 C 25.277344 22.664062 25.417969 22.894531 25.46875 22.902344 "/>
<path style=" stroke:none;fill-rule:nonzero;fill:rgb(100%,100%,100%);fill-opacity:1;" d="M 25.636719 22.945312 C 25.621094 22.921875 25.652344 22.867188 25.652344 22.867188 C 25.652344 22.867188 25.566406 22.917969 25.574219 22.945312 C 25.585938 22.972656 25.625 23.050781 25.707031 23.011719 C 25.695312 23.046875 25.6875 23.078125 25.707031 23.097656 C 25.714844 23.109375 25.726562 23.121094 25.738281 23.136719 C 25.734375 23.140625 25.734375 23.148438 25.730469 23.15625 C 25.714844 23.152344 25.703125 23.152344 25.6875 23.152344 C 25.703125 23.15625 25.714844 23.160156 25.726562 23.164062 C 25.703125 23.238281 25.707031 23.34375 25.78125 23.339844 C 25.84375 23.335938 25.863281 23.292969 25.867188 23.253906 C 25.882812 23.265625 25.890625 23.273438 25.890625 23.273438 C 25.890625 23.273438 25.957031 23.320312 26.023438 23.261719 C 26.085938 23.199219 26.140625 23.105469 26.140625 23.105469 L 26.207031 23.113281 C 26.207031 23.113281 26.199219 23.039062 26.21875 23.011719 C 26.183594 23.007812 26.152344 23.015625 26.152344 23.015625 L 26.132812 23.0625 C 26.132812 23.0625 25.996094 23.25 25.972656 23.25 C 25.960938 23.25 25.917969 23.21875 25.871094 23.179688 C 26.003906 23.167969 25.992188 23.042969 25.96875 23.03125 C 25.9375 23.019531 25.816406 23.074219 25.777344 23.09375 C 25.757812 23.074219 25.746094 23.054688 25.746094 23.042969 C 25.75 23.003906 25.855469 22.871094 25.855469 22.871094 L 25.792969 22.871094 C 25.792969 22.871094 25.746094 22.929688 25.714844 22.992188 C 25.695312 22.996094 25.660156 22.992188 25.636719 22.945312 M 25.921875 23.113281 C 25.9375 23.140625 25.898438 23.152344 25.839844 23.15625 C 25.824219 23.140625 25.808594 23.125 25.792969 23.113281 C 25.832031 23.097656 25.902344 23.078125 25.921875 23.113281 M 25.78125 23.175781 C 25.800781 23.195312 25.820312 23.210938 25.835938 23.226562 C 25.839844 23.257812 25.84375 23.304688 25.8125 23.300781 C 25.769531 23.277344 25.761719 23.214844 25.765625 23.171875 C 25.769531 23.175781 25.777344 23.175781 25.78125 23.175781 "/>
<path style=" stroke:none;fill-rule:nonzero;fill:rgb(100%,100%,100%);fill-opacity:1;" d="M 26.082031 23.347656 C 26.058594 23.394531 26.117188 23.457031 26.171875 23.464844 C 26.328125 23.453125 26.332031 23.304688 26.332031 23.304688 C 26.332031 23.304688 26.300781 23.3125 26.261719 23.332031 C 26.265625 23.417969 26.230469 23.417969 26.230469 23.417969 C 26.203125 23.417969 26.15625 23.375 26.144531 23.355469 C 26.128906 23.335938 26.1875 23.257812 26.234375 23.191406 C 26.28125 23.128906 26.316406 23.167969 26.316406 23.167969 L 26.378906 23.113281 C 26.238281 23.042969 26.105469 23.300781 26.082031 23.347656 "/>
<path style=" stroke:none;fill-rule:nonzero;fill:rgb(100%,100%,100%);fill-opacity:1;" d="M 26.816406 23.519531 L 26.746094 23.542969 C 26.746094 23.542969 26.753906 23.558594 26.757812 23.585938 L 26.816406 23.523438 C 26.816406 23.523438 26.816406 23.519531 26.816406 23.519531 "/>
<path style=" stroke:none;fill-rule:nonzero;fill:rgb(100%,100%,100%);fill-opacity:1;" d="M 26.347656 23.515625 L 26.390625 23.621094 C 26.390625 23.621094 26.472656 23.71875 26.59375 23.746094 L 26.65625 23.683594 C 26.5 23.660156 26.347656 23.515625 26.347656 23.515625 "/>
<path style=" stroke:none;fill-rule:nonzero;fill:rgb(97.084045%,92.507935%,3.053284%);fill-opacity:1;" d="M 25.851562 24.554688 C 25.886719 24.542969 25.945312 24.5 25.945312 24.5 L 26.03125 24.585938 C 26.03125 24.585938 26.085938 24.550781 26.101562 24.507812 C 26.121094 24.46875 26.101562 24.382812 26.058594 24.371094 C 26.015625 24.355469 25.964844 24.464844 25.90625 24.492188 C 25.886719 24.503906 25.859375 24.507812 25.828125 24.511719 L 25.78125 24.558594 C 25.808594 24.5625 25.835938 24.558594 25.851562 24.554688 M 26.03125 24.429688 C 26.054688 24.441406 26.070312 24.511719 26.054688 24.527344 C 26.039062 24.539062 25.984375 24.460938 25.984375 24.460938 C 25.984375 24.460938 26.003906 24.421875 26.03125 24.429688 "/>
<path style=" stroke:none;fill-rule:nonzero;fill:rgb(97.084045%,92.507935%,3.053284%);fill-opacity:1;" d="M 26.5 24.585938 C 26.5 24.585938 26.503906 24.589844 26.511719 24.59375 C 26.523438 24.578125 26.53125 24.5625 26.53125 24.546875 C 26.488281 24.578125 26.464844 24.605469 26.398438 24.578125 C 26.371094 24.5625 26.429688 24.273438 26.429688 24.273438 L 26.375 24.316406 L 26.292969 24.507812 C 26.292969 24.507812 26.277344 24.285156 26.175781 24.28125 L 26.167969 24.375 C 26.167969 24.375 26.253906 24.378906 26.269531 24.523438 C 26.207031 24.546875 26.109375 24.570312 26.09375 24.558594 C 26.136719 24.589844 26.226562 24.621094 26.242188 24.617188 C 26.261719 24.613281 26.363281 24.421875 26.363281 24.421875 L 26.347656 24.582031 C 26.347656 24.582031 26.34375 24.636719 26.402344 24.644531 C 26.421875 24.648438 26.449219 24.640625 26.46875 24.628906 C 26.464844 24.621094 26.460938 24.617188 26.460938 24.617188 L 26.5 24.585938 "/>
<path style=" stroke:none;fill-rule:nonzero;fill:rgb(97.084045%,92.507935%,3.053284%);fill-opacity:1;" d="M 26.890625 24.351562 L 26.84375 24.386719 L 26.863281 24.402344 C 26.863281 24.402344 26.855469 24.53125 26.84375 24.621094 C 26.796875 24.660156 26.738281 24.625 26.738281 24.625 L 26.730469 24.523438 L 26.703125 24.546875 C 26.703125 24.546875 26.699219 24.566406 26.699219 24.617188 C 26.652344 24.628906 26.632812 24.609375 26.621094 24.597656 C 26.617188 24.609375 26.609375 24.625 26.597656 24.636719 C 26.605469 24.652344 26.617188 24.671875 26.644531 24.679688 C 26.6875 24.6875 26.714844 24.632812 26.714844 24.632812 C 26.714844 24.632812 26.703125 24.699219 26.792969 24.691406 C 26.882812 24.679688 26.890625 24.570312 26.890625 24.570312 L 26.898438 24.433594 C 26.898438 24.433594 26.929688 24.425781 26.9375 24.410156 C 26.890625 24.398438 26.890625 24.351562 26.890625 24.351562 "/>
<path style=" stroke:none;fill-rule:nonzero;fill:rgb(97.084045%,92.507935%,3.053284%);fill-opacity:1;" d="M 26.972656 24.398438 C 26.972656 24.398438 26.984375 24.675781 26.960938 24.703125 C 26.996094 24.679688 27.023438 24.640625 27.019531 24.59375 C 27.019531 24.546875 27.015625 24.347656 27.015625 24.347656 L 26.972656 24.398438 "/>
<path style=" stroke:none;fill-rule:nonzero;fill:rgb(97.084045%,92.507935%,3.053284%);fill-opacity:1;" d="M 27.207031 24.5625 C 27.207031 24.5625 27.285156 24.644531 27.285156 24.652344 C 27.28125 24.664062 27.238281 24.742188 27.140625 24.726562 C 27.167969 24.757812 27.214844 24.796875 27.234375 24.792969 C 27.253906 24.789062 27.296875 24.714844 27.304688 24.679688 C 27.3125 24.644531 27.296875 24.574219 27.257812 24.511719 L 27.207031 24.5625 "/>
<path style=" stroke:none;fill-rule:nonzero;fill:rgb(97.084045%,92.507935%,3.053284%);fill-opacity:1;" d="M 27.324219 24.386719 L 27.34375 24.710938 L 27.390625 24.640625 L 27.371094 24.339844 L 27.324219 24.386719 "/>
<path style=" stroke:none;fill-rule:nonzero;fill:rgb(97.084045%,92.507935%,3.053284%);fill-opacity:1;" d="M 27.496094 24.433594 L 27.492188 24.515625 C 27.492188 24.515625 27.554688 24.546875 27.566406 24.589844 C 27.574219 24.628906 27.464844 24.628906 27.4375 24.574219 C 27.425781 24.613281 27.410156 24.65625 27.476562 24.683594 C 27.539062 24.707031 27.585938 24.65625 27.59375 24.605469 C 27.601562 24.554688 27.589844 24.496094 27.496094 24.433594 "/>
<path style=" stroke:none;fill-rule:nonzero;fill:rgb(97.084045%,92.507935%,3.053284%);fill-opacity:1;" d="M 28.132812 24.507812 C 28.132812 24.507812 28.171875 24.421875 28.105469 24.371094 C 28.078125 24.390625 28.058594 24.417969 28.058594 24.417969 C 28.058594 24.417969 28.113281 24.441406 28.097656 24.496094 L 28.058594 24.496094 L 28.058594 24.5625 C 28.058594 24.5625 28.136719 24.53125 28.148438 24.554688 C 28.15625 24.578125 27.960938 24.667969 27.707031 24.621094 L 27.808594 24.699219 C 27.808594 24.699219 27.914062 24.714844 28.046875 24.667969 C 28.183594 24.621094 28.214844 24.527344 28.132812 24.507812 "/>
<path style=" stroke:none;fill-rule:nonzero;fill:rgb(97.084045%,92.507935%,3.053284%);fill-opacity:1;" d="M 28.265625 24.351562 C 28.214844 24.355469 28.175781 24.445312 28.203125 24.496094 C 28.230469 24.542969 28.292969 24.570312 28.328125 24.484375 C 28.351562 24.472656 28.371094 24.585938 28.222656 24.597656 C 28.230469 24.621094 28.257812 24.652344 28.308594 24.640625 C 28.359375 24.628906 28.398438 24.542969 28.351562 24.445312 C 28.308594 24.347656 28.265625 24.351562 28.265625 24.351562 M 28.265625 24.410156 C 28.285156 24.410156 28.3125 24.441406 28.3125 24.441406 C 28.179688 24.515625 28.246094 24.410156 28.265625 24.410156 "/>
<path style=" stroke:none;fill-rule:nonzero;fill:rgb(97.084045%,92.507935%,3.053284%);fill-opacity:1;" d="M 28.597656 24.246094 C 28.5625 24.265625 28.566406 24.289062 28.566406 24.289062 C 28.566406 24.289062 28.617188 24.335938 28.613281 24.367188 C 28.609375 24.398438 28.511719 24.425781 28.453125 24.328125 L 28.449219 24.378906 C 28.449219 24.378906 28.46875 24.417969 28.503906 24.441406 C 28.503906 24.480469 28.492188 24.566406 28.390625 24.535156 C 28.398438 24.550781 28.445312 24.589844 28.472656 24.59375 C 28.503906 24.59375 28.535156 24.542969 28.527344 24.449219 C 28.542969 24.457031 28.558594 24.457031 28.578125 24.453125 C 28.660156 24.433594 28.65625 24.300781 28.597656 24.246094 "/>
<path style=" stroke:none;fill-rule:nonzero;fill:rgb(97.084045%,92.507935%,3.053284%);fill-opacity:1;" d="M 28.140625 24.683594 L 28.113281 24.664062 L 28.082031 24.707031 L 28.121094 24.738281 L 28.148438 24.703125 L 28.136719 24.691406 L 28.140625 24.683594 "/>
<path style=" stroke:none;fill-rule:nonzero;fill:rgb(97.084045%,92.507935%,3.053284%);fill-opacity:1;" d="M 28.140625 24.683594 L 28.15625 24.695312 L 28.148438 24.703125 L 28.175781 24.722656 L 28.207031 24.679688 L 28.167969 24.648438 L 28.140625 24.683594 "/>
<path style=" stroke:none;fill-rule:nonzero;fill:rgb(97.084045%,92.507935%,3.053284%);fill-opacity:1;" d="M 28.140625 24.683594 L 28.136719 24.691406 L 28.148438 24.703125 L 28.15625 24.695312 L 28.140625 24.683594 "/>
<path style=" stroke:none;fill-rule:nonzero;fill:rgb(97.084045%,92.507935%,3.053284%);fill-opacity:1;" d="M 28.617188 24.519531 L 28.667969 24.535156 L 28.683594 24.488281 L 28.632812 24.472656 L 28.617188 24.519531 "/>
<path style=" stroke:none;fill-rule:nonzero;fill:rgb(97.084045%,92.507935%,3.053284%);fill-opacity:1;" d="M 28.023438 24.335938 L 28.070312 24.359375 L 28.097656 24.316406 L 28.054688 24.289062 L 28.023438 24.335938 "/>
<path style=" stroke:none;fill-rule:nonzero;fill:rgb(97.084045%,92.507935%,3.053284%);fill-opacity:1;" d="M 27.164062 23.492188 L 27.132812 23.449219 L 27.089844 23.476562 L 27.125 23.519531 L 27.164062 23.492188 "/>
<path style=" stroke:none;fill-rule:nonzero;fill:rgb(97.084045%,92.507935%,3.053284%);fill-opacity:1;" d="M 28.449219 23.308594 L 28.390625 23.300781 L 28.382812 23.351562 L 28.4375 23.359375 L 28.449219 23.308594 "/>
<path style=" stroke:none;fill-rule:nonzero;fill:rgb(97.084045%,92.507935%,3.053284%);fill-opacity:1;" d="M 26.675781 23.75 C 26.832031 23.738281 26.820312 23.542969 26.816406 23.523438 L 26.757812 23.585938 C 26.761719 23.617188 26.769531 23.660156 26.761719 23.679688 C 26.726562 23.691406 26.691406 23.691406 26.65625 23.683594 L 26.59375 23.746094 C 26.621094 23.75 26.648438 23.753906 26.675781 23.75 "/>
<path style=" stroke:none;fill-rule:nonzero;fill:rgb(97.084045%,92.507935%,3.053284%);fill-opacity:1;" d="M 27.484375 23.707031 C 27.484375 23.707031 27.492188 23.765625 27.558594 23.757812 C 27.621094 23.75 27.710938 23.6875 27.789062 23.601562 L 27.808594 23.597656 C 27.808594 23.597656 27.820312 23.699219 27.875 23.699219 C 27.929688 23.699219 27.953125 23.660156 28.023438 23.667969 C 28.058594 23.628906 28.058594 23.589844 28.058594 23.589844 C 28.058594 23.589844 27.960938 23.585938 27.949219 23.507812 C 27.941406 23.429688 27.929688 23.347656 27.929688 23.347656 L 27.957031 23.355469 C 27.957031 23.355469 27.953125 23.328125 27.964844 23.320312 C 27.929688 23.3125 27.910156 23.273438 27.902344 23.253906 C 27.863281 23.292969 27.84375 23.320312 27.84375 23.320312 L 27.886719 23.339844 C 27.886719 23.339844 27.90625 23.546875 27.929688 23.5625 C 27.957031 23.582031 27.996094 23.609375 27.996094 23.609375 C 27.996094 23.609375 27.976562 23.632812 27.953125 23.628906 C 27.929688 23.621094 27.84375 23.667969 27.820312 23.601562 C 27.851562 23.601562 27.875 23.574219 27.875 23.574219 L 27.871094 23.535156 C 27.871094 23.535156 27.792969 23.566406 27.730469 23.53125 C 27.671875 23.5 27.648438 23.488281 27.617188 23.527344 C 27.589844 23.566406 27.582031 23.574219 27.601562 23.601562 C 27.613281 23.566406 27.648438 23.554688 27.679688 23.566406 C 27.714844 23.582031 27.761719 23.59375 27.761719 23.59375 C 27.761719 23.59375 27.660156 23.664062 27.617188 23.683594 C 27.570312 23.703125 27.476562 23.710938 27.503906 23.59375 C 27.484375 23.605469 27.464844 23.613281 27.464844 23.613281 C 27.464844 23.613281 27.484375 23.703125 27.425781 23.707031 C 27.367188 23.714844 27.367188 23.683594 27.367188 23.683594 C 27.371094 23.664062 27.371094 23.644531 27.371094 23.617188 C 27.371094 23.699219 27.34375 23.707031 27.304688 23.707031 C 27.28125 23.707031 27.265625 23.699219 27.257812 23.691406 C 27.273438 23.660156 27.277344 23.628906 27.277344 23.628906 C 27.277344 23.628906 27.238281 23.703125 27.179688 23.699219 C 27.140625 23.695312 27.117188 23.679688 27.105469 23.664062 C 27.121094 23.625 27.121094 23.589844 27.121094 23.589844 C 27.121094 23.589844 27.089844 23.6875 26.996094 23.6875 C 26.996094 23.675781 26.996094 23.667969 26.996094 23.660156 C 26.996094 23.527344 26.949219 23.539062 26.949219 23.539062 C 26.902344 23.53125 26.835938 23.597656 26.835938 23.640625 C 26.835938 23.683594 26.855469 23.738281 26.957031 23.746094 C 26.953125 23.75 26.953125 23.757812 26.949219 23.765625 C 26.886719 23.804688 26.796875 23.746094 26.796875 23.746094 C 26.796875 23.746094 26.820312 23.835938 26.871094 23.847656 C 26.914062 23.855469 26.964844 23.820312 26.984375 23.746094 C 26.988281 23.746094 26.992188 23.746094 26.992188 23.746094 C 27.035156 23.746094 27.0625 23.730469 27.082031 23.707031 C 27.085938 23.734375 27.105469 23.765625 27.164062 23.765625 C 27.191406 23.765625 27.214844 23.753906 27.230469 23.738281 C 27.234375 23.753906 27.25 23.769531 27.285156 23.773438 C 27.324219 23.777344 27.34375 23.765625 27.355469 23.734375 C 27.367188 23.746094 27.386719 23.769531 27.414062 23.765625 C 27.460938 23.761719 27.484375 23.707031 27.484375 23.707031 M 26.953125 23.679688 C 26.828125 23.640625 26.878906 23.601562 26.914062 23.589844 C 26.941406 23.582031 26.96875 23.625 26.964844 23.679688 C 26.960938 23.679688 26.960938 23.679688 26.953125 23.679688 "/>
<path style=" stroke:none;fill-rule:nonzero;fill:rgb(97.084045%,92.507935%,3.053284%);fill-opacity:1;" d="M 28.09375 23.632812 C 28.09375 23.632812 28.132812 23.566406 28.121094 23.503906 C 28.109375 23.441406 28.042969 23.246094 28.054688 23.21875 C 28.054688 23.21875 28.03125 23.285156 28.007812 23.289062 C 28.03125 23.308594 28.046875 23.367188 28.058594 23.417969 C 28.066406 23.464844 28.09375 23.632812 28.09375 23.632812 "/>
<path style=" stroke:none;fill-rule:nonzero;fill:rgb(97.084045%,92.507935%,3.053284%);fill-opacity:1;" d="M 28.355469 23.582031 C 28.425781 23.550781 28.679688 23.457031 28.625 23.300781 C 28.597656 23.230469 28.507812 23.167969 28.507812 23.167969 C 28.507812 23.171875 28.5 23.25 28.5 23.25 C 28.5 23.25 28.601562 23.285156 28.601562 23.300781 C 28.605469 23.3125 28.570312 23.421875 28.367188 23.511719 C 28.296875 23.53125 28.230469 23.539062 28.230469 23.539062 C 28.230469 23.539062 28.34375 23.558594 28.355469 23.582031 "/>
<path style=" stroke:none;fill-rule:nonzero;fill:rgb(97.084045%,92.507935%,3.053284%);fill-opacity:1;" d="M 28.761719 23.183594 C 28.730469 23.210938 28.707031 23.234375 28.707031 23.234375 C 28.703125 23.234375 28.65625 23.246094 28.648438 23.214844 C 28.640625 23.1875 28.695312 23.144531 28.761719 23.183594 C 28.765625 23.179688 28.773438 23.171875 28.777344 23.167969 C 28.773438 23.164062 28.769531 23.160156 28.765625 23.15625 C 28.703125 23.109375 28.667969 23.089844 28.644531 23.105469 C 28.605469 23.132812 28.621094 23.226562 28.664062 23.273438 C 28.710938 23.320312 28.75 23.265625 28.761719 23.261719 C 28.761719 23.261719 28.777344 23.242188 28.796875 23.222656 C 28.792969 23.214844 28.789062 23.207031 28.777344 23.195312 C 28.773438 23.191406 28.765625 23.1875 28.761719 23.183594 "/>
<path style=" stroke:none;fill-rule:nonzero;fill:rgb(97.084045%,92.507935%,3.053284%);fill-opacity:1;" d="M 28.777344 23.167969 C 28.773438 23.171875 28.765625 23.179688 28.761719 23.183594 C 28.765625 23.1875 28.773438 23.191406 28.777344 23.195312 C 28.789062 23.207031 28.792969 23.214844 28.796875 23.222656 C 28.804688 23.21875 28.808594 23.210938 28.8125 23.207031 C 28.804688 23.191406 28.792969 23.179688 28.777344 23.167969 "/>
<path style=" stroke:none;fill-rule:nonzero;fill:rgb(97.084045%,92.507935%,3.053284%);fill-opacity:1;" d="M 28.914062 23.03125 C 28.914062 23.03125 28.917969 23.070312 28.875 23.0625 C 28.835938 23.054688 28.796875 23.023438 28.796875 22.996094 C 28.773438 22.988281 28.742188 23.074219 28.851562 23.101562 C 28.839844 23.109375 28.808594 23.140625 28.777344 23.167969 C 28.792969 23.179688 28.804688 23.191406 28.8125 23.207031 C 28.859375 23.15625 28.925781 23.097656 28.957031 23.109375 C 28.960938 23.074219 28.953125 23.03125 28.953125 23.03125 L 28.914062 23.03125 "/>
<path style=" stroke:none;fill-rule:nonzero;fill:rgb(97.084045%,92.507935%,3.053284%);fill-opacity:1;" d="M 28.699219 23.367188 C 28.753906 23.371094 28.816406 23.375 28.816406 23.375 C 28.816406 23.375 28.875 23.292969 28.8125 23.207031 C 28.808594 23.210938 28.800781 23.21875 28.796875 23.222656 C 28.824219 23.277344 28.742188 23.339844 28.699219 23.367188 "/>
<path style=" stroke:none;fill-rule:nonzero;fill:rgb(97.084045%,92.507935%,3.053284%);fill-opacity:1;" d="M 28.726562 22.714844 L 28.726562 22.785156 L 29 23.046875 L 28.992188 22.992188 L 28.726562 22.714844 "/>
<path style=" stroke:none;fill-rule:nonzero;fill:rgb(97.084045%,92.507935%,3.053284%);fill-opacity:1;" d="M 29.210938 22.664062 C 29.171875 22.636719 29.039062 22.523438 29.039062 22.523438 L 29.03125 22.480469 C 29.03125 22.480469 28.96875 22.496094 28.957031 22.453125 C 28.941406 22.503906 28.957031 22.542969 28.957031 22.542969 L 29 22.539062 C 29 22.539062 29.171875 22.671875 29.179688 22.683594 C 29.183594 22.699219 29.199219 22.769531 29.101562 22.765625 C 29.007812 22.765625 28.953125 22.71875 28.945312 22.703125 L 28.945312 22.765625 C 28.945312 22.765625 29 22.796875 29.066406 22.816406 C 29.066406 22.804688 29.0625 22.796875 29.0625 22.796875 C 29.070312 22.800781 29.082031 22.808594 29.089844 22.820312 C 29.113281 22.824219 29.136719 22.824219 29.15625 22.824219 C 29.246094 22.808594 29.25 22.6875 29.210938 22.664062 "/>
<path style=" stroke:none;fill-rule:nonzero;fill:rgb(97.084045%,92.507935%,3.053284%);fill-opacity:1;" d="M 29.027344 22.351562 C 29.027344 22.355469 29.03125 22.421875 29.03125 22.421875 L 29.308594 22.625 L 29.304688 22.582031 L 29.027344 22.351562 "/>
<path style=" stroke:none;fill-rule:nonzero;fill:rgb(97.084045%,92.507935%,3.053284%);fill-opacity:1;" d="M 28.964844 22.890625 C 28.996094 22.929688 29.046875 22.972656 29.089844 22.9375 C 29.128906 22.902344 29.109375 22.851562 29.089844 22.820312 C 29.082031 22.820312 29.074219 22.816406 29.066406 22.816406 C 29.070312 22.847656 29.0625 22.910156 28.964844 22.890625 "/>
<path style=" stroke:none;fill-rule:nonzero;fill:rgb(97.084045%,92.507935%,3.053284%);fill-opacity:1;" d="M 29.0625 22.796875 C 29.0625 22.796875 29.066406 22.804688 29.066406 22.816406 C 29.074219 22.816406 29.082031 22.820312 29.089844 22.820312 C 29.082031 22.808594 29.070312 22.800781 29.0625 22.796875 "/>
<path style=" stroke:none;fill-rule:nonzero;fill:rgb(97.084045%,92.507935%,3.053284%);fill-opacity:1;" d="M 28.695312 22.957031 C 28.6875 22.972656 28.695312 22.988281 28.703125 23.003906 C 28.707031 22.972656 28.75 22.914062 28.75 22.914062 C 28.75 22.914062 28.757812 22.910156 28.730469 22.90625 C 28.71875 22.949219 28.703125 22.953125 28.683594 22.929688 C 28.664062 22.90625 28.699219 22.90625 28.699219 22.90625 L 28.714844 22.878906 C 28.691406 22.871094 28.660156 22.867188 28.652344 22.910156 C 28.644531 22.953125 28.695312 22.957031 28.695312 22.957031 "/>
</g>
</svg>
