<?xml version="1.0" encoding="UTF-8"?>
<svg xmlns="http://www.w3.org/2000/svg" xmlns:xlink="http://www.w3.org/1999/xlink" width="56pt" height="56pt" viewBox="0 0 56 56" version="1.1">
<g id="surface1">
<rect x="0" y="0" width="56" height="56" style="fill:rgb(13.88855%,21.250916%,41.830444%);fill-opacity:1;stroke:none;"/>
<path style=" stroke:none;fill-rule:nonzero;fill:rgb(100%,100%,100%);fill-opacity:1;" d="M 22.652344 32.335938 C 21.742188 30.882812 21.027344 29.792969 20.371094 28.667969 C 20.046875 28.113281 20.164062 27.542969 20.488281 26.980469 C 21.308594 25.546875 22.058594 24.078125 22.890625 22.65625 C 23.292969 21.96875 23.390625 21.378906 22.949219 20.65625 C 22.367188 19.699219 21.90625 18.667969 21.371094 17.683594 C 21.191406 17.355469 20.933594 17.074219 20.605469 16.625 C 19.59375 17.617188 19.195312 18.828125 18.523438 19.84375 C 17.832031 20.882812 17.207031 21.96875 16.554688 23.035156 C 15.300781 23.085938 14.050781 23.148438 12.800781 23.179688 C 12.207031 23.199219 11.601562 23.199219 11.015625 23.121094 C 10.859375 23.097656 10.6875 22.761719 10.640625 22.542969 C 10.613281 22.410156 10.820312 22.09375 10.914062 22.09375 C 12.378906 22.148438 12.683594 20.933594 13.199219 19.996094 C 15.140625 16.46875 17.046875 12.925781 18.972656 9.394531 C 19.195312 8.988281 19.460938 8.609375 19.710938 8.21875 C 20.519531 6.960938 20.722656 6.972656 21.484375 8.34375 C 22.917969 10.941406 24.347656 13.542969 25.789062 16.140625 C 25.84375 16.242188 25.972656 16.300781 26.195312 16.484375 C 26.40625 16.167969 26.628906 15.882812 26.800781 15.566406 C 28.429688 12.621094 30.082031 9.691406 31.652344 6.714844 C 32.050781 5.960938 32.496094 5.644531 33.34375 5.683594 C 34.535156 5.742188 35.730469 5.695312 36.925781 5.703125 C 37.253906 5.707031 37.589844 5.714844 37.902344 5.796875 C 38.066406 5.84375 38.320312 6.074219 38.300781 6.183594 C 38.265625 6.398438 38.058594 6.765625 37.9375 6.757812 C 36.671875 6.691406 36.339844 7.652344 35.875 8.507812 C 32.65625 14.417969 29.425781 20.320312 26.203125 26.226562 C 25.410156 27.671875 24.636719 29.128906 23.828125 30.566406 C 23.542969 31.070312 23.1875 31.535156 22.652344 32.335938 "/>
<path style=" stroke:none;fill-rule:nonzero;fill:rgb(100%,100%,100%);fill-opacity:1;" d="M 45.363281 18.6875 C 44.980469 18.945312 44.773438 19.199219 44.558594 19.207031 C 43.59375 19.230469 43.230469 19.882812 42.839844 20.613281 C 40.859375 24.339844 38.855469 28.050781 36.839844 31.753906 C 34.691406 35.6875 32.519531 39.609375 30.359375 43.53125 C 30.265625 43.707031 30.191406 43.898438 30.070312 44.050781 C 29.757812 44.429688 29.3125 44.472656 29.070312 44.089844 C 28.371094 42.972656 27.6875 41.835938 27.152344 40.636719 C 26.980469 40.257812 27.179688 39.609375 27.398438 39.175781 C 28.207031 37.59375 29.082031 36.039062 29.949219 34.488281 C 31.59375 31.558594 33.265625 28.644531 34.910156 25.710938 C 36.199219 23.414062 37.472656 21.105469 38.742188 18.800781 C 38.972656 18.382812 39.183594 18.035156 39.769531 18.050781 C 41.292969 18.089844 42.820312 18.039062 44.34375 18.09375 C 44.644531 18.105469 44.9375 18.429688 45.363281 18.6875 "/>
<path style=" stroke:none;fill-rule:nonzero;fill:rgb(100%,100%,100%);fill-opacity:1;" d="M 13.785156 24.007812 C 15.957031 23.472656 16.921875 24.621094 17.859375 26.429688 C 20.328125 31.171875 23.027344 35.792969 25.632812 40.460938 C 26.46875 41.960938 27.261719 43.484375 28.167969 44.941406 C 28.644531 45.710938 28.71875 46.429688 28.332031 47.179688 C 27.847656 48.117188 27.3125 49.03125 26.742188 49.917969 C 26.378906 50.492188 25.882812 50.441406 25.503906 49.816406 C 25.027344 49.027344 24.59375 48.210938 24.152344 47.398438 C 21.316406 42.175781 18.484375 36.949219 15.65625 31.722656 C 14.742188 30.039062 13.878906 28.332031 12.910156 26.679688 C 12.507812 25.988281 12.164062 25.085938 11.050781 25.1875 C 10.933594 25.199219 10.664062 24.9375 10.683594 24.847656 C 10.730469 24.617188 10.878906 24.242188 11.027344 24.222656 C 11.941406 24.105469 12.867188 24.070312 13.785156 24.007812 "/>
<path style=" stroke:none;fill-rule:nonzero;fill:rgb(100%,100%,100%);fill-opacity:1;" d="M 38.753906 12.03125 C 39.546875 12.03125 40.34375 12.003906 41.136719 12.050781 C 41.324219 12.0625 41.546875 12.300781 41.644531 12.492188 C 41.695312 12.585938 41.503906 12.933594 41.390625 12.949219 C 39.546875 13.226562 39.226562 14.917969 38.539062 16.152344 C 35.613281 21.386719 32.796875 26.683594 29.941406 31.957031 C 29.09375 33.519531 28.230469 35.074219 27.371094 36.636719 C 27.246094 36.863281 27.136719 37.109375 26.984375 37.320312 C 26.34375 38.214844 25.96875 38.234375 25.347656 37.34375 C 24.824219 36.585938 24.320312 35.800781 23.921875 34.976562 C 23.597656 34.296875 23.707031 33.597656 24.101562 32.902344 C 25.292969 30.773438 26.40625 28.605469 27.585938 26.46875 C 29.242188 23.472656 30.929688 20.492188 32.597656 17.5 C 33.46875 15.949219 34.375 14.414062 35.164062 12.820312 C 35.492188 12.15625 35.90625 11.976562 36.566406 12.007812 C 37.292969 12.039062 38.023438 12.015625 38.753906 12.015625 C 38.753906 12.019531 38.753906 12.023438 38.753906 12.03125 "/>
</g>
</svg>
