<?xml version="1.0" encoding="UTF-8"?>
<svg xmlns="http://www.w3.org/2000/svg" xmlns:xlink="http://www.w3.org/1999/xlink" width="56pt" height="56pt" viewBox="0 0 56 56" version="1.1">
<g id="surface1">
<rect x="0" y="0" width="56" height="56" style="fill:rgb(76.290894%,87.345886%,9.451294%);fill-opacity:1;stroke:none;"/>
<path style=" stroke:none;fill-rule:evenodd;fill:rgb(13.195801%,14.642334%,33.752441%);fill-opacity:1;" d="M 10.886719 22 L 12.902344 22 C 12.890625 22.433594 12.890625 22.863281 12.890625 23.296875 C 12.894531 23.535156 12.894531 23.769531 12.890625 24.007812 L 12.457031 24.007812 C 11.929688 24.007812 11.40625 24.007812 10.882812 24.003906 C 10.882812 23.617188 10.882812 23.234375 10.886719 22.847656 C 10.886719 22.566406 10.886719 22.28125 10.886719 22 Z M 19.457031 22 L 23.601562 22 C 24.558594 22.0625 25.585938 22.214844 26.355469 22.835938 C 26.847656 23.242188 27.144531 23.859375 27.171875 24.496094 C 27.234375 25.230469 27.035156 26.023438 26.488281 26.542969 C 26.070312 26.949219 25.527344 27.1875 24.988281 27.371094 C 25.523438 27.515625 26.058594 27.699219 26.503906 28.035156 C 26.832031 28.28125 27.09375 28.617188 27.242188 28.996094 C 27.460938 29.535156 27.488281 30.136719 27.390625 30.703125 C 27.253906 31.457031 26.769531 32.128906 26.117188 32.519531 C 25.246094 33.050781 24.199219 33.1875 23.195312 33.175781 C 22.363281 33.175781 21.53125 33.175781 20.699219 33.175781 L 19.453125 33.175781 C 19.449219 31.183594 19.453125 29.195312 19.453125 27.203125 L 19.453125 27.199219 C 19.453125 25.464844 19.457031 23.734375 19.457031 22 Z M 21.558594 23.652344 C 21.5625 24.339844 21.5625 25.023438 21.5625 25.710938 C 21.5625 25.992188 21.5625 26.277344 21.5625 26.558594 C 22.125 26.5625 22.683594 26.558594 23.246094 26.550781 C 23.734375 26.53125 24.253906 26.414062 24.632812 26.085938 C 25.207031 25.609375 25.277344 24.628906 24.746094 24.097656 C 24.402344 23.769531 23.90625 23.667969 23.445312 23.652344 C 23.070312 23.648438 22.695312 23.648438 22.320312 23.652344 C 22.066406 23.652344 21.8125 23.65625 21.558594 23.652344 Z M 21.5625 31.53125 C 21.722656 31.53125 21.878906 31.53125 22.035156 31.53125 C 22.421875 31.53125 22.808594 31.53125 23.191406 31.523438 C 23.757812 31.488281 24.355469 31.375 24.800781 31.003906 C 25.484375 30.402344 25.429688 29.183594 24.71875 28.628906 C 24.285156 28.300781 23.726562 28.203125 23.195312 28.183594 C 22.925781 28.179688 22.660156 28.179688 22.394531 28.183594 C 22.117188 28.183594 21.839844 28.183594 21.566406 28.179688 C 21.558594 28.816406 21.558594 29.453125 21.5625 30.089844 C 21.5625 30.570312 21.566406 31.050781 21.5625 31.53125 Z M 37.519531 22 L 35.507812 22 C 35.507812 23.242188 35.507812 24.484375 35.507812 25.726562 C 35.507812 28.210938 35.507812 30.695312 35.503906 33.175781 C 35.792969 33.175781 36.082031 33.175781 36.367188 33.175781 C 36.753906 33.175781 37.136719 33.175781 37.519531 33.175781 C 37.519531 31.058594 37.519531 28.945312 37.519531 26.828125 L 37.519531 26.789062 C 37.519531 25.195312 37.519531 23.597656 37.519531 22 Z M 39.253906 22 L 41.261719 22 C 41.261719 22.316406 41.261719 22.632812 41.261719 22.949219 C 41.261719 23.558594 41.261719 24.164062 41.265625 24.773438 C 41.421875 24.773438 41.582031 24.769531 41.738281 24.769531 C 42.085938 24.765625 42.429688 24.765625 42.777344 24.765625 C 42.777344 25.105469 42.777344 25.441406 42.777344 25.78125 L 42.777344 26.289062 C 42.523438 26.289062 42.273438 26.289062 42.019531 26.289062 C 41.769531 26.289062 41.515625 26.289062 41.261719 26.289062 C 41.265625 26.785156 41.261719 27.28125 41.261719 27.773438 C 41.261719 28.765625 41.261719 29.757812 41.265625 30.746094 C 41.269531 31.066406 41.304688 31.445312 41.585938 31.65625 C 41.949219 31.90625 42.414062 31.835938 42.828125 31.777344 L 42.839844 31.777344 C 42.84375 32.285156 42.84375 32.792969 42.839844 33.304688 C 42.734375 33.3125 42.628906 33.320312 42.519531 33.332031 C 42.453125 33.335938 42.386719 33.34375 42.320312 33.347656 L 41.480469 33.347656 C 40.867188 33.296875 40.207031 33.144531 39.78125 32.660156 C 39.335938 32.15625 39.265625 31.449219 39.253906 30.800781 C 39.25 30.089844 39.25 29.375 39.25 28.660156 C 39.253906 27.871094 39.253906 27.082031 39.246094 26.289062 C 39 26.289062 38.75 26.289062 38.503906 26.289062 C 38.335938 26.289062 38.171875 26.289062 38.003906 26.289062 C 38.003906 26.085938 38.003906 25.886719 38.003906 25.683594 C 38.003906 25.382812 38.003906 25.078125 38.003906 24.777344 C 38.222656 24.761719 38.445312 24.765625 38.667969 24.765625 C 38.863281 24.769531 39.054688 24.769531 39.25 24.761719 C 39.253906 24.238281 39.253906 23.714844 39.25 23.191406 L 39.25 23.183594 C 39.25 22.789062 39.25 22.394531 39.253906 22 Z M 45.554688 22 L 43.558594 22 L 43.558594 22.464844 C 43.554688 22.976562 43.554688 23.492188 43.554688 24.003906 C 44.222656 24.007812 44.890625 24.007812 45.554688 24.003906 C 45.554688 23.503906 45.554688 23.003906 45.554688 22.503906 Z M 3.519531 25.460938 C 4.628906 24.785156 5.957031 24.515625 7.246094 24.601562 C 7.980469 24.640625 8.761719 24.816406 9.289062 25.355469 C 9.800781 25.882812 9.933594 26.644531 9.949219 27.351562 C 9.949219 28.460938 9.949219 29.570312 9.949219 30.679688 C 9.949219 31.511719 9.949219 32.34375 9.949219 33.175781 C 9.410156 33.175781 8.867188 33.175781 8.328125 33.175781 C 8.292969 33.03125 8.253906 32.886719 8.21875 32.738281 C 8.179688 32.59375 8.144531 32.445312 8.105469 32.300781 C 7.511719 32.847656 6.769531 33.261719 5.957031 33.347656 L 5.25 33.347656 C 4.605469 33.28125 3.957031 33.019531 3.53125 32.519531 C 3.226562 32.164062 3.050781 31.714844 3 31.253906 L 3 30.796875 C 3.046875 30.214844 3.3125 29.640625 3.769531 29.265625 C 4.253906 28.839844 4.867188 28.609375 5.476562 28.414062 C 6.019531 28.230469 6.566406 28.046875 7.113281 27.863281 L 7.117188 27.859375 L 7.671875 27.675781 C 7.683594 27.667969 7.699219 27.664062 7.714844 27.65625 C 7.8125 27.621094 7.933594 27.574219 7.9375 27.453125 C 7.9375 27.417969 7.941406 27.386719 7.941406 27.355469 C 7.957031 27.042969 7.976562 26.691406 7.75 26.449219 C 7.441406 26.128906 6.96875 26.09375 6.550781 26.082031 C 5.441406 26.078125 4.414062 26.601562 3.519531 27.210938 C 3.519531 26.921875 3.519531 26.628906 3.519531 26.335938 C 3.519531 26.046875 3.519531 25.753906 3.519531 25.460938 Z M 7.585938 29.082031 C 7.054688 29.265625 6.527344 29.457031 6.003906 29.65625 C 5.660156 29.796875 5.3125 30.003906 5.144531 30.351562 C 4.976562 30.738281 4.988281 31.242188 5.285156 31.566406 C 5.574219 31.859375 6.03125 31.953125 6.425781 31.867188 C 7.015625 31.742188 7.542969 31.390625 7.941406 30.953125 C 7.949219 30.589844 7.945312 30.222656 7.945312 29.859375 C 7.945312 29.542969 7.945312 29.226562 7.949219 28.914062 C 7.832031 28.980469 7.710938 29.039062 7.585938 29.082031 Z M 18.917969 24.636719 C 18.488281 24.539062 18.035156 24.585938 17.617188 24.722656 C 16.816406 24.996094 16.199219 25.628906 15.722656 26.308594 C 15.71875 25.925781 15.71875 25.542969 15.71875 25.160156 L 15.71875 24.773438 C 15.070312 24.769531 14.417969 24.769531 13.769531 24.777344 C 13.769531 27.574219 13.769531 30.371094 13.769531 33.171875 C 14.210938 33.179688 14.652344 33.179688 15.09375 33.175781 C 15.320312 33.175781 15.550781 33.175781 15.78125 33.175781 C 15.78125 32.707031 15.78125 32.238281 15.78125 31.769531 C 15.78125 30.828125 15.78125 29.886719 15.785156 28.949219 C 15.796875 28.089844 16.351562 27.300781 17.089844 26.886719 C 17.628906 26.554688 18.289062 26.4375 18.917969 26.53125 C 18.921875 25.898438 18.921875 25.269531 18.917969 24.636719 Z M 28.289062 25.464844 C 29.277344 24.855469 30.445312 24.582031 31.59375 24.585938 C 32.355469 24.59375 33.167969 24.683594 33.804688 25.136719 C 34.3125 25.492188 34.589844 26.09375 34.671875 26.691406 C 34.738281 27.144531 34.734375 27.597656 34.730469 28.054688 C 34.730469 28.234375 34.730469 28.417969 34.730469 28.597656 L 34.730469 30.140625 C 34.730469 31.152344 34.730469 32.164062 34.730469 33.175781 C 34.539062 33.175781 34.347656 33.175781 34.15625 33.175781 C 33.800781 33.175781 33.449219 33.179688 33.097656 33.171875 C 33.050781 32.996094 33.007812 32.816406 32.964844 32.636719 C 32.9375 32.523438 32.910156 32.414062 32.882812 32.300781 C 32.28125 32.84375 31.535156 33.265625 30.71875 33.347656 L 30.023438 33.347656 C 29.570312 33.300781 29.121094 33.160156 28.742188 32.902344 C 28.273438 32.59375 27.929688 32.09375 27.824219 31.539062 C 27.710938 30.957031 27.777344 30.3125 28.089844 29.796875 C 28.453125 29.199219 29.09375 28.832031 29.734375 28.59375 C 30.257812 28.40625 30.785156 28.230469 31.3125 28.054688 C 31.707031 27.921875 32.101562 27.789062 32.496094 27.65625 C 32.585938 27.621094 32.707031 27.566406 32.703125 27.453125 L 32.707031 27.40625 C 32.71875 27.164062 32.730469 26.914062 32.65625 26.683594 C 32.566406 26.417969 32.308594 26.257812 32.054688 26.175781 C 31.714844 26.074219 31.347656 26.070312 30.996094 26.097656 C 30.003906 26.1875 29.097656 26.660156 28.289062 27.214844 C 28.289062 26.628906 28.289062 26.046875 28.289062 25.464844 Z M 31.929688 29.230469 C 31.847656 29.261719 31.761719 29.292969 31.675781 29.324219 C 31.355469 29.4375 31.039062 29.550781 30.722656 29.675781 C 30.371094 29.828125 30.019531 30.0625 29.882812 30.4375 C 29.761719 30.792969 29.777344 31.222656 30.023438 31.523438 C 30.292969 31.84375 30.75 31.949219 31.148438 31.875 C 31.757812 31.769531 32.285156 31.398438 32.710938 30.960938 C 32.707031 30.347656 32.710938 29.734375 32.714844 29.121094 L 32.71875 28.914062 C 32.53125 29.023438 32.332031 29.09375 32.132812 29.160156 C 32.066406 29.183594 31.996094 29.207031 31.929688 29.230469 Z M 49.9375 24.601562 C 49.042969 24.660156 48.148438 24.976562 47.488281 25.59375 C 46.886719 26.144531 46.503906 26.902344 46.320312 27.691406 C 46.132812 28.515625 46.128906 29.375 46.304688 30.199219 C 46.496094 31.101562 46.949219 31.980469 47.683594 32.554688 C 48.296875 33.050781 49.074219 33.289062 49.847656 33.347656 L 50.710938 33.347656 C 51.4375 33.285156 52.15625 33.097656 52.808594 32.765625 C 52.820312 32.757812 52.835938 32.75 52.847656 32.742188 C 52.9375 32.695312 53.03125 32.644531 52.988281 32.503906 L 52.988281 30.898438 C 52.929688 30.9375 52.867188 30.976562 52.808594 31.015625 C 52.464844 31.238281 52.121094 31.460938 51.730469 31.589844 C 51.027344 31.832031 50.214844 31.886719 49.523438 31.574219 C 48.921875 31.300781 48.539062 30.707031 48.363281 30.09375 C 48.113281 29.21875 48.140625 28.234375 48.550781 27.414062 C 48.824219 26.855469 49.335938 26.410156 49.9375 26.253906 C 50.550781 26.097656 51.210938 26.152344 51.796875 26.390625 C 52.171875 26.539062 52.496094 26.785156 52.808594 27.03125 C 52.8125 26.613281 52.8125 26.195312 52.8125 25.777344 C 52.8125 25.585938 52.8125 25.394531 52.8125 25.207031 C 51.953125 24.695312 50.925781 24.535156 49.9375 24.601562 Z M 10.882812 24.78125 C 11.4375 24.757812 11.992188 24.765625 12.546875 24.773438 C 12.664062 24.773438 12.777344 24.777344 12.894531 24.777344 C 12.890625 26.441406 12.890625 28.105469 12.890625 29.773438 C 12.894531 30.90625 12.894531 32.042969 12.890625 33.175781 C 12.605469 33.175781 12.320312 33.175781 12.035156 33.175781 L 12.03125 33.175781 C 11.652344 33.175781 11.269531 33.175781 10.886719 33.175781 C 10.886719 31.738281 10.886719 30.300781 10.886719 28.863281 C 10.882812 27.503906 10.882812 26.140625 10.882812 24.78125 Z M 45.265625 24.773438 C 44.695312 24.765625 44.125 24.761719 43.554688 24.777344 C 43.554688 27.578125 43.558594 30.375 43.554688 33.171875 C 44.074219 33.179688 44.59375 33.179688 45.109375 33.175781 C 45.261719 33.175781 45.40625 33.175781 45.554688 33.175781 C 45.558594 31.34375 45.558594 29.507812 45.558594 27.671875 C 45.558594 26.707031 45.558594 25.742188 45.558594 24.777344 C 45.460938 24.777344 45.363281 24.777344 45.265625 24.773438 "/>
</g>
</svg>
