<?xml version="1.0" encoding="UTF-8"?>
<svg xmlns="http://www.w3.org/2000/svg" xmlns:xlink="http://www.w3.org/1999/xlink" width="56pt" height="56pt" viewBox="0 0 56 56" version="1.1">
<g id="surface1">
<rect x="0" y="0" width="56" height="56" style="fill:rgb(90.80658%,12.812805%,15.576172%);fill-opacity:1;stroke:none;"/>
<path style=" stroke:none;fill-rule:nonzero;fill:rgb(100%,100%,100%);fill-opacity:1;" d="M 21.546875 18.785156 L 20.234375 24.492188 L 19.769531 24.492188 L 19.714844 23.0625 C 19.671875 22.542969 19.574219 22.078125 19.417969 21.671875 C 19.261719 21.265625 19.027344 20.910156 18.714844 20.613281 C 18.402344 20.3125 18.011719 20.082031 17.53125 19.910156 C 17.054688 19.742188 16.527344 19.65625 15.949219 19.65625 C 14.398438 19.65625 13.042969 20.082031 11.882812 20.929688 C 10.398438 22.015625 9.238281 23.542969 8.398438 25.519531 C 7.707031 27.148438 7.359375 28.796875 7.359375 30.46875 C 7.359375 32.175781 7.855469 33.539062 8.851562 34.554688 C 9.847656 35.574219 11.144531 36.082031 12.738281 36.082031 C 13.941406 36.082031 15.015625 35.8125 15.953125 35.277344 C 16.894531 34.738281 17.765625 33.910156 18.574219 32.792969 L 19.183594 32.792969 C 18.230469 34.308594 17.171875 35.425781 16.011719 36.140625 C 14.851562 36.855469 13.460938 37.214844 11.84375 37.214844 C 10.402344 37.214844 9.128906 36.910156 8.019531 36.308594 C 6.914062 35.707031 6.066406 34.859375 5.488281 33.769531 C 4.90625 32.675781 4.617188 31.503906 4.617188 30.246094 C 4.617188 28.324219 5.132812 26.453125 6.164062 24.632812 C 7.195312 22.816406 8.609375 21.386719 10.40625 20.347656 C 12.203125 19.304688 14.015625 18.785156 15.84375 18.785156 C 16.703125 18.785156 17.664062 18.992188 18.726562 19.398438 C 19.195312 19.570312 19.535156 19.65625 19.742188 19.65625 C 19.949219 19.65625 20.132812 19.613281 20.289062 19.527344 C 20.445312 19.441406 20.703125 19.195312 21.066406 18.785156 L 21.546875 18.785156 "/>
<path style=" stroke:none;fill-rule:nonzero;fill:rgb(100%,100%,100%);fill-opacity:1;" d="M 31.710938 23.113281 L 26.601562 30.066406 L 31.035156 30.066406 Z M 34.28125 18.785156 L 32.945312 33.445312 C 32.875 34.128906 32.839844 34.578125 32.839844 34.796875 C 32.839844 35.144531 32.90625 35.40625 33.035156 35.589844 C 33.199219 35.839844 33.421875 36.027344 33.703125 36.148438 C 33.984375 36.269531 34.460938 36.328125 35.128906 36.328125 L 34.984375 36.808594 L 28.046875 36.808594 L 28.1875 36.328125 L 28.488281 36.328125 C 29.050781 36.328125 29.511719 36.207031 29.863281 35.964844 C 30.113281 35.800781 30.308594 35.527344 30.449219 35.148438 C 30.542969 34.878906 30.636719 34.246094 30.722656 33.25 L 30.929688 31.015625 L 25.890625 31.015625 L 24.09375 33.445312 C 23.6875 33.988281 23.433594 34.382812 23.328125 34.621094 C 23.222656 34.859375 23.171875 35.082031 23.171875 35.289062 C 23.171875 35.566406 23.285156 35.804688 23.511719 36.003906 C 23.734375 36.203125 24.109375 36.3125 24.628906 36.328125 L 24.484375 36.808594 L 19.273438 36.808594 L 19.417969 36.328125 C 20.058594 36.304688 20.625 36.089844 21.113281 35.683594 C 21.601562 35.28125 22.332031 34.421875 23.300781 33.105469 L 33.828125 18.785156 L 34.28125 18.785156 "/>
<path style=" stroke:none;fill-rule:nonzero;fill:rgb(100%,100%,100%);fill-opacity:1;" d="M 47.964844 23.113281 L 42.859375 30.066406 L 47.289062 30.066406 Z M 50.539062 18.785156 L 49.199219 33.445312 C 49.128906 34.128906 49.09375 34.578125 49.09375 34.796875 C 49.09375 35.144531 49.160156 35.40625 49.289062 35.589844 C 49.457031 35.839844 49.679688 36.027344 49.960938 36.148438 C 50.242188 36.269531 50.714844 36.328125 51.382812 36.328125 L 51.238281 36.808594 L 44.300781 36.808594 L 44.445312 36.328125 L 44.742188 36.328125 C 45.304688 36.328125 45.765625 36.207031 46.121094 35.964844 C 46.371094 35.800781 46.566406 35.527344 46.707031 35.148438 C 46.800781 34.878906 46.890625 34.246094 46.976562 33.25 L 47.183594 31.015625 L 42.144531 31.015625 L 40.351562 33.445312 C 39.945312 33.988281 39.6875 34.382812 39.585938 34.621094 C 39.480469 34.859375 39.429688 35.082031 39.429688 35.289062 C 39.429688 35.566406 39.539062 35.804688 39.765625 36.003906 C 39.992188 36.203125 40.363281 36.3125 40.882812 36.328125 L 40.738281 36.808594 L 35.53125 36.808594 L 35.671875 36.328125 C 36.316406 36.304688 36.878906 36.089844 37.367188 35.683594 C 37.859375 35.28125 38.589844 34.421875 39.558594 33.105469 L 50.085938 18.785156 L 50.539062 18.785156 "/>
</g>
</svg>
