<?xml version="1.0" encoding="UTF-8"?>
<svg xmlns="http://www.w3.org/2000/svg" xmlns:xlink="http://www.w3.org/1999/xlink" width="56pt" height="56pt" viewBox="0 0 56 56" version="1.1">
<g id="surface1">
<rect x="0" y="0" width="56" height="56" style="fill:rgb(95.66803%,95.779419%,96.777344%);fill-opacity:1;stroke:none;"/>
<path style=" stroke:none;fill-rule:nonzero;fill:rgb(95.266724%,79.985046%,3.388977%);fill-opacity:1;" d="M 20.742188 33.71875 C 21.710938 32.613281 22.78125 31.574219 23.632812 30.382812 C 25.324219 28.011719 24.859375 26.511719 22.097656 25.460938 C 21.230469 25.132812 20.132812 24.929688 19.273438 25.164062 C 15.355469 26.238281 11.484375 27.488281 7.59375 28.675781 C 9.511719 28.453125 11.390625 27.933594 13.300781 27.738281 C 15.609375 27.5 18.023438 27.140625 20.253906 27.554688 C 22.617188 27.996094 22.992188 29.878906 21.566406 31.851562 C 21.179688 32.378906 20.78125 32.898438 20.390625 33.421875 C 19.585938 34.636719 19.667969 34.761719 20.742188 33.71875 "/>
<path style=" stroke:none;fill-rule:nonzero;fill:rgb(43.293762%,19.366455%,60.513306%);fill-opacity:1;" d="M 30.023438 38.695312 C 30.085938 38.695312 30.144531 38.699219 30.203125 38.699219 C 30.242188 38.363281 30.285156 38.027344 30.320312 37.691406 C 30.742188 33.414062 33.652344 31.929688 37.480469 34.082031 C 38.6875 34.761719 39.761719 35.6875 40.984375 36.335938 C 42.242188 37.007812 43.609375 37.476562 44.929688 38.035156 C 41.152344 35.734375 41.15625 35.730469 37.816406 31.964844 C 37.449219 31.546875 37.078125 31.117188 36.636719 30.78125 C 34.964844 29.515625 33.023438 29.085938 31.152344 29.984375 C 29.347656 30.851562 29.570312 32.730469 29.699219 34.417969 C 29.808594 35.84375 29.914062 37.269531 30.023438 38.695312 "/>
<path style=" stroke:none;fill-rule:nonzero;fill:rgb(85.897827%,64.221191%,7.817078%);fill-opacity:1;" d="M 9.433594 26.195312 C 14.128906 25.328125 18.835938 24.507812 23.515625 23.566406 C 25.3125 23.203125 25.675781 22.21875 24.679688 20.710938 C 23.414062 18.804688 22.144531 16.886719 20.71875 15.097656 C 18.828125 12.722656 16.527344 10.882812 13.40625 10.40625 C 14.175781 10.980469 15.074219 11.359375 15.84375 11.914062 C 18.527344 13.839844 19.898438 16.433594 19.542969 19.785156 C 19.234375 22.675781 16.867188 23.460938 14.667969 24.300781 C 12.929688 24.96875 11.121094 25.449219 9.34375 26.011719 C 8.695312 26.195312 8.816406 26.285156 9.433594 26.195312 "/>
<path style=" stroke:none;fill-rule:nonzero;fill:rgb(34.765625%,76.940918%,51.850891%);fill-opacity:1;" d="M 20.554688 37.199219 C 21.078125 36.546875 21.519531 35.800781 22.140625 35.269531 C 23.53125 34.078125 24.246094 34.328125 24.722656 36.140625 C 25.164062 37.820312 25.421875 39.546875 25.914062 41.210938 C 26.832031 44.28125 28.390625 46.972656 30.933594 49.261719 C 30.230469 46.6875 29.304688 44.40625 29.035156 42.042969 C 28.683594 39.019531 28.964844 35.925781 28.742188 32.882812 C 28.679688 32.039062 27.957031 30.859375 27.238281 30.566406 C 26.492188 30.265625 25.074219 30.539062 24.496094 31.113281 C 22.804688 32.796875 21.386719 34.753906 19.859375 36.601562 C 17.800781 40.078125 18.273438 39.636719 20.554688 37.199219 "/>
<path style=" stroke:none;fill-rule:nonzero;fill:rgb(92.840576%,3.90625%,56.660461%);fill-opacity:1;" d="M 14.398438 6.738281 C 18.980469 8.382812 21.703125 11.796875 23.472656 16.136719 C 23.890625 17.164062 24.417969 18.144531 24.851562 19.167969 C 25.820312 21.441406 27.601562 22.324219 29.976562 22.34375 C 34.832031 22.394531 36.90625 20.308594 37.21875 14.996094 C 34.144531 18.785156 32.296875 19.417969 28.636719 17.074219 C 26.667969 15.8125 25.019531 13.871094 23.628906 11.949219 C 21.304688 8.734375 18.328125 6.992188 14.398438 6.738281 "/>
<path style=" stroke:none;fill-rule:nonzero;fill:rgb(31.974792%,48.416138%,77.96936%);fill-opacity:1;" d="M 43.355469 31.828125 C 43.402344 31.746094 43.453125 31.660156 43.496094 31.578125 C 41.996094 30.808594 40.496094 30.046875 38.996094 29.273438 C 37.042969 28.269531 36.835938 26.5625 38.574219 25.191406 C 39.605469 24.375 40.753906 23.703125 41.871094 23 C 45.714844 20.597656 47.289062 16.839844 48.40625 12.117188 C 47.839844 12.855469 47.589844 13.105469 47.433594 13.40625 C 45.417969 17.261719 42.390625 19.734375 38.085938 20.742188 C 36.636719 21.082031 35.304688 21.964844 33.960938 22.683594 C 32.53125 23.449219 31.65625 24.808594 32.152344 26.296875 C 32.480469 27.296875 33.589844 28.332031 34.601562 28.753906 C 37.449219 29.941406 40.429688 30.824219 43.355469 31.828125 "/>
</g>
</svg>
