<?xml version="1.0" encoding="UTF-8"?>
<svg xmlns="http://www.w3.org/2000/svg" xmlns:xlink="http://www.w3.org/1999/xlink" width="56pt" height="56pt" viewBox="0 0 56 56" version="1.1">
<g id="surface1">
<rect x="0" y="0" width="56" height="56" style="fill:rgb(95.66803%,95.779419%,96.777344%);fill-opacity:1;stroke:none;"/>
<path style=" stroke:none;fill-rule:nonzero;fill:rgb(73.153687%,12.893677%,17.694092%);fill-opacity:1;" d="M 34.574219 30.40625 C 32.667969 31.457031 30.855469 32.457031 29.039062 33.457031 C 29.011719 33.425781 28.980469 33.398438 28.953125 33.367188 C 29.960938 31.589844 30.964844 29.8125 32.03125 27.933594 C 30.609375 27.503906 29.296875 27.105469 27.984375 26.714844 C 26.664062 26.320312 25.34375 25.9375 24.046875 25.40625 C 28.253906 25.40625 32.460938 25.40625 36.847656 25.40625 C 35.859375 24.359375 34.988281 23.4375 34.117188 22.511719 C 33.542969 22.640625 33.015625 22.757812 32.410156 22.890625 C 31.394531 21.261719 30.371094 19.632812 29.351562 18 C 29.363281 17.984375 29.378906 17.960938 29.398438 17.953125 C 29.417969 17.941406 29.449219 17.941406 29.472656 17.945312 C 29.496094 17.949219 29.523438 17.960938 29.539062 17.976562 C 31.03125 19.398438 32.519531 20.820312 34.085938 22.316406 C 34.453125 21.367188 34.605469 20.425781 34.855469 19.515625 C 35.105469 18.609375 35.316406 17.695312 35.546875 16.785156 C 35.785156 15.851562 36.03125 14.917969 36.269531 13.984375 C 36.496094 13.082031 36.726562 12.179688 37.09375 11.300781 C 37.09375 15.964844 37.09375 20.628906 37.09375 25.378906 C 39.40625 25.457031 41.667969 25.40625 43.925781 25.417969 C 46.167969 25.433594 48.410156 25.421875 50.679688 25.550781 C 47.28125 26.507812 43.882812 27.46875 40.355469 28.460938 C 40.59375 28.757812 40.765625 29.003906 40.972656 29.21875 C 41.789062 30.058594 42.621094 30.886719 43.445312 31.726562 C 43.734375 32.023438 44.003906 32.335938 44.328125 32.6875 C 43.78125 32.628906 40.699219 30.960938 39.59375 30.152344 C 39.761719 29.617188 39.933594 29.054688 40.117188 28.445312 C 39.203125 27.4375 38.285156 26.460938 37.101562 25.46875 C 37.085938 29.976562 37.066406 34.28125 37.046875 38.589844 C 36.996094 38.597656 36.945312 38.605469 36.890625 38.613281 C 36.125 35.902344 35.359375 33.191406 34.574219 30.40625 "/>
<path style=" stroke:none;fill-rule:nonzero;fill:rgb(16.641235%,32.48291%,61.901855%);fill-opacity:1;" d="M 9.691406 40.621094 C 15.644531 38.109375 21.59375 35.597656 27.691406 33.023438 C 27.585938 33.328125 27.558594 33.5 27.472656 33.636719 C 27.0625 34.332031 26.65625 35.03125 26.199219 35.699219 C 26.050781 35.910156 25.78125 36.097656 25.527344 36.175781 C 22.65625 37.039062 19.78125 37.882812 16.90625 38.730469 C 14.808594 39.351562 12.710938 39.976562 10.609375 40.59375 C 10.359375 40.667969 10.105469 40.722656 9.851562 40.785156 C 9.800781 40.730469 9.746094 40.675781 9.691406 40.621094 "/>
<path style=" stroke:none;fill-rule:nonzero;fill:rgb(16.641235%,32.48291%,61.901855%);fill-opacity:1;" d="M 5.320312 32.179688 C 7.765625 31.136719 10.210938 30.089844 12.660156 29.050781 C 14.871094 28.117188 17.089844 27.199219 19.289062 26.25 C 19.75 26.050781 20.164062 26.003906 20.644531 26.167969 C 21.550781 26.484375 22.480469 26.746094 23.542969 27.070312 C 23.296875 27.199219 23.1875 27.28125 23.0625 27.316406 C 18.554688 28.617188 14.046875 29.917969 9.535156 31.214844 C 8.234375 31.589844 6.929688 31.957031 5.625 32.324219 C 5.523438 32.277344 5.421875 32.226562 5.320312 32.179688 "/>
<path style=" stroke:none;fill-rule:nonzero;fill:rgb(16.641235%,32.48291%,61.901855%);fill-opacity:1;" d="M 20.03125 44.539062 C 25.183594 42.4375 30.335938 40.339844 35.519531 38.226562 C 35.878906 38.804688 36.054688 39.386719 36.15625 40.042969 C 35.816406 40.160156 35.503906 40.277344 35.183594 40.371094 C 30.289062 41.796875 25.390625 43.21875 20.492188 44.644531 C 20.394531 44.671875 20.289062 44.679688 20.1875 44.703125 C 20.132812 44.648438 20.082031 44.59375 20.03125 44.539062 "/>
<path style=" stroke:none;fill-rule:nonzero;fill:rgb(16.641235%,32.48291%,61.901855%);fill-opacity:1;" d="M 12.507812 23.863281 C 13.730469 23.347656 14.953125 22.832031 16.179688 22.320312 C 19.710938 20.84375 23.246094 19.371094 26.78125 17.898438 C 27.042969 17.789062 27.308594 17.6875 27.585938 17.582031 C 28.046875 18.046875 28.132812 18.664062 28.460938 19.261719 C 28.164062 19.371094 27.910156 19.476562 27.652344 19.554688 C 23.238281 20.890625 18.828125 22.222656 14.414062 23.550781 C 13.839844 23.722656 13.261719 23.875 12.683594 24.039062 C 12.625 23.980469 12.566406 23.921875 12.507812 23.863281 "/>
<path style=" stroke:none;fill-rule:nonzero;fill:rgb(16.641235%,32.48291%,61.901855%);fill-opacity:1;" d="M 18.777344 42.824219 C 20.371094 42.105469 21.960938 41.382812 23.554688 40.667969 C 26.410156 39.386719 29.269531 38.109375 32.128906 36.835938 C 32.957031 36.464844 33.789062 36.097656 34.710938 35.691406 C 34.90625 36.234375 35.074219 36.714844 35.273438 37.273438 C 34.980469 37.40625 34.738281 37.542969 34.476562 37.632812 C 29.851562 39.257812 25.222656 40.875 20.59375 42.492188 C 20.101562 42.664062 19.605469 42.820312 19.113281 42.980469 C 19 42.929688 18.890625 42.878906 18.777344 42.824219 "/>
<path style=" stroke:none;fill-rule:nonzero;fill:rgb(16.641235%,32.48291%,61.901855%);fill-opacity:1;" d="M 11.109375 33.421875 C 14.640625 32.015625 18.175781 30.605469 21.707031 29.199219 C 22.871094 28.734375 24.035156 28.277344 25.1875 27.792969 C 25.574219 27.632812 25.921875 27.617188 26.320312 27.757812 C 27.046875 28.015625 27.796875 28.226562 28.679688 28.503906 C 28.394531 28.625 28.242188 28.707031 28.082031 28.753906 C 23.527344 30.070312 18.972656 31.386719 14.417969 32.699219 C 13.367188 33 12.316406 33.296875 11.261719 33.59375 C 11.210938 33.535156 11.160156 33.480469 11.109375 33.421875 "/>
<path style=" stroke:none;fill-rule:nonzero;fill:rgb(16.641235%,32.48291%,61.901855%);fill-opacity:1;" d="M 15.019531 35.144531 C 18.152344 33.859375 21.289062 32.574219 24.425781 31.289062 C 26.210938 30.558594 27.992188 29.828125 29.78125 29.097656 C 29.867188 29.0625 29.96875 29.058594 30.222656 29.007812 C 29.867188 29.621094 29.53125 30.105469 29.292969 30.636719 C 28.945312 31.414062 28.382812 31.78125 27.554688 31.996094 C 23.546875 33.046875 19.558594 34.167969 15.5625 35.261719 C 15.488281 35.28125 15.40625 35.285156 15.332031 35.296875 C 15.226562 35.246094 15.121094 35.195312 15.019531 35.144531 "/>
<path style=" stroke:none;fill-rule:nonzero;fill:rgb(16.641235%,32.48291%,61.901855%);fill-opacity:1;" d="M 20.34375 39.996094 C 24.800781 37.519531 29.261719 35.039062 33.816406 32.507812 C 33.941406 32.90625 34.039062 33.195312 34.128906 33.484375 C 34.214844 33.78125 34.296875 34.082031 34.398438 34.445312 C 29.742188 36.351562 25.117188 38.25 20.492188 40.144531 C 20.441406 40.09375 20.390625 40.046875 20.34375 39.996094 "/>
<path style=" stroke:none;fill-rule:nonzero;fill:rgb(16.641235%,32.48291%,61.901855%);fill-opacity:1;" d="M 19.09375 18.230469 C 24.546875 16.082031 30 13.929688 35.457031 11.78125 C 35.503906 11.761719 35.554688 11.769531 35.660156 11.761719 C 35.679688 12.398438 35.480469 12.972656 35.253906 13.585938 C 34.5625 13.800781 33.871094 14.019531 33.171875 14.230469 C 29.082031 15.460938 24.992188 16.691406 20.898438 17.917969 C 20.351562 18.082031 19.800781 18.242188 19.25 18.40625 C 19.199219 18.347656 19.144531 18.289062 19.09375 18.230469 "/>
<path style=" stroke:none;fill-rule:nonzero;fill:rgb(16.641235%,32.48291%,61.901855%);fill-opacity:1;" d="M 14.558594 26.222656 C 19.347656 24.261719 24.140625 22.296875 29.011719 20.300781 C 29.285156 20.8125 29.53125 21.261719 29.75 21.667969 C 29.714844 21.757812 29.707031 21.785156 29.695312 21.804688 C 29.683594 21.828125 29.671875 21.855469 29.652344 21.867188 C 29.585938 21.910156 29.519531 21.953125 29.449219 21.976562 C 29.300781 22.03125 29.152344 22.074219 29 22.117188 C 24.289062 23.535156 19.574219 24.953125 14.859375 26.371094 C 14.761719 26.324219 14.660156 26.273438 14.558594 26.222656 "/>
<path style=" stroke:none;fill-rule:nonzero;fill:rgb(73.153687%,12.893677%,17.694092%);fill-opacity:1;" d="M 44.605469 18.375 C 43.710938 19.871094 42.816406 21.363281 41.910156 22.882812 C 41.335938 22.765625 40.808594 22.65625 40.203125 22.527344 C 40.585938 21.871094 41.148438 21.484375 41.601562 21.011719 C 42.050781 20.539062 42.527344 20.089844 42.992188 19.636719 C 43.476562 19.160156 43.964844 18.691406 44.449219 18.21875 C 44.503906 18.269531 44.554688 18.324219 44.605469 18.375 "/>
</g>
</svg>
