<?xml version="1.0" encoding="UTF-8"?>
<svg xmlns="http://www.w3.org/2000/svg" xmlns:xlink="http://www.w3.org/1999/xlink" width="56pt" height="56pt" viewBox="0 0 56 56" version="1.1">
<g id="surface1">
<rect x="0" y="0" width="56" height="56" style="fill:rgb(95.666504%,95.776367%,96.775818%);fill-opacity:1;stroke:none;"/>
<path style=" stroke:none;fill-rule:nonzero;fill:rgb(93.037415%,12.287903%,13.896179%);fill-opacity:1;" d="M 46.191406 6.113281 C 46.191406 6.113281 11.359375 26.671875 4.824219 33.820312 C 3.292969 35.304688 3.773438 36.199219 4.453125 36.707031 C 8.695312 40.855469 31.449219 49.886719 31.449219 49.886719 C 31.449219 49.886719 21.972656 38.605469 21.972656 36.800781 C 21.972656 34.996094 46.191406 6.113281 46.191406 6.113281 "/>
<path style=" stroke:none;fill-rule:nonzero;fill:rgb(12.522888%,18.17627%,35.629272%);fill-opacity:1;" d="M 44.269531 22.210938 C 44.269531 22.210938 22.953125 34.789062 23.027344 36.972656 C 23.027344 38.628906 36.886719 44.128906 36.886719 44.128906 C 36.886719 44.128906 32.140625 38.480469 32.140625 37.574219 C 32.140625 36.671875 44.269531 22.210938 44.269531 22.210938 "/>
</g>
</svg>
