<?xml version="1.0" encoding="UTF-8"?>
<svg xmlns="http://www.w3.org/2000/svg" xmlns:xlink="http://www.w3.org/1999/xlink" width="56.19pt" height="56.19pt" viewBox="0 0 56.19 56.19" version="1.1">
<g id="surface1">
<path style=" stroke:none;fill-rule:nonzero;fill:rgb(95.66803%,95.779419%,96.777344%);fill-opacity:1;" d="M 56 56 L 0 56 L 0 0 L 56 0 L 56 56 "/>
<path style=" stroke:none;fill-rule:nonzero;fill:rgb(10.314941%,12.57019%,26.9104%);fill-opacity:1;" d="M 28.191406 54.175781 C 13.910156 54.175781 2.207031 42.46875 2.207031 28.191406 C 2.207031 13.855469 13.910156 2.207031 28.191406 2.207031 C 42.527344 2.207031 54.175781 13.855469 54.175781 28.191406 C 54.175781 42.46875 42.527344 54.175781 28.191406 54.175781 M 40.789062 40.285156 L 43.144531 38.046875 L 42.585938 38.046875 C 36.648438 38.046875 31.328125 36.085938 28.246094 32.78125 C 30.824219 31.214844 34.015625 30.484375 38.441406 30.484375 C 39.617188 30.484375 41.296875 30.597656 42.863281 30.765625 L 44.207031 29.476562 C 41.910156 29.199219 39.726562 29.085938 37.878906 29.085938 C 36.367188 29.085938 35.023438 29.140625 33.625 29.253906 L 34.632812 28.023438 C 35.414062 27.964844 37.09375 27.910156 38.214844 27.910156 C 41.183594 27.910156 43.144531 28.023438 45.382812 28.359375 L 46.671875 27.125 C 44.320312 26.734375 41.070312 26.511719 38.101562 26.511719 C 37.488281 26.511719 36.703125 26.511719 35.695312 26.566406 L 36.421875 25.335938 L 37.597656 25.335938 C 41.796875 25.335938 44.933594 25.558594 47.789062 26.0625 L 49.078125 24.832031 C 45.886719 24.269531 42.023438 23.933594 38.101562 23.933594 L 37.152344 23.933594 L 37.769531 22.757812 L 38.832031 22.757812 C 42.917969 22.757812 46.613281 23.09375 50.199219 23.765625 L 51.542969 22.476562 C 47.511719 21.695312 43.199219 21.300781 38.550781 21.300781 C 36.535156 21.300781 34.519531 21.414062 32.613281 21.582031 C 30.375 26.398438 26.792969 29.199219 22.761719 29.140625 C 21.191406 29.085938 19.230469 28.414062 16.710938 27.070312 L 14.359375 25.726562 L 15.085938 25.054688 L 20.519531 27.40625 L 21.695312 26.511719 L 10.71875 21.527344 L 9.039062 22.8125 L 5.117188 21.191406 L 5.175781 22.8125 C 10.4375 25.222656 12.625 26.566406 18.167969 30.542969 C 25.390625 35.695312 31.832031 38.496094 40.789062 40.285156 M 28.191406 56.191406 C 43.703125 56.191406 56.191406 43.644531 56.191406 28.191406 C 56.191406 12.679688 43.703125 0.191406 28.191406 0.191406 C 12.734375 0.191406 0.191406 12.679688 0.191406 28.191406 C 0.191406 43.644531 12.734375 56.191406 28.191406 56.191406 "/>
</g>
</svg>
