<?xml version="1.0" encoding="UTF-8"?>
<svg xmlns="http://www.w3.org/2000/svg" xmlns:xlink="http://www.w3.org/1999/xlink" width="56pt" height="56pt" viewBox="0 0 56 56" version="1.1">
<g id="surface1">
<path style=" stroke:none;fill-rule:evenodd;fill:rgb(19.604492%,41.174316%,73.28186%);fill-opacity:1;" d="M 46.027344 56 C 45.898438 55.75 45.898438 55.5 45.773438 55.375 C 44.402344 52.882812 42.03125 51.136719 38.789062 50.136719 C 35.667969 49.265625 31.929688 49.265625 27.816406 50.011719 C 23.445312 50.761719 19.085938 52.507812 14.839844 54.875 C 14.21875 55.25 13.59375 55.625 12.972656 56 L 46.027344 56 "/>
<path style=" stroke:none;fill-rule:evenodd;fill:rgb(19.604492%,41.174316%,73.28186%);fill-opacity:1;" d="M 47.273438 47.269531 C 45.773438 44.277344 42.90625 42.15625 39.039062 41.03125 C 35.296875 40.035156 30.679688 39.910156 25.695312 40.910156 C 20.582031 41.90625 15.214844 43.902344 10.226562 46.769531 C 6.363281 49.011719 2.996094 51.507812 0 54.378906 L 0 56 L 11.101562 56 C 12.347656 55 13.71875 54.003906 15.214844 53.128906 C 20.453125 49.886719 26.191406 47.644531 31.554688 46.894531 C 36.792969 46.269531 41.285156 47.019531 44.277344 49.011719 C 46.527344 50.761719 47.894531 53.128906 48.144531 56 L 48.519531 56 L 48.640625 54.625 C 48.890625 51.882812 48.519531 49.390625 47.273438 47.269531 "/>
<path style=" stroke:none;fill-rule:evenodd;fill:rgb(19.604492%,41.174316%,73.28186%);fill-opacity:1;" d="M 0 14.964844 L 0 0 L 56 0 L 56 56 L 48.640625 56 C 49.265625 52.261719 48.890625 48.765625 48.890625 48.765625 C 48.269531 43.277344 45.152344 39.660156 39.789062 38.164062 C 34.050781 36.542969 26.066406 37.664062 17.960938 41.160156 C 13.96875 42.902344 10.101562 45.148438 6.484375 47.765625 C 4.117188 49.515625 1.871094 51.507812 0 53.507812 L 0 42.40625 C 1.746094 41.160156 3.617188 39.910156 5.613281 38.789062 C 11.101562 35.667969 17.089844 33.300781 22.703125 32.300781 C 28.191406 31.179688 33.300781 31.304688 37.417969 32.550781 C 41.78125 33.675781 44.902344 36.167969 46.648438 39.410156 C 47.148438 40.285156 47.519531 41.28125 47.773438 42.40625 L 48.269531 44.398438 C 48.144531 40.910156 46.398438 37.289062 46.398438 37.289062 C 44.03125 32.550781 39.535156 29.804688 33.050781 29.183594 C 29.808594 28.933594 26.066406 29.183594 22.199219 30.179688 C 18.335938 31.054688 14.34375 32.550781 10.355469 34.546875 C 6.734375 36.417969 3.246094 38.664062 0 41.28125 L 0 32.175781 C 0.375 31.929688 0.75 31.675781 1.121094 31.429688 C 18.460938 21.453125 36.792969 21.324219 43.03125 31.179688 L 43.902344 32.550781 C 43.03125 29.929688 40.285156 27.0625 40.285156 27.0625 C 36.542969 23.320312 31.054688 21.453125 24.199219 21.949219 C 17.585938 22.449219 9.855469 25.066406 2.617188 29.308594 C 1.746094 29.804688 0.875 30.308594 0 30.929688 L 0 24.070312 C 13.472656 17.085938 27.566406 16.210938 34.921875 22.074219 L 35.542969 22.574219 C 34.421875 20.953125 31.429688 19.332031 31.429688 19.332031 C 23.445312 15.089844 11.226562 16.960938 0 23.070312 L 0 18.832031 C 3.617188 17.210938 7.234375 16.089844 10.851562 15.464844 C 15.96875 14.59375 20.582031 14.839844 24.199219 16.089844 L 25.570312 16.585938 C 22.949219 14.964844 20.328125 14.714844 20.328125 14.714844 C 14.09375 13.59375 6.363281 14.839844 0 17.835938 L 0 16.089844 C 3.492188 14.839844 6.988281 14.089844 10.226562 13.96875 L 12.972656 13.84375 C 6.238281 12.84375 0 14.964844 0 14.964844 "/>
<path style=" stroke:none;fill-rule:evenodd;fill:rgb(100%,100%,100%);fill-opacity:1;" d="M 0 37.414062 L 0 40.535156 C 22.453125 21.949219 51.511719 25.941406 56 26.6875 C 56 26.6875 25.570312 18.707031 0 37.414062 "/>
<path style=" stroke:none;fill-rule:evenodd;fill:rgb(100%,100%,100%);fill-opacity:1;" d="M 0 27.1875 L 0 29.929688 C 21.578125 15.464844 46.898438 18.960938 51.136719 19.707031 C 51.136719 19.707031 24.445312 12.71875 0 27.1875 "/>
<path style=" stroke:none;fill-rule:evenodd;fill:rgb(100%,100%,100%);fill-opacity:1;" d="M 48.144531 13.59375 C 48.144531 13.59375 23.574219 7.109375 0 19.457031 L 0 21.949219 C 20.828125 9.726562 44.152344 12.84375 48.144531 13.59375 "/>
</g>
</svg>
