<?xml version="1.0" encoding="UTF-8"?>
<svg xmlns="http://www.w3.org/2000/svg" xmlns:xlink="http://www.w3.org/1999/xlink" width="56.31pt" height="56pt" viewBox="0 0 56.31 56" version="1.1">
<defs>
<clipPath id="clip1">
  <path d="M 0 0 L 56.308594 0 L 56.308594 56 L 0 56 Z M 0 0 "/>
</clipPath>
</defs>
<g id="surface1">
<path style=" stroke:none;fill-rule:nonzero;fill:rgb(93.569946%,67.558289%,5.574036%);fill-opacity:1;" d="M 2.988281 8.304688 C 2.328125 8.710938 1.691406 9.195312 1.109375 9.667969 C 1.355469 9.722656 1.621094 9.804688 1.851562 9.90625 C 2.78125 9.25 3.675781 8.671875 4.417969 8.269531 C 5.386719 8.273438 6.636719 8.457031 7.460938 8.78125 C 6.113281 9.265625 4.476562 10.019531 3.421875 10.722656 C 3.617188 10.828125 3.824219 11 3.972656 11.15625 C 5.265625 10.464844 7.128906 9.667969 8.65625 9.179688 C 9.378906 9.46875 10.152344 9.984375 10.597656 10.414062 C 8.648438 10.875 6.78125 11.386719 4.898438 12.152344 C 5.082031 12.367188 5.273438 12.691406 5.367188 12.890625 C 6.730469 12.40625 9.394531 11.628906 11.488281 11.230469 C 11.871094 11.640625 12.324219 12.292969 12.558594 12.902344 C 10.253906 13.140625 7.613281 13.546875 5.839844 14.050781 C 5.945312 14.351562 6.011719 14.640625 6.070312 14.921875 C 8.257812 14.503906 10.664062 14.1875 13.019531 14.09375 C 13.234375 14.773438 13.351562 15.496094 13.351562 16.238281 C 11.003906 16.089844 8.316406 16.1875 6.175781 16.40625 C 6.175781 16.6875 6.140625 17.242188 6.101562 17.585938 C 8.265625 17.523438 10.691406 17.546875 13.28125 17.839844 C 13.191406 18.539062 13.019531 19.449219 12.792969 20.230469 C 10.375 19.679688 8.167969 19.410156 5.738281 19.25 C 5.644531 19.722656 5.441406 20.296875 5.214844 20.785156 C 7.492188 21.207031 9.769531 21.835938 11.96875 22.621094 C 11.664062 23.332031 11.3125 24.027344 10.925781 24.707031 C 9.285156 23.929688 6.363281 22.84375 4.445312 22.304688 C 4.136719 22.945312 3.601562 23.816406 3.070312 24.457031 C 4.449219 25.132812 7.089844 26.621094 8.894531 27.785156 C 8.460938 28.367188 7.984375 28.964844 7.46875 29.503906 C 5.722656 28.136719 3.976562 26.851562 2.078125 25.640625 C 1.46875 26.339844 0.710938 27.09375 0.00390625 27.695312 L 0.00390625 27.910156 L 4.371094 32.566406 C 3.890625 33.007812 3.390625 33.410156 2.875 33.785156 L 0.00390625 30.113281 L 0.00390625 36.597656 C 4.441406 33.992188 8.941406 29.71875 11.464844 25.1875 C 13.527344 21.5625 15.082031 16.652344 13.089844 12.484375 C 12.730469 11.839844 12.359375 11.210938 11.789062 10.652344 C 8.753906 7.582031 4.097656 7.328125 0.00390625 8.292969 C 0.00390625 8.289062 0.00390625 8.664062 0.00390625 8.664062 C 0.859375 8.480469 1.976562 8.304688 2.988281 8.304688 "/>
<path style=" stroke:none;fill-rule:nonzero;fill:rgb(93.569946%,67.558289%,5.574036%);fill-opacity:1;" d="M 4.886719 13.585938 C 4.039062 11.65625 1.976562 10.441406 0.0078125 10.175781 L 0.0078125 11.257812 L 0.613281 10.835938 C 1.113281 10.957031 1.6875 11.207031 2.066406 11.457031 C 1.375 11.863281 0.65625 12.273438 0.0078125 12.710938 L 0.0078125 13.386719 C 0.867188 12.859375 1.878906 12.246094 2.679688 11.839844 C 3.003906 12.046875 3.296875 12.351562 3.523438 12.660156 C 2.363281 13.117188 0.753906 13.90625 0.00390625 14.304688 C 0.00390625 14.304688 0 15 0.00390625 15 C 1.285156 14.378906 2.703125 13.75 4.050781 13.335938 C 4.230469 13.640625 4.402344 14.027344 4.46875 14.378906 C 3.03125 14.65625 1.371094 15.265625 0.0078125 15.789062 L 0.0078125 16.429688 C 1.445312 15.929688 3.382812 15.421875 4.644531 15.21875 C 4.742188 15.628906 4.75 16.148438 4.753906 16.523438 C 2.847656 16.707031 1.5625 16.929688 0.015625 17.242188 L 0.015625 17.96875 C 1.394531 17.785156 3.683594 17.617188 4.679688 17.65625 C 4.585938 18.15625 4.472656 18.671875 4.28125 19.125 C 3.140625 19.019531 1.296875 18.933594 0.0078125 18.96875 C 0 18.96875 0 19.941406 0 19.945312 C 1.261719 20.015625 2.636719 20.320312 3.742188 20.53125 C 3.59375 20.914062 3.3125 21.457031 3.070312 21.839844 C 2.207031 21.550781 0.945312 21.152344 0 21.003906 L 0 22.917969 C 0.605469 23.1875 1.480469 23.625 1.773438 23.816406 C 1.582031 24.109375 1.183594 24.59375 0.90625 24.835938 C 0.511719 24.570312 0 24.269531 0 24.269531 L 0 26.710938 C 1.011719 25.722656 2.003906 24.683594 2.789062 23.585938 C 4.746094 20.765625 6.292969 17.113281 4.886719 13.585938 "/>
<path style=" stroke:none;fill-rule:nonzero;fill:rgb(93.569946%,67.558289%,5.574036%);fill-opacity:1;" d="M 43.59375 54.148438 C 43.492188 53.957031 43.402344 53.765625 43.3125 53.554688 C 42.929688 54.332031 42.34375 55.582031 42.34375 55.582031 L 43.667969 55.582031 C 44.808594 52.894531 45.605469 49.015625 45.933594 45.316406 C 45.390625 48.144531 44.414062 51.648438 43.59375 54.148438 "/>
<path style=" stroke:none;fill-rule:nonzero;fill:rgb(93.569946%,67.558289%,5.574036%);fill-opacity:1;" d="M 38.074219 20.125 C 37.683594 19.691406 37.277344 19.144531 36.808594 18.824219 L 36.792969 18.871094 C 38.660156 21.167969 40.140625 23.628906 40.914062 26.367188 L 40.898438 26.402344 L 39.457031 25.3125 C 39.636719 26.421875 39.78125 27.457031 39.820312 28.617188 C 40.5 29.136719 41.246094 29.800781 41.828125 30.503906 C 41.925781 32.394531 41.925781 34.40625 41.597656 36.261719 C 40.953125 35.398438 40.375 34.78125 39.367188 33.769531 C 39.140625 35.148438 38.628906 37.304688 38.007812 38.753906 C 38.886719 39.710938 39.796875 40.921875 40.363281 41.808594 C 40.03125 42.949219 39.390625 44.472656 38.707031 45.757812 C 37.890625 44.707031 37.320312 43.855469 36.253906 42.609375 C 35.199219 44.550781 33.964844 46.523438 32.605469 48.335938 C 33.53125 49.429688 34.375 50.570312 35.1875 51.726562 C 34.417969 52.796875 33.601562 53.851562 32.707031 54.855469 C 31.859375 53.699219 30.964844 52.539062 30.089844 51.398438 C 28.863281 52.824219 27.625 54.273438 26.136719 55.585938 L 33.015625 55.585938 C 37.441406 50.449219 40.652344 44.761719 41.960938 38.335938 C 43.3125 31.855469 42.246094 25.007812 38.074219 20.125 "/>
<path style=" stroke:none;fill-rule:nonzero;fill:rgb(93.569946%,67.558289%,5.574036%);fill-opacity:1;" d="M 30.261719 50.089844 C 34.347656 45.101562 37.578125 39.761719 38.710938 33.558594 C 39.933594 27.050781 38.222656 20.71875 33.921875 16.015625 L 32.726562 15.574219 C 33.136719 16.261719 33.523438 16.972656 33.851562 17.695312 L 35.402344 18.414062 C 36.511719 20.214844 37.390625 22.113281 37.871094 24.175781 C 37.011719 23.632812 36.136719 23.074219 35.265625 22.59375 C 35.398438 23.527344 35.433594 24.375 35.453125 25.359375 C 36.441406 26.046875 37.46875 26.777344 38.421875 27.625 C 38.511719 29.351562 38.386719 31.0625 38.125 32.660156 C 37.078125 31.644531 35.988281 30.746094 34.921875 30 C 34.65625 31.472656 34.121094 33.148438 33.503906 34.636719 C 34.597656 35.507812 35.792969 36.648438 36.84375 37.796875 C 36.390625 39.117188 35.839844 40.351562 35.1875 41.546875 C 34.132812 40.40625 32.972656 39.214844 31.8125 38.210938 C 31.105469 39.59375 29.671875 41.820312 28.40625 43.535156 C 29.554688 44.722656 30.625 45.960938 31.683594 47.195312 C 30.929688 48.246094 30.078125 49.25 29.195312 50.222656 C 28.125 48.988281 27.117188 47.71875 26 46.515625 C 24.308594 48.484375 22.890625 50.019531 20.867188 51.722656 C 22.0625 53.171875 23.867188 55.582031 23.867188 55.582031 L 24.894531 55.582031 C 26.789062 53.894531 28.609375 52.003906 30.261719 50.089844 "/>
<path style=" stroke:none;fill-rule:nonzero;fill:rgb(93.569946%,67.558289%,5.574036%);fill-opacity:1;" d="M 18.71875 42.570312 C 23.644531 37.234375 27.535156 31.472656 28.691406 24.59375 C 29.613281 19.105469 27.796875 13.9375 23.4375 10.441406 C 20.796875 8.179688 17.519531 7.390625 14.097656 6.988281 C 14.484375 7.117188 14.855469 7.292969 15.226562 7.453125 L 15.4375 7.417969 C 17.34375 7.730469 19.167969 8.367188 20.800781 9.261719 C 19.914062 9.265625 18.996094 9.253906 18.109375 9.324219 C 18.480469 9.660156 18.871094 10.046875 19.195312 10.398438 C 20.390625 10.378906 21.550781 10.402344 22.695312 10.476562 C 23.832031 11.3125 24.988281 12.429688 25.632812 13.578125 C 24.308594 13.277344 22.484375 13.011719 20.855469 12.875 C 21.070312 13.359375 21.28125 13.855469 21.460938 14.371094 C 23.269531 14.636719 25.0625 14.964844 26.804688 15.410156 C 27.378906 16.597656 27.820312 17.855469 28.003906 19.175781 C 26.078125 18.492188 24.109375 17.84375 22.089844 17.433594 C 22.140625 18.078125 22.144531 18.753906 22.148438 19.417969 C 24.230469 20.019531 26.269531 20.71875 28.242188 21.613281 C 28.25 22.953125 28.109375 24.226562 27.808594 25.4375 C 25.820312 24.449219 23.796875 23.472656 21.695312 22.757812 C 21.429688 23.9375 21.078125 25.085938 20.667969 26.203125 C 22.6875 27.238281 24.695312 28.292969 26.605469 29.542969 C 26.246094 30.566406 25.714844 31.679688 25.101562 32.679688 C 23.226562 31.402344 21.347656 30.152344 19.390625 29.0625 C 18.722656 30.445312 17.886719 31.863281 16.878906 33.160156 C 18.628906 34.539062 20.410156 35.964844 22.097656 37.488281 C 21.539062 38.320312 20.800781 39.285156 19.964844 40.160156 C 18.738281 38.863281 16.691406 37.03125 14.988281 35.589844 C 13.78125 37.046875 12.351562 38.65625 10.917969 39.855469 C 12.011719 41.007812 15.265625 44.929688 15.265625 44.929688 C 14.613281 45.578125 13.808594 46.246094 12.96875 46.84375 C 12.96875 46.84375 9.648438 42.585938 8.824219 41.558594 C 6.863281 43.117188 5.289062 44.210938 2.988281 45.429688 C 3.90625 46.984375 6.164062 51.1875 6.164062 51.1875 C 5.585938 51.546875 4.972656 51.878906 4.363281 52.101562 C 3.300781 50.328125 2.015625 47.761719 1.332031 46.292969 C 0.671875 46.660156 0.0078125 46.890625 0.0078125 46.890625 L 0.0078125 54.550781 C 6.929688 52.300781 13.3125 48.324219 18.71875 42.570312 "/>
<path style=" stroke:none;fill-rule:nonzero;fill:rgb(93.569946%,67.558289%,5.574036%);fill-opacity:1;" d="M 45.78125 38.21875 L 45.765625 38.21875 C 45.640625 39.183594 45.566406 40.167969 45.394531 41.089844 L 45.085938 40.671875 C 44.757812 42.65625 44.273438 44.503906 43.589844 46.34375 L 44.066406 47.667969 C 43.675781 49.003906 43.179688 50.433594 42.539062 51.929688 C 42.390625 51.476562 42.105469 50.929688 41.847656 50.511719 C 40.984375 52.226562 39.964844 54.054688 38.941406 55.582031 L 41.515625 55.582031 C 42.921875 52.863281 44.023438 49.984375 44.828125 47.011719 C 45.507812 44.234375 46.121094 41.265625 45.78125 38.21875 "/>
<path style=" stroke:none;fill-rule:nonzero;fill:rgb(93.569946%,67.558289%,5.574036%);fill-opacity:1;" d="M 42.839844 27.988281 L 42.679688 27.828125 C 42.945312 29.070312 43.058594 30.089844 43.214844 31.714844 C 43.726562 32.273438 44.34375 33.214844 44.34375 33.214844 C 44.40625 35.109375 44.292969 37.019531 43.898438 38.972656 L 42.859375 37.683594 C 42.542969 39.480469 42.101562 41.152344 41.4375 42.988281 L 42.597656 45 C 42.257812 46.195312 41.597656 47.855469 40.957031 49.179688 C 40.527344 48.480469 40.117188 47.710938 39.679688 47.09375 C 38.636719 49.113281 37.394531 51.089844 36.050781 52.984375 L 37.664062 55.585938 C 37.664062 55.582031 38.03125 55.582031 38.035156 55.585938 C 41.921875 49.804688 44.535156 43.4375 44.804688 36.191406 C 44.933594 33.15625 43.984375 30.515625 42.839844 27.988281 "/>
<path style=" stroke:none;fill-rule:nonzero;fill:rgb(93.569946%,67.558289%,5.574036%);fill-opacity:1;" d="M 15.914062 55.582031 L 19.515625 55.582031 C 19.515625 55.582031 18.738281 54.417969 18.339844 53.800781 C 17.707031 54.257812 16.894531 54.976562 15.914062 55.582031 "/>
<path style=" stroke:none;fill-rule:nonzero;fill:rgb(93.569946%,67.558289%,5.574036%);fill-opacity:1;" d="M 0.00390625 55.273438 L 0.0078125 55.578125 L 6.140625 55.578125 L 4.910156 53.386719 C 3.304688 54.125 1.695312 54.734375 0.00390625 55.273438 "/>
<path style=" stroke:none;fill-rule:nonzero;fill:rgb(93.569946%,67.558289%,5.574036%);fill-opacity:1;" d="M 20.667969 23.84375 C 21.636719 20.566406 21.808594 16.339844 20.226562 13.28125 C 19.296875 11.269531 17.417969 9.394531 15.425781 8.371094 C 12.449219 6.722656 8.527344 6.484375 5.015625 7.085938 L 6.257812 7.222656 L 6.433594 7.140625 C 8.0625 7.019531 9.773438 7.074219 11.292969 7.40625 C 10.792969 7.546875 9.941406 7.828125 9.34375 8.078125 C 9.679688 8.199219 10.109375 8.421875 10.410156 8.609375 C 11.054688 8.378906 12.40625 8.019531 13.070312 7.882812 C 13.652344 8.0625 15.171875 8.757812 16.113281 9.445312 C 14.996094 9.5625 13.476562 9.78125 12.257812 10.0625 C 12.546875 10.320312 12.792969 10.617188 13.003906 10.949219 C 14.191406 10.726562 15.925781 10.527344 17.421875 10.472656 C 18.1875 11.128906 18.804688 11.917969 19.226562 12.738281 C 17.578125 12.621094 15.386719 12.652344 14.046875 12.796875 C 14.183594 13.039062 14.375 13.652344 14.457031 14.023438 C 16.121094 13.949219 18.839844 14.070312 19.976562 14.234375 C 20.351562 15.136719 20.5625 16.101562 20.652344 17.117188 C 18.746094 16.742188 16.507812 16.425781 14.757812 16.34375 C 14.777344 16.90625 14.757812 17.445312 14.703125 17.972656 C 16.785156 18.1875 18.804688 18.5625 20.757812 19.070312 C 20.734375 20.0625 20.589844 21.296875 20.324219 22.25 C 18.769531 21.695312 16.300781 20.964844 14.199219 20.539062 C 13.988281 21.402344 13.714844 22.242188 13.34375 23.058594 C 15.394531 23.746094 17.417969 24.636719 19.355469 25.59375 C 19.039062 26.519531 18.578125 27.550781 18.144531 28.3125 C 16.203125 27.222656 14.203125 26.15625 12.226562 25.308594 C 11.625 26.40625 10.867188 27.574219 10.144531 28.53125 C 12.074219 29.707031 13.898438 30.976562 15.714844 32.339844 C 15.171875 33.132812 14.398438 34.085938 13.921875 34.65625 C 12.1875 33.214844 8.625 30.378906 8.625 30.378906 C 7.566406 31.644531 6.671875 32.585938 5.347656 33.601562 C 6.816406 35.109375 8.730469 37.238281 9.921875 38.726562 C 9.3125 39.371094 8.707031 39.882812 7.980469 40.382812 C 6.527344 38.597656 4.78125 36.34375 3.757812 34.9375 C 2.332031 36.050781 1.460938 36.660156 0.0078125 37.414062 L 0.0078125 39.503906 L 2.324219 44.136719 C 1.796875 44.472656 1.371094 44.683594 0.695312 44.96875 L 0.0078125 43.617188 L 0.0078125 46.054688 C 8.9375 42.089844 18.027344 33.34375 20.667969 23.84375 "/>
<path style=" stroke:none;fill-rule:nonzero;fill:rgb(93.569946%,67.558289%,5.574036%);fill-opacity:1;" d="M 34.109375 30.34375 C 35.609375 24.15625 34.1875 17.832031 29.921875 13.230469 C 27.652344 10.78125 25.132812 9.957031 23.351562 9.410156 C 23.804688 9.710938 24.332031 10.171875 24.84375 10.695312 L 26.136719 10.847656 C 27.429688 11.519531 28.613281 12.464844 29.683594 13.585938 C 30.070312 14.019531 30.496094 14.457031 30.773438 14.921875 C 29.707031 14.617188 28.671875 14.253906 27.570312 14.015625 C 27.941406 14.597656 28.210938 15.167969 28.484375 15.835938 C 29.710938 16.183594 30.925781 16.613281 32.121094 17.042969 C 32.886719 18.488281 33.441406 20.050781 33.707031 21.695312 C 32.332031 21.007812 30.960938 20.339844 29.535156 19.78125 C 29.644531 20.589844 29.679688 21.417969 29.644531 22.21875 C 31.199219 22.933594 32.945312 23.890625 34.023438 24.582031 C 34.058594 25.71875 33.949219 27.742188 33.617188 29.039062 C 32.375 28.132812 30.582031 26.96875 29.132812 26.222656 C 28.933594 27.335938 28.40625 29.082031 27.847656 30.308594 C 29.371094 31.335938 30.871094 32.386719 32.316406 33.621094 C 31.871094 34.835938 31.3125 36 30.707031 37.132812 C 29.261719 35.898438 27.804688 34.714844 26.285156 33.578125 C 25.421875 35.28125 24.464844 36.816406 23.160156 38.414062 C 24.621094 39.761719 26.015625 41.078125 27.410156 42.523438 C 26.726562 43.515625 25.964844 44.496094 25.070312 45.421875 C 23.742188 43.992188 22.378906 42.535156 20.984375 41.167969 C 19.539062 42.835938 17.910156 44.582031 16.199219 46.015625 C 16.988281 46.835938 18.683594 48.824219 19.917969 50.59375 C 19.074219 51.316406 18.28125 52.007812 17.429688 52.625 L 13.839844 47.996094 C 11.625 49.71875 9.273438 51.148438 6.910156 52.4375 L 8.796875 55.582031 L 14.640625 55.582031 C 23.5625 49.488281 31.628906 40.433594 34.109375 30.34375 "/>
<path style=" stroke:none;fill-rule:nonzero;fill:rgb(15.620422%,33.56781%,65.379333%);fill-opacity:1;" d="M 3.269531 8.71875 C 2.605469 9.125 1.96875 9.609375 1.390625 10.085938 C 1.636719 10.136719 1.898438 10.21875 2.132812 10.324219 C 3.0625 9.664062 3.957031 9.085938 4.699219 8.679688 C 5.667969 8.6875 6.917969 8.871094 7.742188 9.199219 C 6.390625 9.679688 4.757812 10.433594 3.699219 11.136719 C 3.898438 11.242188 4.101562 11.414062 4.253906 11.570312 C 5.542969 10.878906 7.410156 10.082031 8.9375 9.59375 C 9.65625 9.882812 10.433594 10.398438 10.878906 10.828125 C 8.929688 11.289062 7.058594 11.800781 5.175781 12.566406 C 5.363281 12.78125 5.554688 13.105469 5.648438 13.304688 C 7.011719 12.820312 9.671875 12.042969 11.769531 11.644531 C 12.148438 12.054688 12.601562 12.707031 12.839844 13.316406 C 10.535156 13.554688 7.894531 13.960938 6.121094 14.464844 C 6.226562 14.765625 6.292969 15.054688 6.351562 15.335938 C 8.535156 14.917969 10.945312 14.601562 13.300781 14.511719 C 13.511719 15.1875 13.628906 15.910156 13.632812 16.65625 C 11.285156 16.503906 8.597656 16.601562 6.453125 16.820312 C 6.457031 17.101562 6.417969 17.65625 6.382812 18 C 8.546875 17.9375 10.96875 17.960938 13.5625 18.253906 C 13.472656 18.953125 13.300781 19.863281 13.074219 20.644531 C 10.652344 20.09375 8.449219 19.828125 6.019531 19.664062 C 5.921875 20.136719 5.722656 20.710938 5.492188 21.199219 C 7.769531 21.621094 10.050781 22.25 12.246094 23.035156 C 11.945312 23.746094 11.59375 24.445312 11.207031 25.121094 C 9.5625 24.34375 6.644531 23.257812 4.726562 22.722656 C 4.414062 23.359375 3.882812 24.230469 3.347656 24.871094 C 4.730469 25.546875 7.367188 27.035156 9.175781 28.199219 C 8.742188 28.78125 8.261719 29.382812 7.75 29.914062 C 6.003906 28.550781 4.257812 27.265625 2.355469 26.054688 C 1.746094 26.753906 0.988281 27.507812 0.285156 28.109375 L 0.285156 28.324219 L 4.652344 32.980469 C 4.167969 33.417969 3.671875 33.824219 3.15625 34.199219 L 0.285156 30.527344 L 0.285156 37.011719 C 4.722656 34.40625 9.21875 30.132812 11.742188 25.601562 C 13.804688 21.976562 15.359375 17.066406 13.371094 12.898438 C 13.011719 12.253906 12.640625 11.625 12.070312 11.066406 C 9.035156 7.996094 4.378906 7.742188 0.28125 8.707031 C 0.285156 8.703125 0.28125 9.078125 0.28125 9.078125 C 1.136719 8.894531 2.253906 8.71875 3.269531 8.71875 "/>
<path style=" stroke:none;fill-rule:nonzero;fill:rgb(15.620422%,33.56781%,65.379333%);fill-opacity:1;" d="M 5.164062 14.003906 C 4.316406 12.070312 2.257812 10.855469 0.285156 10.589844 L 0.285156 11.671875 L 0.890625 11.25 C 1.394531 11.371094 1.96875 11.621094 2.347656 11.871094 C 1.65625 12.277344 0.9375 12.6875 0.289062 13.121094 L 0.289062 13.800781 C 1.148438 13.277344 2.160156 12.660156 2.960938 12.253906 C 3.28125 12.460938 3.578125 12.765625 3.804688 13.074219 C 2.644531 13.53125 1.035156 14.320312 0.28125 14.71875 C 0.28125 14.71875 0.28125 15.414062 0.28125 15.414062 C 1.566406 14.792969 2.984375 14.164062 4.332031 13.75 C 4.511719 14.054688 4.679688 14.441406 4.75 14.792969 C 3.308594 15.074219 1.652344 15.679688 0.289062 16.207031 L 0.289062 16.84375 C 1.722656 16.34375 3.664062 15.835938 4.921875 15.632812 C 5.023438 16.042969 5.027344 16.5625 5.035156 16.9375 C 3.128906 17.121094 1.839844 17.34375 0.296875 17.65625 L 0.296875 18.382812 C 1.675781 18.199219 3.964844 18.03125 4.957031 18.070312 C 4.863281 18.570312 4.753906 19.085938 4.5625 19.539062 C 3.417969 19.433594 1.578125 19.347656 0.285156 19.382812 C 0.28125 19.382812 0.28125 20.355469 0.28125 20.359375 C 1.539062 20.429688 2.914062 20.734375 4.019531 20.945312 C 3.871094 21.328125 3.59375 21.871094 3.351562 22.257812 C 2.488281 21.96875 1.226562 21.570312 0.28125 21.417969 L 0.28125 23.335938 C 0.886719 23.601562 1.757812 24.039062 2.054688 24.230469 C 1.863281 24.523438 1.460938 25.007812 1.1875 25.25 C 0.789062 24.984375 0.28125 24.683594 0.28125 24.683594 L 0.28125 27.128906 C 1.292969 26.136719 2.285156 25.101562 3.070312 24 C 5.027344 21.179688 6.574219 17.527344 5.164062 14.003906 "/>
<path style=" stroke:none;fill-rule:nonzero;fill:rgb(15.620422%,33.56781%,65.379333%);fill-opacity:1;" d="M 43.871094 54.5625 C 43.773438 54.371094 43.683594 54.179688 43.59375 53.96875 C 43.210938 54.746094 42.625 55.996094 42.625 55.996094 L 43.945312 55.996094 C 45.085938 53.308594 45.886719 49.429688 46.210938 45.730469 C 45.671875 48.558594 44.695312 52.0625 43.871094 54.5625 "/>
<path style=" stroke:none;fill-rule:nonzero;fill:rgb(15.620422%,33.56781%,65.379333%);fill-opacity:1;" d="M 38.351562 20.539062 C 37.964844 20.105469 37.558594 19.558594 37.089844 19.238281 L 37.070312 19.285156 C 38.9375 21.585938 40.417969 24.042969 41.191406 26.78125 L 41.175781 26.816406 L 39.734375 25.726562 C 39.917969 26.839844 40.0625 27.871094 40.101562 29.03125 C 40.78125 29.550781 41.527344 30.214844 42.105469 30.914062 C 42.203125 32.808594 42.203125 34.820312 41.875 36.675781 C 41.234375 35.8125 40.65625 35.199219 39.644531 34.183594 C 39.417969 35.5625 38.910156 37.71875 38.289062 39.167969 C 39.167969 40.128906 40.074219 41.339844 40.640625 42.222656 C 40.3125 43.359375 39.667969 44.890625 38.984375 46.167969 C 38.171875 45.121094 37.601562 44.273438 36.535156 43.023438 C 35.480469 44.964844 34.246094 46.9375 32.886719 48.75 C 33.808594 49.84375 34.65625 50.984375 35.46875 52.144531 C 34.699219 53.210938 33.882812 54.265625 32.984375 55.269531 C 32.140625 54.113281 31.246094 52.957031 30.371094 51.8125 C 29.144531 53.238281 27.90625 54.6875 26.414062 56 L 33.292969 56 C 37.71875 50.863281 40.933594 45.175781 42.242188 38.746094 C 43.59375 32.273438 42.527344 25.421875 38.351562 20.539062 "/>
<path style=" stroke:none;fill-rule:nonzero;fill:rgb(15.620422%,33.56781%,65.379333%);fill-opacity:1;" d="M 30.542969 50.503906 C 34.628906 45.515625 37.859375 40.171875 38.988281 33.972656 C 40.214844 27.464844 38.5 21.136719 34.203125 16.429688 L 33.007812 15.988281 C 33.414062 16.675781 33.804688 17.386719 34.128906 18.109375 L 35.683594 18.828125 C 36.789062 20.628906 37.671875 22.527344 38.148438 24.589844 C 37.292969 24.046875 36.417969 23.484375 35.546875 23.007812 C 35.679688 23.941406 35.714844 24.789062 35.734375 25.773438 C 36.722656 26.460938 37.746094 27.191406 38.699219 28.039062 C 38.792969 29.765625 38.667969 31.476562 38.402344 33.074219 C 37.359375 32.058594 36.269531 31.164062 35.203125 30.414062 C 34.933594 31.890625 34.402344 33.558594 33.785156 35.050781 C 34.875 35.921875 36.074219 37.0625 37.121094 38.210938 C 36.667969 39.53125 36.121094 40.765625 35.46875 41.960938 C 34.410156 40.824219 33.253906 39.632812 32.09375 38.621094 C 31.386719 40.007812 29.949219 42.234375 28.683594 43.949219 C 29.835938 45.136719 30.90625 46.375 31.960938 47.609375 C 31.207031 48.660156 30.359375 49.667969 29.476562 50.636719 C 28.402344 49.398438 27.398438 48.132812 26.28125 46.929688 C 24.589844 48.898438 23.167969 50.433594 21.144531 52.136719 C 22.34375 53.585938 24.148438 55.996094 24.148438 55.996094 L 25.171875 55.996094 C 27.066406 54.308594 28.886719 52.417969 30.542969 50.503906 "/>
<path style=" stroke:none;fill-rule:nonzero;fill:rgb(15.620422%,33.56781%,65.379333%);fill-opacity:1;" d="M 19 42.984375 C 23.921875 37.652344 27.816406 31.886719 28.972656 25.007812 C 29.894531 19.519531 28.074219 14.351562 23.71875 10.855469 C 21.078125 8.59375 17.796875 7.804688 14.375 7.402344 C 14.761719 7.53125 15.136719 7.707031 15.507812 7.867188 L 15.714844 7.832031 C 17.621094 8.144531 19.449219 8.78125 21.082031 9.675781 C 20.195312 9.679688 19.277344 9.667969 18.390625 9.738281 C 18.761719 10.078125 19.152344 10.460938 19.476562 10.8125 C 20.667969 10.792969 21.832031 10.816406 22.976562 10.890625 C 24.109375 11.726562 25.265625 12.84375 25.914062 13.992188 C 24.589844 13.691406 22.765625 13.425781 21.136719 13.289062 C 21.347656 13.773438 21.5625 14.269531 21.742188 14.785156 C 23.546875 15.050781 25.339844 15.378906 27.085938 15.824219 C 27.65625 17.011719 28.097656 18.269531 28.28125 19.589844 C 26.359375 18.910156 24.386719 18.257812 22.371094 17.847656 C 22.421875 18.492188 22.425781 19.167969 22.429688 19.832031 C 24.511719 20.433594 26.546875 21.132812 28.523438 22.027344 C 28.527344 23.367188 28.390625 24.640625 28.089844 25.851562 C 26.097656 24.863281 24.078125 23.890625 21.976562 23.171875 C 21.707031 24.351562 21.359375 25.5 20.945312 26.617188 C 22.96875 27.652344 24.972656 28.710938 26.882812 29.957031 C 26.527344 30.980469 25.992188 32.09375 25.382812 33.09375 C 23.503906 31.816406 21.628906 30.566406 19.671875 29.476562 C 19.003906 30.859375 18.167969 32.277344 17.160156 33.574219 C 18.90625 34.953125 20.691406 36.378906 22.375 37.902344 C 21.820312 38.734375 21.082031 39.699219 20.246094 40.574219 C 19.015625 39.277344 16.96875 37.445312 15.269531 36.003906 C 14.0625 37.464844 12.632812 39.074219 11.195312 40.269531 C 12.289062 41.421875 15.542969 45.34375 15.542969 45.34375 C 14.894531 45.992188 14.085938 46.660156 13.246094 47.261719 C 13.246094 47.261719 9.929688 42.996094 9.105469 41.976562 C 7.144531 43.53125 5.566406 44.621094 3.269531 45.84375 C 4.1875 47.398438 6.445312 51.601562 6.445312 51.601562 C 5.867188 51.960938 5.253906 52.292969 4.644531 52.515625 C 3.582031 50.742188 2.296875 48.175781 1.613281 46.707031 C 0.953125 47.074219 0.285156 47.304688 0.285156 47.304688 L 0.285156 54.96875 C 7.210938 52.71875 13.59375 48.738281 19 42.984375 "/>
<path style=" stroke:none;fill-rule:nonzero;fill:rgb(15.620422%,33.56781%,65.379333%);fill-opacity:1;" d="M 46.0625 38.632812 L 46.046875 38.632812 C 45.921875 39.597656 45.847656 40.585938 45.671875 41.503906 L 45.367188 41.085938 C 45.039062 43.074219 44.554688 44.917969 43.867188 46.761719 L 44.347656 48.082031 C 43.953125 49.417969 43.457031 50.847656 42.820312 52.34375 C 42.667969 51.890625 42.386719 51.34375 42.125 50.925781 C 41.265625 52.640625 40.242188 54.46875 39.222656 55.996094 L 41.796875 55.996094 C 43.203125 53.277344 44.300781 50.398438 45.109375 47.425781 C 45.785156 44.652344 46.402344 41.679688 46.0625 38.632812 "/>
<path style=" stroke:none;fill-rule:nonzero;fill:rgb(15.620422%,33.56781%,65.379333%);fill-opacity:1;" d="M 43.121094 28.402344 L 42.957031 28.242188 C 43.222656 29.480469 43.339844 30.503906 43.496094 32.128906 C 44.007812 32.6875 44.621094 33.628906 44.621094 33.628906 C 44.6875 35.523438 44.574219 37.429688 44.179688 39.386719 L 43.140625 38.097656 C 42.824219 39.894531 42.382812 41.566406 41.71875 43.402344 L 42.878906 45.414062 C 42.539062 46.609375 41.878906 48.269531 41.238281 49.597656 C 40.808594 48.894531 40.398438 48.125 39.957031 47.507812 C 38.917969 49.53125 37.675781 51.503906 36.328125 53.398438 L 37.941406 56 C 37.945312 55.996094 38.308594 55.996094 38.3125 56 C 42.203125 50.21875 44.8125 43.851562 45.082031 36.605469 C 45.214844 33.570312 44.265625 30.929688 43.121094 28.402344 "/>
<g clip-path="url(#clip1)" clip-rule="nonzero">
<path style=" stroke:none;fill-rule:nonzero;fill:rgb(15.620422%,33.56781%,65.379333%);fill-opacity:1;" d="M 0.285156 7.796875 L 2.519531 7.257812 C 12.21875 5.253906 22.085938 7.203125 29.855469 12.148438 C 38.078125 17.347656 43.882812 25.769531 45.976562 34.632812 C 47.707031 41.609375 47.15625 49.566406 44.707031 55.996094 L 56.308594 55.996094 L 56.308594 0 L 0.28125 0 L 0.28125 7.796875 L 0.285156 7.796875 "/>
</g>
<path style=" stroke:none;fill-rule:nonzero;fill:rgb(15.620422%,33.56781%,65.379333%);fill-opacity:1;" d="M 16.195312 55.996094 L 19.796875 55.996094 C 19.796875 55.996094 19.015625 54.832031 18.621094 54.210938 C 17.984375 54.671875 17.175781 55.390625 16.195312 55.996094 "/>
<path style=" stroke:none;fill-rule:nonzero;fill:rgb(15.620422%,33.56781%,65.379333%);fill-opacity:1;" d="M 0.285156 55.6875 L 0.285156 55.992188 L 6.417969 55.992188 L 5.191406 53.800781 C 3.582031 54.539062 1.976562 55.148438 0.285156 55.6875 "/>
<path style=" stroke:none;fill-rule:nonzero;fill:rgb(15.620422%,33.56781%,65.379333%);fill-opacity:1;" d="M 20.949219 24.261719 C 21.917969 20.980469 22.089844 16.753906 20.507812 13.695312 C 19.578125 11.683594 17.695312 9.808594 15.707031 8.785156 C 12.730469 7.136719 8.808594 6.898438 5.296875 7.5 L 6.539062 7.636719 L 6.714844 7.554688 C 8.34375 7.433594 10.054688 7.488281 11.570312 7.824219 C 11.074219 7.960938 10.222656 8.242188 9.621094 8.492188 C 9.960938 8.613281 10.390625 8.835938 10.6875 9.023438 C 11.335938 8.792969 12.683594 8.433594 13.347656 8.296875 C 13.933594 8.476562 15.449219 9.171875 16.390625 9.859375 C 15.277344 9.976562 13.757812 10.195312 12.539062 10.476562 C 12.824219 10.734375 13.074219 11.03125 13.285156 11.363281 C 14.472656 11.140625 16.207031 10.941406 17.703125 10.886719 C 18.464844 11.542969 19.082031 12.332031 19.503906 13.152344 C 17.859375 13.035156 15.667969 13.066406 14.328125 13.210938 C 14.460938 13.457031 14.65625 14.066406 14.738281 14.4375 C 16.398438 14.363281 19.121094 14.484375 20.253906 14.648438 C 20.628906 15.550781 20.84375 16.515625 20.929688 17.535156 C 19.027344 17.15625 16.785156 16.839844 15.039062 16.757812 C 15.058594 17.320312 15.035156 17.859375 14.984375 18.386719 C 17.0625 18.601562 19.082031 18.976562 21.039062 19.484375 C 21.015625 20.476562 20.871094 21.710938 20.601562 22.664062 C 19.050781 22.109375 16.578125 21.378906 14.480469 20.953125 C 14.265625 21.816406 13.992188 22.65625 13.621094 23.476562 C 15.671875 24.160156 17.695312 25.050781 19.636719 26.011719 C 19.320312 26.933594 18.859375 27.964844 18.425781 28.726562 C 16.484375 27.640625 14.484375 26.570312 12.507812 25.722656 C 11.90625 26.820312 11.148438 27.988281 10.425781 28.945312 C 12.355469 30.121094 14.179688 31.394531 15.996094 32.753906 C 15.449219 33.546875 14.675781 34.503906 14.203125 35.074219 C 12.46875 33.628906 8.902344 30.789062 8.902344 30.789062 C 7.847656 32.058594 6.949219 33.003906 5.628906 34.019531 C 7.09375 35.523438 9.011719 37.652344 10.203125 39.140625 C 9.589844 39.785156 8.984375 40.292969 8.261719 40.796875 C 6.804688 39.011719 5.058594 36.757812 4.039062 35.351562 C 2.613281 36.46875 1.742188 37.074219 0.289062 37.832031 L 0.289062 39.917969 L 2.601562 44.550781 C 2.074219 44.886719 1.648438 45.097656 0.976562 45.382812 L 0.285156 44.03125 L 0.285156 46.46875 C 9.21875 42.503906 18.304688 33.757812 20.949219 24.261719 "/>
<path style=" stroke:none;fill-rule:nonzero;fill:rgb(15.620422%,33.56781%,65.379333%);fill-opacity:1;" d="M 34.390625 30.757812 C 35.890625 24.570312 34.46875 18.246094 30.203125 13.644531 C 27.933594 11.195312 25.410156 10.371094 23.632812 9.824219 C 24.085938 10.125 24.609375 10.585938 25.125 11.105469 L 26.414062 11.261719 C 27.710938 11.933594 28.890625 12.878906 29.964844 14.003906 C 30.351562 14.433594 30.773438 14.871094 31.050781 15.335938 C 29.984375 15.03125 28.949219 14.667969 27.851562 14.429688 C 28.222656 15.011719 28.492188 15.582031 28.761719 16.25 C 29.992188 16.597656 31.203125 17.027344 32.398438 17.457031 C 33.167969 18.902344 33.722656 20.464844 33.988281 22.109375 C 32.613281 21.421875 31.238281 20.753906 29.816406 20.195312 C 29.921875 21.003906 29.960938 21.832031 29.925781 22.632812 C 31.480469 23.347656 33.226562 24.304688 34.304688 24.996094 C 34.339844 26.132812 34.230469 28.15625 33.894531 29.453125 C 32.652344 28.546875 30.863281 27.382812 29.414062 26.636719 C 29.214844 27.75 28.6875 29.496094 28.128906 30.722656 C 29.648438 31.746094 31.152344 32.800781 32.59375 34.039062 C 32.152344 35.25 31.589844 36.414062 30.984375 37.546875 C 29.542969 36.3125 28.085938 35.128906 26.5625 33.992188 C 25.699219 35.695312 24.742188 37.230469 23.441406 38.828125 C 24.902344 40.175781 26.296875 41.492188 27.691406 42.9375 C 27.007812 43.929688 26.242188 44.910156 25.351562 45.839844 C 24.019531 44.40625 22.65625 42.949219 21.261719 41.582031 C 19.820312 43.25 18.1875 44.996094 16.480469 46.429688 C 17.265625 47.25 18.964844 49.238281 20.199219 51.011719 C 19.351562 51.730469 18.558594 52.421875 17.710938 53.039062 L 14.121094 48.410156 C 11.902344 50.132812 9.554688 51.5625 7.191406 52.851562 L 9.078125 55.996094 L 14.917969 55.996094 C 23.84375 49.902344 31.910156 40.847656 34.390625 30.757812 "/>
</g>
</svg>
