<?xml version="1.0" encoding="UTF-8"?>
<svg xmlns="http://www.w3.org/2000/svg" xmlns:xlink="http://www.w3.org/1999/xlink" width="56pt" height="56pt" viewBox="0 0 56 56" version="1.1">
<g id="surface1">
<rect x="0" y="0" width="56" height="56" style="fill:rgb(12.763977%,21.51947%,18.77594%);fill-opacity:1;stroke:none;"/>
<path style=" stroke:none;fill-rule:nonzero;fill:rgb(100%,100%,100%);fill-opacity:1;" d="M 43.339844 18.308594 C 40.285156 18.871094 36.734375 20.175781 34.996094 20.769531 C 34.296875 21.007812 32.546875 21.699219 32.546875 21.699219 C 32.546875 21.699219 33.613281 20.882812 34.425781 20.367188 C 36.253906 19.21875 39.519531 18.015625 41.5625 16.617188 C 46.785156 13.046875 47.148438 10.277344 47.148438 10.277344 C 47.148438 10.277344 44.40625 10.671875 41.109375 12.808594 C 39.878906 13.605469 37.65625 15.066406 35.957031 17.117188 C 31.933594 21.980469 27.734375 24.203125 25.242188 26.027344 C 25.542969 25.585938 25.828125 25.136719 26.121094 24.695312 C 26.214844 24.558594 26.304688 24.425781 26.398438 24.292969 C 26.578125 24.035156 26.765625 23.785156 26.953125 23.535156 C 27 23.476562 27.046875 23.417969 27.089844 23.359375 C 27.242188 23.164062 27.390625 22.96875 27.542969 22.777344 C 27.574219 22.746094 27.601562 22.710938 27.628906 22.675781 C 28.695312 21.351562 29.828125 20.082031 30.859375 18.726562 C 30.976562 18.578125 31.089844 18.433594 31.195312 18.292969 C 32.941406 15.914062 34.3125 13.390625 34.40625 10.40625 C 34.378906 10.394531 34.429688 10.417969 34.40625 10.40625 C 31.566406 11.675781 28.566406 15.53125 27.097656 18.78125 C 26.074219 21.035156 25.597656 24.410156 24.046875 26.421875 C 23.015625 27.742188 21.140625 28.832031 19.585938 30.117188 C 20.429688 28.71875 20.894531 27.089844 20.917969 27 C 23.070312 19.515625 20.003906 16.417969 20.003906 16.417969 C 20.003906 16.417969 17.984375 18.003906 18.222656 22.851562 C 18.253906 23.527344 18.480469 24.253906 18.628906 24.914062 C 18.777344 25.582031 18.953125 26.242188 19.082031 26.914062 C 19.347656 28.320312 19.148438 29.5625 18.242188 30.707031 C 17.550781 31.574219 16.738281 32.265625 15.925781 33.015625 C 14.191406 34.609375 12.414062 36.320312 11.21875 38.367188 C 8.875 42.386719 8.703125 45.722656 8.703125 45.722656 L 9.953125 45.722656 C 9.953125 45.722656 10.117188 42.652344 11.429688 40.730469 C 12.515625 39.242188 14.445312 38.800781 16.273438 38.996094 C 19.914062 39.390625 24.476562 41.566406 29.792969 38.640625 C 26.023438 36.46875 20.078125 36.953125 18.152344 37.164062 C 17.882812 37.195312 17.628906 37.226562 17.378906 37.261719 C 16.957031 37.320312 16.535156 37.382812 16.117188 37.460938 C 15.46875 37.578125 14.816406 37.707031 14.179688 37.886719 C 14 37.9375 13.824219 37.992188 13.648438 38.054688 C 13.605469 38.070312 13.566406 38.089844 13.523438 38.101562 C 13.398438 38.152344 13.269531 38.199219 13.148438 38.25 C 13.035156 38.296875 12.925781 38.351562 12.820312 38.40625 C 12.777344 38.421875 12.738281 38.441406 12.699219 38.464844 C 12.550781 38.539062 12.40625 38.617188 12.265625 38.703125 C 13.40625 36.773438 14.675781 35.558594 15.640625 34.859375 C 17.90625 33.230469 20.265625 33.878906 24.59375 34.585938 C 35.347656 36.347656 38.363281 33.875 38.363281 33.875 C 38.363281 33.875 35.488281 31.878906 28.753906 31.675781 C 27.058594 31.625 24.546875 31.613281 22.46875 31.898438 C 20.527344 32.160156 18.652344 32.441406 17.019531 33.226562 C 17.144531 33.109375 17.203125 33.054688 17.3125 32.953125 L 17.476562 32.816406 C 17.480469 32.8125 17.484375 32.808594 17.484375 32.808594 C 17.710938 32.621094 18.015625 32.378906 18.179688 32.242188 C 18.945312 31.597656 19.75 30.992188 20.558594 30.398438 C 22.828125 28.714844 25.195312 27.238281 27.097656 27.238281 C 30.714844 27.238281 33.332031 29.089844 36.726562 29.472656 C 40.820312 29.9375 43.289062 28.953125 43.289062 28.953125 C 43.289062 28.953125 42.199219 27.042969 37.210938 26.046875 C 32.109375 25.027344 28.746094 25.679688 26.148438 26.46875 C 27.058594 25.910156 30.726562 22.96875 34.578125 21.941406 C 37.308594 21.210938 40.527344 21.808594 43.054688 21.613281 C 44.582031 21.476562 46.507812 21.144531 47.964844 20.640625 C 51.015625 19.582031 51.296875 18.597656 51.296875 18.597656 C 51.296875 18.597656 48.648438 17.332031 43.339844 18.308594 "/>
</g>
</svg>
