<?xml version="1.0" encoding="UTF-8"?>
<svg xmlns="http://www.w3.org/2000/svg" xmlns:xlink="http://www.w3.org/1999/xlink" width="56pt" height="56pt" viewBox="0 0 56 56" version="1.1">
<g id="surface1">
<rect x="0" y="0" width="56" height="56" style="fill:rgb(95.666504%,95.776367%,96.775818%);fill-opacity:1;stroke:none;"/>
<path style=" stroke:none;fill-rule:nonzero;fill:rgb(71.389771%,42.796326%,18.762207%);fill-opacity:1;" d="M 50.679688 28 C 50.679688 40.53125 40.527344 50.679688 28 50.679688 C 15.472656 50.679688 5.320312 40.53125 5.320312 28 C 5.320312 15.476562 15.472656 5.320312 28 5.320312 C 40.527344 5.320312 50.679688 15.476562 50.679688 28 "/>
<path style=" stroke:none;fill-rule:nonzero;fill:rgb(11.31134%,15.066528%,29.493713%);fill-opacity:1;" d="M 49.011719 28 C 49.011719 39.605469 39.605469 49.011719 28 49.011719 C 16.394531 49.011719 6.988281 39.605469 6.988281 28 C 6.988281 16.394531 16.394531 6.988281 28 6.988281 C 39.605469 6.988281 49.011719 16.394531 49.011719 28 "/>
<path style=" stroke:none;fill-rule:nonzero;fill:rgb(25.184631%,57.221985%,82.777405%);fill-opacity:1;" d="M 44.140625 16.480469 L 34.90625 16.480469 L 11.855469 39.523438 L 34.90625 39.523438 L 44.140625 16.480469 "/>
<path style=" stroke:none;fill-rule:nonzero;fill:rgb(100%,100%,100%);fill-opacity:1;" d="M 33.339844 25.355469 C 32.984375 25.179688 32.742188 24.820312 32.742188 24.402344 C 32.742188 23.820312 33.214844 23.347656 33.796875 23.347656 C 34.378906 23.347656 34.851562 23.824219 34.851562 24.402344 C 34.851562 24.824219 34.605469 25.1875 34.25 25.355469 L 34.246094 25.65625 C 34.582031 25.6875 34.96875 25.820312 35.214844 25.941406 C 35.320312 25.933594 35.460938 25.929688 35.601562 25.929688 C 36.9375 25.929688 37.871094 26.808594 37.871094 28.019531 C 37.871094 28.773438 37.199219 29.453125 36.445312 29.453125 C 35.691406 29.453125 35.007812 28.710938 35.144531 27.964844 C 35.144531 27.964844 35.0625 28.222656 35.0625 28.539062 C 35.0625 28.738281 35.0625 32.347656 35.0625 32.347656 C 35.03125 32.78125 34.449219 35.175781 31.757812 35.175781 C 29.066406 35.175781 28.480469 32.78125 28.449219 32.347656 C 28.449219 32.347656 28.449219 28.738281 28.449219 28.539062 C 28.449219 28.222656 28.367188 27.964844 28.367188 27.964844 C 28.515625 28.683594 27.820312 29.453125 27.066406 29.453125 C 26.3125 29.453125 25.640625 28.777344 25.640625 28.019531 C 25.640625 26.808594 26.574219 25.929688 27.914062 25.929688 C 28.050781 25.929688 28.191406 25.933594 28.300781 25.941406 C 28.539062 25.816406 28.953125 25.675781 29.261719 25.65625 L 29.261719 25.351562 C 28.910156 25.179688 28.664062 24.820312 28.664062 24.402344 C 28.664062 23.820312 29.140625 23.347656 29.722656 23.347656 C 30.304688 23.347656 30.78125 23.824219 30.78125 24.402344 C 30.78125 24.824219 30.53125 25.191406 30.175781 25.359375 L 30.171875 25.753906 C 30.261719 25.785156 30.355469 25.816406 30.445312 25.855469 C 30.605469 25.503906 30.933594 25.230469 31.308594 25.105469 L 31.308594 24.785156 C 30.953125 24.613281 30.703125 24.253906 30.703125 23.832031 C 30.703125 23.246094 31.175781 22.777344 31.761719 22.777344 C 32.34375 22.777344 32.820312 23.246094 32.820312 23.832031 C 32.820312 24.253906 32.570312 24.613281 32.21875 24.785156 L 32.214844 25.105469 C 32.585938 25.230469 32.910156 25.507812 33.074219 25.855469 C 33.160156 25.816406 33.253906 25.785156 33.34375 25.753906 L 33.339844 25.355469 "/>
<path style=" stroke:none;fill-rule:nonzero;fill:rgb(91.941833%,10.496521%,18.927002%);fill-opacity:1;" d="M 37.449219 28.019531 C 37.457031 27.039062 36.78125 26.238281 35.40625 26.238281 C 34.488281 26.238281 33.402344 27.003906 33.402344 28.964844 C 33.402344 30.5 33.402344 31.875 33.402344 31.875 C 33.796875 31.613281 34.347656 31.375 34.648438 31.371094 C 34.648438 30.511719 34.648438 28.808594 34.648438 28.660156 C 34.648438 27.621094 35.394531 27.316406 35.742188 27.316406 C 35.542969 27.496094 35.429688 27.722656 35.429688 28.019531 C 35.429688 28.574219 35.886719 29.03125 36.4375 29.03125 C 36.992188 29.03125 37.421875 28.625 37.449219 28.019531 "/>
<path style=" stroke:none;fill-rule:nonzero;fill:rgb(91.941833%,10.496521%,18.927002%);fill-opacity:1;" d="M 26.0625 28.019531 C 26.054688 27.039062 26.726562 26.238281 28.101562 26.238281 C 29.019531 26.238281 30.105469 27.003906 30.105469 28.964844 C 30.105469 30.5 30.105469 31.875 30.105469 31.875 C 29.710938 31.613281 29.160156 31.375 28.859375 31.371094 C 28.859375 30.511719 28.859375 28.808594 28.859375 28.660156 C 28.859375 27.621094 28.113281 27.316406 27.761719 27.316406 C 27.960938 27.496094 28.082031 27.722656 28.082031 28.019531 C 28.082031 28.574219 27.621094 29.03125 27.070312 29.03125 C 26.515625 29.03125 26.085938 28.625 26.0625 28.019531 "/>
<path style=" stroke:none;fill-rule:nonzero;fill:rgb(91.941833%,10.496521%,18.927002%);fill-opacity:1;" d="M 31.753906 34.75 C 34.0625 34.75 34.585938 32.820312 34.652344 32.328125 C 34.652344 32.328125 34.652344 31.78125 34.652344 31.675781 C 33.941406 31.851562 33.304688 32.230469 32.867188 32.800781 C 32.714844 32.136719 32.296875 31.574219 31.753906 31.203125 C 31.210938 31.570312 30.796875 32.136719 30.636719 32.800781 C 30.207031 32.230469 29.570312 31.851562 28.855469 31.675781 C 28.855469 31.78125 28.855469 32.328125 28.855469 32.328125 C 28.925781 32.820312 29.449219 34.75 31.753906 34.75 "/>
<path style=" stroke:none;fill-rule:nonzero;fill:rgb(91.941833%,10.496521%,18.927002%);fill-opacity:1;" d="M 31.917969 24.554688 L 31.917969 25.355469 C 32.308594 25.410156 32.660156 25.683594 32.78125 26.007812 C 32.3125 26.3125 31.933594 26.773438 31.753906 27.347656 C 31.574219 26.773438 31.195312 26.3125 30.726562 26.007812 C 30.871094 25.683594 31.203125 25.410156 31.589844 25.355469 L 31.589844 24.550781 C 31.265625 24.480469 31.015625 24.183594 31.015625 23.832031 C 31.015625 23.421875 31.347656 23.089844 31.757812 23.089844 C 32.167969 23.089844 32.5 23.421875 32.5 23.832031 C 32.5 24.1875 32.25 24.480469 31.917969 24.554688 "/>
<path style=" stroke:none;fill-rule:nonzero;fill:rgb(91.941833%,10.496521%,18.927002%);fill-opacity:1;" d="M 29.882812 25.125 L 29.882812 25.976562 C 30.886719 26.179688 31.601562 27.242188 31.601562 28.226562 C 31.601562 29.269531 31.601562 30.953125 31.601562 30.953125 C 31.128906 31.21875 30.671875 31.773438 30.519531 32.238281 C 30.480469 32.195312 30.449219 32.148438 30.398438 32.101562 C 30.398438 32.101562 30.398438 30.105469 30.398438 28.578125 C 30.398438 27.515625 29.828125 26.445312 28.808594 26.09375 C 28.808594 26.09375 29.140625 25.957031 29.550781 25.957031 L 29.550781 25.121094 C 29.222656 25.050781 28.976562 24.753906 28.976562 24.402344 C 28.976562 23.992188 29.308594 23.660156 29.71875 23.660156 C 30.128906 23.660156 30.460938 23.992188 30.460938 24.402344 C 30.460938 24.753906 30.210938 25.050781 29.882812 25.125 "/>
<path style=" stroke:none;fill-rule:nonzero;fill:rgb(91.941833%,10.496521%,18.927002%);fill-opacity:1;" d="M 33.957031 25.125 L 33.957031 25.957031 C 34.367188 25.953125 34.699219 26.09375 34.699219 26.09375 C 33.679688 26.445312 33.113281 27.527344 33.113281 28.574219 C 33.113281 30.105469 33.113281 32.101562 33.113281 32.101562 C 33.058594 32.148438 33.027344 32.191406 32.984375 32.234375 C 32.839844 31.773438 32.382812 31.214844 31.90625 30.953125 C 31.90625 30.953125 31.90625 29.265625 31.90625 28.226562 C 31.90625 27.242188 32.617188 26.175781 33.628906 25.976562 L 33.628906 25.121094 C 33.300781 25.046875 33.054688 24.753906 33.054688 24.402344 C 33.054688 23.992188 33.386719 23.660156 33.792969 23.660156 C 34.207031 23.660156 34.539062 23.992188 34.539062 24.402344 C 34.539062 24.753906 34.285156 25.054688 33.957031 25.125 "/>
</g>
</svg>
