<?xml version="1.0" encoding="UTF-8"?>
<svg xmlns="http://www.w3.org/2000/svg" xmlns:xlink="http://www.w3.org/1999/xlink" width="56pt" height="56pt" viewBox="0 0 56 56" version="1.1">
<g id="surface1">
<rect x="0" y="0" width="56" height="56" style="fill:rgb(95.666504%,95.776367%,96.775818%);fill-opacity:1;stroke:none;"/>
<path style=" stroke:none;fill-rule:nonzero;fill:rgb(100%,100%,100%);fill-opacity:1;" d="M 5.910156 28 C 5.910156 15.800781 15.800781 5.90625 28.003906 5.90625 C 40.199219 5.90625 50.09375 15.800781 50.09375 28 C 50.09375 40.203125 40.199219 50.089844 28.003906 50.089844 C 15.800781 50.089844 5.910156 40.203125 5.910156 28 "/>
<path style=" stroke:none;fill-rule:nonzero;fill:rgb(12.860107%,11.213684%,11.195374%);fill-opacity:1;" d="M 28.003906 6.5 C 16.144531 6.5 6.5 16.144531 6.5 28 C 6.5 39.851562 16.144531 49.5 28.003906 49.5 C 39.851562 49.5 49.5 39.851562 49.5 28 C 49.5 16.144531 39.851562 6.5 28.003906 6.5 Z M 28.003906 50.679688 C 15.492188 50.679688 5.320312 40.507812 5.320312 28 C 5.320312 15.496094 15.492188 5.320312 28.003906 5.320312 C 40.511719 5.320312 50.679688 15.496094 50.679688 28 C 50.679688 40.507812 40.511719 50.679688 28.003906 50.679688 "/>
<path style=" stroke:none;fill-rule:nonzero;fill:rgb(12.860107%,11.213684%,11.195374%);fill-opacity:1;" d="M 22.617188 25.175781 C 21.550781 25.1875 19.839844 25.355469 18.980469 25.382812 C 18.113281 25.40625 17.460938 24.609375 17.738281 23.792969 C 18.019531 22.976562 18.972656 20.257812 22.160156 17.230469 C 25.671875 13.902344 28.957031 12.917969 29.492188 12.777344 C 30.039062 12.632812 30.808594 12.8125 31.355469 13.25 C 35.660156 16.691406 35.011719 20.011719 37.917969 22.757812 C 39.933594 24.664062 38.859375 27.382812 37.210938 28.609375 C 34.78125 30.429688 26.914062 33.566406 24.699219 34.007812 C 23.027344 34.339844 21.875 34.050781 21.589844 33.136719 C 21.394531 32.488281 22.089844 30.167969 22.269531 28.699219 C 22.445312 27.296875 22.582031 25.410156 22.617188 25.175781 "/>
<path style=" stroke:none;fill-rule:evenodd;fill:rgb(91.615295%,12.159729%,15.800476%);fill-opacity:1;" d="M 30.53125 28.765625 C 31.222656 28.304688 31.800781 28.128906 31.792969 27.804688 C 31.785156 27.480469 31.101562 26.1875 29.472656 26.640625 C 27.839844 27.085938 26.644531 27.84375 25.847656 28.914062 C 25.847656 28.914062 26.328125 27.914062 26.972656 27.289062 C 27.617188 26.671875 27.824219 26.539062 27.824219 26.539062 C 27.824219 26.539062 26.679688 26.015625 25.753906 26.671875 C 24.832031 27.320312 24.300781 28.011719 24.0625 29.425781 C 23.828125 30.835938 24.175781 31.40625 24.511719 31.484375 C 24.84375 31.5625 25.671875 31.222656 26.101562 31.007812 C 26.53125 30.796875 29.84375 29.230469 30.53125 28.765625 "/>
<path style=" stroke:none;fill-rule:evenodd;fill:rgb(98.381042%,79.052734%,3.276062%);fill-opacity:1;" d="M 23.316406 25.128906 C 23.316406 25.128906 23.285156 26.734375 22.949219 28.648438 C 22.613281 30.5625 21.859375 32.867188 22.460938 33.257812 C 23.496094 33.921875 26.164062 32.988281 29.636719 31.507812 C 33.117188 30.027344 36.140625 28.921875 37.199219 27.605469 C 38.015625 26.59375 38.40625 25.53125 38.027344 24.28125 C 37.75 23.378906 36.242188 22.265625 35.886719 21.664062 C 35.53125 21.066406 33.203125 16.273438 32.019531 15.125 C 30.835938 13.980469 30.480469 13.308594 29.105469 13.777344 C 27.734375 14.246094 24.371094 15.878906 22.109375 18.390625 C 19.851562 20.898438 19.070312 22.394531 18.445312 24.125 C 18.339844 24.417969 18.828125 24.871094 19.800781 24.726562 C 20.777344 24.578125 25.472656 24.359375 28.074219 24.804688 C 30.667969 25.257812 34.785156 25.585938 35.808594 25.328125 C 36.824219 25.070312 37.28125 24.863281 36.652344 25.484375 C 35.691406 26.433594 34.300781 27.757812 29.132812 30.3125 C 28.035156 30.855469 24.199219 32.8125 23.457031 32.152344 C 22.902344 31.65625 23.382812 30.433594 23.726562 28.292969 C 23.992188 26.660156 24.136719 25.117188 24.136719 25.117188 L 23.316406 25.128906 "/>
<path style=" stroke:none;fill-rule:evenodd;fill:rgb(12.860107%,11.213684%,11.195374%);fill-opacity:1;" d="M 28.6875 18.71875 C 28.804688 18.492188 29.308594 17.765625 29.761719 17.65625 C 30.222656 17.550781 30.636719 17.804688 30.230469 18.132812 C 29.824219 18.460938 29.488281 18.507812 29.246094 18.660156 C 29.003906 18.816406 28.570312 18.945312 28.6875 18.71875 "/>
<path style=" stroke:none;fill-rule:evenodd;fill:rgb(98.381042%,79.052734%,3.276062%);fill-opacity:1;" d="M 31.773438 38.453125 C 31.773438 38.90625 31.285156 39.863281 29.511719 41.019531 C 28.925781 41.390625 27.542969 41.425781 26.164062 41.425781 L 25.925781 41.394531 C 25.5 41.160156 25.285156 40.851562 25.285156 40.457031 C 25.285156 40.261719 25.359375 39.964844 25.5 39.578125 C 25.636719 39.179688 25.707031 38.886719 25.707031 38.6875 L 25.636719 38.527344 L 25.566406 38.355469 C 25.566406 38.25 25.910156 38.050781 26.585938 37.761719 C 27.277344 37.472656 27.738281 37.328125 27.976562 37.328125 C 28.652344 37.328125 29.425781 37.441406 30.308594 37.667969 C 31.28125 37.914062 31.773438 38.175781 31.773438 38.453125 "/>
<path style=" stroke:none;fill-rule:nonzero;fill:rgb(100%,100%,100%);fill-opacity:1;" d="M 28.960938 39.230469 C 28.6875 39.027344 28.398438 38.972656 27.800781 38.875 C 27.628906 38.839844 27.367188 38.875 27.339844 38.875 C 27.386719 38.875 27.316406 38.894531 27.121094 38.933594 C 27.042969 39.195312 27.007812 39.339844 27.007812 39.363281 C 27.007812 39.699219 27.230469 39.867188 27.667969 39.867188 C 27.890625 39.867188 28.140625 39.8125 28.421875 39.707031 C 28.707031 39.59375 28.894531 39.332031 28.960938 39.230469 "/>
<path style=" stroke:none;fill-rule:evenodd;fill:rgb(98.381042%,79.052734%,3.276062%);fill-opacity:1;" d="M 24.160156 39.78125 C 24.160156 40.019531 24.074219 40.535156 23.902344 41.328125 C 23.539062 41.398438 23.1875 41.382812 22.835938 41.449219 C 22.417969 41.527344 22.046875 41.5625 21.730469 41.5625 C 21.085938 41.5625 20.695312 41.40625 20.550781 41.09375 C 20.503906 40.804688 20.46875 39.929688 20.421875 39.632812 C 20.289062 39.320312 19.480469 39.367188 18.910156 39.601562 C 18.621094 39.722656 18.640625 40.035156 18.265625 40.445312 C 17.902344 40.859375 17.507812 41.335938 17.019531 41.335938 C 16.011719 41.335938 15.53125 41.421875 15.308594 41.25 C 15.324219 41.019531 15.296875 40.203125 15.53125 39.695312 C 15.75 39.214844 15.859375 38.839844 15.859375 38.570312 L 15.789062 38.242188 L 15.742188 37.910156 C 15.742188 37.4375 16.300781 37.199219 17.417969 37.199219 C 18.042969 37.199219 18.46875 37.269531 18.691406 37.402344 C 18.816406 37.492188 18.898438 37.65625 18.921875 37.890625 C 18.953125 38.164062 18.847656 38.46875 18.972656 38.589844 L 19.375 38.421875 C 19.574219 38.257812 19.851562 37.992188 20.402344 37.921875 C 20.964844 37.851562 21.652344 37.648438 21.957031 37.648438 C 22.582031 37.648438 23.125 38.015625 23.703125 38.125 C 23.988281 38.519531 24.160156 39.289062 24.160156 39.78125 "/>
<path style=" stroke:none;fill-rule:evenodd;fill:rgb(98.381042%,79.052734%,3.276062%);fill-opacity:1;" d="M 41.171875 36.128906 C 40.96875 36.351562 40.347656 36.859375 39.316406 37.644531 C 38.367188 38.375 37.863281 38.800781 37.800781 38.933594 C 38.101562 39.195312 38.582031 39.46875 39.242188 39.75 C 39.824219 39.972656 40.410156 40.203125 41.007812 40.441406 C 40.996094 40.597656 40.632812 40.769531 39.921875 40.9375 C 39.292969 41.09375 38.777344 41.171875 38.367188 41.179688 C 38.101562 41.074219 37.582031 40.945312 36.808594 40.789062 C 36.246094 40.667969 35.679688 40.550781 35.113281 40.441406 C 34.878906 40.453125 34.683594 40.558594 34.527344 40.757812 C 34.289062 41.074219 34.148438 41.25 34.097656 41.285156 C 33.878906 41.472656 33.558594 41.558594 33.132812 41.542969 L 32.847656 41.542969 C 32.675781 41.347656 32.589844 41.207031 32.589844 41.105469 C 32.589844 41.007812 32.621094 40.859375 32.683594 40.660156 C 32.761719 40.457031 32.800781 40.304688 32.800781 40.203125 C 32.800781 40.097656 32.761719 39.941406 32.683594 39.726562 C 32.605469 39.503906 32.566406 39.34375 32.566406 39.238281 C 32.566406 39.035156 32.628906 38.835938 32.753906 38.644531 C 33.144531 38.550781 33.527344 38.191406 33.890625 37.558594 C 34.167969 37 34.453125 36.441406 34.738281 35.886719 C 35.035156 35.289062 35.3125 34.976562 35.558594 34.949219 C 35.71875 34.941406 35.949219 34.921875 36.246094 34.894531 L 36.621094 34.660156 C 36.78125 34.511719 36.980469 34.4375 37.210938 34.4375 L 38.34375 34.4375 L 38.417969 34.535156 C 38.335938 34.671875 37.890625 35.265625 37.066406 36.300781 C 36.488281 37.039062 36.199219 37.628906 36.199219 38.070312 L 36.316406 38.304688 C 36.398438 38.261719 37.023438 37.859375 38.203125 37.09375 C 38.988281 36.585938 39.691406 36.214844 40.300781 35.980469 C 40.679688 36.015625 40.96875 36.066406 41.171875 36.128906 "/>
</g>
</svg>
