<?xml version="1.0" encoding="UTF-8"?>
<svg xmlns="http://www.w3.org/2000/svg" xmlns:xlink="http://www.w3.org/1999/xlink" width="56pt" height="56pt" viewBox="0 0 56 56" version="1.1">
<g id="surface1">
<rect x="0" y="0" width="56" height="56" style="fill:rgb(95.666504%,95.776367%,96.775818%);fill-opacity:1;stroke:none;"/>
<rect x="0" y="0" width="56" height="56" style="fill:rgb(86.746216%,66.108704%,7.527161%);fill-opacity:1;stroke:none;"/>
<path style=" stroke:none;fill-rule:nonzero;fill:rgb(100%,100%,100%);fill-opacity:1;" d="M 28 48.675781 C 16.640625 48.675781 8.082031 39.476562 8.082031 28.082031 C 8.082031 16.691406 16.640625 7.402344 28 7.402344 C 39.359375 7.402344 47.917969 16.691406 47.917969 28.082031 C 47.917969 39.476562 39.359375 48.675781 28 48.675781 Z M 28 5.320312 C 15.472656 5.320312 6.035156 15.511719 6.035156 28.039062 C 6.035156 40.566406 15.472656 50.679688 28 50.679688 C 40.527344 50.679688 49.964844 40.566406 49.964844 28.039062 C 49.964844 15.511719 40.527344 5.320312 28 5.320312 "/>
<path style=" stroke:none;fill-rule:nonzero;fill:rgb(100%,100%,100%);fill-opacity:1;" d="M 41.328125 42.011719 L 41.328125 38.421875 L 26.550781 25.011719 C 25.96875 24.472656 26.160156 24.179688 26.714844 24.179688 C 27.355469 24.179688 37.78125 24.179688 37.78125 24.179688 L 32.203125 28.675781 L 34.257812 30.652344 L 45.886719 21.609375 L 28.703125 21.605469 C 26.398438 21.605469 25.546875 21.65625 25.003906 21.820312 C 24.480469 21.976562 23.800781 22.304688 23.4375 23.105469 C 23.167969 23.695312 23.15625 24.75 23.535156 25.40625 C 24.0625 26.3125 24.953125 27.113281 27.238281 29.527344 C 24.976562 28.132812 18.941406 24.183594 18.941406 24.183594 C 18.941406 24.183594 20.28125 24.183594 20.617188 24.183594 C 20.617188 23.539062 20.613281 21.609375 20.613281 21.609375 L 9.957031 21.609375 L 41.328125 42.011719 "/>
</g>
</svg>
