<?xml version="1.0" encoding="UTF-8"?>
<svg xmlns="http://www.w3.org/2000/svg" xmlns:xlink="http://www.w3.org/1999/xlink" width="56pt" height="56pt" viewBox="0 0 56 56" version="1.1">
<g id="surface1">
<rect x="0" y="0" width="56" height="56" style="fill:rgb(26.36261%,58.778381%,84.693909%);fill-opacity:1;stroke:none;"/>
<path style=" stroke:none;fill-rule:evenodd;fill:rgb(100%,100%,100%);fill-opacity:1;" d="M 18.941406 27.53125 C 18.941406 31.109375 16.042969 34 12.46875 34 C 8.898438 34 6 31.109375 6 27.53125 C 6 23.949219 8.898438 21.058594 12.46875 21.058594 C 16.042969 21.058594 18.941406 23.949219 18.941406 27.53125 "/>
<path style=" stroke:none;fill-rule:evenodd;fill:rgb(50.180054%,70.730591%,89.686584%);fill-opacity:1;" d="M 50.828125 27.53125 C 50.828125 31.109375 47.925781 34 44.355469 34 C 40.78125 34 37.886719 31.109375 37.886719 27.53125 C 37.886719 23.949219 40.78125 21.058594 44.355469 21.058594 C 47.925781 21.058594 50.828125 23.949219 50.828125 27.53125 "/>
<path style=" stroke:none;fill-rule:evenodd;fill:rgb(66.845703%,79.483032%,92.912292%);fill-opacity:1;" d="M 34.886719 27.53125 C 34.886719 31.109375 31.984375 34 28.414062 34 C 24.84375 34 21.941406 31.109375 21.941406 27.53125 C 21.941406 23.949219 24.84375 21.058594 28.414062 21.058594 C 31.984375 21.058594 34.886719 23.949219 34.886719 27.53125 "/>
</g>
</svg>
