<?xml version="1.0" encoding="UTF-8"?>
<svg xmlns="http://www.w3.org/2000/svg" xmlns:xlink="http://www.w3.org/1999/xlink" width="56pt" height="56pt" viewBox="0 0 56 56" version="1.1">
<g id="surface1">
<rect x="0" y="0" width="56" height="56" style="fill:rgb(95.666504%,95.776367%,96.775818%);fill-opacity:1;stroke:none;"/>
<path style=" stroke:none;fill-rule:nonzero;fill:rgb(95.704651%,44.577026%,8.479309%);fill-opacity:1;" d="M 5.320312 28 C 5.320312 15.472656 15.472656 5.320312 28 5.320312 C 40.527344 5.320312 50.679688 15.472656 50.679688 28 C 50.679688 40.527344 40.527344 50.679688 28 50.679688 C 15.472656 50.679688 5.320312 40.527344 5.320312 28 "/>
<path style=" stroke:none;fill-rule:nonzero;fill:rgb(6.266785%,5.734253%,5.047607%);fill-opacity:1;" d="M 5.320312 28 C 5.320312 15.472656 15.472656 5.320312 28 5.320312 C 40.527344 5.320312 50.679688 15.472656 50.679688 28 C 50.679688 40.527344 40.527344 50.679688 28 50.679688 C 15.472656 50.679688 5.320312 40.527344 5.320312 28 M 27.964844 5.765625 C 14.820312 5.765625 6.691406 17.34375 6.691406 27.984375 C 6.691406 37.226562 13.207031 49.363281 28.023438 49.199219 C 37.875 49.085938 47.734375 41.066406 47.734375 27.984375 C 47.734375 16.84375 39.992188 9.605469 32.085938 9.605469 C 24.175781 9.605469 19.609375 16.84375 19.609375 17.957031 C 19.609375 17.957031 19.730469 18 20.113281 17.789062 C 21.617188 15.5625 24.789062 10.453125 31.859375 10.496094 C 36.320312 10.519531 46.230469 13.503906 46.230469 27.984375 C 46.230469 39.957031 36.316406 47.804688 25.902344 47.75 C 13.09375 47.679688 7.695312 34.664062 7.695312 27.984375 C 7.695312 25.085938 8.863281 7.210938 27.964844 5.765625 Z M 36.59375 7.9375 C 35.144531 7.207031 33.363281 6.222656 29.300781 6.210938 C 18.996094 6.175781 8.835938 14.171875 8.75 27.984375 C 8.707031 35.777344 15.601562 45.980469 25.289062 46.082031 C 30.859375 46.132812 43.394531 42.070312 43.332031 27.535156 C 43.292969 17.789062 36.261719 13.726562 31.859375 13.726562 C 28.628906 13.726562 26.113281 15.691406 24.566406 18.40625 C 24.957031 19.238281 26.847656 18.179688 28.910156 16.066406 C 29.378906 16.144531 29.46875 16.566406 29.242188 16.957031 C 29.023438 17.34375 28.410156 22.691406 25.125 23.359375 C 25.125 23.371094 25.234375 23.527344 25.234375 23.527344 C 25.234375 23.527344 28.132812 22.914062 28.6875 19.574219 C 30.425781 19.644531 38.300781 21.5625 41.941406 26.199219 C 43.609375 36.726562 35.535156 43.183594 29.410156 44.96875 C 28.742188 43.792969 28.742188 42.796875 28.628906 42.179688 C 28.519531 41.570312 27.40625 34.722656 23.007812 33.101562 C 22.117188 33.328125 20.945312 36.28125 19.890625 36.445312 C 19.890625 36.445312 19.554688 36.113281 21.558594 34.164062 C 21.84375 33.890625 21.78125 33.492188 21.78125 33.492188 L 21.28125 33.492188 C 21.28125 33.492188 21.390625 32.882812 21.617188 32.714844 C 21.835938 32.546875 22.339844 31.824219 21.835938 31.214844 C 21.726562 31.074219 22.226562 30.429688 22.117188 29.261719 C 22.082031 28.875 22.273438 28.199219 22.339844 27.816406 C 22.507812 26.867188 21.726562 26.757812 21.28125 27.257812 C 20.835938 27.757812 20.503906 29.261719 20.390625 29.539062 C 20.28125 29.820312 19.609375 31.15625 19.554688 31.488281 C 19.5 31.824219 18.832031 35.277344 18.722656 35.554688 C 18.609375 35.835938 18.105469 35.835938 18.105469 35.835938 C 18.105469 35.835938 17.714844 35.277344 17.714844 34.941406 C 17.714844 34.664062 18.257812 34.046875 18.382812 33.660156 C 18.609375 32.992188 18.382812 32.769531 18.105469 33.160156 C 17.828125 33.546875 17.664062 34.71875 16.992188 34.996094 C 16.71875 35.113281 15.890625 34.484375 15.769531 34.777344 C 15.699219 34.933594 15.265625 35.886719 15.65625 35.722656 C 15.84375 35.644531 15.601562 35.386719 16.269531 35.109375 C 16.476562 35.023438 17.105469 36.554688 16.824219 36.949219 C 16.546875 37.335938 16.214844 37.058594 16.214844 37.058594 C 16.214844 37.058594 16.324219 38.171875 16.214844 38.339844 C 16.101562 38.507812 15.601562 38.785156 15.265625 38.617188 C 14.929688 38.453125 14.15625 37.058594 14.097656 35.945312 C 14.078125 35.554688 15.933594 28.429688 15.710938 27.089844 C 15.664062 26.816406 15.988281 28.261719 16.046875 27.371094 C 16.074219 26.867188 15.601562 25.921875 15.210938 25.253906 C 15.007812 24.90625 14.710938 24.695312 14.710938 24.695312 L 14.710938 24.136719 C 14.710938 24.136719 13.648438 23.730469 14.375 18.734375 C 14.4375 18.34375 14.9375 18.6875 15.042969 18.347656 C 17.996094 8.933594 25.460938 6.988281 30.582031 6.988281 C 31.472656 6.988281 33.699219 6.933594 36.59375 7.9375 Z M 17.882812 24.972656 C 18.164062 26.089844 17.996094 27.703125 18.21875 27.757812 C 18.441406 27.816406 18.441406 26.980469 18.664062 27.257812 C 18.886719 27.535156 19.078125 27.957031 19.222656 27.816406 C 19.554688 27.480469 18.941406 25.140625 19.054688 24.917969 C 19.164062 24.695312 19.109375 23.804688 19.109375 23.804688 L 18.441406 23.527344 C 18.21875 23.527344 17.777344 24.542969 17.882812 24.972656 Z M 20.445312 25.140625 C 20.445312 25.140625 20.503906 25.585938 21.222656 25.585938 C 21.566406 25.585938 22.394531 25.253906 22.894531 24.863281 C 22.726562 24.582031 21.398438 24.011719 21.117188 24.027344 C 20.113281 24.082031 19.539062 25.363281 19.945312 25.363281 C 20.226562 25.363281 20.445312 25.140625 20.445312 25.140625 "/>
</g>
</svg>
