<?xml version="1.0" encoding="UTF-8"?>
<svg xmlns="http://www.w3.org/2000/svg" xmlns:xlink="http://www.w3.org/1999/xlink" width="56pt" height="56pt" viewBox="0 0 56 56" version="1.1">
<g id="surface1">
<rect x="0" y="0" width="56" height="56" style="fill:rgb(22.724915%,49.720764%,67.996216%);fill-opacity:1;stroke:none;"/>
<path style=" stroke:none;fill-rule:nonzero;fill:rgb(100%,100%,100%);fill-opacity:1;" d="M 49.105469 41.578125 C 48.675781 42.328125 47.570312 42.742188 45.992188 42.742188 C 43.199219 42.742188 39.332031 41.484375 35.640625 39.375 C 32.691406 37.6875 30.398438 35.683594 28.875 33.925781 C 29.109375 33.605469 29.324219 32.871094 29.515625 32.871094 L 34.589844 32.871094 L 32.015625 28.5625 C 32.125 28.34375 32.226562 28.15625 32.328125 27.917969 C 34.765625 28.371094 37.617188 29.488281 40.378906 31.066406 C 43.425781 32.808594 46.007812 34.929688 47.652344 37.019531 C 49.144531 38.914062 49.675781 40.585938 49.105469 41.578125 Z M 27.917969 43.011719 C 25.21875 43.011719 22.703125 42.21875 20.585938 40.859375 C 20.730469 40.777344 20.882812 40.703125 21.03125 40.617188 C 23.949219 38.949219 26.34375 37.003906 28.019531 35.085938 C 29.695312 36.972656 32.074219 38.894531 34.96875 40.550781 C 35.105469 40.628906 35.242188 40.695312 35.382812 40.773438 C 33.234375 42.183594 30.671875 43.011719 27.917969 43.011719 Z M 10.007812 42.867188 C 8.429688 42.867188 7.324219 42.390625 6.894531 41.640625 C 6.324219 40.648438 6.855469 38.925781 8.347656 37.03125 C 9.992188 34.941406 12.574219 32.832031 15.621094 31.089844 C 18.378906 29.515625 21.234375 28.417969 23.671875 27.964844 C 23.800781 28.265625 23.933594 28.445312 24.078125 28.714844 L 21.710938 32.871094 L 26.507812 32.871094 C 26.703125 32.871094 26.921875 33.609375 27.160156 33.929688 C 25.636719 35.710938 23.335938 37.683594 20.359375 39.386719 C 16.671875 41.492188 12.800781 42.867188 10.007812 42.867188 Z M 14.300781 29.394531 C 14.300781 24.050781 17.394531 19.417969 21.882812 17.1875 C 21.886719 17.1875 21.890625 17.175781 21.890625 17.175781 C 21.886719 17.421875 21.875 17.667969 21.875 17.917969 C 21.875 21.273438 22.367188 24.300781 23.179688 26.699219 C 20.644531 27.210938 17.738281 28.339844 14.949219 29.933594 C 14.742188 30.054688 14.539062 30.179688 14.332031 30.304688 C 14.3125 30.003906 14.300781 29.699219 14.300781 29.394531 Z M 24.011719 31.78125 L 28.011719 24.667969 L 32.15625 31.773438 Z M 28 5.136719 C 30.257812 5.136719 32.773438 10.386719 32.773438 17.917969 C 32.773438 21.335938 32.25 24.269531 31.472656 26.46875 C 31.207031 26.4375 30.949219 26.421875 30.695312 26.40625 L 27.988281 21.769531 L 25.414062 26.410156 C 25.125 26.421875 24.828125 26.445312 24.523438 26.480469 C 23.746094 24.28125 23.226562 21.335938 23.226562 17.917969 C 23.226562 10.386719 25.742188 5.136719 28 5.136719 Z M 34.117188 17.273438 C 38.519531 19.53125 41.535156 24.117188 41.535156 29.394531 C 41.535156 29.660156 41.527344 29.925781 41.511719 30.195312 C 41.355469 30.101562 41.207031 30.007812 41.050781 29.917969 C 38.261719 28.324219 35.359375 27.199219 32.824219 26.6875 C 33.636719 24.292969 34.125 21.265625 34.125 17.917969 C 34.125 17.699219 34.113281 17.484375 34.109375 17.269531 C 34.113281 17.269531 34.117188 17.273438 34.117188 17.273438 Z M 48.714844 36.195312 C 47.296875 34.390625 45.226562 32.585938 42.792969 30.992188 C 42.847656 30.464844 42.886719 29.933594 42.886719 29.394531 C 42.886719 23.324219 39.257812 18.089844 34.054688 15.742188 C 34.050781 15.738281 34.050781 15.738281 34.046875 15.738281 C 33.605469 8.886719 31.109375 3.785156 28 3.785156 C 24.898438 3.785156 22.414062 8.851562 21.957031 15.667969 C 21.953125 15.671875 21.953125 15.664062 21.949219 15.667969 C 16.65625 17.976562 12.949219 23.261719 12.949219 29.394531 C 12.949219 29.976562 12.992188 30.542969 13.058594 31.105469 C 10.6875 32.683594 8.675781 34.460938 7.285156 36.226562 C 5.40625 38.613281 4.851562 40.503906 5.71875 42.019531 C 6.199219 42.863281 7.335938 43.636719 10.007812 43.636719 C 12.566406 43.636719 15.910156 42.925781 19.234375 41.273438 C 21.6875 43.027344 24.679688 44.214844 27.917969 44.214844 C 31.210938 44.214844 34.25 43.210938 36.722656 41.402344 C 40.058594 43.054688 43.425781 44.058594 45.992188 44.058594 C 48.664062 44.058594 49.800781 43.074219 50.28125 42.230469 C 51.148438 40.714844 50.59375 38.582031 48.714844 36.195312 "/>
</g>
</svg>
