<?xml version="1.0" encoding="UTF-8"?>
<svg xmlns="http://www.w3.org/2000/svg" xmlns:xlink="http://www.w3.org/1999/xlink" width="56pt" height="56pt" viewBox="0 0 56 56" version="1.1">
<g id="surface1">
<rect x="0" y="0" width="56" height="56" style="fill:rgb(95.666504%,95.776367%,96.775818%);fill-opacity:1;stroke:none;"/>
<path style=" stroke:none;fill-rule:nonzero;fill:rgb(94.828796%,33.435059%,10.340881%);fill-opacity:1;" d="M 6.183594 44.726562 C 6.183594 44.726562 2.839844 28.457031 13.589844 29.59375 C 13.429688 22.585938 19.277344 18.035156 27.757812 18.125 C 50.226562 18.363281 50.785156 11.753906 50.785156 11.753906 C 50.785156 11.753906 47.867188 20.714844 32.546875 21.628906 C 17.226562 22.539062 16.855469 29.59375 16.855469 29.59375 C 16.855469 29.59375 29.917969 31.503906 34.699219 27.203125 C 29.761719 32.78125 20.679688 31.585938 20.679688 31.585938 C 20.679688 31.585938 20.042969 33.816406 18.289062 33.816406 C 16.539062 33.816406 16.289062 31.308594 16.289062 31.308594 C 16.289062 31.308594 9.925781 30.308594 7.855469 35.964844 C 5.980469 41.082031 6.183594 44.726562 6.183594 44.726562 "/>
<path style=" stroke:none;fill-rule:nonzero;fill:rgb(27.482605%,30.715942%,66.63208%);fill-opacity:1;" d="M 5.707031 44.246094 C 5.707031 44.246094 2.359375 27.980469 13.113281 29.113281 C 12.953125 22.105469 18.800781 17.554688 27.28125 17.644531 C 49.75 17.886719 50.308594 11.273438 50.308594 11.273438 C 50.308594 11.273438 47.390625 20.238281 32.070312 21.152344 C 16.75 22.0625 16.378906 29.113281 16.378906 29.113281 C 16.378906 29.113281 29.441406 31.027344 34.21875 26.726562 C 29.28125 32.300781 20.203125 31.105469 20.203125 31.105469 C 20.203125 31.105469 19.566406 33.335938 17.8125 33.335938 C 16.058594 33.335938 15.808594 30.832031 15.808594 30.832031 C 15.808594 30.832031 9.449219 29.832031 7.378906 35.488281 C 5.503906 40.601562 5.707031 44.246094 5.707031 44.246094 "/>
<path style=" stroke:none;fill-rule:nonzero;fill:rgb(27.482605%,30.715942%,66.63208%);fill-opacity:1;" d="M 5.945312 44.246094 C 5.945312 44.246094 2.601562 27.980469 13.351562 29.113281 C 13.191406 22.105469 19.039062 17.554688 27.519531 17.644531 C 49.988281 17.886719 50.546875 11.273438 50.546875 11.273438 C 50.546875 11.273438 47.628906 20.238281 32.308594 21.152344 C 16.988281 22.0625 16.617188 29.113281 16.617188 29.113281 C 16.617188 29.113281 29.679688 31.027344 34.460938 26.726562 C 29.519531 32.300781 20.441406 31.105469 20.441406 31.105469 C 20.441406 31.105469 19.804688 33.335938 18.050781 33.335938 C 16.296875 33.335938 16.050781 30.832031 16.050781 30.832031 C 16.050781 30.832031 9.6875 29.832031 7.617188 35.488281 C 5.742188 40.601562 5.945312 44.246094 5.945312 44.246094 "/>
</g>
</svg>
