<?xml version="1.0" encoding="UTF-8"?>
<svg xmlns="http://www.w3.org/2000/svg" xmlns:xlink="http://www.w3.org/1999/xlink" width="56pt" height="56pt" viewBox="0 0 56 56" version="1.1">
<g id="surface1">
<rect x="0" y="0" width="56" height="56" style="fill:rgb(85.177612%,11.749268%,14.660645%);fill-opacity:1;stroke:none;"/>
<path style=" stroke:none;fill-rule:nonzero;fill:rgb(100%,100%,100%);fill-opacity:1;" d="M 30.691406 10.789062 C 30.332031 11.253906 30.132812 11.824219 30.132812 12.40625 C 30.132812 12.605469 30.132812 17.308594 30.132812 17.480469 C 30.105469 17.867188 29.960938 18.222656 29.722656 18.527344 C 29.589844 18.660156 28.808594 19.363281 28.742188 19.445312 L 29.179688 19.457031 C 29.324219 19.324219 30.835938 17.984375 30.980469 17.800781 C 31.417969 17.324219 31.671875 16.699219 31.671875 16.050781 C 31.671875 15.839844 31.671875 11.371094 31.671875 11.171875 C 31.65625 10.683594 31.84375 10.191406 32.1875 9.835938 C 32.371094 9.636719 32.957031 9.144531 33.0625 9.027344 L 32.597656 9.015625 C 32.507812 9.132812 30.847656 10.628906 30.691406 10.789062 "/>
<path style=" stroke:none;fill-rule:nonzero;fill:rgb(100%,100%,100%);fill-opacity:1;" d="M 26.964844 29.25 L 28.808594 30.855469 L 30.039062 30.855469 C 31.21875 30.855469 32.359375 30.390625 33.195312 29.554688 C 33.949219 28.800781 34.226562 27.78125 34.226562 26.824219 L 34.226562 24.1875 C 34.214844 23.589844 33.964844 23.023438 33.515625 22.625 C 33.433594 22.542969 32.890625 22.027344 32.890625 22.027344 L 32.890625 24.054688 C 32.890625 24.054688 33.484375 24.664062 33.59375 24.785156 C 34.136719 25.367188 34.136719 26.425781 32.402344 28.109375 C 32.09375 28.402344 31.234375 29.222656 30.039062 29.222656 L 26.964844 29.25 "/>
<path style=" stroke:none;fill-rule:nonzero;fill:rgb(100%,100%,100%);fill-opacity:1;" d="M 32.09375 18.421875 C 31.898438 18.636719 31.699219 19.164062 31.699219 19.640625 L 31.699219 20.636719 L 32.707031 20.636719 C 33.101562 20.636719 33.617188 20.277344 33.726562 20.09375 C 33.726562 20.078125 33.726562 19.097656 33.726562 19.097656 C 33.871094 19.308594 34.054688 19.511719 34.269531 19.667969 C 34.375 19.535156 35.300781 18.421875 36.070312 18.410156 C 37.355469 18.398438 37.066406 20.027344 36.546875 20.542969 C 36.375 20.714844 35.621094 21.40625 35.382812 21.628906 C 34.773438 22.214844 33.726562 21.933594 33.726562 20.4375 C 33.726562 20.4375 32.613281 21.496094 32.441406 21.644531 C 32.269531 21.789062 31.699219 22.398438 31.699219 22.398438 L 31.699219 25.035156 C 31.699219 26.292969 31.285156 26.71875 30.941406 27.101562 C 30.808594 27.25 29.390625 28.546875 29.195312 28.695312 L 28.730469 28.707031 C 28.730469 28.707031 29.566406 27.953125 29.722656 27.78125 C 29.90625 27.582031 30.132812 27.183594 30.132812 26.519531 C 30.132812 26.347656 30.105469 22.386719 30.105469 22.386719 L 23.640625 22.386719 C 21.386719 22.386719 20.910156 19.894531 20.898438 19.21875 C 20.898438 19.019531 20.898438 17.03125 20.898438 16.714844 C 20.898438 16.300781 20.632812 15.613281 20.21875 15.402344 L 20.855469 15.402344 C 20.9375 15.425781 21.335938 15.585938 21.335938 17.125 C 21.335938 17.125 21.308594 18.898438 21.308594 19.007812 C 21.308594 19.789062 21.929688 20.675781 22.820312 20.675781 L 30.132812 20.664062 C 30.132812 20.464844 30.332031 19.722656 30.691406 19.324219 C 30.890625 19.097656 32.46875 17.667969 32.640625 17.523438 L 33.101562 17.523438 C 33.035156 17.589844 32.269531 18.265625 32.109375 18.449219 Z M 34.492188 19.921875 C 34.679688 20.171875 34.890625 20.421875 35.117188 20.648438 C 35.910156 21.285156 36.28125 20.597656 35.753906 19.878906 C 35.539062 19.589844 34.730469 19.667969 34.492188 19.921875 "/>
<path style=" stroke:none;fill-rule:nonzero;fill:rgb(100%,100%,100%);fill-opacity:1;" d="M 26.648438 24.640625 C 26.648438 24.996094 25.523438 25.9375 25.457031 25.988281 C 25.375 25.605469 25.085938 25.195312 24.25 24.347656 L 25.480469 23.113281 C 26.316406 23.949219 26.648438 24.136719 26.648438 24.640625 "/>
<path style=" stroke:none;fill-rule:nonzero;fill:rgb(100%,100%,100%);fill-opacity:1;" d="M 28.792969 10.472656 C 29.046875 10.722656 29.578125 11.386719 29.257812 11.71875 C 28.980469 11.996094 28.542969 12.445312 28.542969 12.445312 C 28.515625 12.285156 28.105469 11.890625 28.105469 11.890625 C 28.105469 11.890625 28.105469 13.082031 28.105469 13.226562 C 28.09375 13.769531 27.894531 13.917969 27.894531 13.917969 C 27.894531 13.917969 28.886719 14.898438 28.886719 16.167969 C 28.886719 16.78125 28.886719 17.347656 28.886719 17.46875 C 28.902344 17.707031 28.808594 17.960938 28.636719 18.132812 C 28.542969 18.238281 27.628906 19.164062 27.484375 19.285156 C 27.269531 19.46875 27.007812 19.574219 26.726562 19.5625 L 23.292969 19.5625 C 22.75 19.5625 22.195312 19.140625 22.195312 18.714844 C 22.195312 18.609375 22.207031 17.441406 22.207031 17.441406 C 22.378906 17.640625 22.566406 17.878906 22.988281 17.878906 C 23.335938 17.878906 23.679688 17.613281 23.773438 17.507812 C 23.863281 17.402344 26.371094 14.804688 26.371094 14.804688 C 26.371094 14.804688 25.203125 13.71875 24.433594 13.203125 C 24.0625 12.949219 23.558594 13.269531 23.480469 13.597656 C 23.242188 14.632812 23.480469 16.195312 23.480469 16.195312 L 22.539062 15.253906 C 22.15625 14.871094 22.167969 14.011719 22.632812 13.558594 C 22.699219 13.480469 23.402344 12.710938 24.277344 12.710938 L 25.640625 12.710938 C 26.554688 12.710938 27.5625 13.625 27.5625 13.625 C 27.640625 13.53125 27.695312 13.425781 27.707031 13.308594 C 27.707031 12.832031 27.695312 11.570312 27.695312 11.570312 C 27.007812 10.882812 26.914062 10.164062 27.242188 9.835938 C 27.867188 9.210938 28.09375 9 28.09375 9 C 28.09375 9 28.066406 9.753906 28.792969 10.472656 Z M 24.488281 17.363281 C 24.144531 17.71875 24.089844 17.800781 23.773438 18 L 27.640625 18 C 28.6875 18 28.476562 17.347656 28.289062 17.019531 C 27.90625 16.34375 26.6875 15.097656 26.6875 15.097656 C 26.6875 15.097656 24.554688 17.296875 24.488281 17.363281 "/>
<path style=" stroke:none;fill-rule:nonzero;fill:rgb(100%,100%,100%);fill-opacity:1;" d="M 20.074219 20.886719 L 19.4375 20.886719 C 19.4375 20.886719 20.113281 21.257812 20.113281 22.226562 L 20.113281 25.316406 C 20.113281 27.316406 21.769531 29.171875 23.785156 29.171875 L 25.46875 29.171875 C 26.476562 29.171875 26.832031 28.933594 27.445312 28.390625 C 27.667969 28.191406 27.960938 27.859375 28.066406 27.738281 C 28.410156 27.34375 28.792969 27.023438 28.792969 25.988281 L 28.792969 24.984375 C 28.792969 24.109375 28.289062 23.75 28.039062 23.5 C 27.878906 23.339844 27.457031 22.929688 27.457031 22.929688 L 27.457031 24.996094 C 27.457031 24.996094 27.878906 25.445312 28.066406 25.59375 C 28.941406 26.28125 28.253906 27.472656 27.429688 27.472656 C 27.269531 27.472656 23.972656 27.472656 23.730469 27.472656 C 22.382812 27.5 20.539062 26.292969 20.539062 24.253906 L 20.539062 22.585938 C 20.550781 20.886719 20.074219 20.886719 20.074219 20.886719 "/>
<path style=" stroke:none;fill-rule:nonzero;fill:rgb(100%,100%,100%);fill-opacity:1;" d="M 24.128906 24.652344 C 24.128906 25.007812 23.003906 25.949219 22.9375 26.003906 C 22.859375 25.617188 22.566406 25.207031 21.730469 24.359375 L 22.964844 23.128906 C 23.785156 23.949219 24.128906 24.136719 24.128906 24.652344 "/>
<path style=" stroke:none;fill-rule:nonzero;fill:rgb(100%,100%,100%);fill-opacity:1;" d="M 11.207031 38.367188 L 9.21875 38.367188 C 8.597656 38.367188 8.648438 37.851562 8.585938 37.414062 L 8.585938 34.578125 C 8.585938 34.578125 9.019531 34.566406 9.511719 34.566406 C 10.054688 34.566406 10.746094 34.484375 11.40625 34.855469 C 11.0625 34.128906 10.320312 33.675781 9.511719 33.703125 L 8.597656 33.703125 L 8.597656 32.789062 C 8.597656 32.789062 8.597656 31.992188 8.398438 31.769531 L 9.710938 31.769531 C 10.835938 31.769531 11.710938 31.753906 12.625 32.351562 C 12.625 32.351562 12.453125 30.851562 10.269531 30.851562 L 6 30.851562 C 6 30.851562 6.742188 31.488281 6.714844 32.777344 L 6.742188 37.945312 C 6.742188 39.242188 7.257812 39.28125 7.257812 39.28125 L 11.460938 39.28125 C 12.414062 39.28125 12.746094 38.605469 12.746094 38.234375 L 12.757812 37.746094 C 12.757812 37.746094 12.453125 38.367188 11.207031 38.367188 "/>
<path style=" stroke:none;fill-rule:nonzero;fill:rgb(100%,100%,100%);fill-opacity:1;" d="M 22.394531 37.929688 L 22.394531 34.3125 C 22.394531 32.90625 21.253906 32.535156 20.394531 32.535156 C 19.265625 32.535156 18.921875 33.476562 18.777344 33.808594 C 18.523438 32.933594 17.636719 32.535156 16.921875 32.535156 C 15.554688 32.535156 15.210938 33.835938 15.210938 33.835938 C 15.210938 33.835938 15.183594 32.578125 14.085938 32.578125 L 13.011719 32.578125 C 13.011719 32.578125 13.632812 32.828125 13.632812 33.914062 L 13.632812 37.929688 C 13.632812 39.257812 14.164062 39.28125 14.164062 39.28125 L 15.941406 39.28125 C 15.515625 38.964844 15.265625 38.460938 15.265625 37.917969 L 15.265625 34.351562 C 15.289062 34.195312 15.554688 33.664062 16.308594 33.664062 C 16.746094 33.664062 17.226562 34.113281 17.210938 34.617188 L 17.210938 37.929688 C 17.210938 39.269531 17.742188 39.28125 17.742188 39.28125 L 19.519531 39.28125 C 19.09375 38.953125 18.84375 38.460938 18.84375 37.917969 L 18.84375 34.351562 C 19.015625 33.835938 19.570312 33.542969 20.101562 33.71875 C 20.5 33.847656 20.777344 34.207031 20.789062 34.632812 C 20.789062 34.632812 20.789062 37.652344 20.789062 37.929688 C 20.804688 39.28125 21.320312 39.269531 21.320312 39.269531 C 22.246094 39.269531 23.097656 39.269531 23.097656 39.269531 C 22.660156 38.953125 22.40625 38.460938 22.394531 37.929688 "/>
<path style=" stroke:none;fill-rule:nonzero;fill:rgb(100%,100%,100%);fill-opacity:1;" d="M 25.496094 37.929688 C 25.496094 38.460938 25.746094 38.964844 26.171875 39.28125 C 26.171875 39.28125 25.324219 39.28125 24.394531 39.28125 C 24.394531 39.28125 23.851562 39.296875 23.851562 37.945312 L 23.851562 33.902344 C 23.851562 32.84375 23.242188 32.5625 23.242188 32.5625 L 24.316406 32.5625 C 24.699219 32.5625 25.480469 32.5625 25.480469 34.0625 L 25.480469 37.90625 L 25.496094 37.929688 "/>
<path style=" stroke:none;fill-rule:nonzero;fill:rgb(100%,100%,100%);fill-opacity:1;" d="M 30.957031 33.082031 C 30.957031 33.082031 30.78125 32.601562 30.054688 32.601562 C 28.941406 32.601562 28.675781 33.929688 28.675781 33.929688 C 28.582031 32.882812 28.304688 32.578125 27.523438 32.578125 L 26.449219 32.578125 C 26.449219 32.578125 27.074219 32.828125 27.074219 33.914062 L 27.074219 37.929688 C 27.074219 39.257812 27.601562 39.28125 27.601562 39.28125 L 29.378906 39.28125 C 28.953125 38.964844 28.703125 38.460938 28.703125 37.929688 L 28.703125 34.632812 C 28.742188 34.351562 28.902344 34.101562 29.140625 33.957031 C 29.734375 33.558594 30.519531 33.675781 30.980469 34.21875 L 30.957031 33.082031 "/>
<path style=" stroke:none;fill-rule:nonzero;fill:rgb(100%,100%,100%);fill-opacity:1;" d="M 39.210938 33.320312 C 39.582031 33.320312 39.941406 33.410156 40.257812 33.585938 L 40.257812 32.578125 L 38.773438 32.578125 L 38.773438 31.039062 C 38.457031 31.542969 38.046875 31.992188 37.582031 32.378906 C 37.078125 32.789062 36.019531 33.304688 36.019531 33.304688 L 37.144531 33.320312 L 37.144531 37.984375 C 37.144531 39.28125 37.6875 39.28125 37.6875 39.28125 C 38.65625 39.28125 39.449219 39.28125 39.449219 39.28125 C 39.027344 38.976562 38.773438 38.488281 38.761719 37.96875 L 38.761719 33.320312 C 39.238281 33.320312 38.921875 33.320312 39.210938 33.320312 "/>
<path style=" stroke:none;fill-rule:nonzero;fill:rgb(100%,100%,100%);fill-opacity:1;" d="M 44.59375 35.347656 C 43.597656 36.382812 42.816406 36.222656 42.195312 36.988281 C 42.195312 36.988281 42.300781 38.023438 43.082031 38.382812 C 43.347656 38.5 44.449219 38.898438 45.148438 37.679688 L 45.148438 38.765625 C 45.148438 38.765625 44.699219 39.296875 43.253906 39.296875 C 41.519531 39.296875 40.324219 37.929688 40.324219 36.074219 C 40.324219 34.246094 41.292969 32.5625 43.136719 32.550781 C 44.921875 32.523438 45.90625 33.980469 44.59375 35.347656 Z M 43.507812 34.921875 C 43.796875 34.378906 44.035156 33 43.027344 33.082031 C 41.863281 33.171875 42.089844 36.261719 42.089844 36.261719 C 42.472656 35.835938 43.054688 35.742188 43.507812 34.921875 "/>
<path style=" stroke:none;fill-rule:nonzero;fill:rgb(100%,100%,100%);fill-opacity:1;" d="M 24.671875 32.03125 C 25.125 32.019531 25.46875 31.648438 25.46875 31.210938 C 25.457031 30.761719 25.085938 30.417969 24.648438 30.417969 C 24.210938 30.429688 23.851562 30.785156 23.851562 31.222656 C 23.851562 31.675781 24.222656 32.03125 24.671875 32.03125 "/>
<path style=" stroke:none;fill-rule:nonzero;fill:rgb(100%,100%,100%);fill-opacity:1;" d="M 32.796875 38.515625 C 32.402344 38.515625 32.109375 38.089844 32.109375 37.664062 C 32.109375 35.996094 33.472656 35.757812 33.84375 35.320312 L 33.84375 38.144531 C 33.671875 38.277344 33.515625 38.515625 32.796875 38.515625 Z M 33.84375 34.671875 C 33.433594 35.386719 30.226562 35.546875 30.71875 38.023438 C 30.914062 39.003906 31.566406 39.296875 32.386719 39.296875 C 33.179688 39.296875 33.671875 38.886719 33.871094 38.488281 C 33.988281 39.230469 34.375 39.28125 34.375 39.28125 C 35.300781 39.28125 36.152344 39.28125 36.152344 39.28125 C 35.726562 38.964844 35.460938 38.472656 35.460938 37.945312 L 35.460938 34.167969 C 35.460938 33.265625 34.46875 32.5625 33.40625 32.5625 C 32.808594 32.550781 32.242188 32.722656 31.75 33.054688 L 31.75 34.21875 C 31.75 34.21875 32.121094 33.292969 33.035156 33.292969 C 33.9375 33.292969 34.003906 33.742188 34.003906 33.96875 C 34.015625 34.207031 33.976562 34.460938 33.84375 34.671875 "/>
<path style=" stroke:none;fill-rule:nonzero;fill:rgb(100%,100%,100%);fill-opacity:1;" d="M 48.515625 37.453125 C 48.527344 37.929688 48.105469 38.554688 47.203125 38.554688 C 46.277344 38.554688 45.90625 37.613281 45.90625 37.613281 L 45.90625 38.804688 C 46.40625 39.125 46.992188 39.28125 47.589844 39.28125 C 48.792969 39.28125 50.027344 38.367188 50 37.082031 C 49.984375 36.660156 49.839844 36.246094 49.589844 35.917969 C 49.175781 35.371094 48.433594 34.988281 47.851562 34.632812 C 47.523438 34.433594 47.347656 34.0625 47.347656 33.941406 C 47.335938 33.71875 47.457031 33.265625 48.34375 33.265625 C 49.21875 33.265625 49.601562 34.195312 49.601562 34.195312 L 49.601562 33.066406 C 49.109375 32.722656 48.515625 32.535156 47.90625 32.535156 C 46.84375 32.535156 45.878906 33.238281 45.90625 34.140625 C 45.917969 34.933594 46.25 35.441406 46.898438 35.929688 C 47.191406 36.140625 47.496094 36.328125 47.8125 36.5 C 48.316406 36.777344 48.503906 37.121094 48.515625 37.453125 "/>
</g>
</svg>
