<?xml version="1.0" encoding="UTF-8"?>
<svg xmlns="http://www.w3.org/2000/svg" xmlns:xlink="http://www.w3.org/1999/xlink" width="56pt" height="56pt" viewBox="0 0 56 56" version="1.1">
<g id="surface1">
<rect x="0" y="0" width="56" height="56" style="fill:rgb(18.481445%,38.50708%,65.074158%);fill-opacity:1;stroke:none;"/>
<path style=" stroke:none;fill-rule:nonzero;fill:rgb(100%,100%,100%);fill-opacity:1;" d="M 26.050781 46.15625 C 25.796875 44.421875 24.957031 42.957031 23.816406 41.578125 C 23.652344 40.761719 24.03125 40.03125 24.449219 39.320312 C 24.863281 38.609375 25.304688 37.90625 25.679688 37.292969 C 25.613281 36.386719 25.0625 35.785156 24.476562 35.199219 C 24.339844 35.0625 24.171875 34.933594 24.078125 34.777344 C 23.496094 33.808594 22.65625 32.9375 22.390625 31.851562 C 22.371094 31.777344 22.304688 31.714844 22.242188 31.621094 C 21.425781 31.792969 21.246094 32.386719 20.882812 32.84375 C 21.019531 33.496094 21.125 34.140625 21.300781 34.765625 C 21.414062 35.160156 21.601562 35.550781 21.828125 35.914062 C 22.359375 36.769531 22.695312 37.667969 22.75 38.617188 C 22.792969 39.40625 22.773438 40.195312 22.75 40.984375 C 22.742188 41.210938 22.660156 41.453125 22.535156 41.65625 C 22.304688 42.023438 22.019531 42.367188 21.746094 42.71875 C 21.417969 43.132812 20.921875 43.304688 20.324219 43.339844 C 19.625 43.378906 18.984375 43.269531 18.351562 42.996094 C 17.335938 42.558594 16.605469 41.890625 15.8125 41.207031 C 16.054688 41.105469 16.234375 41.027344 16.441406 40.9375 C 16.222656 40.339844 15.546875 39.917969 15.558594 39.195312 C 16.085938 39.488281 16.546875 39.753906 17 40.007812 C 17.339844 40.007812 17.652344 40.007812 18.027344 40.007812 C 18.199219 39.738281 18.371094 39.46875 18.589844 39.132812 C 18.074219 39.296875 17.667969 39.429688 17.308594 39.546875 C 16.398438 39.375 16.359375 38.804688 16.183594 38.195312 C 16.65625 38.449219 17.023438 38.707031 17.609375 38.542969 C 18.4375 37.957031 18.59375 37.15625 18.445312 36.277344 C 18.3125 35.480469 18.113281 34.6875 18.070312 33.890625 C 18.011719 32.882812 18.460938 31.953125 19.085938 31.097656 C 19.667969 30.292969 20.410156 30.085938 21.574219 30.285156 C 21.664062 30.300781 21.765625 30.296875 21.847656 30.296875 C 22.238281 30.191406 22.40625 29.949219 22.4375 29.664062 C 22.550781 28.609375 23.363281 27.972656 24.414062 27.46875 C 24.625 27.367188 24.859375 27.304688 25.066406 27.199219 C 25.328125 27.066406 25.570312 26.910156 25.929688 26.699219 C 25.683594 26.632812 25.546875 26.554688 25.460938 26.582031 C 25.140625 26.671875 24.832031 26.789062 24.535156 26.921875 C 24.082031 27.125 23.632812 27.328125 23.003906 27.207031 C 22.910156 27.15625 22.746094 27.074219 22.59375 26.992188 C 22.167969 27.117188 21.761719 27.238281 21.390625 27.347656 C 20.59375 27.285156 19.945312 27.03125 19.332031 26.695312 C 18.847656 26.429688 18.347656 26.179688 17.828125 25.960938 C 17.46875 25.8125 17.0625 25.730469 16.507812 25.570312 C 15.769531 25.039062 15 24.339844 14.46875 23.394531 C 14.777344 23.363281 15.03125 23.335938 15.378906 23.296875 C 15.503906 23.167969 15.671875 22.988281 15.832031 22.820312 C 15.742188 22.6875 15.683594 22.601562 15.640625 22.535156 C 15.554688 22.523438 15.5 22.503906 15.460938 22.515625 C 14.5 22.765625 13.746094 22.429688 13.050781 21.957031 C 12.464844 21.558594 12.035156 21.0625 11.738281 20.460938 C 12.246094 20.238281 12.925781 20.59375 13.367188 20.148438 C 13.171875 19.871094 12.859375 19.820312 12.558594 19.75 C 12.300781 19.6875 12.050781 19.613281 11.789062 19.570312 C 11.0625 19.445312 10.527344 19.128906 10.078125 18.640625 C 9.269531 17.761719 8.644531 16.816406 8.226562 15.78125 C 8.207031 15.726562 8.226562 15.667969 8.226562 15.5625 C 8.832031 15.804688 9.25 16.347656 10.09375 16.207031 C 9.960938 16.082031 9.871094 15.976562 9.761719 15.894531 C 8.773438 15.15625 8.035156 14.300781 7.71875 13.226562 C 7.570312 12.730469 7.308594 12.261719 7.140625 11.773438 C 7.050781 11.515625 7.042969 11.238281 7.121094 10.929688 C 7.296875 11.097656 7.460938 11.277344 7.648438 11.4375 C 8.722656 12.363281 9.945312 13.136719 11.324219 13.757812 C 12.898438 14.460938 14.589844 14.890625 16.328125 15.21875 C 16.792969 15.304688 17.308594 15.304688 17.78125 15.246094 C 18.839844 15.117188 19.886719 14.933594 20.933594 14.765625 C 23.128906 14.421875 24.832031 15.097656 25.726562 16.621094 C 26.328125 17.652344 27.222656 18.503906 28.164062 19.332031 C 28.257812 19.414062 28.378906 19.476562 28.582031 19.613281 C 28.613281 19.367188 28.648438 19.203125 28.652344 19.042969 C 28.660156 18.578125 28.824219 18.167969 29.140625 17.773438 C 29.453125 17.378906 29.675781 16.941406 29.925781 16.515625 C 29.964844 16.453125 29.941406 16.367188 29.957031 16.183594 C 29.4375 16.589844 29.011719 16.925781 28.574219 17.265625 C 28.148438 16.628906 28.171875 15.84375 29.457031 14.742188 C 29.09375 14.5625 28.933594 15.03125 28.558594 14.898438 C 28.355469 14.535156 28.574219 14.171875 28.742188 13.851562 C 29.203125 12.988281 29.722656 12.144531 30.238281 11.304688 C 30.660156 10.617188 31.308594 10.140625 32.214844 10.007812 C 32.535156 9.527344 32.125 9.117188 32.175781 8.660156 C 32.636719 8.707031 32.765625 9.007812 33.042969 9.226562 C 33.324219 8.675781 33.878906 8.425781 34.554688 8.320312 C 34.84375 8.546875 35.097656 8.808594 35.421875 8.996094 C 35.734375 9.171875 36.167969 9.199219 36.414062 9.558594 C 36.429688 9.675781 36.453125 9.851562 36.476562 10.011719 C 36.828125 10.484375 37.398438 10.652344 37.996094 10.78125 C 38.417969 10.871094 38.859375 10.929688 39.265625 11.054688 C 40.183594 11.332031 40.632812 11.660156 40.5625 12.554688 C 40.550781 12.691406 40.546875 12.828125 40.535156 12.988281 C 40.363281 13.085938 40.1875 13.179688 39.992188 13.285156 C 40.039062 13.515625 40.089844 13.738281 40.160156 14.070312 C 39.988281 14.1875 39.789062 14.328125 39.546875 14.492188 C 39.28125 14.382812 39.039062 14.296875 38.816406 14.191406 C 38.605469 14.09375 38.40625 13.980469 38.117188 13.828125 C 37.902344 13.863281 37.621094 13.898438 37.347656 13.960938 C 36.96875 14.042969 36.597656 14.175781 36.234375 13.96875 C 36.023438 14.039062 35.84375 14.097656 35.609375 14.175781 C 35.546875 14.363281 35.4375 14.566406 35.421875 14.773438 C 35.390625 15.296875 35.589844 15.78125 35.929688 16.226562 C 36.109375 16.460938 36.308594 16.683594 36.5 16.910156 C 36.746094 17.203125 37.03125 17.480469 37.226562 17.796875 C 37.417969 18.109375 37.519531 18.460938 37.667969 18.8125 C 37.910156 19.007812 38.148438 19.238281 38.433594 19.417969 C 39.359375 20.007812 39.53125 20.777344 39.304688 21.648438 C 39.195312 22.078125 39.238281 22.5 39.25 22.925781 C 39.648438 23.054688 39.773438 22.824219 39.921875 22.664062 C 40.402344 22.144531 40.871094 21.617188 41.386719 21.050781 C 41.996094 21.105469 42.601562 21.148438 43.199219 21.222656 C 43.378906 21.242188 43.550781 21.347656 43.710938 21.4375 C 44.125 21.667969 44.582031 21.777344 45.082031 21.796875 C 45.617188 21.820312 46.15625 21.839844 46.679688 21.910156 C 47.03125 21.960938 47.398438 22.054688 47.699219 22.207031 C 48.125 22.421875 48.5 22.707031 48.933594 22.984375 C 48.296875 23.605469 47.675781 24.203125 46.492188 24.171875 C 46.464844 23.953125 46.433594 23.742188 46.402344 23.503906 C 46.339844 23.453125 46.273438 23.355469 46.171875 23.316406 C 45.609375 23.085938 45.042969 22.855469 44.464844 22.652344 C 43.65625 22.367188 43.304688 22.441406 42.644531 23.011719 C 42.515625 23.472656 42.769531 23.894531 43.011719 24.292969 C 44.011719 25.9375 43.769531 25.554688 43.785156 27.292969 C 43.789062 27.785156 43.796875 28.28125 43.777344 28.773438 C 43.765625 29 43.691406 29.222656 43.632812 29.519531 C 42.753906 29.027344 42.476562 28.335938 42.148438 27.660156 C 42.203125 27.53125 42.253906 27.398438 42.320312 27.273438 C 42.46875 26.992188 42.5 26.730469 42.355469 26.421875 C 42.246094 26.179688 42.148438 25.917969 42.246094 25.617188 C 42.316406 25.414062 42.222656 25.144531 42.109375 24.9375 C 41.929688 24.597656 41.703125 24.269531 41.269531 23.992188 C 40.867188 24.378906 40.484375 24.757812 40.089844 25.121094 C 39.796875 25.390625 39.503906 25.652344 39.183594 25.898438 C 38.851562 26.152344 38.5625 26.253906 37.921875 26.402344 C 37.804688 26.34375 37.664062 26.273438 37.480469 26.1875 C 37.445312 26.226562 37.398438 26.273438 37.363281 26.324219 C 36.886719 27.054688 36.464844 27.8125 35.921875 28.511719 C 35.421875 29.160156 34.84375 29.78125 34.207031 30.34375 C 33.734375 30.757812 33.105469 31.054688 32.542969 31.402344 C 32.117188 31.664062 31.671875 31.910156 31.265625 32.1875 C 30.738281 32.546875 30.28125 32.957031 30.066406 33.339844 C 29.921875 34.351562 29.851562 35.234375 29.660156 36.101562 C 29.335938 37.546875 28.753906 38.90625 27.445312 40.003906 C 27.050781 40.335938 26.589844 40.65625 26.429688 41.117188 C 26.726562 41.949219 27.492188 42.441406 28.257812 42.933594 C 28.617188 43.167969 28.960938 43.417969 29.226562 43.714844 C 29.441406 44.058594 29.617188 44.425781 29.882812 44.75 C 30.46875 45.476562 30.488281 46.253906 30.289062 47.0625 C 30.277344 47.117188 30.21875 47.164062 30.1875 47.203125 C 29.902344 47.300781 29.699219 47.207031 29.523438 47.054688 C 29.09375 46.6875 28.78125 46.277344 28.785156 45.746094 C 28.785156 45.402344 28.710938 45.074219 28.242188 44.9375 C 28.097656 44.230469 27.652344 43.738281 26.824219 43.429688 C 26.597656 43.96875 26.792969 44.410156 27.085938 44.820312 C 27.304688 45.128906 27.59375 45.398438 27.828125 45.699219 C 28.160156 46.132812 28.492188 46.570312 28.785156 47.019531 C 28.902344 47.199219 28.914062 47.417969 28.996094 47.679688 C 28.269531 47.679688 27.640625 47.679688 26.925781 47.679688 C 26.867188 47.507812 26.753906 47.304688 26.75 47.101562 C 26.742188 46.667969 26.554688 46.339844 26.050781 46.15625 "/>
</g>
</svg>
