<?xml version="1.0" encoding="UTF-8"?>
<svg xmlns="http://www.w3.org/2000/svg" xmlns:xlink="http://www.w3.org/1999/xlink" width="56pt" height="56pt" viewBox="0 0 56 56" version="1.1">
<g id="surface1">
<rect x="0" y="0" width="56" height="56" style="fill:rgb(95.666504%,95.776367%,96.775818%);fill-opacity:1;stroke:none;"/>
<path style=" stroke:none;fill-rule:nonzero;fill:rgb(52.13623%,82.575989%,89.181519%);fill-opacity:1;" d="M 20.574219 14.5625 C 16.609375 14.019531 14.59375 16.226562 11.816406 18.257812 L 2.324219 25.710938 L 2.320312 25.714844 L 4.148438 26.679688 C 4.148438 26.683594 4.15625 26.683594 4.160156 26.6875 C 6.539062 27.855469 9.84375 27.457031 12.097656 25.789062 L 16.105469 22.601562 L 17.640625 21.382812 L 25.277344 15.3125 L 20.574219 14.5625 "/>
<path style=" stroke:none;fill-rule:nonzero;fill:rgb(25.332642%,61.138916%,80.612183%);fill-opacity:1;" d="M 2.324219 25.710938 L 4.148438 26.679688 C 4.152344 26.683594 4.15625 26.6875 4.160156 26.6875 C 6.539062 27.859375 9.847656 27.457031 12.097656 25.789062 L 16.105469 22.605469 L 17.640625 21.386719 L 2.324219 25.710938 "/>
<path style=" stroke:none;fill-rule:nonzero;fill:rgb(54.794312%,8.407593%,29.907227%);fill-opacity:1;" d="M 36.785156 19.167969 L 31.691406 18.25 C 31.691406 18.25 28.140625 17.40625 25.175781 19.703125 C 25.175781 19.703125 22.988281 21.332031 21.375 22.589844 L 17.785156 25.433594 L 9.480469 32.039062 L 9.410156 32.09375 L 11.917969 33.417969 C 14.296875 34.59375 17.613281 34.199219 19.867188 32.527344 L 27.292969 26.644531 L 33.28125 21.929688 L 36.785156 19.167969 "/>
<path style=" stroke:none;fill-rule:nonzero;fill:rgb(78.137207%,76.147461%,75.282288%);fill-opacity:1;" d="M 21.375 22.589844 C 22.988281 21.332031 25.175781 19.703125 25.175781 19.703125 C 25.738281 19.269531 26.320312 18.945312 26.894531 18.710938 L 17.640625 21.386719 L 16.105469 22.601562 L 12.101562 25.789062 C 9.847656 27.457031 6.539062 27.859375 4.164062 26.6875 C 6.191406 27.902344 9.339844 28.183594 14.082031 26.765625 L 17.324219 25.800781 L 17.789062 25.433594 L 21.375 22.589844 "/>
<path style=" stroke:none;fill-rule:nonzero;fill:rgb(78.137207%,76.147461%,75.282288%);fill-opacity:1;" d="M 34.425781 25.421875 C 35.957031 24.226562 37.109375 23.359375 38.257812 22.84375 L 27.898438 26.167969 L 27.292969 26.644531 L 19.867188 32.527344 C 17.609375 34.199219 14.296875 34.597656 11.917969 33.417969 C 15.574219 35.425781 21.203125 33.953125 25.9375 32.269531 L 26.21875 32.039062 C 26.21875 32.039062 34.144531 25.628906 34.425781 25.421875 "/>
<path style=" stroke:none;fill-rule:nonzero;fill:rgb(78.137207%,76.147461%,75.282288%);fill-opacity:1;" d="M 47.867188 30.988281 C 43.222656 29.640625 41.832031 30.492188 36.359375 32.140625 L 36.355469 32.140625 L 35.902344 32.519531 L 35.902344 32.515625 L 35.894531 32.523438 L 35.902344 32.519531 L 35.886719 32.527344 L 27.070312 39.519531 C 24.558594 41.382812 20.628906 41.738281 17.972656 40.4375 C 21.25 42.148438 24.640625 41.726562 30.441406 39.917969 L 53.679688 32.785156 L 47.867188 30.988281 "/>
<path style=" stroke:none;fill-rule:nonzero;fill:rgb(54.794312%,8.407593%,29.907227%);fill-opacity:1;" d="M 47.984375 23.464844 L 42.480469 22.464844 C 39.183594 21.851562 37.625 22.917969 34.425781 25.421875 C 34.144531 25.628906 26.21875 32.039062 26.21875 32.039062 L 17.320312 39.21875 L 19.824219 40.542969 C 22.207031 41.71875 25.738281 41.402344 27.988281 39.726562 L 35.882812 33.46875 L 35.894531 33.464844 L 35.890625 33.464844 L 47.984375 23.464844 "/>
<path style=" stroke:none;fill-rule:nonzero;fill:rgb(70.307922%,8.068848%,36.756897%);fill-opacity:1;" d="M 17.320312 25.800781 L 34.914062 20.636719 L 27.898438 26.167969 L 9.410156 32.09375 L 17.320312 25.800781 "/>
<path style=" stroke:none;fill-rule:nonzero;fill:rgb(70.307922%,8.068848%,36.756897%);fill-opacity:1;" d="M 25.933594 32.265625 L 45.09375 25.851562 L 36.304688 33.125 L 17.324219 39.21875 L 25.933594 32.265625 "/>
</g>
</svg>
