<?xml version="1.0" encoding="UTF-8"?>
<svg xmlns="http://www.w3.org/2000/svg" xmlns:xlink="http://www.w3.org/1999/xlink" width="56pt" height="56pt" viewBox="0 0 56 56" version="1.1">
<g id="surface1">
<rect x="0" y="0" width="56" height="56" style="fill:rgb(59.516907%,52.149963%,12.426758%);fill-opacity:1;stroke:none;"/>
<path style=" stroke:none;fill-rule:nonzero;fill:rgb(100%,100%,100%);fill-opacity:1;" d="M 2.320312 29.203125 L 4.40625 29.070312 C 4.449219 29.40625 4.542969 29.667969 4.683594 29.84375 C 4.90625 30.132812 5.230469 30.277344 5.652344 30.277344 C 5.964844 30.277344 6.207031 30.203125 6.375 30.054688 C 6.542969 29.90625 6.628906 29.738281 6.628906 29.542969 C 6.628906 29.359375 6.550781 29.195312 6.386719 29.050781 C 6.226562 28.90625 5.851562 28.769531 5.261719 28.636719 C 4.300781 28.421875 3.617188 28.136719 3.207031 27.777344 C 2.792969 27.417969 2.585938 26.960938 2.585938 26.40625 C 2.585938 26.042969 2.691406 25.695312 2.902344 25.371094 C 3.113281 25.046875 3.433594 24.792969 3.855469 24.605469 C 4.28125 24.421875 4.863281 24.328125 5.601562 24.328125 C 6.511719 24.328125 7.203125 24.5 7.675781 24.835938 C 8.152344 25.171875 8.4375 25.710938 8.527344 26.445312 L 6.460938 26.566406 C 6.40625 26.246094 6.289062 26.015625 6.113281 25.867188 C 5.9375 25.722656 5.695312 25.652344 5.386719 25.652344 C 5.128906 25.652344 4.9375 25.707031 4.808594 25.8125 C 4.679688 25.921875 4.613281 26.050781 4.613281 26.210938 C 4.613281 26.320312 4.667969 26.421875 4.773438 26.511719 C 4.878906 26.605469 5.125 26.695312 5.511719 26.773438 C 6.46875 26.980469 7.15625 27.191406 7.574219 27.402344 C 7.988281 27.613281 8.289062 27.875 8.476562 28.1875 C 8.667969 28.5 8.761719 28.851562 8.761719 29.238281 C 8.761719 29.695312 8.636719 30.113281 8.382812 30.5 C 8.132812 30.882812 7.78125 31.175781 7.324219 31.371094 C 6.875 31.570312 6.304688 31.671875 5.617188 31.671875 C 4.410156 31.671875 3.574219 31.441406 3.109375 30.972656 C 2.644531 30.507812 2.378906 29.917969 2.320312 29.203125 "/>
<path style=" stroke:none;fill-rule:nonzero;fill:rgb(100%,100%,100%);fill-opacity:1;" d="M 13.242188 29.109375 C 12.96875 29.207031 12.6875 29.292969 12.394531 29.367188 C 11.992188 29.472656 11.738281 29.578125 11.632812 29.679688 C 11.523438 29.785156 11.46875 29.90625 11.46875 30.042969 C 11.46875 30.199219 11.523438 30.324219 11.632812 30.425781 C 11.738281 30.523438 11.898438 30.570312 12.109375 30.570312 C 12.328125 30.570312 12.53125 30.519531 12.71875 30.410156 C 12.910156 30.304688 13.042969 30.175781 13.125 30.023438 C 13.203125 29.867188 13.242188 29.667969 13.242188 29.421875 L 13.242188 29.109375 M 11.53125 28.074219 L 9.648438 27.875 C 9.71875 27.542969 9.820312 27.285156 9.957031 27.09375 C 10.089844 26.90625 10.28125 26.742188 10.53125 26.605469 C 10.714844 26.503906 10.964844 26.425781 11.28125 26.371094 C 11.59375 26.316406 11.9375 26.289062 12.304688 26.289062 C 12.898438 26.289062 13.371094 26.324219 13.730469 26.390625 C 14.089844 26.457031 14.386719 26.59375 14.628906 26.804688 C 14.792969 26.949219 14.925781 27.152344 15.023438 27.421875 C 15.121094 27.6875 15.167969 27.941406 15.167969 28.183594 L 15.167969 30.457031 C 15.167969 30.699219 15.183594 30.886719 15.214844 31.023438 C 15.246094 31.160156 15.3125 31.335938 15.414062 31.550781 L 13.566406 31.550781 C 13.492188 31.414062 13.441406 31.316406 13.417969 31.246094 C 13.398438 31.179688 13.375 31.070312 13.351562 30.921875 C 13.09375 31.167969 12.839844 31.347656 12.582031 31.453125 C 12.234375 31.59375 11.828125 31.664062 11.367188 31.664062 C 10.753906 31.664062 10.289062 31.523438 9.96875 31.238281 C 9.652344 30.957031 9.492188 30.605469 9.492188 30.191406 C 9.492188 29.796875 9.605469 29.476562 9.835938 29.226562 C 10.066406 28.972656 10.488281 28.785156 11.105469 28.664062 C 11.84375 28.515625 12.324219 28.410156 12.542969 28.351562 C 12.761719 28.289062 12.996094 28.214844 13.242188 28.117188 C 13.242188 27.875 13.191406 27.703125 13.089844 27.609375 C 12.992188 27.511719 12.816406 27.460938 12.5625 27.460938 C 12.238281 27.460938 12 27.511719 11.835938 27.617188 C 11.710938 27.699219 11.609375 27.847656 11.53125 28.074219 "/>
<path style=" stroke:none;fill-rule:nonzero;fill:rgb(100%,100%,100%);fill-opacity:1;" d="M 18.542969 26.40625 L 19.484375 26.40625 L 19.484375 27.847656 L 18.542969 27.847656 L 18.542969 31.546875 L 16.570312 31.546875 L 16.570312 27.847656 L 15.832031 27.847656 L 15.832031 26.40625 L 16.570312 26.40625 L 16.570312 26.171875 C 16.570312 25.964844 16.589844 25.730469 16.636719 25.480469 C 16.683594 25.230469 16.765625 25.023438 16.890625 24.863281 C 17.015625 24.703125 17.191406 24.574219 17.414062 24.476562 C 17.636719 24.378906 17.96875 24.328125 18.398438 24.328125 C 18.746094 24.328125 19.246094 24.371094 19.90625 24.449219 L 19.6875 25.640625 C 19.453125 25.601562 19.261719 25.582031 19.117188 25.582031 C 18.941406 25.582031 18.8125 25.613281 18.734375 25.671875 C 18.65625 25.730469 18.601562 25.828125 18.570312 25.957031 C 18.554688 26.027344 18.542969 26.175781 18.542969 26.40625 "/>
<path style=" stroke:none;fill-rule:nonzero;fill:rgb(100%,100%,100%);fill-opacity:1;" d="M 23.621094 29.109375 C 23.347656 29.207031 23.066406 29.292969 22.773438 29.367188 C 22.371094 29.472656 22.117188 29.578125 22.011719 29.679688 C 21.902344 29.785156 21.847656 29.90625 21.847656 30.042969 C 21.847656 30.199219 21.902344 30.324219 22.011719 30.425781 C 22.117188 30.523438 22.277344 30.570312 22.488281 30.570312 C 22.707031 30.570312 22.910156 30.519531 23.097656 30.410156 C 23.289062 30.304688 23.421875 30.175781 23.5 30.023438 C 23.582031 29.867188 23.621094 29.667969 23.621094 29.421875 L 23.621094 29.109375 M 21.910156 28.074219 L 20.027344 27.875 C 20.097656 27.542969 20.199219 27.285156 20.335938 27.09375 C 20.46875 26.90625 20.660156 26.742188 20.914062 26.605469 C 21.09375 26.503906 21.34375 26.425781 21.660156 26.371094 C 21.976562 26.316406 22.316406 26.289062 22.683594 26.289062 C 23.277344 26.289062 23.75 26.324219 24.109375 26.390625 C 24.46875 26.457031 24.765625 26.59375 25.003906 26.804688 C 25.171875 26.949219 25.304688 27.152344 25.402344 27.421875 C 25.5 27.6875 25.546875 27.941406 25.546875 28.183594 L 25.546875 30.457031 C 25.546875 30.699219 25.5625 30.886719 25.59375 31.023438 C 25.625 31.160156 25.691406 31.335938 25.796875 31.550781 L 23.945312 31.550781 C 23.871094 31.414062 23.824219 31.316406 23.800781 31.246094 C 23.777344 31.179688 23.753906 31.070312 23.730469 30.921875 C 23.472656 31.167969 23.21875 31.347656 22.960938 31.453125 C 22.613281 31.59375 22.207031 31.664062 21.746094 31.664062 C 21.132812 31.664062 20.664062 31.523438 20.347656 31.238281 C 20.03125 30.957031 19.871094 30.605469 19.871094 30.191406 C 19.871094 29.796875 19.984375 29.476562 20.214844 29.226562 C 20.445312 28.972656 20.867188 28.785156 21.484375 28.664062 C 22.222656 28.515625 22.703125 28.410156 22.921875 28.351562 C 23.140625 28.289062 23.375 28.214844 23.621094 28.117188 C 23.621094 27.875 23.570312 27.703125 23.46875 27.609375 C 23.371094 27.511719 23.195312 27.460938 22.941406 27.460938 C 22.621094 27.460938 22.378906 27.511719 22.214844 27.617188 C 22.089844 27.699219 21.988281 27.847656 21.910156 28.074219 "/>
<path style=" stroke:none;fill-rule:nonzero;fill:rgb(100%,100%,100%);fill-opacity:1;" d="M 26.75 26.40625 L 28.59375 26.40625 L 28.59375 27.25 C 28.773438 26.886719 28.957031 26.632812 29.144531 26.496094 C 29.335938 26.359375 29.566406 26.289062 29.84375 26.289062 C 30.136719 26.289062 30.453125 26.378906 30.796875 26.558594 L 30.1875 27.964844 C 29.957031 27.867188 29.773438 27.820312 29.636719 27.820312 C 29.378906 27.820312 29.175781 27.925781 29.035156 28.140625 C 28.832031 28.441406 28.730469 29.003906 28.730469 29.824219 L 28.730469 31.546875 L 26.75 31.546875 "/>
<path style=" stroke:none;fill-rule:nonzero;fill:rgb(100%,100%,100%);fill-opacity:1;" d="M 31.207031 31.550781 L 33.175781 31.550781 L 33.175781 26.40625 L 31.207031 26.40625 Z M 31.207031 25.792969 L 33.175781 25.792969 L 33.175781 24.449219 L 31.207031 24.449219 L 31.207031 25.792969 "/>
<path style=" stroke:none;fill-rule:nonzero;fill:rgb(100%,100%,100%);fill-opacity:1;" d="M 34.503906 31.550781 L 36.480469 31.550781 L 36.480469 24.449219 L 34.503906 24.449219 L 34.503906 31.550781 "/>
<path style=" stroke:none;fill-rule:nonzero;fill:rgb(100%,100%,100%);fill-opacity:1;" d="M 37.8125 31.550781 L 39.785156 31.550781 L 39.785156 26.40625 L 37.8125 26.40625 Z M 37.8125 25.792969 L 39.785156 25.792969 L 39.785156 24.449219 L 37.8125 24.449219 L 37.8125 25.792969 "/>
<path style=" stroke:none;fill-rule:nonzero;fill:rgb(100%,100%,100%);fill-opacity:1;" d="M 41.042969 26.40625 L 42.878906 26.40625 L 42.878906 27.242188 C 43.15625 26.902344 43.429688 26.65625 43.710938 26.511719 C 43.992188 26.363281 44.335938 26.289062 44.738281 26.289062 C 45.285156 26.289062 45.710938 26.453125 46.019531 26.777344 C 46.328125 27.101562 46.480469 27.601562 46.480469 28.28125 L 46.480469 31.546875 L 44.503906 31.546875 L 44.503906 28.71875 C 44.503906 28.398438 44.445312 28.167969 44.324219 28.035156 C 44.203125 27.902344 44.035156 27.835938 43.820312 27.835938 C 43.582031 27.835938 43.386719 27.925781 43.238281 28.105469 C 43.089844 28.289062 43.015625 28.609375 43.015625 29.078125 L 43.015625 31.546875 L 41.042969 31.546875 "/>
<path style=" stroke:none;fill-rule:nonzero;fill:rgb(100%,100%,100%);fill-opacity:1;" d="M 47.660156 24.449219 L 47.660156 31.550781 L 49.675781 31.550781 L 49.675781 30.214844 L 50.417969 29.488281 L 51.460938 31.550781 L 53.679688 31.550781 L 51.726562 28.207031 L 53.574219 26.40625 L 51.148438 26.40625 L 49.675781 28.113281 L 49.675781 24.449219 L 47.660156 24.449219 "/>
</g>
</svg>
