<?xml version="1.0" encoding="UTF-8"?>
<svg xmlns="http://www.w3.org/2000/svg" xmlns:xlink="http://www.w3.org/1999/xlink" width="56pt" height="56pt" viewBox="0 0 56 56" version="1.1">
<g id="surface1">
<rect x="0" y="0" width="56" height="56" style="fill:rgb(95.66803%,95.779419%,96.777344%);fill-opacity:1;stroke:none;"/>
<path style=" stroke:none;fill-rule:nonzero;fill:rgb(16.566467%,23.265076%,55.94635%);fill-opacity:1;" d="M 8.324219 40.597656 C 8.558594 40.027344 8.953125 39.996094 9.289062 39.878906 C 12.597656 38.714844 15.929688 37.597656 19.21875 36.375 C 22.035156 35.328125 24.804688 34.15625 27.59375 33.039062 C 27.902344 32.917969 28.207031 32.796875 28.679688 32.609375 C 28.28125 36.363281 27.648438 39.941406 27.238281 43.574219 C 27.910156 43.421875 31.734375 41.308594 33.15625 40.324219 C 33.605469 38.984375 34.078125 37.574219 34.554688 36.164062 C 35.308594 33.929688 36.082031 31.703125 36.816406 29.460938 C 36.96875 28.992188 37.226562 28.71875 37.660156 28.5 C 41.46875 26.570312 45.265625 24.613281 49.070312 22.671875 C 49.308594 22.550781 49.570312 22.46875 49.808594 22.375 C 50.164062 22.710938 50.242188 23.0625 50.183594 23.429688 C 49.648438 26.644531 49.195312 29.871094 48.535156 33.054688 C 47.960938 35.808594 46.640625 38.214844 44.488281 40.101562 C 43.140625 41.285156 41.621094 42.183594 39.957031 42.820312 C 37.488281 43.761719 34.984375 44.601562 32.398438 45.160156 C 29.839844 45.710938 27.25 45.78125 24.703125 45.183594 C 19.703125 44.003906 14.691406 42.871094 9.789062 41.308594 C 9.492188 41.214844 9.195312 41.125 8.917969 40.992188 C 8.707031 40.894531 8.523438 40.734375 8.324219 40.597656 "/>
<path style=" stroke:none;fill-rule:nonzero;fill:rgb(87.892151%,12.791443%,15.24353%);fill-opacity:1;" d="M 5.796875 36.058594 C 5.875 35.5625 5.855469 35.277344 5.960938 35.042969 C 8.121094 30.132812 10.207031 25.183594 12.492188 20.332031 C 14.089844 16.945312 16.949219 15.152344 20.683594 14.785156 C 21.242188 14.730469 21.800781 14.679688 22.359375 14.632812 C 23.023438 14.578125 23.632812 14.351562 24.132812 13.921875 C 24.621094 13.5 25.105469 13.058594 25.503906 12.558594 C 26.601562 11.1875 28.066406 10.542969 29.746094 10.433594 C 32.636719 10.242188 35.417969 10.785156 38.011719 12.0625 C 39.796875 12.945312 41.503906 13.988281 43.226562 14.992188 C 44.589844 15.785156 45.976562 16.515625 47.464844 17.050781 C 47.738281 17.152344 47.984375 17.320312 48.441406 17.5625 C 47.996094 17.757812 47.761719 17.890625 47.511719 17.964844 C 43.285156 19.226562 39.113281 20.664062 34.996094 22.253906 C 34.46875 22.457031 34.042969 22.402344 33.554688 22.175781 C 30.367188 20.707031 27.164062 19.265625 23.980469 17.785156 C 23.433594 17.53125 22.953125 17.46875 22.371094 17.65625 C 20.53125 18.261719 18.675781 18.816406 16.65625 19.4375 C 19.761719 21.644531 22.761719 23.773438 25.886719 25.992188 C 24.796875 26.492188 23.839844 26.929688 22.886719 27.371094 C 21.941406 27.8125 21 28.25 20.0625 28.703125 C 19.101562 29.164062 18.144531 29.640625 17.191406 30.117188 C 16.234375 30.59375 15.28125 31.074219 14.335938 31.566406 C 13.386719 32.058594 12.445312 32.558594 11.503906 33.066406 C 10.585938 33.554688 9.679688 34.066406 8.761719 34.554688 C 7.84375 35.039062 6.980469 35.644531 5.796875 36.058594 "/>
</g>
</svg>
