<?xml version="1.0" encoding="UTF-8"?>
<svg xmlns="http://www.w3.org/2000/svg" xmlns:xlink="http://www.w3.org/1999/xlink" width="56pt" height="56pt" viewBox="0 0 56 56" version="1.1">
<g id="surface1">
<rect x="0" y="0" width="56" height="56" style="fill:rgb(8.758545%,9.69696%,17.100525%);fill-opacity:1;stroke:none;"/>
<path style=" stroke:none;fill-rule:nonzero;fill:rgb(61.256409%,86.785889%,82.17926%);fill-opacity:1;" d="M 40.046875 8.539062 C 42.984375 8.539062 45.363281 10.917969 45.363281 13.851562 C 45.363281 16.789062 42.984375 19.167969 40.046875 19.167969 C 37.113281 19.167969 34.734375 16.789062 34.734375 13.851562 C 34.734375 10.917969 37.113281 8.539062 40.046875 8.539062 "/>
<path style=" stroke:none;fill-rule:nonzero;fill:rgb(61.256409%,86.785889%,82.17926%);fill-opacity:1;" d="M 35.734375 21.886719 L 12.566406 21.886719 C 11.3125 21.886719 10.640625 22.625 10.640625 23.492188 C 10.617188 23.917969 10.753906 24.335938 11.019531 24.667969 C 11.285156 25 11.664062 25.222656 12.085938 25.292969 L 27.441406 29.308594 C 31.265625 30.304688 32.550781 32.328125 32.488281 37.050781 L 32.359375 47.460938 L 37.691406 47.460938 L 41.871094 29.984375 C 43.089844 24.84375 41.035156 21.886719 35.734375 21.886719 "/>
</g>
</svg>
