<?xml version="1.0" encoding="UTF-8"?>
<svg xmlns="http://www.w3.org/2000/svg" xmlns:xlink="http://www.w3.org/1999/xlink" width="56.12pt" height="56pt" viewBox="0 0 56.12 56" version="1.1">
<defs>
<clipPath id="clip1">
  <path d="M 29 0 L 56.121094 0 L 56.121094 31 L 29 31 Z M 29 0 "/>
</clipPath>
<clipPath id="clip2">
  <path d="M 29 31 L 56.121094 31 L 56.121094 56 L 29 56 Z M 29 31 "/>
</clipPath>
</defs>
<g id="surface1">
<path style=" stroke:none;fill-rule:nonzero;fill:rgb(100%,100%,100%);fill-opacity:1;" d="M 56.0625 56 L 0.0625 56 L 0.0625 0 L 56.0625 0 L 56.0625 56 "/>
<path style=" stroke:none;fill-rule:nonzero;fill:rgb(19.880676%,40.7547%,73.297119%);fill-opacity:1;" d="M 0.0625 0 C 0.0625 0 18.027344 0 27.0625 0 C 24.414062 3.304688 24.964844 7.277344 24.8125 11.074219 C 24.703125 13.769531 24.789062 16.476562 24.789062 19.355469 C 24.160156 19.707031 23.464844 20.152344 22.726562 20.492188 C 15.15625 24.003906 0.0625 31 0.0625 31 L 0.0625 0 "/>
<path style=" stroke:none;fill-rule:nonzero;fill:rgb(14.102173%,24.162292%,46.946716%);fill-opacity:1;" d="M 0 34.785156 C 3.929688 34.269531 7.871094 33.808594 11.789062 33.214844 C 15.625 32.628906 19.433594 31.898438 23.257812 31.253906 C 23.746094 31.171875 24.257812 31.242188 24.890625 31.242188 C 24.890625 34.066406 24.882812 36.765625 24.890625 39.464844 C 24.898438 40.929688 24.90625 42.394531 24.964844 43.855469 C 25.042969 45.929688 25.789062 47.710938 27.855469 49.144531 C 23.90625 51.367188 16.0625 56 16.0625 56 L 0.0625 56 C 0.0625 56 0 41.726562 0 34.785156 "/>
<g clip-path="url(#clip1)" clip-rule="nonzero">
<path style=" stroke:none;fill-rule:nonzero;fill:rgb(19.880676%,40.7547%,73.297119%);fill-opacity:1;" d="M 29.0625 0 L 56.0625 0 C 56.0625 0 56.0625 20.585938 56.0625 31 C 47.921875 27.175781 31.644531 19.464844 31.644531 19.464844 C 31.644531 19.464844 31.238281 8.449219 31.0625 5 C 30.976562 3.355469 30.28125 1.136719 29.125 0.0117188 L 29.0625 0 "/>
</g>
<g clip-path="url(#clip2)" clip-rule="nonzero">
<path style=" stroke:none;fill-rule:nonzero;fill:rgb(14.102173%,24.162292%,46.946716%);fill-opacity:1;" d="M 56.121094 35.125 C 56.121094 42.023438 56.0625 56 56.0625 56 L 40.0625 56 C 40.0625 56 35.101562 53.195312 32.851562 51.53125 C 31.84375 50.789062 29.292969 49.304688 29.0625 49 C 31.28125 47.0625 31.722656 44.425781 31.636719 41.628906 C 31.550781 38.898438 31.554688 36.164062 31.554688 33.433594 C 31.554688 32.730469 31.675781 32.027344 31.773438 31.007812 C 39.996094 32.398438 48.011719 33.753906 56.121094 35.125 "/>
</g>
<path style=" stroke:none;fill-rule:nonzero;fill:rgb(19.880676%,40.7547%,73.297119%);fill-opacity:1;" d="M 29.125 0.0117188 C 28.429688 0.0078125 27.734375 0.00390625 27.039062 0 L 29.125 0.0117188 "/>
</g>
</svg>
