<?xml version="1.0" encoding="UTF-8"?>
<svg xmlns="http://www.w3.org/2000/svg" xmlns:xlink="http://www.w3.org/1999/xlink" width="56pt" height="56pt" viewBox="0 0 56 56" version="1.1">
<g id="surface1">
<rect x="0" y="0" width="56" height="56" style="fill:rgb(95.666504%,95.776367%,96.775818%);fill-opacity:1;stroke:none;"/>
<path style=" stroke:none;fill-rule:nonzero;fill:rgb(27.088928%,37.234497%,70.94574%);fill-opacity:1;" d="M 48.195312 28 C 48.195312 39.167969 39.144531 48.21875 27.976562 48.21875 C 16.808594 48.21875 7.757812 39.167969 7.757812 28 C 7.757812 16.832031 16.808594 7.78125 27.976562 7.78125 C 39.144531 7.78125 48.195312 16.832031 48.195312 28 "/>
<path style=" stroke:none;fill-rule:nonzero;fill:rgb(100%,100%,100%);fill-opacity:1;" d="M 4.484375 25.28125 L 24.382812 20.785156 L 14.433594 15.542969 L 37.769531 15.542969 L 36.175781 18.445312 L 51.53125 15.730469 L 36.925781 22.753906 L 41.417969 24.4375 L 20.636719 36.605469 L 29.34375 26.496094 L 12.960938 33.796875 L 20.824219 25.839844 L 4.484375 25.28125 "/>
<path style=" stroke:none;fill-rule:nonzero;fill:rgb(27.088928%,37.234497%,70.94574%);fill-opacity:1;" d="M 29.402344 26.453125 L 29.355469 26.507812 L 20.710938 36.546875 L 41.382812 24.441406 L 36.886719 22.753906 L 36.917969 22.738281 L 51.417969 15.765625 L 36.148438 18.46875 L 37.742188 15.558594 L 14.496094 15.558594 L 24.425781 20.792969 L 24.386719 20.800781 L 4.605469 25.269531 L 20.863281 25.828125 L 20.835938 25.851562 L 13.03125 33.75 Z M 20.566406 36.667969 L 29.285156 26.539062 L 12.894531 33.847656 L 20.789062 25.855469 L 4.363281 25.289062 L 4.480469 25.265625 L 24.339844 20.78125 L 14.371094 15.53125 L 37.792969 15.53125 L 36.207031 18.425781 L 51.640625 15.695312 L 36.964844 22.75 L 41.457031 24.433594 L 41.425781 24.453125 L 20.566406 36.667969 "/>
<path style=" stroke:none;fill-rule:nonzero;fill:rgb(100%,100%,100%);fill-opacity:1;" d="M 20.65625 39.167969 L 20.320312 38.574219 C 20.242188 38.441406 20.191406 38.320312 20.140625 38.199219 L 20.128906 38.199219 C 20.078125 38.320312 20.019531 38.445312 19.953125 38.574219 L 19.613281 39.167969 Z M 19.523438 39.375 L 19.164062 40.023438 L 18.703125 40.023438 L 19.878906 37.964844 L 20.417969 37.964844 L 21.597656 40.023438 L 21.121094 40.023438 L 20.75 39.375 L 19.523438 39.375 "/>
<path style=" stroke:none;fill-rule:nonzero;fill:rgb(100%,100%,100%);fill-opacity:1;" d="M 23.066406 38.929688 L 23.523438 38.929688 C 24 38.929688 24.300781 38.773438 24.300781 38.539062 C 24.300781 38.273438 23.980469 38.15625 23.507812 38.152344 C 23.289062 38.152344 23.136719 38.164062 23.066406 38.175781 Z M 22.617188 37.992188 C 22.84375 37.964844 23.167969 37.949219 23.476562 37.949219 C 23.953125 37.949219 24.261719 38 24.476562 38.117188 C 24.652344 38.210938 24.75 38.347656 24.75 38.507812 C 24.75 38.78125 24.460938 38.960938 24.097656 39.03125 L 24.097656 39.042969 C 24.363281 39.097656 24.523438 39.246094 24.605469 39.457031 C 24.71875 39.746094 24.800781 39.945312 24.871094 40.023438 L 24.410156 40.023438 C 24.355469 39.964844 24.277344 39.789062 24.179688 39.53125 C 24.078125 39.246094 23.890625 39.140625 23.484375 39.132812 L 23.066406 39.132812 L 23.066406 40.023438 L 22.617188 40.023438 L 22.617188 37.992188 "/>
<path style=" stroke:none;fill-rule:nonzero;fill:rgb(100%,100%,100%);fill-opacity:1;" d="M 26.339844 37.964844 L 26.339844 40.023438 L 25.894531 40.023438 L 25.894531 37.964844 L 26.339844 37.964844 "/>
<path style=" stroke:none;fill-rule:nonzero;fill:rgb(100%,100%,100%);fill-opacity:1;" d="M 29.328125 39.167969 L 28.988281 38.574219 C 28.914062 38.441406 28.859375 38.320312 28.808594 38.199219 L 28.800781 38.199219 C 28.75 38.320312 28.691406 38.445312 28.625 38.574219 L 28.285156 39.167969 Z M 28.195312 39.375 L 27.835938 40.023438 L 27.371094 40.023438 L 28.546875 37.964844 L 29.085938 37.964844 L 30.269531 40.023438 L 29.789062 40.023438 L 29.421875 39.375 L 28.195312 39.375 "/>
<path style=" stroke:none;fill-rule:nonzero;fill:rgb(100%,100%,100%);fill-opacity:1;" d="M 31.289062 40.023438 L 31.289062 37.964844 L 31.777344 37.964844 L 32.886719 39.007812 C 33.144531 39.246094 33.34375 39.464844 33.507812 39.675781 L 33.519531 39.671875 C 33.476562 39.398438 33.46875 39.148438 33.46875 38.828125 L 33.46875 37.964844 L 33.886719 37.964844 L 33.886719 40.023438 L 33.433594 40.023438 L 32.335938 38.976562 C 32.09375 38.75 31.863281 38.515625 31.691406 38.289062 L 31.671875 38.292969 C 31.699219 38.554688 31.710938 38.800781 31.710938 39.144531 L 31.710938 40.023438 L 31.289062 40.023438 "/>
<path style=" stroke:none;fill-rule:nonzero;fill:rgb(100%,100%,100%);fill-opacity:1;" d="M 36.875 39.167969 L 36.535156 38.574219 C 36.460938 38.441406 36.40625 38.320312 36.355469 38.199219 L 36.34375 38.199219 C 36.292969 38.320312 36.238281 38.445312 36.171875 38.574219 L 35.832031 39.167969 Z M 35.738281 39.375 L 35.378906 40.023438 L 34.917969 40.023438 L 36.09375 37.964844 L 36.632812 37.964844 L 37.816406 40.023438 L 37.335938 40.023438 L 36.96875 39.375 L 35.738281 39.375 "/>
</g>
</svg>
