<?xml version="1.0" encoding="UTF-8"?>
<svg xmlns="http://www.w3.org/2000/svg" xmlns:xlink="http://www.w3.org/1999/xlink" width="56pt" height="56pt" viewBox="0 0 56 56" version="1.1">
<g id="surface1">
<rect x="0" y="0" width="56" height="56" style="fill:rgb(85.240173%,11.654663%,14.564514%);fill-opacity:1;stroke:none;"/>
<path style=" stroke:none;fill-rule:nonzero;fill:rgb(100%,100%,100%);fill-opacity:1;" d="M 5.320312 26.097656 C 5.335938 26.035156 5.367188 25.972656 5.371094 25.90625 C 5.511719 24.097656 5.953125 22.351562 6.5625 20.648438 C 7.367188 18.386719 8.425781 16.25 9.925781 14.355469 C 11.441406 12.445312 13.21875 10.816406 15.246094 9.449219 C 16.628906 8.511719 18.070312 7.6875 19.613281 7.046875 C 20.847656 6.535156 22.121094 6.183594 23.429688 5.90625 C 25.296875 5.511719 27.179688 5.335938 29.085938 5.425781 C 31.101562 5.527344 33.066406 5.914062 34.996094 6.503906 C 36.65625 7.011719 38.199219 7.777344 39.714844 8.59375 C 39.964844 8.726562 40.183594 8.933594 40.394531 9.128906 C 40.570312 9.289062 40.605469 9.496094 40.492188 9.71875 C 40.457031 9.78125 40.441406 9.855469 40.417969 9.925781 C 40.292969 10.316406 40.023438 10.511719 39.613281 10.554688 C 38.003906 10.71875 36.390625 10.75 34.777344 10.738281 C 33.757812 10.726562 32.734375 10.746094 31.71875 10.828125 C 31.128906 10.875 30.53125 11.03125 29.964844 11.210938 C 29.058594 11.5 28.59375 12.234375 28.242188 13.058594 C 28.207031 13.140625 28.164062 13.21875 28.140625 13.304688 C 27.894531 14.101562 27.308594 14.464844 26.519531 14.609375 C 25.921875 14.71875 25.335938 14.890625 24.742188 15.03125 C 24.558594 15.074219 24.496094 15.164062 24.496094 15.359375 C 24.507812 16.777344 25.675781 17.960938 27.078125 17.910156 C 27.53125 17.894531 27.988281 17.761719 28.433594 17.644531 C 29.734375 17.308594 31.027344 16.925781 32.335938 16.609375 C 33.988281 16.210938 35.664062 15.964844 37.375 16.085938 C 37.675781 16.109375 37.980469 16.171875 38.273438 16.257812 C 39.210938 16.535156 39.261719 17.230469 38.875 17.914062 C 38.585938 18.425781 38.09375 18.71875 37.582031 18.972656 C 36.601562 19.453125 35.550781 19.734375 34.496094 19.980469 C 32.347656 20.484375 30.300781 21.261719 28.304688 22.167969 C 26.921875 22.796875 25.554688 23.453125 24.320312 24.347656 C 22.289062 25.808594 20.703125 27.632812 19.792969 29.980469 C 18.621094 33.023438 18.496094 36.082031 19.851562 39.097656 C 20.597656 40.757812 21.664062 42.222656 23.097656 43.375 C 24.457031 44.460938 26.007812 45.214844 27.660156 45.753906 C 29.773438 46.449219 31.925781 46.644531 34.136719 46.382812 C 35.890625 46.175781 37.613281 45.847656 39.210938 45.082031 C 41.472656 43.992188 43.503906 42.582031 45.054688 40.574219 C 46.347656 38.898438 46.90625 36.976562 46.859375 34.871094 C 46.835938 33.875 46.746094 32.890625 46.476562 31.921875 C 46.269531 31.175781 45.933594 30.5 45.417969 29.914062 C 45.222656 29.691406 45.035156 29.457031 44.867188 29.214844 C 44.738281 29.027344 44.644531 28.820312 44.511719 28.582031 C 44.683594 28.550781 44.8125 28.527344 44.941406 28.503906 C 46.097656 28.296875 47.035156 27.679688 47.878906 26.90625 C 48.523438 26.3125 49.125 25.675781 49.757812 25.066406 C 49.972656 24.859375 50.222656 24.691406 50.507812 24.460938 C 50.527344 24.621094 50.539062 24.695312 50.542969 24.773438 C 50.589844 26.117188 50.648438 27.457031 50.675781 28.800781 C 50.710938 30.261719 50.523438 31.703125 50.179688 33.121094 C 49.90625 34.253906 49.648438 35.390625 49.234375 36.480469 C 48.425781 38.628906 47.261719 40.554688 45.78125 42.3125 C 45 43.242188 44.078125 44.011719 43.226562 44.855469 C 42.152344 45.921875 40.839844 46.617188 39.53125 47.328125 C 37.859375 48.234375 36.066406 48.8125 34.183594 49.109375 C 32.550781 49.363281 30.910156 49.386719 29.265625 49.191406 C 27.257812 48.957031 25.34375 48.40625 23.535156 47.511719 C 20.652344 46.085938 18.355469 44.03125 16.808594 41.1875 C 15.925781 39.566406 15.40625 37.828125 15.214844 35.988281 C 15 33.929688 15.167969 31.894531 15.71875 29.902344 C 16.199219 28.171875 17.011719 26.609375 18.214844 25.257812 C 19.324219 24.011719 20.410156 22.753906 21.472656 21.472656 C 22.121094 20.683594 22.652344 19.8125 22.9375 18.820312 C 23.1875 17.949219 23.171875 17.085938 22.835938 16.242188 C 22.457031 15.304688 21.699219 14.804688 20.757812 14.546875 C 19.664062 14.25 18.550781 14.261719 17.429688 14.347656 C 17.121094 14.371094 16.808594 14.398438 16.441406 14.425781 C 16.636719 14.230469 16.804688 14.082031 16.953125 13.914062 C 17.460938 13.347656 18.105469 13.011719 18.839844 12.898438 C 19.640625 12.773438 20.449219 12.710938 21.257812 12.652344 C 22.074219 12.589844 22.890625 12.539062 23.679688 12.285156 C 24.570312 11.992188 25.335938 11.480469 26.042969 10.882812 C 26.359375 10.617188 26.566406 10.261719 26.679688 9.792969 C 26.460938 9.863281 26.28125 9.914062 26.105469 9.984375 C 25.90625 10.066406 25.710938 10.152344 25.519531 10.253906 C 24.558594 10.757812 23.511719 10.882812 22.449219 10.925781 C 21.171875 10.976562 19.890625 10.980469 18.613281 11.042969 C 16.671875 11.140625 14.894531 11.730469 13.378906 12.957031 C 12.0625 14.015625 11.269531 15.425781 10.808594 17.035156 C 10.804688 17.054688 10.808594 17.078125 10.808594 17.160156 C 11.085938 17.097656 11.363281 17.082031 11.605469 16.976562 C 12.898438 16.433594 14.257812 16.257812 15.644531 16.234375 C 16.417969 16.222656 17.195312 16.269531 17.90625 16.636719 C 18.664062 17.027344 18.925781 17.765625 18.59375 18.554688 C 18.296875 19.25 17.777344 19.773438 17.226562 20.265625 C 16.101562 21.265625 14.839844 22.085938 13.617188 22.957031 C 12.550781 23.714844 11.492188 24.480469 10.445312 25.265625 C 9.246094 26.167969 8.25 27.261719 7.476562 28.554688 C 7 29.347656 6.484375 30.121094 5.976562 30.898438 C 5.894531 31.027344 5.769531 31.128906 5.660156 31.242188 C 5.636719 31.230469 5.613281 31.21875 5.59375 31.207031 C 5.5625 30.8125 5.53125 30.417969 5.507812 30.023438 C 5.460938 29.328125 5.417969 28.628906 5.371094 27.933594 C 5.367188 27.871094 5.335938 27.808594 5.320312 27.746094 C 5.320312 27.195312 5.320312 26.648438 5.320312 26.097656 "/>
<path style=" stroke:none;fill-rule:nonzero;fill:rgb(100%,100%,100%);fill-opacity:1;" d="M 27.480469 50.597656 C 27.058594 50.554688 26.640625 50.511719 26.21875 50.476562 C 24.558594 50.328125 22.933594 50.023438 21.335938 49.550781 C 19.304688 48.953125 17.390625 48.105469 15.605469 46.964844 C 13.164062 45.40625 11.121094 43.4375 9.511719 41.039062 C 8.324219 39.273438 7.351562 37.390625 6.582031 35.398438 C 6.171875 34.332031 6.363281 33.425781 7.027344 32.546875 C 8.332031 30.808594 9.890625 29.355469 11.753906 28.230469 C 11.867188 28.160156 11.980469 28.089844 12.160156 27.976562 C 12.125 28.304688 12.136719 28.582031 12.058594 28.835938 C 11.492188 30.644531 11.332031 32.496094 11.449219 34.378906 C 11.570312 36.371094 11.992188 38.300781 12.847656 40.113281 C 13.726562 41.976562 14.929688 43.597656 16.445312 45 C 18.042969 46.480469 19.847656 47.636719 21.800781 48.582031 C 23.441406 49.375 25.148438 49.980469 26.957031 50.257812 C 27.507812 50.339844 28.066406 50.371094 28.625 50.410156 C 28.761719 50.417969 28.835938 50.449219 28.820312 50.597656 C 28.371094 50.597656 27.925781 50.597656 27.480469 50.597656 "/>
<path style=" stroke:none;fill-rule:nonzero;fill:rgb(100%,100%,100%);fill-opacity:1;" d="M 42.792969 10.949219 C 43.09375 11.191406 43.359375 11.390625 43.605469 11.613281 C 45.125 12.992188 46.339844 14.617188 47.441406 16.339844 C 48.394531 17.828125 49.09375 19.441406 49.667969 21.105469 C 49.8125 21.519531 49.867188 21.96875 49.945312 22.40625 C 49.957031 22.46875 49.90625 22.582031 49.847656 22.617188 C 49.253906 22.996094 48.644531 23.355469 48.050781 23.742188 C 47.113281 24.355469 46.074219 24.722656 45.023438 25.078125 C 43.191406 25.695312 41.316406 26.109375 39.402344 26.386719 C 38.046875 26.578125 36.691406 26.757812 35.34375 27 C 33.480469 27.332031 31.777344 28.03125 30.355469 29.320312 C 29.445312 30.152344 28.800781 31.144531 28.535156 32.363281 C 28.046875 34.625 29.183594 36.785156 31.335938 37.660156 C 32.550781 38.15625 33.796875 38.296875 35.066406 37.90625 C 36.210938 37.554688 36.976562 36.84375 37.148438 35.609375 C 37.160156 35.527344 37.164062 35.449219 37.171875 35.324219 C 36.945312 35.324219 36.734375 35.320312 36.523438 35.324219 C 36.101562 35.335938 35.691406 35.300781 35.300781 35.121094 C 34.261719 34.648438 33.632812 33.453125 34.210938 32.3125 C 34.660156 31.421875 35.371094 30.863281 36.320312 30.632812 C 37.894531 30.246094 39.382812 30.503906 40.6875 31.46875 C 41.800781 32.292969 42.308594 33.472656 42.355469 34.84375 C 42.414062 36.488281 41.835938 37.9375 40.882812 39.253906 C 40.089844 40.34375 39.015625 41.082031 37.808594 41.628906 C 35.3125 42.769531 32.734375 42.910156 30.101562 42.160156 C 28.296875 41.644531 26.710938 40.75 25.441406 39.355469 C 23.652344 37.390625 23.046875 35.082031 23.570312 32.484375 C 23.875 30.972656 24.472656 29.585938 25.453125 28.378906 C 26.265625 27.378906 27.28125 26.621094 28.378906 25.964844 C 30.109375 24.925781 31.941406 24.113281 33.898438 23.605469 C 35.113281 23.289062 36.339844 23.015625 37.554688 22.703125 C 38.824219 22.378906 40.09375 22.042969 41.253906 21.414062 C 42.253906 20.867188 43.136719 20.183594 43.699219 19.167969 C 44.609375 17.53125 44.242188 15.785156 42.78125 14.609375 C 42.042969 14.011719 41.167969 13.746094 40.277344 13.496094 C 38.839844 13.097656 37.375 13.035156 35.894531 13.117188 C 35.046875 13.160156 34.199219 13.152344 33.351562 13.167969 C 33.117188 13.171875 32.902344 13.03125 32.835938 12.824219 C 32.765625 12.605469 32.902344 12.46875 33.050781 12.351562 C 33.421875 12.070312 33.855469 11.933594 34.320312 11.925781 C 36.0625 11.910156 37.800781 11.925781 39.539062 12.082031 C 40.183594 12.140625 40.835938 12.109375 41.480469 12.09375 C 41.691406 12.085938 41.90625 12.019531 42.101562 11.9375 C 42.511719 11.777344 42.726562 11.449219 42.792969 10.949219 "/>
</g>
</svg>
