<?xml version="1.0" encoding="UTF-8"?>
<svg xmlns="http://www.w3.org/2000/svg" xmlns:xlink="http://www.w3.org/1999/xlink" width="56pt" height="56pt" viewBox="0 0 56 56" version="1.1">
<g id="surface1">
<rect x="0" y="0" width="56" height="56" style="fill:rgb(95.666504%,95.776367%,96.775818%);fill-opacity:1;stroke:none;"/>
<path style=" stroke:none;fill-rule:nonzero;fill:rgb(93.695068%,32.591248%,10.652161%);fill-opacity:1;" d="M 26.277344 8.261719 C 25.328125 8.710938 24.4375 9.34375 23.84375 10.222656 C 23.121094 11.238281 22.847656 12.507812 22.851562 13.738281 C 22.886719 15.5 23.363281 17.222656 24.011719 18.851562 C 24.757812 20.753906 25.730469 22.5625 26.777344 24.316406 C 28.542969 27.222656 30.542969 29.980469 32.65625 32.636719 C 34.644531 35.144531 36.746094 37.5625 38.910156 39.914062 C 39.503906 40.492188 39.996094 41.164062 40.640625 41.691406 C 40.683594 41.152344 40.640625 40.613281 40.640625 40.078125 C 40.472656 35.199219 40.097656 30.328125 39.359375 25.503906 C 38.78125 21.859375 38.03125 18.214844 36.714844 14.761719 C 36.074219 13.109375 35.292969 11.492188 34.195312 10.09375 C 33.257812 8.925781 32.03125 7.902344 30.535156 7.582031 C 29.089844 7.246094 27.585938 7.636719 26.277344 8.261719 Z M 28.933594 5.148438 L 29.988281 5.148438 C 30.800781 5.21875 31.601562 5.421875 32.335938 5.773438 C 34.230469 6.675781 35.617188 8.351562 36.675781 10.121094 C 38.347656 12.980469 39.347656 16.171875 40.140625 19.371094 C 41.191406 23.746094 41.796875 28.21875 42.207031 32.695312 C 42.617188 37.40625 42.828125 42.140625 42.78125 46.871094 C 41.730469 45.867188 40.722656 44.820312 39.71875 43.773438 C 35.984375 39.828125 32.421875 35.710938 29.183594 31.347656 C 26.957031 28.328125 24.871094 25.1875 23.199219 21.820312 C 22.140625 19.652344 21.230469 17.371094 20.863281 14.972656 C 20.59375 13.148438 20.675781 11.1875 21.554688 9.527344 C 22.34375 7.992188 23.765625 6.875 25.320312 6.175781 C 26.464844 5.652344 27.675781 5.25 28.933594 5.148438 "/>
<path style=" stroke:none;fill-rule:nonzero;fill:rgb(93.695068%,32.591248%,10.652161%);fill-opacity:1;" d="M 17.390625 36.816406 C 16.582031 37.167969 15.9375 37.832031 15.527344 38.609375 C 15.125 39.378906 14.8125 40.222656 14.8125 41.101562 C 14.792969 42.121094 15.246094 43.105469 15.9375 43.84375 C 16.664062 44.640625 17.59375 45.222656 18.550781 45.714844 C 20.96875 46.898438 23.605469 47.542969 26.238281 48.050781 C 28.925781 48.550781 31.644531 48.867188 34.371094 49.078125 C 35.957031 49.191406 37.546875 49.300781 39.140625 49.300781 C 38.65625 48.730469 38.089844 48.230469 37.539062 47.722656 C 35.863281 46.15625 34.128906 44.652344 32.335938 43.21875 C 30.121094 41.46875 27.828125 39.796875 25.34375 38.445312 C 23.910156 37.679688 22.421875 36.976562 20.824219 36.632812 C 19.695312 36.398438 18.46875 36.339844 17.390625 36.816406 Z M 17.128906 35.179688 C 18.742188 34.703125 20.46875 34.988281 22.042969 35.480469 C 24.074219 36.132812 25.964844 37.152344 27.777344 38.261719 C 31.714844 40.726562 35.296875 43.710938 38.71875 46.839844 C 40.117188 48.144531 41.519531 49.453125 42.832031 50.851562 C 40.351562 50.863281 37.871094 50.753906 35.398438 50.582031 C 31.027344 50.261719 26.652344 49.734375 22.414062 48.59375 C 20.066406 47.933594 17.707031 47.109375 15.722656 45.652344 C 14.410156 44.683594 13.308594 43.273438 13.171875 41.597656 L 13.171875 40.710938 C 13.28125 39.605469 13.695312 38.546875 14.230469 37.582031 C 14.859375 36.464844 15.882812 35.542969 17.128906 35.179688 "/>
<path style=" stroke:none;fill-rule:nonzero;fill:rgb(96.411133%,53.845215%,6.93512%);fill-opacity:1;" d="M 27.652344 10.300781 C 26.640625 10.6875 25.738281 11.457031 25.371094 12.492188 C 24.921875 13.730469 25.09375 15.09375 25.414062 16.34375 C 25.996094 18.515625 27.050781 20.527344 28.1875 22.457031 C 29.875 25.269531 31.824219 27.917969 33.875 30.480469 C 35.328125 32.265625 36.796875 34.039062 38.378906 35.707031 C 38.320312 33.890625 38.117188 32.082031 37.925781 30.273438 C 37.480469 26.390625 36.867188 22.515625 35.8125 18.746094 C 35.234375 16.71875 34.535156 14.703125 33.445312 12.890625 C 32.765625 11.800781 31.902344 10.742188 30.699219 10.214844 C 29.730469 9.785156 28.605469 9.882812 27.652344 10.300781 Z M 26.277344 8.261719 C 27.585938 7.636719 29.089844 7.246094 30.535156 7.582031 C 32.03125 7.902344 33.257812 8.925781 34.195312 10.09375 C 35.289062 11.492188 36.074219 13.109375 36.714844 14.761719 C 38.03125 18.214844 38.78125 21.859375 39.359375 25.503906 C 40.097656 30.328125 40.472656 35.199219 40.640625 40.078125 C 40.640625 40.613281 40.683594 41.152344 40.640625 41.691406 C 40 41.164062 39.503906 40.492188 38.910156 39.914062 C 36.746094 37.5625 34.644531 35.144531 32.65625 32.636719 C 30.539062 29.980469 28.542969 27.222656 26.777344 24.316406 C 25.730469 22.5625 24.757812 20.757812 24.011719 18.851562 C 23.367188 17.222656 22.886719 15.5 22.851562 13.738281 C 22.851562 12.507812 23.121094 11.238281 23.84375 10.222656 C 24.4375 9.34375 25.328125 8.710938 26.277344 8.261719 "/>
<path style=" stroke:none;fill-rule:nonzero;fill:rgb(96.411133%,53.845215%,6.93512%);fill-opacity:1;" d="M 18.320312 38.320312 C 17.777344 38.535156 17.328125 38.953125 17.042969 39.457031 C 16.640625 40.183594 16.425781 41.0625 16.683594 41.871094 C 16.945312 42.675781 17.582031 43.289062 18.253906 43.765625 C 19.515625 44.621094 20.96875 45.136719 22.421875 45.5625 C 24.277344 46.097656 26.179688 46.449219 28.089844 46.734375 C 30.371094 47.050781 32.671875 47.308594 34.976562 47.382812 C 34.738281 47.097656 34.449219 46.871094 34.171875 46.628906 C 33.03125 45.644531 31.867188 44.683594 30.671875 43.769531 C 28.484375 42.101562 26.21875 40.515625 23.746094 39.300781 C 22.757812 38.824219 21.726562 38.410156 20.644531 38.203125 C 19.878906 38.0625 19.058594 38.027344 18.320312 38.320312 Z M 17.390625 36.816406 C 18.46875 36.339844 19.695312 36.398438 20.824219 36.632812 C 22.421875 36.972656 23.910156 37.679688 25.34375 38.441406 C 27.828125 39.796875 30.121094 41.464844 32.335938 43.21875 C 34.128906 44.652344 35.863281 46.152344 37.539062 47.722656 C 38.089844 48.230469 38.65625 48.726562 39.140625 49.296875 C 37.546875 49.300781 35.957031 49.191406 34.371094 49.078125 C 31.644531 48.867188 28.925781 48.546875 26.238281 48.050781 C 23.605469 47.542969 20.96875 46.898438 18.550781 45.710938 C 17.59375 45.222656 16.664062 44.640625 15.9375 43.839844 C 15.246094 43.105469 14.792969 42.121094 14.808594 41.101562 C 14.8125 40.222656 15.125 39.378906 15.527344 38.609375 C 15.9375 37.832031 16.582031 37.167969 17.390625 36.816406 "/>
<path style=" stroke:none;fill-rule:nonzero;fill:rgb(98.066711%,80.340576%,3.329468%);fill-opacity:1;" d="M 27.652344 10.300781 C 28.605469 9.882812 29.730469 9.785156 30.703125 10.214844 C 31.902344 10.738281 32.765625 11.800781 33.445312 12.890625 C 34.535156 14.703125 35.234375 16.71875 35.816406 18.746094 C 36.867188 22.515625 37.480469 26.390625 37.925781 30.273438 C 38.117188 32.082031 38.320312 33.890625 38.378906 35.707031 C 36.796875 34.035156 35.328125 32.261719 33.875 30.476562 C 31.824219 27.917969 29.875 25.269531 28.1875 22.453125 C 27.050781 20.523438 25.996094 18.515625 25.414062 16.34375 C 25.09375 15.09375 24.921875 13.730469 25.371094 12.492188 C 25.738281 11.457031 26.640625 10.6875 27.652344 10.300781 "/>
<path style=" stroke:none;fill-rule:nonzero;fill:rgb(98.066711%,80.340576%,3.329468%);fill-opacity:1;" d="M 18.320312 38.320312 C 19.058594 38.027344 19.878906 38.0625 20.644531 38.203125 C 21.726562 38.410156 22.757812 38.824219 23.746094 39.304688 C 26.21875 40.515625 28.484375 42.101562 30.671875 43.769531 C 31.867188 44.683594 33.03125 45.644531 34.171875 46.628906 C 34.449219 46.871094 34.738281 47.101562 34.976562 47.382812 C 32.671875 47.3125 30.371094 47.050781 28.089844 46.734375 C 26.179688 46.453125 24.277344 46.101562 22.421875 45.5625 C 20.96875 45.136719 19.515625 44.621094 18.253906 43.765625 C 17.582031 43.289062 16.945312 42.675781 16.683594 41.875 C 16.425781 41.066406 16.640625 40.183594 17.042969 39.460938 C 17.328125 38.949219 17.777344 38.53125 18.320312 38.320312 "/>
</g>
</svg>
