<?xml version="1.0" encoding="UTF-8"?>
<svg xmlns="http://www.w3.org/2000/svg" xmlns:xlink="http://www.w3.org/1999/xlink" width="56pt" height="56pt" viewBox="0 0 56 56" version="1.1">
<g id="surface1">
<rect x="0" y="0" width="56" height="56" style="fill:rgb(10.314941%,12.57019%,26.9104%);fill-opacity:1;stroke:none;"/>
<path style=" stroke:none;fill-rule:nonzero;fill:rgb(100%,100%,100%);fill-opacity:1;" d="M 5.320312 25.910156 C 5.476562 25.460938 5.6875 25.023438 5.777344 24.5625 C 6.535156 20.601562 8.691406 17.671875 12.214844 15.734375 C 15.339844 14.019531 18.746094 13.285156 22.242188 12.976562 C 26.144531 12.628906 30.058594 12.558594 33.972656 12.9375 C 36.988281 13.226562 39.914062 13.867188 42.65625 15.164062 C 45.945312 16.71875 48.464844 19.039062 49.472656 22.675781 C 49.691406 23.46875 49.757812 24.300781 49.90625 25.175781 C 48.28125 25.792969 46.742188 25.429688 45.238281 25.492188 C 43.703125 25.558594 42.164062 25.507812 40.574219 25.507812 C 38.546875 23.058594 35.765625 22.355469 32.777344 21.992188 C 28.707031 21.496094 24.679688 21.65625 20.6875 22.515625 C 19.550781 22.761719 18.390625 23.203125 17.40625 23.820312 C 14.09375 25.890625 14.160156 30.769531 17.566406 32.6875 C 18.875 33.421875 20.40625 33.910156 21.898438 34.148438 C 27.679688 35.074219 33.453125 34.980469 39.164062 33.511719 C 39.5 33.425781 39.832031 33.308594 40.15625 33.1875 C 40.34375 33.117188 40.519531 33.015625 40.949219 32.800781 C 38.851562 32.296875 36.925781 32.8125 34.960938 32.445312 C 34.960938 31.035156 34.960938 29.671875 34.960938 28.179688 C 40.105469 28.179688 45.183594 28.179688 50.265625 28.179688 C 50.652344 29.554688 50.851562 40.152344 50.492188 42.273438 C 48.277344 42.507812 46.023438 42.457031 43.695312 42.300781 C 43.203125 39.972656 44.1875 37.925781 44.445312 35.441406 C 43.996094 35.882812 43.796875 36.027344 43.664062 36.21875 C 40.796875 40.355469 36.644531 42.429688 31.832031 42.96875 C 26.757812 43.53125 21.628906 43.5 16.621094 42.199219 C 15.144531 41.816406 13.6875 41.265625 12.320312 40.589844 C 8.699219 38.796875 6.546875 35.847656 5.777344 31.878906 C 5.6875 31.417969 5.476562 30.980469 5.320312 30.53125 C 5.320312 28.988281 5.320312 27.453125 5.320312 25.910156 "/>
</g>
</svg>
