<?xml version="1.0" encoding="UTF-8"?>
<svg xmlns="http://www.w3.org/2000/svg" xmlns:xlink="http://www.w3.org/1999/xlink" width="56pt" height="56pt" viewBox="0 0 56 56" version="1.1">
<g id="surface1">
<rect x="0" y="0" width="56" height="56" style="fill:rgb(91.905212%,38.853455%,10.05249%);fill-opacity:1;stroke:none;"/>
<path style=" stroke:none;fill-rule:nonzero;fill:rgb(100%,100%,100%);fill-opacity:1;" d="M 28.648438 34.289062 C 25.175781 34.289062 22.359375 31.472656 22.359375 28 C 22.359375 24.527344 25.175781 21.710938 28.648438 21.710938 C 32.121094 21.710938 34.9375 24.527344 34.9375 28 C 34.9375 31.472656 32.121094 34.289062 28.648438 34.289062 M 28.648438 38.449219 C 34.417969 38.449219 39.09375 33.769531 39.09375 28 C 39.09375 22.230469 34.417969 17.554688 28.648438 17.554688 C 23.734375 17.554688 19.609375 20.949219 18.5 25.519531 C 18.445312 25.746094 18.242188 25.90625 18.011719 25.90625 L 13.425781 25.90625 C 13.148438 25.90625 12.925781 26.128906 12.925781 26.40625 L 12.925781 29.570312 C 12.925781 29.847656 13.148438 30.074219 13.425781 30.074219 L 16.605469 30.074219 C 16.882812 30.074219 17.109375 30.296875 17.109375 30.578125 L 17.109375 32.480469 C 17.109375 32.628906 17.039062 32.773438 16.925781 32.867188 C 15.839844 33.753906 14.457031 34.289062 12.945312 34.289062 C 9.472656 34.289062 6.65625 31.472656 6.65625 28 C 6.65625 24.527344 9.472656 21.710938 12.945312 21.710938 C 13.929688 21.710938 14.863281 21.941406 15.695312 22.34375 C 15.925781 22.457031 16.210938 22.371094 16.34375 22.148438 L 17.960938 19.429688 C 18.03125 19.3125 18.046875 19.167969 18.011719 19.035156 C 17.972656 18.902344 17.882812 18.789062 17.757812 18.726562 C 16.320312 17.976562 14.683594 17.554688 12.945312 17.554688 C 7.175781 17.554688 2.5 22.230469 2.5 28 C 2.5 33.769531 7.175781 38.449219 12.945312 38.449219 C 15.886719 38.449219 18.539062 37.234375 20.4375 35.28125 C 20.53125 35.183594 20.660156 35.128906 20.796875 35.128906 C 20.933594 35.128906 21.0625 35.183594 21.15625 35.28125 C 23.054688 37.234375 25.710938 38.449219 28.648438 38.449219 "/>
<path style=" stroke:none;fill-rule:nonzero;fill:rgb(68.414307%,68.002319%,68.972778%);fill-opacity:1;" d="M 45.902344 25.988281 C 44.960938 21.183594 40.730469 17.554688 35.648438 17.554688 C 34.417969 17.554688 33.242188 17.765625 32.148438 18.15625 C 34.160156 18.871094 35.890625 20.1875 37.117188 21.886719 C 39.882812 22.550781 41.933594 25.035156 41.933594 28 C 41.933594 31.472656 39.121094 34.289062 35.648438 34.289062 C 32.175781 34.289062 29.359375 31.472656 29.359375 28 C 29.359375 25.824219 30.464844 23.90625 32.148438 22.777344 C 31.148438 22.105469 29.945312 21.710938 28.648438 21.710938 C 28.140625 21.710938 27.648438 21.773438 27.175781 21.886719 C 25.933594 23.605469 25.199219 25.71875 25.199219 28 C 25.199219 33.769531 29.878906 38.449219 35.648438 38.449219 C 40.730469 38.449219 44.960938 34.820312 45.902344 30.011719 L 45.902344 25.988281 "/>
<path style=" stroke:none;fill-rule:nonzero;fill:rgb(100%,100%,100%);fill-opacity:1;" d="M 46.589844 34.027344 C 46.3125 34.027344 46.089844 33.800781 46.089844 33.523438 L 46.089844 18.382812 C 46.089844 18.105469 45.863281 17.878906 45.585938 17.878906 L 42.429688 17.878906 C 42.152344 17.878906 41.929688 18.105469 41.929688 18.382812 L 41.929688 37.683594 C 41.929688 37.960938 42.152344 38.183594 42.429688 38.183594 L 53 38.183594 C 53.277344 38.183594 53.5 37.960938 53.5 37.683594 L 53.5 34.527344 C 53.5 34.25 53.277344 34.027344 53 34.027344 L 46.589844 34.027344 "/>
</g>
</svg>
