<?xml version="1.0" encoding="UTF-8"?>
<svg xmlns="http://www.w3.org/2000/svg" xmlns:xlink="http://www.w3.org/1999/xlink" width="56pt" height="56pt" viewBox="0 0 56 56" version="1.1">
<g id="surface1">
<rect x="0" y="0" width="56" height="56" style="fill:rgb(15.869141%,25.366211%,58.760071%);fill-opacity:1;stroke:none;"/>
<path style=" stroke:none;fill-rule:nonzero;fill:rgb(100%,100%,100%);fill-opacity:1;" d="M 25.542969 47.808594 C 25.371094 47.789062 25.199219 47.769531 25.027344 47.753906 C 23.679688 47.65625 22.320312 47.636719 20.988281 47.4375 C 19.015625 47.144531 17.148438 46.488281 15.496094 45.328125 C 14.542969 44.65625 13.753906 43.832031 13.359375 42.710938 C 12.910156 41.429688 13.070312 40.25 14.03125 39.238281 C 14.351562 38.90625 14.738281 38.675781 15.171875 38.523438 C 15.257812 38.496094 15.34375 38.464844 15.460938 38.425781 C 15.363281 38.292969 15.285156 38.179688 15.199219 38.074219 C 14.28125 36.933594 13.382812 35.78125 12.4375 34.667969 C 11.847656 33.972656 11.1875 33.335938 10.410156 32.84375 C 10.199219 32.710938 9.96875 32.605469 9.714844 32.472656 C 9.824219 32.476562 9.914062 32.476562 10.003906 32.484375 C 11.695312 32.648438 13.132812 33.34375 14.355469 34.527344 C 15.546875 35.683594 16.753906 36.832031 18 37.925781 C 19.53125 39.269531 21.253906 40.304688 23.210938 40.917969 C 24.527344 41.332031 25.875 41.554688 27.246094 41.667969 C 28.851562 41.796875 30.464844 41.78125 32.074219 41.714844 C 32.238281 41.707031 32.40625 41.695312 32.585938 41.71875 C 32.277344 41.820312 31.96875 41.925781 31.65625 42.023438 C 30.417969 42.40625 29.15625 42.679688 27.867188 42.816406 C 26.511719 42.957031 25.15625 42.945312 23.804688 42.742188 C 21.554688 42.410156 19.496094 41.585938 17.621094 40.304688 C 17.21875 40.03125 16.824219 40.03125 16.40625 40.136719 C 15.472656 40.371094 14.949219 41.277344 15.15625 42.265625 C 15.324219 43.054688 15.789062 43.640625 16.40625 44.125 C 17.683594 45.128906 19.152344 45.710938 20.707031 46.101562 C 22.394531 46.523438 24.113281 46.746094 25.847656 46.800781 C 27.367188 46.84375 28.890625 46.871094 30.40625 46.824219 C 31.910156 46.78125 33.414062 46.644531 34.917969 46.539062 C 35.640625 46.488281 36.355469 46.40625 37.085938 46.367188 C 36.667969 46.488281 36.25 46.617188 35.828125 46.730469 C 34.472656 47.097656 33.09375 47.359375 31.699219 47.515625 C 30.613281 47.636719 29.519531 47.6875 28.429688 47.769531 C 28.335938 47.773438 28.242188 47.792969 28.144531 47.808594 C 27.277344 47.808594 26.410156 47.808594 25.542969 47.808594 "/>
<path style=" stroke:none;fill-rule:nonzero;fill:rgb(100%,100%,100%);fill-opacity:1;" d="M 9.59375 32.296875 C 9.980469 31.789062 10.417969 31.320312 10.929688 30.921875 C 12.367188 29.800781 13.945312 29.683594 15.597656 30.320312 C 16.28125 30.582031 16.929688 30.945312 17.589844 31.269531 C 18.402344 31.664062 19.238281 31.980469 20.136719 32.121094 C 20.605469 32.195312 21.078125 32.214844 21.542969 32.109375 C 22.53125 31.898438 23.15625 31.226562 23.332031 30.226562 C 23.507812 29.242188 23.339844 28.285156 23.148438 27.324219 C 22.851562 25.828125 22.761719 24.324219 23.101562 22.820312 C 23.492188 21.105469 24.433594 19.757812 25.847656 18.726562 C 26.992188 17.894531 28.273438 17.351562 29.613281 16.941406 C 31.222656 16.453125 32.875 16.203125 34.53125 15.953125 C 35.433594 15.816406 36.324219 15.566406 37.203125 15.304688 C 39.140625 14.730469 40.941406 13.875 42.558594 12.648438 C 44.125 11.457031 45.371094 9.988281 46.316406 8.261719 C 46.332031 8.234375 46.347656 8.210938 46.40625 8.191406 C 46.363281 8.546875 46.332031 8.902344 46.285156 9.257812 C 46.136719 10.394531 45.863281 11.503906 45.425781 12.566406 C 44.410156 15.019531 42.667969 16.765625 40.277344 17.882812 C 39.0625 18.449219 37.789062 18.84375 36.46875 19.039062 C 35.214844 19.226562 33.953125 19.335938 32.695312 19.476562 C 31.425781 19.617188 30.160156 19.769531 28.945312 20.171875 C 27.921875 20.507812 27.015625 21.015625 26.382812 21.921875 C 25.925781 22.570312 25.695312 23.304688 25.558594 24.074219 C 25.359375 25.183594 25.421875 26.289062 25.582031 27.398438 C 25.734375 28.4375 25.839844 29.476562 25.660156 30.527344 C 25.46875 31.6875 25.03125 32.722656 24.113281 33.507812 C 23.464844 34.0625 22.699219 34.359375 21.855469 34.441406 C 20.273438 34.597656 18.855469 34.105469 17.535156 33.285156 C 16.660156 32.742188 15.804688 32.175781 14.835938 31.804688 C 13.46875 31.28125 12.089844 31.132812 10.703125 31.71875 C 10.320312 31.882812 9.964844 32.101562 9.59375 32.296875 "/>
<path style=" stroke:none;fill-rule:nonzero;fill:rgb(100%,100%,100%);fill-opacity:1;" d="M 33.515625 22.914062 C 33.976562 22.808594 34.445312 22.707031 34.90625 22.597656 C 36.789062 22.152344 38.644531 21.613281 40.410156 20.8125 C 41.867188 20.148438 43.234375 19.324219 44.488281 18.324219 C 45.066406 17.867188 45.617188 17.375 46.179688 16.902344 C 46.207031 16.878906 46.234375 16.855469 46.300781 16.855469 C 46.191406 17.144531 46.085938 17.433594 45.96875 17.71875 C 45.433594 19.011719 44.707031 20.175781 43.660156 21.121094 C 42.570312 22.105469 41.289062 22.699219 39.863281 23.003906 C 38.609375 23.269531 37.339844 23.332031 36.0625 23.230469 C 35.214844 23.164062 34.363281 23.066406 33.515625 22.984375 C 33.515625 22.960938 33.515625 22.9375 33.515625 22.914062 "/>
<path style=" stroke:none;fill-rule:nonzero;fill:rgb(100%,100%,100%);fill-opacity:1;" d="M 42.777344 30.0625 C 42.59375 30.589844 42.371094 31.042969 42.097656 31.472656 C 41.175781 32.917969 39.863281 33.8125 38.210938 34.226562 C 36.929688 34.550781 35.640625 34.546875 34.34375 34.34375 C 32.769531 34.09375 31.292969 33.570312 29.90625 32.789062 C 29.871094 32.769531 29.839844 32.746094 29.808594 32.722656 C 29.804688 32.722656 29.808594 32.714844 29.808594 32.6875 C 30.007812 32.707031 30.203125 32.726562 30.398438 32.75 C 31.765625 32.910156 33.140625 32.976562 34.519531 32.90625 C 37.015625 32.777344 39.394531 32.230469 41.550781 30.910156 C 41.917969 30.683594 42.265625 30.421875 42.617188 30.171875 C 42.660156 30.148438 42.699219 30.117188 42.777344 30.0625 "/>
<path style=" stroke:none;fill-rule:nonzero;fill:rgb(100%,100%,100%);fill-opacity:1;" d="M 44.691406 23.730469 C 44.578125 24 44.472656 24.277344 44.34375 24.539062 C 43.667969 25.945312 42.699219 27.085938 41.316406 27.84375 C 40.4375 28.328125 39.496094 28.605469 38.503906 28.722656 C 36.800781 28.921875 35.140625 28.699219 33.503906 28.21875 C 33.191406 28.128906 32.882812 28.019531 32.570312 27.898438 C 36.988281 27.609375 41.109375 26.484375 44.691406 23.730469 "/>
</g>
</svg>
