<?xml version="1.0" encoding="UTF-8"?>
<svg xmlns="http://www.w3.org/2000/svg" xmlns:xlink="http://www.w3.org/1999/xlink" width="56pt" height="56pt" viewBox="0 0 56 56" version="1.1">
<g id="surface1">
<rect x="0" y="0" width="56" height="56" style="fill:rgb(95.66803%,95.779419%,96.777344%);fill-opacity:1;stroke:none;"/>
<path style=" stroke:none;fill-rule:nonzero;fill:rgb(93.948364%,63.024902%,6.135559%);fill-opacity:1;" d="M 35.363281 37.730469 L 39.027344 47.617188 L 47.679688 47.617188 C 46.738281 44.953125 45.730469 42.199219 44.660156 39.359375 C 43.589844 36.515625 42.519531 33.695312 41.449219 30.894531 C 40.378906 28.101562 39.308594 25.40625 38.238281 22.808594 C 37.167969 20.214844 36.179688 17.8125 35.285156 15.601562 C 34.382812 13.394531 33.574219 11.460938 32.839844 9.816406 C 32.117188 8.167969 32.207031 8.394531 32.207031 8.394531 L 25.046875 10.691406 C 25.261719 11.140625 25.40625 11.496094 25.921875 12.757812 C 26.4375 14.019531 27.027344 15.535156 27.691406 17.292969 C 28.351562 19.054688 29.082031 20.984375 29.871094 23.082031 C 30.667969 25.179688 31.445312 27.265625 32.21875 29.339844 L 35.363281 37.730469 "/>
<path style=" stroke:none;fill-rule:nonzero;fill:rgb(85.871887%,11.650085%,14.582825%);fill-opacity:1;" d="M 26.960938 23.078125 C 26.171875 20.980469 25.441406 19.054688 24.78125 17.292969 C 24.726562 17.152344 24.675781 17.015625 24.621094 16.878906 C 23.816406 21.980469 21.898438 26.722656 19.117188 30.828125 C 18.960938 31.058594 18.804688 31.289062 18.644531 31.515625 C 18.402344 31.855469 18.148438 32.1875 17.894531 32.519531 C 15.269531 35.945312 12.023438 38.871094 8.320312 41.121094 L 13.347656 47.613281 C 17.449219 45 20.839844 41.777344 23.835938 37.964844 C 24.257812 37.425781 24.652344 36.859375 25.070312 36.316406 C 26.789062 34.070312 28.164062 31.667969 29.230469 29.128906 C 28.480469 27.125 27.730469 25.105469 26.960938 23.078125 "/>
</g>
</svg>
