<?xml version="1.0" encoding="UTF-8"?>
<svg xmlns="http://www.w3.org/2000/svg" xmlns:xlink="http://www.w3.org/1999/xlink" width="56pt" height="56pt" viewBox="0 0 56 56" version="1.1">
<g id="surface1">
<rect x="0" y="0" width="56" height="56" style="fill:rgb(98.022461%,75.209045%,5.24292%);fill-opacity:1;stroke:none;"/>
<path style=" stroke:none;fill-rule:nonzero;fill:rgb(13.729858%,12.159729%,12.548828%);fill-opacity:1;" d="M 27.195312 44.023438 C 27.246094 43.949219 27.289062 43.898438 27.316406 43.84375 C 27.523438 43.402344 27.722656 42.957031 27.871094 42.488281 C 28.113281 41.699219 28.292969 40.890625 28.410156 40.070312 C 28.472656 39.632812 28.523438 39.195312 28.550781 38.753906 C 28.585938 38.265625 28.582031 37.777344 28.53125 37.289062 C 28.484375 36.847656 28.410156 36.414062 28.273438 35.988281 C 28.203125 35.765625 28.121094 35.546875 27.988281 35.324219 C 27.96875 35.386719 27.953125 35.429688 27.941406 35.46875 C 27.726562 36.421875 27.5 37.371094 27.300781 38.328125 C 27.167969 38.96875 27.066406 39.613281 26.96875 40.261719 C 26.902344 40.726562 26.863281 41.199219 26.820312 41.667969 C 26.769531 42.199219 26.785156 42.722656 26.902344 43.246094 C 26.960938 43.507812 27.050781 43.761719 27.195312 44.023438 Z M 25.625 33.820312 C 25.570312 33.875 25.507812 33.925781 25.457031 33.984375 C 24.941406 34.589844 24.375 35.148438 23.71875 35.601562 C 23.351562 35.851562 22.964844 36.0625 22.53125 36.179688 C 22.019531 36.316406 21.527344 36.289062 21.070312 35.996094 C 20.71875 35.765625 20.496094 35.433594 20.34375 35.054688 C 20.152344 34.589844 20.097656 34.097656 20.144531 33.601562 C 20.320312 31.761719 20.835938 30.007812 21.496094 28.289062 C 21.644531 27.90625 21.839844 27.546875 22.121094 27.246094 C 22.414062 26.929688 22.765625 26.730469 23.203125 26.695312 C 23.804688 26.644531 24.136719 27.042969 24.140625 27.507812 C 24.140625 27.652344 24.121094 27.792969 24.074219 27.933594 C 23.988281 28.1875 23.90625 28.445312 23.824219 28.703125 C 23.433594 29.917969 23.097656 31.148438 22.777344 32.382812 C 22.65625 32.851562 22.582031 33.335938 22.492188 33.816406 C 22.472656 33.921875 22.472656 34.035156 22.488281 34.144531 C 22.507812 34.304688 22.617188 34.375 22.773438 34.324219 C 22.875 34.289062 22.972656 34.238281 23.066406 34.179688 C 23.390625 33.972656 23.648438 33.699219 23.894531 33.40625 C 24.601562 32.574219 25.230469 31.675781 25.839844 30.769531 C 26.101562 30.382812 26.3125 29.957031 26.53125 29.539062 C 27.277344 28.117188 27.863281 26.628906 28.390625 25.109375 C 28.84375 23.800781 29.320312 22.503906 29.800781 21.207031 C 30.035156 20.574219 30.503906 20.167969 31.140625 19.953125 C 31.332031 19.890625 31.527344 19.878906 31.722656 19.910156 C 32.226562 19.996094 32.464844 20.421875 32.414062 20.882812 C 32.398438 21.019531 32.363281 21.15625 32.316406 21.285156 C 32.046875 22.019531 31.769531 22.746094 31.507812 23.484375 C 31.320312 24.015625 31.15625 24.550781 30.984375 25.089844 C 30.59375 26.320312 30.203125 27.550781 29.824219 28.789062 C 29.480469 29.914062 29.15625 31.042969 28.820312 32.171875 C 28.816406 32.199219 28.808594 32.222656 28.796875 32.28125 C 29.929688 31.925781 30.882812 31.308594 31.792969 30.609375 C 31.863281 30.261719 31.917969 29.917969 32 29.578125 C 32.214844 28.671875 32.4375 27.769531 32.660156 26.867188 C 33.183594 24.789062 33.757812 22.722656 34.367188 20.671875 C 34.570312 19.992188 34.78125 19.320312 34.984375 18.644531 C 34.996094 18.601562 35.007812 18.554688 35.023438 18.5 C 34.84375 18.472656 34.675781 18.445312 34.503906 18.421875 C 33.835938 18.34375 33.164062 18.28125 32.492188 18.300781 C 31.019531 18.34375 29.605469 18.636719 28.308594 19.375 C 27.589844 19.785156 26.960938 20.3125 26.46875 20.988281 C 26.253906 21.28125 26.101562 21.613281 25.972656 21.949219 C 25.867188 22.214844 25.703125 22.433594 25.464844 22.589844 C 25.242188 22.734375 25 22.792969 24.730469 22.777344 C 24.410156 22.757812 24.09375 22.445312 24.03125 22.105469 C 24 21.925781 24.027344 21.753906 24.085938 21.582031 C 24.320312 20.917969 24.65625 20.316406 25.089844 19.761719 C 25.730469 18.9375 26.519531 18.273438 27.410156 17.726562 C 28.4375 17.097656 29.550781 16.699219 30.730469 16.480469 C 31.371094 16.359375 32.015625 16.296875 32.667969 16.269531 C 33.503906 16.230469 34.332031 16.292969 35.160156 16.40625 C 35.324219 16.429688 35.492188 16.449219 35.671875 16.46875 C 35.691406 16.421875 35.714844 16.371094 35.730469 16.320312 C 36.117188 15.191406 36.5 14.058594 36.886719 12.929688 C 37.023438 12.53125 37.265625 12.21875 37.652344 12.039062 C 37.875 11.933594 38.113281 11.890625 38.359375 11.945312 C 38.863281 12.050781 39.179688 12.648438 39 13.148438 C 38.800781 13.699219 38.613281 14.253906 38.425781 14.808594 C 38.21875 15.417969 38.015625 16.027344 37.816406 16.636719 C 37.804688 16.667969 37.796875 16.703125 37.78125 16.753906 C 38.074219 16.765625 38.351562 16.785156 38.632812 16.792969 C 39.894531 16.824219 41.058594 16.492188 42.132812 15.855469 C 42.910156 15.394531 43.578125 14.808594 44.089844 14.058594 C 44.214844 13.875 44.320312 13.671875 44.425781 13.476562 C 44.671875 13.027344 45.050781 12.800781 45.566406 12.820312 C 45.933594 12.832031 46.203125 13.066406 46.28125 13.425781 C 46.335938 13.691406 46.292969 13.941406 46.175781 14.179688 C 45.871094 14.800781 45.476562 15.359375 45.011719 15.863281 C 44.007812 16.960938 42.808594 17.769531 41.414062 18.292969 C 40.769531 18.539062 40.097656 18.6875 39.410156 18.769531 C 38.683594 18.855469 37.960938 18.84375 37.238281 18.789062 C 37.210938 18.789062 37.179688 18.789062 37.136719 18.785156 C 37.117188 18.835938 37.09375 18.886719 37.078125 18.9375 C 36.667969 20.316406 36.25 21.6875 35.851562 23.066406 C 35.34375 24.835938 34.882812 26.613281 34.445312 28.398438 C 34.273438 29.101562 34.121094 29.808594 33.972656 30.515625 C 33.859375 31.054688 33.839844 31.601562 33.882812 32.148438 C 33.910156 32.480469 34 32.804688 34.160156 33.101562 C 34.238281 33.246094 34.335938 33.386719 34.449219 33.507812 C 34.660156 33.734375 34.933594 33.804688 35.238281 33.742188 C 35.574219 33.671875 35.878906 33.523438 36.160156 33.332031 C 36.75 32.933594 37.265625 32.449219 37.746094 31.925781 C 38.238281 31.390625 38.703125 30.824219 39.117188 30.21875 C 39.777344 29.246094 40.332031 28.21875 40.765625 27.121094 C 40.839844 26.929688 40.910156 26.734375 40.988281 26.542969 C 41.148438 26.160156 41.402344 25.871094 41.792969 25.714844 C 41.992188 25.636719 42.199219 25.609375 42.40625 25.648438 C 42.75 25.710938 43.042969 26.027344 43.101562 26.378906 C 43.132812 26.550781 43.117188 26.71875 43.054688 26.886719 C 42.300781 28.988281 41.246094 30.917969 39.804688 32.632812 C 39.109375 33.457031 38.351562 34.222656 37.492188 34.878906 C 36.929688 35.304688 36.320312 35.648438 35.636719 35.835938 C 35.148438 35.96875 34.65625 36.019531 34.152344 35.941406 C 33.515625 35.839844 33.015625 35.519531 32.605469 35.039062 C 32.164062 34.519531 31.894531 33.917969 31.773438 33.246094 C 31.730469 33.023438 31.710938 32.792969 31.679688 32.566406 C 31.679688 32.542969 31.671875 32.523438 31.667969 32.492188 C 31.269531 32.726562 30.886719 32.964844 30.484375 33.175781 C 30.085938 33.386719 29.667969 33.566406 29.25 33.765625 C 29.261719 33.792969 29.277344 33.828125 29.296875 33.859375 C 29.757812 34.605469 30.019531 35.417969 30.15625 36.28125 C 30.296875 37.1875 30.347656 38.097656 30.304688 39.011719 C 30.242188 40.519531 29.933594 41.972656 29.390625 43.378906 C 29.132812 44.039062 28.808594 44.667969 28.347656 45.214844 C 28.246094 45.339844 28.132812 45.457031 28.015625 45.566406 C 27.367188 46.183594 26.285156 46.183594 25.578125 45.605469 C 25.191406 45.289062 24.914062 44.890625 24.730469 44.433594 C 24.519531 43.914062 24.402344 43.367188 24.34375 42.8125 C 24.292969 42.347656 24.296875 41.882812 24.316406 41.414062 C 24.328125 41.152344 24.359375 40.890625 24.390625 40.625 C 24.429688 40.265625 24.472656 39.90625 24.519531 39.546875 C 24.636719 38.640625 24.761719 37.738281 24.945312 36.84375 C 25.148438 35.867188 25.359375 34.898438 25.613281 33.9375 C 25.621094 33.898438 25.617188 33.855469 25.621094 33.816406 C 25.628906 33.8125 25.632812 33.808594 25.632812 33.808594 C 25.632812 33.808594 25.628906 33.816406 25.625 33.820312 "/>
<path style=" stroke:none;fill-rule:nonzero;fill:rgb(13.729858%,12.159729%,12.548828%);fill-opacity:1;" d="M 14.773438 31.058594 C 14.804688 31.035156 14.820312 31.03125 14.824219 31.023438 C 14.847656 30.984375 14.875 30.949219 14.898438 30.90625 C 15.558594 29.835938 16.15625 28.730469 16.691406 27.589844 C 17.542969 25.785156 18.183594 23.910156 18.644531 21.96875 C 18.835938 21.144531 18.996094 20.308594 19.105469 19.464844 C 19.171875 18.945312 19.230469 18.425781 19.167969 17.902344 C 19.136719 17.636719 19.085938 17.378906 18.914062 17.160156 C 18.816406 17.035156 18.65625 16.972656 18.503906 17.015625 C 18.265625 17.085938 18.050781 17.199219 17.867188 17.371094 C 17.554688 17.660156 17.351562 18.019531 17.171875 18.390625 C 16.839844 19.085938 16.585938 19.816406 16.34375 20.542969 C 15.921875 21.816406 15.578125 23.105469 15.320312 24.421875 C 15.128906 25.386719 14.972656 26.355469 14.890625 27.335938 C 14.835938 27.976562 14.796875 28.617188 14.777344 29.261719 C 14.757812 29.851562 14.773438 30.445312 14.773438 31.058594 Z M 13.277344 36.511719 C 13.09375 36.710938 12.917969 36.902344 12.746094 37.089844 C 12.117188 37.773438 11.464844 38.429688 10.78125 39.054688 C 10.523438 39.285156 10.269531 39.515625 10.007812 39.746094 C 9.734375 39.984375 9.414062 40.066406 9.0625 39.988281 C 8.488281 39.859375 8.199219 39.359375 8.367188 38.792969 C 8.460938 38.46875 8.648438 38.207031 8.902344 37.988281 C 9.445312 37.519531 9.96875 37.035156 10.46875 36.527344 C 11.238281 35.742188 11.96875 34.921875 12.660156 34.066406 C 12.722656 33.988281 12.746094 33.914062 12.734375 33.816406 C 12.6875 33.410156 12.640625 33.003906 12.609375 32.597656 C 12.542969 31.777344 12.519531 30.957031 12.527344 30.132812 C 12.53125 29.386719 12.570312 28.640625 12.628906 27.894531 C 12.695312 27.089844 12.789062 26.292969 12.917969 25.496094 C 13.195312 23.789062 13.597656 22.109375 14.144531 20.464844 C 14.402344 19.691406 14.664062 18.917969 14.984375 18.167969 C 15.265625 17.503906 15.601562 16.867188 16.058594 16.308594 C 16.667969 15.570312 17.417969 15.035156 18.359375 14.8125 C 19.042969 14.648438 19.695312 14.710938 20.289062 15.125 C 20.734375 15.4375 21.015625 15.871094 21.195312 16.375 C 21.328125 16.746094 21.386719 17.128906 21.410156 17.523438 C 21.453125 18.203125 21.375 18.875 21.28125 19.546875 C 21.171875 20.316406 21.03125 21.078125 20.863281 21.835938 C 20.597656 23.050781 20.253906 24.242188 19.839844 25.410156 C 18.742188 28.523438 17.195312 31.398438 15.246094 34.058594 C 15.21875 34.097656 15.195312 34.136719 15.164062 34.167969 C 15.121094 34.21875 15.113281 34.273438 15.125 34.332031 C 15.300781 35.148438 15.519531 35.949219 15.996094 36.65625 C 16.191406 36.949219 16.417969 37.21875 16.707031 37.425781 C 17.09375 37.707031 17.527344 37.875 18.007812 37.933594 C 18.5 37.992188 18.96875 37.917969 19.410156 37.6875 C 19.550781 37.613281 19.679688 37.511719 19.8125 37.421875 C 20.058594 37.242188 20.332031 37.152344 20.636719 37.195312 C 21.242188 37.277344 21.578125 37.773438 21.429688 38.367188 C 21.347656 38.695312 21.171875 38.96875 20.90625 39.179688 C 20.253906 39.703125 19.515625 40.019531 18.691406 40.148438 C 17.804688 40.285156 16.945312 40.195312 16.117188 39.863281 C 15.382812 39.570312 14.800781 39.074219 14.308594 38.460938 C 13.875 37.921875 13.570312 37.3125 13.335938 36.667969 C 13.316406 36.617188 13.300781 36.570312 13.277344 36.511719 "/>
<path style=" stroke:none;fill-rule:nonzero;fill:rgb(13.729858%,12.159729%,12.548828%);fill-opacity:1;" d="M 22.785156 24.632812 C 22.789062 23.984375 23.332031 23.511719 23.925781 23.519531 C 24.484375 23.527344 25.042969 23.988281 25.03125 24.667969 C 25.023438 25.277344 24.511719 25.773438 23.890625 25.769531 C 23.277344 25.761719 22.78125 25.253906 22.785156 24.632812 "/>
<path style=" stroke:none;fill-rule:nonzero;fill:rgb(13.729858%,12.159729%,12.548828%);fill-opacity:1;" d="M 46.558594 12.207031 C 46.035156 12.230469 45.425781 11.804688 45.433594 11.078125 C 45.445312 10.40625 45.957031 9.964844 46.558594 9.964844 C 47.21875 9.96875 47.679688 10.480469 47.679688 11.082031 C 47.683594 11.789062 47.082031 12.230469 46.558594 12.207031 "/>
</g>
</svg>
