<?xml version="1.0" encoding="UTF-8"?>
<svg xmlns="http://www.w3.org/2000/svg" xmlns:xlink="http://www.w3.org/1999/xlink" width="56pt" height="56pt" viewBox="0 0 56 56" version="1.1">
<g id="surface1">
<rect x="0" y="0" width="56" height="56" style="fill:rgb(95.666504%,95.776367%,96.775818%);fill-opacity:1;stroke:none;"/>
<path style=" stroke:none;fill-rule:nonzero;fill:rgb(94.856262%,33.761597%,10.28595%);fill-opacity:1;" d="M 7.628906 8.320312 L 7.628906 27.65625 L 9.355469 27.65625 C 9.785156 17.296875 17.988281 9.542969 26.964844 9.027344 L 26.964844 8.320312 L 7.628906 8.320312 "/>
<path style=" stroke:none;fill-rule:nonzero;fill:rgb(94.856262%,33.761597%,10.28595%);fill-opacity:1;" d="M 26.964844 16.742188 L 26.964844 10.570312 C 24.203125 10.761719 20.582031 11.875 18.011719 13.65625 C 20.582031 15.4375 24.203125 16.550781 26.964844 16.742188 "/>
<path style=" stroke:none;fill-rule:nonzero;fill:rgb(94.856262%,33.761597%,10.28595%);fill-opacity:1;" d="M 10.902344 27.65625 L 26.964844 27.65625 L 26.964844 18.285156 C 22.820312 18.085938 19.859375 16.953125 16.957031 14.832031 C 13.304688 17.886719 11.144531 22.128906 10.902344 27.65625 "/>
<path style=" stroke:none;fill-rule:nonzero;fill:rgb(25.686646%,56.564331%,83.364868%);fill-opacity:1;" d="M 48.371094 8.320312 L 48.371094 27.65625 L 47.511719 27.65625 C 47.082031 17.296875 39.394531 9.542969 29.035156 9.027344 L 29.035156 8.320312 L 48.371094 8.320312 "/>
<path style=" stroke:none;fill-rule:nonzero;fill:rgb(25.686646%,56.564331%,83.364868%);fill-opacity:1;" d="M 29.035156 16.742188 L 29.035156 10.570312 C 33.179688 10.761719 35.417969 11.875 37.988281 13.65625 C 35.417969 15.4375 33.179688 16.550781 29.035156 16.742188 "/>
<path style=" stroke:none;fill-rule:nonzero;fill:rgb(25.686646%,56.564331%,83.364868%);fill-opacity:1;" d="M 45.964844 27.65625 L 29.035156 27.65625 L 29.035156 18.285156 C 33.179688 18.085938 36.574219 16.953125 39.476562 14.832031 C 43.128906 17.886719 45.722656 22.128906 45.964844 27.65625 "/>
<path style=" stroke:none;fill-rule:nonzero;fill:rgb(97.695923%,86.178589%,7.928467%);fill-opacity:1;" d="M 7.628906 47.679688 L 7.628906 29.035156 L 9.355469 29.035156 C 9.785156 38.703125 17.988281 46.644531 26.964844 47.164062 L 26.964844 47.679688 L 7.628906 47.679688 "/>
<path style=" stroke:none;fill-rule:nonzero;fill:rgb(97.695923%,86.178589%,7.928467%);fill-opacity:1;" d="M 26.964844 39.449219 L 26.964844 45.617188 C 24.203125 45.425781 20.582031 44.3125 18.011719 42.53125 C 20.582031 40.75 24.203125 39.636719 26.964844 39.449219 "/>
<path style=" stroke:none;fill-rule:nonzero;fill:rgb(97.695923%,86.178589%,7.928467%);fill-opacity:1;" d="M 10.902344 29.035156 L 26.964844 29.035156 L 26.964844 37.902344 C 22.820312 38.105469 19.859375 39.484375 16.957031 41.609375 C 13.304688 38.550781 11.144531 33.871094 10.902344 29.035156 "/>
<path style=" stroke:none;fill-rule:nonzero;fill:rgb(25.410461%,71.71936%,23.405457%);fill-opacity:1;" d="M 48.371094 47.679688 L 48.371094 29.035156 L 47.511719 29.035156 C 47.082031 38.703125 39.394531 46.644531 29.035156 47.164062 L 29.035156 47.679688 L 48.371094 47.679688 "/>
<path style=" stroke:none;fill-rule:nonzero;fill:rgb(25.410461%,71.71936%,23.405457%);fill-opacity:1;" d="M 29.035156 39.449219 L 29.035156 45.617188 C 33.179688 45.425781 35.417969 44.3125 37.988281 42.53125 C 35.417969 40.75 33.179688 39.636719 29.035156 39.449219 "/>
<path style=" stroke:none;fill-rule:nonzero;fill:rgb(25.410461%,71.71936%,23.405457%);fill-opacity:1;" d="M 45.964844 29.035156 L 29.035156 29.035156 L 29.035156 37.902344 C 33.179688 38.105469 36.574219 39.484375 39.476562 41.609375 C 43.128906 38.550781 45.722656 33.871094 45.964844 29.035156 "/>
</g>
</svg>
