<?xml version="1.0" encoding="UTF-8"?>
<svg xmlns="http://www.w3.org/2000/svg" xmlns:xlink="http://www.w3.org/1999/xlink" width="56pt" height="56pt" viewBox="0 0 56 56" version="1.1">
<g id="surface1">
<rect x="0" y="0" width="56" height="56" style="fill:rgb(90.112305%,11.314392%,14.373779%);fill-opacity:1;stroke:none;"/>
<path style=" stroke:none;fill-rule:nonzero;fill:rgb(100%,100%,100%);fill-opacity:1;" d="M 48.613281 20.421875 C 48.585938 20.511719 48.558594 20.597656 48.535156 20.6875 C 48.210938 21.898438 46.886719 23.097656 45.398438 23.117188 C 44.523438 23.128906 43.714844 22.917969 42.972656 22.484375 C 42.304688 22.09375 41.664062 21.664062 41.015625 21.246094 C 40.195312 20.714844 39.339844 20.253906 38.394531 19.984375 C 37.363281 19.691406 36.316406 19.636719 35.257812 19.75 C 35.027344 19.773438 34.796875 19.804688 34.558594 19.816406 C 34.765625 19.609375 35.011719 19.46875 35.265625 19.335938 C 36.296875 18.792969 37.390625 18.652344 38.53125 18.871094 C 39.179688 18.996094 39.828125 19.160156 40.476562 19.292969 C 40.664062 19.332031 40.863281 19.332031 41.058594 19.332031 C 41.34375 19.324219 41.566406 19.183594 41.679688 18.921875 C 41.757812 18.742188 41.796875 18.539062 41.835938 18.34375 C 41.847656 18.296875 41.804688 18.210938 41.761719 18.183594 C 41.617188 18.085938 41.464844 18 41.308594 17.921875 C 41.160156 17.847656 41.070312 17.867188 40.949219 17.992188 C 40.824219 18.121094 40.707031 18.261719 40.582031 18.394531 C 40.5625 18.417969 40.527344 18.425781 40.5 18.4375 C 40.492188 18.414062 40.476562 18.390625 40.476562 18.367188 C 40.40625 17.789062 40.75 17.136719 41.257812 16.914062 C 41.636719 16.75 42.023438 16.785156 42.394531 16.945312 C 42.90625 17.164062 43.34375 17.484375 43.523438 18.050781 C 43.65625 18.464844 43.59375 18.878906 43.425781 19.269531 C 43.304688 19.558594 43.144531 19.832031 42.992188 20.105469 C 42.949219 20.1875 42.9375 20.238281 43.023438 20.289062 C 43.800781 20.753906 44.632812 21.007812 45.542969 20.835938 C 46.210938 20.707031 46.511719 20.269531 46.433594 19.59375 C 46.421875 19.46875 46.390625 19.34375 46.359375 19.21875 C 46.28125 18.933594 46.140625 18.828125 45.839844 18.832031 C 45.527344 18.835938 45.230469 18.917969 44.96875 19.101562 C 44.847656 19.183594 44.730469 19.273438 44.609375 19.359375 C 44.570312 19.390625 44.535156 19.421875 44.492188 19.4375 C 44.3125 19.507812 44.273438 19.488281 44.226562 19.300781 C 44.191406 19.164062 44.160156 19.027344 44.136719 18.886719 C 44.082031 18.589844 44.136719 18.316406 44.3125 18.0625 C 44.492188 17.796875 44.667969 17.527344 44.828125 17.25 C 44.941406 17.058594 44.929688 17.046875 44.742188 16.933594 C 44.488281 16.785156 44.242188 16.613281 43.929688 16.621094 C 43.851562 16.625 43.855469 16.574219 43.898438 16.53125 C 44.164062 16.246094 44.4375 15.964844 44.796875 15.796875 C 44.96875 15.71875 45.144531 15.691406 45.328125 15.734375 C 45.511719 15.78125 45.695312 15.820312 45.871094 15.875 C 46.019531 15.914062 46.101562 16.023438 46.09375 16.175781 C 46.078125 16.65625 46.34375 16.984375 46.671875 17.277344 C 46.898438 17.476562 47.140625 17.65625 47.378906 17.84375 C 47.902344 18.253906 48.320312 18.742188 48.523438 19.390625 C 48.550781 19.480469 48.582031 19.566406 48.613281 19.65625 C 48.613281 19.910156 48.613281 20.164062 48.613281 20.421875 "/>
<path style=" stroke:none;fill-rule:nonzero;fill:rgb(100%,100%,100%);fill-opacity:1;" d="M 33.921875 47.132812 C 33.484375 47.222656 33.046875 47.324219 32.605469 47.398438 C 31.375 47.617188 30.136719 47.707031 28.890625 47.675781 C 27.101562 47.621094 25.351562 47.34375 23.636719 46.824219 C 21.527344 46.183594 19.578125 45.234375 17.8125 43.914062 C 16.179688 42.691406 14.816406 41.226562 13.804688 39.445312 C 13.007812 38.035156 12.503906 36.527344 12.328125 34.917969 C 12.148438 33.296875 12.285156 31.699219 12.78125 30.140625 C 13.277344 28.5625 14.117188 27.183594 15.269531 25.996094 C 16.769531 24.445312 18.566406 23.371094 20.617188 22.703125 C 21.828125 22.308594 23.066406 22.089844 24.339844 22.09375 C 25.570312 22.09375 26.761719 22.285156 27.863281 22.863281 C 29.035156 23.480469 29.8125 24.410156 30.109375 25.710938 C 30.289062 26.496094 30.257812 27.285156 30.105469 28.074219 C 29.894531 29.207031 29.464844 30.257812 28.941406 31.277344 C 28.902344 31.355469 28.859375 31.433594 28.820312 31.511719 C 28.785156 31.585938 28.746094 31.582031 28.714844 31.507812 C 28.664062 31.390625 28.617188 31.273438 28.574219 31.152344 C 28.476562 30.886719 28.382812 30.621094 28.292969 30.355469 C 28.09375 29.75 27.675781 29.394531 27.0625 29.265625 C 26.285156 29.097656 25.503906 29.066406 24.71875 29.171875 C 23.738281 29.308594 22.808594 29.601562 21.925781 30.050781 C 21.199219 30.425781 20.585938 30.945312 20.03125 31.535156 C 19.425781 32.175781 18.945312 32.902344 18.621094 33.722656 C 18.257812 34.644531 18.113281 35.597656 18.183594 36.585938 C 18.3125 38.339844 19.011719 39.867188 20.066406 41.242188 C 21.21875 42.746094 22.675781 43.886719 24.355469 44.738281 C 25.703125 45.425781 27.128906 45.894531 28.597656 46.242188 C 29.78125 46.519531 30.980469 46.722656 32.1875 46.867188 C 32.6875 46.925781 33.1875 46.980469 33.691406 47.042969 C 33.769531 47.050781 33.84375 47.066406 33.921875 47.078125 C 33.921875 47.097656 33.921875 47.113281 33.921875 47.132812 "/>
<path style=" stroke:none;fill-rule:nonzero;fill:rgb(100%,100%,100%);fill-opacity:1;" d="M 11.3125 37.253906 C 11.167969 37.011719 11.011719 36.78125 10.875 36.535156 C 10.257812 35.414062 9.90625 34.210938 9.699219 32.957031 C 9.519531 31.898438 9.464844 30.832031 9.542969 29.761719 C 9.695312 27.699219 10.324219 25.804688 11.539062 24.117188 C 12.085938 23.359375 12.726562 22.679688 13.355469 21.988281 C 13.679688 21.628906 14 21.265625 14.234375 20.835938 C 14.292969 20.730469 14.332031 20.617188 14.382812 20.507812 C 14.4375 20.394531 14.378906 20.371094 14.289062 20.390625 C 13.984375 20.453125 13.679688 20.496094 13.382812 20.585938 C 12.582031 20.828125 11.933594 21.3125 11.394531 21.9375 C 10.941406 22.460938 10.519531 23.011719 10.089844 23.550781 C 9.671875 24.070312 9.238281 24.574219 8.699219 24.976562 C 8.332031 25.25 7.9375 25.476562 7.5 25.621094 C 7.464844 25.636719 7.425781 25.632812 7.386719 25.636719 C 7.398438 25.597656 7.398438 25.550781 7.421875 25.515625 C 7.796875 24.894531 8.175781 24.277344 8.550781 23.65625 C 9.070312 22.808594 9.574219 21.953125 10.105469 21.109375 C 10.683594 20.1875 11.417969 19.410156 12.363281 18.851562 C 13.128906 18.398438 13.957031 18.144531 14.835938 18.046875 C 15.785156 17.941406 16.726562 18.003906 17.667969 18.148438 C 18.582031 18.289062 19.496094 18.449219 20.414062 18.582031 C 20.953125 18.65625 21.496094 18.699219 22.035156 18.5625 C 22.585938 18.421875 22.929688 18.074219 23.109375 17.539062 C 23.152344 17.414062 23.117188 17.359375 22.996094 17.316406 C 22.644531 17.183594 22.28125 17.113281 21.910156 17.117188 C 21.386719 17.125 20.863281 17.148438 20.339844 17.179688 C 19.226562 17.25 18.128906 17.179688 17.054688 16.835938 C 16.140625 16.539062 15.296875 16.101562 14.507812 15.558594 C 14.496094 15.554688 14.496094 15.539062 14.480469 15.503906 C 14.5625 15.503906 14.640625 15.496094 14.714844 15.507812 C 15.359375 15.589844 16.007812 15.667969 16.652344 15.761719 C 18.472656 16.019531 20.28125 15.972656 22.074219 15.53125 C 22.785156 15.355469 23.5 15.203125 24.222656 15.082031 C 25.003906 14.953125 25.789062 14.964844 26.554688 15.226562 C 27.09375 15.410156 27.566406 15.695312 27.847656 16.21875 C 28.097656 16.679688 28.09375 17.164062 27.941406 17.648438 C 27.691406 18.429688 27.195312 19.023438 26.488281 19.433594 C 25.722656 19.882812 24.886719 20.160156 24.035156 20.386719 C 22.769531 20.71875 21.492188 21.015625 20.238281 21.386719 C 18.433594 21.914062 16.808594 22.808594 15.34375 23.992188 C 14.359375 24.785156 13.5 25.699219 12.816406 26.765625 C 12.238281 27.671875 11.816406 28.648438 11.539062 29.6875 C 11.238281 30.820312 11.105469 31.96875 11.089844 33.136719 C 11.074219 34.253906 11.144531 35.363281 11.273438 36.472656 C 11.300781 36.726562 11.335938 36.976562 11.367188 37.226562 C 11.347656 37.234375 11.332031 37.242188 11.3125 37.253906 "/>
<path style=" stroke:none;fill-rule:nonzero;fill:rgb(100%,100%,100%);fill-opacity:1;" d="M 38.5 27.046875 C 38.546875 26.964844 38.585938 26.886719 38.636719 26.808594 C 38.890625 26.402344 38.988281 25.957031 39.007812 25.484375 C 39.015625 25.347656 38.964844 25.265625 38.851562 25.191406 C 38.210938 24.738281 37.488281 24.535156 36.710938 24.542969 C 36.214844 24.546875 35.71875 24.589844 35.222656 24.636719 C 34.441406 24.707031 33.65625 24.800781 32.871094 24.699219 C 31.671875 24.546875 30.625 24.074219 29.789062 23.1875 C 29.160156 22.519531 28.828125 21.703125 28.75 20.792969 C 28.675781 19.863281 28.839844 18.972656 29.289062 18.148438 C 29.652344 17.480469 30.175781 16.972656 30.804688 16.558594 C 31.542969 16.070312 32.355469 15.730469 33.210938 15.503906 C 34.410156 15.183594 35.617188 14.902344 36.828125 14.613281 C 38.558594 14.203125 40.082031 13.382812 41.433594 12.230469 C 41.855469 11.875 42.210938 11.453125 42.484375 10.96875 C 42.925781 10.191406 43.019531 9.375 42.730469 8.523438 C 42.660156 8.324219 42.664062 8.324219 42.867188 8.320312 C 43.414062 8.3125 43.953125 8.363281 44.472656 8.550781 C 45.355469 8.871094 45.753906 9.566406 45.570312 10.484375 C 45.453125 11.0625 45.171875 11.566406 44.828125 12.03125 C 44.152344 12.949219 43.292969 13.664062 42.347656 14.285156 C 41.183594 15.050781 39.910156 15.582031 38.585938 15.988281 C 37.695312 16.265625 36.800781 16.539062 35.917969 16.839844 C 35.195312 17.089844 34.492188 17.398438 33.871094 17.855469 C 33.199219 18.347656 32.761719 18.996094 32.617188 19.828125 C 32.421875 20.996094 33.03125 22.007812 34.160156 22.371094 C 34.796875 22.578125 35.453125 22.59375 36.113281 22.570312 C 36.859375 22.546875 37.601562 22.46875 38.347656 22.546875 C 38.964844 22.613281 39.550781 22.757812 40.070312 23.121094 C 40.988281 23.761719 41.1875 24.867188 40.546875 25.792969 C 40.066406 26.492188 39.375 26.875 38.566406 27.070312 C 38.554688 27.070312 38.539062 27.0625 38.5 27.046875 "/>
<path style=" stroke:none;fill-rule:nonzero;fill:rgb(100%,100%,100%);fill-opacity:1;" d="M 11.296875 12.605469 C 11.519531 12.636719 11.742188 12.660156 11.964844 12.691406 C 13.75 12.941406 15.539062 13.128906 17.34375 13.082031 C 19.023438 13.039062 20.636719 12.6875 22.179688 12.039062 C 23.511719 11.484375 24.824219 10.878906 26.144531 10.300781 C 26.90625 9.96875 27.644531 9.578125 28.460938 9.371094 C 29.46875 9.113281 30.488281 9.042969 31.503906 9.339844 C 32.28125 9.570312 32.890625 10.015625 33.222656 10.777344 C 33.441406 11.273438 33.492188 11.800781 33.433594 12.335938 C 33.28125 13.765625 32.40625 14.605469 31.136719 15.101562 C 30.585938 15.3125 30.015625 15.371094 29.433594 15.222656 C 28.742188 15.046875 28.300781 14.605469 28.09375 13.933594 C 28.023438 13.710938 28.003906 13.472656 27.96875 13.242188 C 27.953125 13.140625 27.980469 13.101562 28.085938 13.167969 C 28.179688 13.230469 28.28125 13.285156 28.378906 13.339844 C 28.765625 13.558594 29.179688 13.546875 29.59375 13.476562 C 29.644531 13.46875 29.714844 13.402344 29.722656 13.351562 C 29.777344 13.035156 29.824219 12.714844 29.753906 12.390625 C 29.667969 12.003906 29.433594 11.796875 29.035156 11.792969 C 28.652344 11.789062 28.289062 11.902344 27.945312 12.050781 C 27.242188 12.347656 26.546875 12.675781 25.84375 12.972656 C 24.167969 13.683594 22.425781 14.179688 20.621094 14.433594 C 19.171875 14.640625 17.71875 14.683594 16.261719 14.488281 C 14.496094 14.253906 12.839844 13.707031 11.351562 12.703125 C 11.328125 12.6875 11.308594 12.667969 11.285156 12.652344 C 11.289062 12.636719 11.292969 12.621094 11.296875 12.605469 "/>
</g>
</svg>
