<?xml version="1.0" encoding="UTF-8"?>
<svg xmlns="http://www.w3.org/2000/svg" xmlns:xlink="http://www.w3.org/1999/xlink" width="56pt" height="56pt" viewBox="0 0 56 56" version="1.1">
<g id="surface1">
<rect x="0" y="0" width="56" height="56" style="fill:rgb(86.552429%,13.223267%,14.375305%);fill-opacity:1;stroke:none;"/>
<path style=" stroke:none;fill-rule:nonzero;fill:rgb(100%,100%,100%);fill-opacity:1;" d="M 13.9375 7.394531 C 13.9375 7.394531 17.53125 22.96875 27.996094 35.417969 C 27.996094 35.417969 15.847656 35.035156 11.59375 26.785156 C 7.6875 19.207031 10.433594 11.457031 13.9375 7.394531 "/>
<path style=" stroke:none;fill-rule:nonzero;fill:rgb(100%,100%,100%);fill-opacity:1;" d="M 31.957031 39.628906 C 35.925781 43.382812 40.675781 46.570312 46.316406 48.523438 C 46.316406 48.523438 38.753906 49.148438 34.191406 46.960938 C 29.625 44.773438 24.875 41.085938 21.9375 40.835938 C 19 40.585938 17.28125 40.421875 16.5 39.628906 L 31.957031 39.628906 "/>
<path style=" stroke:none;fill-rule:nonzero;fill:rgb(100%,100%,100%);fill-opacity:1;" d="M 38.71875 39.976562 C 36.878906 35.570312 27.996094 35.417969 27.996094 35.417969 C 27.996094 35.417969 30.402344 38.101562 31.957031 39.628906 C 31.957031 39.628906 37.378906 39.476562 38.71875 39.976562 "/>
</g>
</svg>
