<?xml version="1.0" encoding="UTF-8"?>
<svg xmlns="http://www.w3.org/2000/svg" xmlns:xlink="http://www.w3.org/1999/xlink" width="56pt" height="56pt" viewBox="0 0 56 56" version="1.1">
<g id="surface1">
<rect x="0" y="0" width="56" height="56" style="fill:rgb(31.561279%,15.446472%,50.196838%);fill-opacity:1;stroke:none;"/>
<path style=" stroke:none;fill-rule:nonzero;fill:rgb(34.390259%,75.778198%,31.607056%);fill-opacity:1;" d="M 47.273438 28.195312 C 47.097656 28.167969 47.035156 28.316406 46.960938 28.417969 C 46.011719 29.6875 45.070312 30.960938 44.121094 32.226562 C 42.816406 33.964844 41.507812 35.699219 40.195312 37.429688 C 39.023438 38.980469 37.835938 40.527344 36.664062 42.082031 C 35.210938 44.007812 33.769531 45.945312 32.320312 47.871094 C 31.144531 49.425781 29.960938 50.96875 28.785156 52.523438 C 27.976562 53.59375 27.175781 54.671875 26.371094 55.746094 C 26.296875 55.84375 26.207031 55.925781 26.140625 55.996094 C 20.332031 55.996094 14.554688 55.996094 8.753906 55.996094 C 8.777344 55.800781 8.886719 55.6875 8.988281 55.554688 C 10.078125 54.109375 11.160156 52.660156 12.25 51.214844 C 13.050781 50.15625 13.859375 49.101562 14.664062 48.042969 C 15.53125 46.898438 16.390625 45.753906 17.253906 44.609375 C 18.0625 43.539062 18.867188 42.464844 19.675781 41.390625 C 20.265625 40.609375 20.859375 39.828125 21.453125 39.046875 C 22.179688 38.082031 22.902344 37.117188 23.628906 36.152344 C 24.21875 35.371094 24.8125 34.589844 25.40625 33.804688 C 26.210938 32.730469 27.019531 31.660156 27.824219 30.585938 C 28.339844 29.898438 28.847656 29.207031 29.363281 28.519531 C 29.480469 28.363281 29.617188 28.222656 29.773438 28.039062 C 26.242188 23.363281 22.71875 18.707031 19.207031 14.046875 C 15.703125 9.40625 12.210938 4.757812 8.726562 0.132812 C 8.757812 0.0664062 8.761719 0.0507812 8.769531 0.0390625 C 8.78125 0.03125 8.796875 0.015625 8.808594 0.015625 C 8.960938 0.0117188 9.113281 0.00390625 9.261719 0.00390625 C 14.863281 0 20.464844 0 26.117188 0 C 26.355469 0.304688 26.621094 0.632812 26.875 0.96875 C 27.59375 1.917969 28.304688 2.871094 29.019531 3.824219 C 29.898438 4.996094 30.773438 6.167969 31.652344 7.339844 C 32.359375 8.277344 33.082031 9.210938 33.789062 10.152344 C 34.667969 11.320312 35.539062 12.496094 36.417969 13.664062 C 37.21875 14.726562 38.027344 15.777344 38.832031 16.835938 C 39.425781 17.617188 40.019531 18.398438 40.609375 19.183594 C 41.414062 20.253906 42.222656 21.328125 43.027344 22.402344 C 43.550781 23.101562 44.066406 23.808594 44.59375 24.503906 C 45.417969 25.589844 46.246094 26.664062 47.070312 27.742188 C 47.117188 27.800781 47.160156 27.859375 47.203125 27.917969 C 47.226562 28.011719 47.25 28.101562 47.273438 28.195312 "/>
</g>
</svg>
