<?xml version="1.0" encoding="UTF-8"?>
<svg xmlns="http://www.w3.org/2000/svg" xmlns:xlink="http://www.w3.org/1999/xlink" width="56pt" height="56pt" viewBox="0 0 56 56" version="1.1">
<defs>
<clipPath id="clip1">
  <path d="M 8 5 L 35 5 L 35 51 L 8 51 Z M 8 5 "/>
</clipPath>
<clipPath id="clip2">
  <path d="M 15.699219 26.390625 C 15.675781 26.453125 15.734375 26.480469 15.804688 26.515625 C 16.144531 26.675781 16.304688 26.757812 16.917969 27.125 C 17.636719 27.554688 17.949219 27.199219 18.101562 26.925781 C 18.144531 26.851562 18.207031 26.546875 18.136719 26.4375 C 18.066406 26.332031 17.9375 26.398438 17.796875 26.535156 C 17.640625 26.6875 17.257812 26.605469 17.132812 26.59375 C 17.003906 26.578125 16.417969 26.429688 16.035156 26.347656 C 15.964844 26.335938 15.90625 26.328125 15.859375 26.328125 C 15.761719 26.328125 15.710938 26.355469 15.699219 26.390625 M 8.320312 24.085938 C 8.320312 33.308594 14.925781 40.972656 23.613281 42.503906 C 23.542969 43.171875 23.460938 43.796875 23.359375 44.296875 C 22.761719 47.25 20.738281 49.964844 19.644531 50.609375 C 22.570312 50.355469 24.894531 49.480469 26.28125 48.109375 L 26.277344 48.109375 C 26.179688 48.113281 25.261719 48.101562 25.183594 48.097656 C 25.734375 47.886719 26.28125 47.625 26.8125 47.320312 C 26.8125 47.320312 26.8125 47.316406 26.8125 47.3125 C 26.8125 47.316406 26.816406 47.316406 26.816406 47.316406 C 27.015625 45.597656 26.953125 43.542969 26.5 41.035156 C 25.910156 37.765625 24.675781 36.679688 24.5 36.464844 C 24.488281 36.449219 24.476562 36.4375 24.484375 36.421875 C 24.488281 36.410156 24.519531 36.398438 24.53125 36.390625 C 25.558594 35.742188 26.460938 34.964844 26.882812 34.605469 C 27.207031 34.332031 27.078125 34.207031 26.757812 34.355469 C 25.890625 34.75 24.449219 35.257812 22.621094 35.484375 C 21.015625 35.679688 19.109375 35.65625 17.039062 35.257812 C 17.039062 35.257812 15.585938 35.042969 15.800781 33.566406 C 15.859375 33.152344 16.066406 32.726562 16.234375 32.316406 C 16.285156 32.1875 16.425781 31.785156 16.351562 31.460938 C 16.332031 31.378906 16.226562 31.230469 16.167969 31.136719 C 16.0625 30.972656 16.023438 30.746094 16.132812 30.484375 C 16.226562 30.261719 16.609375 29.933594 17.148438 29.882812 C 17.414062 29.855469 17.707031 29.859375 18 29.859375 C 18.382812 29.863281 18.765625 29.867188 19.09375 29.808594 C 19.933594 29.660156 20.4375 29.089844 20.339844 28.902344 C 20.273438 28.777344 19.519531 28.929688 19.265625 28.980469 C 18.890625 29.054688 18.207031 28.753906 17.847656 28.636719 C 17.292969 28.453125 17.003906 28.308594 16.523438 28.515625 C 16.222656 28.644531 15.988281 29.25 15.902344 28.96875 C 15.863281 28.835938 15.9375 28.695312 16.039062 28.542969 C 16.140625 28.398438 16.335938 28.125 16.363281 27.96875 C 16.390625 27.796875 16.433594 27.546875 15.949219 27.207031 C 15.605469 26.960938 15.371094 26.765625 15.226562 26.617188 C 14.761719 26.152344 14.679688 25.664062 15.570312 24.90625 C 16.207031 24.367188 17.609375 22.917969 18.035156 22.035156 C 18.101562 21.894531 18.441406 21.339844 18.070312 20.785156 C 17.785156 20.359375 17.730469 20.277344 17.65625 20.132812 C 17.449219 19.734375 17.597656 19.382812 17.9375 18.851562 C 18.101562 18.59375 18.230469 18.28125 18.585938 17.171875 C 18.976562 15.941406 19.613281 14.851562 20.480469 13.925781 L 20.476562 13.925781 C 20.535156 13.742188 20.640625 12.320312 21.46875 10.992188 C 21.738281 10.476562 22.101562 9.929688 22.59375 9.398438 C 22.925781 9.039062 23.449219 8.625 24.136719 8.226562 C 24.824219 7.828125 25.675781 7.441406 26.667969 7.148438 C 27.859375 6.792969 29.25 6.5625 30.792969 6.585938 C 31.945312 6.601562 33.042969 6.695312 34.347656 7.042969 C 34.347656 7.042969 34.351562 7.042969 34.351562 7.042969 C 34.359375 7.046875 34.414062 7.058594 34.507812 7.089844 C 32.164062 6 29.554688 5.390625 26.808594 5.390625 C 16.597656 5.390625 8.320312 13.761719 8.320312 24.085938 "/>
</clipPath>
<clipPath id="clip3">
  <path d="M 15.699219 26.390625 C 15.675781 26.453125 15.734375 26.480469 15.804688 26.515625 C 16.144531 26.675781 16.304688 26.757812 16.917969 27.125 C 17.636719 27.554688 17.949219 27.199219 18.101562 26.925781 C 18.144531 26.851562 18.207031 26.546875 18.136719 26.4375 C 18.066406 26.332031 17.9375 26.398438 17.796875 26.535156 C 17.640625 26.6875 17.257812 26.605469 17.132812 26.59375 C 17.003906 26.578125 16.417969 26.429688 16.035156 26.347656 C 15.964844 26.335938 15.90625 26.328125 15.859375 26.328125 C 15.761719 26.328125 15.710938 26.355469 15.699219 26.390625 M 8.320312 24.085938 C 8.320312 33.308594 14.925781 40.972656 23.613281 42.503906 C 23.542969 43.171875 23.460938 43.796875 23.359375 44.296875 C 22.761719 47.25 20.738281 49.964844 19.644531 50.609375 C 22.570312 50.355469 24.894531 49.480469 26.28125 48.109375 L 26.277344 48.109375 C 26.179688 48.113281 25.261719 48.101562 25.183594 48.097656 C 25.734375 47.886719 26.28125 47.625 26.8125 47.320312 C 26.8125 47.320312 26.8125 47.316406 26.8125 47.3125 C 26.8125 47.316406 26.816406 47.316406 26.816406 47.316406 C 27.015625 45.597656 26.953125 43.542969 26.5 41.035156 C 25.910156 37.765625 24.675781 36.679688 24.5 36.464844 C 24.488281 36.449219 24.476562 36.4375 24.484375 36.421875 C 24.488281 36.410156 24.519531 36.398438 24.53125 36.390625 C 25.558594 35.742188 26.460938 34.964844 26.882812 34.605469 C 27.207031 34.332031 27.078125 34.207031 26.757812 34.355469 C 25.890625 34.75 24.449219 35.257812 22.621094 35.484375 C 21.015625 35.679688 19.109375 35.65625 17.039062 35.257812 C 17.039062 35.257812 15.585938 35.042969 15.800781 33.566406 C 15.859375 33.152344 16.066406 32.726562 16.234375 32.316406 C 16.285156 32.1875 16.425781 31.785156 16.351562 31.460938 C 16.332031 31.378906 16.226562 31.230469 16.167969 31.136719 C 16.0625 30.972656 16.023438 30.746094 16.132812 30.484375 C 16.226562 30.261719 16.609375 29.933594 17.148438 29.882812 C 17.414062 29.855469 17.707031 29.859375 18 29.859375 C 18.382812 29.863281 18.765625 29.867188 19.09375 29.808594 C 19.933594 29.660156 20.4375 29.089844 20.339844 28.902344 C 20.273438 28.777344 19.519531 28.929688 19.265625 28.980469 C 18.890625 29.054688 18.207031 28.753906 17.847656 28.636719 C 17.292969 28.453125 17.003906 28.308594 16.523438 28.515625 C 16.222656 28.644531 15.988281 29.25 15.902344 28.96875 C 15.863281 28.835938 15.9375 28.695312 16.039062 28.542969 C 16.140625 28.398438 16.335938 28.125 16.363281 27.96875 C 16.390625 27.796875 16.433594 27.546875 15.949219 27.207031 C 15.605469 26.960938 15.371094 26.765625 15.226562 26.617188 C 14.761719 26.152344 14.679688 25.664062 15.570312 24.90625 C 16.207031 24.367188 17.609375 22.917969 18.035156 22.035156 C 18.101562 21.894531 18.441406 21.339844 18.070312 20.785156 C 17.785156 20.359375 17.730469 20.277344 17.65625 20.132812 C 17.449219 19.734375 17.597656 19.382812 17.9375 18.851562 C 18.101562 18.59375 18.230469 18.28125 18.585938 17.171875 C 18.976562 15.941406 19.613281 14.851562 20.480469 13.925781 L 20.476562 13.925781 C 20.535156 13.742188 20.640625 12.320312 21.46875 10.992188 C 21.738281 10.476562 22.101562 9.929688 22.59375 9.398438 C 22.925781 9.039062 23.449219 8.625 24.136719 8.226562 C 24.824219 7.828125 25.675781 7.441406 26.667969 7.148438 C 27.859375 6.792969 29.25 6.5625 30.792969 6.585938 C 31.945312 6.601562 33.042969 6.695312 34.347656 7.042969 C 34.347656 7.042969 34.351562 7.042969 34.351562 7.042969 C 34.359375 7.046875 34.414062 7.058594 34.507812 7.089844 C 32.164062 6 29.554688 5.390625 26.808594 5.390625 C 16.597656 5.390625 8.320312 13.761719 8.320312 24.085938 "/>
</clipPath>
<linearGradient id="linear0" gradientUnits="userSpaceOnUse" x1="-0.192186" y1="0" x2="1.619834" y2="0" gradientTransform="matrix(-1.02395,25.4934,-25.4934,-1.02395,21.6391,9.7815)">
<stop offset="0" style="stop-color:rgb(82.048035%,2.940369%,54.290771%);stop-opacity:1;"/>
<stop offset="0.0625" style="stop-color:rgb(82.048035%,2.940369%,54.290771%);stop-opacity:1;"/>
<stop offset="0.09375" style="stop-color:rgb(82.048035%,2.940369%,54.290771%);stop-opacity:1;"/>
<stop offset="0.101562" style="stop-color:rgb(82.048035%,2.940369%,54.290771%);stop-opacity:1;"/>
<stop offset="0.105469" style="stop-color:rgb(81.750488%,3.016663%,54.301453%);stop-opacity:1;"/>
<stop offset="0.109375" style="stop-color:rgb(81.44989%,3.094482%,54.310608%);stop-opacity:1;"/>
<stop offset="0.113281" style="stop-color:rgb(80.848694%,3.24707%,54.330444%);stop-opacity:1;"/>
<stop offset="0.117187" style="stop-color:rgb(80.247498%,3.401184%,54.351807%);stop-opacity:1;"/>
<stop offset="0.121094" style="stop-color:rgb(79.716492%,3.518677%,54.441833%);stop-opacity:1;"/>
<stop offset="0.125" style="stop-color:rgb(79.185486%,3.637695%,54.53186%);stop-opacity:1;"/>
<stop offset="0.128906" style="stop-color:rgb(78.65448%,3.771973%,54.554749%);stop-opacity:1;"/>
<stop offset="0.132812" style="stop-color:rgb(78.123474%,3.90625%,54.577637%);stop-opacity:1;"/>
<stop offset="0.136719" style="stop-color:rgb(77.542114%,4.048157%,54.624939%);stop-opacity:1;"/>
<stop offset="0.140625" style="stop-color:rgb(76.959229%,4.191589%,54.670715%);stop-opacity:1;"/>
<stop offset="0.144531" style="stop-color:rgb(76.333618%,4.3396%,54.740906%);stop-opacity:1;"/>
<stop offset="0.148437" style="stop-color:rgb(75.708008%,4.48761%,54.812622%);stop-opacity:1;"/>
<stop offset="0.152344" style="stop-color:rgb(75.291443%,4.594421%,54.826355%);stop-opacity:1;"/>
<stop offset="0.15625" style="stop-color:rgb(74.873352%,4.701233%,54.840088%);stop-opacity:1;"/>
<stop offset="0.160156" style="stop-color:rgb(74.232483%,4.866028%,54.859924%);stop-opacity:1;"/>
<stop offset="0.164062" style="stop-color:rgb(73.591614%,5.029297%,54.881287%);stop-opacity:1;"/>
<stop offset="0.167969" style="stop-color:rgb(73.086548%,5.13916%,54.989624%);stop-opacity:1;"/>
<stop offset="0.171875" style="stop-color:rgb(72.57843%,5.247498%,55.099487%);stop-opacity:1;"/>
<stop offset="0.175781" style="stop-color:rgb(72.106934%,5.361938%,55.145264%);stop-opacity:1;"/>
<stop offset="0.179687" style="stop-color:rgb(71.633911%,5.476379%,55.189514%);stop-opacity:1;"/>
<stop offset="0.183594" style="stop-color:rgb(70.928955%,5.677795%,55.12085%);stop-opacity:1;"/>
<stop offset="0.1875" style="stop-color:rgb(70.225525%,5.879211%,55.050659%);stop-opacity:1;"/>
<stop offset="0.191406" style="stop-color:rgb(69.639587%,6.036377%,55.041504%);stop-opacity:1;"/>
<stop offset="0.195312" style="stop-color:rgb(69.055176%,6.192017%,55.030823%);stop-opacity:1;"/>
<stop offset="0.199219" style="stop-color:rgb(68.37616%,6.382751%,54.974365%);stop-opacity:1;"/>
<stop offset="0.203125" style="stop-color:rgb(67.697144%,6.573486%,54.917908%);stop-opacity:1;"/>
<stop offset="0.207031" style="stop-color:rgb(66.993713%,6.768799%,54.867554%);stop-opacity:1;"/>
<stop offset="0.210937" style="stop-color:rgb(66.290283%,6.964111%,54.8172%);stop-opacity:1;"/>
<stop offset="0.214844" style="stop-color:rgb(65.583801%,7.145691%,54.841614%);stop-opacity:1;"/>
<stop offset="0.21875" style="stop-color:rgb(64.877319%,7.325745%,54.864502%);stop-opacity:1;"/>
<stop offset="0.222656" style="stop-color:rgb(64.265442%,7.470703%,54.936218%);stop-opacity:1;"/>
<stop offset="0.226562" style="stop-color:rgb(63.653564%,7.617188%,55.006409%);stop-opacity:1;"/>
<stop offset="0.230469" style="stop-color:rgb(63.121033%,7.73468%,55.116272%);stop-opacity:1;"/>
<stop offset="0.234375" style="stop-color:rgb(62.586975%,7.853699%,55.224609%);stop-opacity:1;"/>
<stop offset="0.238281" style="stop-color:rgb(62.057495%,7.987976%,55.244446%);stop-opacity:1;"/>
<stop offset="0.242187" style="stop-color:rgb(61.526489%,8.123779%,55.264282%);stop-opacity:1;"/>
<stop offset="0.246094" style="stop-color:rgb(61.000061%,8.27179%,55.213928%);stop-opacity:1;"/>
<stop offset="0.25" style="stop-color:rgb(60.472107%,8.421326%,55.162048%);stop-opacity:1;"/>
<stop offset="0.253906" style="stop-color:rgb(59.867859%,8.575439%,55.181885%);stop-opacity:1;"/>
<stop offset="0.257812" style="stop-color:rgb(59.263611%,8.729553%,55.201721%);stop-opacity:1;"/>
<stop offset="0.261719" style="stop-color:rgb(58.451843%,8.937073%,55.229187%);stop-opacity:1;"/>
<stop offset="0.265625" style="stop-color:rgb(57.640076%,9.144592%,55.255127%);stop-opacity:1;"/>
<stop offset="0.269531" style="stop-color:rgb(56.896973%,9.347534%,55.210876%);stop-opacity:1;"/>
<stop offset="0.273437" style="stop-color:rgb(56.150818%,9.552002%,55.168152%);stop-opacity:1;"/>
<stop offset="0.277344" style="stop-color:rgb(55.59082%,9.69696%,55.171204%);stop-opacity:1;"/>
<stop offset="0.28125" style="stop-color:rgb(55.030823%,9.843445%,55.174255%);stop-opacity:1;"/>
<stop offset="0.285156" style="stop-color:rgb(54.428101%,10.003662%,55.155945%);stop-opacity:1;"/>
<stop offset="0.289062" style="stop-color:rgb(53.825378%,10.163879%,55.13916%);stop-opacity:1;"/>
<stop offset="0.292969" style="stop-color:rgb(53.387451%,10.267639%,55.201721%);stop-opacity:1;"/>
<stop offset="0.296875" style="stop-color:rgb(52.949524%,10.371399%,55.264282%);stop-opacity:1;"/>
<stop offset="0.300781" style="stop-color:rgb(52.354431%,10.499573%,55.143738%);stop-opacity:1;"/>
<stop offset="0.304687" style="stop-color:rgb(51.759338%,10.627747%,55.021667%);stop-opacity:1;"/>
<stop offset="0.308594" style="stop-color:rgb(51.211548%,10.760498%,54.997253%);stop-opacity:1;"/>
<stop offset="0.3125" style="stop-color:rgb(50.663757%,10.891724%,54.972839%);stop-opacity:1;"/>
<stop offset="0.316406" style="stop-color:rgb(49.986267%,11.051941%,55.06897%);stop-opacity:1;"/>
<stop offset="0.320312" style="stop-color:rgb(49.308777%,11.212158%,55.163574%);stop-opacity:1;"/>
<stop offset="0.324219" style="stop-color:rgb(48.722839%,11.361694%,55.183411%);stop-opacity:1;"/>
<stop offset="0.328125" style="stop-color:rgb(48.135376%,11.51123%,55.203247%);stop-opacity:1;"/>
<stop offset="0.332031" style="stop-color:rgb(47.520447%,11.668396%,55.224609%);stop-opacity:1;"/>
<stop offset="0.335937" style="stop-color:rgb(46.903992%,11.825562%,55.244446%);stop-opacity:1;"/>
<stop offset="0.339844" style="stop-color:rgb(46.257019%,11.991882%,55.265808%);stop-opacity:1;"/>
<stop offset="0.34375" style="stop-color:rgb(45.610046%,12.156677%,55.28717%);stop-opacity:1;"/>
<stop offset="0.347656" style="stop-color:rgb(45.196533%,12.261963%,55.302429%);stop-opacity:1;"/>
<stop offset="0.351562" style="stop-color:rgb(44.781494%,12.367249%,55.316162%);stop-opacity:1;"/>
<stop offset="0.355469" style="stop-color:rgb(44.113159%,12.538147%,55.337524%);stop-opacity:1;"/>
<stop offset="0.359375" style="stop-color:rgb(43.443298%,12.709045%,55.360413%);stop-opacity:1;"/>
<stop offset="0.363281" style="stop-color:rgb(42.915344%,12.843323%,55.378723%);stop-opacity:1;"/>
<stop offset="0.367187" style="stop-color:rgb(42.38739%,12.979126%,55.395508%);stop-opacity:1;"/>
<stop offset="0.371094" style="stop-color:rgb(41.856384%,13.1073%,55.461121%);stop-opacity:1;"/>
<stop offset="0.375" style="stop-color:rgb(41.325378%,13.235474%,55.525208%);stop-opacity:1;"/>
<stop offset="0.378906" style="stop-color:rgb(40.795898%,13.366699%,55.567932%);stop-opacity:1;"/>
<stop offset="0.382812" style="stop-color:rgb(40.264893%,13.499451%,55.609131%);stop-opacity:1;"/>
<stop offset="0.386719" style="stop-color:rgb(39.871216%,13.600159%,55.622864%);stop-opacity:1;"/>
<stop offset="0.390625" style="stop-color:rgb(39.476013%,13.700867%,55.635071%);stop-opacity:1;"/>
<stop offset="0.394531" style="stop-color:rgb(38.856506%,13.859558%,55.656433%);stop-opacity:1;"/>
<stop offset="0.398437" style="stop-color:rgb(38.235474%,14.01825%,55.67627%);stop-opacity:1;"/>
<stop offset="0.402344" style="stop-color:rgb(37.811279%,14.126587%,55.691528%);stop-opacity:1;"/>
<stop offset="0.40625" style="stop-color:rgb(37.385559%,14.234924%,55.705261%);stop-opacity:1;"/>
<stop offset="0.410156" style="stop-color:rgb(36.753845%,14.396667%,55.725098%);stop-opacity:1;"/>
<stop offset="0.414062" style="stop-color:rgb(36.122131%,14.558411%,55.74646%);stop-opacity:1;"/>
<stop offset="0.417969" style="stop-color:rgb(35.551453%,14.704895%,55.766296%);stop-opacity:1;"/>
<stop offset="0.421875" style="stop-color:rgb(34.980774%,14.849854%,55.784607%);stop-opacity:1;"/>
<stop offset="0.425781" style="stop-color:rgb(34.469604%,14.994812%,55.810547%);stop-opacity:1;"/>
<stop offset="0.429687" style="stop-color:rgb(33.956909%,15.141296%,55.838013%);stop-opacity:1;"/>
<stop offset="0.433594" style="stop-color:rgb(33.531189%,15.341187%,55.938721%);stop-opacity:1;"/>
<stop offset="0.4375" style="stop-color:rgb(33.105469%,15.542603%,56.040955%);stop-opacity:1;"/>
<stop offset="0.441406" style="stop-color:rgb(32.60498%,15.687561%,56.164551%);stop-opacity:1;"/>
<stop offset="0.445312" style="stop-color:rgb(32.104492%,15.834045%,56.289673%);stop-opacity:1;"/>
<stop offset="0.449219" style="stop-color:rgb(31.465149%,16.091919%,56.469727%);stop-opacity:1;"/>
<stop offset="0.453125" style="stop-color:rgb(30.822754%,16.348267%,56.648254%);stop-opacity:1;"/>
<stop offset="0.457031" style="stop-color:rgb(30.36499%,16.58783%,56.767273%);stop-opacity:1;"/>
<stop offset="0.460937" style="stop-color:rgb(29.905701%,16.827393%,56.886292%);stop-opacity:1;"/>
<stop offset="0.464844" style="stop-color:rgb(29.496765%,17.062378%,56.916809%);stop-opacity:1;"/>
<stop offset="0.46875" style="stop-color:rgb(29.086304%,17.295837%,56.944275%);stop-opacity:1;"/>
<stop offset="0.472656" style="stop-color:rgb(28.521729%,17.56134%,57.022095%);stop-opacity:1;"/>
<stop offset="0.476562" style="stop-color:rgb(27.954102%,17.823792%,57.098389%);stop-opacity:1;"/>
<stop offset="0.480469" style="stop-color:rgb(27.459717%,18.130493%,57.200623%);stop-opacity:1;"/>
<stop offset="0.484375" style="stop-color:rgb(26.963806%,18.434143%,57.301331%);stop-opacity:1;"/>
<stop offset="0.488281" style="stop-color:rgb(26.443481%,18.722534%,57.374573%);stop-opacity:1;"/>
<stop offset="0.492187" style="stop-color:rgb(25.924683%,19.007874%,57.446289%);stop-opacity:1;"/>
<stop offset="0.496094" style="stop-color:rgb(25.50354%,19.226074%,57.528687%);stop-opacity:1;"/>
<stop offset="0.5" style="stop-color:rgb(25.080872%,19.442749%,57.61261%);stop-opacity:1;"/>
<stop offset="0.503906" style="stop-color:rgb(24.693298%,19.656372%,57.623291%);stop-opacity:1;"/>
<stop offset="0.507812" style="stop-color:rgb(24.304199%,19.868469%,57.63092%);stop-opacity:1;"/>
<stop offset="0.511719" style="stop-color:rgb(24.057007%,20.002747%,57.637024%);stop-opacity:1;"/>
<stop offset="0.515625" style="stop-color:rgb(23.809814%,20.135498%,57.643127%);stop-opacity:1;"/>
<stop offset="0.53125" style="stop-color:rgb(23.809814%,20.135498%,57.643127%);stop-opacity:1;"/>
<stop offset="0.5625" style="stop-color:rgb(23.809814%,20.135498%,57.643127%);stop-opacity:1;"/>
<stop offset="0.625" style="stop-color:rgb(23.809814%,20.135498%,57.643127%);stop-opacity:1;"/>
<stop offset="0.75" style="stop-color:rgb(23.809814%,20.135498%,57.643127%);stop-opacity:1;"/>
<stop offset="1" style="stop-color:rgb(23.809814%,20.135498%,57.643127%);stop-opacity:1;"/>
</linearGradient>
</defs>
<g id="surface1">
<rect x="0" y="0" width="56" height="56" style="fill:rgb(95.666504%,95.776367%,96.775818%);fill-opacity:1;stroke:none;"/>
<path style=" stroke:none;fill-rule:nonzero;fill:rgb(100%,100%,100%);fill-opacity:1;" d="M 31.5625 22.117188 C 30.820312 24.445312 30.558594 26.644531 30.800781 29.222656 C 30.800781 29.226562 30.800781 29.230469 30.804688 29.234375 C 30.804688 29.238281 30.804688 29.246094 30.804688 29.253906 C 30.953125 30.796875 31.28125 32.472656 31.796875 34.398438 C 32.210938 35.960938 32.347656 37.515625 32.292969 39.003906 C 31.933594 42.828125 29.605469 45.707031 26.816406 47.316406 C 26.816406 47.316406 26.8125 47.316406 26.8125 47.316406 C 26.8125 47.316406 26.816406 47.316406 26.816406 47.316406 C 27.019531 45.597656 26.957031 43.542969 26.5 41.035156 C 25.910156 37.765625 24.675781 36.679688 24.5 36.464844 C 24.488281 36.449219 24.476562 36.4375 24.484375 36.421875 C 24.488281 36.410156 24.519531 36.398438 24.53125 36.390625 C 25.558594 35.742188 26.460938 34.964844 26.882812 34.605469 C 27.207031 34.332031 27.078125 34.207031 26.757812 34.355469 C 25.890625 34.75 24.449219 35.257812 22.621094 35.484375 C 21.015625 35.679688 19.109375 35.65625 17.039062 35.257812 C 17.039062 35.257812 15.585938 35.042969 15.800781 33.566406 C 15.859375 33.152344 16.066406 32.726562 16.234375 32.316406 C 16.285156 32.183594 16.425781 31.785156 16.351562 31.460938 C 16.332031 31.378906 16.226562 31.230469 16.167969 31.136719 C 16.0625 30.972656 16.023438 30.746094 16.132812 30.484375 C 16.226562 30.261719 16.609375 29.933594 17.148438 29.882812 C 17.757812 29.824219 18.515625 29.914062 19.09375 29.808594 C 19.933594 29.660156 20.4375 29.089844 20.339844 28.902344 C 20.273438 28.777344 19.523438 28.929688 19.265625 28.980469 C 18.890625 29.054688 18.207031 28.753906 17.847656 28.636719 C 17.292969 28.453125 17.003906 28.308594 16.523438 28.515625 C 16.222656 28.644531 15.984375 29.246094 15.902344 28.96875 C 15.863281 28.835938 15.9375 28.695312 16.042969 28.542969 C 16.140625 28.398438 16.335938 28.125 16.363281 27.96875 C 16.390625 27.796875 16.433594 27.546875 15.949219 27.207031 C 15.605469 26.964844 15.371094 26.765625 15.226562 26.617188 C 14.761719 26.148438 14.679688 25.664062 15.570312 24.90625 C 16.207031 24.367188 17.609375 22.917969 18.035156 22.035156 C 18.101562 21.894531 18.441406 21.339844 18.070312 20.785156 C 17.78125 20.359375 17.730469 20.277344 17.65625 20.132812 C 17.449219 19.734375 17.597656 19.382812 17.9375 18.851562 C 18.101562 18.59375 18.230469 18.28125 18.585938 17.171875 C 18.976562 15.941406 19.613281 14.851562 20.480469 13.921875 L 20.476562 13.925781 L 20.480469 13.921875 C 20.546875 13.867188 21.53125 12.773438 22.648438 12.445312 C 22.921875 12.894531 23.492188 13.503906 24.636719 14.089844 C 25.804688 14.6875 27.089844 15.019531 27.089844 15.019531 C 27.089844 15.019531 28.691406 15.480469 30.316406 16.0625 C 31.613281 16.523438 32.964844 18.207031 32.964844 18.550781 C 32.964844 19.269531 32.257812 19.9375 31.5625 22.117188 "/>
<g clip-path="url(#clip1)" clip-rule="nonzero">
<g clip-path="url(#clip2)" clip-rule="nonzero">
<g clip-path="url(#clip3)" clip-rule="nonzero">
<path style=" stroke:none;fill-rule:nonzero;fill:url(#linear0);" d="M 36.320312 5.464844 L 8.363281 4.339844 L 6.507812 50.535156 L 34.464844 51.660156 Z M 36.320312 5.464844 "/>
</g>
</g>
</g>
<path style=" stroke:none;fill-rule:nonzero;fill:rgb(23.75946%,20.108032%,57.624817%);fill-opacity:1;" d="M 24.101562 17.75 C 24.007812 17.722656 21.558594 17.183594 20.746094 17.238281 C 19.9375 17.289062 19.238281 17.761719 18.808594 18.25 C 18.578125 18.515625 18.472656 18.78125 18.433594 19.007812 C 18.398438 19.402344 18.679688 19.585938 19.011719 19.480469 C 19.253906 19.402344 19.429688 19.230469 19.679688 18.859375 C 19.832031 18.632812 19.925781 18.339844 20.160156 18.191406 C 20.550781 17.945312 21.222656 17.882812 22.320312 17.910156 C 23.15625 17.933594 23.832031 17.972656 23.996094 17.980469 C 24.304688 17.996094 24.234375 17.789062 24.101562 17.75 "/>
<path style=" stroke:none;fill-rule:nonzero;fill:rgb(23.75946%,20.108032%,57.624817%);fill-opacity:1;" d="M 22.6875 20.023438 C 22.226562 19.753906 21.613281 19.769531 21.492188 19.746094 C 21.371094 19.722656 21.347656 19.601562 21.53125 19.515625 C 21.777344 19.394531 22.242188 19.492188 22.257812 19.414062 C 22.273438 19.347656 22.167969 19.175781 21.816406 19.039062 C 21.625 18.96875 21.261719 18.917969 21 18.945312 C 20.25 19.023438 19.847656 19.492188 19.761719 19.578125 C 19.679688 19.664062 19.550781 19.792969 19.519531 19.992188 C 19.472656 20.253906 19.640625 20.457031 19.800781 20.714844 C 19.882812 20.84375 19.957031 20.941406 19.980469 21.039062 C 20.019531 21.183594 19.992188 21.238281 19.875 21.332031 C 19.746094 21.433594 19.824219 21.617188 20.085938 21.542969 C 20.386719 21.457031 20.550781 21.371094 20.777344 21.183594 C 21.097656 20.910156 21.09375 20.738281 21.320312 20.511719 C 21.542969 20.285156 22.253906 20.289062 22.617188 20.339844 C 23.046875 20.398438 23.144531 20.292969 22.6875 20.023438 "/>
<path style=" stroke:none;fill-rule:nonzero;fill:rgb(23.75946%,20.108032%,57.624817%);fill-opacity:1;" d="M 45.488281 23.515625 C 45.480469 22.683594 45.246094 21.023438 45.210938 20.65625 C 45.105469 19.652344 44.867188 18.253906 44.09375 16.316406 C 43.25 14.210938 42.570312 12.722656 40.503906 10.6875 C 38.074219 8.289062 35.210938 7.296875 34.519531 7.089844 C 34.414062 7.058594 34.359375 7.046875 34.351562 7.042969 C 33.042969 6.695312 31.945312 6.601562 30.792969 6.585938 C 26.675781 6.523438 23.65625 8.253906 22.59375 9.398438 C 22.101562 9.929688 21.738281 10.476562 21.46875 10.992188 C 20.640625 12.320312 20.539062 13.742188 20.476562 13.925781 L 20.480469 13.921875 C 20.542969 13.867188 21.53125 12.773438 22.648438 12.445312 C 22.921875 12.894531 23.492188 13.503906 24.636719 14.089844 C 25.804688 14.6875 27.089844 15.019531 27.089844 15.019531 C 27.089844 15.019531 28.691406 15.480469 30.316406 16.058594 C 31.613281 16.523438 32.964844 18.207031 32.964844 18.550781 C 32.964844 19.269531 32.257812 19.9375 31.5625 22.117188 C 30.820312 24.445312 30.558594 26.644531 30.800781 29.222656 C 30.800781 29.226562 30.800781 29.230469 30.804688 29.230469 C 30.804688 29.238281 30.804688 29.246094 30.804688 29.253906 C 30.953125 30.792969 31.28125 32.472656 31.792969 34.398438 L 31.796875 34.398438 C 32.210938 35.960938 32.347656 37.515625 32.292969 39.003906 C 31.929688 42.828125 29.609375 45.707031 26.816406 47.320312 C 26.816406 47.316406 26.8125 47.316406 26.8125 47.3125 C 26.8125 47.316406 26.8125 47.320312 26.8125 47.320312 C 26.28125 47.625 25.734375 47.886719 25.183594 48.097656 C 25.261719 48.101562 26.179688 48.113281 26.277344 48.109375 C 28.621094 48.082031 31.9375 47.628906 34.78125 44.648438 C 35.761719 43.621094 36.53125 42.542969 37.015625 41.53125 C 37.214844 41.105469 38.058594 39.601562 38.539062 36.613281 C 38.601562 36.214844 38.8125 34.929688 38.8125 34.929688 C 38.8125 34.929688 38.945312 35.84375 38.960938 36.660156 C 38.984375 37.78125 39.027344 39.1875 38.359375 41.320312 C 38.585938 41.273438 39.695312 40.445312 41.007812 38.671875 C 41.484375 38.023438 41.925781 37.34375 42.332031 36.648438 C 44.214844 33.695312 45.554688 30.179688 45.488281 23.515625 "/>
<path style=" stroke:none;fill-rule:nonzero;fill:rgb(93.260193%,13.774109%,21.170044%);fill-opacity:1;" d="M 47.121094 9.929688 C 47.0625 10.402344 47.210938 11.734375 47.574219 12.976562 C 47.957031 14.285156 47.277344 15.445312 46.097656 16.125 C 45.730469 15.550781 44.984375 15.265625 44.324219 15.242188 C 43.9375 15.226562 44.042969 15.386719 44.234375 15.464844 C 46.976562 16.613281 46.011719 19.808594 45.65625 20.488281 C 45.292969 21.179688 45.382812 22.097656 45.382812 22.097656 C 44.527344 21.847656 43.746094 22.011719 43.058594 22.121094 C 41.699219 22.335938 40.789062 22.09375 40.082031 21.769531 C 39.519531 21.511719 38.632812 20.925781 38.5 19.804688 C 38.472656 19.601562 38.339844 19.460938 38.261719 19.839844 C 38.121094 20.488281 38.21875 21.277344 38.683594 21.777344 C 38.175781 24.273438 33.28125 24.089844 33.28125 24.089844 C 32.957031 23.011719 30.730469 22.683594 30.226562 21.117188 C 29.988281 20.375 30.183594 19.601562 30.183594 19.601562 C 31.464844 19.910156 32.203125 19.292969 32.621094 18.777344 C 32.859375 18.472656 32.667969 18.460938 32.496094 18.570312 C 30.875 19.59375 29.363281 18.570312 29.050781 17.128906 C 28.628906 15.546875 27.089844 15.019531 27.089844 15.019531 C 28.210938 14.3125 27.894531 13.089844 28.480469 12.058594 C 30.019531 9.335938 32.207031 10.148438 32.207031 10.148438 C 32.417969 10.796875 33.0625 11.261719 33.699219 11.453125 C 34.066406 11.566406 34.007812 11.382812 33.84375 11.261719 C 32.285156 10.144531 32.671875 8.359375 33.894531 7.527344 C 36.03125 6.074219 36.398438 5.445312 36.398438 5.445312 C 36.789062 5.742188 37.828125 6 38.921875 6.09375 C 41.375 6.3125 41.953125 7.589844 42 8.078125 C 41.710938 8.230469 41.21875 8.691406 40.988281 9.421875 C 40.871094 9.792969 41.058594 9.734375 41.179688 9.566406 C 42.136719 8.261719 43.308594 8.507812 44.414062 9.011719 C 45.109375 9.332031 46.117188 10.148438 47.121094 9.929688 M 35.316406 16.984375 C 35.300781 17.109375 35.347656 17.15625 35.464844 17.0625 C 35.972656 16.652344 36.820312 16.023438 37.972656 15.816406 C 39.355469 15.570312 40.136719 14.894531 40.496094 14.132812 C 40.710938 13.675781 40.886719 12.851562 41.558594 12.355469 C 41.773438 12.199219 41.554688 12.144531 41.375 12.175781 C 41.207031 12.207031 40.296875 12.453125 39.703125 13.101562 C 39.308594 12.679688 39.335938 12.097656 39.390625 11.761719 C 39.417969 11.664062 39.339844 11.589844 39.207031 11.699219 C 38.753906 12.0625 38.453125 12.546875 38.355469 12.894531 C 38.355469 12.894531 37.996094 12.636719 38.179688 11.984375 C 38.210938 11.875 38.136719 11.917969 38.097656 11.945312 C 37.449219 12.417969 37.503906 13.128906 37.496094 13.222656 C 37.496094 13.222656 36.84375 12.859375 35.839844 12.722656 C 35.664062 12.050781 34.59375 11.878906 34.417969 12.5625 C 34.257812 13.183594 35.292969 13.65625 35.730469 13.140625 C 35.730469 13.140625 37.148438 13.289062 38.402344 14.546875 C 38.53125 14.675781 38.574219 14.777344 38.492188 14.851562 C 38.433594 14.90625 38.253906 14.792969 38.03125 14.640625 C 37.785156 14.46875 36.070312 13.363281 34.589844 14.121094 C 34.515625 14.160156 34.511719 14.226562 34.582031 14.242188 C 34.859375 14.324219 35.480469 14.539062 35.640625 14.945312 C 35.242188 15.046875 34.609375 15.289062 34.15625 16.226562 C 34.039062 16.46875 34.191406 16.5 34.320312 16.402344 C 34.472656 16.285156 35.398438 15.78125 35.742188 15.816406 C 35.742188 15.816406 35.429688 16.273438 35.316406 16.984375 "/>
</g>
</svg>
