<?xml version="1.0" encoding="UTF-8"?>
<svg xmlns="http://www.w3.org/2000/svg" xmlns:xlink="http://www.w3.org/1999/xlink" width="56pt" height="56pt" viewBox="0 0 56 56" version="1.1">
<g id="surface1">
<rect x="0" y="0" width="56" height="56" style="fill:rgb(88.035583%,6.192017%,28.605652%);fill-opacity:1;stroke:none;"/>
<path style=" stroke:none;fill-rule:evenodd;fill:rgb(100%,100%,100%);fill-opacity:1;" d="M 25.847656 20.933594 C 25.371094 21.078125 24.898438 21.410156 24.757812 21.835938 C 23.996094 26.117188 23.472656 30.441406 22.664062 34.71875 L 22.804688 35.71875 C 23.042969 36.289062 23.710938 36.527344 24.183594 36.859375 C 24.757812 36.90625 25.5625 36.8125 25.847656 36.148438 L 27.894531 21.933594 C 27.417969 21.3125 26.753906 20.742188 25.847656 20.933594 Z M 39.207031 21.648438 C 36.78125 21.457031 34.976562 23.214844 33.027344 24.546875 L 32.597656 24.546875 C 32.695312 23.40625 32.695312 22.21875 32.933594 21.265625 C 32.648438 20.742188 31.933594 20.269531 31.21875 20.21875 C 30.554688 20.363281 29.890625 20.789062 29.699219 21.457031 L 29.128906 26.921875 L 28.367188 27.636719 C 28.226562 28.160156 28.652344 28.445312 28.890625 28.824219 L 27.988281 35.007812 L 28.132812 36.003906 C 28.367188 36.574219 28.984375 36.957031 29.605469 37.003906 C 30.316406 36.90625 31.125 36.527344 31.363281 35.765625 L 31.839844 31.25 L 31.980469 31.011719 C 32.886719 31.488281 33.738281 32.058594 34.597656 32.675781 C 36.164062 33.4375 37.019531 35.578125 39.066406 35.195312 C 39.351562 35.054688 39.828125 34.863281 39.921875 34.433594 C 40.109375 33.722656 39.871094 33.054688 39.539062 32.484375 C 37.542969 30.964844 35.5 29.300781 33.503906 27.921875 C 34.835938 26.78125 36.355469 25.878906 37.828125 24.925781 C 38.542969 23.832031 41.585938 24.925781 40.445312 22.644531 C 40.15625 22.167969 39.683594 21.789062 39.207031 21.648438 Z M 44.292969 33.152344 L 44.054688 33.152344 C 43.867188 29.726562 44.628906 26.496094 44.910156 23.167969 C 44.628906 22.550781 44.152344 22.027344 43.535156 21.742188 C 42.773438 21.648438 42.203125 21.933594 41.824219 22.550781 C 40.917969 25.972656 41.109375 29.917969 40.730469 33.628906 C 40.730469 34.148438 41.203125 34.625 41.679688 34.816406 L 41.679688 35.101562 C 36.214844 38.335938 29.320312 38.808594 22.617188 38.238281 C 18.859375 37.667969 15.292969 36.8125 12.253906 34.53125 L 12.203125 34.246094 L 14.296875 28.066406 L 14.535156 28.066406 L 17.578125 35.625 C 18.335938 36.289062 19.097656 36.859375 20.238281 36.621094 C 20.523438 36.386719 21 36.097656 21.046875 35.71875 C 21.285156 30.777344 21.902344 26.070312 23.519531 21.742188 C 23.472656 21.265625 23.042969 20.839844 22.617188 20.601562 C 21.476562 20.171875 20.667969 21.078125 19.953125 21.695312 C 19.335938 23.976562 18.71875 26.210938 18.433594 28.636719 L 18.195312 28.636719 C 17.386719 26.589844 16.386719 24.691406 16.054688 22.457031 C 15.484375 21.835938 14.628906 21.789062 13.914062 21.835938 C 13.34375 21.980469 12.777344 22.457031 12.539062 23.027344 C 11.492188 25.734375 10.875 28.636719 9.734375 31.296875 L 9.449219 31.296875 C 8.640625 29.632812 8.304688 27.160156 9.113281 25.402344 C 12.824219 18.984375 20.429688 18.128906 27.371094 17.699219 C 30.746094 17.699219 34.308594 17.796875 37.351562 18.84375 C 41.15625 19.554688 45.484375 21.171875 47.003906 25.164062 C 47.621094 28.160156 46.816406 31.203125 44.292969 33.152344 Z M 50.285156 25.878906 C 49.667969 22.882812 47.289062 19.933594 44.4375 18.605469 L 44.34375 18.414062 C 45.054688 18.128906 45.71875 18.222656 46.433594 18.320312 C 47.003906 18.320312 47.621094 18.9375 48.050781 18.414062 C 46.625 17.558594 45.054688 17.128906 43.535156 16.464844 C 36.972656 14.847656 29.460938 14.039062 22.378906 15.085938 C 15.582031 16.085938 7.261719 18.792969 5.644531 26.542969 C 5.214844 30.726562 6.832031 34.433594 10.351562 36.859375 C 19.621094 42.800781 34.644531 42.898438 43.960938 37.097656 C 47.90625 34.769531 51.140625 30.679688 50.285156 25.878906 "/>
</g>
</svg>
