<?xml version="1.0" encoding="UTF-8"?>
<svg xmlns="http://www.w3.org/2000/svg" xmlns:xlink="http://www.w3.org/1999/xlink" width="56pt" height="56pt" viewBox="0 0 56 56" version="1.1">
<g id="surface1">
<rect x="0" y="0" width="56" height="56" style="fill:rgb(43.09082%,12.940979%,49.977112%);fill-opacity:1;stroke:none;"/>
<path style=" stroke:none;fill-rule:nonzero;fill:rgb(100%,100%,100%);fill-opacity:1;" d="M 12.421875 44.09375 C 12.324219 40.9375 12.660156 38.214844 12.90625 35.476562 C 13.1875 32.414062 13.789062 29.433594 14.582031 26.476562 C 16.09375 20.84375 18.5 15.632812 22.191406 11.101562 C 23.957031 8.933594 25.878906 6.839844 28.5625 5.699219 C 29.496094 5.304688 30.441406 4.988281 31.476562 5.085938 C 32.6875 5.195312 33.636719 5.992188 34.007812 7.15625 C 34.570312 8.894531 34.222656 10.601562 33.886719 12.316406 C 33.707031 13.226562 33.40625 14.015625 32.496094 14.472656 C 32.132812 14.65625 31.867188 15.039062 31.558594 15.328125 C 30.3125 16.476562 29.035156 17.597656 27.828125 18.785156 C 24.082031 22.472656 20.699219 26.453125 18.007812 30.996094 C 15.949219 34.472656 14.359375 38.148438 13.027344 41.945312 C 12.820312 42.539062 12.679688 43.160156 12.421875 44.09375 "/>
<path style=" stroke:none;fill-rule:nonzero;fill:rgb(100%,100%,100%);fill-opacity:1;" d="M 35.246094 38.433594 C 34.597656 36.171875 33.632812 34.195312 31.683594 32.507812 C 32.03125 32.269531 32.335938 32.074219 32.625 31.859375 C 35.015625 30.066406 35.5625 27.550781 35.226562 24.785156 C 35.089844 23.652344 34.640625 22.546875 34.285156 21.445312 C 33.808594 19.957031 33.683594 18.441406 33.800781 16.898438 C 33.871094 16.007812 34.03125 15.121094 34.152344 14.203125 C 36.113281 12.152344 38.652344 12.144531 41.21875 12.445312 C 42.507812 12.59375 43.445312 13.769531 43.558594 15.101562 C 43.6875 16.546875 43.46875 17.957031 42.972656 19.3125 C 41.894531 22.25 41.28125 25.300781 40.777344 28.371094 C 40.484375 30.144531 40.335938 31.9375 40.101562 33.71875 C 39.921875 35.089844 39.179688 36.207031 38.273438 37.171875 C 37.539062 37.960938 36.527344 38.320312 35.246094 38.433594 "/>
<path style=" stroke:none;fill-rule:nonzero;fill:rgb(100%,100%,100%);fill-opacity:1;" d="M 33.289062 14.980469 C 32.855469 17.628906 32.96875 20.070312 33.816406 22.472656 C 34.375 24.070312 34.628906 25.691406 34.402344 27.421875 C 34.121094 29.597656 32.820312 30.917969 31.121094 32.035156 C 29.183594 30.875 27.191406 30.613281 25.011719 31.09375 C 22.339844 31.683594 20.105469 33.003906 18.121094 34.816406 C 17.507812 35.375 16.925781 35.972656 16.257812 36.628906 C 16.785156 32.339844 25.25 21.605469 33.289062 14.980469 "/>
<path style=" stroke:none;fill-rule:nonzero;fill:rgb(100%,100%,100%);fill-opacity:1;" d="M 13.941406 44.890625 C 16.082031 42.082031 18.792969 40.464844 22.066406 39.847656 C 23.820312 39.519531 25.609375 39.316406 27.390625 39.234375 C 29.707031 39.132812 32.03125 39.210938 34.507812 39.210938 C 34.65625 41.007812 34.316406 42.53125 33.269531 43.875 C 31.722656 45.859375 29.574219 46.617188 27.171875 46.777344 C 25.03125 46.917969 22.957031 46.4375 20.992188 45.660156 C 19.542969 45.09375 18.035156 44.929688 16.550781 44.625 C 16.109375 44.535156 15.617188 44.710938 15.148438 44.761719 C 14.789062 44.800781 14.433594 44.839844 13.941406 44.890625 "/>
<path style=" stroke:none;fill-rule:nonzero;fill:rgb(100%,100%,100%);fill-opacity:1;" d="M 13.726562 45.886719 C 14.277344 45.773438 14.824219 45.597656 15.382812 45.550781 C 17.207031 45.398438 18.960938 45.714844 20.667969 46.367188 C 22.914062 47.226562 25.234375 47.65625 27.652344 47.496094 C 30.34375 47.3125 32.53125 46.160156 34.121094 43.976562 C 35.046875 42.703125 35.355469 41.199219 35.347656 39.332031 C 35.6875 39.835938 35.90625 40.089844 36.042969 40.378906 C 37.492188 43.460938 36.542969 47.113281 34.664062 48.90625 C 32.792969 50.691406 30.535156 51.183594 28.066406 50.820312 C 25.964844 50.511719 23.992188 49.753906 22.101562 48.777344 C 21.585938 48.511719 21.046875 48.28125 20.535156 48.007812 C 18.414062 46.875 16.238281 45.933594 13.726562 45.886719 "/>
<path style=" stroke:none;fill-rule:nonzero;fill:rgb(100%,100%,100%);fill-opacity:1;" d="M 14.652344 42.871094 C 18.851562 35.078125 28.730469 34.277344 33.363281 38.507812 C 30.863281 38.507812 28.476562 38.414062 26.097656 38.527344 C 22.6875 38.6875 19.378906 39.332031 16.511719 41.359375 C 15.882812 41.804688 15.308594 42.335938 14.652344 42.871094 "/>
<path style=" stroke:none;fill-rule:nonzero;fill:rgb(100%,100%,100%);fill-opacity:1;" d="M 14.074219 41.851562 C 15.570312 38.519531 17.667969 35.691406 20.785156 33.691406 C 22.359375 32.683594 24.039062 32.039062 25.894531 31.703125 C 27.339844 31.441406 28.582031 31.773438 30.082031 32.335938 C 29.640625 32.644531 29.386719 32.890625 29.085938 33.015625 C 26.984375 33.863281 24.90625 34.792969 22.757812 35.488281 C 19.136719 36.660156 16.347656 38.863281 14.074219 41.851562 "/>
<path style=" stroke:none;fill-rule:nonzero;fill:rgb(100%,100%,100%);fill-opacity:1;" d="M 34.097656 37.8125 C 31.972656 36.042969 29.414062 35.480469 26.53125 35.042969 C 27.929688 34.382812 29.035156 33.835938 30.15625 33.328125 C 31.03125 32.933594 31.167969 32.949219 31.824219 33.65625 C 32.910156 34.828125 33.691406 36.195312 34.097656 37.8125 "/>
</g>
</svg>
