<?xml version="1.0" encoding="UTF-8"?>
<svg xmlns="http://www.w3.org/2000/svg" xmlns:xlink="http://www.w3.org/1999/xlink" width="56pt" height="56pt" viewBox="0 0 56 56" version="1.1">
<g id="surface1">
<rect x="0" y="0" width="56" height="56" style="fill:rgb(15.46936%,26.301575%,58.189392%);fill-opacity:1;stroke:none;"/>
<path style=" stroke:none;fill-rule:nonzero;fill:rgb(100%,100%,100%);fill-opacity:1;" d="M 46.269531 10.234375 C 38.371094 14.679688 30.472656 19.113281 22.578125 23.5625 C 22.269531 23.742188 21.929688 23.917969 21.558594 23.808594 C 19.601562 23.472656 17.648438 23.101562 15.695312 22.742188 C 15.316406 22.707031 14.886719 22.515625 14.535156 22.742188 C 12.921875 23.632812 11.332031 24.5625 9.730469 25.472656 C 21.839844 32.265625 33.964844 39.027344 46.105469 45.765625 C 46.136719 42.933594 46.125 40.101562 46.121094 37.269531 C 43.355469 36.757812 40.585938 36.265625 37.820312 35.738281 C 40.558594 34.183594 43.316406 32.65625 46.085938 31.160156 C 46.144531 28.40625 46.09375 25.648438 46.109375 22.890625 C 41.84375 25.316406 37.597656 27.765625 33.328125 30.167969 C 32.179688 29.5 31.015625 28.863281 29.875 28.171875 C 35.304688 25.039062 40.816406 22.050781 46.269531 18.960938 C 46.265625 16.054688 46.273438 13.140625 46.269531 10.234375 "/>
</g>
</svg>
