<?xml version="1.0" encoding="UTF-8"?>
<svg xmlns="http://www.w3.org/2000/svg" xmlns:xlink="http://www.w3.org/1999/xlink" width="56pt" height="56pt" viewBox="0 0 56 56" version="1.1">
<g id="surface1">
<rect x="0" y="0" width="56" height="56" style="fill:rgb(95.666504%,95.776367%,96.775818%);fill-opacity:1;stroke:none;"/>
<path style=" stroke:none;fill-rule:nonzero;fill:rgb(30.860901%,74.952698%,35.702515%);fill-opacity:1;" d="M 50.675781 28.003906 C 50.675781 15.34375 40.660156 5.273438 27.996094 5.273438 C 15.335938 5.273438 5.320312 15.34375 5.320312 28.007812 C 5.320312 40.664062 15.339844 50.726562 28 50.726562 C 40.660156 50.730469 50.675781 40.664062 50.675781 28.007812 L 50.679688 28.003906 L 50.675781 28.003906 "/>
<path style=" stroke:none;fill-rule:nonzero;fill:rgb(100%,100%,100%);fill-opacity:1;" d="M 38.019531 31.28125 L 36.742188 31.28125 C 35.46875 31.28125 34.921875 31.964844 34.738281 33.28125 C 34.417969 35.699219 32.507812 37.335938 30 37.335938 C 27.089844 37.335938 25.222656 35.199219 25.222656 32.097656 L 25.222656 24.8125 C 25.222656 24.523438 25.179688 24.265625 25.109375 24.035156 C 25.382812 24.160156 25.710938 24.222656 26.085938 24.222656 L 32.78125 24.222656 C 34.058594 24.222656 34.785156 23.492188 34.785156 22.222656 L 34.785156 21.628906 C 34.785156 20.351562 34.058594 19.625 32.78125 19.625 L 29.003906 19.625 L 29.003906 15.523438 C 29.003906 14.25 28.273438 13.519531 27 13.519531 L 26.085938 13.519531 C 24.8125 13.519531 24.085938 14.25 24.085938 15.523438 L 24.085938 22.21875 C 24.085938 22.507812 24.121094 22.765625 24.199219 22.996094 C 23.921875 22.871094 23.59375 22.808594 23.21875 22.808594 L 16.527344 22.808594 C 15.25 22.808594 14.519531 23.539062 14.519531 24.8125 L 14.519531 25.40625 C 14.519531 26.683594 15.25 27.410156 16.527344 27.410156 L 20.304688 27.410156 L 20.304688 32.09375 C 20.304688 37.96875 24.085938 42.070312 30.007812 42.070312 C 35.519531 42.070312 39.160156 38.558594 39.84375 33.28125 C 40.023438 31.960938 39.15625 31.28125 38.015625 31.28125 L 38.019531 31.28125 "/>
</g>
</svg>
