<?xml version="1.0" encoding="UTF-8"?>
<svg xmlns="http://www.w3.org/2000/svg" xmlns:xlink="http://www.w3.org/1999/xlink" width="56pt" height="56pt" viewBox="0 0 56 56" version="1.1">
<g id="surface1">
<rect x="0" y="0" width="56" height="56" style="fill:rgb(95.66803%,95.779419%,96.777344%);fill-opacity:1;stroke:none;"/>
<path style=" stroke:none;fill-rule:nonzero;fill:rgb(13.583374%,22.05658%,36.044312%);fill-opacity:1;" d="M 42.308594 18.378906 C 41.976562 19.679688 41.125 20.789062 39.949219 21.441406 C 38.785156 22.082031 37.683594 22.828125 36.65625 23.667969 C 35.652344 24.429688 34.585938 25.101562 33.46875 25.683594 C 32.96875 25.960938 32.488281 26.273438 31.976562 26.53125 C 29.871094 27.511719 29.675781 29.800781 30.449219 31.511719 C 30.972656 32.65625 31.617188 33.746094 32.367188 34.761719 C 33.859375 36.867188 35.53125 38.84375 37.363281 40.664062 C 37.441406 40.824219 37.425781 41.011719 37.328125 41.15625 C 36.855469 41.132812 36.394531 40.988281 35.996094 40.734375 C 34.105469 39.554688 32.75 37.878906 31.34375 36.238281 C 30.914062 35.753906 30.542969 35.210938 30.246094 34.632812 C 29.550781 33.175781 28.199219 32.417969 26.890625 31.683594 C 25.507812 30.878906 24.316406 29.78125 23.410156 28.460938 C 22.082031 26.601562 20.820312 24.703125 19.53125 22.816406 C 19.09375 22.097656 18.40625 21.566406 17.601562 21.328125 C 16.644531 21.125 15.875 20.414062 15.597656 19.476562 C 15.445312 18.886719 14.84375 18.53125 14.695312 17.835938 C 15.578125 17.925781 16.453125 18.082031 17.316406 18.304688 C 18.214844 18.539062 18.964844 19.160156 19.363281 20 C 19.648438 20.578125 19.992188 21.128906 20.390625 21.640625 C 21.320312 22.820312 22.691406 23.34375 23.980469 23.933594 C 24.460938 24.152344 24.847656 24.574219 25.546875 24.585938 C 25.726562 22.671875 26.03125 20.753906 27.226562 19.128906 C 28.40625 17.445312 29.871094 15.988281 31.558594 14.820312 L 30.96875 20.128906 C 29.789062 21.464844 29.339844 23.285156 28.679688 25.128906 C 29.144531 25.203125 29.617188 25.03125 29.929688 24.671875 C 30.816406 23.839844 31.699219 23.03125 32.609375 22.199219 C 33.847656 21.058594 35.238281 20.089844 36.738281 19.320312 C 37.566406 18.839844 38.527344 18.632812 39.480469 18.730469 C 40.082031 18.792969 40.683594 18.722656 41.253906 18.519531 C 41.582031 18.367188 41.949219 18.316406 42.308594 18.378906 "/>
<path style=" stroke:none;fill-rule:nonzero;fill:rgb(94.242859%,31.77948%,18.743896%);fill-opacity:1;" d="M 49.023438 34.460938 C 45.46875 46.078125 33.171875 52.617188 21.554688 49.0625 C 14.5625 46.925781 9.09375 41.453125 6.953125 34.460938 L 5.867188 34.460938 C 9.359375 46.679688 22.09375 53.757812 34.316406 50.269531 C 41.960938 48.082031 47.9375 42.105469 50.121094 34.460938 Z M 6.363281 23.972656 C 8.597656 12.03125 20.085938 4.160156 32.027344 6.390625 C 40.953125 8.0625 47.9375 15.042969 49.605469 23.972656 L 50.679688 23.972656 C 48.535156 11.445312 36.640625 3.03125 24.113281 5.175781 C 14.5 6.824219 6.964844 14.355469 5.320312 23.972656 L 6.363281 23.972656 "/>
</g>
</svg>
