<?xml version="1.0" encoding="UTF-8"?>
<svg xmlns="http://www.w3.org/2000/svg" xmlns:xlink="http://www.w3.org/1999/xlink" width="56pt" height="56pt" viewBox="0 0 56 56" version="1.1">
<g id="surface1">
<rect x="0" y="0" width="56" height="56" style="fill:rgb(9.590149%,15.46936%,27.203369%);fill-opacity:1;stroke:none;"/>
<path style=" stroke:none;fill-rule:nonzero;fill:rgb(100%,100%,100%);fill-opacity:1;" d="M 21.496094 25.40625 C 20.917969 25.335938 20.492188 25.3125 20.074219 25.230469 C 17.75 24.773438 16.238281 22.652344 16.546875 20.304688 C 16.851562 18 18.957031 16.316406 21.289062 16.511719 C 23.613281 16.703125 25.375 18.6875 25.308594 21.050781 C 25.277344 22.335938 24.683594 23.335938 23.824219 24.265625 C 20.0625 28.355469 18.652344 33.148438 19.875 38.585938 C 21.5625 46.089844 28.527344 51.195312 36.164062 50.640625 C 43.84375 50.082031 50.019531 44.015625 50.636719 36.429688 C 51.257812 28.75 46.261719 21.769531 38.832031 19.9375 C 38.429688 19.839844 38.023438 19.789062 37.542969 19.707031 C 37.542969 20.507812 37.542969 21.15625 37.542969 21.847656 C 37.871094 21.953125 38.164062 22.054688 38.464844 22.132812 C 45.257812 23.949219 49.433594 30.472656 48.25 37.421875 C 47.117188 44.0625 41.070312 48.824219 34.257812 48.449219 C 27.609375 48.078125 22.144531 42.679688 21.722656 36.042969 C 21.457031 31.890625 22.910156 28.40625 25.757812 25.402344 C 27.980469 23.0625 28.152344 19.644531 26.328125 17.089844 C 24.503906 14.53125 21.128906 13.578125 18.28125 14.820312 C 15.359375 16.089844 13.792969 19.179688 14.429688 22.339844 C 14.972656 25.042969 17.730469 27.550781 20.28125 27.378906 C 20.660156 26.765625 21.046875 26.140625 21.496094 25.40625 "/>
<path style=" stroke:none;fill-rule:nonzero;fill:rgb(100%,100%,100%);fill-opacity:1;" d="M 18.355469 34.113281 C 18.007812 34.011719 17.714844 33.917969 17.414062 33.832031 C 10.917969 31.96875 6.949219 26.113281 7.621094 19.390625 C 8.34375 12.171875 14.855469 6.941406 22.300781 7.601562 C 29.351562 8.230469 34.839844 14.746094 34.269531 21.8125 C 33.996094 25.183594 32.644531 28.03125 30.304688 30.480469 C 27.660156 33.253906 27.828125 37.398438 30.574219 39.945312 C 33.269531 42.445312 37.445312 42.300781 39.949219 39.542969 C 41.796875 37.507812 42.230469 35.109375 41.1875 32.558594 C 40.207031 30.160156 38.347656 28.828125 35.722656 28.472656 C 35.292969 29.183594 34.894531 29.839844 34.449219 30.582031 C 34.988281 30.640625 35.410156 30.664062 35.828125 30.738281 C 38.101562 31.148438 39.71875 33.261719 39.480469 35.480469 C 39.222656 37.84375 37.273438 39.585938 34.910156 39.472656 C 33.070312 39.390625 31.703125 38.476562 31.003906 36.757812 C 30.246094 34.894531 30.699219 33.253906 32.085938 31.808594 C 36.746094 26.960938 37.839844 19.976562 34.902344 13.980469 C 32.066406 8.199219 25.847656 4.761719 19.359375 5.394531 C 12.734375 6.039062 7.246094 10.855469 5.722656 17.355469 C 4.203125 23.851562 6.980469 30.636719 12.625 34.132812 C 14.363281 35.207031 16.226562 35.972656 18.355469 36.28125 C 18.355469 35.535156 18.355469 34.886719 18.355469 34.113281 "/>
<path style=" stroke:none;fill-rule:nonzero;fill:rgb(100%,100%,100%);fill-opacity:1;" d="M 36.09375 27.667969 C 36.625 27.824219 37 27.917969 37.367188 28.039062 C 40.671875 29.117188 42.703125 32.214844 42.433594 35.761719 C 42.183594 39.136719 39.53125 41.898438 36.035156 42.421875 C 32.78125 42.910156 29.4375 41.007812 28.222656 37.863281 C 27.007812 34.722656 27.796875 32.027344 30.058594 29.566406 C 33.65625 25.65625 34.554688 21.074219 32.566406 16.167969 C 30.578125 11.257812 26.703125 8.605469 21.421875 8.3125 C 15.007812 7.953125 9.429688 12.644531 8.433594 19.015625 C 7.457031 25.238281 11.332031 31.285156 17.433594 33.042969 C 17.753906 33.136719 18.09375 33.167969 18.484375 33.242188 C 18.625 32.488281 18.742188 31.847656 18.863281 31.175781 C 18.253906 30.96875 17.734375 30.804688 17.230469 30.613281 C 12.363281 28.773438 9.585938 23.59375 10.773438 18.578125 C 11.984375 13.449219 16.820312 9.996094 21.960938 10.585938 C 27.316406 11.199219 31.257812 15.488281 31.296875 20.78125 C 31.320312 23.792969 30.164062 26.300781 28.085938 28.472656 C 24.59375 32.117188 24.550781 37.777344 27.898438 41.5 C 31.246094 45.230469 36.882812 45.777344 40.871094 42.757812 C 44.867188 39.734375 45.902344 34.15625 43.203125 29.929688 C 41.730469 27.625 39.640625 26.179688 36.863281 25.640625 C 36.597656 26.347656 36.363281 26.957031 36.09375 27.667969 "/>
<path style=" stroke:none;fill-rule:nonzero;fill:rgb(100%,100%,100%);fill-opacity:1;" d="M 19.8125 28.332031 C 19.394531 28.199219 19.027344 28.085938 18.664062 27.96875 C 15.785156 27.023438 13.753906 24.492188 13.53125 21.574219 C 13.261719 18.070312 15.34375 14.921875 18.628906 13.863281 C 21.839844 12.828125 25.355469 14.089844 27.160156 16.917969 C 29.039062 19.867188 28.613281 23.613281 26.105469 26.195312 C 22.234375 30.175781 21.335938 36.007812 23.84375 40.847656 C 26.398438 45.765625 31.683594 48.410156 37.191406 47.519531 C 42.863281 46.601562 47.265625 41.746094 47.648438 35.984375 C 48.042969 30.019531 44.363281 24.65625 38.722656 23.003906 C 38.328125 22.886719 37.914062 22.824219 37.453125 22.722656 C 37.3125 23.492188 37.195312 24.132812 37.074219 24.820312 C 37.570312 24.972656 37.976562 25.085938 38.382812 25.222656 C 43.757812 27.015625 46.746094 32.9375 44.96875 38.269531 C 43.132812 43.761719 37.300781 46.75 31.890625 44.964844 C 26.382812 43.144531 23.421875 37.375 25.175781 31.90625 C 25.738281 30.144531 26.785156 28.71875 28.023438 27.378906 C 30.835938 24.328125 31.339844 19.855469 29.34375 16.246094 C 27.351562 12.644531 23.238281 10.699219 19.203125 11.453125 C 15.09375 12.222656 11.957031 15.449219 11.394531 19.488281 C 10.808594 23.691406 12.851562 27.644531 16.621094 29.511719 C 17.371094 29.882812 18.195312 30.101562 19.019531 30.40625 C 19.207031 29.953125 19.332031 29.667969 19.441406 29.382812 C 19.5625 29.058594 19.671875 28.726562 19.8125 28.332031 "/>
<path style=" stroke:none;fill-rule:nonzero;fill:rgb(100%,100%,100%);fill-opacity:1;" d="M 21.496094 25.40625 C 21.046875 26.140625 20.660156 26.765625 20.28125 27.378906 C 17.730469 27.550781 14.972656 25.042969 14.429688 22.339844 C 13.792969 19.179688 15.359375 16.089844 18.28125 14.820312 C 21.128906 13.578125 24.503906 14.53125 26.328125 17.089844 C 28.152344 19.644531 27.980469 23.0625 25.757812 25.402344 C 22.910156 28.40625 21.457031 31.890625 21.722656 36.042969 C 22.144531 42.679688 27.609375 48.078125 34.257812 48.449219 C 41.070312 48.824219 47.117188 44.0625 48.25 37.421875 C 49.433594 30.472656 45.257812 23.949219 38.464844 22.132812 C 38.164062 22.054688 37.871094 21.953125 37.542969 21.847656 C 37.542969 21.15625 37.542969 20.507812 37.542969 19.707031 C 38.023438 19.789062 38.429688 19.839844 38.832031 19.9375 C 46.261719 21.769531 51.257812 28.75 50.636719 36.429688 C 50.019531 44.015625 43.84375 50.082031 36.164062 50.640625 C 28.527344 51.195312 21.5625 46.089844 19.875 38.585938 C 18.652344 33.148438 20.0625 28.355469 23.824219 24.265625 C 24.683594 23.335938 25.277344 22.335938 25.308594 21.050781 C 25.375 18.6875 23.613281 16.703125 21.289062 16.511719 C 18.957031 16.316406 16.851562 18 16.546875 20.304688 C 16.238281 22.652344 17.75 24.773438 20.074219 25.230469 C 20.492188 25.3125 20.917969 25.335938 21.496094 25.40625 "/>
<path style=" stroke:none;fill-rule:nonzero;fill:rgb(100%,100%,100%);fill-opacity:1;" d="M 18.355469 34.113281 C 18.355469 34.886719 18.355469 35.535156 18.355469 36.28125 C 16.226562 35.972656 14.363281 35.207031 12.625 34.132812 C 6.980469 30.636719 4.203125 23.851562 5.722656 17.355469 C 7.246094 10.855469 12.734375 6.039062 19.359375 5.394531 C 25.847656 4.761719 32.066406 8.199219 34.902344 13.980469 C 37.839844 19.976562 36.746094 26.960938 32.085938 31.808594 C 30.699219 33.253906 30.246094 34.894531 31.003906 36.757812 C 31.703125 38.476562 33.070312 39.390625 34.910156 39.472656 C 37.273438 39.585938 39.222656 37.84375 39.480469 35.480469 C 39.71875 33.261719 38.101562 31.148438 35.828125 30.738281 C 35.410156 30.664062 34.988281 30.640625 34.449219 30.582031 C 34.894531 29.839844 35.292969 29.183594 35.722656 28.472656 C 38.347656 28.828125 40.207031 30.160156 41.1875 32.558594 C 42.230469 35.109375 41.796875 37.507812 39.949219 39.542969 C 37.445312 42.300781 33.269531 42.445312 30.574219 39.945312 C 27.828125 37.398438 27.660156 33.253906 30.304688 30.480469 C 32.644531 28.03125 33.996094 25.183594 34.269531 21.8125 C 34.839844 14.746094 29.351562 8.230469 22.300781 7.601562 C 14.855469 6.941406 8.34375 12.171875 7.621094 19.390625 C 6.949219 26.113281 10.917969 31.96875 17.414062 33.832031 C 17.714844 33.917969 18.007812 34.011719 18.355469 34.113281 "/>
<path style=" stroke:none;fill-rule:nonzero;fill:rgb(100%,100%,100%);fill-opacity:1;" d="M 36.09375 27.667969 C 36.363281 26.957031 36.597656 26.347656 36.863281 25.640625 C 39.640625 26.179688 41.730469 27.625 43.203125 29.929688 C 45.902344 34.15625 44.867188 39.734375 40.871094 42.757812 C 36.882812 45.777344 31.246094 45.230469 27.898438 41.5 C 24.550781 37.777344 24.59375 32.117188 28.085938 28.472656 C 30.164062 26.300781 31.320312 23.792969 31.296875 20.78125 C 31.257812 15.488281 27.316406 11.199219 21.960938 10.585938 C 16.820312 9.996094 11.984375 13.449219 10.773438 18.578125 C 9.585938 23.59375 12.363281 28.773438 17.230469 30.613281 C 17.734375 30.804688 18.253906 30.96875 18.863281 31.175781 C 18.742188 31.847656 18.625 32.488281 18.484375 33.242188 C 18.09375 33.167969 17.753906 33.136719 17.433594 33.042969 C 11.332031 31.285156 7.457031 25.238281 8.433594 19.015625 C 9.429688 12.644531 15.007812 7.953125 21.421875 8.3125 C 26.703125 8.605469 30.578125 11.257812 32.566406 16.167969 C 34.554688 21.074219 33.65625 25.65625 30.058594 29.566406 C 27.796875 32.027344 27.007812 34.722656 28.222656 37.863281 C 29.4375 41.007812 32.78125 42.910156 36.035156 42.421875 C 39.53125 41.898438 42.183594 39.136719 42.433594 35.761719 C 42.703125 32.214844 40.671875 29.117188 37.367188 28.039062 C 37 27.917969 36.625 27.824219 36.09375 27.667969 "/>
<path style=" stroke:none;fill-rule:nonzero;fill:rgb(100%,100%,100%);fill-opacity:1;" d="M 19.8125 28.332031 C 19.671875 28.726562 19.5625 29.058594 19.441406 29.382812 C 19.332031 29.667969 19.207031 29.953125 19.019531 30.40625 C 18.195312 30.101562 17.371094 29.882812 16.621094 29.511719 C 12.851562 27.644531 10.808594 23.691406 11.394531 19.488281 C 11.957031 15.449219 15.09375 12.222656 19.203125 11.453125 C 23.238281 10.699219 27.351562 12.644531 29.34375 16.246094 C 31.339844 19.855469 30.835938 24.328125 28.023438 27.378906 C 26.785156 28.71875 25.738281 30.144531 25.175781 31.90625 C 23.421875 37.375 26.382812 43.144531 31.890625 44.964844 C 37.300781 46.75 43.132812 43.761719 44.96875 38.269531 C 46.746094 32.9375 43.757812 27.015625 38.382812 25.222656 C 37.976562 25.085938 37.570312 24.972656 37.074219 24.820312 C 37.195312 24.132812 37.3125 23.492188 37.453125 22.722656 C 37.914062 22.824219 38.328125 22.886719 38.722656 23.003906 C 44.363281 24.65625 48.042969 30.019531 47.648438 35.984375 C 47.265625 41.746094 42.863281 46.601562 37.191406 47.519531 C 31.683594 48.410156 26.398438 45.765625 23.84375 40.847656 C 21.335938 36.007812 22.234375 30.175781 26.105469 26.195312 C 28.613281 23.613281 29.039062 19.867188 27.160156 16.917969 C 25.355469 14.089844 21.839844 12.828125 18.628906 13.863281 C 15.34375 14.921875 13.261719 18.070312 13.53125 21.574219 C 13.753906 24.492188 15.785156 27.023438 18.664062 27.96875 C 19.027344 28.085938 19.394531 28.199219 19.8125 28.332031 "/>
</g>
</svg>
