<?xml version="1.0" encoding="UTF-8"?>
<svg xmlns="http://www.w3.org/2000/svg" xmlns:xlink="http://www.w3.org/1999/xlink" width="56pt" height="56pt" viewBox="0 0 56 56" version="1.1">
<g id="surface1">
<rect x="0" y="0" width="56" height="56" style="fill:rgb(83.276367%,11.769104%,14.619446%);fill-opacity:1;stroke:none;"/>
<path style=" stroke:none;fill-rule:nonzero;fill:rgb(100%,100%,100%);fill-opacity:1;" d="M 42.734375 48.085938 C 42.300781 48.019531 42.035156 47.988281 41.769531 47.9375 C 40.417969 47.691406 39.125 47.257812 37.847656 46.765625 C 35.015625 45.667969 32.332031 44.324219 30.050781 42.269531 C 28.324219 40.71875 26.871094 38.960938 25.832031 36.871094 C 25.171875 35.550781 24.816406 34.140625 24.503906 32.710938 C 24.078125 30.730469 24.046875 28.746094 24.523438 26.78125 C 25.3125 23.539062 27.023438 20.914062 29.832031 19.054688 C 32.015625 17.605469 34.433594 17.125 37.003906 17.398438 C 38.675781 17.578125 40.257812 18.117188 41.765625 18.871094 C 41.976562 18.980469 42.199219 19.070312 42.402344 19.164062 C 42.457031 19.078125 42.476562 19.058594 42.480469 19.039062 C 42.492188 18.972656 42.507812 18.902344 42.507812 18.832031 C 42.566406 15.851562 41.328125 13.597656 38.738281 12.101562 C 38.503906 11.964844 38.261719 11.839844 38.042969 11.71875 C 38.027344 10.839844 38.285156 10.113281 38.789062 9.421875 C 37.613281 8.550781 36.339844 8.042969 34.9375 7.875 C 32.746094 7.609375 30.804688 8.1875 29.207031 9.714844 C 28.390625 9.15625 28.242188 8.976562 26.855469 6.878906 C 24.257812 8.097656 23.515625 10.34375 23.484375 13.003906 C 22.183594 12.421875 20.886719 12.089844 19.453125 12.308594 C 19.164062 13.75 19.476562 15.058594 20.003906 16.394531 C 18.742188 16.425781 17.570312 16.605469 16.558594 17.464844 C 16.785156 17.609375 16.972656 17.738281 17.167969 17.851562 C 18.304688 18.507812 19.292969 19.34375 20.167969 20.316406 C 20.816406 21.03125 21.296875 21.851562 21.6875 22.722656 C 22.046875 23.519531 21.847656 24.347656 21.203125 24.945312 C 20.59375 25.507812 19.796875 25.597656 19.011719 25.183594 C 18.503906 24.921875 18.128906 24.515625 17.828125 24.035156 C 17.597656 23.660156 17.367188 23.28125 17.109375 22.925781 C 16.335938 21.859375 15.347656 21.09375 14.050781 20.753906 C 12.808594 20.429688 11.617188 20.488281 10.484375 21.132812 C 10.253906 21.261719 10.050781 21.445312 9.796875 21.632812 C 9.9375 21.742188 10.003906 21.804688 10.078125 21.851562 C 11.148438 22.511719 11.855469 23.460938 12.324219 24.609375 C 12.832031 25.84375 13.0625 27.140625 13.226562 28.457031 C 13.363281 29.535156 13.4375 30.636719 13.722656 31.675781 C 15.089844 36.628906 17.539062 40.914062 21.582031 44.203125 C 23.5625 45.808594 25.714844 47.117188 28.097656 48.023438 C 31.15625 49.183594 34.308594 49.703125 37.578125 49.417969 C 39.253906 49.269531 40.875 48.902344 42.429688 48.25 C 42.492188 48.226562 42.550781 48.1875 42.734375 48.085938 Z M 45.785156 47.480469 C 45.457031 47.6875 45.136719 47.90625 44.796875 48.097656 C 42.878906 49.179688 40.828125 49.851562 38.636719 50.136719 C 37.035156 50.34375 35.433594 50.34375 33.84375 50.210938 C 31.617188 50.019531 29.46875 49.4375 27.410156 48.566406 C 23.980469 47.121094 20.992188 45.039062 18.480469 42.292969 C 16.710938 40.355469 15.382812 38.128906 14.363281 35.722656 C 13.921875 34.679688 13.515625 33.609375 13.238281 32.511719 C 12.917969 31.238281 12.730469 29.925781 12.527344 28.621094 C 12.335938 27.386719 12.101562 26.15625 11.652344 24.984375 C 11.351562 24.203125 10.957031 23.472656 10.277344 22.929688 C 9.6875 22.464844 9.019531 22.257812 8.210938 22.234375 C 8.269531 22.113281 8.289062 22.035156 8.332031 21.972656 C 9.539062 20.273438 11.179688 19.441406 13.378906 19.824219 C 15.484375 20.195312 17.0625 21.269531 18.15625 23.085938 C 18.324219 23.363281 18.484375 23.648438 18.667969 23.914062 C 18.894531 24.25 19.203125 24.507812 19.605469 24.589844 C 20.425781 24.757812 21.128906 24.082031 20.980469 23.21875 C 20.910156 22.820312 20.75 22.414062 20.535156 22.066406 C 19.34375 20.152344 17.671875 18.800781 15.601562 17.929688 C 15.429688 17.859375 15.257812 17.792969 15.085938 17.71875 C 15.042969 17.703125 15.011719 17.667969 14.933594 17.609375 C 15.285156 17.082031 15.796875 16.738281 16.324219 16.433594 C 16.929688 16.085938 17.570312 15.820312 18.285156 15.777344 C 18.488281 15.765625 18.683594 15.679688 18.917969 15.621094 C 18.476562 14.261719 18.359375 12.925781 18.851562 11.570312 C 20.097656 11.257812 21.324219 11.445312 22.601562 11.730469 C 22.679688 11.351562 22.75 10.996094 22.828125 10.644531 C 23.402344 8.148438 24.898438 6.5 27.359375 5.746094 C 27.441406 5.722656 27.53125 5.714844 27.617188 5.699219 C 27.808594 7.015625 28.257812 7.933594 29.066406 8.621094 C 29.855469 8.058594 30.699219 7.542969 31.671875 7.273438 C 32.625 7.003906 33.59375 6.960938 34.570312 7.039062 C 35.570312 7.121094 36.535156 7.375 37.457031 7.773438 C 38.34375 8.15625 39.195312 8.621094 39.863281 9.355469 C 39.527344 10 38.835938 10.425781 39.023438 11.320312 C 42.433594 13.394531 43.804688 16.476562 43.179688 20.492188 C 42.296875 20.074219 41.472656 19.664062 40.632812 19.285156 C 39.070312 18.578125 37.433594 18.175781 35.714844 18.183594 C 34.28125 18.195312 32.917969 18.53125 31.601562 19.09375 C 28.445312 20.4375 26.628906 22.941406 25.601562 26.097656 C 24.929688 28.164062 24.886719 30.285156 25.265625 32.417969 C 25.851562 35.714844 27.40625 38.53125 29.609375 40.992188 C 30.890625 42.421875 32.449219 43.519531 34.179688 44.359375 C 36.609375 45.539062 39.144531 46.4375 41.78125 47 C 43.085938 47.273438 44.40625 47.507812 45.785156 47.480469 "/>
<path style=" stroke:none;fill-rule:nonzero;fill:rgb(100%,100%,100%);fill-opacity:1;" d="M 18.40625 17.613281 C 19.664062 17.203125 20.765625 17.402344 21.886719 17.753906 C 21.394531 17.0625 20.882812 16.402344 20.582031 15.609375 C 20.28125 14.820312 20.171875 14.007812 20.273438 13.117188 C 21.15625 13.097656 22 13.199219 22.757812 13.621094 C 23.472656 14.019531 24.148438 14.492188 24.902344 14.976562 C 24.292969 13.390625 24.101562 11.839844 24.730469 10.269531 C 25.074219 9.410156 25.683594 8.703125 26.542969 8.167969 C 27.347656 9.207031 28.261719 10.148438 29.46875 10.878906 C 30.527344 9.480469 31.921875 8.722656 33.679688 8.679688 C 35.054688 8.648438 36.347656 8.898438 37.5625 9.648438 C 37.335938 10.488281 37.070312 11.308594 37.257812 12.238281 C 37.519531 12.367188 37.808594 12.5 38.09375 12.648438 C 39.894531 13.5625 41.054688 14.996094 41.570312 16.945312 C 41.644531 17.230469 41.648438 17.53125 41.683594 17.804688 C 40.71875 17.476562 39.824219 17.105469 38.894531 16.871094 C 36.699219 16.324219 34.476562 16.273438 32.289062 16.886719 C 29.277344 17.730469 27.082031 19.660156 25.460938 22.273438 C 24.484375 23.851562 23.933594 25.601562 23.667969 27.429688 C 23.558594 28.164062 23.3125 28.800781 22.847656 29.375 C 22.367188 29.972656 21.863281 30.542969 21.253906 31.019531 C 19.21875 32.609375 16.84375 31.03125 16.371094 29.464844 C 16.078125 28.488281 16.246094 27.566406 16.984375 26.820312 C 17.6875 26.105469 18.550781 25.960938 19.488281 26.230469 C 20.65625 26.566406 21.667969 26.179688 22.253906 25.113281 C 22.695312 24.308594 22.800781 23.460938 22.464844 22.570312 C 21.867188 20.988281 20.917969 19.667969 19.621094 18.59375 C 19.25 18.285156 18.871094 17.988281 18.40625 17.613281 "/>
<path style=" stroke:none;fill-rule:nonzero;fill:rgb(100%,100%,100%);fill-opacity:1;" d="M 39.527344 48.125 C 38.960938 48.234375 38.5625 48.332031 38.15625 48.390625 C 34.945312 48.839844 31.804688 48.53125 28.773438 47.398438 C 23.304688 45.351562 19.234375 41.675781 16.464844 36.554688 C 15.503906 34.773438 14.773438 32.894531 14.417969 30.894531 C 14.257812 30.003906 14.214844 29.09375 14.054688 28.207031 C 13.875 27.207031 13.667969 26.207031 13.398438 25.222656 C 13.078125 24.0625 12.441406 23.070312 11.617188 22.191406 C 11.476562 22.039062 11.335938 21.890625 11.1875 21.730469 C 14.285156 20.929688 16.101562 22.164062 17.292969 25.320312 C 17.148438 25.429688 16.992188 25.554688 16.832031 25.675781 C 16.046875 26.277344 15.457031 27.007812 15.363281 28.023438 C 15.328125 28.40625 15.351562 28.816406 15.441406 29.191406 C 15.722656 30.394531 16.402344 31.355469 17.453125 32.007812 C 19.101562 33.03125 21.097656 32.660156 22.472656 31.113281 C 22.761719 30.789062 23.019531 30.433594 23.34375 30.03125 C 23.355469 30.214844 23.367188 30.320312 23.367188 30.425781 C 23.375 32.648438 23.953125 34.734375 24.914062 36.71875 C 26.777344 40.578125 29.601562 43.53125 33.339844 45.628906 C 34.964844 46.542969 36.683594 47.226562 38.457031 47.78125 C 38.757812 47.875 39.058594 47.976562 39.527344 48.125 "/>
</g>
</svg>
