<?xml version="1.0" encoding="UTF-8"?>
<svg xmlns="http://www.w3.org/2000/svg" xmlns:xlink="http://www.w3.org/1999/xlink" width="56pt" height="56pt" viewBox="0 0 56 56" version="1.1">
<g id="surface1">
<rect x="0" y="0" width="56" height="56" style="fill:rgb(13.699341%,25.996399%,11.71875%);fill-opacity:1;stroke:none;"/>
<path style=" stroke:none;fill-rule:nonzero;fill:rgb(100%,100%,100%);fill-opacity:1;" d="M 20.074219 18.800781 C 22.433594 18.433594 24.820312 18.269531 27.203125 18.191406 C 27.753906 18.101562 28.308594 18.121094 28.863281 18.109375 C 30.003906 18.121094 31.144531 18.0625 32.277344 18.191406 C 39.507812 18.410156 46.738281 19.171875 53.820312 20.675781 C 52.707031 20.648438 51.597656 20.519531 50.484375 20.488281 C 45.664062 20.265625 40.816406 20.519531 36.058594 21.351562 C 35.398438 21.460938 34.761719 21.660156 34.117188 21.835938 C 32.304688 22.359375 30.496094 22.945312 28.8125 23.796875 C 27.984375 24.238281 27.148438 24.738281 26.570312 25.492188 C 26.398438 25.738281 26.179688 26.03125 26.28125 26.347656 C 26.425781 26.695312 26.800781 26.851562 27.128906 26.980469 C 28.164062 27.339844 29.265625 27.429688 30.351562 27.53125 C 33.777344 27.875 37.203125 28.234375 40.621094 28.644531 C 42.992188 28.941406 45.367188 29.21875 47.714844 29.675781 C 48.234375 29.800781 48.792969 29.863281 49.25 30.167969 C 48.050781 30.378906 46.832031 30.46875 45.625 30.613281 C 40.164062 31.191406 34.691406 31.589844 29.214844 31.949219 C 28.6875 32.003906 28.132812 32.078125 27.671875 32.367188 C 27.355469 32.566406 27.167969 32.996094 27.328125 33.351562 C 27.476562 33.683594 27.792969 33.902344 28.101562 34.070312 C 28.875 34.480469 29.734375 34.691406 30.585938 34.890625 C 32.382812 35.277344 34.210938 35.488281 36.039062 35.664062 C 38.464844 35.898438 40.898438 36.027344 43.328125 36.140625 C 43.089844 36.402344 42.734375 36.503906 42.40625 36.609375 C 41.425781 36.894531 40.40625 37.035156 39.398438 37.171875 C 36.570312 37.527344 33.722656 37.707031 30.875 37.863281 C 28.804688 37.914062 26.730469 37.914062 24.660156 37.761719 C 23.203125 37.640625 21.734375 37.472656 20.339844 37.019531 C 19.691406 36.796875 19.03125 36.507812 18.554688 35.992188 C 18.238281 35.652344 18.074219 35.175781 18.132812 34.710938 C 18.214844 34.046875 18.582031 33.46875 18.980469 32.949219 C 19.40625 32.410156 20.039062 32.105469 20.65625 31.84375 C 15.839844 31.679688 11.019531 31.539062 6.214844 31.09375 C 5.222656 30.992188 4.226562 30.886719 3.246094 30.671875 C 2.867188 30.578125 2.429688 30.5 2.179688 30.164062 C 2.617188 29.78125 3.199219 29.65625 3.75 29.519531 C 5.015625 29.21875 6.304688 29.027344 7.59375 28.839844 C 10.425781 28.441406 13.269531 28.148438 16.113281 27.847656 C 14.609375 27.242188 13.085938 26.652344 11.710938 25.78125 C 11.085938 25.375 10.460938 24.921875 10.050781 24.285156 C 9.773438 23.871094 9.695312 23.308594 9.921875 22.851562 C 10.1875 22.296875 10.699219 21.914062 11.207031 21.589844 C 12.210938 20.972656 13.324219 20.5625 14.441406 20.199219 C 16.285156 19.613281 18.175781 19.175781 20.074219 18.800781 "/>
</g>
</svg>
