<?xml version="1.0" encoding="UTF-8"?>
<svg xmlns="http://www.w3.org/2000/svg" xmlns:xlink="http://www.w3.org/1999/xlink" width="56pt" height="56pt" viewBox="0 0 56 56" version="1.1">
<g id="surface1">
<rect x="0" y="0" width="56" height="56" style="fill:rgb(88.078308%,11.468506%,14.466858%);fill-opacity:1;stroke:none;"/>
<path style=" stroke:none;fill-rule:nonzero;fill:rgb(100%,100%,100%);fill-opacity:1;" d="M 8.320312 9.839844 C 8.925781 9.839844 9.539062 9.824219 10.144531 9.847656 C 10.765625 9.871094 11.386719 9.898438 12.003906 9.984375 C 12.445312 10.042969 12.894531 10.085938 13.335938 10.160156 C 13.945312 10.261719 14.554688 10.386719 15.152344 10.546875 C 15.890625 10.742188 16.617188 10.972656 17.324219 11.253906 C 18.324219 11.65625 19.285156 12.136719 20.199219 12.714844 C 20.863281 13.132812 21.496094 13.59375 22.097656 14.097656 C 22.921875 14.792969 23.703125 15.539062 24.386719 16.382812 C 25.152344 17.324219 25.902344 18.28125 26.65625 19.234375 C 27.347656 20.113281 28.035156 20.996094 28.722656 21.878906 C 29.265625 22.574219 29.804688 23.273438 30.34375 23.964844 C 31.035156 24.847656 31.726562 25.726562 32.414062 26.609375 C 33.097656 27.480469 33.773438 28.351562 34.457031 29.222656 C 35.007812 29.929688 35.558594 30.632812 36.109375 31.335938 C 36.734375 32.136719 37.355469 32.941406 37.980469 33.742188 C 38.484375 34.386719 38.992188 35.027344 39.496094 35.667969 C 40.015625 36.332031 40.53125 36.996094 41.046875 37.660156 C 41.75 38.558594 42.449219 39.457031 43.148438 40.351562 C 44.023438 41.472656 44.898438 42.59375 45.769531 43.714844 C 46.359375 44.46875 46.953125 45.222656 47.542969 45.976562 C 47.585938 46.03125 47.625 46.085938 47.679688 46.164062 C 37.855469 46.164062 28.066406 46.164062 18.230469 46.164062 C 18.449219 46.042969 18.632812 45.945312 18.8125 45.84375 C 19.847656 45.269531 20.828125 44.617188 21.757812 43.886719 C 22.617188 43.207031 23.417969 42.464844 24.15625 41.65625 C 25.03125 40.699219 25.796875 39.660156 26.453125 38.539062 C 27.007812 37.585938 27.46875 36.589844 27.835938 35.546875 C 28.078125 34.859375 28.277344 34.160156 28.425781 33.449219 C 28.53125 32.917969 28.617188 32.382812 28.691406 31.847656 C 28.738281 31.511719 28.761719 31.167969 28.777344 30.828125 C 28.796875 30.402344 28.820312 29.976562 28.808594 29.550781 C 28.796875 29.019531 28.761719 28.484375 28.714844 27.953125 C 28.671875 27.484375 28.613281 27.015625 28.539062 26.550781 C 28.421875 25.835938 28.261719 25.125 28.0625 24.421875 C 27.84375 23.636719 27.589844 22.859375 27.285156 22.101562 C 27.15625 21.777344 27.03125 21.453125 26.882812 21.140625 C 26.78125 20.925781 26.644531 20.726562 26.519531 20.527344 C 26.070312 19.8125 25.59375 19.117188 25.085938 18.445312 C 24.617188 17.832031 24.117188 17.242188 23.59375 16.675781 C 22.699219 15.710938 21.71875 14.84375 20.65625 14.074219 C 20.019531 13.617188 19.355469 13.203125 18.664062 12.832031 C 18.148438 12.558594 17.625 12.304688 17.085938 12.085938 C 16.621094 11.898438 16.152344 11.730469 15.679688 11.570312 C 14.945312 11.316406 14.195312 11.136719 13.433594 10.988281 C 12.589844 10.824219 11.742188 10.710938 10.886719 10.652344 C 10.175781 10.601562 9.464844 10.570312 8.753906 10.585938 C 8.691406 10.585938 8.628906 10.585938 8.550781 10.585938 C 8.472656 10.484375 8.476562 10.34375 8.429688 10.21875 C 8.394531 10.117188 8.355469 10.019531 8.320312 9.917969 C 8.320312 9.890625 8.320312 9.867188 8.320312 9.839844 "/>
<path style=" stroke:none;fill-rule:nonzero;fill:rgb(100%,100%,100%);fill-opacity:1;" d="M 18.609375 36.648438 C 18.527344 37.621094 18.445312 38.589844 18.359375 39.582031 C 17.484375 39.546875 16.625 39.519531 15.765625 39.488281 C 15.1875 37.207031 14.613281 34.941406 14.039062 32.667969 C 14.191406 32.535156 14.339844 32.40625 14.492188 32.273438 C 15.863281 33.726562 17.226562 35.179688 18.609375 36.648438 "/>
<path style=" stroke:none;fill-rule:nonzero;fill:rgb(100%,100%,100%);fill-opacity:1;" d="M 14.21875 18.628906 C 13.617188 20.457031 13.019531 22.277344 12.414062 24.113281 C 12.21875 24.074219 12.03125 24.035156 11.847656 24 C 11.3125 21.875 10.78125 19.765625 10.242188 17.640625 C 10.867188 17.199219 11.5 16.769531 12.140625 16.328125 C 12.839844 17.101562 13.527344 17.863281 14.21875 18.628906 "/>
<path style=" stroke:none;fill-rule:nonzero;fill:rgb(100%,100%,100%);fill-opacity:1;" d="M 22.027344 34.53125 C 21.277344 34.863281 20.535156 35.191406 19.777344 35.527344 C 18.332031 34.015625 16.890625 32.507812 15.433594 30.984375 C 15.519531 30.789062 15.601562 30.597656 15.683594 30.398438 C 17.539062 30.953125 19.375 31.5 21.222656 32.050781 C 21.488281 32.878906 21.757812 33.695312 22.027344 34.53125 "/>
<path style=" stroke:none;fill-rule:nonzero;fill:rgb(100%,100%,100%);fill-opacity:1;" d="M 14.417969 25.230469 C 14.15625 25.03125 13.921875 24.851562 13.683594 24.667969 C 14.367188 22.796875 15.046875 20.925781 15.734375 19.042969 C 16.578125 19.042969 17.398438 19.042969 18.242188 19.042969 C 18.253906 19.871094 18.265625 20.6875 18.273438 21.511719 C 16.988281 22.75 15.707031 23.988281 14.417969 25.230469 "/>
<path style=" stroke:none;fill-rule:nonzero;fill:rgb(100%,100%,100%);fill-opacity:1;" d="M 19.339844 22.675781 C 20.15625 22.878906 20.945312 23.078125 21.757812 23.277344 C 21.433594 24.136719 21.121094 24.976562 20.804688 25.824219 C 19.085938 26.265625 17.378906 26.703125 15.667969 27.140625 C 15.585938 26.949219 15.503906 26.765625 15.417969 26.5625 C 16.71875 25.269531 18.027344 23.972656 19.339844 22.675781 "/>
<path style=" stroke:none;fill-rule:nonzero;fill:rgb(100%,100%,100%);fill-opacity:1;" d="M 21.304688 27.207031 C 21.910156 27.734375 22.515625 28.265625 23.140625 28.808594 C 22.53125 29.410156 21.9375 30 21.332031 30.597656 C 19.546875 30.058594 17.761719 29.523438 15.96875 28.984375 C 15.917969 28.828125 15.957031 28.667969 15.933594 28.488281 C 16.53125 28.328125 17.132812 28.203125 17.722656 28.054688 C 18.3125 27.910156 18.90625 27.777344 19.496094 27.636719 C 20.09375 27.496094 20.691406 27.351562 21.304688 27.207031 "/>
<path style=" stroke:none;fill-rule:nonzero;fill:rgb(100%,100%,100%);fill-opacity:1;" d="M 17.117188 44.839844 C 16.800781 43.597656 16.492188 42.378906 16.183594 41.15625 C 16.339844 41.113281 17.933594 41.132812 18.359375 41.183594 C 18.808594 41.925781 19.265625 42.679688 19.730469 43.449219 C 18.902344 43.996094 18.039062 44.445312 17.117188 44.839844 "/>
<path style=" stroke:none;fill-rule:nonzero;fill:rgb(100%,100%,100%);fill-opacity:1;" d="M 8.859375 12.167969 C 9.796875 12.167969 10.703125 12.234375 11.628906 12.339844 C 11.613281 13.007812 11.597656 13.65625 11.585938 14.324219 C 11 14.816406 10.40625 15.3125 9.789062 15.835938 C 9.476562 14.601562 9.171875 13.402344 8.859375 12.167969 "/>
<path style=" stroke:none;fill-rule:nonzero;fill:rgb(100%,100%,100%);fill-opacity:1;" d="M 23.023438 36.207031 C 23.6875 36.675781 24.34375 37.144531 25.019531 37.625 C 24.652344 38.339844 24.222656 39 23.757812 39.644531 C 23.632812 39.574219 21.359375 37.210938 21.203125 36.984375 C 21.8125 36.722656 22.414062 36.46875 23.023438 36.207031 "/>
<path style=" stroke:none;fill-rule:nonzero;fill:rgb(100%,100%,100%);fill-opacity:1;" d="M 14.886719 16.601562 C 14.34375 15.964844 13.828125 15.359375 13.304688 14.75 C 13.371094 14.054688 13.390625 13.363281 13.476562 12.652344 C 14.324219 12.832031 15.136719 13.058594 15.953125 13.359375 C 15.597656 14.441406 15.25 15.5 14.886719 16.601562 "/>
<path style=" stroke:none;fill-rule:nonzero;fill:rgb(100%,100%,100%);fill-opacity:1;" d="M 23.375 18.679688 C 23.894531 19.339844 24.351562 20.027344 24.765625 20.769531 C 24.039062 21.160156 23.316406 21.53125 22.589844 21.90625 C 22.003906 21.675781 21.421875 21.445312 20.820312 21.207031 C 21.679688 20.359375 22.523438 19.523438 23.375 18.679688 "/>
<path style=" stroke:none;fill-rule:nonzero;fill:rgb(100%,100%,100%);fill-opacity:1;" d="M 18.269531 17.238281 C 17.652344 17.226562 17.046875 17.242188 16.445312 17.191406 C 16.457031 17.039062 17.429688 14.335938 17.5625 14.070312 C 17.808594 14.097656 19.324219 14.945312 19.597656 15.214844 C 19.160156 15.882812 18.722656 16.550781 18.269531 17.238281 "/>
<path style=" stroke:none;fill-rule:nonzero;fill:rgb(100%,100%,100%);fill-opacity:1;" d="M 22.660156 40.96875 C 22.164062 41.507812 21.644531 42 21.089844 42.453125 C 20.984375 42.355469 19.738281 40.398438 19.636719 40.171875 C 19.851562 39.617188 20.074219 39.050781 20.292969 38.480469 C 20.421875 38.558594 22.382812 40.617188 22.660156 40.96875 "/>
<path style=" stroke:none;fill-rule:nonzero;fill:rgb(100%,100%,100%);fill-opacity:1;" d="M 26.773438 32.234375 C 25.640625 31.898438 24.523438 31.558594 23.402344 31.222656 C 23.460938 31.09375 24.359375 30.03125 24.582031 29.824219 C 25.378906 29.914062 26.183594 30.003906 26.984375 30.09375 C 27.023438 30.382812 26.871094 31.957031 26.773438 32.234375 "/>
<path style=" stroke:none;fill-rule:nonzero;fill:rgb(100%,100%,100%);fill-opacity:1;" d="M 25.835938 35.800781 C 25.058594 35.261719 24.296875 34.734375 23.539062 34.210938 C 23.503906 33.996094 23.527344 33.007812 23.574219 32.757812 C 24.550781 33.046875 25.53125 33.339844 26.503906 33.628906 C 26.46875 33.992188 26.023438 35.441406 25.835938 35.800781 "/>
<path style=" stroke:none;fill-rule:nonzero;fill:rgb(100%,100%,100%);fill-opacity:1;" d="M 22.933594 25.277344 C 22.976562 24.78125 23.019531 24.308594 23.0625 23.824219 C 23.917969 23.40625 24.761719 22.96875 25.636719 22.546875 C 25.898438 23.167969 26.113281 23.773438 26.292969 24.417969 C 25.171875 24.703125 24.066406 24.988281 22.933594 25.277344 "/>
<path style=" stroke:none;fill-rule:nonzero;fill:rgb(100%,100%,100%);fill-opacity:1;" d="M 24.710938 27.957031 C 24.277344 27.546875 23.851562 27.148438 23.429688 26.757812 C 23.4375 26.730469 23.4375 26.726562 23.441406 26.71875 C 23.445312 26.714844 23.445312 26.707031 23.453125 26.703125 C 24.515625 26.449219 25.578125 26.191406 26.652344 25.933594 C 26.761719 26.273438 26.785156 26.613281 26.839844 26.945312 C 26.894531 27.273438 26.914062 27.609375 26.953125 27.964844 C 26.195312 27.96875 25.460938 27.960938 24.710938 27.957031 "/>
<path style=" stroke:none;fill-rule:nonzero;fill:rgb(100%,100%,100%);fill-opacity:1;" d="M 19.785156 17.984375 C 20.246094 17.441406 20.695312 16.90625 21.15625 16.363281 C 21.601562 16.734375 22.003906 17.121094 22.398438 17.539062 C 21.5625 18.34375 20.730469 19.144531 19.882812 19.964844 C 19.871094 19.914062 19.863281 19.894531 19.859375 19.871094 C 19.84375 19.394531 19.828125 18.917969 19.8125 18.441406 C 19.804688 18.292969 19.792969 18.148438 19.785156 17.984375 "/>
</g>
</svg>
