<?xml version="1.0" encoding="UTF-8"?>
<svg xmlns="http://www.w3.org/2000/svg" xmlns:xlink="http://www.w3.org/1999/xlink" width="57.11pt" height="56pt" viewBox="0 0 57.11 56" version="1.1">
<defs>
<clipPath id="clip1">
  <path d="M 57 14 L 57.109375 14 L 57.109375 15 L 57 15 Z M 57 14 "/>
</clipPath>
</defs>
<g id="surface1">
<path style=" stroke:none;fill-rule:nonzero;fill:rgb(95.66803%,95.779419%,96.777344%);fill-opacity:1;" d="M 56.554688 56 L 0.554688 56 L 0.554688 0 L 56.554688 0 L 56.554688 56 "/>
<path style=" stroke:none;fill-rule:nonzero;fill:rgb(13.729858%,12.159729%,12.548828%);fill-opacity:1;" d="M 19.210938 18.089844 C 19.242188 18.101562 19.277344 18.113281 19.253906 18.105469 C 19.273438 18.121094 19.246094 18.097656 19.222656 18.078125 L 19.210938 18.089844 "/>
<path style=" stroke:none;fill-rule:nonzero;fill:rgb(13.729858%,12.159729%,12.548828%);fill-opacity:1;" d="M 19.019531 18.003906 C 19.082031 18.035156 19.148438 18.0625 19.210938 18.089844 L 19.222656 18.078125 C 19.160156 18.050781 19.09375 18.023438 19.03125 17.992188 L 19.019531 18.003906 "/>
<g clip-path="url(#clip1)" clip-rule="nonzero">
<path style=" stroke:none;fill-rule:nonzero;fill:rgb(13.729858%,12.159729%,12.548828%);fill-opacity:1;" d="M 57.109375 14.707031 C 57.101562 14.703125 57.09375 14.703125 57.085938 14.703125 C 57.089844 14.707031 57.097656 14.710938 57.101562 14.714844 L 57.109375 14.707031 "/>
</g>
<path style=" stroke:none;fill-rule:nonzero;fill:rgb(91.822815%,92.625427%,5.783081%);fill-opacity:1;" d="M 23.351562 21.226562 C 23.445312 21.359375 23.535156 21.492188 23.628906 21.621094 C 23.617188 21.636719 23.59375 21.65625 23.597656 21.664062 C 23.683594 21.832031 23.730469 22.027344 23.914062 22.125 L 23.910156 22.121094 C 23.925781 22.183594 23.925781 22.253906 23.953125 22.308594 C 24.121094 22.679688 24.292969 23.046875 24.46875 23.417969 C 24.734375 24.234375 24.941406 25.0625 24.917969 25.933594 C 24.902344 26.164062 24.855469 26.398438 24.867188 26.628906 C 24.890625 27.003906 24.796875 27.359375 24.707031 27.71875 C 24.53125 28.417969 24.277344 29.082031 23.90625 29.707031 C 23.464844 30.445312 22.949219 31.117188 22.289062 31.679688 C 21.515625 32.347656 20.644531 32.839844 19.695312 33.191406 C 19.054688 33.425781 18.382812 33.542969 17.707031 33.597656 C 16.90625 33.667969 16.105469 33.597656 15.324219 33.40625 C 14.316406 33.160156 13.382812 32.769531 12.535156 32.15625 C 11.90625 31.699219 11.351562 31.171875 10.871094 30.5625 C 10.261719 29.792969 9.835938 28.929688 9.578125 27.980469 C 9.449219 27.507812 9.320312 27.027344 9.34375 26.527344 C 9.347656 26.472656 9.320312 26.417969 9.3125 26.363281 C 9.28125 26.097656 9.277344 25.832031 9.308594 25.59375 C 9.570312 25.535156 9.792969 25.484375 10.019531 25.433594 C 10.324219 25.289062 10.625 25.347656 10.90625 25.496094 C 11.183594 25.648438 11.460938 25.640625 11.738281 25.523438 C 11.914062 25.445312 12.078125 25.335938 12.242188 25.230469 C 12.578125 25.011719 12.925781 24.894531 13.328125 25.023438 C 13.355469 25.03125 13.386719 25.015625 13.421875 25.011719 C 13.320312 24.789062 13 24.769531 12.984375 24.480469 C 13.148438 24.382812 13.324219 24.359375 13.5 24.355469 C 13.695312 24.347656 13.890625 24.339844 14.085938 24.34375 C 14.832031 24.351562 15.578125 24.355469 16.324219 24.382812 C 16.851562 24.402344 17.382812 24.46875 17.910156 24.484375 C 18.339844 24.503906 18.765625 24.535156 19.1875 24.625 C 19.640625 24.71875 20.101562 24.800781 20.558594 24.875 C 20.980469 24.945312 21.40625 25.003906 21.828125 25.066406 C 22.296875 25.132812 22.769531 25.199219 23.238281 25.265625 C 23.277344 25.269531 23.316406 25.253906 23.355469 25.246094 C 23.320312 25.195312 23.277344 25.179688 23.238281 25.164062 C 22.683594 24.96875 22.132812 24.773438 21.578125 24.582031 C 20.199219 24.105469 18.824219 23.605469 17.371094 23.390625 C 16.957031 23.328125 16.539062 23.273438 16.121094 23.261719 C 15.773438 23.253906 15.417969 23.304688 15.066406 23.339844 C 14.476562 23.398438 13.914062 23.542969 13.371094 23.78125 C 12.511719 24.160156 11.667969 24.140625 10.867188 23.628906 C 10.550781 23.429688 10.257812 23.199219 9.957031 22.980469 C 9.988281 22.882812 10.003906 22.78125 10.046875 22.691406 C 10.148438 22.492188 10.257812 22.296875 10.367188 22.101562 C 10.808594 21.324219 11.40625 20.671875 12.085938 20.105469 C 12.855469 19.457031 13.730469 18.988281 14.695312 18.6875 C 15.28125 18.503906 15.882812 18.367188 16.492188 18.328125 C 17.320312 18.269531 18.148438 18.300781 18.957031 18.527344 C 19.394531 18.648438 19.832031 18.785156 20.25 18.960938 C 20.71875 19.164062 21.183594 19.378906 21.589844 19.703125 C 21.84375 19.90625 22.109375 20.09375 22.351562 20.308594 C 22.574219 20.503906 22.777344 20.722656 22.984375 20.9375 C 23.097656 21.054688 23.195312 21.1875 23.3125 21.328125 C 23.332031 21.277344 23.34375 21.253906 23.351562 21.226562 "/>
<path style=" stroke:none;fill-rule:nonzero;fill:rgb(17.425537%,20.954895%,55.380249%);fill-opacity:1;" d="M 4.367188 34.835938 C 5.070312 35.347656 5.757812 35.871094 6.472656 36.363281 C 7.925781 37.355469 9.453125 38.210938 11.15625 38.710938 C 11.84375 38.914062 12.550781 39.035156 13.269531 39.101562 C 14.472656 39.21875 15.648438 39.058594 16.816406 38.789062 C 18.316406 38.441406 19.742188 37.890625 21.121094 37.230469 C 22.527344 36.558594 23.90625 35.839844 25.296875 35.136719 C 26.675781 34.433594 28.054688 33.726562 29.429688 33.023438 C 30.699219 32.367188 31.964844 31.710938 33.234375 31.058594 C 34.15625 30.585938 35.070312 30.105469 36.007812 29.660156 C 37.320312 29.035156 38.707031 28.640625 40.140625 28.402344 C 41.578125 28.160156 43.03125 28.070312 44.488281 28.132812 C 45.296875 28.167969 46.105469 28.253906 46.910156 28.332031 C 48.546875 28.496094 50.15625 28.816406 51.75 29.203125 C 52.863281 29.472656 53.964844 29.804688 55.066406 30.113281 C 55.328125 30.1875 55.582031 30.277344 55.839844 30.359375 C 55.761719 30.382812 55.683594 30.402344 55.605469 30.425781 C 55.152344 30.363281 54.699219 30.300781 54.246094 30.242188 C 53.710938 30.171875 53.175781 30.097656 52.640625 30.035156 C 51.992188 29.957031 51.34375 29.886719 50.695312 29.824219 C 50.3125 29.785156 49.933594 29.761719 49.550781 29.742188 C 48.722656 29.699219 47.894531 29.660156 47.0625 29.625 C 46.785156 29.609375 46.503906 29.585938 46.226562 29.59375 C 45.25 29.632812 44.269531 29.679688 43.292969 29.734375 C 42.203125 29.792969 41.125 29.972656 40.0625 30.214844 C 38.980469 30.460938 37.914062 30.773438 36.90625 31.246094 C 36.085938 31.632812 35.289062 32.0625 34.484375 32.472656 C 33.585938 32.929688 32.691406 33.386719 31.792969 33.84375 C 30.464844 34.523438 29.140625 35.207031 27.8125 35.882812 C 26.035156 36.789062 24.253906 37.691406 22.476562 38.59375 C 21.636719 39.019531 20.804688 39.460938 19.957031 39.871094 C 18.65625 40.5 17.304688 40.960938 15.871094 41.179688 C 15.140625 41.289062 14.40625 41.324219 13.667969 41.277344 C 12.398438 41.203125 11.191406 40.871094 10.050781 40.300781 C 8.460938 39.511719 7.148438 38.386719 5.980469 37.070312 C 5.371094 36.382812 4.808594 35.664062 4.292969 34.90625 C 4.320312 34.882812 4.34375 34.859375 4.367188 34.835938 "/>
<path style=" stroke:none;fill-rule:nonzero;fill:rgb(92.681885%,18.392944%,13.064575%);fill-opacity:1;" d="M 24.917969 25.933594 C 24.941406 25.0625 24.734375 24.234375 24.46875 23.417969 C 24.484375 23.359375 24.503906 23.304688 24.523438 23.25 C 24.871094 23.980469 25.097656 24.757812 25.246094 25.550781 C 25.3125 25.914062 25.332031 26.285156 25.371094 26.652344 C 25.371094 27.195312 25.371094 27.734375 25.363281 28.277344 C 25.363281 28.394531 25.332031 28.515625 25.316406 28.632812 C 25.296875 28.785156 25.277344 28.941406 25.253906 29.132812 C 25.238281 29.199219 25.222656 29.304688 25.203125 29.410156 C 25.167969 29.582031 25.136719 29.75 25.101562 29.917969 C 25.0625 30.089844 25.019531 30.257812 24.980469 30.425781 C 24.84375 30.828125 24.71875 31.234375 24.5625 31.625 C 24.417969 31.972656 24.234375 32.304688 24.066406 32.644531 C 23.769531 33.078125 23.472656 33.507812 23.175781 33.941406 L 23.179688 33.941406 C 23.148438 33.980469 23.113281 34.023438 23.082031 34.058594 C 22.394531 34.90625 21.59375 35.632812 20.6875 36.230469 C 20.039062 36.660156 19.355469 37.015625 18.632812 37.300781 C 17.792969 37.628906 16.929688 37.855469 16.039062 37.960938 C 15.257812 38.050781 14.476562 38.066406 13.695312 38 C 12.890625 37.925781 12.109375 37.773438 11.339844 37.535156 C 10.625 37.316406 9.945312 37.015625 9.289062 36.652344 C 8.355469 36.132812 7.519531 35.480469 6.777344 34.707031 C 6.117188 34.015625 5.558594 33.25 5.101562 32.410156 C 4.609375 31.5 4.269531 30.539062 4.058594 29.53125 C 3.867188 28.609375 3.808594 27.679688 3.875 26.746094 C 3.972656 25.425781 4.308594 24.160156 4.882812 22.960938 C 4.949219 22.828125 5.023438 22.699219 5.09375 22.566406 C 5.070312 22.527344 5.050781 22.496094 5.027344 22.464844 C 5.082031 22.46875 5.140625 22.460938 5.195312 22.46875 C 5.8125 22.585938 6.425781 22.703125 7.042969 22.828125 C 7.136719 22.84375 7.230469 22.882812 7.324219 22.914062 C 7.230469 22.90625 7.167969 22.945312 7.128906 23.035156 C 7.074219 23.171875 7.003906 23.304688 6.960938 23.449219 C 6.664062 24.394531 6.472656 25.355469 6.484375 26.355469 C 6.492188 26.804688 6.511719 27.25 6.582031 27.691406 C 6.691406 28.363281 6.871094 29.019531 7.121094 29.652344 C 7.351562 30.246094 7.644531 30.808594 8.007812 31.332031 C 8.476562 32.003906 9.003906 32.628906 9.640625 33.15625 C 10.1875 33.613281 10.765625 34.019531 11.394531 34.347656 C 12.082031 34.703125 12.800781 34.964844 13.558594 35.144531 C 14.300781 35.316406 15.042969 35.394531 15.800781 35.398438 C 16.03125 35.402344 16.261719 35.359375 16.496094 35.351562 C 17 35.332031 17.492188 35.242188 17.980469 35.121094 C 18.660156 34.957031 19.320312 34.71875 19.945312 34.402344 C 20.601562 34.066406 21.21875 33.664062 21.777344 33.183594 C 21.980469 33.007812 22.191406 32.832031 22.378906 32.640625 C 22.605469 32.398438 22.824219 32.140625 23.03125 31.878906 C 23.457031 31.34375 23.808594 30.765625 24.105469 30.148438 C 24.335938 29.675781 24.503906 29.183594 24.644531 28.679688 C 24.796875 28.132812 24.910156 27.578125 24.921875 27.007812 C 24.921875 26.90625 24.945312 26.804688 24.953125 26.703125 C 24.96875 26.445312 25.019531 26.183594 24.917969 25.933594 "/>
<path style=" stroke:none;fill-rule:nonzero;fill:rgb(22.024536%,61.865234%,23.834229%);fill-opacity:1;" d="M 24.980469 30.425781 C 25.019531 30.257812 25.0625 30.089844 25.101562 29.917969 C 25.136719 29.75 25.167969 29.582031 25.203125 29.410156 C 25.222656 29.304688 25.238281 29.199219 25.253906 29.132812 C 25.277344 28.941406 25.296875 28.785156 25.316406 28.632812 C 25.332031 28.515625 25.363281 28.394531 25.363281 28.277344 C 25.371094 27.734375 25.371094 27.195312 25.371094 26.652344 C 25.390625 26.808594 25.410156 26.964844 25.425781 27.121094 C 25.433594 27.21875 25.4375 27.320312 25.441406 27.433594 C 25.503906 27.425781 25.542969 27.429688 25.574219 27.414062 C 26.703125 26.835938 27.832031 26.253906 28.960938 25.671875 C 30.242188 25.011719 31.523438 24.34375 32.808594 23.683594 C 33.671875 23.238281 34.539062 22.804688 35.402344 22.363281 C 35.808594 22.15625 36.210938 21.941406 36.621094 21.734375 C 37.410156 21.335938 38.246094 21.078125 39.121094 20.964844 C 39.878906 20.867188 40.640625 20.886719 41.394531 21.066406 C 42.628906 21.363281 43.78125 21.863281 44.910156 22.421875 C 46.203125 23.070312 47.453125 23.800781 48.671875 24.574219 C 49.671875 25.207031 50.667969 25.851562 51.652344 26.511719 C 52.621094 27.160156 53.570312 27.832031 54.53125 28.492188 C 55.191406 28.949219 55.851562 29.402344 56.515625 29.851562 C 56.492188 29.878906 56.46875 29.898438 56.449219 29.921875 C 56.148438 29.773438 55.847656 29.628906 55.546875 29.476562 C 54.515625 28.957031 53.484375 28.429688 52.449219 27.917969 C 51.722656 27.558594 50.988281 27.214844 50.253906 26.871094 C 48.855469 26.214844 47.441406 25.582031 46.003906 25.015625 C 45.023438 24.628906 44.042969 24.242188 43.027344 23.957031 C 42.320312 23.757812 41.605469 23.578125 40.882812 23.441406 C 40.261719 23.320312 39.625 23.328125 38.988281 23.402344 C 38.027344 23.515625 37.105469 23.769531 36.242188 24.199219 C 35.515625 24.558594 34.804688 24.949219 34.089844 25.335938 C 33.246094 25.789062 32.40625 26.25 31.5625 26.710938 C 30.792969 27.132812 30.023438 27.550781 29.257812 27.972656 C 28.539062 28.367188 27.820312 28.765625 27.101562 29.160156 C 26.480469 29.5 25.855469 29.835938 25.238281 30.183594 C 25.136719 30.238281 25.066406 30.34375 24.980469 30.425781 "/>
<path style=" stroke:none;fill-rule:nonzero;fill:rgb(56.079102%,85.397339%,87.463379%);fill-opacity:1;" d="M 23.175781 33.941406 C 23.472656 33.507812 23.769531 33.078125 24.066406 32.644531 C 24.160156 32.75 24.242188 32.660156 24.3125 32.621094 C 24.710938 32.398438 25.101562 32.164062 25.5 31.933594 C 26.160156 31.550781 26.820312 31.171875 27.480469 30.789062 C 28.027344 30.472656 28.570312 30.152344 29.117188 29.839844 C 29.652344 29.539062 30.191406 29.246094 30.722656 28.941406 C 31.351562 28.582031 31.980469 28.210938 32.609375 27.851562 C 33.035156 27.605469 33.472656 27.371094 33.898438 27.128906 C 34.234375 26.933594 34.558594 26.71875 34.898438 26.53125 C 35.277344 26.316406 35.664062 26.121094 36.050781 25.914062 C 36.550781 25.648438 37.085938 25.457031 37.625 25.300781 C 38.277344 25.105469 38.945312 25 39.621094 24.914062 C 40.144531 24.851562 40.664062 24.871094 41.1875 24.878906 C 41.546875 24.882812 41.90625 24.949219 42.261719 25.007812 C 42.820312 25.101562 43.382812 25.195312 43.933594 25.324219 C 44.53125 25.460938 45.117188 25.636719 45.710938 25.796875 C 46.078125 25.898438 46.445312 25.996094 46.808594 26.105469 C 47.097656 26.199219 47.382812 26.308594 47.671875 26.410156 C 47.855469 26.472656 48.042969 26.53125 48.226562 26.601562 C 48.816406 26.820312 49.410156 27.042969 50 27.265625 C 50.398438 27.417969 50.800781 27.558594 51.195312 27.722656 C 51.820312 27.988281 52.4375 28.273438 53.054688 28.546875 C 53.371094 28.6875 53.683594 28.824219 53.996094 28.972656 C 54.207031 29.074219 54.410156 29.195312 54.664062 29.332031 C 54.574219 29.339844 54.546875 29.351562 54.523438 29.34375 C 54.214844 29.246094 53.90625 29.140625 53.59375 29.046875 C 53.292969 28.953125 52.988281 28.875 52.683594 28.785156 C 52.363281 28.695312 52.042969 28.589844 51.71875 28.507812 C 50.816406 28.277344 49.917969 28.039062 49.007812 27.835938 C 48.09375 27.628906 47.167969 27.453125 46.246094 27.277344 C 45.636719 27.160156 45.023438 27.050781 44.410156 26.957031 C 44.015625 26.898438 43.617188 26.875 43.21875 26.832031 C 42.941406 26.800781 42.667969 26.757812 42.390625 26.734375 C 42.222656 26.71875 42.054688 26.726562 41.886719 26.71875 C 41.644531 26.707031 41.40625 26.6875 41.164062 26.679688 C 41.0625 26.679688 40.960938 26.714844 40.859375 26.714844 C 40.675781 26.722656 40.488281 26.722656 40.300781 26.71875 C 39.972656 26.707031 39.652344 26.773438 39.332031 26.808594 C 38.792969 26.867188 38.265625 26.976562 37.742188 27.109375 C 37.410156 27.199219 37.074219 27.285156 36.75 27.398438 C 36.285156 27.5625 35.824219 27.738281 35.371094 27.933594 C 34.84375 28.160156 34.328125 28.417969 33.800781 28.652344 C 33.496094 28.789062 33.179688 28.902344 32.878906 29.042969 C 32.179688 29.371094 31.480469 29.703125 30.789062 30.039062 C 30.351562 30.253906 29.929688 30.484375 29.496094 30.703125 C 28.742188 31.082031 27.980469 31.453125 27.230469 31.839844 C 26.78125 32.070312 26.347656 32.320312 25.902344 32.554688 C 25.34375 32.851562 24.785156 33.144531 24.226562 33.441406 C 24.003906 33.554688 23.792969 33.6875 23.570312 33.796875 C 23.445312 33.859375 23.308594 33.894531 23.175781 33.941406 "/>
<path style=" stroke:none;fill-rule:nonzero;fill:rgb(97.393799%,80.482483%,3.656006%);fill-opacity:1;" d="M 23.351562 21.226562 C 23.34375 21.253906 23.332031 21.277344 23.3125 21.328125 C 23.195312 21.1875 23.097656 21.054688 22.984375 20.9375 C 22.777344 20.722656 22.574219 20.503906 22.351562 20.308594 C 22.109375 20.09375 21.84375 19.90625 21.589844 19.703125 C 21.183594 19.378906 20.71875 19.164062 20.25 18.960938 C 19.832031 18.785156 19.394531 18.648438 18.957031 18.527344 C 18.148438 18.300781 17.320312 18.269531 16.492188 18.328125 C 15.882812 18.367188 15.28125 18.503906 14.695312 18.6875 C 13.730469 18.988281 12.855469 19.457031 12.085938 20.105469 C 11.40625 20.671875 10.808594 21.324219 10.367188 22.101562 C 10.257812 22.296875 10.148438 22.492188 10.046875 22.691406 C 10.003906 22.78125 9.988281 22.882812 9.957031 22.980469 C 9.90625 22.953125 9.859375 22.929688 9.8125 22.902344 C 9.261719 22.578125 8.6875 22.3125 8.0625 22.171875 C 8.023438 22.15625 7.984375 22.144531 7.945312 22.128906 C 7.925781 22.125 7.910156 22.121094 7.894531 22.117188 C 7.8125 22.085938 7.730469 22.050781 7.640625 22.015625 C 7.65625 21.972656 7.660156 21.945312 7.671875 21.925781 C 7.960938 21.425781 8.292969 20.957031 8.671875 20.519531 C 9.183594 19.921875 9.761719 19.40625 10.40625 18.957031 C 10.933594 18.585938 11.5 18.285156 12.09375 18.03125 C 13.15625 17.578125 14.269531 17.351562 15.421875 17.3125 C 16 17.289062 16.578125 17.300781 17.144531 17.417969 C 17.570312 17.507812 17.996094 17.605469 18.421875 17.703125 C 18.691406 17.804688 18.957031 17.914062 19.230469 18.011719 C 19.269531 18.027344 19.328125 17.992188 19.375 17.980469 C 19.664062 18.128906 19.957031 18.273438 20.242188 18.429688 C 20.832031 18.75 21.375 19.144531 21.882812 19.585938 C 22.210938 19.875 22.503906 20.203125 22.796875 20.527344 C 22.996094 20.746094 23.167969 20.992188 23.351562 21.226562 "/>
<path style=" stroke:none;fill-rule:nonzero;fill:rgb(13.897705%,12.330627%,12.719727%);fill-opacity:1;" d="M 7.894531 22.117188 C 7.910156 22.121094 7.925781 22.125 7.945312 22.128906 C 7.984375 22.144531 8.023438 22.15625 8.0625 22.171875 C 8.6875 22.3125 9.261719 22.578125 9.8125 22.902344 C 9.859375 22.929688 9.90625 22.953125 9.957031 22.980469 C 10.257812 23.199219 10.550781 23.429688 10.867188 23.628906 C 11.667969 24.140625 12.511719 24.160156 13.371094 23.78125 C 13.914062 23.542969 14.476562 23.398438 15.066406 23.339844 C 15.417969 23.304688 15.773438 23.253906 16.121094 23.261719 C 16.539062 23.273438 16.957031 23.328125 17.371094 23.390625 C 18.824219 23.605469 20.199219 24.105469 21.578125 24.582031 C 22.132812 24.773438 22.683594 24.96875 23.238281 25.164062 C 23.277344 25.179688 23.320312 25.195312 23.355469 25.246094 C 23.316406 25.253906 23.277344 25.269531 23.238281 25.265625 C 22.769531 25.199219 22.296875 25.132812 21.828125 25.066406 C 21.40625 25.003906 20.980469 24.945312 20.558594 24.875 C 20.101562 24.800781 19.640625 24.71875 19.1875 24.625 C 18.765625 24.535156 18.339844 24.503906 17.910156 24.484375 C 17.382812 24.46875 16.851562 24.402344 16.324219 24.382812 C 15.578125 24.355469 14.832031 24.351562 14.085938 24.34375 C 13.890625 24.339844 13.695312 24.347656 13.5 24.355469 C 13.324219 24.359375 13.148438 24.382812 12.984375 24.480469 C 13 24.769531 13.320312 24.789062 13.421875 25.011719 C 13.386719 25.015625 13.355469 25.03125 13.328125 25.023438 C 12.925781 24.894531 12.578125 25.011719 12.242188 25.230469 C 12.078125 25.335938 11.914062 25.445312 11.738281 25.523438 C 11.460938 25.640625 11.183594 25.648438 10.90625 25.496094 C 10.625 25.347656 10.324219 25.289062 10.019531 25.433594 C 9.945312 25.433594 9.867188 25.421875 9.796875 25.4375 C 9.292969 25.523438 8.792969 25.480469 8.289062 25.417969 C 8.15625 25.402344 8.023438 25.355469 7.894531 25.324219 C 7.894531 25.304688 7.898438 25.28125 7.898438 25.261719 C 8.183594 25.261719 8.46875 25.273438 8.753906 25.261719 C 9.101562 25.242188 9.441406 25.199219 9.765625 25.0625 C 10.09375 24.917969 10.15625 24.699219 9.921875 24.425781 C 9.785156 24.261719 9.625 24.117188 9.460938 23.976562 C 8.835938 23.449219 8.105469 23.128906 7.324219 22.914062 C 7.230469 22.882812 7.136719 22.84375 7.042969 22.828125 C 6.425781 22.703125 5.8125 22.585938 5.195312 22.46875 C 5.140625 22.460938 5.082031 22.46875 5.027344 22.464844 C 4.121094 22.390625 3.210938 22.324219 2.300781 22.234375 C 1.726562 22.175781 1.15625 22.09375 0.585938 22.011719 C 0.390625 21.980469 0.1875 21.9375 0 21.75 C 0.316406 21.773438 0.589844 21.796875 0.863281 21.808594 C 2.054688 21.859375 3.246094 21.90625 4.4375 21.949219 C 4.78125 21.960938 5.125 21.949219 5.46875 21.945312 C 5.921875 21.96875 6.371094 21.992188 6.824219 22.007812 C 7.101562 22.015625 7.378906 22.015625 7.648438 22.101562 C 7.722656 22.128906 7.8125 22.113281 7.894531 22.117188 "/>
<path style=" stroke:none;fill-rule:nonzero;fill:rgb(92.681885%,18.392944%,13.064575%);fill-opacity:1;" d="M 7.894531 22.117188 C 7.8125 22.113281 7.722656 22.128906 7.648438 22.101562 C 7.378906 22.015625 7.101562 22.015625 6.824219 22.007812 C 6.371094 21.992188 5.921875 21.96875 5.46875 21.945312 C 5.738281 21.566406 5.992188 21.175781 6.28125 20.8125 C 6.828125 20.121094 7.480469 19.527344 8.191406 19.011719 C 8.925781 18.480469 9.710938 18.035156 10.558594 17.703125 C 11.175781 17.460938 11.804688 17.25 12.457031 17.132812 C 12.980469 17.039062 13.507812 16.964844 14.035156 16.933594 C 14.753906 16.890625 15.46875 16.914062 16.183594 17.023438 C 17.007812 17.144531 17.8125 17.335938 18.585938 17.648438 C 18.53125 17.664062 18.476562 17.683594 18.421875 17.703125 C 17.996094 17.605469 17.570312 17.507812 17.144531 17.417969 C 16.578125 17.300781 16 17.289062 15.421875 17.3125 C 14.269531 17.351562 13.15625 17.578125 12.09375 18.03125 C 11.5 18.285156 10.933594 18.585938 10.40625 18.957031 C 9.761719 19.40625 9.183594 19.921875 8.671875 20.519531 C 8.292969 20.957031 7.960938 21.425781 7.671875 21.925781 C 7.660156 21.945312 7.65625 21.972656 7.640625 22.015625 C 7.730469 22.050781 7.8125 22.085938 7.894531 22.117188 "/>
<path style=" stroke:none;fill-rule:nonzero;fill:rgb(57.516479%,56.744385%,56.936646%);fill-opacity:1;" d="M 24.523438 23.25 C 24.503906 23.304688 24.484375 23.359375 24.46875 23.417969 C 24.292969 23.046875 24.121094 22.679688 23.953125 22.308594 C 23.925781 22.253906 23.925781 22.183594 23.910156 22.121094 C 23.980469 22.21875 24.0625 22.304688 24.117188 22.40625 C 24.257812 22.683594 24.390625 22.96875 24.523438 23.25 "/>
<path style=" stroke:none;fill-rule:nonzero;fill:rgb(55.516052%,54.707336%,54.907227%);fill-opacity:1;" d="M 18.421875 17.703125 C 18.476562 17.683594 18.53125 17.664062 18.585938 17.648438 C 18.847656 17.757812 19.113281 17.867188 19.375 17.980469 C 19.328125 17.992188 19.269531 18.027344 19.230469 18.011719 C 18.957031 17.914062 18.691406 17.804688 18.421875 17.703125 "/>
<path style=" stroke:none;fill-rule:nonzero;fill:rgb(57.516479%,56.744385%,56.936646%);fill-opacity:1;" d="M 23.914062 22.125 C 23.730469 22.027344 23.683594 21.832031 23.597656 21.664062 C 23.59375 21.65625 23.617188 21.636719 23.628906 21.621094 C 23.722656 21.789062 23.820312 21.957031 23.914062 22.125 "/>
<path style=" stroke:none;fill-rule:nonzero;fill:rgb(81.234741%,80.892944%,80.978394%);fill-opacity:1;" d="M 23.082031 34.058594 C 23.113281 34.023438 23.148438 33.980469 23.179688 33.941406 C 23.148438 33.980469 23.113281 34.023438 23.082031 34.058594 "/>
<path style=" stroke:none;fill-rule:nonzero;fill:rgb(97.393799%,80.482483%,3.656006%);fill-opacity:1;" d="M 7.324219 22.914062 C 8.105469 23.128906 8.835938 23.449219 9.460938 23.976562 C 9.625 24.117188 9.785156 24.261719 9.921875 24.425781 C 10.15625 24.699219 10.09375 24.917969 9.765625 25.0625 C 9.441406 25.199219 9.101562 25.242188 8.753906 25.261719 C 8.46875 25.273438 8.183594 25.261719 7.898438 25.261719 C 7.898438 25.28125 7.894531 25.304688 7.894531 25.324219 C 8.023438 25.355469 8.15625 25.402344 8.289062 25.417969 C 8.792969 25.480469 9.292969 25.523438 9.796875 25.4375 C 9.867188 25.421875 9.945312 25.433594 10.019531 25.433594 C 9.792969 25.484375 9.570312 25.535156 9.308594 25.59375 C 9.277344 25.832031 9.28125 26.097656 9.3125 26.363281 C 9.320312 26.417969 9.347656 26.472656 9.34375 26.527344 C 9.320312 27.027344 9.449219 27.507812 9.578125 27.980469 C 9.835938 28.929688 10.261719 29.792969 10.871094 30.5625 C 11.351562 31.171875 11.90625 31.699219 12.535156 32.15625 C 13.382812 32.769531 14.316406 33.160156 15.324219 33.40625 C 16.105469 33.597656 16.90625 33.667969 17.707031 33.597656 C 18.382812 33.542969 19.054688 33.425781 19.695312 33.191406 C 20.644531 32.839844 21.515625 32.347656 22.289062 31.679688 C 22.949219 31.117188 23.464844 30.445312 23.90625 29.707031 C 24.277344 29.082031 24.53125 28.417969 24.707031 27.71875 C 24.796875 27.359375 24.890625 27.003906 24.867188 26.628906 C 24.855469 26.398438 24.902344 26.164062 24.917969 25.933594 C 25.019531 26.183594 24.96875 26.445312 24.953125 26.703125 C 24.945312 26.804688 24.921875 26.90625 24.921875 27.007812 C 24.910156 27.578125 24.796875 28.132812 24.644531 28.679688 C 24.503906 29.183594 24.335938 29.675781 24.105469 30.148438 C 23.808594 30.765625 23.457031 31.34375 23.03125 31.878906 C 22.824219 32.140625 22.605469 32.398438 22.378906 32.640625 C 22.191406 32.832031 21.980469 33.007812 21.777344 33.183594 C 21.21875 33.664062 20.601562 34.066406 19.945312 34.402344 C 19.320312 34.71875 18.660156 34.957031 17.980469 35.121094 C 17.492188 35.242188 17 35.332031 16.496094 35.351562 C 16.261719 35.359375 16.03125 35.402344 15.800781 35.398438 C 15.042969 35.394531 14.300781 35.316406 13.558594 35.144531 C 12.800781 34.964844 12.082031 34.703125 11.394531 34.347656 C 10.765625 34.019531 10.1875 33.613281 9.640625 33.15625 C 9.003906 32.628906 8.476562 32.003906 8.007812 31.332031 C 7.644531 30.808594 7.351562 30.246094 7.121094 29.652344 C 6.871094 29.019531 6.691406 28.363281 6.582031 27.691406 C 6.511719 27.25 6.492188 26.804688 6.484375 26.355469 C 6.472656 25.355469 6.664062 24.394531 6.960938 23.449219 C 7.003906 23.304688 7.074219 23.171875 7.128906 23.035156 C 7.167969 22.945312 7.230469 22.90625 7.324219 22.914062 "/>
<path style=" stroke:none;fill-rule:nonzero;fill:rgb(43.383789%,42.353821%,42.610168%);fill-opacity:1;" d="M 8.0625 22.171875 C 8.023438 22.15625 7.984375 22.144531 7.945312 22.128906 C 7.984375 22.144531 8.023438 22.15625 8.0625 22.171875 "/>
</g>
</svg>
