<?xml version="1.0" encoding="UTF-8"?>
<svg xmlns="http://www.w3.org/2000/svg" xmlns:xlink="http://www.w3.org/1999/xlink" width="56pt" height="56pt" viewBox="0 0 56 56" version="1.1">
<g id="surface1">
<rect x="0" y="0" width="56" height="56" style="fill:rgb(95.66803%,95.779419%,96.777344%);fill-opacity:1;stroke:none;"/>
<path style=" stroke:none;fill-rule:nonzero;fill:rgb(100%,100%,100%);fill-opacity:1;" d="M 17.363281 38.929688 L 26.234375 46.472656 L 43.085938 22.078125 L 38.652344 14.390625 L 17.363281 38.929688 "/>
<path style=" stroke:none;fill-rule:nonzero;fill:rgb(93.02063%,14.094543%,20.675659%);fill-opacity:1;" d="M 29.019531 29.121094 C 29.398438 32.394531 29.773438 35.644531 30.148438 38.894531 C 30.199219 38.898438 30.253906 38.902344 30.308594 38.910156 C 30.722656 38.339844 31.136719 37.765625 31.511719 37.246094 C 31.378906 36.28125 31.253906 35.402344 31.128906 34.503906 C 31.605469 33.851562 32.078125 33.207031 32.589844 32.507812 C 33.0625 33.03125 33.453125 33.464844 33.90625 33.964844 C 34.355469 33.347656 34.773438 32.785156 35.199219 32.203125 C 33.621094 30.488281 32.09375 28.832031 30.507812 27.113281 C 29.996094 27.804688 29.53125 28.429688 29.019531 29.121094 Z M 37.171875 22.078125 C 37.214844 22.085938 37.257812 22.089844 37.300781 22.097656 C 37.933594 23.570312 38.566406 25.039062 39.25 26.632812 C 39.667969 26.054688 39.984375 25.621094 40.296875 25.191406 C 39.257812 22.792969 38.238281 20.4375 37.164062 17.960938 C 36.554688 18.796875 36.039062 19.507812 35.554688 20.171875 C 35.90625 21.890625 36.242188 23.527344 36.578125 25.164062 C 36.535156 25.179688 36.492188 25.195312 36.449219 25.207031 C 35.699219 24.1875 34.945312 23.167969 34.152344 22.089844 C 33.585938 22.867188 33.070312 23.578125 32.574219 24.261719 C 33.546875 26.789062 34.492188 29.238281 35.480469 31.792969 C 35.851562 31.289062 36.167969 30.863281 36.480469 30.445312 C 35.839844 28.847656 35.222656 27.300781 34.601562 25.757812 C 34.652344 25.738281 34.703125 25.71875 34.753906 25.699219 C 35.59375 26.863281 36.433594 28.03125 37.324219 29.269531 C 37.726562 28.71875 38.054688 28.265625 38.371094 27.835938 C 38.332031 27.609375 38.304688 27.441406 38.269531 27.273438 C 37.90625 25.542969 37.539062 23.808594 37.171875 22.078125 Z M 27.394531 38.066406 C 27.164062 37.882812 26.929688 37.699219 26.703125 37.511719 C 26.222656 37.125 25.777344 36.695312 25.269531 36.351562 C 24.601562 35.90625 24.089844 36 23.585938 36.609375 C 23.292969 36.96875 23.035156 37.355469 22.761719 37.734375 C 23.769531 40.175781 24.757812 42.570312 25.796875 45.089844 C 26.226562 44.507812 26.570312 44.039062 26.910156 43.570312 C 26.285156 42.085938 25.683594 40.652344 25.082031 39.222656 C 25.125 39.199219 25.167969 39.171875 25.210938 39.148438 C 26.285156 39.90625 27.355469 40.664062 28.460938 41.441406 C 28.980469 40.730469 29.441406 40.097656 29.898438 39.464844 C 28.898438 37.023438 27.910156 34.617188 26.871094 32.085938 C 26.449219 32.664062 26.09375 33.148438 25.765625 33.597656 C 26.398438 35.136719 27 36.589844 27.597656 38.042969 C 27.53125 38.050781 27.460938 38.058594 27.394531 38.066406 Z M 8.476562 46.320312 C 9.4375 45.269531 10.453125 44.257812 11.347656 43.152344 C 16.660156 36.59375 21.957031 30.023438 27.238281 23.441406 C 30.585938 19.277344 33.90625 15.09375 37.222656 10.914062 C 37.785156 10.207031 38.4375 9.695312 39.371094 9.636719 C 40.9375 9.640625 42.503906 9.648438 44.070312 9.636719 C 44.285156 9.636719 44.5 9.554688 44.714844 9.511719 C 45.648438 9.511719 46.585938 9.511719 47.523438 9.511719 C 47.03125 11.539062 46.53125 13.5625 46.050781 15.59375 C 45.542969 17.71875 45.054688 19.847656 44.554688 21.976562 C 44.476562 22.308594 44.363281 22.636719 44.269531 22.964844 C 44.105469 23.148438 43.933594 23.324219 43.785156 23.519531 C 40.15625 28.246094 36.53125 32.976562 32.90625 37.710938 C 30.675781 40.621094 28.453125 43.542969 26.226562 46.457031 C 24.582031 46.46875 22.929688 46.484375 21.285156 46.484375 C 17.371094 46.488281 13.460938 46.492188 9.546875 46.480469 C 9.191406 46.480469 8.835938 46.375 8.476562 46.320312 "/>
<path style=" stroke:none;fill-rule:nonzero;fill:rgb(31.590271%,30.345154%,30.653381%);fill-opacity:1;" d="M 26.226562 46.457031 C 28.453125 43.542969 30.675781 40.621094 32.90625 37.710938 C 36.53125 32.976562 40.15625 28.246094 43.785156 23.519531 C 43.933594 23.324219 44.105469 23.148438 44.269531 22.964844 C 43.949219 24.429688 43.644531 25.902344 43.304688 27.363281 C 41.894531 33.429688 40.472656 39.496094 39.046875 45.5625 C 38.988281 45.824219 38.886719 46.070312 38.789062 46.367188 C 38.523438 46.40625 38.285156 46.46875 38.050781 46.46875 C 34.109375 46.46875 30.167969 46.460938 26.226562 46.457031 "/>
<path style=" stroke:none;fill-rule:nonzero;fill:rgb(73.442078%,72.958374%,73.077393%);fill-opacity:1;" d="M 37.171875 22.078125 C 37.136719 22.011719 37.101562 21.945312 37.070312 21.878906 C 37.097656 21.863281 37.128906 21.847656 37.160156 21.832031 C 37.207031 21.921875 37.257812 22.007812 37.300781 22.097656 C 37.257812 22.089844 37.214844 22.085938 37.171875 22.078125 "/>
<path style=" stroke:none;fill-rule:nonzero;fill:rgb(62.319946%,61.633301%,61.804199%);fill-opacity:1;" d="M 27.597656 38.042969 C 27.613281 38.09375 27.628906 38.144531 27.679688 38.324219 C 27.515625 38.175781 27.457031 38.121094 27.394531 38.066406 C 27.460938 38.058594 27.53125 38.050781 27.597656 38.042969 "/>
<path style=" stroke:none;fill-rule:nonzero;fill:rgb(93.02063%,14.094543%,20.675659%);fill-opacity:1;" d="M 30.75 32.238281 C 30.65625 31.523438 30.558594 30.808594 30.460938 30.097656 C 30.507812 30.074219 30.550781 30.046875 30.597656 30.023438 C 30.949219 30.425781 31.300781 30.832031 31.679688 31.261719 C 31.40625 31.640625 31.164062 31.96875 30.925781 32.292969 C 30.867188 32.277344 30.808594 32.257812 30.75 32.238281 "/>
</g>
</svg>
