<?xml version="1.0" encoding="UTF-8"?>
<svg xmlns="http://www.w3.org/2000/svg" xmlns:xlink="http://www.w3.org/1999/xlink" width="56pt" height="56pt" viewBox="0 0 56 56" version="1.1">
<g id="surface1">
<rect x="0" y="0" width="56" height="56" style="fill:rgb(33.047485%,67.59491%,89.434814%);fill-opacity:1;stroke:none;"/>
<path style=" stroke:none;fill-rule:nonzero;fill:rgb(100%,100%,100%);fill-opacity:1;" d="M 28.230469 30.835938 C 28.195312 30.820312 28.148438 30.8125 28.121094 30.785156 C 27.867188 30.546875 27.613281 30.308594 27.359375 30.066406 C 27.042969 29.769531 26.730469 29.46875 26.414062 29.167969 C 26.15625 28.921875 25.898438 28.675781 25.636719 28.429688 C 25.347656 28.15625 25.058594 27.882812 24.769531 27.605469 C 24.511719 27.359375 24.25 27.113281 23.992188 26.871094 C 23.730469 26.625 23.472656 26.378906 23.210938 26.132812 C 22.9375 25.875 22.664062 25.613281 22.390625 25.351562 C 22.097656 25.078125 21.8125 24.800781 21.523438 24.527344 C 21.273438 24.292969 21.023438 24.054688 20.773438 23.820312 C 20.234375 23.3125 19.699219 22.804688 19.160156 22.292969 C 18.871094 22.019531 18.585938 21.742188 18.292969 21.46875 C 17.792969 20.996094 17.289062 20.519531 16.789062 20.046875 C 16.503906 19.777344 16.21875 19.503906 15.933594 19.234375 C 15.53125 18.859375 15.128906 18.488281 14.726562 18.109375 C 14.332031 17.734375 13.941406 17.351562 13.542969 16.972656 C 13.363281 16.800781 13.175781 16.636719 12.96875 16.449219 C 13.152344 16.382812 13.304688 16.328125 13.457031 16.273438 C 13.859375 16.136719 14.253906 15.980469 14.660156 15.863281 C 15.042969 15.757812 15.417969 15.628906 15.789062 15.5 C 16.703125 15.183594 17.617188 14.882812 18.53125 14.578125 C 18.828125 14.476562 19.128906 14.382812 19.425781 14.277344 C 20.074219 14.039062 20.730469 13.832031 21.386719 13.609375 C 21.734375 13.492188 22.078125 13.351562 22.429688 13.242188 C 22.761719 13.140625 23.089844 13.027344 23.421875 12.917969 C 24.082031 12.695312 24.746094 12.480469 25.40625 12.257812 C 25.828125 12.117188 26.242188 11.964844 26.664062 11.824219 C 27.324219 11.601562 27.988281 11.382812 28.648438 11.160156 C 29.023438 11.035156 29.398438 10.90625 29.773438 10.777344 C 30.109375 10.664062 30.445312 10.554688 30.78125 10.441406 C 31.449219 10.21875 32.117188 9.996094 32.785156 9.769531 C 33.164062 9.640625 33.542969 9.503906 33.925781 9.375 C 34.734375 9.101562 35.546875 8.828125 36.355469 8.554688 C 36.75 8.421875 37.144531 8.292969 37.539062 8.160156 C 38.246094 7.921875 38.953125 7.6875 39.660156 7.449219 C 40.039062 7.320312 40.421875 7.183594 40.800781 7.054688 C 41.527344 6.808594 42.253906 6.566406 42.976562 6.324219 C 42.996094 6.316406 43.015625 6.320312 43.058594 6.320312 C 43.015625 6.378906 42.992188 6.421875 42.957031 6.453125 C 42.761719 6.605469 42.566406 6.757812 42.34375 6.875 C 41.914062 7.101562 41.511719 7.363281 41.113281 7.636719 C 40.503906 8.054688 39.894531 8.476562 39.296875 8.90625 C 38.855469 9.226562 38.425781 9.570312 37.992188 9.902344 C 37.636719 10.175781 37.277344 10.449219 36.925781 10.726562 C 36.722656 10.886719 36.53125 11.0625 36.335938 11.226562 C 36.09375 11.425781 35.851562 11.625 35.613281 11.828125 C 35.492188 11.929688 35.371094 12.03125 35.253906 12.144531 C 34.75 12.632812 34.242188 13.117188 33.746094 13.613281 C 33.492188 13.863281 33.25 14.125 33.011719 14.390625 C 32.753906 14.675781 32.507812 14.96875 32.257812 15.257812 C 32.089844 15.453125 31.917969 15.644531 31.757812 15.847656 C 31.527344 16.140625 31.296875 16.433594 31.078125 16.738281 C 30.785156 17.148438 30.496094 17.5625 30.21875 17.980469 C 30.046875 18.246094 29.894531 18.523438 29.734375 18.796875 C 29.621094 18.992188 29.503906 19.1875 29.402344 19.390625 C 29.183594 19.828125 28.96875 20.261719 28.773438 20.710938 C 28.628906 21.035156 28.492188 21.363281 28.367188 21.699219 C 28.265625 21.960938 28.1875 22.230469 28.105469 22.496094 C 28.054688 22.652344 28.023438 22.816406 27.964844 22.96875 C 27.84375 23.269531 27.804688 23.589844 27.730469 23.902344 C 27.667969 24.167969 27.640625 24.445312 27.597656 24.714844 C 27.46875 25.464844 27.523438 26.222656 27.515625 26.976562 C 27.578125 27.203125 27.53125 27.433594 27.566406 27.660156 C 27.609375 27.960938 27.640625 28.261719 27.671875 28.5625 C 27.703125 28.867188 27.761719 29.164062 27.820312 29.460938 C 27.894531 29.832031 27.992188 30.207031 28.140625 30.558594 C 28.179688 30.648438 28.203125 30.742188 28.230469 30.832031 L 28.230469 30.835938 "/>
<path style=" stroke:none;fill-rule:nonzero;fill:rgb(100%,100%,100%);fill-opacity:1;" d="M 28.230469 30.832031 C 28.242188 30.839844 28.253906 30.847656 28.230469 30.832031 C 28.242188 30.859375 28.238281 30.847656 28.230469 30.835938 L 28.230469 30.832031 "/>
<path style=" stroke:none;fill-rule:nonzero;fill:rgb(100%,100%,100%);fill-opacity:1;" d="M 12.894531 32.746094 L 13.515625 32.746094 L 13.515625 39.054688 L 12.894531 39.054688 L 12.894531 32.746094 "/>
<path style=" stroke:none;fill-rule:nonzero;fill:rgb(100%,100%,100%);fill-opacity:1;" d="M 15.59375 33.367188 L 15.59375 35.511719 L 16.667969 35.519531 C 17.082031 35.519531 17.390625 35.476562 17.589844 35.398438 C 17.785156 35.320312 17.941406 35.191406 18.054688 35.015625 C 18.164062 34.839844 18.222656 34.640625 18.222656 34.425781 C 18.222656 34.214844 18.164062 34.023438 18.050781 33.847656 C 17.9375 33.675781 17.789062 33.550781 17.605469 33.476562 C 17.421875 33.402344 17.117188 33.367188 16.691406 33.367188 Z M 14.972656 32.746094 L 16.210938 32.746094 C 16.902344 32.746094 17.371094 32.777344 17.617188 32.835938 C 17.984375 32.917969 18.285156 33.105469 18.519531 33.386719 C 18.75 33.667969 18.863281 34.015625 18.863281 34.425781 C 18.863281 34.769531 18.785156 35.074219 18.625 35.332031 C 18.464844 35.59375 18.238281 35.789062 17.941406 35.921875 C 17.648438 36.054688 17.238281 36.125 16.714844 36.128906 L 18.953125 39.054688 L 18.183594 39.054688 L 15.945312 36.128906 L 15.59375 36.128906 L 15.59375 39.054688 L 14.972656 39.054688 L 14.972656 32.746094 "/>
<path style=" stroke:none;fill-rule:nonzero;fill:rgb(100%,100%,100%);fill-opacity:1;" d="M 22.660156 34.089844 L 21.59375 36.371094 L 23.722656 36.371094 Z M 22.738281 32.746094 L 25.640625 39.054688 L 24.96875 39.054688 L 23.992188 36.980469 L 21.308594 36.980469 L 20.339844 39.054688 L 19.648438 39.054688 L 22.585938 32.746094 L 22.738281 32.746094 "/>
<path style=" stroke:none;fill-rule:nonzero;fill:rgb(100%,100%,100%);fill-opacity:1;" d="M 26.609375 32.746094 L 30.175781 32.746094 L 30.175781 33.367188 L 27.230469 33.367188 L 27.230469 35.34375 L 30.148438 35.34375 L 30.148438 35.960938 L 27.230469 35.960938 L 27.230469 38.4375 L 30.148438 38.4375 L 30.148438 39.054688 L 26.609375 39.054688 L 26.609375 32.746094 "/>
<path style=" stroke:none;fill-rule:nonzero;fill:rgb(100%,100%,100%);fill-opacity:1;" d="M 31.90625 33.367188 L 31.90625 35.511719 L 32.976562 35.519531 C 33.390625 35.519531 33.699219 35.476562 33.898438 35.398438 C 34.097656 35.320312 34.253906 35.191406 34.363281 35.015625 C 34.476562 34.839844 34.53125 34.640625 34.53125 34.425781 C 34.53125 34.214844 34.472656 34.023438 34.359375 33.847656 C 34.25 33.675781 34.101562 33.550781 33.917969 33.476562 C 33.734375 33.402344 33.429688 33.367188 33.003906 33.367188 Z M 31.28125 32.746094 L 32.523438 32.746094 C 33.214844 32.746094 33.679688 32.777344 33.925781 32.835938 C 34.296875 32.917969 34.59375 33.105469 34.828125 33.386719 C 35.058594 33.667969 35.171875 34.015625 35.171875 34.425781 C 35.171875 34.769531 35.09375 35.074219 34.933594 35.332031 C 34.777344 35.59375 34.546875 35.789062 34.253906 35.921875 C 33.957031 36.054688 33.546875 36.125 33.027344 36.128906 L 35.261719 39.054688 L 34.492188 39.054688 L 32.257812 36.128906 L 31.90625 36.128906 L 31.90625 39.054688 L 31.28125 39.054688 L 31.28125 32.746094 "/>
<path style=" stroke:none;fill-rule:nonzero;fill:rgb(100%,100%,100%);fill-opacity:1;" d="M 39.496094 33.203125 C 39.035156 33.203125 38.601562 33.324219 38.1875 33.566406 C 37.777344 33.8125 37.453125 34.140625 37.222656 34.550781 C 36.988281 34.960938 36.875 35.421875 36.875 35.925781 C 36.875 36.675781 37.132812 37.308594 37.644531 37.828125 C 38.15625 38.34375 38.773438 38.601562 39.496094 38.601562 C 39.980469 38.601562 40.425781 38.480469 40.839844 38.246094 C 41.25 38.007812 41.570312 37.683594 41.800781 37.269531 C 42.03125 36.859375 42.144531 36.402344 42.144531 35.898438 C 42.144531 35.398438 42.03125 34.945312 41.800781 34.539062 C 41.570312 34.136719 41.246094 33.8125 40.828125 33.566406 C 40.410156 33.324219 39.964844 33.203125 39.496094 33.203125 Z M 39.46875 32.589844 C 40.410156 32.589844 41.199219 32.90625 41.835938 33.546875 C 42.46875 34.183594 42.789062 34.96875 42.789062 35.898438 C 42.789062 36.824219 42.46875 37.605469 41.835938 38.25 C 41.203125 38.894531 40.429688 39.214844 39.519531 39.214844 C 38.597656 39.214844 37.820312 38.894531 37.183594 38.253906 C 36.546875 37.613281 36.230469 36.839844 36.230469 35.929688 C 36.230469 35.324219 36.375 34.761719 36.664062 34.246094 C 36.953125 33.726562 37.347656 33.324219 37.847656 33.03125 C 38.347656 32.734375 38.886719 32.589844 39.46875 32.589844 "/>
<path style=" stroke:none;fill-rule:nonzero;fill:rgb(100%,100%,100%);fill-opacity:1;" d="M 14.261719 44.554688 L 13.125 46.835938 L 15.394531 46.835938 Z M 14.347656 43.214844 L 17.445312 49.519531 L 16.726562 49.519531 L 15.683594 47.449219 L 12.820312 47.449219 L 11.785156 49.519531 L 11.042969 49.519531 L 14.183594 43.214844 L 14.347656 43.214844 "/>
<path style=" stroke:none;fill-rule:nonzero;fill:rgb(100%,100%,100%);fill-opacity:1;" d="M 18.007812 43.214844 L 18.671875 43.214844 L 18.671875 49.519531 L 18.007812 49.519531 L 18.007812 43.214844 "/>
<path style=" stroke:none;fill-rule:nonzero;fill:rgb(100%,100%,100%);fill-opacity:1;" d="M 20.523438 43.832031 L 20.523438 45.976562 L 21.667969 45.984375 C 22.113281 45.984375 22.441406 45.945312 22.652344 45.863281 C 22.867188 45.785156 23.03125 45.65625 23.152344 45.480469 C 23.269531 45.304688 23.328125 45.109375 23.328125 44.890625 C 23.328125 44.679688 23.269531 44.488281 23.148438 44.316406 C 23.027344 44.140625 22.871094 44.019531 22.671875 43.945312 C 22.476562 43.871094 22.152344 43.832031 21.695312 43.832031 Z M 19.859375 43.214844 L 21.183594 43.214844 C 21.921875 43.214844 22.421875 43.242188 22.683594 43.300781 C 23.078125 43.386719 23.398438 43.570312 23.644531 43.851562 C 23.894531 44.136719 24.015625 44.480469 24.015625 44.894531 C 24.015625 45.238281 23.929688 45.539062 23.761719 45.800781 C 23.589844 46.058594 23.347656 46.257812 23.03125 46.390625 C 22.714844 46.523438 22.277344 46.589844 21.722656 46.59375 L 24.109375 49.519531 L 23.289062 49.519531 L 20.902344 46.59375 L 20.523438 46.59375 L 20.523438 49.519531 L 19.859375 49.519531 L 19.859375 43.214844 "/>
<path style=" stroke:none;fill-rule:nonzero;fill:rgb(100%,100%,100%);fill-opacity:1;" d="M 25.070312 43.214844 L 25.730469 43.214844 L 25.730469 48.914062 L 28.289062 48.914062 L 28.289062 49.519531 L 25.070312 49.519531 L 25.070312 43.214844 "/>
<path style=" stroke:none;fill-rule:nonzero;fill:rgb(100%,100%,100%);fill-opacity:1;" d="M 28.875 43.214844 L 29.539062 43.214844 L 29.539062 49.519531 L 28.875 49.519531 L 28.875 43.214844 "/>
<path style=" stroke:none;fill-rule:nonzero;fill:rgb(100%,100%,100%);fill-opacity:1;" d="M 30.695312 49.519531 L 30.695312 43.214844 L 30.839844 43.214844 L 35.261719 48.050781 L 35.261719 43.214844 L 35.917969 43.214844 L 35.917969 49.519531 L 35.769531 49.519531 L 31.382812 44.746094 L 31.382812 49.519531 L 30.695312 49.519531 "/>
<path style=" stroke:none;fill-rule:nonzero;fill:rgb(100%,100%,100%);fill-opacity:1;" d="M 37.167969 43.214844 L 40.976562 43.214844 L 40.976562 43.832031 L 37.832031 43.832031 L 37.832031 45.808594 L 40.949219 45.808594 L 40.949219 46.425781 L 37.832031 46.425781 L 37.832031 48.90625 L 40.949219 48.90625 L 40.949219 49.519531 L 37.167969 49.519531 L 37.167969 43.214844 "/>
<path style=" stroke:none;fill-rule:nonzero;fill:rgb(100%,100%,100%);fill-opacity:1;" d="M 41.066406 48.347656 L 41.632812 48.023438 C 42.03125 48.71875 42.488281 49.066406 43.007812 49.066406 C 43.230469 49.066406 43.441406 49.019531 43.636719 48.917969 C 43.832031 48.820312 43.980469 48.6875 44.085938 48.523438 C 44.1875 48.355469 44.238281 48.179688 44.238281 47.996094 C 44.238281 47.785156 44.160156 47.578125 44.011719 47.375 C 43.804688 47.09375 43.425781 46.757812 42.871094 46.363281 C 42.320312 45.964844 41.972656 45.675781 41.839844 45.5 C 41.605469 45.203125 41.488281 44.882812 41.488281 44.535156 C 41.488281 44.261719 41.554688 44.011719 41.695312 43.785156 C 41.832031 43.558594 42.027344 43.382812 42.28125 43.253906 C 42.53125 43.121094 42.804688 43.054688 43.097656 43.054688 C 43.410156 43.054688 43.707031 43.128906 43.976562 43.277344 C 44.25 43.425781 44.539062 43.695312 44.84375 44.089844 L 44.300781 44.480469 C 44.050781 44.164062 43.839844 43.957031 43.660156 43.859375 C 43.484375 43.757812 43.292969 43.707031 43.085938 43.707031 C 42.816406 43.707031 42.597656 43.785156 42.429688 43.941406 C 42.257812 44.09375 42.171875 44.285156 42.171875 44.511719 C 42.171875 44.648438 42.203125 44.78125 42.265625 44.910156 C 42.324219 45.035156 42.433594 45.175781 42.59375 45.328125 C 42.679688 45.410156 42.96875 45.617188 43.453125 45.960938 C 44.027344 46.363281 44.421875 46.71875 44.636719 47.035156 C 44.847656 47.351562 44.957031 47.664062 44.957031 47.980469 C 44.957031 48.441406 44.773438 48.835938 44.40625 49.175781 C 44.039062 49.511719 43.59375 49.679688 43.074219 49.679688 C 42.667969 49.679688 42.300781 49.578125 41.972656 49.375 C 41.648438 49.167969 41.34375 48.828125 41.066406 48.347656 "/>
</g>
</svg>
