<?xml version="1.0" encoding="UTF-8"?>
<svg xmlns="http://www.w3.org/2000/svg" xmlns:xlink="http://www.w3.org/1999/xlink" width="56pt" height="56pt" viewBox="0 0 56 56" version="1.1">
<g id="surface1">
<rect x="0" y="0" width="56" height="56" style="fill:rgb(12.664795%,16.844177%,30.08728%);fill-opacity:1;stroke:none;"/>
<path style=" stroke:none;fill-rule:nonzero;fill:rgb(100%,100%,100%);fill-opacity:1;" d="M 41.867188 13.527344 L 41.855469 13.613281 L 41.839844 13.703125 L 41.820312 13.800781 L 41.792969 13.886719 L 41.765625 13.960938 L 41.738281 14.023438 L 41.71875 14.039062 L 41.707031 14.058594 L 41.691406 14.066406 L 41.671875 14.070312 L 41.660156 14.066406 L 41.640625 14.054688 L 41.628906 14.035156 L 41.617188 14.011719 L 41.59375 13.941406 L 41.574219 13.863281 L 41.5625 13.773438 L 41.554688 13.671875 L 41.550781 13.582031 L 41.554688 13.488281 L 41.585938 13.332031 L 41.609375 13.265625 L 41.636719 13.210938 L 41.660156 13.160156 L 41.691406 13.125 L 41.710938 13.109375 L 41.726562 13.105469 L 41.738281 13.097656 L 41.769531 13.097656 L 41.789062 13.109375 L 41.800781 13.125 L 41.8125 13.136719 L 41.839844 13.179688 L 41.855469 13.226562 L 41.867188 13.292969 L 41.875 13.363281 L 41.875 13.441406 L 41.867188 13.527344 "/>
<path style=" stroke:none;fill-rule:nonzero;fill:rgb(100%,100%,100%);fill-opacity:1;" d="M 41.257812 13.496094 L 41.25 13.582031 L 41.238281 13.679688 L 41.21875 13.773438 L 41.203125 13.855469 L 41.175781 13.9375 L 41.148438 13.996094 L 41.132812 14.015625 L 41.121094 14.035156 L 41.101562 14.046875 L 41.085938 14.046875 L 41.074219 14.039062 L 41.054688 14.027344 L 41.042969 14.011719 L 41.03125 13.984375 L 41 13.925781 L 40.980469 13.84375 L 40.964844 13.753906 L 40.949219 13.660156 L 40.945312 13.5625 L 40.945312 13.476562 L 40.957031 13.394531 L 40.96875 13.320312 L 40.988281 13.246094 L 41.011719 13.183594 L 41.035156 13.136719 L 41.066406 13.097656 L 41.085938 13.085938 L 41.097656 13.082031 L 41.113281 13.074219 L 41.148438 13.074219 L 41.15625 13.082031 L 41.175781 13.09375 L 41.1875 13.109375 L 41.214844 13.148438 L 41.230469 13.203125 L 41.242188 13.265625 L 41.257812 13.332031 L 41.257812 13.496094 "/>
<path style=" stroke:none;fill-rule:nonzero;fill:rgb(100%,100%,100%);fill-opacity:1;" d="M 40.675781 13.527344 L 40.675781 13.617188 L 40.667969 13.710938 L 40.644531 13.882812 L 40.621094 13.960938 L 40.59375 14.023438 L 40.578125 14.046875 L 40.566406 14.066406 L 40.546875 14.078125 L 40.523438 14.089844 L 40.503906 14.089844 L 40.484375 14.082031 L 40.46875 14.066406 L 40.453125 14.039062 L 40.429688 13.980469 L 40.40625 13.902344 L 40.382812 13.71875 L 40.367188 13.550781 L 40.367188 13.484375 L 40.375 13.410156 L 40.386719 13.335938 L 40.398438 13.269531 L 40.417969 13.214844 L 40.441406 13.164062 L 40.460938 13.148438 L 40.472656 13.136719 L 40.492188 13.128906 L 40.511719 13.125 L 40.527344 13.125 L 40.546875 13.128906 L 40.566406 13.140625 L 40.582031 13.152344 L 40.605469 13.191406 L 40.632812 13.238281 L 40.652344 13.300781 L 40.664062 13.367188 L 40.675781 13.449219 L 40.675781 13.527344 "/>
<path style=" stroke:none;fill-rule:nonzero;fill:rgb(100%,100%,100%);fill-opacity:1;" d="M 40.070312 13.574219 L 40.074219 13.660156 L 40.089844 13.746094 L 40.089844 13.949219 L 40.082031 13.980469 L 40.070312 14.015625 L 40.042969 14.070312 L 40.027344 14.089844 L 40.003906 14.109375 L 39.976562 14.125 L 39.949219 14.132812 L 39.921875 14.125 L 39.898438 14.121094 L 39.878906 14.101562 L 39.867188 14.078125 L 39.847656 14.046875 L 39.835938 14.011719 L 39.824219 13.972656 L 39.792969 13.800781 L 39.769531 13.632812 L 39.757812 13.558594 L 39.75 13.488281 L 39.75 13.417969 L 39.757812 13.355469 L 39.769531 13.300781 L 39.792969 13.257812 L 39.804688 13.238281 L 39.824219 13.222656 L 39.84375 13.214844 L 39.867188 13.210938 L 39.910156 13.210938 L 39.929688 13.222656 L 39.949219 13.226562 L 40.003906 13.304688 L 40.027344 13.363281 L 40.046875 13.429688 L 40.058594 13.496094 L 40.070312 13.574219 "/>
<path style=" stroke:none;fill-rule:nonzero;fill:rgb(100%,100%,100%);fill-opacity:1;" d="M 39.425781 13.679688 L 39.441406 13.757812 L 39.445312 13.84375 L 39.453125 13.929688 L 39.445312 14.011719 L 39.445312 14.046875 L 39.441406 14.085938 L 39.425781 14.113281 L 39.414062 14.144531 L 39.402344 14.167969 L 39.386719 14.195312 L 39.359375 14.210938 L 39.335938 14.222656 L 39.304688 14.230469 L 39.28125 14.230469 L 39.261719 14.21875 L 39.242188 14.199219 L 39.222656 14.175781 L 39.207031 14.144531 L 39.195312 14.113281 L 39.1875 14.070312 L 39.152344 13.902344 L 39.128906 13.734375 L 39.121094 13.660156 L 39.113281 13.589844 L 39.113281 13.523438 L 39.121094 13.453125 L 39.132812 13.398438 L 39.152344 13.355469 L 39.167969 13.335938 L 39.179688 13.324219 L 39.199219 13.3125 L 39.222656 13.308594 L 39.242188 13.308594 L 39.269531 13.3125 L 39.285156 13.320312 L 39.304688 13.332031 L 39.335938 13.363281 L 39.367188 13.40625 L 39.386719 13.460938 L 39.402344 13.527344 L 39.414062 13.601562 L 39.425781 13.679688 "/>
<path style=" stroke:none;fill-rule:nonzero;fill:rgb(100%,100%,100%);fill-opacity:1;" d="M 38.859375 13.796875 L 38.882812 13.96875 L 38.890625 14.046875 L 38.894531 14.125 L 38.890625 14.164062 L 38.890625 14.199219 L 38.875 14.238281 L 38.871094 14.261719 L 38.851562 14.292969 L 38.839844 14.316406 L 38.816406 14.335938 L 38.761719 14.359375 L 38.734375 14.359375 L 38.71875 14.347656 L 38.691406 14.328125 L 38.671875 14.308594 L 38.660156 14.28125 L 38.652344 14.242188 L 38.632812 14.207031 L 38.59375 14.035156 L 38.558594 13.871094 L 38.546875 13.796875 L 38.539062 13.722656 L 38.535156 13.65625 L 38.535156 13.59375 L 38.546875 13.539062 L 38.566406 13.488281 L 38.59375 13.460938 L 38.613281 13.449219 L 38.636719 13.441406 L 38.679688 13.441406 L 38.699219 13.449219 L 38.71875 13.460938 L 38.746094 13.488281 L 38.78125 13.53125 L 38.828125 13.648438 L 38.847656 13.722656 L 38.859375 13.796875 "/>
<path style=" stroke:none;fill-rule:nonzero;fill:rgb(100%,100%,100%);fill-opacity:1;" d="M 38.332031 13.972656 L 38.355469 14.144531 L 38.363281 14.222656 L 38.367188 14.304688 L 38.363281 14.339844 L 38.363281 14.378906 L 38.351562 14.40625 L 38.34375 14.4375 L 38.328125 14.46875 L 38.3125 14.492188 L 38.289062 14.511719 L 38.265625 14.523438 L 38.234375 14.535156 L 38.210938 14.53125 L 38.191406 14.523438 L 38.167969 14.507812 L 38.148438 14.480469 L 38.117188 14.417969 L 38.105469 14.382812 L 38.070312 14.210938 L 38.03125 14.046875 L 38.019531 13.972656 L 38.015625 13.898438 L 38.007812 13.832031 L 38.007812 13.765625 L 38.019531 13.710938 L 38.039062 13.667969 L 38.054688 13.648438 L 38.085938 13.625 L 38.109375 13.617188 L 38.15625 13.617188 L 38.171875 13.625 L 38.191406 13.636719 L 38.222656 13.667969 L 38.253906 13.710938 L 38.277344 13.757812 L 38.300781 13.828125 L 38.3125 13.898438 L 38.332031 13.972656 "/>
<path style=" stroke:none;fill-rule:nonzero;fill:rgb(100%,100%,100%);fill-opacity:1;" d="M 37.78125 14.152344 L 37.804688 14.230469 L 37.824219 14.308594 L 37.84375 14.390625 L 37.855469 14.46875 L 37.859375 14.507812 L 37.859375 14.542969 L 37.855469 14.578125 L 37.847656 14.609375 L 37.84375 14.632812 L 37.824219 14.664062 L 37.804688 14.683594 L 37.78125 14.703125 L 37.757812 14.714844 L 37.730469 14.71875 L 37.707031 14.714844 L 37.691406 14.695312 L 37.664062 14.675781 L 37.648438 14.652344 L 37.628906 14.621094 L 37.609375 14.585938 L 37.546875 14.421875 L 37.5 14.261719 L 37.476562 14.195312 L 37.457031 14.121094 L 37.445312 14.054688 L 37.4375 13.992188 L 37.445312 13.929688 L 37.457031 13.882812 L 37.46875 13.863281 L 37.5 13.832031 L 37.519531 13.828125 L 37.535156 13.820312 L 37.558594 13.820312 L 37.578125 13.828125 L 37.597656 13.832031 L 37.636719 13.855469 L 37.671875 13.894531 L 37.703125 13.941406 L 37.730469 14.003906 L 37.757812 14.070312 L 37.78125 14.152344 "/>
<path style=" stroke:none;fill-rule:nonzero;fill:rgb(100%,100%,100%);fill-opacity:1;" d="M 37.207031 14.371094 L 37.238281 14.445312 L 37.261719 14.523438 L 37.285156 14.605469 L 37.308594 14.683594 L 37.316406 14.75 L 37.316406 14.816406 L 37.308594 14.847656 L 37.296875 14.871094 L 37.28125 14.898438 L 37.261719 14.921875 L 37.238281 14.933594 L 37.214844 14.941406 L 37.195312 14.941406 L 37.167969 14.925781 L 37.128906 14.886719 L 37.089844 14.824219 L 37.015625 14.664062 L 36.957031 14.519531 L 36.925781 14.449219 L 36.902344 14.382812 L 36.882812 14.316406 L 36.875 14.253906 L 36.867188 14.195312 L 36.882812 14.144531 L 36.886719 14.128906 L 36.902344 14.109375 L 36.910156 14.097656 L 36.929688 14.085938 L 36.949219 14.070312 L 36.992188 14.070312 L 37.011719 14.078125 L 37.046875 14.097656 L 37.078125 14.132812 L 37.113281 14.175781 L 37.144531 14.238281 L 37.175781 14.296875 L 37.207031 14.371094 "/>
<path style=" stroke:none;fill-rule:nonzero;fill:rgb(100%,100%,100%);fill-opacity:1;" d="M 36.660156 14.605469 L 36.71875 14.757812 L 36.761719 14.902344 L 36.773438 14.96875 L 36.773438 15.039062 L 36.765625 15.070312 L 36.742188 15.117188 L 36.722656 15.140625 L 36.707031 15.15625 L 36.679688 15.160156 L 36.660156 15.160156 L 36.644531 15.148438 L 36.617188 15.128906 L 36.601562 15.109375 L 36.582031 15.082031 L 36.5625 15.050781 L 36.496094 14.902344 L 36.433594 14.757812 L 36.40625 14.691406 L 36.378906 14.628906 L 36.359375 14.5625 L 36.355469 14.5 L 36.347656 14.445312 L 36.355469 14.402344 L 36.359375 14.378906 L 36.375 14.359375 L 36.386719 14.347656 L 36.40625 14.335938 L 36.417969 14.328125 L 36.433594 14.324219 L 36.453125 14.324219 L 36.472656 14.328125 L 36.507812 14.347656 L 36.539062 14.378906 L 36.570312 14.421875 L 36.601562 14.476562 L 36.632812 14.535156 L 36.660156 14.605469 "/>
<path style=" stroke:none;fill-rule:nonzero;fill:rgb(100%,100%,100%);fill-opacity:1;" d="M 36.117188 14.925781 L 36.203125 15.0625 L 36.277344 15.199219 L 36.300781 15.265625 L 36.308594 15.324219 L 36.3125 15.355469 L 36.308594 15.382812 L 36.292969 15.410156 L 36.28125 15.433594 L 36.265625 15.453125 L 36.246094 15.464844 L 36.226562 15.464844 L 36.210938 15.460938 L 36.183594 15.449219 L 36.160156 15.4375 L 36.136719 15.410156 L 36.109375 15.386719 L 36.015625 15.253906 L 35.921875 15.125 L 35.886719 15.070312 L 35.847656 15.015625 L 35.816406 14.953125 L 35.792969 14.898438 L 35.78125 14.84375 L 35.773438 14.792969 L 35.78125 14.777344 L 35.785156 14.757812 L 35.792969 14.738281 L 35.824219 14.707031 L 35.84375 14.703125 L 35.859375 14.695312 L 35.878906 14.695312 L 35.914062 14.707031 L 35.953125 14.730469 L 35.996094 14.769531 L 36.03125 14.8125 L 36.074219 14.867188 L 36.117188 14.925781 "/>
<path style=" stroke:none;fill-rule:nonzero;fill:rgb(100%,100%,100%);fill-opacity:1;" d="M 35.640625 15.265625 L 35.726562 15.398438 L 35.800781 15.535156 L 35.824219 15.601562 L 35.835938 15.660156 L 35.835938 15.691406 L 35.832031 15.722656 L 35.824219 15.746094 L 35.8125 15.773438 L 35.792969 15.789062 L 35.777344 15.800781 L 35.730469 15.800781 L 35.707031 15.789062 L 35.640625 15.722656 L 35.542969 15.589844 L 35.449219 15.464844 L 35.40625 15.40625 L 35.347656 15.289062 L 35.324219 15.234375 L 35.308594 15.179688 L 35.304688 15.136719 L 35.308594 15.109375 L 35.308594 15.09375 L 35.324219 15.074219 L 35.335938 15.054688 L 35.351562 15.042969 L 35.363281 15.039062 L 35.402344 15.039062 L 35.4375 15.042969 L 35.480469 15.070312 L 35.519531 15.105469 L 35.558594 15.148438 L 35.601562 15.203125 L 35.640625 15.265625 "/>
<path style=" stroke:none;fill-rule:nonzero;fill:rgb(100%,100%,100%);fill-opacity:1;" d="M 35.179688 15.644531 L 35.273438 15.773438 L 35.351562 15.902344 L 35.382812 15.96875 L 35.402344 16.027344 L 35.402344 16.085938 L 35.378906 16.140625 L 35.363281 16.15625 L 35.347656 16.167969 L 35.328125 16.175781 L 35.304688 16.167969 L 35.28125 16.164062 L 35.253906 16.144531 L 35.230469 16.128906 L 35.207031 16.101562 L 35.101562 15.972656 L 35.003906 15.859375 L 34.960938 15.800781 L 34.917969 15.746094 L 34.855469 15.636719 L 34.84375 15.582031 L 34.832031 15.535156 L 34.839844 15.515625 L 34.839844 15.496094 L 34.851562 15.476562 L 34.863281 15.460938 L 34.875 15.449219 L 34.894531 15.4375 L 34.910156 15.4375 L 34.929688 15.429688 L 34.96875 15.441406 L 35.003906 15.460938 L 35.046875 15.496094 L 35.089844 15.535156 L 35.140625 15.589844 L 35.179688 15.644531 "/>
<path style=" stroke:none;fill-rule:nonzero;fill:rgb(100%,100%,100%);fill-opacity:1;" d="M 34.773438 15.980469 L 34.875 16.097656 L 34.96875 16.21875 L 34.996094 16.28125 L 35.023438 16.339844 L 35.027344 16.371094 L 35.027344 16.394531 L 35.023438 16.425781 L 35.011719 16.453125 L 34.996094 16.476562 L 34.980469 16.488281 L 34.960938 16.492188 L 34.9375 16.492188 L 34.910156 16.488281 L 34.886719 16.46875 L 34.863281 16.453125 L 34.832031 16.433594 L 34.71875 16.324219 L 34.605469 16.207031 L 34.5625 16.15625 L 34.523438 16.109375 L 34.476562 16.058594 L 34.449219 16.003906 L 34.429688 15.957031 L 34.417969 15.90625 L 34.417969 15.863281 L 34.421875 15.84375 L 34.433594 15.828125 L 34.449219 15.816406 L 34.464844 15.800781 L 34.476562 15.796875 L 34.496094 15.796875 L 34.539062 15.800781 L 34.578125 15.816406 L 34.625 15.84375 L 34.671875 15.882812 L 34.722656 15.929688 L 34.773438 15.980469 "/>
<path style=" stroke:none;fill-rule:nonzero;fill:rgb(100%,100%,100%);fill-opacity:1;" d="M 34.355469 16.371094 L 34.453125 16.480469 L 34.546875 16.597656 L 34.582031 16.660156 L 34.601562 16.714844 L 34.605469 16.746094 L 34.605469 16.769531 L 34.601562 16.792969 L 34.59375 16.824219 L 34.582031 16.84375 L 34.566406 16.855469 L 34.546875 16.859375 L 34.527344 16.859375 L 34.503906 16.855469 L 34.476562 16.84375 L 34.421875 16.804688 L 34.304688 16.703125 L 34.203125 16.59375 L 34.117188 16.5 L 34.082031 16.453125 L 34.050781 16.402344 L 34.027344 16.351562 L 34.015625 16.308594 L 34.015625 16.285156 L 34.019531 16.269531 L 34.027344 16.25 L 34.03125 16.230469 L 34.042969 16.21875 L 34.0625 16.210938 L 34.074219 16.199219 L 34.09375 16.199219 L 34.128906 16.207031 L 34.171875 16.21875 L 34.214844 16.242188 L 34.257812 16.28125 L 34.304688 16.324219 L 34.355469 16.371094 "/>
<path style=" stroke:none;fill-rule:nonzero;fill:rgb(100%,100%,100%);fill-opacity:1;" d="M 33.902344 16.8125 L 34.019531 16.910156 L 34.121094 17.019531 L 34.164062 17.074219 L 34.195312 17.128906 L 34.210938 17.191406 L 34.210938 17.214844 L 34.203125 17.246094 L 34.191406 17.269531 L 34.171875 17.289062 L 34.152344 17.296875 L 34.109375 17.296875 L 34.082031 17.28125 L 34.050781 17.269531 L 34.019531 17.253906 L 33.890625 17.15625 L 33.769531 17.0625 L 33.714844 17.019531 L 33.664062 16.976562 L 33.621094 16.929688 L 33.585938 16.878906 L 33.554688 16.835938 L 33.535156 16.789062 L 33.535156 16.746094 L 33.542969 16.726562 L 33.546875 16.707031 L 33.558594 16.691406 L 33.574219 16.675781 L 33.589844 16.671875 L 33.601562 16.664062 L 33.644531 16.664062 L 33.6875 16.675781 L 33.738281 16.695312 L 33.785156 16.726562 L 33.839844 16.761719 L 33.902344 16.8125 "/>
<path style=" stroke:none;fill-rule:nonzero;fill:rgb(100%,100%,100%);fill-opacity:1;" d="M 33.519531 17.257812 L 33.652344 17.339844 L 33.773438 17.429688 L 33.824219 17.472656 L 33.859375 17.527344 L 33.871094 17.550781 L 33.886719 17.605469 L 33.878906 17.636719 L 33.871094 17.664062 L 33.859375 17.679688 L 33.84375 17.691406 L 33.824219 17.699219 L 33.796875 17.699219 L 33.769531 17.691406 L 33.738281 17.679688 L 33.703125 17.667969 L 33.558594 17.601562 L 33.425781 17.527344 L 33.371094 17.496094 L 33.308594 17.460938 L 33.261719 17.421875 L 33.21875 17.382812 L 33.179688 17.34375 L 33.15625 17.300781 L 33.152344 17.277344 L 33.152344 17.242188 L 33.15625 17.214844 L 33.164062 17.203125 L 33.175781 17.183594 L 33.195312 17.171875 L 33.207031 17.167969 L 33.242188 17.160156 L 33.289062 17.160156 L 33.339844 17.171875 L 33.394531 17.199219 L 33.457031 17.226562 L 33.519531 17.257812 "/>
<path style=" stroke:none;fill-rule:nonzero;fill:rgb(100%,100%,100%);fill-opacity:1;" d="M 33.199219 17.765625 L 33.328125 17.84375 L 33.449219 17.929688 L 33.5 17.980469 L 33.535156 18.03125 L 33.546875 18.054688 L 33.558594 18.085938 L 33.558594 18.140625 L 33.554688 18.164062 L 33.542969 18.183594 L 33.523438 18.195312 L 33.5 18.199219 L 33.472656 18.199219 L 33.445312 18.195312 L 33.414062 18.1875 L 33.382812 18.175781 L 33.242188 18.101562 L 33.105469 18.03125 L 33.046875 18 L 32.992188 17.960938 L 32.941406 17.925781 L 32.894531 17.890625 L 32.863281 17.84375 L 32.839844 17.800781 L 32.832031 17.785156 L 32.828125 17.761719 L 32.832031 17.742188 L 32.839844 17.722656 L 32.84375 17.703125 L 32.867188 17.679688 L 32.886719 17.667969 L 32.921875 17.660156 L 32.96875 17.667969 L 33.023438 17.679688 L 33.078125 17.699219 L 33.136719 17.730469 L 33.199219 17.765625 "/>
<path style=" stroke:none;fill-rule:nonzero;fill:rgb(100%,100%,100%);fill-opacity:1;" d="M 32.902344 18.21875 L 32.972656 18.257812 L 33.121094 18.328125 L 33.1875 18.371094 L 33.242188 18.421875 L 33.285156 18.46875 L 33.304688 18.5 L 33.308594 18.523438 L 33.324219 18.585938 L 33.316406 18.617188 L 33.304688 18.636719 L 33.285156 18.648438 L 33.261719 18.660156 L 33.207031 18.660156 L 33.167969 18.648438 L 33.132812 18.640625 L 32.972656 18.578125 L 32.828125 18.511719 L 32.757812 18.480469 L 32.699219 18.453125 L 32.636719 18.414062 L 32.589844 18.378906 L 32.542969 18.335938 L 32.519531 18.292969 L 32.507812 18.273438 L 32.507812 18.207031 L 32.519531 18.1875 L 32.527344 18.167969 L 32.558594 18.144531 L 32.597656 18.132812 L 32.648438 18.132812 L 32.703125 18.140625 L 32.765625 18.15625 L 32.832031 18.1875 L 32.902344 18.21875 "/>
<path style=" stroke:none;fill-rule:nonzero;fill:rgb(100%,100%,100%);fill-opacity:1;" d="M 32.65625 18.804688 L 32.789062 18.878906 L 32.910156 18.964844 L 32.960938 19.007812 L 32.996094 19.058594 L 33.011719 19.082031 L 33.015625 19.105469 L 33.023438 19.136719 L 33.015625 19.160156 L 33.011719 19.183594 L 32.996094 19.203125 L 32.980469 19.214844 L 32.960938 19.222656 L 32.9375 19.222656 L 32.90625 19.214844 L 32.875 19.210938 L 32.84375 19.199219 L 32.699219 19.128906 L 32.5625 19.054688 L 32.507812 19.027344 L 32.453125 18.996094 L 32.398438 18.960938 L 32.355469 18.921875 L 32.320312 18.878906 L 32.292969 18.84375 L 32.289062 18.820312 L 32.289062 18.78125 L 32.292969 18.761719 L 32.300781 18.746094 L 32.3125 18.730469 L 32.332031 18.71875 L 32.34375 18.714844 L 32.378906 18.707031 L 32.429688 18.707031 L 32.476562 18.71875 L 32.53125 18.746094 L 32.59375 18.769531 L 32.65625 18.804688 "/>
<path style=" stroke:none;fill-rule:nonzero;fill:rgb(100%,100%,100%);fill-opacity:1;" d="M 32.417969 19.367188 L 32.558594 19.429688 L 32.691406 19.496094 L 32.746094 19.535156 L 32.789062 19.578125 L 32.808594 19.601562 L 32.820312 19.625 L 32.828125 19.65625 L 32.828125 19.710938 L 32.816406 19.730469 L 32.777344 19.753906 L 32.753906 19.761719 L 32.722656 19.753906 L 32.691406 19.753906 L 32.660156 19.75 L 32.507812 19.699219 L 32.359375 19.652344 L 32.300781 19.625 L 32.238281 19.601562 L 32.183594 19.570312 L 32.136719 19.539062 L 32.097656 19.503906 L 32.066406 19.46875 L 32.054688 19.449219 L 32.050781 19.429688 L 32.050781 19.40625 L 32.054688 19.386719 L 32.0625 19.367188 L 32.066406 19.351562 L 32.082031 19.339844 L 32.09375 19.328125 L 32.128906 19.3125 L 32.226562 19.3125 L 32.289062 19.328125 L 32.347656 19.34375 L 32.417969 19.367188 "/>
<path style=" stroke:none;fill-rule:nonzero;fill:rgb(100%,100%,100%);fill-opacity:1;" d="M 32.183594 20.011719 L 32.335938 20.046875 L 32.488281 20.097656 L 32.550781 20.128906 L 32.605469 20.164062 L 32.625 20.183594 L 32.644531 20.207031 L 32.65625 20.230469 L 32.660156 20.261719 L 32.660156 20.285156 L 32.648438 20.3125 L 32.636719 20.324219 L 32.617188 20.335938 L 32.59375 20.347656 L 32.488281 20.347656 L 32.324219 20.324219 L 32.164062 20.292969 L 32.03125 20.269531 L 31.96875 20.242188 L 31.910156 20.21875 L 31.867188 20.1875 L 31.832031 20.160156 L 31.816406 20.140625 L 31.804688 20.121094 L 31.804688 20.058594 L 31.816406 20.042969 L 31.824219 20.03125 L 31.84375 20.019531 L 31.878906 20 L 31.921875 19.988281 L 31.976562 19.980469 L 32.042969 19.988281 L 32.109375 20 L 32.183594 20.011719 "/>
<path style=" stroke:none;fill-rule:nonzero;fill:rgb(100%,100%,100%);fill-opacity:1;" d="M 31.988281 20.597656 L 32.152344 20.628906 L 32.304688 20.671875 L 32.375 20.703125 L 32.429688 20.734375 L 32.449219 20.757812 L 32.464844 20.78125 L 32.476562 20.804688 L 32.488281 20.832031 L 32.488281 20.863281 L 32.484375 20.878906 L 32.464844 20.898438 L 32.449219 20.910156 L 32.421875 20.917969 L 32.394531 20.921875 L 32.320312 20.921875 L 32.148438 20.90625 L 31.988281 20.886719 L 31.914062 20.875 L 31.847656 20.863281 L 31.78125 20.84375 L 31.71875 20.820312 L 31.671875 20.789062 L 31.632812 20.757812 L 31.609375 20.71875 L 31.601562 20.703125 L 31.601562 20.683594 L 31.609375 20.664062 L 31.613281 20.648438 L 31.628906 20.628906 L 31.640625 20.617188 L 31.675781 20.597656 L 31.726562 20.585938 L 31.78125 20.582031 L 31.84375 20.582031 L 31.914062 20.585938 L 31.988281 20.597656 "/>
<path style=" stroke:none;fill-rule:nonzero;fill:rgb(100%,100%,100%);fill-opacity:1;" d="M 31.871094 21.136719 L 32.03125 21.167969 L 32.183594 21.210938 L 32.253906 21.242188 L 32.304688 21.273438 L 32.332031 21.296875 L 32.363281 21.34375 L 32.367188 21.367188 L 32.367188 21.398438 L 32.363281 21.417969 L 32.347656 21.4375 L 32.324219 21.449219 L 32.300781 21.457031 L 32.269531 21.460938 L 32.234375 21.46875 L 32.195312 21.460938 L 32.027344 21.441406 L 31.867188 21.425781 L 31.792969 21.410156 L 31.726562 21.398438 L 31.65625 21.382812 L 31.601562 21.355469 L 31.554688 21.328125 L 31.511719 21.296875 L 31.5 21.277344 L 31.492188 21.257812 L 31.488281 21.242188 L 31.488281 21.203125 L 31.492188 21.183594 L 31.519531 21.15625 L 31.554688 21.136719 L 31.601562 21.125 L 31.65625 21.117188 L 31.726562 21.117188 L 31.792969 21.125 L 31.871094 21.136719 "/>
<path style=" stroke:none;fill-rule:nonzero;fill:rgb(100%,100%,100%);fill-opacity:1;" d="M 31.738281 21.742188 L 31.902344 21.761719 L 32.054688 21.792969 L 32.121094 21.816406 L 32.183594 21.851562 L 32.203125 21.871094 L 32.21875 21.890625 L 32.238281 21.914062 L 32.246094 21.945312 L 32.253906 21.96875 L 32.246094 21.992188 L 32.234375 22.011719 L 32.210938 22.023438 L 32.183594 22.035156 L 32.15625 22.042969 L 32.121094 22.042969 L 32.082031 22.046875 L 31.910156 22.035156 L 31.75 22.023438 L 31.675781 22.023438 L 31.542969 22 L 31.480469 21.976562 L 31.433594 21.957031 L 31.390625 21.925781 L 31.378906 21.90625 L 31.363281 21.890625 L 31.359375 21.871094 L 31.359375 21.828125 L 31.363281 21.808594 L 31.378906 21.796875 L 31.390625 21.785156 L 31.417969 21.761719 L 31.46875 21.742188 L 31.523438 21.738281 L 31.59375 21.730469 L 31.65625 21.738281 L 31.738281 21.742188 "/>
<path style=" stroke:none;fill-rule:nonzero;fill:rgb(100%,100%,100%);fill-opacity:1;" d="M 31.632812 22.34375 L 31.707031 22.347656 L 31.792969 22.355469 L 31.867188 22.367188 L 31.941406 22.386719 L 32.007812 22.410156 L 32.0625 22.441406 L 32.085938 22.457031 L 32.105469 22.484375 L 32.128906 22.53125 L 32.128906 22.582031 L 32.117188 22.597656 L 32.097656 22.617188 L 32.074219 22.625 L 32.042969 22.636719 L 32.007812 22.640625 L 31.804688 22.640625 L 31.644531 22.628906 L 31.578125 22.628906 L 31.445312 22.605469 L 31.390625 22.585938 L 31.339844 22.5625 L 31.296875 22.539062 L 31.273438 22.5 L 31.265625 22.484375 L 31.265625 22.441406 L 31.28125 22.402344 L 31.289062 22.390625 L 31.328125 22.367188 L 31.371094 22.347656 L 31.425781 22.335938 L 31.558594 22.335938 L 31.632812 22.34375 "/>
<path style=" stroke:none;fill-rule:nonzero;fill:rgb(100%,100%,100%);fill-opacity:1;" d="M 31.585938 22.929688 L 31.75 22.941406 L 31.910156 22.964844 L 31.976562 22.984375 L 32.03125 23.015625 L 32.054688 23.035156 L 32.082031 23.050781 L 32.09375 23.078125 L 32.105469 23.101562 L 32.109375 23.132812 L 32.105469 23.148438 L 32.09375 23.167969 L 32.074219 23.1875 L 32.050781 23.199219 L 32.019531 23.207031 L 31.980469 23.210938 L 31.945312 23.21875 L 31.609375 23.21875 L 31.542969 23.210938 L 31.46875 23.207031 L 31.402344 23.199219 L 31.339844 23.179688 L 31.289062 23.160156 L 31.246094 23.132812 L 31.230469 23.121094 L 31.222656 23.101562 L 31.210938 23.082031 L 31.210938 23.039062 L 31.21875 23.023438 L 31.222656 23.007812 L 31.234375 22.992188 L 31.273438 22.964844 L 31.316406 22.949219 L 31.371094 22.933594 L 31.4375 22.929688 L 31.585938 22.929688 "/>
<path style=" stroke:none;fill-rule:nonzero;fill:rgb(100%,100%,100%);fill-opacity:1;" d="M 31.558594 23.589844 L 31.726562 23.601562 L 31.886719 23.628906 L 31.953125 23.652344 L 32.011719 23.679688 L 32.03125 23.699219 L 32.054688 23.71875 L 32.070312 23.742188 L 32.082031 23.769531 L 32.082031 23.816406 L 32.070312 23.835938 L 32.042969 23.851562 L 32.019531 23.859375 L 31.988281 23.871094 L 31.957031 23.878906 L 31.75 23.878906 L 31.585938 23.871094 L 31.511719 23.871094 L 31.445312 23.863281 L 31.378906 23.851562 L 31.316406 23.835938 L 31.261719 23.816406 L 31.222656 23.785156 L 31.207031 23.773438 L 31.195312 23.753906 L 31.1875 23.738281 L 31.1875 23.695312 L 31.195312 23.675781 L 31.199219 23.65625 L 31.210938 23.644531 L 31.246094 23.621094 L 31.289062 23.601562 L 31.351562 23.59375 L 31.414062 23.589844 L 31.558594 23.589844 "/>
<path style=" stroke:none;fill-rule:nonzero;fill:rgb(100%,100%,100%);fill-opacity:1;" d="M 31.542969 24.183594 L 31.703125 24.191406 L 31.855469 24.207031 L 31.914062 24.226562 L 31.96875 24.257812 L 31.996094 24.277344 L 32.015625 24.292969 L 32.03125 24.320312 L 32.039062 24.34375 L 32.042969 24.371094 L 32.039062 24.390625 L 32.027344 24.410156 L 32.007812 24.429688 L 31.988281 24.441406 L 31.957031 24.445312 L 31.925781 24.453125 L 31.890625 24.460938 L 31.726562 24.464844 L 31.5 24.464844 L 31.433594 24.460938 L 31.371094 24.445312 L 31.308594 24.433594 L 31.261719 24.410156 L 31.222656 24.386719 L 31.207031 24.371094 L 31.195312 24.355469 L 31.1875 24.335938 L 31.1875 24.292969 L 31.195312 24.273438 L 31.199219 24.257812 L 31.210938 24.242188 L 31.242188 24.21875 L 31.285156 24.203125 L 31.339844 24.191406 L 31.402344 24.183594 L 31.46875 24.175781 L 31.542969 24.183594 "/>
<path style=" stroke:none;fill-rule:nonzero;fill:rgb(100%,100%,100%);fill-opacity:1;" d="M 31.53125 24.738281 L 31.675781 24.746094 L 31.816406 24.765625 L 31.878906 24.78125 L 31.933594 24.808594 L 31.953125 24.824219 L 31.96875 24.84375 L 31.988281 24.867188 L 31.996094 24.894531 L 32 24.921875 L 31.996094 24.941406 L 31.988281 24.960938 L 31.96875 24.980469 L 31.945312 24.992188 L 31.921875 24.996094 L 31.890625 25.011719 L 31.851562 25.015625 L 31.703125 25.023438 L 31.492188 25.023438 L 31.429688 25.015625 L 31.371094 25.011719 L 31.316406 24.996094 L 31.265625 24.980469 L 31.230469 24.949219 L 31.21875 24.9375 L 31.207031 24.917969 L 31.199219 24.898438 L 31.195312 24.882812 L 31.199219 24.855469 L 31.199219 24.839844 L 31.210938 24.828125 L 31.21875 24.808594 L 31.246094 24.78125 L 31.289062 24.765625 L 31.339844 24.753906 L 31.394531 24.738281 L 31.53125 24.738281 "/>
<path style=" stroke:none;fill-rule:nonzero;fill:rgb(100%,100%,100%);fill-opacity:1;" d="M 31.519531 25.316406 L 31.664062 25.320312 L 31.804688 25.339844 L 31.867188 25.359375 L 31.921875 25.386719 L 31.941406 25.402344 L 31.957031 25.425781 L 31.980469 25.472656 L 31.988281 25.5 L 31.980469 25.523438 L 31.96875 25.542969 L 31.957031 25.554688 L 31.910156 25.578125 L 31.878906 25.585938 L 31.84375 25.589844 L 31.6875 25.597656 L 31.542969 25.597656 L 31.480469 25.601562 L 31.414062 25.597656 L 31.359375 25.589844 L 31.304688 25.574219 L 31.253906 25.554688 L 31.21875 25.53125 L 31.207031 25.511719 L 31.195312 25.5 L 31.1875 25.480469 L 31.179688 25.457031 L 31.179688 25.4375 L 31.1875 25.417969 L 31.195312 25.402344 L 31.207031 25.386719 L 31.234375 25.363281 L 31.28125 25.339844 L 31.328125 25.328125 L 31.382812 25.320312 L 31.445312 25.316406 L 31.519531 25.316406 "/>
<path style=" stroke:none;fill-rule:nonzero;fill:rgb(100%,100%,100%);fill-opacity:1;" d="M 31.535156 25.878906 L 31.683594 25.882812 L 31.824219 25.902344 L 31.886719 25.921875 L 31.941406 25.945312 L 31.964844 25.964844 L 31.980469 25.988281 L 31.996094 26.007812 L 32 26.035156 L 32.007812 26.0625 L 32.007812 26.085938 L 31.996094 26.105469 L 31.976562 26.117188 L 31.953125 26.128906 L 31.925781 26.140625 L 31.898438 26.148438 L 31.867188 26.152344 L 31.714844 26.160156 L 31.4375 26.160156 L 31.320312 26.136719 L 31.273438 26.117188 L 31.234375 26.09375 L 31.210938 26.054688 L 31.207031 26.035156 L 31.207031 26 L 31.210938 25.980469 L 31.21875 25.964844 L 31.222656 25.953125 L 31.253906 25.921875 L 31.296875 25.902344 L 31.34375 25.890625 L 31.402344 25.882812 L 31.46875 25.878906 L 31.535156 25.878906 "/>
<path style=" stroke:none;fill-rule:nonzero;fill:rgb(100%,100%,100%);fill-opacity:1;" d="M 31.535156 26.507812 L 31.683594 26.515625 L 31.824219 26.527344 L 31.890625 26.542969 L 31.941406 26.570312 L 31.964844 26.585938 L 31.980469 26.605469 L 32.007812 26.660156 L 32.011719 26.683594 L 32.007812 26.710938 L 31.992188 26.726562 L 31.980469 26.742188 L 31.933594 26.765625 L 31.902344 26.769531 L 31.867188 26.777344 L 31.714844 26.789062 L 31.4375 26.789062 L 31.382812 26.78125 L 31.328125 26.769531 L 31.277344 26.753906 L 31.242188 26.726562 L 31.230469 26.710938 L 31.21875 26.691406 L 31.210938 26.671875 L 31.207031 26.65625 L 31.207031 26.636719 L 31.210938 26.617188 L 31.21875 26.597656 L 31.230469 26.582031 L 31.261719 26.554688 L 31.296875 26.539062 L 31.34375 26.527344 L 31.402344 26.515625 L 31.46875 26.507812 L 31.535156 26.507812 "/>
<path style=" stroke:none;fill-rule:nonzero;fill:rgb(100%,100%,100%);fill-opacity:1;" d="M 31.558594 27.09375 L 31.714844 27.101562 L 31.867188 27.121094 L 31.933594 27.136719 L 31.988281 27.164062 L 32.011719 27.179688 L 32.03125 27.199219 L 32.050781 27.222656 L 32.0625 27.25 L 32.0625 27.296875 L 32.050781 27.316406 L 32.03125 27.328125 L 32.007812 27.347656 L 31.980469 27.351562 L 31.945312 27.359375 L 31.914062 27.363281 L 31.75 27.378906 L 31.597656 27.378906 L 31.523438 27.382812 L 31.457031 27.378906 L 31.394531 27.371094 L 31.335938 27.359375 L 31.285156 27.339844 L 31.246094 27.316406 L 31.230469 27.296875 L 31.21875 27.28125 L 31.210938 27.261719 L 31.207031 27.242188 L 31.207031 27.222656 L 31.210938 27.207031 L 31.21875 27.1875 L 31.261719 27.144531 L 31.304688 27.125 L 31.359375 27.113281 L 31.417969 27.101562 L 31.488281 27.09375 L 31.558594 27.09375 "/>
<path style=" stroke:none;fill-rule:nonzero;fill:rgb(100%,100%,100%);fill-opacity:1;" d="M 31.621094 27.664062 L 31.78125 27.664062 L 31.925781 27.683594 L 31.992188 27.703125 L 32.050781 27.726562 L 32.074219 27.742188 L 32.09375 27.761719 L 32.109375 27.785156 L 32.121094 27.8125 L 32.128906 27.835938 L 32.121094 27.859375 L 32.109375 27.878906 L 32.09375 27.898438 L 32.074219 27.910156 L 32.042969 27.914062 L 32.011719 27.921875 L 31.976562 27.925781 L 31.8125 27.941406 L 31.65625 27.941406 L 31.589844 27.945312 L 31.523438 27.941406 L 31.457031 27.933594 L 31.402344 27.921875 L 31.34375 27.902344 L 31.308594 27.878906 L 31.277344 27.847656 L 31.273438 27.828125 L 31.273438 27.769531 L 31.285156 27.75 L 31.289062 27.738281 L 31.328125 27.707031 L 31.371094 27.6875 L 31.417969 27.675781 L 31.480469 27.664062 L 31.621094 27.664062 "/>
<path style=" stroke:none;fill-rule:nonzero;fill:rgb(100%,100%,100%);fill-opacity:1;" d="M 31.652344 28.203125 L 31.8125 28.207031 L 31.957031 28.226562 L 32.027344 28.238281 L 32.082031 28.265625 L 32.105469 28.28125 L 32.121094 28.300781 L 32.140625 28.320312 L 32.15625 28.34375 L 32.160156 28.367188 L 32.15625 28.386719 L 32.140625 28.40625 L 32.121094 28.417969 L 32.105469 28.429688 L 32.074219 28.433594 L 32.042969 28.441406 L 32.007812 28.449219 L 31.84375 28.460938 L 31.558594 28.460938 L 31.503906 28.453125 L 31.460938 28.441406 L 31.417969 28.421875 L 31.390625 28.398438 L 31.382812 28.386719 L 31.371094 28.375 L 31.363281 28.355469 L 31.363281 28.300781 L 31.378906 28.269531 L 31.394531 28.25 L 31.429688 28.234375 L 31.46875 28.21875 L 31.523438 28.207031 L 31.585938 28.203125 L 31.652344 28.203125 "/>
<path style=" stroke:none;fill-rule:nonzero;fill:rgb(100%,100%,100%);fill-opacity:1;" d="M 31.730469 28.734375 L 31.871094 28.734375 L 32.011719 28.753906 L 32.074219 28.765625 L 32.128906 28.785156 L 32.148438 28.796875 L 32.164062 28.808594 L 32.183594 28.828125 L 32.191406 28.84375 L 32.195312 28.863281 L 32.195312 28.882812 L 32.183594 28.894531 L 32.164062 28.90625 L 32.121094 28.917969 L 32.054688 28.929688 L 31.910156 28.9375 L 31.703125 28.9375 L 31.652344 28.929688 L 31.609375 28.929688 L 31.574219 28.917969 L 31.542969 28.90625 L 31.523438 28.886719 L 31.511719 28.863281 L 31.507812 28.839844 L 31.507812 28.808594 L 31.511719 28.785156 L 31.523438 28.765625 L 31.542969 28.753906 L 31.574219 28.742188 L 31.613281 28.734375 L 31.730469 28.734375 "/>
<path style=" stroke:none;fill-rule:nonzero;fill:rgb(100%,100%,100%);fill-opacity:1;" d="M 32.136719 29.207031 L 32.183594 29.207031 L 32.226562 29.210938 L 32.246094 29.222656 L 32.257812 29.242188 L 32.269531 29.265625 L 32.277344 29.304688 L 32.277344 29.335938 L 32.269531 29.359375 L 32.25 29.378906 L 32.230469 29.390625 L 32.191406 29.402344 L 32.140625 29.402344 L 32.121094 29.40625 L 32.105469 29.40625 L 32.085938 29.402344 L 32.066406 29.390625 L 32.054688 29.378906 L 32.042969 29.363281 L 32.035156 29.339844 L 32.035156 29.285156 L 32.042969 29.261719 L 32.046875 29.242188 L 32.066406 29.230469 L 32.097656 29.207031 L 32.136719 29.207031 "/>
<path style=" stroke:none;fill-rule:nonzero;fill:rgb(100%,100%,100%);fill-opacity:1;" d="M 31.492188 29.058594 L 31.253906 28.925781 L 31.027344 28.769531 L 30.808594 28.605469 L 30.597656 28.421875 L 30.40625 28.226562 L 30.21875 28.019531 L 30.035156 27.792969 L 29.871094 27.558594 L 29.714844 27.308594 L 29.558594 27.050781 L 29.417969 26.789062 L 29.285156 26.515625 L 29.160156 26.226562 L 29.046875 25.9375 L 28.941406 25.644531 L 28.84375 25.34375 L 28.753906 25.039062 L 28.671875 24.734375 L 28.597656 24.421875 L 28.53125 24.117188 L 28.472656 23.804688 L 28.421875 23.492188 L 28.378906 23.179688 L 28.34375 22.875 L 28.3125 22.574219 L 28.289062 22.269531 L 28.277344 21.976562 L 28.261719 21.6875 L 28.261719 21.132812 L 28.277344 20.863281 L 28.289062 20.605469 L 28.289062 20.410156 L 28.28125 20.230469 L 28.261719 20.074219 L 28.238281 19.9375 L 28.226562 19.878906 L 28.191406 19.773438 L 28.164062 19.730469 L 28.148438 19.695312 L 28.089844 19.636719 L 28.0625 19.613281 L 27.523438 19.257812 L 26.976562 18.910156 L 26.425781 18.582031 L 25.878906 18.25 L 25.3125 17.9375 L 24.75 17.632812 L 24.175781 17.34375 L 23.605469 17.0625 L 23.027344 16.789062 L 22.445312 16.53125 L 21.859375 16.285156 L 21.269531 16.054688 L 20.675781 15.828125 L 20.085938 15.617188 L 19.484375 15.417969 L 18.886719 15.234375 L 18.285156 15.054688 L 17.679688 14.898438 L 17.082031 14.75 L 16.472656 14.617188 L 15.867188 14.492188 L 15.261719 14.382812 L 14.652344 14.285156 L 14.046875 14.207031 L 13.441406 14.140625 L 12.835938 14.082031 L 12.234375 14.039062 L 11.628906 14.015625 L 11.03125 14.003906 L 10.429688 14.003906 L 9.832031 14.023438 L 9.238281 14.054688 L 9.152344 14.054688 L 9.078125 14.046875 L 9.046875 14.039062 L 9.023438 14.035156 L 9 14.023438 L 8.945312 13.96875 L 8.90625 13.910156 L 8.875 13.851562 L 8.839844 13.765625 L 8.75 13.53125 L 8.664062 13.292969 L 8.582031 13.042969 L 8.511719 12.792969 L 8.449219 12.535156 L 8.394531 12.28125 L 8.351562 12.023438 L 8.320312 11.773438 L 8.3125 11.722656 L 8.320312 11.679688 L 8.332031 11.636719 L 8.351562 11.601562 L 8.375 11.570312 L 8.414062 11.542969 L 8.449219 11.519531 L 8.5 11.507812 L 8.894531 11.464844 L 9.328125 11.441406 L 9.792969 11.433594 L 10.296875 11.449219 L 10.828125 11.472656 L 11.390625 11.515625 L 11.976562 11.574219 L 12.589844 11.65625 L 13.226562 11.753906 L 13.882812 11.863281 L 14.554688 11.992188 L 15.246094 12.132812 L 15.949219 12.296875 L 16.664062 12.476562 L 17.394531 12.671875 L 18.128906 12.886719 L 18.859375 13.109375 L 19.605469 13.355469 L 20.347656 13.617188 L 21.09375 13.894531 L 21.835938 14.1875 L 22.566406 14.5 L 23.296875 14.832031 L 24.019531 15.171875 L 24.726562 15.535156 L 25.417969 15.914062 L 26.097656 16.304688 L 26.765625 16.714844 L 27.40625 17.144531 L 28.023438 17.582031 L 28.617188 18.046875 L 29.195312 18.519531 L 29.300781 18.640625 L 29.394531 18.75 L 29.472656 18.847656 L 29.535156 18.933594 L 29.578125 19.015625 L 29.609375 19.089844 L 29.621094 19.15625 L 29.628906 19.222656 L 29.628906 19.289062 L 29.613281 19.355469 L 29.597656 19.4375 L 29.574219 19.515625 L 29.511719 19.710938 L 29.445312 19.957031 L 29.394531 20.175781 L 29.355469 20.414062 L 29.320312 20.660156 L 29.289062 20.917969 L 29.265625 21.1875 L 29.246094 21.46875 L 29.234375 21.753906 L 29.230469 22.046875 L 29.230469 22.355469 L 29.242188 22.660156 L 29.253906 22.972656 L 29.277344 23.289062 L 29.308594 23.613281 L 29.34375 23.941406 L 29.390625 24.261719 L 29.445312 24.585938 L 29.503906 24.910156 L 29.574219 25.230469 L 29.652344 25.554688 L 29.738281 25.871094 L 29.828125 26.183594 L 29.933594 26.488281 L 30.042969 26.789062 L 30.164062 27.082031 L 30.300781 27.371094 L 30.441406 27.644531 L 30.585938 27.910156 L 30.746094 28.164062 L 30.917969 28.410156 L 31.101562 28.636719 L 31.289062 28.855469 L 31.492188 29.058594 "/>
<path style=" stroke:none;fill-rule:nonzero;fill:rgb(100%,100%,100%);fill-opacity:1;" d="M 27.578125 42.890625 L 27.808594 42.695312 L 28.035156 42.484375 L 28.261719 42.277344 L 28.488281 42.066406 L 28.710938 41.839844 L 28.921875 41.609375 L 29.136719 41.378906 L 29.339844 41.136719 L 29.539062 40.890625 L 29.738281 40.640625 L 29.925781 40.390625 L 30.109375 40.125 L 30.289062 39.863281 L 30.460938 39.59375 L 30.617188 39.320312 L 30.773438 39.035156 L 30.917969 38.757812 L 31.058594 38.46875 L 31.1875 38.179688 L 31.304688 37.882812 L 31.414062 37.585938 L 31.511719 37.28125 L 31.601562 36.980469 L 31.683594 36.667969 L 31.75 36.355469 L 31.804688 36.042969 L 31.847656 35.726562 L 31.878906 35.410156 L 31.898438 35.085938 L 31.902344 34.761719 L 31.898438 34.4375 L 31.878906 34.105469 L 31.851562 33.933594 L 31.828125 33.765625 L 31.792969 33.59375 L 31.757812 33.425781 L 31.714844 33.269531 L 31.664062 33.109375 L 31.609375 32.960938 L 31.558594 32.820312 L 31.457031 32.570312 L 31.359375 32.363281 L 31.285156 32.210938 L 31.230469 32.109375 L 31.132812 31.941406 L 31.027344 31.777344 L 30.917969 31.609375 L 30.808594 31.453125 L 30.574219 31.132812 L 30.453125 30.984375 L 30.324219 30.832031 L 30.203125 30.6875 L 30.066406 30.546875 L 29.941406 30.40625 L 29.804688 30.265625 L 29.664062 30.128906 L 29.53125 29.996094 L 29.382812 29.867188 L 29.242188 29.730469 L 28.949219 29.480469 L 28.648438 29.242188 L 28.34375 29.011719 L 28.03125 28.777344 L 27.71875 28.558594 L 27.402344 28.34375 L 27.078125 28.136719 L 26.757812 27.933594 L 26.410156 27.71875 L 26.0625 27.519531 L 25.71875 27.320312 L 25.375 27.136719 L 25.027344 26.960938 L 24.679688 26.789062 L 24.3125 26.617188 L 23.933594 26.453125 L 23.429688 26.25 L 22.921875 26.050781 L 22.660156 25.957031 L 22.402344 25.859375 L 22.140625 25.773438 L 21.871094 25.6875 L 21.609375 25.601562 L 21.34375 25.53125 L 21.074219 25.457031 L 20.8125 25.386719 L 20.542969 25.320312 L 20.28125 25.265625 L 20.011719 25.210938 L 19.746094 25.167969 L 19.34375 25.09375 L 18.933594 25.019531 L 18.523438 24.941406 L 18.113281 24.867188 L 17.90625 24.839844 L 17.707031 24.808594 L 17.496094 24.78125 L 17.289062 24.765625 L 17.085938 24.746094 L 16.878906 24.734375 L 16.464844 24.734375 L 16.273438 24.738281 L 16.023438 24.738281 L 15.785156 24.746094 L 15.625 24.753906 L 15.566406 24.757812 L 15.480469 24.753906 L 15.386719 24.738281 L 15.292969 24.726562 L 15.210938 24.714844 L 15.140625 24.695312 L 15.109375 24.691406 L 15.09375 24.683594 L 15.082031 24.671875 L 15.082031 24.667969 L 14.933594 24.574219 L 14.792969 24.476562 L 14.660156 24.378906 L 14.53125 24.28125 L 14.28125 24.085938 L 14.039062 23.878906 L 13.816406 23.675781 L 13.589844 23.472656 L 13.367188 23.265625 L 13.148438 23.058594 L 13.105469 22.984375 L 13.074219 22.921875 L 13.074219 22.894531 L 13.082031 22.863281 L 13.097656 22.835938 L 13.140625 22.808594 L 13.203125 22.769531 L 13.277344 22.734375 L 13.378906 22.695312 L 13.53125 22.660156 L 13.832031 22.605469 L 14.140625 22.5625 L 14.445312 22.527344 L 14.757812 22.496094 L 15.070312 22.480469 L 15.386719 22.46875 L 15.699219 22.476562 L 16.015625 22.480469 L 16.335938 22.5 L 16.652344 22.527344 L 16.96875 22.5625 L 17.289062 22.605469 L 17.605469 22.652344 L 17.917969 22.710938 L 18.238281 22.769531 L 18.546875 22.84375 L 18.859375 22.917969 L 19.167969 22.996094 L 19.472656 23.082031 L 19.777344 23.171875 L 20.078125 23.273438 L 20.371094 23.375 L 20.664062 23.484375 L 20.945312 23.597656 L 21.234375 23.707031 L 21.507812 23.828125 L 21.777344 23.953125 L 22.046875 24.074219 L 22.5625 24.332031 L 22.804688 24.464844 L 23.042969 24.597656 L 23.296875 24.738281 L 23.550781 24.882812 L 23.664062 24.949219 L 23.765625 25.007812 L 23.859375 25.066406 L 23.917969 25.113281 L 23.949219 25.136719 L 23.980469 25.15625 L 24.003906 25.175781 L 24.035156 25.1875 L 24.066406 25.191406 L 24.097656 25.199219 L 24.15625 25.199219 L 24.1875 25.191406 L 24.242188 25.167969 L 24.269531 25.152344 L 24.300781 25.132812 L 24.347656 25.078125 L 24.371094 25.046875 L 24.390625 25.007812 L 24.402344 24.980469 L 24.410156 24.941406 L 24.410156 24.867188 L 24.402344 24.828125 L 24.390625 24.789062 L 24.371094 24.753906 L 24.355469 24.722656 L 24.328125 24.683594 L 24.304688 24.65625 L 24.242188 24.59375 L 24.207031 24.570312 L 24.175781 24.550781 L 24.140625 24.53125 L 23.761719 24.304688 L 23.382812 24.09375 L 23.007812 23.890625 L 22.636719 23.699219 L 22.257812 23.515625 L 21.890625 23.34375 L 21.515625 23.1875 L 21.148438 23.03125 L 20.78125 22.894531 L 20.421875 22.765625 L 20.058594 22.640625 L 19.699219 22.53125 L 19.34375 22.433594 L 18.996094 22.34375 L 18.648438 22.257812 L 18.304688 22.183594 L 17.96875 22.117188 L 17.636719 22.058594 L 17.308594 22.011719 L 16.984375 21.96875 L 16.664062 21.9375 L 16.351562 21.914062 L 16.039062 21.894531 L 15.742188 21.882812 L 15.449219 21.882812 L 15.160156 21.890625 L 14.871094 21.902344 L 14.601562 21.917969 L 14.335938 21.945312 L 14.070312 21.980469 L 13.820312 22.019531 L 13.574219 22.0625 L 13.363281 22.101562 L 13.140625 22.140625 L 13.03125 22.160156 L 12.933594 22.171875 L 12.847656 22.175781 L 12.761719 22.175781 L 12.738281 22.164062 L 12.714844 22.140625 L 12.683594 22.117188 L 12.601562 22.042969 L 12.503906 21.949219 L 12.285156 21.710938 L 12.027344 21.4375 L 11.769531 21.148438 L 11.539062 20.886719 L 11.34375 20.679688 L 11.21875 20.550781 L 11.109375 20.453125 L 11.054688 20.402344 L 11.042969 20.378906 L 11.035156 20.355469 L 11.035156 20.328125 L 11.042969 20.285156 L 11.046875 20.25 L 11.074219 20.207031 L 11.105469 20.171875 L 11.148438 20.140625 L 11.203125 20.109375 L 11.277344 20.074219 L 11.359375 20.035156 L 11.472656 20 L 11.582031 19.957031 L 11.800781 19.894531 L 11.910156 19.871094 L 12.132812 19.828125 L 12.359375 19.789062 L 12.492188 19.773438 L 12.640625 19.753906 L 12.804688 19.730469 L 12.988281 19.710938 L 13.175781 19.691406 L 13.378906 19.679688 L 13.585938 19.679688 L 13.800781 19.6875 L 14.078125 19.707031 L 14.359375 19.722656 L 14.644531 19.746094 L 14.945312 19.777344 L 15.25 19.816406 L 15.558594 19.851562 L 15.867188 19.894531 L 16.1875 19.949219 L 16.835938 20.058594 L 17.160156 20.128906 L 17.488281 20.199219 L 17.820312 20.28125 L 18.144531 20.367188 L 18.476562 20.453125 L 18.800781 20.550781 L 19.125 20.652344 L 19.449219 20.757812 L 19.765625 20.863281 L 20.085938 20.972656 L 20.402344 21.074219 L 20.714844 21.183594 L 21.019531 21.300781 L 21.328125 21.417969 L 21.625 21.535156 L 21.917969 21.652344 L 22.480469 21.894531 L 22.757812 22.019531 L 23.019531 22.144531 L 23.277344 22.269531 L 23.523438 22.402344 L 23.582031 22.425781 L 23.644531 22.453125 L 23.699219 22.46875 L 23.761719 22.480469 L 23.835938 22.480469 L 23.894531 22.476562 L 23.917969 22.464844 L 23.945312 22.457031 L 23.964844 22.445312 L 23.980469 22.425781 L 24.011719 22.398438 L 24.03125 22.355469 L 24.042969 22.304688 L 24.042969 22.257812 L 24.035156 22.207031 L 24.019531 22.152344 L 23.992188 22.101562 L 23.964844 22.046875 L 23.925781 22 L 23.882812 21.957031 L 23.828125 21.914062 L 23.773438 21.882812 L 23.652344 21.824219 L 23.515625 21.761719 L 23.367188 21.695312 L 23.222656 21.625 L 22.921875 21.484375 L 22.628906 21.34375 L 22.335938 21.210938 L 22.035156 21.082031 L 21.742188 20.953125 L 21.441406 20.835938 L 21.148438 20.714844 L 20.855469 20.605469 L 20.554688 20.496094 L 20.261719 20.386719 L 19.960938 20.285156 L 19.660156 20.1875 L 19.367188 20.089844 L 19.070312 20.003906 L 18.769531 19.917969 L 18.464844 19.835938 L 17.863281 19.6875 L 17.558594 19.613281 L 17.25 19.554688 L 16.945312 19.492188 L 16.335938 19.382812 L 16.023438 19.332031 L 15.398438 19.246094 L 15.085938 19.210938 L 14.769531 19.179688 L 14.449219 19.15625 L 14.132812 19.128906 L 13.808594 19.113281 L 13.484375 19.101562 L 13.226562 19.09375 L 12.964844 19.101562 L 12.695312 19.117188 L 12.425781 19.144531 L 12.164062 19.183594 L 11.898438 19.234375 L 11.640625 19.296875 L 11.390625 19.363281 L 11.246094 19.417969 L 11.109375 19.472656 L 11.078125 19.480469 L 11.042969 19.484375 L 11.011719 19.484375 L 10.976562 19.480469 L 10.945312 19.472656 L 10.90625 19.460938 L 10.871094 19.449219 L 10.835938 19.425781 L 10.773438 19.367188 L 10.699219 19.285156 L 10.609375 19.167969 L 10.511719 19.03125 L 10.40625 18.878906 L 10.300781 18.707031 L 10.191406 18.535156 L 10.089844 18.351562 L 9.984375 18.175781 L 9.886719 18.003906 L 9.800781 17.839844 L 9.726562 17.691406 L 9.667969 17.570312 L 9.625 17.46875 L 9.613281 17.421875 L 9.601562 17.394531 L 9.601562 17.351562 L 9.617188 17.339844 L 9.648438 17.320312 L 9.699219 17.300781 L 9.753906 17.28125 L 9.898438 17.238281 L 10.058594 17.199219 L 10.222656 17.15625 L 10.371094 17.125 L 10.472656 17.097656 L 10.53125 17.09375 L 10.664062 17.085938 L 10.808594 17.074219 L 10.964844 17.058594 L 11.136719 17.042969 L 11.316406 17.027344 L 11.53125 17.007812 L 11.769531 16.988281 L 12.039062 16.976562 L 12.332031 16.964844 L 12.644531 16.972656 L 12.988281 16.984375 L 13.355469 17 L 13.753906 17.039062 L 14.179688 17.082031 L 14.652344 17.136719 L 15.164062 17.203125 L 15.40625 17.238281 L 15.648438 17.277344 L 15.898438 17.320312 L 16.152344 17.363281 L 16.652344 17.460938 L 17.160156 17.578125 L 17.667969 17.707031 L 18.175781 17.839844 L 18.6875 17.992188 L 19.195312 18.152344 L 19.703125 18.324219 L 20.207031 18.5 L 20.703125 18.691406 L 21.191406 18.890625 L 21.667969 19.09375 L 22.140625 19.308594 L 22.597656 19.527344 L 23.039062 19.753906 L 23.117188 19.789062 L 23.199219 19.820312 L 23.234375 19.835938 L 23.269531 19.847656 L 23.300781 19.847656 L 23.339844 19.851562 L 23.367188 19.847656 L 23.398438 19.839844 L 23.429688 19.828125 L 23.476562 19.78125 L 23.503906 19.742188 L 23.523438 19.699219 L 23.535156 19.644531 L 23.539062 19.621094 L 23.535156 19.589844 L 23.527344 19.566406 L 23.515625 19.535156 L 23.480469 19.472656 L 23.421875 19.417969 L 23.363281 19.367188 L 23.296875 19.320312 L 23.226562 19.277344 L 23.15625 19.242188 L 22.996094 19.167969 L 22.800781 19.070312 L 22.597656 18.964844 L 22.414062 18.878906 L 22.015625 18.714844 L 21.617188 18.542969 L 21.214844 18.382812 L 20.804688 18.226562 L 20.394531 18.078125 L 19.992188 17.929688 L 19.582031 17.789062 L 19.179688 17.65625 L 19.011719 17.601562 L 18.769531 17.527344 L 18.503906 17.453125 L 18.304688 17.394531 L 18.21875 17.367188 L 18.109375 17.332031 L 17.980469 17.300781 L 17.832031 17.257812 L 17.679688 17.222656 L 17.519531 17.179688 L 17.355469 17.144531 L 17.191406 17.113281 L 17 17.074219 L 16.761719 17.027344 L 16.5 16.976562 L 16.21875 16.921875 L 15.953125 16.867188 L 15.710938 16.824219 L 15.519531 16.78125 L 15.390625 16.757812 L 15.257812 16.738281 L 15.0625 16.707031 L 14.808594 16.683594 L 14.261719 16.621094 L 13.992188 16.59375 L 13.765625 16.574219 L 13.59375 16.554688 L 13.386719 16.535156 L 13.171875 16.523438 L 12.945312 16.511719 L 12.71875 16.507812 L 12.253906 16.496094 L 11.777344 16.5 L 11.539062 16.507812 L 11.304688 16.519531 L 11.066406 16.53125 L 10.835938 16.550781 L 10.609375 16.566406 L 10.386719 16.59375 L 10.171875 16.621094 L 9.964844 16.652344 L 9.878906 16.664062 L 9.8125 16.671875 L 9.757812 16.671875 L 9.726562 16.660156 L 9.679688 16.621094 L 9.625 16.5625 L 9.5625 16.488281 L 9.5 16.394531 L 9.367188 16.1875 L 9.230469 15.945312 L 9.097656 15.691406 L 8.976562 15.453125 L 8.863281 15.246094 L 8.785156 15.09375 L 8.75 15.027344 L 8.71875 14.957031 L 8.6875 14.898438 L 8.667969 14.832031 L 8.664062 14.800781 L 8.667969 14.769531 L 8.695312 14.714844 L 8.71875 14.691406 L 8.753906 14.671875 L 8.796875 14.652344 L 8.851562 14.632812 L 8.925781 14.617188 L 9.011719 14.597656 L 9.109375 14.585938 L 9.214844 14.574219 L 9.433594 14.554688 L 9.667969 14.535156 L 9.878906 14.523438 L 10.070312 14.519531 L 10.21875 14.511719 L 10.296875 14.511719 L 10.539062 14.5 L 10.835938 14.492188 L 11.164062 14.492188 L 11.507812 14.5 L 11.839844 14.5 L 12.144531 14.507812 L 12.40625 14.511719 L 12.597656 14.519531 L 12.773438 14.53125 L 13 14.546875 L 13.269531 14.578125 L 13.5625 14.609375 L 13.875 14.648438 L 14.199219 14.6875 L 14.53125 14.730469 L 14.847656 14.78125 L 15.191406 14.835938 L 15.542969 14.898438 L 15.898438 14.964844 L 16.253906 15.039062 L 16.609375 15.117188 L 16.964844 15.203125 L 17.324219 15.292969 L 17.679688 15.386719 L 18.042969 15.484375 L 18.394531 15.589844 L 18.746094 15.691406 L 19.449219 15.910156 L 19.789062 16.023438 L 20.132812 16.140625 L 20.46875 16.253906 L 20.800781 16.378906 L 21.171875 16.519531 L 21.570312 16.671875 L 21.972656 16.835938 L 22.371094 17 L 22.738281 17.160156 L 23.0625 17.3125 L 23.328125 17.441406 L 23.609375 17.582031 L 23.882812 17.730469 L 24.164062 17.875 L 24.445312 18.023438 L 24.726562 18.175781 L 25.007812 18.335938 L 25.289062 18.492188 L 25.570312 18.652344 L 25.847656 18.816406 L 26.121094 18.984375 L 26.398438 19.15625 L 26.664062 19.324219 L 26.933594 19.496094 L 27.199219 19.675781 L 27.457031 19.859375 L 27.710938 20.042969 L 27.742188 20.066406 L 27.769531 20.089844 L 27.792969 20.113281 L 27.808594 20.140625 L 27.835938 20.1875 L 27.847656 20.238281 L 27.847656 20.324219 L 27.839844 20.378906 L 27.839844 20.464844 L 27.835938 20.597656 L 27.828125 20.734375 L 27.828125 20.820312 L 27.824219 20.964844 L 27.816406 21.242188 L 27.808594 21.527344 L 27.804688 21.722656 L 27.796875 21.957031 L 27.796875 22.1875 L 27.804688 22.425781 L 27.824219 22.664062 L 27.839844 22.90625 L 27.867188 23.148438 L 27.898438 23.386719 L 27.933594 23.632812 L 27.96875 23.871094 L 28.019531 24.109375 L 28.066406 24.347656 L 28.121094 24.582031 L 28.175781 24.808594 L 28.246094 25.03125 L 28.304688 25.253906 L 28.378906 25.46875 L 28.410156 25.558594 L 28.460938 25.699219 L 28.519531 25.863281 L 28.589844 26.042969 L 28.65625 26.226562 L 28.714844 26.386719 L 28.765625 26.511719 L 28.800781 26.585938 L 28.839844 26.660156 L 28.898438 26.777344 L 28.980469 26.921875 L 29.058594 27.082031 L 29.144531 27.246094 L 29.230469 27.402344 L 29.304688 27.53125 L 29.359375 27.621094 L 29.4375 27.742188 L 29.523438 27.867188 L 29.609375 27.980469 L 29.703125 28.097656 L 29.792969 28.207031 L 29.890625 28.324219 L 29.988281 28.433594 L 30.085938 28.539062 L 30.289062 28.746094 L 30.503906 28.949219 L 30.722656 29.144531 L 30.945312 29.328125 L 31.070312 29.425781 L 31.207031 29.523438 L 31.351562 29.621094 L 31.5 29.714844 L 31.652344 29.796875 L 31.804688 29.886719 L 31.96875 29.96875 L 32.136719 30.042969 L 32.300781 30.121094 L 32.472656 30.191406 L 32.648438 30.265625 L 32.828125 30.324219 L 33.011719 30.386719 L 33.378906 30.496094 L 33.5625 30.542969 L 33.75 30.589844 L 33.933594 30.632812 L 34.125 30.667969 L 34.3125 30.703125 L 34.503906 30.734375 L 34.6875 30.757812 L 34.875 30.777344 L 35.058594 30.796875 L 35.242188 30.808594 L 35.425781 30.816406 L 35.609375 30.820312 L 35.785156 30.820312 L 35.960938 30.816406 L 36.128906 30.808594 L 36.300781 30.789062 L 36.46875 30.773438 L 36.679688 30.753906 L 36.890625 30.722656 L 37.28125 30.660156 L 37.464844 30.617188 L 37.640625 30.582031 L 37.8125 30.539062 L 37.984375 30.488281 L 38.144531 30.441406 L 38.300781 30.386719 L 38.460938 30.332031 L 38.613281 30.277344 L 38.90625 30.160156 L 39.207031 30.042969 L 39.316406 29.996094 L 39.441406 29.941406 L 39.5625 29.878906 L 39.691406 29.8125 L 39.953125 29.664062 L 40.21875 29.5 L 40.472656 29.335938 L 40.71875 29.167969 L 40.835938 29.082031 L 40.9375 29.003906 L 41.035156 28.921875 L 41.121094 28.851562 L 41.15625 28.8125 L 41.195312 28.796875 L 41.21875 28.777344 L 41.242188 28.769531 L 41.261719 28.769531 L 41.28125 28.78125 L 41.300781 28.796875 L 41.316406 28.828125 L 41.359375 28.90625 L 41.410156 29.003906 L 41.453125 29.105469 L 41.488281 29.21875 L 41.5625 29.445312 L 41.617188 29.640625 L 41.699219 29.902344 L 41.757812 30.160156 L 41.8125 30.421875 L 41.855469 30.679688 L 41.886719 30.941406 L 41.910156 31.199219 L 41.921875 31.457031 L 41.921875 31.714844 L 41.917969 31.96875 L 41.898438 32.222656 L 41.875 32.476562 L 41.839844 32.730469 L 41.792969 32.980469 L 41.746094 33.222656 L 41.683594 33.476562 L 41.617188 33.71875 L 41.539062 33.964844 L 41.460938 34.203125 L 41.367188 34.441406 L 41.269531 34.679688 L 41.164062 34.914062 L 41.054688 35.144531 L 40.933594 35.378906 L 40.808594 35.605469 L 40.679688 35.832031 L 40.546875 36.050781 L 40.40625 36.269531 L 40.261719 36.484375 L 39.949219 36.914062 L 39.789062 37.121094 L 39.621094 37.324219 L 39.390625 37.59375 L 39.152344 37.859375 L 38.902344 38.117188 L 38.644531 38.363281 L 38.382812 38.605469 L 38.105469 38.84375 L 37.824219 39.074219 L 37.542969 39.292969 L 37.25 39.507812 L 36.949219 39.714844 L 36.652344 39.917969 L 36.34375 40.105469 L 36.03125 40.296875 L 35.714844 40.472656 L 35.398438 40.652344 L 35.078125 40.816406 L 34.753906 40.972656 L 34.429688 41.132812 L 34.097656 41.28125 L 33.777344 41.421875 L 33.445312 41.554688 L 33.113281 41.691406 L 32.785156 41.8125 L 32.460938 41.929688 L 32.128906 42.039062 L 31.804688 42.148438 L 31.480469 42.246094 L 31.15625 42.339844 L 30.839844 42.429688 L 30.527344 42.511719 L 30.214844 42.589844 L 29.902344 42.664062 L 29.730469 42.699219 L 29.445312 42.753906 L 29.082031 42.828125 L 28.691406 42.894531 L 28.300781 42.964844 L 27.957031 43.019531 L 27.808594 43.035156 L 27.6875 43.042969 L 27.601562 43.046875 L 27.546875 43.042969 L 27.527344 43.035156 L 27.523438 43.023438 L 27.515625 43.007812 L 27.515625 42.980469 L 27.523438 42.957031 L 27.535156 42.9375 L 27.554688 42.914062 L 27.578125 42.890625 "/>
<path style=" stroke:none;fill-rule:nonzero;fill:rgb(100%,100%,100%);fill-opacity:1;" d="M 41.652344 16.960938 L 41.597656 16.964844 L 41.550781 16.972656 L 41.507812 16.988281 L 41.46875 17.015625 L 41.414062 17.085938 L 41.398438 17.128906 L 41.386719 17.179688 L 41.378906 17.210938 L 41.378906 17.234375 L 41.386719 17.257812 L 41.390625 17.28125 L 41.414062 17.332031 L 41.445312 17.382812 L 41.488281 17.417969 L 41.542969 17.453125 L 41.597656 17.480469 L 41.660156 17.492188 L 41.714844 17.496094 L 41.777344 17.496094 L 41.832031 17.492188 L 41.878906 17.472656 L 41.898438 17.464844 L 41.917969 17.453125 L 41.933594 17.441406 L 41.949219 17.421875 L 41.960938 17.40625 L 41.972656 17.382812 L 41.976562 17.355469 L 41.976562 17.265625 L 41.953125 17.203125 L 41.921875 17.144531 L 41.878906 17.085938 L 41.832031 17.039062 L 41.769531 17.003906 L 41.746094 16.984375 L 41.714844 16.972656 L 41.683594 16.964844 L 41.652344 16.960938 "/>
<path style=" stroke:none;fill-rule:nonzero;fill:rgb(100%,100%,100%);fill-opacity:1;" d="M 40.949219 24.984375 L 40.902344 24.996094 L 40.851562 24.996094 L 40.796875 24.984375 L 40.734375 24.960938 L 40.679688 24.929688 L 40.621094 24.894531 L 40.558594 24.839844 L 40.492188 24.78125 L 40.421875 24.722656 L 40.363281 24.648438 L 40.296875 24.574219 L 40.226562 24.488281 L 40.09375 24.320312 L 39.964844 24.128906 L 39.835938 23.933594 L 39.71875 23.738281 L 39.609375 23.546875 L 39.511719 23.371094 L 39.425781 23.203125 L 39.359375 23.058594 L 39.308594 22.933594 L 39.28125 22.851562 L 39.222656 22.683594 L 39.167969 22.519531 L 39.128906 22.347656 L 39.089844 22.183594 L 39.054688 22.023438 L 39.03125 21.859375 L 39.003906 21.695312 L 38.980469 21.375 L 38.972656 21.222656 L 38.96875 21.070312 L 38.972656 20.921875 L 38.972656 20.78125 L 38.984375 20.640625 L 39 20.507812 L 39.019531 20.378906 L 39.035156 20.257812 L 39.054688 20.140625 L 39.078125 20.03125 L 39.101562 19.925781 L 39.128906 19.828125 L 39.15625 19.742188 L 39.1875 19.664062 L 39.21875 19.589844 L 39.25 19.527344 L 39.28125 19.480469 L 39.316406 19.4375 L 39.347656 19.40625 L 39.378906 19.386719 L 39.410156 19.375 L 39.445312 19.382812 L 39.46875 19.394531 L 39.53125 19.515625 L 39.660156 19.871094 L 40.367188 22.007812 L 40.40625 22.105469 L 40.492188 22.367188 L 40.621094 22.734375 L 40.769531 23.167969 L 41.042969 23.988281 L 41.140625 24.269531 L 41.183594 24.40625 L 41.195312 24.441406 L 41.203125 24.484375 L 41.203125 24.527344 L 41.207031 24.574219 L 41.203125 24.660156 L 41.191406 24.722656 L 41.183594 24.753906 L 41.171875 24.785156 L 41.152344 24.820312 L 41.128906 24.855469 L 41.054688 24.929688 L 41.007812 24.960938 L 40.949219 24.984375 "/>
<path style=" stroke:none;fill-rule:nonzero;fill:rgb(100%,100%,100%);fill-opacity:1;" d="M 45.320312 22.402344 L 45.269531 22.402344 L 45.230469 22.410156 L 45.203125 22.421875 L 45.183594 22.433594 L 45.175781 22.445312 L 45.175781 22.464844 L 45.183594 22.484375 L 45.195312 22.5 L 45.292969 22.59375 L 45.398438 22.683594 L 45.410156 22.710938 L 45.433594 22.757812 L 45.441406 22.796875 L 45.445312 22.863281 L 45.453125 22.921875 L 45.445312 23.023438 L 45.441406 23.164062 L 45.433594 23.304688 L 45.433594 23.414062 L 45.425781 23.5 L 45.441406 23.65625 L 45.445312 23.71875 L 45.453125 23.742188 L 45.464844 23.769531 L 45.476562 23.785156 L 45.496094 23.796875 L 45.507812 23.804688 L 45.550781 23.804688 L 45.609375 23.78125 L 45.660156 23.742188 L 45.710938 23.699219 L 45.765625 23.652344 L 45.863281 23.546875 L 45.949219 23.4375 L 46.007812 23.351562 L 46.03125 23.316406 L 46.101562 23.1875 L 46.160156 23.066406 L 46.210938 22.953125 L 46.296875 22.734375 L 46.339844 22.617188 L 46.375 22.488281 L 46.414062 22.347656 L 46.417969 22.332031 L 46.417969 22.304688 L 46.414062 22.289062 L 46.414062 22.269531 L 46.394531 22.246094 L 46.371094 22.226562 L 46.339844 22.214844 L 46.308594 22.207031 L 46.277344 22.214844 L 46.246094 22.230469 L 46.210938 22.25 L 46.167969 22.269531 L 46.117188 22.289062 L 46.058594 22.304688 L 45.921875 22.335938 L 45.777344 22.355469 L 45.636719 22.371094 L 45.5 22.390625 L 45.398438 22.398438 L 45.320312 22.402344 "/>
<path style=" stroke:none;fill-rule:nonzero;fill:rgb(100%,100%,100%);fill-opacity:1;" d="M 45.863281 15.523438 L 45.789062 15.566406 L 45.714844 15.605469 L 45.636719 15.644531 L 45.5625 15.675781 L 45.496094 15.699219 L 45.441406 15.710938 L 45.398438 15.710938 L 45.367188 15.660156 L 45.386719 15.617188 L 45.414062 15.566406 L 45.464844 15.503906 L 45.585938 15.382812 L 45.65625 15.324219 L 45.722656 15.277344 L 45.789062 15.238281 L 45.851562 15.203125 L 45.910156 15.183594 L 45.96875 15.167969 L 46.015625 15.160156 L 46.058594 15.160156 L 46.101562 15.183594 L 46.113281 15.222656 L 46.113281 15.257812 L 46.09375 15.296875 L 46.066406 15.339844 L 46.027344 15.386719 L 45.976562 15.429688 L 45.921875 15.476562 Z M 42.484375 13.472656 L 42.472656 13.519531 L 42.460938 13.574219 L 42.449219 13.625 L 42.429688 13.671875 L 42.410156 13.714844 L 42.375 13.757812 L 42.339844 13.777344 L 42.296875 13.742188 L 42.277344 13.703125 L 42.265625 13.660156 L 42.253906 13.605469 L 42.246094 13.550781 L 42.246094 13.449219 L 42.261719 13.40625 L 42.273438 13.363281 L 42.285156 13.324219 L 42.300781 13.289062 L 42.351562 13.246094 L 42.402344 13.226562 L 42.441406 13.25 L 42.472656 13.304688 L 42.484375 13.378906 Z M 46.289062 15.902344 L 46.222656 15.945312 L 46.152344 15.984375 L 46.070312 16.023438 L 45.996094 16.054688 L 45.929688 16.078125 L 45.867188 16.097656 L 45.828125 16.089844 L 45.800781 16.042969 L 45.820312 16 L 45.851562 15.945312 L 45.898438 15.882812 L 45.953125 15.820312 L 46.023438 15.761719 L 46.089844 15.707031 L 46.15625 15.65625 L 46.21875 15.617188 L 46.285156 15.589844 L 46.34375 15.566406 L 46.402344 15.546875 L 46.449219 15.539062 L 46.484375 15.539062 L 46.523438 15.550781 L 46.546875 15.589844 L 46.542969 15.636719 L 46.5 15.722656 L 46.414062 15.808594 L 46.359375 15.859375 Z M 46.652344 16.445312 L 46.578125 16.476562 L 46.5 16.507812 L 46.414062 16.53125 L 46.265625 16.5625 L 46.207031 16.566406 L 46.160156 16.5625 L 46.144531 16.523438 L 46.15625 16.488281 L 46.210938 16.414062 L 46.265625 16.363281 L 46.335938 16.308594 L 46.40625 16.261719 L 46.480469 16.21875 L 46.554688 16.183594 L 46.621094 16.15625 L 46.6875 16.132812 L 46.757812 16.121094 L 46.808594 16.113281 L 46.859375 16.121094 L 46.902344 16.128906 L 46.941406 16.15625 L 46.953125 16.195312 L 46.941406 16.230469 L 46.914062 16.269531 L 46.882812 16.304688 L 46.835938 16.339844 L 46.785156 16.378906 L 46.71875 16.414062 Z M 46.890625 16.945312 L 46.816406 16.972656 L 46.738281 16.988281 L 46.65625 17.003906 L 46.585938 17.015625 L 46.519531 17.019531 L 46.460938 17.015625 L 46.425781 17.003906 L 46.40625 16.964844 L 46.4375 16.917969 L 46.480469 16.875 L 46.535156 16.832031 L 46.601562 16.792969 L 46.675781 16.75 L 46.75 16.71875 L 46.816406 16.695312 L 46.882812 16.675781 L 46.953125 16.664062 L 47.011719 16.660156 L 47.066406 16.660156 L 47.109375 16.664062 L 47.148438 16.675781 L 47.183594 16.707031 L 47.191406 16.746094 L 47.148438 16.804688 L 47.066406 16.875 L 47.011719 16.898438 L 46.957031 16.929688 Z M 46.90625 17.753906 L 46.847656 17.765625 L 46.804688 17.761719 L 46.761719 17.742188 L 46.695312 17.648438 L 46.664062 17.589844 L 46.652344 17.546875 L 46.675781 17.492188 L 46.707031 17.453125 L 46.742188 17.417969 L 46.792969 17.386719 L 46.851562 17.355469 L 46.921875 17.332031 L 46.976562 17.3125 L 47.023438 17.308594 L 47.074219 17.3125 L 47.105469 17.363281 L 47.117188 17.421875 L 47.109375 17.464844 L 47.105469 17.519531 L 47.085938 17.578125 L 47.0625 17.632812 L 47.023438 17.679688 L 46.976562 17.722656 Z M 29.039062 30.558594 L 29.265625 30.894531 L 29.46875 31.230469 L 29.644531 31.566406 L 29.804688 31.910156 L 29.941406 32.253906 L 30.054688 32.601562 L 30.148438 32.945312 L 30.21875 33.292969 L 30.277344 33.640625 L 30.304688 33.988281 L 30.324219 34.332031 L 30.320312 34.679688 L 30.300781 35.023438 L 30.265625 35.363281 L 30.203125 35.707031 L 30.136719 36.050781 L 30.042969 36.386719 L 29.941406 36.71875 L 29.824219 37.046875 L 29.6875 37.378906 L 29.535156 37.695312 L 29.375 38.015625 L 29.199219 38.328125 L 29.011719 38.636719 L 28.808594 38.9375 L 28.597656 39.230469 L 28.371094 39.523438 L 28.132812 39.804688 L 27.890625 40.082031 L 27.632812 40.34375 L 27.371094 40.605469 L 27.09375 40.859375 L 26.898438 41.03125 L 26.703125 41.1875 L 26.5 41.347656 L 26.300781 41.5 L 26.097656 41.648438 L 25.890625 41.792969 L 25.679688 41.929688 L 25.472656 42.0625 L 25.265625 42.191406 L 25.050781 42.316406 L 24.835938 42.4375 L 24.625 42.550781 L 24.402344 42.667969 L 24.183594 42.773438 L 23.964844 42.882812 L 23.742188 42.980469 L 23.515625 43.078125 L 23.296875 43.175781 L 23.070312 43.269531 L 22.835938 43.359375 L 22.378906 43.53125 L 21.914062 43.695312 L 21.441406 43.847656 L 20.972656 43.996094 L 20.492188 44.144531 L 20.011719 44.277344 L 19.730469 44.417969 L 19.789062 44.503906 L 20.695312 44.527344 L 21.15625 44.539062 L 21.621094 44.550781 L 22.085938 44.558594 L 22.554688 44.566406 L 23.492188 44.566406 L 23.964844 44.558594 L 24.433594 44.546875 L 24.898438 44.527344 L 25.363281 44.503906 L 25.828125 44.472656 L 26.28125 44.429688 L 26.734375 44.382812 L 27.1875 44.320312 L 27.4375 44.285156 L 27.6875 44.246094 L 27.933594 44.21875 L 28.164062 44.183594 L 28.375 44.15625 L 28.554688 44.125 L 28.710938 44.101562 L 28.820312 44.082031 L 29.511719 43.953125 L 30.191406 43.8125 L 30.519531 43.738281 L 30.851562 43.660156 L 31.175781 43.582031 L 31.5 43.492188 L 31.816406 43.410156 L 32.136719 43.324219 L 32.453125 43.226562 L 33.078125 43.03125 L 33.390625 42.917969 L 33.695312 42.808594 L 34 42.695312 L 34.304688 42.578125 L 34.90625 42.320312 L 35.507812 42.039062 L 35.804688 41.890625 L 36.097656 41.734375 L 36.398438 41.574219 L 36.695312 41.40625 L 36.984375 41.230469 L 37.285156 41.054688 L 37.582031 40.863281 L 37.875 40.667969 L 38.46875 40.253906 L 38.761719 40.03125 L 39.257812 39.648438 L 39.722656 39.242188 L 40.160156 38.835938 L 40.578125 38.410156 L 40.964844 37.984375 L 41.332031 37.542969 L 41.667969 37.089844 L 41.972656 36.632812 L 42.253906 36.164062 L 42.503906 35.691406 L 42.730469 35.210938 L 42.925781 34.726562 L 43.097656 34.238281 L 43.230469 33.75 L 43.34375 33.253906 L 43.414062 32.757812 L 43.464844 32.257812 L 43.484375 31.761719 L 43.464844 31.265625 L 43.414062 30.765625 L 43.335938 30.273438 L 43.226562 29.78125 L 43.082031 29.289062 L 42.902344 28.804688 L 42.6875 28.328125 L 42.4375 27.851562 L 42.15625 27.386719 L 41.839844 26.921875 L 41.488281 26.476562 L 41.097656 26.03125 L 40.675781 25.59375 L 40.210938 25.171875 L 40.089844 25.058594 L 39.964844 24.945312 L 39.746094 24.726562 L 39.640625 24.609375 L 39.542969 24.5 L 39.445312 24.382812 L 39.359375 24.273438 L 39.273438 24.15625 L 39.195312 24.042969 L 39.113281 23.925781 L 39.042969 23.808594 L 38.972656 23.6875 L 38.914062 23.566406 L 38.851562 23.441406 L 38.796875 23.320312 L 38.734375 23.15625 L 38.625 22.8125 L 38.578125 22.640625 L 38.539062 22.464844 L 38.503906 22.28125 L 38.46875 22.101562 L 38.441406 21.917969 L 38.421875 21.734375 L 38.40625 21.550781 L 38.394531 21.367188 L 38.386719 21.183594 L 38.386719 21.003906 L 38.394531 20.820312 L 38.40625 20.640625 L 38.421875 20.464844 L 38.449219 20.292969 L 38.472656 20.121094 L 38.511719 19.957031 L 38.550781 19.789062 L 38.601562 19.632812 L 38.652344 19.484375 L 38.710938 19.339844 L 38.777344 19.199219 L 38.84375 19.0625 L 38.925781 18.933594 L 39.011719 18.820312 L 39.101562 18.707031 L 39.203125 18.605469 L 39.304688 18.511719 L 39.421875 18.425781 L 39.535156 18.351562 L 39.582031 18.339844 L 39.621094 18.351562 L 39.675781 18.402344 L 39.714844 18.464844 L 39.832031 18.800781 L 40.160156 19.679688 L 40.570312 20.832031 L 40.667969 21.136719 L 40.765625 21.4375 L 40.863281 21.734375 L 40.964844 22.035156 L 41.058594 22.335938 L 41.15625 22.640625 L 41.359375 23.242188 L 41.433594 23.441406 L 41.5 23.625 L 41.53125 23.707031 L 41.554688 23.78125 L 41.574219 23.835938 L 41.582031 23.878906 L 41.597656 23.9375 L 41.648438 24 L 41.683594 24.03125 L 41.71875 24.058594 L 41.8125 24.113281 L 41.921875 24.167969 L 42.042969 24.21875 L 42.171875 24.269531 L 42.316406 24.316406 L 42.589844 24.402344 L 42.847656 24.46875 L 43.058594 24.523438 L 43.195312 24.5625 L 43.316406 24.597656 L 43.550781 24.664062 L 43.671875 24.691406 L 43.777344 24.703125 L 43.820312 24.703125 L 43.863281 24.683594 L 43.875 24.597656 L 43.867188 24.53125 L 43.847656 24.453125 L 43.832031 24.371094 L 43.800781 24.292969 L 43.769531 24.203125 L 43.734375 24.113281 L 43.691406 24.03125 L 43.605469 23.859375 L 43.554688 23.777344 L 43.515625 23.707031 L 43.464844 23.636719 L 43.414062 23.578125 L 43.371094 23.527344 L 43.332031 23.492188 L 43.164062 23.367188 L 42.914062 23.171875 L 42.675781 22.984375 L 42.570312 22.902344 L 42.492188 22.824219 L 42.402344 22.757812 L 42.300781 22.683594 L 42.105469 22.535156 L 42.015625 22.464844 L 41.933594 22.390625 L 41.855469 22.308594 L 41.832031 22.273438 L 41.8125 22.238281 L 41.789062 22.175781 L 41.789062 22.132812 L 41.824219 22.078125 L 41.867188 22.046875 L 41.917969 22.03125 L 41.972656 22.011719 L 42.03125 22 L 42.09375 21.992188 L 42.222656 21.992188 L 42.355469 22.011719 L 42.484375 22.03125 L 42.609375 22.058594 L 42.707031 22.085938 L 42.882812 22.128906 L 43.042969 22.171875 L 43.191406 22.207031 L 43.335938 22.257812 L 43.476562 22.304688 L 43.617188 22.367188 L 43.769531 22.441406 L 43.929688 22.53125 L 44.101562 22.625 L 44.246094 22.714844 L 44.371094 22.800781 L 44.425781 22.84375 L 44.46875 22.894531 L 44.511719 22.949219 L 44.546875 23.007812 L 44.578125 23.078125 L 44.601562 23.148438 L 44.613281 23.230469 L 44.628906 23.328125 L 44.632812 23.429688 L 44.632812 23.546875 L 44.628906 23.652344 L 44.613281 23.742188 L 44.597656 23.828125 L 44.578125 23.925781 L 44.574219 23.976562 L 44.566406 24.03125 L 44.566406 24.078125 L 44.589844 24.230469 L 44.613281 24.324219 L 44.632812 24.367188 L 44.6875 24.398438 L 44.722656 24.398438 L 44.808594 24.378906 L 44.914062 24.355469 L 44.953125 24.34375 L 44.988281 24.328125 L 45.042969 24.292969 L 45.085938 24.257812 L 45.109375 24.214844 L 45.121094 24.15625 L 45.121094 24.097656 L 45.109375 24.03125 L 45.082031 23.960938 L 45.066406 23.917969 L 45.054688 23.878906 L 45.042969 23.828125 L 45.035156 23.773438 L 45.027344 23.664062 L 45.019531 23.550781 L 45.027344 23.328125 L 45.027344 23.132812 L 45.019531 23.089844 L 44.980469 22.988281 L 44.953125 22.941406 L 44.914062 22.894531 L 44.878906 22.847656 L 44.835938 22.800781 L 44.792969 22.757812 L 44.601562 22.59375 L 44.4375 22.464844 L 44.359375 22.402344 L 44.277344 22.324219 L 44.242188 22.28125 L 44.222656 22.238281 L 44.21875 22.183594 L 44.230469 22.128906 L 44.261719 22.078125 L 44.300781 22.046875 L 44.371094 22.023438 L 44.414062 22.019531 L 44.457031 22.011719 L 44.695312 22.019531 L 44.941406 22.019531 L 45.183594 22.011719 L 45.421875 21.992188 L 45.539062 21.980469 L 45.65625 21.964844 L 45.769531 21.9375 L 45.882812 21.90625 L 45.992188 21.871094 L 46.101562 21.828125 L 46.207031 21.785156 L 46.300781 21.730469 L 46.355469 21.621094 L 46.355469 21.515625 L 46.351562 21.425781 L 46.34375 21.34375 L 46.328125 21.285156 L 46.300781 21.230469 L 46.273438 21.191406 L 46.199219 21.144531 L 46.15625 21.132812 L 46.105469 21.125 L 46.058594 21.132812 L 45.996094 21.136719 L 45.867188 21.160156 L 45.726562 21.199219 L 45.65625 21.191406 L 45.582031 21.1875 L 45.515625 21.171875 L 45.453125 21.160156 L 45.390625 21.144531 L 45.332031 21.125 L 45.277344 21.101562 L 45.21875 21.070312 L 45.117188 21.007812 L 45.011719 20.941406 L 44.902344 20.855469 L 44.785156 20.765625 L 44.664062 20.691406 L 44.492188 20.683594 L 44.390625 20.671875 L 44.285156 20.660156 L 44.1875 20.640625 L 43.992188 20.59375 L 43.898438 20.5625 L 43.8125 20.527344 L 43.726562 20.488281 L 43.648438 20.445312 L 43.570312 20.398438 L 43.496094 20.347656 L 43.425781 20.292969 L 43.359375 20.230469 L 43.296875 20.171875 L 43.238281 20.101562 L 43.183594 20.035156 L 43.132812 19.960938 L 43.085938 19.882812 L 43.042969 19.804688 L 43.007812 19.71875 L 42.96875 19.632812 L 42.945312 19.539062 L 42.914062 19.441406 L 42.894531 19.34375 L 42.882812 19.242188 L 42.871094 19.136719 L 42.863281 19.027344 L 42.859375 18.910156 L 42.863281 18.792969 L 42.871094 18.679688 L 42.890625 18.550781 L 42.90625 18.425781 L 42.917969 18.285156 L 42.9375 18.140625 L 42.945312 18.066406 L 42.945312 17.992188 L 42.9375 17.917969 L 42.925781 17.851562 L 42.90625 17.785156 L 42.878906 17.730469 L 42.835938 17.675781 L 42.78125 17.632812 L 42.710938 17.601562 L 42.675781 17.589844 L 42.632812 17.578125 L 42.585938 17.566406 L 42.53125 17.566406 L 42.472656 17.558594 L 42.410156 17.566406 L 42.371094 17.582031 L 42.328125 17.625 L 42.285156 17.675781 L 42.242188 17.710938 L 42.21875 17.746094 L 42.171875 17.804688 L 42.117188 17.851562 L 42.066406 17.882812 L 42.027344 17.894531 L 41.960938 17.917969 L 41.894531 17.929688 L 41.820312 17.9375 L 41.628906 17.9375 L 41.519531 17.925781 L 41.402344 17.90625 L 41.285156 17.871094 L 41.230469 17.851562 L 41.136719 17.804688 L 41.085938 17.773438 L 41.042969 17.742188 L 40.96875 17.667969 L 40.945312 17.625 L 40.878906 17.535156 L 40.816406 17.460938 L 40.75 17.40625 L 40.6875 17.351562 L 40.628906 17.300781 L 40.570312 17.257812 L 40.511719 17.203125 L 40.460938 17.136719 L 40.414062 17.0625 L 40.371094 16.988281 L 40.335938 16.902344 L 40.296875 16.8125 L 40.265625 16.71875 L 40.242188 16.621094 L 40.222656 16.523438 L 40.210938 16.421875 L 40.207031 16.316406 L 40.207031 16.21875 L 40.210938 16.113281 L 40.230469 16.015625 L 40.253906 15.925781 L 40.289062 15.832031 L 40.335938 15.742188 L 40.390625 15.660156 L 40.566406 15.4375 L 40.890625 15.117188 L 41.023438 15 L 41.265625 14.804688 L 41.410156 14.648438 L 41.453125 14.597656 L 41.472656 14.554688 L 41.464844 14.519531 L 41.410156 14.464844 L 41.359375 14.449219 L 41.304688 14.4375 L 41.25 14.433594 L 41.109375 14.425781 L 40.964844 14.425781 L 40.824219 14.433594 L 40.679688 14.4375 L 40.390625 14.457031 L 40.101562 14.492188 L 39.808594 14.535156 L 39.519531 14.59375 L 39.226562 14.660156 L 38.9375 14.730469 L 38.652344 14.820312 L 38.363281 14.914062 L 38.089844 15.019531 L 37.8125 15.128906 L 37.535156 15.253906 L 37.273438 15.382812 L 37.019531 15.515625 L 36.765625 15.660156 L 36.636719 15.742188 L 36.476562 15.839844 L 36.296875 15.960938 L 36.09375 16.109375 L 35.867188 16.273438 L 35.636719 16.46875 L 35.511719 16.574219 L 35.382812 16.675781 L 35.257812 16.792969 L 35.132812 16.917969 L 34.917969 17.128906 L 34.722656 17.34375 L 34.53125 17.578125 L 34.355469 17.808594 L 34.183594 18.046875 L 34.027344 18.292969 L 33.878906 18.550781 L 33.738281 18.804688 L 33.601562 19.070312 L 33.480469 19.339844 L 33.371094 19.613281 L 33.269531 19.890625 L 33.167969 20.171875 L 33.078125 20.457031 L 32.996094 20.746094 L 32.917969 21.039062 L 32.851562 21.332031 L 32.789062 21.632812 L 32.734375 21.933594 L 32.6875 22.230469 L 32.648438 22.53125 L 32.613281 22.835938 L 32.582031 23.136719 L 32.558594 23.445312 L 32.53125 23.742188 L 32.523438 24.046875 L 32.507812 24.347656 L 32.503906 24.648438 L 32.503906 25.246094 L 32.507812 25.546875 L 32.523438 25.835938 L 32.613281 28.257812 L 32.691406 29.113281 L 32.746094 29.445312 L 32.800781 29.664062 L 32.851562 29.730469 L 32.90625 29.785156 L 32.96875 29.824219 L 33.234375 29.925781 L 33.511719 30.011719 L 33.785156 30.09375 L 34.070312 30.152344 L 34.347656 30.210938 L 34.632812 30.25 L 34.917969 30.277344 L 35.199219 30.292969 L 35.488281 30.300781 L 35.777344 30.292969 L 36.054688 30.28125 L 36.34375 30.257812 L 36.90625 30.179688 L 37.1875 30.121094 L 37.464844 30.0625 L 37.738281 29.988281 L 38.007812 29.910156 L 38.273438 29.824219 L 38.535156 29.726562 L 38.789062 29.621094 L 39.042969 29.511719 L 39.285156 29.394531 L 39.527344 29.273438 L 39.757812 29.144531 L 39.984375 29.011719 L 40.203125 28.867188 L 40.410156 28.722656 L 40.613281 28.574219 L 40.804688 28.417969 L 40.988281 28.257812 L 41.164062 28.09375 L 41.324219 27.933594 L 41.371094 27.890625 L 41.433594 27.871094 L 41.496094 27.882812 L 41.53125 27.914062 L 41.574219 27.953125 L 41.609375 27.988281 L 41.648438 28.03125 L 41.726562 28.136719 L 41.792969 28.246094 L 41.859375 28.375 L 41.929688 28.507812 L 41.988281 28.65625 L 42.050781 28.800781 L 42.15625 29.09375 L 42.246094 29.382812 L 42.320312 29.640625 L 42.375 29.84375 L 42.429688 30.0625 L 42.480469 30.277344 L 42.515625 30.496094 L 42.550781 30.71875 L 42.578125 30.9375 L 42.59375 31.15625 L 42.601562 31.386719 L 42.609375 31.605469 L 42.59375 32.058594 L 42.578125 32.277344 L 42.558594 32.503906 L 42.527344 32.722656 L 42.492188 32.949219 L 42.449219 33.171875 L 42.40625 33.390625 L 42.351562 33.609375 L 42.296875 33.832031 L 42.226562 34.046875 L 42.160156 34.261719 L 42.089844 34.472656 L 42.007812 34.683594 L 41.921875 34.890625 L 41.835938 35.09375 L 41.746094 35.300781 L 41.648438 35.496094 L 41.542969 35.691406 L 41.441406 35.886719 L 41.328125 36.070312 L 41.214844 36.261719 L 41.097656 36.4375 L 40.972656 36.613281 L 40.65625 37.042969 L 40.320312 37.460938 L 39.964844 37.855469 L 39.597656 38.242188 L 39.214844 38.609375 L 38.816406 38.964844 L 38.40625 39.304688 L 37.984375 39.632812 L 37.546875 39.941406 L 37.101562 40.242188 L 36.644531 40.53125 L 36.179688 40.800781 L 35.703125 41.0625 L 35.21875 41.304688 L 34.722656 41.539062 L 34.226562 41.753906 L 33.726562 41.960938 L 33.21875 42.15625 L 32.703125 42.339844 L 32.191406 42.511719 L 31.667969 42.671875 L 31.152344 42.8125 L 30.628906 42.953125 L 30.109375 43.074219 L 29.589844 43.183594 L 29.070312 43.289062 L 28.554688 43.382812 L 28.042969 43.460938 L 27.527344 43.527344 L 27.027344 43.589844 L 26.523438 43.636719 L 26.03125 43.671875 L 25.992188 43.667969 L 25.929688 43.636719 L 25.902344 43.582031 L 25.902344 43.515625 L 25.917969 43.453125 L 25.972656 43.386719 L 26.113281 43.269531 L 26.242188 43.179688 L 26.523438 42.96875 L 26.8125 42.75 L 27.105469 42.507812 L 27.40625 42.25 L 27.699219 41.972656 L 28 41.679688 L 28.292969 41.367188 L 28.582031 41.050781 L 28.863281 40.714844 L 29.136719 40.363281 L 29.40625 40.003906 L 29.664062 39.632812 L 29.90625 39.246094 L 30.136719 38.851562 L 30.347656 38.449219 L 30.542969 38.039062 L 30.722656 37.625 L 30.875 37.195312 L 31.011719 36.769531 L 31.117188 36.328125 L 31.199219 35.886719 L 31.253906 35.441406 L 31.277344 34.992188 L 31.273438 34.546875 L 31.234375 34.09375 L 31.160156 33.644531 L 31.050781 33.191406 L 30.898438 32.734375 L 30.714844 32.289062 L 30.484375 31.84375 L 30.214844 31.398438 L 29.898438 30.957031 L 29.742188 30.765625 L 29.585938 30.585938 L 29.425781 30.40625 L 29.253906 30.234375 L 29.078125 30.070312 L 28.898438 29.910156 L 28.710938 29.757812 L 28.519531 29.609375 L 28.464844 29.574219 L 28.410156 29.554688 L 28.359375 29.554688 L 28.324219 29.570312 L 28.304688 29.609375 L 28.304688 29.671875 L 28.355469 29.753906 L 28.539062 29.960938 Z M 43.195312 16.972656 L 43.132812 16.996094 L 43.066406 17.019531 L 42.972656 17.058594 L 42.933594 17.074219 L 42.890625 17.117188 L 42.890625 17.179688 L 42.933594 17.234375 L 42.980469 17.257812 L 43.019531 17.269531 L 43.066406 17.277344 L 43.109375 17.277344 L 43.148438 17.289062 L 43.183594 17.308594 L 43.242188 17.355469 L 43.292969 17.417969 L 43.34375 17.527344 L 43.367188 17.605469 L 43.390625 17.679688 L 43.402344 17.761719 L 43.421875 17.804688 L 43.445312 17.839844 L 43.511719 17.894531 L 43.550781 17.914062 L 43.59375 17.917969 L 43.636719 17.917969 L 43.671875 17.914062 L 43.800781 17.871094 L 43.933594 17.835938 L 44.0625 17.804688 L 44.191406 17.777344 L 44.449219 17.753906 L 44.578125 17.753906 L 44.707031 17.765625 L 44.835938 17.785156 L 44.964844 17.816406 L 45.023438 17.835938 L 45.085938 17.859375 L 45.152344 17.890625 L 45.214844 17.917969 L 45.277344 17.949219 L 45.34375 17.992188 L 45.40625 18.035156 L 45.464844 18.078125 L 45.53125 18.128906 L 45.59375 18.183594 L 45.65625 18.242188 L 45.722656 18.304688 L 45.789062 18.378906 L 45.851562 18.453125 L 45.898438 18.523438 L 45.949219 18.597656 L 45.992188 18.671875 L 46.027344 18.746094 L 46.058594 18.820312 L 46.082031 18.890625 L 46.101562 18.964844 L 46.125 19.113281 L 46.125 19.253906 L 46.117188 19.328125 L 46.105469 19.394531 L 46.09375 19.46875 L 46.070312 19.535156 L 46.050781 19.609375 L 46.023438 19.675781 L 45.992188 19.742188 L 45.953125 19.808594 L 45.917969 19.878906 L 45.875 19.9375 L 45.828125 20.003906 L 45.726562 20.128906 L 45.617188 20.25 L 45.496094 20.359375 L 45.359375 20.46875 L 45.320312 20.507812 L 45.289062 20.542969 L 45.257812 20.605469 L 45.261719 20.660156 L 45.300781 20.703125 L 45.347656 20.738281 L 45.386719 20.753906 L 45.488281 20.777344 L 45.554688 20.789062 L 45.605469 20.777344 L 45.65625 20.769531 L 45.703125 20.75 L 45.753906 20.738281 L 45.84375 20.695312 L 45.933594 20.648438 L 46.023438 20.585938 L 46.101562 20.511719 L 46.179688 20.441406 L 46.253906 20.359375 L 46.320312 20.269531 L 46.382812 20.175781 L 46.4375 20.085938 L 46.492188 19.988281 L 46.578125 19.792969 L 46.609375 19.695312 L 46.640625 19.601562 L 46.667969 19.449219 L 46.695312 19.308594 L 46.714844 19.160156 L 46.71875 19.019531 L 46.71875 18.878906 L 46.714844 18.738281 L 46.699219 18.597656 L 46.675781 18.457031 L 46.652344 18.324219 L 46.621094 18.1875 L 46.578125 18.054688 L 46.535156 17.917969 L 46.484375 17.785156 L 46.429688 17.648438 L 46.375 17.515625 L 46.308594 17.382812 L 46.273438 17.308594 L 46.21875 17.214844 L 46.152344 17.109375 L 46.070312 17 L 45.976562 16.886719 L 45.886719 16.757812 L 45.78125 16.632812 L 45.679688 16.511719 L 45.570312 16.390625 L 45.34375 16.164062 L 45.226562 16.066406 L 45.117188 15.980469 L 45.011719 15.90625 L 44.964844 15.875 L 44.914062 15.851562 L 44.867188 15.828125 L 44.824219 15.816406 L 44.78125 15.820312 L 44.71875 15.851562 L 44.644531 15.90625 L 44.558594 15.96875 L 44.40625 16.089844 L 44.316406 16.167969 L 44.207031 16.261719 L 44.078125 16.359375 L 43.953125 16.453125 L 43.84375 16.546875 L 43.777344 16.597656 L 43.691406 16.664062 L 43.582031 16.730469 L 43.46875 16.804688 L 43.28125 16.921875 Z M 44.496094 18.25 L 44.375 18.25 L 44.261719 18.257812 L 44.144531 18.269531 L 43.933594 18.316406 L 43.839844 18.347656 L 43.753906 18.390625 L 43.664062 18.441406 L 43.59375 18.488281 L 43.527344 18.550781 L 43.46875 18.617188 L 43.421875 18.691406 L 43.386719 18.769531 L 43.355469 18.847656 L 43.332031 18.941406 L 43.324219 19.039062 L 43.324219 19.136719 L 43.335938 19.242188 L 43.359375 19.339844 L 43.390625 19.4375 L 43.433594 19.539062 L 43.488281 19.632812 L 43.550781 19.730469 L 43.617188 19.816406 L 43.699219 19.902344 L 43.777344 19.980469 L 43.867188 20.054688 L 43.964844 20.121094 L 44.078125 20.175781 L 44.1875 20.226562 L 44.300781 20.261719 L 44.425781 20.292969 L 44.484375 20.300781 L 44.546875 20.304688 L 44.667969 20.304688 L 44.730469 20.300781 L 44.785156 20.292969 L 44.839844 20.28125 L 44.898438 20.269531 L 45.007812 20.230469 L 45.109375 20.183594 L 45.203125 20.128906 L 45.292969 20.058594 L 45.371094 19.988281 L 45.445312 19.90625 L 45.515625 19.816406 L 45.570312 19.722656 L 45.609375 19.625 L 45.644531 19.523438 L 45.660156 19.472656 L 45.667969 19.417969 L 45.671875 19.363281 L 45.679688 19.308594 L 45.679688 19.253906 L 45.671875 19.203125 L 45.671875 19.148438 L 45.660156 19.101562 L 45.636719 18.996094 L 45.597656 18.90625 L 45.550781 18.8125 L 45.488281 18.726562 L 45.421875 18.648438 L 45.347656 18.574219 L 45.265625 18.507812 L 45.171875 18.445312 L 45.074219 18.390625 L 44.96875 18.347656 L 44.859375 18.3125 L 44.742188 18.28125 L 44.628906 18.261719 Z M 44.496094 18.542969 L 44.417969 18.53125 L 44.332031 18.523438 L 44.246094 18.53125 L 44.167969 18.535156 L 44.082031 18.550781 L 44.007812 18.574219 L 43.929688 18.597656 L 43.863281 18.628906 L 43.792969 18.660156 L 43.734375 18.703125 L 43.679688 18.746094 L 43.636719 18.792969 L 43.605469 18.847656 L 43.582031 18.910156 L 43.5625 18.972656 L 43.5625 19.007812 L 43.574219 19.113281 L 43.59375 19.183594 L 43.617188 19.257812 L 43.65625 19.332031 L 43.695312 19.398438 L 43.738281 19.472656 L 43.792969 19.546875 L 43.855469 19.613281 L 43.917969 19.675781 L 44.050781 19.792969 L 44.132812 19.839844 L 44.203125 19.882812 L 44.285156 19.917969 L 44.363281 19.949219 L 44.441406 19.96875 L 44.527344 19.980469 L 44.679688 19.980469 L 44.761719 19.96875 L 44.835938 19.945312 L 44.96875 19.890625 L 45.03125 19.847656 L 45.085938 19.804688 L 45.132812 19.75 L 45.183594 19.695312 L 45.21875 19.632812 L 45.25 19.566406 L 45.273438 19.492188 L 45.292969 19.410156 L 45.296875 19.332031 L 45.296875 19.253906 L 45.285156 19.179688 L 45.269531 19.105469 L 45.242188 19.03125 L 45.207031 18.972656 L 45.121094 18.847656 L 45.066406 18.800781 L 45.007812 18.753906 L 44.945312 18.710938 L 44.878906 18.667969 L 44.808594 18.628906 L 44.734375 18.605469 L 44.65625 18.574219 L 44.578125 18.554688 Z M 44.589844 18.953125 L 44.503906 18.929688 L 44.425781 18.921875 L 44.34375 18.921875 L 44.277344 18.933594 L 44.21875 18.960938 L 44.167969 18.988281 L 44.125 19.03125 L 44.101562 19.089844 L 44.09375 19.144531 L 44.101562 19.203125 L 44.125 19.257812 L 44.167969 19.3125 L 44.21875 19.367188 L 44.277344 19.417969 L 44.351562 19.453125 L 44.429688 19.492188 L 44.511719 19.511719 L 44.59375 19.523438 L 44.667969 19.523438 L 44.742188 19.511719 L 44.804688 19.484375 L 44.851562 19.453125 L 44.890625 19.410156 L 44.914062 19.355469 L 44.925781 19.300781 L 44.914062 19.242188 L 44.890625 19.183594 L 44.851562 19.128906 L 44.804688 19.074219 L 44.742188 19.027344 L 44.667969 18.984375 Z M 42.148438 16.40625 L 42.089844 16.402344 L 42.039062 16.394531 L 41.960938 16.394531 L 41.910156 16.433594 L 41.878906 16.511719 L 41.878906 16.554688 L 41.933594 16.605469 L 41.984375 16.617188 L 42.039062 16.621094 L 42.101562 16.632812 L 42.160156 16.648438 L 42.210938 16.671875 L 42.265625 16.695312 L 42.316406 16.714844 L 42.371094 16.71875 L 42.410156 16.71875 L 42.457031 16.714844 L 42.492188 16.691406 L 42.527344 16.648438 L 42.535156 16.605469 L 42.515625 16.5625 L 42.460938 16.511719 L 42.410156 16.480469 L 42.351562 16.457031 L 42.285156 16.4375 L 42.21875 16.421875 Z M 46.980469 13.558594 L 46.785156 13.71875 L 46.585938 13.875 L 46.375 14.035156 L 46.15625 14.199219 L 45.703125 14.523438 L 45.238281 14.859375 L 44.769531 15.199219 L 44.308594 15.535156 L 44.082031 15.699219 L 43.859375 15.863281 L 43.648438 16.035156 L 43.445312 16.199219 L 43.371094 16.253906 L 43.304688 16.292969 L 43.238281 16.316406 L 43.175781 16.328125 L 43.109375 16.324219 L 43.042969 16.308594 L 42.957031 16.28125 L 42.863281 16.238281 L 42.65625 16.128906 L 42.46875 16.023438 L 42.265625 15.9375 L 42.148438 15.90625 L 42.015625 15.882812 L 41.964844 15.875 L 41.917969 15.875 L 41.832031 15.890625 L 41.789062 15.90625 L 41.753906 15.925781 L 41.675781 15.972656 L 41.621094 16.035156 L 41.574219 16.101562 L 41.53125 16.175781 L 41.507812 16.257812 L 41.476562 16.355469 L 41.453125 16.421875 L 41.433594 16.457031 L 41.355469 16.5 L 41.273438 16.539062 L 41.1875 16.585938 L 41.152344 16.617188 L 41.113281 16.664062 L 41.101562 16.707031 L 41.042969 16.746094 L 40.980469 16.75 L 40.925781 16.738281 L 40.878906 16.710938 L 40.835938 16.660156 L 40.804688 16.59375 L 40.78125 16.519531 L 40.765625 16.441406 L 40.753906 16.347656 L 40.753906 16.257812 L 40.761719 16.164062 L 40.773438 16.074219 L 40.789062 15.988281 L 40.816406 15.90625 L 40.847656 15.835938 L 40.882812 15.773438 L 40.929688 15.730469 L 40.96875 15.699219 L 41.066406 15.609375 L 41.214844 15.472656 L 41.390625 15.316406 L 41.78125 14.949219 L 41.972656 14.769531 L 42.132812 14.617188 L 42.273438 14.476562 L 42.417969 14.316406 L 42.570312 14.152344 L 42.730469 13.980469 L 42.894531 13.804688 L 43.058594 13.621094 L 43.230469 13.4375 L 43.402344 13.257812 L 43.488281 13.179688 L 43.570312 13.105469 L 43.648438 13.042969 L 43.722656 12.988281 L 43.789062 12.941406 L 43.863281 12.90625 L 43.921875 12.867188 L 43.992188 12.84375 L 44.113281 12.800781 L 44.230469 12.765625 L 44.34375 12.738281 L 44.460938 12.703125 L 44.589844 12.664062 L 44.742188 12.628906 L 44.917969 12.59375 L 45.128906 12.554688 L 45.359375 12.519531 L 45.617188 12.480469 L 45.90625 12.445312 L 46.222656 12.40625 L 46.34375 12.402344 L 46.542969 12.394531 L 46.78125 12.402344 L 47.035156 12.414062 L 47.160156 12.425781 L 47.28125 12.445312 L 47.390625 12.46875 L 47.484375 12.5 L 47.527344 12.519531 L 47.5625 12.535156 L 47.625 12.574219 L 47.65625 12.628906 L 47.660156 12.683594 L 47.683594 12.738281 L 47.683594 12.820312 L 47.679688 12.859375 L 47.667969 12.898438 L 47.65625 12.933594 L 47.605469 13.007812 L 47.542969 13.082031 L 47.496094 13.144531 Z M 44.769531 13.277344 L 44.945312 13.179688 L 45.136719 13.09375 L 45.527344 12.945312 L 45.722656 12.890625 L 45.910156 12.835938 L 46.101562 12.792969 L 46.289062 12.757812 L 46.46875 12.726562 L 46.632812 12.707031 L 46.785156 12.695312 L 46.925781 12.6875 L 47.050781 12.6875 L 47.152344 12.695312 L 47.238281 12.714844 L 47.300781 12.730469 L 47.335938 12.761719 L 47.34375 12.800781 L 47.320312 12.847656 L 47.269531 12.910156 L 47.195312 12.976562 L 47.105469 13.050781 L 46.988281 13.136719 L 46.859375 13.222656 L 46.554688 13.429688 L 46.210938 13.660156 L 46.035156 13.789062 L 45.84375 13.917969 L 45.476562 14.199219 L 45.246094 14.382812 L 45.007812 14.558594 L 44.761719 14.738281 L 44.523438 14.898438 L 44.40625 14.976562 L 44.289062 15.042969 L 44.179688 15.105469 L 44.070312 15.160156 L 43.96875 15.203125 L 43.863281 15.238281 L 43.773438 15.265625 L 43.683594 15.277344 L 43.636719 15.28125 L 43.589844 15.277344 L 43.539062 15.265625 L 43.496094 15.253906 L 43.453125 15.226562 L 43.410156 15.203125 L 43.375 15.179688 L 43.269531 15.085938 L 43.214844 15.019531 L 43.164062 14.960938 L 43.128906 14.910156 L 43.105469 14.84375 L 43.097656 14.804688 L 43.105469 14.769531 L 43.109375 14.730469 L 43.121094 14.691406 L 43.136719 14.648438 L 43.160156 14.597656 L 43.21875 14.507812 L 43.292969 14.402344 L 43.386719 14.292969 L 43.496094 14.179688 L 43.617188 14.070312 L 43.761719 13.957031 L 43.90625 13.839844 L 44.066406 13.722656 L 44.230469 13.605469 L 44.402344 13.492188 L 44.585938 13.382812 L 44.769531 13.277344 "/>
</g>
</svg>
