<?xml version="1.0" encoding="UTF-8"?>
<svg xmlns="http://www.w3.org/2000/svg" xmlns:xlink="http://www.w3.org/1999/xlink" width="56pt" height="56pt" viewBox="0 0 56 56" version="1.1">
<g id="surface1">
<rect x="0" y="0" width="56" height="56" style="fill:rgb(92.64679%,11.010742%,15.278625%);fill-opacity:1;stroke:none;"/>
<path style=" stroke:none;fill-rule:nonzero;fill:rgb(100%,100%,100%);fill-opacity:1;" d="M 20.929688 27.636719 C 20.828125 27.546875 20.734375 27.464844 20.644531 27.378906 C 20.253906 27.019531 19.851562 26.996094 19.421875 27.320312 C 19.105469 27.558594 18.859375 27.863281 18.644531 28.191406 C 18.382812 28.589844 18.199219 29.027344 18.007812 29.457031 C 17.890625 29.710938 17.761719 29.960938 17.636719 30.210938 C 17.617188 30.246094 17.585938 30.277344 17.535156 30.34375 C 17.519531 30.097656 17.492188 29.894531 17.492188 29.691406 C 17.484375 28.972656 17.527344 28.257812 17.664062 27.550781 C 17.691406 27.421875 17.738281 27.296875 17.78125 27.171875 C 17.832031 27.015625 17.945312 26.933594 18.105469 26.90625 C 18.277344 26.878906 18.449219 26.835938 18.621094 26.800781 C 18.792969 26.410156 18.960938 26.042969 19.128906 25.667969 C 19.328125 25.648438 19.519531 25.636719 19.707031 25.605469 C 20.308594 25.507812 20.839844 25.234375 21.320312 24.863281 C 21.820312 24.476562 22.246094 24.015625 22.628906 23.515625 C 23.125 22.863281 23.589844 22.1875 24.089844 21.539062 C 24.980469 20.390625 25.957031 19.324219 27.066406 18.386719 C 27.914062 17.667969 28.816406 17.023438 29.785156 16.476562 C 30.699219 15.960938 31.65625 15.535156 32.679688 15.277344 C 33.179688 15.152344 33.691406 15.066406 34.214844 15.058594 C 34.117188 15.097656 34.023438 15.148438 33.921875 15.179688 C 33.351562 15.367188 32.785156 15.550781 32.214844 15.730469 C 31.699219 15.898438 31.214844 16.136719 30.742188 16.394531 C 29.921875 16.839844 29.15625 17.363281 28.453125 17.980469 C 27.625 18.707031 26.90625 19.527344 26.265625 20.417969 C 25.605469 21.328125 25.039062 22.296875 24.46875 23.265625 C 23.960938 24.125 23.464844 24.988281 22.859375 25.785156 C 22.347656 26.460938 21.777344 27.074219 21.066406 27.550781 C 21.03125 27.574219 20.992188 27.597656 20.929688 27.636719 "/>
<path style=" stroke:none;fill-rule:nonzero;fill:rgb(100%,100%,100%);fill-opacity:1;" d="M 36.097656 48.351562 C 36.015625 48.140625 35.921875 47.929688 35.847656 47.71875 C 35.679688 47.246094 35.527344 46.765625 35.351562 46.296875 C 35.03125 45.425781 34.558594 44.648438 33.976562 43.929688 C 33.433594 43.257812 32.84375 42.625 32.207031 42.039062 C 31.273438 41.175781 30.21875 40.511719 29.039062 40.039062 C 28.339844 39.757812 27.628906 39.511719 26.933594 39.222656 C 26.230469 38.933594 25.535156 38.632812 24.847656 38.308594 C 23.96875 37.902344 23.125 37.429688 22.292969 36.929688 C 21.625 36.527344 20.964844 36.109375 20.347656 35.621094 C 20.324219 35.605469 20.304688 35.585938 20.296875 35.539062 C 20.414062 35.585938 20.535156 35.632812 20.652344 35.679688 C 22.121094 36.300781 23.585938 36.929688 25.058594 37.535156 C 25.808594 37.847656 26.578125 38.113281 27.332031 38.414062 C 28.46875 38.867188 29.609375 39.320312 30.632812 40.011719 C 31.085938 40.316406 31.519531 40.652344 31.9375 41.003906 C 32.75 41.6875 33.460938 42.46875 34.085938 43.324219 C 34.832031 44.335938 35.429688 45.425781 35.804688 46.628906 C 35.980469 47.1875 36.089844 47.757812 36.097656 48.351562 "/>
<path style=" stroke:none;fill-rule:nonzero;fill:rgb(100%,100%,100%);fill-opacity:1;" d="M 31.761719 18.816406 C 31.992188 18.722656 32.199219 18.691406 32.40625 18.691406 C 32.910156 18.691406 33.40625 18.789062 33.886719 18.933594 C 34.664062 19.167969 35.433594 19.421875 36.207031 19.675781 C 37.300781 20.03125 38.386719 20.417969 39.511719 20.664062 C 40.089844 20.785156 40.671875 20.886719 41.269531 20.863281 C 41.472656 20.855469 41.675781 20.824219 41.90625 20.804688 C 41.886719 20.859375 41.871094 20.90625 41.851562 20.945312 C 41.515625 21.578125 41.050781 22.058594 40.332031 22.242188 C 39.871094 22.363281 39.410156 22.332031 38.949219 22.230469 C 38.242188 22.082031 37.585938 21.796875 36.957031 21.453125 C 36.328125 21.113281 35.707031 20.75 35.09375 20.378906 C 34.441406 19.984375 33.742188 19.6875 33.039062 19.402344 C 32.683594 19.257812 32.335938 19.097656 31.984375 18.941406 C 31.917969 18.910156 31.859375 18.871094 31.761719 18.816406 "/>
<path style=" stroke:none;fill-rule:nonzero;fill:rgb(100%,100%,100%);fill-opacity:1;" d="M 34 50.613281 C 33.949219 50.453125 33.890625 50.296875 33.847656 50.136719 C 33.730469 49.679688 33.632812 49.21875 33.5 48.761719 C 33.085938 47.296875 32.332031 46.011719 31.363281 44.84375 C 30.785156 44.152344 30.167969 43.496094 29.476562 42.910156 C 29.078125 42.570312 28.628906 42.296875 28.171875 42.042969 C 27.265625 41.535156 26.351562 41.035156 25.449219 40.515625 C 24.417969 39.917969 23.441406 39.242188 22.535156 38.46875 C 22.132812 38.121094 21.714844 37.789062 21.3125 37.441406 C 21.066406 37.222656 20.832031 36.984375 20.59375 36.757812 C 20.605469 36.742188 20.617188 36.730469 20.628906 36.714844 C 20.847656 36.84375 21.066406 36.96875 21.285156 37.097656 C 22.28125 37.679688 23.273438 38.265625 24.265625 38.851562 C 25.511719 39.585938 26.757812 40.320312 28.007812 41.050781 C 28.28125 41.210938 28.550781 41.375 28.828125 41.53125 C 29.449219 41.886719 29.984375 42.351562 30.488281 42.851562 C 31.441406 43.792969 32.222656 44.863281 32.832031 46.0625 C 33.339844 47.066406 33.71875 48.121094 33.894531 49.238281 C 33.964844 49.691406 34.015625 50.144531 34.074219 50.597656 C 34.046875 50.601562 34.023438 50.605469 34 50.613281 "/>
<path style=" stroke:none;fill-rule:nonzero;fill:rgb(100%,100%,100%);fill-opacity:1;" d="M 39.71875 6.660156 C 39.742188 6.800781 39.773438 6.945312 39.789062 7.089844 C 39.828125 7.472656 39.796875 7.859375 39.730469 8.238281 C 39.546875 9.328125 39.160156 10.34375 38.605469 11.296875 C 38.078125 12.195312 37.371094 12.902344 36.4375 13.390625 C 35.003906 14.140625 33.503906 14.710938 31.960938 15.171875 C 31.863281 15.203125 31.761719 15.21875 31.644531 15.203125 C 31.757812 15.109375 31.863281 15.011719 31.980469 14.929688 C 32.554688 14.53125 33.132812 14.132812 33.714844 13.734375 C 34.769531 13.015625 35.8125 12.273438 36.753906 11.402344 C 37.484375 10.722656 38.09375 9.949219 38.578125 9.078125 C 38.96875 8.371094 39.289062 7.632812 39.574219 6.878906 C 39.601562 6.804688 39.636719 6.730469 39.667969 6.65625 C 39.683594 6.660156 39.703125 6.660156 39.71875 6.660156 "/>
<path style=" stroke:none;fill-rule:nonzero;fill:rgb(100%,100%,100%);fill-opacity:1;" d="M 43.601562 8.171875 C 43.476562 8.953125 43.265625 9.65625 42.980469 10.34375 C 42.664062 11.101562 42.28125 11.824219 41.777344 12.480469 C 41.347656 13.035156 40.804688 13.441406 40.164062 13.726562 C 39.429688 14.050781 38.65625 14.230469 37.863281 14.339844 C 37.257812 14.425781 36.644531 14.453125 36.03125 14.472656 C 35.980469 14.472656 35.929688 14.472656 35.839844 14.472656 C 35.898438 14.414062 35.929688 14.375 35.96875 14.351562 C 36.316406 14.144531 36.664062 13.929688 37.019531 13.738281 C 37.9375 13.242188 38.835938 12.714844 39.664062 12.078125 C 40.871094 11.152344 41.9375 10.082031 42.914062 8.917969 C 43.105469 8.691406 43.304688 8.472656 43.503906 8.253906 C 43.523438 8.234375 43.546875 8.21875 43.601562 8.171875 "/>
<path style=" stroke:none;fill-rule:nonzero;fill:rgb(100%,100%,100%);fill-opacity:1;" d="M 29.730469 21.1875 C 30.09375 21.222656 30.382812 21.324219 30.671875 21.4375 C 31.316406 21.6875 31.902344 22.039062 32.484375 22.410156 C 33.273438 22.914062 34.046875 23.441406 34.875 23.886719 C 35.738281 24.351562 36.644531 24.707031 37.609375 24.890625 C 38.046875 24.972656 38.5 24.992188 38.949219 25.039062 C 39.035156 25.046875 39.125 25.042969 39.230469 25.042969 C 39.1875 25.230469 39.066406 25.339844 38.949219 25.441406 C 38.574219 25.78125 38.125 25.984375 37.640625 26.105469 C 36.636719 26.347656 35.707031 26.125 34.820312 25.648438 C 34.007812 25.210938 33.359375 24.578125 32.746094 23.902344 C 32.550781 23.691406 32.355469 23.476562 32.167969 23.257812 C 31.765625 22.789062 31.253906 22.449219 30.769531 22.070312 C 30.484375 21.847656 30.207031 21.617188 29.925781 21.386719 C 29.867188 21.335938 29.820312 21.277344 29.730469 21.1875 "/>
<path style=" stroke:none;fill-rule:nonzero;fill:rgb(100%,100%,100%);fill-opacity:1;" d="M 30.925781 20.074219 C 31.320312 20.195312 31.714844 20.304688 32.105469 20.4375 C 33.058594 20.769531 34.011719 21.117188 34.964844 21.449219 C 35.992188 21.800781 37.019531 22.148438 38.050781 22.488281 C 38.65625 22.683594 39.273438 22.828125 39.910156 22.886719 C 40.121094 22.90625 40.335938 22.910156 40.578125 22.921875 C 40.535156 23.019531 40.511719 23.101562 40.46875 23.171875 C 40.179688 23.65625 39.742188 23.941406 39.214844 24.097656 C 38.558594 24.289062 37.914062 24.214844 37.273438 24.019531 C 36.566406 23.804688 35.929688 23.449219 35.324219 23.03125 C 34.921875 22.753906 34.53125 22.46875 34.144531 22.171875 C 33.445312 21.632812 32.703125 21.160156 31.933594 20.734375 C 31.585938 20.542969 31.246094 20.335938 30.90625 20.132812 C 30.910156 20.113281 30.917969 20.09375 30.925781 20.074219 "/>
<path style=" stroke:none;fill-rule:nonzero;fill:rgb(100%,100%,100%);fill-opacity:1;" d="M 19.910156 34.183594 C 19.34375 33.652344 18.90625 33.046875 18.832031 32.253906 C 18.808594 31.992188 18.8125 31.722656 18.835938 31.460938 C 18.871094 31.039062 18.933594 30.621094 18.984375 30.207031 C 18.988281 30.148438 18.984375 30.089844 18.984375 30.015625 C 18.824219 30.089844 18.75 30.21875 18.679688 30.34375 C 18.554688 30.570312 18.503906 30.816406 18.5 31.070312 C 18.480469 31.757812 18.46875 32.441406 18.457031 33.128906 C 18.457031 33.171875 18.453125 33.214844 18.449219 33.289062 C 18.390625 33.242188 18.351562 33.21875 18.320312 33.183594 C 18.070312 32.902344 17.960938 32.558594 17.914062 32.195312 C 17.820312 31.484375 17.941406 30.796875 18.175781 30.128906 C 18.378906 29.535156 18.667969 28.988281 19.09375 28.523438 C 19.34375 28.25 19.628906 28.035156 19.988281 27.933594 C 20.066406 27.910156 20.144531 27.898438 20.238281 27.878906 C 20.363281 28.128906 20.488281 28.367188 20.617188 28.625 C 20.886719 28.539062 21.144531 28.460938 21.402344 28.382812 C 21.515625 28.523438 22.734375 31.132812 22.800781 31.417969 C 22.757812 31.363281 22.714844 31.3125 22.675781 31.253906 C 22.402344 30.847656 22.140625 30.441406 21.863281 30.039062 C 21.695312 29.792969 21.5 29.570312 21.246094 29.40625 C 21.09375 29.3125 20.9375 29.238281 20.726562 29.265625 C 20.703125 29.453125 20.742188 29.632812 20.792969 29.800781 C 20.902344 30.164062 21.023438 30.519531 21.15625 30.871094 C 21.296875 31.253906 21.414062 31.640625 21.464844 32.046875 C 21.464844 32.066406 21.457031 32.085938 21.449219 32.121094 C 21.253906 31.929688 21.164062 31.699219 21.070312 31.46875 C 20.972656 31.226562 20.894531 30.980469 20.78125 30.75 C 20.660156 30.507812 20.519531 30.269531 20.363281 30.046875 C 20.199219 29.804688 20.046875 29.566406 19.980469 29.28125 C 19.964844 29.21875 19.933594 29.160156 19.867188 29.09375 C 19.796875 29.316406 19.703125 29.53125 19.660156 29.757812 C 19.601562 30.085938 19.574219 30.417969 19.53125 30.746094 C 19.5 30.988281 19.457031 31.226562 19.433594 31.46875 C 19.402344 31.8125 19.441406 32.152344 19.515625 32.484375 C 19.632812 33.003906 19.761719 33.519531 19.882812 34.035156 C 19.894531 34.085938 19.902344 34.132812 19.910156 34.183594 "/>
<path style=" stroke:none;fill-rule:nonzero;fill:rgb(100%,100%,100%);fill-opacity:1;" d="M 26.304688 26.730469 C 26.402344 26.789062 26.503906 26.84375 26.597656 26.910156 C 27.378906 27.453125 28.089844 28.066406 28.664062 28.832031 C 29.035156 29.328125 29.445312 29.792969 29.902344 30.21875 C 30.234375 30.527344 30.550781 30.859375 30.882812 31.179688 C 31.371094 31.648438 31.929688 32.015625 32.546875 32.296875 C 32.800781 32.414062 33.03125 32.574219 33.277344 32.714844 C 33.289062 32.722656 33.300781 32.746094 33.324219 32.78125 C 33.167969 32.847656 33.027344 32.914062 32.878906 32.976562 C 32.578125 33.105469 32.273438 33.214844 31.945312 33.226562 C 31.574219 33.242188 31.226562 33.144531 30.898438 32.980469 C 30.421875 32.742188 30.039062 32.386719 29.675781 32.003906 C 29.15625 31.460938 28.769531 30.824219 28.378906 30.1875 C 27.707031 29.085938 27.027344 27.988281 26.351562 26.886719 C 26.328125 26.84375 26.304688 26.800781 26.28125 26.757812 C 26.289062 26.75 26.296875 26.738281 26.304688 26.730469 "/>
<path style=" stroke:none;fill-rule:nonzero;fill:rgb(100%,100%,100%);fill-opacity:1;" d="M 43.46875 18.351562 C 43.25 18.546875 43.03125 18.742188 42.808594 18.929688 C 42.410156 19.265625 42.003906 19.582031 41.542969 19.824219 C 41.039062 20.09375 40.503906 20.1875 39.941406 20.140625 C 39.261719 20.082031 38.636719 19.847656 38.019531 19.566406 C 36.820312 19.015625 35.613281 18.480469 34.40625 17.9375 C 34.324219 17.898438 34.238281 17.851562 34.160156 17.792969 C 34.523438 17.765625 34.878906 17.757812 35.238281 17.789062 C 36.191406 17.863281 37.105469 18.140625 38.039062 18.324219 C 38.558594 18.421875 39.089844 18.492188 39.613281 18.566406 C 40.195312 18.652344 40.78125 18.628906 41.363281 18.597656 C 42.035156 18.5625 42.699219 18.46875 43.359375 18.332031 C 43.386719 18.324219 43.414062 18.320312 43.441406 18.316406 C 43.453125 18.328125 43.460938 18.339844 43.46875 18.351562 "/>
<path style=" stroke:none;fill-rule:nonzero;fill:rgb(100%,100%,100%);fill-opacity:1;" d="M 34.925781 30.707031 C 34.449219 31.199219 33.925781 31.515625 33.238281 31.492188 C 32.644531 31.46875 32.144531 31.214844 31.675781 30.878906 C 31.167969 30.511719 30.734375 30.070312 30.328125 29.601562 C 29.714844 28.898438 29.1875 28.128906 28.628906 27.386719 C 28.136719 26.730469 27.621094 26.089844 27.117188 25.445312 C 27.082031 25.398438 27.046875 25.351562 26.988281 25.273438 C 27.0625 25.285156 27.105469 25.28125 27.132812 25.296875 C 27.378906 25.464844 27.632812 25.617188 27.855469 25.808594 C 28.339844 26.230469 28.8125 26.667969 29.285156 27.101562 C 30.058594 27.8125 30.8125 28.542969 31.652344 29.171875 C 32.292969 29.65625 32.976562 30.058594 33.726562 30.351562 C 33.929688 30.429688 34.152344 30.464844 34.367188 30.515625 C 34.550781 30.5625 34.734375 30.597656 34.925781 30.707031 "/>
<path style=" stroke:none;fill-rule:nonzero;fill:rgb(100%,100%,100%);fill-opacity:1;" d="M 29.210938 22.917969 C 29.640625 22.984375 29.972656 23.144531 30.269531 23.363281 C 30.773438 23.742188 31.265625 24.132812 31.753906 24.523438 C 32.511719 25.132812 33.277344 25.71875 34.140625 26.164062 C 34.988281 26.601562 35.886719 26.890625 36.828125 27.03125 C 36.984375 27.058594 37.148438 27.066406 37.308594 27.089844 C 37.449219 27.109375 37.582031 27.136719 37.738281 27.167969 C 37.707031 27.203125 37.695312 27.222656 37.679688 27.230469 C 37.132812 27.542969 36.5625 27.796875 35.949219 27.953125 C 35.453125 28.078125 34.988281 28.003906 34.53125 27.785156 C 33.84375 27.460938 33.238281 27.015625 32.65625 26.535156 C 31.792969 25.824219 31.003906 25.039062 30.257812 24.207031 C 29.953125 23.867188 29.664062 23.507812 29.371094 23.15625 C 29.324219 23.09375 29.28125 23.023438 29.210938 22.917969 "/>
<path style=" stroke:none;fill-rule:nonzero;fill:rgb(100%,100%,100%);fill-opacity:1;" d="M 36.195312 28.929688 C 36.039062 29.226562 35.828125 29.445312 35.558594 29.609375 C 35.066406 29.921875 34.535156 29.957031 33.980469 29.8125 C 33.496094 29.6875 33.097656 29.410156 32.726562 29.089844 C 31.957031 28.429688 31.273438 27.679688 30.59375 26.929688 C 29.777344 26.023438 28.964844 25.117188 28.144531 24.214844 C 28.019531 24.078125 27.878906 23.960938 27.703125 23.796875 C 27.800781 23.820312 27.847656 23.824219 27.886719 23.84375 C 28.277344 24.003906 28.597656 24.265625 28.914062 24.53125 C 29.5 25.03125 30.070312 25.542969 30.65625 26.042969 C 31.636719 26.878906 32.671875 27.636719 33.84375 28.1875 C 34.53125 28.507812 35.238281 28.757812 35.988281 28.875 C 36.050781 28.886719 36.113281 28.90625 36.195312 28.929688 "/>
<path style=" stroke:none;fill-rule:nonzero;fill:rgb(100%,100%,100%);fill-opacity:1;" d="M 35.328125 15.433594 C 35.601562 15.320312 35.839844 15.277344 36.078125 15.25 C 36.777344 15.179688 37.472656 15.117188 38.171875 15.058594 C 38.929688 14.992188 39.6875 14.933594 40.449219 14.875 C 41.339844 14.808594 42.132812 14.46875 42.875 13.992188 C 43.378906 13.664062 43.863281 13.316406 44.296875 12.902344 C 44.46875 12.730469 44.632812 12.546875 44.796875 12.371094 C 44.820312 12.34375 44.84375 12.320312 44.890625 12.308594 C 44.871094 12.363281 44.855469 12.417969 44.828125 12.464844 C 44.515625 13.085938 44.210938 13.710938 43.882812 14.320312 C 43.410156 15.195312 42.664062 15.722656 41.707031 15.960938 C 41.621094 15.980469 41.53125 15.980469 41.441406 15.980469 C 40.6875 15.992188 39.933594 15.929688 39.183594 15.867188 C 38.601562 15.820312 38.023438 15.78125 37.441406 15.722656 C 36.78125 15.652344 36.121094 15.5625 35.464844 15.480469 C 35.433594 15.476562 35.410156 15.460938 35.328125 15.433594 "/>
<path style=" stroke:none;fill-rule:nonzero;fill:rgb(100%,100%,100%);fill-opacity:1;" d="M 44.246094 15.828125 C 44.125 16.113281 43.9375 16.332031 43.757812 16.554688 C 43.515625 16.851562 43.265625 17.144531 43.035156 17.453125 C 42.742188 17.839844 42.359375 18.050781 41.882812 18.058594 C 41.519531 18.066406 41.15625 18.050781 40.796875 18.011719 C 39.960938 17.917969 39.148438 17.695312 38.324219 17.519531 C 37.175781 17.269531 36.03125 17.023438 34.882812 16.773438 C 34.855469 16.769531 34.832031 16.753906 34.800781 16.707031 C 34.878906 16.695312 34.949219 16.675781 35.027344 16.667969 C 36.066406 16.578125 37.105469 16.578125 38.148438 16.640625 C 38.929688 16.6875 39.714844 16.726562 40.496094 16.722656 C 41.441406 16.71875 42.359375 16.539062 43.25 16.214844 C 43.574219 16.097656 43.894531 15.964844 44.246094 15.828125 "/>
<path style=" stroke:none;fill-rule:nonzero;fill:rgb(100%,100%,100%);fill-opacity:1;" d="M 22.613281 14.589844 C 22.832031 14.53125 23.046875 14.460938 23.269531 14.414062 C 24.160156 14.234375 25.0625 14.152344 25.976562 14.167969 C 26.53125 14.179688 27.082031 14.179688 27.636719 14.105469 C 28.339844 14.011719 29.03125 13.859375 29.707031 13.648438 C 30.367188 13.4375 31.023438 13.207031 31.679688 12.984375 C 31.726562 12.964844 31.777344 12.949219 31.828125 12.933594 C 31.84375 12.953125 31.867188 12.964844 31.871094 12.984375 C 31.894531 13.3125 31.949219 13.640625 31.894531 13.976562 C 31.8125 14.46875 31.527344 14.761719 31.0625 14.871094 C 30.804688 14.929688 30.535156 14.957031 30.273438 14.953125 C 29.371094 14.941406 28.46875 14.917969 27.570312 14.890625 C 26.78125 14.863281 25.988281 14.824219 25.199219 14.785156 C 24.367188 14.746094 23.535156 14.699219 22.699219 14.65625 C 22.671875 14.65625 22.644531 14.648438 22.617188 14.644531 C 22.613281 14.625 22.613281 14.609375 22.613281 14.589844 "/>
<path style=" stroke:none;fill-rule:nonzero;fill:rgb(100%,100%,100%);fill-opacity:1;" d="M 18.695312 25.078125 C 18.527344 25.101562 18.402344 25.121094 18.265625 25.144531 C 18.242188 25.214844 18.214844 25.289062 18.191406 25.367188 C 18.113281 25.675781 18.039062 25.984375 17.957031 26.289062 C 17.933594 26.378906 17.894531 26.460938 17.84375 26.59375 C 17.742188 26.355469 17.664062 26.167969 17.589844 25.984375 C 17.570312 25.984375 17.550781 25.984375 17.535156 25.984375 C 17.363281 26.398438 17.195312 26.808594 17.015625 27.242188 C 16.96875 27.183594 16.929688 27.144531 16.898438 27.097656 C 16.539062 26.574219 16.210938 26.035156 15.992188 25.433594 C 15.851562 25.050781 15.796875 24.660156 15.828125 24.257812 C 15.839844 24.128906 15.871094 23.996094 15.90625 23.8125 C 16.097656 24.097656 16.226562 24.359375 16.371094 24.609375 C 16.515625 24.863281 16.660156 25.117188 16.828125 25.414062 C 16.960938 25.023438 17.078125 24.679688 17.199219 24.320312 C 17.386719 24.375 17.378906 24.628906 17.585938 24.652344 C 17.601562 24.605469 17.628906 24.5625 17.636719 24.515625 C 17.648438 24.425781 17.644531 24.335938 17.65625 24.25 C 17.6875 24.003906 17.636719 23.800781 17.414062 23.65625 C 17.320312 23.59375 17.253906 23.484375 17.171875 23.394531 C 16.90625 23.417969 16.855469 23.714844 16.640625 23.816406 C 16.613281 23.734375 16.589844 23.65625 16.558594 23.585938 C 16.507812 23.46875 16.464844 23.351562 16.394531 23.25 C 16.199219 22.964844 15.914062 22.886719 15.601562 23.03125 C 15.371094 23.136719 15.191406 23.296875 15.085938 23.527344 C 15.015625 23.675781 14.960938 23.828125 14.890625 23.972656 C 14.792969 24.171875 14.660156 24.332031 14.417969 24.390625 C 14.417969 24.351562 14.410156 24.324219 14.414062 24.296875 C 14.488281 23.851562 14.605469 23.417969 14.867188 23.039062 C 15.242188 22.496094 15.761719 22.289062 16.40625 22.375 C 16.804688 22.425781 17.183594 22.53125 17.503906 22.796875 C 17.765625 23.015625 17.957031 23.289062 18.09375 23.59375 C 18.300781 24.070312 18.488281 24.558594 18.695312 25.078125 "/>
<path style=" stroke:none;fill-rule:nonzero;fill:rgb(100%,100%,100%);fill-opacity:1;" d="M 24.96875 27.386719 C 25.128906 27.523438 25.296875 27.652344 25.449219 27.796875 C 26 28.3125 26.453125 28.917969 26.90625 29.519531 C 27.496094 30.292969 28.070312 31.082031 28.679688 31.839844 C 29.222656 32.511719 29.839844 33.109375 30.597656 33.53125 C 30.890625 33.699219 31.210938 33.816406 31.519531 33.953125 C 31.578125 33.980469 31.640625 34 31.722656 34.03125 C 31.476562 34.367188 31.160156 34.550781 30.773438 34.605469 C 29.96875 34.71875 29.332031 34.421875 28.820312 33.808594 C 28.320312 33.207031 27.933594 32.535156 27.5625 31.855469 C 27.113281 31.027344 26.675781 30.183594 26.199219 29.371094 C 25.878906 28.816406 25.496094 28.296875 25.140625 27.761719 C 25.070312 27.652344 24.992188 27.542969 24.917969 27.4375 C 24.9375 27.417969 24.953125 27.402344 24.96875 27.386719 "/>
<path style=" stroke:none;fill-rule:nonzero;fill:rgb(100%,100%,100%);fill-opacity:1;" d="M 29.082031 34.945312 C 28.246094 35.128906 27.527344 34.980469 26.898438 34.441406 C 26.460938 34.066406 26.164062 33.582031 25.90625 33.070312 C 25.585938 32.429688 25.359375 31.746094 25.128906 31.070312 C 24.945312 30.519531 24.691406 30.007812 24.402344 29.511719 C 24.273438 29.285156 24.15625 29.054688 24.039062 28.824219 C 24.007812 28.761719 23.988281 28.691406 23.996094 28.601562 C 24.101562 28.710938 24.214844 28.808594 24.308594 28.925781 C 24.746094 29.457031 25.183594 29.984375 25.605469 30.527344 C 26.359375 31.492188 27.089844 32.476562 27.84375 33.445312 C 28.179688 33.875 28.539062 34.285156 28.890625 34.707031 C 28.949219 34.777344 29.007812 34.847656 29.082031 34.945312 "/>
<path style=" stroke:none;fill-rule:nonzero;fill:rgb(100%,100%,100%);fill-opacity:1;" d="M 31.273438 10.390625 C 31.304688 10.503906 31.332031 10.609375 31.359375 10.714844 C 31.445312 11.046875 31.476562 11.386719 31.441406 11.726562 C 31.390625 12.210938 31.121094 12.523438 30.65625 12.667969 C 30.269531 12.792969 29.863281 12.832031 29.460938 12.871094 C 28.777344 12.945312 28.09375 13.019531 27.410156 13.089844 C 26.882812 13.140625 26.351562 13.195312 25.820312 13.230469 C 25.261719 13.265625 24.699219 13.296875 24.140625 13.308594 C 23.785156 13.316406 23.429688 13.289062 23.074219 13.277344 C 23.050781 13.273438 23.027344 13.261719 23 13.214844 C 23.152344 13.167969 23.300781 13.113281 23.457031 13.078125 C 24.390625 12.855469 25.339844 12.714844 26.289062 12.566406 C 26.914062 12.464844 27.542969 12.363281 28.160156 12.21875 C 29.132812 11.996094 29.96875 11.511719 30.707031 10.847656 C 30.859375 10.707031 31.019531 10.574219 31.175781 10.4375 C 31.195312 10.421875 31.226562 10.414062 31.273438 10.390625 "/>
<path style=" stroke:none;fill-rule:nonzero;fill:rgb(100%,100%,100%);fill-opacity:1;" d="M 13.699219 30.195312 C 13.59375 30.347656 13.484375 30.5 13.378906 30.652344 C 13.367188 30.648438 13.355469 30.640625 13.34375 30.636719 C 13.542969 29.855469 13.742188 29.074219 13.953125 28.25 C 14.085938 28.460938 14.195312 28.640625 14.316406 28.835938 C 14.433594 28.777344 14.539062 28.722656 14.636719 28.675781 C 14.78125 28.351562 14.890625 28.019531 15.132812 27.738281 C 15.324219 27.96875 15.417969 28.273438 15.742188 28.40625 C 15.855469 28.144531 15.96875 27.886719 16.097656 27.585938 C 16.152344 27.722656 16.164062 27.828125 16.144531 27.933594 C 16.085938 28.253906 16.039062 28.574219 15.960938 28.890625 C 15.871094 29.261719 15.699219 29.597656 15.390625 29.839844 C 15.347656 29.871094 15.304688 29.894531 15.253906 29.925781 C 15.066406 29.863281 14.878906 29.800781 14.667969 29.734375 C 14.609375 30.167969 14.566406 30.589844 14.496094 31.007812 C 14.421875 31.429688 14.328125 31.847656 14.234375 32.265625 C 14.144531 32.679688 14.105469 33.109375 13.90625 33.511719 C 13.738281 33.355469 13.652344 33.164062 13.589844 32.972656 C 13.46875 32.613281 13.410156 32.238281 13.472656 31.859375 C 13.550781 31.363281 13.640625 30.871094 13.722656 30.378906 C 13.734375 30.320312 13.738281 30.265625 13.746094 30.207031 C 13.730469 30.203125 13.714844 30.199219 13.699219 30.195312 "/>
<path style=" stroke:none;fill-rule:nonzero;fill:rgb(100%,100%,100%);fill-opacity:1;" d="M 19.171875 18.714844 C 18.769531 18.898438 18.390625 19.066406 17.992188 19.246094 C 17.984375 19.167969 17.976562 19.125 17.976562 19.082031 C 17.992188 18.386719 17.984375 17.691406 18.03125 17 C 18.117188 15.609375 18.628906 14.375 19.484375 13.285156 C 20.0625 12.554688 20.726562 11.917969 21.503906 11.40625 C 21.75 11.242188 22.007812 11.105469 22.296875 11.015625 C 22.121094 11.152344 21.941406 11.285156 21.769531 11.425781 C 21.085938 11.976562 20.472656 12.59375 20.011719 13.34375 C 19.644531 13.941406 19.390625 14.582031 19.230469 15.261719 C 19.039062 16.09375 19.027344 16.929688 19.074219 17.773438 C 19.085938 18.007812 19.128906 18.242188 19.152344 18.476562 C 19.160156 18.546875 19.164062 18.621094 19.171875 18.714844 "/>
<path style=" stroke:none;fill-rule:nonzero;fill:rgb(100%,100%,100%);fill-opacity:1;" d="M 25.988281 41.730469 C 25.261719 42.34375 24.460938 42.375 23.714844 41.90625 C 23.203125 41.582031 22.808594 41.144531 22.476562 40.652344 C 22.269531 40.347656 22.078125 40.03125 21.886719 39.71875 C 21.421875 38.957031 20.914062 38.234375 20.277344 37.605469 C 19.980469 37.3125 19.714844 36.980469 19.460938 36.636719 C 19.5 36.65625 19.542969 36.671875 19.578125 36.695312 C 20.070312 37.015625 20.492188 37.417969 20.910156 37.828125 C 21.609375 38.519531 22.296875 39.21875 23.003906 39.902344 C 23.300781 40.191406 23.621094 40.453125 23.945312 40.707031 C 24.300781 40.988281 24.71875 41.164062 25.140625 41.332031 C 25.371094 41.421875 25.601562 41.527344 25.832031 41.628906 C 25.882812 41.652344 25.925781 41.6875 25.988281 41.730469 "/>
<path style=" stroke:none;fill-rule:nonzero;fill:rgb(100%,100%,100%);fill-opacity:1;" d="M 14.742188 31.652344 C 14.800781 31.78125 14.847656 31.898438 14.898438 32.011719 C 14.992188 32.214844 15.160156 32.308594 15.378906 32.304688 C 15.582031 32.296875 15.789062 32.269531 15.996094 32.253906 C 16.125 32.242188 16.253906 32.238281 16.394531 32.230469 C 16.351562 32.550781 16.203125 32.816406 16.175781 33.121094 C 16.480469 33.238281 16.773438 33.351562 17.085938 33.472656 C 16.804688 34.285156 16.699219 35.132812 16.34375 35.9375 C 16.308594 35.886719 16.273438 35.851562 16.257812 35.8125 C 16.066406 35.40625 15.957031 34.980469 15.886719 34.542969 C 15.847656 34.316406 15.808594 34.089844 15.757812 33.867188 C 15.683594 33.554688 15.546875 33.386719 15.289062 33.257812 C 15.238281 33.332031 15.273438 33.40625 15.285156 33.484375 C 15.378906 33.960938 15.46875 34.441406 15.5625 34.917969 C 15.566406 34.953125 15.5625 34.988281 15.5625 35.042969 C 15.382812 35 15.257812 34.90625 15.148438 34.789062 C 14.8125 34.433594 14.558594 34.019531 14.449219 33.546875 C 14.386719 33.265625 14.40625 32.957031 14.429688 32.664062 C 14.457031 32.359375 14.53125 32.054688 14.667969 31.773438 C 14.6875 31.734375 14.714844 31.699219 14.742188 31.652344 "/>
<path style=" stroke:none;fill-rule:nonzero;fill:rgb(100%,100%,100%);fill-opacity:1;" d="M 22.433594 16.03125 C 22.789062 15.976562 23.144531 15.902344 23.503906 15.867188 C 24.777344 15.75 26.050781 15.6875 27.332031 15.671875 C 28.070312 15.660156 28.804688 15.640625 29.542969 15.621094 C 29.839844 15.613281 30.132812 15.597656 30.449219 15.589844 C 30.398438 15.726562 30.304688 15.800781 30.207031 15.855469 C 30.035156 15.957031 29.859375 16.046875 29.679688 16.136719 C 29.375 16.285156 29.0625 16.417969 28.765625 16.578125 C 28.355469 16.800781 27.941406 16.871094 27.484375 16.765625 C 26.578125 16.554688 25.652344 16.4375 24.730469 16.335938 C 23.996094 16.253906 23.261719 16.179688 22.527344 16.101562 C 22.496094 16.097656 22.464844 16.082031 22.433594 16.070312 C 22.433594 16.054688 22.433594 16.042969 22.433594 16.03125 "/>
<path style=" stroke:none;fill-rule:nonzero;fill:rgb(100%,100%,100%);fill-opacity:1;" d="M 22.851562 29.949219 C 23.058594 30.082031 23.191406 30.273438 23.328125 30.460938 C 23.902344 31.25 24.433594 32.066406 24.929688 32.90625 C 25.300781 33.527344 25.652344 34.15625 26.011719 34.785156 C 26.054688 34.863281 26.085938 34.945312 26.128906 35.042969 C 26.050781 35.054688 25.992188 35.070312 25.9375 35.066406 C 25.652344 35.050781 25.359375 35.058594 25.078125 35.007812 C 24.480469 34.894531 24.113281 34.507812 23.964844 33.929688 C 23.839844 33.449219 23.742188 32.953125 23.652344 32.460938 C 23.5 31.613281 23.273438 30.789062 22.882812 30.023438 C 22.867188 29.996094 22.863281 29.972656 22.851562 29.949219 "/>
<path style=" stroke:none;fill-rule:nonzero;fill:rgb(100%,100%,100%);fill-opacity:1;" d="M 29.558594 8.078125 C 29.828125 8.480469 29.914062 8.886719 29.832031 9.3125 C 29.664062 10.160156 29.171875 10.78125 28.445312 11.226562 C 28.234375 11.355469 27.996094 11.417969 27.753906 11.449219 C 27.199219 11.519531 26.640625 11.582031 26.082031 11.644531 C 25.5625 11.699219 25.042969 11.753906 24.519531 11.804688 C 24.316406 11.824219 24.109375 11.832031 23.898438 11.820312 C 23.929688 11.804688 23.964844 11.785156 24 11.777344 C 24.671875 11.578125 25.347656 11.386719 26.019531 11.1875 C 26.378906 11.082031 26.738281 10.972656 27.089844 10.839844 C 27.785156 10.582031 28.375 10.167969 28.777344 9.535156 C 28.976562 9.21875 29.136719 8.875 29.3125 8.542969 C 29.386719 8.402344 29.464844 8.257812 29.558594 8.078125 "/>
<path style=" stroke:none;fill-rule:nonzero;fill:rgb(100%,100%,100%);fill-opacity:1;" d="M 16.269531 30.898438 C 16.078125 30.972656 16.078125 30.972656 16.003906 31.1875 C 16.074219 31.359375 16.160156 31.558594 16.253906 31.78125 C 16.121094 31.78125 15.988281 31.792969 15.863281 31.777344 C 15.578125 31.742188 15.421875 31.558594 15.460938 31.273438 C 15.488281 31.054688 15.542969 30.835938 15.621094 30.632812 C 15.765625 30.269531 15.941406 29.917969 16.097656 29.5625 C 16.292969 29.117188 16.484375 28.671875 16.679688 28.21875 C 16.757812 28.363281 16.765625 28.53125 16.792969 28.695312 C 16.882812 29.246094 16.933594 29.804688 17.042969 30.355469 C 17.144531 30.859375 17.296875 31.355469 17.425781 31.851562 C 17.523438 32.222656 17.621094 32.59375 17.71875 32.964844 C 17.726562 32.992188 17.726562 33.019531 17.734375 33.066406 C 17.46875 33.03125 17.261719 32.917969 17.070312 32.769531 C 16.886719 32.625 16.761719 32.433594 16.667969 32.21875 C 16.503906 31.863281 16.421875 31.480469 16.324219 31.101562 C 16.308594 31.039062 16.289062 30.976562 16.269531 30.898438 "/>
<path style=" stroke:none;fill-rule:nonzero;fill:rgb(100%,100%,100%);fill-opacity:1;" d="M 21.113281 11.113281 C 21.171875 10.957031 21.222656 10.796875 21.292969 10.644531 C 21.441406 10.324219 21.609375 10.011719 21.753906 9.6875 C 21.988281 9.15625 22.113281 8.597656 22.179688 8.023438 C 22.277344 7.222656 22.292969 6.417969 22.242188 5.613281 C 22.238281 5.550781 22.238281 5.484375 22.238281 5.386719 C 22.285156 5.425781 22.320312 5.449219 22.339844 5.476562 C 22.601562 5.863281 22.730469 6.304688 22.820312 6.753906 C 22.945312 7.351562 23.019531 7.960938 23.011719 8.574219 C 23.011719 8.933594 22.949219 9.28125 22.832031 9.617188 C 22.675781 10.046875 22.40625 10.390625 22.035156 10.652344 C 21.757812 10.847656 21.464844 11.011719 21.15625 11.148438 C 21.140625 11.136719 21.128906 11.125 21.113281 11.113281 "/>
<path style=" stroke:none;fill-rule:nonzero;fill:rgb(100%,100%,100%);fill-opacity:1;" d="M 18.046875 22.496094 C 18.332031 22.535156 18.613281 22.578125 18.898438 22.613281 C 19.460938 22.679688 20.023438 22.765625 20.589844 22.800781 C 21.070312 22.828125 21.527344 22.691406 21.9375 22.433594 C 22.117188 22.320312 22.292969 22.195312 22.472656 22.078125 C 22.523438 22.042969 22.578125 22.015625 22.65625 22.007812 C 22.632812 22.058594 22.609375 22.109375 22.585938 22.160156 C 22.367188 22.613281 22.105469 23.042969 21.761719 23.410156 C 21.617188 23.566406 21.445312 23.703125 21.269531 23.820312 C 20.976562 24.023438 20.648438 24.03125 20.3125 23.96875 C 19.507812 23.828125 18.8125 23.484375 18.265625 22.867188 C 18.175781 22.765625 18.101562 22.652344 18.019531 22.539062 C 18.03125 22.527344 18.039062 22.511719 18.046875 22.496094 "/>
<path style=" stroke:none;fill-rule:nonzero;fill:rgb(100%,100%,100%);fill-opacity:1;" d="M 15.867188 25.996094 C 15.867188 26.09375 15.878906 26.199219 15.863281 26.296875 C 15.808594 26.707031 15.746094 27.117188 15.679688 27.570312 C 15.546875 27.28125 15.433594 27.03125 15.308594 26.757812 C 15.128906 26.949219 15.042969 27.175781 14.925781 27.382812 C 14.804688 27.59375 14.691406 27.804688 14.539062 28.007812 C 14.582031 27.671875 14.621094 27.332031 14.660156 26.984375 C 14.554688 26.964844 14.492188 27.027344 14.441406 27.082031 C 14.339844 27.1875 14.242188 27.296875 14.15625 27.417969 C 14.027344 27.597656 13.914062 27.789062 13.789062 27.972656 C 13.75 28.03125 13.699219 28.082031 13.621094 28.117188 C 13.636719 28.070312 13.644531 28.023438 13.65625 27.976562 C 13.707031 27.816406 13.769531 27.65625 13.8125 27.492188 C 13.859375 27.289062 13.875 27.085938 13.847656 26.878906 C 13.816406 26.644531 13.8125 26.40625 13.8125 26.171875 C 13.8125 26.078125 13.84375 25.984375 13.871094 25.890625 C 13.898438 25.777344 13.980469 25.714844 14.09375 25.710938 C 14.363281 25.699219 14.617188 25.644531 14.863281 25.527344 C 14.910156 25.5625 14.953125 25.589844 14.988281 25.617188 C 15.015625 25.601562 15.046875 25.597656 15.050781 25.582031 C 15.082031 25.515625 15.113281 25.449219 15.121094 25.378906 C 15.171875 24.96875 15.214844 24.558594 15.261719 24.148438 C 15.261719 24.128906 15.273438 24.105469 15.285156 24.0625 C 15.320312 24.101562 15.355469 24.121094 15.371094 24.15625 C 15.472656 24.332031 15.511719 24.527344 15.519531 24.730469 C 15.527344 24.984375 15.535156 25.246094 15.574219 25.5 C 15.601562 25.679688 15.675781 25.855469 15.867188 25.996094 "/>
<path style=" stroke:none;fill-rule:nonzero;fill:rgb(100%,100%,100%);fill-opacity:1;" d="M 16.898438 21.925781 C 16.828125 21.625 16.894531 21.464844 17.148438 21.378906 C 17.363281 21.308594 17.59375 21.257812 17.820312 21.242188 C 18.230469 21.207031 18.644531 21.199219 19.058594 21.1875 C 19.667969 21.164062 20.234375 21.007812 20.765625 20.699219 C 21.007812 20.558594 21.253906 20.425781 21.5 20.289062 C 21.519531 20.277344 21.550781 20.273438 21.621094 20.25 C 21.535156 20.386719 21.476562 20.484375 21.410156 20.578125 C 21.09375 21.039062 20.75 21.484375 20.328125 21.859375 C 20.113281 22.046875 19.871094 22.148438 19.585938 22.152344 C 18.730469 22.175781 17.886719 22.128906 17.046875 21.972656 C 16.996094 21.960938 16.949219 21.941406 16.898438 21.925781 "/>
<path style=" stroke:none;fill-rule:nonzero;fill:rgb(100%,100%,100%);fill-opacity:1;" d="M 27.40625 6.507812 C 27.488281 6.824219 27.585938 7.140625 27.652344 7.460938 C 27.738281 7.882812 27.789062 8.304688 27.726562 8.738281 C 27.65625 9.242188 27.425781 9.640625 27 9.921875 C 26.660156 10.144531 26.277344 10.261719 25.886719 10.339844 C 25.378906 10.441406 24.863281 10.496094 24.34375 10.496094 C 24.3125 10.496094 24.28125 10.488281 24.199219 10.476562 C 24.285156 10.425781 24.332031 10.394531 24.382812 10.371094 C 24.660156 10.25 24.9375 10.128906 25.21875 10.015625 C 25.925781 9.738281 26.398438 9.222656 26.722656 8.558594 C 26.917969 8.15625 27.023438 7.726562 27.125 7.296875 C 27.1875 7.03125 27.261719 6.769531 27.328125 6.507812 C 27.355469 6.507812 27.378906 6.507812 27.40625 6.507812 "/>
<path style=" stroke:none;fill-rule:nonzero;fill:rgb(100%,100%,100%);fill-opacity:1;" d="M 19.78125 37.644531 C 19.902344 37.769531 20.027344 37.890625 20.148438 38.019531 C 20.558594 38.46875 20.878906 38.984375 21.191406 39.5 C 21.695312 40.324219 22.257812 41.09375 22.96875 41.753906 C 23.140625 41.910156 23.289062 42.09375 23.480469 42.300781 C 23.351562 42.3125 23.261719 42.332031 23.171875 42.332031 C 22.304688 42.324219 21.664062 41.933594 21.222656 41.195312 C 20.929688 40.703125 20.738281 40.167969 20.546875 39.636719 C 20.320312 38.980469 20.09375 38.324219 19.753906 37.71875 C 19.746094 37.707031 19.75 37.691406 19.75 37.675781 C 19.761719 37.664062 19.769531 37.652344 19.78125 37.644531 "/>
<path style=" stroke:none;fill-rule:nonzero;fill:rgb(100%,100%,100%);fill-opacity:1;" d="M 21.734375 30.882812 C 22.003906 31.363281 22.289062 31.835938 22.535156 32.328125 C 22.746094 32.757812 22.925781 33.203125 23.101562 33.648438 C 23.265625 34.0625 23.460938 34.457031 23.691406 34.835938 C 23.765625 34.953125 23.820312 35.082031 23.894531 35.222656 C 23.824219 35.246094 23.777344 35.269531 23.730469 35.269531 C 23.460938 35.277344 23.199219 35.238281 22.949219 35.136719 C 22.5625 34.976562 22.332031 34.671875 22.179688 34.292969 C 22.023438 33.890625 21.984375 33.464844 21.929688 33.039062 C 21.84375 32.398438 21.777344 31.75 21.707031 31.105469 C 21.699219 31.035156 21.703125 30.964844 21.703125 30.894531 C 21.714844 30.890625 21.722656 30.886719 21.734375 30.882812 "/>
<path style=" stroke:none;fill-rule:nonzero;fill:rgb(100%,100%,100%);fill-opacity:1;" d="M 15.582031 21.511719 C 15.960938 21.289062 16.246094 20.988281 16.511719 20.671875 C 16.851562 20.265625 17.269531 19.953125 17.730469 19.695312 C 18.273438 19.390625 18.84375 19.15625 19.464844 18.914062 C 19.398438 19.082031 19.351562 19.21875 19.296875 19.347656 C 19.167969 19.65625 19.019531 19.949219 18.792969 20.199219 C 18.558594 20.457031 18.285156 20.65625 17.949219 20.742188 C 17.460938 20.871094 17.035156 21.105469 16.65625 21.4375 C 16.597656 21.484375 16.535156 21.523438 16.472656 21.566406 C 16.167969 21.765625 15.90625 21.753906 15.582031 21.511719 "/>
<path style=" stroke:none;fill-rule:nonzero;fill:rgb(100%,100%,100%);fill-opacity:1;" d="M 18.785156 33.992188 C 19.015625 34.128906 19.117188 34.320312 19.167969 34.542969 C 19.234375 34.839844 19.253906 35.140625 19.222656 35.445312 C 19.214844 35.546875 19.207031 35.652344 19.199219 35.753906 C 19.144531 35.828125 19.09375 35.902344 19.035156 35.980469 C 18.988281 35.910156 18.949219 35.847656 18.910156 35.789062 C 18.640625 35.871094 18.511719 36.023438 18.503906 36.296875 C 18.496094 36.726562 18.507812 37.15625 18.515625 37.582031 C 18.523438 37.859375 18.546875 38.140625 18.5625 38.445312 C 18.40625 38.375 18.308594 38.277344 18.222656 38.167969 C 18.074219 37.980469 17.933594 37.78125 17.785156 37.585938 C 17.613281 37.363281 17.574219 37.121094 17.667969 36.855469 C 17.933594 36.101562 18.195312 35.339844 18.464844 34.585938 C 18.523438 34.425781 18.609375 34.277344 18.6875 34.128906 C 18.710938 34.082031 18.746094 34.046875 18.785156 33.992188 "/>
<path style=" stroke:none;fill-rule:nonzero;fill:rgb(100%,100%,100%);fill-opacity:1;" d="M 27.515625 17.335938 C 27.199219 17.65625 26.914062 17.941406 26.617188 18.242188 C 25.148438 17.972656 23.660156 17.703125 22.164062 17.429688 C 22.214844 17.351562 22.296875 17.351562 22.367188 17.335938 C 22.824219 17.238281 23.289062 17.195312 23.753906 17.199219 C 24.542969 17.203125 25.335938 17.21875 26.125 17.242188 C 26.542969 17.253906 26.964844 17.289062 27.382812 17.316406 C 27.410156 17.316406 27.441406 17.324219 27.515625 17.335938 "/>
<path style=" stroke:none;fill-rule:nonzero;fill:rgb(100%,100%,100%);fill-opacity:1;" d="M 17.21875 34.078125 C 17.199219 34.199219 17.175781 34.320312 17.164062 34.441406 C 17.15625 34.570312 17.1875 34.6875 17.296875 34.78125 C 17.660156 34.597656 17.742188 34.234375 17.890625 33.890625 C 17.941406 33.886719 17.996094 33.878906 18.054688 33.878906 C 18.105469 33.878906 18.15625 33.882812 18.210938 33.886719 C 18.398438 34.097656 18.402344 34.34375 18.347656 34.597656 C 18.277344 34.949219 18.101562 35.257812 17.921875 35.5625 C 17.714844 35.925781 17.496094 36.285156 17.273438 36.644531 C 17.164062 36.816406 17.035156 36.972656 16.890625 37.175781 C 16.648438 36.078125 16.601562 35.050781 17.152344 34.078125 C 17.175781 34.078125 17.195312 34.078125 17.21875 34.078125 "/>
<path style=" stroke:none;fill-rule:nonzero;fill:rgb(100%,100%,100%);fill-opacity:1;" d="M 25.375 22.925781 C 25.609375 22.980469 25.792969 23.105469 25.976562 23.222656 C 26.757812 23.722656 27.460938 24.320312 28.125 24.964844 C 28.578125 25.398438 29.019531 25.84375 29.378906 26.359375 C 29.429688 26.433594 29.476562 26.507812 29.546875 26.609375 C 29.40625 26.589844 29.316406 26.535156 29.238281 26.460938 C 28.664062 25.910156 28.015625 25.464844 27.355469 25.027344 C 26.769531 24.636719 26.179688 24.238281 25.59375 23.84375 C 25.527344 23.796875 25.464844 23.742188 25.40625 23.6875 C 25.136719 23.433594 25.125 23.234375 25.375 22.925781 "/>
<path style=" stroke:none;fill-rule:nonzero;fill:rgb(100%,100%,100%);fill-opacity:1;" d="M 23.5 10.007812 C 23.539062 9.738281 23.632812 9.539062 23.730469 9.34375 C 23.878906 9.039062 24.042969 8.742188 24.183594 8.433594 C 24.464844 7.8125 24.648438 7.160156 24.800781 6.5 C 24.855469 6.269531 24.90625 6.042969 24.96875 5.765625 C 25.046875 5.917969 25.089844 6.039062 25.09375 6.164062 C 25.113281 6.785156 25.140625 7.40625 25.140625 8.023438 C 25.136719 8.378906 25.066406 8.726562 24.914062 9.054688 C 24.699219 9.523438 24.339844 9.8125 23.84375 9.9375 C 23.746094 9.960938 23.644531 9.976562 23.5 10.007812 "/>
<path style=" stroke:none;fill-rule:nonzero;fill:rgb(100%,100%,100%);fill-opacity:1;" d="M 17.113281 17.90625 C 17.132812 18.039062 17.152344 18.113281 17.15625 18.191406 C 17.191406 18.734375 17.03125 19.226562 16.742188 19.679688 C 16.449219 20.140625 16.058594 20.511719 15.625 20.835938 C 15.390625 21.015625 15.144531 21.179688 14.902344 21.347656 C 14.875 21.367188 14.84375 21.378906 14.785156 21.40625 C 14.953125 20.722656 15.195312 20.109375 15.664062 19.617188 C 16.136719 19.125 16.578125 18.613281 16.984375 18.066406 C 17.015625 18.027344 17.046875 17.988281 17.113281 17.90625 "/>
<path style=" stroke:none;fill-rule:nonzero;fill:rgb(100%,100%,100%);fill-opacity:1;" d="M 21.617188 34.835938 C 21.363281 34.824219 21.164062 34.730469 20.976562 34.625 C 20.648438 34.433594 20.449219 34.144531 20.355469 33.773438 C 20.265625 33.417969 20.273438 33.054688 20.269531 32.695312 C 20.269531 32.398438 20.285156 32.101562 20.273438 31.808594 C 20.257812 31.484375 20.214844 31.160156 20.1875 30.839844 C 20.183594 30.8125 20.1875 30.78125 20.1875 30.730469 C 20.378906 30.890625 20.484375 31.085938 20.582031 31.28125 C 20.753906 31.628906 20.867188 31.996094 20.929688 32.375 C 21.054688 33.089844 21.21875 33.789062 21.492188 34.464844 C 21.539062 34.578125 21.574219 34.695312 21.617188 34.835938 "/>
<path style=" stroke:none;fill-rule:nonzero;fill:rgb(100%,100%,100%);fill-opacity:1;" d="M 26.761719 21.089844 C 26.871094 20.84375 27.0625 20.796875 27.28125 20.804688 C 27.609375 20.816406 27.898438 20.941406 28.1875 21.078125 C 28.933594 21.429688 29.601562 21.902344 30.253906 22.398438 C 30.773438 22.796875 31.277344 23.21875 31.742188 23.683594 C 31.785156 23.726562 31.824219 23.769531 31.855469 23.824219 C 31.664062 23.769531 31.5 23.667969 31.335938 23.5625 C 30.945312 23.308594 30.554688 23.058594 30.171875 22.792969 C 29.726562 22.484375 29.238281 22.261719 28.75 22.035156 C 28.128906 21.742188 27.507812 21.453125 26.886719 21.164062 C 26.847656 21.144531 26.8125 21.121094 26.761719 21.089844 "/>
<path style=" stroke:none;fill-rule:nonzero;fill:rgb(100%,100%,100%);fill-opacity:1;" d="M 14.460938 17.945312 C 15.292969 19.320312 14.746094 21.171875 13.382812 21.972656 C 13.390625 21.914062 13.394531 21.867188 13.40625 21.824219 C 13.617188 21.140625 13.84375 20.460938 14.027344 19.773438 C 14.183594 19.195312 14.292969 18.605469 14.425781 18.023438 C 14.429688 18.003906 14.441406 17.988281 14.460938 17.945312 "/>
<path style=" stroke:none;fill-rule:nonzero;fill:rgb(100%,100%,100%);fill-opacity:1;" d="M 34.023438 20.378906 C 33.773438 20.308594 33.527344 20.238281 33.28125 20.171875 C 32.769531 20.03125 32.261719 19.867188 31.742188 19.753906 C 31.230469 19.644531 30.710938 19.578125 30.195312 19.5 C 29.675781 19.417969 29.15625 19.347656 28.640625 19.273438 C 28.5625 19.261719 28.484375 19.234375 28.394531 19.210938 C 28.527344 18.925781 28.75 18.816406 29.019531 18.789062 C 29.390625 18.746094 29.757812 18.785156 30.113281 18.886719 C 31.15625 19.179688 32.207031 19.460938 33.203125 19.894531 C 33.492188 20.023438 33.765625 20.179688 34.046875 20.324219 C 34.039062 20.339844 34.03125 20.359375 34.023438 20.378906 "/>
<path style=" stroke:none;fill-rule:nonzero;fill:rgb(100%,100%,100%);fill-opacity:1;" d="M 25.949219 21.902344 C 26.128906 21.792969 26.300781 21.765625 26.476562 21.824219 C 26.691406 21.898438 26.910156 21.972656 27.101562 22.085938 C 28.066406 22.652344 28.890625 23.386719 29.652344 24.195312 C 29.902344 24.457031 30.128906 24.738281 30.367188 25.011719 C 30.390625 25.035156 30.40625 25.070312 30.402344 25.121094 C 30.363281 25.101562 30.320312 25.082031 30.285156 25.050781 C 29.984375 24.800781 29.691406 24.542969 29.390625 24.292969 C 28.78125 23.777344 28.089844 23.375 27.394531 22.988281 C 27.035156 22.785156 26.683594 22.570312 26.335938 22.347656 C 26.171875 22.246094 26.046875 22.101562 25.949219 21.902344 "/>
<path style=" stroke:none;fill-rule:nonzero;fill:rgb(100%,100%,100%);fill-opacity:1;" d="M 11.382812 26.828125 C 11.058594 26.34375 10.980469 25.59375 11.382812 25.105469 C 11.472656 24.996094 11.5625 24.890625 11.65625 24.785156 C 11.859375 24.5625 12.0625 24.339844 12.28125 24.097656 C 12.34375 24.183594 12.414062 24.257812 12.464844 24.34375 C 12.65625 24.664062 12.941406 24.789062 13.300781 24.785156 C 13.402344 24.785156 13.503906 24.820312 13.601562 24.84375 C 13.625 24.851562 13.644531 24.878906 13.675781 24.902344 C 13.570312 25.09375 13.417969 25.21875 13.214844 25.257812 C 13.027344 25.292969 12.835938 25.300781 12.644531 25.300781 C 12.464844 25.304688 12.289062 25.320312 12.125 25.394531 C 11.886719 25.492188 11.71875 25.660156 11.652344 25.914062 C 11.589844 26.140625 11.539062 26.371094 11.476562 26.597656 C 11.457031 26.671875 11.417969 26.742188 11.382812 26.828125 "/>
<path style=" stroke:none;fill-rule:nonzero;fill:rgb(100%,100%,100%);fill-opacity:1;" d="M 27.605469 19.929688 C 27.730469 19.769531 27.890625 19.730469 28.0625 19.722656 C 28.371094 19.707031 28.664062 19.789062 28.953125 19.871094 C 29.542969 20.039062 30.105469 20.285156 30.652344 20.554688 C 31.394531 20.921875 32.117188 21.320312 32.789062 21.804688 C 32.890625 21.878906 32.984375 21.957031 33.074219 22.046875 C 32.871094 22.023438 32.707031 21.910156 32.535156 21.820312 C 31.609375 21.34375 30.65625 20.941406 29.644531 20.675781 C 29.117188 20.535156 28.601562 20.359375 28.082031 20.191406 C 27.914062 20.136719 27.738281 20.074219 27.605469 19.929688 "/>
<path style=" stroke:none;fill-rule:nonzero;fill:rgb(100%,100%,100%);fill-opacity:1;" d="M 23.039062 26.445312 C 23.125 26.4375 23.195312 26.433594 23.261719 26.425781 C 23.851562 26.90625 25.785156 29.320312 26.011719 30.183594 C 25.882812 30.0625 25.738281 29.941406 25.609375 29.804688 C 24.8125 28.972656 24.015625 28.140625 23.222656 27.304688 C 23.136719 27.214844 23.0625 27.109375 22.984375 27.015625 C 22.886719 26.898438 22.875 26.777344 22.945312 26.644531 C 22.980469 26.578125 23.007812 26.511719 23.039062 26.445312 "/>
<path style=" stroke:none;fill-rule:nonzero;fill:rgb(100%,100%,100%);fill-opacity:1;" d="M 36.140625 17.535156 C 36.085938 17.539062 36.03125 17.550781 35.972656 17.546875 C 35.628906 17.523438 35.28125 17.496094 34.9375 17.464844 C 33.878906 17.371094 32.820312 17.320312 31.757812 17.425781 C 31.300781 17.46875 30.84375 17.472656 30.386719 17.488281 C 30.304688 17.492188 30.226562 17.476562 30.152344 17.46875 C 30.109375 17.230469 30.1875 17.066406 30.390625 17.007812 C 30.550781 16.960938 30.722656 16.941406 30.890625 16.929688 C 31.875 16.886719 32.851562 16.914062 33.824219 17.082031 C 34.40625 17.179688 34.988281 17.277344 35.570312 17.375 C 35.730469 17.402344 35.890625 17.421875 36.050781 17.445312 C 36.082031 17.453125 36.113281 17.46875 36.144531 17.484375 C 36.144531 17.5 36.144531 17.519531 36.140625 17.535156 "/>
<path style=" stroke:none;fill-rule:nonzero;fill:rgb(100%,100%,100%);fill-opacity:1;" d="M 13.484375 22.832031 C 13.523438 22.945312 13.554688 23.035156 13.589844 23.125 C 13.59375 23.144531 13.613281 23.15625 13.636719 23.183594 C 13.886719 23.222656 14.042969 22.972656 14.304688 22.945312 C 14.277344 23.113281 14.257812 23.265625 14.226562 23.410156 C 14.1875 23.613281 14.152344 23.816406 14.09375 24.015625 C 14.011719 24.292969 13.792969 24.453125 13.503906 24.464844 C 13.414062 24.46875 13.324219 24.464844 13.234375 24.457031 C 13.199219 24.457031 13.164062 24.445312 13.121094 24.4375 C 12.914062 24.101562 12.773438 23.742188 12.648438 23.378906 C 12.984375 22.75 13.320312 22.453125 14.03125 22.3125 C 13.921875 22.558594 13.667969 22.648438 13.484375 22.832031 "/>
<path style=" stroke:none;fill-rule:nonzero;fill:rgb(100%,100%,100%);fill-opacity:1;" d="M 27.046875 28.824219 C 26.957031 28.738281 26.898438 28.683594 26.839844 28.628906 C 26.234375 28.054688 25.625 27.484375 25.023438 26.910156 C 24.753906 26.65625 24.488281 26.398438 24.234375 26.128906 C 24.101562 25.984375 23.992188 25.816406 23.882812 25.648438 C 23.828125 25.566406 23.804688 25.464844 23.753906 25.347656 C 23.949219 25.339844 24.09375 25.40625 24.230469 25.476562 C 24.625 25.679688 24.949219 25.972656 25.25 26.289062 C 25.953125 27.023438 26.523438 27.855469 27.03125 28.734375 C 27.039062 28.746094 27.035156 28.761719 27.046875 28.824219 "/>
<path style=" stroke:none;fill-rule:nonzero;fill:rgb(100%,100%,100%);fill-opacity:1;" d="M 21.78125 18.78125 C 23.140625 18.859375 24.457031 18.933594 25.777344 19.011719 C 25.722656 19.21875 25.324219 19.621094 24.976562 19.835938 C 24.6875 19.761719 21.925781 18.929688 21.78125 18.78125 "/>
<path style=" stroke:none;fill-rule:nonzero;fill:rgb(100%,100%,100%);fill-opacity:1;" d="M 24.542969 31.050781 C 24.402344 30.855469 24.269531 30.652344 24.117188 30.464844 C 23.652344 29.886719 23.179688 29.320312 22.714844 28.746094 C 22.488281 28.464844 22.269531 28.175781 22.109375 27.847656 C 22.078125 27.773438 22.050781 27.699219 22.007812 27.59375 C 22.300781 27.582031 22.550781 27.628906 22.757812 27.789062 C 22.914062 27.910156 23.046875 28.0625 23.171875 28.214844 C 23.261719 28.320312 23.328125 28.449219 23.394531 28.570312 C 23.730469 29.226562 24.070312 29.886719 24.398438 30.546875 C 24.476562 30.699219 24.519531 30.871094 24.578125 31.035156 C 24.566406 31.039062 24.554688 31.042969 24.542969 31.050781 "/>
<path style=" stroke:none;fill-rule:nonzero;fill:rgb(100%,100%,100%);fill-opacity:1;" d="M 34.332031 18.660156 C 34.210938 18.652344 34.085938 18.648438 33.964844 18.632812 C 33.453125 18.566406 32.941406 18.496094 32.429688 18.425781 C 31.835938 18.347656 31.238281 18.347656 30.640625 18.347656 C 30.308594 18.347656 29.976562 18.320312 29.644531 18.292969 C 29.484375 18.28125 29.328125 18.230469 29.191406 18.136719 C 29.179688 18.007812 29.265625 17.957031 29.359375 17.9375 C 29.574219 17.894531 29.792969 17.84375 30.011719 17.832031 C 30.246094 17.816406 30.484375 17.835938 30.71875 17.851562 C 31.78125 17.933594 32.828125 18.117188 33.847656 18.433594 C 33.988281 18.476562 34.121094 18.535156 34.261719 18.589844 C 34.285156 18.601562 34.3125 18.613281 34.335938 18.625 C 34.335938 18.636719 34.332031 18.648438 34.332031 18.660156 "/>
<path style=" stroke:none;fill-rule:nonzero;fill:rgb(100%,100%,100%);fill-opacity:1;" d="M 19.371094 37.925781 C 19.664062 38.1875 20.660156 40.320312 20.800781 41.003906 C 20.484375 40.941406 20.175781 40.886719 19.875 40.828125 C 19.71875 40.550781 19.34375 38.378906 19.371094 37.925781 "/>
<path style=" stroke:none;fill-rule:nonzero;fill:rgb(100%,100%,100%);fill-opacity:1;" d="M 36.648438 16.027344 C 36.257812 16.175781 32.199219 16.558594 31.6875 16.503906 C 31.933594 16.335938 32.191406 16.253906 32.449219 16.179688 C 32.96875 16.03125 33.503906 15.960938 34.039062 15.910156 C 34.734375 15.847656 35.425781 15.851562 36.117188 15.941406 C 36.28125 15.960938 36.445312 15.992188 36.648438 16.027344 "/>
<path style=" stroke:none;fill-rule:nonzero;fill:rgb(100%,100%,100%);fill-opacity:1;" d="M 27.195312 26.730469 C 27.113281 26.789062 27.066406 26.765625 27.019531 26.71875 C 26.347656 26.054688 25.578125 25.515625 24.835938 24.945312 C 24.726562 24.863281 24.625 24.777344 24.535156 24.679688 C 24.34375 24.464844 24.351562 24.21875 24.574219 23.972656 C 24.722656 24.089844 24.878906 24.199219 25.019531 24.328125 C 25.769531 25.042969 26.457031 25.816406 27.117188 26.613281 C 27.144531 26.644531 27.164062 26.683594 27.195312 26.730469 "/>
<path style=" stroke:none;fill-rule:nonzero;fill:rgb(100%,100%,100%);fill-opacity:1;" d="M 23.753906 21.1875 C 23.617188 21.109375 23.484375 21.027344 23.347656 20.957031 C 23.109375 20.828125 22.871094 20.691406 22.625 20.582031 C 22.433594 20.5 22.316406 20.371094 22.246094 20.167969 C 22.433594 20.089844 22.621094 20.070312 22.8125 20.089844 C 23.320312 20.136719 23.816406 20.246094 24.300781 20.402344 C 24.328125 20.410156 24.347656 20.433594 24.386719 20.457031 C 24.242188 20.757812 24.035156 20.996094 23.753906 21.1875 "/>
<path style=" stroke:none;fill-rule:nonzero;fill:rgb(100%,100%,100%);fill-opacity:1;" d="M 19.265625 25.164062 C 19.058594 24.804688 19.003906 24.414062 18.945312 24.019531 C 19.351562 24.027344 20.0625 24.335938 20.339844 24.621094 C 20.113281 25.046875 19.761719 25.230469 19.265625 25.164062 "/>
<path style=" stroke:none;fill-rule:nonzero;fill:rgb(100%,100%,100%);fill-opacity:1;" d="M 19.082031 38.292969 C 19.09375 38.785156 19.179688 39.277344 19.042969 39.773438 C 18.59375 39.5625 18.632812 38.773438 19.082031 38.292969 "/>
<path style=" stroke:none;fill-rule:nonzero;fill:rgb(100%,100%,100%);fill-opacity:1;" d="M 20.332031 36.4375 C 20.382812 36.460938 20.433594 36.480469 20.53125 36.519531 C 20.398438 36.570312 20.359375 36.507812 20.332031 36.4375 "/>
</g>
</svg>
