<?xml version="1.0" encoding="UTF-8"?>
<svg xmlns="http://www.w3.org/2000/svg" xmlns:xlink="http://www.w3.org/1999/xlink" width="56pt" height="56pt" viewBox="0 0 56 56" version="1.1">
<g id="surface1">
<rect x="0" y="0" width="56" height="56" style="fill:rgb(92.939758%,10.978699%,14.118958%);fill-opacity:1;stroke:none;"/>
<path style=" stroke:none;fill-rule:evenodd;fill:rgb(100%,100%,100%);fill-opacity:1;" d="M 34.820312 15.488281 C 34.820312 15.78125 35.09375 16.308594 34.972656 16.34375 C 34.347656 16.289062 34.039062 15.6875 34.039062 15.019531 C 34.039062 13.753906 36.382812 13.3125 36.765625 14.941406 C 36.484375 14.800781 35.921875 14.628906 35.59375 14.628906 C 35.222656 14.628906 34.816406 15.113281 34.816406 15.480469 Z M 43.546875 16.503906 Z M 33.304688 44.789062 C 33.265625 44.515625 33.210938 44.175781 33.164062 43.828125 C 33.460938 43.808594 33.753906 43.785156 34.046875 43.769531 L 34.074219 43.769531 C 34.554688 43.734375 35.363281 43.613281 36.710938 42.90625 C 37.53125 42.472656 38.671875 41.316406 39.203125 40.570312 C 40.042969 39.367188 40.488281 37.863281 40.488281 36.324219 L 40.488281 36.25 C 40.488281 35.847656 40.449219 35.453125 40.390625 35.074219 C 40.382812 35.046875 40.382812 35.015625 40.378906 34.984375 L 40.371094 34.96875 C 40.25 34.265625 40.03125 33.570312 39.703125 32.902344 C 38.761719 30.960938 36.953125 29.597656 34.902344 29.050781 C 34.480469 28.9375 34.046875 28.855469 33.605469 28.816406 L 33.53125 28.808594 L 33.464844 28.804688 C 32.238281 28.710938 30.972656 28.910156 29.800781 29.445312 C 29.6875 29.496094 29.578125 29.542969 29.480469 29.597656 C 28.578125 30.050781 27.78125 30.6875 27.136719 31.441406 L 27.121094 31.460938 L 26.996094 31.402344 C 24.65625 30.28125 21.210938 23.777344 20.398438 20.816406 C 19.390625 17.15625 18.75 10.933594 19.570312 7.140625 C 19.695312 6.554688 19.855469 5.726562 19.917969 5.4375 C 17.546875 3.9375 14.28125 5.980469 13.914062 10.621094 C 13.320312 18.097656 17.90625 25.917969 23.257812 30.566406 C 24.03125 31.238281 24.625 31.675781 25.050781 32.007812 L 26.199219 32.84375 C 26.035156 33.164062 25.886719 33.503906 25.765625 33.851562 C 24.945312 33.363281 24.21875 32.902344 23.324219 32.226562 C 22.539062 31.648438 21.828125 31.101562 21.097656 30.484375 C 19.488281 29.109375 18.648438 28.160156 17.1875 26.464844 C 15.375 24.371094 12.273438 19.132812 12.109375 15.507812 C 8.597656 15.039062 6.414062 21.679688 12.992188 27.734375 C 17.253906 31.660156 20.050781 32.84375 25.453125 35.105469 C 25.40625 35.382812 25.378906 35.65625 25.367188 35.933594 L 25.359375 36.007812 C 24.492188 36.082031 21.253906 35.046875 20.332031 34.714844 C 11.871094 31.640625 9.902344 27.96875 8.917969 26.933594 C 7.539062 27.914062 7.308594 30.746094 8.53125 32.382812 C 10.601562 35.152344 15.09375 36.75 18.601562 37.144531 C 20.777344 37.390625 22.453125 37.496094 24.636719 37.40625 L 25.441406 37.332031 C 25.492188 37.703125 25.574219 38.070312 25.671875 38.425781 L 25.550781 38.453125 L 25.40625 38.484375 L 25.398438 38.484375 C 20.796875 39.425781 17.152344 39.226562 12.753906 37.816406 C 11.496094 37.417969 9.875 36.457031 9.667969 36.34375 C 9.273438 36.667969 8.523438 42.273438 16.15625 42.332031 C 18.074219 42.34375 19.996094 41.972656 21.648438 41.445312 C 23.203125 40.945312 24.617188 40.335938 26.195312 39.726562 C 26.347656 40.023438 26.515625 40.300781 26.707031 40.574219 L 26.488281 40.777344 C 26.441406 40.828125 26.382812 40.875 26.320312 40.929688 C 25.265625 41.832031 22.667969 42.933594 21.328125 43.367188 C 18.320312 44.335938 17 44.179688 14.015625 43.835938 C 14.375 47.800781 18.820312 47.320312 21.347656 46.324219 C 23.902344 45.316406 25.597656 43.40625 27.480469 41.523438 C 27.695312 41.742188 27.921875 41.953125 28.164062 42.144531 C 28.003906 42.507812 27.824219 42.804688 27.617188 43.113281 C 26.519531 44.710938 23.804688 46.78125 22.195312 47.511719 C 20.539062 48.269531 19.589844 48.3125 19.34375 48.363281 C 19.496094 49.394531 20.578125 49.957031 21.847656 49.949219 C 25.652344 49.917969 28.125 45.050781 28.816406 43.648438 L 29.210938 42.859375 C 29.464844 43.007812 29.730469 43.132812 30.007812 43.246094 L 29.71875 44.195312 C 29.707031 44.234375 29.691406 44.28125 29.679688 44.328125 L 29.679688 44.335938 C 29.511719 44.855469 29.199219 45.542969 28.675781 46.417969 C 26.742188 49.675781 24.984375 50.171875 24.785156 50.269531 C 25.226562 51.046875 26.574219 51.253906 27.589844 50.839844 C 30.066406 49.835938 30.441406 46.175781 30.875 44.121094 L 30.980469 43.566406 C 31.25 43.640625 31.515625 43.695312 31.796875 43.734375 L 31.800781 43.769531 C 32.257812 48.046875 30.339844 50.113281 30.21875 50.3125 C 31.535156 50.539062 32.675781 50.296875 33.285156 49.296875 C 33.871094 48.328125 33.59375 46.691406 33.445312 45.511719 C 34.78125 45.464844 36.335938 45.011719 37.351562 44.675781 C 40.578125 43.601562 42.714844 40.855469 43.601562 37.652344 C 43.6875 37.34375 43.824219 37.03125 43.894531 36.703125 C 44.410156 36.703125 44.984375 36.648438 44.984375 36.003906 C 44.984375 35.859375 44.855469 35.441406 44.789062 35.335938 C 44.589844 35.015625 43.734375 34.472656 43.734375 33.585938 C 43.734375 33.390625 43.847656 33.070312 43.890625 32.882812 C 44.308594 32.847656 44.90625 32.414062 44.90625 31.949219 C 44.90625 31.246094 43.714844 30.878906 43.28125 30.453125 C 42.851562 30.027344 42.328125 28.949219 42.328125 28.289062 C 42.328125 27.890625 42.125 26.886719 42.714844 26.886719 C 43.335938 26.886719 45.832031 28.160156 45.832031 24.316406 C 44.855469 24.785156 44.148438 25.097656 43.167969 24.328125 C 42.019531 23.433594 42.972656 20.34375 45.132812 20.34375 C 45.597656 20.34375 45.933594 20.445312 46.164062 20.710938 C 46.371094 20.945312 46.519531 21.425781 46.53125 21.824219 C 46.96875 21.539062 47.28125 21.15625 47.601562 20.71875 C 47.792969 20.449219 48.167969 19.433594 48.167969 19.019531 C 48.167969 18.734375 48.023438 18.632812 48.042969 18.40625 C 48.078125 18.039062 48.582031 17.550781 47.941406 17.144531 C 47.433594 16.824219 46.433594 17.417969 44.71875 16.558594 C 44.488281 16.445312 44.242188 16.269531 44.042969 16.214844 C 44.046875 15.78125 44.195312 15.714844 44.195312 15.28125 C 44.195312 14.601562 42.074219 13.746094 41.34375 13.296875 C 40.835938 12.984375 40.371094 12.664062 39.96875 12.261719 C 39.40625 11.695312 39.136719 11.234375 39.0625 10.933594 C 38.949219 10.882812 38.839844 10.839844 38.667969 10.839844 C 38.027344 10.839844 37.546875 11.328125 37.417969 11.855469 C 37.277344 11.710938 37.171875 11.601562 36.96875 11.46875 C 36.769531 11.328125 36.550781 11.214844 36.351562 11.128906 C 34.914062 10.515625 33.960938 10.480469 32.429688 9.671875 C 31.863281 10.054688 31.390625 10.667969 31.578125 11.460938 C 30.855469 11.082031 30.207031 11.148438 29.433594 11.261719 C 28.964844 11.328125 27.476562 11.535156 27.09375 11.507812 C 26.722656 11.507812 26.199219 11.441406 25.894531 11.382812 C 25.859375 11.816406 25.660156 12.167969 25.660156 12.703125 C 25.660156 13.230469 25.820312 13.566406 25.894531 13.71875 C 25.011719 13.71875 24.570312 13.726562 23.863281 13.867188 C 23.128906 14.011719 22.589844 14.050781 21.847656 14.027344 C 21.625 14.960938 21.59375 15.429688 22.09375 16.351562 C 22.273438 16.683594 22.679688 17.285156 22.855469 17.457031 C 22.46875 17.59375 21.765625 17.726562 21.371094 17.773438 C 21.371094 18.875 21.847656 20.429688 22.132812 21.453125 C 22.980469 24.484375 24.476562 27.015625 26.359375 29.457031 C 26.546875 29.699219 26.722656 29.898438 26.90625 30.078125 C 27.101562 29.890625 27.242188 29.773438 27.457031 29.609375 C 29.21875 28.242188 30.894531 27.660156 33.296875 27.660156 C 34.441406 27.660156 35.84375 28.070312 36.625 28.464844 C 37.679688 28.996094 38.292969 29.417969 39.082031 30.210938 C 40.203125 31.335938 40.898438 32.675781 41.289062 34.238281 C 42.097656 37.410156 40.96875 41.183594 38.3125 43.097656 C 37.84375 43.433594 37.417969 43.679688 36.890625 43.949219 C 36.050781 44.367188 34.535156 44.761719 33.339844 44.800781 Z M 43.546875 16.503906 C 43.449219 16.945312 43.046875 17.527344 42.847656 17.90625 C 42.71875 17.8125 42.515625 17.539062 42.359375 17.378906 C 42.160156 17.171875 42.046875 16.984375 41.910156 16.738281 C 42.261719 16.738281 42.53125 16.71875 42.78125 16.671875 C 43.136719 16.609375 43.246094 16.523438 43.546875 16.503906 "/>
</g>
</svg>
