<?xml version="1.0" encoding="UTF-8"?>
<svg xmlns="http://www.w3.org/2000/svg" xmlns:xlink="http://www.w3.org/1999/xlink" width="56pt" height="56pt" viewBox="0 0 56 56" version="1.1">
<g id="surface1">
<rect x="0" y="0" width="56" height="56" style="fill:rgb(95.666504%,95.776367%,96.775818%);fill-opacity:1;stroke:none;"/>
<path style=" stroke:none;fill-rule:nonzero;fill:rgb(8.207703%,25.982666%,50.646973%);fill-opacity:1;" d="M 28 40.796875 C 14.253906 40.796875 3.109375 35.066406 3.109375 28 C 3.109375 20.933594 14.253906 15.203125 28 15.203125 C 41.746094 15.203125 52.890625 20.933594 52.890625 28 C 52.890625 35.066406 41.746094 40.796875 28 40.796875 Z M 28 14.105469 C 13.703125 14.105469 2.113281 20.328125 2.113281 28 C 2.113281 35.671875 13.703125 41.894531 28 41.894531 C 42.296875 41.894531 53.886719 35.671875 53.886719 28 C 53.886719 20.328125 42.296875 14.105469 28 14.105469 "/>
<path style=" stroke:none;fill-rule:nonzero;fill:rgb(82.737732%,12.141418%,16.108704%);fill-opacity:1;" d="M 33.703125 19.0625 C 33.703125 19.0625 22.144531 18.234375 22.222656 27.535156 C 22.390625 37.796875 41.714844 38.011719 47.230469 35.003906 C 43.136719 36.28125 28.902344 36.734375 26.785156 27.855469 C 24.984375 20.066406 33.703125 19.0625 33.703125 19.0625 "/>
<path style=" stroke:none;fill-rule:nonzero;fill:rgb(8.207703%,25.982666%,50.646973%);fill-opacity:1;" d="M 21.527344 29.28125 C 18.640625 29.28125 16.304688 28.667969 16.304688 27.910156 C 16.304688 27.152344 18.640625 26.535156 21.527344 26.535156 C 21.621094 26.535156 21.707031 26.539062 21.796875 26.539062 C 21.859375 25.710938 22.019531 24.960938 22.242188 24.277344 C 15.957031 24.554688 9.804688 26.351562 9.804688 27.957031 C 9.804688 29.605469 16.625 31.78125 23.105469 31.933594 C 22.574219 31.132812 22.1875 30.25 21.96875 29.277344 C 21.824219 29.28125 21.675781 29.28125 21.527344 29.28125 "/>
<path style=" stroke:none;fill-rule:nonzero;fill:rgb(8.207703%,25.982666%,50.646973%);fill-opacity:1;" d="M 44.667969 27.765625 C 44.292969 27.765625 38.738281 27.765625 36.035156 27.765625 C 35.988281 27.53125 35.863281 27.304688 35.667969 27.082031 C 38.503906 27.082031 43.539062 27.082031 43.84375 27.082031 C 44.273438 27.082031 44.273438 26.503906 43.84375 26.503906 C 43.511719 26.503906 37.585938 26.503906 34.96875 26.503906 C 33.484375 25.535156 30.621094 24.753906 27.320312 24.417969 C 27.003906 25.449219 27.097656 26.734375 27.363281 28.042969 C 27.632812 29.375 28.261719 30.417969 29.417969 31.429688 C 31.578125 31.023438 33.414062 30.410156 34.601562 29.703125 C 37.472656 29.703125 42.285156 29.703125 42.585938 29.703125 C 43.019531 29.703125 43.019531 29.128906 42.585938 29.128906 C 42.308594 29.128906 38.285156 29.128906 35.402344 29.128906 C 35.6875 28.871094 35.886719 28.605469 35.980469 28.339844 C 38.691406 28.339844 44.371094 28.339844 44.667969 28.339844 C 45.066406 28.339844 45.175781 27.765625 44.667969 27.765625 "/>
</g>
</svg>
