<?xml version="1.0" encoding="UTF-8"?>
<svg xmlns="http://www.w3.org/2000/svg" xmlns:xlink="http://www.w3.org/1999/xlink" width="56pt" height="56pt" viewBox="0 0 56 56" version="1.1">
<g id="surface1">
<rect x="0" y="0" width="56" height="56" style="fill:rgb(19.75708%,36.514282%,70.359802%);fill-opacity:1;stroke:none;"/>
<path style=" stroke:none;fill-rule:nonzero;fill:rgb(100%,100%,100%);fill-opacity:1;" d="M 28.972656 6.828125 C 17.296875 6.828125 7.800781 16.324219 7.800781 28 C 7.800781 39.675781 17.296875 49.171875 28.972656 49.171875 C 40.648438 49.171875 50.148438 39.675781 50.148438 28 C 50.148438 16.324219 40.648438 6.828125 28.972656 6.828125 Z M 28.972656 50.429688 C 16.605469 50.429688 6.542969 40.367188 6.542969 28 C 6.542969 15.632812 16.605469 5.570312 28.972656 5.570312 C 41.34375 5.570312 51.40625 15.632812 51.40625 28 C 51.40625 40.367188 41.34375 50.429688 28.972656 50.429688 "/>
<path style=" stroke:none;fill-rule:nonzero;fill:rgb(100%,100%,100%);fill-opacity:1;" d="M 11.113281 42.453125 C 9.105469 42.453125 7.472656 41.800781 6.414062 40.777344 C 4.652344 39.070312 3.886719 35.6875 7.027344 31.300781 L 8.050781 32.035156 C 5.8125 35.160156 5.523438 38.160156 7.289062 39.871094 C 9.34375 41.859375 14.0625 41.851562 19.105469 37.980469 C 30.183594 29.488281 31.003906 27.660156 31.054688 27.378906 C 31.046875 27.410156 31.054688 27.53125 31.152344 27.648438 C 31.195312 27.699219 31.292969 27.789062 31.445312 27.789062 C 31.445312 27.789062 31.449219 27.789062 31.449219 27.789062 L 31.410156 26.53125 C 31.726562 26.519531 32.109375 26.683594 32.257812 27.085938 C 32.480469 27.695312 32.941406 28.960938 19.871094 38.980469 C 16.632812 41.464844 13.589844 42.453125 11.113281 42.453125 "/>
<path style=" stroke:none;fill-rule:nonzero;fill:rgb(100%,100%,100%);fill-opacity:1;" d="M 27.65625 26.515625 L 32.953125 31.964844 L 34.796875 24.875 Z M 27.65625 26.515625 "/>
<path style=" stroke:none;fill-rule:nonzero;fill:rgb(100%,100%,100%);fill-opacity:1;" d="M 4.605469 32.925781 C 4.605469 32.925781 4.53125 33.054688 4.386719 33.292969 C 4.25 33.535156 4.054688 33.894531 3.851562 34.367188 C 3.644531 34.839844 3.433594 35.429688 3.296875 36.121094 C 3.160156 36.808594 3.105469 37.609375 3.257812 38.441406 C 3.394531 39.273438 3.746094 40.132812 4.328125 40.894531 C 4.894531 41.660156 5.679688 42.332031 6.601562 42.828125 C 7.523438 43.328125 8.566406 43.675781 9.664062 43.839844 C 10.757812 44.003906 11.898438 43.996094 13.019531 43.839844 C 14.140625 43.679688 15.234375 43.359375 16.265625 42.917969 C 17.296875 42.496094 18.273438 41.9375 19.140625 41.332031 C 20.058594 40.679688 20.894531 40.074219 21.699219 39.449219 C 22.492188 38.820312 23.253906 38.234375 23.9375 37.667969 C 25.3125 36.550781 26.445312 35.589844 27.246094 34.921875 C 28.046875 34.253906 28.503906 33.871094 28.503906 33.871094 C 28.503906 33.871094 28.410156 33.988281 28.238281 34.210938 C 28.070312 34.433594 27.8125 34.753906 27.472656 35.152344 C 26.800781 35.953125 25.800781 37.0625 24.527344 38.328125 C 23.878906 38.949219 23.179688 39.628906 22.398438 40.296875 C 21.617188 40.960938 20.757812 41.679688 19.859375 42.320312 C 18.90625 43 17.878906 43.601562 16.753906 44.078125 C 15.625 44.546875 14.417969 44.886719 13.183594 45.050781 C 11.949219 45.21875 10.683594 45.195312 9.472656 44.96875 C 8.265625 44.738281 7.097656 44.335938 6.089844 43.710938 C 5.082031 43.09375 4.226562 42.292969 3.632812 41.378906 C 3.03125 40.464844 2.707031 39.460938 2.621094 38.523438 C 2.53125 37.585938 2.679688 36.730469 2.886719 36.019531 C 3.105469 35.304688 3.398438 34.726562 3.660156 34.273438 C 3.921875 33.816406 4.171875 33.484375 4.339844 33.261719 C 4.511719 33.042969 4.605469 32.925781 4.605469 32.925781 "/>
</g>
</svg>
