<?xml version="1.0" encoding="UTF-8"?>
<svg xmlns="http://www.w3.org/2000/svg" xmlns:xlink="http://www.w3.org/1999/xlink" width="56pt" height="56pt" viewBox="0 0 56 56" version="1.1">
<g id="surface1">
<rect x="0" y="0" width="56" height="56" style="fill:rgb(95.66803%,95.779419%,96.777344%);fill-opacity:1;stroke:none;"/>
<path style=" stroke:none;fill-rule:nonzero;fill:rgb(92.451477%,8.581543%,29.341125%);fill-opacity:1;" d="M 37.453125 33.957031 L 0.574219 33.957031 L 0.574219 31.257812 L 29.863281 31.257812 L 14.074219 25.457031 L 14.539062 22.84375 L 54.191406 22.84375 L 54.191406 25.539062 L 22.128906 25.539062 L 37.917969 31.339844 L 37.453125 33.957031 "/>
<path style=" stroke:none;fill-rule:nonzero;fill:rgb(6.266785%,5.734253%,5.047607%);fill-opacity:1;" d="M 9.210938 47.382812 C 11.316406 44.730469 13.363281 41.582031 15.351562 37.933594 C 17.335938 34.289062 19.59375 29.464844 22.121094 23.453125 C 22.296875 23.03125 22.5625 22.382812 22.914062 21.503906 C 24.511719 17.640625 25.828125 14.644531 26.867188 12.519531 C 27.691406 10.777344 28.371094 9.695312 28.910156 9.261719 C 29.445312 8.832031 30.167969 8.617188 31.082031 8.617188 C 32.292969 8.617188 33.148438 9.132812 33.640625 10.160156 C 34.132812 11.1875 34.378906 13.070312 34.378906 15.8125 L 34.378906 17.101562 L 33.929688 38.316406 L 37.328125 27.195312 C 38.539062 23.257812 39.796875 20.0625 41.097656 17.601562 C 42.398438 15.140625 43.800781 13.261719 45.316406 11.960938 L 46.789062 17.972656 C 45.894531 19.21875 44.863281 21.191406 43.695312 23.886719 C 42.523438 26.585938 40.949219 30.671875 38.964844 36.15625 L 38.9375 36.207031 C 36.421875 43.148438 34.253906 46.617188 32.425781 46.617188 C 31.371094 46.617188 30.632812 46.226562 30.203125 45.445312 C 29.769531 44.664062 29.554688 43.269531 29.554688 41.269531 L 29.554688 40.792969 L 30.054688 15.308594 C 26.980469 23.480469 24.214844 30.195312 21.753906 35.457031 C 19.292969 40.71875 17.074219 44.695312 15.085938 47.382812 L 9.210938 47.382812 "/>
</g>
</svg>
