<?xml version="1.0" encoding="UTF-8"?>
<svg xmlns="http://www.w3.org/2000/svg" xmlns:xlink="http://www.w3.org/1999/xlink" width="56pt" height="56pt" viewBox="0 0 56 56" version="1.1">
<g id="surface1">
<rect x="0" y="0" width="56" height="56" style="fill:rgb(95.66803%,95.779419%,96.777344%);fill-opacity:1;stroke:none;"/>
<path style=" stroke:none;fill-rule:nonzero;fill:rgb(16.207886%,16.05835%,41.015625%);fill-opacity:1;" d="M 15.769531 25.871094 C 15.78125 25.90625 15.792969 25.9375 15.804688 25.96875 C 16.421875 25.929688 17.039062 25.890625 17.65625 25.855469 C 18.574219 25.804688 19.28125 25.382812 19.804688 24.644531 C 20.621094 23.5 21.425781 22.34375 22.230469 21.191406 C 22.3125 21.074219 22.371094 20.9375 22.414062 20.800781 C 22.503906 20.496094 22.425781 20.328125 22.117188 20.265625 C 21.832031 20.207031 21.527344 20.191406 21.230469 20.195312 C 20.246094 20.199219 19.433594 20.539062 18.855469 21.394531 C 17.882812 22.824219 16.875 24.234375 15.886719 25.652344 C 15.839844 25.71875 15.808594 25.800781 15.769531 25.871094 Z M 15.699219 27.1875 C 15.699219 27.199219 15.695312 27.210938 15.695312 27.222656 C 15.566406 27.222656 15.433594 27.242188 15.3125 27.21875 C 15 27.167969 14.808594 27.300781 14.632812 27.550781 C 13.808594 28.710938 12.957031 29.851562 12.136719 31.015625 C 11.828125 31.453125 11.535156 31.90625 11.296875 32.382812 C 11.070312 32.832031 11.257812 33.164062 11.761719 33.222656 C 12.820312 33.34375 13.800781 33.128906 14.476562 32.25 C 15.472656 30.957031 16.414062 29.613281 17.363281 28.28125 C 17.679688 27.835938 17.5625 27.523438 17.03125 27.390625 C 16.597656 27.28125 16.144531 27.25 15.699219 27.1875 Z M 1.789062 33.921875 C 2.011719 33.617188 2.34375 33.519531 2.6875 33.53125 C 3.757812 33.5625 4.5 33.03125 5.078125 32.199219 C 7.566406 28.597656 10.046875 24.996094 12.53125 21.394531 C 12.648438 21.21875 12.746094 21.023438 12.820312 20.824219 C 12.976562 20.382812 12.773438 20.085938 12.300781 20.054688 C 12.175781 20.046875 12.042969 20.0625 11.917969 20.039062 C 11.835938 20.027344 11.699219 19.972656 11.695312 19.921875 C 11.683594 19.828125 11.714844 19.671875 11.78125 19.636719 C 11.957031 19.539062 12.152344 19.457031 12.347656 19.4375 C 12.695312 19.398438 13.046875 19.398438 13.398438 19.398438 C 16.878906 19.394531 20.359375 19.386719 23.839844 19.390625 C 24.785156 19.394531 25.734375 19.433594 26.636719 19.777344 C 26.867188 19.863281 27.089844 19.976562 27.296875 20.105469 C 28.027344 20.558594 28.261719 21.445312 27.886719 22.230469 C 27.46875 23.097656 26.8125 23.738281 26.039062 24.277344 C 24.625 25.265625 23.046875 25.816406 21.332031 25.984375 C 21.109375 26.007812 20.886719 26.054688 20.664062 26.09375 C 20.664062 26.121094 20.664062 26.148438 20.660156 26.179688 C 20.949219 26.230469 21.234375 26.265625 21.515625 26.339844 C 22.011719 26.464844 22.519531 26.5625 22.984375 26.761719 C 23.792969 27.105469 24.054688 27.746094 23.78125 28.582031 C 23.457031 29.582031 22.816406 30.378906 22.085938 31.105469 C 20.65625 32.527344 18.90625 33.378906 17 33.9375 C 16.089844 34.207031 15.160156 34.292969 14.21875 34.292969 C 10.921875 34.289062 7.632812 34.292969 4.335938 34.292969 C 3.917969 34.296875 3.5 34.320312 3.082031 34.308594 C 2.652344 34.296875 2.21875 34.257812 1.789062 34.230469 C 1.789062 34.128906 1.789062 34.027344 1.789062 33.921875 "/>
<path style=" stroke:none;fill-rule:nonzero;fill:rgb(85.693359%,13.630676%,14.416504%);fill-opacity:1;" d="M 54.214844 35.410156 C 54.042969 35.425781 53.875 35.460938 53.707031 35.460938 C 50.371094 35.464844 47.039062 35.464844 43.703125 35.464844 C 43.601562 35.464844 43.503906 35.464844 43.402344 35.464844 C 43.378906 35.441406 43.355469 35.417969 43.335938 35.398438 C 44.300781 33.617188 45.265625 31.839844 46.265625 30 C 46.300781 30.117188 46.324219 30.160156 46.328125 30.207031 C 46.359375 31.601562 47.058594 32.609375 48.167969 33.390625 C 49.292969 34.183594 50.5625 34.613281 51.878906 34.925781 C 52.648438 35.105469 53.433594 35.214844 54.214844 35.355469 C 54.214844 35.375 54.214844 35.390625 54.214844 35.410156 "/>
<path style=" stroke:none;fill-rule:nonzero;fill:rgb(16.207886%,16.05835%,41.015625%);fill-opacity:1;" d="M 30.808594 26.363281 C 30.71875 26.382812 30.546875 26.402344 30.386719 26.449219 C 29.667969 26.648438 29.191406 27.15625 28.785156 27.738281 C 27.902344 29.003906 27.03125 30.273438 26.160156 31.546875 C 25.894531 31.941406 25.625 32.339844 25.394531 32.753906 C 25.179688 33.136719 25.304688 33.359375 25.730469 33.460938 C 26.148438 33.558594 26.503906 33.410156 26.84375 33.199219 C 27.355469 32.875 27.777344 32.453125 28.128906 31.96875 C 28.710938 31.167969 29.285156 30.363281 29.847656 29.550781 C 30.375 28.785156 30.898438 28.019531 31.390625 27.230469 C 31.691406 26.746094 31.453125 26.367188 30.808594 26.363281 Z M 25.390625 25.757812 C 25.5 25.714844 25.609375 25.644531 25.722656 25.628906 C 25.898438 25.605469 26.082031 25.609375 26.261719 25.609375 C 28.121094 25.601562 29.980469 25.585938 31.839844 25.589844 C 32.253906 25.59375 32.675781 25.632812 33.085938 25.699219 C 34.25 25.886719 34.953125 26.996094 34.648438 28.140625 C 34.429688 28.949219 33.957031 29.617188 33.445312 30.257812 C 32.566406 31.347656 31.585938 32.332031 30.394531 33.078125 C 29.101562 33.890625 27.664062 34.238281 26.160156 34.28125 C 24.269531 34.339844 22.375 34.328125 20.480469 34.34375 C 20.261719 34.34375 20.035156 34.363281 19.816406 34.339844 C 19.722656 34.328125 19.636719 34.222656 19.546875 34.160156 C 19.628906 34.117188 19.710938 34.042969 19.796875 34.035156 C 20.628906 33.96875 21.199219 33.550781 21.664062 32.859375 C 23.039062 30.824219 24.457031 28.816406 25.855469 26.800781 C 25.945312 26.671875 26.03125 26.546875 26.105469 26.410156 C 26.273438 26.097656 26.203125 25.980469 25.851562 25.953125 C 25.699219 25.941406 25.550781 25.910156 25.398438 25.890625 C 25.398438 25.847656 25.394531 25.800781 25.390625 25.757812 "/>
<path style=" stroke:none;fill-rule:nonzero;fill:rgb(16.207886%,16.05835%,41.015625%);fill-opacity:1;" d="M 38.167969 29.730469 C 38.542969 29.730469 38.855469 29.738281 39.167969 29.730469 C 39.679688 29.71875 40.085938 29.5 40.382812 29.082031 C 40.828125 28.464844 41.28125 27.855469 41.726562 27.242188 C 41.992188 26.875 41.945312 26.769531 41.484375 26.675781 C 41.46875 26.671875 41.453125 26.671875 41.433594 26.667969 C 40.585938 26.53125 39.945312 26.902344 39.472656 27.554688 C 39.042969 28.148438 38.679688 28.789062 38.292969 29.410156 C 38.246094 29.484375 38.226562 29.578125 38.167969 29.730469 Z M 42.980469 33.035156 C 42.855469 33.28125 42.714844 33.519531 42.605469 33.773438 C 42.421875 34.210938 42.132812 34.375 41.640625 34.363281 C 40.277344 34.335938 38.910156 34.363281 37.546875 34.359375 C 37.046875 34.359375 36.980469 34.261719 37.230469 33.832031 C 37.71875 32.988281 38.230469 32.164062 38.730469 31.328125 C 38.8125 31.195312 38.875 31.046875 38.96875 30.855469 C 38.4375 30.855469 37.964844 30.851562 37.492188 30.859375 C 37.445312 30.859375 37.378906 30.90625 37.351562 30.953125 C 36.785156 31.816406 36.214844 32.671875 35.660156 33.542969 C 35.46875 33.847656 35.53125 33.945312 35.90625 33.992188 C 35.988281 34.003906 36.070312 34.019531 36.191406 34.097656 C 36.101562 34.171875 36.027344 34.277344 35.925781 34.304688 C 35.777344 34.351562 35.609375 34.363281 35.449219 34.359375 C 33.886719 34.355469 32.324219 34.34375 30.765625 34.332031 C 30.601562 34.328125 30.441406 34.304688 30.277344 34.289062 C 30.273438 34.269531 30.269531 34.246094 30.265625 34.222656 C 30.308594 34.179688 30.347656 34.125 30.402344 34.097656 C 30.46875 34.058594 30.546875 34.03125 30.621094 34.023438 C 31.347656 33.96875 31.785156 33.527344 32.171875 32.957031 C 33.601562 30.875 35.054688 28.808594 36.492188 26.734375 C 36.566406 26.625 36.621094 26.492188 36.648438 26.363281 C 36.683594 26.160156 36.609375 26.019531 36.375 25.984375 C 36.285156 25.96875 36.207031 25.878906 36.121094 25.824219 C 36.203125 25.761719 36.28125 25.664062 36.371094 25.640625 C 36.542969 25.597656 36.726562 25.589844 36.90625 25.589844 C 39.089844 25.585938 41.273438 25.574219 43.457031 25.59375 C 43.964844 25.597656 44.488281 25.640625 44.972656 25.773438 C 45.695312 25.96875 45.890625 26.484375 45.5625 27.164062 C 45.21875 27.882812 44.644531 28.390625 43.960938 28.769531 C 43.140625 29.222656 42.292969 29.625 41.46875 30.078125 C 41.054688 30.304688 40.65625 30.574219 40.277344 30.863281 C 39.917969 31.140625 39.730469 31.53125 39.851562 31.992188 C 39.96875 32.429688 40.308594 32.683594 40.734375 32.753906 C 41.339844 32.851562 41.957031 32.890625 42.566406 32.953125 C 42.683594 32.964844 42.800781 32.953125 42.917969 32.953125 C 42.941406 32.980469 42.960938 33.007812 42.980469 33.035156 "/>
<path style=" stroke:none;fill-rule:nonzero;fill:rgb(27.34375%,56.674194%,83.31604%);fill-opacity:1;" d="M 35.253906 27.71875 C 35.214844 27.515625 35.171875 27.308594 35.128906 27.105469 C 35.007812 26.550781 34.734375 26.085938 34.257812 25.765625 C 34.011719 25.601562 33.945312 25.367188 33.890625 25.097656 C 33.441406 22.984375 32.480469 21.121094 31.109375 19.460938 C 29.433594 17.433594 27.332031 16.007812 24.832031 15.230469 C 22.140625 14.398438 19.425781 14.40625 16.722656 15.277344 C 14.121094 16.113281 11.992188 17.632812 10.320312 19.757812 C 8.613281 21.921875 7.636719 24.394531 7.460938 27.164062 C 7.449219 27.394531 7.441406 27.625 7.421875 27.855469 C 7.414062 27.957031 7.414062 28.074219 7.359375 28.152344 C 7.0625 28.597656 6.75 29.03125 6.441406 29.46875 C 6.429688 29.488281 6.398438 29.488281 6.320312 29.519531 C 6.144531 28.128906 6.21875 26.773438 6.464844 25.421875 C 7.136719 21.753906 8.988281 18.78125 11.902344 16.488281 C 17.535156 12.054688 25.792969 12.386719 31.070312 17.625 C 33.496094 20.039062 34.957031 22.953125 35.320312 26.382812 C 35.363281 26.824219 35.507812 27.273438 35.359375 27.71875 C 35.324219 27.71875 35.289062 27.71875 35.253906 27.71875 "/>
<path style=" stroke:none;fill-rule:nonzero;fill:rgb(27.34375%,56.674194%,83.31604%);fill-opacity:1;" d="M 33.28125 35.46875 C 32.570312 36.570312 31.746094 37.574219 30.796875 38.476562 C 28.535156 40.621094 25.898438 42.019531 22.796875 42.449219 C 21.050781 42.691406 19.3125 42.636719 17.589844 42.21875 C 14.257812 41.421875 11.527344 39.683594 9.390625 37.015625 C 8.972656 36.492188 8.617188 35.914062 8.234375 35.363281 C 8.746094 35.363281 9.261719 35.359375 9.777344 35.359375 C 9.847656 35.53125 9.890625 35.722656 10 35.863281 C 11.074219 37.300781 12.363281 38.511719 13.898438 39.4375 C 15.785156 40.574219 17.828125 41.238281 20.039062 41.359375 C 22.351562 41.484375 24.558594 41.054688 26.644531 40.0625 C 28.585938 39.140625 30.210938 37.800781 31.515625 36.085938 C 31.65625 35.902344 31.765625 35.695312 31.921875 35.441406 "/>
<path style=" stroke:none;fill-rule:nonzero;fill:rgb(16.207886%,16.05835%,41.015625%);fill-opacity:1;" d="M 36.691406 33.96875 C 36.503906 33.808594 36.351562 33.714844 36.261719 33.578125 C 36.21875 33.507812 36.257812 33.339844 36.316406 33.25 C 36.628906 32.765625 36.960938 32.292969 37.285156 31.8125 C 37.335938 31.734375 37.386719 31.65625 37.4375 31.578125 C 37.640625 31.273438 37.734375 31.242188 38.1875 31.363281 C 37.6875 32.234375 37.199219 33.085938 36.691406 33.96875 "/>
<path style=" stroke:none;fill-rule:nonzero;fill:rgb(16.207886%,16.05835%,41.015625%);fill-opacity:1;" d="M 12.378906 20.578125 C 12.386719 21.023438 12.214844 21.203125 11.894531 21.105469 C 11.714844 21.050781 11.683594 20.945312 11.800781 20.804688 C 11.945312 20.632812 12.136719 20.554688 12.378906 20.578125 "/>
<path style=" stroke:none;fill-rule:nonzero;fill:rgb(16.207886%,16.05835%,41.015625%);fill-opacity:1;" d="M 11.691406 32.722656 C 11.738281 32.574219 11.761719 32.410156 11.839844 32.28125 C 12.082031 31.882812 12.328125 31.484375 12.601562 31.101562 C 13.355469 30.050781 14.132812 29.015625 14.886719 27.960938 C 15.042969 27.742188 15.214844 27.640625 15.480469 27.667969 C 15.910156 27.714844 16.34375 27.730469 16.773438 27.792969 C 16.875 27.804688 17.046875 27.960938 17.035156 28.011719 C 16.992188 28.1875 16.902344 28.371094 16.664062 28.367188 C 16.28125 28.351562 15.898438 28.355469 15.515625 28.320312 C 15.128906 28.28125 14.878906 28.414062 14.652344 28.746094 C 13.765625 30.035156 12.84375 31.304688 11.933594 32.582031 C 11.890625 32.648438 11.835938 32.707031 11.785156 32.769531 C 11.753906 32.753906 11.722656 32.738281 11.691406 32.722656 "/>
<path style=" stroke:none;fill-rule:nonzero;fill:rgb(16.207886%,16.05835%,41.015625%);fill-opacity:1;" d="M 16.566406 25.441406 C 16.863281 25 17.144531 24.574219 17.433594 24.15625 C 18 23.332031 18.582031 22.523438 19.136719 21.695312 C 19.78125 20.738281 20.71875 20.558594 21.769531 20.640625 C 21.925781 20.652344 21.949219 20.730469 21.898438 20.867188 C 21.777344 21.179688 21.632812 21.292969 21.304688 21.28125 C 20.324219 21.25 19.550781 21.609375 18.984375 22.425781 C 18.3125 23.390625 17.625 24.34375 16.945312 25.304688 C 16.863281 25.421875 16.792969 25.542969 16.566406 25.441406 "/>
<path style=" stroke:none;fill-rule:nonzero;fill:rgb(16.207886%,16.05835%,41.015625%);fill-opacity:1;" d="M 25.816406 32.949219 C 25.988281 32.683594 26.152344 32.417969 26.332031 32.160156 C 27.335938 30.679688 28.34375 29.203125 29.355469 27.726562 C 29.621094 27.347656 29.917969 26.996094 30.398438 26.867188 C 30.441406 26.855469 30.480469 26.835938 30.523438 26.839844 C 30.675781 26.851562 30.878906 26.722656 30.96875 26.941406 C 31.03125 27.097656 30.804688 27.453125 30.621094 27.472656 C 29.898438 27.5625 29.453125 28.023438 29.070312 28.578125 C 28.152344 29.914062 27.238281 31.25 26.324219 32.582031 C 26.25 32.6875 26.183594 32.800781 26.097656 32.894531 C 26.042969 32.957031 25.953125 32.988281 25.878906 33.035156 C 25.859375 33.007812 25.839844 32.976562 25.816406 32.949219 "/>
<path style=" stroke:none;fill-rule:nonzero;fill:rgb(16.207886%,16.05835%,41.015625%);fill-opacity:1;" d="M 41.296875 27.148438 C 41.054688 27.402344 40.890625 27.6875 40.648438 27.808594 C 40.136719 28.058594 39.769531 28.4375 39.429688 28.867188 C 39.304688 29.027344 39.15625 29.167969 38.996094 29.292969 C 39.242188 28.386719 40.265625 26.957031 41.296875 27.148438 "/>
</g>
</svg>
