<?xml version="1.0" encoding="UTF-8"?>
<svg xmlns="http://www.w3.org/2000/svg" xmlns:xlink="http://www.w3.org/1999/xlink" width="56pt" height="56pt" viewBox="0 0 56 56" version="1.1">
<g id="surface1">
<rect x="0" y="0" width="56" height="56" style="fill:rgb(11.076355%,16.796875%,31.561279%);fill-opacity:1;stroke:none;"/>
<path style=" stroke:none;fill-rule:nonzero;fill:rgb(100%,100%,100%);fill-opacity:1;" d="M 25.734375 22.285156 C 25.734375 22.054688 25.75 21.859375 25.730469 21.667969 C 25.691406 21.289062 25.484375 21.054688 25.109375 20.992188 C 24.546875 20.890625 23.988281 20.9375 23.480469 21.199219 C 23.253906 21.320312 23.035156 21.527344 22.90625 21.746094 C 22.644531 22.199219 22.785156 22.617188 23.265625 22.828125 C 23.605469 22.980469 23.976562 23.066406 24.335938 23.175781 C 24.679688 23.28125 25.039062 23.359375 25.371094 23.496094 C 26.21875 23.84375 26.492188 24.5 26.183594 25.367188 C 25.984375 25.929688 25.617188 26.386719 25.113281 26.671875 C 24.160156 27.214844 23.132812 27.378906 22.066406 27.050781 C 21.816406 26.976562 21.570312 26.824219 21.367188 26.652344 C 21.03125 26.371094 20.886719 25.984375 21.039062 25.554688 C 21.203125 25.113281 21.585938 24.957031 22.058594 24.898438 C 22.058594 25.15625 22.042969 25.378906 22.0625 25.601562 C 22.097656 26.035156 22.285156 26.257812 22.714844 26.351562 C 23.367188 26.492188 24.007812 26.421875 24.597656 26.105469 C 24.765625 26.015625 24.929688 25.878906 25.035156 25.722656 C 25.355469 25.234375 25.453125 24.613281 24.644531 24.300781 C 24.296875 24.164062 23.921875 24.09375 23.566406 23.96875 C 23.171875 23.832031 22.761719 23.710938 22.394531 23.507812 C 21.859375 23.210938 21.6875 22.726562 21.824219 22.121094 C 21.960938 21.503906 22.289062 21.011719 22.839844 20.6875 C 23.765625 20.136719 24.761719 20.03125 25.800781 20.28125 C 25.902344 20.308594 26.003906 20.351562 26.097656 20.394531 C 26.5625 20.617188 26.835938 21.105469 26.753906 21.570312 C 26.675781 21.992188 26.382812 22.210938 25.734375 22.285156 "/>
<path style=" stroke:none;fill-rule:nonzero;fill:rgb(100%,100%,100%);fill-opacity:1;" d="M 28.84375 23.5 C 28.5625 24.738281 28.304688 25.875 28.039062 27.035156 C 27.753906 27.035156 27.492188 27.035156 27.199219 27.035156 C 27.65625 24.78125 28.101562 22.554688 28.554688 20.3125 C 28.863281 20.3125 29.140625 20.3125 29.46875 20.3125 C 29.285156 21.246094 29.105469 22.136719 28.929688 23.03125 C 28.953125 23.042969 28.980469 23.054688 29.007812 23.070312 C 29.210938 22.902344 29.417969 22.734375 29.621094 22.5625 C 30.351562 21.953125 31.078125 21.34375 31.804688 20.730469 C 32.394531 20.230469 32.53125 20.195312 33.429688 20.359375 C 32.269531 21.351562 31.140625 22.3125 30.003906 23.28125 C 30.8125 24.535156 31.605469 25.757812 32.425781 27.03125 C 31.972656 27.03125 31.578125 27.03125 31.128906 27.03125 C 30.398438 25.902344 29.652344 24.746094 28.84375 23.5 "/>
<path style=" stroke:none;fill-rule:nonzero;fill:rgb(100%,100%,100%);fill-opacity:1;" d="M 18.609375 23.980469 C 18.421875 23.085938 18.242188 22.230469 18.066406 21.382812 C 18.03125 21.382812 18 21.382812 17.964844 21.382812 C 17.480469 22.234375 16.992188 23.089844 16.484375 23.980469 C 17.21875 23.980469 17.886719 23.980469 18.609375 23.980469 Z M 18.84375 20.304688 C 19.28125 22.542969 19.71875 24.769531 20.164062 27.03125 C 19.824219 27.03125 19.519531 27.03125 19.160156 27.03125 C 18.984375 26.0625 18.804688 25.082031 18.613281 24.042969 C 18.527344 24.109375 18.46875 24.132812 18.445312 24.175781 C 18.144531 24.648438 17.714844 24.789062 17.175781 24.742188 C 16.816406 24.714844 16.453125 24.757812 16.09375 24.769531 C 16.0625 24.773438 16.035156 24.785156 15.957031 24.804688 C 15.453125 25.523438 14.925781 26.273438 14.394531 27.035156 C 14.152344 27.035156 13.914062 27.035156 13.589844 27.035156 C 15.0625 24.757812 16.511719 22.523438 17.949219 20.304688 C 18.257812 20.304688 18.527344 20.304688 18.84375 20.304688 "/>
<path style=" stroke:none;fill-rule:nonzero;fill:rgb(100%,100%,100%);fill-opacity:1;" d="M 5.714844 20.390625 C 5.992188 20.390625 6.25 20.390625 6.566406 20.390625 C 7.007812 22.621094 7.449219 24.84375 7.894531 27.117188 C 7.558594 27.117188 7.253906 27.117188 6.902344 27.117188 C 6.542969 25.25 6.179688 23.359375 5.820312 21.472656 C 5.785156 21.464844 5.75 21.457031 5.714844 21.445312 C 5.21875 22.308594 4.726562 23.171875 4.199219 24.089844 C 4.917969 24.089844 5.554688 24.089844 6.257812 24.089844 C 5.96875 24.527344 5.734375 24.890625 5.152344 24.832031 C 4.691406 24.78125 4.222656 24.820312 3.738281 24.820312 C 3.1875 25.605469 2.652344 26.367188 2.117188 27.128906 C 1.871094 27.128906 1.644531 27.128906 1.421875 27.128906 C 1.488281 26.808594 5.027344 21.257812 5.714844 20.390625 "/>
<path style=" stroke:none;fill-rule:nonzero;fill:rgb(100%,100%,100%);fill-opacity:1;" d="M 36.011719 24.03125 C 36.742188 24.03125 37.367188 24.03125 38.058594 24.03125 C 37.789062 24.433594 37.589844 24.792969 37.046875 24.75 C 36.554688 24.707031 36.054688 24.742188 35.5625 24.742188 C 35.007812 25.53125 34.480469 26.28125 33.949219 27.039062 C 33.703125 27.039062 33.46875 27.039062 33.144531 27.039062 C 34.613281 24.769531 36.058594 22.542969 37.503906 20.308594 C 37.789062 20.308594 38.054688 20.308594 38.394531 20.308594 C 38.832031 22.546875 39.273438 24.78125 39.71875 27.046875 C 39.355469 27.046875 39.046875 27.046875 38.707031 27.046875 C 38.371094 25.140625 38.039062 23.253906 37.523438 21.382812 C 37.035156 22.238281 36.546875 23.09375 36.011719 24.03125 "/>
<path style=" stroke:none;fill-rule:nonzero;fill:rgb(100%,100%,100%);fill-opacity:1;" d="M 54.578125 30.253906 C 54.199219 30.765625 54.078125 30.839844 53.515625 30.890625 C 53.515625 30.730469 53.519531 30.574219 53.511719 30.414062 C 53.488281 29.925781 53.265625 29.667969 52.777344 29.59375 C 52.226562 29.515625 51.683594 29.574219 51.199219 29.839844 C 50.976562 29.964844 50.773438 30.1875 50.65625 30.414062 C 50.429688 30.871094 50.578125 31.25 51.050781 31.445312 C 51.464844 31.617188 51.90625 31.722656 52.339844 31.859375 C 52.609375 31.945312 52.890625 32.015625 53.152344 32.125 C 53.980469 32.476562 54.261719 33.109375 53.964844 33.960938 C 53.742188 34.601562 53.328125 35.09375 52.722656 35.398438 C 51.894531 35.816406 51.007812 35.949219 50.089844 35.761719 C 49.640625 35.671875 49.21875 35.5 48.964844 35.078125 C 48.769531 34.757812 48.664062 34.410156 48.871094 34.054688 C 49.078125 33.703125 49.410156 33.5625 49.839844 33.539062 C 49.839844 33.773438 49.828125 33.980469 49.84375 34.191406 C 49.871094 34.644531 50.070312 34.882812 50.515625 34.972656 C 51.1875 35.113281 51.839844 35.035156 52.429688 34.675781 C 52.628906 34.558594 52.804688 34.363281 52.910156 34.160156 C 53.207031 33.59375 53.042969 33.164062 52.449219 32.921875 C 52.101562 32.78125 51.726562 32.707031 51.371094 32.59375 C 51.011719 32.476562 50.644531 32.382812 50.308594 32.21875 C 49.613281 31.882812 49.375 31.25 49.636719 30.515625 C 49.867188 29.871094 50.324219 29.421875 50.925781 29.125 C 51.683594 28.757812 52.484375 28.667969 53.304688 28.828125 C 53.882812 28.9375 54.328125 29.246094 54.578125 29.800781 C 54.578125 29.953125 54.578125 30.101562 54.578125 30.253906 "/>
<path style=" stroke:none;fill-rule:nonzero;fill:rgb(100%,100%,100%);fill-opacity:1;" d="M 36.523438 35.636719 C 36.992188 33.402344 37.460938 31.167969 37.929688 28.925781 C 38.394531 28.925781 38.8125 28.925781 39.257812 28.925781 C 39.929688 30.734375 40.601562 32.535156 41.277344 34.335938 C 41.304688 34.335938 41.335938 34.339844 41.363281 34.339844 C 41.421875 34.117188 41.492188 33.898438 41.539062 33.671875 C 41.785156 32.535156 42.015625 31.402344 42.265625 30.269531 C 42.320312 30.023438 42.398438 29.773438 42.507812 29.542969 C 42.667969 29.226562 42.917969 29.003906 43.359375 28.949219 C 42.882812 31.210938 42.410156 33.425781 41.9375 35.660156 C 41.535156 35.660156 41.164062 35.660156 40.742188 35.660156 C 40.042969 33.808594 39.34375 31.941406 38.636719 30.074219 C 38.613281 30.074219 38.589844 30.070312 38.566406 30.070312 C 38.480469 30.425781 38.390625 30.78125 38.3125 31.136719 C 38.023438 32.445312 37.738281 33.757812 37.453125 35.066406 C 37.308594 35.722656 37.253906 35.757812 36.523438 35.636719 "/>
<path style=" stroke:none;fill-rule:nonzero;fill:rgb(100%,100%,100%);fill-opacity:1;" d="M 2.507812 33.515625 C 2.507812 33.761719 2.496094 33.96875 2.511719 34.175781 C 2.539062 34.636719 2.730469 34.882812 3.167969 34.972656 C 3.839844 35.109375 4.496094 35.039062 5.089844 34.679688 C 5.273438 34.570312 5.449219 34.394531 5.554688 34.207031 C 5.882812 33.640625 5.726562 33.175781 5.121094 32.925781 C 4.761719 32.78125 4.371094 32.707031 4 32.582031 C 3.628906 32.460938 3.246094 32.351562 2.902344 32.175781 C 2.328125 31.878906 2.105469 31.363281 2.25 30.734375 C 2.449219 29.859375 3.050781 29.335938 3.84375 29.015625 C 4.5 28.753906 5.191406 28.660156 5.886719 28.820312 C 6.210938 28.894531 6.539062 29.050781 6.820312 29.238281 C 7.136719 29.453125 7.296875 29.789062 7.207031 30.1875 C 7.125 30.566406 6.84375 30.761719 6.492188 30.867188 C 6.40625 30.894531 6.316406 30.90625 6.175781 30.933594 C 6.175781 30.714844 6.191406 30.527344 6.171875 30.339844 C 6.128906 29.910156 5.925781 29.679688 5.5 29.605469 C 4.921875 29.511719 4.347656 29.558594 3.835938 29.859375 C 3.621094 29.992188 3.417969 30.214844 3.308594 30.445312 C 3.105469 30.867188 3.246094 31.214844 3.667969 31.421875 C 3.921875 31.550781 4.203125 31.628906 4.472656 31.714844 C 4.90625 31.847656 5.351562 31.941406 5.773438 32.101562 C 6.578125 32.410156 6.96875 32.972656 6.601562 34.039062 C 6.382812 34.671875 5.933594 35.152344 5.316406 35.433594 C 4.503906 35.8125 3.644531 35.960938 2.761719 35.753906 C 2.4375 35.679688 2.101562 35.523438 1.839844 35.316406 C 1.492188 35.039062 1.324219 34.628906 1.480469 34.179688 C 1.636719 33.726562 2.035156 33.585938 2.507812 33.515625 "/>
<path style=" stroke:none;fill-rule:nonzero;fill:rgb(100%,100%,100%);fill-opacity:1;" d="M 47.324219 35.667969 C 45.941406 35.667969 44.574219 35.667969 43.164062 35.667969 C 43.628906 33.425781 44.082031 31.21875 44.546875 28.964844 C 45.945312 28.964844 47.324219 28.964844 48.761719 28.964844 C 48.746094 29.167969 48.726562 29.394531 48.707031 29.667969 C 47.574219 29.667969 46.476562 29.667969 45.335938 29.667969 C 45.179688 30.382812 45.03125 31.066406 44.867188 31.828125 C 45.917969 31.828125 46.914062 31.828125 47.976562 31.828125 C 47.9375 32.144531 47.910156 32.386719 47.875 32.660156 C 46.792969 32.660156 45.742188 32.660156 44.660156 32.660156 C 44.511719 33.40625 44.367188 34.117188 44.214844 34.890625 C 44.460938 34.890625 44.636719 34.882812 44.8125 34.890625 C 45.367188 34.917969 45.925781 34.933594 46.480469 34.988281 C 46.683594 35.007812 46.890625 35.09375 47.074219 35.1875 C 47.234375 35.269531 47.371094 35.402344 47.324219 35.667969 "/>
<path style=" stroke:none;fill-rule:nonzero;fill:rgb(100%,100%,100%);fill-opacity:1;" d="M 7.152344 35.667969 C 7.617188 33.417969 8.070312 31.222656 8.53125 28.96875 C 9.925781 28.96875 11.316406 28.96875 12.753906 28.96875 C 12.738281 29.175781 12.722656 29.394531 12.699219 29.664062 C 11.5625 29.664062 10.453125 29.664062 9.316406 29.664062 C 9.164062 30.402344 9.019531 31.085938 8.859375 31.832031 C 9.90625 31.832031 10.894531 31.832031 11.953125 31.832031 C 11.921875 32.136719 11.898438 32.378906 11.871094 32.652344 C 10.789062 32.652344 9.742188 32.652344 8.652344 32.652344 C 8.503906 33.394531 8.355469 34.109375 8.199219 34.894531 C 8.417969 34.894531 8.578125 34.886719 8.738281 34.894531 C 9.234375 34.910156 9.730469 34.914062 10.226562 34.957031 C 10.476562 34.976562 10.730469 35.050781 10.96875 35.140625 C 11.183594 35.21875 11.359375 35.363281 11.316406 35.667969 C 9.9375 35.667969 8.570312 35.667969 7.152344 35.667969 "/>
<path style=" stroke:none;fill-rule:nonzero;fill:rgb(100%,100%,100%);fill-opacity:1;" d="M 16.71875 30.023438 C 16.6875 30.011719 16.65625 30.003906 16.625 29.992188 C 16.132812 30.851562 15.644531 31.710938 15.128906 32.609375 C 15.871094 32.609375 16.546875 32.609375 17.257812 32.609375 C 17.070312 31.710938 16.894531 30.867188 16.71875 30.023438 Z M 18.816406 35.671875 C 18.464844 35.671875 18.167969 35.671875 17.808594 35.671875 C 17.632812 34.695312 17.453125 33.710938 17.253906 32.640625 C 17.0625 32.84375 16.914062 32.984375 16.785156 33.144531 C 16.660156 33.296875 16.515625 33.359375 16.316406 33.359375 C 15.761719 33.351562 15.207031 33.355469 14.660156 33.355469 C 14.101562 34.15625 13.574219 34.90625 13.042969 35.664062 C 12.796875 35.664062 12.558594 35.664062 12.238281 35.664062 C 13.710938 33.394531 15.152344 31.164062 16.597656 28.933594 C 16.886719 28.933594 17.15625 28.933594 17.488281 28.933594 C 17.925781 31.164062 18.367188 33.390625 18.816406 35.671875 "/>
<path style=" stroke:none;fill-rule:nonzero;fill:rgb(100%,100%,100%);fill-opacity:1;" d="M 33.710938 30.023438 C 33.679688 30.015625 33.648438 30.007812 33.613281 30.003906 C 33.121094 30.863281 32.632812 31.722656 32.121094 32.613281 C 32.863281 32.613281 33.53125 32.613281 34.242188 32.613281 C 34.058594 31.714844 33.886719 30.867188 33.710938 30.023438 Z M 35.808594 35.671875 C 35.433594 35.671875 35.136719 35.671875 34.796875 35.671875 C 34.621094 34.6875 34.445312 33.714844 34.25 32.644531 C 34.089844 32.808594 33.957031 32.917969 33.859375 33.054688 C 33.683594 33.304688 33.453125 33.378906 33.15625 33.371094 C 32.660156 33.355469 32.164062 33.367188 31.648438 33.367188 C 31.097656 34.148438 30.5625 34.910156 30.03125 35.667969 C 29.773438 35.667969 29.535156 35.667969 29.226562 35.667969 C 30.703125 33.390625 32.152344 31.15625 33.59375 28.933594 C 33.894531 28.933594 34.160156 28.933594 34.480469 28.933594 C 34.921875 31.171875 35.359375 33.402344 35.808594 35.671875 "/>
<path style=" stroke:none;fill-rule:nonzero;fill:rgb(100%,100%,100%);fill-opacity:1;" d="M 21.003906 31.875 C 21.703125 31.902344 22.347656 31.925781 22.980469 31.769531 C 23.292969 31.691406 23.5625 31.535156 23.761719 31.269531 C 24.234375 30.648438 24.011719 29.96875 23.257812 29.769531 C 22.699219 29.625 22.132812 29.710938 21.5625 29.714844 C 21.375 30.445312 21.199219 31.125 21.003906 31.875 Z M 20.117188 35.671875 C 19.835938 35.671875 19.582031 35.671875 19.261719 35.671875 C 19.734375 33.40625 20.199219 31.175781 20.675781 28.90625 C 21.710938 28.917969 22.71875 28.769531 23.71875 28.96875 C 24.71875 29.171875 25.085938 29.738281 24.902344 30.734375 C 24.722656 31.703125 24.164062 32.320312 23.199219 32.496094 C 22.59375 32.609375 21.972656 32.632812 21.355469 32.683594 C 21.179688 32.703125 21 32.6875 20.789062 32.6875 C 20.5625 33.703125 20.339844 34.679688 20.117188 35.671875 "/>
<path style=" stroke:none;fill-rule:nonzero;fill:rgb(100%,100%,100%);fill-opacity:1;" d="M 26.007812 28.929688 C 26.328125 28.929688 26.59375 28.929688 26.910156 28.929688 C 26.496094 30.917969 26.089844 32.871094 25.675781 34.871094 C 26.074219 34.871094 26.417969 34.863281 26.757812 34.875 C 27.132812 34.890625 27.511719 34.898438 27.878906 34.957031 C 28.253906 35.019531 28.476562 35.273438 28.585938 35.664062 C 27.253906 35.664062 25.949219 35.664062 24.601562 35.664062 C 25.074219 33.40625 25.535156 31.183594 26.007812 28.929688 "/>
<path style=" stroke:none;fill-rule:nonzero;fill:rgb(100%,100%,100%);fill-opacity:1;" d="M 12.773438 27.042969 C 11.433594 27.042969 10.140625 27.042969 8.789062 27.042969 C 9.257812 24.792969 9.722656 22.574219 10.191406 20.320312 C 10.480469 20.320312 10.757812 20.320312 11.097656 20.320312 C 10.6875 22.292969 10.28125 24.246094 9.863281 26.265625 C 10.089844 26.265625 10.265625 26.261719 10.441406 26.269531 C 10.9375 26.289062 11.4375 26.300781 11.929688 26.347656 C 12.332031 26.382812 12.644531 26.566406 12.773438 27.042969 "/>
</g>
</svg>
