<?xml version="1.0" encoding="UTF-8"?>
<svg xmlns="http://www.w3.org/2000/svg" xmlns:xlink="http://www.w3.org/1999/xlink" width="56pt" height="56pt" viewBox="0 0 56 56" version="1.1">
<g id="surface1">
<rect x="0" y="0" width="56" height="56" style="fill:rgb(95.666504%,95.776367%,96.775818%);fill-opacity:1;stroke:none;"/>
<path style=" stroke:none;fill-rule:nonzero;fill:rgb(16.63208%,34.762573%,68.048096%);fill-opacity:1;" d="M 39.167969 39.105469 C 39.164062 40.511719 39.167969 41.855469 39.167969 42.875 C 39.167969 48.917969 31.722656 50.582031 28.128906 47.511719 C 23.957031 50.8125 17.074219 48.953125 17.074219 43.105469 C 17.074219 43.105469 17.085938 41.519531 17.074219 39.023438 C 14.578125 39.023438 12.890625 39.050781 12.890625 39.050781 C 7.046875 39.050781 5.183594 32.214844 8.488281 28.042969 C 5.417969 24.449219 7.082031 17.035156 13.121094 17.035156 C 14.21875 17.035156 15.589844 17.003906 17.105469 17.003906 C 17.105469 14.574219 17.121094 12.976562 17.121094 12.976562 C 17.121094 8.09375 23.359375 5.046875 27.945312 8.789062 C 30.214844 6.777344 34.257812 6.554688 36.726562 8.324219 C 37.371094 8.777344 38.210938 9.78125 38.09375 9.699219 C 38.746094 10.628906 39.183594 11.796875 39.183594 13.210938 C 39.183594 14.253906 39.171875 15.574219 39.183594 17.011719 C 40.523438 17.019531 41.796875 17.011719 42.789062 17.011719 C 44.199219 17.011719 45.371094 17.425781 46.296875 18.078125 C 46.21875 17.960938 47.21875 18.800781 47.671875 19.445312 C 49.445312 21.914062 49.21875 25.957031 47.210938 28.226562 C 50.953125 32.8125 47.90625 39.105469 43.019531 39.105469 C 43.019531 39.105469 41.484375 39.097656 39.167969 39.105469 Z M 34.957031 40.066406 C 33.625 40.070312 32.117188 40.066406 30.679688 40.066406 C 30.667969 42.097656 30.679688 43.566406 30.679688 43.566406 C 30.679688 46.175781 34.957031 46.175781 34.957031 43.488281 C 34.957031 43.167969 34.964844 41.777344 34.957031 40.066406 Z M 25.59375 39.957031 C 24.175781 39.957031 22.644531 39.957031 21.328125 39.957031 C 21.320312 42.066406 21.328125 43.566406 21.328125 43.566406 C 21.328125 46.175781 25.59375 46.175781 25.59375 43.488281 C 25.59375 43.152344 25.601562 41.785156 25.59375 39.957031 Z M 16.3125 21.238281 L 12.621094 21.238281 C 9.933594 21.238281 9.933594 25.613281 12.546875 25.613281 C 12.546875 25.613281 14.136719 25.613281 16.296875 25.613281 C 16.296875 24.132812 16.3125 22.617188 16.3125 21.238281 Z M 16.273438 34.988281 C 16.269531 33.65625 16.261719 32.152344 16.261719 30.710938 C 14.414062 30.710938 12.960938 30.710938 12.621094 30.710938 C 9.933594 30.710938 9.933594 34.988281 12.546875 34.988281 C 12.546875 34.988281 14.113281 34.984375 16.273438 34.988281 Z M 19.503906 34.960938 C 19.503906 32.371094 19.503906 29.714844 19.503906 28.039062 C 19.503906 26.363281 19.503906 23.792969 19.503906 21.207031 L 18.113281 21.207031 C 18.109375 24.828125 18.113281 28.804688 18.113281 31.480469 C 18.113281 32.65625 18.113281 33.863281 18.113281 34.988281 C 18.5625 34.988281 19.039062 34.960938 19.503906 34.960938 Z M 38.246094 34.949219 C 38.246094 33.804688 38.246094 32.613281 38.246094 31.480469 C 38.246094 29.265625 38.234375 25.167969 38.246094 21.316406 C 37.796875 21.3125 37.277344 21.332031 36.8125 21.328125 C 36.820312 24.03125 36.8125 26.679688 36.8125 28.039062 C 36.8125 29.429688 36.835938 32.179688 36.835938 34.949219 C 37.28125 34.953125 37.816406 34.949219 38.246094 34.949219 Z M 38.238281 40.074219 C 37.816406 40.074219 37.28125 40.070312 36.828125 40.074219 C 36.828125 41.648438 36.828125 42.972656 36.828125 43.550781 C 36.828125 48.4375 28.90625 48.4375 28.90625 43.691406 C 28.90625 43.691406 28.90625 35.832031 28.90625 30.640625 C 28.515625 30.640625 28.257812 30.640625 28.074219 30.640625 C 27.9375 30.640625 27.695312 30.636719 27.441406 30.640625 C 27.441406 34.972656 27.441406 41.910156 27.441406 43.550781 C 27.441406 48.4375 19.460938 48.4375 19.460938 43.691406 C 19.460938 43.691406 19.460938 42.136719 19.460938 39.941406 C 19.066406 39.941406 18.519531 39.941406 18.144531 39.941406 C 18.144531 42.234375 18.144531 43.675781 18.144531 43.675781 C 18.171875 49.535156 25.804688 51.792969 28.179688 47.289062 C 30.429688 51.855469 38.238281 49.523438 38.238281 43.488281 C 38.238281 42.566406 38.238281 41.371094 38.238281 40.074219 Z M 30.277344 9.601562 C 32.535156 7.992188 36.769531 8.949219 36.769531 12.527344 C 36.769531 13.125 36.78125 14.503906 36.789062 16.148438 C 37.296875 16.152344 37.808594 16.148438 38.300781 16.148438 C 38.300781 14.546875 38.300781 13.230469 38.300781 12.527344 C 38.269531 5.835938 29.652344 5.621094 28.085938 9.5625 L 27.902344 9.292969 C 25.773438 4.851562 18.085938 6.679688 18.085938 12.339844 C 18.085938 12.339844 18.089844 13.886719 18.085938 16.144531 C 18.535156 16.144531 19.023438 16.140625 19.488281 16.144531 C 19.488281 13.996094 19.488281 12.390625 19.488281 12.390625 C 19.488281 7.640625 27.386719 7.640625 27.386719 12.527344 C 27.386719 14.167969 27.40625 21.277344 27.417969 25.613281 C 27.683594 25.609375 27.902344 25.613281 28.074219 25.613281 C 28.289062 25.613281 28.554688 25.613281 28.917969 25.613281 C 28.917969 20.417969 28.886719 12.390625 28.886719 12.390625 C 28.886719 11.117188 29.449219 10.191406 30.277344 9.601562 M 25.554688 35.039062 C 25.554688 33.460938 25.601562 31.980469 25.601562 30.71875 C 24.386719 30.726562 22.878906 30.71875 21.34375 30.71875 C 21.34375 31.960938 21.347656 33.511719 21.34375 35.039062 C 22.820312 35.039062 24.371094 35.035156 25.554688 35.039062 Z M 25.554688 25.6875 C 25.539062 24.453125 25.570312 22.84375 25.5625 21.238281 C 24.324219 21.238281 22.820312 21.234375 21.230469 21.238281 C 21.234375 22.90625 21.214844 24.414062 21.226562 25.6875 C 22.773438 25.6875 24.324219 25.703125 25.554688 25.6875 Z M 25.59375 38.222656 C 25.589844 37.6875 25.59375 37.316406 25.59375 36.753906 C 20.398438 36.753906 12.421875 36.753906 12.421875 36.753906 C 7.675781 36.753906 7.675781 28.871094 12.558594 28.871094 C 13.175781 28.871094 14.582031 28.832031 16.285156 28.832031 C 16.285156 28.601562 16.285156 27.992188 16.285156 27.761719 C 16.285156 27.542969 16.285156 27.980469 16.285156 27.761719 C 14.105469 27.761719 12.421875 27.761719 12.421875 27.761719 C 7.675781 27.761719 7.675781 19.488281 12.558594 19.488281 C 14.195312 19.488281 21.21875 19.449219 25.558594 19.449219 C 25.558594 18.972656 25.5625 18.476562 25.558594 18.019531 C 25.230469 18.019531 24.90625 18.019531 24.632812 18.019531 C 21.335938 18.019531 17.8125 18.019531 15.085938 18.019531 C 13.722656 18.019531 13.078125 17.6875 12.394531 17.6875 C 6.359375 17.6875 4.949219 25.882812 9.511719 28.136719 C 5.011719 30.511719 6.578125 38.199219 12.433594 38.222656 C 12.433594 38.222656 18.464844 38.222656 24.632812 38.222656 C 24.957031 38.222656 25.230469 38.222656 25.59375 38.222656 Z M 34.960938 21.300781 C 33.410156 21.296875 31.886719 21.304688 30.667969 21.300781 C 30.675781 22.851562 30.660156 24.355469 30.667969 25.582031 C 31.914062 25.582031 33.417969 25.574219 34.960938 25.582031 C 34.957031 24.390625 34.960938 22.828125 34.960938 21.300781 Z M 40.132812 21.328125 C 40.140625 22.71875 40.132812 24.207031 40.132812 25.628906 C 42.113281 25.640625 43.597656 25.628906 43.597656 25.628906 C 46.210938 25.628906 46.210938 21.328125 43.523438 21.328125 C 43.195312 21.328125 41.886719 21.339844 40.132812 21.328125 Z M 34.941406 34.953125 C 34.933594 33.460938 34.941406 31.914062 34.941406 30.714844 C 33.425781 30.714844 31.882812 30.71875 30.675781 30.714844 C 30.675781 31.949219 30.679688 33.4375 30.675781 34.953125 C 31.902344 34.957031 33.410156 34.949219 34.941406 34.953125 Z M 40.144531 35 C 42.109375 35.011719 43.597656 35 43.597656 35 C 46.210938 35 46.210938 30.726562 43.523438 30.726562 C 43.199219 30.726562 41.882812 30.726562 40.144531 30.726562 C 40.144531 32.140625 40.148438 33.621094 40.144531 35 Z M 35.003906 28.839844 C 35.003906 28.507812 35.003906 27.832031 35.003906 27.667969 C 35.003906 27.539062 35.003906 27.890625 35.003906 27.667969 C 32.382812 27.667969 29.769531 27.667969 28.074219 27.667969 C 26.390625 27.667969 23.875 27.667969 21.277344 27.667969 C 21.277344 27.945312 21.277344 27.488281 21.277344 27.667969 C 21.277344 27.878906 21.277344 28.53125 21.277344 28.878906 C 23.992188 28.878906 26.707031 28.871094 28.074219 28.871094 C 29.46875 28.871094 32.21875 28.828125 35.003906 28.839844 Z M 46.511719 26.023438 C 45.921875 26.847656 44.992188 27.382812 43.722656 27.382812 C 43.722656 27.382812 42.21875 27.382812 40.101562 27.382812 C 40.101562 27.644531 40.101562 27.84375 40.101562 28.101562 C 40.101562 28.394531 40.101562 28.648438 40.101562 28.941406 C 41.675781 28.945312 43.003906 28.914062 43.585938 28.914062 C 48.46875 28.914062 48.46875 36.816406 43.722656 36.816406 C 43.722656 36.816406 35.855469 36.816406 30.664062 36.816406 C 30.660156 37.207031 30.664062 37.78125 30.664062 38.15625 C 36.824219 38.152344 43.773438 38.15625 43.773438 38.15625 C 49.429688 38.15625 51.425781 30.433594 46.984375 28.308594 L 46.84375 28.238281 C 50.785156 26.675781 50.277344 18.027344 43.585938 17.996094 C 41.699219 17.988281 35.699219 17.984375 30.621094 17.996094 C 30.621094 18.507812 30.621094 18.996094 30.621094 19.53125 C 34.964844 19.539062 41.957031 19.53125 43.585938 19.53125 C 47.164062 19.53125 48.121094 23.761719 46.511719 26.023438 M 25.574219 16.175781 C 25.570312 14.347656 25.574219 12.929688 25.574219 12.589844 C 25.574219 9.902344 21.253906 9.902344 21.253906 12.515625 C 21.253906 12.515625 21.25 13.984375 21.253906 16.175781 C 22.660156 16.183594 24.140625 16.164062 25.574219 16.175781 Z M 34.957031 16.15625 C 34.957031 14.34375 34.957031 12.925781 34.957031 12.589844 C 34.957031 9.902344 30.632812 9.902344 30.632812 12.515625 C 30.632812 12.515625 30.628906 14.0625 30.632812 16.15625 C 32.070312 16.15625 33.558594 16.152344 34.957031 16.15625 "/>
<path style=" stroke:none;fill-rule:nonzero;fill:rgb(73.110962%,60.710144%,10.671997%);fill-opacity:1;" d="M 40.199219 39.851562 C 40.191406 41.367188 40.199219 42.820312 40.199219 43.921875 C 40.199219 50.445312 32.15625 52.242188 28.277344 48.925781 C 23.773438 52.492188 16.34375 50.484375 16.34375 44.171875 C 16.34375 44.171875 16.355469 42.457031 16.34375 39.761719 C 13.648438 39.761719 11.828125 39.792969 11.828125 39.792969 C 5.515625 39.792969 3.507812 32.410156 7.074219 27.90625 C 3.757812 24.03125 5.554688 16.023438 12.078125 16.023438 C 13.257812 16.023438 14.738281 15.992188 16.378906 15.992188 C 16.378906 13.367188 16.394531 11.644531 16.394531 11.644531 C 16.394531 6.371094 23.128906 3.082031 28.078125 7.121094 C 30.53125 4.953125 34.894531 4.710938 37.558594 6.621094 C 38.253906 7.109375 39.164062 8.195312 39.039062 8.105469 C 39.738281 9.109375 40.210938 10.371094 40.210938 11.894531 C 40.210938 13.023438 40.203125 14.449219 40.210938 16 C 41.65625 16.007812 43.03125 16 44.105469 16 C 45.628906 16 46.890625 16.449219 47.894531 17.148438 C 47.804688 17.023438 48.890625 17.933594 49.378906 18.628906 C 51.289062 21.292969 51.046875 25.65625 48.878906 28.109375 C 52.917969 33.058594 49.628906 39.851562 44.351562 39.851562 C 44.351562 39.851562 42.695312 39.84375 40.199219 39.851562 Z M 38.277344 38.152344 L 43.773438 38.152344 C 49.429688 38.152344 50.402344 30.347656 45.960938 28.21875 C 49.902344 26.65625 50.273438 18.019531 43.582031 17.992188 C 42.640625 17.984375 38.296875 17.980469 38.296875 17.980469 L 38.296875 16.140625 C 38.300781 14.539062 38.300781 13.222656 38.296875 12.519531 C 38.269531 5.828125 29.636719 6.203125 28.070312 10.140625 C 25.945312 5.699219 18.085938 6.675781 18.085938 12.332031 C 18.085938 12.332031 18.085938 15.753906 18.085938 18.011719 L 18.082031 18.011719 C 15.945312 18.011719 14.019531 18.011719 12.621094 18.011719 C 6.585938 18.011719 5.425781 25.84375 9.992188 28.09375 C 5.488281 30.472656 6.574219 38.191406 12.433594 38.21875 C 12.433594 38.21875 11.976562 38.21875 18.144531 38.21875 L 18.144531 39.929688 C 18.144531 42.226562 18.144531 43.667969 18.144531 43.667969 C 18.167969 49.53125 25.816406 50.613281 28.195312 46.109375 C 30.449219 50.675781 38.234375 49.515625 38.234375 43.484375 C 38.234375 38.324219 38.234375 37.128906 38.234375 40.066406 L 38.234375 38.132812 L 38.277344 38.152344 "/>
<path style=" stroke:none;fill-rule:nonzero;fill:rgb(73.110962%,60.710144%,10.671997%);fill-opacity:1;" d="M 30.816406 28.101562 C 30.816406 29.570312 29.621094 30.765625 28.148438 30.765625 C 26.675781 30.765625 25.484375 29.570312 25.484375 28.101562 C 25.484375 26.625 26.675781 25.433594 28.148438 25.433594 C 29.621094 25.433594 30.816406 26.625 30.816406 28.101562 "/>
</g>
</svg>
