<?xml version="1.0" encoding="UTF-8"?>
<svg xmlns="http://www.w3.org/2000/svg" xmlns:xlink="http://www.w3.org/1999/xlink" width="56pt" height="56pt" viewBox="0 0 56 56" version="1.1">
<g id="surface1">
<rect x="0" y="0" width="56" height="56" style="fill:rgb(95.666504%,95.776367%,96.775818%);fill-opacity:1;stroke:none;"/>
<path style=" stroke:none;fill-rule:nonzero;fill:rgb(34.230042%,64.916992%,87.747192%);fill-opacity:1;" d="M 7.347656 21.835938 L 4.953125 21.835938 L 4.953125 28.25 C 4.953125 28.921875 4.824219 29.40625 4.570312 29.691406 C 4.3125 29.976562 3.894531 30.121094 3.3125 30.121094 C 3.246094 30.121094 3.1875 30.113281 3.125 30.113281 L 2.320312 32.066406 C 2.675781 32.128906 3.066406 32.160156 3.496094 32.160156 C 4.25 32.160156 4.878906 32.0625 5.375 31.863281 C 5.871094 31.664062 6.265625 31.394531 6.554688 31.050781 C 6.847656 30.707031 7.050781 30.304688 7.167969 29.84375 C 7.289062 29.386719 7.347656 28.894531 7.347656 28.371094 L 7.347656 21.835938 "/>
<path style=" stroke:none;fill-rule:nonzero;fill:rgb(43.884277%,74.479675%,92.323303%);fill-opacity:1;" d="M 46.582031 30.394531 C 46.160156 30.394531 45.832031 30.324219 45.59375 30.1875 C 45.351562 30.046875 45.230469 29.800781 45.230469 29.441406 C 45.230469 29.257812 45.273438 29.105469 45.355469 28.980469 C 45.433594 28.859375 45.546875 28.761719 45.691406 28.691406 C 45.777344 28.648438 46.148438 28.582031 46.640625 28.582031 C 46.960938 28.582031 47.335938 28.609375 47.71875 28.695312 L 47.71875 30.332031 C 47.59375 30.351562 47.429688 30.367188 47.226562 30.378906 C 47.023438 30.390625 46.804688 30.394531 46.582031 30.394531 M 46.398438 23.65625 C 46.132812 23.65625 45.867188 23.671875 45.605469 23.695312 C 45.34375 23.722656 45.097656 23.753906 44.863281 23.789062 C 44.738281 23.804688 44.621094 23.828125 44.507812 23.847656 L 44.507812 23.851562 C 44.4375 23.863281 44.367188 23.875 44.296875 23.890625 C 44.125 23.925781 43.972656 23.96875 43.847656 24.019531 L 43.847656 25.90625 C 44.039062 25.859375 44.472656 25.660156 45.585938 25.660156 C 45.667969 25.660156 45.757812 25.660156 45.847656 25.664062 C 45.988281 25.667969 46.160156 25.675781 46.359375 25.703125 C 46.5625 25.726562 46.710938 25.753906 46.816406 25.785156 L 46.859375 25.800781 C 47.074219 25.859375 47.242188 25.949219 47.363281 26.070312 C 47.597656 26.304688 47.71875 26.460938 47.71875 26.851562 L 47.71875 27.039062 C 47.222656 27.007812 46.625 26.972656 46.367188 26.972656 C 45.925781 26.972656 45.503906 27.015625 45.09375 27.101562 C 44.683594 27.1875 44.320312 27.332031 44.003906 27.523438 C 43.6875 27.71875 43.433594 27.980469 43.242188 28.308594 C 43.054688 28.632812 42.960938 29.035156 42.960938 29.503906 C 42.960938 29.996094 43.042969 30.410156 43.207031 30.746094 C 43.367188 31.085938 43.605469 31.359375 43.910156 31.566406 C 44.21875 31.777344 44.585938 31.929688 45.007812 32.023438 C 45.433594 32.113281 45.90625 32.15625 46.429688 32.15625 C 47.257812 32.15625 47.964844 32.109375 48.546875 32.015625 C 49.128906 31.914062 49.585938 31.832031 49.910156 31.761719 L 49.910156 26.957031 C 49.910156 26.457031 49.855469 26 49.742188 25.59375 C 49.632812 25.183594 49.4375 24.835938 49.167969 24.546875 C 48.898438 24.261719 48.535156 24.042969 48.085938 23.886719 C 47.636719 23.734375 47.074219 23.65625 46.398438 23.65625 "/>
<path style=" stroke:none;fill-rule:nonzero;fill:rgb(17.49115%,31.736755%,61.161804%);fill-opacity:1;" d="M 21.746094 23.875 L 15.332031 23.875 L 15.332031 25.777344 L 18.769531 25.777344 C 18.492188 26.105469 18.191406 26.472656 17.863281 26.875 C 17.535156 27.28125 17.207031 27.695312 16.875 28.125 C 16.542969 28.554688 16.222656 28.984375 15.921875 29.40625 C 15.621094 29.832031 15.363281 30.226562 15.148438 30.597656 L 15.148438 31.949219 L 21.824219 31.949219 L 21.824219 30.042969 L 17.917969 30.042969 C 18.214844 29.613281 18.546875 29.167969 18.910156 28.710938 C 19.273438 28.25 19.636719 27.808594 19.992188 27.390625 C 20.351562 26.96875 20.6875 26.585938 21 26.238281 C 21.3125 25.890625 21.5625 25.613281 21.746094 25.410156 L 21.746094 23.875 "/>
<path style=" stroke:none;fill-rule:nonzero;fill:rgb(15.846252%,22.013855%,46.411133%);fill-opacity:1;" d="M 24.289062 27.097656 C 24.320312 26.902344 24.367188 26.710938 24.433594 26.523438 C 24.5 26.332031 24.59375 26.167969 24.71875 26.023438 C 24.839844 25.882812 24.992188 25.765625 25.179688 25.679688 C 25.363281 25.59375 25.582031 25.546875 25.839844 25.546875 C 26.105469 25.546875 26.328125 25.59375 26.507812 25.6875 C 26.683594 25.777344 26.832031 25.894531 26.949219 26.039062 C 27.070312 26.183594 27.15625 26.34375 27.210938 26.53125 C 27.269531 26.714844 27.300781 26.902344 27.3125 27.097656 Z M 25.808594 23.660156 C 25.316406 23.660156 24.839844 23.753906 24.371094 23.9375 C 23.90625 24.121094 23.496094 24.390625 23.136719 24.75 C 22.777344 25.109375 22.488281 25.554688 22.269531 26.09375 C 22.050781 26.628906 21.941406 27.257812 21.941406 27.972656 C 21.941406 28.566406 22.023438 29.117188 22.195312 29.628906 C 22.363281 30.140625 22.621094 30.585938 22.976562 30.957031 C 23.328125 31.332031 23.773438 31.625 24.308594 31.839844 C 24.847656 32.054688 25.480469 32.160156 26.207031 32.160156 C 26.492188 32.160156 26.78125 32.148438 27.066406 32.117188 C 27.351562 32.085938 27.621094 32.046875 27.871094 32 C 28.121094 31.953125 28.351562 31.902344 28.554688 31.839844 C 28.757812 31.777344 29.171875 31.644531 29.476562 31.460938 L 29.476562 29.527344 C 28.675781 29.839844 28.28125 29.953125 27.75 30.082031 C 27.347656 30.179688 26.933594 30.199219 26.511719 30.199219 C 25.859375 30.199219 25.335938 30.058594 24.949219 29.78125 C 24.558594 29.507812 24.339844 29.132812 24.289062 28.664062 L 29.476562 28.664062 C 29.484375 28.539062 29.496094 28.398438 29.503906 28.242188 C 29.515625 28.082031 29.519531 27.9375 29.519531 27.804688 C 29.519531 26.445312 29.1875 25.414062 28.523438 24.710938 C 27.859375 24.011719 26.953125 23.660156 25.808594 23.660156 "/>
<path style=" stroke:none;fill-rule:nonzero;fill:rgb(24.397278%,53.097534%,81.263733%);fill-opacity:1;" d="M 32.359375 27.097656 C 32.394531 26.902344 32.441406 26.710938 32.507812 26.523438 C 32.574219 26.332031 32.667969 26.167969 32.789062 26.023438 C 32.914062 25.882812 33.066406 25.765625 33.253906 25.679688 C 33.4375 25.59375 33.65625 25.546875 33.910156 25.546875 C 34.175781 25.546875 34.402344 25.59375 34.578125 25.6875 C 34.757812 25.777344 34.90625 25.894531 35.023438 26.039062 C 35.140625 26.183594 35.226562 26.34375 35.285156 26.53125 C 35.339844 26.714844 35.375 26.902344 35.386719 27.097656 Z M 33.882812 23.660156 C 33.390625 23.660156 32.910156 23.753906 32.445312 23.9375 C 31.980469 24.121094 31.570312 24.390625 31.210938 24.75 C 30.851562 25.109375 30.5625 25.554688 30.34375 26.09375 C 30.125 26.628906 30.015625 27.257812 30.015625 27.972656 C 30.015625 28.566406 30.097656 29.117188 30.269531 29.628906 C 30.433594 30.140625 30.695312 30.585938 31.046875 30.957031 C 31.402344 31.332031 31.847656 31.625 32.382812 31.839844 C 32.921875 32.054688 33.554688 32.160156 34.28125 32.160156 C 34.566406 32.160156 34.851562 32.148438 35.140625 32.117188 C 35.425781 32.085938 35.695312 32.046875 35.945312 32 C 36.195312 31.953125 36.421875 31.902344 36.628906 31.839844 C 36.832031 31.777344 37.246094 31.644531 37.546875 31.460938 L 37.546875 29.527344 C 36.75 29.839844 36.355469 29.953125 35.824219 30.082031 C 35.421875 30.179688 35.007812 30.199219 34.585938 30.199219 C 33.929688 30.199219 33.410156 30.058594 33.023438 29.78125 C 32.632812 29.507812 32.414062 29.132812 32.359375 28.664062 L 37.546875 28.664062 C 37.558594 28.539062 37.570312 28.398438 37.578125 28.242188 C 37.589844 28.082031 37.59375 27.9375 37.59375 27.804688 C 37.59375 26.445312 37.261719 25.414062 36.597656 24.710938 C 35.929688 24.011719 35.027344 23.660156 33.882812 23.660156 "/>
<path style=" stroke:none;fill-rule:nonzero;fill:rgb(34.333801%,60.496521%,85.125732%);fill-opacity:1;" d="M 41.414062 23.707031 C 40.726562 23.707031 40.105469 23.769531 39.550781 23.898438 C 38.992188 24.027344 38.507812 24.160156 38.097656 24.304688 L 38.097656 31.945312 L 40.386719 31.945312 L 40.386719 25.777344 C 40.488281 25.746094 40.640625 25.71875 40.839844 25.695312 C 41.039062 25.667969 41.210938 25.65625 41.351562 25.65625 C 41.375 25.65625 41.394531 25.65625 41.417969 25.65625 C 42.320312 25.65625 43.148438 25.851562 43.347656 25.902344 L 43.347656 24.011719 C 43.222656 23.960938 43.078125 23.917969 42.902344 23.882812 C 42.726562 23.847656 42.554688 23.816406 42.382812 23.789062 C 42.207031 23.765625 42.03125 23.746094 41.859375 23.730469 C 41.683594 23.714844 41.535156 23.707031 41.414062 23.707031 "/>
<path style=" stroke:none;fill-rule:nonzero;fill:rgb(24.397278%,53.097534%,81.263733%);fill-opacity:1;" d="M 11.328125 30.394531 C 10.90625 30.394531 10.578125 30.324219 10.335938 30.1875 C 10.097656 30.046875 9.976562 29.800781 9.976562 29.441406 C 9.976562 29.257812 10.019531 29.105469 10.097656 28.980469 C 10.179688 28.859375 10.292969 28.761719 10.4375 28.691406 C 10.523438 28.648438 10.890625 28.582031 11.382812 28.582031 C 11.707031 28.582031 12.082031 28.609375 12.460938 28.695312 L 12.460938 30.332031 C 12.339844 30.351562 12.175781 30.367188 11.972656 30.378906 C 11.765625 30.390625 11.550781 30.394531 11.328125 30.394531 M 11.144531 23.65625 C 10.875 23.65625 10.613281 23.671875 10.351562 23.695312 C 10.089844 23.722656 9.84375 23.753906 9.609375 23.789062 C 9.484375 23.804688 9.367188 23.828125 9.253906 23.847656 L 9.253906 23.851562 C 9.183594 23.863281 9.113281 23.875 9.042969 23.890625 C 8.867188 23.925781 8.71875 23.96875 8.59375 24.019531 L 8.59375 25.90625 C 8.785156 25.859375 9.21875 25.660156 10.332031 25.660156 C 10.414062 25.660156 10.503906 25.660156 10.59375 25.664062 C 10.734375 25.667969 10.90625 25.675781 11.105469 25.703125 C 11.308594 25.726562 11.457031 25.753906 11.558594 25.785156 L 11.605469 25.800781 C 11.820312 25.859375 11.988281 25.949219 12.109375 26.070312 C 12.34375 26.304688 12.460938 26.460938 12.460938 26.851562 L 12.460938 27.039062 C 11.96875 27.007812 11.371094 26.972656 11.113281 26.972656 C 10.671875 26.972656 10.246094 27.015625 9.839844 27.101562 C 9.429688 27.1875 9.066406 27.332031 8.75 27.523438 C 8.433594 27.71875 8.179688 27.980469 7.988281 28.308594 C 7.800781 28.632812 7.707031 29.035156 7.707031 29.503906 C 7.707031 29.996094 7.789062 30.410156 7.949219 30.746094 C 8.113281 31.085938 8.351562 31.359375 8.65625 31.566406 C 8.964844 31.777344 9.328125 31.929688 9.753906 32.023438 C 10.179688 32.113281 10.652344 32.15625 11.171875 32.15625 C 12.003906 32.15625 12.707031 32.109375 13.292969 32.015625 C 13.875 31.914062 14.332031 31.832031 14.65625 31.761719 L 14.65625 26.957031 C 14.65625 26.457031 14.601562 26 14.488281 25.59375 C 14.375 25.183594 14.183594 24.835938 13.914062 24.546875 C 13.640625 24.261719 13.28125 24.042969 12.832031 23.886719 C 12.378906 23.734375 11.816406 23.65625 11.144531 23.65625 "/>
<path style=" stroke:none;fill-rule:nonzero;fill:rgb(24.397278%,53.097534%,81.263733%);fill-opacity:1;" d="M 50.511719 30.347656 L 52.09375 31.933594 L 53.679688 30.347656 L 52.09375 28.765625 L 50.511719 30.347656 "/>
</g>
</svg>
