<?xml version="1.0" encoding="UTF-8"?>
<svg xmlns="http://www.w3.org/2000/svg" xmlns:xlink="http://www.w3.org/1999/xlink" width="56pt" height="56pt" viewBox="0 0 56 56" version="1.1">
<g id="surface1">
<rect x="0" y="0" width="56" height="56" style="fill:rgb(90.327454%,11.289978%,14.355469%);fill-opacity:1;stroke:none;"/>
<path style=" stroke:none;fill-rule:nonzero;fill:rgb(88.68103%,11.439514%,14.456177%);fill-opacity:1;" d="M 18.042969 43.207031 C 18.605469 43.347656 18.953125 43.324219 19.589844 43.324219 C 20.054688 43.324219 20.851562 42.847656 21.222656 41.8125 L 22.679688 38.101562 L 25.566406 38.101562 L 24.246094 41.773438 C 23.671875 43.371094 22.902344 44.867188 19.84375 44.867188 C 19.003906 44.867188 17.535156 44.726562 17.535156 44.726562 L 18.042969 43.207031 "/>
<path style=" stroke:none;fill-rule:nonzero;fill:rgb(88.68103%,11.439514%,14.456177%);fill-opacity:1;" d="M 29.96875 42.09375 L 30.035156 40.234375 L 28.382812 42.09375 Z M 28.714844 38.101562 L 32.59375 38.101562 L 33.304688 44.59375 L 30.238281 44.59375 L 30.128906 43.515625 L 27.21875 43.515625 L 26.335938 44.59375 L 23.097656 44.59375 L 28.714844 38.101562 "/>
<path style=" stroke:none;fill-rule:nonzero;fill:rgb(88.68103%,11.439514%,14.456177%);fill-opacity:1;" d="M 36.511719 38.101562 L 39.605469 38.101562 L 37.941406 43.214844 L 41.714844 43.214844 L 41.25 44.59375 L 34.175781 44.59375 L 36.511719 38.101562 "/>
<path style=" stroke:none;fill-rule:nonzero;fill:rgb(100%,100%,100%);fill-opacity:1;" d="M 42.703125 28.105469 C 41.007812 28.839844 39.308594 29.570312 37.613281 30.300781 C 39.390625 29.75 41.085938 29.023438 42.703125 28.105469 Z M 39.054688 27.738281 C 37.878906 28.039062 36.761719 28.324219 35.554688 28.632812 C 36.097656 28.878906 38.6875 28.195312 39.054688 27.738281 Z M 50.679688 20.664062 C 49.675781 21.566406 48.535156 22.242188 47.351562 22.847656 C 43.691406 24.71875 39.832031 26.03125 35.851562 27.027344 C 33.867188 27.523438 31.914062 28.121094 29.949219 28.675781 C 29.828125 28.710938 29.714844 28.773438 29.625 28.882812 C 32.6875 28.105469 35.753906 27.328125 38.816406 26.550781 C 38.828125 26.578125 38.835938 26.605469 38.847656 26.632812 C 38.695312 26.695312 38.546875 26.757812 38.394531 26.820312 C 38.40625 26.855469 38.417969 26.886719 38.429688 26.921875 C 38.8125 26.773438 39.195312 26.632812 39.574219 26.480469 C 39.710938 26.425781 39.835938 26.332031 39.972656 26.296875 C 42.75 25.613281 45.421875 24.652344 47.964844 23.34375 C 48.058594 23.296875 48.164062 23.265625 48.296875 23.296875 C 47.851562 23.566406 47.410156 23.835938 46.964844 24.105469 C 46.972656 24.128906 46.984375 24.148438 46.992188 24.171875 C 47.136719 24.121094 47.277344 24.070312 47.421875 24.019531 C 47.433594 24.046875 47.445312 24.070312 47.457031 24.097656 C 46.671875 24.457031 45.886719 24.816406 45.105469 25.171875 C 45.109375 25.191406 45.113281 25.210938 45.121094 25.230469 C 45.367188 25.15625 45.617188 25.085938 45.863281 25.015625 C 43.765625 26.101562 41.542969 26.878906 39.332031 27.683594 C 41.085938 27.378906 42.738281 26.753906 44.386719 26.109375 C 44.402344 26.144531 44.414062 26.179688 44.429688 26.214844 C 43.734375 26.511719 43.035156 26.808594 42.335938 27.105469 C 42.34375 27.128906 42.347656 27.148438 42.355469 27.171875 C 42.707031 27.054688 43.058594 26.953125 43.40625 26.824219 C 43.757812 26.691406 44.101562 26.539062 44.445312 26.390625 C 44.800781 26.238281 45.15625 26.082031 45.511719 25.925781 C 45.53125 25.957031 45.554688 25.988281 45.578125 26.015625 C 45.410156 26.148438 45.261719 26.328125 45.070312 26.40625 C 43.289062 27.121094 41.503906 27.816406 39.71875 28.519531 C 39.429688 28.632812 39.140625 28.734375 38.867188 28.902344 C 38.96875 28.886719 39.070312 28.867188 39.222656 28.839844 C 39.121094 28.917969 39.0625 28.96875 39.003906 29.019531 C 39.011719 29.03125 39.019531 29.046875 39.027344 29.066406 C 39.964844 28.710938 40.898438 28.355469 41.835938 28 C 41.84375 28.019531 41.851562 28.035156 41.859375 28.054688 C 41.683594 28.152344 41.507812 28.246094 41.332031 28.339844 C 41.34375 28.367188 41.355469 28.394531 41.367188 28.417969 C 42.179688 28.074219 42.992188 27.730469 43.804688 27.390625 C 43.8125 27.398438 43.820312 27.40625 43.828125 27.414062 C 43.761719 27.46875 43.695312 27.523438 43.628906 27.570312 C 41.28125 29.308594 38.59375 30.347656 35.871094 31.308594 C 32.535156 32.484375 29.089844 33.292969 25.667969 34.1875 C 20.503906 35.53125 15.59375 37.5 11.089844 40.410156 C 9.039062 41.734375 7.128906 43.238281 5.320312 44.902344 C 5.394531 44.773438 5.464844 44.640625 5.542969 44.511719 C 10.285156 36.71875 16.980469 31.277344 25.46875 28.015625 C 28.550781 26.828125 31.765625 26.058594 34.976562 25.300781 C 39.03125 24.347656 43.0625 23.324219 47.007812 21.980469 C 48.113281 21.605469 49.203125 21.191406 50.300781 20.796875 C 50.425781 20.75 50.554688 20.710938 50.679688 20.664062 "/>
<path style=" stroke:none;fill-rule:nonzero;fill:rgb(100%,100%,100%);fill-opacity:1;" d="M 29.578125 16.300781 C 30.839844 16.621094 32.078125 16.695312 33.421875 16.449219 C 32.917969 16.210938 32.488281 16.039062 32.09375 15.804688 C 31.34375 15.371094 30.617188 14.902344 29.886719 14.441406 C 29.359375 14.109375 28.808594 13.839844 28.171875 13.832031 C 27.4375 13.820312 26.890625 14.371094 27.042969 15 C 27.089844 15.191406 27.300781 15.433594 27.480469 15.476562 C 27.683594 15.527344 28 15.445312 28.144531 15.296875 C 28.273438 15.167969 28.25 14.875 28.265625 14.652344 C 28.269531 14.570312 28.183594 14.484375 28.132812 14.390625 C 29.351562 14.222656 29.9375 14.992188 29.578125 16.300781 Z M 34.015625 19.144531 C 32.972656 20.066406 31.8125 20.777344 30.546875 21.320312 C 29.117188 21.9375 27.632812 22.339844 26.0625 22.316406 C 25.195312 22.300781 24.335938 22.195312 23.546875 21.777344 C 23.015625 21.492188 22.683594 21.160156 22.472656 20.675781 C 24.386719 22.019531 26.289062 21.753906 28.289062 20.746094 C 27.25 20.558594 26.300781 20.40625 25.363281 20.210938 C 24.617188 20.058594 23.882812 19.828125 23.132812 19.683594 C 22.863281 19.628906 22.550781 19.671875 22.285156 19.753906 C 21.570312 19.972656 21.355469 20.5625 21.609375 21.464844 C 20.667969 21.1875 20.15625 20.28125 20.304688 19.113281 C 21.082031 19.238281 21.78125 19.113281 22.175781 18.332031 C 22.363281 17.960938 22.378906 17.570312 22.140625 17.164062 C 21.964844 18.101562 21.546875 18.535156 20.820312 18.566406 C 20.203125 18.59375 19.621094 18.234375 19.414062 17.6875 C 19.179688 17.066406 19.402344 16.296875 19.964844 15.867188 C 20.59375 15.386719 21.304688 15.304688 22.035156 15.539062 C 22.628906 15.734375 23.203125 15.996094 23.785156 16.226562 C 24.882812 16.667969 25.996094 17.050781 27.195312 17.085938 C 27.257812 17.085938 27.316406 17.085938 27.414062 17.085938 C 26.824219 16.847656 26.265625 16.652344 25.730469 16.402344 C 25.382812 16.238281 25.070312 15.992188 24.738281 15.792969 C 24.539062 15.675781 24.539062 15.542969 24.652344 15.359375 C 24.890625 14.972656 25.234375 14.753906 25.671875 14.644531 C 25.777344 14.617188 25.921875 14.515625 25.949219 14.417969 C 26.410156 12.855469 27.292969 12.136719 28.933594 12.195312 C 29.980469 12.234375 31.03125 12.398438 32.058594 12.601562 C 34.917969 13.167969 37.703125 13.070312 40.375 11.800781 C 40.800781 11.597656 41.210938 11.359375 41.703125 11.097656 C 41.039062 12.433594 40.195312 13.539062 39.226562 14.582031 C 41.449219 14.976562 46.308594 14.761719 50.679688 12.070312 C 50.417969 12.355469 50.171875 12.65625 49.902344 12.925781 C 47.339844 15.488281 44.273438 17 40.660156 17.371094 C 39.113281 17.527344 37.578125 17.484375 36.050781 17.171875 C 35.90625 17.144531 35.726562 17.191406 35.59375 17.261719 C 33.34375 18.40625 30.953125 18.953125 28.433594 18.839844 C 27.5 18.796875 26.570312 18.59375 25.640625 18.460938 C 25.554688 18.449219 25.472656 18.433594 25.386719 18.460938 C 28.183594 19.636719 31.058594 19.851562 34.015625 19.144531 "/>
<path style=" stroke:none;fill-rule:nonzero;fill:rgb(100%,100%,100%);fill-opacity:1;" d="M 40.988281 31.699219 C 40.878906 31.820312 40.789062 31.972656 40.65625 32.066406 C 38.785156 33.390625 36.714844 34.296875 34.578125 35.085938 C 31.851562 36.097656 29.019531 36.597656 26.164062 37.054688 C 23.664062 37.457031 21.179688 37.941406 18.6875 38.390625 C 18.652344 38.394531 18.613281 38.390625 18.542969 38.332031 C 18.992188 38.09375 19.433594 37.835938 19.890625 37.613281 C 22.386719 36.402344 25.019531 35.585938 27.683594 34.867188 C 30.855469 34.007812 34.019531 33.121094 37.078125 31.910156 C 39.5 30.953125 41.796875 29.746094 43.996094 28.355469 C 44.152344 28.253906 44.3125 28.164062 44.496094 28.109375 C 42.550781 30.054688 40.179688 31.371094 37.78125 32.644531 C 39.644531 31.921875 41.328125 30.878906 42.960938 29.742188 C 42.988281 29.78125 43.015625 29.824219 43.039062 29.863281 C 41.828125 30.699219 40.613281 31.535156 39.398438 32.371094 C 39.402344 32.382812 39.40625 32.394531 39.410156 32.40625 C 39.785156 32.214844 40.160156 32.011719 40.542969 31.828125 C 40.683594 31.761719 40.847656 31.746094 41 31.710938 L 40.988281 31.699219 "/>
<path style=" stroke:none;fill-rule:nonzero;fill:rgb(100%,100%,100%);fill-opacity:1;" d="M 38.933594 20.269531 C 39.566406 20.175781 40.195312 20.089844 40.824219 19.976562 C 41.726562 19.820312 42.652344 19.753906 43.488281 19.332031 C 43.753906 19.203125 44.007812 19.054688 44.28125 18.949219 C 42.992188 19.832031 41.539062 20.328125 40.035156 20.703125 C 40.042969 20.734375 40.054688 20.765625 40.0625 20.796875 C 40.820312 20.59375 41.574219 20.382812 42.332031 20.175781 C 40.46875 21.027344 38.488281 21.441406 36.460938 21.660156 C 36.46875 21.710938 36.480469 21.761719 36.488281 21.8125 C 37.894531 21.582031 39.292969 21.355469 40.695312 21.125 C 40.703125 21.136719 40.707031 21.144531 40.714844 21.152344 C 40.339844 21.273438 39.964844 21.390625 39.59375 21.507812 C 39.597656 21.535156 39.605469 21.5625 39.609375 21.589844 C 39.78125 21.558594 39.957031 21.546875 40.121094 21.496094 C 40.730469 21.3125 41.339844 21.109375 41.953125 20.929688 C 42.558594 20.746094 43.175781 20.582031 43.816406 20.453125 C 43.332031 20.675781 42.851562 20.910156 42.363281 21.121094 C 41.84375 21.339844 41.320312 21.546875 40.789062 21.738281 C 40.269531 21.925781 39.746094 22.101562 39.214844 22.25 C 38.691406 22.394531 38.15625 22.492188 37.636719 22.660156 C 38.890625 22.605469 40.089844 22.265625 41.28125 21.902344 C 40.027344 22.941406 34.5 24.546875 31.339844 24.792969 C 31.484375 24.671875 31.570312 24.597656 31.65625 24.527344 C 33.710938 22.910156 35.410156 20.980469 36.722656 18.714844 C 36.785156 18.601562 36.960938 18.484375 37.082031 18.488281 C 41.105469 18.652344 44.8125 17.664062 48.175781 15.433594 C 48.21875 15.40625 48.261719 15.386719 48.320312 15.386719 C 47.511719 16.269531 46.632812 17.09375 45.601562 17.699219 C 44.578125 18.296875 43.511719 18.851562 42.402344 19.265625 C 41.285156 19.683594 40.09375 19.90625 38.9375 20.210938 C 38.9375 20.230469 38.933594 20.25 38.933594 20.269531 "/>
<path style=" stroke:none;fill-rule:nonzero;fill:rgb(100%,100%,100%);fill-opacity:1;" d="M 15.492188 41.230469 C 15.945312 40.992188 16.386719 40.738281 16.84375 40.527344 C 18.996094 39.535156 21.277344 39.023438 23.597656 38.636719 C 26.949219 38.074219 30.292969 37.460938 33.476562 36.207031 C 33.554688 36.175781 33.640625 36.171875 33.738281 36.203125 C 32.710938 36.90625 31.492188 37.175781 30.367188 37.65625 C 30.378906 37.695312 30.390625 37.734375 30.402344 37.773438 C 30.660156 37.699219 30.921875 37.628906 31.179688 37.546875 C 31.441406 37.46875 31.699219 37.382812 31.984375 37.363281 C 31.691406 37.496094 31.394531 37.625 31.097656 37.753906 C 31.109375 37.792969 31.125 37.832031 31.140625 37.867188 C 31.800781 37.597656 32.460938 37.328125 33.121094 37.058594 C 33.136719 37.085938 33.148438 37.109375 33.160156 37.132812 C 32.902344 37.28125 32.65625 37.449219 32.386719 37.578125 C 29.160156 39.144531 25.8125 40.296875 22.207031 40.601562 C 20.394531 40.757812 18.585938 40.9375 16.773438 41.117188 C 16.355469 41.15625 15.941406 41.238281 15.523438 41.304688 C 15.515625 41.28125 15.503906 41.253906 15.492188 41.230469 "/>
<path style=" stroke:none;fill-rule:nonzero;fill:rgb(100%,100%,100%);fill-opacity:1;" d="M 31.136719 22.605469 C 29.242188 23.042969 27.628906 24.050781 25.992188 25.027344 C 25.101562 25.558594 24.136719 25.804688 23.113281 25.425781 C 22.019531 25.019531 21.519531 23.757812 22.0625 22.828125 C 22.085938 22.835938 22.117188 22.839844 22.125 22.855469 C 22.71875 23.9375 23.785156 24.242188 24.976562 23.882812 C 25.9375 23.589844 26.871094 23.214844 27.832031 22.933594 C 28.90625 22.625 30.015625 22.546875 31.136719 22.605469 "/>
<path style=" stroke:none;fill-rule:nonzero;fill:rgb(100%,100%,100%);fill-opacity:1;" d="M 35.070312 35.738281 C 34.679688 35.90625 34.292969 36.070312 33.90625 36.238281 C 33.882812 36.1875 33.859375 36.136719 33.835938 36.085938 C 34.199219 35.839844 34.632812 35.757812 35.03125 35.609375 C 35.046875 35.652344 35.058594 35.695312 35.070312 35.738281 "/>
<path style=" stroke:none;fill-rule:nonzero;fill:rgb(100%,100%,100%);fill-opacity:1;" d="M 41 31.710938 C 41.289062 31.441406 41.578125 31.175781 41.867188 30.90625 C 41.910156 30.964844 41.953125 31.019531 41.992188 31.070312 C 41.65625 31.28125 41.324219 31.488281 40.988281 31.699219 L 41 31.710938 "/>
</g>
</svg>
