<?xml version="1.0" encoding="UTF-8"?>
<svg xmlns="http://www.w3.org/2000/svg" xmlns:xlink="http://www.w3.org/1999/xlink" width="56pt" height="56pt" viewBox="0 0 56 56" version="1.1">
<g id="surface1">
<rect x="0" y="0" width="56" height="56" style="fill:rgb(95.089722%,36.547852%,9.817505%);fill-opacity:1;stroke:none;"/>
<path style=" stroke:none;fill-rule:nonzero;fill:rgb(100%,100%,100%);fill-opacity:1;" d="M 5.03125 32.011719 L 3.414062 29.914062 C 3.414062 29.914062 2.417969 28.527344 4.410156 26.582031 C 4.410156 26.582031 5.167969 25.65625 7.015625 25.796875 C 7.015625 25.796875 6.90625 24.09375 9.007812 22.753906 C 9.007812 22.753906 11.804688 21.355469 13.488281 25.472656 C 13.488281 25.472656 13.84375 26.660156 13.636719 28.359375 C 13.636719 28.359375 13.585938 28.996094 13.066406 29.035156 C 13.066406 29.035156 12.476562 29.109375 12.441406 28.324219 C 12.441406 28.324219 12.828125 26.351562 11.386719 25.128906 C 11.386719 25.128906 10.15625 23.941406 9.199219 25.355469 C 9.199219 25.355469 8.375 26.621094 10.089844 28.613281 C 10.089844 28.613281 10.609375 29.300781 10.019531 29.914062 C 10.019531 29.914062 9.601562 30.453125 8.824219 29.878906 L 7.28125 28.289062 C 7.28125 28.289062 6.566406 27.636719 6.121094 28.21875 C 6.121094 28.21875 5.546875 28.691406 5.902344 29.339844 L 7.167969 30.992188 C 7.167969 30.992188 7.550781 31.882812 7.015625 32.257812 C 7.015625 32.257812 6.132812 33.035156 5.328125 32.222656 L 5.03125 32.011719 "/>
<path style=" stroke:none;fill-rule:nonzero;fill:rgb(100%,100%,100%);fill-opacity:1;" d="M 18.480469 26.699219 L 17.78125 27.847656 C 17.78125 27.847656 17.355469 28.460938 16.707031 27.960938 C 16.707031 27.960938 16.203125 27.558594 16.746094 26.957031 L 17.664062 26.007812 C 17.664062 26.007812 18.585938 25.625 18.480469 26.699219 M 21.992188 28.996094 L 21.152344 28.917969 C 19.542969 28.691406 20.800781 26.351562 20.800781 26.351562 C 21.0625 25.503906 20.308594 24.9375 20.308594 24.9375 L 20.117188 24.742188 C 18.316406 22.496094 16.058594 24.132812 16.058594 24.132812 C 13.382812 26.507812 14.90625 28.84375 14.90625 28.84375 C 16.144531 30.589844 18.273438 29.660156 18.273438 29.660156 C 18.609375 29.480469 18.96875 29.765625 18.96875 29.765625 C 19.808594 30.800781 20.941406 30.746094 20.941406 30.746094 C 22.273438 30.851562 22.761719 30.03125 22.761719 30.03125 C 23.246094 29.066406 21.992188 28.996094 21.992188 28.996094 "/>
<path style=" stroke:none;fill-rule:nonzero;fill:rgb(100%,100%,100%);fill-opacity:1;" d="M 23.574219 22.523438 C 23.574219 22.523438 26.835938 21.449219 28.664062 23.824219 C 28.664062 23.824219 29.273438 24.359375 29.003906 26.046875 L 28.488281 28.289062 C 28.488281 28.289062 27.949219 29.085938 27.585938 28.253906 L 27.625 25.972656 C 27.625 25.972656 27.53125 24.609375 25.890625 24.425781 C 25.890625 24.425781 24.664062 24.289062 24.628906 25.691406 L 24.628906 27.769531 C 24.628906 27.769531 24.484375 28.359375 23.757812 28.359375 C 23.757812 28.359375 22.875 28.277344 22.839844 27.617188 L 22.570312 24.859375 C 22.570312 24.859375 21.589844 22.859375 23.144531 22.484375 L 23.574219 22.523438 "/>
<path style=" stroke:none;fill-rule:nonzero;fill:rgb(100%,100%,100%);fill-opacity:1;" d="M 33.335938 28.429688 C 33.335938 28.429688 32.03125 28.273438 31.992188 27.238281 C 31.992188 27.238281 32.109375 26.507812 33.40625 26.507812 L 33.617188 26.542969 C 33.617188 26.542969 34.777344 26.542969 34.742188 27.539062 C 34.742188 27.539062 34.867188 28.746094 33.335938 28.429688 M 36.667969 26.621094 C 36.707031 25.894531 36.078125 25.832031 36.078125 25.832031 L 36.039062 25.320312 L 36.007812 25.050781 C 35.902344 24.167969 34.8125 24.09375 34.8125 24.09375 C 30.121094 23.828125 29.96875 26.734375 29.96875 26.734375 C 29.894531 30.679688 33.617188 30.183594 33.617188 30.183594 C 34.246094 30.222656 33.832031 31.03125 33.832031 31.03125 C 32.453125 33.980469 28.703125 33.824219 28.703125 33.824219 C 27.402344 33.898438 28.386719 34.578125 28.386719 34.578125 C 29.261719 35.0625 30.003906 35.085938 30.003906 35.085938 C 32.738281 35.085938 33.652344 34.128906 33.652344 34.128906 C 37.074219 31.675781 36.667969 26.621094 36.667969 26.621094 "/>
<path style=" stroke:none;fill-rule:nonzero;fill:rgb(100%,100%,100%);fill-opacity:1;" d="M 37.589844 26.851562 C 37.589844 26.851562 37.242188 24.667969 41.378906 22.558594 C 41.378906 22.558594 43.292969 21.179688 44.828125 22.445312 C 44.828125 22.445312 45.363281 23.023438 46.015625 23.164062 C 46.015625 23.164062 51.070312 25.210938 48.007812 30.488281 C 48.007812 30.488281 45.9375 33.199219 41.761719 32.710938 C 41.761719 32.710938 36.9375 32.257812 37.589844 26.851562 "/>
<path style=" stroke:none;fill-rule:nonzero;fill:rgb(100%,100%,100%);fill-opacity:1;" d="M 33.898438 27.570312 L 33.902344 27.628906 C 33.902344 27.628906 33.902344 27.628906 33.902344 27.632812 C 33.878906 27.636719 33.847656 27.640625 33.800781 27.640625 C 33.71875 27.640625 33.617188 27.628906 33.503906 27.605469 L 33.46875 27.597656 L 33.441406 27.59375 C 33.4375 27.59375 33.128906 27.542969 32.953125 27.40625 C 33.039062 27.378906 33.164062 27.355469 33.339844 27.351562 L 33.46875 27.375 L 33.542969 27.386719 L 33.605469 27.386719 C 33.707031 27.390625 33.847656 27.429688 33.898438 27.464844 C 33.898438 27.472656 33.902344 27.488281 33.898438 27.511719 Z M 49.464844 25.726562 C 48.664062 23.394531 46.320312 22.421875 46.21875 22.382812 L 46.152344 22.355469 L 46.082031 22.339844 C 45.769531 22.273438 45.425781 21.96875 45.332031 21.867188 L 45.292969 21.828125 L 45.253906 21.792969 C 44.667969 21.3125 43.988281 21.070312 43.226562 21.070312 C 42.058594 21.070312 41.09375 21.660156 40.835938 21.835938 C 38.453125 23.058594 37.410156 24.347656 36.957031 25.335938 C 36.933594 25.316406 36.910156 25.292969 36.886719 25.273438 L 36.882812 25.261719 L 36.882812 25.234375 L 36.878906 25.207031 L 36.84375 24.949219 C 36.714844 23.867188 35.730469 23.3125 34.859375 23.25 C 34.644531 23.238281 34.429688 23.230469 34.226562 23.230469 C 31.960938 23.230469 30.628906 24 29.898438 24.878906 C 29.820312 23.960938 29.484375 23.46875 29.304688 23.273438 C 28.363281 22.070312 26.96875 21.4375 25.277344 21.4375 C 24.46875 21.4375 23.800781 21.585938 23.492188 21.667969 L 23.082031 21.632812 L 22.945312 21.664062 C 22.15625 21.851562 21.785156 22.328125 21.613281 22.695312 C 21.191406 23.589844 21.558594 24.652344 21.742188 25.082031 L 21.996094 27.691406 C 22.011719 27.863281 22.054688 28.019531 22.117188 28.160156 C 22.09375 28.15625 22.066406 28.15625 22.046875 28.15625 L 21.257812 28.082031 C 21.222656 28.078125 21.199219 28.070312 21.183594 28.066406 C 21.125 27.855469 21.296875 27.214844 21.542969 26.75 L 21.582031 26.675781 L 21.605469 26.601562 C 21.9375 25.527344 21.320312 24.671875 20.867188 24.304688 L 20.746094 24.179688 C 19.757812 22.96875 18.640625 22.714844 17.871094 22.714844 C 16.613281 22.714844 15.667969 23.371094 15.566406 23.449219 L 15.53125 23.472656 L 15.5 23.5 C 14.921875 24.011719 14.515625 24.535156 14.222656 25.050781 C 12.988281 22.125 11.128906 21.679688 10.121094 21.679688 C 9.289062 21.679688 8.695312 21.964844 8.628906 21.996094 L 8.589844 22.015625 L 8.550781 22.039062 C 7.042969 23.003906 6.488281 24.164062 6.285156 24.953125 C 4.765625 25.050781 3.992188 25.789062 3.796875 26 C 1.34375 28.414062 2.667969 30.328125 2.726562 30.40625 L 2.738281 30.417969 L 2.746094 30.429688 L 4.363281 32.527344 L 4.441406 32.628906 L 4.542969 32.703125 L 4.789062 32.875 C 5.179688 33.242188 5.644531 33.4375 6.144531 33.4375 C 6.847656 33.4375 7.367188 33.058594 7.535156 32.921875 C 8.257812 32.386719 8.261719 31.40625 7.941406 30.660156 L 7.902344 30.566406 L 7.835938 30.480469 L 6.632812 28.910156 C 6.640625 28.898438 6.648438 28.886719 6.65625 28.875 C 6.671875 28.886719 6.6875 28.898438 6.703125 28.90625 L 8.21875 30.464844 L 8.269531 30.515625 L 8.324219 30.554688 C 8.710938 30.84375 9.105469 30.988281 9.503906 30.988281 C 10.027344 30.984375 10.429688 30.730469 10.648438 30.480469 C 11.480469 29.589844 11.089844 28.539062 10.761719 28.105469 L 10.746094 28.085938 L 10.726562 28.0625 C 9.5625 26.707031 9.867188 25.910156 9.917969 25.800781 C 10.054688 25.605469 10.1875 25.503906 10.308594 25.503906 C 10.492188 25.503906 10.726562 25.664062 10.808594 25.742188 L 10.832031 25.757812 L 10.839844 25.769531 C 11.875 26.648438 11.625 28.105469 11.613281 28.167969 L 11.59375 28.269531 L 11.597656 28.363281 C 11.648438 29.40625 12.371094 29.882812 13.027344 29.882812 C 13.101562 29.882812 13.15625 29.875 13.171875 29.871094 C 13.628906 29.828125 13.960938 29.582031 14.179688 29.265625 C 14.183594 29.277344 14.191406 29.292969 14.199219 29.304688 L 14.210938 29.316406 L 14.21875 29.332031 C 14.875 30.261719 15.832031 30.75 16.988281 30.75 C 17.664062 30.75 18.226562 30.578125 18.476562 30.484375 C 19.457031 31.535156 20.667969 31.59375 20.910156 31.59375 L 20.917969 31.59375 C 21.007812 31.597656 21.089844 31.601562 21.171875 31.601562 C 22.769531 31.601562 23.417969 30.578125 23.488281 30.460938 L 23.5 30.433594 L 23.515625 30.410156 C 23.773438 29.890625 23.738281 29.476562 23.644531 29.195312 C 23.65625 29.199219 23.664062 29.199219 23.675781 29.199219 L 23.714844 29.207031 L 23.757812 29.207031 C 24.710938 29.207031 25.304688 28.5625 25.449219 27.96875 L 25.472656 27.871094 L 25.472656 25.714844 C 25.480469 25.300781 25.613281 25.269531 25.796875 25.265625 C 26.589844 25.351562 26.75 25.828125 26.78125 26.015625 L 26.742188 28.242188 L 26.742188 28.421875 L 26.8125 28.589844 C 27.160156 29.390625 27.753906 29.476562 27.992188 29.476562 C 28.652344 29.476562 29.074219 28.933594 29.1875 28.765625 L 29.277344 28.636719 L 29.3125 28.480469 L 29.335938 28.386719 C 29.511719 28.980469 29.800781 29.492188 30.210938 29.90625 C 31.039062 30.753906 32.128906 30.984375 32.871094 31.035156 C 31.734375 32.882812 29.304688 32.980469 28.804688 32.980469 C 28.765625 32.980469 28.742188 32.980469 28.734375 32.980469 L 28.691406 32.976562 L 28.652344 32.980469 C 27.851562 33.027344 27.371094 33.320312 27.222656 33.84375 C 27.082031 34.347656 27.339844 34.878906 27.90625 35.273438 L 27.941406 35.292969 L 27.976562 35.316406 C 29 35.882812 29.875 35.925781 29.972656 35.929688 L 30.003906 35.929688 C 32.6875 35.929688 33.878906 35.0625 34.1875 34.785156 C 35.816406 33.597656 36.65625 31.921875 37.085938 30.390625 C 37.265625 30.789062 37.488281 31.160156 37.761719 31.503906 C 39.222656 33.3125 41.476562 33.542969 41.550781 33.550781 C 41.917969 33.59375 42.285156 33.613281 42.644531 33.613281 C 46.527344 33.613281 48.484375 31.109375 48.566406 31.003906 L 48.597656 30.960938 L 48.625 30.914062 C 49.71875 29.03125 50 27.289062 49.464844 25.726562 "/>
<path style=" stroke:none;fill-rule:nonzero;fill:rgb(12.860107%,11.213684%,11.195374%);fill-opacity:1;" d="M 5.03125 32.015625 L 3.414062 29.914062 C 3.414062 29.914062 2.417969 28.527344 4.410156 26.582031 C 4.410156 26.582031 5.167969 25.65625 7.015625 25.796875 C 7.015625 25.796875 6.90625 24.09375 9.007812 22.75 C 9.007812 22.75 11.804688 21.351562 13.488281 25.472656 C 13.488281 25.472656 13.847656 26.660156 13.636719 28.359375 C 13.636719 28.359375 13.589844 28.996094 13.066406 29.035156 C 13.066406 29.035156 12.476562 29.109375 12.441406 28.328125 C 12.441406 28.328125 12.828125 26.351562 11.390625 25.128906 C 11.390625 25.128906 10.15625 23.9375 9.199219 25.355469 C 9.199219 25.355469 8.375 26.621094 10.089844 28.613281 C 10.089844 28.613281 10.609375 29.300781 10.019531 29.914062 C 10.019531 29.914062 9.601562 30.453125 8.824219 29.878906 L 7.28125 28.289062 C 7.28125 28.289062 6.566406 27.636719 6.121094 28.21875 C 6.121094 28.21875 5.546875 28.691406 5.902344 29.339844 L 7.167969 30.996094 C 7.167969 30.996094 7.550781 31.882812 7.015625 32.257812 C 7.015625 32.257812 6.132812 33.039062 5.328125 32.222656 L 5.03125 32.015625 "/>
<path style=" stroke:none;fill-rule:nonzero;fill:rgb(12.860107%,11.213684%,11.195374%);fill-opacity:1;" d="M 18.480469 26.699219 L 17.78125 27.847656 C 17.78125 27.847656 17.355469 28.460938 16.707031 27.960938 C 16.707031 27.960938 16.203125 27.558594 16.746094 26.957031 L 17.664062 26.007812 C 17.664062 26.007812 18.589844 25.625 18.480469 26.699219 M 21.992188 28.996094 L 21.152344 28.917969 C 19.542969 28.691406 20.800781 26.351562 20.800781 26.351562 C 21.0625 25.503906 20.308594 24.933594 20.308594 24.933594 L 20.117188 24.742188 C 18.316406 22.496094 16.058594 24.132812 16.058594 24.132812 C 13.382812 26.507812 14.90625 28.84375 14.90625 28.84375 C 16.140625 30.589844 18.273438 29.660156 18.273438 29.660156 C 18.609375 29.480469 18.96875 29.765625 18.96875 29.765625 C 19.808594 30.800781 20.941406 30.75 20.941406 30.75 C 22.273438 30.851562 22.761719 30.03125 22.761719 30.03125 C 23.246094 29.066406 21.992188 28.996094 21.992188 28.996094 "/>
<path style=" stroke:none;fill-rule:nonzero;fill:rgb(12.860107%,11.213684%,11.195374%);fill-opacity:1;" d="M 23.574219 22.523438 C 23.574219 22.523438 26.835938 21.449219 28.667969 23.824219 C 28.667969 23.824219 29.273438 24.359375 29.003906 26.046875 L 28.492188 28.289062 C 28.492188 28.289062 27.949219 29.085938 27.585938 28.257812 L 27.625 25.972656 C 27.625 25.972656 27.53125 24.609375 25.890625 24.425781 C 25.890625 24.425781 24.664062 24.285156 24.628906 25.691406 L 24.628906 27.769531 C 24.628906 27.769531 24.484375 28.359375 23.757812 28.359375 C 23.757812 28.359375 22.875 28.277344 22.835938 27.617188 L 22.570312 24.859375 C 22.570312 24.859375 21.589844 22.855469 23.144531 22.484375 L 23.574219 22.523438 "/>
<path style=" stroke:none;fill-rule:nonzero;fill:rgb(12.860107%,11.213684%,11.195374%);fill-opacity:1;" d="M 33.335938 28.429688 C 33.335938 28.429688 32.03125 28.273438 31.992188 27.238281 C 31.992188 27.238281 32.109375 26.507812 33.40625 26.507812 L 33.617188 26.542969 C 33.617188 26.542969 34.777344 26.542969 34.742188 27.539062 C 34.742188 27.539062 34.867188 28.746094 33.335938 28.429688 M 36.667969 26.621094 C 36.707031 25.894531 36.078125 25.832031 36.078125 25.832031 L 36.042969 25.320312 L 36.007812 25.050781 C 35.902344 24.167969 34.8125 24.09375 34.8125 24.09375 C 30.121094 23.828125 29.96875 26.734375 29.96875 26.734375 C 29.894531 30.679688 33.617188 30.183594 33.617188 30.183594 C 34.246094 30.222656 33.832031 31.03125 33.832031 31.03125 C 32.453125 33.984375 28.703125 33.824219 28.703125 33.824219 C 27.402344 33.902344 28.386719 34.578125 28.386719 34.578125 C 29.261719 35.0625 30 35.089844 30 35.089844 C 32.738281 35.089844 33.652344 34.128906 33.652344 34.128906 C 37.078125 31.675781 36.667969 26.621094 36.667969 26.621094 "/>
<path style=" stroke:none;fill-rule:nonzero;fill:rgb(12.860107%,11.213684%,11.195374%);fill-opacity:1;" d="M 37.476562 26.851562 C 37.476562 26.851562 37.132812 24.667969 41.269531 22.558594 C 41.269531 22.558594 43.183594 21.179688 44.714844 22.445312 C 44.714844 22.445312 45.253906 23.023438 45.902344 23.164062 C 45.902344 23.164062 50.960938 25.210938 47.894531 30.492188 C 47.894531 30.492188 45.828125 33.203125 41.652344 32.710938 C 41.652344 32.710938 36.824219 32.257812 37.476562 26.851562 "/>
<path style=" stroke:none;fill-rule:nonzero;fill:rgb(68.89801%,85.630798%,9.75647%);fill-opacity:1;" d="M 45.941406 27.808594 C 45.941406 27.808594 45.519531 29.546875 43.09375 30.183594 C 43.09375 30.183594 42.4375 30.644531 41.113281 29.378906 C 41.113281 29.378906 39.40625 27.503906 41.863281 25.585938 L 42.039062 25.472656 C 42.039062 25.472656 43.03125 24.917969 43.566406 25.972656 L 43.875 26.007812 L 44.179688 26.007812 C 44.179688 26.007812 46.226562 25.394531 45.941406 27.808594 M 44.5 24.601562 L 42.953125 24.53125 C 40.769531 24.425781 39.652344 26.160156 39.652344 26.160156 L 39.582031 26.351562 C 39.160156 27.195312 39.199219 27.847656 39.199219 27.847656 C 39.351562 31.300781 43.339844 31.179688 43.339844 31.179688 C 46.921875 31.332031 47.320312 28.464844 47.320312 28.464844 C 47.972656 25.253906 44.5 24.601562 44.5 24.601562 "/>
<path style=" stroke:none;fill-rule:nonzero;fill:rgb(68.89801%,85.630798%,9.75647%);fill-opacity:1;" d="M 33.613281 20.882812 L 33.613281 20.53125 L 33.835938 20.300781 L 34.101562 20.070312 L 34.410156 19.878906 L 34.664062 19.800781 L 35.140625 19.800781 L 35.597656 19.839844 L 35.859375 19.992188 L 36.035156 20.183594 L 36.25 20.453125 L 36.441406 20.777344 L 36.519531 21.027344 L 36.519531 21.335938 L 36.285156 21.601562 L 36 21.898438 L 35.675781 21.96875 L 34.878906 21.96875 L 34.527344 21.898438 L 34.257812 21.753906 L 34.066406 21.601562 L 33.835938 21.371094 L 33.613281 20.882812 "/>
<path style=" stroke:none;fill-rule:nonzero;fill:rgb(68.89801%,85.630798%,9.75647%);fill-opacity:1;" d="M 37.054688 19.371094 L 37.054688 19.035156 L 37.160156 18.730469 L 37.441406 18.5 L 37.898438 18.316406 L 38.203125 18.246094 L 38.460938 18.28125 L 38.667969 18.5 L 38.894531 18.765625 L 38.929688 19.074219 L 38.738281 19.476562 L 38.460938 19.800781 L 38.164062 20.03125 L 37.78125 20.03125 L 37.40625 19.878906 L 37.195312 19.582031 L 37.054688 19.371094 "/>
<path style=" stroke:none;fill-rule:nonzero;fill:rgb(68.89801%,85.630798%,9.75647%);fill-opacity:1;" d="M 45.367188 17.925781 L 45.589844 18 L 45.941406 18.035156 L 46.25 17.960938 L 46.554688 17.808594 L 46.78125 17.617188 L 46.957031 17.347656 L 47.097656 17.019531 L 47.097656 16.542969 L 46.921875 16.238281 L 46.59375 16.125 L 45.902344 16.125 L 45.65625 16.238281 L 45.40625 16.429688 L 45.175781 16.660156 L 45.023438 16.949219 L 44.984375 17.234375 L 44.984375 17.539062 L 45.214844 17.695312 L 45.367188 17.925781 "/>
<path style=" stroke:none;fill-rule:nonzero;fill:rgb(68.89801%,85.630798%,9.75647%);fill-opacity:1;" d="M 49.625 22.074219 L 49.554688 22.40625 L 49.625 22.675781 L 49.847656 22.90625 L 50.15625 23.128906 L 50.574219 23.269531 L 50.925781 23.269531 L 51.304688 23.234375 L 51.613281 23.058594 L 51.875 22.828125 L 52.117188 22.484375 L 52.222656 22.144531 L 52.15625 21.828125 L 51.945312 21.527344 L 51.6875 21.335938 L 51.269531 21.144531 L 50.960938 21.066406 L 50.609375 21.105469 L 50.269531 21.296875 L 50.039062 21.410156 L 49.734375 21.753906 L 49.625 22.074219 "/>
<path style=" stroke:none;fill-rule:nonzero;fill:rgb(68.89801%,85.630798%,9.75647%);fill-opacity:1;" d="M 36.402344 35.980469 L 36.710938 36.121094 L 37.089844 36.199219 L 37.371094 36.199219 L 37.667969 35.945312 L 37.972656 35.625 L 38.203125 35.28125 L 38.242188 35.011719 L 38.242188 34.71875 L 37.898438 34.359375 L 37.476562 34.054688 L 37.230469 34.015625 L 36.785156 34.167969 L 36.554688 34.28125 L 36.289062 34.507812 L 36.140625 34.683594 L 36 35.011719 L 36 35.734375 L 36.402344 35.980469 "/>
<path style=" stroke:none;fill-rule:nonzero;fill:rgb(68.89801%,85.630798%,9.75647%);fill-opacity:1;" d="M 39.792969 36.964844 L 40.117188 37.105469 L 40.921875 37.105469 L 41.304688 37.035156 L 41.574219 36.890625 L 41.863281 36.582031 L 41.96875 36.277344 L 41.96875 35.910156 L 41.722656 35.703125 L 41.460938 35.46875 L 41.152344 35.394531 L 40.707031 35.316406 L 40.460938 35.46875 L 40.273438 35.625 L 40.003906 35.773438 L 39.828125 35.980469 L 39.757812 36.160156 L 39.6875 36.390625 L 39.652344 36.65625 L 39.792969 36.964844 "/>
<path style=" stroke:none;fill-rule:nonzero;fill:rgb(68.89801%,85.630798%,9.75647%);fill-opacity:1;" d="M 51.34375 31.675781 L 51.765625 31.714844 L 52.121094 31.753906 L 52.417969 31.714844 L 52.683594 31.601562 L 53.03125 31.410156 L 53.277344 31.179688 L 53.488281 30.925781 L 53.644531 30.714844 L 53.679688 30.339844 L 53.566406 30.03125 L 53.277344 29.765625 L 53.03125 29.484375 L 52.722656 29.300781 L 52.457031 29.1875 L 52.222656 29.148438 L 51.910156 29.148438 L 51.613281 29.1875 L 51.382812 29.300781 L 51.152344 29.449219 L 50.890625 29.625 L 50.75 29.992188 L 50.644531 30.296875 L 50.714844 30.644531 L 50.820312 30.960938 L 50.925781 31.257812 L 51.113281 31.484375 L 51.34375 31.675781 "/>
<path style=" stroke:none;fill-rule:nonzero;fill:rgb(68.89801%,85.630798%,9.75647%);fill-opacity:1;" d="M 44.429688 37.886719 L 44.464844 37.246094 L 44.867188 36.773438 L 45.328125 36.46875 L 45.695312 36.160156 L 46.210938 35.980469 L 46.59375 35.980469 L 46.921875 36.050781 L 47.28125 36.238281 L 47.628906 36.582031 L 48.011719 36.964844 L 48.257812 37.246094 L 48.398438 37.578125 L 48.546875 37.960938 L 48.546875 38.441406 L 48.328125 38.882812 L 48.011719 39.214844 L 47.472656 39.609375 L 46.886719 39.839844 L 46.363281 39.875 L 45.941406 39.875 L 45.550781 39.800781 L 45.175781 39.570312 L 44.792969 39.214844 L 44.570312 38.84375 L 44.5 38.472656 L 44.429688 37.886719 "/>
</g>
</svg>
