<?xml version="1.0" encoding="UTF-8"?>
<svg xmlns="http://www.w3.org/2000/svg" xmlns:xlink="http://www.w3.org/1999/xlink" width="56pt" height="56pt" viewBox="0 0 56 56" version="1.1">
<g id="surface1">
<rect x="0" y="0" width="56" height="56" style="fill:rgb(95.666504%,95.776367%,96.775818%);fill-opacity:1;stroke:none;"/>
<path style=" stroke:none;fill-rule:nonzero;fill:rgb(16.143799%,34.811401%,66.363525%);fill-opacity:1;" d="M 40.726562 37.59375 C 40.726562 34.363281 40.726562 31.222656 40.726562 28.027344 C 41.304688 27.902344 41.871094 27.785156 42.492188 27.652344 C 42.492188 30.34375 42.492188 32.960938 42.492188 35.59375 C 42.585938 35.605469 42.65625 35.640625 42.71875 35.621094 C 45.707031 34.859375 48.496094 32.558594 49.09375 29.28125 C 49.621094 26.363281 48.605469 23.972656 46.390625 22.070312 C 42.347656 18.597656 35.707031 19.308594 32.582031 23.535156 C 31.507812 24.984375 31.035156 26.617188 31.140625 28.417969 C 31.148438 28.558594 31.15625 28.703125 31.160156 28.84375 C 31.164062 28.878906 31.148438 28.914062 31.117188 29.023438 C 30.640625 29.125 30.128906 29.238281 29.476562 29.378906 C 29.476562 28.453125 29.367188 27.589844 29.496094 26.765625 C 30.175781 22.523438 32.785156 19.9375 36.761719 18.667969 C 41.292969 17.222656 46.230469 18.757812 49.058594 22.382812 C 51.929688 26.066406 51.449219 31.472656 47.984375 34.644531 C 46.15625 36.320312 44.011719 37.269531 41.570312 37.589844 C 41.308594 37.621094 41.042969 37.59375 40.726562 37.59375 "/>
<path style=" stroke:none;fill-rule:nonzero;fill:rgb(93.269348%,13.18512%,26.789856%);fill-opacity:1;" d="M 16.058594 31.140625 C 15.433594 31.140625 14.855469 31.140625 14.164062 31.140625 C 15.109375 29.214844 16.019531 27.367188 16.988281 25.390625 C 16.171875 25.621094 15.464844 25.777344 14.789062 26.019531 C 12.824219 26.726562 10.859375 27.4375 8.921875 28.207031 C 8.351562 28.433594 7.839844 28.828125 7.34375 29.207031 C 7.078125 29.410156 6.90625 29.742188 6.738281 29.957031 C 6.828125 30.542969 7.199219 30.742188 7.578125 30.816406 C 8.640625 31.027344 9.710938 31.28125 10.789062 31.332031 C 14.800781 31.53125 18.789062 31.195312 22.761719 30.675781 C 26.480469 30.1875 30.167969 29.503906 33.804688 28.582031 C 33.917969 28.550781 34.039062 28.546875 34.195312 28.65625 C 34.042969 28.707031 33.898438 28.773438 33.742188 28.8125 C 28.109375 30.238281 22.40625 31.296875 16.617188 31.839844 C 13.855469 32.097656 11.09375 32.292969 8.324219 32.023438 C 7.515625 31.945312 6.695312 31.773438 5.929688 31.507812 C 4.914062 31.152344 4.734375 30.285156 5.527344 29.550781 C 6.082031 29.039062 6.75 28.609375 7.425781 28.273438 C 9.953125 27.015625 12.667969 26.296875 15.375 25.566406 C 15.960938 25.410156 16.546875 25.257812 17.171875 25.09375 C 18.464844 22.386719 19.761719 19.683594 21.0625 16.964844 C 21.4375 16.964844 21.789062 16.964844 22.222656 16.964844 C 24.207031 21.132812 26.199219 25.316406 28.242188 29.617188 C 27.101562 29.816406 26.046875 29.996094 24.945312 30.1875 C 23.5625 27.21875 22.199219 24.296875 20.761719 21.214844 C 19.160156 24.589844 17.621094 27.835938 16.058594 31.140625 "/>
<path style=" stroke:none;fill-rule:nonzero;fill:rgb(93.269348%,13.18512%,26.789856%);fill-opacity:1;" d="M 50.964844 38.03125 C 50.964844 38.410156 50.964844 38.683594 50.964844 39.027344 C 42.328125 39.027344 33.726562 39.027344 25.082031 39.027344 C 25.082031 38.71875 25.082031 38.421875 25.082031 38.003906 C 25.628906 38.003906 26.160156 38.019531 26.691406 38.003906 C 28.164062 37.957031 28.371094 37.617188 27.757812 36.269531 C 27.011719 34.625 26.261719 32.984375 25.515625 31.34375 C 25.449219 31.199219 25.398438 31.050781 25.3125 30.832031 C 26.402344 30.621094 27.445312 30.417969 28.519531 30.210938 C 29.171875 31.574219 29.800781 32.894531 30.445312 34.210938 C 30.859375 35.058594 31.332031 35.882812 31.722656 36.746094 C 32.15625 37.707031 32.878906 38.035156 33.902344 38.03125 C 39.320312 38.011719 44.734375 38.027344 50.152344 38.03125 C 50.398438 38.03125 50.648438 38.03125 50.964844 38.03125 "/>
<path style=" stroke:none;fill-rule:nonzero;fill:rgb(16.143799%,34.811401%,66.363525%);fill-opacity:1;" d="M 29.640625 29.964844 C 30.238281 29.835938 30.734375 29.726562 31.273438 29.609375 C 32.28125 32.820312 34.476562 34.699219 37.65625 35.648438 C 37.65625 33.230469 37.65625 30.902344 37.65625 28.484375 C 38.21875 28.402344 38.769531 28.320312 39.386719 28.230469 C 39.386719 31.363281 39.386719 34.4375 39.386719 37.625 C 37.378906 37.515625 35.550781 36.914062 33.882812 35.824219 C 31.753906 34.429688 30.3125 32.53125 29.640625 29.964844 "/>
<path style=" stroke:none;fill-rule:nonzero;fill:rgb(93.269348%,13.18512%,26.789856%);fill-opacity:1;" d="M 15.617188 32.121094 C 15.46875 32.46875 15.355469 32.746094 15.234375 33.015625 C 14.714844 34.171875 14.160156 35.3125 13.675781 36.480469 C 13.253906 37.488281 13.457031 37.8125 14.53125 37.953125 C 15.128906 38.027344 15.730469 38.035156 16.378906 38.074219 C 16.378906 38.402344 16.378906 38.691406 16.378906 39.035156 C 13.703125 39.035156 11.054688 39.035156 8.359375 39.035156 C 8.359375 38.734375 8.359375 38.445312 8.359375 38.070312 C 8.699219 38.050781 9.046875 38.007812 9.394531 38.015625 C 10.175781 38.03125 10.730469 37.683594 11.089844 37.011719 C 11.816406 35.640625 12.535156 34.261719 13.261719 32.890625 C 13.371094 32.6875 13.492188 32.488281 13.621094 32.261719 C 14.261719 32.21875 14.894531 32.171875 15.617188 32.121094 "/>
<path style=" stroke:none;fill-rule:nonzero;fill:rgb(16.143799%,34.811401%,66.363525%);fill-opacity:1;" d="M 39.410156 20.667969 C 39.410156 22.785156 39.410156 24.703125 39.410156 26.660156 C 38.851562 26.84375 38.300781 27.023438 37.660156 27.230469 C 37.660156 25.191406 37.660156 23.226562 37.660156 21.136719 C 38.03125 20.945312 38.460938 20.757812 39.410156 20.667969 "/>
<path style=" stroke:none;fill-rule:nonzero;fill:rgb(16.143799%,34.811401%,66.363525%);fill-opacity:1;" d="M 40.730469 26.304688 C 40.730469 24.445312 40.730469 22.515625 40.730469 20.667969 C 41.25 20.703125 41.949219 20.730469 42.511719 21.078125 C 42.511719 22.652344 42.503906 24.351562 42.503906 25.953125 C 41.914062 26.070312 41.359375 26.179688 40.730469 26.304688 "/>
<path style=" stroke:none;fill-rule:nonzero;fill:rgb(93.269348%,13.18512%,26.789856%);fill-opacity:1;" d="M 36.941406 27.765625 C 38.078125 27.414062 39.226562 27.03125 40.398438 26.714844 C 41.671875 26.367188 42.964844 26.078125 44.304688 26.199219 C 44.523438 26.21875 44.738281 26.300781 44.984375 26.359375 C 44.351562 27.144531 38.054688 28.425781 35.886719 28.242188 C 35.566406 27.699219 35.226562 27.125 34.886719 26.546875 C 34.925781 26.503906 34.96875 26.460938 35.007812 26.417969 C 35.890625 26.488281 36.203125 27.449219 36.941406 27.765625 "/>
</g>
</svg>
