<?xml version="1.0" encoding="UTF-8"?>
<svg xmlns="http://www.w3.org/2000/svg" xmlns:xlink="http://www.w3.org/1999/xlink" width="56pt" height="56pt" viewBox="0 0 56 56" version="1.1">
<g id="surface1">
<rect x="0" y="0" width="56" height="56" style="fill:rgb(95.66803%,95.779419%,96.777344%);fill-opacity:1;stroke:none;"/>
<path style=" stroke:none;fill-rule:nonzero;fill:rgb(88.945007%,11.39679%,14.421082%);fill-opacity:1;" d="M 17.46875 37.859375 C 17.226562 38.332031 16.984375 38.808594 16.734375 39.28125 C 16.398438 39.921875 16.050781 40.5625 15.707031 41.203125 C 15.472656 41.644531 15.21875 42.078125 15 42.527344 C 14.90625 42.726562 14.78125 42.777344 14.574219 42.773438 C 13.785156 42.761719 13 42.765625 12.210938 42.765625 C 10.261719 42.765625 8.308594 42.765625 6.355469 42.765625 C 6.292969 42.765625 6.230469 42.765625 6.132812 42.765625 C 6.324219 42.40625 6.503906 42.074219 6.683594 41.742188 C 7.082031 41.011719 7.480469 40.28125 7.875 39.546875 C 8.367188 38.648438 8.859375 37.75 9.347656 36.847656 C 9.710938 36.171875 10.070312 35.492188 10.433594 34.816406 C 11.105469 33.578125 11.78125 32.34375 12.453125 31.101562 C 13.21875 29.6875 13.980469 28.265625 14.746094 26.847656 C 15.273438 25.871094 15.804688 24.898438 16.335938 23.925781 C 16.925781 22.835938 17.511719 21.746094 18.101562 20.65625 C 18.765625 19.4375 19.425781 18.21875 20.085938 17 C 20.675781 15.910156 21.265625 14.820312 21.855469 13.730469 C 21.941406 13.574219 22.035156 13.417969 22.144531 13.226562 C 22.25 13.398438 22.347656 13.542969 22.429688 13.695312 C 23.050781 14.820312 23.660156 15.941406 24.28125 17.0625 C 24.890625 18.167969 25.507812 19.265625 26.121094 20.367188 C 26.503906 21.054688 26.878906 21.75 27.261719 22.441406 C 27.765625 23.347656 28.273438 24.25 28.773438 25.15625 C 29.136719 25.808594 29.492188 26.464844 29.855469 27.121094 C 30.519531 28.328125 31.1875 29.53125 31.855469 30.734375 C 32.519531 31.941406 33.1875 33.144531 33.855469 34.351562 C 33.949219 34.519531 34.050781 34.679688 34.140625 34.851562 C 34.183594 34.933594 34.203125 35.03125 34.234375 35.121094 C 34.222656 35.269531 34.105469 35.339844 34.011719 35.421875 C 33.800781 35.601562 33.585938 35.773438 33.371094 35.949219 C 33.070312 36.203125 32.785156 36.476562 32.464844 36.707031 C 31.8125 37.1875 31.15625 37.664062 30.441406 38.0625 C 29.839844 38.394531 29.234375 38.703125 28.585938 38.921875 C 28.265625 39.027344 27.949219 39.144531 27.605469 39.140625 C 27.484375 38.914062 27.363281 38.691406 27.242188 38.46875 C 26.644531 37.359375 26.046875 36.253906 25.453125 35.144531 C 25.109375 34.503906 24.769531 33.863281 24.425781 33.222656 C 23.914062 32.277344 23.402344 31.332031 22.886719 30.382812 C 22.667969 29.980469 22.449219 29.578125 22.21875 29.15625 C 22.171875 29.21875 22.136719 29.257812 22.113281 29.300781 C 21.746094 29.976562 21.378906 30.652344 21.019531 31.328125 C 20.308594 32.65625 19.601562 33.980469 18.890625 35.308594 C 18.476562 36.089844 18.058594 36.871094 17.644531 37.652344 C 17.460938 37.664062 17.460938 37.664062 17.46875 37.859375 "/>
<path style=" stroke:none;fill-rule:nonzero;fill:rgb(16.462708%,23.316956%,59.405518%);fill-opacity:1;" d="M 36.164062 33.257812 C 35.957031 32.886719 35.742188 32.515625 35.539062 32.140625 C 34.980469 31.113281 34.425781 30.078125 33.871094 29.050781 C 33.859375 29.03125 33.839844 29.023438 33.804688 28.992188 C 33.570312 29.441406 33.335938 29.886719 33.085938 30.367188 C 32.980469 30.1875 32.882812 30.035156 32.800781 29.882812 C 32.359375 29.078125 31.929688 28.269531 31.488281 27.464844 C 30.9375 26.464844 30.382812 25.472656 29.832031 24.472656 C 29.527344 23.921875 29.234375 23.367188 28.929688 22.816406 C 28.824219 22.628906 28.820312 22.46875 28.929688 22.277344 C 29.488281 21.28125 30.039062 20.285156 30.589844 19.285156 C 30.910156 18.699219 31.222656 18.101562 31.546875 17.515625 C 32.109375 16.488281 32.675781 15.460938 33.242188 14.433594 C 33.429688 14.089844 33.609375 13.738281 33.8125 13.363281 C 33.867188 13.441406 33.910156 13.492188 33.945312 13.554688 C 34.59375 14.742188 35.242188 15.929688 35.890625 17.117188 C 36.21875 17.726562 36.539062 18.339844 36.871094 18.949219 C 37.425781 19.957031 37.984375 20.960938 38.539062 21.972656 C 38.832031 22.503906 39.113281 23.042969 39.402344 23.574219 C 40.054688 24.773438 40.710938 25.96875 41.363281 27.167969 C 41.59375 27.597656 41.824219 28.03125 42.054688 28.460938 C 41.695312 28.644531 41.320312 28.804688 40.976562 29.015625 C 40.105469 29.542969 39.316406 30.183594 38.574219 30.882812 C 38.121094 31.308594 37.683594 31.757812 37.242188 32.199219 C 36.882812 32.550781 36.523438 32.90625 36.164062 33.257812 "/>
<path style=" stroke:none;fill-rule:nonzero;fill:rgb(95.941162%,62.541199%,11.450195%);fill-opacity:1;" d="M 36.164062 33.257812 C 36.523438 32.90625 36.882812 32.550781 37.242188 32.199219 C 37.683594 31.757812 38.121094 31.308594 38.574219 30.882812 C 39.316406 30.183594 40.105469 29.542969 40.976562 29.015625 C 41.320312 28.804688 41.695312 28.644531 42.054688 28.460938 C 42.296875 28.394531 42.539062 28.320312 42.785156 28.269531 C 43.039062 28.214844 43.300781 28.15625 43.5625 28.148438 C 44.1875 28.132812 44.8125 28.140625 45.4375 28.148438 C 45.636719 28.152344 45.835938 28.195312 46.042969 28.21875 C 45.695312 28.371094 45.347656 28.496094 45.019531 28.664062 C 44.558594 28.90625 44.117188 29.183594 43.726562 29.535156 C 43.484375 29.753906 43.253906 29.992188 43.015625 30.21875 C 42.9375 30.289062 42.851562 30.351562 42.78125 30.433594 C 42.371094 30.898438 41.992188 31.386719 41.660156 31.910156 C 41.175781 32.6875 40.699219 33.46875 40.222656 34.25 C 39.605469 35.269531 38.980469 36.285156 38.296875 37.265625 C 37.820312 37.808594 37.34375 38.355469 36.867188 38.894531 C 36.796875 38.972656 36.703125 39.027344 36.628906 39.105469 C 36.589844 39.144531 36.578125 39.210938 36.550781 39.265625 C 36.496094 39.289062 36.429688 39.304688 36.382812 39.34375 C 35.941406 39.707031 35.507812 40.078125 35.023438 40.390625 C 34.257812 40.886719 33.445312 41.285156 32.59375 41.59375 C 31.746094 41.902344 30.875 42.148438 29.972656 42.257812 C 29.789062 42.28125 29.609375 42.339844 29.425781 42.382812 C 29.019531 42.359375 28.621094 42.445312 28.222656 42.496094 C 28.148438 42.507812 28.074219 42.503906 28 42.503906 C 27.363281 42.507812 26.726562 42.519531 26.09375 42.5 C 25.753906 42.488281 25.417969 42.425781 25.085938 42.382812 C 24.78125 42.34375 24.476562 42.300781 24.175781 42.25 C 23.707031 42.171875 23.25 42.054688 22.792969 41.929688 C 22.011719 41.710938 21.257812 41.421875 20.539062 41.035156 C 19.996094 40.742188 19.484375 40.40625 19.027344 39.984375 C 18.726562 39.707031 18.457031 39.414062 18.214844 39.089844 C 17.980469 38.773438 17.789062 38.433594 17.632812 38.078125 C 17.597656 37.996094 17.527344 37.929688 17.46875 37.859375 C 17.460938 37.664062 17.460938 37.664062 17.644531 37.652344 C 17.703125 37.671875 17.761719 37.691406 17.820312 37.714844 C 18.328125 37.921875 18.832031 38.132812 19.339844 38.335938 C 19.925781 38.566406 20.527344 38.765625 21.140625 38.914062 C 21.609375 39.027344 22.078125 39.144531 22.558594 39.222656 C 23.203125 39.328125 23.84375 39.410156 24.492188 39.402344 C 25.003906 39.394531 25.519531 39.425781 26.03125 39.351562 C 26.367188 39.300781 26.707031 39.285156 27.039062 39.214844 C 27.226562 39.175781 27.417969 39.164062 27.605469 39.140625 C 27.949219 39.144531 28.265625 39.027344 28.585938 38.921875 C 29.234375 38.703125 29.839844 38.394531 30.441406 38.0625 C 31.15625 37.664062 31.8125 37.1875 32.464844 36.707031 C 32.785156 36.476562 33.070312 36.203125 33.371094 35.949219 C 33.585938 35.773438 33.800781 35.601562 34.011719 35.421875 C 34.105469 35.339844 34.222656 35.269531 34.234375 35.121094 C 34.289062 35.097656 34.355469 35.085938 34.398438 35.046875 C 34.867188 34.601562 35.339844 34.15625 35.800781 33.699219 C 35.933594 33.566406 36.042969 33.40625 36.164062 33.257812 "/>
<path style=" stroke:none;fill-rule:nonzero;fill:rgb(16.462708%,23.316956%,59.405518%);fill-opacity:1;" d="M 38.296875 37.265625 C 38.980469 36.285156 39.605469 35.269531 40.222656 34.25 C 40.699219 33.46875 41.175781 32.6875 41.660156 31.910156 C 41.992188 31.386719 42.371094 30.898438 42.78125 30.433594 C 42.851562 30.351562 42.9375 30.289062 43.015625 30.21875 C 43.292969 30.722656 43.574219 31.226562 43.851562 31.730469 C 44.410156 32.746094 44.972656 33.765625 45.53125 34.785156 C 45.855469 35.382812 46.175781 35.984375 46.503906 36.582031 C 47.085938 37.648438 47.671875 38.714844 48.253906 39.78125 C 48.710938 40.613281 49.160156 41.445312 49.613281 42.28125 C 49.695312 42.429688 49.777344 42.582031 49.867188 42.75 C 47.019531 42.75 44.179688 42.75 41.316406 42.75 C 41.101562 42.507812 40.980469 42.1875 40.816406 41.890625 C 40.277344 40.910156 39.753906 39.921875 39.21875 38.9375 C 38.917969 38.378906 38.605469 37.820312 38.296875 37.265625 "/>
<path style=" stroke:none;fill-rule:nonzero;fill:rgb(88.945007%,11.39679%,14.421082%);fill-opacity:1;" d="M 29.425781 42.382812 C 29.609375 42.339844 29.789062 42.28125 29.972656 42.257812 C 30.875 42.148438 31.746094 41.902344 32.59375 41.59375 C 33.445312 41.285156 34.257812 40.886719 35.023438 40.390625 C 35.507812 40.078125 35.941406 39.707031 36.382812 39.34375 C 36.429688 39.304688 36.496094 39.289062 36.550781 39.265625 C 36.871094 39.832031 37.195312 40.394531 37.511719 40.957031 C 37.839844 41.542969 38.160156 42.132812 38.503906 42.75 C 38.394531 42.757812 38.300781 42.765625 38.210938 42.765625 C 35.464844 42.765625 32.71875 42.765625 29.972656 42.765625 C 29.582031 42.765625 29.582031 42.765625 29.425781 42.382812 "/>
</g>
</svg>
