<?xml version="1.0" encoding="UTF-8"?>
<svg xmlns="http://www.w3.org/2000/svg" xmlns:xlink="http://www.w3.org/1999/xlink" width="56pt" height="56pt" viewBox="0 0 56 56" version="1.1">
<g id="surface1">
<rect x="0" y="0" width="56" height="56" style="fill:rgb(95.666504%,95.776367%,96.775818%);fill-opacity:1;stroke:none;"/>
<path style=" stroke:none;fill-rule:nonzero;fill:rgb(6.266785%,5.734253%,5.047607%);fill-opacity:1;" d="M 46.097656 47.148438 C 45.894531 47.679688 45.1875 47.84375 44.421875 47.84375 C 43.660156 47.84375 43.171875 47.679688 43.285156 47.148438 L 44.257812 47.148438 C 44.230469 47.292969 44.316406 47.382812 44.601562 47.382812 C 44.890625 47.382812 45.074219 47.289062 45.128906 47.148438 C 45.261719 46.800781 43.34375 47.140625 43.648438 46.34375 C 43.820312 45.902344 44.492188 45.691406 45.253906 45.691406 C 46.011719 45.691406 46.441406 45.855469 46.347656 46.34375 L 45.402344 46.34375 C 45.414062 46.214844 45.375 46.113281 45.089844 46.113281 C 44.804688 46.113281 44.648438 46.214844 44.597656 46.34375 C 44.464844 46.699219 46.402344 46.355469 46.097656 47.148438 "/>
<path style=" stroke:none;fill-rule:nonzero;fill:rgb(6.266785%,5.734253%,5.047607%);fill-opacity:1;" d="M 29.140625 47.785156 L 28.175781 47.785156 L 28.953125 45.753906 L 29.921875 45.753906 L 29.140625 47.785156 "/>
<path style=" stroke:none;fill-rule:nonzero;fill:rgb(6.266785%,5.734253%,5.047607%);fill-opacity:1;" d="M 36.46875 47.785156 L 35.503906 47.785156 L 36.28125 45.753906 L 37.253906 45.753906 L 36.46875 47.785156 "/>
<path style=" stroke:none;fill-rule:nonzero;fill:rgb(6.266785%,5.734253%,5.047607%);fill-opacity:1;" d="M 42.714844 47.785156 L 40.355469 47.785156 L 41.136719 45.753906 L 43.492188 45.753906 L 43.34375 46.144531 L 41.953125 46.144531 L 41.796875 46.550781 L 42.953125 46.550781 L 42.800781 46.945312 L 41.648438 46.945312 L 41.488281 47.355469 L 42.878906 47.355469 L 42.714844 47.785156 "/>
<path style=" stroke:none;fill-rule:nonzero;fill:rgb(6.266785%,5.734253%,5.047607%);fill-opacity:1;" d="M 23.460938 47.785156 L 22.679688 47.785156 L 22.019531 46.585938 L 21.558594 47.785156 L 20.777344 47.785156 L 21.554688 45.753906 L 22.46875 45.753906 L 23.046875 46.820312 L 23.457031 45.753906 L 24.238281 45.753906 L 23.460938 47.785156 "/>
<path style=" stroke:none;fill-rule:nonzero;fill:rgb(6.266785%,5.734253%,5.047607%);fill-opacity:1;" d="M 39.757812 47.785156 L 38.96875 47.785156 L 38.316406 46.585938 L 37.855469 47.785156 L 37.070312 47.785156 L 37.851562 45.753906 L 38.761719 45.753906 L 39.339844 46.820312 L 39.753906 45.753906 L 40.535156 45.753906 L 39.757812 47.785156 "/>
<path style=" stroke:none;fill-rule:nonzero;fill:rgb(6.266785%,5.734253%,5.047607%);fill-opacity:1;" d="M 11.699219 47.105469 C 11.429688 47.796875 10.777344 47.855469 10.308594 47.855469 C 10.050781 47.855469 9.824219 47.824219 9.636719 47.785156 L 9.804688 47.355469 C 10.246094 47.40625 10.628906 47.367188 10.777344 46.980469 L 11.246094 45.753906 L 12.214844 45.753906 L 11.699219 47.105469 "/>
<path style=" stroke:none;fill-rule:nonzero;fill:rgb(6.266785%,5.734253%,5.047607%);fill-opacity:1;" d="M 17.257812 46.402344 C 17.195312 46.550781 17.015625 46.65625 16.839844 46.65625 L 16.300781 46.65625 L 16.496094 46.144531 L 17.035156 46.144531 C 17.210938 46.144531 17.3125 46.253906 17.257812 46.402344 M 17.183594 45.753906 L 15.679688 45.753906 L 14.898438 47.785156 L 15.867188 47.785156 L 16.152344 47.046875 L 16.6875 47.046875 C 17.585938 47.046875 18.066406 46.808594 18.222656 46.402344 C 18.378906 45.992188 18.082031 45.753906 17.183594 45.753906 "/>
<path style=" stroke:none;fill-rule:nonzero;fill:rgb(6.266785%,5.734253%,5.047607%);fill-opacity:1;" d="M 32.097656 46.402344 C 32.039062 46.550781 31.855469 46.65625 31.683594 46.65625 L 31.144531 46.65625 L 31.34375 46.144531 L 31.878906 46.144531 C 32.054688 46.144531 32.152344 46.253906 32.097656 46.402344 M 32.027344 45.753906 L 30.523438 45.753906 L 29.746094 47.785156 L 30.710938 47.785156 L 30.996094 47.046875 L 31.285156 47.046875 L 31.476562 47.785156 L 32.535156 47.785156 L 32.277344 46.972656 C 32.707031 46.875 32.960938 46.675781 33.066406 46.402344 C 33.222656 45.992188 32.925781 45.753906 32.027344 45.753906 "/>
<path style=" stroke:none;fill-rule:nonzero;fill:rgb(6.266785%,5.734253%,5.047607%);fill-opacity:1;" d="M 34.152344 47.355469 L 34.769531 45.753906 L 33.796875 45.753906 L 33.019531 47.785156 L 35.21875 47.785156 L 35.382812 47.355469 L 34.152344 47.355469 "/>
<path style=" stroke:none;fill-rule:nonzero;fill:rgb(6.266785%,5.734253%,5.047607%);fill-opacity:1;" d="M 13.109375 46.996094 L 13.632812 46.34375 L 13.65625 46.996094 Z M 14.460938 45.753906 L 13.59375 45.753906 C 13.488281 45.753906 13.375 45.816406 13.296875 45.90625 L 11.671875 47.785156 L 12.472656 47.785156 L 12.792969 47.386719 L 13.667969 47.386719 L 13.683594 47.785156 L 14.65625 47.785156 L 14.460938 45.753906 "/>
<path style=" stroke:none;fill-rule:nonzero;fill:rgb(6.266785%,5.734253%,5.047607%);fill-opacity:1;" d="M 18.988281 46.996094 L 19.507812 46.34375 L 19.53125 46.996094 Z M 20.339844 45.753906 L 19.46875 45.753906 C 19.363281 45.753906 19.25 45.816406 19.171875 45.90625 L 17.550781 47.785156 L 18.351562 47.785156 L 18.671875 47.386719 L 19.546875 47.386719 L 19.5625 47.785156 L 20.53125 47.785156 L 20.339844 45.753906 "/>
<path style=" stroke:none;fill-rule:nonzero;fill:rgb(6.266785%,5.734253%,5.047607%);fill-opacity:1;" d="M 26.382812 46.996094 L 26.90625 46.34375 L 26.929688 46.996094 Z M 27.734375 45.753906 L 26.867188 45.753906 C 26.761719 45.753906 26.644531 45.816406 26.570312 45.90625 L 24.949219 47.785156 L 25.746094 47.785156 L 26.070312 47.386719 L 26.941406 47.386719 L 26.957031 47.785156 L 27.929688 47.785156 L 27.734375 45.753906 "/>
<path style=" stroke:none;fill-rule:nonzero;fill:rgb(80.491638%,11.77063%,14.529419%);fill-opacity:1;" d="M 28.40625 34.488281 L 29.65625 34.488281 L 29.601562 33 Z M 28.40625 34.488281 "/>
<path style=" stroke:none;fill-rule:nonzero;fill:rgb(80.491638%,11.77063%,14.529419%);fill-opacity:1;" d="M 35.527344 26.472656 C 32.203125 29.710938 27.230469 27.644531 27.734375 23.667969 C 28.125 20.601562 31.882812 17.550781 34.726562 15.894531 C 34.738281 15.886719 34.738281 15.871094 34.730469 15.859375 C 34.355469 15.507812 33.585938 14.703125 33.085938 14.101562 C 31.707031 12.441406 29.292969 12.375 27.855469 14.195312 L 19.675781 14.957031 C 19.644531 14.957031 19.644531 15.003906 19.675781 15.007812 L 28.445312 15.511719 C 30.003906 15.601562 30.507812 17.011719 29.007812 18.148438 C 23.441406 22.367188 22.445312 26.832031 23.691406 30.375 C 23.699219 30.398438 23.664062 30.414062 23.648438 30.394531 C 23.136719 29.667969 22.753906 28.785156 22.546875 27.851562 C 19.871094 26.171875 17.699219 22.96875 17.699219 19.023438 C 17.699219 13.277344 22.382812 8.550781 28.167969 8.550781 C 33.960938 8.550781 38.640625 13.277344 38.640625 19.023438 C 38.640625 22.128906 37.277344 24.765625 35.527344 26.472656 M 37.574219 36.296875 L 32.539062 36.296875 L 34.324219 31.644531 L 36.539062 31.644531 L 35.128906 35.308594 L 37.953125 35.308594 Z M 29.722656 36.296875 L 29.691406 35.382812 L 27.6875 35.382812 L 26.949219 36.296875 L 25.117188 36.296875 L 28.832031 31.992188 C 29.011719 31.785156 29.273438 31.644531 29.515625 31.644531 L 31.496094 31.644531 L 31.941406 36.296875 Z M 22.132812 36.453125 C 21.535156 36.453125 21.019531 36.390625 20.589844 36.296875 L 20.96875 35.308594 C 21.984375 35.429688 22.855469 35.339844 23.195312 34.453125 L 24.273438 31.644531 L 26.488281 31.644531 L 25.304688 34.738281 C 24.695312 36.320312 23.199219 36.453125 22.132812 36.453125 M 44.371094 25.84375 C 44.476562 24.8125 44.449219 23.335938 44.289062 22.246094 C 44.289062 22.226562 44.265625 22.226562 44.261719 22.246094 C 43.929688 23.832031 42.902344 25.976562 40.6875 27.726562 C 40.667969 27.742188 40.644531 27.71875 40.664062 27.695312 C 42.605469 25.621094 43.765625 23.066406 43.945312 20.433594 C 43.578125 18.984375 43.011719 17.582031 42.292969 16.34375 C 42.285156 16.328125 42.265625 16.332031 42.269531 16.351562 C 42.664062 19.015625 42.03125 22.527344 39.453125 25.378906 C 39.433594 25.394531 39.40625 25.375 39.421875 25.351562 C 41.644531 22.152344 42.222656 18.253906 41.253906 14.75 C 38.292969 10.746094 33.535156 8.148438 28.167969 8.148438 C 22.804688 8.148438 18.046875 10.746094 15.085938 14.75 C 14.117188 18.253906 14.695312 22.152344 16.917969 25.351562 C 16.933594 25.375 16.90625 25.394531 16.886719 25.378906 C 14.304688 22.527344 13.675781 19.015625 14.070312 16.351562 C 14.074219 16.332031 14.054688 16.328125 14.046875 16.34375 C 13.332031 17.582031 12.761719 18.984375 12.398438 20.433594 C 12.578125 23.066406 13.734375 25.621094 15.675781 27.695312 C 15.695312 27.71875 15.671875 27.742188 15.652344 27.726562 C 13.4375 25.976562 12.410156 23.832031 12.078125 22.246094 C 12.074219 22.226562 12.050781 22.226562 12.050781 22.246094 C 11.890625 23.335938 11.863281 24.8125 11.96875 25.84375 C 12.527344 27.59375 13.722656 29.066406 14.945312 30.125 C 14.96875 30.144531 14.945312 30.171875 14.921875 30.15625 C 13.558594 29.308594 12.792969 28.476562 12.273438 27.742188 C 12.261719 27.726562 12.246094 27.734375 12.25 27.753906 C 13.75 35.054688 20.296875 40.675781 28.167969 40.675781 C 36.042969 40.675781 42.589844 35.054688 44.089844 27.753906 C 44.09375 27.734375 44.078125 27.726562 44.066406 27.742188 C 43.546875 28.476562 42.78125 29.308594 41.414062 30.15625 C 41.394531 30.171875 41.375 30.144531 41.394531 30.125 C 42.617188 29.066406 43.8125 27.59375 44.371094 25.84375 "/>
</g>
</svg>
