<?xml version="1.0" encoding="UTF-8"?>
<svg xmlns="http://www.w3.org/2000/svg" xmlns:xlink="http://www.w3.org/1999/xlink" width="56pt" height="56pt" viewBox="0 0 56 56" version="1.1">
<g id="surface1">
<rect x="0" y="0" width="56" height="56" style="fill:rgb(24.737549%,41.433716%,52.488708%);fill-opacity:1;stroke:none;"/>
<path style=" stroke:none;fill-rule:nonzero;fill:rgb(100%,100%,100%);fill-opacity:1;" d="M 38.078125 23.125 C 37.671875 23.320312 37.472656 23.691406 37.28125 24.0625 C 37.132812 24.355469 37.027344 24.671875 36.886719 25.015625 C 37.097656 25.214844 37.304688 25.40625 37.507812 25.601562 C 38.121094 26.191406 38.773438 26.75 39.195312 27.507812 C 39.386719 27.851562 39.582031 28.195312 39.714844 28.5625 C 39.996094 29.347656 40.25 30.144531 40.484375 30.949219 C 40.570312 31.234375 40.703125 31.414062 40.988281 31.5 C 41.226562 31.570312 41.457031 31.664062 41.703125 31.753906 C 41.679688 32.683594 41.363281 33.476562 40.839844 34.195312 C 40.28125 34.957031 39.53125 35.480469 38.675781 35.84375 C 37.921875 36.164062 37.148438 36.433594 36.367188 36.675781 C 35.992188 36.792969 35.738281 36.953125 35.699219 37.359375 C 36.609375 37.402344 39.46875 36.488281 41.113281 35.566406 C 41.289062 35.742188 41.480469 35.921875 41.65625 36.113281 C 42.125 36.617188 42.570312 37.140625 43.050781 37.628906 C 43.9375 38.535156 45.03125 39.101562 46.234375 39.453125 C 47.472656 39.816406 48.738281 39.878906 50.011719 39.707031 C 50.597656 39.625 51.179688 39.46875 51.765625 39.363281 C 52.089844 39.304688 52.421875 39.277344 52.761719 39.234375 C 52.867188 39.59375 52.722656 39.808594 52.46875 39.9375 C 52.28125 40.035156 52.066406 40.097656 51.851562 40.132812 C 50.085938 40.417969 48.304688 40.523438 46.519531 40.613281 C 42.304688 40.828125 38.128906 40.433594 33.96875 39.832031 C 32.449219 39.609375 30.945312 39.28125 29.433594 39 C 28.273438 38.785156 27.132812 38.484375 25.980469 38.226562 C 24.335938 37.859375 22.691406 37.460938 21.070312 36.996094 C 19.832031 36.640625 18.585938 36.34375 17.332031 36.074219 C 16.664062 35.925781 15.976562 35.855469 15.300781 35.742188 C 13.902344 35.503906 12.496094 35.289062 11.105469 35.011719 C 9.863281 34.765625 8.628906 34.464844 7.40625 34.140625 C 6.535156 33.910156 5.6875 33.609375 4.832031 33.328125 C 4.417969 33.1875 4.351562 33.0625 4.34375 32.523438 C 4.667969 32.519531 5 32.472656 5.320312 32.515625 C 5.984375 32.597656 6.640625 32.71875 7.300781 32.835938 C 7.773438 32.917969 8.246094 33.003906 8.710938 33.121094 C 9.316406 33.28125 9.84375 33.085938 10.324219 32.769531 C 10.992188 32.328125 11.660156 32.265625 12.410156 32.539062 C 13.566406 32.957031 14.683594 33.460938 15.820312 33.917969 C 16.953125 34.375 18.09375 34.78125 19.296875 35.03125 C 20.046875 35.1875 20.796875 35.183594 21.542969 35.191406 C 22.753906 35.207031 23.945312 35.074219 25.117188 34.757812 C 26.355469 34.425781 27.410156 33.777344 28.351562 32.933594 C 29.023438 32.335938 29.601562 31.660156 30.035156 30.867188 C 30.605469 29.828125 30.878906 28.738281 30.660156 27.550781 C 30.523438 26.789062 30.203125 26.167969 29.488281 25.785156 C 29.015625 25.535156 28.570312 25.234375 28.109375 24.964844 C 27.722656 24.742188 27.570312 24.425781 27.597656 23.976562 C 27.640625 23.363281 27.800781 22.804688 28.152344 22.289062 C 28.929688 21.148438 29.84375 20.140625 30.980469 19.335938 C 31.914062 18.675781 32.96875 18.324219 34.066406 18.085938 C 34.949219 17.890625 35.847656 17.753906 36.710938 17.503906 C 39.097656 16.816406 41.398438 15.921875 43.480469 14.527344 C 43.78125 14.324219 44.132812 14.195312 44.460938 14.023438 C 44.550781 13.972656 44.632812 13.898438 44.71875 13.835938 C 44.820312 13.847656 44.921875 13.859375 45.019531 13.867188 C 44.890625 14.492188 44.511719 14.984375 44.117188 15.460938 C 43.8125 15.832031 43.492188 16.195312 43.175781 16.5625 C 42.796875 17 42.566406 17.503906 42.445312 18.070312 C 42.292969 18.769531 42.042969 19.414062 41.589844 19.988281 C 41.316406 20.335938 41.09375 20.742188 40.925781 21.15625 C 40.695312 21.746094 40.28125 22.109375 39.71875 22.34375 C 39.246094 22.546875 38.773438 22.75 38.300781 22.960938 C 38.214844 23 38.144531 23.078125 38.066406 23.136719 L 38.078125 23.125 "/>
<path style=" stroke:none;fill-rule:nonzero;fill:rgb(100%,100%,100%);fill-opacity:1;" d="M 38.066406 23.136719 C 38.078125 23.144531 38.089844 23.152344 38.101562 23.15625 C 38.09375 23.148438 38.085938 23.136719 38.078125 23.125 L 38.066406 23.136719 "/>
</g>
</svg>
