<?xml version="1.0" encoding="UTF-8"?>
<svg xmlns="http://www.w3.org/2000/svg" xmlns:xlink="http://www.w3.org/1999/xlink" width="56pt" height="56pt" viewBox="0 0 56 56" version="1.1">
<g id="surface1">
<rect x="0" y="0" width="56" height="56" style="fill:rgb(95.66803%,95.779419%,96.777344%);fill-opacity:1;stroke:none;"/>
<path style=" stroke:none;fill-rule:nonzero;fill:rgb(13.941956%,18.110657%,37.835693%);fill-opacity:1;" d="M 25.136719 46.746094 C 20.347656 46.71875 16.851562 45.546875 14.636719 43.15625 C 12.53125 40.90625 11.476562 38.300781 11.476562 35.335938 C 11.476562 32.839844 12.15625 30.375 13.511719 27.945312 L 16.40625 23.824219 C 18.511719 20.964844 21.582031 17.929688 25.617188 14.71875 C 19.867188 14.359375 15.78125 14 12.585938 15.421875 L 10.890625 9.789062 C 11.921875 9.433594 13.40625 9.253906 15.335938 9.253906 C 16.191406 9.253906 19.101562 9.40625 24.0625 9.710938 C 29.027344 10.015625 32.902344 10.164062 35.683594 10.164062 C 38.113281 10.164062 41.253906 9.988281 45.109375 9.628906 L 41.253906 14.609375 C 38.113281 14.789062 34.84375 14.878906 31.453125 14.878906 C 25.847656 17.128906 21.5625 20.164062 18.601562 23.984375 L 16.296875 27.894531 C 15.832031 28.679688 15.601562 29.820312 15.601562 31.320312 C 15.601562 32.925781 15.992188 34.425781 16.78125 35.820312 C 17.992188 37.996094 19.8125 39.949219 22.5625 40.746094 C 25.425781 41.578125 28.867188 46.761719 25.136719 46.746094 "/>
</g>
</svg>
