<?xml version="1.0" encoding="UTF-8"?>
<svg xmlns="http://www.w3.org/2000/svg" xmlns:xlink="http://www.w3.org/1999/xlink" width="56pt" height="56pt" viewBox="0 0 56 56" version="1.1">
<g id="surface1">
<rect x="0" y="0" width="56" height="56" style="fill:rgb(95.66803%,95.779419%,96.777344%);fill-opacity:1;stroke:none;"/>
<path style=" stroke:none;fill-rule:nonzero;fill:rgb(17.042542%,22.619629%,57.019043%);fill-opacity:1;" d="M 23.335938 36.199219 C 20.378906 32.023438 13.289062 22.863281 21.351562 10.492188 C 18.429688 21.871094 30.59375 26.417969 32.363281 36.699219 C 31.984375 23.832031 16.195312 20.492188 24.804688 5.320312 C 22.386719 13.652344 31.667969 23.949219 34.214844 28.535156 C 35.511719 30.542969 35.914062 32.519531 35.855469 35.320312 C 36.722656 32.304688 36.65625 30.027344 35.519531 27.9375 C 37.636719 26.054688 41.230469 25.464844 43.726562 28.976562 C 36.285156 30.09375 38.835938 41.707031 28 45.882812 C 30.933594 42.078125 29.019531 35.5 27.054688 32.722656 C 24.78125 29.503906 21.167969 26 21.265625 22.605469 C 20.789062 26.699219 23.792969 30.019531 26.171875 33.382812 C 28.488281 36.652344 32.425781 48.601562 12.273438 50.679688 C 19.027344 49.394531 28 42.78125 23.335938 36.199219 "/>
</g>
</svg>
