<?xml version="1.0" encoding="UTF-8"?>
<svg xmlns="http://www.w3.org/2000/svg" xmlns:xlink="http://www.w3.org/1999/xlink" width="56pt" height="56pt" viewBox="0 0 56 56" version="1.1">
<g id="surface1">
<rect x="0" y="0" width="56" height="56" style="fill:rgb(58.752441%,50.964355%,33.01239%);fill-opacity:1;stroke:none;"/>
<path style=" stroke:none;fill-rule:evenodd;fill:rgb(100%,100%,100%);fill-opacity:1;" d="M 8 28.0625 L 40.082031 48 C 40.789062 43.175781 36.320312 40.332031 36.277344 39.914062 C 36.226562 39.382812 39.839844 38.050781 40.101562 34.402344 C 40.554688 28.304688 32.207031 27.917969 31.917969 32.476562 C 31.765625 34.859375 34.417969 34.910156 34.5 33.144531 C 34.617188 30.773438 37.070312 31.21875 37.453125 33.886719 C 37.839844 36.558594 34.726562 37.6875 33.480469 37.652344 C 31.542969 37.59375 28.96875 36.015625 28.734375 33.683594 C 28.410156 30.472656 32.039062 30.058594 27.359375 30.457031 C 25.519531 30.609375 24.179688 29.628906 23.328125 28.046875 C 24.386719 26.578125 25.519531 25.554688 27.359375 25.710938 C 32.039062 26.109375 28.410156 25.691406 28.734375 22.449219 C 28.96875 20.097656 31.542969 18.503906 33.480469 18.445312 C 34.726562 18.40625 37.839844 19.550781 37.453125 22.246094 C 37.070312 24.9375 34.617188 25.386719 34.5 22.996094 C 34.417969 21.210938 31.765625 21.265625 31.917969 23.671875 C 32.207031 28.269531 40.554688 27.878906 40.101562 21.726562 C 39.84375 18.117188 36.363281 16.753906 36.28125 16.191406 C 36.234375 15.894531 40.777344 12.773438 40.082031 8 "/>
</g>
</svg>
