<?xml version="1.0" encoding="UTF-8"?>
<svg xmlns="http://www.w3.org/2000/svg" xmlns:xlink="http://www.w3.org/1999/xlink" width="56pt" height="56pt" viewBox="0 0 56 56" version="1.1">
<g id="surface1">
<rect x="0" y="0" width="56" height="56" style="fill:rgb(95.666504%,95.776367%,96.775818%);fill-opacity:1;stroke:none;"/>
<path style=" stroke:none;fill-rule:evenodd;fill:rgb(100%,100%,100%);fill-opacity:1;" d="M 50.660156 28.003906 C 50.660156 40.515625 40.519531 50.664062 28 50.664062 C 15.484375 50.664062 5.335938 40.515625 5.335938 28.003906 C 5.335938 15.488281 15.484375 5.339844 28 5.339844 C 40.519531 5.339844 50.660156 15.488281 50.660156 28.003906 "/>
<path style=" stroke:none;fill-rule:evenodd;fill:rgb(92.939758%,10.978699%,14.118958%);fill-opacity:1;" d="M 37.734375 14.34375 C 44.640625 16.46875 49.65625 22.898438 49.65625 30.496094 C 49.65625 31.601562 49.550781 32.6875 49.347656 33.734375 L 49.324219 33.886719 C 48.792969 36.863281 47.585938 39.613281 45.859375 41.953125 L 45.832031 41.988281 C 48.859375 38.136719 50.664062 33.273438 50.664062 27.996094 C 50.664062 15.46875 40.515625 5.320312 27.992188 5.320312 C 22.285156 5.320312 17.074219 7.425781 13.089844 10.90625 L 13.039062 10.949219 C 9.898438 13.828125 7.929688 17.964844 7.929688 22.566406 C 7.929688 24.46875 8.269531 26.292969 8.886719 27.984375 L 8.917969 28.0625 C 10.496094 31.519531 13.980469 33.921875 18.027344 33.921875 C 23.550781 33.921875 28.027344 29.445312 28.027344 23.921875 L 28 19.617188 C 28 17.640625 29.101562 15.914062 30.726562 15.035156 L 30.746094 15.019531 C 32.015625 14.324219 33.472656 13.921875 35.027344 13.921875 C 35.96875 13.921875 36.875 14.070312 37.726562 14.339844 L 37.734375 14.34375 "/>
<path style=" stroke:none;fill-rule:nonzero;fill:rgb(14.250183%,29.429626%,64.910889%);fill-opacity:1;" d="M 47.113281 28.019531 L 47.082031 27.941406 C 45.507812 24.480469 42.023438 22.082031 37.972656 22.082031 C 32.453125 22.082031 27.976562 26.554688 27.976562 32.078125 L 28.003906 36.382812 C 28.003906 38.359375 26.898438 40.085938 25.273438 40.964844 L 25.253906 40.984375 C 23.984375 41.675781 22.527344 42.078125 20.972656 42.078125 C 20.03125 42.078125 19.125 41.933594 18.273438 41.664062 L 18.265625 41.65625 C 11.359375 39.53125 6.34375 33.101562 6.34375 25.503906 C 6.34375 24.398438 6.449219 23.316406 6.65625 22.265625 L 6.679688 22.117188 C 7.203125 19.152344 8.40625 16.417969 10.117188 14.085938 C 7.121094 17.929688 5.335938 22.761719 5.335938 28.007812 C 5.335938 31.648438 6.195312 35.09375 7.71875 38.140625 L 10.636719 42.585938 C 14.796875 47.535156 21.035156 50.679688 28.011719 50.679688 C 33.714844 50.679688 38.925781 48.574219 42.914062 45.09375 L 42.960938 45.054688 C 46.101562 42.175781 48.070312 38.035156 48.070312 33.441406 C 48.070312 31.53125 47.730469 29.710938 47.113281 28.019531 "/>
<path style=" stroke:none;fill-rule:nonzero;fill:rgb(14.250183%,29.429626%,64.910889%);fill-opacity:1;" d="M 10.144531 14.046875 C 10.132812 14.058594 10.128906 14.074219 10.117188 14.085938 C 10.136719 14.0625 10.152344 14.035156 10.171875 14.011719 L 10.144531 14.046875 "/>
</g>
</svg>
