<?xml version="1.0" encoding="UTF-8"?>
<svg xmlns="http://www.w3.org/2000/svg" xmlns:xlink="http://www.w3.org/1999/xlink" width="56pt" height="56pt" viewBox="0 0 56 56" version="1.1">
<g id="surface1">
<rect x="0" y="0" width="56" height="56" style="fill:rgb(13.017273%,12.402344%,12.1521%);fill-opacity:1;stroke:none;"/>
<path style=" stroke:none;fill-rule:nonzero;fill:rgb(57.577515%,81.111145%,13.404846%);fill-opacity:1;" d="M 12.042969 14.460938 C 12.042969 14.460938 47.101562 38.355469 50.679688 41.21875 C 41.234375 40.359375 33.9375 36.570312 31.363281 34.707031 C 28.785156 32.847656 24.207031 28.484375 22.347656 25.621094 C 20.488281 22.757812 12.042969 14.460938 12.042969 14.460938 "/>
<path style=" stroke:none;fill-rule:nonzero;fill:rgb(17.434692%,38.145447%,17.09137%);fill-opacity:1;" d="M 5.320312 11.238281 C 18.699219 21.902344 22.195312 29.742188 27.5 33.921875 C 36.585938 41.074219 45.960938 42.933594 50.109375 42.648438 C 38.949219 46.65625 23.347656 44.652344 18.339844 39.214844 C 13.332031 33.777344 11.003906 23.582031 10.257812 21.472656 C 8.253906 15.820312 7.539062 14.101562 5.320312 11.238281 "/>
</g>
</svg>
