<?xml version="1.0" encoding="UTF-8"?>
<svg xmlns="http://www.w3.org/2000/svg" xmlns:xlink="http://www.w3.org/1999/xlink" width="56pt" height="56pt" viewBox="0 0 56 56" version="1.1">
<g id="surface1">
<rect x="0" y="0" width="56" height="56" style="fill:rgb(95.66803%,95.779419%,96.777344%);fill-opacity:1;stroke:none;"/>
<path style=" stroke:none;fill-rule:nonzero;fill:rgb(16.647339%,23.178101%,41.671753%);fill-opacity:1;" d="M 37.855469 31.1875 C 37.855469 31.1875 31.363281 35.003906 28.117188 36.914062 C 24.792969 34.980469 21.46875 33.046875 18.144531 31.113281 L 18.175781 31.152344 L 27.851562 25.078125 L 37.855469 31.1875 "/>
<path style=" stroke:none;fill-rule:nonzero;fill:rgb(16.647339%,23.178101%,41.671753%);fill-opacity:1;" d="M 27.898438 13.894531 C 29.769531 12.867188 31.648438 11.859375 33.507812 10.8125 C 34.898438 10.027344 36.265625 9.195312 37.753906 8.320312 C 41.003906 10.230469 44.207031 12.113281 47.757812 14.203125 C 44.378906 16.199219 41.320312 18.136719 38.136719 20.015625 C 37.757812 19.925781 31.382812 16.023438 28.234375 14.144531 C 28.125 14.058594 28.011719 13.976562 27.898438 13.894531 "/>
<path style=" stroke:none;fill-rule:nonzero;fill:rgb(16.647339%,23.178101%,41.671753%);fill-opacity:1;" d="M 27.898438 13.894531 C 28.011719 13.976562 27.785156 13.8125 27.898438 13.894531 C 27.839844 14.089844 20.929688 18.28125 18.191406 19.882812 C 15.128906 18.035156 8.496094 14.199219 8.242188 14.125 C 10.621094 12.699219 12.996094 11.269531 15.378906 9.855469 C 16.246094 9.339844 17.140625 8.871094 18.066406 8.355469 C 21.394531 10.230469 24.644531 12.0625 27.898438 13.894531 "/>
<path style=" stroke:none;fill-rule:nonzero;fill:rgb(33.92334%,73.524475%,90.710449%);fill-opacity:1;" d="M 8.242188 14.125 C 8.496094 14.199219 15.128906 18.035156 18.191406 19.882812 C 18.191406 23.519531 18.191406 27.15625 18.1875 30.789062 C 18.183594 30.910156 18.179688 31.03125 18.175781 31.152344 C 14.902344 29.167969 11.628906 27.183594 8.242188 25.132812 C 8.242188 21.453125 8.242188 17.789062 8.242188 14.125 "/>
<path style=" stroke:none;fill-rule:nonzero;fill:rgb(33.92334%,73.524475%,90.710449%);fill-opacity:1;" d="M 18.144531 31.113281 C 21.46875 33.046875 24.792969 34.980469 28.117188 36.914062 C 28.117188 40.496094 28.117188 47.679688 28.117188 47.679688 L 18.144531 41.910156 C 18.144531 41.910156 18.144531 34.746094 18.144531 31.113281 "/>
<path style=" stroke:none;fill-rule:nonzero;fill:rgb(33.92334%,73.524475%,90.710449%);fill-opacity:1;" d="M 27.898438 13.894531 C 31.042969 15.777344 38.136719 20.015625 38.136719 20.015625 L 37.855469 31.1875 C 37.855469 31.1875 31.207031 27.097656 27.851562 25.078125 C 27.851562 21.585938 27.839844 14.089844 27.898438 13.894531 "/>
</g>
</svg>
