<?xml version="1.0" encoding="UTF-8"?>
<svg xmlns="http://www.w3.org/2000/svg" xmlns:xlink="http://www.w3.org/1999/xlink" width="56pt" height="56pt" viewBox="0 0 56 56" version="1.1">
<g id="surface1">
<rect x="0" y="0" width="56" height="56" style="fill:rgb(29.560852%,43.733215%,75.119019%);fill-opacity:1;stroke:none;"/>
<path style=" stroke:none;fill-rule:evenodd;fill:rgb(100%,100%,100%);fill-opacity:1;" d="M 8.03125 29.6875 C 7.882812 30.050781 7.90625 30.417969 8.101562 30.789062 C 25.109375 30.929688 36.882812 36.363281 47.191406 43.28125 C 47.6875 43.277344 47.96875 43.082031 47.761719 42.46875 C 44.667969 39.570312 37.148438 34.972656 37.285156 34.289062 C 38.808594 33.164062 41.25 32.769531 40.976562 31.628906 C 36.484375 30.148438 31.152344 29.359375 25.054688 29.203125 C 26.289062 27.421875 27.503906 25.972656 28.488281 23.707031 C 28.957031 24.148438 29.472656 24.4375 30.015625 24.640625 C 31.570312 24.660156 32.003906 24.042969 32.125 23.25 C 31.140625 23.246094 30.15625 23.246094 29.167969 23.242188 C 28.914062 23.179688 28.839844 22.96875 28.941406 22.617188 C 31.546875 22.5625 34.816406 22.710938 35.019531 21.949219 C 35.03125 21.476562 33.941406 21.027344 34.367188 20.625 C 35.820312 20.253906 36.824219 19.703125 36.832031 18.761719 C 36.226562 19.054688 35.664062 19.210938 35.40625 18.378906 C 36.035156 17.722656 36.328125 16.984375 36.117188 16.128906 C 35.609375 16.617188 35.101562 17.109375 34.59375 17.601562 C 34.46875 16.570312 34.757812 15.03125 33.246094 15.710938 C 32.210938 16.855469 33.90625 17.921875 33.644531 18.929688 C 32.851562 20.925781 31.816406 21.996094 27.679688 21.984375 C 26.515625 21.964844 24.660156 20.957031 24.730469 20.238281 C 24.421875 19.667969 24.550781 18.867188 25.117188 17.84375 C 24.933594 18.019531 24.746094 18.195312 24.5625 18.371094 C 24.535156 18.097656 24.503906 17.824219 24.476562 17.550781 C 23.695312 18.464844 23.390625 19.21875 23.414062 19.855469 C 23.300781 19.585938 23.464844 19.871094 22.679688 18.6875 C 21.445312 21.703125 26.089844 21.996094 26.960938 22.773438 C 24.957031 23.054688 22.980469 22.859375 20.996094 22.757812 C 20.722656 22.9375 20.617188 23.210938 20.675781 23.578125 C 21.675781 24.832031 24.023438 24.683594 23.867188 25.308594 C 22.925781 27.054688 21.546875 27.785156 20.074219 28.800781 C 19.367188 29.261719 14.84375 29.472656 8.03125 29.6875 "/>
<path style=" stroke:none;fill-rule:evenodd;fill:rgb(100%,100%,100%);fill-opacity:1;" d="M 28 11.871094 C 41.96875 11.871094 53.359375 19.117188 53.359375 28 C 53.359375 36.882812 41.96875 44.128906 28 44.128906 C 14.03125 44.128906 2.636719 36.882812 2.636719 28 C 2.636719 19.117188 14.03125 11.871094 28 11.871094 Z M 29.648438 13.371094 C 42.425781 13.570312 51.96875 20.324219 50.894531 28.402344 C 49.816406 36.480469 38.519531 42.90625 25.742188 42.707031 C 12.964844 42.503906 3.417969 35.753906 4.496094 27.671875 C 5.574219 19.59375 16.871094 13.171875 29.648438 13.371094 "/>
</g>
</svg>
