<?xml version="1.0" encoding="UTF-8"?>
<svg xmlns="http://www.w3.org/2000/svg" xmlns:xlink="http://www.w3.org/1999/xlink" width="56pt" height="56pt" viewBox="0 0 56 56" version="1.1">
<g id="surface1">
<rect x="0" y="0" width="56" height="56" style="fill:rgb(88.955688%,12.788391%,16.00647%);fill-opacity:1;stroke:none;"/>
<path style=" stroke:none;fill-rule:evenodd;fill:rgb(100%,100%,100%);fill-opacity:1;" d="M 15.101562 10.816406 C 3.652344 16.722656 -0.59375 28.78125 4.375 38.414062 C 9.347656 48.050781 22.664062 51.070312 34.113281 45.160156 C 45.5625 39.253906 50.539062 27.105469 45.933594 17.5625 C 41.328125 8.023438 26.550781 4.90625 15.101562 10.816406 Z M 15.101562 16.351562 C 5.292969 22.992188 2.910156 32.71875 7.757812 39.878906 C 12.601562 47.035156 24.945312 48.1875 34.753906 41.546875 C 44.5625 34.90625 48.496094 23.71875 43.652344 16.558594 C 38.804688 9.398438 24.910156 9.710938 15.101562 16.351562 "/>
<path style=" stroke:none;fill-rule:evenodd;fill:rgb(100%,100%,100%);fill-opacity:1;" d="M 37.984375 14.933594 C 39.320312 13.671875 39.914062 13.695312 40.296875 15.707031 C 41.070312 19.8125 39.257812 23.007812 35.851562 25.542969 C 32.886719 27.390625 29.667969 28.597656 26.074219 28.863281 C 36.710938 36.574219 40.621094 43.082031 51.675781 38.226562 C 51.273438 42.613281 49.886719 48.34375 38.636719 45.992188 C 31.574219 44.515625 26.5 38.523438 23.167969 31.710938 C 22.648438 30.652344 22.238281 29.6875 21.449219 31.351562 C 20.550781 33.25 20.289062 35.300781 20.085938 37.28125 C 20.019531 37.929688 20.425781 38.503906 20.914062 39.234375 C 21.402344 39.960938 20.964844 40.234375 19.90625 40.183594 C 18.015625 40.09375 16.113281 40.222656 14.21875 40.242188 C 11.679688 37.992188 12.253906 34.515625 13.386719 31.234375 C 14.613281 27.699219 16.539062 24.445312 17.953125 20.980469 C 18.28125 20.167969 17.90625 19.992188 17.183594 19.855469 C 16.375 19.703125 16.488281 18.988281 17.359375 18.492188 C 19.90625 17.03125 22.582031 16.058594 25.777344 15.824219 C 27.429688 15.703125 27.808594 16.132812 27.078125 17.839844 C 26.289062 19.6875 25.539062 21.554688 24.769531 23.410156 C 29.402344 20.871094 34.207031 18.515625 37.984375 14.933594 "/>
</g>
</svg>
