<?xml version="1.0" encoding="UTF-8"?>
<svg xmlns="http://www.w3.org/2000/svg" xmlns:xlink="http://www.w3.org/1999/xlink" width="56pt" height="56pt" viewBox="0 0 56 56" version="1.1">
<g id="surface1">
<rect x="0" y="0" width="56" height="56" style="fill:rgb(95.666504%,95.776367%,96.775818%);fill-opacity:1;stroke:none;"/>
<path style=" stroke:none;fill-rule:nonzero;fill:rgb(15.956116%,17.138672%,40.968323%);fill-opacity:1;" d="M 49.722656 28.242188 C 49.597656 28.410156 49.46875 28.578125 49.34375 28.75 C 49.320312 28.785156 49.304688 28.835938 49.300781 28.882812 C 49.253906 29.351562 49.179688 29.820312 49.046875 30.277344 C 48.820312 31.0625 48.449219 31.769531 47.914062 32.386719 C 47.445312 32.933594 46.882812 33.363281 46.277344 33.742188 C 45.558594 34.1875 44.792969 34.539062 44.027344 34.886719 C 43.378906 35.179688 42.730469 35.472656 42.109375 35.816406 C 41.558594 36.117188 41.03125 36.457031 40.5625 36.878906 C 40.058594 37.328125 39.648438 37.847656 39.351562 38.460938 C 39.136719 38.90625 38.992188 39.375 38.910156 39.867188 C 38.847656 40.246094 38.839844 40.628906 38.867188 41.007812 C 38.902344 41.503906 39.023438 41.980469 39.226562 42.433594 C 39.4375 42.902344 39.71875 43.3125 40.09375 43.660156 C 40.496094 44.039062 40.964844 44.3125 41.492188 44.484375 C 41.730469 44.5625 41.96875 44.632812 42.21875 44.65625 C 42.433594 44.671875 42.652344 44.683594 42.867188 44.675781 C 43.59375 44.652344 44.28125 44.476562 44.898438 44.082031 C 45.214844 43.882812 45.46875 43.617188 45.6875 43.320312 C 45.941406 42.976562 46.136719 42.601562 46.261719 42.195312 C 46.363281 41.855469 46.378906 41.511719 46.335938 41.160156 C 46.296875 40.835938 46.214844 40.523438 46.070312 40.230469 C 45.933594 39.949219 45.742188 39.710938 45.460938 39.570312 C 44.890625 39.28125 44.160156 39.609375 44.0625 40.246094 C 44.03125 40.464844 44.039062 40.675781 44.050781 40.894531 C 44.070312 41.210938 44.097656 41.523438 44.019531 41.835938 C 43.949219 42.121094 43.796875 42.351562 43.570312 42.53125 C 43.289062 42.753906 42.976562 42.867188 42.617188 42.875 C 42.296875 42.878906 42 42.816406 41.734375 42.636719 C 41.585938 42.535156 41.464844 42.414062 41.363281 42.269531 C 41.175781 41.992188 41.070312 41.683594 41.015625 41.355469 C 40.988281 41.191406 40.964844 41.027344 40.960938 40.863281 C 40.957031 40.324219 41.03125 39.796875 41.277344 39.300781 C 41.664062 38.511719 42.269531 37.9375 43.058594 37.558594 C 43.503906 37.347656 43.972656 37.21875 44.460938 37.148438 C 44.8125 37.09375 45.164062 37.078125 45.515625 37.097656 C 46.464844 37.160156 47.285156 37.511719 47.96875 38.171875 C 48.636719 38.820312 49.03125 39.613281 49.242188 40.507812 C 49.363281 41.035156 49.390625 41.570312 49.347656 42.105469 C 49.296875 42.753906 49.132812 43.375 48.851562 43.964844 C 48.59375 44.511719 48.253906 45.007812 47.839844 45.453125 C 47.253906 46.074219 46.570312 46.554688 45.796875 46.914062 C 45.226562 47.179688 44.636719 47.371094 44.015625 47.488281 C 43.617188 47.5625 43.21875 47.617188 42.8125 47.617188 C 42.574219 47.621094 42.332031 47.628906 42.09375 47.613281 C 41.828125 47.597656 41.558594 47.566406 41.296875 47.523438 C 40.796875 47.445312 40.316406 47.304688 39.847656 47.117188 C 39.332031 46.910156 38.855469 46.636719 38.40625 46.320312 C 37.988281 46.03125 37.605469 45.707031 37.253906 45.339844 C 36.78125 44.84375 36.375 44.296875 36.03125 43.703125 C 35.652344 43.050781 35.339844 42.363281 35.074219 41.660156 C 34.792969 40.921875 34.527344 40.175781 34.253906 39.4375 C 34.25 39.421875 34.25 39.40625 34.246094 39.394531 C 34.25 39.160156 34.25 38.921875 34.25 38.6875 C 34.25 36.019531 34.25 33.351562 34.25 30.683594 C 34.25 30.628906 34.25 30.574219 34.25 30.503906 C 34.574219 30.503906 34.878906 30.503906 35.175781 30.503906 C 35.359375 30.25 35.539062 30.007812 35.714844 29.765625 C 35.804688 29.640625 35.890625 29.511719 35.976562 29.386719 C 36.117188 29.195312 36.257812 29.007812 36.398438 28.820312 C 36.410156 28.800781 36.441406 28.792969 36.460938 28.777344 C 37.125 28.777344 37.789062 28.777344 38.480469 28.777344 C 38.449219 28.722656 38.433594 28.6875 38.410156 28.65625 C 38.328125 28.539062 38.234375 28.421875 38.152344 28.300781 C 38.125 28.261719 38.101562 28.210938 38.101562 28.160156 C 38.097656 27.648438 38.101562 27.132812 38.101562 26.621094 C 38.101562 26.605469 38.109375 26.59375 38.113281 26.5625 C 38.238281 26.539062 38.367188 26.546875 38.496094 26.570312 C 38.617188 26.742188 38.730469 26.914062 38.851562 27.09375 C 38.96875 27.117188 39.089844 27.105469 39.222656 27.101562 C 39.234375 26.675781 39.226562 26.253906 39.230469 25.835938 C 39.117188 25.707031 39.015625 25.585938 38.90625 25.46875 C 38.859375 25.414062 38.839844 25.359375 38.839844 25.289062 C 38.84375 24.886719 38.839844 24.488281 38.84375 24.085938 C 38.84375 24.042969 38.855469 23.996094 38.863281 23.949219 C 38.972656 23.949219 39.074219 23.949219 39.1875 23.949219 C 39.289062 24.09375 39.402344 24.242188 39.507812 24.390625 C 39.613281 24.390625 39.710938 24.390625 39.816406 24.390625 C 39.820312 24.351562 39.824219 24.320312 39.824219 24.289062 C 39.824219 23.953125 39.824219 23.621094 39.824219 23.285156 C 39.824219 23.222656 39.8125 23.167969 39.773438 23.113281 C 39.714844 23.023438 39.65625 22.929688 39.605469 22.84375 C 39.605469 22.410156 39.605469 21.984375 39.605469 21.546875 C 39.707031 21.546875 39.796875 21.546875 39.910156 21.546875 C 40 21.667969 40.101562 21.796875 40.203125 21.929688 C 40.28125 21.929688 40.359375 21.929688 40.4375 21.929688 C 40.472656 21.828125 40.484375 21.113281 40.457031 20.828125 C 40.300781 20.71875 40.136719 20.597656 39.976562 20.484375 C 39.957031 20.269531 39.964844 19.519531 39.988281 19.414062 C 40.070312 19.414062 40.15625 19.414062 40.253906 19.414062 C 40.324219 19.5 40.40625 19.59375 40.496094 19.699219 C 40.566406 19.699219 40.652344 19.699219 40.734375 19.699219 C 40.820312 19.699219 40.90625 19.699219 40.988281 19.699219 C 41.015625 19.597656 41.023438 18.878906 40.996094 18.691406 C 40.949219 18.6875 40.898438 18.683594 40.84375 18.675781 C 40.777344 18.535156 40.714844 18.398438 40.722656 18.234375 C 40.730469 18.03125 40.722656 17.828125 40.726562 17.625 C 40.726562 17.589844 40.726562 17.550781 40.730469 17.503906 C 40.804688 17.503906 40.871094 17.503906 40.96875 17.503906 C 41.019531 17.570312 41.085938 17.648438 41.140625 17.714844 C 41.351562 17.714844 41.535156 17.714844 41.71875 17.714844 C 41.75 17.589844 41.746094 16.824219 41.714844 16.707031 C 41.636719 16.707031 41.558594 16.707031 41.476562 16.707031 C 41.449219 16.613281 41.464844 16.53125 41.460938 16.445312 C 41.457031 16.367188 41.460938 16.289062 41.460938 16.191406 C 41.601562 16.191406 41.738281 16.191406 41.878906 16.191406 C 41.902344 16.039062 41.886719 15.898438 41.890625 15.753906 C 41.84375 15.746094 41.804688 15.738281 41.761719 15.726562 C 41.699219 15.5625 41.632812 15.398438 41.5625 15.222656 C 41.707031 15.222656 41.832031 15.222656 41.960938 15.222656 C 42.082031 15.21875 42.203125 15.230469 42.335938 15.210938 C 42.335938 14.964844 42.335938 14.722656 42.335938 14.46875 C 42.523438 14.46875 42.699219 14.464844 42.878906 14.460938 C 42.886719 14.351562 42.890625 14.253906 42.898438 14.148438 C 42.832031 14.148438 42.777344 14.148438 42.710938 14.148438 C 42.707031 14.054688 42.707031 13.972656 42.707031 13.886719 C 42.703125 13.804688 42.707031 13.71875 42.707031 13.617188 C 42.875 13.617188 43.039062 13.617188 43.214844 13.617188 C 43.226562 13.449219 43.21875 13.296875 43.21875 13.144531 C 43.222656 12.992188 43.21875 12.84375 43.21875 12.699219 C 43.652344 12.339844 44.171875 12.375 44.601562 12.703125 C 44.601562 12.996094 44.601562 13.292969 44.601562 13.609375 C 44.773438 13.609375 44.9375 13.609375 45.105469 13.609375 C 45.128906 13.792969 45.109375 13.960938 45.117188 14.136719 C 45.050781 14.144531 44.996094 14.148438 44.933594 14.15625 C 44.902344 14.25 44.921875 14.347656 44.917969 14.457031 C 45.101562 14.480469 45.285156 14.453125 45.480469 14.472656 C 45.488281 14.71875 45.476562 14.960938 45.488281 15.214844 C 45.746094 15.214844 45.992188 15.214844 46.257812 15.214844 C 46.1875 15.398438 46.121094 15.5625 46.058594 15.730469 C 46.019531 15.734375 45.980469 15.742188 45.9375 15.75 C 45.9375 15.890625 45.9375 16.027344 45.9375 16.183594 C 46.074219 16.183594 46.207031 16.183594 46.355469 16.183594 C 46.359375 16.28125 46.359375 16.367188 46.359375 16.449219 C 46.359375 16.527344 46.359375 16.605469 46.359375 16.695312 C 46.273438 16.703125 46.195312 16.707031 46.101562 16.710938 C 46.097656 17.042969 46.101562 17.371094 46.097656 17.714844 C 46.285156 17.71875 46.464844 17.71875 46.671875 17.71875 C 46.722656 17.648438 46.785156 17.566406 46.847656 17.480469 C 46.855469 17.488281 46.863281 17.496094 46.871094 17.503906 C 46.9375 17.503906 47.007812 17.503906 47.085938 17.503906 C 47.089844 17.542969 47.09375 17.578125 47.09375 17.617188 C 47.097656 17.8125 47.089844 18.011719 47.097656 18.210938 C 47.105469 18.382812 47.050781 18.53125 46.96875 18.679688 C 46.921875 18.683594 46.875 18.683594 46.832031 18.6875 C 46.800781 18.796875 46.792969 19.34375 46.8125 19.679688 C 46.898438 19.714844 46.984375 19.695312 47.074219 19.699219 C 47.15625 19.703125 47.242188 19.699219 47.328125 19.699219 C 47.40625 19.601562 47.484375 19.507812 47.5625 19.414062 C 47.65625 19.414062 47.746094 19.414062 47.832031 19.414062 C 47.855469 19.523438 47.863281 20.257812 47.84375 20.484375 C 47.683594 20.597656 47.523438 20.714844 47.355469 20.835938 C 47.355469 21.195312 47.355469 21.550781 47.355469 21.917969 C 47.441406 21.945312 47.53125 21.929688 47.621094 21.929688 C 47.71875 21.800781 47.8125 21.675781 47.90625 21.546875 C 48.007812 21.546875 48.097656 21.546875 48.199219 21.546875 C 48.207031 21.574219 48.21875 21.601562 48.21875 21.625 C 48.222656 22.03125 48.21875 22.4375 48.21875 22.835938 C 48.171875 22.914062 48.132812 22.992188 48.082031 23.058594 C 48.011719 23.148438 47.988281 23.246094 47.992188 23.359375 C 47.996094 23.660156 47.996094 23.964844 47.996094 24.265625 C 47.996094 24.300781 47.996094 24.339844 47.996094 24.386719 C 48.105469 24.386719 48.207031 24.386719 48.316406 24.386719 C 48.414062 24.25 48.519531 24.101562 48.628906 23.953125 C 48.730469 23.953125 48.839844 23.953125 48.945312 23.953125 C 48.96875 24.070312 48.976562 25.078125 48.957031 25.410156 C 48.84375 25.542969 48.71875 25.6875 48.597656 25.832031 C 48.597656 26.25 48.597656 26.667969 48.597656 27.097656 C 48.71875 27.097656 48.839844 27.097656 48.96875 27.097656 C 49.085938 26.917969 49.207031 26.738281 49.332031 26.550781 C 49.460938 26.558594 49.59375 26.566406 49.722656 26.574219 C 49.722656 27.128906 49.722656 27.683594 49.722656 28.242188 "/>
<path style=" stroke:none;fill-rule:nonzero;fill:rgb(15.956116%,17.138672%,40.968323%);fill-opacity:1;" d="M 21.75 34.378906 C 21.492188 34.601562 21.230469 34.816406 20.984375 35.046875 C 20.519531 35.496094 20.136719 36.007812 19.792969 36.546875 C 19.433594 37.113281 19.136719 37.714844 18.835938 38.308594 C 18.585938 38.804688 18.328125 39.296875 18.035156 39.769531 C 17.511719 40.605469 16.84375 41.296875 15.976562 41.785156 C 15.375 42.125 14.734375 42.367188 14.058594 42.515625 C 13.785156 42.578125 13.507812 42.628906 13.222656 42.644531 C 13.007812 42.65625 12.792969 42.691406 12.578125 42.683594 C 12.21875 42.667969 11.855469 42.652344 11.496094 42.59375 C 10.996094 42.507812 10.515625 42.375 10.046875 42.183594 C 9.453125 41.9375 8.894531 41.625 8.421875 41.179688 C 7.917969 40.710938 7.523438 40.15625 7.214844 39.539062 C 6.96875 39.050781 6.792969 38.535156 6.679688 38 C 6.589844 37.558594 6.558594 37.109375 6.59375 36.664062 C 6.671875 35.703125 7.042969 34.867188 7.730469 34.179688 C 8.257812 33.652344 8.878906 33.304688 9.597656 33.125 C 10.011719 33.023438 10.425781 32.996094 10.847656 33.027344 C 11.453125 33.074219 12.03125 33.21875 12.574219 33.507812 C 13.023438 33.742188 13.398438 34.0625 13.714844 34.457031 C 14.015625 34.839844 14.242188 35.257812 14.367188 35.730469 C 14.476562 36.144531 14.507812 36.5625 14.429688 36.984375 C 14.394531 37.175781 14.351562 37.363281 14.28125 37.542969 C 14.109375 37.96875 13.792969 38.234375 13.351562 38.332031 C 12.582031 38.496094 11.910156 37.953125 11.820312 37.289062 C 11.789062 37.082031 11.78125 36.867188 11.765625 36.65625 C 11.753906 36.492188 11.742188 36.328125 11.679688 36.171875 C 11.507812 35.757812 11.210938 35.484375 10.75 35.425781 C 10.191406 35.351562 9.445312 35.71875 9.328125 36.46875 C 9.277344 36.796875 9.300781 37.117188 9.371094 37.4375 C 9.488281 37.957031 9.742188 38.410156 10.078125 38.816406 C 10.542969 39.378906 11.117188 39.785156 11.792969 40.046875 C 12.167969 40.191406 12.554688 40.269531 12.953125 40.253906 C 13.757812 40.222656 14.476562 39.949219 15.101562 39.433594 C 15.53125 39.082031 15.867188 38.65625 16.097656 38.152344 C 16.238281 37.847656 16.335938 37.53125 16.378906 37.195312 C 16.457031 36.601562 16.398438 36.027344 16.21875 35.457031 C 16.023438 34.835938 15.738281 34.261719 15.34375 33.742188 C 15 33.289062 14.59375 32.902344 14.136719 32.558594 C 13.492188 32.078125 12.785156 31.707031 12.050781 31.382812 C 11.425781 31.105469 10.777344 30.902344 10.125 30.703125 C 9.511719 30.515625 8.90625 30.320312 8.328125 30.039062 C 7.855469 29.8125 7.414062 29.535156 7.042969 29.15625 C 6.921875 29.027344 6.789062 28.90625 6.714844 28.734375 C 6.691406 28.671875 6.628906 28.625 6.582031 28.574219 C 6.480469 28.460938 6.378906 28.351562 6.277344 28.242188 C 6.277344 27.683594 6.277344 27.128906 6.277344 26.574219 C 6.40625 26.53125 6.535156 26.558594 6.671875 26.554688 C 6.792969 26.738281 6.90625 26.914062 7.027344 27.097656 C 7.144531 27.097656 7.265625 27.097656 7.402344 27.097656 C 7.414062 26.675781 7.40625 26.253906 7.40625 25.839844 C 7.296875 25.710938 7.195312 25.589844 7.085938 25.46875 C 7.042969 25.421875 7.019531 25.371094 7.019531 25.304688 C 7.019531 24.882812 7.019531 24.457031 7.019531 24.03125 C 7.019531 24.011719 7.027344 23.988281 7.03125 23.960938 C 7.144531 23.929688 7.25 23.945312 7.367188 23.949219 C 7.472656 24.09375 7.578125 24.242188 7.683594 24.390625 C 7.785156 24.390625 7.882812 24.390625 7.992188 24.390625 C 7.996094 24.351562 8 24.316406 8 24.28125 C 8 23.953125 8 23.621094 8.003906 23.289062 C 8.003906 23.222656 7.992188 23.160156 7.949219 23.105469 C 7.808594 22.933594 7.757812 22.742188 7.769531 22.519531 C 7.789062 22.246094 7.773438 21.972656 7.773438 21.699219 C 7.773438 21.652344 7.773438 21.605469 7.773438 21.550781 C 7.882812 21.550781 7.980469 21.550781 8.09375 21.550781 C 8.179688 21.667969 8.277344 21.796875 8.375 21.925781 C 8.457031 21.925781 8.542969 21.925781 8.632812 21.925781 C 8.632812 21.5625 8.632812 21.203125 8.632812 20.828125 C 8.472656 20.714844 8.316406 20.601562 8.152344 20.484375 C 8.152344 20.132812 8.152344 19.78125 8.152344 19.417969 C 8.25 19.417969 8.335938 19.417969 8.4375 19.417969 C 8.507812 19.503906 8.585938 19.59375 8.667969 19.691406 C 8.835938 19.691406 9.003906 19.691406 9.171875 19.691406 C 9.195312 19.585938 9.203125 18.964844 9.183594 18.695312 C 9.136719 18.691406 9.085938 18.683594 9.027344 18.675781 C 8.957031 18.542969 8.894531 18.40625 8.902344 18.242188 C 8.910156 18.039062 8.902344 17.835938 8.902344 17.636719 C 8.902344 17.59375 8.90625 17.550781 8.910156 17.503906 C 8.984375 17.503906 9.046875 17.503906 9.136719 17.503906 C 9.195312 17.5625 9.265625 17.636719 9.347656 17.71875 C 9.433594 17.71875 9.527344 17.71875 9.621094 17.71875 C 9.710938 17.71875 9.800781 17.71875 9.890625 17.71875 C 9.941406 17.605469 9.910156 17.488281 9.917969 17.378906 C 9.921875 17.273438 9.917969 17.164062 9.917969 17.054688 C 9.914062 16.945312 9.929688 16.832031 9.902344 16.710938 C 9.820312 16.710938 9.742188 16.710938 9.644531 16.710938 C 9.632812 16.535156 9.640625 16.375 9.640625 16.199219 C 9.777344 16.171875 9.914062 16.199219 10.054688 16.179688 C 10.078125 16.039062 10.0625 15.898438 10.066406 15.753906 C 10.023438 15.746094 9.984375 15.734375 9.9375 15.726562 C 9.875 15.5625 9.808594 15.398438 9.738281 15.214844 C 10.007812 15.214844 10.253906 15.214844 10.511719 15.214844 C 10.511719 14.964844 10.511719 14.726562 10.511719 14.46875 C 10.703125 14.46875 10.882812 14.464844 11.078125 14.460938 C 11.074219 14.355469 11.066406 14.257812 11.058594 14.15625 C 11 14.152344 10.949219 14.144531 10.890625 14.140625 C 10.890625 13.964844 10.890625 13.796875 10.890625 13.613281 C 11.0625 13.613281 11.230469 13.613281 11.410156 13.613281 C 11.421875 13.445312 11.414062 13.289062 11.417969 13.136719 C 11.417969 12.984375 11.417969 12.835938 11.417969 12.695312 C 11.785156 12.371094 12.328125 12.355469 12.777344 12.695312 C 12.777344 12.839844 12.777344 12.996094 12.777344 13.148438 C 12.777344 13.300781 12.777344 13.449219 12.777344 13.609375 C 12.953125 13.609375 13.113281 13.609375 13.265625 13.609375 C 13.300781 13.714844 13.304688 13.980469 13.277344 14.140625 C 13.226562 14.140625 13.171875 14.140625 13.109375 14.140625 C 13.089844 14.25 13.097656 14.351562 13.101562 14.464844 C 13.289062 14.464844 13.464844 14.464844 13.648438 14.464844 C 13.675781 14.59375 13.660156 14.714844 13.660156 14.835938 C 13.664062 14.957031 13.664062 15.078125 13.664062 15.203125 C 13.800781 15.234375 13.929688 15.21875 14.054688 15.222656 C 14.175781 15.222656 14.296875 15.222656 14.433594 15.222656 C 14.363281 15.398438 14.300781 15.5625 14.234375 15.730469 C 14.195312 15.734375 14.160156 15.742188 14.117188 15.75 C 14.117188 15.890625 14.117188 16.03125 14.117188 16.183594 C 14.253906 16.183594 14.386719 16.183594 14.535156 16.183594 C 14.535156 16.28125 14.539062 16.363281 14.539062 16.449219 C 14.539062 16.527344 14.539062 16.605469 14.539062 16.695312 C 14.445312 16.703125 14.363281 16.707031 14.285156 16.710938 C 14.253906 16.816406 14.25 17.515625 14.273438 17.710938 C 14.453125 17.726562 14.636719 17.714844 14.835938 17.71875 C 14.898438 17.648438 14.964844 17.570312 15.019531 17.5 C 15.113281 17.5 15.183594 17.5 15.261719 17.5 C 15.265625 17.535156 15.273438 17.566406 15.273438 17.597656 C 15.277344 17.8125 15.269531 18.023438 15.277344 18.234375 C 15.285156 18.398438 15.21875 18.535156 15.15625 18.679688 C 15.101562 18.679688 15.058594 18.683594 15.011719 18.6875 C 14.984375 18.789062 14.976562 19.503906 15.003906 19.691406 C 15.167969 19.691406 15.335938 19.691406 15.507812 19.691406 C 15.585938 19.597656 15.664062 19.507812 15.742188 19.414062 C 15.835938 19.414062 15.925781 19.414062 16.03125 19.414062 C 16.035156 19.773438 16.03125 20.125 16.03125 20.476562 C 15.863281 20.597656 15.699219 20.71875 15.535156 20.835938 C 15.535156 21.199219 15.535156 21.554688 15.535156 21.921875 C 15.578125 21.925781 15.617188 21.929688 15.660156 21.933594 C 15.703125 21.933594 15.742188 21.933594 15.792969 21.933594 C 15.894531 21.804688 15.992188 21.675781 16.089844 21.546875 C 16.191406 21.546875 16.28125 21.546875 16.375 21.546875 C 16.40625 21.660156 16.417969 22.253906 16.398438 22.84375 C 16.328125 22.953125 16.253906 23.066406 16.179688 23.179688 C 16.179688 23.582031 16.179688 23.980469 16.179688 24.390625 C 16.289062 24.390625 16.390625 24.390625 16.496094 24.390625 C 16.597656 24.246094 16.703125 24.101562 16.808594 23.953125 C 16.914062 23.953125 17.015625 23.953125 17.136719 23.953125 C 17.144531 23.996094 17.15625 24.046875 17.15625 24.09375 C 17.160156 24.488281 17.15625 24.886719 17.160156 25.28125 C 17.160156 25.363281 17.132812 25.425781 17.078125 25.484375 C 16.992188 25.578125 16.914062 25.675781 16.828125 25.773438 C 16.792969 25.8125 16.769531 25.855469 16.769531 25.910156 C 16.773438 26.300781 16.769531 26.691406 16.769531 27.082031 C 16.832031 27.121094 16.894531 27.101562 16.953125 27.105469 C 17.015625 27.109375 17.074219 27.105469 17.140625 27.105469 C 17.261719 26.925781 17.378906 26.75 17.5 26.570312 C 17.625 26.535156 17.753906 26.558594 17.890625 26.550781 C 17.894531 26.605469 17.902344 26.640625 17.902344 26.679688 C 17.902344 27.160156 17.902344 27.640625 17.902344 28.121094 C 17.90625 28.203125 17.882812 28.265625 17.832031 28.328125 C 17.746094 28.4375 17.664062 28.554688 17.578125 28.667969 C 17.5625 28.691406 17.546875 28.722656 17.535156 28.746094 C 17.542969 28.757812 17.542969 28.761719 17.546875 28.765625 C 17.550781 28.769531 17.554688 28.769531 17.558594 28.769531 C 17.578125 28.773438 17.597656 28.777344 17.617188 28.777344 C 18.257812 28.777344 18.898438 28.777344 19.539062 28.777344 C 19.5625 28.796875 19.59375 28.808594 19.609375 28.832031 C 19.648438 28.882812 19.671875 28.9375 19.710938 28.984375 C 19.9375 29.296875 20.164062 29.601562 20.390625 29.910156 C 20.539062 30.109375 20.6875 30.308594 20.832031 30.503906 C 20.996094 30.503906 21.148438 30.503906 21.296875 30.503906 C 21.445312 30.507812 21.59375 30.496094 21.75 30.515625 C 21.75 30.582031 21.75 30.632812 21.75 30.683594 C 21.75 31.804688 21.75 32.925781 21.75 34.042969 C 21.75 34.15625 21.75 34.269531 21.75 34.378906 "/>
<path style=" stroke:none;fill-rule:nonzero;fill:rgb(91.946411%,11.31134%,15.167236%);fill-opacity:1;" d="M 20.363281 26.910156 C 20.367188 26.90625 20.371094 26.902344 20.363281 26.910156 C 20.371094 26.902344 20.367188 26.90625 20.363281 26.910156 C 20.359375 26.914062 20.355469 26.917969 20.363281 26.910156 C 20.355469 26.921875 20.359375 26.914062 20.363281 26.910156 Z M 35.636719 26.910156 C 35.640625 26.914062 35.644531 26.921875 35.636719 26.910156 C 35.648438 26.917969 35.640625 26.914062 35.636719 26.910156 C 35.632812 26.90625 35.628906 26.902344 35.636719 26.910156 C 35.628906 26.902344 35.632812 26.90625 35.636719 26.910156 Z M 21.75 34.378906 C 21.75 34.269531 21.75 34.15625 21.75 34.042969 C 21.75 32.925781 21.75 31.804688 21.75 30.683594 C 21.75 30.632812 21.75 30.582031 21.75 30.515625 C 21.59375 30.496094 21.445312 30.507812 21.296875 30.503906 C 21.148438 30.503906 20.996094 30.503906 20.832031 30.503906 C 20.6875 30.308594 20.539062 30.109375 20.390625 29.910156 C 20.164062 29.601562 19.9375 29.296875 19.710938 28.984375 C 19.671875 28.9375 19.648438 28.882812 19.609375 28.832031 C 19.59375 28.808594 19.5625 28.796875 19.539062 28.777344 C 19.535156 28.757812 19.535156 28.734375 19.527344 28.722656 C 19.476562 28.667969 19.476562 28.605469 19.492188 28.539062 C 19.597656 28.078125 19.707031 27.621094 19.8125 27.160156 C 19.875 26.882812 19.9375 26.601562 20 26.324219 C 20.003906 26.300781 20.015625 26.28125 20.027344 26.261719 C 20.035156 26.25 20.042969 26.242188 20.050781 26.230469 C 20.132812 26.34375 20.210938 26.453125 20.285156 26.5625 C 20.382812 26.703125 20.476562 26.84375 20.570312 26.988281 C 20.824219 26.988281 21.070312 26.988281 21.328125 26.988281 C 21.335938 26.957031 21.347656 26.933594 21.347656 26.90625 C 21.347656 26.320312 21.347656 25.738281 21.347656 25.136719 C 21.097656 24.925781 20.839844 24.707031 20.570312 24.480469 C 20.734375 23.789062 20.894531 23.09375 21.0625 22.382812 C 21.183594 22.472656 21.222656 22.605469 21.304688 22.699219 C 21.386719 22.796875 21.453125 22.90625 21.527344 23.007812 C 21.761719 23.039062 21.984375 23.039062 22.207031 23.007812 C 22.230469 22.898438 22.242188 21.546875 22.21875 21.273438 C 22.039062 21.085938 21.859375 20.898438 21.671875 20.707031 C 21.820312 20.09375 21.964844 19.476562 22.121094 18.832031 C 22.277344 19.035156 22.414062 19.21875 22.550781 19.402344 C 22.753906 19.410156 22.949219 19.421875 23.152344 19.382812 C 23.152344 18.847656 23.152344 18.324219 23.152344 17.785156 C 23.019531 17.785156 22.886719 17.785156 22.753906 17.785156 C 22.578125 17.613281 22.40625 17.449219 22.21875 17.273438 C 22.339844 16.753906 22.476562 16.238281 22.605469 15.710938 C 22.710938 15.746094 22.738281 15.84375 22.804688 15.90625 C 22.867188 15.96875 22.917969 16.039062 22.976562 16.105469 C 23.300781 16.148438 23.621094 16.128906 23.9375 16.105469 C 23.964844 15.992188 23.96875 14.839844 23.945312 14.621094 C 23.746094 14.484375 23.542969 14.34375 23.34375 14.207031 C 23.320312 14.0625 23.328125 13.03125 23.355469 12.910156 C 23.386719 12.917969 23.414062 12.925781 23.445312 12.9375 C 23.585938 13.007812 23.730469 13.078125 23.871094 13.15625 C 23.9375 13.191406 24.003906 13.203125 24.074219 13.199219 C 24.167969 13.199219 24.261719 13.199219 24.355469 13.199219 C 24.386719 13.097656 24.398438 11.953125 24.367188 11.738281 C 24.3125 11.730469 24.253906 11.722656 24.1875 11.714844 C 24.1875 11.46875 24.1875 11.222656 24.1875 10.964844 C 24.339844 10.960938 24.492188 10.957031 24.660156 10.953125 C 24.625 10.480469 24.589844 10.019531 24.550781 9.542969 C 24.75 9.554688 24.929688 9.609375 25.113281 9.640625 C 25.296875 9.671875 25.480469 9.710938 25.679688 9.746094 C 25.6875 9.308594 25.679688 8.886719 25.683594 8.449219 C 25.824219 8.429688 25.960938 8.441406 26.09375 8.441406 C 26.226562 8.4375 26.355469 8.441406 26.488281 8.441406 C 26.535156 8.28125 26.527344 8.132812 26.515625 7.972656 C 26.417969 7.964844 26.328125 7.960938 26.226562 7.953125 C 26.226562 7.703125 26.226562 7.457031 26.226562 7.207031 C 26.257812 7.199219 26.289062 7.191406 26.320312 7.191406 C 26.472656 7.1875 26.621094 7.191406 26.773438 7.1875 C 26.847656 7.1875 26.921875 7.175781 27.003906 7.167969 C 27.003906 6.714844 27.003906 6.273438 27.003906 5.839844 C 27.589844 5.34375 28.324219 5.335938 28.996094 5.832031 C 28.996094 6.269531 28.996094 6.714844 28.996094 7.160156 C 29.261719 7.214844 29.515625 7.171875 29.773438 7.195312 C 29.773438 7.453125 29.773438 7.695312 29.773438 7.941406 C 29.691406 7.984375 29.59375 7.945312 29.503906 7.976562 C 29.503906 8.125 29.503906 8.273438 29.503906 8.433594 C 29.773438 8.449219 30.039062 8.433594 30.316406 8.445312 C 30.316406 8.878906 30.316406 9.300781 30.316406 9.738281 C 30.363281 9.734375 30.402344 9.734375 30.433594 9.726562 C 30.742188 9.667969 31.050781 9.605469 31.359375 9.546875 C 31.382812 9.542969 31.40625 9.546875 31.445312 9.546875 C 31.410156 10.015625 31.375 10.476562 31.339844 10.953125 C 31.5 10.953125 31.648438 10.953125 31.792969 10.953125 C 31.824219 11.058594 31.832031 11.507812 31.808594 11.714844 C 31.753906 11.722656 31.695312 11.726562 31.628906 11.734375 C 31.628906 12.21875 31.628906 12.699219 31.628906 13.175781 C 31.78125 13.222656 32.011719 13.207031 32.144531 13.144531 C 32.28125 13.074219 32.414062 13.007812 32.546875 12.941406 C 32.578125 12.925781 32.605469 12.917969 32.636719 12.90625 C 32.671875 13.015625 32.691406 13.960938 32.664062 14.203125 C 32.460938 14.34375 32.253906 14.488281 32.046875 14.628906 C 32.046875 15.121094 32.046875 15.605469 32.046875 16.101562 C 32.371094 16.128906 32.6875 16.144531 33.023438 16.105469 C 33.136719 15.972656 33.261719 15.835938 33.390625 15.683594 C 33.523438 16.21875 33.648438 16.738281 33.777344 17.269531 C 33.605469 17.4375 33.433594 17.605469 33.257812 17.777344 C 33.128906 17.777344 32.996094 17.777344 32.871094 17.777344 C 32.859375 17.789062 32.859375 17.792969 32.855469 17.796875 C 32.851562 17.800781 32.847656 17.804688 32.847656 17.804688 C 32.84375 18.304688 32.84375 18.804688 32.839844 19.304688 C 32.839844 19.328125 32.84375 19.351562 32.847656 19.378906 C 33.042969 19.425781 33.234375 19.40625 33.4375 19.40625 C 33.578125 19.226562 33.71875 19.039062 33.878906 18.835938 C 34.03125 19.472656 34.179688 20.089844 34.328125 20.714844 C 34.144531 20.890625 33.964844 21.070312 33.78125 21.246094 C 33.78125 21.828125 33.78125 22.410156 33.78125 22.992188 C 33.941406 23.039062 34.222656 23.042969 34.476562 23.003906 C 34.613281 22.804688 34.765625 22.597656 34.933594 22.363281 C 35.101562 23.085938 35.265625 23.773438 35.429688 24.480469 C 35.171875 24.695312 34.910156 24.914062 34.65625 25.132812 C 34.65625 25.753906 34.65625 26.359375 34.65625 26.964844 C 34.757812 27 35.148438 27.007812 35.425781 26.984375 C 35.605469 26.734375 35.765625 26.464844 35.964844 26.1875 C 36.007812 26.378906 36.050781 26.542969 36.089844 26.707031 C 36.21875 27.269531 36.347656 27.832031 36.472656 28.398438 C 36.484375 28.4375 36.484375 28.480469 36.488281 28.523438 C 36.476562 28.53125 36.46875 28.542969 36.457031 28.550781 C 36.453125 28.554688 36.449219 28.558594 36.457031 28.550781 C 36.449219 28.5625 36.453125 28.554688 36.457031 28.550781 C 36.46875 28.542969 36.476562 28.53125 36.488281 28.523438 C 36.53125 28.582031 36.527344 28.640625 36.488281 28.703125 C 36.472656 28.722656 36.46875 28.75 36.460938 28.777344 C 36.441406 28.792969 36.410156 28.800781 36.398438 28.820312 C 36.257812 29.007812 36.117188 29.195312 35.976562 29.386719 C 35.890625 29.511719 35.804688 29.640625 35.714844 29.765625 C 35.539062 30.007812 35.359375 30.25 35.175781 30.503906 C 34.878906 30.503906 34.574219 30.503906 34.25 30.503906 C 34.25 30.574219 34.25 30.628906 34.25 30.683594 C 34.25 33.351562 34.25 36.019531 34.25 38.6875 C 34.25 38.921875 34.25 39.160156 34.246094 39.394531 C 34.164062 39.191406 34.078125 38.988281 34 38.78125 C 33.753906 38.140625 33.46875 37.515625 33.140625 36.914062 C 32.863281 36.402344 32.539062 35.925781 32.15625 35.488281 C 31.539062 34.785156 30.820312 34.210938 29.996094 33.761719 C 29.367188 33.421875 28.707031 33.179688 28.011719 33.027344 C 27.777344 32.972656 27.539062 32.945312 27.304688 32.90625 C 26.855469 32.839844 26.402344 32.835938 25.953125 32.855469 C 25.660156 32.871094 25.363281 32.90625 25.074219 32.957031 C 24.675781 33.027344 24.285156 33.121094 23.902344 33.253906 C 23.402344 33.425781 22.921875 33.636719 22.472656 33.914062 C 22.253906 34.050781 22.039062 34.199219 21.824219 34.339844 C 21.796875 34.351562 21.773438 34.363281 21.75 34.378906 "/>
<path style=" stroke:none;fill-rule:nonzero;fill:rgb(34.117126%,32.917786%,33.216858%);fill-opacity:1;" d="M 20.050781 26.230469 C 20.042969 26.242188 20.035156 26.25 20.027344 26.261719 C 20.027344 26.246094 20.03125 26.234375 20.03125 26.21875 C 20.039062 26.222656 20.046875 26.226562 20.050781 26.230469 "/>
<path style=" stroke:none;fill-rule:nonzero;fill:rgb(15.956116%,17.138672%,40.968323%);fill-opacity:1;" d="M 8.027344 46.175781 C 8.0625 46.191406 8.097656 46.207031 8.125 46.226562 C 8.613281 46.582031 9.128906 46.875 9.691406 47.089844 C 10.089844 47.246094 10.5 47.355469 10.925781 47.421875 C 11.328125 47.484375 11.730469 47.515625 12.136719 47.496094 C 12.621094 47.472656 13.097656 47.402344 13.570312 47.296875 C 14.261719 47.136719 14.921875 46.890625 15.574219 46.621094 C 16.050781 46.421875 16.527344 46.222656 17.023438 46.074219 C 17.386719 45.96875 17.753906 45.882812 18.128906 45.863281 C 18.398438 45.847656 18.664062 45.832031 18.933594 45.835938 C 19.550781 45.851562 20.128906 46.019531 20.667969 46.320312 C 21.058594 46.535156 21.414062 46.796875 21.773438 47.058594 C 22.046875 47.261719 22.332031 47.457031 22.609375 47.660156 C 22.75 47.761719 22.910156 47.8125 23.070312 47.863281 C 23.621094 48.027344 24.1875 48.078125 24.761719 48.035156 C 25.496094 47.980469 26.195312 47.785156 26.84375 47.425781 C 27.417969 47.105469 27.910156 46.6875 28.25 46.113281 C 28.441406 45.792969 28.558594 45.449219 28.59375 45.078125 C 28.664062 44.398438 28.460938 43.789062 28.113281 43.214844 C 27.976562 42.984375 27.792969 42.808594 27.542969 42.707031 C 27.125 42.539062 26.726562 42.582031 26.355469 42.851562 C 26.109375 43.03125 25.957031 43.273438 25.890625 43.570312 C 25.847656 43.78125 25.863281 43.988281 25.917969 44.195312 C 25.960938 44.355469 26.003906 44.515625 26 44.679688 C 25.992188 45.238281 25.726562 45.636719 25.246094 45.898438 C 25.003906 46.03125 24.742188 46.0625 24.46875 46.042969 C 24.222656 46.023438 23.996094 45.960938 23.789062 45.832031 C 23.472656 45.636719 23.28125 45.34375 23.15625 45.007812 C 23.050781 44.722656 23.003906 44.425781 22.988281 44.121094 C 22.945312 43.144531 23.195312 42.238281 23.710938 41.414062 C 24.253906 40.542969 25.007812 39.929688 25.984375 39.605469 C 26.371094 39.476562 26.765625 39.398438 27.167969 39.351562 C 27.46875 39.320312 27.769531 39.296875 28.070312 39.304688 C 28.453125 39.3125 28.828125 39.347656 29.207031 39.40625 C 29.617188 39.46875 30 39.597656 30.367188 39.785156 C 30.796875 40 31.1875 40.28125 31.539062 40.613281 C 32.109375 41.140625 32.578125 41.757812 32.988281 42.410156 C 33.449219 43.144531 33.886719 43.894531 34.335938 44.636719 C 34.769531 45.355469 35.226562 46.066406 35.757812 46.722656 C 36.429688 47.546875 37.199219 48.261719 38.132812 48.789062 C 38.796875 49.164062 39.503906 49.429688 40.246094 49.59375 C 40.464844 49.644531 40.6875 49.679688 40.925781 49.730469 C 40.878906 49.742188 40.84375 49.757812 40.808594 49.761719 C 40.355469 49.816406 39.90625 49.878906 39.449219 49.882812 C 39.304688 49.886719 39.164062 49.90625 39.023438 49.902344 C 38.613281 49.894531 38.207031 49.875 37.800781 49.828125 C 37.308594 49.769531 36.828125 49.664062 36.359375 49.507812 C 35.65625 49.273438 35.011719 48.925781 34.433594 48.457031 C 33.898438 48.027344 33.449219 47.519531 33.054688 46.953125 C 32.523438 46.1875 32.117188 45.355469 31.789062 44.484375 C 31.679688 44.195312 31.582031 43.902344 31.476562 43.609375 C 31.433594 43.5 31.386719 43.390625 31.332031 43.289062 C 31.277344 43.191406 31.191406 43.121094 31.070312 43.117188 C 30.941406 43.109375 30.820312 43.191406 30.777344 43.3125 C 30.738281 43.417969 30.734375 43.523438 30.761719 43.632812 C 30.816406 43.890625 30.878906 44.148438 30.921875 44.40625 C 30.988281 44.824219 31.015625 45.246094 30.980469 45.671875 C 30.953125 45.980469 30.90625 46.289062 30.828125 46.585938 C 30.683594 47.136719 30.445312 47.636719 30.117188 48.097656 C 29.539062 48.90625 28.777344 49.476562 27.882812 49.886719 C 27.40625 50.105469 26.914062 50.265625 26.402344 50.375 C 26.097656 50.4375 25.789062 50.476562 25.480469 50.507812 C 25.132812 50.542969 24.785156 50.539062 24.4375 50.527344 C 24.175781 50.519531 23.914062 50.480469 23.652344 50.449219 C 23.242188 50.40625 22.847656 50.304688 22.457031 50.1875 C 21.828125 49.996094 21.230469 49.730469 20.667969 49.390625 C 20.246094 49.132812 19.828125 48.871094 19.402344 48.617188 C 19.167969 48.480469 18.917969 48.371094 18.652344 48.292969 C 18.328125 48.195312 18.003906 48.195312 17.679688 48.277344 C 17.023438 48.445312 16.371094 48.621094 15.714844 48.785156 C 15.351562 48.875 14.984375 48.960938 14.613281 49.019531 C 14.195312 49.085938 13.769531 49.109375 13.347656 49.082031 C 12.671875 49.03125 12.019531 48.886719 11.382812 48.664062 C 10.824219 48.46875 10.289062 48.230469 9.792969 47.902344 C 9.359375 47.613281 8.960938 47.285156 8.617188 46.894531 C 8.433594 46.6875 8.257812 46.472656 8.078125 46.257812 C 8.058594 46.234375 8.046875 46.203125 8.03125 46.175781 L 8.027344 46.175781 "/>
<path style=" stroke:none;fill-rule:nonzero;fill:rgb(15.956116%,17.138672%,40.968323%);fill-opacity:1;" d="M 14.921875 44.390625 C 14.945312 44.382812 14.96875 44.367188 14.996094 44.363281 C 15.46875 44.234375 15.933594 44.085938 16.378906 43.882812 C 17.042969 43.582031 17.636719 43.179688 18.128906 42.640625 C 18.503906 42.238281 18.820312 41.792969 19.09375 41.320312 C 19.324219 40.921875 19.546875 40.515625 19.757812 40.105469 C 19.992188 39.652344 20.210938 39.183594 20.441406 38.726562 C 20.75 38.121094 21.089844 37.535156 21.507812 36.996094 C 22 36.367188 22.582031 35.84375 23.28125 35.449219 C 23.796875 35.15625 24.34375 34.960938 24.914062 34.839844 C 25.488281 34.71875 26.074219 34.6875 26.65625 34.726562 C 28.035156 34.824219 29.230469 35.355469 30.277344 36.242188 C 30.757812 36.652344 31.179688 37.113281 31.539062 37.632812 C 31.707031 37.878906 31.851562 38.144531 32.007812 38.402344 C 32.023438 38.429688 32.03125 38.460938 32.058594 38.515625 C 32.011719 38.496094 31.988281 38.488281 31.96875 38.476562 C 31.550781 38.269531 31.128906 38.066406 30.683594 37.929688 C 30.253906 37.800781 29.816406 37.6875 29.367188 37.628906 C 29.011719 37.582031 28.65625 37.558594 28.300781 37.535156 C 27.921875 37.507812 27.542969 37.523438 27.171875 37.558594 C 26.363281 37.632812 25.578125 37.820312 24.828125 38.148438 C 24.457031 38.308594 24.121094 38.535156 23.792969 38.773438 C 23.386719 39.070312 23.015625 39.402344 22.679688 39.777344 C 22.421875 40.0625 22.175781 40.359375 21.9375 40.660156 C 21.570312 41.117188 21.226562 41.589844 20.851562 42.039062 C 20.253906 42.761719 19.542969 43.347656 18.679688 43.734375 C 18.160156 43.964844 17.621094 44.121094 17.0625 44.222656 C 16.675781 44.292969 16.285156 44.347656 15.890625 44.367188 C 15.621094 44.382812 15.351562 44.398438 15.085938 44.414062 C 15.03125 44.414062 14.976562 44.414062 14.925781 44.414062 C 14.921875 44.40625 14.921875 44.398438 14.921875 44.390625 "/>
<path style=" stroke:none;fill-rule:nonzero;fill:rgb(34.117126%,32.917786%,33.216858%);fill-opacity:1;" d="M 8.03125 46.175781 C 8.027344 46.167969 8.023438 46.164062 8.023438 46.164062 C 8.023438 46.167969 8.027344 46.171875 8.027344 46.175781 L 8.03125 46.175781 "/>
<path style=" stroke:none;fill-rule:nonzero;fill:rgb(34.117126%,32.917786%,33.216858%);fill-opacity:1;" d="M 20.363281 26.910156 C 20.367188 26.90625 20.371094 26.902344 20.363281 26.910156 C 20.371094 26.902344 20.367188 26.90625 20.363281 26.910156 "/>
<path style=" stroke:none;fill-rule:nonzero;fill:rgb(34.117126%,32.917786%,33.216858%);fill-opacity:1;" d="M 35.636719 26.910156 C 35.632812 26.90625 35.628906 26.902344 35.636719 26.910156 C 35.628906 26.902344 35.632812 26.90625 35.636719 26.910156 "/>
<path style=" stroke:none;fill-rule:nonzero;fill:rgb(34.117126%,32.917786%,33.216858%);fill-opacity:1;" d="M 20.363281 26.910156 C 20.359375 26.914062 20.355469 26.921875 20.363281 26.910156 C 20.355469 26.917969 20.359375 26.914062 20.363281 26.910156 "/>
<path style=" stroke:none;fill-rule:nonzero;fill:rgb(34.117126%,32.917786%,33.216858%);fill-opacity:1;" d="M 35.636719 26.910156 C 35.640625 26.914062 35.648438 26.917969 35.636719 26.910156 C 35.644531 26.921875 35.640625 26.914062 35.636719 26.910156 "/>
<path style=" stroke:none;fill-rule:nonzero;fill:rgb(34.117126%,32.917786%,33.216858%);fill-opacity:1;" d="M 36.488281 28.523438 C 36.476562 28.53125 36.46875 28.542969 36.457031 28.550781 C 36.46875 28.542969 36.476562 28.53125 36.488281 28.523438 "/>
<path style=" stroke:none;fill-rule:nonzero;fill:rgb(34.117126%,32.917786%,33.216858%);fill-opacity:1;" d="M 36.457031 28.550781 C 36.453125 28.554688 36.449219 28.5625 36.457031 28.550781 C 36.449219 28.558594 36.453125 28.554688 36.457031 28.550781 "/>
</g>
</svg>
