<?xml version="1.0" encoding="UTF-8"?>
<svg xmlns="http://www.w3.org/2000/svg" xmlns:xlink="http://www.w3.org/1999/xlink" width="56pt" height="56pt" viewBox="0 0 56 56" version="1.1">
<g id="surface1">
<rect x="0" y="0" width="56" height="56" style="fill:rgb(13.786316%,20.726013%,41.020203%);fill-opacity:1;stroke:none;"/>
<path style=" stroke:none;fill-rule:nonzero;fill:rgb(100%,100%,100%);fill-opacity:1;" d="M 3.621094 19.359375 C 3.941406 19.484375 4.269531 19.59375 4.578125 19.742188 C 5.765625 20.304688 6.9375 20.894531 8.128906 21.441406 C 8.40625 21.566406 8.75 21.636719 9.050781 21.605469 C 10.65625 21.421875 12.15625 21.78125 13.644531 22.347656 C 14.59375 22.710938 15.582031 23.015625 16.578125 23.207031 C 18.386719 23.554688 20.144531 23.175781 21.859375 22.601562 C 23.316406 22.113281 24.753906 21.566406 26.21875 21.105469 C 29.617188 20.039062 33.078125 19.953125 36.570312 20.558594 C 40.667969 21.269531 44.582031 22.53125 48.269531 24.464844 C 48.46875 24.566406 48.660156 24.683594 48.828125 24.886719 C 48.605469 24.828125 48.382812 24.777344 48.167969 24.707031 C 44.964844 23.636719 41.675781 23.011719 38.308594 22.753906 C 36.484375 22.609375 34.667969 22.542969 32.847656 22.78125 C 30.464844 23.097656 28.238281 23.84375 26.226562 25.171875 C 25.886719 25.394531 25.597656 25.695312 25.222656 26.015625 C 25.550781 26.382812 25.8125 26.699219 26.097656 26.988281 C 27.21875 28.144531 28.582031 28.976562 29.925781 29.835938 C 30.058594 29.917969 37.265625 33.105469 38.28125 33.429688 C 43.324219 35.023438 48.457031 36.21875 53.679688 37.21875 C 53.492188 37.265625 53.300781 37.34375 53.109375 37.351562 C 46.855469 37.617188 40.714844 36.921875 34.695312 35.179688 C 29.164062 33.582031 23.945312 31.238281 18.867188 28.558594 C 13.792969 25.878906 8.949219 22.8125 4.089844 19.777344 C 3.914062 19.667969 3.785156 19.488281 3.632812 19.34375 L 3.621094 19.359375 "/>
<path style=" stroke:none;fill-rule:nonzero;fill:rgb(100%,100%,100%);fill-opacity:1;" d="M 3.632812 19.34375 C 3.195312 19.152344 2.757812 18.964844 2.320312 18.773438 C 2.351562 18.714844 2.378906 18.652344 2.410156 18.59375 C 2.839844 18.800781 3.320312 18.921875 3.621094 19.359375 L 3.632812 19.34375 "/>
</g>
</svg>
