<?xml version="1.0" encoding="UTF-8"?>
<svg xmlns="http://www.w3.org/2000/svg" xmlns:xlink="http://www.w3.org/1999/xlink" width="56pt" height="56pt" viewBox="0 0 56 56" version="1.1">
<g id="surface1">
<rect x="0" y="0" width="56" height="56" style="fill:rgb(74.156189%,11.523438%,15.30304%);fill-opacity:1;stroke:none;"/>
<path style=" stroke:none;fill-rule:nonzero;fill:rgb(100%,100%,100%);fill-opacity:1;" d="M 50.683594 13.175781 C 50.660156 13.238281 50.625 13.296875 50.613281 13.359375 C 50.453125 14.445312 50.128906 15.476562 49.621094 16.445312 C 49.425781 16.816406 49.191406 17.167969 48.976562 17.53125 C 49.125 17.695312 49.132812 17.691406 49.707031 17.410156 C 49.707031 17.457031 49.707031 17.5 49.707031 17.566406 C 49.925781 17.523438 50.074219 17.367188 50.289062 17.265625 C 50.257812 17.332031 50.246094 17.367188 50.226562 17.390625 C 49.988281 17.65625 49.714844 17.863281 49.382812 18.019531 C 48.984375 18.203125 48.613281 18.457031 48.234375 18.683594 C 48.207031 18.699219 48.191406 18.734375 48.167969 18.761719 C 48.175781 18.777344 48.1875 18.789062 48.195312 18.804688 C 48.460938 18.699219 48.726562 18.59375 48.992188 18.484375 C 49.003906 18.503906 49.015625 18.519531 49.027344 18.535156 C 48.949219 18.617188 48.875 18.703125 48.792969 18.777344 C 48.296875 19.21875 47.722656 19.542969 47.140625 19.847656 C 46.257812 20.304688 45.347656 20.699219 44.398438 20.984375 C 43.332031 21.308594 42.269531 21.65625 41.175781 21.875 C 40.386719 22.03125 39.589844 22.152344 38.792969 22.269531 C 37.394531 22.476562 35.980469 22.542969 34.570312 22.601562 C 33.785156 22.632812 33 22.640625 32.21875 22.699219 C 31.59375 22.742188 30.972656 22.839844 30.351562 22.925781 C 29.449219 23.050781 28.566406 23.261719 27.6875 23.488281 C 26.097656 23.902344 24.554688 24.441406 23.074219 25.160156 C 21.832031 25.761719 20.660156 26.476562 19.570312 27.324219 C 18.445312 28.199219 17.433594 29.191406 16.542969 30.308594 C 16.503906 30.359375 16.457031 30.40625 16.382812 30.433594 C 16.40625 30.367188 16.421875 30.300781 16.453125 30.234375 C 17.109375 28.851562 18.011719 27.640625 19.125 26.589844 C 20.191406 25.582031 21.390625 24.757812 22.667969 24.042969 C 24.039062 23.28125 25.472656 22.65625 26.953125 22.136719 C 27.703125 21.871094 28.460938 21.625 29.226562 21.40625 C 29.9375 21.199219 30.660156 21.0625 31.402344 20.996094 C 32.277344 20.914062 33.152344 20.835938 34.027344 20.742188 C 34.902344 20.652344 35.777344 20.558594 36.648438 20.4375 C 37.4375 20.324219 38.21875 20.171875 39.003906 20.035156 C 39.980469 19.867188 40.941406 19.628906 41.886719 19.34375 C 43.800781 18.769531 45.617188 17.980469 47.230469 16.773438 C 48.542969 15.789062 49.621094 14.589844 50.503906 13.214844 C 50.554688 13.136719 50.621094 13.070312 50.683594 13 C 50.683594 13.058594 50.683594 13.117188 50.683594 13.175781 "/>
<path style=" stroke:none;fill-rule:nonzero;fill:rgb(100%,100%,100%);fill-opacity:1;" d="M 27.792969 40.378906 C 27.527344 40.535156 27.273438 40.710938 27 40.851562 C 26.644531 41.03125 26.277344 41.183594 25.917969 41.355469 C 25.816406 41.402344 25.726562 41.476562 25.621094 41.546875 C 25.765625 41.660156 25.890625 41.671875 26.023438 41.628906 C 26.261719 41.550781 26.5 41.472656 26.742188 41.398438 C 26.800781 41.378906 26.863281 41.359375 26.925781 41.34375 C 26.929688 41.355469 26.9375 41.371094 26.945312 41.386719 C 26.78125 41.476562 26.621094 41.570312 26.445312 41.671875 C 26.484375 41.707031 26.515625 41.730469 26.546875 41.757812 C 26.535156 41.765625 26.523438 41.777344 26.511719 41.777344 C 26 41.847656 25.488281 41.917969 24.96875 41.914062 C 24.664062 41.914062 24.363281 41.96875 24.082031 42.089844 C 24.035156 42.109375 23.992188 42.136719 23.921875 42.175781 C 24.097656 42.246094 24.246094 42.300781 24.433594 42.371094 C 24.246094 42.414062 24.085938 42.460938 23.921875 42.484375 C 23.28125 42.578125 22.636719 42.675781 21.992188 42.753906 C 21.226562 42.839844 20.460938 42.917969 19.695312 42.96875 C 19.082031 43.007812 18.46875 43.003906 17.851562 42.996094 C 17.3125 42.992188 16.773438 42.972656 16.234375 42.925781 C 15.46875 42.855469 14.710938 42.738281 13.96875 42.539062 C 13.292969 42.359375 12.644531 42.128906 12.03125 41.789062 C 10.984375 41.207031 10.183594 40.394531 9.761719 39.25 C 9.492188 38.519531 9.414062 37.761719 9.453125 36.984375 C 9.503906 36.074219 9.699219 35.199219 9.988281 34.34375 C 10.105469 33.992188 10.285156 33.667969 10.429688 33.328125 C 10.789062 32.46875 11.058594 31.585938 11.171875 30.664062 C 11.410156 28.75 10.925781 27.046875 9.648438 25.578125 C 8.757812 24.554688 7.667969 23.785156 6.492188 23.128906 C 6.164062 22.945312 5.824219 22.78125 5.488281 22.609375 C 5.425781 22.574219 5.367188 22.539062 5.316406 22.464844 C 5.75 22.527344 6.183594 22.59375 6.558594 22.648438 C 6.71875 22.507812 6.832031 22.386719 6.96875 22.300781 C 7.121094 22.199219 7.285156 22.085938 7.457031 22.058594 C 7.832031 22 8.054688 21.761719 8.253906 21.476562 C 8.316406 21.390625 8.371094 21.296875 8.453125 21.164062 C 8.507812 21.441406 8.4375 21.660156 8.394531 21.878906 C 8.378906 21.964844 8.332031 22.042969 8.308594 22.128906 C 8.179688 22.585938 7.828125 22.710938 7.410156 22.742188 C 7.34375 22.746094 7.277344 22.746094 7.210938 22.75 C 7.199219 22.75 7.1875 22.765625 7.15625 22.785156 C 7.199219 22.804688 7.234375 22.828125 7.269531 22.835938 C 8.695312 23.238281 9.992188 23.890625 11.121094 24.855469 C 12.355469 25.910156 13.234375 27.203125 13.652344 28.78125 C 13.78125 29.28125 13.851562 29.796875 13.917969 30.308594 C 13.988281 30.828125 14.039062 31.351562 14.074219 31.875 C 14.121094 32.539062 14.152344 33.203125 14.179688 33.867188 C 14.207031 34.429688 14.214844 34.992188 14.238281 35.554688 C 14.253906 35.863281 14.363281 36.144531 14.523438 36.410156 C 15.171875 37.488281 16.105469 38.230469 17.253906 38.722656 C 17.980469 39.035156 18.746094 39.222656 19.527344 39.351562 C 20.695312 39.550781 21.871094 39.558594 23.046875 39.519531 C 23.761719 39.496094 24.476562 39.421875 25.191406 39.351562 C 25.734375 39.300781 26.277344 39.230469 26.816406 39.15625 C 27.226562 39.09375 27.632812 39.015625 28.039062 38.941406 C 28.515625 38.851562 28.996094 38.761719 29.472656 38.671875 C 29.558594 38.65625 29.644531 38.636719 29.773438 38.609375 C 29.71875 38.671875 29.699219 38.714844 29.664062 38.742188 C 29.132812 39.195312 28.519531 39.5 27.867188 39.730469 C 26.996094 40.039062 26.089844 40.207031 25.167969 40.3125 C 23.777344 40.472656 22.378906 40.511719 20.980469 40.476562 C 20.285156 40.464844 19.59375 40.40625 18.898438 40.371094 C 18.800781 40.367188 18.703125 40.371094 18.601562 40.371094 C 18.597656 40.390625 18.59375 40.40625 18.59375 40.425781 C 18.78125 40.492188 18.96875 40.570312 19.160156 40.628906 C 20.078125 40.921875 21.023438 40.996094 21.980469 41.003906 C 22.84375 41.007812 23.699219 40.957031 24.550781 40.855469 C 25.28125 40.765625 26.011719 40.636719 26.738281 40.519531 C 27.082031 40.464844 27.421875 40.398438 27.761719 40.339844 C 27.769531 40.351562 27.78125 40.363281 27.792969 40.378906 "/>
<path style=" stroke:none;fill-rule:nonzero;fill:rgb(100%,100%,100%);fill-opacity:1;" d="M 48.789062 20.375 C 48.675781 20.59375 48.570312 20.820312 48.445312 21.03125 C 47.941406 21.863281 47.25 22.515625 46.457031 23.0625 C 45.300781 23.855469 44.023438 24.394531 42.699219 24.824219 C 41.671875 25.15625 40.632812 25.429688 39.570312 25.628906 C 38.832031 25.769531 38.09375 25.914062 37.347656 26.035156 C 36.824219 26.121094 36.292969 26.175781 35.769531 26.238281 C 35.335938 26.292969 34.902344 26.34375 34.46875 26.394531 C 34.34375 26.40625 34.21875 26.410156 34.09375 26.417969 C 34.015625 26.421875 33.933594 26.429688 33.855469 26.4375 C 33.855469 26.453125 33.855469 26.472656 33.855469 26.488281 C 33.933594 26.492188 34.015625 26.507812 34.097656 26.503906 C 34.6875 26.472656 35.28125 26.449219 35.871094 26.40625 C 36.445312 26.367188 37.019531 26.3125 37.59375 26.25 C 37.996094 26.207031 38.398438 26.148438 38.800781 26.085938 C 39.320312 26.007812 39.835938 25.929688 40.351562 25.832031 C 40.988281 25.710938 41.628906 25.589844 42.257812 25.4375 C 43.011719 25.257812 43.757812 25.050781 44.507812 24.851562 C 44.789062 24.773438 45.070312 24.683594 45.351562 24.597656 C 45.359375 24.613281 45.367188 24.628906 45.375 24.640625 C 45.214844 24.726562 45.058594 24.820312 44.898438 24.902344 C 43.921875 25.40625 42.910156 25.808594 41.863281 26.125 C 40.914062 26.410156 39.953125 26.628906 38.976562 26.792969 C 37.507812 27.042969 36.027344 27.15625 34.539062 27.183594 C 33.800781 27.199219 33.058594 27.1875 32.320312 27.183594 C 31.40625 27.183594 30.503906 27.285156 29.613281 27.496094 C 28.882812 27.667969 28.148438 27.820312 27.417969 28.011719 C 26.214844 28.328125 25.035156 28.734375 23.898438 29.253906 C 22.75 29.773438 21.664062 30.398438 20.671875 31.179688 C 19.84375 31.835938 19.105469 32.578125 18.46875 33.421875 C 18.234375 33.726562 18.105469 34.082031 18.078125 34.464844 C 18.054688 34.84375 18.023438 35.21875 18.023438 35.59375 C 18.019531 36.5 18.304688 37.324219 18.8125 38.066406 C 18.96875 38.296875 19.160156 38.507812 19.335938 38.726562 C 19.355469 38.753906 19.375 38.78125 19.371094 38.84375 C 19.175781 38.75 18.972656 38.664062 18.785156 38.558594 C 17.578125 37.871094 16.757812 36.851562 16.285156 35.554688 C 16.089844 35.019531 16.09375 34.453125 16.183594 33.890625 C 16.300781 33.171875 16.492188 32.476562 16.789062 31.8125 C 17.246094 30.777344 17.917969 29.894531 18.738281 29.117188 C 19.613281 28.289062 20.613281 27.628906 21.675781 27.070312 C 23.085938 26.332031 24.570312 25.765625 26.101562 25.335938 C 26.84375 25.128906 27.59375 24.917969 28.347656 24.75 C 29.246094 24.554688 30.15625 24.398438 31.066406 24.238281 C 32.015625 24.066406 32.976562 24.027344 33.9375 23.980469 C 35.117188 23.921875 36.300781 23.871094 37.480469 23.800781 C 38.109375 23.761719 38.734375 23.699219 39.359375 23.636719 C 39.964844 23.578125 40.570312 23.523438 41.167969 23.4375 C 42.808594 23.199219 44.417969 22.828125 45.921875 22.09375 C 46.769531 21.683594 47.5625 21.183594 48.328125 20.636719 C 48.464844 20.535156 48.601562 20.4375 48.742188 20.339844 C 48.757812 20.351562 48.773438 20.363281 48.789062 20.375 "/>
<path style=" stroke:none;fill-rule:nonzero;fill:rgb(100%,100%,100%);fill-opacity:1;" d="M 24.558594 37.449219 C 24.320312 37.488281 24.121094 37.542969 23.917969 37.550781 C 23.601562 37.5625 23.304688 37.457031 23.03125 37.308594 C 22.496094 37.015625 22.316406 36.445312 22.410156 35.925781 C 22.46875 35.597656 22.582031 35.285156 22.683594 34.96875 C 22.714844 34.863281 22.726562 34.773438 22.683594 34.671875 C 22.375 33.90625 22.789062 33.261719 23.449219 33.007812 C 23.699219 32.910156 23.957031 32.847656 24.226562 32.859375 C 24.367188 32.863281 24.507812 32.859375 24.640625 32.859375 C 25.09375 32.28125 25.695312 32.117188 26.382812 32.179688 C 26.984375 32.234375 27.472656 32.480469 27.816406 32.988281 C 27.863281 33.058594 27.945312 33.105469 28.019531 33.152344 C 28.164062 33.242188 28.320312 33.316406 28.460938 33.410156 C 29.097656 33.839844 29.203125 34.300781 29.003906 34.980469 C 28.792969 35.710938 28.242188 36.117188 27.410156 36.144531 C 27.132812 36.152344 26.867188 36.105469 26.605469 36.019531 C 26.152344 35.867188 25.84375 35.445312 26 34.84375 C 26.101562 34.90625 26.191406 34.976562 26.296875 35.023438 C 26.742188 35.230469 27.023438 35.058594 27.152344 34.609375 C 27.25 34.261719 26.992188 33.847656 26.640625 33.742188 C 26.144531 33.589844 25.636719 33.53125 25.136719 33.703125 C 24.449219 33.941406 24.023438 34.433594 23.917969 35.148438 C 23.855469 35.574219 24.078125 35.925781 24.429688 36.164062 C 24.84375 36.441406 25.3125 36.578125 25.796875 36.640625 C 26.113281 36.679688 26.433594 36.691406 26.75 36.695312 C 27.171875 36.699219 27.550781 36.5 27.945312 36.386719 C 28.902344 36.113281 29.851562 35.816406 30.816406 35.558594 C 31.5 35.375 32.191406 35.226562 32.886719 35.09375 C 33.597656 34.953125 34.320312 34.859375 35.046875 34.894531 C 35.378906 34.910156 35.710938 34.953125 36.015625 35.101562 C 36.15625 35.167969 36.28125 35.253906 36.394531 35.421875 C 36.296875 35.4375 36.226562 35.460938 36.152344 35.464844 C 35.457031 35.488281 34.769531 35.597656 34.085938 35.726562 C 32.96875 35.9375 31.867188 36.222656 30.796875 36.605469 C 29.972656 36.902344 29.160156 37.238281 28.335938 37.542969 C 28.082031 37.636719 27.816406 37.707031 27.546875 37.757812 C 27.164062 37.824219 26.777344 37.886719 26.386719 37.914062 C 25.714844 37.964844 25.074219 37.855469 24.558594 37.449219 "/>
<path style=" stroke:none;fill-rule:nonzero;fill:rgb(100%,100%,100%);fill-opacity:1;" d="M 45.5 26.277344 C 44.941406 26.828125 44.402344 27.382812 43.832031 27.910156 C 43.296875 28.398438 42.664062 28.738281 41.988281 28.992188 C 41.230469 29.273438 40.445312 29.433594 39.648438 29.542969 C 37.871094 29.789062 36.089844 29.730469 34.308594 29.679688 C 33.40625 29.65625 32.503906 29.671875 31.601562 29.714844 C 30.902344 29.742188 30.203125 29.820312 29.507812 29.914062 C 28.847656 30.007812 28.199219 30.140625 27.546875 30.265625 C 26.507812 30.464844 25.5 30.765625 24.503906 31.113281 C 23.40625 31.496094 22.34375 31.957031 21.320312 32.496094 C 21.292969 32.511719 21.269531 32.519531 21.21875 32.5 C 21.410156 32.339844 21.601562 32.171875 21.800781 32.019531 C 22.875 31.21875 24.050781 30.605469 25.289062 30.109375 C 26.242188 29.722656 27.21875 29.40625 28.210938 29.15625 C 28.902344 28.980469 29.605469 28.851562 30.308594 28.714844 C 30.539062 28.671875 30.78125 28.65625 31.015625 28.648438 C 31.84375 28.621094 32.671875 28.609375 33.5 28.578125 C 34.03125 28.558594 34.566406 28.515625 35.09375 28.480469 C 35.441406 28.457031 35.789062 28.4375 36.136719 28.402344 C 36.839844 28.328125 37.546875 28.257812 38.25 28.164062 C 38.945312 28.074219 39.640625 27.972656 40.328125 27.835938 C 41.066406 27.691406 41.796875 27.519531 42.527344 27.328125 C 43.507812 27.074219 44.460938 26.738281 45.382812 26.320312 C 45.417969 26.304688 45.460938 26.289062 45.5 26.277344 "/>
<path style=" stroke:none;fill-rule:nonzero;fill:rgb(100%,100%,100%);fill-opacity:1;" d="M 10.480469 21.21875 C 10.519531 21.761719 10.339844 22.21875 9.921875 22.585938 C 9.722656 22.765625 9.480469 22.851562 9.226562 22.898438 C 8.8125 22.972656 8.394531 23.007812 7.945312 22.917969 C 8 22.855469 8.039062 22.800781 8.082031 22.761719 C 8.410156 22.480469 8.785156 22.308594 9.207031 22.214844 C 9.363281 22.179688 9.519531 22.089844 9.65625 21.996094 C 9.933594 21.808594 10.152344 21.558594 10.351562 21.289062 C 10.375 21.257812 10.402344 21.226562 10.429688 21.195312 C 10.445312 21.203125 10.464844 21.210938 10.480469 21.21875 "/>
<path style=" stroke:none;fill-rule:nonzero;fill:rgb(100%,100%,100%);fill-opacity:1;" d="M 11.207031 22.238281 C 11.296875 22.824219 10.949219 23.335938 10.394531 23.484375 C 10.078125 23.566406 9.761719 23.550781 9.445312 23.515625 C 9.34375 23.503906 9.242188 23.484375 9.125 23.464844 C 9.199219 23.308594 9.324219 23.210938 9.460938 23.148438 C 9.679688 23.046875 9.910156 22.960938 10.144531 22.910156 C 10.539062 22.824219 10.878906 22.65625 11.128906 22.328125 C 11.144531 22.304688 11.167969 22.285156 11.207031 22.238281 "/>
</g>
</svg>
