<?xml version="1.0" encoding="UTF-8"?>
<svg xmlns="http://www.w3.org/2000/svg" xmlns:xlink="http://www.w3.org/1999/xlink" width="56pt" height="56pt" viewBox="0 0 56 56" version="1.1">
<g id="surface1">
<rect x="0" y="0" width="56" height="56" style="fill:rgb(95.66803%,95.779419%,96.777344%);fill-opacity:1;stroke:none;"/>
<path style=" stroke:none;fill-rule:nonzero;fill:rgb(94.389343%,93.711853%,11.31897%);fill-opacity:1;" d="M 26.992188 29.113281 C 26.972656 29.132812 26.953125 29.132812 26.953125 29.148438 C 26.953125 29.132812 26.972656 29.113281 26.992188 29.113281 "/>
<path style=" stroke:none;fill-rule:nonzero;fill:rgb(25.387573%,72.666931%,23.542786%);fill-opacity:1;" d="M 5.660156 14.625 C 5.660156 14.625 8.625 13.5 11.191406 13.660156 C 13.757812 13.820312 14.71875 15.265625 14.476562 16.707031 C 14.238281 18.152344 13.917969 24.722656 14.636719 27.128906 C 15.25 29.167969 16.320312 33.578125 21.699219 33.578125 C 25.226562 33.578125 46.945312 34.503906 46.945312 34.503906 L 48.226562 37.46875 L 14.796875 36.105469 C 14.796875 36.105469 6.21875 35.304688 5.660156 28.410156 C 5.097656 21.519531 7.992188 21.179688 8.394531 18.214844 C 8.804688 15.191406 5.660156 14.625 5.660156 14.625 "/>
<path style=" stroke:none;fill-rule:nonzero;fill:rgb(93.818665%,93.231201%,5.37262%);fill-opacity:1;" d="M 14.890625 22.269531 C 14.890625 22.269531 17.214844 21.390625 19.222656 21.515625 C 21.230469 21.640625 21.984375 22.769531 21.796875 23.902344 C 21.609375 25.03125 21.359375 30.179688 21.921875 32.0625 C 22.402344 33.660156 23.242188 37.109375 27.453125 37.109375 C 30.214844 37.109375 48.410156 37.855469 48.410156 37.855469 L 49.414062 40.179688 L 22.046875 39.09375 C 22.046875 39.09375 15.332031 38.464844 14.890625 33.066406 C 14.453125 27.667969 16.71875 27.402344 17.035156 25.082031 C 17.355469 22.714844 14.890625 22.269531 14.890625 22.269531 "/>
<path style=" stroke:none;fill-rule:nonzero;fill:rgb(92.980957%,11.471558%,14.03656%);fill-opacity:1;" d="M 23.609375 28.378906 C 23.609375 28.378906 25.429688 27.6875 27.003906 27.789062 C 28.578125 27.886719 29.167969 28.769531 29.019531 29.65625 C 28.871094 30.539062 28.675781 34.570312 29.117188 36.046875 C 29.492188 37.296875 30.148438 40 33.449219 40 C 35.613281 40 49.625 40.535156 49.625 40.535156 L 50.410156 42.355469 L 29.214844 41.550781 C 29.214844 41.550781 23.957031 41.058594 23.609375 36.832031 C 23.265625 32.605469 25.042969 32.398438 25.289062 30.582031 C 25.539062 28.726562 23.609375 28.378906 23.609375 28.378906 "/>
</g>
</svg>
