<?xml version="1.0" encoding="UTF-8"?>
<svg xmlns="http://www.w3.org/2000/svg" xmlns:xlink="http://www.w3.org/1999/xlink" width="56pt" height="56pt" viewBox="0 0 56 56" version="1.1">
<g id="surface1">
<rect x="0" y="0" width="56" height="56" style="fill:rgb(95.666504%,95.776367%,96.775818%);fill-opacity:1;stroke:none;"/>
<path style=" stroke:none;fill-rule:nonzero;fill:rgb(6.266785%,5.734253%,5.047607%);fill-opacity:1;" d="M 18.578125 10.230469 L 24.191406 10.230469 L 47.679688 30.546875 L 47.679688 35.480469 L 18.578125 10.230469 "/>
<path style=" stroke:none;fill-rule:nonzero;fill:rgb(6.266785%,5.734253%,5.047607%);fill-opacity:1;" d="M 28.4375 10.230469 L 34.050781 10.230469 L 47.679688 21.90625 L 47.679688 26.867188 L 28.4375 10.230469 "/>
<path style=" stroke:none;fill-rule:nonzero;fill:rgb(88.873291%,13.212585%,14.207458%);fill-opacity:1;" d="M 47.585938 45.789062 L 47.585938 42.289062 L 26.078125 42.289062 C 18.203125 42.285156 11.820312 35.902344 11.820312 28.027344 L 11.832031 10.207031 L 8.320312 10.207031 L 8.320312 28 C 8.320312 37.84375 16.238281 45.789062 26.085938 45.789062 L 47.585938 45.789062 "/>
<path style=" stroke:none;fill-rule:nonzero;fill:rgb(88.873291%,13.212585%,14.207458%);fill-opacity:1;" d="M 26.082031 39.65625 C 19.683594 39.65625 14.496094 34.425781 14.496094 28.027344 C 14.496094 28.023438 14.496094 28.019531 14.496094 28.019531 L 14.503906 10.21875 L 18.074219 10.21875 L 18.074219 28.019531 C 18.074219 32.449219 21.652344 36.046875 26.082031 36.046875 L 26.117188 36.046875 L 47.585938 36.03125 L 47.585938 39.65625 L 26.082031 39.65625 "/>
</g>
</svg>
