<?xml version="1.0" encoding="UTF-8"?>
<svg xmlns="http://www.w3.org/2000/svg" xmlns:xlink="http://www.w3.org/1999/xlink" width="56pt" height="56pt" viewBox="0 0 56 56" version="1.1">
<g id="surface1">
<rect x="0" y="0" width="56" height="56" style="fill:rgb(95.666504%,95.776367%,96.775818%);fill-opacity:1;stroke:none;"/>
<path style=" stroke:none;fill-rule:nonzero;fill:rgb(73.768616%,62.127686%,29.518127%);fill-opacity:1;" d="M 28 6.707031 C 16.257812 6.707031 6.707031 16.257812 6.707031 28 C 6.707031 39.738281 16.257812 49.292969 28 49.292969 C 39.738281 49.292969 49.292969 39.738281 49.292969 28 C 49.292969 16.257812 39.738281 6.707031 28 6.707031 Z M 28 50.679688 C 15.492188 50.679688 5.320312 40.507812 5.320312 28 C 5.320312 15.492188 15.492188 5.320312 28 5.320312 C 40.507812 5.320312 50.679688 15.492188 50.679688 28 C 50.679688 40.507812 40.507812 50.679688 28 50.679688 "/>
<path style=" stroke:none;fill-rule:nonzero;fill:rgb(32.914734%,15.16571%,15.04364%);fill-opacity:1;" d="M 37.027344 32.511719 L 17.050781 32.511719 L 17.050781 30.417969 L 10.050781 33.640625 L 17.050781 36.863281 L 17.050781 34.769531 L 37.027344 34.769531 L 37.027344 32.511719 "/>
<path style=" stroke:none;fill-rule:nonzero;fill:rgb(32.914734%,15.16571%,15.04364%);fill-opacity:1;" d="M 44 32.503906 L 39.515625 28.695312 L 45.355469 28.695312 L 45.355469 26.4375 L 36.859375 26.4375 L 27.804688 18.566406 L 17.050781 24.433594 L 17.050781 20.882812 L 10.640625 27.003906 L 17.050781 27.003906 L 27.402344 21.359375 L 33.378906 26.4375 L 27.117188 26.4375 L 27.117188 24.34375 L 20.117188 27.566406 L 27.117188 30.789062 L 27.117188 28.695312 L 36.03125 28.695312 L 42.523438 34.210938 L 42.523438 34.222656 L 46.09375 34.222656 L 46.09375 32.503906 L 44 32.503906 "/>
<path style=" stroke:none;fill-rule:nonzero;fill:rgb(11.839294%,10.966492%,10.192871%);fill-opacity:1;" d="M 10.238281 26.871094 C 9.25 26.871094 15.734375 15.964844 29.039062 13.535156 C 19.726562 15.847656 12.898438 23.746094 10.238281 26.871094 "/>
<path style=" stroke:none;fill-rule:nonzero;fill:rgb(11.839294%,10.966492%,10.192871%);fill-opacity:1;" d="M 13.550781 25.398438 C 13.550781 25.398438 15.304688 24.375 16.660156 25.359375 C 15.308594 26.167969 13.550781 25.398438 13.550781 25.398438 "/>
</g>
</svg>
