<?xml version="1.0" encoding="UTF-8"?>
<svg xmlns="http://www.w3.org/2000/svg" xmlns:xlink="http://www.w3.org/1999/xlink" width="56pt" height="56pt" viewBox="0 0 56 56" version="1.1">
<defs>
<clipPath id="clip1">
  <path d="M 9 9 L 47 9 L 47 47 L 9 47 Z M 9 9 "/>
</clipPath>
<clipPath id="clip2">
  <path d="M 13.222656 12.6875 C 23.042969 6.382812 43.042969 9.777344 46.074219 12.6875 C 48.257812 15.355469 37.832031 47.355469 20.253906 46.871094 C 7.101562 45.539062 8.011719 24.203125 13.222656 12.6875 Z M 13.222656 12.6875 "/>
</clipPath>
<clipPath id="clip3">
  <path d="M 9 9 L 47 9 L 47 44 L 9 44 Z M 9 9 "/>
</clipPath>
<clipPath id="clip4">
  <path d="M 13.222656 12.6875 C 23.042969 6.382812 43.042969 9.777344 46.074219 12.6875 C 48.257812 15.355469 37.832031 47.355469 20.253906 46.871094 C 7.101562 45.539062 8.011719 24.203125 13.222656 12.6875 Z M 13.222656 12.6875 "/>
</clipPath>
<clipPath id="clip5">
  <path d="M 9 9 L 46 9 L 46 44 L 9 44 Z M 9 9 "/>
</clipPath>
<clipPath id="clip6">
  <path d="M 13.222656 12.6875 C 23.042969 6.382812 43.042969 9.777344 46.074219 12.6875 C 48.257812 15.355469 37.832031 47.355469 20.253906 46.871094 C 7.101562 45.539062 8.011719 24.203125 13.222656 12.6875 Z M 13.222656 12.6875 "/>
</clipPath>
<clipPath id="clip7">
  <path d="M 9 9 L 46 9 L 46 43 L 9 43 Z M 9 9 "/>
</clipPath>
<clipPath id="clip8">
  <path d="M 13.222656 12.6875 C 23.042969 6.382812 43.042969 9.777344 46.074219 12.6875 C 48.257812 15.355469 37.832031 47.355469 20.253906 46.871094 C 7.101562 45.539062 8.011719 24.203125 13.222656 12.6875 Z M 13.222656 12.6875 "/>
</clipPath>
<clipPath id="clip9">
  <path d="M 9 9 L 45 9 L 45 43 L 9 43 Z M 9 9 "/>
</clipPath>
<clipPath id="clip10">
  <path d="M 13.222656 12.6875 C 23.042969 6.382812 43.042969 9.777344 46.074219 12.6875 C 48.257812 15.355469 37.832031 47.355469 20.253906 46.871094 C 7.101562 45.539062 8.011719 24.203125 13.222656 12.6875 Z M 13.222656 12.6875 "/>
</clipPath>
<clipPath id="clip11">
  <path d="M 9 9 L 45 9 L 45 42 L 9 42 Z M 9 9 "/>
</clipPath>
<clipPath id="clip12">
  <path d="M 13.222656 12.6875 C 23.042969 6.382812 43.042969 9.777344 46.074219 12.6875 C 48.257812 15.355469 37.832031 47.355469 20.253906 46.871094 C 7.101562 45.539062 8.011719 24.203125 13.222656 12.6875 Z M 13.222656 12.6875 "/>
</clipPath>
<clipPath id="clip13">
  <path d="M 9 9 L 44 9 L 44 41 L 9 41 Z M 9 9 "/>
</clipPath>
<clipPath id="clip14">
  <path d="M 13.222656 12.6875 C 23.042969 6.382812 43.042969 9.777344 46.074219 12.6875 C 48.257812 15.355469 37.832031 47.355469 20.253906 46.871094 C 7.101562 45.539062 8.011719 24.203125 13.222656 12.6875 Z M 13.222656 12.6875 "/>
</clipPath>
<clipPath id="clip15">
  <path d="M 9 9 L 43 9 L 43 40 L 9 40 Z M 9 9 "/>
</clipPath>
<clipPath id="clip16">
  <path d="M 13.222656 12.6875 C 23.042969 6.382812 43.042969 9.777344 46.074219 12.6875 C 48.257812 15.355469 37.832031 47.355469 20.253906 46.871094 C 7.101562 45.539062 8.011719 24.203125 13.222656 12.6875 Z M 13.222656 12.6875 "/>
</clipPath>
<clipPath id="clip17">
  <path d="M 9 9 L 42 9 L 42 39 L 9 39 Z M 9 9 "/>
</clipPath>
<clipPath id="clip18">
  <path d="M 13.222656 12.6875 C 23.042969 6.382812 43.042969 9.777344 46.074219 12.6875 C 48.257812 15.355469 37.832031 47.355469 20.253906 46.871094 C 7.101562 45.539062 8.011719 24.203125 13.222656 12.6875 Z M 13.222656 12.6875 "/>
</clipPath>
<clipPath id="clip19">
  <path d="M 9 9 L 41 9 L 41 38 L 9 38 Z M 9 9 "/>
</clipPath>
<clipPath id="clip20">
  <path d="M 13.222656 12.6875 C 23.042969 6.382812 43.042969 9.777344 46.074219 12.6875 C 48.257812 15.355469 37.832031 47.355469 20.253906 46.871094 C 7.101562 45.539062 8.011719 24.203125 13.222656 12.6875 Z M 13.222656 12.6875 "/>
</clipPath>
<clipPath id="clip21">
  <path d="M 9 9 L 40 9 L 40 37 L 9 37 Z M 9 9 "/>
</clipPath>
<clipPath id="clip22">
  <path d="M 13.222656 12.6875 C 23.042969 6.382812 43.042969 9.777344 46.074219 12.6875 C 48.257812 15.355469 37.832031 47.355469 20.253906 46.871094 C 7.101562 45.539062 8.011719 24.203125 13.222656 12.6875 Z M 13.222656 12.6875 "/>
</clipPath>
<clipPath id="clip23">
  <path d="M 9 9 L 39 9 L 39 36 L 9 36 Z M 9 9 "/>
</clipPath>
<clipPath id="clip24">
  <path d="M 13.222656 12.6875 C 23.042969 6.382812 43.042969 9.777344 46.074219 12.6875 C 48.257812 15.355469 37.832031 47.355469 20.253906 46.871094 C 7.101562 45.539062 8.011719 24.203125 13.222656 12.6875 Z M 13.222656 12.6875 "/>
</clipPath>
<clipPath id="clip25">
  <path d="M 9 9 L 38 9 L 38 36 L 9 36 Z M 9 9 "/>
</clipPath>
<clipPath id="clip26">
  <path d="M 13.222656 12.6875 C 23.042969 6.382812 43.042969 9.777344 46.074219 12.6875 C 48.257812 15.355469 37.832031 47.355469 20.253906 46.871094 C 7.101562 45.539062 8.011719 24.203125 13.222656 12.6875 Z M 13.222656 12.6875 "/>
</clipPath>
<clipPath id="clip27">
  <path d="M 9 9 L 38 9 L 38 35 L 9 35 Z M 9 9 "/>
</clipPath>
<clipPath id="clip28">
  <path d="M 13.222656 12.6875 C 23.042969 6.382812 43.042969 9.777344 46.074219 12.6875 C 48.257812 15.355469 37.832031 47.355469 20.253906 46.871094 C 7.101562 45.539062 8.011719 24.203125 13.222656 12.6875 Z M 13.222656 12.6875 "/>
</clipPath>
<clipPath id="clip29">
  <path d="M 9 9 L 37 9 L 37 35 L 9 35 Z M 9 9 "/>
</clipPath>
<clipPath id="clip30">
  <path d="M 13.222656 12.6875 C 23.042969 6.382812 43.042969 9.777344 46.074219 12.6875 C 48.257812 15.355469 37.832031 47.355469 20.253906 46.871094 C 7.101562 45.539062 8.011719 24.203125 13.222656 12.6875 Z M 13.222656 12.6875 "/>
</clipPath>
<clipPath id="clip31">
  <path d="M 9 9 L 37 9 L 37 34 L 9 34 Z M 9 9 "/>
</clipPath>
<clipPath id="clip32">
  <path d="M 13.222656 12.6875 C 23.042969 6.382812 43.042969 9.777344 46.074219 12.6875 C 48.257812 15.355469 37.832031 47.355469 20.253906 46.871094 C 7.101562 45.539062 8.011719 24.203125 13.222656 12.6875 Z M 13.222656 12.6875 "/>
</clipPath>
<clipPath id="clip33">
  <path d="M 9 9 L 36 9 L 36 33 L 9 33 Z M 9 9 "/>
</clipPath>
<clipPath id="clip34">
  <path d="M 13.222656 12.6875 C 23.042969 6.382812 43.042969 9.777344 46.074219 12.6875 C 48.257812 15.355469 37.832031 47.355469 20.253906 46.871094 C 7.101562 45.539062 8.011719 24.203125 13.222656 12.6875 Z M 13.222656 12.6875 "/>
</clipPath>
<clipPath id="clip35">
  <path d="M 9 9 L 35 9 L 35 32 L 9 32 Z M 9 9 "/>
</clipPath>
<clipPath id="clip36">
  <path d="M 13.222656 12.6875 C 23.042969 6.382812 43.042969 9.777344 46.074219 12.6875 C 48.257812 15.355469 37.832031 47.355469 20.253906 46.871094 C 7.101562 45.539062 8.011719 24.203125 13.222656 12.6875 Z M 13.222656 12.6875 "/>
</clipPath>
<clipPath id="clip37">
  <path d="M 9 9 L 34 9 L 34 31 L 9 31 Z M 9 9 "/>
</clipPath>
<clipPath id="clip38">
  <path d="M 13.222656 12.6875 C 23.042969 6.382812 43.042969 9.777344 46.074219 12.6875 C 48.257812 15.355469 37.832031 47.355469 20.253906 46.871094 C 7.101562 45.539062 8.011719 24.203125 13.222656 12.6875 Z M 13.222656 12.6875 "/>
</clipPath>
<clipPath id="clip39">
  <path d="M 9 9 L 33 9 L 33 30 L 9 30 Z M 9 9 "/>
</clipPath>
<clipPath id="clip40">
  <path d="M 13.222656 12.6875 C 23.042969 6.382812 43.042969 9.777344 46.074219 12.6875 C 48.257812 15.355469 37.832031 47.355469 20.253906 46.871094 C 7.101562 45.539062 8.011719 24.203125 13.222656 12.6875 Z M 13.222656 12.6875 "/>
</clipPath>
<clipPath id="clip41">
  <path d="M 9 9 L 32 9 L 32 29 L 9 29 Z M 9 9 "/>
</clipPath>
<clipPath id="clip42">
  <path d="M 13.222656 12.6875 C 23.042969 6.382812 43.042969 9.777344 46.074219 12.6875 C 48.257812 15.355469 37.832031 47.355469 20.253906 46.871094 C 7.101562 45.539062 8.011719 24.203125 13.222656 12.6875 Z M 13.222656 12.6875 "/>
</clipPath>
<clipPath id="clip43">
  <path d="M 9 9 L 31 9 L 31 28 L 9 28 Z M 9 9 "/>
</clipPath>
<clipPath id="clip44">
  <path d="M 13.222656 12.6875 C 23.042969 6.382812 43.042969 9.777344 46.074219 12.6875 C 48.257812 15.355469 37.832031 47.355469 20.253906 46.871094 C 7.101562 45.539062 8.011719 24.203125 13.222656 12.6875 Z M 13.222656 12.6875 "/>
</clipPath>
<clipPath id="clip45">
  <path d="M 9 9 L 30 9 L 30 28 L 9 28 Z M 9 9 "/>
</clipPath>
<clipPath id="clip46">
  <path d="M 13.222656 12.6875 C 23.042969 6.382812 43.042969 9.777344 46.074219 12.6875 C 48.257812 15.355469 37.832031 47.355469 20.253906 46.871094 C 7.101562 45.539062 8.011719 24.203125 13.222656 12.6875 Z M 13.222656 12.6875 "/>
</clipPath>
<clipPath id="clip47">
  <path d="M 9 9 L 30 9 L 30 27 L 9 27 Z M 9 9 "/>
</clipPath>
<clipPath id="clip48">
  <path d="M 13.222656 12.6875 C 23.042969 6.382812 43.042969 9.777344 46.074219 12.6875 C 48.257812 15.355469 37.832031 47.355469 20.253906 46.871094 C 7.101562 45.539062 8.011719 24.203125 13.222656 12.6875 Z M 13.222656 12.6875 "/>
</clipPath>
<clipPath id="clip49">
  <path d="M 9 9 L 29 9 L 29 27 L 9 27 Z M 9 9 "/>
</clipPath>
<clipPath id="clip50">
  <path d="M 13.222656 12.6875 C 23.042969 6.382812 43.042969 9.777344 46.074219 12.6875 C 48.257812 15.355469 37.832031 47.355469 20.253906 46.871094 C 7.101562 45.539062 8.011719 24.203125 13.222656 12.6875 Z M 13.222656 12.6875 "/>
</clipPath>
<clipPath id="clip51">
  <path d="M 9 9 L 29 9 L 29 26 L 9 26 Z M 9 9 "/>
</clipPath>
<clipPath id="clip52">
  <path d="M 13.222656 12.6875 C 23.042969 6.382812 43.042969 9.777344 46.074219 12.6875 C 48.257812 15.355469 37.832031 47.355469 20.253906 46.871094 C 7.101562 45.539062 8.011719 24.203125 13.222656 12.6875 Z M 13.222656 12.6875 "/>
</clipPath>
<clipPath id="clip53">
  <path d="M 10 9 L 29 9 L 29 26 L 10 26 Z M 10 9 "/>
</clipPath>
<clipPath id="clip54">
  <path d="M 13.222656 12.6875 C 23.042969 6.382812 43.042969 9.777344 46.074219 12.6875 C 48.257812 15.355469 37.832031 47.355469 20.253906 46.871094 C 7.101562 45.539062 8.011719 24.203125 13.222656 12.6875 Z M 13.222656 12.6875 "/>
</clipPath>
<clipPath id="clip55">
  <path d="M 10 9 L 28 9 L 28 25 L 10 25 Z M 10 9 "/>
</clipPath>
<clipPath id="clip56">
  <path d="M 13.222656 12.6875 C 23.042969 6.382812 43.042969 9.777344 46.074219 12.6875 C 48.257812 15.355469 37.832031 47.355469 20.253906 46.871094 C 7.101562 45.539062 8.011719 24.203125 13.222656 12.6875 Z M 13.222656 12.6875 "/>
</clipPath>
<clipPath id="clip57">
  <path d="M 11 9 L 28 9 L 28 25 L 11 25 Z M 11 9 "/>
</clipPath>
<clipPath id="clip58">
  <path d="M 13.222656 12.6875 C 23.042969 6.382812 43.042969 9.777344 46.074219 12.6875 C 48.257812 15.355469 37.832031 47.355469 20.253906 46.871094 C 7.101562 45.539062 8.011719 24.203125 13.222656 12.6875 Z M 13.222656 12.6875 "/>
</clipPath>
<clipPath id="clip59">
  <path d="M 11 9 L 27 9 L 27 24 L 11 24 Z M 11 9 "/>
</clipPath>
<clipPath id="clip60">
  <path d="M 13.222656 12.6875 C 23.042969 6.382812 43.042969 9.777344 46.074219 12.6875 C 48.257812 15.355469 37.832031 47.355469 20.253906 46.871094 C 7.101562 45.539062 8.011719 24.203125 13.222656 12.6875 Z M 13.222656 12.6875 "/>
</clipPath>
<clipPath id="clip61">
  <path d="M 12 9 L 27 9 L 27 24 L 12 24 Z M 12 9 "/>
</clipPath>
<clipPath id="clip62">
  <path d="M 13.222656 12.6875 C 23.042969 6.382812 43.042969 9.777344 46.074219 12.6875 C 48.257812 15.355469 37.832031 47.355469 20.253906 46.871094 C 7.101562 45.539062 8.011719 24.203125 13.222656 12.6875 Z M 13.222656 12.6875 "/>
</clipPath>
<clipPath id="clip63">
  <path d="M 12 9 L 26 9 L 26 23 L 12 23 Z M 12 9 "/>
</clipPath>
<clipPath id="clip64">
  <path d="M 13.222656 12.6875 C 23.042969 6.382812 43.042969 9.777344 46.074219 12.6875 C 48.257812 15.355469 37.832031 47.355469 20.253906 46.871094 C 7.101562 45.539062 8.011719 24.203125 13.222656 12.6875 Z M 13.222656 12.6875 "/>
</clipPath>
<clipPath id="clip65">
  <path d="M 13 10 L 26 10 L 26 23 L 13 23 Z M 13 10 "/>
</clipPath>
<clipPath id="clip66">
  <path d="M 13.222656 12.6875 C 23.042969 6.382812 43.042969 9.777344 46.074219 12.6875 C 48.257812 15.355469 37.832031 47.355469 20.253906 46.871094 C 7.101562 45.539062 8.011719 24.203125 13.222656 12.6875 Z M 13.222656 12.6875 "/>
</clipPath>
<clipPath id="clip67">
  <path d="M 13 10 L 25 10 L 25 22 L 13 22 Z M 13 10 "/>
</clipPath>
<clipPath id="clip68">
  <path d="M 13.222656 12.6875 C 23.042969 6.382812 43.042969 9.777344 46.074219 12.6875 C 48.257812 15.355469 37.832031 47.355469 20.253906 46.871094 C 7.101562 45.539062 8.011719 24.203125 13.222656 12.6875 Z M 13.222656 12.6875 "/>
</clipPath>
<clipPath id="clip69">
  <path d="M 13 11 L 25 11 L 25 22 L 13 22 Z M 13 11 "/>
</clipPath>
<clipPath id="clip70">
  <path d="M 13.222656 12.6875 C 23.042969 6.382812 43.042969 9.777344 46.074219 12.6875 C 48.257812 15.355469 37.832031 47.355469 20.253906 46.871094 C 7.101562 45.539062 8.011719 24.203125 13.222656 12.6875 Z M 13.222656 12.6875 "/>
</clipPath>
<clipPath id="clip71">
  <path d="M 14 11 L 24 11 L 24 21 L 14 21 Z M 14 11 "/>
</clipPath>
<clipPath id="clip72">
  <path d="M 13.222656 12.6875 C 23.042969 6.382812 43.042969 9.777344 46.074219 12.6875 C 48.257812 15.355469 37.832031 47.355469 20.253906 46.871094 C 7.101562 45.539062 8.011719 24.203125 13.222656 12.6875 Z M 13.222656 12.6875 "/>
</clipPath>
<clipPath id="clip73">
  <path d="M 14 12 L 24 12 L 24 21 L 14 21 Z M 14 12 "/>
</clipPath>
<clipPath id="clip74">
  <path d="M 13.222656 12.6875 C 23.042969 6.382812 43.042969 9.777344 46.074219 12.6875 C 48.257812 15.355469 37.832031 47.355469 20.253906 46.871094 C 7.101562 45.539062 8.011719 24.203125 13.222656 12.6875 Z M 13.222656 12.6875 "/>
</clipPath>
<clipPath id="clip75">
  <path d="M 15 12 L 23 12 L 23 21 L 15 21 Z M 15 12 "/>
</clipPath>
<clipPath id="clip76">
  <path d="M 13.222656 12.6875 C 23.042969 6.382812 43.042969 9.777344 46.074219 12.6875 C 48.257812 15.355469 37.832031 47.355469 20.253906 46.871094 C 7.101562 45.539062 8.011719 24.203125 13.222656 12.6875 Z M 13.222656 12.6875 "/>
</clipPath>
<clipPath id="clip77">
  <path d="M 15 12 L 23 12 L 23 20 L 15 20 Z M 15 12 "/>
</clipPath>
<clipPath id="clip78">
  <path d="M 13.222656 12.6875 C 23.042969 6.382812 43.042969 9.777344 46.074219 12.6875 C 48.257812 15.355469 37.832031 47.355469 20.253906 46.871094 C 7.101562 45.539062 8.011719 24.203125 13.222656 12.6875 Z M 13.222656 12.6875 "/>
</clipPath>
<clipPath id="clip79">
  <path d="M 16 13 L 22 13 L 22 20 L 16 20 Z M 16 13 "/>
</clipPath>
<clipPath id="clip80">
  <path d="M 13.222656 12.6875 C 23.042969 6.382812 43.042969 9.777344 46.074219 12.6875 C 48.257812 15.355469 37.832031 47.355469 20.253906 46.871094 C 7.101562 45.539062 8.011719 24.203125 13.222656 12.6875 Z M 13.222656 12.6875 "/>
</clipPath>
<clipPath id="clip81">
  <path d="M 16 13 L 22 13 L 22 19 L 16 19 Z M 16 13 "/>
</clipPath>
<clipPath id="clip82">
  <path d="M 13.222656 12.6875 C 23.042969 6.382812 43.042969 9.777344 46.074219 12.6875 C 48.257812 15.355469 37.832031 47.355469 20.253906 46.871094 C 7.101562 45.539062 8.011719 24.203125 13.222656 12.6875 Z M 13.222656 12.6875 "/>
</clipPath>
<clipPath id="clip83">
  <path d="M 17 14 L 22 14 L 22 19 L 17 19 Z M 17 14 "/>
</clipPath>
<clipPath id="clip84">
  <path d="M 13.222656 12.6875 C 23.042969 6.382812 43.042969 9.777344 46.074219 12.6875 C 48.257812 15.355469 37.832031 47.355469 20.253906 46.871094 C 7.101562 45.539062 8.011719 24.203125 13.222656 12.6875 Z M 13.222656 12.6875 "/>
</clipPath>
<clipPath id="clip85">
  <path d="M 17 14 L 21 14 L 21 18 L 17 18 Z M 17 14 "/>
</clipPath>
<clipPath id="clip86">
  <path d="M 13.222656 12.6875 C 23.042969 6.382812 43.042969 9.777344 46.074219 12.6875 C 48.257812 15.355469 37.832031 47.355469 20.253906 46.871094 C 7.101562 45.539062 8.011719 24.203125 13.222656 12.6875 Z M 13.222656 12.6875 "/>
</clipPath>
<clipPath id="clip87">
  <path d="M 18 15 L 21 15 L 21 18 L 18 18 Z M 18 15 "/>
</clipPath>
<clipPath id="clip88">
  <path d="M 13.222656 12.6875 C 23.042969 6.382812 43.042969 9.777344 46.074219 12.6875 C 48.257812 15.355469 37.832031 47.355469 20.253906 46.871094 C 7.101562 45.539062 8.011719 24.203125 13.222656 12.6875 Z M 13.222656 12.6875 "/>
</clipPath>
<clipPath id="clip89">
  <path d="M 18 15 L 20 15 L 20 17 L 18 17 Z M 18 15 "/>
</clipPath>
<clipPath id="clip90">
  <path d="M 13.222656 12.6875 C 23.042969 6.382812 43.042969 9.777344 46.074219 12.6875 C 48.257812 15.355469 37.832031 47.355469 20.253906 46.871094 C 7.101562 45.539062 8.011719 24.203125 13.222656 12.6875 Z M 13.222656 12.6875 "/>
</clipPath>
</defs>
<g id="surface1">
<rect x="0" y="0" width="56" height="56" style="fill:rgb(95.666504%,95.776367%,96.775818%);fill-opacity:1;stroke:none;"/>
<g clip-path="url(#clip1)" clip-rule="nonzero">
<g clip-path="url(#clip2)" clip-rule="nonzero">
<path style=" stroke:none;fill-rule:nonzero;fill:rgb(55.276489%,10.177612%,14.564514%);fill-opacity:1;" d="M 7.101562 6.324219 L 48.195312 6.324219 L 48.195312 47.417969 L 7.101562 47.417969 L 7.101562 6.324219 "/>
</g>
</g>
<g clip-path="url(#clip3)" clip-rule="nonzero">
<g clip-path="url(#clip4)" clip-rule="nonzero">
<path style=" stroke:none;fill-rule:nonzero;fill:rgb(55.276489%,10.177612%,14.564514%);fill-opacity:1;" d="M 40.96875 33.3125 C 36.238281 39.351562 29.507812 42.902344 22.449219 43.757812 C 18.921875 44.1875 15.308594 43.941406 11.828125 42.996094 C 10.085938 42.527344 8.375 41.964844 6.722656 41.054688 L 6.921875 41.054688 L 6.921875 6.140625 L 44.558594 6.140625 L 44.558594 5.117188 C 44.921875 5.9375 45.246094 6.777344 45.519531 7.625 C 46.066406 9.324219 46.457031 11.066406 46.667969 12.832031 C 47.527344 19.890625 45.699219 27.273438 40.96875 33.3125 "/>
<path style=" stroke:none;fill-rule:nonzero;fill:rgb(55.673218%,10.162354%,14.48822%);fill-opacity:1;" d="M 40.71875 33.113281 C 36.039062 39.085938 29.386719 42.59375 22.410156 43.441406 C 18.921875 43.863281 15.351562 43.582031 11.910156 42.652344 C 10.1875 42.183594 8.5 41.597656 6.863281 40.691406 L 6.921875 40.691406 L 6.921875 6.140625 L 44.378906 6.140625 L 44.378906 5.242188 C 44.558594 6.054688 45 6.882812 45.269531 7.722656 C 45.8125 9.402344 46.167969 11.125 46.382812 12.867188 C 47.226562 19.84375 45.394531 27.144531 40.71875 33.113281 "/>
<path style=" stroke:none;fill-rule:nonzero;fill:rgb(56.082153%,10.240173%,14.46228%);fill-opacity:1;" d="M 40.464844 32.917969 C 35.84375 38.820312 29.269531 42.285156 22.371094 43.125 C 18.925781 43.542969 15.398438 43.304688 11.992188 42.382812 C 10.292969 41.921875 8.621094 41.257812 7.007812 40.453125 C 6.605469 40.25 6.203125 40.144531 5.808594 39.78125 L 6.921875 39.78125 L 6.921875 6.140625 L 44.015625 6.140625 L 44.015625 5.371094 C 44.378906 6.175781 44.664062 6.992188 44.929688 7.820312 C 45.46875 9.480469 45.835938 11.183594 46.046875 12.90625 C 46.882812 19.804688 45.089844 27.019531 40.464844 32.917969 "/>
</g>
</g>
<g clip-path="url(#clip5)" clip-rule="nonzero">
<g clip-path="url(#clip6)" clip-rule="nonzero">
<path style=" stroke:none;fill-rule:nonzero;fill:rgb(56.477356%,10.308838%,14.492798%);fill-opacity:1;" d="M 40.214844 32.722656 C 35.648438 38.550781 29.148438 41.980469 22.332031 42.808594 C 18.925781 43.222656 15.441406 42.984375 12.078125 42.074219 C 10.394531 41.621094 8.746094 41.011719 7.148438 40.214844 C 6.75 40.015625 6.355469 39.78125 5.964844 39.597656 L 6.921875 39.597656 L 6.921875 6.140625 L 43.652344 6.140625 L 43.652344 5.5 C 44.015625 6.292969 44.328125 7.101562 44.59375 7.917969 C 45.121094 9.558594 45.503906 11.242188 45.710938 12.945312 C 46.539062 19.761719 44.78125 26.890625 40.214844 32.722656 "/>
</g>
</g>
<g clip-path="url(#clip7)" clip-rule="nonzero">
<g clip-path="url(#clip8)" clip-rule="nonzero">
<path style=" stroke:none;fill-rule:nonzero;fill:rgb(56.887817%,10.263062%,14.524841%);fill-opacity:1;" d="M 39.964844 32.523438 C 35.449219 38.285156 29.027344 41.671875 22.296875 42.492188 C 18.929688 42.898438 15.484375 42.667969 12.160156 41.765625 C 10.5 41.316406 8.867188 40.671875 7.292969 39.886719 C 6.898438 39.691406 6.507812 39.597656 6.121094 39.234375 L 6.921875 39.234375 L 6.921875 6.140625 L 43.46875 6.140625 L 43.46875 5.625 C 43.832031 6.410156 44.082031 7.207031 44.34375 8.019531 C 44.867188 9.636719 45.21875 11.300781 45.421875 12.984375 C 46.238281 19.71875 44.476562 26.765625 39.964844 32.523438 "/>
<path style=" stroke:none;fill-rule:nonzero;fill:rgb(57.298279%,10.336304%,14.48822%);fill-opacity:1;" d="M 39.710938 32.328125 C 35.253906 38.019531 28.910156 41.367188 22.257812 42.171875 C 18.929688 42.578125 15.527344 42.347656 12.246094 41.460938 C 10.601562 41.015625 8.992188 40.425781 7.433594 39.648438 C 7.042969 39.453125 6.660156 39.234375 6.277344 39.054688 L 6.921875 39.054688 L 6.921875 6.140625 L 43.105469 6.140625 L 43.105469 5.753906 C 43.46875 6.527344 43.746094 7.316406 44.003906 8.117188 C 44.519531 9.714844 44.886719 11.359375 45.089844 13.023438 C 45.894531 19.675781 44.171875 26.636719 39.710938 32.328125 "/>
</g>
</g>
<g clip-path="url(#clip9)" clip-rule="nonzero">
<g clip-path="url(#clip10)" clip-rule="nonzero">
<path style=" stroke:none;fill-rule:nonzero;fill:rgb(57.736206%,10.380554%,14.564514%);fill-opacity:1;" d="M 39.460938 32.132812 C 35.054688 37.753906 28.789062 41.058594 22.21875 41.855469 C 18.933594 42.257812 15.570312 42.027344 12.328125 41.152344 C 10.707031 40.710938 9.113281 40.085938 7.578125 39.320312 C 7.191406 39.128906 6.8125 38.871094 6.433594 38.691406 L 6.921875 38.691406 L 6.921875 6.140625 L 42.742188 6.140625 L 42.742188 5.878906 C 43.105469 6.644531 43.410156 7.425781 43.664062 8.214844 C 44.175781 9.796875 44.554688 11.417969 44.753906 13.0625 C 45.550781 19.632812 43.863281 26.507812 39.460938 32.132812 "/>
</g>
</g>
<g clip-path="url(#clip11)" clip-rule="nonzero">
<g clip-path="url(#clip12)" clip-rule="nonzero">
<path style=" stroke:none;fill-rule:nonzero;fill:rgb(58.187866%,10.308838%,14.64386%);fill-opacity:1;" d="M 39.210938 31.933594 C 34.859375 37.488281 28.667969 40.753906 22.179688 41.539062 C 18.933594 41.933594 15.613281 41.710938 12.410156 40.84375 C 10.808594 40.410156 9.238281 39.839844 7.71875 39.082031 C 7.339844 38.894531 6.960938 38.691406 6.589844 38.507812 L 6.921875 38.507812 L 6.921875 6.140625 L 42.558594 6.140625 L 42.558594 6.007812 C 42.921875 6.761719 43.164062 7.53125 43.417969 8.3125 C 43.921875 9.875 44.265625 11.476562 44.464844 13.101562 C 45.253906 19.589844 43.558594 26.382812 39.210938 31.933594 "/>
<path style=" stroke:none;fill-rule:nonzero;fill:rgb(58.642578%,10.350037%,14.717102%);fill-opacity:1;" d="M 38.957031 31.738281 C 34.660156 37.21875 28.550781 40.445312 22.140625 41.222656 C 18.9375 41.613281 15.65625 41.390625 12.496094 40.535156 C 10.914062 40.105469 9.359375 39.554688 7.863281 38.804688 C 7.113281 38.433594 6.375 37.960938 5.652344 37.597656 L 6.921875 37.597656 L 6.921875 6.140625 L 42.195312 6.140625 L 42.195312 6.132812 C 42.558594 6.882812 42.828125 7.640625 43.078125 8.410156 C 43.574219 9.953125 43.933594 11.535156 44.128906 13.140625 C 44.90625 19.546875 43.253906 26.253906 38.957031 31.738281 "/>
<path style=" stroke:none;fill-rule:nonzero;fill:rgb(59.054565%,10.281372%,14.801025%);fill-opacity:1;" d="M 38.707031 31.539062 C 34.464844 36.957031 28.429688 40.136719 22.101562 40.90625 C 18.9375 41.289062 15.703125 41.070312 12.578125 40.226562 C 11.015625 39.800781 9.484375 39.214844 8.003906 38.472656 C 7.261719 38.105469 6.535156 37.78125 5.824219 37.234375 L 6.921875 37.234375 L 6.921875 6.140625 L 41.46875 6.140625 L 41.46875 5.164062 C 41.652344 5.527344 41.804688 5.894531 41.964844 6.261719 C 42.28125 7 42.558594 7.75 42.804688 8.511719 C 43.292969 10.03125 43.636719 11.59375 43.828125 13.175781 C 44.59375 19.503906 42.949219 26.125 38.707031 31.539062 "/>
</g>
</g>
<g clip-path="url(#clip13)" clip-rule="nonzero">
<g clip-path="url(#clip14)" clip-rule="nonzero">
<path style=" stroke:none;fill-rule:nonzero;fill:rgb(59.484863%,10.331726%,14.883423%);fill-opacity:1;" d="M 38.457031 31.34375 C 34.269531 36.6875 28.308594 39.832031 22.066406 40.589844 C 18.941406 40.96875 15.746094 40.753906 12.664062 39.917969 C 11.121094 39.5 9.605469 38.960938 8.144531 38.230469 C 7.414062 37.867188 6.695312 37.417969 5.992188 37.050781 L 6.921875 37.050781 L 6.921875 6.140625 L 41.105469 6.140625 L 41.105469 5.308594 C 41.285156 5.664062 41.472656 6.023438 41.632812 6.390625 C 41.945312 7.117188 42.238281 7.855469 42.480469 8.609375 C 42.964844 10.109375 43.308594 11.65625 43.5 13.214844 C 44.261719 19.460938 42.640625 26 38.457031 31.34375 "/>
<path style=" stroke:none;fill-rule:nonzero;fill:rgb(59.884644%,10.261536%,14.968872%);fill-opacity:1;" d="M 38.203125 31.148438 C 34.070312 36.421875 28.191406 39.523438 22.027344 40.273438 C 18.941406 40.648438 15.789062 40.433594 12.746094 39.609375 C 11.222656 39.199219 9.730469 38.617188 8.289062 37.898438 C 7.566406 37.539062 6.855469 37.234375 6.164062 36.691406 L 6.921875 36.691406 L 6.921875 6.140625 L 40.921875 6.140625 L 40.921875 5.449219 C 41.105469 5.800781 41.234375 6.15625 41.390625 6.515625 C 41.703125 7.234375 41.964844 7.964844 42.203125 8.707031 C 42.679688 10.191406 43.011719 11.714844 43.195312 13.253906 C 43.945312 19.417969 42.335938 25.871094 38.203125 31.148438 "/>
<path style=" stroke:none;fill-rule:nonzero;fill:rgb(60.299683%,10.307312%,15.046692%);fill-opacity:1;" d="M 37.953125 30.949219 C 33.875 36.15625 28.070312 39.214844 21.988281 39.957031 C 18.945312 40.324219 15.832031 40.113281 12.828125 39.300781 C 11.328125 38.894531 9.855469 38.367188 8.429688 37.65625 C 7.71875 37.300781 7.019531 36.871094 6.335938 36.507812 L 6.921875 36.507812 L 6.921875 6.140625 L 40.558594 6.140625 L 40.558594 5.589844 C 40.742188 5.9375 40.90625 6.289062 41.058594 6.644531 C 41.367188 7.351562 41.644531 8.074219 41.878906 8.804688 C 42.351562 10.269531 42.683594 11.773438 42.871094 13.292969 C 43.609375 19.378906 42.03125 25.742188 37.953125 30.949219 "/>
</g>
</g>
<g clip-path="url(#clip15)" clip-rule="nonzero">
<g clip-path="url(#clip16)" clip-rule="nonzero">
<path style=" stroke:none;fill-rule:nonzero;fill:rgb(60.719299%,10.371399%,15.071106%);fill-opacity:1;" d="M 37.703125 30.753906 C 33.675781 35.890625 27.953125 38.910156 21.949219 39.636719 C 18.949219 40.003906 15.875 39.792969 12.914062 38.992188 C 11.429688 38.59375 9.976562 38.027344 8.574219 37.324219 C 7.871094 36.972656 7.179688 36.691406 6.503906 36.144531 L 6.921875 36.144531 L 6.921875 6.140625 L 40.378906 6.140625 L 40.378906 5.730469 C 40.378906 6.074219 40.667969 6.421875 40.820312 6.769531 C 41.121094 7.46875 41.367188 8.179688 41.601562 8.902344 C 42.070312 10.347656 42.382812 11.832031 42.566406 13.332031 C 43.292969 19.335938 41.722656 25.617188 37.703125 30.753906 "/>
<path style=" stroke:none;fill-rule:nonzero;fill:rgb(61.141968%,10.319519%,15.106201%);fill-opacity:1;" d="M 37.449219 30.554688 C 33.480469 35.621094 27.832031 38.601562 21.910156 39.320312 C 18.949219 39.679688 15.917969 39.476562 12.996094 38.683594 C 11.535156 38.289062 10.101562 37.773438 8.714844 37.082031 C 8.019531 36.738281 7.339844 36.328125 6.675781 35.960938 L 6.921875 35.960938 L 6.921875 6.140625 L 40.015625 6.140625 L 40.015625 5.871094 C 40.195312 6.210938 40.339844 6.550781 40.488281 6.898438 C 40.785156 7.585938 41.050781 8.289062 41.28125 9.003906 C 41.738281 10.425781 42.058594 11.890625 42.238281 13.371094 C 42.960938 19.292969 41.417969 25.488281 37.449219 30.554688 "/>
<path style=" stroke:none;fill-rule:nonzero;fill:rgb(61.561584%,10.270691%,15.066528%);fill-opacity:1;" d="M 37.199219 30.359375 C 33.28125 35.355469 27.714844 38.292969 21.871094 39.003906 C 18.953125 39.359375 15.964844 39.15625 13.082031 38.375 C 11.640625 37.984375 10.222656 37.433594 8.855469 36.75 C 8.171875 36.410156 7.5 35.960938 6.84375 35.597656 L 6.921875 35.597656 L 6.921875 6.140625 L 39.285156 6.140625 L 39.285156 5.023438 C 40.742188 7.636719 41.605469 10.488281 41.960938 13.40625 C 42.671875 19.25 41.113281 25.359375 37.199219 30.359375 "/>
</g>
</g>
<g clip-path="url(#clip17)" clip-rule="nonzero">
<g clip-path="url(#clip18)" clip-rule="nonzero">
<path style=" stroke:none;fill-rule:nonzero;fill:rgb(61.999512%,10.345459%,15.02533%);fill-opacity:1;" d="M 36.945312 30.160156 C 33.085938 35.089844 27.59375 37.988281 21.832031 38.6875 C 18.953125 39.035156 16.007812 38.839844 13.164062 38.070312 C 11.742188 37.683594 10.347656 37.15625 9 36.484375 C 8.324219 36.148438 7.664062 35.757812 7.015625 35.347656 C 6.691406 35.144531 6.371094 34.871094 6.054688 34.691406 L 6.921875 34.691406 L 6.921875 6.140625 L 38.921875 6.140625 L 38.921875 5.179688 C 40.378906 7.753906 41.253906 10.566406 41.601562 13.445312 C 42.300781 19.207031 40.808594 25.234375 36.945312 30.160156 "/>
<path style=" stroke:none;fill-rule:nonzero;fill:rgb(62.426758%,10.313416%,14.929199%);fill-opacity:1;" d="M 36.695312 29.964844 C 32.890625 34.824219 27.472656 37.679688 21.792969 38.371094 C 18.957031 38.714844 16.050781 38.519531 13.246094 37.761719 C 11.847656 37.378906 10.46875 36.859375 9.140625 36.199219 C 8.476562 35.867188 7.824219 35.519531 7.1875 35.117188 C 6.867188 34.914062 6.550781 34.691406 6.238281 34.507812 L 6.921875 34.507812 L 6.921875 6.140625 L 38.558594 6.140625 L 38.558594 5.332031 C 40.015625 7.871094 40.898438 10.644531 41.242188 13.484375 C 41.933594 19.164062 40.503906 25.105469 36.695312 29.964844 "/>
<path style=" stroke:none;fill-rule:nonzero;fill:rgb(62.82196%,10.388184%,14.881897%);fill-opacity:1;" d="M 36.445312 29.769531 C 32.691406 34.558594 27.351562 37.371094 21.757812 38.050781 C 18.957031 38.394531 16.09375 38.199219 13.332031 37.453125 C 11.949219 37.078125 10.59375 36.566406 9.285156 35.910156 C 8.628906 35.585938 7.984375 35.195312 7.355469 34.796875 C 7.042969 34.597656 6.730469 34.507812 6.421875 34.144531 L 6.921875 34.144531 L 6.921875 6.140625 L 38.378906 6.140625 L 38.378906 5.488281 C 39.832031 7.992188 40.636719 10.726562 40.976562 13.523438 C 41.65625 19.121094 40.195312 24.976562 36.445312 29.769531 "/>
</g>
</g>
<g clip-path="url(#clip19)" clip-rule="nonzero">
<g clip-path="url(#clip20)" clip-rule="nonzero">
<path style=" stroke:none;fill-rule:nonzero;fill:rgb(63.246155%,10.464478%,14.837646%);fill-opacity:1;" d="M 36.191406 29.550781 C 28.796875 38.992188 15.148438 40.691406 5.707031 33.234375 L 6.921875 33.234375 L 6.921875 6.140625 L 38.015625 6.140625 L 38.015625 5.644531 C 39.46875 8.109375 40.28125 10.792969 40.617188 13.550781 C 41.285156 19.070312 39.890625 24.832031 36.191406 29.550781 "/>
<path style=" stroke:none;fill-rule:nonzero;fill:rgb(63.62915%,10.542297%,14.787292%);fill-opacity:1;" d="M 35.941406 29.390625 C 28.65625 38.691406 15.207031 40.328125 5.90625 33.050781 L 6.921875 33.050781 L 6.921875 6.140625 L 37.832031 6.140625 L 37.832031 5.796875 C 39.105469 8.226562 40.019531 10.890625 40.347656 13.609375 C 41.007812 19.042969 39.585938 24.738281 35.941406 29.390625 "/>
<path style=" stroke:none;fill-rule:nonzero;fill:rgb(64.041138%,10.606384%,14.804077%);fill-opacity:1;" d="M 35.691406 29.136719 C 28.511719 38.296875 15.265625 39.964844 6.101562 32.691406 L 6.921875 32.691406 L 6.921875 6.140625 L 37.46875 6.140625 L 37.46875 5.953125 C 38.921875 8.347656 39.664062 10.941406 39.988281 13.617188 C 40.640625 18.972656 39.277344 24.554688 35.691406 29.136719 "/>
</g>
</g>
<g clip-path="url(#clip21)" clip-rule="nonzero">
<g clip-path="url(#clip22)" clip-rule="nonzero">
<path style=" stroke:none;fill-rule:nonzero;fill:rgb(64.424133%,10.693359%,14.683533%);fill-opacity:1;" d="M 35.4375 28.972656 C 28.371094 37.996094 15.324219 39.597656 6.300781 32.507812 L 6.921875 32.507812 L 6.921875 6.140625 L 37.285156 6.140625 L 37.285156 6.109375 C 38.558594 8.464844 39.402344 11.039062 39.71875 13.675781 C 40.359375 18.949219 38.972656 24.460938 35.4375 28.972656 "/>
<path style=" stroke:none;fill-rule:nonzero;fill:rgb(64.790344%,10.76355%,14.620972%);fill-opacity:1;" d="M 35.1875 28.8125 C 28.226562 37.699219 15.382812 39.234375 6.496094 32.324219 L 6.921875 32.324219 L 6.921875 6.140625 L 36.378906 6.140625 L 36.378906 5.402344 C 36.558594 5.683594 36.765625 5.972656 36.925781 6.261719 C 38.214844 8.585938 39.046875 11.136719 39.363281 13.730469 C 39.992188 18.921875 38.667969 24.367188 35.1875 28.8125 "/>
<path style=" stroke:none;fill-rule:nonzero;fill:rgb(65.156555%,10.827637%,14.549255%);fill-opacity:1;" d="M 34.933594 28.558594 C 28.085938 37.304688 15.441406 38.871094 6.695312 31.960938 L 6.921875 31.960938 L 6.921875 6.140625 L 36.195312 6.140625 L 36.195312 5.570312 C 36.378906 5.847656 36.535156 6.132812 36.695312 6.417969 C 37.960938 8.703125 38.757812 11.183594 39.070312 13.742188 C 39.691406 18.851562 38.359375 24.183594 34.933594 28.558594 "/>
</g>
</g>
<g clip-path="url(#clip23)" clip-rule="nonzero">
<g clip-path="url(#clip24)" clip-rule="nonzero">
<path style=" stroke:none;fill-rule:nonzero;fill:rgb(65.490723%,10.876465%,14.5401%);fill-opacity:1;" d="M 34.683594 28.398438 C 27.941406 37.003906 15.496094 38.507812 6.890625 31.78125 L 6.921875 31.78125 L 6.921875 6.140625 L 36.015625 6.140625 L 36.015625 5.738281 C 36.015625 6.015625 36.300781 6.292969 36.460938 6.574219 C 37.707031 8.824219 38.46875 11.28125 38.773438 13.796875 C 39.386719 18.828125 38.054688 24.09375 34.683594 28.398438 "/>
<path style=" stroke:none;fill-rule:nonzero;fill:rgb(65.856934%,10.935974%,14.460754%);fill-opacity:1;" d="M 34.433594 28.191406 C 27.796875 36.660156 15.554688 38.144531 7.085938 31.511719 C 6.824219 31.304688 6.566406 31.050781 6.3125 30.871094 L 6.921875 30.871094 L 6.921875 6.140625 L 35.105469 6.140625 L 35.105469 5.109375 C 35.46875 5.632812 35.816406 6.175781 36.121094 6.726562 C 37.347656 8.941406 38.128906 11.359375 38.429688 13.832031 C 39.03125 18.78125 37.75 23.957031 34.433594 28.191406 "/>
<path style=" stroke:none;fill-rule:nonzero;fill:rgb(66.273499%,10.995483%,14.381409%);fill-opacity:1;" d="M 34.179688 27.996094 C 27.65625 36.324219 15.613281 37.78125 7.285156 31.257812 C 6.761719 30.847656 6.269531 30.507812 5.804688 29.960938 L 6.921875 29.960938 L 6.921875 6.140625 L 34.921875 6.140625 L 34.921875 5.289062 C 35.285156 5.808594 35.582031 6.339844 35.882812 6.882812 C 37.089844 9.058594 37.835938 11.4375 38.132812 13.871094 C 38.722656 18.738281 37.445312 23.832031 34.179688 27.996094 "/>
</g>
</g>
<g clip-path="url(#clip25)" clip-rule="nonzero">
<g clip-path="url(#clip26)" clip-rule="nonzero">
<path style=" stroke:none;fill-rule:nonzero;fill:rgb(66.703796%,11.047363%,14.376831%);fill-opacity:1;" d="M 33.929688 27.796875 C 27.515625 35.988281 15.671875 37.445312 7.480469 31.027344 C 6.96875 30.628906 6.484375 30.144531 6.023438 29.78125 L 6.921875 29.78125 L 6.921875 6.140625 L 34.558594 6.140625 L 34.558594 5.472656 C 34.921875 5.980469 35.257812 6.503906 35.554688 7.039062 C 36.738281 9.179688 37.5 11.515625 37.789062 13.910156 C 38.371094 18.695312 37.140625 23.703125 33.929688 27.796875 "/>
</g>
</g>
<g clip-path="url(#clip27)" clip-rule="nonzero">
<g clip-path="url(#clip28)" clip-rule="nonzero">
<path style=" stroke:none;fill-rule:nonzero;fill:rgb(67.150879%,11.088562%,14.440918%);fill-opacity:1;" d="M 33.679688 27.601562 C 27.371094 35.65625 15.730469 37.109375 7.679688 30.800781 C 7.175781 30.40625 6.699219 29.960938 6.246094 29.597656 L 6.921875 29.597656 L 6.921875 6.140625 L 34.378906 6.140625 L 34.378906 5.652344 C 34.742188 6.152344 35.023438 6.667969 35.316406 7.191406 C 36.480469 9.296875 37.207031 11.59375 37.492188 13.949219 C 38.066406 18.652344 36.832031 23.578125 33.679688 27.601562 "/>
<path style=" stroke:none;fill-rule:nonzero;fill:rgb(67.602539%,11.149597%,14.442444%);fill-opacity:1;" d="M 33.425781 27.40625 C 27.226562 35.320312 15.789062 36.679688 7.875 30.480469 C 7.378906 30.09375 6.910156 29.78125 6.46875 29.234375 L 6.921875 29.234375 L 6.921875 6.140625 L 34.015625 6.140625 L 34.015625 5.835938 C 34.378906 6.324219 34.699219 6.832031 34.984375 7.347656 C 36.132812 9.414062 36.871094 11.671875 37.152344 13.984375 C 37.714844 18.609375 36.527344 23.449219 33.425781 27.40625 "/>
</g>
</g>
<g clip-path="url(#clip29)" clip-rule="nonzero">
<g clip-path="url(#clip30)" clip-rule="nonzero">
<path style=" stroke:none;fill-rule:nonzero;fill:rgb(68.035889%,11.198425%,14.512634%);fill-opacity:1;" d="M 33.175781 27.207031 C 27.085938 34.980469 15.847656 36.34375 8.070312 30.253906 C 7.585938 29.875 7.125 29.414062 6.6875 29.050781 L 6.921875 29.050781 L 6.921875 6.140625 L 33.832031 6.140625 L 33.832031 6.015625 C 34.195312 6.5 34.464844 6.996094 34.746094 7.503906 C 35.871094 9.535156 36.578125 11.753906 36.855469 14.023438 C 37.40625 18.566406 36.21875 23.320312 33.175781 27.207031 "/>
</g>
</g>
<g clip-path="url(#clip31)" clip-rule="nonzero">
<g clip-path="url(#clip32)" clip-rule="nonzero">
<path style=" stroke:none;fill-rule:nonzero;fill:rgb(68.457031%,11.238098%,14.573669%);fill-opacity:1;" d="M 32.925781 27.011719 C 26.945312 34.648438 15.90625 36.015625 8.269531 30.035156 C 7.3125 29.285156 6.457031 28.507812 5.703125 27.597656 L 6.921875 27.597656 L 6.921875 6.140625 L 33.46875 6.140625 L 33.46875 6.199219 C 33.832031 6.671875 34.140625 7.160156 34.417969 7.65625 C 35.523438 9.652344 36.242188 11.832031 36.511719 14.0625 C 37.054688 18.523438 35.914062 23.195312 32.925781 27.011719 "/>
<path style=" stroke:none;fill-rule:nonzero;fill:rgb(68.859863%,11.288452%,14.561462%);fill-opacity:1;" d="M 32.671875 26.816406 C 26.800781 34.3125 15.960938 35.667969 8.464844 29.792969 C 7.527344 29.058594 6.6875 28.144531 5.945312 27.414062 L 6.921875 27.414062 L 6.921875 6.140625 L 32.195312 6.140625 L 32.195312 5.027344 C 32.921875 5.898438 33.609375 6.832031 34.152344 7.8125 C 35.238281 9.773438 35.9375 11.910156 36.203125 14.101562 C 36.734375 18.480469 35.609375 23.066406 32.671875 26.816406 "/>
<path style=" stroke:none;fill-rule:nonzero;fill:rgb(69.27948%,11.317444%,14.610291%);fill-opacity:1;" d="M 32.421875 26.617188 C 26.65625 33.976562 16.019531 35.226562 8.664062 29.464844 C 7.742188 28.746094 6.917969 27.960938 6.1875 27.050781 L 6.921875 27.050781 L 6.921875 6.140625 L 32.015625 6.140625 L 32.015625 5.230469 C 32.742188 6.089844 33.371094 7.007812 33.90625 7.96875 C 34.96875 9.890625 35.640625 11.988281 35.902344 14.140625 C 36.421875 18.441406 35.304688 22.9375 32.421875 26.617188 "/>
</g>
</g>
<g clip-path="url(#clip33)" clip-rule="nonzero">
<g clip-path="url(#clip34)" clip-rule="nonzero">
<path style=" stroke:none;fill-rule:nonzero;fill:rgb(69.747925%,11.349487%,14.579773%);fill-opacity:1;" d="M 32.171875 26.421875 C 26.515625 33.640625 16.078125 34.882812 8.859375 29.226562 C 7.957031 28.519531 7.148438 27.78125 6.433594 26.871094 L 6.921875 26.871094 L 6.921875 6.140625 L 31.832031 6.140625 L 31.832031 5.4375 C 32.558594 6.28125 33.132812 7.179688 33.65625 8.121094 C 34.703125 10.007812 35.34375 12.070312 35.597656 14.179688 C 36.109375 18.398438 34.996094 22.8125 32.171875 26.421875 "/>
<path style=" stroke:none;fill-rule:nonzero;fill:rgb(70.201111%,11.36322%,14.611816%);fill-opacity:1;" d="M 31.917969 26.222656 C 26.371094 33.304688 16.136719 34.53125 9.054688 28.988281 C 8.171875 28.292969 7.378906 27.597656 6.675781 26.6875 L 6.921875 26.6875 L 6.921875 6.140625 L 31.46875 6.140625 L 31.46875 5.644531 C 32.195312 6.46875 32.804688 7.351562 33.316406 8.277344 C 34.34375 10.128906 35 12.148438 35.253906 14.21875 C 35.753906 18.355469 34.691406 22.683594 31.917969 26.222656 "/>
<path style=" stroke:none;fill-rule:nonzero;fill:rgb(70.657349%,11.401367%,14.585876%);fill-opacity:1;" d="M 31.667969 26.027344 C 26.230469 32.96875 16.195312 34.183594 9.253906 28.746094 C 8.386719 28.070312 7.605469 27.234375 6.921875 26.507812 L 6.921875 6.324219 L 6.53125 6.324219 C 6.871094 5.960938 7.285156 5.488281 7.648438 5.101562 L 7.648438 6.140625 L 31.285156 6.140625 L 31.285156 5.851562 C 32.015625 6.660156 32.566406 7.527344 33.066406 8.433594 C 34.074219 10.246094 34.703125 12.226562 34.949219 14.253906 C 35.445312 18.3125 34.386719 22.554688 31.667969 26.027344 "/>
</g>
</g>
<g clip-path="url(#clip35)" clip-rule="nonzero">
<g clip-path="url(#clip36)" clip-rule="nonzero">
<path style=" stroke:none;fill-rule:nonzero;fill:rgb(71.047974%,11.428833%,14.630127%);fill-opacity:1;" d="M 31.414062 25.828125 C 26.085938 32.632812 16.253906 33.828125 9.449219 28.496094 C 8.601562 27.832031 7.835938 27.085938 7.164062 26.292969 C 6.828125 25.894531 6.511719 25.414062 6.222656 25.050781 L 6.921875 25.050781 L 6.921875 6.503906 L 6.78125 6.503906 C 7.113281 6.140625 7.464844 5.703125 7.832031 5.324219 L 7.832031 6.140625 L 31.105469 6.140625 L 31.105469 6.058594 C 31.652344 6.851562 32.328125 7.699219 32.820312 8.585938 C 33.804688 10.363281 34.40625 12.304688 34.648438 14.292969 C 35.132812 18.269531 34.082031 22.429688 31.414062 25.828125 "/>
<path style=" stroke:none;fill-rule:nonzero;fill:rgb(71.456909%,11.453247%,14.672852%);fill-opacity:1;" d="M 31.164062 25.632812 C 25.945312 32.296875 16.3125 33.457031 9.648438 28.234375 C 7.980469 26.929688 6.660156 25.414062 5.695312 23.597656 L 6.921875 23.597656 L 6.921875 7.960938 L 6.128906 7.960938 C 6.40625 7.597656 6.683594 7.121094 7.007812 6.703125 C 7.335938 6.285156 7.648438 5.917969 8.011719 5.542969 L 8.011719 6.140625 L 29.648438 6.140625 L 29.648438 5.144531 C 30.195312 5.503906 30.417969 5.878906 30.746094 6.265625 C 31.40625 7.039062 32 7.871094 32.484375 8.742188 C 33.449219 10.484375 34.066406 12.386719 34.304688 14.332031 C 34.777344 18.226562 33.777344 22.300781 31.164062 25.632812 "/>
<path style=" stroke:none;fill-rule:nonzero;fill:rgb(71.931458%,11.473083%,14.71405%);fill-opacity:1;" d="M 30.914062 25.4375 C 25.800781 31.960938 16.367188 33.082031 9.84375 27.972656 C 8.210938 26.695312 6.917969 25.234375 5.972656 23.414062 L 6.921875 23.414062 L 6.921875 9.414062 L 5.660156 9.414062 C 6.105469 8.6875 6.6875 7.703125 7.328125 6.886719 C 7.644531 6.476562 8.011719 6.132812 8.375 5.765625 L 8.375 6.140625 L 29.46875 6.140625 L 29.46875 5.375 C 29.832031 5.726562 30.203125 6.09375 30.523438 6.472656 C 31.167969 7.230469 31.742188 8.042969 32.214844 8.898438 C 33.160156 10.601562 33.761719 12.464844 33.992188 14.371094 C 34.457031 18.183594 33.46875 22.171875 30.914062 25.4375 "/>
</g>
</g>
<g clip-path="url(#clip37)" clip-rule="nonzero">
<g clip-path="url(#clip38)" clip-rule="nonzero">
<path style=" stroke:none;fill-rule:nonzero;fill:rgb(72.407532%,11.488342%,14.749146%);fill-opacity:1;" d="M 30.660156 25.238281 C 25.660156 31.625 16.425781 32.710938 10.039062 27.707031 C 8.445312 26.457031 7.175781 25.050781 6.25 23.234375 L 6.921875 23.234375 L 6.921875 9.597656 L 5.945312 9.597656 C 6.382812 8.6875 6.9375 7.902344 7.5625 7.101562 C 8.1875 6.304688 8.921875 5.609375 9.648438 4.976562 L 9.648438 6.140625 L 29.285156 6.140625 L 29.285156 5.601562 C 29.648438 5.949219 29.984375 6.304688 30.300781 6.679688 C 30.933594 7.421875 31.480469 8.21875 31.945312 9.050781 C 32.871094 10.722656 33.453125 12.542969 33.679688 14.410156 C 34.132812 18.140625 33.164062 22.046875 30.660156 25.238281 "/>
<path style=" stroke:none;fill-rule:nonzero;fill:rgb(72.821045%,11.523438%,14.715576%);fill-opacity:1;" d="M 30.410156 25.042969 C 25.515625 31.289062 16.484375 32.425781 10.238281 27.53125 C 8.675781 26.308594 7.4375 24.871094 6.53125 23.234375 L 6.921875 23.234375 L 6.921875 9.777344 L 6.230469 9.777344 C 6.65625 8.867188 7.1875 8.101562 7.800781 7.320312 C 8.414062 6.539062 9.101562 5.839844 9.832031 5.21875 L 9.832031 6.140625 L 29.105469 6.140625 L 29.105469 5.832031 C 29.46875 6.167969 29.769531 6.519531 30.078125 6.886719 C 30.695312 7.613281 31.222656 8.390625 31.675781 9.207031 C 32.582031 10.839844 33.144531 12.621094 33.367188 14.449219 C 33.8125 18.097656 32.855469 21.917969 30.410156 25.042969 "/>
<path style=" stroke:none;fill-rule:nonzero;fill:rgb(73.168945%,11.546326%,14.753723%);fill-opacity:1;" d="M 30.195312 24.84375 C 25.410156 30.953125 16.558594 32.050781 10.453125 27.269531 C 8.925781 26.070312 7.695312 24.507812 6.8125 23.050781 L 6.921875 23.050781 L 6.921875 9.960938 L 6.515625 9.960938 C 6.933594 9.050781 7.441406 8.300781 8.039062 7.535156 C 8.636719 6.773438 9.285156 6.070312 10.011719 5.464844 L 10.011719 6.140625 L 27.832031 6.140625 L 27.832031 5.121094 C 33.832031 9.90625 34.976562 18.738281 30.195312 24.84375 "/>
</g>
</g>
<g clip-path="url(#clip39)" clip-rule="nonzero">
<g clip-path="url(#clip40)" clip-rule="nonzero">
<path style=" stroke:none;fill-rule:nonzero;fill:rgb(73.800659%,11.610413%,14.758301%);fill-opacity:1;" d="M 29.949219 24.648438 C 25.273438 30.617188 16.621094 31.664062 10.652344 26.988281 C 9.160156 25.820312 7.964844 24.363281 7.101562 22.800781 C 6.667969 22.023438 6.304688 21.234375 6.035156 20.324219 L 6.921875 20.324219 L 6.921875 12.507812 L 5.84375 12.507812 C 6.308594 10.867188 7.109375 9.164062 8.277344 7.671875 C 8.863281 6.925781 9.464844 6.296875 10.195312 5.707031 L 10.195312 6.140625 L 27.648438 6.140625 L 27.648438 5.371094 C 33.46875 10.046875 34.625 18.679688 29.949219 24.648438 "/>
<path style=" stroke:none;fill-rule:nonzero;fill:rgb(74.134827%,11.650085%,14.726257%);fill-opacity:1;" d="M 29.613281 24.453125 C 25.046875 30.28125 16.640625 31.296875 10.808594 26.730469 C 7.894531 24.445312 6.199219 21.234375 5.785156 17.777344 L 6.921875 17.777344 L 6.921875 12.6875 L 6.152344 12.6875 C 6.605469 11.050781 7.375 9.378906 8.519531 7.917969 C 9.089844 7.191406 9.832031 6.527344 10.375 5.949219 L 10.375 6.140625 L 27.285156 6.140625 L 27.285156 5.625 C 33.285156 10.191406 34.183594 18.621094 29.613281 24.453125 "/>
<path style=" stroke:none;fill-rule:nonzero;fill:rgb(74.487305%,11.694336%,14.697266%);fill-opacity:1;" d="M 29.371094 24.253906 C 24.910156 29.945312 16.699219 30.945312 11.007812 26.488281 C 8.164062 24.257812 6.5 21.085938 6.09375 17.761719 C 5.691406 14.433594 6.523438 10.953125 8.753906 8.105469 C 9.308594 7.394531 10.011719 6.757812 10.558594 6.195312 L 10.558594 6.140625 L 27.105469 6.140625 L 27.105469 5.875 C 32.921875 10.332031 33.832031 18.5625 29.371094 24.253906 "/>
</g>
</g>
<g clip-path="url(#clip41)" clip-rule="nonzero">
<g clip-path="url(#clip42)" clip-rule="nonzero">
<path style=" stroke:none;fill-rule:nonzero;fill:rgb(74.920654%,11.732483%,14.66217%);fill-opacity:1;" d="M 29.128906 24.058594 C 24.777344 29.609375 16.761719 30.585938 11.210938 26.234375 C 8.433594 24.0625 6.808594 20.964844 6.414062 17.722656 C 6.019531 14.476562 6.875 11.082031 9.050781 8.304688 C 10.140625 6.914062 11.46875 5.8125 12.921875 5.011719 L 12.921875 6.140625 L 26.921875 6.140625 L 26.921875 6.125 C 32.558594 10.476562 33.476562 18.503906 29.128906 24.058594 "/>
<path style=" stroke:none;fill-rule:nonzero;fill:rgb(75.422668%,11.740112%,14.68811%);fill-opacity:1;" d="M 28.902344 23.859375 C 24.660156 29.277344 16.835938 30.226562 11.417969 25.984375 C 8.710938 23.863281 7.121094 20.847656 6.738281 17.683594 C 6.351562 14.519531 7.199219 11.207031 9.320312 8.5 C 10.378906 7.148438 11.648438 6.074219 13.101562 5.289062 L 13.101562 6.140625 L 24.558594 6.140625 L 24.558594 5.027344 C 25.46875 5.398438 26.058594 5.847656 26.734375 6.378906 C 32.148438 10.617188 33.144531 18.445312 28.902344 23.859375 "/>
<path style=" stroke:none;fill-rule:nonzero;fill:rgb(75.941467%,11.743164%,14.709473%);fill-opacity:1;" d="M 28.652344 23.664062 C 24.519531 28.941406 16.890625 29.867188 11.617188 25.734375 C 8.980469 23.667969 7.429688 20.726562 7.054688 17.644531 C 6.679688 14.5625 7.519531 11.335938 9.585938 8.699219 C 10.617188 7.378906 11.832031 6.332031 13.285156 5.566406 L 13.285156 6.140625 L 24.558594 6.140625 L 24.558594 5.316406 C 25.285156 5.675781 25.949219 6.113281 26.609375 6.628906 C 31.882812 10.761719 32.785156 18.386719 28.652344 23.664062 "/>
</g>
</g>
<g clip-path="url(#clip43)" clip-rule="nonzero">
<g clip-path="url(#clip44)" clip-rule="nonzero">
<path style=" stroke:none;fill-rule:nonzero;fill:rgb(76.412964%,11.77063%,14.665222%);fill-opacity:1;" d="M 28.398438 23.46875 C 24.375 28.601562 16.949219 29.507812 11.8125 25.480469 C 6.675781 21.457031 5.734375 14.03125 9.757812 8.894531 C 10.765625 7.609375 12.011719 6.589844 13.285156 5.847656 L 13.285156 6.140625 L 24.378906 6.140625 L 24.378906 5.601562 C 25.105469 5.953125 25.75 6.378906 26.390625 6.878906 C 31.53125 10.902344 32.421875 18.332031 28.398438 23.46875 "/>
<path style=" stroke:none;fill-rule:nonzero;fill:rgb(76.835632%,11.805725%,14.625549%);fill-opacity:1;" d="M 28.148438 23.269531 C 24.234375 28.269531 17.007812 29.144531 12.011719 25.230469 C 7.011719 21.316406 6.109375 14.089844 10.023438 9.09375 C 11.003906 7.84375 12.195312 6.851562 13.46875 6.125 L 13.46875 6.140625 L 22.195312 6.140625 L 22.195312 5.082031 C 23.46875 5.472656 24.980469 6.152344 26.230469 7.132812 C 31.230469 11.046875 32.0625 18.273438 28.148438 23.269531 "/>
<path style=" stroke:none;fill-rule:nonzero;fill:rgb(77.284241%,11.839294%,14.584351%);fill-opacity:1;" d="M 27.898438 23.074219 C 24.089844 27.933594 17.066406 28.785156 12.207031 24.980469 C 7.347656 21.171875 6.535156 14.148438 10.339844 9.289062 C 12.242188 6.859375 14.921875 5.429688 17.832031 5.085938 L 17.832031 6.140625 L 22.011719 6.140625 L 22.011719 5.390625 C 23.46875 5.769531 24.769531 6.429688 25.984375 7.382812 C 30.84375 11.191406 31.703125 18.214844 27.898438 23.074219 "/>
</g>
</g>
<g clip-path="url(#clip45)" clip-rule="nonzero">
<g clip-path="url(#clip46)" clip-rule="nonzero">
<path style=" stroke:none;fill-rule:nonzero;fill:rgb(77.770996%,11.863708%,14.535522%);fill-opacity:1;" d="M 27.644531 22.875 C 23.949219 27.597656 17.125 28.425781 12.402344 24.726562 C 7.683594 21.03125 6.855469 14.207031 10.550781 9.484375 C 12.402344 7.125 15.03125 5.738281 17.789062 5.402344 C 20.546875 5.070312 23.433594 5.785156 25.792969 7.632812 C 30.515625 11.332031 31.34375 18.15625 27.644531 22.875 "/>
</g>
</g>
<g clip-path="url(#clip47)" clip-rule="nonzero">
<g clip-path="url(#clip48)" clip-rule="nonzero">
<path style=" stroke:none;fill-rule:nonzero;fill:rgb(78.327942%,11.860657%,14.550781%);fill-opacity:1;" d="M 27.394531 22.679688 C 23.804688 27.261719 17.183594 28.066406 12.601562 24.476562 C 8.019531 20.886719 7.214844 14.265625 10.804688 9.683594 C 12.597656 7.390625 15.152344 6.046875 17.828125 5.71875 C 20.503906 5.394531 23.304688 6.089844 25.597656 7.886719 C 30.179688 11.472656 30.984375 18.097656 27.394531 22.679688 "/>
<path style=" stroke:none;fill-rule:nonzero;fill:rgb(78.831482%,11.865234%,14.570618%);fill-opacity:1;" d="M 27.144531 22.480469 C 23.664062 26.925781 17.238281 27.707031 12.796875 24.222656 C 8.355469 20.746094 7.574219 14.324219 11.054688 9.878906 C 12.796875 7.65625 15.269531 6.351562 17.867188 6.039062 C 20.464844 5.722656 23.179688 6.398438 25.402344 8.136719 C 29.84375 11.617188 30.621094 18.039062 27.144531 22.480469 "/>
</g>
</g>
<g clip-path="url(#clip49)" clip-rule="nonzero">
<g clip-path="url(#clip50)" clip-rule="nonzero">
<path style=" stroke:none;fill-rule:nonzero;fill:rgb(79.275513%,11.872864%,14.595032%);fill-opacity:1;" d="M 26.890625 22.285156 C 23.519531 26.589844 17.296875 27.34375 12.996094 23.972656 C 8.691406 20.601562 7.933594 14.378906 11.304688 10.078125 C 14.675781 5.773438 20.898438 5.015625 25.203125 8.386719 C 29.507812 11.761719 30.261719 17.980469 26.890625 22.285156 "/>
</g>
</g>
<g clip-path="url(#clip51)" clip-rule="nonzero">
<g clip-path="url(#clip52)" clip-rule="nonzero">
<path style=" stroke:none;fill-rule:nonzero;fill:rgb(79.6875%,11.880493%,14.616394%);fill-opacity:1;" d="M 26.640625 22.089844 C 23.378906 26.253906 17.355469 26.984375 13.191406 23.722656 C 9.027344 20.460938 8.296875 14.4375 11.558594 10.273438 C 14.820312 6.109375 20.84375 5.378906 25.007812 8.640625 C 29.171875 11.902344 29.902344 17.921875 26.640625 22.089844 "/>
<path style=" stroke:none;fill-rule:nonzero;fill:rgb(80.12085%,11.882019%,14.631653%);fill-opacity:1;" d="M 26.390625 21.890625 C 23.234375 25.917969 17.414062 26.625 13.390625 23.46875 C 9.363281 20.316406 8.65625 14.496094 11.808594 10.46875 C 14.964844 6.445312 20.785156 5.738281 24.808594 8.890625 C 28.835938 12.042969 29.542969 17.863281 26.390625 21.890625 "/>
</g>
</g>
<g clip-path="url(#clip53)" clip-rule="nonzero">
<g clip-path="url(#clip54)" clip-rule="nonzero">
<path style=" stroke:none;fill-rule:nonzero;fill:rgb(80.52063%,11.882019%,14.645386%);fill-opacity:1;" d="M 26.136719 21.695312 C 23.09375 25.582031 17.472656 26.265625 13.585938 23.21875 C 9.699219 20.175781 9.015625 14.554688 12.058594 10.667969 C 15.105469 6.78125 20.726562 6.097656 24.613281 9.144531 C 28.5 12.1875 29.183594 17.808594 26.136719 21.695312 "/>
</g>
</g>
<g clip-path="url(#clip55)" clip-rule="nonzero">
<g clip-path="url(#clip56)" clip-rule="nonzero">
<path style=" stroke:none;fill-rule:nonzero;fill:rgb(80.882263%,11.885071%,14.660645%);fill-opacity:1;" d="M 25.886719 21.496094 C 22.949219 25.246094 17.53125 25.90625 13.78125 22.96875 C 10.035156 20.03125 9.375 14.613281 12.3125 10.863281 C 15.25 7.117188 20.667969 6.457031 24.414062 9.394531 C 28.164062 12.332031 28.824219 17.75 25.886719 21.496094 "/>
<path style=" stroke:none;fill-rule:nonzero;fill:rgb(81.210327%,11.894226%,14.680481%);fill-opacity:1;" d="M 25.636719 21.300781 C 22.808594 24.910156 17.589844 25.542969 13.980469 22.71875 C 10.371094 19.890625 9.734375 14.671875 12.5625 11.0625 C 15.390625 7.453125 20.609375 6.816406 24.21875 9.644531 C 27.828125 12.472656 28.460938 17.691406 25.636719 21.300781 "/>
</g>
</g>
<g clip-path="url(#clip57)" clip-rule="nonzero">
<g clip-path="url(#clip58)" clip-rule="nonzero">
<path style=" stroke:none;fill-rule:nonzero;fill:rgb(81.535339%,11.906433%,14.704895%);fill-opacity:1;" d="M 25.382812 21.105469 C 22.664062 24.574219 17.648438 25.183594 14.175781 22.464844 C 10.707031 19.746094 10.097656 14.730469 12.816406 11.257812 C 15.535156 7.789062 20.550781 7.175781 24.023438 9.898438 C 27.492188 12.613281 28.101562 17.632812 25.382812 21.105469 "/>
</g>
</g>
<g clip-path="url(#clip59)" clip-rule="nonzero">
<g clip-path="url(#clip60)" clip-rule="nonzero">
<path style=" stroke:none;fill-rule:nonzero;fill:rgb(81.915283%,11.917114%,14.727783%);fill-opacity:1;" d="M 25.132812 20.90625 C 22.523438 24.238281 17.707031 24.824219 14.371094 22.214844 C 11.042969 19.605469 10.457031 14.785156 13.066406 11.457031 C 15.675781 8.121094 20.492188 7.539062 23.824219 10.148438 C 27.15625 12.757812 27.742188 17.574219 25.132812 20.90625 "/>
<path style=" stroke:none;fill-rule:nonzero;fill:rgb(82.321167%,11.923218%,14.74762%);fill-opacity:1;" d="M 24.882812 20.710938 C 22.378906 23.902344 17.761719 24.464844 14.570312 21.960938 C 11.378906 19.460938 10.816406 14.84375 13.316406 11.652344 C 15.820312 8.460938 20.433594 7.898438 23.628906 10.398438 C 26.820312 12.902344 27.382812 17.515625 24.882812 20.710938 "/>
</g>
</g>
<g clip-path="url(#clip61)" clip-rule="nonzero">
<g clip-path="url(#clip62)" clip-rule="nonzero">
<path style=" stroke:none;fill-rule:nonzero;fill:rgb(82.774353%,11.907959%,14.74762%);fill-opacity:1;" d="M 24.628906 20.511719 C 22.238281 23.566406 17.820312 24.101562 14.765625 21.710938 C 11.714844 19.320312 11.175781 14.902344 13.570312 11.847656 C 15.960938 8.792969 20.378906 8.257812 23.429688 10.652344 C 26.484375 13.042969 27.023438 17.460938 24.628906 20.511719 "/>
</g>
</g>
<g clip-path="url(#clip63)" clip-rule="nonzero">
<g clip-path="url(#clip64)" clip-rule="nonzero">
<path style=" stroke:none;fill-rule:nonzero;fill:rgb(83.251953%,11.882019%,14.735413%);fill-opacity:1;" d="M 24.378906 20.316406 C 22.09375 23.230469 17.878906 23.742188 14.964844 21.460938 C 12.046875 19.175781 11.535156 14.960938 13.820312 12.046875 C 16.105469 9.128906 20.320312 8.617188 23.234375 10.902344 C 26.148438 13.1875 26.660156 17.402344 24.378906 20.316406 "/>
<path style=" stroke:none;fill-rule:nonzero;fill:rgb(83.634949%,11.84082%,14.802551%);fill-opacity:1;" d="M 24.125 20.117188 C 21.953125 22.894531 17.9375 23.382812 15.160156 21.207031 C 12.382812 19.03125 11.898438 15.019531 14.070312 12.242188 C 16.246094 9.464844 20.261719 8.976562 23.039062 11.152344 C 25.8125 13.328125 26.300781 17.34375 24.125 20.117188 "/>
</g>
</g>
<g clip-path="url(#clip65)" clip-rule="nonzero">
<g clip-path="url(#clip66)" clip-rule="nonzero">
<path style=" stroke:none;fill-rule:nonzero;fill:rgb(83.979797%,11.824036%,14.796448%);fill-opacity:1;" d="M 23.875 19.921875 C 21.808594 22.558594 17.996094 23.023438 15.359375 20.957031 C 12.71875 18.890625 12.257812 15.078125 14.324219 12.441406 C 16.390625 9.800781 20.203125 9.339844 22.839844 11.40625 C 25.476562 13.472656 25.941406 17.285156 23.875 19.921875 "/>
</g>
</g>
<g clip-path="url(#clip67)" clip-rule="nonzero">
<g clip-path="url(#clip68)" clip-rule="nonzero">
<path style=" stroke:none;fill-rule:nonzero;fill:rgb(84.355164%,11.782837%,14.863586%);fill-opacity:1;" d="M 23.625 19.726562 C 21.667969 22.222656 18.054688 22.664062 15.554688 20.707031 C 13.054688 18.746094 12.617188 15.136719 14.574219 12.636719 C 16.53125 10.136719 20.144531 9.699219 22.644531 11.65625 C 25.144531 13.613281 25.582031 17.226562 23.625 19.726562 "/>
<path style=" stroke:none;fill-rule:nonzero;fill:rgb(84.829712%,11.743164%,14.839172%);fill-opacity:1;" d="M 23.371094 19.527344 C 21.523438 21.890625 18.113281 22.304688 15.75 20.453125 C 13.390625 18.605469 12.976562 15.195312 14.824219 12.832031 C 16.675781 10.472656 20.085938 10.058594 22.445312 11.90625 C 24.804688 13.757812 25.222656 17.167969 23.371094 19.527344 "/>
</g>
</g>
<g clip-path="url(#clip69)" clip-rule="nonzero">
<g clip-path="url(#clip70)" clip-rule="nonzero">
<path style=" stroke:none;fill-rule:nonzero;fill:rgb(85.229492%,11.694336%,14.898682%);fill-opacity:1;" d="M 23.121094 19.332031 C 21.382812 21.550781 18.167969 21.941406 15.949219 20.203125 C 13.726562 18.464844 13.335938 15.25 15.078125 13.03125 C 16.816406 10.808594 20.027344 10.417969 22.25 12.160156 C 24.472656 13.898438 24.859375 17.109375 23.121094 19.332031 "/>
</g>
</g>
<g clip-path="url(#clip71)" clip-rule="nonzero">
<g clip-path="url(#clip72)" clip-rule="nonzero">
<path style=" stroke:none;fill-rule:nonzero;fill:rgb(85.540771%,11.694336%,14.813232%);fill-opacity:1;" d="M 22.871094 19.136719 C 21.238281 21.21875 18.226562 21.582031 16.144531 19.953125 C 14.0625 18.320312 13.699219 15.308594 15.328125 13.226562 C 16.960938 11.144531 19.96875 10.78125 22.050781 12.410156 C 24.136719 14.042969 24.5 17.050781 22.871094 19.136719 "/>
<path style=" stroke:none;fill-rule:nonzero;fill:rgb(85.826111%,11.677551%,14.805603%);fill-opacity:1;" d="M 22.617188 18.9375 C 21.09375 20.882812 18.285156 21.222656 16.34375 19.699219 C 14.398438 18.175781 14.058594 15.367188 15.582031 13.425781 C 17.101562 11.480469 19.910156 11.140625 21.855469 12.660156 C 23.800781 14.183594 24.140625 16.992188 22.617188 18.9375 "/>
</g>
</g>
<g clip-path="url(#clip73)" clip-rule="nonzero">
<g clip-path="url(#clip74)" clip-rule="nonzero">
<path style=" stroke:none;fill-rule:nonzero;fill:rgb(86.177063%,11.64856%,14.787292%);fill-opacity:1;" d="M 22.367188 18.742188 C 20.953125 20.546875 18.34375 20.863281 16.539062 19.449219 C 14.734375 18.035156 14.417969 15.425781 15.832031 13.621094 C 17.246094 11.816406 19.855469 11.5 21.660156 12.914062 C 23.464844 14.328125 23.78125 16.9375 22.367188 18.742188 "/>
</g>
</g>
<g clip-path="url(#clip75)" clip-rule="nonzero">
<g clip-path="url(#clip76)" clip-rule="nonzero">
<path style=" stroke:none;fill-rule:nonzero;fill:rgb(86.528015%,11.64093%,14.692688%);fill-opacity:1;" d="M 22.117188 18.542969 C 20.808594 20.210938 18.402344 20.503906 16.734375 19.199219 C 15.070312 17.894531 14.777344 15.484375 16.082031 13.816406 C 17.386719 12.152344 19.796875 11.859375 21.460938 13.164062 C 23.128906 14.46875 23.421875 16.878906 22.117188 18.542969 "/>
</g>
</g>
<g clip-path="url(#clip77)" clip-rule="nonzero">
<g clip-path="url(#clip78)" clip-rule="nonzero">
<path style=" stroke:none;fill-rule:nonzero;fill:rgb(86.839294%,11.778259%,14.657593%);fill-opacity:1;" d="M 21.863281 18.347656 C 20.667969 19.875 18.460938 20.144531 16.933594 18.945312 C 15.40625 17.75 15.136719 15.542969 16.335938 14.015625 C 17.53125 12.488281 19.738281 12.21875 21.265625 13.414062 C 22.792969 14.613281 23.058594 16.820312 21.863281 18.347656 "/>
<path style=" stroke:none;fill-rule:nonzero;fill:rgb(87.147522%,11.758423%,14.648438%);fill-opacity:1;" d="M 21.613281 18.148438 C 20.527344 19.539062 18.519531 19.78125 17.128906 18.695312 C 15.742188 17.605469 15.496094 15.601562 16.585938 14.210938 C 17.671875 12.824219 19.679688 12.578125 21.070312 13.667969 C 22.457031 14.753906 22.699219 16.761719 21.613281 18.148438 "/>
</g>
</g>
<g clip-path="url(#clip79)" clip-rule="nonzero">
<g clip-path="url(#clip80)" clip-rule="nonzero">
<path style=" stroke:none;fill-rule:nonzero;fill:rgb(87.487793%,11.714172%,14.712524%);fill-opacity:1;" d="M 21.359375 17.953125 C 20.382812 19.203125 18.578125 19.421875 17.328125 18.445312 C 16.078125 17.464844 15.859375 15.65625 16.835938 14.410156 C 17.816406 13.160156 19.621094 12.941406 20.871094 13.917969 C 22.121094 14.898438 22.339844 16.703125 21.359375 17.953125 "/>
</g>
</g>
<g clip-path="url(#clip81)" clip-rule="nonzero">
<g clip-path="url(#clip82)" clip-rule="nonzero">
<path style=" stroke:none;fill-rule:nonzero;fill:rgb(87.90741%,11.51886%,14.712524%);fill-opacity:1;" d="M 21.109375 17.757812 C 20.238281 18.867188 18.632812 19.0625 17.523438 18.191406 C 16.414062 17.320312 16.21875 15.714844 17.089844 14.605469 C 17.957031 13.496094 19.5625 13.300781 20.675781 14.167969 C 21.785156 15.039062 21.980469 16.644531 21.109375 17.757812 "/>
<path style=" stroke:none;fill-rule:nonzero;fill:rgb(88.380432%,11.454773%,14.761353%);fill-opacity:1;" d="M 20.859375 17.558594 C 20.097656 18.53125 18.691406 18.703125 17.71875 17.941406 C 16.75 17.179688 16.578125 15.773438 17.339844 14.800781 C 18.101562 13.832031 19.507812 13.660156 20.476562 14.421875 C 21.449219 15.183594 21.621094 16.585938 20.859375 17.558594 "/>
</g>
</g>
<g clip-path="url(#clip83)" clip-rule="nonzero">
<g clip-path="url(#clip84)" clip-rule="nonzero">
<path style=" stroke:none;fill-rule:nonzero;fill:rgb(88.719177%,11.380005%,14.89563%);fill-opacity:1;" d="M 20.605469 17.363281 C 19.957031 18.195312 18.75 18.34375 17.917969 17.691406 C 17.085938 17.035156 16.9375 15.832031 17.589844 15 C 18.242188 14.167969 19.449219 14.019531 20.28125 14.671875 C 21.113281 15.324219 21.261719 16.53125 20.605469 17.363281 "/>
</g>
</g>
<g clip-path="url(#clip85)" clip-rule="nonzero">
<g clip-path="url(#clip86)" clip-rule="nonzero">
<path style=" stroke:none;fill-rule:nonzero;fill:rgb(89.060974%,11.299133%,15.023804%);fill-opacity:1;" d="M 20.355469 17.164062 C 19.8125 17.859375 18.808594 17.980469 18.113281 17.4375 C 17.421875 16.894531 17.296875 15.890625 17.84375 15.195312 C 18.386719 14.503906 19.390625 14.378906 20.082031 14.925781 C 20.777344 15.46875 20.898438 16.472656 20.355469 17.164062 "/>
<path style=" stroke:none;fill-rule:nonzero;fill:rgb(89.448547%,11.231995%,15.068054%);fill-opacity:1;" d="M 20.105469 16.96875 C 19.667969 17.523438 18.867188 17.621094 18.3125 17.1875 C 17.757812 16.75 17.660156 15.949219 18.09375 15.394531 C 18.527344 14.839844 19.332031 14.738281 19.886719 15.175781 C 20.441406 15.609375 20.539062 16.414062 20.105469 16.96875 "/>
</g>
</g>
<g clip-path="url(#clip87)" clip-rule="nonzero">
<g clip-path="url(#clip88)" clip-rule="nonzero">
<path style=" stroke:none;fill-rule:nonzero;fill:rgb(89.758301%,11.335754%,15.097046%);fill-opacity:1;" d="M 19.851562 16.773438 C 19.527344 17.1875 18.925781 17.261719 18.507812 16.933594 C 18.09375 16.609375 18.019531 16.007812 18.34375 15.589844 C 18.671875 15.171875 19.273438 15.101562 19.691406 15.425781 C 20.105469 15.753906 20.179688 16.355469 19.851562 16.773438 "/>
</g>
</g>
<g clip-path="url(#clip89)" clip-rule="nonzero">
<g clip-path="url(#clip90)" clip-rule="nonzero">
<path style=" stroke:none;fill-rule:nonzero;fill:rgb(90.005493%,11.450195%,15.133667%);fill-opacity:1;" d="M 19.601562 16.574219 C 19.382812 16.851562 18.984375 16.902344 18.707031 16.683594 C 18.425781 16.464844 18.378906 16.066406 18.597656 15.785156 C 18.8125 15.507812 19.214844 15.460938 19.492188 15.679688 C 19.769531 15.894531 19.820312 16.296875 19.601562 16.574219 "/>
<path style=" stroke:none;fill-rule:nonzero;fill:rgb(90.249634%,11.584473%,15.090942%);fill-opacity:1;" d="M 19.351562 16.378906 C 19.242188 16.515625 19.039062 16.539062 18.902344 16.433594 C 18.761719 16.324219 18.738281 16.121094 18.847656 15.984375 C 18.957031 15.84375 19.15625 15.820312 19.296875 15.929688 C 19.433594 16.039062 19.460938 16.238281 19.351562 16.378906 "/>
</g>
</g>
<path style=" stroke:none;fill-rule:nonzero;fill:rgb(35.650635%,36.203003%,36.940002%);fill-opacity:1;" d="M 20.308594 46.054688 C 20.421875 46.058594 20.535156 46.058594 20.652344 46.058594 C 29.804688 46.058594 36.441406 36.664062 39.582031 31.0625 C 41.664062 27.347656 43.421875 23.203125 44.535156 19.386719 C 45.730469 15.28125 45.601562 13.558594 45.449219 13.222656 C 43.871094 11.832031 36.890625 9.941406 28.800781 9.941406 C 24.40625 9.941406 18.28125 10.519531 13.871094 13.246094 C 10.296875 21.324219 8.921875 34.195312 12.921875 41.144531 C 14.605469 44.070312 17.089844 45.71875 20.308594 46.054688 Z M 20.652344 47.695312 C 20.511719 47.695312 20.375 47.695312 20.234375 47.691406 L 20.171875 47.6875 C 16.386719 47.300781 13.46875 45.378906 11.503906 41.960938 C 7.148438 34.398438 8.578125 20.964844 12.480469 12.351562 L 12.578125 12.128906 L 12.78125 12 C 17.539062 8.945312 24.117188 8.304688 28.800781 8.304688 C 36.328125 8.304688 44.5 10.042969 46.640625 12.097656 L 46.710938 12.167969 C 48.191406 13.980469 45.871094 21.921875 42.878906 28.246094 C 41.121094 31.953125 38.152344 37.242188 33.976562 41.398438 C 29.777344 45.578125 25.292969 47.695312 20.652344 47.695312 "/>
<path style=" stroke:none;fill-rule:nonzero;fill:rgb(100%,100%,100%);fill-opacity:1;" d="M 38.921875 19.234375 L 31.652344 19.234375 C 31.652344 19.234375 31.460938 19.234375 31.128906 19.234375 L 32.566406 13.882812 C 32.566406 13.882812 25.988281 14.210938 24.988281 17.933594 C 24.886719 18.308594 24.769531 18.75 24.640625 19.234375 C 22.992188 19.234375 21.414062 19.234375 20.375 19.234375 C 17.222656 19.234375 15.527344 24.324219 15.527344 24.324219 L 23.269531 24.324219 C 23.246094 24.40625 23.222656 24.492188 23.203125 24.574219 L 23.179688 24.664062 C 23.140625 24.800781 23.101562 24.941406 23.066406 25.078125 L 23.015625 25.269531 C 22.976562 25.414062 22.9375 25.554688 22.902344 25.695312 L 22.882812 25.753906 C 22.726562 26.34375 22.574219 26.917969 22.425781 27.457031 L 22.394531 27.582031 C 22.339844 27.773438 22.289062 27.960938 22.242188 28.144531 C 20.605469 28.144531 19.042969 28.144531 18.011719 28.144531 C 14.859375 28.144531 13.164062 33.234375 13.164062 33.234375 L 20.871094 33.234375 L 19.09375 39.839844 C 19.09375 39.839844 25.671875 39.511719 26.671875 35.789062 C 26.777344 35.410156 26.894531 34.96875 27.023438 34.488281 C 26.097656 33.890625 24.738281 33.300781 22.921875 33.234375 L 27.359375 33.234375 C 28.222656 33.234375 29.070312 33.234375 29.832031 33.234375 C 30.550781 33.234375 31.199219 33.234375 31.710938 33.234375 C 34.863281 33.234375 36.558594 28.144531 36.558594 28.144531 L 29.285156 28.144531 C 29.285156 28.144531 29.082031 28.144531 28.730469 28.144531 C 28.972656 27.238281 29.207031 26.371094 29.414062 25.597656 C 28.488281 24.992188 27.117188 24.390625 25.285156 24.324219 L 29.757812 24.324219 C 30.609375 24.324219 31.445312 24.324219 32.195312 24.324219 C 32.914062 24.324219 33.5625 24.324219 34.074219 24.324219 C 37.226562 24.324219 38.921875 19.234375 38.921875 19.234375 "/>
</g>
</svg>
