<?xml version="1.0" encoding="UTF-8"?>
<svg xmlns="http://www.w3.org/2000/svg" xmlns:xlink="http://www.w3.org/1999/xlink" width="56pt" height="56pt" viewBox="0 0 56 56" version="1.1">
<g id="surface1">
<rect x="0" y="0" width="56" height="56" style="fill:rgb(18.502808%,17.304993%,49.584961%);fill-opacity:1;stroke:none;"/>
<path style=" stroke:none;fill-rule:nonzero;fill:rgb(92.507935%,7.301331%,30.702209%);fill-opacity:1;" d="M 17.136719 23.886719 L 22.171875 22.449219 C 22.171875 22.449219 22.117188 22.109375 21.9375 21.945312 C 21.757812 21.78125 21.433594 21.679688 21.433594 21.679688 L 14.429688 19.136719 C 14.429688 19.136719 14.210938 19.058594 14.046875 19.152344 C 13.882812 19.238281 13.890625 19.472656 13.890625 19.472656 L 13.890625 22.730469 C 13.890625 22.730469 13.871094 23.042969 14.324219 23.742188 C 14.777344 24.441406 15.84375 24.261719 15.84375 24.261719 L 17.136719 23.886719 "/>
<path style=" stroke:none;fill-rule:nonzero;fill:rgb(92.507935%,7.301331%,30.702209%);fill-opacity:1;" d="M 37.191406 16.03125 L 41.875 13.40625 C 41.875 13.40625 41.945312 12.953125 41.765625 12.785156 C 41.585938 12.621094 41.371094 12.570312 41.371094 12.570312 L 21.132812 5.347656 C 21.132812 5.347656 20.910156 5.273438 20.746094 5.363281 C 20.585938 5.453125 20.589844 5.6875 20.589844 5.6875 L 20.589844 8.496094 C 20.589844 8.496094 20.589844 9.144531 21.039062 9.84375 C 21.492188 10.542969 22.222656 10.722656 22.222656 10.722656 L 37.191406 16.03125 "/>
<path style=" stroke:none;fill-rule:nonzero;fill:rgb(92.507935%,7.301331%,30.702209%);fill-opacity:1;" d="M 37.191406 24.203125 L 41.875 21.773438 C 41.875 21.773438 41.976562 21.160156 41.792969 20.996094 C 41.613281 20.828125 41.371094 20.742188 41.371094 20.742188 L 14.429688 10.957031 C 14.429688 10.957031 14.210938 10.882812 14.046875 10.972656 C 13.882812 11.0625 13.890625 11.296875 13.890625 11.296875 L 13.890625 14.101562 C 13.890625 14.101562 13.886719 14.753906 14.339844 15.453125 C 14.789062 16.152344 15.523438 16.332031 15.523438 16.332031 L 37.191406 24.203125 "/>
<path style=" stroke:none;fill-rule:nonzero;fill:rgb(100%,100%,100%);fill-opacity:1;" d="M 41.371094 12.570312 C 41.371094 12.570312 41.644531 12.609375 41.875 12.835938 C 42.105469 13.0625 42.109375 13.339844 42.109375 13.339844 L 42.109375 17.054688 C 42.109375 17.054688 42.097656 17.5625 41.890625 18.019531 C 41.683594 18.476562 41.378906 18.585938 41.378906 18.585938 L 40.742188 18.816406 L 20.519531 26.160156 C 20.519531 26.160156 20.421875 26.191406 20.292969 26.191406 C 20.167969 26.191406 20.070312 26.160156 20.070312 26.160156 L 14.433594 24.113281 C 14.433594 24.113281 14.296875 24.082031 14.097656 23.773438 C 13.875 23.421875 13.890625 22.730469 13.890625 22.730469 C 13.890625 22.730469 13.925781 23.085938 14.125 23.253906 C 14.328125 23.421875 14.859375 23.238281 14.859375 23.238281 L 40.742188 13.835938 C 40.742188 13.835938 41.769531 13.417969 41.769531 12.992188 C 41.769531 12.699219 41.371094 12.570312 41.371094 12.570312 "/>
<path style=" stroke:none;fill-rule:nonzero;fill:rgb(100%,100%,100%);fill-opacity:1;" d="M 41.371094 20.742188 C 41.371094 20.742188 41.644531 20.78125 41.875 21.007812 C 42.105469 21.234375 42.109375 21.511719 42.109375 21.511719 L 42.109375 25.226562 C 42.109375 25.226562 42.097656 25.734375 41.890625 26.191406 C 41.683594 26.648438 41.378906 26.757812 41.378906 26.757812 L 40.742188 26.988281 L 20.519531 34.332031 L 20.519531 29.351562 L 40.742188 22.007812 C 40.742188 22.007812 41.769531 21.589844 41.769531 21.160156 C 41.769531 20.867188 41.371094 20.742188 41.371094 20.742188 "/>
<path style=" stroke:none;fill-rule:nonzero;fill:rgb(100%,100%,100%);fill-opacity:1;" d="M 31.332031 33.824219 C 31.523438 34.019531 31.523438 34.445312 31.523438 34.445312 L 31.523438 37.222656 C 31.523438 37.222656 31.511719 37.730469 31.304688 38.1875 C 31.09375 38.644531 30.789062 38.753906 30.789062 38.753906 L 30.15625 38.984375 L 20.519531 42.484375 L 20.519531 37.503906 L 30.15625 34.003906 C 30.15625 34.003906 31.136719 33.632812 31.332031 33.824219 "/>
<path style=" stroke:none;fill-rule:nonzero;fill:rgb(100%,100%,100%);fill-opacity:1;" d="M 25.113281 44.21875 C 25.304688 44.410156 25.304688 44.839844 25.304688 44.839844 L 25.304688 47.617188 C 25.304688 47.617188 25.292969 48.125 25.085938 48.582031 C 24.878906 49.039062 24.574219 49.144531 24.574219 49.144531 L 23.9375 49.375 L 20.519531 50.679688 L 20.519531 45.703125 L 23.9375 44.398438 C 23.9375 44.398438 24.917969 44.023438 25.113281 44.21875 "/>
</g>
</svg>
