<?xml version="1.0" encoding="UTF-8"?>
<svg xmlns="http://www.w3.org/2000/svg" xmlns:xlink="http://www.w3.org/1999/xlink" width="56pt" height="56pt" viewBox="0 0 56 56" version="1.1">
<g id="surface1">
<rect x="0" y="0" width="56" height="56" style="fill:rgb(95.666504%,95.776367%,96.775818%);fill-opacity:1;stroke:none;"/>
<path style=" stroke:none;fill-rule:nonzero;fill:rgb(9.423828%,11.723328%,24.54071%);fill-opacity:1;" d="M 15.21875 16.207031 C 17.765625 16.15625 20.320312 16.203125 22.867188 16.1875 C 32.441406 16.1875 42.011719 16.1875 51.585938 16.1875 C 51.878906 16.167969 52.171875 16.394531 52.21875 16.691406 C 52.28125 17.03125 52.113281 17.359375 51.976562 17.660156 C 51.511719 18.628906 51.074219 19.609375 50.609375 20.582031 C 50.398438 21.042969 50.003906 21.410156 49.542969 21.625 C 49.035156 21.847656 48.464844 21.792969 47.921875 21.800781 C 36.691406 21.800781 25.453125 21.800781 14.222656 21.800781 C 13.671875 21.769531 13.105469 21.878906 12.578125 21.699219 C 12.140625 21.515625 12.183594 20.945312 12.34375 20.582031 C 12.855469 19.492188 13.355469 18.394531 13.871094 17.304688 C 14.128906 16.761719 14.65625 16.394531 15.21875 16.207031 "/>
<path style=" stroke:none;fill-rule:nonzero;fill:rgb(9.423828%,11.723328%,24.54071%);fill-opacity:1;" d="M 26.644531 25.347656 C 27.320312 24.613281 27.90625 23.789062 28.652344 23.128906 C 28.78125 23.277344 28.90625 23.433594 28.976562 23.621094 C 29.191406 24.199219 29.40625 24.769531 29.621094 25.347656 C 30.515625 25.371094 31.417969 25.296875 32.308594 25.386719 C 32.660156 25.4375 32.605469 25.898438 32.433594 26.117188 C 31.886719 26.832031 31.25 27.472656 30.6875 28.175781 C 30.925781 28.738281 31.132812 29.3125 31.34375 29.886719 C 31.421875 30.121094 31.453125 30.503906 31.136719 30.5625 C 30.28125 30.761719 29.394531 30.609375 28.527344 30.671875 C 27.925781 31.289062 27.414062 31.984375 26.8125 32.601562 C 26.71875 32.726562 26.5625 32.757812 26.421875 32.734375 C 26.082031 32.074219 25.871094 31.355469 25.601562 30.667969 C 24.699219 30.628906 23.785156 30.722656 22.890625 30.617188 C 22.507812 30.570312 22.558594 30.09375 22.746094 29.863281 C 23.289062 29.140625 23.960938 28.515625 24.492188 27.78125 C 24.296875 27.136719 23.976562 26.535156 23.808594 25.882812 C 23.722656 25.574219 24.050781 25.386719 24.316406 25.378906 C 25.089844 25.308594 25.867188 25.367188 26.644531 25.347656 "/>
<path style=" stroke:none;fill-rule:nonzero;fill:rgb(9.423828%,11.723328%,24.54071%);fill-opacity:1;" d="M 6.9375 34.238281 C 12.390625 34.203125 17.847656 34.234375 23.304688 34.222656 C 29.886719 34.222656 36.46875 34.21875 43.050781 34.222656 C 43.410156 34.1875 43.8125 34.476562 43.78125 34.863281 C 43.8125 35.152344 43.660156 35.40625 43.546875 35.65625 C 43.097656 36.617188 42.652344 37.582031 42.203125 38.542969 C 41.867188 39.273438 41.105469 39.894531 40.269531 39.808594 C 28.300781 39.800781 16.332031 39.8125 4.363281 39.800781 C 3.839844 39.800781 3.636719 39.167969 3.847656 38.753906 C 4.203125 37.921875 4.609375 37.109375 4.984375 36.289062 C 5.246094 35.78125 5.40625 35.195312 5.835938 34.796875 C 6.140625 34.515625 6.515625 34.285156 6.9375 34.238281 "/>
</g>
</svg>
