<?xml version="1.0" encoding="UTF-8"?>
<svg xmlns="http://www.w3.org/2000/svg" xmlns:xlink="http://www.w3.org/1999/xlink" width="56pt" height="56pt" viewBox="0 0 56 56" version="1.1">
<g id="surface1">
<rect x="0" y="0" width="56" height="56" style="fill:rgb(95.66803%,95.779419%,96.777344%);fill-opacity:1;stroke:none;"/>
<rect x="0" y="0" width="56" height="56" style="fill:rgb(95.66803%,95.779419%,96.777344%);fill-opacity:1;stroke:none;"/>
<path style=" stroke:none;fill-rule:nonzero;fill:rgb(30.540466%,52.406311%,80.485535%);fill-opacity:1;" d="M 26.800781 2.320312 C 27.40625 2.320312 28.007812 2.320312 28.609375 2.320312 C 28.824219 2.339844 29.039062 2.359375 29.253906 2.375 C 29.945312 2.429688 30.640625 2.453125 31.324219 2.539062 C 32.929688 2.75 34.507812 3.109375 36.046875 3.621094 C 37.410156 4.078125 38.726562 4.636719 39.996094 5.3125 C 41.984375 6.375 43.804688 7.679688 45.457031 9.222656 C 47.054688 10.714844 48.433594 12.394531 49.613281 14.242188 C 49.757812 14.472656 49.882812 14.71875 50.019531 14.957031 C 50.003906 14.957031 49.988281 14.957031 49.976562 14.953125 C 49.667969 14.855469 49.363281 14.746094 49.050781 14.667969 C 48.691406 14.582031 48.316406 14.53125 47.953125 14.449219 C 47.367188 14.3125 46.808594 14.097656 46.261719 13.847656 C 44.992188 13.269531 43.753906 12.617188 42.429688 12.152344 C 41.65625 11.882812 40.878906 11.601562 40.089844 11.371094 C 39.308594 11.140625 38.515625 10.957031 37.722656 10.769531 C 37.25 10.652344 36.773438 10.546875 36.289062 10.460938 C 35.808594 10.375 35.320312 10.308594 34.835938 10.246094 C 34.152344 10.152344 33.464844 10.050781 32.777344 9.992188 C 32.082031 9.933594 31.378906 9.90625 30.679688 9.890625 C 29.46875 9.859375 28.261719 9.917969 27.054688 10.03125 C 26.324219 10.097656 25.601562 10.203125 24.878906 10.320312 C 24.042969 10.460938 23.222656 10.652344 22.40625 10.878906 C 21.34375 11.171875 20.316406 11.539062 19.332031 12.03125 C 18.226562 12.585938 17.214844 13.261719 16.402344 14.210938 C 15.765625 14.953125 15.316406 15.78125 15.15625 16.757812 C 15.140625 16.84375 15.109375 16.929688 15.082031 17.015625 C 14.769531 17.015625 14.476562 17.015625 14.1875 17.015625 C 13.824219 17.011719 13.496094 17.128906 13.191406 17.304688 C 12.75 17.558594 12.445312 17.949219 12.210938 18.386719 C 11.953125 18.871094 11.714844 19.367188 11.480469 19.863281 C 11.246094 20.351562 10.902344 20.714844 10.382812 20.902344 C 10.039062 21.023438 9.699219 21.15625 9.359375 21.292969 C 8.667969 21.578125 8.265625 22.09375 8.1875 22.839844 C 8.148438 23.203125 8.136719 23.570312 8.128906 23.9375 C 8.109375 24.753906 8.269531 25.539062 8.570312 26.296875 C 9.058594 27.53125 9.855469 28.523438 10.941406 29.292969 C 11.59375 29.753906 12.316406 30.070312 13.082031 30.28125 C 13.441406 30.378906 13.808594 30.4375 14.214844 30.449219 C 14.113281 29.425781 13.925781 28.433594 13.847656 27.425781 C 14.667969 27.417969 15.300781 27.726562 15.839844 28.28125 C 16.550781 29.011719 16.921875 29.914062 17.15625 30.875 C 17.277344 31.355469 17.316406 31.859375 17.382812 32.351562 C 17.484375 33.148438 17.40625 33.929688 17.246094 34.710938 C 17.070312 35.5625 16.75 36.351562 16.335938 37.105469 C 15.871094 37.949219 15.378906 38.78125 14.90625 39.625 C 14.492188 40.363281 14.15625 41.132812 13.976562 41.960938 C 13.875 42.414062 13.800781 42.878906 13.765625 43.339844 C 13.722656 43.9375 13.699219 44.542969 13.722656 45.140625 C 13.753906 45.957031 13.851562 46.769531 13.898438 47.585938 C 13.929688 48.175781 13.921875 48.769531 13.933594 49.363281 C 13.855469 49.320312 13.769531 49.28125 13.695312 49.230469 C 12.621094 48.503906 11.605469 47.703125 10.652344 46.824219 C 9.519531 45.78125 8.488281 44.648438 7.558594 43.417969 C 6.667969 42.242188 5.871094 41.011719 5.21875 39.695312 C 4.800781 38.851562 4.402344 37.992188 4.058594 37.117188 C 3.738281 36.296875 3.476562 35.449219 3.238281 34.601562 C 2.976562 33.660156 2.765625 32.707031 2.652344 31.734375 C 2.566406 31.007812 2.464844 30.277344 2.425781 29.542969 C 2.378906 28.746094 2.378906 27.941406 2.398438 27.144531 C 2.417969 26.382812 2.457031 25.621094 2.546875 24.867188 C 2.738281 23.257812 3.082031 21.675781 3.578125 20.132812 C 4.070312 18.601562 4.695312 17.128906 5.460938 15.722656 C 6.5 13.820312 7.75 12.074219 9.230469 10.492188 C 10.855469 8.746094 12.683594 7.25 14.726562 6.015625 C 16.96875 4.660156 19.363281 3.664062 21.910156 3.046875 C 23.253906 2.722656 24.609375 2.503906 25.988281 2.398438 C 26.257812 2.378906 26.53125 2.347656 26.800781 2.320312 "/>
<path style=" stroke:none;fill-rule:nonzero;fill:rgb(17.420959%,16.390991%,44.952393%);fill-opacity:1;" d="M 28.355469 50.644531 C 28.875 50.59375 29.363281 50.554688 29.847656 50.492188 C 30.101562 50.460938 30.300781 50.332031 30.367188 50.058594 C 30.484375 49.582031 30.207031 49.222656 29.714844 49.234375 C 29.355469 49.242188 29 49.277344 28.644531 49.300781 C 28.515625 49.3125 28.386719 49.328125 28.25 49.34375 C 28.269531 49.660156 28.289062 49.949219 28.308594 50.238281 C 28.320312 50.363281 28.339844 50.484375 28.355469 50.644531 Z M 27.503906 53.679688 C 27.503906 53.648438 27.503906 53.613281 27.503906 53.582031 C 27.503906 53.53125 27.511719 53.480469 27.507812 53.429688 C 27.390625 51.867188 27.269531 50.300781 27.152344 48.738281 C 27.148438 48.675781 27.152344 48.613281 27.152344 48.546875 C 27.203125 48.539062 27.234375 48.527344 27.269531 48.523438 C 27.933594 48.472656 28.597656 48.414062 29.265625 48.375 C 29.582031 48.355469 29.898438 48.355469 30.214844 48.367188 C 30.523438 48.378906 30.800781 48.488281 31.027344 48.707031 C 31.804688 49.476562 31.53125 50.746094 30.507812 51.113281 C 30.433594 51.140625 30.363281 51.167969 30.238281 51.210938 C 30.746094 51.457031 31.042969 51.835938 31.335938 52.222656 C 31.589844 52.5625 31.847656 52.898438 32.105469 53.238281 C 32.109375 53.261719 32.113281 53.285156 32.121094 53.339844 C 31.742188 53.367188 31.363281 53.394531 30.988281 53.417969 C 30.9375 53.417969 30.886719 53.371094 30.835938 53.347656 C 30.421875 52.824219 30.007812 52.304688 29.597656 51.78125 C 29.28125 51.375 28.867188 51.402344 28.425781 51.472656 C 28.425781 51.605469 28.417969 51.710938 28.425781 51.816406 C 28.464844 52.28125 28.507812 52.746094 28.539062 53.210938 C 28.550781 53.347656 28.53125 53.488281 28.527344 53.625 C 28.4375 53.644531 28.347656 53.664062 28.257812 53.679688 C 28.007812 53.679688 27.753906 53.679688 27.503906 53.679688 "/>
<path style=" stroke:none;fill-rule:nonzero;fill:rgb(99.819946%,99.942017%,99.987793%);fill-opacity:1;" d="M 16.277344 23.121094 C 16.535156 23.632812 16.890625 23.980469 17.457031 24.105469 C 18.113281 24.25 18.640625 24.625 19.070312 25.140625 C 19.351562 25.472656 19.636719 25.804688 19.945312 26.105469 C 20.738281 26.875 21.5625 27.605469 22.449219 28.265625 C 23.152344 28.789062 23.890625 29.242188 24.777344 29.371094 C 25.933594 29.539062 27.089844 29.707031 28.25 29.851562 C 29.4375 30.003906 30.613281 30.203125 31.742188 30.597656 C 32.214844 30.761719 32.664062 30.988281 33.121094 31.191406 C 33.402344 31.3125 33.691406 31.410156 34.054688 31.457031 C 33.964844 31.324219 33.90625 31.230469 33.84375 31.148438 C 33.578125 30.796875 33.242188 30.523438 32.875 30.285156 C 31.84375 29.617188 30.703125 29.21875 29.496094 29.042969 C 28.578125 28.914062 27.648438 28.867188 26.730469 28.753906 C 26.183594 28.683594 25.636719 28.589844 25.109375 28.441406 C 24.007812 28.125 23.113281 27.457031 22.308594 26.660156 C 21.621094 25.980469 21.046875 25.210938 20.464844 24.449219 C 19.804688 23.585938 19.125 22.738281 18.292969 22.027344 C 18.171875 21.925781 18.078125 21.910156 17.933594 21.964844 C 17.285156 22.207031 16.757812 22.617188 16.277344 23.121094 Z M 32.105469 53.238281 C 31.847656 52.898438 31.589844 52.5625 31.335938 52.222656 C 31.042969 51.835938 30.746094 51.457031 30.238281 51.210938 C 30.363281 51.167969 30.433594 51.140625 30.507812 51.113281 C 31.53125 50.746094 31.804688 49.476562 31.027344 48.707031 C 30.800781 48.488281 30.523438 48.378906 30.214844 48.367188 C 29.898438 48.355469 29.582031 48.355469 29.265625 48.375 C 28.597656 48.414062 27.933594 48.472656 27.269531 48.523438 C 27.234375 48.527344 27.203125 48.539062 27.152344 48.546875 C 27.152344 48.613281 27.148438 48.675781 27.152344 48.738281 C 27.269531 50.300781 27.390625 51.867188 27.507812 53.429688 C 27.511719 53.480469 27.503906 53.53125 27.503906 53.582031 C 27.097656 53.5625 26.691406 53.550781 26.285156 53.53125 C 26.3125 53.261719 26.339844 52.992188 26.371094 52.703125 C 25.410156 52.582031 24.476562 52.460938 23.523438 52.339844 C 23.605469 51.867188 23.613281 51.414062 23.722656 50.957031 C 24.582031 51.066406 25.414062 51.171875 26.265625 51.277344 C 26.300781 50.976562 26.335938 50.707031 26.367188 50.414062 C 25.5 50.300781 24.660156 50.195312 23.8125 50.082031 C 23.863281 49.6875 23.910156 49.332031 23.960938 48.953125 C 24.890625 49.070312 25.789062 49.183594 26.710938 49.296875 C 26.746094 48.996094 26.78125 48.726562 26.820312 48.433594 C 25.554688 48.273438 24.308594 48.113281 23.039062 47.953125 C 23.019531 48.09375 22.996094 48.210938 22.980469 48.335938 C 22.941406 48.632812 22.90625 48.929688 22.867188 49.230469 C 22.761719 50.074219 22.65625 50.917969 22.542969 51.765625 C 22.492188 52.167969 22.429688 52.574219 22.375 52.976562 C 22.195312 52.945312 22.019531 52.910156 21.84375 52.878906 C 21.828125 52.761719 21.808594 52.648438 21.800781 52.53125 C 21.722656 51.066406 21.648438 49.597656 21.570312 48.132812 C 21.554688 47.882812 21.535156 47.632812 21.515625 47.371094 C 21.164062 47.253906 20.820312 47.140625 20.480469 47.027344 C 20.425781 47.089844 20.390625 47.125 20.359375 47.164062 C 19.75 47.890625 19.140625 48.621094 18.527344 49.351562 C 18.027344 49.945312 17.527344 50.53125 17.023438 51.125 C 16.835938 51.039062 16.644531 50.964844 16.464844 50.863281 C 15.816406 50.507812 15.175781 50.144531 14.535156 49.777344 C 14.417969 49.707031 14.316406 49.605469 14.207031 49.515625 C 14.207031 47.984375 14.304688 46.460938 14.601562 44.957031 C 14.847656 43.703125 15.226562 42.492188 15.832031 41.371094 C 16.34375 40.417969 16.910156 39.488281 17.464844 38.558594 C 18.007812 37.648438 18.527344 36.726562 18.953125 35.753906 C 19.359375 34.824219 19.597656 33.84375 19.742188 32.839844 C 19.882812 31.847656 19.921875 30.859375 19.722656 29.871094 C 19.578125 29.160156 19.289062 28.523438 18.707031 28.050781 C 18.503906 27.890625 18.316406 27.710938 18.121094 27.539062 C 17.347656 26.875 16.5625 26.226562 15.691406 25.691406 C 15.113281 25.335938 14.515625 25.019531 13.851562 24.859375 C 13.570312 24.792969 13.285156 24.71875 12.96875 24.78125 C 12.914062 24.984375 12.839844 25.183594 12.8125 25.386719 C 12.753906 25.839844 12.726562 26.300781 12.671875 26.757812 C 12.632812 27.070312 12.570312 27.382812 12.371094 27.640625 C 12.171875 27.679688 11.992188 27.640625 11.839844 27.527344 C 11.671875 27.40625 11.503906 27.277344 11.367188 27.121094 C 10.691406 26.355469 10.273438 25.453125 9.984375 24.480469 C 9.8125 23.902344 9.710938 23.3125 9.785156 22.703125 C 9.804688 22.53125 9.871094 22.386719 9.992188 22.261719 C 10.367188 21.875 10.828125 21.722656 11.355469 21.75 C 11.910156 21.777344 12.4375 21.945312 12.964844 22.101562 C 13.613281 22.296875 14.257812 22.5 14.945312 22.519531 C 15.371094 22.53125 15.796875 22.496094 16.199219 22.332031 C 16.605469 22.167969 16.886719 21.878906 16.960938 21.441406 C 17.003906 21.199219 17.023438 20.9375 16.992188 20.695312 C 16.921875 20.199219 16.8125 19.710938 16.714844 19.21875 C 16.671875 18.996094 16.621094 18.769531 16.570312 18.507812 C 18 18.699219 19.394531 18.882812 20.8125 19.074219 C 20.765625 19.167969 20.738281 19.21875 20.714844 19.269531 C 20.554688 19.628906 20.371094 19.976562 20.242188 20.34375 C 20.03125 20.941406 20.132812 21.496094 20.511719 22.003906 C 20.847656 22.449219 21.265625 22.804688 21.746094 23.085938 C 22.585938 23.570312 23.496094 23.773438 24.453125 23.796875 C 25.621094 23.824219 26.730469 23.617188 27.761719 23.042969 C 28.289062 22.75 28.742188 22.375 29.011719 21.820312 C 29.453125 20.90625 29.390625 20.082031 28.691406 19.320312 C 28.476562 19.085938 28.230469 18.882812 27.992188 18.671875 C 27.816406 18.519531 27.632812 18.378906 27.4375 18.21875 C 27.503906 18.171875 27.542969 18.132812 27.59375 18.109375 C 27.925781 17.953125 28.253906 17.789062 28.589844 17.648438 C 28.996094 17.476562 29.421875 17.34375 29.820312 17.15625 C 30.453125 16.859375 30.832031 16.355469 30.964844 15.636719 C 30.851562 15.648438 30.753906 15.65625 30.65625 15.671875 C 30.214844 15.757812 29.773438 15.839844 29.332031 15.933594 C 27.6875 16.277344 26.042969 16.609375 24.378906 16.832031 C 23.109375 17.003906 21.839844 17.128906 20.554688 17.085938 C 19.695312 17.054688 18.839844 16.960938 18.035156 16.605469 C 17.683594 16.449219 17.355469 16.257812 17.121094 15.949219 C 17.222656 15.585938 17.304688 15.398438 17.542969 15.144531 C 17.730469 14.945312 17.933594 14.753906 18.152344 14.59375 C 18.808594 14.105469 19.550781 13.78125 20.3125 13.5 C 22.03125 12.867188 23.804688 12.484375 25.617188 12.269531 C 27.503906 12.042969 29.398438 11.96875 31.300781 12.023438 C 32.679688 12.058594 34.054688 12.148438 35.421875 12.328125 C 36.035156 12.40625 36.652344 12.484375 37.253906 12.605469 C 38.140625 12.78125 39.019531 12.976562 39.890625 13.199219 C 40.9375 13.460938 41.925781 13.890625 42.921875 14.296875 C 44.226562 14.832031 45.542969 15.34375 46.953125 15.539062 C 47.667969 15.636719 48.386719 15.648438 49.085938 15.425781 C 49.410156 15.324219 49.730469 15.207031 49.976562 14.953125 C 49.988281 14.957031 50.003906 14.957031 50.019531 14.957031 C 50.117188 15.097656 50.230469 15.230469 50.308594 15.386719 C 50.605469 15.960938 50.894531 16.542969 51.183594 17.121094 C 51.144531 17.164062 51.105469 17.207031 51.058594 17.242188 C 50.089844 18.074219 49.117188 18.902344 48.144531 19.730469 C 47.796875 20.027344 47.453125 20.328125 47.085938 20.640625 C 47.207031 20.988281 47.324219 21.332031 47.441406 21.683594 C 49.285156 21.765625 51.109375 21.847656 52.9375 21.933594 C 52.953125 22.09375 52.96875 22.253906 52.984375 22.417969 C 51.296875 22.71875 49.613281 23.019531 47.914062 23.320312 C 47.976562 23.683594 48.035156 24.007812 48.09375 24.339844 C 48.171875 24.332031 48.21875 24.335938 48.269531 24.324219 C 49.15625 24.167969 50.042969 24.007812 50.929688 23.847656 C 51.675781 23.710938 52.421875 23.574219 53.167969 23.4375 C 53.222656 23.667969 53.28125 23.898438 53.335938 24.128906 C 53.058594 24.152344 52.78125 24.175781 52.492188 24.203125 C 52.554688 25.078125 52.617188 25.914062 52.679688 26.777344 C 51.253906 26.886719 49.859375 26.996094 48.449219 27.105469 C 48.476562 27.457031 48.503906 27.785156 48.53125 28.132812 C 48.609375 28.132812 48.671875 28.136719 48.738281 28.132812 C 49.710938 28.058594 50.683594 27.980469 51.660156 27.910156 C 52.300781 27.863281 52.941406 27.820312 53.582031 27.777344 C 53.566406 28.445312 53.550781 29.109375 53.539062 29.773438 C 53.535156 29.867188 53.503906 29.933594 53.414062 29.96875 C 53.195312 29.339844 52.796875 28.859375 52.191406 28.578125 C 51.554688 28.285156 50.878906 28.203125 50.183594 28.289062 C 49.84375 28.328125 49.523438 28.449219 49.226562 28.632812 C 48.109375 29.332031 47.976562 30.878906 48.28125 31.710938 C 48.511719 32.339844 48.964844 32.773438 49.582031 33.019531 C 50.21875 33.273438 50.886719 33.367188 51.570312 33.246094 C 52.242188 33.132812 52.746094 32.761719 53.128906 32.210938 C 53.152344 32.242188 53.195312 32.277344 53.191406 32.304688 C 53.160156 32.578125 53.136719 32.851562 53.074219 33.113281 C 52.917969 33.777344 52.742188 34.429688 52.574219 35.089844 C 52.554688 35.167969 52.554688 35.253906 52.53125 35.332031 C 52.515625 35.386719 52.464844 35.425781 52.429688 35.472656 C 52.425781 35.398438 52.417969 35.324219 52.414062 35.25 C 52.394531 34.917969 52.367188 34.585938 52.257812 34.265625 C 52.210938 34.132812 52.128906 34.058594 52.003906 34.019531 C 51.734375 33.933594 51.464844 33.839844 51.199219 33.75 C 50.882812 33.648438 50.570312 33.542969 50.230469 33.433594 C 49.988281 34.152344 49.757812 34.847656 49.519531 35.554688 C 49.8125 35.652344 50.070312 35.738281 50.339844 35.828125 C 50.472656 35.441406 50.597656 35.082031 50.726562 34.710938 C 50.945312 34.785156 51.140625 34.851562 51.324219 34.910156 C 51.492188 35.324219 51.507812 35.804688 51.371094 36.203125 C 51.152344 36.84375 50.664062 37.191406 49.984375 37.179688 C 49.535156 37.175781 49.113281 37.039062 48.71875 36.835938 C 47.945312 36.429688 47.699219 35.667969 48.078125 34.882812 C 48.257812 34.507812 48.554688 34.292969 48.964844 34.230469 C 49.019531 34.222656 49.078125 34.21875 49.152344 34.210938 C 49.199219 33.867188 49.242188 33.535156 49.292969 33.183594 C 48.59375 33.121094 48.042969 33.332031 47.625 33.855469 C 47.355469 34.195312 47.199219 34.589844 47.085938 35 C 46.875 35.765625 46.953125 36.492188 47.464844 37.105469 C 48.226562 38.023438 49.238281 38.339844 50.402344 38.179688 C 50.910156 38.113281 51.316406 37.832031 51.671875 37.472656 C 51.675781 37.523438 51.703125 37.582031 51.6875 37.621094 C 51.597656 37.863281 51.507812 38.101562 51.402344 38.335938 C 51.246094 38.679688 51.082031 39.027344 50.910156 39.363281 C 50.863281 39.457031 50.777344 39.523438 50.707031 39.601562 C 50.660156 39.582031 50.613281 39.5625 50.574219 39.535156 C 49.457031 38.820312 48.339844 38.105469 47.21875 37.390625 C 46.988281 37.242188 46.757812 37.097656 46.503906 36.9375 C 46.324219 37.214844 46.15625 37.476562 45.984375 37.746094 C 46.949219 38.363281 47.878906 38.960938 48.855469 39.585938 C 48.757812 39.59375 48.71875 39.601562 48.679688 39.601562 C 48.128906 39.59375 47.578125 39.589844 47.027344 39.582031 C 46.367188 39.570312 45.707031 39.550781 45.046875 39.535156 C 44.949219 39.535156 44.847656 39.515625 44.78125 39.621094 C 44.621094 39.875 44.460938 40.128906 44.296875 40.382812 C 44.339844 40.414062 44.363281 40.433594 44.394531 40.453125 C 45.15625 40.945312 45.925781 41.433594 46.691406 41.925781 C 47.304688 42.320312 47.921875 42.722656 48.539062 43.121094 C 48.515625 43.363281 48.324219 43.511719 48.195312 43.683594 C 47.902344 44.066406 47.582031 44.425781 47.273438 44.796875 C 47.253906 44.820312 47.222656 44.839844 47.1875 44.871094 C 47.171875 44.835938 47.164062 44.808594 47.152344 44.78125 C 47.304688 44.296875 47.332031 43.8125 47.15625 43.332031 C 46.828125 42.429688 46.179688 41.808594 45.324219 41.414062 C 44.730469 41.140625 44.105469 41.15625 43.507812 41.433594 C 42.953125 41.6875 42.539062 42.105469 42.222656 42.621094 C 41.949219 43.066406 41.832031 43.546875 41.9375 44.054688 C 42 44.355469 42.117188 44.640625 42.214844 44.933594 C 42.191406 44.957031 42.167969 44.980469 42.148438 45.003906 C 41.863281 44.578125 41.582031 44.148438 41.292969 43.714844 C 40.84375 44.003906 40.417969 44.277344 39.980469 44.558594 C 40.167969 45.132812 40.347656 45.683594 40.527344 46.238281 C 40.707031 46.792969 40.90625 47.335938 41.058594 47.898438 C 41.042969 47.90625 41.027344 47.914062 41.011719 47.917969 C 40.152344 47.132812 39.292969 46.34375 38.429688 45.550781 C 37.980469 45.839844 37.554688 46.113281 37.121094 46.394531 C 37.15625 46.457031 37.183594 46.511719 37.214844 46.558594 C 37.605469 47.167969 38 47.777344 38.390625 48.390625 C 38.882812 49.164062 39.375 49.9375 39.867188 50.710938 C 39.664062 50.796875 39.453125 50.871094 39.253906 50.96875 C 38.410156 51.386719 37.550781 51.761719 36.664062 52.074219 C 36.484375 52.136719 36.304688 52.199219 36.121094 52.25 C 36.082031 52.261719 36.023438 52.226562 35.972656 52.210938 C 36.585938 51.65625 36.851562 50.964844 36.769531 50.144531 C 36.707031 49.558594 36.539062 49 36.214844 48.5 C 35.839844 47.925781 35.3125 47.566406 34.628906 47.472656 C 34.085938 47.398438 33.570312 47.515625 33.0625 47.71875 C 32.042969 48.128906 31.617188 49.148438 31.667969 49.945312 C 31.707031 50.554688 31.855469 51.132812 32.15625 51.664062 C 32.429688 52.144531 32.816406 52.503906 33.34375 52.6875 C 33.578125 52.769531 33.832031 52.796875 34.074219 52.851562 C 34.046875 52.875 34.019531 52.917969 33.988281 52.921875 C 33.648438 52.988281 33.304688 53.050781 32.964844 53.105469 C 32.675781 53.15625 32.390625 53.195312 32.105469 53.238281 "/>
<path style=" stroke:none;fill-rule:nonzero;fill:rgb(17.420959%,16.390991%,44.952393%);fill-opacity:1;" d="M 23.371094 19.457031 C 23.296875 19.820312 23.242188 20.164062 23.359375 20.515625 C 23.414062 20.675781 23.554688 20.773438 23.730469 20.742188 C 23.925781 20.703125 24.128906 20.664062 24.296875 20.570312 C 24.464844 20.476562 24.542969 20.285156 24.539062 20.085938 C 24.535156 19.949219 24.484375 19.8125 24.453125 19.660156 C 24.101562 19.59375 23.757812 19.53125 23.371094 19.457031 Z M 26.386719 18.492188 L 26.390625 18.476562 L 26.382812 18.484375 C 26.816406 18.78125 27.222656 19.113281 27.5625 19.523438 C 27.828125 19.84375 28.023438 20.203125 28.070312 20.617188 C 28.121094 21.132812 27.917969 21.566406 27.558594 21.921875 C 26.894531 22.582031 26.050781 22.851562 25.152344 22.957031 C 24.671875 23.011719 24.1875 22.996094 23.703125 22.898438 C 22.972656 22.753906 22.332031 22.449219 21.8125 21.90625 C 21.53125 21.617188 21.347656 21.273438 21.347656 20.859375 C 21.347656 20.554688 21.414062 20.265625 21.550781 19.988281 C 21.710938 19.65625 21.875 19.324219 22.050781 18.964844 C 21.976562 18.972656 21.925781 18.964844 21.886719 18.984375 C 21.699219 19.074219 21.503906 19.15625 21.335938 19.273438 C 20.613281 19.800781 20.289062 20.753906 20.8125 21.644531 C 21.027344 22.003906 21.3125 22.289062 21.644531 22.53125 C 22.34375 23.042969 23.148438 23.285156 23.992188 23.363281 C 24.878906 23.441406 25.757812 23.382812 26.613281 23.09375 C 27.296875 22.867188 27.921875 22.554688 28.394531 21.992188 C 28.964844 21.300781 29.046875 20.378906 28.457031 19.628906 C 27.980469 19.027344 27.34375 18.6875 26.625 18.484375 C 26.550781 18.460938 26.464844 18.488281 26.386719 18.492188 Z M 49.976562 14.953125 C 49.730469 15.207031 49.410156 15.324219 49.085938 15.425781 C 48.386719 15.648438 47.667969 15.636719 46.953125 15.539062 C 45.542969 15.34375 44.226562 14.832031 42.921875 14.296875 C 41.925781 13.890625 40.9375 13.460938 39.890625 13.199219 C 39.019531 12.976562 38.140625 12.78125 37.253906 12.605469 C 36.652344 12.484375 36.035156 12.40625 35.421875 12.328125 C 34.054688 12.148438 32.679688 12.058594 31.300781 12.023438 C 29.398438 11.96875 27.503906 12.042969 25.617188 12.269531 C 23.804688 12.484375 22.03125 12.867188 20.3125 13.5 C 19.550781 13.78125 18.808594 14.105469 18.152344 14.59375 C 17.933594 14.753906 17.730469 14.945312 17.542969 15.144531 C 17.304688 15.398438 17.222656 15.585938 17.121094 15.949219 C 17.355469 16.257812 17.683594 16.449219 18.035156 16.605469 C 18.839844 16.960938 19.695312 17.054688 20.554688 17.085938 C 21.839844 17.128906 23.109375 17.003906 24.378906 16.832031 C 26.042969 16.609375 27.6875 16.277344 29.332031 15.933594 C 29.773438 15.839844 30.214844 15.757812 30.65625 15.671875 C 30.753906 15.65625 30.851562 15.648438 30.964844 15.636719 C 30.832031 16.355469 30.453125 16.859375 29.820312 17.15625 C 29.421875 17.34375 28.996094 17.476562 28.589844 17.648438 C 28.253906 17.789062 27.925781 17.953125 27.59375 18.109375 C 27.542969 18.132812 27.503906 18.171875 27.4375 18.21875 C 27.632812 18.378906 27.816406 18.519531 27.992188 18.671875 C 28.230469 18.882812 28.476562 19.085938 28.691406 19.320312 C 29.390625 20.082031 29.453125 20.90625 29.011719 21.820312 C 28.742188 22.375 28.289062 22.75 27.761719 23.042969 C 26.730469 23.617188 25.621094 23.824219 24.453125 23.796875 C 23.496094 23.773438 22.585938 23.570312 21.746094 23.085938 C 21.265625 22.804688 20.847656 22.449219 20.511719 22.003906 C 20.132812 21.496094 20.03125 20.941406 20.242188 20.34375 C 20.371094 19.976562 20.554688 19.628906 20.714844 19.269531 C 20.738281 19.21875 20.765625 19.167969 20.8125 19.074219 C 19.394531 18.882812 18 18.699219 16.570312 18.507812 C 16.621094 18.769531 16.671875 18.996094 16.714844 19.21875 C 16.8125 19.710938 16.921875 20.199219 16.992188 20.695312 C 17.023438 20.9375 17.003906 21.199219 16.960938 21.441406 C 16.886719 21.878906 16.605469 22.167969 16.199219 22.332031 C 15.796875 22.496094 15.371094 22.53125 14.945312 22.519531 C 14.257812 22.5 13.613281 22.296875 12.964844 22.101562 C 12.4375 21.945312 11.910156 21.777344 11.355469 21.75 C 10.828125 21.722656 10.367188 21.875 9.992188 22.261719 C 9.871094 22.386719 9.804688 22.53125 9.785156 22.703125 C 9.710938 23.3125 9.8125 23.902344 9.984375 24.480469 C 10.273438 25.453125 10.691406 26.355469 11.367188 27.121094 C 11.503906 27.277344 11.671875 27.40625 11.839844 27.527344 C 11.992188 27.640625 12.171875 27.679688 12.371094 27.640625 C 12.570312 27.382812 12.632812 27.070312 12.671875 26.757812 C 12.726562 26.300781 12.753906 25.839844 12.8125 25.386719 C 12.839844 25.183594 12.914062 24.984375 12.96875 24.78125 C 13.285156 24.71875 13.570312 24.792969 13.851562 24.859375 C 14.515625 25.019531 15.113281 25.335938 15.691406 25.691406 C 16.5625 26.226562 17.347656 26.875 18.121094 27.539062 C 18.316406 27.710938 18.503906 27.890625 18.707031 28.050781 C 19.289062 28.523438 19.578125 29.160156 19.722656 29.871094 C 19.921875 30.859375 19.882812 31.847656 19.742188 32.839844 C 19.597656 33.84375 19.359375 34.824219 18.953125 35.753906 C 18.527344 36.726562 18.007812 37.648438 17.464844 38.558594 C 16.910156 39.488281 16.34375 40.417969 15.832031 41.371094 C 15.226562 42.492188 14.847656 43.703125 14.601562 44.957031 C 14.304688 46.460938 14.207031 47.984375 14.207031 49.515625 C 14.117188 49.464844 14.027344 49.414062 13.933594 49.363281 C 13.921875 48.769531 13.929688 48.175781 13.898438 47.585938 C 13.851562 46.769531 13.753906 45.957031 13.722656 45.140625 C 13.699219 44.542969 13.722656 43.9375 13.765625 43.339844 C 13.800781 42.878906 13.875 42.414062 13.976562 41.960938 C 14.15625 41.132812 14.492188 40.363281 14.90625 39.625 C 15.378906 38.78125 15.871094 37.949219 16.335938 37.105469 C 16.75 36.351562 17.070312 35.5625 17.246094 34.710938 C 17.40625 33.929688 17.484375 33.148438 17.382812 32.351562 C 17.316406 31.859375 17.277344 31.355469 17.15625 30.875 C 16.921875 29.914062 16.550781 29.011719 15.839844 28.28125 C 15.300781 27.726562 14.667969 27.417969 13.847656 27.425781 C 13.925781 28.433594 14.113281 29.425781 14.214844 30.449219 C 13.808594 30.4375 13.441406 30.378906 13.082031 30.28125 C 12.316406 30.070312 11.59375 29.753906 10.941406 29.292969 C 9.855469 28.523438 9.058594 27.53125 8.570312 26.296875 C 8.269531 25.539062 8.109375 24.753906 8.128906 23.9375 C 8.136719 23.570312 8.148438 23.203125 8.1875 22.839844 C 8.265625 22.09375 8.667969 21.578125 9.359375 21.292969 C 9.699219 21.15625 10.039062 21.023438 10.382812 20.902344 C 10.902344 20.714844 11.246094 20.351562 11.480469 19.863281 C 11.714844 19.367188 11.953125 18.871094 12.210938 18.386719 C 12.445312 17.949219 12.75 17.558594 13.191406 17.304688 C 13.496094 17.128906 13.824219 17.011719 14.1875 17.015625 C 14.476562 17.015625 14.769531 17.015625 15.082031 17.015625 C 15.109375 16.929688 15.140625 16.84375 15.15625 16.757812 C 15.316406 15.78125 15.765625 14.953125 16.402344 14.210938 C 17.214844 13.261719 18.226562 12.585938 19.332031 12.03125 C 20.316406 11.539062 21.34375 11.171875 22.40625 10.878906 C 23.222656 10.652344 24.042969 10.460938 24.878906 10.320312 C 25.601562 10.203125 26.324219 10.097656 27.054688 10.03125 C 28.261719 9.917969 29.46875 9.859375 30.679688 9.890625 C 31.378906 9.90625 32.082031 9.933594 32.777344 9.992188 C 33.464844 10.050781 34.152344 10.152344 34.835938 10.246094 C 35.320312 10.308594 35.808594 10.375 36.289062 10.460938 C 36.773438 10.546875 37.25 10.652344 37.722656 10.769531 C 38.515625 10.957031 39.308594 11.140625 40.089844 11.371094 C 40.878906 11.601562 41.65625 11.882812 42.429688 12.152344 C 43.753906 12.617188 44.992188 13.269531 46.261719 13.847656 C 46.808594 14.097656 47.367188 14.3125 47.953125 14.449219 C 48.316406 14.53125 48.691406 14.582031 49.050781 14.667969 C 49.363281 14.746094 49.667969 14.855469 49.976562 14.953125 "/>
<path style=" stroke:none;fill-rule:nonzero;fill:rgb(17.420959%,16.390991%,44.952393%);fill-opacity:1;" d="M 41.179688 45.335938 C 41.175781 45.328125 41.171875 45.324219 41.167969 45.316406 C 41.164062 45.324219 41.15625 45.328125 41.15625 45.332031 C 41.15625 45.335938 41.164062 45.34375 41.167969 45.347656 C 41.171875 45.34375 41.175781 45.339844 41.179688 45.335938 Z M 39.867188 50.710938 C 39.375 49.9375 38.882812 49.164062 38.390625 48.390625 C 38 47.777344 37.605469 47.167969 37.214844 46.558594 C 37.183594 46.511719 37.15625 46.457031 37.121094 46.394531 C 37.554688 46.113281 37.980469 45.839844 38.429688 45.550781 C 39.292969 46.34375 40.152344 47.132812 41.011719 47.917969 C 41.027344 47.914062 41.042969 47.90625 41.058594 47.898438 C 40.90625 47.335938 40.707031 46.792969 40.527344 46.238281 C 40.347656 45.683594 40.167969 45.132812 39.980469 44.558594 C 40.417969 44.277344 40.84375 44.003906 41.292969 43.714844 C 41.582031 44.148438 41.863281 44.578125 42.148438 45.003906 C 42.222656 45.125 42.296875 45.242188 42.375 45.363281 C 42.386719 45.386719 42.394531 45.40625 42.40625 45.429688 C 42.953125 46.277344 43.5 47.125 44.042969 47.96875 C 44.046875 48.015625 44.046875 48.058594 44.046875 48.105469 C 43.855469 48.21875 43.667969 48.335938 43.476562 48.449219 C 43.40625 48.488281 43.332031 48.523438 43.257812 48.5625 C 42.59375 47.527344 41.929688 46.488281 41.265625 45.453125 C 41.253906 45.433594 41.226562 45.421875 41.207031 45.40625 C 41.195312 45.417969 41.179688 45.425781 41.167969 45.433594 C 41.585938 46.660156 42 47.886719 42.414062 49.113281 C 42.238281 49.230469 42.0625 49.347656 41.890625 49.46875 C 41.824219 49.511719 41.761719 49.5625 41.699219 49.613281 C 41.605469 49.660156 41.535156 49.648438 41.460938 49.570312 C 41.246094 49.359375 41.023438 49.15625 40.804688 48.953125 C 40.132812 48.324219 39.460938 47.691406 38.789062 47.0625 C 38.75 47.023438 38.710938 46.988281 38.667969 46.949219 C 38.660156 46.960938 38.652344 46.96875 38.640625 46.980469 C 38.671875 47.027344 38.707031 47.070312 38.738281 47.113281 C 38.765625 47.167969 38.792969 47.21875 38.824219 47.265625 C 39.453125 48.25 40.082031 49.234375 40.707031 50.21875 C 40.6875 50.242188 40.664062 50.265625 40.644531 50.289062 C 40.605469 50.316406 40.566406 50.339844 40.53125 50.367188 C 40.382812 50.453125 40.238281 50.542969 40.085938 50.625 C 40.019531 50.664062 39.941406 50.683594 39.867188 50.710938 "/>
<path style=" stroke:none;fill-rule:nonzero;fill:rgb(17.420959%,16.390991%,44.952393%);fill-opacity:1;" d="M 48.539062 43.121094 C 47.921875 42.722656 47.304688 42.320312 46.691406 41.925781 C 45.925781 41.433594 45.15625 40.945312 44.394531 40.453125 C 44.363281 40.433594 44.339844 40.414062 44.296875 40.382812 C 44.460938 40.128906 44.621094 39.875 44.78125 39.621094 C 44.847656 39.515625 44.949219 39.535156 45.046875 39.535156 C 45.707031 39.550781 46.367188 39.570312 47.027344 39.582031 C 47.578125 39.589844 48.128906 39.59375 48.679688 39.601562 C 48.71875 39.601562 48.757812 39.59375 48.855469 39.585938 C 47.878906 38.960938 46.949219 38.363281 45.984375 37.746094 C 46.15625 37.476562 46.324219 37.214844 46.503906 36.9375 C 46.757812 37.097656 46.988281 37.242188 47.21875 37.390625 C 48.339844 38.105469 49.457031 38.820312 50.574219 39.535156 C 50.613281 39.5625 50.660156 39.582031 50.707031 39.601562 C 50.742188 39.644531 50.78125 39.683594 50.835938 39.742188 C 50.632812 40.027344 50.5 40.367188 50.226562 40.613281 C 50.195312 40.609375 50.160156 40.59375 50.128906 40.59375 C 48.925781 40.574219 47.726562 40.554688 46.523438 40.535156 C 46.488281 40.535156 46.457031 40.546875 46.378906 40.5625 C 46.460938 40.621094 46.503906 40.65625 46.550781 40.6875 C 47.027344 40.992188 47.507812 41.296875 47.984375 41.601562 C 48.355469 41.839844 48.730469 42.070312 49.105469 42.304688 C 49.097656 42.359375 49.113281 42.421875 49.089844 42.464844 C 48.96875 42.664062 48.84375 42.855469 48.71875 43.054688 C 48.675781 43.128906 48.625 43.167969 48.539062 43.121094 "/>
<path style=" stroke:none;fill-rule:nonzero;fill:rgb(17.420959%,16.390991%,44.952393%);fill-opacity:1;" d="M 51.671875 37.472656 C 51.316406 37.832031 50.910156 38.113281 50.402344 38.179688 C 49.238281 38.339844 48.226562 38.023438 47.464844 37.105469 C 46.953125 36.492188 46.875 35.765625 47.085938 35 C 47.199219 34.589844 47.355469 34.195312 47.625 33.855469 C 48.042969 33.332031 48.59375 33.121094 49.292969 33.183594 C 49.242188 33.535156 49.199219 33.867188 49.152344 34.210938 C 49.078125 34.21875 49.019531 34.222656 48.964844 34.230469 C 48.554688 34.292969 48.257812 34.507812 48.078125 34.882812 C 47.699219 35.667969 47.945312 36.429688 48.71875 36.835938 C 49.113281 37.039062 49.535156 37.175781 49.984375 37.179688 C 50.664062 37.191406 51.152344 36.84375 51.371094 36.203125 C 51.507812 35.804688 51.492188 35.324219 51.324219 34.910156 C 51.140625 34.851562 50.945312 34.785156 50.726562 34.710938 C 50.597656 35.082031 50.472656 35.441406 50.339844 35.828125 C 50.070312 35.738281 49.8125 35.652344 49.519531 35.554688 C 49.757812 34.847656 49.988281 34.152344 50.230469 33.433594 C 50.570312 33.542969 50.882812 33.648438 51.199219 33.75 C 51.464844 33.839844 51.734375 33.933594 52.003906 34.019531 C 52.128906 34.058594 52.210938 34.132812 52.257812 34.265625 C 52.367188 34.585938 52.394531 34.917969 52.414062 35.25 C 52.417969 35.324219 52.425781 35.398438 52.429688 35.472656 C 52.394531 35.703125 52.363281 35.933594 52.316406 36.160156 C 52.210938 36.652344 51.976562 37.082031 51.671875 37.472656 "/>
<path style=" stroke:none;fill-rule:nonzero;fill:rgb(17.420959%,16.390991%,44.952393%);fill-opacity:1;" d="M 50.988281 32.210938 C 51.074219 32.210938 51.15625 32.214844 51.238281 32.210938 C 51.917969 32.171875 52.464844 31.714844 52.578125 31.09375 C 52.699219 30.410156 52.402344 29.832031 51.75 29.554688 C 51.242188 29.339844 50.707031 29.257812 50.15625 29.363281 C 49.566406 29.472656 49.148438 29.898438 49.070312 30.457031 C 48.976562 31.148438 49.214844 31.65625 49.78125 31.945312 C 50.160156 32.136719 50.570312 32.210938 50.988281 32.210938 Z M 53.128906 32.210938 C 52.746094 32.761719 52.242188 33.132812 51.570312 33.246094 C 50.886719 33.367188 50.21875 33.273438 49.582031 33.019531 C 48.964844 32.773438 48.511719 32.339844 48.28125 31.710938 C 47.976562 30.878906 48.109375 29.332031 49.226562 28.632812 C 49.523438 28.449219 49.84375 28.328125 50.183594 28.289062 C 50.878906 28.203125 51.554688 28.285156 52.191406 28.578125 C 52.796875 28.859375 53.195312 29.339844 53.414062 29.96875 C 53.550781 30.5625 53.53125 31.152344 53.332031 31.730469 C 53.277344 31.894531 53.199219 32.050781 53.128906 32.210938 "/>
<path style=" stroke:none;fill-rule:nonzero;fill:rgb(17.420959%,16.390991%,44.952393%);fill-opacity:1;" d="M 34.148438 51.902344 C 35.089844 51.890625 35.652344 51.394531 35.703125 50.628906 C 35.746094 49.996094 35.574219 49.402344 35.195312 48.886719 C 34.53125 47.972656 33.21875 48.382812 32.902344 49.074219 C 32.839844 49.199219 32.78125 49.332031 32.761719 49.46875 C 32.664062 50.144531 32.839844 50.765625 33.21875 51.320312 C 33.472656 51.699219 33.851562 51.902344 34.148438 51.902344 Z M 34.074219 52.851562 C 33.832031 52.796875 33.578125 52.769531 33.34375 52.6875 C 32.816406 52.503906 32.429688 52.144531 32.15625 51.664062 C 31.855469 51.132812 31.707031 50.554688 31.667969 49.945312 C 31.617188 49.148438 32.042969 48.128906 33.0625 47.71875 C 33.570312 47.515625 34.085938 47.398438 34.628906 47.472656 C 35.3125 47.566406 35.839844 47.925781 36.214844 48.5 C 36.539062 49 36.707031 49.558594 36.769531 50.144531 C 36.851562 50.964844 36.585938 51.65625 35.972656 52.210938 C 35.613281 52.46875 35.222656 52.664062 34.785156 52.75 C 34.550781 52.800781 34.3125 52.820312 34.074219 52.851562 "/>
<path style=" stroke:none;fill-rule:nonzero;fill:rgb(17.420959%,16.390991%,44.952393%);fill-opacity:1;" d="M 44.878906 45.585938 C 45.945312 45.558594 46.609375 44.421875 46.082031 43.5 C 45.808594 43.019531 45.414062 42.644531 44.925781 42.382812 C 44.386719 42.09375 43.804688 42.1875 43.359375 42.617188 C 42.894531 43.066406 42.773438 43.632812 43.042969 44.191406 C 43.316406 44.75 43.75 45.15625 44.308594 45.417969 C 44.484375 45.503906 44.6875 45.53125 44.878906 45.585938 Z M 42.214844 44.933594 C 42.117188 44.640625 42 44.355469 41.9375 44.054688 C 41.832031 43.546875 41.949219 43.066406 42.222656 42.621094 C 42.539062 42.105469 42.953125 41.6875 43.507812 41.433594 C 44.105469 41.15625 44.730469 41.140625 45.324219 41.414062 C 46.179688 41.808594 46.828125 42.429688 47.15625 43.332031 C 47.332031 43.8125 47.304688 44.296875 47.152344 44.78125 C 46.847656 45.519531 46.324219 46.054688 45.613281 46.414062 C 44.71875 46.738281 43.910156 46.574219 43.179688 45.984375 C 42.941406 45.792969 42.730469 45.5625 42.507812 45.351562 C 42.410156 45.210938 42.3125 45.074219 42.214844 44.933594 "/>
<path style=" stroke:none;fill-rule:nonzero;fill:rgb(17.420959%,16.390991%,44.952393%);fill-opacity:1;" d="M 49.984375 19.496094 C 49.46875 19.917969 48.96875 20.324219 48.472656 20.730469 C 48.480469 20.746094 48.488281 20.761719 48.496094 20.78125 C 49.136719 20.804688 49.773438 20.832031 50.433594 20.816406 C 50.28125 20.363281 50.140625 19.949219 49.984375 19.496094 Z M 52.9375 21.933594 C 51.109375 21.847656 49.285156 21.765625 47.441406 21.683594 C 47.324219 21.332031 47.207031 20.988281 47.085938 20.640625 C 47.453125 20.328125 47.796875 20.027344 48.144531 19.730469 C 49.117188 18.902344 50.089844 18.074219 51.058594 17.242188 C 51.105469 17.207031 51.144531 17.164062 51.183594 17.121094 C 51.21875 17.101562 51.253906 17.085938 51.324219 17.050781 C 51.433594 17.386719 51.546875 17.71875 51.65625 18.050781 C 51.664062 18.082031 51.632812 18.125 51.617188 18.160156 C 51.3125 18.402344 51.007812 18.644531 50.703125 18.886719 C 50.929688 19.554688 51.148438 20.199219 51.378906 20.875 C 51.789062 20.875 52.1875 20.875 52.585938 20.875 C 52.703125 21.226562 52.820312 21.578125 52.9375 21.933594 "/>
<path style=" stroke:none;fill-rule:nonzero;fill:rgb(17.420959%,16.390991%,44.952393%);fill-opacity:1;" d="M 53.582031 27.777344 C 52.941406 27.820312 52.300781 27.863281 51.660156 27.910156 C 50.683594 27.980469 49.710938 28.058594 48.738281 28.132812 C 48.671875 28.136719 48.609375 28.132812 48.53125 28.132812 C 48.503906 27.785156 48.476562 27.457031 48.449219 27.105469 C 49.859375 26.996094 51.253906 26.886719 52.679688 26.777344 C 52.617188 25.914062 52.554688 25.078125 52.492188 24.203125 C 52.78125 24.175781 53.058594 24.152344 53.335938 24.128906 C 53.351562 24.203125 53.371094 24.273438 53.375 24.347656 C 53.457031 25.394531 53.535156 26.441406 53.613281 27.488281 C 53.617188 27.582031 53.59375 27.679688 53.582031 27.777344 "/>
<path style=" stroke:none;fill-rule:nonzero;fill:rgb(17.420959%,16.390991%,44.952393%);fill-opacity:1;" d="M 53.167969 23.4375 C 52.421875 23.574219 51.675781 23.710938 50.929688 23.847656 C 50.042969 24.007812 49.15625 24.167969 48.269531 24.324219 C 48.21875 24.335938 48.171875 24.332031 48.09375 24.339844 C 48.035156 24.007812 47.976562 23.683594 47.914062 23.320312 C 49.613281 23.019531 51.296875 22.71875 52.984375 22.417969 C 53.046875 22.757812 53.105469 23.097656 53.167969 23.4375 "/>
<path style=" stroke:none;fill-rule:nonzero;fill:rgb(99.819946%,99.942017%,99.987793%);fill-opacity:1;" d="M 49.105469 42.304688 C 48.730469 42.070312 48.355469 41.839844 47.984375 41.601562 C 47.507812 41.296875 47.027344 40.992188 46.550781 40.6875 C 46.503906 40.65625 46.460938 40.621094 46.378906 40.5625 C 46.457031 40.546875 46.488281 40.535156 46.523438 40.535156 C 47.726562 40.554688 48.925781 40.574219 50.128906 40.59375 C 50.160156 40.59375 50.195312 40.609375 50.226562 40.613281 C 50.164062 40.75 50.113281 40.890625 50.035156 41.015625 C 49.800781 41.398438 49.5625 41.777344 49.316406 42.152344 C 49.269531 42.21875 49.175781 42.253906 49.105469 42.304688 "/>
<path style=" stroke:none;fill-rule:nonzero;fill:rgb(99.819946%,99.942017%,99.987793%);fill-opacity:1;" d="M 28.527344 53.625 C 28.53125 53.488281 28.550781 53.347656 28.539062 53.210938 C 28.507812 52.746094 28.464844 52.28125 28.425781 51.816406 C 28.417969 51.710938 28.425781 51.605469 28.425781 51.472656 C 28.867188 51.402344 29.28125 51.375 29.597656 51.78125 C 30.007812 52.304688 30.421875 52.824219 30.835938 53.347656 C 30.789062 53.457031 30.703125 53.476562 30.59375 53.480469 C 29.996094 53.511719 29.394531 53.546875 28.792969 53.582031 C 28.707031 53.585938 28.617188 53.613281 28.527344 53.625 "/>
<path style=" stroke:none;fill-rule:nonzero;fill:rgb(99.819946%,99.942017%,99.987793%);fill-opacity:1;" d="M 52.585938 20.875 C 52.1875 20.875 51.789062 20.875 51.378906 20.875 C 51.148438 20.199219 50.929688 19.554688 50.703125 18.886719 C 51.007812 18.644531 51.3125 18.402344 51.617188 18.160156 C 51.71875 18.375 51.839844 18.582031 51.917969 18.804688 C 52.144531 19.425781 52.347656 20.054688 52.558594 20.679688 C 52.578125 20.738281 52.578125 20.808594 52.585938 20.875 "/>
<path style=" stroke:none;fill-rule:nonzero;fill:rgb(99.819946%,99.942017%,99.987793%);fill-opacity:1;" d="M 42.507812 45.351562 C 42.730469 45.5625 42.941406 45.792969 43.179688 45.984375 C 43.910156 46.574219 44.71875 46.738281 45.613281 46.414062 C 45.65625 46.480469 45.652344 46.527344 45.585938 46.582031 C 45.148438 46.96875 44.710938 47.363281 44.277344 47.753906 C 44.199219 47.824219 44.121094 47.898438 44.042969 47.96875 C 43.5 47.125 42.953125 46.277344 42.40625 45.429688 C 42.394531 45.40625 42.386719 45.386719 42.375 45.363281 C 42.417969 45.359375 42.464844 45.355469 42.507812 45.351562 "/>
<path style=" stroke:none;fill-rule:nonzero;fill:rgb(99.819946%,99.942017%,99.987793%);fill-opacity:1;" d="M 38.789062 47.0625 C 39.460938 47.691406 40.132812 48.324219 40.804688 48.953125 C 41.023438 49.15625 41.246094 49.359375 41.460938 49.570312 C 41.535156 49.648438 41.605469 49.660156 41.699219 49.613281 C 41.574219 49.695312 41.445312 49.78125 41.316406 49.855469 C 41.113281 49.980469 40.910156 50.097656 40.707031 50.21875 C 40.082031 49.234375 39.453125 48.25 38.824219 47.265625 C 38.792969 47.21875 38.765625 47.167969 38.738281 47.113281 C 38.753906 47.097656 38.773438 47.078125 38.789062 47.0625 "/>
<path style=" stroke:none;fill-rule:nonzero;fill:rgb(99.819946%,99.942017%,99.987793%);fill-opacity:1;" d="M 42.414062 49.113281 C 42 47.886719 41.585938 46.660156 41.167969 45.433594 C 41.179688 45.425781 41.195312 45.417969 41.207031 45.40625 C 41.226562 45.421875 41.253906 45.433594 41.265625 45.453125 C 41.929688 46.488281 42.59375 47.527344 43.257812 48.5625 C 42.976562 48.746094 42.695312 48.929688 42.414062 49.113281 "/>
<path style=" stroke:none;fill-rule:nonzero;fill:rgb(99.819946%,99.942017%,99.987793%);fill-opacity:1;" d="M 40.53125 50.367188 C 40.566406 50.339844 40.605469 50.316406 40.644531 50.289062 C 40.605469 50.316406 40.566406 50.339844 40.53125 50.367188 "/>
<path style=" stroke:none;fill-rule:nonzero;fill:rgb(99.819946%,99.942017%,99.987793%);fill-opacity:1;" d="M 44.046875 48.105469 C 44.054688 48.113281 44.0625 48.117188 44.070312 48.125 C 44.070312 48.128906 44.070312 48.128906 44.070312 48.128906 C 44.0625 48.121094 44.054688 48.113281 44.046875 48.105469 "/>
<path style=" stroke:none;fill-rule:nonzero;fill:rgb(17.420959%,16.390991%,44.952393%);fill-opacity:1;" d="M 22.375 52.976562 C 22.429688 52.574219 22.492188 52.167969 22.542969 51.765625 C 22.65625 50.917969 22.761719 50.074219 22.867188 49.230469 C 22.90625 48.929688 22.941406 48.632812 22.980469 48.335938 C 22.996094 48.210938 23.019531 48.09375 23.039062 47.953125 C 24.308594 48.113281 25.554688 48.273438 26.820312 48.433594 C 26.78125 48.726562 26.746094 48.996094 26.710938 49.296875 C 25.789062 49.183594 24.890625 49.070312 23.960938 48.953125 C 23.910156 49.332031 23.863281 49.6875 23.8125 50.082031 C 24.660156 50.195312 25.5 50.300781 26.367188 50.414062 C 26.335938 50.707031 26.300781 50.976562 26.265625 51.277344 C 25.414062 51.171875 24.582031 51.066406 23.722656 50.957031 C 23.613281 51.414062 23.605469 51.867188 23.523438 52.339844 C 24.476562 52.460938 25.410156 52.582031 26.371094 52.703125 C 26.339844 52.992188 26.3125 53.261719 26.285156 53.53125 C 26.195312 53.535156 26.105469 53.546875 26.019531 53.535156 C 25 53.40625 23.980469 53.273438 22.960938 53.144531 C 22.820312 53.125 22.675781 53.125 22.539062 53.09375 C 22.476562 53.082031 22.429688 53.019531 22.375 52.976562 "/>
<path style=" stroke:none;fill-rule:nonzero;fill:rgb(17.420959%,16.390991%,44.952393%);fill-opacity:1;" d="M 20.609375 48.414062 C 20.59375 48.40625 20.578125 48.398438 20.566406 48.390625 C 20.164062 48.894531 19.761719 49.394531 19.335938 49.925781 C 19.796875 50.082031 20.222656 50.222656 20.671875 50.375 C 20.652344 49.691406 20.628906 49.050781 20.609375 48.414062 Z M 17.023438 51.125 C 17.527344 50.53125 18.027344 49.945312 18.527344 49.351562 C 19.140625 48.621094 19.75 47.890625 20.359375 47.164062 C 20.390625 47.125 20.425781 47.089844 20.480469 47.027344 C 20.820312 47.140625 21.164062 47.253906 21.515625 47.371094 C 21.535156 47.632812 21.554688 47.882812 21.570312 48.132812 C 21.648438 49.597656 21.722656 51.066406 21.800781 52.53125 C 21.808594 52.648438 21.828125 52.761719 21.84375 52.878906 C 21.789062 52.878906 21.730469 52.894531 21.679688 52.878906 C 21.371094 52.78125 21.066406 52.675781 20.761719 52.574219 C 20.742188 52.148438 20.726562 51.730469 20.710938 51.3125 C 20.039062 51.085938 19.402344 50.871094 18.75 50.648438 C 18.492188 50.976562 18.238281 51.296875 17.988281 51.617188 C 17.644531 51.507812 17.300781 51.398438 16.945312 51.285156 C 16.984375 51.210938 17.003906 51.167969 17.023438 51.125 "/>
<path style=" stroke:none;fill-rule:nonzero;fill:rgb(99.819946%,99.942017%,99.987793%);fill-opacity:1;" d="M 17.988281 51.617188 C 18.238281 51.296875 18.492188 50.976562 18.75 50.648438 C 19.402344 50.871094 20.039062 51.085938 20.710938 51.3125 C 20.726562 51.730469 20.742188 52.148438 20.761719 52.574219 C 20.25 52.40625 19.734375 52.246094 19.222656 52.070312 C 18.808594 51.929688 18.402344 51.769531 17.988281 51.617188 "/>
<path style=" stroke:none;fill-rule:nonzero;fill:rgb(99.819946%,99.942017%,99.987793%);fill-opacity:1;" d="M 28.355469 50.644531 C 28.339844 50.484375 28.320312 50.363281 28.308594 50.238281 C 28.289062 49.949219 28.269531 49.660156 28.25 49.34375 C 28.386719 49.328125 28.515625 49.3125 28.644531 49.300781 C 29 49.277344 29.355469 49.242188 29.714844 49.234375 C 30.207031 49.222656 30.484375 49.582031 30.367188 50.058594 C 30.300781 50.332031 30.101562 50.460938 29.847656 50.492188 C 29.363281 50.554688 28.875 50.59375 28.355469 50.644531 "/>
<path style=" stroke:none;fill-rule:nonzero;fill:rgb(17.420959%,16.390991%,44.952393%);fill-opacity:1;" d="M 16.277344 23.121094 C 16.757812 22.617188 17.285156 22.207031 17.933594 21.964844 C 18.078125 21.910156 18.171875 21.925781 18.292969 22.027344 C 19.125 22.738281 19.804688 23.585938 20.464844 24.449219 C 21.046875 25.210938 21.621094 25.980469 22.308594 26.660156 C 23.113281 27.457031 24.007812 28.125 25.109375 28.441406 C 25.636719 28.589844 26.183594 28.683594 26.730469 28.753906 C 27.648438 28.867188 28.578125 28.914062 29.496094 29.042969 C 30.703125 29.21875 31.84375 29.617188 32.875 30.285156 C 33.242188 30.523438 33.578125 30.796875 33.84375 31.148438 C 33.90625 31.230469 33.964844 31.324219 34.054688 31.457031 C 33.691406 31.410156 33.402344 31.3125 33.121094 31.191406 C 32.664062 30.988281 32.214844 30.761719 31.742188 30.597656 C 30.613281 30.203125 29.4375 30.003906 28.25 29.851562 C 27.089844 29.707031 25.933594 29.539062 24.777344 29.371094 C 23.890625 29.242188 23.152344 28.789062 22.449219 28.265625 C 21.5625 27.605469 20.738281 26.875 19.945312 26.105469 C 19.636719 25.804688 19.351562 25.472656 19.070312 25.140625 C 18.640625 24.625 18.113281 24.25 17.457031 24.105469 C 16.890625 23.980469 16.535156 23.632812 16.277344 23.121094 "/>
<path style=" stroke:none;fill-rule:nonzero;fill:rgb(92.405701%,92.312622%,91.966248%);fill-opacity:1;" d="M 42.507812 45.351562 C 42.464844 45.355469 42.417969 45.359375 42.375 45.363281 C 42.296875 45.242188 42.222656 45.125 42.148438 45.003906 C 42.167969 44.980469 42.191406 44.957031 42.214844 44.933594 C 42.3125 45.074219 42.410156 45.210938 42.507812 45.351562 "/>
<path style=" stroke:none;fill-rule:nonzero;fill:rgb(99.819946%,99.942017%,99.987793%);fill-opacity:1;" d="M 26.386719 18.492188 C 26.464844 18.488281 26.550781 18.460938 26.625 18.484375 C 27.34375 18.6875 27.980469 19.027344 28.457031 19.628906 C 29.046875 20.378906 28.964844 21.300781 28.394531 21.992188 C 27.921875 22.554688 27.296875 22.867188 26.613281 23.09375 C 25.757812 23.382812 24.878906 23.441406 23.992188 23.363281 C 23.148438 23.285156 22.34375 23.042969 21.644531 22.53125 C 21.3125 22.289062 21.027344 22.003906 20.8125 21.644531 C 20.289062 20.753906 20.613281 19.800781 21.335938 19.273438 C 21.503906 19.15625 21.699219 19.074219 21.886719 18.984375 C 21.925781 18.964844 21.976562 18.972656 22.050781 18.964844 C 21.875 19.324219 21.710938 19.65625 21.550781 19.988281 C 21.414062 20.265625 21.347656 20.554688 21.347656 20.859375 C 21.347656 21.273438 21.53125 21.617188 21.8125 21.90625 C 22.332031 22.449219 22.972656 22.753906 23.703125 22.898438 C 24.1875 22.996094 24.671875 23.011719 25.152344 22.957031 C 26.050781 22.851562 26.894531 22.582031 27.558594 21.921875 C 27.917969 21.566406 28.121094 21.132812 28.070312 20.617188 C 28.023438 20.203125 27.828125 19.84375 27.5625 19.523438 C 27.222656 19.113281 26.816406 18.78125 26.382812 18.484375 L 26.386719 18.492188 "/>
<path style=" stroke:none;fill-rule:nonzero;fill:rgb(99.819946%,99.942017%,99.987793%);fill-opacity:1;" d="M 23.371094 19.457031 C 23.757812 19.53125 24.101562 19.59375 24.453125 19.660156 C 24.484375 19.8125 24.535156 19.949219 24.539062 20.085938 C 24.542969 20.285156 24.464844 20.476562 24.296875 20.570312 C 24.128906 20.664062 23.925781 20.703125 23.730469 20.742188 C 23.554688 20.773438 23.414062 20.675781 23.359375 20.515625 C 23.242188 20.164062 23.296875 19.820312 23.371094 19.457031 "/>
<path style=" stroke:none;fill-rule:nonzero;fill:rgb(99.819946%,99.942017%,99.987793%);fill-opacity:1;" d="M 26.382812 18.484375 L 26.390625 18.476562 L 26.386719 18.492188 Z M 26.382812 18.484375 "/>
<path style=" stroke:none;fill-rule:nonzero;fill:rgb(92.405701%,92.312622%,91.966248%);fill-opacity:1;" d="M 38.789062 47.0625 C 38.773438 47.078125 38.753906 47.097656 38.738281 47.113281 C 38.707031 47.070312 38.671875 47.027344 38.640625 46.980469 C 38.652344 46.96875 38.660156 46.960938 38.667969 46.949219 C 38.710938 46.988281 38.75 47.023438 38.789062 47.0625 "/>
<path style=" stroke:none;fill-rule:nonzero;fill:rgb(99.819946%,99.942017%,99.987793%);fill-opacity:1;" d="M 41.179688 45.335938 C 41.175781 45.339844 41.171875 45.34375 41.167969 45.347656 C 41.164062 45.34375 41.15625 45.335938 41.15625 45.332031 C 41.15625 45.328125 41.164062 45.324219 41.167969 45.316406 C 41.171875 45.324219 41.175781 45.328125 41.179688 45.335938 "/>
<path style=" stroke:none;fill-rule:nonzero;fill:rgb(99.819946%,99.942017%,99.987793%);fill-opacity:1;" d="M 50.988281 32.210938 C 50.570312 32.210938 50.160156 32.136719 49.78125 31.945312 C 49.214844 31.65625 48.976562 31.148438 49.070312 30.457031 C 49.148438 29.898438 49.566406 29.472656 50.15625 29.363281 C 50.707031 29.257812 51.242188 29.339844 51.75 29.554688 C 52.402344 29.832031 52.699219 30.410156 52.578125 31.09375 C 52.464844 31.714844 51.917969 32.171875 51.238281 32.210938 C 51.15625 32.214844 51.074219 32.210938 50.988281 32.210938 "/>
<path style=" stroke:none;fill-rule:nonzero;fill:rgb(99.819946%,99.942017%,99.987793%);fill-opacity:1;" d="M 34.148438 51.902344 C 33.851562 51.902344 33.472656 51.699219 33.21875 51.320312 C 32.839844 50.765625 32.664062 50.144531 32.761719 49.46875 C 32.78125 49.332031 32.839844 49.199219 32.902344 49.074219 C 33.21875 48.382812 34.53125 47.972656 35.195312 48.886719 C 35.574219 49.402344 35.746094 49.996094 35.703125 50.628906 C 35.652344 51.394531 35.089844 51.890625 34.148438 51.902344 "/>
<path style=" stroke:none;fill-rule:nonzero;fill:rgb(99.819946%,99.942017%,99.987793%);fill-opacity:1;" d="M 44.878906 45.585938 C 44.6875 45.53125 44.484375 45.503906 44.308594 45.417969 C 43.75 45.15625 43.316406 44.75 43.042969 44.191406 C 42.773438 43.632812 42.894531 43.066406 43.359375 42.617188 C 43.804688 42.1875 44.386719 42.09375 44.925781 42.382812 C 45.414062 42.644531 45.808594 43.019531 46.082031 43.5 C 46.609375 44.421875 45.945312 45.558594 44.878906 45.585938 "/>
<path style=" stroke:none;fill-rule:nonzero;fill:rgb(99.819946%,99.942017%,99.987793%);fill-opacity:1;" d="M 49.984375 19.496094 C 50.140625 19.949219 50.28125 20.363281 50.433594 20.816406 C 49.773438 20.832031 49.136719 20.804688 48.496094 20.78125 C 48.488281 20.761719 48.480469 20.746094 48.472656 20.730469 C 48.96875 20.324219 49.46875 19.917969 49.984375 19.496094 "/>
<path style=" stroke:none;fill-rule:nonzero;fill:rgb(99.819946%,99.942017%,99.987793%);fill-opacity:1;" d="M 20.609375 48.414062 C 20.628906 49.050781 20.652344 49.691406 20.671875 50.375 C 20.222656 50.222656 19.796875 50.082031 19.335938 49.925781 C 19.761719 49.394531 20.164062 48.894531 20.566406 48.390625 C 20.578125 48.398438 20.59375 48.40625 20.609375 48.414062 "/>
</g>
</svg>
