<?xml version="1.0" encoding="UTF-8"?>
<svg xmlns="http://www.w3.org/2000/svg" xmlns:xlink="http://www.w3.org/1999/xlink" width="56pt" height="56pt" viewBox="0 0 56 56" version="1.1">
<g id="surface1">
<rect x="0" y="0" width="56" height="56" style="fill:rgb(95.66803%,95.779419%,96.777344%);fill-opacity:1;stroke:none;"/>
<path style=" stroke:none;fill-rule:nonzero;fill:rgb(13.729858%,12.159729%,12.548828%);fill-opacity:1;" d="M 9.210938 44.632812 C 9.421875 43.742188 9.695312 42.859375 9.832031 41.960938 C 11.414062 31.777344 12.976562 21.589844 14.546875 11.40625 C 14.589844 11.125 14.703125 10.855469 14.773438 10.617188 C 16.027344 10.210938 21.769531 10.117188 24.027344 10.476562 C 23.769531 12.878906 23.503906 15.296875 23.210938 18.019531 C 24.15625 17.402344 24.84375 16.980469 25.507812 16.515625 C 27.90625 14.835938 30.320312 13.167969 32.679688 11.4375 C 33.617188 10.75 34.605469 10.289062 35.75 10.296875 C 39.378906 10.324219 43.003906 10.390625 46.785156 10.445312 C 46.53125 11.195312 45.96875 11.496094 45.507812 11.855469 C 42.273438 14.378906 39.027344 16.886719 35.785156 19.402344 C 35.464844 19.652344 35.160156 19.921875 34.699219 20.300781 C 34.929688 20.875 35.136719 21.464844 35.402344 22.027344 C 37.8125 27.109375 40.242188 32.183594 42.066406 37.515625 C 42.785156 39.613281 43.28125 41.789062 43.847656 43.9375 C 43.980469 44.433594 43.988281 44.960938 44.070312 45.605469 C 40.640625 45.605469 37.332031 45.605469 33.800781 45.605469 C 31.804688 38.40625 29.179688 31.375 25.21875 24.851562 C 24.800781 24.992188 24.507812 25.042969 24.269531 25.183594 C 23.519531 25.628906 22.789062 26.105469 21.960938 26.628906 C 20.984375 32.917969 20.007812 39.210938 19.015625 45.617188 C 15.632812 45.824219 12.421875 45.730469 9.210938 45.691406 C 9.210938 45.335938 9.210938 44.984375 9.210938 44.632812 "/>
</g>
</svg>
