<?xml version="1.0" encoding="UTF-8"?>
<svg xmlns="http://www.w3.org/2000/svg" xmlns:xlink="http://www.w3.org/1999/xlink" width="56pt" height="56pt" viewBox="0 0 56 56" version="1.1">
<g id="surface1">
<path style=" stroke:none;fill-rule:nonzero;fill:rgb(97.998047%,98.101807%,95.304871%);fill-opacity:1;" d="M 56 55.988281 L 0.0546875 55.988281 L 0.0546875 0.046875 L 56 0.046875 L 56 55.988281 "/>
<path style=" stroke:none;fill-rule:nonzero;fill:rgb(92.939758%,10.978699%,14.118958%);fill-opacity:1;" d="M 43.21875 42.332031 C 43.191406 42.253906 43.160156 42.167969 43.121094 42.066406 C 42.496094 42.066406 41.871094 42.066406 41.246094 42.066406 C 41.242188 41.75 41.238281 41.433594 41.234375 41.121094 C 40.816406 41.097656 40.417969 41.074219 40.023438 41.054688 C 39.597656 41.035156 39.171875 41.015625 38.746094 41 C 37.964844 40.976562 37.179688 40.957031 36.398438 40.929688 C 35.828125 40.910156 35.257812 40.882812 34.683594 40.859375 C 34.667969 40.855469 34.648438 40.859375 34.628906 40.855469 C 34.234375 40.785156 33.839844 40.75 33.441406 40.753906 C 33.292969 40.757812 33.148438 40.753906 33.003906 40.738281 C 32.597656 40.707031 32.195312 40.660156 31.789062 40.625 C 31.5625 40.605469 31.339844 40.59375 31.113281 40.578125 C 30.941406 40.558594 30.769531 40.53125 30.597656 40.519531 C 30.191406 40.492188 29.785156 40.46875 29.378906 40.441406 C 29.351562 40.441406 29.324219 40.441406 29.296875 40.433594 C 28.875 40.296875 28.433594 40.351562 28.003906 40.28125 C 27.59375 40.214844 27.175781 40.195312 26.761719 40.152344 C 26.664062 40.144531 26.570312 40.109375 26.46875 40.101562 C 26.125 40.074219 25.78125 40.050781 25.441406 40.027344 C 25.410156 40.023438 25.386719 40.023438 25.359375 40.015625 C 25.046875 39.964844 24.734375 39.902344 24.421875 39.867188 C 24.089844 39.828125 23.753906 39.808594 23.417969 39.78125 C 23.375 39.78125 23.332031 39.761719 23.289062 39.757812 C 22.9375 39.710938 22.589844 39.660156 22.238281 39.613281 C 21.925781 39.574219 21.613281 39.535156 21.300781 39.492188 C 21.132812 39.46875 20.964844 39.449219 20.789062 39.421875 C 20.742188 39.527344 20.703125 39.605469 20.679688 39.6875 C 20.515625 40.226562 20.34375 40.761719 20.199219 41.304688 C 20.070312 41.785156 19.945312 42.269531 19.863281 42.761719 C 19.757812 43.378906 19.628906 43.992188 19.554688 44.617188 C 19.511719 44.996094 19.429688 45.371094 19.40625 45.757812 C 19.394531 45.964844 19.382812 46.171875 19.34375 46.375 C 19.246094 46.890625 19.203125 47.410156 19.1875 47.933594 C 19.1875 47.984375 19.1875 48.03125 19.183594 48.082031 C 19.136719 48.574219 19.078125 49.0625 19.039062 49.550781 C 19.007812 49.976562 18.984375 50.402344 18.980469 50.828125 C 18.96875 51.605469 18.921875 52.375 18.882812 53.144531 C 18.835938 54.085938 18.839844 55.03125 18.820312 55.976562 C 18.355469 55.980469 17.894531 55.988281 17.433594 55.988281 C 16.5625 55.996094 15.691406 55.996094 14.820312 56 L 14.816406 55.972656 C 14.816406 55.679688 14.816406 55.386719 14.816406 55.09375 C 14.820312 54.835938 14.820312 54.578125 14.824219 54.320312 C 14.835938 54.289062 14.859375 54.257812 14.863281 54.222656 C 14.886719 53.863281 14.902344 53.5 14.917969 53.140625 C 14.921875 53.074219 14.90625 53.007812 14.902344 52.941406 C 14.902344 52.859375 14.902344 52.777344 14.90625 52.695312 C 14.910156 52.539062 14.914062 52.382812 14.921875 52.226562 C 14.921875 52.1875 14.921875 52.144531 14.925781 52.105469 C 14.941406 52.082031 14.972656 52.0625 14.972656 52.042969 C 14.976562 51.824219 14.972656 51.605469 14.972656 51.386719 C 14.976562 51.25 14.980469 51.109375 14.984375 50.96875 C 15.074219 50.820312 15.023438 50.652344 15.035156 50.492188 C 15.035156 50.375 15.039062 50.257812 15.042969 50.136719 C 15.101562 49.839844 15.144531 49.542969 15.128906 49.238281 C 15.128906 49.175781 15.128906 49.113281 15.132812 49.054688 C 15.132812 49.015625 15.136719 48.976562 15.136719 48.9375 C 15.140625 48.898438 15.144531 48.859375 15.148438 48.820312 C 15.25 48.648438 15.191406 48.460938 15.199219 48.28125 C 15.199219 48.261719 15.199219 48.242188 15.203125 48.21875 C 15.21875 48.082031 15.234375 47.941406 15.253906 47.800781 C 15.257812 47.765625 15.257812 47.726562 15.261719 47.6875 C 15.273438 47.675781 15.285156 47.664062 15.296875 47.652344 C 15.285156 47.640625 15.273438 47.625 15.261719 47.613281 C 15.261719 47.582031 15.261719 47.546875 15.261719 47.515625 C 15.28125 47.402344 15.308594 47.292969 15.320312 47.179688 C 15.355469 46.867188 15.386719 46.558594 15.417969 46.25 C 15.421875 46.191406 15.421875 46.132812 15.425781 46.074219 C 15.480469 45.917969 15.527344 45.761719 15.503906 45.589844 C 15.503906 45.550781 15.507812 45.507812 15.507812 45.46875 C 15.53125 45.308594 15.554688 45.152344 15.578125 44.992188 C 15.578125 44.933594 15.582031 44.875 15.585938 44.816406 C 15.601562 44.757812 15.613281 44.695312 15.628906 44.636719 C 15.632812 44.558594 15.640625 44.480469 15.644531 44.402344 C 15.699219 44.265625 15.746094 44.128906 15.730469 43.976562 C 15.730469 43.9375 15.730469 43.898438 15.734375 43.855469 C 15.753906 43.738281 15.777344 43.617188 15.796875 43.5 C 15.800781 43.441406 15.804688 43.386719 15.808594 43.328125 C 15.824219 43.265625 15.839844 43.203125 15.855469 43.144531 C 15.867188 43.125 15.867188 43.105469 15.859375 43.085938 C 15.914062 42.804688 15.964844 42.527344 16.015625 42.246094 C 16.019531 42.1875 16.023438 42.132812 16.027344 42.074219 C 16.140625 41.867188 16.144531 41.636719 16.179688 41.40625 C 16.179688 41.367188 16.183594 41.328125 16.183594 41.289062 C 16.203125 41.230469 16.21875 41.167969 16.238281 41.109375 C 16.238281 41.074219 16.242188 41.035156 16.242188 40.996094 C 16.261719 40.933594 16.277344 40.871094 16.292969 40.8125 C 16.308594 40.75 16.320312 40.691406 16.335938 40.628906 C 16.355469 40.550781 16.375 40.472656 16.398438 40.394531 C 16.402344 40.351562 16.40625 40.316406 16.40625 40.277344 C 16.425781 40.214844 16.441406 40.15625 16.460938 40.09375 C 16.460938 40.058594 16.464844 40.023438 16.464844 39.984375 C 16.597656 39.832031 16.558594 39.617188 16.621094 39.4375 C 16.621094 39.398438 16.625 39.355469 16.625 39.320312 C 16.605469 39.285156 16.589844 39.253906 16.570312 39.21875 C 16.550781 39.210938 16.53125 39.207031 16.511719 39.199219 C 16.496094 39.183594 16.480469 39.167969 16.460938 39.15625 C 16.410156 39.128906 16.355469 39.101562 16.304688 39.074219 C 16.265625 39.050781 16.230469 39.03125 16.191406 39.007812 C 16.132812 38.96875 16.078125 38.925781 16.019531 38.886719 C 16.039062 38.832031 16.050781 38.773438 16.074219 38.722656 C 16.636719 37.59375 17.199219 36.460938 17.761719 35.332031 C 18.082031 34.6875 18.398438 34.042969 18.730469 33.40625 C 19.269531 32.378906 19.824219 31.355469 20.371094 30.332031 C 20.945312 29.265625 21.5625 28.226562 22.195312 27.203125 C 22.785156 26.25 23.414062 25.332031 24.082031 24.441406 C 24.582031 23.769531 25.128906 23.140625 25.707031 22.550781 C 26.269531 21.972656 26.886719 21.460938 27.574219 21.070312 C 27.777344 20.957031 27.976562 20.800781 28.226562 20.796875 C 28.195312 20.894531 28.175781 21.003906 28.128906 21.09375 C 27.960938 21.410156 27.777344 21.714844 27.609375 22.027344 C 27.25 22.691406 26.890625 23.351562 26.546875 24.023438 C 26.09375 24.898438 25.640625 25.777344 25.214844 26.667969 C 24.453125 28.246094 23.75 29.855469 23.140625 31.515625 C 22.882812 32.222656 22.621094 32.933594 22.386719 33.65625 C 22.117188 34.480469 21.875 35.3125 21.636719 36.148438 C 21.574219 36.367188 21.46875 36.585938 21.488281 36.84375 C 21.585938 36.871094 21.679688 36.898438 21.777344 36.921875 C 21.925781 36.960938 22.074219 36.992188 22.222656 37.027344 C 22.742188 37.152344 23.257812 37.285156 23.777344 37.402344 C 24.226562 37.503906 24.675781 37.59375 25.128906 37.6875 C 25.472656 37.757812 25.820312 37.824219 26.164062 37.890625 C 26.527344 37.960938 26.890625 38.03125 27.253906 38.101562 C 27.503906 38.148438 27.75 38.195312 28 38.234375 C 28.207031 38.269531 28.414062 38.285156 28.617188 38.316406 C 28.949219 38.367188 29.277344 38.425781 29.605469 38.484375 C 29.820312 38.519531 30.03125 38.558594 30.246094 38.59375 C 30.523438 38.640625 30.796875 38.683594 31.078125 38.71875 C 31.328125 38.75 31.585938 38.75 31.832031 38.796875 C 32.304688 38.886719 32.78125 38.949219 33.261719 38.96875 C 33.296875 38.96875 33.332031 38.96875 33.367188 38.972656 C 33.734375 39.023438 34.101562 39.089844 34.46875 39.128906 C 34.972656 39.179688 35.480469 39.214844 35.984375 39.253906 C 36.425781 39.292969 36.867188 39.339844 37.308594 39.367188 C 37.820312 39.402344 38.328125 39.417969 38.835938 39.445312 C 39.085938 39.457031 39.339844 39.476562 39.59375 39.488281 C 40.238281 39.511719 40.882812 39.53125 41.527344 39.550781 C 41.597656 39.550781 41.667969 39.535156 41.726562 39.53125 C 41.90625 38.964844 42.066406 38.410156 42.253906 37.871094 C 42.496094 37.171875 42.746094 36.476562 43.019531 35.792969 C 43.28125 35.136719 43.5625 34.484375 43.863281 33.847656 C 44.144531 33.253906 44.445312 32.671875 44.761719 32.097656 C 45.125 31.441406 45.496094 30.785156 45.894531 30.152344 C 46.414062 29.332031 46.964844 28.535156 47.550781 27.765625 C 48.113281 27.023438 48.691406 26.300781 49.308594 25.613281 C 49.75 25.121094 50.207031 24.640625 50.652344 24.15625 C 50.695312 24.109375 50.726562 24.054688 50.773438 23.996094 C 50.722656 23.960938 50.699219 23.929688 50.664062 23.917969 C 50.441406 23.855469 50.214844 23.792969 49.984375 23.734375 C 49.515625 23.609375 49.039062 23.492188 48.570312 23.371094 C 47.867188 23.191406 47.167969 23.011719 46.46875 22.828125 C 45.96875 22.695312 45.472656 22.554688 44.976562 22.421875 C 44.667969 22.339844 44.363281 22.253906 44.058594 22.175781 C 43.542969 22.042969 43.027344 21.917969 42.511719 21.785156 C 42.1875 21.703125 41.863281 21.605469 41.542969 21.519531 C 41.15625 21.417969 40.773438 21.324219 40.386719 21.222656 C 39.898438 21.101562 39.40625 20.980469 38.917969 20.851562 C 38.578125 20.761719 38.242188 20.664062 37.90625 20.570312 C 38.113281 20.5625 38.324219 20.550781 38.53125 20.550781 C 40.230469 20.550781 41.929688 20.550781 43.632812 20.566406 C 44.777344 20.574219 45.921875 20.601562 47.070312 20.625 C 47.140625 20.765625 47.277344 20.71875 47.386719 20.75 C 48.238281 20.988281 49.09375 21.21875 49.945312 21.460938 C 50.65625 21.664062 51.363281 21.878906 52.074219 22.085938 C 52.234375 22.132812 52.394531 22.136719 52.550781 22.046875 C 52.636719 21.996094 52.734375 21.96875 52.828125 21.929688 C 53.304688 21.730469 53.78125 21.53125 54.261719 21.324219 C 54.804688 21.09375 55.347656 20.855469 55.890625 20.625 C 55.921875 20.609375 55.964844 20.617188 56 20.613281 C 56 21.652344 56 22.6875 56 23.722656 C 55.863281 23.800781 55.726562 23.871094 55.597656 23.957031 C 55.136719 24.269531 54.675781 24.578125 54.21875 24.898438 C 53.421875 25.457031 52.710938 26.136719 52.027344 26.84375 C 51.691406 27.191406 51.375 27.5625 51.070312 27.941406 C 50.644531 28.46875 50.21875 29 49.832031 29.5625 C 49.410156 30.167969 49.015625 30.792969 48.644531 31.433594 C 48.261719 32.09375 47.902344 32.765625 47.5625 33.449219 C 47.199219 34.183594 46.859375 34.933594 46.53125 35.6875 C 46.027344 36.859375 45.578125 38.058594 45.179688 39.28125 C 45.140625 39.402344 45.09375 39.519531 45.058594 39.640625 C 45.03125 39.738281 45.011719 39.839844 44.984375 39.953125 C 45.054688 39.960938 45.089844 39.96875 45.121094 39.972656 C 45.667969 39.992188 46.210938 40.015625 46.757812 40.027344 C 47.902344 40.050781 49.046875 40.0625 50.191406 40.09375 C 51.027344 40.117188 51.863281 40.070312 52.699219 40.144531 C 53.167969 40.1875 53.644531 40.195312 54.113281 40.203125 C 54.742188 40.214844 55.371094 40.210938 56 40.214844 C 56 40.792969 56 41.367188 56 41.949219 C 55.617188 41.941406 55.234375 41.949219 54.855469 41.929688 C 54.410156 41.910156 53.972656 41.859375 53.53125 41.839844 C 52.804688 41.808594 52.078125 41.785156 51.351562 41.773438 C 50.410156 41.757812 49.46875 41.742188 48.527344 41.664062 C 47.8125 41.605469 47.09375 41.609375 46.378906 41.59375 C 45.894531 41.582031 45.414062 41.582031 44.929688 41.578125 C 44.867188 41.578125 44.804688 41.578125 44.738281 41.574219 C 44.488281 41.550781 44.238281 41.527344 43.992188 41.507812 C 43.84375 41.675781 43.714844 41.828125 43.578125 41.972656 C 43.460938 42.097656 43.339844 42.214844 43.21875 42.332031 "/>
<path style=" stroke:none;fill-rule:nonzero;fill:rgb(12.812805%,14.117432%,35.15625%);fill-opacity:1;" d="M 38.53125 9.25 C 38.410156 9.257812 38.292969 9.273438 38.175781 9.273438 C 35.710938 9.277344 33.242188 9.265625 30.777344 9.28125 C 30.023438 9.289062 29.273438 9.367188 28.523438 9.429688 C 28 9.476562 27.476562 9.542969 26.957031 9.625 C 26.519531 9.695312 26.085938 9.796875 25.652344 9.894531 C 24.703125 10.109375 23.773438 10.40625 22.867188 10.769531 C 22.296875 10.996094 21.742188 11.265625 21.191406 11.539062 C 20.796875 11.734375 20.421875 11.96875 20.035156 12.183594 C 19.976562 12.214844 19.917969 12.230469 19.855469 12.257812 C 19.460938 11.898438 19.066406 11.539062 18.664062 11.183594 C 18.164062 10.742188 17.65625 10.304688 17.15625 9.867188 C 16.644531 9.425781 16.132812 8.980469 15.625 8.535156 C 15.40625 8.34375 15.199219 8.140625 14.972656 7.933594 C 15.257812 7.761719 15.515625 7.601562 15.78125 7.457031 C 16.53125 7.050781 17.28125 6.640625 18.039062 6.246094 C 18.449219 6.035156 18.867188 5.851562 19.28125 5.65625 C 19.59375 5.511719 19.914062 5.371094 20.226562 5.226562 C 20.632812 5.039062 21.035156 4.84375 21.441406 4.667969 C 21.894531 4.476562 22.351562 4.300781 22.804688 4.121094 C 23.292969 3.921875 23.78125 3.722656 24.277344 3.535156 C 24.757812 3.347656 25.246094 3.179688 25.734375 3 C 26.167969 2.839844 26.597656 2.667969 27.03125 2.519531 C 27.976562 2.199219 28.921875 1.886719 29.867188 1.574219 C 30.273438 1.4375 30.679688 1.316406 31.082031 1.183594 C 31.460938 1.0625 31.835938 0.925781 32.21875 0.808594 C 32.605469 0.6875 33 0.589844 33.386719 0.46875 C 33.78125 0.347656 34.171875 0.207031 34.566406 0.0742188 C 34.695312 0.0703125 34.820312 0.0585938 34.949219 0.0585938 C 41.847656 0.0585938 48.746094 0.0585938 55.644531 0.0585938 C 55.742188 0.0585938 55.84375 0.0507812 55.945312 0.046875 C 55.964844 0.0507812 55.980469 0.0546875 56 0.0585938 C 56 0.9375 56 1.8125 56 2.6875 C 55.910156 2.695312 55.816406 2.691406 55.726562 2.703125 C 55.316406 2.757812 54.90625 2.816406 54.492188 2.871094 C 54.296875 2.898438 54.097656 2.914062 53.902344 2.949219 C 53.617188 2.996094 53.335938 3.058594 53.050781 3.105469 C 52.648438 3.171875 52.246094 3.222656 51.847656 3.296875 C 51.53125 3.359375 51.21875 3.449219 50.898438 3.519531 C 50.46875 3.609375 50.03125 3.675781 49.601562 3.78125 C 49.046875 3.914062 48.5 4.066406 47.953125 4.226562 C 47.339844 4.410156 46.722656 4.585938 46.121094 4.824219 C 45.652344 5.015625 45.15625 5.144531 44.695312 5.351562 C 44.121094 5.609375 43.546875 5.855469 42.984375 6.140625 C 42.246094 6.515625 41.519531 6.917969 40.828125 7.378906 C 40.109375 7.859375 39.410156 8.371094 38.777344 8.984375 C 38.691406 9.066406 38.609375 9.160156 38.53125 9.25 "/>
<path style=" stroke:none;fill-rule:nonzero;fill:rgb(12.809753%,14.115906%,35.192871%);fill-opacity:1;" d="M 17.625 13.832031 C 17.589844 13.886719 17.5625 13.953125 17.515625 13.992188 C 16.441406 14.882812 15.457031 15.890625 14.539062 16.96875 C 13.835938 17.796875 13.175781 18.671875 12.550781 19.574219 C 11.917969 20.496094 11.308594 21.433594 10.75 22.40625 C 10.222656 23.320312 9.707031 24.242188 9.203125 25.171875 C 8.21875 26.988281 7.316406 28.851562 6.417969 30.71875 C 6.183594 31.203125 5.949219 31.679688 5.710938 32.160156 C 5.683594 32.222656 5.640625 32.273438 5.605469 32.332031 C 5.523438 32.285156 5.449219 32.230469 5.367188 32.195312 C 4.789062 31.914062 4.210938 31.640625 3.632812 31.363281 C 3.121094 31.121094 2.609375 30.882812 2.097656 30.636719 C 1.695312 30.441406 1.292969 30.238281 0.890625 30.046875 C 0.597656 29.90625 0.296875 29.773438 0 29.636719 C 0 26.492188 0 23.34375 0 20.195312 C 0.03125 20.183594 0.0742188 20.183594 0.0976562 20.160156 C 0.4375 19.816406 0.769531 19.464844 1.105469 19.121094 C 1.65625 18.558594 2.203125 17.992188 2.757812 17.433594 C 3.414062 16.777344 4.074219 16.125 4.738281 15.476562 C 4.992188 15.226562 5.257812 14.984375 5.519531 14.738281 C 5.671875 14.597656 5.828125 14.464844 5.980469 14.324219 C 6.253906 14.078125 6.519531 13.824219 6.792969 13.578125 C 7.132812 13.269531 7.480469 12.964844 7.824219 12.664062 C 8.09375 12.429688 8.363281 12.203125 8.632812 11.972656 C 9.019531 11.644531 9.402344 11.316406 9.792969 10.996094 C 10.214844 10.652344 10.636719 10.316406 11.066406 9.984375 C 11.566406 9.597656 12.070312 9.21875 12.585938 8.828125 C 12.996094 9.234375 13.398438 9.632812 13.800781 10.03125 C 14.09375 10.324219 14.386719 10.621094 14.679688 10.917969 C 15.269531 11.503906 15.859375 12.09375 16.453125 12.675781 C 16.839844 13.0625 17.234375 13.445312 17.625 13.832031 "/>
<path style=" stroke:none;fill-rule:nonzero;fill:rgb(12.809753%,14.115906%,35.192871%);fill-opacity:1;" d="M 43.21875 42.332031 C 43.339844 42.214844 43.460938 42.097656 43.578125 41.972656 C 43.714844 41.828125 43.84375 41.675781 43.992188 41.507812 C 44.238281 41.527344 44.488281 41.550781 44.738281 41.574219 C 44.804688 41.578125 44.867188 41.578125 44.929688 41.578125 C 45.414062 41.582031 45.894531 41.582031 46.378906 41.59375 C 47.09375 41.609375 47.8125 41.605469 48.527344 41.664062 C 49.46875 41.742188 50.410156 41.757812 51.351562 41.773438 C 52.078125 41.785156 52.804688 41.808594 53.53125 41.839844 C 53.972656 41.859375 54.410156 41.910156 54.855469 41.929688 C 55.234375 41.949219 55.617188 41.941406 56 41.949219 C 56 46.628906 56 51.308594 56 55.988281 C 52.773438 55.988281 49.546875 55.992188 46.320312 55.992188 C 46.285156 55.992188 46.25 55.984375 46.214844 55.980469 C 46.082031 55.367188 45.957031 54.75 45.820312 54.136719 C 45.578125 53.042969 45.335938 51.949219 45.089844 50.855469 C 44.867188 49.867188 44.640625 48.878906 44.421875 47.890625 C 44.1875 46.816406 43.960938 45.738281 43.726562 44.664062 C 43.558594 43.914062 43.386719 43.167969 43.214844 42.421875 C 43.207031 42.394531 43.21875 42.363281 43.21875 42.332031 "/>
<path style=" stroke:none;fill-rule:nonzero;fill:rgb(12.812805%,14.117432%,35.15625%);fill-opacity:1;" d="M 0 15.058594 C 0 10.058594 0 5.058594 0 0.0585938 C 0.0195312 0.0546875 0.0351562 0.0507812 0.0546875 0.046875 C 0.15625 0.0507812 0.253906 0.0585938 0.355469 0.0585938 C 8.773438 0.0585938 17.191406 0.0585938 25.609375 0.0585938 C 25.734375 0.0585938 25.863281 0.0703125 25.988281 0.078125 C 25.914062 0.109375 25.84375 0.152344 25.765625 0.171875 C 25.222656 0.304688 24.675781 0.421875 24.136719 0.566406 C 23.449219 0.746094 22.757812 0.933594 22.078125 1.148438 C 20.964844 1.503906 19.855469 1.875 18.75 2.253906 C 18.160156 2.457031 17.578125 2.683594 16.992188 2.914062 C 16.519531 3.105469 16.058594 3.328125 15.585938 3.515625 C 14.683594 3.867188 13.816406 4.304688 12.945312 4.734375 C 12.316406 5.046875 11.699219 5.390625 11.082031 5.742188 C 10.433594 6.113281 9.789062 6.488281 9.160156 6.894531 C 8.183594 7.519531 7.230469 8.183594 6.316406 8.910156 C 5.765625 9.34375 5.222656 9.789062 4.695312 10.257812 C 4.109375 10.769531 3.535156 11.304688 2.96875 11.84375 C 2.59375 12.203125 2.238281 12.589844 1.875 12.960938 C 1.332031 13.511719 0.828125 14.105469 0.332031 14.710938 C 0.230469 14.835938 0.109375 14.941406 0 15.058594 "/>
<path style=" stroke:none;fill-rule:nonzero;fill:rgb(92.939758%,10.978699%,14.118958%);fill-opacity:1;" d="M 0 15.058594 C 0.109375 14.941406 0.230469 14.835938 0.332031 14.710938 C 0.828125 14.105469 1.332031 13.511719 1.875 12.960938 C 2.238281 12.589844 2.59375 12.203125 2.96875 11.84375 C 3.535156 11.304688 4.109375 10.769531 4.695312 10.257812 C 5.222656 9.789062 5.765625 9.34375 6.316406 8.910156 C 7.230469 8.183594 8.183594 7.519531 9.160156 6.894531 C 9.789062 6.488281 10.433594 6.113281 11.082031 5.742188 C 11.699219 5.390625 12.316406 5.046875 12.945312 4.734375 C 13.816406 4.304688 14.683594 3.867188 15.585938 3.515625 C 16.058594 3.328125 16.519531 3.105469 16.992188 2.914062 C 17.578125 2.683594 18.160156 2.457031 18.75 2.253906 C 19.855469 1.875 20.964844 1.503906 22.078125 1.148438 C 22.757812 0.933594 23.449219 0.746094 24.136719 0.566406 C 24.675781 0.421875 25.222656 0.304688 25.765625 0.171875 C 25.84375 0.152344 25.914062 0.109375 25.988281 0.078125 C 26.125 0.0703125 26.261719 0.0585938 26.398438 0.0585938 C 29.011719 0.0585938 31.625 0.0585938 34.238281 0.0585938 C 34.347656 0.0585938 34.457031 0.0703125 34.566406 0.0742188 C 34.171875 0.207031 33.78125 0.347656 33.386719 0.46875 C 33 0.589844 32.605469 0.6875 32.21875 0.808594 C 31.835938 0.925781 31.460938 1.0625 31.082031 1.183594 C 30.679688 1.316406 30.273438 1.4375 29.867188 1.574219 C 28.921875 1.886719 27.976562 2.199219 27.03125 2.519531 C 26.597656 2.667969 26.167969 2.839844 25.734375 3 C 25.246094 3.179688 24.757812 3.347656 24.277344 3.535156 C 23.78125 3.722656 23.292969 3.921875 22.804688 4.121094 C 22.351562 4.300781 21.894531 4.476562 21.441406 4.667969 C 21.035156 4.84375 20.632812 5.039062 20.226562 5.226562 C 19.914062 5.371094 19.59375 5.511719 19.28125 5.65625 C 18.867188 5.851562 18.449219 6.035156 18.039062 6.246094 C 17.28125 6.640625 16.53125 7.050781 15.78125 7.457031 C 15.515625 7.601562 15.257812 7.761719 14.972656 7.933594 C 15.199219 8.140625 15.40625 8.34375 15.625 8.535156 C 16.132812 8.980469 16.644531 9.425781 17.15625 9.867188 C 17.65625 10.304688 18.164062 10.742188 18.664062 11.183594 C 19.066406 11.539062 19.460938 11.898438 19.855469 12.257812 C 19.703125 12.367188 19.546875 12.480469 19.390625 12.59375 C 18.871094 12.96875 18.355469 13.34375 17.839844 13.71875 C 17.773438 13.765625 17.695312 13.792969 17.625 13.832031 C 17.234375 13.445312 16.839844 13.0625 16.453125 12.675781 C 15.859375 12.09375 15.269531 11.503906 14.679688 10.917969 C 14.386719 10.621094 14.09375 10.324219 13.800781 10.03125 C 13.398438 9.632812 12.996094 9.234375 12.585938 8.828125 C 12.070312 9.21875 11.566406 9.597656 11.066406 9.984375 C 10.636719 10.316406 10.214844 10.652344 9.792969 10.996094 C 9.402344 11.316406 9.019531 11.644531 8.632812 11.972656 C 8.363281 12.203125 8.09375 12.429688 7.824219 12.664062 C 7.480469 12.964844 7.132812 13.269531 6.792969 13.578125 C 6.519531 13.824219 6.253906 14.078125 5.980469 14.324219 C 5.828125 14.464844 5.671875 14.597656 5.519531 14.738281 C 5.257812 14.984375 4.992188 15.226562 4.738281 15.476562 C 4.074219 16.125 3.414062 16.777344 2.757812 17.433594 C 2.203125 17.992188 1.65625 18.558594 1.105469 19.121094 C 0.769531 19.464844 0.4375 19.816406 0.0976562 20.160156 C 0.0742188 20.183594 0.03125 20.183594 0 20.195312 C 0 18.484375 0 16.769531 0 15.058594 "/>
<path style=" stroke:none;fill-rule:nonzero;fill:rgb(12.809753%,14.115906%,35.192871%);fill-opacity:1;" d="M 56 40.214844 C 55.371094 40.210938 54.742188 40.214844 54.113281 40.203125 C 53.644531 40.195312 53.167969 40.1875 52.699219 40.144531 C 51.863281 40.070312 51.027344 40.117188 50.191406 40.09375 C 49.046875 40.0625 47.902344 40.050781 46.757812 40.027344 C 46.210938 40.015625 45.667969 39.992188 45.121094 39.972656 C 45.089844 39.96875 45.054688 39.960938 44.984375 39.953125 C 45.011719 39.839844 45.03125 39.738281 45.058594 39.640625 C 45.09375 39.519531 45.140625 39.402344 45.179688 39.28125 C 45.578125 38.058594 46.027344 36.859375 46.53125 35.6875 C 46.859375 34.933594 47.199219 34.183594 47.5625 33.449219 C 47.902344 32.765625 48.261719 32.09375 48.644531 31.433594 C 49.015625 30.792969 49.410156 30.167969 49.832031 29.5625 C 50.21875 29 50.644531 28.46875 51.070312 27.941406 C 51.375 27.5625 51.691406 27.191406 52.027344 26.84375 C 52.710938 26.136719 53.421875 25.457031 54.21875 24.898438 C 54.675781 24.578125 55.136719 24.269531 55.597656 23.957031 C 55.726562 23.871094 55.863281 23.800781 56 23.722656 C 56 29.21875 56 34.71875 56 40.214844 "/>
<path style=" stroke:none;fill-rule:nonzero;fill:rgb(12.812805%,14.117432%,35.15625%);fill-opacity:1;" d="M 56 20.613281 C 55.964844 20.617188 55.921875 20.609375 55.890625 20.625 C 55.347656 20.855469 54.804688 21.09375 54.261719 21.324219 C 53.78125 21.53125 53.304688 21.730469 52.828125 21.929688 C 52.734375 21.96875 52.636719 21.996094 52.550781 22.046875 C 52.394531 22.136719 52.234375 22.132812 52.074219 22.085938 C 51.363281 21.878906 50.65625 21.664062 49.945312 21.460938 C 49.09375 21.21875 48.238281 20.988281 47.386719 20.75 C 47.277344 20.71875 47.140625 20.765625 47.070312 20.625 C 47.476562 20.621094 47.886719 20.613281 48.292969 20.609375 C 48.914062 20.605469 49.53125 20.605469 50.148438 20.601562 C 50.175781 20.605469 50.203125 20.613281 50.230469 20.613281 C 51.238281 20.617188 52.246094 20.621094 53.253906 20.621094 C 53.351562 20.621094 53.453125 20.605469 53.550781 20.597656 C 53.550781 20.550781 53.550781 20.523438 53.550781 20.492188 C 53.488281 20.105469 53.433594 19.710938 53.363281 19.324219 C 53.207031 18.460938 53.042969 17.597656 52.882812 16.738281 C 52.738281 15.941406 52.59375 15.148438 52.445312 14.351562 C 52.304688 13.597656 52.160156 12.84375 52.023438 12.085938 C 51.90625 11.457031 51.796875 10.824219 51.683594 10.195312 C 51.644531 9.960938 51.605469 9.726562 51.5625 9.496094 C 51.550781 9.429688 51.523438 9.367188 51.496094 9.277344 C 51.382812 9.277344 51.277344 9.277344 51.167969 9.277344 C 47.925781 9.277344 44.683594 9.277344 41.441406 9.273438 C 41.335938 9.273438 41.226562 9.261719 41.117188 9.257812 C 41.296875 9.109375 41.46875 8.949219 41.65625 8.816406 C 42.144531 8.472656 42.625 8.121094 43.125 7.808594 C 43.679688 7.460938 44.242188 7.128906 44.820312 6.832031 C 45.339844 6.5625 45.882812 6.34375 46.417969 6.121094 C 46.90625 5.921875 47.398438 5.734375 47.890625 5.558594 C 48.4375 5.363281 48.996094 5.214844 49.550781 5.058594 C 50.265625 4.855469 50.988281 4.699219 51.710938 4.546875 C 52.125 4.457031 52.554688 4.445312 52.96875 4.339844 C 53.445312 4.21875 53.929688 4.199219 54.410156 4.128906 C 54.847656 4.058594 55.292969 4.039062 55.734375 3.996094 C 55.824219 3.988281 55.910156 3.960938 56 3.945312 C 56 9.5 56 15.058594 56 20.613281 "/>
<path style=" stroke:none;fill-rule:nonzero;fill:rgb(92.939758%,10.978699%,14.118958%);fill-opacity:1;" d="M 56 3.945312 C 55.910156 3.960938 55.824219 3.988281 55.734375 3.996094 C 55.292969 4.039062 54.847656 4.058594 54.410156 4.128906 C 53.929688 4.199219 53.445312 4.21875 52.96875 4.339844 C 52.554688 4.445312 52.125 4.457031 51.710938 4.546875 C 50.988281 4.699219 50.265625 4.855469 49.550781 5.058594 C 48.996094 5.214844 48.4375 5.363281 47.890625 5.558594 C 47.398438 5.734375 46.90625 5.921875 46.417969 6.121094 C 45.882812 6.34375 45.339844 6.5625 44.820312 6.832031 C 44.242188 7.128906 43.679688 7.460938 43.125 7.808594 C 42.625 8.121094 42.144531 8.472656 41.65625 8.816406 C 41.46875 8.949219 41.296875 9.109375 41.117188 9.257812 C 41.019531 9.273438 40.921875 9.300781 40.824219 9.300781 C 40.128906 9.304688 39.429688 9.304688 38.730469 9.300781 C 38.664062 9.300781 38.597656 9.269531 38.53125 9.25 C 38.609375 9.160156 38.691406 9.066406 38.777344 8.984375 C 39.410156 8.371094 40.109375 7.859375 40.828125 7.378906 C 41.519531 6.917969 42.246094 6.515625 42.984375 6.140625 C 43.546875 5.855469 44.121094 5.609375 44.695312 5.351562 C 45.15625 5.144531 45.652344 5.015625 46.121094 4.824219 C 46.722656 4.585938 47.339844 4.410156 47.953125 4.226562 C 48.5 4.066406 49.046875 3.914062 49.601562 3.78125 C 50.03125 3.675781 50.46875 3.609375 50.898438 3.519531 C 51.21875 3.449219 51.53125 3.359375 51.847656 3.296875 C 52.246094 3.222656 52.648438 3.171875 53.050781 3.105469 C 53.335938 3.058594 53.617188 2.996094 53.902344 2.949219 C 54.097656 2.914062 54.296875 2.898438 54.492188 2.871094 C 54.90625 2.816406 55.316406 2.757812 55.726562 2.703125 C 55.816406 2.691406 55.910156 2.695312 56 2.6875 C 56 3.105469 56 3.527344 56 3.945312 "/>
<path style=" stroke:none;fill-rule:nonzero;fill:rgb(12.82196%,14.126587%,35.186768%);fill-opacity:1;" d="M 4.402344 34.78125 C 4.25 35.09375 4.109375 35.417969 3.949219 35.726562 C 3.492188 36.613281 3.035156 37.503906 2.558594 38.382812 C 2.15625 39.121094 1.734375 39.851562 1.308594 40.574219 C 0.933594 41.207031 0.539062 41.824219 0.148438 42.445312 C 0.109375 42.507812 0.0507812 42.550781 0 42.605469 C 0 39.398438 0 36.191406 0 32.984375 C 0.160156 33.035156 0.328125 33.070312 0.484375 33.136719 C 1.480469 33.554688 2.476562 33.980469 3.46875 34.402344 C 3.78125 34.53125 4.089844 34.652344 4.402344 34.78125 "/>
<path style=" stroke:none;fill-rule:nonzero;fill:rgb(92.939758%,10.978699%,14.118958%);fill-opacity:1;" d="M 4.402344 34.78125 C 4.089844 34.652344 3.78125 34.53125 3.46875 34.402344 C 2.476562 33.980469 1.480469 33.554688 0.484375 33.136719 C 0.328125 33.070312 0.160156 33.035156 0 32.984375 C 0 31.867188 0 30.753906 0 29.636719 C 0.296875 29.773438 0.597656 29.90625 0.890625 30.046875 C 1.292969 30.238281 1.695312 30.441406 2.097656 30.636719 C 2.609375 30.882812 3.121094 31.121094 3.632812 31.363281 C 4.210938 31.640625 4.789062 31.914062 5.367188 32.195312 C 5.449219 32.230469 5.523438 32.285156 5.605469 32.332031 C 5.453125 32.65625 5.308594 32.984375 5.152344 33.308594 C 4.933594 33.761719 4.707031 34.214844 4.484375 34.664062 C 4.460938 34.707031 4.429688 34.742188 4.402344 34.78125 "/>
<path style=" stroke:none;fill-rule:nonzero;fill:rgb(87.176514%,86.508179%,89.451599%);fill-opacity:1;" d="M 0 0 C 0.0195312 0.015625 0.0351562 0.03125 0.0546875 0.046875 C 0.0351562 0.0507812 0.0195312 0.0546875 0 0.0585938 C 0 0.0390625 0 0.0195312 0 0 "/>
<path style=" stroke:none;fill-rule:nonzero;fill:rgb(87.176514%,86.508179%,89.451599%);fill-opacity:1;" d="M 55.945312 0.046875 C 55.964844 0.03125 55.980469 0.015625 56 0 C 56 0.0195312 56 0.0390625 56 0.0585938 C 55.980469 0.0546875 55.964844 0.0507812 55.945312 0.046875 "/>
<path style=" stroke:none;fill-rule:nonzero;fill:rgb(12.812805%,14.117432%,35.15625%);fill-opacity:1;" d="M 37.214844 37.769531 C 37.472656 37.777344 38.269531 37.65625 38.8125 37.484375 C 40.070312 37.085938 41.117188 36.347656 41.9375 35.226562 C 42.53125 34.410156 42.902344 33.480469 43.03125 32.449219 C 43.105469 31.859375 43.09375 31.265625 42.988281 30.671875 C 42.863281 29.945312 42.625 29.269531 42.257812 28.648438 C 41.84375 27.933594 41.3125 27.34375 40.679688 26.855469 C 39.785156 26.167969 38.785156 25.769531 37.707031 25.652344 C 36.984375 25.578125 36.257812 25.609375 35.539062 25.792969 C 34.339844 26.097656 33.296875 26.699219 32.449219 27.671875 C 31.222656 29.070312 30.722656 30.730469 31 32.660156 C 31.101562 33.355469 31.332031 33.996094 31.65625 34.59375 C 32.222656 35.636719 33.023438 36.414062 34.003906 36.976562 C 34.933594 37.511719 35.9375 37.75 37.214844 37.769531 Z M 37.90625 20.570312 C 38.242188 20.664062 38.578125 20.761719 38.917969 20.851562 C 39.40625 20.980469 39.898438 21.101562 40.386719 21.222656 C 40.773438 21.324219 41.15625 21.417969 41.542969 21.519531 C 41.863281 21.605469 42.1875 21.703125 42.511719 21.785156 C 43.027344 21.917969 43.542969 22.042969 44.058594 22.175781 C 44.363281 22.253906 44.667969 22.339844 44.976562 22.421875 C 45.472656 22.554688 45.96875 22.695312 46.46875 22.828125 C 47.167969 23.011719 47.867188 23.191406 48.570312 23.371094 C 49.039062 23.492188 49.515625 23.609375 49.984375 23.734375 C 50.214844 23.792969 50.441406 23.855469 50.664062 23.917969 C 50.699219 23.929688 50.722656 23.960938 50.773438 23.996094 C 50.726562 24.054688 50.695312 24.109375 50.652344 24.15625 C 50.207031 24.640625 49.75 25.121094 49.308594 25.613281 C 48.691406 26.300781 48.113281 27.023438 47.550781 27.765625 C 46.964844 28.535156 46.414062 29.332031 45.894531 30.152344 C 45.496094 30.785156 45.125 31.441406 44.761719 32.097656 C 44.445312 32.671875 44.144531 33.253906 43.863281 33.847656 C 43.5625 34.484375 43.28125 35.136719 43.019531 35.792969 C 42.746094 36.476562 42.496094 37.171875 42.253906 37.871094 C 42.066406 38.410156 41.90625 38.964844 41.726562 39.53125 C 41.667969 39.535156 41.597656 39.550781 41.527344 39.550781 C 40.882812 39.53125 40.238281 39.511719 39.59375 39.488281 C 39.339844 39.476562 39.085938 39.457031 38.835938 39.445312 C 38.328125 39.417969 37.820312 39.402344 37.308594 39.367188 C 36.867188 39.339844 36.425781 39.292969 35.984375 39.253906 C 35.480469 39.214844 34.972656 39.179688 34.46875 39.128906 C 34.101562 39.089844 33.734375 39.023438 33.367188 38.972656 C 33.332031 38.96875 33.296875 38.96875 33.261719 38.96875 C 32.78125 38.949219 32.304688 38.886719 31.832031 38.796875 C 31.585938 38.75 31.328125 38.75 31.078125 38.71875 C 30.796875 38.683594 30.523438 38.640625 30.246094 38.59375 C 30.03125 38.558594 29.820312 38.519531 29.605469 38.484375 C 29.277344 38.425781 28.949219 38.367188 28.617188 38.316406 C 28.414062 38.285156 28.207031 38.269531 28 38.234375 C 27.75 38.195312 27.503906 38.148438 27.253906 38.101562 C 26.890625 38.03125 26.527344 37.960938 26.164062 37.890625 C 25.820312 37.824219 25.472656 37.757812 25.128906 37.6875 C 24.675781 37.59375 24.226562 37.503906 23.777344 37.402344 C 23.257812 37.285156 22.742188 37.152344 22.222656 37.027344 C 22.074219 36.992188 21.925781 36.960938 21.777344 36.921875 C 21.679688 36.898438 21.585938 36.871094 21.488281 36.84375 C 21.46875 36.585938 21.574219 36.367188 21.636719 36.148438 C 21.875 35.3125 22.117188 34.480469 22.386719 33.65625 C 22.621094 32.933594 22.882812 32.222656 23.140625 31.515625 C 23.75 29.855469 24.453125 28.246094 25.214844 26.667969 C 25.640625 25.777344 26.09375 24.898438 26.546875 24.023438 C 26.890625 23.351562 27.25 22.691406 27.609375 22.027344 C 27.777344 21.714844 27.960938 21.410156 28.128906 21.09375 C 28.175781 21.003906 28.195312 20.894531 28.226562 20.796875 L 28.21875 20.796875 C 28.242188 20.78125 28.265625 20.765625 28.285156 20.75 C 28.699219 20.574219 29.125 20.492188 29.5625 20.492188 C 30.953125 20.496094 32.34375 20.496094 33.734375 20.507812 C 35.042969 20.515625 36.351562 20.53125 37.660156 20.546875 C 37.742188 20.546875 37.824219 20.5625 37.90625 20.570312 "/>
<path style=" stroke:none;fill-rule:nonzero;fill:rgb(12.812805%,14.117432%,35.15625%);fill-opacity:1;" d="M 18.820312 55.976562 C 18.839844 55.03125 18.835938 54.085938 18.882812 53.144531 C 18.921875 52.375 18.96875 51.605469 18.980469 50.828125 C 18.984375 50.402344 19.007812 49.976562 19.039062 49.550781 C 19.078125 49.0625 19.136719 48.574219 19.183594 48.082031 C 19.1875 48.03125 19.1875 47.984375 19.1875 47.933594 C 19.203125 47.410156 19.246094 46.890625 19.34375 46.375 C 19.382812 46.171875 19.394531 45.964844 19.40625 45.757812 C 19.429688 45.371094 19.511719 44.996094 19.554688 44.617188 C 19.628906 43.992188 19.757812 43.378906 19.863281 42.761719 C 19.945312 42.269531 20.070312 41.785156 20.199219 41.304688 C 20.34375 40.761719 20.515625 40.226562 20.679688 39.6875 C 20.703125 39.605469 20.742188 39.527344 20.789062 39.421875 C 20.964844 39.449219 21.132812 39.46875 21.300781 39.492188 C 21.613281 39.535156 21.925781 39.574219 22.238281 39.613281 C 22.589844 39.660156 22.9375 39.710938 23.289062 39.757812 C 23.332031 39.761719 23.375 39.78125 23.417969 39.78125 C 23.753906 39.808594 24.089844 39.828125 24.421875 39.867188 C 24.734375 39.902344 25.046875 39.964844 25.359375 40.015625 C 25.386719 40.023438 25.410156 40.023438 25.441406 40.027344 C 25.78125 40.050781 26.125 40.074219 26.46875 40.101562 C 26.570312 40.109375 26.664062 40.144531 26.761719 40.152344 C 27.175781 40.195312 27.59375 40.214844 28.003906 40.28125 C 28.433594 40.351562 28.875 40.296875 29.296875 40.433594 C 29.324219 40.441406 29.351562 40.441406 29.378906 40.441406 C 29.785156 40.46875 30.191406 40.492188 30.597656 40.519531 C 30.769531 40.53125 30.941406 40.558594 31.113281 40.578125 C 31.339844 40.59375 31.5625 40.605469 31.789062 40.625 C 32.195312 40.660156 32.597656 40.707031 33.003906 40.738281 C 33.148438 40.753906 33.292969 40.757812 33.441406 40.753906 C 33.839844 40.75 34.234375 40.785156 34.628906 40.855469 C 34.648438 40.859375 34.667969 40.855469 34.683594 40.859375 C 35.257812 40.882812 35.828125 40.910156 36.398438 40.929688 C 37.179688 40.957031 37.964844 40.976562 38.746094 41 C 39.171875 41.015625 39.597656 41.035156 40.023438 41.054688 C 40.417969 41.074219 40.816406 41.097656 41.234375 41.121094 C 41.238281 41.433594 41.242188 41.75 41.246094 42.066406 C 41.167969 42.070312 41.085938 42.078125 41.003906 42.078125 C 40.074219 42.082031 39.148438 42.078125 38.21875 42.085938 C 36.316406 42.09375 34.414062 42.109375 32.515625 42.121094 C 32.460938 42.121094 32.410156 42.128906 32.332031 42.132812 C 32.386719 42.507812 32.4375 42.863281 32.492188 43.21875 C 32.601562 43.941406 32.710938 44.664062 32.824219 45.386719 C 32.914062 45.960938 33.015625 46.535156 33.101562 47.109375 C 33.210938 47.800781 33.316406 48.492188 33.421875 49.1875 C 33.53125 49.886719 33.648438 50.585938 33.757812 51.289062 C 33.847656 51.855469 33.933594 52.417969 34.023438 52.984375 C 34.117188 53.578125 34.214844 54.171875 34.308594 54.765625 C 34.359375 55.078125 34.410156 55.390625 34.457031 55.703125 C 34.46875 55.796875 34.457031 55.898438 34.457031 55.996094 C 34.355469 55.996094 34.253906 55.992188 34.15625 55.992188 C 29.152344 55.992188 24.148438 55.992188 19.148438 55.988281 C 19.039062 55.988281 18.929688 55.980469 18.820312 55.976562 "/>
<path style=" stroke:none;fill-rule:nonzero;fill:rgb(12.797546%,14.100647%,35.151672%);fill-opacity:1;" d="M 15.261719 47.6875 C 15.257812 47.726562 15.257812 47.765625 15.253906 47.800781 C 15.152344 47.929688 15.089844 48.0625 15.203125 48.21875 C 15.199219 48.242188 15.199219 48.261719 15.199219 48.28125 C 15.066406 48.449219 15.046875 48.625 15.148438 48.820312 C 15.144531 48.859375 15.140625 48.898438 15.136719 48.9375 C 15.078125 48.972656 15.074219 49.011719 15.132812 49.054688 C 15.128906 49.113281 15.128906 49.175781 15.128906 49.238281 C 15.101562 49.242188 15.078125 49.25 15.042969 49.261719 C 15.042969 49.554688 15.042969 49.84375 15.042969 50.136719 C 15.039062 50.257812 15.035156 50.375 15.035156 50.492188 C 15.003906 50.496094 14.96875 50.5 14.898438 50.511719 C 14.988281 50.671875 14.847656 50.835938 14.984375 50.96875 C 14.980469 51.109375 14.976562 51.25 14.972656 51.386719 C 14.949219 51.390625 14.921875 51.394531 14.882812 51.40625 C 14.882812 51.625 14.882812 51.851562 14.886719 52.074219 C 14.886719 52.082031 14.910156 52.09375 14.925781 52.105469 C 14.921875 52.144531 14.921875 52.1875 14.921875 52.226562 C 14.859375 52.394531 14.859375 52.453125 14.90625 52.695312 C 14.902344 52.777344 14.902344 52.859375 14.902344 52.941406 C 14.804688 52.945312 14.820312 53.023438 14.820312 53.089844 C 14.820312 53.5 14.820312 53.910156 14.824219 54.320312 C 14.820312 54.578125 14.820312 54.835938 14.816406 55.09375 C 14.785156 55.097656 14.75 55.101562 14.710938 55.109375 C 14.710938 55.375 14.710938 55.625 14.710938 55.871094 C 14.691406 55.871094 14.675781 55.871094 14.65625 55.871094 C 14.597656 55.746094 14.492188 55.8125 14.414062 55.8125 C 12.105469 55.808594 9.800781 55.808594 7.492188 55.808594 C 7.453125 55.808594 7.410156 55.808594 7.371094 55.804688 C 7.511719 55.542969 7.644531 55.273438 7.789062 55.015625 C 7.90625 54.804688 8.035156 54.605469 8.148438 54.394531 C 8.476562 53.804688 8.800781 53.214844 9.121094 52.621094 C 9.410156 52.078125 9.691406 51.53125 9.980469 50.988281 C 10.203125 50.5625 10.4375 50.144531 10.660156 49.71875 C 10.832031 49.386719 10.992188 49.050781 11.160156 48.710938 C 11.398438 48.238281 11.636719 47.761719 11.871094 47.285156 C 12.113281 46.796875 12.347656 46.308594 12.589844 45.824219 C 12.820312 45.363281 13.0625 44.914062 13.289062 44.457031 C 13.464844 44.097656 13.625 43.726562 13.796875 43.359375 C 13.945312 43.054688 14.097656 42.75 14.246094 42.445312 C 14.472656 41.988281 14.695312 41.53125 14.921875 41.078125 C 15.105469 40.707031 15.300781 40.339844 15.480469 39.96875 C 15.613281 39.699219 15.730469 39.421875 15.863281 39.15625 C 15.90625 39.0625 15.96875 38.976562 16.019531 38.886719 C 16.078125 38.925781 16.132812 38.96875 16.191406 39.007812 C 16.195312 39.097656 16.257812 39.074219 16.304688 39.074219 C 16.355469 39.101562 16.410156 39.128906 16.460938 39.15625 C 16.480469 39.167969 16.496094 39.183594 16.511719 39.199219 C 16.53125 39.207031 16.550781 39.210938 16.570312 39.21875 C 16.589844 39.253906 16.605469 39.285156 16.625 39.320312 C 16.625 39.355469 16.621094 39.398438 16.621094 39.4375 C 16.59375 39.441406 16.566406 39.445312 16.523438 39.453125 C 16.503906 39.628906 16.484375 39.804688 16.464844 39.984375 C 16.464844 40.023438 16.460938 40.058594 16.460938 40.09375 C 16.367188 40.128906 16.417969 40.214844 16.40625 40.277344 C 16.40625 40.316406 16.402344 40.351562 16.398438 40.394531 C 16.367188 40.398438 16.335938 40.40625 16.28125 40.417969 C 16.300781 40.5 16.320312 40.566406 16.335938 40.628906 C 16.320312 40.691406 16.308594 40.75 16.292969 40.8125 C 16.203125 40.847656 16.253906 40.933594 16.242188 40.996094 C 16.242188 41.035156 16.238281 41.074219 16.238281 41.109375 C 16.191406 41.160156 16.058594 41.179688 16.183594 41.289062 C 16.183594 41.328125 16.179688 41.367188 16.179688 41.40625 C 16.152344 41.414062 16.125 41.417969 16.089844 41.425781 C 16.070312 41.640625 16.046875 41.855469 16.027344 42.074219 C 16.023438 42.132812 16.019531 42.1875 16.015625 42.246094 C 15.992188 42.25 15.964844 42.253906 15.917969 42.261719 C 15.898438 42.535156 15.878906 42.808594 15.859375 43.085938 C 15.867188 43.105469 15.867188 43.125 15.855469 43.144531 C 15.765625 43.179688 15.816406 43.265625 15.808594 43.328125 C 15.804688 43.386719 15.800781 43.441406 15.796875 43.5 C 15.765625 43.507812 15.734375 43.515625 15.679688 43.527344 C 15.699219 43.644531 15.714844 43.75 15.734375 43.855469 C 15.730469 43.898438 15.730469 43.9375 15.730469 43.976562 C 15.703125 43.984375 15.679688 43.992188 15.644531 44.003906 C 15.644531 44.136719 15.644531 44.269531 15.644531 44.402344 C 15.640625 44.480469 15.632812 44.558594 15.628906 44.636719 C 15.507812 44.675781 15.5 44.707031 15.585938 44.816406 C 15.582031 44.875 15.578125 44.933594 15.578125 44.992188 C 15.550781 45 15.523438 45.003906 15.46875 45.015625 C 15.480469 45.164062 15.492188 45.316406 15.507812 45.46875 C 15.507812 45.507812 15.503906 45.550781 15.503906 45.589844 C 15.476562 45.617188 15.425781 45.648438 15.425781 45.675781 C 15.417969 45.808594 15.421875 45.941406 15.425781 46.074219 C 15.421875 46.132812 15.421875 46.191406 15.417969 46.25 C 15.386719 46.253906 15.351562 46.261719 15.316406 46.265625 C 15.296875 46.695312 15.28125 47.105469 15.261719 47.515625 C 15.261719 47.546875 15.261719 47.582031 15.261719 47.613281 C 15.261719 47.640625 15.261719 47.664062 15.261719 47.6875 "/>
<path style=" stroke:none;fill-rule:nonzero;fill:rgb(13.223267%,14.36615%,35.928345%);fill-opacity:1;" d="M 7.328125 55.867188 C 7.328125 55.90625 7.328125 55.9375 7.328125 55.976562 C 7.308594 55.980469 7.292969 55.988281 7.273438 55.992188 C 7.292969 55.953125 7.308594 55.910156 7.328125 55.867188 "/>
<path style=" stroke:none;fill-rule:nonzero;fill:rgb(92.939758%,10.978699%,14.118958%);fill-opacity:1;" d="M 28.285156 20.75 C 28.265625 20.765625 28.242188 20.78125 28.21875 20.796875 C 28.242188 20.78125 28.265625 20.765625 28.285156 20.75 "/>
<path style=" stroke:none;fill-rule:nonzero;fill:rgb(13.223267%,14.36615%,35.928345%);fill-opacity:1;" d="M 15.261719 47.515625 C 15.28125 47.105469 15.296875 46.695312 15.316406 46.265625 C 15.351562 46.261719 15.386719 46.253906 15.417969 46.25 C 15.386719 46.558594 15.355469 46.867188 15.320312 47.179688 C 15.308594 47.292969 15.28125 47.402344 15.261719 47.515625 "/>
<path style=" stroke:none;fill-rule:nonzero;fill:rgb(13.223267%,14.36615%,35.928345%);fill-opacity:1;" d="M 14.710938 55.976562 C 14.710938 55.941406 14.710938 55.90625 14.710938 55.871094 C 14.710938 55.625 14.710938 55.375 14.710938 55.109375 C 14.75 55.101562 14.785156 55.097656 14.816406 55.09375 C 14.816406 55.386719 14.816406 55.679688 14.816406 55.972656 C 14.78125 55.972656 14.746094 55.972656 14.710938 55.976562 "/>
<path style=" stroke:none;fill-rule:nonzero;fill:rgb(13.223267%,14.36615%,35.928345%);fill-opacity:1;" d="M 14.824219 54.320312 C 14.820312 53.910156 14.820312 53.5 14.820312 53.089844 C 14.820312 53.023438 14.804688 52.945312 14.902344 52.941406 C 14.90625 53.007812 14.921875 53.074219 14.917969 53.140625 C 14.902344 53.5 14.886719 53.863281 14.863281 54.222656 C 14.859375 54.257812 14.835938 54.289062 14.824219 54.320312 "/>
<path style=" stroke:none;fill-rule:nonzero;fill:rgb(13.223267%,14.36615%,35.928345%);fill-opacity:1;" d="M 14.925781 52.105469 C 14.910156 52.09375 14.886719 52.082031 14.886719 52.074219 C 14.882812 51.851562 14.882812 51.625 14.882812 51.40625 C 14.921875 51.394531 14.949219 51.390625 14.972656 51.386719 C 14.972656 51.605469 14.976562 51.824219 14.972656 52.042969 C 14.972656 52.0625 14.941406 52.082031 14.925781 52.105469 "/>
<path style=" stroke:none;fill-rule:nonzero;fill:rgb(13.223267%,14.36615%,35.928345%);fill-opacity:1;" d="M 15.042969 50.136719 C 15.042969 49.84375 15.042969 49.554688 15.042969 49.261719 C 15.078125 49.25 15.101562 49.242188 15.128906 49.238281 C 15.144531 49.542969 15.101562 49.839844 15.042969 50.136719 "/>
<path style=" stroke:none;fill-rule:nonzero;fill:rgb(13.223267%,14.36615%,35.928345%);fill-opacity:1;" d="M 15.859375 43.085938 C 15.878906 42.808594 15.898438 42.535156 15.917969 42.261719 C 15.964844 42.253906 15.992188 42.25 16.015625 42.246094 C 15.964844 42.527344 15.914062 42.804688 15.859375 43.085938 "/>
<path style=" stroke:none;fill-rule:nonzero;fill:rgb(13.223267%,14.36615%,35.928345%);fill-opacity:1;" d="M 16.027344 42.074219 C 16.046875 41.855469 16.070312 41.640625 16.089844 41.425781 C 16.125 41.417969 16.152344 41.414062 16.179688 41.40625 C 16.144531 41.636719 16.140625 41.867188 16.027344 42.074219 "/>
<path style=" stroke:none;fill-rule:nonzero;fill:rgb(13.223267%,14.36615%,35.928345%);fill-opacity:1;" d="M 15.148438 48.820312 C 15.046875 48.625 15.066406 48.449219 15.199219 48.28125 C 15.191406 48.460938 15.25 48.648438 15.148438 48.820312 "/>
<path style=" stroke:none;fill-rule:nonzero;fill:rgb(13.223267%,14.36615%,35.928345%);fill-opacity:1;" d="M 14.984375 50.96875 C 14.847656 50.835938 14.988281 50.671875 14.898438 50.511719 C 14.96875 50.5 15.003906 50.496094 15.035156 50.492188 C 15.023438 50.652344 15.074219 50.820312 14.984375 50.96875 "/>
<path style=" stroke:none;fill-rule:nonzero;fill:rgb(13.223267%,14.36615%,35.928345%);fill-opacity:1;" d="M 16.464844 39.984375 C 16.484375 39.804688 16.503906 39.628906 16.523438 39.453125 C 16.566406 39.445312 16.59375 39.441406 16.621094 39.4375 C 16.558594 39.617188 16.597656 39.832031 16.464844 39.984375 "/>
<path style=" stroke:none;fill-rule:nonzero;fill:rgb(13.223267%,14.36615%,35.928345%);fill-opacity:1;" d="M 15.507812 45.46875 C 15.492188 45.316406 15.480469 45.164062 15.46875 45.015625 C 15.523438 45.003906 15.550781 45 15.578125 44.992188 C 15.554688 45.152344 15.53125 45.308594 15.507812 45.46875 "/>
<path style=" stroke:none;fill-rule:nonzero;fill:rgb(13.223267%,14.36615%,35.928345%);fill-opacity:1;" d="M 15.425781 46.074219 C 15.421875 45.941406 15.417969 45.808594 15.425781 45.675781 C 15.425781 45.648438 15.476562 45.617188 15.503906 45.589844 C 15.527344 45.761719 15.480469 45.917969 15.425781 46.074219 "/>
<path style=" stroke:none;fill-rule:nonzero;fill:rgb(13.223267%,14.36615%,35.928345%);fill-opacity:1;" d="M 15.734375 43.855469 C 15.714844 43.75 15.699219 43.644531 15.679688 43.527344 C 15.734375 43.515625 15.765625 43.507812 15.796875 43.5 C 15.777344 43.617188 15.753906 43.738281 15.734375 43.855469 "/>
<path style=" stroke:none;fill-rule:nonzero;fill:rgb(13.223267%,14.36615%,35.928345%);fill-opacity:1;" d="M 15.644531 44.402344 C 15.644531 44.269531 15.644531 44.136719 15.644531 44.003906 C 15.679688 43.992188 15.703125 43.984375 15.730469 43.976562 C 15.746094 44.128906 15.699219 44.265625 15.644531 44.402344 "/>
<path style=" stroke:none;fill-rule:nonzero;fill:rgb(13.223267%,14.36615%,35.928345%);fill-opacity:1;" d="M 15.203125 48.21875 C 15.089844 48.0625 15.152344 47.929688 15.253906 47.800781 C 15.234375 47.941406 15.21875 48.082031 15.203125 48.21875 "/>
<path style=" stroke:none;fill-rule:nonzero;fill:rgb(13.223267%,14.36615%,35.928345%);fill-opacity:1;" d="M 14.90625 52.695312 C 14.859375 52.453125 14.859375 52.394531 14.921875 52.226562 C 14.914062 52.382812 14.910156 52.539062 14.90625 52.695312 "/>
<path style=" stroke:none;fill-rule:nonzero;fill:rgb(13.223267%,14.36615%,35.928345%);fill-opacity:1;" d="M 16.335938 40.628906 C 16.320312 40.566406 16.300781 40.5 16.28125 40.417969 C 16.335938 40.40625 16.367188 40.398438 16.398438 40.394531 C 16.375 40.472656 16.355469 40.550781 16.335938 40.628906 "/>
<path style=" stroke:none;fill-rule:nonzero;fill:rgb(13.223267%,14.36615%,35.928345%);fill-opacity:1;" d="M 15.585938 44.816406 C 15.5 44.707031 15.507812 44.675781 15.628906 44.636719 C 15.613281 44.695312 15.601562 44.757812 15.585938 44.816406 "/>
<path style=" stroke:none;fill-rule:nonzero;fill:rgb(13.223267%,14.36615%,35.928345%);fill-opacity:1;" d="M 16.183594 41.289062 C 16.058594 41.179688 16.191406 41.160156 16.238281 41.109375 C 16.21875 41.167969 16.203125 41.230469 16.183594 41.289062 "/>
<path style=" stroke:none;fill-rule:nonzero;fill:rgb(13.223267%,14.36615%,35.928345%);fill-opacity:1;" d="M 16.242188 40.996094 C 16.253906 40.933594 16.203125 40.847656 16.292969 40.8125 C 16.277344 40.871094 16.261719 40.933594 16.242188 40.996094 "/>
<path style=" stroke:none;fill-rule:nonzero;fill:rgb(13.223267%,14.36615%,35.928345%);fill-opacity:1;" d="M 15.808594 43.328125 C 15.816406 43.265625 15.765625 43.179688 15.855469 43.144531 C 15.839844 43.203125 15.824219 43.265625 15.808594 43.328125 "/>
<path style=" stroke:none;fill-rule:nonzero;fill:rgb(13.223267%,14.36615%,35.928345%);fill-opacity:1;" d="M 16.40625 40.277344 C 16.417969 40.214844 16.367188 40.128906 16.460938 40.09375 C 16.441406 40.15625 16.425781 40.214844 16.40625 40.277344 "/>
<path style=" stroke:none;fill-rule:nonzero;fill:rgb(13.223267%,14.36615%,35.928345%);fill-opacity:1;" d="M 15.132812 49.054688 C 15.074219 49.011719 15.078125 48.972656 15.136719 48.9375 C 15.136719 48.976562 15.132812 49.015625 15.132812 49.054688 "/>
<path style=" stroke:none;fill-rule:nonzero;fill:rgb(13.223267%,14.36615%,35.928345%);fill-opacity:1;" d="M 16.625 39.320312 C 16.605469 39.285156 16.589844 39.253906 16.570312 39.21875 C 16.589844 39.253906 16.605469 39.285156 16.625 39.320312 "/>
<path style=" stroke:none;fill-rule:nonzero;fill:rgb(13.223267%,14.36615%,35.928345%);fill-opacity:1;" d="M 16.304688 39.074219 C 16.257812 39.074219 16.195312 39.097656 16.191406 39.007812 C 16.230469 39.03125 16.265625 39.050781 16.304688 39.074219 "/>
<path style=" stroke:none;fill-rule:nonzero;fill:rgb(13.223267%,14.36615%,35.928345%);fill-opacity:1;" d="M 16.511719 39.199219 C 16.496094 39.183594 16.480469 39.167969 16.460938 39.15625 C 16.480469 39.167969 16.496094 39.183594 16.511719 39.199219 "/>
<path style=" stroke:none;fill-rule:nonzero;fill:rgb(13.223267%,14.36615%,35.928345%);fill-opacity:1;" d="M 15.261719 47.6875 C 15.261719 47.664062 15.261719 47.640625 15.261719 47.613281 C 15.273438 47.625 15.285156 47.640625 15.296875 47.652344 C 15.285156 47.664062 15.273438 47.675781 15.261719 47.6875 "/>
<path style=" stroke:none;fill-rule:nonzero;fill:rgb(92.121887%,91.944885%,92.00592%);fill-opacity:1;" d="M 37.214844 37.769531 C 35.9375 37.75 34.933594 37.511719 34.003906 36.976562 C 33.023438 36.414062 32.222656 35.636719 31.65625 34.59375 C 31.332031 33.996094 31.101562 33.355469 31 32.660156 C 30.722656 30.730469 31.222656 29.070312 32.449219 27.671875 C 33.296875 26.699219 34.339844 26.097656 35.539062 25.792969 C 36.257812 25.609375 36.984375 25.578125 37.707031 25.652344 C 38.785156 25.769531 39.785156 26.167969 40.679688 26.855469 C 41.3125 27.34375 41.84375 27.933594 42.257812 28.648438 C 42.625 29.269531 42.863281 29.945312 42.988281 30.671875 C 43.09375 31.265625 43.105469 31.859375 43.03125 32.449219 C 42.902344 33.480469 42.53125 34.410156 41.9375 35.226562 C 41.117188 36.347656 40.070312 37.085938 38.8125 37.484375 C 38.269531 37.65625 37.472656 37.777344 37.214844 37.769531 "/>
</g>
</svg>
