<?xml version="1.0" encoding="UTF-8"?>
<svg xmlns="http://www.w3.org/2000/svg" xmlns:xlink="http://www.w3.org/1999/xlink" width="56pt" height="56pt" viewBox="0 0 56 56" version="1.1">
<g id="surface1">
<rect x="0" y="0" width="56" height="56" style="fill:rgb(48.262024%,9.555054%,17.419434%);fill-opacity:1;stroke:none;"/>
<path style=" stroke:none;fill-rule:nonzero;fill:rgb(100%,100%,100%);fill-opacity:1;" d="M 24.226562 7.882812 C 25.601562 7.65625 27.515625 7.898438 28.003906 9.445312 C 28.273438 8.90625 28.640625 8.375 29.21875 8.144531 C 30.035156 7.734375 30.964844 7.816406 31.839844 7.886719 C 30.984375 8.613281 30.628906 9.726562 30.371094 10.785156 C 29.917969 12.726562 29.800781 14.726562 29.503906 16.695312 C 29.417969 17.121094 29.355469 17.574219 29.128906 17.953125 C 28.929688 18.214844 28.59375 18.308594 28.320312 18.46875 C 28.339844 20.640625 28.320312 22.808594 28.332031 24.980469 C 28.605469 25.226562 28.878906 25.472656 29.15625 25.722656 C 29.859375 22.460938 30.582031 19.199219 31.484375 15.984375 C 31.949219 14.132812 32.523438 12.304688 33.242188 10.535156 C 33.542969 9.761719 34.21875 9.09375 35.074219 9.011719 C 36.601562 8.808594 38.019531 9.617188 39.257812 10.40625 C 38.707031 10.535156 38.128906 10.664062 37.6875 11.042969 C 37.054688 11.578125 36.652344 12.316406 36.289062 13.046875 C 35.578125 14.566406 34.890625 16.089844 34.179688 17.609375 C 33.890625 18.136719 33.628906 18.765625 33.050781 19.03125 C 32.476562 19.023438 31.9375 18.785156 31.378906 18.675781 C 30.785156 21.191406 30.164062 23.710938 29.683594 26.25 C 29.707031 26.636719 29.90625 27.210938 30.328125 27.296875 C 33.058594 22.453125 35.734375 17.507812 39.410156 13.300781 C 39.988281 12.578125 40.957031 12.152344 41.878906 12.390625 C 43.429688 12.722656 44.511719 14.011719 45.421875 15.21875 C 44.253906 15.113281 43.058594 15.464844 42.171875 16.238281 C 40.726562 17.492188 39.472656 18.949219 38.027344 20.199219 C 37.640625 20.492188 37.214844 20.859375 36.703125 20.839844 C 36.21875 20.710938 35.824219 20.386719 35.375 20.179688 C 35.148438 20.007812 35.035156 20.382812 34.921875 20.511719 C 33.398438 22.972656 32.03125 25.527344 30.609375 28.050781 C 30.820312 28.488281 31.039062 28.917969 31.273438 29.339844 C 34.210938 26.027344 37.25 22.773438 40.769531 20.066406 C 41.863281 19.214844 43.019531 18.441406 44.242188 17.789062 C 45.480469 17.105469 47.15625 17.375 48.117188 18.414062 C 48.914062 19.3125 49.402344 20.441406 49.839844 21.554688 C 48.796875 21.089844 47.605469 20.914062 46.5 21.257812 C 44.640625 21.800781 42.992188 22.875 41.183594 23.550781 C 40.761719 23.691406 40.277344 23.820312 39.855469 23.617188 C 39.417969 23.328125 39.082031 22.917969 38.699219 22.566406 C 36.546875 24.464844 34.582031 26.558594 32.660156 28.691406 C 32.324219 29.082031 31.933594 29.4375 31.660156 29.882812 C 31.679688 30.445312 32.039062 30.9375 32.253906 31.449219 C 36.410156 28.292969 40.75 25.125 45.847656 23.691406 C 47.292969 23.328125 48.9375 22.996094 50.3125 23.777344 C 51.195312 24.246094 51.675781 25.183594 51.910156 26.121094 C 52.132812 26.878906 52.296875 27.652344 52.386719 28.4375 C 50.621094 26.949219 48.171875 27.078125 46.027344 27.40625 C 44.84375 27.515625 43.578125 27.980469 42.417969 27.511719 C 42.035156 27.078125 41.8125 26.53125 41.519531 26.039062 C 38.300781 27.675781 35.351562 29.796875 32.527344 32.039062 C 32.730469 32.621094 32.957031 33.191406 33.214844 33.753906 C 37.539062 31.472656 42.148438 29.328125 47.117188 29.113281 C 48.867188 29.105469 50.851562 29.269531 52.15625 30.578125 C 53.363281 31.886719 53.148438 33.804688 52.960938 35.429688 C 52.558594 34.851562 52.125 34.269531 51.492188 33.921875 C 49.726562 32.910156 47.648438 32.757812 45.667969 32.554688 C 45.046875 32.453125 44.359375 32.4375 43.835938 32.046875 C 43.457031 31.53125 43.457031 30.851562 43.246094 30.265625 C 39.789062 31.113281 36.550781 32.648438 33.4375 34.34375 C 33.515625 34.804688 33.730469 35.277344 33.632812 35.746094 C 33.308594 36.316406 32.804688 36.746094 32.367188 37.222656 C 31.226562 38.335938 30.039062 39.472656 28.554688 40.101562 C 27.613281 40.4375 26.746094 39.75 26 39.265625 C 24.753906 38.308594 23.601562 37.21875 22.589844 36.019531 C 22.164062 35.535156 22.539062 34.886719 22.621094 34.34375 C 19.480469 32.675781 16.246094 31.054688 12.75 30.292969 C 12.570312 31.035156 12.601562 32.175781 11.628906 32.335938 C 9.660156 32.773438 7.578125 32.652344 5.671875 33.40625 C 4.613281 33.734375 3.703125 34.433594 3.117188 35.375 C 2.773438 34.246094 2.855469 33.035156 3.136719 31.902344 C 3.507812 30.597656 4.71875 29.726562 5.988281 29.414062 C 8.210938 28.863281 10.539062 29.144531 12.742188 29.648438 C 16.3125 30.457031 19.621094 32.085938 22.855469 33.75 C 23.085938 33.179688 23.316406 32.609375 23.53125 32.035156 C 20.6875 29.820312 17.765625 27.65625 14.527344 26.042969 C 14.234375 26.527344 14.03125 27.074219 13.648438 27.5 C 12.949219 27.839844 12.144531 27.699219 11.40625 27.613281 C 9.648438 27.371094 7.855469 27.003906 6.082031 27.320312 C 5.183594 27.46875 4.363281 27.902344 3.648438 28.460938 C 3.804688 27.378906 4.035156 26.3125 4.417969 25.289062 C 4.832031 24.230469 5.871094 23.5 6.980469 23.351562 C 8.324219 23.160156 9.664062 23.546875 10.941406 23.910156 C 15.71875 25.449219 19.855469 28.40625 23.769531 31.460938 C 24 30.980469 24.265625 30.519531 24.429688 30.011719 C 24.410156 29.792969 24.222656 29.640625 24.097656 29.472656 C 21.960938 27.078125 19.757812 24.738281 17.382812 22.574219 C 16.773438 23.054688 16.242188 23.96875 15.328125 23.679688 C 13.195312 23.066406 11.355469 21.65625 9.175781 21.171875 C 8.179688 20.933594 7.148438 21.152344 6.226562 21.554688 C 6.585938 20.535156 7.050781 19.546875 7.695312 18.675781 C 8.5625 17.519531 10.246094 17.078125 11.566406 17.675781 C 12.453125 18.074219 13.253906 18.636719 14.066406 19.167969 C 18.101562 22.027344 21.503906 25.660156 24.78125 29.335938 C 25.015625 28.914062 25.234375 28.488281 25.425781 28.050781 C 23.925781 25.378906 22.511719 22.652344 20.835938 20.082031 C 20.160156 20.378906 19.433594 21.175781 18.671875 20.65625 C 17.578125 19.988281 16.777344 18.960938 15.839844 18.105469 C 14.769531 17.117188 13.828125 15.863281 12.386719 15.40625 C 11.816406 15.191406 11.199219 15.210938 10.597656 15.226562 C 11.648438 13.914062 12.894531 12.367188 14.726562 12.332031 C 15.851562 12.277344 16.601562 13.21875 17.246094 14 C 20.617188 18.105469 23.191406 22.777344 25.765625 27.398438 C 25.992188 27.082031 26.292969 26.785156 26.390625 26.394531 C 25.917969 23.808594 25.269531 21.257812 24.683594 18.691406 C 24.136719 18.785156 23.605469 18.996094 23.046875 19.027344 C 22.507812 18.894531 22.277344 18.3125 22.015625 17.882812 C 21.117188 16.058594 20.335938 14.179688 19.40625 12.375 C 18.898438 11.375 18 10.542969 16.847656 10.414062 C 17.945312 9.597656 19.28125 8.960938 20.671875 8.976562 C 21.605469 8.964844 22.425781 9.617188 22.78125 10.453125 C 23.5 12.214844 24.078125 14.03125 24.539062 15.875 C 25.441406 19.128906 26.203125 22.421875 26.894531 25.722656 C 27.167969 25.480469 27.480469 25.265625 27.699219 24.960938 C 27.757812 22.800781 27.6875 20.636719 27.734375 18.472656 C 27.402344 18.28125 26.976562 18.148438 26.824219 17.761719 C 26.667969 17.398438 26.601562 17.011719 26.53125 16.628906 C 26.253906 14.679688 26.125 12.703125 25.679688 10.78125 C 25.433594 9.71875 25.046875 8.636719 24.226562 7.882812 "/>
</g>
</svg>
