<?xml version="1.0" encoding="UTF-8"?>
<svg xmlns="http://www.w3.org/2000/svg" xmlns:xlink="http://www.w3.org/1999/xlink" width="56pt" height="56pt" viewBox="0 0 56 56" version="1.1">
<g id="surface1">
<rect x="0" y="0" width="56" height="56" style="fill:rgb(95.033264%,35.891724%,9.927368%);fill-opacity:1;stroke:none;"/>
<path style=" stroke:none;fill-rule:nonzero;fill:rgb(100%,100%,100%);fill-opacity:1;" d="M 28 33.222656 C 29.132812 39.914062 32.433594 46.050781 37.394531 50.679688 C 37.625 43.898438 35.621094 37.230469 31.695312 31.695312 C 37.230469 35.621094 43.898438 37.625 50.679688 37.394531 C 46.050781 32.441406 39.921875 29.140625 33.238281 28.003906 C 39.925781 26.863281 46.054688 23.5625 50.6875 18.605469 C 43.902344 18.375 37.230469 20.378906 31.695312 24.304688 C 35.621094 18.769531 37.625 12.101562 37.394531 5.320312 C 32.433594 9.953125 29.132812 16.085938 28 22.777344 C 26.867188 16.085938 23.566406 9.953125 18.605469 5.320312 C 18.375 12.101562 20.378906 18.769531 24.304688 24.304688 C 18.769531 20.378906 12.097656 18.375 5.3125 18.605469 C 9.945312 23.5625 16.074219 26.863281 22.761719 28.003906 C 16.078125 29.140625 9.949219 32.441406 5.320312 37.394531 C 12.101562 37.625 18.769531 35.621094 24.304688 31.695312 C 20.378906 37.230469 18.375 43.898438 18.605469 50.679688 C 23.566406 46.050781 26.867188 39.914062 28 33.222656 "/>
</g>
</svg>
