<?xml version="1.0" encoding="UTF-8"?>
<svg xmlns="http://www.w3.org/2000/svg" xmlns:xlink="http://www.w3.org/1999/xlink" width="56pt" height="56pt" viewBox="0 0 56 56" version="1.1">
<g id="surface1">
<rect x="0" y="0" width="56" height="56" style="fill:rgb(15.524292%,19.874573%,44.337463%);fill-opacity:1;stroke:none;"/>
<path style=" stroke:none;fill-rule:nonzero;fill:rgb(100%,100%,100%);fill-opacity:1;" d="M 47.207031 26.269531 C 45.101562 23.621094 47.925781 20.488281 44.429688 15.871094 C 40.929688 11.253906 35.863281 11.34375 33.398438 11.34375 L 20.175781 11.34375 L 19.144531 12.511719 L 31.410156 12.511719 C 33.3125 12.511719 33.707031 14.171875 33.3125 15.359375 C 32.914062 16.546875 31.042969 21.945312 30.242188 24.273438 C 29.441406 26.601562 27.582031 27.402344 26.261719 27.402344 C 24.9375 27.402344 24.203125 26.640625 24.203125 25.597656 C 24.203125 24.554688 26.097656 20.101562 26.097656 19.210938 C 26.097656 18.316406 25.207031 17.914062 24.082031 17.914062 L 12.832031 17.914062 L 11.734375 19.007812 L 18.65625 19.007812 C 20.113281 19.007812 20.554688 19.890625 20.234375 20.972656 C 19.910156 22.054688 19.175781 24.234375 18.855469 25.15625 C 18.535156 26.078125 17.785156 27.359375 15.769531 27.359375 L 7.003906 27.359375 L 6.402344 28.726562 L 14.804688 28.726562 C 16.332031 28.726562 16.773438 29.578125 16.289062 31.023438 C 15.808594 32.46875 15.167969 34.160156 14.886719 34.925781 C 14.605469 35.6875 13.921875 37.050781 11.386719 37.050781 L 5.320312 37.050781 L 5.519531 37.972656 L 16.851562 37.972656 C 18.695312 37.972656 19.792969 37.179688 20.515625 35.085938 C 21.234375 32.988281 22.089844 28.765625 25.335938 28.765625 C 26.703125 28.765625 27.785156 29.417969 27.183594 31.144531 C 26.617188 32.761719 24.363281 39.1875 23.761719 40.953125 C 23.160156 42.71875 21.207031 43.679688 19.671875 43.679688 L 7.484375 43.679688 L 8.210938 44.65625 L 22.425781 44.65625 C 29.445312 44.65625 33.609375 41.410156 35.972656 39.890625 C 40.632812 36.890625 42.398438 32.078125 44.941406 30.316406 C 46.617188 29.152344 47.445312 28.722656 50.089844 28.722656 L 50.398438 28.042969 L 50.679688 27.40625 C 50.679688 27.40625 48.328125 27.679688 47.207031 26.269531 "/>
</g>
</svg>
