<?xml version="1.0" encoding="UTF-8"?>
<svg xmlns="http://www.w3.org/2000/svg" xmlns:xlink="http://www.w3.org/1999/xlink" width="56pt" height="56pt" viewBox="0 0 56 56" version="1.1">
<g id="surface1">
<rect x="0" y="0" width="56" height="56" style="fill:rgb(5.715942%,15.304565%,32.124329%);fill-opacity:1;stroke:none;"/>
<path style=" stroke:none;fill-rule:evenodd;fill:rgb(100%,100%,100%);fill-opacity:1;" d="M 36.421875 15 C 37.695312 16.476562 39.550781 17.003906 40.714844 16.15625 C 41.457031 15.613281 41.746094 14.628906 41.59375 13.554688 C 42.265625 13.660156 42.972656 13.871094 43.769531 14.195312 C 44.183594 14.34375 44.652344 12.65625 44.03125 12.605469 C 37.328125 11.636719 33.605469 17.027344 33.695312 16.957031 C 34.722656 16.171875 35.609375 15.519531 36.421875 15 "/>
<path style=" stroke:none;fill-rule:evenodd;fill:rgb(5.715942%,15.304565%,32.124329%);fill-opacity:1;" d="M 40.269531 15.601562 C 39.363281 16.316406 37.894531 15.878906 36.851562 14.730469 C 38.257812 13.882812 39.445312 13.460938 40.738281 13.480469 C 40.980469 14.308594 40.753906 15.214844 40.269531 15.601562 "/>
<path style=" stroke:none;fill-rule:evenodd;fill:rgb(100%,100%,100%);fill-opacity:1;" d="M 6.886719 17.988281 C 8.039062 14.210938 10.035156 10.792969 12.652344 7.957031 C 24.199219 3.089844 39.097656 3.125 50.234375 12.082031 C 43.226562 8.523438 22.542969 4.730469 6.886719 17.988281 "/>
<path style=" stroke:none;fill-rule:evenodd;fill:rgb(100%,100%,100%);fill-opacity:1;" d="M 6.210938 30.339844 C 5.699219 27.609375 5.628906 24.8125 6 22.0625 C 14.167969 13.757812 26.402344 8.316406 39.230469 10.988281 C 32.203125 11.003906 15.367188 15.816406 6.210938 30.339844 "/>
<path style=" stroke:none;fill-rule:evenodd;fill:rgb(100%,100%,100%);fill-opacity:1;" d="M 10.574219 40.558594 C 9.21875 38.660156 8.113281 36.570312 7.304688 34.339844 C 12.160156 24.054688 21.535156 15.113281 34.125 13.164062 C 27.859375 15.53125 14.78125 25.105469 10.574219 40.558594 "/>
<path style=" stroke:none;fill-rule:evenodd;fill:rgb(100%,100%,100%);fill-opacity:1;" d="M 18.5 47.867188 C 16.578125 46.71875 14.816406 45.335938 13.253906 43.75 C 14.9375 32.890625 21.5625 21.546875 32.203125 15.644531 C 31.4375 16.800781 31.066406 18.140625 31.136719 19.574219 C 24.921875 25.851562 18.78125 35.582031 18.5 47.867188 "/>
<path style=" stroke:none;fill-rule:evenodd;fill:rgb(100%,100%,100%);fill-opacity:1;" d="M 28.339844 51.28125 C 26.242188 51.007812 24.222656 50.480469 22.308594 49.730469 C 22.371094 39.910156 25.570312 28.234375 31.363281 21.085938 C 31.675781 22.339844 32.304688 23.636719 33.265625 24.921875 C 37.867188 19.53125 43.171875 15.726562 49.726562 14.042969 C 40.769531 17.429688 26.824219 28.253906 28.339844 51.28125 "/>
</g>
</svg>
