<?xml version="1.0" encoding="UTF-8"?>
<svg xmlns="http://www.w3.org/2000/svg" xmlns:xlink="http://www.w3.org/1999/xlink" width="56pt" height="56pt" viewBox="0 0 56 56" version="1.1">
<defs>
<clipPath id="clip1">
  <path d="M 34 18 L 54 18 L 54 38 L 34 38 Z M 34 18 "/>
</clipPath>
<clipPath id="clip2">
  <path d="M 50.347656 21.96875 C 50.3125 22.015625 50.277344 22.0625 50.238281 22.109375 L 50.246094 22.105469 C 50.230469 22.121094 50.214844 22.140625 50.199219 22.160156 C 50.199219 22.15625 50.199219 22.15625 50.199219 22.15625 C 49.933594 22.464844 49.667969 22.773438 49.40625 23.078125 C 49.210938 23.28125 49.015625 23.480469 48.824219 23.679688 C 48.691406 23.808594 48.558594 23.933594 48.425781 24.0625 C 48.40625 24.082031 48.386719 24.101562 48.363281 24.121094 C 48.335938 24.144531 48.308594 24.164062 48.28125 24.1875 C 48.265625 24.199219 48.253906 24.210938 48.238281 24.222656 L 48.234375 24.226562 C 48.003906 24.417969 47.773438 24.609375 47.542969 24.800781 C 47.296875 24.96875 47.054688 25.132812 46.808594 25.300781 C 46.78125 25.320312 46.746094 25.335938 46.71875 25.355469 L 46.714844 25.359375 C 46.511719 25.464844 46.3125 25.574219 46.109375 25.675781 C 46.070312 25.699219 46.027344 25.710938 45.953125 25.695312 C 46.085938 25.496094 46.222656 25.300781 46.355469 25.105469 L 46.363281 25.097656 C 46.382812 25.066406 46.402344 25.039062 46.417969 25.007812 L 46.417969 25.011719 C 46.433594 24.992188 46.449219 24.976562 46.464844 24.960938 C 46.597656 24.78125 46.734375 24.605469 46.867188 24.429688 C 46.867188 24.425781 46.863281 24.425781 46.863281 24.421875 C 46.878906 24.40625 46.898438 24.390625 46.914062 24.371094 L 46.910156 24.375 C 46.925781 24.355469 46.945312 24.339844 46.960938 24.324219 C 47.125 24.125 47.285156 23.929688 47.449219 23.730469 C 47.464844 23.714844 47.480469 23.699219 47.496094 23.683594 C 47.511719 23.664062 47.53125 23.648438 47.542969 23.632812 C 47.777344 23.386719 48.007812 23.144531 48.238281 22.898438 C 48.417969 22.734375 48.597656 22.570312 48.777344 22.40625 C 49.097656 22.144531 49.421875 21.878906 49.746094 21.617188 C 50.339844 21.160156 50.933594 20.707031 51.527344 20.25 C 51.539062 20.28125 51.554688 20.308594 51.566406 20.339844 C 51.160156 20.882812 50.753906 21.425781 50.347656 21.96875 Z M 48.214844 25.917969 C 48.226562 25.941406 48.238281 25.964844 48.246094 25.988281 C 48.238281 25.964844 48.226562 25.941406 48.214844 25.917969 Z M 44.453125 28.203125 C 44.460938 28.214844 44.464844 28.226562 44.46875 28.238281 C 44.464844 28.226562 44.457031 28.214844 44.453125 28.203125 Z M 41.894531 32.851562 C 41.84375 32.835938 41.796875 32.816406 41.75 32.796875 C 41.796875 32.816406 41.84375 32.835938 41.894531 32.851562 C 41.933594 32.867188 41.980469 32.882812 42.027344 32.894531 C 41.980469 32.882812 41.933594 32.867188 41.894531 32.851562 Z M 40.148438 33.132812 C 40.207031 33.175781 40.269531 33.21875 40.332031 33.261719 C 40.269531 33.21875 40.207031 33.175781 40.148438 33.132812 Z M 36.164062 35.996094 C 36.148438 35.988281 36.132812 35.980469 36.117188 35.972656 C 36.152344 35.855469 36.183594 35.734375 36.222656 35.617188 C 36.394531 35.113281 36.621094 34.636719 36.90625 34.1875 C 36.953125 34.109375 36.996094 34.03125 37.039062 33.953125 C 37.273438 33.644531 37.507812 33.332031 37.742188 33.019531 C 37.949219 32.789062 38.15625 32.558594 38.363281 32.332031 C 38.511719 32.179688 38.65625 32.03125 38.804688 31.882812 C 38.820312 31.867188 38.839844 31.851562 38.851562 31.835938 C 38.871094 31.820312 38.890625 31.800781 38.90625 31.785156 L 38.902344 31.789062 C 38.921875 31.773438 38.9375 31.757812 38.953125 31.738281 C 38.96875 31.722656 38.984375 31.707031 39.003906 31.691406 C 39.214844 31.492188 39.425781 31.296875 39.640625 31.101562 C 39.871094 30.90625 40.097656 30.710938 40.328125 30.511719 C 40.523438 30.347656 40.722656 30.183594 40.917969 30.023438 C 41.082031 29.890625 41.242188 29.757812 41.40625 29.625 C 41.425781 29.609375 41.441406 29.59375 41.460938 29.578125 C 41.460938 29.578125 41.460938 29.578125 41.460938 29.582031 C 41.488281 29.570312 41.519531 29.558594 41.582031 29.53125 C 41.484375 29.765625 41.398438 29.96875 41.316406 30.167969 C 41.167969 30.460938 41.019531 30.757812 40.871094 31.050781 C 40.863281 31.058594 40.863281 31.074219 40.863281 31.085938 C 40.851562 31.105469 40.839844 31.125 40.824219 31.144531 C 40.691406 31.390625 40.550781 31.632812 40.417969 31.878906 C 40.417969 31.878906 40.417969 31.878906 40.421875 31.882812 C 40.40625 31.898438 40.394531 31.914062 40.378906 31.933594 C 40.175781 32.195312 39.976562 32.453125 39.773438 32.714844 C 39.792969 32.746094 39.8125 32.78125 39.835938 32.8125 C 39.878906 32.875 39.925781 32.933594 39.976562 32.984375 C 39.925781 32.933594 39.878906 32.875 39.835938 32.8125 C 39.8125 32.78125 39.792969 32.746094 39.773438 32.714844 C 39.53125 32.976562 39.289062 33.238281 39.042969 33.5 C 39.046875 33.5 39.046875 33.5 39.046875 33.5 C 39.03125 33.519531 39.011719 33.535156 38.996094 33.550781 L 39 33.546875 C 38.980469 33.566406 38.964844 33.582031 38.945312 33.601562 L 38.949219 33.597656 C 38.933594 33.613281 38.914062 33.632812 38.898438 33.648438 C 38.882812 33.664062 38.867188 33.679688 38.851562 33.695312 C 38.828125 33.710938 38.808594 33.726562 38.785156 33.746094 C 38.628906 33.894531 38.46875 34.039062 38.308594 34.191406 C 38.292969 34.207031 38.277344 34.222656 38.257812 34.238281 C 38.074219 34.402344 37.890625 34.5625 37.703125 34.722656 C 37.191406 35.148438 36.675781 35.574219 36.164062 35.996094 Z M 37.035156 33.847656 C 36.90625 33.644531 36.777344 33.4375 36.644531 33.234375 C 36.777344 33.4375 36.90625 33.644531 37.035156 33.847656 Z M 53.074219 19.355469 C 52.949219 18.96875 52.683594 18.726562 52.292969 18.664062 C 52.054688 18.625 51.804688 18.625 51.566406 18.65625 C 50.914062 18.734375 50.292969 18.941406 49.699219 19.214844 C 49.113281 19.484375 48.546875 19.789062 48.035156 20.1875 C 48.003906 20.207031 47.976562 20.226562 47.945312 20.246094 L 47.941406 20.25 C 47.648438 20.480469 47.351562 20.714844 47.054688 20.945312 C 46.875 21.109375 46.695312 21.273438 46.515625 21.433594 C 46.503906 21.449219 46.488281 21.460938 46.476562 21.472656 L 46.46875 21.480469 C 46.453125 21.496094 46.441406 21.511719 46.425781 21.523438 L 46.417969 21.53125 C 46.40625 21.546875 46.394531 21.558594 46.378906 21.574219 L 46.371094 21.582031 C 46.1875 21.773438 46.007812 21.964844 45.828125 22.15625 C 45.808594 22.171875 45.792969 22.191406 45.777344 22.210938 C 45.761719 22.226562 45.746094 22.242188 45.730469 22.257812 L 45.730469 22.261719 C 45.71875 22.277344 45.703125 22.292969 45.691406 22.308594 L 45.683594 22.316406 C 45.667969 22.332031 45.65625 22.34375 45.640625 22.359375 L 45.632812 22.367188 C 45.621094 22.378906 45.609375 22.390625 45.597656 22.402344 C 45.585938 22.410156 45.582031 22.425781 45.578125 22.4375 C 45.5625 22.460938 45.542969 22.480469 45.53125 22.503906 C 45.527344 22.5 45.527344 22.5 45.527344 22.5 C 45.347656 22.726562 45.167969 22.949219 44.988281 23.175781 C 44.972656 23.195312 44.957031 23.21875 44.941406 23.238281 C 44.925781 23.253906 44.910156 23.273438 44.898438 23.289062 L 44.894531 23.292969 C 44.882812 23.304688 44.867188 23.320312 44.855469 23.335938 C 44.847656 23.351562 44.839844 23.367188 44.832031 23.386719 C 45.015625 23.453125 45.195312 23.519531 45.378906 23.585938 C 45.195312 23.519531 45.015625 23.453125 44.832031 23.386719 C 44.746094 23.492188 44.660156 23.597656 44.574219 23.703125 C 44.523438 23.761719 44.46875 23.8125 44.414062 23.867188 C 44.359375 23.984375 44.304688 24.101562 44.253906 24.222656 C 44.074219 24.515625 43.890625 24.8125 43.710938 25.105469 C 43.550781 25.402344 43.390625 25.695312 43.226562 25.992188 C 43.046875 26.382812 42.867188 26.777344 42.683594 27.167969 C 42.621094 27.28125 42.554688 27.394531 42.492188 27.507812 C 42.441406 27.574219 42.386719 27.640625 42.335938 27.703125 C 42.105469 27.785156 41.878906 27.867188 41.648438 27.949219 C 41.632812 27.953125 41.617188 27.957031 41.601562 27.960938 C 41.582031 27.976562 41.566406 27.988281 41.546875 28.003906 C 41.53125 28.003906 41.519531 28.003906 41.503906 28.007812 C 41.46875 28.023438 41.4375 28.039062 41.402344 28.050781 C 41.257812 28.117188 41.109375 28.183594 40.964844 28.25 C 40.769531 28.347656 40.574219 28.449219 40.378906 28.546875 C 40.136719 28.695312 39.890625 28.84375 39.644531 28.992188 L 39.640625 28.992188 C 39.621094 29.007812 39.605469 29.023438 39.589844 29.035156 C 39.570312 29.050781 39.546875 29.066406 39.523438 29.082031 C 39.511719 29.082031 39.5 29.085938 39.488281 29.09375 C 39.472656 29.105469 39.457031 29.121094 39.441406 29.132812 C 39.421875 29.148438 39.398438 29.164062 39.378906 29.179688 C 39.203125 29.3125 39.03125 29.445312 38.855469 29.578125 C 38.835938 29.59375 38.820312 29.609375 38.800781 29.625 L 38.804688 29.625 C 38.785156 29.640625 38.769531 29.65625 38.75 29.671875 C 38.554688 29.851562 38.359375 30.027344 38.160156 30.207031 C 38.160156 30.207031 38.164062 30.207031 38.164062 30.210938 C 38.148438 30.226562 38.128906 30.246094 38.109375 30.261719 L 38.113281 30.257812 C 38.097656 30.277344 38.078125 30.292969 38.0625 30.308594 L 38.066406 30.304688 C 38.046875 30.324219 38.03125 30.34375 38.011719 30.359375 C 37.992188 30.375 37.976562 30.394531 37.957031 30.40625 C 37.78125 30.605469 37.601562 30.800781 37.421875 30.996094 C 37.242188 31.222656 37.0625 31.453125 36.882812 31.679688 C 36.882812 31.679688 36.886719 31.679688 36.886719 31.683594 C 36.867188 31.703125 36.851562 31.71875 36.835938 31.734375 L 36.839844 31.734375 C 36.824219 31.753906 36.808594 31.769531 36.796875 31.785156 L 36.792969 31.789062 C 36.773438 31.824219 36.753906 31.851562 36.734375 31.882812 L 36.738281 31.878906 C 36.726562 31.898438 36.710938 31.914062 36.695312 31.933594 L 36.695312 31.9375 C 36.671875 31.96875 36.652344 31.996094 36.632812 32.03125 C 36.484375 32.257812 36.339844 32.484375 36.195312 32.710938 C 36.195312 32.714844 36.195312 32.714844 36.195312 32.714844 C 36.183594 32.734375 36.167969 32.75 36.15625 32.769531 L 36.15625 32.773438 C 36.136719 32.800781 36.117188 32.835938 36.097656 32.867188 C 36.085938 32.882812 36.0625 32.898438 36.050781 32.917969 C 35.710938 33.605469 35.363281 34.289062 35.035156 34.984375 C 34.839844 35.398438 34.773438 35.84375 34.828125 36.296875 C 34.882812 36.753906 35.148438 37.324219 35.851562 37.363281 C 36.042969 37.375 36.246094 37.351562 36.429688 37.296875 C 37.394531 36.992188 38.214844 36.429688 39 35.8125 C 39.179688 35.667969 39.363281 35.527344 39.542969 35.382812 C 39.546875 35.347656 39.550781 35.3125 39.550781 35.28125 C 39.550781 35.3125 39.546875 35.347656 39.542969 35.382812 C 39.820312 35.148438 40.097656 34.910156 40.375 34.671875 C 40.671875 34.386719 40.96875 34.097656 41.265625 33.808594 C 41.496094 33.566406 41.722656 33.324219 41.953125 33.082031 C 41.96875 33.058594 41.984375 33.035156 42.003906 33.015625 L 42 33.019531 C 42.015625 33.003906 42.03125 32.984375 42.050781 32.964844 L 42.046875 32.96875 C 42.0625 32.953125 42.082031 32.933594 42.097656 32.917969 C 42.261719 32.726562 42.425781 32.535156 42.589844 32.34375 C 42.605469 32.324219 42.621094 32.300781 42.640625 32.28125 C 42.65625 32.261719 42.667969 32.246094 42.683594 32.226562 L 42.683594 32.230469 C 42.847656 32.019531 43.011719 31.804688 43.175781 31.59375 C 43.191406 31.578125 43.207031 31.558594 43.222656 31.539062 L 43.222656 31.535156 C 43.234375 31.523438 43.25 31.511719 43.261719 31.496094 C 43.269531 31.480469 43.273438 31.46875 43.277344 31.453125 C 43.292969 31.433594 43.308594 31.414062 43.324219 31.394531 C 43.339844 31.375 43.355469 31.355469 43.367188 31.335938 C 43.421875 31.265625 43.46875 31.191406 43.527344 31.121094 C 43.601562 31.03125 43.679688 30.945312 43.761719 30.855469 C 43.792969 30.757812 43.828125 30.65625 43.863281 30.554688 C 43.878906 30.523438 43.898438 30.492188 43.914062 30.460938 C 43.945312 30.410156 43.976562 30.363281 44.011719 30.3125 C 44.027344 30.28125 44.042969 30.246094 44.058594 30.214844 C 44.078125 30.179688 44.09375 30.148438 44.113281 30.117188 C 44.160156 30.019531 44.210938 29.921875 44.261719 29.828125 C 44.261719 29.828125 44.261719 29.828125 44.261719 29.832031 C 44.261719 29.828125 44.261719 29.828125 44.261719 29.828125 C 44.292969 29.761719 44.324219 29.691406 44.355469 29.625 C 44.617188 29.132812 44.78125 28.601562 44.890625 28.054688 C 44.90625 27.972656 44.960938 27.894531 44.992188 27.816406 C 45.195312 27.761719 45.398438 27.703125 45.597656 27.652344 C 45.691406 27.628906 45.785156 27.621094 45.882812 27.609375 C 45.898438 27.578125 45.914062 27.546875 45.929688 27.519531 C 45.945312 27.519531 45.960938 27.515625 45.972656 27.515625 C 46.011719 27.496094 46.042969 27.484375 46.082031 27.46875 C 46.242188 27.402344 46.402344 27.332031 46.5625 27.265625 C 46.894531 27.105469 47.222656 26.941406 47.550781 26.78125 C 47.832031 26.617188 48.109375 26.453125 48.390625 26.289062 C 48.664062 26.09375 48.9375 25.894531 49.210938 25.695312 C 49.230469 25.679688 49.25 25.667969 49.269531 25.65625 C 49.3125 25.617188 49.359375 25.582031 49.40625 25.546875 C 49.554688 25.417969 49.707031 25.285156 49.855469 25.15625 C 49.871094 25.140625 49.890625 25.125 49.90625 25.105469 L 49.90625 25.109375 C 49.921875 25.09375 49.941406 25.074219 49.957031 25.058594 L 49.953125 25.0625 C 49.972656 25.042969 49.988281 25.027344 50.007812 25.011719 L 50.003906 25.015625 C 50.019531 24.996094 50.039062 24.976562 50.054688 24.960938 C 50.167969 24.847656 50.285156 24.734375 50.398438 24.621094 C 50.398438 24.621094 50.398438 24.621094 50.398438 24.617188 C 50.414062 24.601562 50.429688 24.585938 50.449219 24.566406 L 50.445312 24.570312 C 50.460938 24.550781 50.476562 24.535156 50.496094 24.519531 L 50.492188 24.519531 C 50.511719 24.503906 50.527344 24.484375 50.542969 24.46875 C 50.757812 24.222656 50.96875 23.976562 51.179688 23.730469 L 51.179688 23.726562 C 51.195312 23.714844 51.207031 23.695312 51.222656 23.679688 L 51.226562 23.675781 C 51.246094 23.644531 51.265625 23.617188 51.285156 23.585938 L 51.28125 23.589844 C 51.296875 23.574219 51.308594 23.554688 51.324219 23.535156 L 51.328125 23.53125 C 51.339844 23.519531 51.351562 23.503906 51.367188 23.488281 C 51.511719 23.289062 51.664062 23.097656 51.796875 22.894531 C 52.242188 22.210938 52.660156 21.507812 52.972656 20.75 C 53.042969 20.585938 53.089844 20.414062 53.144531 20.246094 C 53.144531 20 53.144531 19.753906 53.144531 19.507812 C 53.121094 19.457031 53.089844 19.40625 53.074219 19.355469 Z M 53.074219 19.355469 "/>
</clipPath>
<clipPath id="clip3">
  <path d="M 50.347656 21.96875 C 50.3125 22.015625 50.277344 22.0625 50.238281 22.109375 L 50.246094 22.105469 C 50.230469 22.121094 50.214844 22.140625 50.199219 22.160156 C 50.199219 22.15625 50.199219 22.15625 50.199219 22.15625 C 49.933594 22.464844 49.667969 22.773438 49.40625 23.078125 C 49.210938 23.28125 49.015625 23.480469 48.824219 23.679688 C 48.691406 23.808594 48.558594 23.933594 48.425781 24.0625 C 48.40625 24.082031 48.386719 24.101562 48.363281 24.121094 C 48.335938 24.144531 48.308594 24.164062 48.28125 24.1875 C 48.265625 24.199219 48.253906 24.210938 48.238281 24.222656 L 48.234375 24.226562 C 48.003906 24.417969 47.773438 24.609375 47.542969 24.800781 C 47.296875 24.96875 47.054688 25.132812 46.808594 25.300781 C 46.78125 25.320312 46.746094 25.335938 46.71875 25.355469 L 46.714844 25.359375 C 46.511719 25.464844 46.3125 25.574219 46.109375 25.675781 C 46.070312 25.699219 46.027344 25.710938 45.953125 25.695312 C 46.085938 25.496094 46.222656 25.300781 46.355469 25.105469 L 46.363281 25.097656 C 46.382812 25.066406 46.402344 25.039062 46.417969 25.007812 L 46.417969 25.011719 C 46.433594 24.992188 46.449219 24.976562 46.464844 24.960938 C 46.597656 24.78125 46.734375 24.605469 46.867188 24.429688 C 46.867188 24.425781 46.863281 24.425781 46.863281 24.421875 C 46.878906 24.40625 46.898438 24.390625 46.914062 24.371094 L 46.910156 24.375 C 46.925781 24.355469 46.945312 24.339844 46.960938 24.324219 C 47.125 24.125 47.285156 23.929688 47.449219 23.730469 C 47.464844 23.714844 47.480469 23.699219 47.496094 23.683594 C 47.511719 23.664062 47.53125 23.648438 47.542969 23.632812 C 47.777344 23.386719 48.007812 23.144531 48.238281 22.898438 C 48.417969 22.734375 48.597656 22.570312 48.777344 22.40625 C 49.097656 22.144531 49.421875 21.878906 49.746094 21.617188 C 50.339844 21.160156 50.933594 20.707031 51.527344 20.25 C 51.539062 20.28125 51.554688 20.308594 51.566406 20.339844 C 51.160156 20.882812 50.753906 21.425781 50.347656 21.96875 Z M 48.214844 25.917969 C 48.226562 25.941406 48.238281 25.964844 48.246094 25.988281 C 48.238281 25.964844 48.226562 25.941406 48.214844 25.917969 Z M 44.453125 28.203125 C 44.460938 28.214844 44.464844 28.226562 44.46875 28.238281 C 44.464844 28.226562 44.457031 28.214844 44.453125 28.203125 Z M 41.894531 32.851562 C 41.84375 32.835938 41.796875 32.816406 41.75 32.796875 C 41.796875 32.816406 41.84375 32.835938 41.894531 32.851562 C 41.933594 32.867188 41.980469 32.882812 42.027344 32.894531 C 41.980469 32.882812 41.933594 32.867188 41.894531 32.851562 Z M 40.148438 33.132812 C 40.207031 33.175781 40.269531 33.21875 40.332031 33.261719 C 40.269531 33.21875 40.207031 33.175781 40.148438 33.132812 Z M 36.164062 35.996094 C 36.148438 35.988281 36.132812 35.980469 36.117188 35.972656 C 36.152344 35.855469 36.183594 35.734375 36.222656 35.617188 C 36.394531 35.113281 36.621094 34.636719 36.90625 34.1875 C 36.953125 34.109375 36.996094 34.03125 37.039062 33.953125 C 37.273438 33.644531 37.507812 33.332031 37.742188 33.019531 C 37.949219 32.789062 38.15625 32.558594 38.363281 32.332031 C 38.511719 32.179688 38.65625 32.03125 38.804688 31.882812 C 38.820312 31.867188 38.839844 31.851562 38.851562 31.835938 C 38.871094 31.820312 38.890625 31.800781 38.90625 31.785156 L 38.902344 31.789062 C 38.921875 31.773438 38.9375 31.757812 38.953125 31.738281 C 38.96875 31.722656 38.984375 31.707031 39.003906 31.691406 C 39.214844 31.492188 39.425781 31.296875 39.640625 31.101562 C 39.871094 30.90625 40.097656 30.710938 40.328125 30.511719 C 40.523438 30.347656 40.722656 30.183594 40.917969 30.023438 C 41.082031 29.890625 41.242188 29.757812 41.40625 29.625 C 41.425781 29.609375 41.441406 29.59375 41.460938 29.578125 C 41.460938 29.578125 41.460938 29.578125 41.460938 29.582031 C 41.488281 29.570312 41.519531 29.558594 41.582031 29.53125 C 41.484375 29.765625 41.398438 29.96875 41.316406 30.167969 C 41.167969 30.460938 41.019531 30.757812 40.871094 31.050781 C 40.863281 31.058594 40.863281 31.074219 40.863281 31.085938 C 40.851562 31.105469 40.839844 31.125 40.824219 31.144531 C 40.691406 31.390625 40.550781 31.632812 40.417969 31.878906 C 40.417969 31.878906 40.417969 31.878906 40.421875 31.882812 C 40.40625 31.898438 40.394531 31.914062 40.378906 31.933594 C 40.175781 32.195312 39.976562 32.453125 39.773438 32.714844 C 39.792969 32.746094 39.8125 32.78125 39.835938 32.8125 C 39.878906 32.875 39.925781 32.933594 39.976562 32.984375 C 39.925781 32.933594 39.878906 32.875 39.835938 32.8125 C 39.8125 32.78125 39.792969 32.746094 39.773438 32.714844 C 39.53125 32.976562 39.289062 33.238281 39.042969 33.5 C 39.046875 33.5 39.046875 33.5 39.046875 33.5 C 39.03125 33.519531 39.011719 33.535156 38.996094 33.550781 L 39 33.546875 C 38.980469 33.566406 38.964844 33.582031 38.945312 33.601562 L 38.949219 33.597656 C 38.933594 33.613281 38.914062 33.632812 38.898438 33.648438 C 38.882812 33.664062 38.867188 33.679688 38.851562 33.695312 C 38.828125 33.710938 38.808594 33.726562 38.785156 33.746094 C 38.628906 33.894531 38.46875 34.039062 38.308594 34.191406 C 38.292969 34.207031 38.277344 34.222656 38.257812 34.238281 C 38.074219 34.402344 37.890625 34.5625 37.703125 34.722656 C 37.191406 35.148438 36.675781 35.574219 36.164062 35.996094 Z M 37.035156 33.847656 C 36.90625 33.644531 36.777344 33.4375 36.644531 33.234375 C 36.777344 33.4375 36.90625 33.644531 37.035156 33.847656 Z M 53.074219 19.355469 C 52.949219 18.96875 52.683594 18.726562 52.292969 18.664062 C 52.054688 18.625 51.804688 18.625 51.566406 18.65625 C 50.914062 18.734375 50.292969 18.941406 49.699219 19.214844 C 49.113281 19.484375 48.546875 19.789062 48.035156 20.1875 C 48.003906 20.207031 47.976562 20.226562 47.945312 20.246094 L 47.941406 20.25 C 47.648438 20.480469 47.351562 20.714844 47.054688 20.945312 C 46.875 21.109375 46.695312 21.273438 46.515625 21.433594 C 46.503906 21.449219 46.488281 21.460938 46.476562 21.472656 L 46.46875 21.480469 C 46.453125 21.496094 46.441406 21.511719 46.425781 21.523438 L 46.417969 21.53125 C 46.40625 21.546875 46.394531 21.558594 46.378906 21.574219 L 46.371094 21.582031 C 46.1875 21.773438 46.007812 21.964844 45.828125 22.15625 C 45.808594 22.171875 45.792969 22.191406 45.777344 22.210938 C 45.761719 22.226562 45.746094 22.242188 45.730469 22.257812 L 45.730469 22.261719 C 45.71875 22.277344 45.703125 22.292969 45.691406 22.308594 L 45.683594 22.316406 C 45.667969 22.332031 45.65625 22.34375 45.640625 22.359375 L 45.632812 22.367188 C 45.621094 22.378906 45.609375 22.390625 45.597656 22.402344 C 45.585938 22.410156 45.582031 22.425781 45.578125 22.4375 C 45.5625 22.460938 45.542969 22.480469 45.53125 22.503906 C 45.527344 22.5 45.527344 22.5 45.527344 22.5 C 45.347656 22.726562 45.167969 22.949219 44.988281 23.175781 C 44.972656 23.195312 44.957031 23.21875 44.941406 23.238281 C 44.925781 23.253906 44.910156 23.273438 44.898438 23.289062 L 44.894531 23.292969 C 44.882812 23.304688 44.867188 23.320312 44.855469 23.335938 C 44.847656 23.351562 44.839844 23.367188 44.832031 23.386719 C 45.015625 23.453125 45.195312 23.519531 45.378906 23.585938 C 45.195312 23.519531 45.015625 23.453125 44.832031 23.386719 C 44.746094 23.492188 44.660156 23.597656 44.574219 23.703125 C 44.523438 23.761719 44.46875 23.8125 44.414062 23.867188 C 44.359375 23.984375 44.304688 24.101562 44.253906 24.222656 C 44.074219 24.515625 43.890625 24.8125 43.710938 25.105469 C 43.550781 25.402344 43.390625 25.695312 43.226562 25.992188 C 43.046875 26.382812 42.867188 26.777344 42.683594 27.167969 C 42.621094 27.28125 42.554688 27.394531 42.492188 27.507812 C 42.441406 27.574219 42.386719 27.640625 42.335938 27.703125 C 42.105469 27.785156 41.878906 27.867188 41.648438 27.949219 C 41.632812 27.953125 41.617188 27.957031 41.601562 27.960938 C 41.582031 27.976562 41.566406 27.988281 41.546875 28.003906 C 41.53125 28.003906 41.519531 28.003906 41.503906 28.007812 C 41.46875 28.023438 41.4375 28.039062 41.402344 28.050781 C 41.257812 28.117188 41.109375 28.183594 40.964844 28.25 C 40.769531 28.347656 40.574219 28.449219 40.378906 28.546875 C 40.136719 28.695312 39.890625 28.84375 39.644531 28.992188 L 39.640625 28.992188 C 39.621094 29.007812 39.605469 29.023438 39.589844 29.035156 C 39.570312 29.050781 39.546875 29.066406 39.523438 29.082031 C 39.511719 29.082031 39.5 29.085938 39.488281 29.09375 C 39.472656 29.105469 39.457031 29.121094 39.441406 29.132812 C 39.421875 29.148438 39.398438 29.164062 39.378906 29.179688 C 39.203125 29.3125 39.03125 29.445312 38.855469 29.578125 C 38.835938 29.59375 38.820312 29.609375 38.800781 29.625 L 38.804688 29.625 C 38.785156 29.640625 38.769531 29.65625 38.75 29.671875 C 38.554688 29.851562 38.359375 30.027344 38.160156 30.207031 C 38.160156 30.207031 38.164062 30.207031 38.164062 30.210938 C 38.148438 30.226562 38.128906 30.246094 38.109375 30.261719 L 38.113281 30.257812 C 38.097656 30.277344 38.078125 30.292969 38.0625 30.308594 L 38.066406 30.304688 C 38.046875 30.324219 38.03125 30.34375 38.011719 30.359375 C 37.992188 30.375 37.976562 30.394531 37.957031 30.40625 C 37.78125 30.605469 37.601562 30.800781 37.421875 30.996094 C 37.242188 31.222656 37.0625 31.453125 36.882812 31.679688 C 36.882812 31.679688 36.886719 31.679688 36.886719 31.683594 C 36.867188 31.703125 36.851562 31.71875 36.835938 31.734375 L 36.839844 31.734375 C 36.824219 31.753906 36.808594 31.769531 36.796875 31.785156 L 36.792969 31.789062 C 36.773438 31.824219 36.753906 31.851562 36.734375 31.882812 L 36.738281 31.878906 C 36.726562 31.898438 36.710938 31.914062 36.695312 31.933594 L 36.695312 31.9375 C 36.671875 31.96875 36.652344 31.996094 36.632812 32.03125 C 36.484375 32.257812 36.339844 32.484375 36.195312 32.710938 C 36.195312 32.714844 36.195312 32.714844 36.195312 32.714844 C 36.183594 32.734375 36.167969 32.75 36.15625 32.769531 L 36.15625 32.773438 C 36.136719 32.800781 36.117188 32.835938 36.097656 32.867188 C 36.085938 32.882812 36.0625 32.898438 36.050781 32.917969 C 35.710938 33.605469 35.363281 34.289062 35.035156 34.984375 C 34.839844 35.398438 34.773438 35.84375 34.828125 36.296875 C 34.882812 36.753906 35.148438 37.324219 35.851562 37.363281 C 36.042969 37.375 36.246094 37.351562 36.429688 37.296875 C 37.394531 36.992188 38.214844 36.429688 39 35.8125 C 39.179688 35.667969 39.363281 35.527344 39.542969 35.382812 C 39.546875 35.347656 39.550781 35.3125 39.550781 35.28125 C 39.550781 35.3125 39.546875 35.347656 39.542969 35.382812 C 39.820312 35.148438 40.097656 34.910156 40.375 34.671875 C 40.671875 34.386719 40.96875 34.097656 41.265625 33.808594 C 41.496094 33.566406 41.722656 33.324219 41.953125 33.082031 C 41.96875 33.058594 41.984375 33.035156 42.003906 33.015625 L 42 33.019531 C 42.015625 33.003906 42.03125 32.984375 42.050781 32.964844 L 42.046875 32.96875 C 42.0625 32.953125 42.082031 32.933594 42.097656 32.917969 C 42.261719 32.726562 42.425781 32.535156 42.589844 32.34375 C 42.605469 32.324219 42.621094 32.300781 42.640625 32.28125 C 42.65625 32.261719 42.667969 32.246094 42.683594 32.226562 L 42.683594 32.230469 C 42.847656 32.019531 43.011719 31.804688 43.175781 31.59375 C 43.191406 31.578125 43.207031 31.558594 43.222656 31.539062 L 43.222656 31.535156 C 43.234375 31.523438 43.25 31.511719 43.261719 31.496094 C 43.269531 31.480469 43.273438 31.46875 43.277344 31.453125 C 43.292969 31.433594 43.308594 31.414062 43.324219 31.394531 C 43.339844 31.375 43.355469 31.355469 43.367188 31.335938 C 43.421875 31.265625 43.46875 31.191406 43.527344 31.121094 C 43.601562 31.03125 43.679688 30.945312 43.761719 30.855469 C 43.792969 30.757812 43.828125 30.65625 43.863281 30.554688 C 43.878906 30.523438 43.898438 30.492188 43.914062 30.460938 C 43.945312 30.410156 43.976562 30.363281 44.011719 30.3125 C 44.027344 30.28125 44.042969 30.246094 44.058594 30.214844 C 44.078125 30.179688 44.09375 30.148438 44.113281 30.117188 C 44.160156 30.019531 44.210938 29.921875 44.261719 29.828125 C 44.261719 29.828125 44.261719 29.828125 44.261719 29.832031 C 44.261719 29.828125 44.261719 29.828125 44.261719 29.828125 C 44.292969 29.761719 44.324219 29.691406 44.355469 29.625 C 44.617188 29.132812 44.78125 28.601562 44.890625 28.054688 C 44.90625 27.972656 44.960938 27.894531 44.992188 27.816406 C 45.195312 27.761719 45.398438 27.703125 45.597656 27.652344 C 45.691406 27.628906 45.785156 27.621094 45.882812 27.609375 C 45.898438 27.578125 45.914062 27.546875 45.929688 27.519531 C 45.945312 27.519531 45.960938 27.515625 45.972656 27.515625 C 46.011719 27.496094 46.042969 27.484375 46.082031 27.46875 C 46.242188 27.402344 46.402344 27.332031 46.5625 27.265625 C 46.894531 27.105469 47.222656 26.941406 47.550781 26.78125 C 47.832031 26.617188 48.109375 26.453125 48.390625 26.289062 C 48.664062 26.09375 48.9375 25.894531 49.210938 25.695312 C 49.230469 25.679688 49.25 25.667969 49.269531 25.65625 C 49.3125 25.617188 49.359375 25.582031 49.40625 25.546875 C 49.554688 25.417969 49.707031 25.285156 49.855469 25.15625 C 49.871094 25.140625 49.890625 25.125 49.90625 25.105469 L 49.90625 25.109375 C 49.921875 25.09375 49.941406 25.074219 49.957031 25.058594 L 49.953125 25.0625 C 49.972656 25.042969 49.988281 25.027344 50.007812 25.011719 L 50.003906 25.015625 C 50.019531 24.996094 50.039062 24.976562 50.054688 24.960938 C 50.167969 24.847656 50.285156 24.734375 50.398438 24.621094 C 50.398438 24.621094 50.398438 24.621094 50.398438 24.617188 C 50.414062 24.601562 50.429688 24.585938 50.449219 24.566406 L 50.445312 24.570312 C 50.460938 24.550781 50.476562 24.535156 50.496094 24.519531 L 50.492188 24.519531 C 50.511719 24.503906 50.527344 24.484375 50.542969 24.46875 C 50.757812 24.222656 50.96875 23.976562 51.179688 23.730469 L 51.179688 23.726562 C 51.195312 23.714844 51.207031 23.695312 51.222656 23.679688 L 51.226562 23.675781 C 51.246094 23.644531 51.265625 23.617188 51.285156 23.585938 L 51.28125 23.589844 C 51.296875 23.574219 51.308594 23.554688 51.324219 23.535156 L 51.328125 23.53125 C 51.339844 23.519531 51.351562 23.503906 51.367188 23.488281 C 51.511719 23.289062 51.664062 23.097656 51.796875 22.894531 C 52.242188 22.210938 52.660156 21.507812 52.972656 20.75 C 53.042969 20.585938 53.089844 20.414062 53.144531 20.246094 C 53.144531 20 53.144531 19.753906 53.144531 19.507812 C 53.121094 19.457031 53.089844 19.40625 53.074219 19.355469 "/>
</clipPath>
<radialGradient id="radial0" gradientUnits="userSpaceOnUse" cx="0" cy="0" fx="0" fy="0" r="9.26723" gradientTransform="matrix(1,0,0,1,43.9778,28)">
<stop offset="0" style="stop-color:rgb(96.487427%,79.367065%,8.744812%);stop-opacity:1;"/>
<stop offset="0.25" style="stop-color:rgb(96.487427%,79.367065%,8.744812%);stop-opacity:1;"/>
<stop offset="0.253906" style="stop-color:rgb(96.458435%,79.325867%,8.731079%);stop-opacity:1;"/>
<stop offset="0.257812" style="stop-color:rgb(96.295166%,79.089355%,8.653259%);stop-opacity:1;"/>
<stop offset="0.261719" style="stop-color:rgb(96.025085%,78.69873%,8.529663%);stop-opacity:1;"/>
<stop offset="0.265625" style="stop-color:rgb(95.741272%,78.285217%,8.390808%);stop-opacity:1;"/>
<stop offset="0.269531" style="stop-color:rgb(95.388794%,77.749634%,8.16803%);stop-opacity:1;"/>
<stop offset="0.273438" style="stop-color:rgb(94.981384%,77.113342%,7.88269%);stop-opacity:1;"/>
<stop offset="0.277344" style="stop-color:rgb(94.589233%,76.502991%,7.635498%);stop-opacity:1;"/>
<stop offset="0.28125" style="stop-color:rgb(94.265747%,76.022339%,7.582092%);stop-opacity:1;"/>
<stop offset="0.285156" style="stop-color:rgb(93.998718%,75.643921%,7.688904%);stop-opacity:1;"/>
<stop offset="0.289062" style="stop-color:rgb(93.731689%,75.259399%,7.780457%);stop-opacity:1;"/>
<stop offset="0.292969" style="stop-color:rgb(93.463135%,74.819946%,7.766724%);stop-opacity:1;"/>
<stop offset="0.296875" style="stop-color:rgb(93.191528%,74.334717%,7.667542%);stop-opacity:1;"/>
<stop offset="0.300781" style="stop-color:rgb(92.921448%,73.852539%,7.569885%);stop-opacity:1;"/>
<stop offset="0.304688" style="stop-color:rgb(92.649841%,73.368835%,7.472229%);stop-opacity:1;"/>
<stop offset="0.308594" style="stop-color:rgb(92.381287%,72.889709%,7.377625%);stop-opacity:1;"/>
<stop offset="0.3125" style="stop-color:rgb(92.114258%,72.416687%,7.302856%);stop-opacity:1;"/>
<stop offset="0.316406" style="stop-color:rgb(91.850281%,72.000122%,7.380676%);stop-opacity:1;"/>
<stop offset="0.320312" style="stop-color:rgb(91.58783%,71.633911%,7.597351%);stop-opacity:1;"/>
<stop offset="0.324219" style="stop-color:rgb(91.326904%,71.261597%,7.798767%);stop-opacity:1;"/>
<stop offset="0.328125" style="stop-color:rgb(91.064453%,70.837402%,7.902527%);stop-opacity:1;"/>
<stop offset="0.332031" style="stop-color:rgb(90.800476%,70.365906%,7.91626%);stop-opacity:1;"/>
<stop offset="0.335938" style="stop-color:rgb(90.534973%,69.894409%,7.93457%);stop-opacity:1;"/>
<stop offset="0.339844" style="stop-color:rgb(90.270996%,69.425964%,8.004761%);stop-opacity:1;"/>
<stop offset="0.34375" style="stop-color:rgb(90.008545%,68.95752%,8.123779%);stop-opacity:1;"/>
<stop offset="0.347656" style="stop-color:rgb(89.74762%,68.495178%,8.247375%);stop-opacity:1;"/>
<stop offset="0.351562" style="stop-color:rgb(89.48822%,68.084717%,8.467102%);stop-opacity:1;"/>
<stop offset="0.355469" style="stop-color:rgb(89.231873%,67.726135%,8.77533%);stop-opacity:1;"/>
<stop offset="0.359375" style="stop-color:rgb(88.977051%,67.366028%,9.074402%);stop-opacity:1;"/>
<stop offset="0.363281" style="stop-color:rgb(88.720703%,66.952515%,9.173584%);stop-opacity:1;"/>
<stop offset="0.367188" style="stop-color:rgb(88.461304%,66.490173%,9.083557%);stop-opacity:1;"/>
<stop offset="0.371094" style="stop-color:rgb(88.206482%,66.030884%,8.995056%);stop-opacity:1;"/>
<stop offset="0.375" style="stop-color:rgb(88.012695%,65.635681%,8.987427%);stop-opacity:1;"/>
<stop offset="0.378906" style="stop-color:rgb(87.878418%,65.301514%,9.057617%);stop-opacity:1;"/>
<stop offset="0.382812" style="stop-color:rgb(87.745667%,64.970398%,9.127808%);stop-opacity:1;"/>
<stop offset="0.386719" style="stop-color:rgb(87.550354%,64.575195%,9.269714%);stop-opacity:1;"/>
<stop offset="0.390625" style="stop-color:rgb(87.295532%,64.117432%,9.481812%);stop-opacity:1;"/>
<stop offset="0.394531" style="stop-color:rgb(87.04071%,63.66272%,9.690857%);stop-opacity:1;"/>
<stop offset="0.398438" style="stop-color:rgb(86.787415%,63.208008%,9.851074%);stop-opacity:1;"/>
<stop offset="0.402344" style="stop-color:rgb(86.534119%,62.754822%,9.960938%);stop-opacity:1;"/>
<stop offset="0.40625" style="stop-color:rgb(86.282349%,62.301636%,10.069275%);stop-opacity:1;"/>
<stop offset="0.410156" style="stop-color:rgb(86.04126%,61.827087%,10.064697%);stop-opacity:1;"/>
<stop offset="0.414062" style="stop-color:rgb(85.809326%,61.328125%,9.941101%);stop-opacity:1;"/>
<stop offset="0.417969" style="stop-color:rgb(85.578918%,60.829163%,9.815979%);stop-opacity:1;"/>
<stop offset="0.421875" style="stop-color:rgb(85.395813%,60.412598%,9.78241%);stop-opacity:1;"/>
<stop offset="0.425781" style="stop-color:rgb(85.264587%,60.083008%,9.844971%);stop-opacity:1;"/>
<stop offset="0.429688" style="stop-color:rgb(85.136414%,59.757996%,9.910583%);stop-opacity:1;"/>
<stop offset="0.433594" style="stop-color:rgb(84.898376%,59.32312%,10.058594%);stop-opacity:1;"/>
<stop offset="0.4375" style="stop-color:rgb(84.541321%,58.766174%,10.293579%);stop-opacity:1;"/>
<stop offset="0.441406" style="stop-color:rgb(84.178162%,58.204651%,10.533142%);stop-opacity:1;"/>
<stop offset="0.445312" style="stop-color:rgb(83.827209%,57.713318%,10.739136%);stop-opacity:1;"/>
<stop offset="0.449219" style="stop-color:rgb(83.48999%,57.299805%,10.913086%);stop-opacity:1;"/>
<stop offset="0.453125" style="stop-color:rgb(83.155823%,56.893921%,11.080933%);stop-opacity:1;"/>
<stop offset="0.457031" style="stop-color:rgb(82.914734%,56.52771%,11.160278%);stop-opacity:1;"/>
<stop offset="0.460938" style="stop-color:rgb(82.778931%,56.207275%,11.141968%);stop-opacity:1;"/>
<stop offset="0.464844" style="stop-color:rgb(82.65686%,55.889893%,11.112976%);stop-opacity:1;"/>
<stop offset="0.46875" style="stop-color:rgb(82.492065%,55.500793%,11.201477%);stop-opacity:1;"/>
<stop offset="0.472656" style="stop-color:rgb(82.276917%,55.026245%,11.421204%);stop-opacity:1;"/>
<stop offset="0.476562" style="stop-color:rgb(82.055664%,54.541016%,11.657715%);stop-opacity:1;"/>
<stop offset="0.480469" style="stop-color:rgb(81.832886%,54.013062%,11.897278%);stop-opacity:1;"/>
<stop offset="0.484375" style="stop-color:rgb(81.610107%,53.437805%,12.138367%);stop-opacity:1;"/>
<stop offset="0.488281" style="stop-color:rgb(81.388855%,52.854919%,12.376404%);stop-opacity:1;"/>
<stop offset="0.492188" style="stop-color:rgb(81.207275%,52.34375%,12.54425%);stop-opacity:1;"/>
<stop offset="0.496094" style="stop-color:rgb(81.07605%,51.916504%,12.625122%);stop-opacity:1;"/>
<stop offset="0.5" style="stop-color:rgb(80.952454%,51.506042%,12.690735%);stop-opacity:1;"/>
<stop offset="0.503906" style="stop-color:rgb(80.747986%,51.063538%,12.760925%);stop-opacity:1;"/>
<stop offset="0.507812" style="stop-color:rgb(80.444336%,50.588989%,12.832642%);stop-opacity:1;"/>
<stop offset="0.511719" style="stop-color:rgb(80.117798%,50.106812%,12.905884%);stop-opacity:1;"/>
<stop offset="0.515625" style="stop-color:rgb(79.841614%,49.673462%,12.930298%);stop-opacity:1;"/>
<stop offset="0.519531" style="stop-color:rgb(79.620361%,49.29657%,12.895203%);stop-opacity:1;"/>
<stop offset="0.523438" style="stop-color:rgb(79.412842%,48.933411%,12.849426%);stop-opacity:1;"/>
<stop offset="0.527344" style="stop-color:rgb(79.168701%,48.509216%,12.864685%);stop-opacity:1;"/>
<stop offset="0.53125" style="stop-color:rgb(78.875732%,48.005676%,12.95929%);stop-opacity:1;"/>
<stop offset="0.535156" style="stop-color:rgb(78.575134%,47.483826%,13.070679%);stop-opacity:1;"/>
<stop offset="0.539062" style="stop-color:rgb(78.308105%,46.986389%,13.217163%);stop-opacity:1;"/>
<stop offset="0.542969" style="stop-color:rgb(78.086853%,46.516418%,13.41095%);stop-opacity:1;"/>
<stop offset="0.546875" style="stop-color:rgb(77.879333%,46.054077%,13.613892%);stop-opacity:1;"/>
<stop offset="0.550781" style="stop-color:rgb(77.671814%,45.591736%,13.844299%);stop-opacity:1;"/>
<stop offset="0.554688" style="stop-color:rgb(77.464294%,45.129395%,14.111328%);stop-opacity:1;"/>
<stop offset="0.558594" style="stop-color:rgb(77.258301%,44.665527%,14.387512%);stop-opacity:1;"/>
<stop offset="0.5625" style="stop-color:rgb(77.018738%,44.184875%,14.651489%);stop-opacity:1;"/>
<stop offset="0.566406" style="stop-color:rgb(76.73645%,43.67981%,14.901733%);stop-opacity:1;"/>
<stop offset="0.570312" style="stop-color:rgb(76.44043%,43.167114%,15.1474%);stop-opacity:1;"/>
<stop offset="0.574219" style="stop-color:rgb(76.145935%,42.658997%,15.361023%);stop-opacity:1;"/>
<stop offset="0.578125" style="stop-color:rgb(75.854492%,42.153931%,15.533447%);stop-opacity:1;"/>
<stop offset="0.582031" style="stop-color:rgb(75.561523%,41.651917%,15.689087%);stop-opacity:1;"/>
<stop offset="0.585938" style="stop-color:rgb(75.300598%,41.168213%,15.85083%);stop-opacity:1;"/>
<stop offset="0.589844" style="stop-color:rgb(75.086975%,40.713501%,16.021729%);stop-opacity:1;"/>
<stop offset="0.59375" style="stop-color:rgb(74.887085%,40.267944%,16.192627%);stop-opacity:1;"/>
<stop offset="0.597656" style="stop-color:rgb(74.624634%,39.807129%,16.33606%);stop-opacity:1;"/>
<stop offset="0.601562" style="stop-color:rgb(74.267578%,39.320374%,16.439819%);stop-opacity:1;"/>
<stop offset="0.605469" style="stop-color:rgb(73.881531%,38.830566%,16.52832%);stop-opacity:1;"/>
<stop offset="0.609375" style="stop-color:rgb(73.527527%,38.374329%,16.584778%);stop-opacity:1;"/>
<stop offset="0.613281" style="stop-color:rgb(73.226929%,37.973022%,16.590881%);stop-opacity:1;"/>
<stop offset="0.617188" style="stop-color:rgb(72.947693%,37.593079%,16.5802%);stop-opacity:1;"/>
<stop offset="0.621094" style="stop-color:rgb(72.724915%,37.197876%,16.615295%);stop-opacity:1;"/>
<stop offset="0.625" style="stop-color:rgb(72.595215%,36.779785%,16.725159%);stop-opacity:1;"/>
<stop offset="0.628906" style="stop-color:rgb(72.50061%,36.351013%,16.860962%);stop-opacity:1;"/>
<stop offset="0.632812" style="stop-color:rgb(72.351074%,35.905457%,17.034912%);stop-opacity:1;"/>
<stop offset="0.636719" style="stop-color:rgb(72.106934%,35.432434%,17.272949%);stop-opacity:1;"/>
<stop offset="0.640625" style="stop-color:rgb(71.827698%,34.947205%,17.532349%);stop-opacity:1;"/>
<stop offset="0.644531" style="stop-color:rgb(71.574402%,34.466553%,17.781067%);stop-opacity:1;"/>
<stop offset="0.648438" style="stop-color:rgb(71.37146%,33.987427%,18.019104%);stop-opacity:1;"/>
<stop offset="0.652344" style="stop-color:rgb(71.18988%,33.511353%,18.247986%);stop-opacity:1;"/>
<stop offset="0.65625" style="stop-color:rgb(70.982361%,33.036804%,18.460083%);stop-opacity:1;"/>
<stop offset="0.660156" style="stop-color:rgb(70.726013%,32.565308%,18.641663%);stop-opacity:1;"/>
<stop offset="0.664062" style="stop-color:rgb(70.451355%,32.096863%,18.809509%);stop-opacity:1;"/>
<stop offset="0.667969" style="stop-color:rgb(70.175171%,31.65741%,18.955994%);stop-opacity:1;"/>
<stop offset="0.671875" style="stop-color:rgb(69.902039%,31.266785%,19.065857%);stop-opacity:1;"/>
<stop offset="0.675781" style="stop-color:rgb(69.628906%,30.900574%,19.158936%);stop-opacity:1;"/>
<stop offset="0.679688" style="stop-color:rgb(69.3573%,30.514526%,19.233704%);stop-opacity:1;"/>
<stop offset="0.683594" style="stop-color:rgb(69.087219%,30.08728%,19.276428%);stop-opacity:1;"/>
<stop offset="0.6875" style="stop-color:rgb(68.817139%,29.641724%,19.300842%);stop-opacity:1;"/>
<stop offset="0.691406" style="stop-color:rgb(68.547058%,29.193115%,19.386292%);stop-opacity:1;"/>
<stop offset="0.695312" style="stop-color:rgb(68.276978%,28.733826%,19.592285%);stop-opacity:1;"/>
<stop offset="0.699219" style="stop-color:rgb(68.005371%,28.271484%,19.854736%);stop-opacity:1;"/>
<stop offset="0.703125" style="stop-color:rgb(67.736816%,27.815247%,20.069885%);stop-opacity:1;"/>
<stop offset="0.707031" style="stop-color:rgb(67.468262%,27.36969%,20.187378%);stop-opacity:1;"/>
<stop offset="0.710938" style="stop-color:rgb(67.202759%,26.930237%,20.257568%);stop-opacity:1;"/>
<stop offset="0.714844" style="stop-color:rgb(66.938782%,26.513672%,20.33844%);stop-opacity:1;"/>
<stop offset="0.71875" style="stop-color:rgb(66.673279%,26.138306%,20.448303%);stop-opacity:1;"/>
<stop offset="0.722656" style="stop-color:rgb(66.409302%,25.787354%,20.570374%);stop-opacity:1;"/>
<stop offset="0.726562" style="stop-color:rgb(66.146851%,25.437927%,20.689392%);stop-opacity:1;"/>
<stop offset="0.730469" style="stop-color:rgb(65.882874%,25.088501%,20.806885%);stop-opacity:1;"/>
<stop offset="0.734375" style="stop-color:rgb(65.621948%,24.742126%,20.921326%);stop-opacity:1;"/>
<stop offset="0.738281" style="stop-color:rgb(65.379333%,24.377441%,21.040344%);stop-opacity:1;"/>
<stop offset="0.742188" style="stop-color:rgb(65.179443%,23.963928%,21.179199%);stop-opacity:1;"/>
<stop offset="0.746094" style="stop-color:rgb(65.007019%,23.524475%,21.325684%);stop-opacity:1;"/>
<stop offset="0.75" style="stop-color:rgb(64.7995%,23.0896%,21.472168%);stop-opacity:1;"/>
<stop offset="0.753906" style="stop-color:rgb(64.505005%,22.659302%,21.626282%);stop-opacity:1;"/>
<stop offset="0.757812" style="stop-color:rgb(64.157104%,22.233582%,21.781921%);stop-opacity:1;"/>
<stop offset="0.761719" style="stop-color:rgb(63.829041%,21.812439%,21.911621%);stop-opacity:1;"/>
<stop offset="0.765625" style="stop-color:rgb(63.548279%,21.398926%,21.980286%);stop-opacity:1;"/>
<stop offset="0.769531" style="stop-color:rgb(63.293457%,20.988464%,22.007751%);stop-opacity:1;"/>
<stop offset="0.773438" style="stop-color:rgb(63.023376%,20.594788%,22.05658%);stop-opacity:1;"/>
<stop offset="0.777344" style="stop-color:rgb(62.710571%,20.240784%,22.163391%);stop-opacity:1;"/>
<stop offset="0.78125" style="stop-color:rgb(62.371826%,19.914246%,22.302246%);stop-opacity:1;"/>
<stop offset="0.785156" style="stop-color:rgb(62.049866%,19.573975%,22.436523%);stop-opacity:1;"/>
<stop offset="0.789062" style="stop-color:rgb(61.769104%,19.189453%,22.558594%);stop-opacity:1;"/>
<stop offset="0.792969" style="stop-color:rgb(61.51886%,18.77594%,22.671509%);stop-opacity:1;"/>
<stop offset="0.796875" style="stop-color:rgb(61.26709%,18.380737%,22.781372%);stop-opacity:1;"/>
<stop offset="0.800781" style="stop-color:rgb(61.018372%,18.028259%,22.891235%);stop-opacity:1;"/>
<stop offset="0.804688" style="stop-color:rgb(60.768127%,17.704773%,23.001099%);stop-opacity:1;"/>
<stop offset="0.808594" style="stop-color:rgb(60.519409%,17.370605%,23.106384%);stop-opacity:1;"/>
<stop offset="0.8125" style="stop-color:rgb(60.272217%,16.996765%,23.204041%);stop-opacity:1;"/>
<stop offset="0.816406" style="stop-color:rgb(60.02655%,16.595459%,23.295593%);stop-opacity:1;"/>
<stop offset="0.820312" style="stop-color:rgb(59.779358%,16.209412%,23.384094%);stop-opacity:1;"/>
<stop offset="0.824219" style="stop-color:rgb(59.533691%,15.866089%,23.474121%);stop-opacity:1;"/>
<stop offset="0.828125" style="stop-color:rgb(59.288025%,15.551758%,23.564148%);stop-opacity:1;"/>
<stop offset="0.832031" style="stop-color:rgb(59.042358%,15.245056%,23.657227%);stop-opacity:1;"/>
<stop offset="0.835938" style="stop-color:rgb(58.799744%,14.953613%,23.770142%);stop-opacity:1;"/>
<stop offset="0.839844" style="stop-color:rgb(58.557129%,14.677429%,23.89679%);stop-opacity:1;"/>
<stop offset="0.84375" style="stop-color:rgb(58.314514%,14.396667%,24.015808%);stop-opacity:1;"/>
<stop offset="0.847656" style="stop-color:rgb(58.073425%,14.102173%,24.108887%);stop-opacity:1;"/>
<stop offset="0.851562" style="stop-color:rgb(57.830811%,13.796997%,24.180603%);stop-opacity:1;"/>
<stop offset="0.855469" style="stop-color:rgb(57.580566%,13.504028%,24.252319%);stop-opacity:1;"/>
<stop offset="0.859375" style="stop-color:rgb(57.292175%,13.256836%,24.331665%);stop-opacity:1;"/>
<stop offset="0.863281" style="stop-color:rgb(56.971741%,13.047791%,24.414062%);stop-opacity:1;"/>
<stop offset="0.867188" style="stop-color:rgb(56.661987%,12.823486%,24.49646%);stop-opacity:1;"/>
<stop offset="0.871094" style="stop-color:rgb(56.394958%,12.532043%,24.583435%);stop-opacity:1;"/>
<stop offset="0.875" style="stop-color:rgb(56.161499%,12.187195%,24.673462%);stop-opacity:1;"/>
<stop offset="0.878906" style="stop-color:rgb(55.912781%,11.851501%,24.763489%);stop-opacity:1;"/>
<stop offset="0.882812" style="stop-color:rgb(55.584717%,11.547852%,24.859619%);stop-opacity:1;"/>
<stop offset="0.886719" style="stop-color:rgb(55.194092%,11.271667%,24.958801%);stop-opacity:1;"/>
<stop offset="0.890625" style="stop-color:rgb(54.826355%,10.998535%,25.050354%);stop-opacity:1;"/>
<stop offset="0.894531" style="stop-color:rgb(54.576111%,10.733032%,25.114441%);stop-opacity:1;"/>
<stop offset="0.898438" style="stop-color:rgb(54.425049%,10.472107%,25.154114%);stop-opacity:1;"/>
<stop offset="0.902344" style="stop-color:rgb(54.26178%,10.212708%,25.198364%);stop-opacity:1;"/>
<stop offset="0.90625" style="stop-color:rgb(54.019165%,9.959412%,25.288391%);stop-opacity:1;"/>
<stop offset="0.910156" style="stop-color:rgb(53.715515%,9.710693%,25.413513%);stop-opacity:1;"/>
<stop offset="0.914062" style="stop-color:rgb(53.414917%,9.468079%,25.535583%);stop-opacity:1;"/>
<stop offset="0.917969" style="stop-color:rgb(53.153992%,9.259033%,25.660706%);stop-opacity:1;"/>
<stop offset="0.921875" style="stop-color:rgb(52.92511%,9.078979%,25.787354%);stop-opacity:1;"/>
<stop offset="0.925781" style="stop-color:rgb(52.688599%,8.894348%,25.906372%);stop-opacity:1;"/>
<stop offset="0.929688" style="stop-color:rgb(52.377319%,8.677673%,25.976562%);stop-opacity:1;"/>
<stop offset="0.933594" style="stop-color:rgb(52.003479%,8.430481%,25.999451%);stop-opacity:1;"/>
<stop offset="0.9375" style="stop-color:rgb(51.637268%,8.195496%,26.026917%);stop-opacity:1;"/>
<stop offset="0.941406" style="stop-color:rgb(51.344299%,8.076477%,26.097107%);stop-opacity:1;"/>
<stop offset="0.945312" style="stop-color:rgb(51.116943%,8.061218%,26.211548%);stop-opacity:1;"/>
<stop offset="0.949219" style="stop-color:rgb(50.88501%,8.045959%,26.322937%);stop-opacity:1;"/>
<stop offset="0.953125" style="stop-color:rgb(50.616455%,8.036804%,26.437378%);stop-opacity:1;"/>
<stop offset="0.957031" style="stop-color:rgb(50.314331%,8.035278%,26.553345%);stop-opacity:1;"/>
<stop offset="0.960938" style="stop-color:rgb(50.013733%,8.033752%,26.66626%);stop-opacity:1;"/>
<stop offset="0.964844" style="stop-color:rgb(49.713135%,8.021545%,26.733398%);stop-opacity:1;"/>
<stop offset="0.96875" style="stop-color:rgb(49.415588%,7.998657%,26.757812%);stop-opacity:1;"/>
<stop offset="0.972656" style="stop-color:rgb(49.118042%,7.977295%,26.783752%);stop-opacity:1;"/>
<stop offset="0.976562" style="stop-color:rgb(48.782349%,7.974243%,26.855469%);stop-opacity:1;"/>
<stop offset="0.980469" style="stop-color:rgb(48.41156%,7.98645%,26.971436%);stop-opacity:1;"/>
<stop offset="0.984375" style="stop-color:rgb(48.040771%,8.000183%,27.087402%);stop-opacity:1;"/>
<stop offset="0.988281" style="stop-color:rgb(47.70813%,8.007812%,27.198792%);stop-opacity:1;"/>
<stop offset="0.992188" style="stop-color:rgb(47.412109%,8.007812%,27.308655%);stop-opacity:1;"/>
<stop offset="0.996094" style="stop-color:rgb(47.117615%,8.007812%,27.415466%);stop-opacity:1;"/>
<stop offset="1" style="stop-color:rgb(46.969604%,8.007812%,27.470398%);stop-opacity:1;"/>
</radialGradient>
<clipPath id="clip4">
  <path d="M 38 31 L 39 31 L 39 32 L 38 32 Z M 38 31 "/>
</clipPath>
<clipPath id="clip5">
  <path d="M 38.957031 31.738281 C 38.957031 31.738281 38.957031 31.738281 38.953125 31.738281 L 38.953125 31.742188 Z M 38.957031 31.738281 "/>
</clipPath>
<clipPath id="clip6">
  <path d="M 38.957031 31.738281 C 38.957031 31.738281 38.957031 31.738281 38.953125 31.738281 L 38.953125 31.742188 L 38.957031 31.738281 "/>
</clipPath>
<radialGradient id="radial1" gradientUnits="userSpaceOnUse" cx="0" cy="0" fx="0" fy="0" r="0.00162393" gradientTransform="matrix(1,0,0,1,38.9547,31.7398)">
<stop offset="0" style="stop-color:rgb(96.487427%,79.367065%,8.744812%);stop-opacity:1;"/>
<stop offset="0.25" style="stop-color:rgb(96.487427%,79.367065%,8.744812%);stop-opacity:1;"/>
<stop offset="0.253906" style="stop-color:rgb(96.458435%,79.325867%,8.731079%);stop-opacity:1;"/>
<stop offset="0.257812" style="stop-color:rgb(96.295166%,79.089355%,8.653259%);stop-opacity:1;"/>
<stop offset="0.261719" style="stop-color:rgb(96.025085%,78.69873%,8.529663%);stop-opacity:1;"/>
<stop offset="0.265625" style="stop-color:rgb(95.741272%,78.285217%,8.390808%);stop-opacity:1;"/>
<stop offset="0.269531" style="stop-color:rgb(95.388794%,77.749634%,8.16803%);stop-opacity:1;"/>
<stop offset="0.273438" style="stop-color:rgb(94.981384%,77.113342%,7.88269%);stop-opacity:1;"/>
<stop offset="0.277344" style="stop-color:rgb(94.589233%,76.502991%,7.635498%);stop-opacity:1;"/>
<stop offset="0.28125" style="stop-color:rgb(94.265747%,76.022339%,7.582092%);stop-opacity:1;"/>
<stop offset="0.285156" style="stop-color:rgb(93.998718%,75.643921%,7.688904%);stop-opacity:1;"/>
<stop offset="0.289062" style="stop-color:rgb(93.731689%,75.259399%,7.780457%);stop-opacity:1;"/>
<stop offset="0.292969" style="stop-color:rgb(93.463135%,74.819946%,7.766724%);stop-opacity:1;"/>
<stop offset="0.296875" style="stop-color:rgb(93.191528%,74.334717%,7.667542%);stop-opacity:1;"/>
<stop offset="0.300781" style="stop-color:rgb(92.921448%,73.852539%,7.569885%);stop-opacity:1;"/>
<stop offset="0.304688" style="stop-color:rgb(92.649841%,73.368835%,7.472229%);stop-opacity:1;"/>
<stop offset="0.308594" style="stop-color:rgb(92.381287%,72.889709%,7.377625%);stop-opacity:1;"/>
<stop offset="0.3125" style="stop-color:rgb(92.114258%,72.416687%,7.302856%);stop-opacity:1;"/>
<stop offset="0.316406" style="stop-color:rgb(91.850281%,72.000122%,7.380676%);stop-opacity:1;"/>
<stop offset="0.320312" style="stop-color:rgb(91.58783%,71.633911%,7.597351%);stop-opacity:1;"/>
<stop offset="0.324219" style="stop-color:rgb(91.326904%,71.261597%,7.798767%);stop-opacity:1;"/>
<stop offset="0.328125" style="stop-color:rgb(91.064453%,70.837402%,7.902527%);stop-opacity:1;"/>
<stop offset="0.332031" style="stop-color:rgb(90.800476%,70.365906%,7.91626%);stop-opacity:1;"/>
<stop offset="0.335938" style="stop-color:rgb(90.534973%,69.894409%,7.93457%);stop-opacity:1;"/>
<stop offset="0.339844" style="stop-color:rgb(90.270996%,69.425964%,8.004761%);stop-opacity:1;"/>
<stop offset="0.34375" style="stop-color:rgb(90.008545%,68.95752%,8.123779%);stop-opacity:1;"/>
<stop offset="0.347656" style="stop-color:rgb(89.74762%,68.495178%,8.247375%);stop-opacity:1;"/>
<stop offset="0.351562" style="stop-color:rgb(89.48822%,68.084717%,8.467102%);stop-opacity:1;"/>
<stop offset="0.355469" style="stop-color:rgb(89.231873%,67.726135%,8.77533%);stop-opacity:1;"/>
<stop offset="0.359375" style="stop-color:rgb(88.977051%,67.366028%,9.074402%);stop-opacity:1;"/>
<stop offset="0.363281" style="stop-color:rgb(88.720703%,66.952515%,9.173584%);stop-opacity:1;"/>
<stop offset="0.367188" style="stop-color:rgb(88.461304%,66.490173%,9.083557%);stop-opacity:1;"/>
<stop offset="0.371094" style="stop-color:rgb(88.206482%,66.030884%,8.995056%);stop-opacity:1;"/>
<stop offset="0.375" style="stop-color:rgb(88.012695%,65.635681%,8.987427%);stop-opacity:1;"/>
<stop offset="0.378906" style="stop-color:rgb(87.878418%,65.301514%,9.057617%);stop-opacity:1;"/>
<stop offset="0.382812" style="stop-color:rgb(87.745667%,64.970398%,9.127808%);stop-opacity:1;"/>
<stop offset="0.386719" style="stop-color:rgb(87.550354%,64.575195%,9.269714%);stop-opacity:1;"/>
<stop offset="0.390625" style="stop-color:rgb(87.295532%,64.117432%,9.481812%);stop-opacity:1;"/>
<stop offset="0.394531" style="stop-color:rgb(87.04071%,63.66272%,9.690857%);stop-opacity:1;"/>
<stop offset="0.398438" style="stop-color:rgb(86.787415%,63.208008%,9.851074%);stop-opacity:1;"/>
<stop offset="0.402344" style="stop-color:rgb(86.534119%,62.754822%,9.960938%);stop-opacity:1;"/>
<stop offset="0.40625" style="stop-color:rgb(86.282349%,62.301636%,10.069275%);stop-opacity:1;"/>
<stop offset="0.410156" style="stop-color:rgb(86.04126%,61.827087%,10.064697%);stop-opacity:1;"/>
<stop offset="0.414062" style="stop-color:rgb(85.809326%,61.328125%,9.941101%);stop-opacity:1;"/>
<stop offset="0.417969" style="stop-color:rgb(85.578918%,60.829163%,9.815979%);stop-opacity:1;"/>
<stop offset="0.421875" style="stop-color:rgb(85.395813%,60.412598%,9.78241%);stop-opacity:1;"/>
<stop offset="0.425781" style="stop-color:rgb(85.264587%,60.083008%,9.844971%);stop-opacity:1;"/>
<stop offset="0.429688" style="stop-color:rgb(85.136414%,59.757996%,9.910583%);stop-opacity:1;"/>
<stop offset="0.433594" style="stop-color:rgb(84.898376%,59.32312%,10.058594%);stop-opacity:1;"/>
<stop offset="0.4375" style="stop-color:rgb(84.541321%,58.766174%,10.293579%);stop-opacity:1;"/>
<stop offset="0.441406" style="stop-color:rgb(84.178162%,58.204651%,10.533142%);stop-opacity:1;"/>
<stop offset="0.445312" style="stop-color:rgb(83.827209%,57.713318%,10.739136%);stop-opacity:1;"/>
<stop offset="0.449219" style="stop-color:rgb(83.48999%,57.299805%,10.913086%);stop-opacity:1;"/>
<stop offset="0.453125" style="stop-color:rgb(83.155823%,56.893921%,11.080933%);stop-opacity:1;"/>
<stop offset="0.457031" style="stop-color:rgb(82.914734%,56.52771%,11.160278%);stop-opacity:1;"/>
<stop offset="0.460938" style="stop-color:rgb(82.778931%,56.207275%,11.141968%);stop-opacity:1;"/>
<stop offset="0.464844" style="stop-color:rgb(82.65686%,55.889893%,11.112976%);stop-opacity:1;"/>
<stop offset="0.46875" style="stop-color:rgb(82.492065%,55.500793%,11.201477%);stop-opacity:1;"/>
<stop offset="0.472656" style="stop-color:rgb(82.276917%,55.026245%,11.421204%);stop-opacity:1;"/>
<stop offset="0.476562" style="stop-color:rgb(82.055664%,54.541016%,11.657715%);stop-opacity:1;"/>
<stop offset="0.480469" style="stop-color:rgb(81.832886%,54.013062%,11.897278%);stop-opacity:1;"/>
<stop offset="0.484375" style="stop-color:rgb(81.610107%,53.437805%,12.138367%);stop-opacity:1;"/>
<stop offset="0.488281" style="stop-color:rgb(81.388855%,52.854919%,12.376404%);stop-opacity:1;"/>
<stop offset="0.492188" style="stop-color:rgb(81.207275%,52.34375%,12.54425%);stop-opacity:1;"/>
<stop offset="0.496094" style="stop-color:rgb(81.07605%,51.916504%,12.625122%);stop-opacity:1;"/>
<stop offset="0.5" style="stop-color:rgb(80.952454%,51.506042%,12.690735%);stop-opacity:1;"/>
<stop offset="0.503906" style="stop-color:rgb(80.747986%,51.063538%,12.760925%);stop-opacity:1;"/>
<stop offset="0.507812" style="stop-color:rgb(80.444336%,50.588989%,12.832642%);stop-opacity:1;"/>
<stop offset="0.511719" style="stop-color:rgb(80.117798%,50.106812%,12.905884%);stop-opacity:1;"/>
<stop offset="0.515625" style="stop-color:rgb(79.841614%,49.673462%,12.930298%);stop-opacity:1;"/>
<stop offset="0.519531" style="stop-color:rgb(79.620361%,49.29657%,12.895203%);stop-opacity:1;"/>
<stop offset="0.523438" style="stop-color:rgb(79.412842%,48.933411%,12.849426%);stop-opacity:1;"/>
<stop offset="0.527344" style="stop-color:rgb(79.168701%,48.509216%,12.864685%);stop-opacity:1;"/>
<stop offset="0.53125" style="stop-color:rgb(78.875732%,48.005676%,12.95929%);stop-opacity:1;"/>
<stop offset="0.535156" style="stop-color:rgb(78.575134%,47.483826%,13.070679%);stop-opacity:1;"/>
<stop offset="0.539062" style="stop-color:rgb(78.308105%,46.986389%,13.217163%);stop-opacity:1;"/>
<stop offset="0.542969" style="stop-color:rgb(78.086853%,46.516418%,13.41095%);stop-opacity:1;"/>
<stop offset="0.546875" style="stop-color:rgb(77.879333%,46.054077%,13.613892%);stop-opacity:1;"/>
<stop offset="0.550781" style="stop-color:rgb(77.671814%,45.591736%,13.844299%);stop-opacity:1;"/>
<stop offset="0.554688" style="stop-color:rgb(77.464294%,45.129395%,14.111328%);stop-opacity:1;"/>
<stop offset="0.558594" style="stop-color:rgb(77.258301%,44.665527%,14.387512%);stop-opacity:1;"/>
<stop offset="0.5625" style="stop-color:rgb(77.018738%,44.184875%,14.651489%);stop-opacity:1;"/>
<stop offset="0.566406" style="stop-color:rgb(76.73645%,43.67981%,14.901733%);stop-opacity:1;"/>
<stop offset="0.570312" style="stop-color:rgb(76.44043%,43.167114%,15.1474%);stop-opacity:1;"/>
<stop offset="0.574219" style="stop-color:rgb(76.145935%,42.658997%,15.361023%);stop-opacity:1;"/>
<stop offset="0.578125" style="stop-color:rgb(75.854492%,42.153931%,15.533447%);stop-opacity:1;"/>
<stop offset="0.582031" style="stop-color:rgb(75.561523%,41.651917%,15.689087%);stop-opacity:1;"/>
<stop offset="0.585938" style="stop-color:rgb(75.300598%,41.168213%,15.85083%);stop-opacity:1;"/>
<stop offset="0.589844" style="stop-color:rgb(75.086975%,40.713501%,16.021729%);stop-opacity:1;"/>
<stop offset="0.59375" style="stop-color:rgb(74.887085%,40.267944%,16.192627%);stop-opacity:1;"/>
<stop offset="0.597656" style="stop-color:rgb(74.624634%,39.807129%,16.33606%);stop-opacity:1;"/>
<stop offset="0.601562" style="stop-color:rgb(74.267578%,39.320374%,16.439819%);stop-opacity:1;"/>
<stop offset="0.605469" style="stop-color:rgb(73.881531%,38.830566%,16.52832%);stop-opacity:1;"/>
<stop offset="0.609375" style="stop-color:rgb(73.527527%,38.374329%,16.584778%);stop-opacity:1;"/>
<stop offset="0.613281" style="stop-color:rgb(73.226929%,37.973022%,16.590881%);stop-opacity:1;"/>
<stop offset="0.617188" style="stop-color:rgb(72.947693%,37.593079%,16.5802%);stop-opacity:1;"/>
<stop offset="0.621094" style="stop-color:rgb(72.724915%,37.197876%,16.615295%);stop-opacity:1;"/>
<stop offset="0.625" style="stop-color:rgb(72.595215%,36.779785%,16.725159%);stop-opacity:1;"/>
<stop offset="0.628906" style="stop-color:rgb(72.50061%,36.351013%,16.860962%);stop-opacity:1;"/>
<stop offset="0.632812" style="stop-color:rgb(72.351074%,35.905457%,17.034912%);stop-opacity:1;"/>
<stop offset="0.636719" style="stop-color:rgb(72.106934%,35.432434%,17.272949%);stop-opacity:1;"/>
<stop offset="0.640625" style="stop-color:rgb(71.827698%,34.947205%,17.532349%);stop-opacity:1;"/>
<stop offset="0.644531" style="stop-color:rgb(71.574402%,34.466553%,17.781067%);stop-opacity:1;"/>
<stop offset="0.648438" style="stop-color:rgb(71.37146%,33.987427%,18.019104%);stop-opacity:1;"/>
<stop offset="0.652344" style="stop-color:rgb(71.18988%,33.511353%,18.247986%);stop-opacity:1;"/>
<stop offset="0.65625" style="stop-color:rgb(70.982361%,33.036804%,18.460083%);stop-opacity:1;"/>
<stop offset="0.660156" style="stop-color:rgb(70.726013%,32.565308%,18.641663%);stop-opacity:1;"/>
<stop offset="0.664062" style="stop-color:rgb(70.451355%,32.096863%,18.809509%);stop-opacity:1;"/>
<stop offset="0.667969" style="stop-color:rgb(70.175171%,31.65741%,18.955994%);stop-opacity:1;"/>
<stop offset="0.671875" style="stop-color:rgb(69.902039%,31.266785%,19.065857%);stop-opacity:1;"/>
<stop offset="0.675781" style="stop-color:rgb(69.628906%,30.900574%,19.158936%);stop-opacity:1;"/>
<stop offset="0.679688" style="stop-color:rgb(69.3573%,30.514526%,19.233704%);stop-opacity:1;"/>
<stop offset="0.683594" style="stop-color:rgb(69.087219%,30.08728%,19.276428%);stop-opacity:1;"/>
<stop offset="0.6875" style="stop-color:rgb(68.817139%,29.641724%,19.300842%);stop-opacity:1;"/>
<stop offset="0.691406" style="stop-color:rgb(68.547058%,29.193115%,19.386292%);stop-opacity:1;"/>
<stop offset="0.695312" style="stop-color:rgb(68.276978%,28.733826%,19.592285%);stop-opacity:1;"/>
<stop offset="0.699219" style="stop-color:rgb(68.005371%,28.271484%,19.854736%);stop-opacity:1;"/>
<stop offset="0.703125" style="stop-color:rgb(67.736816%,27.815247%,20.069885%);stop-opacity:1;"/>
<stop offset="0.707031" style="stop-color:rgb(67.468262%,27.36969%,20.187378%);stop-opacity:1;"/>
<stop offset="0.710938" style="stop-color:rgb(67.202759%,26.930237%,20.257568%);stop-opacity:1;"/>
<stop offset="0.714844" style="stop-color:rgb(66.938782%,26.513672%,20.33844%);stop-opacity:1;"/>
<stop offset="0.71875" style="stop-color:rgb(66.673279%,26.138306%,20.448303%);stop-opacity:1;"/>
<stop offset="0.722656" style="stop-color:rgb(66.409302%,25.787354%,20.570374%);stop-opacity:1;"/>
<stop offset="0.726562" style="stop-color:rgb(66.146851%,25.437927%,20.689392%);stop-opacity:1;"/>
<stop offset="0.730469" style="stop-color:rgb(65.882874%,25.088501%,20.806885%);stop-opacity:1;"/>
<stop offset="0.734375" style="stop-color:rgb(65.621948%,24.742126%,20.921326%);stop-opacity:1;"/>
<stop offset="0.738281" style="stop-color:rgb(65.379333%,24.377441%,21.040344%);stop-opacity:1;"/>
<stop offset="0.742188" style="stop-color:rgb(65.179443%,23.963928%,21.179199%);stop-opacity:1;"/>
<stop offset="0.746094" style="stop-color:rgb(65.007019%,23.524475%,21.325684%);stop-opacity:1;"/>
<stop offset="0.75" style="stop-color:rgb(64.7995%,23.0896%,21.472168%);stop-opacity:1;"/>
<stop offset="0.753906" style="stop-color:rgb(64.505005%,22.659302%,21.626282%);stop-opacity:1;"/>
<stop offset="0.757812" style="stop-color:rgb(64.157104%,22.233582%,21.781921%);stop-opacity:1;"/>
<stop offset="0.761719" style="stop-color:rgb(63.829041%,21.812439%,21.911621%);stop-opacity:1;"/>
<stop offset="0.765625" style="stop-color:rgb(63.548279%,21.398926%,21.980286%);stop-opacity:1;"/>
<stop offset="0.769531" style="stop-color:rgb(63.293457%,20.988464%,22.007751%);stop-opacity:1;"/>
<stop offset="0.773438" style="stop-color:rgb(63.023376%,20.594788%,22.05658%);stop-opacity:1;"/>
<stop offset="0.777344" style="stop-color:rgb(62.710571%,20.240784%,22.163391%);stop-opacity:1;"/>
<stop offset="0.78125" style="stop-color:rgb(62.371826%,19.914246%,22.302246%);stop-opacity:1;"/>
<stop offset="0.785156" style="stop-color:rgb(62.049866%,19.573975%,22.436523%);stop-opacity:1;"/>
<stop offset="0.789062" style="stop-color:rgb(61.769104%,19.189453%,22.558594%);stop-opacity:1;"/>
<stop offset="0.792969" style="stop-color:rgb(61.51886%,18.77594%,22.671509%);stop-opacity:1;"/>
<stop offset="0.796875" style="stop-color:rgb(61.26709%,18.380737%,22.781372%);stop-opacity:1;"/>
<stop offset="0.800781" style="stop-color:rgb(61.018372%,18.028259%,22.891235%);stop-opacity:1;"/>
<stop offset="0.804688" style="stop-color:rgb(60.768127%,17.704773%,23.001099%);stop-opacity:1;"/>
<stop offset="0.808594" style="stop-color:rgb(60.519409%,17.370605%,23.106384%);stop-opacity:1;"/>
<stop offset="0.8125" style="stop-color:rgb(60.272217%,16.996765%,23.204041%);stop-opacity:1;"/>
<stop offset="0.816406" style="stop-color:rgb(60.02655%,16.595459%,23.295593%);stop-opacity:1;"/>
<stop offset="0.820312" style="stop-color:rgb(59.779358%,16.209412%,23.384094%);stop-opacity:1;"/>
<stop offset="0.824219" style="stop-color:rgb(59.533691%,15.866089%,23.474121%);stop-opacity:1;"/>
<stop offset="0.828125" style="stop-color:rgb(59.288025%,15.551758%,23.564148%);stop-opacity:1;"/>
<stop offset="0.832031" style="stop-color:rgb(59.042358%,15.245056%,23.657227%);stop-opacity:1;"/>
<stop offset="0.835938" style="stop-color:rgb(58.799744%,14.953613%,23.770142%);stop-opacity:1;"/>
<stop offset="0.839844" style="stop-color:rgb(58.557129%,14.677429%,23.89679%);stop-opacity:1;"/>
<stop offset="0.84375" style="stop-color:rgb(58.314514%,14.396667%,24.015808%);stop-opacity:1;"/>
<stop offset="0.847656" style="stop-color:rgb(58.073425%,14.102173%,24.108887%);stop-opacity:1;"/>
<stop offset="0.851562" style="stop-color:rgb(57.830811%,13.796997%,24.180603%);stop-opacity:1;"/>
<stop offset="0.855469" style="stop-color:rgb(57.580566%,13.504028%,24.252319%);stop-opacity:1;"/>
<stop offset="0.859375" style="stop-color:rgb(57.292175%,13.256836%,24.331665%);stop-opacity:1;"/>
<stop offset="0.863281" style="stop-color:rgb(56.971741%,13.047791%,24.414062%);stop-opacity:1;"/>
<stop offset="0.867188" style="stop-color:rgb(56.661987%,12.823486%,24.49646%);stop-opacity:1;"/>
<stop offset="0.871094" style="stop-color:rgb(56.394958%,12.532043%,24.583435%);stop-opacity:1;"/>
<stop offset="0.875" style="stop-color:rgb(56.161499%,12.187195%,24.673462%);stop-opacity:1;"/>
<stop offset="0.878906" style="stop-color:rgb(55.912781%,11.851501%,24.763489%);stop-opacity:1;"/>
<stop offset="0.882812" style="stop-color:rgb(55.584717%,11.547852%,24.859619%);stop-opacity:1;"/>
<stop offset="0.886719" style="stop-color:rgb(55.194092%,11.271667%,24.958801%);stop-opacity:1;"/>
<stop offset="0.890625" style="stop-color:rgb(54.826355%,10.998535%,25.050354%);stop-opacity:1;"/>
<stop offset="0.894531" style="stop-color:rgb(54.576111%,10.733032%,25.114441%);stop-opacity:1;"/>
<stop offset="0.898438" style="stop-color:rgb(54.425049%,10.472107%,25.154114%);stop-opacity:1;"/>
<stop offset="0.902344" style="stop-color:rgb(54.26178%,10.212708%,25.198364%);stop-opacity:1;"/>
<stop offset="0.90625" style="stop-color:rgb(54.019165%,9.959412%,25.288391%);stop-opacity:1;"/>
<stop offset="0.910156" style="stop-color:rgb(53.715515%,9.710693%,25.413513%);stop-opacity:1;"/>
<stop offset="0.914062" style="stop-color:rgb(53.414917%,9.468079%,25.535583%);stop-opacity:1;"/>
<stop offset="0.917969" style="stop-color:rgb(53.153992%,9.259033%,25.660706%);stop-opacity:1;"/>
<stop offset="0.921875" style="stop-color:rgb(52.92511%,9.078979%,25.787354%);stop-opacity:1;"/>
<stop offset="0.925781" style="stop-color:rgb(52.688599%,8.894348%,25.906372%);stop-opacity:1;"/>
<stop offset="0.929688" style="stop-color:rgb(52.377319%,8.677673%,25.976562%);stop-opacity:1;"/>
<stop offset="0.933594" style="stop-color:rgb(52.003479%,8.430481%,25.999451%);stop-opacity:1;"/>
<stop offset="0.9375" style="stop-color:rgb(51.637268%,8.195496%,26.026917%);stop-opacity:1;"/>
<stop offset="0.941406" style="stop-color:rgb(51.344299%,8.076477%,26.097107%);stop-opacity:1;"/>
<stop offset="0.945312" style="stop-color:rgb(51.116943%,8.061218%,26.211548%);stop-opacity:1;"/>
<stop offset="0.949219" style="stop-color:rgb(50.88501%,8.045959%,26.322937%);stop-opacity:1;"/>
<stop offset="0.953125" style="stop-color:rgb(50.616455%,8.036804%,26.437378%);stop-opacity:1;"/>
<stop offset="0.957031" style="stop-color:rgb(50.314331%,8.035278%,26.553345%);stop-opacity:1;"/>
<stop offset="0.960938" style="stop-color:rgb(50.013733%,8.033752%,26.66626%);stop-opacity:1;"/>
<stop offset="0.964844" style="stop-color:rgb(49.713135%,8.021545%,26.733398%);stop-opacity:1;"/>
<stop offset="0.96875" style="stop-color:rgb(49.415588%,7.998657%,26.757812%);stop-opacity:1;"/>
<stop offset="0.972656" style="stop-color:rgb(49.118042%,7.977295%,26.783752%);stop-opacity:1;"/>
<stop offset="0.976562" style="stop-color:rgb(48.782349%,7.974243%,26.855469%);stop-opacity:1;"/>
<stop offset="0.980469" style="stop-color:rgb(48.41156%,7.98645%,26.971436%);stop-opacity:1;"/>
<stop offset="0.984375" style="stop-color:rgb(48.040771%,8.000183%,27.087402%);stop-opacity:1;"/>
<stop offset="0.988281" style="stop-color:rgb(47.70813%,8.007812%,27.198792%);stop-opacity:1;"/>
<stop offset="0.992188" style="stop-color:rgb(47.412109%,8.007812%,27.308655%);stop-opacity:1;"/>
<stop offset="0.996094" style="stop-color:rgb(47.117615%,8.007812%,27.415466%);stop-opacity:1;"/>
<stop offset="1" style="stop-color:rgb(46.969604%,8.007812%,27.470398%);stop-opacity:1;"/>
</radialGradient>
</defs>
<g id="surface1">
<rect x="0" y="0" width="56" height="56" style="fill:rgb(95.66803%,95.779419%,96.777344%);fill-opacity:1;stroke:none;"/>
<path style=" stroke:none;fill-rule:nonzero;fill:rgb(27.882385%,26.570129%,26.896667%);fill-opacity:1;" d="M 14.132812 29.46875 C 14.058594 27.476562 14.023438 25.515625 13.945312 23.519531 C 13.632812 23.847656 10.039062 29.292969 10.007812 29.46875 C 11.371094 29.46875 12.730469 29.46875 14.132812 29.46875 Z M 16.558594 20.394531 C 16.585938 20.808594 16.617188 21.222656 16.636719 21.640625 C 16.710938 23.390625 16.78125 25.140625 16.859375 26.890625 C 16.960938 29.195312 17.070312 31.496094 17.175781 33.800781 C 17.195312 34.234375 17.210938 34.667969 17.226562 35.101562 C 17.230469 35.15625 17.222656 35.214844 17.214844 35.289062 C 16.253906 35.289062 15.300781 35.289062 14.320312 35.289062 C 14.277344 34.214844 14.238281 33.148438 14.195312 32.082031 C 14.167969 31.945312 14.054688 32 13.980469 32 C 12.144531 31.996094 10.304688 31.996094 8.46875 31.996094 C 8.398438 31.996094 8.328125 32.023438 8.257812 32.035156 C 8.011719 32.390625 7.761719 32.742188 7.523438 33.097656 C 7.035156 33.824219 6.554688 34.554688 6.0625 35.292969 C 5.964844 35.296875 5.867188 35.308594 5.769531 35.308594 C 4.878906 35.308594 3.988281 35.308594 3.097656 35.308594 C 3.015625 35.308594 2.9375 35.316406 2.855469 35.324219 C 2.855469 35.304688 2.855469 35.289062 2.855469 35.273438 C 3.082031 34.953125 3.308594 34.636719 3.53125 34.3125 C 6.667969 29.707031 9.808594 25.101562 12.945312 20.492188 C 12.984375 20.441406 13.03125 20.394531 13.070312 20.34375 C 13.175781 20.359375 13.277344 20.390625 13.378906 20.390625 C 14.441406 20.394531 15.5 20.394531 16.558594 20.394531 "/>
<path style=" stroke:none;fill-rule:nonzero;fill:rgb(27.882385%,26.570129%,26.896667%);fill-opacity:1;" d="M 33.59375 20.339844 C 33.664062 20.328125 33.734375 20.300781 33.804688 20.300781 C 35.128906 20.300781 36.457031 20.300781 37.78125 20.300781 C 37.851562 20.300781 37.921875 20.3125 38.023438 20.320312 C 36.527344 25.324219 35.035156 30.300781 33.539062 35.292969 C 32.613281 35.292969 31.703125 35.292969 30.746094 35.292969 C 32.066406 31.238281 33.382812 27.214844 34.695312 23.1875 C 34.675781 23.179688 34.65625 23.167969 34.636719 23.160156 C 32.347656 27.207031 30.058594 31.25 27.773438 35.292969 C 26.789062 35.292969 25.828125 35.292969 24.832031 35.292969 C 25.128906 31.210938 25.421875 27.144531 25.71875 23.074219 C 25.695312 23.070312 25.675781 23.066406 25.652344 23.0625 C 24.402344 27.136719 23.152344 31.214844 21.902344 35.292969 C 20.972656 35.292969 20.070312 35.292969 19.140625 35.292969 C 19.15625 35.214844 19.164062 35.152344 19.183594 35.09375 C 19.945312 32.761719 20.707031 30.429688 21.464844 28.097656 C 22.226562 25.765625 22.984375 23.433594 23.746094 21.101562 C 23.832031 20.84375 23.929688 20.597656 24.023438 20.34375 C 24.125 20.359375 24.226562 20.390625 24.332031 20.390625 C 25.683594 20.394531 27.035156 20.390625 28.390625 20.390625 C 28.351562 21.003906 28.3125 21.617188 28.269531 22.226562 C 28.132812 24.195312 27.992188 26.160156 27.847656 28.128906 C 27.792969 28.894531 27.730469 29.660156 27.671875 30.425781 C 27.671875 30.449219 27.675781 30.472656 27.683594 30.542969 C 27.742188 30.457031 27.785156 30.402344 27.820312 30.34375 C 29.679688 27.101562 31.542969 23.863281 33.40625 20.621094 C 33.460938 20.523438 33.53125 20.433594 33.59375 20.339844 C 33.703125 20.355469 33.8125 20.390625 33.925781 20.390625 C 35.167969 20.394531 36.410156 20.390625 37.652344 20.390625 C 37.726562 20.390625 37.804688 20.390625 37.878906 20.390625 C 37.789062 20.34375 37.703125 20.34375 37.613281 20.34375 C 36.273438 20.34375 34.933594 20.339844 33.59375 20.339844 "/>
<path style=" stroke:none;fill-rule:nonzero;fill:rgb(27.882385%,26.570129%,26.896667%);fill-opacity:1;" d="M 45.921875 27.710938 C 46.933594 30.226562 47.941406 32.742188 48.953125 35.257812 C 48.769531 35.320312 45.917969 35.339844 45.488281 35.28125 C 44.890625 33.828125 44.257812 32.371094 43.761719 30.855469 C 43.792969 30.757812 43.828125 30.65625 43.863281 30.554688 C 43.878906 30.523438 43.898438 30.492188 43.914062 30.460938 C 43.945312 30.410156 43.976562 30.363281 44.011719 30.3125 C 44.027344 30.28125 44.042969 30.246094 44.058594 30.214844 C 44.078125 30.179688 44.09375 30.148438 44.113281 30.117188 C 44.160156 30.019531 44.210938 29.921875 44.261719 29.828125 C 44.292969 29.761719 44.324219 29.691406 44.355469 29.625 C 44.617188 29.132812 44.78125 28.601562 44.890625 28.054688 C 44.90625 27.972656 44.960938 27.894531 44.992188 27.816406 C 45.195312 27.761719 45.398438 27.703125 45.597656 27.652344 C 45.691406 27.628906 45.785156 27.621094 45.882812 27.609375 C 45.894531 27.644531 45.910156 27.675781 45.921875 27.710938 "/>
<path style=" stroke:none;fill-rule:nonzero;fill:rgb(27.882385%,26.570129%,26.896667%);fill-opacity:1;" d="M 42.398438 27.261719 C 41.824219 25.769531 41.25 24.273438 40.675781 22.777344 C 40.375 21.984375 40.078125 21.191406 39.777344 20.394531 C 40.726562 20.394531 41.675781 20.394531 42.625 20.390625 C 42.726562 20.390625 42.828125 20.355469 42.929688 20.339844 C 42.976562 20.414062 43.027344 20.488281 43.058594 20.570312 C 43.511719 21.667969 43.964844 22.769531 44.414062 23.867188 C 44.359375 23.984375 44.304688 24.101562 44.253906 24.222656 C 44.074219 24.515625 43.890625 24.8125 43.710938 25.105469 C 43.550781 25.402344 43.390625 25.695312 43.226562 25.992188 C 43.046875 26.382812 42.867188 26.777344 42.683594 27.167969 C 42.621094 27.28125 42.554688 27.394531 42.492188 27.507812 L 42.492188 27.511719 C 42.472656 27.460938 42.457031 27.414062 42.441406 27.363281 L 42.441406 27.367188 C 42.425781 27.332031 42.410156 27.296875 42.398438 27.261719 "/>
<path style=" stroke:none;fill-rule:nonzero;fill:rgb(21.481323%,20.053101%,20.407104%);fill-opacity:1;" d="M 28.390625 20.390625 C 27.035156 20.390625 25.683594 20.394531 24.332031 20.390625 C 24.226562 20.390625 24.125 20.359375 24.023438 20.34375 C 24.09375 20.332031 24.160156 20.304688 24.230469 20.304688 C 25.546875 20.304688 26.863281 20.304688 28.179688 20.308594 C 28.253906 20.308594 28.371094 20.242188 28.390625 20.390625 "/>
<path style=" stroke:none;fill-rule:nonzero;fill:rgb(21.64917%,20.223999%,20.578003%);fill-opacity:1;" d="M 16.558594 20.394531 C 15.5 20.394531 14.441406 20.394531 13.378906 20.390625 C 13.277344 20.390625 13.175781 20.359375 13.070312 20.34375 C 13.125 20.332031 13.175781 20.304688 13.230469 20.304688 C 14.277344 20.304688 15.324219 20.304688 16.367188 20.304688 C 16.4375 20.304688 16.542969 20.261719 16.558594 20.394531 "/>
<path style=" stroke:none;fill-rule:nonzero;fill:rgb(21.64917%,20.223999%,20.578003%);fill-opacity:1;" d="M 42.929688 20.339844 C 42.828125 20.355469 42.726562 20.390625 42.625 20.390625 C 41.675781 20.394531 40.726562 20.394531 39.777344 20.394531 C 39.78125 20.367188 39.785156 20.320312 39.796875 20.316406 C 39.851562 20.304688 39.90625 20.304688 39.964844 20.304688 C 40.882812 20.304688 41.800781 20.304688 42.722656 20.304688 C 42.792969 20.304688 42.863281 20.328125 42.929688 20.339844 "/>
<path style=" stroke:none;fill-rule:nonzero;fill:rgb(34.960938%,33.776855%,34.07135%);fill-opacity:1;" d="M 36.15625 32.773438 C 36.136719 32.800781 36.117188 32.835938 36.097656 32.867188 C 36.117188 32.835938 36.136719 32.800781 36.15625 32.773438 "/>
<path style=" stroke:none;fill-rule:nonzero;fill:rgb(46.586609%,45.614624%,45.855713%);fill-opacity:1;" d="M 38.164062 30.210938 C 38.148438 30.226562 38.128906 30.242188 38.109375 30.261719 C 38.128906 30.242188 38.148438 30.226562 38.164062 30.210938 "/>
<path style=" stroke:none;fill-rule:nonzero;fill:rgb(46.586609%,45.614624%,45.855713%);fill-opacity:1;" d="M 38.113281 30.257812 C 38.097656 30.277344 38.078125 30.292969 38.0625 30.308594 C 38.078125 30.292969 38.097656 30.277344 38.113281 30.257812 "/>
<path style=" stroke:none;fill-rule:nonzero;fill:rgb(46.586609%,45.614624%,45.855713%);fill-opacity:1;" d="M 38.066406 30.304688 C 38.046875 30.324219 38.03125 30.34375 38.011719 30.359375 C 38.03125 30.34375 38.046875 30.324219 38.066406 30.304688 "/>
<path style=" stroke:none;fill-rule:nonzero;fill:rgb(46.586609%,45.614624%,45.855713%);fill-opacity:1;" d="M 38.019531 30.355469 C 37.996094 30.371094 37.976562 30.390625 37.957031 30.40625 C 37.976562 30.390625 37.996094 30.371094 38.019531 30.355469 "/>
<path style=" stroke:none;fill-rule:nonzero;fill:rgb(34.960938%,33.776855%,34.07135%);fill-opacity:1;" d="M 36.199219 32.710938 C 36.183594 32.730469 36.167969 32.75 36.15625 32.769531 C 36.167969 32.75 36.183594 32.730469 36.199219 32.710938 "/>
<path style=" stroke:none;fill-rule:nonzero;fill:rgb(21.481323%,20.053101%,20.407104%);fill-opacity:1;" d="M 33.59375 20.339844 C 34.933594 20.339844 36.273438 20.34375 37.613281 20.34375 C 37.703125 20.34375 37.789062 20.34375 37.878906 20.390625 C 37.804688 20.390625 37.726562 20.390625 37.652344 20.390625 C 36.410156 20.390625 35.167969 20.394531 33.925781 20.390625 C 33.8125 20.390625 33.703125 20.355469 33.59375 20.339844 "/>
<path style=" stroke:none;fill-rule:nonzero;fill:rgb(37.150574%,36.006165%,36.289978%);fill-opacity:1;" d="M 38.257812 34.238281 C 38.277344 34.222656 38.292969 34.207031 38.3125 34.1875 C 38.292969 34.207031 38.277344 34.222656 38.257812 34.238281 "/>
<g clip-path="url(#clip1)" clip-rule="nonzero">
<g clip-path="url(#clip2)" clip-rule="nonzero">
<g clip-path="url(#clip3)" clip-rule="nonzero">
<path style=" stroke:none;fill-rule:nonzero;fill:url(#radial0);" d="M 34.773438 18.625 L 34.773438 37.375 L 53.144531 37.375 L 53.144531 18.625 Z M 34.773438 18.625 "/>
</g>
</g>
</g>
<g clip-path="url(#clip4)" clip-rule="nonzero">
<g clip-path="url(#clip5)" clip-rule="nonzero">
<g clip-path="url(#clip6)" clip-rule="nonzero">
<path style=" stroke:none;fill-rule:nonzero;fill:url(#radial1);" d="M 38.953125 31.738281 L 38.953125 31.742188 L 38.957031 31.742188 L 38.957031 31.738281 Z M 38.953125 31.738281 "/>
</g>
</g>
</g>
</g>
</svg>
