<?xml version="1.0" encoding="UTF-8"?>
<svg xmlns="http://www.w3.org/2000/svg" xmlns:xlink="http://www.w3.org/1999/xlink" width="56pt" height="56pt" viewBox="0 0 56 56" version="1.1">
<g id="surface1">
<rect x="0" y="0" width="56" height="56" style="fill:rgb(95.66803%,95.779419%,96.777344%);fill-opacity:1;stroke:none;"/>
<path style=" stroke:none;fill-rule:nonzero;fill:rgb(15.260315%,24.61853%,49.31488%);fill-opacity:1;" d="M 12.820312 15.269531 C 12.871094 15.21875 12.886719 15.152344 12.890625 15.085938 C 12.984375 14.007812 13.402344 13.054688 14.015625 12.175781 C 14.523438 11.445312 15.148438 10.816406 15.855469 10.273438 C 17.019531 9.378906 18.320312 8.761719 19.734375 8.378906 C 20.332031 8.21875 20.9375 8.097656 21.550781 8.019531 C 22.195312 7.9375 22.84375 7.90625 23.492188 7.945312 C 24.113281 7.980469 24.730469 8.078125 25.328125 8.261719 C 26.382812 8.582031 27.234375 9.183594 27.890625 10.070312 C 28.453125 10.828125 28.824219 11.671875 29.03125 12.589844 C 29.210938 13.378906 29.25 14.175781 29.207031 14.976562 C 29.183594 15.398438 29.128906 15.816406 29.058594 16.234375 C 28.972656 16.746094 28.898438 17.261719 28.839844 17.777344 C 28.777344 18.320312 28.761719 18.859375 28.785156 19.40625 C 28.808594 19.882812 28.851562 20.355469 28.914062 20.828125 C 29.050781 21.851562 29.292969 22.847656 29.636719 23.816406 C 31.222656 28.292969 34.839844 31.773438 39.375 33.191406 C 40.148438 33.429688 40.933594 33.605469 41.730469 33.722656 C 42.160156 33.785156 42.59375 33.832031 43.027344 33.847656 C 43.074219 33.847656 43.121094 33.859375 43.179688 33.867188 C 43.128906 34.125 43.035156 34.355469 42.957031 34.589844 C 42.875 34.832031 42.785156 35.074219 42.695312 35.3125 C 42.605469 35.546875 42.511719 35.78125 42.410156 36.011719 C 42.3125 36.246094 42.203125 36.480469 42.097656 36.714844 C 41.992188 36.941406 41.886719 37.167969 41.765625 37.386719 C 41.699219 37.386719 41.636719 37.394531 41.578125 37.386719 C 41.300781 37.363281 41.027344 37.339844 40.753906 37.304688 C 40.214844 37.234375 39.679688 37.144531 39.148438 37.03125 C 37.230469 36.613281 35.429688 35.90625 33.757812 34.882812 C 30.25 32.746094 27.742188 29.757812 26.242188 25.933594 C 26.050781 25.449219 25.890625 24.957031 25.746094 24.457031 C 25.730469 24.40625 25.710938 24.355469 25.6875 24.285156 C 25.65625 24.320312 25.632812 24.335938 25.621094 24.359375 C 25.578125 24.441406 25.535156 24.523438 25.492188 24.605469 C 24.492188 26.550781 23.496094 28.5 22.488281 30.441406 C 22.035156 31.316406 21.71875 32.234375 21.515625 33.199219 C 21.273438 34.347656 21.191406 35.511719 21.261719 36.679688 C 21.335938 37.964844 21.605469 39.210938 22.074219 40.410156 C 23.113281 43.0625 24.855469 45.144531 27.25 46.683594 C 27.65625 46.945312 28.078125 47.179688 28.511719 47.390625 C 28.566406 47.417969 28.617188 47.445312 28.667969 47.472656 C 28.644531 47.53125 28.601562 47.515625 28.570312 47.527344 C 28.539062 47.539062 28.511719 47.542969 28.480469 47.550781 C 27.914062 47.675781 27.34375 47.773438 26.765625 47.851562 C 26.085938 47.945312 25.40625 48.011719 24.722656 48.039062 C 24.65625 48.039062 24.589844 48.0625 24.527344 48.074219 C 24.144531 48.074219 23.765625 48.074219 23.386719 48.074219 C 23.320312 48.03125 23.246094 48.039062 23.171875 48.035156 C 23.039062 48.027344 22.90625 48.015625 22.769531 48.011719 C 22.664062 48.007812 22.574219 47.96875 22.484375 47.90625 C 21.679688 47.378906 20.917969 46.796875 20.210938 46.144531 C 18.492188 44.5625 17.171875 42.707031 16.289062 40.539062 C 15.964844 39.742188 15.683594 38.925781 15.554688 38.070312 C 15.480469 37.578125 15.421875 37.089844 15.398438 36.59375 C 15.367188 35.921875 15.367188 35.25 15.421875 34.578125 C 15.460938 34.132812 15.511719 33.691406 15.585938 33.25 C 15.808594 31.984375 16.183594 30.769531 16.707031 29.597656 C 17.089844 28.734375 17.554688 27.917969 18.0625 27.121094 C 18.777344 25.996094 19.550781 24.910156 20.332031 23.832031 C 21.011719 22.898438 21.695312 21.96875 22.34375 21.011719 C 22.902344 20.183594 23.425781 19.339844 23.882812 18.449219 C 24.195312 17.839844 24.453125 17.207031 24.625 16.539062 C 24.792969 15.886719 24.902344 15.226562 24.863281 14.546875 C 24.851562 14.390625 24.832031 14.230469 24.804688 14.074219 C 24.703125 13.472656 24.425781 12.941406 24.078125 12.449219 C 24.003906 12.34375 23.917969 12.246094 23.828125 12.15625 C 23.160156 11.480469 22.335938 11.15625 21.402344 11.082031 C 21.003906 11.050781 20.609375 11.074219 20.214844 11.148438 C 19.191406 11.335938 18.265625 11.734375 17.445312 12.375 C 17.113281 12.628906 16.820312 12.925781 16.578125 13.265625 C 16.378906 13.546875 16.21875 13.847656 16.136719 14.1875 C 15.945312 14.953125 16.144531 15.597656 16.757812 16.109375 C 16.84375 16.179688 16.933594 16.238281 17.027344 16.296875 C 17.265625 16.449219 17.527344 16.554688 17.796875 16.632812 C 18.546875 16.851562 19.304688 16.851562 20.066406 16.726562 C 20.496094 16.652344 20.914062 16.535156 21.324219 16.390625 C 22.121094 16.113281 22.890625 15.769531 23.644531 15.390625 C 23.695312 15.367188 23.742188 15.339844 23.792969 15.320312 C 23.910156 15.273438 24.027344 15.300781 24.09375 15.382812 C 24.175781 15.480469 24.175781 15.585938 24.125 15.695312 C 24.109375 15.730469 24.082031 15.765625 24.058594 15.800781 C 23.570312 16.539062 22.972656 17.167969 22.257812 17.6875 C 21.046875 18.566406 19.6875 19.035156 18.203125 19.140625 C 17.46875 19.195312 16.738281 19.144531 16.019531 18.96875 C 15.425781 18.824219 14.863281 18.609375 14.347656 18.277344 C 14.03125 18.070312 13.742188 17.824219 13.5 17.527344 C 13.226562 17.1875 13.035156 16.808594 12.957031 16.378906 C 12.929688 16.234375 12.914062 16.089844 12.894531 15.945312 C 12.882812 15.871094 12.886719 15.796875 12.820312 15.746094 C 12.820312 15.585938 12.820312 15.425781 12.820312 15.269531 "/>
</g>
</svg>
