<?xml version="1.0" encoding="UTF-8"?>
<svg xmlns="http://www.w3.org/2000/svg" xmlns:xlink="http://www.w3.org/1999/xlink" width="56pt" height="56pt" viewBox="0 0 56 56" version="1.1">
<g id="surface1">
<rect x="0" y="0" width="56" height="56" style="fill:rgb(86.714172%,12.213135%,15.452576%);fill-opacity:1;stroke:none;"/>
<path style=" stroke:none;fill-rule:nonzero;fill:rgb(100%,100%,100%);fill-opacity:1;" d="M 44.71875 18.660156 C 44.820312 18.6875 44.914062 18.726562 45.015625 18.742188 C 45.476562 18.820312 45.667969 19.007812 45.726562 19.476562 C 45.765625 19.796875 45.78125 20.117188 45.8125 20.476562 C 48.597656 20.222656 51.363281 19.964844 54.132812 19.710938 C 54.140625 19.742188 54.152344 19.777344 54.160156 19.808594 C 53.957031 19.898438 53.757812 20 53.546875 20.074219 C 52.425781 20.484375 51.261719 20.742188 50.09375 20.984375 C 48.433594 21.328125 46.761719 21.613281 45.078125 21.765625 C 44.328125 24.902344 43.652344 28.039062 43.714844 31.300781 C 42.867188 31.488281 42.363281 30.996094 41.839844 30.441406 C 41.925781 30.277344 41.980469 30.078125 42.109375 29.949219 C 42.378906 29.671875 42.484375 29.332031 42.535156 28.96875 C 42.699219 27.828125 42.851562 26.6875 43.011719 25.542969 C 43.160156 24.46875 43.308594 23.390625 43.457031 22.3125 C 43.46875 22.226562 43.460938 22.140625 43.460938 22.023438 C 42.933594 21.984375 42.441406 22.09375 41.941406 22.148438 C 41.441406 22.207031 40.9375 22.242188 40.40625 22.289062 C 40.347656 22.351562 40.277344 22.449219 40.191406 22.523438 C 39.980469 22.699219 39.746094 22.785156 39.46875 22.695312 C 39.273438 22.628906 39.074219 22.574219 38.882812 22.496094 C 38.351562 22.277344 38.273438 22.132812 38.351562 21.511719 C 40.117188 21.164062 41.914062 20.949219 43.738281 20.738281 C 43.832031 20.039062 44.050781 19.367188 44.019531 18.660156 C 44.253906 18.660156 44.484375 18.660156 44.71875 18.660156 "/>
<path style=" stroke:none;fill-rule:nonzero;fill:rgb(100%,100%,100%);fill-opacity:1;" d="M 26.335938 21.714844 C 26.289062 21.746094 26.28125 21.757812 26.269531 21.761719 C 25.503906 22.039062 25.601562 21.855469 25.242188 22.769531 C 25.054688 23.238281 24.867188 23.714844 24.609375 24.144531 C 24.046875 25.074219 23.679688 26.082031 23.324219 27.09375 C 22.542969 29.316406 21.761719 31.539062 20.980469 33.761719 C 20.882812 34.046875 20.746094 34.3125 20.507812 34.503906 C 20.179688 34.765625 19.84375 34.730469 19.589844 34.402344 C 19.410156 34.164062 19.292969 33.894531 19.273438 33.585938 C 19.160156 32.058594 19.058594 30.53125 18.910156 29.011719 C 18.757812 27.402344 18.550781 25.796875 18.386719 24.1875 C 18.339844 23.734375 18.355469 23.28125 18.34375 22.828125 C 18.34375 22.800781 18.34375 22.773438 18.347656 22.75 C 18.40625 22.175781 18.648438 22.03125 19.148438 22.304688 C 19.554688 22.53125 19.941406 22.792969 20.332031 23.039062 C 20.402344 23.570312 20.316406 24.070312 20.238281 24.566406 C 20.15625 25.089844 20.035156 25.609375 19.972656 26.136719 C 19.78125 27.664062 19.789062 29.183594 20.199219 30.6875 C 20.292969 31.035156 20.332031 31.398438 20.402344 31.777344 C 20.441406 31.730469 20.492188 31.695312 20.507812 31.648438 C 21.605469 28.480469 22.699219 25.3125 23.800781 22.144531 C 24.074219 21.359375 24.304688 20.570312 24.328125 19.746094 C 25.121094 19.449219 25.664062 19.648438 26.039062 20.355469 C 26.261719 20.777344 26.316406 21.238281 26.335938 21.714844 "/>
<path style=" stroke:none;fill-rule:nonzero;fill:rgb(100%,100%,100%);fill-opacity:1;" d="M 5.964844 29.90625 C 6.230469 29.808594 6.445312 29.722656 6.660156 29.644531 C 6.878906 29.570312 7.105469 29.507812 7.320312 29.425781 C 7.863281 29.234375 8.046875 28.996094 8.054688 28.421875 C 8.058594 28.152344 8.027344 27.882812 7.992188 27.613281 C 7.914062 27.023438 7.789062 26.441406 7.523438 25.902344 C 7.460938 25.777344 7.429688 25.605469 7.226562 25.5625 C 7.15625 26.292969 6.882812 26.945312 6.585938 27.59375 C 6.4375 27.921875 6.300781 28.257812 6.183594 28.597656 C 6.046875 29 5.949219 29.410156 5.964844 29.90625 Z M 7.980469 30.054688 C 7.59375 30.230469 7.292969 30.371094 6.988281 30.503906 C 6.738281 30.609375 6.484375 30.710938 6.226562 30.789062 C 5.859375 30.902344 5.625 31.136719 5.492188 31.484375 C 5.359375 31.835938 5.230469 32.1875 5.105469 32.539062 C 4.84375 33.273438 4.570312 34 4.328125 34.738281 C 4.105469 35.414062 3.917969 36.097656 3.710938 36.78125 C 3.65625 36.953125 3.59375 37.121094 3.523438 37.339844 C 3.191406 37.261719 2.867188 37.222656 2.574219 37.109375 C 1.890625 36.851562 1.65625 36.214844 1.992188 35.566406 C 2.152344 35.253906 2.34375 34.957031 2.539062 34.667969 C 3.578125 33.125 4.386719 31.46875 4.957031 29.691406 C 5.5 28.003906 6.09375 26.332031 6.660156 24.652344 C 6.75 24.382812 6.816406 24.101562 6.902344 23.832031 C 6.976562 23.597656 7.042969 23.359375 7.15625 23.144531 C 7.355469 22.773438 7.640625 22.75 7.878906 23.085938 C 8.042969 23.316406 8.175781 23.574219 8.277344 23.839844 C 8.539062 24.519531 8.648438 25.230469 8.703125 25.960938 C 8.824219 27.5625 8.964844 29.164062 9.117188 30.761719 C 9.210938 31.703125 9.34375 32.640625 9.445312 33.578125 C 9.472656 33.847656 9.476562 34.128906 9.433594 34.390625 C 9.351562 34.878906 9.027344 35.039062 8.574219 34.839844 C 8.148438 34.65625 7.816406 34.347656 7.5625 33.964844 C 7.492188 33.863281 7.445312 33.71875 7.460938 33.601562 C 7.488281 33.335938 7.53125 33.058594 7.621094 32.808594 C 7.796875 32.34375 7.898438 31.867188 7.921875 31.371094 C 7.941406 30.960938 7.957031 30.546875 7.980469 30.054688 "/>
<path style=" stroke:none;fill-rule:nonzero;fill:rgb(100%,100%,100%);fill-opacity:1;" d="M 46.121094 28.464844 C 46.214844 28.363281 46.308594 28.261719 46.398438 28.15625 C 47.207031 27.222656 47.953125 26.25 48.558594 25.171875 C 48.84375 24.664062 49.183594 24.183594 49.507812 23.703125 C 49.753906 23.332031 49.988281 22.964844 50.054688 22.511719 C 50.078125 22.378906 50.152344 22.246094 50.207031 22.101562 C 50.777344 22.03125 51.242188 22.261719 51.734375 22.574219 C 51.636719 22.96875 51.542969 23.367188 51.433594 23.761719 C 51.222656 24.523438 50.976562 25.277344 50.789062 26.042969 C 50.492188 27.257812 50.460938 28.503906 50.457031 29.75 C 50.457031 29.925781 50.457031 30.105469 50.457031 30.28125 C 49.375 30.246094 48.996094 29.59375 48.988281 28.839844 C 48.980469 28.121094 49.097656 27.417969 49.203125 26.714844 C 49.242188 26.460938 49.273438 26.210938 49.238281 25.917969 C 49.121094 26.046875 48.984375 26.164062 48.898438 26.308594 C 48.671875 26.6875 48.453125 27.070312 48.265625 27.46875 C 47.8125 28.445312 47.113281 29.25 46.421875 30.054688 C 46.070312 30.460938 45.847656 30.464844 45.410156 30.167969 C 45.195312 30.023438 44.992188 29.863281 44.785156 29.710938 C 44.5625 29.546875 44.476562 29.34375 44.539062 29.066406 C 44.742188 28.171875 44.917969 27.269531 45.125 26.371094 C 45.367188 25.308594 45.484375 24.226562 45.585938 23.144531 C 45.59375 23.039062 45.59375 22.9375 45.613281 22.835938 C 45.699219 22.375 45.820312 22.269531 46.269531 22.339844 C 46.625 22.390625 46.972656 22.488281 47.378906 22.582031 C 47.199219 23.324219 47.035156 24.03125 46.855469 24.730469 C 46.570312 25.832031 46.222656 26.917969 46.074219 28.054688 C 46.054688 28.179688 46.046875 28.304688 46.035156 28.433594 C 46.066406 28.445312 46.09375 28.453125 46.121094 28.464844 "/>
<path style=" stroke:none;fill-rule:nonzero;fill:rgb(100%,100%,100%);fill-opacity:1;" d="M 33.871094 30.089844 C 34.003906 29.933594 34.089844 29.847656 34.160156 29.75 C 34.957031 28.714844 35.449219 27.53125 35.773438 26.285156 C 35.992188 25.445312 36.140625 24.589844 36.324219 23.742188 C 36.367188 23.539062 36.414062 23.339844 36.460938 23.136719 C 36.796875 23.085938 37.074219 23.179688 37.335938 23.328125 C 37.601562 23.480469 37.679688 23.742188 37.664062 24.027344 C 37.65625 24.261719 37.617188 24.492188 37.574219 24.71875 C 37.332031 26.042969 37.085938 27.367188 36.84375 28.691406 C 36.75 29.203125 36.816406 29.710938 36.964844 30.191406 C 37.082031 30.570312 37.082031 30.925781 36.960938 31.320312 C 35.890625 31.09375 35.484375 30.355469 35.449219 29.289062 C 35.152344 29.46875 34.964844 29.675781 34.828125 29.925781 C 34.734375 30.09375 34.660156 30.277344 34.585938 30.453125 C 34.429688 30.804688 34.21875 31.109375 33.894531 31.320312 C 33.085938 31.171875 32.636719 30.671875 32.582031 29.871094 C 32.53125 29.164062 32.675781 28.476562 32.816406 27.792969 C 33.089844 26.433594 33.375 25.078125 33.382812 23.664062 C 33.78125 23.605469 34.144531 23.648438 34.488281 23.816406 C 34.792969 23.960938 34.929688 24.230469 34.90625 24.546875 C 34.867188 25.035156 34.816406 25.527344 34.71875 26.007812 C 34.535156 26.921875 34.355469 27.835938 34.023438 28.714844 C 33.863281 29.128906 33.863281 29.5625 33.871094 30.089844 "/>
<path style=" stroke:none;fill-rule:nonzero;fill:rgb(100%,100%,100%);fill-opacity:1;" d="M 24.027344 31.410156 C 24.804688 30.761719 25.296875 30.011719 25.765625 29.234375 C 26.234375 28.460938 26.628906 27.644531 26.890625 26.761719 C 27.125 26.761719 27.339844 26.761719 27.597656 26.761719 C 27.582031 26.933594 27.578125 27.085938 27.546875 27.230469 C 27.375 28.160156 27.191406 29.085938 27.023438 30.015625 C 26.90625 30.671875 26.914062 31.324219 27.066406 31.980469 C 27.125 32.222656 27.113281 32.5 27.054688 32.742188 C 26.976562 33.0625 26.734375 33.164062 26.421875 33.058594 C 26.027344 32.929688 25.746094 32.699219 25.789062 32.210938 C 25.816406 31.847656 25.84375 31.484375 25.867188 31.125 C 25.886719 30.910156 25.898438 30.699219 25.914062 30.484375 C 25.882812 30.46875 25.851562 30.457031 25.824219 30.445312 C 25.699219 30.601562 25.550781 30.742188 25.453125 30.914062 C 25.214844 31.332031 25.011719 31.765625 24.773438 32.179688 C 24.5625 32.535156 24.347656 32.894531 24.082031 33.207031 C 23.714844 33.636719 23.226562 33.691406 22.699219 33.519531 C 22.515625 33.460938 22.4375 33.339844 22.378906 33.164062 C 22.175781 32.554688 22.214844 31.941406 22.351562 31.324219 C 22.5625 30.351562 22.972656 29.457031 23.46875 28.605469 C 23.9375 27.800781 24.445312 27.019531 24.941406 26.230469 C 25.195312 25.824219 25.46875 25.429688 25.71875 25.023438 C 26.046875 24.492188 26.242188 24.332031 26.910156 24.125 C 27.128906 24.332031 27.390625 24.542969 27.605469 24.792969 C 27.871094 25.105469 27.898438 25.476562 27.738281 25.855469 C 27.640625 26.089844 27.507812 26.171875 27.285156 26.046875 C 26.761719 25.753906 26.414062 25.980469 26.074219 26.363281 C 25.003906 27.566406 24.320312 28.949219 24.074219 30.542969 C 24.046875 30.734375 24.03125 30.925781 24.011719 31.121094 C 24.007812 31.183594 24.019531 31.246094 24.027344 31.410156 "/>
<path style=" stroke:none;fill-rule:nonzero;fill:rgb(100%,100%,100%);fill-opacity:1;" d="M 31.214844 25.421875 C 31.0625 25.574219 30.902344 25.71875 30.761719 25.882812 C 30.085938 26.691406 29.554688 27.59375 29.152344 28.570312 C 28.871094 29.238281 28.859375 29.960938 28.753906 30.660156 C 28.6875 31.070312 28.621094 31.480469 28.492188 31.871094 C 28.285156 32.496094 27.878906 32.421875 27.390625 32.085938 C 27.230469 31.976562 27.234375 31.78125 27.273438 31.589844 C 27.398438 30.96875 27.523438 30.34375 27.625 29.71875 C 27.886719 28.082031 28.132812 26.445312 28.386719 24.804688 C 28.40625 24.691406 28.425781 24.578125 28.449219 24.457031 C 28.765625 24.382812 29.050781 24.445312 29.335938 24.53125 C 29.558594 24.601562 29.664062 24.777344 29.675781 25.003906 C 29.6875 25.167969 29.679688 25.335938 29.679688 25.546875 C 29.773438 25.488281 29.851562 25.460938 29.910156 25.40625 C 30.261719 25.0625 30.605469 24.710938 30.953125 24.363281 C 31.222656 24.09375 31.53125 23.929688 31.921875 23.949219 C 32.472656 23.980469 32.792969 24.316406 32.722656 24.867188 C 32.632812 25.558594 32.507812 26.246094 32.394531 26.9375 C 32.113281 28.621094 31.832031 30.304688 31.546875 31.992188 C 31.542969 32.015625 31.53125 32.039062 31.523438 32.066406 C 30.910156 32.011719 30.46875 31.566406 30.40625 30.941406 C 30.34375 30.335938 30.476562 29.753906 30.597656 29.171875 C 30.808594 28.15625 31.019531 27.144531 31.21875 26.128906 C 31.265625 25.914062 31.269531 25.695312 31.292969 25.476562 C 31.269531 25.460938 31.242188 25.441406 31.214844 25.421875 "/>
<path style=" stroke:none;fill-rule:nonzero;fill:rgb(100%,100%,100%);fill-opacity:1;" d="M 38.316406 30.796875 C 38.261719 30.792969 38.246094 30.796875 38.234375 30.789062 C 37.296875 30.382812 37.234375 30.296875 37.257812 29.277344 C 37.269531 28.734375 37.308594 28.191406 37.34375 27.648438 C 37.351562 27.519531 37.371094 27.386719 37.410156 27.265625 C 37.878906 25.78125 38.316406 24.285156 39.554688 23.207031 C 39.917969 22.886719 40.566406 22.734375 40.992188 22.914062 C 41.523438 23.144531 41.839844 23.789062 41.695312 24.347656 C 41.679688 24.410156 41.664062 24.472656 41.644531 24.550781 C 41.269531 24.558594 41.027344 24.324219 40.761719 24.105469 C 40.441406 24.265625 40.164062 24.480469 39.941406 24.746094 C 38.949219 25.917969 38.40625 27.28125 38.261719 28.804688 C 38.261719 28.84375 38.265625 28.882812 38.273438 28.921875 C 38.273438 28.933594 38.28125 28.945312 38.300781 28.976562 C 38.351562 28.9375 38.40625 28.910156 38.441406 28.863281 C 38.925781 28.222656 39.40625 27.578125 39.882812 26.933594 C 40.300781 26.375 40.605469 25.769531 40.628906 25.050781 C 40.632812 25.015625 40.65625 24.980469 40.679688 24.910156 C 40.90625 24.949219 41.132812 24.972656 41.351562 25.039062 C 41.828125 25.179688 42.007812 25.4375 41.960938 25.9375 C 41.933594 26.257812 41.878906 26.582031 41.808594 26.894531 C 41.558594 28.050781 41.386719 29.214844 41.367188 30.394531 C 41.367188 30.433594 41.351562 30.46875 41.335938 30.539062 C 41.0625 30.398438 40.792969 30.269531 40.535156 30.128906 C 40.359375 30.03125 40.242188 29.871094 40.210938 29.667969 C 40.175781 29.4375 40.15625 29.207031 40.132812 28.972656 C 40.121094 28.839844 40.121094 28.703125 40.109375 28.496094 C 39.785156 28.726562 39.578125 28.960938 39.429688 29.253906 C 39.339844 29.4375 39.261719 29.632812 39.175781 29.820312 C 38.988281 30.230469 38.695312 30.550781 38.316406 30.796875 "/>
<path style=" stroke:none;fill-rule:nonzero;fill:rgb(100%,100%,100%);fill-opacity:1;" d="M 12.621094 35.21875 C 12.382812 34.585938 12.378906 33.949219 12.476562 33.320312 C 12.683594 32.03125 12.925781 30.746094 13.148438 29.460938 C 13.210938 29.101562 13.277344 28.746094 13.296875 28.386719 C 13.316406 28.039062 13.273438 27.691406 13.257812 27.328125 C 13.800781 27.257812 14.34375 27.230469 14.863281 27.574219 C 14.882812 27.777344 14.90625 27.992188 14.929688 28.230469 C 15.175781 28.167969 15.316406 28 15.460938 27.84375 C 15.566406 27.730469 15.65625 27.601562 15.734375 27.46875 C 16.121094 26.832031 16.488281 26.664062 17.277344 26.789062 C 17.335938 27.027344 17.410156 27.277344 17.453125 27.527344 C 17.492188 27.742188 17.492188 27.964844 17.515625 28.253906 C 17.285156 28.164062 17.097656 28.101562 16.917969 28.023438 C 16.542969 27.859375 16.414062 27.878906 16.117188 28.15625 C 16.070312 28.199219 16.023438 28.246094 15.980469 28.296875 C 15.042969 29.515625 14.242188 30.804688 13.863281 32.320312 C 13.734375 32.84375 13.71875 33.371094 13.722656 33.902344 C 13.730469 34.820312 13.566406 35.019531 12.621094 35.21875 "/>
<path style=" stroke:none;fill-rule:nonzero;fill:rgb(100%,100%,100%);fill-opacity:1;" d="M 11.203125 27.613281 C 11.667969 27.671875 12.097656 27.726562 12.554688 27.785156 C 12.554688 27.859375 12.5625 27.921875 12.550781 27.980469 C 12.195312 30.113281 11.832031 32.242188 11.472656 34.371094 C 11.445312 34.523438 11.410156 34.675781 11.371094 34.824219 C 11.246094 35.28125 11.089844 35.417969 10.613281 35.460938 C 10.511719 35.46875 10.410156 35.464844 10.285156 35.464844 C 10.109375 34.953125 10.136719 34.429688 10.21875 33.925781 C 10.402344 32.738281 10.632812 31.554688 10.824219 30.367188 C 10.941406 29.628906 11.015625 28.882812 11.113281 28.140625 C 11.132812 27.976562 11.167969 27.816406 11.203125 27.613281 "/>
<path style=" stroke:none;fill-rule:nonzero;fill:rgb(100%,100%,100%);fill-opacity:1;" d="M 11.632812 27.195312 C 11.425781 26.765625 11.410156 26.382812 11.628906 25.980469 C 12.039062 25.9375 12.460938 25.902344 12.820312 26.207031 C 12.832031 26.234375 12.851562 26.257812 12.851562 26.28125 C 12.867188 27.0625 12.78125 27.160156 12.015625 27.191406 C 11.890625 27.199219 11.761719 27.195312 11.632812 27.195312 "/>
</g>
</svg>
