<?xml version="1.0" encoding="UTF-8"?>
<svg xmlns="http://www.w3.org/2000/svg" xmlns:xlink="http://www.w3.org/1999/xlink" width="56pt" height="56pt" viewBox="0 0 56 56" version="1.1">
<defs>
<clipPath id="clip1">
  <path d="M 5.101562 14.601562 L 5.601562 14.601562 L 5.601562 14.699219 L 5.101562 14.699219 Z M 5.101562 14.699219 L 6.300781 14.699219 L 6.300781 14.800781 L 5.101562 14.800781 Z M 5.199219 14.800781 L 6.898438 14.800781 L 6.898438 14.898438 L 5.199219 14.898438 Z M 5.300781 14.898438 L 7.601562 14.898438 L 7.601562 15 L 5.300781 15 Z M 5.398438 15 L 8.300781 15 L 8.300781 15.101562 L 5.398438 15.101562 Z M 5.5 15.101562 L 9 15.101562 L 9 15.199219 L 5.5 15.199219 Z M 5.601562 15.199219 L 9.699219 15.199219 L 9.699219 15.300781 L 5.601562 15.300781 Z M 5.699219 15.300781 L 10.398438 15.300781 L 10.398438 15.398438 L 5.699219 15.398438 Z M 5.800781 15.398438 L 11.101562 15.398438 L 11.101562 15.5 L 5.800781 15.5 Z M 5.898438 15.5 L 11.800781 15.5 L 11.800781 15.601562 L 5.898438 15.601562 Z M 6 15.601562 L 12.5 15.601562 L 12.5 15.699219 L 6 15.699219 Z M 6.101562 15.699219 L 13.199219 15.699219 L 13.199219 15.800781 L 6.101562 15.800781 Z M 6.101562 15.800781 L 13.898438 15.800781 L 13.898438 15.898438 L 6.101562 15.898438 Z M 6.199219 15.898438 L 14.601562 15.898438 L 14.601562 16 L 6.199219 16 Z M 6.300781 16 L 15.300781 16 L 15.300781 16.101562 L 6.300781 16.101562 Z M 6.398438 16.101562 L 16 16.101562 L 16 16.199219 L 6.398438 16.199219 Z M 6.5 16.199219 L 16.699219 16.199219 L 16.699219 16.300781 L 6.5 16.300781 Z M 6.601562 16.300781 L 17.398438 16.300781 L 17.398438 16.398438 L 6.601562 16.398438 Z M 6.601562 16.398438 L 18.101562 16.398438 L 18.101562 16.5 L 6.601562 16.5 Z M 6.699219 16.5 L 18.800781 16.5 L 18.800781 16.601562 L 6.699219 16.601562 Z M 6.800781 16.601562 L 19.601562 16.601562 L 19.601562 16.699219 L 6.800781 16.699219 Z M 6.898438 16.699219 L 20.300781 16.699219 L 20.300781 16.800781 L 6.898438 16.800781 Z M 7 16.800781 L 21 16.800781 L 21 16.898438 L 7 16.898438 Z M 7 16.898438 L 21.699219 16.898438 L 21.699219 17 L 7 17 Z M 7.101562 17 L 22.398438 17 L 22.398438 17.101562 L 7.101562 17.101562 Z M 7.199219 17.101562 L 23.101562 17.101562 L 23.101562 17.199219 L 7.199219 17.199219 Z M 7.300781 17.199219 L 23.898438 17.199219 L 23.898438 17.300781 L 7.300781 17.300781 Z M 7.300781 17.300781 L 24.601562 17.300781 L 24.601562 17.398438 L 7.300781 17.398438 Z M 7.398438 17.398438 L 25.300781 17.398438 L 25.300781 17.5 L 7.398438 17.5 Z M 7.5 17.5 L 26 17.5 L 26 17.601562 L 7.5 17.601562 Z M 7.601562 17.601562 L 26.699219 17.601562 L 26.699219 17.699219 L 7.601562 17.699219 Z M 7.601562 17.699219 L 27.5 17.699219 L 27.5 17.800781 L 7.601562 17.800781 Z M 7.699219 17.800781 L 28.199219 17.800781 L 28.199219 17.898438 L 7.699219 17.898438 Z M 7.800781 17.898438 L 28.898438 17.898438 L 28.898438 18 L 7.800781 18 Z M 7.800781 18 L 29.601562 18 L 29.601562 18.101562 L 7.800781 18.101562 Z M 7.898438 18.101562 L 30.300781 18.101562 L 30.300781 18.199219 L 7.898438 18.199219 Z M 8 18.199219 L 31.101562 18.199219 L 31.101562 18.300781 L 8 18.300781 Z M 8 18.300781 L 31.800781 18.300781 L 31.800781 18.398438 L 8 18.398438 Z M 8.101562 18.398438 L 32.5 18.398438 L 32.5 18.5 L 8.101562 18.5 Z M 8.199219 18.5 L 33.199219 18.5 L 33.199219 18.601562 L 8.199219 18.601562 Z M 8.199219 18.601562 L 34 18.601562 L 34 18.699219 L 8.199219 18.699219 Z M 8.300781 18.699219 L 34.699219 18.699219 L 34.699219 18.800781 L 8.300781 18.800781 Z M 8.300781 18.800781 L 35.398438 18.800781 L 35.398438 18.898438 L 8.300781 18.898438 Z M 8.398438 18.898438 L 36.101562 18.898438 L 36.101562 19 L 8.398438 19 Z M 8.5 19 L 36.898438 19 L 36.898438 19.101562 L 8.5 19.101562 Z M 8.5 19.101562 L 37.601562 19.101562 L 37.601562 19.199219 L 8.5 19.199219 Z M 8.601562 19.199219 L 38.300781 19.199219 L 38.300781 19.300781 L 8.601562 19.300781 Z M 8.601562 19.300781 L 39 19.300781 L 39 19.398438 L 8.601562 19.398438 Z M 8.699219 19.398438 L 39.800781 19.398438 L 39.800781 19.5 L 8.699219 19.5 Z M 8.699219 19.5 L 40.5 19.5 L 40.5 19.601562 L 8.699219 19.601562 Z M 8.800781 19.601562 L 41.199219 19.601562 L 41.199219 19.699219 L 8.800781 19.699219 Z M 8.800781 19.699219 L 41.898438 19.699219 L 41.898438 19.800781 L 8.800781 19.800781 Z M 8.898438 19.800781 L 42.699219 19.800781 L 42.699219 19.898438 L 8.898438 19.898438 Z M 9 19.898438 L 43.398438 19.898438 L 43.398438 20 L 9 20 Z M 9 20 L 44.101562 20 L 44.101562 20.101562 L 9 20.101562 Z M 9.101562 20.101562 L 44.898438 20.101562 L 44.898438 20.199219 L 9.101562 20.199219 Z M 9.101562 20.199219 L 45.601562 20.199219 L 45.601562 20.300781 L 9.101562 20.300781 Z M 9.199219 20.300781 L 46.300781 20.300781 L 46.300781 20.398438 L 9.199219 20.398438 Z M 9.199219 20.398438 L 47.101562 20.398438 L 47.101562 20.5 L 9.199219 20.5 Z M 9.300781 20.5 L 47.800781 20.5 L 47.800781 20.601562 L 9.300781 20.601562 Z M 9.300781 20.601562 L 48.5 20.601562 L 48.5 20.699219 L 9.300781 20.699219 Z M 9.398438 20.699219 L 49.199219 20.699219 L 49.199219 20.800781 L 9.398438 20.800781 Z M 9.398438 20.800781 L 50 20.800781 L 50 20.898438 L 9.398438 20.898438 Z M 9.5 20.898438 L 50.699219 20.898438 L 50.699219 21 L 9.5 21 Z M 9.5 21 L 50.898438 21 L 50.898438 21.101562 L 9.5 21.101562 Z M 9.5 21.101562 L 50.800781 21.101562 L 50.800781 21.199219 L 9.5 21.199219 Z M 9.601562 21.199219 L 50.601562 21.199219 L 50.601562 21.300781 L 9.601562 21.300781 Z M 9.601562 21.300781 L 50.398438 21.300781 L 50.398438 21.398438 L 9.601562 21.398438 Z M 9.601562 21.398438 L 50.199219 21.398438 L 50.199219 21.5 L 9.601562 21.5 Z M 9.699219 21.5 L 49.898438 21.5 L 49.898438 21.601562 L 9.699219 21.601562 Z M 9.699219 21.601562 L 49.699219 21.601562 L 49.699219 21.699219 L 9.699219 21.699219 Z M 9.800781 21.699219 L 49.5 21.699219 L 49.5 21.800781 L 9.800781 21.800781 Z M 9.800781 21.800781 L 49.300781 21.800781 L 49.300781 21.898438 L 9.800781 21.898438 Z M 9.800781 21.898438 L 49.101562 21.898438 L 49.101562 22 L 9.800781 22 Z M 9.898438 22 L 48.898438 22 L 48.898438 22.101562 L 9.898438 22.101562 Z M 9.898438 22.101562 L 48.699219 22.101562 L 48.699219 22.199219 L 9.898438 22.199219 Z M 9.898438 22.199219 L 48.5 22.199219 L 48.5 22.300781 L 9.898438 22.300781 Z M 10 22.300781 L 48.199219 22.300781 L 48.199219 22.398438 L 10 22.398438 Z M 10 22.398438 L 48 22.398438 L 48 22.5 L 10 22.5 Z M 10.101562 22.5 L 47.800781 22.5 L 47.800781 22.601562 L 10.101562 22.601562 Z M 10.101562 22.601562 L 47.601562 22.601562 L 47.601562 22.699219 L 10.101562 22.699219 Z M 10.101562 22.699219 L 47.398438 22.699219 L 47.398438 22.800781 L 10.101562 22.800781 Z M 10.199219 22.800781 L 47.199219 22.800781 L 47.199219 22.898438 L 10.199219 22.898438 Z M 10.199219 22.898438 L 47 22.898438 L 47 23 L 10.199219 23 Z M 10.199219 23 L 46.800781 23 L 46.800781 23.101562 L 10.199219 23.101562 Z M 10.199219 23.101562 L 46.5 23.101562 L 46.5 23.199219 L 10.199219 23.199219 Z M 10.300781 23.199219 L 46.300781 23.199219 L 46.300781 23.300781 L 10.300781 23.300781 Z M 10.300781 23.300781 L 46.101562 23.300781 L 46.101562 23.398438 L 10.300781 23.398438 Z M 10.300781 23.398438 L 45.898438 23.398438 L 45.898438 23.5 L 10.300781 23.5 Z M 10.300781 23.5 L 45.699219 23.5 L 45.699219 23.601562 L 10.300781 23.601562 Z M 10.398438 23.601562 L 45.5 23.601562 L 45.5 23.699219 L 10.398438 23.699219 Z M 10.398438 23.699219 L 45.300781 23.699219 L 45.300781 23.800781 L 10.398438 23.800781 Z M 10.398438 23.800781 L 45.101562 23.800781 L 45.101562 23.898438 L 10.398438 23.898438 Z M 10.398438 23.898438 L 44.800781 23.898438 L 44.800781 24 L 10.398438 24 Z M 10.5 24 L 44.601562 24 L 44.601562 24.101562 L 10.5 24.101562 Z M 10.5 24.101562 L 44.398438 24.101562 L 44.398438 24.199219 L 10.5 24.199219 Z M 10.5 24.199219 L 44.199219 24.199219 L 44.199219 24.300781 L 10.5 24.300781 Z M 10.5 24.300781 L 44 24.300781 L 44 24.398438 L 10.5 24.398438 Z M 10.601562 24.398438 L 43.800781 24.398438 L 43.800781 24.5 L 10.601562 24.5 Z M 10.601562 24.5 L 43.601562 24.5 L 43.601562 24.601562 L 10.601562 24.601562 Z M 10.601562 24.601562 L 43.398438 24.601562 L 43.398438 24.699219 L 10.601562 24.699219 Z M 10.601562 24.699219 L 43.101562 24.699219 L 43.101562 24.800781 L 10.601562 24.800781 Z M 10.699219 24.800781 L 42.898438 24.800781 L 42.898438 24.898438 L 10.699219 24.898438 Z M 10.699219 24.898438 L 42.699219 24.898438 L 42.699219 25 L 10.699219 25 Z M 10.699219 25 L 42.5 25 L 42.5 25.101562 L 10.699219 25.101562 Z M 10.699219 25.101562 L 42.300781 25.101562 L 42.300781 25.199219 L 10.699219 25.199219 Z M 10.699219 25.199219 L 42.101562 25.199219 L 42.101562 25.300781 L 10.699219 25.300781 Z M 10.699219 25.300781 L 41.898438 25.300781 L 41.898438 25.398438 L 10.699219 25.398438 Z M 10.800781 25.398438 L 41.699219 25.398438 L 41.699219 25.5 L 10.800781 25.5 Z M 10.800781 25.5 L 41.398438 25.5 L 41.398438 25.601562 L 10.800781 25.601562 Z M 10.800781 25.601562 L 41.199219 25.601562 L 41.199219 25.699219 L 10.800781 25.699219 Z M 10.800781 25.699219 L 41 25.699219 L 41 25.800781 L 10.800781 25.800781 Z M 10.800781 25.800781 L 40.800781 25.800781 L 40.800781 25.898438 L 10.800781 25.898438 Z M 10.800781 25.898438 L 40.601562 25.898438 L 40.601562 26 L 10.800781 26 Z M 10.800781 26 L 40.398438 26 L 40.398438 26.101562 L 10.800781 26.101562 Z M 10.898438 26.101562 L 40.199219 26.101562 L 40.199219 26.199219 L 10.898438 26.199219 Z M 10.898438 26.199219 L 40 26.199219 L 40 26.300781 L 10.898438 26.300781 Z M 10.898438 26.300781 L 39.699219 26.300781 L 39.699219 26.398438 L 10.898438 26.398438 Z M 10.898438 26.398438 L 39.5 26.398438 L 39.5 26.5 L 10.898438 26.5 Z M 10.898438 26.5 L 39.300781 26.5 L 39.300781 26.601562 L 10.898438 26.601562 Z M 10.898438 26.601562 L 39.101562 26.601562 L 39.101562 26.699219 L 10.898438 26.699219 Z M 11 26.699219 L 38.898438 26.699219 L 38.898438 26.800781 L 11 26.800781 Z M 11 26.800781 L 38.699219 26.800781 L 38.699219 26.898438 L 11 26.898438 Z M 11 26.898438 L 38.5 26.898438 L 38.5 27 L 11 27 Z M 11 27 L 38.300781 27 L 38.300781 27.101562 L 11 27.101562 Z M 11 27.101562 L 38 27.101562 L 38 27.199219 L 11 27.199219 Z M 11 27.199219 L 37.800781 27.199219 L 37.800781 27.300781 L 11 27.300781 Z M 11 27.300781 L 37.601562 27.300781 L 37.601562 27.398438 L 11 27.398438 Z M 11 27.398438 L 37.398438 27.398438 L 37.398438 27.5 L 11 27.5 Z M 11 27.5 L 37.199219 27.5 L 37.199219 27.601562 L 11 27.601562 Z M 11 27.601562 L 37 27.601562 L 37 27.699219 L 11 27.699219 Z M 11 27.699219 L 36.800781 27.699219 L 36.800781 27.800781 L 11 27.800781 Z M 11 27.800781 L 36.601562 27.800781 L 36.601562 27.898438 L 11 27.898438 Z M 11.101562 27.898438 L 36.300781 27.898438 L 36.300781 28 L 11.101562 28 Z M 11.101562 28 L 36.101562 28 L 36.101562 28.101562 L 11.101562 28.101562 Z M 11.101562 28.101562 L 35.898438 28.101562 L 35.898438 28.199219 L 11.101562 28.199219 Z M 11.101562 28.199219 L 35.699219 28.199219 L 35.699219 28.300781 L 11.101562 28.300781 Z M 11.101562 28.300781 L 35.5 28.300781 L 35.5 28.398438 L 11.101562 28.398438 Z M 11.101562 28.398438 L 35.300781 28.398438 L 35.300781 28.5 L 11.101562 28.5 Z M 11.101562 28.5 L 35.101562 28.5 L 35.101562 28.601562 L 11.101562 28.601562 Z M 11.101562 28.601562 L 34.898438 28.601562 L 34.898438 28.699219 L 11.101562 28.699219 Z M 11.101562 28.699219 L 34.699219 28.699219 L 34.699219 28.800781 L 11.101562 28.800781 Z M 11.101562 28.800781 L 34.398438 28.800781 L 34.398438 28.898438 L 11.101562 28.898438 Z M 11.101562 28.898438 L 34.199219 28.898438 L 34.199219 29 L 11.101562 29 Z M 11.101562 29 L 34 29 L 34 29.101562 L 11.101562 29.101562 Z M 11.101562 29.101562 L 33.800781 29.101562 L 33.800781 29.199219 L 11.101562 29.199219 Z M 11.101562 29.199219 L 33.601562 29.199219 L 33.601562 29.300781 L 11.101562 29.300781 Z M 11.101562 29.300781 L 33.398438 29.300781 L 33.398438 29.398438 L 11.101562 29.398438 Z M 11.101562 29.398438 L 33.199219 29.398438 L 33.199219 29.5 L 11.101562 29.5 Z M 11.101562 29.5 L 33 29.5 L 33 29.601562 L 11.101562 29.601562 Z M 11.101562 29.601562 L 32.699219 29.601562 L 32.699219 29.699219 L 11.101562 29.699219 Z M 11.101562 29.699219 L 32.5 29.699219 L 32.5 29.800781 L 11.101562 29.800781 Z M 11.101562 29.800781 L 32.300781 29.800781 L 32.300781 29.898438 L 11.101562 29.898438 Z M 11.101562 29.898438 L 32.101562 29.898438 L 32.101562 30 L 11.101562 30 Z M 11.101562 30 L 31.898438 30 L 31.898438 30.101562 L 11.101562 30.101562 Z M 11.101562 30.101562 L 31.699219 30.101562 L 31.699219 30.199219 L 11.101562 30.199219 Z M 11.101562 30.199219 L 31.5 30.199219 L 31.5 30.300781 L 11.101562 30.300781 Z M 11.101562 30.300781 L 31.300781 30.300781 L 31.300781 30.398438 L 11.101562 30.398438 Z M 11.101562 30.398438 L 31 30.398438 L 31 30.5 L 11.101562 30.5 Z M 11.101562 30.5 L 30.800781 30.5 L 30.800781 30.601562 L 11.101562 30.601562 Z M 11.101562 30.601562 L 30.601562 30.601562 L 30.601562 30.699219 L 11.101562 30.699219 Z M 11.101562 30.699219 L 30.398438 30.699219 L 30.398438 30.800781 L 11.101562 30.800781 Z M 11.101562 30.800781 L 30.199219 30.800781 L 30.199219 30.898438 L 11.101562 30.898438 Z M 11 30.898438 L 30 30.898438 L 30 31 L 11 31 Z M 11 31 L 29.800781 31 L 29.800781 31.101562 L 11 31.101562 Z M 11 31.101562 L 29.601562 31.101562 L 29.601562 31.199219 L 11 31.199219 Z M 11 31.199219 L 29.300781 31.199219 L 29.300781 31.300781 L 11 31.300781 Z M 11 31.300781 L 29.101562 31.300781 L 29.101562 31.398438 L 11 31.398438 Z M 11 31.398438 L 28.898438 31.398438 L 28.898438 31.5 L 11 31.5 Z M 11 31.5 L 28.699219 31.5 L 28.699219 31.601562 L 11 31.601562 Z M 10.898438 31.601562 L 28.5 31.601562 L 28.5 31.699219 L 10.898438 31.699219 Z M 10.898438 31.699219 L 28.300781 31.699219 L 28.300781 31.800781 L 10.898438 31.800781 Z M 10.898438 31.800781 L 28.101562 31.800781 L 28.101562 31.898438 L 10.898438 31.898438 Z M 10.898438 31.898438 L 27.898438 31.898438 L 27.898438 32 L 10.898438 32 Z M 10.898438 32 L 27.601562 32 L 27.601562 32.101562 L 10.898438 32.101562 Z M 10.898438 32.101562 L 27.398438 32.101562 L 27.398438 32.199219 L 10.898438 32.199219 Z M 10.898438 32.199219 L 27.199219 32.199219 L 27.199219 32.300781 L 10.898438 32.300781 Z M 10.800781 32.300781 L 27 32.300781 L 27 32.398438 L 10.800781 32.398438 Z M 10.800781 32.398438 L 26.800781 32.398438 L 26.800781 32.5 L 10.800781 32.5 Z M 10.800781 32.5 L 26.601562 32.5 L 26.601562 32.601562 L 10.800781 32.601562 Z M 10.800781 32.601562 L 26.398438 32.601562 L 26.398438 32.699219 L 10.800781 32.699219 Z M 10.800781 32.699219 L 26.199219 32.699219 L 26.199219 32.800781 L 10.800781 32.800781 Z M 10.699219 32.800781 L 25.898438 32.800781 L 25.898438 32.898438 L 10.699219 32.898438 Z M 10.699219 32.898438 L 25.699219 32.898438 L 25.699219 33 L 10.699219 33 Z M 10.699219 33 L 25.5 33 L 25.5 33.101562 L 10.699219 33.101562 Z M 10.699219 33.101562 L 25.300781 33.101562 L 25.300781 33.199219 L 10.699219 33.199219 Z M 10.699219 33.199219 L 25.101562 33.199219 L 25.101562 33.300781 L 10.699219 33.300781 Z M 10.601562 33.300781 L 24.898438 33.300781 L 24.898438 33.398438 L 10.601562 33.398438 Z M 10.601562 33.398438 L 24.699219 33.398438 L 24.699219 33.5 L 10.601562 33.5 Z M 10.601562 33.5 L 24.5 33.5 L 24.5 33.601562 L 10.601562 33.601562 Z M 10.601562 33.601562 L 24.199219 33.601562 L 24.199219 33.699219 L 10.601562 33.699219 Z M 10.601562 33.699219 L 24 33.699219 L 24 33.800781 L 10.601562 33.800781 Z M 10.5 33.800781 L 23.800781 33.800781 L 23.800781 33.898438 L 10.5 33.898438 Z M 10.5 33.898438 L 23.601562 33.898438 L 23.601562 34 L 10.5 34 Z M 10.5 34 L 23.398438 34 L 23.398438 34.101562 L 10.5 34.101562 Z M 10.5 34.101562 L 23.199219 34.101562 L 23.199219 34.199219 L 10.5 34.199219 Z M 10.398438 34.199219 L 23 34.199219 L 23 34.300781 L 10.398438 34.300781 Z M 10.398438 34.300781 L 22.800781 34.300781 L 22.800781 34.398438 L 10.398438 34.398438 Z M 10.398438 34.398438 L 22.5 34.398438 L 22.5 34.5 L 10.398438 34.5 Z M 10.398438 34.5 L 22.300781 34.5 L 22.300781 34.601562 L 10.398438 34.601562 Z M 10.300781 34.601562 L 22.101562 34.601562 L 22.101562 34.699219 L 10.300781 34.699219 Z M 10.300781 34.699219 L 21.898438 34.699219 L 21.898438 34.800781 L 10.300781 34.800781 Z M 10.300781 34.800781 L 21.699219 34.800781 L 21.699219 34.898438 L 10.300781 34.898438 Z M 10.199219 34.898438 L 21.5 34.898438 L 21.5 35 L 10.199219 35 Z M 10.199219 35 L 21.300781 35 L 21.300781 35.101562 L 10.199219 35.101562 Z M 10.199219 35.101562 L 21.101562 35.101562 L 21.101562 35.199219 L 10.199219 35.199219 Z M 10.199219 35.199219 L 20.800781 35.199219 L 20.800781 35.300781 L 10.199219 35.300781 Z M 10.101562 35.300781 L 20.601562 35.300781 L 20.601562 35.398438 L 10.101562 35.398438 Z M 10.101562 35.398438 L 20.398438 35.398438 L 20.398438 35.5 L 10.101562 35.5 Z M 10.101562 35.5 L 20.199219 35.5 L 20.199219 35.601562 L 10.101562 35.601562 Z M 10 35.601562 L 20 35.601562 L 20 35.699219 L 10 35.699219 Z M 10 35.699219 L 19.800781 35.699219 L 19.800781 35.800781 L 10 35.800781 Z M 10 35.800781 L 19.601562 35.800781 L 19.601562 35.898438 L 10 35.898438 Z M 9.898438 35.898438 L 19.398438 35.898438 L 19.398438 36 L 9.898438 36 Z M 9.898438 36 L 19.101562 36 L 19.101562 36.101562 L 9.898438 36.101562 Z M 9.898438 36.101562 L 18.898438 36.101562 L 18.898438 36.199219 L 9.898438 36.199219 Z M 9.800781 36.199219 L 18.699219 36.199219 L 18.699219 36.300781 L 9.800781 36.300781 Z M 9.800781 36.300781 L 18.5 36.300781 L 18.5 36.398438 L 9.800781 36.398438 Z M 9.800781 36.398438 L 18.300781 36.398438 L 18.300781 36.5 L 9.800781 36.5 Z M 9.699219 36.5 L 18.101562 36.5 L 18.101562 36.601562 L 9.699219 36.601562 Z M 9.699219 36.601562 L 17.898438 36.601562 L 17.898438 36.699219 L 9.699219 36.699219 Z M 9.699219 36.699219 L 17.699219 36.699219 L 17.699219 36.800781 L 9.699219 36.800781 Z M 9.601562 36.800781 L 17.5 36.800781 L 17.5 36.898438 L 9.601562 36.898438 Z M 9.601562 36.898438 L 17.199219 36.898438 L 17.199219 37 L 9.601562 37 Z M 9.601562 37 L 17 37 L 17 37.101562 L 9.601562 37.101562 Z M 9.5 37.101562 L 16.800781 37.101562 L 16.800781 37.199219 L 9.5 37.199219 Z M 9.5 37.199219 L 16.601562 37.199219 L 16.601562 37.300781 L 9.5 37.300781 Z M 9.5 37.300781 L 16.398438 37.300781 L 16.398438 37.398438 L 9.5 37.398438 Z M 9.398438 37.398438 L 16.199219 37.398438 L 16.199219 37.5 L 9.398438 37.5 Z M 9.398438 37.5 L 16 37.5 L 16 37.601562 L 9.398438 37.601562 Z M 9.398438 37.601562 L 15.800781 37.601562 L 15.800781 37.699219 L 9.398438 37.699219 Z M 9.300781 37.699219 L 15.5 37.699219 L 15.5 37.800781 L 9.300781 37.800781 Z M 9.300781 37.800781 L 15.300781 37.800781 L 15.300781 37.898438 L 9.300781 37.898438 Z M 9.199219 37.898438 L 15.101562 37.898438 L 15.101562 38 L 9.199219 38 Z M 9.199219 38 L 14.898438 38 L 14.898438 38.101562 L 9.199219 38.101562 Z M 9.199219 38.101562 L 14.699219 38.101562 L 14.699219 38.199219 L 9.199219 38.199219 Z M 9.101562 38.199219 L 14.5 38.199219 L 14.5 38.300781 L 9.101562 38.300781 Z M 9.101562 38.300781 L 14.300781 38.300781 L 14.300781 38.398438 L 9.101562 38.398438 Z M 9 38.398438 L 14.101562 38.398438 L 14.101562 38.5 L 9 38.5 Z M 9 38.5 L 13.800781 38.5 L 13.800781 38.601562 L 9 38.601562 Z M 9 38.601562 L 13.601562 38.601562 L 13.601562 38.699219 L 9 38.699219 Z M 8.898438 38.699219 L 13.398438 38.699219 L 13.398438 38.800781 L 8.898438 38.800781 Z M 8.898438 38.800781 L 13.199219 38.800781 L 13.199219 38.898438 L 8.898438 38.898438 Z M 8.800781 38.898438 L 13 38.898438 L 13 39 L 8.800781 39 Z M 8.800781 39 L 12.800781 39 L 12.800781 39.101562 L 8.800781 39.101562 Z M 8.699219 39.101562 L 12.601562 39.101562 L 12.601562 39.199219 L 8.699219 39.199219 Z M 8.699219 39.199219 L 12.398438 39.199219 L 12.398438 39.300781 L 8.699219 39.300781 Z M 8.601562 39.300781 L 12.101562 39.300781 L 12.101562 39.398438 L 8.601562 39.398438 Z M 8.601562 39.398438 L 11.898438 39.398438 L 11.898438 39.5 L 8.601562 39.5 Z M 8.601562 39.5 L 11.699219 39.5 L 11.699219 39.601562 L 8.601562 39.601562 Z M 8.5 39.601562 L 11.5 39.601562 L 11.5 39.699219 L 8.5 39.699219 Z M 8.5 39.699219 L 11.300781 39.699219 L 11.300781 39.800781 L 8.5 39.800781 Z M 8.398438 39.800781 L 11.101562 39.800781 L 11.101562 39.898438 L 8.398438 39.898438 Z M 8.398438 39.898438 L 10.898438 39.898438 L 10.898438 40 L 8.398438 40 Z M 8.300781 40 L 10.699219 40 L 10.699219 40.101562 L 8.300781 40.101562 Z M 8.300781 40.101562 L 10.398438 40.101562 L 10.398438 40.199219 L 8.300781 40.199219 Z M 8.199219 40.199219 L 10.199219 40.199219 L 10.199219 40.300781 L 8.199219 40.300781 Z M 8.199219 40.300781 L 10 40.300781 L 10 40.398438 L 8.199219 40.398438 Z M 8.101562 40.398438 L 9.800781 40.398438 L 9.800781 40.5 L 8.101562 40.5 Z M 8.101562 40.5 L 9.601562 40.5 L 9.601562 40.601562 L 8.101562 40.601562 Z M 8 40.601562 L 9.398438 40.601562 L 9.398438 40.699219 L 8 40.699219 Z M 8 40.699219 L 9.199219 40.699219 L 9.199219 40.800781 L 8 40.800781 Z M 7.898438 40.800781 L 9 40.800781 L 9 40.898438 L 7.898438 40.898438 Z M 7.898438 40.898438 L 8.699219 40.898438 L 8.699219 41 L 7.898438 41 Z M 7.800781 41 L 8.5 41 L 8.5 41.101562 L 7.800781 41.101562 Z M 7.699219 41.101562 L 8.300781 41.101562 L 8.300781 41.199219 L 7.699219 41.199219 Z M 7.699219 41.199219 L 8.101562 41.199219 L 8.101562 41.300781 L 7.699219 41.300781 Z M 7.601562 41.300781 L 7.898438 41.300781 L 7.898438 41.398438 L 7.601562 41.398438 Z M 7.601562 41.300781 "/>
</clipPath>
<clipPath id="clip2">
  <path d="M 50.886719 21.03125 C 50.886719 21.03125 13.246094 15.894531 5.113281 14.628906 C 8.765625 18.335938 11.113281 22.625 11.171875 29.421875 C 11.203125 33.207031 9.441406 38.359375 7.699219 41.367188 Z M 50.886719 21.03125 "/>
</clipPath>
<clipPath id="clip3">
  <path d="M 50.886719 21.03125 C 50.886719 21.03125 13.246094 15.894531 5.113281 14.628906 C 8.765625 18.335938 11.113281 22.625 11.171875 29.421875 C 11.203125 33.207031 9.441406 38.359375 7.699219 41.367188 L 50.886719 21.03125 "/>
</clipPath>
<linearGradient id="linear0" gradientUnits="userSpaceOnUse" x1="-0.619534" y1="0" x2="0.999995" y2="0" gradientTransform="matrix(-14.215,-24.6211,-24.6211,14.215,30.2882,32.9235)">
<stop offset="0" style="stop-color:rgb(63.922119%,84.147644%,11.317444%);stop-opacity:1;"/>
<stop offset="0.25" style="stop-color:rgb(63.922119%,84.147644%,11.317444%);stop-opacity:1;"/>
<stop offset="0.375" style="stop-color:rgb(63.922119%,84.147644%,11.317444%);stop-opacity:1;"/>
<stop offset="0.390625" style="stop-color:rgb(63.760376%,84.100342%,11.367798%);stop-opacity:1;"/>
<stop offset="0.398438" style="stop-color:rgb(63.439941%,84.004211%,11.468506%);stop-opacity:1;"/>
<stop offset="0.40625" style="stop-color:rgb(63.124084%,83.909607%,11.567688%);stop-opacity:1;"/>
<stop offset="0.414062" style="stop-color:rgb(62.809753%,83.816528%,11.665344%);stop-opacity:1;"/>
<stop offset="0.421875" style="stop-color:rgb(62.493896%,83.721924%,11.764526%);stop-opacity:1;"/>
<stop offset="0.429687" style="stop-color:rgb(62.179565%,83.628845%,11.863708%);stop-opacity:1;"/>
<stop offset="0.4375" style="stop-color:rgb(61.865234%,83.535767%,11.961365%);stop-opacity:1;"/>
<stop offset="0.445312" style="stop-color:rgb(61.549377%,83.441162%,12.060547%);stop-opacity:1;"/>
<stop offset="0.453125" style="stop-color:rgb(61.235046%,83.346558%,12.159729%);stop-opacity:1;"/>
<stop offset="0.460938" style="stop-color:rgb(60.920715%,83.253479%,12.258911%);stop-opacity:1;"/>
<stop offset="0.46875" style="stop-color:rgb(60.604858%,83.158875%,12.358093%);stop-opacity:1;"/>
<stop offset="0.476562" style="stop-color:rgb(60.290527%,83.065796%,12.45575%);stop-opacity:1;"/>
<stop offset="0.484375" style="stop-color:rgb(59.976196%,82.972717%,12.554932%);stop-opacity:1;"/>
<stop offset="0.488281" style="stop-color:rgb(59.608459%,82.862854%,12.669373%);stop-opacity:1;"/>
<stop offset="0.492188" style="stop-color:rgb(59.397888%,82.800293%,12.736511%);stop-opacity:1;"/>
<stop offset="0.496094" style="stop-color:rgb(59.09729%,82.710266%,12.831116%);stop-opacity:1;"/>
<stop offset="0.5" style="stop-color:rgb(58.795166%,82.620239%,12.92572%);stop-opacity:1;"/>
<stop offset="0.507812" style="stop-color:rgb(58.638%,82.572937%,12.974548%);stop-opacity:1;"/>
<stop offset="0.515625" style="stop-color:rgb(58.323669%,82.479858%,13.07373%);stop-opacity:1;"/>
<stop offset="0.523438" style="stop-color:rgb(58.009338%,82.38678%,13.171387%);stop-opacity:1;"/>
<stop offset="0.53125" style="stop-color:rgb(57.693481%,82.292175%,13.270569%);stop-opacity:1;"/>
<stop offset="0.539062" style="stop-color:rgb(57.37915%,82.197571%,13.369751%);stop-opacity:1;"/>
<stop offset="0.546875" style="stop-color:rgb(57.064819%,82.104492%,13.467407%);stop-opacity:1;"/>
<stop offset="0.554688" style="stop-color:rgb(56.748962%,82.009888%,13.566589%);stop-opacity:1;"/>
<stop offset="0.5625" style="stop-color:rgb(56.434631%,81.916809%,13.665771%);stop-opacity:1;"/>
<stop offset="0.566406" style="stop-color:rgb(56.060791%,81.80542%,13.783264%);stop-opacity:1;"/>
<stop offset="0.570312" style="stop-color:rgb(55.844116%,81.741333%,13.850403%);stop-opacity:1;"/>
<stop offset="0.574219" style="stop-color:rgb(55.549622%,81.652832%,13.943481%);stop-opacity:1;"/>
<stop offset="0.578125" style="stop-color:rgb(55.255127%,81.565857%,14.035034%);stop-opacity:1;"/>
<stop offset="0.585938" style="stop-color:rgb(55.097961%,81.518555%,14.085388%);stop-opacity:1;"/>
<stop offset="0.59375" style="stop-color:rgb(54.78363%,81.425476%,14.183044%);stop-opacity:1;"/>
<stop offset="0.601562" style="stop-color:rgb(54.467773%,81.330872%,14.282227%);stop-opacity:1;"/>
<stop offset="0.609375" style="stop-color:rgb(54.153442%,81.236267%,14.381409%);stop-opacity:1;"/>
<stop offset="0.617188" style="stop-color:rgb(53.814697%,81.135559%,14.48822%);stop-opacity:1;"/>
<stop offset="0.621094" style="stop-color:rgb(53.320312%,80.989075%,14.642334%);stop-opacity:1;"/>
<stop offset="0.625" style="stop-color:rgb(53.004456%,80.89447%,14.741516%);stop-opacity:1;"/>
<stop offset="0.640625" style="stop-color:rgb(52.870178%,80.854797%,14.784241%);stop-opacity:1;"/>
<stop offset="0.648438" style="stop-color:rgb(52.578735%,80.767822%,14.875793%);stop-opacity:1;"/>
<stop offset="0.65625" style="stop-color:rgb(52.238464%,80.665588%,14.982605%);stop-opacity:1;"/>
<stop offset="0.660156" style="stop-color:rgb(51.739502%,80.517578%,15.138245%);stop-opacity:1;"/>
<stop offset="0.664063" style="stop-color:rgb(51.425171%,80.4245%,15.237427%);stop-opacity:1;"/>
<stop offset="0.671875" style="stop-color:rgb(51.255798%,80.374146%,15.290833%);stop-opacity:1;"/>
<stop offset="0.679688" style="stop-color:rgb(50.927734%,80.274963%,15.393066%);stop-opacity:1;"/>
<stop offset="0.6875" style="stop-color:rgb(50.611877%,80.181885%,15.492249%);stop-opacity:1;"/>
<stop offset="0.695312" style="stop-color:rgb(50.297546%,80.08728%,15.591431%);stop-opacity:1;"/>
<stop offset="0.703125" style="stop-color:rgb(49.981689%,79.994202%,15.690613%);stop-opacity:1;"/>
<stop offset="0.710938" style="stop-color:rgb(49.667358%,79.899597%,15.788269%);stop-opacity:1;"/>
<stop offset="0.71875" style="stop-color:rgb(49.353027%,79.806519%,15.887451%);stop-opacity:1;"/>
<stop offset="0.726562" style="stop-color:rgb(49.03717%,79.711914%,15.986633%);stop-opacity:1;"/>
<stop offset="0.734375" style="stop-color:rgb(48.722839%,79.618835%,16.08429%);stop-opacity:1;"/>
<stop offset="0.742188" style="stop-color:rgb(48.408508%,79.524231%,16.183472%);stop-opacity:1;"/>
<stop offset="0.75" style="stop-color:rgb(48.092651%,79.431152%,16.282654%);stop-opacity:1;"/>
<stop offset="0.757812" style="stop-color:rgb(47.77832%,79.336548%,16.381836%);stop-opacity:1;"/>
<stop offset="0.765625" style="stop-color:rgb(47.463989%,79.243469%,16.479492%);stop-opacity:1;"/>
<stop offset="0.773437" style="stop-color:rgb(47.148132%,79.148865%,16.578674%);stop-opacity:1;"/>
<stop offset="0.78125" style="stop-color:rgb(46.833801%,79.055786%,16.677856%);stop-opacity:1;"/>
<stop offset="0.789062" style="stop-color:rgb(46.517944%,78.961182%,16.777039%);stop-opacity:1;"/>
<stop offset="0.796875" style="stop-color:rgb(46.203613%,78.868103%,16.874695%);stop-opacity:1;"/>
<stop offset="0.804688" style="stop-color:rgb(45.889282%,78.773499%,16.973877%);stop-opacity:1;"/>
<stop offset="0.8125" style="stop-color:rgb(45.573425%,78.68042%,17.073059%);stop-opacity:1;"/>
<stop offset="0.820312" style="stop-color:rgb(45.259094%,78.585815%,17.170715%);stop-opacity:1;"/>
<stop offset="0.828125" style="stop-color:rgb(44.944763%,78.492737%,17.269897%);stop-opacity:1;"/>
<stop offset="0.835938" style="stop-color:rgb(44.628906%,78.398132%,17.36908%);stop-opacity:1;"/>
<stop offset="0.84375" style="stop-color:rgb(44.314575%,78.305054%,17.468262%);stop-opacity:1;"/>
<stop offset="0.851562" style="stop-color:rgb(44.000244%,78.211975%,17.565918%);stop-opacity:1;"/>
<stop offset="0.859375" style="stop-color:rgb(43.684387%,78.117371%,17.6651%);stop-opacity:1;"/>
<stop offset="0.867188" style="stop-color:rgb(43.370056%,78.022766%,17.764282%);stop-opacity:1;"/>
<stop offset="0.875" style="stop-color:rgb(43.054199%,77.929688%,17.863464%);stop-opacity:1;"/>
<stop offset="0.882813" style="stop-color:rgb(42.739868%,77.835083%,17.961121%);stop-opacity:1;"/>
<stop offset="0.890625" style="stop-color:rgb(42.425537%,77.742004%,18.060303%);stop-opacity:1;"/>
<stop offset="0.898438" style="stop-color:rgb(42.10968%,77.6474%,18.159485%);stop-opacity:1;"/>
<stop offset="0.90625" style="stop-color:rgb(41.795349%,77.554321%,18.258667%);stop-opacity:1;"/>
<stop offset="0.914062" style="stop-color:rgb(41.481018%,77.461243%,18.356323%);stop-opacity:1;"/>
<stop offset="0.921875" style="stop-color:rgb(41.165161%,77.366638%,18.455505%);stop-opacity:1;"/>
<stop offset="0.929688" style="stop-color:rgb(40.85083%,77.272034%,18.554688%);stop-opacity:1;"/>
<stop offset="0.9375" style="stop-color:rgb(40.536499%,77.178955%,18.652344%);stop-opacity:1;"/>
<stop offset="0.945312" style="stop-color:rgb(40.220642%,77.084351%,18.751526%);stop-opacity:1;"/>
<stop offset="0.953125" style="stop-color:rgb(39.906311%,76.991272%,18.850708%);stop-opacity:1;"/>
<stop offset="0.960938" style="stop-color:rgb(39.590454%,76.896667%,18.94989%);stop-opacity:1;"/>
<stop offset="0.96875" style="stop-color:rgb(39.276123%,76.803589%,19.049072%);stop-opacity:1;"/>
<stop offset="0.976562" style="stop-color:rgb(38.961792%,76.71051%,19.146729%);stop-opacity:1;"/>
<stop offset="0.984375" style="stop-color:rgb(38.645935%,76.615906%,19.245911%);stop-opacity:1;"/>
<stop offset="0.992188" style="stop-color:rgb(38.331604%,76.521301%,19.345093%);stop-opacity:1;"/>
<stop offset="1" style="stop-color:rgb(38.1073%,76.455688%,19.415283%);stop-opacity:1;"/>
</linearGradient>
</defs>
<g id="surface1">
<rect x="0" y="0" width="56" height="56" style="fill:rgb(11.155701%,11.036682%,11.209106%);fill-opacity:1;stroke:none;"/>
<path style=" stroke:none;fill-rule:nonzero;fill:rgb(94.389343%,93.711853%,11.31897%);fill-opacity:1;" d="M 26.992188 29.113281 C 26.972656 29.132812 26.953125 29.132812 26.953125 29.148438 C 26.953125 29.132812 26.972656 29.113281 26.992188 29.113281 "/>
<g clip-path="url(#clip1)" clip-rule="nonzero">
<g clip-path="url(#clip2)" clip-rule="nonzero">
<g clip-path="url(#clip3)" clip-rule="nonzero">
<path style=" stroke:none;fill-rule:nonzero;fill:url(#linear0);" d="M 62.464844 34.683594 L 16.554688 61.191406 L -6.464844 21.316406 L 39.441406 -5.191406 Z M 62.464844 34.683594 "/>
</g>
</g>
</g>
</g>
</svg>
