<?xml version="1.0" encoding="UTF-8"?>
<svg xmlns="http://www.w3.org/2000/svg" xmlns:xlink="http://www.w3.org/1999/xlink" width="56pt" height="56pt" viewBox="0 0 56 56" version="1.1">
<g id="surface1">
<rect x="0" y="0" width="56" height="56" style="fill:rgb(96.937561%,93.112183%,3.788757%);fill-opacity:1;stroke:none;"/>
<path style=" stroke:none;fill-rule:nonzero;fill:rgb(12.860107%,11.213684%,11.195374%);fill-opacity:1;" d="M 28.46875 22.507812 C 28.605469 21.796875 28.765625 21.09375 28.917969 20.382812 C 30.082031 20.386719 31.246094 20.386719 32.40625 20.382812 C 32.257812 21.082031 32.101562 21.777344 31.972656 22.480469 C 30.804688 22.535156 29.636719 22.492188 28.46875 22.507812 "/>
<path style=" stroke:none;fill-rule:nonzero;fill:rgb(12.860107%,11.213684%,11.195374%);fill-opacity:1;" d="M 42.59375 22.46875 C 42.730469 21.769531 42.894531 21.082031 43.039062 20.386719 C 44.203125 20.382812 45.363281 20.390625 46.53125 20.382812 C 46.375 21.089844 46.226562 21.796875 46.078125 22.507812 C 44.917969 22.484375 43.75 22.554688 42.59375 22.46875 "/>
<path style=" stroke:none;fill-rule:nonzero;fill:rgb(12.860107%,11.213684%,11.195374%);fill-opacity:1;" d="M 49.523438 20.675781 C 50.683594 20.683594 51.84375 20.679688 53.007812 20.679688 C 52.808594 21.621094 52.621094 22.558594 52.410156 23.496094 C 53.175781 23.496094 53.945312 23.5 54.714844 23.492188 C 54.542969 24.265625 54.390625 25.035156 54.21875 25.804688 C 53.453125 25.800781 52.6875 25.804688 51.925781 25.804688 C 51.660156 27.050781 51.386719 28.296875 51.128906 29.542969 C 51.0625 29.785156 51.070312 30.152344 51.375 30.21875 C 52.023438 30.359375 52.691406 30.265625 53.34375 30.246094 C 53.175781 30.96875 53.054688 31.703125 52.863281 32.417969 C 51.78125 32.609375 50.675781 32.613281 49.585938 32.59375 C 48.949219 32.542969 48.222656 32.472656 47.753906 31.984375 C 47.316406 31.519531 47.390625 30.824219 47.484375 30.246094 C 47.800781 28.765625 48.117188 27.285156 48.425781 25.800781 C 47.820312 25.804688 47.214844 25.796875 46.609375 25.8125 C 46.765625 25.039062 46.949219 24.269531 47.09375 23.492188 C 47.699219 23.5 48.304688 23.492188 48.914062 23.5 C 49.121094 22.5625 49.3125 21.617188 49.523438 20.675781 "/>
<path style=" stroke:none;fill-rule:nonzero;fill:rgb(12.860107%,11.213684%,11.195374%);fill-opacity:1;" d="M 5.519531 23.410156 C 6.910156 23.097656 8.351562 23.117188 9.769531 23.1875 C 10.847656 23.304688 12.039062 23.488281 12.839844 24.296875 C 13.316406 24.761719 13.414062 25.460938 13.355469 26.09375 C 12.054688 26.097656 10.757812 26.09375 9.457031 26.09375 C 9.441406 25.785156 9.300781 25.472656 8.992188 25.359375 C 8.324219 25.089844 7.570312 25.105469 6.871094 25.238281 C 6.433594 25.316406 6 25.644531 5.980469 26.121094 C 6.101562 26.445312 6.484375 26.515625 6.785156 26.570312 C 7.671875 26.691406 8.5625 26.773438 9.453125 26.878906 C 10.355469 26.976562 11.304688 27.0625 12.113281 27.515625 C 12.621094 27.792969 12.972656 28.332031 12.992188 28.914062 C 13.011719 29.789062 12.667969 30.675781 12.03125 31.285156 C 11.332031 31.953125 10.394531 32.292969 9.46875 32.5 C 8.476562 32.726562 7.457031 32.742188 6.449219 32.777344 C 4.972656 32.707031 3.371094 32.679688 2.117188 31.796875 C 1.421875 31.320312 1.183594 30.421875 1.324219 29.621094 C 2.671875 29.617188 4.019531 29.621094 5.367188 29.621094 C 5.417969 29.871094 5.425781 30.179688 5.664062 30.335938 C 6.070312 30.621094 6.589844 30.640625 7.070312 30.652344 C 7.59375 30.652344 8.15625 30.640625 8.613281 30.351562 C 8.863281 30.183594 9.058594 29.84375 8.9375 29.542969 C 8.78125 29.300781 8.460938 29.261719 8.203125 29.210938 C 7.167969 29.070312 6.128906 28.953125 5.09375 28.824219 C 4.347656 28.734375 3.570312 28.613281 2.9375 28.183594 C 2.5 27.890625 2.25 27.367188 2.277344 26.847656 C 2.316406 26.058594 2.613281 25.273438 3.136719 24.679688 C 3.75 23.992188 4.636719 23.617188 5.519531 23.410156 "/>
<path style=" stroke:none;fill-rule:nonzero;fill:rgb(12.860107%,11.213684%,11.195374%);fill-opacity:1;" d="M 19.878906 25.78125 C 19.023438 25.933594 18.238281 26.5 17.894531 27.304688 C 17.617188 27.953125 17.460938 28.742188 17.804688 29.394531 C 18.074219 29.902344 18.65625 30.132812 19.199219 30.195312 C 20 30.28125 20.867188 30.167969 21.539062 29.695312 C 22.308594 29.148438 22.671875 28.179688 22.671875 27.261719 C 22.671875 26.765625 22.433594 26.265625 21.996094 26.019531 C 21.355469 25.664062 20.582031 25.667969 19.878906 25.78125 Z M 18.265625 24.6875 C 19.199219 23.832031 20.433594 23.316406 21.699219 23.273438 C 22.859375 23.226562 24.097656 23.410156 25.054688 24.113281 C 25.757812 24.632812 26.1875 25.464844 26.277344 26.324219 C 26.449219 28.074219 25.765625 29.886719 24.472656 31.078125 C 23.363281 32.121094 21.855469 32.699219 20.339844 32.757812 C 19.121094 32.816406 17.71875 32.601562 16.898438 31.597656 C 16.632812 32.941406 16.328125 34.277344 16.046875 35.617188 C 14.882812 35.617188 13.71875 35.617188 12.550781 35.617188 C 13.417969 31.578125 14.273438 27.535156 15.132812 23.492188 C 16.265625 23.5 17.398438 23.5 18.53125 23.492188 C 18.445312 23.890625 18.359375 24.289062 18.265625 24.6875 "/>
<path style=" stroke:none;fill-rule:nonzero;fill:rgb(12.860107%,11.213684%,11.195374%);fill-opacity:1;" d="M 26.367188 32.40625 C 26.984375 29.433594 27.621094 26.460938 28.261719 23.492188 C 29.421875 23.503906 30.585938 23.5 31.746094 23.492188 C 31.113281 26.464844 30.488281 29.4375 29.851562 32.40625 C 28.6875 32.398438 27.527344 32.40625 26.367188 32.40625 "/>
<path style=" stroke:none;fill-rule:nonzero;fill:rgb(12.860107%,11.213684%,11.195374%);fill-opacity:1;" d="M 31.261719 32.398438 C 31.90625 29.433594 32.53125 26.460938 33.160156 23.492188 C 34.296875 23.5 35.433594 23.5 36.574219 23.492188 C 35.917969 26.460938 35.300781 29.433594 34.671875 32.40625 C 33.535156 32.398438 32.398438 32.40625 31.261719 32.398438 "/>
<path style=" stroke:none;fill-rule:nonzero;fill:rgb(12.860107%,11.213684%,11.195374%);fill-opacity:1;" d="M 40.480469 32.40625 C 41.117188 29.433594 41.738281 26.460938 42.382812 23.492188 C 43.542969 23.5 44.707031 23.496094 45.867188 23.496094 C 45.242188 26.464844 44.601562 29.429688 43.980469 32.402344 C 42.816406 32.40625 41.648438 32.402344 40.480469 32.40625 "/>
<path style=" stroke:none;fill-rule:nonzero;fill:rgb(12.860107%,11.213684%,11.195374%);fill-opacity:1;" d="M 37.789062 24.28125 C 38.734375 23.484375 39.976562 22.925781 41.234375 23.144531 C 40.980469 24.191406 40.785156 25.253906 40.539062 26.300781 C 39.261719 26.085938 37.824219 26.058594 36.714844 26.828125 C 36.257812 27.113281 35.980469 27.582031 35.722656 28.035156 C 35.949219 26.59375 36.648438 25.210938 37.789062 24.28125 "/>
</g>
</svg>
