<?xml version="1.0" encoding="UTF-8"?>
<svg xmlns="http://www.w3.org/2000/svg" xmlns:xlink="http://www.w3.org/1999/xlink" width="56pt" height="56pt" viewBox="0 0 56 56" version="1.1">
<g id="surface1">
<rect x="0" y="0" width="56" height="56" style="fill:rgb(93.252563%,15.379333%,14.109802%);fill-opacity:1;stroke:none;"/>
<path style=" stroke:none;fill-rule:nonzero;fill:rgb(100%,100%,100%);fill-opacity:1;" d="M 23.441406 20.410156 L 22.644531 20.460938 L 21.671875 21.761719 L 23.441406 21.660156 Z M 23.441406 27.753906 C 21.914062 28.589844 20.28125 29.714844 18.214844 31.074219 C 17.695312 31.28125 15.453125 31.972656 15.523438 30.65625 L 19.640625 24.714844 C 15.019531 26.503906 11.582031 29.769531 6.683594 36.140625 C 5.554688 36.871094 2.585938 38.15625 2.1875 36.957031 C 3.296875 31.246094 5.207031 25.046875 8.160156 19.75 L 13.214844 18.550781 C 8.925781 24.160156 7.222656 30.273438 6.214844 34.214844 C 10.402344 29.28125 16.511719 24.332031 20.871094 22.945312 L 21.097656 22.632812 L 23.441406 22.476562 L 23.441406 22.859375 C 21.878906 25.167969 20.941406 27.09375 19.308594 29.457031 C 20.769531 28.378906 22.105469 27.492188 23.441406 26.730469 Z M 23.441406 21.660156 L 24.292969 21.605469 L 25.214844 20.289062 L 23.441406 20.410156 Z M 23.441406 22.476562 L 23.441406 22.859375 C 23.527344 22.734375 23.632812 22.597656 23.71875 22.457031 Z M 28.078125 24.664062 C 30.632812 22.164062 34.972656 20.132812 35.773438 20.929688 C 36.621094 21.261719 34.886719 24.246094 34.730469 25.113281 C 35.492188 24.785156 37.109375 22.441406 37.871094 22.109375 C 38.253906 21.957031 39.089844 22.09375 39.332031 22.457031 C 39.523438 22.753906 39.714844 23.792969 39.921875 24.089844 C 43.585938 21.867188 49.542969 20.253906 53.8125 19.730469 L 51.902344 21.484375 C 48.429688 21.917969 43.203125 22.074219 40.304688 25.0625 C 39.644531 25.324219 39.191406 25.253906 39 24.75 C 38.863281 24.367188 38.550781 23.1875 38.375 22.925781 C 37.28125 23.378906 34.765625 26.417969 33.667969 26.886719 C 33.078125 27.128906 32.941406 26.886719 32.835938 26.589844 C 32.957031 25.863281 35.371094 22.320312 34.710938 22.109375 C 31.046875 23.671875 28.476562 27.164062 27.433594 28.242188 C 26.984375 28.707031 26.777344 28.15625 26.722656 28.15625 L 27.488281 26.175781 C 26.046875 26.488281 24.777344 27.007812 23.441406 27.753906 L 23.441406 26.730469 C 24.953125 25.878906 26.445312 25.21875 28.078125 24.664062 "/>
</g>
</svg>
