<?xml version="1.0" encoding="UTF-8"?>
<svg xmlns="http://www.w3.org/2000/svg" xmlns:xlink="http://www.w3.org/1999/xlink" width="56pt" height="56pt" viewBox="0 0 56 56" version="1.1">
<g id="surface1">
<rect x="0" y="0" width="56" height="56" style="fill:rgb(85.940552%,11.677551%,14.611816%);fill-opacity:1;stroke:none;"/>
<path style=" stroke:none;fill-rule:nonzero;fill:rgb(100%,100%,100%);fill-opacity:1;" d="M 4.222656 19.375 C 13.980469 16.941406 36.597656 13.140625 42.171875 25.207031 C 43.5625 28.214844 45.863281 24.75 51.777344 28.515625 C 47.480469 29.832031 46.667969 33.476562 41.515625 36.398438 C 32.140625 41.710938 17.34375 37.546875 4.222656 38.714844 L 4.222656 38.515625 C 9.792969 37.953125 13.855469 37.992188 14.371094 36.605469 C 14.746094 35.601562 11.691406 35.082031 8.691406 35.015625 L 8.691406 34.910156 C 18.09375 34.984375 25.632812 34.121094 31.074219 31.449219 C 35.039062 29.496094 34.269531 27.226562 26.847656 24.21875 C 24.84375 21.210938 21.648438 19.226562 4.222656 19.648438 L 4.222656 19.375 "/>
</g>
</svg>
