<?xml version="1.0" encoding="UTF-8"?>
<svg xmlns="http://www.w3.org/2000/svg" xmlns:xlink="http://www.w3.org/1999/xlink" width="56pt" height="56pt" viewBox="0 0 56 56" version="1.1">
<g id="surface1">
<rect x="0" y="0" width="56" height="56" style="fill:rgb(95.666504%,95.776367%,96.775818%);fill-opacity:1;stroke:none;"/>
<path style=" stroke:none;fill-rule:nonzero;fill:rgb(20.178223%,41.703796%,71.2677%);fill-opacity:1;" d="M 42.191406 10.441406 C 44.34375 12.144531 46.089844 14.210938 47.574219 16.511719 C 48.914062 19.011719 49.871094 21.652344 50.445312 24.429688 C 50.527344 25.527344 50.695312 26.625 50.679688 27.71875 C 50.613281 32.914062 49.128906 37.625 45.914062 41.78125 C 42.21875 46.5625 37.324219 49.367188 31.46875 50.324219 C 25.472656 51.300781 19.875 49.902344 14.890625 46.386719 C 12.371094 44.609375 10.273438 42.390625 8.65625 39.75 C 8.367188 39.28125 8.167969 38.761719 8.027344 38.160156 C 11.222656 42.835938 15.449219 45.488281 21.582031 45.296875 C 20.667969 45.011719 20.089844 44.832031 19.507812 44.652344 C 19.523438 44.582031 19.539062 44.515625 19.554688 44.449219 C 20.433594 44.511719 21.316406 44.652344 22.191406 44.621094 C 23.023438 44.59375 23.851562 44.390625 24.699219 44.167969 C 23.839844 44.113281 22.980469 44.054688 22.121094 43.996094 C 22.121094 43.949219 22.121094 43.902344 22.125 43.851562 C 23.871094 43.613281 25.617188 43.378906 27.363281 43.140625 C 26.050781 42.605469 24.59375 43.175781 23.277344 42.21875 C 25.742188 42.171875 28.121094 42.292969 30.515625 40.925781 C 28.5 41.042969 26.726562 41.609375 24.996094 40.753906 C 27.703125 40.59375 30.34375 40.210938 32.75 38.828125 C 30.570312 38.90625 28.425781 39.6875 26.21875 39.148438 C 29.566406 38.691406 32.847656 38.0625 35.660156 35.988281 C 32.992188 36.707031 30.292969 37.214844 27.511719 37.324219 C 31.28125 36.273438 34.808594 34.773438 37.78125 32.070312 C 36.863281 32.414062 35.957031 32.789062 35.027344 33.097656 C 33.980469 33.449219 32.925781 33.78125 31.855469 34.046875 C 30.855469 34.296875 29.832031 34.449219 28.769531 34.503906 C 34.0625 32.347656 38.496094 29.148438 41.738281 24.394531 C 38.117188 27.023438 34.4375 29.511719 29.910156 30.34375 C 33.214844 28.230469 36.359375 25.933594 38.929688 22.972656 C 40.335938 21.355469 41.542969 19.5625 42.730469 17.734375 C 38.636719 20.933594 34.824219 24.542969 29.554688 25.816406 C 30.085938 25.410156 30.59375 24.972656 31.144531 24.601562 C 35.863281 21.421875 39.105469 17.003906 41.703125 12.039062 C 41.792969 11.863281 41.800781 11.640625 41.847656 11.4375 C 41.964844 11.105469 42.078125 10.773438 42.191406 10.441406 "/>
<path style=" stroke:none;fill-rule:nonzero;fill:rgb(89.208984%,17.172241%,17.718506%);fill-opacity:1;" d="M 42.191406 10.441406 C 42.078125 10.773438 41.964844 11.105469 41.847656 11.4375 C 41.125 12.121094 40.375 12.777344 39.679688 13.492188 C 37.761719 15.457031 35.683594 17.230469 33.460938 18.851562 C 30.613281 20.929688 27.457031 22.285156 24.066406 23.203125 C 22.144531 23.726562 20.246094 24.375 18.386719 25.089844 C 17.089844 25.589844 16 26.457031 15.363281 27.75 C 14.148438 30.203125 14.613281 32.253906 16.484375 33.671875 C 16.972656 34.046875 17.515625 34.441406 18.304688 34.097656 C 17.582031 33.4375 17.34375 32.621094 17.421875 31.695312 C 17.542969 30.246094 18.921875 29.230469 20.339844 29.554688 C 21.765625 29.882812 22.992188 31.152344 23.144531 32.640625 C 23.425781 35.394531 22.601562 37.804688 20.398438 39.523438 C 18.125 41.292969 15.554688 41.695312 12.816406 40.535156 C 8.890625 38.871094 6.671875 35.722656 5.796875 31.753906 C 4.578125 26.222656 5.742188 20.976562 8.699219 16.175781 C 12.070312 10.699219 16.953125 7.214844 23.242188 5.910156 C 30.21875 4.46875 36.59375 5.910156 42.191406 10.441406 "/>
</g>
</svg>
