<?xml version="1.0" encoding="UTF-8"?>
<svg xmlns="http://www.w3.org/2000/svg" xmlns:xlink="http://www.w3.org/1999/xlink" width="56pt" height="56pt" viewBox="0 0 56 56" version="1.1">
<g id="surface1">
<rect x="0" y="0" width="56" height="56" style="fill:rgb(25.042725%,70.654297%,23.519897%);fill-opacity:1;stroke:none;"/>
<path style=" stroke:none;fill-rule:nonzero;fill:rgb(94.389343%,93.711853%,11.31897%);fill-opacity:1;" d="M 26.992188 29.113281 C 26.972656 29.132812 26.953125 29.132812 26.953125 29.148438 C 26.953125 29.132812 26.972656 29.113281 26.992188 29.113281 "/>
<path style=" stroke:none;fill-rule:nonzero;fill:rgb(100%,100%,100%);fill-opacity:1;" d="M 10.304688 26.636719 C 10.832031 26.636719 11.28125 26.492188 11.667969 26.207031 C 12.050781 25.921875 12.242188 25.492188 12.242188 24.917969 C 12.242188 24.40625 12.109375 24.054688 11.832031 23.863281 C 11.558594 23.679688 11.191406 23.582031 10.726562 23.582031 L 7.691406 23.582031 L 7.050781 26.636719 Z M 9.480469 32.175781 C 10.140625 32.175781 10.679688 32.003906 11.101562 31.652344 C 11.515625 31.296875 11.726562 30.773438 11.726562 30.078125 C 11.726562 29.734375 11.660156 29.464844 11.515625 29.269531 C 11.378906 29.078125 11.203125 28.929688 10.980469 28.824219 C 10.757812 28.71875 10.515625 28.65625 10.25 28.632812 C 9.980469 28.609375 9.71875 28.59375 9.460938 28.59375 L 6.644531 28.59375 L 5.875 32.175781 Z M 10.871094 21.347656 C 11.523438 21.347656 12.117188 21.390625 12.644531 21.476562 C 13.167969 21.558594 13.613281 21.71875 13.976562 21.941406 C 14.34375 22.167969 14.621094 22.476562 14.820312 22.875 C 15.015625 23.273438 15.113281 23.785156 15.113281 24.402344 C 15.113281 24.769531 15.0625 25.128906 14.949219 25.476562 C 14.839844 25.824219 14.675781 26.132812 14.464844 26.410156 C 14.25 26.683594 13.996094 26.910156 13.695312 27.09375 C 13.398438 27.277344 13.050781 27.394531 12.664062 27.445312 L 12.664062 27.480469 C 13.28125 27.648438 13.761719 27.976562 14.097656 28.457031 C 14.433594 28.9375 14.601562 29.496094 14.601562 30.132812 C 14.601562 30.839844 14.460938 31.460938 14.1875 32 C 13.914062 32.535156 13.542969 32.980469 13.082031 33.332031 C 12.617188 33.6875 12.089844 33.957031 11.492188 34.140625 C 10.894531 34.320312 10.265625 34.414062 9.605469 34.414062 L 2.65625 34.414062 L 5.382812 21.347656 L 10.871094 21.347656 "/>
<path style=" stroke:none;fill-rule:nonzero;fill:rgb(100%,100%,100%);fill-opacity:1;" d="M 19.5 24.957031 L 17.492188 34.414062 L 14.894531 34.414062 L 16.886719 24.957031 L 19.5 24.957031 "/>
<path style=" stroke:none;fill-rule:nonzero;fill:rgb(100%,100%,100%);fill-opacity:1;" d="M 23.253906 24.957031 L 22.960938 26.28125 L 22.996094 26.28125 C 23.839844 25.234375 24.941406 24.707031 26.308594 24.707031 C 28.148438 24.707031 29.070312 25.554688 29.070312 27.25 C 29.070312 27.347656 29.058594 27.46875 29.03125 27.621094 C 29.007812 27.777344 28.980469 27.929688 28.949219 28.089844 C 28.921875 28.246094 28.886719 28.398438 28.859375 28.539062 C 28.828125 28.675781 28.804688 28.789062 28.796875 28.871094 L 27.628906 34.414062 L 25.03125 34.414062 L 26.179688 28.875 C 26.199219 28.730469 26.234375 28.539062 26.28125 28.292969 C 26.324219 28.050781 26.34375 27.859375 26.34375 27.726562 C 26.34375 27.445312 26.210938 27.214844 25.953125 27.03125 C 25.6875 26.847656 25.40625 26.757812 25.101562 26.757812 C 24.710938 26.757812 24.367188 26.832031 24.066406 26.984375 C 23.769531 27.136719 23.511719 27.335938 23.296875 27.578125 C 23.085938 27.824219 22.910156 28.101562 22.769531 28.417969 C 22.625 28.738281 22.519531 29.058594 22.453125 29.386719 L 21.390625 34.414062 L 18.808594 34.414062 L 20.765625 24.957031 L 23.253906 24.957031 "/>
<path style=" stroke:none;fill-rule:nonzero;fill:rgb(100%,100%,100%);fill-opacity:1;" d="M 36.015625 24.957031 L 35.609375 26.691406 L 33.761719 26.691406 L 32.792969 31.394531 L 32.742188 31.65625 L 32.71875 31.832031 C 32.71875 32.003906 32.75 32.136719 32.804688 32.230469 L 33.011719 32.4375 L 33.296875 32.519531 L 33.601562 32.53125 C 33.914062 32.53125 34.226562 32.511719 34.53125 32.476562 L 34.09375 34.464844 C 33.824219 34.492188 33.558594 34.511719 33.289062 34.53125 C 33.019531 34.546875 32.746094 34.558594 32.46875 34.558594 C 32.160156 34.558594 31.859375 34.53125 31.558594 34.476562 C 31.257812 34.421875 30.992188 34.324219 30.753906 34.183594 C 30.519531 34.042969 30.328125 33.851562 30.1875 33.609375 C 30.046875 33.363281 29.980469 33.046875 29.996094 32.65625 C 29.996094 32.535156 30.007812 32.398438 30.03125 32.242188 C 30.054688 32.09375 30.085938 31.929688 30.125 31.761719 L 31.183594 26.691406 L 29.484375 26.691406 L 29.886719 24.957031 L 31.550781 24.957031 L 32.136719 22.089844 L 34.734375 22.089844 L 34.148438 24.957031 L 36.015625 24.957031 "/>
<path style=" stroke:none;fill-rule:nonzero;fill:rgb(100%,100%,100%);fill-opacity:1;" d="M 42.664062 27.953125 C 42.625 27.714844 42.542969 27.5 42.417969 27.304688 C 42.292969 27.109375 42.121094 26.953125 41.890625 26.839844 C 41.65625 26.722656 41.351562 26.664062 40.972656 26.664062 C 40.609375 26.664062 40.285156 26.71875 40.007812 26.828125 C 39.726562 26.9375 39.480469 27.085938 39.273438 27.269531 C 39.066406 27.453125 38.894531 27.660156 38.753906 27.910156 C 38.609375 28.148438 38.492188 28.40625 38.394531 28.671875 L 42.726562 28.671875 C 42.726562 28.429688 42.707031 28.191406 42.664062 27.953125 M 38.101562 30.480469 L 38.101562 30.859375 C 38.101562 31.410156 38.277344 31.855469 38.613281 32.195312 C 38.957031 32.539062 39.480469 32.707031 40.1875 32.707031 C 40.445312 32.707031 40.671875 32.667969 40.871094 32.589844 C 41.074219 32.511719 41.253906 32.40625 41.40625 32.289062 C 41.558594 32.167969 41.691406 32.023438 41.808594 31.867188 C 41.921875 31.710938 42.027344 31.558594 42.128906 31.410156 L 44.722656 31.410156 C 44.519531 31.949219 44.273438 32.417969 43.992188 32.820312 C 43.714844 33.222656 43.378906 33.5625 42.984375 33.835938 C 42.597656 34.109375 42.140625 34.316406 41.621094 34.453125 C 41.101562 34.585938 40.507812 34.652344 39.820312 34.652344 C 39.1875 34.652344 38.609375 34.566406 38.09375 34.398438 C 37.574219 34.222656 37.132812 33.964844 36.769531 33.621094 C 36.402344 33.269531 36.121094 32.839844 35.917969 32.328125 C 35.714844 31.820312 35.617188 31.222656 35.617188 30.539062 C 35.617188 29.785156 35.738281 29.054688 35.984375 28.351562 C 36.226562 27.652344 36.570312 27.035156 37.015625 26.488281 C 37.460938 25.949219 38.003906 25.515625 38.652344 25.191406 C 39.296875 24.867188 40.027344 24.707031 40.828125 24.707031 C 41.488281 24.707031 42.085938 24.792969 42.632812 24.960938 C 43.171875 25.132812 43.636719 25.394531 44.023438 25.738281 C 44.40625 26.085938 44.703125 26.519531 44.917969 27.039062 C 45.132812 27.554688 45.234375 28.152344 45.234375 28.835938 C 45.234375 29.296875 45.1875 29.789062 45.089844 30.3125 L 38.121094 30.3125 L 38.101562 30.480469 "/>
<path style=" stroke:none;fill-rule:nonzero;fill:rgb(100%,100%,100%);fill-opacity:1;" d="M 49.632812 24.957031 L 49.246094 26.65625 L 49.28125 26.691406 C 49.578125 26.03125 50.019531 25.535156 50.609375 25.199219 C 51.199219 24.863281 51.84375 24.695312 52.539062 24.695312 C 52.804688 24.695312 53.074219 24.710938 53.34375 24.75 L 52.8125 27.277344 C 52.628906 27.242188 52.445312 27.207031 52.265625 27.167969 C 52.082031 27.132812 51.902344 27.113281 51.71875 27.113281 C 51.21875 27.113281 50.792969 27.199219 50.445312 27.371094 C 50.09375 27.542969 49.804688 27.773438 49.566406 28.066406 C 49.328125 28.355469 49.140625 28.691406 49 29.0625 C 48.859375 29.433594 48.746094 29.820312 48.664062 30.222656 L 47.785156 34.414062 L 45.203125 34.414062 L 47.164062 24.957031 L 49.632812 24.957031 "/>
<path style=" stroke:none;fill-rule:nonzero;fill:rgb(100%,100%,100%);fill-opacity:1;" d="M 17.179688 23.488281 L 17.65625 21.347656 L 20.269531 21.347656 L 19.792969 23.488281 L 17.179688 23.488281 "/>
</g>
</svg>
