<?xml version="1.0" encoding="UTF-8"?>
<svg xmlns="http://www.w3.org/2000/svg" xmlns:xlink="http://www.w3.org/1999/xlink" width="56pt" height="56pt" viewBox="0 0 56 56" version="1.1">
<g id="surface1">
<rect x="0" y="0" width="56" height="56" style="fill:rgb(95.666504%,95.776367%,96.775818%);fill-opacity:1;stroke:none;"/>
<path style=" stroke:none;fill-rule:nonzero;fill:rgb(15.042114%,25.161743%,51.869202%);fill-opacity:1;" d="M 55.980469 0.00390625 L 0.015625 0.00390625 L 0.015625 55.976562 L 49.03125 55.976562 C 49.03125 55.976562 21.941406 53.824219 24.65625 24.851562 C 24.65625 24.851562 24.886719 23.351562 21.859375 23.28125 C 21.859375 23.28125 22.566406 18.429688 27.0625 19.042969 C 29.988281 19.445312 31.96875 21.574219 31.917969 23.757812 C 31.910156 23.757812 34.003906 4.253906 55.980469 0.00390625 "/>
<path style=" stroke:none;fill-rule:nonzero;fill:rgb(100%,100%,100%);fill-opacity:1;" d="M 48.859375 56 L 55.882812 55.976562 C 55.882812 55.976562 34.542969 52.878906 31.71875 28.621094 C 37.488281 27.324219 43.96875 30.382812 43.96875 30.382812 L 44.089844 30.269531 C 44.089844 30.269531 41.488281 23.917969 43.734375 15.3125 C 45.90625 6.941406 55.980469 2.003906 55.980469 2.003906 L 55.980469 0 C 34.003906 4.25 31.914062 23.757812 31.914062 23.757812 C 31.96875 21.578125 29.984375 19.445312 27.058594 19.042969 C 22.5625 18.429688 21.855469 23.28125 21.855469 23.28125 C 24.882812 23.347656 24.652344 24.851562 24.652344 24.851562 C 21.9375 53.824219 48.859375 56 48.859375 56 "/>
<path style=" stroke:none;fill-rule:nonzero;fill:rgb(92.700195%,11.358643%,15.148926%);fill-opacity:1;" d="M 55.882812 55.980469 C 55.882812 55.980469 34.542969 52.882812 31.71875 28.625 C 37.488281 27.328125 43.96875 30.386719 43.96875 30.386719 L 44.089844 30.269531 C 44.089844 30.269531 41.488281 23.917969 43.734375 15.316406 C 45.90625 6.945312 55.980469 2.007812 55.980469 2.007812 "/>
</g>
</svg>
