<?xml version="1.0" encoding="UTF-8"?>
<svg xmlns="http://www.w3.org/2000/svg" xmlns:xlink="http://www.w3.org/1999/xlink" width="56pt" height="56pt" viewBox="0 0 56 56" version="1.1">
<g id="surface1">
<rect x="0" y="0" width="56" height="56" style="fill:rgb(16.911316%,32.870483%,67.196655%);fill-opacity:1;stroke:none;"/>
<path style=" stroke:none;fill-rule:nonzero;fill:rgb(100%,100%,100%);fill-opacity:1;" d="M 16.667969 23.742188 C 17.039062 24.34375 16.566406 24.757812 16.328125 25.261719 C 16.972656 25.929688 17.765625 26.445312 18.398438 27.175781 C 17.875 28.203125 17.417969 29.246094 17.125 30.359375 C 16.832031 31.464844 16.714844 32.597656 16.605469 33.746094 C 15.285156 34.011719 13.972656 34.148438 12.792969 34.746094 C 12.90625 35.160156 15.328125 39.488281 15.816406 40.164062 C 16.804688 40.308594 17.8125 40.453125 18.820312 40.605469 C 19.195312 40.664062 19.574219 40.722656 19.9375 40.824219 C 20.222656 40.902344 20.492188 41.042969 20.683594 41.28125 C 20.890625 41.539062 21.078125 41.808594 21.308594 42.117188 C 19.007812 42.117188 16.765625 42.117188 14.460938 42.117188 C 12.949219 39.320312 11.421875 36.5 9.875 33.636719 C 10.484375 33.402344 11.070312 33.160156 11.667969 32.957031 C 12.257812 32.757812 12.863281 32.609375 13.453125 32.414062 C 14.058594 32.21875 14.710938 32.234375 15.304688 32.019531 C 15.507812 30.542969 15.804688 29.144531 16.414062 27.796875 C 15.980469 27.457031 15.5625 27.132812 15.140625 26.800781 C 14.484375 27.347656 13.847656 27.851562 13.441406 28.546875 C 13.039062 29.230469 12.722656 29.96875 12.34375 30.738281 C 11.636719 30.699219 10.894531 30.640625 10.152344 30.617188 C 9.421875 30.597656 8.6875 30.613281 7.917969 30.613281 C 7.769531 29.816406 7.613281 29.039062 7.484375 28.257812 C 7.402344 27.78125 7.347656 27.296875 7.304688 26.8125 C 7.292969 26.628906 7.347656 26.4375 7.363281 26.25 C 7.398438 25.660156 7.347656 25.066406 7.464844 24.476562 C 7.519531 24.210938 7.472656 23.925781 7.472656 23.59375 C 6.386719 23.589844 5.332031 23.59375 4.203125 23.589844 C 4.320312 23.316406 4.398438 23.082031 4.515625 22.863281 C 5.066406 21.816406 5.648438 20.785156 6.40625 19.867188 C 6.941406 19.222656 7.523438 18.625 8.183594 18.105469 C 9.203125 17.304688 10.332031 16.722656 11.582031 16.371094 C 12.3125 16.167969 13.050781 16.015625 13.816406 15.945312 C 14.441406 15.890625 15.066406 15.847656 15.691406 15.867188 C 17.566406 15.921875 19.363281 16.289062 21.054688 17.132812 C 21.648438 17.425781 22.195312 17.78125 22.730469 18.167969 C 22.882812 18.277344 23.046875 18.375 23.191406 18.46875 C 23.515625 17.964844 23.792969 17.460938 24.140625 17.015625 C 24.90625 16.042969 25.847656 15.300781 26.980469 14.773438 C 27.710938 14.429688 28.453125 14.175781 29.238281 14.042969 C 29.75 13.957031 30.273438 13.890625 30.789062 13.886719 C 37.53125 13.878906 44.273438 13.882812 51.019531 13.882812 C 51.253906 13.882812 51.488281 13.90625 51.796875 13.921875 C 51.585938 14.230469 51.40625 14.492188 51.214844 14.769531 C 50.457031 14.808594 49.695312 14.84375 48.933594 14.890625 C 48.050781 14.949219 47.167969 15.023438 46.285156 15.09375 C 46.25 15.09375 46.214844 15.09375 46.179688 15.09375 C 45.15625 15.136719 44.128906 15.164062 43.105469 15.222656 C 42.414062 15.261719 41.726562 15.34375 41.035156 15.402344 C 40.929688 15.414062 40.828125 15.40625 40.722656 15.410156 C 39.78125 15.449219 38.839844 15.445312 37.90625 15.539062 C 37.261719 15.601562 36.621094 15.601562 35.976562 15.628906 C 35.195312 15.660156 34.40625 15.664062 33.632812 15.753906 C 33.058594 15.824219 32.484375 15.8125 31.914062 15.84375 C 31.324219 15.875 30.730469 15.878906 30.144531 15.953125 C 28.871094 16.109375 27.6875 16.484375 26.707031 17.378906 C 25.882812 18.132812 25.257812 19.027344 24.871094 20.066406 C 24.34375 21.492188 23.867188 22.941406 23.375 24.382812 C 23.1875 24.9375 23.011719 25.5 22.859375 26.070312 C 22.691406 26.699219 22.570312 27.027344 21.703125 26.933594 C 21.6875 26.921875 21.675781 26.910156 21.664062 26.898438 C 21.652344 26.882812 21.644531 26.867188 21.640625 26.851562 C 21.636719 26.820312 21.628906 26.78125 21.636719 26.75 C 22.007812 24.816406 22.378906 22.882812 22.753906 20.945312 C 22.390625 20.433594 21.90625 20.074219 21.417969 19.710938 C 20.242188 18.835938 18.898438 18.351562 17.480469 18.050781 C 16.726562 17.890625 15.953125 17.945312 15.1875 17.921875 C 13.375 17.863281 11.726562 18.40625 10.195312 19.316406 C 9.1875 19.910156 8.324219 20.699219 7.613281 21.640625 C 7.597656 21.667969 7.59375 21.707031 7.578125 21.769531 C 7.757812 21.898438 7.96875 21.828125 8.164062 21.839844 C 8.386719 21.851562 8.617188 21.839844 8.84375 21.839844 C 9.050781 21.839844 9.261719 21.839844 9.484375 21.839844 C 9.394531 22.625 9.351562 23.398438 9.214844 24.152344 C 9.011719 25.257812 9.003906 26.363281 9.019531 27.476562 C 9.019531 27.601562 9.011719 27.726562 9.03125 27.84375 C 9.101562 28.234375 9.175781 28.621094 9.257812 29.054688 C 10.011719 29.074219 10.742188 29.066406 11.496094 29.074219 C 11.558594 28.976562 11.621094 28.878906 11.683594 28.78125 C 11.964844 28.339844 12.210938 27.875 12.53125 27.46875 C 12.804688 27.121094 13.15625 26.828125 13.488281 26.527344 C 14.371094 25.734375 15.269531 24.960938 16.136719 24.160156 C 16.300781 24.007812 16.429688 23.828125 16.667969 23.742188 "/>
<path style=" stroke:none;fill-rule:nonzero;fill:rgb(100%,100%,100%);fill-opacity:1;" d="M 31.390625 19.742188 C 31.554688 19.359375 31.671875 19.050781 31.820312 18.753906 C 32.113281 18.164062 32.5625 17.84375 33.265625 17.847656 C 38.136719 17.859375 43.003906 17.851562 47.871094 17.851562 C 48.253906 17.851562 48.636719 17.851562 49.097656 17.851562 C 48.890625 18.148438 48.71875 18.394531 48.523438 18.679688 C 48.039062 18.707031 47.539062 18.742188 47.035156 18.769531 C 46.292969 18.808594 45.546875 18.84375 44.800781 18.886719 C 44.335938 18.910156 43.863281 18.929688 43.402344 18.988281 C 42.628906 19.085938 41.839844 19.011719 41.074219 19.175781 C 41.023438 19.1875 40.96875 19.179688 40.914062 19.183594 C 39.996094 19.21875 39.074219 19.242188 38.152344 19.296875 C 37.304688 19.34375 36.460938 19.425781 35.613281 19.488281 C 35.578125 19.492188 35.542969 19.492188 35.511719 19.492188 C 34.589844 19.53125 33.667969 19.566406 32.746094 19.613281 C 32.316406 19.636719 31.886719 19.695312 31.390625 19.742188 "/>
<path style=" stroke:none;fill-rule:nonzero;fill:rgb(100%,100%,100%);fill-opacity:1;" d="M 46.550781 21.632812 C 46.332031 21.960938 46.152344 22.234375 45.96875 22.507812 C 45.804688 22.519531 45.667969 22.53125 45.53125 22.539062 C 44.765625 22.578125 43.996094 22.574219 43.242188 22.671875 C 42.71875 22.738281 42.203125 22.722656 41.683594 22.761719 C 40.941406 22.820312 40.203125 22.890625 39.460938 22.957031 C 39.425781 22.957031 39.390625 22.957031 39.355469 22.957031 C 38.46875 22.996094 37.582031 23.019531 36.699219 23.074219 C 35.957031 23.121094 35.214844 23.199219 34.472656 23.261719 C 34.4375 23.265625 34.402344 23.265625 34.367188 23.265625 C 33.480469 23.308594 32.597656 23.34375 31.710938 23.390625 C 31.140625 23.417969 30.566406 23.457031 29.996094 23.492188 C 29.910156 23.496094 29.828125 23.492188 29.679688 23.492188 C 29.878906 23.070312 30.03125 22.6875 30.234375 22.328125 C 30.507812 21.84375 30.984375 21.683594 31.507812 21.632812 C 31.574219 21.628906 31.644531 21.632812 31.714844 21.632812 C 36.53125 21.632812 41.351562 21.632812 46.167969 21.632812 C 46.273438 21.632812 46.375 21.632812 46.550781 21.632812 "/>
<path style=" stroke:none;fill-rule:nonzero;fill:rgb(100%,100%,100%);fill-opacity:1;" d="M 31.46875 39.253906 C 31.34375 39.46875 31.230469 39.660156 31.097656 39.890625 C 28.929688 39.050781 26.714844 38.472656 24.433594 38.160156 C 22.132812 37.851562 19.820312 37.800781 17.480469 37.859375 C 17.179688 37.324219 16.882812 36.796875 16.570312 36.242188 C 16.75 36.1875 16.894531 36.113281 17.039062 36.105469 C 17.789062 36.0625 18.535156 36.007812 19.28125 36.007812 C 19.925781 36.003906 20.574219 36.027344 21.210938 36.109375 C 22.167969 36.230469 23.121094 36.40625 24.074219 36.574219 C 25.546875 36.824219 26.964844 37.277344 28.371094 37.769531 C 29.324219 38.101562 30.234375 38.527344 31.113281 39.015625 C 31.234375 39.082031 31.34375 39.167969 31.46875 39.253906 "/>
<path style=" stroke:none;fill-rule:nonzero;fill:rgb(100%,100%,100%);fill-opacity:1;" d="M 35.453125 25.507812 C 35.28125 25.761719 35.15625 25.984375 34.996094 26.179688 C 34.914062 26.28125 34.777344 26.359375 34.652344 26.394531 C 34.417969 26.457031 34.175781 26.484375 33.9375 26.519531 C 33.273438 26.621094 32.609375 26.71875 31.941406 26.8125 C 31.359375 26.898438 30.777344 26.96875 30.195312 27.050781 C 29.699219 27.125 29.207031 27.210938 28.710938 27.285156 C 28.472656 27.324219 28.238281 27.359375 27.960938 27.402344 C 28.078125 26.894531 28.320312 26.496094 28.554688 26.113281 C 28.765625 25.765625 29.113281 25.515625 29.539062 25.511719 C 31.488281 25.5 33.441406 25.507812 35.453125 25.507812 "/>
</g>
</svg>
