<?xml version="1.0" encoding="UTF-8"?>
<svg xmlns="http://www.w3.org/2000/svg" xmlns:xlink="http://www.w3.org/1999/xlink" width="56pt" height="56pt" viewBox="0 0 56 56" version="1.1">
<g id="surface1">
<rect x="0" y="0" width="56" height="56" style="fill:rgb(95.66803%,95.779419%,96.777344%);fill-opacity:1;stroke:none;"/>
<path style=" stroke:none;fill-rule:nonzero;fill:rgb(54.15802%,61.004639%,84.062195%);fill-opacity:1;" d="M 32.683594 31.773438 C 29.207031 31.773438 14.515625 31.773438 14.515625 31.773438 L 13.214844 38.433594 L 26.328125 38.433594 C 26.328125 38.433594 24.027344 43.460938 20.664062 43.460938 C 17.300781 43.460938 6.210938 43.460938 6.210938 43.460938 L 11.578125 15.914062 L 49.785156 15.914062 C 49.785156 15.914062 48.382812 20.941406 44.804688 20.941406 C 41.230469 20.941406 16.652344 20.941406 16.652344 20.941406 L 15.480469 26.828125 L 37.652344 26.828125 C 37.652344 26.828125 36.164062 31.773438 32.683594 31.773438 "/>
<path style=" stroke:none;fill-rule:nonzero;fill:rgb(17.709351%,25.982666%,60.032654%);fill-opacity:1;" d="M 32.683594 28.398438 C 29.207031 28.398438 14.515625 28.398438 14.515625 28.398438 L 13.214844 35.058594 L 26.328125 35.058594 C 26.328125 35.058594 24.027344 40.085938 20.664062 40.085938 C 17.300781 40.085938 6.210938 40.085938 6.210938 40.085938 L 11.578125 12.539062 L 49.785156 12.539062 C 49.785156 12.539062 48.382812 17.566406 44.804688 17.566406 C 41.230469 17.566406 16.652344 17.566406 16.652344 17.566406 L 15.480469 23.453125 L 37.652344 23.453125 C 37.652344 23.453125 36.164062 28.398438 32.683594 28.398438 "/>
</g>
</svg>
