<?xml version="1.0" encoding="UTF-8"?>
<svg xmlns="http://www.w3.org/2000/svg" xmlns:xlink="http://www.w3.org/1999/xlink" width="56pt" height="56pt" viewBox="0 0 56 56" version="1.1">
<g id="surface1">
<rect x="0" y="0" width="56" height="56" style="fill:rgb(95.666504%,95.776367%,96.775818%);fill-opacity:1;stroke:none;"/>
<path style=" stroke:none;fill-rule:nonzero;fill:rgb(12.860107%,11.213684%,11.195374%);fill-opacity:1;" d="M 25.136719 20.042969 C 23.335938 20.042969 21.652344 19.480469 20.269531 18.542969 C 20.8125 17.878906 21.472656 17.339844 22.230469 16.941406 C 23.113281 17.398438 24.09375 17.660156 25.136719 17.660156 C 26.175781 17.660156 27.15625 17.398438 28.039062 16.941406 C 28.796875 17.339844 29.460938 17.878906 30 18.542969 C 28.617188 19.480469 26.9375 20.042969 25.136719 20.042969 "/>
<path style=" stroke:none;fill-rule:nonzero;fill:rgb(97.537231%,91.053772%,2.360535%);fill-opacity:1;" d="M 18.488281 16.941406 C 17.207031 15.4375 16.445312 13.476562 16.445312 11.335938 C 16.445312 6.550781 20.351562 2.648438 25.136719 2.648438 C 29.917969 2.648438 33.824219 6.550781 33.824219 11.335938 C 33.824219 13.476562 33.0625 15.4375 31.78125 16.941406 C 31.261719 17.558594 30.660156 18.082031 30 18.542969 C 29.460938 17.878906 28.796875 17.339844 28.039062 16.941406 C 29.039062 16.417969 29.902344 15.640625 30.5 14.675781 C 31.101562 13.695312 31.441406 12.554688 31.441406 11.335938 C 31.441406 7.871094 28.617188 5.027344 25.136719 5.027344 C 21.652344 5.027344 18.832031 7.871094 18.832031 11.335938 C 18.832031 12.855469 19.371094 14.257812 20.269531 15.359375 C 19.609375 15.796875 19.011719 16.339844 18.488281 16.941406 "/>
<path style=" stroke:none;fill-rule:nonzero;fill:rgb(29.876709%,69.007874%,90.592957%);fill-opacity:1;" d="M 43.550781 27.949219 C 43.550781 32.734375 39.648438 36.617188 34.84375 36.617188 C 34.34375 36.617188 33.824219 36.578125 33.324219 36.496094 C 33.585938 35.777344 33.765625 34.996094 33.804688 34.175781 C 34.144531 34.234375 34.503906 34.257812 34.84375 34.257812 C 38.328125 34.257812 41.167969 31.433594 41.167969 27.949219 C 41.167969 24.488281 38.328125 21.644531 34.84375 21.644531 C 32.140625 21.644531 29.820312 23.367188 28.917969 25.789062 C 28.21875 25.449219 27.457031 25.1875 26.65625 25.046875 C 27.859375 21.683594 31.082031 19.261719 34.84375 19.261719 C 39.648438 19.261719 43.550781 23.164062 43.550781 27.949219 "/>
<path style=" stroke:none;fill-rule:nonzero;fill:rgb(29.876709%,69.007874%,90.592957%);fill-opacity:1;" d="M 25.136719 53.355469 C 20.351562 53.355469 16.445312 49.429688 16.445312 44.644531 C 16.445312 42.542969 17.1875 40.621094 18.429688 39.121094 C 18.949219 39.742188 19.53125 40.28125 20.191406 40.742188 C 19.328125 41.824219 18.832031 43.183594 18.832031 44.644531 C 18.832031 48.128906 21.652344 50.953125 25.136719 50.953125 C 27.796875 50.953125 30.082031 49.3125 31 46.96875 C 31.703125 47.308594 32.460938 47.570312 33.261719 47.730469 C 32.023438 51.011719 28.839844 53.355469 25.136719 53.355469 "/>
<path style=" stroke:none;fill-rule:nonzero;fill:rgb(92.700195%,11.358643%,15.148926%);fill-opacity:1;" d="M 21.152344 38.480469 C 21.453125 38.71875 21.753906 38.941406 22.09375 39.121094 C 21.753906 39.300781 21.453125 39.523438 21.152344 39.761719 Z M 21.152344 27.429688 L 21.152344 25.886719 C 22.351562 25.269531 23.695312 24.925781 25.136719 24.925781 C 26.976562 24.925781 28.679688 25.488281 30.082031 26.46875 C 30.738281 26.929688 31.320312 27.46875 31.84375 28.070312 C 32.460938 28.832031 32.964844 29.691406 33.300781 30.632812 C 32.503906 30.773438 31.742188 31.03125 31.039062 31.394531 C 30.800781 30.773438 30.480469 30.191406 30.082031 29.691406 C 30.058594 29.671875 30.039062 29.652344 30.019531 29.632812 C 30 29.613281 30 29.59375 29.980469 29.59375 C 29.960938 29.550781 29.941406 29.53125 29.917969 29.511719 C 29.902344 29.492188 29.902344 29.472656 29.878906 29.472656 C 29.859375 29.453125 29.839844 29.410156 29.820312 29.390625 C 29.800781 29.371094 29.800781 29.371094 29.78125 29.351562 C 29.761719 29.332031 29.738281 29.3125 29.71875 29.292969 C 29.699219 29.273438 29.679688 29.25 29.679688 29.230469 C 29.660156 29.210938 29.640625 29.210938 29.621094 29.191406 C 29.597656 29.171875 29.582031 29.152344 29.558594 29.109375 C 29.539062 29.109375 29.539062 29.109375 29.539062 29.09375 C 29.5 29.070312 29.480469 29.03125 29.441406 29.011719 L 29.417969 28.992188 C 29.378906 28.953125 29.359375 28.929688 29.320312 28.890625 C 29.28125 28.851562 29.238281 28.832031 29.199219 28.789062 C 28.097656 27.871094 26.675781 27.308594 25.136719 27.308594 C 24.035156 27.308594 23.015625 27.589844 22.113281 28.070312 C 21.773438 27.890625 21.453125 27.667969 21.152344 27.429688 Z M 20.191406 40.742188 C 17.929688 39.160156 16.445312 36.535156 16.445312 33.613281 C 16.445312 31.515625 17.1875 29.59375 18.429688 28.070312 C 18.949219 28.691406 19.53125 29.230469 20.191406 29.691406 C 19.328125 30.773438 18.832031 32.136719 18.832031 33.613281 C 18.832031 35.578125 19.730469 37.316406 21.152344 38.480469 L 21.152344 39.761719 C 20.789062 40.058594 20.46875 40.382812 20.191406 40.742188 Z M 21.152344 25.886719 L 21.152344 27.429688 C 20.789062 27.148438 20.46875 26.828125 20.191406 26.46875 C 20.492188 26.25 20.8125 26.070312 21.152344 25.886719 "/>
<path style=" stroke:none;fill-rule:nonzero;fill:rgb(97.537231%,91.053772%,2.360535%);fill-opacity:1;" d="M 20.191406 37.5 C 21.59375 36.535156 23.292969 35.960938 25.136719 35.960938 C 29.917969 35.960938 33.824219 39.863281 33.824219 44.644531 C 33.824219 44.90625 33.824219 45.144531 33.804688 45.386719 C 32.941406 45.246094 32.140625 44.925781 31.441406 44.484375 C 31.339844 41.082031 28.558594 38.339844 25.136719 38.339844 C 24.035156 38.339844 22.992188 38.621094 22.09375 39.121094 C 21.351562 38.71875 20.710938 38.160156 20.191406 37.5 "/>
<path style=" stroke:none;fill-rule:nonzero;fill:rgb(29.876709%,69.007874%,90.592957%);fill-opacity:1;" d="M 25.136719 31.234375 C 20.351562 31.234375 16.445312 27.328125 16.445312 22.542969 C 16.445312 17.761719 20.351562 13.855469 25.136719 13.855469 C 26.9375 13.855469 28.617188 14.398438 30 15.359375 C 29.460938 16 28.796875 16.539062 28.039062 16.941406 C 27.15625 16.5 26.175781 16.238281 25.136719 16.238281 C 21.652344 16.238281 18.832031 19.0625 18.832031 22.542969 C 18.832031 26.027344 21.652344 28.851562 25.136719 28.851562 C 26.238281 28.851562 27.257812 28.570312 28.15625 28.070312 C 28.898438 28.492188 29.558594 29.03125 30.082031 29.691406 C 28.679688 30.671875 26.976562 31.234375 25.136719 31.234375 "/>
<path style=" stroke:none;fill-rule:nonzero;fill:rgb(12.860107%,11.213684%,11.195374%);fill-opacity:1;" d="M 33.785156 21.722656 C 33.824219 22.003906 33.824219 22.265625 33.824219 22.542969 C 33.824219 24.648438 33.082031 26.570312 31.84375 28.070312 C 31.320312 27.46875 30.738281 26.929688 30.082031 26.46875 C 30.921875 25.40625 31.421875 24.085938 31.441406 22.644531 C 32.140625 22.207031 32.941406 21.882812 33.785156 21.722656 "/>
<path style=" stroke:none;fill-rule:nonzero;fill:rgb(92.700195%,11.358643%,15.148926%);fill-opacity:1;" d="M 43.253906 41.421875 C 42.253906 45.125 38.867188 47.867188 34.84375 47.867188 C 30.058594 47.867188 26.15625 43.964844 26.15625 39.179688 C 26.15625 38.917969 26.175781 38.679688 26.195312 38.421875 C 27.039062 38.582031 27.839844 38.902344 28.539062 39.339844 C 28.597656 41.503906 29.738281 43.386719 31.441406 44.484375 C 31.460938 44.484375 31.460938 44.484375 31.480469 44.484375 C 31.5 44.527344 31.539062 44.546875 31.582031 44.566406 C 31.582031 44.566406 31.582031 44.566406 31.601562 44.566406 C 31.640625 44.585938 31.660156 44.605469 31.703125 44.628906 C 31.722656 44.644531 31.722656 44.644531 31.742188 44.644531 C 31.761719 44.667969 31.800781 44.683594 31.84375 44.707031 L 31.863281 44.722656 C 31.902344 44.746094 31.941406 44.765625 31.960938 44.785156 C 31.980469 44.785156 32.003906 44.785156 32.003906 44.804688 C 32.042969 44.828125 32.082031 44.828125 32.101562 44.84375 C 32.121094 44.84375 32.121094 44.867188 32.140625 44.867188 C 32.179688 44.886719 32.203125 44.90625 32.242188 44.925781 C 32.261719 44.925781 32.261719 44.925781 32.28125 44.925781 C 32.324219 44.949219 32.34375 44.964844 32.382812 44.984375 C 32.402344 44.984375 32.402344 44.984375 32.421875 44.984375 C 32.460938 45.007812 32.480469 45.027344 32.523438 45.042969 C 32.542969 45.042969 32.542969 45.042969 32.5625 45.042969 C 32.601562 45.066406 32.644531 45.085938 32.664062 45.085938 C 32.683594 45.105469 32.703125 45.105469 32.703125 45.105469 C 32.742188 45.125 32.78125 45.125 32.824219 45.144531 C 32.824219 45.144531 32.84375 45.144531 32.863281 45.164062 C 32.882812 45.164062 32.921875 45.1875 32.964844 45.1875 C 32.980469 45.1875 32.980469 45.207031 33.003906 45.207031 C 33.042969 45.207031 33.0625 45.226562 33.101562 45.226562 C 33.121094 45.246094 33.144531 45.246094 33.164062 45.246094 C 33.183594 45.269531 33.222656 45.269531 33.261719 45.285156 C 33.28125 45.285156 33.28125 45.285156 33.300781 45.285156 C 33.34375 45.304688 33.382812 45.304688 33.402344 45.304688 C 33.421875 45.328125 33.445312 45.328125 33.464844 45.328125 C 33.484375 45.328125 33.523438 45.347656 33.5625 45.347656 C 33.585938 45.347656 33.585938 45.347656 33.601562 45.367188 C 33.644531 45.367188 33.683594 45.367188 33.722656 45.386719 C 33.722656 45.386719 33.742188 45.386719 33.765625 45.386719 C 33.765625 45.386719 33.785156 45.386719 33.804688 45.386719 C 34.144531 45.449219 34.503906 45.484375 34.84375 45.484375 C 37.769531 45.484375 40.230469 43.484375 40.949219 40.800781 L 43.253906 41.421875 "/>
<path style=" stroke:none;fill-rule:nonzero;fill:rgb(12.860107%,11.213684%,11.195374%);fill-opacity:1;" d="M 43.253906 41.421875 L 40.949219 40.800781 C 41.089844 40.28125 41.167969 39.742188 41.167969 39.179688 C 41.167969 35.71875 38.328125 32.875 34.84375 32.875 C 32.203125 32.875 29.917969 34.535156 28.980469 36.855469 C 28.277344 36.496094 27.519531 36.257812 26.71875 36.097656 C 27.957031 32.835938 31.140625 30.492188 34.84375 30.492188 C 39.648438 30.492188 43.550781 34.398438 43.550781 39.179688 "/>
</g>
</svg>
