<?xml version="1.0" encoding="UTF-8"?>
<svg xmlns="http://www.w3.org/2000/svg" xmlns:xlink="http://www.w3.org/1999/xlink" width="56pt" height="56pt" viewBox="0 0 56 56" version="1.1">
<g id="surface1">
<rect x="0" y="0" width="56" height="56" style="fill:rgb(95.66803%,95.779419%,96.777344%);fill-opacity:1;stroke:none;"/>
<path style=" stroke:none;fill-rule:nonzero;fill:rgb(75.401306%,9.754944%,32.542419%);fill-opacity:1;" d="M 19.085938 37.496094 C 17.734375 36.433594 16.867188 35.566406 16.867188 34.308594 C 16.867188 33.539062 17.058594 32.863281 17.347656 32.089844 C 17.640625 31.316406 18.21875 30.449219 18.894531 29.578125 L 21.113281 26.78125 C 15.128906 26.199219 18.507812 23.402344 24.300781 23.402344 C 26.328125 21.375 28.355469 19.347656 29.707031 18.476562 C 31.058594 17.609375 32.214844 17.222656 33.277344 17.222656 C 33.375 17.222656 33.472656 17.222656 33.566406 17.320312 C 33.664062 17.414062 33.664062 17.511719 33.664062 17.609375 C 33.664062 17.707031 33.664062 17.800781 33.566406 17.996094 C 33.472656 18.1875 33.375 18.285156 33.179688 18.476562 L 29.609375 22.4375 C 32.988281 21.953125 35.882812 21.179688 38.007812 20.214844 C 40.132812 19.25 41 18.1875 41 17.222656 C 41 16.644531 40.613281 16.160156 39.84375 15.871094 C 39.070312 15.484375 38.105469 15.390625 36.847656 15.390625 C 35.113281 15.390625 33.085938 15.582031 30.863281 16.066406 C 28.644531 16.449219 26.328125 17.125 23.722656 17.996094 C 24.589844 18.285156 24.6875 18.769531 23.914062 19.445312 L 18.703125 20.792969 C 18.121094 20.890625 14.839844 22.53125 15.515625 20.117188 C 16.09375 17.996094 18.507812 15.097656 19.761719 14.328125 C 20.34375 13.941406 21.113281 13.554688 22.175781 13.265625 C 27.390625 11.71875 37.429688 9.210938 42.929688 12.398438 C 46.214844 15.195312 43.511719 20.117188 39.9375 21.375 C 36.753906 22.4375 32.890625 23.789062 27.484375 24.367188 L 26.328125 25.429688 C 29.320312 26.007812 43.703125 26.683594 38.007812 33.34375 C 37.71875 33.632812 35.753906 35.382812 34.410156 36.074219 C 30.882812 38.09375 21.886719 39.734375 19.085938 37.496094 Z M 25.265625 26.972656 L 23.429688 29 C 22.949219 29.578125 22.5625 30.0625 22.273438 30.640625 C 21.984375 31.125 21.789062 31.605469 21.789062 31.898438 C 21.789062 32.476562 22.175781 32.957031 23.046875 33.34375 C 23.914062 33.828125 24.878906 34.019531 26.039062 34.019531 C 28.066406 34.019531 29.996094 33.539062 31.925781 32.574219 C 33.855469 31.605469 34.824219 30.738281 34.824219 29.867188 C 34.824219 29.289062 33.953125 28.710938 32.3125 28.226562 C 30.671875 27.648438 28.355469 27.261719 25.265625 26.972656 "/>
<path style=" stroke:none;fill-rule:nonzero;fill:rgb(97.657776%,87.153625%,2.114868%);fill-opacity:1;" d="M 35.5 8.050781 C 33.277344 10.175781 25.554688 21.46875 18.410156 30.351562 L 17.347656 31.605469 L 17.15625 32.667969 C 17.15625 32.863281 8.082031 33.246094 13.101562 44.542969 C 12.523438 45.507812 12.039062 45.507812 11.945312 48.019531 C 12.136719 48.113281 12.328125 48.113281 12.523438 48.019531 C 12.621094 46.472656 13.003906 45.316406 14.9375 43.867188 C 16.671875 42.417969 21.789062 38.558594 23.046875 33.828125 C 23.140625 33.34375 23.335938 32.957031 23.527344 32.476562 L 39.359375 10.5625 C 39.359375 10.5625 37.332031 7.183594 35.5 8.050781 "/>
<path style=" stroke:none;fill-rule:nonzero;fill:rgb(88.484192%,67.256165%,6.829834%);fill-opacity:1;" d="M 37.140625 9.789062 C 35.015625 12.398438 29.128906 21.277344 21.984375 30.160156 L 20.726562 30.253906 C 22.757812 31.316406 22.371094 31.992188 23.046875 33.730469 C 23.140625 33.921875 23.335938 32.765625 23.527344 32.476562 L 39.359375 10.5625 C 39.359375 10.5625 38.585938 9.210938 37.527344 8.4375 C 37.042969 8.050781 38.105469 9.597656 37.140625 9.789062 "/>
<path style=" stroke:none;fill-rule:nonzero;fill:rgb(43.293762%,20.433044%,9.339905%);fill-opacity:1;" d="M 38.394531 10.753906 C 36.269531 13.363281 31.636719 21.085938 24.492188 30.0625 C 24.398438 29.675781 24.300781 29.289062 24.398438 28.808594 C 23.140625 29.675781 22.273438 31.703125 23.046875 33.828125 C 23.140625 33.34375 23.527344 32.765625 23.527344 32.476562 L 39.359375 10.5625 C 39.261719 10.464844 39.167969 9.597656 38.394531 9.019531 C 37.910156 8.632812 38.972656 10.273438 38.394531 10.753906 "/>
<path style=" stroke:none;fill-rule:nonzero;fill:rgb(43.293762%,20.433044%,9.339905%);fill-opacity:1;" d="M 18.507812 35.953125 C 18.121094 38.558594 16.382812 39.523438 15.996094 39.910156 C 15.902344 40.003906 15.996094 41.648438 15.804688 43.191406 C 17.347656 41.550781 25.363281 34.40625 19.859375 31.605469 C 22.273438 33.539062 19.183594 35.757812 18.507812 35.953125 "/>
<path style=" stroke:none;fill-rule:nonzero;fill:rgb(31.790161%,17.25769%,10.470581%);fill-opacity:1;" d="M 16.480469 38.652344 C 19.859375 35.371094 16.578125 32.574219 14.261719 34.695312 C 10.785156 37.882812 13.777344 41.355469 16.480469 38.652344 "/>
<path style=" stroke:none;fill-rule:nonzero;fill:rgb(75.401306%,9.754944%,32.542419%);fill-opacity:1;" d="M 35.980469 15.390625 C 34.4375 15.484375 32.796875 15.679688 31.058594 15.96875 C 30.382812 16.066406 29.707031 16.257812 29.03125 16.355469 C 27.390625 16.742188 25.746094 17.222656 23.914062 17.800781 C 24.78125 18.09375 24.878906 18.574219 24.105469 19.25 L 18.894531 20.601562 C 18.316406 20.699219 15.03125 22.339844 15.707031 19.925781 C 16.289062 17.800781 18.703125 14.90625 19.957031 14.132812 C 20.535156 13.746094 21.308594 13.363281 22.371094 13.074219 C 25.074219 12.300781 29.03125 11.238281 32.988281 10.851562 C 35.015625 10.660156 37.042969 10.660156 38.972656 10.949219 L 35.980469 15.390625 "/>
</g>
</svg>
