<?xml version="1.0" encoding="UTF-8"?>
<svg xmlns="http://www.w3.org/2000/svg" xmlns:xlink="http://www.w3.org/1999/xlink" width="56pt" height="56pt" viewBox="0 0 56 56" version="1.1">
<g id="surface1">
<rect x="0" y="0" width="56" height="56" style="fill:rgb(89.988708%,8.302307%,25.935364%);fill-opacity:1;stroke:none;"/>
<path style=" stroke:none;fill-rule:nonzero;fill:rgb(100%,100%,100%);fill-opacity:1;" d="M 43.5 41.476562 C 43.5 44.539062 43.5 47.425781 43.5 50.417969 C 43.167969 50.449219 42.875 50.496094 42.578125 50.503906 C 42.03125 50.519531 41.488281 50.507812 40.945312 50.511719 C 33.515625 50.570312 26.085938 50.667969 18.65625 50.679688 C 12.945312 50.691406 8.054688 46.875 6.820312 41.367188 C 6.28125 38.980469 6.425781 36.609375 7.253906 34.285156 C 9.757812 27.261719 12.257812 20.238281 14.753906 13.210938 C 15.585938 10.871094 16.40625 8.523438 17.238281 6.183594 C 17.34375 5.890625 17.484375 5.609375 17.609375 5.320312 C 20.785156 5.320312 23.902344 5.320312 27.171875 5.320312 C 26.710938 6.640625 26.285156 7.894531 25.84375 9.140625 C 24.359375 13.308594 22.859375 17.476562 21.382812 21.648438 C 19.546875 26.84375 17.746094 32.050781 15.894531 37.242188 C 15.421875 38.5625 15.5 39.714844 16.542969 40.722656 C 17.125 41.289062 17.8125 41.53125 18.632812 41.523438 C 21.445312 41.5 24.253906 41.511719 27.066406 41.507812 C 32.097656 41.496094 37.128906 41.484375 42.160156 41.476562 C 42.566406 41.476562 42.96875 41.476562 43.5 41.476562 "/>
</g>
</svg>
