<?xml version="1.0" encoding="UTF-8"?>
<svg xmlns="http://www.w3.org/2000/svg" xmlns:xlink="http://www.w3.org/1999/xlink" width="56pt" height="56pt" viewBox="0 0 56 56" version="1.1">
<g id="surface1">
<rect x="0" y="0" width="56" height="56" style="fill:rgb(95.66803%,95.779419%,96.777344%);fill-opacity:1;stroke:none;"/>
<path style=" stroke:none;fill-rule:nonzero;fill:rgb(16.821289%,35.153198%,68.455505%);fill-opacity:1;" d="M 18.835938 22.890625 C 18.78125 22.890625 18.753906 22.894531 18.722656 22.890625 C 18.375 22.875 18.03125 22.882812 17.691406 22.945312 C 16.828125 23.101562 16.210938 23.578125 15.804688 24.34375 C 15.488281 24.933594 15.371094 25.582031 15.285156 26.238281 C 15.28125 26.269531 15.304688 26.300781 15.328125 26.363281 C 15.628906 25.890625 15.976562 25.503906 16.445312 25.238281 C 16.90625 24.972656 17.402344 24.84375 17.976562 24.839844 C 17.601562 25.28125 17.304688 25.710938 17.171875 26.242188 C 17.035156 26.78125 17.097656 27.570312 17.308594 27.777344 C 17.34375 27.695312 17.375 27.621094 17.40625 27.542969 C 17.59375 27.105469 17.796875 26.679688 18.160156 26.351562 C 18.347656 26.179688 18.558594 26.042969 18.835938 25.964844 C 18.835938 26.078125 18.835938 26.171875 18.835938 26.265625 C 18.820312 27.390625 18.964844 28.496094 19.253906 29.585938 C 19.738281 31.425781 20.636719 33.046875 21.863281 34.488281 C 23 35.828125 24.347656 36.925781 25.820312 37.871094 C 27.144531 38.726562 28.542969 39.453125 30 40.050781 C 30.953125 40.445312 31.917969 40.808594 32.890625 41.140625 C 33.804688 41.449219 34.734375 41.714844 35.664062 41.976562 C 36.425781 42.1875 37.199219 42.371094 37.96875 42.550781 C 38.644531 42.707031 39.320312 42.84375 40 42.972656 C 40.285156 43.03125 40.582031 43.089844 40.871094 43.09375 C 42.078125 43.105469 43.28125 43.101562 44.484375 43.097656 C 44.570312 43.097656 44.65625 43.074219 44.785156 43.050781 C 44.726562 43.027344 44.71875 43.019531 44.707031 43.015625 C 43.949219 42.886719 43.191406 42.765625 42.4375 42.625 C 41.734375 42.492188 41.03125 42.355469 40.332031 42.195312 C 39.25 41.949219 38.167969 41.6875 37.09375 41.410156 C 35.828125 41.085938 34.585938 40.695312 33.351562 40.261719 C 32.269531 39.882812 31.199219 39.460938 30.152344 38.980469 C 28.539062 38.242188 27 37.386719 25.574219 36.332031 C 24.121094 35.253906 22.847656 34.007812 21.847656 32.492188 C 21.21875 31.539062 20.738281 30.519531 20.410156 29.425781 C 20.019531 28.136719 19.871094 26.8125 19.90625 25.464844 C 19.90625 25.414062 19.917969 25.367188 19.925781 25.324219 C 19.953125 25.316406 19.964844 25.308594 19.976562 25.308594 C 20.007812 25.304688 20.039062 25.304688 20.070312 25.304688 C 20.722656 25.3125 21.269531 25.558594 21.695312 26.046875 C 21.902344 26.28125 22.078125 26.542969 22.269531 26.792969 C 22.3125 26.847656 22.363281 26.898438 22.429688 26.976562 C 22.53125 26.59375 22.609375 26.253906 22.582031 25.898438 C 22.554688 25.617188 22.4375 25.382812 22.234375 25.1875 C 22.023438 24.984375 21.765625 24.863281 21.492188 24.757812 C 21.355469 24.707031 21.214844 24.660156 21.046875 24.601562 C 21.125 24.558594 21.171875 24.527344 21.222656 24.5 C 21.886719 24.15625 22.574219 23.890625 23.324219 23.796875 C 23.925781 23.726562 24.496094 23.8125 25.039062 24.078125 C 25.644531 24.378906 26.089844 24.851562 26.449219 25.40625 C 26.625 25.679688 26.769531 25.972656 26.929688 26.257812 C 26.972656 26.335938 27.019531 26.414062 27.078125 26.519531 C 27.109375 26.449219 27.128906 26.421875 27.136719 26.394531 C 27.285156 25.894531 27.453125 25.394531 27.582031 24.886719 C 27.71875 24.332031 27.78125 23.773438 27.707031 23.195312 C 27.609375 22.484375 27.140625 21.964844 26.4375 21.839844 C 25.921875 21.746094 25.402344 21.773438 24.890625 21.863281 C 23.992188 22.019531 23.128906 22.296875 22.277344 22.617188 C 22.132812 22.671875 21.984375 22.722656 21.820312 22.78125 C 21.960938 22.402344 22.121094 22.070312 22.335938 21.765625 C 22.855469 21.019531 23.570312 20.675781 24.476562 20.757812 C 24.671875 20.773438 24.867188 20.800781 25.078125 20.824219 C 25.070312 20.78125 25.074219 20.75 25.0625 20.722656 C 25.003906 20.574219 24.949219 20.421875 24.878906 20.28125 C 24.691406 19.890625 24.472656 19.523438 24.140625 19.238281 C 23.707031 18.875 23.226562 18.773438 22.691406 18.972656 C 22.335938 19.105469 22.035156 19.320312 21.769531 19.582031 C 21.09375 20.234375 20.648438 21.039062 20.273438 21.886719 C 20.257812 21.929688 20.234375 21.972656 20.199219 22.042969 C 20.152344 21.925781 20.117188 21.835938 20.082031 21.75 C 19.851562 21.207031 19.546875 20.714844 19.046875 20.371094 C 18.597656 20.0625 18.105469 19.945312 17.570312 20.105469 C 17.25 20.203125 16.980469 20.378906 16.746094 20.617188 C 16.203125 21.167969 15.949219 21.855469 15.816406 22.601562 C 15.8125 22.621094 15.832031 22.644531 15.84375 22.6875 C 15.910156 22.648438 15.960938 22.613281 16.015625 22.582031 C 16.378906 22.34375 16.753906 22.121094 17.175781 22 C 17.511719 21.902344 17.839844 21.914062 18.140625 22.09375 C 18.449219 22.28125 18.648438 22.566406 18.835938 22.890625 Z M 8.320312 12.886719 C 8.402344 12.882812 8.484375 12.875 8.566406 12.875 C 10.914062 12.871094 13.257812 12.851562 15.601562 12.871094 C 16.878906 12.882812 18.117188 13.132812 19.285156 13.671875 C 20.21875 14.105469 21.007812 14.734375 21.710938 15.488281 C 23.277344 17.171875 24.863281 18.835938 26.441406 20.507812 C 27.882812 22.035156 29.328125 23.5625 30.769531 25.089844 C 32.414062 26.835938 34.0625 28.582031 35.710938 30.332031 C 37.035156 31.738281 38.363281 33.144531 39.691406 34.546875 C 41.351562 36.308594 43.015625 38.070312 44.675781 39.832031 C 45.632812 40.847656 46.59375 41.859375 47.550781 42.875 C 47.589844 42.914062 47.636719 42.949219 47.679688 42.984375 C 47.679688 43.035156 47.679688 43.085938 47.679688 43.136719 C 47.625 43.132812 47.566406 43.128906 47.507812 43.128906 C 46.503906 43.125 45.5 43.121094 44.492188 43.121094 C 43.097656 43.125 41.699219 43.125 40.304688 43.125 C 34.363281 43.128906 28.425781 43.128906 22.488281 43.128906 C 22.398438 43.128906 22.308594 43.128906 22.214844 43.128906 C 22.183594 43.078125 22.152344 43.039062 22.132812 42.992188 C 21.710938 42.082031 21.289062 41.171875 20.871094 40.261719 C 20.1875 38.773438 19.503906 37.285156 18.820312 35.800781 C 18.097656 34.234375 17.371094 32.667969 16.652344 31.101562 C 15.660156 28.960938 14.675781 26.820312 13.6875 24.675781 C 12.707031 22.550781 11.730469 20.429688 10.75 18.304688 C 9.972656 16.617188 9.195312 14.925781 8.417969 13.238281 C 8.390625 13.179688 8.351562 13.132812 8.320312 13.078125 C 8.320312 13.015625 8.320312 12.949219 8.320312 12.886719 "/>
</g>
</svg>
