<?xml version="1.0" encoding="UTF-8"?>
<svg xmlns="http://www.w3.org/2000/svg" xmlns:xlink="http://www.w3.org/1999/xlink" width="56pt" height="56pt" viewBox="0 0 56 56" version="1.1">
<g id="surface1">
<rect x="0" y="0" width="56" height="56" style="fill:rgb(92.559814%,15.179443%,19.137573%);fill-opacity:1;stroke:none;"/>
<path style=" stroke:none;fill-rule:evenodd;fill:rgb(100%,100%,100%);fill-opacity:1;" d="M 39.910156 23.109375 L 38.476562 26.269531 L 37.039062 26.269531 L 37.039062 22.824219 L 40.199219 22.824219 Z M 18.957031 17.945312 L 20.96875 17.945312 L 20.96875 15.933594 L 26.421875 15.933594 L 26.421875 18.230469 L 28.71875 18.230469 L 28.71875 15.933594 L 33.597656 15.933594 L 33.597656 18.230469 L 36.753906 18.230469 L 36.753906 15.933594 L 41.34375 15.933594 L 41.34375 18.804688 L 43.644531 18.804688 L 42.207031 19.953125 L 41.058594 21.097656 L 41.058594 18.804688 L 37.039062 18.804688 L 37.039062 22.535156 L 33.023438 22.535156 L 33.023438 26.554688 L 29.289062 26.554688 L 29.289062 30.574219 L 25.847656 30.574219 L 25.847656 34.59375 L 5.179688 15.933594 L 18.957031 15.933594 Z M 50.820312 15.933594 L 48.234375 16.507812 L 45.652344 17.367188 L 45.652344 15.648438 Z M 25.273438 30 L 22.402344 30 L 22.402344 26.84375 L 25.273438 26.84375 Z M 21.253906 25.695312 L 18.957031 25.695312 L 18.957031 23.394531 L 21.253906 23.394531 Z M 29.003906 26.269531 L 26.132812 26.269531 L 26.132812 23.109375 L 29.003906 23.109375 Z M 17.234375 21.675781 L 15.226562 21.675781 L 15.226562 19.664062 L 17.234375 19.664062 Z M 24.984375 21.960938 L 22.402344 21.960938 L 22.402344 19.378906 L 24.984375 19.378906 Z M 32.734375 22.25 L 29.863281 22.25 L 29.863281 19.378906 L 32.734375 19.378906 Z M 36.46875 44.351562 L 34.457031 42.34375 L 36.46875 42.34375 Z M 33.023438 41.191406 L 30.4375 38.894531 L 33.023438 38.894531 Z M 36.46875 37.460938 L 33.882812 37.460938 L 33.882812 34.878906 L 36.46875 34.878906 Z M 29.578125 37.746094 L 25.847656 34.59375 L 29.578125 34.59375 Z M 33.023438 34.304688 L 29.578125 34.304688 L 29.578125 30.574219 L 33.023438 30.574219 Z M 36.753906 30.289062 L 33.023438 30.289062 L 33.023438 26.554688 L 36.753906 26.554688 L 36.753906 30.289062 "/>
</g>
</svg>
