<?xml version="1.0" encoding="UTF-8"?>
<svg xmlns="http://www.w3.org/2000/svg" xmlns:xlink="http://www.w3.org/1999/xlink" width="56pt" height="56pt" viewBox="0 0 56 56" version="1.1">
<g id="surface1">
<rect x="0" y="0" width="56" height="56" style="fill:rgb(92.347717%,11.257935%,15.748596%);fill-opacity:1;stroke:none;"/>
<path style=" stroke:none;fill-rule:nonzero;fill:rgb(100%,100%,100%);fill-opacity:1;" d="M 8.703125 48.34375 C 8.800781 42.242188 10.109375 36.773438 13.835938 32.066406 C 14.488281 31.238281 15.492188 30.597656 16.457031 30.121094 C 18.273438 29.230469 19.621094 27.992188 20.339844 26.003906 C 19.488281 23.894531 17.359375 23.375 15.3125 22.328125 C 16.980469 21.882812 18.351562 21.515625 19.972656 21.085938 C 21.039062 21.515625 22.296875 22.023438 23.769531 22.621094 C 25.171875 20.019531 26.492188 17.367188 28.015625 14.839844 C 28.636719 13.8125 29.554688 12.769531 30.59375 12.226562 C 33.632812 10.636719 36.703125 8.980469 39.953125 7.964844 C 41.949219 7.34375 44.292969 7.851562 47.296875 7.851562 C 45.234375 8.875 43.757812 9.351562 42.597656 10.238281 C 40.648438 11.726562 37.792969 12.644531 38.265625 16.019531 C 38.308594 16.339844 37.941406 16.746094 37.710938 17.078125 C 35.675781 19.988281 33.632812 22.890625 31.65625 25.707031 C 34.132812 29.230469 34.324219 29.386719 40.863281 33.117188 C 40.101562 35.785156 38.179688 36.269531 35.535156 35.859375 C 33.996094 32.925781 30.835938 33.265625 28.1875 32.503906 C 25.429688 33.730469 23.191406 35.171875 21.230469 37.570312 C 19.261719 39.972656 17.171875 42.355469 15.054688 44.65625 C 13.542969 46.304688 11.847656 48.386719 8.703125 48.34375 "/>
</g>
</svg>
