<?xml version="1.0" encoding="UTF-8"?>
<svg xmlns="http://www.w3.org/2000/svg" xmlns:xlink="http://www.w3.org/1999/xlink" width="56pt" height="56pt" viewBox="0 0 56 56" version="1.1">
<g id="surface1">
<rect x="0" y="0" width="56" height="56" style="fill:rgb(95.666504%,95.776367%,96.775818%);fill-opacity:1;stroke:none;"/>
<path style=" stroke:none;fill-rule:nonzero;fill:rgb(93.313599%,14.39209%,21.403503%);fill-opacity:1;" d="M 8.417969 23.980469 C 8.417969 24.527344 8.503906 25.085938 8.714844 25.609375 C 9.671875 27.980469 12.105469 29.433594 15.1875 28.199219 C 15.929688 27.902344 36.367188 19.667969 36.367188 19.667969 C 36.367188 19.667969 28.320312 40.074219 28.015625 40.835938 C 26.84375 43.761719 28.25 46.40625 30.644531 47.300781 C 31.175781 47.492188 31.726562 47.582031 32.273438 47.582031 C 34.230469 47.574219 35.957031 46.417969 36.796875 44.113281 C 36.925781 43.769531 46.992188 16.128906 47.21875 15.460938 C 47.351562 15.070312 47.578125 14.144531 47.582031 13.503906 C 47.589844 12.136719 47.082031 10.847656 46.101562 9.875 C 45.132812 8.910156 43.859375 8.410156 42.507812 8.417969 C 41.855469 8.421875 41.320312 8.535156 40.511719 8.792969 C 40.03125 8.949219 14.082031 18.605469 11.855469 19.433594 C 9.636719 20.261719 8.414062 22.027344 8.417969 23.980469 "/>
</g>
</svg>
