<?xml version="1.0" encoding="UTF-8"?>
<svg xmlns="http://www.w3.org/2000/svg" xmlns:xlink="http://www.w3.org/1999/xlink" width="56.01pt" height="56pt" viewBox="0 0 56.01 56" version="1.1">
<defs>
<clipPath id="clip1">
  <path d="M 17 0 L 56.011719 0 L 56.011719 50 L 17 50 Z M 17 0 "/>
</clipPath>
<clipPath id="clip2">
  <path d="M 7 3 L 56.011719 3 L 56.011719 56 L 7 56 Z M 7 3 "/>
</clipPath>
</defs>
<g id="surface1">
<path style=" stroke:none;fill-rule:nonzero;fill:rgb(95.66803%,95.779419%,96.777344%);fill-opacity:1;" d="M 56 56 L 0 56 L 0 0 L 56 0 L 56 56 "/>
<path style=" stroke:none;fill-rule:nonzero;fill:rgb(38.497925%,37.379456%,37.657166%);fill-opacity:1;" d="M 56 6.605469 C 55.984375 6.625 55.96875 6.648438 55.953125 6.667969 C 55.96875 6.671875 55.984375 6.667969 56 6.660156 C 56 6.640625 56 6.621094 56 6.605469 "/>
<g clip-path="url(#clip1)" clip-rule="nonzero">
<path style=" stroke:none;fill-rule:nonzero;fill:rgb(13.282776%,25.772095%,47.225952%);fill-opacity:1;" d="M 36.542969 48.433594 C 36.550781 48.40625 36.566406 48.382812 36.578125 48.359375 C 36.765625 47.976562 36.960938 47.601562 37.140625 47.214844 C 37.308594 46.855469 37.457031 46.484375 37.621094 46.125 C 37.785156 45.773438 37.972656 45.429688 38.128906 45.074219 C 38.316406 44.625 38.515625 44.179688 38.734375 43.746094 C 38.917969 43.382812 39.0625 43 39.226562 42.628906 C 39.289062 42.476562 39.347656 42.328125 39.421875 42.183594 C 39.46875 42.089844 39.53125 42.003906 39.632812 41.929688 C 39.636719 41.972656 39.636719 42.015625 39.640625 42.058594 C 39.8125 41.699219 39.984375 41.335938 40.15625 40.972656 C 40.726562 39.742188 41.296875 38.507812 41.867188 37.273438 C 42.175781 36.601562 42.476562 35.925781 42.789062 35.257812 C 43.203125 34.351562 43.628906 33.453125 44.042969 32.550781 C 44.640625 31.257812 45.230469 29.964844 45.828125 28.667969 C 46.25 27.75 46.679688 26.835938 47.105469 25.914062 C 47.402344 25.269531 47.695312 24.617188 47.992188 23.972656 C 48.28125 23.34375 48.574219 22.714844 48.867188 22.085938 C 49.15625 21.464844 49.441406 20.84375 49.726562 20.222656 C 49.742188 20.191406 49.742188 20.152344 49.75 20.113281 C 49.730469 20.058594 49.683594 19.988281 49.703125 19.949219 C 49.78125 19.746094 49.878906 19.550781 49.96875 19.355469 C 50.042969 19.191406 50.113281 19.027344 50.1875 18.859375 C 50.214844 18.800781 50.234375 18.742188 50.261719 18.683594 C 50.40625 18.382812 50.550781 18.082031 50.691406 17.777344 C 50.824219 17.492188 50.945312 17.199219 51.074219 16.910156 C 51.121094 16.804688 51.203125 16.726562 51.242188 16.605469 C 51.320312 16.359375 51.453125 16.128906 51.566406 15.894531 C 51.621094 15.777344 51.683594 15.667969 51.734375 15.550781 C 51.851562 15.277344 51.960938 15 52.078125 14.726562 C 52.144531 14.578125 52.226562 14.433594 52.296875 14.289062 C 52.488281 13.878906 52.679688 13.46875 52.867188 13.058594 C 53.046875 12.664062 53.214844 12.261719 53.398438 11.867188 C 53.585938 11.464844 53.792969 11.074219 53.980469 10.671875 C 54.144531 10.328125 54.28125 9.972656 54.4375 9.625 C 54.5625 9.355469 54.707031 9.09375 54.832031 8.824219 C 54.902344 8.675781 54.953125 8.519531 55.019531 8.371094 C 55.121094 8.160156 55.234375 7.953125 55.332031 7.738281 C 55.441406 7.5 55.53125 7.253906 55.636719 7.015625 C 55.679688 6.914062 55.957031 6.757812 56 6.660156 C 56.027344 6.597656 56 0 56 0 L 49.238281 0 C 49.21875 0.0703125 45.996094 6.617188 45.976562 6.65625 C 45.902344 6.824219 45.820312 6.984375 45.738281 7.148438 C 45.394531 7.863281 45.050781 8.578125 44.703125 9.289062 C 44.34375 10.027344 43.972656 10.757812 43.609375 11.492188 C 43.046875 12.636719 42.488281 13.785156 41.917969 14.929688 C 41.453125 15.867188 40.980469 16.800781 40.507812 17.734375 C 40.070312 18.597656 39.632812 19.457031 39.191406 20.316406 C 38.910156 20.859375 38.625 21.402344 38.347656 21.941406 C 38.050781 22.519531 37.757812 23.09375 37.460938 23.667969 C 37.144531 24.273438 36.808594 24.871094 36.503906 25.480469 C 36.183594 26.113281 35.898438 26.765625 35.582031 27.398438 C 35.128906 28.292969 34.6875 29.195312 34.195312 30.066406 C 33.722656 30.898438 33.195312 31.703125 32.679688 32.511719 C 31.914062 33.71875 31.132812 34.917969 30.363281 36.128906 C 30.207031 36.378906 30.074219 36.648438 29.90625 36.945312 C 30.027344 36.945312 30.101562 36.960938 30.167969 36.945312 C 30.421875 36.867188 30.683594 36.808594 30.917969 36.695312 C 31.253906 36.535156 31.578125 36.339844 31.890625 36.136719 C 32.378906 35.820312 32.855469 35.46875 33.234375 35.023438 C 33.996094 34.136719 34.730469 33.222656 35.476562 32.324219 C 35.863281 31.859375 36.25 31.402344 36.640625 30.941406 C 36.691406 30.878906 36.75 30.828125 36.804688 30.773438 C 36.824219 30.871094 36.816406 30.953125 36.789062 31.023438 C 36.605469 31.476562 36.4375 31.941406 36.230469 32.386719 C 35.820312 33.269531 35.402344 34.148438 34.960938 35.015625 C 34.609375 35.699219 34.234375 36.367188 33.839844 37.023438 C 33.316406 37.875 32.652344 38.621094 31.933594 39.3125 C 31.621094 39.609375 31.320312 39.917969 30.984375 40.183594 C 30.585938 40.5 30.148438 40.773438 29.734375 41.070312 C 29.421875 41.292969 29.113281 41.519531 28.8125 41.753906 C 28.675781 41.859375 28.570312 41.992188 28.527344 42.199219 C 28.636719 42.210938 28.726562 42.226562 28.8125 42.230469 C 29.191406 42.238281 29.554688 42.140625 29.910156 42.035156 C 30.425781 41.882812 30.929688 41.703125 31.417969 41.476562 C 32.15625 41.136719 32.894531 40.804688 33.632812 40.46875 C 33.867188 40.363281 34.089844 40.21875 34.367188 40.164062 C 34.355469 40.210938 34.355469 40.238281 34.339844 40.257812 C 34.292969 40.324219 34.242188 40.386719 34.1875 40.449219 C 33.746094 40.953125 33.238281 41.386719 32.714844 41.796875 C 31.601562 42.664062 30.328125 43.195312 28.988281 43.582031 C 28.332031 43.769531 27.65625 43.886719 26.992188 44.046875 C 26.527344 44.160156 26.058594 44.289062 25.601562 44.429688 C 25.402344 44.492188 25.207031 44.585938 25.035156 44.699219 C 24.441406 45.09375 23.859375 45.503906 23.273438 45.90625 C 22.445312 46.46875 21.621094 47.046875 20.78125 47.59375 C 20.054688 48.070312 19.296875 48.492188 18.519531 48.878906 C 18.203125 49.039062 17.886719 49.199219 17.570312 49.359375 C 17.609375 49.394531 17.652344 49.429688 17.71875 49.484375 C 17.859375 49.46875 18.019531 49.445312 18.179688 49.425781 C 18.261719 49.417969 18.34375 49.417969 18.425781 49.417969 C 24.15625 49.417969 29.890625 49.417969 35.617188 49.417969 "/>
</g>
<path style=" stroke:none;fill-rule:nonzero;fill:rgb(38.497925%,37.379456%,37.657166%);fill-opacity:1;" d="M 53.367188 12.257812 C 53.347656 12.3125 53.328125 12.363281 53.308594 12.417969 C 53.328125 12.363281 53.347656 12.3125 53.367188 12.257812 "/>
<path style=" stroke:none;fill-rule:nonzero;fill:rgb(38.497925%,37.379456%,37.657166%);fill-opacity:1;" d="M 38.109375 45.355469 C 38.089844 45.410156 38.070312 45.464844 38.046875 45.515625 C 38.070312 45.464844 38.089844 45.410156 38.109375 45.355469 "/>
<path style=" stroke:none;fill-rule:nonzero;fill:rgb(38.497925%,37.379456%,37.657166%);fill-opacity:1;" d="M 50.738281 17.96875 C 50.71875 18.023438 50.699219 18.078125 50.675781 18.132812 C 50.699219 18.078125 50.71875 18.023438 50.738281 17.96875 "/>
<path style=" stroke:none;fill-rule:nonzero;fill:rgb(38.497925%,37.379456%,37.657166%);fill-opacity:1;" d="M 54.964844 8.804688 C 54.945312 8.855469 54.921875 8.910156 54.902344 8.960938 C 54.921875 8.910156 54.945312 8.855469 54.964844 8.804688 "/>
<path style=" stroke:none;fill-rule:nonzero;fill:rgb(38.497925%,37.379456%,37.657166%);fill-opacity:1;" d="M 38.703125 44.09375 C 38.683594 44.128906 38.667969 44.164062 38.652344 44.199219 C 38.667969 44.164062 38.683594 44.128906 38.703125 44.09375 "/>
<path style=" stroke:none;fill-rule:nonzero;fill:rgb(38.497925%,37.379456%,37.657166%);fill-opacity:1;" d="M 55.953125 6.664062 C 55.933594 6.703125 55.917969 6.742188 55.898438 6.785156 C 55.917969 6.742188 55.933594 6.703125 55.953125 6.664062 "/>
<path style=" stroke:none;fill-rule:nonzero;fill:rgb(38.497925%,37.379456%,37.657166%);fill-opacity:1;" d="M 38.652344 44.203125 C 38.636719 44.238281 38.617188 44.277344 38.601562 44.316406 C 38.617188 44.277344 38.636719 44.238281 38.652344 44.203125 "/>
<path style=" stroke:none;fill-rule:nonzero;fill:rgb(38.497925%,37.379456%,37.657166%);fill-opacity:1;" d="M 55.835938 6.933594 C 55.816406 6.96875 55.796875 7.007812 55.78125 7.042969 C 55.796875 7.007812 55.816406 6.96875 55.835938 6.933594 "/>
<path style=" stroke:none;fill-rule:nonzero;fill:rgb(38.497925%,37.379456%,37.657166%);fill-opacity:1;" d="M 55.78125 7.042969 C 55.761719 7.082031 55.746094 7.117188 55.726562 7.15625 C 55.746094 7.117188 55.761719 7.082031 55.78125 7.042969 "/>
<path style=" stroke:none;fill-rule:nonzero;fill:rgb(38.497925%,37.379456%,37.657166%);fill-opacity:1;" d="M 55.730469 7.15625 C 55.714844 7.195312 55.695312 7.234375 55.675781 7.277344 C 55.695312 7.234375 55.714844 7.195312 55.730469 7.15625 "/>
<path style=" stroke:none;fill-rule:nonzero;fill:rgb(38.497925%,37.379456%,37.657166%);fill-opacity:1;" d="M 38.601562 44.3125 C 38.585938 44.351562 38.566406 44.386719 38.546875 44.425781 C 38.566406 44.386719 38.585938 44.351562 38.601562 44.3125 "/>
<path style=" stroke:none;fill-rule:nonzero;fill:rgb(38.497925%,37.379456%,37.657166%);fill-opacity:1;" d="M 38.492188 44.535156 C 38.476562 44.570312 38.460938 44.609375 38.441406 44.648438 C 38.460938 44.609375 38.476562 44.570312 38.492188 44.535156 "/>
<path style=" stroke:none;fill-rule:nonzero;fill:rgb(38.497925%,37.379456%,37.657166%);fill-opacity:1;" d="M 55.550781 7.539062 C 55.535156 7.574219 55.523438 7.609375 55.507812 7.648438 C 55.523438 7.609375 55.535156 7.574219 55.550781 7.539062 "/>
<path style=" stroke:none;fill-rule:nonzero;fill:rgb(38.497925%,37.379456%,37.657166%);fill-opacity:1;" d="M 55.507812 7.648438 C 55.488281 7.683594 55.46875 7.722656 55.453125 7.757812 C 55.46875 7.722656 55.488281 7.683594 55.507812 7.648438 "/>
<path style=" stroke:none;fill-rule:nonzero;fill:rgb(38.497925%,37.379456%,37.657166%);fill-opacity:1;" d="M 55.453125 7.757812 C 55.433594 7.792969 55.414062 7.832031 55.398438 7.871094 C 55.414062 7.832031 55.433594 7.792969 55.453125 7.757812 "/>
<path style=" stroke:none;fill-rule:nonzero;fill:rgb(38.497925%,37.379456%,37.657166%);fill-opacity:1;" d="M 38.441406 44.644531 C 38.425781 44.683594 38.40625 44.726562 38.386719 44.765625 C 38.40625 44.726562 38.425781 44.683594 38.441406 44.644531 "/>
<path style=" stroke:none;fill-rule:nonzero;fill:rgb(38.497925%,37.379456%,37.657166%);fill-opacity:1;" d="M 55.34375 7.976562 C 55.328125 8.019531 55.3125 8.058594 55.292969 8.101562 C 55.3125 8.058594 55.328125 8.019531 55.34375 7.976562 "/>
<path style=" stroke:none;fill-rule:nonzero;fill:rgb(38.497925%,37.379456%,37.657166%);fill-opacity:1;" d="M 38.324219 44.914062 C 38.304688 44.953125 38.285156 44.988281 38.269531 45.023438 C 38.285156 44.988281 38.304688 44.953125 38.324219 44.914062 "/>
<path style=" stroke:none;fill-rule:nonzero;fill:rgb(38.497925%,37.379456%,37.657166%);fill-opacity:1;" d="M 38.269531 45.027344 C 38.25 45.0625 38.234375 45.101562 38.21875 45.140625 C 38.234375 45.101562 38.25 45.0625 38.269531 45.027344 "/>
<path style=" stroke:none;fill-rule:nonzero;fill:rgb(38.497925%,37.379456%,37.657166%);fill-opacity:1;" d="M 55.171875 8.359375 C 55.15625 8.398438 55.140625 8.433594 55.125 8.472656 C 55.140625 8.433594 55.15625 8.398438 55.171875 8.359375 "/>
<path style=" stroke:none;fill-rule:nonzero;fill:rgb(38.497925%,37.379456%,37.657166%);fill-opacity:1;" d="M 55.125 8.472656 C 55.105469 8.511719 55.089844 8.550781 55.074219 8.59375 C 55.089844 8.550781 55.105469 8.511719 55.125 8.472656 "/>
<path style=" stroke:none;fill-rule:nonzero;fill:rgb(38.497925%,37.379456%,37.657166%);fill-opacity:1;" d="M 38.21875 45.136719 C 38.203125 45.175781 38.183594 45.214844 38.164062 45.253906 C 38.183594 45.214844 38.203125 45.175781 38.21875 45.136719 "/>
<path style=" stroke:none;fill-rule:nonzero;fill:rgb(38.497925%,37.379456%,37.657166%);fill-opacity:1;" d="M 37.941406 45.738281 C 37.921875 45.777344 37.90625 45.8125 37.886719 45.851562 C 37.90625 45.8125 37.921875 45.777344 37.941406 45.738281 "/>
<path style=" stroke:none;fill-rule:nonzero;fill:rgb(38.497925%,37.379456%,37.657166%);fill-opacity:1;" d="M 37.886719 45.847656 C 37.871094 45.886719 37.851562 45.925781 37.835938 45.964844 C 37.851562 45.925781 37.871094 45.886719 37.886719 45.847656 "/>
<path style=" stroke:none;fill-rule:nonzero;fill:rgb(38.497925%,37.379456%,37.657166%);fill-opacity:1;" d="M 37.839844 45.964844 C 37.820312 46 37.800781 46.039062 37.78125 46.074219 C 37.800781 46.039062 37.820312 46 37.839844 45.964844 "/>
<path style=" stroke:none;fill-rule:nonzero;fill:rgb(38.497925%,37.379456%,37.657166%);fill-opacity:1;" d="M 54.789062 9.183594 C 54.773438 9.222656 54.757812 9.261719 54.742188 9.296875 C 54.757812 9.261719 54.773438 9.222656 54.789062 9.183594 "/>
<path style=" stroke:none;fill-rule:nonzero;fill:rgb(38.497925%,37.379456%,37.657166%);fill-opacity:1;" d="M 54.742188 9.296875 C 54.722656 9.335938 54.707031 9.378906 54.691406 9.417969 C 54.707031 9.378906 54.722656 9.335938 54.742188 9.296875 "/>
<path style=" stroke:none;fill-rule:nonzero;fill:rgb(38.497925%,37.379456%,37.657166%);fill-opacity:1;" d="M 37.714844 46.234375 C 37.699219 46.269531 37.679688 46.304688 37.664062 46.339844 C 37.679688 46.304688 37.699219 46.269531 37.714844 46.234375 "/>
<path style=" stroke:none;fill-rule:nonzero;fill:rgb(38.497925%,37.379456%,37.657166%);fill-opacity:1;" d="M 37.664062 46.34375 C 37.648438 46.378906 37.632812 46.417969 37.613281 46.457031 C 37.632812 46.417969 37.648438 46.378906 37.664062 46.34375 "/>
<path style=" stroke:none;fill-rule:nonzero;fill:rgb(38.497925%,37.379456%,37.657166%);fill-opacity:1;" d="M 54.570312 9.675781 C 54.550781 9.714844 54.53125 9.75 54.515625 9.785156 C 54.53125 9.75 54.550781 9.714844 54.570312 9.675781 "/>
<path style=" stroke:none;fill-rule:nonzero;fill:rgb(38.497925%,37.379456%,37.657166%);fill-opacity:1;" d="M 54.515625 9.785156 C 54.496094 9.824219 54.480469 9.863281 54.464844 9.902344 C 54.480469 9.863281 54.496094 9.824219 54.515625 9.785156 "/>
<path style=" stroke:none;fill-rule:nonzero;fill:rgb(38.497925%,37.379456%,37.657166%);fill-opacity:1;" d="M 54.464844 9.898438 C 54.449219 9.9375 54.429688 9.976562 54.410156 10.015625 C 54.429688 9.976562 54.449219 9.9375 54.464844 9.898438 "/>
<path style=" stroke:none;fill-rule:nonzero;fill:rgb(38.497925%,37.379456%,37.657166%);fill-opacity:1;" d="M 37.613281 46.453125 C 37.597656 46.492188 37.578125 46.53125 37.558594 46.570312 C 37.578125 46.53125 37.597656 46.492188 37.613281 46.453125 "/>
<path style=" stroke:none;fill-rule:nonzero;fill:rgb(38.497925%,37.379456%,37.657166%);fill-opacity:1;" d="M 54.355469 10.117188 C 54.339844 10.160156 54.324219 10.203125 54.304688 10.242188 C 54.324219 10.203125 54.339844 10.160156 54.355469 10.117188 "/>
<path style=" stroke:none;fill-rule:nonzero;fill:rgb(38.497925%,37.379456%,37.657166%);fill-opacity:1;" d="M 37.507812 46.675781 C 37.488281 46.710938 37.472656 46.75 37.453125 46.789062 C 37.472656 46.75 37.488281 46.710938 37.507812 46.675781 "/>
<path style=" stroke:none;fill-rule:nonzero;fill:rgb(38.497925%,37.379456%,37.657166%);fill-opacity:1;" d="M 37.457031 46.789062 C 37.4375 46.828125 37.417969 46.867188 37.402344 46.90625 C 37.417969 46.867188 37.4375 46.828125 37.457031 46.789062 "/>
<path style=" stroke:none;fill-rule:nonzero;fill:rgb(38.497925%,37.379456%,37.657166%);fill-opacity:1;" d="M 54.183594 10.5 C 54.167969 10.539062 54.152344 10.578125 54.136719 10.613281 C 54.152344 10.578125 54.167969 10.539062 54.183594 10.5 "/>
<path style=" stroke:none;fill-rule:nonzero;fill:rgb(38.497925%,37.379456%,37.657166%);fill-opacity:1;" d="M 54.136719 10.613281 C 54.121094 10.652344 54.101562 10.6875 54.085938 10.726562 C 54.101562 10.6875 54.121094 10.652344 54.136719 10.613281 "/>
<path style=" stroke:none;fill-rule:nonzero;fill:rgb(38.497925%,37.379456%,37.657166%);fill-opacity:1;" d="M 54.085938 10.722656 C 54.066406 10.761719 54.046875 10.800781 54.027344 10.839844 C 54.046875 10.800781 54.066406 10.761719 54.085938 10.722656 "/>
<path style=" stroke:none;fill-rule:nonzero;fill:rgb(38.497925%,37.379456%,37.657166%);fill-opacity:1;" d="M 37.335938 47.058594 C 37.316406 47.09375 37.300781 47.128906 37.28125 47.167969 C 37.300781 47.128906 37.316406 47.09375 37.335938 47.058594 "/>
<path style=" stroke:none;fill-rule:nonzero;fill:rgb(38.497925%,37.379456%,37.657166%);fill-opacity:1;" d="M 53.960938 10.996094 C 53.945312 11.03125 53.925781 11.066406 53.910156 11.101562 C 53.925781 11.066406 53.945312 11.03125 53.960938 10.996094 "/>
<path style=" stroke:none;fill-rule:nonzero;fill:rgb(38.497925%,37.379456%,37.657166%);fill-opacity:1;" d="M 53.910156 11.105469 C 53.894531 11.140625 53.878906 11.179688 53.859375 11.21875 C 53.878906 11.179688 53.894531 11.140625 53.910156 11.105469 "/>
<path style=" stroke:none;fill-rule:nonzero;fill:rgb(38.497925%,37.379456%,37.657166%);fill-opacity:1;" d="M 53.863281 11.214844 C 53.84375 11.253906 53.824219 11.289062 53.804688 11.324219 C 53.824219 11.289062 53.84375 11.253906 53.863281 11.214844 "/>
<path style=" stroke:none;fill-rule:nonzero;fill:rgb(38.497925%,37.379456%,37.657166%);fill-opacity:1;" d="M 53.804688 11.324219 C 53.785156 11.363281 53.769531 11.398438 53.753906 11.4375 C 53.769531 11.398438 53.785156 11.363281 53.804688 11.324219 "/>
<path style=" stroke:none;fill-rule:nonzero;fill:rgb(38.497925%,37.379456%,37.657166%);fill-opacity:1;" d="M 53.753906 11.4375 C 53.734375 11.472656 53.71875 11.511719 53.699219 11.550781 C 53.71875 11.511719 53.734375 11.472656 53.753906 11.4375 "/>
<path style=" stroke:none;fill-rule:nonzero;fill:rgb(38.497925%,37.379456%,37.657166%);fill-opacity:1;" d="M 53.703125 11.546875 C 53.683594 11.585938 53.664062 11.628906 53.648438 11.667969 C 53.664062 11.628906 53.683594 11.585938 53.703125 11.546875 "/>
<path style=" stroke:none;fill-rule:nonzero;fill:rgb(38.497925%,37.379456%,37.657166%);fill-opacity:1;" d="M 37.28125 47.167969 C 37.265625 47.207031 37.25 47.242188 37.234375 47.28125 C 37.25 47.242188 37.265625 47.207031 37.28125 47.167969 "/>
<path style=" stroke:none;fill-rule:nonzero;fill:rgb(38.497925%,37.379456%,37.657166%);fill-opacity:1;" d="M 53.582031 11.820312 C 53.5625 11.855469 53.546875 11.890625 53.527344 11.925781 C 53.546875 11.890625 53.5625 11.855469 53.582031 11.820312 "/>
<path style=" stroke:none;fill-rule:nonzero;fill:rgb(38.497925%,37.379456%,37.657166%);fill-opacity:1;" d="M 53.527344 11.925781 C 53.511719 11.964844 53.492188 12.003906 53.476562 12.039062 C 53.492188 12.003906 53.511719 11.964844 53.527344 11.925781 "/>
<path style=" stroke:none;fill-rule:nonzero;fill:rgb(38.497925%,37.379456%,37.657166%);fill-opacity:1;" d="M 53.476562 12.039062 C 53.460938 12.078125 53.441406 12.117188 53.421875 12.15625 C 53.441406 12.117188 53.460938 12.078125 53.476562 12.039062 "/>
<path style=" stroke:none;fill-rule:nonzero;fill:rgb(38.497925%,37.379456%,37.657166%);fill-opacity:1;" d="M 37.234375 47.28125 C 37.214844 47.316406 37.195312 47.355469 37.175781 47.394531 C 37.195312 47.355469 37.214844 47.316406 37.234375 47.28125 "/>
<path style=" stroke:none;fill-rule:nonzero;fill:rgb(38.497925%,37.379456%,37.657166%);fill-opacity:1;" d="M 37.054688 47.660156 C 37.039062 47.699219 37.023438 47.734375 37.007812 47.769531 C 37.023438 47.734375 37.039062 47.699219 37.054688 47.660156 "/>
<path style=" stroke:none;fill-rule:nonzero;fill:rgb(38.497925%,37.379456%,37.657166%);fill-opacity:1;" d="M 36.953125 47.882812 C 36.933594 47.917969 36.917969 47.957031 36.902344 47.992188 C 36.917969 47.957031 36.933594 47.917969 36.953125 47.882812 "/>
<path style=" stroke:none;fill-rule:nonzero;fill:rgb(38.497925%,37.379456%,37.657166%);fill-opacity:1;" d="M 53.199219 12.640625 C 53.179688 12.679688 53.164062 12.714844 53.144531 12.75 C 53.164062 12.714844 53.179688 12.679688 53.199219 12.640625 "/>
<path style=" stroke:none;fill-rule:nonzero;fill:rgb(38.497925%,37.379456%,37.657166%);fill-opacity:1;" d="M 53.144531 12.75 C 53.128906 12.789062 53.113281 12.828125 53.09375 12.867188 C 53.113281 12.828125 53.128906 12.789062 53.144531 12.75 "/>
<path style=" stroke:none;fill-rule:nonzero;fill:rgb(38.497925%,37.379456%,37.657166%);fill-opacity:1;" d="M 53.097656 12.863281 C 53.078125 12.90625 53.058594 12.945312 53.042969 12.984375 C 53.058594 12.945312 53.078125 12.90625 53.097656 12.863281 "/>
<path style=" stroke:none;fill-rule:nonzero;fill:rgb(38.497925%,37.379456%,37.657166%);fill-opacity:1;" d="M 36.902344 47.992188 C 36.882812 48.03125 36.867188 48.066406 36.847656 48.105469 C 36.867188 48.066406 36.882812 48.03125 36.902344 47.992188 "/>
<path style=" stroke:none;fill-rule:nonzero;fill:rgb(38.497925%,37.379456%,37.657166%);fill-opacity:1;" d="M 52.972656 13.136719 C 52.957031 13.171875 52.941406 13.207031 52.925781 13.242188 C 52.941406 13.207031 52.957031 13.171875 52.972656 13.136719 "/>
<path style=" stroke:none;fill-rule:nonzero;fill:rgb(38.497925%,37.379456%,37.657166%);fill-opacity:1;" d="M 52.921875 13.246094 C 52.90625 13.28125 52.890625 13.320312 52.871094 13.359375 C 52.890625 13.320312 52.90625 13.28125 52.921875 13.246094 "/>
<path style=" stroke:none;fill-rule:nonzero;fill:rgb(38.497925%,37.379456%,37.657166%);fill-opacity:1;" d="M 52.875 13.355469 C 52.855469 13.394531 52.839844 13.433594 52.820312 13.472656 C 52.839844 13.433594 52.855469 13.394531 52.875 13.355469 "/>
<path style=" stroke:none;fill-rule:nonzero;fill:rgb(38.497925%,37.379456%,37.657166%);fill-opacity:1;" d="M 36.851562 48.101562 C 36.832031 48.144531 36.816406 48.183594 36.796875 48.222656 C 36.816406 48.183594 36.832031 48.144531 36.851562 48.101562 "/>
<path style=" stroke:none;fill-rule:nonzero;fill:rgb(38.497925%,37.379456%,37.657166%);fill-opacity:1;" d="M 52.765625 13.578125 C 52.746094 13.613281 52.730469 13.652344 52.714844 13.691406 C 52.730469 13.652344 52.746094 13.613281 52.765625 13.578125 "/>
<path style=" stroke:none;fill-rule:nonzero;fill:rgb(38.497925%,37.379456%,37.657166%);fill-opacity:1;" d="M 52.714844 13.6875 C 52.695312 13.730469 52.675781 13.769531 52.660156 13.808594 C 52.675781 13.769531 52.695312 13.730469 52.714844 13.6875 "/>
<path style=" stroke:none;fill-rule:nonzero;fill:rgb(38.497925%,37.379456%,37.657166%);fill-opacity:1;" d="M 36.730469 48.375 C 36.714844 48.410156 36.695312 48.445312 36.675781 48.480469 C 36.695312 48.445312 36.714844 48.410156 36.730469 48.375 "/>
<path style=" stroke:none;fill-rule:nonzero;fill:rgb(38.497925%,37.379456%,37.657166%);fill-opacity:1;" d="M 52.59375 13.960938 C 52.578125 13.996094 52.558594 14.03125 52.542969 14.070312 C 52.558594 14.03125 52.578125 13.996094 52.59375 13.960938 "/>
<path style=" stroke:none;fill-rule:nonzero;fill:rgb(38.497925%,37.379456%,37.657166%);fill-opacity:1;" d="M 52.539062 14.070312 C 52.523438 14.105469 52.507812 14.144531 52.488281 14.183594 C 52.507812 14.144531 52.523438 14.105469 52.539062 14.070312 "/>
<path style=" stroke:none;fill-rule:nonzero;fill:rgb(38.497925%,37.379456%,37.657166%);fill-opacity:1;" d="M 52.492188 14.179688 C 52.472656 14.21875 52.453125 14.257812 52.433594 14.296875 C 52.453125 14.257812 52.472656 14.21875 52.492188 14.179688 "/>
<path style=" stroke:none;fill-rule:nonzero;fill:rgb(38.497925%,37.379456%,37.657166%);fill-opacity:1;" d="M 36.675781 48.484375 C 36.65625 48.519531 36.640625 48.558594 36.625 48.59375 C 36.640625 48.558594 36.65625 48.519531 36.675781 48.484375 "/>
<path style=" stroke:none;fill-rule:nonzero;fill:rgb(38.497925%,37.379456%,37.657166%);fill-opacity:1;" d="M 36.625 48.59375 C 36.605469 48.632812 36.589844 48.671875 36.574219 48.710938 C 36.589844 48.671875 36.605469 48.632812 36.625 48.59375 "/>
<path style=" stroke:none;fill-rule:nonzero;fill:rgb(38.497925%,37.379456%,37.657166%);fill-opacity:1;" d="M 52.316406 14.5625 C 52.296875 14.601562 52.28125 14.636719 52.269531 14.671875 C 52.28125 14.636719 52.296875 14.601562 52.316406 14.5625 "/>
<path style=" stroke:none;fill-rule:nonzero;fill:rgb(38.497925%,37.379456%,37.657166%);fill-opacity:1;" d="M 36.46875 48.925781 C 36.449219 48.96875 36.429688 49.007812 36.410156 49.046875 C 36.429688 49.007812 36.449219 48.96875 36.46875 48.925781 "/>
<path style=" stroke:none;fill-rule:nonzero;fill:rgb(38.497925%,37.379456%,37.657166%);fill-opacity:1;" d="M 52.214844 14.78125 C 52.195312 14.820312 52.175781 14.855469 52.15625 14.890625 C 52.175781 14.855469 52.195312 14.820312 52.214844 14.78125 "/>
<path style=" stroke:none;fill-rule:nonzero;fill:rgb(38.497925%,37.379456%,37.657166%);fill-opacity:1;" d="M 52.15625 14.890625 C 52.140625 14.929688 52.125 14.96875 52.105469 15.007812 C 52.125 14.96875 52.140625 14.929688 52.15625 14.890625 "/>
<path style=" stroke:none;fill-rule:nonzero;fill:rgb(38.497925%,37.379456%,37.657166%);fill-opacity:1;" d="M 52.109375 15.003906 C 52.09375 15.046875 52.074219 15.085938 52.054688 15.125 C 52.074219 15.085938 52.09375 15.046875 52.109375 15.003906 "/>
<path style=" stroke:none;fill-rule:nonzero;fill:rgb(38.497925%,37.379456%,37.657166%);fill-opacity:1;" d="M 36.347656 49.199219 C 36.332031 49.234375 36.3125 49.269531 36.292969 49.304688 C 36.3125 49.269531 36.332031 49.234375 36.347656 49.199219 "/>
<path style=" stroke:none;fill-rule:nonzero;fill:rgb(38.497925%,37.379456%,37.657166%);fill-opacity:1;" d="M 51.988281 15.277344 C 51.972656 15.3125 51.953125 15.347656 51.9375 15.382812 C 51.953125 15.347656 51.972656 15.3125 51.988281 15.277344 "/>
<path style=" stroke:none;fill-rule:nonzero;fill:rgb(38.497925%,37.379456%,37.657166%);fill-opacity:1;" d="M 51.933594 15.386719 C 51.917969 15.421875 51.902344 15.460938 51.882812 15.496094 C 51.902344 15.460938 51.917969 15.421875 51.933594 15.386719 "/>
<path style=" stroke:none;fill-rule:nonzero;fill:rgb(38.497925%,37.379456%,37.657166%);fill-opacity:1;" d="M 51.882812 15.496094 C 51.867188 15.535156 51.847656 15.574219 51.832031 15.613281 C 51.847656 15.574219 51.867188 15.535156 51.882812 15.496094 "/>
<path style=" stroke:none;fill-rule:nonzero;fill:rgb(38.497925%,37.379456%,37.657166%);fill-opacity:1;" d="M 36.292969 49.304688 C 36.277344 49.34375 36.261719 49.382812 36.246094 49.421875 C 36.261719 49.382812 36.277344 49.34375 36.292969 49.304688 "/>
<path style=" stroke:none;fill-rule:nonzero;fill:rgb(38.497925%,37.379456%,37.657166%);fill-opacity:1;" d="M 51.726562 15.828125 C 51.707031 15.867188 51.691406 15.910156 51.671875 15.949219 C 51.691406 15.910156 51.707031 15.867188 51.726562 15.828125 "/>
<path style=" stroke:none;fill-rule:nonzero;fill:rgb(38.497925%,37.379456%,37.657166%);fill-opacity:1;" d="M 51.605469 16.097656 C 51.589844 16.136719 51.570312 16.171875 51.554688 16.210938 C 51.570312 16.171875 51.589844 16.136719 51.605469 16.097656 "/>
<path style=" stroke:none;fill-rule:nonzero;fill:rgb(38.497925%,37.379456%,37.657166%);fill-opacity:1;" d="M 51.554688 16.210938 C 51.535156 16.246094 51.519531 16.285156 51.503906 16.324219 C 51.519531 16.285156 51.535156 16.246094 51.554688 16.210938 "/>
<path style=" stroke:none;fill-rule:nonzero;fill:rgb(38.497925%,37.379456%,37.657166%);fill-opacity:1;" d="M 51.503906 16.320312 C 51.484375 16.359375 51.46875 16.402344 51.449219 16.441406 C 51.46875 16.402344 51.484375 16.359375 51.503906 16.320312 "/>
<path style=" stroke:none;fill-rule:nonzero;fill:rgb(38.497925%,37.379456%,37.657166%);fill-opacity:1;" d="M 51.328125 16.703125 C 51.3125 16.742188 51.296875 16.777344 51.28125 16.8125 C 51.296875 16.777344 51.3125 16.742188 51.328125 16.703125 "/>
<path style=" stroke:none;fill-rule:nonzero;fill:rgb(38.497925%,37.379456%,37.657166%);fill-opacity:1;" d="M 51.222656 16.921875 C 51.207031 16.960938 51.191406 16.996094 51.171875 17.035156 C 51.191406 16.996094 51.207031 16.960938 51.222656 16.921875 "/>
<path style=" stroke:none;fill-rule:nonzero;fill:rgb(38.497925%,37.379456%,37.657166%);fill-opacity:1;" d="M 51.171875 17.035156 C 51.15625 17.070312 51.136719 17.109375 51.121094 17.148438 C 51.136719 17.109375 51.15625 17.070312 51.171875 17.035156 "/>
<path style=" stroke:none;fill-rule:nonzero;fill:rgb(38.497925%,37.379456%,37.657166%);fill-opacity:1;" d="M 51.121094 17.144531 C 51.101562 17.1875 51.085938 17.226562 51.066406 17.265625 C 51.085938 17.226562 51.101562 17.1875 51.121094 17.144531 "/>
<path style=" stroke:none;fill-rule:nonzero;fill:rgb(38.497925%,37.379456%,37.657166%);fill-opacity:1;" d="M 51.003906 17.417969 C 50.984375 17.453125 50.96875 17.488281 50.949219 17.527344 C 50.96875 17.488281 50.984375 17.453125 51.003906 17.417969 "/>
<path style=" stroke:none;fill-rule:nonzero;fill:rgb(38.497925%,37.379456%,37.657166%);fill-opacity:1;" d="M 50.949219 17.527344 C 50.933594 17.5625 50.914062 17.601562 50.898438 17.640625 C 50.914062 17.601562 50.933594 17.5625 50.949219 17.527344 "/>
<path style=" stroke:none;fill-rule:nonzero;fill:rgb(38.497925%,37.379456%,37.657166%);fill-opacity:1;" d="M 50.898438 17.636719 C 50.878906 17.675781 50.863281 17.714844 50.84375 17.753906 C 50.863281 17.714844 50.878906 17.675781 50.898438 17.636719 "/>
<path style=" stroke:none;fill-rule:nonzero;fill:rgb(38.497925%,37.379456%,37.657166%);fill-opacity:1;" d="M 50.621094 18.238281 C 50.601562 18.277344 50.585938 18.3125 50.566406 18.347656 C 50.585938 18.3125 50.601562 18.277344 50.621094 18.238281 "/>
<path style=" stroke:none;fill-rule:nonzero;fill:rgb(38.497925%,37.379456%,37.657166%);fill-opacity:1;" d="M 50.566406 18.351562 C 50.546875 18.386719 50.53125 18.425781 50.515625 18.464844 C 50.53125 18.425781 50.546875 18.386719 50.566406 18.351562 "/>
<path style=" stroke:none;fill-rule:nonzero;fill:rgb(38.497925%,37.379456%,37.657166%);fill-opacity:1;" d="M 50.515625 18.460938 C 50.496094 18.503906 50.480469 18.542969 50.464844 18.585938 C 50.480469 18.542969 50.496094 18.503906 50.515625 18.460938 "/>
<path style=" stroke:none;fill-rule:nonzero;fill:rgb(38.497925%,37.379456%,37.657166%);fill-opacity:1;" d="M 50.339844 18.84375 C 50.324219 18.882812 50.304688 18.917969 50.289062 18.953125 C 50.304688 18.917969 50.324219 18.882812 50.339844 18.84375 "/>
<path style=" stroke:none;fill-rule:nonzero;fill:rgb(38.497925%,37.379456%,37.657166%);fill-opacity:1;" d="M 50.289062 18.953125 C 50.273438 18.992188 50.257812 19.027344 50.238281 19.066406 C 50.257812 19.027344 50.273438 18.992188 50.289062 18.953125 "/>
<path style=" stroke:none;fill-rule:nonzero;fill:rgb(38.497925%,37.379456%,37.657166%);fill-opacity:1;" d="M 50.238281 19.066406 C 50.222656 19.105469 50.203125 19.144531 50.183594 19.179688 C 50.203125 19.144531 50.222656 19.105469 50.238281 19.066406 "/>
<path style=" stroke:none;fill-rule:nonzero;fill:rgb(38.497925%,37.379456%,37.657166%);fill-opacity:1;" d="M 50.136719 19.285156 C 50.117188 19.328125 50.097656 19.367188 50.078125 19.40625 C 50.097656 19.367188 50.117188 19.328125 50.136719 19.285156 "/>
<path style=" stroke:none;fill-rule:nonzero;fill:rgb(38.497925%,37.379456%,37.657166%);fill-opacity:1;" d="M 49.960938 19.667969 C 49.941406 19.703125 49.925781 19.742188 49.90625 19.777344 C 49.925781 19.742188 49.941406 19.703125 49.960938 19.667969 "/>
<path style=" stroke:none;fill-rule:nonzero;fill:rgb(38.497925%,37.379456%,37.657166%);fill-opacity:1;" d="M 49.90625 19.777344 C 49.890625 19.816406 49.875 19.855469 49.855469 19.894531 C 49.875 19.855469 49.890625 19.816406 49.90625 19.777344 "/>
<path style=" stroke:none;fill-rule:nonzero;fill:rgb(38.497925%,37.379456%,37.657166%);fill-opacity:1;" d="M 49.859375 19.890625 C 49.839844 19.929688 49.820312 19.96875 49.800781 20.007812 C 49.820312 19.96875 49.839844 19.929688 49.859375 19.890625 "/>
<path style=" stroke:none;fill-rule:nonzero;fill:rgb(38.497925%,37.379456%,37.657166%);fill-opacity:1;" d="M 39.589844 42.171875 C 39.570312 42.207031 39.550781 42.242188 39.53125 42.28125 C 39.550781 42.242188 39.570312 42.207031 39.589844 42.171875 "/>
<path style=" stroke:none;fill-rule:nonzero;fill:rgb(38.497925%,37.379456%,37.657166%);fill-opacity:1;" d="M 39.53125 42.28125 C 39.515625 42.320312 39.5 42.355469 39.480469 42.394531 C 39.5 42.355469 39.515625 42.320312 39.53125 42.28125 "/>
<path style=" stroke:none;fill-rule:nonzero;fill:rgb(38.497925%,37.379456%,37.657166%);fill-opacity:1;" d="M 39.484375 42.394531 C 39.464844 42.433594 39.449219 42.476562 39.429688 42.515625 C 39.449219 42.476562 39.464844 42.433594 39.484375 42.394531 "/>
<path style=" stroke:none;fill-rule:nonzero;fill:rgb(38.497925%,37.379456%,37.657166%);fill-opacity:1;" d="M 39.308594 42.777344 C 39.292969 42.8125 39.273438 42.847656 39.257812 42.882812 C 39.273438 42.847656 39.292969 42.8125 39.308594 42.777344 "/>
<path style=" stroke:none;fill-rule:nonzero;fill:rgb(38.497925%,37.379456%,37.657166%);fill-opacity:1;" d="M 39.257812 42.886719 C 39.238281 42.921875 39.222656 42.960938 39.207031 42.996094 C 39.222656 42.960938 39.238281 42.921875 39.257812 42.886719 "/>
<path style=" stroke:none;fill-rule:nonzero;fill:rgb(38.497925%,37.379456%,37.657166%);fill-opacity:1;" d="M 39.207031 42.996094 C 39.191406 43.035156 39.171875 43.074219 39.152344 43.113281 C 39.171875 43.074219 39.191406 43.035156 39.207031 42.996094 "/>
<path style=" stroke:none;fill-rule:nonzero;fill:rgb(38.497925%,37.379456%,37.657166%);fill-opacity:1;" d="M 39.097656 43.21875 C 39.082031 43.257812 39.066406 43.300781 39.046875 43.339844 C 39.066406 43.300781 39.082031 43.257812 39.097656 43.21875 "/>
<path style=" stroke:none;fill-rule:nonzero;fill:rgb(38.497925%,37.379456%,37.657166%);fill-opacity:1;" d="M 38.925781 43.597656 C 38.910156 43.636719 38.894531 43.671875 38.875 43.710938 C 38.894531 43.671875 38.910156 43.636719 38.925781 43.597656 "/>
<path style=" stroke:none;fill-rule:nonzero;fill:rgb(38.497925%,37.379456%,37.657166%);fill-opacity:1;" d="M 38.875 43.710938 C 38.859375 43.746094 38.84375 43.785156 38.824219 43.824219 C 38.84375 43.785156 38.859375 43.746094 38.875 43.710938 "/>
<path style=" stroke:none;fill-rule:nonzero;fill:rgb(38.497925%,37.379456%,37.657166%);fill-opacity:1;" d="M 38.828125 43.824219 C 38.808594 43.859375 38.789062 43.898438 38.769531 43.933594 C 38.789062 43.898438 38.808594 43.859375 38.828125 43.824219 "/>
<path style=" stroke:none;fill-rule:nonzero;fill:rgb(38.497925%,37.379456%,37.657166%);fill-opacity:1;" d="M 55.886719 6.824219 C 55.871094 6.847656 55.855469 6.871094 55.84375 6.894531 C 55.855469 6.871094 55.871094 6.847656 55.886719 6.824219 "/>
<path style=" stroke:none;fill-rule:nonzero;fill:rgb(38.497925%,37.379456%,37.657166%);fill-opacity:1;" d="M 55.664062 7.316406 C 55.648438 7.339844 55.636719 7.359375 55.617188 7.382812 C 55.636719 7.359375 55.648438 7.339844 55.664062 7.316406 "/>
<path style=" stroke:none;fill-rule:nonzero;fill:rgb(38.497925%,37.379456%,37.657166%);fill-opacity:1;" d="M 55.609375 7.425781 C 55.59375 7.453125 55.582031 7.472656 55.566406 7.496094 C 55.582031 7.472656 55.59375 7.453125 55.609375 7.425781 "/>
<path style=" stroke:none;fill-rule:nonzero;fill:rgb(38.497925%,37.379456%,37.657166%);fill-opacity:1;" d="M 55.382812 7.921875 C 55.371094 7.941406 55.355469 7.960938 55.34375 7.980469 C 55.355469 7.960938 55.371094 7.941406 55.382812 7.921875 "/>
<path style=" stroke:none;fill-rule:nonzero;fill:rgb(38.497925%,37.379456%,37.657166%);fill-opacity:1;" d="M 55.28125 8.140625 C 55.265625 8.164062 55.253906 8.1875 55.238281 8.210938 C 55.253906 8.1875 55.265625 8.164062 55.28125 8.140625 "/>
<path style=" stroke:none;fill-rule:nonzero;fill:rgb(38.497925%,37.379456%,37.657166%);fill-opacity:1;" d="M 55.226562 8.25 C 55.214844 8.273438 55.199219 8.296875 55.183594 8.320312 C 55.199219 8.296875 55.214844 8.273438 55.226562 8.25 "/>
<path style=" stroke:none;fill-rule:nonzero;fill:rgb(38.497925%,37.379456%,37.657166%);fill-opacity:1;" d="M 55.058594 8.636719 C 55.042969 8.65625 55.03125 8.675781 55.015625 8.699219 C 55.03125 8.675781 55.042969 8.65625 55.058594 8.636719 "/>
<path style=" stroke:none;fill-rule:nonzero;fill:rgb(38.497925%,37.379456%,37.657166%);fill-opacity:1;" d="M 55.003906 8.746094 C 54.988281 8.765625 54.976562 8.785156 54.960938 8.804688 C 54.976562 8.785156 54.988281 8.765625 55.003906 8.746094 "/>
<path style=" stroke:none;fill-rule:nonzero;fill:rgb(38.497925%,37.379456%,37.657166%);fill-opacity:1;" d="M 54.902344 8.964844 C 54.886719 8.988281 54.867188 9.011719 54.851562 9.035156 C 54.867188 9.011719 54.886719 8.988281 54.902344 8.964844 "/>
<path style=" stroke:none;fill-rule:nonzero;fill:rgb(38.497925%,37.379456%,37.657166%);fill-opacity:1;" d="M 54.847656 9.074219 C 54.832031 9.097656 54.816406 9.121094 54.800781 9.148438 C 54.816406 9.121094 54.832031 9.097656 54.847656 9.074219 "/>
<path style=" stroke:none;fill-rule:nonzero;fill:rgb(38.497925%,37.379456%,37.657166%);fill-opacity:1;" d="M 54.675781 9.457031 C 54.660156 9.480469 54.648438 9.503906 54.632812 9.523438 C 54.648438 9.503906 54.660156 9.480469 54.675781 9.457031 "/>
<path style=" stroke:none;fill-rule:nonzero;fill:rgb(38.497925%,37.379456%,37.657166%);fill-opacity:1;" d="M 54.621094 9.570312 C 54.605469 9.59375 54.59375 9.613281 54.578125 9.640625 C 54.59375 9.613281 54.605469 9.59375 54.621094 9.570312 "/>
<path style=" stroke:none;fill-rule:nonzero;fill:rgb(38.497925%,37.379456%,37.657166%);fill-opacity:1;" d="M 54.398438 10.0625 C 54.382812 10.082031 54.371094 10.101562 54.355469 10.121094 C 54.371094 10.101562 54.382812 10.082031 54.398438 10.0625 "/>
<path style=" stroke:none;fill-rule:nonzero;fill:rgb(38.497925%,37.379456%,37.657166%);fill-opacity:1;" d="M 54.292969 10.28125 C 54.277344 10.304688 54.265625 10.328125 54.25 10.351562 C 54.265625 10.328125 54.277344 10.304688 54.292969 10.28125 "/>
<path style=" stroke:none;fill-rule:nonzero;fill:rgb(38.497925%,37.379456%,37.657166%);fill-opacity:1;" d="M 54.242188 10.390625 C 54.226562 10.414062 54.210938 10.4375 54.195312 10.460938 C 54.210938 10.4375 54.226562 10.414062 54.242188 10.390625 "/>
<path style=" stroke:none;fill-rule:nonzero;fill:rgb(38.497925%,37.379456%,37.657166%);fill-opacity:1;" d="M 54.019531 10.886719 C 54.003906 10.90625 53.988281 10.929688 53.972656 10.953125 C 53.988281 10.929688 54.003906 10.90625 54.019531 10.886719 "/>
<path style=" stroke:none;fill-rule:nonzero;fill:rgb(38.497925%,37.379456%,37.657166%);fill-opacity:1;" d="M 53.636719 11.710938 C 53.621094 11.730469 53.605469 11.757812 53.589844 11.78125 C 53.605469 11.757812 53.621094 11.730469 53.636719 11.710938 "/>
<path style=" stroke:none;fill-rule:nonzero;fill:rgb(38.497925%,37.379456%,37.657166%);fill-opacity:1;" d="M 53.410156 12.203125 C 53.398438 12.222656 53.382812 12.242188 53.367188 12.261719 C 53.382812 12.242188 53.398438 12.222656 53.410156 12.203125 "/>
<path style=" stroke:none;fill-rule:nonzero;fill:rgb(38.497925%,37.379456%,37.657166%);fill-opacity:1;" d="M 53.304688 12.421875 C 53.292969 12.445312 53.277344 12.46875 53.261719 12.492188 C 53.277344 12.46875 53.292969 12.445312 53.304688 12.421875 "/>
<path style=" stroke:none;fill-rule:nonzero;fill:rgb(38.497925%,37.379456%,37.657166%);fill-opacity:1;" d="M 53.253906 12.53125 C 53.238281 12.554688 53.222656 12.582031 53.207031 12.605469 C 53.222656 12.582031 53.238281 12.554688 53.253906 12.53125 "/>
<path style=" stroke:none;fill-rule:nonzero;fill:rgb(38.497925%,37.379456%,37.657166%);fill-opacity:1;" d="M 53.03125 13.027344 C 53.015625 13.046875 53 13.070312 52.984375 13.09375 C 53 13.070312 53.015625 13.046875 53.03125 13.027344 "/>
<path style=" stroke:none;fill-rule:nonzero;fill:rgb(38.497925%,37.379456%,37.657166%);fill-opacity:1;" d="M 52.804688 13.519531 C 52.789062 13.539062 52.777344 13.558594 52.765625 13.578125 C 52.777344 13.558594 52.789062 13.539062 52.804688 13.519531 "/>
<path style=" stroke:none;fill-rule:nonzero;fill:rgb(38.497925%,37.379456%,37.657166%);fill-opacity:1;" d="M 52.652344 13.847656 C 52.636719 13.871094 52.617188 13.898438 52.601562 13.921875 C 52.617188 13.898438 52.636719 13.871094 52.652344 13.847656 "/>
<path style=" stroke:none;fill-rule:nonzero;fill:rgb(38.497925%,37.379456%,37.657166%);fill-opacity:1;" d="M 52.421875 14.34375 C 52.410156 14.363281 52.394531 14.386719 52.382812 14.410156 C 52.394531 14.386719 52.410156 14.363281 52.421875 14.34375 "/>
<path style=" stroke:none;fill-rule:nonzero;fill:rgb(38.497925%,37.379456%,37.657166%);fill-opacity:1;" d="M 52.367188 14.453125 C 52.355469 14.476562 52.34375 14.5 52.328125 14.523438 C 52.34375 14.5 52.355469 14.476562 52.367188 14.453125 "/>
<path style=" stroke:none;fill-rule:nonzero;fill:rgb(38.497925%,37.379456%,37.657166%);fill-opacity:1;" d="M 52.269531 14.671875 C 52.253906 14.695312 52.234375 14.71875 52.21875 14.746094 C 52.234375 14.71875 52.253906 14.695312 52.269531 14.671875 "/>
<path style=" stroke:none;fill-rule:nonzero;fill:rgb(38.497925%,37.379456%,37.657166%);fill-opacity:1;" d="M 52.039062 15.167969 C 52.027344 15.191406 52.011719 15.214844 52 15.234375 C 52.011719 15.214844 52.027344 15.191406 52.039062 15.167969 "/>
<path style=" stroke:none;fill-rule:nonzero;fill:rgb(38.497925%,37.379456%,37.657166%);fill-opacity:1;" d="M 51.820312 15.660156 C 51.804688 15.683594 51.792969 15.703125 51.777344 15.726562 C 51.792969 15.703125 51.804688 15.683594 51.820312 15.660156 "/>
<path style=" stroke:none;fill-rule:nonzero;fill:rgb(38.497925%,37.379456%,37.657166%);fill-opacity:1;" d="M 51.765625 15.769531 C 51.75 15.789062 51.738281 15.8125 51.722656 15.832031 C 51.738281 15.8125 51.75 15.789062 51.765625 15.769531 "/>
<path style=" stroke:none;fill-rule:nonzero;fill:rgb(38.497925%,37.379456%,37.657166%);fill-opacity:1;" d="M 51.660156 15.988281 C 51.648438 16.015625 51.632812 16.039062 51.613281 16.0625 C 51.632812 16.039062 51.648438 16.015625 51.660156 15.988281 "/>
<path style=" stroke:none;fill-rule:nonzero;fill:rgb(38.497925%,37.379456%,37.657166%);fill-opacity:1;" d="M 38.046875 45.519531 C 38.03125 45.542969 38.019531 45.566406 38.003906 45.589844 C 38.019531 45.566406 38.03125 45.542969 38.046875 45.519531 "/>
<path style=" stroke:none;fill-rule:nonzero;fill:rgb(38.497925%,37.379456%,37.657166%);fill-opacity:1;" d="M 37.996094 45.628906 C 37.980469 45.65625 37.964844 45.679688 37.949219 45.703125 C 37.964844 45.679688 37.980469 45.65625 37.996094 45.628906 "/>
<path style=" stroke:none;fill-rule:nonzero;fill:rgb(38.497925%,37.379456%,37.657166%);fill-opacity:1;" d="M 50.171875 19.226562 C 50.160156 19.25 50.144531 19.269531 50.132812 19.289062 C 50.144531 19.269531 50.160156 19.25 50.171875 19.226562 "/>
<path style=" stroke:none;fill-rule:nonzero;fill:rgb(38.497925%,37.379456%,37.657166%);fill-opacity:1;" d="M 50.828125 17.800781 C 50.816406 17.824219 50.800781 17.84375 50.789062 17.863281 C 50.800781 17.84375 50.816406 17.824219 50.828125 17.800781 "/>
<path style=" stroke:none;fill-rule:nonzero;fill:rgb(38.497925%,37.379456%,37.657166%);fill-opacity:1;" d="M 50.066406 19.449219 C 50.050781 19.472656 50.035156 19.496094 50.023438 19.519531 C 50.035156 19.496094 50.050781 19.472656 50.066406 19.449219 "/>
<path style=" stroke:none;fill-rule:nonzero;fill:rgb(38.497925%,37.379456%,37.657166%);fill-opacity:1;" d="M 37.769531 46.125 C 37.757812 46.148438 37.742188 46.171875 37.726562 46.195312 C 37.742188 46.171875 37.757812 46.148438 37.769531 46.125 "/>
<path style=" stroke:none;fill-rule:nonzero;fill:rgb(38.497925%,37.379456%,37.657166%);fill-opacity:1;" d="M 39.140625 43.160156 C 39.125 43.179688 39.109375 43.199219 39.097656 43.21875 C 39.109375 43.199219 39.125 43.179688 39.140625 43.160156 "/>
<path style=" stroke:none;fill-rule:nonzero;fill:rgb(38.497925%,37.379456%,37.657166%);fill-opacity:1;" d="M 50.015625 19.558594 C 50 19.582031 49.984375 19.605469 49.96875 19.628906 C 49.984375 19.605469 50 19.582031 50.015625 19.558594 "/>
<path style=" stroke:none;fill-rule:nonzero;fill:rgb(38.497925%,37.379456%,37.657166%);fill-opacity:1;" d="M 39.03125 43.378906 C 39.019531 43.402344 39.003906 43.425781 38.988281 43.449219 C 39.003906 43.425781 39.019531 43.402344 39.03125 43.378906 "/>
<path style=" stroke:none;fill-rule:nonzero;fill:rgb(38.497925%,37.379456%,37.657166%);fill-opacity:1;" d="M 37.546875 46.617188 C 37.53125 46.636719 37.519531 46.65625 37.503906 46.675781 C 37.519531 46.65625 37.53125 46.636719 37.546875 46.617188 "/>
<path style=" stroke:none;fill-rule:nonzero;fill:rgb(38.497925%,37.379456%,37.657166%);fill-opacity:1;" d="M 38.980469 43.488281 C 38.96875 43.515625 38.953125 43.539062 38.9375 43.5625 C 38.953125 43.539062 38.96875 43.515625 38.980469 43.488281 "/>
<path style=" stroke:none;fill-rule:nonzero;fill:rgb(38.497925%,37.379456%,37.657166%);fill-opacity:1;" d="M 50.777344 17.910156 C 50.765625 17.929688 50.75 17.953125 50.734375 17.972656 C 50.75 17.953125 50.765625 17.929688 50.777344 17.910156 "/>
<path style=" stroke:none;fill-rule:nonzero;fill:rgb(38.497925%,37.379456%,37.657166%);fill-opacity:1;" d="M 51.28125 16.8125 C 51.265625 16.835938 51.246094 16.859375 51.230469 16.886719 C 51.246094 16.859375 51.265625 16.835938 51.28125 16.8125 "/>
<path style=" stroke:none;fill-rule:nonzero;fill:rgb(38.497925%,37.379456%,37.657166%);fill-opacity:1;" d="M 50.449219 18.625 C 50.433594 18.648438 50.417969 18.667969 50.40625 18.691406 C 50.417969 18.667969 50.433594 18.648438 50.449219 18.625 "/>
<path style=" stroke:none;fill-rule:nonzero;fill:rgb(38.497925%,37.379456%,37.657166%);fill-opacity:1;" d="M 50.394531 18.734375 C 50.382812 18.757812 50.367188 18.78125 50.351562 18.804688 C 50.367188 18.78125 50.382812 18.757812 50.394531 18.734375 "/>
<path style=" stroke:none;fill-rule:nonzero;fill:rgb(38.497925%,37.379456%,37.657166%);fill-opacity:1;" d="M 38.757812 43.984375 C 38.742188 44.007812 38.730469 44.027344 38.714844 44.050781 C 38.730469 44.027344 38.742188 44.007812 38.757812 43.984375 "/>
<path style=" stroke:none;fill-rule:nonzero;fill:rgb(38.497925%,37.379456%,37.657166%);fill-opacity:1;" d="M 37.164062 47.441406 C 37.152344 47.460938 37.136719 47.484375 37.121094 47.507812 C 37.136719 47.484375 37.152344 47.460938 37.164062 47.441406 "/>
<path style=" stroke:none;fill-rule:nonzero;fill:rgb(38.497925%,37.379456%,37.657166%);fill-opacity:1;" d="M 37.109375 47.550781 C 37.097656 47.574219 37.082031 47.597656 37.070312 47.621094 C 37.082031 47.597656 37.097656 47.574219 37.109375 47.550781 "/>
<path style=" stroke:none;fill-rule:nonzero;fill:rgb(38.497925%,37.379456%,37.657166%);fill-opacity:1;" d="M 49.789062 20.050781 C 49.777344 20.074219 49.761719 20.09375 49.746094 20.113281 C 49.761719 20.09375 49.777344 20.074219 49.789062 20.050781 "/>
<path style=" stroke:none;fill-rule:nonzero;fill:rgb(38.497925%,37.379456%,37.657166%);fill-opacity:1;" d="M 37.011719 47.769531 C 36.992188 47.792969 36.976562 47.820312 36.960938 47.84375 C 36.976562 47.820312 36.992188 47.792969 37.011719 47.769531 "/>
<path style=" stroke:none;fill-rule:nonzero;fill:rgb(38.497925%,37.379456%,37.657166%);fill-opacity:1;" d="M 51.4375 16.484375 C 51.421875 16.507812 51.40625 16.527344 51.394531 16.550781 C 51.40625 16.527344 51.421875 16.507812 51.4375 16.484375 "/>
<path style=" stroke:none;fill-rule:nonzero;fill:rgb(38.497925%,37.379456%,37.657166%);fill-opacity:1;" d="M 39.640625 42.0625 C 39.625 42.085938 39.609375 42.109375 39.59375 42.132812 C 39.609375 42.109375 39.625 42.085938 39.640625 42.0625 "/>
<path style=" stroke:none;fill-rule:nonzero;fill:rgb(38.497925%,37.379456%,37.657166%);fill-opacity:1;" d="M 38.53125 44.476562 C 38.519531 44.496094 38.507812 44.515625 38.492188 44.535156 C 38.507812 44.515625 38.519531 44.496094 38.53125 44.476562 "/>
<path style=" stroke:none;fill-rule:nonzero;fill:rgb(38.497925%,37.379456%,37.657166%);fill-opacity:1;" d="M 36.785156 48.265625 C 36.769531 48.289062 36.753906 48.3125 36.738281 48.335938 C 36.753906 48.3125 36.769531 48.289062 36.785156 48.265625 "/>
<path style=" stroke:none;fill-rule:nonzero;fill:rgb(38.497925%,37.379456%,37.657166%);fill-opacity:1;" d="M 51.382812 16.59375 C 51.367188 16.617188 51.355469 16.640625 51.339844 16.664062 C 51.355469 16.640625 51.367188 16.617188 51.382812 16.59375 "/>
<path style=" stroke:none;fill-rule:nonzero;fill:rgb(38.497925%,37.379456%,37.657166%);fill-opacity:1;" d="M 50.675781 18.132812 C 50.660156 18.15625 50.644531 18.179688 50.628906 18.203125 C 50.644531 18.179688 50.660156 18.15625 50.675781 18.132812 "/>
<path style=" stroke:none;fill-rule:nonzero;fill:rgb(38.497925%,37.379456%,37.657166%);fill-opacity:1;" d="M 38.378906 44.804688 C 38.359375 44.832031 38.347656 44.851562 38.332031 44.878906 C 38.347656 44.851562 38.359375 44.832031 38.378906 44.804688 "/>
<path style=" stroke:none;fill-rule:nonzero;fill:rgb(38.497925%,37.379456%,37.657166%);fill-opacity:1;" d="M 36.558594 48.757812 C 36.546875 48.78125 36.53125 48.800781 36.519531 48.824219 C 36.53125 48.800781 36.546875 48.78125 36.558594 48.757812 "/>
<path style=" stroke:none;fill-rule:nonzero;fill:rgb(38.497925%,37.379456%,37.657166%);fill-opacity:1;" d="M 36.507812 48.867188 C 36.492188 48.886719 36.476562 48.910156 36.464844 48.929688 C 36.476562 48.910156 36.492188 48.886719 36.507812 48.867188 "/>
<path style=" stroke:none;fill-rule:nonzero;fill:rgb(38.497925%,37.379456%,37.657166%);fill-opacity:1;" d="M 51.054688 17.308594 C 51.039062 17.332031 51.027344 17.355469 51.011719 17.378906 C 51.027344 17.355469 51.039062 17.332031 51.054688 17.308594 "/>
<path style=" stroke:none;fill-rule:nonzero;fill:rgb(38.497925%,37.379456%,37.657166%);fill-opacity:1;" d="M 36.402344 49.085938 C 36.386719 49.113281 36.371094 49.136719 36.355469 49.160156 C 36.371094 49.136719 36.386719 49.113281 36.402344 49.085938 "/>
<path style=" stroke:none;fill-rule:nonzero;fill:rgb(38.497925%,37.379456%,37.657166%);fill-opacity:1;" d="M 39.417969 42.554688 C 39.402344 42.578125 39.386719 42.597656 39.371094 42.621094 C 39.386719 42.597656 39.402344 42.578125 39.417969 42.554688 "/>
<path style=" stroke:none;fill-rule:nonzero;fill:rgb(38.497925%,37.379456%,37.657166%);fill-opacity:1;" d="M 39.363281 42.664062 C 39.347656 42.691406 39.335938 42.714844 39.320312 42.738281 C 39.335938 42.714844 39.347656 42.691406 39.363281 42.664062 "/>
<path style=" stroke:none;fill-rule:nonzero;fill:rgb(38.497925%,37.379456%,37.657166%);fill-opacity:1;" d="M 38.15625 45.300781 C 38.140625 45.320312 38.125 45.339844 38.109375 45.359375 C 38.125 45.339844 38.140625 45.320312 38.15625 45.300781 "/>
<path style=" stroke:none;fill-rule:nonzero;fill:rgb(38.497925%,37.379456%,37.657166%);fill-opacity:1;" d="M 37.390625 46.949219 C 37.375 46.96875 37.359375 46.992188 37.34375 47.019531 C 37.359375 46.992188 37.375 46.96875 37.390625 46.949219 "/>
<path style=" stroke:none;fill-rule:nonzero;fill:rgb(96.04187%,64.317322%,5.464172%);fill-opacity:1;" d="M 15.421875 49.386719 C 15.523438 49.304688 15.585938 49.25 15.652344 49.207031 C 15.785156 49.113281 15.925781 49.023438 16.058594 48.929688 C 16.402344 48.691406 16.75 48.453125 17.089844 48.210938 C 17.449219 47.957031 17.804688 47.707031 18.152344 47.441406 C 18.320312 47.316406 18.46875 47.164062 18.632812 47.03125 C 19.03125 46.695312 19.398438 46.332031 19.707031 45.90625 C 19.816406 45.753906 19.90625 45.601562 19.925781 45.433594 C 19.898438 45.230469 19.75 45.167969 19.652344 45.113281 C 19.152344 44.992188 18.6875 45.035156 18.222656 45.03125 C 18.109375 45.027344 18 45.035156 17.890625 45.027344 C 17.738281 45.007812 17.582031 44.992188 17.4375 44.949219 C 16.976562 44.820312 16.570312 44.585938 16.175781 44.316406 C 15.890625 44.121094 15.59375 43.941406 15.300781 43.761719 C 15.019531 43.59375 14.71875 43.605469 14.433594 43.726562 C 14.027344 43.902344 13.667969 44.152344 13.347656 44.457031 C 13.238281 44.5625 13.140625 44.675781 12.96875 44.722656 C 12.96875 44.519531 12.953125 44.328125 12.972656 44.136719 C 13.007812 43.855469 13.054688 43.574219 13.28125 43.367188 C 13.5 43.167969 13.585938 42.925781 13.570312 42.632812 C 13.558594 42.425781 13.628906 42.234375 13.757812 42.074219 C 14.101562 41.628906 14.570312 41.378906 15.101562 41.242188 C 15.582031 41.117188 16.074219 41.101562 16.5625 41.078125 C 16.949219 41.054688 17.332031 41.082031 17.714844 41.074219 C 18.328125 41.058594 18.933594 41.171875 19.546875 41.085938 C 20.164062 40.992188 20.761719 40.890625 21.332031 40.613281 C 21.945312 40.3125 22.488281 39.917969 22.992188 39.46875 C 23.425781 39.074219 23.84375 38.664062 24.265625 38.261719 C 24.304688 38.222656 24.351562 38.195312 24.394531 38.15625 C 24.726562 37.847656 25.078125 37.550781 25.394531 37.222656 C 25.863281 36.726562 26.3125 36.207031 26.773438 35.699219 C 27.242188 35.1875 27.71875 34.683594 28.1875 34.171875 C 28.578125 33.75 28.960938 33.324219 29.351562 32.898438 C 29.835938 32.375 30.328125 31.859375 30.804688 31.332031 C 31.078125 31.027344 31.339844 30.710938 31.59375 30.386719 C 31.886719 30.015625 32.175781 29.636719 32.445312 29.246094 C 32.941406 28.527344 33.433594 27.800781 33.902344 27.066406 C 34.308594 26.429688 34.683594 25.773438 35.070312 25.121094 C 35.167969 24.957031 35.257812 24.789062 35.347656 24.621094 C 35.523438 24.292969 35.699219 23.960938 35.871094 23.632812 C 36.03125 23.324219 36.195312 23.019531 36.351562 22.710938 C 36.585938 22.257812 36.8125 21.800781 37.046875 21.347656 C 37.285156 20.886719 37.527344 20.425781 37.769531 19.96875 C 37.867188 19.78125 37.964844 19.597656 38.0625 19.414062 C 38.285156 18.984375 38.511719 18.558594 38.730469 18.128906 C 38.96875 17.675781 39.199219 17.222656 39.433594 16.773438 C 39.597656 16.457031 39.761719 16.140625 39.921875 15.824219 C 40.101562 15.476562 40.273438 15.125 40.453125 14.777344 C 40.683594 14.335938 40.925781 13.894531 41.15625 13.453125 C 41.40625 12.976562 41.644531 12.492188 41.890625 12.019531 C 42.023438 11.757812 42.171875 11.507812 42.304688 11.25 C 42.480469 10.910156 42.640625 10.5625 42.816406 10.222656 C 43.164062 9.554688 48.328125 0 48.328125 0 L 45.914062 0 C 45.914062 0 35.46875 11.78125 35.175781 12.089844 C 34.554688 12.75 33.933594 13.40625 33.3125 14.0625 C 33.007812 14.390625 32.699219 14.714844 32.390625 15.039062 C 31.765625 15.703125 31.136719 16.367188 30.511719 17.03125 C 30.242188 17.316406 29.972656 17.605469 29.707031 17.890625 C 29.039062 18.59375 28.375 19.296875 27.710938 20 C 27.132812 20.609375 26.558594 21.222656 25.980469 21.835938 C 25.328125 22.523438 24.675781 23.214844 24.023438 23.90625 C 23.773438 24.171875 23.527344 24.4375 23.273438 24.703125 C 22.597656 25.421875 21.917969 26.136719 21.242188 26.851562 C 20.671875 27.457031 20.101562 28.0625 19.53125 28.667969 C 18.898438 29.339844 18.265625 30.007812 17.632812 30.679688 C 17.035156 31.308594 16.441406 31.941406 15.847656 32.574219 C 15.230469 33.222656 14.617188 33.875 14.003906 34.527344 C 13.703125 34.84375 13.402344 35.164062 13.101562 35.480469 C 12.457031 36.164062 11.808594 36.847656 11.164062 37.53125 C 10.582031 38.152344 10 38.769531 9.417969 39.386719 C 8.789062 40.050781 8.164062 40.714844 7.535156 41.378906 C 6.902344 42.050781 6.265625 42.71875 5.632812 43.390625 C 5.058594 44 4.484375 44.613281 3.90625 45.226562 C 3.613281 45.539062 3.320312 45.851562 3.023438 46.164062 C 2.660156 46.546875 2.292969 46.929688 1.929688 47.3125 C 1.628906 47.632812 1.328125 47.953125 1.027344 48.273438 C 0.742188 48.578125 0.453125 48.882812 0.164062 49.191406 C 0.113281 49.246094 0.0742188 49.316406 0 49.421875 C 0.160156 49.421875 0.265625 49.421875 0.375 49.421875 C 5.175781 49.421875 9.976562 49.414062 14.78125 49.429688 L 15.421875 49.386719 "/>
<g clip-path="url(#clip2)" clip-rule="nonzero">
<path style=" stroke:none;fill-rule:nonzero;fill:rgb(13.282776%,25.772095%,47.225952%);fill-opacity:1;" d="M 7.957031 56 L 17.570312 49.359375 L 28.652344 46.980469 L 35.433594 42.394531 L 56.011719 3.261719 L 56.011719 56 L 7.957031 56 "/>
</g>
<path style=" stroke:none;fill-rule:nonzero;fill:rgb(96.04187%,64.317322%,5.464172%);fill-opacity:1;" d="M 4.652344 56 L 15.421875 49.386719 L 15.652344 47.113281 L 9.304688 45.589844 L 0 49.421875 L 0 56 L 4.652344 56 "/>
</g>
</svg>
