<?xml version="1.0" encoding="UTF-8"?>
<svg xmlns="http://www.w3.org/2000/svg" xmlns:xlink="http://www.w3.org/1999/xlink" width="56pt" height="56pt" viewBox="0 0 56 56" version="1.1">
<g id="surface1">
<rect x="0" y="0" width="56" height="56" style="fill:rgb(95.66803%,95.779419%,96.777344%);fill-opacity:1;stroke:none;"/>
<path style=" stroke:none;fill-rule:nonzero;fill:rgb(74.098206%,17.89856%,13.566589%);fill-opacity:1;" d="M 2.957031 30.9375 C 2.972656 30.867188 3 30.800781 3.003906 30.726562 C 3.175781 28.289062 3.816406 25.972656 4.835938 23.75 C 5.667969 21.933594 6.726562 20.261719 8.011719 18.734375 C 9.222656 17.296875 10.59375 16.035156 12.230469 15.09375 C 13.300781 14.480469 14.429688 14.003906 15.597656 13.605469 C 16.632812 13.25 17.6875 12.976562 18.761719 12.773438 C 19.839844 12.570312 20.933594 12.433594 22.03125 12.394531 C 22.359375 12.382812 22.683594 12.363281 23.011719 12.363281 C 24.472656 12.355469 25.921875 12.492188 27.359375 12.765625 C 28.847656 13.046875 30.300781 13.480469 31.707031 14.054688 C 33.316406 14.710938 34.84375 15.53125 36.285156 16.5 C 37.355469 17.21875 38.378906 18 39.332031 18.867188 C 39.960938 19.4375 40.5625 20.03125 41.171875 20.617188 C 41.238281 20.679688 41.289062 20.753906 41.351562 20.820312 C 41.339844 20.941406 41.234375 20.96875 41.152344 21.011719 C 40.648438 21.28125 40.148438 21.546875 39.648438 21.8125 C 39.445312 21.921875 39.246094 22.03125 39.046875 22.136719 C 38.746094 21.816406 38.445312 21.496094 38.140625 21.179688 C 37.257812 20.273438 36.316406 19.433594 35.296875 18.679688 C 33.847656 17.605469 32.292969 16.710938 30.609375 16.042969 C 29.296875 15.519531 27.945312 15.136719 26.554688 14.902344 C 25.3125 14.691406 24.0625 14.617188 22.804688 14.636719 C 21.703125 14.652344 20.613281 14.769531 19.527344 14.960938 C 17.964844 15.234375 16.453125 15.679688 15 16.3125 C 14.050781 16.726562 13.15625 17.238281 12.304688 17.832031 C 11.140625 18.648438 10.074219 19.578125 9.101562 20.613281 C 8.488281 21.269531 7.917969 21.957031 7.386719 22.683594 C 6.667969 23.671875 6.035156 24.714844 5.503906 25.820312 C 5.003906 26.855469 4.605469 27.929688 4.320312 29.042969 C 4.0625 30.039062 3.890625 31.046875 3.820312 32.078125 C 3.757812 32.964844 3.765625 33.851562 3.84375 34.734375 C 3.949219 35.898438 4.1875 37.035156 4.53125 38.152344 C 4.828125 39.121094 5.214844 40.050781 5.648438 40.964844 C 5.632812 40.996094 5.613281 41.03125 5.597656 41.066406 C 4.792969 39.777344 4.148438 38.414062 3.703125 36.960938 C 3.335938 35.765625 3.101562 34.546875 3.011719 33.300781 C 3.003906 33.199219 2.976562 33.09375 2.957031 32.992188 C 2.957031 32.308594 2.957031 31.625 2.957031 30.9375 "/>
<path style=" stroke:none;fill-rule:nonzero;fill:rgb(19.012451%,20.74585%,56.535339%);fill-opacity:1;" d="M 52.878906 18.566406 C 52.75 18.9375 52.515625 19.238281 52.21875 19.488281 C 52.007812 19.667969 51.75 19.710938 51.480469 19.664062 C 51.183594 19.617188 50.886719 19.566406 50.589844 19.519531 C 50.492188 19.503906 50.398438 19.5 50.269531 19.484375 C 50.292969 19.574219 50.308594 19.632812 50.320312 19.691406 C 50.351562 19.824219 50.398438 19.957031 50.40625 20.09375 C 50.421875 20.3125 50.332031 20.421875 50.117188 20.472656 C 50.023438 20.496094 49.929688 20.507812 49.820312 20.527344 C 49.828125 20.609375 49.832031 20.671875 49.839844 20.734375 C 49.851562 20.878906 49.871094 21.027344 49.871094 21.171875 C 49.871094 21.574219 49.691406 21.828125 49.3125 21.96875 C 49.230469 22 49.148438 22.03125 49.066406 22.058594 C 48.992188 22.304688 48.980469 22.566406 48.757812 22.71875 C 48.527344 22.875 48.285156 22.777344 48.027344 22.714844 C 47.980469 22.785156 47.933594 22.855469 47.882812 22.925781 C 47.800781 23.039062 47.726562 23.160156 47.636719 23.257812 C 47.382812 23.523438 47.113281 23.558594 46.796875 23.378906 C 46.734375 23.34375 46.671875 23.308594 46.597656 23.265625 C 46.570312 23.324219 46.546875 23.363281 46.53125 23.40625 C 46.511719 23.460938 46.496094 23.515625 46.480469 23.570312 C 46.304688 24.09375 46.101562 24.226562 45.53125 24.167969 C 45.496094 24.230469 45.460938 24.300781 45.421875 24.371094 C 45.367188 24.472656 45.320312 24.578125 45.253906 24.667969 C 45.078125 24.898438 44.882812 24.929688 44.636719 24.769531 C 44.535156 24.703125 44.445312 24.621094 44.324219 24.519531 C 44.289062 24.621094 44.257812 24.699219 44.234375 24.78125 C 44.074219 25.371094 43.664062 25.660156 43.054688 25.601562 C 42.875 25.582031 42.699219 25.539062 42.523438 25.511719 C 42.410156 25.503906 42.289062 25.515625 42.234375 25.378906 C 42.046875 25.28125 41.914062 25.140625 41.847656 24.933594 C 41.824219 24.855469 41.808594 24.765625 41.730469 24.71875 C 41.617188 24.761719 41.652344 24.84375 41.644531 24.910156 C 41.640625 25.019531 41.671875 25.140625 41.554688 25.214844 C 41.460938 25.363281 41.371094 25.515625 41.273438 25.660156 C 41.148438 25.839844 40.96875 25.9375 40.765625 26 C 40.570312 26.015625 40.375 26.03125 40.179688 26.046875 C 40.144531 26.074219 40.109375 26.105469 40.078125 26.132812 C 40.074219 26.171875 40.070312 26.210938 40.0625 26.257812 C 40.007812 26.25 39.96875 26.246094 39.929688 26.242188 C 39.863281 26.300781 39.800781 26.359375 39.734375 26.417969 C 39.625 26.675781 39.441406 26.863281 39.179688 26.972656 C 39.105469 27.054688 39.03125 27.140625 38.957031 27.222656 C 38.445312 27.808594 38.042969 28.46875 37.6875 29.15625 C 37.308594 29.886719 36.984375 30.644531 36.71875 31.421875 C 36.65625 31.609375 36.542969 31.730469 36.363281 31.828125 C 35.707031 32.1875 35.011719 32.46875 34.292969 32.664062 C 33.792969 32.800781 33.285156 32.925781 32.765625 32.957031 C 32.367188 32.980469 31.96875 33.019531 31.574219 33.046875 C 31.488281 33.054688 31.402344 33.039062 31.285156 33.035156 C 31.332031 32.9375 31.355469 32.871094 31.390625 32.808594 C 32.28125 31.082031 33.210938 29.371094 34.273438 27.738281 C 35.175781 26.351562 36.167969 25.03125 37.355469 23.867188 C 37.492188 23.730469 37.632812 23.59375 37.769531 23.457031 C 38.28125 22.976562 38.839844 22.550781 39.445312 22.191406 C 39.734375 22.019531 40.03125 21.859375 40.328125 21.691406 C 40.410156 21.644531 40.5 21.597656 40.585938 21.550781 C 41.058594 21.320312 41.535156 21.089844 42.011719 20.859375 C 43.085938 20.347656 44.191406 19.90625 45.320312 19.527344 C 46.277344 19.207031 47.246094 18.925781 48.230469 18.710938 C 49.097656 18.523438 49.972656 18.367188 50.84375 18.214844 C 51.390625 18.113281 51.9375 18.039062 52.484375 17.957031 C 52.574219 17.945312 52.660156 17.9375 52.746094 17.929688 C 52.964844 18.117188 52.957031 18.347656 52.878906 18.566406 Z M 37.359375 31.824219 C 37.886719 31.917969 38.277344 32.203125 38.496094 32.691406 C 38.746094 33.246094 38.792969 33.835938 38.757812 34.4375 C 38.757812 34.449219 38.738281 34.460938 38.71875 34.488281 C 38.40625 34.332031 38.085938 34.171875 37.757812 34.011719 C 37.703125 34.0625 37.652344 34.101562 37.609375 34.148438 C 36.546875 35.265625 35.492188 36.386719 34.417969 37.488281 C 33.847656 38.074219 33.226562 38.601562 32.546875 39.058594 C 31.578125 39.710938 30.515625 40.15625 29.378906 40.417969 C 28.496094 40.625 27.597656 40.730469 26.695312 40.78125 C 25.921875 40.824219 25.144531 40.820312 24.382812 40.96875 C 24.085938 41.023438 23.789062 41.085938 23.503906 41.179688 C 22.871094 41.386719 22.535156 41.964844 22.640625 42.640625 C 22.664062 42.792969 22.703125 42.945312 22.730469 43.09375 C 22.742188 43.15625 22.75 43.21875 22.765625 43.3125 C 22.652344 43.3125 22.554688 43.324219 22.464844 43.308594 C 21.683594 43.1875 20.902344 43.0625 20.125 42.933594 C 19.390625 42.816406 18.675781 42.621094 17.972656 42.382812 C 17.402344 42.183594 16.851562 41.941406 16.386719 41.535156 C 16.175781 41.351562 16 41.148438 15.917969 40.863281 C 16.105469 40.585938 16.367188 40.410156 16.652344 40.265625 C 17.148438 40.007812 17.675781 39.835938 18.210938 39.699219 C 19.183594 39.453125 20.160156 39.242188 21.132812 39.003906 C 21.789062 38.839844 22.4375 38.648438 23.089844 38.46875 C 23.140625 38.457031 23.191406 38.425781 23.261719 38.394531 C 23.226562 38.339844 23.207031 38.289062 23.171875 38.25 C 22.773438 37.753906 22.28125 37.371094 21.726562 37.0625 C 20.878906 36.59375 19.96875 36.304688 19.019531 36.113281 C 17.953125 35.898438 16.878906 35.808594 15.792969 35.761719 C 14.789062 35.714844 13.789062 35.738281 12.789062 35.796875 C 11.636719 35.863281 10.484375 35.988281 9.332031 36.105469 C 8.574219 36.183594 7.8125 36.285156 7.054688 36.382812 C 6.761719 36.417969 6.476562 36.46875 6.183594 36.507812 C 6.148438 36.515625 6.109375 36.507812 6.023438 36.5 C 6.160156 36.371094 6.253906 36.261719 6.371094 36.175781 C 6.847656 35.824219 7.316406 35.457031 7.8125 35.136719 C 8.632812 34.613281 9.492188 34.164062 10.382812 33.785156 C 11.34375 33.378906 12.300781 32.96875 13.285156 32.621094 C 14.535156 32.179688 15.800781 31.785156 17.074219 31.402344 C 17.914062 31.152344 18.785156 31.015625 19.664062 30.921875 C 20.589844 30.824219 21.515625 30.808594 22.445312 30.878906 C 23.761719 30.976562 25.035156 31.261719 26.273438 31.71875 C 27.257812 32.078125 28.191406 32.535156 29.09375 33.058594 C 29.277344 33.164062 29.511719 33.199219 29.726562 33.214844 C 30.308594 33.265625 30.898438 33.320312 31.480469 33.316406 C 32.054688 33.3125 32.632812 33.269531 33.203125 33.164062 C 33.757812 33.066406 34.300781 32.941406 34.835938 32.765625 C 35.488281 32.554688 36.113281 32.28125 36.703125 31.933594 C 36.914062 31.808594 37.132812 31.78125 37.359375 31.824219 Z M 52.8125 17.671875 C 52.296875 17.746094 51.769531 17.804688 51.25 17.894531 C 50.414062 18.039062 49.582031 18.191406 48.753906 18.355469 C 47.226562 18.664062 45.726562 19.089844 44.277344 19.648438 C 43.382812 19.996094 42.507812 20.398438 41.625 20.777344 C 41.535156 20.816406 41.453125 20.875 41.351562 20.820312 C 41.339844 20.941406 41.234375 20.96875 41.152344 21.011719 C 40.648438 21.28125 40.148438 21.546875 39.648438 21.8125 C 39.445312 21.921875 39.246094 22.03125 39.046875 22.136719 C 39.019531 22.171875 38.992188 22.21875 38.957031 22.246094 C 38.757812 22.390625 38.550781 22.527344 38.351562 22.675781 C 38.21875 22.777344 38.097656 22.890625 37.972656 23 C 37.964844 23.042969 37.957031 23.089844 37.949219 23.140625 C 37.886719 23.148438 37.832031 23.15625 37.78125 23.160156 C 37.695312 23.238281 37.613281 23.316406 37.53125 23.394531 C 37.105469 23.820312 36.660156 24.230469 36.265625 24.679688 C 34.992188 26.132812 33.925781 27.730469 32.976562 29.40625 C 32.332031 30.546875 31.722656 31.710938 31.09375 32.859375 C 31.058594 32.929688 31.015625 32.996094 30.964844 33.085938 C 30.4375 33.035156 29.917969 32.988281 29.402344 32.933594 C 29.328125 32.925781 29.253906 32.875 29.179688 32.839844 C 28.675781 32.574219 28.183594 32.289062 27.667969 32.042969 C 26.59375 31.53125 25.46875 31.148438 24.300781 30.90625 C 23.484375 30.738281 22.664062 30.617188 21.832031 30.605469 C 21.21875 30.59375 20.609375 30.613281 20 30.652344 C 18.972656 30.71875 17.964844 30.902344 16.972656 31.183594 C 15.25 31.671875 13.550781 32.234375 11.882812 32.890625 C 10.449219 33.457031 9.050781 34.09375 7.734375 34.90625 C 6.914062 35.410156 6.144531 35.980469 5.488281 36.699219 C 5.453125 36.738281 5.417969 36.78125 5.359375 36.847656 C 5.472656 36.847656 5.550781 36.855469 5.628906 36.847656 C 5.773438 36.832031 5.917969 36.804688 6.0625 36.785156 C 7.347656 36.613281 8.625 36.414062 9.914062 36.277344 C 11.144531 36.148438 12.378906 36.050781 13.613281 35.996094 C 15.054688 35.933594 16.496094 35.976562 17.929688 36.167969 C 18.894531 36.300781 19.839844 36.507812 20.746094 36.859375 C 21.472656 37.148438 22.144531 37.527344 22.703125 38.085938 C 22.757812 38.140625 22.804688 38.199219 22.871094 38.273438 C 22.808594 38.300781 22.773438 38.324219 22.738281 38.332031 C 21.941406 38.535156 21.144531 38.742188 20.347656 38.941406 C 19.503906 39.152344 18.652344 39.339844 17.8125 39.566406 C 17.246094 39.71875 16.691406 39.914062 16.203125 40.257812 C 16.039062 40.371094 15.898438 40.523438 15.761719 40.671875 C 15.65625 40.78125 15.652344 40.914062 15.722656 41.054688 C 15.847656 41.300781 16.003906 41.511719 16.207031 41.695312 C 16.53125 41.988281 16.90625 42.203125 17.300781 42.375 C 18.324219 42.820312 19.40625 43.058594 20.496094 43.253906 C 21.003906 43.34375 21.511719 43.410156 22.019531 43.484375 C 22.386719 43.539062 22.753906 43.585938 23.144531 43.640625 C 23.058594 43.351562 22.960938 43.097656 22.917969 42.835938 C 22.882812 42.589844 22.859375 42.328125 22.910156 42.089844 C 22.984375 41.714844 23.273438 41.5 23.628906 41.390625 C 24.125 41.230469 24.640625 41.144531 25.160156 41.109375 C 25.902344 41.054688 26.640625 41.023438 27.378906 40.96875 C 28.292969 40.90625 29.1875 40.742188 30.066406 40.484375 C 31.132812 40.167969 32.109375 39.683594 33.007812 39.027344 C 34.089844 38.230469 35.003906 37.257812 35.917969 36.28125 C 36.523438 35.632812 37.140625 34.988281 37.75 34.347656 C 37.765625 34.332031 37.792969 34.328125 37.820312 34.316406 C 38.203125 34.480469 38.558594 34.707031 39 34.871094 C 39 34.546875 39.011719 34.265625 39 33.980469 C 38.984375 33.515625 38.921875 33.054688 38.726562 32.625 C 38.429688 31.96875 37.917969 31.628906 37.207031 31.566406 C 37.128906 31.558594 37.050781 31.558594 36.945312 31.550781 C 36.96875 31.464844 36.976562 31.402344 37 31.34375 C 37.160156 30.933594 37.316406 30.523438 37.492188 30.121094 C 37.871094 29.261719 38.304688 28.433594 38.882812 27.6875 C 38.960938 27.585938 39.027344 27.476562 39.101562 27.367188 C 39.132812 27.332031 39.167969 27.296875 39.203125 27.261719 C 39.265625 27.183594 39.332031 27.101562 39.398438 27.023438 C 39.527344 26.894531 39.65625 26.765625 39.785156 26.636719 C 39.847656 26.585938 39.910156 26.539062 39.96875 26.488281 C 40.105469 26.375 40.21875 26.222656 40.410156 26.199219 C 40.515625 26.199219 40.621094 26.199219 40.726562 26.199219 C 40.824219 26.171875 40.921875 26.148438 41.019531 26.121094 C 41.132812 26.085938 41.238281 26.042969 41.351562 26.003906 C 41.363281 25.96875 41.371094 25.925781 41.394531 25.894531 C 41.5 25.738281 41.605469 25.589844 41.714844 25.4375 C 41.730469 25.414062 41.761719 25.394531 41.800781 25.359375 C 41.855469 25.390625 41.910156 25.417969 41.960938 25.457031 C 42.152344 25.609375 42.363281 25.726562 42.609375 25.761719 C 42.820312 25.792969 43.027344 25.824219 43.234375 25.855469 C 43.289062 25.863281 43.34375 25.882812 43.398438 25.898438 C 43.441406 25.871094 43.480469 25.824219 43.527344 25.8125 C 43.925781 25.710938 44.203125 25.472656 44.371094 25.101562 C 44.394531 25.050781 44.425781 25.003906 44.457031 24.957031 C 44.988281 25.21875 45.28125 25.125 45.570312 24.613281 C 45.601562 24.554688 45.636719 24.503906 45.679688 24.433594 C 46.257812 24.480469 46.542969 24.117188 46.730469 23.628906 C 46.820312 23.65625 46.886719 23.679688 46.957031 23.699219 C 47.25 23.78125 47.507812 23.710938 47.722656 23.507812 C 47.839844 23.394531 47.9375 23.261719 48.039062 23.136719 C 48.078125 23.09375 48.109375 23.050781 48.140625 23.015625 C 48.828125 23.097656 48.976562 22.996094 49.28125 22.253906 C 49.363281 22.210938 49.460938 22.167969 49.554688 22.121094 C 49.914062 21.925781 50.101562 21.625 50.117188 21.214844 C 50.121094 21.054688 50.117188 20.894531 50.117188 20.734375 C 50.324219 20.671875 50.527344 20.597656 50.589844 20.402344 C 50.652344 20.214844 50.648438 20.007812 50.675781 19.792969 C 50.734375 19.800781 50.796875 19.804688 50.859375 19.8125 C 51.109375 19.839844 51.359375 19.875 51.609375 19.898438 C 52.046875 19.933594 52.382812 19.746094 52.640625 19.40625 C 52.777344 19.226562 52.910156 19.039062 53.042969 18.859375 C 53.042969 18.515625 53.042969 18.171875 53.042969 17.832031 C 52.96875 17.78125 52.898438 17.730469 52.8125 17.671875 "/>
</g>
</svg>
