<?xml version="1.0" encoding="UTF-8"?>
<svg xmlns="http://www.w3.org/2000/svg" xmlns:xlink="http://www.w3.org/1999/xlink" width="56pt" height="56pt" viewBox="0 0 56 56" version="1.1">
<g id="surface1">
<rect x="0" y="0" width="56" height="56" style="fill:rgb(95.666504%,95.776367%,96.775818%);fill-opacity:1;stroke:none;"/>
<path style=" stroke:none;fill-rule:evenodd;fill:rgb(100%,100%,100%);fill-opacity:1;" d="M 38.972656 4.96875 C 39.292969 11.777344 39.101562 17.839844 38.519531 23.199219 C 38.972656 23.800781 38.972656 25.292969 38.648438 27.738281 C 38.777344 27.863281 38.84375 28.363281 38.84375 29.308594 L 38.972656 30.679688 L 38.972656 32.277344 C 38.972656 33.675781 38.84375 35.144531 38.648438 36.667969 C 38.328125 38.414062 37.679688 39.660156 36.519531 40.382812 C 36.195312 40.632812 35.742188 40.78125 35.222656 40.90625 C 34.902344 40.957031 34.582031 40.957031 34.320312 40.90625 C 34.257812 40.882812 33.996094 40.757812 33.675781 40.632812 C 33.351562 40.457031 33.15625 40.335938 32.835938 40.28125 C 32.058594 40.085938 31.21875 40.15625 30.121094 40.53125 C 29.476562 40.757812 28.832031 41.207031 28.3125 41.878906 C 27.796875 42.578125 27.34375 43.402344 27.214844 44.273438 C 27.148438 45.320312 27.214844 46.316406 27.796875 47.363281 C 28.3125 48.511719 29.410156 49.609375 30.898438 50.558594 C 31.414062 51.355469 31.347656 51.730469 30.445312 51.753906 C 29.476562 51.804688 28.765625 51.605469 27.992188 51.054688 C 27.859375 51.628906 27.472656 51.878906 26.570312 51.753906 C 26.050781 51.730469 25.40625 51.507812 24.4375 51.179688 C 23.273438 50.730469 22.046875 50.058594 21.078125 49.261719 C 19.722656 48.238281 18.753906 46.941406 18.105469 45.496094 C 17.203125 43.699219 16.816406 41.628906 16.878906 39.285156 C 17.007812 37.914062 17.460938 36.46875 18.171875 35.019531 C 19.464844 32.402344 21.726562 29.910156 24.890625 27.539062 C 29.089844 24.421875 32.058594 21.207031 34.128906 18.011719 C 36.710938 14.023438 37.875 9.609375 37.550781 4.796875 C 37.550781 4.347656 37.808594 4.171875 38.328125 4.222656 C 38.648438 4.246094 38.84375 4.496094 38.972656 4.96875 "/>
<path style=" stroke:none;fill-rule:evenodd;fill:rgb(21.566772%,34.619141%,63.597107%);fill-opacity:1;" d="M 38.132812 4.71875 C 39.488281 12.949219 35.613281 20.382812 26.375 27.039062 C 23.015625 29.410156 20.5625 31.980469 19.074219 34.722656 C 17.785156 37.214844 17.203125 39.660156 17.527344 42.128906 C 17.847656 44.398438 18.945312 46.367188 20.5625 47.988281 C 22.304688 49.609375 24.4375 50.679688 27.023438 51.132812 C 19.785156 47.6875 19.464844 42.652344 26.050781 36.042969 C 26.503906 35.59375 27.34375 34.972656 28.507812 34.097656 C 30.054688 32.976562 31.09375 32.179688 31.867188 31.65625 C 33.15625 30.554688 34.257812 29.484375 35.097656 28.414062 C 36.257812 27.066406 37.035156 25.667969 37.550781 24.171875 C 37.808594 23.675781 38.003906 22.503906 38.132812 20.679688 C 38.195312 18.933594 38.328125 16.964844 38.457031 14.820312 C 38.519531 12.476562 38.519531 10.457031 38.519531 8.710938 C 38.457031 6.742188 38.328125 5.417969 38.132812 4.71875 "/>
<path style=" stroke:none;fill-rule:evenodd;fill:rgb(78.276062%,65.05127%,27.667236%);fill-opacity:1;" d="M 38.003906 27.414062 C 38.132812 26.691406 38.195312 25.570312 38.328125 24.074219 C 38.003906 26.867188 34.644531 30.554688 28.117188 35.269531 C 27.148438 35.894531 26.246094 36.640625 25.535156 37.539062 C 24.308594 38.835938 23.46875 40.132812 22.953125 41.40625 C 22.304688 43.078125 22.304688 44.648438 22.953125 46.117188 C 23.664062 47.863281 25.214844 49.433594 27.667969 50.855469 C 21.660156 46.367188 21.726562 41.753906 28.117188 37.039062 L 33.609375 32.851562 C 34.96875 31.726562 36.066406 30.78125 36.582031 30.03125 C 37.226562 29.234375 37.679688 28.363281 38.003906 27.414062 "/>
<path style=" stroke:none;fill-rule:evenodd;fill:rgb(90.658569%,14.556885%,18.62793%);fill-opacity:1;" d="M 36.195312 31.53125 C 34.96875 32.800781 33.351562 34.046875 31.542969 35.171875 C 30.445312 35.84375 29.410156 36.59375 28.441406 37.464844 C 27.34375 38.289062 26.503906 39.035156 25.921875 39.660156 C 24.113281 41.753906 23.664062 44.074219 24.890625 46.691406 C 25.085938 47.242188 25.40625 47.765625 25.730469 48.238281 L 25.859375 48.3125 C 27.023438 49.734375 28.507812 50.632812 30.445312 51.054688 C 29.929688 50.730469 29.410156 50.308594 28.832031 49.8125 C 28.183594 49.1875 27.667969 48.5625 27.34375 47.886719 C 26.179688 46.117188 26.050781 44.324219 27.023438 42.527344 C 27.859375 40.757812 29.152344 39.761719 30.769531 39.511719 L 32.640625 39.535156 C 33.15625 39.660156 33.480469 39.785156 33.675781 39.960938 C 33.996094 40.210938 34.582031 40.28125 35.222656 40.257812 C 38.132812 40.007812 39.167969 35.96875 38.195312 28.1875 L 38.003906 28.9375 C 37.550781 29.785156 36.90625 30.65625 36.195312 31.53125 "/>
</g>
</svg>
