<?xml version="1.0" encoding="UTF-8"?>
<svg xmlns="http://www.w3.org/2000/svg" xmlns:xlink="http://www.w3.org/1999/xlink" width="56pt" height="56pt" viewBox="0 0 56 56" version="1.1">
<g id="surface1">
<rect x="0" y="0" width="56" height="56" style="fill:rgb(95.66803%,95.779419%,96.777344%);fill-opacity:1;stroke:none;"/>
<path style=" stroke:none;fill-rule:nonzero;fill:rgb(74.429321%,56.837463%,10.586548%);fill-opacity:1;" d="M 32.414062 43.46875 C 32.167969 43.292969 31.921875 43.121094 31.683594 42.953125 C 30.972656 43.117188 30.773438 43.039062 30.363281 42.449219 C 30.394531 42.421875 30.421875 42.390625 30.449219 42.359375 C 30.679688 42.417969 30.910156 42.507812 31.144531 42.523438 C 31.503906 42.542969 31.828125 42.632812 32.132812 42.832031 C 32.289062 42.9375 32.476562 43.007812 32.648438 43.089844 C 32.800781 42.921875 32.925781 42.785156 33.070312 42.632812 C 33.429688 42.90625 33.757812 43.195312 34.230469 43.003906 C 34.292969 42.894531 34.359375 42.78125 34.425781 42.664062 C 34.644531 42.578125 34.515625 42.394531 34.539062 42.25 C 34.546875 42.230469 34.550781 42.207031 34.566406 42.191406 C 34.578125 42.175781 34.613281 42.160156 34.617188 42.164062 C 34.757812 42.292969 34.894531 42.433594 35.039062 42.558594 C 35.164062 42.664062 35.304688 42.753906 35.457031 42.859375 C 35.945312 42.371094 36.445312 42.007812 37.078125 41.863281 C 37.21875 41.832031 37.414062 41.964844 37.484375 41.726562 C 38.179688 41.34375 38.710938 40.828125 38.851562 40.023438 C 38.945312 39.996094 39.007812 39.976562 39.070312 39.957031 C 39.289062 39.878906 39.511719 39.804688 39.730469 39.726562 C 39.78125 39.652344 39.871094 39.574219 39.875 39.496094 C 39.890625 39.171875 39.878906 38.847656 39.878906 38.523438 C 40.011719 38.394531 40.148438 38.261719 40.28125 38.132812 C 40.324219 38.085938 40.367188 38.035156 40.410156 37.988281 C 40.449219 37.96875 40.484375 37.953125 40.519531 37.933594 C 40.484375 37.90625 40.453125 37.882812 40.421875 37.855469 C 40.425781 37.816406 40.425781 37.777344 40.421875 37.738281 L 40.425781 37.738281 C 40.667969 37.503906 40.488281 37.207031 40.542969 36.941406 C 40.542969 36.707031 40.539062 36.472656 40.535156 36.238281 C 40.59375 36.113281 40.648438 35.988281 40.707031 35.859375 C 40.867188 35.769531 40.859375 35.683594 40.699219 35.601562 C 40.679688 35.566406 40.667969 35.527344 40.660156 35.488281 C 40.679688 35.46875 40.699219 35.449219 40.71875 35.429688 C 40.824219 35.457031 40.9375 35.46875 41.035156 35.515625 C 41.109375 35.550781 41.164062 35.628906 41.25 35.707031 C 41.027344 36.144531 40.917969 36.597656 40.933594 37.09375 C 40.964844 38.199219 40.941406 38.199219 40.144531 38.996094 C 40.164062 39.21875 40.191406 39.476562 40.226562 39.851562 C 40.140625 40.402344 39.441406 40.136719 39.089844 40.46875 C 39.042969 41.238281 38.605469 41.730469 37.882812 42 C 37.675781 42.074219 37.476562 42.167969 37.269531 42.234375 C 36.707031 42.40625 36.234375 42.714844 35.859375 43.167969 C 35.644531 43.21875 35.433594 43.269531 35.203125 43.324219 C 35.085938 43.234375 34.964844 43.148438 34.796875 43.03125 C 34.710938 43.183594 34.628906 43.328125 34.546875 43.46875 C 34.148438 43.46875 33.746094 43.46875 33.347656 43.46875 C 33.332031 43.417969 33.3125 43.371094 33.28125 43.277344 C 33.246094 43.371094 33.230469 43.417969 33.214844 43.46875 C 32.945312 43.46875 32.679688 43.46875 32.414062 43.46875 "/>
<path style=" stroke:none;fill-rule:nonzero;fill:rgb(85.244751%,77.967834%,52.445984%);fill-opacity:1;" d="M 33.214844 43.46875 C 33.230469 43.417969 33.246094 43.371094 33.28125 43.277344 C 33.3125 43.371094 33.332031 43.417969 33.347656 43.46875 C 33.300781 43.46875 33.257812 43.46875 33.214844 43.46875 "/>
<path style=" stroke:none;fill-rule:nonzero;fill:rgb(74.809265%,56.825256%,10.540771%);fill-opacity:1;" d="M 38.015625 31.121094 C 39.851562 30.847656 41.292969 29.914062 42.449219 28.492188 C 42.808594 28.046875 43.207031 27.625 43.585938 27.195312 C 45.726562 24.75 47.636719 22.136719 49.335938 19.367188 C 49.703125 18.773438 49.972656 18.117188 50.289062 17.492188 C 50.371094 17.335938 50.449219 17.175781 50.550781 17.035156 C 50.6875 16.84375 50.867188 16.722656 51.15625 16.828125 C 51.273438 17.132812 51.246094 17.441406 51.125 17.761719 C 50.660156 18.992188 50.214844 20.230469 49.738281 21.457031 C 49.007812 23.34375 47.929688 25.027344 46.59375 26.542969 C 45.761719 27.488281 44.921875 28.433594 44.042969 29.335938 C 42.925781 30.484375 41.628906 31.394531 40.128906 31.984375 C 38.734375 32.53125 37.339844 32.484375 35.980469 31.832031 C 35.890625 31.785156 35.820312 31.6875 35.742188 31.613281 C 35.742188 31.5625 35.746094 31.515625 35.746094 31.464844 C 35.839844 31.464844 35.929688 31.460938 36.019531 31.460938 C 36.085938 31.46875 36.160156 31.460938 36.214844 31.484375 C 37.207031 31.929688 38.234375 31.992188 39.273438 31.71875 C 40.394531 31.425781 41.421875 30.933594 42.285156 30.140625 C 42.335938 30.050781 42.382812 29.960938 42.425781 29.871094 L 42.429688 29.875 C 42.585938 29.820312 42.777344 29.800781 42.890625 29.703125 C 43.429688 29.230469 43.957031 28.742188 44.472656 28.25 C 44.578125 28.152344 44.632812 28 44.707031 27.875 C 45.777344 26.925781 46.6875 25.84375 47.484375 24.660156 C 47.527344 24.617188 47.566406 24.574219 47.605469 24.53125 C 47.621094 24.488281 47.632812 24.445312 47.636719 24.402344 C 47.769531 24.238281 47.925781 24.085938 48.03125 23.90625 C 48.394531 23.273438 48.738281 22.632812 49.089844 21.996094 C 49.351562 21.476562 49.65625 20.972656 49.859375 20.433594 C 50.199219 19.546875 50.570312 18.664062 50.714844 17.710938 C 50.78125 17.609375 50.871094 17.515625 50.910156 17.40625 C 50.929688 17.347656 50.859375 17.261719 50.835938 17.1875 C 50.796875 17.195312 50.761719 17.203125 50.722656 17.210938 C 50.714844 17.371094 50.703125 17.535156 50.691406 17.695312 C 50.601562 17.839844 50.5 17.980469 50.417969 18.128906 C 50.175781 18.570312 49.949219 19.019531 49.695312 19.453125 C 49.273438 20.171875 48.835938 20.875 48.40625 21.585938 C 47.746094 22.476562 47.085938 23.371094 46.425781 24.265625 C 45.667969 25.238281 44.90625 26.210938 44.148438 27.183594 C 43.476562 27.941406 42.804688 28.699219 42.136719 29.457031 C 41.910156 29.625 41.675781 29.785156 41.457031 29.964844 C 40.308594 30.902344 39.003906 31.445312 37.511719 31.460938 C 37.058594 31.464844 36.601562 31.375 36.148438 31.332031 C 36.148438 31.285156 36.148438 31.242188 36.148438 31.199219 C 36.28125 31.160156 36.472656 31.289062 36.546875 31.070312 C 36.636719 31.078125 36.726562 31.089844 36.816406 31.097656 C 36.828125 31.160156 36.839844 31.222656 36.855469 31.304688 C 37.222656 31.304688 37.585938 31.304688 37.960938 31.304688 C 37.980469 31.238281 37.996094 31.179688 38.015625 31.121094 "/>
<path style=" stroke:none;fill-rule:nonzero;fill:rgb(75.253296%,57.197571%,10.464478%);fill-opacity:1;" d="M 25.339844 31.207031 C 25.195312 31.164062 25.042969 31.140625 24.90625 31.085938 C 23.769531 30.632812 22.601562 30.550781 21.40625 30.746094 C 20.734375 30.851562 20.0625 30.972656 19.386719 31.042969 C 17.976562 31.199219 16.6875 30.796875 15.472656 30.105469 C 15.472656 30.027344 15.472656 29.945312 15.472656 29.863281 C 15.558594 29.882812 15.644531 29.894531 15.726562 29.917969 C 16.429688 30.132812 17.121094 30.402344 17.875 30.386719 C 18.542969 30.390625 19.207031 30.394531 19.875 30.398438 L 19.941406 30.402344 L 20.007812 30.394531 C 20.1875 30.386719 20.367188 30.378906 20.546875 30.371094 C 20.726562 30.347656 20.941406 30.5 21.078125 30.269531 C 21.164062 30.261719 21.253906 30.257812 21.34375 30.253906 C 21.605469 30.253906 21.871094 30.253906 22.136719 30.257812 C 22.773438 30.265625 23.410156 30.191406 24.035156 30.390625 C 24.3125 30.476562 24.59375 30.5625 24.878906 30.652344 C 25.011719 29.59375 24.980469 29.511719 24.199219 28.847656 C 23.109375 28.730469 21.898438 28.816406 20.691406 28.800781 C 20.644531 28.835938 20.59375 28.867188 20.546875 28.898438 C 20.367188 28.902344 20.1875 28.90625 20.007812 28.910156 C 20.007812 28.832031 20.007812 28.757812 20.007812 28.679688 C 21.105469 28.441406 22.222656 28.386719 23.339844 28.410156 C 23.601562 28.414062 23.867188 28.429688 24.125 28.46875 C 24.675781 28.554688 25.054688 28.898438 25.347656 29.425781 C 25.683594 28.8125 25.980469 28.269531 26.28125 27.726562 L 26.273438 27.730469 C 26.390625 27.683594 26.507812 27.632812 26.707031 27.550781 C 26.664062 27.820312 26.636719 28.03125 26.601562 28.238281 C 26.480469 28.984375 26.460938 29.726562 26.632812 30.472656 C 26.863281 31.46875 27.375 32.304688 28.046875 33.050781 C 28.988281 34.097656 30.085938 34.933594 31.351562 35.554688 C 31.488281 35.621094 31.613281 35.707031 31.78125 35.800781 C 31.699219 36.003906 31.628906 36.175781 31.546875 36.367188 C 31.46875 36.347656 31.40625 36.335938 31.347656 36.320312 C 29.308594 35.667969 27.6875 34.398438 26.292969 32.828125 C 25.882812 32.363281 25.648438 31.746094 25.335938 31.203125 C 25.382812 31.121094 25.460938 31.046875 25.476562 30.960938 C 25.507812 30.816406 25.5 30.664062 25.507812 30.515625 C 25.703125 31.152344 25.941406 31.769531 26.410156 32.265625 C 26.757812 32.890625 27.289062 33.355469 27.804688 33.828125 C 28.101562 34.101562 28.464844 34.308594 28.796875 34.546875 C 28.933594 34.640625 29.070312 34.734375 29.207031 34.828125 C 29.292969 34.867188 29.378906 34.90625 29.464844 34.945312 C 29.457031 35.140625 29.5625 35.210938 29.742188 35.203125 C 29.808594 35.394531 29.949219 35.472656 30.148438 35.460938 C 30.234375 35.507812 30.324219 35.550781 30.414062 35.59375 C 30.433594 35.628906 30.457031 35.660156 30.421875 35.605469 C 30.480469 35.640625 30.445312 35.621094 30.410156 35.601562 C 30.320312 35.554688 30.230469 35.511719 30.144531 35.46875 C 30.085938 35.269531 29.957031 35.179688 29.75 35.191406 C 29.765625 35 29.660156 34.925781 29.484375 34.921875 C 29.394531 34.839844 29.300781 34.757812 29.210938 34.671875 C 29.085938 34.613281 28.960938 34.558594 28.835938 34.503906 C 28.777344 34.394531 28.738281 34.261719 28.652344 34.175781 C 28.007812 33.554688 27.371094 32.929688 26.898438 32.15625 C 26.855469 32.089844 26.773438 32.039062 26.710938 31.980469 C 26.570312 31.640625 26.40625 31.304688 26.289062 30.953125 C 26.078125 30.308594 25.9375 29.652344 26.03125 28.902344 C 25.625 29.167969 25.660156 29.574219 25.484375 29.863281 C 25.21875 30.070312 25.175781 30.328125 25.261719 30.644531 C 25.3125 30.824219 25.316406 31.015625 25.339844 31.207031 "/>
<path style=" stroke:none;fill-rule:nonzero;fill:rgb(74.790955%,56.430054%,10.562134%);fill-opacity:1;" d="M 46.113281 16.214844 C 46.554688 15.726562 46.992188 15.242188 47.46875 14.71875 C 47.695312 14.964844 47.867188 15.152344 48.074219 15.375 C 47.660156 15.902344 47.296875 16.429688 46.871094 16.898438 C 46.085938 17.761719 45.308594 18.640625 44.398438 19.390625 C 43.257812 20.335938 42.054688 21.191406 40.71875 21.828125 C 39.765625 22.28125 38.78125 22.664062 37.753906 22.898438 C 36.207031 23.25 35.058594 24.128906 34.15625 25.40625 C 33.558594 26.25 32.929688 27.074219 32.285156 27.882812 C 31.816406 28.476562 31.230469 28.933594 30.410156 28.773438 C 29.925781 28.675781 29.445312 28.5 29.082031 28.121094 C 29.128906 28.078125 29.175781 28.035156 29.222656 27.988281 C 29.382812 28.046875 29.542969 28.109375 29.707031 28.160156 C 30.242188 28.328125 30.773438 28.359375 31.253906 28.007812 C 31.421875 27.882812 31.570312 27.730469 31.730469 27.589844 C 31.933594 27.371094 32.164062 27.171875 32.335938 26.929688 C 32.734375 26.367188 33.105469 25.785156 33.488281 25.210938 C 33.53125 25.160156 33.570312 25.109375 33.613281 25.058594 C 33.652344 25.015625 33.695312 24.972656 33.730469 24.929688 C 33.949219 24.652344 34.140625 24.355469 34.378906 24.105469 C 35.261719 23.191406 36.320312 22.570312 37.554688 22.246094 C 37.902344 22.15625 38.230469 21.996094 38.570312 21.871094 C 39.574219 21.71875 40.492188 21.339844 41.351562 20.800781 C 42.273438 20.449219 43.0625 19.902344 43.761719 19.214844 C 43.839844 19.183594 43.945312 19.175781 43.996094 19.121094 C 44.808594 18.300781 45.609375 17.472656 46.417969 16.644531 C 46.597656 16.386719 46.78125 16.128906 46.964844 15.871094 C 47.007812 15.824219 47.046875 15.777344 47.089844 15.730469 C 47.132812 15.683594 47.175781 15.636719 47.21875 15.589844 C 47.261719 15.5 47.304688 15.410156 47.347656 15.320312 C 47.371094 15.285156 47.394531 15.253906 47.414062 15.21875 C 47.394531 15.253906 47.375 15.289062 47.355469 15.328125 C 47.308594 15.371094 47.265625 15.417969 47.21875 15.464844 C 47.171875 15.550781 47.125 15.632812 47.078125 15.71875 C 47.03125 15.757812 46.984375 15.800781 46.933594 15.839844 C 46.808594 15.910156 46.679688 15.980469 46.550781 16.054688 C 46.421875 16.128906 46.296875 16.203125 46.167969 16.273438 C 46.152344 16.257812 46.132812 16.234375 46.113281 16.214844 "/>
<path style=" stroke:none;fill-rule:nonzero;fill:rgb(74.07074%,56.478882%,10.639954%);fill-opacity:1;" d="M 25.339844 24.53125 C 25.324219 24.5 25.304688 24.46875 25.332031 24.515625 C 25.28125 24.484375 25.3125 24.503906 25.347656 24.523438 C 25.390625 24.570312 25.429688 24.617188 25.472656 24.664062 C 25.5625 24.886719 25.652344 25.109375 25.738281 25.335938 C 25.824219 25.601562 25.90625 25.871094 25.988281 26.140625 C 26.007812 26.34375 26.023438 26.546875 26.042969 26.753906 C 26.070312 26.75 26.101562 26.75 26.128906 26.75 C 26.128906 26.542969 26.128906 26.332031 26.128906 26.125 C 26.175781 25.699219 26.078125 25.324219 25.761719 25.019531 C 25.75 24.832031 25.757812 24.636719 25.480469 24.65625 C 25.433594 24.613281 25.386719 24.574219 25.339844 24.53125 Z M 28.019531 26.527344 C 27.800781 26.136719 27.832031 25.695312 27.777344 25.273438 C 27.742188 24.96875 27.773438 24.65625 27.773438 24.363281 C 27.4375 24.054688 27.058594 24.109375 26.683594 24.121094 C 26.601562 24.03125 26.523438 23.941406 26.394531 23.800781 C 26.339844 23.925781 26.3125 23.992188 26.28125 24.058594 C 26.15625 24.09375 26.03125 24.128906 25.898438 24.164062 C 26.050781 24.527344 26.214844 24.878906 26.351562 25.242188 C 26.589844 25.855469 26.578125 26.476562 26.386719 27.105469 C 26.328125 27.304688 26.308594 27.523438 26.273438 27.730469 L 26.28125 27.726562 C 26.128906 27.726562 25.980469 27.726562 25.867188 27.726562 C 25.519531 27.492188 25.628906 27.175781 25.644531 26.90625 C 25.699219 26.027344 25.429688 25.261719 24.910156 24.542969 C 24.378906 24.4375 24 24.785156 23.59375 25.015625 C 23.347656 25.15625 23.144531 25.371094 22.902344 25.523438 C 22.628906 25.695312 22.332031 25.835938 22.089844 25.964844 C 21.324219 25.808594 20.925781 25.363281 20.769531 24.652344 C 20.421875 24.742188 20.09375 24.832031 19.78125 24.914062 C 18.816406 24.648438 18.527344 24.3125 18.582031 23.539062 C 18.832031 23.171875 19.238281 23.410156 19.535156 23.308594 C 19.660156 23.042969 19.78125 22.796875 19.898438 22.558594 C 20.425781 22.511719 20.882812 22.476562 21.21875 22.910156 C 21.121094 22.960938 21.027344 23.011719 20.929688 23.066406 C 20.667969 22.964844 20.40625 22.863281 20.132812 22.761719 C 20.003906 22.851562 19.902344 22.925781 19.789062 23.003906 C 20.085938 23.332031 20.300781 23.566406 20.558594 23.851562 C 20.242188 23.851562 20 23.851562 19.738281 23.851562 C 19.542969 23.761719 19.328125 23.660156 19.007812 23.511719 C 18.9375 23.601562 18.863281 23.703125 18.804688 23.777344 C 18.910156 24.21875 19.136719 24.453125 19.539062 24.519531 C 19.957031 24.394531 20.386719 24.265625 20.8125 24.136719 C 21.339844 24.050781 21.84375 24.230469 22.355469 24.304688 C 22.597656 24.339844 22.832031 24.4375 23.066406 24.507812 C 22.765625 24.671875 22.441406 24.664062 22.109375 24.65625 C 21.75 24.648438 21.417969 24.714844 21.195312 25.035156 C 21.347656 25.453125 21.730469 25.464844 22.125 25.605469 C 22.421875 25.390625 22.746094 25.152344 23.074219 24.914062 C 23.5625 24.335938 24.355469 24.265625 24.941406 23.847656 C 24.867188 23.730469 24.820312 23.660156 24.773438 23.585938 C 25.183594 23.628906 25.59375 23.714844 26.003906 23.703125 C 26.503906 23.6875 26.996094 23.59375 27.429688 23.542969 C 27.960938 23.992188 27.996094 24.0625 28.003906 24.601562 C 28.011719 25.242188 28.015625 25.882812 28.019531 26.527344 "/>
<path style=" stroke:none;fill-rule:nonzero;fill:rgb(18.4021%,29.649353%,19.88678%);fill-opacity:1;" d="M 38.570312 21.871094 C 38.230469 21.996094 37.902344 22.15625 37.554688 22.246094 C 36.320312 22.570312 35.261719 23.191406 34.378906 24.105469 C 34.140625 24.355469 33.949219 24.652344 33.730469 24.929688 C 33.695312 24.972656 33.652344 25.015625 33.613281 25.058594 C 33.570312 25.109375 33.53125 25.160156 33.488281 25.210938 C 33.5 24.84375 33.101562 24.875 32.988281 24.660156 C 32.824219 24.660156 32.695312 24.660156 32.566406 24.660156 C 32.929688 24.0625 33.234375 23.417969 33.667969 22.875 C 34.507812 21.824219 35.613281 21.1875 36.976562 21.046875 C 37.148438 21.027344 37.320312 21 37.492188 20.972656 C 37.796875 21.074219 38.054688 21.242188 38.253906 21.496094 C 38.351562 21.625 38.464844 21.746094 38.570312 21.871094 "/>
<path style=" stroke:none;fill-rule:nonzero;fill:rgb(74.429321%,56.837463%,10.586548%);fill-opacity:1;" d="M 34.367188 41.550781 C 34.667969 41.179688 34.722656 41.15625 35.058594 41.28125 C 35.261719 41.355469 35.460938 41.453125 35.535156 41.484375 C 36.113281 41.261719 36.589844 41.105469 37.035156 40.886719 C 37.34375 40.734375 37.609375 40.492188 37.878906 40.300781 C 37.921875 39.832031 37.875 39.378906 38.410156 39.09375 C 38.511719 39.085938 38.703125 39.058594 38.914062 39.035156 C 38.929688 38.964844 38.960938 38.902344 38.957031 38.84375 C 38.902344 38.375 38.699219 37.964844 38.460938 37.5625 C 38.40625 37.472656 38.351562 37.386719 38.277344 37.269531 C 38.746094 37.09375 39.070312 37.453125 39.511719 37.472656 C 39.570312 37.421875 39.667969 37.34375 39.765625 37.265625 C 39.734375 37.183594 39.726562 37.101562 39.683594 37.066406 C 39.480469 36.898438 39.257812 36.753906 39.058594 36.578125 C 38.867188 36.410156 38.695312 36.21875 38.519531 36.042969 C 38.585938 35.867188 38.628906 35.75 38.675781 35.609375 C 37.910156 34.917969 36.941406 34.597656 35.96875 34.171875 C 36.046875 33.886719 36.117188 33.621094 36.207031 33.292969 C 37.328125 33.785156 38.390625 34.253906 39.449219 34.722656 C 39.527344 34.757812 39.582031 34.839844 39.648438 34.894531 C 39.632812 34.914062 39.613281 34.933594 39.597656 34.949219 C 39.164062 34.808594 38.726562 34.664062 38.292969 34.523438 C 37.980469 34.265625 37.613281 34.148438 37.214844 34.132812 C 37.148438 34.089844 37.082031 34.046875 37.015625 34.007812 C 37 34.035156 36.988281 34.066406 36.976562 34.09375 C 37.054688 34.105469 37.136719 34.117188 37.21875 34.128906 C 37.527344 34.304688 37.839844 34.480469 38.152344 34.65625 C 38.546875 34.839844 38.945312 35.023438 39.34375 35.210938 C 39.519531 35.355469 39.695312 35.507812 39.929688 35.707031 C 39.59375 35.738281 39.347656 35.761719 38.96875 35.800781 C 39.265625 36.042969 39.445312 36.226562 39.65625 36.355469 C 40.078125 36.617188 40.234375 36.976562 40.132812 37.460938 C 40.011719 37.550781 39.894531 37.644531 39.789062 37.722656 C 39.539062 37.742188 39.316406 37.761719 39.074219 37.777344 C 39.230469 38.246094 39.367188 38.652344 39.507812 39.078125 C 39.378906 39.214844 39.261719 39.339844 39.199219 39.40625 C 38.890625 39.539062 38.597656 39.332031 38.398438 39.59375 C 38.363281 39.664062 38.296875 39.734375 38.296875 39.808594 C 38.304688 40.273438 38.101562 40.601562 37.699219 40.824219 C 37.433594 40.96875 37.1875 41.175781 36.90625 41.273438 C 36.40625 41.449219 35.933594 41.644531 35.667969 42.179688 C 35.367188 41.972656 35.097656 41.792969 34.820312 41.605469 C 34.695312 41.609375 34.566406 41.613281 34.429688 41.621094 C 34.410156 41.597656 34.390625 41.574219 34.367188 41.550781 "/>
<path style=" stroke:none;fill-rule:nonzero;fill:rgb(20.095825%,40.171814%,25.447083%);fill-opacity:1;" d="M 28.019531 26.527344 C 28.015625 25.882812 28.011719 25.242188 28.003906 24.601562 C 27.996094 24.0625 27.960938 23.992188 27.429688 23.542969 C 26.996094 23.59375 26.503906 23.6875 26.003906 23.703125 C 25.59375 23.714844 25.183594 23.628906 24.773438 23.585938 L 24.726562 23.589844 C 24.660156 23.40625 24.597656 23.226562 24.53125 23.042969 L 24.53125 23.046875 C 24.675781 23.078125 24.820312 23.105469 24.960938 23.140625 C 25.226562 23.199219 25.488281 23.265625 25.742188 23.101562 C 26.324219 23.035156 26.902344 22.96875 27.480469 22.902344 C 27.863281 22.980469 28.042969 23.292969 28.253906 23.535156 C 28.367188 24.367188 28.117188 25.195312 28.457031 25.953125 C 28.855469 26.464844 29.304688 26.816406 29.988281 26.632812 C 30.300781 26.535156 30.613281 26.441406 30.921875 26.34375 C 30.914062 26.753906 31.195312 27.046875 31.355469 27.386719 C 31.40625 27.488281 31.601562 27.523438 31.730469 27.589844 C 31.570312 27.730469 31.421875 27.882812 31.253906 28.007812 C 30.773438 28.359375 30.242188 28.328125 29.707031 28.160156 C 29.542969 28.109375 29.382812 28.046875 29.222656 27.988281 C 29.128906 27.949219 29.03125 27.910156 28.9375 27.871094 C 28.925781 27.6875 28.796875 27.71875 28.679688 27.722656 L 28.683594 27.726562 C 28.710938 27.511719 28.585938 27.398438 28.402344 27.332031 L 28.40625 27.339844 C 28.363281 27.285156 28.324219 27.234375 28.28125 27.183594 C 28.195312 26.964844 28.105469 26.746094 28.019531 26.527344 "/>
<path style=" stroke:none;fill-rule:nonzero;fill:rgb(74.809265%,56.825256%,10.540771%);fill-opacity:1;" d="M 11.335938 30.265625 C 11.894531 30.855469 12.445312 31.457031 13.019531 32.03125 C 14.425781 33.453125 16.035156 34.59375 17.863281 35.410156 C 18.996094 35.917969 20.171875 36.253906 21.433594 36.132812 C 21.804688 36.097656 22.171875 36.042969 22.542969 35.992188 C 22.539062 36.035156 22.539062 36.074219 22.535156 36.113281 C 22.445312 36.125 22.347656 36.113281 22.273438 36.144531 C 21.066406 36.660156 19.847656 36.636719 18.617188 36.265625 C 18.054688 36.097656 17.503906 35.902344 16.945312 35.71875 C 16.917969 35.6875 16.902344 35.640625 16.867188 35.621094 C 15.980469 35.1875 15.144531 34.675781 14.367188 34.058594 C 13.960938 33.738281 13.511719 33.46875 13.082031 33.171875 C 13.058594 32.90625 12.90625 32.789062 12.648438 32.792969 C 11.972656 32.0625 11.480469 31.226562 11.160156 30.28125 C 11.21875 30.277344 11.277344 30.269531 11.335938 30.265625 "/>
<path style=" stroke:none;fill-rule:nonzero;fill:rgb(74.104309%,57.330322%,10.601807%);fill-opacity:1;" d="M 15.472656 29.863281 C 15.472656 29.945312 15.472656 30.027344 15.472656 30.105469 C 14.191406 29.550781 12.90625 29 11.550781 28.625 C 10.078125 28.214844 8.605469 27.808594 7.089844 27.574219 C 6.097656 27.417969 5.109375 27.230469 4.113281 27.078125 C 3.789062 27.027344 3.449219 27.054688 3.121094 27.027344 C 2.980469 27.015625 2.84375 26.957031 2.601562 26.890625 C 4.554688 26.394531 6.421875 26.359375 8.292969 26.421875 C 8.511719 26.429688 8.722656 26.5 8.9375 26.542969 C 8.9375 26.628906 8.9375 26.710938 8.9375 26.796875 C 8.804688 26.796875 8.671875 26.792969 8.539062 26.792969 C 7.503906 26.800781 6.46875 26.808594 5.433594 26.816406 C 5.414062 26.816406 5.398438 26.839844 5.378906 26.851562 C 5.390625 26.867188 5.398438 26.878906 5.40625 26.890625 C 5.773438 26.949219 6.136719 27.003906 6.496094 27.0625 C 7.179688 27.171875 7.863281 27.277344 8.546875 27.402344 C 9.121094 27.503906 9.691406 27.628906 10.265625 27.742188 C 10.675781 27.898438 11.085938 28.066406 11.503906 28.210938 C 12.109375 28.421875 12.71875 28.621094 13.324219 28.824219 C 13.375 28.863281 13.417969 28.914062 13.476562 28.941406 C 14.140625 29.25 14.804688 29.554688 15.472656 29.863281 "/>
<path style=" stroke:none;fill-rule:nonzero;fill:rgb(74.809265%,56.825256%,10.540771%);fill-opacity:1;" d="M 25.589844 34.261719 C 25.742188 34.113281 25.894531 33.96875 26.03125 33.839844 C 26.714844 34.160156 27.105469 34.632812 27.351562 35.28125 C 27.261719 35.402344 27.1875 35.539062 27.082031 35.644531 C 25.953125 36.738281 24.644531 37.472656 23.066406 37.738281 C 21.402344 38.015625 19.84375 37.71875 18.324219 37.070312 C 17.839844 36.859375 17.363281 36.636719 16.890625 36.40625 C 16.761719 36.34375 16.652344 36.226562 16.535156 36.136719 L 16.558594 36.109375 C 16.667969 36.128906 16.785156 36.125 16.882812 36.171875 C 17.925781 36.664062 18.992188 37.089844 20.144531 37.269531 C 20.570312 37.335938 21 37.4375 21.433594 37.445312 C 21.820312 37.457031 22.210938 37.363281 22.597656 37.308594 C 22.628906 37.304688 22.652344 37.25 22.679688 37.21875 C 23.144531 37.214844 23.589844 37.113281 24.007812 36.921875 C 25.027344 36.628906 25.800781 35.972656 26.527344 35.277344 C 26.527344 35.070312 26.527344 34.902344 26.527344 34.683594 C 26.210938 34.542969 25.898438 34.402344 25.589844 34.261719 "/>
<path style=" stroke:none;fill-rule:nonzero;fill:rgb(74.429321%,56.837463%,10.586548%);fill-opacity:1;" d="M 29.765625 38.933594 C 29.816406 38.59375 29.871094 38.253906 29.925781 37.886719 C 30.171875 37.886719 30.382812 37.886719 30.644531 37.886719 C 30.757812 39.167969 30.398438 40.496094 31.039062 41.65625 C 31.605469 41.761719 32.132812 41.859375 32.765625 41.976562 C 32.839844 41.917969 33.003906 41.78125 33.234375 41.589844 C 33.390625 41.621094 33.59375 41.675781 33.796875 41.699219 C 33.941406 41.71875 34.089844 41.695312 34.234375 41.691406 C 34.257812 41.710938 34.28125 41.730469 34.300781 41.753906 C 34.152344 42.089844 34.183594 42.546875 33.667969 42.675781 C 33.605469 42.558594 33.535156 42.453125 33.488281 42.335938 C 33.449219 42.226562 33.433594 42.105469 33.378906 41.878906 C 33.105469 42.15625 32.90625 42.355469 32.65625 42.609375 C 32.148438 41.890625 31.410156 42.210938 30.800781 42.136719 C 30.347656 41.890625 30.332031 41.425781 30.144531 41.070312 C 30.09375 40.535156 30.042969 40.003906 29.996094 39.46875 C 29.996094 39.21875 29.996094 38.96875 29.996094 38.714844 C 29.96875 38.714844 29.941406 38.710938 29.914062 38.710938 C 29.902344 38.78125 29.890625 38.859375 29.878906 38.933594 C 29.839844 38.933594 29.800781 38.933594 29.765625 38.933594 "/>
<path style=" stroke:none;fill-rule:nonzero;fill:rgb(75.253296%,57.197571%,10.464478%);fill-opacity:1;" d="M 43.214844 25.070312 C 43.347656 25.121094 43.480469 25.175781 43.621094 25.234375 C 43.507812 25.9375 43.046875 26.371094 42.671875 26.847656 C 41.65625 28.144531 40.410156 29.203125 39.09375 30.175781 C 38.414062 30.679688 37.65625 30.910156 36.816406 30.894531 C 36.816406 30.769531 36.816406 30.648438 36.816406 30.523438 C 37.496094 30.472656 38.09375 30.199219 38.675781 29.859375 C 38.828125 29.777344 38.996094 29.714844 39.128906 29.605469 C 40.035156 28.878906 40.96875 28.183594 41.621094 27.199219 C 42.160156 26.820312 42.449219 26.238281 42.8125 25.722656 C 42.921875 25.574219 42.976562 25.382812 43.054688 25.210938 C 43.109375 25.164062 43.164062 25.117188 43.214844 25.070312 "/>
<path style=" stroke:none;fill-rule:nonzero;fill:rgb(18.379211%,34.184265%,22.732544%);fill-opacity:1;" d="M 31.730469 27.589844 C 31.601562 27.523438 31.40625 27.488281 31.355469 27.386719 C 31.195312 27.046875 30.914062 26.753906 30.921875 26.34375 C 30.96875 26.3125 31.011719 26.28125 31.054688 26.246094 C 31.105469 26.207031 31.160156 26.167969 31.214844 26.128906 C 31.664062 25.640625 32.113281 25.148438 32.566406 24.660156 C 32.695312 24.660156 32.824219 24.660156 32.988281 24.660156 C 33.101562 24.875 33.5 24.84375 33.488281 25.210938 C 33.105469 25.785156 32.734375 26.367188 32.335938 26.929688 C 32.164062 27.171875 31.933594 27.371094 31.730469 27.589844 "/>
<path style=" stroke:none;fill-rule:nonzero;fill:rgb(23.901367%,46.546936%,29.33197%);fill-opacity:1;" d="M 25.589844 34.261719 C 25.898438 34.402344 26.210938 34.542969 26.527344 34.683594 C 26.527344 34.902344 26.527344 35.070312 26.527344 35.277344 C 25.800781 35.972656 25.027344 36.628906 24.007812 36.921875 C 24.09375 36.730469 24.179688 36.542969 24.265625 36.355469 C 24.171875 36.238281 24.082031 36.121094 24.019531 36.039062 C 24.0625 35.757812 24.097656 35.53125 24.132812 35.300781 C 24.617188 34.953125 25.101562 34.605469 25.589844 34.261719 "/>
<path style=" stroke:none;fill-rule:nonzero;fill:rgb(74.104309%,57.330322%,10.601807%);fill-opacity:1;" d="M 20.007812 28.679688 C 20.007812 28.757812 20.007812 28.832031 20.007812 28.910156 C 19.519531 28.96875 19.03125 29.027344 18.539062 29.085938 C 18.363281 29.082031 18.1875 29.074219 18.011719 29.074219 C 17.246094 29.066406 16.476562 29.117188 15.746094 28.800781 C 15.226562 28.578125 14.691406 28.398438 14.164062 28.207031 C 13.941406 28.125 13.714844 28.058594 13.488281 27.988281 C 12.652344 27.53125 11.738281 27.335938 10.808594 27.195312 C 10.433594 26.996094 10.011719 26.972656 9.605469 26.910156 C 9.691406 26.832031 9.78125 26.75 9.871094 26.667969 C 10.828125 26.671875 11.726562 26.988281 12.621094 27.265625 C 13.875 27.652344 15.109375 28.105469 16.351562 28.523438 C 17.46875 28.894531 18.601562 28.894531 19.742188 28.679688 C 19.828125 28.660156 19.917969 28.679688 20.007812 28.679688 "/>
<path style=" stroke:none;fill-rule:nonzero;fill:rgb(18.379211%,34.184265%,22.732544%);fill-opacity:1;" d="M 38.570312 21.871094 C 38.464844 21.746094 38.351562 21.625 38.253906 21.496094 C 38.054688 21.242188 37.796875 21.074219 37.492188 20.972656 C 38.164062 20.785156 38.84375 20.605469 39.515625 20.40625 C 39.910156 20.285156 40.296875 20.132812 40.691406 19.992188 C 41.164062 20.054688 41.261719 20.421875 41.351562 20.800781 C 40.492188 21.339844 39.574219 21.71875 38.570312 21.871094 "/>
<path style=" stroke:none;fill-rule:nonzero;fill:rgb(20.095825%,40.171814%,25.447083%);fill-opacity:1;" d="M 41.351562 20.800781 C 41.261719 20.421875 41.164062 20.054688 40.691406 19.992188 C 41.175781 19.730469 41.660156 19.464844 42.144531 19.199219 C 42.234375 19.148438 42.324219 19.101562 42.414062 19.050781 L 42.410156 19.054688 C 42.496094 19.007812 42.585938 18.960938 42.675781 18.910156 L 42.671875 18.917969 C 42.722656 18.875 42.773438 18.832031 42.820312 18.789062 L 42.816406 18.796875 C 42.90625 18.746094 42.992188 18.699219 43.082031 18.648438 L 43.074219 18.65625 C 43.160156 18.652344 43.242188 18.648438 43.328125 18.648438 C 43.730469 18.738281 43.730469 18.742188 43.761719 19.214844 C 43.0625 19.902344 42.273438 20.449219 41.351562 20.800781 "/>
<path style=" stroke:none;fill-rule:nonzero;fill:rgb(23.625183%,37.820435%,24.94812%);fill-opacity:1;" d="M 41.621094 27.199219 C 40.96875 28.183594 40.035156 28.878906 39.128906 29.605469 C 38.996094 29.714844 38.828125 29.777344 38.675781 29.859375 C 38.59375 29.847656 38.515625 29.835938 38.40625 29.816406 C 38.40625 29.632812 38.40625 29.484375 38.40625 29.335938 L 38.421875 29.324219 C 38.464844 29.289062 38.503906 29.257812 38.542969 29.226562 L 38.582031 29.199219 C 38.65625 29.15625 38.734375 29.109375 38.808594 29.066406 C 39.335938 28.574219 39.863281 28.085938 40.394531 27.59375 C 40.445312 27.546875 40.492188 27.5 40.542969 27.453125 L 40.539062 27.457031 C 40.585938 27.410156 40.628906 27.363281 40.671875 27.316406 L 40.667969 27.320312 C 40.71875 27.234375 40.769531 27.148438 40.820312 27.0625 L 40.816406 27.066406 C 40.902344 27.058594 40.984375 27.046875 41.070312 27.035156 C 41.183594 27.328125 41.441406 27.140625 41.621094 27.199219 "/>
<path style=" stroke:none;fill-rule:nonzero;fill:rgb(74.809265%,56.825256%,10.540771%);fill-opacity:1;" d="M 29.988281 26.632812 C 29.304688 26.816406 28.855469 26.464844 28.457031 25.953125 C 28.117188 25.195312 28.367188 24.367188 28.253906 23.535156 C 28.042969 23.292969 27.863281 22.980469 27.480469 22.902344 C 27.511719 22.871094 27.539062 22.820312 27.570312 22.820312 C 27.769531 22.8125 27.964844 22.816406 28.148438 22.816406 C 28.667969 23.097656 28.84375 23.539062 28.824219 24.089844 C 28.8125 24.378906 28.820312 24.664062 28.808594 24.953125 C 28.78125 25.8125 29.199219 26.351562 29.988281 26.632812 "/>
<path style=" stroke:none;fill-rule:nonzero;fill:rgb(22.384644%,45.275879%,29.18396%);fill-opacity:1;" d="M 24.132812 35.300781 C 24.097656 35.53125 24.0625 35.757812 24.019531 36.039062 C 24.082031 36.121094 24.171875 36.238281 24.265625 36.355469 C 24.179688 36.542969 24.09375 36.730469 24.007812 36.921875 C 23.589844 37.113281 23.144531 37.214844 22.679688 37.21875 C 22.632812 36.847656 22.585938 36.480469 22.535156 36.113281 C 22.539062 36.074219 22.539062 36.035156 22.542969 35.992188 L 22.539062 35.996094 C 22.628906 35.960938 22.71875 35.921875 22.808594 35.886719 C 23.25 35.691406 23.691406 35.496094 24.132812 35.300781 "/>
<path style=" stroke:none;fill-rule:nonzero;fill:rgb(26.031494%,48.760986%,29.704285%);fill-opacity:1;" d="M 13.082031 33.171875 C 13.511719 33.46875 13.960938 33.738281 14.367188 34.058594 C 15.144531 34.675781 15.980469 35.1875 16.867188 35.621094 C 16.902344 35.640625 16.917969 35.6875 16.945312 35.71875 C 16.824219 35.996094 16.578125 35.8125 16.394531 35.863281 C 16.21875 35.820312 16.039062 35.773438 15.863281 35.726562 C 15.425781 35.429688 14.960938 35.175781 14.570312 34.832031 C 14.039062 34.363281 13.570312 33.832031 13.074219 33.328125 C 13.078125 33.277344 13.078125 33.222656 13.082031 33.171875 "/>
<path style=" stroke:none;fill-rule:nonzero;fill:rgb(74.104309%,57.330322%,10.601807%);fill-opacity:1;" d="M 24.53125 23.042969 C 24.597656 23.226562 24.660156 23.40625 24.726562 23.589844 C 24.398438 23.960938 23.96875 23.867188 23.527344 23.859375 C 23.417969 23.726562 23.308594 23.59375 23.199219 23.460938 C 23.195312 23.238281 23.195312 23.015625 23.191406 22.796875 C 23.265625 22.371094 22.980469 22.179688 22.675781 22.003906 C 22.46875 21.882812 22.257812 21.765625 21.988281 21.964844 C 21.988281 22.226562 21.988281 22.511719 21.988281 22.792969 C 21.910156 22.792969 21.835938 22.792969 21.761719 22.792969 C 21.761719 22.378906 21.761719 21.960938 21.761719 21.488281 C 22.308594 21.5625 22.816406 21.675781 23.238281 21.992188 C 23.683594 22.332031 23.890625 22.777344 23.566406 23.292969 C 23.980469 23.722656 24.109375 23.699219 24.308594 23.226562 C 24.34375 23.148438 24.457031 23.105469 24.53125 23.042969 "/>
<path style=" stroke:none;fill-rule:nonzero;fill:rgb(23.901367%,46.546936%,29.33197%);fill-opacity:1;" d="M 41.621094 27.199219 C 41.441406 27.140625 41.183594 27.328125 41.070312 27.035156 C 41.074219 26.953125 41.074219 26.871094 41.078125 26.785156 L 41.074219 26.789062 C 41.117188 26.742188 41.164062 26.699219 41.207031 26.652344 L 41.207031 26.65625 C 41.402344 26.59375 41.503906 26.464844 41.476562 26.253906 L 41.472656 26.257812 C 41.691406 26.195312 41.765625 26.042969 41.75 25.828125 C 41.921875 25.660156 42.09375 25.488281 42.269531 25.320312 C 42.363281 25.277344 42.460938 25.238281 42.554688 25.199219 C 42.722656 25.203125 42.890625 25.207031 43.054688 25.210938 C 42.976562 25.382812 42.921875 25.574219 42.8125 25.722656 C 42.449219 26.238281 42.160156 26.820312 41.621094 27.199219 "/>
<path style=" stroke:none;fill-rule:nonzero;fill:rgb(31.604004%,48.529053%,26.646423%);fill-opacity:1;" d="M 38.40625 29.335938 C 38.40625 29.484375 38.40625 29.632812 38.40625 29.816406 C 38.515625 29.835938 38.59375 29.847656 38.675781 29.859375 C 38.09375 30.199219 37.496094 30.472656 36.816406 30.523438 C 36.59375 30.523438 36.371094 30.523438 36.148438 30.523438 C 35.851562 30.46875 35.558594 30.414062 35.246094 30.359375 C 35.292969 30.3125 35.320312 30.289062 35.347656 30.261719 C 35.78125 30.203125 36.214844 30.144531 36.648438 30.085938 C 36.660156 30.082031 36.671875 30.050781 36.6875 30.035156 C 37.261719 29.800781 37.835938 29.566406 38.40625 29.335938 "/>
<path style=" stroke:none;fill-rule:nonzero;fill:rgb(75.253296%,57.197571%,10.464478%);fill-opacity:1;" d="M 35.347656 30.261719 C 35.320312 30.289062 35.292969 30.3125 35.246094 30.359375 C 35.558594 30.414062 35.851562 30.46875 36.148438 30.523438 C 36.058594 30.769531 36.335938 30.765625 36.40625 30.90625 C 36.453125 30.960938 36.5 31.015625 36.546875 31.070312 C 36.472656 31.289062 36.28125 31.160156 36.148438 31.199219 C 36.023438 31.207031 35.894531 31.21875 35.769531 31.226562 C 35.761719 31.332031 35.753906 31.398438 35.746094 31.464844 C 35.746094 31.515625 35.742188 31.5625 35.742188 31.613281 C 35.609375 31.550781 35.476562 31.484375 35.320312 31.410156 C 35.363281 31.199219 35.398438 31.015625 35.4375 30.820312 C 35.144531 30.703125 34.851562 30.582031 34.503906 30.441406 C 34.621094 30.191406 34.71875 29.980469 34.84375 29.707031 C 35.039062 29.816406 35.195312 29.902344 35.351562 29.988281 C 35.347656 30.078125 35.347656 30.171875 35.347656 30.261719 "/>
<path style=" stroke:none;fill-rule:nonzero;fill:rgb(74.427795%,56.462097%,10.598755%);fill-opacity:1;" d="M 21.761719 22.792969 C 21.835938 22.792969 21.910156 22.792969 21.988281 22.792969 C 22.09375 23.058594 22.199219 23.324219 22.300781 23.574219 C 22.460938 23.59375 22.5625 23.601562 22.667969 23.613281 C 22.796875 23.714844 22.929688 23.8125 23.097656 23.941406 C 22.519531 24.109375 22.03125 23.871094 21.53125 23.816406 C 21.410156 23.800781 21.296875 23.648438 21.199219 23.542969 C 21.101562 23.4375 21.023438 23.3125 20.9375 23.195312 C 20.941406 23.152344 20.9375 23.109375 20.929688 23.066406 C 21.027344 23.011719 21.121094 22.960938 21.21875 22.910156 C 21.386719 23.027344 21.554688 23.140625 21.722656 23.261719 C 21.734375 23.128906 21.746094 22.960938 21.761719 22.792969 "/>
<path style=" stroke:none;fill-rule:nonzero;fill:rgb(74.429321%,56.837463%,10.586548%);fill-opacity:1;" d="M 30.105469 42.171875 C 29.992188 42.023438 29.828125 41.886719 29.777344 41.71875 C 29.542969 40.964844 29.515625 40.195312 29.722656 39.425781 C 29.765625 39.574219 29.808594 39.71875 29.851562 39.867188 C 29.847656 40.003906 29.847656 40.136719 29.84375 40.273438 C 29.820312 40.292969 29.789062 40.3125 29.765625 40.335938 C 29.792969 40.355469 29.820312 40.375 29.847656 40.394531 C 29.855469 40.625 29.859375 40.855469 29.886719 41.085938 C 29.894531 41.175781 29.964844 41.261719 30.003906 41.347656 C 30.066406 41.597656 30.125 41.847656 30.1875 42.097656 C 30.160156 42.121094 30.132812 42.148438 30.105469 42.171875 "/>
<path style=" stroke:none;fill-rule:nonzero;fill:rgb(75.253296%,57.197571%,10.464478%);fill-opacity:1;" d="M 38.015625 31.121094 C 37.996094 31.179688 37.980469 31.238281 37.960938 31.304688 C 37.585938 31.304688 37.222656 31.304688 36.855469 31.304688 C 36.839844 31.222656 36.828125 31.160156 36.816406 31.097656 C 37.214844 31.105469 37.613281 31.113281 38.015625 31.121094 "/>
<path style=" stroke:none;fill-rule:nonzero;fill:rgb(74.429321%,56.837463%,10.586548%);fill-opacity:1;" d="M 39.648438 34.894531 C 40.074219 34.929688 40.410156 35.152344 40.71875 35.429688 C 40.699219 35.449219 40.679688 35.46875 40.660156 35.488281 C 40.363281 35.386719 40.066406 35.285156 39.773438 35.183594 C 39.71875 35.148438 39.664062 35.109375 39.613281 35.070312 L 39.609375 35.070312 C 39.609375 35.03125 39.605469 34.988281 39.597656 34.949219 C 39.613281 34.933594 39.632812 34.914062 39.648438 34.894531 "/>
<path style=" stroke:none;fill-rule:nonzero;fill:rgb(74.790955%,56.430054%,10.562134%);fill-opacity:1;" d="M 9.871094 26.667969 C 9.78125 26.75 9.691406 26.832031 9.605469 26.910156 C 9.382812 26.875 9.160156 26.835938 8.9375 26.796875 C 8.9375 26.710938 8.9375 26.628906 8.9375 26.542969 C 9.25 26.585938 9.558594 26.625 9.871094 26.667969 "/>
<path style=" stroke:none;fill-rule:nonzero;fill:rgb(74.429321%,56.837463%,10.586548%);fill-opacity:1;" d="M 35.347656 30.261719 C 35.347656 30.171875 35.347656 30.078125 35.351562 29.988281 C 35.796875 30.003906 36.242188 30.019531 36.6875 30.035156 C 36.671875 30.050781 36.660156 30.082031 36.648438 30.085938 C 36.214844 30.144531 35.78125 30.203125 35.347656 30.261719 "/>
<path style=" stroke:none;fill-rule:nonzero;fill:rgb(74.809265%,56.825256%,10.540771%);fill-opacity:1;" d="M 36.40625 30.90625 C 36.335938 30.765625 36.058594 30.769531 36.148438 30.523438 C 36.371094 30.523438 36.59375 30.523438 36.816406 30.523438 C 36.816406 30.648438 36.816406 30.769531 36.816406 30.894531 C 36.675781 30.898438 36.539062 30.902344 36.40625 30.90625 "/>
<path style=" stroke:none;fill-rule:nonzero;fill:rgb(74.104309%,57.330322%,10.601807%);fill-opacity:1;" d="M 25.742188 23.101562 C 25.488281 23.265625 25.226562 23.199219 24.960938 23.140625 C 24.820312 23.105469 24.675781 23.078125 24.53125 23.046875 C 24.789062 22.773438 25.097656 22.976562 25.378906 22.972656 C 25.5 22.972656 25.621094 23.058594 25.742188 23.101562 "/>
<path style=" stroke:none;fill-rule:nonzero;fill:rgb(74.104309%,57.330322%,10.601807%);fill-opacity:1;" d="M 44.914062 17.285156 C 45.019531 17.027344 45.199219 16.847656 45.46875 16.777344 L 45.515625 16.820312 C 45.429688 17.101562 45.261719 17.292969 44.960938 17.335938 C 44.945312 17.316406 44.929688 17.300781 44.914062 17.285156 "/>
<path style=" stroke:none;fill-rule:nonzero;fill:rgb(74.809265%,56.825256%,10.540771%);fill-opacity:1;" d="M 43.054688 25.210938 C 42.890625 25.207031 42.722656 25.203125 42.554688 25.199219 C 42.511719 25.195312 42.46875 25.195312 42.421875 25.195312 C 42.648438 24.90625 42.917969 24.910156 43.214844 25.070312 C 43.164062 25.117188 43.109375 25.164062 43.054688 25.210938 "/>
<path style=" stroke:none;fill-rule:nonzero;fill:rgb(74.104309%,57.330322%,10.601807%);fill-opacity:1;" d="M 45.46875 16.777344 C 45.652344 16.605469 45.835938 16.433594 46.019531 16.265625 C 46.023438 16.316406 46.027344 16.367188 46.03125 16.417969 C 46.003906 16.738281 45.773438 16.792969 45.515625 16.820312 L 45.46875 16.777344 "/>
<path style=" stroke:none;fill-rule:nonzero;fill:rgb(31.604004%,48.529053%,26.646423%);fill-opacity:1;" d="M 26.28125 24.058594 C 26.3125 23.992188 26.339844 23.925781 26.394531 23.800781 C 26.523438 23.941406 26.601562 24.03125 26.683594 24.121094 C 26.671875 24.203125 26.660156 24.285156 26.644531 24.402344 C 26.503906 24.265625 26.390625 24.164062 26.28125 24.058594 "/>
<path style=" stroke:none;fill-rule:nonzero;fill:rgb(31.604004%,48.529053%,26.646423%);fill-opacity:1;" d="M 13.082031 33.171875 C 13.078125 33.222656 13.078125 33.277344 13.074219 33.328125 C 12.933594 33.148438 12.789062 32.972656 12.648438 32.792969 C 12.90625 32.789062 13.058594 32.90625 13.082031 33.171875 "/>
<path style=" stroke:none;fill-rule:nonzero;fill:rgb(74.104309%,57.330322%,10.601807%);fill-opacity:1;" d="M 43.851562 18.089844 C 43.929688 17.828125 44.175781 17.785156 44.382812 17.691406 L 44.425781 17.734375 C 44.296875 17.933594 44.15625 18.117188 43.890625 18.128906 L 43.851562 18.089844 "/>
<path style=" stroke:none;fill-rule:nonzero;fill:rgb(74.104309%,57.330322%,10.601807%);fill-opacity:1;" d="M 11.335938 30.265625 C 11.277344 30.269531 11.21875 30.277344 11.160156 30.28125 C 10.910156 30.234375 10.960938 30.027344 10.933594 29.855469 C 10.976562 29.859375 11.023438 29.863281 11.070312 29.863281 C 11.15625 29.996094 11.246094 30.132812 11.335938 30.265625 "/>
<path style=" stroke:none;fill-rule:nonzero;fill:rgb(74.066162%,56.45752%,10.641479%);fill-opacity:1;" d="M 29.851562 39.867188 C 29.808594 39.71875 29.765625 39.574219 29.722656 39.425781 C 29.738281 39.261719 29.75 39.097656 29.765625 38.933594 C 29.800781 38.933594 29.839844 38.933594 29.878906 38.933594 C 29.882812 39.109375 29.886719 39.289062 29.886719 39.46875 C 29.875 39.601562 29.863281 39.734375 29.851562 39.867188 "/>
<path style=" stroke:none;fill-rule:nonzero;fill:rgb(74.809265%,56.825256%,10.540771%);fill-opacity:1;" d="M 15.863281 35.726562 C 16.039062 35.773438 16.21875 35.820312 16.394531 35.863281 C 16.398438 35.90625 16.40625 35.953125 16.410156 35.996094 L 16.382812 36.027344 C 16.207031 35.925781 16.035156 35.828125 15.863281 35.726562 "/>
<path style=" stroke:none;fill-rule:nonzero;fill:rgb(74.104309%,57.330322%,10.601807%);fill-opacity:1;" d="M 41.476562 26.253906 C 41.503906 26.464844 41.402344 26.59375 41.207031 26.65625 C 41.199219 26.457031 41.199219 26.261719 41.476562 26.253906 "/>
<path style=" stroke:none;fill-rule:nonzero;fill:rgb(74.104309%,57.330322%,10.601807%);fill-opacity:1;" d="M 44.382812 17.691406 C 44.421875 17.472656 44.601562 17.449219 44.773438 17.414062 L 44.820312 17.460938 C 44.6875 17.550781 44.554688 17.640625 44.425781 17.734375 L 44.382812 17.691406 "/>
<path style=" stroke:none;fill-rule:nonzero;fill:rgb(74.104309%,57.330322%,10.601807%);fill-opacity:1;" d="M 43.457031 18.359375 C 43.492188 18.132812 43.6875 18.132812 43.851562 18.089844 L 43.890625 18.128906 C 43.753906 18.21875 43.621094 18.304688 43.488281 18.394531 L 43.457031 18.359375 "/>
<path style=" stroke:none;fill-rule:nonzero;fill:rgb(74.104309%,57.330322%,10.601807%);fill-opacity:1;" d="M 41.078125 26.785156 C 41.074219 26.871094 41.074219 26.953125 41.070312 27.035156 C 40.984375 27.046875 40.902344 27.058594 40.816406 27.066406 C 40.816406 26.890625 40.882812 26.78125 41.078125 26.785156 "/>
<path style=" stroke:none;fill-rule:nonzero;fill:rgb(74.104309%,57.330322%,10.601807%);fill-opacity:1;" d="M 41.75 25.828125 C 41.765625 26.042969 41.691406 26.195312 41.472656 26.257812 C 41.457031 26.042969 41.589844 25.925781 41.75 25.828125 "/>
<path style=" stroke:none;fill-rule:nonzero;fill:rgb(74.104309%,57.330322%,10.601807%);fill-opacity:1;" d="M 28.402344 27.332031 C 28.585938 27.398438 28.710938 27.511719 28.683594 27.726562 C 28.496094 27.664062 28.390625 27.539062 28.402344 27.332031 "/>
<path style=" stroke:none;fill-rule:nonzero;fill:rgb(74.104309%,57.330322%,10.601807%);fill-opacity:1;" d="M 43.328125 18.648438 C 43.242188 18.648438 43.160156 18.652344 43.074219 18.65625 C 43.203125 18.554688 43.328125 18.460938 43.457031 18.359375 L 43.488281 18.394531 C 43.433594 18.480469 43.382812 18.5625 43.328125 18.648438 "/>
<path style=" stroke:none;fill-rule:nonzero;fill:rgb(74.104309%,57.330322%,10.601807%);fill-opacity:1;" d="M 28.9375 27.871094 C 29.03125 27.910156 29.128906 27.949219 29.222656 27.988281 C 29.175781 28.035156 29.128906 28.078125 29.082031 28.121094 C 29.03125 28.035156 28.984375 27.953125 28.9375 27.871094 "/>
<path style=" stroke:none;fill-rule:nonzero;fill:rgb(74.809265%,56.825256%,10.540771%);fill-opacity:1;" d="M 22.808594 35.886719 C 22.71875 35.921875 22.628906 35.960938 22.539062 35.996094 C 22.628906 35.960938 22.71875 35.921875 22.808594 35.886719 "/>
<path style=" stroke:none;fill-rule:nonzero;fill:rgb(74.104309%,57.330322%,10.601807%);fill-opacity:1;" d="M 43.082031 18.648438 C 42.992188 18.699219 42.90625 18.746094 42.816406 18.796875 C 42.90625 18.746094 42.992188 18.699219 43.082031 18.648438 "/>
<path style=" stroke:none;fill-rule:nonzero;fill:rgb(74.429321%,56.837463%,10.586548%);fill-opacity:1;" d="M 42.421875 25.195312 C 42.46875 25.195312 42.511719 25.195312 42.554688 25.199219 C 42.460938 25.238281 42.363281 25.277344 42.269531 25.320312 C 42.320312 25.277344 42.371094 25.234375 42.421875 25.195312 "/>
<path style=" stroke:none;fill-rule:nonzero;fill:rgb(74.104309%,57.330322%,10.601807%);fill-opacity:1;" d="M 40.820312 27.0625 C 40.769531 27.148438 40.71875 27.234375 40.667969 27.320312 C 40.71875 27.234375 40.769531 27.148438 40.820312 27.0625 "/>
<path style=" stroke:none;fill-rule:nonzero;fill:rgb(74.104309%,57.330322%,10.601807%);fill-opacity:1;" d="M 28.679688 27.722656 C 28.796875 27.71875 28.925781 27.6875 28.9375 27.871094 C 28.804688 27.902344 28.703125 27.882812 28.679688 27.722656 "/>
<path style=" stroke:none;fill-rule:nonzero;fill:rgb(31.604004%,48.529053%,26.646423%);fill-opacity:1;" d="M 38.808594 29.066406 C 38.734375 29.109375 38.65625 29.15625 38.582031 29.199219 C 38.65625 29.15625 38.734375 29.109375 38.808594 29.066406 "/>
<path style=" stroke:none;fill-rule:nonzero;fill:rgb(74.104309%,57.330322%,10.601807%);fill-opacity:1;" d="M 42.414062 19.050781 C 42.324219 19.101562 42.234375 19.148438 42.144531 19.199219 C 42.234375 19.148438 42.324219 19.101562 42.414062 19.050781 "/>
<path style=" stroke:none;fill-rule:nonzero;fill:rgb(74.104309%,57.330322%,10.601807%);fill-opacity:1;" d="M 42.675781 18.910156 C 42.585938 18.960938 42.496094 19.007812 42.410156 19.054688 C 42.496094 19.007812 42.585938 18.960938 42.675781 18.910156 "/>
<path style=" stroke:none;fill-rule:nonzero;fill:rgb(85.244751%,77.967834%,52.445984%);fill-opacity:1;" d="M 10.929688 29.738281 C 10.894531 29.714844 10.863281 29.6875 10.828125 29.660156 C 10.84375 29.648438 10.855469 29.636719 10.871094 29.621094 C 10.894531 29.65625 10.921875 29.691406 10.945312 29.722656 L 10.929688 29.738281 "/>
<path style=" stroke:none;fill-rule:nonzero;fill:rgb(85.244751%,77.967834%,52.445984%);fill-opacity:1;" d="M 11.070312 29.863281 C 11.023438 29.863281 10.976562 29.859375 10.933594 29.855469 C 10.925781 29.816406 10.925781 29.777344 10.929688 29.738281 L 10.945312 29.722656 C 10.988281 29.769531 11.027344 29.816406 11.070312 29.863281 "/>
<path style=" stroke:none;fill-rule:nonzero;fill:rgb(74.104309%,57.330322%,10.601807%);fill-opacity:1;" d="M 40.542969 27.453125 C 40.492188 27.5 40.445312 27.546875 40.394531 27.59375 C 40.445312 27.546875 40.492188 27.5 40.542969 27.453125 "/>
<path style=" stroke:none;fill-rule:nonzero;fill:rgb(31.604004%,48.529053%,26.646423%);fill-opacity:1;" d="M 38.542969 29.226562 C 38.503906 29.257812 38.464844 29.289062 38.421875 29.324219 C 38.464844 29.289062 38.503906 29.257812 38.542969 29.226562 "/>
<path style=" stroke:none;fill-rule:nonzero;fill:rgb(74.809265%,56.825256%,10.540771%);fill-opacity:1;" d="M 16.535156 36.136719 C 16.484375 36.097656 16.433594 36.0625 16.382812 36.027344 L 16.410156 35.996094 C 16.460938 36.035156 16.507812 36.074219 16.558594 36.109375 L 16.535156 36.136719 "/>
<path style=" stroke:none;fill-rule:nonzero;fill:rgb(74.104309%,57.330322%,10.601807%);fill-opacity:1;" d="M 42.820312 18.789062 C 42.773438 18.832031 42.722656 18.875 42.671875 18.917969 C 42.722656 18.875 42.773438 18.832031 42.820312 18.789062 "/>
<path style=" stroke:none;fill-rule:nonzero;fill:rgb(74.104309%,57.330322%,10.601807%);fill-opacity:1;" d="M 40.671875 27.316406 C 40.628906 27.363281 40.585938 27.410156 40.539062 27.457031 C 40.585938 27.410156 40.628906 27.363281 40.671875 27.316406 "/>
<path style=" stroke:none;fill-rule:nonzero;fill:rgb(85.244751%,77.967834%,52.445984%);fill-opacity:1;" d="M 26.726562 27.367188 C 26.738281 27.367188 26.753906 27.367188 26.765625 27.367188 C 26.757812 27.394531 26.75 27.421875 26.742188 27.453125 C 26.730469 27.4375 26.714844 27.425781 26.707031 27.40625 C 26.703125 27.398438 26.71875 27.382812 26.726562 27.367188 "/>
<path style=" stroke:none;fill-rule:nonzero;fill:rgb(74.104309%,57.330322%,10.601807%);fill-opacity:1;" d="M 41.207031 26.652344 C 41.164062 26.699219 41.117188 26.742188 41.074219 26.789062 C 41.117188 26.742188 41.164062 26.699219 41.207031 26.652344 "/>
<path style=" stroke:none;fill-rule:nonzero;fill:rgb(74.104309%,57.330322%,10.601807%);fill-opacity:1;" d="M 28.28125 27.183594 C 28.324219 27.234375 28.363281 27.285156 28.40625 27.339844 C 28.363281 27.285156 28.324219 27.234375 28.28125 27.183594 "/>
<path style=" stroke:none;fill-rule:nonzero;fill:rgb(31.604004%,48.529053%,26.646423%);fill-opacity:1;" d="M 31.214844 26.128906 C 31.160156 26.167969 31.105469 26.207031 31.054688 26.246094 C 31.105469 26.207031 31.160156 26.167969 31.214844 26.128906 "/>
<path style=" stroke:none;fill-rule:nonzero;fill:rgb(74.104309%,57.330322%,10.601807%);fill-opacity:1;" d="M 44.773438 17.414062 C 44.820312 17.371094 44.867188 17.328125 44.914062 17.285156 C 44.929688 17.300781 44.945312 17.316406 44.960938 17.335938 C 44.910156 17.375 44.863281 17.417969 44.820312 17.460938 L 44.773438 17.414062 "/>
<path style=" stroke:none;fill-rule:nonzero;fill:rgb(74.790955%,56.430054%,10.562134%);fill-opacity:1;" d="M 46.03125 16.417969 C 46.027344 16.367188 46.023438 16.316406 46.019531 16.265625 C 46.046875 16.242188 46.082031 16.226562 46.113281 16.214844 C 46.132812 16.234375 46.152344 16.257812 46.167969 16.273438 C 46.164062 16.316406 46.160156 16.355469 46.167969 16.394531 C 46.121094 16.402344 46.078125 16.410156 46.03125 16.417969 "/>
<path style=" stroke:none;fill-rule:nonzero;fill:rgb(74.429321%,56.837463%,10.586548%);fill-opacity:1;" d="M 34.234375 41.691406 C 34.28125 41.644531 34.324219 41.597656 34.367188 41.550781 C 34.390625 41.574219 34.410156 41.597656 34.429688 41.621094 C 34.390625 41.664062 34.34375 41.710938 34.300781 41.753906 C 34.28125 41.730469 34.257812 41.710938 34.234375 41.691406 "/>
<path style=" stroke:none;fill-rule:nonzero;fill:rgb(74.429321%,56.837463%,10.586548%);fill-opacity:1;" d="M 30.230469 42.316406 C 30.191406 42.265625 30.148438 42.21875 30.105469 42.171875 C 30.132812 42.148438 30.160156 42.121094 30.1875 42.097656 C 30.230469 42.140625 30.273438 42.1875 30.316406 42.230469 C 30.285156 42.261719 30.257812 42.285156 30.230469 42.316406 "/>
<path style=" stroke:none;fill-rule:nonzero;fill:rgb(74.429321%,56.837463%,10.586548%);fill-opacity:1;" d="M 30.363281 42.449219 C 30.320312 42.40625 30.277344 42.359375 30.230469 42.316406 C 30.257812 42.285156 30.285156 42.261719 30.316406 42.230469 C 30.359375 42.277344 30.402344 42.316406 30.449219 42.359375 C 30.421875 42.390625 30.394531 42.421875 30.363281 42.449219 "/>
<path style=" stroke:none;fill-rule:nonzero;fill:rgb(92.405701%,92.312622%,91.966248%);fill-opacity:1;" d="M 11.875 14.128906 C 11.828125 14.082031 11.78125 14.03125 11.734375 13.984375 C 11.78125 14.03125 11.828125 14.082031 11.875 14.128906 "/>
<path style=" stroke:none;fill-rule:nonzero;fill:rgb(14.068604%,24.636841%,14.399719%);fill-opacity:1;" d="M 30.449219 42.359375 C 30.402344 42.316406 30.359375 42.277344 30.316406 42.230469 C 30.273438 42.1875 30.230469 42.140625 30.1875 42.097656 C 30.125 41.847656 30.066406 41.597656 30.003906 41.347656 C 30.050781 41.253906 30.097656 41.160156 30.144531 41.070312 C 30.332031 41.425781 30.347656 41.890625 30.800781 42.136719 C 31.410156 42.210938 32.148438 41.890625 32.65625 42.609375 C 32.90625 42.355469 33.105469 42.15625 33.378906 41.878906 C 33.433594 42.105469 33.449219 42.226562 33.488281 42.335938 C 33.535156 42.453125 33.605469 42.558594 33.667969 42.675781 C 34.183594 42.546875 34.152344 42.089844 34.300781 41.753906 C 34.34375 41.710938 34.390625 41.664062 34.429688 41.621094 C 34.566406 41.613281 34.695312 41.609375 34.820312 41.605469 C 35.097656 41.792969 35.367188 41.972656 35.667969 42.179688 C 35.933594 41.644531 36.40625 41.449219 36.90625 41.273438 C 37.1875 41.175781 37.433594 40.96875 37.699219 40.824219 C 38.101562 40.601562 38.304688 40.273438 38.296875 39.808594 C 38.296875 39.734375 38.363281 39.664062 38.398438 39.59375 C 38.65625 39.59375 38.914062 39.59375 39.28125 39.59375 C 39.117188 39.695312 39.050781 39.738281 38.988281 39.78125 C 39.015625 39.839844 39.042969 39.898438 39.070312 39.957031 C 39.007812 39.976562 38.945312 39.996094 38.851562 40.023438 C 38.710938 40.828125 38.179688 41.34375 37.484375 41.726562 C 37.347656 41.773438 37.214844 41.820312 37.078125 41.863281 C 36.445312 42.007812 35.945312 42.371094 35.457031 42.859375 C 35.304688 42.753906 35.164062 42.664062 35.039062 42.558594 C 34.894531 42.433594 34.757812 42.292969 34.617188 42.164062 C 34.613281 42.160156 34.578125 42.175781 34.566406 42.191406 C 34.550781 42.207031 34.546875 42.230469 34.539062 42.25 C 34.34375 42.34375 34.433594 42.519531 34.425781 42.664062 C 34.359375 42.78125 34.292969 42.894531 34.230469 43.003906 C 33.757812 43.195312 33.429688 42.90625 33.070312 42.632812 C 32.925781 42.785156 32.800781 42.921875 32.648438 43.089844 C 32.476562 43.007812 32.289062 42.9375 32.132812 42.832031 C 31.828125 42.632812 31.503906 42.542969 31.144531 42.523438 C 30.910156 42.507812 30.679688 42.417969 30.449219 42.359375 "/>
<path style=" stroke:none;fill-rule:nonzero;fill:rgb(16.073608%,38.574219%,22.250366%);fill-opacity:1;" d="M 39.773438 35.183594 C 40.066406 35.285156 40.363281 35.386719 40.660156 35.488281 C 40.667969 35.527344 40.679688 35.566406 40.699219 35.601562 C 40.699219 35.6875 40.703125 35.773438 40.707031 35.859375 C 40.648438 35.988281 40.59375 36.113281 40.535156 36.238281 C 40.316406 36.433594 40.46875 36.695312 40.425781 36.917969 C 40.425781 37.191406 40.425781 37.464844 40.425781 37.738281 L 40.421875 37.738281 C 40.378906 37.738281 40.332031 37.738281 40.285156 37.738281 C 40.234375 37.644531 40.183594 37.550781 40.132812 37.460938 C 40.234375 36.976562 40.078125 36.617188 39.65625 36.355469 C 39.445312 36.226562 39.265625 36.042969 38.96875 35.800781 C 39.347656 35.761719 39.59375 35.738281 39.929688 35.707031 C 39.695312 35.507812 39.519531 35.355469 39.34375 35.210938 C 39.429688 35.160156 39.519531 35.117188 39.609375 35.070312 L 39.613281 35.070312 C 39.664062 35.109375 39.71875 35.148438 39.773438 35.183594 "/>
<path style=" stroke:none;fill-rule:nonzero;fill:rgb(15.400696%,34.335327%,19.485474%);fill-opacity:1;" d="M 40.132812 37.460938 C 40.183594 37.550781 40.234375 37.644531 40.285156 37.738281 C 40.285156 37.867188 40.28125 38 40.28125 38.132812 C 40.148438 38.261719 40.011719 38.394531 39.878906 38.523438 C 39.835938 38.609375 39.765625 38.691406 39.761719 38.777344 C 39.738281 39.09375 39.738281 39.410156 39.730469 39.726562 C 39.511719 39.804688 39.289062 39.878906 39.070312 39.957031 C 39.042969 39.898438 39.015625 39.839844 38.988281 39.78125 C 39.050781 39.738281 39.117188 39.695312 39.28125 39.59375 C 38.914062 39.59375 38.65625 39.59375 38.398438 39.59375 C 38.597656 39.332031 38.890625 39.539062 39.199219 39.40625 C 39.261719 39.339844 39.378906 39.214844 39.507812 39.078125 C 39.367188 38.652344 39.230469 38.246094 39.074219 37.777344 C 39.316406 37.761719 39.539062 37.742188 39.789062 37.722656 C 39.894531 37.644531 40.011719 37.550781 40.132812 37.460938 "/>
<path style=" stroke:none;fill-rule:nonzero;fill:rgb(74.066162%,56.45752%,10.641479%);fill-opacity:1;" d="M 39.730469 39.726562 C 39.738281 39.410156 39.738281 39.09375 39.761719 38.777344 C 39.765625 38.691406 39.835938 38.609375 39.878906 38.523438 C 39.878906 38.847656 39.890625 39.171875 39.875 39.496094 C 39.871094 39.574219 39.78125 39.652344 39.730469 39.726562 "/>
<path style=" stroke:none;fill-rule:nonzero;fill:rgb(31.604004%,48.529053%,26.646423%);fill-opacity:1;" d="M 40.425781 37.738281 C 40.425781 37.464844 40.425781 37.191406 40.425781 36.917969 C 40.46875 36.925781 40.507812 36.933594 40.542969 36.941406 C 40.488281 37.207031 40.667969 37.503906 40.425781 37.738281 "/>
<path style=" stroke:none;fill-rule:nonzero;fill:rgb(74.066162%,56.45752%,10.641479%);fill-opacity:1;" d="M 40.542969 36.941406 C 40.507812 36.933594 40.46875 36.925781 40.425781 36.917969 C 40.46875 36.695312 40.316406 36.433594 40.535156 36.238281 C 40.539062 36.472656 40.542969 36.707031 40.542969 36.941406 "/>
<path style=" stroke:none;fill-rule:nonzero;fill:rgb(23.625183%,37.820435%,24.94812%);fill-opacity:1;" d="M 40.28125 38.132812 C 40.28125 38 40.285156 37.867188 40.285156 37.738281 C 40.332031 37.738281 40.378906 37.738281 40.421875 37.738281 C 40.425781 37.777344 40.425781 37.816406 40.421875 37.855469 C 40.417969 37.902344 40.414062 37.945312 40.410156 37.988281 C 40.367188 38.035156 40.324219 38.085938 40.28125 38.132812 "/>
<path style=" stroke:none;fill-rule:nonzero;fill:rgb(74.066162%,56.45752%,10.641479%);fill-opacity:1;" d="M 37.078125 41.863281 C 37.214844 41.820312 37.347656 41.773438 37.484375 41.726562 C 37.414062 41.964844 37.21875 41.832031 37.078125 41.863281 "/>
<path style=" stroke:none;fill-rule:nonzero;fill:rgb(74.066162%,56.45752%,10.641479%);fill-opacity:1;" d="M 34.425781 42.664062 C 34.433594 42.519531 34.34375 42.34375 34.539062 42.25 C 34.515625 42.394531 34.644531 42.578125 34.425781 42.664062 "/>
<path style=" stroke:none;fill-rule:nonzero;fill:rgb(74.066162%,56.45752%,10.641479%);fill-opacity:1;" d="M 40.707031 35.859375 C 40.703125 35.773438 40.699219 35.6875 40.699219 35.601562 C 40.859375 35.683594 40.867188 35.769531 40.707031 35.859375 "/>
<path style=" stroke:none;fill-rule:nonzero;fill:rgb(31.604004%,48.529053%,26.646423%);fill-opacity:1;" d="M 40.410156 37.988281 C 40.414062 37.945312 40.417969 37.902344 40.421875 37.855469 C 40.453125 37.882812 40.484375 37.90625 40.519531 37.933594 C 40.484375 37.953125 40.449219 37.96875 40.410156 37.988281 "/>
<path style=" stroke:none;fill-rule:nonzero;fill:rgb(21.786499%,32.76062%,21.688843%);fill-opacity:1;" d="M 44.148438 27.183594 C 44.90625 26.210938 45.667969 25.238281 46.425781 24.265625 C 46.65625 24.234375 46.890625 24.207031 47.175781 24.171875 C 47.289062 24.226562 47.460938 24.316406 47.636719 24.402344 C 47.632812 24.445312 47.621094 24.488281 47.605469 24.53125 C 47.566406 24.574219 47.527344 24.617188 47.484375 24.660156 C 46.6875 25.84375 45.777344 26.925781 44.707031 27.875 C 44.515625 27.765625 44.324219 27.65625 44.148438 27.558594 C 44.148438 27.394531 44.148438 27.289062 44.148438 27.183594 "/>
<path style=" stroke:none;fill-rule:nonzero;fill:rgb(23.901367%,46.546936%,29.33197%);fill-opacity:1;" d="M 36.148438 31.332031 C 36.601562 31.375 37.058594 31.464844 37.511719 31.460938 C 39.003906 31.445312 40.308594 30.902344 41.457031 29.964844 C 41.675781 29.785156 41.910156 29.625 42.136719 29.457031 C 42.347656 29.515625 42.421875 29.667969 42.429688 29.875 L 42.425781 29.871094 C 42.242188 29.886719 42.292969 30.027344 42.285156 30.140625 C 41.421875 30.933594 40.394531 31.425781 39.273438 31.71875 C 38.234375 31.992188 37.207031 31.929688 36.214844 31.484375 C 36.160156 31.460938 36.085938 31.46875 36.019531 31.460938 C 36.0625 31.417969 36.105469 31.375 36.148438 31.332031 "/>
<path style=" stroke:none;fill-rule:nonzero;fill:rgb(21.432495%,38.395691%,25.257874%);fill-opacity:1;" d="M 47.636719 24.402344 C 47.460938 24.316406 47.289062 24.226562 47.175781 24.171875 C 46.890625 24.207031 46.65625 24.234375 46.425781 24.265625 C 47.085938 23.371094 47.746094 22.476562 48.40625 21.585938 C 48.511719 21.585938 48.613281 21.585938 48.667969 21.585938 C 48.832031 21.746094 48.960938 21.871094 49.089844 21.996094 C 48.738281 22.632812 48.394531 23.273438 48.03125 23.90625 C 47.925781 24.085938 47.769531 24.238281 47.636719 24.402344 "/>
<path style=" stroke:none;fill-rule:nonzero;fill:rgb(21.432495%,38.395691%,25.257874%);fill-opacity:1;" d="M 42.429688 29.875 C 42.421875 29.667969 42.347656 29.515625 42.136719 29.457031 C 42.804688 28.699219 43.476562 27.941406 44.148438 27.183594 C 44.148438 27.289062 44.148438 27.394531 44.148438 27.558594 C 44.324219 27.65625 44.515625 27.765625 44.707031 27.875 C 44.632812 28 44.578125 28.152344 44.472656 28.25 C 43.957031 28.742188 43.429688 29.230469 42.890625 29.703125 C 42.777344 29.800781 42.585938 29.820312 42.429688 29.875 "/>
<path style=" stroke:none;fill-rule:nonzero;fill:rgb(23.901367%,46.546936%,29.33197%);fill-opacity:1;" d="M 49.089844 21.996094 C 48.960938 21.871094 48.832031 21.746094 48.667969 21.585938 C 48.613281 21.585938 48.511719 21.585938 48.40625 21.585938 C 48.835938 20.875 49.273438 20.171875 49.695312 19.453125 C 49.949219 19.019531 50.175781 18.570312 50.417969 18.128906 C 50.5 17.980469 50.601562 17.839844 50.691406 17.695312 L 50.714844 17.710938 C 50.570312 18.664062 50.199219 19.546875 49.859375 20.433594 C 49.65625 20.972656 49.351562 21.476562 49.089844 21.996094 "/>
<path style=" stroke:none;fill-rule:nonzero;fill:rgb(74.104309%,57.330322%,10.601807%);fill-opacity:1;" d="M 50.691406 17.695312 C 50.703125 17.535156 50.714844 17.371094 50.722656 17.210938 C 50.761719 17.203125 50.796875 17.195312 50.835938 17.1875 C 50.859375 17.261719 50.929688 17.347656 50.910156 17.40625 C 50.871094 17.515625 50.78125 17.609375 50.714844 17.710938 L 50.691406 17.695312 "/>
<path style=" stroke:none;fill-rule:nonzero;fill:rgb(74.429321%,56.837463%,10.586548%);fill-opacity:1;" d="M 36.148438 31.332031 C 36.105469 31.375 36.0625 31.417969 36.019531 31.460938 C 35.929688 31.460938 35.839844 31.464844 35.746094 31.464844 C 35.753906 31.398438 35.761719 31.332031 35.769531 31.226562 C 35.894531 31.21875 36.023438 31.207031 36.148438 31.199219 C 36.148438 31.242188 36.148438 31.285156 36.148438 31.332031 "/>
<path style=" stroke:none;fill-rule:nonzero;fill:rgb(21.432495%,38.395691%,25.257874%);fill-opacity:1;" d="M 42.285156 30.140625 C 42.292969 30.027344 42.242188 29.886719 42.425781 29.871094 C 42.382812 29.960938 42.335938 30.050781 42.285156 30.140625 "/>
<path style=" stroke:none;fill-rule:nonzero;fill:rgb(21.432495%,38.395691%,25.257874%);fill-opacity:1;" d="M 47.484375 24.660156 C 47.527344 24.617188 47.566406 24.574219 47.605469 24.53125 C 47.566406 24.574219 47.527344 24.617188 47.484375 24.660156 "/>
<path style=" stroke:none;fill-rule:nonzero;fill:rgb(21.786499%,32.76062%,21.688843%);fill-opacity:1;" d="M 13.488281 27.988281 C 13.714844 28.058594 13.941406 28.125 14.164062 28.207031 C 14.691406 28.398438 15.226562 28.578125 15.746094 28.800781 C 16.476562 29.117188 17.246094 29.066406 18.011719 29.074219 C 18.1875 29.074219 18.363281 29.082031 18.539062 29.085938 C 18.476562 29.410156 18.417969 29.738281 18.34375 30.121094 C 18.21875 30.195312 18.046875 30.289062 17.875 30.386719 C 17.121094 30.402344 16.429688 30.132812 15.726562 29.917969 C 15.644531 29.894531 15.558594 29.882812 15.472656 29.863281 C 14.804688 29.554688 14.140625 29.25 13.476562 28.941406 C 13.417969 28.914062 13.375 28.863281 13.324219 28.824219 C 13.332031 28.628906 13.320312 28.429688 13.34375 28.234375 C 13.355469 28.148438 13.4375 28.070312 13.488281 27.988281 "/>
<path style=" stroke:none;fill-rule:nonzero;fill:rgb(22.384644%,45.275879%,29.18396%);fill-opacity:1;" d="M 20.691406 28.800781 C 21.898438 28.816406 23.109375 28.730469 24.199219 28.847656 C 24.980469 29.511719 25.011719 29.59375 24.878906 30.652344 C 24.59375 30.5625 24.3125 30.476562 24.035156 30.390625 C 23.410156 30.191406 22.773438 30.265625 22.136719 30.257812 C 21.871094 30.253906 21.605469 30.253906 21.34375 30.253906 C 21.335938 29.820312 21.359375 29.382812 21.320312 28.925781 C 21.0625 28.925781 20.863281 28.925781 20.664062 28.925781 C 20.671875 28.882812 20.683594 28.84375 20.691406 28.800781 "/>
<path style=" stroke:none;fill-rule:nonzero;fill:rgb(21.432495%,38.395691%,25.257874%);fill-opacity:1;" d="M 20.664062 28.925781 C 20.863281 28.925781 21.0625 28.925781 21.320312 28.925781 C 21.359375 29.382812 21.335938 29.820312 21.34375 30.253906 C 21.253906 30.257812 21.164062 30.261719 21.078125 30.269531 C 21.042969 30.21875 21.011719 30.171875 20.960938 30.101562 C 20.8125 30.199219 20.679688 30.285156 20.546875 30.371094 C 20.367188 30.378906 20.1875 30.386719 20.007812 30.394531 C 19.992188 30.363281 19.976562 30.332031 19.960938 30.300781 C 19.933594 30.332031 19.902344 30.363281 19.875 30.398438 C 19.207031 30.394531 18.542969 30.390625 17.875 30.386719 C 18.046875 30.289062 18.21875 30.195312 18.34375 30.121094 C 18.417969 29.738281 18.476562 29.410156 18.539062 29.085938 C 19.03125 29.027344 19.519531 28.96875 20.007812 28.910156 C 20.1875 28.90625 20.367188 28.902344 20.546875 28.898438 C 20.582031 28.914062 20.621094 28.925781 20.664062 28.925781 "/>
<path style=" stroke:none;fill-rule:nonzero;fill:rgb(16.073608%,38.574219%,22.250366%);fill-opacity:1;" d="M 25.484375 29.863281 C 25.660156 29.574219 25.625 29.167969 26.03125 28.902344 C 25.9375 29.652344 26.078125 30.308594 26.289062 30.953125 C 26.40625 31.304688 26.570312 31.640625 26.710938 31.980469 C 26.527344 31.984375 26.375 32.023438 26.410156 32.265625 C 25.941406 31.769531 25.703125 31.152344 25.507812 30.515625 C 25.5 30.296875 25.492188 30.082031 25.484375 29.863281 "/>
<path style=" stroke:none;fill-rule:nonzero;fill:rgb(15.400696%,34.335327%,19.485474%);fill-opacity:1;" d="M 26.410156 32.265625 C 26.375 32.023438 26.527344 31.984375 26.710938 31.980469 C 26.773438 32.039062 26.855469 32.089844 26.898438 32.15625 C 27.371094 32.929688 28.007812 33.554688 28.652344 34.175781 C 28.738281 34.261719 28.777344 34.394531 28.835938 34.503906 L 28.796875 34.546875 C 28.464844 34.308594 28.101562 34.101562 27.804688 33.828125 C 27.289062 33.355469 26.757812 32.890625 26.410156 32.265625 "/>
<path style=" stroke:none;fill-rule:nonzero;fill:rgb(85.244751%,77.967834%,52.445984%);fill-opacity:1;" d="M 25.484375 29.863281 C 25.492188 30.082031 25.5 30.296875 25.507812 30.515625 C 25.5 30.664062 25.507812 30.816406 25.476562 30.960938 C 25.460938 31.046875 25.382812 31.121094 25.335938 31.203125 L 25.339844 31.207031 C 25.316406 31.015625 25.3125 30.824219 25.261719 30.644531 C 25.175781 30.328125 25.21875 30.070312 25.484375 29.863281 "/>
<path style=" stroke:none;fill-rule:nonzero;fill:rgb(22.384644%,45.275879%,29.18396%);fill-opacity:1;" d="M 20.546875 30.371094 C 20.679688 30.285156 20.8125 30.199219 20.960938 30.101562 C 21.011719 30.171875 21.042969 30.21875 21.078125 30.269531 C 20.941406 30.5 20.726562 30.347656 20.546875 30.371094 "/>
<path style=" stroke:none;fill-rule:nonzero;fill:rgb(15.400696%,34.335327%,19.485474%);fill-opacity:1;" d="M 28.835938 34.503906 C 28.960938 34.558594 29.085938 34.613281 29.210938 34.671875 C 29.207031 34.722656 29.207031 34.777344 29.207031 34.828125 C 29.070312 34.734375 28.933594 34.640625 28.796875 34.546875 L 28.835938 34.503906 "/>
<path style=" stroke:none;fill-rule:nonzero;fill:rgb(23.625183%,37.820435%,24.94812%);fill-opacity:1;" d="M 29.742188 35.203125 C 29.5625 35.210938 29.457031 35.140625 29.464844 34.945312 L 29.484375 34.921875 C 29.660156 34.925781 29.765625 35 29.75 35.191406 L 29.742188 35.203125 "/>
<path style=" stroke:none;fill-rule:nonzero;fill:rgb(23.625183%,37.820435%,24.94812%);fill-opacity:1;" d="M 30.148438 35.460938 C 29.949219 35.472656 29.808594 35.394531 29.742188 35.203125 L 29.75 35.191406 C 29.957031 35.179688 30.085938 35.269531 30.144531 35.46875 L 30.148438 35.460938 "/>
<path style=" stroke:none;fill-rule:nonzero;fill:rgb(23.625183%,37.820435%,24.94812%);fill-opacity:1;" d="M 29.207031 34.828125 C 29.207031 34.777344 29.207031 34.722656 29.210938 34.671875 C 29.300781 34.757812 29.394531 34.839844 29.484375 34.921875 L 29.464844 34.945312 C 29.378906 34.90625 29.292969 34.867188 29.207031 34.828125 "/>
<path style=" stroke:none;fill-rule:nonzero;fill:rgb(31.604004%,48.529053%,26.646423%);fill-opacity:1;" d="M 30.144531 35.46875 C 30.230469 35.511719 30.320312 35.554688 30.410156 35.601562 L 30.414062 35.59375 C 30.324219 35.550781 30.234375 35.507812 30.148438 35.460938 L 30.144531 35.46875 "/>
<path style=" stroke:none;fill-rule:nonzero;fill:rgb(74.104309%,57.330322%,10.601807%);fill-opacity:1;" d="M 20.664062 28.925781 C 20.621094 28.925781 20.582031 28.914062 20.546875 28.898438 C 20.59375 28.867188 20.644531 28.835938 20.691406 28.800781 C 20.683594 28.84375 20.671875 28.882812 20.664062 28.925781 "/>
<path style=" stroke:none;fill-rule:nonzero;fill:rgb(31.604004%,48.529053%,26.646423%);fill-opacity:1;" d="M 30.410156 35.601562 C 30.445312 35.621094 30.480469 35.640625 30.421875 35.605469 C 30.457031 35.660156 30.433594 35.628906 30.414062 35.59375 L 30.410156 35.601562 "/>
<path style=" stroke:none;fill-rule:nonzero;fill:rgb(22.384644%,45.275879%,29.18396%);fill-opacity:1;" d="M 19.875 30.398438 C 19.902344 30.363281 19.933594 30.332031 19.960938 30.300781 C 19.976562 30.332031 19.992188 30.363281 20.007812 30.394531 L 19.941406 30.402344 L 19.875 30.398438 "/>
<path style=" stroke:none;fill-rule:nonzero;fill:rgb(22.384644%,45.275879%,29.18396%);fill-opacity:1;" d="M 46.03125 16.417969 C 46.078125 16.410156 46.121094 16.402344 46.167969 16.394531 C 46.359375 16.371094 46.433594 16.460938 46.417969 16.644531 C 45.609375 17.472656 44.808594 18.300781 43.996094 19.121094 C 43.945312 19.175781 43.839844 19.183594 43.761719 19.214844 C 43.730469 18.742188 43.730469 18.738281 43.328125 18.648438 C 43.382812 18.5625 43.433594 18.480469 43.488281 18.394531 C 43.621094 18.304688 43.753906 18.21875 43.890625 18.128906 C 44.15625 18.117188 44.296875 17.933594 44.425781 17.734375 C 44.554688 17.640625 44.6875 17.550781 44.820312 17.460938 C 44.863281 17.417969 44.910156 17.375 44.960938 17.335938 C 45.261719 17.292969 45.429688 17.101562 45.515625 16.820312 C 45.773438 16.792969 46.003906 16.738281 46.03125 16.417969 "/>
<path style=" stroke:none;fill-rule:nonzero;fill:rgb(26.031494%,48.760986%,29.704285%);fill-opacity:1;" d="M 46.417969 16.644531 C 46.433594 16.460938 46.359375 16.371094 46.167969 16.394531 C 46.160156 16.355469 46.164062 16.316406 46.167969 16.273438 C 46.296875 16.203125 46.421875 16.128906 46.550781 16.054688 C 46.679688 15.980469 46.808594 15.910156 46.933594 15.839844 L 46.964844 15.871094 C 46.78125 16.128906 46.597656 16.386719 46.417969 16.644531 "/>
<path style=" stroke:none;fill-rule:nonzero;fill:rgb(31.604004%,48.529053%,26.646423%);fill-opacity:1;" d="M 47.21875 15.464844 C 47.265625 15.417969 47.308594 15.371094 47.355469 15.328125 L 47.347656 15.320312 C 47.304688 15.410156 47.261719 15.5 47.21875 15.589844 C 47.21875 15.546875 47.21875 15.507812 47.21875 15.464844 "/>
<path style=" stroke:none;fill-rule:nonzero;fill:rgb(26.031494%,48.760986%,29.704285%);fill-opacity:1;" d="M 47.21875 15.464844 C 47.21875 15.507812 47.21875 15.546875 47.21875 15.589844 C 47.175781 15.636719 47.132812 15.683594 47.089844 15.730469 L 47.078125 15.71875 C 47.125 15.632812 47.171875 15.550781 47.21875 15.464844 "/>
<path style=" stroke:none;fill-rule:nonzero;fill:rgb(31.604004%,48.529053%,26.646423%);fill-opacity:1;" d="M 47.355469 15.328125 C 47.375 15.289062 47.394531 15.253906 47.414062 15.21875 C 47.394531 15.253906 47.371094 15.285156 47.347656 15.320312 L 47.355469 15.328125 "/>
<path style=" stroke:none;fill-rule:nonzero;fill:rgb(18.379211%,34.184265%,22.732544%);fill-opacity:1;" d="M 33.613281 25.058594 C 33.652344 25.015625 33.695312 24.972656 33.730469 24.929688 C 33.695312 24.972656 33.652344 25.015625 33.613281 25.058594 "/>
<path style=" stroke:none;fill-rule:nonzero;fill:rgb(26.031494%,48.760986%,29.704285%);fill-opacity:1;" d="M 46.933594 15.839844 C 46.984375 15.800781 47.03125 15.757812 47.078125 15.71875 L 47.089844 15.730469 C 47.046875 15.777344 47.007812 15.824219 46.964844 15.871094 L 46.933594 15.839844 "/>
<path style=" stroke:none;fill-rule:nonzero;fill:rgb(25.791931%,42.076111%,26.387024%);fill-opacity:1;" d="M 20.9375 23.195312 C 21.023438 23.3125 21.101562 23.4375 21.199219 23.542969 C 21.296875 23.648438 21.410156 23.800781 21.53125 23.816406 C 22.03125 23.871094 22.519531 24.109375 23.097656 23.941406 C 22.929688 23.8125 22.796875 23.714844 22.667969 23.613281 C 22.671875 23.078125 22.671875 22.539062 22.675781 22.003906 C 22.980469 22.179688 23.265625 22.371094 23.191406 22.796875 C 23.011719 23.019531 23 23.238281 23.199219 23.460938 C 23.308594 23.59375 23.417969 23.726562 23.527344 23.859375 C 23.96875 23.867188 24.398438 23.960938 24.726562 23.589844 L 24.773438 23.585938 C 24.820312 23.660156 24.867188 23.730469 24.941406 23.847656 C 24.355469 24.265625 23.5625 24.335938 23.074219 24.914062 C 23.074219 24.78125 23.070312 24.644531 23.066406 24.507812 C 22.832031 24.4375 22.597656 24.339844 22.355469 24.304688 C 21.84375 24.230469 21.339844 24.050781 20.8125 24.136719 C 20.808594 23.886719 20.800781 23.632812 20.8125 23.378906 C 20.816406 23.316406 20.894531 23.257812 20.9375 23.195312 "/>
<path style=" stroke:none;fill-rule:nonzero;fill:rgb(26.031494%,48.760986%,29.704285%);fill-opacity:1;" d="M 20.9375 23.195312 C 20.894531 23.257812 20.816406 23.316406 20.8125 23.378906 C 20.800781 23.632812 20.808594 23.886719 20.8125 24.136719 C 20.386719 24.265625 19.957031 24.394531 19.539062 24.519531 C 19.136719 24.453125 18.910156 24.21875 18.804688 23.777344 C 18.863281 23.703125 18.9375 23.601562 19.007812 23.511719 C 19.328125 23.660156 19.542969 23.761719 19.738281 23.851562 C 20 23.851562 20.242188 23.851562 20.558594 23.851562 C 20.300781 23.566406 20.085938 23.332031 19.789062 23.003906 C 19.902344 22.925781 20.003906 22.851562 20.132812 22.761719 C 20.40625 22.863281 20.667969 22.964844 20.929688 23.066406 C 20.9375 23.109375 20.941406 23.152344 20.9375 23.195312 "/>
<path style=" stroke:none;fill-rule:nonzero;fill:rgb(23.625183%,37.820435%,24.94812%);fill-opacity:1;" d="M 23.066406 24.507812 C 23.070312 24.644531 23.074219 24.78125 23.074219 24.914062 C 22.746094 25.152344 22.421875 25.390625 22.125 25.605469 C 21.730469 25.464844 21.347656 25.453125 21.195312 25.035156 C 21.417969 24.714844 21.75 24.648438 22.109375 24.65625 C 22.441406 24.664062 22.765625 24.671875 23.066406 24.507812 "/>
<path style=" stroke:none;fill-rule:nonzero;fill:rgb(14.068604%,24.636841%,14.399719%);fill-opacity:1;" d="M 25.761719 25.019531 C 26.078125 25.324219 26.175781 25.699219 26.128906 26.125 C 26.082031 26.128906 26.035156 26.136719 25.988281 26.140625 C 25.90625 25.871094 25.824219 25.601562 25.738281 25.335938 C 25.746094 25.230469 25.753906 25.125 25.761719 25.019531 "/>
<path style=" stroke:none;fill-rule:nonzero;fill:rgb(21.786499%,32.76062%,21.688843%);fill-opacity:1;" d="M 25.761719 25.019531 C 25.753906 25.125 25.746094 25.230469 25.738281 25.335938 C 25.652344 25.109375 25.5625 24.886719 25.472656 24.664062 L 25.480469 24.65625 C 25.757812 24.636719 25.75 24.832031 25.761719 25.019531 "/>
<path style=" stroke:none;fill-rule:nonzero;fill:rgb(21.786499%,32.76062%,21.688843%);fill-opacity:1;" d="M 25.988281 26.140625 C 26.035156 26.136719 26.082031 26.128906 26.128906 26.125 C 26.128906 26.332031 26.128906 26.542969 26.128906 26.75 C 26.101562 26.75 26.070312 26.75 26.042969 26.753906 C 26.023438 26.546875 26.007812 26.34375 25.988281 26.140625 "/>
<path style=" stroke:none;fill-rule:nonzero;fill:rgb(21.786499%,32.76062%,21.688843%);fill-opacity:1;" d="M 25.472656 24.664062 C 25.429688 24.617188 25.390625 24.570312 25.347656 24.523438 L 25.339844 24.53125 C 25.386719 24.574219 25.433594 24.613281 25.480469 24.65625 L 25.472656 24.664062 "/>
<path style=" stroke:none;fill-rule:nonzero;fill:rgb(21.786499%,32.76062%,21.688843%);fill-opacity:1;" d="M 25.347656 24.523438 C 25.3125 24.503906 25.28125 24.484375 25.332031 24.515625 C 25.304688 24.46875 25.324219 24.5 25.339844 24.53125 L 25.347656 24.523438 "/>
<path style=" stroke:none;fill-rule:nonzero;fill:rgb(25.791931%,42.076111%,26.387024%);fill-opacity:1;" d="M 39.609375 35.070312 C 39.519531 35.117188 39.429688 35.160156 39.34375 35.210938 C 38.945312 35.023438 38.546875 34.839844 38.152344 34.65625 C 38.199219 34.609375 38.246094 34.566406 38.292969 34.523438 C 38.726562 34.664062 39.164062 34.808594 39.597656 34.949219 C 39.605469 34.988281 39.609375 35.03125 39.609375 35.070312 "/>
<path style=" stroke:none;fill-rule:nonzero;fill:rgb(31.604004%,48.529053%,26.646423%);fill-opacity:1;" d="M 38.292969 34.523438 C 38.246094 34.566406 38.199219 34.609375 38.152344 34.65625 C 37.839844 34.480469 37.527344 34.304688 37.21875 34.128906 L 37.214844 34.132812 C 37.613281 34.148438 37.980469 34.265625 38.292969 34.523438 "/>
<path style=" stroke:none;fill-rule:nonzero;fill:rgb(31.604004%,48.529053%,26.646423%);fill-opacity:1;" d="M 37.21875 34.128906 C 37.136719 34.117188 37.054688 34.105469 36.976562 34.09375 C 36.988281 34.066406 37 34.035156 37.015625 34.007812 C 37.082031 34.046875 37.148438 34.089844 37.214844 34.132812 L 37.21875 34.128906 "/>
<path style=" stroke:none;fill-rule:nonzero;fill:rgb(23.625183%,37.820435%,24.94812%);fill-opacity:1;" d="M 16.558594 36.109375 C 16.507812 36.074219 16.460938 36.035156 16.410156 35.996094 C 16.40625 35.953125 16.398438 35.90625 16.394531 35.863281 C 16.578125 35.8125 16.824219 35.996094 16.945312 35.71875 C 17.503906 35.902344 18.054688 36.097656 18.617188 36.265625 C 19.847656 36.636719 21.066406 36.660156 22.273438 36.144531 C 22.347656 36.113281 22.445312 36.125 22.535156 36.113281 C 22.585938 36.480469 22.632812 36.847656 22.679688 37.21875 C 22.652344 37.25 22.628906 37.304688 22.597656 37.308594 C 22.210938 37.363281 21.820312 37.457031 21.433594 37.445312 C 21 37.4375 20.570312 37.335938 20.144531 37.269531 C 18.992188 37.089844 17.925781 36.664062 16.882812 36.171875 C 16.785156 36.125 16.667969 36.128906 16.558594 36.109375 "/>
<path style=" stroke:none;fill-rule:nonzero;fill:rgb(21.432495%,38.395691%,25.257874%);fill-opacity:1;" d="M 13.488281 27.988281 C 13.4375 28.070312 13.355469 28.148438 13.34375 28.234375 C 13.320312 28.429688 13.332031 28.628906 13.324219 28.824219 C 12.71875 28.621094 12.109375 28.421875 11.503906 28.210938 C 11.085938 28.066406 10.675781 27.898438 10.265625 27.742188 C 10.410156 27.523438 10.417969 27.167969 10.808594 27.195312 C 11.738281 27.335938 12.652344 27.53125 13.488281 27.988281 "/>
<path style=" stroke:none;fill-rule:nonzero;fill:rgb(22.384644%,45.275879%,29.18396%);fill-opacity:1;" d="M 10.808594 27.195312 C 10.417969 27.167969 10.410156 27.523438 10.265625 27.742188 C 9.691406 27.628906 9.121094 27.503906 8.546875 27.402344 C 7.863281 27.277344 7.179688 27.171875 6.496094 27.0625 C 6.136719 27.003906 5.773438 26.949219 5.40625 26.890625 C 5.398438 26.878906 5.390625 26.867188 5.378906 26.851562 C 5.398438 26.839844 5.414062 26.816406 5.433594 26.816406 C 6.46875 26.808594 7.503906 26.800781 8.539062 26.792969 C 8.671875 26.792969 8.804688 26.796875 8.9375 26.796875 C 9.160156 26.835938 9.382812 26.875 9.605469 26.910156 C 10.011719 26.972656 10.433594 26.996094 10.808594 27.195312 "/>
<path style=" stroke:none;fill-rule:nonzero;fill:rgb(18.4021%,29.649353%,19.88678%);fill-opacity:1;" d="M 30.144531 41.070312 C 30.097656 41.160156 30.050781 41.253906 30.003906 41.347656 C 29.964844 41.261719 29.894531 41.175781 29.886719 41.085938 C 29.859375 40.855469 29.855469 40.625 29.847656 40.394531 C 29.871094 40.355469 29.871094 40.3125 29.84375 40.273438 C 29.847656 40.136719 29.847656 40.003906 29.851562 39.867188 C 29.863281 39.734375 29.875 39.601562 29.886719 39.46875 L 29.996094 39.46875 C 30.042969 40.003906 30.09375 40.535156 30.144531 41.070312 "/>
<path style=" stroke:none;fill-rule:nonzero;fill:rgb(31.604004%,48.529053%,26.646423%);fill-opacity:1;" d="M 29.996094 39.46875 L 29.886719 39.46875 C 29.886719 39.289062 29.882812 39.109375 29.878906 38.933594 C 29.890625 38.859375 29.902344 38.78125 29.914062 38.710938 C 29.941406 38.710938 29.96875 38.714844 29.996094 38.714844 C 29.996094 38.96875 29.996094 39.21875 29.996094 39.46875 "/>
<path style=" stroke:none;fill-rule:nonzero;fill:rgb(23.625183%,37.820435%,24.94812%);fill-opacity:1;" d="M 22.675781 22.003906 C 22.671875 22.539062 22.671875 23.078125 22.667969 23.613281 C 22.5625 23.601562 22.460938 23.59375 22.300781 23.574219 C 22.199219 23.324219 22.09375 23.058594 21.988281 22.792969 C 21.988281 22.511719 21.988281 22.226562 21.988281 21.964844 C 22.257812 21.765625 22.46875 21.882812 22.675781 22.003906 "/>
<path style=" stroke:none;fill-rule:nonzero;fill:rgb(31.604004%,48.529053%,26.646423%);fill-opacity:1;" d="M 23.199219 23.460938 C 23 23.238281 23.011719 23.019531 23.191406 22.796875 C 23.195312 23.015625 23.195312 23.238281 23.199219 23.460938 "/>
<path style=" stroke:none;fill-rule:nonzero;fill:rgb(74.066162%,56.45752%,10.641479%);fill-opacity:1;" d="M 29.84375 40.273438 C 29.871094 40.3125 29.871094 40.355469 29.847656 40.394531 C 29.820312 40.375 29.792969 40.355469 29.765625 40.335938 C 29.789062 40.3125 29.820312 40.292969 29.84375 40.273438 "/>
<path style=" stroke:none;fill-rule:nonzero;fill:rgb(25.791931%,42.076111%,26.387024%);fill-opacity:1;" d="M 39.773438 35.183594 C 39.71875 35.148438 39.664062 35.109375 39.613281 35.070312 C 39.664062 35.109375 39.71875 35.148438 39.773438 35.183594 "/>
</g>
</svg>
