<?xml version="1.0" encoding="UTF-8"?>
<svg xmlns="http://www.w3.org/2000/svg" xmlns:xlink="http://www.w3.org/1999/xlink" width="56pt" height="56pt" viewBox="0 0 56 56" version="1.1">
<g id="surface1">
<rect x="0" y="0" width="56" height="56" style="fill:rgb(94.180298%,25.730896%,11.637878%);fill-opacity:1;stroke:none;"/>
<path style=" stroke:none;fill-rule:nonzero;fill:rgb(100%,100%,100%);fill-opacity:1;" d="M 49.488281 12.890625 C 49.472656 12.902344 49.449219 12.914062 49.449219 12.925781 C 49.457031 13.089844 49.386719 13.234375 49.347656 13.386719 C 49.285156 13.621094 49.152344 13.824219 49.046875 14.039062 C 48.945312 14.257812 48.8125 14.457031 48.722656 14.679688 C 48.632812 14.894531 48.507812 15.09375 48.398438 15.300781 C 48.1875 15.710938 47.976562 16.121094 47.769531 16.53125 C 47.570312 16.917969 47.378906 17.308594 47.171875 17.6875 C 47.003906 18.003906 46.859375 18.332031 46.671875 18.636719 C 46.539062 18.851562 46.433594 19.085938 46.308594 19.304688 C 46.179688 19.523438 46.082031 19.757812 45.960938 19.976562 C 45.824219 20.222656 45.71875 20.484375 45.554688 20.714844 C 45.503906 20.78125 45.484375 20.867188 45.445312 20.941406 C 45.296875 21.222656 45.15625 21.507812 44.996094 21.78125 C 44.820312 22.074219 44.671875 22.375 44.496094 22.667969 C 44.371094 22.878906 44.277344 23.105469 44.15625 23.320312 C 44.015625 23.574219 43.855469 23.8125 43.714844 24.0625 C 43.652344 24.167969 43.597656 24.28125 43.53125 24.386719 C 43.417969 24.574219 43.328125 24.777344 43.21875 24.96875 C 43.097656 25.1875 42.964844 25.394531 42.835938 25.609375 C 42.769531 25.726562 42.714844 25.855469 42.640625 25.96875 C 42.476562 26.21875 42.351562 26.496094 42.171875 26.738281 C 42.09375 26.84375 42.042969 26.964844 41.976562 27.078125 C 41.832031 27.320312 41.691406 27.5625 41.535156 27.796875 C 41.4375 27.945312 41.355469 28.101562 41.261719 28.25 C 41.074219 28.558594 40.890625 28.867188 40.699219 29.171875 C 40.570312 29.382812 40.433594 29.59375 40.296875 29.800781 C 40.101562 30.105469 39.90625 30.410156 39.707031 30.710938 C 39.441406 31.113281 39.1875 31.523438 38.90625 31.910156 C 38.71875 32.175781 38.550781 32.457031 38.34375 32.710938 C 38.195312 32.890625 38.082031 33.101562 37.945312 33.296875 C 37.851562 33.433594 37.742188 33.5625 37.644531 33.699219 C 37.507812 33.878906 37.367188 34.058594 37.234375 34.238281 C 37.128906 34.386719 37.019531 34.527344 36.917969 34.675781 C 36.765625 34.902344 36.570312 35.097656 36.425781 35.332031 C 36.367188 35.421875 36.289062 35.5 36.21875 35.582031 C 36.007812 35.839844 35.789062 36.089844 35.582031 36.347656 C 35.445312 36.523438 35.300781 36.695312 35.15625 36.863281 C 34.96875 37.082031 34.78125 37.296875 34.59375 37.515625 C 34.480469 37.640625 34.351562 37.757812 34.25 37.894531 C 34.101562 38.085938 33.914062 38.242188 33.757812 38.425781 C 33.261719 39.007812 32.683594 39.519531 32.152344 40.066406 C 31.988281 40.230469 31.808594 40.382812 31.636719 40.535156 C 31.398438 40.75 31.152344 40.957031 30.914062 41.175781 C 30.738281 41.339844 30.523438 41.460938 30.351562 41.628906 C 30.183594 41.789062 29.984375 41.90625 29.816406 42.066406 C 29.679688 42.191406 29.515625 42.285156 29.363281 42.394531 C 29.171875 42.53125 28.976562 42.671875 28.78125 42.808594 C 28.476562 43.019531 28.175781 43.230469 27.863281 43.429688 C 27.621094 43.585938 27.367188 43.71875 27.121094 43.867188 C 26.613281 44.167969 26.082031 44.429688 25.554688 44.691406 C 25.277344 44.828125 24.984375 44.933594 24.699219 45.054688 C 24.484375 45.148438 24.265625 45.226562 24.050781 45.316406 C 23.773438 45.425781 23.492188 45.527344 23.207031 45.609375 C 23.019531 45.664062 22.839844 45.753906 22.652344 45.78125 C 22.378906 45.828125 22.121094 45.941406 21.84375 45.96875 C 21.71875 45.984375 21.585938 46.023438 21.464844 46.066406 C 21.363281 46.105469 21.242188 46.042969 21.15625 46.132812 C 20.960938 46.125 20.78125 46.230469 20.582031 46.214844 C 20.476562 46.277344 20.351562 46.230469 20.246094 46.261719 C 20.128906 46.304688 20.019531 46.289062 19.90625 46.300781 C 19.832031 46.308594 19.761719 46.328125 19.691406 46.339844 C 19.625 46.351562 19.550781 46.3125 19.5 46.382812 C 19.34375 46.382812 19.1875 46.359375 19.039062 46.386719 C 18.664062 46.457031 18.292969 46.414062 17.921875 46.425781 C 17.542969 46.433594 17.164062 46.429688 16.789062 46.425781 C 16.675781 46.421875 16.5625 46.390625 16.449219 46.386719 C 16.332031 46.378906 16.203125 46.40625 16.09375 46.375 C 15.976562 46.34375 15.859375 46.371094 15.753906 46.335938 C 15.640625 46.296875 15.527344 46.300781 15.414062 46.300781 C 15.332031 46.300781 15.265625 46.242188 15.179688 46.253906 C 15.109375 46.261719 15.027344 46.289062 14.964844 46.21875 C 14.953125 46.203125 14.910156 46.214844 14.882812 46.214844 C 14.6875 46.21875 14.503906 46.144531 14.316406 46.109375 C 14.078125 46.066406 13.851562 45.976562 13.621094 45.917969 C 13.488281 45.886719 13.363281 45.828125 13.238281 45.78125 C 12.902344 45.65625 12.570312 45.53125 12.25 45.378906 C 12.09375 45.300781 11.921875 45.246094 11.777344 45.15625 C 11.648438 45.074219 11.507812 45.019531 11.382812 44.941406 C 11.253906 44.859375 11.121094 44.792969 10.992188 44.714844 C 10.863281 44.636719 10.734375 44.550781 10.613281 44.460938 C 10.410156 44.308594 10.210938 44.152344 10.007812 43.992188 C 9.699219 43.75 9.410156 43.488281 9.144531 43.199219 C 8.96875 43.007812 8.78125 42.820312 8.648438 42.589844 C 8.609375 42.519531 8.535156 42.46875 8.484375 42.40625 C 8.292969 42.144531 8.117188 41.871094 7.960938 41.59375 C 7.875 41.4375 7.769531 41.285156 7.710938 41.109375 C 7.671875 40.992188 7.597656 40.878906 7.539062 40.761719 C 7.480469 40.644531 7.421875 40.53125 7.394531 40.402344 C 7.363281 40.273438 7.28125 40.171875 7.257812 40.035156 C 7.238281 39.921875 7.171875 39.808594 7.132812 39.691406 C 7.09375 39.570312 7.066406 39.441406 7.019531 39.320312 C 6.976562 39.203125 6.957031 39.078125 6.925781 38.957031 C 6.855469 38.699219 6.8125 38.429688 6.757812 38.167969 C 6.722656 37.988281 6.695312 37.816406 6.671875 37.636719 C 6.652344 37.507812 6.675781 37.367188 6.628906 37.257812 C 6.574219 37.132812 6.628906 37.007812 6.59375 36.894531 C 6.535156 36.71875 6.5625 36.539062 6.550781 36.363281 C 6.550781 36.34375 6.523438 36.328125 6.511719 36.308594 C 6.511719 35.640625 6.511719 34.96875 6.511719 34.296875 C 6.523438 34.285156 6.550781 34.277344 6.550781 34.261719 C 6.554688 34.222656 6.550781 34.179688 6.554688 34.136719 C 6.566406 33.863281 6.5625 33.585938 6.601562 33.316406 C 6.625 33.171875 6.609375 33.027344 6.644531 32.894531 C 6.679688 32.757812 6.652344 32.617188 6.683594 32.488281 C 6.734375 32.273438 6.71875 32.039062 6.804688 31.828125 C 6.8125 31.808594 6.804688 31.785156 6.804688 31.765625 C 6.8125 31.683594 6.820312 31.601562 6.828125 31.523438 C 6.839844 31.4375 6.84375 31.347656 6.878906 31.269531 C 6.90625 31.195312 6.871094 31.117188 6.921875 31.035156 C 6.964844 30.96875 6.9375 30.855469 6.96875 30.761719 C 7.003906 30.644531 7 30.511719 7.015625 30.382812 C 7.023438 30.3125 7.03125 30.234375 7.058594 30.171875 C 7.113281 30.054688 7.117188 29.929688 7.140625 29.804688 C 7.167969 29.65625 7.1875 29.503906 7.234375 29.359375 C 7.28125 29.210938 7.300781 29.054688 7.347656 28.90625 C 7.429688 28.644531 7.4375 28.363281 7.554688 28.109375 C 7.558594 27.84375 7.691406 27.601562 7.730469 27.34375 C 7.753906 27.210938 7.8125 27.082031 7.855469 26.953125 C 7.902344 26.804688 7.929688 26.652344 7.976562 26.5 C 8.105469 26.097656 8.195312 25.683594 8.355469 25.292969 C 8.335938 25.121094 8.460938 24.984375 8.488281 24.824219 C 8.519531 24.660156 8.597656 24.503906 8.652344 24.347656 C 8.703125 24.191406 8.761719 24.039062 8.800781 23.882812 C 8.847656 23.679688 8.980469 23.503906 8.988281 23.289062 C 9.097656 23.125 9.121094 22.925781 9.195312 22.746094 C 9.285156 22.523438 9.367188 22.296875 9.449219 22.074219 C 9.527344 21.867188 9.609375 21.664062 9.675781 21.457031 C 9.78125 21.128906 9.933594 20.820312 10.042969 20.492188 C 10.09375 20.335938 10.171875 20.183594 10.226562 20.027344 C 10.320312 19.75 10.46875 19.496094 10.542969 19.210938 C 10.5625 19.132812 10.648438 19.066406 10.660156 18.988281 C 10.675781 18.867188 10.769531 18.78125 10.792969 18.664062 C 10.820312 18.550781 10.875 18.449219 10.917969 18.339844 C 11.035156 18.03125 11.207031 17.746094 11.296875 17.425781 C 11.410156 17.273438 11.453125 17.085938 11.527344 16.914062 C 11.605469 16.738281 11.675781 16.550781 11.765625 16.382812 C 11.847656 16.226562 11.882812 16.054688 11.988281 15.90625 C 12.042969 15.824219 12.070312 15.71875 12.109375 15.621094 C 12.242188 15.3125 12.390625 15.011719 12.515625 14.699219 C 12.554688 14.597656 12.621094 14.507812 12.664062 14.402344 C 12.792969 14.105469 12.9375 13.816406 13.074219 13.527344 C 13.226562 13.203125 13.382812 12.882812 13.535156 12.5625 C 13.578125 12.46875 13.609375 12.371094 13.675781 12.28125 C 13.738281 12.207031 13.757812 12.09375 13.8125 12.003906 C 13.871094 11.917969 13.894531 11.808594 13.980469 11.738281 C 14.097656 11.433594 14.320312 11.191406 14.503906 10.929688 C 14.6875 10.660156 14.925781 10.433594 15.171875 10.21875 C 15.390625 10.03125 15.621094 9.859375 15.890625 9.734375 C 16.101562 9.640625 16.304688 9.5625 16.539062 9.574219 C 16.601562 9.578125 16.664062 9.582031 16.726562 9.574219 C 16.851562 9.554688 16.957031 9.617188 17.039062 9.683594 C 17.167969 9.78125 17.285156 9.902344 17.367188 10.046875 C 17.410156 10.125 17.429688 10.214844 17.457031 10.300781 C 17.523438 10.527344 17.527344 10.90625 17.46875 11.148438 C 17.464844 11.167969 17.46875 11.1875 17.464844 11.210938 C 17.449219 11.285156 17.488281 11.367188 17.429688 11.449219 C 17.390625 11.496094 17.457031 11.597656 17.382812 11.65625 C 17.390625 11.773438 17.355469 11.878906 17.308594 11.984375 C 17.261719 12.082031 17.257812 12.195312 17.214844 12.300781 C 17.132812 12.519531 17.046875 12.734375 16.96875 12.953125 C 16.804688 13.394531 16.550781 13.785156 16.371094 14.21875 C 16.230469 14.371094 16.191406 14.578125 16.089844 14.753906 C 16.015625 14.886719 15.964844 15.035156 15.910156 15.179688 C 15.859375 15.320312 15.796875 15.457031 15.734375 15.589844 C 15.652344 15.78125 15.566406 15.96875 15.480469 16.15625 C 15.351562 16.441406 15.222656 16.722656 15.109375 17.011719 C 15.054688 17.148438 15 17.289062 14.929688 17.417969 C 14.867188 17.535156 14.804688 17.652344 14.785156 17.777344 C 14.769531 17.859375 14.648438 17.890625 14.695312 17.992188 C 14.597656 18.210938 14.492188 18.425781 14.40625 18.648438 C 14.324219 18.859375 14.191406 19.050781 14.148438 19.277344 C 14.125 19.382812 14.019531 19.460938 14.023438 19.582031 C 13.914062 19.71875 13.882812 19.890625 13.820312 20.042969 C 13.734375 20.269531 13.597656 20.472656 13.5625 20.714844 C 13.433594 20.890625 13.410156 21.113281 13.308594 21.300781 C 13.222656 21.460938 13.175781 21.640625 13.113281 21.808594 C 13.046875 21.980469 12.972656 22.15625 12.90625 22.332031 C 12.820312 22.566406 12.742188 22.808594 12.644531 23.039062 C 12.550781 23.253906 12.476562 23.476562 12.402344 23.695312 C 12.300781 23.988281 12.183594 24.277344 12.09375 24.574219 C 11.980469 24.933594 11.851562 25.285156 11.746094 25.648438 C 11.695312 25.808594 11.621094 25.960938 11.585938 26.128906 C 11.550781 26.289062 11.460938 26.441406 11.425781 26.605469 C 11.367188 26.902344 11.265625 27.183594 11.179688 27.46875 C 11.144531 27.59375 11.121094 27.722656 11.085938 27.851562 C 11.050781 27.984375 11.035156 28.125 10.976562 28.246094 C 10.945312 28.324219 10.972656 28.402344 10.933594 28.480469 C 10.890625 28.578125 10.871094 28.691406 10.839844 28.796875 C 10.804688 28.898438 10.8125 29.007812 10.789062 29.113281 C 10.765625 29.242188 10.726562 29.367188 10.699219 29.496094 C 10.671875 29.617188 10.640625 29.738281 10.625 29.863281 C 10.613281 29.925781 10.597656 29.992188 10.582031 30.054688 C 10.5625 30.148438 10.550781 30.238281 10.53125 30.332031 C 10.515625 30.414062 10.519531 30.507812 10.496094 30.585938 C 10.429688 30.78125 10.453125 30.992188 10.371094 31.183594 C 10.371094 31.191406 10.371094 31.199219 10.371094 31.207031 C 10.359375 31.390625 10.347656 31.574219 10.328125 31.757812 C 10.324219 31.835938 10.300781 31.910156 10.289062 31.988281 C 10.277344 32.070312 10.320312 32.15625 10.246094 32.226562 C 10.238281 32.234375 10.242188 32.265625 10.246094 32.285156 C 10.277344 32.503906 10.195312 32.707031 10.203125 32.921875 C 10.210938 33.128906 10.203125 33.339844 10.203125 33.550781 C 10.203125 33.816406 10.214844 34.082031 10.203125 34.347656 C 10.183594 34.632812 10.234375 34.910156 10.253906 35.191406 C 10.261719 35.300781 10.257812 35.429688 10.296875 35.527344 C 10.34375 35.640625 10.300781 35.746094 10.332031 35.847656 C 10.402344 36.058594 10.417969 36.28125 10.484375 36.496094 C 10.53125 36.652344 10.578125 36.808594 10.617188 36.96875 C 10.652344 37.121094 10.703125 37.269531 10.753906 37.414062 C 10.808594 37.585938 10.890625 37.75 10.953125 37.917969 C 11.042969 38.164062 11.171875 38.390625 11.296875 38.613281 C 11.421875 38.839844 11.570312 39.050781 11.710938 39.261719 C 11.808594 39.40625 11.925781 39.539062 12.03125 39.675781 C 12.210938 39.910156 12.429688 40.097656 12.628906 40.308594 C 12.769531 40.457031 12.933594 40.578125 13.097656 40.695312 C 13.179688 40.753906 13.25 40.835938 13.335938 40.886719 C 13.421875 40.933594 13.5 41 13.578125 41.058594 C 13.960938 41.34375 14.390625 41.554688 14.820312 41.765625 C 15.121094 41.910156 15.429688 42.035156 15.75 42.152344 C 15.960938 42.226562 16.171875 42.277344 16.394531 42.316406 C 16.664062 42.363281 16.933594 42.371094 17.199219 42.40625 C 17.648438 42.464844 18.097656 42.429688 18.546875 42.433594 C 18.769531 42.433594 18.996094 42.382812 19.222656 42.398438 C 19.308594 42.339844 19.421875 42.386719 19.492188 42.347656 C 19.585938 42.296875 19.671875 42.335938 19.753906 42.308594 C 19.984375 42.238281 20.230469 42.230469 20.464844 42.15625 C 20.59375 42.113281 20.734375 42.09375 20.867188 42.066406 C 21.097656 42.011719 21.320312 41.945312 21.542969 41.867188 C 21.804688 41.777344 22.070312 41.691406 22.332031 41.597656 C 22.417969 41.570312 22.503906 41.53125 22.585938 41.496094 C 22.777344 41.40625 22.964844 41.296875 23.164062 41.226562 C 23.34375 41.160156 23.503906 41.0625 23.671875 40.980469 C 23.832031 40.90625 23.996094 40.820312 24.15625 40.726562 C 24.355469 40.605469 24.5625 40.496094 24.761719 40.367188 C 25.070312 40.164062 25.375 39.960938 25.679688 39.753906 C 25.867188 39.625 26.046875 39.488281 26.230469 39.359375 C 26.457031 39.203125 26.65625 39.015625 26.886719 38.867188 C 26.988281 38.800781 27.066406 38.703125 27.164062 38.628906 C 27.324219 38.511719 27.464844 38.363281 27.609375 38.230469 C 27.703125 38.152344 27.796875 38.074219 27.890625 37.992188 C 27.980469 37.914062 28.050781 37.808594 28.167969 37.753906 C 28.210938 37.734375 28.238281 37.6875 28.273438 37.652344 C 28.703125 37.222656 29.136719 36.792969 29.5625 36.359375 C 29.839844 36.082031 30.117188 35.796875 30.378906 35.503906 C 30.582031 35.273438 30.78125 35.039062 30.984375 34.808594 C 31.136719 34.636719 31.277344 34.453125 31.429688 34.28125 C 31.59375 34.097656 31.730469 33.902344 31.878906 33.710938 C 32.011719 33.546875 32.15625 33.394531 32.277344 33.222656 C 32.390625 33.066406 32.515625 32.921875 32.628906 32.765625 C 32.734375 32.617188 32.851562 32.480469 32.960938 32.335938 C 33.136719 32.105469 33.308594 31.878906 33.480469 31.648438 C 33.632812 31.445312 33.78125 31.238281 33.925781 31.035156 C 34.066406 30.839844 34.199219 30.644531 34.339844 30.449219 C 34.527344 30.1875 34.695312 29.910156 34.890625 29.648438 C 35.058594 29.414062 35.214844 29.167969 35.363281 28.921875 C 35.433594 28.808594 35.503906 28.699219 35.582031 28.59375 C 35.773438 28.328125 35.949219 28.046875 36.128906 27.769531 C 36.28125 27.535156 36.425781 27.292969 36.574219 27.054688 C 36.839844 26.625 37.097656 26.191406 37.363281 25.765625 C 37.539062 25.488281 37.714844 25.210938 37.882812 24.929688 C 38.023438 24.691406 38.167969 24.460938 38.304688 24.222656 C 38.429688 24.011719 38.539062 23.785156 38.6875 23.582031 C 38.761719 23.480469 38.804688 23.351562 38.871094 23.242188 C 39.027344 22.992188 39.171875 22.734375 39.320312 22.480469 C 39.425781 22.304688 39.53125 22.125 39.625 21.9375 C 39.710938 21.769531 39.804688 21.605469 39.902344 21.441406 C 39.976562 21.3125 40.050781 21.183594 40.128906 21.054688 C 40.269531 20.804688 40.390625 20.546875 40.535156 20.296875 C 40.621094 20.15625 40.699219 20.007812 40.765625 19.851562 C 40.808594 19.746094 40.871094 19.640625 40.933594 19.542969 C 41.003906 19.445312 41.054688 19.339844 41.109375 19.234375 C 41.257812 18.953125 41.402344 18.671875 41.558594 18.394531 C 41.765625 18.019531 41.964844 17.640625 42.164062 17.261719 C 42.238281 17.125 42.289062 16.976562 42.390625 16.847656 C 42.480469 16.734375 42.523438 16.585938 42.59375 16.453125 C 42.753906 16.132812 42.914062 15.8125 43.082031 15.5 C 43.289062 15.125 43.480469 14.742188 43.679688 14.363281 C 43.769531 14.191406 43.847656 14.011719 43.945312 13.84375 C 44.082031 13.601562 44.207031 13.351562 44.328125 13.097656 C 44.449219 12.847656 44.578125 12.601562 44.703125 12.351562 C 44.75 12.261719 44.804688 12.167969 44.855469 12.078125 C 44.902344 11.996094 44.921875 11.898438 44.992188 11.820312 C 45.027344 11.78125 45.015625 11.703125 45.042969 11.652344 C 45.105469 11.539062 45.171875 11.425781 45.25 11.320312 C 45.359375 11.164062 45.46875 11 45.59375 10.855469 C 45.722656 10.710938 45.863281 10.566406 46.027344 10.445312 C 46.199219 10.316406 46.375 10.214844 46.566406 10.117188 C 46.691406 10.054688 46.820312 10.023438 46.953125 9.988281 C 47.097656 9.949219 47.234375 9.957031 47.378906 9.953125 C 47.824219 9.949219 48.203125 10.117188 48.535156 10.40625 C 48.589844 10.453125 48.660156 10.488281 48.710938 10.539062 C 49.011719 10.859375 49.25 11.21875 49.363281 11.652344 C 49.394531 11.78125 49.449219 11.902344 49.453125 12.035156 C 49.453125 12.042969 49.476562 12.046875 49.488281 12.050781 C 49.488281 12.332031 49.488281 12.613281 49.488281 12.890625 "/>
<path style=" stroke:none;fill-rule:nonzero;fill:rgb(100%,100%,100%);fill-opacity:1;" d="M 34.425781 14.65625 C 34.492188 14.6875 34.535156 14.726562 34.585938 14.734375 C 34.859375 14.789062 35.078125 14.960938 35.324219 15.078125 C 35.382812 15.105469 35.4375 15.152344 35.480469 15.199219 C 35.628906 15.359375 35.84375 15.445312 35.949219 15.648438 C 36 15.75 36.105469 15.816406 36.167969 15.914062 C 36.320312 16.144531 36.449219 16.386719 36.542969 16.640625 C 36.601562 16.796875 36.621094 16.972656 36.65625 17.144531 C 36.699219 17.363281 36.6875 17.582031 36.683594 17.796875 C 36.679688 18.003906 36.621094 18.203125 36.578125 18.402344 C 36.5 18.746094 36.335938 19.054688 36.132812 19.328125 C 35.984375 19.53125 35.835938 19.757812 35.59375 19.882812 C 35.363281 20.125 35.050781 20.25 34.761719 20.402344 C 34.636719 20.472656 34.488281 20.484375 34.351562 20.53125 C 34.195312 20.585938 34.035156 20.613281 33.863281 20.621094 C 33.71875 20.625 33.570312 20.671875 33.417969 20.65625 C 33.292969 20.644531 33.164062 20.628906 33.039062 20.613281 C 32.917969 20.601562 32.792969 20.601562 32.679688 20.566406 C 32.550781 20.523438 32.417969 20.488281 32.292969 20.433594 C 32.039062 20.324219 31.78125 20.203125 31.558594 20.035156 C 31.296875 19.84375 31.070312 19.617188 30.875 19.359375 C 30.574219 18.957031 30.453125 18.644531 30.34375 18.234375 C 30.320312 18.132812 30.316406 18.035156 30.304688 17.933594 C 30.300781 17.84375 30.277344 17.75 30.265625 17.660156 C 30.25 17.523438 30.289062 17.390625 30.308594 17.257812 C 30.324219 17.128906 30.316406 16.996094 30.355469 16.875 C 30.4375 16.617188 30.523438 16.359375 30.664062 16.125 C 30.851562 15.804688 31.101562 15.53125 31.378906 15.289062 C 31.523438 15.167969 31.671875 15.039062 31.855469 14.972656 C 31.972656 14.933594 32.058594 14.835938 32.183594 14.808594 C 32.304688 14.78125 32.414062 14.714844 32.53125 14.679688 C 32.632812 14.648438 32.730469 14.613281 32.839844 14.609375 C 32.910156 14.605469 32.980469 14.582031 33.050781 14.570312 C 33.125 14.558594 33.207031 14.601562 33.265625 14.53125 C 33.414062 14.542969 33.570312 14.496094 33.714844 14.554688 C 33.738281 14.566406 33.769531 14.570312 33.792969 14.570312 C 33.964844 14.566406 34.125 14.59375 34.285156 14.652344 C 34.332031 14.667969 34.394531 14.65625 34.425781 14.65625 "/>
<path style=" stroke:none;fill-rule:nonzero;fill:rgb(100%,100%,100%);fill-opacity:1;" d="M 20.195312 17.582031 C 20.195312 17.515625 20.199219 17.453125 20.191406 17.390625 C 20.179688 17.207031 20.226562 17.035156 20.273438 16.859375 C 20.34375 16.605469 20.433594 16.363281 20.570312 16.140625 C 20.652344 16.003906 20.726562 15.867188 20.839844 15.75 C 20.933594 15.652344 21.011719 15.539062 21.109375 15.441406 C 21.390625 15.15625 21.738281 14.960938 22.097656 14.792969 C 22.199219 14.742188 22.316406 14.714844 22.425781 14.671875 C 22.535156 14.632812 22.664062 14.648438 22.777344 14.609375 C 22.898438 14.566406 23.027344 14.601562 23.136719 14.5625 C 23.253906 14.519531 23.363281 14.542969 23.476562 14.527344 C 23.5625 14.511719 23.632812 14.558594 23.710938 14.570312 C 23.789062 14.585938 23.867188 14.554688 23.953125 14.601562 C 24.023438 14.648438 24.136719 14.589844 24.222656 14.652344 C 24.246094 14.667969 24.300781 14.640625 24.328125 14.65625 C 24.46875 14.753906 24.652344 14.757812 24.792969 14.839844 C 24.90625 14.90625 25.023438 14.964844 25.136719 15.035156 C 25.363281 15.175781 25.5625 15.34375 25.75 15.527344 C 25.953125 15.734375 26.128906 15.96875 26.257812 16.222656 C 26.359375 16.417969 26.445312 16.632812 26.496094 16.859375 C 26.535156 17.042969 26.570312 17.222656 26.582031 17.410156 C 26.585938 17.507812 26.644531 17.613281 26.601562 17.703125 C 26.550781 17.808594 26.601562 17.910156 26.570312 18.003906 C 26.539062 18.097656 26.558594 18.207031 26.488281 18.285156 C 26.496094 18.507812 26.378906 18.691406 26.304688 18.882812 C 26.238281 19.042969 26.125 19.183594 26.027344 19.332031 C 25.894531 19.527344 25.71875 19.6875 25.550781 19.847656 C 25.417969 19.980469 25.257812 20.078125 25.101562 20.175781 C 24.867188 20.320312 24.617188 20.425781 24.355469 20.5 C 24.171875 20.554688 23.988281 20.621094 23.792969 20.617188 C 23.714844 20.613281 23.636719 20.648438 23.558594 20.65625 C 23.472656 20.660156 23.390625 20.65625 23.304688 20.65625 C 23.21875 20.652344 23.136719 20.65625 23.046875 20.621094 C 22.976562 20.589844 22.863281 20.644531 22.804688 20.605469 C 22.722656 20.558594 22.621094 20.613281 22.5625 20.53125 C 22.316406 20.53125 22.125 20.363281 21.894531 20.320312 C 21.714844 20.171875 21.496094 20.082031 21.320312 19.921875 C 21.199219 19.8125 21.074219 19.707031 20.957031 19.59375 C 20.929688 19.570312 20.902344 19.546875 20.882812 19.519531 C 20.820312 19.433594 20.757812 19.34375 20.699219 19.261719 C 20.5625 19.074219 20.472656 18.863281 20.367188 18.660156 C 20.328125 18.585938 20.304688 18.488281 20.28125 18.40625 C 20.21875 18.136719 20.15625 17.863281 20.195312 17.582031 "/>
</g>
</svg>
