<?xml version="1.0" encoding="UTF-8"?>
<svg xmlns="http://www.w3.org/2000/svg" xmlns:xlink="http://www.w3.org/1999/xlink" width="56pt" height="56pt" viewBox="0 0 56 56" version="1.1">
<g id="surface1">
<rect x="0" y="0" width="56" height="56" style="fill:rgb(95.666504%,95.776367%,96.775818%);fill-opacity:1;stroke:none;"/>
<path style=" stroke:none;fill-rule:evenodd;fill:rgb(17.703247%,20.9198%,56.550598%);fill-opacity:1;" d="M 5.320312 40.9375 L 31.339844 40.9375 L 35.980469 15.0625 L 5.320312 40.9375 "/>
<path style=" stroke:none;fill-rule:evenodd;fill:rgb(95.263672%,68.840027%,7.366943%);fill-opacity:1;" d="M 32.398438 26.363281 L 32.609375 17.90625 L 31.898438 18.507812 L 31.703125 26.4375 L 30.742188 29.957031 C 30.742188 29.960938 30.742188 29.960938 30.742188 29.960938 L 30.742188 29.957031 L 29.101562 26.957031 L 28.222656 21.605469 L 27.605469 22.128906 L 28.378906 26.957031 L 28.378906 30.734375 L 28.402344 30.726562 C 28.386719 30.734375 28.375 30.738281 28.363281 30.742188 L 28.378906 30.734375 L 26.113281 28.078125 L 24.164062 25.03125 L 23.640625 25.472656 L 25.507812 28.390625 L 26.390625 31.78125 L 26.414062 31.769531 C 26.398438 31.78125 26.382812 31.789062 26.367188 31.800781 L 26.390625 31.78125 L 23.367188 29.738281 L 21.453125 27.320312 L 20.941406 27.753906 L 22.835938 30.148438 L 24.539062 33.195312 L 21.0625 31.800781 L 18.519531 29.796875 L 18.003906 30.230469 L 20.625 32.300781 L 23.03125 34.839844 L 23.054688 34.8125 C 23.039062 34.828125 23.027344 34.84375 23.015625 34.859375 L 23.03125 34.839844 L 19.261719 34.1875 L 15.355469 32.464844 L 14.804688 32.929688 L 18.933594 34.75 L 21.8125 36.773438 L 21.832031 36.738281 C 21.820312 36.765625 21.808594 36.789062 21.796875 36.816406 L 21.8125 36.773438 L 18.101562 36.515625 L 12.390625 34.96875 L 11.796875 35.46875 L 17.882812 37.117188 L 21.023438 38.800781 L 17.34375 39.234375 L 7.96875 38.699219 L 7.261719 39.296875 L 17.253906 39.863281 L 20.648438 40.8125 L 33.441406 30.21875 L 32.398438 26.363281 "/>
<path style=" stroke:none;fill-rule:evenodd;fill:rgb(92.327881%,11.471558%,16.825867%);fill-opacity:1;" d="M 20.023438 40.9375 L 46.042969 40.9375 L 50.679688 15.0625 L 20.023438 40.9375 "/>
</g>
</svg>
