<?xml version="1.0" encoding="UTF-8"?>
<svg xmlns="http://www.w3.org/2000/svg" xmlns:xlink="http://www.w3.org/1999/xlink" width="56pt" height="56pt" viewBox="0 0 56 56" version="1.1">
<g id="surface1">
<rect x="0" y="0" width="56" height="56" style="fill:rgb(95.666504%,95.776367%,96.775818%);fill-opacity:1;stroke:none;"/>
<path style=" stroke:none;fill-rule:nonzero;fill:rgb(43.70575%,11.813354%,29.797363%);fill-opacity:1;" d="M 30.222656 6.882812 C 31.417969 6.265625 32.714844 5.839844 34.039062 5.601562 C 34.175781 6.324219 34.242188 7.058594 34.304688 7.792969 C 34.367188 8.703125 34.390625 9.617188 34.339844 10.53125 C 34.28125 11.507812 34.152344 12.492188 33.847656 13.429688 C 33.835938 13.445312 33.820312 13.464844 33.804688 13.480469 C 31.945312 13.539062 30.089844 13.859375 28.335938 14.480469 C 26.386719 15.175781 24.546875 16.273438 23.160156 17.828125 C 23.15625 17.78125 23.15625 17.734375 23.160156 17.6875 C 23.273438 16.671875 23.472656 15.664062 23.78125 14.6875 C 24.148438 13.503906 24.667969 12.367188 25.339844 11.324219 C 26.539062 9.449219 28.238281 7.898438 30.222656 6.882812 "/>
<path style=" stroke:none;fill-rule:nonzero;fill:rgb(43.70575%,11.813354%,29.797363%);fill-opacity:1;" d="M 20.507812 19.214844 C 23.257812 19.316406 26.023438 19.8125 28.554688 20.921875 C 29.832031 21.484375 31.039062 22.199219 32.125 23.074219 C 33.089844 23.84375 33.953125 24.734375 34.695312 25.71875 C 36.082031 27.554688 37.019531 29.710938 37.515625 31.953125 C 38.113281 34.660156 38.09375 37.496094 37.511719 40.203125 C 37.433594 40.210938 37.355469 40.21875 37.277344 40.226562 C 36.230469 42.488281 34.820312 44.605469 33.003906 46.324219 C 32.03125 47.242188 30.945312 48.042969 29.765625 48.675781 C 28.671875 49.265625 27.507812 49.714844 26.300781 50 C 23.347656 50.714844 20.195312 50.445312 17.363281 49.367188 C 15.167969 48.539062 13.152344 47.238281 11.488281 45.582031 C 9.691406 43.800781 8.3125 41.601562 7.511719 39.199219 C 6.765625 36.980469 6.519531 34.601562 6.734375 32.273438 C 6.972656 29.585938 7.800781 26.972656 8.988281 24.558594 C 9.050781 24.433594 9.117188 24.308594 9.175781 24.183594 C 9.328125 24.265625 9.472656 24.359375 9.628906 24.433594 C 8.425781 26.90625 7.59375 29.582031 7.367188 32.332031 C 7.175781 34.617188 7.421875 36.949219 8.164062 39.125 C 8.980469 41.546875 10.40625 43.757812 12.269531 45.507812 C 14.140625 47.269531 16.445312 48.574219 18.925781 49.25 C 20.382812 49.648438 21.898438 49.828125 23.40625 49.769531 C 25.011719 49.707031 26.609375 49.363281 28.101562 48.757812 C 30.363281 47.847656 32.351562 46.328125 33.921875 44.472656 C 35.027344 43.179688 35.929688 41.726562 36.675781 40.203125 C 36.183594 40.15625 35.699219 40.0625 35.226562 39.925781 C 34.828125 40.9375 34.320312 41.910156 33.660156 42.78125 C 32.984375 43.675781 32.15625 44.460938 31.21875 45.074219 C 30.289062 45.679688 29.253906 46.113281 28.171875 46.355469 C 26.722656 46.683594 25.191406 46.65625 23.753906 46.28125 C 22.558594 45.972656 21.425781 45.425781 20.449219 44.671875 C 19.597656 44.023438 18.867188 43.21875 18.292969 42.308594 C 17.726562 41.414062 17.316406 40.421875 17.058594 39.394531 C 16.753906 38.167969 16.660156 36.898438 16.730469 35.640625 C 16.90625 35.605469 17.085938 35.605469 17.265625 35.640625 C 17.203125 37.023438 17.328125 38.425781 17.726562 39.753906 C 18.035156 40.789062 18.519531 41.777344 19.171875 42.640625 C 19.8125 43.488281 20.621094 44.214844 21.539062 44.753906 C 22.691406 45.441406 24.007812 45.84375 25.34375 45.949219 C 26.84375 46.070312 28.371094 45.824219 29.75 45.226562 C 30.90625 44.730469 31.949219 43.988281 32.792969 43.058594 C 33.65625 42.113281 34.292969 40.976562 34.699219 39.765625 C 33.890625 39.484375 33.117188 39.109375 32.402344 38.644531 C 32.726562 38.21875 33.039062 37.777344 33.300781 37.304688 C 34.042969 35.988281 34.492188 34.511719 34.625 33.003906 C 34.839844 30.621094 34.230469 28.210938 33.078125 26.128906 C 31.519531 26.261719 29.933594 26.128906 28.429688 25.679688 C 26.9375 25.242188 25.539062 24.503906 24.308594 23.550781 C 22.785156 22.363281 21.492188 20.878906 20.507812 19.214844 "/>
<path style=" stroke:none;fill-rule:nonzero;fill:rgb(92.979431%,79.161072%,37.120056%);fill-opacity:1;" d="M 33.804688 13.480469 C 33.820312 13.464844 33.835938 13.445312 33.847656 13.429688 C 33.851562 13.441406 33.851562 13.460938 33.855469 13.46875 C 35.367188 13.433594 36.890625 13.542969 38.378906 13.832031 C 39.789062 14.101562 41.171875 14.527344 42.476562 15.136719 C 43.605469 15.664062 44.675781 16.328125 45.601562 17.164062 C 46.234375 17.734375 46.789062 18.386719 47.238281 19.105469 C 46.335938 18.644531 45.441406 18.160156 44.539062 17.6875 C 43.605469 16.960938 42.605469 16.308594 41.539062 15.792969 C 40.160156 15.117188 38.679688 14.65625 37.164062 14.421875 C 33.84375 13.90625 30.378906 14.476562 27.359375 15.945312 C 26.011719 16.605469 24.742188 17.445312 23.667969 18.503906 C 25.777344 18.820312 27.851562 19.425781 29.753906 20.394531 C 31.917969 21.492188 33.84375 23.066406 35.320312 24.996094 C 36.726562 26.816406 37.734375 28.933594 38.324219 31.15625 C 39.050781 33.882812 39.167969 36.769531 38.695312 39.550781 C 38.285156 41.921875 37.4375 44.234375 36.101562 46.242188 C 35.300781 47.4375 34.328125 48.519531 33.183594 49.398438 C 33.101562 49.453125 33 49.441406 32.90625 49.457031 C 32.574219 49.488281 32.234375 49.515625 31.902344 49.457031 C 32.957031 48.726562 33.867188 47.800781 34.632812 46.769531 C 36.066406 44.832031 37.003906 42.550781 37.511719 40.203125 C 38.09375 37.496094 38.113281 34.660156 37.515625 31.953125 C 37.019531 29.710938 36.082031 27.554688 34.695312 25.71875 C 33.953125 24.734375 33.089844 23.84375 32.125 23.074219 C 31.039062 22.199219 29.832031 21.484375 28.554688 20.921875 C 26.023438 19.8125 23.257812 19.316406 20.507812 19.214844 C 20.207031 19.003906 19.910156 18.785156 19.640625 18.535156 C 20.527344 18.273438 21.464844 18.289062 22.375 18.386719 C 22.472656 18.394531 22.570312 18.417969 22.667969 18.40625 C 22.835938 18.21875 22.988281 18.011719 23.160156 17.828125 C 24.546875 16.273438 26.386719 15.175781 28.335938 14.480469 C 30.089844 13.859375 31.945312 13.539062 33.804688 13.480469 "/>
<path style=" stroke:none;fill-rule:nonzero;fill:rgb(85.543823%,60.780334%,14.224243%);fill-opacity:1;" d="M 13.484375 13.886719 C 13.953125 13.582031 14.527344 13.492188 15.078125 13.492188 C 15.699219 13.5 16.324219 13.605469 16.90625 13.832031 C 16.828125 14.433594 16.773438 15.039062 16.734375 15.644531 C 16.253906 15.628906 15.800781 15.4375 15.382812 15.214844 C 14.773438 14.878906 14.222656 14.449219 13.667969 14.03125 C 13.605469 13.984375 13.535156 13.945312 13.484375 13.886719 "/>
<path style=" stroke:none;fill-rule:nonzero;fill:rgb(85.543823%,60.780334%,14.224243%);fill-opacity:1;" d="M 17.679688 13.964844 C 18.265625 13.777344 18.878906 13.683594 19.496094 13.65625 C 20.980469 13.597656 22.484375 13.957031 23.78125 14.6875 C 23.472656 15.664062 23.273438 16.671875 23.160156 17.6875 C 23.15625 17.734375 23.15625 17.78125 23.160156 17.828125 C 22.988281 18.011719 22.835938 18.21875 22.667969 18.40625 C 22.570312 18.417969 22.472656 18.394531 22.375 18.386719 C 22.554688 18.089844 22.675781 17.742188 22.640625 17.390625 C 22.601562 16.945312 22.324219 16.546875 21.976562 16.28125 C 21.613281 16 21.175781 15.828125 20.726562 15.746094 C 20.515625 15.707031 20.292969 15.703125 20.078125 15.671875 C 20.035156 15.503906 19.914062 15.371094 19.769531 15.28125 C 19.453125 15.085938 19.050781 15.054688 18.703125 15.175781 C 18.253906 14.890625 17.828125 14.492188 17.679688 13.964844 "/>
<path style=" stroke:none;fill-rule:nonzero;fill:rgb(22.039795%,40.339661%,30.822754%);fill-opacity:1;" d="M 16.90625 13.832031 C 17.167969 13.847656 17.425781 13.902344 17.679688 13.964844 C 17.828125 14.492188 18.253906 14.890625 18.703125 15.175781 C 18.90625 15.527344 19.09375 15.902344 19.144531 16.304688 C 19.414062 16.265625 19.703125 16.214844 19.921875 16.039062 C 20.03125 15.953125 20.097656 15.8125 20.078125 15.671875 C 20.292969 15.703125 20.515625 15.707031 20.726562 15.746094 C 21.175781 15.828125 21.613281 16 21.976562 16.28125 C 22.324219 16.546875 22.601562 16.945312 22.640625 17.390625 C 22.675781 17.742188 22.554688 18.089844 22.375 18.386719 C 21.464844 18.289062 20.527344 18.273438 19.640625 18.535156 C 19.207031 18.390625 18.796875 18.171875 18.460938 17.859375 C 18.015625 17.453125 17.699219 16.941406 17.371094 16.441406 C 17.1875 16.15625 16.988281 15.871094 16.734375 15.644531 C 16.773438 15.039062 16.828125 14.433594 16.90625 13.832031 "/>
<path style=" stroke:none;fill-rule:nonzero;fill:rgb(67.019653%,11.227417%,13.522339%);fill-opacity:1;" d="M 27.359375 15.945312 C 30.378906 14.476562 33.84375 13.90625 37.164062 14.421875 C 38.679688 14.65625 40.160156 15.117188 41.539062 15.792969 C 42.605469 16.308594 43.605469 16.960938 44.539062 17.6875 L 44.582031 17.738281 C 43.246094 17.289062 41.863281 16.964844 40.460938 16.828125 C 39.578125 16.75 38.675781 16.75 37.808594 16.941406 C 37.710938 16.964844 37.613281 16.980469 37.519531 17.019531 C 39.949219 17.84375 42.253906 19.101562 44.15625 20.835938 C 45.953125 22.460938 47.367188 24.503906 48.242188 26.765625 C 49.371094 29.660156 49.617188 32.875 49.035156 35.921875 C 48.523438 38.648438 47.347656 41.25 45.613281 43.417969 C 44.074219 45.355469 42.074219 46.925781 39.816406 47.949219 C 37.867188 48.839844 35.742188 49.3125 33.609375 49.417969 C 33.460938 49.417969 33.308594 49.441406 33.160156 49.417969 L 33.183594 49.398438 C 34.328125 48.519531 35.300781 47.4375 36.101562 46.242188 C 37.4375 44.234375 38.285156 41.921875 38.695312 39.550781 C 39.167969 36.769531 39.050781 33.882812 38.324219 31.15625 C 37.734375 28.933594 36.726562 26.816406 35.320312 24.996094 C 33.84375 23.066406 31.917969 21.492188 29.753906 20.394531 C 27.851562 19.425781 25.777344 18.820312 23.667969 18.503906 C 24.742188 17.445312 26.011719 16.605469 27.359375 15.945312 "/>
<path style=" stroke:none;fill-rule:nonzero;fill:rgb(100%,100%,100%);fill-opacity:1;" d="M 18.703125 15.175781 C 19.050781 15.054688 19.453125 15.085938 19.769531 15.28125 C 19.914062 15.371094 20.035156 15.503906 20.078125 15.671875 C 20.097656 15.8125 20.03125 15.953125 19.921875 16.039062 C 19.703125 16.214844 19.414062 16.265625 19.144531 16.304688 C 19.09375 15.902344 18.90625 15.527344 18.703125 15.175781 "/>
</g>
</svg>
