<?xml version="1.0" encoding="UTF-8"?>
<svg xmlns="http://www.w3.org/2000/svg" xmlns:xlink="http://www.w3.org/1999/xlink" width="56pt" height="56pt" viewBox="0 0 56 56" version="1.1">
<g id="surface1">
<rect x="0" y="0" width="56" height="56" style="fill:rgb(35.650635%,36.203003%,36.940002%);fill-opacity:1;stroke:none;"/>
<path style=" stroke:none;fill-rule:nonzero;fill:rgb(93.203735%,13.287354%,19.677734%);fill-opacity:1;" d="M 13.25 41.09375 C 21.875 38.136719 29.234375 33.742188 29.964844 33.117188 C 26.382812 34.199219 24.886719 32.820312 24.886719 32.820312 C 25.902344 32.566406 28.746094 32.050781 29.40625 30.378906 C 29.914062 28.453125 28.035156 27.691406 26.871094 26.726562 C 19.871094 22.316406 12.570312 18.664062 5.320312 14.863281 C 16.070312 15.722656 25.90625 21.335938 36.910156 18.898438 L 34.527344 21.25 C 33.917969 22.113281 33.160156 23.382812 33.96875 24.394531 L 34.527344 24.902344 C 34.527344 24.902344 36.457031 25.828125 38.382812 24.191406 C 40.304688 22.558594 45.957031 12.34375 50.957031 15.265625 C 42.589844 19.191406 42.359375 24.097656 37.386719 29.402344 C 33.058594 34.3125 25.527344 38.566406 13.25 41.09375 "/>
</g>
</svg>
