<?xml version="1.0" encoding="UTF-8"?>
<svg xmlns="http://www.w3.org/2000/svg" xmlns:xlink="http://www.w3.org/1999/xlink" width="56pt" height="56pt" viewBox="0 0 56 56" version="1.1">
<defs>
<clipPath id="clip1">
  <path d="M 2 17 L 54 17 L 54 39 L 2 39 Z M 2 17 "/>
</clipPath>
<clipPath id="clip2">
  <path d="M 14.65625 21.140625 C 14.574219 21.140625 14.488281 21.171875 14.421875 21.234375 L 6.339844 28.882812 C 6.238281 28.976562 6.207031 29.125 6.257812 29.257812 C 6.308594 29.386719 6.433594 29.46875 6.574219 29.46875 L 12.3125 29.46875 C 12.460938 29.46875 12.59375 29.371094 12.636719 29.230469 L 14.984375 21.582031 C 15.027344 21.433594 14.96875 21.273438 14.835938 21.191406 C 14.78125 21.15625 14.71875 21.140625 14.65625 21.140625 Z M 43.777344 21.75 C 43.636719 21.75 43.511719 21.832031 43.460938 21.964844 L 40.070312 30.480469 C 40.027344 30.585938 40.039062 30.707031 40.105469 30.796875 C 40.167969 30.894531 40.273438 30.949219 40.386719 30.949219 L 44.730469 30.949219 C 44.828125 30.949219 44.921875 30.90625 44.984375 30.835938 C 45.050781 30.761719 45.082031 30.664062 45.070312 30.570312 L 44.113281 22.050781 C 44.097656 21.898438 43.976562 21.773438 43.820312 21.753906 C 43.804688 21.75 43.789062 21.75 43.777344 21.75 Z M 45.3125 38.785156 L 45.070312 35.019531 C 45.058594 34.839844 44.910156 34.699219 44.730469 34.699219 L 38.472656 34.699219 C 38.335938 34.699219 38.214844 34.78125 38.160156 34.90625 L 36.511719 38.785156 L 31.738281 38.785156 L 36.273438 25.941406 C 36.332031 25.78125 36.261719 25.601562 36.109375 25.523438 C 36.058594 25.5 36.007812 25.484375 35.953125 25.484375 C 35.84375 25.484375 35.738281 25.539062 35.671875 25.632812 L 26.476562 38.785156 L 20.746094 38.785156 L 21.289062 23.664062 C 21.292969 23.496094 21.179688 23.351562 21.015625 23.320312 C 20.992188 23.3125 20.96875 23.3125 20.949219 23.3125 C 20.808594 23.3125 20.679688 23.394531 20.628906 23.527344 L 14.6875 38.785156 L 9.449219 38.785156 L 11.753906 33.703125 C 11.800781 33.597656 11.789062 33.472656 11.726562 33.378906 C 11.664062 33.28125 11.558594 33.222656 11.441406 33.222656 C 11.441406 33.222656 2.132812 33.304688 2.132812 33.304688 L 2.132812 28.832031 L 13.324219 17.214844 L 26.554688 17.214844 L 25.964844 28.15625 C 25.957031 28.304688 26.050781 28.445312 26.195312 28.496094 C 26.230469 28.507812 26.269531 28.515625 26.304688 28.515625 C 26.414062 28.515625 26.519531 28.460938 26.582031 28.371094 L 34.476562 17.214844 L 48.671875 17.214844 L 49.605469 30.804688 C 49.621094 30.984375 49.769531 31.121094 49.949219 31.121094 L 53.867188 31.121094 L 53.867188 34.09375 L 50.554688 34.09375 C 50.460938 34.09375 50.371094 34.132812 50.304688 34.199219 C 50.242188 34.269531 50.210938 34.363281 50.214844 34.457031 L 50.535156 38.785156 Z M 45.3125 38.785156 "/>
</clipPath>
<clipPath id="clip3">
  <path d="M 14.65625 21.140625 C 14.574219 21.140625 14.488281 21.171875 14.421875 21.234375 L 6.339844 28.882812 C 6.238281 28.976562 6.207031 29.125 6.257812 29.257812 C 6.308594 29.386719 6.433594 29.46875 6.574219 29.46875 L 12.3125 29.46875 C 12.460938 29.46875 12.59375 29.371094 12.636719 29.230469 L 14.984375 21.582031 C 15.027344 21.433594 14.96875 21.273438 14.835938 21.191406 C 14.78125 21.15625 14.71875 21.140625 14.65625 21.140625 Z M 43.777344 21.75 C 43.636719 21.75 43.511719 21.832031 43.460938 21.964844 L 40.070312 30.480469 C 40.027344 30.585938 40.039062 30.707031 40.105469 30.796875 C 40.167969 30.894531 40.273438 30.949219 40.386719 30.949219 L 44.730469 30.949219 C 44.828125 30.949219 44.921875 30.90625 44.984375 30.835938 C 45.050781 30.761719 45.082031 30.664062 45.070312 30.570312 L 44.113281 22.050781 C 44.097656 21.898438 43.976562 21.773438 43.820312 21.753906 C 43.804688 21.75 43.789062 21.75 43.777344 21.75 Z M 45.3125 38.785156 L 45.070312 35.019531 C 45.058594 34.839844 44.910156 34.699219 44.730469 34.699219 L 38.472656 34.699219 C 38.335938 34.699219 38.214844 34.78125 38.160156 34.90625 L 36.511719 38.785156 L 31.738281 38.785156 L 36.273438 25.941406 C 36.332031 25.78125 36.261719 25.601562 36.109375 25.523438 C 36.058594 25.5 36.007812 25.484375 35.953125 25.484375 C 35.84375 25.484375 35.738281 25.539062 35.671875 25.632812 L 26.476562 38.785156 L 20.746094 38.785156 L 21.289062 23.664062 C 21.292969 23.496094 21.179688 23.351562 21.015625 23.320312 C 20.992188 23.3125 20.96875 23.3125 20.949219 23.3125 C 20.808594 23.3125 20.679688 23.394531 20.628906 23.527344 L 14.6875 38.785156 L 9.449219 38.785156 L 11.753906 33.703125 C 11.800781 33.597656 11.789062 33.472656 11.726562 33.378906 C 11.664062 33.28125 11.558594 33.222656 11.441406 33.222656 C 11.441406 33.222656 2.132812 33.304688 2.132812 33.304688 L 2.132812 28.832031 L 13.324219 17.214844 L 26.554688 17.214844 L 25.964844 28.15625 C 25.957031 28.304688 26.050781 28.445312 26.195312 28.496094 C 26.230469 28.507812 26.269531 28.515625 26.304688 28.515625 C 26.414062 28.515625 26.519531 28.460938 26.582031 28.371094 L 34.476562 17.214844 L 48.671875 17.214844 L 49.605469 30.804688 C 49.621094 30.984375 49.769531 31.121094 49.949219 31.121094 L 53.867188 31.121094 L 53.867188 34.09375 L 50.554688 34.09375 C 50.460938 34.09375 50.371094 34.132812 50.304688 34.199219 C 50.242188 34.269531 50.210938 34.363281 50.214844 34.457031 L 50.535156 38.785156 L 45.3125 38.785156 "/>
</clipPath>
<linearGradient id="linear0" gradientUnits="userSpaceOnUse" x1="-0.0332564" y1="0" x2="1.030908" y2="0" gradientTransform="matrix(0,20.2698,-20.2698,0,28.0001,17.8889)">
<stop offset="0" style="stop-color:rgb(95.089722%,75.097656%,5.13916%);stop-opacity:1;"/>
<stop offset="0.03125" style="stop-color:rgb(95.089722%,75.097656%,5.13916%);stop-opacity:1;"/>
<stop offset="0.0351562" style="stop-color:rgb(95.077515%,74.92981%,5.1651%);stop-opacity:1;"/>
<stop offset="0.0390625" style="stop-color:rgb(95.065308%,74.758911%,5.19104%);stop-opacity:1;"/>
<stop offset="0.0429688" style="stop-color:rgb(95.053101%,74.597168%,5.207825%);stop-opacity:1;"/>
<stop offset="0.046875" style="stop-color:rgb(95.040894%,74.433899%,5.223083%);stop-opacity:1;"/>
<stop offset="0.0546875" style="stop-color:rgb(95.03479%,74.34845%,5.149841%);stop-opacity:1;"/>
<stop offset="0.0625" style="stop-color:rgb(95.022583%,74.176025%,5.001831%);stop-opacity:1;"/>
<stop offset="0.0703125" style="stop-color:rgb(95.010376%,74.003601%,4.853821%);stop-opacity:1;"/>
<stop offset="0.078125" style="stop-color:rgb(94.970703%,73.803711%,4.716492%);stop-opacity:1;"/>
<stop offset="0.0820312" style="stop-color:rgb(94.830322%,73.498535%,4.621887%);stop-opacity:1;"/>
<stop offset="0.0859375" style="stop-color:rgb(94.721985%,73.306274%,4.588318%);stop-opacity:1;"/>
<stop offset="0.09375" style="stop-color:rgb(94.650269%,73.153687%,4.571533%);stop-opacity:1;"/>
<stop offset="0.101562" style="stop-color:rgb(94.573975%,72.917175%,4.568481%);stop-opacity:1;"/>
<stop offset="0.109375" style="stop-color:rgb(94.558716%,72.709656%,4.602051%);stop-opacity:1;"/>
<stop offset="0.113281" style="stop-color:rgb(94.537354%,72.418213%,4.649353%);stop-opacity:1;"/>
<stop offset="0.117188" style="stop-color:rgb(94.525146%,72.24884%,4.676819%);stop-opacity:1;"/>
<stop offset="0.121094" style="stop-color:rgb(94.512939%,72.079468%,4.702759%);stop-opacity:1;"/>
<stop offset="0.125" style="stop-color:rgb(94.500732%,71.910095%,4.730225%);stop-opacity:1;"/>
<stop offset="0.128906" style="stop-color:rgb(94.488525%,71.740723%,4.75769%);stop-opacity:1;"/>
<stop offset="0.132812" style="stop-color:rgb(94.476318%,71.57135%,4.785156%);stop-opacity:1;"/>
<stop offset="0.140625" style="stop-color:rgb(94.467163%,71.456909%,4.803467%);stop-opacity:1;"/>
<stop offset="0.148438" style="stop-color:rgb(94.45343%,71.257019%,4.83551%);stop-opacity:1;"/>
<stop offset="0.15625" style="stop-color:rgb(94.50531%,71.038818%,4.853821%);stop-opacity:1;"/>
<stop offset="0.160156" style="stop-color:rgb(94.647217%,70.758057%,4.859924%);stop-opacity:1;"/>
<stop offset="0.164062" style="stop-color:rgb(94.728088%,70.606995%,4.86145%);stop-opacity:1;"/>
<stop offset="0.167969" style="stop-color:rgb(94.732666%,70.440674%,4.884338%);stop-opacity:1;"/>
<stop offset="0.171875" style="stop-color:rgb(94.737244%,70.274353%,4.907227%);stop-opacity:1;"/>
<stop offset="0.175781" style="stop-color:rgb(94.725037%,70.106506%,4.934692%);stop-opacity:1;"/>
<stop offset="0.179688" style="stop-color:rgb(94.71283%,69.935608%,4.962158%);stop-opacity:1;"/>
<stop offset="0.1875" style="stop-color:rgb(94.7052%,69.844055%,4.975891%);stop-opacity:1;"/>
<stop offset="0.195312" style="stop-color:rgb(94.692993%,69.667053%,5.004883%);stop-opacity:1;"/>
<stop offset="0.199219" style="stop-color:rgb(94.674683%,69.412231%,5.046082%);stop-opacity:1;"/>
<stop offset="0.203125" style="stop-color:rgb(94.66095%,69.242859%,5.073547%);stop-opacity:1;"/>
<stop offset="0.207031" style="stop-color:rgb(94.650269%,69.081116%,5.099487%);stop-opacity:1;"/>
<stop offset="0.210937" style="stop-color:rgb(94.638062%,68.917847%,5.125427%);stop-opacity:1;"/>
<stop offset="0.21875" style="stop-color:rgb(94.631958%,68.833923%,5.13916%);stop-opacity:1;"/>
<stop offset="0.226563" style="stop-color:rgb(94.618225%,68.650818%,5.169678%);stop-opacity:1;"/>
<stop offset="0.230469" style="stop-color:rgb(94.598389%,68.380737%,5.212402%);stop-opacity:1;"/>
<stop offset="0.234375" style="stop-color:rgb(94.586182%,68.211365%,5.239868%);stop-opacity:1;"/>
<stop offset="0.242188" style="stop-color:rgb(94.5755%,68.06488%,5.262756%);stop-opacity:1;"/>
<stop offset="0.25" style="stop-color:rgb(94.558716%,67.832947%,5.300903%);stop-opacity:1;"/>
<stop offset="0.257812" style="stop-color:rgb(94.543457%,67.633057%,5.332947%);stop-opacity:1;"/>
<stop offset="0.261719" style="stop-color:rgb(94.522095%,67.349243%,5.378723%);stop-opacity:1;"/>
<stop offset="0.265625" style="stop-color:rgb(94.509888%,67.178345%,5.406189%);stop-opacity:1;"/>
<stop offset="0.273438" style="stop-color:rgb(94.500732%,67.047119%,5.427551%);stop-opacity:1;"/>
<stop offset="0.28125" style="stop-color:rgb(94.483948%,66.83197%,5.462646%);stop-opacity:1;"/>
<stop offset="0.289062" style="stop-color:rgb(94.468689%,66.615295%,5.497742%);stop-opacity:1;"/>
<stop offset="0.292969" style="stop-color:rgb(94.447327%,66.316223%,5.545044%);stop-opacity:1;"/>
<stop offset="0.296875" style="stop-color:rgb(94.433594%,66.146851%,5.57251%);stop-opacity:1;"/>
<stop offset="0.304688" style="stop-color:rgb(94.425964%,66.030884%,5.59082%);stop-opacity:1;"/>
<stop offset="0.3125" style="stop-color:rgb(94.410706%,65.830994%,5.62439%);stop-opacity:1;"/>
<stop offset="0.320312" style="stop-color:rgb(94.398499%,65.660095%,5.651855%);stop-opacity:1;"/>
<stop offset="0.328125" style="stop-color:rgb(94.386292%,65.492249%,5.677795%);stop-opacity:1;"/>
<stop offset="0.335938" style="stop-color:rgb(94.367981%,65.252686%,5.717468%);stop-opacity:1;"/>
<stop offset="0.339844" style="stop-color:rgb(94.345093%,64.930725%,5.769348%);stop-opacity:1;"/>
<stop offset="0.34375" style="stop-color:rgb(94.332886%,64.759827%,5.796814%);stop-opacity:1;"/>
<stop offset="0.347656" style="stop-color:rgb(94.319153%,64.590454%,5.82428%);stop-opacity:1;"/>
<stop offset="0.351562" style="stop-color:rgb(94.306946%,64.419556%,5.851746%);stop-opacity:1;"/>
<stop offset="0.355469" style="stop-color:rgb(94.294739%,64.251709%,5.877686%);stop-opacity:1;"/>
<stop offset="0.359375" style="stop-color:rgb(94.282532%,64.082336%,5.905151%);stop-opacity:1;"/>
<stop offset="0.367188" style="stop-color:rgb(94.369507%,64.013672%,5.895996%);stop-opacity:1;"/>
<stop offset="0.375" style="stop-color:rgb(94.53125%,63.865662%,5.879211%);stop-opacity:1;"/>
<stop offset="0.378906" style="stop-color:rgb(94.595337%,63.616943%,5.900574%);stop-opacity:1;"/>
<stop offset="0.382812" style="stop-color:rgb(94.58313%,63.447571%,5.92804%);stop-opacity:1;"/>
<stop offset="0.386719" style="stop-color:rgb(94.569397%,63.278198%,5.955505%);stop-opacity:1;"/>
<stop offset="0.390625" style="stop-color:rgb(94.55719%,63.1073%,5.982971%);stop-opacity:1;"/>
<stop offset="0.394531" style="stop-color:rgb(94.544983%,62.937927%,6.010437%);stop-opacity:1;"/>
<stop offset="0.398437" style="stop-color:rgb(94.532776%,62.768555%,6.037903%);stop-opacity:1;"/>
<stop offset="0.40625" style="stop-color:rgb(94.520569%,62.62207%,6.062317%);stop-opacity:1;"/>
<stop offset="0.414062" style="stop-color:rgb(94.503784%,62.390137%,6.098938%);stop-opacity:1;"/>
<stop offset="0.421875" style="stop-color:rgb(94.491577%,62.219238%,6.126404%);stop-opacity:1;"/>
<stop offset="0.429687" style="stop-color:rgb(94.477844%,62.049866%,6.15387%);stop-opacity:1;"/>
<stop offset="0.4375" style="stop-color:rgb(94.462585%,61.842346%,6.187439%);stop-opacity:1;"/>
<stop offset="0.441406" style="stop-color:rgb(94.441223%,61.549377%,6.234741%);stop-opacity:1;"/>
<stop offset="0.445313" style="stop-color:rgb(94.429016%,61.380005%,6.263733%);stop-opacity:1;"/>
<stop offset="0.453125" style="stop-color:rgb(94.419861%,61.256409%,6.283569%);stop-opacity:1;"/>
<stop offset="0.460938" style="stop-color:rgb(94.403076%,61.045837%,6.317139%);stop-opacity:1;"/>
<stop offset="0.46875" style="stop-color:rgb(94.386292%,60.823059%,6.35376%);stop-opacity:1;"/>
<stop offset="0.472656" style="stop-color:rgb(94.363403%,60.514832%,6.402588%);stop-opacity:1;"/>
<stop offset="0.476562" style="stop-color:rgb(94.351196%,60.345459%,6.430054%);stop-opacity:1;"/>
<stop offset="0.480469" style="stop-color:rgb(94.338989%,60.176086%,6.45752%);stop-opacity:1;"/>
<stop offset="0.484375" style="stop-color:rgb(94.325256%,60.005188%,6.484985%);stop-opacity:1;"/>
<stop offset="0.488281" style="stop-color:rgb(94.313049%,59.835815%,6.512451%);stop-opacity:1;"/>
<stop offset="0.492188" style="stop-color:rgb(94.300842%,59.664917%,6.541443%);stop-opacity:1;"/>
<stop offset="0.5" style="stop-color:rgb(94.293213%,59.565735%,6.556702%);stop-opacity:1;"/>
<stop offset="0.507812" style="stop-color:rgb(94.27948%,59.379578%,6.587219%);stop-opacity:1;"/>
<stop offset="0.515625" style="stop-color:rgb(94.265747%,59.210205%,6.614685%);stop-opacity:1;"/>
<stop offset="0.523438" style="stop-color:rgb(94.25354%,59.039307%,6.642151%);stop-opacity:1;"/>
<stop offset="0.527344" style="stop-color:rgb(94.235229%,58.786011%,6.68335%);stop-opacity:1;"/>
<stop offset="0.53125" style="stop-color:rgb(94.221497%,58.615112%,6.710815%);stop-opacity:1;"/>
<stop offset="0.535156" style="stop-color:rgb(94.216919%,58.447266%,6.736755%);stop-opacity:1;"/>
<stop offset="0.539063" style="stop-color:rgb(94.212341%,58.279419%,6.761169%);stop-opacity:1;"/>
<stop offset="0.542969" style="stop-color:rgb(94.291687%,58.122253%,6.767273%);stop-opacity:1;"/>
<stop offset="0.546875" style="stop-color:rgb(94.367981%,57.965088%,6.773376%);stop-opacity:1;"/>
<stop offset="0.554688" style="stop-color:rgb(94.430542%,57.820129%,6.781006%);stop-opacity:1;"/>
<stop offset="0.5625" style="stop-color:rgb(94.485474%,57.589722%,6.802368%);stop-opacity:1;"/>
<stop offset="0.570313" style="stop-color:rgb(94.470215%,57.397461%,6.832886%);stop-opacity:1;"/>
<stop offset="0.574219" style="stop-color:rgb(94.448853%,57.119751%,6.878662%);stop-opacity:1;"/>
<stop offset="0.578125" style="stop-color:rgb(94.436646%,56.948853%,6.906128%);stop-opacity:1;"/>
<stop offset="0.585938" style="stop-color:rgb(94.425964%,56.809998%,6.929016%);stop-opacity:1;"/>
<stop offset="0.59375" style="stop-color:rgb(94.40918%,56.585693%,6.965637%);stop-opacity:1;"/>
<stop offset="0.601562" style="stop-color:rgb(94.392395%,56.376648%,6.999207%);stop-opacity:1;"/>
<stop offset="0.605469" style="stop-color:rgb(94.371033%,56.083679%,7.046509%);stop-opacity:1;"/>
<stop offset="0.609375" style="stop-color:rgb(94.3573%,55.912781%,7.0755%);stop-opacity:1;"/>
<stop offset="0.613281" style="stop-color:rgb(94.345093%,55.743408%,7.102966%);stop-opacity:1;"/>
<stop offset="0.617188" style="stop-color:rgb(94.33136%,55.57251%,7.130432%);stop-opacity:1;"/>
<stop offset="0.621094" style="stop-color:rgb(94.319153%,55.403137%,7.157898%);stop-opacity:1;"/>
<stop offset="0.625" style="stop-color:rgb(94.306946%,55.233765%,7.185364%);stop-opacity:1;"/>
<stop offset="0.632812" style="stop-color:rgb(94.297791%,55.116272%,7.203674%);stop-opacity:1;"/>
<stop offset="0.640625" style="stop-color:rgb(94.282532%,54.914856%,7.237244%);stop-opacity:1;"/>
<stop offset="0.648438" style="stop-color:rgb(94.268799%,54.745483%,7.264709%);stop-opacity:1;"/>
<stop offset="0.65625" style="stop-color:rgb(94.256592%,54.574585%,7.292175%);stop-opacity:1;"/>
<stop offset="0.664062" style="stop-color:rgb(94.238281%,54.335022%,7.331848%);stop-opacity:1;"/>
<stop offset="0.667969" style="stop-color:rgb(94.213867%,54.011536%,7.383728%);stop-opacity:1;"/>
<stop offset="0.671875" style="stop-color:rgb(94.200134%,53.840637%,7.41272%);stop-opacity:1;"/>
<stop offset="0.675781" style="stop-color:rgb(94.267273%,53.68042%,7.420349%);stop-opacity:1;"/>
<stop offset="0.679688" style="stop-color:rgb(94.335938%,53.520203%,7.43103%);stop-opacity:1;"/>
<stop offset="0.683594" style="stop-color:rgb(94.412231%,53.359985%,7.437134%);stop-opacity:1;"/>
<stop offset="0.6875" style="stop-color:rgb(94.487%,53.199768%,7.444763%);stop-opacity:1;"/>
<stop offset="0.691406" style="stop-color:rgb(94.473267%,53.030396%,7.472229%);stop-opacity:1;"/>
<stop offset="0.695312" style="stop-color:rgb(94.459534%,52.859497%,7.501221%);stop-opacity:1;"/>
<stop offset="0.699219" style="stop-color:rgb(94.447327%,52.696228%,7.527161%);stop-opacity:1;"/>
<stop offset="0.703125" style="stop-color:rgb(94.43512%,52.532959%,7.554626%);stop-opacity:1;"/>
<stop offset="0.710938" style="stop-color:rgb(94.429016%,52.44751%,7.568359%);stop-opacity:1;"/>
<stop offset="0.71875" style="stop-color:rgb(94.413757%,52.261353%,7.598877%);stop-opacity:1;"/>
<stop offset="0.722656" style="stop-color:rgb(94.393921%,51.992798%,7.641602%);stop-opacity:1;"/>
<stop offset="0.726562" style="stop-color:rgb(94.380188%,51.821899%,7.670593%);stop-opacity:1;"/>
<stop offset="0.730469" style="stop-color:rgb(94.345093%,51.647949%,7.702637%);stop-opacity:1;"/>
<stop offset="0.734375" style="stop-color:rgb(94.308472%,51.473999%,7.736206%);stop-opacity:1;"/>
<stop offset="0.738281" style="stop-color:rgb(94.207764%,51.295471%,7.783508%);stop-opacity:1;"/>
<stop offset="0.742188" style="stop-color:rgb(94.10553%,51.115417%,7.832336%);stop-opacity:1;"/>
<stop offset="0.75" style="stop-color:rgb(94.039917%,50.970459%,7.867432%);stop-opacity:1;"/>
<stop offset="0.757812" style="stop-color:rgb(93.965149%,50.740051%,7.917786%);stop-opacity:1;"/>
<stop offset="0.765625" style="stop-color:rgb(93.910217%,50.526428%,7.96051%);stop-opacity:1;"/>
<stop offset="0.769531" style="stop-color:rgb(93.762207%,50.221252%,8.035278%);stop-opacity:1;"/>
<stop offset="0.773437" style="stop-color:rgb(93.663025%,50.041199%,8.082581%);stop-opacity:1;"/>
<stop offset="0.78125" style="stop-color:rgb(93.612671%,49.914551%,8.111572%);stop-opacity:1;"/>
<stop offset="0.789062" style="stop-color:rgb(93.556213%,49.702454%,8.155823%);stop-opacity:1;"/>
<stop offset="0.796875" style="stop-color:rgb(93.539429%,49.478149%,8.190918%);stop-opacity:1;"/>
<stop offset="0.800781" style="stop-color:rgb(93.516541%,49.171448%,8.241272%);stop-opacity:1;"/>
<stop offset="0.804687" style="stop-color:rgb(93.504333%,49.000549%,8.268738%);stop-opacity:1;"/>
<stop offset="0.808594" style="stop-color:rgb(93.490601%,48.829651%,8.296204%);stop-opacity:1;"/>
<stop offset="0.8125" style="stop-color:rgb(93.478394%,48.660278%,8.323669%);stop-opacity:1;"/>
<stop offset="0.816406" style="stop-color:rgb(93.466187%,48.490906%,8.351135%);stop-opacity:1;"/>
<stop offset="0.820312" style="stop-color:rgb(93.452454%,48.320007%,8.378601%);stop-opacity:1;"/>
<stop offset="0.824219" style="stop-color:rgb(93.510437%,48.158264%,8.390808%);stop-opacity:1;"/>
<stop offset="0.828125" style="stop-color:rgb(93.56842%,47.993469%,8.403015%);stop-opacity:1;"/>
<stop offset="0.832031" style="stop-color:rgb(93.643188%,47.831726%,8.41217%);stop-opacity:1;"/>
<stop offset="0.835937" style="stop-color:rgb(93.716431%,47.669983%,8.4198%);stop-opacity:1;"/>
<stop offset="0.84375" style="stop-color:rgb(93.717957%,47.576904%,8.433533%);stop-opacity:1;"/>
<stop offset="0.851562" style="stop-color:rgb(93.711853%,47.399902%,8.460999%);stop-opacity:1;"/>
<stop offset="0.855469" style="stop-color:rgb(93.692017%,47.143555%,8.502197%);stop-opacity:1;"/>
<stop offset="0.859375" style="stop-color:rgb(93.67981%,46.974182%,8.529663%);stop-opacity:1;"/>
<stop offset="0.863281" style="stop-color:rgb(93.667603%,46.810913%,8.557129%);stop-opacity:1;"/>
<stop offset="0.867188" style="stop-color:rgb(93.655396%,46.64917%,8.583069%);stop-opacity:1;"/>
<stop offset="0.875" style="stop-color:rgb(93.647766%,46.563721%,8.596802%);stop-opacity:1;"/>
<stop offset="0.882812" style="stop-color:rgb(93.634033%,46.377563%,8.627319%);stop-opacity:1;"/>
<stop offset="0.886719" style="stop-color:rgb(93.614197%,46.109009%,8.67157%);stop-opacity:1;"/>
<stop offset="0.890625" style="stop-color:rgb(93.600464%,45.93811%,8.699036%);stop-opacity:1;"/>
<stop offset="0.898438" style="stop-color:rgb(93.589783%,45.7901%,8.72345%);stop-opacity:1;"/>
<stop offset="0.90625" style="stop-color:rgb(93.571472%,45.558167%,8.760071%);stop-opacity:1;"/>
<stop offset="0.914062" style="stop-color:rgb(93.556213%,45.358276%,8.79364%);stop-opacity:1;"/>
<stop offset="0.917969" style="stop-color:rgb(93.534851%,45.072937%,8.839417%);stop-opacity:1;"/>
<stop offset="0.921875" style="stop-color:rgb(93.522644%,44.902039%,8.866882%);stop-opacity:1;"/>
<stop offset="0.929688" style="stop-color:rgb(93.511963%,44.770813%,8.888245%);stop-opacity:1;"/>
<stop offset="0.9375" style="stop-color:rgb(93.495178%,44.552612%,8.924866%);stop-opacity:1;"/>
<stop offset="0.945313" style="stop-color:rgb(93.479919%,44.337463%,8.959961%);stop-opacity:1;"/>
<stop offset="0.949219" style="stop-color:rgb(93.457031%,44.036865%,9.008789%);stop-opacity:1;"/>
<stop offset="0.953125" style="stop-color:rgb(93.443298%,43.865967%,9.036255%);stop-opacity:1;"/>
<stop offset="0.957031" style="stop-color:rgb(93.431091%,43.696594%,9.063721%);stop-opacity:1;"/>
<stop offset="0.960937" style="stop-color:rgb(93.417358%,43.525696%,9.091187%);stop-opacity:1;"/>
<stop offset="0.964844" style="stop-color:rgb(93.405151%,43.356323%,9.118652%);stop-opacity:1;"/>
<stop offset="0.96875" style="stop-color:rgb(93.391418%,43.185425%,9.147644%);stop-opacity:1;"/>
<stop offset="1" style="stop-color:rgb(93.388367%,43.138123%,9.155273%);stop-opacity:1;"/>
</linearGradient>
</defs>
<g id="surface1">
<rect x="0" y="0" width="56" height="56" style="fill:rgb(95.66803%,95.779419%,96.777344%);fill-opacity:1;stroke:none;"/>
<g clip-path="url(#clip1)" clip-rule="nonzero">
<g clip-path="url(#clip2)" clip-rule="nonzero">
<g clip-path="url(#clip3)" clip-rule="nonzero">
<path style=" stroke:none;fill-rule:nonzero;fill:url(#linear0);" d="M 53.867188 17.214844 L 2.132812 17.214844 L 2.132812 38.785156 L 53.867188 38.785156 Z M 53.867188 17.214844 "/>
</g>
</g>
</g>
<path style=" stroke:none;fill-rule:nonzero;fill:rgb(56.445312%,18.565369%,11.811829%);fill-opacity:1;" d="M 40.386719 30.605469 L 43.777344 22.089844 L 44.730469 30.605469 Z M 6.574219 29.128906 L 14.65625 21.480469 L 12.3125 29.128906 Z M 48.992188 16.875 L 34.300781 16.875 L 26.304688 28.171875 L 26.914062 16.875 L 13.179688 16.875 L 1.792969 28.695312 L 1.792969 33.648438 L 11.441406 33.5625 L 8.921875 39.125 L 14.917969 39.125 L 20.949219 23.652344 L 20.394531 39.125 L 26.652344 39.125 L 35.953125 25.828125 L 31.261719 39.125 L 36.734375 39.125 L 38.472656 35.039062 L 44.730469 35.039062 L 44.992188 39.125 L 50.902344 39.125 L 50.554688 34.429688 L 54.207031 34.429688 L 54.207031 30.78125 L 49.949219 30.78125 Z M 40.386719 31.289062 L 44.730469 31.289062 C 44.925781 31.289062 45.109375 31.207031 45.238281 31.0625 C 45.367188 30.917969 45.429688 30.722656 45.40625 30.53125 L 44.453125 22.015625 C 44.417969 21.703125 44.175781 21.457031 43.867188 21.414062 C 43.835938 21.410156 43.804688 21.410156 43.777344 21.410156 C 43.5 21.410156 43.246094 21.578125 43.144531 21.839844 L 39.753906 30.355469 C 39.667969 30.566406 39.695312 30.800781 39.824219 30.988281 C 39.949219 31.175781 40.160156 31.289062 40.386719 31.289062 M 6.574219 29.808594 L 12.3125 29.808594 C 12.609375 29.808594 12.875 29.613281 12.960938 29.332031 L 15.308594 21.679688 C 15.398438 21.386719 15.28125 21.066406 15.015625 20.902344 C 14.90625 20.835938 14.78125 20.800781 14.65625 20.800781 C 14.488281 20.800781 14.320312 20.863281 14.191406 20.984375 L 6.105469 28.636719 C 5.902344 28.828125 5.839844 29.121094 5.941406 29.382812 C 6.042969 29.640625 6.296875 29.808594 6.574219 29.808594 M 48.355469 17.554688 L 49.269531 30.828125 C 49.292969 31.183594 49.589844 31.460938 49.949219 31.460938 L 53.527344 31.460938 L 53.527344 33.75 L 50.554688 33.75 C 50.367188 33.75 50.183594 33.832031 50.054688 33.96875 C 49.925781 34.105469 49.863281 34.292969 49.875 34.480469 L 50.167969 38.445312 L 45.632812 38.445312 L 45.410156 34.996094 C 45.390625 34.640625 45.089844 34.359375 44.730469 34.359375 L 38.472656 34.359375 C 38.203125 34.359375 37.953125 34.523438 37.847656 34.773438 L 36.285156 38.445312 L 32.222656 38.445312 L 36.59375 26.054688 C 36.707031 25.730469 36.566406 25.378906 36.265625 25.222656 C 36.164062 25.171875 36.058594 25.144531 35.953125 25.144531 C 35.738281 25.144531 35.527344 25.25 35.394531 25.4375 L 26.296875 38.445312 L 21.101562 38.445312 L 21.628906 23.675781 C 21.640625 23.34375 21.410156 23.050781 21.085938 22.984375 C 21.039062 22.976562 20.992188 22.972656 20.945312 22.972656 C 20.671875 22.972656 20.414062 23.140625 20.3125 23.40625 L 14.453125 38.445312 L 9.976562 38.445312 L 12.0625 33.84375 C 12.15625 33.632812 12.140625 33.386719 12.011719 33.191406 C 11.886719 32.996094 11.671875 32.882812 11.441406 32.882812 C 11.441406 32.882812 11.4375 32.882812 11.4375 32.882812 L 2.476562 32.964844 L 2.476562 28.96875 L 13.46875 17.554688 L 26.195312 17.554688 L 25.625 28.136719 C 25.609375 28.441406 25.792969 28.71875 26.082031 28.816406 C 26.15625 28.84375 26.230469 28.855469 26.304688 28.855469 C 26.523438 28.855469 26.730469 28.75 26.859375 28.566406 L 34.65625 17.554688 L 48.355469 17.554688 "/>
</g>
</svg>
