<?xml version="1.0" encoding="UTF-8"?>
<svg xmlns="http://www.w3.org/2000/svg" xmlns:xlink="http://www.w3.org/1999/xlink" width="56pt" height="56pt" viewBox="0 0 56 56" version="1.1">
<defs>
<clipPath id="clip1">
  <path d="M 2 20 L 54 20 L 54 36 L 2 36 Z M 2 20 "/>
</clipPath>
<clipPath id="clip2">
  <path d="M 21.375 30.320312 C 21.484375 30.335938 21.546875 30.347656 21.609375 30.347656 C 23.207031 30.347656 24.804688 30.347656 26.402344 30.347656 C 26.644531 30.347656 26.652344 30.339844 26.566406 30.105469 C 26.179688 29.074219 25.789062 28.042969 25.402344 27.011719 C 25.246094 26.605469 25.230469 26.59375 24.90625 26.902344 C 23.796875 27.953125 22.695312 29.011719 21.589844 30.070312 C 21.523438 30.136719 21.464844 30.214844 21.375 30.320312 Z M 2.320312 24.972656 C 2.484375 24.648438 2.679688 24.335938 2.8125 24 C 3.203125 22.988281 3.78125 22.136719 4.722656 21.558594 C 5.375 21.160156 6.089844 20.941406 6.835938 20.8125 C 7.8125 20.644531 8.792969 20.605469 9.78125 20.605469 C 13.945312 20.609375 18.105469 20.609375 22.269531 20.609375 C 22.558594 20.609375 22.578125 20.613281 22.527344 20.875 C 22.238281 22.347656 21.558594 23.582031 20.265625 24.398438 C 19.339844 24.980469 18.300781 25.105469 17.222656 24.992188 C 16.449219 24.90625 15.675781 24.890625 14.90625 25.070312 C 14.347656 25.203125 13.921875 25.503906 13.707031 26.035156 C 13.375 26.847656 13.066406 27.667969 12.757812 28.488281 C 12.265625 29.792969 11.785156 31.097656 11.289062 32.402344 C 11.191406 32.65625 11.042969 32.890625 10.910156 33.152344 C 11.203125 33.175781 11.449219 33.070312 11.691406 32.972656 C 12.554688 32.625 13.320312 32.113281 14.027344 31.527344 C 15.171875 30.578125 16.292969 29.597656 17.40625 28.617188 C 18.835938 27.355469 20.25 26.078125 21.671875 24.816406 C 22.625 23.972656 23.589844 23.144531 24.535156 22.300781 C 25.410156 21.523438 26.40625 20.984375 27.535156 20.703125 C 27.707031 20.660156 27.878906 20.640625 28.054688 20.609375 C 28.257812 20.578125 28.414062 20.648438 28.507812 20.835938 C 28.6875 21.203125 28.894531 21.5625 29.039062 21.941406 C 29.671875 23.585938 30.28125 25.238281 30.90625 26.886719 C 31.515625 28.488281 32.097656 30.101562 32.898438 31.617188 C 33.089844 31.976562 33.34375 32.300781 33.570312 32.640625 C 33.605469 32.691406 33.664062 32.726562 33.734375 32.789062 C 33.746094 32.730469 33.761719 32.703125 33.757812 32.671875 C 33.574219 31.414062 33.824219 30.21875 34.285156 29.046875 C 34.652344 28.117188 34.960938 27.160156 35.328125 26.230469 C 35.851562 24.894531 36.570312 23.671875 37.667969 22.71875 C 38.984375 21.570312 40.476562 20.796875 42.246094 20.664062 C 42.621094 20.636719 43 20.609375 43.375 20.609375 C 46.808594 20.605469 50.246094 20.609375 53.679688 20.609375 C 53.679688 20.644531 53.679688 20.675781 53.679688 20.710938 C 53.648438 20.792969 53.601562 20.871094 53.578125 20.957031 C 53.402344 21.621094 53.167969 22.261719 52.828125 22.863281 C 52.265625 23.847656 51.425781 24.453125 50.335938 24.730469 C 49.503906 24.945312 48.652344 25.007812 47.800781 25.011719 C 45.902344 25.015625 44.007812 24.988281 42.109375 24.980469 C 41.828125 24.976562 41.542969 25 41.257812 25.027344 C 40.628906 25.089844 40.179688 25.414062 39.941406 26 C 39.75 26.453125 39.578125 26.914062 39.40625 27.375 C 39.121094 28.132812 38.847656 28.894531 38.574219 29.65625 C 38.515625 29.824219 38.453125 29.988281 38.414062 30.15625 C 38.347656 30.464844 38.4375 30.605469 38.746094 30.65625 C 39.027344 30.699219 39.3125 30.71875 39.59375 30.71875 C 42.929688 30.71875 46.265625 30.710938 49.597656 30.707031 C 49.96875 30.707031 49.984375 30.714844 49.867188 31.054688 C 49.628906 31.742188 49.390625 32.429688 49.105469 33.09375 C 48.996094 33.351562 48.789062 33.59375 48.570312 33.773438 C 47.761719 34.417969 46.824219 34.804688 45.816406 35.03125 C 44.789062 35.257812 43.75 35.34375 42.707031 35.347656 C 38.769531 35.355469 34.832031 35.351562 30.898438 35.339844 C 30.441406 35.335938 29.980469 35.265625 29.535156 35.167969 C 28.726562 34.996094 28.230469 34.46875 27.992188 33.683594 C 27.902344 33.382812 27.898438 33.386719 27.582031 33.382812 C 25.71875 33.339844 23.855469 33.28125 21.992188 33.265625 C 20.789062 33.253906 19.585938 33.308594 18.398438 33.515625 C 17.773438 33.628906 17.15625 33.785156 16.601562 34.117188 C 15.765625 34.617188 14.859375 34.914062 13.910156 35.097656 C 12.816406 35.3125 11.707031 35.390625 10.59375 35.394531 C 9.132812 35.402344 7.671875 35.371094 6.207031 35.355469 C 6.167969 35.355469 6.125 35.347656 6.082031 35.351562 C 5.914062 35.363281 5.851562 35.289062 5.902344 35.125 C 6.03125 34.691406 6.136719 34.253906 6.292969 33.832031 C 7.085938 31.683594 7.902344 29.546875 8.691406 27.402344 C 8.941406 26.71875 9.148438 26.023438 9.367188 25.328125 C 9.460938 25.027344 9.449219 25.019531 9.113281 25.019531 C 6.972656 25.019531 4.835938 25.019531 2.695312 25.019531 C 2.570312 25.019531 2.445312 25.023438 2.320312 25.023438 C 2.320312 25.007812 2.320312 24.988281 2.320312 24.972656 Z M 2.320312 24.972656 "/>
</clipPath>
<clipPath id="clip3">
  <path d="M 21.375 30.320312 C 21.484375 30.335938 21.546875 30.347656 21.609375 30.347656 C 23.207031 30.347656 24.804688 30.347656 26.402344 30.347656 C 26.644531 30.347656 26.652344 30.339844 26.566406 30.105469 C 26.179688 29.074219 25.789062 28.042969 25.402344 27.011719 C 25.246094 26.605469 25.230469 26.59375 24.90625 26.902344 C 23.796875 27.953125 22.695312 29.011719 21.589844 30.070312 C 21.523438 30.136719 21.464844 30.214844 21.375 30.320312 Z M 2.320312 24.972656 C 2.484375 24.648438 2.679688 24.335938 2.8125 24 C 3.203125 22.988281 3.78125 22.136719 4.722656 21.558594 C 5.375 21.160156 6.089844 20.941406 6.835938 20.8125 C 7.8125 20.644531 8.792969 20.605469 9.78125 20.605469 C 13.945312 20.609375 18.105469 20.609375 22.269531 20.609375 C 22.558594 20.609375 22.578125 20.613281 22.527344 20.875 C 22.238281 22.347656 21.558594 23.582031 20.265625 24.398438 C 19.339844 24.980469 18.300781 25.105469 17.222656 24.992188 C 16.449219 24.90625 15.675781 24.890625 14.90625 25.070312 C 14.347656 25.203125 13.921875 25.503906 13.707031 26.035156 C 13.375 26.847656 13.066406 27.667969 12.757812 28.488281 C 12.265625 29.792969 11.785156 31.097656 11.289062 32.402344 C 11.191406 32.65625 11.042969 32.890625 10.910156 33.152344 C 11.203125 33.175781 11.449219 33.070312 11.691406 32.972656 C 12.554688 32.625 13.320312 32.113281 14.027344 31.527344 C 15.171875 30.578125 16.292969 29.597656 17.40625 28.617188 C 18.835938 27.355469 20.25 26.078125 21.671875 24.816406 C 22.625 23.972656 23.589844 23.144531 24.535156 22.300781 C 25.410156 21.523438 26.40625 20.984375 27.535156 20.703125 C 27.707031 20.660156 27.878906 20.640625 28.054688 20.609375 C 28.257812 20.578125 28.414062 20.648438 28.507812 20.835938 C 28.6875 21.203125 28.894531 21.5625 29.039062 21.941406 C 29.671875 23.585938 30.28125 25.238281 30.90625 26.886719 C 31.515625 28.488281 32.097656 30.101562 32.898438 31.617188 C 33.089844 31.976562 33.34375 32.300781 33.570312 32.640625 C 33.605469 32.691406 33.664062 32.726562 33.734375 32.789062 C 33.746094 32.730469 33.761719 32.703125 33.757812 32.671875 C 33.574219 31.414062 33.824219 30.21875 34.285156 29.046875 C 34.652344 28.117188 34.960938 27.160156 35.328125 26.230469 C 35.851562 24.894531 36.570312 23.671875 37.667969 22.71875 C 38.984375 21.570312 40.476562 20.796875 42.246094 20.664062 C 42.621094 20.636719 43 20.609375 43.375 20.609375 C 46.808594 20.605469 50.246094 20.609375 53.679688 20.609375 C 53.679688 20.644531 53.679688 20.675781 53.679688 20.710938 C 53.648438 20.792969 53.601562 20.871094 53.578125 20.957031 C 53.402344 21.621094 53.167969 22.261719 52.828125 22.863281 C 52.265625 23.847656 51.425781 24.453125 50.335938 24.730469 C 49.503906 24.945312 48.652344 25.007812 47.800781 25.011719 C 45.902344 25.015625 44.007812 24.988281 42.109375 24.980469 C 41.828125 24.976562 41.542969 25 41.257812 25.027344 C 40.628906 25.089844 40.179688 25.414062 39.941406 26 C 39.75 26.453125 39.578125 26.914062 39.40625 27.375 C 39.121094 28.132812 38.847656 28.894531 38.574219 29.65625 C 38.515625 29.824219 38.453125 29.988281 38.414062 30.15625 C 38.347656 30.464844 38.4375 30.605469 38.746094 30.65625 C 39.027344 30.699219 39.3125 30.71875 39.59375 30.71875 C 42.929688 30.71875 46.265625 30.710938 49.597656 30.707031 C 49.96875 30.707031 49.984375 30.714844 49.867188 31.054688 C 49.628906 31.742188 49.390625 32.429688 49.105469 33.09375 C 48.996094 33.351562 48.789062 33.59375 48.570312 33.773438 C 47.761719 34.417969 46.824219 34.804688 45.816406 35.03125 C 44.789062 35.257812 43.75 35.34375 42.707031 35.347656 C 38.769531 35.355469 34.832031 35.351562 30.898438 35.339844 C 30.441406 35.335938 29.980469 35.265625 29.535156 35.167969 C 28.726562 34.996094 28.230469 34.46875 27.992188 33.683594 C 27.902344 33.382812 27.898438 33.386719 27.582031 33.382812 C 25.71875 33.339844 23.855469 33.28125 21.992188 33.265625 C 20.789062 33.253906 19.585938 33.308594 18.398438 33.515625 C 17.773438 33.628906 17.15625 33.785156 16.601562 34.117188 C 15.765625 34.617188 14.859375 34.914062 13.910156 35.097656 C 12.816406 35.3125 11.707031 35.390625 10.59375 35.394531 C 9.132812 35.402344 7.671875 35.371094 6.207031 35.355469 C 6.167969 35.355469 6.125 35.347656 6.082031 35.351562 C 5.914062 35.363281 5.851562 35.289062 5.902344 35.125 C 6.03125 34.691406 6.136719 34.253906 6.292969 33.832031 C 7.085938 31.683594 7.902344 29.546875 8.691406 27.402344 C 8.941406 26.71875 9.148438 26.023438 9.367188 25.328125 C 9.460938 25.027344 9.449219 25.019531 9.113281 25.019531 C 6.972656 25.019531 4.835938 25.019531 2.695312 25.019531 C 2.570312 25.019531 2.445312 25.023438 2.320312 25.023438 C 2.320312 25.007812 2.320312 24.988281 2.320312 24.972656 "/>
</clipPath>
<linearGradient id="linear0" gradientUnits="userSpaceOnUse" x1="0.0283841" y1="0" x2="1.03816" y2="0" gradientTransform="matrix(-0.307281,15.6713,-15.6713,-0.307281,28.063,19.6308)">
<stop offset="0" style="stop-color:rgb(22.709656%,57.417297%,75.814819%);stop-opacity:1;"/>
<stop offset="0.00390625" style="stop-color:rgb(22.666931%,57.199097%,75.639343%);stop-opacity:1;"/>
<stop offset="0.0078125" style="stop-color:rgb(22.624207%,56.980896%,75.463867%);stop-opacity:1;"/>
<stop offset="0.0117187" style="stop-color:rgb(22.589111%,56.739807%,75.276184%);stop-opacity:1;"/>
<stop offset="0.015625" style="stop-color:rgb(22.554016%,56.498718%,75.088501%);stop-opacity:1;"/>
<stop offset="0.0195312" style="stop-color:rgb(22.509766%,56.289673%,74.920654%);stop-opacity:1;"/>
<stop offset="0.0234375" style="stop-color:rgb(22.467041%,56.080627%,74.752808%);stop-opacity:1;"/>
<stop offset="0.0273437" style="stop-color:rgb(22.418213%,55.897522%,74.598694%);stop-opacity:1;"/>
<stop offset="0.03125" style="stop-color:rgb(22.369385%,55.712891%,74.44458%);stop-opacity:1;"/>
<stop offset="0.0351563" style="stop-color:rgb(22.319031%,55.529785%,74.32251%);stop-opacity:1;"/>
<stop offset="0.0390625" style="stop-color:rgb(22.270203%,55.348206%,74.198914%);stop-opacity:1;"/>
<stop offset="0.0429688" style="stop-color:rgb(22.2229%,55.1651%,74.102783%);stop-opacity:1;"/>
<stop offset="0.046875" style="stop-color:rgb(22.174072%,54.983521%,74.006653%);stop-opacity:1;"/>
<stop offset="0.0507812" style="stop-color:rgb(22.116089%,54.776001%,73.815918%);stop-opacity:1;"/>
<stop offset="0.0546875" style="stop-color:rgb(22.058105%,54.568481%,73.625183%);stop-opacity:1;"/>
<stop offset="0.0585938" style="stop-color:rgb(21.992493%,54.338074%,73.352051%);stop-opacity:1;"/>
<stop offset="0.0625" style="stop-color:rgb(21.92688%,54.10614%,73.080444%);stop-opacity:1;"/>
<stop offset="0.0664063" style="stop-color:rgb(21.871948%,53.904724%,72.872925%);stop-opacity:1;"/>
<stop offset="0.0703125" style="stop-color:rgb(21.815491%,53.700256%,72.663879%);stop-opacity:1;"/>
<stop offset="0.0742188" style="stop-color:rgb(21.768188%,53.520203%,72.512817%);stop-opacity:1;"/>
<stop offset="0.078125" style="stop-color:rgb(21.722412%,53.341675%,72.361755%);stop-opacity:1;"/>
<stop offset="0.0820313" style="stop-color:rgb(21.629333%,53.153992%,72.241211%);stop-opacity:1;"/>
<stop offset="0.0859375" style="stop-color:rgb(21.537781%,52.96936%,72.120667%);stop-opacity:1;"/>
<stop offset="0.0898438" style="stop-color:rgb(21.403503%,52.778625%,72.027588%);stop-opacity:1;"/>
<stop offset="0.09375" style="stop-color:rgb(21.2677%,52.586365%,71.934509%);stop-opacity:1;"/>
<stop offset="0.0976562" style="stop-color:rgb(21.179199%,52.403259%,71.812439%);stop-opacity:1;"/>
<stop offset="0.101562" style="stop-color:rgb(21.089172%,52.220154%,71.691895%);stop-opacity:1;"/>
<stop offset="0.105469" style="stop-color:rgb(21.043396%,52.043152%,71.543884%);stop-opacity:1;"/>
<stop offset="0.109375" style="stop-color:rgb(20.99762%,51.86615%,71.394348%);stop-opacity:1;"/>
<stop offset="0.113281" style="stop-color:rgb(20.910645%,51.68457%,71.247864%);stop-opacity:1;"/>
<stop offset="0.117188" style="stop-color:rgb(20.823669%,51.502991%,71.099854%);stop-opacity:1;"/>
<stop offset="0.121094" style="stop-color:rgb(20.690918%,51.313782%,70.951843%);stop-opacity:1;"/>
<stop offset="0.125" style="stop-color:rgb(20.559692%,51.126099%,70.805359%);stop-opacity:1;"/>
<stop offset="0.128906" style="stop-color:rgb(20.469666%,50.946045%,70.658875%);stop-opacity:1;"/>
<stop offset="0.132813" style="stop-color:rgb(20.381165%,50.764465%,70.51239%);stop-opacity:1;"/>
<stop offset="0.136719" style="stop-color:rgb(20.336914%,50.592041%,70.367432%);stop-opacity:1;"/>
<stop offset="0.140625" style="stop-color:rgb(20.292664%,50.418091%,70.219421%);stop-opacity:1;"/>
<stop offset="0.144531" style="stop-color:rgb(20.249939%,50.245667%,70.074463%);stop-opacity:1;"/>
<stop offset="0.148438" style="stop-color:rgb(20.207214%,50.073242%,69.927979%);stop-opacity:1;"/>
<stop offset="0.152344" style="stop-color:rgb(20.16449%,49.900818%,69.781494%);stop-opacity:1;"/>
<stop offset="0.15625" style="stop-color:rgb(20.120239%,49.728394%,69.636536%);stop-opacity:1;"/>
<stop offset="0.160156" style="stop-color:rgb(20.033264%,49.531555%,69.464111%);stop-opacity:1;"/>
<stop offset="0.164063" style="stop-color:rgb(19.943237%,49.334717%,69.291687%);stop-opacity:1;"/>
<stop offset="0.167969" style="stop-color:rgb(19.795227%,49.108887%,69.088745%);stop-opacity:1;"/>
<stop offset="0.171875" style="stop-color:rgb(19.650269%,48.883057%,68.885803%);stop-opacity:1;"/>
<stop offset="0.175781" style="stop-color:rgb(19.549561%,48.683167%,68.731689%);stop-opacity:1;"/>
<stop offset="0.179688" style="stop-color:rgb(19.450378%,48.483276%,68.577576%);stop-opacity:1;"/>
<stop offset="0.183594" style="stop-color:rgb(19.40918%,48.316956%,68.486023%);stop-opacity:1;"/>
<stop offset="0.1875" style="stop-color:rgb(19.366455%,48.147583%,68.39447%);stop-opacity:1;"/>
<stop offset="0.191406" style="stop-color:rgb(19.317627%,47.961426%,68.257141%);stop-opacity:1;"/>
<stop offset="0.195312" style="stop-color:rgb(19.268799%,47.775269%,68.118286%);stop-opacity:1;"/>
<stop offset="0.199219" style="stop-color:rgb(19.210815%,47.566223%,67.915344%);stop-opacity:1;"/>
<stop offset="0.203125" style="stop-color:rgb(19.152832%,47.355652%,67.712402%);stop-opacity:1;"/>
<stop offset="0.207031" style="stop-color:rgb(19.102478%,47.164917%,67.5354%);stop-opacity:1;"/>
<stop offset="0.210938" style="stop-color:rgb(19.05365%,46.972656%,67.356873%);stop-opacity:1;"/>
<stop offset="0.214844" style="stop-color:rgb(19.013977%,46.807861%,67.216492%);stop-opacity:1;"/>
<stop offset="0.21875" style="stop-color:rgb(18.974304%,46.641541%,67.074585%);stop-opacity:1;"/>
<stop offset="0.222656" style="stop-color:rgb(18.899536%,46.473694%,66.93573%);stop-opacity:1;"/>
<stop offset="0.226562" style="stop-color:rgb(18.826294%,46.304321%,66.795349%);stop-opacity:1;"/>
<stop offset="0.230469" style="stop-color:rgb(18.702698%,46.131897%,66.656494%);stop-opacity:1;"/>
<stop offset="0.234375" style="stop-color:rgb(18.579102%,45.957947%,66.519165%);stop-opacity:1;"/>
<stop offset="0.238281" style="stop-color:rgb(18.481445%,45.773315%,66.377258%);stop-opacity:1;"/>
<stop offset="0.242188" style="stop-color:rgb(18.383789%,45.588684%,66.233826%);stop-opacity:1;"/>
<stop offset="0.246094" style="stop-color:rgb(18.330383%,45.385742%,66.087341%);stop-opacity:1;"/>
<stop offset="0.25" style="stop-color:rgb(18.273926%,45.1828%,65.937805%);stop-opacity:1;"/>
<stop offset="0.253906" style="stop-color:rgb(18.231201%,44.976807%,65.782166%);stop-opacity:1;"/>
<stop offset="0.257813" style="stop-color:rgb(18.186951%,44.769287%,65.626526%);stop-opacity:1;"/>
<stop offset="0.261719" style="stop-color:rgb(18.165588%,44.558716%,65.457153%);stop-opacity:1;"/>
<stop offset="0.265625" style="stop-color:rgb(18.1427%,44.346619%,65.289307%);stop-opacity:1;"/>
<stop offset="0.269531" style="stop-color:rgb(18.080139%,44.136047%,65.110779%);stop-opacity:1;"/>
<stop offset="0.273438" style="stop-color:rgb(18.014526%,43.927002%,64.933777%);stop-opacity:1;"/>
<stop offset="0.277344" style="stop-color:rgb(17.878723%,43.721008%,64.73999%);stop-opacity:1;"/>
<stop offset="0.28125" style="stop-color:rgb(17.74292%,43.515015%,64.547729%);stop-opacity:1;"/>
<stop offset="0.285156" style="stop-color:rgb(17.636108%,43.313599%,64.353943%);stop-opacity:1;"/>
<stop offset="0.289063" style="stop-color:rgb(17.530823%,43.110657%,64.161682%);stop-opacity:1;"/>
<stop offset="0.292969" style="stop-color:rgb(17.478943%,42.915344%,63.967896%);stop-opacity:1;"/>
<stop offset="0.296875" style="stop-color:rgb(17.427063%,42.718506%,63.772583%);stop-opacity:1;"/>
<stop offset="0.300781" style="stop-color:rgb(17.378235%,42.523193%,63.580322%);stop-opacity:1;"/>
<stop offset="0.304688" style="stop-color:rgb(17.326355%,42.327881%,63.386536%);stop-opacity:1;"/>
<stop offset="0.308594" style="stop-color:rgb(17.276001%,42.134094%,63.197327%);stop-opacity:1;"/>
<stop offset="0.3125" style="stop-color:rgb(17.224121%,41.940308%,63.005066%);stop-opacity:1;"/>
<stop offset="0.316406" style="stop-color:rgb(17.179871%,41.760254%,62.831116%);stop-opacity:1;"/>
<stop offset="0.320313" style="stop-color:rgb(17.134094%,41.5802%,62.658691%);stop-opacity:1;"/>
<stop offset="0.324219" style="stop-color:rgb(17.100525%,41.426086%,62.52594%);stop-opacity:1;"/>
<stop offset="0.328125" style="stop-color:rgb(17.06543%,41.271973%,62.391663%);stop-opacity:1;"/>
<stop offset="0.332031" style="stop-color:rgb(17.028809%,41.107178%,62.240601%);stop-opacity:1;"/>
<stop offset="0.335938" style="stop-color:rgb(16.989136%,40.942383%,62.089539%);stop-opacity:1;"/>
<stop offset="0.339844" style="stop-color:rgb(16.940308%,40.751648%,61.901855%);stop-opacity:1;"/>
<stop offset="0.34375" style="stop-color:rgb(16.891479%,40.562439%,61.712646%);stop-opacity:1;"/>
<stop offset="0.347656" style="stop-color:rgb(16.818237%,40.371704%,61.524963%);stop-opacity:1;"/>
<stop offset="0.351563" style="stop-color:rgb(16.743469%,40.180969%,61.33728%);stop-opacity:1;"/>
<stop offset="0.355469" style="stop-color:rgb(16.61377%,39.988708%,61.152649%);stop-opacity:1;"/>
<stop offset="0.359375" style="stop-color:rgb(16.48407%,39.796448%,60.966492%);stop-opacity:1;"/>
<stop offset="0.363281" style="stop-color:rgb(16.381836%,39.607239%,60.783386%);stop-opacity:1;"/>
<stop offset="0.367188" style="stop-color:rgb(16.27655%,39.41803%,60.597229%);stop-opacity:1;"/>
<stop offset="0.371094" style="stop-color:rgb(16.229248%,39.233398%,60.412598%);stop-opacity:1;"/>
<stop offset="0.375" style="stop-color:rgb(16.181946%,39.047241%,60.22644%);stop-opacity:1;"/>
<stop offset="0.378906" style="stop-color:rgb(16.159058%,38.865662%,60.040283%);stop-opacity:1;"/>
<stop offset="0.382812" style="stop-color:rgb(16.134644%,38.682556%,59.854126%);stop-opacity:1;"/>
<stop offset="0.386719" style="stop-color:rgb(16.168213%,38.502502%,59.667969%);stop-opacity:1;"/>
<stop offset="0.390625" style="stop-color:rgb(16.201782%,38.322449%,59.480286%);stop-opacity:1;"/>
<stop offset="0.394531" style="stop-color:rgb(16.197205%,38.128662%,59.288025%);stop-opacity:1;"/>
<stop offset="0.398438" style="stop-color:rgb(16.191101%,37.934875%,59.095764%);stop-opacity:1;"/>
<stop offset="0.402344" style="stop-color:rgb(16.081238%,37.702942%,58.888245%);stop-opacity:1;"/>
<stop offset="0.40625" style="stop-color:rgb(15.9729%,37.472534%,58.679199%);stop-opacity:1;"/>
<stop offset="0.410156" style="stop-color:rgb(15.881348%,37.255859%,58.477783%);stop-opacity:1;"/>
<stop offset="0.414062" style="stop-color:rgb(15.788269%,37.039185%,58.277893%);stop-opacity:1;"/>
<stop offset="0.417969" style="stop-color:rgb(15.744019%,36.862183%,58.097839%);stop-opacity:1;"/>
<stop offset="0.421875" style="stop-color:rgb(15.699768%,36.683655%,57.91626%);stop-opacity:1;"/>
<stop offset="0.425781" style="stop-color:rgb(15.632629%,36.497498%,57.723999%);stop-opacity:1;"/>
<stop offset="0.429688" style="stop-color:rgb(15.563965%,36.31134%,57.530212%);stop-opacity:1;"/>
<stop offset="0.433594" style="stop-color:rgb(15.428162%,36.099243%,57.299805%);stop-opacity:1;"/>
<stop offset="0.4375" style="stop-color:rgb(15.292358%,35.887146%,57.069397%);stop-opacity:1;"/>
<stop offset="0.441406" style="stop-color:rgb(15.176392%,35.68573%,56.861877%);stop-opacity:1;"/>
<stop offset="0.445312" style="stop-color:rgb(15.061951%,35.484314%,56.654358%);stop-opacity:1;"/>
<stop offset="0.449219" style="stop-color:rgb(15.019226%,35.310364%,56.520081%);stop-opacity:1;"/>
<stop offset="0.453125" style="stop-color:rgb(14.974976%,35.136414%,56.384277%);stop-opacity:1;"/>
<stop offset="0.457031" style="stop-color:rgb(14.932251%,34.963989%,56.240845%);stop-opacity:1;"/>
<stop offset="0.460938" style="stop-color:rgb(14.888%,34.791565%,56.095886%);stop-opacity:1;"/>
<stop offset="0.464844" style="stop-color:rgb(14.845276%,34.620667%,55.92041%);stop-opacity:1;"/>
<stop offset="0.46875" style="stop-color:rgb(14.804077%,34.449768%,55.743408%);stop-opacity:1;"/>
<stop offset="0.472656" style="stop-color:rgb(14.764404%,34.280396%,55.567932%);stop-opacity:1;"/>
<stop offset="0.476562" style="stop-color:rgb(14.723206%,34.111023%,55.392456%);stop-opacity:1;"/>
<stop offset="0.480469" style="stop-color:rgb(14.682007%,33.94165%,55.218506%);stop-opacity:1;"/>
<stop offset="0.484375" style="stop-color:rgb(14.640808%,33.773804%,55.04303%);stop-opacity:1;"/>
<stop offset="0.488281" style="stop-color:rgb(14.596558%,33.598328%,54.849243%);stop-opacity:1;"/>
<stop offset="0.492188" style="stop-color:rgb(14.553833%,33.424377%,54.655457%);stop-opacity:1;"/>
<stop offset="0.496094" style="stop-color:rgb(14.500427%,33.226013%,54.389954%);stop-opacity:1;"/>
<stop offset="0.5" style="stop-color:rgb(14.447021%,33.027649%,54.122925%);stop-opacity:1;"/>
<stop offset="0.503906" style="stop-color:rgb(14.38446%,32.835388%,53.875732%);stop-opacity:1;"/>
<stop offset="0.507813" style="stop-color:rgb(14.318848%,32.644653%,53.62854%);stop-opacity:1;"/>
<stop offset="0.511719" style="stop-color:rgb(14.204407%,32.48291%,53.462219%);stop-opacity:1;"/>
<stop offset="0.515625" style="stop-color:rgb(14.089966%,32.319641%,53.294373%);stop-opacity:1;"/>
<stop offset="0.519531" style="stop-color:rgb(13.987732%,32.151794%,53.117371%);stop-opacity:1;"/>
<stop offset="0.523438" style="stop-color:rgb(13.885498%,31.983948%,52.940369%);stop-opacity:1;"/>
<stop offset="0.527344" style="stop-color:rgb(13.832092%,31.790161%,52.719116%);stop-opacity:1;"/>
<stop offset="0.53125" style="stop-color:rgb(13.780212%,31.5979%,52.496338%);stop-opacity:1;"/>
<stop offset="0.535156" style="stop-color:rgb(13.719177%,31.411743%,52.285767%);stop-opacity:1;"/>
<stop offset="0.539063" style="stop-color:rgb(13.658142%,31.225586%,52.073669%);stop-opacity:1;"/>
<stop offset="0.542969" style="stop-color:rgb(13.545227%,31.06842%,51.9104%);stop-opacity:1;"/>
<stop offset="0.546875" style="stop-color:rgb(13.435364%,30.911255%,51.745605%);stop-opacity:1;"/>
<stop offset="0.550781" style="stop-color:rgb(13.334656%,30.749512%,51.574707%);stop-opacity:1;"/>
<stop offset="0.554688" style="stop-color:rgb(13.233948%,30.589294%,51.402283%);stop-opacity:1;"/>
<stop offset="0.558594" style="stop-color:rgb(13.183594%,30.401611%,51.184082%);stop-opacity:1;"/>
<stop offset="0.5625" style="stop-color:rgb(13.13324%,30.213928%,50.967407%);stop-opacity:1;"/>
<stop offset="0.566406" style="stop-color:rgb(13.085938%,30.032349%,50.756836%);stop-opacity:1;"/>
<stop offset="0.570313" style="stop-color:rgb(13.038635%,29.850769%,50.547791%);stop-opacity:1;"/>
<stop offset="0.574219" style="stop-color:rgb(13.002014%,29.696655%,50.384521%);stop-opacity:1;"/>
<stop offset="0.578125" style="stop-color:rgb(12.966919%,29.542542%,50.219727%);stop-opacity:1;"/>
<stop offset="0.582031" style="stop-color:rgb(12.930298%,29.385376%,50.048828%);stop-opacity:1;"/>
<stop offset="0.585938" style="stop-color:rgb(12.892151%,29.22821%,49.87793%);stop-opacity:1;"/>
<stop offset="0.589844" style="stop-color:rgb(12.844849%,29.046631%,49.664307%);stop-opacity:1;"/>
<stop offset="0.59375" style="stop-color:rgb(12.796021%,28.863525%,49.450684%);stop-opacity:1;"/>
<stop offset="0.597656" style="stop-color:rgb(12.747192%,28.683472%,49.234009%);stop-opacity:1;"/>
<stop offset="0.601563" style="stop-color:rgb(12.69989%,28.503418%,49.017334%);stop-opacity:1;"/>
<stop offset="0.605469" style="stop-color:rgb(12.654114%,28.32489%,48.770142%);stop-opacity:1;"/>
<stop offset="0.609375" style="stop-color:rgb(12.608337%,28.146362%,48.521423%);stop-opacity:1;"/>
<stop offset="0.613281" style="stop-color:rgb(12.57019%,27.967834%,48.277283%);stop-opacity:1;"/>
<stop offset="0.617188" style="stop-color:rgb(12.530518%,27.790833%,48.034668%);stop-opacity:1;"/>
<stop offset="0.621094" style="stop-color:rgb(12.553406%,27.610779%,47.822571%);stop-opacity:1;"/>
<stop offset="0.625" style="stop-color:rgb(12.576294%,27.429199%,47.608948%);stop-opacity:1;"/>
<stop offset="0.628906" style="stop-color:rgb(12.599182%,27.252197%,47.402954%);stop-opacity:1;"/>
<stop offset="0.632813" style="stop-color:rgb(12.62207%,27.075195%,47.195435%);stop-opacity:1;"/>
<stop offset="0.636719" style="stop-color:rgb(12.658691%,26.925659%,47.033691%);stop-opacity:1;"/>
<stop offset="0.640625" style="stop-color:rgb(12.693787%,26.774597%,46.873474%);stop-opacity:1;"/>
<stop offset="0.644531" style="stop-color:rgb(12.727356%,26.626587%,46.710205%);stop-opacity:1;"/>
<stop offset="0.648438" style="stop-color:rgb(12.760925%,26.477051%,46.548462%);stop-opacity:1;"/>
<stop offset="0.65625" style="stop-color:rgb(12.767029%,26.341248%,46.363831%);stop-opacity:1;"/>
<stop offset="0.660156" style="stop-color:rgb(12.77771%,26.065063%,45.996094%);stop-opacity:1;"/>
<stop offset="0.664063" style="stop-color:rgb(12.783813%,25.926208%,45.809937%);stop-opacity:1;"/>
<stop offset="0.667969" style="stop-color:rgb(12.80365%,25.750732%,45.603943%);stop-opacity:1;"/>
<stop offset="0.671875" style="stop-color:rgb(12.825012%,25.575256%,45.396423%);stop-opacity:1;"/>
<stop offset="0.675781" style="stop-color:rgb(12.843323%,25.401306%,45.188904%);stop-opacity:1;"/>
<stop offset="0.679688" style="stop-color:rgb(12.861633%,25.227356%,44.981384%);stop-opacity:1;"/>
<stop offset="0.683594" style="stop-color:rgb(12.850952%,25.067139%,44.752502%);stop-opacity:1;"/>
<stop offset="0.6875" style="stop-color:rgb(12.840271%,24.905396%,44.522095%);stop-opacity:1;"/>
<stop offset="0.691406" style="stop-color:rgb(12.82959%,24.746704%,44.296265%);stop-opacity:1;"/>
<stop offset="0.695313" style="stop-color:rgb(12.818909%,24.588013%,44.070435%);stop-opacity:1;"/>
<stop offset="0.703125" style="stop-color:rgb(12.82196%,24.455261%,43.891907%);stop-opacity:1;"/>
<stop offset="0.710938" style="stop-color:rgb(12.828064%,24.19281%,43.534851%);stop-opacity:1;"/>
<stop offset="0.71875" style="stop-color:rgb(12.835693%,23.930359%,43.144226%);stop-opacity:1;"/>
<stop offset="0.722656" style="stop-color:rgb(12.844849%,23.670959%,42.726135%);stop-opacity:1;"/>
<stop offset="0.726563" style="stop-color:rgb(12.849426%,23.54126%,42.518616%);stop-opacity:1;"/>
<stop offset="0.730469" style="stop-color:rgb(12.867737%,23.371887%,42.318726%);stop-opacity:1;"/>
<stop offset="0.734375" style="stop-color:rgb(12.884521%,23.204041%,42.118835%);stop-opacity:1;"/>
<stop offset="0.738281" style="stop-color:rgb(12.901306%,23.036194%,41.921997%);stop-opacity:1;"/>
<stop offset="0.742188" style="stop-color:rgb(12.918091%,22.869873%,41.723633%);stop-opacity:1;"/>
<stop offset="0.75" style="stop-color:rgb(12.921143%,22.743225%,41.517639%);stop-opacity:1;"/>
<stop offset="0.757812" style="stop-color:rgb(12.927246%,22.489929%,41.108704%);stop-opacity:1;"/>
<stop offset="0.765625" style="stop-color:rgb(12.928772%,22.236633%,40.763855%);stop-opacity:1;"/>
<stop offset="0.773438" style="stop-color:rgb(12.927246%,21.981812%,40.483093%);stop-opacity:1;"/>
<stop offset="0.777344" style="stop-color:rgb(12.893677%,21.679688%,40.081787%);stop-opacity:1;"/>
<stop offset="0.78125" style="stop-color:rgb(12.863159%,21.504211%,39.819336%);stop-opacity:1;"/>
<stop offset="0.785156" style="stop-color:rgb(12.831116%,21.328735%,39.556885%);stop-opacity:1;"/>
<stop offset="0.789062" style="stop-color:rgb(12.799072%,21.154785%,39.294434%);stop-opacity:1;"/>
<stop offset="0.792969" style="stop-color:rgb(12.765503%,21.040344%,39.129639%);stop-opacity:1;"/>
<stop offset="0.796875" style="stop-color:rgb(12.731934%,20.925903%,38.963318%);stop-opacity:1;"/>
<stop offset="0.800781" style="stop-color:rgb(12.69989%,20.814514%,38.801575%);stop-opacity:1;"/>
<stop offset="0.804688" style="stop-color:rgb(12.666321%,20.701599%,38.638306%);stop-opacity:1;"/>
<stop offset="0.808594" style="stop-color:rgb(12.64801%,20.556641%,38.427734%);stop-opacity:1;"/>
<stop offset="0.8125" style="stop-color:rgb(12.6297%,20.410156%,38.215637%);stop-opacity:1;"/>
<stop offset="0.816406" style="stop-color:rgb(12.611389%,20.263672%,38.00354%);stop-opacity:1;"/>
<stop offset="0.820312" style="stop-color:rgb(12.594604%,20.118713%,37.789917%);stop-opacity:1;"/>
<stop offset="0.824219" style="stop-color:rgb(12.576294%,19.973755%,37.57782%);stop-opacity:1;"/>
<stop offset="0.828125" style="stop-color:rgb(12.557983%,19.828796%,37.365723%);stop-opacity:1;"/>
<stop offset="0.832031" style="stop-color:rgb(12.539673%,19.683838%,37.156677%);stop-opacity:1;"/>
<stop offset="0.835938" style="stop-color:rgb(12.519836%,19.540405%,36.94458%);stop-opacity:1;"/>
<stop offset="0.839844" style="stop-color:rgb(12.501526%,19.395447%,36.735535%);stop-opacity:1;"/>
<stop offset="0.84375" style="stop-color:rgb(12.481689%,19.252014%,36.524963%);stop-opacity:1;"/>
<stop offset="0.847656" style="stop-color:rgb(12.461853%,19.110107%,36.315918%);stop-opacity:1;"/>
<stop offset="0.851562" style="stop-color:rgb(12.442017%,18.968201%,36.106873%);stop-opacity:1;"/>
<stop offset="0.855469" style="stop-color:rgb(12.42218%,18.826294%,35.899353%);stop-opacity:1;"/>
<stop offset="0.859375" style="stop-color:rgb(12.402344%,18.684387%,35.691833%);stop-opacity:1;"/>
<stop offset="0.863281" style="stop-color:rgb(12.382507%,18.544006%,35.48584%);stop-opacity:1;"/>
<stop offset="0.867188" style="stop-color:rgb(12.361145%,18.403625%,35.27832%);stop-opacity:1;"/>
<stop offset="0.871094" style="stop-color:rgb(12.310791%,18.2724%,35.075378%);stop-opacity:1;"/>
<stop offset="0.875" style="stop-color:rgb(12.261963%,18.1427%,34.870911%);stop-opacity:1;"/>
<stop offset="0.878906" style="stop-color:rgb(12.208557%,18.013%,34.669495%);stop-opacity:1;"/>
<stop offset="0.882812" style="stop-color:rgb(12.155151%,17.884827%,34.468079%);stop-opacity:1;"/>
<stop offset="0.886719" style="stop-color:rgb(12.127686%,17.747498%,34.288025%);stop-opacity:1;"/>
<stop offset="0.890625" style="stop-color:rgb(12.101746%,17.608643%,34.106445%);stop-opacity:1;"/>
<stop offset="0.894531" style="stop-color:rgb(12.077332%,17.471313%,33.929443%);stop-opacity:1;"/>
<stop offset="0.898438" style="stop-color:rgb(12.052917%,17.332458%,33.750916%);stop-opacity:1;"/>
<stop offset="0.902344" style="stop-color:rgb(12.004089%,17.205811%,33.529663%);stop-opacity:1;"/>
<stop offset="0.90625" style="stop-color:rgb(11.955261%,17.079163%,33.308411%);stop-opacity:1;"/>
<stop offset="0.910156" style="stop-color:rgb(11.901855%,16.954041%,33.082581%);stop-opacity:1;"/>
<stop offset="0.914062" style="stop-color:rgb(11.84845%,16.828918%,32.855225%);stop-opacity:1;"/>
<stop offset="0.917969" style="stop-color:rgb(11.820984%,16.694641%,32.650757%);stop-opacity:1;"/>
<stop offset="0.921875" style="stop-color:rgb(11.793518%,16.56189%,32.446289%);stop-opacity:1;"/>
<stop offset="0.925781" style="stop-color:rgb(11.77063%,16.429138%,32.247925%);stop-opacity:1;"/>
<stop offset="0.929688" style="stop-color:rgb(11.746216%,16.294861%,32.046509%);stop-opacity:1;"/>
<stop offset="0.933594" style="stop-color:rgb(11.720276%,16.162109%,31.869507%);stop-opacity:1;"/>
<stop offset="0.9375" style="stop-color:rgb(11.694336%,16.029358%,31.692505%);stop-opacity:1;"/>
<stop offset="0.941406" style="stop-color:rgb(11.668396%,15.895081%,31.518555%);stop-opacity:1;"/>
<stop offset="0.945312" style="stop-color:rgb(11.64093%,15.762329%,31.344604%);stop-opacity:1;"/>
<stop offset="0.949219" style="stop-color:rgb(11.630249%,15.65094%,31.187439%);stop-opacity:1;"/>
<stop offset="0.953125" style="stop-color:rgb(11.618042%,15.539551%,31.031799%);stop-opacity:1;"/>
<stop offset="0.960938" style="stop-color:rgb(11.610413%,15.431213%,30.879211%);stop-opacity:1;"/>
<stop offset="0.96875" style="stop-color:rgb(11.601257%,15.307617%,30.702209%);stop-opacity:1;"/>
<stop offset="1" style="stop-color:rgb(11.599731%,15.289307%,30.67627%);stop-opacity:1;"/>
</linearGradient>
</defs>
<g id="surface1">
<rect x="0" y="0" width="56" height="56" style="fill:rgb(95.66803%,95.779419%,96.777344%);fill-opacity:1;stroke:none;"/>
<g clip-path="url(#clip1)" clip-rule="nonzero">
<g clip-path="url(#clip2)" clip-rule="nonzero">
<g clip-path="url(#clip3)" clip-rule="nonzero">
<path style=" stroke:none;fill-rule:nonzero;fill:url(#linear0);" d="M 53.972656 20.582031 L 2.339844 19.570312 L 2.027344 35.394531 L 53.660156 36.410156 Z M 53.972656 20.582031 "/>
</g>
</g>
</g>
</g>
</svg>
