<?xml version="1.0" encoding="UTF-8"?>
<svg xmlns="http://www.w3.org/2000/svg" xmlns:xlink="http://www.w3.org/1999/xlink" width="56pt" height="56pt" viewBox="0 0 56 56" version="1.1">
<g id="surface1">
<path style=" stroke:none;fill-rule:nonzero;fill:rgb(40.235901%,77.088928%,18.746948%);fill-opacity:1;" d="M 37.890625 22.386719 C 37.902344 22.335938 37.914062 22.308594 37.914062 22.28125 C 37.914062 18.488281 37.914062 14.699219 37.910156 10.910156 C 37.910156 10.902344 37.902344 10.894531 37.898438 10.886719 C 37.894531 10.878906 37.886719 10.871094 37.878906 10.863281 C 34.050781 10.863281 30.226562 10.863281 26.40625 10.863281 C 26.355469 11.242188 26.367188 16.398438 26.421875 16.625 C 26.792969 16.625 27.171875 16.625 27.550781 16.625 C 27.929688 16.625 28.308594 16.625 28.6875 16.625 C 29.074219 16.625 29.464844 16.625 29.851562 16.625 C 30.230469 16.625 30.609375 16.621094 30.988281 16.625 C 31.363281 16.628906 31.742188 16.613281 32.097656 16.632812 C 32.121094 16.667969 32.128906 16.675781 32.132812 16.683594 C 32.136719 16.703125 32.140625 16.722656 32.140625 16.742188 C 32.140625 18.570312 32.140625 20.398438 32.140625 22.222656 C 32.140625 22.242188 32.140625 22.261719 32.140625 22.28125 C 32.144531 22.300781 32.148438 22.320312 32.152344 22.339844 C 32.15625 22.347656 32.160156 22.355469 32.167969 22.363281 C 32.171875 22.371094 32.179688 22.375 32.195312 22.386719 C 34.082031 22.386719 35.976562 22.386719 37.890625 22.386719 Z M 28.972656 25.660156 C 28.757812 25.769531 28.582031 25.871094 28.398438 25.949219 C 27.507812 26.339844 26.574219 26.535156 25.601562 26.554688 C 24.480469 26.574219 23.421875 26.34375 22.445312 25.78125 C 20.425781 24.617188 19.566406 22.34375 20.113281 20.242188 C 20.457031 18.914062 21.253906 17.921875 22.417969 17.21875 C 22.671875 17.066406 22.945312 16.941406 23.207031 16.800781 C 23.261719 16.1875 23.238281 11.070312 23.183594 10.863281 C 19.640625 11.34375 15.90625 13.996094 14.546875 18.355469 C 13.246094 22.519531 14.621094 27.078125 18.136719 29.925781 C 21.570312 32.710938 26.003906 32.851562 28.972656 31.546875 C 28.972656 29.601562 28.972656 27.652344 28.972656 25.660156 Z M 23.515625 46.902344 C 23.644531 46.902344 23.738281 46.902344 23.835938 46.902344 C 24.828125 46.902344 25.820312 46.90625 26.808594 46.898438 C 27.265625 46.894531 27.722656 46.875 28.175781 46.84375 C 28.894531 46.800781 29.601562 46.660156 30.285156 46.445312 C 33.335938 45.492188 35.558594 43.585938 36.929688 40.699219 C 37.589844 39.308594 37.910156 37.839844 37.917969 36.300781 C 37.921875 34.667969 37.917969 33.035156 37.917969 31.402344 C 37.917969 31.296875 37.917969 31.191406 37.917969 31.089844 C 39.273438 29.964844 40.605469 28.851562 41.941406 27.738281 C 41.941406 27.011719 41.941406 26.296875 41.941406 25.582031 C 41.648438 25.53125 32.367188 25.539062 32.140625 25.59375 C 32.140625 25.683594 32.140625 25.78125 32.140625 25.875 C 32.140625 29.269531 32.140625 32.660156 32.136719 36.050781 C 32.136719 36.324219 32.121094 36.597656 32.085938 36.863281 C 31.957031 37.824219 31.570312 38.671875 30.929688 39.398438 C 29.90625 40.558594 28.605469 41.109375 27.066406 41.121094 C 25.988281 41.128906 24.910156 41.121094 23.832031 41.125 C 23.726562 41.125 23.625 41.128906 23.515625 41.132812 C 23.515625 43.0625 23.515625 44.964844 23.515625 46.902344 Z M 0 0 C 18.667969 0 37.332031 0 56 0 C 56 18.667969 56 37.332031 56 56 C 37.332031 56 18.667969 56 0 56 C 0 37.332031 0 18.667969 0 0 "/>
<path style=" stroke:none;fill-rule:nonzero;fill:rgb(99.827576%,99.935913%,99.84436%);fill-opacity:1;" d="M 23.515625 46.902344 C 23.515625 44.964844 23.515625 43.0625 23.515625 41.132812 C 23.625 41.128906 23.726562 41.125 23.832031 41.125 C 24.910156 41.121094 25.988281 41.128906 27.066406 41.121094 C 28.605469 41.109375 29.90625 40.558594 30.929688 39.398438 C 31.570312 38.671875 31.957031 37.824219 32.085938 36.863281 C 32.121094 36.597656 32.136719 36.324219 32.136719 36.050781 C 32.140625 32.660156 32.140625 29.269531 32.140625 25.875 C 32.140625 25.78125 32.140625 25.683594 32.140625 25.59375 C 32.367188 25.539062 41.648438 25.53125 41.941406 25.582031 C 41.941406 26.296875 41.941406 27.011719 41.941406 27.738281 C 40.605469 28.851562 39.273438 29.964844 37.917969 31.089844 C 37.917969 31.191406 37.917969 31.296875 37.917969 31.402344 C 37.917969 33.035156 37.921875 34.667969 37.917969 36.300781 C 37.910156 37.839844 37.589844 39.308594 36.929688 40.699219 C 35.558594 43.585938 33.335938 45.492188 30.285156 46.445312 C 29.601562 46.660156 28.894531 46.800781 28.175781 46.84375 C 27.722656 46.875 27.265625 46.894531 26.808594 46.898438 C 25.820312 46.90625 24.828125 46.902344 23.835938 46.902344 C 23.738281 46.902344 23.644531 46.902344 23.515625 46.902344 "/>
<path style=" stroke:none;fill-rule:nonzero;fill:rgb(99.827576%,99.935913%,99.84436%);fill-opacity:1;" d="M 28.972656 25.660156 C 28.972656 27.652344 28.972656 29.601562 28.972656 31.546875 C 26.003906 32.851562 21.570312 32.710938 18.136719 29.925781 C 14.621094 27.078125 13.246094 22.519531 14.546875 18.355469 C 15.90625 13.996094 19.640625 11.34375 23.183594 10.863281 C 23.238281 11.070312 23.261719 16.1875 23.207031 16.800781 C 22.945312 16.941406 22.671875 17.066406 22.417969 17.21875 C 21.253906 17.921875 20.457031 18.914062 20.113281 20.242188 C 19.566406 22.34375 20.425781 24.617188 22.445312 25.78125 C 23.421875 26.34375 24.480469 26.574219 25.601562 26.554688 C 26.574219 26.535156 27.507812 26.339844 28.398438 25.949219 C 28.582031 25.871094 28.757812 25.769531 28.972656 25.660156 "/>
<path style=" stroke:none;fill-rule:nonzero;fill:rgb(16.397095%,15.036011%,36.16333%);fill-opacity:1;" d="M 37.890625 22.386719 C 35.976562 22.386719 34.082031 22.386719 32.195312 22.386719 C 32.179688 22.375 32.171875 22.371094 32.167969 22.363281 C 32.160156 22.355469 32.15625 22.347656 32.152344 22.339844 C 32.148438 22.320312 32.144531 22.300781 32.140625 22.28125 C 32.140625 22.261719 32.140625 22.242188 32.140625 22.222656 C 32.140625 20.398438 32.140625 18.570312 32.140625 16.742188 C 32.140625 16.722656 32.136719 16.703125 32.132812 16.683594 C 32.128906 16.675781 32.121094 16.667969 32.097656 16.632812 C 31.742188 16.613281 31.363281 16.628906 30.988281 16.625 C 30.609375 16.621094 30.230469 16.625 29.851562 16.625 C 29.464844 16.625 29.074219 16.625 28.6875 16.625 C 28.308594 16.625 27.929688 16.625 27.550781 16.625 C 27.171875 16.625 26.792969 16.625 26.421875 16.625 C 26.367188 16.398438 26.355469 11.242188 26.40625 10.863281 C 30.226562 10.863281 34.050781 10.863281 37.878906 10.863281 C 37.886719 10.871094 37.894531 10.878906 37.898438 10.886719 C 37.902344 10.894531 37.910156 10.902344 37.910156 10.910156 C 37.914062 14.699219 37.914062 18.488281 37.914062 22.28125 C 37.914062 22.308594 37.902344 22.335938 37.890625 22.386719 "/>
</g>
</svg>
