<?xml version="1.0" encoding="UTF-8"?>
<svg xmlns="http://www.w3.org/2000/svg" xmlns:xlink="http://www.w3.org/1999/xlink" width="56pt" height="56pt" viewBox="0 0 56 56" version="1.1">
<g id="surface1">
<rect x="0" y="0" width="56" height="56" style="fill:rgb(93.771362%,19.940186%,21.476746%);fill-opacity:1;stroke:none;"/>
<path style=" stroke:none;fill-rule:nonzero;fill:rgb(100%,100%,100%);fill-opacity:1;" d="M 39.859375 26.84375 C 39.859375 30.035156 37.273438 32.621094 34.082031 32.621094 C 30.890625 32.621094 28.304688 30.035156 28.304688 26.84375 C 28.304688 23.652344 30.890625 21.066406 34.082031 21.066406 C 37.273438 21.066406 39.859375 23.652344 39.859375 26.84375 "/>
<path style=" stroke:none;fill-rule:nonzero;fill:rgb(100%,100%,100%);fill-opacity:1;" d="M 31.828125 27.074219 C 31.828125 27.074219 18.75 27.074219 16.109375 27.074219 C 19.832031 20.605469 27.839844 18.601562 27.839844 18.601562 L 43.554688 18.601562 C 43.554688 18.601562 33.542969 21.21875 31.828125 27.074219 "/>
<path style=" stroke:none;fill-rule:nonzero;fill:rgb(93.771362%,19.940186%,21.476746%);fill-opacity:1;" d="M 16.378906 26.921875 L 31.710938 26.921875 C 32.65625 23.902344 35.789062 21.769531 38.265625 20.503906 C 39.929688 19.65625 41.527344 19.078125 42.515625 18.753906 L 27.859375 18.753906 C 27.441406 18.863281 19.992188 20.90625 16.378906 26.921875 Z M 31.941406 27.226562 L 15.84375 27.226562 L 15.976562 26.996094 C 19.6875 20.542969 27.722656 18.472656 27.804688 18.453125 L 27.839844 18.445312 L 44.753906 18.445312 L 43.59375 18.75 C 43.496094 18.777344 33.644531 21.414062 31.972656 27.117188 L 31.941406 27.226562 "/>
<path style=" stroke:none;fill-rule:nonzero;fill:rgb(100%,100%,100%);fill-opacity:1;" d="M 3.882812 27.535156 L 31.925781 27.535156 C 31.925781 27.535156 30.539062 32.46875 53.339844 37.398438 C 53.183594 37.550781 3.882812 27.535156 3.882812 27.535156 "/>
<path style=" stroke:none;fill-rule:nonzero;fill:rgb(93.771362%,19.940186%,21.476746%);fill-opacity:1;" d="M 5.417969 27.691406 C 17.96875 30.238281 37.527344 34.191406 47.324219 36.113281 C 36.265625 33.167969 33.046875 30.375 32.132812 28.851562 C 31.808594 28.316406 31.753906 27.914062 31.753906 27.691406 Z M 53.328125 37.550781 C 52.429688 37.550781 5.835938 28.089844 3.851562 27.6875 L 2.351562 27.382812 L 32.128906 27.382812 L 32.074219 27.578125 C 32.074219 27.582031 31.96875 28.011719 32.417969 28.734375 C 33.484375 30.453125 37.625 33.84375 53.371094 37.246094 L 53.648438 37.304688 L 53.402344 37.550781 L 53.328125 37.550781 "/>
</g>
</svg>
