<?xml version="1.0" encoding="UTF-8"?>
<svg xmlns="http://www.w3.org/2000/svg" xmlns:xlink="http://www.w3.org/1999/xlink" width="56pt" height="56pt" viewBox="0 0 56 56" version="1.1">
<g id="surface1">
<rect x="0" y="0" width="56" height="56" style="fill:rgb(95.66803%,95.779419%,96.777344%);fill-opacity:1;stroke:none;"/>
<path style=" stroke:none;fill-rule:nonzero;fill:rgb(10.949707%,31.384277%,21.455383%);fill-opacity:1;" d="M 37.925781 5.757812 C 37.980469 5.75 38.035156 5.742188 38.089844 5.738281 C 38.148438 5.777344 38.183594 5.75 38.207031 5.695312 C 38.261719 5.6875 38.316406 5.683594 38.367188 5.675781 C 38.425781 5.75 38.449219 5.695312 38.472656 5.648438 C 38.582031 5.636719 38.691406 5.625 38.800781 5.609375 C 38.867188 5.636719 38.925781 5.644531 38.960938 5.566406 C 39.03125 5.5625 39.097656 5.554688 39.167969 5.550781 C 39.234375 5.605469 39.28125 5.59375 39.316406 5.515625 C 39.488281 5.496094 39.660156 5.480469 39.835938 5.460938 C 39.882812 5.507812 39.929688 5.511719 39.96875 5.449219 C 40.085938 5.4375 40.203125 5.425781 40.324219 5.414062 C 40.402344 5.460938 40.476562 5.480469 40.542969 5.398438 C 40.707031 5.386719 40.871094 5.378906 41.035156 5.367188 C 41.207031 5.421875 41.386719 5.359375 41.558594 5.394531 C 41.738281 5.398438 41.917969 5.410156 42.097656 5.40625 C 42.175781 5.402344 42.261719 5.382812 42.320312 5.320312 C 42.347656 5.320312 42.378906 5.320312 42.410156 5.320312 C 42.410156 5.335938 42.410156 5.347656 42.410156 5.363281 C 42.40625 5.386719 42.40625 5.40625 42.40625 5.425781 C 42.375 5.433594 42.347656 5.4375 42.320312 5.445312 C 42.238281 5.355469 42.222656 5.457031 42.1875 5.488281 C 42.160156 5.492188 42.136719 5.5 42.109375 5.503906 C 42.0625 5.492188 42.019531 5.488281 42.003906 5.550781 C 41.976562 5.554688 41.945312 5.5625 41.917969 5.570312 C 41.863281 5.511719 41.84375 5.550781 41.828125 5.601562 C 41.796875 5.609375 41.769531 5.617188 41.742188 5.625 C 41.65625 5.601562 41.53125 5.644531 41.425781 5.738281 C 41.398438 5.742188 41.371094 5.746094 41.34375 5.753906 C 41.273438 5.683594 41.261719 5.738281 41.253906 5.792969 C 41.214844 5.800781 41.175781 5.808594 41.136719 5.816406 C 41.046875 5.824219 40.953125 5.824219 40.894531 5.914062 C 40.648438 6 40.402344 6.085938 40.15625 6.167969 C 40.105469 6.15625 40.0625 6.160156 40.050781 6.222656 C 39.820312 6.308594 39.589844 6.394531 39.359375 6.484375 C 39.308594 6.46875 39.265625 6.46875 39.253906 6.535156 C 39.183594 6.5625 39.113281 6.589844 39.046875 6.613281 C 39 6.605469 38.957031 6.597656 38.941406 6.660156 C 38.90625 6.675781 38.867188 6.691406 38.832031 6.707031 C 38.773438 6.6875 38.726562 6.691406 38.71875 6.769531 C 38.695312 6.773438 38.667969 6.78125 38.644531 6.789062 C 38.558594 6.8125 38.449219 6.785156 38.410156 6.902344 C 38.355469 6.925781 38.300781 6.945312 38.242188 6.96875 C 38.195312 6.957031 38.152344 6.960938 38.144531 7.023438 C 38.097656 7.042969 38.054688 7.0625 38.011719 7.082031 C 37.945312 7.015625 37.933594 7.070312 37.921875 7.125 C 37.871094 7.148438 37.820312 7.171875 37.765625 7.195312 C 37.707031 7.175781 37.660156 7.179688 37.65625 7.257812 C 37.601562 7.28125 37.550781 7.304688 37.496094 7.328125 C 37.4375 7.308594 37.394531 7.316406 37.390625 7.390625 C 37.277344 7.445312 37.167969 7.496094 37.054688 7.550781 C 36.996094 7.53125 36.949219 7.535156 36.945312 7.617188 C 36.820312 7.683594 36.691406 7.75 36.566406 7.816406 C 36.472656 7.808594 36.390625 7.816406 36.367188 7.929688 C 36.179688 8.035156 35.988281 8.144531 35.796875 8.25 C 35.746094 8.242188 35.707031 8.253906 35.703125 8.316406 C 35.425781 8.496094 35.148438 8.679688 34.871094 8.855469 C 34.269531 9.242188 33.699219 9.667969 33.136719 10.109375 C 32.527344 10.589844 31.953125 11.105469 31.398438 11.648438 C 30.785156 12.253906 30.210938 12.898438 29.671875 13.574219 C 29.117188 14.265625 28.601562 14.976562 28.132812 15.730469 C 28.101562 15.785156 28.050781 15.828125 28.007812 15.878906 C 27.992188 15.859375 27.984375 15.847656 27.976562 15.835938 C 27.980469 15.777344 27.984375 15.71875 27.984375 15.660156 C 27.984375 14.421875 27.984375 13.179688 27.984375 11.941406 C 28.066406 11.855469 28.148438 11.769531 28.222656 11.679688 C 28.761719 11.035156 29.347656 10.429688 29.960938 9.851562 C 30.453125 9.390625 30.972656 8.96875 31.511719 8.570312 C 32.136719 8.113281 32.789062 7.703125 33.46875 7.339844 C 34.136719 6.980469 34.828125 6.683594 35.539062 6.425781 C 36.140625 6.207031 36.757812 6.039062 37.371094 5.871094 C 37.519531 5.832031 37.675781 5.816406 37.828125 5.789062 C 37.867188 5.808594 37.90625 5.8125 37.925781 5.757812 "/>
<path style=" stroke:none;fill-rule:nonzero;fill:rgb(93.804932%,37.005615%,9.988403%);fill-opacity:1;" d="M 27.984375 11.941406 C 27.984375 13.179688 27.984375 14.421875 27.984375 15.660156 C 27.984375 15.71875 27.980469 15.777344 27.976562 15.835938 C 27.898438 15.734375 27.808594 15.636719 27.742188 15.527344 C 27.308594 14.828125 26.816406 14.171875 26.304688 13.53125 C 25.988281 13.132812 25.644531 12.757812 25.304688 12.382812 C 25.023438 12.078125 24.742188 11.777344 24.445312 11.492188 C 24.085938 11.152344 23.710938 10.832031 23.339844 10.507812 C 22.621094 9.878906 21.855469 9.308594 21.046875 8.796875 C 20.535156 8.46875 20.015625 8.15625 19.484375 7.859375 C 18.949219 7.5625 18.398438 7.285156 17.84375 7.023438 C 17.308594 6.769531 16.765625 6.535156 16.210938 6.324219 C 15.582031 6.078125 14.9375 5.863281 14.296875 5.644531 C 13.988281 5.539062 13.667969 5.457031 13.355469 5.359375 C 13.332031 5.351562 13.308594 5.332031 13.289062 5.320312 C 13.507812 5.320312 13.730469 5.320312 13.953125 5.320312 C 13.980469 5.332031 14.011719 5.355469 14.039062 5.359375 C 14.199219 5.371094 14.355469 5.371094 14.515625 5.394531 C 14.660156 5.417969 14.824219 5.449219 14.972656 5.367188 C 15.152344 5.378906 15.328125 5.390625 15.507812 5.402344 C 15.546875 5.476562 15.589844 5.472656 15.640625 5.414062 C 15.773438 5.425781 15.90625 5.4375 16.039062 5.449219 C 16.066406 5.507812 16.09375 5.515625 16.128906 5.457031 C 16.503906 5.507812 16.878906 5.566406 17.257812 5.617188 C 17.601562 5.664062 17.949219 5.722656 18.289062 5.808594 C 18.570312 5.875 18.859375 5.925781 19.136719 6.007812 C 19.632812 6.15625 20.128906 6.308594 20.617188 6.480469 C 21.0625 6.640625 21.492188 6.839844 21.925781 7.039062 C 22.601562 7.355469 23.25 7.722656 23.871094 8.136719 C 24.328125 8.4375 24.769531 8.769531 25.195312 9.117188 C 25.875 9.664062 26.5 10.273438 27.09375 10.90625 C 27.40625 11.238281 27.691406 11.59375 27.984375 11.941406 "/>
<path style=" stroke:none;fill-rule:nonzero;fill:rgb(93.804932%,37.005615%,9.988403%);fill-opacity:1;" d="M 14.972656 5.367188 C 14.824219 5.449219 14.660156 5.417969 14.515625 5.394531 C 14.355469 5.371094 14.199219 5.371094 14.039062 5.359375 C 14.011719 5.355469 13.980469 5.332031 13.953125 5.320312 C 14.292969 5.320312 14.632812 5.320312 14.972656 5.320312 C 14.972656 5.335938 14.972656 5.351562 14.972656 5.367188 "/>
<path style=" stroke:none;fill-rule:nonzero;fill:rgb(10.949707%,31.384277%,21.455383%);fill-opacity:1;" d="M 42.320312 5.320312 C 42.261719 5.382812 42.175781 5.402344 42.097656 5.40625 C 41.917969 5.410156 41.738281 5.398438 41.558594 5.394531 C 41.574219 5.371094 41.59375 5.34375 41.609375 5.320312 C 41.847656 5.320312 42.085938 5.320312 42.320312 5.320312 "/>
<path style=" stroke:none;fill-rule:nonzero;fill:rgb(10.949707%,31.384277%,21.455383%);fill-opacity:1;" d="M 41.609375 5.320312 C 41.59375 5.34375 41.574219 5.371094 41.558594 5.394531 C 41.386719 5.359375 41.207031 5.421875 41.035156 5.367188 C 41.035156 5.351562 41.035156 5.335938 41.03125 5.320312 C 41.226562 5.320312 41.417969 5.320312 41.609375 5.320312 "/>
<path style=" stroke:none;fill-rule:nonzero;fill:rgb(10.949707%,31.384277%,21.455383%);fill-opacity:1;" d="M 42.410156 5.363281 C 42.410156 5.347656 42.410156 5.335938 42.410156 5.320312 C 42.511719 5.320312 42.617188 5.320312 42.71875 5.320312 C 42.714844 5.339844 42.707031 5.359375 42.695312 5.394531 C 42.632812 5.394531 42.5625 5.394531 42.492188 5.394531 C 42.464844 5.386719 42.4375 5.375 42.410156 5.363281 "/>
<path style=" stroke:none;fill-rule:nonzero;fill:rgb(93.804932%,37.005615%,9.988403%);fill-opacity:1;" d="M 28.023438 50.507812 C 28.023438 50.5625 28.023438 50.621094 28.023438 50.675781 C 28.011719 50.679688 28 50.679688 27.988281 50.679688 C 27.945312 50.460938 27.894531 50.242188 27.851562 50.023438 C 27.800781 49.75 27.757812 49.476562 27.703125 49.203125 C 27.640625 48.875 27.566406 48.546875 27.496094 48.21875 C 27.421875 47.867188 27.347656 47.519531 27.265625 47.167969 C 27.136719 46.625 27.011719 46.078125 26.863281 45.535156 C 26.734375 45.066406 26.582031 44.601562 26.441406 44.136719 C 26.363281 43.875 26.292969 43.613281 26.207031 43.359375 C 25.988281 42.726562 25.78125 42.085938 25.53125 41.464844 C 25.261719 40.792969 24.996094 40.121094 24.667969 39.476562 C 24.414062 38.984375 24.183594 38.480469 23.917969 37.992188 C 23.636719 37.480469 23.332031 36.976562 23.027344 36.476562 C 22.652344 35.871094 22.25 35.285156 21.816406 34.722656 C 21.546875 34.371094 21.273438 34.03125 20.996094 33.6875 C 20.65625 33.261719 20.296875 32.851562 19.910156 32.464844 C 19.546875 32.097656 19.183594 31.730469 18.816406 31.371094 C 18.632812 31.191406 18.4375 31.023438 18.246094 30.84375 C 17.710938 30.347656 17.148438 29.890625 16.570312 29.449219 C 15.867188 28.914062 15.148438 28.40625 14.402344 27.9375 C 13.730469 27.515625 13.058594 27.097656 12.355469 26.730469 C 11.882812 26.484375 11.417969 26.222656 10.941406 25.992188 C 10.34375 25.699219 9.734375 25.429688 9.128906 25.148438 C 9.007812 25.09375 8.867188 25.070312 8.765625 24.957031 C 9.144531 24.984375 9.511719 24.992188 9.871094 25.042969 C 10.351562 25.105469 10.832031 25.144531 11.304688 25.242188 C 11.742188 25.335938 12.183594 25.386719 12.617188 25.484375 C 13.117188 25.597656 13.605469 25.742188 14.097656 25.882812 C 14.828125 26.089844 15.539062 26.355469 16.242188 26.648438 C 16.972656 26.953125 17.679688 27.300781 18.375 27.683594 C 18.96875 28.007812 19.542969 28.359375 20.097656 28.734375 C 20.597656 29.070312 21.074219 29.441406 21.546875 29.8125 C 21.988281 30.15625 22.410156 30.523438 22.835938 30.882812 C 22.925781 30.960938 23.003906 31.046875 23.089844 31.132812 C 23.34375 31.367188 23.605469 31.597656 23.84375 31.847656 C 24.390625 32.425781 24.9375 33.003906 25.453125 33.613281 C 26.199219 34.5 26.902344 35.421875 27.554688 36.382812 C 27.703125 36.597656 27.863281 36.808594 28.015625 37.019531 C 28.019531 37.050781 28.023438 37.078125 28.023438 37.109375 C 28.023438 41.574219 28.023438 46.039062 28.023438 50.507812 "/>
<path style=" stroke:none;fill-rule:nonzero;fill:rgb(10.939026%,31.413269%,21.105957%);fill-opacity:1;" d="M 28.023438 50.507812 C 28.023438 46.039062 28.023438 41.574219 28.023438 37.109375 C 28.023438 37.078125 28.019531 37.050781 28.015625 37.019531 C 28.449219 36.40625 28.871094 35.789062 29.3125 35.179688 C 29.5625 34.832031 29.828125 34.496094 30.097656 34.164062 C 30.363281 33.832031 30.632812 33.496094 30.917969 33.183594 C 31.398438 32.65625 31.878906 32.136719 32.382812 31.636719 C 32.871094 31.148438 33.390625 30.6875 33.921875 30.238281 C 34.550781 29.710938 35.199219 29.214844 35.878906 28.761719 C 36.410156 28.40625 36.957031 28.070312 37.511719 27.753906 C 37.964844 27.492188 38.429688 27.257812 38.902344 27.03125 C 39.699219 26.65625 40.515625 26.328125 41.351562 26.058594 C 42.269531 25.761719 43.199219 25.515625 44.148438 25.339844 C 44.878906 25.207031 45.609375 25.089844 46.351562 25.03125 C 46.613281 25.007812 46.875 24.988281 47.140625 24.96875 C 47.144531 24.980469 47.148438 24.996094 47.152344 25.011719 C 47.113281 25.03125 47.078125 25.058594 47.039062 25.078125 C 46.511719 25.316406 45.976562 25.546875 45.453125 25.792969 C 45.082031 25.96875 44.71875 26.160156 44.355469 26.355469 C 43.742188 26.691406 43.125 27.019531 42.523438 27.371094 C 41.542969 27.945312 40.601562 28.578125 39.695312 29.257812 C 38.972656 29.796875 38.273438 30.359375 37.609375 30.96875 C 37.171875 31.363281 36.746094 31.773438 36.335938 32.199219 C 35.675781 32.878906 35.058594 33.59375 34.476562 34.335938 C 33.785156 35.21875 33.15625 36.144531 32.585938 37.105469 C 32.148438 37.84375 31.730469 38.597656 31.382812 39.386719 C 31.164062 39.878906 30.933594 40.359375 30.722656 40.851562 C 30.558594 41.242188 30.402344 41.640625 30.257812 42.039062 C 30.050781 42.613281 29.84375 43.1875 29.667969 43.769531 C 29.417969 44.574219 29.183594 45.386719 28.96875 46.199219 C 28.804688 46.808594 28.667969 47.425781 28.53125 48.039062 C 28.4375 48.460938 28.363281 48.890625 28.28125 49.3125 C 28.210938 49.695312 28.136719 50.078125 28.0625 50.460938 C 28.058594 50.476562 28.035156 50.492188 28.023438 50.507812 "/>
<path style=" stroke:none;fill-rule:nonzero;fill:rgb(10.9375%,31.394958%,21.096802%);fill-opacity:1;" d="M 27.984375 23.710938 C 28.195312 23.472656 28.398438 23.230469 28.613281 23 C 29.003906 22.578125 29.390625 22.148438 29.796875 21.742188 C 30.851562 20.695312 32.015625 19.777344 33.273438 18.984375 C 33.875 18.605469 34.5 18.265625 35.144531 17.957031 C 35.882812 17.605469 36.632812 17.300781 37.40625 17.042969 C 38.175781 16.78125 38.964844 16.578125 39.765625 16.421875 C 40.328125 16.308594 40.890625 16.21875 41.460938 16.152344 C 41.820312 16.109375 42.175781 16.070312 42.535156 16.058594 C 43.171875 16.042969 43.804688 16.011719 44.4375 15.992188 C 44.613281 15.988281 44.789062 16.011719 44.96875 16.046875 C 44.832031 16.089844 44.691406 16.132812 44.554688 16.175781 C 44.191406 16.292969 43.824219 16.402344 43.464844 16.523438 C 43.054688 16.664062 42.644531 16.804688 42.242188 16.964844 C 41.71875 17.171875 41.195312 17.382812 40.679688 17.609375 C 40.078125 17.882812 39.480469 18.160156 38.890625 18.460938 C 38.015625 18.90625 37.164062 19.402344 36.34375 19.941406 C 35.511719 20.484375 34.710938 21.074219 33.941406 21.703125 C 33.132812 22.371094 32.355469 23.078125 31.632812 23.839844 C 31.125 24.371094 30.636719 24.925781 30.171875 25.5 C 29.535156 26.285156 28.945312 27.097656 28.398438 27.945312 C 28.300781 28.09375 28.210938 28.246094 28.113281 28.394531 C 28.082031 28.441406 28.042969 28.484375 28.007812 28.53125 C 27.992188 28.511719 27.984375 28.5 27.976562 28.488281 C 27.980469 28.457031 27.984375 28.429688 27.984375 28.398438 C 27.984375 26.835938 27.984375 25.273438 27.984375 23.710938 "/>
<path style=" stroke:none;fill-rule:nonzero;fill:rgb(93.804932%,37.005615%,9.988403%);fill-opacity:1;" d="M 27.984375 23.710938 C 27.984375 25.273438 27.984375 26.835938 27.984375 28.398438 C 27.984375 28.429688 27.980469 28.457031 27.976562 28.488281 C 27.890625 28.363281 27.796875 28.246094 27.714844 28.121094 C 27.347656 27.535156 26.960938 26.96875 26.546875 26.417969 C 26.238281 26.003906 25.921875 25.601562 25.597656 25.203125 C 25.359375 24.914062 25.105469 24.632812 24.847656 24.359375 C 24.445312 23.929688 24.039062 23.5 23.617188 23.089844 C 23.152344 22.640625 22.664062 22.210938 22.167969 21.796875 C 21.382812 21.140625 20.5625 20.535156 19.707031 19.976562 C 19.058594 19.550781 18.402344 19.136719 17.710938 18.777344 C 17.097656 18.460938 16.492188 18.136719 15.867188 17.847656 C 15.304688 17.582031 14.730469 17.351562 14.152344 17.121094 C 13.617188 16.90625 13.078125 16.699219 12.535156 16.511719 C 12.039062 16.339844 11.535156 16.199219 11.039062 16.023438 C 11.109375 16.019531 11.183594 16.011719 11.257812 16.011719 C 11.765625 16.015625 12.277344 16.007812 12.785156 16.019531 C 13.316406 16.03125 13.84375 16.0625 14.363281 16.144531 C 14.507812 16.167969 14.65625 16.179688 14.800781 16.191406 C 15.171875 16.226562 15.539062 16.289062 15.902344 16.367188 C 16.425781 16.480469 16.953125 16.554688 17.464844 16.699219 C 18.230469 16.914062 18.992188 17.136719 19.722656 17.460938 C 20.15625 17.648438 20.597656 17.820312 21.023438 18.03125 C 21.640625 18.332031 22.234375 18.679688 22.820312 19.042969 C 23.4375 19.429688 24.019531 19.863281 24.59375 20.304688 C 24.882812 20.527344 25.152344 20.78125 25.425781 21.03125 C 25.765625 21.335938 26.113281 21.636719 26.429688 21.964844 C 26.839844 22.386719 27.226562 22.832031 27.621094 23.269531 C 27.746094 23.410156 27.863281 23.5625 27.984375 23.710938 "/>
<path style=" stroke:none;fill-rule:nonzero;fill:rgb(10.949707%,31.384277%,21.455383%);fill-opacity:1;" d="M 41.425781 5.738281 C 41.53125 5.644531 41.65625 5.601562 41.742188 5.625 C 41.652344 5.703125 41.546875 5.738281 41.425781 5.738281 "/>
<path style=" stroke:none;fill-rule:nonzero;fill:rgb(10.949707%,31.384277%,21.455383%);fill-opacity:1;" d="M 40.894531 5.914062 C 40.953125 5.824219 41.046875 5.824219 41.136719 5.816406 C 41.078125 5.90625 40.988281 5.917969 40.894531 5.914062 "/>
<path style=" stroke:none;fill-rule:nonzero;fill:rgb(10.949707%,31.384277%,21.455383%);fill-opacity:1;" d="M 38.410156 6.902344 C 38.449219 6.785156 38.558594 6.8125 38.644531 6.789062 C 38.59375 6.886719 38.5 6.886719 38.410156 6.902344 "/>
<path style=" stroke:none;fill-rule:nonzero;fill:rgb(10.949707%,31.384277%,21.455383%);fill-opacity:1;" d="M 36.367188 7.929688 C 36.390625 7.816406 36.472656 7.808594 36.566406 7.816406 C 36.527344 7.898438 36.453125 7.917969 36.367188 7.929688 "/>
<path style=" stroke:none;fill-rule:nonzero;fill:rgb(10.949707%,31.384277%,21.455383%);fill-opacity:1;" d="M 42.1875 5.488281 C 42.222656 5.457031 42.238281 5.355469 42.320312 5.445312 C 42.289062 5.507812 42.238281 5.492188 42.1875 5.488281 "/>
<path style=" stroke:none;fill-rule:nonzero;fill:rgb(10.949707%,31.384277%,21.455383%);fill-opacity:1;" d="M 41.253906 5.792969 C 41.261719 5.738281 41.273438 5.683594 41.34375 5.753906 C 41.3125 5.765625 41.28125 5.78125 41.253906 5.792969 "/>
<path style=" stroke:none;fill-rule:nonzero;fill:rgb(10.949707%,31.384277%,21.455383%);fill-opacity:1;" d="M 42.410156 5.363281 C 42.4375 5.375 42.464844 5.386719 42.492188 5.394531 C 42.480469 5.449219 42.445312 5.449219 42.40625 5.425781 C 42.40625 5.40625 42.40625 5.386719 42.410156 5.363281 "/>
<path style=" stroke:none;fill-rule:nonzero;fill:rgb(10.949707%,31.384277%,21.455383%);fill-opacity:1;" d="M 40.050781 6.222656 C 40.0625 6.160156 40.105469 6.15625 40.15625 6.167969 C 40.136719 6.214844 40.113281 6.261719 40.050781 6.222656 "/>
<path style=" stroke:none;fill-rule:nonzero;fill:rgb(10.949707%,31.384277%,21.455383%);fill-opacity:1;" d="M 39.253906 6.535156 C 39.265625 6.46875 39.308594 6.46875 39.359375 6.484375 C 39.339844 6.53125 39.316406 6.574219 39.253906 6.535156 "/>
<path style=" stroke:none;fill-rule:nonzero;fill:rgb(10.949707%,31.384277%,21.455383%);fill-opacity:1;" d="M 38.941406 6.660156 C 38.957031 6.597656 39 6.605469 39.046875 6.613281 C 39.027344 6.664062 39.003906 6.703125 38.941406 6.660156 "/>
<path style=" stroke:none;fill-rule:nonzero;fill:rgb(10.949707%,31.384277%,21.455383%);fill-opacity:1;" d="M 38.71875 6.769531 C 38.726562 6.691406 38.773438 6.6875 38.832031 6.707031 C 38.804688 6.75 38.78125 6.789062 38.71875 6.769531 "/>
<path style=" stroke:none;fill-rule:nonzero;fill:rgb(10.949707%,31.384277%,21.455383%);fill-opacity:1;" d="M 38.144531 7.023438 C 38.152344 6.960938 38.195312 6.957031 38.242188 6.96875 C 38.226562 7.015625 38.207031 7.058594 38.144531 7.023438 "/>
<path style=" stroke:none;fill-rule:nonzero;fill:rgb(10.949707%,31.384277%,21.455383%);fill-opacity:1;" d="M 42.003906 5.550781 C 42.019531 5.488281 42.0625 5.492188 42.109375 5.503906 C 42.089844 5.550781 42.066406 5.597656 42.003906 5.550781 "/>
<path style=" stroke:none;fill-rule:nonzero;fill:rgb(10.949707%,31.384277%,21.455383%);fill-opacity:1;" d="M 37.65625 7.257812 C 37.660156 7.179688 37.707031 7.175781 37.765625 7.195312 C 37.742188 7.238281 37.714844 7.277344 37.65625 7.257812 "/>
<path style=" stroke:none;fill-rule:nonzero;fill:rgb(10.949707%,31.384277%,21.455383%);fill-opacity:1;" d="M 37.390625 7.390625 C 37.394531 7.316406 37.4375 7.308594 37.496094 7.328125 C 37.472656 7.371094 37.449219 7.410156 37.390625 7.390625 "/>
<path style=" stroke:none;fill-rule:nonzero;fill:rgb(10.949707%,31.384277%,21.455383%);fill-opacity:1;" d="M 36.945312 7.617188 C 36.949219 7.535156 36.996094 7.53125 37.054688 7.550781 C 37.019531 7.574219 36.984375 7.59375 36.945312 7.617188 "/>
<path style=" stroke:none;fill-rule:nonzero;fill:rgb(10.949707%,31.384277%,21.455383%);fill-opacity:1;" d="M 41.828125 5.601562 C 41.84375 5.550781 41.863281 5.511719 41.917969 5.570312 C 41.902344 5.621094 41.871094 5.625 41.828125 5.601562 "/>
<path style=" stroke:none;fill-rule:nonzero;fill:rgb(10.949707%,31.384277%,21.455383%);fill-opacity:1;" d="M 37.921875 7.125 C 37.933594 7.070312 37.945312 7.015625 38.011719 7.082031 C 37.980469 7.097656 37.953125 7.113281 37.921875 7.125 "/>
<path style=" stroke:none;fill-rule:nonzero;fill:rgb(10.949707%,31.384277%,21.455383%);fill-opacity:1;" d="M 35.703125 8.316406 C 35.707031 8.253906 35.746094 8.242188 35.796875 8.25 C 35.789062 8.304688 35.765625 8.34375 35.703125 8.316406 "/>
<path style=" stroke:none;fill-rule:nonzero;fill:rgb(10.939026%,31.413269%,21.105957%);fill-opacity:1;" d="M 47.234375 24.964844 L 47.21875 24.96875 L 47.222656 24.957031 Z M 47.234375 24.964844 "/>
<path style=" stroke:none;fill-rule:nonzero;fill:rgb(10.949707%,31.384277%,21.455383%);fill-opacity:1;" d="M 40.542969 5.398438 C 40.476562 5.480469 40.402344 5.460938 40.324219 5.414062 C 40.390625 5.332031 40.46875 5.355469 40.542969 5.398438 "/>
<path style=" stroke:none;fill-rule:nonzero;fill:rgb(93.804932%,37.005615%,9.988403%);fill-opacity:1;" d="M 15.640625 5.414062 C 15.589844 5.472656 15.546875 5.476562 15.507812 5.402344 C 15.554688 5.34375 15.601562 5.335938 15.640625 5.414062 "/>
<path style=" stroke:none;fill-rule:nonzero;fill:rgb(10.949707%,31.384277%,21.455383%);fill-opacity:1;" d="M 38.960938 5.566406 C 38.925781 5.644531 38.867188 5.636719 38.800781 5.609375 C 38.832031 5.511719 38.898438 5.539062 38.960938 5.566406 "/>
<path style=" stroke:none;fill-rule:nonzero;fill:rgb(10.949707%,31.384277%,21.455383%);fill-opacity:1;" d="M 39.96875 5.449219 C 39.929688 5.511719 39.882812 5.507812 39.835938 5.460938 C 39.871094 5.382812 39.917969 5.390625 39.96875 5.449219 "/>
<path style=" stroke:none;fill-rule:nonzero;fill:rgb(10.949707%,31.384277%,21.455383%);fill-opacity:1;" d="M 39.316406 5.515625 C 39.28125 5.59375 39.234375 5.605469 39.167969 5.550781 C 39.199219 5.464844 39.261719 5.503906 39.316406 5.515625 "/>
<path style=" stroke:none;fill-rule:nonzero;fill:rgb(93.804932%,37.005615%,9.988403%);fill-opacity:1;" d="M 16.128906 5.457031 C 16.09375 5.515625 16.066406 5.507812 16.039062 5.449219 C 16.074219 5.390625 16.101562 5.394531 16.128906 5.457031 "/>
<path style=" stroke:none;fill-rule:nonzero;fill:rgb(10.949707%,31.384277%,21.455383%);fill-opacity:1;" d="M 38.472656 5.648438 C 38.449219 5.695312 38.425781 5.75 38.367188 5.675781 C 38.390625 5.621094 38.429688 5.628906 38.472656 5.648438 "/>
<path style=" stroke:none;fill-rule:nonzero;fill:rgb(10.949707%,31.384277%,21.455383%);fill-opacity:1;" d="M 38.207031 5.695312 C 38.183594 5.75 38.148438 5.777344 38.089844 5.738281 C 38.113281 5.679688 38.152344 5.664062 38.207031 5.695312 "/>
<path style=" stroke:none;fill-rule:nonzero;fill:rgb(10.949707%,31.384277%,21.455383%);fill-opacity:1;" d="M 37.925781 5.757812 C 37.90625 5.8125 37.867188 5.808594 37.828125 5.789062 C 37.84375 5.734375 37.867188 5.691406 37.925781 5.757812 "/>
</g>
</svg>
