<?xml version="1.0" encoding="UTF-8"?>
<svg xmlns="http://www.w3.org/2000/svg" xmlns:xlink="http://www.w3.org/1999/xlink" width="56pt" height="56pt" viewBox="0 0 56 56" version="1.1">
<g id="surface1">
<rect x="0" y="0" width="56" height="56" style="fill:rgb(95.666504%,95.776367%,96.775818%);fill-opacity:1;stroke:none;"/>
<path style=" stroke:none;fill-rule:nonzero;fill:rgb(92.700195%,11.358643%,15.148926%);fill-opacity:1;" d="M 11.882812 18.136719 C 11.894531 18.113281 11.898438 18.089844 11.898438 18.066406 C 11.894531 18.046875 11.890625 18.027344 11.878906 18.011719 C 11.808594 17.921875 11.722656 17.839844 11.632812 17.765625 L 11.65625 17.789062 C 11.371094 17.472656 11.070312 17.164062 10.753906 16.875 L 10.730469 16.851562 C 10.558594 16.675781 10.34375 16.539062 10.113281 16.449219 L 10.109375 16.449219 C 9.824219 16.339844 9.519531 16.304688 9.21875 16.351562 L 9.214844 16.351562 C 8.875 16.40625 8.539062 16.476562 8.203125 16.558594 L 7.898438 16.664062 C 6.980469 17.160156 6.167969 17.828125 5.503906 18.632812 C 5.4375 18.722656 5.4375 18.847656 5.503906 18.941406 L 5.5 18.933594 C 5.863281 19.644531 6.359375 20.28125 6.960938 20.8125 L 6.964844 20.816406 C 7.523438 21.355469 8.410156 21.34375 8.953125 20.789062 L 8.828125 20.882812 C 9.71875 20.214844 10.582031 19.515625 11.417969 18.78125 L 11.535156 18.675781 C 11.671875 18.511719 11.785156 18.328125 11.882812 18.136719 "/>
<path style=" stroke:none;fill-rule:nonzero;fill:rgb(92.700195%,11.358643%,15.148926%);fill-opacity:1;" d="M 38.910156 29.722656 C 39.304688 29.589844 39.691406 29.429688 40.0625 29.246094 L 40.074219 29.242188 C 40.230469 29.195312 40.398438 29.21875 40.53125 29.3125 L 40.636719 29.414062 C 40.882812 29.644531 41.128906 29.871094 41.371094 30.105469 L 41.367188 30.105469 C 41.460938 30.167969 41.566406 30.203125 41.675781 30.207031 L 41.667969 30.207031 C 42.351562 30.253906 43.035156 30.1875 43.691406 30.007812 C 43.921875 29.996094 44.152344 29.949219 44.367188 29.871094 L 44.382812 29.867188 C 44.722656 29.792969 45.074219 29.824219 45.398438 29.960938 L 45.390625 29.957031 C 46.667969 30.078125 47.957031 29.753906 49.035156 29.039062 L 48.871094 29.105469 C 49.574219 28.804688 50.265625 28.488281 50.953125 28.15625 L 51.128906 28.070312 C 51.269531 28.003906 51.347656 27.851562 51.324219 27.699219 C 51.316406 27.675781 51.304688 27.652344 51.285156 27.632812 C 51.269531 27.617188 51.25 27.601562 51.226562 27.59375 L 51.230469 27.59375 C 51.101562 27.5625 50.964844 27.550781 50.828125 27.566406 L 50.867188 27.566406 C 49.621094 27.5 48.394531 27.566406 47.179688 27.765625 L 47.191406 27.769531 C 46.800781 27.738281 46.40625 27.757812 46.023438 27.824219 L 46.007812 27.828125 C 45.789062 27.894531 45.566406 27.9375 45.339844 27.949219 L 45.34375 27.949219 L 45.148438 27.960938 C 44.734375 27.964844 44.496094 27.492188 44.746094 27.164062 L 44.742188 27.164062 C 45.035156 26.660156 45.40625 26.203125 45.839844 25.820312 C 46.0625 25.4375 46.316406 25.078125 46.601562 24.742188 L 46.589844 24.75 C 46.816406 24.542969 47.019531 24.308594 47.195312 24.054688 L 47.203125 24.042969 C 47.289062 23.921875 47.261719 23.75 47.136719 23.664062 C 46.976562 23.546875 46.808594 23.441406 46.628906 23.351562 C 46.613281 23.34375 46.597656 23.34375 46.582031 23.347656 L 46.582031 23.34375 C 46.527344 23.355469 46.46875 23.367188 46.417969 23.386719 L 46.414062 23.386719 C 46.367188 23.402344 46.320312 23.40625 46.269531 23.40625 C 46.191406 23.402344 46.113281 23.390625 46.039062 23.367188 L 46.015625 23.367188 C 45.570312 23.308594 45.125 23.214844 44.695312 23.078125 L 44.71875 23.085938 C 44.605469 23.066406 44.484375 23.082031 44.378906 23.132812 L 44.363281 23.136719 C 43.960938 23.265625 43.53125 23.324219 43.105469 23.300781 L 43.214844 23.28125 C 42.265625 23.460938 41.324219 23.675781 40.386719 23.921875 L 40.296875 23.945312 C 39.671875 24.097656 39.535156 24.925781 40.078125 25.269531 L 40.082031 25.273438 L 40.351562 25.40625 L 40.347656 25.40625 C 40.542969 25.527344 40.78125 25.546875 40.996094 25.464844 L 41 25.464844 C 41.632812 25.253906 42.296875 25.136719 42.964844 25.125 C 43.019531 25.125 43.074219 25.140625 43.117188 25.175781 C 43.128906 25.1875 43.136719 25.203125 43.136719 25.21875 C 43.136719 25.238281 43.128906 25.261719 43.117188 25.277344 L 43.117188 25.28125 C 43.042969 25.367188 42.964844 25.453125 42.878906 25.535156 L 42.808594 25.625 C 42.285156 26.28125 41.757812 26.929688 41.21875 27.574219 L 41.292969 27.480469 C 41.25 27.527344 41.191406 27.554688 41.128906 27.554688 C 40.367188 27.515625 39.589844 27.574219 38.832031 27.730469 L 38.808594 27.734375 C 38.71875 27.734375 38.628906 27.71875 38.542969 27.679688 L 38.546875 27.679688 C 38.496094 27.660156 38.445312 27.644531 38.394531 27.636719 C 38.371094 27.632812 38.351562 27.632812 38.335938 27.640625 L 38.328125 27.640625 C 37.832031 27.761719 37.320312 27.804688 36.804688 27.765625 L 36.824219 27.765625 L 36.597656 27.738281 L 36.59375 27.738281 C 36.472656 27.671875 36.445312 27.511719 36.539062 27.410156 L 36.558594 27.390625 C 36.761719 27.160156 36.972656 26.9375 37.191406 26.722656 L 37.140625 26.789062 C 37.640625 26.03125 38.074219 25.234375 38.429688 24.398438 L 38.449219 24.351562 C 38.578125 24.042969 38.453125 23.691406 38.160156 23.53125 L 38.15625 23.53125 C 38.058594 23.46875 37.957031 23.40625 37.851562 23.351562 C 37.832031 23.34375 37.808594 23.339844 37.789062 23.339844 C 37.765625 23.339844 37.742188 23.34375 37.722656 23.351562 L 37.71875 23.351562 C 37.605469 23.414062 37.476562 23.453125 37.347656 23.460938 L 37.359375 23.460938 C 37.070312 23.476562 36.785156 23.53125 36.511719 23.625 L 36.539062 23.628906 C 35.851562 23.644531 35.171875 23.710938 34.496094 23.828125 L 34.464844 23.832031 C 33.601562 23.945312 32.773438 24.222656 32.015625 24.652344 L 32.007812 24.652344 C 31.828125 24.699219 31.644531 24.71875 31.460938 24.714844 L 31.675781 24.679688 C 31.304688 24.742188 30.9375 24.808594 30.570312 24.878906 L 30.363281 24.917969 C 30.304688 24.921875 30.246094 24.941406 30.203125 24.980469 C 30.164062 25.027344 30.140625 25.082031 30.140625 25.140625 C 30.132812 25.429688 30.203125 25.714844 30.34375 25.964844 L 30.347656 25.96875 L 30.46875 26.101562 L 30.570312 26.128906 L 30.566406 26.125 C 30.867188 26.242188 31.199219 26.265625 31.511719 26.1875 L 31.460938 26.199219 C 32.449219 26.015625 33.429688 25.796875 34.40625 25.546875 L 34.460938 25.535156 C 34.535156 25.523438 34.613281 25.53125 34.6875 25.550781 C 34.714844 25.558594 34.738281 25.582031 34.75 25.605469 C 34.761719 25.632812 34.761719 25.664062 34.75 25.691406 L 34.75 25.695312 C 34.441406 26.324219 33.984375 26.871094 33.417969 27.285156 L 33.425781 27.277344 C 33.257812 27.460938 33.117188 27.667969 33.019531 27.894531 L 33.019531 27.902344 C 32.894531 28.175781 32.660156 28.386719 32.375 28.484375 L 32.382812 28.480469 C 32.21875 28.558594 32.058594 28.652344 31.90625 28.761719 L 31.902344 28.765625 C 31.859375 28.796875 31.832031 28.84375 31.824219 28.894531 L 31.839844 28.957031 L 31.828125 28.921875 C 31.917969 29.183594 32.023438 29.441406 32.136719 29.695312 L 32.152344 29.726562 C 32.28125 29.9375 32.464844 30.105469 32.6875 30.210938 L 32.691406 30.210938 L 32.808594 30.296875 C 32.992188 30.425781 33.234375 30.453125 33.441406 30.367188 L 33.445312 30.363281 C 34.058594 30.226562 34.683594 30.171875 35.3125 30.195312 L 35.300781 30.199219 C 35.40625 30.179688 35.511719 30.160156 35.617188 30.136719 L 35.628906 30.132812 C 35.699219 30.109375 35.773438 30.097656 35.847656 30.09375 C 35.921875 30.09375 35.996094 30.105469 36.066406 30.128906 L 36.0625 30.128906 C 36.316406 30.238281 36.601562 30.238281 36.855469 30.132812 L 36.855469 30.128906 C 36.925781 30.105469 37 30.09375 37.074219 30.09375 C 37.148438 30.09375 37.21875 30.105469 37.289062 30.128906 C 37.542969 30.246094 37.832031 30.234375 38.078125 30.101562 L 37.984375 30.140625 C 38.269531 30.019531 38.546875 29.894531 38.828125 29.761719 L 38.910156 29.722656 "/>
<path style=" stroke:none;fill-rule:nonzero;fill:rgb(92.700195%,11.358643%,15.148926%);fill-opacity:1;" d="M 8.808594 22.277344 C 8.804688 22.273438 8.800781 22.269531 8.796875 22.261719 L 8.808594 22.277344 "/>
<path style="fill:none;stroke-width:1.2;stroke-linecap:round;stroke-linejoin:round;stroke:rgb(92.700195%,11.358643%,15.148926%);stroke-opacity:1;stroke-miterlimit:4;" d="M 122.34375 353.242188 L 122.34375 353.242188 " transform="matrix(0.1,0,0,-0.1,0,56)"/>
<path style=" stroke:none;fill-rule:nonzero;fill:rgb(92.700195%,11.358643%,15.148926%);fill-opacity:1;" d="M 26.625 29.1875 C 26.625 29.1875 26.625 29.1875 26.621094 29.1875 C 26.621094 29.183594 26.617188 29.183594 26.617188 29.183594 L 26.625 29.1875 "/>
<path style=" stroke:none;fill-rule:nonzero;fill:rgb(92.700195%,11.358643%,15.148926%);fill-opacity:1;" d="M 25.214844 25.824219 L 25.085938 25.933594 C 24.324219 26.597656 23.542969 27.238281 22.742188 27.851562 C 22.746094 27.851562 22.753906 27.847656 22.757812 27.84375 L 22.613281 27.953125 C 22.65625 27.921875 22.699219 27.886719 22.742188 27.851562 C 22.664062 27.910156 22.570312 27.945312 22.472656 27.945312 L 22.472656 27.949219 C 22.347656 27.976562 22.222656 27.976562 22.097656 27.945312 C 22.023438 27.917969 21.976562 27.839844 21.992188 27.757812 L 22.023438 27.65625 L 22.171875 27.257812 L 22.175781 27.25 C 22.636719 26.3125 23.417969 25.574219 24.378906 25.167969 L 24.359375 25.171875 C 24.691406 25.066406 24.984375 24.875 25.21875 24.617188 L 25.226562 24.609375 C 25.304688 24.527344 25.390625 24.449219 25.476562 24.378906 L 25.480469 24.371094 C 25.480469 24.375 25.476562 24.375 25.476562 24.378906 C 25.496094 24.367188 25.515625 24.359375 25.535156 24.359375 C 25.550781 24.359375 25.566406 24.367188 25.578125 24.378906 L 25.632812 24.519531 L 25.632812 24.523438 C 25.710938 24.996094 25.554688 25.480469 25.214844 25.824219 Z M 13.054688 28.769531 L 13.050781 28.777344 C 12.945312 28.933594 12.832031 29.089844 12.71875 29.242188 L 12.710938 29.253906 C 12.714844 29.25 12.714844 29.246094 12.71875 29.242188 L 12.488281 29.421875 L 12.472656 29.429688 C 12.210938 29.574219 11.949219 29.710938 11.679688 29.839844 L 11.664062 29.847656 C 11.667969 29.847656 11.675781 29.84375 11.679688 29.839844 C 10.726562 30.109375 9.785156 30.414062 8.859375 30.757812 L 8.855469 30.757812 C 8.835938 30.765625 8.816406 30.769531 8.796875 30.769531 C 8.773438 30.769531 8.75 30.765625 8.730469 30.757812 C 8.5625 30.671875 8.386719 30.621094 8.203125 30.605469 L 8.199219 30.605469 C 7.730469 30.546875 7.503906 30 7.792969 29.625 L 7.855469 29.558594 C 8.34375 29.03125 8.851562 28.515625 9.375 28.015625 L 9.363281 28.046875 C 10.234375 27.511719 11.136719 27.027344 12.066406 26.59375 C 12.0625 26.597656 12.058594 26.597656 12.054688 26.597656 L 12.113281 26.570312 C 12.097656 26.578125 12.082031 26.585938 12.066406 26.59375 C 12.121094 26.570312 12.179688 26.566406 12.238281 26.578125 L 12.316406 26.625 C 12.40625 26.699219 12.484375 26.792969 12.539062 26.902344 C 12.738281 27.183594 12.90625 27.496094 13.027344 27.824219 L 13.019531 27.792969 C 13.050781 27.898438 13.082031 28 13.117188 28.101562 L 13.125 28.132812 C 13.214844 28.339844 13.1875 28.582031 13.054688 28.769531 Z M 31.683594 27.609375 C 31.613281 27.515625 31.515625 27.445312 31.402344 27.414062 C 31.398438 27.410156 31.394531 27.410156 31.390625 27.410156 L 31.386719 27.410156 L 31.070312 27.335938 L 31.066406 27.335938 C 30.980469 27.316406 30.894531 27.285156 30.8125 27.246094 C 30.753906 27.21875 30.703125 27.183594 30.65625 27.140625 C 30.433594 26.949219 30.195312 26.777344 29.9375 26.636719 L 29.933594 26.632812 C 29.808594 26.535156 29.734375 26.386719 29.730469 26.226562 L 29.734375 26.226562 C 29.679688 25.550781 29.601562 24.878906 29.507812 24.207031 L 29.40625 23.902344 C 29.367188 23.851562 29.328125 23.808594 29.277344 23.773438 L 29.273438 23.769531 C 29.246094 23.75 29.21875 23.726562 29.195312 23.699219 L 29.199219 23.703125 C 29.058594 23.527344 28.828125 23.445312 28.609375 23.492188 L 28.449219 23.539062 L 28.414062 23.550781 C 27.75 23.75 27.066406 23.882812 26.371094 23.945312 L 26.402344 23.945312 C 26.320312 23.976562 26.242188 24.003906 26.160156 24.035156 C 26.109375 24.050781 26.058594 24.054688 26.007812 24.054688 C 25.964844 24.050781 25.925781 24.039062 25.894531 24.015625 L 25.875 24.003906 C 25.8125 23.957031 25.753906 23.914062 25.695312 23.867188 L 25.714844 23.882812 C 25.609375 23.777344 25.46875 23.710938 25.316406 23.703125 L 25.285156 23.703125 C 25.097656 23.695312 24.914062 23.683594 24.730469 23.664062 C 24.679688 23.660156 24.632812 23.652344 24.585938 23.632812 C 24.53125 23.613281 24.480469 23.589844 24.433594 23.558594 L 24.4375 23.558594 C 24.015625 23.316406 23.550781 23.160156 23.070312 23.097656 C 21.839844 23.011719 20.617188 23.066406 19.417969 23.253906 L 19.410156 23.257812 C 19.253906 23.277344 19.089844 23.253906 18.945312 23.1875 L 18.863281 23.148438 C 18.824219 23.125 18.773438 23.125 18.734375 23.148438 L 18.710938 23.15625 C 18.144531 23.332031 17.558594 23.4375 16.96875 23.46875 C 16.859375 23.46875 16.753906 23.429688 16.671875 23.359375 L 16.601562 23.296875 C 16.023438 22.785156 15.464844 22.253906 14.933594 21.699219 L 15 21.769531 C 14.097656 21.351562 13.175781 20.984375 12.234375 20.675781 C 12.210938 20.667969 12.183594 20.667969 12.15625 20.675781 C 12.089844 20.695312 12.023438 20.71875 11.960938 20.746094 L 11.945312 20.753906 C 11.601562 20.910156 11.246094 21.023438 10.875 21.089844 L 10.746094 21.148438 C 10.066406 21.425781 9.375 21.683594 8.679688 21.929688 L 8.828125 21.878906 C 8.75 21.902344 8.703125 21.980469 8.71875 22.0625 C 8.730469 22.140625 8.761719 22.214844 8.808594 22.277344 C 9.378906 23.039062 10.015625 23.746094 10.710938 24.398438 L 10.722656 24.410156 C 10.984375 24.714844 11.234375 25.03125 11.476562 25.355469 C 11.484375 25.378906 11.484375 25.40625 11.472656 25.429688 C 11.460938 25.460938 11.4375 25.484375 11.40625 25.5 C 9.980469 26.082031 8.648438 26.875 7.449219 27.847656 C 7.339844 27.914062 7.214844 27.960938 7.089844 27.980469 C 7.042969 27.992188 7 28.015625 6.964844 28.042969 C 6.925781 28.070312 6.890625 28.105469 6.867188 28.148438 L 6.824219 28.199219 C 6.261719 28.839844 5.683594 29.46875 5.09375 30.085938 L 5.144531 30.03125 C 4.9375 30.34375 4.808594 30.699219 4.769531 31.070312 L 4.769531 31.078125 C 4.746094 31.148438 4.71875 31.214844 4.683594 31.28125 L 4.683594 31.277344 C 4.675781 31.296875 4.671875 31.320312 4.671875 31.34375 C 4.671875 31.363281 4.675781 31.386719 4.683594 31.40625 C 4.980469 32.148438 5.753906 32.589844 6.542969 32.464844 L 6.535156 32.464844 C 7.773438 32.472656 9.019531 32.28125 10.207031 31.886719 L 10.242188 31.875 C 10.886719 31.820312 11.503906 31.59375 12.03125 31.214844 L 12.011719 31.222656 C 13.792969 30.453125 15.464844 29.449219 16.980469 28.234375 L 17 28.21875 C 17.902344 27.617188 18.382812 26.550781 18.234375 25.476562 C 18.191406 25.351562 18.117188 25.242188 18.023438 25.148438 L 18.019531 25.148438 L 17.960938 25.074219 C 17.933594 25.035156 17.933594 24.988281 17.960938 24.953125 C 18.070312 24.816406 18.234375 24.734375 18.410156 24.722656 L 18.40625 24.722656 C 18.765625 24.730469 19.125 24.675781 19.464844 24.558594 L 19.46875 24.558594 C 19.765625 24.46875 20.089844 24.496094 20.367188 24.632812 C 20.40625 24.65625 20.457031 24.65625 20.496094 24.632812 L 20.5 24.628906 C 20.5625 24.597656 20.628906 24.570312 20.699219 24.546875 C 20.835938 24.527344 20.976562 24.515625 21.121094 24.511719 C 21.203125 24.507812 21.28125 24.558594 21.308594 24.636719 C 21.339844 24.746094 21.300781 24.867188 21.207031 24.933594 C 20.769531 25.214844 20.34375 25.519531 19.9375 25.839844 C 19.816406 25.96875 19.734375 26.132812 19.710938 26.308594 C 19.699219 26.355469 19.675781 26.398438 19.648438 26.433594 L 19.648438 26.4375 C 19.617188 26.476562 19.582031 26.507812 19.539062 26.535156 L 19.542969 26.53125 C 19.339844 26.621094 19.191406 26.796875 19.132812 27.007812 L 19.132812 27.011719 C 19.109375 27.09375 19.078125 27.171875 19.03125 27.242188 C 19.007812 27.285156 18.972656 27.324219 18.929688 27.351562 L 18.925781 27.351562 C 18.90625 27.363281 18.882812 27.378906 18.859375 27.390625 C 18.808594 27.414062 18.757812 27.445312 18.714844 27.484375 C 18.636719 27.546875 18.578125 27.628906 18.546875 27.722656 L 18.515625 27.894531 L 18.515625 27.886719 C 18.257812 28.46875 18.238281 29.132812 18.464844 29.726562 L 18.46875 29.730469 C 18.847656 30.433594 19.648438 30.796875 20.425781 30.621094 L 20.414062 30.621094 C 21.398438 30.632812 22.339844 30.253906 23.042969 29.570312 L 23.011719 29.589844 C 23.542969 29.25 24.046875 28.867188 24.523438 28.449219 L 24.554688 28.421875 C 24.773438 28.308594 24.953125 28.132812 25.070312 27.917969 L 25.140625 27.78125 L 25.140625 27.777344 C 25.390625 27.492188 25.855469 27.566406 26 27.917969 L 26 27.910156 C 26.15625 28.238281 26.347656 28.546875 26.578125 28.828125 L 26.582031 28.832031 C 26.589844 28.84375 26.59375 28.859375 26.59375 28.875 C 26.59375 28.898438 26.585938 28.921875 26.578125 28.941406 C 26.566406 28.976562 26.550781 29.011719 26.53125 29.042969 C 26.523438 29.066406 26.527344 29.085938 26.539062 29.105469 C 26.558594 29.140625 26.589844 29.164062 26.621094 29.1875 C 26.898438 29.367188 27.183594 29.535156 27.476562 29.691406 L 27.484375 29.695312 C 27.964844 29.882812 28.5 29.820312 28.921875 29.53125 L 28.875 29.550781 C 29.691406 29.171875 30.46875 28.722656 31.207031 28.210938 L 31.238281 28.1875 C 31.367188 28.066406 31.488281 27.941406 31.609375 27.8125 L 31.621094 27.800781 L 31.683594 27.726562 C 31.710938 27.691406 31.710938 27.644531 31.683594 27.609375 "/>
<path style=" stroke:none;fill-rule:nonzero;fill:rgb(100%,100%,100%);fill-opacity:1;" d="M 22.757812 27.84375 C 22.753906 27.847656 22.746094 27.851562 22.742188 27.851562 C 22.699219 27.886719 22.65625 27.921875 22.613281 27.953125 L 22.757812 27.84375 "/>
<path style=" stroke:none;fill-rule:nonzero;fill:rgb(100%,100%,100%);fill-opacity:1;" d="M 25.476562 24.378906 C 25.476562 24.375 25.480469 24.375 25.480469 24.371094 L 25.476562 24.378906 "/>
<path style=" stroke:none;fill-rule:nonzero;fill:rgb(92.700195%,11.358643%,15.148926%);fill-opacity:1;" d="M 13.804688 31.519531 C 13.746094 31.808594 13.683594 32.09375 13.625 32.386719 C 13.589844 32.570312 13.550781 32.753906 13.511719 32.9375 C 13.484375 33.023438 13.496094 33.082031 13.402344 33.136719 L 13.351562 33.113281 L 13.398438 33.242188 L 13.375 33.34375 L 13.300781 33.410156 L 13.179688 33.460938 L 13.050781 33.488281 L 12.910156 33.484375 L 12.78125 33.464844 L 12.675781 33.410156 L 12.667969 33.558594 L 12.726562 33.730469 L 12.824219 33.925781 L 12.953125 34.136719 L 13.089844 34.351562 L 13.21875 34.574219 L 13.3125 34.789062 L 13.363281 35.003906 L 13.144531 34.929688 L 12.882812 34.789062 L 12.65625 34.628906 L 12.511719 34.515625 L 12.53125 34.652344 L 12.527344 34.773438 L 12.480469 34.875 L 12.417969 34.953125 L 12.351562 35.007812 L 12.265625 35.03125 L 12.183594 35.03125 L 12.105469 34.996094 L 12.078125 35.066406 L 11.992188 35.105469 L 11.875 35.117188 L 11.71875 35.105469 L 11.574219 35.082031 L 11.429688 35.046875 L 11.320312 35.015625 L 11.25 34.988281 L 11.296875 35.0625 L 11.359375 35.148438 L 11.425781 35.246094 L 11.492188 35.351562 L 11.539062 35.460938 L 11.570312 35.566406 L 11.558594 35.65625 L 11.511719 35.738281 C 11.730469 35.808594 11.859375 36.070312 11.683594 36.265625 L 11.796875 36.316406 L 11.953125 36.40625 L 12.125 36.519531 L 12.285156 36.664062 L 12.40625 36.8125 L 12.453125 36.960938 L 12.402344 37.082031 L 12.222656 37.175781 L 12.269531 37.269531 L 12.257812 37.359375 L 12.21875 37.445312 L 12.148438 37.527344 L 12.0625 37.585938 L 11.96875 37.648438 L 11.886719 37.695312 L 11.820312 37.722656 C 12.171875 37.972656 12.722656 38.023438 13.125 37.886719 C 13.601562 37.765625 13.597656 38.140625 13.234375 38.386719 L 13.390625 38.472656 L 13.554688 38.484375 L 13.730469 38.433594 L 13.898438 38.347656 L 14.0625 38.257812 L 14.207031 38.175781 L 14.328125 38.136719 L 14.414062 38.152344 C 14.472656 37.800781 14.804688 37.519531 15.164062 37.53125 C 15.238281 37.851562 15.417969 38.316406 15.671875 38.53125 L 15.660156 38.523438 C 16.355469 38.988281 17.101562 39.371094 17.886719 39.664062 L 17.898438 39.667969 L 18.105469 39.277344 L 18.078125 39.265625 C 17.394531 38.960938 16.753906 38.574219 16.164062 38.117188 L 16.191406 38.136719 C 15.953125 38.023438 15.820312 37.769531 15.816406 37.515625 C 16.070312 37.160156 16.515625 37.125 16.863281 37.355469 L 16.910156 37.265625 L 16.996094 37.199219 L 17.132812 37.152344 L 17.296875 37.117188 L 17.484375 37.074219 L 17.671875 37.019531 L 17.855469 36.9375 L 18.027344 36.824219 C 16.992188 36.691406 18.460938 35.671875 18.757812 35.566406 L 18.632812 35.585938 L 18.515625 35.601562 L 18.402344 35.605469 L 18.292969 35.59375 L 18.203125 35.566406 L 18.132812 35.53125 L 18.085938 35.464844 L 18.066406 35.386719 L 18.03125 35.449219 L 17.980469 35.480469 L 17.929688 35.488281 L 17.878906 35.472656 L 17.832031 35.429688 L 17.792969 35.363281 L 17.769531 35.277344 L 17.765625 35.175781 C 17.796875 34.859375 17.96875 34.582031 18.152344 34.328125 C 17.363281 34.46875 18.109375 33.691406 17.476562 33 L 17.46875 33.136719 L 17.421875 33.265625 L 17.355469 33.375 L 17.273438 33.457031 L 17.1875 33.515625 L 17.109375 33.546875 L 17.050781 33.539062 L 17.023438 33.496094 L 16.96875 33.574219 L 16.890625 33.617188 L 16.785156 33.636719 L 16.675781 33.636719 L 16.570312 33.613281 L 16.457031 33.582031 L 16.363281 33.535156 L 16.300781 33.492188 C 16.308594 33.785156 16.132812 34.074219 15.9375 34.28125 C 15.875 33.714844 15.828125 33.148438 15.761719 32.582031 C 15.640625 32.777344 15.371094 32.898438 15.1875 32.710938 L 15.089844 32.789062 L 14.929688 32.734375 L 14.726562 32.578125 L 14.507812 32.359375 L 14.289062 32.105469 L 14.082031 31.863281 L 13.917969 31.652344 L 13.804688 31.519531 "/>
<path style=" stroke:none;fill-rule:nonzero;fill:rgb(73.013306%,25.708008%,19.989014%);fill-opacity:1;" d="M 15.542969 37.003906 L 15.632812 37.027344 C 15.769531 36.863281 15.71875 36.886719 15.886719 36.925781 C 16.035156 36.976562 16.28125 37.007812 16.4375 36.976562 L 16.363281 36.964844 L 16.292969 36.9375 L 16.234375 36.910156 L 16.183594 36.878906 C 16.519531 36.898438 16.917969 36.839844 17.207031 36.664062 C 16.921875 36.726562 16.542969 36.847656 16.269531 36.71875 C 16.382812 36.519531 16.523438 36.378906 16.683594 36.21875 C 16.472656 36.308594 16.273438 36.507812 16.136719 36.6875 C 15.992188 36.695312 15.847656 36.691406 15.703125 36.710938 C 15.714844 36.601562 15.707031 36.503906 15.667969 36.402344 L 15.980469 36.402344 L 15.800781 36.222656 L 15.808594 36.222656 L 15.835938 36.234375 L 15.886719 36.242188 L 15.945312 36.246094 L 16.019531 36.25 L 16.09375 36.242188 L 16.175781 36.230469 L 16.265625 36.210938 L 16.199219 36.164062 L 16.140625 36.117188 L 16.085938 36.058594 L 16.046875 35.992188 L 16.546875 35.929688 L 16.445312 35.902344 L 16.339844 35.859375 L 16.261719 35.8125 L 16.195312 35.769531 C 16.371094 35.773438 16.550781 35.78125 16.726562 35.761719 L 16.476562 35.699219 C 16.675781 35.636719 16.925781 35.496094 17.109375 35.390625 C 16.890625 35.476562 16.730469 35.554688 16.5 35.4375 C 16.566406 35.347656 16.605469 35.246094 16.652344 35.148438 C 16.917969 35.101562 17.171875 35.015625 17.429688 34.945312 C 17.257812 34.953125 17.078125 34.925781 16.90625 34.964844 C 17.179688 34.742188 17.398438 34.214844 17.421875 33.863281 C 17.347656 34.101562 17.191406 34.449219 17.011719 34.621094 C 17.03125 34.394531 17.070312 34.132812 17.1875 33.933594 C 16.953125 34.164062 16.949219 34.492188 16.835938 34.777344 C 16.660156 35.019531 16.292969 35.269531 16.183594 35.515625 C 16.101562 35.101562 16.097656 35.246094 16.363281 34.941406 L 16.320312 34.960938 L 16.261719 34.988281 L 16.210938 35.019531 L 16.167969 35.050781 C 16.152344 34.808594 16.164062 34.648438 16.253906 34.417969 C 16.0625 34.785156 15.988281 35.214844 16.0625 35.621094 C 15.878906 35.78125 15.683594 35.921875 15.46875 36.035156 C 15.574219 36.355469 15.5625 36.671875 15.542969 37.003906 "/>
<path style=" stroke:none;fill-rule:nonzero;fill:rgb(73.013306%,25.708008%,19.989014%);fill-opacity:1;" d="M 15.429688 37.070312 C 15.5 36.296875 15.261719 35.816406 15.042969 35.09375 C 14.757812 34.160156 14.492188 32.84375 13.871094 32.09375 L 13.902344 32.15625 L 13.9375 32.21875 L 13.96875 32.292969 L 13.996094 32.367188 L 13.953125 32.339844 L 13.890625 32.3125 L 13.839844 32.296875 L 13.789062 32.304688 L 13.886719 32.398438 L 13.964844 32.507812 L 14.03125 32.621094 L 14.105469 32.734375 L 14.054688 32.695312 L 14 32.652344 L 13.886719 32.5625 L 13.960938 32.664062 L 14.039062 32.773438 L 14.125 32.886719 L 14.210938 33.007812 L 14.152344 32.964844 L 14.019531 32.855469 L 13.957031 32.820312 L 14.035156 32.914062 L 14.097656 33.011719 L 14.160156 33.105469 L 14.226562 33.21875 L 14.164062 33.179688 L 14.03125 33.074219 L 13.96875 33.015625 L 14.03125 33.128906 L 14.121094 33.234375 L 14.21875 33.332031 L 14.324219 33.414062 L 14.171875 33.402344 L 14.011719 33.351562 L 13.867188 33.28125 L 13.746094 33.207031 L 13.78125 33.261719 L 13.820312 33.320312 L 13.867188 33.363281 L 13.917969 33.421875 L 13.835938 33.414062 L 13.695312 33.386719 L 13.636719 33.367188 C 13.890625 33.574219 14.167969 33.519531 14.460938 33.832031 L 14.402344 33.828125 L 14.335938 33.832031 L 14.265625 33.839844 L 14.179688 33.855469 L 14.308594 33.910156 L 14.4375 34.003906 L 14.589844 34.121094 L 14.371094 34.058594 L 14.667969 34.390625 L 14.441406 34.34375 L 14.46875 34.378906 L 14.535156 34.46875 L 14.625 34.574219 L 14.699219 34.660156 L 14.4375 34.523438 L 14.125 34.292969 L 13.8125 34.046875 L 13.5625 33.84375 L 13.652344 33.941406 L 13.75 34.042969 L 13.859375 34.15625 L 13.980469 34.273438 L 13.796875 34.179688 L 13.703125 34.144531 L 13.589844 34.109375 L 13.730469 34.277344 L 13.625 34.226562 L 13.496094 34.171875 L 13.367188 34.125 L 13.269531 34.09375 L 13.421875 34.195312 L 13.632812 34.324219 L 13.851562 34.433594 L 14.039062 34.523438 C 13.882812 34.570312 13.792969 34.707031 13.722656 34.84375 C 13.984375 34.554688 14.507812 34.597656 14.761719 34.875 L 14.6875 34.878906 L 14.605469 34.878906 L 14.523438 34.867188 L 14.449219 34.84375 L 14.527344 34.945312 L 14.636719 35.054688 L 14.761719 35.164062 L 14.878906 35.257812 L 14.746094 35.207031 L 14.621094 35.136719 L 14.503906 35.0625 L 14.410156 34.996094 L 14.472656 35.128906 L 14.398438 35.070312 L 14.324219 35.03125 L 14.234375 34.988281 L 14.117188 34.941406 L 14.285156 35.054688 C 14.1875 35.054688 14.015625 35.058594 13.929688 35.109375 C 14.289062 35.152344 14.644531 35.285156 14.921875 35.515625 L 14.894531 35.503906 L 14.835938 35.484375 L 14.777344 35.457031 L 14.734375 35.441406 L 14.78125 35.570312 L 14.871094 35.695312 L 14.988281 35.8125 L 15.101562 35.921875 L 14.996094 35.882812 L 14.886719 35.835938 L 14.789062 35.785156 L 14.699219 35.730469 L 14.757812 35.84375 L 14.851562 35.953125 L 14.960938 36.066406 L 15.078125 36.171875 L 14.980469 36.144531 L 14.890625 36.101562 L 14.804688 36.042969 L 14.726562 35.980469 L 14.804688 36.105469 L 14.90625 36.230469 L 15.011719 36.347656 L 15.105469 36.453125 L 15.007812 36.410156 L 14.921875 36.371094 L 14.847656 36.328125 L 14.792969 36.292969 L 14.820312 36.351562 L 14.867188 36.429688 L 14.925781 36.507812 L 14.996094 36.589844 L 14.875 36.515625 L 14.75 36.417969 L 14.648438 36.320312 L 14.570312 36.230469 L 14.613281 36.371094 C 14.242188 36.035156 13.9375 35.75 14.40625 35.3125 C 14.277344 35.386719 14.160156 35.484375 14.089844 35.617188 L 14.007812 35.527344 L 13.914062 35.398438 L 13.828125 35.277344 L 13.757812 35.15625 C 13.8125 35.527344 14.070312 36.023438 14.320312 36.296875 L 14.269531 36.257812 L 14.207031 36.210938 L 14.136719 36.144531 L 14.0625 36.089844 L 14.066406 36.109375 L 14.085938 36.152344 L 14.101562 36.199219 L 14.117188 36.238281 L 13.996094 36.152344 L 13.78125 35.984375 L 13.53125 35.796875 L 13.300781 35.613281 L 13.40625 35.710938 L 13.550781 35.859375 L 13.703125 36.003906 L 13.816406 36.128906 L 13.765625 36.109375 L 13.703125 36.078125 L 13.644531 36.042969 L 13.601562 36.015625 L 13.617188 36.054688 L 13.679688 36.160156 L 13.707031 36.199219 L 13.574219 36.132812 L 13.449219 36.050781 L 13.351562 35.964844 L 13.273438 35.90625 L 13.296875 35.976562 L 13.335938 36.042969 L 13.378906 36.113281 L 13.433594 36.175781 L 13.324219 36.125 L 13.203125 36.066406 L 13.078125 35.988281 L 12.980469 35.917969 L 12.996094 35.96875 L 13.023438 36.027344 L 13.066406 36.078125 L 13.113281 36.132812 L 12.894531 35.96875 L 12.6875 35.78125 L 12.503906 35.589844 L 12.367188 35.410156 L 12.441406 35.550781 L 12.558594 35.714844 L 12.671875 35.867188 L 12.769531 35.988281 L 12.558594 35.945312 L 12.351562 35.851562 L 12.15625 35.742188 L 12.015625 35.65625 C 12.355469 36 12.867188 36.199219 13.339844 36.28125 C 13.164062 36.339844 12.949219 36.429688 12.789062 36.523438 C 12.914062 36.488281 13.035156 36.472656 13.160156 36.453125 C 13.09375 36.535156 13.003906 36.59375 12.921875 36.664062 C 13.109375 36.628906 13.253906 36.378906 13.582031 36.355469 C 14.007812 36.3125 14.675781 36.605469 15.050781 36.796875 C 14.699219 36.753906 14.300781 36.789062 13.953125 36.863281 C 14.207031 36.878906 14.519531 36.875 14.765625 36.910156 C 14.667969 37.015625 14.503906 37.042969 14.367188 37.078125 L 14.402344 37.105469 L 14.445312 37.132812 L 14.5 37.15625 L 14.546875 37.164062 C 14.460938 37.203125 14.367188 37.207031 14.277344 37.226562 L 14.304688 37.238281 L 14.34375 37.25 L 14.382812 37.257812 L 14.414062 37.261719 C 14.164062 37.417969 13.972656 37.410156 13.699219 37.363281 L 13.789062 37.398438 L 13.902344 37.441406 L 14.015625 37.46875 L 14.117188 37.480469 C 14.042969 37.578125 13.871094 37.761719 13.769531 37.820312 C 13.929688 37.773438 14.066406 37.667969 14.203125 37.578125 L 14.1875 37.621094 L 14.179688 37.667969 L 14.164062 37.71875 L 14.15625 37.765625 L 14.144531 37.8125 L 14.136719 37.851562 L 14.128906 37.871094 L 14.128906 37.882812 C 14.292969 37.597656 14.507812 37.378906 14.738281 37.152344 C 14.980469 36.867188 15.132812 37.0625 15.429688 37.070312 "/>
<path style=" stroke:none;fill-rule:nonzero;fill:rgb(73.013306%,25.708008%,19.989014%);fill-opacity:1;" d="M 17.371094 35.402344 C 17.082031 35.421875 16.910156 35.570312 16.828125 35.839844 L 16.992188 35.941406 C 16.96875 35.695312 17.171875 35.511719 17.371094 35.402344 "/>
<path style=" stroke:none;fill-rule:nonzero;fill:rgb(73.013306%,25.708008%,19.989014%);fill-opacity:1;" d="M 13.746094 36.503906 C 13.46875 36.441406 13.109375 36.621094 12.96875 36.863281 C 13.136719 36.691406 13.574219 36.542969 13.796875 36.625 L 13.746094 36.503906 "/>
<path style=" stroke:none;fill-rule:nonzero;fill:rgb(73.013306%,25.708008%,19.989014%);fill-opacity:1;" d="M 12.175781 36.097656 L 12.277344 36.246094 L 12.390625 36.355469 L 12.507812 36.429688 L 12.632812 36.480469 L 12.800781 36.414062 L 12.628906 36.351562 L 12.453125 36.269531 L 12.292969 36.179688 L 12.175781 36.097656 "/>
<path style=" stroke:none;fill-rule:nonzero;fill:rgb(73.013306%,25.708008%,19.989014%);fill-opacity:1;" d="M 14.546875 33.074219 C 14.636719 33.332031 14.800781 33.667969 14.859375 33.925781 C 14.945312 33.789062 14.917969 33.625 14.820312 33.503906 L 14.847656 33.515625 L 14.917969 33.550781 L 14.957031 33.574219 L 14.894531 33.5 L 14.839844 33.429688 L 14.777344 33.359375 L 14.703125 33.304688 L 14.777344 33.316406 L 14.84375 33.332031 L 14.917969 33.351562 L 14.988281 33.390625 L 14.851562 33.253906 L 14.777344 33.199219 L 14.683594 33.132812 C 14.703125 33.03125 14.722656 32.925781 14.707031 32.824219 C 14.683594 32.921875 14.605469 32.992188 14.546875 33.074219 "/>
<path style=" stroke:none;fill-rule:nonzero;fill:rgb(73.013306%,25.708008%,19.989014%);fill-opacity:1;" d="M 15.167969 33.257812 C 15.273438 33.515625 15.535156 34.757812 15.125 34.839844 C 15.191406 35.144531 15.300781 35.414062 15.371094 35.714844 C 15.609375 35.507812 15.875 35.058594 15.90625 34.746094 C 15.835938 34.964844 15.65625 35.277344 15.46875 35.410156 L 15.4375 35.367188 L 15.375 35.261719 L 15.339844 35.203125 L 15.363281 35.164062 L 15.386719 35.128906 L 15.414062 35.085938 L 15.433594 35.035156 L 15.488281 35.046875 L 15.542969 35.070312 L 15.601562 35.097656 L 15.648438 35.121094 L 15.59375 35.054688 L 15.539062 35.003906 L 15.5 34.953125 L 15.449219 34.914062 C 15.460938 34.792969 15.652344 34.609375 15.742188 34.535156 C 15.644531 34.585938 15.476562 34.667969 15.414062 34.757812 L 15.394531 34.679688 L 15.417969 34.652344 L 15.449219 34.621094 L 15.492188 34.601562 L 15.53125 34.589844 L 15.507812 34.570312 L 15.445312 34.535156 L 15.417969 34.535156 L 15.449219 34.507812 L 15.503906 34.484375 L 15.5625 34.46875 L 15.628906 34.464844 L 15.589844 34.433594 L 15.539062 34.414062 L 15.496094 34.398438 L 15.460938 34.386719 C 15.46875 34.296875 15.5625 34.148438 15.617188 34.074219 L 15.570312 34.085938 L 15.519531 34.09375 L 15.472656 34.105469 L 15.433594 34.121094 C 15.457031 33.820312 15.496094 33.507812 15.558594 33.210938 C 15.496094 33.390625 15.445312 33.558594 15.410156 33.746094 C 15.363281 33.570312 15.273438 33.40625 15.167969 33.257812 "/>
<path style=" stroke:none;fill-rule:nonzero;fill:rgb(96.809387%,75.292969%,4.6875%);fill-opacity:1;" d="M 21.632812 31.519531 C 21.574219 31.804688 21.511719 32.097656 21.453125 32.386719 C 21.417969 32.570312 21.378906 32.753906 21.335938 32.9375 C 21.3125 33.023438 21.324219 33.082031 21.226562 33.136719 L 21.179688 33.113281 L 21.226562 33.242188 L 21.203125 33.34375 L 21.128906 33.410156 L 21.007812 33.460938 L 20.878906 33.488281 L 20.734375 33.484375 L 20.605469 33.464844 L 20.503906 33.410156 L 20.496094 33.558594 L 20.550781 33.730469 L 20.652344 33.925781 L 20.78125 34.136719 L 20.917969 34.351562 L 21.046875 34.574219 L 21.140625 34.789062 L 21.191406 35.003906 L 20.972656 34.929688 L 20.710938 34.789062 L 20.484375 34.628906 L 20.335938 34.515625 L 20.359375 34.652344 L 20.351562 34.773438 L 20.308594 34.875 L 20.246094 34.953125 L 20.175781 35.007812 L 20.09375 35.03125 L 20.011719 35.03125 L 19.933594 34.996094 L 19.90625 35.066406 L 19.820312 35.105469 L 19.703125 35.117188 L 19.546875 35.105469 L 19.402344 35.082031 L 19.257812 35.046875 L 19.144531 35.015625 L 19.078125 34.988281 L 19.125 35.0625 L 19.1875 35.148438 L 19.253906 35.246094 L 19.320312 35.351562 L 19.367188 35.460938 L 19.394531 35.566406 L 19.386719 35.65625 L 19.339844 35.738281 C 19.558594 35.808594 19.6875 36.070312 19.511719 36.265625 L 19.625 36.316406 L 19.78125 36.40625 L 19.953125 36.519531 L 20.113281 36.664062 L 20.234375 36.8125 L 20.28125 36.960938 L 20.230469 37.082031 L 20.046875 37.175781 L 20.09375 37.269531 L 20.085938 37.359375 L 20.046875 37.445312 L 19.972656 37.527344 L 19.890625 37.585938 L 19.796875 37.648438 L 19.714844 37.695312 L 19.648438 37.722656 C 20 37.972656 20.550781 38.023438 20.953125 37.886719 C 21.429688 37.765625 21.425781 38.140625 21.058594 38.386719 L 21.21875 38.472656 L 21.382812 38.484375 L 21.558594 38.433594 L 21.726562 38.347656 L 21.890625 38.257812 L 22.03125 38.175781 L 22.15625 38.136719 L 22.242188 38.152344 C 22.300781 37.800781 22.632812 37.519531 22.992188 37.53125 C 23.066406 37.851562 23.242188 38.316406 23.5 38.53125 L 23.488281 38.523438 C 24.183594 38.988281 24.929688 39.371094 25.714844 39.664062 L 25.726562 39.667969 L 25.933594 39.277344 L 25.90625 39.265625 C 25.222656 38.960938 24.582031 38.574219 23.992188 38.117188 L 24.019531 38.136719 C 23.78125 38.023438 23.648438 37.769531 23.640625 37.515625 C 23.898438 37.160156 24.34375 37.125 24.691406 37.355469 L 24.734375 37.265625 L 24.824219 37.199219 L 24.960938 37.152344 L 25.125 37.117188 L 25.3125 37.074219 L 25.5 37.019531 L 25.683594 36.9375 L 25.851562 36.824219 C 24.820312 36.691406 26.289062 35.671875 26.585938 35.566406 L 26.460938 35.585938 L 26.339844 35.601562 L 26.230469 35.605469 L 26.121094 35.59375 L 26.03125 35.566406 L 25.960938 35.53125 L 25.914062 35.464844 L 25.894531 35.386719 L 25.859375 35.449219 L 25.808594 35.480469 L 25.757812 35.488281 L 25.707031 35.472656 L 25.660156 35.429688 L 25.621094 35.363281 L 25.59375 35.277344 L 25.59375 35.175781 C 25.625 34.859375 25.792969 34.582031 25.976562 34.328125 C 25.191406 34.46875 25.9375 33.691406 25.304688 33 L 25.292969 33.136719 L 25.25 33.265625 L 25.179688 33.375 L 25.097656 33.457031 L 25.015625 33.515625 L 24.9375 33.546875 L 24.878906 33.539062 L 24.851562 33.496094 L 24.796875 33.574219 L 24.71875 33.617188 L 24.613281 33.636719 L 24.503906 33.636719 L 24.394531 33.613281 L 24.285156 33.582031 L 24.191406 33.535156 L 24.128906 33.492188 C 24.136719 33.785156 23.960938 34.074219 23.765625 34.28125 C 23.703125 33.714844 23.652344 33.144531 23.589844 32.582031 C 23.464844 32.777344 23.199219 32.898438 23.015625 32.710938 L 22.917969 32.789062 L 22.757812 32.734375 L 22.554688 32.578125 L 22.335938 32.359375 L 22.117188 32.105469 L 21.910156 31.863281 L 21.746094 31.652344 L 21.632812 31.519531 "/>
<path style=" stroke:none;fill-rule:nonzero;fill:rgb(95.269775%,38.668823%,9.576416%);fill-opacity:1;" d="M 23.371094 37.003906 L 23.460938 37.027344 C 23.597656 36.863281 23.546875 36.886719 23.714844 36.925781 C 23.863281 36.976562 24.109375 37.007812 24.265625 36.976562 L 24.191406 36.964844 L 24.121094 36.9375 L 24.0625 36.910156 L 24.011719 36.878906 C 24.34375 36.898438 24.746094 36.839844 25.035156 36.664062 C 24.75 36.726562 24.371094 36.847656 24.09375 36.71875 C 24.210938 36.519531 24.347656 36.378906 24.511719 36.21875 C 24.300781 36.308594 24.101562 36.507812 23.964844 36.6875 C 23.820312 36.695312 23.671875 36.691406 23.53125 36.710938 C 23.542969 36.597656 23.53125 36.507812 23.496094 36.402344 L 23.808594 36.402344 L 23.628906 36.222656 L 23.636719 36.222656 L 23.664062 36.234375 L 23.710938 36.242188 L 23.773438 36.246094 L 23.84375 36.25 L 23.921875 36.242188 L 24.003906 36.230469 L 24.09375 36.210938 L 24.027344 36.164062 L 23.964844 36.117188 L 23.914062 36.058594 L 23.875 35.992188 L 24.375 35.929688 L 24.269531 35.902344 L 24.167969 35.859375 L 24.085938 35.8125 L 24.019531 35.769531 C 24.199219 35.773438 24.378906 35.78125 24.554688 35.761719 L 24.300781 35.699219 C 24.503906 35.636719 24.753906 35.496094 24.9375 35.390625 C 24.71875 35.476562 24.558594 35.554688 24.328125 35.4375 C 24.394531 35.347656 24.433594 35.246094 24.480469 35.148438 C 24.746094 35.101562 25 35.015625 25.257812 34.945312 C 25.082031 34.953125 24.90625 34.925781 24.734375 34.964844 C 25.007812 34.742188 25.226562 34.214844 25.25 33.863281 C 25.175781 34.105469 25.019531 34.449219 24.839844 34.621094 C 24.859375 34.394531 24.894531 34.136719 25.015625 33.933594 C 24.78125 34.160156 24.777344 34.492188 24.664062 34.777344 C 24.488281 35.019531 24.117188 35.269531 24.011719 35.515625 C 23.929688 35.101562 23.925781 35.246094 24.191406 34.941406 L 24.148438 34.960938 L 24.089844 34.988281 L 24.035156 35.019531 L 23.996094 35.050781 C 23.980469 34.808594 23.992188 34.648438 24.082031 34.417969 C 23.890625 34.785156 23.816406 35.214844 23.890625 35.621094 C 23.707031 35.78125 23.511719 35.921875 23.292969 36.035156 C 23.398438 36.355469 23.390625 36.671875 23.371094 37.003906 "/>
<path style=" stroke:none;fill-rule:nonzero;fill:rgb(95.269775%,38.668823%,9.576416%);fill-opacity:1;" d="M 23.257812 37.070312 C 23.328125 36.296875 23.089844 35.816406 22.871094 35.09375 C 22.582031 34.160156 22.320312 32.84375 21.699219 32.09375 L 21.730469 32.15625 L 21.765625 32.21875 L 21.796875 32.292969 L 21.824219 32.367188 L 21.777344 32.339844 L 21.71875 32.3125 L 21.667969 32.296875 L 21.617188 32.304688 L 21.714844 32.398438 L 21.792969 32.507812 L 21.859375 32.621094 L 21.933594 32.734375 L 21.828125 32.652344 L 21.765625 32.601562 L 21.714844 32.5625 L 21.789062 32.664062 L 21.867188 32.773438 L 21.953125 32.886719 L 22.035156 33.007812 L 21.980469 32.964844 L 21.847656 32.855469 L 21.785156 32.820312 L 21.863281 32.914062 L 21.925781 33.011719 L 21.988281 33.105469 L 22.054688 33.21875 L 21.992188 33.179688 L 21.925781 33.128906 L 21.855469 33.074219 L 21.792969 33.015625 L 21.859375 33.128906 L 21.949219 33.234375 L 22.046875 33.332031 L 22.152344 33.414062 L 22 33.402344 L 21.839844 33.351562 L 21.695312 33.28125 L 21.574219 33.207031 L 21.609375 33.261719 L 21.648438 33.320312 L 21.695312 33.363281 L 21.746094 33.421875 L 21.664062 33.414062 L 21.523438 33.386719 L 21.464844 33.367188 C 21.71875 33.574219 21.996094 33.519531 22.289062 33.832031 L 22.226562 33.828125 L 22.164062 33.832031 L 22.09375 33.839844 L 22.007812 33.855469 L 22.136719 33.910156 L 22.265625 34.003906 L 22.371094 34.085938 L 22.417969 34.121094 L 22.199219 34.058594 L 22.496094 34.390625 L 22.269531 34.34375 L 22.296875 34.378906 L 22.363281 34.46875 L 22.453125 34.574219 L 22.527344 34.660156 L 22.265625 34.523438 L 21.953125 34.292969 L 21.640625 34.046875 L 21.390625 33.84375 L 21.476562 33.941406 L 21.578125 34.042969 L 21.6875 34.15625 L 21.808594 34.273438 L 21.625 34.179688 L 21.527344 34.144531 L 21.417969 34.109375 L 21.558594 34.277344 L 21.453125 34.226562 L 21.324219 34.171875 L 21.195312 34.125 L 21.09375 34.09375 L 21.25 34.195312 L 21.460938 34.324219 L 21.679688 34.433594 L 21.863281 34.523438 C 21.710938 34.570312 21.617188 34.707031 21.550781 34.84375 C 21.8125 34.554688 22.335938 34.597656 22.589844 34.875 L 22.511719 34.878906 L 22.433594 34.878906 L 22.347656 34.867188 L 22.277344 34.84375 L 22.351562 34.945312 L 22.464844 35.054688 L 22.589844 35.164062 L 22.707031 35.257812 L 22.574219 35.207031 L 22.449219 35.136719 L 22.332031 35.0625 L 22.238281 34.996094 L 22.300781 35.128906 L 22.226562 35.070312 L 22.152344 35.03125 L 22.0625 34.988281 L 21.945312 34.941406 L 22.113281 35.054688 C 22.015625 35.050781 21.84375 35.058594 21.757812 35.109375 C 22.117188 35.152344 22.46875 35.285156 22.75 35.515625 L 22.722656 35.503906 L 22.664062 35.484375 L 22.605469 35.457031 L 22.5625 35.441406 L 22.605469 35.570312 L 22.699219 35.695312 L 22.816406 35.8125 L 22.929688 35.921875 L 22.824219 35.882812 L 22.714844 35.835938 L 22.617188 35.785156 L 22.527344 35.730469 L 22.585938 35.84375 L 22.679688 35.953125 L 22.789062 36.066406 L 22.90625 36.171875 L 22.808594 36.144531 L 22.71875 36.101562 L 22.632812 36.042969 L 22.554688 35.980469 L 22.632812 36.105469 L 22.734375 36.230469 L 22.839844 36.347656 L 22.933594 36.453125 L 22.835938 36.410156 L 22.75 36.371094 L 22.671875 36.328125 L 22.617188 36.292969 L 22.648438 36.351562 L 22.695312 36.429688 L 22.753906 36.507812 L 22.824219 36.589844 L 22.703125 36.515625 L 22.578125 36.417969 L 22.472656 36.320312 L 22.398438 36.230469 L 22.441406 36.371094 C 22.070312 36.035156 21.765625 35.75 22.234375 35.3125 C 22.105469 35.386719 21.988281 35.484375 21.914062 35.617188 L 21.832031 35.527344 L 21.742188 35.398438 L 21.65625 35.277344 L 21.585938 35.15625 C 21.640625 35.527344 21.898438 36.019531 22.144531 36.296875 L 22.03125 36.210938 L 21.964844 36.144531 L 21.890625 36.089844 L 21.894531 36.109375 L 21.914062 36.152344 L 21.929688 36.199219 L 21.945312 36.238281 L 21.824219 36.152344 L 21.609375 35.984375 L 21.355469 35.796875 L 21.128906 35.613281 L 21.234375 35.710938 L 21.378906 35.859375 L 21.53125 36.003906 L 21.640625 36.128906 L 21.59375 36.109375 L 21.527344 36.078125 L 21.472656 36.042969 L 21.429688 36.015625 L 21.445312 36.054688 L 21.507812 36.160156 L 21.53125 36.199219 L 21.402344 36.132812 L 21.277344 36.050781 L 21.179688 35.964844 L 21.101562 35.90625 L 21.125 35.976562 L 21.164062 36.042969 L 21.207031 36.113281 L 21.261719 36.175781 L 21.152344 36.125 L 21.027344 36.066406 L 20.90625 35.988281 L 20.808594 35.917969 L 20.824219 35.96875 L 20.851562 36.027344 L 20.894531 36.078125 L 20.941406 36.132812 L 20.722656 35.96875 L 20.515625 35.78125 L 20.328125 35.589844 L 20.195312 35.410156 L 20.269531 35.550781 L 20.386719 35.714844 L 20.5 35.867188 L 20.597656 35.988281 L 20.386719 35.945312 L 20.179688 35.851562 L 19.980469 35.742188 L 19.84375 35.65625 C 20.183594 36 20.695312 36.199219 21.167969 36.28125 C 20.992188 36.339844 20.777344 36.429688 20.617188 36.523438 C 20.742188 36.488281 20.863281 36.472656 20.988281 36.453125 C 20.921875 36.535156 20.832031 36.59375 20.75 36.664062 C 20.9375 36.628906 21.082031 36.378906 21.410156 36.355469 C 21.835938 36.3125 22.503906 36.605469 22.878906 36.796875 C 22.527344 36.753906 22.128906 36.789062 21.78125 36.863281 C 22.035156 36.878906 22.347656 36.875 22.589844 36.910156 C 22.496094 37.011719 22.328125 37.042969 22.195312 37.078125 L 22.226562 37.105469 L 22.273438 37.132812 L 22.328125 37.15625 L 22.371094 37.164062 C 22.289062 37.203125 22.195312 37.207031 22.105469 37.226562 L 22.132812 37.238281 L 22.167969 37.25 L 22.210938 37.257812 L 22.242188 37.261719 C 21.992188 37.417969 21.800781 37.410156 21.527344 37.363281 L 21.617188 37.398438 L 21.730469 37.441406 L 21.84375 37.46875 L 21.941406 37.480469 C 21.871094 37.578125 21.699219 37.761719 21.597656 37.820312 C 21.757812 37.773438 21.894531 37.667969 22.03125 37.578125 L 22.015625 37.621094 L 22.007812 37.667969 L 21.992188 37.71875 L 21.984375 37.765625 L 21.972656 37.8125 L 21.960938 37.851562 L 21.953125 37.871094 L 21.957031 37.882812 C 22.121094 37.597656 22.335938 37.382812 22.566406 37.152344 C 22.808594 36.867188 22.960938 37.0625 23.257812 37.070312 "/>
<path style=" stroke:none;fill-rule:nonzero;fill:rgb(95.269775%,38.668823%,9.576416%);fill-opacity:1;" d="M 25.199219 35.402344 C 24.90625 35.421875 24.738281 35.570312 24.65625 35.839844 L 24.820312 35.941406 C 24.796875 35.695312 25 35.511719 25.199219 35.402344 "/>
<path style=" stroke:none;fill-rule:nonzero;fill:rgb(95.269775%,38.668823%,9.576416%);fill-opacity:1;" d="M 21.574219 36.503906 C 21.296875 36.441406 20.9375 36.621094 20.792969 36.863281 C 20.960938 36.691406 21.402344 36.542969 21.625 36.625 L 21.574219 36.503906 "/>
<path style=" stroke:none;fill-rule:nonzero;fill:rgb(95.269775%,38.668823%,9.576416%);fill-opacity:1;" d="M 20.003906 36.097656 L 20.105469 36.246094 L 20.21875 36.355469 L 20.335938 36.429688 L 20.457031 36.480469 L 20.628906 36.414062 L 20.457031 36.351562 L 20.28125 36.269531 L 20.121094 36.179688 L 20.003906 36.097656 "/>
<path style=" stroke:none;fill-rule:nonzero;fill:rgb(95.269775%,38.668823%,9.576416%);fill-opacity:1;" d="M 22.375 33.074219 C 22.460938 33.332031 22.628906 33.667969 22.6875 33.925781 C 22.773438 33.789062 22.746094 33.625 22.648438 33.503906 L 22.675781 33.515625 L 22.707031 33.53125 L 22.78125 33.574219 L 22.722656 33.5 L 22.667969 33.429688 L 22.605469 33.359375 L 22.53125 33.304688 L 22.605469 33.316406 L 22.671875 33.332031 L 22.746094 33.351562 L 22.816406 33.390625 L 22.679688 33.253906 L 22.605469 33.199219 L 22.511719 33.132812 C 22.53125 33.03125 22.546875 32.925781 22.535156 32.824219 C 22.511719 32.921875 22.433594 32.992188 22.375 33.074219 "/>
<path style=" stroke:none;fill-rule:nonzero;fill:rgb(95.269775%,38.668823%,9.576416%);fill-opacity:1;" d="M 22.992188 33.257812 C 23.101562 33.515625 23.359375 34.757812 22.953125 34.839844 C 23.019531 35.144531 23.128906 35.414062 23.199219 35.714844 C 23.4375 35.507812 23.703125 35.058594 23.734375 34.746094 C 23.660156 34.964844 23.484375 35.277344 23.296875 35.410156 L 23.265625 35.367188 L 23.203125 35.261719 L 23.167969 35.203125 L 23.191406 35.164062 L 23.214844 35.128906 L 23.242188 35.085938 L 23.261719 35.035156 L 23.316406 35.046875 L 23.371094 35.070312 L 23.429688 35.097656 L 23.472656 35.121094 L 23.421875 35.054688 L 23.367188 35.003906 L 23.328125 34.953125 L 23.277344 34.914062 C 23.289062 34.792969 23.480469 34.609375 23.570312 34.535156 C 23.472656 34.585938 23.304688 34.667969 23.242188 34.757812 L 23.222656 34.679688 L 23.246094 34.652344 L 23.277344 34.621094 L 23.320312 34.601562 L 23.359375 34.589844 L 23.335938 34.570312 L 23.273438 34.535156 L 23.246094 34.535156 L 23.277344 34.507812 L 23.332031 34.484375 L 23.390625 34.46875 L 23.457031 34.464844 L 23.417969 34.433594 L 23.367188 34.414062 L 23.324219 34.398438 L 23.289062 34.386719 C 23.296875 34.296875 23.390625 34.148438 23.445312 34.074219 L 23.398438 34.085938 L 23.34375 34.09375 L 23.300781 34.105469 L 23.261719 34.121094 C 23.28125 33.820312 23.324219 33.503906 23.386719 33.210938 C 23.320312 33.390625 23.273438 33.558594 23.234375 33.746094 C 23.191406 33.570312 23.101562 33.40625 22.992188 33.257812 "/>
<path style=" stroke:none;fill-rule:nonzero;fill:rgb(95.269775%,38.668823%,9.576416%);fill-opacity:1;" d="M 29.25 31.519531 C 29.191406 31.808594 29.125 32.09375 29.070312 32.386719 C 29.03125 32.570312 28.992188 32.753906 28.953125 32.9375 C 28.929688 33.023438 28.941406 33.082031 28.84375 33.136719 L 28.796875 33.113281 L 28.84375 33.242188 L 28.820312 33.34375 L 28.746094 33.410156 L 28.625 33.460938 L 28.496094 33.488281 L 28.351562 33.484375 L 28.222656 33.464844 L 28.117188 33.410156 L 28.113281 33.558594 L 28.167969 33.730469 L 28.269531 33.925781 L 28.394531 34.136719 L 28.535156 34.351562 L 28.660156 34.574219 L 28.753906 34.789062 L 28.804688 35.003906 L 28.589844 34.929688 L 28.328125 34.789062 L 28.097656 34.628906 L 27.953125 34.515625 L 27.972656 34.652344 L 27.96875 34.773438 L 27.925781 34.875 L 27.863281 34.953125 L 27.792969 35.007812 L 27.710938 35.03125 L 27.628906 35.03125 L 27.546875 34.996094 L 27.519531 35.066406 L 27.433594 35.105469 L 27.316406 35.117188 L 27.164062 35.105469 L 27.019531 35.082031 L 26.871094 35.046875 L 26.761719 35.015625 L 26.691406 34.988281 L 26.742188 35.0625 L 26.800781 35.148438 L 26.871094 35.246094 L 26.933594 35.351562 L 26.984375 35.460938 L 27.011719 35.566406 L 27.003906 35.65625 L 26.957031 35.738281 C 27.171875 35.808594 27.300781 36.070312 27.125 36.265625 L 27.238281 36.316406 L 27.398438 36.40625 L 27.570312 36.519531 L 27.730469 36.664062 L 27.847656 36.8125 L 27.898438 36.960938 L 27.847656 37.082031 L 27.664062 37.175781 L 27.710938 37.269531 L 27.703125 37.359375 L 27.660156 37.445312 L 27.589844 37.527344 L 27.503906 37.585938 L 27.410156 37.648438 L 27.332031 37.695312 L 27.261719 37.722656 C 27.613281 37.972656 28.164062 38.023438 28.570312 37.886719 C 29.046875 37.765625 29.042969 38.140625 28.675781 38.386719 L 28.835938 38.472656 L 29 38.484375 L 29.175781 38.433594 L 29.34375 38.347656 L 29.503906 38.257812 L 29.648438 38.175781 L 29.769531 38.136719 L 29.859375 38.152344 C 29.914062 37.800781 30.25 37.519531 30.609375 37.53125 C 30.683594 37.851562 30.859375 38.316406 31.113281 38.53125 L 31.105469 38.523438 C 31.800781 38.988281 32.546875 39.371094 33.328125 39.664062 L 33.34375 39.667969 L 33.550781 39.277344 L 33.519531 39.265625 C 32.839844 38.960938 32.195312 38.574219 31.605469 38.117188 L 31.632812 38.136719 C 31.394531 38.023438 31.261719 37.769531 31.257812 37.515625 C 31.511719 37.160156 31.957031 37.125 32.304688 37.355469 L 32.351562 37.265625 L 32.441406 37.199219 L 32.578125 37.152344 L 32.742188 37.117188 L 32.929688 37.074219 L 33.117188 37.019531 L 33.300781 36.9375 L 33.46875 36.824219 C 32.433594 36.691406 33.902344 35.671875 34.203125 35.566406 L 34.078125 35.585938 L 33.957031 35.601562 L 33.84375 35.605469 L 33.738281 35.59375 L 33.648438 35.566406 L 33.578125 35.53125 L 33.527344 35.464844 L 33.507812 35.386719 L 33.476562 35.449219 L 33.421875 35.480469 L 33.371094 35.488281 L 33.320312 35.472656 L 33.273438 35.429688 L 33.234375 35.363281 L 33.210938 35.277344 L 33.207031 35.175781 C 33.242188 34.859375 33.410156 34.582031 33.59375 34.328125 C 32.808594 34.46875 33.554688 33.691406 32.917969 33 L 32.910156 33.136719 L 32.863281 33.265625 L 32.796875 33.375 L 32.714844 33.457031 L 32.632812 33.515625 L 32.550781 33.546875 L 32.496094 33.539062 L 32.464844 33.496094 L 32.414062 33.574219 L 32.332031 33.617188 L 32.226562 33.636719 L 32.121094 33.636719 L 32.011719 33.613281 L 31.902344 33.582031 L 31.808594 33.535156 L 31.742188 33.492188 C 31.75 33.785156 31.578125 34.074219 31.378906 34.28125 C 31.320312 33.714844 31.269531 33.148438 31.203125 32.582031 C 31.082031 32.777344 30.816406 32.898438 30.628906 32.710938 L 30.53125 32.789062 L 30.371094 32.734375 L 30.171875 32.578125 L 29.953125 32.359375 L 29.730469 32.105469 L 29.523438 31.863281 L 29.363281 31.652344 L 29.25 31.519531 "/>
<path style=" stroke:none;fill-rule:nonzero;fill:rgb(74.295044%,35.217285%,20.722961%);fill-opacity:1;" d="M 30.988281 37.003906 L 31.078125 37.027344 C 31.214844 36.863281 31.160156 36.886719 31.328125 36.925781 C 31.476562 36.976562 31.722656 37.007812 31.878906 36.976562 L 31.804688 36.964844 L 31.738281 36.9375 L 31.675781 36.910156 L 31.628906 36.878906 C 31.960938 36.898438 32.363281 36.839844 32.652344 36.664062 C 32.367188 36.726562 31.984375 36.847656 31.710938 36.71875 C 31.828125 36.519531 31.964844 36.378906 32.128906 36.21875 C 31.914062 36.308594 31.71875 36.507812 31.582031 36.6875 C 31.433594 36.695312 31.289062 36.691406 31.144531 36.710938 C 31.15625 36.601562 31.148438 36.507812 31.113281 36.402344 L 31.421875 36.402344 L 31.242188 36.222656 L 31.253906 36.222656 L 31.28125 36.234375 L 31.328125 36.242188 L 31.390625 36.246094 L 31.460938 36.25 L 31.535156 36.242188 L 31.621094 36.230469 L 31.710938 36.210938 L 31.644531 36.164062 L 31.582031 36.117188 L 31.527344 36.058594 L 31.488281 35.992188 L 31.992188 35.929688 L 31.886719 35.902344 L 31.785156 35.859375 L 31.703125 35.8125 L 31.636719 35.769531 C 31.816406 35.773438 31.992188 35.78125 32.167969 35.761719 L 31.917969 35.699219 C 32.117188 35.636719 32.367188 35.496094 32.550781 35.390625 C 32.332031 35.476562 32.171875 35.554688 31.941406 35.4375 C 32.007812 35.347656 32.050781 35.246094 32.09375 35.148438 C 32.359375 35.101562 32.613281 35.015625 32.875 34.945312 C 32.699219 34.953125 32.519531 34.925781 32.347656 34.964844 C 32.621094 34.742188 32.839844 34.214844 32.867188 33.863281 C 32.789062 34.105469 32.636719 34.449219 32.453125 34.621094 C 32.472656 34.394531 32.511719 34.136719 32.632812 33.933594 C 32.398438 34.160156 32.394531 34.492188 32.28125 34.777344 C 32.105469 35.019531 31.734375 35.269531 31.625 35.515625 C 31.546875 35.101562 31.539062 35.246094 31.804688 34.941406 L 31.761719 34.960938 L 31.707031 34.988281 L 31.652344 35.019531 L 31.609375 35.050781 C 31.59375 34.808594 31.609375 34.648438 31.695312 34.417969 C 31.507812 34.785156 31.429688 35.214844 31.507812 35.621094 C 31.324219 35.78125 31.125 35.921875 30.910156 36.035156 C 31.015625 36.355469 31.003906 36.671875 30.988281 37.003906 "/>
<path style=" stroke:none;fill-rule:nonzero;fill:rgb(74.295044%,35.217285%,20.722961%);fill-opacity:1;" d="M 30.871094 37.070312 C 30.941406 36.296875 30.707031 35.816406 30.484375 35.09375 C 30.199219 34.160156 29.933594 32.84375 29.3125 32.09375 L 29.347656 32.15625 L 29.378906 32.21875 L 29.414062 32.292969 L 29.4375 32.367188 L 29.394531 32.339844 L 29.335938 32.3125 L 29.28125 32.296875 L 29.230469 32.304688 L 29.332031 32.398438 L 29.410156 32.507812 L 29.472656 32.621094 L 29.546875 32.734375 L 29.441406 32.652344 L 29.328125 32.5625 L 29.402344 32.664062 L 29.480469 32.773438 L 29.566406 32.886719 L 29.652344 33.007812 L 29.597656 32.964844 L 29.53125 32.910156 L 29.460938 32.855469 L 29.402344 32.820312 L 29.476562 32.914062 L 29.539062 33.011719 L 29.601562 33.105469 L 29.667969 33.21875 L 29.605469 33.179688 L 29.539062 33.128906 L 29.472656 33.074219 L 29.410156 33.015625 L 29.472656 33.128906 L 29.5625 33.234375 L 29.660156 33.332031 L 29.769531 33.414062 L 29.613281 33.402344 L 29.457031 33.351562 L 29.308594 33.28125 L 29.1875 33.207031 L 29.226562 33.261719 L 29.261719 33.320312 L 29.308594 33.363281 L 29.363281 33.421875 L 29.28125 33.414062 L 29.140625 33.386719 L 29.082031 33.367188 C 29.332031 33.574219 29.609375 33.519531 29.90625 33.832031 L 29.84375 33.828125 L 29.777344 33.832031 L 29.707031 33.839844 L 29.621094 33.855469 L 29.753906 33.910156 L 29.882812 34.003906 L 29.988281 34.085938 L 30.03125 34.121094 L 29.816406 34.058594 L 30.109375 34.390625 L 29.886719 34.34375 L 29.910156 34.378906 L 29.976562 34.46875 L 30.066406 34.574219 L 30.144531 34.660156 L 29.882812 34.523438 L 29.570312 34.292969 L 29.253906 34.046875 L 29.007812 33.84375 L 29.09375 33.941406 L 29.195312 34.042969 L 29.304688 34.15625 L 29.425781 34.273438 L 29.238281 34.179688 L 29.144531 34.144531 L 29.03125 34.109375 L 29.175781 34.277344 L 29.070312 34.226562 L 28.941406 34.171875 L 28.8125 34.125 L 28.710938 34.09375 L 28.867188 34.195312 L 29.074219 34.324219 L 29.296875 34.433594 L 29.480469 34.523438 C 29.328125 34.570312 29.234375 34.707031 29.167969 34.84375 C 29.425781 34.554688 29.953125 34.597656 30.207031 34.875 L 30.128906 34.878906 L 30.046875 34.878906 L 29.964844 34.867188 L 29.890625 34.84375 L 29.96875 34.945312 L 30.078125 35.054688 L 30.203125 35.164062 L 30.324219 35.257812 L 30.191406 35.207031 L 30.0625 35.136719 L 29.949219 35.0625 L 29.851562 34.996094 L 29.914062 35.128906 L 29.84375 35.070312 L 29.679688 34.988281 L 29.5625 34.941406 L 29.726562 35.054688 C 29.628906 35.050781 29.457031 35.058594 29.375 35.109375 C 29.730469 35.152344 30.085938 35.285156 30.363281 35.515625 L 30.335938 35.503906 L 30.28125 35.484375 L 30.21875 35.457031 L 30.175781 35.441406 L 30.222656 35.570312 L 30.316406 35.695312 L 30.429688 35.8125 L 30.546875 35.921875 L 30.4375 35.882812 L 30.332031 35.835938 L 30.234375 35.785156 L 30.140625 35.730469 L 30.199219 35.84375 L 30.292969 35.953125 L 30.40625 36.066406 L 30.519531 36.171875 L 30.425781 36.144531 L 30.332031 36.101562 L 30.25 36.042969 L 30.171875 35.980469 L 30.246094 36.105469 L 30.347656 36.230469 L 30.457031 36.347656 L 30.546875 36.453125 L 30.453125 36.410156 L 30.363281 36.371094 L 30.289062 36.328125 L 30.234375 36.292969 L 30.261719 36.351562 L 30.3125 36.429688 L 30.367188 36.507812 L 30.4375 36.589844 L 30.316406 36.515625 L 30.195312 36.417969 L 30.089844 36.320312 L 30.011719 36.230469 L 30.054688 36.371094 C 29.683594 36.035156 29.382812 35.75 29.851562 35.3125 C 29.71875 35.386719 29.601562 35.484375 29.53125 35.617188 L 29.449219 35.527344 L 29.355469 35.398438 L 29.273438 35.277344 L 29.203125 35.15625 C 29.253906 35.527344 29.515625 36.023438 29.761719 36.296875 L 29.710938 36.257812 L 29.648438 36.210938 L 29.582031 36.144531 L 29.507812 36.089844 L 29.511719 36.109375 L 29.53125 36.152344 L 29.546875 36.199219 L 29.5625 36.238281 L 29.4375 36.152344 L 29.222656 35.984375 L 28.972656 35.796875 L 28.742188 35.613281 L 28.851562 35.710938 L 28.996094 35.859375 L 29.144531 36.003906 L 29.257812 36.128906 L 29.210938 36.109375 L 29.144531 36.078125 L 29.089844 36.042969 L 29.046875 36.015625 L 29.058594 36.054688 L 29.125 36.160156 L 29.148438 36.199219 L 29.019531 36.132812 L 28.890625 36.050781 L 28.792969 35.964844 L 28.714844 35.90625 L 28.738281 35.976562 L 28.777344 36.042969 L 28.824219 36.113281 L 28.875 36.175781 L 28.769531 36.125 L 28.644531 36.066406 L 28.523438 35.988281 L 28.421875 35.917969 L 28.4375 35.96875 L 28.464844 36.027344 L 28.507812 36.078125 L 28.554688 36.132812 L 28.335938 35.96875 L 28.132812 35.78125 L 27.945312 35.589844 L 27.8125 35.410156 L 27.886719 35.550781 L 28 35.714844 L 28.117188 35.867188 L 28.214844 35.988281 L 28.003906 35.945312 L 27.792969 35.851562 L 27.597656 35.742188 L 27.460938 35.65625 C 27.796875 36 28.3125 36.199219 28.78125 36.28125 C 28.605469 36.339844 28.390625 36.429688 28.230469 36.523438 C 28.359375 36.488281 28.476562 36.472656 28.605469 36.453125 C 28.539062 36.535156 28.445312 36.59375 28.367188 36.664062 C 28.550781 36.628906 28.699219 36.378906 29.027344 36.355469 C 29.453125 36.3125 30.117188 36.605469 30.492188 36.796875 C 30.144531 36.753906 29.742188 36.789062 29.398438 36.863281 C 29.652344 36.878906 29.964844 36.875 30.207031 36.910156 C 30.109375 37.015625 29.945312 37.042969 29.808594 37.078125 L 29.84375 37.105469 L 29.886719 37.132812 L 29.941406 37.15625 L 29.988281 37.164062 C 29.90625 37.203125 29.808594 37.207031 29.722656 37.226562 L 29.746094 37.238281 L 29.785156 37.25 L 29.828125 37.257812 L 29.855469 37.261719 C 29.609375 37.417969 29.417969 37.410156 29.144531 37.363281 L 29.234375 37.398438 L 29.34375 37.441406 L 29.460938 37.46875 L 29.558594 37.480469 C 29.484375 37.578125 29.316406 37.761719 29.214844 37.820312 C 29.375 37.773438 29.507812 37.667969 29.648438 37.578125 L 29.632812 37.621094 L 29.621094 37.667969 L 29.609375 37.71875 L 29.597656 37.765625 L 29.589844 37.8125 L 29.578125 37.851562 L 29.570312 37.871094 L 29.570312 37.882812 C 29.734375 37.597656 29.953125 37.378906 30.179688 37.152344 C 30.425781 36.867188 30.578125 37.0625 30.871094 37.070312 "/>
<path style=" stroke:none;fill-rule:nonzero;fill:rgb(74.295044%,35.217285%,20.722961%);fill-opacity:1;" d="M 32.8125 35.402344 C 32.523438 35.421875 32.355469 35.574219 32.273438 35.839844 L 32.4375 35.941406 C 32.410156 35.695312 32.613281 35.511719 32.8125 35.402344 "/>
<path style=" stroke:none;fill-rule:nonzero;fill:rgb(74.295044%,35.217285%,20.722961%);fill-opacity:1;" d="M 29.191406 36.503906 C 28.914062 36.441406 28.550781 36.621094 28.410156 36.863281 C 28.578125 36.691406 29.015625 36.542969 29.242188 36.625 L 29.191406 36.503906 "/>
<path style=" stroke:none;fill-rule:nonzero;fill:rgb(74.295044%,35.217285%,20.722961%);fill-opacity:1;" d="M 27.621094 36.097656 L 27.71875 36.246094 L 27.835938 36.355469 L 27.949219 36.429688 L 28.074219 36.480469 L 28.242188 36.414062 L 28.074219 36.351562 L 27.894531 36.269531 L 27.738281 36.179688 L 27.621094 36.097656 "/>
<path style=" stroke:none;fill-rule:nonzero;fill:rgb(74.295044%,35.217285%,20.722961%);fill-opacity:1;" d="M 29.992188 33.074219 C 30.078125 33.332031 30.242188 33.667969 30.304688 33.925781 C 30.386719 33.789062 30.363281 33.628906 30.261719 33.503906 L 30.289062 33.515625 L 30.324219 33.53125 L 30.398438 33.574219 L 30.339844 33.5 L 30.285156 33.429688 L 30.21875 33.359375 L 30.148438 33.304688 L 30.21875 33.316406 L 30.289062 33.332031 L 30.359375 33.351562 L 30.433594 33.390625 L 30.363281 33.320312 L 30.292969 33.253906 L 30.21875 33.199219 L 30.125 33.132812 C 30.148438 33.03125 30.164062 32.925781 30.152344 32.824219 C 30.125 32.921875 30.050781 32.992188 29.992188 33.074219 "/>
<path style=" stroke:none;fill-rule:nonzero;fill:rgb(74.295044%,35.217285%,20.722961%);fill-opacity:1;" d="M 30.609375 33.257812 C 30.71875 33.515625 30.976562 34.757812 30.566406 34.839844 C 30.636719 35.144531 30.746094 35.414062 30.816406 35.714844 C 31.050781 35.507812 31.316406 35.058594 31.347656 34.746094 C 31.277344 34.964844 31.097656 35.277344 30.910156 35.410156 L 30.882812 35.367188 L 30.816406 35.261719 L 30.785156 35.203125 L 30.804688 35.164062 L 30.832031 35.128906 L 30.855469 35.085938 L 30.875 35.035156 L 30.933594 35.046875 L 30.984375 35.070312 L 31.046875 35.097656 L 31.089844 35.121094 L 31.035156 35.054688 L 30.984375 35.003906 L 30.941406 34.953125 L 30.890625 34.914062 C 30.902344 34.792969 31.09375 34.613281 31.1875 34.535156 C 31.089844 34.585938 30.917969 34.667969 30.855469 34.757812 L 30.839844 34.679688 L 30.859375 34.652344 L 30.890625 34.621094 L 30.933594 34.601562 L 30.972656 34.589844 L 30.953125 34.570312 L 30.917969 34.554688 L 30.886719 34.535156 L 30.859375 34.535156 L 30.894531 34.507812 L 30.945312 34.484375 L 31.007812 34.46875 L 31.070312 34.464844 L 31.03125 34.433594 L 30.984375 34.414062 L 30.941406 34.398438 L 30.90625 34.386719 C 30.914062 34.296875 31.003906 34.148438 31.058594 34.074219 L 31.015625 34.085938 L 30.960938 34.09375 L 30.914062 34.105469 L 30.878906 34.121094 C 30.898438 33.820312 30.941406 33.507812 31 33.210938 C 30.9375 33.390625 30.886719 33.558594 30.851562 33.746094 C 30.808594 33.570312 30.71875 33.40625 30.609375 33.257812 "/>
<path style=" stroke:none;fill-rule:nonzero;fill:rgb(26.663208%,46.485901%,34.475708%);fill-opacity:1;" d="M 37.328125 31.519531 C 37.265625 31.804688 37.203125 32.097656 37.144531 32.386719 C 37.109375 32.570312 37.070312 32.753906 37.03125 32.9375 C 37.007812 33.023438 37.015625 33.082031 36.921875 33.136719 L 36.871094 33.113281 L 36.917969 33.242188 L 36.894531 33.34375 L 36.824219 33.410156 L 36.703125 33.460938 L 36.574219 33.488281 L 36.429688 33.484375 L 36.300781 33.464844 L 36.195312 33.410156 L 36.1875 33.558594 L 36.246094 33.730469 L 36.34375 33.925781 L 36.472656 34.136719 L 36.609375 34.351562 L 36.738281 34.574219 L 36.832031 34.789062 L 36.882812 35.003906 L 36.664062 34.929688 L 36.40625 34.789062 L 36.175781 34.628906 L 36.03125 34.515625 L 36.050781 34.652344 L 36.046875 34.773438 L 36.003906 34.875 L 35.941406 34.953125 L 35.871094 35.007812 L 35.785156 35.03125 L 35.707031 35.03125 L 35.625 34.996094 L 35.597656 35.066406 L 35.511719 35.105469 L 35.394531 35.117188 L 35.242188 35.105469 L 35.09375 35.082031 L 34.949219 35.046875 L 34.839844 35.015625 L 34.769531 34.988281 L 34.820312 35.0625 L 34.878906 35.148438 L 34.949219 35.246094 L 35.011719 35.351562 L 35.058594 35.460938 L 35.089844 35.566406 L 35.078125 35.65625 L 35.03125 35.738281 C 35.25 35.808594 35.378906 36.070312 35.203125 36.265625 L 35.316406 36.316406 L 35.472656 36.40625 L 35.648438 36.519531 L 35.804688 36.664062 L 35.925781 36.8125 L 35.972656 36.960938 L 35.921875 37.082031 L 35.742188 37.175781 L 35.789062 37.269531 L 35.78125 37.359375 L 35.738281 37.445312 L 35.667969 37.527344 L 35.582031 37.585938 L 35.488281 37.648438 L 35.40625 37.695312 L 35.339844 37.722656 C 35.691406 37.972656 36.242188 38.023438 36.648438 37.886719 C 37.121094 37.765625 37.117188 38.140625 36.753906 38.386719 L 36.910156 38.472656 L 37.074219 38.484375 L 37.253906 38.433594 L 37.417969 38.347656 L 37.582031 38.257812 L 37.726562 38.175781 L 37.847656 38.136719 L 37.933594 38.152344 C 37.992188 37.800781 38.328125 37.519531 38.683594 37.53125 C 38.761719 37.851562 38.933594 38.316406 39.191406 38.53125 L 39.160156 38.507812 C 39.855469 38.976562 40.597656 39.359375 41.382812 39.65625 L 41.417969 39.667969 L 41.628906 39.277344 L 41.597656 39.265625 C 40.914062 38.960938 40.273438 38.574219 39.683594 38.117188 L 39.710938 38.136719 C 39.472656 38.023438 39.339844 37.769531 39.335938 37.515625 C 39.589844 37.160156 40.035156 37.125 40.386719 37.355469 L 40.429688 37.265625 L 40.519531 37.199219 L 40.65625 37.152344 L 40.820312 37.117188 L 41.007812 37.074219 L 41.195312 37.019531 L 41.378906 36.9375 L 41.546875 36.824219 C 40.511719 36.691406 41.980469 35.671875 42.28125 35.566406 L 42.15625 35.585938 L 42.035156 35.601562 L 41.921875 35.605469 L 41.816406 35.59375 L 41.722656 35.566406 L 41.65625 35.53125 L 41.605469 35.464844 L 41.585938 35.386719 L 41.550781 35.449219 L 41.5 35.480469 L 41.449219 35.488281 L 41.398438 35.472656 L 41.351562 35.429688 L 41.3125 35.363281 L 41.289062 35.277344 L 41.285156 35.175781 C 41.320312 34.859375 41.488281 34.582031 41.671875 34.328125 C 40.886719 34.46875 41.632812 33.691406 40.996094 33 L 40.988281 33.136719 L 40.941406 33.265625 L 40.875 33.375 L 40.792969 33.457031 L 40.707031 33.515625 L 40.628906 33.546875 L 40.574219 33.539062 L 40.542969 33.496094 L 40.492188 33.574219 L 40.410156 33.617188 L 40.304688 33.636719 L 40.199219 33.636719 L 40.089844 33.613281 L 39.976562 33.582031 L 39.886719 33.535156 L 39.820312 33.492188 C 39.828125 33.785156 39.652344 34.074219 39.457031 34.28125 C 39.394531 33.714844 39.347656 33.144531 39.28125 32.582031 C 39.160156 32.777344 38.890625 32.898438 38.707031 32.710938 L 38.609375 32.789062 L 38.449219 32.734375 L 38.246094 32.578125 L 38.027344 32.359375 L 37.808594 32.105469 L 37.601562 31.863281 L 37.4375 31.652344 L 37.328125 31.519531 "/>
<path style=" stroke:none;fill-rule:nonzero;fill:rgb(26.664734%,36.677551%,31.381226%);fill-opacity:1;" d="M 39.0625 37.003906 L 39.152344 37.027344 C 39.289062 36.863281 39.238281 36.886719 39.40625 36.925781 C 39.554688 36.976562 39.800781 37.007812 39.957031 36.976562 L 39.882812 36.964844 L 39.816406 36.9375 L 39.753906 36.910156 L 39.707031 36.878906 C 40.039062 36.898438 40.441406 36.839844 40.726562 36.664062 C 40.441406 36.726562 40.0625 36.847656 39.785156 36.71875 C 39.902344 36.519531 40.042969 36.378906 40.207031 36.21875 C 39.992188 36.308594 39.792969 36.507812 39.65625 36.6875 C 39.511719 36.695312 39.367188 36.691406 39.222656 36.710938 C 39.234375 36.597656 39.226562 36.507812 39.191406 36.402344 L 39.5 36.402344 L 39.320312 36.222656 L 39.332031 36.222656 L 39.355469 36.234375 L 39.40625 36.242188 L 39.464844 36.246094 L 39.535156 36.25 L 39.613281 36.242188 L 39.699219 36.230469 L 39.785156 36.210938 L 39.71875 36.164062 L 39.660156 36.117188 L 39.605469 36.058594 L 39.566406 35.992188 L 40.070312 35.929688 L 39.964844 35.902344 L 39.859375 35.859375 L 39.78125 35.8125 L 39.714844 35.769531 C 39.890625 35.773438 40.070312 35.78125 40.246094 35.761719 L 39.996094 35.699219 C 40.195312 35.636719 40.445312 35.496094 40.628906 35.390625 C 40.410156 35.476562 40.25 35.554688 40.019531 35.4375 C 40.085938 35.347656 40.128906 35.246094 40.171875 35.148438 C 40.4375 35.101562 40.691406 35.015625 40.953125 34.945312 C 40.777344 34.953125 40.597656 34.925781 40.425781 34.964844 C 40.699219 34.742188 40.917969 34.214844 40.945312 33.863281 C 40.867188 34.105469 40.714844 34.449219 40.53125 34.621094 C 40.550781 34.394531 40.589844 34.132812 40.707031 33.933594 C 40.472656 34.160156 40.46875 34.492188 40.355469 34.777344 C 40.183594 35.019531 39.8125 35.269531 39.703125 35.515625 C 39.621094 35.101562 39.617188 35.246094 39.882812 34.941406 L 39.839844 34.960938 L 39.78125 34.988281 L 39.730469 35.019531 L 39.6875 35.050781 C 39.671875 34.808594 39.683594 34.648438 39.773438 34.417969 C 39.582031 34.785156 39.507812 35.214844 39.585938 35.621094 C 39.398438 35.78125 39.203125 35.921875 38.988281 36.035156 C 39.09375 36.355469 39.082031 36.671875 39.0625 37.003906 "/>
<path style=" stroke:none;fill-rule:nonzero;fill:rgb(26.664734%,36.677551%,31.381226%);fill-opacity:1;" d="M 38.949219 37.070312 C 39.019531 36.296875 38.78125 35.816406 38.5625 35.09375 C 38.277344 34.15625 38.011719 32.84375 37.390625 32.09375 L 37.421875 32.15625 L 37.457031 32.21875 L 37.492188 32.292969 L 37.515625 32.367188 L 37.472656 32.339844 L 37.410156 32.3125 L 37.359375 32.296875 L 37.308594 32.304688 L 37.40625 32.398438 L 37.484375 32.507812 L 37.550781 32.621094 L 37.625 32.734375 L 37.574219 32.695312 L 37.457031 32.601562 L 37.40625 32.5625 L 37.480469 32.664062 L 37.558594 32.773438 L 37.644531 32.886719 L 37.730469 33.007812 L 37.671875 32.964844 L 37.539062 32.855469 L 37.476562 32.820312 L 37.554688 32.914062 L 37.617188 33.011719 L 37.679688 33.105469 L 37.746094 33.21875 L 37.683594 33.179688 L 37.617188 33.128906 L 37.550781 33.074219 L 37.488281 33.015625 L 37.550781 33.128906 L 37.640625 33.234375 L 37.738281 33.332031 L 37.84375 33.414062 L 37.691406 33.402344 L 37.53125 33.351562 L 37.386719 33.28125 L 37.265625 33.207031 L 37.300781 33.261719 L 37.339844 33.320312 L 37.386719 33.363281 L 37.441406 33.421875 L 37.355469 33.414062 L 37.214844 33.386719 L 37.15625 33.367188 C 37.410156 33.574219 37.6875 33.519531 37.980469 33.832031 L 37.921875 33.828125 L 37.855469 33.832031 L 37.785156 33.839844 L 37.699219 33.855469 L 37.828125 33.910156 L 37.957031 34.003906 L 38.109375 34.121094 L 37.894531 34.058594 L 38.1875 34.390625 L 37.964844 34.34375 L 37.988281 34.378906 L 38.054688 34.46875 L 38.144531 34.574219 L 38.21875 34.660156 L 37.960938 34.523438 L 37.648438 34.292969 L 37.332031 34.046875 L 37.082031 33.84375 L 37.171875 33.941406 L 37.269531 34.042969 L 37.382812 34.15625 L 37.503906 34.273438 L 37.316406 34.179688 L 37.21875 34.144531 L 37.109375 34.109375 L 37.253906 34.277344 L 37.144531 34.226562 L 37.015625 34.171875 L 36.890625 34.125 L 36.789062 34.09375 L 36.941406 34.195312 L 37.152344 34.324219 L 37.375 34.433594 L 37.558594 34.523438 C 37.40625 34.570312 37.3125 34.707031 37.246094 34.84375 C 37.503906 34.554688 38.03125 34.597656 38.28125 34.875 L 38.207031 34.878906 L 38.125 34.878906 L 38.042969 34.867188 L 37.96875 34.84375 L 38.046875 34.945312 L 38.15625 35.054688 L 38.28125 35.164062 L 38.398438 35.257812 L 38.265625 35.207031 L 38.140625 35.136719 L 38.023438 35.0625 L 37.929688 34.996094 L 37.992188 35.128906 L 37.917969 35.070312 L 37.84375 35.03125 L 37.757812 34.988281 L 37.640625 34.941406 L 37.804688 35.054688 C 37.707031 35.050781 37.535156 35.058594 37.449219 35.109375 C 37.808594 35.152344 38.160156 35.285156 38.441406 35.515625 L 38.414062 35.503906 L 38.355469 35.484375 L 38.296875 35.457031 L 38.253906 35.441406 L 38.300781 35.570312 L 38.390625 35.695312 L 38.507812 35.8125 L 38.621094 35.921875 L 38.515625 35.882812 L 38.40625 35.835938 L 38.308594 35.785156 L 38.21875 35.730469 L 38.277344 35.84375 L 38.371094 35.953125 L 38.480469 36.066406 L 38.597656 36.171875 L 38.503906 36.144531 L 38.410156 36.101562 L 38.328125 36.042969 L 38.246094 35.980469 L 38.324219 36.105469 L 38.425781 36.230469 L 38.53125 36.347656 L 38.625 36.453125 L 38.53125 36.410156 L 38.445312 36.371094 L 38.367188 36.328125 L 38.3125 36.292969 L 38.339844 36.351562 L 38.390625 36.429688 L 38.445312 36.507812 L 38.515625 36.589844 L 38.394531 36.515625 L 38.269531 36.417969 L 38.164062 36.320312 L 38.089844 36.230469 L 38.132812 36.371094 C 37.761719 36.035156 37.460938 35.75 37.925781 35.3125 C 37.796875 35.386719 37.679688 35.484375 37.609375 35.617188 L 37.527344 35.527344 L 37.433594 35.398438 L 37.347656 35.277344 L 37.277344 35.15625 C 37.332031 35.527344 37.589844 36.019531 37.839844 36.296875 L 37.789062 36.257812 L 37.726562 36.210938 L 37.65625 36.144531 L 37.585938 36.089844 L 37.585938 36.109375 L 37.605469 36.152344 L 37.621094 36.199219 L 37.636719 36.238281 L 37.515625 36.152344 L 37.300781 35.984375 L 37.050781 35.796875 L 36.820312 35.613281 L 36.925781 35.710938 L 37.074219 35.859375 L 37.222656 36.003906 L 37.335938 36.128906 L 37.285156 36.109375 L 37.222656 36.078125 L 37.164062 36.042969 L 37.121094 36.015625 L 37.136719 36.054688 L 37.203125 36.160156 L 37.226562 36.199219 L 37.09375 36.132812 L 36.96875 36.050781 L 36.871094 35.964844 L 36.792969 35.90625 L 36.816406 35.976562 L 36.855469 36.042969 L 36.902344 36.113281 L 36.953125 36.175781 L 36.84375 36.125 L 36.722656 36.066406 L 36.597656 35.988281 L 36.5 35.917969 L 36.515625 35.96875 L 36.542969 36.027344 L 36.585938 36.078125 L 36.632812 36.132812 L 36.414062 35.96875 L 36.207031 35.78125 L 36.023438 35.589844 L 35.890625 35.410156 L 35.960938 35.550781 L 36.078125 35.714844 L 36.195312 35.867188 L 36.289062 35.988281 L 36.082031 35.945312 L 35.871094 35.851562 L 35.675781 35.742188 L 35.535156 35.65625 C 35.875 36 36.390625 36.199219 36.859375 36.28125 C 36.683594 36.339844 36.46875 36.429688 36.308594 36.523438 C 36.433594 36.488281 36.554688 36.472656 36.679688 36.453125 C 36.613281 36.535156 36.523438 36.59375 36.441406 36.664062 C 36.628906 36.628906 36.777344 36.378906 37.101562 36.355469 C 37.527344 36.3125 38.195312 36.605469 38.570312 36.796875 C 38.21875 36.753906 37.820312 36.789062 37.472656 36.863281 C 37.726562 36.878906 38.039062 36.875 38.285156 36.910156 C 38.1875 37.011719 38.023438 37.042969 37.886719 37.078125 L 37.921875 37.105469 L 37.964844 37.132812 L 38.019531 37.15625 L 38.066406 37.164062 C 37.980469 37.203125 37.886719 37.207031 37.796875 37.226562 L 37.824219 37.238281 L 37.863281 37.25 L 37.902344 37.257812 L 37.933594 37.261719 C 37.683594 37.417969 37.496094 37.410156 37.21875 37.363281 L 37.308594 37.398438 L 37.421875 37.441406 L 37.535156 37.46875 L 37.636719 37.480469 C 37.5625 37.578125 37.390625 37.761719 37.289062 37.820312 C 37.453125 37.773438 37.585938 37.667969 37.722656 37.578125 L 37.710938 37.621094 L 37.699219 37.667969 L 37.683594 37.71875 L 37.675781 37.765625 L 37.664062 37.8125 L 37.65625 37.851562 L 37.648438 37.871094 L 37.648438 37.882812 C 37.8125 37.597656 38.027344 37.382812 38.257812 37.152344 C 38.503906 36.867188 38.652344 37.0625 38.949219 37.070312 "/>
<path style=" stroke:none;fill-rule:nonzero;fill:rgb(26.664734%,36.677551%,31.381226%);fill-opacity:1;" d="M 40.890625 35.402344 C 40.601562 35.421875 40.433594 35.570312 40.347656 35.839844 L 40.511719 35.941406 C 40.488281 35.695312 40.691406 35.511719 40.890625 35.402344 "/>
<path style=" stroke:none;fill-rule:nonzero;fill:rgb(26.664734%,36.677551%,31.381226%);fill-opacity:1;" d="M 37.269531 36.503906 C 36.988281 36.441406 36.628906 36.621094 36.488281 36.863281 C 36.65625 36.691406 37.09375 36.542969 37.320312 36.625 L 37.269531 36.503906 "/>
<path style=" stroke:none;fill-rule:nonzero;fill:rgb(26.664734%,36.677551%,31.381226%);fill-opacity:1;" d="M 35.699219 36.097656 L 35.796875 36.246094 L 35.910156 36.355469 L 36.027344 36.429688 L 36.152344 36.480469 L 36.320312 36.414062 L 36.152344 36.351562 L 35.972656 36.269531 L 35.8125 36.179688 L 35.699219 36.097656 "/>
<path style=" stroke:none;fill-rule:nonzero;fill:rgb(26.664734%,36.677551%,31.381226%);fill-opacity:1;" d="M 38.070312 33.074219 C 38.15625 33.332031 38.320312 33.667969 38.382812 33.925781 C 38.464844 33.789062 38.441406 33.625 38.339844 33.503906 L 38.367188 33.515625 L 38.398438 33.53125 L 38.476562 33.574219 L 38.414062 33.5 L 38.359375 33.429688 L 38.296875 33.359375 L 38.222656 33.304688 L 38.296875 33.316406 L 38.363281 33.332031 L 38.4375 33.351562 L 38.511719 33.390625 L 38.441406 33.320312 L 38.371094 33.253906 L 38.296875 33.199219 L 38.203125 33.132812 C 38.222656 33.03125 38.242188 32.925781 38.226562 32.824219 C 38.203125 32.921875 38.128906 32.992188 38.070312 33.074219 "/>
<path style=" stroke:none;fill-rule:nonzero;fill:rgb(26.664734%,36.677551%,31.381226%);fill-opacity:1;" d="M 38.6875 33.257812 C 38.792969 33.515625 39.054688 34.757812 38.644531 34.839844 C 38.710938 35.144531 38.824219 35.414062 38.894531 35.714844 C 39.128906 35.507812 39.394531 35.058594 39.425781 34.746094 C 39.355469 34.964844 39.175781 35.277344 38.988281 35.410156 L 38.957031 35.367188 L 38.894531 35.261719 L 38.859375 35.203125 L 38.882812 35.164062 L 38.90625 35.128906 L 38.933594 35.085938 L 38.953125 35.035156 L 39.011719 35.046875 L 39.0625 35.070312 L 39.121094 35.097656 L 39.167969 35.121094 L 39.113281 35.054688 L 39.058594 35.003906 L 39.019531 34.953125 L 38.96875 34.914062 C 38.980469 34.792969 39.171875 34.609375 39.265625 34.535156 C 39.164062 34.585938 38.996094 34.667969 38.933594 34.757812 L 38.914062 34.679688 L 38.9375 34.652344 L 38.96875 34.621094 L 39.011719 34.601562 L 39.050781 34.589844 L 39.027344 34.570312 L 38.964844 34.535156 L 38.9375 34.535156 L 38.96875 34.507812 L 39.023438 34.484375 L 39.082031 34.46875 L 39.148438 34.464844 L 39.109375 34.433594 L 39.058594 34.414062 L 39.019531 34.398438 L 38.980469 34.386719 C 38.988281 34.296875 39.082031 34.148438 39.136719 34.074219 L 39.09375 34.085938 L 39.035156 34.09375 L 38.992188 34.105469 L 38.953125 34.121094 C 38.976562 33.820312 39.015625 33.503906 39.078125 33.210938 C 39.015625 33.390625 38.964844 33.558594 38.929688 33.746094 C 38.882812 33.570312 38.792969 33.40625 38.6875 33.257812 "/>
</g>
</svg>
