<?xml version="1.0" encoding="UTF-8"?>
<svg xmlns="http://www.w3.org/2000/svg" xmlns:xlink="http://www.w3.org/1999/xlink" width="56pt" height="56pt" viewBox="0 0 56 56" version="1.1">
<g id="surface1">
<rect x="0" y="0" width="56" height="56" style="fill:rgb(95.66803%,95.779419%,96.777344%);fill-opacity:1;stroke:none;"/>
<path style=" stroke:none;fill-rule:nonzero;fill:rgb(19.078064%,70.309448%,25.387573%);fill-opacity:1;" d="M 33.753906 23.519531 C 33.648438 23.519531 33.59375 23.523438 33.59375 23.523438 L 32.386719 23.523438 C 32.164062 23.515625 32.039062 23.519531 32.039062 23.519531 L 30.199219 23.523438 L 19.550781 23.523438 L 19.808594 23.585938 L 20.21875 23.671875 L 20.574219 23.738281 L 21.035156 23.824219 C 23.1875 24.207031 24.941406 24.65625 24.941406 24.65625 C 28.648438 25.742188 31 27.988281 31.761719 28.851562 C 32.523438 29.714844 34.097656 31.390625 34.097656 31.390625 C 37.449219 35.25 41.003906 34.996094 41.003906 34.996094 L 42.210938 34.996094 C 42.429688 35.003906 42.554688 34.996094 42.554688 34.996094 L 44.390625 34.996094 L 54.414062 34.984375 L 55.039062 34.984375 L 54.804688 34.933594 L 54.375 34.847656 L 54.023438 34.78125 L 53.558594 34.695312 C 51.40625 34.3125 49.652344 33.859375 49.652344 33.859375 C 45.945312 32.777344 43.59375 30.53125 42.835938 29.667969 C 42.074219 28.804688 40.496094 27.128906 40.496094 27.128906 C 37.566406 23.75 34.476562 23.523438 33.753906 23.519531 Z M 15.160156 23.519531 C 15.054688 23.519531 15 23.523438 15 23.523438 L 13.792969 23.523438 C 13.574219 23.515625 13.449219 23.519531 13.449219 23.519531 L 11.609375 23.523438 L 0.960938 23.523438 L 1.21875 23.585938 L 1.628906 23.671875 L 1.980469 23.738281 L 2.445312 23.824219 C 4.597656 24.207031 6.351562 24.65625 6.351562 24.65625 C 10.058594 25.742188 12.40625 27.988281 13.171875 28.851562 C 13.929688 29.714844 15.503906 31.390625 15.503906 31.390625 C 18.855469 35.25 22.410156 34.996094 22.410156 34.996094 L 23.617188 34.996094 C 23.839844 35.003906 23.964844 34.996094 23.964844 34.996094 L 25.796875 34.996094 L 35.824219 34.984375 L 36.449219 34.984375 L 36.214844 34.933594 L 35.785156 34.847656 L 35.429688 34.78125 L 34.964844 34.695312 C 32.816406 34.3125 31.0625 33.859375 31.0625 33.859375 C 27.355469 32.777344 25.003906 30.53125 24.242188 29.667969 C 23.480469 28.804688 21.90625 27.128906 21.90625 27.128906 C 18.972656 23.75 15.886719 23.523438 15.160156 23.519531 "/>
<path style=" stroke:none;fill-rule:nonzero;fill:rgb(97.099304%,85.858154%,2.076721%);fill-opacity:1;" d="M 43.59375 32.832031 L 44.117188 32.832031 L 43.875 32.777344 L 43.429688 32.6875 L 43.066406 32.617188 L 42.585938 32.53125 C 40.367188 32.136719 38.558594 31.671875 38.558594 31.671875 C 34.734375 30.550781 32.308594 28.234375 31.523438 27.34375 C 30.738281 26.453125 29.113281 24.722656 29.113281 24.722656 C 25.65625 20.742188 21.988281 21.003906 21.988281 21.003906 L 20.742188 21.003906 C 20.515625 20.996094 20.386719 21.003906 20.386719 21.003906 L 7.5 21.003906 L 7.769531 21.070312 L 8.191406 21.15625 L 8.558594 21.226562 L 9.035156 21.316406 C 11.253906 21.710938 13.066406 22.175781 13.066406 22.175781 C 16.890625 23.292969 19.3125 25.613281 20.097656 26.503906 C 20.882812 27.394531 22.507812 29.121094 22.507812 29.121094 C 25.96875 33.101562 29.632812 32.84375 29.632812 32.84375 L 30.878906 32.84375 C 31.105469 32.847656 31.234375 32.84375 31.234375 32.84375 L 33.128906 32.84375 L 43.46875 32.832031 L 43.59375 32.832031 "/>
</g>
</svg>
