<?xml version="1.0" encoding="UTF-8"?>
<svg xmlns="http://www.w3.org/2000/svg" xmlns:xlink="http://www.w3.org/1999/xlink" width="56pt" height="56pt" viewBox="0 0 56 56" version="1.1">
<g id="surface1">
<rect x="0" y="0" width="56" height="56" style="fill:rgb(8.721924%,15.672302%,25.897217%);fill-opacity:1;stroke:none;"/>
<path style=" stroke:none;fill-rule:nonzero;fill:rgb(100%,100%,100%);fill-opacity:1;" d="M 32.792969 34.367188 C 32.863281 34.582031 32.851562 34.765625 32.816406 34.945312 C 32.710938 35.457031 32.46875 35.902344 32.171875 36.324219 C 31.550781 37.207031 30.773438 37.929688 29.933594 38.59375 C 28.816406 39.472656 27.605469 40.199219 26.328125 40.816406 C 25.589844 41.175781 24.828125 41.484375 24.050781 41.757812 C 23.199219 42.058594 22.382812 42.441406 21.585938 42.867188 C 20.414062 43.496094 19.308594 44.230469 18.269531 45.054688 C 17.613281 45.574219 16.980469 46.121094 16.355469 46.675781 C 15.425781 47.5 14.585938 48.40625 13.78125 49.34375 C 13.441406 49.738281 13.132812 50.15625 12.808594 50.558594 C 12.773438 50.605469 12.730469 50.644531 12.671875 50.714844 C 12.664062 50.636719 12.660156 50.59375 12.660156 50.554688 C 12.660156 46.003906 12.65625 41.453125 12.664062 36.902344 C 12.664062 36.546875 12.714844 36.191406 12.769531 35.839844 C 12.878906 35.109375 13.027344 34.386719 13.230469 33.671875 C 13.421875 33.011719 13.648438 32.359375 13.914062 31.726562 C 14.367188 30.652344 14.9375 29.640625 15.601562 28.683594 C 16.050781 28.035156 16.535156 27.417969 17.070312 26.84375 C 17.449219 26.433594 17.835938 26.035156 18.230469 25.648438 C 19.023438 24.875 19.878906 24.179688 20.769531 23.527344 C 21.558594 22.945312 22.367188 22.398438 23.210938 21.90625 C 24.003906 21.445312 24.808594 21 25.617188 20.570312 C 26.621094 20.03125 27.644531 19.523438 28.648438 18.984375 C 29.59375 18.476562 30.519531 17.929688 31.414062 17.34375 C 32.136719 16.871094 32.851562 16.398438 33.546875 15.898438 C 34.074219 15.523438 34.570312 15.113281 35.074219 14.710938 C 35.917969 14.035156 36.707031 13.292969 37.445312 12.5 C 38.53125 11.335938 39.472656 10.066406 40.210938 8.652344 C 40.683594 7.738281 41.050781 6.789062 41.332031 5.804688 C 41.355469 5.71875 41.371094 5.632812 41.394531 5.546875 C 41.414062 5.46875 41.433594 5.390625 41.464844 5.285156 C 41.570312 5.4375 41.597656 5.589844 41.636719 5.730469 C 41.828125 6.449219 41.917969 7.183594 41.90625 7.929688 C 41.882812 9.058594 41.648438 10.144531 41.234375 11.195312 C 40.667969 12.644531 39.835938 13.929688 38.835938 15.117188 C 38.078125 16.019531 37.230469 16.835938 36.332031 17.597656 C 35.664062 18.167969 34.96875 18.699219 34.25 19.191406 C 33.851562 19.464844 33.429688 19.699219 33.019531 19.949219 C 32.210938 20.445312 31.398438 20.933594 30.59375 21.425781 C 29.617188 22.023438 28.640625 22.609375 27.679688 23.222656 C 26.878906 23.738281 26.082031 24.269531 25.304688 24.824219 C 24.515625 25.382812 23.730469 25.957031 22.976562 26.566406 C 22.308594 27.105469 21.671875 27.6875 21.046875 28.273438 C 20.242188 29.023438 19.511719 29.84375 18.839844 30.710938 C 18.761719 30.816406 18.695312 30.933594 18.648438 31.058594 C 18.589844 31.21875 18.625 31.363281 18.789062 31.457031 C 19.003906 31.496094 19.171875 31.425781 19.339844 31.289062 C 20.648438 30.234375 22.003906 29.242188 23.410156 28.3125 C 24.695312 27.464844 26.015625 26.671875 27.367188 25.9375 C 28.691406 25.214844 30.042969 24.539062 31.417969 23.914062 C 32.347656 23.492188 33.285156 23.085938 34.210938 22.652344 C 35.335938 22.125 36.363281 21.449219 37.324219 20.65625 C 37.835938 20.226562 38.328125 19.78125 38.789062 19.296875 C 39.347656 18.714844 39.871094 18.101562 40.359375 17.457031 C 41.226562 16.316406 41.988281 15.109375 42.679688 13.855469 C 42.835938 13.570312 42.988281 13.28125 43.144531 12.996094 C 43.160156 12.96875 43.183594 12.941406 43.222656 12.878906 C 43.25 13.015625 43.277344 13.109375 43.289062 13.210938 C 43.367188 13.890625 43.355469 14.570312 43.257812 15.246094 C 43.109375 16.265625 42.804688 17.234375 42.382812 18.171875 C 41.847656 19.359375 41.148438 20.445312 40.328125 21.457031 C 39.5 22.472656 38.566406 23.375 37.53125 24.179688 C 36.515625 24.964844 35.421875 25.628906 34.253906 26.164062 C 33.035156 26.71875 31.820312 27.28125 30.609375 27.851562 C 29.820312 28.222656 29.03125 28.605469 28.253906 28.996094 C 26.910156 29.671875 25.589844 30.386719 24.300781 31.164062 C 23.351562 31.742188 22.425781 32.355469 21.535156 33.019531 C 20.785156 33.578125 20.058594 34.160156 19.371094 34.792969 C 18.730469 35.378906 18.117188 35.988281 17.539062 36.636719 C 17.386719 36.804688 17.304688 37.011719 17.28125 37.222656 C 17.332031 37.363281 17.429688 37.390625 17.539062 37.347656 C 17.675781 37.292969 17.816406 37.234375 17.9375 37.15625 C 18.375 36.863281 18.800781 36.554688 19.238281 36.261719 C 20.527344 35.402344 21.855469 34.609375 23.226562 33.894531 C 24.289062 33.34375 25.375 32.832031 26.484375 32.378906 C 27.304688 32.039062 28.140625 31.734375 28.976562 31.441406 C 29.476562 31.261719 29.984375 31.105469 30.484375 30.921875 C 31.667969 30.488281 32.816406 29.980469 33.910156 29.355469 C 34.609375 28.960938 35.277344 28.523438 35.914062 28.035156 C 36.785156 27.367188 37.585938 26.621094 38.316406 25.796875 C 38.472656 25.621094 38.632812 25.445312 38.789062 25.265625 C 38.816406 25.234375 38.847656 25.207031 38.90625 25.152344 C 38.914062 25.246094 38.929688 25.308594 38.925781 25.371094 C 38.90625 25.914062 38.824219 26.445312 38.632812 26.957031 C 38.296875 27.863281 37.738281 28.621094 37.070312 29.304688 C 36.265625 30.121094 35.339844 30.789062 34.375 31.402344 C 33.375 32.039062 32.332031 32.601562 31.269531 33.117188 C 30.148438 33.660156 29.023438 34.1875 27.890625 34.695312 C 26.519531 35.308594 25.144531 35.917969 23.8125 36.613281 C 22.585938 37.257812 21.390625 37.953125 20.257812 38.753906 C 19.339844 39.398438 18.46875 40.101562 17.683594 40.902344 C 17.023438 41.574219 16.433594 42.304688 15.945312 43.117188 C 15.839844 43.292969 15.777344 43.476562 15.820312 43.683594 C 15.972656 43.867188 16.140625 43.882812 16.335938 43.71875 C 16.496094 43.582031 16.652344 43.429688 16.808594 43.285156 C 17.714844 42.449219 18.679688 41.6875 19.714844 41.015625 C 20.691406 40.382812 21.71875 39.84375 22.8125 39.441406 C 23.453125 39.203125 24.109375 39.027344 24.773438 38.875 C 25.550781 38.699219 26.316406 38.460938 27.058594 38.167969 C 28.441406 37.625 29.707031 36.875 30.875 35.964844 C 31.457031 35.511719 32.011719 35.019531 32.582031 34.542969 C 32.640625 34.492188 32.703125 34.441406 32.792969 34.367188 "/>
</g>
</svg>
