<?xml version="1.0" encoding="UTF-8"?>
<svg xmlns="http://www.w3.org/2000/svg" xmlns:xlink="http://www.w3.org/1999/xlink" width="56pt" height="56pt" viewBox="0 0 56 56" version="1.1">
<g id="surface1">
<rect x="0" y="0" width="56" height="56" style="fill:rgb(94.676208%,31.632996%,10.644531%);fill-opacity:1;stroke:none;"/>
<path style=" stroke:none;fill-rule:nonzero;fill:rgb(100%,100%,100%);fill-opacity:1;" d="M 7.449219 44.507812 L 20.414062 22.808594 C 20.628906 22.457031 20.769531 22.316406 20.984375 22.316406 C 21.234375 22.316406 21.339844 22.492188 21.519531 22.773438 C 23.191406 25.6875 24.011719 28.53125 24.011719 31.585938 C 24.011719 39.734375 17.492188 45.386719 8.160156 45.386719 C 7.980469 45.386719 7.304688 45.386719 7.304688 44.929688 C 7.300781 44.777344 7.351562 44.628906 7.449219 44.507812 "/>
<path style=" stroke:none;fill-rule:nonzero;fill:rgb(100%,100%,100%);fill-opacity:1;" d="M 37.203125 24.414062 L 48.566406 44.429688 C 48.851562 44.921875 48.671875 45.339844 47.960938 45.339844 C 39.625 45.339844 35.742188 42.25 32.605469 36.738281 L 23.84375 21.289062 C 23.308594 20.375 23.132812 19.742188 23.132812 19.21875 C 23.132812 18.621094 23.382812 17.917969 24.09375 16.652344 L 25.164062 14.722656 C 26.730469 11.878906 28.441406 10.613281 32.464844 10.613281 L 35.316406 10.613281 C 35.742188 10.613281 35.777344 10.929688 35.5625 11.175781 C 34.816406 12.054688 34.140625 13.28125 34.140625 15.355469 C 34.140625 17.460938 34.921875 20.375 37.203125 24.414062 "/>
</g>
</svg>
