<?xml version="1.0" encoding="UTF-8"?>
<svg xmlns="http://www.w3.org/2000/svg" xmlns:xlink="http://www.w3.org/1999/xlink" width="56pt" height="56pt" viewBox="0 0 56 56" version="1.1">
<g id="surface1">
<rect x="0" y="0" width="56" height="56" style="fill:rgb(14.982605%,26.152039%,53.907776%);fill-opacity:1;stroke:none;"/>
<path style=" stroke:none;fill-rule:evenodd;fill:rgb(95.23468%,61.933899%,9.126282%);fill-opacity:1;" d="M 17.542969 14.359375 C 19.660156 14.058594 25.210938 13.25 27.125 12.847656 C 29.042969 12.445312 39.734375 10.832031 45.285156 10.730469 C 50.832031 10.628906 50.53125 11.03125 50.730469 12.039062 C 50.832031 13.050781 51.335938 13.453125 50.632812 14.359375 C 50.027344 15.371094 48.816406 15.773438 47.097656 16.480469 C 44.074219 17.691406 30.457031 21.320312 28.640625 22.230469 C 31.464844 22.027344 35.597656 21.21875 39.636719 21.121094 C 42.257812 21.121094 42.660156 21.625 42.863281 22.835938 C 43.164062 24.046875 43.265625 24.75 41.449219 25.457031 C 39.636719 26.164062 37.515625 26.96875 33.179688 28.179688 C 27.226562 29.898438 23.59375 30.804688 19.15625 32.621094 C 21.578125 32.921875 25.613281 32.519531 28.839844 32.621094 C 33.785156 32.820312 33.984375 33.425781 34.085938 34.839844 C 34.289062 36.25 34.390625 36.65625 32.371094 37.5625 C 30.355469 38.46875 26.722656 39.480469 24.707031 39.882812 C 22.6875 40.285156 15.019531 41.902344 13.609375 42.304688 C 12.296875 42.605469 11.1875 44.21875 9.070312 44.925781 C 6.851562 45.632812 5.839844 45.332031 5.136719 43.71875 C 4.53125 42.507812 6.042969 41.398438 7.960938 40.890625 C 9.875 40.285156 15.425781 39.078125 17.746094 38.46875 C 20.164062 37.863281 24.804688 36.554688 26.417969 35.949219 C 24.300781 35.949219 19.15625 36.050781 15.222656 36.152344 C 12.902344 36.152344 11.996094 36.050781 11.589844 34.335938 C 11.289062 32.621094 11.996094 32.015625 14.113281 31.308594 C 16.230469 30.601562 19.359375 29.191406 21.375 28.484375 C 23.496094 27.878906 29.144531 25.859375 30.757812 25.457031 C 26.925781 25.355469 18.25 27.273438 15.929688 27.777344 C 14.214844 28.179688 14.011719 27.574219 13.40625 26.363281 C 12.703125 25.15625 13.507812 24.347656 14.617188 24.046875 C 15.929688 23.742188 18.453125 22.53125 21.980469 21.121094 C 24.90625 19.910156 28.941406 18.800781 31.96875 17.691406 C 34.792969 16.78125 39.535156 15.167969 41.148438 14.460938 C 39.835938 14.460938 34.1875 15.371094 30.457031 15.875 C 26.722656 16.378906 20.367188 17.589844 19.460938 17.992188 C 18.453125 18.398438 17.339844 18.195312 16.636719 16.78125 C 16.03125 15.269531 16.636719 14.460938 17.542969 14.359375 "/>
</g>
</svg>
