<?xml version="1.0" encoding="UTF-8"?>
<svg xmlns="http://www.w3.org/2000/svg" xmlns:xlink="http://www.w3.org/1999/xlink" width="56pt" height="56pt" viewBox="0 0 56 56" version="1.1">
<g id="surface1">
<rect x="0" y="0" width="56" height="56" style="fill:rgb(13.206482%,29.40979%,53.286743%);fill-opacity:1;stroke:none;"/>
<path style=" stroke:none;fill-rule:nonzero;fill:rgb(100%,100%,100%);fill-opacity:1;" d="M 44.714844 28.152344 C 44.714844 26.425781 44.453125 24.742188 43.914062 23.105469 C 42.726562 19.496094 40.550781 16.625 37.417969 14.492188 C 34.78125 12.691406 31.84375 11.757812 28.652344 11.621094 C 27.050781 11.554688 25.472656 11.722656 23.917969 12.109375 C 22.546875 12.449219 21.234375 12.957031 19.996094 13.628906 C 18.71875 14.324219 17.550781 15.167969 16.492188 16.164062 C 14.597656 17.953125 13.195312 20.066406 12.289062 22.503906 C 11.753906 23.957031 11.445312 25.457031 11.335938 27.003906 C 11.246094 28.261719 11.300781 29.515625 11.5 30.753906 C 11.703125 32.039062 12.0625 33.28125 12.566406 34.480469 C 13.691406 37.152344 15.394531 39.375 17.675781 41.148438 C 20.398438 43.261719 23.488281 44.421875 26.933594 44.652344 C 28.679688 44.769531 30.398438 44.613281 32.089844 44.191406 C 35.066406 43.449219 37.664062 42.003906 39.832031 39.832031 C 43.039062 36.605469 44.652344 32.699219 44.714844 28.152344 Z M 26.9375 5.320312 C 27.75 5.320312 28.5625 5.320312 29.371094 5.320312 C 29.429688 5.339844 29.484375 5.367188 29.542969 5.375 C 29.882812 5.40625 30.21875 5.421875 30.558594 5.460938 C 32.417969 5.675781 34.226562 6.101562 35.980469 6.765625 C 37.753906 7.433594 39.417969 8.308594 40.972656 9.394531 C 43.613281 11.242188 45.773438 13.546875 47.441406 16.304688 C 49.03125 18.945312 50.042969 21.796875 50.46875 24.851562 C 50.558594 25.5 50.609375 26.152344 50.679688 26.804688 C 50.679688 27.484375 50.679688 28.164062 50.679688 28.84375 C 50.664062 29.105469 50.644531 29.371094 50.628906 29.640625 C 50.617188 29.757812 50.609375 29.875 50.601562 29.992188 C 50.59375 30.085938 50.585938 30.179688 50.574219 30.273438 C 50.570312 30.355469 50.558594 30.441406 50.554688 30.527344 C 50.546875 30.589844 50.539062 30.652344 50.53125 30.714844 C 50.523438 30.753906 50.515625 30.792969 50.511719 30.835938 C 50.507812 30.863281 50.503906 30.894531 50.503906 30.921875 C 50.496094 30.976562 50.488281 31.03125 50.480469 31.085938 C 50.472656 31.148438 50.464844 31.214844 50.453125 31.277344 C 50.445312 31.351562 50.433594 31.425781 50.425781 31.5 C 50.417969 31.546875 50.40625 31.597656 50.398438 31.644531 C 50.390625 31.699219 50.382812 31.753906 50.371094 31.808594 C 50.355469 31.898438 50.339844 31.988281 50.320312 32.078125 C 50.316406 32.113281 50.308594 32.152344 50.304688 32.191406 C 50.292969 32.246094 50.277344 32.300781 50.265625 32.351562 C 50.261719 32.394531 50.253906 32.433594 50.25 32.472656 C 50.238281 32.523438 50.226562 32.570312 50.214844 32.617188 C 50.128906 32.984375 50.046875 33.351562 49.953125 33.714844 C 49.320312 36.214844 48.269531 38.535156 46.820312 40.667969 C 44.09375 44.671875 40.46875 47.535156 35.941406 49.253906 C 34.117188 49.945312 32.234375 50.382812 30.292969 50.5625 C 29.898438 50.601562 29.503906 50.640625 29.105469 50.679688 C 28.503906 50.679688 27.898438 50.679688 27.289062 50.679688 C 26.996094 50.664062 26.699219 50.644531 26.40625 50.625 C 26.285156 50.617188 26.167969 50.609375 26.050781 50.605469 C 25.957031 50.59375 25.863281 50.582031 25.773438 50.574219 C 25.6875 50.566406 25.601562 50.5625 25.519531 50.554688 C 25.457031 50.546875 25.394531 50.539062 25.328125 50.53125 C 25.289062 50.523438 25.25 50.519531 25.207031 50.515625 C 25.179688 50.511719 25.148438 50.507812 25.121094 50.503906 C 25.066406 50.496094 25.011719 50.488281 24.957031 50.484375 C 24.894531 50.472656 24.828125 50.460938 24.765625 50.453125 C 24.691406 50.445312 24.617188 50.4375 24.542969 50.425781 C 24.480469 50.414062 24.417969 50.402344 24.359375 50.386719 C 24.316406 50.382812 24.277344 50.378906 24.234375 50.375 C 24.203125 50.371094 24.175781 50.367188 24.144531 50.363281 C 24.121094 50.359375 24.097656 50.355469 24.074219 50.351562 C 24.023438 50.339844 23.972656 50.332031 23.921875 50.320312 C 23.886719 50.316406 23.847656 50.3125 23.808594 50.304688 C 23.753906 50.292969 23.699219 50.277344 23.648438 50.265625 C 23.605469 50.257812 23.566406 50.253906 23.527344 50.246094 C 23.476562 50.234375 23.429688 50.226562 23.382812 50.214844 C 23.316406 50.199219 23.253906 50.1875 23.1875 50.171875 C 23.132812 50.160156 23.078125 50.148438 23.027344 50.136719 C 22.984375 50.132812 22.945312 50.121094 22.90625 50.113281 C 22.871094 50.105469 22.839844 50.097656 22.804688 50.085938 C 22.742188 50.070312 22.675781 50.054688 22.613281 50.039062 C 22.578125 50.03125 22.542969 50.019531 22.507812 50.011719 C 22.46875 50.007812 22.429688 50 22.390625 49.992188 C 22.351562 49.980469 22.3125 49.96875 22.273438 49.953125 C 22.246094 49.949219 22.222656 49.945312 22.195312 49.9375 C 22.164062 49.925781 22.128906 49.914062 22.097656 49.902344 C 22.046875 49.894531 21.996094 49.882812 21.945312 49.867188 C 21.910156 49.859375 21.875 49.847656 21.84375 49.835938 C 21.816406 49.832031 21.792969 49.828125 21.765625 49.824219 C 21.726562 49.808594 21.691406 49.792969 21.652344 49.78125 C 21.628906 49.773438 21.601562 49.769531 21.578125 49.761719 C 21.542969 49.75 21.511719 49.738281 21.476562 49.726562 C 20.03125 49.300781 18.648438 48.726562 17.320312 48.011719 C 15.054688 46.800781 13.054688 45.25 11.316406 43.363281 C 9.628906 41.53125 8.28125 39.476562 7.265625 37.203125 C 6.394531 35.253906 5.816406 33.21875 5.53125 31.101562 C 5.441406 30.425781 5.390625 29.742188 5.320312 29.0625 C 5.320312 28.355469 5.320312 27.644531 5.320312 26.9375 C 5.335938 26.804688 5.363281 26.675781 5.371094 26.546875 C 5.457031 24.972656 5.726562 23.425781 6.148438 21.910156 C 6.976562 18.941406 8.351562 16.246094 10.285156 13.84375 C 13.132812 10.3125 16.707031 7.832031 21.019531 6.417969 C 22.566406 5.910156 24.152344 5.585938 25.773438 5.429688 C 26.160156 5.394531 26.546875 5.355469 26.9375 5.320312 "/>
<path style=" stroke:none;fill-rule:nonzero;fill:rgb(100%,100%,100%);fill-opacity:1;" d="M 28.007812 18.59375 C 27.191406 18.570312 26.386719 18.679688 25.597656 18.878906 C 24.117188 19.253906 22.777344 19.925781 21.613281 20.925781 C 19.664062 22.597656 18.535156 24.710938 18.265625 27.261719 C 18.132812 28.515625 18.242188 29.765625 18.632812 30.972656 C 19.453125 33.515625 21.054688 35.414062 23.414062 36.675781 C 24.488281 37.25 25.636719 37.609375 26.84375 37.730469 C 27.507812 37.796875 28.1875 37.804688 28.851562 37.738281 C 29.554688 37.671875 30.269531 37.554688 30.945312 37.351562 C 32.722656 36.824219 34.21875 35.835938 35.441406 34.433594 C 36.648438 33.054688 37.394531 31.449219 37.683594 29.644531 C 37.859375 28.550781 37.835938 27.453125 37.617188 26.367188 C 37.28125 24.699219 36.558594 23.203125 35.421875 21.933594 C 33.449219 19.726562 30.960938 18.632812 28.007812 18.59375 Z M 44.714844 28.152344 C 44.652344 32.699219 43.039062 36.605469 39.832031 39.832031 C 37.664062 42.003906 35.066406 43.449219 32.089844 44.191406 C 30.398438 44.613281 28.679688 44.769531 26.933594 44.652344 C 23.488281 44.421875 20.398438 43.261719 17.675781 41.148438 C 15.394531 39.375 13.691406 37.152344 12.566406 34.480469 C 12.0625 33.28125 11.703125 32.039062 11.5 30.753906 C 11.300781 29.515625 11.246094 28.261719 11.335938 27.003906 C 11.445312 25.457031 11.753906 23.957031 12.289062 22.503906 C 13.195312 20.066406 14.597656 17.953125 16.492188 16.164062 C 17.550781 15.167969 18.71875 14.324219 19.996094 13.628906 C 21.234375 12.957031 22.546875 12.449219 23.917969 12.109375 C 25.472656 11.722656 27.050781 11.554688 28.652344 11.621094 C 31.84375 11.757812 34.78125 12.691406 37.417969 14.492188 C 40.550781 16.625 42.726562 19.496094 43.914062 23.105469 C 44.453125 24.742188 44.714844 26.425781 44.714844 28.152344 "/>
<path style=" stroke:none;fill-rule:nonzero;fill:rgb(100%,100%,100%);fill-opacity:1;" d="M 22.253906 31.058594 C 22.222656 31.066406 22.191406 31.074219 22.160156 31.082031 C 22.160156 31.292969 22.152344 31.5 22.160156 31.710938 C 22.167969 31.929688 22.300781 32.054688 22.492188 32.136719 C 23.019531 32.367188 23.578125 32.097656 23.726562 31.472656 C 23.835938 30.996094 23.886719 30.496094 23.890625 30.007812 C 23.910156 28.289062 23.898438 26.570312 23.898438 24.847656 C 23.898438 24.789062 23.902344 24.730469 23.894531 24.671875 C 23.875 24.539062 23.804688 24.464844 23.660156 24.457031 C 23.339844 24.441406 23.285156 24.488281 23.285156 24.8125 C 23.285156 26.554688 23.289062 28.292969 23.28125 30.035156 C 23.28125 30.359375 23.246094 30.683594 23.179688 31 C 23.105469 31.34375 22.820312 31.4375 22.519531 31.25 C 22.425781 31.191406 22.34375 31.125 22.253906 31.058594 Z M 31.191406 30.984375 C 31.175781 30.984375 31.15625 30.984375 31.140625 30.980469 C 31.070312 30.671875 30.996094 30.359375 30.929688 30.046875 C 30.738281 29.136719 30.550781 28.222656 30.359375 27.308594 C 30.1875 26.484375 30.003906 25.660156 29.832031 24.832031 C 29.761719 24.484375 29.703125 24.429688 29.347656 24.460938 C 29.210938 24.46875 29.136719 24.527344 29.152344 24.667969 C 29.167969 24.796875 29.191406 24.929688 29.21875 25.058594 C 29.425781 26.019531 29.632812 26.980469 29.839844 27.941406 C 30.015625 28.75 30.199219 29.554688 30.378906 30.363281 C 30.492188 30.878906 30.609375 31.394531 30.722656 31.910156 C 30.777344 32.144531 30.953125 32.152344 31.136719 32.148438 C 31.316406 32.144531 31.496094 32.144531 31.546875 31.90625 C 31.613281 31.605469 31.6875 31.308594 31.753906 31.007812 C 31.945312 30.117188 32.140625 29.226562 32.332031 28.339844 C 32.488281 27.636719 32.644531 26.933594 32.796875 26.230469 C 32.90625 25.746094 33.019531 25.257812 33.117188 24.769531 C 33.140625 24.652344 33.175781 24.492188 32.972656 24.460938 C 32.710938 24.417969 32.550781 24.472656 32.515625 24.644531 C 32.425781 25.046875 32.34375 25.449219 32.261719 25.851562 C 32.113281 26.570312 31.972656 27.289062 31.824219 28.007812 C 31.667969 28.761719 31.511719 29.515625 31.351562 30.269531 C 31.300781 30.507812 31.246094 30.746094 31.191406 30.984375 Z M 26.871094 24.460938 C 26.546875 24.460938 26.476562 24.523438 26.410156 24.839844 C 26.285156 25.425781 26.15625 26.011719 26.023438 26.601562 C 25.828125 27.460938 25.628906 28.316406 25.4375 29.175781 C 25.242188 30.039062 25.054688 30.910156 24.859375 31.777344 C 24.824219 31.921875 24.773438 32.074219 24.976562 32.136719 C 25.207031 32.210938 25.402344 32.125 25.449219 31.917969 C 25.574219 31.375 25.695312 30.832031 25.800781 30.285156 C 25.832031 30.136719 25.886719 30.085938 26.03125 30.089844 C 26.578125 30.09375 27.125 30.09375 27.671875 30.089844 C 27.800781 30.085938 27.847656 30.140625 27.875 30.261719 C 27.988281 30.800781 28.109375 31.335938 28.234375 31.871094 C 28.292969 32.136719 28.59375 32.257812 28.8125 32.097656 C 28.863281 32.0625 28.902344 31.957031 28.890625 31.898438 C 28.710938 31.066406 28.519531 30.234375 28.335938 29.402344 C 28.164062 28.628906 27.992188 27.855469 27.820312 27.082031 C 27.648438 26.320312 27.476562 25.550781 27.296875 24.789062 C 27.222656 24.484375 27.179688 24.460938 26.871094 24.460938 Z M 28.007812 18.59375 C 30.960938 18.632812 33.449219 19.726562 35.421875 21.933594 C 36.558594 23.203125 37.28125 24.699219 37.617188 26.367188 C 37.835938 27.453125 37.859375 28.550781 37.683594 29.644531 C 37.394531 31.449219 36.648438 33.054688 35.441406 34.433594 C 34.21875 35.835938 32.722656 36.824219 30.945312 37.351562 C 30.269531 37.554688 29.554688 37.671875 28.851562 37.738281 C 28.1875 37.804688 27.507812 37.796875 26.84375 37.730469 C 25.636719 37.609375 24.488281 37.25 23.414062 36.675781 C 21.054688 35.414062 19.453125 33.515625 18.632812 30.972656 C 18.242188 29.765625 18.132812 28.515625 18.265625 27.261719 C 18.535156 24.710938 19.664062 22.597656 21.613281 20.925781 C 22.777344 19.925781 24.117188 19.253906 25.597656 18.878906 C 26.386719 18.679688 27.191406 18.570312 28.007812 18.59375 "/>
<path style=" stroke:none;fill-rule:nonzero;fill:rgb(100%,100%,100%);fill-opacity:1;" d="M 27.671875 29.300781 C 27.398438 28.039062 27.128906 26.804688 26.859375 25.570312 C 26.839844 25.570312 26.820312 25.570312 26.800781 25.570312 C 26.535156 26.804688 26.273438 28.039062 26 29.300781 C 26.558594 29.300781 27.089844 29.300781 27.671875 29.300781 Z M 26.871094 24.460938 C 27.179688 24.460938 27.222656 24.484375 27.296875 24.789062 C 27.476562 25.550781 27.648438 26.320312 27.820312 27.082031 C 27.992188 27.855469 28.164062 28.628906 28.335938 29.402344 C 28.519531 30.234375 28.710938 31.066406 28.890625 31.898438 C 28.902344 31.957031 28.863281 32.0625 28.8125 32.097656 C 28.59375 32.257812 28.292969 32.136719 28.234375 31.871094 C 28.109375 31.335938 27.988281 30.800781 27.875 30.261719 C 27.847656 30.140625 27.800781 30.085938 27.671875 30.089844 C 27.125 30.09375 26.578125 30.09375 26.03125 30.089844 C 25.886719 30.085938 25.832031 30.136719 25.800781 30.285156 C 25.695312 30.832031 25.574219 31.375 25.449219 31.917969 C 25.402344 32.125 25.207031 32.210938 24.976562 32.136719 C 24.773438 32.074219 24.824219 31.921875 24.859375 31.777344 C 25.054688 30.910156 25.242188 30.039062 25.4375 29.175781 C 25.628906 28.316406 25.828125 27.460938 26.023438 26.601562 C 26.15625 26.011719 26.285156 25.425781 26.410156 24.839844 C 26.476562 24.523438 26.546875 24.460938 26.871094 24.460938 "/>
<path style=" stroke:none;fill-rule:nonzero;fill:rgb(100%,100%,100%);fill-opacity:1;" d="M 31.191406 30.984375 C 31.246094 30.746094 31.300781 30.507812 31.351562 30.269531 C 31.511719 29.515625 31.667969 28.761719 31.824219 28.007812 C 31.972656 27.289062 32.113281 26.570312 32.261719 25.851562 C 32.34375 25.449219 32.425781 25.046875 32.515625 24.644531 C 32.550781 24.472656 32.710938 24.417969 32.972656 24.460938 C 33.175781 24.492188 33.140625 24.652344 33.117188 24.769531 C 33.019531 25.257812 32.90625 25.746094 32.796875 26.230469 C 32.644531 26.933594 32.488281 27.636719 32.332031 28.339844 C 32.140625 29.226562 31.945312 30.117188 31.753906 31.007812 C 31.6875 31.308594 31.613281 31.605469 31.546875 31.90625 C 31.496094 32.144531 31.316406 32.144531 31.136719 32.148438 C 30.953125 32.152344 30.777344 32.144531 30.722656 31.910156 C 30.609375 31.394531 30.492188 30.878906 30.378906 30.363281 C 30.199219 29.554688 30.015625 28.75 29.839844 27.941406 C 29.632812 26.980469 29.425781 26.019531 29.21875 25.058594 C 29.191406 24.929688 29.167969 24.796875 29.152344 24.667969 C 29.136719 24.527344 29.210938 24.46875 29.347656 24.460938 C 29.703125 24.429688 29.761719 24.484375 29.832031 24.832031 C 30.003906 25.660156 30.1875 26.484375 30.359375 27.308594 C 30.550781 28.222656 30.738281 29.136719 30.929688 30.046875 C 30.996094 30.359375 31.070312 30.671875 31.140625 30.980469 C 31.15625 30.984375 31.175781 30.984375 31.191406 30.984375 "/>
<path style=" stroke:none;fill-rule:nonzero;fill:rgb(100%,100%,100%);fill-opacity:1;" d="M 22.253906 31.058594 C 22.34375 31.125 22.425781 31.191406 22.519531 31.25 C 22.820312 31.4375 23.105469 31.34375 23.179688 31 C 23.246094 30.683594 23.28125 30.359375 23.28125 30.035156 C 23.289062 28.292969 23.285156 26.554688 23.285156 24.8125 C 23.285156 24.488281 23.339844 24.441406 23.660156 24.457031 C 23.804688 24.464844 23.875 24.539062 23.894531 24.671875 C 23.902344 24.730469 23.898438 24.789062 23.898438 24.847656 C 23.898438 26.570312 23.910156 28.289062 23.890625 30.007812 C 23.886719 30.496094 23.835938 30.996094 23.726562 31.472656 C 23.578125 32.097656 23.019531 32.367188 22.492188 32.136719 C 22.300781 32.054688 22.167969 31.929688 22.160156 31.710938 C 22.152344 31.5 22.160156 31.292969 22.160156 31.082031 C 22.191406 31.074219 22.222656 31.066406 22.253906 31.058594 "/>
<path style=" stroke:none;fill-rule:nonzero;fill:rgb(100%,100%,100%);fill-opacity:1;" d="M 27.671875 29.300781 C 27.089844 29.300781 26.558594 29.300781 26 29.300781 C 26.273438 28.039062 26.535156 26.804688 26.800781 25.570312 C 26.820312 25.570312 26.839844 25.570312 26.859375 25.570312 C 27.128906 26.804688 27.398438 28.039062 27.671875 29.300781 "/>
<path style=" stroke:none;fill-rule:nonzero;fill:rgb(13.206482%,29.40979%,53.286743%);fill-opacity:1;" d="M 43.113281 28.136719 C 43.109375 26.574219 42.875 25.054688 42.390625 23.574219 C 41.316406 20.308594 39.347656 17.714844 36.519531 15.785156 C 34.132812 14.160156 31.476562 13.3125 28.589844 13.191406 C 27.144531 13.132812 25.714844 13.285156 24.308594 13.632812 C 23.070312 13.941406 21.882812 14.398438 20.761719 15.007812 C 19.609375 15.632812 18.550781 16.398438 17.59375 17.300781 C 15.882812 18.914062 14.613281 20.828125 13.796875 23.03125 C 13.3125 24.34375 13.03125 25.703125 12.933594 27.101562 C 12.851562 28.238281 12.898438 29.367188 13.082031 30.492188 C 13.265625 31.652344 13.589844 32.773438 14.046875 33.859375 C 15.0625 36.273438 16.601562 38.285156 18.664062 39.886719 C 21.125 41.796875 23.921875 42.847656 27.035156 43.058594 C 28.613281 43.160156 30.167969 43.019531 31.699219 42.640625 C 34.390625 41.96875 36.738281 40.660156 38.695312 38.695312 C 41.597656 35.78125 43.058594 32.246094 43.113281 28.136719 Z M 27.039062 7.492188 C 27.773438 7.492188 28.507812 7.492188 29.242188 7.492188 C 29.292969 7.511719 29.34375 7.539062 29.394531 7.542969 C 29.703125 7.570312 30.007812 7.585938 30.3125 7.621094 C 31.992188 7.816406 33.632812 8.203125 35.214844 8.800781 C 36.820312 9.402344 38.324219 10.195312 39.726562 11.175781 C 42.117188 12.847656 44.070312 14.933594 45.578125 17.425781 C 47.019531 19.8125 47.929688 22.390625 48.316406 25.152344 C 48.394531 25.738281 48.445312 26.332031 48.507812 26.917969 C 48.507812 27.53125 48.507812 28.148438 48.507812 28.761719 C 48.492188 29 48.472656 29.242188 48.457031 29.480469 C 48.453125 29.589844 48.445312 29.695312 48.4375 29.800781 C 48.429688 29.886719 48.417969 29.96875 48.410156 30.054688 C 48.40625 30.128906 48.398438 30.207031 48.394531 30.28125 C 48.386719 30.339844 48.378906 30.398438 48.371094 30.453125 C 48.363281 30.492188 48.359375 30.527344 48.351562 30.5625 C 48.351562 30.589844 48.347656 30.617188 48.347656 30.644531 C 48.339844 30.691406 48.335938 30.738281 48.328125 30.789062 C 48.320312 30.847656 48.308594 30.90625 48.300781 30.964844 C 48.292969 31.03125 48.285156 31.097656 48.277344 31.164062 C 48.269531 31.207031 48.261719 31.253906 48.25 31.296875 C 48.242188 31.34375 48.234375 31.394531 48.226562 31.445312 C 48.214844 31.523438 48.199219 31.605469 48.179688 31.683594 C 48.175781 31.71875 48.171875 31.757812 48.167969 31.789062 C 48.15625 31.839844 48.144531 31.886719 48.132812 31.9375 C 48.128906 31.972656 48.121094 32.011719 48.117188 32.046875 C 48.105469 32.089844 48.09375 32.132812 48.085938 32.175781 C 48.007812 32.507812 47.933594 32.839844 47.851562 33.167969 C 47.273438 35.429688 46.328125 37.527344 45.015625 39.453125 C 42.554688 43.074219 39.273438 45.664062 35.179688 47.21875 C 33.53125 47.84375 31.832031 48.238281 30.074219 48.402344 C 29.71875 48.433594 29.359375 48.472656 29 48.507812 C 28.453125 48.507812 27.90625 48.507812 27.359375 48.507812 C 27.09375 48.492188 26.824219 48.476562 26.558594 48.457031 C 26.453125 48.449219 26.34375 48.445312 26.238281 48.4375 C 26.152344 48.429688 26.070312 48.417969 25.984375 48.410156 C 25.910156 48.40625 25.832031 48.398438 25.757812 48.390625 C 25.699219 48.386719 25.644531 48.378906 25.585938 48.371094 C 25.546875 48.367188 25.511719 48.363281 25.476562 48.355469 C 25.449219 48.355469 25.421875 48.351562 25.398438 48.347656 C 25.347656 48.339844 25.296875 48.335938 25.25 48.328125 C 25.191406 48.320312 25.132812 48.3125 25.074219 48.300781 C 25.007812 48.292969 24.941406 48.285156 24.875 48.277344 C 24.820312 48.265625 24.761719 48.253906 24.707031 48.242188 C 24.667969 48.238281 24.632812 48.234375 24.59375 48.230469 C 24.570312 48.226562 24.542969 48.222656 24.515625 48.21875 C 24.492188 48.214844 24.472656 48.210938 24.449219 48.207031 C 24.40625 48.199219 24.359375 48.191406 24.316406 48.179688 C 24.28125 48.175781 24.242188 48.171875 24.210938 48.167969 C 24.160156 48.15625 24.113281 48.144531 24.0625 48.132812 C 24.027344 48.125 23.992188 48.121094 23.953125 48.113281 C 23.910156 48.105469 23.867188 48.09375 23.824219 48.085938 C 23.765625 48.074219 23.707031 48.058594 23.648438 48.046875 C 23.597656 48.039062 23.550781 48.027344 23.503906 48.015625 C 23.464844 48.011719 23.429688 48 23.394531 47.996094 C 23.363281 47.988281 23.332031 47.980469 23.300781 47.96875 C 23.246094 47.957031 23.1875 47.941406 23.128906 47.925781 C 23.097656 47.917969 23.066406 47.910156 23.03125 47.902344 C 22.996094 47.898438 22.964844 47.890625 22.929688 47.886719 C 22.894531 47.875 22.855469 47.863281 22.824219 47.851562 C 22.796875 47.84375 22.777344 47.839844 22.753906 47.835938 C 22.722656 47.824219 22.691406 47.8125 22.664062 47.804688 C 22.617188 47.792969 22.570312 47.785156 22.523438 47.773438 C 22.492188 47.761719 22.464844 47.753906 22.433594 47.742188 C 22.410156 47.738281 22.386719 47.738281 22.363281 47.730469 C 22.328125 47.71875 22.292969 47.707031 22.261719 47.691406 C 22.238281 47.6875 22.214844 47.679688 22.191406 47.675781 C 22.160156 47.667969 22.132812 47.65625 22.101562 47.644531 C 20.792969 47.261719 19.542969 46.738281 18.34375 46.09375 C 16.296875 45 14.488281 43.597656 12.914062 41.890625 C 11.386719 40.234375 10.167969 38.378906 9.25 36.320312 C 8.464844 34.558594 7.941406 32.71875 7.6875 30.804688 C 7.605469 30.195312 7.554688 29.578125 7.492188 28.960938 C 7.492188 28.320312 7.492188 27.679688 7.492188 27.039062 C 7.507812 26.921875 7.535156 26.804688 7.539062 26.683594 C 7.617188 25.261719 7.859375 23.863281 8.242188 22.492188 C 8.992188 19.808594 10.234375 17.371094 11.984375 15.199219 C 14.554688 12.007812 17.789062 9.765625 21.691406 8.488281 C 23.089844 8.027344 24.519531 7.734375 25.984375 7.59375 C 26.335938 7.558594 26.6875 7.527344 27.039062 7.492188 "/>
<path style=" stroke:none;fill-rule:nonzero;fill:rgb(89.953613%,10.736084%,16.68396%);fill-opacity:1;" d="M 28.007812 19.492188 C 27.269531 19.476562 26.539062 19.570312 25.832031 19.753906 C 24.488281 20.09375 23.277344 20.699219 22.226562 21.601562 C 20.464844 23.113281 19.445312 25.027344 19.199219 27.332031 C 19.078125 28.464844 19.175781 29.59375 19.53125 30.6875 C 20.273438 32.988281 21.71875 34.707031 23.855469 35.84375 C 24.824219 36.363281 25.863281 36.6875 26.957031 36.800781 C 27.554688 36.859375 28.167969 36.863281 28.769531 36.804688 C 29.40625 36.746094 30.050781 36.640625 30.664062 36.457031 C 32.269531 35.976562 33.625 35.085938 34.726562 33.820312 C 35.820312 32.570312 36.492188 31.121094 36.753906 29.484375 C 36.914062 28.5 36.890625 27.507812 36.695312 26.523438 C 36.390625 25.015625 35.738281 23.664062 34.710938 22.515625 C 32.925781 20.519531 30.675781 19.53125 28.007812 19.492188 Z M 43.113281 28.136719 C 43.058594 32.246094 41.597656 35.78125 38.695312 38.695312 C 36.738281 40.660156 34.390625 41.96875 31.699219 42.640625 C 30.167969 43.019531 28.613281 43.160156 27.035156 43.058594 C 23.921875 42.847656 21.125 41.796875 18.664062 39.886719 C 16.601562 38.285156 15.0625 36.273438 14.046875 33.859375 C 13.589844 32.773438 13.265625 31.652344 13.082031 30.492188 C 12.898438 29.367188 12.851562 28.238281 12.933594 27.101562 C 13.03125 25.703125 13.3125 24.34375 13.796875 23.03125 C 14.613281 20.828125 15.882812 18.914062 17.59375 17.300781 C 18.550781 16.398438 19.609375 15.632812 20.761719 15.007812 C 21.882812 14.398438 23.070312 13.941406 24.308594 13.632812 C 25.714844 13.285156 27.144531 13.132812 28.589844 13.191406 C 31.476562 13.3125 34.132812 14.160156 36.519531 15.785156 C 39.347656 17.714844 41.316406 20.308594 42.390625 23.574219 C 42.875 25.054688 43.109375 26.574219 43.113281 28.136719 "/>
<path style=" stroke:none;fill-rule:nonzero;fill:rgb(83.166504%,85.266113%,92.747498%);fill-opacity:1;" d="M 22.804688 30.765625 C 22.777344 30.773438 22.746094 30.78125 22.71875 30.785156 C 22.71875 30.976562 22.714844 31.164062 22.71875 31.355469 C 22.726562 31.550781 22.847656 31.664062 23.019531 31.738281 C 23.496094 31.949219 24.003906 31.703125 24.136719 31.140625 C 24.234375 30.710938 24.28125 30.257812 24.285156 29.816406 C 24.300781 28.261719 24.289062 26.707031 24.289062 25.152344 C 24.289062 25.097656 24.292969 25.042969 24.289062 24.992188 C 24.273438 24.871094 24.207031 24.804688 24.078125 24.796875 C 23.789062 24.78125 23.738281 24.824219 23.738281 25.117188 C 23.738281 26.691406 23.742188 28.265625 23.734375 29.84375 C 23.730469 30.132812 23.703125 30.425781 23.640625 30.710938 C 23.574219 31.023438 23.316406 31.105469 23.042969 30.9375 C 22.960938 30.886719 22.882812 30.824219 22.804688 30.765625 Z M 30.886719 30.699219 C 30.871094 30.699219 30.855469 30.699219 30.839844 30.699219 C 30.777344 30.414062 30.710938 30.136719 30.652344 29.851562 C 30.476562 29.027344 30.308594 28.199219 30.132812 27.375 C 29.976562 26.628906 29.808594 25.882812 29.65625 25.136719 C 29.589844 24.820312 29.539062 24.773438 29.21875 24.796875 C 29.09375 24.808594 29.027344 24.859375 29.042969 24.984375 C 29.054688 25.105469 29.078125 25.222656 29.101562 25.339844 C 29.289062 26.207031 29.472656 27.078125 29.664062 27.945312 C 29.824219 28.675781 29.988281 29.40625 30.152344 30.140625 C 30.253906 30.605469 30.359375 31.070312 30.464844 31.535156 C 30.511719 31.746094 30.671875 31.753906 30.835938 31.75 C 30.996094 31.746094 31.164062 31.746094 31.207031 31.53125 C 31.265625 31.261719 31.332031 30.988281 31.394531 30.71875 C 31.570312 29.914062 31.742188 29.109375 31.917969 28.304688 C 32.058594 27.671875 32.199219 27.035156 32.339844 26.402344 C 32.4375 25.960938 32.539062 25.523438 32.625 25.082031 C 32.648438 24.972656 32.679688 24.832031 32.496094 24.800781 C 32.257812 24.761719 32.113281 24.8125 32.082031 24.964844 C 32.003906 25.328125 31.925781 25.691406 31.851562 26.054688 C 31.71875 26.707031 31.589844 27.355469 31.457031 28.007812 C 31.316406 28.691406 31.175781 29.371094 31.03125 30.050781 C 30.984375 30.269531 30.933594 30.484375 30.886719 30.699219 Z M 26.980469 24.800781 C 26.683594 24.796875 26.625 24.855469 26.5625 25.140625 C 26.453125 25.671875 26.332031 26.203125 26.210938 26.734375 C 26.035156 27.511719 25.855469 28.285156 25.683594 29.0625 C 25.507812 29.84375 25.335938 30.628906 25.160156 31.414062 C 25.128906 31.546875 25.082031 31.679688 25.265625 31.738281 C 25.472656 31.804688 25.652344 31.730469 25.695312 31.542969 C 25.804688 31.050781 25.914062 30.558594 26.011719 30.066406 C 26.039062 29.933594 26.089844 29.886719 26.222656 29.886719 C 26.714844 29.894531 27.210938 29.894531 27.703125 29.890625 C 27.820312 29.886719 27.863281 29.933594 27.886719 30.046875 C 27.988281 30.53125 28.101562 31.015625 28.210938 31.5 C 28.265625 31.738281 28.539062 31.847656 28.734375 31.707031 C 28.78125 31.671875 28.816406 31.578125 28.804688 31.523438 C 28.640625 30.769531 28.472656 30.019531 28.304688 29.269531 C 28.148438 28.570312 27.992188 27.871094 27.835938 27.171875 C 27.679688 26.480469 27.527344 25.785156 27.363281 25.097656 C 27.296875 24.820312 27.257812 24.800781 26.980469 24.800781 Z M 28.007812 19.492188 C 30.675781 19.53125 32.925781 20.519531 34.710938 22.515625 C 35.738281 23.664062 36.390625 25.015625 36.695312 26.523438 C 36.890625 27.507812 36.914062 28.5 36.753906 29.484375 C 36.492188 31.121094 35.820312 32.570312 34.726562 33.820312 C 33.625 35.085938 32.269531 35.976562 30.664062 36.457031 C 30.050781 36.640625 29.40625 36.746094 28.769531 36.804688 C 28.167969 36.863281 27.554688 36.859375 26.957031 36.800781 C 25.863281 36.6875 24.824219 36.363281 23.855469 35.84375 C 21.71875 34.707031 20.273438 32.988281 19.53125 30.6875 C 19.175781 29.59375 19.078125 28.464844 19.199219 27.332031 C 19.445312 25.027344 20.464844 23.113281 22.226562 21.601562 C 23.277344 20.699219 24.488281 20.09375 25.832031 19.753906 C 26.539062 19.570312 27.269531 19.476562 28.007812 19.492188 "/>
<path style=" stroke:none;fill-rule:nonzero;fill:rgb(13.923645%,32.629395%,51.391602%);fill-opacity:1;" d="M 27.703125 29.175781 C 27.457031 28.035156 27.210938 26.917969 26.96875 25.800781 C 26.953125 25.804688 26.933594 25.804688 26.917969 25.804688 C 26.675781 26.921875 26.4375 28.035156 26.191406 29.175781 C 26.695312 29.175781 27.175781 29.175781 27.703125 29.175781 Z M 26.980469 24.800781 C 27.257812 24.800781 27.296875 24.820312 27.363281 25.097656 C 27.527344 25.785156 27.679688 26.480469 27.835938 27.171875 C 27.992188 27.871094 28.148438 28.570312 28.304688 29.269531 C 28.472656 30.019531 28.640625 30.769531 28.804688 31.523438 C 28.816406 31.578125 28.78125 31.671875 28.734375 31.707031 C 28.539062 31.847656 28.265625 31.738281 28.210938 31.5 C 28.101562 31.015625 27.988281 30.53125 27.886719 30.046875 C 27.863281 29.933594 27.820312 29.886719 27.703125 29.890625 C 27.210938 29.894531 26.714844 29.894531 26.222656 29.886719 C 26.089844 29.886719 26.039062 29.933594 26.011719 30.066406 C 25.914062 30.558594 25.804688 31.050781 25.695312 31.542969 C 25.652344 31.730469 25.472656 31.804688 25.265625 31.738281 C 25.082031 31.679688 25.128906 31.546875 25.160156 31.414062 C 25.335938 30.628906 25.507812 29.84375 25.683594 29.0625 C 25.855469 28.285156 26.035156 27.511719 26.210938 26.734375 C 26.332031 26.203125 26.453125 25.671875 26.5625 25.140625 C 26.625 24.855469 26.683594 24.796875 26.980469 24.800781 "/>
<path style=" stroke:none;fill-rule:nonzero;fill:rgb(14.071655%,32.629395%,51.394653%);fill-opacity:1;" d="M 30.886719 30.699219 C 30.933594 30.484375 30.984375 30.269531 31.03125 30.050781 C 31.175781 29.371094 31.316406 28.691406 31.457031 28.007812 C 31.589844 27.355469 31.71875 26.707031 31.851562 26.054688 C 31.925781 25.691406 32.003906 25.328125 32.082031 24.964844 C 32.113281 24.8125 32.257812 24.761719 32.496094 24.800781 C 32.679688 24.832031 32.648438 24.972656 32.625 25.082031 C 32.539062 25.523438 32.4375 25.960938 32.339844 26.402344 C 32.199219 27.035156 32.058594 27.671875 31.917969 28.304688 C 31.742188 29.109375 31.570312 29.914062 31.394531 30.71875 C 31.332031 30.988281 31.265625 31.261719 31.207031 31.53125 C 31.164062 31.746094 30.996094 31.746094 30.835938 31.75 C 30.671875 31.753906 30.511719 31.746094 30.464844 31.535156 C 30.359375 31.070312 30.253906 30.605469 30.152344 30.140625 C 29.988281 29.40625 29.824219 28.675781 29.664062 27.945312 C 29.472656 27.078125 29.289062 26.207031 29.101562 25.339844 C 29.078125 25.222656 29.054688 25.105469 29.042969 24.984375 C 29.027344 24.859375 29.09375 24.808594 29.21875 24.796875 C 29.539062 24.773438 29.589844 24.820312 29.65625 25.136719 C 29.808594 25.882812 29.976562 26.628906 30.132812 27.375 C 30.308594 28.199219 30.476562 29.027344 30.652344 29.851562 C 30.710938 30.136719 30.777344 30.414062 30.839844 30.699219 C 30.855469 30.699219 30.871094 30.699219 30.886719 30.699219 "/>
<path style=" stroke:none;fill-rule:nonzero;fill:rgb(13.923645%,32.629395%,51.391602%);fill-opacity:1;" d="M 22.804688 30.765625 C 22.882812 30.824219 22.960938 30.886719 23.042969 30.9375 C 23.316406 31.105469 23.574219 31.023438 23.640625 30.710938 C 23.703125 30.425781 23.730469 30.132812 23.734375 29.84375 C 23.742188 28.265625 23.738281 26.691406 23.738281 25.117188 C 23.738281 24.824219 23.789062 24.78125 24.078125 24.796875 C 24.207031 24.804688 24.273438 24.871094 24.289062 24.992188 C 24.292969 25.042969 24.289062 25.097656 24.289062 25.152344 C 24.289062 26.707031 24.300781 28.261719 24.285156 29.816406 C 24.28125 30.257812 24.234375 30.710938 24.136719 31.140625 C 24.003906 31.703125 23.496094 31.949219 23.019531 31.738281 C 22.847656 31.664062 22.726562 31.550781 22.71875 31.355469 C 22.714844 31.164062 22.71875 30.976562 22.71875 30.785156 C 22.746094 30.78125 22.777344 30.773438 22.804688 30.765625 "/>
<path style=" stroke:none;fill-rule:nonzero;fill:rgb(81.260681%,84.587097%,92.037964%);fill-opacity:1;" d="M 27.703125 29.175781 C 27.175781 29.175781 26.695312 29.175781 26.191406 29.175781 C 26.4375 28.035156 26.675781 26.921875 26.917969 25.804688 C 26.933594 25.804688 26.953125 25.804688 26.96875 25.800781 C 27.210938 26.917969 27.457031 28.035156 27.703125 29.175781 "/>
</g>
</svg>
