<?xml version="1.0" encoding="UTF-8"?>
<svg xmlns="http://www.w3.org/2000/svg" xmlns:xlink="http://www.w3.org/1999/xlink" width="56pt" height="56pt" viewBox="0 0 56 56" version="1.1">
<g id="surface1">
<rect x="0" y="0" width="56" height="56" style="fill:rgb(95.666504%,95.776367%,96.775818%);fill-opacity:1;stroke:none;"/>
<path style=" stroke:none;fill-rule:nonzero;fill:rgb(97.738647%,88.796997%,16.784668%);fill-opacity:1;" d="M 35.257812 22.15625 C 35.257812 25.421875 32.605469 28.070312 29.339844 28.070312 C 26.074219 28.070312 23.425781 25.421875 23.425781 22.15625 C 23.425781 20.992188 23.761719 19.910156 24.339844 18.996094 C 24.894531 19.484375 25.882812 18.558594 25.195312 17.933594 C 25.40625 17.726562 25.636719 17.535156 25.875 17.359375 C 26.574219 17.9375 27.203125 17.46875 27.058594 16.695312 C 27.496094 16.515625 27.957031 16.382812 28.441406 16.308594 C 28.578125 16.933594 29.605469 17.714844 30.15625 16.296875 C 30.53125 16.347656 30.898438 16.433594 31.246094 16.554688 C 30.769531 17.714844 32.144531 17.9375 32.429688 17.109375 C 32.769531 17.316406 33.082031 17.554688 33.367188 17.824219 C 33.269531 17.960938 33.210938 18.890625 34.066406 18.59375 C 34.8125 19.585938 35.257812 20.820312 35.257812 22.15625 "/>
<path style=" stroke:none;fill-rule:nonzero;fill:rgb(100%,100%,100%);fill-opacity:1;" d="M 26.671875 19.882812 C 26.960938 19.492188 28.679688 18.480469 28.679688 18.480469 L 29.808594 18.351562 L 31.972656 19.667969 L 32.78125 20.472656 L 33.210938 24.667969 C 33.210938 24.667969 32.578125 25.972656 32.46875 26.074219 C 32.363281 26.179688 29.34375 26.566406 29.226562 26.597656 C 29.113281 26.628906 26.425781 26.371094 26.425781 26.371094 L 25.5 24.792969 L 25 21.457031 L 26.671875 19.882812 "/>
<path style=" stroke:none;fill-rule:nonzero;fill:rgb(12.301636%,11.206055%,28.019714%);fill-opacity:1;" d="M 23.019531 20.167969 C 22.894531 19.433594 22.367188 19.011719 21.78125 18.664062 C 20.894531 18.136719 19.898438 17.976562 18.886719 17.839844 C 18.203125 17.742188 17.503906 17.597656 16.867188 17.335938 C 15.605469 16.820312 15.109375 15.964844 15.179688 14.609375 C 15.199219 14.226562 15.261719 13.839844 15.34375 13.46875 C 15.382812 13.300781 15.523438 13.160156 15.703125 12.867188 C 15.878906 13.203125 16.015625 13.390625 16.074219 13.597656 C 16.160156 13.898438 16.183594 14.214844 16.25 14.523438 C 16.453125 15.46875 16.980469 16.148438 17.933594 16.414062 C 18.53125 16.582031 19.15625 16.660156 19.761719 16.8125 C 20.527344 17.007812 21.324219 17.15625 22.035156 17.472656 C 23.179688 17.988281 23.828125 18.894531 23.769531 20.21875 C 23.714844 21.453125 23.839844 22.734375 24.082031 23.941406 C 24.226562 24.652344 24.933594 26.261719 26.410156 27.046875 C 27.570312 27.667969 28.96875 28.007812 30.289062 27.796875 C 31.34375 27.628906 33.566406 26.710938 34.148438 24.898438 C 34.476562 23.875 34.789062 22.882812 34.84375 21.816406 C 34.871094 21.261719 34.878906 20.707031 34.859375 20.152344 C 34.816406 18.964844 35.351562 18.121094 36.359375 17.554688 C 37.234375 17.066406 38.1875 16.820312 39.179688 16.703125 C 39.5625 16.660156 39.945312 16.597656 40.316406 16.503906 C 41.515625 16.203125 42.238281 15.457031 42.40625 14.210938 C 42.4375 13.996094 42.460938 13.773438 42.527344 13.570312 C 42.59375 13.355469 42.71875 13.160156 42.996094 12.890625 C 43.066406 13.011719 43.160156 13.125 43.203125 13.253906 C 43.691406 14.789062 43.617188 16.601562 41.644531 17.34375 C 40.976562 17.59375 40.25 17.683594 39.546875 17.84375 C 38.847656 18.007812 38.125 18.109375 37.449219 18.34375 C 36.554688 18.652344 35.855469 19.226562 35.523438 20.164062 C 35.566406 20.179688 35.625 20.214844 35.632812 20.203125 C 36.574219 19.03125 37.910156 18.757812 39.292969 18.570312 C 39.789062 18.503906 40.292969 18.425781 40.78125 18.300781 C 41.8125 18.042969 42.542969 17.351562 43.160156 16.511719 C 43.539062 17.214844 43.339844 18.0625 42.667969 18.597656 C 42.007812 19.128906 41.234375 19.371094 40.394531 19.425781 C 39.035156 19.519531 37.730469 19.835938 36.527344 20.5 C 35.953125 20.816406 35.570312 21.273438 35.367188 21.898438 C 35.417969 21.910156 35.449219 21.925781 35.453125 21.921875 C 36.644531 20.648438 38.191406 20.269531 39.839844 20.191406 C 40.972656 20.140625 41.949219 19.753906 42.78125 18.984375 C 42.828125 18.9375 42.894531 18.914062 43.039062 18.832031 C 42.914062 19.597656 42.617188 20.148438 42.011719 20.519531 C 41.222656 21.007812 40.347656 21.148438 39.449219 21.144531 C 38.464844 21.140625 37.523438 21.316406 36.648438 21.753906 C 36.246094 21.953125 35.875 22.234375 35.527344 22.523438 C 35.367188 22.652344 35.292969 22.890625 35.132812 23.160156 C 35.316406 23.121094 35.375 23.128906 35.402344 23.101562 C 36.445312 22.082031 37.714844 21.695312 39.15625 21.699219 C 40.21875 21.699219 41.253906 21.5 42.300781 20.902344 C 42.195312 21.496094 41.898438 21.808594 41.503906 22.042969 C 40.6875 22.527344 39.785156 22.628906 38.859375 22.648438 C 38.304688 22.664062 37.753906 22.695312 37.207031 22.769531 C 36.441406 22.871094 35.800781 23.234375 35.320312 23.886719 C 35.472656 23.804688 35.625 23.722656 35.777344 23.640625 C 36.515625 23.253906 37.292969 23.007812 38.128906 23.019531 C 39.210938 23.03125 40.289062 23.109375 41.316406 22.570312 C 41.175781 23.179688 40.753906 23.488281 40.246094 23.617188 C 39.667969 23.761719 39.058594 23.796875 38.464844 23.878906 C 37.585938 23.996094 36.699219 24.082031 35.828125 24.246094 C 35.367188 24.332031 34.914062 24.527344 34.679688 25.046875 C 34.859375 24.964844 35.046875 24.894531 35.222656 24.800781 C 35.816406 24.488281 36.453125 24.34375 37.109375 24.429688 C 38.15625 24.5625 39.175781 24.5 40.164062 24.105469 C 40.199219 24.089844 40.253906 24.121094 40.355469 24.140625 C 40.121094 24.523438 39.765625 24.695312 39.398438 24.851562 C 38.617188 25.183594 37.796875 25.148438 36.976562 25.101562 C 36.246094 25.058594 35.53125 25.097656 34.847656 25.382812 C 34.648438 25.46875 34.460938 25.570312 34.296875 25.769531 C 34.457031 25.738281 34.621094 25.714844 34.78125 25.675781 C 35.421875 25.53125 36.058594 25.46875 36.710938 25.644531 C 37.425781 25.832031 38.132812 25.710938 38.839844 25.511719 C 38.320312 26.199219 37.628906 26.394531 36.792969 26.328125 C 36.007812 26.261719 35.210938 26.261719 34.417969 26.253906 C 34.289062 26.253906 34.160156 26.347656 34.03125 26.398438 C 33.929688 26.40625 33.828125 26.417969 33.726562 26.429688 C 33.734375 26.457031 33.742188 26.484375 33.746094 26.511719 C 33.839844 26.46875 33.929688 26.425781 34.019531 26.382812 C 34.949219 26.449219 35.878906 26.515625 36.910156 26.589844 C 36.691406 26.925781 36.4375 26.980469 36.195312 26.984375 C 35.714844 27 35.230469 27 34.753906 26.964844 C 33.789062 26.890625 32.910156 27.085938 32.039062 27.527344 C 30.300781 28.40625 28.503906 28.441406 26.757812 27.570312 C 25.695312 27.042969 24.617188 26.867188 23.46875 27.046875 C 22.882812 27.136719 22.332031 27.09375 21.8125 26.730469 C 22.789062 26.539062 23.753906 26.34375 24.757812 26.464844 C 23.847656 26.136719 22.917969 26.171875 21.996094 26.324219 C 21.207031 26.457031 20.515625 26.3125 19.90625 25.796875 C 19.84375 25.746094 19.804688 25.664062 19.777344 25.535156 C 20.714844 25.859375 21.628906 25.730469 22.558594 25.574219 C 22.96875 25.503906 23.414062 25.65625 23.84375 25.710938 C 24.003906 25.734375 24.160156 25.769531 24.328125 25.753906 C 23.433594 25.117188 22.417969 25.046875 21.378906 25.15625 C 20.640625 25.230469 19.933594 25.136719 19.246094 24.902344 C 18.839844 24.761719 18.457031 24.5625 18.148438 24.097656 C 18.644531 24.226562 19.046875 24.371094 19.460938 24.429688 C 19.933594 24.496094 20.421875 24.542969 20.898438 24.5 C 21.953125 24.410156 22.96875 24.449219 23.925781 25.152344 C 23.75 24.683594 23.695312 24.617188 23.265625 24.4375 C 22.429688 24.09375 21.550781 23.96875 20.65625 23.917969 C 20.011719 23.882812 19.359375 23.855469 18.71875 23.761719 C 18.078125 23.664062 17.542969 23.367188 17.21875 22.714844 C 17.320312 22.6875 17.390625 22.640625 17.433594 22.660156 C 18.273438 23.015625 19.148438 23.105469 20.050781 23.042969 C 20.960938 22.976562 21.820312 23.191406 22.640625 23.574219 C 22.8125 23.65625 22.996094 23.710938 23.171875 23.777344 C 23.21875 23.828125 23.269531 23.878906 23.316406 23.925781 L 23.339844 23.953125 L 23.304688 23.941406 C 23.257812 23.890625 23.210938 23.839844 23.160156 23.785156 C 22.773438 23.117188 22.09375 22.921875 21.414062 22.792969 C 20.898438 22.699219 20.359375 22.734375 19.835938 22.671875 C 19.125 22.589844 18.402344 22.527344 17.707031 22.355469 C 17.035156 22.1875 16.496094 21.789062 16.242188 20.976562 C 16.429688 21.046875 16.550781 21.078125 16.664062 21.132812 C 17.519531 21.570312 18.445312 21.730469 19.386719 21.722656 C 20.84375 21.71875 22.148438 22.074219 23.207031 23.125 C 23.234375 23.148438 23.292969 23.140625 23.398438 23.15625 C 23.339844 22.726562 23.089844 22.464844 22.773438 22.246094 C 21.796875 21.570312 20.703125 21.25 19.527344 21.175781 C 18.902344 21.140625 18.269531 21.132812 17.664062 21 C 16.640625 20.78125 15.855469 20.226562 15.574219 19.144531 C 15.558594 19.082031 15.570312 19.011719 15.570312 18.851562 C 15.75 18.988281 15.875 19.074219 15.988281 19.171875 C 16.710938 19.777344 17.523438 20.136719 18.476562 20.203125 C 19.195312 20.253906 19.910156 20.367188 20.617188 20.484375 C 21.292969 20.601562 21.890625 20.917969 22.429688 21.335938 C 22.675781 21.523438 22.921875 21.710938 23.171875 21.894531 C 23.1875 21.90625 23.207031 21.917969 23.222656 21.925781 C 23.203125 21.921875 23.179688 21.914062 23.160156 21.90625 C 23.105469 21.195312 22.601562 20.816406 22.054688 20.511719 C 20.859375 19.835938 19.542969 19.558594 18.191406 19.457031 C 17.484375 19.402344 16.820312 19.230469 16.21875 18.835938 C 15.382812 18.289062 15.121094 17.660156 15.324219 16.539062 C 15.484375 16.6875 15.632812 16.785156 15.738281 16.921875 C 16.539062 17.964844 17.636719 18.40625 18.902344 18.574219 C 19.710938 18.679688 20.507812 18.863281 21.300781 19.046875 C 22.003906 19.207031 22.46875 19.761719 23.027344 20.160156 C 23.035156 20.222656 23.046875 20.28125 23.03125 20.1875 C 23.089844 20.257812 23.050781 20.214844 23.019531 20.167969 "/>
<path style=" stroke:none;fill-rule:nonzero;fill:rgb(93.321228%,15.892029%,13.285828%);fill-opacity:1;" d="M 26.535156 25.980469 C 26.84375 26.015625 31.929688 25.917969 32.277344 25.894531 C 32.378906 25.359375 32.011719 24.269531 31.859375 23.867188 C 31.628906 23.246094 31.476562 23.15625 30.824219 23.363281 C 29.949219 23.644531 29.089844 23.660156 28.214844 23.394531 C 28.03125 23.335938 27.832031 23.300781 27.648438 23.324219 C 27.496094 23.34375 27.277344 23.421875 27.222656 23.539062 C 26.875 24.261719 26.382812 24.949219 26.535156 25.980469 Z M 29.070312 21.550781 C 28.941406 20.8125 28.59375 20.542969 27.808594 20.535156 C 27.539062 20.53125 27.25 20.5625 26.976562 20.5625 C 26.753906 20.5625 26.519531 20.507812 26.296875 20.507812 C 26.320312 20.8125 26.316406 21.097656 26.371094 21.367188 C 26.480469 21.933594 26.6875 22.433594 27.375 22.492188 C 27.375 22.492188 28.796875 22.730469 28.960938 21.847656 C 29.035156 21.695312 29.035156 21.621094 29.070312 21.550781 Z M 29.957031 22.207031 C 30.234375 22.589844 30.867188 22.574219 31.511719 22.492188 C 31.851562 22.449219 32.203125 22.15625 32.355469 21.441406 C 32.355469 21.441406 32.402344 20.742188 32.46875 20.472656 C 32.171875 20.519531 31.941406 20.574219 31.707031 20.578125 C 31.46875 20.582031 31.230469 20.523438 30.992188 20.511719 C 30.191406 20.46875 29.765625 20.710938 29.613281 21.539062 C 29.679688 21.683594 29.84375 22.050781 29.957031 22.207031 Z M 24.53125 24.417969 C 24.261719 24.113281 24.386719 22.160156 24.367188 20.984375 C 24.351562 19.988281 25.125 19.570312 26.058594 20.09375 C 26.691406 18.324219 28.109375 17.902344 29.792969 17.9375 C 30.945312 17.964844 31.898438 18.617188 32.625 19.9375 C 32.699219 19.902344 32.773438 19.867188 32.84375 19.828125 C 33.59375 19.421875 34.246094 19.753906 34.3125 20.609375 C 34.347656 21.0625 34.285156 21.523438 34.277344 21.976562 C 34.269531 22.476562 34.242188 22.980469 34.277344 23.476562 C 34.320312 24.09375 34.207031 24.355469 33.640625 24.644531 C 33.617188 25.277344 33.199219 26.035156 32.875 26.339844 C 32.40625 26.78125 31.832031 26.800781 31.21875 26.933594 C 31.078125 26.96875 30.914062 27.097656 30.769531 27.136719 C 29.753906 27.40625 28.730469 27.445312 27.730469 27 C 27.519531 26.90625 27.265625 26.90625 27.03125 26.863281 C 26.207031 26.710938 25.144531 25.84375 25.085938 24.890625 C 25.070312 24.667969 24.757812 24.667969 24.53125 24.417969 "/>
<path style=" stroke:none;fill-rule:nonzero;fill:rgb(6.298828%,5.770874%,5.076599%);fill-opacity:1;" d="M 26.398438 20.605469 C 26.402344 20.667969 26.40625 20.726562 26.410156 20.789062 C 26.421875 20.984375 26.429688 21.171875 26.464844 21.351562 C 26.582031 21.941406 26.78125 22.34375 27.382812 22.394531 C 27.40625 22.398438 28.722656 22.609375 28.863281 21.828125 L 28.875 21.804688 C 28.917969 21.71875 28.933594 21.660156 28.949219 21.613281 C 28.957031 21.585938 28.964844 21.5625 28.972656 21.539062 C 28.847656 20.875 28.539062 20.636719 27.808594 20.632812 C 27.667969 20.632812 27.523438 20.636719 27.378906 20.644531 C 27.242188 20.652344 27.109375 20.65625 26.972656 20.65625 C 26.859375 20.65625 26.738281 20.644531 26.625 20.628906 C 26.546875 20.621094 26.472656 20.609375 26.398438 20.605469 Z M 27.789062 22.621094 C 27.558594 22.621094 27.378906 22.589844 27.359375 22.585938 C 26.597656 22.523438 26.382812 21.945312 26.277344 21.386719 C 26.238281 21.195312 26.226562 21.003906 26.21875 20.796875 C 26.210938 20.707031 26.207031 20.609375 26.199219 20.515625 L 26.191406 20.410156 L 26.296875 20.410156 C 26.414062 20.410156 26.53125 20.421875 26.648438 20.4375 C 26.761719 20.453125 26.871094 20.464844 26.972656 20.464844 C 26.976562 20.464844 26.976562 20.464844 26.976562 20.464844 C 27.105469 20.464844 27.234375 20.457031 27.367188 20.453125 C 27.515625 20.445312 27.664062 20.4375 27.808594 20.4375 C 28.648438 20.445312 29.027344 20.753906 29.164062 21.535156 L 29.171875 21.566406 L 29.15625 21.59375 C 29.148438 21.617188 29.140625 21.640625 29.132812 21.667969 C 29.117188 21.714844 29.097656 21.785156 29.050781 21.878906 C 28.925781 22.507812 28.25 22.621094 27.789062 22.621094 Z M 29.714844 21.527344 L 29.734375 21.574219 C 29.808594 21.730469 29.945312 22.023438 30.035156 22.148438 C 30.289062 22.5 30.917969 22.46875 31.5 22.398438 C 31.859375 22.351562 32.136719 21.996094 32.261719 21.421875 C 32.261719 21.410156 32.296875 20.90625 32.347656 20.589844 C 32.304688 20.597656 32.261719 20.605469 32.21875 20.613281 C 32.035156 20.644531 31.875 20.671875 31.710938 20.675781 C 31.566406 20.675781 31.421875 20.660156 31.285156 20.640625 C 31.183594 20.625 31.085938 20.613281 30.984375 20.609375 C 30.191406 20.566406 29.855469 20.808594 29.714844 21.527344 Z M 30.890625 22.636719 C 30.46875 22.636719 30.089844 22.550781 29.878906 22.261719 C 29.777344 22.121094 29.640625 21.828125 29.558594 21.652344 L 29.511719 21.550781 L 29.519531 21.523438 C 29.671875 20.691406 30.101562 20.371094 30.996094 20.414062 C 31.101562 20.421875 31.207031 20.433594 31.308594 20.449219 C 31.449219 20.46875 31.578125 20.484375 31.707031 20.480469 C 31.855469 20.480469 32.011719 20.453125 32.183594 20.421875 C 32.269531 20.40625 32.359375 20.394531 32.457031 20.378906 L 32.597656 20.359375 L 32.5625 20.496094 C 32.5 20.753906 32.453125 21.441406 32.453125 21.449219 C 32.246094 22.398438 31.734375 22.5625 31.523438 22.589844 C 31.3125 22.613281 31.097656 22.636719 30.890625 22.636719 Z M 26.621094 25.886719 C 27.289062 25.90625 31.519531 25.824219 32.191406 25.800781 C 32.25 25.222656 31.851562 24.125 31.769531 23.902344 C 31.550781 23.316406 31.449219 23.265625 30.851562 23.457031 C 29.945312 23.75 29.070312 23.757812 28.183594 23.484375 C 27.988281 23.425781 27.804688 23.402344 27.65625 23.421875 C 27.507812 23.4375 27.34375 23.515625 27.308594 23.582031 C 27.253906 23.699219 27.191406 23.816406 27.128906 23.9375 C 26.832031 24.507812 26.527344 25.097656 26.621094 25.886719 Z M 26.992188 26.085938 C 26.746094 26.085938 26.578125 26.082031 26.527344 26.074219 L 26.453125 26.066406 L 26.441406 25.992188 C 26.308594 25.101562 26.640625 24.464844 26.957031 23.847656 C 27.019531 23.730469 27.078125 23.613281 27.136719 23.496094 C 27.214844 23.335938 27.476562 23.246094 27.636719 23.226562 C 27.8125 23.207031 28.019531 23.230469 28.242188 23.300781 C 29.089844 23.5625 29.925781 23.550781 30.792969 23.273438 C 31.480469 23.054688 31.699219 23.15625 31.949219 23.832031 C 32.078125 24.171875 32.480469 25.328125 32.371094 25.914062 L 32.355469 25.988281 L 32.28125 25.992188 C 32.027344 26.007812 28.335938 26.085938 26.992188 26.085938 Z M 25.292969 19.964844 C 25.136719 19.964844 24.992188 20 24.871094 20.074219 C 24.601562 20.234375 24.457031 20.558594 24.464844 20.984375 C 24.46875 21.296875 24.464844 21.65625 24.460938 22.039062 C 24.445312 22.984375 24.429688 24.15625 24.605469 24.351562 C 24.691406 24.453125 24.796875 24.507812 24.894531 24.558594 C 25.027344 24.632812 25.167969 24.707031 25.179688 24.886719 C 25.234375 25.761719 26.230469 26.617188 27.050781 26.769531 C 27.121094 26.78125 27.195312 26.789062 27.269531 26.800781 C 27.4375 26.820312 27.613281 26.84375 27.769531 26.914062 C 28.648438 27.300781 29.621094 27.34375 30.746094 27.042969 C 30.804688 27.027344 30.871094 26.988281 30.941406 26.953125 C 31.027344 26.90625 31.113281 26.859375 31.199219 26.839844 C 31.324219 26.8125 31.445312 26.789062 31.566406 26.769531 C 32.042969 26.679688 32.453125 26.605469 32.808594 26.269531 C 33.09375 26.003906 33.519531 25.269531 33.542969 24.640625 L 33.542969 24.585938 L 33.59375 24.558594 C 34.105469 24.296875 34.222656 24.089844 34.179688 23.484375 C 34.15625 23.09375 34.164062 22.695312 34.175781 22.308594 C 34.175781 22.199219 34.179688 22.085938 34.179688 21.976562 C 34.183594 21.8125 34.195312 21.648438 34.203125 21.480469 C 34.21875 21.195312 34.238281 20.902344 34.21875 20.617188 C 34.1875 20.242188 34.039062 19.964844 33.796875 19.835938 C 33.550781 19.699219 33.226562 19.726562 32.890625 19.910156 C 32.839844 19.9375 32.789062 19.964844 32.738281 19.988281 L 32.585938 20.066406 L 32.542969 19.984375 C 31.839844 18.714844 30.914062 18.058594 29.789062 18.035156 C 27.804688 17.988281 26.683594 18.636719 26.152344 20.125 L 26.113281 20.234375 L 26.011719 20.175781 C 25.761719 20.035156 25.511719 19.964844 25.292969 19.964844 Z M 29.351562 27.433594 C 28.761719 27.433594 28.210938 27.320312 27.691406 27.089844 C 27.558594 27.03125 27.40625 27.011719 27.246094 26.992188 C 27.167969 26.980469 27.089844 26.972656 27.015625 26.957031 C 26.109375 26.789062 25.050781 25.875 24.988281 24.898438 C 24.984375 24.832031 24.933594 24.796875 24.800781 24.726562 C 24.699219 24.671875 24.570312 24.605469 24.460938 24.480469 C 24.253906 24.246094 24.25 23.363281 24.265625 22.035156 C 24.273438 21.65625 24.277344 21.296875 24.273438 20.988281 C 24.261719 20.488281 24.441406 20.105469 24.773438 19.90625 C 25.101562 19.710938 25.550781 19.726562 26.007812 19.957031 C 26.585938 18.449219 27.761719 17.796875 29.792969 17.839844 C 30.96875 17.867188 31.933594 18.53125 32.664062 19.808594 C 32.710938 19.789062 32.753906 19.765625 32.796875 19.742188 C 33.195312 19.527344 33.582031 19.5 33.890625 19.664062 C 34.191406 19.828125 34.375 20.160156 34.410156 20.601562 C 34.429688 20.898438 34.414062 21.203125 34.398438 21.492188 C 34.386719 21.65625 34.378906 21.816406 34.375 21.980469 C 34.371094 22.089844 34.371094 22.203125 34.367188 22.3125 C 34.359375 22.695312 34.347656 23.089844 34.375 23.46875 C 34.417969 24.132812 34.273438 24.417969 33.730469 24.707031 C 33.6875 25.378906 33.25 26.121094 32.941406 26.410156 C 32.542969 26.785156 32.085938 26.867188 31.601562 26.957031 C 31.480469 26.980469 31.363281 27.003906 31.242188 27.03125 C 31.179688 27.042969 31.105469 27.082031 31.03125 27.121094 C 30.957031 27.164062 30.875 27.207031 30.796875 27.226562 C 30.285156 27.363281 29.804688 27.433594 29.351562 27.433594 "/>
<path style=" stroke:none;fill-rule:nonzero;fill:rgb(12.301636%,11.206055%,28.019714%);fill-opacity:1;" d="M 29.316406 14.65625 C 28.878906 15.046875 28.710938 15.554688 28.566406 16.058594 C 28.472656 16.390625 28.648438 16.679688 28.917969 16.871094 C 29.171875 17.050781 29.476562 17.058594 29.730469 16.867188 C 29.996094 16.671875 30.15625 16.390625 30.050781 16.046875 C 29.898438 15.546875 29.738281 15.042969 29.316406 14.65625 Z M 29.316406 14.28125 C 29.816406 14.777344 30.054688 15.375 30.230469 15.996094 C 30.34375 16.410156 30.261719 16.804688 29.867188 17.078125 C 29.539062 17.304688 29.203125 17.328125 28.855469 17.144531 C 28.4375 16.921875 28.296875 16.554688 28.363281 16.117188 C 28.46875 15.414062 28.832031 14.832031 29.316406 14.28125 "/>
<path style=" stroke:none;fill-rule:nonzero;fill:rgb(13.729858%,12.159729%,12.548828%);fill-opacity:1;" d="M 27.84375 25.167969 C 28.925781 25.167969 29.96875 25.167969 31.054688 25.167969 C 30.925781 24.882812 30.835938 24.679688 30.71875 24.417969 C 30.59375 24.628906 30.503906 24.785156 30.421875 24.929688 C 29.734375 24.929688 29.089844 24.929688 28.457031 24.929688 C 28.34375 24.808594 28.222656 24.550781 28.101562 24.417969 C 27.988281 24.660156 27.929688 24.980469 27.84375 25.167969 Z M 27.84375 23.832031 L 31.011719 23.832031 C 31.011719 23.832031 31.558594 24.828125 31.507812 25.34375 C 30.859375 25.359375 30.152344 25.335938 29.472656 25.351562 C 28.789062 25.367188 28.105469 25.355469 27.378906 25.355469 C 27.410156 24.738281 27.84375 23.832031 27.84375 23.832031 "/>
<path style=" stroke:none;fill-rule:nonzero;fill:rgb(13.729858%,12.159729%,12.548828%);fill-opacity:1;" d="M 28.386719 21.320312 L 28.355469 21.304688 L 28.375 21.332031 Z M 28.386719 21.320312 "/>
<path style=" stroke:none;fill-rule:nonzero;fill:rgb(93.321228%,15.892029%,13.285828%);fill-opacity:1;" d="M 29.414062 15.191406 C 29.539062 15.441406 29.714844 15.679688 29.769531 15.949219 C 29.804688 16.117188 29.71875 16.40625 29.585938 16.488281 C 29.453125 16.578125 29.140625 16.554688 29.015625 16.449219 C 28.894531 16.347656 28.847656 16.0625 28.890625 15.886719 C 28.945312 15.644531 29.113281 15.425781 29.234375 15.195312 C 29.292969 15.195312 29.355469 15.191406 29.414062 15.191406 "/>
<path style=" stroke:none;fill-rule:nonzero;fill:rgb(12.301636%,11.206055%,28.019714%);fill-opacity:1;" d="M 32.335938 15.867188 C 31.90625 15.984375 31.617188 16.273438 31.347656 16.566406 C 31.167969 16.757812 31.191406 17.015625 31.308594 17.238281 C 31.417969 17.449219 31.621094 17.558594 31.859375 17.515625 C 32.109375 17.472656 32.3125 17.335938 32.359375 17.066406 C 32.425781 16.675781 32.492188 16.277344 32.335938 15.867188 Z M 32.46875 15.613281 C 32.636719 16.121094 32.59375 16.613281 32.5 17.09375 C 32.4375 17.414062 32.242188 17.652344 31.882812 17.703125 C 31.582031 17.746094 31.34375 17.648438 31.171875 17.402344 C 30.964844 17.109375 30.992188 16.808594 31.1875 16.535156 C 31.503906 16.09375 31.949219 15.820312 32.46875 15.613281 "/>
<path style=" stroke:none;fill-rule:nonzero;fill:rgb(93.321228%,15.892029%,13.285828%);fill-opacity:1;" d="M 32.222656 16.265625 C 32.21875 16.476562 32.257812 16.703125 32.203125 16.902344 C 32.167969 17.03125 32.011719 17.195312 31.894531 17.207031 C 31.769531 17.222656 31.566406 17.097656 31.519531 16.984375 C 31.46875 16.875 31.535156 16.664062 31.625 16.558594 C 31.746094 16.414062 31.9375 16.320312 32.097656 16.207031 C 32.140625 16.226562 32.179688 16.246094 32.222656 16.265625 "/>
<path style=" stroke:none;fill-rule:nonzero;fill:rgb(12.301636%,11.206055%,28.019714%);fill-opacity:1;" d="M 34.367188 17.324219 C 34.011719 17.371094 33.753906 17.574219 33.507812 17.78125 C 33.347656 17.917969 33.339844 18.128906 33.410156 18.316406 C 33.480469 18.496094 33.632812 18.601562 33.828125 18.59375 C 34.03125 18.582031 34.207031 18.492188 34.269531 18.285156 C 34.359375 17.976562 34.453125 17.664062 34.367188 17.324219 Z M 34.496094 17.132812 C 34.582031 17.554688 34.5 17.945312 34.378906 18.320312 C 34.296875 18.570312 34.117188 18.738281 33.824219 18.746094 C 33.578125 18.75 33.402344 18.648438 33.285156 18.433594 C 33.148438 18.179688 33.203125 17.941406 33.386719 17.742188 C 33.679688 17.421875 34.0625 17.246094 34.496094 17.132812 "/>
<path style=" stroke:none;fill-rule:nonzero;fill:rgb(93.321228%,15.892029%,13.285828%);fill-opacity:1;" d="M 34.238281 17.628906 C 34.214844 17.800781 34.222656 17.980469 34.160156 18.136719 C 34.121094 18.234375 33.976562 18.351562 33.882812 18.351562 C 33.78125 18.347656 33.632812 18.230469 33.601562 18.136719 C 33.578125 18.042969 33.652344 17.882812 33.730469 17.804688 C 33.84375 17.699219 34.003906 17.648438 34.144531 17.570312 C 34.175781 17.589844 34.207031 17.609375 34.238281 17.628906 "/>
<path style=" stroke:none;fill-rule:nonzero;fill:rgb(12.301636%,11.206055%,28.019714%);fill-opacity:1;" d="M 25.871094 17.066406 C 25.914062 17.335938 26.121094 17.472656 26.367188 17.515625 C 26.609375 17.558594 26.808594 17.449219 26.921875 17.238281 C 27.039062 17.015625 27.058594 16.757812 26.882812 16.566406 C 26.609375 16.273438 26.324219 15.984375 25.894531 15.867188 C 25.734375 16.277344 25.800781 16.675781 25.871094 17.066406 Z M 27.042969 16.535156 C 27.238281 16.808594 27.265625 17.109375 27.058594 17.402344 C 26.882812 17.648438 26.648438 17.746094 26.347656 17.703125 C 25.984375 17.652344 25.792969 17.414062 25.730469 17.09375 C 25.632812 16.613281 25.59375 16.121094 25.761719 15.613281 C 26.28125 15.820312 26.726562 16.09375 27.042969 16.535156 "/>
<path style=" stroke:none;fill-rule:nonzero;fill:rgb(93.321228%,15.892029%,13.285828%);fill-opacity:1;" d="M 26.007812 16.265625 C 26.007812 16.476562 25.972656 16.703125 26.027344 16.902344 C 26.058594 17.03125 26.21875 17.195312 26.335938 17.207031 C 26.457031 17.222656 26.664062 17.097656 26.710938 16.984375 C 26.757812 16.875 26.691406 16.664062 26.605469 16.558594 C 26.480469 16.414062 26.292969 16.320312 26.132812 16.207031 C 26.089844 16.226562 26.046875 16.246094 26.007812 16.265625 "/>
<path style=" stroke:none;fill-rule:nonzero;fill:rgb(12.301636%,11.206055%,28.019714%);fill-opacity:1;" d="M 24.136719 18.597656 C 24.21875 18.867188 24.445312 18.980469 24.707031 18.992188 C 24.957031 19.007812 25.152344 18.867188 25.238281 18.640625 C 25.332031 18.394531 25.324219 18.128906 25.113281 17.953125 C 24.800781 17.683594 24.46875 17.425781 24.011719 17.359375 C 23.902344 17.800781 24.019531 18.203125 24.136719 18.597656 Z M 25.277344 17.902344 C 25.511719 18.15625 25.578125 18.464844 25.402344 18.789062 C 25.253906 19.066406 25.023438 19.199219 24.707031 19.191406 C 24.332031 19.183594 24.101562 18.960938 23.996094 18.640625 C 23.839844 18.15625 23.734375 17.660156 23.84375 17.117188 C 24.402344 17.261719 24.894531 17.484375 25.277344 17.902344 "/>
<path style=" stroke:none;fill-rule:nonzero;fill:rgb(93.321228%,15.892029%,13.285828%);fill-opacity:1;" d="M 24.179688 17.753906 C 24.207031 17.972656 24.199219 18.207031 24.277344 18.40625 C 24.328125 18.535156 24.511719 18.683594 24.636719 18.683594 C 24.761719 18.679688 24.957031 18.527344 24.992188 18.40625 C 25.027344 18.285156 24.933594 18.078125 24.828125 17.980469 C 24.683594 17.84375 24.476562 17.777344 24.296875 17.679688 C 24.257812 17.703125 24.21875 17.730469 24.179688 17.753906 "/>
<path style=" stroke:none;fill-rule:nonzero;fill:rgb(6.266785%,5.734253%,5.047607%);fill-opacity:1;" d="M 30.992188 21.207031 C 30.730469 21.207031 30.523438 21.417969 30.523438 21.675781 C 30.523438 21.9375 30.730469 22.148438 30.992188 22.148438 C 31.25 22.148438 31.460938 21.9375 31.460938 21.675781 C 31.460938 21.417969 31.25 21.207031 30.992188 21.207031 Z M 30.992188 22.339844 C 30.625 22.339844 30.328125 22.042969 30.328125 21.675781 C 30.328125 21.3125 30.625 21.015625 30.992188 21.015625 C 31.355469 21.015625 31.65625 21.3125 31.65625 21.675781 C 31.65625 22.042969 31.355469 22.339844 30.992188 22.339844 "/>
<path style=" stroke:none;fill-rule:nonzero;fill:rgb(6.298828%,5.770874%,5.076599%);fill-opacity:1;" d="M 31.125 21.675781 C 31.125 21.75 31.066406 21.8125 30.992188 21.8125 C 30.917969 21.8125 30.859375 21.75 30.859375 21.675781 C 30.859375 21.601562 30.917969 21.542969 30.992188 21.542969 C 31.066406 21.542969 31.125 21.601562 31.125 21.675781 "/>
<path style=" stroke:none;fill-rule:nonzero;fill:rgb(100%,100%,100%);fill-opacity:1;" d="M 29.738281 19.53125 C 29.738281 20.253906 29.5625 20.839844 29.34375 20.839844 C 29.128906 20.839844 28.953125 20.253906 28.953125 19.53125 C 28.953125 18.808594 29.128906 18.222656 29.34375 18.222656 C 29.5625 18.222656 29.738281 18.808594 29.738281 19.53125 "/>
<path style=" stroke:none;fill-rule:nonzero;fill:rgb(6.298828%,5.770874%,5.076599%);fill-opacity:1;" d="M 29.34375 18.320312 C 29.242188 18.320312 29.050781 18.78125 29.050781 19.53125 C 29.050781 20.28125 29.242188 20.742188 29.34375 20.742188 C 29.449219 20.742188 29.640625 20.28125 29.640625 19.53125 C 29.640625 18.78125 29.449219 18.320312 29.34375 18.320312 Z M 29.34375 20.9375 C 29.011719 20.9375 28.855469 20.207031 28.855469 19.53125 C 28.855469 18.855469 29.011719 18.125 29.34375 18.125 C 29.679688 18.125 29.835938 18.855469 29.835938 19.53125 C 29.835938 20.207031 29.679688 20.9375 29.34375 20.9375 "/>
<path style=" stroke:none;fill-rule:nonzero;fill:rgb(6.266785%,5.734253%,5.047607%);fill-opacity:1;" d="M 29.339844 19.246094 C 29.183594 19.246094 29.054688 19.375 29.054688 19.53125 C 29.054688 19.6875 29.183594 19.816406 29.339844 19.816406 C 29.496094 19.816406 29.625 19.6875 29.625 19.53125 C 29.625 19.375 29.496094 19.246094 29.339844 19.246094 Z M 29.339844 20.007812 C 29.078125 20.007812 28.863281 19.792969 28.863281 19.53125 C 28.863281 19.269531 29.078125 19.054688 29.339844 19.054688 C 29.605469 19.054688 29.820312 19.269531 29.820312 19.53125 C 29.820312 19.792969 29.605469 20.007812 29.339844 20.007812 "/>
<path style=" stroke:none;fill-rule:nonzero;fill:rgb(6.298828%,5.770874%,5.076599%);fill-opacity:1;" d="M 29.429688 19.53125 C 29.429688 19.582031 29.390625 19.621094 29.339844 19.621094 C 29.292969 19.621094 29.25 19.582031 29.25 19.53125 C 29.25 19.480469 29.292969 19.441406 29.339844 19.441406 C 29.390625 19.441406 29.429688 19.480469 29.429688 19.53125 "/>
<path style=" stroke:none;fill-rule:nonzero;fill:rgb(6.266785%,5.734253%,5.047607%);fill-opacity:1;" d="M 27.757812 21.207031 C 27.496094 21.207031 27.285156 21.417969 27.285156 21.675781 C 27.285156 21.9375 27.496094 22.148438 27.757812 22.148438 C 28.015625 22.148438 28.226562 21.9375 28.226562 21.675781 C 28.226562 21.417969 28.015625 21.207031 27.757812 21.207031 Z M 27.757812 22.339844 C 27.390625 22.339844 27.09375 22.042969 27.09375 21.675781 C 27.09375 21.3125 27.390625 21.015625 27.757812 21.015625 C 28.121094 21.015625 28.417969 21.3125 28.417969 21.675781 C 28.417969 22.042969 28.121094 22.339844 27.757812 22.339844 "/>
<path style=" stroke:none;fill-rule:nonzero;fill:rgb(6.298828%,5.770874%,5.076599%);fill-opacity:1;" d="M 27.890625 21.675781 C 27.890625 21.75 27.828125 21.8125 27.757812 21.8125 C 27.683594 21.8125 27.621094 21.75 27.621094 21.675781 C 27.621094 21.601562 27.683594 21.542969 27.757812 21.542969 C 27.828125 21.542969 27.890625 21.601562 27.890625 21.675781 "/>
<path style=" stroke:none;fill-rule:nonzero;fill:rgb(6.298828%,5.770874%,5.076599%);fill-opacity:1;" d="M 29.085938 23.285156 C 29.085938 23.359375 29.027344 23.417969 28.953125 23.417969 C 28.878906 23.417969 28.820312 23.359375 28.820312 23.285156 C 28.820312 23.210938 28.878906 23.152344 28.953125 23.152344 C 29.027344 23.152344 29.085938 23.210938 29.085938 23.285156 "/>
<path style=" stroke:none;fill-rule:nonzero;fill:rgb(6.298828%,5.770874%,5.076599%);fill-opacity:1;" d="M 30.003906 23.285156 C 30.003906 23.359375 29.945312 23.417969 29.871094 23.417969 C 29.796875 23.417969 29.738281 23.359375 29.738281 23.285156 C 29.738281 23.210938 29.796875 23.152344 29.871094 23.152344 C 29.945312 23.152344 30.003906 23.210938 30.003906 23.285156 "/>
<path style=" stroke:none;fill-rule:nonzero;fill:rgb(6.298828%,5.770874%,5.076599%);fill-opacity:1;" d="M 29.628906 21.636719 C 29.621094 21.636719 29.617188 21.636719 29.609375 21.636719 L 29.613281 21.445312 C 29.820312 21.445312 29.949219 21.363281 30.101562 21.261719 C 30.273438 21.152344 30.46875 21.023438 30.78125 21.015625 C 31.027344 21.007812 31.234375 21.023438 31.417969 21.039062 C 31.648438 21.058594 31.832031 21.074219 31.957031 21.023438 C 32.113281 20.957031 32.300781 20.628906 32.382812 20.4375 L 32.558594 20.511719 C 32.535156 20.570312 32.308594 21.085938 32.027344 21.199219 C 31.859375 21.269531 31.65625 21.25 31.402344 21.230469 C 31.222656 21.214844 31.023438 21.199219 30.789062 21.207031 C 30.527344 21.214844 30.371094 21.316406 30.207031 21.425781 C 30.046875 21.527344 29.882812 21.636719 29.628906 21.636719 "/>
<path style=" stroke:none;fill-rule:nonzero;fill:rgb(6.298828%,5.770874%,5.076599%);fill-opacity:1;" d="M 29.054688 21.648438 C 28.800781 21.648438 28.660156 21.535156 28.527344 21.425781 C 28.390625 21.316406 28.265625 21.214844 28.007812 21.207031 C 27.773438 21.199219 27.574219 21.214844 27.394531 21.230469 C 27.140625 21.25 26.9375 21.269531 26.769531 21.199219 C 26.484375 21.085938 26.261719 20.570312 26.238281 20.511719 L 26.417969 20.4375 C 26.496094 20.628906 26.683594 20.957031 26.839844 21.023438 C 26.964844 21.074219 27.148438 21.058594 27.378906 21.039062 C 27.5625 21.023438 27.769531 21.007812 28.015625 21.015625 C 28.335938 21.023438 28.503906 21.15625 28.648438 21.277344 C 28.773438 21.378906 28.871094 21.457031 29.070312 21.457031 L 29.074219 21.648438 C 29.066406 21.648438 29.058594 21.648438 29.054688 21.648438 "/>
<path style=" stroke:none;fill-rule:nonzero;fill:rgb(6.298828%,5.770874%,5.076599%);fill-opacity:1;" d="M 24.992188 24.917969 C 24.847656 24.433594 25.292969 22.652344 25.765625 20.867188 C 25.855469 20.511719 25.929688 20.226562 25.964844 20.074219 L 26.15625 20.113281 C 26.117188 20.273438 26.042969 20.554688 25.949219 20.917969 C 25.632812 22.132812 25.039062 24.390625 25.175781 24.863281 L 24.992188 24.917969 "/>
<path style=" stroke:none;fill-rule:nonzero;fill:rgb(6.298828%,5.770874%,5.076599%);fill-opacity:1;" d="M 31.085938 27.042969 C 30.472656 27.042969 29.65625 26.425781 29.308594 26.113281 C 29.050781 26.300781 28.125 26.949219 27.386719 27.007812 L 27.371094 26.816406 C 28.003906 26.765625 28.878906 26.203125 29.253906 25.910156 L 29.320312 25.859375 L 29.378906 25.917969 C 29.84375 26.359375 30.714844 26.933594 31.203125 26.839844 L 31.238281 27.03125 C 31.191406 27.039062 31.140625 27.042969 31.085938 27.042969 "/>
<path style=" stroke:none;fill-rule:nonzero;fill:rgb(6.298828%,5.770874%,5.076599%);fill-opacity:1;" d="M 33.542969 24.660156 C 33.390625 23.601562 32.660156 20.195312 32.542969 19.984375 L 32.710938 19.890625 C 32.84375 20.125 33.585938 23.617188 33.734375 24.632812 L 33.542969 24.660156 "/>
<path style=" stroke:none;fill-rule:nonzero;fill:rgb(6.298828%,5.770874%,5.076599%);fill-opacity:1;" d="M 33.367188 21.199219 C 33.367188 21.199219 33.359375 21.136719 33.347656 21.023438 C 33.339844 20.910156 33.316406 20.753906 33.320312 20.554688 C 33.324219 20.460938 33.320312 20.335938 33.421875 20.222656 C 33.476562 20.167969 33.554688 20.140625 33.625 20.136719 L 33.636719 20.136719 L 33.660156 20.140625 L 33.664062 20.140625 L 33.683594 20.144531 C 33.699219 20.144531 33.734375 20.160156 33.757812 20.175781 C 33.796875 20.207031 33.820312 20.238281 33.835938 20.269531 C 33.90625 20.398438 33.933594 20.523438 33.957031 20.652344 C 33.976562 20.78125 33.988281 20.910156 34 21.039062 C 34.03125 21.558594 34 22.074219 33.960938 22.457031 C 33.941406 22.648438 33.914062 22.808594 33.902344 22.917969 C 33.882812 23.03125 33.871094 23.09375 33.871094 23.09375 C 33.871094 23.09375 33.867188 23.027344 33.863281 22.917969 C 33.859375 22.804688 33.855469 22.644531 33.851562 22.453125 C 33.839844 22.070312 33.839844 21.558594 33.808594 21.050781 C 33.800781 20.925781 33.789062 20.800781 33.773438 20.679688 C 33.753906 20.5625 33.734375 20.441406 33.691406 20.355469 C 33.679688 20.332031 33.664062 20.316406 33.660156 20.308594 C 33.65625 20.3125 33.671875 20.304688 33.652344 20.300781 L 33.632812 20.296875 L 33.628906 20.292969 L 33.621094 20.292969 C 33.617188 20.292969 33.652344 20.296875 33.636719 20.296875 L 33.628906 20.296875 C 33.582031 20.292969 33.546875 20.304688 33.519531 20.324219 C 33.464844 20.371094 33.441406 20.476562 33.425781 20.566406 C 33.402344 20.75 33.394531 20.914062 33.386719 21.023438 C 33.378906 21.136719 33.367188 21.199219 33.367188 21.199219 "/>
<path style=" stroke:none;fill-rule:nonzero;fill:rgb(6.298828%,5.770874%,5.076599%);fill-opacity:1;" d="M 25.277344 21.394531 C 25.277344 21.394531 25.269531 21.328125 25.257812 21.21875 C 25.25 21.105469 25.242188 20.941406 25.21875 20.757812 C 25.203125 20.667969 25.179688 20.5625 25.125 20.519531 C 25.097656 20.496094 25.0625 20.484375 25.015625 20.488281 L 25.007812 20.488281 C 24.992188 20.488281 25.027344 20.488281 25.023438 20.488281 L 25.011719 20.488281 L 24.992188 20.496094 C 24.972656 20.5 24.988281 20.503906 24.984375 20.503906 C 24.980469 20.507812 24.964844 20.527344 24.957031 20.546875 C 24.910156 20.632812 24.890625 20.757812 24.871094 20.875 C 24.855469 20.996094 24.84375 21.121094 24.835938 21.246094 C 24.804688 21.75 24.804688 22.261719 24.792969 22.644531 C 24.789062 22.835938 24.785156 22.996094 24.78125 23.109375 C 24.777344 23.222656 24.773438 23.285156 24.773438 23.285156 C 24.773438 23.285156 24.761719 23.222656 24.742188 23.113281 C 24.726562 23 24.703125 22.839844 24.683594 22.648438 C 24.644531 22.265625 24.613281 21.753906 24.644531 21.234375 C 24.652344 21.101562 24.667969 20.972656 24.6875 20.84375 C 24.710938 20.714844 24.738281 20.589844 24.808594 20.464844 C 24.828125 20.429688 24.847656 20.402344 24.886719 20.371094 C 24.910156 20.355469 24.949219 20.335938 24.957031 20.335938 L 24.980469 20.332031 L 24.984375 20.332031 L 25.007812 20.328125 L 25.019531 20.332031 C 25.089844 20.332031 25.167969 20.359375 25.222656 20.414062 C 25.324219 20.53125 25.320312 20.652344 25.328125 20.75 C 25.332031 20.949219 25.304688 21.105469 25.296875 21.21875 C 25.285156 21.328125 25.277344 21.394531 25.277344 21.394531 "/>
<path style=" stroke:none;fill-rule:nonzero;fill:rgb(100%,100%,100%);fill-opacity:1;" d="M 28.15625 23.9375 C 28.152344 23.960938 28.09375 24.179688 28.09375 24.179688 L 28.367188 24.058594 L 30.425781 24.058594 L 30.652344 24.210938 L 30.609375 23.9375 L 28.15625 23.9375 "/>
<path style=" stroke:none;fill-rule:nonzero;fill:rgb(93.321228%,15.892029%,13.285828%);fill-opacity:1;" d="M 28.582031 24.890625 C 28.582031 24.640625 28.746094 24.261719 29.449219 24.261719 C 30.175781 24.261719 30.242188 24.890625 30.242188 24.890625 L 28.582031 24.890625 "/>
<path style=" stroke:none;fill-rule:nonzero;fill:rgb(10.221863%,12.145996%,26.679993%);fill-opacity:1;" d="M 42.9375 42.878906 L 5.320312 43.132812 L 6.832031 35.972656 L 46.808594 35.972656 L 42.9375 42.878906 "/>
<path style=" stroke:none;fill-rule:nonzero;fill:rgb(62.835693%,10.702515%,12.840271%);fill-opacity:1;" d="M 46.808594 35.972656 L 6.832031 35.972656 L 8.308594 29.070312 L 50.679688 29.070312 L 46.808594 35.972656 "/>
</g>
</svg>
