<?xml version="1.0" encoding="UTF-8"?>
<svg xmlns="http://www.w3.org/2000/svg" xmlns:xlink="http://www.w3.org/1999/xlink" width="56pt" height="56pt" viewBox="0 0 56 56" version="1.1">
<g id="surface1">
<rect x="0" y="0" width="56" height="56" style="fill:rgb(14.764404%,30.833435%,63.62915%);fill-opacity:1;stroke:none;"/>
<path style=" stroke:none;fill-rule:evenodd;fill:rgb(100%,100%,100%);fill-opacity:1;" d="M 34.53125 43.882812 L 37.035156 43.882812 L 50.378906 12.167969 L 47.847656 12.167969 L 34.53125 43.882812 "/>
<path style=" stroke:none;fill-rule:evenodd;fill:rgb(100%,100%,100%);fill-opacity:1;" d="M 6.441406 43.859375 L 32.007812 43.859375 L 32.257812 43.835938 L 32.476562 43.78125 L 32.703125 43.660156 L 32.925781 43.535156 L 33.148438 43.386719 L 33.324219 43.191406 L 33.46875 42.992188 L 33.542969 42.769531 L 45.917969 13.207031 L 45.992188 12.984375 L 46.019531 12.8125 L 45.992188 12.613281 L 45.945312 12.441406 L 45.820312 12.316406 L 45.671875 12.214844 L 45.496094 12.140625 L 45.273438 12.117188 L 35.257812 12.117188 L 35.03125 12.167969 L 34.835938 12.242188 L 34.636719 12.339844 L 34.4375 12.488281 L 34.066406 12.835938 L 33.695312 13.207031 L 5.796875 42.769531 L 5.671875 42.964844 L 5.621094 43.140625 L 5.648438 43.3125 L 5.722656 43.484375 L 5.84375 43.636719 L 6.019531 43.757812 L 6.21875 43.835938 L 6.441406 43.859375 "/>
<path style=" stroke:none;fill-rule:evenodd;fill:rgb(14.764404%,30.833435%,63.62915%);fill-opacity:1;" d="M 29.378906 33.664062 L 32.601562 36.320312 L 26.601562 33.34375 C 26.054688 33.195312 25.511719 33.167969 25.015625 33.144531 C 24.417969 33.121094 23.898438 33.21875 23.28125 33.320312 C 24.445312 35.578125 26.800781 37.140625 29.550781 37.140625 C 31.933594 37.140625 34.066406 35.898438 35.332031 34.015625 Z M 28.933594 32.601562 L 35.378906 33.789062 C 36.027344 32.699219 36.371094 31.507812 36.371094 30.167969 C 36.371094 28.136719 35.480469 26.277344 34.066406 24.988281 Z M 26.578125 32.277344 C 25.980469 32.203125 25.636719 32.101562 25.140625 32.15625 C 24.570312 32.203125 23.800781 32.699219 23.304688 33.246094 C 22.882812 32.351562 22.660156 31.335938 22.660156 30.269531 C 22.660156 26.449219 25.78125 23.300781 29.652344 23.300781 C 31.3125 23.300781 32.851562 23.898438 34.066406 24.886719 Z M 29.601562 22.707031 C 33.742188 22.707031 37.117188 26.101562 37.117188 30.246094 C 37.117188 34.410156 33.742188 37.808594 29.601562 37.808594 C 25.4375 37.808594 22.015625 34.410156 22.015625 30.246094 C 22.015625 26.101562 25.4375 22.707031 29.601562 22.707031 "/>
</g>
</svg>
