<?xml version="1.0" encoding="UTF-8"?>
<svg xmlns="http://www.w3.org/2000/svg" xmlns:xlink="http://www.w3.org/1999/xlink" width="56pt" height="56pt" viewBox="0 0 56 56" version="1.1">
<g id="surface1">
<rect x="0" y="0" width="56" height="56" style="fill:rgb(11.155701%,11.036682%,11.209106%);fill-opacity:1;stroke:none;"/>
<path style=" stroke:none;fill-rule:nonzero;fill:rgb(8.068848%,7.467651%,6.82373%);fill-opacity:1;" d="M 35.570312 24.699219 C 35.546875 24.691406 35.527344 24.679688 35.503906 24.671875 C 35.5 24.738281 35.496094 24.804688 35.492188 24.871094 C 35.503906 24.871094 35.519531 24.871094 35.53125 24.875 C 35.542969 24.816406 35.554688 24.757812 35.570312 24.699219 Z M 35.433594 25.039062 C 35.34375 25.203125 35.242188 25.363281 35.292969 25.566406 C 35.386719 25.402344 35.46875 25.234375 35.433594 25.039062 Z M 33.09375 33.652344 C 33.191406 33.546875 33.277344 33.457031 33.363281 33.363281 C 33.539062 33.179688 33.664062 32.96875 33.730469 32.71875 C 33.878906 32.160156 33.535156 31.371094 32.746094 31.332031 C 32.363281 31.308594 31.996094 31.371094 31.640625 31.503906 C 30.84375 31.796875 30.046875 32.097656 29.25 32.398438 C 29.175781 32.421875 29.109375 32.464844 29.039062 32.503906 C 29.183594 33.402344 29.316406 34.285156 29.46875 35.167969 C 29.621094 36.042969 29.738281 36.925781 29.925781 37.808594 C 30.773438 37.488281 31.585938 37.195312 32.386719 36.878906 C 32.753906 36.730469 33.117188 36.566406 33.457031 36.355469 C 33.898438 36.082031 34.265625 35.726562 34.414062 35.199219 C 34.59375 34.566406 34.238281 33.902344 33.601562 33.722656 C 33.441406 33.675781 33.269531 33.671875 33.09375 33.652344 Z M 27.261719 42.496094 C 27.425781 42.632812 27.535156 42.726562 27.648438 42.816406 C 28.632812 43.558594 29.675781 44.214844 30.730469 44.855469 C 31.292969 45.195312 31.90625 45.351562 32.539062 45.410156 C 33.140625 45.464844 33.742188 45.414062 34.34375 45.300781 C 35.609375 45.0625 36.757812 44.574219 37.765625 43.773438 C 38.242188 43.394531 38.664062 42.964844 38.847656 42.351562 C 39.238281 41.035156 39.546875 39.695312 39.808594 38.347656 C 39.851562 38.128906 39.867188 37.90625 39.90625 37.621094 C 36.339844 40.964844 32.109375 42.421875 27.261719 42.496094 Z M 37.996094 29.109375 C 37.464844 29.949219 36.941406 30.734375 36.320312 31.457031 C 35.695312 32.183594 34.988281 32.820312 34.226562 33.402344 C 34.28125 33.457031 34.300781 33.484375 34.332031 33.503906 C 35.101562 34.101562 35.191406 35.394531 34.449219 36.195312 C 34.042969 36.632812 33.574219 36.964844 33.023438 37.179688 C 32.007812 37.578125 30.984375 37.957031 29.964844 38.34375 C 29.824219 38.398438 29.675781 38.449219 29.507812 38.507812 C 29.332031 37.464844 29.164062 36.460938 28.992188 35.449219 C 27.933594 35.582031 26.902344 35.574219 25.875 35.511719 C 24.859375 35.453125 23.859375 35.265625 22.847656 35.042969 C 23.230469 36.882812 23.722656 38.285156 24.25 39.042969 C 24.421875 39.066406 24.613281 39.09375 24.804688 39.109375 C 25.507812 39.171875 26.210938 39.253906 26.914062 39.285156 C 27.394531 39.308594 27.871094 39.261719 28.351562 39.25 C 29.257812 39.226562 30.148438 39.089844 31.023438 38.875 C 33.476562 38.28125 35.617188 37.089844 37.460938 35.367188 C 38.28125 34.601562 39.011719 33.753906 39.707031 32.820312 C 39.386719 31.5 38.792969 30.285156 37.996094 29.109375 Z M 23.035156 38.003906 C 21.886719 38.566406 20.726562 39 19.523438 39.320312 C 19.378906 39.359375 19.226562 39.453125 19.121094 39.5625 C 18.550781 40.148438 18.070312 40.792969 17.78125 41.570312 C 17.332031 42.777344 17.359375 43.960938 18.019531 45.089844 C 18.609375 46.09375 19.511719 46.640625 20.675781 46.714844 C 21.289062 46.753906 21.878906 46.601562 22.433594 46.347656 C 23.707031 45.761719 24.863281 44.992188 25.925781 44.078125 C 26.261719 43.789062 26.578125 43.484375 26.921875 43.171875 C 26.0625 42.453125 25.308594 41.6875 24.660156 40.828125 C 24.007812 39.964844 23.464844 39.035156 23.035156 38.003906 Z M 40.609375 37.613281 C 40.707031 37.625 40.773438 37.640625 40.839844 37.640625 C 41.179688 37.628906 41.523438 37.613281 41.867188 37.605469 C 43.070312 37.566406 44.246094 37.351562 45.40625 37.03125 C 45.875 36.898438 46.339844 36.734375 46.769531 36.488281 C 48.085938 35.730469 48.785156 34.277344 48.347656 32.722656 C 48.042969 31.644531 47.363281 30.859375 46.402344 30.304688 C 45.667969 29.878906 44.859375 29.710938 44.023438 29.628906 C 43.679688 29.59375 43.367188 29.648438 43.078125 29.839844 C 42.917969 29.945312 42.738281 30.023438 42.566406 30.109375 C 41.691406 30.554688 40.785156 30.917969 39.84375 31.226562 C 40.652344 33.289062 40.84375 35.421875 40.609375 37.613281 Z M 22.210938 31.992188 C 22.167969 31.960938 22.144531 31.933594 22.117188 31.917969 C 20.410156 30.867188 18.613281 30.011719 16.675781 29.476562 C 15.132812 29.050781 13.574219 28.828125 11.96875 28.988281 C 10.996094 29.085938 10.054688 29.296875 9.15625 29.675781 C 8.515625 29.945312 7.933594 30.300781 7.460938 30.816406 C 6.949219 31.378906 6.667969 32.03125 6.644531 32.792969 C 6.621094 33.570312 6.832031 34.28125 7.191406 34.957031 C 7.726562 35.957031 8.488281 36.753906 9.402344 37.40625 C 10.757812 38.367188 12.265625 38.902344 13.929688 38.972656 C 15.042969 39.027344 16.148438 38.914062 17.246094 38.738281 C 18.554688 38.535156 19.832031 38.199219 21.070312 37.726562 C 21.621094 37.515625 22.164062 37.289062 22.679688 37.003906 C 22.167969 35.351562 22.027344 33.683594 22.210938 31.992188 Z M 39.394531 30.253906 C 39.484375 30.234375 39.554688 30.226562 39.613281 30.203125 C 40.167969 29.992188 40.730469 29.796875 41.273438 29.566406 C 42.929688 28.847656 44.429688 27.875 45.828125 26.734375 C 46.535156 26.15625 47.214844 25.539062 47.746094 24.785156 C 48.941406 23.082031 49.53125 21.210938 49.320312 19.117188 C 49.234375 18.265625 49.003906 17.460938 48.53125 16.742188 C 48.039062 15.996094 47.382812 15.480469 46.484375 15.308594 C 45.816406 15.179688 45.167969 15.25 44.523438 15.441406 C 43.101562 15.871094 41.902344 16.660156 40.832031 17.667969 C 39.867188 18.574219 39.089844 19.632812 38.425781 20.773438 C 37.566406 22.25 36.941406 23.824219 36.460938 25.457031 C 36.375 25.738281 36.308594 26.023438 36.234375 26.308594 C 37.546875 27.421875 38.613281 28.703125 39.394531 30.253906 Z M 26.558594 31.128906 C 31.34375 31.113281 35.167969 27.320312 35.269531 22.601562 C 35.320312 20.109375 34.425781 17.964844 32.644531 16.207031 C 30.957031 14.539062 28.886719 13.703125 26.539062 13.707031 C 24.164062 13.707031 22.082031 14.570312 20.390625 16.265625 C 18.699219 17.964844 17.816406 20.035156 17.828125 22.414062 C 17.851562 27.332031 21.777344 31.117188 26.558594 31.128906 Z M 35.65625 24.421875 C 36.105469 23.132812 36.605469 21.867188 37.265625 20.667969 C 37.984375 19.359375 38.839844 18.144531 39.902344 17.097656 C 41.105469 15.910156 42.476562 14.980469 44.097656 14.460938 C 45.164062 14.117188 46.242188 14.042969 47.316406 14.4375 C 48.328125 14.808594 49.058594 15.507812 49.585938 16.429688 C 50.003906 17.160156 50.242188 17.949219 50.351562 18.78125 C 50.59375 20.621094 50.25 22.363281 49.449219 24.023438 C 48.835938 25.289062 47.953125 26.347656 46.875 27.242188 C 46.328125 27.691406 45.753906 28.113281 45.195312 28.546875 C 45.144531 28.589844 45.097656 28.636719 45.035156 28.699219 C 46 28.890625 46.867188 29.242188 47.621094 29.84375 C 48.695312 30.699219 49.371094 31.804688 49.503906 33.179688 C 49.660156 34.847656 49.023438 36.183594 47.65625 37.171875 C 46.988281 37.65625 46.21875 37.90625 45.4375 38.117188 C 44.457031 38.382812 43.460938 38.570312 42.441406 38.621094 C 41.792969 38.652344 41.140625 38.683594 40.476562 38.714844 C 40.351562 39.253906 40.238281 39.820312 40.09375 40.378906 C 39.742188 41.707031 39.367188 43.03125 38.800781 44.285156 C 38.234375 45.554688 37.25 46.34375 35.894531 46.65625 C 35.210938 46.8125 34.523438 46.824219 33.820312 46.742188 C 32.980469 46.648438 32.203125 46.394531 31.453125 46.023438 C 30.171875 45.390625 28.929688 44.695312 27.761719 43.839844 C 27.460938 44.117188 27.160156 44.394531 26.855469 44.667969 C 25.734375 45.691406 24.484375 46.527344 23.125 47.195312 C 22.347656 47.578125 21.527344 47.796875 20.652344 47.761719 C 19.445312 47.714844 18.433594 47.238281 17.636719 46.351562 C 16.675781 45.28125 16.320312 43.996094 16.453125 42.582031 C 16.539062 41.632812 16.898438 40.773438 17.40625 39.976562 C 17.445312 39.917969 17.484375 39.863281 17.546875 39.773438 C 17.253906 39.808594 16.992188 39.835938 16.734375 39.871094 C 15.773438 40.003906 14.800781 40.109375 13.832031 40.039062 C 11.226562 39.855469 9.003906 38.839844 7.246094 36.886719 C 6.46875 36.015625 5.90625 35.019531 5.671875 33.859375 C 5.398438 32.488281 5.679688 31.257812 6.597656 30.191406 C 7.292969 29.375 8.199219 28.882812 9.183594 28.523438 C 10.578125 28.011719 12.019531 27.847656 13.492188 27.898438 C 14.695312 27.9375 15.871094 28.152344 17.027344 28.476562 C 18.800781 28.976562 20.472656 29.71875 22.0625 30.648438 C 22.144531 30.695312 22.21875 30.742188 22.304688 30.777344 C 22.328125 30.785156 22.375 30.742188 22.445312 30.707031 C 19.316406 28.964844 17.492188 26.371094 17.347656 22.796875 C 17.203125 19.230469 18.792969 16.5 21.753906 14.515625 C 21.335938 14.027344 20.921875 13.539062 20.511719 13.058594 C 20.027344 13.191406 19.703125 13.09375 19.503906 12.769531 C 19.332031 12.484375 19.359375 12.117188 19.601562 11.882812 C 19.859375 11.632812 20.113281 11.582031 20.445312 11.714844 C 20.800781 11.859375 20.921875 12.195312 20.832031 12.746094 C 21.367188 13.082031 21.90625 13.421875 22.441406 13.757812 C 22.464844 13.742188 22.476562 13.738281 22.484375 13.730469 C 22.492188 13.726562 22.507812 13.71875 22.507812 13.710938 C 22.523438 13.667969 22.542969 13.625 22.546875 13.582031 C 22.667969 12.265625 22.785156 10.949219 22.90625 9.644531 C 22.53125 9.242188 22.453125 8.914062 22.65625 8.59375 C 22.832031 8.316406 23.175781 8.175781 23.492188 8.257812 C 23.785156 8.332031 24.039062 8.660156 24.039062 8.96875 C 24.039062 9.332031 23.804688 9.585938 23.300781 9.746094 C 23.320312 11.054688 23.4375 12.367188 23.457031 13.710938 C 23.792969 13.621094 24.097656 13.539062 24.40625 13.464844 C 25.410156 13.21875 26.425781 13.144531 27.460938 13.253906 C 29.039062 13.414062 30.480469 13.933594 31.78125 14.828125 C 33.660156 16.125 34.878906 17.894531 35.484375 20.09375 C 35.777344 21.152344 35.8125 22.234375 35.738281 23.320312 C 35.71875 23.671875 35.636719 24.015625 35.582031 24.363281 C 35.570312 24.441406 35.558594 24.515625 35.546875 24.59375 C 35.566406 24.597656 35.585938 24.597656 35.605469 24.601562 C 35.621094 24.542969 35.640625 24.480469 35.65625 24.421875 "/>
<path style=" stroke:none;fill-rule:nonzero;fill:rgb(95.381165%,80.360413%,5.92804%);fill-opacity:1;" d="M 24.25 26.058594 C 23.867188 26.046875 23.769531 26.101562 23.691406 26.328125 C 23.625 26.511719 23.660156 26.609375 23.871094 26.773438 C 23.804688 26.457031 23.875 26.214844 24.25 26.058594 Z M 31.546875 23.703125 C 31.570312 23.390625 31.484375 23.25 31.253906 23.179688 C 31.050781 23.117188 30.894531 23.183594 30.761719 23.402344 C 31.09375 23.300781 31.359375 23.371094 31.546875 23.703125 Z M 24.101562 26.324219 C 23.960938 26.492188 24.039062 26.625 24.117188 26.753906 C 24.296875 27.046875 24.519531 27.308594 24.789062 27.527344 C 25.53125 28.117188 26.367188 28.402344 27.324219 28.390625 C 28.46875 28.378906 29.441406 27.964844 30.25 27.175781 C 30.949219 26.496094 31.320312 25.652344 31.40625 24.6875 C 31.433594 24.34375 31.390625 24.003906 31.292969 23.671875 C 31.238281 23.480469 31.089844 23.4375 30.929688 23.554688 C 30.890625 23.582031 30.863281 23.617188 30.828125 23.648438 C 29.59375 24.78125 28.160156 25.539062 26.546875 25.980469 C 25.75 26.195312 24.933594 26.269531 24.101562 26.324219 Z M 20.835938 22.882812 C 21.253906 23.433594 21.808594 23.773438 22.457031 23.988281 C 22.660156 24.058594 22.84375 24.078125 23.046875 23.996094 C 23.222656 23.921875 23.414062 23.894531 23.597656 23.84375 C 24.007812 23.734375 24.417969 23.625 24.828125 23.511719 C 24.914062 23.503906 25.003906 23.492188 25.113281 23.480469 C 25.132812 23.285156 25.171875 23.105469 25.160156 22.925781 C 25.132812 22.589844 25.09375 22.25 25.03125 21.917969 C 24.808594 20.75 24.203125 19.816406 23.265625 19.089844 C 22.398438 18.421875 21.207031 18.578125 20.503906 19.417969 C 20.042969 19.96875 19.898438 20.59375 20.066406 21.300781 C 20.191406 21.839844 20.375 22.34375 20.753906 22.757812 C 20.78125 22.796875 20.808594 22.839844 20.835938 22.882812 Z M 27.789062 21.5 C 27.8125 21.523438 27.835938 21.546875 27.859375 21.570312 C 27.921875 21.867188 28.203125 21.960938 28.410156 22.167969 C 28.507812 22.074219 28.589844 21.992188 28.671875 21.914062 C 28.753906 21.886719 28.839844 21.867188 28.914062 21.824219 C 29.269531 21.628906 29.617188 21.421875 29.972656 21.230469 C 30.539062 20.929688 30.539062 20.933594 30.792969 20.367188 C 30.796875 20.359375 30.792969 20.347656 30.796875 20.335938 C 30.890625 19.988281 31.03125 19.644531 31.070312 19.292969 C 31.183594 18.175781 30.816406 17.230469 29.957031 16.5 C 29.589844 16.191406 29.15625 16.003906 28.675781 16.015625 C 27.863281 16.035156 27.265625 16.429688 26.902344 17.148438 C 26.511719 17.914062 26.546875 18.726562 26.722656 19.539062 C 26.757812 19.691406 26.757812 19.855469 26.898438 19.964844 L 26.894531 19.953125 C 26.914062 20.1875 27.023438 20.390625 27.15625 20.578125 C 27.230469 20.835938 27.375 21.054688 27.585938 21.226562 C 27.570312 21.328125 27.597656 21.390625 27.71875 21.367188 L 27.71875 21.363281 C 27.683594 21.441406 27.695312 21.496094 27.792969 21.5 Z M 26.558594 31.128906 C 21.777344 31.117188 17.851562 27.332031 17.828125 22.414062 C 17.816406 20.035156 18.699219 17.964844 20.390625 16.265625 C 22.082031 14.570312 24.164062 13.707031 26.539062 13.707031 C 28.886719 13.703125 30.957031 14.539062 32.644531 16.207031 C 34.425781 17.964844 35.320312 20.109375 35.269531 22.601562 C 35.167969 27.320312 31.34375 31.113281 26.558594 31.128906 "/>
<path style=" stroke:none;fill-rule:nonzero;fill:rgb(100%,100%,100%);fill-opacity:1;" d="M 39.394531 30.253906 C 38.613281 28.703125 37.546875 27.421875 36.234375 26.308594 C 36.308594 26.023438 36.375 25.738281 36.460938 25.457031 C 36.941406 23.824219 37.566406 22.25 38.425781 20.773438 C 39.089844 19.632812 39.867188 18.574219 40.832031 17.667969 C 41.902344 16.660156 43.101562 15.871094 44.523438 15.441406 C 45.167969 15.25 45.816406 15.179688 46.484375 15.308594 C 47.382812 15.480469 48.039062 15.996094 48.53125 16.742188 C 49.003906 17.460938 49.234375 18.265625 49.320312 19.117188 C 49.53125 21.210938 48.941406 23.082031 47.746094 24.785156 C 47.214844 25.539062 46.535156 26.15625 45.828125 26.734375 C 44.429688 27.875 42.929688 28.847656 41.273438 29.566406 C 40.730469 29.796875 40.167969 29.992188 39.613281 30.203125 C 39.554688 30.226562 39.484375 30.234375 39.394531 30.253906 "/>
<path style=" stroke:none;fill-rule:nonzero;fill:rgb(100%,100%,100%);fill-opacity:1;" d="M 22.210938 31.992188 C 22.027344 33.683594 22.167969 35.351562 22.679688 37.003906 C 22.164062 37.289062 21.621094 37.515625 21.070312 37.726562 C 19.832031 38.199219 18.554688 38.535156 17.246094 38.738281 C 16.148438 38.914062 15.042969 39.027344 13.929688 38.972656 C 12.265625 38.902344 10.757812 38.367188 9.402344 37.40625 C 8.488281 36.753906 7.726562 35.957031 7.191406 34.957031 C 6.832031 34.28125 6.621094 33.570312 6.644531 32.792969 C 6.667969 32.03125 6.949219 31.378906 7.460938 30.816406 C 7.933594 30.300781 8.515625 29.945312 9.15625 29.675781 C 10.054688 29.296875 10.996094 29.085938 11.96875 28.988281 C 13.574219 28.828125 15.132812 29.050781 16.675781 29.476562 C 18.613281 30.011719 20.410156 30.867188 22.117188 31.917969 C 22.144531 31.933594 22.167969 31.960938 22.210938 31.992188 "/>
<path style=" stroke:none;fill-rule:nonzero;fill:rgb(99.497986%,99.819946%,99.606323%);fill-opacity:1;" d="M 40.609375 37.613281 C 40.84375 35.421875 40.652344 33.289062 39.84375 31.226562 C 40.785156 30.917969 41.691406 30.554688 42.566406 30.109375 C 42.738281 30.023438 42.917969 29.945312 43.078125 29.839844 C 43.367188 29.648438 43.679688 29.59375 44.023438 29.628906 C 44.859375 29.710938 45.667969 29.878906 46.402344 30.304688 C 47.363281 30.859375 48.042969 31.644531 48.347656 32.722656 C 48.785156 34.277344 48.085938 35.730469 46.769531 36.488281 C 46.339844 36.734375 45.875 36.898438 45.40625 37.03125 C 44.246094 37.351562 43.070312 37.566406 41.867188 37.605469 C 41.523438 37.613281 41.179688 37.628906 40.839844 37.640625 C 40.773438 37.640625 40.707031 37.625 40.609375 37.613281 "/>
<path style=" stroke:none;fill-rule:nonzero;fill:rgb(99.497986%,99.819946%,99.606323%);fill-opacity:1;" d="M 23.035156 38.003906 C 23.464844 39.035156 24.007812 39.964844 24.660156 40.828125 C 25.308594 41.6875 26.0625 42.453125 26.921875 43.171875 C 26.578125 43.484375 26.261719 43.789062 25.925781 44.078125 C 24.863281 44.992188 23.707031 45.761719 22.433594 46.347656 C 21.878906 46.601562 21.289062 46.753906 20.675781 46.714844 C 19.511719 46.640625 18.609375 46.09375 18.019531 45.089844 C 17.359375 43.960938 17.332031 42.777344 17.78125 41.570312 C 18.070312 40.792969 18.550781 40.148438 19.121094 39.5625 C 19.226562 39.453125 19.378906 39.359375 19.523438 39.320312 C 20.726562 39 21.886719 38.566406 23.035156 38.003906 "/>
<path style=" stroke:none;fill-rule:nonzero;fill:rgb(95.092773%,80.018616%,6.213379%);fill-opacity:1;" d="M 37.996094 29.109375 C 38.792969 30.285156 39.386719 31.5 39.707031 32.820312 C 39.011719 33.753906 38.28125 34.601562 37.460938 35.367188 C 35.617188 37.089844 33.476562 38.28125 31.023438 38.875 C 30.148438 39.089844 29.257812 39.226562 28.351562 39.25 C 27.871094 39.261719 27.394531 39.308594 26.914062 39.285156 C 26.210938 39.253906 25.507812 39.171875 24.804688 39.109375 C 24.613281 39.09375 24.421875 39.066406 24.25 39.042969 C 23.722656 38.285156 23.230469 36.882812 22.847656 35.042969 C 23.859375 35.265625 24.859375 35.453125 25.875 35.511719 C 26.902344 35.574219 27.933594 35.582031 28.992188 35.449219 C 29.164062 36.460938 29.332031 37.464844 29.507812 38.507812 C 29.675781 38.449219 29.824219 38.398438 29.964844 38.34375 C 30.984375 37.957031 32.007812 37.578125 33.023438 37.179688 C 33.574219 36.964844 34.042969 36.632812 34.449219 36.195312 C 35.191406 35.394531 35.101562 34.101562 34.332031 33.503906 C 34.300781 33.484375 34.28125 33.457031 34.226562 33.402344 C 34.988281 32.820312 35.695312 32.183594 36.320312 31.457031 C 36.941406 30.734375 37.464844 29.949219 37.996094 29.109375 "/>
<path style=" stroke:none;fill-rule:nonzero;fill:rgb(95.393372%,80.348206%,6.098938%);fill-opacity:1;" d="M 27.261719 42.496094 C 32.109375 42.421875 36.339844 40.964844 39.90625 37.621094 C 39.867188 37.90625 39.851562 38.128906 39.808594 38.347656 C 39.546875 39.695312 39.238281 41.035156 38.847656 42.351562 C 38.664062 42.964844 38.242188 43.394531 37.765625 43.773438 C 36.757812 44.574219 35.609375 45.0625 34.34375 45.300781 C 33.742188 45.414062 33.140625 45.464844 32.539062 45.410156 C 31.90625 45.351562 31.292969 45.195312 30.730469 44.855469 C 29.675781 44.214844 28.632812 43.558594 27.648438 42.816406 C 27.535156 42.726562 27.425781 42.632812 27.261719 42.496094 "/>
<path style=" stroke:none;fill-rule:nonzero;fill:rgb(95.092773%,80.018616%,6.213379%);fill-opacity:1;" d="M 31.082031 33.9375 C 31.308594 33.847656 31.507812 33.789062 31.6875 33.699219 C 31.808594 33.640625 31.917969 33.550781 32.011719 33.453125 C 32.113281 33.34375 32.109375 33.203125 32.03125 33.074219 C 31.960938 32.957031 31.839844 32.902344 31.707031 32.929688 C 31.441406 32.984375 31.179688 33.0625 30.9375 33.214844 C 30.984375 33.453125 31.03125 33.671875 31.082031 33.9375 Z M 31.390625 35.847656 C 31.714844 35.703125 32 35.578125 32.28125 35.445312 C 32.34375 35.417969 32.394531 35.359375 32.429688 35.304688 C 32.515625 35.179688 32.578125 35.046875 32.476562 34.898438 C 32.390625 34.765625 32.238281 34.6875 32.066406 34.734375 C 31.796875 34.808594 31.535156 34.90625 31.261719 34.996094 C 31.304688 35.28125 31.339844 35.527344 31.390625 35.847656 Z M 33.09375 33.652344 C 33.269531 33.671875 33.441406 33.675781 33.601562 33.722656 C 34.238281 33.902344 34.59375 34.566406 34.414062 35.199219 C 34.265625 35.726562 33.898438 36.082031 33.457031 36.355469 C 33.117188 36.566406 32.753906 36.730469 32.386719 36.878906 C 31.585938 37.195312 30.773438 37.488281 29.925781 37.808594 C 29.738281 36.925781 29.621094 36.042969 29.46875 35.167969 C 29.316406 34.285156 29.183594 33.402344 29.039062 32.503906 C 29.109375 32.464844 29.175781 32.421875 29.25 32.398438 C 30.046875 32.097656 30.84375 31.796875 31.640625 31.503906 C 31.996094 31.371094 32.363281 31.308594 32.746094 31.332031 C 33.535156 31.371094 33.878906 32.160156 33.730469 32.71875 C 33.664062 32.96875 33.539062 33.179688 33.363281 33.363281 C 33.277344 33.457031 33.191406 33.546875 33.09375 33.652344 "/>
<path style=" stroke:none;fill-rule:nonzero;fill:rgb(98.731995%,99.009705%,99.099731%);fill-opacity:1;" d="M 27.78125 19.398438 C 27.78125 19.835938 27.957031 20.195312 28.292969 20.464844 C 28.800781 20.875 29.535156 20.65625 29.703125 20.050781 C 29.859375 19.476562 29.625 18.933594 29.210938 18.632812 C 29.011719 18.492188 28.789062 18.410156 28.542969 18.457031 C 28.066406 18.542969 27.789062 18.898438 27.78125 19.398438 Z M 26.894531 19.953125 L 26.898438 19.964844 C 26.910156 19.910156 26.949219 19.847656 26.933594 19.808594 C 26.808594 19.460938 26.820312 19.101562 26.816406 18.746094 C 26.8125 18.363281 26.890625 17.996094 27.03125 17.648438 C 27.242188 17.132812 27.582031 16.730469 28.132812 16.558594 C 28.972656 16.292969 29.914062 16.652344 30.390625 17.300781 C 30.859375 17.945312 31.039062 18.667969 30.898438 19.460938 C 30.847656 19.730469 30.789062 19.996094 30.734375 20.261719 C 30.695312 20.339844 30.640625 20.410156 30.609375 20.496094 C 30.515625 20.765625 30.335938 20.9375 30.070312 21.066406 C 29.640625 21.269531 29.230469 21.519531 28.816406 21.757812 C 28.757812 21.792969 28.71875 21.863281 28.671875 21.914062 C 28.570312 21.941406 28.46875 21.964844 28.3125 22.007812 C 28.246094 21.925781 28.175781 21.824219 28.089844 21.734375 C 28.023438 21.667969 27.9375 21.625 27.859375 21.570312 C 27.835938 21.546875 27.8125 21.523438 27.789062 21.5 L 27.792969 21.5 C 27.765625 21.457031 27.742188 21.410156 27.71875 21.363281 L 27.71875 21.367188 C 27.71875 21.28125 27.695312 21.210938 27.585938 21.226562 C 27.519531 20.917969 27.296875 20.6875 27.160156 20.414062 C 27.117188 20.289062 27.078125 20.160156 27.023438 20.039062 C 27.003906 20 26.9375 19.980469 26.894531 19.953125 "/>
<path style=" stroke:none;fill-rule:nonzero;fill:rgb(10.119629%,9.449768%,8.682251%);fill-opacity:1;" d="M 24.625 26.71875 C 24.617188 26.742188 24.613281 26.765625 24.605469 26.789062 C 24.734375 26.90625 24.859375 27.019531 24.988281 27.132812 C 25.066406 27.199219 25.144531 27.265625 25.226562 27.328125 C 26.558594 28.308594 28.460938 28.164062 29.730469 27.078125 C 30.441406 26.46875 30.890625 25.714844 30.96875 24.757812 C 30.984375 24.546875 31.015625 24.34375 30.921875 24.144531 C 29.097656 25.691406 27 26.535156 24.625 26.71875 Z M 24.101562 26.324219 C 24.933594 26.269531 25.75 26.195312 26.546875 25.980469 C 28.160156 25.539062 29.59375 24.78125 30.828125 23.648438 C 30.863281 23.617188 30.890625 23.582031 30.929688 23.554688 C 31.089844 23.4375 31.238281 23.480469 31.292969 23.671875 C 31.390625 24.003906 31.433594 24.34375 31.40625 24.6875 C 31.320312 25.652344 30.949219 26.496094 30.25 27.175781 C 29.441406 27.964844 28.46875 28.378906 27.324219 28.390625 C 26.367188 28.402344 25.53125 28.117188 24.789062 27.527344 C 24.519531 27.308594 24.296875 27.046875 24.117188 26.753906 C 24.039062 26.625 23.960938 26.492188 24.101562 26.324219 "/>
<path style=" stroke:none;fill-rule:nonzero;fill:rgb(12.736511%,11.485291%,9.785461%);fill-opacity:1;" d="M 20.753906 22.757812 C 20.375 22.34375 20.191406 21.839844 20.066406 21.300781 C 19.898438 20.59375 20.042969 19.96875 20.503906 19.417969 C 21.207031 18.578125 22.398438 18.421875 23.265625 19.089844 C 24.203125 19.816406 24.808594 20.75 25.03125 21.917969 C 25.09375 22.25 25.132812 22.589844 25.160156 22.925781 C 25.171875 23.105469 25.132812 23.285156 25.113281 23.480469 C 25.003906 23.492188 24.914062 23.503906 24.828125 23.511719 C 24.828125 23.488281 24.828125 23.464844 24.828125 23.441406 C 24.890625 23.429688 24.953125 23.417969 25.015625 23.40625 C 25.09375 22.550781 24.972656 21.746094 24.609375 20.996094 C 24.210938 20.183594 23.628906 19.554688 22.757812 19.226562 C 22.292969 19.054688 21.84375 19.0625 21.398438 19.277344 C 20.550781 19.6875 20.136719 20.765625 20.320312 21.582031 C 20.410156 21.988281 20.605469 22.34375 20.816406 22.691406 C 20.792969 22.714844 20.773438 22.734375 20.753906 22.757812 "/>
<path style=" stroke:none;fill-rule:nonzero;fill:rgb(12.185669%,10.98938%,10.037231%);fill-opacity:1;" d="M 30.734375 20.261719 C 30.789062 19.996094 30.847656 19.730469 30.898438 19.460938 C 31.039062 18.667969 30.859375 17.945312 30.390625 17.300781 C 29.914062 16.652344 28.972656 16.292969 28.132812 16.558594 C 27.582031 16.730469 27.242188 17.132812 27.03125 17.648438 C 26.890625 17.996094 26.8125 18.363281 26.816406 18.746094 C 26.820312 19.101562 26.808594 19.460938 26.933594 19.808594 C 26.949219 19.847656 26.910156 19.910156 26.898438 19.964844 C 26.757812 19.855469 26.757812 19.691406 26.722656 19.539062 C 26.546875 18.726562 26.511719 17.914062 26.902344 17.148438 C 27.265625 16.429688 27.863281 16.035156 28.675781 16.015625 C 29.15625 16.003906 29.589844 16.191406 29.957031 16.5 C 30.816406 17.230469 31.183594 18.175781 31.070312 19.292969 C 31.03125 19.644531 30.890625 19.988281 30.796875 20.335938 C 30.777344 20.308594 30.757812 20.285156 30.734375 20.261719 "/>
<path style=" stroke:none;fill-rule:nonzero;fill:rgb(22.413635%,20.53833%,18.460083%);fill-opacity:1;" d="M 24.828125 23.441406 C 24.828125 23.464844 24.828125 23.488281 24.828125 23.511719 C 24.417969 23.625 24.007812 23.734375 23.597656 23.84375 C 23.414062 23.894531 23.222656 23.921875 23.046875 23.996094 C 22.84375 24.078125 22.660156 24.058594 22.457031 23.988281 C 21.808594 23.773438 21.253906 23.433594 20.835938 22.882812 C 20.859375 22.855469 20.882812 22.828125 20.90625 22.804688 C 21.421875 23.351562 22.015625 23.777344 22.710938 23.957031 C 23.441406 23.777344 24.132812 23.609375 24.828125 23.441406 "/>
<path style=" stroke:none;fill-rule:nonzero;fill:rgb(22.413635%,20.53833%,18.460083%);fill-opacity:1;" d="M 30.734375 20.261719 C 30.757812 20.285156 30.777344 20.308594 30.796875 20.335938 C 30.792969 20.347656 30.796875 20.359375 30.792969 20.367188 C 30.539062 20.933594 30.539062 20.929688 29.972656 21.230469 C 29.617188 21.421875 29.269531 21.628906 28.914062 21.824219 C 28.839844 21.867188 28.753906 21.886719 28.671875 21.914062 C 28.71875 21.863281 28.757812 21.792969 28.816406 21.757812 C 29.230469 21.519531 29.640625 21.269531 30.070312 21.066406 C 30.335938 20.9375 30.515625 20.765625 30.609375 20.496094 C 30.640625 20.410156 30.695312 20.339844 30.734375 20.261719 "/>
<path style=" stroke:none;fill-rule:nonzero;fill:rgb(22.413635%,20.53833%,18.460083%);fill-opacity:1;" d="M 31.546875 23.703125 C 31.359375 23.371094 31.09375 23.300781 30.761719 23.402344 C 30.894531 23.183594 31.050781 23.117188 31.253906 23.179688 C 31.484375 23.25 31.570312 23.390625 31.546875 23.703125 "/>
<path style=" stroke:none;fill-rule:nonzero;fill:rgb(22.413635%,20.53833%,18.460083%);fill-opacity:1;" d="M 24.25 26.058594 C 23.875 26.214844 23.804688 26.457031 23.871094 26.773438 C 23.660156 26.609375 23.625 26.511719 23.691406 26.328125 C 23.769531 26.101562 23.867188 26.046875 24.25 26.058594 "/>
<path style=" stroke:none;fill-rule:nonzero;fill:rgb(22.413635%,20.53833%,18.460083%);fill-opacity:1;" d="M 27.859375 21.570312 C 27.9375 21.625 28.023438 21.667969 28.089844 21.734375 C 28.175781 21.824219 28.246094 21.925781 28.3125 22.007812 C 28.46875 21.964844 28.570312 21.941406 28.671875 21.914062 C 28.589844 21.992188 28.507812 22.074219 28.410156 22.167969 C 28.203125 21.960938 27.921875 21.867188 27.859375 21.570312 "/>
<path style=" stroke:none;fill-rule:nonzero;fill:rgb(22.413635%,20.53833%,18.460083%);fill-opacity:1;" d="M 27.160156 20.414062 C 27.296875 20.6875 27.519531 20.917969 27.585938 21.226562 C 27.375 21.054688 27.230469 20.835938 27.15625 20.578125 C 27.160156 20.523438 27.160156 20.46875 27.160156 20.414062 "/>
<path style=" stroke:none;fill-rule:nonzero;fill:rgb(12.185669%,10.98938%,10.037231%);fill-opacity:1;" d="M 27.160156 20.414062 C 27.160156 20.46875 27.160156 20.523438 27.15625 20.578125 C 27.023438 20.390625 26.914062 20.1875 26.894531 19.953125 C 26.9375 19.980469 27.003906 20 27.023438 20.039062 C 27.078125 20.160156 27.117188 20.289062 27.160156 20.414062 "/>
<path style=" stroke:none;fill-rule:nonzero;fill:rgb(22.413635%,20.53833%,18.460083%);fill-opacity:1;" d="M 27.585938 21.226562 C 27.695312 21.210938 27.71875 21.28125 27.71875 21.367188 C 27.597656 21.390625 27.570312 21.328125 27.585938 21.226562 "/>
<path style=" stroke:none;fill-rule:nonzero;fill:rgb(12.736511%,11.485291%,9.785461%);fill-opacity:1;" d="M 20.90625 22.804688 C 20.882812 22.828125 20.859375 22.855469 20.835938 22.882812 C 20.808594 22.839844 20.78125 22.796875 20.753906 22.757812 C 20.773438 22.734375 20.792969 22.714844 20.816406 22.691406 C 20.847656 22.730469 20.878906 22.765625 20.90625 22.804688 "/>
<path style=" stroke:none;fill-rule:nonzero;fill:rgb(22.413635%,20.53833%,18.460083%);fill-opacity:1;" d="M 27.71875 21.363281 C 27.742188 21.410156 27.765625 21.457031 27.792969 21.5 C 27.695312 21.496094 27.683594 21.441406 27.71875 21.363281 "/>
<path style=" stroke:none;fill-rule:nonzero;fill:rgb(22.413635%,20.53833%,18.460083%);fill-opacity:1;" d="M 27.789062 21.5 C 27.8125 21.523438 27.835938 21.546875 27.859375 21.570312 C 27.835938 21.546875 27.8125 21.523438 27.789062 21.5 "/>
<path style=" stroke:none;fill-rule:nonzero;fill:rgb(9.811401%,8.935547%,8.036804%);fill-opacity:1;" d="M 31.390625 35.847656 C 31.339844 35.527344 31.304688 35.28125 31.261719 34.996094 C 31.535156 34.90625 31.796875 34.808594 32.066406 34.734375 C 32.238281 34.6875 32.390625 34.765625 32.476562 34.898438 C 32.578125 35.046875 32.515625 35.179688 32.429688 35.304688 C 32.394531 35.359375 32.34375 35.417969 32.28125 35.445312 C 32 35.578125 31.714844 35.703125 31.390625 35.847656 "/>
<path style=" stroke:none;fill-rule:nonzero;fill:rgb(10.119629%,9.449768%,8.682251%);fill-opacity:1;" d="M 31.082031 33.9375 C 31.03125 33.671875 30.984375 33.453125 30.9375 33.214844 C 31.179688 33.0625 31.441406 32.984375 31.707031 32.929688 C 31.839844 32.902344 31.960938 32.957031 32.03125 33.074219 C 32.109375 33.203125 32.113281 33.34375 32.011719 33.453125 C 31.917969 33.550781 31.808594 33.640625 31.6875 33.699219 C 31.507812 33.789062 31.308594 33.847656 31.082031 33.9375 "/>
<path style=" stroke:none;fill-rule:nonzero;fill:rgb(9.837341%,9.249878%,9.236145%);fill-opacity:1;" d="M 28.613281 19.15625 C 28.570312 19.097656 28.535156 19.011719 28.476562 18.984375 C 28.398438 18.953125 28.296875 18.953125 28.210938 18.972656 C 28.070312 19.003906 28.027344 19.132812 28.003906 19.253906 C 27.984375 19.378906 28.09375 19.539062 28.210938 19.578125 C 28.375 19.632812 28.503906 19.574219 28.617188 19.394531 C 28.652344 19.414062 28.691406 19.4375 28.726562 19.460938 C 28.882812 19.554688 28.882812 19.554688 29.007812 19.347656 C 28.957031 19.253906 28.902344 19.1875 28.773438 19.226562 C 28.730469 19.238281 28.667969 19.183594 28.613281 19.15625 Z M 27.78125 19.398438 C 27.789062 18.898438 28.066406 18.542969 28.542969 18.457031 C 28.789062 18.410156 29.011719 18.492188 29.210938 18.632812 C 29.625 18.933594 29.859375 19.476562 29.703125 20.050781 C 29.535156 20.65625 28.800781 20.875 28.292969 20.464844 C 27.957031 20.195312 27.78125 19.835938 27.78125 19.398438 "/>
<path style=" stroke:none;fill-rule:nonzero;fill:rgb(98.416138%,98.629761%,98.687744%);fill-opacity:1;" d="M 24.625 26.71875 C 27 26.535156 29.097656 25.691406 30.921875 24.144531 C 31.015625 24.34375 30.984375 24.546875 30.96875 24.757812 C 30.890625 25.714844 30.441406 26.46875 29.730469 27.078125 C 28.460938 28.164062 26.558594 28.308594 25.226562 27.328125 C 25.144531 27.265625 25.066406 27.199219 24.988281 27.132812 C 24.859375 27.019531 24.734375 26.90625 24.605469 26.789062 C 24.613281 26.765625 24.617188 26.742188 24.625 26.71875 "/>
<path style=" stroke:none;fill-rule:nonzero;fill:rgb(98.731995%,99.009705%,99.099731%);fill-opacity:1;" d="M 22.839844 20.726562 C 22.464844 20.753906 22.125 20.992188 22.035156 21.367188 C 21.882812 21.980469 22.09375 22.574219 22.683594 22.863281 C 23.257812 23.140625 23.722656 22.769531 23.867188 22.363281 C 24.066406 21.800781 23.765625 21.101562 23.226562 20.835938 C 23.105469 20.777344 22.96875 20.761719 22.839844 20.726562 Z M 20.90625 22.804688 C 20.878906 22.765625 20.847656 22.730469 20.816406 22.691406 C 20.605469 22.34375 20.410156 21.988281 20.320312 21.582031 C 20.136719 20.765625 20.550781 19.6875 21.398438 19.277344 C 21.84375 19.0625 22.292969 19.054688 22.757812 19.226562 C 23.628906 19.554688 24.210938 20.183594 24.609375 20.996094 C 24.972656 21.746094 25.09375 22.550781 25.015625 23.40625 C 24.953125 23.417969 24.890625 23.429688 24.828125 23.441406 C 24.132812 23.609375 23.441406 23.777344 22.710938 23.957031 C 22.015625 23.777344 21.421875 23.351562 20.90625 22.804688 "/>
<path style=" stroke:none;fill-rule:nonzero;fill:rgb(94.290161%,93.319702%,93.367004%);fill-opacity:1;" d="M 28.617188 19.394531 C 28.503906 19.574219 28.375 19.632812 28.210938 19.578125 C 28.09375 19.539062 27.984375 19.378906 28.003906 19.253906 C 28.027344 19.132812 28.070312 19.003906 28.210938 18.972656 C 28.296875 18.953125 28.398438 18.953125 28.476562 18.984375 C 28.535156 19.011719 28.570312 19.097656 28.613281 19.15625 C 28.617188 19.234375 28.617188 19.316406 28.617188 19.394531 "/>
<path style=" stroke:none;fill-rule:nonzero;fill:rgb(86.784363%,85.440063%,85.392761%);fill-opacity:1;" d="M 28.617188 19.394531 C 28.617188 19.316406 28.617188 19.234375 28.613281 19.15625 C 28.667969 19.183594 28.730469 19.238281 28.773438 19.226562 C 28.902344 19.1875 28.957031 19.253906 29.007812 19.347656 C 28.882812 19.554688 28.882812 19.554688 28.726562 19.460938 C 28.691406 19.4375 28.652344 19.414062 28.617188 19.394531 "/>
<path style=" stroke:none;fill-rule:nonzero;fill:rgb(10.424805%,8.97522%,8.969116%);fill-opacity:1;" d="M 23.132812 21.472656 C 23.027344 21.195312 22.933594 21.121094 22.730469 21.152344 C 22.589844 21.171875 22.484375 21.257812 22.488281 21.394531 C 22.5 21.894531 22.777344 21.839844 23.039062 21.695312 C 23.1875 21.707031 23.277344 21.710938 23.375 21.71875 C 23.347656 21.449219 23.347656 21.449219 23.132812 21.472656 Z M 22.839844 20.726562 C 22.96875 20.761719 23.105469 20.777344 23.226562 20.835938 C 23.765625 21.101562 24.066406 21.800781 23.867188 22.363281 C 23.722656 22.769531 23.257812 23.140625 22.683594 22.863281 C 22.09375 22.574219 21.882812 21.980469 22.035156 21.367188 C 22.125 20.992188 22.464844 20.753906 22.839844 20.726562 "/>
<path style=" stroke:none;fill-rule:nonzero;fill:rgb(96.432495%,96.592712%,96.965027%);fill-opacity:1;" d="M 23.132812 21.472656 C 23.347656 21.449219 23.347656 21.449219 23.375 21.71875 C 23.277344 21.710938 23.1875 21.707031 23.039062 21.695312 C 22.777344 21.839844 22.5 21.894531 22.488281 21.394531 C 22.484375 21.257812 22.589844 21.171875 22.730469 21.152344 C 22.933594 21.121094 23.027344 21.195312 23.132812 21.472656 "/>
</g>
</svg>
