<?xml version="1.0" encoding="UTF-8"?>
<svg xmlns="http://www.w3.org/2000/svg" xmlns:xlink="http://www.w3.org/1999/xlink" width="56pt" height="56pt" viewBox="0 0 56 56" version="1.1">
<g id="surface1">
<rect x="0" y="0" width="56" height="56" style="fill:rgb(95.66803%,95.779419%,96.777344%);fill-opacity:1;stroke:none;"/>
<path style=" stroke:none;fill-rule:nonzero;fill:rgb(94.389343%,93.711853%,11.31897%);fill-opacity:1;" d="M 26.992188 29.113281 C 26.972656 29.132812 26.953125 29.132812 26.953125 29.148438 C 26.953125 29.132812 26.972656 29.113281 26.992188 29.113281 "/>
<path style=" stroke:none;fill-rule:nonzero;fill:rgb(25.78125%,74.351501%,57.061768%);fill-opacity:1;" d="M 15.484375 5.261719 L 3.871094 35.523438 L 12.1875 35.523438 L 19.785156 14.585938 L 27.152344 35.523438 L 35.472656 35.523438 L 24.082031 5.261719 L 15.484375 5.261719 "/>
<path style=" stroke:none;fill-rule:nonzero;fill:rgb(69.75708%,73.262024%,65.795898%);fill-opacity:1;" d="M 35.644531 43.214844 C 30.933594 43.242188 27.09375 39.449219 27.0625 34.738281 C 27.03125 30.03125 30.824219 26.1875 35.535156 26.15625 C 40.207031 26.125 44.03125 29.859375 44.117188 34.53125 C 44.234375 39.207031 40.535156 43.09375 35.859375 43.210938 C 35.789062 43.214844 35.71875 43.214844 35.644531 43.214844 Z M 35.644531 18.636719 C 26.523438 18.636719 19.195312 25.5 19.195312 34.59375 C 19.195312 44.074219 25.839844 50.738281 35.644531 50.738281 C 45.453125 50.738281 52.132812 44.054688 52.132812 34.59375 C 52.132812 25.5 44.773438 18.636719 35.644531 18.636719 "/>
<path style=" stroke:none;fill-rule:nonzero;fill:rgb(18.461609%,55.264282%,48.049927%);fill-opacity:1;" d="M 23.132812 24.105469 L 27.085938 35.332031 C 27.070312 35.136719 27.0625 34.9375 27.0625 34.738281 C 27.039062 31.210938 29.160156 28.167969 32.210938 26.851562 L 29.53125 19.734375 C 27.035156 20.671875 24.847656 22.175781 23.132812 24.105469 "/>
</g>
</svg>
