<?xml version="1.0" encoding="UTF-8"?>
<svg xmlns="http://www.w3.org/2000/svg" xmlns:xlink="http://www.w3.org/1999/xlink" width="56pt" height="56pt" viewBox="0 0 56 56" version="1.1">
<g id="surface1">
<rect x="0" y="0" width="56" height="56" style="fill:rgb(95.66803%,95.779419%,96.777344%);fill-opacity:1;stroke:none;"/>
<path style=" stroke:none;fill-rule:nonzero;fill:rgb(62.785339%,9.407043%,19.534302%);fill-opacity:1;" d="M 38.113281 18.132812 C 34.4375 19.679688 29.730469 21.859375 27.511719 25.488281 C 25.867188 28.179688 26.050781 28.554688 26.050781 36.257812 C 26.050781 38.390625 25.867188 39.242188 24.648438 40.539062 C 23.527344 41.742188 22.851562 42.144531 22.09375 42.269531 C 19.511719 42.691406 15.71875 24.980469 15.71875 22.664062 C 15.71875 22.058594 15.667969 21.964844 15.949219 21.550781 C 16.351562 20.976562 17.1875 20.199219 17.695312 20.199219 C 19.960938 20.199219 22.640625 23.195312 22.640625 23.195312 C 22.640625 23.195312 24.484375 21.445312 29.078125 17.988281 C 32.246094 15.605469 35.117188 13.722656 36.664062 13.722656 C 38.460938 13.722656 40.285156 15.414062 40.285156 16.230469 C 40.285156 17.238281 39.355469 17.488281 38.144531 18.152344 "/>
<path style=" stroke:none;fill-rule:nonzero;fill:rgb(62.785339%,9.407043%,19.534302%);fill-opacity:1;" d="M 28 7.308594 C 16.589844 7.308594 7.308594 16.589844 7.308594 28 C 7.308594 39.410156 16.589844 48.691406 28 48.691406 C 39.410156 48.691406 48.691406 39.410156 48.691406 28 C 48.691406 16.589844 39.410156 7.308594 28 7.308594 Z M 28 51.691406 C 14.9375 51.691406 4.308594 41.0625 4.308594 28 C 4.308594 14.9375 14.9375 4.308594 28 4.308594 C 41.0625 4.308594 51.691406 14.9375 51.691406 28 C 51.691406 41.0625 41.0625 51.691406 28 51.691406 "/>
</g>
</svg>
