<?xml version="1.0" encoding="UTF-8"?>
<svg xmlns="http://www.w3.org/2000/svg" xmlns:xlink="http://www.w3.org/1999/xlink" width="56pt" height="56pt" viewBox="0 0 56 56" version="1.1">
<g id="surface1">
<rect x="0" y="0" width="56" height="56" style="fill:rgb(15.17334%,27.06604%,59.249878%);fill-opacity:1;stroke:none;"/>
<path style=" stroke:none;fill-rule:nonzero;fill:rgb(100%,100%,100%);fill-opacity:1;" d="M 26.808594 50.679688 C 26.730469 50.664062 26.652344 50.632812 26.574219 50.628906 C 24.910156 50.523438 23.285156 50.195312 21.691406 49.722656 C 19.34375 49.03125 17.105469 48.097656 15.058594 46.738281 C 14.15625 46.144531 13.3125 45.476562 12.664062 44.59375 C 12.644531 44.566406 12.625 44.535156 12.574219 44.460938 C 12.679688 44.488281 12.738281 44.503906 12.792969 44.519531 C 13.945312 44.839844 15.089844 45.191406 16.246094 45.46875 C 17.664062 45.808594 19.101562 46.007812 20.5625 46 C 22.019531 45.992188 23.402344 45.6875 24.726562 45.101562 C 25.21875 44.886719 25.714844 44.671875 26.21875 44.476562 C 27.191406 44.097656 28.160156 44.09375 29.15625 44.4375 C 30.285156 44.828125 31.425781 45.1875 32.570312 45.527344 C 33.953125 45.9375 35.371094 46.070312 36.816406 46.011719 C 38.207031 45.960938 39.542969 45.65625 40.855469 45.214844 C 41.632812 44.957031 42.421875 44.734375 43.203125 44.5 C 43.257812 44.484375 43.316406 44.476562 43.40625 44.496094 C 43.316406 44.613281 43.234375 44.734375 43.140625 44.847656 C 42.367188 45.769531 41.429688 46.496094 40.414062 47.121094 C 38.574219 48.253906 36.585938 49.046875 34.511719 49.644531 C 33.191406 50.023438 31.847656 50.300781 30.488281 50.480469 C 29.992188 50.546875 29.488281 50.570312 28.988281 50.617188 C 28.867188 50.632812 28.746094 50.660156 28.625 50.679688 C 28.019531 50.679688 27.414062 50.679688 26.808594 50.679688 "/>
<path style=" stroke:none;fill-rule:nonzero;fill:rgb(100%,100%,100%);fill-opacity:1;" d="M 29.109375 5.320312 C 29.320312 5.34375 29.53125 5.382812 29.738281 5.394531 C 30.886719 5.449219 32.019531 5.589844 33.144531 5.789062 C 34.578125 6.046875 35.984375 6.410156 37.34375 6.921875 C 39.222656 7.632812 40.984375 8.546875 42.433594 9.96875 C 42.796875 10.320312 43.109375 10.722656 43.449219 11.101562 C 43.433594 11.121094 43.417969 11.140625 43.40625 11.160156 C 43.152344 11.082031 42.898438 11.003906 42.644531 10.929688 C 41.46875 10.589844 40.300781 10.21875 39.117188 9.921875 C 37.5 9.511719 35.855469 9.410156 34.199219 9.652344 C 32.839844 9.851562 31.53125 10.207031 30.277344 10.769531 C 29.777344 10.992188 29.261719 11.171875 28.765625 11.398438 C 28.324219 11.597656 27.898438 11.582031 27.453125 11.429688 C 26.441406 11.085938 25.425781 10.757812 24.414062 10.40625 C 22.699219 9.816406 20.945312 9.476562 19.117188 9.574219 C 17.8125 9.648438 16.542969 9.894531 15.296875 10.273438 C 14.507812 10.511719 13.714844 10.738281 12.921875 10.96875 C 12.886719 10.980469 12.851562 10.980469 12.78125 10.992188 C 12.824219 10.921875 12.84375 10.871094 12.875 10.828125 C 13.347656 10.191406 13.953125 9.699219 14.617188 9.277344 C 15.816406 8.511719 17.015625 7.742188 18.316406 7.152344 C 19.386719 6.667969 20.511719 6.339844 21.652344 6.066406 C 23.324219 5.664062 25.015625 5.4375 26.730469 5.367188 C 26.816406 5.363281 26.902344 5.335938 26.984375 5.320312 C 27.695312 5.320312 28.402344 5.320312 29.109375 5.320312 "/>
<path style=" stroke:none;fill-rule:nonzero;fill:rgb(100%,100%,100%);fill-opacity:1;" d="M 5.5 24.609375 C 5.445312 23.847656 5.492188 23.089844 5.632812 22.34375 C 6.050781 20.09375 7.074219 18.128906 8.460938 16.335938 C 9.230469 15.34375 10.09375 14.449219 11.101562 13.699219 C 12.039062 13.007812 13.085938 12.542969 14.199219 12.222656 C 15.78125 11.773438 17.390625 11.636719 19.023438 11.800781 C 20.609375 11.957031 22.121094 12.382812 23.496094 13.222656 C 23.859375 13.445312 24.195312 13.707031 24.582031 13.972656 C 24.363281 14.308594 24.199219 14.632812 23.96875 14.90625 C 22.546875 16.609375 21.585938 18.570312 20.800781 20.628906 C 20.214844 22.167969 19.789062 23.753906 19.511719 25.378906 C 19.269531 26.808594 19.160156 28.25 19.261719 29.703125 C 19.347656 30.960938 19.585938 32.1875 20.179688 33.320312 C 20.566406 34.066406 21.082031 34.707031 21.796875 35.160156 C 23.128906 36.003906 24.679688 35.710938 25.621094 34.4375 C 26.125 33.753906 26.375 32.972656 26.460938 32.136719 C 26.621094 30.515625 26.246094 28.996094 25.527344 27.558594 C 25.078125 26.664062 24.578125 25.792969 24.105469 24.90625 C 23.769531 24.273438 23.472656 23.625 23.335938 22.914062 C 23.230469 22.347656 23.238281 21.785156 23.390625 21.1875 C 25.949219 20.152344 28.535156 19.128906 31.191406 18.152344 C 31.09375 18.476562 30.949219 18.710938 30.742188 18.882812 C 30.445312 19.128906 30.132812 19.371094 29.796875 19.570312 C 28.855469 20.121094 27.894531 20.640625 26.953125 21.1875 C 26.464844 21.472656 26.035156 21.832031 25.660156 22.257812 C 25.566406 22.363281 25.523438 22.46875 25.519531 22.613281 C 25.488281 23.410156 25.707031 24.15625 26.078125 24.839844 C 26.632812 25.859375 27.230469 26.851562 27.824219 27.84375 C 28.589844 29.125 29.289062 30.4375 29.703125 31.882812 C 30.050781 33.117188 30.167969 34.371094 30.0625 35.652344 C 29.855469 38.171875 28.582031 40.050781 26.574219 41.484375 C 25.078125 42.550781 23.402344 43.199219 21.617188 43.59375 C 20.257812 43.890625 18.878906 44.027344 17.484375 43.949219 C 14.699219 43.792969 12.222656 42.859375 10.105469 41.011719 C 8.6875 39.777344 7.632812 38.269531 6.800781 36.59375 C 6.316406 35.605469 5.96875 34.578125 5.769531 33.496094 C 5.574219 32.414062 5.539062 31.328125 5.660156 30.234375 C 5.816406 28.816406 6.1875 27.457031 6.703125 26.132812 C 6.90625 25.613281 7.167969 25.128906 7.511719 24.6875 C 8.167969 23.851562 9.03125 23.425781 10.09375 23.410156 C 11.214844 23.394531 12.210938 23.71875 12.910156 24.628906 C 13.652344 25.59375 13.921875 26.691406 13.5 27.875 C 13.386719 28.1875 13.144531 28.46875 12.921875 28.726562 C 12.683594 28.996094 12.386719 29.214844 12.140625 29.476562 C 11.910156 29.714844 11.683594 29.964844 11.507812 30.238281 C 10.953125 31.113281 11.113281 32.015625 11.898438 32.691406 C 12.628906 33.324219 13.625 33.332031 14.417969 32.800781 C 15.039062 32.390625 15.476562 31.816406 15.804688 31.160156 C 16.613281 29.550781 16.910156 27.847656 16.566406 26.070312 C 16.25 24.449219 15.28125 23.28125 13.902344 22.429688 C 12.804688 21.753906 11.601562 21.441406 10.316406 21.476562 C 9.234375 21.507812 8.238281 21.800781 7.375 22.484375 C 6.996094 22.789062 6.671875 23.144531 6.453125 23.578125 C 6.316406 23.847656 6.132812 24.066406 5.914062 24.265625 C 5.785156 24.386719 5.667969 24.519531 5.550781 24.644531 C 5.53125 24.632812 5.515625 24.621094 5.5 24.609375 "/>
<path style=" stroke:none;fill-rule:nonzero;fill:rgb(100%,100%,100%);fill-opacity:1;" d="M 50.335938 30.953125 C 50.460938 31.171875 50.488281 31.429688 50.507812 31.683594 C 50.5625 32.414062 50.453125 33.128906 50.265625 33.832031 C 49.65625 36.109375 48.589844 38.152344 47.09375 39.972656 C 45.816406 41.53125 44.179688 42.535156 42.296875 43.175781 C 40.585938 43.753906 38.828125 44.007812 37.023438 43.890625 C 35.457031 43.789062 33.964844 43.414062 32.632812 42.539062 C 32.25 42.285156 31.902344 41.976562 31.503906 41.667969 C 31.699219 41.355469 31.855469 41.078125 32.035156 40.8125 C 32.660156 39.898438 33.320312 39.007812 33.914062 38.074219 C 35.03125 36.324219 35.789062 34.421875 36.222656 32.390625 C 36.621094 30.507812 36.738281 28.609375 36.65625 26.691406 C 36.578125 24.972656 36.34375 23.28125 35.835938 21.636719 C 35.382812 20.175781 34.699219 18.824219 33.839844 17.558594 C 33.179688 16.589844 32.511719 15.625 31.851562 14.65625 C 31.707031 14.445312 31.589844 14.214844 31.457031 13.988281 C 31.9375 13.5625 32.441406 13.203125 32.984375 12.902344 C 35.007812 11.78125 37.175781 11.46875 39.449219 11.78125 C 41.609375 12.078125 43.574219 12.871094 45.332031 14.164062 C 46.863281 15.289062 47.980469 16.757812 48.832031 18.441406 C 49.558594 19.875 50.023438 21.394531 50.226562 22.984375 C 50.320312 23.722656 50.386719 24.46875 50.394531 25.210938 C 50.414062 26.496094 50.105469 27.722656 49.59375 28.902344 C 49.40625 29.328125 49.234375 29.757812 49.058594 30.1875 C 48.9375 30.488281 48.757812 30.746094 48.511719 30.957031 C 47.933594 31.453125 47.335938 31.914062 46.585938 32.136719 C 45.832031 32.351562 45.097656 32.289062 44.371094 32.023438 C 43.222656 31.597656 42.578125 30.746094 42.394531 29.570312 C 42.242188 28.613281 42.484375 27.722656 43.058594 26.933594 C 43.382812 26.492188 43.730469 26.074219 44.042969 25.625 C 44.363281 25.167969 44.539062 24.660156 44.507812 24.085938 C 44.460938 23.269531 43.878906 22.453125 43.152344 22.226562 C 42.574219 22.050781 42.027344 22.179688 41.496094 22.417969 C 40.710938 22.773438 40.21875 23.40625 39.835938 24.15625 C 38.511719 26.785156 38.925781 30.261719 40.894531 32.449219 C 42.007812 33.6875 43.425781 34.351562 45.109375 34.316406 C 46.960938 34.28125 48.460938 33.472656 49.617188 32.039062 C 49.886719 31.707031 50.09375 31.320312 50.335938 30.953125 "/>
</g>
</svg>
