<?xml version="1.0" encoding="UTF-8"?>
<svg xmlns="http://www.w3.org/2000/svg" xmlns:xlink="http://www.w3.org/1999/xlink" width="56pt" height="56pt" viewBox="0 0 56 56" version="1.1">
<g id="surface1">
<rect x="0" y="0" width="56" height="56" style="fill:rgb(95.666504%,95.776367%,96.775818%);fill-opacity:1;stroke:none;"/>
<path style=" stroke:none;fill-rule:nonzero;fill:rgb(48.048401%,72.241211%,16.723633%);fill-opacity:1;" d="M 34.734375 19.164062 C 35.28125 18.519531 35.832031 17.878906 36.382812 17.238281 C 37.53125 15.910156 38.679688 14.589844 39.820312 13.257812 C 39.996094 13.050781 40.179688 12.96875 40.457031 12.96875 C 43.699219 12.980469 46.9375 12.976562 50.179688 12.976562 C 50.324219 12.976562 50.46875 12.964844 50.613281 12.957031 C 50.613281 13 50.613281 13.039062 50.613281 13.082031 C 50.363281 13.753906 50.109375 14.429688 49.867188 15.101562 C 49.734375 15.460938 49.617188 15.824219 49.496094 16.183594 C 49.386719 16.160156 49.273438 16.117188 49.167969 16.125 C 48.078125 16.199219 46.988281 16.277344 45.902344 16.359375 C 44.058594 16.507812 42.234375 16.769531 40.421875 17.140625 C 38.972656 17.441406 37.558594 17.847656 36.203125 18.441406 C 35.703125 18.660156 35.222656 18.921875 34.734375 19.164062 "/>
<path style=" stroke:none;fill-rule:nonzero;fill:rgb(13.397217%,19.33136%,38.796997%);fill-opacity:1;" d="M 31.746094 31.570312 C 31.71875 31.847656 31.695312 32.125 31.664062 32.421875 C 32.109375 32.28125 32.492188 32.160156 32.832031 32.054688 C 32.875 32.226562 32.902344 32.34375 32.929688 32.457031 C 33.042969 32.386719 33.15625 32.320312 33.265625 32.246094 C 33.289062 32.230469 33.292969 32.195312 33.308594 32.167969 C 33.546875 31.789062 33.761719 31.402344 34.023438 31.042969 C 34.5 30.386719 35.09375 29.933594 35.976562 30.03125 C 36.261719 30.0625 36.558594 30.054688 36.84375 30.023438 C 37.128906 29.992188 37.265625 30.09375 37.378906 30.351562 C 37.679688 31.042969 38.011719 31.71875 38.328125 32.390625 C 38.65625 32.089844 38.96875 31.804688 39.277344 31.523438 C 39.304688 31.539062 39.335938 31.5625 39.367188 31.582031 C 39.367188 31.734375 39.378906 31.886719 39.363281 32.035156 C 39.335938 32.289062 39.421875 32.378906 39.6875 32.375 C 40.484375 32.359375 41.28125 32.378906 42.074219 32.363281 C 42.296875 32.359375 42.53125 32.316406 42.734375 32.230469 C 42.863281 32.175781 42.949219 32.015625 43.054688 31.902344 C 43.03125 31.871094 43.011719 31.84375 42.988281 31.8125 C 42.277344 31.8125 41.566406 31.8125 40.851562 31.8125 C 40.3125 31.8125 40.179688 31.683594 40.179688 31.136719 C 40.179688 29.667969 40.183594 28.203125 40.1875 26.734375 C 40.1875 26.652344 40.195312 26.566406 40.179688 26.484375 C 40.15625 26.332031 40.074219 26.265625 39.921875 26.351562 C 39.667969 26.496094 39.414062 26.644531 39.21875 26.757812 C 39.277344 26.980469 39.359375 27.171875 39.363281 27.363281 C 39.375 28.59375 39.367188 29.820312 39.367188 31.050781 C 39.363281 31.171875 39.367188 31.292969 39.367188 31.40625 C 38.902344 31.496094 38.570312 31.351562 38.382812 30.917969 C 37.761719 29.5 37.078125 28.105469 36.707031 26.59375 C 36.671875 26.457031 36.558594 26.242188 36.480469 26.242188 C 36.332031 26.238281 36.167969 26.347656 36.03125 26.441406 C 35.953125 26.496094 35.902344 26.605469 35.867188 26.699219 C 35.183594 28.449219 34.1875 30.027344 33.21875 31.625 C 33.078125 31.863281 32.882812 31.851562 32.691406 31.816406 C 32.570312 31.789062 32.472656 31.652344 32.363281 31.566406 C 32.367188 30.292969 32.371094 29.023438 32.378906 27.753906 C 32.378906 27.304688 32.386719 27.308594 32.839844 27.273438 C 33.433594 27.226562 34.03125 27.179688 34.628906 27.128906 C 34.84375 27.109375 34.84375 27.097656 34.808594 26.863281 C 32.96875 26.863281 31.121094 26.863281 29.230469 26.863281 C 29.230469 27.113281 29.226562 27.351562 29.234375 27.585938 C 29.238281 27.644531 29.28125 27.742188 29.320312 27.753906 C 29.371094 27.765625 29.460938 27.722656 29.503906 27.679688 C 29.804688 27.359375 30.1875 27.273438 30.601562 27.269531 C 30.777344 27.265625 30.953125 27.265625 31.128906 27.265625 C 31.664062 27.277344 31.816406 27.425781 31.808594 27.949219 C 31.792969 29.15625 31.769531 30.363281 31.746094 31.570312 Z M 34.734375 19.164062 C 35.222656 18.921875 35.703125 18.660156 36.203125 18.441406 C 37.558594 17.847656 38.972656 17.441406 40.421875 17.140625 C 42.234375 16.769531 44.058594 16.507812 45.902344 16.359375 C 46.988281 16.277344 48.078125 16.199219 49.167969 16.125 C 49.273438 16.117188 49.386719 16.160156 49.496094 16.183594 C 48.886719 17.894531 48.273438 19.601562 47.664062 21.316406 C 46.601562 24.308594 45.535156 27.300781 44.476562 30.292969 C 43.804688 32.191406 43.144531 34.089844 42.472656 35.988281 C 42.421875 36.132812 42.347656 36.265625 42.285156 36.402344 C 41.9375 36.660156 41.605469 36.945312 41.238281 37.171875 C 40.132812 37.863281 38.945312 38.378906 37.707031 38.792969 C 35.425781 39.554688 33.09375 40.09375 30.730469 40.496094 C 29.015625 40.792969 27.289062 41.042969 25.5625 41.289062 C 24.449219 41.445312 23.328125 41.558594 22.210938 41.679688 C 21.332031 41.777344 20.449219 41.863281 19.5625 41.945312 C 18.496094 42.046875 17.425781 42.140625 16.359375 42.234375 C 15.433594 42.3125 14.507812 42.390625 13.582031 42.460938 C 12.65625 42.53125 11.730469 42.59375 10.804688 42.65625 C 9.980469 42.710938 9.160156 42.753906 8.335938 42.804688 C 7.652344 42.851562 6.964844 42.910156 6.28125 42.953125 C 6.210938 42.957031 6.136719 42.890625 6.070312 42.855469 C 7.433594 42.558594 8.742188 42.09375 10.003906 41.496094 C 12.847656 40.144531 15.402344 38.34375 17.824219 36.351562 C 20.871094 33.847656 23.710938 31.125 26.40625 28.257812 C 28.578125 25.945312 30.707031 23.597656 32.851562 21.261719 C 33.484375 20.566406 34.105469 19.863281 34.734375 19.164062 "/>
<path style=" stroke:none;fill-rule:nonzero;fill:rgb(48.048401%,72.241211%,16.723633%);fill-opacity:1;" d="M 6.070312 42.855469 C 6.136719 42.890625 6.210938 42.957031 6.28125 42.953125 C 6.964844 42.910156 7.652344 42.851562 8.335938 42.804688 C 9.160156 42.753906 9.980469 42.710938 10.804688 42.65625 C 11.730469 42.59375 12.65625 42.53125 13.582031 42.460938 C 14.507812 42.390625 15.433594 42.3125 16.359375 42.234375 C 17.425781 42.140625 18.496094 42.046875 19.5625 41.945312 C 20.449219 41.863281 21.332031 41.777344 22.210938 41.679688 C 23.328125 41.558594 24.449219 41.445312 25.5625 41.289062 C 27.289062 41.042969 29.015625 40.792969 30.730469 40.496094 C 33.09375 40.09375 35.425781 39.554688 37.707031 38.792969 C 38.945312 38.378906 40.132812 37.863281 41.238281 37.171875 C 41.605469 36.945312 41.9375 36.660156 42.285156 36.402344 C 42.097656 36.960938 41.921875 37.523438 41.726562 38.078125 C 41.195312 39.585938 40.648438 41.089844 40.128906 42.601562 C 40.015625 42.921875 39.867188 43.042969 39.511719 43.039062 C 36.28125 43.027344 33.046875 43.03125 29.8125 43.03125 C 26.578125 43.035156 23.34375 43.039062 20.109375 43.042969 C 16.847656 43.042969 13.582031 43.039062 10.316406 43.039062 C 8.714844 43.039062 7.113281 43.035156 5.511719 43.035156 C 5.472656 43.035156 5.433594 43.027344 5.386719 42.964844 C 5.613281 42.929688 5.839844 42.894531 6.070312 42.855469 "/>
<path style=" stroke:none;fill-rule:nonzero;fill:rgb(13.397217%,19.33136%,38.796997%);fill-opacity:1;" d="M 36.214844 27.496094 C 36.453125 28.222656 36.691406 28.9375 36.9375 29.675781 C 36.296875 29.675781 35.671875 29.675781 35.019531 29.675781 C 35.417969 28.945312 35.808594 28.230469 36.214844 27.496094 "/>
</g>
</svg>
