<?xml version="1.0" encoding="UTF-8"?>
<svg xmlns="http://www.w3.org/2000/svg" xmlns:xlink="http://www.w3.org/1999/xlink" width="56pt" height="56pt" viewBox="0 0 56 56" version="1.1">
<defs>
<clipPath id="clip1">
  <path d="M 28.398438 10.199219 L 29.101562 10.199219 L 29.101562 10.300781 L 28.398438 10.300781 Z M 27.601562 10.300781 L 29.699219 10.300781 L 29.699219 10.398438 L 27.601562 10.398438 Z M 27.101562 10.398438 L 30.101562 10.398438 L 30.101562 10.5 L 27.101562 10.5 Z M 26.800781 10.5 L 30.300781 10.5 L 30.300781 10.601562 L 26.800781 10.601562 Z M 26.5 10.601562 L 30.5 10.601562 L 30.5 10.699219 L 26.5 10.699219 Z M 26.199219 10.699219 L 30.699219 10.699219 L 30.699219 10.800781 L 26.199219 10.800781 Z M 26 10.800781 L 30.898438 10.800781 L 30.898438 10.898438 L 26 10.898438 Z M 25.800781 10.898438 L 31 10.898438 L 31 11 L 25.800781 11 Z M 25.601562 11 L 31.101562 11 L 31.101562 11.101562 L 25.601562 11.101562 Z M 25.398438 11.101562 L 31.300781 11.101562 L 31.300781 11.199219 L 25.398438 11.199219 Z M 25.300781 11.199219 L 31.398438 11.199219 L 31.398438 11.300781 L 25.300781 11.300781 Z M 25.101562 11.300781 L 31.398438 11.300781 L 31.398438 11.398438 L 25.101562 11.398438 Z M 24.898438 11.398438 L 31.5 11.398438 L 31.5 11.5 L 24.898438 11.5 Z M 24.800781 11.5 L 31.601562 11.5 L 31.601562 11.601562 L 24.800781 11.601562 Z M 24.699219 11.601562 L 31.699219 11.601562 L 31.699219 11.699219 L 24.699219 11.699219 Z M 24.5 11.699219 L 31.800781 11.699219 L 31.800781 11.800781 L 24.5 11.800781 Z M 24.398438 11.800781 L 31.800781 11.800781 L 31.800781 11.898438 L 24.398438 11.898438 Z M 24.300781 11.898438 L 31.800781 11.898438 L 31.800781 12 L 24.300781 12 Z M 24.101562 12 L 31.898438 12 L 31.898438 12.101562 L 24.101562 12.101562 Z M 24 12.101562 L 31.898438 12.101562 L 31.898438 12.199219 L 24 12.199219 Z M 23.898438 12.199219 L 32 12.199219 L 32 12.300781 L 23.898438 12.300781 Z M 23.800781 12.300781 L 32 12.300781 L 32 12.398438 L 23.800781 12.398438 Z M 23.699219 12.398438 L 32.101562 12.398438 L 32.101562 12.5 L 23.699219 12.5 Z M 23.601562 12.5 L 32.101562 12.5 L 32.101562 12.601562 L 23.601562 12.601562 Z M 23.5 12.601562 L 32.101562 12.601562 L 32.101562 12.699219 L 23.5 12.699219 Z M 23.398438 12.699219 L 32.101562 12.699219 L 32.101562 12.898438 L 23.398438 12.898438 Z M 23.300781 12.898438 L 32.101562 12.898438 L 32.101562 13 L 23.300781 13 Z M 23.199219 13 L 32.101562 13 L 32.101562 13.101562 L 23.199219 13.101562 Z M 23.101562 13.101562 L 32.199219 13.101562 L 32.199219 13.300781 L 23.101562 13.300781 Z M 23 13.300781 L 32.199219 13.300781 L 32.199219 13.398438 L 23 13.398438 Z M 22.898438 13.398438 L 32.199219 13.398438 L 32.199219 13.601562 L 22.898438 13.601562 Z M 22.800781 13.601562 L 32.199219 13.601562 L 32.199219 13.699219 L 22.800781 13.699219 Z M 22.699219 13.699219 L 32.101562 13.699219 L 32.101562 13.898438 L 22.699219 13.898438 Z M 22.601562 13.898438 L 32.101562 13.898438 L 32.101562 14.101562 L 22.601562 14.101562 Z M 22.5 14.101562 L 32.101562 14.101562 L 32.101562 14.300781 L 22.5 14.300781 Z M 22.398438 14.300781 L 32.101562 14.300781 L 32.101562 14.398438 L 22.398438 14.398438 Z M 22.398438 14.398438 L 32 14.398438 L 32 14.5 L 22.398438 14.5 Z M 22.300781 14.5 L 32 14.5 L 32 14.800781 L 22.300781 14.800781 Z M 22.199219 14.800781 L 31.898438 14.800781 L 31.898438 15.101562 L 22.199219 15.101562 Z M 22.101562 15.101562 L 31.800781 15.101562 L 31.800781 15.300781 L 22.101562 15.300781 Z M 22.101562 15.300781 L 31.699219 15.300781 L 31.699219 15.5 L 22.101562 15.5 Z M 22.101562 15.5 L 31.601562 15.5 L 31.601562 15.601562 L 22.101562 15.601562 Z M 22 15.601562 L 31.601562 15.601562 L 31.601562 15.699219 L 22 15.699219 Z M 34.5 15.699219 L 35.398438 15.699219 L 35.398438 15.800781 L 34.5 15.800781 Z M 34 15.800781 L 35.800781 15.800781 L 35.800781 15.898438 L 34 15.898438 Z M 22 15.699219 L 31.5 15.699219 L 31.5 15.898438 L 22 15.898438 Z M 33.601562 15.898438 L 36.101562 15.898438 L 36.101562 16 L 33.601562 16 Z M 22 15.898438 L 31.398438 15.898438 L 31.398438 16 L 22 16 Z M 33.300781 16 L 36.300781 16 L 36.300781 16.101562 L 33.300781 16.101562 Z M 33.101562 16.101562 L 36.398438 16.101562 L 36.398438 16.199219 L 33.101562 16.199219 Z M 22 16 L 31.300781 16 L 31.300781 16.199219 L 22 16.199219 Z M 32.898438 16.199219 L 36.601562 16.199219 L 36.601562 16.300781 L 32.898438 16.300781 Z M 22 16.199219 L 31.199219 16.199219 L 31.199219 16.300781 L 22 16.300781 Z M 32.699219 16.300781 L 36.699219 16.300781 L 36.699219 16.398438 L 32.699219 16.398438 Z M 22 16.300781 L 31.101562 16.300781 L 31.101562 16.398438 L 22 16.398438 Z M 32.5 16.398438 L 36.800781 16.398438 L 36.800781 16.5 L 32.5 16.5 Z M 32.300781 16.5 L 36.898438 16.5 L 36.898438 16.601562 L 32.300781 16.601562 Z M 22 16.398438 L 31 16.398438 L 31 16.601562 L 22 16.601562 Z M 22 16.601562 L 30.898438 16.601562 L 30.898438 16.699219 L 22 16.699219 Z M 32.199219 16.601562 L 36.898438 16.601562 L 36.898438 16.699219 L 32.199219 16.699219 Z M 32 16.699219 L 37 16.699219 L 37 16.800781 L 32 16.800781 Z M 22.101562 16.699219 L 30.800781 16.699219 L 30.800781 16.800781 L 22.101562 16.800781 Z M 31.898438 16.800781 L 37.101562 16.800781 L 37.101562 16.898438 L 31.898438 16.898438 Z M 22.101562 16.800781 L 30.699219 16.800781 L 30.699219 16.898438 L 22.101562 16.898438 Z M 31.800781 16.898438 L 37.101562 16.898438 L 37.101562 17 L 31.800781 17 Z M 22.101562 16.898438 L 30.601562 16.898438 L 30.601562 17 L 22.101562 17 Z M 31.699219 17 L 37.101562 17 L 37.101562 17.101562 L 31.699219 17.101562 Z M 22.101562 17 L 30.5 17 L 30.5 17.101562 L 22.101562 17.101562 Z M 22.101562 17.101562 L 30.398438 17.101562 L 30.398438 17.199219 L 22.101562 17.199219 Z M 31.5 17.101562 L 37.199219 17.101562 L 37.199219 17.199219 L 31.5 17.199219 Z M 31.398438 17.199219 L 37.199219 17.199219 L 37.199219 17.300781 L 31.398438 17.300781 Z M 22.199219 17.199219 L 30.300781 17.199219 L 30.300781 17.300781 L 22.199219 17.300781 Z M 31.300781 17.300781 L 37.199219 17.300781 L 37.199219 17.398438 L 31.300781 17.398438 Z M 22.199219 17.300781 L 30.199219 17.300781 L 30.199219 17.398438 L 22.199219 17.398438 Z M 22.199219 17.398438 L 30.101562 17.398438 L 30.101562 17.5 L 22.199219 17.5 Z M 31.199219 17.398438 L 37.199219 17.398438 L 37.199219 17.5 L 31.199219 17.5 Z M 31.101562 17.5 L 37.199219 17.5 L 37.199219 17.601562 L 31.101562 17.601562 Z M 22.300781 17.5 L 30 17.5 L 30 17.601562 L 22.300781 17.601562 Z M 22.300781 17.601562 L 29.898438 17.601562 L 29.898438 17.699219 L 22.300781 17.699219 Z M 31 17.601562 L 37.300781 17.601562 L 37.300781 17.800781 L 31 17.800781 Z M 22.398438 17.699219 L 29.800781 17.699219 L 29.800781 17.800781 L 22.398438 17.800781 Z M 22.398438 17.800781 L 29.601562 17.800781 L 29.601562 17.898438 L 22.398438 17.898438 Z M 30.898438 17.800781 L 37.300781 17.800781 L 37.300781 17.898438 L 30.898438 17.898438 Z M 22.5 17.898438 L 29.5 17.898438 L 29.5 18 L 22.5 18 Z M 30.800781 17.898438 L 37.300781 17.898438 L 37.300781 18 L 30.800781 18 Z M 22.601562 18 L 29.398438 18 L 29.398438 18.101562 L 22.601562 18.101562 Z M 22.601562 18.101562 L 29.300781 18.101562 L 29.300781 18.199219 L 22.601562 18.199219 Z M 30.699219 18 L 37.300781 18 L 37.300781 18.199219 L 30.699219 18.199219 Z M 22.699219 18.199219 L 29.101562 18.199219 L 29.101562 18.300781 L 22.699219 18.300781 Z M 30.601562 18.199219 L 37.199219 18.199219 L 37.199219 18.300781 L 30.601562 18.300781 Z M 22.800781 18.300781 L 28.898438 18.300781 L 28.898438 18.398438 L 22.800781 18.398438 Z M 22.898438 18.398438 L 28.699219 18.398438 L 28.699219 18.5 L 22.898438 18.5 Z M 30.5 18.300781 L 37.199219 18.300781 L 37.199219 18.5 L 30.5 18.5 Z M 23 18.5 L 28.601562 18.5 L 28.601562 18.601562 L 23 18.601562 Z M 23.199219 18.601562 L 28.398438 18.601562 L 28.398438 18.699219 L 23.199219 18.699219 Z M 30.398438 18.5 L 37.199219 18.5 L 37.199219 18.699219 L 30.398438 18.699219 Z M 23.300781 18.699219 L 28.199219 18.699219 L 28.199219 18.800781 L 23.300781 18.800781 Z M 30.300781 18.699219 L 37.101562 18.699219 L 37.101562 18.800781 L 30.300781 18.800781 Z M 23.5 18.800781 L 27.898438 18.800781 L 27.898438 18.898438 L 23.5 18.898438 Z M 23.601562 18.898438 L 27.699219 18.898438 L 27.699219 19 L 23.601562 19 Z M 23.800781 19 L 27.398438 19 L 27.398438 19.101562 L 23.800781 19.101562 Z M 30.199219 18.800781 L 37.101562 18.800781 L 37.101562 19.101562 L 30.199219 19.101562 Z M 24.101562 19.101562 L 27 19.101562 L 27 19.199219 L 24.101562 19.199219 Z M 24.5 19.199219 L 26.699219 19.199219 L 26.699219 19.300781 L 24.5 19.300781 Z M 30.101562 19.101562 L 37 19.101562 L 37 19.300781 L 30.101562 19.300781 Z M 25.101562 19.300781 L 26 19.300781 L 26 19.398438 L 25.101562 19.398438 Z M 30.101562 19.300781 L 36.898438 19.300781 L 36.898438 19.398438 L 30.101562 19.398438 Z M 30 19.398438 L 36.898438 19.398438 L 36.898438 19.5 L 30 19.5 Z M 30 19.5 L 36.800781 19.5 L 36.800781 19.699219 L 30 19.699219 Z M 30 19.699219 L 36.699219 19.699219 L 36.699219 19.800781 L 30 19.800781 Z M 29.898438 19.800781 L 36.601562 19.800781 L 36.601562 20 L 29.898438 20 Z M 29.898438 20 L 36.5 20 L 36.5 20.101562 L 29.898438 20.101562 Z M 29.898438 20.101562 L 36.398438 20.101562 L 36.398438 20.199219 L 29.898438 20.199219 Z M 39.898438 20.300781 L 40.800781 20.300781 L 40.800781 20.398438 L 39.898438 20.398438 Z M 29.898438 20.199219 L 36.300781 20.199219 L 36.300781 20.398438 L 29.898438 20.398438 Z M 39.5 20.398438 L 41.101562 20.398438 L 41.101562 20.5 L 39.5 20.5 Z M 29.898438 20.398438 L 36.199219 20.398438 L 36.199219 20.5 L 29.898438 20.5 Z M 39.199219 20.5 L 41.300781 20.5 L 41.300781 20.601562 L 39.199219 20.601562 Z M 29.898438 20.5 L 36.101562 20.5 L 36.101562 20.601562 L 29.898438 20.601562 Z M 29.898438 20.601562 L 36 20.601562 L 36 20.699219 L 29.898438 20.699219 Z M 39 20.601562 L 41.5 20.601562 L 41.5 20.699219 L 39 20.699219 Z M 38.800781 20.699219 L 41.601562 20.699219 L 41.601562 20.800781 L 38.800781 20.800781 Z M 30 20.699219 L 35.898438 20.699219 L 35.898438 20.800781 L 30 20.800781 Z M 38.601562 20.800781 L 41.699219 20.800781 L 41.699219 20.898438 L 38.601562 20.898438 Z M 30 20.800781 L 35.800781 20.800781 L 35.800781 20.898438 L 30 20.898438 Z M 38.398438 20.898438 L 41.699219 20.898438 L 41.699219 21 L 38.398438 21 Z M 30 20.898438 L 35.699219 20.898438 L 35.699219 21 L 30 21 Z M 30 21 L 35.601562 21 L 35.601562 21.101562 L 30 21.101562 Z M 38.199219 21 L 41.800781 21 L 41.800781 21.101562 L 38.199219 21.101562 Z M 38.101562 21.101562 L 41.800781 21.101562 L 41.800781 21.199219 L 38.101562 21.199219 Z M 30.101562 21.101562 L 35.5 21.101562 L 35.5 21.199219 L 30.101562 21.199219 Z M 38 21.199219 L 41.898438 21.199219 L 41.898438 21.300781 L 38 21.300781 Z M 30.101562 21.199219 L 35.300781 21.199219 L 35.300781 21.300781 L 30.101562 21.300781 Z M 30.101562 21.300781 L 35.199219 21.300781 L 35.199219 21.398438 L 30.101562 21.398438 Z M 37.898438 21.300781 L 41.898438 21.300781 L 41.898438 21.398438 L 37.898438 21.398438 Z M 30.199219 21.398438 L 35.101562 21.398438 L 35.101562 21.5 L 30.199219 21.5 Z M 37.800781 21.398438 L 41.898438 21.398438 L 41.898438 21.5 L 37.800781 21.5 Z M 37.699219 21.5 L 41.898438 21.5 L 41.898438 21.601562 L 37.699219 21.601562 Z M 30.300781 21.5 L 34.898438 21.5 L 34.898438 21.601562 L 30.300781 21.601562 Z M 30.300781 21.601562 L 34.800781 21.601562 L 34.800781 21.699219 L 30.300781 21.699219 Z M 37.601562 21.601562 L 41.898438 21.601562 L 41.898438 21.699219 L 37.601562 21.699219 Z M 30.398438 21.699219 L 34.601562 21.699219 L 34.601562 21.800781 L 30.398438 21.800781 Z M 37.5 21.699219 L 41.898438 21.699219 L 41.898438 21.800781 L 37.5 21.800781 Z M 30.5 21.800781 L 34.5 21.800781 L 34.5 21.898438 L 30.5 21.898438 Z M 37.398438 21.800781 L 41.898438 21.800781 L 41.898438 21.898438 L 37.398438 21.898438 Z M 30.601562 21.898438 L 34.199219 21.898438 L 34.199219 22 L 30.601562 22 Z M 37.300781 21.898438 L 41.898438 21.898438 L 41.898438 22 L 37.300781 22 Z M 30.800781 22 L 34 22 L 34 22.101562 L 30.800781 22.101562 Z M 30.898438 22.101562 L 33.800781 22.101562 L 33.800781 22.199219 L 30.898438 22.199219 Z M 37.199219 22 L 41.898438 22 L 41.898438 22.199219 L 37.199219 22.199219 Z M 31.199219 22.199219 L 33.5 22.199219 L 33.5 22.300781 L 31.199219 22.300781 Z M 37.101562 22.199219 L 41.898438 22.199219 L 41.898438 22.300781 L 37.101562 22.300781 Z M 31.5 22.300781 L 33.101562 22.300781 L 33.101562 22.398438 L 31.5 22.398438 Z M 37 22.300781 L 41.898438 22.300781 L 41.898438 22.398438 L 37 22.398438 Z M 36.898438 22.398438 L 41.800781 22.398438 L 41.800781 22.601562 L 36.898438 22.601562 Z M 36.800781 22.601562 L 41.800781 22.601562 L 41.800781 22.699219 L 36.800781 22.699219 Z M 36.800781 22.699219 L 41.699219 22.699219 L 41.699219 22.800781 L 36.800781 22.800781 Z M 36.699219 22.800781 L 41.699219 22.800781 L 41.699219 22.898438 L 36.699219 22.898438 Z M 36.699219 22.898438 L 41.601562 22.898438 L 41.601562 23.101562 L 36.699219 23.101562 Z M 36.601562 23.101562 L 41.5 23.101562 L 41.5 23.300781 L 36.601562 23.300781 Z M 36.601562 23.300781 L 41.398438 23.300781 L 41.398438 23.398438 L 36.601562 23.398438 Z M 36.601562 23.398438 L 41.300781 23.398438 L 41.300781 23.5 L 36.601562 23.5 Z M 44.199219 23.5 L 44.300781 23.5 L 44.300781 23.601562 L 44.199219 23.601562 Z M 36.601562 23.5 L 41.199219 23.5 L 41.199219 23.699219 L 36.601562 23.699219 Z M 43.5 23.601562 L 44.699219 23.601562 L 44.699219 23.699219 L 43.5 23.699219 Z M 43.199219 23.699219 L 44.898438 23.699219 L 44.898438 23.800781 L 43.199219 23.800781 Z M 36.5 23.699219 L 41.101562 23.699219 L 41.101562 23.800781 L 36.5 23.800781 Z M 43.101562 23.800781 L 45 23.800781 L 45 23.898438 L 43.101562 23.898438 Z M 36.5 23.800781 L 41 23.800781 L 41 23.898438 L 36.5 23.898438 Z M 36.5 23.898438 L 40.898438 23.898438 L 40.898438 24 L 36.5 24 Z M 42.898438 23.898438 L 45.101562 23.898438 L 45.101562 24 L 42.898438 24 Z M 42.699219 24 L 45.199219 24 L 45.199219 24.101562 L 42.699219 24.101562 Z M 36.601562 24 L 40.800781 24 L 40.800781 24.101562 L 36.601562 24.101562 Z M 42.5 24.101562 L 45.199219 24.101562 L 45.199219 24.199219 L 42.5 24.199219 Z M 36.601562 24.101562 L 40.699219 24.101562 L 40.699219 24.199219 L 36.601562 24.199219 Z M 19.300781 24.199219 L 20.699219 24.199219 L 20.699219 24.300781 L 19.300781 24.300781 Z M 42.398438 24.199219 L 45.199219 24.199219 L 45.199219 24.300781 L 42.398438 24.300781 Z M 36.601562 24.199219 L 40.601562 24.199219 L 40.601562 24.300781 L 36.601562 24.300781 Z M 18.601562 24.300781 L 21.199219 24.300781 L 21.199219 24.398438 L 18.601562 24.398438 Z M 42.300781 24.300781 L 45.199219 24.300781 L 45.199219 24.398438 L 42.300781 24.398438 Z M 36.601562 24.300781 L 40.398438 24.300781 L 40.398438 24.398438 L 36.601562 24.398438 Z M 18.199219 24.398438 L 21.5 24.398438 L 21.5 24.5 L 18.199219 24.5 Z M 36.601562 24.398438 L 40.300781 24.398438 L 40.300781 24.5 L 36.601562 24.5 Z M 42.199219 24.398438 L 45.199219 24.398438 L 45.199219 24.5 L 42.199219 24.5 Z M 17.898438 24.5 L 21.800781 24.5 L 21.800781 24.601562 L 17.898438 24.601562 Z M 42.101562 24.5 L 45.300781 24.5 L 45.300781 24.601562 L 42.101562 24.601562 Z M 36.699219 24.5 L 40.199219 24.5 L 40.199219 24.601562 L 36.699219 24.601562 Z M 17.601562 24.601562 L 22 24.601562 L 22 24.699219 L 17.601562 24.699219 Z M 36.699219 24.601562 L 40 24.601562 L 40 24.699219 L 36.699219 24.699219 Z M 42 24.601562 L 45.300781 24.601562 L 45.300781 24.699219 L 42 24.699219 Z M 17.300781 24.699219 L 22.199219 24.699219 L 22.199219 24.800781 L 17.300781 24.800781 Z M 36.800781 24.699219 L 39.800781 24.699219 L 39.800781 24.800781 L 36.800781 24.800781 Z M 41.898438 24.699219 L 45.300781 24.699219 L 45.300781 24.800781 L 41.898438 24.800781 Z M 17.101562 24.800781 L 22.300781 24.800781 L 22.300781 24.898438 L 17.101562 24.898438 Z M 36.898438 24.800781 L 39.699219 24.800781 L 39.699219 24.898438 L 36.898438 24.898438 Z M 41.800781 24.800781 L 45.199219 24.800781 L 45.199219 24.898438 L 41.800781 24.898438 Z M 16.898438 24.898438 L 22.398438 24.898438 L 22.398438 25 L 16.898438 25 Z M 37 24.898438 L 39.5 24.898438 L 39.5 25 L 37 25 Z M 16.699219 25 L 22.5 25 L 22.5 25.101562 L 16.699219 25.101562 Z M 37.101562 25 L 39.300781 25 L 39.300781 25.101562 L 37.101562 25.101562 Z M 41.699219 24.898438 L 45.199219 24.898438 L 45.199219 25.101562 L 41.699219 25.101562 Z M 16.5 25.101562 L 22.699219 25.101562 L 22.699219 25.199219 L 16.5 25.199219 Z M 37.300781 25.101562 L 39 25.101562 L 39 25.199219 L 37.300781 25.199219 Z M 41.601562 25.101562 L 45.199219 25.101562 L 45.199219 25.199219 L 41.601562 25.199219 Z M 16.300781 25.199219 L 22.699219 25.199219 L 22.699219 25.300781 L 16.300781 25.300781 Z M 37.601562 25.199219 L 38.601562 25.199219 L 38.601562 25.300781 L 37.601562 25.300781 Z M 41.5 25.199219 L 45.199219 25.199219 L 45.199219 25.300781 L 41.5 25.300781 Z M 16.101562 25.300781 L 22.800781 25.300781 L 22.800781 25.398438 L 16.101562 25.398438 Z M 41.5 25.300781 L 45.101562 25.300781 L 45.101562 25.398438 L 41.5 25.398438 Z M 16 25.398438 L 22.898438 25.398438 L 22.898438 25.5 L 16 25.5 Z M 41.398438 25.398438 L 45.101562 25.398438 L 45.101562 25.5 L 41.398438 25.5 Z M 15.800781 25.5 L 23 25.5 L 23 25.601562 L 15.800781 25.601562 Z M 41.398438 25.5 L 45 25.5 L 45 25.601562 L 41.398438 25.601562 Z M 15.699219 25.601562 L 23 25.601562 L 23 25.699219 L 15.699219 25.699219 Z M 41.300781 25.601562 L 45 25.601562 L 45 25.699219 L 41.300781 25.699219 Z M 15.5 25.699219 L 23.101562 25.699219 L 23.101562 25.800781 L 15.5 25.800781 Z M 41.300781 25.699219 L 44.898438 25.699219 L 44.898438 25.800781 L 41.300781 25.800781 Z M 15.398438 25.800781 L 23.101562 25.800781 L 23.101562 25.898438 L 15.398438 25.898438 Z M 41.300781 25.800781 L 44.800781 25.800781 L 44.800781 25.898438 L 41.300781 25.898438 Z M 15.300781 25.898438 L 23.199219 25.898438 L 23.199219 26 L 15.300781 26 Z M 46.601562 25.898438 L 47.199219 25.898438 L 47.199219 26 L 46.601562 26 Z M 15.101562 26 L 23.199219 26 L 23.199219 26.101562 L 15.101562 26.101562 Z M 41.300781 25.898438 L 44.699219 25.898438 L 44.699219 26.101562 L 41.300781 26.101562 Z M 46.199219 26 L 47.398438 26 L 47.398438 26.101562 L 46.199219 26.101562 Z M 15 26.101562 L 23.199219 26.101562 L 23.199219 26.199219 L 15 26.199219 Z M 46.101562 26.101562 L 47.601562 26.101562 L 47.601562 26.199219 L 46.101562 26.199219 Z M 41.199219 26.101562 L 44.601562 26.101562 L 44.601562 26.199219 L 41.199219 26.199219 Z M 14.898438 26.199219 L 23.300781 26.199219 L 23.300781 26.300781 L 14.898438 26.300781 Z M 45.898438 26.199219 L 47.601562 26.199219 L 47.601562 26.300781 L 45.898438 26.300781 Z M 41.199219 26.199219 L 44.5 26.199219 L 44.5 26.300781 L 41.199219 26.300781 Z M 14.800781 26.300781 L 23.300781 26.300781 L 23.300781 26.398438 L 14.800781 26.398438 Z M 41.199219 26.300781 L 44.398438 26.300781 L 44.398438 26.398438 L 41.199219 26.398438 Z M 45.699219 26.300781 L 47.699219 26.300781 L 47.699219 26.398438 L 45.699219 26.398438 Z M 14.699219 26.398438 L 23.300781 26.398438 L 23.300781 26.5 L 14.699219 26.5 Z M 45.601562 26.398438 L 47.699219 26.398438 L 47.699219 26.5 L 45.601562 26.5 Z M 41.300781 26.398438 L 44.300781 26.398438 L 44.300781 26.5 L 41.300781 26.5 Z M 14.601562 26.5 L 23.300781 26.5 L 23.300781 26.601562 L 14.601562 26.601562 Z M 28.5 26.5 L 28.601562 26.5 L 28.601562 26.601562 L 28.5 26.601562 Z M 45.5 26.5 L 47.699219 26.5 L 47.699219 26.601562 L 45.5 26.601562 Z M 41.300781 26.5 L 44.199219 26.5 L 44.199219 26.601562 L 41.300781 26.601562 Z M 14.5 26.601562 L 23.300781 26.601562 L 23.300781 26.699219 L 14.5 26.699219 Z M 27.300781 26.601562 L 29.101562 26.601562 L 29.101562 26.699219 L 27.300781 26.699219 Z M 45.398438 26.601562 L 47.699219 26.601562 L 47.699219 26.699219 L 45.398438 26.699219 Z M 41.300781 26.601562 L 44.101562 26.601562 L 44.101562 26.699219 L 41.300781 26.699219 Z M 14.398438 26.699219 L 23.300781 26.699219 L 23.300781 26.800781 L 14.398438 26.800781 Z M 26.898438 26.699219 L 29.398438 26.699219 L 29.398438 26.800781 L 26.898438 26.800781 Z M 45.300781 26.699219 L 47.699219 26.699219 L 47.699219 26.800781 L 45.300781 26.800781 Z M 41.300781 26.699219 L 43.898438 26.699219 L 43.898438 26.800781 L 41.300781 26.800781 Z M 14.300781 26.800781 L 23.300781 26.800781 L 23.300781 26.898438 L 14.300781 26.898438 Z M 26.601562 26.800781 L 29.601562 26.800781 L 29.601562 26.898438 L 26.601562 26.898438 Z M 41.300781 26.800781 L 43.800781 26.800781 L 43.800781 26.898438 L 41.300781 26.898438 Z M 45.199219 26.800781 L 47.699219 26.800781 L 47.699219 26.898438 L 45.199219 26.898438 Z M 14.199219 26.898438 L 23.398438 26.898438 L 23.398438 27 L 14.199219 27 Z M 26.300781 26.898438 L 29.800781 26.898438 L 29.800781 27 L 26.300781 27 Z M 41.398438 26.898438 L 43.601562 26.898438 L 43.601562 27 L 41.398438 27 Z M 45.101562 26.898438 L 47.699219 26.898438 L 47.699219 27 L 45.101562 27 Z M 14.101562 27 L 23.398438 27 L 23.398438 27.101562 L 14.101562 27.101562 Z M 26.101562 27 L 29.898438 27 L 29.898438 27.101562 L 26.101562 27.101562 Z M 41.5 27 L 43.398438 27 L 43.398438 27.101562 L 41.5 27.101562 Z M 45 27 L 47.699219 27 L 47.699219 27.101562 L 45 27.101562 Z M 25.898438 27.101562 L 30 27.101562 L 30 27.199219 L 25.898438 27.199219 Z M 41.699219 27.101562 L 43.199219 27.101562 L 43.199219 27.199219 L 41.699219 27.199219 Z M 14 27.101562 L 23.398438 27.101562 L 23.398438 27.199219 L 14 27.199219 Z M 14 27.199219 L 23.300781 27.199219 L 23.300781 27.300781 L 14 27.300781 Z M 25.699219 27.199219 L 30.101562 27.199219 L 30.101562 27.300781 L 25.699219 27.300781 Z M 41.800781 27.199219 L 42.898438 27.199219 L 42.898438 27.300781 L 41.800781 27.300781 Z M 44.898438 27.101562 L 47.601562 27.101562 L 47.601562 27.300781 L 44.898438 27.300781 Z M 13.898438 27.300781 L 23.300781 27.300781 L 23.300781 27.398438 L 13.898438 27.398438 Z M 25.601562 27.300781 L 30.199219 27.300781 L 30.199219 27.398438 L 25.601562 27.398438 Z M 44.800781 27.300781 L 47.601562 27.300781 L 47.601562 27.398438 L 44.800781 27.398438 Z M 13.800781 27.398438 L 23.300781 27.398438 L 23.300781 27.5 L 13.800781 27.5 Z M 25.398438 27.398438 L 30.199219 27.398438 L 30.199219 27.5 L 25.398438 27.5 Z M 44.800781 27.398438 L 47.5 27.398438 L 47.5 27.5 L 44.800781 27.5 Z M 25.300781 27.5 L 30.300781 27.5 L 30.300781 27.601562 L 25.300781 27.601562 Z M 44.699219 27.5 L 47.5 27.5 L 47.5 27.601562 L 44.699219 27.601562 Z M 13.699219 27.5 L 23.300781 27.5 L 23.300781 27.699219 L 13.699219 27.699219 Z M 25.101562 27.601562 L 30.398438 27.601562 L 30.398438 27.699219 L 25.101562 27.699219 Z M 44.699219 27.601562 L 47.398438 27.601562 L 47.398438 27.699219 L 44.699219 27.699219 Z M 25 27.699219 L 30.398438 27.699219 L 30.398438 27.800781 L 25 27.800781 Z M 44.699219 27.699219 L 47.300781 27.699219 L 47.300781 27.800781 L 44.699219 27.800781 Z M 13.601562 27.699219 L 23.300781 27.699219 L 23.300781 27.800781 L 13.601562 27.800781 Z M 13.601562 27.800781 L 23.199219 27.800781 L 23.199219 27.898438 L 13.601562 27.898438 Z M 24.800781 27.800781 L 30.398438 27.800781 L 30.398438 27.898438 L 24.800781 27.898438 Z M 13.5 27.898438 L 23.199219 27.898438 L 23.199219 28 L 13.5 28 Z M 24.699219 27.898438 L 30.398438 27.898438 L 30.398438 28 L 24.699219 28 Z M 44.601562 27.800781 L 47.199219 27.800781 L 47.199219 28 L 44.601562 28 Z M 24.601562 28 L 30.5 28 L 30.5 28.101562 L 24.601562 28.101562 Z M 13.398438 28 L 23.199219 28 L 23.199219 28.101562 L 13.398438 28.101562 Z M 44.601562 28 L 47 28 L 47 28.101562 L 44.601562 28.101562 Z M 13.398438 28.101562 L 23.101562 28.101562 L 23.101562 28.199219 L 13.398438 28.199219 Z M 24.5 28.101562 L 30.5 28.101562 L 30.5 28.199219 L 24.5 28.199219 Z M 44.601562 28.101562 L 46.898438 28.101562 L 46.898438 28.199219 L 44.601562 28.199219 Z M 24.398438 28.199219 L 30.5 28.199219 L 30.5 28.300781 L 24.398438 28.300781 Z M 44.601562 28.199219 L 46.800781 28.199219 L 46.800781 28.300781 L 44.601562 28.300781 Z M 13.300781 28.199219 L 23.101562 28.199219 L 23.101562 28.398438 L 13.300781 28.398438 Z M 24.300781 28.300781 L 30.5 28.300781 L 30.5 28.398438 L 24.300781 28.398438 Z M 44.699219 28.300781 L 46.699219 28.300781 L 46.699219 28.398438 L 44.699219 28.398438 Z M 24.199219 28.398438 L 30.5 28.398438 L 30.5 28.5 L 24.199219 28.5 Z M 35.101562 28.398438 L 35.800781 28.398438 L 35.800781 28.5 L 35.101562 28.5 Z M 44.699219 28.398438 L 46.601562 28.398438 L 46.601562 28.5 L 44.699219 28.5 Z M 24.101562 28.5 L 30.5 28.5 L 30.5 28.601562 L 24.101562 28.601562 Z M 34.601562 28.5 L 36.199219 28.5 L 36.199219 28.601562 L 34.601562 28.601562 Z M 13.199219 28.398438 L 23 28.398438 L 23 28.601562 L 13.199219 28.601562 Z M 44.800781 28.5 L 46.398438 28.5 L 46.398438 28.601562 L 44.800781 28.601562 Z M 13.199219 28.601562 L 22.898438 28.601562 L 22.898438 28.699219 L 13.199219 28.699219 Z M 24 28.601562 L 30.5 28.601562 L 30.5 28.699219 L 24 28.699219 Z M 34.300781 28.601562 L 36.5 28.601562 L 36.5 28.699219 L 34.300781 28.699219 Z M 44.800781 28.601562 L 46.199219 28.601562 L 46.199219 28.699219 L 44.800781 28.699219 Z M 23.898438 28.699219 L 30.5 28.699219 L 30.5 28.800781 L 23.898438 28.800781 Z M 34.101562 28.699219 L 36.601562 28.699219 L 36.601562 28.800781 L 34.101562 28.800781 Z M 45 28.699219 L 45.898438 28.699219 L 45.898438 28.800781 L 45 28.800781 Z M 13.101562 28.699219 L 22.898438 28.699219 L 22.898438 28.800781 L 13.101562 28.800781 Z M 13.101562 28.800781 L 22.800781 28.800781 L 22.800781 28.898438 L 13.101562 28.898438 Z M 33.898438 28.800781 L 36.699219 28.800781 L 36.699219 28.898438 L 33.898438 28.898438 Z M 23.800781 28.800781 L 30.5 28.800781 L 30.5 29 L 23.800781 29 Z M 33.699219 28.898438 L 36.800781 28.898438 L 36.800781 29 L 33.699219 29 Z M 13 28.898438 L 22.800781 28.898438 L 22.800781 29 L 13 29 Z M 23.699219 29 L 30.398438 29 L 30.398438 29.101562 L 23.699219 29.101562 Z M 33.5 29 L 36.800781 29 L 36.800781 29.101562 L 33.5 29.101562 Z M 13 29 L 22.699219 29 L 22.699219 29.101562 L 13 29.101562 Z M 33.398438 29.101562 L 36.898438 29.101562 L 36.898438 29.199219 L 33.398438 29.199219 Z M 23.601562 29.101562 L 30.398438 29.101562 L 30.398438 29.300781 L 23.601562 29.300781 Z M 33.199219 29.199219 L 36.898438 29.199219 L 36.898438 29.300781 L 33.199219 29.300781 Z M 13 29.101562 L 22.601562 29.101562 L 22.601562 29.300781 L 13 29.300781 Z M 13 29.300781 L 22.5 29.300781 L 22.5 29.398438 L 13 29.398438 Z M 23.5 29.300781 L 30.398438 29.300781 L 30.398438 29.398438 L 23.5 29.398438 Z M 33.101562 29.300781 L 37 29.300781 L 37 29.398438 L 33.101562 29.398438 Z M 32.898438 29.398438 L 37 29.398438 L 37 29.5 L 32.898438 29.5 Z M 23.398438 29.398438 L 30.300781 29.398438 L 30.300781 29.601562 L 23.398438 29.601562 Z M 32.800781 29.5 L 37 29.5 L 37 29.601562 L 32.800781 29.601562 Z M 12.898438 29.398438 L 22.398438 29.398438 L 22.398438 29.601562 L 12.898438 29.601562 Z M 32.699219 29.601562 L 37 29.601562 L 37 29.699219 L 32.699219 29.699219 Z M 12.898438 29.601562 L 22.300781 29.601562 L 22.300781 29.699219 L 12.898438 29.699219 Z M 23.300781 29.601562 L 30.199219 29.601562 L 30.199219 29.800781 L 23.300781 29.800781 Z M 32.601562 29.699219 L 37 29.699219 L 37 29.800781 L 32.601562 29.800781 Z M 12.898438 29.699219 L 22.199219 29.699219 L 22.199219 29.800781 L 12.898438 29.800781 Z M 32.5 29.800781 L 37 29.800781 L 37 29.898438 L 32.5 29.898438 Z M 40 29.800781 L 41.101562 29.800781 L 41.101562 29.898438 L 40 29.898438 Z M 32.398438 29.898438 L 37 29.898438 L 37 30 L 32.398438 30 Z M 39.699219 29.898438 L 41.398438 29.898438 L 41.398438 30 L 39.699219 30 Z M 12.898438 29.800781 L 22.101562 29.800781 L 22.101562 30 L 12.898438 30 Z M 23.199219 29.800781 L 30.101562 29.800781 L 30.101562 30 L 23.199219 30 Z M 23.199219 30 L 30 30 L 30 30.101562 L 23.199219 30.101562 Z M 32.300781 30 L 37 30 L 37 30.101562 L 32.300781 30.101562 Z M 39.5 30 L 41.398438 30 L 41.398438 30.101562 L 39.5 30.101562 Z M 12.898438 30 L 22 30 L 22 30.101562 L 12.898438 30.101562 Z M 39.300781 30.101562 L 41.5 30.101562 L 41.5 30.199219 L 39.300781 30.199219 Z M 12.898438 30.101562 L 21.898438 30.101562 L 21.898438 30.199219 L 12.898438 30.199219 Z M 23.101562 30.101562 L 30 30.101562 L 30 30.199219 L 23.101562 30.199219 Z M 32.199219 30.101562 L 37 30.101562 L 37 30.300781 L 32.199219 30.300781 Z M 39.101562 30.199219 L 41.601562 30.199219 L 41.601562 30.300781 L 39.101562 30.300781 Z M 12.898438 30.199219 L 21.800781 30.199219 L 21.800781 30.300781 L 12.898438 30.300781 Z M 23.101562 30.199219 L 29.898438 30.199219 L 29.898438 30.300781 L 23.101562 30.300781 Z M 23.101562 30.300781 L 29.800781 30.300781 L 29.800781 30.398438 L 23.101562 30.398438 Z M 32.101562 30.300781 L 37 30.300781 L 37 30.398438 L 32.101562 30.398438 Z M 39 30.300781 L 41.699219 30.300781 L 41.699219 30.398438 L 39 30.398438 Z M 12.898438 30.300781 L 21.699219 30.300781 L 21.699219 30.398438 L 12.898438 30.398438 Z M 38.898438 30.398438 L 41.699219 30.398438 L 41.699219 30.5 L 38.898438 30.5 Z M 12.898438 30.398438 L 21.601562 30.398438 L 21.601562 30.5 L 12.898438 30.5 Z M 23 30.398438 L 29.800781 30.398438 L 29.800781 30.5 L 23 30.5 Z M 12.898438 30.5 L 21.5 30.5 L 21.5 30.601562 L 12.898438 30.601562 Z M 32 30.398438 L 36.898438 30.398438 L 36.898438 30.601562 L 32 30.601562 Z M 38.800781 30.5 L 41.699219 30.5 L 41.699219 30.601562 L 38.800781 30.601562 Z M 23 30.5 L 29.699219 30.5 L 29.699219 30.601562 L 23 30.601562 Z M 38.601562 30.601562 L 41.699219 30.601562 L 41.699219 30.699219 L 38.601562 30.699219 Z M 13 30.601562 L 21.398438 30.601562 L 21.398438 30.699219 L 13 30.699219 Z M 23 30.601562 L 29.601562 30.601562 L 29.601562 30.699219 L 23 30.699219 Z M 31.898438 30.601562 L 36.800781 30.601562 L 36.800781 30.800781 L 31.898438 30.800781 Z M 38.5 30.699219 L 41.699219 30.699219 L 41.699219 30.800781 L 38.5 30.800781 Z M 13 30.699219 L 21.199219 30.699219 L 21.199219 30.800781 L 13 30.800781 Z M 23 30.699219 L 29.5 30.699219 L 29.5 30.800781 L 23 30.800781 Z M 13 30.800781 L 21.101562 30.800781 L 21.101562 30.898438 L 13 30.898438 Z M 38.398438 30.800781 L 41.699219 30.800781 L 41.699219 30.898438 L 38.398438 30.898438 Z M 43.800781 30.800781 L 44.898438 30.800781 L 44.898438 30.898438 L 43.800781 30.898438 Z M 23 30.800781 L 29.398438 30.800781 L 29.398438 30.898438 L 23 30.898438 Z M 31.800781 30.800781 L 36.699219 30.800781 L 36.699219 31 L 31.800781 31 Z M 43.601562 30.898438 L 45 30.898438 L 45 31 L 43.601562 31 Z M 13.101562 30.898438 L 21 30.898438 L 21 31 L 13.101562 31 Z M 13.101562 31 L 20.898438 31 L 20.898438 31.101562 L 13.101562 31.101562 Z M 38.300781 30.898438 L 41.699219 30.898438 L 41.699219 31.101562 L 38.300781 31.101562 Z M 43.398438 31 L 45.101562 31 L 45.101562 31.101562 L 43.398438 31.101562 Z M 23 30.898438 L 29.300781 30.898438 L 29.300781 31.101562 L 23 31.101562 Z M 31.699219 31 L 36.601562 31 L 36.601562 31.101562 L 31.699219 31.101562 Z M 31.699219 31.101562 L 36.5 31.101562 L 36.5 31.199219 L 31.699219 31.199219 Z M 38.199219 31.101562 L 41.699219 31.101562 L 41.699219 31.199219 L 38.199219 31.199219 Z M 43.199219 31.101562 L 45.101562 31.101562 L 45.101562 31.199219 L 43.199219 31.199219 Z M 13.199219 31.101562 L 20.800781 31.101562 L 20.800781 31.199219 L 13.199219 31.199219 Z M 23 31.101562 L 29.199219 31.101562 L 29.199219 31.199219 L 23 31.199219 Z M 38.101562 31.199219 L 41.601562 31.199219 L 41.601562 31.300781 L 38.101562 31.300781 Z M 43.101562 31.199219 L 45.199219 31.199219 L 45.199219 31.300781 L 43.101562 31.300781 Z M 13.199219 31.199219 L 20.601562 31.199219 L 20.601562 31.300781 L 13.199219 31.300781 Z M 23 31.199219 L 29.101562 31.199219 L 29.101562 31.300781 L 23 31.300781 Z M 31.601562 31.199219 L 36.5 31.199219 L 36.5 31.300781 L 31.601562 31.300781 Z M 13.199219 31.300781 L 20.5 31.300781 L 20.5 31.398438 L 13.199219 31.398438 Z M 38 31.300781 L 41.601562 31.300781 L 41.601562 31.398438 L 38 31.398438 Z M 43 31.300781 L 45.199219 31.300781 L 45.199219 31.398438 L 43 31.398438 Z M 23 31.300781 L 28.898438 31.300781 L 28.898438 31.398438 L 23 31.398438 Z M 31.601562 31.300781 L 36.398438 31.300781 L 36.398438 31.398438 L 31.601562 31.398438 Z M 13.300781 31.398438 L 20.300781 31.398438 L 20.300781 31.5 L 13.300781 31.5 Z M 23 31.398438 L 28.800781 31.398438 L 28.800781 31.5 L 23 31.5 Z M 42.800781 31.398438 L 45.199219 31.398438 L 45.199219 31.5 L 42.800781 31.5 Z M 31.601562 31.398438 L 36.300781 31.398438 L 36.300781 31.5 L 31.601562 31.5 Z M 37.898438 31.398438 L 41.601562 31.398438 L 41.601562 31.5 L 37.898438 31.5 Z M 13.398438 31.5 L 20.199219 31.5 L 20.199219 31.601562 L 13.398438 31.601562 Z M 37.898438 31.5 L 41.5 31.5 L 41.5 31.601562 L 37.898438 31.601562 Z M 42.699219 31.5 L 45.199219 31.5 L 45.199219 31.601562 L 42.699219 31.601562 Z M 23.101562 31.5 L 28.699219 31.5 L 28.699219 31.601562 L 23.101562 31.601562 Z M 13.5 31.601562 L 20 31.601562 L 20 31.699219 L 13.5 31.699219 Z M 31.601562 31.5 L 36.199219 31.5 L 36.199219 31.699219 L 31.601562 31.699219 Z M 23.101562 31.601562 L 28.601562 31.601562 L 28.601562 31.699219 L 23.101562 31.699219 Z M 37.800781 31.601562 L 41.5 31.601562 L 41.5 31.699219 L 37.800781 31.699219 Z M 13.601562 31.699219 L 19.800781 31.699219 L 19.800781 31.800781 L 13.601562 31.800781 Z M 23.101562 31.699219 L 28.5 31.699219 L 28.5 31.800781 L 23.101562 31.800781 Z M 31.5 31.699219 L 36.101562 31.699219 L 36.101562 31.800781 L 31.5 31.800781 Z M 37.800781 31.699219 L 41.398438 31.699219 L 41.398438 31.800781 L 37.800781 31.800781 Z M 42.601562 31.601562 L 45.199219 31.601562 L 45.199219 31.800781 L 42.601562 31.800781 Z M 42.5 31.800781 L 45.101562 31.800781 L 45.101562 31.898438 L 42.5 31.898438 Z M 13.699219 31.800781 L 19.601562 31.800781 L 19.601562 31.898438 L 13.699219 31.898438 Z M 23.199219 31.800781 L 28.300781 31.800781 L 28.300781 31.898438 L 23.199219 31.898438 Z M 31.601562 31.800781 L 36 31.800781 L 36 31.898438 L 31.601562 31.898438 Z M 13.699219 31.898438 L 19.398438 31.898438 L 19.398438 32 L 13.699219 32 Z M 23.199219 31.898438 L 28.199219 31.898438 L 28.199219 32 L 23.199219 32 Z M 42.398438 31.898438 L 45.101562 31.898438 L 45.101562 32 L 42.398438 32 Z M 31.601562 31.898438 L 35.898438 31.898438 L 35.898438 32 L 31.601562 32 Z M 37.699219 31.800781 L 41.300781 31.800781 L 41.300781 32 L 37.699219 32 Z M 13.898438 32 L 19.199219 32 L 19.199219 32.101562 L 13.898438 32.101562 Z M 23.300781 32 L 28 32 L 28 32.101562 L 23.300781 32.101562 Z M 31.601562 32 L 35.800781 32 L 35.800781 32.101562 L 31.601562 32.101562 Z M 37.699219 32 L 41.199219 32 L 41.199219 32.101562 L 37.699219 32.101562 Z M 42.300781 32 L 45.101562 32 L 45.101562 32.101562 L 42.300781 32.101562 Z M 14 32.101562 L 19 32.101562 L 19 32.199219 L 14 32.199219 Z M 37.699219 32.101562 L 41.101562 32.101562 L 41.101562 32.199219 L 37.699219 32.199219 Z M 42.300781 32.101562 L 45 32.101562 L 45 32.199219 L 42.300781 32.199219 Z M 23.398438 32.101562 L 27.800781 32.101562 L 27.800781 32.199219 L 23.398438 32.199219 Z M 31.601562 32.101562 L 35.601562 32.101562 L 35.601562 32.199219 L 31.601562 32.199219 Z M 14.199219 32.199219 L 18.699219 32.199219 L 18.699219 32.300781 L 14.199219 32.300781 Z M 23.398438 32.199219 L 27.699219 32.199219 L 27.699219 32.300781 L 23.398438 32.300781 Z M 31.601562 32.199219 L 35.5 32.199219 L 35.5 32.300781 L 31.601562 32.300781 Z M 37.601562 32.199219 L 41 32.199219 L 41 32.300781 L 37.601562 32.300781 Z M 42.199219 32.199219 L 45 32.199219 L 45 32.300781 L 42.199219 32.300781 Z M 14.398438 32.300781 L 18.5 32.300781 L 18.5 32.398438 L 14.398438 32.398438 Z M 23.5 32.300781 L 27.5 32.300781 L 27.5 32.398438 L 23.5 32.398438 Z M 42.199219 32.300781 L 44.898438 32.300781 L 44.898438 32.398438 L 42.199219 32.398438 Z M 31.601562 32.300781 L 35.398438 32.300781 L 35.398438 32.398438 L 31.601562 32.398438 Z M 37.601562 32.300781 L 40.898438 32.300781 L 40.898438 32.398438 L 37.601562 32.398438 Z M 14.601562 32.398438 L 18.199219 32.398438 L 18.199219 32.5 L 14.601562 32.5 Z M 23.699219 32.398438 L 27.300781 32.398438 L 27.300781 32.5 L 23.699219 32.5 Z M 31.601562 32.398438 L 35.199219 32.398438 L 35.199219 32.5 L 31.601562 32.5 Z M 37.601562 32.398438 L 40.800781 32.398438 L 40.800781 32.5 L 37.601562 32.5 Z M 42.101562 32.398438 L 44.800781 32.398438 L 44.800781 32.5 L 42.101562 32.5 Z M 14.898438 32.5 L 17.800781 32.5 L 17.800781 32.601562 L 14.898438 32.601562 Z M 23.800781 32.5 L 27 32.5 L 27 32.601562 L 23.800781 32.601562 Z M 31.699219 32.5 L 35.101562 32.5 L 35.101562 32.601562 L 31.699219 32.601562 Z M 37.601562 32.5 L 40.699219 32.5 L 40.699219 32.601562 L 37.601562 32.601562 Z M 15.398438 32.601562 L 17.300781 32.601562 L 17.300781 32.699219 L 15.398438 32.699219 Z M 24 32.601562 L 26.800781 32.601562 L 26.800781 32.699219 L 24 32.699219 Z M 31.800781 32.601562 L 35 32.601562 L 35 32.699219 L 31.800781 32.699219 Z M 37.699219 32.601562 L 40.601562 32.601562 L 40.601562 32.699219 L 37.699219 32.699219 Z M 42.101562 32.5 L 44.699219 32.5 L 44.699219 32.699219 L 42.101562 32.699219 Z M 24.199219 32.699219 L 26.398438 32.699219 L 26.398438 32.800781 L 24.199219 32.800781 Z M 31.800781 32.699219 L 34.800781 32.699219 L 34.800781 32.800781 L 31.800781 32.800781 Z M 37.699219 32.699219 L 40.5 32.699219 L 40.5 32.800781 L 37.699219 32.800781 Z M 42.101562 32.699219 L 44.601562 32.699219 L 44.601562 32.800781 L 42.101562 32.800781 Z M 24.601562 32.800781 L 26 32.800781 L 26 32.898438 L 24.601562 32.898438 Z M 31.898438 32.800781 L 34.601562 32.800781 L 34.601562 32.898438 L 31.898438 32.898438 Z M 37.699219 32.800781 L 40.300781 32.800781 L 40.300781 32.898438 L 37.699219 32.898438 Z M 42.101562 32.800781 L 44.5 32.800781 L 44.5 32.898438 L 42.101562 32.898438 Z M 32.101562 32.898438 L 34.398438 32.898438 L 34.398438 33 L 32.101562 33 Z M 37.699219 32.898438 L 40.199219 32.898438 L 40.199219 33 L 37.699219 33 Z M 42.101562 32.898438 L 44.300781 32.898438 L 44.300781 33 L 42.101562 33 Z M 32.199219 33 L 34.101562 33 L 34.101562 33.101562 L 32.199219 33.101562 Z M 37.800781 33 L 40 33 L 40 33.101562 L 37.800781 33.101562 Z M 42.101562 33 L 44.199219 33 L 44.199219 33.101562 L 42.101562 33.101562 Z M 32.5 33.101562 L 33.699219 33.101562 L 33.699219 33.199219 L 32.5 33.199219 Z M 37.898438 33.101562 L 39.800781 33.101562 L 39.800781 33.199219 L 37.898438 33.199219 Z M 42.101562 33.101562 L 44.101562 33.101562 L 44.101562 33.199219 L 42.101562 33.199219 Z M 38 33.199219 L 39.601562 33.199219 L 39.601562 33.300781 L 38 33.300781 Z M 42.101562 33.199219 L 44 33.199219 L 44 33.300781 L 42.101562 33.300781 Z M 38.300781 33.300781 L 39.300781 33.300781 L 39.300781 33.398438 L 38.300781 33.398438 Z M 42.199219 33.300781 L 43.800781 33.300781 L 43.800781 33.398438 L 42.199219 33.398438 Z M 42.300781 33.398438 L 43.601562 33.398438 L 43.601562 33.5 L 42.300781 33.5 Z M 42.5 33.5 L 43.300781 33.5 L 43.300781 33.601562 L 42.5 33.601562 Z M 42.800781 35.300781 L 43.398438 35.300781 L 43.398438 35.398438 L 42.800781 35.398438 Z M 42.5 35.398438 L 43.699219 35.398438 L 43.699219 35.5 L 42.5 35.5 Z M 42.199219 35.5 L 43.800781 35.5 L 43.800781 35.601562 L 42.199219 35.601562 Z M 42 35.601562 L 43.800781 35.601562 L 43.800781 35.699219 L 42 35.699219 Z M 41.898438 35.699219 L 43.898438 35.699219 L 43.898438 35.800781 L 41.898438 35.800781 Z M 38.101562 35.800781 L 39.199219 35.800781 L 39.199219 35.898438 L 38.101562 35.898438 Z M 41.800781 35.800781 L 43.898438 35.800781 L 43.898438 35.898438 L 41.800781 35.898438 Z M 37.800781 35.898438 L 39.5 35.898438 L 39.5 36 L 37.800781 36 Z M 41.601562 35.898438 L 43.898438 35.898438 L 43.898438 36 L 41.601562 36 Z M 37.601562 36 L 39.601562 36 L 39.601562 36.101562 L 37.601562 36.101562 Z M 41.5 36 L 43.898438 36 L 43.898438 36.101562 L 41.5 36.101562 Z M 37.398438 36.101562 L 39.601562 36.101562 L 39.601562 36.199219 L 37.398438 36.199219 Z M 41.398438 36.101562 L 43.898438 36.101562 L 43.898438 36.199219 L 41.398438 36.199219 Z M 37.199219 36.199219 L 39.699219 36.199219 L 39.699219 36.300781 L 37.199219 36.300781 Z M 41.300781 36.199219 L 43.898438 36.199219 L 43.898438 36.300781 L 41.300781 36.300781 Z M 37.101562 36.300781 L 39.699219 36.300781 L 39.699219 36.398438 L 37.101562 36.398438 Z M 41.300781 36.300781 L 43.800781 36.300781 L 43.800781 36.398438 L 41.300781 36.398438 Z M 32.101562 36.398438 L 33.398438 36.398438 L 33.398438 36.5 L 32.101562 36.5 Z M 36.898438 36.398438 L 39.800781 36.398438 L 39.800781 36.5 L 36.898438 36.5 Z M 41.199219 36.398438 L 43.800781 36.398438 L 43.800781 36.5 L 41.199219 36.5 Z M 31.800781 36.5 L 33.699219 36.5 L 33.699219 36.601562 L 31.800781 36.601562 Z M 36.800781 36.5 L 39.800781 36.5 L 39.800781 36.601562 L 36.800781 36.601562 Z M 41.101562 36.5 L 43.699219 36.5 L 43.699219 36.601562 L 41.101562 36.601562 Z M 31.5 36.601562 L 33.898438 36.601562 L 33.898438 36.699219 L 31.5 36.699219 Z M 36.699219 36.601562 L 39.800781 36.601562 L 39.800781 36.699219 L 36.699219 36.699219 Z M 41 36.601562 L 43.699219 36.601562 L 43.699219 36.699219 L 41 36.699219 Z M 31.199219 36.699219 L 33.898438 36.699219 L 33.898438 36.800781 L 31.199219 36.800781 Z M 36.601562 36.699219 L 39.800781 36.699219 L 39.800781 36.800781 L 36.601562 36.800781 Z M 41 36.699219 L 43.601562 36.699219 L 43.601562 36.800781 L 41 36.800781 Z M 31 36.800781 L 34 36.800781 L 34 36.898438 L 31 36.898438 Z M 36.5 36.800781 L 39.699219 36.800781 L 39.699219 36.898438 L 36.5 36.898438 Z M 40.898438 36.800781 L 43.601562 36.800781 L 43.601562 36.898438 L 40.898438 36.898438 Z M 30.800781 36.898438 L 34.101562 36.898438 L 34.101562 37 L 30.800781 37 Z M 36.398438 36.898438 L 39.699219 36.898438 L 39.699219 37 L 36.398438 37 Z M 40.898438 36.898438 L 43.5 36.898438 L 43.5 37 L 40.898438 37 Z M 30.699219 37 L 34.199219 37 L 34.199219 37.101562 L 30.699219 37.101562 Z M 36.300781 37 L 39.699219 37 L 39.699219 37.101562 L 36.300781 37.101562 Z M 40.898438 37 L 43.398438 37 L 43.398438 37.101562 L 40.898438 37.101562 Z M 30.601562 37.101562 L 34.199219 37.101562 L 34.199219 37.199219 L 30.601562 37.199219 Z M 36.199219 37.101562 L 39.699219 37.101562 L 39.699219 37.199219 L 36.199219 37.199219 Z M 40.800781 37.101562 L 43.300781 37.101562 L 43.300781 37.199219 L 40.800781 37.199219 Z M 23.898438 37.199219 L 25.398438 37.199219 L 25.398438 37.300781 L 23.898438 37.300781 Z M 30.398438 37.199219 L 34.199219 37.199219 L 34.199219 37.300781 L 30.398438 37.300781 Z M 23.398438 37.300781 L 25.699219 37.300781 L 25.699219 37.398438 L 23.398438 37.398438 Z M 30.300781 37.300781 L 34.199219 37.300781 L 34.199219 37.398438 L 30.300781 37.398438 Z M 36.101562 37.199219 L 39.601562 37.199219 L 39.601562 37.398438 L 36.101562 37.398438 Z M 40.800781 37.199219 L 43.199219 37.199219 L 43.199219 37.398438 L 40.800781 37.398438 Z M 23.101562 37.398438 L 25.898438 37.398438 L 25.898438 37.5 L 23.101562 37.5 Z M 30.199219 37.398438 L 34.300781 37.398438 L 34.300781 37.5 L 30.199219 37.5 Z M 40.800781 37.398438 L 43 37.398438 L 43 37.5 L 40.800781 37.5 Z M 22.800781 37.5 L 26.101562 37.5 L 26.101562 37.601562 L 22.800781 37.601562 Z M 36 37.398438 L 39.5 37.398438 L 39.5 37.601562 L 36 37.601562 Z M 40.800781 37.5 L 42.898438 37.5 L 42.898438 37.601562 L 40.800781 37.601562 Z M 22.601562 37.601562 L 26.199219 37.601562 L 26.199219 37.699219 L 22.601562 37.699219 Z M 30 37.5 L 34.199219 37.5 L 34.199219 37.699219 L 30 37.699219 Z M 40.800781 37.601562 L 42.800781 37.601562 L 42.800781 37.699219 L 40.800781 37.699219 Z M 22.398438 37.699219 L 26.300781 37.699219 L 26.300781 37.800781 L 22.398438 37.800781 Z M 29.898438 37.699219 L 34.199219 37.699219 L 34.199219 37.800781 L 29.898438 37.800781 Z M 35.898438 37.601562 L 39.398438 37.601562 L 39.398438 37.800781 L 35.898438 37.800781 Z M 40.898438 37.699219 L 42.601562 37.699219 L 42.601562 37.800781 L 40.898438 37.800781 Z M 22.199219 37.800781 L 26.398438 37.800781 L 26.398438 37.898438 L 22.199219 37.898438 Z M 29.800781 37.800781 L 34.199219 37.800781 L 34.199219 37.898438 L 29.800781 37.898438 Z M 41 37.800781 L 42.398438 37.800781 L 42.398438 37.898438 L 41 37.898438 Z M 35.800781 37.800781 L 39.300781 37.800781 L 39.300781 37.898438 L 35.800781 37.898438 Z M 22 37.898438 L 26.5 37.898438 L 26.5 38 L 22 38 Z M 29.699219 37.898438 L 34.199219 37.898438 L 34.199219 38 L 29.699219 38 Z M 41.101562 37.898438 L 42.199219 37.898438 L 42.199219 38 L 41.101562 38 Z M 35.800781 37.898438 L 39.199219 37.898438 L 39.199219 38 L 35.800781 38 Z M 14.5 38 L 16.601562 38 L 16.601562 38.101562 L 14.5 38.101562 Z M 21.800781 38 L 26.5 38 L 26.5 38.101562 L 21.800781 38.101562 Z M 29.601562 38 L 34.199219 38 L 34.199219 38.101562 L 29.601562 38.101562 Z M 35.800781 38 L 39.101562 38 L 39.101562 38.101562 L 35.800781 38.101562 Z M 41.300781 38 L 41.601562 38 L 41.601562 38.101562 L 41.300781 38.101562 Z M 14 38.101562 L 17 38.101562 L 17 38.199219 L 14 38.199219 Z M 21.699219 38.101562 L 26.601562 38.101562 L 26.601562 38.199219 L 21.699219 38.199219 Z M 29.5 38.101562 L 34.101562 38.101562 L 34.101562 38.199219 L 29.5 38.199219 Z M 35.699219 38.101562 L 39 38.101562 L 39 38.199219 L 35.699219 38.199219 Z M 13.601562 38.199219 L 17.199219 38.199219 L 17.199219 38.300781 L 13.601562 38.300781 Z M 21.5 38.199219 L 26.601562 38.199219 L 26.601562 38.300781 L 21.5 38.300781 Z M 29.398438 38.199219 L 34.101562 38.199219 L 34.101562 38.300781 L 29.398438 38.300781 Z M 35.699219 38.199219 L 38.898438 38.199219 L 38.898438 38.300781 L 35.699219 38.300781 Z M 13.300781 38.300781 L 17.5 38.300781 L 17.5 38.398438 L 13.300781 38.398438 Z M 21.398438 38.300781 L 26.601562 38.300781 L 26.601562 38.398438 L 21.398438 38.398438 Z M 35.699219 38.300781 L 38.800781 38.300781 L 38.800781 38.398438 L 35.699219 38.398438 Z M 13 38.398438 L 17.601562 38.398438 L 17.601562 38.5 L 13 38.5 Z M 21.199219 38.398438 L 26.699219 38.398438 L 26.699219 38.5 L 21.199219 38.5 Z M 29.300781 38.300781 L 34 38.300781 L 34 38.5 L 29.300781 38.5 Z M 35.699219 38.398438 L 38.699219 38.398438 L 38.699219 38.5 L 35.699219 38.5 Z M 12.800781 38.5 L 17.699219 38.5 L 17.699219 38.601562 L 12.800781 38.601562 Z M 21.101562 38.5 L 26.699219 38.5 L 26.699219 38.601562 L 21.101562 38.601562 Z M 35.699219 38.5 L 38.601562 38.5 L 38.601562 38.601562 L 35.699219 38.601562 Z M 12.5 38.601562 L 17.898438 38.601562 L 17.898438 38.699219 L 12.5 38.699219 Z M 21 38.601562 L 26.699219 38.601562 L 26.699219 38.699219 L 21 38.699219 Z M 29.199219 38.5 L 33.898438 38.5 L 33.898438 38.699219 L 29.199219 38.699219 Z M 35.699219 38.601562 L 38.398438 38.601562 L 38.398438 38.699219 L 35.699219 38.699219 Z M 12.300781 38.699219 L 18 38.699219 L 18 38.800781 L 12.300781 38.800781 Z M 20.800781 38.699219 L 26.699219 38.699219 L 26.699219 38.800781 L 20.800781 38.800781 Z M 35.800781 38.699219 L 38.300781 38.699219 L 38.300781 38.800781 L 35.800781 38.800781 Z M 12.101562 38.800781 L 18.101562 38.800781 L 18.101562 38.898438 L 12.101562 38.898438 Z M 20.699219 38.800781 L 26.699219 38.800781 L 26.699219 38.898438 L 20.699219 38.898438 Z M 29.101562 38.699219 L 33.800781 38.699219 L 33.800781 38.898438 L 29.101562 38.898438 Z M 35.800781 38.800781 L 38.199219 38.800781 L 38.199219 38.898438 L 35.800781 38.898438 Z M 11.898438 38.898438 L 18.101562 38.898438 L 18.101562 39 L 11.898438 39 Z M 20.601562 38.898438 L 26.699219 38.898438 L 26.699219 39 L 20.601562 39 Z M 35.898438 38.898438 L 38 38.898438 L 38 39 L 35.898438 39 Z M 29 38.898438 L 33.699219 38.898438 L 33.699219 39 L 29 39 Z M 11.699219 39 L 18.199219 39 L 18.199219 39.101562 L 11.699219 39.101562 Z M 20.5 39 L 26.699219 39 L 26.699219 39.101562 L 20.5 39.101562 Z M 29 39 L 33.601562 39 L 33.601562 39.101562 L 29 39.101562 Z M 36 39 L 37.699219 39 L 37.699219 39.101562 L 36 39.101562 Z M 11.601562 39.101562 L 18.300781 39.101562 L 18.300781 39.199219 L 11.601562 39.199219 Z M 20.398438 39.101562 L 26.601562 39.101562 L 26.601562 39.199219 L 20.398438 39.199219 Z M 36.199219 39.101562 L 37.5 39.101562 L 37.5 39.199219 L 36.199219 39.199219 Z M 28.898438 39.101562 L 33.5 39.101562 L 33.5 39.199219 L 28.898438 39.199219 Z M 11.398438 39.199219 L 18.300781 39.199219 L 18.300781 39.300781 L 11.398438 39.300781 Z M 20.300781 39.199219 L 26.601562 39.199219 L 26.601562 39.300781 L 20.300781 39.300781 Z M 36.5 39.199219 L 36.898438 39.199219 L 36.898438 39.300781 L 36.5 39.300781 Z M 28.898438 39.199219 L 33.398438 39.199219 L 33.398438 39.300781 L 28.898438 39.300781 Z M 11.199219 39.300781 L 18.398438 39.300781 L 18.398438 39.398438 L 11.199219 39.398438 Z M 11.101562 39.398438 L 18.398438 39.398438 L 18.398438 39.5 L 11.101562 39.5 Z M 20.199219 39.300781 L 26.601562 39.300781 L 26.601562 39.5 L 20.199219 39.5 Z M 28.898438 39.300781 L 33.300781 39.300781 L 33.300781 39.5 L 28.898438 39.5 Z M 10.898438 39.5 L 18.398438 39.5 L 18.398438 39.601562 L 10.898438 39.601562 Z M 20.101562 39.5 L 26.601562 39.5 L 26.601562 39.601562 L 20.101562 39.601562 Z M 28.898438 39.5 L 33.199219 39.5 L 33.199219 39.601562 L 28.898438 39.601562 Z M 10.800781 39.601562 L 18.5 39.601562 L 18.5 39.699219 L 10.800781 39.699219 Z M 20 39.601562 L 26.5 39.601562 L 26.5 39.699219 L 20 39.699219 Z M 28.800781 39.601562 L 33.101562 39.601562 L 33.101562 39.699219 L 28.800781 39.699219 Z M 10.699219 39.699219 L 18.5 39.699219 L 18.5 39.800781 L 10.699219 39.800781 Z M 19.898438 39.699219 L 26.5 39.699219 L 26.5 39.800781 L 19.898438 39.800781 Z M 28.800781 39.699219 L 33 39.699219 L 33 39.800781 L 28.800781 39.800781 Z M 10.5 39.800781 L 18.5 39.800781 L 18.5 39.898438 L 10.5 39.898438 Z M 19.898438 39.800781 L 26.398438 39.800781 L 26.398438 39.898438 L 19.898438 39.898438 Z M 28.800781 39.800781 L 32.800781 39.800781 L 32.800781 39.898438 L 28.800781 39.898438 Z M 10.398438 39.898438 L 18.5 39.898438 L 18.5 40 L 10.398438 40 Z M 19.800781 39.898438 L 26.398438 39.898438 L 26.398438 40 L 19.800781 40 Z M 28.800781 39.898438 L 32.699219 39.898438 L 32.699219 40 L 28.800781 40 Z M 10.300781 40 L 18.5 40 L 18.5 40.101562 L 10.300781 40.101562 Z M 28.898438 40 L 32.601562 40 L 32.601562 40.101562 L 28.898438 40.101562 Z M 10.199219 40.101562 L 18.5 40.101562 L 18.5 40.199219 L 10.199219 40.199219 Z M 19.699219 40 L 26.300781 40 L 26.300781 40.199219 L 19.699219 40.199219 Z M 28.898438 40.101562 L 32.398438 40.101562 L 32.398438 40.199219 L 28.898438 40.199219 Z M 10.101562 40.199219 L 18.5 40.199219 L 18.5 40.300781 L 10.101562 40.300781 Z M 28.898438 40.199219 L 32.300781 40.199219 L 32.300781 40.300781 L 28.898438 40.300781 Z M 10 40.300781 L 18.5 40.300781 L 18.5 40.398438 L 10 40.398438 Z M 19.601562 40.199219 L 26.199219 40.199219 L 26.199219 40.398438 L 19.601562 40.398438 Z M 29 40.300781 L 32.101562 40.300781 L 32.101562 40.398438 L 29 40.398438 Z M 9.898438 40.398438 L 18.5 40.398438 L 18.5 40.5 L 9.898438 40.5 Z M 29.101562 40.398438 L 31.898438 40.398438 L 31.898438 40.5 L 29.101562 40.5 Z M 19.5 40.398438 L 26.101562 40.398438 L 26.101562 40.5 L 19.5 40.5 Z M 9.800781 40.5 L 18.5 40.5 L 18.5 40.601562 L 9.800781 40.601562 Z M 29.199219 40.5 L 31.699219 40.5 L 31.699219 40.601562 L 29.199219 40.601562 Z M 9.699219 40.601562 L 18.5 40.601562 L 18.5 40.699219 L 9.699219 40.699219 Z M 19.5 40.5 L 26 40.5 L 26 40.699219 L 19.5 40.699219 Z M 29.300781 40.601562 L 31.398438 40.601562 L 31.398438 40.699219 L 29.300781 40.699219 Z M 9.601562 40.699219 L 18.5 40.699219 L 18.5 40.800781 L 9.601562 40.800781 Z M 29.601562 40.699219 L 31.199219 40.699219 L 31.199219 40.800781 L 29.601562 40.800781 Z M 19.398438 40.699219 L 25.898438 40.699219 L 25.898438 40.800781 L 19.398438 40.800781 Z M 9.5 40.800781 L 18.398438 40.800781 L 18.398438 40.898438 L 9.5 40.898438 Z M 29.898438 40.800781 L 30.5 40.800781 L 30.5 40.898438 L 29.898438 40.898438 Z M 19.398438 40.800781 L 25.800781 40.800781 L 25.800781 40.898438 L 19.398438 40.898438 Z M 9.398438 40.898438 L 18.398438 40.898438 L 18.398438 41 L 9.398438 41 Z M 19.398438 40.898438 L 25.699219 40.898438 L 25.699219 41 L 19.398438 41 Z M 9.300781 41 L 18.398438 41 L 18.398438 41.101562 L 9.300781 41.101562 Z M 19.300781 41 L 25.601562 41 L 25.601562 41.101562 L 19.300781 41.101562 Z M 19.300781 41.101562 L 25.5 41.101562 L 25.5 41.199219 L 19.300781 41.199219 Z M 9.199219 41.101562 L 18.300781 41.101562 L 18.300781 41.300781 L 9.199219 41.300781 Z M 19.300781 41.199219 L 25.398438 41.199219 L 25.398438 41.300781 L 19.300781 41.300781 Z M 9.101562 41.300781 L 18.300781 41.300781 L 18.300781 41.398438 L 9.101562 41.398438 Z M 19.300781 41.300781 L 25.300781 41.300781 L 25.300781 41.398438 L 19.300781 41.398438 Z M 9 41.398438 L 18.199219 41.398438 L 18.199219 41.5 L 9 41.5 Z M 19.300781 41.398438 L 25.199219 41.398438 L 25.199219 41.5 L 19.300781 41.5 Z M 8.898438 41.5 L 18.199219 41.5 L 18.199219 41.601562 L 8.898438 41.601562 Z M 19.300781 41.5 L 25.101562 41.5 L 25.101562 41.601562 L 19.300781 41.601562 Z M 8.898438 41.601562 L 18.101562 41.601562 L 18.101562 41.699219 L 8.898438 41.699219 Z M 19.300781 41.601562 L 25 41.601562 L 25 41.699219 L 19.300781 41.699219 Z M 8.800781 41.699219 L 18.101562 41.699219 L 18.101562 41.800781 L 8.800781 41.800781 Z M 19.300781 41.699219 L 24.898438 41.699219 L 24.898438 41.800781 L 19.300781 41.800781 Z M 8.800781 41.800781 L 18 41.800781 L 18 41.898438 L 8.800781 41.898438 Z M 19.300781 41.800781 L 24.699219 41.800781 L 24.699219 41.898438 L 19.300781 41.898438 Z M 19.300781 41.898438 L 24.601562 41.898438 L 24.601562 42 L 19.300781 42 Z M 8.699219 41.898438 L 18 41.898438 L 18 42 L 8.699219 42 Z M 8.699219 42 L 17.898438 42 L 17.898438 42.101562 L 8.699219 42.101562 Z M 19.398438 42 L 24.5 42 L 24.5 42.101562 L 19.398438 42.101562 Z M 19.398438 42.101562 L 24.300781 42.101562 L 24.300781 42.199219 L 19.398438 42.199219 Z M 8.601562 42.101562 L 17.800781 42.101562 L 17.800781 42.300781 L 8.601562 42.300781 Z M 19.398438 42.199219 L 24.199219 42.199219 L 24.199219 42.300781 L 19.398438 42.300781 Z M 19.5 42.300781 L 24 42.300781 L 24 42.398438 L 19.5 42.398438 Z M 8.5 42.300781 L 17.699219 42.300781 L 17.699219 42.398438 L 8.5 42.398438 Z M 8.5 42.398438 L 17.601562 42.398438 L 17.601562 42.5 L 8.5 42.5 Z M 19.601562 42.398438 L 23.800781 42.398438 L 23.800781 42.5 L 19.601562 42.5 Z M 8.5 42.5 L 17.5 42.5 L 17.5 42.601562 L 8.5 42.601562 Z M 19.601562 42.5 L 23.601562 42.5 L 23.601562 42.601562 L 19.601562 42.601562 Z M 19.800781 42.601562 L 23.398438 42.601562 L 23.398438 42.699219 L 19.800781 42.699219 Z M 8.398438 42.601562 L 17.5 42.601562 L 17.5 42.699219 L 8.398438 42.699219 Z M 19.898438 42.699219 L 23.101562 42.699219 L 23.101562 42.800781 L 19.898438 42.800781 Z M 8.398438 42.699219 L 17.398438 42.699219 L 17.398438 42.800781 L 8.398438 42.800781 Z M 8.398438 42.800781 L 17.300781 42.800781 L 17.300781 42.898438 L 8.398438 42.898438 Z M 20 42.800781 L 22.800781 42.800781 L 22.800781 42.898438 L 20 42.898438 Z M 20.300781 42.898438 L 22.5 42.898438 L 22.5 43 L 20.300781 43 Z M 8.300781 42.898438 L 17.199219 42.898438 L 17.199219 43 L 8.300781 43 Z M 20.601562 43 L 22.101562 43 L 22.101562 43.101562 L 20.601562 43.101562 Z M 8.300781 43 L 17.101562 43 L 17.101562 43.101562 L 8.300781 43.101562 Z M 8.300781 43.101562 L 17 43.101562 L 17 43.199219 L 8.300781 43.199219 Z M 8.300781 43.199219 L 16.898438 43.199219 L 16.898438 43.300781 L 8.300781 43.300781 Z M 8.300781 43.300781 L 16.800781 43.300781 L 16.800781 43.398438 L 8.300781 43.398438 Z M 8.300781 43.398438 L 16.699219 43.398438 L 16.699219 43.5 L 8.300781 43.5 Z M 8.300781 43.5 L 16.601562 43.5 L 16.601562 43.601562 L 8.300781 43.601562 Z M 8.300781 43.601562 L 16.5 43.601562 L 16.5 43.699219 L 8.300781 43.699219 Z M 8.300781 43.699219 L 16.398438 43.699219 L 16.398438 43.800781 L 8.300781 43.800781 Z M 8.300781 43.800781 L 16.199219 43.800781 L 16.199219 43.898438 L 8.300781 43.898438 Z M 8.300781 43.898438 L 16.101562 43.898438 L 16.101562 44 L 8.300781 44 Z M 8.300781 44 L 16 44 L 16 44.101562 L 8.300781 44.101562 Z M 8.398438 44.101562 L 15.800781 44.101562 L 15.800781 44.199219 L 8.398438 44.199219 Z M 8.398438 44.199219 L 15.699219 44.199219 L 15.699219 44.300781 L 8.398438 44.300781 Z M 8.398438 44.300781 L 15.601562 44.300781 L 15.601562 44.398438 L 8.398438 44.398438 Z M 8.5 44.398438 L 15.398438 44.398438 L 15.398438 44.5 L 8.5 44.5 Z M 8.5 44.5 L 15.199219 44.5 L 15.199219 44.601562 L 8.5 44.601562 Z M 8.601562 44.601562 L 15.101562 44.601562 L 15.101562 44.699219 L 8.601562 44.699219 Z M 8.601562 44.699219 L 14.898438 44.699219 L 14.898438 44.800781 L 8.601562 44.800781 Z M 8.699219 44.800781 L 14.699219 44.800781 L 14.699219 44.898438 L 8.699219 44.898438 Z M 8.800781 44.898438 L 14.5 44.898438 L 14.5 45 L 8.800781 45 Z M 8.898438 45 L 14.300781 45 L 14.300781 45.101562 L 8.898438 45.101562 Z M 9 45.101562 L 14 45.101562 L 14 45.199219 L 9 45.199219 Z M 9.199219 45.199219 L 13.800781 45.199219 L 13.800781 45.300781 L 9.199219 45.300781 Z M 9.300781 45.300781 L 13.5 45.300781 L 13.5 45.398438 L 9.300781 45.398438 Z M 9.5 45.398438 L 13.199219 45.398438 L 13.199219 45.5 L 9.5 45.5 Z M 9.800781 45.5 L 12.800781 45.5 L 12.800781 45.601562 L 9.800781 45.601562 Z M 10.101562 45.601562 L 12.300781 45.601562 L 12.300781 45.699219 L 10.101562 45.699219 Z M 10.800781 45.699219 L 11.300781 45.699219 L 11.300781 45.800781 L 10.800781 45.800781 Z M 10.800781 45.699219 "/>
</clipPath>
<clipPath id="clip2">
  <path d="M 37.699219 32.234375 C 37.859375 31.292969 38.902344 30.253906 40.003906 29.917969 C 41.097656 29.589844 41.824219 30.078125 41.640625 31.003906 C 41.460938 31.917969 40.453125 32.925781 39.382812 33.269531 C 38.296875 33.617188 37.535156 33.160156 37.699219 32.234375 M 31.613281 31.644531 C 31.785156 30.402344 33.15625 29.027344 34.664062 28.597656 C 36.136719 28.179688 37.148438 28.839844 36.945312 30.054688 C 36.742188 31.257812 35.429688 32.574219 33.984375 33.019531 C 32.519531 33.472656 31.445312 32.867188 31.613281 31.644531 M 23.039062 30.8125 C 23.183594 29.140625 25.039062 27.300781 27.136719 26.746094 C 29.1875 26.199219 30.648438 27.113281 30.4375 28.742188 C 30.230469 30.339844 28.484375 32.082031 26.5 32.667969 C 24.46875 33.269531 22.898438 32.453125 23.039062 30.8125 M 12.941406 29.914062 C 13 27.640625 15.519531 25.15625 18.484375 24.441406 C 21.363281 23.75 23.476562 25.019531 23.292969 27.210938 C 23.109375 29.34375 20.785156 31.648438 18.03125 32.425781 C 15.199219 33.21875 12.886719 32.128906 12.941406 29.914062 M 40.867188 37.527344 C 40.765625 36.945312 41.363281 36.101562 42.195312 35.640625 C 43.027344 35.183594 43.761719 35.289062 43.839844 35.867188 C 43.921875 36.449219 43.339844 37.273438 42.527344 37.726562 C 41.710938 38.183594 40.964844 38.097656 40.867188 37.527344 M 35.789062 38.605469 C 35.628906 37.863281 36.390625 36.769531 37.488281 36.167969 C 38.582031 35.574219 39.570312 35.714844 39.703125 36.457031 C 39.839844 37.191406 39.089844 38.253906 38.027344 38.839844 C 36.957031 39.4375 35.953125 39.339844 35.789062 38.605469 M 28.933594 40.0625 C 28.652344 39.105469 29.632812 37.671875 31.113281 36.886719 C 32.578125 36.105469 33.933594 36.277344 34.160156 37.242188 C 34.378906 38.1875 33.425781 39.5625 32.015625 40.335938 C 30.589844 41.113281 29.203125 41.003906 28.933594 40.0625 M 19.433594 42.082031 C 18.953125 40.835938 20.21875 38.933594 22.257812 37.878906 C 24.257812 36.839844 26.179688 37.054688 26.570312 38.3125 C 26.949219 39.542969 25.722656 41.34375 23.8125 42.367188 C 21.878906 43.410156 19.910156 43.296875 19.433594 42.082031 M 8.53125 44.464844 C 7.707031 42.835938 9.351562 40.300781 12.175781 38.882812 C 14.945312 37.492188 17.683594 37.757812 18.328125 39.40625 C 18.949219 41.007812 17.375 43.359375 14.78125 44.726562 C 12.140625 46.128906 9.332031 46.039062 8.53125 44.464844 M 44.835938 27.460938 C 45.203125 26.671875 46.117188 26.003906 46.863281 25.96875 C 47.597656 25.929688 47.890625 26.53125 47.519531 27.304688 C 47.152344 28.074219 46.261719 28.730469 45.527344 28.78125 C 44.78125 28.832031 44.464844 28.242188 44.835938 27.460938 M 41.457031 25.53125 C 41.925781 24.496094 43.125 23.628906 44.121094 23.601562 C 45.097656 23.574219 45.496094 24.371094 45.027344 25.378906 C 44.558594 26.382812 43.398438 27.226562 42.421875 27.28125 C 41.429688 27.339844 40.988281 26.558594 41.457031 25.53125 M 36.804688 22.875 C 37.40625 21.492188 39.007812 20.359375 40.355469 20.355469 C 41.679688 20.351562 42.242188 21.4375 41.640625 22.769531 C 41.046875 24.089844 39.519531 25.191406 38.199219 25.242188 C 36.851562 25.292969 36.214844 24.238281 36.804688 22.875 M 30.207031 19.101562 C 30.96875 17.21875 33.15625 15.71875 35.046875 15.777344 C 36.882812 15.832031 37.710938 17.347656 36.941406 19.144531 C 36.179688 20.917969 34.128906 22.363281 32.296875 22.394531 C 30.417969 22.425781 29.457031 20.964844 30.207031 19.101562 M 22.332031 14.710938 C 23.292969 12.113281 26.316406 10.117188 28.984375 10.296875 C 31.554688 10.46875 32.769531 12.605469 31.789062 15.039062 C 30.824219 17.429688 28.054688 19.332031 25.5 19.316406 C 22.855469 19.308594 21.394531 17.261719 22.332031 14.710938 M 42.140625 32.660156 C 42.285156 31.941406 43.082031 31.140625 43.910156 30.878906 C 44.734375 30.621094 45.269531 30.996094 45.109375 31.703125 C 44.957031 32.40625 44.179688 33.191406 43.371094 33.457031 C 42.550781 33.726562 41.996094 33.375 42.140625 32.660156 "/>
</clipPath>
<clipPath id="clip3">
  <path d="M 60.398438 15.171875 L 13.34375 -3.839844 L -4.800781 41.074219 L 42.253906 60.085938 Z M 60.398438 15.171875 "/>
</clipPath>
<linearGradient id="linear0" gradientUnits="userSpaceOnUse" x1="-0.225353" y1="0" x2="1.367593" y2="0" gradientTransform="matrix(-29.0254,-11.7269,-11.7269,29.0254,44.5055,34.8744)">
<stop offset="0" style="stop-color:rgb(97.807312%,86.607361%,2.156067%);stop-opacity:1;"/>
<stop offset="0.125" style="stop-color:rgb(97.807312%,86.607361%,2.156067%);stop-opacity:1;"/>
<stop offset="0.140625" style="stop-color:rgb(97.807312%,86.607361%,2.156067%);stop-opacity:1;"/>
<stop offset="0.144531" style="stop-color:rgb(97.789001%,86.373901%,2.064514%);stop-opacity:1;"/>
<stop offset="0.148438" style="stop-color:rgb(97.772217%,86.140442%,1.972961%);stop-opacity:1;"/>
<stop offset="0.152344" style="stop-color:rgb(97.750854%,85.882568%,1.959229%);stop-opacity:1;"/>
<stop offset="0.15625" style="stop-color:rgb(97.731018%,85.624695%,1.945496%);stop-opacity:1;"/>
<stop offset="0.160156" style="stop-color:rgb(97.714233%,85.412598%,1.980591%);stop-opacity:1;"/>
<stop offset="0.164062" style="stop-color:rgb(97.697449%,85.198975%,2.015686%);stop-opacity:1;"/>
<stop offset="0.171875" style="stop-color:rgb(97.685242%,85.055542%,2.0401%);stop-opacity:1;"/>
<stop offset="0.175781" style="stop-color:rgb(97.644043%,84.526062%,2.127075%);stop-opacity:1;"/>
<stop offset="0.179688" style="stop-color:rgb(97.613525%,84.141541%,2.191162%);stop-opacity:1;"/>
<stop offset="0.183594" style="stop-color:rgb(97.598267%,83.959961%,2.22168%);stop-opacity:1;"/>
<stop offset="0.1875" style="stop-color:rgb(97.584534%,83.776855%,2.250671%);stop-opacity:1;"/>
<stop offset="0.191406" style="stop-color:rgb(97.563171%,83.520508%,2.366638%);stop-opacity:1;"/>
<stop offset="0.195312" style="stop-color:rgb(97.543335%,83.262634%,2.482605%);stop-opacity:1;"/>
<stop offset="0.199219" style="stop-color:rgb(97.514343%,82.913208%,2.680969%);stop-opacity:1;"/>
<stop offset="0.203125" style="stop-color:rgb(97.486877%,82.563782%,2.879333%);stop-opacity:1;"/>
<stop offset="0.207031" style="stop-color:rgb(97.465515%,82.312012%,3.059387%);stop-opacity:1;"/>
<stop offset="0.210938" style="stop-color:rgb(97.445679%,82.060242%,3.239441%);stop-opacity:1;"/>
<stop offset="0.214844" style="stop-color:rgb(97.425842%,81.803894%,3.285217%);stop-opacity:1;"/>
<stop offset="0.21875" style="stop-color:rgb(97.40448%,81.547546%,3.33252%);stop-opacity:1;"/>
<stop offset="0.222656" style="stop-color:rgb(97.384644%,81.291199%,3.373718%);stop-opacity:1;"/>
<stop offset="0.226562" style="stop-color:rgb(97.364807%,81.034851%,3.414917%);stop-opacity:1;"/>
<stop offset="0.230469" style="stop-color:rgb(97.40448%,80.792236%,3.379822%);stop-opacity:1;"/>
<stop offset="0.234375" style="stop-color:rgb(97.445679%,80.548096%,3.346252%);stop-opacity:1;"/>
<stop offset="0.238281" style="stop-color:rgb(97.550964%,80.319214%,3.233337%);stop-opacity:1;"/>
<stop offset="0.242188" style="stop-color:rgb(97.65625%,80.088806%,3.120422%);stop-opacity:1;"/>
<stop offset="0.246094" style="stop-color:rgb(97.634888%,79.832458%,3.163147%);stop-opacity:1;"/>
<stop offset="0.25" style="stop-color:rgb(97.615051%,79.574585%,3.204346%);stop-opacity:1;"/>
<stop offset="0.257812" style="stop-color:rgb(97.602844%,79.426575%,3.109741%);stop-opacity:1;"/>
<stop offset="0.261719" style="stop-color:rgb(97.569275%,78.997803%,3.005981%);stop-opacity:1;"/>
<stop offset="0.265625" style="stop-color:rgb(97.546387%,78.717041%,2.9953%);stop-opacity:1;"/>
<stop offset="0.269531" style="stop-color:rgb(97.518921%,78.373718%,3.096008%);stop-opacity:1;"/>
<stop offset="0.273438" style="stop-color:rgb(97.491455%,78.02887%,3.193665%);stop-opacity:1;"/>
<stop offset="0.277344" style="stop-color:rgb(97.470093%,77.775574%,3.372192%);stop-opacity:1;"/>
<stop offset="0.28125" style="stop-color:rgb(97.44873%,77.520752%,3.549194%);stop-opacity:1;"/>
<stop offset="0.285156" style="stop-color:rgb(97.428894%,77.267456%,3.726196%);stop-opacity:1;"/>
<stop offset="0.289062" style="stop-color:rgb(97.407532%,77.012634%,3.900146%);stop-opacity:1;"/>
<stop offset="0.292969" style="stop-color:rgb(97.386169%,76.757812%,3.974915%);stop-opacity:1;"/>
<stop offset="0.296875" style="stop-color:rgb(97.366333%,76.499939%,4.048157%);stop-opacity:1;"/>
<stop offset="0.300781" style="stop-color:rgb(97.344971%,76.243591%,4.089355%);stop-opacity:1;"/>
<stop offset="0.304688" style="stop-color:rgb(97.325134%,75.985718%,4.130554%);stop-opacity:1;"/>
<stop offset="0.308594" style="stop-color:rgb(97.271729%,75.695801%,4.156494%);stop-opacity:1;"/>
<stop offset="0.3125" style="stop-color:rgb(97.218323%,75.404358%,4.180908%);stop-opacity:1;"/>
<stop offset="0.316406" style="stop-color:rgb(97.045898%,74.986267%,4.151917%);stop-opacity:1;"/>
<stop offset="0.320312" style="stop-color:rgb(96.871948%,74.568176%,4.121399%);stop-opacity:1;"/>
<stop offset="0.324219" style="stop-color:rgb(96.839905%,74.299622%,4.03595%);stop-opacity:1;"/>
<stop offset="0.328125" style="stop-color:rgb(96.809387%,74.031067%,3.9505%);stop-opacity:1;"/>
<stop offset="0.332031" style="stop-color:rgb(96.789551%,73.774719%,3.948975%);stop-opacity:1;"/>
<stop offset="0.335938" style="stop-color:rgb(96.769714%,73.516846%,3.945923%);stop-opacity:1;"/>
<stop offset="0.339844" style="stop-color:rgb(96.748352%,73.262024%,3.987122%);stop-opacity:1;"/>
<stop offset="0.34375" style="stop-color:rgb(96.728516%,73.005676%,4.029846%);stop-opacity:1;"/>
<stop offset="0.347656" style="stop-color:rgb(96.708679%,72.749329%,4.072571%);stop-opacity:1;"/>
<stop offset="0.351562" style="stop-color:rgb(96.687317%,72.492981%,4.115295%);stop-opacity:1;"/>
<stop offset="0.355469" style="stop-color:rgb(96.66748%,72.236633%,4.156494%);stop-opacity:1;"/>
<stop offset="0.359375" style="stop-color:rgb(96.647644%,71.980286%,4.199219%);stop-opacity:1;"/>
<stop offset="0.363281" style="stop-color:rgb(96.626282%,71.725464%,4.241943%);stop-opacity:1;"/>
<stop offset="0.367188" style="stop-color:rgb(96.606445%,71.469116%,4.284668%);stop-opacity:1;"/>
<stop offset="0.371094" style="stop-color:rgb(96.665955%,71.229553%,4.304504%);stop-opacity:1;"/>
<stop offset="0.375" style="stop-color:rgb(96.723938%,70.988464%,4.325867%);stop-opacity:1;"/>
<stop offset="0.378906" style="stop-color:rgb(96.80481%,70.753479%,4.341125%);stop-opacity:1;"/>
<stop offset="0.382812" style="stop-color:rgb(96.885681%,70.515442%,4.356384%);stop-opacity:1;"/>
<stop offset="0.386719" style="stop-color:rgb(96.864319%,70.259094%,4.399109%);stop-opacity:1;"/>
<stop offset="0.390625" style="stop-color:rgb(96.844482%,70.001221%,4.441833%);stop-opacity:1;"/>
<stop offset="0.394531" style="stop-color:rgb(96.812439%,69.616699%,4.50592%);stop-opacity:1;"/>
<stop offset="0.398438" style="stop-color:rgb(96.781921%,69.232178%,4.570007%);stop-opacity:1;"/>
<stop offset="0.402344" style="stop-color:rgb(96.765137%,69.035339%,4.602051%);stop-opacity:1;"/>
<stop offset="0.40625" style="stop-color:rgb(96.749878%,68.835449%,4.63562%);stop-opacity:1;"/>
<stop offset="0.410156" style="stop-color:rgb(96.734619%,68.650818%,4.666138%);stop-opacity:1;"/>
<stop offset="0.414062" style="stop-color:rgb(96.71936%,68.463135%,4.696655%);stop-opacity:1;"/>
<stop offset="0.417969" style="stop-color:rgb(96.699524%,68.206787%,4.73938%);stop-opacity:1;"/>
<stop offset="0.421875" style="stop-color:rgb(96.678162%,67.950439%,4.782104%);stop-opacity:1;"/>
<stop offset="0.425781" style="stop-color:rgb(96.658325%,67.694092%,4.824829%);stop-opacity:1;"/>
<stop offset="0.429688" style="stop-color:rgb(96.636963%,67.436218%,4.867554%);stop-opacity:1;"/>
<stop offset="0.433594" style="stop-color:rgb(96.617126%,67.181396%,4.910278%);stop-opacity:1;"/>
<stop offset="0.4375" style="stop-color:rgb(96.595764%,66.923523%,4.953003%);stop-opacity:1;"/>
<stop offset="0.441406" style="stop-color:rgb(96.574402%,66.667175%,4.994202%);stop-opacity:1;"/>
<stop offset="0.445312" style="stop-color:rgb(96.554565%,66.410828%,5.036926%);stop-opacity:1;"/>
<stop offset="0.449219" style="stop-color:rgb(96.533203%,66.15448%,5.079651%);stop-opacity:1;"/>
<stop offset="0.453125" style="stop-color:rgb(96.513367%,65.896606%,5.122375%);stop-opacity:1;"/>
<stop offset="0.457031" style="stop-color:rgb(96.502686%,65.643311%,5.162048%);stop-opacity:1;"/>
<stop offset="0.460938" style="stop-color:rgb(96.49353%,65.388489%,5.201721%);stop-opacity:1;"/>
<stop offset="0.464844" style="stop-color:rgb(96.611023%,65.156555%,5.209351%);stop-opacity:1;"/>
<stop offset="0.46875" style="stop-color:rgb(96.730042%,64.923096%,5.215454%);stop-opacity:1;"/>
<stop offset="0.472656" style="stop-color:rgb(96.736145%,64.671326%,5.252075%);stop-opacity:1;"/>
<stop offset="0.476562" style="stop-color:rgb(96.740723%,64.41803%,5.288696%);stop-opacity:1;"/>
<stop offset="0.480469" style="stop-color:rgb(96.71936%,64.161682%,5.331421%);stop-opacity:1;"/>
<stop offset="0.484375" style="stop-color:rgb(96.699524%,63.903809%,5.374146%);stop-opacity:1;"/>
<stop offset="0.488281" style="stop-color:rgb(96.678162%,63.647461%,5.41687%);stop-opacity:1;"/>
<stop offset="0.492188" style="stop-color:rgb(96.656799%,63.389587%,5.459595%);stop-opacity:1;"/>
<stop offset="0.496094" style="stop-color:rgb(96.635437%,63.13324%,5.502319%);stop-opacity:1;"/>
<stop offset="0.5" style="stop-color:rgb(96.614075%,62.875366%,5.545044%);stop-opacity:1;"/>
<stop offset="0.507812" style="stop-color:rgb(96.739197%,62.765503%,5.532837%);stop-opacity:1;"/>
<stop offset="0.511719" style="stop-color:rgb(96.876526%,62.353516%,5.563354%);stop-opacity:1;"/>
<stop offset="0.515625" style="stop-color:rgb(96.891785%,62.051392%,5.604553%);stop-opacity:1;"/>
<stop offset="0.519531" style="stop-color:rgb(96.864319%,61.720276%,5.659485%);stop-opacity:1;"/>
<stop offset="0.523438" style="stop-color:rgb(96.836853%,61.387634%,5.715942%);stop-opacity:1;"/>
<stop offset="0.527344" style="stop-color:rgb(96.815491%,61.131287%,5.758667%);stop-opacity:1;"/>
<stop offset="0.53125" style="stop-color:rgb(96.794128%,60.871887%,5.801392%);stop-opacity:1;"/>
<stop offset="0.535156" style="stop-color:rgb(96.772766%,60.61554%,5.844116%);stop-opacity:1;"/>
<stop offset="0.539062" style="stop-color:rgb(96.751404%,60.357666%,5.888367%);stop-opacity:1;"/>
<stop offset="0.542969" style="stop-color:rgb(96.730042%,60.099792%,5.931091%);stop-opacity:1;"/>
<stop offset="0.546875" style="stop-color:rgb(96.708679%,59.841919%,5.973816%);stop-opacity:1;"/>
<stop offset="0.550781" style="stop-color:rgb(96.687317%,59.585571%,6.016541%);stop-opacity:1;"/>
<stop offset="0.554688" style="stop-color:rgb(96.665955%,59.327698%,6.060791%);stop-opacity:1;"/>
<stop offset="0.558594" style="stop-color:rgb(96.644592%,59.069824%,6.103516%);stop-opacity:1;"/>
<stop offset="0.5625" style="stop-color:rgb(96.62323%,58.811951%,6.14624%);stop-opacity:1;"/>
<stop offset="0.566406" style="stop-color:rgb(96.601868%,58.561707%,6.188965%);stop-opacity:1;"/>
<stop offset="0.570312" style="stop-color:rgb(96.580505%,58.309937%,6.231689%);stop-opacity:1;"/>
<stop offset="0.578125" style="stop-color:rgb(96.569824%,58.180237%,6.253052%);stop-opacity:1;"/>
<stop offset="0.582031" style="stop-color:rgb(96.533203%,57.723999%,6.329346%);stop-opacity:1;"/>
<stop offset="0.585938" style="stop-color:rgb(96.505737%,57.397461%,6.384277%);stop-opacity:1;"/>
<stop offset="0.589844" style="stop-color:rgb(96.478271%,57.0755%,6.437683%);stop-opacity:1;"/>
<stop offset="0.59375" style="stop-color:rgb(96.452332%,56.752014%,6.492615%);stop-opacity:1;"/>
<stop offset="0.597656" style="stop-color:rgb(96.461487%,56.498718%,6.52771%);stop-opacity:1;"/>
<stop offset="0.601562" style="stop-color:rgb(96.469116%,56.243896%,6.564331%);stop-opacity:1;"/>
<stop offset="0.605469" style="stop-color:rgb(96.582031%,56.004333%,6.575012%);stop-opacity:1;"/>
<stop offset="0.609375" style="stop-color:rgb(96.691895%,55.763245%,6.587219%);stop-opacity:1;"/>
<stop offset="0.613281" style="stop-color:rgb(96.678162%,55.506897%,6.628418%);stop-opacity:1;"/>
<stop offset="0.617188" style="stop-color:rgb(96.662903%,55.249023%,6.671143%);stop-opacity:1;"/>
<stop offset="0.621094" style="stop-color:rgb(96.641541%,54.99115%,6.713867%);stop-opacity:1;"/>
<stop offset="0.625" style="stop-color:rgb(96.620178%,54.733276%,6.758118%);stop-opacity:1;"/>
<stop offset="0.628906" style="stop-color:rgb(96.598816%,54.473877%,6.843567%);stop-opacity:1;"/>
<stop offset="0.632812" style="stop-color:rgb(96.575928%,54.214478%,6.930542%);stop-opacity:1;"/>
<stop offset="0.636719" style="stop-color:rgb(96.554565%,53.952026%,7.070923%);stop-opacity:1;"/>
<stop offset="0.640625" style="stop-color:rgb(96.533203%,53.689575%,7.209778%);stop-opacity:1;"/>
<stop offset="0.644531" style="stop-color:rgb(96.510315%,53.433228%,7.252502%);stop-opacity:1;"/>
<stop offset="0.648438" style="stop-color:rgb(96.488953%,53.173828%,7.295227%);stop-opacity:1;"/>
<stop offset="0.652344" style="stop-color:rgb(96.46759%,52.915955%,7.337952%);stop-opacity:1;"/>
<stop offset="0.65625" style="stop-color:rgb(96.446228%,52.656555%,7.380676%);stop-opacity:1;"/>
<stop offset="0.660156" style="stop-color:rgb(96.424866%,52.401733%,7.362366%);stop-opacity:1;"/>
<stop offset="0.664063" style="stop-color:rgb(96.401978%,52.146912%,7.344055%);stop-opacity:1;"/>
<stop offset="0.667969" style="stop-color:rgb(96.380615%,51.89209%,7.312012%);stop-opacity:1;"/>
<stop offset="0.671875" style="stop-color:rgb(96.359253%,51.637268%,7.278442%);stop-opacity:1;"/>
<stop offset="0.675781" style="stop-color:rgb(96.337891%,51.376343%,7.322693%);stop-opacity:1;"/>
<stop offset="0.679688" style="stop-color:rgb(96.316528%,51.116943%,7.365417%);stop-opacity:1;"/>
<stop offset="0.683594" style="stop-color:rgb(96.282959%,50.730896%,7.43103%);stop-opacity:1;"/>
<stop offset="0.6875" style="stop-color:rgb(96.250916%,50.341797%,7.496643%);stop-opacity:1;"/>
<stop offset="0.691406" style="stop-color:rgb(96.226501%,50.05188%,7.545471%);stop-opacity:1;"/>
<stop offset="0.695312" style="stop-color:rgb(96.202087%,49.760437%,7.594299%);stop-opacity:1;"/>
<stop offset="0.699219" style="stop-color:rgb(96.174622%,49.441528%,7.647705%);stop-opacity:1;"/>
<stop offset="0.703125" style="stop-color:rgb(96.148682%,49.12262%,7.701111%);stop-opacity:1;"/>
<stop offset="0.707031" style="stop-color:rgb(96.118164%,48.760986%,7.762146%);stop-opacity:1;"/>
<stop offset="0.710938" style="stop-color:rgb(96.087646%,48.397827%,7.823181%);stop-opacity:1;"/>
<stop offset="0.714844" style="stop-color:rgb(96.066284%,48.141479%,7.865906%);stop-opacity:1;"/>
<stop offset="0.71875" style="stop-color:rgb(96.043396%,47.88208%,7.910156%);stop-opacity:1;"/>
<stop offset="0.722656" style="stop-color:rgb(96.022034%,47.625732%,7.952881%);stop-opacity:1;"/>
<stop offset="0.726562" style="stop-color:rgb(96.000671%,47.366333%,7.997131%);stop-opacity:1;"/>
<stop offset="0.730469" style="stop-color:rgb(95.979309%,47.108459%,8.039856%);stop-opacity:1;"/>
<stop offset="0.734375" style="stop-color:rgb(95.956421%,46.850586%,8.084106%);stop-opacity:1;"/>
<stop offset="0.738281" style="stop-color:rgb(95.935059%,46.591187%,8.164978%);stop-opacity:1;"/>
<stop offset="0.742188" style="stop-color:rgb(95.913696%,46.330261%,8.244324%);stop-opacity:1;"/>
<stop offset="0.746094" style="stop-color:rgb(95.890808%,46.066284%,8.380127%);stop-opacity:1;"/>
<stop offset="0.75" style="stop-color:rgb(95.869446%,45.800781%,8.514404%);stop-opacity:1;"/>
<stop offset="0.753906" style="stop-color:rgb(95.848083%,45.544434%,8.557129%);stop-opacity:1;"/>
<stop offset="0.757812" style="stop-color:rgb(95.825195%,45.285034%,8.599854%);stop-opacity:1;"/>
<stop offset="0.761719" style="stop-color:rgb(95.803833%,45.033264%,8.561707%);stop-opacity:1;"/>
<stop offset="0.765625" style="stop-color:rgb(95.782471%,44.779968%,8.52356%);stop-opacity:1;"/>
<stop offset="0.78125" style="stop-color:rgb(95.773315%,44.664001%,8.49762%);stop-opacity:1;"/>
<stop offset="0.8125" style="stop-color:rgb(95.762634%,44.548035%,8.47168%);stop-opacity:1;"/>
<stop offset="0.875" style="stop-color:rgb(95.762634%,44.548035%,8.47168%);stop-opacity:1;"/>
<stop offset="1" style="stop-color:rgb(95.762634%,44.548035%,8.47168%);stop-opacity:1;"/>
</linearGradient>
</defs>
<g id="surface1">
<rect x="0" y="0" width="56" height="56" style="fill:rgb(92.332458%,11.239624%,15.208435%);fill-opacity:1;stroke:none;"/>
<g clip-path="url(#clip1)" clip-rule="nonzero">
<g clip-path="url(#clip2)" clip-rule="nonzero">
<g clip-path="url(#clip3)" clip-rule="nonzero">
<path style=" stroke:none;fill-rule:nonzero;fill:url(#linear0);" d="M 60.066406 15.195312 L 42.171875 59.484375 L -4.066406 40.804688 L 13.828125 -3.484375 Z M 60.066406 15.195312 "/>
</g>
</g>
</g>
</g>
</svg>
