<?xml version="1.0" encoding="UTF-8"?>
<svg xmlns="http://www.w3.org/2000/svg" xmlns:xlink="http://www.w3.org/1999/xlink" width="56pt" height="56pt" viewBox="0 0 56 56" version="1.1">
<g id="surface1">
<rect x="0" y="0" width="56" height="56" style="fill:rgb(95.666504%,95.776367%,96.775818%);fill-opacity:1;stroke:none;"/>
<path style=" stroke:none;fill-rule:nonzero;fill:rgb(93.762207%,19.779968%,22.04895%);fill-opacity:1;" d="M 19.730469 47.167969 C 19.730469 49.179688 17.519531 50.8125 14.792969 50.8125 C 12.058594 50.8125 9.851562 49.179688 9.851562 47.167969 C 9.851562 45.15625 12.058594 43.523438 14.792969 43.523438 C 17.519531 43.523438 19.730469 45.15625 19.730469 47.167969 "/>
<path style=" stroke:none;fill-rule:nonzero;fill:rgb(93.762207%,19.779968%,22.04895%);fill-opacity:1;" d="M 23.1875 38.488281 C 23.1875 40.171875 21.246094 41.53125 18.851562 41.535156 C 16.457031 41.53125 14.519531 40.171875 14.519531 38.488281 C 14.519531 36.8125 16.457031 35.457031 18.851562 35.457031 C 21.246094 35.457031 23.1875 36.8125 23.1875 38.488281 "/>
<path style=" stroke:none;fill-rule:nonzero;fill:rgb(93.762207%,19.779968%,22.04895%);fill-opacity:1;" d="M 26.011719 31.25 C 26.011719 32.601562 24.359375 33.699219 22.324219 33.703125 C 20.285156 33.703125 18.632812 32.601562 18.632812 31.25 C 18.632812 29.894531 20.285156 28.800781 22.324219 28.800781 C 24.359375 28.800781 26.011719 29.898438 26.011719 31.25 "/>
<path style=" stroke:none;fill-rule:nonzero;fill:rgb(93.762207%,19.779968%,22.04895%);fill-opacity:1;" d="M 33.554688 11.46875 C 33.550781 12 32.695312 12.429688 31.628906 12.429688 C 30.566406 12.429688 29.707031 12 29.707031 11.46875 C 29.707031 10.933594 30.566406 10.507812 31.628906 10.503906 C 32.695312 10.503906 33.550781 10.929688 33.554688 11.46875 "/>
<path style=" stroke:none;fill-rule:nonzero;fill:rgb(93.762207%,19.779968%,22.04895%);fill-opacity:1;" d="M 35.777344 5.878906 C 35.777344 6.261719 35.128906 6.574219 34.332031 6.578125 C 33.53125 6.578125 32.886719 6.261719 32.882812 5.878906 C 32.882812 5.492188 33.53125 5.1875 34.332031 5.1875 C 35.128906 5.1875 35.777344 5.492188 35.777344 5.878906 "/>
<path style=" stroke:none;fill-rule:nonzero;fill:rgb(93.762207%,19.779968%,22.04895%);fill-opacity:1;" d="M 34.730469 8.542969 C 34.730469 8.984375 33.980469 9.339844 33.058594 9.34375 C 32.132812 9.34375 31.386719 8.984375 31.386719 8.542969 C 31.386719 8.09375 32.132812 7.738281 33.058594 7.738281 C 33.980469 7.738281 34.730469 8.09375 34.730469 8.542969 "/>
<path style=" stroke:none;fill-rule:nonzero;fill:rgb(93.762207%,19.779968%,22.04895%);fill-opacity:1;" d="M 28.40625 24.890625 C 28.40625 25.972656 27 26.855469 25.265625 26.855469 C 23.53125 26.855469 22.125 25.972656 22.125 24.890625 C 22.125 23.804688 23.53125 22.917969 25.265625 22.917969 C 27 22.917969 28.40625 23.804688 28.40625 24.890625 "/>
<path style=" stroke:none;fill-rule:nonzero;fill:rgb(93.762207%,19.779968%,22.04895%);fill-opacity:1;" d="M 30.46875 19.574219 C 30.46875 20.445312 29.273438 21.160156 27.796875 21.160156 C 26.316406 21.160156 25.113281 20.445312 25.113281 19.574219 C 25.113281 18.703125 26.316406 17.992188 27.796875 17.992188 C 29.273438 17.992188 30.46875 18.703125 30.46875 19.574219 "/>
<path style=" stroke:none;fill-rule:nonzero;fill:rgb(93.762207%,19.779968%,22.04895%);fill-opacity:1;" d="M 31.257812 46.5625 C 31.257812 48.375 29.25 49.835938 26.773438 49.835938 C 24.292969 49.835938 22.285156 48.375 22.285156 46.5625 C 22.285156 44.75 24.292969 43.28125 26.769531 43.285156 C 29.25 43.285156 31.257812 44.753906 31.257812 46.5625 "/>
<path style=" stroke:none;fill-rule:nonzero;fill:rgb(93.762207%,19.779968%,22.04895%);fill-opacity:1;" d="M 41.117188 43.835938 C 41.117188 45.433594 39.304688 46.726562 37.074219 46.726562 C 34.84375 46.726562 33.03125 45.433594 33.03125 43.835938 C 33.03125 42.242188 34.84375 40.945312 37.074219 40.945312 C 39.304688 40.945312 41.117188 42.238281 41.117188 43.835938 "/>
<path style=" stroke:none;fill-rule:nonzero;fill:rgb(93.762207%,19.779968%,22.04895%);fill-opacity:1;" d="M 46.148438 38.289062 C 46.148438 39.546875 44.667969 40.570312 42.839844 40.570312 C 41.011719 40.570312 39.527344 39.546875 39.527344 38.289062 C 39.527344 37.035156 41.011719 36.015625 42.839844 36.015625 C 44.664062 36.015625 46.148438 37.03125 46.148438 38.289062 "/>
<path style=" stroke:none;fill-rule:nonzero;fill:rgb(93.762207%,19.779968%,22.04895%);fill-opacity:1;" d="M 41.335938 28.398438 C 41.335938 29.230469 40.253906 29.90625 38.925781 29.90625 C 37.59375 29.90625 36.511719 29.230469 36.511719 28.398438 C 36.511719 27.566406 37.59375 26.886719 38.925781 26.886719 C 40.253906 26.886719 41.335938 27.566406 41.335938 28.398438 "/>
<path style=" stroke:none;fill-rule:nonzero;fill:rgb(93.762207%,19.779968%,22.04895%);fill-opacity:1;" d="M 32.257812 15.152344 C 32.257812 15.847656 31.234375 16.414062 29.976562 16.414062 C 28.71875 16.414062 27.699219 15.847656 27.703125 15.152344 C 27.703125 14.453125 28.71875 13.890625 29.976562 13.890625 C 31.234375 13.890625 32.257812 14.453125 32.257812 15.152344 "/>
<path style=" stroke:none;fill-rule:nonzero;fill:rgb(93.762207%,19.779968%,22.04895%);fill-opacity:1;" d="M 45.261719 32.539062 C 45.265625 33.558594 44.007812 34.378906 42.457031 34.375 C 40.902344 34.378906 39.648438 33.554688 39.648438 32.539062 C 39.644531 31.53125 40.902344 30.707031 42.457031 30.707031 C 44.007812 30.707031 45.261719 31.53125 45.261719 32.539062 "/>
</g>
</svg>
