<?xml version="1.0" encoding="UTF-8"?>
<svg xmlns="http://www.w3.org/2000/svg" xmlns:xlink="http://www.w3.org/1999/xlink" width="56pt" height="56pt" viewBox="0 0 56 56" version="1.1">
<g id="surface1">
<rect x="0" y="0" width="56" height="56" style="fill:rgb(95.66803%,95.779419%,96.777344%);fill-opacity:1;stroke:none;"/>
<path style=" stroke:none;fill-rule:nonzero;fill:rgb(8.378601%,8.714294%,8.441162%);fill-opacity:1;" d="M 28 7.554688 C 16.726562 7.554688 7.554688 16.726562 7.554688 28 C 7.554688 39.273438 16.726562 48.445312 28 48.445312 C 39.273438 48.445312 48.445312 39.273438 48.445312 28 C 48.445312 16.726562 39.273438 7.554688 28 7.554688 Z M 28 50.679688 C 21.941406 50.679688 16.246094 48.320312 11.960938 44.039062 C 7.679688 39.753906 5.320312 34.058594 5.320312 28 C 5.320312 21.941406 7.679688 16.246094 11.960938 11.960938 C 16.246094 7.679688 21.941406 5.320312 28 5.320312 C 34.058594 5.320312 39.753906 7.679688 44.039062 11.960938 C 48.320312 16.246094 50.679688 21.941406 50.679688 28 C 50.679688 34.058594 48.320312 39.753906 44.039062 44.039062 C 39.753906 48.320312 34.058594 50.679688 28 50.679688 "/>
<path style=" stroke:none;fill-rule:nonzero;fill:rgb(8.378601%,8.714294%,8.441162%);fill-opacity:1;" d="M 29.648438 33.035156 L 29.648438 40.578125 L 30.9375 40.578125 L 30.9375 33.035156 C 30.730469 33.082031 30.511719 33.105469 30.28125 33.105469 C 30.058594 33.105469 29.847656 33.082031 29.648438 33.035156 M 26.097656 39.480469 C 25.75 39.554688 25.398438 39.605469 25.039062 39.625 C 24.675781 39.648438 24.320312 39.652344 23.964844 39.640625 C 23.46875 39.632812 23.054688 39.511719 22.722656 39.277344 C 22.386719 39.046875 22.222656 38.660156 22.222656 38.125 C 22.222656 37.824219 22.277344 37.566406 22.390625 37.355469 C 22.503906 37.148438 22.652344 36.976562 22.835938 36.847656 C 23.019531 36.71875 23.230469 36.625 23.472656 36.566406 C 23.714844 36.507812 23.964844 36.476562 24.222656 36.476562 C 24.566406 36.476562 24.902344 36.511719 25.222656 36.574219 C 25.546875 36.640625 25.835938 36.714844 26.097656 36.800781 Z M 25.644531 40.617188 C 26.226562 40.527344 26.804688 40.378906 27.386719 40.175781 L 27.386719 34.75 C 27.386719 34.296875 27.296875 33.902344 27.121094 33.5625 C 26.945312 33.222656 26.707031 32.945312 26.410156 32.722656 C 26.113281 32.503906 25.777344 32.335938 25.394531 32.222656 C 25.011719 32.109375 24.621094 32.054688 24.222656 32.054688 C 23.695312 32.054688 23.164062 32.164062 22.632812 32.386719 C 22.101562 32.605469 21.640625 32.929688 21.253906 33.363281 L 22.058594 34.152344 C 22.308594 33.839844 22.621094 33.613281 22.996094 33.46875 C 23.371094 33.320312 23.75 33.25 24.125 33.25 C 24.375 33.25 24.617188 33.28125 24.851562 33.34375 C 25.089844 33.410156 25.300781 33.507812 25.484375 33.636719 C 25.664062 33.765625 25.8125 33.921875 25.925781 34.113281 C 26.039062 34.300781 26.097656 34.511719 26.097656 34.75 L 26.097656 35.863281 C 25.460938 35.59375 24.792969 35.460938 24.09375 35.460938 C 23.683594 35.460938 23.292969 35.515625 22.914062 35.621094 C 22.539062 35.730469 22.207031 35.890625 21.914062 36.105469 C 21.625 36.320312 21.390625 36.597656 21.214844 36.929688 C 21.035156 37.261719 20.945312 37.660156 20.945312 38.125 C 20.945312 38.574219 21.023438 38.964844 21.179688 39.285156 C 21.335938 39.609375 21.546875 39.878906 21.808594 40.09375 C 22.074219 40.308594 22.386719 40.46875 22.753906 40.578125 C 23.121094 40.683594 23.511719 40.738281 23.933594 40.738281 C 24.492188 40.75 25.0625 40.710938 25.644531 40.617188 M 37.121094 33.328125 L 37.121094 32.117188 C 37.003906 32.097656 36.882812 32.082031 36.757812 32.070312 C 36.632812 32.058594 36.511719 32.054688 36.394531 32.054688 C 36.027344 32.054688 35.660156 32.113281 35.289062 32.230469 C 34.917969 32.351562 34.582031 32.523438 34.28125 32.746094 C 33.976562 32.972656 33.734375 33.261719 33.546875 33.613281 C 33.355469 33.960938 33.261719 34.375 33.261719 34.847656 L 33.261719 40.578125 L 34.554688 40.578125 L 34.554688 34.847656 C 34.554688 34.589844 34.605469 34.363281 34.707031 34.167969 C 34.808594 33.976562 34.945312 33.8125 35.121094 33.675781 C 35.289062 33.542969 35.492188 33.441406 35.714844 33.378906 C 35.941406 33.3125 36.183594 33.28125 36.445312 33.28125 C 36.5625 33.28125 36.675781 33.285156 36.78125 33.289062 C 36.890625 33.292969 37.003906 33.308594 37.121094 33.328125 "/>
<path style=" stroke:none;fill-rule:nonzero;fill:rgb(8.378601%,8.714294%,8.441162%);fill-opacity:1;" d="M 11.199219 28.71875 C 11.640625 29.308594 12.152344 29.722656 12.722656 29.957031 C 13.292969 30.191406 13.902344 30.308594 14.554688 30.308594 C 14.984375 30.308594 15.40625 30.246094 15.816406 30.117188 C 16.226562 29.992188 16.585938 29.800781 16.898438 29.542969 C 17.210938 29.28125 17.460938 28.960938 17.648438 28.578125 C 17.835938 28.191406 17.925781 27.746094 17.925781 27.242188 C 17.925781 26.796875 17.84375 26.417969 17.675781 26.105469 C 17.507812 25.792969 17.289062 25.53125 17.023438 25.320312 C 16.761719 25.109375 16.472656 24.9375 16.160156 24.804688 C 15.847656 24.671875 15.539062 24.570312 15.238281 24.5 C 15.144531 24.488281 15.019531 24.449219 14.867188 24.390625 C 14.71875 24.332031 14.578125 24.253906 14.445312 24.164062 C 14.3125 24.074219 14.203125 23.972656 14.109375 23.859375 C 14.019531 23.742188 13.980469 23.613281 13.992188 23.46875 C 14.019531 23.195312 14.113281 23 14.28125 22.882812 C 14.449219 22.769531 14.636719 22.714844 14.84375 22.714844 C 15.117188 22.714844 15.402344 22.769531 15.691406 22.882812 C 15.980469 23 16.203125 23.132812 16.355469 23.289062 L 17.601562 21.574219 C 17.121094 21.191406 16.609375 20.933594 16.070312 20.800781 C 15.527344 20.667969 15.046875 20.601562 14.625 20.601562 C 14.109375 20.601562 13.652344 20.683594 13.253906 20.84375 C 12.855469 21.007812 12.523438 21.222656 12.253906 21.496094 C 11.980469 21.765625 11.777344 22.074219 11.640625 22.421875 C 11.5 22.773438 11.433594 23.128906 11.433594 23.488281 C 11.433594 23.824219 11.496094 24.15625 11.621094 24.480469 C 11.746094 24.804688 11.9375 25.105469 12.191406 25.382812 C 12.441406 25.660156 12.757812 25.902344 13.136719 26.105469 C 13.515625 26.308594 13.96875 26.453125 14.5 26.539062 C 14.921875 26.597656 15.207031 26.742188 15.355469 26.96875 C 15.507812 27.199219 15.519531 27.453125 15.402344 27.726562 C 15.269531 28.003906 15.015625 28.144531 14.644531 28.144531 C 14.320312 28.144531 13.949219 28.054688 13.535156 27.871094 C 13.117188 27.691406 12.738281 27.433594 12.386719 27.097656 L 11.199219 28.71875 "/>
<path style=" stroke:none;fill-rule:nonzero;fill:rgb(8.378601%,8.714294%,8.441162%);fill-opacity:1;" d="M 38.300781 28.25 C 38.085938 28.359375 37.835938 28.421875 37.550781 28.441406 C 37.269531 28.460938 37.003906 28.429688 36.75 28.359375 C 36.496094 28.289062 36.28125 28.164062 36.097656 27.988281 C 35.917969 27.816406 35.824219 27.589844 35.8125 27.3125 L 35.8125 23.652344 C 35.847656 23.386719 35.957031 23.171875 36.144531 23.011719 C 36.332031 22.847656 36.550781 22.734375 36.800781 22.667969 C 37.054688 22.601562 37.316406 22.585938 37.589844 22.621094 C 37.859375 22.660156 38.097656 22.730469 38.300781 22.839844 Z M 40.828125 17.371094 L 38.300781 17.371094 L 38.300781 20.925781 C 37.832031 20.710938 37.320312 20.601562 36.765625 20.601562 C 36.335938 20.601562 35.910156 20.675781 35.496094 20.828125 C 35.082031 20.976562 34.710938 21.1875 34.386719 21.457031 C 34.0625 21.730469 33.796875 22.058594 33.601562 22.453125 C 33.402344 22.84375 33.304688 23.285156 33.304688 23.777344 L 33.304688 27.078125 C 33.351562 27.679688 33.484375 28.1875 33.710938 28.601562 C 33.929688 29.019531 34.21875 29.351562 34.574219 29.605469 C 34.929688 29.855469 35.328125 30.039062 35.773438 30.144531 C 36.21875 30.253906 36.6875 30.308594 37.183594 30.308594 C 37.773438 30.308594 38.382812 30.246094 39.011719 30.117188 C 39.644531 29.992188 40.25 29.820312 40.828125 29.605469 L 40.828125 17.371094 "/>
<path style=" stroke:none;fill-rule:nonzero;fill:rgb(8.378601%,8.714294%,8.441162%);fill-opacity:1;" d="M 31.644531 27.683594 L 31.644531 21.105469 C 31.644531 20.492188 31.53125 19.96875 31.300781 19.535156 C 31.074219 19.101562 30.769531 18.753906 30.390625 18.480469 C 30.011719 18.210938 29.578125 18.011719 29.09375 17.886719 C 28.605469 17.761719 28.097656 17.695312 27.566406 17.695312 C 26.988281 17.695312 26.414062 17.769531 25.835938 17.914062 C 25.257812 18.058594 24.710938 18.257812 24.195312 18.507812 L 24.195312 20.640625 L 24.1875 20.640625 L 24.1875 27.929688 C 23.902344 28.039062 23.597656 28.09375 23.285156 28.09375 C 22.867188 28.09375 22.5 27.976562 22.1875 27.742188 C 21.871094 27.507812 21.71875 27.113281 21.71875 26.558594 L 21.71875 20.640625 L 19.210938 20.640625 L 19.210938 26.703125 C 19.210938 27.367188 19.316406 27.917969 19.535156 28.363281 C 19.75 28.808594 20.039062 29.164062 20.402344 29.429688 C 20.761719 29.695312 21.179688 29.882812 21.652344 29.996094 C 22.128906 30.109375 22.625 30.167969 23.144531 30.167969 C 23.792969 30.167969 24.417969 30.097656 25.019531 29.960938 C 25.621094 29.824219 26.171875 29.664062 26.679688 29.480469 L 26.679688 20.203125 C 26.980469 20.035156 27.34375 19.953125 27.730469 19.953125 C 28.089844 19.953125 28.417969 20.050781 28.714844 20.25 C 29.007812 20.449219 29.15625 20.765625 29.15625 21.195312 L 29.15625 27.585938 C 29.5 27.441406 29.875 27.367188 30.28125 27.367188 C 30.785156 27.367188 31.242188 27.472656 31.644531 27.683594 "/>
<path style=" stroke:none;fill-rule:nonzero;fill:rgb(74.926758%,7.099915%,42.727661%);fill-opacity:1;" d="M 31.90625 29.855469 C 31.734375 29.113281 31.074219 28.558594 30.28125 28.558594 C 29.351562 28.558594 28.601562 29.308594 28.601562 30.234375 C 28.601562 31.160156 29.351562 31.914062 30.28125 31.914062 C 31.0625 31.914062 31.71875 31.371094 31.898438 30.644531 C 31.761719 30.703125 31.613281 30.753906 31.453125 30.773438 C 30.96875 30.832031 30.472656 30.71875 30.140625 30.410156 C 30.097656 30.414062 29.988281 30.433594 29.914062 30.441406 C 29.957031 30.367188 29.988281 30.3125 30.035156 30.222656 C 30.296875 30.292969 30.578125 30.316406 30.863281 30.28125 C 31.257812 30.234375 31.613281 30.078125 31.90625 29.855469 "/>
</g>
</svg>
