<?xml version="1.0" encoding="UTF-8"?>
<svg xmlns="http://www.w3.org/2000/svg" xmlns:xlink="http://www.w3.org/1999/xlink" width="56pt" height="56pt" viewBox="0 0 56 56" version="1.1">
<g id="surface1">
<rect x="0" y="0" width="56" height="56" style="fill:rgb(95.666504%,95.776367%,96.775818%);fill-opacity:1;stroke:none;"/>
<rect x="0" y="0" width="56" height="56" style="fill:rgb(73.329163%,57.559204%,12.069702%);fill-opacity:1;stroke:none;"/>
<path style=" stroke:none;fill-rule:evenodd;fill:rgb(100%,100%,100%);fill-opacity:1;" d="M 46.628906 38.011719 C 46.628906 38.007812 46.632812 38.007812 46.632812 38 C 46.632812 37.972656 46.609375 37.941406 46.574219 37.941406 C 46.550781 37.941406 46.53125 37.960938 46.523438 37.984375 C 42.878906 44.375 35.988281 48.699219 28.09375 48.699219 C 16.40625 48.699219 6.929688 39.226562 6.929688 27.542969 C 6.929688 23.671875 7.964844 20.042969 9.785156 16.917969 L 9.777344 16.917969 C 9.78125 16.910156 9.785156 16.90625 9.785156 16.902344 C 9.785156 16.871094 9.753906 16.84375 9.726562 16.84375 C 9.710938 16.84375 9.699219 16.847656 9.6875 16.859375 L 9.683594 16.859375 C 7.320312 20.292969 6.011719 24.386719 6.011719 28.875 C 6.011719 40.664062 15.582031 50.179688 27.371094 50.179688 C 35.914062 50.179688 43.203125 45.28125 46.617188 38.03125 C 46.625 38.03125 46.625 38.019531 46.628906 38.011719 "/>
<path style=" stroke:none;fill-rule:evenodd;fill:rgb(100%,100%,100%);fill-opacity:1;" d="M 28.132812 31.585938 L 28.667969 31.171875 L 29.210938 27.480469 L 28.859375 27.480469 L 29.289062 23.777344 L 28.878906 23.777344 L 29.398438 20.042969 L 28.902344 20.042969 L 29.332031 16.398438 C 30.792969 18.269531 31.710938 22.042969 31.988281 24.957031 C 33.210938 22.714844 32.792969 17.640625 31.519531 15.53125 C 33.769531 16.757812 36.214844 20.125 37.617188 23.570312 C 38.394531 20.324219 35.90625 15.710938 33.261719 13.726562 C 35.84375 14.207031 39.222656 16.214844 42.460938 20.042969 C 41.398438 14.917969 36.335938 11.816406 33.324219 11.183594 C 36.640625 10.847656 39.875 11.90625 42.804688 13.335938 C 39.628906 9.65625 34.820312 8.332031 31.648438 8.691406 C 32.183594 8.128906 32.703125 7.828125 33.507812 7.578125 C 32.175781 6.960938 30.082031 7.285156 29.265625 8.199219 C 29.265625 8.199219 29.105469 6.488281 28.132812 5.820312 L 28.132812 31.585938 "/>
<path style=" stroke:none;fill-rule:evenodd;fill:rgb(100%,100%,100%);fill-opacity:1;" d="M 28.132812 31.585938 L 27.589844 31.171875 L 27.050781 27.480469 L 27.402344 27.480469 L 26.972656 23.777344 L 27.378906 23.777344 L 26.859375 20.042969 L 27.363281 20.042969 L 26.929688 16.398438 C 25.484375 18.269531 24.566406 22.042969 24.28125 24.957031 C 23.050781 22.714844 23.476562 17.640625 24.753906 15.53125 C 22.496094 16.757812 20.046875 20.125 18.644531 23.570312 C 17.871094 20.324219 20.351562 15.710938 23.007812 13.726562 C 20.414062 14.207031 17.046875 16.214844 13.804688 20.042969 C 14.875 14.917969 19.925781 11.816406 22.941406 11.183594 C 19.625 10.847656 16.390625 11.90625 13.464844 13.335938 C 16.644531 9.65625 21.445312 8.332031 24.628906 8.691406 C 24.085938 8.128906 23.5625 7.828125 22.761719 7.578125 C 24.09375 6.960938 26.183594 7.285156 26.996094 8.199219 C 26.996094 8.199219 27.15625 6.488281 28.132812 5.820312 L 28.132812 31.585938 "/>
<path style=" stroke:none;fill-rule:evenodd;fill:rgb(100%,100%,100%);fill-opacity:1;" d="M 28.664062 31.179688 L 28.132812 31.585938 L 27.59375 31.179688 L 25.847656 32.070312 L 25.847656 32.203125 L 30.421875 32.203125 L 30.421875 32.070312 L 28.664062 31.179688 "/>
<path style=" stroke:none;fill-rule:evenodd;fill:rgb(100%,100%,100%);fill-opacity:1;" d="M 21.605469 39.921875 C 23.761719 38.515625 26.332031 36.605469 29.128906 34.925781 C 34.847656 31.492188 42.683594 27.566406 46.679688 31.71875 C 39.792969 28.972656 27.800781 38.042969 22.699219 41.042969 C 22.535156 40.875 21.90625 40.230469 21.605469 39.921875 "/>
<path style=" stroke:none;fill-rule:evenodd;fill:rgb(100%,100%,100%);fill-opacity:1;" d="M 25.90625 42.382812 C 25.917969 42.066406 25.667969 41.808594 25.371094 41.808594 C 25.066406 41.792969 24.816406 42.039062 24.804688 42.351562 L 24.804688 42.40625 C 24.335938 42.074219 23.84375 41.417969 22.613281 40.132812 C 20.074219 37.480469 19.171875 37.867188 18.96875 37.953125 C 18.757812 38.035156 18.609375 38.230469 18.605469 38.460938 C 18.59375 38.78125 18.839844 39.039062 19.144531 39.046875 C 19.453125 39.054688 19.703125 38.808594 19.710938 38.492188 C 19.710938 38.449219 19.710938 38.410156 19.703125 38.375 C 20.285156 38.734375 20.84375 39.234375 22.207031 40.648438 C 24.457031 42.976562 24.925781 42.953125 25.367188 42.929688 C 25.667969 42.914062 25.898438 42.691406 25.90625 42.382812 "/>
<path style=" stroke:none;fill-rule:evenodd;fill:rgb(100%,100%,100%);fill-opacity:1;" d="M 15.875 41.898438 C 15.96875 41.808594 16.136719 41.855469 16.328125 41.933594 C 17.359375 42.355469 19.027344 41.5625 21.140625 40.222656 L 22.183594 41.339844 C 18.222656 43.5625 16.679688 43.117188 15.980469 42.332031 C 15.816406 42.152344 15.785156 42 15.875 41.898438 "/>
<path style=" stroke:none;fill-rule:evenodd;fill:rgb(100%,100%,100%);fill-opacity:1;" d="M 34.65625 39.921875 C 32.5 38.515625 29.921875 36.605469 27.128906 34.925781 C 21.414062 31.492188 13.582031 27.566406 9.582031 31.71875 C 16.46875 28.96875 28.460938 38.042969 33.566406 41.042969 C 33.726562 40.875 34.351562 40.230469 34.65625 39.921875 "/>
<path style=" stroke:none;fill-rule:evenodd;fill:rgb(100%,100%,100%);fill-opacity:1;" d="M 30.355469 42.382812 C 30.351562 42.066406 30.59375 41.808594 30.898438 41.804688 C 31.203125 41.792969 31.457031 42.039062 31.464844 42.351562 C 31.464844 42.371094 31.464844 42.386719 31.464844 42.40625 C 31.929688 42.074219 32.421875 41.410156 33.652344 40.132812 C 36.175781 37.476562 37.082031 37.867188 37.289062 37.953125 C 37.492188 38.035156 37.648438 38.226562 37.648438 38.460938 C 37.660156 38.78125 37.414062 39.039062 37.117188 39.046875 C 36.808594 39.054688 36.550781 38.804688 36.546875 38.488281 C 36.546875 38.449219 36.550781 38.410156 36.558594 38.367188 C 35.96875 38.734375 35.425781 39.234375 34.050781 40.648438 C 31.808594 42.976562 31.34375 42.949219 30.898438 42.925781 C 30.597656 42.914062 30.363281 42.691406 30.355469 42.382812 "/>
<path style=" stroke:none;fill-rule:evenodd;fill:rgb(100%,100%,100%);fill-opacity:1;" d="M 40.382812 41.898438 C 40.292969 41.804688 40.125 41.855469 39.933594 41.933594 C 38.902344 42.355469 37.226562 41.5625 35.121094 40.222656 L 34.078125 41.339844 C 38.039062 43.558594 39.585938 43.117188 40.28125 42.324219 C 40.445312 42.152344 40.476562 42 40.382812 41.898438 "/>
</g>
</svg>
