<?xml version="1.0" encoding="UTF-8"?>
<svg xmlns="http://www.w3.org/2000/svg" xmlns:xlink="http://www.w3.org/1999/xlink" width="56pt" height="56pt" viewBox="0 0 56 56" version="1.1">
<g id="surface1">
<rect x="0" y="0" width="56" height="56" style="fill:rgb(95.666504%,95.776367%,96.775818%);fill-opacity:1;stroke:none;"/>
<path style=" stroke:none;fill-rule:nonzero;fill:rgb(16.598511%,59.907532%,24.938965%);fill-opacity:1;" d="M 17.148438 16.78125 C 17.175781 16.917969 17.207031 17.050781 17.234375 17.1875 C 17.453125 17.21875 17.667969 17.273438 17.886719 17.277344 C 23.535156 17.402344 29.183594 17.511719 34.835938 17.652344 C 37.460938 17.714844 40.089844 17.839844 42.714844 17.925781 C 44.003906 17.972656 45.09375 17.582031 46.101562 16.257812 C 45.261719 16.230469 44.679688 16.191406 44.097656 16.191406 C 35.984375 16.1875 27.867188 16.1875 19.753906 16.1875 C 19.363281 16.1875 18.953125 16.121094 18.582031 16.214844 C 18.089844 16.335938 17.625 16.585938 17.148438 16.78125 Z M 13.03125 24.269531 C 12.40625 24.308594 11.664062 24.027344 11.265625 24.957031 C 11.558594 25.203125 11.84375 25.4375 12.25 25.777344 C 12.375 26.535156 12.558594 27.40625 12.652344 28.289062 C 13.03125 31.929688 14.78125 34.554688 18.1875 36.050781 C 25.304688 39.175781 32.40625 42.335938 39.511719 45.480469 C 40.019531 45.707031 40.519531 45.957031 41.035156 46.203125 C 34.550781 51.816406 21.675781 52.59375 13.128906 45.035156 C 3.8125 36.796875 2.605469 23.121094 10.734375 13.421875 C 18.574219 4.066406 32.71875 2.734375 42.257812 10.492188 C 52.3125 18.667969 52.917969 32.277344 46.449219 41.019531 C 37.953125 38.109375 29.410156 35.1875 20.488281 32.132812 C 21.117188 31.949219 21.414062 31.75 21.636719 31.8125 C 22.496094 32.046875 23.28125 32.011719 24.257812 31.355469 C 23.453125 31.011719 22.800781 30.734375 21.84375 30.328125 C 23.421875 29.777344 24.910156 31.039062 26.1875 29.578125 C 25.03125 29.230469 23.96875 28.914062 22.90625 28.597656 C 22.917969 28.492188 22.929688 28.390625 22.941406 28.285156 C 23.214844 28.25 23.503906 28.152344 23.765625 28.195312 C 24.316406 28.285156 24.847656 28.480469 25.398438 28.574219 C 26.398438 28.742188 27.382812 28.765625 28.371094 27.90625 C 26.765625 27 24.941406 27.234375 23.117188 26.261719 C 23.722656 26.171875 23.996094 26.0625 24.246094 26.105469 C 25.507812 26.328125 26.761719 26.625 28.027344 26.835938 C 29.039062 27 29.988281 26.871094 30.789062 25.75 C 28.246094 25.28125 25.886719 24.847656 23.15625 24.34375 C 24.011719 23.773438 24.558594 23.9375 25.050781 24.011719 C 27.472656 24.371094 29.894531 24.769531 32.316406 25.15625 C 33.554688 25.351562 34.433594 25.015625 35.28125 23.890625 C 31.09375 23.144531 26.90625 22.941406 22.820312 22.167969 C 22.835938 22.03125 22.847656 21.890625 22.863281 21.75 C 23.160156 21.71875 23.464844 21.636719 23.757812 21.667969 C 27.808594 22.09375 31.855469 22.535156 35.90625 22.980469 C 36.734375 23.070312 37.5625 23.246094 38.394531 23.257812 C 39.417969 23.277344 40.292969 22.902344 41.125 21.789062 C 34.515625 21.089844 28.167969 20.730469 21.875 19.886719 C 23.066406 19.433594 24.265625 19.597656 25.449219 19.671875 C 27.792969 19.820312 30.128906 20.050781 32.46875 20.214844 C 35.867188 20.457031 39.269531 20.671875 42.671875 20.902344 C 44.164062 21 45.558594 20.84375 46.691406 19.265625 C 45.640625 19.152344 44.78125 19.011719 43.917969 18.976562 C 39.726562 18.816406 35.535156 18.707031 31.34375 18.535156 C 27.097656 18.363281 22.855469 18.136719 18.613281 17.9375 C 18.054688 17.910156 17.492188 17.945312 16.933594 17.90625 C 16 17.84375 15.261719 18.167969 14.855469 19.015625 C 14.441406 19.882812 14.742188 20.628906 15.40625 21.28125 C 16.878906 22.738281 17.800781 24.5 18.269531 26.511719 C 18.300781 26.664062 18.292969 26.828125 18.296875 26.910156 C 17.402344 26.082031 16.550781 25.148438 15.550781 24.417969 C 14.808594 23.871094 13.878906 23.460938 12.988281 24.308594 L 13.03125 24.269531 "/>
</g>
</svg>
