<?xml version="1.0" encoding="UTF-8"?>
<svg xmlns="http://www.w3.org/2000/svg" xmlns:xlink="http://www.w3.org/1999/xlink" width="56pt" height="56pt" viewBox="0 0 56 56" version="1.1">
<g id="surface1">
<rect x="0" y="0" width="56" height="56" style="fill:rgb(95.66803%,95.779419%,96.777344%);fill-opacity:1;stroke:none;"/>
<path style=" stroke:none;fill-rule:nonzero;fill:rgb(27.545166%,26.226807%,26.554871%);fill-opacity:1;" d="M 18.9375 20.574219 C 20.109375 18.777344 21.28125 16.976562 22.453125 15.179688 C 22.769531 14.691406 23.089844 14.207031 23.417969 13.695312 C 24.558594 13.695312 25.695312 13.695312 26.898438 13.695312 C 26.871094 13.957031 26.859375 14.191406 26.824219 14.417969 C 26.53125 16.261719 26.234375 18.101562 25.941406 19.945312 C 25.921875 20.0625 25.921875 20.183594 25.914062 20.304688 C 25.804688 20.605469 25.804688 20.605469 25.910156 20.882812 C 25.953125 20.796875 25.984375 20.734375 26.019531 20.667969 C 27.222656 18.578125 28.425781 16.488281 29.632812 14.398438 C 29.769531 14.15625 29.921875 13.921875 30.0625 13.695312 C 31.195312 13.695312 32.292969 13.695312 33.402344 13.695312 C 33.246094 14.203125 26.246094 25.945312 25.433594 27.078125 C 24.257812 27.078125 23.078125 27.078125 21.851562 27.078125 C 22.257812 24.441406 22.65625 21.847656 23.058594 19.253906 C 23.152344 19.117188 23.195312 18.984375 23.070312 18.78125 C 23.003906 18.890625 22.96875 18.957031 22.929688 19.019531 C 21.1875 21.695312 19.445312 24.375 17.6875 27.078125 C 16.511719 27.078125 15.335938 27.078125 14.082031 27.078125 C 14.320312 25.546875 14.691406 24.074219 14.984375 22.589844 C 15.277344 21.109375 15.597656 19.640625 15.910156 18.164062 C 16.222656 16.675781 16.535156 15.1875 16.851562 13.691406 C 18.035156 13.691406 19.152344 13.691406 20.328125 13.691406 C 20.230469 14.128906 20.148438 14.515625 20.054688 14.902344 C 19.65625 16.601562 19.25 18.300781 18.851562 20.003906 C 18.816406 20.140625 18.800781 20.28125 18.78125 20.417969 C 18.738281 20.554688 18.703125 20.695312 18.660156 20.832031 C 18.695312 20.84375 18.730469 20.859375 18.765625 20.871094 C 18.820312 20.773438 18.878906 20.671875 18.9375 20.574219 "/>
<path style=" stroke:none;fill-rule:nonzero;fill:rgb(27.545166%,26.226807%,26.554871%);fill-opacity:1;" d="M 41.011719 19.925781 C 40.078125 22.292969 39.144531 24.660156 38.203125 27.058594 C 37.109375 27.058594 36.035156 27.058594 34.878906 27.058594 C 36.628906 22.582031 38.359375 18.152344 40.097656 13.699219 C 41.203125 13.699219 42.28125 13.699219 43.4375 13.699219 C 43.890625 16.078125 44.34375 18.460938 44.804688 20.871094 C 45.058594 20.769531 45.066406 20.542969 45.132812 20.375 C 45.902344 18.410156 46.664062 16.441406 47.429688 14.472656 C 47.53125 14.214844 47.652344 13.960938 47.769531 13.691406 C 48.855469 13.691406 49.917969 13.691406 50.976562 13.691406 C 50.933594 14.15625 46.390625 25.945312 45.828125 27.058594 C 44.753906 27.058594 43.65625 27.058594 42.5 27.058594 C 42.039062 24.675781 41.582031 22.308594 41.125 19.9375 C 41.085938 19.933594 41.046875 19.929688 41.011719 19.925781 "/>
<path style=" stroke:none;fill-rule:nonzero;fill:rgb(27.545166%,26.226807%,26.554871%);fill-opacity:1;" d="M 8.542969 17.191406 C 8.5625 17.140625 8.582031 17.09375 8.632812 16.980469 C 7.511719 16.980469 6.433594 16.980469 5.261719 16.980469 C 5.597656 15.8125 6.074219 14.785156 6.4375 13.695312 C 9.84375 13.695312 13.210938 13.695312 16.621094 13.695312 C 16.550781 14.289062 16.28125 14.78125 16.105469 15.304688 C 15.925781 15.835938 15.5 16.925781 15.5 16.925781 C 15.5 16.925781 13.371094 16.960938 12.566406 16.972656 C 12.398438 16.972656 12.230469 17.03125 12.0625 17.066406 C 12.046875 17.101562 12.03125 17.140625 12.015625 17.175781 C 11.660156 18.09375 11.296875 19.007812 10.957031 19.929688 C 10.125 22.152344 9.308594 24.378906 8.480469 26.605469 C 8.433594 26.734375 8.363281 26.859375 8.304688 26.984375 C 8.289062 26.972656 8.273438 26.945312 8.261719 26.945312 C 7.179688 26.949219 6.101562 26.957031 5.019531 26.964844 C 5.332031 26.078125 5.632812 25.183594 5.957031 24.300781 C 6.773438 22.082031 7.601562 19.867188 8.421875 17.648438 C 8.476562 17.5 8.503906 17.34375 8.542969 17.1875 L 8.542969 17.191406 "/>
<path style=" stroke:none;fill-rule:nonzero;fill:rgb(27.545166%,26.226807%,26.554871%);fill-opacity:1;" d="M 45.777344 29.011719 C 45.460938 29.792969 45.140625 30.574219 44.820312 31.351562 C 44.714844 31.613281 44.609375 31.871094 44.488281 32.171875 C 43.292969 32.171875 42.113281 32.171875 40.890625 32.171875 C 39.558594 35.550781 38.242188 38.898438 36.914062 42.269531 C 35.75 42.308594 34.617188 42.289062 33.382812 42.269531 C 34.703125 38.875 35.984375 35.585938 37.289062 32.242188 C 36.695312 32.105469 34.429688 32.171875 33.871094 32.171875 C 33.878906 31.65625 34.597656 29.707031 35.070312 28.890625 C 38.621094 28.890625 42.199219 28.890625 45.777344 28.890625 C 45.777344 28.929688 45.777344 28.972656 45.777344 29.011719 "/>
<path style=" stroke:none;fill-rule:nonzero;fill:rgb(27.545166%,26.226807%,26.554871%);fill-opacity:1;" d="M 18.859375 42.265625 C 18.90625 41.804688 23.683594 29.53125 24.054688 28.902344 C 27.148438 28.902344 30.261719 28.902344 33.375 28.902344 C 33.34375 29.347656 32.714844 31.007812 32.324219 31.695312 C 30.390625 31.824219 28.421875 31.699219 26.417969 31.773438 C 26.152344 32.441406 25.894531 33.089844 25.621094 33.78125 C 26.089844 33.933594 26.527344 33.839844 26.953125 33.855469 C 27.417969 33.875 27.878906 33.859375 28.34375 33.859375 C 28.785156 33.859375 29.226562 33.859375 29.671875 33.859375 C 30.109375 33.859375 30.550781 33.859375 31.082031 33.859375 C 30.773438 34.835938 30.398438 35.691406 30.039062 36.605469 C 28.210938 36.605469 26.382812 36.605469 24.523438 36.605469 C 24.179688 37.476562 23.851562 38.308594 23.511719 39.1875 C 24.0625 39.332031 24.5625 39.246094 25.050781 39.261719 C 25.554688 39.277344 26.058594 39.265625 26.5625 39.265625 C 27.042969 39.265625 27.527344 39.269531 28.011719 39.269531 C 28.511719 39.269531 29.011719 39.269531 29.597656 39.269531 C 29.199219 40.304688 28.828125 41.273438 28.449219 42.265625 C 25.238281 42.265625 22.050781 42.265625 18.859375 42.265625 "/>
<path style=" stroke:none;fill-rule:nonzero;fill:rgb(27.545166%,26.226807%,26.554871%);fill-opacity:1;" d="M 9.253906 37.605469 C 10.359375 37.449219 11.488281 37.285156 12.640625 37.117188 C 12.75 37.367188 12.597656 37.554688 12.558594 37.761719 C 12.503906 38.050781 12.417969 38.347656 12.421875 38.644531 C 12.429688 39.054688 12.6875 39.265625 13.097656 39.238281 C 13.539062 39.207031 13.925781 39.015625 14.175781 38.652344 C 14.480469 38.210938 14.785156 37.75 14.992188 37.253906 C 15.582031 35.867188 16.117188 34.457031 16.671875 33.054688 C 17.167969 31.804688 17.664062 30.550781 18.164062 29.300781 C 18.214844 29.171875 18.285156 29.054688 18.359375 28.90625 C 19.503906 28.90625 20.640625 28.90625 21.832031 28.90625 C 21.78125 29.089844 21.753906 29.238281 21.699219 29.378906 C 20.699219 31.878906 19.710938 34.382812 18.6875 36.875 C 18.222656 38.011719 17.703125 39.128906 16.867188 40.050781 C 15.199219 41.902344 13.132812 42.636719 10.675781 42.171875 C 9.429688 41.9375 8.835938 41.230469 8.753906 39.972656 C 8.710938 39.296875 8.933594 38.210938 9.253906 37.605469 "/>
<path style=" stroke:none;fill-rule:nonzero;fill:rgb(27.545166%,26.226807%,26.554871%);fill-opacity:1;" d="M 38.5625 13.703125 C 36.851562 18.210938 35.082031 22.621094 33.355469 27.070312 C 32.183594 27.070312 31.046875 27.070312 29.824219 27.070312 C 30.347656 25.542969 30.964844 24.09375 31.535156 22.628906 C 32.113281 21.128906 32.703125 19.632812 33.285156 18.136719 C 33.863281 16.660156 34.441406 15.1875 35.019531 13.703125 C 36.199219 13.703125 37.335938 13.703125 38.5625 13.703125 "/>
</g>
</svg>
