<?xml version="1.0" encoding="UTF-8"?>
<svg xmlns="http://www.w3.org/2000/svg" xmlns:xlink="http://www.w3.org/1999/xlink" width="56pt" height="56pt" viewBox="0 0 56 56" version="1.1">
<g id="surface1">
<rect x="0" y="0" width="56" height="56" style="fill:rgb(95.666504%,95.776367%,96.775818%);fill-opacity:1;stroke:none;"/>
<path style=" stroke:none;fill-rule:nonzero;fill:rgb(14.910889%,27.032471%,56.233215%);fill-opacity:1;" d="M 1.730469 32.625 L 42.789062 11.15625 L 42.789062 16.34375 L 22.675781 27.515625 L 42.789062 27.511719 L 42.789062 32.625 L 1.730469 32.625 "/>
<path style=" stroke:none;fill-rule:nonzero;fill:rgb(86.123657%,13.285828%,14.433289%);fill-opacity:1;" d="M 7.625 28 C 7.625 16.996094 16.582031 8.039062 27.585938 8.039062 C 31.976562 8.039062 36.039062 9.464844 39.335938 11.875 L 41.96875 10.476562 C 38.050781 7.253906 33.039062 5.320312 27.585938 5.320312 C 15.082031 5.320312 4.90625 15.496094 4.90625 28 C 4.90625 28.722656 4.941406 29.4375 5.007812 30.144531 L 7.640625 28.742188 C 7.632812 28.496094 7.625 28.246094 7.625 28 "/>
<path style=" stroke:none;fill-rule:nonzero;fill:rgb(86.123657%,13.285828%,14.433289%);fill-opacity:1;" d="M 42.949219 11.328125 L 42.949219 15.269531 C 45.820312 18.726562 47.546875 23.164062 47.546875 28 C 47.546875 39.007812 38.59375 47.960938 27.585938 47.960938 C 18.363281 47.960938 10.582031 41.667969 8.300781 33.152344 L 5.496094 33.152344 C 7.835938 43.183594 16.851562 50.679688 27.585938 50.679688 C 40.09375 50.679688 50.269531 40.507812 50.269531 28 C 50.269531 21.414062 47.445312 15.476562 42.949219 11.328125 "/>
<path style=" stroke:none;fill-rule:nonzero;fill:rgb(86.123657%,13.285828%,14.433289%);fill-opacity:1;" d="M 42.789062 17.152344 L 25.75 26.808594 L 42.789062 26.808594 Z M 42.789062 17.152344 "/>
<path style=" stroke:none;fill-rule:nonzero;fill:rgb(7.913208%,7.45697%,6.997681%);fill-opacity:1;" d="M 45.539062 35.910156 L 13.679688 35.910156 L 10.929688 33.152344 L 42.789062 33.152344 L 45.539062 35.910156 "/>
</g>
</svg>
