<?xml version="1.0" encoding="UTF-8"?>
<svg xmlns="http://www.w3.org/2000/svg" xmlns:xlink="http://www.w3.org/1999/xlink" width="56pt" height="56pt" viewBox="0 0 56 56" version="1.1">
<g id="surface1">
<rect x="0" y="0" width="56" height="56" style="fill:rgb(95.66803%,95.779419%,96.777344%);fill-opacity:1;stroke:none;"/>
<path style=" stroke:none;fill-rule:evenodd;fill:rgb(17.715454%,35.830688%,69.302368%);fill-opacity:1;" d="M 28.972656 17.074219 C 30.183594 17.074219 31.394531 17.074219 32.59375 17.074219 C 33.542969 20.074219 34.492188 23.066406 35.460938 26.117188 C 35.769531 26.117188 36.03125 26.117188 36.292969 26.117188 C 37.480469 26.117188 38.671875 26.109375 39.859375 26.125 C 40.167969 26.128906 40.472656 26.199219 40.792969 26.242188 C 40.792969 27.089844 40.792969 27.859375 40.792969 28.699219 C 39.292969 28.699219 37.820312 28.699219 36.234375 28.699219 C 36.605469 29.703125 36.871094 30.640625 37.285156 31.511719 C 38.203125 33.429688 39.246094 35.289062 40.421875 37.0625 C 40.980469 37.90625 41.742188 38.613281 42.359375 39.421875 C 43.167969 40.484375 44.222656 41.269531 45.242188 42.09375 C 45.671875 42.445312 46.152344 42.734375 46.636719 43.066406 C 44.585938 43.339844 42.546875 43.382812 40.519531 43.261719 C 39.230469 43.179688 37.945312 42.933594 36.710938 42.5 C 34.464844 41.71875 32.78125 40.28125 31.628906 38.21875 C 30.730469 36.605469 30.246094 34.839844 29.785156 33.070312 C 29.445312 31.765625 29.128906 30.457031 28.789062 29.152344 C 28.75 29.003906 28.644531 28.871094 28.539062 28.679688 C 27.355469 28.679688 26.152344 28.679688 24.90625 28.679688 C 25.039062 27.726562 25.589844 27.019531 25.851562 26.21875 C 26.566406 25.925781 27.296875 26.347656 28.023438 26.046875 C 27.617188 24.382812 27.222656 22.753906 26.804688 21.027344 C 26.691406 21.21875 26.601562 21.324219 26.566406 21.441406 C 25.90625 23.546875 25.109375 25.589844 24.160156 27.582031 C 23.644531 28.667969 23.085938 29.707031 22.40625 30.699219 C 21.257812 32.382812 19.742188 33.589844 17.820312 34.28125 C 16.78125 34.652344 15.695312 34.648438 14.644531 34.476562 C 13.328125 34.265625 12.074219 33.8125 11.019531 32.933594 C 10.898438 32.832031 10.757812 32.753906 10.636719 32.652344 C 10.535156 32.566406 10.449219 32.460938 10.382812 32.390625 C 11.179688 31.722656 11.953125 31.0625 12.746094 30.433594 C 13.460938 29.863281 14.21875 29.359375 14.828125 28.664062 C 16.523438 26.738281 18.296875 24.867188 19.652344 22.667969 C 20.554688 21.1875 21.304688 19.636719 21.710938 17.933594 C 21.761719 17.726562 21.914062 17.539062 22.019531 17.34375 C 21.972656 17.992188 21.929688 18.640625 21.878906 19.351562 C 22.339844 19.054688 22.730469 18.796875 23.140625 18.53125 C 23.339844 18.769531 23.488281 18.945312 23.652344 19.144531 C 23.90625 18.917969 24.140625 18.710938 24.382812 18.496094 C 24.472656 18.988281 24.558594 19.441406 24.65625 19.976562 C 25.0625 19.476562 25.007812 18.847656 25.40625 18.40625 C 25.648438 18.621094 25.84375 18.796875 26.089844 19.015625 C 26.46875 18.882812 26.855469 18.742188 27.25 18.605469 C 27.46875 18.847656 27.660156 19.058594 27.871094 19.289062 C 28.171875 19.011719 28.460938 18.75 28.769531 18.464844 C 28.972656 18.789062 29.148438 19.066406 29.375 19.421875 C 29.617188 19.078125 29.789062 18.832031 30.007812 18.527344 C 30.398438 18.867188 30.75 19.171875 31.171875 19.535156 C 31.222656 19.113281 31.261719 18.789062 31.308594 18.40625 C 31.796875 18.6875 32.199219 18.917969 32.761719 19.246094 C 32.585938 18.496094 32.453125 17.921875 32.316406 17.355469 C 28.851562 17.355469 25.425781 17.355469 22.003906 17.355469 C 22.066406 17.296875 22.128906 17.1875 22.191406 17.183594 C 22.46875 17.171875 22.75 17.1875 23.027344 17.191406 C 24.675781 17.191406 26.324219 17.191406 27.96875 17.179688 C 28.140625 17.179688 28.3125 17.117188 28.484375 17.078125 C 28.597656 17.078125 28.714844 17.078125 28.832031 17.078125 C 28.878906 17.078125 28.925781 17.078125 28.972656 17.074219 "/>
<path style=" stroke:none;fill-rule:evenodd;fill:rgb(23.875427%,67.134094%,37.213135%);fill-opacity:1;" d="M 16.6875 23.621094 C 16.558594 23.777344 16.445312 23.949219 16.296875 24.078125 C 15.265625 24.96875 14.210938 25.832031 13.195312 26.738281 C 12.777344 27.113281 12.421875 27.558594 12.070312 27.992188 C 11.410156 28.796875 10.75 29.605469 10.132812 30.441406 C 9.011719 31.964844 8.046875 33.578125 7.679688 35.46875 C 7.394531 36.9375 7.652344 38.238281 8.816406 39.316406 C 9.476562 39.933594 10.246094 40.261719 11.070312 40.554688 C 12.945312 41.21875 14.890625 41.097656 16.804688 40.972656 C 18.40625 40.867188 20.007812 40.53125 21.582031 40.171875 C 23.121094 39.820312 24.644531 39.355469 26.148438 38.867188 C 27.351562 38.472656 28.515625 37.96875 29.699219 37.515625 C 29.808594 37.476562 29.9375 37.484375 30.109375 37.582031 C 30.027344 37.648438 29.957031 37.734375 29.863281 37.777344 C 27.046875 39.0625 24.179688 40.207031 21.207031 41.078125 C 19.6875 41.523438 18.136719 41.855469 16.585938 42.179688 C 14.441406 42.628906 12.28125 42.742188 10.113281 42.613281 C 8.679688 42.53125 7.269531 42.214844 6.085938 41.320312 C 5.191406 40.644531 4.707031 39.75 4.636719 38.589844 C 4.527344 36.707031 5.238281 35.101562 6.210938 33.582031 C 7.222656 32 8.402344 30.546875 9.730469 29.21875 C 10.222656 28.726562 10.632812 28.152344 11.140625 27.679688 C 11.886719 26.988281 12.667969 26.332031 13.464844 25.699219 C 14.253906 25.070312 15.082031 24.484375 15.898438 23.886719 C 16.101562 23.734375 16.328125 23.609375 16.546875 23.472656 C 16.59375 23.519531 16.640625 23.570312 16.6875 23.621094 "/>
<path style=" stroke:none;fill-rule:evenodd;fill:rgb(23.875427%,67.134094%,37.213135%);fill-opacity:1;" d="M 38.628906 32.871094 C 38.792969 32.675781 38.863281 32.566406 38.957031 32.488281 C 39.480469 32.046875 40.023438 31.632812 40.53125 31.179688 C 41.261719 30.527344 41.964844 29.847656 42.679688 29.175781 C 42.757812 29.101562 42.84375 29.03125 42.90625 28.945312 C 44.050781 27.375 45.40625 25.964844 46.441406 24.308594 C 47.175781 23.132812 47.816406 21.921875 48.195312 20.585938 C 48.628906 19.03125 48.433594 17.574219 47.417969 16.296875 C 46.964844 15.730469 46.320312 15.355469 45.652344 15.097656 C 44.53125 14.660156 43.355469 14.429688 42.144531 14.425781 C 41.335938 14.425781 40.519531 14.371094 39.714844 14.457031 C 38.320312 14.609375 36.914062 14.761719 35.550781 15.113281 C 34.324219 15.429688 33.109375 15.816406 31.878906 16.117188 C 31.394531 16.234375 30.875 16.210938 30.34375 16.125 C 30.726562 15.953125 31.101562 15.761719 31.492188 15.609375 C 33.519531 14.84375 35.570312 14.148438 37.679688 13.65625 C 38.941406 13.359375 40.238281 13.222656 41.507812 12.953125 C 42.148438 12.816406 42.78125 12.824219 43.421875 12.792969 C 43.792969 12.773438 44.164062 12.664062 44.53125 12.675781 C 45.726562 12.71875 46.9375 12.804688 48.070312 13.171875 C 49.125 13.507812 50.15625 14.007812 50.757812 15.054688 C 51.265625 15.9375 51.488281 16.894531 51.316406 17.898438 C 50.980469 19.816406 50.097656 21.488281 48.984375 23.070312 C 47.921875 24.585938 46.699219 25.949219 45.40625 27.261719 C 45.035156 27.644531 44.726562 28.089844 44.347656 28.464844 C 43.851562 28.953125 43.320312 29.410156 42.789062 29.863281 C 42.160156 30.402344 41.519531 30.925781 40.875 31.449219 C 40.296875 31.917969 39.714844 32.386719 39.117188 32.835938 C 39.039062 32.898438 38.882812 32.855469 38.628906 32.871094 "/>
<path style=" stroke:none;fill-rule:evenodd;fill:rgb(23.875427%,67.134094%,37.213135%);fill-opacity:1;" d="M 28.972656 17.074219 C 28.925781 17.078125 28.878906 17.078125 28.832031 17.078125 C 28.878906 17.03125 28.925781 17.03125 28.972656 17.074219 "/>
<path style=" stroke:none;fill-rule:evenodd;fill:rgb(100%,100%,100%);fill-opacity:1;" d="M 22.003906 17.355469 C 25.425781 17.355469 28.851562 17.355469 32.316406 17.355469 C 32.453125 17.921875 32.585938 18.496094 32.761719 19.246094 C 32.199219 18.917969 31.796875 18.6875 31.308594 18.40625 C 31.261719 18.789062 31.222656 19.113281 31.171875 19.535156 C 30.75 19.171875 30.398438 18.867188 30.007812 18.527344 C 29.789062 18.832031 29.617188 19.078125 29.375 19.421875 C 29.148438 19.066406 28.972656 18.789062 28.769531 18.464844 C 28.460938 18.75 28.171875 19.011719 27.871094 19.289062 C 27.660156 19.058594 27.46875 18.847656 27.25 18.605469 C 26.855469 18.742188 26.46875 18.882812 26.089844 19.015625 C 25.84375 18.796875 25.648438 18.621094 25.40625 18.40625 C 25.007812 18.847656 25.0625 19.476562 24.65625 19.976562 C 24.558594 19.441406 24.472656 18.988281 24.382812 18.496094 C 24.140625 18.710938 23.90625 18.917969 23.652344 19.144531 C 23.488281 18.945312 23.339844 18.769531 23.140625 18.53125 C 22.730469 18.796875 22.339844 19.054688 21.878906 19.351562 C 21.929688 18.640625 21.972656 17.992188 22.019531 17.34375 L 22.003906 17.355469 "/>
</g>
</svg>
