<?xml version="1.0" encoding="UTF-8"?>
<svg xmlns="http://www.w3.org/2000/svg" xmlns:xlink="http://www.w3.org/1999/xlink" width="56pt" height="56pt" viewBox="0 0 56 56" version="1.1">
<g id="surface1">
<rect x="0" y="0" width="56" height="56" style="fill:rgb(21.482849%,15.817261%,42.552185%);fill-opacity:1;stroke:none;"/>
<path style=" stroke:none;fill-rule:evenodd;fill:rgb(98.497009%,78.038025%,2.856445%);fill-opacity:1;" d="M 48.148438 32.925781 C 47.765625 32.101562 47.324219 31.332031 46.773438 30.667969 C 46.222656 30.011719 45.617188 29.460938 44.957031 28.964844 C 44.625 28.6875 44.238281 28.46875 43.855469 28.300781 C 43.691406 28.191406 43.46875 28.082031 43.304688 27.972656 C 43.46875 27.917969 43.691406 27.808594 43.855469 27.699219 C 44.238281 27.53125 44.625 27.3125 44.957031 27.035156 C 45.617188 26.539062 46.222656 25.988281 46.773438 25.328125 C 47.324219 24.667969 47.765625 23.898438 48.148438 23.074219 C 48.535156 22.246094 48.808594 21.367188 48.972656 20.429688 C 49.03125 19.769531 49.085938 19.109375 49.085938 18.503906 C 49.085938 18.226562 49.085938 17.953125 49.085938 17.621094 C 49.03125 16.851562 48.863281 16.082031 48.589844 15.308594 C 48.316406 14.59375 47.984375 13.824219 47.542969 13.164062 C 47.101562 12.449219 46.605469 11.84375 46.003906 11.238281 C 45.398438 10.683594 44.734375 10.136719 44.019531 9.695312 C 43.25 9.253906 42.476562 8.925781 41.597656 8.703125 C 40.71875 8.429688 39.835938 8.261719 38.84375 8.261719 C 37.910156 8.207031 37.027344 8.320312 36.148438 8.484375 C 35.324219 8.703125 34.496094 9.035156 33.78125 9.417969 C 33.011719 9.804688 32.347656 10.300781 31.742188 10.90625 C 31.191406 11.457031 30.699219 12.117188 30.3125 12.832031 C 29.925781 13.546875 29.652344 14.320312 29.539062 15.144531 C 29.429688 15.585938 29.429688 15.972656 29.429688 16.410156 C 29.429688 16.796875 29.429688 17.128906 29.484375 17.457031 C 28.714844 17.015625 27.945312 16.632812 27.171875 16.410156 C 26.238281 16.082031 25.136719 15.914062 24.035156 15.859375 C 22.988281 15.859375 22 15.972656 21.0625 16.191406 C 20.183594 16.355469 19.300781 16.6875 18.476562 17.128906 C 17.761719 17.511719 16.988281 18.007812 16.273438 18.613281 C 15.832031 19 15.394531 19.382812 14.953125 19.824219 C 14.953125 19.824219 14.292969 20.484375 13.960938 20.925781 C 13.574219 21.308594 13.191406 21.804688 12.804688 22.300781 L 11.925781 23.402344 C 11.703125 23.734375 11.484375 24.007812 11.207031 24.285156 C 10.878906 24.722656 10.492188 25.109375 10.109375 25.492188 C 9.449219 26.15625 8.730469 26.761719 7.960938 27.257812 C 7.796875 27.367188 7.628906 27.476562 7.464844 27.585938 C 7.355469 27.640625 7.246094 27.699219 7.132812 27.753906 C 7.023438 27.808594 6.914062 27.859375 6.914062 27.972656 C 6.914062 28.136719 7.023438 28.191406 7.132812 28.246094 C 7.246094 28.300781 7.355469 28.355469 7.464844 28.414062 C 7.628906 28.523438 7.796875 28.632812 7.960938 28.742188 C 8.730469 29.238281 9.449219 29.84375 10.109375 30.503906 C 10.492188 30.890625 10.878906 31.277344 11.207031 31.714844 C 11.484375 31.992188 11.703125 32.265625 11.925781 32.597656 L 12.804688 33.699219 C 13.191406 34.191406 13.574219 34.691406 13.960938 35.074219 C 14.292969 35.515625 14.953125 36.121094 14.953125 36.121094 C 15.394531 36.613281 15.832031 37 16.273438 37.386719 C 16.988281 37.992188 17.761719 38.488281 18.476562 38.871094 C 19.300781 39.3125 20.183594 39.644531 21.0625 39.808594 C 22 40.082031 22.988281 40.140625 24.035156 40.140625 C 25.136719 40.082031 26.238281 39.917969 27.171875 39.589844 C 27.945312 39.367188 28.714844 38.980469 29.484375 38.542969 C 29.429688 38.871094 29.429688 39.203125 29.429688 39.589844 C 29.429688 40.027344 29.429688 40.414062 29.539062 40.855469 C 29.652344 41.679688 29.925781 42.453125 30.3125 43.164062 C 30.699219 43.882812 31.191406 44.542969 31.742188 45.09375 C 32.347656 45.699219 33.011719 46.195312 33.78125 46.582031 C 34.496094 46.964844 35.324219 47.292969 36.148438 47.515625 C 37.027344 47.679688 37.910156 47.792969 38.84375 47.738281 C 39.835938 47.738281 40.71875 47.570312 41.597656 47.292969 C 42.476562 47.074219 43.25 46.746094 44.019531 46.304688 C 44.734375 45.863281 45.398438 45.316406 46.003906 44.761719 C 46.605469 44.15625 47.101562 43.550781 47.542969 42.835938 C 47.984375 42.175781 48.316406 41.40625 48.589844 40.691406 C 48.863281 39.917969 49.03125 39.148438 49.085938 38.324219 C 49.085938 38.046875 49.085938 37.773438 49.085938 37.496094 C 49.085938 36.890625 49.03125 36.230469 48.972656 35.570312 C 48.808594 34.632812 48.535156 33.753906 48.148438 32.925781 "/>
<path style=" stroke:none;fill-rule:evenodd;fill:rgb(21.482849%,15.817261%,42.552185%);fill-opacity:1;" d="M 45.835938 33.808594 C 45.507812 33.09375 45.121094 32.429688 44.570312 31.828125 C 44.074219 31.21875 43.46875 30.722656 42.808594 30.339844 C 42.09375 29.898438 41.378906 29.570312 40.605469 29.402344 C 39.835938 29.128906 39.011719 29.019531 38.183594 29.019531 C 37.304688 29.019531 36.476562 29.128906 35.597656 29.347656 C 34.882812 29.515625 34.21875 29.734375 33.558594 30.066406 C 32.957031 30.339844 32.40625 30.722656 31.90625 31.109375 C 31.414062 31.441406 30.917969 31.828125 30.476562 32.210938 C 29.980469 32.542969 29.539062 32.871094 29.046875 33.203125 C 28.605469 33.476562 28.109375 33.753906 27.558594 33.972656 C 26.953125 34.136719 26.347656 34.246094 25.742188 34.246094 C 24.917969 34.246094 24.089844 34.082031 23.320312 33.753906 C 22.550781 33.421875 21.890625 32.980469 21.339844 32.375 C 20.734375 31.828125 20.292969 31.109375 20.019531 30.339844 C 19.6875 29.625 19.578125 28.796875 19.578125 27.972656 C 19.578125 27.203125 19.6875 26.375 20.019531 25.660156 C 20.292969 24.890625 20.734375 24.226562 21.339844 23.621094 C 21.890625 23.019531 22.550781 22.578125 23.320312 22.246094 C 24.089844 21.917969 24.917969 21.75 25.742188 21.75 C 26.347656 21.75 26.953125 21.859375 27.558594 22.027344 C 28.109375 22.246094 28.605469 22.523438 29.046875 22.796875 C 29.539062 23.128906 29.980469 23.457031 30.476562 23.84375 C 30.917969 24.171875 31.414062 24.558594 31.90625 24.945312 C 32.40625 25.277344 32.957031 25.660156 33.558594 25.933594 C 34.21875 26.265625 34.882812 26.484375 35.597656 26.652344 C 36.476562 26.871094 37.304688 26.980469 38.183594 26.980469 C 39.011719 26.980469 39.835938 26.871094 40.605469 26.652344 C 41.378906 26.429688 42.09375 26.101562 42.808594 25.660156 C 43.46875 25.277344 44.074219 24.78125 44.570312 24.171875 C 45.121094 23.566406 45.507812 22.90625 45.835938 22.191406 C 46.167969 21.421875 46.386719 20.648438 46.496094 19.824219 C 46.605469 18.945312 46.605469 18.0625 46.445312 17.183594 C 46.277344 16.355469 46.003906 15.53125 45.617188 14.816406 C 45.230469 14.097656 44.734375 13.492188 44.183594 12.941406 C 43.582031 12.335938 42.972656 11.898438 42.257812 11.511719 C 41.542969 11.179688 40.773438 10.90625 40 10.742188 C 39.230469 10.574219 38.347656 10.519531 37.523438 10.628906 C 36.753906 10.742188 35.925781 10.960938 35.210938 11.347656 C 34.550781 11.675781 33.890625 12.171875 33.394531 12.722656 C 32.84375 13.273438 32.460938 13.933594 32.128906 14.648438 C 31.851562 15.363281 31.632812 16.136719 31.578125 16.90625 C 31.578125 17.675781 31.632812 18.503906 31.90625 19.273438 C 31.90625 19.382812 31.964844 19.492188 32.019531 19.605469 C 32.019531 19.660156 32.019531 19.714844 32.074219 19.769531 C 32.074219 19.824219 32.074219 19.878906 32.128906 19.933594 C 32.128906 19.933594 32.183594 19.988281 32.238281 19.988281 C 32.238281 19.988281 32.292969 19.933594 32.292969 19.878906 C 32.292969 19.769531 32.292969 19.660156 32.292969 19.546875 C 32.347656 19.109375 32.460938 18.722656 32.625 18.339844 C 32.957031 17.621094 33.449219 17.015625 34.054688 16.574219 C 34.714844 16.191406 35.484375 15.972656 36.257812 15.914062 C 37.085938 15.859375 37.910156 15.972656 38.625 16.355469 C 39.285156 16.6875 39.835938 17.238281 40.222656 17.898438 C 40.605469 18.558594 40.773438 19.382812 40.773438 20.15625 C 40.773438 20.925781 40.550781 21.75 40.109375 22.410156 C 39.726562 23.074219 39.121094 23.621094 38.40625 24.007812 C 37.691406 24.339844 36.863281 24.503906 36.09375 24.394531 C 35.542969 24.339844 34.992188 24.171875 34.496094 23.953125 C 34 23.734375 33.503906 23.402344 33.066406 23.074219 C 32.570312 22.6875 32.074219 22.300781 31.632812 21.917969 C 31.136719 21.476562 30.644531 21.035156 30.148438 20.648438 C 29.597656 20.210938 29.046875 19.824219 28.441406 19.546875 C 27.78125 19.164062 27.117188 18.886719 26.402344 18.667969 C 25.632812 18.449219 24.804688 18.339844 23.980469 18.339844 C 23.15625 18.339844 22.328125 18.394531 21.503906 18.613281 C 20.789062 18.777344 20.128906 19 19.46875 19.328125 C 18.917969 19.660156 18.367188 20.042969 17.816406 20.484375 C 17.320312 20.871094 16.878906 21.367188 16.4375 21.859375 C 15.996094 22.355469 15.613281 22.851562 15.226562 23.347656 C 14.785156 23.84375 14.402344 24.394531 14.015625 24.890625 C 13.574219 25.386719 13.191406 25.824219 12.695312 26.320312 C 12.253906 26.761719 11.8125 27.148438 11.265625 27.53125 C 11.152344 27.585938 11.042969 27.640625 10.933594 27.699219 C 10.878906 27.753906 10.769531 27.808594 10.714844 27.859375 C 10.65625 27.859375 10.546875 27.917969 10.546875 27.972656 C 10.546875 28.082031 10.65625 28.136719 10.714844 28.191406 C 10.769531 28.191406 10.878906 28.246094 10.933594 28.300781 C 11.042969 28.355469 11.152344 28.414062 11.265625 28.523438 C 11.8125 28.851562 12.253906 29.238281 12.695312 29.679688 C 13.191406 30.121094 13.574219 30.613281 14.015625 31.109375 C 14.402344 31.605469 14.785156 32.15625 15.226562 32.652344 C 15.613281 33.148438 15.996094 33.644531 16.4375 34.136719 C 16.878906 34.632812 17.320312 35.128906 17.816406 35.515625 C 18.367188 35.957031 18.917969 36.339844 19.46875 36.671875 C 20.128906 37 20.789062 37.21875 21.503906 37.386719 C 22.328125 37.605469 23.15625 37.660156 23.980469 37.660156 C 24.804688 37.660156 25.632812 37.550781 26.402344 37.332031 C 27.117188 37.109375 27.78125 36.835938 28.441406 36.507812 C 29.046875 36.175781 29.597656 35.789062 30.148438 35.347656 C 30.644531 34.964844 31.136719 34.523438 31.632812 34.136719 C 32.074219 33.699219 32.570312 33.3125 33.066406 32.925781 C 33.503906 32.597656 34 32.265625 34.496094 32.046875 C 34.992188 31.828125 35.542969 31.660156 36.09375 31.605469 C 36.863281 31.496094 37.691406 31.660156 38.40625 31.992188 C 39.121094 32.324219 39.726562 32.925781 40.109375 33.585938 C 40.550781 34.246094 40.773438 35.074219 40.773438 35.84375 C 40.773438 36.671875 40.605469 37.441406 40.222656 38.101562 C 39.835938 38.761719 39.285156 39.3125 38.625 39.644531 C 37.910156 40.027344 37.085938 40.140625 36.257812 40.082031 C 35.484375 40.082031 34.714844 39.808594 34.054688 39.421875 C 33.449219 38.980469 32.957031 38.378906 32.625 37.660156 C 32.460938 37.277344 32.347656 36.890625 32.292969 36.449219 C 32.292969 36.339844 32.292969 36.230469 32.292969 36.121094 C 32.292969 36.066406 32.238281 36.011719 32.238281 36.011719 C 32.183594 36.011719 32.128906 36.066406 32.128906 36.066406 C 32.074219 36.121094 32.074219 36.175781 32.074219 36.230469 C 32.019531 36.285156 32.019531 36.339844 32.019531 36.394531 C 31.964844 36.507812 31.90625 36.613281 31.90625 36.726562 C 31.632812 37.496094 31.578125 38.324219 31.578125 39.09375 C 31.632812 39.863281 31.851562 40.636719 32.128906 41.351562 C 32.460938 42.066406 32.84375 42.726562 33.394531 43.277344 C 33.890625 43.828125 34.550781 44.324219 35.210938 44.652344 C 35.925781 45.039062 36.753906 45.257812 37.523438 45.367188 C 38.347656 45.476562 39.230469 45.421875 40 45.257812 C 40.773438 45.09375 41.542969 44.820312 42.257812 44.488281 C 42.972656 44.101562 43.582031 43.605469 44.183594 43.054688 C 44.734375 42.507812 45.230469 41.902344 45.617188 41.183594 C 46.003906 40.46875 46.277344 39.644531 46.445312 38.816406 C 46.605469 37.9375 46.605469 37.054688 46.496094 36.175781 C 46.386719 35.347656 46.167969 34.578125 45.835938 33.808594 "/>
<path style=" stroke:none;fill-rule:evenodd;fill:rgb(76.972961%,4.28772%,55.06897%);fill-opacity:1;" d="M 34.109375 27.972656 L 34.054688 27.917969 C 33.066406 27.699219 32.183594 27.148438 31.414062 26.597656 C 30.53125 25.933594 29.707031 25.277344 28.882812 24.667969 C 28 24.0625 27.007812 23.566406 25.964844 23.511719 C 25.136719 23.457031 24.257812 23.621094 23.539062 24.0625 C 22.878906 24.449219 22.328125 25 21.945312 25.660156 C 21.503906 26.375 21.339844 27.203125 21.339844 27.972656 C 21.339844 28.027344 21.339844 28.027344 21.339844 28.027344 C 21.339844 28.796875 21.503906 29.625 21.945312 30.339844 C 22.328125 31 22.878906 31.550781 23.539062 31.933594 C 24.257812 32.324219 25.136719 32.542969 25.964844 32.484375 C 27.007812 32.429688 28 31.933594 28.882812 31.332031 C 29.707031 30.722656 30.53125 30.066406 31.414062 29.402344 C 32.183594 28.851562 33.066406 28.300781 34.054688 28.082031 C 34.054688 28.082031 34.109375 28.027344 34.109375 27.972656 "/>
</g>
</svg>
