<?xml version="1.0" encoding="UTF-8"?>
<svg xmlns="http://www.w3.org/2000/svg" xmlns:xlink="http://www.w3.org/1999/xlink" width="56pt" height="56pt" viewBox="0 0 56 56" version="1.1">
<g id="surface1">
<rect x="0" y="0" width="56" height="56" style="fill:rgb(95.291138%,95.347595%,96.429443%);fill-opacity:1;stroke:none;"/>
<path style=" stroke:none;fill-rule:nonzero;fill:rgb(26.347351%,68.59436%,78.907776%);fill-opacity:1;" d="M 44.363281 47.976562 C 42.335938 47.25 40.894531 46.15625 39.617188 44.886719 C 37.65625 42.941406 35.824219 40.871094 33.882812 38.90625 C 32.824219 37.835938 31.71875 36.785156 30.523438 35.867188 C 26.132812 32.496094 21.402344 32.335938 16.59375 34.800781 C 14.425781 35.910156 12.457031 37.40625 10.394531 38.726562 C 10.191406 38.855469 9.976562 38.972656 9.75 39.109375 C 9.695312 38.925781 9.609375 38.792969 9.644531 38.75 C 12.121094 35.535156 14.453125 32.1875 17.5 29.464844 C 18.582031 28.5 19.757812 27.605469 20.992188 26.847656 C 24.398438 24.769531 27.738281 25.449219 30.574219 28.054688 C 32.636719 29.953125 34.148438 32.25 35.503906 34.671875 C 36.902344 37.171875 38.277344 39.691406 39.75 42.148438 C 40.875 44.027344 42.175781 45.789062 43.808594 47.28125 C 43.949219 47.410156 44.050781 47.582031 44.363281 47.976562 "/>
<path style=" stroke:none;fill-rule:nonzero;fill:rgb(42.880249%,41.841125%,42.098999%);fill-opacity:1;" d="M 32.230469 28.441406 C 30.628906 26.714844 28.816406 25.460938 26.4375 24.945312 C 28.0625 23.03125 29.851562 21.53125 31.6875 20.078125 C 32.992188 19.042969 34.308594 18.023438 35.601562 16.96875 C 38.621094 14.507812 41.210938 11.691406 42.835938 8.023438 C 43.082031 9.234375 43.027344 9.679688 42.574219 11.308594 C 41.773438 14.183594 40.015625 16.523438 38.339844 18.910156 C 36.691406 21.253906 35.050781 23.597656 33.460938 25.976562 C 32.976562 26.699219 32.671875 27.539062 32.230469 28.441406 "/>
<path style=" stroke:none;fill-rule:nonzero;fill:rgb(43.049622%,42.012024%,42.269897%);fill-opacity:1;" d="M 39.570312 46.054688 C 38.945312 45.96875 38.683594 45.996094 38.480469 45.898438 C 34.921875 44.164062 31.398438 42.351562 28.214844 39.972656 C 26.75 38.882812 25.433594 37.605469 24.472656 36.023438 C 24.15625 35.496094 23.902344 34.933594 23.574219 34.304688 C 24.730469 33.914062 25.640625 34.378906 26.535156 34.6875 C 28.785156 35.46875 30.734375 36.785156 32.40625 38.457031 C 34.207031 40.257812 35.902344 42.167969 37.648438 44.03125 C 38.199219 44.621094 38.761719 45.203125 39.570312 46.054688 "/>
</g>
</svg>
