<?xml version="1.0" encoding="UTF-8"?>
<svg xmlns="http://www.w3.org/2000/svg" xmlns:xlink="http://www.w3.org/1999/xlink" width="56pt" height="56pt" viewBox="0 0 56 56" version="1.1">
<g id="surface1">
<rect x="0" y="0" width="56" height="56" style="fill:rgb(95.666504%,95.776367%,96.775818%);fill-opacity:1;stroke:none;"/>
<path style=" stroke:none;fill-rule:nonzero;fill:rgb(13.545227%,22.485352%,42.706299%);fill-opacity:1;" d="M 6.019531 44.421875 C 6.019531 44.421875 6.082031 44.335938 6.75 44.308594 C 7.421875 44.285156 9.304688 44.511719 12.980469 41.9375 C 17.003906 39.121094 38.71875 13.253906 38.71875 13.253906 C 38.71875 13.253906 39.925781 12.046875 40.597656 11.648438 C 41.265625 11.246094 42.074219 11.042969 43.078125 11.042969 C 43.476562 11.042969 49.976562 11.042969 49.976562 11.042969 L 40.53125 44.820312 L 6.019531 44.957031 L 6.019531 44.421875 "/>
<path style=" stroke:none;fill-rule:nonzero;fill:rgb(62.44812%,9.190369%,21.231079%);fill-opacity:1;" d="M 37.511719 26.390625 C 37.511719 26.390625 39.824219 27.410156 38.917969 29.675781 C 37.980469 32.019531 27.996094 33.292969 27.328125 34.835938 C 26.816406 36.011719 30.949219 36.511719 30.949219 36.511719 C 30.949219 36.511719 24.914062 36.582031 26.054688 34.03125 C 27.09375 31.703125 36.902344 31.011719 37.914062 29.742188 C 39.253906 28.066406 37.511719 26.390625 37.511719 26.390625 "/>
<path style=" stroke:none;fill-rule:nonzero;fill:rgb(100%,100%,100%);fill-opacity:1;" d="M 37.199219 39.523438 L 35.375 38.105469 L 33.5625 39.421875 L 33.792969 37.132812 L 31.730469 36.140625 L 33.789062 35.265625 L 33.535156 32.964844 L 35.359375 34.378906 L 37.171875 33.066406 L 36.941406 35.355469 L 39.007812 36.347656 L 36.949219 37.21875 L 37.199219 39.523438 "/>
<path style=" stroke:none;fill-rule:nonzero;fill:rgb(100%,100%,100%);fill-opacity:1;" d="M 41.398438 33.011719 L 40.484375 32.648438 L 39.902344 33.398438 L 39.722656 32.433594 L 38.761719 32.273438 L 39.5 31.675781 L 39.121094 30.765625 L 40.035156 31.128906 L 40.617188 30.378906 L 40.792969 31.339844 L 41.753906 31.5 L 41.023438 32.097656 L 41.398438 33.011719 "/>
<path style=" stroke:none;fill-rule:nonzero;fill:rgb(100%,100%,100%);fill-opacity:1;" d="M 32.90625 42.71875 L 32.054688 42.113281 L 31.261719 42.742188 L 31.320312 41.699219 L 30.367188 41.289062 L 31.285156 40.855469 L 31.125 39.816406 L 31.976562 40.425781 L 32.777344 39.796875 L 32.714844 40.839844 L 33.667969 41.25 L 32.75 41.683594 L 32.90625 42.71875 "/>
<path style=" stroke:none;fill-rule:nonzero;fill:rgb(100%,100%,100%);fill-opacity:1;" d="M 34.851562 26.972656 L 34 26.363281 L 33.203125 26.992188 L 33.265625 25.953125 L 32.3125 25.539062 L 33.226562 25.105469 L 33.070312 24.066406 L 33.921875 24.675781 L 34.71875 24.046875 L 34.65625 25.089844 L 35.609375 25.5 L 34.695312 25.933594 L 34.851562 26.972656 "/>
<path style=" stroke:none;fill-rule:nonzero;fill:rgb(100%,100%,100%);fill-opacity:1;" d="M 28.464844 31.960938 L 27.457031 31.847656 L 27.085938 32.753906 L 26.644531 31.84375 L 25.648438 31.945312 L 26.210938 31.144531 L 25.585938 30.339844 L 26.589844 30.453125 L 26.964844 29.546875 L 27.402344 30.457031 L 28.402344 30.355469 L 27.835938 31.15625 L 28.464844 31.960938 "/>
<path style=" stroke:none;fill-rule:nonzero;fill:rgb(66.886902%,65.818787%,70.426941%);fill-opacity:1;" d="M 37.511719 26.390625 C 37.511719 26.390625 40.050781 27.289062 39.117188 29.539062 C 38.316406 31.484375 28.128906 32.894531 27.460938 34.433594 C 26.949219 35.609375 30.945312 36.511719 30.945312 36.511719 C 30.945312 36.511719 25.222656 35.964844 26.050781 34.03125 C 27.058594 31.683594 37.328125 30.605469 38.25 29.273438 C 39.457031 27.53125 37.511719 26.390625 37.511719 26.390625 "/>
</g>
</svg>
