<?xml version="1.0" encoding="UTF-8"?>
<svg xmlns="http://www.w3.org/2000/svg" xmlns:xlink="http://www.w3.org/1999/xlink" width="56pt" height="56pt" viewBox="0 0 56 56" version="1.1">
<g id="surface1">
<rect x="0" y="0" width="56" height="56" style="fill:rgb(30.860901%,74.952698%,35.702515%);fill-opacity:1;stroke:none;"/>
<path style=" stroke:none;fill-rule:nonzero;fill:rgb(100%,100%,100%);fill-opacity:1;" d="M 42.921875 32.808594 L 41.164062 32.808594 C 39.40625 32.808594 38.65625 33.746094 38.402344 35.566406 C 37.957031 38.898438 35.324219 41.152344 31.871094 41.152344 C 27.855469 41.152344 25.28125 38.207031 25.28125 33.929688 L 25.28125 23.890625 C 25.28125 23.488281 25.222656 23.136719 25.125 22.820312 C 25.503906 22.988281 25.953125 23.078125 26.472656 23.078125 L 35.699219 23.078125 C 37.464844 23.078125 38.464844 22.070312 38.464844 20.316406 L 38.464844 19.503906 C 38.464844 17.742188 37.464844 16.738281 35.699219 16.738281 L 30.496094 16.738281 L 30.496094 11.082031 C 30.496094 9.328125 29.488281 8.320312 27.730469 8.320312 L 26.472656 8.320312 C 24.71875 8.320312 23.714844 9.328125 23.714844 11.082031 L 23.714844 20.316406 C 23.714844 20.710938 23.765625 21.066406 23.871094 21.382812 C 23.488281 21.214844 23.039062 21.128906 22.519531 21.128906 L 13.292969 21.128906 C 11.535156 21.128906 10.527344 22.132812 10.527344 23.890625 L 10.527344 24.707031 C 10.527344 26.46875 11.535156 27.472656 13.292969 27.472656 L 18.503906 27.472656 L 18.503906 33.929688 C 18.503906 42.027344 23.714844 47.679688 31.878906 47.679688 C 39.476562 47.679688 44.496094 42.84375 45.441406 35.5625 C 45.6875 33.742188 44.492188 32.808594 42.921875 32.808594 "/>
</g>
</svg>
