<?xml version="1.0" encoding="UTF-8"?>
<svg xmlns="http://www.w3.org/2000/svg" xmlns:xlink="http://www.w3.org/1999/xlink" width="56pt" height="56pt" viewBox="0 0 56 56" version="1.1">
<g id="surface1">
<rect x="0" y="0" width="56" height="56" style="fill:rgb(95.666504%,95.776367%,96.775818%);fill-opacity:1;stroke:none;"/>
<path style=" stroke:none;fill-rule:evenodd;fill:rgb(92.332458%,11.239624%,15.208435%);fill-opacity:1;" d="M 28.898438 15.292969 L 41.605469 15.292969 C 46.617188 15.292969 50.679688 19.355469 50.679688 24.371094 C 50.679688 29.382812 46.617188 33.445312 41.605469 33.445312 L 36.15625 33.445312 L 36.15625 40.707031 L 28.898438 40.707031 Z M 36.15625 22.554688 L 41.605469 22.554688 C 42.605469 22.554688 43.417969 23.367188 43.417969 24.371094 C 43.417969 25.371094 42.605469 26.183594 41.605469 26.183594 L 36.15625 26.183594 L 36.15625 22.554688 "/>
<path style=" stroke:none;fill-rule:nonzero;fill:rgb(69.438171%,85.632324%,9.602356%);fill-opacity:1;" d="M 10.746094 40.707031 L 10.746094 22.554688 L 5.320312 22.554688 L 5.320312 15.292969 L 28.898438 15.292969 L 28.898438 40.707031 L 27.511719 36.085938 L 27.511719 36.167969 L 19.367188 36.167969 L 18.007812 40.707031 Z M 21.546875 28.90625 L 25.359375 28.90625 L 23.453125 22.554688 L 21.546875 28.90625 "/>
<path style=" stroke:none;fill-rule:nonzero;fill:rgb(40.447998%,77.0401%,18.685913%);fill-opacity:1;" d="M 10.746094 40.707031 L 18.007812 40.707031 L 18.007812 22.554688 L 23.453125 22.554688 L 23.453125 15.292969 L 18.007812 15.292969 L 10.746094 40.707031 "/>
<path style=" stroke:none;fill-rule:nonzero;fill:rgb(72.348022%,11.579895%,14.060974%);fill-opacity:1;" d="M 28.898438 40.707031 L 36.15625 40.707031 L 28.898438 15.292969 Z M 28.898438 40.707031 "/>
</g>
</svg>
