<?xml version="1.0" encoding="UTF-8"?>
<svg xmlns="http://www.w3.org/2000/svg" xmlns:xlink="http://www.w3.org/1999/xlink" width="56pt" height="56pt" viewBox="0 0 56 56" version="1.1">
<g id="surface1">
<rect x="0" y="0" width="56" height="56" style="fill:rgb(95.666504%,95.776367%,96.775818%);fill-opacity:1;stroke:none;"/>
<path style=" stroke:none;fill-rule:nonzero;fill:rgb(97.148132%,92.152405%,2.890015%);fill-opacity:1;" d="M 25.964844 50.644531 C 38.46875 50.644531 48.605469 40.507812 48.605469 28 C 48.605469 15.492188 38.46875 5.355469 25.964844 5.355469 C 13.457031 5.355469 3.320312 15.492188 3.320312 28 C 3.320312 40.507812 13.457031 50.644531 25.964844 50.644531 "/>
<path style=" stroke:none;fill-rule:nonzero;fill:rgb(11.97052%,11.579895%,10.760498%);fill-opacity:1;" d="M 47.46875 26.84375 L 49.644531 26.25 L 51.328125 33.265625 L 54.664062 32.488281 L 54.550781 30.53125 L 53.625 30.753906 L 52.386719 25.589844 L 54.679688 25.023438 L 54.0625 22.441406 L 51.765625 23.007812 L 51.09375 20.199219 L 48.59375 21.886719 L 49.023438 23.667969 L 46.859375 24.230469 L 47.445312 26.816406 "/>
<path style=" stroke:none;fill-rule:nonzero;fill:rgb(11.97052%,11.579895%,10.760498%);fill-opacity:1;" d="M 47.46875 26.84375 L 49.644531 26.25 L 51.328125 33.265625 L 54.664062 32.488281 L 54.550781 30.53125 L 53.625 30.753906 L 52.386719 25.589844 L 54.679688 25.023438 L 54.0625 22.441406 L 51.765625 23.007812 L 51.09375 20.199219 L 48.59375 21.886719 L 49.023438 23.667969 L 46.859375 24.230469 L 47.445312 26.816406 "/>
<path style=" stroke:none;fill-rule:nonzero;fill:rgb(11.97052%,11.579895%,10.760498%);fill-opacity:1;" d="M 15.238281 25.992188 L 18.011719 25.992188 C 17.773438 23.511719 15.628906 23.015625 14.390625 23.015625 C 12.433594 23.015625 10.734375 24.257812 10.734375 26.210938 C 10.734375 27.488281 11.753906 28.285156 12.976562 28.675781 C 14.78125 29.375 15.476562 29.460938 15.476562 30.105469 C 15.476562 30.5625 14.96875 30.835938 14.492188 30.835938 C 14.371094 30.835938 13.539062 30.835938 13.421875 29.96875 L 10.617188 29.96875 C 10.871094 32.453125 13.03125 33.097656 14.457031 33.097656 C 16.546875 33.097656 18.296875 31.871094 18.296875 29.796875 C 18.296875 27.757812 16.597656 27.28125 15 26.839844 C 14.253906 26.621094 13.554688 26.332031 13.554688 25.90625 C 13.554688 25.652344 13.761719 25.277344 14.355469 25.277344 C 15.1875 25.277344 15.222656 25.789062 15.238281 25.992188 Z M 25.300781 26.976562 L 28.160156 26.976562 C 27.683594 24.664062 25.660156 23.015625 23.160156 23.015625 C 20.339844 23.015625 18.179688 25.261719 18.179688 28.03125 C 18.179688 30.835938 20.371094 33.082031 23.230469 33.082031 C 25.777344 33.082031 27.664062 31.328125 28.175781 29.1875 L 25.300781 29.1875 C 24.996094 29.765625 24.4375 30.445312 23.261719 30.445312 C 21.917969 30.445312 21.019531 29.425781 21.019531 28.046875 C 21.019531 27.367188 21.238281 26.757812 21.632812 26.316406 C 22.039062 25.871094 22.601562 25.617188 23.261719 25.652344 C 24.4375 25.652344 24.996094 26.332031 25.300781 26.976562 Z M 35.480469 28.046875 C 35.480469 29.425781 34.445312 30.425781 33.222656 30.425781 C 31.996094 30.425781 30.960938 29.425781 30.960938 28.066406 L 30.960938 28.046875 C 30.960938 26.671875 31.996094 25.667969 33.222656 25.667969 C 34.445312 25.667969 35.480469 26.671875 35.480469 28.046875 Z M 38.304688 28.046875 C 38.304688 25.734375 36.65625 23.035156 33.222656 23.035156 C 29.789062 23.035156 28.140625 25.734375 28.140625 28.03125 L 28.140625 28.046875 C 28.140625 30.359375 29.789062 33.0625 33.222656 33.0625 C 36.65625 33.0625 38.304688 30.359375 38.304688 28.046875 Z M 45.695312 28.046875 C 45.695312 29.425781 44.65625 30.425781 43.433594 30.425781 C 42.210938 30.425781 41.171875 29.425781 41.171875 28.066406 L 41.171875 28.046875 C 41.171875 26.671875 42.210938 25.667969 43.433594 25.667969 C 44.65625 25.667969 45.695312 26.671875 45.695312 28.046875 Z M 47.09375 24.492188 C 46.257812 23.625 45.039062 23.035156 43.433594 23.035156 C 40 23.035156 38.351562 25.734375 38.351562 28.03125 L 38.351562 28.046875 C 38.351562 30.359375 40 33.0625 43.433594 33.0625 C 46.867188 33.0625 48.519531 30.359375 48.519531 28.046875 C 48.519531 27.074219 48.222656 26.035156 47.628906 25.152344 L 47.09375 24.492188 "/>
<path style=" stroke:none;fill-rule:nonzero;fill:rgb(11.97052%,11.579895%,10.760498%);fill-opacity:1;" d="M 15.238281 25.992188 L 18.011719 25.992188 C 17.773438 23.511719 15.628906 23.015625 14.390625 23.015625 C 12.433594 23.015625 10.734375 24.257812 10.734375 26.210938 C 10.734375 27.488281 11.753906 28.285156 12.976562 28.675781 C 14.78125 29.375 15.476562 29.460938 15.476562 30.105469 C 15.476562 30.5625 14.96875 30.835938 14.492188 30.835938 C 14.371094 30.835938 13.539062 30.835938 13.421875 29.96875 L 10.617188 29.96875 C 10.871094 32.453125 13.03125 33.097656 14.457031 33.097656 C 16.546875 33.097656 18.296875 31.871094 18.296875 29.796875 C 18.296875 27.757812 16.597656 27.28125 15 26.839844 C 14.253906 26.621094 13.554688 26.332031 13.554688 25.90625 C 13.554688 25.652344 13.761719 25.277344 14.355469 25.277344 C 15.1875 25.277344 15.222656 25.789062 15.238281 25.992188 Z M 25.300781 26.976562 L 28.160156 26.976562 C 27.683594 24.664062 25.660156 23.015625 23.160156 23.015625 C 20.339844 23.015625 18.179688 25.261719 18.179688 28.03125 C 18.179688 30.835938 20.371094 33.082031 23.230469 33.082031 C 25.777344 33.082031 27.664062 31.328125 28.175781 29.1875 L 25.300781 29.1875 C 24.996094 29.765625 24.4375 30.445312 23.261719 30.445312 C 21.917969 30.445312 21.019531 29.425781 21.019531 28.046875 C 21.019531 27.367188 21.238281 26.757812 21.632812 26.316406 C 22.039062 25.871094 22.601562 25.617188 23.261719 25.652344 C 24.4375 25.652344 24.996094 26.332031 25.300781 26.976562 Z M 35.480469 28.046875 C 35.480469 29.425781 34.445312 30.425781 33.222656 30.425781 C 31.996094 30.425781 30.960938 29.425781 30.960938 28.066406 L 30.960938 28.046875 C 30.960938 26.671875 31.996094 25.667969 33.222656 25.667969 C 34.445312 25.667969 35.480469 26.671875 35.480469 28.046875 Z M 38.304688 28.046875 C 38.304688 25.734375 36.65625 23.035156 33.222656 23.035156 C 29.789062 23.035156 28.140625 25.734375 28.140625 28.03125 L 28.140625 28.046875 C 28.140625 30.359375 29.789062 33.0625 33.222656 33.0625 C 36.65625 33.0625 38.304688 30.359375 38.304688 28.046875 Z M 45.695312 28.046875 C 45.695312 29.425781 44.65625 30.425781 43.433594 30.425781 C 42.210938 30.425781 41.171875 29.425781 41.171875 28.066406 L 41.171875 28.046875 C 41.171875 26.671875 42.210938 25.667969 43.433594 25.667969 C 44.65625 25.667969 45.695312 26.671875 45.695312 28.046875 Z M 47.09375 24.492188 C 46.257812 23.625 45.039062 23.035156 43.433594 23.035156 C 40 23.035156 38.351562 25.734375 38.351562 28.03125 L 38.351562 28.046875 C 38.351562 30.359375 40 33.0625 43.433594 33.0625 C 46.867188 33.0625 48.519531 30.359375 48.519531 28.046875 C 48.519531 27.074219 48.222656 26.035156 47.628906 25.152344 L 47.09375 24.492188 "/>
</g>
</svg>
