<?xml version="1.0" encoding="UTF-8"?>
<svg xmlns="http://www.w3.org/2000/svg" xmlns:xlink="http://www.w3.org/1999/xlink" width="56pt" height="56pt" viewBox="0 0 56 56" version="1.1">
<g id="surface1">
<rect x="0" y="0" width="56" height="56" style="fill:rgb(35.020447%,72.866821%,92.243958%);fill-opacity:1;stroke:none;"/>
<path style=" stroke:none;fill-rule:nonzero;fill:rgb(100%,100%,100%);fill-opacity:1;" d="M 20.273438 26.609375 C 20.273438 26.609375 18.039062 33.046875 17.613281 37.277344 C 19.148438 33.59375 22.085938 28.460938 23.871094 26.03125 C 21.347656 23.976562 16.703125 21.816406 16.703125 21.816406 C 16.703125 21.816406 20.382812 20.242188 27.808594 19.847656 C 27.808594 19.847656 30.898438 13.875 38.875 8.273438 C 34.046875 9.820312 29.492188 13.945312 24.855469 18.445312 C 18.917969 18.753906 12.492188 21.132812 11.808594 21.433594 C 18.644531 24.972656 20.273438 26.609375 20.273438 26.609375 "/>
<path style=" stroke:none;fill-rule:nonzero;fill:rgb(100%,100%,100%);fill-opacity:1;" d="M 47.148438 21.898438 C 41.34375 19.558594 34.179688 18.957031 34.179688 18.957031 C 34.179688 18.957031 34.027344 17.121094 34.578125 13.597656 C 33.894531 15.0625 32.652344 18.203125 32.441406 20.550781 C 37.660156 20.957031 41.226562 22.140625 41.226562 22.140625 C 41.226562 22.140625 35.933594 24.144531 33.003906 26.453125 C 33.542969 27.757812 34.71875 31.539062 35.394531 34.464844 C 34.242188 33.425781 30.839844 30.617188 28.367188 29.125 C 25.066406 30.402344 15.964844 39.402344 10.851562 47.726562 C 13.066406 45.421875 19.550781 38.101562 28.332031 32.808594 C 30.128906 33.863281 38.476562 39.332031 38.476562 39.332031 C 38.476562 39.332031 36.65625 29.613281 35.964844 27.398438 C 38.585938 25.613281 42.996094 23.179688 47.148438 21.898438 "/>
</g>
</svg>
