<?xml version="1.0" encoding="UTF-8"?>
<svg xmlns="http://www.w3.org/2000/svg" xmlns:xlink="http://www.w3.org/1999/xlink" width="56pt" height="56pt" viewBox="0 0 56 56" version="1.1">
<g id="surface1">
<rect x="0" y="0" width="56" height="56" style="fill:rgb(95.66803%,95.779419%,96.777344%);fill-opacity:1;stroke:none;"/>
<path style=" stroke:none;fill-rule:nonzero;fill:rgb(97.688293%,88.589478%,2.278137%);fill-opacity:1;" d="M 25.996094 48.066406 C 25.683594 48.042969 25.371094 48.011719 25.0625 47.992188 C 24.636719 47.960938 24.214844 47.933594 23.792969 47.90625 C 23.621094 47.855469 23.453125 47.804688 23.28125 47.753906 C 23.242188 47.75 23.203125 47.75 23.164062 47.738281 C 21.777344 47.390625 20.394531 47.015625 19.050781 46.519531 C 17.488281 45.945312 15.988281 45.261719 14.675781 44.21875 C 13.871094 43.578125 13.183594 42.835938 12.78125 41.878906 C 12.398438 40.980469 12.117188 40.054688 12.019531 39.074219 C 11.949219 38.351562 12.015625 37.648438 12.164062 36.953125 C 12.414062 35.796875 12.945312 34.765625 13.632812 33.808594 C 14.625 32.414062 15.867188 31.269531 17.214844 30.226562 C 19.214844 28.679688 21.394531 27.417969 23.632812 26.257812 C 26.171875 24.941406 28.789062 23.789062 31.417969 22.664062 C 32.871094 22.042969 34.332031 21.429688 35.785156 20.808594 C 36.242188 20.613281 36.699219 20.414062 37.152344 20.21875 C 36.734375 20.59375 36.308594 20.957031 35.90625 21.347656 C 35.074219 22.152344 34.230469 22.941406 33.441406 23.789062 C 32.835938 24.441406 32.273438 25.144531 31.757812 25.871094 C 31.390625 26.382812 31.132812 26.96875 30.828125 27.523438 C 30.765625 27.503906 30.695312 27.457031 30.644531 27.472656 C 29.933594 27.65625 29.21875 27.828125 28.519531 28.042969 C 27.371094 28.398438 26.222656 28.757812 25.089844 29.15625 C 23.480469 29.71875 21.917969 30.386719 20.386719 31.132812 C 19.230469 31.691406 18.101562 32.285156 17.097656 33.105469 C 16.03125 33.980469 15.027344 34.910156 14.304688 36.101562 C 13.675781 37.144531 13.308594 38.257812 13.421875 39.496094 C 13.492188 40.265625 13.632812 41.011719 13.917969 41.730469 C 14.421875 43.003906 15.277344 44 16.359375 44.808594 C 17.503906 45.664062 18.773438 46.261719 20.132812 46.691406 C 22.015625 47.292969 23.929688 47.730469 25.890625 47.960938 C 26.109375 47.988281 26.328125 48.03125 26.542969 48.066406 C 26.359375 48.066406 26.175781 48.066406 25.996094 48.066406 "/>
<path style=" stroke:none;fill-rule:nonzero;fill:rgb(36.627197%,71.504211%,19.99054%);fill-opacity:1;" d="M 26.542969 48.066406 C 26.328125 48.03125 26.109375 47.988281 25.890625 47.960938 C 23.929688 47.730469 22.015625 47.292969 20.132812 46.691406 C 18.773438 46.261719 17.503906 45.664062 16.359375 44.808594 C 15.277344 44 14.421875 43.003906 13.917969 41.730469 C 13.632812 41.011719 13.492188 40.265625 13.421875 39.496094 C 13.308594 38.257812 13.675781 37.144531 14.304688 36.101562 C 15.027344 34.910156 16.03125 33.980469 17.097656 33.105469 C 18.101562 32.285156 19.230469 31.691406 20.386719 31.132812 C 21.917969 30.386719 23.480469 29.71875 25.089844 29.15625 C 26.222656 28.757812 27.371094 28.398438 28.519531 28.042969 C 29.21875 27.828125 29.933594 27.65625 30.644531 27.472656 C 30.695312 27.457031 30.765625 27.503906 30.828125 27.523438 C 30.621094 28.097656 30.476562 28.679688 30.574219 29.304688 C 30.648438 29.789062 30.886719 30.183594 31.195312 30.542969 C 30.972656 30.570312 30.746094 30.585938 30.523438 30.625 C 29.804688 30.761719 29.089844 30.90625 28.375 31.054688 C 27.523438 31.230469 26.671875 31.394531 25.828125 31.601562 C 24.960938 31.816406 24.097656 32.054688 23.246094 32.332031 C 22.601562 32.542969 21.972656 32.804688 21.355469 33.089844 C 20.738281 33.371094 20.125 33.671875 19.546875 34.027344 C 18.660156 34.574219 17.855469 35.230469 17.160156 36.019531 C 16.671875 36.570312 16.257812 37.167969 15.949219 37.839844 C 15.664062 38.449219 15.496094 39.085938 15.453125 39.761719 C 15.417969 40.304688 15.433594 40.839844 15.566406 41.359375 C 15.890625 42.621094 16.605469 43.644531 17.585938 44.492188 C 18.441406 45.230469 19.417969 45.761719 20.46875 46.175781 C 21.953125 46.753906 23.503906 47.09375 25.070312 47.363281 C 25.609375 47.457031 26.148438 47.546875 26.691406 47.621094 C 26.914062 47.652344 27.140625 47.632812 27.367188 47.636719 C 27.75 47.691406 28.128906 47.742188 28.511719 47.796875 C 28.554688 47.832031 28.597656 47.894531 28.644531 47.898438 C 28.890625 47.90625 29.136719 47.90625 29.382812 47.90625 C 29.417969 47.90625 29.453125 47.910156 29.488281 47.914062 C 29.359375 47.949219 29.226562 48.011719 29.09375 48.019531 C 28.773438 48.039062 28.449219 48.023438 28.125 48.03125 C 28.042969 48.03125 27.960938 48.054688 27.878906 48.066406 C 27.433594 48.066406 26.988281 48.066406 26.542969 48.066406 "/>
<path style=" stroke:none;fill-rule:nonzero;fill:rgb(61.581421%,60.882568%,61.056519%);fill-opacity:1;" d="M 27.878906 48.066406 C 27.960938 48.054688 28.042969 48.03125 28.125 48.03125 C 28.449219 48.023438 28.773438 48.039062 29.09375 48.019531 C 29.226562 48.011719 29.359375 47.949219 29.488281 47.914062 C 29.84375 47.964844 30.199219 48.015625 30.550781 48.066406 C 29.660156 48.066406 28.769531 48.066406 27.878906 48.066406 "/>
<path style=" stroke:none;fill-rule:nonzero;fill:rgb(87.80365%,11.497498%,14.486694%);fill-opacity:1;" d="M 37.152344 20.21875 C 36.699219 20.414062 36.242188 20.613281 35.785156 20.808594 C 34.332031 21.429688 32.871094 22.042969 31.417969 22.664062 C 28.789062 23.789062 26.171875 24.941406 23.632812 26.257812 C 21.394531 27.417969 19.214844 28.679688 17.214844 30.226562 C 15.867188 31.269531 14.625 32.414062 13.632812 33.808594 C 12.945312 34.765625 12.414062 35.796875 12.164062 36.953125 C 12.015625 37.648438 11.949219 38.351562 12.019531 39.074219 C 12.117188 40.054688 12.398438 40.980469 12.78125 41.878906 C 13.183594 42.835938 13.871094 43.578125 14.675781 44.21875 C 15.988281 45.261719 17.488281 45.945312 19.050781 46.519531 C 20.394531 47.015625 21.777344 47.390625 23.164062 47.738281 C 23.203125 47.75 23.242188 47.75 23.28125 47.753906 C 23.214844 47.769531 23.148438 47.785156 23.082031 47.800781 C 22.121094 47.605469 21.152344 47.445312 20.199219 47.207031 C 18.429688 46.769531 16.757812 46.085938 15.222656 45.085938 C 13.605469 44.03125 12.300781 42.695312 11.464844 40.933594 C 10.761719 39.449219 10.511719 37.878906 10.65625 36.25 C 10.867188 33.882812 11.824219 31.808594 13.167969 29.882812 C 14.402344 28.117188 15.953125 26.671875 17.648438 25.375 C 19.789062 23.734375 22.085938 22.335938 24.46875 21.082031 C 26.445312 20.046875 28.457031 19.078125 30.433594 18.046875 C 32.289062 17.082031 34.132812 16.089844 35.96875 15.078125 C 37.699219 14.125 39.378906 13.089844 40.996094 11.949219 C 42.179688 11.113281 43.332031 10.238281 44.328125 9.175781 C 44.691406 8.789062 45.019531 8.363281 45.382812 7.933594 C 45.382812 7.992188 45.382812 8.042969 45.382812 8.09375 C 45.203125 10.90625 44.203125 13.398438 42.460938 15.601562 C 40.980469 17.472656 39.160156 18.953125 37.152344 20.21875 "/>
<path style=" stroke:none;fill-rule:nonzero;fill:rgb(20.397949%,41.964722%,74.118042%);fill-opacity:1;" d="M 27.367188 47.636719 C 27.140625 47.632812 26.914062 47.652344 26.691406 47.621094 C 26.148438 47.546875 25.609375 47.457031 25.070312 47.363281 C 23.503906 47.09375 21.953125 46.753906 20.46875 46.175781 C 19.417969 45.761719 18.441406 45.230469 17.585938 44.492188 C 16.605469 43.644531 15.890625 42.621094 15.566406 41.359375 C 15.433594 40.839844 15.417969 40.304688 15.453125 39.761719 C 15.496094 39.085938 15.664062 38.449219 15.949219 37.839844 C 16.257812 37.167969 16.671875 36.570312 17.160156 36.019531 C 17.855469 35.230469 18.660156 34.574219 19.546875 34.027344 C 20.125 33.671875 20.738281 33.371094 21.355469 33.089844 C 21.972656 32.804688 22.601562 32.542969 23.246094 32.332031 C 24.097656 32.054688 24.960938 31.816406 25.828125 31.601562 C 26.671875 31.394531 27.523438 31.230469 28.375 31.054688 C 29.089844 30.90625 29.804688 30.761719 30.523438 30.625 C 30.746094 30.585938 30.972656 30.570312 31.195312 30.542969 C 31.800781 31.113281 32.539062 31.433594 33.320312 31.722656 C 33.195312 31.746094 33.074219 31.773438 32.949219 31.792969 C 30.8125 32.183594 28.660156 32.5 26.550781 33.03125 C 24.902344 33.445312 23.300781 34.007812 21.820312 34.851562 C 20.640625 35.527344 19.652344 36.425781 18.925781 37.59375 C 17.484375 39.914062 17.828125 42.621094 19.796875 44.53125 C 20.820312 45.523438 22.050781 46.144531 23.382812 46.613281 C 24.679688 47.074219 26.011719 47.40625 27.367188 47.636719 "/>
<path style=" stroke:none;fill-rule:nonzero;fill:rgb(61.581421%,60.882568%,61.056519%);fill-opacity:1;" d="M 29.382812 47.90625 C 29.136719 47.90625 28.890625 47.90625 28.644531 47.898438 C 28.597656 47.894531 28.554688 47.832031 28.511719 47.796875 C 28.800781 47.832031 29.089844 47.867188 29.382812 47.90625 "/>
<path style=" stroke:none;fill-rule:nonzero;fill:rgb(54.000854%,53.164673%,53.372192%);fill-opacity:1;" d="M 23.082031 47.800781 C 23.148438 47.785156 23.214844 47.769531 23.28125 47.753906 C 23.453125 47.804688 23.621094 47.855469 23.792969 47.90625 C 23.554688 47.871094 23.316406 47.835938 23.082031 47.800781 "/>
</g>
</svg>
