<?xml version="1.0" encoding="UTF-8"?>
<svg xmlns="http://www.w3.org/2000/svg" xmlns:xlink="http://www.w3.org/1999/xlink" width="56pt" height="56pt" viewBox="0 0 56 56" version="1.1">
<g id="surface1">
<rect x="0" y="0" width="56" height="56" style="fill:rgb(95.666504%,95.776367%,96.775818%);fill-opacity:1;stroke:none;"/>
<path style=" stroke:none;fill-rule:evenodd;fill:rgb(77.516174%,9.44519%,25.593567%);fill-opacity:1;" d="M 29.640625 12.5625 L 28.710938 11.632812 L 16.734375 11.632812 L 15.804688 12.5625 L 29.640625 12.5625 "/>
<path style=" stroke:none;fill-rule:evenodd;fill:rgb(77.516174%,9.44519%,25.593567%);fill-opacity:1;" d="M 30.792969 13.714844 L 30.101562 13.023438 L 11.089844 13.023438 L 10.402344 13.714844 L 30.792969 13.714844 "/>
<path style=" stroke:none;fill-rule:evenodd;fill:rgb(77.516174%,9.44519%,25.593567%);fill-opacity:1;" d="M 20.925781 15.105469 L 21.855469 14.175781 L 10.367188 14.175781 L 11.296875 15.105469 L 20.925781 15.105469 "/>
<path style=" stroke:none;fill-rule:evenodd;fill:rgb(77.516174%,9.44519%,25.593567%);fill-opacity:1;" d="M 33.335938 16.257812 L 32.648438 15.566406 L 14.234375 15.566406 C 14.410156 15.667969 14.921875 16.257812 14.921875 16.257812 L 33.335938 16.257812 "/>
<path style=" stroke:none;fill-rule:evenodd;fill:rgb(77.516174%,9.44519%,25.593567%);fill-opacity:1;" d="M 39.164062 32.90625 L 40.09375 31.976562 L 3.25 31.976562 L 2.320312 32.90625 L 39.164062 32.90625 "/>
<path style=" stroke:none;fill-rule:evenodd;fill:rgb(77.516174%,9.44519%,25.593567%);fill-opacity:1;" d="M 51.136719 34.058594 L 50.449219 33.367188 L 2.511719 33.367188 L 3.199219 34.058594 L 51.136719 34.058594 "/>
<path style=" stroke:none;fill-rule:evenodd;fill:rgb(77.516174%,9.44519%,25.593567%);fill-opacity:1;" d="M 7.277344 35.449219 L 6.347656 34.519531 L 3.664062 34.519531 L 4.59375 35.449219 L 7.277344 35.449219 "/>
<path style=" stroke:none;fill-rule:evenodd;fill:rgb(77.516174%,9.44519%,25.593567%);fill-opacity:1;" d="M 9.820312 37.992188 L 8.894531 37.0625 L 6.207031 37.0625 L 7.136719 37.992188 L 9.820312 37.992188 "/>
<path style=" stroke:none;fill-rule:evenodd;fill:rgb(77.516174%,9.44519%,25.593567%);fill-opacity:1;" d="M 8.429688 36.601562 L 7.738281 35.910156 L 5.054688 35.910156 L 5.742188 36.601562 L 8.429688 36.601562 "/>
<path style=" stroke:none;fill-rule:evenodd;fill:rgb(77.516174%,9.44519%,25.593567%);fill-opacity:1;" d="M 10.972656 39.144531 L 10.285156 38.457031 L 7.597656 38.457031 L 8.285156 39.144531 L 10.972656 39.144531 "/>
<path style=" stroke:none;fill-rule:evenodd;fill:rgb(77.516174%,9.44519%,25.593567%);fill-opacity:1;" d="M 12.363281 40.535156 L 11.433594 39.605469 L 8.75 39.605469 L 9.679688 40.535156 L 12.363281 40.535156 "/>
<path style=" stroke:none;fill-rule:evenodd;fill:rgb(77.516174%,9.44519%,25.593567%);fill-opacity:1;" d="M 13.515625 41.6875 L 12.828125 40.996094 L 10.140625 40.996094 L 10.828125 41.6875 L 13.515625 41.6875 "/>
<path style=" stroke:none;fill-rule:evenodd;fill:rgb(77.516174%,9.44519%,25.593567%);fill-opacity:1;" d="M 13.511719 43.078125 L 13.511719 42.148438 L 11.292969 42.148438 L 12.222656 43.078125 L 13.511719 43.078125 "/>
<path style=" stroke:none;fill-rule:evenodd;fill:rgb(77.516174%,9.44519%,25.593567%);fill-opacity:1;" d="M 13.511719 44.367188 L 13.511719 43.539062 L 12.683594 43.539062 L 13.371094 44.230469 L 13.511719 44.367188 "/>
<path style=" stroke:none;fill-rule:evenodd;fill:rgb(77.516174%,9.44519%,25.593567%);fill-opacity:1;" d="M 37.015625 30.363281 L 36.085938 29.433594 L 31.300781 29.433594 L 30.367188 30.363281 L 37.015625 30.363281 "/>
<path style=" stroke:none;fill-rule:evenodd;fill:rgb(77.516174%,9.44519%,25.593567%);fill-opacity:1;" d="M 14.460938 18.800781 C 14.6875 18.554688 14.878906 18.328125 15.011719 18.109375 L 35.191406 18.109375 L 35.878906 18.800781 L 14.460938 18.800781 "/>
<path style=" stroke:none;fill-rule:evenodd;fill:rgb(77.516174%,9.44519%,25.593567%);fill-opacity:1;" d="M 12.664062 20.652344 C 12.464844 20.871094 12.265625 21.101562 12.066406 21.339844 L 38.421875 21.34375 L 37.734375 20.652344 L 12.664062 20.652344 "/>
<path style=" stroke:none;fill-rule:evenodd;fill:rgb(77.516174%,9.44519%,25.593567%);fill-opacity:1;" d="M 10.492188 23.886719 C 10.597656 23.648438 10.707031 23.417969 10.824219 23.195312 L 40.277344 23.195312 L 40.964844 23.886719 L 10.492188 23.886719 "/>
<path style=" stroke:none;fill-rule:evenodd;fill:rgb(77.516174%,9.44519%,25.593567%);fill-opacity:1;" d="M 9.925781 25.738281 C 9.882812 25.964844 9.847656 26.191406 9.820312 26.429688 L 43.507812 26.425781 L 42.820312 25.738281 L 9.925781 25.738281 "/>
<path style=" stroke:none;fill-rule:evenodd;fill:rgb(77.516174%,9.44519%,25.593567%);fill-opacity:1;" d="M 9.789062 28.28125 C 9.804688 28.507812 9.824219 28.738281 9.855469 28.972656 L 46.050781 28.972656 L 45.363281 28.28125 L 9.789062 28.28125 "/>
<path style=" stroke:none;fill-rule:evenodd;fill:rgb(77.516174%,9.44519%,25.593567%);fill-opacity:1;" d="M 10.441406 31.515625 C 10.367188 31.28125 10.296875 31.050781 10.234375 30.828125 L 47.90625 30.824219 L 48.59375 31.515625 L 10.441406 31.515625 "/>
<path style=" stroke:none;fill-rule:evenodd;fill:rgb(77.516174%,9.44519%,25.593567%);fill-opacity:1;" d="M 19.242188 16.71875 C 18.992188 16.992188 18.707031 17.304688 18.394531 17.648438 L 15.167969 17.648438 C 15.214844 17.433594 15.152344 16.863281 15.101562 16.71875 L 19.242188 16.71875 "/>
<path style=" stroke:none;fill-rule:evenodd;fill:rgb(77.516174%,9.44519%,25.593567%);fill-opacity:1;" d="M 17.058594 19.261719 C 16.839844 19.558594 16.628906 19.867188 16.425781 20.191406 L 13.101562 20.191406 C 13.421875 19.855469 13.734375 19.546875 14.015625 19.261719 L 17.058594 19.261719 "/>
<path style=" stroke:none;fill-rule:evenodd;fill:rgb(77.516174%,9.44519%,25.593567%);fill-opacity:1;" d="M 15.355469 22.734375 C 15.421875 22.417969 15.511719 22.109375 15.625 21.804688 L 11.707031 21.804688 C 11.492188 22.09375 11.28125 22.40625 11.082031 22.734375 L 15.355469 22.734375 "/>
<path style=" stroke:none;fill-rule:evenodd;fill:rgb(77.516174%,9.44519%,25.593567%);fill-opacity:1;" d="M 15.257812 24.347656 C 15.289062 24.65625 15.34375 24.964844 15.4375 25.277344 L 10.027344 25.277344 C 10.105469 24.953125 10.203125 24.644531 10.3125 24.347656 L 15.257812 24.347656 "/>
<path style=" stroke:none;fill-rule:evenodd;fill:rgb(77.516174%,9.44519%,25.593567%);fill-opacity:1;" d="M 16.988281 27.820312 C 16.691406 27.511719 16.441406 27.199219 16.226562 26.890625 L 9.78125 26.890625 C 9.761719 27.191406 9.753906 27.5 9.761719 27.820312 L 16.988281 27.820312 "/>
<path style=" stroke:none;fill-rule:evenodd;fill:rgb(77.516174%,9.44519%,25.593567%);fill-opacity:1;" d="M 18.941406 29.433594 C 19.40625 29.746094 19.914062 30.054688 20.484375 30.363281 L 10.117188 30.363281 C 10.039062 30.042969 9.976562 29.734375 9.925781 29.433594 L 18.941406 29.433594 "/>
<path style=" stroke:none;fill-rule:evenodd;fill:rgb(77.516174%,9.44519%,25.593567%);fill-opacity:1;" d="M 12.992188 35.449219 C 12.710938 35.167969 12.433594 34.859375 12.167969 34.519531 L 41.171875 34.519531 L 42.101562 35.449219 L 12.992188 35.449219 "/>
<path style=" stroke:none;fill-rule:evenodd;fill:rgb(77.516174%,9.44519%,25.593567%);fill-opacity:1;" d="M 14.375 36.601562 C 14.078125 36.398438 13.777344 36.167969 13.484375 35.910156 L 52.992188 35.910156 L 53.679688 36.601562 L 14.375 36.601562 "/>
<path style=" stroke:none;fill-rule:evenodd;fill:rgb(77.516174%,9.44519%,25.593567%);fill-opacity:1;" d="M 17.234375 37.992188 C 16.589844 37.785156 15.851562 37.492188 15.097656 37.0625 L 25.78125 37.0625 C 25.78125 37.0625 24.128906 37.992188 23.746094 37.992188 L 17.234375 37.992188 "/>
<path style=" stroke:none;fill-rule:evenodd;fill:rgb(77.516174%,9.44519%,25.593567%);fill-opacity:1;" d="M 37.042969 37.992188 C 36.671875 37.652344 36.394531 37.328125 36.253906 37.0625 L 43.714844 37.0625 L 44.644531 37.992188 L 37.042969 37.992188 "/>
</g>
</svg>
