<?xml version="1.0" encoding="UTF-8"?>
<svg xmlns="http://www.w3.org/2000/svg" xmlns:xlink="http://www.w3.org/1999/xlink" width="56pt" height="56pt" viewBox="0 0 56 56" version="1.1">
<g id="surface1">
<rect x="0" y="0" width="56" height="56" style="fill:rgb(95.666504%,95.776367%,96.775818%);fill-opacity:1;stroke:none;"/>
<path style=" stroke:none;fill-rule:evenodd;fill:rgb(10.173035%,36.488342%,67.89856%);fill-opacity:1;" d="M 46.53125 14.042969 L 28.398438 39.761719 L 27.832031 39.839844 L 45.476562 14.792969 L 46.53125 14.042969 "/>
<path style=" stroke:none;fill-rule:evenodd;fill:rgb(10.173035%,36.488342%,67.89856%);fill-opacity:1;" d="M 42.300781 17.191406 L 26.128906 40.121094 L 23.859375 40.484375 L 38.175781 20.234375 L 42.300781 17.191406 "/>
<path style=" stroke:none;fill-rule:evenodd;fill:rgb(10.173035%,36.488342%,67.89856%);fill-opacity:1;" d="M 35.390625 22.324219 L 22.414062 40.742188 L 20.222656 41.101562 L 31.367188 25.289062 L 35.390625 22.324219 "/>
<path style=" stroke:none;fill-rule:evenodd;fill:rgb(10.173035%,36.488342%,67.89856%);fill-opacity:1;" d="M 18.597656 41.359375 L 7.042969 43.269531 L 28.398438 27.457031 L 18.597656 41.359375 "/>
<path style=" stroke:none;fill-rule:evenodd;fill:rgb(88.68103%,15.327454%,22.496033%);fill-opacity:1;" d="M 48.492188 14.300781 L 30.539062 39.710938 L 30.078125 39.503906 L 48.957031 12.730469 L 48.492188 14.300781 "/>
<path style=" stroke:none;fill-rule:evenodd;fill:rgb(88.68103%,15.327454%,22.496033%);fill-opacity:1;" d="M 46.300781 21.371094 L 32.757812 40.585938 L 31.703125 40.148438 L 47.359375 17.964844 L 46.300781 21.371094 "/>
<path style=" stroke:none;fill-rule:evenodd;fill:rgb(88.68103%,15.327454%,22.496033%);fill-opacity:1;" d="M 45.292969 24.59375 L 43.953125 29.058594 L 35.183594 41.515625 L 33.765625 40.972656 L 45.292969 24.59375 "/>
<path style=" stroke:none;fill-rule:evenodd;fill:rgb(88.68103%,15.327454%,22.496033%);fill-opacity:1;" d="M 43.207031 31.585938 L 39.59375 43.269531 L 35.957031 41.851562 L 43.207031 31.585938 "/>
</g>
</svg>
