<?xml version="1.0" encoding="UTF-8"?>
<svg xmlns="http://www.w3.org/2000/svg" xmlns:xlink="http://www.w3.org/1999/xlink" width="56pt" height="56pt" viewBox="0 0 56 56" version="1.1">
<g id="surface1">
<rect x="0" y="0" width="56" height="56" style="fill:rgb(95.66803%,95.779419%,96.777344%);fill-opacity:1;stroke:none;"/>
<rect x="0" y="0" width="56" height="56" style="fill:rgb(95.66803%,95.779419%,96.777344%);fill-opacity:1;stroke:none;"/>
<path style=" stroke:none;fill-rule:nonzero;fill:rgb(59.922791%,37.825012%,15.292358%);fill-opacity:1;" d="M 50.679688 39.871094 C 50.625 40.011719 50.566406 40.152344 50.511719 40.289062 C 50.246094 40.9375 49.777344 41.363281 49.085938 41.488281 C 48.058594 41.671875 46.992188 41.09375 46.679688 40.09375 C 46.535156 39.632812 46.589844 39.167969 46.785156 38.734375 C 47.125 37.992188 47.710938 37.558594 48.53125 37.488281 C 49.554688 37.402344 50.398438 38.195312 50.617188 39.007812 C 50.628906 39.0625 50.660156 39.109375 50.679688 39.160156 C 50.679688 39.398438 50.679688 39.636719 50.679688 39.871094 "/>
<path style=" stroke:none;fill-rule:nonzero;fill:rgb(94.677734%,73.802185%,7.557678%);fill-opacity:1;" d="M 21.164062 20.535156 C 21.144531 20.535156 21.121094 20.53125 21.097656 20.53125 C 21.097656 19.949219 21.101562 19.363281 21.097656 18.78125 C 21.097656 18.234375 21.085938 17.6875 21.085938 17.140625 C 21.085938 17.027344 21.058594 16.964844 20.925781 16.964844 C 20.707031 16.964844 20.484375 16.933594 20.265625 16.933594 C 19.058594 16.941406 17.855469 16.957031 16.652344 16.96875 C 16.132812 16.976562 15.621094 17.070312 15.128906 17.222656 C 14.179688 17.523438 13.386719 18.046875 12.789062 18.855469 C 12.257812 19.574219 11.96875 20.378906 11.890625 21.269531 C 11.832031 21.957031 11.910156 22.625 12.167969 23.265625 C 12.386719 23.804688 12.71875 24.273438 13.113281 24.699219 C 13.976562 25.628906 15.039062 26.148438 16.300781 26.238281 C 17.054688 26.292969 17.785156 26.148438 18.46875 25.820312 C 19.988281 25.085938 20.792969 23.835938 21.046875 22.210938 C 21.132812 21.660156 21.128906 21.09375 21.164062 20.535156 Z M 19.253906 15.378906 C 20.332031 15.398438 21.410156 15.414062 22.488281 15.4375 C 22.667969 15.441406 22.671875 15.449219 22.683594 15.625 C 22.703125 15.929688 22.71875 16.230469 22.726562 16.53125 C 22.742188 17.167969 22.761719 17.800781 22.757812 18.4375 C 22.753906 19.425781 22.738281 20.417969 22.710938 21.40625 C 22.6875 22.273438 22.578125 23.125 22.242188 23.9375 C 21.804688 25 21.128906 25.875 20.207031 26.558594 C 19.40625 27.152344 18.511719 27.515625 17.542969 27.695312 C 16.921875 27.804688 16.296875 27.804688 15.667969 27.726562 C 14.828125 27.621094 14.046875 27.351562 13.328125 26.914062 C 12.046875 26.128906 11.140625 25.035156 10.652344 23.609375 C 10.425781 22.949219 10.304688 22.265625 10.324219 21.566406 C 10.367188 20.125 10.796875 18.816406 11.710938 17.679688 C 12.589844 16.585938 13.726562 15.902344 15.085938 15.582031 C 15.726562 15.429688 16.386719 15.417969 17.042969 15.421875 C 17.78125 15.429688 18.519531 15.421875 19.253906 15.421875 C 19.253906 15.40625 19.253906 15.394531 19.253906 15.378906 "/>
<path style=" stroke:none;fill-rule:nonzero;fill:rgb(30.810547%,52.224731%,76.641846%);fill-opacity:1;" d="M 35.183594 29.242188 C 35.574219 29.21875 35.964844 29.195312 36.351562 29.179688 C 36.480469 29.171875 36.515625 29.121094 36.519531 29.003906 C 36.53125 28.675781 36.554688 28.351562 36.5625 28.027344 C 36.578125 27.414062 36.542969 26.804688 36.386719 26.207031 C 36.253906 25.695312 36.007812 25.25 35.582031 24.917969 C 35.070312 24.519531 34.472656 24.382812 33.851562 24.304688 C 33.21875 24.222656 32.585938 24.289062 31.949219 24.304688 C 31.90625 24.308594 31.863281 24.320312 31.820312 24.324219 C 31.703125 24.332031 31.652344 24.390625 31.648438 24.507812 C 31.625 25.015625 31.570312 25.527344 31.574219 26.03125 C 31.582031 26.554688 31.65625 27.074219 31.839844 27.574219 C 32.117188 28.3125 32.648438 28.765625 33.390625 29.003906 C 33.972656 29.191406 34.574219 29.230469 35.183594 29.242188 Z M 32.167969 22.757812 C 32.773438 22.757812 33.382812 22.738281 33.984375 22.757812 C 35.527344 22.8125 36.703125 23.507812 37.511719 24.820312 C 37.875 25.410156 38.046875 26.0625 38.070312 26.753906 C 38.09375 27.496094 38.109375 28.242188 38.105469 28.988281 C 38.101562 29.519531 38.0625 30.050781 38.035156 30.582031 C 38.027344 30.753906 38.011719 30.765625 37.832031 30.769531 C 36.816406 30.785156 35.796875 30.820312 34.777344 30.804688 C 33.96875 30.792969 33.175781 30.660156 32.429688 30.328125 C 31.625 29.96875 31.035156 29.371094 30.597656 28.621094 C 30.269531 28.054688 30.117188 27.433594 30.097656 26.785156 C 30.082031 26.261719 30.050781 25.734375 30.070312 25.214844 C 30.09375 24.511719 30.039062 23.816406 29.976562 23.117188 C 29.976562 23.109375 29.976562 23.101562 29.976562 23.09375 C 29.957031 22.761719 29.957031 22.757812 30.285156 22.757812 C 30.910156 22.753906 31.539062 22.757812 32.167969 22.757812 "/>
<path style=" stroke:none;fill-rule:nonzero;fill:rgb(45.419312%,63.475037%,73.497009%);fill-opacity:1;" d="M 38.65625 32.785156 C 38.65625 32.503906 38.65625 32.222656 38.65625 31.941406 C 38.65625 31.90625 38.65625 31.867188 38.65625 31.832031 C 38.671875 31.472656 38.699219 31.421875 39.050781 31.382812 C 40.179688 31.242188 41.300781 31.230469 42.394531 31.613281 C 42.890625 31.789062 43.304688 32.078125 43.617188 32.492188 C 43.859375 32.804688 43.996094 33.175781 44.066406 33.5625 C 44.132812 33.917969 44.179688 34.277344 44.207031 34.632812 C 44.234375 35.039062 44.242188 35.445312 44.242188 35.847656 C 44.238281 36.328125 44.21875 36.808594 44.203125 37.289062 C 44.199219 37.433594 44.1875 37.445312 44.046875 37.398438 C 43.929688 37.359375 43.804688 37.324219 43.703125 37.253906 C 43.429688 37.070312 43.125 37.011719 42.804688 36.988281 C 42.269531 36.945312 41.730469 36.917969 41.199219 36.855469 C 40.570312 36.78125 39.996094 36.546875 39.535156 36.101562 C 39.195312 35.769531 38.964844 35.355469 38.832031 34.894531 C 38.660156 34.28125 38.65625 33.65625 38.652344 33.027344 C 38.652344 32.949219 38.652344 32.863281 38.652344 32.785156 C 38.652344 32.785156 38.65625 32.785156 38.65625 32.785156 "/>
<path style=" stroke:none;fill-rule:nonzero;fill:rgb(94.418335%,56.542969%,12.335205%);fill-opacity:1;" d="M 22.746094 13.398438 C 22.726562 13.800781 22.699219 14.207031 22.6875 14.613281 C 22.683594 14.742188 22.640625 14.796875 22.507812 14.804688 C 21.941406 14.828125 21.371094 14.890625 20.804688 14.875 C 20.089844 14.855469 19.382812 14.734375 18.734375 14.386719 C 18.03125 14 17.609375 13.398438 17.414062 12.640625 C 17.335938 12.335938 17.296875 12.015625 17.289062 11.699219 C 17.269531 11.070312 17.277344 10.441406 17.28125 9.8125 C 17.28125 9.675781 17.3125 9.535156 17.320312 9.398438 C 17.324219 9.289062 17.382812 9.265625 17.476562 9.257812 C 18.304688 9.1875 19.132812 9.164062 19.953125 9.273438 C 20.488281 9.34375 21.007812 9.488281 21.464844 9.796875 C 22.039062 10.1875 22.363281 10.742188 22.539062 11.398438 C 22.710938 12.050781 22.75 12.722656 22.746094 13.398438 "/>
<path style=" stroke:none;fill-rule:nonzero;fill:rgb(90.711975%,14.874268%,17.932129%);fill-opacity:1;" d="M 27.929688 19.269531 C 27.941406 19.265625 27.949219 19.265625 27.957031 19.265625 C 27.917969 18.941406 27.902344 18.617188 27.835938 18.300781 C 27.707031 17.652344 27.296875 17.253906 26.660156 17.085938 C 26.257812 16.980469 25.84375 16.960938 25.429688 16.972656 C 25.289062 16.976562 25.152344 16.984375 25.011719 16.992188 C 24.929688 16.996094 24.875 17.027344 24.871094 17.125 C 24.847656 17.714844 24.820312 18.308594 24.984375 18.886719 C 25.128906 19.402344 25.460938 19.742188 25.972656 19.898438 C 26.558594 20.074219 27.15625 20.042969 27.753906 20.015625 C 27.867188 20.007812 27.90625 19.953125 27.90625 19.84375 C 27.910156 19.652344 27.921875 19.460938 27.929688 19.269531 Z M 29.46875 20.582031 C 29.46875 21.011719 29.472656 21.4375 29.46875 21.867188 C 29.46875 22.046875 29.445312 22.066406 29.277344 22.011719 C 29.164062 21.976562 29.050781 21.9375 28.953125 21.878906 C 28.667969 21.699219 28.351562 21.632812 28.027344 21.617188 C 27.628906 21.597656 27.230469 21.585938 26.832031 21.574219 C 26.214844 21.5625 25.605469 21.503906 25.054688 21.195312 C 24.160156 20.691406 23.542969 19.972656 23.34375 18.949219 C 23.285156 18.644531 23.277344 18.332031 23.273438 18.019531 C 23.265625 17.355469 23.273438 16.691406 23.28125 16.027344 C 23.28125 15.871094 23.308594 15.71875 23.3125 15.5625 C 23.316406 15.472656 23.347656 15.4375 23.441406 15.429688 C 24.371094 15.359375 25.300781 15.347656 26.230469 15.449219 C 26.734375 15.503906 27.234375 15.613281 27.703125 15.820312 C 28.546875 16.1875 29.03125 16.84375 29.25 17.71875 C 29.421875 18.398438 29.445312 19.089844 29.46875 19.785156 C 29.476562 20.050781 29.46875 20.316406 29.46875 20.582031 "/>
<path style=" stroke:none;fill-rule:nonzero;fill:rgb(45.018005%,80.264282%,73.196411%);fill-opacity:1;" d="M 36.839844 31.300781 C 37.152344 31.320312 37.511719 31.34375 37.871094 31.359375 C 38.015625 31.363281 38.09375 31.421875 38.097656 31.570312 C 38.117188 32.054688 38.15625 32.539062 38.152344 33.023438 C 38.148438 33.34375 38.089844 33.667969 38.03125 33.984375 C 37.894531 34.757812 37.488281 35.34375 36.78125 35.703125 C 36.207031 35.988281 35.617188 35.988281 35.027344 35.746094 C 34.46875 35.515625 34.03125 35.144531 33.75 34.609375 C 33.347656 33.84375 33.378906 33.113281 33.871094 32.40625 C 34.101562 32.070312 34.390625 31.789062 34.757812 31.585938 C 35.007812 31.449219 35.28125 31.386719 35.554688 31.363281 C 35.96875 31.328125 36.378906 31.320312 36.839844 31.300781 "/>
<path style=" stroke:none;fill-rule:nonzero;fill:rgb(51.760864%,50.39978%,73.516846%);fill-opacity:1;" d="M 30.023438 21.097656 C 30.046875 20.710938 30.054688 20.316406 30.101562 19.929688 C 30.230469 18.882812 31.136719 17.984375 32.308594 18.144531 C 32.941406 18.226562 33.425781 18.585938 33.785156 19.105469 C 34.101562 19.558594 34.226562 20.074219 34.097656 20.601562 C 33.914062 21.378906 33.417969 21.890625 32.621094 22.082031 C 31.972656 22.234375 31.324219 22.242188 30.664062 22.175781 C 30.539062 22.164062 30.414062 22.167969 30.289062 22.164062 C 30.0625 22.160156 30.054688 22.152344 30.054688 21.921875 C 30.050781 21.648438 30.054688 21.375 30.054688 21.101562 C 30.042969 21.097656 30.035156 21.097656 30.023438 21.097656 "/>
<path style=" stroke:none;fill-rule:nonzero;fill:rgb(50.006104%,74.293518%,27.935791%);fill-opacity:1;" d="M 42.429688 44.441406 C 42.414062 44.457031 42.398438 44.46875 42.382812 44.484375 C 42.296875 44.558594 42.21875 44.636719 42.136719 44.707031 C 41.796875 44.992188 41.679688 45.363281 41.714844 45.792969 C 41.757812 46.394531 42.324219 47.105469 43.101562 47.089844 C 43.660156 47.082031 44.082031 46.777344 44.386719 46.3125 C 44.535156 46.1875 44.628906 46.027344 44.632812 45.839844 C 44.648438 45.410156 44.648438 44.980469 44.636719 44.554688 C 44.625 44.277344 44.472656 44.144531 44.195312 44.140625 C 43.898438 44.136719 43.601562 44.140625 43.308594 44.144531 C 42.984375 44.148438 42.691406 44.25 42.429688 44.441406 Z M 45.492188 44.523438 C 45.46875 45.035156 45.46875 45.488281 45.429688 45.9375 C 45.390625 46.378906 45.21875 46.777344 44.945312 47.128906 C 44.597656 47.582031 44.132812 47.867188 43.582031 47.96875 C 42.476562 48.175781 41.414062 47.628906 40.976562 46.570312 C 40.773438 46.074219 40.707031 45.5625 40.828125 45.035156 C 40.960938 44.488281 41.292969 44.085938 41.769531 43.804688 C 42.25 43.527344 42.773438 43.371094 43.324219 43.339844 C 43.78125 43.308594 44.238281 43.300781 44.695312 43.296875 C 44.898438 43.292969 45.105469 43.328125 45.3125 43.339844 C 45.425781 43.34375 45.433594 43.414062 45.441406 43.503906 C 45.457031 43.863281 45.476562 44.226562 45.492188 44.523438 "/>
<path style=" stroke:none;fill-rule:nonzero;fill:rgb(67.428589%,19.696045%,39.051819%);fill-opacity:1;" d="M 27.757812 22.105469 C 28.746094 22.113281 29.472656 22.792969 29.566406 23.789062 C 29.605469 24.214844 29.566406 24.617188 29.332031 24.976562 C 28.902344 25.648438 28.253906 25.886719 27.484375 25.832031 C 27.0625 25.800781 26.679688 25.652344 26.371094 25.347656 C 25.804688 24.789062 25.664062 24.109375 25.890625 23.371094 C 26.09375 22.699219 26.609375 22.335938 27.277344 22.171875 C 27.433594 22.132812 27.597656 22.128906 27.757812 22.105469 "/>
<path style=" stroke:none;fill-rule:nonzero;fill:rgb(90.376282%,39.505005%,16.384888%);fill-opacity:1;" d="M 15.777344 10.515625 C 15.769531 10.515625 15.761719 10.515625 15.753906 10.515625 C 15.753906 10.347656 15.761719 10.175781 15.753906 10.007812 C 15.746094 9.90625 15.703125 9.808594 15.6875 9.707031 C 15.621094 9.199219 15.058594 8.902344 14.679688 8.90625 C 14.085938 8.910156 13.53125 9.410156 13.445312 10.027344 C 13.386719 10.4375 13.644531 11.007812 14.175781 11.15625 C 14.644531 11.285156 15.121094 11.277344 15.601562 11.226562 C 15.695312 11.214844 15.730469 11.175781 15.738281 11.089844 C 15.75 10.898438 15.761719 10.707031 15.777344 10.515625 Z M 16.746094 11.152344 C 16.726562 11.535156 16.714844 11.917969 16.691406 12.300781 C 16.683594 12.460938 16.65625 12.476562 16.5 12.429688 C 16.472656 12.421875 16.445312 12.414062 16.417969 12.398438 C 15.996094 12.183594 15.539062 12.175781 15.078125 12.171875 C 14.734375 12.171875 14.382812 12.175781 14.042969 12.113281 C 13.488281 12.015625 13.082031 11.675781 12.804688 11.195312 C 12.382812 10.464844 12.410156 9.484375 12.949219 8.796875 C 13.226562 8.445312 13.585938 8.207031 14.019531 8.085938 C 14.746094 7.882812 15.417969 7.988281 16.019531 8.464844 C 16.347656 8.726562 16.503906 9.085938 16.605469 9.480469 C 16.742188 10.03125 16.742188 10.589844 16.746094 11.152344 "/>
<path style=" stroke:none;fill-rule:nonzero;fill:rgb(20.806885%,36.338806%,53.657532%);fill-opacity:1;" d="M 38.664062 29.863281 C 38.648438 29.414062 38.644531 28.964844 38.824219 28.535156 C 39.164062 27.722656 40.164062 27.351562 40.933594 27.785156 C 41.421875 28.0625 41.730469 28.480469 41.804688 29.046875 C 41.886719 29.675781 41.480469 30.378906 40.882812 30.582031 C 40.601562 30.679688 40.296875 30.738281 40 30.757812 C 39.617188 30.78125 39.234375 30.742188 38.851562 30.734375 C 38.707031 30.734375 38.65625 30.664062 38.664062 30.527344 C 38.671875 30.304688 38.664062 30.085938 38.664062 29.863281 "/>
<path style=" stroke:none;fill-rule:nonzero;fill:rgb(32.392883%,62.80365%,30.310059%);fill-opacity:1;" d="M 8 19.304688 C 8.019531 18.765625 7.667969 18.363281 7.082031 18.375 C 6.523438 18.382812 6.144531 18.738281 6.140625 19.277344 C 6.136719 19.824219 6.53125 20.210938 7.074219 20.214844 C 7.617188 20.214844 8 19.839844 8 19.304688 Z M 8.84375 19.234375 C 8.839844 20.234375 8.058594 21.0625 7.109375 21.046875 C 6.164062 21.03125 5.296875 20.347656 5.320312 19.34375 C 5.339844 18.371094 5.945312 17.539062 6.996094 17.535156 C 8.0625 17.53125 8.882812 18.351562 8.84375 19.234375 "/>
<path style=" stroke:none;fill-rule:nonzero;fill:rgb(45.419312%,63.475037%,73.497009%);fill-opacity:1;" d="M 43.539062 39.292969 C 43.582031 38.859375 43.199219 38.335938 42.675781 38.351562 C 42.074219 38.371094 41.664062 38.71875 41.667969 39.257812 C 41.671875 39.796875 42.085938 40.230469 42.605469 40.222656 C 43.125 40.214844 43.558594 39.84375 43.539062 39.292969 Z M 42.652344 40.996094 C 41.988281 40.980469 41.472656 40.703125 41.101562 40.15625 C 40.894531 39.851562 40.839844 39.5 40.886719 39.140625 C 40.941406 38.703125 41.097656 38.304688 41.417969 37.980469 C 41.769531 37.625 42.203125 37.484375 42.683594 37.535156 C 43.277344 37.59375 43.761719 37.878906 44.109375 38.367188 C 44.4375 38.835938 44.457031 39.34375 44.261719 39.859375 C 44.054688 40.410156 43.667969 40.789062 43.089844 40.9375 C 42.949219 40.972656 42.796875 40.976562 42.652344 40.996094 "/>
<path style=" stroke:none;fill-rule:nonzero;fill:rgb(67.428589%,19.696045%,39.051819%);fill-opacity:1;" d="M 28.273438 28.824219 C 27.707031 28.863281 27.003906 28.328125 27.023438 27.605469 C 27.039062 26.960938 27.527344 26.363281 28.203125 26.378906 C 28.914062 26.394531 29.519531 26.917969 29.503906 27.558594 C 29.488281 28.214844 28.988281 28.863281 28.273438 28.824219 "/>
<path style=" stroke:none;fill-rule:nonzero;fill:rgb(84.899902%,38.1073%,50.726318%);fill-opacity:1;" d="M 14.386719 13.867188 C 14.378906 13.25 14.882812 12.699219 15.527344 12.714844 C 16.21875 12.734375 16.765625 13.246094 16.769531 13.820312 C 16.773438 14.453125 16.214844 15.046875 15.582031 15.03125 C 15.046875 15.019531 14.335938 14.5625 14.386719 13.867188 "/>
<path style=" stroke:none;fill-rule:nonzero;fill:rgb(67.428589%,19.696045%,39.051819%);fill-opacity:1;" d="M 28.945312 29.886719 C 28.945312 29.460938 29.324219 29.050781 29.71875 29.074219 C 30.234375 29.105469 30.5625 29.464844 30.566406 29.871094 C 30.574219 30.3125 30.203125 30.703125 29.789062 30.710938 C 29.347656 30.714844 28.941406 30.316406 28.945312 29.886719 "/>
<path style=" stroke:none;fill-rule:nonzero;fill:rgb(92.405701%,92.312622%,91.966248%);fill-opacity:1;" d="M 42.429688 44.441406 C 42.414062 44.457031 42.398438 44.46875 42.382812 44.484375 C 42.398438 44.46875 42.414062 44.457031 42.429688 44.441406 "/>
</g>
</svg>
