<?xml version="1.0" encoding="UTF-8"?>
<svg xmlns="http://www.w3.org/2000/svg" xmlns:xlink="http://www.w3.org/1999/xlink" width="56pt" height="56pt" viewBox="0 0 56 56" version="1.1">
<defs>
<clipPath id="clip1">
  <path d="M 5 34 L 51 34 L 51 46 L 5 46 Z M 5 34 "/>
</clipPath>
<clipPath id="clip2">
  <path d="M 50.105469 10.898438 L 37.988281 45.101562 L 5.894531 45.101562 L 38.457031 12.210938 C 39.15625 11.414062 40.234375 10.945312 41.308594 10.898438 Z M 50.105469 10.898438 "/>
</clipPath>
<clipPath id="clip3">
  <path d="M 5 13 L 51 13 L 51 46 L 5 46 Z M 5 13 "/>
</clipPath>
<clipPath id="clip4">
  <path d="M 50.105469 10.898438 L 37.988281 45.101562 L 5.894531 45.101562 L 38.457031 12.210938 C 39.15625 11.414062 40.234375 10.945312 41.308594 10.898438 Z M 50.105469 10.898438 "/>
</clipPath>
<clipPath id="clip5">
  <path d="M 5 10 L 51 10 L 51 46 L 5 46 Z M 5 10 "/>
</clipPath>
<clipPath id="clip6">
  <path d="M 50.105469 10.898438 L 37.988281 45.101562 L 5.894531 45.101562 L 38.457031 12.210938 C 39.15625 11.414062 40.234375 10.945312 41.308594 10.898438 Z M 50.105469 10.898438 "/>
</clipPath>
<clipPath id="clip7">
  <path d="M 5 27 L 51 27 L 51 46 L 5 46 Z M 5 27 "/>
</clipPath>
<clipPath id="clip8">
  <path d="M 50.105469 10.898438 L 37.988281 45.101562 L 5.894531 45.101562 L 38.457031 12.210938 C 39.15625 11.414062 40.234375 10.945312 41.308594 10.898438 Z M 50.105469 10.898438 "/>
</clipPath>
<clipPath id="clip9">
  <path d="M 5 20 L 51 20 L 51 46 L 5 46 Z M 5 20 "/>
</clipPath>
<clipPath id="clip10">
  <path d="M 50.105469 10.898438 L 37.988281 45.101562 L 5.894531 45.101562 L 38.457031 12.210938 C 39.15625 11.414062 40.234375 10.945312 41.308594 10.898438 Z M 50.105469 10.898438 "/>
</clipPath>
<clipPath id="clip11">
  <path d="M 5 41 L 51 41 L 51 46 L 5 46 Z M 5 41 "/>
</clipPath>
<clipPath id="clip12">
  <path d="M 50.105469 10.898438 L 37.988281 45.101562 L 5.894531 45.101562 L 38.457031 12.210938 C 39.15625 11.414062 40.234375 10.945312 41.308594 10.898438 Z M 50.105469 10.898438 "/>
</clipPath>
<clipPath id="clip13">
  <path d="M 26 24 L 39 24 L 39 36 L 26 36 Z M 26 24 "/>
</clipPath>
<clipPath id="clip14">
  <path d="M 50.105469 10.898438 L 37.988281 45.101562 L 5.894531 45.101562 L 38.457031 12.210938 C 39.15625 11.414062 40.234375 10.945312 41.308594 10.898438 Z M 50.105469 10.898438 "/>
</clipPath>
<clipPath id="clip15">
  <path d="M 31 24 L 34 24 L 34 27 L 31 27 Z M 31 24 "/>
</clipPath>
<clipPath id="clip16">
  <path d="M 50.105469 10.898438 L 37.988281 45.101562 L 5.894531 45.101562 L 38.457031 12.210938 C 39.15625 11.414062 40.234375 10.945312 41.308594 10.898438 Z M 50.105469 10.898438 "/>
</clipPath>
<clipPath id="clip17">
  <path d="M 31 31 L 34 31 L 34 36 L 31 36 Z M 31 31 "/>
</clipPath>
<clipPath id="clip18">
  <path d="M 50.105469 10.898438 L 37.988281 45.101562 L 5.894531 45.101562 L 38.457031 12.210938 C 39.15625 11.414062 40.234375 10.945312 41.308594 10.898438 Z M 50.105469 10.898438 "/>
</clipPath>
<clipPath id="clip19">
  <path d="M 30 28 L 36 28 L 36 32 L 30 32 Z M 30 28 "/>
</clipPath>
<clipPath id="clip20">
  <path d="M 50.105469 10.898438 L 37.988281 45.101562 L 5.894531 45.101562 L 38.457031 12.210938 C 39.15625 11.414062 40.234375 10.945312 41.308594 10.898438 Z M 50.105469 10.898438 "/>
</clipPath>
<clipPath id="clip21">
  <path d="M 30 30 L 34 30 L 34 34 L 30 34 Z M 30 30 "/>
</clipPath>
<clipPath id="clip22">
  <path d="M 50.105469 10.898438 L 37.988281 45.101562 L 5.894531 45.101562 L 38.457031 12.210938 C 39.15625 11.414062 40.234375 10.945312 41.308594 10.898438 Z M 50.105469 10.898438 "/>
</clipPath>
<clipPath id="clip23">
  <path d="M 30 25 L 33 25 L 33 31 L 30 31 Z M 30 25 "/>
</clipPath>
<clipPath id="clip24">
  <path d="M 50.105469 10.898438 L 37.988281 45.101562 L 5.894531 45.101562 L 38.457031 12.210938 C 39.15625 11.414062 40.234375 10.945312 41.308594 10.898438 Z M 50.105469 10.898438 "/>
</clipPath>
<clipPath id="clip25">
  <path d="M 31 28 L 37 28 L 37 34 L 31 34 Z M 31 28 "/>
</clipPath>
<clipPath id="clip26">
  <path d="M 50.105469 10.898438 L 37.988281 45.101562 L 5.894531 45.101562 L 38.457031 12.210938 C 39.15625 11.414062 40.234375 10.945312 41.308594 10.898438 Z M 50.105469 10.898438 "/>
</clipPath>
<clipPath id="clip27">
  <path d="M 32 29 L 36 29 L 36 31 L 32 31 Z M 32 29 "/>
</clipPath>
<clipPath id="clip28">
  <path d="M 50.105469 10.898438 L 37.988281 45.101562 L 5.894531 45.101562 L 38.457031 12.210938 C 39.15625 11.414062 40.234375 10.945312 41.308594 10.898438 Z M 50.105469 10.898438 "/>
</clipPath>
<clipPath id="clip29">
  <path d="M 33 29 L 37 29 L 37 34 L 33 34 Z M 33 29 "/>
</clipPath>
<clipPath id="clip30">
  <path d="M 50.105469 10.898438 L 37.988281 45.101562 L 5.894531 45.101562 L 38.457031 12.210938 C 39.15625 11.414062 40.234375 10.945312 41.308594 10.898438 Z M 50.105469 10.898438 "/>
</clipPath>
<clipPath id="clip31">
  <path d="M 31 26 L 32 26 L 32 28 L 31 28 Z M 31 26 "/>
</clipPath>
<clipPath id="clip32">
  <path d="M 50.105469 10.898438 L 37.988281 45.101562 L 5.894531 45.101562 L 38.457031 12.210938 C 39.15625 11.414062 40.234375 10.945312 41.308594 10.898438 Z M 50.105469 10.898438 "/>
</clipPath>
<clipPath id="clip33">
  <path d="M 30 27 L 32 27 L 32 30 L 30 30 Z M 30 27 "/>
</clipPath>
<clipPath id="clip34">
  <path d="M 50.105469 10.898438 L 37.988281 45.101562 L 5.894531 45.101562 L 38.457031 12.210938 C 39.15625 11.414062 40.234375 10.945312 41.308594 10.898438 Z M 50.105469 10.898438 "/>
</clipPath>
<clipPath id="clip35">
  <path d="M 32 30 L 33 30 L 33 32 L 32 32 Z M 32 30 "/>
</clipPath>
<clipPath id="clip36">
  <path d="M 50.105469 10.898438 L 37.988281 45.101562 L 5.894531 45.101562 L 38.457031 12.210938 C 39.15625 11.414062 40.234375 10.945312 41.308594 10.898438 Z M 50.105469 10.898438 "/>
</clipPath>
<clipPath id="clip37">
  <path d="M 31 26 L 32 26 L 32 27 L 31 27 Z M 31 26 "/>
</clipPath>
<clipPath id="clip38">
  <path d="M 50.105469 10.898438 L 37.988281 45.101562 L 5.894531 45.101562 L 38.457031 12.210938 C 39.15625 11.414062 40.234375 10.945312 41.308594 10.898438 Z M 50.105469 10.898438 "/>
</clipPath>
<clipPath id="clip39">
  <path d="M 31 25 L 33 25 L 33 27 L 31 27 Z M 31 25 "/>
</clipPath>
<clipPath id="clip40">
  <path d="M 50.105469 10.898438 L 37.988281 45.101562 L 5.894531 45.101562 L 38.457031 12.210938 C 39.15625 11.414062 40.234375 10.945312 41.308594 10.898438 Z M 50.105469 10.898438 "/>
</clipPath>
</defs>
<g id="surface1">
<rect x="0" y="0" width="56" height="56" style="fill:rgb(95.666504%,95.776367%,96.775818%);fill-opacity:1;stroke:none;"/>
<g clip-path="url(#clip1)" clip-rule="nonzero">
<g clip-path="url(#clip2)" clip-rule="nonzero">
<path style=" stroke:none;fill-rule:nonzero;fill:rgb(98.188782%,82.086182%,8.924866%);fill-opacity:1;" d="M -44.027344 53.007812 C -24.984375 61.800781 -5.335938 57.875 13.003906 49.265625 C 33.402344 39.671875 54.035156 38.128906 75.277344 46.503906 C 74.949219 43.464844 74.808594 41.917969 74.480469 38.785156 C 63.859375 35.136719 53.101562 33.402344 41.824219 34.527344 C 30.785156 35.648438 22.128906 39.671875 12.769531 45.382812 C -4.867188 56.140625 -24.144531 60.820312 -44.027344 53.007812 "/>
</g>
</g>
<g clip-path="url(#clip3)" clip-rule="nonzero">
<g clip-path="url(#clip4)" clip-rule="nonzero">
<path style=" stroke:none;fill-rule:nonzero;fill:rgb(98.188782%,82.086182%,8.924866%);fill-opacity:1;" d="M -44.027344 53.007812 C -33.078125 55.953125 -22.832031 56.140625 -11.886719 53.195312 C -1.730469 50.433594 5.191406 44.679688 12.675781 37.519531 C 21.144531 29.425781 28.820312 23.390625 40.5625 21.285156 C 51.511719 19.320312 62.316406 20.492188 73.03125 23.203125 C 72.75 20.117188 72.5625 18.527344 72.234375 15.484375 C 61.757812 13.378906 51.136719 12.535156 40.609375 14.734375 C 28.820312 17.214844 21.472656 23.484375 13.660156 32.328125 C 5.894531 41.03125 -0.9375 48.421875 -12.351562 51.976562 C -22.972656 55.207031 -33.21875 55.253906 -44.027344 53.007812 "/>
</g>
</g>
<g clip-path="url(#clip5)" clip-rule="nonzero">
<g clip-path="url(#clip6)" clip-rule="nonzero">
<path style=" stroke:none;fill-rule:nonzero;fill:rgb(9.506226%,9.701538%,9.544373%);fill-opacity:1;" d="M -44.027344 53.007812 C -33.21875 55.253906 -22.972656 55.207031 -12.351562 51.929688 C -0.9375 48.421875 5.941406 40.984375 13.660156 32.28125 C 21.472656 23.484375 28.867188 17.167969 40.609375 14.691406 C 51.183594 12.488281 61.757812 13.332031 72.234375 15.4375 C 71.90625 12.398438 71.722656 10.851562 71.394531 7.90625 C 60.867188 6.40625 50.292969 6.035156 39.90625 8.792969 C 27.976562 11.929688 20.773438 18.945312 13.285156 28.398438 C 5.800781 37.847656 -0.796875 45.894531 -12.351562 50.152344 C -22.738281 53.988281 -33.125 54.457031 -44.027344 53.007812 "/>
</g>
</g>
<g clip-path="url(#clip7)" clip-rule="nonzero">
<g clip-path="url(#clip8)" clip-rule="nonzero">
<path style=" stroke:none;fill-rule:nonzero;fill:rgb(9.506226%,9.701538%,9.544373%);fill-opacity:1;" d="M 74.527344 38.738281 C 63.90625 35.089844 53.148438 33.355469 41.871094 34.480469 C 30.832031 35.601562 22.175781 39.625 12.816406 45.335938 C -4.867188 56.09375 -24.191406 60.773438 -44.074219 52.960938 C -23.207031 59.835938 -4.164062 54.597656 12.722656 41.40625 C 21.613281 34.433594 29.847656 29.472656 41.21875 27.835938 C 52.304688 26.292969 63.113281 27.742188 73.78125 30.921875 C 74.058594 34.058594 74.246094 35.648438 74.527344 38.738281 "/>
</g>
</g>
<g clip-path="url(#clip9)" clip-rule="nonzero">
<g clip-path="url(#clip10)" clip-rule="nonzero">
<path style=" stroke:none;fill-rule:nonzero;fill:rgb(91.481018%,16.027832%,15.200806%);fill-opacity:1;" d="M 73.78125 30.96875 C 63.113281 27.789062 52.304688 26.339844 41.21875 27.882812 C 29.847656 29.472656 21.660156 34.480469 12.722656 41.453125 C -4.164062 54.644531 -23.207031 59.886719 -44.074219 53.007812 C -33.125 55.953125 -22.878906 56.140625 -11.929688 53.195312 C -1.78125 50.433594 5.144531 44.679688 12.632812 37.519531 C 21.097656 29.425781 28.773438 23.390625 40.515625 21.285156 C 51.464844 19.320312 62.269531 20.492188 72.984375 23.203125 C 73.359375 26.246094 73.5 27.835938 73.78125 30.96875 "/>
</g>
</g>
<g clip-path="url(#clip11)" clip-rule="nonzero">
<g clip-path="url(#clip12)" clip-rule="nonzero">
<path style=" stroke:none;fill-rule:nonzero;fill:rgb(91.481018%,16.027832%,15.200806%);fill-opacity:1;" d="M -44.027344 53.007812 C -25.453125 62.925781 -5.710938 60.074219 13.378906 53.054688 C 34.480469 45.285156 55.300781 44.679688 76.164062 54.035156 C 75.792969 51.042969 75.652344 49.542969 75.324219 46.503906 C 54.082031 38.175781 33.402344 39.671875 13.050781 49.265625 C -5.335938 57.875 -24.984375 61.757812 -44.027344 53.007812 "/>
</g>
</g>
<g clip-path="url(#clip13)" clip-rule="nonzero">
<g clip-path="url(#clip14)" clip-rule="nonzero">
<path style=" stroke:none;fill-rule:nonzero;fill:rgb(100%,100%,100%);fill-opacity:1;" d="M 32.46875 35.929688 C 35.695312 35.929688 38.269531 33.308594 38.269531 30.128906 C 38.269531 26.902344 35.648438 24.328125 32.46875 24.328125 C 29.238281 24.328125 26.667969 26.949219 26.667969 30.128906 C 26.667969 33.308594 29.285156 35.929688 32.46875 35.929688 "/>
</g>
</g>
<g clip-path="url(#clip15)" clip-rule="nonzero">
<g clip-path="url(#clip16)" clip-rule="nonzero">
<path style=" stroke:none;fill-rule:nonzero;fill:rgb(90.637207%,11.929321%,16.015625%);fill-opacity:1;" d="M 31.484375 25.730469 L 31.066406 24.980469 C 31.765625 24.46875 33.21875 24.703125 33.449219 25.964844 L 32.796875 26.105469 L 31.484375 25.730469 "/>
<path style=" stroke:none;fill-rule:nonzero;fill:rgb(96.603394%,87.518311%,9.732056%);fill-opacity:1;" d="M 32.515625 26.011719 L 31.765625 25.824219 L 31.8125 24.75 C 32.234375 24.75 32.703125 24.890625 33.03125 25.167969 L 32.515625 26.011719 "/>
</g>
</g>
<g clip-path="url(#clip17)" clip-rule="nonzero">
<g clip-path="url(#clip18)" clip-rule="nonzero">
<path style=" stroke:none;fill-rule:nonzero;fill:rgb(9.506226%,9.701538%,9.544373%);fill-opacity:1;" d="M 32.328125 31.34375 C 32.65625 32.328125 32.328125 32.609375 32.46875 33.21875 C 32.5625 33.683594 32.5625 34.386719 32.515625 34.761719 C 31.953125 34.667969 31.390625 34.761719 31.109375 35.039062 C 31.390625 34.992188 31.765625 34.992188 32.046875 35.039062 C 31.859375 35.089844 31.625 35.367188 31.625 35.648438 C 32 35.226562 32.890625 34.855469 33.777344 35.039062 C 33.730469 34.902344 33.265625 34.714844 32.84375 34.761719 C 32.796875 34.480469 32.65625 33.730469 32.75 33.355469 C 32.84375 32.84375 32.703125 32.09375 32.796875 31.8125 C 32.890625 31.53125 33.03125 31.390625 33.078125 31.109375 "/>
</g>
</g>
<g clip-path="url(#clip19)" clip-rule="nonzero">
<g clip-path="url(#clip20)" clip-rule="nonzero">
<path style=" stroke:none;fill-rule:nonzero;fill:rgb(9.506226%,9.701538%,9.544373%);fill-opacity:1;" d="M 34.621094 29.894531 C 36.117188 30.410156 35.882812 31.390625 35.460938 31.578125 C 34.527344 31.953125 33.03125 31.71875 31.8125 31.207031 C 31.296875 30.96875 30.597656 30.363281 30.738281 29.800781 C 30.878906 29.238281 32.046875 28.726562 32.703125 29.097656 C 33.402344 29.425781 34.339844 29.800781 34.621094 29.894531 "/>
</g>
</g>
<g clip-path="url(#clip21)" clip-rule="nonzero">
<g clip-path="url(#clip22)" clip-rule="nonzero">
<path style=" stroke:none;fill-rule:nonzero;fill:rgb(9.506226%,9.701538%,9.544373%);fill-opacity:1;" d="M 32.046875 30.175781 C 31.765625 30.503906 31.859375 31.390625 32.328125 31.625 C 32.75 31.8125 32.933594 32 33.121094 32.28125 C 33.308594 32.5625 33.355469 32.796875 32.933594 32.75 C 31.90625 32.65625 30.691406 32.5625 30.363281 32.890625 C 30.082031 33.121094 30.082031 33.449219 30.175781 33.824219 C 30.316406 33.636719 30.222656 33.308594 30.410156 33.167969 C 30.363281 33.308594 30.363281 33.589844 30.503906 33.777344 C 30.503906 33.589844 30.550781 33.121094 30.691406 33.078125 C 30.832031 33.167969 30.691406 33.449219 30.832031 33.589844 C 30.921875 33.449219 30.832031 33.265625 31.019531 33.121094 C 31.15625 32.980469 31.4375 32.890625 31.953125 32.933594 C 32.46875 32.980469 32.84375 32.980469 33.078125 32.980469 C 33.308594 32.980469 33.402344 32.933594 33.542969 32.980469 C 33.683594 33.03125 33.777344 32.980469 33.824219 32.890625 C 33.871094 32.796875 33.964844 32.65625 33.777344 32.515625 C 33.636719 32.375 33.355469 31.90625 33.542969 31.578125 C 33.683594 31.34375 33.636719 30.96875 33.542969 30.832031 "/>
</g>
</g>
<g clip-path="url(#clip23)" clip-rule="nonzero">
<g clip-path="url(#clip24)" clip-rule="nonzero">
<path style=" stroke:none;fill-rule:nonzero;fill:rgb(9.506226%,9.701538%,9.544373%);fill-opacity:1;" d="M 30.644531 26.714844 C 30.691406 26.808594 30.96875 26.761719 31.484375 26.667969 C 31.484375 26.761719 31.71875 26.851562 31.625 26.992188 C 31.207031 27.554688 30.597656 28.164062 30.457031 29.050781 C 30.363281 29.519531 30.503906 30.175781 30.96875 30.597656 C 30.96875 30.457031 30.96875 30.269531 30.96875 30.175781 C 31.019531 30.222656 31.066406 30.316406 31.15625 30.363281 C 31.15625 30.316406 31.207031 30.082031 31.207031 30.035156 C 31.296875 30.082031 31.390625 30.128906 31.484375 30.128906 C 31.484375 30.035156 31.4375 29.847656 31.4375 29.800781 C 31.53125 29.847656 31.625 29.894531 31.671875 29.941406 C 31.625 29.847656 31.53125 29.660156 31.53125 29.566406 C 31.578125 29.613281 31.71875 29.707031 31.71875 29.707031 C 31.671875 29.660156 31.671875 29.425781 31.625 29.378906 C 31.671875 29.378906 31.8125 29.472656 31.953125 29.519531 C 31.90625 29.425781 31.90625 29.195312 31.859375 29.195312 C 31.953125 29.238281 32.09375 29.285156 32.140625 29.332031 C 32.09375 29.238281 32.140625 29.097656 32.09375 29.050781 C 32.1875 29.097656 32.375 29.007812 32.515625 29.050781 C 32.375 28.867188 32.1875 28.773438 32.140625 28.585938 C 32.046875 27.976562 32.1875 27.226562 32.515625 26.992188 C 33.078125 26.621094 33.167969 25.730469 32.328125 25.449219 C 31.859375 25.261719 31.207031 25.636719 31.4375 26.386719 C 30.878906 26.480469 30.550781 26.574219 30.597656 26.761719 C 30.550781 26.761719 30.597656 26.714844 30.644531 26.714844 "/>
</g>
</g>
<g clip-path="url(#clip25)" clip-rule="nonzero">
<g clip-path="url(#clip26)" clip-rule="nonzero">
<path style=" stroke:none;fill-rule:nonzero;fill:rgb(73.529053%,76.820374%,74.151611%);fill-opacity:1;" d="M 32 28.960938 C 31.859375 29.472656 32.09375 30.269531 33.121094 30.644531 C 34.152344 31.019531 34.902344 31.8125 34.667969 32.421875 C 34.808594 32.375 35.179688 31.90625 34.949219 31.484375 C 35.277344 31.953125 34.902344 32.65625 34.480469 32.933594 C 34.339844 33.03125 34.480469 33.121094 34.621094 33.078125 C 34.480469 33.121094 34.386719 33.265625 34.527344 33.265625 C 34.621094 33.265625 34.902344 33.121094 35.039062 33.03125 C 34.949219 33.121094 34.761719 33.21875 34.855469 33.308594 C 34.949219 33.402344 35.136719 33.265625 35.324219 33.078125 C 35.226562 33.21875 35.089844 33.402344 34.949219 33.449219 C 34.855469 33.542969 34.855469 33.730469 35.039062 33.589844 C 35.507812 33.265625 36.023438 32.796875 36.164062 32.28125 C 36.257812 31.765625 36.492188 30.644531 35.226562 30.035156 C 33.964844 29.425781 33.355469 29.238281 32.980469 29.007812 C 32.515625 28.820312 32.140625 28.585938 32 28.960938 "/>
</g>
</g>
<g clip-path="url(#clip27)" clip-rule="nonzero">
<g clip-path="url(#clip28)" clip-rule="nonzero">
<path style=" stroke:none;fill-rule:nonzero;fill:rgb(100%,100%,100%);fill-opacity:1;" d="M 34.574219 30.035156 C 34.292969 29.988281 33.496094 29.707031 33.167969 29.519531 C 32.84375 29.332031 32.421875 29.332031 32.46875 29.660156 C 32.515625 29.988281 33.265625 30.128906 33.449219 30.457031 C 33.636719 30.785156 34.386719 30.832031 34.621094 30.878906 C 34.855469 30.921875 35.695312 30.597656 34.574219 30.035156 "/>
</g>
</g>
<g clip-path="url(#clip29)" clip-rule="nonzero">
<g clip-path="url(#clip30)" clip-rule="nonzero">
<path style=" stroke:none;fill-rule:nonzero;fill:rgb(90.637207%,11.929321%,16.015625%);fill-opacity:1;" d="M 33.636719 30.738281 C 33.917969 30.921875 34.152344 30.96875 34.480469 31.390625 C 34.714844 31.71875 34.808594 32.140625 34.714844 32.46875 C 34.855469 32.421875 35.226562 31.953125 34.992188 31.53125 C 35.324219 32 34.949219 32.703125 34.527344 32.980469 C 34.386719 33.078125 34.527344 33.167969 34.667969 33.121094 C 34.527344 33.167969 34.433594 33.308594 34.574219 33.308594 C 34.667969 33.308594 34.949219 33.167969 35.089844 33.078125 C 34.992188 33.167969 34.808594 33.265625 34.902344 33.355469 C 34.992188 33.449219 35.179688 33.308594 35.367188 33.121094 C 35.277344 33.265625 35.136719 33.449219 34.992188 33.496094 C 34.902344 33.589844 34.902344 33.777344 35.089844 33.636719 C 35.554688 33.308594 36.070312 32.84375 36.210938 32.328125 C 36.304688 31.8125 36.539062 30.738281 35.277344 30.082031 C 35.039062 29.988281 34.433594 29.847656 34.292969 29.800781 C 34.574219 29.894531 34.902344 30.363281 34.992188 30.457031 C 34.808594 30.363281 34.199219 30.082031 34.058594 30.035156 C 34.199219 30.175781 34.292969 30.222656 34.433594 30.503906 C 34.246094 30.410156 33.777344 30.316406 33.636719 30.316406 C 33.777344 30.363281 33.917969 30.550781 34.011719 30.644531 C 33.730469 30.550781 33.355469 30.597656 33.636719 30.738281 "/>
</g>
</g>
<g clip-path="url(#clip31)" clip-rule="nonzero">
<g clip-path="url(#clip32)" clip-rule="nonzero">
<path style=" stroke:none;fill-rule:nonzero;fill:rgb(90.637207%,11.929321%,16.015625%);fill-opacity:1;" d="M 31.4375 26.667969 C 31.253906 26.808594 31.066406 27.039062 31.207031 27.226562 C 31.34375 27.414062 31.671875 27.226562 31.71875 27.089844 C 31.8125 26.808594 31.4375 26.808594 31.4375 26.667969 "/>
</g>
</g>
<g clip-path="url(#clip33)" clip-rule="nonzero">
<g clip-path="url(#clip34)" clip-rule="nonzero">
<path style=" stroke:none;fill-rule:nonzero;fill:rgb(73.529053%,76.820374%,74.151611%);fill-opacity:1;" d="M 31.8125 27.179688 C 31.207031 27.882812 30.96875 28.773438 30.921875 29.332031 C 30.921875 29.613281 31.066406 29.753906 31.15625 29.894531 C 31.15625 29.847656 31.15625 29.613281 31.109375 29.566406 C 31.15625 29.613281 31.296875 29.660156 31.34375 29.707031 C 31.34375 29.613281 31.253906 29.425781 31.253906 29.425781 C 31.296875 29.472656 31.4375 29.425781 31.4375 29.472656 C 31.4375 29.425781 31.390625 29.285156 31.34375 29.285156 C 31.390625 29.285156 31.625 29.332031 31.625 29.332031 C 31.578125 29.285156 31.484375 29.097656 31.484375 29.097656 C 31.53125 29.097656 31.71875 29.148438 31.765625 29.148438 C 31.625 29.007812 31.296875 28.679688 31.8125 27.367188 C 31.953125 27.132812 31.953125 27.039062 31.8125 27.179688 "/>
</g>
</g>
<g clip-path="url(#clip35)" clip-rule="nonzero">
<g clip-path="url(#clip36)" clip-rule="nonzero">
<path style=" stroke:none;fill-rule:nonzero;fill:rgb(73.529053%,76.820374%,74.151611%);fill-opacity:1;" d="M 32.234375 30.363281 C 32.09375 30.691406 32.1875 31.109375 32.234375 31.207031 C 32.1875 31.066406 32.65625 30.921875 32.980469 31.207031 C 32.890625 31.066406 32.28125 30.597656 32.234375 30.363281 "/>
</g>
</g>
<g clip-path="url(#clip37)" clip-rule="nonzero">
<g clip-path="url(#clip38)" clip-rule="nonzero">
<path style=" stroke:none;fill-rule:nonzero;fill:rgb(100%,100%,100%);fill-opacity:1;" d="M 31.765625 26.152344 C 31.625 26.152344 31.625 26.386719 31.765625 26.386719 C 31.90625 26.386719 31.90625 26.152344 31.765625 26.152344 "/>
</g>
</g>
<g clip-path="url(#clip39)" clip-rule="nonzero">
<g clip-path="url(#clip40)" clip-rule="nonzero">
<path style=" stroke:none;fill-rule:nonzero;fill:rgb(73.529053%,76.820374%,74.151611%);fill-opacity:1;" d="M 32.328125 25.964844 C 32.421875 26.292969 32.28125 26.480469 32.09375 26.527344 C 31.90625 26.574219 31.90625 26.851562 32.1875 26.808594 C 32.703125 26.714844 32.703125 26.246094 32.46875 25.871094 C 32.375 25.777344 32.28125 25.777344 32.328125 25.964844 "/>
</g>
</g>
</g>
</svg>
