<?xml version="1.0" encoding="UTF-8"?>
<svg xmlns="http://www.w3.org/2000/svg" xmlns:xlink="http://www.w3.org/1999/xlink" width="59pt" height="34.83pt" viewBox="0 0 59 34.83" version="1.1">
<defs>
<clipPath id="clip1">
  <path d="M 0 30 L 59 30 L 59 34.828125 L 0 34.828125 Z M 0 30 "/>
</clipPath>
</defs>
<g id="surface1">
<path style=" stroke:none;fill-rule:nonzero;fill:rgb(82.643127%,83.157349%,82.89032%);fill-opacity:1;" d="M 15.554688 7.835938 L 59 7.835938 L 59 11.5625 L 15.554688 11.5625 L 15.554688 7.835938 "/>
<path style=" stroke:none;fill-rule:nonzero;fill:rgb(82.643127%,83.157349%,82.89032%);fill-opacity:1;" d="M 15.554688 -0.00390625 L 59 -0.00390625 L 59 3.980469 L 15.554688 3.980469 L 15.554688 -0.00390625 "/>
<path style=" stroke:none;fill-rule:nonzero;fill:rgb(82.643127%,83.157349%,82.89032%);fill-opacity:1;" d="M 0 15.546875 L 59 15.546875 L 59 19.402344 L 0 19.402344 L 0 15.546875 "/>
<path style=" stroke:none;fill-rule:nonzero;fill:rgb(82.643127%,83.157349%,82.89032%);fill-opacity:1;" d="M 0 23.261719 L 59 23.261719 L 59 27.117188 L 0 27.117188 L 0 23.261719 "/>
<g clip-path="url(#clip1)" clip-rule="nonzero">
<path style=" stroke:none;fill-rule:nonzero;fill:rgb(82.643127%,83.157349%,82.89032%);fill-opacity:1;" d="M 0 30.972656 L 59 30.972656 L 59 34.828125 L 0 34.828125 L 0 30.972656 "/>
</g>
<path style=" stroke:none;fill-rule:nonzero;fill:rgb(82.643127%,83.157349%,82.89032%);fill-opacity:1;" d="M 0 -0.00390625 L 11.695312 -0.00390625 L 11.695312 11.5625 L 0 11.5625 L 0 -0.00390625 "/>
</g>
</svg>
