<?xml version="1.0" encoding="UTF-8"?>
<svg xmlns="http://www.w3.org/2000/svg" xmlns:xlink="http://www.w3.org/1999/xlink" width="56pt" height="56pt" viewBox="0 0 56 56" version="1.1">
<g id="surface1">
<rect x="0" y="0" width="56" height="56" style="fill:rgb(95.666504%,95.776367%,96.775818%);fill-opacity:1;stroke:none;"/>
<path style=" stroke:none;fill-rule:nonzero;fill:rgb(7.267761%,7.328796%,7.28302%);fill-opacity:1;" d="M 20.996094 22.527344 C 22.398438 22.527344 23.746094 22.550781 25.09375 22.515625 C 25.671875 22.496094 25.847656 22.230469 25.875 21.621094 C 25.90625 20.820312 25.664062 20.5 24.855469 20.46875 C 23.835938 20.421875 22.8125 20.449219 21.789062 20.453125 C 21.527344 20.453125 21.269531 20.488281 20.996094 20.511719 C 20.996094 21.203125 20.996094 21.820312 20.996094 22.527344 Z M 20.988281 25.832031 C 22.539062 25.832031 24.039062 25.855469 25.539062 25.820312 C 26.101562 25.808594 26.292969 25.445312 26.257812 24.691406 C 26.230469 24.023438 26.097656 23.835938 25.484375 23.828125 C 24.066406 23.808594 22.652344 23.828125 21.234375 23.839844 C 21.15625 23.84375 21.078125 23.910156 20.988281 23.957031 C 20.988281 24.554688 20.988281 25.144531 20.988281 25.832031 Z M 19.386719 27.125 C 19.386719 24.410156 19.386719 21.855469 19.386719 19.238281 C 19.644531 19.210938 19.871094 19.171875 20.101562 19.167969 C 21.761719 19.164062 23.417969 19.160156 25.078125 19.167969 C 26.910156 19.179688 27.625 20.019531 27.269531 21.804688 C 27.1875 22.214844 26.917969 22.589844 26.726562 22.996094 C 27.679688 23.652344 28.050781 25.105469 27.5 26.210938 C 27.160156 26.882812 26.578125 27.121094 25.863281 27.121094 C 24.386719 27.121094 22.90625 27.121094 21.429688 27.125 C 20.773438 27.125 20.117188 27.125 19.386719 27.125 "/>
<path style=" stroke:none;fill-rule:nonzero;fill:rgb(7.267761%,7.328796%,7.28302%);fill-opacity:1;" d="M 40.746094 35.605469 C 41.957031 35.605469 43.070312 35.609375 44.179688 35.597656 C 44.359375 35.597656 44.535156 35.527344 44.710938 35.488281 C 45.421875 35.324219 45.925781 34.910156 46.03125 34.171875 C 46.117188 33.523438 46.183594 32.851562 46.121094 32.203125 C 46.011719 31.117188 45.472656 30.527344 44.394531 30.4375 C 43.203125 30.335938 42 30.414062 40.746094 30.414062 C 40.746094 32.152344 40.746094 33.824219 40.746094 35.605469 Z M 39.148438 36.9375 C 39.148438 34.242188 39.148438 31.714844 39.148438 29.214844 C 39.238281 29.15625 39.289062 29.097656 39.339844 29.097656 C 41.179688 29.09375 43.023438 29.050781 44.859375 29.113281 C 46.214844 29.15625 47.546875 30.015625 47.636719 31.886719 C 47.675781 32.636719 47.683594 33.390625 47.621094 34.136719 C 47.484375 35.757812 46.425781 36.8125 44.800781 36.894531 C 43.445312 36.964844 42.085938 36.929688 40.726562 36.9375 C 40.21875 36.941406 39.714844 36.9375 39.148438 36.9375 "/>
<path style=" stroke:none;fill-rule:nonzero;fill:rgb(7.267761%,7.328796%,7.28302%);fill-opacity:1;" d="M 33.179688 25.953125 C 33.183594 25.925781 33.1875 25.902344 33.191406 25.878906 C 33.3125 25.878906 33.429688 25.878906 33.550781 25.875 C 35.5625 25.820312 36.523438 24.757812 36.378906 22.753906 C 36.296875 21.683594 35.675781 20.835938 34.625 20.613281 C 33.871094 20.457031 33.058594 20.363281 32.300781 20.464844 C 30.351562 20.730469 29.578125 22.058594 29.996094 23.988281 C 30.183594 24.859375 30.753906 25.421875 31.59375 25.667969 C 32.105469 25.816406 32.648438 25.859375 33.179688 25.953125 Z M 33.011719 27.34375 C 32.414062 27.230469 31.65625 27.160156 30.945312 26.933594 C 28.863281 26.277344 28.203125 24.671875 28.3125 22.894531 C 28.457031 20.59375 29.84375 19.332031 32.15625 19.105469 C 33.128906 19.011719 34.078125 19.039062 35.023438 19.261719 C 37.3125 19.804688 38.199219 21.554688 37.933594 23.773438 C 37.738281 25.417969 36.949219 26.792969 34.515625 27.140625 C 34.066406 27.207031 33.621094 27.261719 33.011719 27.34375 "/>
<path style=" stroke:none;fill-rule:nonzero;fill:rgb(7.267761%,7.328796%,7.28302%);fill-opacity:1;" d="M 31.414062 32.328125 C 31.414062 32.789062 31.414062 33.140625 31.414062 33.597656 C 29.539062 33.726562 27.652344 33.570312 25.710938 33.6875 C 25.710938 34.316406 25.710938 34.898438 25.710938 35.578125 C 27.671875 35.671875 29.621094 35.570312 31.621094 35.640625 C 31.621094 36.078125 31.621094 36.453125 31.621094 36.882812 C 29.117188 36.882812 26.65625 36.882812 24.09375 36.882812 C 24.023438 34.292969 24.074219 31.714844 24.066406 29.085938 C 26.597656 29.085938 29.054688 29.085938 31.578125 29.085938 C 31.578125 29.515625 31.578125 29.890625 31.578125 30.355469 C 29.644531 30.355469 27.726562 30.355469 25.792969 30.355469 C 25.535156 31.015625 25.6875 31.605469 25.652344 32.292969 C 26.671875 32.355469 27.628906 32.320312 28.585938 32.324219 C 29.511719 32.332031 30.4375 32.328125 31.414062 32.328125 "/>
<path style=" stroke:none;fill-rule:nonzero;fill:rgb(7.267761%,7.328796%,7.28302%);fill-opacity:1;" d="M 12.421875 22.1875 C 12.125 22.203125 11.886719 22.207031 11.652344 22.230469 C 11.195312 22.28125 10.882812 22.179688 10.671875 21.6875 C 10.453125 21.167969 9.960938 20.875 9.421875 20.714844 C 8.386719 20.40625 7.339844 20.367188 6.304688 20.691406 C 5.164062 21.046875 4.648438 21.816406 4.636719 23.089844 C 4.625 24.4375 5.109375 25.234375 6.253906 25.621094 C 7.3125 25.976562 8.390625 25.964844 9.464844 25.664062 C 10.007812 25.515625 10.496094 25.210938 10.703125 24.6875 C 10.894531 24.214844 11.1875 24.128906 11.613281 24.164062 C 11.847656 24.1875 12.089844 24.195312 12.375 24.210938 C 12.535156 24.859375 12.1875 25.332031 11.867188 25.785156 C 11.476562 26.34375 10.914062 26.707031 10.265625 26.914062 C 8.597656 27.453125 6.925781 27.421875 5.289062 26.832031 C 4.171875 26.429688 3.425781 25.613281 3.175781 24.421875 C 2.824219 22.765625 2.957031 21.234375 4.355469 20.039062 C 4.902344 19.570312 5.558594 19.3125 6.238281 19.207031 C 7.492188 19.015625 8.769531 18.980469 10.011719 19.335938 C 11.402344 19.734375 12.277344 20.746094 12.421875 22.1875 "/>
<path style=" stroke:none;fill-rule:nonzero;fill:rgb(7.267761%,7.328796%,7.28302%);fill-opacity:1;" d="M 34.40625 32.332031 C 34.585938 32.367188 34.699219 32.402344 34.8125 32.40625 C 35.050781 32.417969 35.292969 32.421875 35.53125 32.410156 C 36.128906 32.378906 36.320312 32.160156 36.355469 31.492188 C 36.386719 30.835938 36.125 30.4375 35.589844 30.394531 C 35.214844 30.363281 34.832031 30.386719 34.40625 30.386719 C 34.40625 31.078125 34.40625 31.664062 34.40625 32.332031 Z M 36.980469 33.464844 C 37.367188 34.558594 37.757812 35.664062 38.167969 36.816406 C 37.71875 37.027344 37.269531 36.917969 36.835938 36.921875 C 36.535156 36.921875 36.453125 36.675781 36.375 36.4375 C 36.167969 35.808594 35.960938 35.175781 35.742188 34.550781 C 35.460938 33.734375 35.457031 33.734375 34.390625 33.867188 C 34.390625 34.832031 34.390625 35.8125 34.390625 36.863281 C 33.828125 36.863281 33.363281 36.863281 32.902344 36.863281 C 32.742188 36.171875 32.71875 30.03125 32.882812 29.058594 C 33.976562 29.058594 35.089844 29.011719 36.191406 29.070312 C 37.277344 29.132812 37.738281 29.652344 37.832031 30.746094 C 37.851562 30.988281 37.847656 31.230469 37.847656 31.472656 C 37.839844 32.550781 37.769531 32.710938 36.980469 33.464844 "/>
<path style=" stroke:none;fill-rule:nonzero;fill:rgb(7.267761%,7.328796%,7.28302%);fill-opacity:1;" d="M 15.726562 21.246094 C 15.683594 21.253906 15.640625 21.257812 15.59375 21.265625 C 15.398438 22.144531 15.203125 23.023438 14.984375 24.015625 C 15.488281 23.941406 15.867188 24.113281 16.269531 23.824219 C 16.089844 22.960938 15.90625 22.101562 15.726562 21.246094 Z M 18.546875 27.03125 C 18.390625 27.074219 18.304688 27.121094 18.222656 27.121094 C 17.007812 27.089844 16.980469 27.363281 16.753906 26.015625 C 16.628906 25.261719 16.59375 25.269531 15.804688 25.257812 C 15.683594 25.257812 15.5625 25.253906 15.441406 25.257812 C 14.65625 25.265625 14.632812 25.261719 14.484375 26.011719 C 14.234375 27.273438 14.371094 27.117188 13.019531 27.117188 C 12.933594 27.117188 12.851562 27.074219 12.710938 27.035156 C 12.992188 25.882812 13.269531 24.75 13.550781 23.613281 C 13.859375 22.355469 14.164062 21.097656 14.480469 19.84375 C 14.648438 19.183594 14.660156 19.179688 15.324219 19.167969 C 15.773438 19.160156 16.21875 19.164062 16.738281 19.164062 C 17.347656 21.824219 17.949219 24.417969 18.546875 27.03125 "/>
<path style=" stroke:none;fill-rule:nonzero;fill:rgb(7.267761%,7.328796%,7.28302%);fill-opacity:1;" d="M 52.9375 29.042969 C 52.9375 29.503906 52.9375 29.890625 52.9375 30.375 C 52.035156 30.375 51.144531 30.375 50.179688 30.375 C 50.136719 30.960938 50.085938 31.460938 50.0625 31.964844 C 50.050781 32.242188 50.261719 32.316406 50.488281 32.320312 C 51.03125 32.324219 51.578125 32.332031 52.121094 32.3125 C 52.839844 32.289062 52.84375 32.277344 52.851562 32.957031 C 52.855469 33.132812 52.835938 33.3125 52.820312 33.597656 C 52.492188 33.613281 52.171875 33.636719 51.855469 33.644531 C 51.433594 33.652344 51.011719 33.652344 50.585938 33.644531 C 50.214844 33.636719 50.03125 33.769531 50.0625 34.179688 C 50.097656 34.597656 50.070312 35.019531 50.070312 35.496094 C 51.03125 35.769531 52.003906 35.492188 52.988281 35.679688 C 52.988281 36.074219 52.988281 36.449219 52.988281 36.882812 C 51.519531 36.882812 50.089844 36.882812 48.605469 36.882812 C 48.582031 36.691406 48.535156 36.515625 48.535156 36.34375 C 48.53125 34.140625 48.527344 31.933594 48.535156 29.726562 C 48.535156 29.011719 48.550781 29.03125 49.230469 29.039062 C 50.4375 29.054688 51.644531 29.042969 52.9375 29.042969 "/>
<path style=" stroke:none;fill-rule:nonzero;fill:rgb(7.267761%,7.328796%,7.28302%);fill-opacity:1;" d="M 19.035156 29.113281 C 19.4375 30.910156 19.855469 32.753906 20.300781 34.746094 C 20.433594 34.449219 20.539062 34.289062 20.578125 34.109375 C 20.898438 32.730469 21.207031 31.351562 21.523438 29.96875 C 21.734375 29.042969 21.738281 29.042969 22.722656 29.0625 C 22.867188 29.066406 23.015625 29.085938 23.253906 29.105469 C 23.1875 29.453125 23.148438 29.769531 23.070312 30.078125 C 22.550781 32.125 22.027344 34.164062 21.503906 36.210938 C 21.320312 36.921875 21.316406 36.9375 20.609375 36.933594 C 19.136719 36.925781 19.402344 37.097656 19.0625 35.777344 C 18.550781 33.792969 18.0625 31.804688 17.570312 29.816406 C 17.519531 29.609375 17.492188 29.402344 17.441406 29.113281 C 17.964844 29.113281 18.460938 29.113281 19.035156 29.113281 "/>
</g>
</svg>
