<?xml version="1.0" encoding="UTF-8"?>
<svg xmlns="http://www.w3.org/2000/svg" xmlns:xlink="http://www.w3.org/1999/xlink" width="56pt" height="56pt" viewBox="0 0 56 56" version="1.1">
<g id="surface1">
<rect x="0" y="0" width="56" height="56" style="fill:rgb(43.03894%,43.696594%,44.45343%);fill-opacity:1;stroke:none;"/>
<path style=" stroke:none;fill-rule:nonzero;fill:rgb(100%,100%,100%);fill-opacity:1;" d="M 27.832031 19.722656 C 28.195312 19.613281 28.617188 19.683594 28.902344 19.941406 C 29.144531 20.167969 29.246094 20.503906 29.25 20.828125 C 29.25 24.015625 29.25 27.203125 29.25 30.394531 C 29.230469 30.871094 29.332031 31.40625 29.039062 31.820312 C 28.742188 32.25 28.125 32.363281 27.671875 32.136719 C 27.300781 31.953125 27.105469 31.527344 27.109375 31.128906 C 27.109375 27.832031 27.109375 24.53125 27.109375 21.234375 C 27.113281 20.941406 27.078125 20.636719 27.183594 20.351562 C 27.285156 20.058594 27.53125 19.8125 27.832031 19.722656 "/>
<path style=" stroke:none;fill-rule:nonzero;fill:rgb(100%,100%,100%);fill-opacity:1;" d="M 21.363281 26.214844 C 20.847656 26.484375 20.722656 27.109375 20.667969 27.636719 C 21.675781 27.636719 22.679688 27.632812 23.683594 27.636719 C 23.644531 27.097656 23.464844 26.488281 22.953125 26.21875 C 22.464844 25.980469 21.855469 25.980469 21.363281 26.214844 Z M 19.335938 25.734375 C 19.878906 24.960938 20.785156 24.484375 21.71875 24.394531 C 22.710938 24.285156 23.804688 24.453125 24.574219 25.132812 C 25.285156 25.761719 25.605469 26.722656 25.667969 27.648438 C 25.6875 28.011719 25.742188 28.410156 25.550781 28.742188 C 25.40625 29 25.078125 29.070312 24.800781 29.074219 C 23.425781 29.074219 22.046875 29.070312 20.667969 29.074219 C 20.757812 29.585938 20.996094 30.136719 21.503906 30.351562 C 22.214844 30.652344 23.015625 30.476562 23.726562 30.261719 C 24.007812 30.179688 24.300781 30.074219 24.597656 30.117188 C 25.015625 30.207031 25.308594 30.652344 25.261719 31.070312 C 25.222656 31.386719 24.960938 31.617188 24.699219 31.769531 C 24.21875 32.03125 23.667969 32.140625 23.128906 32.203125 C 22.105469 32.324219 21 32.242188 20.125 31.65625 C 19.253906 31.09375 18.757812 30.09375 18.636719 29.085938 C 18.492188 27.9375 18.652344 26.695312 19.335938 25.734375 "/>
<path style=" stroke:none;fill-rule:nonzero;fill:rgb(100%,100%,100%);fill-opacity:1;" d="M 11.039062 24.449219 C 11.40625 24.347656 11.84375 24.410156 12.121094 24.691406 C 12.355469 24.917969 12.449219 25.253906 12.445312 25.574219 C 12.449219 26.757812 12.445312 27.941406 12.449219 29.125 C 12.445312 29.550781 12.617188 30.007812 12.992188 30.242188 C 13.320312 30.453125 13.726562 30.472656 14.105469 30.429688 C 14.429688 30.386719 14.753906 30.234375 14.941406 29.960938 C 15.15625 29.660156 15.183594 29.28125 15.1875 28.921875 C 15.191406 27.761719 15.1875 26.601562 15.1875 25.445312 C 15.191406 25.039062 15.4375 24.632812 15.820312 24.484375 C 16.234375 24.316406 16.773438 24.398438 17.066406 24.757812 C 17.292969 25.019531 17.335938 25.382812 17.332031 25.714844 C 17.324219 26.78125 17.339844 27.851562 17.324219 28.917969 C 17.300781 29.832031 17.054688 30.808594 16.359375 31.449219 C 15.613281 32.136719 14.542969 32.300781 13.566406 32.265625 C 12.664062 32.230469 11.707031 31.960938 11.089844 31.265625 C 10.527344 30.628906 10.316406 29.753906 10.308594 28.921875 C 10.308594 27.761719 10.304688 26.601562 10.308594 25.445312 C 10.3125 25.003906 10.609375 24.574219 11.039062 24.449219 "/>
<path style=" stroke:none;fill-rule:nonzero;fill:rgb(100%,100%,100%);fill-opacity:1;" d="M 37.320312 24.460938 C 38.324219 24.335938 39.417969 24.382812 40.304688 24.925781 C 40.914062 25.289062 41.328125 25.921875 41.507812 26.601562 C 41.632812 27.050781 41.671875 27.519531 41.671875 27.984375 C 41.671875 29.011719 41.671875 30.035156 41.671875 31.058594 C 41.679688 31.398438 41.570312 31.757812 41.308594 31.984375 C 40.925781 32.328125 40.296875 32.335938 39.902344 32.015625 C 39.640625 31.804688 39.503906 31.460938 39.515625 31.128906 C 39.515625 30.101562 39.515625 29.078125 39.515625 28.050781 C 39.519531 27.597656 39.535156 27.101562 39.257812 26.714844 C 39.035156 26.382812 38.628906 26.230469 38.238281 26.21875 C 37.855469 26.207031 37.433594 26.28125 37.148438 26.554688 C 36.882812 26.820312 36.789062 27.214844 36.789062 27.582031 C 36.789062 28.742188 36.789062 29.90625 36.789062 31.066406 C 36.792969 31.34375 36.730469 31.632812 36.558594 31.851562 C 36.191406 32.34375 35.371094 32.386719 34.953125 31.941406 C 34.742188 31.730469 34.648438 31.425781 34.648438 31.132812 C 34.648438 30.351562 34.652344 29.570312 34.648438 28.789062 C 34.65625 28.078125 34.601562 27.351562 34.792969 26.65625 C 34.957031 25.992188 35.339844 25.375 35.90625 24.988281 C 36.328125 24.699219 36.820312 24.535156 37.320312 24.460938 "/>
<path style=" stroke:none;fill-rule:nonzero;fill:rgb(100%,100%,100%);fill-opacity:1;" d="M 46.507812 26.234375 C 46.179688 26.289062 45.859375 26.433594 45.628906 26.675781 C 45.207031 27.136719 45.113281 27.789062 45.113281 28.386719 C 45.121094 28.925781 45.164062 29.511719 45.496094 29.957031 C 45.816406 30.367188 46.375 30.460938 46.863281 30.421875 C 47.332031 30.402344 47.789062 30.148438 48.007812 29.722656 C 48.40625 28.960938 48.265625 28.074219 48.292969 27.25 C 48.277344 27.003906 48.367188 26.6875 48.121094 26.527344 C 47.664062 26.191406 47.050781 26.152344 46.507812 26.234375 Z M 44.253906 25.304688 C 44.984375 24.660156 45.976562 24.382812 46.9375 24.40625 C 47.878906 24.40625 48.839844 24.601562 49.660156 25.066406 C 50.039062 25.273438 50.324219 25.671875 50.316406 26.113281 C 50.316406 28.324219 50.316406 30.53125 50.316406 32.738281 C 50.300781 33.738281 49.980469 34.796875 49.199219 35.464844 C 48.414062 36.140625 47.339844 36.339844 46.335938 36.324219 C 45.558594 36.292969 44.78125 36.097656 44.113281 35.695312 C 43.871094 35.539062 43.644531 35.347656 43.503906 35.09375 C 43.25 34.621094 43.546875 33.949219 44.070312 33.832031 C 44.457031 33.773438 44.820312 33.960938 45.167969 34.101562 C 45.640625 34.308594 46.15625 34.425781 46.671875 34.410156 C 47.113281 34.40625 47.589844 34.296875 47.90625 33.976562 C 48.207031 33.664062 48.296875 33.21875 48.292969 32.804688 C 48.292969 32.417969 48.289062 32.03125 48.292969 31.648438 C 47.6875 32.179688 46.839844 32.308594 46.0625 32.257812 C 45.246094 32.207031 44.445312 31.84375 43.910156 31.21875 C 43.160156 30.355469 42.941406 29.160156 43 28.046875 C 43.050781 27.019531 43.460938 25.980469 44.253906 25.304688 "/>
<path style=" stroke:none;fill-rule:nonzero;fill:rgb(100%,100%,100%);fill-opacity:1;" d="M 2.429688 25.019531 C 2.65625 24.578125 3.214844 24.40625 3.675781 24.503906 C 4.042969 24.570312 4.304688 24.894531 4.394531 25.242188 C 4.820312 26.667969 5.242188 28.09375 5.664062 29.523438 C 5.6875 29.605469 5.726562 29.683594 5.769531 29.757812 C 6.214844 28.296875 6.644531 26.832031 7.074219 25.367188 C 7.15625 25.054688 7.308594 24.726562 7.617188 24.578125 C 8.109375 24.351562 8.789062 24.511719 9.070312 24.996094 C 9.25 25.316406 9.203125 25.707031 9.074219 26.035156 C 8.472656 27.710938 7.882812 29.386719 7.285156 31.0625 C 7.160156 31.386719 7.039062 31.726562 6.789062 31.976562 C 6.527344 32.222656 6.148438 32.25 5.808594 32.253906 C 5.429688 32.253906 5.011719 32.21875 4.722656 31.949219 C 4.457031 31.695312 4.316406 31.339844 4.191406 31.003906 C 3.597656 29.324219 3.007812 27.640625 2.410156 25.964844 C 2.300781 25.660156 2.273438 25.308594 2.429688 25.019531 "/>
<path style=" stroke:none;fill-rule:nonzero;fill:rgb(100%,100%,100%);fill-opacity:1;" d="M 31.585938 24.550781 C 32.035156 24.375 32.605469 24.511719 32.878906 24.921875 C 33.042969 25.148438 33.082031 25.441406 33.078125 25.714844 C 33.078125 27.496094 33.078125 29.28125 33.078125 31.066406 C 33.078125 31.363281 33.003906 31.675781 32.800781 31.902344 C 32.414062 32.355469 31.628906 32.367188 31.226562 31.929688 C 31.03125 31.714844 30.933594 31.421875 30.9375 31.136719 C 30.9375 29.28125 30.941406 27.429688 30.9375 25.578125 C 30.925781 25.152344 31.175781 24.707031 31.585938 24.550781 "/>
<path style=" stroke:none;fill-rule:nonzero;fill:rgb(96.459961%,91.226196%,28.096008%);fill-opacity:1;" d="M 51.78125 20.480469 C 52.121094 20.371094 52.496094 20.371094 52.832031 20.480469 C 53.253906 20.617188 53.585938 20.992188 53.660156 21.429688 C 53.707031 21.804688 53.691406 22.21875 53.460938 22.535156 C 53.011719 23.164062 52.039062 23.25 51.425781 22.824219 C 50.640625 22.238281 50.800781 20.765625 51.78125 20.480469 "/>
</g>
</svg>
