<?xml version="1.0" encoding="UTF-8"?>
<svg xmlns="http://www.w3.org/2000/svg" xmlns:xlink="http://www.w3.org/1999/xlink" width="56pt" height="56pt" viewBox="0 0 56 56" version="1.1">
<g id="surface1">
<rect x="0" y="0" width="56" height="56" style="fill:rgb(16.162109%,15.592957%,15.905762%);fill-opacity:1;stroke:none;"/>
<path style=" stroke:none;fill-rule:nonzero;fill:rgb(74.021912%,59.237671%,19.802856%);fill-opacity:1;" d="M 24.511719 41.554688 C 24.765625 39.019531 25.035156 36.484375 25.269531 33.945312 C 25.367188 32.878906 25.390625 31.808594 25.453125 30.589844 C 21.445312 30.589844 17.527344 30.589844 13.496094 30.589844 C 12.867188 31.75 12.1875 33.003906 11.480469 34.316406 C 10.992188 34.316406 10.507812 34.316406 9.871094 34.316406 C 10.046875 32.964844 10.210938 31.710938 10.386719 30.355469 C 9.570312 29.917969 8.738281 29.472656 8.011719 29.085938 C 7.542969 26.914062 7.542969 26.914062 10.355469 25.335938 C 10.109375 24.183594 9.855469 23 9.578125 21.710938 C 10.171875 21.710938 10.660156 21.710938 11.199219 21.710938 C 11.976562 22.878906 12.769531 24.0625 13.472656 25.121094 C 17.503906 25.121094 21.378906 25.121094 25.289062 25.121094 C 25.558594 23.972656 25.355469 22.953125 25.269531 21.957031 C 25.042969 19.367188 24.730469 16.78125 24.453125 14.191406 C 25.375 14.191406 26.296875 14.191406 27.21875 14.191406 C 27.238281 14.464844 27.175781 14.785156 27.292969 15.007812 C 29.109375 18.488281 30.949219 21.957031 32.835938 25.53125 C 33.484375 25.53125 34.140625 25.53125 34.796875 25.53125 C 37.304688 25.53125 39.808594 25.523438 42.316406 25.535156 C 43.929688 25.542969 45.445312 25.945312 46.835938 26.769531 C 47.304688 27.046875 47.71875 27.421875 48.21875 27.800781 C 46.578125 29.503906 44.621094 30.128906 42.472656 30.175781 C 39.816406 30.234375 37.15625 30.191406 34.496094 30.191406 C 33.988281 30.191406 33.476562 30.191406 32.84375 30.191406 C 30.863281 34.019531 28.882812 37.859375 26.839844 41.808594 C 26.167969 41.808594 25.464844 41.808594 24.765625 41.808594 C 24.679688 41.722656 24.59375 41.640625 24.511719 41.554688 "/>
</g>
</svg>
