<?xml version="1.0" encoding="UTF-8"?>
<svg xmlns="http://www.w3.org/2000/svg" xmlns:xlink="http://www.w3.org/1999/xlink" width="56pt" height="56pt" viewBox="0 0 56 56" version="1.1">
<g id="surface1">
<rect x="0" y="0" width="56" height="56" style="fill:rgb(16.279602%,18.31665%,49.456787%);fill-opacity:1;stroke:none;"/>
<path style=" stroke:none;fill-rule:evenodd;fill:rgb(100%,100%,100%);fill-opacity:1;" d="M 13.535156 43.9375 L 20.105469 43.9375 L 26.59375 31.019531 L 27.554688 43.9375 L 34.085938 43.9375 L 48.511719 14.851562 L 38.816406 14.851562 L 33.585938 26.621094 L 32.75 14.851562 L 25.335938 14.851562 L 19.691406 26.828125 L 18.769531 14.851562 L 9.9375 14.851562 Z M 15.191406 42.0625 L 12.058594 16.726562 L 17.03125 16.726562 L 18.367188 34.042969 L 26.523438 16.726562 L 31.003906 16.726562 L 31.980469 30.503906 L 33.773438 30.816406 L 40.035156 16.726562 L 45.488281 16.726562 L 32.921875 42.0625 L 29.292969 42.0625 L 27.957031 24.121094 L 18.949219 42.0625 L 15.191406 42.0625 "/>
</g>
</svg>
