<?xml version="1.0" encoding="UTF-8"?>
<svg xmlns="http://www.w3.org/2000/svg" xmlns:xlink="http://www.w3.org/1999/xlink" width="56pt" height="56pt" viewBox="0 0 56 56" version="1.1">
<g id="surface1">
<rect x="0" y="0" width="56" height="56" style="fill:rgb(28.964233%,63.110352%,87.132263%);fill-opacity:1;stroke:none;"/>
<path style=" stroke:none;fill-rule:nonzero;fill:rgb(100%,100%,100%);fill-opacity:1;" d="M 5.320312 29.816406 C 6.75 29.816406 8.179688 29.816406 9.644531 29.816406 C 9.660156 30.28125 9.652344 30.71875 9.652344 31.160156 C 9.65625 31.609375 9.652344 32.0625 9.652344 32.511719 C 9.652344 32.953125 9.652344 33.394531 9.652344 33.890625 C 9.738281 33.820312 9.789062 33.785156 9.832031 33.742188 C 10.382812 33.210938 10.933594 32.675781 11.484375 32.140625 C 12.242188 31.40625 13.003906 30.671875 13.761719 29.9375 C 13.84375 29.855469 13.933594 29.8125 14.054688 29.8125 C 15.382812 29.816406 16.710938 29.8125 18.039062 29.816406 C 18.082031 29.816406 18.121094 29.828125 18.207031 29.839844 C 17.347656 30.703125 16.515625 31.53125 15.683594 32.367188 C 14.855469 33.195312 14.019531 34.015625 13.210938 34.851562 C 13.398438 35.121094 19.183594 40.816406 19.410156 40.949219 C 19.410156 37.234375 19.410156 33.542969 19.410156 29.832031 C 20.894531 29.832031 22.34375 29.832031 23.816406 29.832031 C 23.824219 29.945312 23.835938 30.042969 23.835938 30.144531 C 23.835938 32.75 23.835938 35.355469 23.835938 37.964844 C 23.835938 38.0625 23.847656 38.164062 23.851562 38.285156 C 23.945312 38.296875 24.023438 38.316406 24.101562 38.316406 C 25.496094 38.316406 26.894531 38.320312 28.289062 38.316406 C 29.046875 38.3125 29.808594 38.292969 30.566406 38.285156 C 30.65625 38.285156 30.742188 38.292969 30.820312 38.300781 C 30.894531 38.480469 30.917969 40.828125 30.851562 41.148438 C 30.816406 41.152344 30.777344 41.164062 30.734375 41.164062 C 29.441406 41.164062 28.152344 41.160156 26.859375 41.164062 C 24.792969 41.171875 22.726562 41.195312 20.660156 41.195312 C 18.429688 41.195312 16.199219 41.171875 13.972656 41.167969 C 13.796875 41.164062 13.683594 41.09375 13.570312 40.980469 C 12.371094 39.777344 11.171875 38.578125 9.96875 37.375 C 9.898438 37.304688 9.820312 37.238281 9.703125 37.128906 C 9.6875 37.28125 9.667969 37.386719 9.667969 37.488281 C 9.664062 38.351562 9.664062 39.21875 9.664062 40.082031 C 9.664062 40.367188 9.664062 40.65625 9.660156 40.945312 C 9.660156 41.015625 9.652344 41.089844 9.644531 41.183594 C 8.191406 41.226562 6.753906 41.167969 5.320312 41.15625 C 5.320312 37.378906 5.320312 33.597656 5.320312 29.816406 "/>
<path style=" stroke:none;fill-rule:nonzero;fill:rgb(100%,100%,100%);fill-opacity:1;" d="M 50.679688 41.15625 C 49.1875 41.21875 46.703125 41.207031 46.324219 41.128906 C 46.316406 41.046875 46.300781 40.953125 46.300781 40.859375 C 46.296875 38.46875 46.296875 36.078125 46.296875 33.6875 C 46.296875 33.59375 46.296875 33.5 46.296875 33.40625 C 46.277344 33.398438 46.257812 33.394531 46.238281 33.386719 C 46.195312 33.453125 46.136719 33.515625 46.109375 33.589844 C 45.972656 33.953125 45.84375 34.324219 45.710938 34.691406 C 45.21875 36.082031 44.726562 37.472656 44.238281 38.863281 C 44 39.539062 43.765625 40.214844 43.527344 40.890625 C 43.492188 40.984375 43.449219 41.074219 43.410156 41.15625 C 42.035156 41.183594 40.6875 41.238281 39.3125 41.136719 C 39.222656 40.890625 39.128906 40.636719 39.035156 40.378906 C 38.84375 39.832031 38.652344 39.28125 38.460938 38.730469 C 38.15625 37.859375 37.851562 36.988281 37.546875 36.117188 C 37.308594 35.445312 37.066406 34.769531 36.828125 34.09375 C 36.785156 33.96875 36.75 33.839844 36.699219 33.71875 C 36.660156 33.628906 36.601562 33.546875 36.550781 33.464844 C 36.53125 33.46875 36.507812 33.472656 36.484375 33.476562 C 36.480469 33.550781 36.464844 33.625 36.464844 33.699219 C 36.464844 34.089844 36.464844 34.480469 36.464844 34.871094 C 36.464844 36.867188 36.464844 38.859375 36.464844 40.851562 C 36.464844 40.953125 36.457031 41.054688 36.449219 41.179688 C 34.996094 41.238281 33.566406 41.140625 32.125 41.160156 C 32.109375 41.074219 32.089844 41.019531 32.089844 40.960938 C 32.097656 37.257812 32.113281 33.554688 32.125 29.851562 C 32.285156 29.804688 38.902344 29.789062 39.21875 29.839844 C 39.960938 31.828125 40.59375 33.871094 41.304688 35.890625 C 41.324219 35.894531 41.34375 35.898438 41.359375 35.902344 C 41.421875 35.78125 41.496094 35.664062 41.539062 35.539062 C 41.953125 34.367188 42.355469 33.195312 42.761719 32.027344 C 42.984375 31.386719 43.210938 30.742188 43.433594 30.105469 C 43.464844 30.015625 43.507812 29.929688 43.546875 29.832031 C 43.621094 29.828125 43.683594 29.816406 43.75 29.816406 C 46.058594 29.816406 48.371094 29.816406 50.679688 29.816406 C 50.679688 33.597656 50.679688 37.378906 50.679688 41.15625 "/>
<path style=" stroke:none;fill-rule:nonzero;fill:rgb(100%,100%,100%);fill-opacity:1;" d="M 36.425781 27.253906 C 36.25 27.300781 19.609375 27.308594 19.417969 27.257812 C 19.351562 27.085938 19.328125 24.703125 19.394531 24.34375 C 19.484375 24.339844 19.582031 24.324219 19.683594 24.324219 C 22.167969 24.324219 24.65625 24.324219 27.144531 24.328125 C 30.132812 24.328125 33.121094 24.328125 36.109375 24.328125 C 36.214844 24.328125 36.316406 24.328125 36.40625 24.328125 C 36.476562 24.515625 36.488281 27.03125 36.425781 27.253906 "/>
<path style=" stroke:none;fill-rule:nonzero;fill:rgb(100%,100%,100%);fill-opacity:1;" d="M 25.125 23.707031 C 23.886719 23.738281 22.65625 22.707031 22.648438 21.25 C 22.640625 20 23.609375 18.761719 25.117188 18.757812 C 26.441406 18.753906 27.644531 19.828125 27.605469 21.324219 C 27.570312 22.589844 26.476562 23.730469 25.125 23.707031 "/>
<path style=" stroke:none;fill-rule:nonzero;fill:rgb(100%,100%,100%);fill-opacity:1;" d="M 30.832031 23.707031 C 29.445312 23.707031 28.371094 22.621094 28.351562 21.238281 C 28.332031 20.011719 29.332031 18.757812 30.828125 18.757812 C 32.070312 18.761719 33.316406 19.695312 33.296875 21.289062 C 33.28125 22.65625 32.164062 23.710938 30.832031 23.707031 "/>
<path style=" stroke:none;fill-rule:nonzero;fill:rgb(100%,100%,100%);fill-opacity:1;" d="M 38.988281 21.210938 C 38.992188 22.585938 37.914062 23.691406 36.558594 23.707031 C 35.175781 23.722656 34.054688 22.660156 34.042969 21.273438 C 34.03125 19.8125 35.152344 18.777344 36.507812 18.765625 C 37.863281 18.753906 38.996094 19.878906 38.988281 21.210938 "/>
<path style=" stroke:none;fill-rule:nonzero;fill:rgb(100%,100%,100%);fill-opacity:1;" d="M 21.894531 21.242188 C 21.972656 22.476562 20.824219 23.6875 19.488281 23.714844 C 18.1875 23.738281 16.996094 22.65625 16.953125 21.308594 C 16.917969 20.105469 17.886719 18.769531 19.410156 18.753906 C 20.71875 18.742188 21.953125 19.835938 21.894531 21.242188 "/>
<path style=" stroke:none;fill-rule:nonzero;fill:rgb(100%,100%,100%);fill-opacity:1;" d="M 28.632812 16.261719 C 29.097656 16.261719 29.539062 16.261719 29.996094 16.261719 C 30.070312 16.738281 30.023438 17.191406 29.976562 17.675781 C 29.523438 17.675781 29.078125 17.675781 28.601562 17.675781 C 28.601562 18.15625 28.601562 18.601562 28.601562 19.070312 C 28.132812 19.113281 27.6875 19.089844 27.207031 19.09375 C 27.203125 18.613281 27.195312 18.160156 27.1875 17.683594 C 26.703125 17.683594 26.25 17.683594 25.808594 17.683594 C 25.734375 17.503906 25.71875 16.554688 25.78125 16.265625 C 26.230469 16.261719 26.691406 16.257812 27.160156 16.253906 C 27.226562 15.996094 27.191406 15.757812 27.199219 15.527344 C 27.207031 15.300781 27.199219 15.074219 27.199219 14.8125 C 27.640625 14.789062 28.089844 14.800781 28.566406 14.808594 C 28.589844 15.296875 28.609375 15.757812 28.632812 16.261719 "/>
</g>
</svg>
