<?xml version="1.0" encoding="UTF-8"?>
<svg xmlns="http://www.w3.org/2000/svg" xmlns:xlink="http://www.w3.org/1999/xlink" width="56pt" height="56pt" viewBox="0 0 56 56" version="1.1">
<g id="surface1">
<rect x="0" y="0" width="56" height="56" style="fill:rgb(94.456482%,29.01001%,11.08551%);fill-opacity:1;stroke:none;"/>
<path style=" stroke:none;fill-rule:nonzero;fill:rgb(100%,100%,100%);fill-opacity:1;" d="M 28.386719 8.390625 L 29.648438 8.660156 L 30.03125 9.097656 L 29.925781 10.09375 L 29.753906 17.890625 L 29.316406 17.949219 L 28.105469 14.976562 L 27.671875 12.175781 L 27.835938 9.378906 "/>
<path style=" stroke:none;fill-rule:nonzero;fill:rgb(100%,100%,100%);fill-opacity:1;" d="M 35.691406 24.214844 L 39.367188 21.570312 L 41.34375 20.640625 L 43.273438 19.371094 L 45.082031 18.9375 L 45.578125 20.359375 L 44.085938 21.464844 L 40.792969 23.882812 L 39.746094 24.046875 L 38.109375 24.648438 L 36.570312 24.921875 "/>
<path style=" stroke:none;fill-rule:nonzero;fill:rgb(100%,100%,100%);fill-opacity:1;" d="M 39.699219 29.648438 L 39.863281 28.714844 L 45.304688 28.222656 L 48.433594 28.164062 L 49.867188 28.601562 L 50.679688 28.929688 L 50.621094 29.867188 L 50.023438 30.46875 L 46.621094 30.527344 L 43.046875 30.304688 L 40.851562 29.976562 "/>
<path style=" stroke:none;fill-rule:nonzero;fill:rgb(100%,100%,100%);fill-opacity:1;" d="M 34.59375 36.957031 L 34.972656 36.464844 L 35.46875 36.84375 L 35.417969 38.4375 L 37.066406 41.683594 L 37.832031 43.824219 L 38.050781 44.589844 L 38.101562 47.503906 L 37.335938 47.609375 L 36.183594 46.070312 L 35.417969 46.351562 L 34.867188 45.964844 L 34.808594 43.765625 L 34.480469 43.4375 L 34.371094 38.660156 "/>
<path style=" stroke:none;fill-rule:nonzero;fill:rgb(100%,100%,100%);fill-opacity:1;" d="M 20.910156 42.25 L 21.90625 40.355469 L 24.8125 36.84375 L 25.800781 36.511719 L 26.519531 36.570312 L 25.742188 38.933594 L 24.046875 42.449219 L 22.78125 43.707031 L 21.957031 43.929688 L 21.628906 43.65625 L 20.910156 42.25 "/>
<path style=" stroke:none;fill-rule:nonzero;fill:rgb(100%,100%,100%);fill-opacity:1;" d="M 6.027344 36.132812 L 8.398438 35.195312 L 12.84375 34.535156 L 15.265625 34.371094 L 15.75 33.878906 L 15.75 35.089844 L 13.722656 36.191406 L 9.214844 38.003906 L 6.53125 38.769531 L 5.320312 37.886719 L 5.375 36.40625 L 6.027344 36.132812 "/>
<path style=" stroke:none;fill-rule:nonzero;fill:rgb(100%,100%,100%);fill-opacity:1;" d="M 9.929688 21.675781 L 13.832031 21.078125 L 17.347656 22.238281 L 20.261719 23.660156 L 20.96875 24.214844 L 20.699219 24.59375 L 17.183594 24.648438 L 13.882812 24.097656 L 11.199219 23.109375 L 9.878906 22.179688 "/>
<path style=" stroke:none;fill-rule:nonzero;fill:rgb(100%,100%,100%);fill-opacity:1;" d="M 26.023438 24.214844 L 29.703125 24.707031 L 30.691406 25.25 L 32.011719 27.339844 L 32.667969 29.917969 L 32.453125 31.621094 L 30.082031 32.230469 L 26.789062 30.46875 L 25.421875 28.4375 L 24.542969 26.738281 L 25.035156 24.921875 M 23.769531 22.121094 L 22.238281 23.769531 L 22.015625 26.023438 L 22.34375 27.5625 L 24.320312 31.738281 L 24.871094 32.171875 L 25.203125 32.949219 L 27.449219 34.207031 L 30.140625 34.265625 L 34.316406 33.769531 L 35.523438 32.78125 L 35.691406 32.066406 L 36.019531 30.964844 L 35.738281 29.269531 L 35.195312 26.246094 L 32.726562 23.390625 L 30.140625 22.015625 L 26.246094 21.519531 L 23.769531 22.121094 "/>
</g>
</svg>
