<?xml version="1.0" encoding="UTF-8"?>
<svg xmlns="http://www.w3.org/2000/svg" xmlns:xlink="http://www.w3.org/1999/xlink" width="56pt" height="56pt" viewBox="0 0 56 56" version="1.1">
<g id="surface1">
<rect x="0" y="0" width="56" height="56" style="fill:rgb(95.66803%,95.779419%,96.777344%);fill-opacity:1;stroke:none;"/>
<path style=" stroke:none;fill-rule:nonzero;fill:rgb(12.413025%,23.376465%,40.896606%);fill-opacity:1;" d="M 31.261719 25.84375 C 31.382812 25.410156 31.464844 24.96875 31.507812 24.523438 C 32.25 21.464844 34.316406 19.648438 37.207031 18.738281 C 39.113281 18.203125 41.105469 18.035156 43.074219 18.242188 C 45.074219 18.40625 47.042969 18.824219 48.941406 19.480469 C 49.175781 19.527344 49.332031 19.757812 49.289062 19.992188 C 49.285156 20.015625 49.277344 20.039062 49.269531 20.058594 L 48.527344 25.015625 C 47.78125 24.851562 47.039062 24.605469 46.296875 24.4375 C 44.359375 23.90625 42.34375 23.738281 40.347656 23.941406 C 39.683594 24.007812 39.035156 24.207031 38.449219 24.523438 C 37.371094 25.167969 37.027344 26.566406 37.675781 27.640625 C 37.8125 27.867188 37.992188 28.070312 38.199219 28.238281 C 38.933594 28.765625 39.742188 29.179688 40.59375 29.476562 C 42.316406 30.003906 43.996094 30.636719 45.636719 31.378906 C 47.078125 32.011719 48.308594 33.042969 49.1875 34.351562 C 49.96875 35.554688 50.371094 36.964844 50.34375 38.402344 C 50.570312 42.621094 47.640625 46.363281 43.488281 47.15625 C 42.757812 47.347656 42.011719 47.460938 41.257812 47.488281 C 41.171875 47.488281 41.171875 47.488281 41.089844 47.570312 L 38.449219 47.570312 C 38.011719 47.476562 37.570312 47.417969 37.125 47.40625 C 35.140625 47.15625 33.210938 46.570312 31.425781 45.671875 C 31.261719 45.339844 31.175781 45.257812 31.261719 44.925781 C 31.507812 43.277344 31.757812 41.539062 32.003906 39.886719 C 32.167969 39.886719 32.335938 40.050781 32.5 40.136719 C 34.949219 41.394531 37.675781 42.019531 40.429688 41.953125 C 41.199219 41.949219 41.960938 41.777344 42.660156 41.457031 C 43.96875 40.90625 44.582031 39.402344 44.03125 38.09375 C 43.992188 38 43.949219 37.910156 43.902344 37.824219 C 43.539062 37.351562 43.09375 36.960938 42.578125 36.664062 C 41.402344 36.085938 40.1875 35.589844 38.945312 35.179688 C 37.382812 34.660156 35.886719 33.96875 34.480469 33.113281 C 33.648438 32.527344 32.921875 31.800781 32.335938 30.964844 C 32.035156 30.410156 31.789062 29.828125 31.589844 29.230469 C 31.320312 28.292969 31.207031 27.316406 31.261719 26.339844 C 31.34375 26.089844 31.34375 25.925781 31.261719 25.84375 "/>
<path style=" stroke:none;fill-rule:nonzero;fill:rgb(61.476135%,10.552979%,17.460632%);fill-opacity:1;" d="M 30.890625 8.320312 C 30.890625 8.402344 30.972656 8.402344 31.054688 8.402344 C 32.300781 8.761719 33.058594 10.023438 32.792969 11.292969 C 32.542969 13.027344 32.378906 14.679688 32.214844 16.414062 C 31.964844 18.316406 31.800781 20.132812 31.550781 22.035156 C 31.386719 23.601562 31.222656 25.253906 31.054688 26.824219 C 30.808594 28.558594 30.5625 30.378906 30.3125 32.113281 C 30.09375 34.015625 29.707031 35.894531 29.15625 37.730469 C 28.5 40.121094 27.34375 42.34375 25.769531 44.257812 C 23.757812 46.652344 20.707031 47.917969 17.589844 47.644531 C 14.585938 47.53125 11.679688 46.523438 9.246094 44.753906 C 6.929688 43.070312 5.359375 40.550781 4.867188 37.730469 C 4.714844 37.121094 4.773438 36.480469 5.03125 35.914062 C 5.605469 34.996094 6.730469 34.585938 7.757812 34.921875 C 8.359375 35.117188 8.800781 35.625 8.917969 36.242188 C 9.082031 36.738281 9.164062 37.234375 9.328125 37.730469 C 10.058594 39.933594 11.765625 41.671875 13.957031 42.441406 C 15.410156 43.066406 17.007812 43.292969 18.582031 43.101562 C 20.546875 42.890625 22.296875 41.753906 23.289062 40.042969 C 24.3125 38.40625 24.988281 36.582031 25.273438 34.671875 C 25.769531 31.617188 26.101562 28.558594 26.429688 25.503906 C 26.59375 23.601562 26.84375 21.703125 27.089844 19.71875 C 27.339844 17.574219 27.503906 15.339844 27.667969 13.195312 C 27.753906 12.367188 27.835938 11.457031 27.917969 10.632812 C 28.007812 9.53125 28.816406 8.621094 29.902344 8.402344 C 29.945312 8.402344 29.984375 8.363281 29.984375 8.320312 L 30.890625 8.320312 "/>
</g>
</svg>
