<?xml version="1.0" encoding="UTF-8"?>
<svg xmlns="http://www.w3.org/2000/svg" xmlns:xlink="http://www.w3.org/1999/xlink" width="56pt" height="56pt" viewBox="0 0 56 56" version="1.1">
<g id="surface1">
<rect x="0" y="0" width="56" height="56" style="fill:rgb(95.66803%,95.779419%,96.777344%);fill-opacity:1;stroke:none;"/>
<path style=" stroke:none;fill-rule:nonzero;fill:rgb(32.672119%,68.435669%,63.298035%);fill-opacity:1;" d="M 6.78125 29.125 L 7.8125 28.09375 L 8.070312 21.648438 L 13.738281 22.9375 L 17.089844 19.847656 L 21.214844 25.773438 L 6.78125 29.125 "/>
<path style=" stroke:none;fill-rule:nonzero;fill:rgb(32.672119%,68.435669%,63.298035%);fill-opacity:1;" d="M 21.726562 25.257812 L 24.304688 12.886719 L 27.398438 15.464844 L 28.429688 14.949219 L 35.386719 8.320312 L 36.417969 15.863281 L 37.449219 15.863281 L 42.605469 13.214844 L 37.707031 22.074219 L 21.726562 25.257812 "/>
<path style=" stroke:none;fill-rule:nonzero;fill:rgb(32.672119%,68.435669%,63.298035%);fill-opacity:1;" d="M 37.921875 22.679688 L 44.582031 19.074219 L 44.582031 22.9375 L 51.023438 22.164062 L 46.128906 27.835938 L 46.128906 28.609375 L 47.664062 29.640625 L 33.738281 37.886719 L 33.738281 41.753906 L 22.816406 40.207031 L 37.921875 22.679688 "/>
<path style=" stroke:none;fill-rule:nonzero;fill:rgb(15.553284%,24.337769%,42.732239%);fill-opacity:1;" d="M 4.976562 29.382812 L 29.976562 27.0625 L 18.378906 47.679688 L 18.894531 40.207031 L 9.101562 41.753906 L 11.933594 37.113281 L 4.976562 29.382812 "/>
</g>
</svg>
