<?xml version="1.0" encoding="UTF-8"?>
<svg xmlns="http://www.w3.org/2000/svg" xmlns:xlink="http://www.w3.org/1999/xlink" width="56pt" height="56pt" viewBox="0 0 56 56" version="1.1">
<g id="surface1">
<rect x="0" y="0" width="56" height="56" style="fill:rgb(83.131409%,12.281799%,16.090393%);fill-opacity:1;stroke:none;"/>
<path style=" stroke:none;fill-rule:nonzero;fill:rgb(100%,100%,100%);fill-opacity:1;" d="M 18.046875 39.082031 C 26.226562 33.777344 31.546875 26.714844 32.878906 16.984375 C 33.523438 16.859375 41.71875 16.839844 42.671875 16.972656 C 42.671875 17.257812 42.722656 17.570312 42.667969 17.859375 C 42.09375 20.882812 41.242188 23.8125 39.980469 26.628906 C 39.03125 28.742188 37.878906 30.726562 36.464844 32.546875 C 34.664062 34.855469 32.523438 36.785156 29.867188 38.101562 C 27.839844 39.109375 27.84375 39.121094 25.558594 39.121094 C 23.363281 39.121094 21.167969 39.121094 18.976562 39.117188 C 18.703125 39.117188 18.433594 39.097656 18.046875 39.082031 "/>
<path style=" stroke:none;fill-rule:nonzero;fill:rgb(100%,100%,100%);fill-opacity:1;" d="M 5.320312 39.066406 C 6.132812 38.460938 6.917969 37.902344 7.675781 37.308594 C 8.566406 36.605469 9.429688 35.867188 10.316406 35.164062 C 11.925781 33.882812 13.320312 32.371094 14.726562 30.886719 C 16.152344 29.378906 17.375 27.699219 18.367188 25.867188 C 19.117188 24.484375 19.761719 23.0625 20.023438 21.503906 C 20.15625 20.695312 20.207031 19.875 20.277344 19.054688 C 20.289062 18.898438 20.21875 18.734375 20.179688 18.542969 C 17.898438 18.027344 15.644531 17.515625 13.390625 17.003906 C 13.390625 16.980469 13.394531 16.953125 13.398438 16.929688 C 19.082031 16.929688 24.761719 16.929688 30.445312 16.929688 C 30.730469 17.542969 30.449219 18.105469 30.324219 18.621094 C 29.601562 21.585938 28.542969 24.421875 27.019531 27.085938 C 26.054688 28.773438 24.953125 30.359375 23.691406 31.8125 C 22.632812 33.03125 21.394531 34.097656 20.199219 35.191406 C 18.550781 36.695312 16.65625 37.847656 14.671875 38.84375 C 14.375 38.992188 14.027344 39.105469 13.703125 39.109375 C 11.023438 39.128906 8.347656 39.121094 5.667969 39.117188 C 5.5625 39.117188 5.457031 39.085938 5.320312 39.066406 "/>
<path style=" stroke:none;fill-rule:nonzero;fill:rgb(100%,100%,100%);fill-opacity:1;" d="M 39.902344 30.347656 C 42.578125 26.257812 44.386719 21.851562 44.941406 17.003906 C 45.636719 16.859375 49.574219 16.832031 50.679688 16.960938 C 49.570312 19.949219 48.097656 22.703125 46.105469 25.164062 C 44.390625 27.292969 42.351562 29.058594 39.902344 30.347656 "/>
</g>
</svg>
