<?xml version="1.0" encoding="UTF-8"?>
<svg xmlns="http://www.w3.org/2000/svg" xmlns:xlink="http://www.w3.org/1999/xlink" width="56pt" height="56pt" viewBox="0 0 56 56" version="1.1">
<g id="surface1">
<rect x="0" y="0" width="56" height="56" style="fill:rgb(58.273315%,8.950806%,55.221558%);fill-opacity:1;stroke:none;"/>
<path style=" stroke:none;fill-rule:nonzero;fill:rgb(100%,100%,100%);fill-opacity:1;" d="M 26.027344 27.433594 C 26.230469 26.636719 26.84375 26.019531 27.613281 25.84375 L 27.839844 23.289062 C 27.839844 23.289062 27.875 23.128906 28.0625 23.128906 C 28.246094 23.128906 28.289062 23.289062 28.289062 23.289062 L 28.519531 25.847656 C 29.316406 26.03125 29.941406 26.691406 30.117188 27.53125 L 35.242188 27.617188 C 35.03125 24.066406 31.898438 21.242188 28.058594 21.242188 C 24.199219 21.242188 21.050781 24.101562 20.875 27.6875 L 26.027344 27.433594 "/>
<path style=" stroke:none;fill-rule:nonzero;fill:rgb(100%,100%,100%);fill-opacity:1;" d="M 30 28.882812 C 29.679688 29.679688 28.933594 30.234375 28.058594 30.234375 C 27.148438 30.234375 26.371094 29.625 26.078125 28.769531 L 20.902344 28.675781 C 21.265625 32.089844 24.332031 34.757812 28.058594 34.757812 C 31.808594 34.757812 34.886719 32.0625 35.222656 28.625 L 30 28.882812 "/>
<path style=" stroke:none;fill-rule:nonzero;fill:rgb(100%,100%,100%);fill-opacity:1;" d="M 53.851562 21.605469 L 50.007812 21.605469 C 50.007812 21.605469 49.605469 21.535156 49.417969 22.21875 C 49.230469 22.898438 48.300781 26.628906 48.300781 26.628906 L 46.96875 22.152344 C 46.96875 22.152344 46.878906 21.605469 46.226562 21.605469 C 46.226562 21.605469 43.714844 21.605469 43.066406 21.605469 C 42.414062 21.605469 42.320312 22.160156 42.320312 22.160156 L 40.988281 26.628906 C 40.988281 26.628906 40.058594 22.890625 39.871094 22.207031 C 39.683594 21.527344 39.28125 21.605469 39.28125 21.605469 L 35.441406 21.605469 C 34.972656 21.605469 34.820312 22.441406 34.820312 22.441406 C 34.820312 22.441406 35.578125 24.988281 36.386719 27.679688 L 43.550781 27.816406 C 43.550781 27.816406 44.367188 27.855469 44.367188 28.042969 C 44.367188 28.226562 43.550781 28.269531 43.550781 28.269531 L 36.660156 28.613281 C 37.460938 31.285156 38.230469 33.921875 38.289062 34.128906 C 38.414062 34.558594 38.910156 34.640625 38.910156 34.640625 C 38.910156 34.640625 42.257812 34.640625 42.507812 34.640625 C 42.753906 34.640625 42.878906 34.113281 42.878906 34.113281 L 44.582031 29.28125 L 44.644531 28.773438 L 44.707031 29.261719 L 46.410156 34.117188 C 46.410156 34.117188 46.535156 34.640625 46.785156 34.640625 C 47.03125 34.640625 50.378906 34.640625 50.378906 34.640625 C 50.378906 34.640625 50.875 34.558594 51 34.128906 C 51.121094 33.695312 54.46875 22.472656 54.46875 22.472656 C 54.46875 22.472656 54.316406 21.605469 53.851562 21.605469 "/>
<path style=" stroke:none;fill-rule:nonzero;fill:rgb(100%,100%,100%);fill-opacity:1;" d="M 12.800781 28.597656 C 12.800781 28.597656 11.984375 28.5625 11.984375 28.375 C 11.984375 28.191406 12.800781 28.152344 12.800781 28.152344 L 19.582031 27.8125 C 20.402344 25.078125 21.179688 22.441406 21.179688 22.441406 C 21.179688 22.441406 21.027344 21.605469 20.5625 21.605469 L 16.71875 21.605469 C 16.71875 21.605469 16.316406 21.535156 16.128906 22.21875 C 15.941406 22.898438 15.011719 26.628906 15.011719 26.628906 L 13.679688 22.152344 C 13.679688 22.152344 13.585938 21.605469 12.933594 21.605469 C 12.933594 21.605469 10.425781 21.605469 9.773438 21.605469 C 9.125 21.605469 9.03125 22.160156 9.03125 22.160156 L 7.699219 26.628906 C 7.699219 26.628906 6.765625 22.890625 6.582031 22.207031 C 6.394531 21.527344 5.992188 21.605469 5.992188 21.605469 L 2.148438 21.605469 C 1.683594 21.605469 1.527344 22.441406 1.527344 22.441406 C 1.527344 22.441406 4.875 33.675781 5 34.109375 C 5.125 34.542969 5.621094 34.640625 5.621094 34.640625 C 5.621094 34.640625 8.96875 34.640625 9.214844 34.640625 C 9.464844 34.640625 9.585938 34.113281 9.585938 34.113281 L 11.292969 29.28125 L 11.355469 28.773438 L 11.417969 29.261719 L 13.121094 34.117188 C 13.121094 34.117188 13.246094 34.640625 13.492188 34.640625 C 13.742188 34.640625 17.089844 34.640625 17.089844 34.640625 C 17.089844 34.640625 17.585938 34.558594 17.710938 34.128906 C 17.765625 33.925781 18.519531 31.378906 19.308594 28.742188 L 12.800781 28.597656 "/>
</g>
</svg>
