<?xml version="1.0" encoding="UTF-8"?>
<svg xmlns="http://www.w3.org/2000/svg" xmlns:xlink="http://www.w3.org/1999/xlink" width="56pt" height="56pt" viewBox="0 0 56 56" version="1.1">
<g id="surface1">
<rect x="0" y="0" width="56" height="56" style="fill:rgb(95.66803%,95.779419%,96.777344%);fill-opacity:1;stroke:none;"/>
<path style=" stroke:none;fill-rule:nonzero;fill:rgb(92.349243%,11.322021%,16.131592%);fill-opacity:1;" d="M 8.105469 25.308594 C 7.570312 25.335938 7.105469 25.355469 6.644531 25.390625 C 6.355469 25.410156 6.070312 25.460938 5.78125 25.492188 C 3.726562 25.726562 2.925781 24.78125 2.839844 22.714844 C 2.820312 22.191406 2.984375 21.644531 3.152344 21.136719 C 3.433594 20.300781 4.039062 19.839844 4.941406 19.824219 C 5.269531 19.816406 5.59375 19.8125 5.917969 19.8125 C 9.136719 19.8125 12.359375 19.808594 15.578125 19.8125 C 15.941406 19.8125 16.304688 19.816406 16.660156 19.851562 C 17.425781 19.929688 17.945312 20.371094 18.152344 21.085938 C 18.320312 21.667969 18.417969 22.285156 18.4375 22.894531 C 18.472656 24.03125 17.992188 24.539062 16.84375 24.664062 C 15.980469 24.753906 15.117188 24.804688 14.25 24.875 C 13.933594 24.902344 13.617188 24.941406 13.21875 24.984375 C 13.558594 27.003906 14.027344 28.910156 14.820312 30.730469 C 15.617188 32.5625 16.605469 34.269531 17.960938 35.753906 C 19.957031 37.945312 22.347656 39.402344 25.359375 39.601562 C 27.160156 39.71875 28.875 39.3125 30.480469 38.464844 C 32.90625 37.179688 34.800781 35.3125 36.253906 33.023438 C 37.277344 31.417969 38.113281 29.691406 39.035156 28.019531 C 39.296875 27.546875 39.527344 27.046875 39.84375 26.617188 C 40.523438 25.691406 41.171875 25.578125 42.425781 26.082031 C 43.4375 26.492188 43.875 27.144531 43.65625 28.203125 C 43.425781 29.328125 43.128906 30.449219 42.738281 31.53125 C 41.578125 34.75 39.925781 37.695312 37.65625 40.273438 C 34.898438 43.40625 31.558594 45.566406 27.410156 46.335938 C 24.066406 46.957031 21.015625 46.050781 18.21875 44.28125 C 14.9375 42.210938 12.804688 39.152344 11.175781 35.691406 C 9.96875 33.128906 9.160156 30.445312 8.546875 27.691406 C 8.382812 26.953125 8.269531 26.207031 8.105469 25.308594 "/>
<path style=" stroke:none;fill-rule:nonzero;fill:rgb(92.349243%,11.322021%,16.131592%);fill-opacity:1;" d="M 45.121094 17.699219 C 42.917969 17.71875 41.011719 15.875 40.972656 13.679688 C 40.933594 11.4375 42.839844 9.472656 45.054688 9.46875 C 47.222656 9.464844 49.136719 11.375 49.160156 13.558594 C 49.183594 15.757812 47.3125 17.675781 45.121094 17.699219 "/>
</g>
</svg>
