<?xml version="1.0" encoding="UTF-8"?>
<svg xmlns="http://www.w3.org/2000/svg" xmlns:xlink="http://www.w3.org/1999/xlink" width="56pt" height="56pt" viewBox="0 0 56 56" version="1.1">
<g id="surface1">
<rect x="0" y="0" width="56" height="56" style="fill:rgb(22.067261%,47.615051%,77.841187%);fill-opacity:1;stroke:none;"/>
<path style=" stroke:none;fill-rule:nonzero;fill:rgb(100%,100%,100%);fill-opacity:1;" d="M 24.195312 34.753906 C 24.195312 34.320312 24.210938 33.925781 24.195312 33.539062 C 24.15625 32.664062 24.09375 31.792969 24.066406 30.921875 C 24.023438 29.667969 24.242188 28.449219 24.628906 27.261719 C 25.074219 25.882812 25.519531 24.507812 25.964844 23.132812 C 26.386719 21.832031 26.699219 20.511719 26.578125 19.132812 C 26.4375 17.574219 25.644531 16.921875 24.324219 16.792969 C 22.585938 16.621094 21.023438 17.171875 19.726562 18.308594 C 16.449219 21.179688 14.875 24.882812 14.644531 29.183594 C 14.578125 30.398438 14.574219 31.621094 14.765625 32.835938 C 14.945312 33.972656 15.175781 35.089844 15.761719 36.109375 C 16.609375 37.59375 18.117188 38.097656 19.648438 37.355469 C 20.269531 37.050781 20.875 36.71875 21.472656 36.375 C 22.367188 35.855469 23.25 35.320312 24.195312 34.753906 Z M 33.507812 32.113281 C 33.507812 31.15625 33.507812 30.238281 33.507812 29.300781 C 34.277344 28.785156 35.035156 28.265625 35.804688 27.765625 C 37.234375 26.835938 38.597656 25.816406 39.890625 24.703125 C 41.320312 23.464844 42.121094 21.902344 42.054688 19.980469 C 42.023438 19.023438 41.804688 18.125 41.015625 17.441406 C 40.300781 16.824219 39.480469 16.640625 38.585938 16.734375 C 36.441406 16.957031 34.902344 18.210938 33.621094 19.816406 C 32.191406 21.613281 31.46875 23.738281 30.941406 25.953125 C 30.421875 28.121094 30.273438 30.316406 30.429688 32.527344 C 30.542969 34.082031 30.949219 35.566406 32.011719 36.785156 C 32.6875 37.566406 33.527344 38.027344 34.558594 38.144531 C 35.855469 38.292969 37.066406 37.972656 38.234375 37.472656 C 40.132812 36.664062 41.832031 35.527344 43.476562 34.296875 C 43.953125 33.945312 44.4375 33.601562 44.972656 33.21875 C 45.441406 33.894531 45.867188 34.511719 46.300781 35.140625 C 46.191406 35.289062 46.113281 35.4375 46 35.542969 C 44.628906 36.804688 43.207031 38.011719 41.664062 39.066406 C 40.316406 39.988281 38.902344 40.8125 37.359375 41.382812 C 36.410156 41.734375 35.414062 41.871094 34.40625 41.992188 C 32.820312 42.183594 31.277344 41.988281 29.777344 41.542969 C 28.015625 41.023438 26.617188 39.980469 25.71875 38.335938 C 25.554688 38.035156 25.417969 37.707031 24.996094 37.550781 C 24.246094 38.105469 23.476562 38.683594 22.699219 39.253906 C 21.507812 40.125 20.257812 40.902344 18.875 41.429688 C 18.058594 41.738281 17.203125 41.910156 16.324219 41.980469 C 15.449219 42.046875 14.589844 42.015625 13.734375 41.824219 C 12.269531 41.492188 11.15625 40.648438 10.242188 39.5 C 9.617188 38.707031 9.25 37.792969 9 36.832031 C 8.578125 35.203125 8.289062 33.554688 8.320312 31.863281 C 8.375 29.289062 8.882812 26.804688 9.832031 24.410156 C 10.523438 22.664062 11.449219 21.054688 12.597656 19.574219 C 14.402344 17.242188 16.636719 15.488281 19.460938 14.558594 C 20.824219 14.109375 22.230469 13.867188 23.664062 13.949219 C 25.238281 14.035156 26.785156 14.292969 28.070312 15.3125 C 28.609375 15.738281 29.078125 16.253906 29.578125 16.734375 C 29.890625 17.035156 30.199219 17.339844 30.53125 17.664062 C 31.027344 17.335938 31.492188 17.046875 31.941406 16.730469 C 33.871094 15.367188 36.011719 14.492188 38.328125 14.097656 C 40.234375 13.773438 42.132812 13.949219 43.976562 14.535156 C 45.203125 14.921875 46.214844 15.636719 46.867188 16.761719 C 47.160156 17.269531 47.390625 17.84375 47.515625 18.417969 C 48.070312 20.96875 47.207031 23.023438 45.242188 24.667969 C 44.199219 25.542969 43.03125 26.234375 41.886719 26.960938 C 40.40625 27.894531 38.929688 28.832031 37.449219 29.757812 C 36.316406 30.464844 35.175781 31.160156 34.039062 31.855469 C 33.882812 31.949219 33.710938 32.015625 33.507812 32.113281 "/>
</g>
</svg>
