<?xml version="1.0" encoding="UTF-8"?>
<svg xmlns="http://www.w3.org/2000/svg" xmlns:xlink="http://www.w3.org/1999/xlink" width="45.36pt" height="45.36pt" viewBox="0 0 45.36 45.36" version="1.1">
<defs>
<clipPath id="clip1">
  <path d="M 0 0 L 45.359375 0 L 45.359375 45.359375 L 0 45.359375 Z M 0 0 "/>
</clipPath>
</defs>
<g id="surface1">
<g clip-path="url(#clip1)" clip-rule="nonzero">
<path style=" stroke:none;fill-rule:nonzero;fill:rgb(58.355713%,9.182739%,55.653381%);fill-opacity:1;" d="M 45.359375 22.679688 C 45.359375 35.203125 35.207031 45.359375 22.679688 45.359375 C 10.15625 45.359375 0 35.203125 0 22.679688 C 0 10.15625 10.15625 0 22.679688 0 C 35.207031 0 45.359375 10.15625 45.359375 22.679688 "/>
</g>
<path style=" stroke:none;fill-rule:nonzero;fill:rgb(100%,100%,100%);fill-opacity:1;" d="M 36.902344 30.554688 L 37.269531 30.554688 L 37.269531 31.628906 C 37.566406 30.953125 38.199219 30.464844 38.953125 30.492188 L 38.953125 30.894531 L 38.914062 30.894531 C 38.035156 30.894531 37.269531 31.558594 37.269531 32.796875 L 37.269531 34.355469 L 36.902344 34.355469 Z M 35.277344 29.558594 L 35.730469 29.558594 L 35.730469 29.058594 L 35.277344 29.058594 Z M 35.320312 34.355469 L 35.6875 34.355469 L 35.6875 30.554688 L 35.320312 30.554688 Z M 30.882812 33.253906 L 30.882812 33.234375 C 30.882812 32.445312 31.558594 31.996094 32.546875 31.996094 C 33.074219 31.996094 33.441406 32.066406 33.804688 32.160156 L 33.804688 31.996094 C 33.804688 31.234375 33.335938 30.835938 32.550781 30.835938 C 32.089844 30.835938 31.710938 30.960938 31.359375 31.140625 L 31.222656 30.820312 C 31.640625 30.628906 32.050781 30.492188 32.574219 30.492188 C 33.089844 30.492188 33.5 30.632812 33.773438 30.910156 C 34.027344 31.164062 34.164062 31.511719 34.164062 31.984375 L 34.164062 34.355469 L 33.804688 34.355469 L 33.804688 33.722656 C 33.542969 34.085938 33.074219 34.445312 32.347656 34.445312 C 31.640625 34.445312 30.882812 34.042969 30.882812 33.253906 M 33.8125 32.933594 L 33.8125 32.496094 C 33.492188 32.417969 33.066406 32.328125 32.523438 32.328125 C 31.71875 32.328125 31.269531 32.683594 31.269531 33.214844 L 31.269531 33.230469 C 31.269531 33.777344 31.789062 34.097656 32.371094 34.097656 C 33.148438 34.097656 33.8125 33.625 33.8125 32.933594 "/>
<path style=" stroke:none;fill-rule:nonzero;fill:rgb(100%,100%,100%);fill-opacity:1;" d="M 10.53125 23.398438 C 10.53125 23.398438 10.277344 23.378906 10.214844 23.363281 C 10.152344 23.351562 10.003906 23.300781 10 23.238281 L 10 23.234375 C 10.003906 23.167969 10.152344 23.121094 10.214844 23.109375 C 10.277344 23.09375 10.53125 23.070312 10.53125 23.070312 L 15.949219 22.832031 L 17.15625 18.863281 C 17.15625 18.855469 17.160156 18.847656 17.164062 18.839844 C 17.175781 18.792969 17.183594 18.742188 17.183594 18.6875 C 17.183594 18.378906 16.933594 18.128906 16.628906 18.128906 L 13.925781 18.128906 C 13.675781 18.128906 13.464844 18.296875 13.394531 18.523438 C 13.390625 18.539062 13.386719 18.558594 13.382812 18.574219 L 12.445312 22.15625 L 11.367188 18.554688 L 11.332031 18.433594 C 11.246094 18.238281 11.050781 18.097656 10.824219 18.097656 L 8.359375 18.097656 C 8.113281 18.097656 7.902344 18.257812 7.832031 18.488281 L 6.75 22.117188 L 5.851562 18.574219 C 5.847656 18.558594 5.839844 18.539062 5.835938 18.523438 C 5.765625 18.296875 5.554688 18.128906 5.304688 18.128906 L 2.550781 18.128906 C 2.242188 18.128906 1.992188 18.378906 1.992188 18.6875 C 1.992188 18.746094 2 18.800781 2.019531 18.847656 L 4.667969 27.695312 L 4.679688 27.730469 C 4.753906 27.945312 4.964844 28.105469 5.207031 28.105469 L 7.816406 28.105469 C 8.066406 28.105469 8.273438 27.941406 8.34375 27.714844 L 9.582031 23.863281 L 10.773438 27.6875 C 10.773438 27.695312 10.777344 27.699219 10.777344 27.707031 L 10.792969 27.742188 C 10.792969 27.746094 10.796875 27.753906 10.800781 27.761719 C 10.882812 27.960938 11.082031 28.105469 11.3125 28.105469 L 13.941406 28.105469 C 14.171875 28.105469 14.378906 27.957031 14.457031 27.746094 L 14.480469 27.671875 C 14.480469 27.667969 14.480469 27.664062 14.484375 27.660156 L 15.71875 23.597656 L 10.53125 23.398438 "/>
<path style=" stroke:none;fill-rule:nonzero;fill:rgb(100%,100%,100%);fill-opacity:1;" d="M 21.011719 22.605469 C 21.160156 21.992188 21.597656 21.507812 22.15625 21.351562 C 22.179688 21.082031 22.328125 19.453125 22.367188 19.347656 C 22.414062 19.234375 22.519531 19.230469 22.535156 19.230469 C 22.550781 19.230469 22.550781 19.230469 22.550781 19.230469 C 22.550781 19.230469 22.550781 19.230469 22.566406 19.230469 C 22.582031 19.230469 22.6875 19.234375 22.730469 19.347656 C 22.773438 19.453125 22.917969 21.082031 22.945312 21.351562 C 23.5 21.507812 23.941406 21.992188 24.089844 22.605469 L 28.117188 22.785156 C 28.113281 22.753906 28.113281 22.734375 28.113281 22.734375 C 27.953125 20.082031 25.699219 17.894531 22.574219 17.894531 C 19.429688 17.894531 17.15625 20.121094 17.003906 22.785156 L 21.011719 22.605469 "/>
<path style=" stroke:none;fill-rule:nonzero;fill:rgb(100%,100%,100%);fill-opacity:1;" d="M 24 23.804688 C 23.75 24.414062 23.195312 24.839844 22.550781 24.839844 C 21.90625 24.839844 21.351562 24.414062 21.097656 23.804688 L 17.019531 23.648438 C 17.289062 26.203125 19.503906 28.265625 22.539062 28.265625 C 25.582031 28.265625 27.796875 26.1875 28.089844 23.648438 L 24 23.804688 "/>
<path style=" stroke:none;fill-rule:nonzero;fill:rgb(100%,100%,100%);fill-opacity:1;" d="M 42.585938 18.128906 L 39.882812 18.128906 C 39.636719 18.128906 39.421875 18.296875 39.351562 18.519531 C 39.347656 18.539062 39.34375 18.558594 39.339844 18.574219 L 38.402344 22.15625 L 37.328125 18.558594 L 37.285156 18.433594 C 37.203125 18.234375 37.007812 18.097656 36.777344 18.097656 L 34.320312 18.097656 C 34.070312 18.097656 33.859375 18.257812 33.789062 18.488281 L 32.710938 22.125 L 31.808594 18.574219 C 31.804688 18.558594 31.796875 18.539062 31.792969 18.519531 C 31.722656 18.296875 31.511719 18.128906 31.261719 18.128906 L 28.507812 18.128906 C 28.199219 18.128906 27.953125 18.378906 27.953125 18.6875 C 27.953125 18.746094 27.960938 18.800781 27.976562 18.855469 L 29.171875 22.832031 L 34.570312 23.070312 C 34.570312 23.070312 34.824219 23.09375 34.890625 23.109375 C 34.953125 23.121094 35.097656 23.167969 35.101562 23.234375 C 35.101562 23.238281 35.101562 23.238281 35.101562 23.238281 C 35.097656 23.300781 34.953125 23.351562 34.890625 23.363281 C 34.824219 23.378906 34.570312 23.398438 34.570312 23.398438 L 29.402344 23.597656 L 30.628906 27.691406 L 30.640625 27.726562 C 30.714844 27.945312 30.917969 28.105469 31.164062 28.105469 L 33.773438 28.105469 C 34.023438 28.105469 34.230469 27.941406 34.300781 27.714844 L 35.539062 23.863281 L 36.730469 27.6875 C 36.734375 27.695312 36.734375 27.699219 36.738281 27.707031 L 36.75 27.742188 C 36.75 27.75 36.753906 27.753906 36.757812 27.761719 C 36.84375 27.960938 37.039062 28.105469 37.269531 28.105469 L 39.898438 28.105469 C 40.132812 28.105469 40.335938 27.957031 40.414062 27.746094 L 40.441406 27.671875 C 40.441406 27.667969 40.441406 27.664062 40.441406 27.660156 L 43.113281 18.863281 C 43.117188 18.855469 43.117188 18.847656 43.117188 18.839844 C 43.132812 18.792969 43.140625 18.742188 43.140625 18.6875 C 43.140625 18.378906 42.894531 18.128906 42.585938 18.128906 "/>
</g>
</svg>
