<?xml version="1.0" encoding="UTF-8"?>
<svg xmlns="http://www.w3.org/2000/svg" xmlns:xlink="http://www.w3.org/1999/xlink" width="59pt" height="58.99pt" viewBox="0 0 59 58.99" version="1.1">
<defs>
<clipPath id="clip1">
  <path d="M 0 0 L 59 0 L 59 58.988281 L 0 58.988281 Z M 0 0 "/>
</clipPath>
</defs>
<g id="surface1">
<g clip-path="url(#clip1)" clip-rule="nonzero">
<path style=" stroke:none;fill-rule:nonzero;fill:rgb(24.887085%,50.064087%,79.301453%);fill-opacity:1;" d="M 16.804688 2.859375 C 23.777344 -0.503906 32.082031 -0.90625 39.367188 1.675781 C 32.753906 13.039062 26.105469 24.390625 19.496094 35.757812 C 19.230469 36.207031 19.007812 36.683594 18.667969 37.082031 C 17.355469 29.8125 16.046875 22.535156 14.738281 15.261719 C 11.53125 15.257812 8.324219 15.261719 5.121094 15.261719 C 6.796875 24.648438 8.503906 34.027344 10.195312 43.414062 C 13.394531 43.417969 16.59375 43.414062 19.789062 43.40625 C 27.589844 30.089844 35.339844 16.75 43.140625 3.4375 L 43.203125 3.335938 C 45.527344 4.601562 47.71875 6.128906 49.652344 7.945312 C 53.042969 11.117188 55.679688 15.097656 57.253906 19.46875 C 59.621094 25.984375 59.578125 33.335938 57.140625 39.824219 C 55.34375 44.636719 52.261719 48.957031 48.304688 52.222656 C 44.863281 55.078125 40.757812 57.132812 36.410156 58.179688 C 32.359375 59.148438 28.109375 59.246094 24.015625 58.484375 C 22.476562 58.222656 20.992188 57.730469 19.5 57.285156 L 19.574219 57.148438 C 26.46875 45.304688 33.390625 33.476562 40.304688 21.644531 C 40.914062 25.003906 41.519531 28.367188 42.109375 31.726562 C 40.058594 31.738281 38.003906 31.714844 35.953125 31.742188 C 34.980469 33.414062 34.011719 35.082031 33.035156 36.75 C 36.363281 36.75 39.691406 36.75 43.023438 36.753906 C 43.421875 38.972656 43.832031 41.191406 44.234375 43.414062 C 47.433594 43.417969 50.632812 43.410156 53.832031 43.414062 C 52.152344 34.027344 50.46875 24.644531 48.769531 15.261719 C 45.582031 15.261719 42.398438 15.253906 39.214844 15.261719 C 37.128906 18.945312 34.957031 22.578125 32.835938 26.242188 C 27.152344 35.96875 21.492188 45.714844 15.792969 55.433594 C 15.761719 55.46875 15.703125 55.546875 15.671875 55.585938 C 12.089844 53.601562 8.835938 50.972656 6.320312 47.730469 C 3.0625 43.613281 0.9375 38.605469 0.257812 33.398438 C -0.464844 27.960938 0.34375 22.316406 2.621094 17.320312 C 5.457031 11.03125 10.574219 5.8125 16.804688 2.859375 "/>
</g>
<path style=" stroke:none;fill-rule:nonzero;fill:rgb(100%,100%,100%);fill-opacity:1;" d="M 39.367188 1.675781 C 40.691406 2.125 41.960938 2.703125 43.199219 3.339844 L 43.140625 3.4375 C 35.339844 16.75 27.589844 30.089844 19.789062 43.40625 C 16.59375 43.414062 13.394531 43.417969 10.195312 43.414062 C 8.503906 34.027344 6.796875 24.648438 5.121094 15.261719 C 8.324219 15.261719 11.53125 15.257812 14.738281 15.261719 C 16.046875 22.535156 17.355469 29.8125 18.667969 37.082031 C 19.007812 36.683594 19.230469 36.207031 19.496094 35.757812 C 26.105469 24.390625 32.753906 13.039062 39.367188 1.675781 "/>
<path style=" stroke:none;fill-rule:nonzero;fill:rgb(100%,100%,100%);fill-opacity:1;" d="M 39.214844 15.261719 C 42.398438 15.253906 45.582031 15.261719 48.769531 15.261719 C 50.46875 24.644531 52.152344 34.027344 53.832031 43.414062 C 50.632812 43.410156 47.433594 43.417969 44.234375 43.414062 C 43.832031 41.191406 43.421875 38.972656 43.023438 36.753906 C 39.691406 36.75 36.363281 36.75 33.035156 36.75 C 34.011719 35.082031 34.980469 33.414062 35.953125 31.742188 C 38.003906 31.714844 40.058594 31.738281 42.109375 31.726562 C 41.519531 28.367188 40.914062 25.003906 40.304688 21.644531 C 33.390625 33.476562 26.46875 45.304688 19.574219 57.148438 L 19.503906 57.269531 C 18.195312 56.804688 16.925781 56.230469 15.695312 55.59375 L 15.792969 55.433594 C 21.492188 45.714844 27.152344 35.96875 32.835938 26.242188 C 34.957031 22.578125 37.128906 18.945312 39.214844 15.261719 "/>
</g>
</svg>
