<?xml version="1.0" encoding="UTF-8"?>
<svg xmlns="http://www.w3.org/2000/svg" xmlns:xlink="http://www.w3.org/1999/xlink" width="56pt" height="56pt" viewBox="0 0 56 56" version="1.1">
<g id="surface1">
<rect x="0" y="0" width="56" height="56" style="fill:rgb(67.91687%,12.895203%,15.487671%);fill-opacity:1;stroke:none;"/>
<path style=" stroke:none;fill-rule:nonzero;fill:rgb(100%,100%,100%);fill-opacity:1;" d="M 2.277344 34.097656 C 2.480469 33.234375 2.78125 32.402344 3.132812 31.589844 C 3.769531 30.109375 4.597656 28.738281 5.617188 27.488281 C 6.914062 25.902344 8.433594 24.5625 10.167969 23.472656 C 12.367188 22.085938 14.75 21.164062 17.300781 20.6875 C 18.027344 20.550781 18.761719 20.46875 19.492188 20.402344 C 20.132812 20.34375 20.777344 20.308594 21.417969 20.320312 C 24.914062 20.378906 28.195312 21.234375 31.238281 22.96875 C 32.503906 23.6875 33.667969 24.542969 34.757812 25.511719 C 35.640625 26.300781 36.40625 27.195312 37.199219 28.074219 C 38.667969 29.707031 40.449219 30.839844 42.640625 31.21875 C 44.503906 31.539062 46.195312 31.121094 47.632812 29.84375 C 48 29.519531 48.34375 29.160156 48.703125 28.820312 C 48.859375 28.671875 49.019531 28.519531 49.191406 28.390625 C 49.71875 27.996094 50.304688 27.855469 50.960938 27.941406 C 51.917969 28.074219 52.796875 28.4375 53.65625 28.863281 C 53.675781 28.875 53.695312 28.894531 53.714844 28.910156 C 53.71875 28.914062 53.71875 28.925781 53.722656 28.945312 C 53.585938 28.960938 53.449219 28.972656 53.308594 28.988281 C 52.769531 29.042969 52.222656 29.089844 51.683594 29.167969 C 50.992188 29.269531 50.304688 29.332031 49.605469 29.328125 C 49.554688 29.328125 49.503906 29.332031 49.429688 29.335938 C 49.371094 29.40625 49.300781 29.480469 49.234375 29.558594 C 48.019531 30.960938 46.519531 31.886719 44.695312 32.28125 C 43.855469 32.464844 43.003906 32.503906 42.15625 32.425781 C 40.378906 32.257812 38.773438 31.621094 37.34375 30.546875 C 36.675781 30.042969 36.105469 29.441406 35.570312 28.796875 C 35.125 28.265625 34.640625 27.761719 34.148438 27.273438 C 33.402344 26.53125 32.601562 25.851562 31.757812 25.226562 C 29.453125 23.527344 26.910156 22.359375 24.089844 21.828125 C 23.199219 21.660156 22.304688 21.546875 21.398438 21.542969 C 20.792969 21.542969 20.183594 21.527344 19.578125 21.566406 C 18.613281 21.625 17.660156 21.765625 16.71875 21.980469 C 13.59375 22.695312 10.792969 24.074219 8.300781 26.082031 C 6.402344 27.609375 4.8125 29.410156 3.585938 31.523438 C 3.089844 32.378906 2.675781 33.277344 2.332031 34.207031 C 2.3125 34.167969 2.292969 34.132812 2.277344 34.097656 "/>
<path style=" stroke:none;fill-rule:nonzero;fill:rgb(100%,100%,100%);fill-opacity:1;" d="M 33.367188 28.949219 C 33.0625 28.667969 32.761719 28.378906 32.445312 28.109375 C 31.222656 27.078125 29.921875 26.15625 28.523438 25.378906 C 26.78125 24.414062 24.945312 23.703125 22.992188 23.292969 C 22.160156 23.121094 21.320312 22.984375 20.46875 22.953125 C 19.941406 22.929688 19.410156 22.90625 18.882812 22.910156 C 17.207031 22.917969 15.570312 23.183594 13.960938 23.65625 C 13.753906 23.71875 13.546875 23.78125 13.339844 23.84375 C 13.304688 23.828125 13.273438 23.808594 13.238281 23.792969 C 14.21875 23.324219 15.246094 22.976562 16.296875 22.710938 C 17.15625 22.492188 18.027344 22.351562 18.910156 22.269531 C 19.824219 22.183594 20.734375 22.179688 21.644531 22.242188 C 22.945312 22.328125 24.226562 22.5625 25.480469 22.925781 C 27.964844 23.648438 30.234375 24.804688 32.296875 26.367188 C 33.273438 27.109375 34.171875 27.9375 34.972656 28.871094 C 35.011719 28.914062 35.042969 28.964844 35.085938 29.027344 C 34.3125 29.5 33.550781 29.96875 32.738281 30.339844 C 32.605469 30.398438 32.457031 30.425781 32.316406 30.464844 C 32.0625 30.535156 31.808594 30.507812 31.574219 30.417969 C 31.167969 30.265625 30.765625 30.097656 30.371094 29.917969 C 28.492188 29.050781 26.5625 28.335938 24.554688 27.828125 C 23.402344 27.535156 22.230469 27.320312 21.050781 27.191406 C 20.003906 27.074219 18.953125 27.03125 17.902344 27.085938 C 15.117188 27.222656 12.492188 27.917969 10.078125 29.335938 C 10.054688 29.347656 10.027344 29.355469 10.003906 29.367188 C 9.96875 29.347656 9.929688 29.328125 9.894531 29.304688 C 10.527344 28.820312 11.222656 28.425781 11.941406 28.078125 C 13.285156 27.425781 14.699219 27.011719 16.167969 26.75 C 17.75 26.472656 19.347656 26.425781 20.941406 26.515625 C 23.261719 26.644531 25.53125 27.09375 27.75 27.78125 C 28.984375 28.160156 30.195312 28.609375 31.367188 29.15625 C 31.421875 29.179688 31.480469 29.195312 31.539062 29.214844 C 31.628906 29.261719 31.71875 29.308594 31.804688 29.355469 C 31.8125 29.339844 31.820312 29.324219 31.828125 29.308594 C 31.746094 29.261719 31.667969 29.214844 31.585938 29.167969 C 31.351562 29.015625 31.125 28.859375 30.886719 28.714844 C 28.96875 27.550781 26.953125 26.59375 24.8125 25.90625 C 23.527344 25.492188 22.21875 25.195312 20.886719 25.003906 C 19.585938 24.820312 18.277344 24.777344 16.964844 24.847656 C 15.339844 24.941406 13.75 25.230469 12.207031 25.757812 C 12.171875 25.769531 12.136719 25.773438 12.101562 25.78125 C 12.0625 25.757812 12.023438 25.738281 11.980469 25.714844 C 12.707031 25.351562 13.464844 25.082031 14.234375 24.847656 C 15.234375 24.539062 16.253906 24.335938 17.289062 24.222656 C 18.09375 24.132812 18.902344 24.082031 19.710938 24.113281 C 21.636719 24.183594 23.519531 24.507812 25.363281 25.074219 C 28.140625 25.933594 30.695312 27.234375 33.089844 28.871094 C 33.160156 28.917969 33.238281 28.960938 33.3125 29.003906 C 33.402344 29.074219 33.488281 29.140625 33.582031 29.207031 C 33.589844 29.191406 33.601562 29.175781 33.613281 29.164062 C 33.53125 29.089844 33.449219 29.019531 33.367188 28.949219 "/>
<path style=" stroke:none;fill-rule:nonzero;fill:rgb(100%,100%,100%);fill-opacity:1;" d="M 14.695312 32.226562 C 15.367188 31.71875 16.097656 31.304688 16.867188 30.957031 C 17.65625 30.597656 18.46875 30.328125 19.308594 30.132812 C 19.925781 29.992188 20.546875 29.886719 21.179688 29.828125 C 21.882812 29.761719 22.582031 29.707031 23.285156 29.738281 C 24.003906 29.773438 24.722656 29.804688 25.433594 29.921875 C 25.769531 29.976562 26.101562 30.03125 26.4375 30.082031 C 26.519531 30.09375 26.605469 30.082031 26.699219 30.039062 C 26.394531 29.945312 26.09375 29.839844 25.789062 29.753906 C 24.832031 29.488281 23.863281 29.292969 22.882812 29.160156 C 21.960938 29.039062 21.03125 29.027344 20.101562 29.050781 C 18.328125 29.097656 16.628906 29.480469 15 30.183594 C 14.664062 30.328125 14.34375 30.503906 14.019531 30.664062 C 13.933594 30.664062 13.941406 30.617188 13.964844 30.5625 C 14.929688 29.878906 15.980469 29.371094 17.101562 29.007812 C 17.910156 28.742188 18.742188 28.574219 19.589844 28.46875 C 20.4375 28.363281 21.285156 28.34375 22.136719 28.386719 C 23.113281 28.433594 24.085938 28.574219 25.042969 28.785156 C 26.320312 29.066406 27.558594 29.457031 28.765625 29.949219 C 29.523438 30.257812 30.257812 30.609375 31.007812 31.007812 C 30.945312 31.042969 30.90625 31.074219 30.867188 31.085938 C 30.136719 31.339844 29.382812 31.496094 28.613281 31.609375 C 28.152344 31.675781 27.6875 31.734375 27.214844 31.699219 C 26.828125 31.671875 26.441406 31.625 26.050781 31.613281 C 25.519531 31.597656 24.988281 31.601562 24.460938 31.601562 C 24.390625 31.601562 24.320312 31.605469 24.253906 31.605469 C 23.226562 31.601562 22.210938 31.703125 21.195312 31.851562 C 20.085938 32.011719 19 32.28125 17.941406 32.652344 C 16.488281 33.15625 15.144531 33.878906 13.941406 34.839844 C 13.679688 35.050781 13.433594 35.285156 13.183594 35.511719 C 13.085938 35.566406 12.988281 35.621094 12.886719 35.679688 C 12.882812 35.652344 12.875 35.632812 12.871094 35.617188 C 13.65625 34.722656 14.558594 33.96875 15.578125 33.355469 C 17.027344 32.484375 18.59375 31.90625 20.230469 31.511719 C 21.160156 31.289062 22.097656 31.132812 23.046875 31.023438 C 24.128906 30.902344 25.210938 30.859375 26.292969 30.875 C 26.390625 30.875 26.484375 30.875 26.582031 30.863281 C 26.144531 30.675781 25.675781 30.628906 25.214844 30.570312 C 24.546875 30.484375 23.871094 30.40625 23.199219 30.371094 C 22.621094 30.34375 22.035156 30.371094 21.457031 30.398438 C 21.023438 30.417969 20.59375 30.460938 20.160156 30.511719 C 19.382812 30.597656 18.621094 30.773438 17.871094 30.988281 C 17.085938 31.214844 16.324219 31.511719 15.59375 31.871094 C 15.304688 32.015625 15.027344 32.179688 14.746094 32.332031 C 14.660156 32.332031 14.675781 32.28125 14.695312 32.226562 "/>
<path style=" stroke:none;fill-rule:nonzero;fill:rgb(100%,100%,100%);fill-opacity:1;" d="M 49.910156 27.316406 C 49.742188 27.238281 49.578125 27.152344 49.40625 27.082031 C 47.605469 26.324219 45.933594 26.550781 44.390625 27.746094 C 44.300781 27.816406 44.199219 27.878906 44.132812 27.964844 C 43.921875 28.230469 43.640625 28.347656 43.316406 28.421875 C 42.78125 28.542969 42.277344 28.757812 41.78125 28.992188 C 41.3125 29.21875 40.851562 29.460938 40.359375 29.707031 C 39.59375 29.300781 38.878906 28.792969 38.222656 28.148438 C 38.332031 28.082031 38.414062 28.023438 38.503906 27.980469 C 39.578125 27.453125 40.6875 27.042969 41.886719 26.910156 C 42.136719 26.882812 42.386719 26.835938 42.636719 26.828125 C 42.84375 26.824219 43.023438 26.746094 43.207031 26.664062 C 44.046875 26.285156 44.921875 26.003906 45.84375 25.890625 C 46.800781 25.769531 47.730469 25.871094 48.609375 26.285156 C 49.070312 26.5 49.480469 26.792969 49.839844 27.148438 C 49.878906 27.1875 49.90625 27.238281 49.9375 27.285156 C 49.925781 27.292969 49.917969 27.304688 49.910156 27.316406 "/>
<path style=" stroke:none;fill-rule:nonzero;fill:rgb(100%,100%,100%);fill-opacity:1;" d="M 37.3125 31.40625 C 36.28125 31.945312 35.238281 32.386719 34.128906 32.660156 C 33.265625 32.875 32.390625 32.988281 31.503906 32.957031 C 30.363281 32.914062 29.269531 32.671875 28.207031 32.269531 C 28.183594 32.261719 28.167969 32.242188 28.113281 32.199219 C 30.808594 32.039062 33.230469 31.152344 35.453125 29.765625 C 35.769531 30.0625 36.058594 30.347656 36.363281 30.617188 C 36.664062 30.886719 36.984375 31.136719 37.3125 31.40625 "/>
<path style=" stroke:none;fill-rule:nonzero;fill:rgb(100%,100%,100%);fill-opacity:1;" d="M 47.445312 27.441406 C 47.234375 27.4375 47.066406 27.597656 47.058594 27.8125 C 47.050781 28.027344 47.207031 28.195312 47.421875 28.210938 C 47.640625 28.222656 47.8125 28.054688 47.8125 27.824219 C 47.816406 27.605469 47.664062 27.449219 47.445312 27.441406 Z M 48.339844 27.828125 C 48.339844 28.328125 47.929688 28.738281 47.425781 28.734375 C 46.945312 28.730469 46.53125 28.320312 46.519531 27.839844 C 46.511719 27.351562 46.9375 26.917969 47.429688 26.917969 C 47.925781 26.914062 48.339844 27.328125 48.339844 27.828125 "/>
<path style=" stroke:none;fill-rule:nonzero;fill:rgb(100%,100%,100%);fill-opacity:1;" d="M 33.367188 28.949219 C 33.449219 29.019531 33.53125 29.089844 33.613281 29.164062 C 33.601562 29.175781 33.589844 29.191406 33.582031 29.207031 C 33.488281 29.140625 33.402344 29.074219 33.3125 29.003906 C 33.332031 28.984375 33.351562 28.964844 33.367188 28.949219 "/>
<path style=" stroke:none;fill-rule:nonzero;fill:rgb(100%,100%,100%);fill-opacity:1;" d="M 31.585938 29.167969 C 31.667969 29.214844 31.746094 29.261719 31.828125 29.308594 C 31.820312 29.324219 31.8125 29.339844 31.804688 29.355469 C 31.71875 29.308594 31.628906 29.261719 31.539062 29.214844 C 31.554688 29.199219 31.570312 29.183594 31.585938 29.167969 "/>
</g>
</svg>
