<?xml version="1.0" encoding="UTF-8"?>
<svg xmlns="http://www.w3.org/2000/svg" xmlns:xlink="http://www.w3.org/1999/xlink" width="56pt" height="56pt" viewBox="0 0 56 56" version="1.1">
<g id="surface1">
<rect x="0" y="0" width="56" height="56" style="fill:rgb(95.666504%,95.776367%,96.775818%);fill-opacity:1;stroke:none;"/>
<path style=" stroke:none;fill-rule:nonzero;fill:rgb(91.345215%,14.634705%,19.406128%);fill-opacity:1;" d="M 50.679688 28 C 50.679688 40.421875 40.609375 50.492188 28.1875 50.492188 C 15.765625 50.492188 5.695312 40.421875 5.695312 28 C 5.695312 15.578125 15.765625 5.507812 28.1875 5.507812 C 40.609375 5.507812 50.679688 15.578125 50.679688 28 "/>
<path style=" stroke:none;fill-rule:nonzero;fill:rgb(99.212646%,97.660828%,97.531128%);fill-opacity:1;" d="M 14.484375 7.664062 C 16.394531 8.863281 18.34375 10.003906 20.203125 11.277344 C 24.226562 14.046875 28.117188 16.980469 31.300781 20.742188 C 31.757812 21.28125 32.230469 21.800781 32.699219 22.332031 C 33.105469 21.773438 33.53125 21.230469 33.910156 20.660156 C 34.171875 20.269531 34.40625 19.851562 34.585938 19.421875 C 35.199219 17.96875 36.273438 16.921875 37.546875 16.074219 C 37.863281 15.859375 38.351562 15.746094 38.722656 15.804688 C 40.074219 16.023438 41.164062 16.789062 42.132812 17.710938 C 42.5 18.054688 42.996094 18.667969 42.300781 18.992188 C 40.390625 19.890625 39.953125 21.683594 39.625 23.40625 C 39.140625 25.953125 38.933594 28.554688 38.640625 31.140625 C 38.375 33.445312 38.433594 35.828125 37.835938 38.039062 C 37.21875 40.320312 36.328125 42.589844 34.695312 44.460938 C 33.042969 46.351562 31.605469 48.429688 29.351562 49.703125 C 28.945312 49.933594 28.5625 50.210938 28.167969 50.46875 C 25.9375 50.582031 23.753906 50.28125 21.617188 49.636719 C 21.691406 49.519531 21.75 49.382812 21.84375 49.285156 C 25.183594 45.859375 25.542969 41.417969 23.234375 37.128906 C 21.6875 34.246094 19.597656 31.78125 17.402344 29.382812 C 13.925781 25.589844 9.847656 23.90625 5.320312 21.847656 C 5.546875 21.015625 5.257812 19.949219 5.484375 19.113281 C 7.648438 20.058594 9.835938 20.953125 11.96875 21.964844 C 14.867188 23.339844 17.863281 24.554688 20.433594 26.628906 C 20.230469 26.074219 20.03125 25.46875 19.625 25.085938 C 18.769531 24.277344 17.832031 23.542969 16.878906 22.847656 C 14.355469 21.015625 11.832031 19.179688 9.246094 17.441406 C 8.492188 16.9375 7.519531 16.765625 6.648438 16.441406 C 6.921875 15.972656 7.191406 15.503906 7.464844 15.03125 C 7.90625 15.300781 8.320312 15.652344 8.792969 15.828125 C 12.539062 17.195312 16.074219 18.976562 19.394531 21.179688 C 20.511719 21.921875 21.617188 22.679688 22.726562 23.429688 C 22.59375 22.910156 22.363281 22.5 22.03125 22.207031 C 19.300781 19.804688 16.601562 17.367188 13.789062 15.0625 C 12.457031 13.972656 10.902344 13.15625 9.449219 12.214844 C 9.847656 11.773438 10.242188 11.335938 10.640625 10.894531 C 11.039062 11.144531 11.421875 11.421875 11.839844 11.632812 C 15.804688 13.605469 19.695312 15.691406 23.019531 18.671875 C 23.785156 19.359375 24.558594 20.035156 25.328125 20.71875 C 25.421875 20.621094 25.519531 20.523438 25.613281 20.425781 C 24.542969 19.105469 23.574219 17.6875 22.382812 16.488281 C 20.335938 14.425781 18.171875 12.476562 16.011719 10.527344 C 15.183594 9.78125 14.230469 9.167969 13.332031 8.492188 C 13.714844 8.21875 14.101562 7.941406 14.484375 7.664062 "/>
</g>
</svg>
