<?xml version="1.0" encoding="UTF-8"?>
<svg xmlns="http://www.w3.org/2000/svg" xmlns:xlink="http://www.w3.org/1999/xlink" width="56pt" height="56pt" viewBox="0 0 56 56" version="1.1">
<g id="surface1">
<rect x="0" y="0" width="56" height="56" style="fill:rgb(95.66803%,95.779419%,96.777344%);fill-opacity:1;stroke:none;"/>
<path style=" stroke:none;fill-rule:nonzero;fill:rgb(85.487366%,14.108276%,18.412781%);fill-opacity:1;" d="M 46.730469 43.515625 L 38.949219 43.515625 L 26.203125 8.320312 L 33.984375 8.320312 L 46.730469 43.515625 "/>
<path style=" stroke:none;fill-rule:nonzero;fill:rgb(20.007324%,50.280762%,22.361755%);fill-opacity:1;" d="M 15.101562 43.515625 L 7.320312 43.515625 L 26.203125 8.320312 L 33.984375 8.320312 L 15.101562 43.515625 "/>
<path style=" stroke:none;fill-rule:nonzero;fill:rgb(28.108215%,64.732361%,22.341919%);fill-opacity:1;" d="M 24.097656 26.847656 C 24.074219 26.863281 24.046875 26.875 24.023438 26.886719 C 20.226562 28.714844 16.535156 30.753906 12.964844 32.988281 L 7.320312 43.515625 L 15.101562 43.515625 L 15.601562 42.585938 C 16.777344 40.394531 18.277344 38.398438 20.054688 36.664062 L 20.09375 36.625 C 23.351562 33.449219 26.347656 30.527344 31.359375 27.214844 C 36.152344 24.050781 40.203125 22.234375 42.878906 21.050781 C 48.558594 18.539062 52.007812 17.714844 51.96875 17.578125 C 51.886719 17.3125 38.710938 19.820312 24.097656 26.847656 "/>
</g>
</svg>
