<?xml version="1.0" encoding="UTF-8"?>
<svg xmlns="http://www.w3.org/2000/svg" xmlns:xlink="http://www.w3.org/1999/xlink" width="56pt" height="56pt" viewBox="0 0 56 56" version="1.1">
<g id="surface1">
<rect x="0" y="0" width="56" height="56" style="fill:rgb(95.66803%,95.779419%,96.777344%);fill-opacity:1;stroke:none;"/>
<path style=" stroke:none;fill-rule:nonzero;fill:rgb(85.897827%,11.933899%,14.99939%);fill-opacity:1;" d="M 9.128906 10.148438 C 9.742188 9.992188 23.890625 9.980469 24.542969 10.121094 C 25.945312 13.132812 27.265625 16.238281 28.695312 19.425781 C 29.378906 18.007812 29.925781 16.640625 30.527344 15.296875 C 31.121094 13.96875 31.660156 12.609375 32.296875 11.28125 C 32.40625 11.335938 32.476562 11.347656 32.507812 11.386719 C 35.113281 14.925781 37.714844 18.46875 40.316406 22.011719 C 40.398438 22.125 40.441406 22.265625 40.523438 22.441406 C 39.589844 24.183594 38.648438 25.9375 37.679688 27.742188 C 38.800781 29.746094 39.921875 31.75 41.042969 33.753906 C 42.167969 35.765625 43.257812 37.792969 44.417969 39.777344 C 45.730469 42.027344 47.570312 45.371094 47.679688 45.855469 C 47.5 46.027344 47.265625 45.96875 47.050781 45.96875 C 46.113281 45.976562 45.175781 45.972656 44.238281 45.972656 C 40.324219 45.972656 36.410156 45.972656 32.496094 45.972656 C 32.234375 45.972656 31.96875 45.972656 31.664062 45.972656 C 31.546875 45.742188 31.425781 45.535156 31.335938 45.316406 C 30.167969 42.449219 29.007812 39.582031 27.84375 36.710938 C 27.820312 36.65625 27.78125 36.609375 27.699219 36.484375 C 27.566406 36.757812 27.445312 36.980469 27.351562 37.214844 C 26.296875 39.820312 25.25 42.429688 24.199219 45.035156 C 24.082031 45.316406 23.941406 45.585938 23.789062 45.90625 C 23.574219 45.925781 23.355469 45.96875 23.140625 45.96875 C 18.410156 45.972656 13.679688 45.972656 8.949219 45.972656 C 8.773438 45.96875 8.59375 45.945312 8.320312 45.925781 C 8.890625 44.8125 9.566406 43.851562 10.15625 42.84375 C 10.753906 41.824219 11.394531 40.832031 12.011719 39.828125 C 12.644531 38.804688 13.277344 37.78125 13.902344 36.757812 C 14.519531 35.75 15.128906 34.734375 15.742188 33.730469 C 16.359375 32.722656 16.988281 31.71875 17.605469 30.710938 C 18.21875 29.707031 18.828125 28.695312 19.453125 27.660156 C 18.300781 25.707031 17.15625 23.761719 16.007812 21.816406 C 14.867188 19.886719 13.722656 17.960938 12.589844 16.027344 C 11.449219 14.085938 10.289062 12.15625 9.128906 10.148438 "/>
<path style=" stroke:none;fill-rule:nonzero;fill:rgb(15.687561%,25.907898%,57.36084%);fill-opacity:1;" d="M 33.007812 10.035156 C 35.34375 10.039062 37.675781 10.015625 40.015625 10.058594 C 42.347656 10.105469 44.679688 10.070312 47.101562 10.070312 C 46.722656 11.113281 46.125 11.984375 45.65625 12.914062 C 45.175781 13.855469 44.652344 14.777344 44.152344 15.710938 C 43.65625 16.625 43.164062 17.539062 42.671875 18.453125 C 42.175781 19.378906 41.675781 20.304688 41.125 21.332031 C 38.351562 17.5625 35.648438 13.878906 32.945312 10.199219 C 32.964844 10.144531 32.988281 10.089844 33.007812 10.035156 "/>
</g>
</svg>
