<?xml version="1.0" encoding="UTF-8"?>
<svg xmlns="http://www.w3.org/2000/svg" xmlns:xlink="http://www.w3.org/1999/xlink" width="56pt" height="56pt" viewBox="0 0 56 56" version="1.1">
<g id="surface1">
<rect x="0" y="0" width="56" height="56" style="fill:rgb(95.66803%,95.779419%,96.777344%);fill-opacity:1;stroke:none;"/>
<path style=" stroke:none;fill-rule:nonzero;fill:rgb(94.389343%,93.711853%,11.31897%);fill-opacity:1;" d="M 26.992188 29.113281 C 26.972656 29.132812 26.953125 29.132812 26.953125 29.148438 C 26.953125 29.132812 26.972656 29.113281 26.992188 29.113281 "/>
<path style=" stroke:none;fill-rule:nonzero;fill:rgb(36.779785%,14.440918%,50.030518%);fill-opacity:1;" d="M 6.699219 11.527344 C 6.894531 11.507812 7.03125 11.445312 7.089844 11.492188 C 11.050781 14.441406 15.820312 15.210938 20.417969 16.4375 C 23.675781 17.304688 26.816406 20.894531 26.871094 24.195312 C 26.980469 30.808594 26.902344 37.421875 26.902344 44.492188 C 25.925781 43.621094 25.230469 43 24.414062 42.273438 C 24.414062 39.835938 24.4375 37.363281 24.40625 34.890625 C 24.375 32.257812 23.390625 30.140625 21.023438 28.765625 C 18.632812 27.378906 16.199219 26.058594 13.921875 24.507812 C 10.808594 22.390625 8.222656 19.78125 7.351562 15.914062 C 7.175781 15.121094 7.078125 14.3125 6.960938 13.507812 C 6.863281 12.84375 6.785156 12.179688 6.699219 11.527344 "/>
<path style=" stroke:none;fill-rule:nonzero;fill:rgb(90.869141%,52.108765%,8.346558%);fill-opacity:1;" d="M 49.230469 11.53125 C 49.757812 17.046875 47.261719 20.917969 43.0625 23.875 C 41.226562 25.167969 39.273438 26.308594 37.300781 27.386719 C 35.09375 28.59375 33.09375 29.957031 31.914062 32.832031 C 31.914062 35.539062 31.914062 38.746094 31.914062 42.046875 C 31.21875 42.78125 30.519531 43.519531 29.558594 44.527344 C 29.484375 43.4375 29.394531 42.675781 29.390625 41.914062 C 29.378906 36.628906 29.433594 31.34375 29.367188 26.054688 C 29.324219 22.601562 30.566406 19.726562 33.375 17.839844 C 34.917969 16.800781 36.898438 16.339844 38.734375 15.824219 C 41.382812 15.082031 44.09375 14.570312 46.519531 13.195312 C 47.390625 12.699219 48.226562 12.148438 49.230469 11.53125 "/>
</g>
</svg>
