<?xml version="1.0" encoding="UTF-8"?>
<svg xmlns="http://www.w3.org/2000/svg" xmlns:xlink="http://www.w3.org/1999/xlink" width="56pt" height="56pt" viewBox="0 0 56 56" version="1.1">
<g id="surface1">
<rect x="0" y="0" width="56" height="56" style="fill:rgb(16.333008%,33.685303%,67.654419%);fill-opacity:1;stroke:none;"/>
<path style=" stroke:none;fill-rule:nonzero;fill:rgb(100%,100%,100%);fill-opacity:1;" d="M 21.929688 28.914062 C 21.597656 28.3125 21.386719 27.632812 21.332031 26.914062 C 22.6875 26.882812 24.023438 26.902344 25.328125 26.953125 Z M 24.121094 22.097656 C 25 21.660156 27.59375 20.675781 34.027344 19.835938 C 34.027344 19.835938 42.558594 18.765625 49.519531 15.648438 L 50.679688 12.15625 C 44.167969 15.535156 38.097656 16.414062 34.027344 17.171875 C 30.222656 17.859375 26.28125 18.238281 23.101562 19.664062 C 21.144531 20.558594 19.632812 22.265625 19.003906 24.351562 C 17.511719 24.4375 16.058594 24.585938 14.683594 24.820312 C 9.40625 25.457031 5.320312 29.949219 5.320312 35.398438 C 5.320312 38.65625 6.78125 41.574219 9.085938 43.527344 L 9.101562 43.566406 C 9.097656 43.554688 9.097656 43.542969 9.09375 43.535156 L 9.027344 43.230469 C 8.609375 41.039062 9.679688 39.597656 9.679688 39.597656 C 10.90625 37.664062 12.90625 36.765625 15.976562 36.765625 C 23.164062 36.765625 30.847656 39.980469 38.28125 43.089844 L 40.0625 43.84375 L 40.929688 41.339844 C 32.894531 37.988281 24.253906 34.125 15.976562 34.125 C 13.195312 34.125 10.234375 34.777344 8.164062 37.210938 C 8.03125 36.628906 7.957031 36.023438 7.957031 35.398438 C 7.957031 31.292969 11.054688 27.902344 15.035156 27.433594 C 16.253906 27.246094 17.476562 27.117188 18.695312 27.03125 C 18.828125 29.136719 19.824219 31.007812 21.328125 32.292969 L 21.335938 32.292969 L 21.339844 32.304688 L 34 24.992188 C 30.519531 24.597656 26.164062 24.21875 21.882812 24.257812 C 22.375 23.320312 23.164062 22.554688 24.121094 22.097656 "/>
</g>
</svg>
