<?xml version="1.0" encoding="UTF-8"?>
<svg xmlns="http://www.w3.org/2000/svg" xmlns:xlink="http://www.w3.org/1999/xlink" width="56pt" height="56pt" viewBox="0 0 56 56" version="1.1">
<g id="surface1">
<rect x="0" y="0" width="56" height="56" style="fill:rgb(96.011353%,47.331238%,16.56189%);fill-opacity:1;stroke:none;"/>
<path style=" stroke:none;fill-rule:evenodd;fill:rgb(100%,100%,100%);fill-opacity:1;" d="M 2.890625 28.320312 C 3.359375 28.320312 3.929688 28.21875 4.398438 28.21875 C 4.8125 28.21875 5.230469 28.113281 5.699219 28.113281 C 6.113281 28.164062 6.269531 28.375 6.632812 28.53125 C 7.257812 28.839844 8.089844 28.839844 8.816406 28.894531 C 9.335938 28.945312 9.699219 29.414062 10.21875 29.359375 C 10.480469 29.359375 10.582031 29.257812 10.792969 29.207031 C 11.15625 29.152344 11.621094 29.207031 11.988281 29.207031 C 12.296875 29.207031 12.820312 29.101562 13.183594 29.207031 C 13.390625 29.308594 13.597656 29.570312 13.859375 29.722656 C 14.222656 29.882812 14.742188 30.035156 15.210938 30.035156 C 15.574219 30.035156 15.726562 29.828125 16.09375 29.722656 C 16.40625 29.671875 17.027344 29.414062 17.339844 29.621094 C 17.339844 29.933594 17.601562 30.089844 17.601562 30.402344 C 17.601562 30.660156 17.445312 30.972656 17.234375 31.078125 C 16.925781 31.230469 16.558594 31.179688 16.25 31.230469 C 15.832031 31.335938 15.3125 31.542969 15.050781 31.90625 C 14.84375 32.167969 14.792969 32.585938 14.636719 32.84375 C 14.480469 33.15625 14.480469 33.570312 14.117188 33.675781 C 13.703125 33.777344 13.492188 33.363281 13.128906 33.675781 C 12.871094 33.882812 12.921875 34.195312 12.820312 34.507812 C 12.609375 34.609375 12.558594 34.714844 12.351562 34.769531 C 12.195312 34.769531 12.039062 34.664062 11.832031 34.714844 C 11.621094 34.769531 11.519531 34.976562 11.363281 35.078125 C 11.207031 35.234375 11 35.285156 10.84375 35.390625 C 10.425781 35.597656 10.21875 35.910156 9.90625 36.222656 C 9.699219 36.378906 9.542969 36.636719 9.285156 36.792969 C 9.074219 37 8.710938 37 8.503906 37.210938 C 8.398438 37.261719 8.296875 37.417969 8.191406 37.46875 C 7.828125 37.730469 7.359375 37.886719 6.945312 38.09375 C 6.632812 38.300781 6.320312 38.511719 5.957031 38.664062 C 5.75 38.820312 5.230469 39.445312 5.90625 39.394531 C 6.0625 39.394531 6.269531 39.238281 6.375 39.183594 C 6.632812 39.082031 6.789062 39.132812 7.050781 39.082031 C 7.414062 39.082031 7.777344 39.027344 8.140625 39.027344 C 8.347656 39.027344 8.503906 39.082031 8.660156 38.925781 C 8.816406 38.820312 8.765625 38.558594 8.867188 38.40625 C 9.128906 38.09375 9.648438 37.988281 9.960938 37.730469 C 10.167969 37.574219 10.375 37.367188 10.582031 37.261719 C 10.945312 37.054688 11.15625 37.210938 11.46875 37.210938 C 12.039062 37.3125 12.507812 37.054688 12.714844 36.535156 C 13.128906 36.535156 13.597656 36.328125 14.011719 36.328125 C 14.378906 36.273438 14.792969 36.273438 15.105469 36.015625 C 15.363281 35.804688 15.46875 35.546875 15.726562 35.441406 C 16.144531 35.285156 16.613281 35.339844 16.976562 35.132812 C 17.394531 34.921875 17.601562 34.664062 18.070312 34.609375 C 18.222656 34.558594 18.484375 34.507812 18.640625 34.558594 C 18.742188 34.558594 18.796875 34.609375 18.847656 34.609375 C 19.105469 34.664062 19.160156 34.769531 19.417969 34.714844 C 19.835938 34.609375 20.71875 33.570312 21.238281 33.933594 L 21.289062 33.933594 C 21.238281 34.296875 21.082031 34.664062 20.71875 34.820312 C 20.25 34.972656 20.09375 34.871094 19.886719 35.441406 C 19.730469 35.964844 19.367188 36.535156 19.316406 37.105469 C 19.261719 37.523438 19.316406 37.730469 19.105469 38.144531 C 18.589844 38.144531 18.222656 38.40625 18.222656 38.976562 C 18.222656 39.289062 18.328125 39.394531 18.121094 39.652344 C 17.910156 39.914062 17.546875 40.015625 17.394531 40.328125 C 17.234375 40.742188 17.652344 40.640625 17.910156 40.847656 C 18.535156 41.367188 17.757812 41.679688 17.496094 42.042969 C 17.289062 42.304688 17.339844 42.667969 17.234375 42.980469 C 17.132812 43.449219 17.027344 43.914062 17.027344 44.433594 C 16.976562 44.851562 16.351562 46.929688 17.132812 46.878906 C 16.976562 45.941406 17.496094 45.265625 17.910156 44.539062 C 18.277344 43.914062 18.847656 43.03125 19.46875 42.667969 C 19.730469 42.511719 20.09375 42.460938 20.148438 42.09375 C 20.148438 41.785156 19.78125 41.523438 20.148438 41.210938 C 20.511719 40.953125 20.824219 41.265625 21.1875 41.160156 C 21.652344 41.054688 21.601562 40.742188 21.445312 40.429688 C 21.289062 40.121094 21.238281 40.015625 21.601562 39.757812 C 21.757812 39.652344 21.964844 39.703125 22.121094 39.652344 C 22.277344 39.601562 22.332031 39.445312 22.433594 39.394531 C 22.746094 39.238281 22.953125 39.394531 23.214844 39.132812 C 23.472656 38.925781 23.527344 38.871094 23.527344 38.558594 C 23.527344 38.300781 23.421875 38.039062 23.679688 37.832031 C 23.890625 37.730469 24.203125 37.832031 24.410156 37.675781 C 24.773438 37.363281 24.773438 36.742188 25.1875 36.378906 C 25.394531 36.585938 25.292969 37 25.1875 37.261719 C 25.085938 37.574219 25.03125 37.832031 25.136719 38.144531 C 25.292969 38.558594 25.550781 38.871094 25.863281 39.132812 C 26.074219 39.339844 26.074219 39.238281 26.125 39.546875 C 26.175781 39.703125 26.125 39.914062 26.074219 40.070312 C 25.96875 40.589844 25.761719 41.003906 25.761719 41.523438 C 25.707031 41.992188 25.707031 42.304688 26.019531 42.613281 C 26.800781 43.550781 26.539062 44.851562 26.746094 45.992188 C 26.695312 45.941406 26.644531 45.941406 26.59375 45.890625 C 26.539062 46.566406 26.957031 47.136719 26.90625 47.8125 C 26.90625 48.542969 26.800781 49.164062 27.214844 49.789062 C 27.320312 49.945312 27.527344 49.996094 27.632812 50.203125 C 27.789062 50.359375 27.734375 50.515625 27.785156 50.671875 C 27.945312 50.878906 28.152344 51.035156 28.359375 50.773438 C 28.617188 50.464844 28.410156 49.320312 28.410156 48.957031 C 28.046875 48.90625 27.734375 48.332031 27.996094 48.074219 C 28.152344 47.917969 28.464844 48.019531 28.617188 47.917969 C 28.722656 47.8125 28.773438 47.5 28.773438 47.398438 C 28.773438 47.03125 28.722656 47.242188 28.617188 46.980469 C 28.515625 46.878906 28.464844 46.71875 28.515625 46.566406 C 28.566406 46.097656 28.878906 46.304688 29.085938 46.042969 C 29.191406 45.839844 29.085938 45.214844 29.085938 45.007812 C 29.085938 44.589844 29.140625 44.226562 29.140625 43.863281 C 29.191406 42.925781 29.035156 42.042969 29.140625 41.109375 C 29.242188 40.484375 29.242188 40.015625 29.503906 39.445312 C 29.710938 38.925781 29.96875 39.027344 30.488281 38.871094 C 30.699219 38.457031 30.335938 38.25 30.179688 37.988281 C 30.128906 37.78125 30.023438 37.054688 30.074219 36.898438 C 30.179688 37.054688 30.335938 37.367188 30.542969 37.261719 C 30.542969 37.261719 30.542969 37.261719 30.542969 37.3125 C 30.699219 37.261719 30.851562 37.210938 31.011719 37.105469 C 31.375 37 31.476562 37.105469 31.84375 37.15625 C 31.683594 38.144531 32.464844 39.289062 33.035156 40.015625 C 33.402344 39.914062 33.609375 40.121094 33.765625 40.328125 C 34.023438 40.640625 33.921875 40.902344 34.128906 41.210938 C 34.335938 41.628906 34.699219 41.367188 35.066406 41.578125 C 35.167969 41.628906 35.324219 41.941406 35.480469 42.042969 C 35.585938 42.148438 35.6875 42.199219 35.792969 42.355469 C 35.84375 42.460938 35.84375 42.5625 36 42.613281 C 36.101562 42.667969 36.3125 42.5625 36.46875 42.613281 C 36.832031 42.71875 37.195312 43.136719 37.457031 43.449219 C 37.972656 43.96875 38.027344 44.851562 38.496094 45.472656 C 38.496094 45.421875 38.441406 45.421875 38.441406 45.472656 C 38.546875 45.679688 38.703125 45.941406 38.753906 46.199219 C 39.167969 45.941406 39.480469 45.527344 39.636719 45.058594 C 39.742188 44.640625 39.535156 44.382812 39.273438 44.070312 C 39.117188 43.863281 38.964844 43.601562 38.753906 43.394531 C 38.597656 43.238281 38.183594 43.136719 38.234375 42.824219 C 38.234375 42.613281 38.546875 42.5625 38.597656 42.355469 C 38.652344 42.148438 38.441406 41.679688 38.339844 41.472656 C 38.234375 41.003906 37.921875 40.328125 37.296875 40.640625 C 36.832031 40.277344 36.414062 39.859375 36.832031 39.339844 C 37.039062 39.027344 37.402344 38.769531 37.089844 38.351562 C 37.039062 38.300781 36.882812 38.25 36.78125 38.199219 C 36.675781 38.144531 36.363281 38.199219 36.3125 38.144531 C 36.15625 38.09375 35.84375 37.523438 35.738281 37.367188 C 35.480469 36.949219 35.898438 36.429688 35.898438 36.015625 C 35.792969 35.285156 35.425781 34.769531 35.117188 34.089844 C 35.53125 34.195312 35.792969 34.507812 36.15625 34.664062 C 36.46875 34.820312 36.46875 34.664062 36.78125 34.558594 C 37.351562 34.402344 37.507812 35.027344 37.921875 35.183594 C 38.078125 35.285156 38.390625 35.234375 38.597656 35.234375 C 38.804688 34.714844 39.378906 35.132812 39.636719 35.285156 C 39.117188 36.328125 40.835938 36.171875 41.40625 36.378906 C 41.871094 36.585938 42.394531 36.949219 42.859375 37.054688 C 43.328125 37.105469 43.847656 37.15625 44.316406 37.054688 C 44.679688 36.949219 45.042969 36.847656 45.253906 37.417969 C 45.355469 37.78125 45.148438 37.886719 45.5625 38.039062 C 46.03125 38.199219 46.082031 37.886719 46.550781 37.832031 C 46.914062 37.832031 47.332031 37.886719 47.695312 38.039062 C 48.109375 38.199219 48.421875 38.558594 48.785156 38.820312 C 48.992188 38.976562 49.722656 39.445312 50.03125 39.289062 C 50.554688 39.082031 50.085938 38.820312 49.824219 38.664062 C 49.667969 38.613281 49.515625 38.511719 49.355469 38.457031 C 49.203125 38.457031 48.992188 38.511719 48.839844 38.457031 C 48.421875 38.25 48.679688 37.832031 48.421875 37.523438 C 48.109375 37.210938 47.644531 36.792969 47.277344 36.585938 C 46.707031 36.328125 46.238281 36.015625 45.71875 35.703125 C 45.460938 35.597656 45.199219 35.285156 44.941406 35.183594 C 44.679688 35.078125 44.679688 35.183594 44.417969 35.234375 C 43.953125 35.339844 43.742188 35.339844 43.640625 34.820312 C 43.589844 34.558594 43.484375 34.144531 43.171875 34.039062 C 42.859375 33.933594 42.546875 34.246094 42.238281 34.195312 C 41.613281 34.089844 41.457031 33.621094 41.042969 33.3125 C 40.835938 33.15625 40.625 33.050781 40.46875 32.84375 C 40.367188 32.6875 40.3125 32.480469 40.210938 32.324219 C 40.054688 32.011719 39.585938 31.597656 39.273438 31.386719 C 38.859375 31.179688 38.441406 31.597656 38.132812 31.179688 C 37.820312 30.816406 37.921875 30.296875 37.507812 29.933594 C 37.769531 29.671875 38.390625 29.984375 38.703125 29.933594 C 39.117188 29.933594 39.535156 29.777344 39.949219 29.777344 C 40.367188 29.777344 40.78125 29.882812 41.144531 29.777344 C 41.558594 29.621094 41.820312 29.464844 42.238281 29.464844 C 42.757812 29.464844 43.171875 29.570312 43.691406 29.414062 C 44.160156 29.308594 44.574219 29.050781 45.042969 28.894531 C 45.5625 28.738281 46.03125 28.789062 46.550781 28.6875 C 46.96875 28.632812 47.332031 28.375 47.695312 28.21875 C 48.214844 28.0625 48.472656 28.476562 48.992188 28.425781 C 49.355469 28.375 49.617188 28.011719 49.929688 27.957031 C 50.34375 27.90625 50.398438 28.21875 50.761719 28.320312 C 51.175781 28.476562 51.332031 28.21875 51.75 28.21875 C 52.007812 28.164062 53.828125 28.425781 53.671875 27.957031 C 53.464844 27.335938 51.644531 27.699219 51.226562 27.386719 C 51.332031 27.125 51.074219 26.96875 50.863281 26.917969 C 50.554688 26.867188 50.605469 27.023438 50.398438 27.179688 C 50.242188 27.28125 50.03125 27.335938 49.878906 27.335938 C 49.566406 27.386719 49.617188 27.230469 49.410156 27.074219 C 48.992188 26.761719 48.527344 26.867188 48.058594 27.023438 C 47.589844 27.230469 47.277344 27.023438 46.8125 27.023438 C 46.394531 27.023438 45.980469 26.816406 45.5625 26.867188 C 45.253906 26.867188 44.886719 27.125 44.523438 26.917969 C 44.105469 26.710938 44.316406 26.242188 44.105469 25.929688 C 43.847656 25.671875 43.070312 25.722656 42.757812 25.722656 C 42.027344 25.722656 41.664062 26.242188 40.886719 26.085938 C 40.261719 25.929688 40.003906 25.515625 39.222656 25.617188 C 38.652344 25.671875 38.183594 26.085938 37.558594 25.984375 C 37.089844 25.828125 36.726562 25.308594 37.089844 24.839844 C 37.351562 24.476562 37.871094 24.632812 38.234375 24.578125 C 38.859375 24.476562 38.652344 23.957031 39.117188 23.695312 C 39.535156 23.433594 39.742188 23.957031 40.261719 23.746094 C 40.78125 23.539062 40.261719 23.019531 40.3125 22.550781 C 40.574219 22.550781 40.886719 22.136719 41.199219 22.03125 C 41.351562 21.929688 41.769531 21.824219 41.925781 21.929688 C 42.082031 21.980469 42.132812 22.238281 42.289062 22.34375 C 42.652344 22.1875 43.484375 21.722656 43.691406 21.355469 C 43.847656 21.046875 43.589844 20.628906 43.691406 20.421875 C 43.847656 20.214844 44.367188 20.214844 44.574219 20.109375 C 44.941406 20.003906 45.042969 19.902344 45.253906 19.640625 C 45.511719 19.382812 45.925781 19.226562 46.289062 19.070312 C 46.96875 18.652344 47.796875 18.394531 48.320312 17.769531 C 48.578125 17.457031 48.839844 17.25 49.253906 17.09375 C 49.617188 16.992188 50.03125 16.886719 50.292969 16.574219 C 50.03125 15.847656 48.578125 17.199219 48.214844 17.199219 C 48.007812 17.199219 47.953125 17.09375 47.695312 17.148438 C 47.382812 17.199219 47.019531 17.355469 46.707031 17.457031 C 46.238281 17.664062 45.71875 17.71875 45.304688 17.976562 C 44.367188 18.550781 43.433594 18.863281 42.339844 18.914062 C 41.613281 18.964844 40.886719 19.070312 40.210938 19.226562 C 39.585938 19.382812 38.804688 19.484375 38.234375 19.902344 L 38.183594 19.953125 C 38.183594 19.953125 38.285156 19.902344 38.339844 19.847656 C 38.441406 20.109375 38.441406 20.214844 38.339844 20.421875 C 38.183594 20.734375 37.972656 20.628906 37.664062 20.628906 C 37.246094 20.628906 36.726562 20.734375 36.414062 21.046875 C 36.675781 21.355469 35.738281 21.511719 35.53125 21.355469 C 35.117188 20.992188 35.636719 20.527344 35.6875 20.160156 C 35.949219 19.019531 35.636719 17.925781 36.15625 16.835938 C 36.3125 16.523438 36.46875 16.160156 36.675781 15.847656 C 36.933594 15.585938 37.507812 15.535156 37.664062 15.277344 C 37.820312 15.066406 37.609375 14.652344 37.664062 14.390625 C 37.714844 13.976562 37.921875 13.871094 38.183594 13.613281 C 38.441406 13.300781 38.441406 12.726562 38.597656 12.363281 C 38.804688 11.949219 39.117188 11.636719 39.222656 11.117188 C 39.273438 10.703125 39.117188 10.128906 39.480469 9.765625 C 39.742188 9.507812 40.523438 9.765625 40.574219 9.351562 C 40.675781 8.933594 40.054688 8.832031 39.949219 8.519531 C 39.742188 8.101562 40.210938 7.945312 40.3125 7.636719 C 40.003906 7.476562 39.636719 8 39.585938 8.207031 C 39.429688 8.621094 39.480469 8.777344 39.117188 9.039062 C 38.390625 9.453125 37.871094 10.234375 37.296875 10.859375 C 36.988281 11.222656 36.726562 11.636719 36.414062 12 C 36.15625 12.261719 35.84375 12.363281 35.949219 12.675781 C 36 12.988281 36.363281 13.039062 36.15625 13.40625 C 36.101562 13.558594 36 13.613281 35.84375 13.71875 C 35.636719 13.925781 35.375 13.871094 35.167969 14.082031 C 34.804688 14.289062 35.011719 14.703125 34.90625 15.066406 C 34.285156 15.171875 33.921875 15.792969 33.554688 16.261719 C 33.191406 16.78125 33.246094 16.472656 32.726562 16.472656 C 32.414062 16.472656 32.308594 16.679688 32.152344 16.886719 C 31.996094 17.148438 31.945312 17.511719 31.683594 17.71875 C 31.476562 17.824219 31.113281 17.824219 30.957031 18.03125 C 30.75 18.289062 30.90625 18.601562 30.90625 18.863281 C 30.851562 19.019531 30.59375 19.382812 30.488281 19.382812 C 30.335938 19.019531 30.28125 18.808594 30.335938 18.445312 C 30.4375 17.925781 30.386719 17.769531 30.179688 17.300781 C 29.96875 16.886719 30.230469 16.523438 30.074219 16.105469 C 29.96875 15.792969 29.917969 15.847656 29.605469 15.742188 C 29.242188 15.640625 29.191406 15.585938 29.085938 15.277344 C 29.035156 14.859375 29.140625 14.496094 29.191406 14.132812 C 29.191406 14.027344 29.140625 13.976562 29.140625 13.925781 C 29.191406 13.820312 29.292969 13.820312 29.347656 13.71875 C 29.347656 13.558594 29.292969 13.351562 29.242188 13.195312 C 29.035156 12.832031 28.828125 12.574219 28.929688 12.105469 C 28.984375 11.898438 29.085938 11.792969 28.984375 11.535156 C 28.929688 11.273438 28.773438 11.222656 28.671875 11.011719 C 28.566406 10.703125 28.671875 10.339844 28.617188 10.078125 C 28.617188 9.972656 28.617188 9.714844 28.566406 9.609375 C 28.515625 9.453125 28.308594 9.402344 28.203125 9.246094 C 27.890625 8.882812 28.152344 8.777344 28.359375 8.519531 C 28.566406 8.257812 28.359375 7.945312 28.515625 7.636719 C 28.566406 7.324219 28.878906 7.21875 28.617188 6.960938 C 28.410156 6.648438 28.046875 6.804688 27.839844 6.542969 C 27.476562 6.074219 27.945312 6.128906 28.152344 5.917969 C 28.308594 5.765625 28.253906 5.296875 28.203125 5.089844 C 28.097656 5.242188 28.046875 5.554688 27.890625 5.710938 C 27.734375 5.816406 27.476562 5.867188 27.371094 5.972656 C 26.851562 6.441406 27.371094 7.011719 27.214844 7.53125 C 26.90625 8.308594 26.851562 8.832031 26.90625 9.660156 C 26.90625 9.820312 26.90625 10.027344 26.800781 10.179688 C 26.746094 10.285156 26.644531 10.179688 26.539062 10.285156 C 26.332031 10.441406 26.226562 10.703125 26.382812 10.960938 C 26.488281 11.324219 26.695312 11.117188 26.957031 11.324219 C 27.113281 11.480469 27.058594 12 26.90625 12.050781 C 26.59375 12.210938 26.332031 11.792969 26.175781 12.261719 C 26.074219 12.417969 26.175781 12.988281 26.28125 13.144531 C 26.332031 13.144531 26.382812 13.195312 26.488281 13.195312 C 26.382812 14.183594 26.4375 15.222656 26.382812 16.210938 C 26.382812 16.261719 26.332031 16.210938 26.332031 16.261719 C 26.488281 16.574219 26.125 16.628906 25.914062 16.730469 C 25.5 16.835938 25.5 16.9375 25.550781 17.355469 C 25.605469 17.613281 25.863281 17.976562 25.8125 18.1875 C 25.761719 18.394531 25.34375 18.652344 25.1875 18.863281 C 24.980469 18.394531 24.511719 18.863281 24.203125 18.757812 C 23.890625 18.652344 23.371094 17.769531 23.371094 17.40625 C 23.316406 17.042969 23.527344 16.628906 23.003906 16.417969 C 22.796875 16.316406 22.640625 16.574219 22.484375 16.472656 C 22.332031 16.417969 22.171875 16.003906 22.121094 15.898438 C 21.808594 15.378906 21.238281 15.066406 20.976562 14.601562 C 20.824219 14.234375 20.769531 13.769531 20.460938 13.40625 C 20.355469 13.300781 20.09375 13.300781 19.992188 13.144531 C 19.835938 12.9375 19.941406 12.675781 19.78125 12.46875 C 19.574219 12.105469 19.054688 12.210938 18.742188 12 C 18.640625 11.949219 18.640625 11.691406 18.535156 11.636719 C 18.589844 11.636719 18.589844 11.691406 18.640625 11.691406 C 18.378906 11.429688 17.964844 11.273438 17.652344 11.011719 C 17.445312 10.859375 17.394531 10.546875 17.132812 10.390625 C 16.871094 10.179688 16.40625 10.339844 16.25 9.972656 C 16.09375 9.660156 16.457031 9.089844 16.558594 8.832031 C 16.300781 8.933594 15.726562 8 15.46875 7.789062 C 14.84375 7.476562 14.84375 8 15.105469 8.46875 C 15.363281 8.882812 15.46875 9.351562 15.625 9.820312 C 15.675781 9.972656 15.726562 10.234375 15.886719 10.339844 C 16.09375 10.546875 16.351562 10.492188 16.558594 10.597656 C 16.976562 10.753906 16.976562 11.324219 16.925781 11.742188 C 16.925781 11.949219 16.925781 12 16.820312 12.15625 C 16.714844 12.3125 16.507812 12.3125 16.507812 12.519531 C 16.457031 12.625 16.613281 13.09375 16.714844 13.195312 C 16.976562 13.351562 17.132812 13.144531 17.445312 13.195312 C 17.964844 13.195312 17.964844 13.769531 18.070312 14.234375 C 18.070312 14.390625 18.121094 14.496094 18.070312 14.652344 C 17.703125 14.703125 17.546875 14.859375 17.601562 15.277344 C 17.652344 15.742188 17.964844 15.640625 18.277344 15.792969 C 18.691406 16.003906 18.640625 16.417969 18.742188 16.78125 C 18.847656 17.148438 19.105469 17.355469 19.316406 17.613281 C 19.523438 17.925781 19.417969 17.925781 19.367188 18.289062 C 19.316406 18.757812 19.46875 19.433594 19.835938 19.796875 C 19.941406 19.953125 20.148438 19.953125 20.25 20.109375 C 20.355469 20.265625 20.355469 20.527344 20.40625 20.734375 C 20.5625 21.097656 20.71875 21.460938 20.875 21.878906 C 20.511719 21.566406 19.992188 21.410156 19.574219 21.203125 C 19.417969 21.046875 19.210938 20.941406 19.003906 20.890625 C 18.847656 20.835938 18.535156 20.835938 18.378906 20.734375 C 18.171875 20.628906 18.277344 20.421875 18.121094 20.265625 C 18.070312 20.160156 17.859375 20.058594 17.757812 20.058594 C 17.339844 19.902344 17.183594 20.214844 16.769531 20.160156 C 16.613281 20.160156 16.25 20.109375 16.144531 20.003906 C 15.9375 19.746094 16.195312 19.695312 16.144531 19.484375 C 15.988281 18.914062 15.417969 19.277344 15.105469 19.328125 C 14.6875 19.382812 14.273438 19.070312 13.910156 18.964844 C 13.597656 18.914062 13.183594 18.964844 12.820312 18.964844 C 12.820312 19.019531 12.871094 19.019531 12.820312 19.019531 C 12.558594 19.019531 11.882812 18.914062 11.621094 18.707031 C 11.414062 18.550781 11.621094 18.03125 11.257812 17.824219 C 11.101562 17.71875 10.894531 17.71875 10.792969 17.71875 C 10.53125 17.71875 10.425781 17.925781 10.273438 17.925781 C 10.113281 17.976562 9.855469 17.824219 9.699219 17.824219 C 9.386719 17.875 9.542969 17.976562 9.285156 18.03125 C 8.453125 18.289062 8.816406 17.042969 8.089844 16.886719 C 7.722656 16.835938 7.882812 16.9375 7.621094 17.09375 C 7.414062 17.25 7.464844 17.25 7.203125 17.148438 C 6.945312 17.09375 6.789062 17.09375 6.683594 16.9375 C 6.582031 16.78125 6.683594 16.574219 6.476562 16.367188 C 6.320312 16.210938 5.90625 16.160156 5.699219 16.316406 C 5.699219 16.574219 6.007812 16.679688 6.164062 16.835938 C 6.375 16.992188 6.425781 17.199219 6.582031 17.40625 C 6.839844 17.769531 7.515625 18.238281 7.933594 18.445312 C 8.296875 17.925781 9.074219 18.394531 9.59375 18.601562 C 10.324219 18.914062 10.945312 19.433594 11.621094 19.953125 C 12.089844 20.367188 12.871094 20.785156 12.972656 21.355469 C 13.027344 21.566406 13.027344 21.722656 13.183594 21.878906 C 13.339844 22.085938 13.753906 22.238281 13.960938 22.34375 C 14.273438 22.5 15 22.550781 15.15625 22.8125 C 15.363281 23.175781 14.84375 23.539062 15.15625 23.851562 C 15.363281 24.164062 15.832031 24.007812 16.09375 23.957031 C 16.40625 23.902344 16.300781 23.851562 16.613281 24.109375 C 16.820312 24.269531 16.976562 24.421875 17.132812 24.578125 C 17.546875 25.097656 17.546875 25.308594 17.289062 25.828125 C 17.082031 26.191406 16.925781 26.554688 16.558594 26.035156 C 16.40625 25.828125 16.457031 25.722656 16.195312 25.566406 C 15.9375 25.410156 15.78125 25.410156 15.519531 25.410156 C 15.15625 25.410156 14.742188 25.308594 14.535156 25.617188 C 14.273438 26.035156 14.429688 26.503906 13.804688 26.398438 C 13.597656 26.398438 13.390625 26.242188 13.128906 26.242188 C 12.765625 26.191406 12.507812 26.347656 12.195312 26.503906 C 11.675781 26.65625 11.050781 26.449219 10.582031 26.761719 C 10.53125 26.816406 10.582031 26.917969 10.53125 26.96875 C 10.480469 27.023438 10.324219 27.023438 10.21875 27.074219 C 10.011719 27.125 9.804688 27.28125 9.542969 27.074219 C 9.386719 26.917969 9.335938 26.710938 9.128906 26.605469 C 8.867188 26.503906 8.554688 26.503906 8.296875 26.449219 C 8.296875 26.449219 8.347656 26.503906 8.398438 26.503906 C 7.984375 26.347656 7.671875 26.65625 7.464844 26.96875 C 7.101562 27.542969 6.113281 27.90625 5.4375 27.644531 C 5.28125 27.59375 5.125 27.488281 4.96875 27.4375 C 4.761719 27.4375 4.554688 27.542969 4.398438 27.488281 C 4.191406 27.4375 4.136719 27.28125 3.824219 27.335938 C 3.515625 27.335938 3.566406 27.4375 3.359375 27.59375 C 3.046875 27.855469 2.628906 27.542969 2.320312 27.957031 C 2.371094 28.21875 2.785156 28.269531 2.941406 28.476562 C 2.890625 28.425781 2.890625 28.375 2.890625 28.320312 "/>
</g>
</svg>
