<?xml version="1.0" encoding="UTF-8"?>
<svg xmlns="http://www.w3.org/2000/svg" xmlns:xlink="http://www.w3.org/1999/xlink" width="56pt" height="56pt" viewBox="0 0 56 56" version="1.1">
<g id="surface1">
<rect x="0" y="0" width="56" height="56" style="fill:rgb(95.291138%,95.347595%,96.429443%);fill-opacity:1;stroke:none;"/>
<path style=" stroke:none;fill-rule:nonzero;fill:rgb(65.203857%,10.987854%,13.847351%);fill-opacity:1;" d="M 27.992188 21.964844 C 28.574219 21.605469 29.109375 21.277344 29.714844 20.902344 C 29.097656 20.523438 28.554688 20.191406 27.996094 19.851562 C 27.441406 20.1875 26.898438 20.519531 26.285156 20.890625 C 26.878906 21.265625 27.414062 21.601562 27.992188 21.964844 Z M 24.472656 22.15625 C 24.183594 22.363281 23.921875 22.542969 23.671875 22.738281 C 23.429688 22.925781 23.199219 23.132812 22.941406 23.351562 C 23.546875 23.742188 24.09375 24.09375 24.644531 24.449219 C 25.152344 24.046875 25.628906 23.667969 26.15625 23.246094 C 25.582031 22.871094 25.050781 22.527344 24.472656 22.15625 Z M 29.824219 23.253906 C 30.382812 23.679688 30.882812 24.066406 31.394531 24.460938 C 31.9375 24.042969 32.527344 23.761719 33.050781 23.300781 C 32.515625 22.898438 32.023438 22.53125 31.523438 22.152344 C 30.949219 22.523438 30.402344 22.878906 29.824219 23.253906 Z M 29.53125 25.824219 C 28.984375 25.382812 28.507812 24.996094 27.996094 24.585938 C 27.476562 25.007812 26.988281 25.402344 26.464844 25.832031 C 26.742188 26.066406 26.984375 26.273438 27.234375 26.46875 C 27.492188 26.679688 27.691406 26.96875 28.027344 27.117188 C 28.519531 26.695312 29.003906 26.28125 29.53125 25.824219 Z M 19.175781 23.503906 C 16.960938 22.34375 14.707031 21.617188 12.300781 21.128906 C 12.578125 20.597656 12.835938 20.109375 13.113281 19.578125 C 15.816406 20.050781 18.335938 20.972656 20.78125 22.171875 C 21.28125 21.796875 21.773438 21.429688 22.324219 21.019531 C 19.601562 19.636719 16.796875 18.765625 13.816406 18.238281 C 14.089844 17.710938 14.351562 17.207031 14.632812 16.660156 C 17.945312 17.242188 21.097656 18.277344 24.152344 19.777344 C 24.699219 19.445312 25.261719 19.109375 25.898438 18.730469 C 22.523438 17.0625 19.046875 15.957031 15.40625 15.367188 C 15.402344 15.304688 15.386719 15.257812 15.402344 15.226562 C 15.644531 14.746094 15.894531 14.269531 16.148438 13.769531 C 20.292969 14.453125 24.222656 15.742188 27.996094 17.601562 C 31.742188 15.75 35.679688 14.460938 39.835938 13.777344 C 40.082031 14.230469 40.332031 14.6875 40.574219 15.144531 C 40.597656 15.195312 40.589844 15.261719 40.601562 15.363281 C 36.96875 15.957031 33.5 17.046875 30.171875 18.699219 C 30.410156 18.996094 30.734375 19.078125 30.992188 19.257812 C 31.253906 19.4375 31.53125 19.597656 31.820312 19.777344 C 33.347656 19.050781 34.894531 18.398438 36.492188 17.878906 C 38.070312 17.367188 39.671875 16.953125 41.347656 16.660156 C 41.621094 17.167969 41.894531 17.671875 42.195312 18.226562 C 40.695312 18.5 39.265625 18.835938 37.863281 19.292969 C 36.453125 19.753906 35.078125 20.292969 33.722656 20.988281 C 34.140625 21.480469 34.71875 21.730469 35.132812 22.136719 C 36.429688 21.613281 37.671875 21.066406 38.949219 20.609375 C 40.207031 20.160156 41.492188 19.789062 42.832031 19.589844 C 43.238281 20.050781 43.398438 20.621094 43.722656 21.136719 C 41.308594 21.585938 39.046875 22.355469 36.828125 23.488281 C 39.792969 26.125 42.4375 28.972656 44.722656 32.148438 C 47 35.300781 48.945312 38.644531 50.601562 42.191406 C 49.570312 42.191406 48.589844 42.191406 47.585938 42.191406 C 45.667969 38.25 43.390625 34.539062 40.695312 31.089844 C 39.058594 29 37.253906 27.066406 35.316406 25.253906 C 35.128906 25.078125 34.917969 24.921875 34.707031 24.746094 C 34.105469 25.027344 33.628906 25.453125 33.066406 25.824219 C 33.359375 26.296875 33.792969 26.589844 34.144531 26.964844 C 34.484375 27.332031 34.851562 27.675781 35.195312 28.039062 C 35.554688 28.417969 35.90625 28.804688 36.246094 29.199219 C 36.574219 29.578125 36.890625 29.964844 37.207031 30.355469 C 37.535156 30.757812 37.859375 31.164062 38.179688 31.574219 C 38.5 31.984375 38.820312 32.398438 39.121094 32.820312 C 39.414062 33.226562 39.691406 33.648438 39.96875 34.0625 C 40.257812 34.496094 40.550781 34.925781 40.828125 35.363281 C 41.109375 35.804688 41.375 36.25 41.640625 36.699219 C 41.894531 37.128906 42.148438 37.558594 42.390625 37.996094 C 42.644531 38.449219 42.890625 38.910156 43.128906 39.371094 C 43.363281 39.8125 43.589844 40.257812 43.808594 40.710938 C 44.03125 41.175781 44.242188 41.648438 44.460938 42.121094 C 44.035156 42.238281 42.570312 42.265625 41.492188 42.179688 C 38.886719 36.722656 35.59375 31.710938 31.257812 27.429688 C 30.796875 27.617188 30.238281 28.105469 29.699219 28.800781 C 33.410156 32.707031 36.242188 37.207031 38.410156 42.179688 C 37.421875 42.179688 36.46875 42.179688 35.4375 42.179688 C 33.492188 38.015625 31.144531 34.035156 27.992188 30.511719 C 24.882812 34.03125 22.519531 37.960938 20.558594 42.179688 C 19.585938 42.179688 18.609375 42.179688 17.589844 42.179688 C 19.75 37.238281 22.550781 32.730469 26.292969 28.816406 C 26.117188 28.472656 25.828125 28.28125 25.59375 28.046875 C 25.367188 27.820312 25.125 27.609375 24.855469 27.363281 C 24.699219 27.5 24.5625 27.605469 24.441406 27.726562 C 22.722656 29.449219 21.160156 31.300781 19.742188 33.273438 C 17.832031 35.925781 16.167969 38.730469 14.75 41.671875 C 14.664062 41.851562 14.566406 42.023438 14.472656 42.195312 C 13.488281 42.195312 12.527344 42.195312 11.5 42.195312 C 14.3125 36.03125 17.996094 30.542969 22.960938 25.890625 C 22.488281 25.433594 21.898438 25.136719 21.324219 24.71875 C 21.042969 24.957031 20.761719 25.175781 20.5 25.417969 C 17.902344 27.855469 15.601562 30.546875 13.550781 33.453125 C 12 35.648438 10.617188 37.941406 9.371094 40.320312 C 9.046875 40.9375 8.71875 41.554688 8.386719 42.191406 C 7.398438 42.191406 6.417969 42.191406 5.398438 42.191406 C 7.050781 38.644531 8.988281 35.296875 11.269531 32.148438 C 13.558594 28.988281 16.167969 26.117188 19.175781 23.503906 "/>
</g>
</svg>
