<?xml version="1.0" encoding="UTF-8"?>
<svg xmlns="http://www.w3.org/2000/svg" xmlns:xlink="http://www.w3.org/1999/xlink" width="56pt" height="56pt" viewBox="0 0 56 56" version="1.1">
<g id="surface1">
<rect x="0" y="0" width="56" height="56" style="fill:rgb(95.66803%,95.779419%,96.777344%);fill-opacity:1;stroke:none;"/>
<path style=" stroke:none;fill-rule:nonzero;fill:rgb(16.770935%,33.601379%,63.075256%);fill-opacity:1;" d="M 28.976562 33.386719 C 28.972656 34.777344 28.910156 36.625 29.886719 37.621094 C 30.898438 38.65625 33.070312 38.691406 34.515625 38.675781 L 50.679688 38.976562 L 38.234375 37.09375 C 37.1875 33.3125 34.152344 30.421875 30.296875 29.578125 L 28.976562 17.023438 Z M 34.304688 36.5 C 32.679688 36.277344 30.972656 35.527344 30.75 33.90625 L 30.351562 30.117188 C 33.867188 30.949219 36.648438 33.574219 37.683594 37.011719 L 34.304688 36.5 "/>
<path style=" stroke:none;fill-rule:nonzero;fill:rgb(16.770935%,33.601379%,63.075256%);fill-opacity:1;" d="M 25.707031 29.558594 C 21.84375 30.347656 18.796875 33.246094 17.753906 37.09375 L 5.320312 38.976562 L 21.484375 38.675781 C 22.929688 38.691406 25.101562 38.652344 26.113281 37.621094 C 27.089844 36.625 27.027344 34.777344 27.023438 33.386719 L 27.023438 17.023438 Z M 25.648438 30.097656 L 25.25 33.90625 C 25.027344 35.527344 23.316406 36.277344 21.695312 36.5 L 18.300781 37.011719 C 19.335938 33.511719 22.125 30.878906 25.648438 30.097656 "/>
</g>
</svg>
