<?xml version="1.0" encoding="UTF-8"?>
<svg xmlns="http://www.w3.org/2000/svg" xmlns:xlink="http://www.w3.org/1999/xlink" width="56pt" height="56pt" viewBox="0 0 56 56" version="1.1">
<g id="surface1">
<rect x="0" y="0" width="56" height="56" style="fill:rgb(95.66803%,95.779419%,96.777344%);fill-opacity:1;stroke:none;"/>
<path style=" stroke:none;fill-rule:nonzero;fill:rgb(21.534729%,58.930969%,34.725952%);fill-opacity:1;" d="M 41.589844 22.3125 C 41.351562 22.734375 41.140625 23.121094 40.734375 23.847656 C 41.769531 23.542969 42.449219 23.34375 43.15625 23.136719 C 43.203125 22.753906 43.234375 22.472656 43.289062 21.996094 C 42.609375 22.125 42.109375 22.21875 41.589844 22.3125 Z M 33.980469 25.53125 C 34.4375 24.808594 34.796875 24.140625 35.316406 23.316406 C 34.496094 23.480469 34.042969 23.53125 33.445312 23.652344 C 32.917969 24.367188 32.328125 25.1875 31.796875 25.90625 C 31.859375 25.972656 31.917969 26.039062 31.976562 26.109375 C 32.613281 25.925781 33.253906 25.738281 33.980469 25.53125 Z M 8.292969 28.003906 C 9.078125 27.804688 9.742188 27.632812 10.503906 27.4375 C 10.402344 26.917969 10.316406 26.46875 10.230469 26.03125 C 11.90625 24.21875 13.554688 22.4375 15.207031 20.652344 C 15.289062 20.71875 53.753906 20.167969 54.058594 20.355469 C 48.503906 22.472656 42.949219 24.59375 37.128906 26.816406 C 37.515625 25.984375 37.777344 25.421875 38.113281 24.703125 C 37.265625 24.804688 36.589844 25.019531 35.933594 25.386719 C 35.4375 26.195312 34.941406 27.011719 34.394531 27.90625 C 32.546875 28.582031 30.660156 29.273438 28.386719 30.109375 C 29.089844 28.789062 29.613281 27.804688 30.257812 26.59375 C 29.378906 26.886719 28.742188 27.09375 28.074219 27.316406 C 27.480469 28.488281 26.882812 29.667969 26.316406 30.792969 C 21.800781 32.472656 17.40625 34.105469 12.917969 35.777344 C 12.085938 34.496094 11.277344 33.257812 10.386719 31.894531 C 7.71875 32.601562 5.070312 33.304688 2.023438 34.113281 C 4.28125 31.914062 6.273438 29.972656 8.292969 28.003906 "/>
<path style=" stroke:none;fill-rule:nonzero;fill:rgb(6.266785%,5.734253%,5.047607%);fill-opacity:1;" d="M 28.386719 30.109375 L 30.183594 26.523438 L 36.28125 24.597656 L 34.394531 27.90625 L 28.386719 30.109375 "/>
<path style=" stroke:none;fill-rule:nonzero;fill:rgb(18.540955%,37.870789%,71.298218%);fill-opacity:1;" d="M 1.941406 34.226562 L 8.695312 27.8125 L 35.316406 23.316406 L 34.035156 25.5625 L 1.941406 34.226562 "/>
<path style=" stroke:none;fill-rule:nonzero;fill:rgb(72.009277%,76.251221%,17.778015%);fill-opacity:1;" d="M 34.035156 25.5625 C 33.308594 25.769531 31.53125 26.238281 31.53125 26.238281 C 31.53125 26.238281 32.917969 24.367188 33.445312 23.652344 C 34.042969 23.53125 34.496094 23.480469 35.316406 23.316406 C 34.796875 24.140625 34.492188 24.839844 34.035156 25.5625 "/>
<path style=" stroke:none;fill-rule:nonzero;fill:rgb(6.266785%,5.734253%,5.047607%);fill-opacity:1;" d="M 35.316406 23.316406 L 41.589844 22.3125 L 40.734375 23.847656 L 34.035156 25.5625 L 35.316406 23.316406 "/>
<path style=" stroke:none;fill-rule:nonzero;fill:rgb(72.009277%,76.251221%,17.778015%);fill-opacity:1;" d="M 41.589844 22.3125 C 42.109375 22.21875 42.609375 22.125 43.289062 21.996094 C 43.234375 22.472656 43.203125 22.753906 43.15625 23.136719 C 42.449219 23.34375 41.769531 23.542969 40.734375 23.847656 C 41.140625 23.121094 41.351562 22.734375 41.589844 22.3125 "/>
<path style=" stroke:none;fill-rule:nonzero;fill:rgb(15.44342%,26.208496%,57.312012%);fill-opacity:1;" d="M 12.851562 35.832031 L 28.386719 30.109375 L 30.257812 26.59375 L 10.386719 31.894531 L 12.851562 35.832031 "/>
<path style=" stroke:none;fill-rule:nonzero;fill:rgb(72.009277%,76.251221%,17.778015%);fill-opacity:1;" d="M 34.394531 27.90625 L 37.277344 26.757812 L 38.195312 24.496094 L 36.023438 25.089844 L 34.394531 27.90625 "/>
<path style=" stroke:none;fill-rule:nonzero;fill:rgb(72.009277%,76.251221%,17.778015%);fill-opacity:1;" d="M 30.257812 26.59375 L 28.386719 30.109375 L 26.488281 30.808594 L 28.25 27.085938 L 30.257812 26.59375 "/>
<path style=" stroke:none;fill-rule:nonzero;fill:rgb(13.414001%,38.96637%,35.456848%);fill-opacity:1;" d="M 10.230469 26.03125 L 53.628906 20.167969 L 10.503906 27.4375 Z M 10.230469 26.03125 "/>
<path style=" stroke:none;fill-rule:nonzero;fill:rgb(13.414001%,38.96637%,35.456848%);fill-opacity:1;" d="M 37.277344 26.757812 L 54.058594 20.355469 L 38.195312 24.496094 Z M 37.277344 26.757812 "/>
</g>
</svg>
