<?xml version="1.0" encoding="UTF-8"?>
<svg xmlns="http://www.w3.org/2000/svg" xmlns:xlink="http://www.w3.org/1999/xlink" width="37.57pt" height="39.65pt" viewBox="0 0 37.57 39.65" version="1.1">
<defs>
<clipPath id="clip1">
  <path d="M 2 0 L 37.570312 0 L 37.570312 39.648438 L 2 39.648438 Z M 2 0 "/>
</clipPath>
<clipPath id="clip2">
  <path d="M 0 23 L 26 23 L 26 39.648438 L 0 39.648438 Z M 0 23 "/>
</clipPath>
</defs>
<g id="surface1">
<g clip-path="url(#clip1)" clip-rule="nonzero">
<path style=" stroke:none;fill-rule:nonzero;fill:rgb(63.726807%,9.707642%,20.39032%);fill-opacity:1;" d="M 28.078125 12.378906 C 28.945312 13.308594 30.207031 14.164062 30.980469 14.398438 C 30.851562 13.617188 31.335938 13.125 31.820312 12.707031 C 31.507812 12.515625 31.21875 12.347656 30.9375 12.164062 C 30.652344 11.980469 30.347656 11.882812 30.011719 11.867188 C 30.265625 12.085938 30.617188 12.1875 30.742188 12.605469 C 29.792969 13.011719 28.953125 12.523438 28.078125 12.378906 Z M 26.796875 9.082031 C 26.824219 9.050781 26.851562 9.019531 26.878906 8.988281 C 26.621094 8.734375 26.382812 8.464844 26.105469 8.230469 C 25.613281 7.816406 25.085938 7.46875 24.429688 7.351562 C 23.65625 7.214844 22.671875 7.832031 22.582031 8.574219 C 22.472656 9.484375 22.820312 10.25 23.453125 11.0625 C 23.367188 10.460938 23.304688 10.003906 23.238281 9.519531 C 23.265625 9.417969 23.292969 9.296875 23.328125 9.171875 C 23.515625 8.402344 23.964844 8.105469 24.738281 8.273438 C 25.089844 8.351562 25.441406 8.449219 25.773438 8.582031 C 26.125 8.722656 26.457031 8.914062 26.796875 9.082031 Z M 20.691406 17.503906 C 21.3125 16.515625 22.128906 15.875 22.992188 15.28125 C 23.445312 14.972656 23.734375 14.507812 23.902344 13.988281 C 24.039062 13.5625 24.058594 13.117188 23.804688 12.644531 C 23.332031 14.078125 22.554688 15.191406 21.136719 15.808594 C 20.675781 15.109375 20.941406 14.472656 21.199219 13.832031 C 21.003906 13.964844 20.851562 14.117188 20.691406 14.257812 C 20.382812 14.527344 20.242188 14.867188 20.226562 15.277344 C 20.203125 16.007812 20.285156 16.714844 20.691406 17.503906 Z M 26.601562 6.183594 C 26.546875 6.121094 26.496094 6.050781 26.441406 5.992188 C 25.738281 5.265625 24.925781 4.695312 24.058594 4.179688 C 22.722656 3.386719 21.261719 2.988281 19.757812 2.847656 C 18.574219 2.734375 17.367188 2.71875 16.183594 2.957031 C 16.105469 2.972656 16.03125 3.027344 15.957031 3.066406 C 16.425781 3.1875 16.871094 3.160156 17.308594 3.21875 C 18.339844 3.359375 19.371094 3.523438 20.394531 3.710938 C 22.617188 4.121094 24.722656 4.832031 26.601562 6.183594 Z M 7.761719 10.964844 C 8.046875 10.75 8.320312 10.515625 8.617188 10.324219 C 10.375 9.191406 12.3125 8.574219 14.378906 8.339844 C 14.96875 8.273438 15.570312 8.261719 16.15625 8.171875 C 16.925781 8.058594 17.683594 8.042969 18.449219 8.175781 C 18.828125 8.238281 19.214844 8.230469 19.746094 8.171875 C 18.179688 7.601562 16.707031 7.378906 15.214844 7.335938 C 14.457031 7.3125 13.6875 7.4375 12.933594 7.574219 C 10.753906 7.972656 9.054688 9.15625 7.761719 10.964844 Z M 18.421875 13.488281 C 17.359375 14.269531 16.574219 15.265625 16.078125 16.476562 C 15.859375 17.011719 15.734375 17.570312 15.753906 18.160156 C 15.78125 19.183594 16.324219 19.949219 17.285156 20.308594 C 18.136719 20.628906 19.035156 20.710938 19.921875 20.785156 C 21.148438 20.890625 22.328125 21.140625 23.46875 21.574219 C 23.558594 21.609375 23.652344 21.636719 23.742188 21.667969 C 23.761719 21.632812 23.777344 21.59375 23.792969 21.554688 C 23.332031 21.308594 22.886719 21.007812 22.394531 20.824219 C 21.277344 20.398438 20.132812 20.035156 19.003906 19.636719 C 18.582031 19.488281 18.164062 19.328125 17.761719 19.132812 C 16.527344 18.53125 16.320312 17.5 16.675781 16.59375 C 16.859375 16.117188 17.066406 15.644531 17.320312 15.203125 C 17.65625 14.613281 18.050781 14.058594 18.421875 13.488281 Z M 13.535156 17.480469 C 12.972656 17.941406 12.558594 18.414062 12.238281 18.976562 C 11.777344 19.785156 11.445312 20.648438 11.316406 21.558594 C 11.234375 22.121094 11.261719 22.71875 11.351562 23.277344 C 11.613281 24.894531 12.566406 26.066406 13.867188 26.992188 C 15.070312 27.847656 16.425781 28.359375 17.824219 28.785156 C 17.945312 28.824219 18.078125 28.839844 18.203125 28.863281 C 17.082031 28.238281 16.03125 27.554688 15.046875 26.761719 C 14.199219 26.078125 13.535156 25.25 13.023438 24.304688 C 12.660156 23.628906 12.441406 22.898438 12.390625 22.105469 C 12.339844 21.265625 12.363281 20.449219 12.65625 19.65625 C 12.914062 18.960938 13.210938 18.277344 13.535156 17.480469 Z M 30.109375 33.84375 C 30.296875 33.449219 30.394531 33.0625 30.402344 32.65625 C 30.425781 31.003906 29.726562 29.675781 28.5 28.625 C 27.371094 27.660156 26.0625 26.976562 24.671875 26.457031 C 23.03125 25.839844 21.339844 25.398438 19.613281 25.074219 C 19.492188 25.050781 19.363281 25.074219 19.238281 25.074219 C 19.746094 25.324219 20.246094 25.511719 20.742188 25.699219 C 22.105469 26.214844 23.414062 26.839844 24.699219 27.523438 C 25.796875 28.105469 26.816406 28.796875 27.761719 29.609375 C 28.589844 30.320312 29.265625 31.125 29.65625 32.140625 C 29.855469 32.667969 29.953125 33.238281 30.109375 33.84375 Z M 7.789062 19.132812 C 7.90625 18.980469 8.042969 18.839844 8.136719 18.675781 C 9.238281 16.777344 10.792969 15.292969 12.496094 13.953125 C 13.109375 13.464844 13.757812 13.019531 14.5 12.46875 C 14.210938 12.484375 14.042969 12.457031 13.898438 12.503906 C 13.410156 12.660156 12.917969 12.808594 12.453125 13.023438 C 10.414062 13.96875 9.035156 15.539062 8.199219 17.601562 C 8 18.09375 7.730469 18.574219 7.796875 19.136719 C 7.765625 19.175781 7.734375 19.21875 7.785156 19.152344 C 7.761719 19.234375 7.773438 19.183594 7.789062 19.132812 Z M 28.527344 39.453125 C 28.417969 36.660156 27.527344 34.320312 25.34375 32.558594 C 25.707031 33.394531 26.105469 34.1875 26.402344 35.015625 C 26.707031 35.863281 26.792969 36.75 26.578125 37.757812 C 26.351562 37.511719 26.167969 37.347656 26.027344 37.152344 C 25.300781 36.15625 24.3125 35.492188 23.265625 34.902344 C 21.683594 34.019531 19.953125 33.527344 18.230469 33.007812 C 16.59375 32.515625 14.953125 32.023438 13.347656 31.441406 C 12.160156 31.007812 11.082031 30.363281 10.175781 29.433594 C 9.351562 28.59375 8.851562 27.601562 8.574219 26.484375 C 8.257812 25.210938 8.222656 23.914062 8.390625 22.613281 C 7.9375 22.863281 7.621094 23.355469 7.296875 24.578125 C 7.105469 25.3125 7.042969 26.082031 6.917969 26.867188 C 6.816406 26.785156 6.675781 26.703125 6.578125 26.585938 C 5.351562 25.082031 4.488281 23.402344 4.226562 21.464844 C 4.152344 20.925781 4.234375 20.359375 4.292969 19.808594 C 4.347656 19.28125 4.445312 18.753906 4.558594 18.234375 C 4.808594 17.09375 5.273438 16.042969 5.914062 15.066406 C 5.976562 14.964844 6.03125 14.859375 6.050781 14.71875 C 5.199219 15.054688 4.585938 15.695312 3.984375 16.335938 C 3.375 16.976562 2.804688 17.65625 2.15625 18.386719 C 2.09375 18.15625 2.027344 18.023438 2.019531 17.886719 C 1.941406 16.121094 2.070312 14.382812 2.675781 12.707031 C 3.113281 11.488281 3.75 10.390625 4.597656 9.402344 C 6.15625 7.585938 8.144531 6.472656 10.410156 5.839844 C 11.414062 5.5625 12.449219 5.382812 13.503906 5.382812 C 13.609375 5.382812 13.714844 5.371094 13.964844 5.355469 C 13.320312 5.09375 12.78125 5.027344 12.246094 5.011719 C 11.410156 4.980469 10.574219 4.988281 9.738281 5.007812 C 9.273438 5.019531 8.804688 5.09375 8.339844 5.125 C 8.195312 5.136719 8.046875 5.113281 7.84375 5.101562 C 8.199219 4.410156 8.738281 3.953125 9.269531 3.507812 C 10.703125 2.3125 12.378906 1.652344 14.195312 1.308594 C 15.144531 1.128906 16.105469 1.148438 17.066406 1.132812 C 18.464844 1.113281 19.839844 1.269531 21.179688 1.667969 C 21.644531 1.804688 22.101562 1.980469 22.589844 2.148438 C 22.144531 1.476562 21.160156 1.035156 18.589844 0.257812 C 18.929688 0.210938 19.269531 0.152344 19.609375 0.121094 C 20.203125 0.0703125 20.800781 -0.0195312 21.394531 0.00390625 C 22.878906 0.0625 24.328125 0.300781 25.65625 1.023438 C 27.183594 1.855469 28.351562 3.035156 29.074219 4.632812 C 29.335938 5.214844 29.566406 5.808594 29.800781 6.378906 C 30.050781 5.414062 29.746094 4.285156 28.808594 2.761719 C 29.21875 2.71875 29.492188 2.976562 29.777344 3.15625 C 30.417969 3.5625 30.921875 4.09375 31.230469 4.8125 C 31.53125 5.496094 31.472656 6.195312 31.371094 6.890625 C 31.273438 7.597656 30.945312 8.230469 30.59375 8.847656 C 30.539062 8.9375 30.484375 9.023438 30.410156 9.144531 C 30.539062 9.25 30.640625 9.355469 30.761719 9.429688 C 31.53125 9.90625 32.082031 10.605469 32.519531 11.355469 C 33.042969 12.261719 33.84375 12.835938 34.613281 13.472656 C 35.683594 14.355469 36.761719 15.238281 37.574219 16.425781 C 37.265625 17.121094 36.574219 16.886719 35.976562 16.992188 C 36.226562 17.226562 36.4375 17.402344 36.617188 17.601562 C 36.746094 17.742188 36.839844 17.917969 36.9375 18.082031 C 37.101562 18.355469 37.136719 18.640625 36.992188 18.9375 C 36.539062 19.875 34.929688 21.390625 33.410156 21.308594 C 32.417969 21.257812 31.476562 20.980469 30.628906 20.441406 C 30.175781 20.152344 29.734375 19.855469 29.238281 19.527344 C 27.167969 19.617188 25.441406 18.742188 23.945312 17.242188 C 24.023438 17.773438 24.585938 18.71875 25.085938 19.125 C 25.648438 19.582031 26.203125 20.070312 26.90625 20.292969 C 27.617188 20.519531 28.34375 20.691406 29.148438 20.910156 C 29.886719 22.113281 30.285156 23.503906 30.519531 25.089844 C 29.152344 24.238281 27.777344 23.753906 26.277344 23.59375 C 26.445312 23.6875 26.609375 23.789062 26.785156 23.871094 C 27.875 24.375 28.914062 24.957031 29.882812 25.671875 C 31.050781 26.539062 32.035156 27.5625 32.652344 28.894531 C 33.011719 29.675781 33.214844 30.488281 33.25 31.367188 C 33.34375 33.542969 32.515625 35.363281 31.214844 37.027344 C 30.535156 37.890625 29.789062 38.679688 28.851562 39.265625 C 28.78125 39.308594 28.710938 39.347656 28.527344 39.453125 "/>
</g>
<g clip-path="url(#clip2)" clip-rule="nonzero">
<path style=" stroke:none;fill-rule:nonzero;fill:rgb(12.95929%,16.265869%,35.101318%);fill-opacity:1;" d="M 25.679688 39.648438 C 25.5625 39.621094 25.441406 39.597656 25.328125 39.558594 C 23.90625 39.058594 22.433594 38.84375 20.949219 38.652344 C 20.210938 38.558594 19.476562 38.421875 18.738281 38.3125 C 18.003906 38.207031 17.261719 38.128906 16.523438 38.019531 C 15.703125 37.898438 14.882812 37.765625 14.0625 37.628906 C 12.5625 37.378906 11.101562 36.964844 9.675781 36.441406 C 8.042969 35.835938 6.535156 35.011719 5.160156 33.929688 C 3.679688 32.769531 2.574219 31.3125 1.71875 29.675781 C 0.972656 28.253906 0.492188 26.71875 0.214844 25.128906 C 0.140625 24.710938 0.0742188 24.289062 0 23.847656 C 0.578125 23.636719 1.109375 23.839844 1.636719 23.925781 C 2.179688 24.738281 2.695312 25.546875 3.253906 26.328125 C 3.640625 26.859375 4.085938 27.355469 4.507812 27.859375 C 4.78125 28.1875 5.042969 28.53125 5.351562 28.824219 C 7.109375 30.511719 9.082031 31.863281 11.34375 32.816406 C 13.085938 33.550781 14.890625 34.054688 16.699219 34.570312 C 18.199219 34.996094 19.695312 35.453125 21.152344 36.003906 C 22.710938 36.59375 24.0625 37.535156 25.183594 38.78125 C 25.394531 39.015625 25.5625 39.285156 25.753906 39.539062 C 25.726562 39.578125 25.703125 39.613281 25.679688 39.648438 "/>
</g>
<path style=" stroke:none;fill-rule:nonzero;fill:rgb(63.726807%,9.707642%,20.39032%);fill-opacity:1;" d="M 30.699219 21.503906 C 31.390625 21.785156 32.015625 22.101562 32.675781 22.289062 C 33.339844 22.476562 34.023438 22.320312 34.699219 22.101562 C 34.855469 22.78125 34.777344 23.386719 34.535156 23.960938 C 34.347656 24.414062 33.898438 24.625 33.429688 24.476562 C 33.109375 24.378906 32.789062 24.230469 32.519531 24.039062 C 31.726562 23.472656 31.078125 22.777344 30.769531 21.824219 C 30.738281 21.730469 30.726562 21.632812 30.699219 21.503906 "/>
<path style=" stroke:none;fill-rule:nonzero;fill:rgb(63.726807%,9.707642%,20.39032%);fill-opacity:1;" d="M 7.789062 19.132812 C 7.773438 19.183594 7.761719 19.234375 7.785156 19.152344 C 7.734375 19.21875 7.765625 19.175781 7.796875 19.136719 L 7.789062 19.132812 "/>
</g>
</svg>
