<?xml version="1.0" encoding="UTF-8"?>
<svg xmlns="http://www.w3.org/2000/svg" xmlns:xlink="http://www.w3.org/1999/xlink" width="56pt" height="56pt" viewBox="0 0 56 56" version="1.1">
<g id="surface1">
<rect x="0" y="0" width="56" height="56" style="fill:rgb(26.750183%,59.671021%,85.215759%);fill-opacity:1;stroke:none;"/>
<path style=" stroke:none;fill-rule:evenodd;fill:rgb(100%,100%,100%);fill-opacity:1;" d="M 35.359375 31.296875 C 35.441406 31.667969 35.488281 32.050781 35.605469 32.410156 C 35.734375 32.816406 35.984375 33.148438 36.425781 33.28125 C 36.78125 33.390625 37.113281 33.300781 37.429688 33.152344 C 37.84375 32.957031 38.179688 32.664062 38.488281 32.332031 C 38.792969 32 38.996094 31.621094 39.113281 31.191406 C 39.308594 30.480469 39.496094 29.773438 39.683594 29.058594 C 39.894531 28.273438 40.105469 27.488281 40.316406 26.703125 C 40.464844 26.152344 40.605469 25.597656 40.765625 25.046875 C 40.820312 24.855469 40.777344 24.6875 40.6875 24.53125 C 40.414062 24.058594 39.972656 23.914062 39.464844 23.980469 C 38.820312 24.066406 38.304688 24.421875 37.871094 24.878906 C 37.597656 25.171875 37.367188 25.503906 37.136719 25.832031 C 36.785156 26.328125 36.53125 26.875 36.300781 27.429688 C 36.019531 28.117188 35.78125 28.820312 35.636719 29.546875 C 35.523438 30.121094 35.453125 30.703125 35.359375 31.296875 Z M 34.199219 5.488281 C 34.242188 5.5 34.285156 5.511719 34.328125 5.515625 C 34.714844 5.554688 35.105469 5.578125 35.488281 5.632812 C 36.011719 5.703125 36.53125 5.78125 37.042969 5.886719 C 37.496094 5.976562 37.949219 6.089844 38.390625 6.21875 C 39.46875 6.535156 40.503906 6.972656 41.492188 7.503906 C 42.15625 7.859375 42.796875 8.257812 43.386719 8.722656 C 43.808594 9.050781 44.226562 9.390625 44.617188 9.761719 C 45.050781 10.171875 45.460938 10.613281 45.863281 11.054688 C 46.339844 11.578125 46.738281 12.15625 47.117188 12.753906 C 47.519531 13.386719 47.882812 14.039062 48.167969 14.730469 C 48.425781 15.351562 48.667969 15.980469 48.886719 16.617188 C 49.128906 17.3125 49.296875 18.03125 49.417969 18.757812 C 49.492188 19.222656 49.554688 19.691406 49.613281 20.15625 C 49.652344 20.492188 49.683594 20.832031 49.695312 21.171875 C 49.714844 21.898438 49.730469 22.621094 49.71875 23.34375 C 49.714844 23.765625 49.65625 24.1875 49.613281 24.609375 C 49.582031 24.914062 49.558594 25.21875 49.496094 25.519531 C 49.382812 26.058594 49.253906 26.589844 49.109375 27.121094 C 48.917969 27.855469 48.621094 28.550781 48.300781 29.234375 C 47.824219 30.246094 47.253906 31.207031 46.578125 32.101562 C 46.34375 32.40625 46.074219 32.6875 45.820312 32.976562 C 45.167969 33.71875 44.359375 34.25 43.476562 34.667969 C 43.003906 34.890625 42.503906 35.019531 41.980469 35.066406 C 41.398438 35.117188 40.839844 35.046875 40.289062 34.863281 C 39.785156 34.699219 39.394531 34.394531 39.148438 33.917969 C 39.074219 33.777344 39.035156 33.613281 38.988281 33.476562 C 38.710938 33.679688 38.429688 33.902344 38.128906 34.101562 C 37.550781 34.484375 36.914062 34.746094 36.230469 34.863281 C 35.886719 34.917969 35.539062 34.972656 35.191406 34.96875 C 34.363281 34.96875 33.59375 34.746094 32.925781 34.238281 C 32.511719 33.921875 32.175781 33.527344 31.925781 33.058594 C 31.714844 32.660156 31.566406 32.242188 31.472656 31.804688 C 31.363281 31.304688 31.347656 30.796875 31.386719 30.289062 C 31.453125 29.425781 31.675781 28.597656 32.03125 27.804688 C 32.34375 27.113281 32.71875 26.464844 33.203125 25.882812 C 33.496094 25.53125 33.789062 25.179688 34.117188 24.863281 C 34.632812 24.367188 35.203125 23.941406 35.832031 23.589844 C 36.390625 23.277344 36.972656 23.023438 37.597656 22.882812 C 37.925781 22.808594 38.261719 22.761719 38.597656 22.722656 C 38.824219 22.695312 39.058594 22.6875 39.289062 22.695312 C 39.808594 22.707031 40.308594 22.828125 40.785156 23.035156 C 41.28125 23.253906 41.738281 23.535156 42.167969 23.859375 C 42.242188 23.914062 42.308594 23.921875 42.394531 23.886719 C 43.207031 23.578125 44.019531 23.273438 44.828125 22.964844 C 44.894531 22.9375 44.957031 22.910156 45.023438 22.894531 C 45.164062 22.855469 45.246094 22.910156 45.226562 23.058594 C 45.199219 23.246094 45.148438 23.429688 45.101562 23.617188 C 44.808594 24.722656 44.519531 25.832031 44.222656 26.9375 C 43.921875 28.058594 43.609375 29.179688 43.308594 30.300781 C 43.109375 31.035156 42.914062 31.769531 42.730469 32.503906 C 42.691406 32.65625 42.679688 32.820312 42.738281 32.984375 C 42.832031 33.246094 43.148438 33.351562 43.378906 33.328125 C 43.515625 33.316406 43.652344 33.300781 43.785156 33.269531 C 44.046875 33.203125 44.285156 33.074219 44.496094 32.902344 C 45.09375 32.417969 45.53125 31.804688 45.917969 31.148438 C 46.460938 30.222656 46.84375 29.230469 47.148438 28.207031 C 47.398438 27.382812 47.597656 26.539062 47.789062 25.699219 C 47.867188 25.363281 47.867188 25.007812 47.910156 24.664062 C 48.011719 23.875 48.007812 23.082031 47.988281 22.292969 C 47.980469 21.84375 47.933594 21.394531 47.878906 20.945312 C 47.820312 20.449219 47.75 19.949219 47.65625 19.457031 C 47.566406 19.003906 47.449219 18.554688 47.324219 18.109375 C 47.058594 17.171875 46.691406 16.277344 46.238281 15.414062 C 45.859375 14.695312 45.414062 14.019531 44.921875 13.371094 C 44.464844 12.769531 43.941406 12.222656 43.386719 11.714844 C 42.960938 11.324219 42.492188 10.976562 42.023438 10.632812 C 41.378906 10.160156 40.675781 9.777344 39.949219 9.441406 C 39.214844 9.101562 38.460938 8.808594 37.667969 8.617188 C 37.082031 8.476562 36.492188 8.34375 35.898438 8.234375 C 35.53125 8.164062 35.160156 8.136719 34.789062 8.117188 C 34.078125 8.085938 33.363281 8.0625 32.652344 8.066406 C 32.234375 8.066406 31.820312 8.125 31.402344 8.171875 C 31.046875 8.207031 30.695312 8.253906 30.34375 8.3125 C 29.929688 8.382812 29.515625 8.449219 29.109375 8.554688 C 28.316406 8.765625 27.523438 8.980469 26.742188 9.238281 C 26.144531 9.433594 25.558594 9.683594 24.980469 9.933594 C 24.472656 10.15625 23.976562 10.402344 23.488281 10.65625 C 22.535156 11.152344 21.613281 11.710938 20.742188 12.34375 C 20.226562 12.71875 19.710938 13.101562 19.207031 13.492188 C 18.902344 13.734375 18.609375 13.996094 18.324219 14.261719 C 17.789062 14.765625 17.253906 15.265625 16.742188 15.792969 C 16.308594 16.242188 15.90625 16.722656 15.5 17.195312 C 14.789062 18.023438 14.160156 18.90625 13.574219 19.824219 C 13.273438 20.296875 12.988281 20.78125 12.714844 21.269531 C 12.453125 21.742188 12.191406 22.222656 11.96875 22.71875 C 11.671875 23.367188 11.398438 24.027344 11.136719 24.691406 C 10.789062 25.578125 10.527344 26.488281 10.3125 27.414062 C 10.195312 27.929688 10.105469 28.453125 10.019531 28.972656 C 9.953125 29.378906 9.898438 29.785156 9.855469 30.195312 C 9.820312 30.496094 9.808594 30.800781 9.796875 31.105469 C 9.78125 31.433594 9.765625 31.761719 9.769531 32.089844 C 9.777344 32.519531 9.789062 32.949219 9.824219 33.378906 C 9.910156 34.421875 10.082031 35.453125 10.359375 36.460938 C 10.550781 37.15625 10.789062 37.839844 11.078125 38.503906 C 11.453125 39.359375 11.898438 40.175781 12.445312 40.933594 C 12.738281 41.339844 13.050781 41.734375 13.378906 42.113281 C 13.6875 42.46875 14.011719 42.808594 14.359375 43.121094 C 14.765625 43.484375 15.195312 43.824219 15.632812 44.148438 C 16.480469 44.773438 17.417969 45.246094 18.367188 45.699219 C 19.238281 46.105469 20.132812 46.453125 21.066406 46.683594 C 21.476562 46.785156 21.890625 46.875 22.304688 46.953125 C 22.871094 47.0625 23.441406 47.125 24.015625 47.125 C 24.253906 47.125 24.488281 47.160156 24.722656 47.148438 C 25.164062 47.125 25.601562 47.078125 26.042969 47.039062 C 26.71875 46.980469 27.382812 46.828125 28.042969 46.675781 C 28.085938 46.667969 28.125 46.648438 28.183594 46.628906 C 27.988281 46.460938 27.804688 46.300781 27.621094 46.148438 C 27.378906 45.949219 27.132812 45.75 26.886719 45.546875 C 26.601562 45.3125 26.3125 45.078125 26.03125 44.835938 C 25.953125 44.769531 25.894531 44.683594 25.824219 44.609375 C 25.90625 44.566406 25.988281 44.519531 26.074219 44.484375 C 26.242188 44.421875 26.40625 44.335938 26.578125 44.3125 C 26.820312 44.285156 27.070312 44.296875 27.316406 44.316406 C 27.585938 44.335938 27.851562 44.382812 28.117188 44.414062 C 28.382812 44.449219 28.644531 44.484375 28.90625 44.519531 C 29.085938 44.542969 29.261719 44.5625 29.4375 44.582031 C 29.761719 44.621094 30.085938 44.660156 30.40625 44.691406 C 30.640625 44.714844 30.875 44.730469 31.109375 44.75 C 31.242188 44.761719 31.375 44.765625 31.507812 44.777344 C 31.996094 44.824219 32.457031 44.726562 32.90625 44.546875 C 33.367188 44.363281 33.828125 44.179688 34.28125 43.980469 C 35.003906 43.664062 35.714844 43.324219 36.4375 43.007812 C 36.675781 42.902344 36.925781 42.820312 37.203125 42.820312 C 37.574219 42.820312 37.679688 43.152344 37.578125 43.433594 C 37.476562 43.722656 37.238281 43.902344 37 44.078125 C 36.351562 44.554688 35.699219 45.03125 35.046875 45.507812 C 34.515625 45.898438 33.988281 46.289062 33.457031 46.675781 C 33.203125 46.859375 33.085938 47.125 33.03125 47.414062 C 32.988281 47.65625 32.96875 47.910156 32.976562 48.15625 C 32.988281 48.640625 33.027344 49.121094 33.054688 49.605469 C 33.066406 49.765625 33.074219 49.925781 33.082031 50.089844 C 33.089844 50.207031 33.035156 50.292969 32.941406 50.347656 C 32.851562 50.402344 32.757812 50.453125 32.660156 50.488281 C 32.515625 50.546875 32.402344 50.46875 32.300781 50.378906 C 32.011719 50.105469 31.726562 49.832031 31.429688 49.5625 C 31.050781 49.222656 30.664062 48.886719 30.28125 48.550781 C 30.277344 48.550781 30.273438 48.542969 30.269531 48.542969 C 30.148438 48.332031 29.988281 48.386719 29.792969 48.441406 C 29.035156 48.65625 28.269531 48.863281 27.503906 49.046875 C 26.972656 49.175781 26.433594 49.265625 25.894531 49.351562 C 25.535156 49.410156 25.171875 49.425781 24.8125 49.46875 C 23.882812 49.585938 22.945312 49.558594 22.007812 49.546875 C 21.59375 49.542969 21.175781 49.484375 20.761719 49.441406 C 20.386719 49.402344 20.015625 49.363281 19.644531 49.296875 C 19.164062 49.207031 18.675781 49.113281 18.207031 48.976562 C 17.496094 48.769531 16.78125 48.5625 16.101562 48.28125 C 15.398438 47.992188 14.722656 47.632812 14.058594 47.261719 C 13.53125 46.96875 13.027344 46.625 12.539062 46.269531 C 12.121094 45.960938 11.746094 45.601562 11.355469 45.261719 C 11.167969 45.097656 10.988281 44.929688 10.820312 44.753906 C 10.332031 44.234375 9.871094 43.695312 9.449219 43.117188 C 8.851562 42.296875 8.34375 41.421875 7.914062 40.503906 C 7.496094 39.617188 7.15625 38.703125 6.917969 37.75 C 6.804688 37.285156 6.6875 36.824219 6.59375 36.355469 C 6.527344 36.035156 6.488281 35.707031 6.445312 35.382812 C 6.394531 34.980469 6.351562 34.582031 6.308594 34.179688 C 6.296875 34.089844 6.308594 33.996094 6.304688 33.902344 C 6.300781 33.859375 6.285156 33.820312 6.277344 33.777344 C 6.277344 33.039062 6.277344 32.304688 6.277344 31.570312 C 6.285156 31.550781 6.300781 31.53125 6.304688 31.515625 C 6.332031 31.140625 6.355469 30.761719 6.390625 30.386719 C 6.429688 29.996094 6.464844 29.601562 6.53125 29.214844 C 6.652344 28.546875 6.769531 27.878906 6.9375 27.222656 C 7.128906 26.464844 7.355469 25.71875 7.59375 24.972656 C 7.902344 24.03125 8.277344 23.109375 8.710938 22.21875 C 9.082031 21.460938 9.460938 20.703125 9.886719 19.976562 C 10.34375 19.203125 10.855469 18.457031 11.355469 17.707031 C 11.910156 16.878906 12.539062 16.109375 13.183594 15.355469 C 13.539062 14.941406 13.910156 14.535156 14.289062 14.140625 C 14.59375 13.820312 14.914062 13.519531 15.238281 13.21875 C 15.636719 12.84375 16.035156 12.476562 16.445312 12.121094 C 16.820312 11.796875 17.191406 11.464844 17.589844 11.175781 C 18.347656 10.625 19.109375 10.085938 19.890625 9.574219 C 20.507812 9.171875 21.148438 8.800781 21.800781 8.457031 C 22.765625 7.941406 23.757812 7.480469 24.785156 7.097656 C 25.875 6.6875 26.976562 6.3125 28.117188 6.078125 C 28.914062 5.914062 29.710938 5.761719 30.511719 5.636719 C 30.988281 5.5625 31.480469 5.554688 31.964844 5.515625 C 31.992188 5.515625 32.023438 5.5 32.050781 5.488281 C 32.765625 5.488281 33.484375 5.488281 34.199219 5.488281 "/>
<path style=" stroke:none;fill-rule:evenodd;fill:rgb(100%,100%,100%);fill-opacity:1;" d="M 26.335938 19.957031 C 26.84375 19.898438 27.335938 19.839844 27.832031 19.789062 C 28.222656 19.746094 28.609375 19.710938 28.996094 19.675781 C 29.285156 19.652344 29.578125 19.632812 29.867188 19.621094 C 30.136719 19.613281 30.234375 19.746094 30.167969 20.003906 C 30.078125 20.355469 29.984375 20.707031 29.894531 21.058594 C 29.71875 21.714844 29.542969 22.367188 29.371094 23.023438 C 29.367188 23.042969 29.371094 23.066406 29.371094 23.109375 C 30.160156 23.109375 30.949219 23.109375 31.75 23.109375 C 31.660156 23.433594 31.578125 23.738281 31.496094 24.046875 C 31.46875 24.15625 31.425781 24.265625 31.410156 24.375 C 31.398438 24.484375 31.351562 24.507812 31.25 24.507812 C 30.492188 24.503906 29.734375 24.507812 28.960938 24.507812 C 28.882812 24.789062 28.804688 25.070312 28.726562 25.351562 C 28.535156 26.066406 28.34375 26.78125 28.152344 27.496094 C 27.980469 28.148438 27.808594 28.796875 27.636719 29.449219 C 27.441406 30.191406 27.242188 30.929688 27.042969 31.671875 C 26.960938 31.980469 26.851562 32.28125 26.855469 32.605469 C 26.859375 33.027344 27.222656 33.199219 27.550781 33.148438 C 28.078125 33.066406 28.503906 32.78125 28.933594 32.492188 C 28.960938 32.476562 28.988281 32.460938 29.03125 32.4375 C 29.128906 32.632812 29.246094 32.820312 29.316406 33.023438 C 29.351562 33.117188 29.328125 33.257812 29.277344 33.34375 C 29.078125 33.691406 28.761719 33.917969 28.4375 34.125 C 27.996094 34.410156 27.527344 34.652344 27.015625 34.78125 C 26.714844 34.855469 26.410156 34.90625 26.101562 34.949219 C 25.539062 35.023438 24.992188 34.925781 24.460938 34.726562 C 23.78125 34.472656 23.28125 34.03125 23.132812 33.289062 C 23.078125 33.023438 23.105469 32.734375 23.117188 32.457031 C 23.136719 31.875 23.308594 31.324219 23.453125 30.769531 C 23.625 30.097656 23.8125 29.425781 23.992188 28.757812 C 24.144531 28.175781 24.300781 27.597656 24.457031 27.019531 C 24.632812 26.351562 24.8125 25.683594 24.992188 25.019531 C 25.039062 24.851562 25.082031 24.6875 25.128906 24.507812 C 24.714844 24.507812 24.3125 24.507812 23.882812 24.507812 C 23.953125 24.246094 24.03125 24.007812 24.085938 23.761719 C 24.136719 23.535156 24.289062 23.410156 24.472656 23.308594 C 24.625 23.226562 24.789062 23.160156 24.941406 23.078125 C 25.296875 22.878906 25.570312 22.59375 25.707031 22.210938 C 25.832031 21.859375 25.917969 21.496094 26.019531 21.136719 C 26.125 20.746094 26.226562 20.355469 26.335938 19.957031 "/>
<path style=" stroke:none;fill-rule:evenodd;fill:rgb(100%,100%,100%);fill-opacity:1;" d="M 15.777344 23.332031 C 15.949219 23.332031 16.113281 23.335938 16.273438 23.332031 C 16.640625 23.324219 17.007812 23.332031 17.371094 23.300781 C 17.929688 23.253906 18.492188 23.195312 19.046875 23.105469 C 19.527344 23.027344 20 22.90625 20.472656 22.800781 C 20.621094 22.769531 20.761719 22.714844 20.910156 22.695312 C 21.035156 22.675781 21.113281 22.75 21.101562 22.882812 C 21.082031 23.066406 21.042969 23.25 20.996094 23.429688 C 20.746094 24.347656 20.492188 25.261719 20.238281 26.175781 C 20.054688 26.832031 19.863281 27.484375 19.679688 28.140625 C 19.464844 28.917969 19.253906 29.699219 19.035156 30.476562 C 18.875 31.054688 18.707031 31.632812 18.554688 32.210938 C 18.511719 32.371094 18.496094 32.542969 18.480469 32.710938 C 18.445312 33.046875 18.742188 33.285156 19.085938 33.210938 C 19.523438 33.113281 19.914062 32.90625 20.292969 32.640625 C 20.339844 32.714844 20.398438 32.792969 20.441406 32.878906 C 20.515625 33.023438 20.609375 33.164062 20.652344 33.316406 C 20.710938 33.539062 20.550781 33.707031 20.40625 33.839844 C 19.90625 34.292969 19.300781 34.574219 18.660156 34.769531 C 18.34375 34.863281 18.007812 34.902344 17.679688 34.949219 C 17.140625 35.019531 16.613281 34.933594 16.101562 34.753906 C 15.371094 34.492188 14.867188 33.992188 14.722656 33.21875 C 14.660156 32.878906 14.65625 32.5 14.730469 32.164062 C 14.957031 31.15625 15.230469 30.164062 15.488281 29.164062 C 15.652344 28.539062 15.816406 27.917969 15.980469 27.292969 C 16.15625 26.640625 16.339844 25.988281 16.496094 25.332031 C 16.601562 24.886719 16.503906 24.621094 16.015625 24.492188 C 15.667969 24.398438 15.535156 24.34375 15.632812 23.875 C 15.671875 23.695312 15.730469 23.515625 15.777344 23.332031 "/>
<path style=" stroke:none;fill-rule:evenodd;fill:rgb(100%,100%,100%);fill-opacity:1;" d="M 22.050781 19.207031 C 22.058594 19.886719 21.800781 20.457031 21.300781 20.910156 C 20.984375 21.199219 20.605469 21.363281 20.171875 21.410156 C 19.671875 21.464844 19.21875 21.355469 18.796875 21.097656 C 18.351562 20.828125 18.074219 20.429688 17.917969 19.933594 C 17.839844 19.675781 17.804688 19.417969 17.808594 19.148438 C 17.808594 18.648438 17.988281 18.210938 18.285156 17.820312 C 18.589844 17.417969 18.992188 17.144531 19.488281 17.039062 C 20.089844 16.90625 20.652344 17.039062 21.152344 17.398438 C 21.667969 17.765625 21.949219 18.28125 22.050781 18.898438 C 22.066406 19 22.050781 19.101562 22.050781 19.207031 "/>
</g>
</svg>
