<?xml version="1.0" encoding="UTF-8"?>
<svg xmlns="http://www.w3.org/2000/svg" xmlns:xlink="http://www.w3.org/1999/xlink" width="56pt" height="56pt" viewBox="0 0 56 56" version="1.1">
<g id="surface1">
<rect x="0" y="0" width="56" height="56" style="fill:rgb(88.731384%,11.027527%,17.459106%);fill-opacity:1;stroke:none;"/>
<path style=" stroke:none;fill-rule:nonzero;fill:rgb(100%,100%,100%);fill-opacity:1;" d="M 21.003906 32.027344 C 15.1875 30.183594 10.800781 26.761719 10.800781 20.277344 C 10.800781 10.785156 20.273438 5.351562 32.949219 5.320312 C 43.691406 5.28125 50.800781 9.757812 49.546875 18.691406 L 34.265625 18.691406 C 34.796875 16.246094 33.402344 14.859375 30.78125 14.859375 C 28.75 14.859375 27.183594 15.914062 26.929688 17.148438 C 26.574219 18.914062 27.707031 20.023438 30.445312 20.769531 C 32.753906 21.398438 34.332031 21.824219 36.601562 22.464844 C 43.066406 24.316406 46.15625 28.175781 46.957031 32.214844 L 27.75 34.195312 Z M 21.542969 42.328125 L 22.8125 36.234375 L 6.414062 36.234375 C 5.277344 46.550781 13.378906 50.679688 23.765625 50.679688 C 33.730469 50.679688 44.28125 47.355469 46.628906 38.253906 L 21.542969 42.328125 "/>
</g>
</svg>
