<?xml version="1.0" encoding="UTF-8"?>
<svg xmlns="http://www.w3.org/2000/svg" xmlns:xlink="http://www.w3.org/1999/xlink" width="56pt" height="56pt" viewBox="0 0 56 56" version="1.1">
<g id="surface1">
<rect x="0" y="0" width="56" height="56" style="fill:rgb(91.877747%,11.099243%,14.208984%);fill-opacity:1;stroke:none;"/>
<path style=" stroke:none;fill-rule:nonzero;fill:rgb(100%,100%,100%);fill-opacity:1;" d="M 47.574219 39.425781 C 47.574219 40.15625 47.085938 40.738281 46.359375 40.738281 L 9.6875 40.738281 C 8.960938 40.738281 8.429688 40.15625 8.429688 39.425781 L 8.429688 16.523438 C 8.429688 15.796875 8.960938 15.214844 9.6875 15.214844 L 46.359375 15.214844 C 47.085938 15.214844 47.574219 15.796875 47.574219 16.523438 Z M 46.359375 11.957031 L 9.6875 11.957031 C 7.167969 11.957031 5.082031 13.949219 5.082031 16.523438 L 5.082031 39.425781 C 5.082031 42.003906 7.167969 44.042969 9.6875 44.042969 L 46.359375 44.042969 C 48.832031 44.042969 50.917969 42.003906 50.917969 39.425781 L 50.917969 16.523438 C 50.917969 13.949219 48.832031 11.957031 46.359375 11.957031 "/>
<path style=" stroke:none;fill-rule:nonzero;fill:rgb(100%,100%,100%);fill-opacity:1;" d="M 36.171875 35.097656 L 34.378906 35.097656 L 34.378906 29.703125 L 36.222656 29.703125 C 38.210938 29.703125 39.566406 30.191406 39.566406 32.328125 C 39.566406 34.515625 37.96875 35.097656 36.171875 35.097656 Z M 34.378906 20.753906 L 35.78125 20.753906 C 37.433594 20.753906 38.984375 21.289062 38.984375 23.285156 C 38.984375 25.085938 37.777344 25.8125 36.125 25.8125 L 34.378906 25.8125 Z M 40.585938 27.515625 C 42.429688 26.589844 44.128906 25.136719 44.128906 23.089844 C 44.128906 19.152344 41.949219 17.5 37.921875 17.5 L 29.382812 17.5 L 29.382812 38.5 L 37.53125 38.5 C 41.316406 38.5 44.902344 36.703125 44.902344 32.425781 C 44.902344 29.800781 43.160156 28.242188 40.585938 27.515625 "/>
<path style=" stroke:none;fill-rule:nonzero;fill:rgb(100%,100%,100%);fill-opacity:1;" d="M 17.933594 35.097656 L 16.140625 35.097656 L 16.140625 20.808594 L 17.160156 20.808594 C 21.71875 20.808594 22.15625 24.109375 22.15625 28.339844 C 22.15625 32.960938 20.601562 35.097656 17.933594 35.097656 Z M 18.804688 17.5 L 11.097656 17.5 L 11.097656 38.5 L 18.804688 38.5 C 25.210938 38.453125 27.148438 33.984375 27.148438 27.902344 C 27.148438 20.902344 24.238281 17.5 18.804688 17.5 "/>
</g>
</svg>
