<?xml version="1.0" encoding="UTF-8"?>
<svg xmlns="http://www.w3.org/2000/svg" xmlns:xlink="http://www.w3.org/1999/xlink" width="56pt" height="56pt" viewBox="0 0 56 56" version="1.1">
<g id="surface1">
<rect x="0" y="0" width="56" height="56" style="fill:rgb(97.041321%,81.854248%,4.264832%);fill-opacity:1;stroke:none;"/>
<path style=" stroke:none;fill-rule:evenodd;fill:rgb(100%,100%,100%);fill-opacity:1;" d="M 30.988281 25.035156 C 27.546875 27.859375 25.023438 31.089844 20.554688 32.816406 C 22.089844 33.171875 24.078125 33.164062 26.371094 32.078125 C 32.40625 28.753906 37.261719 22.984375 44.640625 21.324219 C 39.558594 20.535156 34.445312 22.199219 30.988281 25.035156 "/>
<path style=" stroke:none;fill-rule:evenodd;fill:rgb(100%,100%,100%);fill-opacity:1;" d="M 10.421875 26.148438 C 11.082031 26.386719 11.730469 26.753906 12.371094 27.316406 C 17.550781 31.886719 20.609375 36.457031 28.257812 31.925781 C 30.890625 30.367188 36.710938 25.984375 40.0625 24.078125 C 41.289062 23.382812 42.507812 22.816406 43.691406 22.386719 C 43.679688 22.398438 43.675781 22.40625 43.675781 22.410156 C 43.683594 22.421875 43.699219 22.40625 43.726562 22.375 C 47.636719 20.96875 51.589844 21.28125 55.253906 23.226562 C 41.957031 23.566406 34.605469 35.582031 21.816406 34.695312 C 14.964844 34.328125 10.496094 26.488281 4.335938 26.277344 C 7.234375 25.472656 9.261719 25.777344 10.421875 26.148438 "/>
<path style=" stroke:none;fill-rule:evenodd;fill:rgb(100%,100%,100%);fill-opacity:1;" d="M 3.390625 26.835938 C 4.898438 26.742188 6.644531 27.164062 8.566406 28.371094 C 10.382812 29.511719 13.664062 31.960938 15.078125 32.90625 C 17.25 34.363281 19.304688 34.730469 19.304688 34.730469 C 12.472656 36.03125 7.808594 27.941406 0.746094 27.824219 C 1.566406 27.40625 2.425781 26.894531 3.390625 26.835938 "/>
<path style=" stroke:none;fill-rule:evenodd;fill:rgb(100%,100%,100%);fill-opacity:1;" d="M 23.164062 29.910156 C 22.246094 30.734375 21.175781 31.433594 19.980469 32.253906 C 25.980469 30.390625 28.132812 24.027344 35.15625 21.867188 C 29.78125 21.667969 26.15625 27.210938 23.164062 29.910156 "/>
</g>
</svg>
