<?xml version="1.0" encoding="UTF-8"?>
<svg xmlns="http://www.w3.org/2000/svg" xmlns:xlink="http://www.w3.org/1999/xlink" width="56pt" height="56pt" viewBox="0 0 56 56" version="1.1">
<g id="surface1">
<rect x="0" y="0" width="56" height="56" style="fill:rgb(78.662109%,4.724121%,50.524902%);fill-opacity:1;stroke:none;"/>
<path style=" stroke:none;fill-rule:nonzero;fill:rgb(100%,100%,100%);fill-opacity:1;" d="M 42.875 42.878906 L 42.925781 42.925781 C 42.308594 43.527344 41.578125 43.945312 40.804688 44.179688 C 37.066406 47.117188 32.527344 48.566406 28 48.53125 C 23.472656 48.566406 18.933594 47.117188 15.195312 44.179688 C 14.421875 43.945312 13.691406 43.527344 13.074219 42.925781 L 13.125 42.878906 C 12.496094 42.25 12.0625 41.5 11.820312 40.703125 C 8.882812 36.960938 7.433594 32.421875 7.46875 27.898438 C 7.433594 23.371094 8.882812 18.832031 11.820312 15.089844 C 12.042969 14.363281 12.425781 13.671875 12.972656 13.078125 L 13.019531 13.125 C 13.648438 12.496094 14.398438 12.0625 15.195312 11.820312 C 18.933594 8.882812 23.472656 7.433594 28 7.46875 C 32.527344 7.433594 37.066406 8.882812 40.804688 11.820312 C 41.601562 12.0625 42.351562 12.496094 42.980469 13.125 L 43.027344 13.078125 C 43.574219 13.671875 43.957031 14.363281 44.179688 15.089844 C 47.117188 18.832031 48.566406 23.371094 48.53125 27.898438 C 48.566406 32.421875 47.117188 36.960938 44.179688 40.703125 C 43.9375 41.5 43.503906 42.25 42.875 42.878906 Z M 50.679688 27.898438 C 50.71875 22.652344 48.953125 17.394531 45.378906 13.148438 C 44.785156 12.894531 44.230469 12.53125 43.746094 12.046875 L 43.703125 12.089844 C 43.292969 11.644531 42.972656 11.148438 42.746094 10.621094 C 38.503906 7.046875 33.246094 5.28125 28 5.320312 C 22.753906 5.28125 17.496094 7.046875 13.253906 10.621094 C 13.027344 11.148438 12.707031 11.644531 12.296875 12.089844 L 12.253906 12.046875 C 11.769531 12.53125 11.214844 12.894531 10.621094 13.148438 C 7.046875 17.394531 5.28125 22.652344 5.320312 27.898438 C 5.28125 33.144531 7.046875 38.402344 10.621094 42.644531 C 11.191406 42.890625 11.726562 43.238281 12.199219 43.699219 L 12.148438 43.746094 C 12.632812 44.230469 12.996094 44.785156 13.253906 45.378906 C 17.496094 48.953125 22.753906 50.71875 28 50.679688 C 33.246094 50.71875 38.503906 48.953125 42.746094 45.378906 C 43.003906 44.785156 43.367188 44.230469 43.851562 43.746094 L 43.800781 43.699219 C 44.273438 43.238281 44.808594 42.890625 45.378906 42.644531 C 48.953125 38.402344 50.71875 33.144531 50.679688 27.898438 "/>
<path style=" stroke:none;fill-rule:nonzero;fill:rgb(100%,100%,100%);fill-opacity:1;" d="M 40.65625 40.65625 L 40.695312 40.699219 C 40.171875 41.210938 39.550781 41.566406 38.894531 41.765625 C 35.710938 44.265625 31.851562 45.496094 28 45.464844 C 24.148438 45.496094 20.289062 44.265625 17.105469 41.765625 C 16.449219 41.566406 15.828125 41.210938 15.304688 40.699219 L 15.34375 40.65625 C 14.808594 40.121094 14.441406 39.484375 14.234375 38.808594 C 11.734375 35.625 10.503906 31.765625 10.535156 27.914062 C 10.503906 24.0625 11.734375 20.203125 14.234375 17.019531 C 14.425781 16.398438 14.753906 15.8125 15.21875 15.304688 L 15.257812 15.34375 C 15.789062 14.808594 16.429688 14.441406 17.105469 14.234375 C 20.289062 11.734375 24.148438 10.503906 28 10.535156 C 31.851562 10.503906 35.710938 11.734375 38.894531 14.234375 C 39.570312 14.441406 40.210938 14.808594 40.742188 15.34375 L 40.78125 15.304688 C 41.246094 15.8125 41.574219 16.398438 41.765625 17.019531 C 44.265625 20.203125 45.496094 24.0625 45.464844 27.914062 C 45.496094 31.765625 44.265625 35.625 41.765625 38.808594 C 41.558594 39.484375 41.191406 40.121094 40.65625 40.65625 Z M 47.292969 27.914062 C 47.328125 23.449219 45.828125 18.976562 42.78125 15.367188 C 42.28125 15.148438 41.804688 14.839844 41.394531 14.429688 L 41.355469 14.464844 C 41.011719 14.085938 40.738281 13.664062 40.546875 13.21875 C 36.9375 10.171875 32.464844 8.671875 28 8.707031 C 23.535156 8.671875 19.0625 10.171875 15.453125 13.21875 C 15.261719 13.664062 14.988281 14.085938 14.640625 14.464844 L 14.605469 14.429688 C 14.195312 14.839844 13.71875 15.152344 13.21875 15.367188 C 10.171875 18.976562 8.671875 23.449219 8.707031 27.914062 C 8.671875 32.375 10.171875 36.847656 13.21875 40.460938 C 13.703125 40.667969 14.15625 40.964844 14.558594 41.351562 L 14.515625 41.394531 C 14.925781 41.804688 15.238281 42.28125 15.453125 42.78125 C 19.0625 45.828125 23.535156 47.328125 28 47.292969 C 32.464844 47.328125 36.9375 45.828125 40.546875 42.78125 C 40.761719 42.28125 41.074219 41.804688 41.484375 41.394531 L 41.445312 41.351562 C 41.84375 40.964844 42.296875 40.667969 42.78125 40.460938 C 45.828125 36.847656 47.328125 32.375 47.292969 27.914062 "/>
<path style=" stroke:none;fill-rule:nonzero;fill:rgb(100%,100%,100%);fill-opacity:1;" d="M 38.546875 38.550781 L 38.585938 38.585938 C 38.144531 39.011719 37.628906 39.304688 37.082031 39.472656 C 34.425781 41.558594 31.210938 42.585938 28 42.558594 C 24.789062 42.585938 21.574219 41.558594 18.917969 39.472656 C 18.371094 39.304688 17.855469 39.011719 17.414062 38.585938 L 17.453125 38.550781 C 17.003906 38.105469 16.699219 37.574219 16.527344 37.007812 C 14.441406 34.355469 13.414062 31.136719 13.441406 27.925781 C 13.414062 24.71875 14.441406 21.5 16.527344 18.84375 C 16.683594 18.328125 16.957031 17.839844 17.34375 17.417969 L 17.378906 17.453125 C 17.824219 17.003906 18.355469 16.699219 18.917969 16.527344 C 21.574219 14.441406 24.789062 13.414062 28 13.441406 C 31.210938 13.414062 34.425781 14.441406 37.082031 16.527344 C 37.644531 16.699219 38.175781 17.003906 38.621094 17.453125 L 38.65625 17.417969 C 39.042969 17.839844 39.316406 18.328125 39.472656 18.84375 C 41.558594 21.5 42.585938 24.71875 42.558594 27.925781 C 42.585938 31.136719 41.558594 34.355469 39.472656 37.007812 C 39.300781 37.574219 38.992188 38.105469 38.546875 38.550781 Z M 44.085938 27.925781 C 44.109375 24.207031 42.859375 20.476562 40.324219 17.46875 C 39.902344 17.289062 39.507812 17.03125 39.164062 16.6875 L 39.136719 16.71875 C 38.84375 16.402344 38.617188 16.050781 38.457031 15.675781 C 35.449219 13.140625 31.71875 11.890625 28 11.917969 C 24.28125 11.890625 20.550781 13.140625 17.542969 15.675781 C 17.382812 16.050781 17.152344 16.402344 16.863281 16.71875 L 16.835938 16.6875 C 16.492188 17.03125 16.097656 17.289062 15.675781 17.46875 C 13.140625 20.476562 11.890625 24.207031 11.917969 27.925781 C 11.890625 31.648438 13.140625 35.378906 15.675781 38.386719 C 16.082031 38.558594 16.460938 38.808594 16.792969 39.132812 L 16.757812 39.164062 C 17.101562 39.507812 17.359375 39.902344 17.542969 40.324219 C 20.550781 42.859375 24.28125 44.109375 28 44.085938 C 31.71875 44.109375 35.449219 42.859375 38.457031 40.324219 C 38.640625 39.902344 38.898438 39.507812 39.238281 39.164062 L 39.207031 39.132812 C 39.539062 38.808594 39.917969 38.558594 40.324219 38.386719 C 42.859375 35.378906 44.109375 31.648438 44.085938 27.925781 "/>
</g>
</svg>
