<?xml version="1.0" encoding="UTF-8"?>
<svg xmlns="http://www.w3.org/2000/svg" xmlns:xlink="http://www.w3.org/1999/xlink" width="56pt" height="56pt" viewBox="0 0 56 56" version="1.1">
<g id="surface1">
<rect x="0" y="0" width="56" height="56" style="fill:rgb(95.666504%,95.776367%,96.775818%);fill-opacity:1;stroke:none;"/>
<path style=" stroke:none;fill-rule:nonzero;fill:rgb(15.760803%,34.454346%,65.127563%);fill-opacity:1;" d="M 28.078125 11.046875 C 18.730469 11.046875 11.128906 18.652344 11.128906 28 C 11.128906 37.347656 18.730469 44.953125 28.078125 44.953125 C 37.425781 44.953125 45.03125 37.347656 45.03125 28 C 45.03125 18.652344 37.425781 11.046875 28.078125 11.046875 Z M 28.078125 45.894531 C 18.210938 45.894531 10.183594 37.867188 10.183594 28 C 10.183594 18.132812 18.210938 10.105469 28.078125 10.105469 C 37.945312 10.105469 45.972656 18.132812 45.972656 28 C 45.972656 37.867188 37.945312 45.894531 28.078125 45.894531 "/>
<path style=" stroke:none;fill-rule:nonzero;fill:rgb(15.760803%,34.454346%,65.127563%);fill-opacity:1;" d="M 50.679688 40.683594 L 5.320312 40.683594 L 5.320312 39.609375 L 50.679688 39.609375 L 50.679688 40.683594 "/>
<path style=" stroke:none;fill-rule:nonzero;fill:rgb(93.03894%,91.239929%,2.400208%);fill-opacity:1;" d="M 8.183594 17.953125 L 29.492188 17.953125 C 29.492188 17.953125 38.832031 19.523438 38.671875 26.742188 C 38.671875 29.960938 36.554688 31 36.554688 31 L 33.808594 31 C 33.808594 31 37.183594 26.902344 34.75 22.9375 C 32.746094 19.675781 29.570312 19.523438 29.570312 19.523438 L 9.089844 19.128906 L 8.183594 17.953125 "/>
<path style=" stroke:none;fill-rule:nonzero;fill:rgb(15.760803%,34.454346%,65.127563%);fill-opacity:1;" d="M 8.773438 18.738281 L 28.707031 18.738281 C 28.707031 18.738281 35.140625 19.839844 35.140625 26.117188 C 35.140625 30.511719 31.765625 31 31.296875 31 C 28.46875 31 21.957031 31 21.957031 31 C 21.957031 31 31.988281 24.933594 17.875 21.40625 C 15.78125 20.882812 15.648438 21.113281 12.644531 20.832031 C 9.894531 20.574219 8.773438 18.738281 8.773438 18.738281 "/>
<path style=" stroke:none;fill-rule:nonzero;fill:rgb(15.760803%,34.454346%,65.127563%);fill-opacity:1;" d="M 20.109375 33.171875 L 21.648438 33.171875 L 18.8125 36.074219 L 18.113281 36.789062 C 18.054688 36.847656 18.011719 36.90625 17.972656 36.960938 C 17.828125 37.171875 17.820312 37.34375 17.941406 37.480469 C 18.0625 37.621094 18.332031 37.6875 18.742188 37.6875 C 19.113281 37.6875 19.453125 37.640625 19.765625 37.539062 C 20.074219 37.441406 20.363281 37.292969 20.632812 37.09375 C 20.898438 36.898438 21.261719 36.5625 21.722656 36.09375 L 24.578125 33.171875 L 26.117188 33.171875 L 23.261719 36.09375 C 22.660156 36.710938 22.128906 37.179688 21.671875 37.507812 C 21.214844 37.832031 20.675781 38.097656 20.058594 38.300781 C 19.445312 38.507812 18.769531 38.605469 18.042969 38.605469 C 17.167969 38.605469 16.605469 38.457031 16.351562 38.148438 C 16.097656 37.84375 16.132812 37.453125 16.460938 36.972656 C 16.53125 36.875 16.617188 36.765625 16.71875 36.648438 C 16.785156 36.570312 16.996094 36.351562 17.351562 35.984375 L 20.109375 33.171875 "/>
<path style=" stroke:none;fill-rule:nonzero;fill:rgb(15.760803%,34.454346%,65.127563%);fill-opacity:1;" d="M 27.746094 35.5 L 28.5625 35.5 C 29.390625 35.5 29.964844 35.464844 30.28125 35.394531 C 30.601562 35.324219 30.890625 35.214844 31.144531 35.0625 C 31.402344 34.914062 31.589844 34.753906 31.699219 34.589844 C 31.835938 34.394531 31.824219 34.25 31.667969 34.152344 C 31.574219 34.09375 31.296875 34.066406 30.84375 34.066406 L 29.148438 34.066406 Z M 24.796875 38.515625 L 23.253906 38.515625 L 28.480469 33.171875 L 31.808594 33.171875 C 32.382812 33.171875 32.796875 33.214844 33.058594 33.296875 C 33.320312 33.378906 33.46875 33.535156 33.515625 33.757812 C 33.554688 33.980469 33.46875 34.253906 33.25 34.570312 C 32.941406 35.027344 32.492188 35.402344 31.90625 35.695312 C 31.324219 35.992188 30.621094 36.175781 29.800781 36.246094 C 29.910156 36.371094 29.984375 36.539062 30.015625 36.742188 C 30.074219 37.160156 30.050781 37.753906 29.953125 38.515625 L 28.296875 38.515625 C 28.371094 38.214844 28.429688 37.742188 28.480469 37.105469 C 28.507812 36.761719 28.441406 36.527344 28.28125 36.410156 C 28.183594 36.339844 27.953125 36.300781 27.589844 36.300781 L 26.960938 36.300781 L 24.796875 38.515625 "/>
<path style=" stroke:none;fill-rule:nonzero;fill:rgb(15.760803%,34.454346%,65.127563%);fill-opacity:1;" d="M 37.691406 35.660156 L 41.042969 35.660156 L 38.796875 37.957031 C 38.277344 38.136719 37.6875 38.289062 37.027344 38.417969 C 36.363281 38.542969 35.738281 38.605469 35.140625 38.605469 C 34.214844 38.605469 33.605469 38.457031 33.316406 38.15625 C 32.921875 37.75 32.988281 37.160156 33.519531 36.382812 C 33.878906 35.863281 34.363281 35.363281 34.976562 34.890625 C 35.71875 34.316406 36.519531 33.867188 37.375 33.554688 C 38.230469 33.238281 39.09375 33.082031 39.957031 33.082031 C 40.824219 33.082031 41.417969 33.222656 41.746094 33.511719 C 42.074219 33.796875 42.132812 34.214844 41.925781 34.765625 L 40.410156 34.882812 C 40.492188 34.582031 40.445312 34.351562 40.265625 34.199219 C 40.089844 34.046875 39.789062 33.96875 39.363281 33.96875 C 38.867188 33.96875 38.347656 34.0625 37.804688 34.246094 C 37.261719 34.429688 36.742188 34.71875 36.242188 35.101562 C 35.742188 35.488281 35.335938 35.910156 35.023438 36.367188 C 34.714844 36.820312 34.632812 37.152344 34.769531 37.367188 C 34.910156 37.582031 35.253906 37.6875 35.804688 37.6875 C 36.136719 37.6875 36.496094 37.65625 36.890625 37.589844 C 37.285156 37.523438 37.640625 37.441406 37.953125 37.347656 L 38.726562 36.554688 L 36.816406 36.554688 L 37.691406 35.660156 "/>
</g>
</svg>
