<?xml version="1.0" encoding="UTF-8"?>
<svg xmlns="http://www.w3.org/2000/svg" xmlns:xlink="http://www.w3.org/1999/xlink" width="56pt" height="56pt" viewBox="0 0 56 56" version="1.1">
<g id="surface1">
<rect x="0" y="0" width="56" height="56" style="fill:rgb(18.888855%,68.093872%,27.774048%);fill-opacity:1;stroke:none;"/>
<path style=" stroke:none;fill-rule:nonzero;fill:rgb(100%,100%,100%);fill-opacity:1;" d="M 14.976562 28.171875 C 15.292969 28.035156 15.476562 27.863281 15.488281 27.542969 C 15.371094 27.210938 15.355469 26.804688 14.933594 26.625 C 14.523438 26.878906 14.414062 27.289062 14.277344 27.71875 C 14.515625 27.875 14.734375 28.015625 14.976562 28.171875 Z M 39.734375 17.808594 C 39.78125 18.074219 39.828125 18.335938 39.878906 18.628906 C 40.261719 18.886719 40.722656 18.527344 41.117188 18.738281 C 41.253906 18.941406 41.390625 19.144531 41.546875 19.378906 C 42.027344 19.328125 42.480469 19.320312 42.917969 19.222656 C 44.066406 18.964844 45.214844 18.992188 46.367188 19.132812 C 46.472656 19.148438 46.578125 19.179688 46.679688 19.210938 C 47.660156 19.503906 48.609375 19.957031 49.707031 19.746094 C 49.859375 20.027344 49.996094 20.273438 50.152344 20.558594 C 50.675781 20.894531 51.304688 21.074219 51.910156 21.304688 C 52.382812 21.488281 52.859375 21.65625 53.328125 21.847656 C 53.503906 21.917969 53.660156 22.046875 53.839844 22.160156 C 53.695312 22.464844 53.445312 22.511719 53.207031 22.578125 C 52.078125 22.898438 50.941406 23.203125 49.824219 23.554688 C 49.1875 23.757812 48.585938 24.054688 47.960938 24.289062 C 47.710938 24.386719 47.445312 24.484375 47.179688 24.5 C 46.152344 24.558594 45.121094 24.59375 44.09375 24.621094 C 43.882812 24.625 43.660156 24.574219 43.464844 24.5 C 43.15625 24.390625 42.863281 24.390625 42.570312 24.53125 C 42.503906 24.5625 42.433594 24.585938 42.375 24.625 C 41.734375 25.023438 41.039062 25.117188 40.292969 25.097656 C 39.667969 25.085938 39.042969 25.226562 38.433594 24.964844 C 38.34375 24.925781 38.222656 24.960938 38.097656 24.960938 C 37.882812 25.125 37.664062 25.285156 37.453125 25.453125 C 36.710938 26.054688 35.878906 26.390625 34.910156 26.386719 C 34.644531 26.386719 34.371094 26.4375 34.113281 26.507812 C 33.503906 26.675781 32.890625 26.789062 32.253906 26.832031 C 31.554688 26.878906 30.847656 26.933594 30.191406 27.242188 C 29.632812 27.503906 29.050781 27.523438 28.453125 27.320312 C 27.855469 27.117188 27.238281 26.960938 26.632812 26.792969 C 26.476562 26.75 26.3125 26.71875 26.152344 26.707031 C 25.957031 26.691406 25.757812 26.703125 25.542969 26.703125 C 25.378906 26.882812 25.21875 27.050781 25.046875 27.234375 C 24.738281 27.289062 24.464844 27.121094 24.195312 26.984375 C 23.710938 26.738281 23.222656 26.742188 22.722656 26.902344 C 22.363281 27.019531 22.007812 27.152344 21.648438 27.28125 C 21.382812 27.375 21.113281 27.402344 20.859375 27.269531 C 20.480469 27.066406 20.136719 27.082031 19.804688 27.371094 C 19.753906 27.417969 19.679688 27.4375 19.554688 27.496094 C 19.292969 27.332031 19.015625 27.152344 18.695312 26.949219 C 18.5 27.070312 18.308594 27.199219 18.101562 27.304688 C 17.75 27.484375 17.40625 27.683594 17.035156 27.808594 C 16.542969 27.980469 16.15625 28.234375 15.996094 28.753906 C 15.777344 29.46875 15.414062 30.109375 14.953125 30.710938 C 14.988281 31.207031 14.699219 31.519531 14.339844 31.789062 C 14.035156 32.015625 13.734375 32.25 13.425781 32.46875 C 13.03125 32.742188 12.933594 33.121094 13.039062 33.5625 C 13.207031 34.289062 13.601562 34.863281 14.300781 35.160156 C 14.84375 35.394531 15.164062 35.78125 15.335938 36.332031 C 15.441406 36.675781 15.601562 37.003906 15.734375 37.339844 C 15.839844 37.605469 15.9375 37.871094 16.058594 38.191406 C 15.144531 38.191406 14.296875 38.191406 13.410156 38.191406 C 13.277344 37.898438 13.117188 37.59375 12.992188 37.277344 C 12.820312 36.832031 12.574219 36.445312 12.230469 36.105469 C 11.933594 35.8125 11.652344 35.503906 11.398438 35.175781 C 11.234375 34.972656 11.132812 34.722656 10.996094 34.46875 C 11.144531 34.3125 11.230469 34.160156 11.363281 34.089844 C 11.875 33.828125 11.925781 33.375 11.898438 32.886719 C 11.875 32.453125 11.828125 32.023438 11.800781 31.589844 C 11.789062 31.410156 11.800781 31.230469 11.800781 31.054688 C 11.921875 30.914062 12.027344 30.792969 12.105469 30.703125 C 12.394531 30.640625 12.632812 30.59375 12.902344 30.535156 C 12.902344 30.238281 12.921875 29.988281 12.898438 29.738281 C 12.875 29.507812 12.804688 29.28125 12.753906 29.03125 C 12.46875 28.75 12.136719 28.476562 12.074219 28.035156 C 12.03125 27.75 12.023438 27.460938 12.011719 27.171875 C 12.003906 26.9375 12.023438 26.699219 11.757812 26.480469 C 11.570312 26.601562 11.351562 26.71875 11.160156 26.871094 C 10.324219 27.542969 9.316406 27.53125 8.53125 27.023438 C 7.726562 26.503906 6.945312 25.953125 6.15625 25.414062 C 6.023438 25.320312 5.886719 25.21875 5.789062 25.089844 C 5.367188 24.550781 4.789062 24.367188 4.132812 24.300781 C 3.761719 24.265625 3.382812 24.175781 3.027344 24.050781 C 2.339844 23.804688 2.101562 23.378906 2.171875 22.605469 C 2.492188 22.273438 2.925781 22.121094 3.355469 22 C 4.222656 21.757812 5.101562 21.539062 5.980469 21.347656 C 6.367188 21.265625 6.773438 21.296875 7.167969 21.253906 C 7.914062 21.171875 8.492188 20.878906 8.609375 20.0625 C 9.023438 20 9.023438 20 9.785156 20.449219 C 10.027344 20.414062 10.328125 20.386719 10.625 20.320312 C 10.972656 20.242188 11.238281 20.054688 11.433594 19.738281 C 11.933594 18.917969 12.453125 18.808594 13.292969 19.316406 C 13.621094 19.40625 13.925781 19.320312 14.222656 19.160156 C 14.589844 18.964844 14.960938 18.773438 15.335938 18.59375 C 16.1875 18.1875 17.011719 18.175781 17.761719 18.824219 C 18.292969 19.289062 18.894531 19.226562 19.5 19.074219 C 20.234375 18.886719 20.960938 18.664062 21.695312 18.476562 C 22.59375 18.25 23.457031 18.265625 24.210938 18.949219 C 24.351562 18.917969 24.507812 18.917969 24.625 18.847656 C 25.03125 18.613281 25.445312 18.640625 25.8125 18.867188 C 26.40625 19.230469 27.007812 19.199219 27.640625 19.050781 C 28.257812 18.90625 28.875 18.78125 29.5 18.671875 C 29.90625 18.605469 30.320312 18.585938 30.664062 18.550781 C 30.785156 18.628906 30.84375 18.648438 30.871094 18.6875 C 31.253906 19.195312 31.773438 19.3125 32.367188 19.25 C 32.796875 19.203125 33.230469 19.164062 33.71875 19.117188 C 33.871094 18.929688 34.050781 18.734375 34.203125 18.515625 C 34.597656 17.957031 34.890625 17.84375 35.546875 18.035156 C 35.753906 18.097656 35.960938 18.160156 36.148438 18.21875 C 36.34375 18.175781 36.523438 18.132812 36.699219 18.09375 C 37.109375 18.003906 37.519531 17.984375 37.921875 18.144531 C 38.527344 18.378906 39.042969 18.199219 39.519531 17.808594 C 39.589844 17.808594 39.660156 17.808594 39.734375 17.808594 "/>
</g>
</svg>
