<?xml version="1.0" encoding="UTF-8"?>
<svg xmlns="http://www.w3.org/2000/svg" xmlns:xlink="http://www.w3.org/1999/xlink" width="56pt" height="56pt" viewBox="0 0 56 56" version="1.1">
<g id="surface1">
<rect x="0" y="0" width="56" height="56" style="fill:rgb(95.66803%,95.779419%,96.777344%);fill-opacity:1;stroke:none;"/>
<path style=" stroke:none;fill-rule:nonzero;fill:rgb(14.167786%,41.143799%,19.20929%);fill-opacity:1;" d="M 41.664062 19.589844 C 39.625 20.578125 37.539062 21.460938 36 23.1875 C 36.007812 23.203125 36.015625 23.21875 36.027344 23.234375 C 36.191406 23.152344 36.359375 23.066406 36.527344 22.984375 C 38.273438 22.09375 40.058594 21.304688 41.945312 20.761719 C 43.449219 20.324219 44.972656 20.046875 46.550781 20.167969 C 47.285156 20.226562 48 20.378906 48.679688 20.671875 C 48.71875 20.6875 48.75 20.707031 48.777344 20.769531 C 48.679688 20.765625 48.585938 20.757812 48.488281 20.753906 C 46.578125 20.664062 44.71875 20.902344 42.96875 21.734375 C 41.351562 22.496094 40.09375 23.667969 39.09375 25.132812 C 38.605469 25.847656 38.207031 26.613281 37.851562 27.402344 C 37.347656 28.511719 36.726562 29.554688 36.0625 30.578125 C 34.886719 32.382812 33.519531 34.035156 31.984375 35.546875 C 29.878906 37.625 27.523438 39.378906 24.980469 40.882812 C 22.53125 42.332031 19.960938 43.527344 17.300781 44.535156 C 15.425781 45.246094 13.519531 45.863281 11.585938 46.398438 C 11.351562 46.460938 11.117188 46.523438 10.882812 46.585938 C 10.875 46.585938 10.859375 46.574219 10.824219 46.554688 C 10.878906 46.523438 10.914062 46.496094 10.960938 46.476562 C 13.816406 45.308594 16.285156 43.554688 18.503906 41.429688 C 20.671875 39.351562 22.550781 37.03125 24.253906 34.566406 C 25.960938 32.085938 27.605469 29.566406 29.289062 27.070312 C 30.457031 25.339844 31.660156 23.636719 33.097656 22.113281 C 34.050781 21.105469 35.089844 20.203125 36.355469 19.597656 C 38.089844 18.765625 39.832031 18.804688 41.585938 19.527344 C 41.605469 19.539062 41.625 19.558594 41.664062 19.589844 "/>
<path style=" stroke:none;fill-rule:nonzero;fill:rgb(96.438599%,52.571106%,8.074951%);fill-opacity:1;" d="M 23.925781 33.796875 C 23.875 33.570312 23.847656 33.382812 23.792969 33.207031 C 23.542969 32.351562 23.082031 31.605469 22.578125 30.886719 C 21.597656 29.476562 20.480469 28.175781 19.289062 26.945312 C 16.992188 24.574219 14.667969 22.222656 12.34375 19.878906 C 10.695312 18.214844 9.480469 16.28125 8.609375 14.121094 C 8.019531 12.660156 7.589844 11.152344 7.246094 9.617188 C 7.234375 9.566406 7.230469 9.511719 7.222656 9.457031 C 7.222656 9.449219 7.238281 9.4375 7.253906 9.414062 C 7.402344 9.636719 7.542969 9.859375 7.695312 10.074219 C 8.621094 11.359375 9.824219 12.351562 11.125 13.230469 C 12.6875 14.28125 14.359375 15.128906 16.035156 15.96875 C 17.910156 16.90625 19.800781 17.800781 21.597656 18.886719 C 22.769531 19.59375 23.882812 20.382812 24.835938 21.375 C 25.890625 22.46875 26.621094 23.734375 26.839844 25.257812 C 26.984375 26.296875 26.882812 27.320312 26.617188 28.328125 C 26.222656 29.851562 25.539062 31.242188 24.726562 32.578125 C 24.519531 32.921875 24.300781 33.257812 24.082031 33.59375 C 24.046875 33.65625 23.996094 33.707031 23.925781 33.796875 "/>
</g>
</svg>
