<?xml version="1.0" encoding="UTF-8"?>
<svg xmlns="http://www.w3.org/2000/svg" xmlns:xlink="http://www.w3.org/1999/xlink" width="56pt" height="56pt" viewBox="0 0 56 56" version="1.1">
<g id="surface1">
<rect x="0" y="0" width="56" height="56" style="fill:rgb(94.744873%,32.450867%,10.507202%);fill-opacity:1;stroke:none;"/>
<path style=" stroke:none;fill-rule:nonzero;fill:rgb(100%,100%,100%);fill-opacity:1;" d="M 26.652344 31.457031 L 26.652344 27.9375 L 26.734375 28.0625 L 29.347656 31.457031 L 31.675781 31.457031 L 31.675781 24.542969 L 29.347656 24.542969 L 29.347656 28.0625 L 29.265625 27.9375 L 26.652344 24.542969 L 24.320312 24.542969 L 24.320312 31.457031 L 26.652344 31.457031 "/>
<path style=" stroke:none;fill-rule:nonzero;fill:rgb(100%,100%,100%);fill-opacity:1;" d="M 9.878906 24.542969 L 17.238281 24.542969 L 17.238281 26.429688 L 15.261719 26.429688 L 14.785156 26.417969 L 14.785156 31.457031 L 12.332031 31.457031 L 12.332031 26.417969 L 11.855469 26.429688 L 9.878906 26.429688 L 9.878906 24.542969 "/>
<path style=" stroke:none;fill-rule:nonzero;fill:rgb(100%,100%,100%);fill-opacity:1;" d="M 38.761719 24.542969 L 46.121094 24.542969 L 46.121094 26.429688 L 44.144531 26.429688 L 43.667969 26.417969 L 43.667969 31.457031 L 41.214844 31.457031 L 41.214844 26.417969 L 40.738281 26.429688 L 38.761719 26.429688 L 38.761719 24.542969 "/>
<path style=" stroke:none;fill-rule:nonzero;fill:rgb(100%,100%,100%);fill-opacity:1;" d="M 42.441406 33.78125 C 45.902344 33.78125 48.710938 31.195312 48.710938 28 C 48.710938 24.804688 45.902344 22.21875 42.441406 22.21875 C 38.980469 22.21875 36.171875 24.804688 36.171875 28 C 36.171875 31.195312 38.980469 33.78125 42.441406 33.78125 M 28 33.78125 C 31.460938 33.78125 34.265625 31.195312 34.265625 28 C 34.265625 24.804688 31.460938 22.21875 28 22.21875 C 24.539062 22.21875 21.730469 24.804688 21.730469 28 C 21.730469 31.195312 24.539062 33.78125 28 33.78125 Z M 13.558594 33.78125 C 17.019531 33.78125 19.824219 31.195312 19.824219 28 C 19.824219 24.804688 17.019531 22.21875 13.558594 22.21875 C 10.097656 22.21875 7.292969 24.804688 7.292969 28 C 7.292969 31.195312 10.097656 33.78125 13.558594 33.78125 Z M 50.617188 28 C 50.617188 32.164062 46.957031 35.539062 42.441406 35.539062 C 39.308594 35.539062 36.59375 33.914062 35.21875 31.53125 C 33.847656 33.914062 31.128906 35.539062 28 35.539062 C 24.867188 35.539062 22.152344 33.914062 20.777344 31.53125 C 19.40625 33.914062 16.6875 35.539062 13.558594 35.539062 C 9.042969 35.539062 5.382812 32.164062 5.382812 28 C 5.382812 23.835938 9.042969 20.460938 13.558594 20.460938 C 16.6875 20.460938 19.40625 22.085938 20.777344 24.46875 C 22.152344 22.085938 24.867188 20.460938 28 20.460938 C 31.128906 20.460938 33.847656 22.085938 35.21875 24.46875 C 36.59375 22.085938 39.308594 20.460938 42.441406 20.460938 C 46.957031 20.460938 50.617188 23.835938 50.617188 28 "/>
</g>
</svg>
