<?xml version="1.0" encoding="UTF-8"?>
<svg xmlns="http://www.w3.org/2000/svg" xmlns:xlink="http://www.w3.org/1999/xlink" width="56pt" height="56pt" viewBox="0 0 56 56" version="1.1">
<g id="surface1">
<rect x="0" y="0" width="56" height="56" style="fill:rgb(95.66803%,95.779419%,96.777344%);fill-opacity:1;stroke:none;"/>
<path style=" stroke:none;fill-rule:nonzero;fill:rgb(95.507812%,82.554626%,65.594482%);fill-opacity:1;" d="M 40.859375 26.703125 C 40.070312 26.84375 39.277344 26.941406 38.472656 26.898438 C 37.21875 26.835938 36.097656 26.4375 35.160156 25.582031 C 34.980469 25.417969 34.808594 25.242188 34.632812 25.074219 C 35.039062 25.121094 35.164062 24.757812 35.355469 24.53125 C 35.726562 24.085938 36.050781 23.597656 36.398438 23.128906 C 36.714844 22.699219 37.015625 22.253906 37.351562 21.839844 C 37.960938 21.082031 38.574219 20.324219 39.394531 19.773438 C 40.308594 19.15625 41.335938 18.820312 42.414062 18.621094 C 44.132812 18.304688 45.746094 18.621094 47.273438 19.445312 C 48.351562 20.027344 49.226562 20.835938 49.949219 21.820312 C 50.324219 22.339844 50.617188 22.898438 50.792969 23.511719 C 50.855469 23.722656 50.804688 23.777344 50.585938 23.765625 C 50.566406 23.765625 50.550781 23.769531 50.535156 23.761719 C 49.6875 23.457031 48.804688 23.59375 47.9375 23.5625 C 46.621094 23.519531 45.382812 23.847656 44.195312 24.382812 C 43.753906 24.582031 43.300781 24.773438 42.898438 25.039062 C 42.226562 25.492188 41.554688 25.960938 41.019531 26.585938 C 40.976562 26.636719 40.914062 26.664062 40.859375 26.703125 "/>
<path style=" stroke:none;fill-rule:nonzero;fill:rgb(15.097046%,31.175232%,43.553162%);fill-opacity:1;" d="M 21.253906 30.804688 C 20.304688 32.023438 19.367188 33.246094 18.410156 34.453125 C 17.1875 35.992188 15.617188 36.996094 13.671875 37.347656 C 11.328125 37.769531 9.273438 37.105469 7.445312 35.625 C 6.59375 34.9375 5.953125 34.089844 5.464844 33.117188 C 5.363281 32.914062 5.289062 32.699219 5.179688 32.445312 C 5.5 32.484375 5.757812 32.515625 6.015625 32.554688 C 8.898438 33 11.464844 32.261719 13.726562 30.453125 C 14.628906 29.726562 15.492188 28.957031 16.371094 28.199219 C 17.570312 27.167969 18.953125 26.546875 20.527344 26.371094 C 22.679688 26.128906 24.617188 26.636719 26.257812 28.089844 C 26.644531 28.429688 26.976562 28.828125 27.335938 29.199219 C 26.925781 29.164062 26.503906 29.179688 26.109375 29.082031 C 25.355469 28.894531 24.628906 29.046875 23.914062 29.214844 C 22.871094 29.460938 21.9375 29.933594 21.253906 30.804688 "/>
<path style=" stroke:none;fill-rule:nonzero;fill:rgb(94.036865%,26.937866%,25.965881%);fill-opacity:1;" d="M 40.664062 26.78125 C 40.289062 27.382812 39.75 27.777344 39.242188 28.203125 C 38.40625 28.90625 37.414062 29.285156 36.355469 29.476562 C 35.535156 29.625 34.710938 29.652344 33.863281 29.550781 C 32.832031 29.425781 31.898438 29.054688 31.003906 28.578125 C 30.582031 28.351562 30.195312 28.046875 29.824219 27.738281 C 29.199219 27.210938 28.601562 26.644531 27.984375 26.109375 C 26.804688 25.082031 25.511719 24.25 24.027344 23.730469 C 22.757812 23.289062 21.453125 23.191406 20.125 23.265625 C 19.78125 23.28125 19.4375 23.375 19.09375 23.429688 C 18.984375 23.445312 18.867188 23.441406 18.722656 23.449219 C 18.738281 23.332031 18.730469 23.246094 18.757812 23.179688 C 19.308594 21.828125 20.1875 20.734375 21.390625 19.921875 C 21.898438 19.578125 22.441406 19.269531 23 19.023438 C 23.46875 18.820312 23.976562 18.699219 24.480469 18.609375 C 24.953125 18.523438 25.445312 18.488281 25.925781 18.503906 C 26.910156 18.535156 27.855469 18.769531 28.773438 19.148438 C 29.609375 19.488281 30.320312 20 30.96875 20.597656 C 31.355469 20.953125 31.648438 21.414062 32.019531 21.792969 C 32.695312 22.480469 33.175781 23.316406 33.777344 24.058594 C 34.089844 24.445312 34.363281 24.867188 34.71875 25.207031 C 35.320312 25.78125 35.984375 26.277344 36.785156 26.550781 C 37.8125 26.90625 38.859375 26.972656 39.933594 26.785156 C 40.15625 26.746094 40.398438 26.78125 40.664062 26.78125 "/>
<path style=" stroke:none;fill-rule:nonzero;fill:rgb(33.053589%,75.802612%,71.170044%);fill-opacity:1;" d="M 21.253906 30.804688 C 21.9375 29.933594 22.871094 29.460938 23.914062 29.214844 C 24.628906 29.046875 25.355469 28.894531 26.109375 29.082031 C 26.503906 29.179688 26.925781 29.164062 27.335938 29.199219 C 27.589844 29.421875 27.839844 29.652344 28.101562 29.859375 C 28.550781 30.222656 28.984375 30.609375 29.46875 30.921875 C 30.378906 31.507812 31.371094 31.925781 32.433594 32.171875 C 33.0625 32.316406 33.695312 32.441406 34.351562 32.445312 C 35.367188 32.445312 36.378906 32.449219 37.417969 32.113281 C 37.386719 32.269531 37.382812 32.363281 37.351562 32.445312 C 36.875 33.757812 36.101562 34.84375 35.003906 35.726562 C 34.332031 36.269531 33.59375 36.660156 32.8125 36.984375 C 31.816406 37.394531 30.761719 37.589844 29.6875 37.460938 C 28.347656 37.300781 27.054688 36.960938 25.921875 36.171875 C 25.164062 35.644531 24.519531 35.003906 23.96875 34.265625 C 23.28125 33.347656 22.597656 32.429688 21.910156 31.507812 C 21.761719 31.308594 21.617188 31.105469 21.457031 30.914062 C 21.410156 30.859375 21.324219 30.839844 21.253906 30.804688 "/>
</g>
</svg>
