<?xml version="1.0" encoding="UTF-8"?>
<svg xmlns="http://www.w3.org/2000/svg" xmlns:xlink="http://www.w3.org/1999/xlink" width="56pt" height="56pt" viewBox="0 0 56 56" version="1.1">
<g id="surface1">
<rect x="0" y="0" width="56" height="56" style="fill:rgb(95.666504%,95.776367%,96.775818%);fill-opacity:1;stroke:none;"/>
<path style=" stroke:none;fill-rule:nonzero;fill:rgb(17.253113%,19.023132%,48.338318%);fill-opacity:1;" d="M 42.121094 28 C 42.121094 37.371094 34.523438 44.96875 25.148438 44.96875 C 15.777344 44.96875 8.179688 37.371094 8.179688 28 C 8.179688 18.628906 15.777344 11.03125 25.148438 11.03125 C 34.523438 11.03125 42.121094 18.628906 42.121094 28 "/>
<path style=" stroke:none;fill-rule:nonzero;fill:rgb(96.263123%,72.4823%,4.219055%);fill-opacity:1;" d="M 31.8125 19.398438 L 28.804688 27.582031 L 23.839844 27.582031 C 27.546875 18.28125 29.574219 17.929688 29.574219 17.929688 C 29.574219 17.929688 31.179688 17.929688 31.8125 17.929688 C 32.441406 17.929688 31.8125 19.398438 31.8125 19.398438 Z M 29.574219 17.214844 C 26.847656 17.214844 25.726562 20.308594 25.726562 20.308594 L 22.230469 27.582031 L 17.546875 27.582031 C 17.546875 27.582031 19.292969 23.523438 20.550781 20.167969 C 21.8125 16.8125 20.550781 17.230469 20.550781 17.230469 L 15.378906 17.230469 C 16.285156 17.230469 16.007812 18.628906 16.007812 18.628906 C 16.007812 18.628906 13.769531 25.414062 13.28125 26.8125 C 12.789062 28.210938 14.1875 29.046875 14.1875 29.046875 L 21.742188 28.910156 C 21.742188 28.910156 18.523438 35.132812 16.707031 37.929688 C 14.886719 40.726562 12.371094 40.867188 11.460938 40.867188 C 10.550781 40.867188 6.007812 41.007812 6.007812 35.902344 C 6.007812 30.796875 9.433594 29.746094 9.433594 29.746094 C 9.433594 29.746094 9.433594 29.746094 10.550781 29.257812 C 11.671875 28.769531 11.042969 28.28125 11.042969 28.28125 C 10.785156 28.28125 10.464844 28.28125 10.0625 28.28125 C 6.496094 28.28125 3.980469 32.894531 3.980469 35.972656 C 3.980469 39.046875 7.054688 42.964844 11.53125 42.964844 C 16.007812 42.964844 17.964844 38.910156 17.964844 38.910156 L 23.210938 28.910156 L 28.523438 28.839844 L 24.746094 38.839844 L 24.679688 42.265625 L 30.0625 42.265625 L 29.992188 41.148438 L 29.222656 41.148438 L 29.363281 38.347656 L 33 28.699219 L 38.105469 28.699219 L 38.664062 27.582031 L 33.347656 27.582031 L 36.636719 17.71875 C 36.636719 17.71875 38.386719 17.652344 39.503906 17.652344 C 40.621094 17.652344 46.777344 19.539062 48.386719 19.539062 C 51.390625 19.539062 52.023438 17.214844 52.023438 17.214844 C 52.023438 17.214844 32.300781 17.214844 29.574219 17.214844 "/>
<path style=" stroke:none;fill-rule:nonzero;fill:rgb(96.263123%,72.4823%,4.219055%);fill-opacity:1;" d="M 39.105469 18.535156 C 39.105469 18.535156 46.148438 20.773438 47.171875 20.492188 C 45.65625 22.007812 43.347656 21.613281 42.089844 20.867188 C 40.832031 20.121094 39.105469 18.535156 39.105469 18.535156 "/>
<path style=" stroke:none;fill-rule:nonzero;fill:rgb(96.263123%,72.4823%,4.219055%);fill-opacity:1;" d="M 38.59375 19.5625 C 38.59375 19.5625 40.644531 21.566406 41.4375 21.800781 C 42.230469 22.03125 42.253906 22.523438 41.90625 22.871094 C 41.554688 23.222656 40.367188 23.945312 39.527344 22.359375 C 38.6875 20.773438 38.59375 19.5625 38.59375 19.5625 "/>
<path style=" stroke:none;fill-rule:nonzero;fill:rgb(96.263123%,72.4823%,4.219055%);fill-opacity:1;" d="M 37.148438 20.261719 C 37.148438 20.261719 39.105469 22.964844 39.105469 23.617188 C 39.105469 24.269531 37.382812 24.691406 37.148438 23.945312 C 36.914062 23.199219 37.148438 20.261719 37.148438 20.261719 "/>
</g>
</svg>
