<?xml version="1.0" encoding="UTF-8"?>
<svg xmlns="http://www.w3.org/2000/svg" xmlns:xlink="http://www.w3.org/1999/xlink" width="56pt" height="56pt" viewBox="0 0 56 56" version="1.1">
<g id="surface1">
<rect x="0" y="0" width="56" height="56" style="fill:rgb(95.66803%,95.779419%,96.777344%);fill-opacity:1;stroke:none;"/>
<path style=" stroke:none;fill-rule:nonzero;fill:rgb(85.801697%,13.111877%,21.492004%);fill-opacity:1;" d="M 2.359375 28.160156 C 2.941406 28.183594 3.402344 28.542969 3.917969 28.75 C 5.210938 29.269531 6.53125 29.699219 7.90625 29.921875 C 9.375 30.15625 10.832031 30.027344 12.273438 29.714844 C 14.457031 29.242188 16.527344 28.449219 18.519531 27.460938 C 21.980469 25.742188 25.425781 24 28.855469 22.21875 C 31.910156 20.628906 35.015625 19.148438 38.28125 18.03125 C 39.550781 17.59375 40.855469 17.269531 42.1875 17.117188 C 43.007812 17.023438 43.84375 17.09375 44.679688 17.171875 C 46.015625 17.300781 47.28125 17.628906 48.511719 18.109375 C 50.441406 18.867188 52.117188 19.980469 53.339844 21.695312 C 53.425781 21.816406 53.5 21.945312 53.570312 22.074219 C 53.605469 22.132812 53.625 22.203125 53.679688 22.347656 C 53.472656 22.304688 53.324219 22.273438 53.175781 22.242188 C 50.554688 21.632812 48.148438 22.195312 45.890625 23.582031 C 44.046875 24.714844 42.359375 26.058594 40.636719 27.351562 C 37.707031 29.542969 34.660156 31.542969 31.335938 33.09375 C 28.414062 34.453125 25.421875 35.640625 22.269531 36.359375 C 21.4375 36.546875 20.582031 36.625 19.734375 36.734375 C 19.25 36.796875 18.761719 36.855469 18.277344 36.855469 C 15.988281 36.859375 13.839844 36.339844 11.800781 35.265625 C 9.867188 34.246094 8.019531 33.09375 6.28125 31.777344 C 5.089844 30.878906 4 29.84375 2.878906 28.847656 C 2.667969 28.660156 2.535156 28.386719 2.367188 28.15625 L 2.359375 28.160156 "/>
<path style=" stroke:none;fill-rule:nonzero;fill:rgb(16.021729%,22.740173%,51.011658%);fill-opacity:1;" d="M 3.265625 23.308594 C 4.070312 23.511719 4.871094 23.71875 5.675781 23.914062 C 5.910156 23.96875 6.15625 24.003906 6.398438 24 C 8.019531 23.996094 9.558594 23.621094 10.988281 22.878906 C 12.679688 21.996094 14.347656 21.066406 16.015625 20.144531 C 17.578125 19.277344 19.113281 18.359375 20.691406 17.523438 C 21.984375 16.835938 23.304688 16.191406 24.648438 15.609375 C 25.796875 15.113281 27.011719 14.84375 28.285156 14.835938 C 29.929688 14.832031 31.34375 15.421875 32.625 16.390625 C 33.128906 16.769531 33.640625 17.15625 34.089844 17.777344 C 33.8125 17.777344 33.621094 17.816406 33.453125 17.769531 C 32.710938 17.566406 31.996094 17.765625 31.28125 17.90625 C 30.171875 18.125 29.238281 18.71875 28.425781 19.480469 C 26.679688 21.109375 24.816406 22.585938 22.8125 23.878906 C 20.648438 25.273438 18.390625 26.484375 15.929688 27.28125 C 14.714844 27.675781 13.472656 27.9375 12.199219 27.980469 C 11.007812 28.023438 9.867188 27.746094 8.785156 27.261719 C 6.730469 26.34375 4.855469 25.160156 3.238281 23.589844 C 3.246094 23.496094 3.257812 23.402344 3.265625 23.308594 "/>
<path style=" stroke:none;fill-rule:nonzero;fill:rgb(16.021729%,22.740173%,51.011658%);fill-opacity:1;" d="M 23.039062 37.898438 C 23.464844 37.957031 23.792969 38.019531 24.125 38.050781 C 26.675781 38.277344 28.976562 37.640625 31.023438 36.085938 C 33.304688 34.347656 35.574219 32.589844 37.878906 30.886719 C 39.75 29.5 41.625 28.121094 43.714844 27.066406 C 44.828125 26.5 45.996094 26.226562 47.246094 26.203125 C 48.535156 26.175781 49.785156 26.324219 50.976562 26.84375 C 51.6875 27.152344 52.289062 27.601562 52.75 28.25 C 52.199219 28.308594 51.667969 28.367188 51.144531 28.421875 C 50.039062 28.53125 49.152344 29.09375 48.375 29.824219 C 47.855469 30.308594 47.402344 30.863281 46.914062 31.382812 C 44.363281 34.085938 41.691406 36.65625 38.5625 38.703125 C 37.25 39.5625 35.84375 40.253906 34.332031 40.699219 C 31.824219 41.441406 29.351562 41.285156 26.945312 40.273438 C 25.445312 39.644531 23.988281 38.742188 23.039062 37.898438 "/>
<path style=" stroke:none;fill-rule:nonzero;fill:rgb(44.039917%,47.270203%,68.52417%);fill-opacity:1;" d="M 3.265625 23.308594 C 3.257812 23.402344 3.246094 23.496094 3.238281 23.589844 C 3.1875 23.507812 3.140625 23.429688 3.09375 23.347656 C 3.152344 23.335938 3.210938 23.324219 3.265625 23.308594 "/>
<path style=" stroke:none;fill-rule:nonzero;fill:rgb(85.801697%,13.111877%,21.492004%);fill-opacity:1;" d="M 2.367188 28.15625 C 2.328125 28.132812 2.289062 28.113281 2.351562 28.144531 C 2.320312 28.085938 2.339844 28.125 2.359375 28.160156 L 2.367188 28.15625 "/>
</g>
</svg>
