<?xml version="1.0" encoding="UTF-8"?>
<svg xmlns="http://www.w3.org/2000/svg" xmlns:xlink="http://www.w3.org/1999/xlink" width="56pt" height="56pt" viewBox="0 0 56 56" version="1.1">
<g id="surface1">
<rect x="0" y="0" width="56" height="56" style="fill:rgb(95.66803%,95.779419%,96.777344%);fill-opacity:1;stroke:none;"/>
<path style=" stroke:none;fill-rule:nonzero;fill:rgb(26.783752%,57.617188%,83.94165%);fill-opacity:1;" d="M 17.351562 25.378906 L 10.804688 25.378906 C 10.367188 25.378906 10.015625 25.730469 10.015625 26.164062 L 10.015625 35.734375 C 10.015625 36.171875 10.367188 36.523438 10.804688 36.523438 L 11.808594 36.523438 C 12.242188 36.523438 12.59375 36.171875 12.59375 35.734375 L 12.59375 32.238281 L 15.917969 32.238281 C 16.351562 32.238281 16.703125 31.886719 16.703125 31.453125 L 16.703125 30.449219 C 16.703125 30.015625 16.351562 29.660156 15.917969 29.660156 L 12.59375 29.660156 L 12.59375 27.957031 L 17.351562 27.957031 C 17.785156 27.957031 18.136719 27.601562 18.136719 27.167969 L 18.136719 26.164062 C 18.136719 25.730469 17.785156 25.378906 17.351562 25.378906 "/>
<path style=" stroke:none;fill-rule:nonzero;fill:rgb(26.783752%,57.617188%,83.94165%);fill-opacity:1;" d="M 25.769531 33.957031 L 21.230469 33.957031 L 21.230469 26.164062 C 21.230469 25.730469 20.878906 25.378906 20.445312 25.378906 L 19.4375 25.378906 C 19.003906 25.378906 18.652344 25.730469 18.652344 26.164062 L 18.652344 35.734375 C 18.652344 36.171875 19.003906 36.523438 19.4375 36.523438 L 25.769531 36.523438 C 26.207031 36.523438 26.558594 36.171875 26.558594 35.734375 L 26.558594 34.746094 C 26.558594 34.3125 26.207031 33.960938 25.769531 33.957031 "/>
<path style=" stroke:none;fill-rule:nonzero;fill:rgb(26.783752%,57.617188%,83.94165%);fill-opacity:1;" d="M 33.945312 25.808594 C 33.808594 25.542969 33.539062 25.378906 33.242188 25.378906 L 31.996094 25.378906 C 31.746094 25.378906 31.507812 25.5 31.359375 25.703125 L 29.117188 28.78125 L 26.863281 25.699219 C 26.714844 25.496094 26.476562 25.378906 26.226562 25.378906 L 24.980469 25.378906 C 24.546875 25.378906 24.195312 25.730469 24.195312 26.164062 C 24.195312 26.332031 24.25 26.496094 24.347656 26.628906 L 27.824219 31.375 L 27.824219 35.734375 C 27.824219 36.171875 28.175781 36.523438 28.609375 36.523438 L 29.613281 36.523438 C 30.046875 36.523438 30.402344 36.171875 30.402344 35.738281 C 30.402344 35.738281 30.402344 35.734375 30.402344 35.734375 L 30.402344 31.375 L 33.875 26.628906 C 34.050781 26.390625 34.078125 26.074219 33.945312 25.808594 "/>
<path style=" stroke:none;fill-rule:nonzero;fill:rgb(26.783752%,57.617188%,83.94165%);fill-opacity:1;" d="M 30.777344 42.4375 C 30.820312 42.398438 30.820312 42.332031 30.777344 42.289062 C 30.746094 42.261719 30.703125 42.25 30.664062 42.265625 C 22.652344 45.386719 13.558594 43.558594 7.375 37.589844 C 7.332031 37.546875 7.265625 37.550781 7.226562 37.589844 C 7.191406 37.625 7.1875 37.679688 7.214844 37.722656 C 10.640625 42.777344 16.007812 46.1875 22.039062 47.132812 C 22.4375 47.195312 22.996094 47.292969 23.210938 47.203125 C 26.664062 45.8125 29.046875 44.101562 30.777344 42.4375 "/>
<path style=" stroke:none;fill-rule:nonzero;fill:rgb(16.122437%,25.350952%,60.427856%);fill-opacity:1;" d="M 47.257812 28.804688 C 47.773438 26.582031 48.492188 23.753906 48.640625 18.734375 C 48.722656 16.054688 48.582031 13.34375 48.519531 12.328125 C 48.511719 12.183594 48.386719 12.074219 48.242188 12.082031 C 48.203125 12.085938 48.164062 12.097656 48.128906 12.117188 L 32.964844 20.925781 C 32.839844 21 32.800781 21.160156 32.871094 21.285156 C 32.902344 21.339844 32.957031 21.382812 33.015625 21.402344 L 37.519531 22.886719 C 37.65625 22.929688 37.761719 23.042969 37.796875 23.183594 C 38.097656 24.542969 38.253906 25.933594 38.25 27.324219 C 38.257812 32.234375 36.617188 37.003906 33.59375 40.867188 C 31.5 43.554688 28.808594 45.722656 25.738281 47.203125 C 25.683594 47.230469 25.660156 47.292969 25.683594 47.351562 C 25.703125 47.390625 25.742188 47.414062 25.785156 47.414062 C 36.636719 47.269531 44.738281 39.589844 47.257812 28.804688 "/>
</g>
</svg>
