<?xml version="1.0" encoding="UTF-8"?>
<svg xmlns="http://www.w3.org/2000/svg" xmlns:xlink="http://www.w3.org/1999/xlink" width="56pt" height="56pt" viewBox="0 0 56 56" version="1.1">
<g id="surface1">
<rect x="0" y="0" width="56" height="56" style="fill:rgb(19.979858%,16.334534%,42.095947%);fill-opacity:1;stroke:none;"/>
<path style=" stroke:none;fill-rule:nonzero;fill:rgb(100%,100%,100%);fill-opacity:1;" d="M 41.769531 8.132812 C 41.683594 8.0625 41.578125 8.019531 41.464844 8.003906 C 41.351562 7.992188 41.238281 8.007812 41.136719 8.054688 L 20.867188 20.960938 C 20.792969 20.996094 20.734375 21.054688 20.691406 21.125 C 20.648438 21.195312 20.628906 21.273438 20.628906 21.355469 C 20.628906 21.515625 20.707031 21.671875 20.789062 21.832031 L 34.566406 33.074219 C 34.722656 33.234375 34.960938 33.234375 35.121094 33.234375 C 35.277344 33.15625 35.4375 33.074219 35.4375 32.835938 L 37.8125 23.96875 C 37.890625 23.652344 37.890625 23.335938 37.652344 23.019531 C 37.578125 22.871094 37.464844 22.75 37.328125 22.667969 C 37.183594 22.582031 37.027344 22.539062 36.859375 22.542969 L 28.707031 21.515625 C 28.628906 21.515625 28.546875 21.433594 28.546875 21.355469 C 28.546875 21.277344 28.628906 21.199219 28.707031 21.199219 L 37.335938 20.328125 C 37.8125 20.328125 38.207031 20.167969 38.523438 19.851562 C 38.839844 19.535156 39.078125 19.140625 39.238281 18.664062 L 42.007812 8.6875 C 42.007812 8.449219 41.929688 8.289062 41.769531 8.132812 "/>
<path style=" stroke:none;fill-rule:nonzero;fill:rgb(94.238281%,24.665833%,34.25293%);fill-opacity:1;" d="M 17.148438 32.042969 C 17.066406 32.359375 17.066406 32.675781 17.304688 32.996094 C 17.378906 33.140625 17.492188 33.261719 17.632812 33.34375 C 17.773438 33.429688 17.933594 33.472656 18.097656 33.46875 L 26.253906 34.5 C 26.332031 34.5 26.410156 34.578125 26.410156 34.65625 C 26.410156 34.738281 26.332031 34.816406 26.253906 34.816406 L 17.621094 35.6875 C 17.148438 35.765625 16.75 35.925781 16.433594 36.160156 C 16.117188 36.476562 15.878906 36.796875 15.722656 37.269531 L 13.03125 47.328125 C 12.949219 47.5625 13.03125 47.722656 13.265625 47.882812 C 13.425781 48.039062 13.664062 48.039062 13.902344 47.882812 L 34.09375 35.132812 C 34.164062 35.09375 34.226562 35.039062 34.269531 34.96875 C 34.308594 34.898438 34.332031 34.820312 34.328125 34.738281 C 34.328125 34.578125 34.25 34.417969 34.09375 34.261719 L 20.316406 23.019531 C 20.15625 22.859375 19.996094 22.859375 19.839844 22.859375 C 19.679688 22.9375 19.523438 23.019531 19.523438 23.253906 L 17.148438 32.042969 "/>
</g>
</svg>
