<?xml version="1.0" encoding="UTF-8"?>
<svg xmlns="http://www.w3.org/2000/svg" xmlns:xlink="http://www.w3.org/1999/xlink" width="56pt" height="56pt" viewBox="0 0 56 56" version="1.1">
<g id="surface1">
<rect x="0" y="0" width="56" height="56" style="fill:rgb(95.66803%,95.779419%,96.777344%);fill-opacity:1;stroke:none;"/>
<path style=" stroke:none;fill-rule:nonzero;fill:rgb(9.608459%,9.407043%,7.894897%);fill-opacity:1;" d="M 4.730469 38.605469 C 16.554688 33.457031 28.867188 28.882812 39.476562 21.214844 C 39.667969 21.871094 39.820312 22.511719 40 23.171875 C 29.285156 30.148438 17.296875 36.304688 4.730469 38.789062 C 4.730469 38.726562 4.730469 38.667969 4.730469 38.605469 "/>
<path style=" stroke:none;fill-rule:nonzero;fill:rgb(9.608459%,9.407043%,7.894897%);fill-opacity:1;" d="M 51.269531 21.792969 C 49.980469 23.175781 48.28125 20.101562 47.171875 19.378906 C 46.351562 18.15625 45.171875 19.777344 44.25 20.15625 C 44.53125 20.945312 45 21.644531 45.277344 22.4375 C 45.136719 22.742188 44.925781 22.933594 44.601562 22.976562 C 43.71875 22.453125 43.328125 21.171875 42.332031 20.90625 C 42.503906 19.84375 39.632812 17.933594 41.769531 17.675781 C 42.332031 18.199219 42.929688 18.75 43.539062 19.308594 C 47.429688 16.710938 43.03125 15.164062 43.328125 12.304688 C 44.542969 11.542969 45.371094 14.007812 46.355469 14.585938 C 46.6875 14.410156 46.964844 14.15625 47.25 13.945312 C 47.261719 13.84375 47.269531 13.757812 47.28125 13.648438 C 47.382812 13.710938 47.457031 13.753906 47.535156 13.800781 C 47.800781 13.714844 48.085938 13.554688 48.34375 13.800781 C 48.496094 14.214844 48.089844 14.441406 48.105469 14.839844 C 48.035156 14.816406 47.980469 14.800781 47.894531 14.773438 C 47.660156 14.945312 47.40625 15.132812 47.140625 15.332031 C 48.015625 16.226562 49.171875 14.40625 50.292969 14.617188 C 50.316406 14.640625 50.371094 14.699219 50.429688 14.753906 C 50.277344 15.746094 49.328125 16.34375 48.730469 17.066406 C 48.695312 17.324219 48.707031 17.375 48.847656 17.59375 C 49.152344 17.445312 49.378906 17.183594 49.679688 17.003906 C 49.664062 16.949219 49.65625 16.894531 49.640625 16.828125 C 49.675781 16.796875 49.714844 16.765625 49.757812 16.726562 C 49.8125 16.773438 49.855469 16.808594 49.90625 16.847656 C 50.179688 16.828125 50.453125 16.621094 50.738281 16.835938 C 50.910156 17.167969 50.632812 17.398438 50.53125 17.671875 C 50.542969 17.707031 50.558594 17.757812 50.578125 17.808594 C 50.546875 17.84375 50.515625 17.875 50.480469 17.910156 C 50.417969 17.894531 50.355469 17.875 50.28125 17.855469 C 49.976562 18.074219 49.671875 18.292969 49.351562 18.519531 C 49.871094 19.554688 50.578125 20.523438 51.269531 21.425781 C 51.269531 21.546875 51.269531 21.671875 51.269531 21.792969 "/>
<path style=" stroke:none;fill-rule:nonzero;fill:rgb(72.981262%,14.56604%,23.475647%);fill-opacity:1;" d="M 31.457031 11.738281 C 32.621094 15.0625 33.855469 18.371094 34.972656 21.710938 C 33.742188 22.550781 32.480469 23.347656 31.160156 24.058594 C 30.023438 21.457031 29.273438 18.695312 28.160156 16.085938 C 25.617188 21.613281 25.75 29.148438 18.660156 30.53125 C 20.855469 24.253906 23.136719 17.992188 25.382812 11.738281 C 27.402344 11.730469 29.433594 11.738281 31.457031 11.738281 "/>
<path style=" stroke:none;fill-rule:nonzero;fill:rgb(19.119263%,29.295349%,49.8703%);fill-opacity:1;" d="M 38.589844 44.253906 C 36.734375 39.445312 34.949219 34.605469 33.257812 29.734375 C 34.523438 28.992188 35.78125 28.257812 37.058594 27.511719 C 39.105469 33.050781 41.101562 38.660156 43 44.253906 C 41.53125 44.25 40.058594 44.242188 38.589844 44.253906 "/>
<path style=" stroke:none;fill-rule:nonzero;fill:rgb(19.515991%,29.669189%,49.862671%);fill-opacity:1;" d="M 21.203125 35.589844 C 20.261719 38.515625 19.140625 41.367188 18.15625 44.28125 C 16.667969 44.28125 15.1875 44.28125 13.683594 44.28125 C 15.195312 39.179688 15.679688 36.96875 21.203125 35.589844 "/>
</g>
</svg>
