<?xml version="1.0" encoding="UTF-8"?>
<svg xmlns="http://www.w3.org/2000/svg" xmlns:xlink="http://www.w3.org/1999/xlink" width="56pt" height="56pt" viewBox="0 0 56 56" version="1.1">
<g id="surface1">
<rect x="0" y="0" width="56" height="56" style="fill:rgb(89.599609%,11.520386%,14.378357%);fill-opacity:1;stroke:none;"/>
<path style=" stroke:none;fill-rule:nonzero;fill:rgb(100%,100%,100%);fill-opacity:1;" d="M 7.515625 19.980469 L 18.277344 19.980469 C 19.332031 19.980469 20.128906 20.316406 20.441406 21.8125 C 20.789062 23.480469 20.644531 24.640625 18.769531 24.773438 L 15.390625 25.011719 C 17.878906 40.722656 32.414062 45.84375 40.332031 28.921875 C 41.640625 26.121094 42.070312 25.613281 43.503906 25.96875 C 45.449219 26.453125 45.714844 27.453125 44.789062 30.277344 C 37.945312 51.136719 14.945312 53.226562 10.429688 25.371094 L 7.6875 25.566406 C 5.453125 25.726562 5.367188 23.84375 5.367188 22.796875 C 5.367188 20.722656 6.136719 19.980469 7.515625 19.980469 "/>
<path style=" stroke:none;fill-rule:nonzero;fill:rgb(100%,100%,100%);fill-opacity:1;" d="M 46.640625 9.894531 C 48.84375 9.894531 50.632812 11.679688 50.632812 13.886719 C 50.632812 16.09375 48.84375 17.882812 46.640625 17.882812 C 44.433594 17.882812 42.648438 16.09375 42.648438 13.886719 C 42.648438 11.679688 44.433594 9.894531 46.640625 9.894531 "/>
</g>
</svg>
