<?xml version="1.0" encoding="UTF-8"?>
<svg xmlns="http://www.w3.org/2000/svg" xmlns:xlink="http://www.w3.org/1999/xlink" width="56pt" height="56pt" viewBox="0 0 56 56" version="1.1">
<g id="surface1">
<rect x="0" y="0" width="56" height="56" style="fill:rgb(16.766357%,20.423889%,53.408813%);fill-opacity:1;stroke:none;"/>
<path style=" stroke:none;fill-rule:nonzero;fill:rgb(100%,100%,100%);fill-opacity:1;" d="M 19.996094 43.988281 C 21.015625 43.988281 21.84375 44.8125 21.84375 45.835938 C 21.84375 46.855469 21.015625 47.679688 19.996094 47.679688 C 18.976562 47.679688 18.148438 46.855469 18.148438 45.835938 C 18.148438 44.8125 18.976562 43.988281 19.996094 43.988281 "/>
<path style=" stroke:none;fill-rule:nonzero;fill:rgb(100%,100%,100%);fill-opacity:1;" d="M 19.996094 39.0625 C 21.015625 39.0625 21.84375 39.890625 21.84375 40.90625 C 21.84375 41.929688 21.015625 42.757812 19.996094 42.757812 C 18.976562 42.757812 18.148438 41.929688 18.148438 40.90625 C 18.148438 39.890625 18.976562 39.0625 19.996094 39.0625 "/>
<path style=" stroke:none;fill-rule:nonzero;fill:rgb(100%,100%,100%);fill-opacity:1;" d="M 10.144531 34.136719 C 11.164062 34.136719 11.992188 34.964844 11.992188 35.984375 C 11.992188 37.003906 11.164062 37.832031 10.144531 37.832031 C 9.125 37.832031 8.300781 37.003906 8.300781 35.984375 C 8.300781 34.964844 9.125 34.136719 10.144531 34.136719 "/>
<path style=" stroke:none;fill-rule:nonzero;fill:rgb(100%,100%,100%);fill-opacity:1;" d="M 15.070312 34.136719 C 16.089844 34.136719 16.917969 34.964844 16.917969 35.984375 C 16.917969 37.003906 16.089844 37.832031 15.070312 37.832031 C 14.050781 37.832031 13.222656 37.003906 13.222656 35.984375 C 13.222656 34.964844 14.050781 34.136719 15.070312 34.136719 "/>
<path style=" stroke:none;fill-rule:nonzero;fill:rgb(100%,100%,100%);fill-opacity:1;" d="M 19.175781 15.257812 C 20.195312 15.257812 21.023438 16.082031 21.023438 17.101562 C 21.023438 18.121094 20.195312 18.949219 19.175781 18.949219 C 18.15625 18.949219 17.328125 18.121094 17.328125 17.101562 C 17.328125 16.082031 18.15625 15.257812 19.175781 15.257812 "/>
<path style=" stroke:none;fill-rule:nonzero;fill:rgb(100%,100%,100%);fill-opacity:1;" d="M 24.101562 15.257812 C 25.121094 15.257812 25.949219 16.082031 25.949219 17.101562 C 25.949219 18.121094 25.121094 18.949219 24.101562 18.949219 C 23.082031 18.949219 22.253906 18.121094 22.253906 17.101562 C 22.253906 16.082031 23.082031 15.257812 24.101562 15.257812 "/>
<path style=" stroke:none;fill-rule:nonzero;fill:rgb(100%,100%,100%);fill-opacity:1;" d="M 29.027344 15.257812 C 30.046875 15.257812 30.871094 16.082031 30.871094 17.101562 C 30.871094 18.121094 30.046875 18.949219 29.027344 18.949219 C 28.007812 18.949219 27.179688 18.121094 27.179688 17.101562 C 27.179688 16.082031 28.007812 15.257812 29.027344 15.257812 "/>
<path style=" stroke:none;fill-rule:nonzero;fill:rgb(100%,100%,100%);fill-opacity:1;" d="M 33.953125 15.257812 C 34.972656 15.257812 35.796875 16.082031 35.796875 17.101562 C 35.796875 18.121094 34.972656 18.949219 33.953125 18.949219 C 32.929688 18.949219 32.105469 18.121094 32.105469 17.101562 C 32.105469 16.082031 32.929688 15.257812 33.953125 15.257812 "/>
<path style=" stroke:none;fill-rule:nonzero;fill:rgb(100%,100%,100%);fill-opacity:1;" d="M 38.878906 34.957031 C 39.898438 34.957031 40.722656 35.785156 40.722656 36.804688 C 40.722656 37.824219 39.898438 38.652344 38.878906 38.652344 C 37.855469 38.652344 37.03125 37.824219 37.03125 36.804688 C 37.03125 35.785156 37.855469 34.957031 38.878906 34.957031 "/>
<path style=" stroke:none;fill-rule:nonzero;fill:rgb(100%,100%,100%);fill-opacity:1;" d="M 38.878906 29.90625 C 39.898438 29.90625 40.722656 30.734375 40.722656 31.757812 C 40.722656 32.777344 39.898438 33.601562 38.878906 33.601562 C 37.855469 33.601562 37.03125 32.777344 37.03125 31.757812 C 37.03125 30.734375 37.855469 29.90625 38.878906 29.90625 "/>
<path style=" stroke:none;fill-rule:nonzero;fill:rgb(100%,100%,100%);fill-opacity:1;" d="M 38.878906 24.984375 C 39.898438 24.984375 40.722656 25.808594 40.722656 26.832031 C 40.722656 27.851562 39.898438 28.675781 38.878906 28.675781 C 37.855469 28.675781 37.03125 27.851562 37.03125 26.832031 C 37.03125 25.808594 37.855469 24.984375 38.878906 24.984375 "/>
<path style=" stroke:none;fill-rule:nonzero;fill:rgb(100%,100%,100%);fill-opacity:1;" d="M 38.878906 20.058594 C 39.898438 20.058594 40.722656 20.886719 40.722656 21.90625 C 40.722656 22.925781 39.898438 23.753906 38.878906 23.753906 C 37.855469 23.753906 37.03125 22.925781 37.03125 21.90625 C 37.03125 20.886719 37.855469 20.058594 38.878906 20.058594 "/>
<path style=" stroke:none;fill-rule:nonzero;fill:rgb(100%,100%,100%);fill-opacity:1;" d="M 19.996094 34.136719 C 21.015625 34.136719 21.84375 34.964844 21.84375 35.984375 C 21.84375 37.003906 21.015625 37.832031 19.996094 37.832031 C 18.976562 37.832031 18.148438 37.003906 18.148438 35.984375 C 18.148438 34.964844 18.976562 34.136719 19.996094 34.136719 "/>
<path style=" stroke:none;fill-rule:nonzero;fill:rgb(100%,100%,100%);fill-opacity:1;" d="M 23.691406 30.484375 C 24.710938 30.484375 25.535156 31.308594 25.535156 32.332031 C 25.535156 33.351562 24.710938 34.175781 23.691406 34.175781 C 22.671875 34.175781 21.84375 33.351562 21.84375 32.332031 C 21.84375 31.308594 22.671875 30.484375 23.691406 30.484375 "/>
<path style=" stroke:none;fill-rule:nonzero;fill:rgb(100%,100%,100%);fill-opacity:1;" d="M 26.972656 27.242188 C 27.992188 27.242188 28.820312 28.066406 28.820312 29.089844 C 28.820312 30.105469 27.992188 30.933594 26.972656 30.933594 C 25.953125 30.933594 25.128906 30.105469 25.128906 29.089844 C 25.128906 28.066406 25.953125 27.242188 26.972656 27.242188 "/>
<path style=" stroke:none;fill-rule:nonzero;fill:rgb(100%,100%,100%);fill-opacity:1;" d="M 30.667969 23.546875 C 31.6875 23.546875 32.515625 24.375 32.515625 25.394531 C 32.515625 26.414062 31.6875 27.242188 30.667969 27.242188 C 29.648438 27.242188 28.820312 26.414062 28.820312 25.394531 C 28.820312 24.375 29.648438 23.546875 30.667969 23.546875 "/>
<path style=" stroke:none;fill-rule:nonzero;fill:rgb(100%,100%,100%);fill-opacity:1;" d="M 33.953125 20.015625 C 34.972656 20.015625 35.796875 20.84375 35.796875 21.863281 C 35.796875 22.882812 34.972656 23.710938 33.953125 23.710938 C 32.929688 23.710938 32.105469 22.882812 32.105469 21.863281 C 32.105469 20.84375 32.929688 20.015625 33.953125 20.015625 "/>
<path style=" stroke:none;fill-rule:nonzero;fill:rgb(100%,100%,100%);fill-opacity:1;" d="M 38.878906 15.257812 C 39.898438 15.257812 40.722656 16.082031 40.722656 17.101562 C 40.722656 18.121094 39.898438 18.949219 38.878906 18.949219 C 37.855469 18.949219 37.03125 18.121094 37.03125 17.101562 C 37.03125 16.082031 37.855469 15.257812 38.878906 15.257812 "/>
<path style=" stroke:none;fill-rule:nonzero;fill:rgb(100%,100%,100%);fill-opacity:1;" d="M 42.160156 11.808594 C 43.179688 11.808594 44.007812 12.636719 44.007812 13.65625 C 44.007812 14.675781 43.179688 15.503906 42.160156 15.503906 C 41.140625 15.503906 40.3125 14.675781 40.3125 13.65625 C 40.3125 12.636719 41.140625 11.808594 42.160156 11.808594 "/>
<path style=" stroke:none;fill-rule:nonzero;fill:rgb(100%,100%,100%);fill-opacity:1;" d="M 45.855469 8.320312 C 46.875 8.320312 47.703125 9.144531 47.703125 10.164062 C 47.703125 11.1875 46.875 12.011719 45.855469 12.011719 C 44.835938 12.011719 44.007812 11.1875 44.007812 10.164062 C 44.007812 9.144531 44.835938 8.320312 45.855469 8.320312 "/>
</g>
</svg>
