<?xml version="1.0" encoding="UTF-8"?>
<svg xmlns="http://www.w3.org/2000/svg" xmlns:xlink="http://www.w3.org/1999/xlink" width="56pt" height="56pt" viewBox="0 0 56 56" version="1.1">
<g id="surface1">
<rect x="0" y="0" width="56" height="56" style="fill:rgb(95.66803%,95.779419%,96.777344%);fill-opacity:1;stroke:none;"/>
<path style=" stroke:none;fill-rule:nonzero;fill:rgb(95.748901%,52.362061%,7.569885%);fill-opacity:1;" d="M 50.679688 13.4375 C 50.628906 13.542969 50.605469 13.675781 50.523438 13.75 C 50.078125 14.152344 49.644531 14.570312 49.160156 14.921875 C 48.351562 15.519531 47.5 16.054688 46.683594 16.640625 C 45.234375 17.675781 43.785156 18.710938 42.363281 19.78125 C 40.785156 20.96875 39.226562 22.1875 37.675781 23.414062 C 36.914062 24.015625 36.183594 24.65625 35.449219 25.296875 C 34.316406 26.28125 33.164062 27.253906 32.074219 28.285156 C 30.859375 29.433594 29.683594 30.621094 28.53125 31.828125 C 27.699219 32.695312 26.898438 33.597656 26.136719 34.527344 C 25.121094 35.773438 24.136719 37.042969 23.175781 38.328125 C 22.175781 39.667969 21.273438 41.078125 20.441406 42.519531 C 19.550781 42.601562 5.75 42.554688 5.320312 42.453125 C 5.46875 42.359375 5.574219 42.28125 5.695312 42.226562 C 6.734375 41.757812 7.773438 41.277344 8.820312 40.824219 C 10.0625 40.285156 11.320312 39.785156 12.550781 39.230469 C 13.835938 38.65625 15.113281 38.0625 16.363281 37.414062 C 18.035156 36.546875 19.6875 35.644531 21.269531 34.613281 C 22.875 33.5625 24.492188 32.53125 26.074219 31.441406 C 27.570312 30.414062 29.03125 29.332031 30.492188 28.253906 C 31.65625 27.394531 32.808594 26.519531 33.945312 25.625 C 34.539062 25.15625 35.09375 24.632812 35.660156 24.125 C 35.761719 24.035156 35.828125 23.910156 35.917969 23.792969 C 35.382812 23.140625 34.613281 23.277344 33.941406 23.089844 C 33.941406 22.882812 34.121094 22.800781 34.242188 22.695312 C 34.738281 22.246094 35.234375 21.789062 35.761719 21.375 C 36.203125 21.027344 36.328125 21.015625 36.90625 21.023438 C 36.96875 21.050781 37.058594 21.078125 37.128906 21.125 C 37.402344 21.300781 37.675781 21.261719 37.925781 21.101562 C 38.488281 20.738281 39.054688 20.378906 39.597656 19.988281 C 40.542969 19.304688 41.476562 18.609375 42.398438 17.902344 C 43.054688 17.394531 43.683594 16.847656 44.335938 16.335938 C 45.09375 15.730469 45.859375 15.136719 46.632812 14.550781 C 47.300781 14.042969 48.046875 13.699219 48.875 13.550781 C 49.105469 13.546875 49.335938 13.550781 49.5625 13.535156 C 49.617188 13.535156 49.667969 13.472656 49.71875 13.4375 C 50.039062 13.4375 50.359375 13.4375 50.679688 13.4375 "/>
<path style=" stroke:none;fill-rule:nonzero;fill:rgb(38.478088%,76.615906%,20.350647%);fill-opacity:1;" d="M 33.199219 29.335938 C 32.8125 29.835938 32.433594 30.34375 32.03125 30.835938 C 31.144531 31.925781 30.25 33.011719 29.421875 34.15625 C 28.699219 35.15625 28.023438 36.1875 27.464844 37.28125 C 26.878906 38.429688 26.351562 39.621094 26.027344 40.886719 C 25.890625 41.421875 25.730469 41.957031 25.574219 42.515625 C 24.503906 42.515625 23.429688 42.515625 22.324219 42.515625 C 22.527344 41.785156 22.871094 41.152344 23.242188 40.546875 C 24.078125 39.175781 25.054688 37.90625 26.058594 36.65625 C 26.785156 35.75 27.585938 34.898438 28.34375 34.011719 C 29.488281 32.679688 30.707031 31.417969 31.972656 30.203125 C 32.351562 29.839844 32.78125 29.53125 33.191406 29.195312 C 33.195312 29.242188 33.195312 29.289062 33.199219 29.335938 "/>
</g>
</svg>
