<?xml version="1.0" encoding="UTF-8"?>
<svg xmlns="http://www.w3.org/2000/svg" xmlns:xlink="http://www.w3.org/1999/xlink" width="56pt" height="56pt" viewBox="0 0 56 56" version="1.1">
<g id="surface1">
<rect x="0" y="0" width="56" height="56" style="fill:rgb(53.242493%,45.021057%,15.983582%);fill-opacity:1;stroke:none;"/>
<path style=" stroke:none;fill-rule:nonzero;fill:rgb(100%,100%,100%);fill-opacity:1;" d="M 7.558594 32.945312 C 7.910156 33.039062 8.257812 33.179688 8.613281 33.238281 C 11.234375 33.609375 14.511719 32.804688 17.140625 32.722656 C 18.582031 32.679688 24.210938 32.878906 26.027344 33.113281 C 26.136719 33.132812 26.925781 33.171875 27.054688 33.621094 C 27.203125 34.132812 26.746094 34.386719 26.378906 34.621094 C 25.007812 35.53125 23.617188 36.421875 22.234375 37.316406 C 21.847656 37.558594 21.425781 37.746094 21.285156 38.246094 C 21.71875 38.675781 22.234375 38.644531 22.703125 38.578125 C 24.308594 38.351562 25.933594 38.207031 27.488281 37.789062 C 29.492188 37.257812 31.488281 36.992188 33.574219 37 C 35.34375 37.019531 37.953125 35.699219 39.71875 34.523438 C 42.527344 32.660156 44.753906 31.964844 47.445312 30.261719 C 48.234375 29.761719 48.417969 29.457031 48.417969 29.457031 C 48.417969 29.457031 48.808594 28.917969 45.660156 28.9375 C 44.269531 28.9375 42.878906 29.046875 41.492188 29.058594 C 40.46875 29.066406 39.949219 28.578125 39.8125 27.582031 C 39.652344 26.453125 39.949219 25.402344 40.402344 24.390625 C 41.46875 22.074219 42.382812 19.703125 42.867188 17.183594 C 43.1875 15.5 42.996094 13.917969 41.761719 12.574219 C 40.566406 11.265625 39.09375 10.542969 37.378906 10.316406 C 36.652344 10.210938 35.90625 10.003906 35.066406 10.316406 C 34.886719 13.355469 34.6875 16.410156 33.933594 19.382812 C 33.175781 22.375 32.246094 25.304688 31.390625 28.265625 C 30.234375 28.113281 29.152344 27.90625 28.066406 27.859375 C 25.589844 27.722656 23.242188 28.253906 20.960938 29.175781 C 17.359375 30.644531 13.636719 31.753906 9.792969 32.386719 C 9.050781 32.503906 8.308594 32.613281 7.570312 32.738281 C 7.570312 32.804688 7.570312 32.878906 7.558594 32.945312 "/>
</g>
</svg>
