<?xml version="1.0" encoding="UTF-8"?>
<svg xmlns="http://www.w3.org/2000/svg" xmlns:xlink="http://www.w3.org/1999/xlink" width="55.9pt" height="55.75pt" viewBox="0 0 55.9 55.75" version="1.1">
<defs>
<clipPath id="clip1">
  <path d="M 0 0 L 55.898438 0 L 55.898438 55.75 L 0 55.75 Z M 0 0 "/>
</clipPath>
</defs>
<g id="surface1">
<g clip-path="url(#clip1)" clip-rule="nonzero">
<path style=" stroke:none;fill-rule:nonzero;fill:rgb(72.731018%,11.509705%,14.001465%);fill-opacity:1;" d="M 55.898438 55.75 L 0 55.75 L 0 0 L 55.898438 0 L 55.898438 55.75 "/>
</g>
<path style=" stroke:none;fill-rule:nonzero;fill:rgb(100%,100%,100%);fill-opacity:1;" d="M 25.527344 34.9375 C 25.542969 35.742188 25.628906 36.542969 25.09375 37.242188 C 25.066406 37.28125 25.085938 37.417969 25.117188 37.433594 C 25.191406 37.46875 25.324219 37.5 25.371094 37.457031 C 25.945312 36.972656 26.507812 36.480469 27.066406 35.980469 C 27.121094 35.929688 27.128906 35.792969 27.109375 35.710938 C 27.101562 35.675781 26.957031 35.671875 26.871094 35.664062 C 26.6875 35.640625 26.449219 35.6875 26.320312 35.589844 C 25.816406 35.21875 25.816406 34.328125 26.285156 33.894531 C 26.46875 33.722656 26.65625 33.554688 26.847656 33.394531 C 27.640625 32.726562 27.78125 32.746094 28.382812 33.582031 C 28.621094 33.914062 28.617188 34.0625 28.351562 34.375 C 28.222656 34.523438 28.066406 34.652344 27.941406 34.808594 C 27.90625 34.847656 27.917969 34.960938 27.953125 35.003906 C 27.984375 35.042969 28.078125 35.050781 28.140625 35.042969 C 28.183594 35.039062 28.226562 34.996094 28.261719 34.960938 C 29.019531 34.308594 29.777344 33.652344 30.535156 33 C 30.589844 32.949219 30.660156 32.902344 30.683594 32.835938 C 30.71875 32.75 30.710938 32.648438 30.722656 32.554688 C 30.636719 32.558594 30.542969 32.53125 30.472656 32.566406 C 29.933594 32.828125 29.910156 32.832031 29.5 32.46875 C 29.425781 32.402344 29.355469 32.332031 29.285156 32.261719 C 28.050781 31.054688 26.820312 29.84375 25.585938 28.636719 C 25.480469 28.53125 25.382812 28.414062 25.261719 28.324219 C 25.191406 28.269531 25.046875 28.207031 25.011719 28.234375 C 24.929688 28.304688 24.847656 28.429688 24.847656 28.53125 C 24.847656 28.855469 24.871094 29.183594 24.90625 29.503906 C 25.109375 31.316406 25.320312 33.128906 25.527344 34.9375 Z M 28.726562 27.519531 C 28.683594 28.476562 28.957031 29.546875 29.695312 30.46875 C 30.695312 31.730469 32.34375 31.835938 33.523438 30.742188 C 34.457031 29.875 34.675781 28.738281 34.726562 27.539062 C 34.726562 27.484375 34.65625 27.394531 34.601562 27.378906 C 34.550781 27.367188 34.441406 27.417969 34.421875 27.464844 C 34.339844 27.691406 34.234375 27.925781 34.214844 28.164062 C 34.171875 28.75 34.011719 29.300781 33.683594 29.785156 C 32.976562 30.832031 32.089844 31.148438 31.253906 29.804688 C 31.226562 29.761719 31.199219 29.722656 31.179688 29.675781 C 30.789062 28.785156 30.355469 27.90625 30.035156 26.992188 C 29.859375 26.488281 29.8125 25.910156 29.832031 25.371094 C 29.867188 24.226562 30.898438 23.613281 31.960938 24.050781 C 32.507812 24.277344 32.925781 24.667969 33.308594 25.101562 C 33.425781 25.230469 33.527344 25.375 33.652344 25.496094 C 33.691406 25.535156 33.808594 25.554688 33.84375 25.527344 C 33.914062 25.46875 33.992188 25.367188 33.988281 25.292969 C 33.980469 25.175781 33.910156 25.058594 33.855469 24.945312 C 33.46875 24.132812 33.082031 23.324219 32.695312 22.511719 C 32.652344 22.421875 32.617188 22.320312 32.558594 22.246094 C 32.503906 22.175781 32.410156 22.078125 32.347656 22.085938 C 32.269531 22.097656 32.164062 22.195312 32.144531 22.273438 C 32.09375 22.464844 32.09375 22.667969 32.066406 22.863281 C 32.003906 23.320312 31.945312 23.40625 31.511719 23.378906 C 30.597656 23.3125 29.996094 23.792969 29.507812 24.46875 C 28.894531 25.316406 28.742188 26.296875 28.726562 27.519531 Z M 44.484375 23.582031 C 44.410156 23.382812 44.386719 23.183594 44.328125 23.175781 C 44.210938 23.152344 44.074219 23.226562 43.949219 23.277344 C 43.84375 23.316406 43.742188 23.421875 43.644531 23.414062 C 43.308594 23.390625 43.214844 23.933594 42.828125 23.75 C 42.699219 23.992188 42.542969 24.21875 42.457031 24.472656 C 42.023438 25.742188 41.398438 26.890625 40.550781 27.933594 C 39.085938 29.730469 37.382812 31.269531 35.550781 32.667969 C 32.78125 34.777344 29.832031 36.613281 26.808594 38.328125 C 26.644531 38.421875 26.503906 38.566406 26.351562 38.683594 C 26.535156 38.621094 26.730469 38.578125 26.902344 38.492188 C 29.285156 37.277344 31.636719 36 33.882812 34.546875 C 36.515625 32.847656 39.03125 31 41.207031 28.730469 C 42.195312 27.699219 43.128906 26.617188 43.765625 25.324219 C 44.046875 24.746094 44.257812 24.132812 44.484375 23.582031 Z M 35.15625 21.222656 C 35.175781 21.21875 35.195312 21.214844 35.214844 21.210938 C 35.214844 21.109375 35.210938 21.011719 35.21875 20.910156 C 35.257812 20.121094 35.617188 19.511719 36.332031 19.171875 C 37.039062 18.828125 37.699219 19.019531 38.28125 19.5 C 38.492188 19.675781 38.664062 19.894531 38.847656 20.097656 C 38.964844 20.222656 39.066406 20.371094 39.191406 20.488281 C 39.230469 20.527344 39.347656 20.53125 39.390625 20.503906 C 39.460938 20.449219 39.554688 20.347656 39.542969 20.277344 C 39.527344 20.132812 39.457031 19.992188 39.390625 19.855469 C 39.046875 19.132812 38.703125 18.410156 38.34375 17.695312 C 38.253906 17.519531 38.230469 17.179688 37.941406 17.261719 C 37.667969 17.335938 37.796875 17.644531 37.785156 17.855469 C 37.757812 18.460938 37.746094 18.5 37.15625 18.542969 C 36.359375 18.601562 35.726562 18.960938 35.226562 19.5625 C 33.855469 21.210938 33.785156 24.113281 35.113281 25.789062 C 35.398438 26.144531 35.8125 26.449219 36.226562 26.640625 C 37.121094 27.0625 37.933594 26.742188 38.675781 26.191406 C 39.207031 25.792969 39.570312 25.257812 39.867188 24.667969 C 40.039062 24.335938 40.222656 24.023438 40.671875 23.976562 C 41.082031 23.929688 41.097656 23.875 40.949219 23.511719 C 40.734375 22.976562 40.496094 22.457031 40.292969 21.917969 C 40.109375 21.441406 40.167969 20.984375 40.515625 20.585938 C 40.582031 20.511719 40.664062 20.445312 40.710938 20.363281 C 40.742188 20.308594 40.746094 20.175781 40.722656 20.167969 C 40.648438 20.132812 40.535156 20.105469 40.472656 20.136719 C 40.339844 20.207031 40.226562 20.3125 40.113281 20.410156 C 39.355469 21.0625 38.597656 21.710938 37.847656 22.378906 C 37.714844 22.496094 37.523438 22.785156 37.554688 22.824219 C 37.800781 23.101562 37.929688 22.761719 38.089844 22.664062 C 38.589844 22.355469 38.839844 22.390625 39.148438 22.863281 C 39.714844 23.726562 39.695312 24.46875 39.074219 25.289062 C 38.269531 26.355469 37.308594 26.351562 36.632812 25.191406 C 36.160156 24.375 35.808594 23.484375 35.460938 22.601562 C 35.289062 22.171875 35.253906 21.683594 35.15625 21.222656 Z M 22.53125 42.167969 C 17 42.167969 11.46875 42.167969 5.933594 42.164062 C 5.710938 42.164062 5.488281 42.132812 5.269531 42.117188 C 5.414062 41.960938 5.550781 41.792969 5.710938 41.652344 C 8.1875 39.542969 10.664062 37.433594 13.144531 35.328125 C 15.988281 32.917969 18.835938 30.511719 21.675781 28.097656 C 24.136719 26.007812 26.59375 23.914062 29.054688 21.824219 C 31.898438 19.410156 34.773438 17.039062 37.566406 14.566406 C 38.402344 13.824219 39.230469 13.5625 40.320312 13.585938 C 43.5 13.644531 46.679688 13.605469 49.859375 13.605469 C 50.058594 13.605469 50.257812 13.605469 50.457031 13.613281 C 50.625 13.617188 50.664062 13.699219 50.601562 13.851562 C 50.507812 14.085938 50.425781 14.320312 50.339844 14.554688 C 48.289062 20.035156 46.246094 25.515625 44.195312 30.992188 C 42.871094 34.527344 41.539062 38.058594 40.210938 41.59375 C 40 42.164062 39.996094 42.164062 39.355469 42.164062 C 33.75 42.167969 28.140625 42.167969 22.53125 42.167969 "/>
<path style=" stroke:none;fill-rule:nonzero;fill:rgb(72.731018%,11.509705%,14.001465%);fill-opacity:1;" d="M 35.15625 21.222656 C 35.253906 21.683594 35.289062 22.171875 35.460938 22.601562 C 35.808594 23.484375 36.160156 24.375 36.632812 25.191406 C 37.308594 26.351562 38.269531 26.355469 39.074219 25.289062 C 39.695312 24.46875 39.714844 23.726562 39.148438 22.863281 C 38.839844 22.390625 38.589844 22.355469 38.089844 22.664062 C 37.929688 22.761719 37.800781 23.101562 37.554688 22.824219 C 37.523438 22.785156 37.714844 22.496094 37.847656 22.378906 C 38.597656 21.710938 39.355469 21.0625 40.113281 20.410156 C 40.226562 20.3125 40.339844 20.207031 40.472656 20.136719 C 40.535156 20.105469 40.648438 20.132812 40.722656 20.167969 C 40.746094 20.175781 40.742188 20.308594 40.710938 20.363281 C 40.664062 20.445312 40.582031 20.511719 40.515625 20.585938 C 40.167969 20.984375 40.109375 21.441406 40.292969 21.917969 C 40.496094 22.457031 40.734375 22.976562 40.949219 23.511719 C 41.097656 23.875 41.082031 23.929688 40.671875 23.976562 C 40.222656 24.023438 40.039062 24.335938 39.867188 24.667969 C 39.570312 25.257812 39.207031 25.792969 38.675781 26.191406 C 37.933594 26.742188 37.121094 27.0625 36.226562 26.640625 C 35.8125 26.449219 35.398438 26.144531 35.113281 25.789062 C 33.785156 24.113281 33.855469 21.210938 35.226562 19.5625 C 35.726562 18.960938 36.359375 18.601562 37.15625 18.542969 C 37.746094 18.5 37.757812 18.460938 37.785156 17.855469 C 37.796875 17.644531 37.667969 17.335938 37.941406 17.261719 C 38.230469 17.179688 38.253906 17.519531 38.34375 17.695312 C 38.703125 18.410156 39.046875 19.132812 39.390625 19.855469 C 39.457031 19.992188 39.527344 20.132812 39.542969 20.277344 C 39.554688 20.347656 39.460938 20.449219 39.390625 20.503906 C 39.347656 20.53125 39.230469 20.527344 39.191406 20.488281 C 39.066406 20.371094 38.964844 20.222656 38.847656 20.097656 C 38.664062 19.894531 38.492188 19.675781 38.28125 19.5 C 37.699219 19.019531 37.039062 18.828125 36.332031 19.171875 C 35.617188 19.511719 35.257812 20.121094 35.21875 20.910156 C 35.210938 21.011719 35.214844 21.109375 35.214844 21.210938 C 35.195312 21.214844 35.175781 21.21875 35.15625 21.222656 "/>
<path style=" stroke:none;fill-rule:nonzero;fill:rgb(72.731018%,11.509705%,14.001465%);fill-opacity:1;" d="M 44.484375 23.582031 C 44.257812 24.132812 44.046875 24.746094 43.765625 25.324219 C 43.128906 26.617188 42.195312 27.699219 41.207031 28.730469 C 39.03125 31 36.515625 32.847656 33.882812 34.546875 C 31.636719 36 29.285156 37.277344 26.902344 38.492188 C 26.730469 38.578125 26.535156 38.621094 26.351562 38.683594 C 26.503906 38.566406 26.644531 38.421875 26.808594 38.328125 C 29.832031 36.613281 32.78125 34.777344 35.550781 32.667969 C 37.382812 31.269531 39.085938 29.730469 40.550781 27.933594 C 41.398438 26.890625 42.023438 25.742188 42.457031 24.472656 C 42.542969 24.21875 42.699219 23.992188 42.828125 23.75 C 43.214844 23.933594 43.308594 23.390625 43.644531 23.414062 C 43.742188 23.421875 43.84375 23.316406 43.949219 23.277344 C 44.074219 23.226562 44.210938 23.152344 44.328125 23.175781 C 44.386719 23.183594 44.410156 23.382812 44.484375 23.582031 "/>
<path style=" stroke:none;fill-rule:nonzero;fill:rgb(72.731018%,11.509705%,14.001465%);fill-opacity:1;" d="M 28.726562 27.519531 C 28.742188 26.296875 28.894531 25.316406 29.507812 24.46875 C 29.996094 23.792969 30.597656 23.3125 31.511719 23.378906 C 31.945312 23.40625 32.003906 23.320312 32.066406 22.863281 C 32.09375 22.667969 32.09375 22.464844 32.144531 22.273438 C 32.164062 22.195312 32.269531 22.097656 32.347656 22.085938 C 32.410156 22.078125 32.503906 22.175781 32.558594 22.246094 C 32.617188 22.320312 32.652344 22.421875 32.695312 22.511719 C 33.082031 23.324219 33.46875 24.132812 33.855469 24.945312 C 33.910156 25.058594 33.980469 25.175781 33.988281 25.292969 C 33.992188 25.367188 33.914062 25.46875 33.84375 25.527344 C 33.808594 25.554688 33.691406 25.535156 33.652344 25.496094 C 33.527344 25.375 33.425781 25.230469 33.308594 25.101562 C 32.925781 24.667969 32.507812 24.277344 31.960938 24.050781 C 30.898438 23.613281 29.867188 24.226562 29.832031 25.371094 C 29.8125 25.910156 29.859375 26.488281 30.035156 26.992188 C 30.355469 27.90625 30.789062 28.785156 31.179688 29.675781 C 31.199219 29.722656 31.226562 29.761719 31.253906 29.804688 C 32.089844 31.148438 32.976562 30.832031 33.683594 29.785156 C 34.011719 29.300781 34.171875 28.75 34.214844 28.164062 C 34.234375 27.925781 34.339844 27.691406 34.421875 27.464844 C 34.441406 27.417969 34.550781 27.367188 34.601562 27.378906 C 34.65625 27.394531 34.726562 27.484375 34.726562 27.539062 C 34.675781 28.738281 34.457031 29.875 33.523438 30.742188 C 32.34375 31.835938 30.695312 31.730469 29.695312 30.46875 C 28.957031 29.546875 28.683594 28.476562 28.726562 27.519531 "/>
<path style=" stroke:none;fill-rule:nonzero;fill:rgb(72.731018%,11.509705%,14.001465%);fill-opacity:1;" d="M 25.554688 30.808594 C 25.539062 30.875 25.503906 30.933594 25.507812 30.984375 C 25.585938 31.601562 25.664062 32.214844 25.746094 32.828125 C 25.78125 33.058594 25.832031 33.289062 25.875 33.519531 C 26.074219 33.378906 26.277344 33.246094 26.46875 33.09375 C 26.644531 32.957031 26.796875 32.792969 26.96875 32.648438 C 27.171875 32.484375 27.15625 32.332031 26.980469 32.15625 C 26.550781 31.742188 26.132812 31.320312 25.710938 30.898438 C 25.675781 30.867188 25.625 30.847656 25.554688 30.808594 Z M 25.527344 34.9375 C 25.320312 33.128906 25.109375 31.316406 24.90625 29.503906 C 24.871094 29.183594 24.847656 28.855469 24.847656 28.53125 C 24.847656 28.429688 24.929688 28.304688 25.011719 28.234375 C 25.046875 28.207031 25.191406 28.269531 25.261719 28.324219 C 25.382812 28.414062 25.480469 28.53125 25.585938 28.636719 C 26.820312 29.84375 28.050781 31.054688 29.285156 32.261719 C 29.355469 32.332031 29.425781 32.402344 29.5 32.46875 C 29.910156 32.832031 29.933594 32.828125 30.472656 32.566406 C 30.542969 32.53125 30.636719 32.558594 30.722656 32.554688 C 30.710938 32.648438 30.71875 32.75 30.683594 32.835938 C 30.660156 32.902344 30.589844 32.949219 30.535156 33 C 29.777344 33.652344 29.019531 34.308594 28.261719 34.960938 C 28.226562 34.996094 28.183594 35.039062 28.140625 35.042969 C 28.078125 35.050781 27.984375 35.042969 27.953125 35.003906 C 27.917969 34.960938 27.90625 34.847656 27.941406 34.808594 C 28.066406 34.652344 28.222656 34.523438 28.351562 34.375 C 28.617188 34.0625 28.621094 33.914062 28.382812 33.582031 C 27.78125 32.746094 27.640625 32.726562 26.847656 33.394531 C 26.65625 33.554688 26.46875 33.722656 26.285156 33.894531 C 25.816406 34.328125 25.816406 35.21875 26.320312 35.589844 C 26.449219 35.6875 26.6875 35.640625 26.871094 35.664062 C 26.957031 35.671875 27.101562 35.675781 27.109375 35.710938 C 27.128906 35.792969 27.121094 35.929688 27.066406 35.980469 C 26.507812 36.480469 25.945312 36.972656 25.371094 37.457031 C 25.324219 37.5 25.191406 37.46875 25.117188 37.433594 C 25.085938 37.417969 25.066406 37.28125 25.09375 37.242188 C 25.628906 36.542969 25.542969 35.742188 25.527344 34.9375 "/>
<path style=" stroke:none;fill-rule:nonzero;fill:rgb(100%,100%,100%);fill-opacity:1;" d="M 25.554688 30.808594 C 25.625 30.847656 25.675781 30.867188 25.710938 30.898438 C 26.132812 31.320312 26.550781 31.742188 26.980469 32.15625 C 27.15625 32.332031 27.171875 32.484375 26.96875 32.648438 C 26.796875 32.792969 26.644531 32.957031 26.46875 33.09375 C 26.277344 33.246094 26.074219 33.378906 25.875 33.519531 C 25.832031 33.289062 25.78125 33.058594 25.746094 32.828125 C 25.664062 32.214844 25.585938 31.601562 25.507812 30.984375 C 25.503906 30.933594 25.539062 30.875 25.554688 30.808594 "/>
</g>
</svg>
