<?xml version="1.0" encoding="UTF-8"?>
<svg xmlns="http://www.w3.org/2000/svg" xmlns:xlink="http://www.w3.org/1999/xlink" width="56pt" height="56pt" viewBox="0 0 56 56" version="1.1">
<g id="surface1">
<rect x="0" y="0" width="56" height="56" style="fill:rgb(95.291138%,95.347595%,96.429443%);fill-opacity:1;stroke:none;"/>
<path style=" stroke:none;fill-rule:evenodd;fill:rgb(14.346313%,29.943848%,62.530518%);fill-opacity:1;" d="M 14.425781 31.308594 C 18.578125 27.445312 27.964844 21.820312 35.089844 21.058594 C 35.921875 20.960938 36.347656 21 37.09375 21.183594 C 38.011719 21.367188 42.78125 19.40625 48.289062 22.074219 C 55.148438 25.402344 47.425781 24.527344 45.367188 24.792969 C 42.671875 25.132812 39.566406 27.136719 36.996094 28.207031 C 31.070312 30.671875 16.742188 35.59375 9.9375 33.648438 C 17.816406 34.566406 32.097656 29.558594 38.308594 26.386719 C 43.714844 23.625 43.277344 23.722656 47.894531 23.511719 C 44.957031 21.929688 43.179688 21.636719 38.746094 22.382812 C 36.304688 22.792969 36.699219 22.296875 35.402344 22.46875 C 29.023438 23.230469 20.128906 28.742188 16.472656 32.253906 L 14.425781 31.308594 "/>
<path style=" stroke:none;fill-rule:evenodd;fill:rgb(95.777893%,57.743835%,6.492615%);fill-opacity:1;" d="M 11.871094 16.796875 C 20.453125 18.980469 24.632812 21.632812 34.878906 30.304688 C 38.761719 33.574219 42.402344 37.351562 43.277344 40.539062 C 45.351562 36.945312 45.382812 29.414062 40.75 25.566406 C 31.761719 18.066406 19.621094 16.359375 11.871094 16.796875 Z M 5.957031 15.851562 C 7.765625 16.230469 9.21875 16.117188 10.714844 16.484375 C 15.613281 15.355469 24.433594 16.484375 31.097656 19.050781 C 42.613281 23.492188 46.75 29.273438 46.367188 36.707031 C 46.285156 38.199219 44.914062 45.277344 41.964844 43.992188 C 40.441406 43.332031 41.101562 42.5 41.300781 42.078125 C 42.53125 39.367188 37.53125 34.25 33.878906 31.261719 C 21.976562 21.546875 17.347656 19.363281 4.925781 16.839844 L 5.957031 15.851562 "/>
</g>
</svg>
