<?xml version="1.0" encoding="UTF-8"?>
<svg xmlns="http://www.w3.org/2000/svg" xmlns:xlink="http://www.w3.org/1999/xlink" width="56pt" height="56pt" viewBox="0 0 56 56" version="1.1">
<g id="surface1">
<rect x="0" y="0" width="56" height="56" style="fill:rgb(94.351196%,27.764893%,11.294556%);fill-opacity:1;stroke:none;"/>
<path style=" stroke:none;fill-rule:nonzero;fill:rgb(100%,100%,100%);fill-opacity:1;" d="M 44.964844 25.375 L 48.941406 23.257812 L 45.816406 23.253906 Z M 44.964844 25.375 "/>
<path style=" stroke:none;fill-rule:nonzero;fill:rgb(100%,100%,100%);fill-opacity:1;" d="M 18.183594 25.527344 L 18.9375 23.601562 L 12.6875 23.601562 L 9.304688 32.65625 L 15.804688 32.65625 L 16.5625 30.714844 L 12.847656 30.714844 L 13.488281 29.097656 L 16.804688 29.097656 L 17.492188 27.300781 L 14.171875 27.300781 L 14.867188 25.527344 L 18.183594 25.527344 "/>
<path style=" stroke:none;fill-rule:nonzero;fill:rgb(100%,100%,100%);fill-opacity:1;" d="M 17.578125 30.714844 L 16.808594 32.664062 C 18.527344 32.851562 19.988281 32.652344 19.988281 32.652344 C 21.003906 32.554688 22.707031 32.222656 23.628906 30.015625 L 26.191406 23.601562 L 23.257812 23.601562 L 21.015625 29.152344 C 21.015625 29.152344 20.65625 30.355469 19.375 30.671875 C 18.921875 30.785156 18.082031 30.742188 17.578125 30.714844 "/>
<path style=" stroke:none;fill-rule:nonzero;fill:rgb(100%,100%,100%);fill-opacity:1;" d="M 2.769531 30.714844 L 2.003906 32.664062 C 3.71875 32.851562 5.179688 32.652344 5.179688 32.652344 C 6.195312 32.554688 7.898438 32.222656 8.820312 30.015625 L 11.386719 23.601562 L 8.449219 23.601562 L 6.207031 29.152344 C 6.207031 29.152344 5.851562 30.355469 4.570312 30.671875 C 4.113281 30.785156 3.273438 30.742188 2.769531 30.714844 "/>
<path style=" stroke:none;fill-rule:nonzero;fill:rgb(100%,100%,100%);fill-opacity:1;" d="M 32.457031 23.601562 L 30.304688 29.410156 C 29.792969 30.710938 29.324219 30.777344 28.617188 30.777344 C 27.785156 30.777344 27.992188 30.09375 28.105469 29.691406 L 30.398438 23.601562 L 27.496094 23.601562 L 25.128906 29.96875 C 24.300781 32.238281 26.183594 32.710938 27.113281 32.710938 L 28.636719 32.710938 C 29.46875 32.710938 32.085938 32.484375 32.882812 30.34375 L 35.382812 23.601562 L 32.457031 23.601562 "/>
<path style=" stroke:none;fill-rule:nonzero;fill:rgb(100%,100%,100%);fill-opacity:1;" d="M 42.195312 32.742188 L 44.832031 32.742188 L 47.507812 25.539062 L 44.882812 25.539062 L 42.195312 32.742188 "/>
<path style=" stroke:none;fill-rule:nonzero;fill:rgb(100%,100%,100%);fill-opacity:1;" d="M 53.4375 25.539062 C 52.023438 25.539062 51.195312 26.347656 50.773438 26.867188 L 51.300781 25.539062 L 48.675781 25.539062 L 45.984375 32.742188 L 48.621094 32.742188 L 49.902344 29.332031 C 50.558594 27.800781 51.964844 27.699219 52.210938 27.699219 L 53.210938 27.699219 L 53.996094 25.539062 L 53.4375 25.539062 "/>
<path style=" stroke:none;fill-rule:nonzero;fill:rgb(100%,100%,100%);fill-opacity:1;" d="M 39.445312 30.152344 C 39.445312 30.152344 39.097656 31.222656 37.605469 31.222656 C 37.382812 31.222656 37.066406 31.089844 37.117188 30.683594 C 37.171875 30.230469 37.46875 30.058594 37.835938 29.980469 L 39.632812 29.640625 Z M 37.464844 28.675781 C 35.789062 28.855469 34.453125 29.617188 34.277344 31.050781 C 34.1875 31.761719 34.539062 32.734375 36.417969 32.734375 C 36.417969 32.734375 37.828125 32.792969 38.707031 32.191406 L 38.496094 32.742188 L 41.070312 32.742188 L 42.839844 27.90625 L 42.929688 27.65625 C 43.175781 27 43.164062 25.535156 40.0625 25.472656 C 38.753906 25.445312 36.613281 25.699219 35.347656 27.90625 L 37.914062 27.90625 C 37.914062 27.90625 38.28125 26.960938 39.460938 26.960938 C 39.460938 26.960938 40.199219 26.925781 40.257812 27.414062 C 40.257812 27.414062 40.339844 28.125 39.257812 28.390625 C 38.628906 28.542969 37.464844 28.675781 37.464844 28.675781 "/>
</g>
</svg>
