<?xml version="1.0" encoding="UTF-8"?>
<svg xmlns="http://www.w3.org/2000/svg" xmlns:xlink="http://www.w3.org/1999/xlink" width="56pt" height="56pt" viewBox="0 0 56 56" version="1.1">
<g id="surface1">
<rect x="0" y="0" width="56" height="56" style="fill:rgb(20.663452%,51.564026%,68.62793%);fill-opacity:1;stroke:none;"/>
<path style=" stroke:none;fill-rule:nonzero;fill:rgb(100%,100%,100%);fill-opacity:1;" d="M 0.433594 29.25 C 0.585938 29.152344 0.691406 29.070312 0.808594 29.015625 C 1.90625 28.53125 2.992188 28.023438 4.109375 27.582031 C 5.03125 27.214844 5.972656 26.902344 6.921875 26.621094 C 7.882812 26.335938 8.859375 26.09375 9.839844 25.882812 C 10.6875 25.703125 11.546875 25.570312 12.40625 25.453125 C 13.011719 25.367188 13.621094 25.328125 14.230469 25.289062 C 14.832031 25.25 15.433594 25.226562 16.03125 25.226562 C 17.0625 25.21875 18.085938 25.308594 19.109375 25.414062 C 21.128906 25.628906 23.082031 26.105469 25.003906 26.738281 C 26.015625 27.074219 27.035156 27.386719 28.082031 27.585938 C 28.597656 27.683594 29.121094 27.726562 29.644531 27.796875 C 30.574219 27.925781 31.507812 27.875 32.4375 27.859375 C 33.011719 27.851562 33.585938 27.777344 34.15625 27.730469 C 34.472656 27.707031 34.789062 27.679688 35.105469 27.644531 C 35.765625 27.570312 36.417969 27.5 37.074219 27.40625 C 37.628906 27.332031 38.183594 27.234375 38.738281 27.136719 C 39.84375 26.9375 40.957031 26.757812 42.054688 26.527344 C 43.683594 26.1875 45.308594 25.839844 46.925781 25.445312 C 49.265625 24.867188 51.59375 24.242188 53.921875 23.640625 C 54.292969 23.542969 54.65625 23.441406 55.023438 23.34375 C 55.277344 23.277344 55.285156 23.28125 55.570312 23.347656 C 55.511719 23.503906 55.375 23.566406 55.246094 23.628906 C 54.386719 24.046875 53.53125 24.46875 52.660156 24.871094 C 51.917969 25.214844 51.164062 25.550781 50.40625 25.863281 C 48.867188 26.5 47.324219 27.121094 45.777344 27.738281 C 45.117188 28 44.449219 28.242188 43.773438 28.46875 C 42.683594 28.832031 41.589844 29.183594 40.484375 29.519531 C 39.398438 29.84375 38.300781 30.160156 37.203125 30.441406 C 35.710938 30.824219 34.207031 31.175781 32.710938 31.53125 C 31.996094 31.703125 31.28125 31.875 30.5625 32.015625 C 29.699219 32.1875 28.832031 32.335938 27.964844 32.484375 C 26.996094 32.65625 26.019531 32.722656 25.039062 32.699219 C 24.191406 32.683594 23.355469 32.574219 22.527344 32.394531 C 20.84375 32.027344 19.242188 31.421875 17.671875 30.726562 C 16.109375 30.039062 14.503906 29.484375 12.851562 29.070312 C 11.769531 28.796875 10.679688 28.570312 9.558594 28.5625 C 9.019531 28.554688 8.480469 28.492188 7.941406 28.519531 C 7.085938 28.554688 6.234375 28.625 5.382812 28.71875 C 4.421875 28.824219 3.464844 28.960938 2.507812 29.097656 C 2.027344 29.167969 1.546875 29.269531 1.066406 29.347656 C 0.875 29.382812 0.679688 29.433594 0.433594 29.25 "/>
</g>
</svg>
