<?xml version="1.0" encoding="UTF-8"?>
<svg xmlns="http://www.w3.org/2000/svg" xmlns:xlink="http://www.w3.org/1999/xlink" width="56pt" height="56pt" viewBox="0 0 56 56" version="1.1">
<g id="surface1">
<rect x="0" y="0" width="56" height="56" style="fill:rgb(65.193176%,10.075378%,18.139648%);fill-opacity:1;stroke:none;"/>
<path style=" stroke:none;fill-rule:nonzero;fill:rgb(100%,100%,100%);fill-opacity:1;" d="M 26.683594 5.511719 C 26.714844 5.539062 26.746094 5.570312 26.777344 5.601562 L 27.117188 5.601562 C 26.839844 5.535156 26.683594 5.511719 26.683594 5.511719 "/>
<path style=" stroke:none;fill-rule:nonzero;fill:rgb(100%,100%,100%);fill-opacity:1;" d="M 23.824219 29.800781 C 20.789062 34.800781 16.324219 41.050781 13.734375 43.285156 C 13.554688 43.464844 13.644531 43.550781 14.179688 43.195312 C 16.773438 41.675781 30.96875 29.980469 34.183594 25.15625 C 35.96875 22.300781 40.882812 14.621094 34.898438 9.621094 C 31.519531 6.816406 28.261719 5.867188 27.117188 5.601562 L 26.777344 5.601562 C 28.757812 7.488281 32.089844 16.175781 23.824219 29.800781 "/>
<path style=" stroke:none;fill-rule:nonzero;fill:rgb(100%,100%,100%);fill-opacity:1;" d="M 37.578125 27.480469 C 37.488281 30.78125 32.308594 37.121094 22.933594 41.410156 C 18.378906 43.464844 14.71875 44.980469 14.003906 45.25 C 13.378906 45.515625 13.644531 45.605469 14.269531 45.515625 C 15.96875 45.339844 20.433594 44.445312 22.308594 43.910156 C 28.023438 42.570312 37.667969 40.160156 41.238281 36.496094 C 43.738281 33.820312 41.417969 30.605469 40.613281 29.800781 C 39.898438 28.996094 37.578125 27.121094 37.578125 27.480469 "/>
<path style=" stroke:none;fill-rule:nonzero;fill:rgb(100%,100%,100%);fill-opacity:1;" d="M 38.023438 43.464844 C 37.757812 43.105469 37.578125 46.945312 26.414062 47.035156 C 19.984375 47.035156 14.71875 46.675781 13.824219 46.765625 C 13.644531 46.855469 13.46875 46.945312 13.914062 47.035156 C 14.804688 47.394531 18.824219 48.105469 20.164062 48.375 C 23.289062 49 32.753906 51.054688 36.773438 50.339844 C 40.703125 49.625 39.632812 46.769531 39.453125 46.320312 C 39.007812 45.25 38.292969 43.820312 38.023438 43.464844 "/>
</g>
</svg>
