<?xml version="1.0" encoding="UTF-8"?>
<svg xmlns="http://www.w3.org/2000/svg" xmlns:xlink="http://www.w3.org/1999/xlink" width="56pt" height="56pt" viewBox="0 0 56 56" version="1.1">
<g id="surface1">
<rect x="0" y="0" width="56" height="56" style="fill:rgb(95.66803%,95.779419%,96.777344%);fill-opacity:1;stroke:none;"/>
<path style=" stroke:none;fill-rule:nonzero;fill:rgb(92.250061%,12.472534%,14.814758%);fill-opacity:1;" d="M 10.578125 17.15625 C 11.566406 17.238281 12.816406 17.574219 13.617188 18.265625 C 14.855469 19.328125 16.945312 22.484375 19.246094 23.402344 C 21.285156 24.210938 21.324219 24.179688 21.753906 23.566406 C 22.320312 22.753906 19.289062 20.933594 19.207031 19.539062 C 19.125 18.140625 20.128906 17.054688 21.84375 17.148438 C 23.222656 17.21875 25.027344 17.175781 30.585938 22.320312 C 37.621094 28.832031 47.835938 30.777344 50.484375 30.949219 C 50.609375 29.984375 50.679688 29 50.679688 28 C 50.679688 15.472656 40.527344 5.320312 28 5.320312 C 18.90625 5.320312 11.066406 10.671875 7.449219 18.402344 C 8.570312 17.316406 9.613281 17.074219 10.578125 17.15625 "/>
<path style=" stroke:none;fill-rule:nonzero;fill:rgb(18.115234%,53.40271%,23.00415%);fill-opacity:1;" d="M 36.28125 30.371094 C 30.605469 28.242188 29.699219 26.933594 27.34375 26.441406 C 25.707031 26.097656 24.960938 26.605469 24.714844 27.675781 C 24.464844 28.742188 25.925781 31.742188 31.78125 34.164062 C 36.535156 36.136719 39.339844 37.535156 42.875 38.027344 C 41.640625 39.425781 41.640625 39.425781 41.640625 39.425781 L 41.558594 41.644531 C 41.558594 41.644531 28.347656 37.558594 25.207031 36.46875 C 21.179688 35.070312 18.21875 33.171875 15.839844 29.394531 C 13.453125 25.613281 14.0625 23.46875 12.847656 21.199219 C 11.777344 19.199219 9.863281 18.441406 7.417969 18.472656 C 6.074219 21.367188 5.320312 24.59375 5.320312 28 C 5.320312 40.527344 15.472656 50.679688 28 50.679688 C 39.5 50.679688 48.992188 42.121094 50.472656 31.027344 C 46.511719 32.335938 40.160156 31.828125 36.28125 30.371094 "/>
<path style=" stroke:none;fill-rule:nonzero;fill:rgb(100%,100%,100%);fill-opacity:1;" d="M 12.441406 28.933594 C 12.441406 28.933594 13.535156 35.726562 21.425781 40.382812 C 26.519531 43.054688 35.835938 43.617188 37.804688 42.847656 C 32.546875 41.644531 28.628906 40.273438 25.125 38.847656 C 21.617188 37.421875 13.867188 30.90625 12.441406 28.933594 "/>
</g>
</svg>
