<?xml version="1.0" encoding="UTF-8"?>
<svg xmlns="http://www.w3.org/2000/svg" xmlns:xlink="http://www.w3.org/1999/xlink" width="56pt" height="56pt" viewBox="0 0 56 56" version="1.1">
<g id="surface1">
<rect x="0" y="0" width="56" height="56" style="fill:rgb(21.234131%,45.326233%,76.358032%);fill-opacity:1;stroke:none;"/>
<path style=" stroke:none;fill-rule:nonzero;fill:rgb(100%,100%,100%);fill-opacity:1;" d="M 21.054688 20.683594 C 21.082031 20.777344 21.125 20.738281 21.160156 20.738281 C 21.597656 20.746094 22.039062 20.742188 22.476562 20.757812 C 22.847656 20.765625 23.214844 20.789062 23.585938 20.808594 C 23.863281 20.824219 24.140625 20.84375 24.414062 20.859375 C 24.683594 20.878906 24.953125 20.894531 25.222656 20.914062 C 25.460938 20.929688 25.699219 20.949219 25.9375 20.96875 C 26.1875 20.984375 26.4375 21.003906 26.6875 21.023438 C 26.921875 21.039062 27.15625 21.058594 27.390625 21.074219 C 27.660156 21.09375 27.933594 21.109375 28.207031 21.128906 C 28.472656 21.144531 28.738281 21.164062 29.003906 21.179688 C 29.332031 21.199219 29.65625 21.21875 29.984375 21.234375 C 30.359375 21.253906 30.734375 21.273438 31.113281 21.289062 C 31.601562 21.308594 32.089844 21.300781 32.578125 21.347656 C 33.375 21.417969 34.171875 21.355469 34.96875 21.398438 C 36.324219 21.472656 37.679688 21.421875 39.035156 21.4375 C 39.53125 21.445312 40.03125 21.457031 40.527344 21.429688 C 41.605469 21.363281 42.691406 21.429688 43.773438 21.371094 C 44.578125 21.328125 45.382812 21.351562 46.183594 21.328125 C 46.925781 21.304688 47.671875 21.316406 48.414062 21.265625 C 49.164062 21.214844 49.914062 21.265625 50.664062 21.214844 C 51.535156 21.15625 52.40625 21.214844 53.273438 21.160156 C 54.128906 21.105469 54.984375 21.144531 55.839844 21.121094 C 55.882812 21.117188 55.929688 21.121094 55.984375 21.121094 C 55.992188 21.226562 55.996094 21.304688 56 21.414062 C 55.949219 21.433594 55.910156 21.460938 55.867188 21.464844 C 55.65625 21.488281 55.449219 21.511719 55.234375 21.53125 C 55.078125 21.550781 54.921875 21.570312 54.765625 21.585938 C 54.539062 21.605469 54.3125 21.621094 54.085938 21.640625 C 53.851562 21.65625 53.617188 21.675781 53.382812 21.691406 C 53.105469 21.710938 52.828125 21.730469 52.550781 21.746094 C 52.253906 21.765625 51.953125 21.78125 51.652344 21.800781 C 51.328125 21.816406 51.007812 21.835938 50.683594 21.851562 C 50.332031 21.871094 49.976562 21.890625 49.621094 21.90625 C 49.253906 21.925781 48.882812 21.941406 48.515625 21.960938 C 48.125 21.976562 47.738281 21.996094 47.347656 22.011719 C 46.953125 22.03125 46.558594 22.046875 46.160156 22.066406 C 45.746094 22.085938 45.332031 22.101562 44.914062 22.121094 C 44.511719 22.136719 44.105469 22.15625 43.703125 22.171875 C 43.285156 22.191406 42.863281 22.207031 42.445312 22.226562 C 42.042969 22.242188 41.640625 22.261719 41.234375 22.28125 C 40.824219 22.296875 40.410156 22.316406 40 22.332031 C 39.605469 22.351562 39.207031 22.367188 38.8125 22.386719 C 38.421875 22.402344 38.035156 22.421875 37.648438 22.441406 C 37.269531 22.457031 36.894531 22.476562 36.515625 22.492188 C 36.144531 22.511719 35.769531 22.527344 35.398438 22.546875 C 35.046875 22.5625 34.699219 22.582031 34.347656 22.597656 C 33.996094 22.617188 33.648438 22.636719 33.296875 22.652344 C 32.96875 22.671875 32.636719 22.6875 32.304688 22.707031 C 31.992188 22.722656 31.675781 22.742188 31.359375 22.761719 C 31.074219 22.777344 30.785156 22.792969 30.496094 22.8125 C 30.25 22.828125 30.003906 22.847656 29.757812 22.867188 C 29.546875 22.882812 29.335938 22.902344 29.125 22.917969 C 28.945312 22.9375 28.765625 22.953125 28.582031 22.972656 C 28.257812 23.007812 27.929688 23.042969 27.605469 23.082031 C 27.335938 23.113281 27.070312 23.148438 26.800781 23.183594 C 26.5625 23.21875 26.324219 23.253906 26.089844 23.292969 C 25.886719 23.324219 25.683594 23.355469 25.480469 23.394531 C 25.164062 23.457031 24.851562 23.53125 24.539062 23.597656 C 24.347656 23.636719 24.15625 23.667969 23.964844 23.714844 C 23.722656 23.773438 23.480469 23.84375 23.234375 23.910156 C 23.085938 23.949219 22.9375 23.984375 22.789062 24.03125 C 22.589844 24.089844 22.386719 24.15625 22.1875 24.222656 C 21.96875 24.296875 21.753906 24.367188 21.539062 24.457031 C 21.21875 24.582031 20.898438 24.714844 20.578125 24.859375 C 20.085938 25.085938 19.597656 25.355469 19.113281 25.6875 C 18.519531 26.097656 17.941406 26.582031 17.394531 27.277344 C 17.035156 27.734375 16.703125 28.277344 16.425781 28.980469 C 16.175781 29.617188 16 30.351562 15.925781 31.195312 C 15.878906 31.71875 15.882812 32.25 15.910156 32.785156 C 15.9375 33.261719 15.996094 33.71875 16.058594 34.175781 C 16.070312 34.25 16.078125 34.324219 16.085938 34.40625 C 16.0625 34.457031 16.042969 34.496094 16.027344 34.53125 C 15.960938 34.515625 15.898438 34.503906 15.839844 34.476562 C 15.449219 34.320312 15.0625 34.128906 14.683594 33.867188 C 13.933594 33.351562 13.222656 32.609375 12.53125 31.777344 C 11.890625 31.007812 11.253906 30.214844 10.609375 29.457031 C 10.121094 28.878906 9.617188 28.40625 9.09375 28.046875 C 8.785156 27.839844 8.46875 27.671875 8.152344 27.554688 C 7.832031 27.4375 7.515625 27.335938 7.195312 27.242188 C 7.058594 27.203125 6.917969 27.195312 6.78125 27.171875 C 6.574219 27.136719 6.367188 27.097656 6.160156 27.074219 C 5.519531 26.992188 4.875 27.011719 4.234375 27.023438 C 3.792969 27.03125 3.347656 27.039062 2.90625 27.085938 C 2.253906 27.152344 1.597656 27.117188 0.945312 27.136719 C 0.886719 27.136719 0.832031 27.117188 0.785156 27.03125 C 0.785156 26.996094 0.785156 26.960938 0.785156 26.925781 C 0.824219 26.875 0.859375 26.804688 0.902344 26.785156 C 1.140625 26.679688 1.378906 26.59375 1.613281 26.492188 C 1.925781 26.363281 2.230469 26.222656 2.539062 26.085938 C 2.949219 25.902344 3.359375 25.722656 3.769531 25.53125 C 4.273438 25.292969 4.773438 25.046875 5.277344 24.808594 C 5.820312 24.550781 6.367188 24.296875 6.910156 24.042969 C 7.398438 23.8125 7.886719 23.585938 8.375 23.363281 C 8.71875 23.203125 9.066406 23.050781 9.414062 22.898438 C 9.628906 22.804688 9.847656 22.710938 10.066406 22.621094 C 10.371094 22.503906 10.671875 22.394531 10.976562 22.28125 C 11.199219 22.195312 11.421875 22.109375 11.644531 22.03125 C 11.832031 21.960938 12.023438 21.890625 12.210938 21.832031 C 12.410156 21.765625 12.605469 21.710938 12.804688 21.65625 C 12.953125 21.613281 13.101562 21.570312 13.25 21.527344 C 13.417969 21.480469 13.585938 21.433594 13.753906 21.390625 C 13.941406 21.347656 14.128906 21.308594 14.3125 21.269531 C 14.535156 21.222656 14.757812 21.167969 14.976562 21.128906 C 15.144531 21.097656 15.308594 21.082031 15.472656 21.058594 C 15.707031 21.027344 15.941406 20.992188 16.171875 20.960938 C 16.386719 20.925781 16.601562 20.890625 16.816406 20.863281 C 17.015625 20.839844 17.214844 20.824219 17.414062 20.808594 C 17.671875 20.789062 17.929688 20.765625 18.1875 20.757812 C 18.566406 20.742188 18.949219 20.746094 19.332031 20.738281 C 19.367188 20.738281 19.40625 20.773438 19.4375 20.683594 C 19.976562 20.683594 20.515625 20.683594 21.054688 20.683594 "/>
</g>
</svg>
