<?xml version="1.0" encoding="UTF-8"?>
<svg xmlns="http://www.w3.org/2000/svg" xmlns:xlink="http://www.w3.org/1999/xlink" width="56pt" height="56pt" viewBox="0 0 56 56" version="1.1">
<g id="surface1">
<rect x="0" y="0" width="56" height="56" style="fill:rgb(95.666504%,95.776367%,96.775818%);fill-opacity:1;stroke:none;"/>
<path style=" stroke:none;fill-rule:nonzero;fill:rgb(20.144653%,20.471191%,57.743835%);fill-opacity:1;" d="M 51.808594 21.992188 C 51.855469 22.011719 51.902344 22.042969 51.953125 22.050781 C 52.535156 22.140625 52.925781 22.492188 53.207031 22.984375 C 53.550781 23.597656 53.65625 24.265625 53.65625 24.976562 C 53.171875 24.976562 52.710938 24.976562 52.226562 24.976562 C 52.210938 24.902344 52.191406 24.820312 52.164062 24.742188 C 52.136719 24.648438 52.109375 24.554688 52.0625 24.472656 C 51.929688 24.238281 51.65625 24.132812 51.417969 24.210938 C 51.207031 24.285156 51.082031 24.535156 51.132812 24.8125 C 51.1875 25.113281 51.378906 25.3125 51.625 25.464844 C 51.839844 25.59375 52.058594 25.714844 52.285156 25.824219 C 53.167969 26.257812 53.644531 26.964844 53.742188 27.9375 C 53.832031 28.84375 53.804688 29.734375 53.433594 30.582031 C 53.074219 31.402344 52.410156 31.824219 51.539062 31.804688 C 50.980469 31.796875 50.570312 31.511719 50.253906 31.082031 C 49.738281 30.386719 49.546875 29.589844 49.546875 28.691406 C 50.011719 28.691406 50.460938 28.683594 50.910156 28.699219 C 50.957031 28.699219 51.011719 28.808594 51.042969 28.875 C 51.140625 29.074219 51.199219 29.292969 51.324219 29.46875 C 51.453125 29.65625 51.667969 29.695312 51.898438 29.632812 C 52.113281 29.570312 52.234375 29.429688 52.285156 29.210938 C 52.375 28.835938 52.246094 28.539062 51.945312 28.324219 C 51.726562 28.167969 51.488281 28.039062 51.242188 27.925781 C 50.304688 27.496094 49.800781 26.765625 49.691406 25.75 C 49.601562 24.945312 49.605469 24.144531 49.898438 23.375 C 50.179688 22.632812 50.65625 22.101562 51.515625 22.039062 C 51.535156 22.039062 51.554688 22.007812 51.574219 21.992188 C 51.652344 21.992188 51.730469 21.992188 51.808594 21.992188 "/>
<path style=" stroke:none;fill-rule:nonzero;fill:rgb(20.144653%,20.471191%,57.743835%);fill-opacity:1;" d="M 35.078125 21.992188 C 35.195312 22.019531 35.308594 22.050781 35.421875 22.078125 C 36.140625 22.261719 36.574219 22.761719 36.863281 23.402344 C 37.210938 24.164062 37.304688 24.976562 37.285156 25.820312 C 36.804688 25.820312 36.335938 25.820312 35.851562 25.820312 C 35.828125 25.640625 35.816406 25.460938 35.78125 25.28125 C 35.753906 25.132812 35.71875 24.976562 35.65625 24.835938 C 35.539062 24.558594 35.363281 24.320312 35.027344 24.320312 C 34.703125 24.320312 34.535156 24.574219 34.46875 24.835938 C 34.347656 25.339844 34.222656 25.855469 34.214844 26.367188 C 34.199219 27.136719 34.265625 27.910156 34.328125 28.679688 C 34.339844 28.863281 34.4375 29.050781 34.535156 29.210938 C 34.8125 29.648438 35.328125 29.644531 35.554688 29.1875 C 35.695312 28.910156 35.738281 28.582031 35.816406 28.277344 C 35.839844 28.183594 35.835938 28.085938 35.84375 27.976562 C 36.335938 27.976562 36.8125 27.976562 37.355469 27.976562 C 37.3125 28.414062 37.289062 28.855469 37.21875 29.285156 C 37.105469 30.003906 36.855469 30.667969 36.359375 31.21875 C 35.667969 31.988281 34.570312 32.023438 33.839844 31.289062 C 33.273438 30.71875 33.007812 29.992188 32.855469 29.222656 C 32.523438 27.511719 32.515625 25.800781 32.996094 24.113281 C 33.085938 23.789062 33.234375 23.480469 33.382812 23.179688 C 33.691406 22.566406 34.160156 22.144531 34.847656 21.992188 C 34.921875 21.992188 35 21.992188 35.078125 21.992188 "/>
<path style=" stroke:none;fill-rule:nonzero;fill:rgb(20.144653%,20.471191%,57.743835%);fill-opacity:1;" d="M 20.855469 28.09375 C 20.535156 28.09375 20.25 28.09375 19.945312 28.09375 C 19.945312 27.488281 19.945312 26.902344 19.945312 26.296875 C 20.753906 26.296875 21.558594 26.296875 22.410156 26.296875 C 22.410156 26.382812 22.410156 26.476562 22.410156 26.570312 C 22.410156 27.992188 22.402344 29.414062 22.414062 30.839844 C 22.417969 31.105469 22.328125 31.25 22.074219 31.328125 C 21.445312 31.527344 20.8125 31.660156 20.140625 31.640625 C 19.101562 31.605469 18.390625 31.113281 17.949219 30.195312 C 17.601562 29.46875 17.46875 28.6875 17.390625 27.894531 C 17.273438 26.644531 17.261719 25.40625 17.714844 24.203125 C 17.933594 23.617188 18.230469 23.085938 18.714844 22.667969 C 19.585938 21.921875 21.628906 22.109375 22.152344 23.582031 C 22.332031 24.085938 22.453125 24.859375 22.375 25.324219 C 21.878906 25.324219 21.382812 25.324219 20.878906 25.324219 C 20.847656 25.152344 20.828125 24.988281 20.792969 24.832031 C 20.710938 24.492188 20.511719 24.265625 20.15625 24.199219 C 19.808594 24.136719 19.585938 24.332031 19.414062 24.597656 C 19.132812 25.03125 19.015625 25.527344 19.027344 26.035156 C 19.046875 26.8125 19.082031 27.59375 19.175781 28.367188 C 19.210938 28.679688 19.40625 28.976562 19.5625 29.261719 C 19.785156 29.671875 20.167969 29.730469 20.589844 29.65625 C 20.757812 29.625 20.867188 29.554688 20.859375 29.347656 C 20.84375 28.945312 20.855469 28.539062 20.855469 28.09375 "/>
<path style=" stroke:none;fill-rule:nonzero;fill:rgb(20.144653%,20.471191%,57.743835%);fill-opacity:1;" d="M 11.964844 24.46875 C 11.964844 25.089844 11.964844 25.679688 11.964844 26.292969 C 12.382812 26.253906 12.859375 26.429688 13.109375 25.980469 C 13.339844 25.574219 13.3125 25.105469 13.058594 24.710938 C 12.792969 24.292969 12.347656 24.527344 11.964844 24.46875 Z M 11.957031 31.554688 C 11.414062 31.554688 10.921875 31.554688 10.417969 31.554688 C 10.417969 28.46875 10.417969 25.394531 10.417969 22.28125 C 10.574219 22.28125 10.734375 22.277344 10.894531 22.28125 C 11.648438 22.292969 12.402344 22.273438 13.152344 22.335938 C 13.882812 22.390625 14.324219 22.855469 14.5 23.546875 C 14.738281 24.460938 14.746094 25.390625 14.488281 26.296875 C 14.394531 26.625 14.171875 26.917969 13.988281 27.253906 C 14.523438 27.605469 14.613281 28.234375 14.632812 28.886719 C 14.652344 29.4375 14.644531 29.988281 14.679688 30.539062 C 14.695312 30.796875 14.78125 31.050781 14.832031 31.308594 C 14.84375 31.382812 14.832031 31.460938 14.832031 31.550781 C 14.3125 31.550781 13.804688 31.550781 13.257812 31.550781 C 13.234375 31.109375 13.210938 30.667969 13.1875 30.226562 C 13.167969 29.84375 13.179688 29.453125 13.136719 29.070312 C 13.066406 28.476562 12.882812 28.335938 12.277344 28.335938 C 12.183594 28.335938 12.085938 28.335938 11.957031 28.335938 C 11.957031 29.410156 11.957031 30.46875 11.957031 31.554688 "/>
<path style=" stroke:none;fill-rule:nonzero;fill:rgb(20.144653%,20.471191%,57.743835%);fill-opacity:1;" d="M 46.394531 26.296875 C 46.796875 26.25 47.238281 26.414062 47.542969 26.019531 C 47.765625 25.734375 47.730469 24.980469 47.5 24.691406 C 47.191406 24.304688 46.777344 24.53125 46.394531 24.464844 C 46.394531 25.09375 46.394531 25.671875 46.394531 26.296875 Z M 48.417969 27.242188 C 48.96875 27.609375 49.058594 28.234375 49.078125 28.886719 C 49.097656 29.476562 49.09375 30.066406 49.121094 30.65625 C 49.132812 30.867188 49.21875 31.074219 49.261719 31.285156 C 49.28125 31.363281 49.28125 31.449219 49.296875 31.550781 C 48.757812 31.550781 48.25 31.550781 47.703125 31.550781 C 47.679688 31.089844 47.65625 30.628906 47.632812 30.167969 C 47.613281 29.804688 47.625 29.433594 47.578125 29.070312 C 47.503906 28.472656 47.328125 28.335938 46.722656 28.335938 C 46.628906 28.335938 46.53125 28.335938 46.402344 28.335938 C 46.402344 29.410156 46.402344 30.46875 46.402344 31.546875 C 45.871094 31.546875 45.375 31.546875 44.859375 31.546875 C 44.859375 28.46875 44.859375 25.398438 44.859375 22.304688 C 44.917969 22.296875 44.980469 22.28125 45.046875 22.28125 C 45.914062 22.296875 46.785156 22.28125 47.652344 22.347656 C 48.300781 22.394531 48.722656 22.8125 48.90625 23.433594 C 49.199219 24.433594 49.203125 25.441406 48.890625 26.433594 C 48.800781 26.714844 48.589844 26.957031 48.417969 27.242188 "/>
<path style=" stroke:none;fill-rule:nonzero;fill:rgb(92.948914%,15.188599%,14.428711%);fill-opacity:1;" d="M 25.511719 34.503906 C 25.648438 34.773438 25.777344 35.027344 25.910156 35.289062 C 25.632812 35.425781 25.386719 35.546875 25.117188 35.679688 C 25.253906 35.949219 25.378906 36.199219 25.503906 36.449219 C 25.773438 36.316406 26.023438 36.191406 26.28125 36.058594 C 26.433594 36.328125 26.574219 36.585938 26.722656 36.847656 C 26.976562 36.714844 27.203125 36.59375 27.441406 36.464844 C 27.316406 36.195312 27.207031 35.957031 27.085938 35.699219 C 27.34375 35.554688 27.589844 35.421875 27.847656 35.28125 C 27.714844 35.015625 27.589844 34.773438 27.46875 34.53125 C 27.191406 34.664062 26.949219 34.777344 26.695312 34.898438 C 26.558594 34.632812 26.429688 34.386719 26.296875 34.128906 C 26.027344 34.257812 25.777344 34.375 25.511719 34.503906 Z M 32.113281 31.578125 C 32.558594 31.828125 33 32.082031 33.484375 32.355469 C 31.589844 35.265625 28.71875 36.78125 25.597656 38.011719 C 25.015625 36.785156 24.445312 35.589844 23.859375 34.363281 C 26.351562 33.710938 28.515625 32.515625 30.25 30.605469 C 30.351562 30.644531 30.441406 30.679688 30.527344 30.714844 C 31.054688 31.003906 31.585938 31.289062 32.113281 31.578125 "/>
<path style=" stroke:none;fill-rule:nonzero;fill:rgb(20.144653%,20.471191%,57.743835%);fill-opacity:1;" d="M 43.886719 25.757812 C 43.886719 26.515625 43.886719 27.21875 43.886719 27.945312 C 43.257812 27.945312 42.644531 27.945312 42.007812 27.945312 C 42.007812 28.429688 42.007812 28.886719 42.007812 29.371094 C 42.773438 29.371094 43.535156 29.371094 44.308594 29.371094 C 44.308594 30.109375 44.308594 30.820312 44.308594 31.550781 C 43.03125 31.550781 41.761719 31.550781 40.464844 31.550781 C 40.464844 28.472656 40.464844 25.394531 40.464844 22.296875 C 41.71875 22.296875 42.96875 22.296875 44.234375 22.296875 C 44.234375 23.011719 44.234375 23.714844 44.234375 24.453125 C 43.5 24.453125 42.761719 24.453125 42.007812 24.453125 C 42.007812 24.902344 42.007812 25.3125 42.007812 25.757812 C 42.625 25.757812 43.246094 25.757812 43.886719 25.757812 "/>
<path style=" stroke:none;fill-rule:nonzero;fill:rgb(20.144653%,20.471191%,57.743835%);fill-opacity:1;" d="M 4.675781 25.398438 C 4.652344 25.398438 4.628906 25.398438 4.605469 25.394531 C 4.46875 26.382812 4.328125 27.371094 4.183594 28.371094 C 4.5 28.371094 4.792969 28.371094 5.113281 28.371094 C 4.964844 27.371094 4.820312 26.382812 4.675781 25.398438 Z M 7.097656 31.554688 C 6.570312 31.554688 6.078125 31.554688 5.5625 31.554688 C 5.503906 31.164062 5.441406 30.773438 5.378906 30.367188 C 4.886719 30.367188 4.398438 30.367188 3.890625 30.367188 C 3.832031 30.753906 3.773438 31.144531 3.714844 31.550781 C 3.214844 31.550781 2.730469 31.550781 2.214844 31.550781 C 2.765625 28.464844 3.3125 25.386719 3.863281 22.296875 C 4.386719 22.296875 4.894531 22.296875 5.4375 22.296875 C 5.988281 25.375 6.542969 28.457031 7.097656 31.554688 "/>
<path style=" stroke:none;fill-rule:nonzero;fill:rgb(20.144653%,20.471191%,57.743835%);fill-opacity:1;" d="M 30.210938 28.375 C 30.054688 27.347656 29.90625 26.355469 29.761719 25.363281 C 29.742188 25.363281 29.722656 25.363281 29.703125 25.367188 C 29.5625 26.363281 29.421875 27.359375 29.277344 28.375 C 29.589844 28.375 29.886719 28.375 30.210938 28.375 Z M 32.113281 31.578125 C 31.585938 31.289062 31.054688 31.003906 30.527344 30.714844 C 30.507812 30.601562 30.488281 30.488281 30.46875 30.363281 C 29.980469 30.363281 29.5 30.363281 28.988281 30.363281 C 28.925781 30.75 28.867188 31.148438 28.804688 31.554688 C 28.300781 31.554688 27.8125 31.554688 27.304688 31.554688 C 27.859375 28.460938 28.40625 25.382812 28.957031 22.296875 C 29.480469 22.296875 29.992188 22.296875 30.527344 22.296875 C 30.6875 23.183594 30.847656 24.070312 31.011719 24.960938 C 31.386719 27.070312 31.765625 29.179688 32.140625 31.289062 C 32.15625 31.382812 32.125 31.480469 32.113281 31.578125 "/>
<path style=" stroke:none;fill-rule:nonzero;fill:rgb(20.144653%,20.471191%,57.743835%);fill-opacity:1;" d="M 23.203125 31.542969 C 23.203125 28.457031 23.203125 25.382812 23.203125 22.296875 C 23.714844 22.296875 24.210938 22.296875 24.734375 22.296875 C 24.734375 24.65625 24.734375 27 24.734375 29.367188 C 25.433594 29.367188 26.105469 29.367188 26.800781 29.367188 C 26.800781 30.097656 26.800781 30.808594 26.800781 31.542969 C 25.617188 31.542969 24.425781 31.542969 23.203125 31.542969 "/>
<path style=" stroke:none;fill-rule:nonzero;fill:rgb(20.144653%,20.471191%,57.743835%);fill-opacity:1;" d="M 9.578125 31.550781 C 9.078125 31.550781 8.589844 31.550781 8.085938 31.550781 C 8.085938 28.464844 8.085938 25.386719 8.085938 22.292969 C 8.582031 22.292969 9.070312 22.292969 9.578125 22.292969 C 9.578125 25.378906 9.578125 28.457031 9.578125 31.550781 "/>
<path style=" stroke:none;fill-rule:nonzero;fill:rgb(20.144653%,20.471191%,57.743835%);fill-opacity:1;" d="M 39.765625 31.554688 C 39.261719 31.554688 38.78125 31.554688 38.28125 31.554688 C 38.28125 28.46875 38.28125 25.390625 38.28125 22.296875 C 38.773438 22.296875 39.261719 22.296875 39.765625 22.296875 C 39.765625 25.375 39.765625 28.457031 39.765625 31.554688 "/>
<path style=" stroke:none;fill-rule:nonzero;fill:rgb(20.144653%,20.471191%,57.743835%);fill-opacity:1;" d="M 14.945312 28.167969 C 14.945312 27.558594 14.945312 26.964844 14.945312 26.351562 C 15.671875 26.351562 16.390625 26.351562 17.125 26.351562 C 17.125 26.957031 17.125 27.554688 17.125 28.167969 C 16.394531 28.167969 15.675781 28.167969 14.945312 28.167969 "/>
</g>
</svg>
