<?xml version="1.0" encoding="UTF-8"?>
<svg xmlns="http://www.w3.org/2000/svg" xmlns:xlink="http://www.w3.org/1999/xlink" width="56pt" height="56pt" viewBox="0 0 56 56" version="1.1">
<g id="surface1">
<rect x="0" y="0" width="56" height="56" style="fill:rgb(95.666504%,95.776367%,96.775818%);fill-opacity:1;stroke:none;"/>
<path style=" stroke:none;fill-rule:nonzero;fill:rgb(93.495178%,16.841125%,19.355774%);fill-opacity:1;" d="M 22.84375 26.128906 L 22.433594 27.398438 L 33.082031 27.398438 L 32.152344 26.089844 L 22.84375 26.128906 "/>
<path style=" stroke:none;fill-rule:nonzero;fill:rgb(93.495178%,16.841125%,19.355774%);fill-opacity:1;" d="M 31.847656 7.273438 L 33.746094 7.273438 L 45.238281 34.4375 L 43.433594 34.4375 L 31.46875 7.273438 L 31.847656 7.273438 "/>
<path style=" stroke:none;fill-rule:nonzero;fill:rgb(28.898621%,52.565002%,79.527283%);fill-opacity:1;" d="M 30.480469 20.929688 L 27.601562 12.355469 L 24.753906 20.929688 Z M 32.152344 26.089844 L 23.003906 26.089844 L 21.734375 30.03125 L 13.503906 30.03125 L 23.304688 6.171875 L 32.097656 6.171875 L 41.898438 30.03125 L 33.460938 30.03125 L 32.152344 26.089844 "/>
<path style=" stroke:none;fill-rule:nonzero;fill:rgb(93.495178%,16.841125%,19.355774%);fill-opacity:1;" d="M 45.238281 39.851562 L 10.761719 39.851562 L 10.761719 34.4375 L 45.238281 34.4375 L 45.238281 39.851562 "/>
<path style=" stroke:none;fill-rule:nonzero;fill:rgb(26.679993%,52.749634%,79.789734%);fill-opacity:1;" d="M 45.238281 47.832031 L 10.761719 47.832031 L 10.761719 42.414062 L 45.238281 42.414062 L 45.238281 47.832031 "/>
</g>
</svg>
