<?xml version="1.0" encoding="UTF-8"?>
<svg xmlns="http://www.w3.org/2000/svg" xmlns:xlink="http://www.w3.org/1999/xlink" width="56pt" height="56pt" viewBox="0 0 56 56" version="1.1">
<g id="surface1">
<rect x="0" y="0" width="56" height="56" style="fill:rgb(95.666504%,95.776367%,96.775818%);fill-opacity:1;stroke:none;"/>
<path style=" stroke:none;fill-rule:nonzero;fill:rgb(15.390015%,30.206299%,64.230347%);fill-opacity:1;" d="M 14.847656 27.273438 C 30.359375 26.820312 40.335938 20.652344 45.691406 15.394531 C 43.78125 12.761719 41.242188 10.3125 38.070312 8.5 C 32.71875 19.472656 23.011719 25.460938 14.847656 27.09375 L 14.847656 27.273438 "/>
<path style=" stroke:none;fill-rule:nonzero;fill:rgb(25.401306%,63.61084%,79.086304%);fill-opacity:1;" d="M 46.507812 16.660156 C 41.96875 21.105469 34.714844 25.371094 26.546875 27.09375 L 26.546875 27.273438 L 50.042969 27.273438 C 50.042969 24.28125 48.863281 20.382812 46.507812 16.660156 "/>
<path style=" stroke:none;fill-rule:nonzero;fill:rgb(15.272522%,16.108704%,43.247986%);fill-opacity:1;" d="M 5.957031 27.726562 C 17.75 27.726562 29.816406 21.199219 36.800781 7.863281 C 33.804688 6.410156 30.359375 5.503906 26.457031 5.503906 C 26.457031 11.671875 23.828125 25.914062 5.957031 27.546875 L 5.957031 27.726562 "/>
<path style=" stroke:none;fill-rule:nonzero;fill:rgb(95.628357%,42.941284%,8.74176%);fill-opacity:1;" d="M 40.246094 28.726562 C 24.734375 29.179688 15.664062 35.800781 10.3125 41.0625 C 12.214844 43.695312 13.847656 45.6875 17.023438 47.503906 C 22.375 36.527344 32.082031 30.539062 40.246094 28.90625 L 40.246094 28.726562 "/>
<path style=" stroke:none;fill-rule:nonzero;fill:rgb(93.818665%,93.231201%,5.37262%);fill-opacity:1;" d="M 9.496094 39.792969 C 14.03125 35.347656 20.382812 30.628906 28.542969 28.90625 L 28.542969 28.726562 L 5.957031 29.179688 C 5.957031 32.171875 7.136719 36.074219 9.496094 39.792969 "/>
<path style=" stroke:none;fill-rule:nonzero;fill:rgb(92.980957%,11.471558%,14.03656%);fill-opacity:1;" d="M 50.042969 28.726562 C 38.25 28.726562 25.28125 34.800781 18.292969 48.136719 C 21.285156 49.589844 24.734375 50.496094 28.636719 50.496094 C 28.636719 44.328125 32.171875 30.539062 50.042969 28.90625 L 50.042969 28.726562 "/>
</g>
</svg>
