<?xml version="1.0" encoding="UTF-8"?>
<svg xmlns="http://www.w3.org/2000/svg" xmlns:xlink="http://www.w3.org/1999/xlink" width="56pt" height="56pt" viewBox="0 0 56 56" version="1.1">
<g id="surface1">
<rect x="0" y="0" width="56" height="56" style="fill:rgb(95.666504%,95.776367%,96.775818%);fill-opacity:1;stroke:none;"/>
<path style=" stroke:none;fill-rule:nonzero;fill:rgb(38.667297%,37.550354%,37.828064%);fill-opacity:1;" d="M 38.640625 23.980469 C 41.507812 30.390625 44.335938 36.703125 47.179688 43.058594 C 47.003906 43.136719 46.875 43.230469 46.734375 43.246094 C 45.140625 43.410156 37.835938 43.234375 36.613281 42.996094 C 35.609375 40.519531 34.585938 37.996094 33.515625 35.363281 C 30.722656 40.769531 26.535156 43.566406 20.476562 43.203125 C 21.21875 43.035156 21.976562 42.917969 22.703125 42.695312 C 24.613281 42.109375 26.074219 40.886719 27.316406 39.359375 C 28.65625 37.714844 29.363281 35.761719 30.105469 33.820312 C 31.082031 31.269531 32.085938 28.726562 33.082031 26.1875 C 34.230469 23.261719 36.472656 21.601562 39.425781 20.804688 C 39.9375 20.664062 40.484375 20.601562 41.015625 20.597656 C 43.253906 20.578125 45.492188 20.597656 47.734375 20.605469 C 48.074219 20.605469 48.417969 20.605469 48.765625 20.761719 C 47.59375 20.929688 46.421875 21.074219 45.257812 21.269531 C 43.199219 21.617188 41.21875 22.214844 39.4375 23.335938 C 39.179688 23.496094 38.960938 23.71875 38.640625 23.980469 "/>
<path style=" stroke:none;fill-rule:nonzero;fill:rgb(25.192261%,72.602844%,23.46344%);fill-opacity:1;" d="M 36.359375 18.945312 C 36.664062 19.285156 36.996094 19.558594 37.480469 19.660156 C 37.996094 19.773438 38.488281 20 39.144531 20.226562 C 38.316406 20.355469 37.628906 20.441406 36.953125 20.570312 C 34.554688 21.027344 32.800781 22.363281 31.824219 24.59375 C 31.023438 26.417969 30.363281 28.300781 29.628906 30.15625 C 29.066406 31.578125 28.484375 32.992188 27.84375 34.582031 C 27.414062 33.566406 27.039062 32.699219 26.679688 31.824219 C 26.203125 30.652344 25.671875 29.496094 25.289062 28.292969 C 25.085938 27.648438 24.699219 27.328125 24.140625 27.121094 C 22.523438 26.53125 20.894531 25.964844 19.277344 25.367188 C 17.515625 24.714844 15.773438 24.027344 14.011719 23.378906 C 11.757812 22.546875 9.492188 21.738281 7.234375 20.78125 C 7.648438 20.78125 8.0625 20.78125 8.476562 20.78125 C 11.367188 20.78125 14.265625 20.789062 17.160156 20.773438 C 17.609375 20.773438 18.0625 20.660156 18.515625 20.597656 C 18.769531 20.972656 19.152344 20.789062 19.46875 20.792969 C 21.894531 20.808594 24.324219 20.800781 26.75 20.804688 C 27.089844 20.804688 27.425781 20.832031 27.804688 20.851562 C 28.269531 21.855469 28.710938 22.816406 29.214844 23.910156 C 29.964844 22.433594 30.890625 21.363281 32.085938 20.480469 C 33.359375 19.542969 34.792969 19.351562 36.277344 19.402344 C 36.316406 19.167969 36.339844 19.054688 36.359375 18.945312 "/>
<path style=" stroke:none;fill-rule:nonzero;fill:rgb(38.667297%,37.550354%,37.828064%);fill-opacity:1;" d="M 22.875 32.644531 C 22.792969 33.046875 22.769531 33.476562 22.617188 33.855469 C 21.515625 36.5625 20.386719 39.261719 19.261719 41.964844 C 19.191406 42.140625 19.082031 42.304688 19.023438 42.488281 C 18.816406 43.101562 18.382812 43.277344 17.765625 43.269531 C 16.105469 43.242188 14.445312 43.257812 12.785156 43.257812 C 11.816406 43.257812 10.851562 43.28125 9.886719 43.25 C 9.363281 43.234375 8.839844 43.132812 8.238281 43.058594 C 8.675781 42.070312 9.046875 41.191406 9.449219 40.328125 C 10.800781 37.429688 12.164062 34.539062 13.523438 31.644531 C 13.945312 30.738281 14.359375 29.828125 14.777344 28.917969 C 15.140625 29.019531 15.53125 29.066406 15.863281 29.234375 C 18.019531 30.328125 20.160156 31.453125 22.3125 32.554688 C 22.472656 32.636719 22.6875 32.617188 22.875 32.644531 "/>
<path style=" stroke:none;fill-rule:nonzero;fill:rgb(38.667297%,37.550354%,37.828064%);fill-opacity:1;" d="M 36.359375 18.945312 C 36.339844 19.054688 36.316406 19.167969 36.277344 19.402344 C 34.792969 19.351562 33.359375 19.542969 32.085938 20.480469 C 30.890625 21.363281 29.964844 22.433594 29.214844 23.910156 C 28.710938 22.816406 28.269531 21.855469 27.804688 20.851562 C 27.425781 20.832031 27.089844 20.804688 26.75 20.804688 C 24.324219 20.800781 21.894531 20.808594 19.46875 20.792969 C 19.152344 20.789062 18.769531 20.972656 18.515625 20.597656 C 19.589844 18.21875 20.664062 15.835938 21.75 13.460938 C 21.871094 13.1875 22.058594 12.945312 22.214844 12.6875 C 26.015625 12.6875 29.75 12.6875 33.585938 12.6875 C 34.539062 14.558594 35.332031 16.511719 36.144531 18.457031 C 36.214844 18.621094 36.285156 18.785156 36.359375 18.945312 "/>
<path style=" stroke:none;fill-rule:nonzero;fill:rgb(25.192261%,72.602844%,23.46344%);fill-opacity:1;" d="M 22.875 32.644531 C 22.6875 32.617188 22.472656 32.636719 22.3125 32.554688 C 20.160156 31.453125 18.019531 30.328125 15.863281 29.234375 C 15.53125 29.066406 15.140625 29.019531 14.777344 28.917969 C 14.261719 28.1875 13.394531 27.972656 12.667969 27.59375 C 10.882812 26.648438 9.03125 25.832031 7.257812 24.792969 C 10.40625 24.792969 13.550781 24.792969 16.871094 24.792969 C 18.824219 27.347656 20.847656 29.996094 22.875 32.644531 "/>
<path style=" stroke:none;fill-rule:nonzero;fill:rgb(55.349731%,54.536438%,54.737854%);fill-opacity:1;" d="M 36.359375 18.945312 C 36.285156 18.785156 36.214844 18.621094 36.144531 18.457031 C 36.214844 18.621094 36.285156 18.785156 36.359375 18.945312 "/>
</g>
</svg>
