<?xml version="1.0" encoding="UTF-8"?>
<svg xmlns="http://www.w3.org/2000/svg" xmlns:xlink="http://www.w3.org/1999/xlink" width="56pt" height="56pt" viewBox="0 0 56 56" version="1.1">
<g id="surface1">
<rect x="0" y="0" width="56" height="56" style="fill:rgb(23.919678%,48.808289%,78.540039%);fill-opacity:1;stroke:none;"/>
<path style=" stroke:none;fill-rule:nonzero;fill:rgb(100%,100%,100%);fill-opacity:1;" d="M 14.589844 17.429688 C 14.589844 17.433594 14.589844 17.441406 14.59375 17.445312 C 14.597656 17.449219 14.605469 17.449219 14.609375 17.449219 C 14.609375 17.441406 14.605469 17.433594 14.605469 17.425781 C 14.601562 17.425781 14.59375 17.429688 14.589844 17.429688 Z M 16.207031 25.945312 C 16.203125 25.941406 16.203125 25.933594 16.199219 25.933594 C 16.191406 25.929688 16.1875 25.933594 16.179688 25.933594 C 16.183594 25.941406 16.1875 25.949219 16.191406 25.957031 C 16.195312 25.953125 16.203125 25.949219 16.207031 25.945312 Z M 19.203125 24.980469 C 19.203125 24.976562 19.203125 24.96875 19.203125 24.964844 C 19.175781 24.964844 19.15625 24.964844 19.132812 24.964844 C 19.132812 24.96875 19.132812 24.976562 19.132812 24.980469 C 19.15625 24.980469 19.175781 24.980469 19.203125 24.980469 Z M 38.484375 33.871094 C 38.484375 33.878906 38.484375 33.882812 38.484375 33.890625 C 38.507812 33.890625 38.53125 33.890625 38.554688 33.890625 C 38.554688 33.882812 38.554688 33.878906 38.554688 33.871094 C 38.53125 33.871094 38.507812 33.871094 38.484375 33.871094 Z M 49.113281 18.746094 C 49.171875 18.765625 49.191406 18.777344 49.207031 18.777344 C 49.222656 18.777344 49.242188 18.769531 49.261719 18.761719 C 49.261719 18.757812 49.257812 18.75 49.253906 18.746094 C 49.222656 18.746094 49.191406 18.746094 49.113281 18.746094 Z M 18.648438 24.964844 C 18.648438 24.96875 18.648438 24.976562 18.648438 24.980469 C 18.683594 24.980469 18.722656 24.980469 18.757812 24.980469 C 18.757812 24.976562 18.757812 24.96875 18.757812 24.964844 C 18.722656 24.964844 18.683594 24.964844 18.648438 24.964844 Z M 34.167969 32.675781 C 34.167969 32.683594 34.167969 32.691406 34.167969 32.699219 C 34.21875 32.699219 34.269531 32.699219 34.320312 32.699219 C 34.320312 32.691406 34.320312 32.683594 34.320312 32.675781 C 34.269531 32.675781 34.21875 32.675781 34.167969 32.675781 Z M 12.277344 14.171875 C 12.328125 14.082031 12.328125 14.082031 12.277344 14.011719 C 12.277344 14.066406 12.277344 14.113281 12.277344 14.171875 Z M 35.234375 32.703125 C 35.160156 32.664062 35.082031 32.582031 35 32.703125 C 35.085938 32.703125 35.160156 32.703125 35.234375 32.703125 Z M 17.261719 19.734375 C 17.363281 19.542969 17.363281 19.527344 17.261719 19.402344 C 17.261719 19.507812 17.261719 19.609375 17.261719 19.734375 Z M 7.507812 15.375 C 7.507812 15.367188 7.507812 15.359375 7.503906 15.355469 C 7.328125 15.355469 7.148438 15.355469 6.96875 15.355469 C 6.96875 15.359375 6.96875 15.367188 6.96875 15.375 C 7.148438 15.375 7.328125 15.375 7.507812 15.375 Z M 32.980469 29.679688 C 32.984375 29.683594 32.988281 29.695312 32.992188 29.699219 C 33.785156 29.699219 34.578125 29.699219 35.371094 29.699219 C 35.371094 29.695312 35.371094 29.683594 35.371094 29.679688 C 34.578125 29.679688 33.78125 29.679688 32.980469 29.679688 Z M 42.980469 42.015625 C 42.984375 42.027344 42.984375 42.035156 42.984375 42.046875 C 44.152344 42.046875 45.320312 42.046875 46.5 42.046875 C 46.414062 41.949219 46.316406 41.96875 46.222656 41.96875 C 45.261719 41.96875 44.300781 41.96875 43.34375 41.972656 C 43.222656 41.972656 43.101562 42 42.980469 42.015625 Z M 43.210938 35.804688 C 43.210938 35.8125 43.210938 35.820312 43.210938 35.828125 C 45.535156 35.828125 47.859375 35.828125 50.183594 35.828125 C 50.183594 35.820312 50.183594 35.8125 50.183594 35.804688 C 47.859375 35.804688 45.535156 35.804688 43.210938 35.804688 Z M 44.023438 23.148438 C 44.023438 23.136719 44.023438 23.125 44.019531 23.113281 C 41.707031 23.113281 39.394531 23.113281 37.082031 23.113281 C 37.113281 23.152344 37.152344 23.183594 37.191406 23.183594 C 39.445312 23.1875 41.699219 23.183594 43.953125 23.183594 C 43.976562 23.183594 44 23.160156 44.023438 23.148438 Z M 23.167969 21.65625 C 23.28125 21.757812 23.390625 21.734375 23.488281 21.734375 C 25.46875 21.734375 27.453125 21.734375 29.433594 21.734375 C 31.035156 21.734375 32.636719 21.734375 34.234375 21.734375 C 34.355469 21.734375 34.476562 21.746094 34.59375 21.65625 C 30.785156 21.65625 26.988281 21.65625 23.167969 21.65625 Z M 22.886719 20.773438 C 22.886719 20.78125 22.886719 20.789062 22.886719 20.792969 C 30.457031 20.792969 38.03125 20.792969 45.601562 20.792969 C 45.601562 20.789062 45.601562 20.78125 45.601562 20.773438 C 38.03125 20.773438 30.457031 20.773438 22.886719 20.773438 Z M 43.777344 28.339844 C 43.65625 28.230469 43.542969 28.261719 43.433594 28.257812 C 39.382812 28.257812 35.328125 28.257812 31.273438 28.257812 C 31.214844 28.257812 31.15625 28.253906 31.097656 28.261719 C 31.042969 28.269531 30.996094 28.292969 30.945312 28.3125 C 30.949219 28.320312 30.949219 28.328125 30.953125 28.339844 C 35.21875 28.339844 39.480469 28.339844 43.777344 28.339844 Z M 43.78125 23.664062 C 43.65625 23.558594 43.539062 23.585938 43.433594 23.585938 C 37.074219 23.585938 30.710938 23.585938 24.347656 23.585938 C 24.296875 23.585938 24.246094 23.578125 24.195312 23.585938 C 24.136719 23.597656 24.082031 23.617188 24.023438 23.632812 C 24.027344 23.644531 24.03125 23.65625 24.03125 23.664062 C 30.605469 23.664062 37.175781 23.664062 43.78125 23.664062 Z M 33.261719 33.332031 C 33.269531 33.359375 33.277344 33.378906 33.28125 33.402344 C 33.390625 33.699219 33.574219 33.832031 33.914062 33.824219 C 34.964844 33.800781 36.015625 33.816406 37.066406 33.816406 C 37.183594 33.816406 37.300781 33.828125 37.457031 33.832031 C 37.394531 33.769531 37.359375 33.714844 37.3125 33.691406 C 37.117188 33.578125 36.914062 33.476562 36.714844 33.371094 C 36.476562 33.242188 36.222656 33.140625 36 32.988281 C 35.742188 32.816406 35.449219 32.808594 35.164062 32.761719 C 34.992188 32.730469 34.816406 32.75 34.640625 32.746094 C 34.351562 32.742188 34.070312 32.75 33.792969 32.839844 C 33.542969 32.921875 33.335938 33.042969 33.261719 33.332031 Z M 36.5625 36.59375 C 36.648438 36.59375 36.714844 36.59375 36.78125 36.59375 C 38.660156 36.59375 40.539062 36.59375 42.421875 36.59375 C 42.472656 36.59375 42.527344 36.597656 42.574219 36.589844 C 42.609375 36.582031 42.644531 36.550781 42.699219 36.519531 C 42.621094 36.472656 42.566406 36.4375 42.507812 36.410156 C 42.273438 36.289062 42.03125 36.179688 41.804688 36.046875 C 41.648438 35.957031 41.484375 35.917969 41.304688 35.921875 C 40.410156 35.925781 39.511719 35.921875 38.617188 35.921875 C 37.859375 35.921875 37.105469 35.921875 36.347656 35.925781 C 36.273438 35.925781 36.191406 35.898438 36.117188 35.972656 C 36.269531 36.1875 36.414062 36.390625 36.5625 36.59375 Z M 40.105469 35.230469 C 40.109375 35.210938 40.109375 35.195312 40.113281 35.171875 C 39.992188 35.109375 39.871094 35.046875 39.753906 34.984375 C 39.382812 34.792969 39.011719 34.605469 38.648438 34.40625 C 38.519531 34.335938 38.390625 34.296875 38.253906 34.296875 C 36.980469 34.292969 35.714844 34.296875 34.441406 34.296875 C 34.402344 34.296875 34.363281 34.308594 34.300781 34.324219 C 34.332031 34.371094 34.34375 34.40625 34.371094 34.425781 C 34.675781 34.671875 34.984375 34.921875 35.292969 35.164062 C 35.390625 35.238281 35.5 35.269531 35.625 35.269531 C 37.039062 35.269531 38.457031 35.269531 39.875 35.265625 C 39.953125 35.265625 40.03125 35.242188 40.105469 35.230469 Z M 27.078125 28.125 C 27.097656 27.882812 27.085938 27.671875 27.035156 27.464844 C 26.984375 27.242188 26.957031 27.015625 26.878906 26.804688 C 26.753906 26.460938 26.546875 26.15625 26.289062 25.890625 C 26.222656 25.824219 26.167969 25.746094 26.125 25.6875 C 26.136719 25.597656 26.144531 25.535156 26.15625 25.449219 C 26.121094 25.492188 26.101562 25.511719 26.078125 25.539062 C 26.066406 25.441406 26.050781 25.355469 26.039062 25.28125 C 25.78125 25.230469 24.464844 25.242188 24.3125 25.289062 C 24.308594 25.308594 24.296875 25.335938 24.300781 25.351562 C 24.363281 25.609375 24.421875 25.863281 24.488281 26.117188 C 24.5 26.160156 24.523438 26.203125 24.550781 26.234375 C 24.753906 26.472656 24.953125 26.722656 25.171875 26.945312 C 25.453125 27.234375 25.746094 27.515625 26.046875 27.78125 C 26.289062 27.992188 26.539062 28.195312 26.886719 28.257812 C 26.945312 28.214844 27.011719 28.171875 27.078125 28.125 Z M 36.851562 38.226562 C 36.921875 38.226562 36.996094 38.226562 37.070312 38.226562 C 39.890625 38.226562 42.710938 38.226562 45.53125 38.226562 C 45.601562 38.226562 45.675781 38.230469 45.75 38.222656 C 45.78125 38.21875 45.8125 38.195312 45.882812 38.164062 C 45.742188 38.089844 45.636719 38.035156 45.527344 37.980469 C 45.171875 37.792969 44.820312 37.597656 44.464844 37.414062 C 44.308594 37.332031 44.140625 37.292969 43.960938 37.292969 C 41.679688 37.296875 39.40625 37.296875 37.128906 37.296875 C 37.078125 37.296875 37.023438 37.289062 36.972656 37.296875 C 36.898438 37.316406 36.824219 37.34375 36.746094 37.367188 C 36.734375 37.523438 36.75 37.667969 36.710938 37.796875 C 36.65625 37.972656 36.699219 38.097656 36.851562 38.226562 Z M 37.902344 39.683594 C 37.988281 39.683594 38.066406 39.683594 38.148438 39.683594 C 41.53125 39.683594 44.917969 39.683594 48.304688 39.683594 C 48.363281 39.683594 48.421875 39.6875 48.480469 39.675781 C 48.507812 39.671875 48.53125 39.640625 48.5625 39.617188 C 48.539062 39.589844 48.53125 39.566406 48.515625 39.558594 C 48.167969 39.371094 47.8125 39.195312 47.472656 39 C 47.269531 38.882812 47.058594 38.832031 46.828125 38.835938 C 45.726562 38.839844 44.625 38.835938 43.523438 38.835938 C 41.519531 38.835938 39.515625 38.835938 37.511719 38.835938 C 37.433594 38.835938 37.355469 38.84375 37.234375 38.84375 C 37.449219 39.167969 37.660156 39.433594 37.902344 39.683594 Z M 50.535156 41.308594 C 47.550781 41.308594 44.570312 41.308594 41.585938 41.308594 C 41.167969 41.308594 40.746094 41.308594 40.328125 41.308594 C 40.261719 41.308594 40.191406 41.308594 40.121094 41.308594 C 40.121094 41.324219 40.121094 41.339844 40.121094 41.351562 C 40.203125 41.351562 40.28125 41.351562 40.359375 41.351562 C 42.84375 41.351562 45.328125 41.339844 47.808594 41.359375 C 48.617188 41.367188 49.421875 41.394531 50.226562 41.398438 C 50.269531 41.398438 50.3125 41.410156 50.375 41.421875 C 50.398438 41.628906 50.417969 41.832031 50.441406 42.054688 C 49.632812 42.054688 48.8125 42.054688 47.949219 42.054688 C 47.742188 41.984375 47.492188 41.996094 47.238281 42.046875 C 47.125 42.070312 47.007812 42.09375 46.890625 42.09375 C 45.480469 42.097656 44.070312 42.097656 42.660156 42.097656 C 42.203125 42.101562 41.742188 42.097656 41.285156 42.101562 C 41.097656 42.105469 40.90625 42.132812 40.71875 42.136719 C 40.609375 42.140625 40.5 42.117188 40.390625 42.109375 C 40.339844 42.105469 40.289062 42.101562 40.238281 42.105469 C 39.96875 42.121094 39.699219 42.140625 39.4375 42.15625 C 39.085938 41.886719 38.746094 41.628906 38.414062 41.367188 C 38.171875 41.179688 37.929688 40.988281 37.695312 40.789062 C 37.347656 40.507812 37.003906 40.222656 36.667969 39.925781 C 36.136719 39.457031 35.605469 38.984375 35.089844 38.492188 C 34.617188 38.042969 34.164062 37.574219 33.710938 37.109375 C 33.484375 36.882812 33.265625 36.644531 33.046875 36.40625 C 32.734375 36.054688 32.421875 35.707031 32.121094 35.34375 C 31.714844 34.847656 31.316406 34.339844 30.917969 33.835938 C 30.472656 33.269531 30.074219 32.675781 29.671875 32.082031 C 29.226562 31.417969 28.824219 30.730469 28.417969 30.042969 C 28.386719 29.988281 28.339844 29.941406 28.308594 29.898438 C 28.085938 29.90625 27.882812 29.929688 27.679688 29.917969 C 27.359375 29.898438 27.042969 29.839844 26.738281 29.738281 C 26.460938 29.644531 26.183594 29.554688 25.917969 29.441406 C 25.386719 29.207031 24.878906 28.933594 24.402344 28.601562 C 24.035156 28.351562 23.65625 28.113281 23.292969 27.851562 C 22.984375 27.632812 22.6875 27.394531 22.390625 27.152344 C 21.785156 26.65625 21.191406 26.144531 20.578125 25.660156 C 20.25 25.402344 19.878906 25.21875 19.46875 25.105469 C 19.191406 25.03125 18.917969 25.019531 18.644531 25.050781 C 18.339844 25.082031 18.050781 25.1875 17.785156 25.351562 C 17.53125 25.511719 17.277344 25.671875 17.011719 25.8125 C 16.628906 26.007812 16.21875 26.0625 15.796875 25.953125 C 15.644531 25.914062 15.523438 25.824219 15.402344 25.722656 C 15.152344 25.515625 14.964844 25.253906 14.835938 24.953125 C 14.667969 24.5625 14.519531 24.164062 14.351562 23.777344 C 14.183594 23.390625 13.996094 23.011719 13.792969 22.636719 C 13.453125 22.011719 13.066406 21.417969 12.628906 20.859375 C 12.351562 20.507812 12.054688 20.175781 11.765625 19.835938 C 11.664062 19.71875 11.566406 19.601562 11.457031 19.492188 C 11.015625 19.050781 10.550781 18.636719 10.058594 18.257812 C 9.949219 18.171875 9.847656 18.074219 9.730469 17.996094 C 9.417969 17.777344 9.085938 17.792969 8.753906 17.957031 C 8.519531 18.078125 8.285156 18.195312 8.03125 18.273438 C 7.800781 18.34375 7.578125 18.34375 7.34375 18.277344 C 7.191406 18.234375 7.027344 18.222656 6.867188 18.203125 C 6.414062 18.148438 5.996094 18.007812 5.6875 17.652344 C 5.558594 17.507812 5.453125 17.335938 5.476562 17.113281 C 5.488281 17.023438 5.464844 16.925781 5.464844 16.832031 C 5.476562 16.441406 5.648438 16.113281 5.882812 15.820312 C 6.074219 15.578125 6.34375 15.425781 6.636719 15.355469 C 7.21875 15.226562 7.789062 15.273438 8.332031 15.53125 C 8.695312 15.703125 9.027344 15.929688 9.335938 16.191406 C 9.609375 16.421875 9.886719 16.652344 10.160156 16.878906 C 10.449219 17.117188 10.742188 17.347656 11.03125 17.582031 C 11.496094 17.964844 11.957031 18.351562 12.421875 18.730469 C 12.867188 19.097656 13.316406 19.464844 13.765625 19.828125 C 14.097656 20.101562 14.4375 20.371094 14.761719 20.652344 C 14.929688 20.796875 15.125 20.871094 15.324219 20.941406 C 15.542969 21.015625 15.773438 21.082031 16.003906 21.105469 C 16.269531 21.128906 16.523438 21.046875 16.734375 20.867188 C 16.914062 20.714844 17.019531 20.519531 17.082031 20.296875 C 17.171875 19.976562 17.242188 19.65625 17.195312 19.304688 C 17.09375 19.015625 16.875 18.863281 16.558594 18.792969 C 16.375 18.753906 16.210938 18.746094 16.023438 18.785156 C 15.640625 18.867188 15.273438 18.839844 14.929688 18.609375 C 14.691406 18.449219 14.445312 18.304688 14.253906 18.089844 C 14.140625 17.957031 14.011719 17.828125 14.042969 17.628906 C 14.164062 17.414062 14.378906 17.40625 14.578125 17.371094 C 14.675781 17.351562 14.78125 17.34375 14.878906 17.328125 C 15.234375 17.277344 15.371094 16.933594 15.300781 16.671875 C 15.148438 16.085938 14.835938 15.632812 14.199219 15.488281 C 14.179688 15.484375 14.15625 15.476562 14.140625 15.472656 C 13.792969 15.542969 13.792969 15.542969 13.296875 15.902344 C 13.253906 15.910156 13.195312 15.917969 13.140625 15.921875 C 13.128906 15.953125 13.117188 15.976562 13.105469 15.996094 C 12.992188 16.003906 12.796875 15.738281 12.785156 15.570312 C 12.480469 15.339844 12.148438 14.261719 12.269531 13.871094 C 12.308594 13.867188 12.359375 13.851562 12.40625 13.851562 C 13.722656 13.847656 15.039062 13.847656 16.351562 13.847656 C 16.542969 13.847656 16.734375 13.847656 16.921875 13.847656 C 28.03125 13.847656 39.140625 13.847656 50.246094 13.847656 C 50.34375 13.847656 50.4375 13.84375 50.535156 13.84375 C 50.535156 14.078125 50.535156 14.3125 50.535156 14.546875 C 40.054688 14.546875 29.578125 14.546875 19.101562 14.546875 C 19.074219 14.546875 19.042969 14.542969 19.015625 14.546875 C 18.9375 14.5625 18.863281 14.582031 18.785156 14.597656 C 18.789062 14.609375 18.792969 14.621094 18.792969 14.636719 C 18.882812 14.636719 18.96875 14.636719 19.058594 14.636719 C 29.445312 14.636719 39.835938 14.636719 50.226562 14.636719 C 50.328125 14.636719 50.429688 14.636719 50.535156 14.636719 C 50.535156 14.652344 50.535156 14.664062 50.535156 14.679688 C 50.453125 14.679688 50.371094 14.675781 50.289062 14.675781 C 39.84375 14.675781 29.398438 14.675781 18.949219 14.675781 C 18.875 14.675781 18.800781 14.671875 18.730469 14.679688 C 18.695312 14.683594 18.664062 14.707031 18.613281 14.730469 C 18.65625 14.765625 18.679688 14.789062 18.710938 14.804688 C 18.972656 14.964844 19.101562 15.214844 19.179688 15.496094 C 19.195312 15.542969 19.214844 15.589844 19.234375 15.65625 C 19.34375 15.65625 19.445312 15.65625 19.546875 15.65625 C 28.707031 15.65625 37.867188 15.65625 47.03125 15.65625 C 48.199219 15.65625 49.363281 15.652344 50.535156 15.652344 C 50.535156 15.886719 50.535156 16.121094 50.535156 16.355469 C 40.132812 16.355469 29.726562 16.355469 19.328125 16.355469 C 19.167969 16.355469 19.007812 16.378906 18.886719 16.386719 C 18.617188 16.585938 18.457031 16.800781 18.441406 17.109375 C 18.472656 17.203125 18.542969 17.242188 18.644531 17.238281 C 18.695312 17.238281 18.746094 17.238281 18.796875 17.238281 C 26.519531 17.238281 34.238281 17.238281 41.960938 17.238281 C 44.820312 17.238281 47.675781 17.238281 50.535156 17.238281 C 50.535156 17.253906 50.535156 17.265625 50.535156 17.28125 C 50.453125 17.28125 50.371094 17.28125 50.289062 17.28125 C 39.867188 17.28125 29.441406 17.28125 19.019531 17.28125 C 18.925781 17.28125 18.832031 17.28125 18.738281 17.28125 C 18.738281 17.296875 18.738281 17.3125 18.738281 17.328125 C 18.808594 17.328125 18.882812 17.328125 18.953125 17.328125 C 19.355469 17.328125 19.761719 17.328125 20.164062 17.328125 C 30.285156 17.328125 40.410156 17.324219 50.535156 17.324219 C 50.535156 17.472656 50.535156 17.621094 50.535156 17.765625 C 50.511719 17.785156 50.488281 17.804688 50.453125 17.835938 C 50.492188 17.84375 50.515625 17.847656 50.535156 17.855469 C 50.535156 17.867188 50.535156 17.882812 50.535156 17.898438 C 50.453125 17.898438 50.371094 17.894531 50.289062 17.894531 C 40.476562 17.894531 30.660156 17.894531 20.847656 17.894531 C 20.792969 17.894531 20.742188 17.886719 20.691406 17.898438 C 20.648438 17.90625 20.609375 17.929688 20.5625 17.949219 C 20.785156 18.179688 20.992188 18.394531 21.199219 18.609375 C 30.839844 18.609375 40.46875 18.609375 50.097656 18.609375 C 49.984375 18.664062 49.863281 18.699219 49.746094 18.738281 C 49.289062 18.886719 48.832031 19.027344 48.378906 19.195312 C 48.035156 19.320312 47.6875 19.355469 47.324219 19.355469 C 38.925781 19.351562 30.53125 19.351562 22.132812 19.351562 C 22.039062 19.351562 21.945312 19.351562 21.804688 19.351562 C 21.957031 19.648438 22.125 19.878906 22.28125 20.09375 C 22.320312 20.101562 22.328125 20.101562 22.335938 20.101562 C 22.339844 20.105469 22.347656 20.105469 22.355469 20.105469 C 30.378906 20.105469 38.402344 20.105469 46.421875 20.105469 C 46.46875 20.105469 46.511719 20.105469 46.554688 20.109375 C 46.5625 20.109375 46.574219 20.109375 46.574219 20.117188 C 46.578125 20.121094 46.574219 20.128906 46.570312 20.140625 C 46.539062 20.15625 46.507812 20.175781 46.476562 20.195312 C 46.414062 20.113281 46.328125 20.148438 46.253906 20.148438 C 43.445312 20.148438 40.640625 20.148438 37.835938 20.148438 C 37.777344 20.148438 37.714844 20.15625 37.65625 20.15625 C 37.65625 20.167969 37.65625 20.179688 37.65625 20.191406 C 37.714844 20.191406 37.769531 20.191406 37.828125 20.191406 C 38.128906 20.191406 38.429688 20.191406 38.730469 20.191406 C 40.015625 20.191406 41.300781 20.183594 42.585938 20.195312 C 43.871094 20.207031 45.15625 20.144531 46.4375 20.234375 C 46.230469 20.476562 45.972656 20.65625 45.730469 20.851562 C 45.648438 20.851562 45.574219 20.851562 45.503906 20.851562 C 38.03125 20.851562 30.558594 20.851562 23.085938 20.851562 C 23.011719 20.851562 22.9375 20.847656 22.867188 20.859375 C 22.816406 20.867188 22.765625 20.902344 22.714844 20.921875 C 22.835938 21.15625 22.945312 21.371094 23.0625 21.605469 C 26.722656 21.605469 30.382812 21.605469 34.039062 21.605469 C 37.703125 21.605469 41.367188 21.605469 45.03125 21.605469 C 45.03125 21.617188 45.03125 21.632812 45.03125 21.644531 C 44.644531 21.644531 44.257812 21.644531 43.871094 21.644531 C 43.953125 21.703125 44.039062 21.730469 44.128906 21.730469 C 44.3125 21.738281 44.496094 21.730469 44.679688 21.738281 C 44.757812 21.738281 44.832031 21.761719 44.929688 21.78125 C 44.8125 21.945312 44.710938 22.082031 44.625 22.199219 C 44.582031 22.210938 44.574219 22.210938 44.566406 22.210938 C 37.550781 22.214844 30.53125 22.214844 23.515625 22.214844 C 23.503906 22.214844 23.488281 22.214844 23.472656 22.214844 C 23.457031 22.21875 23.445312 22.21875 23.429688 22.21875 C 23.421875 22.21875 23.414062 22.21875 23.40625 22.21875 C 23.398438 22.21875 23.390625 22.222656 23.386719 22.222656 C 23.378906 22.226562 23.371094 22.230469 23.367188 22.234375 C 23.359375 22.238281 23.355469 22.242188 23.328125 22.265625 C 23.421875 22.519531 23.523438 22.78125 23.617188 23.03125 C 23.773438 23.097656 23.90625 23.148438 24.058594 23.148438 C 25.585938 23.144531 27.113281 23.144531 28.644531 23.144531 C 28.703125 23.144531 28.769531 23.15625 28.816406 23.128906 C 28.960938 23.050781 29.113281 23.066406 29.269531 23.066406 C 34.101562 23.066406 38.9375 23.0625 43.773438 23.0625 C 43.851562 23.0625 43.933594 23.0625 44.015625 23.066406 C 44.050781 23.066406 44.09375 23.082031 44.128906 23.089844 C 44.042969 23.304688 43.964844 23.507812 43.882812 23.714844 C 43.792969 23.714844 43.714844 23.714844 43.632812 23.714844 C 37.160156 23.714844 30.6875 23.714844 24.214844 23.714844 C 24.140625 23.714844 24.066406 23.710938 23.992188 23.71875 C 23.949219 23.722656 23.90625 23.753906 23.863281 23.769531 C 23.9375 24.027344 24.003906 24.261719 24.078125 24.519531 C 30.601562 24.519531 37.117188 24.519531 43.648438 24.519531 C 43.59375 24.777344 43.550781 25.007812 43.503906 25.25 C 43.402344 25.25 43.316406 25.25 43.226562 25.25 C 38.027344 25.25 32.824219 25.25 27.621094 25.25 C 27.554688 25.25 27.488281 25.246094 27.421875 25.253906 C 27.386719 25.253906 27.347656 25.273438 27.285156 25.292969 C 27.59375 25.59375 27.882812 25.871094 28.171875 26.152344 C 33.269531 26.152344 38.359375 26.152344 43.460938 26.152344 C 43.472656 26.398438 43.484375 26.628906 43.5 26.886719 C 43.414062 26.886719 43.332031 26.886719 43.242188 26.886719 C 38.652344 26.886719 34.058594 26.886719 29.46875 26.886719 C 29.371094 26.886719 29.277344 26.882812 29.179688 26.886719 C 29.136719 26.886719 29.089844 26.898438 28.996094 26.910156 C 29.273438 27.160156 29.515625 27.382812 29.765625 27.609375 C 30.34375 27.609375 30.921875 27.609375 31.503906 27.609375 C 32.078125 27.609375 32.652344 27.609375 33.222656 27.609375 C 33.804688 27.609375 34.382812 27.609375 34.964844 27.609375 C 35.535156 27.609375 36.109375 27.609375 36.683594 27.609375 C 37.265625 27.609375 37.84375 27.609375 38.425781 27.609375 C 39.007812 27.609375 39.585938 27.609375 40.164062 27.609375 C 40.738281 27.609375 41.3125 27.609375 41.886719 27.609375 C 42.464844 27.609375 43.042969 27.605469 43.617188 27.613281 C 43.691406 27.878906 43.761719 28.117188 43.835938 28.386719 C 43.71875 28.386719 43.632812 28.386719 43.542969 28.386719 C 39.402344 28.386719 35.257812 28.386719 31.113281 28.386719 C 31.039062 28.386719 30.964844 28.382812 30.894531 28.390625 C 30.855469 28.394531 30.820312 28.417969 30.757812 28.441406 C 31.03125 28.660156 31.28125 28.863281 31.53125 29.070312 C 35.722656 29.070312 39.910156 29.070312 44.097656 29.070312 C 44.226562 29.308594 44.351562 29.542969 44.472656 29.773438 C 44.457031 29.78125 44.449219 29.789062 44.441406 29.789062 C 40.535156 29.789062 36.625 29.792969 32.71875 29.792969 C 32.703125 29.792969 32.6875 29.792969 32.671875 29.792969 C 32.660156 29.792969 32.644531 29.792969 32.628906 29.796875 C 32.621094 29.796875 32.613281 29.800781 32.609375 29.800781 C 32.601562 29.804688 32.59375 29.804688 32.589844 29.808594 C 32.582031 29.8125 32.574219 29.816406 32.570312 29.824219 C 32.566406 29.828125 32.566406 29.835938 32.558594 29.847656 C 32.570312 29.863281 32.578125 29.882812 32.59375 29.894531 C 32.816406 30.058594 33.050781 30.214844 33.261719 30.394531 C 33.421875 30.527344 33.589844 30.5625 33.789062 30.5625 C 37.449219 30.558594 41.105469 30.558594 44.765625 30.558594 C 44.84375 30.558594 44.925781 30.558594 45.011719 30.558594 C 45.09375 30.652344 45.167969 30.742188 45.242188 30.832031 C 45.316406 30.914062 45.386719 31 45.46875 31.097656 C 45.398438 31.117188 45.359375 31.128906 45.269531 31.15625 C 45.402344 31.183594 45.484375 31.203125 45.566406 31.21875 C 41.941406 31.246094 38.316406 31.246094 34.695312 31.246094 C 34.679688 31.246094 34.664062 31.246094 34.652344 31.25 C 34.636719 31.253906 34.625 31.257812 34.609375 31.265625 C 34.601562 31.265625 34.597656 31.273438 34.59375 31.277344 C 34.589844 31.28125 34.589844 31.289062 34.582031 31.3125 C 34.597656 31.324219 34.613281 31.347656 34.636719 31.359375 C 34.949219 31.578125 35.265625 31.789062 35.578125 32.007812 C 35.71875 32.113281 35.871094 32.148438 36.046875 32.148438 C 39.507812 32.144531 42.96875 32.148438 46.429688 32.148438 C 46.511719 32.148438 46.589844 32.148438 46.652344 32.148438 C 47.007812 32.363281 47.34375 32.570312 47.683594 32.777344 C 47.667969 32.785156 47.660156 32.789062 47.65625 32.789062 C 44.121094 32.792969 40.589844 32.792969 37.054688 32.796875 C 37.03125 32.796875 37.011719 32.796875 36.988281 32.796875 C 36.980469 32.796875 36.972656 32.800781 36.96875 32.800781 C 36.960938 32.804688 36.953125 32.808594 36.949219 32.8125 C 36.945312 32.816406 36.941406 32.824219 36.925781 32.851562 C 36.960938 32.882812 36.996094 32.925781 37.042969 32.957031 C 37.433594 33.199219 37.828125 33.4375 38.21875 33.679688 C 38.382812 33.777344 38.546875 33.820312 38.742188 33.820312 C 42.179688 33.816406 45.617188 33.816406 49.054688 33.816406 C 49.546875 33.816406 50.039062 33.816406 50.535156 33.8125 C 50.535156 33.976562 50.535156 34.136719 50.535156 34.296875 C 50.445312 34.296875 50.355469 34.296875 50.269531 34.296875 C 46.773438 34.296875 43.277344 34.296875 39.78125 34.296875 C 39.695312 34.296875 39.605469 34.289062 39.519531 34.296875 C 39.476562 34.300781 39.4375 34.328125 39.378906 34.355469 C 39.566406 34.46875 39.726562 34.570312 39.890625 34.660156 C 40.152344 34.808594 40.414062 34.949219 40.679688 35.09375 C 40.886719 35.207031 41.097656 35.273438 41.34375 35.273438 C 44.289062 35.265625 47.234375 35.269531 50.179688 35.269531 C 50.261719 35.269531 50.34375 35.269531 50.421875 35.273438 C 50.433594 35.273438 50.441406 35.28125 50.453125 35.289062 C 50.429688 35.304688 50.40625 35.324219 50.382812 35.339844 C 50.503906 35.480469 50.402344 35.667969 50.464844 35.824219 C 50.492188 35.832031 50.511719 35.835938 50.535156 35.84375 C 50.535156 35.871094 50.535156 35.902344 50.535156 35.929688 C 50.476562 35.925781 50.417969 35.921875 50.359375 35.921875 C 47.9375 35.921875 45.515625 35.921875 43.09375 35.921875 C 42.902344 35.921875 42.710938 35.917969 42.519531 35.921875 C 42.476562 35.925781 42.429688 35.945312 42.367188 35.960938 C 42.40625 35.996094 42.417969 36.011719 42.433594 36.023438 C 42.746094 36.179688 43.058594 36.34375 43.371094 36.496094 C 43.53125 36.574219 43.703125 36.601562 43.882812 36.597656 C 44.25 36.589844 44.617188 36.59375 44.984375 36.59375 C 46.835938 36.59375 48.683594 36.59375 50.535156 36.589844 C 50.535156 36.828125 50.535156 37.0625 50.535156 37.296875 C 48.867188 37.296875 47.199219 37.296875 45.53125 37.296875 C 45.460938 37.296875 45.386719 37.296875 45.316406 37.3125 C 45.273438 37.320312 45.238281 37.359375 45.179688 37.402344 C 45.769531 37.664062 46.328125 37.917969 46.890625 38.167969 C 46.960938 38.199219 47.042969 38.222656 47.117188 38.222656 C 48.257812 38.226562 49.394531 38.222656 50.535156 38.222656 C 50.535156 38.425781 50.535156 38.632812 50.535156 38.839844 C 49.925781 38.839844 49.320312 38.835938 48.710938 38.835938 C 48.660156 38.835938 48.609375 38.855469 48.558594 38.863281 C 48.742188 38.988281 48.921875 39.078125 49.105469 39.160156 C 49.242188 39.226562 49.296875 39.332031 49.296875 39.476562 C 49.296875 39.539062 49.304688 39.601562 49.308594 39.675781 C 49.730469 39.675781 50.132812 39.675781 50.535156 39.675781 C 50.535156 39.691406 50.535156 39.707031 50.535156 39.722656 C 50.492188 39.730469 50.453125 39.738281 50.414062 39.746094 C 50.371094 39.949219 50.464844 40.160156 50.28125 40.339844 C 50.390625 40.339844 50.460938 40.339844 50.535156 40.339844 C 50.535156 40.367188 50.535156 40.398438 50.535156 40.425781 C 50.445312 40.421875 50.359375 40.414062 50.269531 40.414062 C 46.511719 40.414062 42.75 40.414062 38.988281 40.414062 C 38.9375 40.414062 38.886719 40.410156 38.835938 40.414062 C 38.796875 40.421875 38.761719 40.4375 38.699219 40.460938 C 38.960938 40.703125 39.222656 40.898438 39.476562 41.101562 C 39.632812 41.230469 39.785156 41.269531 39.980469 41.269531 C 40.933594 41.261719 41.890625 41.265625 42.84375 41.265625 C 45.40625 41.265625 47.96875 41.265625 50.535156 41.265625 C 50.535156 41.28125 50.535156 41.292969 50.535156 41.308594 "/>
<path style=" stroke:none;fill-rule:nonzero;fill:rgb(100%,100%,100%);fill-opacity:1;" d="M 46.429688 20.238281 C 46.449219 20.222656 46.464844 20.203125 46.480469 20.1875 C 46.464844 20.203125 46.449219 20.222656 46.429688 20.238281 "/>
</g>
</svg>
