<?xml version="1.0" encoding="UTF-8"?>
<svg xmlns="http://www.w3.org/2000/svg" xmlns:xlink="http://www.w3.org/1999/xlink" width="56pt" height="56pt" viewBox="0 0 56 56" version="1.1">
<g id="surface1">
<rect x="0" y="0" width="56" height="56" style="fill:rgb(16.598511%,60.960388%,25.436401%);fill-opacity:1;stroke:none;"/>
<path style=" stroke:none;fill-rule:nonzero;fill:rgb(100%,100%,100%);fill-opacity:1;" d="M 16.367188 15.511719 C 16.367188 24.167969 25.882812 30.359375 20.589844 38.75 C 16.773438 44.792969 8.757812 37.355469 13.40625 32.671875 C 14.0625 32.011719 15.140625 31.183594 16.144531 31.097656 C 15.867188 30.328125 13.953125 25.128906 13.824219 24.574219 C 9.980469 24.660156 0.296875 33.851562 8.5625 44.429688 C 10.03125 46.304688 13.054688 48.011719 16.367188 48.011719 C 29.898438 48.011719 28.035156 31.539062 39.144531 31.539062 C 43.566406 31.539062 45.820312 37.554688 41.128906 40.714844 C 38.519531 42.226562 36.675781 40.367188 35.382812 39.5 L 30.738281 44.476562 C 32.605469 47.261719 42.371094 51.78125 48.539062 43.261719 C 51.902344 38.617188 51.15625 32.507812 47.339844 27.765625 C 42.332031 21.546875 31.441406 26.671875 25.070312 20.074219 C 21.425781 16.300781 23.695312 10.867188 27.976562 10.867188 C 30.421875 10.867188 33.101562 13.65625 32.390625 16.722656 C 32.308594 17.074219 32.207031 17.226562 32.175781 17.613281 C 33.351562 17.90625 37.957031 19.160156 38.808594 19.160156 C 42.242188 4.417969 23.214844 -2.257812 17.46875 10.753906 C 16.929688 11.972656 16.367188 13.773438 16.367188 15.511719 "/>
</g>
</svg>
