<?xml version="1.0" encoding="UTF-8"?>
<svg xmlns="http://www.w3.org/2000/svg" xmlns:xlink="http://www.w3.org/1999/xlink" width="56pt" height="56pt" viewBox="0 0 56 56" version="1.1">
<g id="surface1">
<rect x="0" y="0" width="56" height="56" style="fill:rgb(95.66803%,95.779419%,96.777344%);fill-opacity:1;stroke:none;"/>
<path style=" stroke:none;fill-rule:nonzero;fill:rgb(74.075317%,11.579895%,14.118958%);fill-opacity:1;" d="M 18.820312 48.34375 C 18.960938 48.40625 19.074219 48.46875 19.191406 48.511719 C 21.578125 49.394531 24.042969 49.804688 26.585938 49.632812 C 29.746094 49.414062 32.554688 48.300781 34.902344 46.164062 C 36.464844 44.742188 37.308594 42.964844 37.191406 40.789062 C 37.066406 38.460938 35.25 36.265625 33.027344 35.878906 C 30.457031 35.425781 28.5 36.589844 26.617188 38.410156 C 27.289062 38.34375 27.785156 38.246094 28.273438 38.265625 C 29.210938 38.300781 30.167969 38.292969 31.074219 38.503906 C 32.554688 38.84375 33.292969 39.898438 33.332031 41.410156 C 33.351562 42.292969 33.175781 43.117188 32.738281 43.898438 C 32.007812 45.210938 31.003906 46.253906 29.691406 46.980469 C 27.746094 48.058594 25.628906 48.527344 23.433594 48.554688 C 21.921875 48.574219 20.40625 48.421875 18.820312 48.34375 Z M 22.800781 21.84375 C 22.769531 21.917969 22.738281 21.992188 22.707031 22.0625 C 22.816406 22.179688 22.90625 22.335938 23.039062 22.402344 C 23.195312 22.476562 23.394531 22.472656 23.574219 22.515625 C 25.339844 22.941406 25.988281 24.003906 25.421875 25.71875 C 25.128906 26.605469 24.75 27.484375 24.277344 28.289062 C 23.300781 29.964844 22.214844 31.570312 21.21875 33.230469 C 20.925781 33.722656 20.585938 33.921875 20.03125 33.933594 C 17.488281 33.972656 14.949219 34.046875 12.410156 34.101562 C 11.679688 34.117188 10.945312 34.101562 10.039062 34.101562 C 13.34375 35.109375 16.609375 35.148438 19.902344 35.355469 C 19.820312 35.550781 19.792969 35.652344 19.742188 35.738281 C 18.085938 38.496094 20.472656 42.871094 24.019531 42.78125 C 24.597656 42.769531 25.175781 42.785156 25.746094 42.722656 C 27.242188 42.554688 28.390625 41.765625 29.480469 40.558594 C 28.976562 40.714844 28.636719 40.839844 28.289062 40.925781 C 27.3125 41.167969 26.378906 41.070312 25.464844 40.613281 C 24.855469 40.3125 24.484375 39.84375 24.296875 39.214844 C 23.859375 37.726562 24.394531 36.402344 24.882812 35.050781 C 25.140625 35.050781 25.296875 35.042969 25.453125 35.050781 C 28.429688 35.167969 31.265625 34.523438 34.042969 33.488281 C 36.898438 32.425781 39.253906 30.71875 41.121094 28.332031 C 41.40625 27.96875 41.632812 27.539062 41.796875 27.105469 C 42.363281 25.613281 42.445312 24.039062 42.476562 22.46875 C 42.480469 22.238281 42.414062 22.007812 42.363281 21.652344 C 42.164062 21.945312 42.03125 22.132812 41.910156 22.324219 C 40.828125 24.039062 39.574219 25.621094 37.96875 26.875 C 37.003906 27.632812 35.976562 28.320312 34.953125 29.003906 C 32.710938 30.496094 30.25 31.519531 27.683594 32.296875 C 27.171875 32.453125 26.636719 32.515625 25.960938 32.648438 C 26.34375 31.773438 26.660156 31.058594 26.972656 30.34375 C 27.664062 28.773438 28.132812 27.15625 28.058594 25.40625 C 28.011719 24.328125 27.585938 23.5 26.71875 22.878906 C 26.585938 22.78125 26.476562 22.65625 26.269531 22.460938 C 27.785156 22.550781 28.921875 21.917969 30.050781 21.234375 C 31.660156 20.261719 31.789062 18.128906 30.5625 16.734375 C 29.800781 15.867188 28.484375 15.734375 27.53125 16.132812 C 26.695312 16.476562 26.15625 17.496094 26.21875 18.535156 C 26.289062 19.773438 27.109375 20.375 28.300781 20.066406 C 28.898438 19.910156 29.070312 19.539062 28.835938 18.855469 C 28.71875 18.871094 28.589844 18.878906 28.46875 18.90625 C 28.015625 19.019531 27.679688 18.847656 27.5 18.445312 C 27.320312 18.042969 27.449219 17.679688 27.773438 17.386719 C 28.546875 16.679688 29.671875 17.074219 29.929688 18.171875 C 30.109375 18.949219 30 19.695312 29.429688 20.300781 C 28.746094 21.023438 27.941406 21.574219 26.933594 21.671875 C 25.84375 21.777344 24.742188 21.792969 23.644531 21.84375 C 23.363281 21.855469 23.082031 21.84375 22.800781 21.84375 Z M 37.679688 17.214844 C 35.417969 22.402344 31.863281 26.546875 27.730469 30.34375 C 27.960938 30.308594 28.199219 30.289062 28.425781 30.234375 C 30.660156 29.695312 32.601562 28.585938 34.347656 27.117188 C 36.304688 25.46875 38.03125 23.585938 39.390625 21.433594 C 40.945312 18.984375 41.929688 16.277344 42.222656 13.351562 C 42.253906 13.046875 42.3125 12.742188 42.359375 12.441406 C 42.414062 12.421875 42.46875 12.402344 42.523438 12.382812 C 42.683594 12.65625 42.921875 12.90625 42.992188 13.199219 C 43.148438 13.855469 43.285156 14.53125 43.308594 15.207031 C 43.390625 17.285156 43.117188 19.332031 42.535156 21.332031 C 48.953125 29.359375 47.484375 40.902344 39.546875 47.152344 C 32.066406 53.042969 20.992188 52.371094 14.253906 45.109375 C 7.949219 38.320312 7.847656 27.605469 14.140625 20.621094 C 20.875 13.144531 31.3125 13.066406 37.679688 17.214844 "/>
<path style=" stroke:none;fill-rule:nonzero;fill:rgb(98.4375%,78.147888%,9.584045%);fill-opacity:1;" d="M 25.703125 32.753906 C 25.773438 32.578125 25.828125 32.445312 25.882812 32.316406 C 26.289062 31.386719 26.714844 30.460938 27.097656 29.523438 C 27.667969 28.125 27.875 26.664062 27.773438 25.15625 C 27.710938 24.253906 27.265625 23.589844 26.578125 23.050781 C 26.355469 22.878906 26.113281 22.730469 25.808594 22.527344 C 25.949219 22.527344 26.023438 22.511719 26.085938 22.527344 C 26.523438 22.652344 26.957031 22.589844 27.371094 22.460938 C 28.476562 22.125 29.5 21.632812 30.371094 20.863281 C 30.875 20.417969 31.074219 19.835938 31.144531 19.191406 C 31.277344 17.964844 30.722656 17.054688 29.8125 16.316406 C 29.445312 16.015625 28.984375 16.007812 28.542969 15.957031 C 28.117188 15.90625 27.691406 15.964844 27.296875 16.125 C 27.054688 16.226562 26.832031 16.40625 26.632812 16.589844 C 25.824219 17.335938 25.675781 18.824219 26.273438 19.722656 C 26.398438 19.914062 26.554688 20.046875 26.769531 20.117188 C 27.277344 20.28125 27.78125 20.269531 28.28125 20.074219 C 28.640625 19.933594 28.863281 19.4375 28.734375 19.082031 C 28.652344 18.851562 28.585938 18.820312 28.355469 18.898438 C 28.320312 18.910156 28.289062 18.925781 28.257812 18.9375 C 27.867188 19.054688 27.503906 18.9375 27.289062 18.621094 C 27.085938 18.320312 27.097656 17.894531 27.355469 17.601562 C 28.078125 16.78125 28.902344 16.925781 29.457031 17.761719 C 29.871094 18.386719 29.832031 19.667969 29.144531 20.382812 C 28.601562 20.949219 27.960938 21.367188 27.226562 21.605469 C 26.734375 21.765625 26.199219 21.808594 25.679688 21.859375 C 24.847656 21.941406 24.011719 21.945312 23.179688 21.878906 C 23.019531 21.867188 22.859375 21.871094 22.699219 21.871094 C 22.503906 21.875 22.378906 21.972656 22.355469 22.132812 C 22.332031 22.292969 22.460938 22.449219 22.652344 22.488281 C 22.855469 22.53125 23.058594 22.5625 23.257812 22.613281 C 23.714844 22.722656 24.15625 22.867188 24.542969 23.15625 C 25.023438 23.511719 25.277344 23.988281 25.308594 24.582031 C 25.335938 25.023438 25.242188 25.445312 25.117188 25.863281 C 24.789062 26.980469 24.257812 28.003906 23.640625 28.984375 C 22.699219 30.472656 21.734375 31.945312 20.824219 33.449219 C 20.585938 33.839844 20.34375 34.054688 19.875 34.046875 C 19.429688 34.042969 18.988281 34.113281 18.542969 34.128906 C 17.457031 34.167969 16.371094 34.207031 15.285156 34.230469 C 14.507812 34.25 13.730469 34.269531 12.953125 34.257812 C 11.9375 34.242188 10.921875 34.199219 9.90625 34.164062 C 9.757812 34.160156 9.609375 34.164062 9.445312 34.210938 C 9.761719 34.300781 10.074219 34.410156 10.394531 34.480469 C 11.109375 34.644531 11.820312 34.804688 12.539062 34.929688 C 13.144531 35.039062 13.757812 35.113281 14.371094 35.171875 C 15.441406 35.269531 16.511719 35.355469 17.582031 35.421875 C 18.128906 35.460938 18.679688 35.445312 19.230469 35.453125 C 19.347656 35.457031 19.46875 35.46875 19.640625 35.480469 C 19.554688 35.628906 19.507812 35.726562 19.449219 35.820312 C 18.761719 36.9375 18.71875 38.117188 19.074219 39.351562 C 19.441406 40.632812 20.242188 41.582031 21.304688 42.335938 C 21.882812 42.742188 22.542969 42.949219 23.234375 42.980469 C 23.996094 43.019531 24.765625 42.988281 25.527344 42.929688 C 26.476562 42.859375 27.300781 42.441406 28.050781 41.875 C 28.496094 41.535156 28.917969 41.171875 29.246094 40.679688 C 29.160156 40.710938 29.074219 40.738281 28.988281 40.773438 C 28.289062 41.074219 27.566406 41.265625 26.792969 41.226562 C 26.007812 41.183594 25.292969 40.933594 24.664062 40.460938 C 24.308594 40.195312 24.125 39.785156 24 39.363281 C 23.804688 38.714844 23.832031 38.054688 23.945312 37.394531 C 24.054688 36.726562 24.273438 36.09375 24.492188 35.457031 C 24.546875 35.292969 24.632812 35.222656 24.820312 35.230469 C 25.285156 35.25 25.757812 35.25 26.226562 35.246094 C 27.140625 35.242188 28.046875 35.121094 28.953125 34.992188 C 30.867188 34.722656 32.683594 34.113281 34.457031 33.375 C 35.296875 33.027344 36.117188 32.613281 36.914062 32.167969 C 37.429688 31.878906 37.894531 31.496094 38.355469 31.121094 C 39.378906 30.285156 40.277344 29.328125 41.101562 28.300781 C 41.476562 27.832031 41.65625 27.277344 41.824219 26.722656 C 42.328125 25.058594 42.363281 23.347656 42.296875 21.628906 C 42.296875 21.605469 42.285156 21.585938 42.269531 21.542969 C 42.144531 21.605469 42.101562 21.726562 42.042969 21.828125 C 41.183594 23.304688 40.171875 24.667969 38.957031 25.878906 C 38.113281 26.722656 37.179688 27.457031 36.1875 28.117188 C 35.539062 28.542969 34.898438 28.980469 34.242188 29.402344 C 33.230469 30.046875 32.175781 30.613281 31.054688 31.058594 C 30.082031 31.445312 29.109375 31.84375 28.121094 32.203125 C 27.414062 32.460938 26.675781 32.632812 25.925781 32.734375 C 25.875 32.742188 25.820312 32.742188 25.703125 32.753906 "/>
<path style=" stroke:none;fill-rule:nonzero;fill:rgb(98.4375%,78.147888%,9.584045%);fill-opacity:1;" d="M 40.203125 4.886719 C 40.179688 5.164062 40.164062 5.433594 40.144531 5.703125 C 40.089844 6.386719 40.046875 7.070312 39.976562 7.753906 C 39.925781 8.285156 39.859375 8.820312 39.761719 9.347656 C 39.605469 10.210938 39.433594 11.074219 39.242188 11.929688 C 38.84375 13.683594 38.269531 15.378906 37.558594 17.03125 C 36.4375 19.652344 34.960938 22.0625 33.210938 24.308594 C 31.773438 26.152344 30.15625 27.828125 28.453125 29.429688 C 28.148438 29.71875 27.824219 29.992188 27.507812 30.273438 C 27.441406 30.332031 27.378906 30.398438 27.273438 30.5 C 27.40625 30.5 27.480469 30.511719 27.550781 30.496094 C 29.394531 30.140625 31.078125 29.40625 32.628906 28.359375 C 34.105469 27.363281 35.402344 26.160156 36.589844 24.839844 C 37.519531 23.808594 38.386719 22.734375 39.183594 21.605469 C 39.367188 21.34375 39.519531 21.0625 39.667969 20.777344 C 40.550781 19.105469 41.273438 17.367188 41.722656 15.527344 C 42.042969 14.222656 42.171875 12.894531 42.128906 11.550781 C 42.09375 10.492188 41.910156 9.460938 41.632812 8.445312 C 41.296875 7.230469 40.808594 6.074219 40.273438 4.9375 C 40.261719 4.917969 40.238281 4.910156 40.203125 4.886719 "/>
<path style=" stroke:none;fill-rule:nonzero;fill:rgb(98.4375%,78.147888%,9.584045%);fill-opacity:1;" d="M 26.273438 38.628906 C 27.027344 38.554688 27.726562 38.457031 28.433594 38.425781 C 29.464844 38.382812 30.492188 38.449219 31.449219 38.90625 C 32.453125 39.394531 32.972656 40.214844 33.066406 41.316406 C 33.109375 41.851562 33.070312 42.390625 32.964844 42.917969 C 32.921875 43.140625 32.832031 43.355469 32.738281 43.5625 C 32.019531 45.15625 30.890625 46.375 29.359375 47.226562 C 28.199219 47.871094 26.945312 48.242188 25.65625 48.511719 C 24.710938 48.707031 23.757812 48.777344 22.796875 48.789062 C 21.535156 48.800781 20.285156 48.734375 19.042969 48.519531 C 18.707031 48.464844 18.367188 48.421875 18.011719 48.425781 C 18.273438 48.53125 18.53125 48.648438 18.792969 48.75 C 19.894531 49.167969 21.03125 49.476562 22.191406 49.679688 C 23.195312 49.855469 24.207031 49.9375 25.226562 49.9375 C 26.464844 49.9375 27.699219 49.828125 28.890625 49.496094 C 29.703125 49.273438 30.488281 48.953125 31.269531 48.628906 C 32.382812 48.164062 33.402344 47.535156 34.320312 46.75 C 35.472656 45.765625 36.363281 44.589844 36.777344 43.109375 C 37.351562 41.046875 36.960938 39.175781 35.53125 37.582031 C 34.503906 36.433594 33.179688 35.882812 31.621094 35.914062 C 30.664062 35.933594 29.777344 36.1875 28.929688 36.617188 C 27.929688 37.121094 27.0625 37.796875 26.273438 38.628906 "/>
</g>
</svg>
