<?xml version="1.0" encoding="UTF-8"?>
<svg xmlns="http://www.w3.org/2000/svg" xmlns:xlink="http://www.w3.org/1999/xlink" width="56pt" height="56pt" viewBox="0 0 56 56" version="1.1">
<g id="surface1">
<rect x="0" y="0" width="56" height="56" style="fill:rgb(95.666504%,95.776367%,96.775818%);fill-opacity:1;stroke:none;"/>
<path style=" stroke:none;fill-rule:evenodd;fill:rgb(92.573547%,88.134766%,5.722046%);fill-opacity:1;" d="M 12.15625 24.746094 C 12.152344 24.742188 12.152344 24.742188 12.152344 24.738281 C 12.125 24.699219 12.066406 24.617188 11.964844 24.472656 C 11.929688 24.425781 11.898438 24.378906 11.855469 24.324219 C 12 24.527344 12.144531 24.730469 12.15625 24.746094 Z M 11.945312 24.609375 C 12.023438 24.660156 12.09375 24.703125 12.136719 24.734375 C 12.144531 24.738281 12.148438 24.738281 12.15625 24.746094 Z M 37.5 35.40625 C 37.5 35.40625 37.613281 34.996094 37.621094 34.960938 C 37.980469 33.355469 38.226562 31.742188 38.144531 30.089844 C 38.054688 28.363281 37.679688 26.546875 37.089844 24.929688 C 35.457031 20.488281 31.707031 16.898438 27.277344 15.300781 C 24.71875 14.378906 21.921875 14.113281 19.234375 14.558594 C 16.46875 15.015625 13.898438 16.117188 11.667969 17.84375 C 10.347656 18.871094 8.9375 20.332031 8.027344 21.765625 C 7.949219 21.890625 7.847656 22.03125 7.820312 22.078125 C 7.820312 22.082031 8.808594 22.636719 9.773438 23.234375 C 10.367188 23.601562 10.960938 23.976562 11.550781 24.351562 C 11.515625 24.308594 11.160156 23.84375 11.027344 23.648438 C 10.890625 23.445312 10.460938 22.859375 10.3125 22.648438 C 10.160156 22.4375 9.671875 21.707031 9.582031 21.53125 C 9.308594 20.988281 9.734375 20.914062 10.160156 21.113281 C 10.371094 21.21875 10.515625 21.296875 10.691406 21.398438 C 10.910156 21.527344 11.027344 21.59375 11.261719 21.738281 C 11.261719 21.738281 11.972656 22.144531 12.789062 22.722656 C 13.519531 23.246094 14.335938 23.917969 14.878906 24.425781 C 15.175781 24.703125 15.582031 25.097656 16.058594 25.578125 C 17.375 26.90625 18.976562 28.945312 20.039062 30.902344 C 20.410156 31.585938 20.671875 32.011719 20.90625 32.390625 C 21.035156 32.601562 21.15625 32.796875 21.277344 32.988281 C 21.386719 33.152344 21.5 33.308594 21.617188 33.480469 C 21.703125 33.609375 21.824219 33.757812 21.953125 33.910156 C 22.257812 34.273438 22.6875 34.6875 23.394531 35.082031 C 23.441406 35.105469 23.484375 35.117188 23.527344 35.132812 C 23.601562 35.15625 23.664062 35.175781 23.730469 35.191406 C 23.851562 35.21875 23.972656 35.253906 24.121094 35.28125 C 24.542969 35.363281 25.09375 35.433594 25.722656 35.453125 C 26.5625 35.476562 27.246094 35.480469 27.921875 35.472656 C 28.371094 35.464844 28.816406 35.457031 29.300781 35.433594 C 30.605469 35.378906 31.261719 35.339844 31.808594 35.339844 C 32.132812 35.339844 32.542969 35.320312 33.171875 35.308594 C 33.667969 35.300781 34.097656 35.292969 34.597656 35.289062 C 35.175781 35.28125 35.644531 35.296875 36.101562 35.320312 C 36.386719 35.335938 36.667969 35.347656 36.949219 35.367188 C 37.132812 35.382812 37.316406 35.394531 37.5 35.40625 "/>
<path style=" stroke:none;fill-rule:evenodd;fill:rgb(92.573547%,88.134766%,5.722046%);fill-opacity:1;" d="M 6.300781 25.242188 C 6.300781 25.242188 6.101562 25.628906 5.734375 27.210938 C 5.136719 29.777344 5.175781 32.535156 5.90625 35.085938 C 6.117188 35.828125 6.089844 35.730469 6.089844 35.730469 C 6.089844 35.730469 6.488281 35.554688 6.554688 35.527344 C 6.617188 35.496094 7.011719 35.3125 7.082031 35.277344 C 7.515625 35.070312 7.992188 34.773438 8.386719 34.421875 C 8.613281 34.222656 8.800781 33.996094 8.96875 33.785156 C 9.277344 33.40625 9.464844 32.949219 9.515625 32.773438 C 9.542969 32.683594 9.609375 32.457031 9.652344 32.238281 C 9.699219 32.019531 9.707031 31.808594 9.714844 31.738281 C 9.726562 31.546875 9.664062 31.09375 9.636719 30.894531 C 9.613281 30.691406 9.492188 30.113281 9.414062 29.890625 C 9.382812 29.800781 9.324219 29.628906 9.253906 29.46875 C 9.144531 29.214844 9.011719 28.964844 8.96875 28.878906 C 8.941406 28.828125 8.867188 28.675781 8.773438 28.5 C 8.617188 28.214844 8.425781 27.867188 8.375 27.777344 C 8.292969 27.613281 7.8125 26.984375 7.738281 26.878906 C 7.660156 26.773438 7.011719 26 6.886719 25.859375 C 6.765625 25.714844 6.367188 25.300781 6.300781 25.242188 "/>
<path style=" stroke:none;fill-rule:evenodd;fill:rgb(91.558838%,13.929749%,14.454651%);fill-opacity:1;" d="M 6.300781 25.242188 C 6.300781 25.242188 6.523438 24.648438 6.832031 23.964844 C 7.125 23.316406 7.5 22.585938 7.761719 22.175781 C 7.800781 22.117188 7.816406 22.089844 7.820312 22.078125 C 7.820312 22.078125 7.824219 22.078125 7.824219 22.078125 C 7.824219 22.078125 7.824219 22.082031 7.828125 22.082031 C 7.835938 22.085938 7.847656 22.09375 7.855469 22.097656 C 7.890625 22.117188 7.957031 22.160156 8.058594 22.214844 C 8.789062 22.605469 10.597656 23.746094 11.550781 24.355469 C 11.917969 24.589844 12.15625 24.746094 12.15625 24.746094 C 12.15625 24.746094 10.457031 22.375 10.277344 21.992188 C 9.976562 21.351562 10.480469 21.34375 10.964844 21.578125 C 11.265625 21.726562 12.925781 22.683594 14.472656 24.070312 C 16.019531 25.453125 18.085938 27.535156 19.695312 30.316406 C 21.308594 33.101562 21.796875 34.042969 23.046875 34.871094 C 24.300781 35.703125 25.425781 35.867188 27.183594 35.898438 C 28.472656 35.921875 29.769531 35.847656 31.066406 35.804688 C 31.882812 35.777344 32.703125 35.738281 33.523438 35.726562 C 33.765625 35.722656 34.003906 35.71875 34.242188 35.71875 C 34.476562 35.71875 34.707031 35.722656 34.941406 35.722656 C 35.191406 35.726562 35.441406 35.722656 35.695312 35.722656 C 36.425781 35.722656 37.160156 35.707031 37.882812 35.765625 C 38.460938 35.8125 39.007812 35.902344 39.28125 35.972656 C 39.523438 36.035156 39.800781 36.113281 40.136719 36.277344 C 40.488281 36.445312 40.699219 36.65625 40.988281 36.867188 C 41.136719 36.976562 41.257812 37.078125 41.441406 37.167969 C 41.628906 37.261719 41.882812 37.347656 42.09375 37.40625 C 42.964844 37.628906 45.285156 37.777344 46.425781 37.820312 C 47.566406 37.859375 48.121094 37.898438 48.839844 37.984375 C 49.484375 38.066406 50.289062 38.203125 50.679688 38.773438 C 50.6875 38.78125 50.46875 38.777344 50.101562 38.796875 C 49.160156 38.847656 47.253906 38.816406 45.796875 38.910156 C 43.78125 39.039062 40.339844 39.21875 39.078125 39.285156 C 37.816406 39.347656 36.164062 39.203125 34.523438 39.023438 C 32.878906 38.84375 29.589844 38.339844 27.769531 38.390625 C 22.476562 38.53125 19.019531 40.277344 12.371094 41.300781 C 11.644531 41.410156 10.882812 41.574219 10.144531 41.632812 C 10.03125 41.640625 9.925781 41.648438 9.828125 41.652344 C 9.800781 41.652344 9.785156 41.652344 9.785156 41.652344 C 9.765625 41.632812 9.773438 41.644531 9.746094 41.609375 C 8.792969 40.539062 7.9375 39.09375 7.375 37.769531 C 7.09375 37.109375 6.992188 36.804688 6.796875 36.183594 C 6.773438 36.105469 6.769531 36.117188 6.804688 36.109375 C 7.328125 35.957031 7.515625 35.878906 8.207031 35.453125 C 8.972656 34.980469 9.523438 34.316406 9.71875 33.898438 C 10.21875 32.832031 10.234375 31.675781 9.835938 30.570312 C 9.351562 29.242188 8.878906 28.503906 8.207031 27.519531 C 8.082031 27.335938 7.945312 27.15625 7.8125 26.980469 C 7.59375 26.6875 7.355469 26.40625 7.125 26.136719 C 6.984375 25.972656 6.84375 25.8125 6.703125 25.660156 C 6.570312 25.515625 6.4375 25.375 6.300781 25.242188 "/>
<path style=" stroke:none;fill-rule:evenodd;fill:rgb(100%,100%,100%);fill-opacity:1;" d="M 13.007812 21.160156 C 13.007812 21.160156 13.542969 21.324219 14.253906 21.757812 C 15.699219 22.636719 17.109375 23.640625 18.378906 24.808594 C 18.910156 25.300781 20.109375 26.492188 20.582031 27.039062 C 21.054688 27.582031 22.152344 28.941406 22.707031 29.851562 C 23.261719 30.765625 23.519531 31.1875 23.820312 31.691406 C 24.121094 32.199219 24.636719 32.953125 24.894531 33.292969 C 25.15625 33.636719 25.699219 34.214844 26.1875 34.507812 C 26.363281 34.609375 26.261719 34.574219 26.082031 34.542969 C 25.757812 34.492188 25.367188 34.40625 24.878906 34.148438 C 24.429688 33.914062 23.953125 33.546875 23.535156 33.050781 C 23.300781 32.773438 22.777344 32.097656 22.398438 31.460938 C 21.6875 30.269531 20.980469 29.054688 20.167969 27.933594 C 19.933594 27.605469 18.867188 26.296875 18.453125 25.835938 C 18.035156 25.371094 16.808594 24.109375 16.027344 23.441406 C 15.246094 22.773438 14.007812 21.796875 13.007812 21.160156 "/>
<path style=" stroke:none;fill-rule:evenodd;fill:rgb(65.194702%,10.420227%,16.51001%);fill-opacity:1;" d="M 23.410156 35.09375 C 23.410156 35.09375 23.605469 35.21875 23.894531 35.34375 C 24.160156 35.464844 24.507812 35.585938 24.851562 35.667969 C 25.574219 35.839844 26.050781 35.855469 26.617188 35.882812 C 26.910156 35.898438 27.515625 35.90625 28.113281 35.902344 C 28.683594 35.894531 29.25 35.878906 29.53125 35.863281 C 29.898438 35.84375 31.6875 35.777344 33.007812 35.738281 C 33.78125 35.71875 34.394531 35.71875 34.460938 35.71875 C 36.058594 35.761719 37.875 35.59375 39.4375 36.015625 C 39.609375 36.0625 39.777344 36.117188 39.941406 36.1875 C 39.96875 36.199219 40.039062 36.230469 40.085938 36.25 C 40.09375 36.253906 40.085938 36.25 40.074219 36.238281 C 40.0625 36.230469 40.046875 36.214844 40.03125 36.203125 C 39.984375 36.164062 39.621094 35.882812 38.972656 35.65625 C 38.585938 35.519531 38.378906 35.484375 38.21875 35.460938 C 38.0625 35.441406 37.953125 35.429688 37.734375 35.417969 C 37.304688 35.394531 36.042969 35.296875 35.050781 35.289062 C 34.058594 35.28125 30.257812 35.371094 29.613281 35.417969 C 28.972656 35.46875 27.359375 35.476562 26.578125 35.476562 C 25.796875 35.476562 24.421875 35.445312 23.410156 35.09375 "/>
<path style=" stroke:none;fill-rule:evenodd;fill:rgb(65.194702%,10.420227%,16.51001%);fill-opacity:1;" d="M 9.789062 41.652344 C 9.789062 41.652344 9.539062 41.671875 9.355469 41.492188 C 9.171875 41.316406 8.492188 40.59375 8.019531 39.800781 C 7.230469 38.472656 6.5625 37.210938 6.089844 35.734375 C 6.089844 35.734375 7.035156 35.320312 7.425781 35.101562 C 7.816406 34.882812 8.441406 34.402344 8.621094 34.207031 C 8.800781 34.011719 9.304688 33.410156 9.445312 32.992188 C 9.582031 32.578125 9.761719 32.027344 9.703125 31.441406 C 9.648438 30.855469 9.542969 30.074219 9.207031 29.363281 C 8.875 28.65625 8.476562 27.96875 8.386719 27.792969 C 8.300781 27.617188 9.109375 28.898438 9.304688 29.320312 C 9.5 29.738281 9.707031 30.195312 9.832031 30.554688 C 9.953125 30.914062 10.085938 31.429688 10.101562 31.800781 C 10.121094 32.171875 10.117188 32.523438 10.058594 32.824219 C 10.003906 33.125 9.90625 33.464844 9.761719 33.792969 C 9.617188 34.125 9.324219 34.546875 8.929688 34.898438 C 8.542969 35.246094 8.125 35.5 7.957031 35.597656 C 7.785156 35.695312 7.507812 35.859375 7.355469 35.914062 C 7.207031 35.972656 6.78125 36.113281 6.78125 36.113281 C 6.78125 36.113281 7.003906 36.828125 7.101562 37.082031 C 7.199219 37.335938 7.441406 37.953125 7.664062 38.394531 C 7.882812 38.835938 8.167969 39.386719 8.355469 39.679688 C 8.542969 39.972656 8.855469 40.5 9.105469 40.8125 C 9.359375 41.125 9.640625 41.515625 9.789062 41.652344 "/>
<path style=" stroke:none;fill-rule:evenodd;fill:rgb(65.194702%,10.420227%,16.51001%);fill-opacity:1;" d="M 11.265625 21.738281 C 11.171875 21.675781 10.476562 21.265625 10.179688 21.121094 C 9.746094 20.914062 9.304688 20.976562 9.582031 21.53125 C 9.671875 21.707031 10.160156 22.4375 10.3125 22.648438 C 10.460938 22.859375 10.890625 23.445312 11.027344 23.648438 C 11.164062 23.851562 11.550781 24.355469 11.550781 24.355469 L 12.15625 24.746094 C 12.15625 24.746094 11.671875 24.066406 11.574219 23.925781 C 11.507812 23.832031 11.1875 23.371094 10.953125 23.03125 C 10.816406 22.835938 10.664062 22.609375 10.519531 22.386719 C 10.410156 22.222656 10.292969 22.066406 10.238281 21.902344 C 10.183594 21.742188 10.167969 21.613281 10.21875 21.539062 C 10.28125 21.449219 10.382812 21.433594 10.507812 21.4375 C 10.765625 21.453125 11.109375 21.644531 11.265625 21.738281 "/>
</g>
</svg>
