<?xml version="1.0" encoding="UTF-8"?>
<svg xmlns="http://www.w3.org/2000/svg" xmlns:xlink="http://www.w3.org/1999/xlink" width="56pt" height="56pt" viewBox="0 0 56 56" version="1.1">
<g id="surface1">
<rect x="0" y="0" width="56" height="56" style="fill:rgb(16.28418%,30.329895%,64.08844%);fill-opacity:1;stroke:none;"/>
<path style=" stroke:none;fill-rule:nonzero;fill:rgb(100%,100%,100%);fill-opacity:1;" d="M 22.558594 30.460938 C 18.9375 30.621094 15.421875 30.070312 12.03125 28.792969 C 11.261719 28.503906 10.550781 28.0625 9.800781 27.714844 C 9.503906 27.578125 9.386719 27.378906 9.425781 27.0625 C 9.675781 25.0625 9.949219 23.078125 10.671875 21.171875 C 11.417969 19.203125 12.429688 17.410156 13.777344 15.792969 C 16.363281 12.683594 19.652344 10.761719 23.585938 9.894531 C 24.484375 9.695312 25.378906 9.53125 26.304688 9.511719 C 26.886719 9.5 27.464844 9.367188 28.042969 9.382812 C 32.402344 9.511719 36.34375 10.832031 39.699219 13.65625 C 40.992188 14.742188 42.230469 15.917969 43.148438 17.441406 C 42.933594 17.625 42.722656 17.808594 42.5 18 C 41.25 17.019531 40.003906 15.988281 38.703125 15.03125 C 36.445312 13.378906 34.058594 11.949219 31.34375 11.179688 C 30.46875 10.933594 29.550781 10.707031 28.652344 10.691406 C 26.167969 10.660156 24.21875 11.699219 22.914062 13.863281 C 22.085938 15.242188 21.492188 16.722656 21.304688 18.3125 C 21.074219 20.242188 21.535156 22.027344 22.882812 23.511719 C 23.023438 23.667969 23.140625 23.84375 23.269531 24.011719 C 23.15625 24.085938 23.007812 24.132812 22.949219 24.234375 C 22.875 24.355469 22.921875 24.542969 22.851562 24.664062 C 22.261719 25.683594 22.257812 25.679688 22.1875 26.375 C 22.175781 26.492188 22.167969 26.640625 22.097656 26.714844 C 21.53125 27.320312 21.929688 28.03125 21.855469 28.691406 C 22.367188 28.949219 22.214844 29.429688 22.171875 29.820312 C 22.132812 30.1875 22.410156 30.261719 22.558594 30.460938 "/>
<path style=" stroke:none;fill-rule:nonzero;fill:rgb(100%,100%,100%);fill-opacity:1;" d="M 13.039062 39.195312 C 13.761719 39.277344 14.390625 39.351562 15.019531 39.425781 C 15.929688 39.53125 16.835938 39.691406 17.75 39.730469 C 18.953125 39.78125 20.164062 39.808594 21.363281 39.722656 C 22.824219 39.621094 24.277344 39.394531 25.734375 39.21875 C 28.222656 38.914062 30.632812 38.253906 33.023438 37.523438 C 36.003906 36.613281 38.894531 35.460938 41.695312 34.09375 C 43.007812 33.453125 44.316406 32.796875 45.777344 32.070312 C 45.644531 32.625 45.550781 33.054688 45.433594 33.480469 C 44.707031 36.109375 43.503906 38.5 41.761719 40.597656 C 40.671875 41.910156 39.34375 42.949219 37.902344 43.859375 C 35.957031 45.089844 33.8125 45.792969 31.585938 46.195312 C 29.902344 46.496094 28.179688 46.683594 26.453125 46.59375 C 22.78125 46.410156 19.457031 45.285156 16.558594 42.964844 C 15.320312 41.972656 14.253906 40.835938 13.269531 39.605469 C 13.195312 39.515625 13.152344 39.402344 13.039062 39.195312 "/>
<path style=" stroke:none;fill-rule:nonzero;fill:rgb(100%,100%,100%);fill-opacity:1;" d="M 45.175781 27.15625 C 46.164062 26.78125 47.15625 26.410156 48.140625 26.039062 C 48.050781 26.46875 47.964844 26.898438 47.871094 27.324219 C 47.738281 27.921875 47.269531 28.433594 47.394531 29.101562 C 45.214844 30.457031 42.921875 31.601562 40.597656 32.683594 C 39.910156 33.007812 39.203125 33.28125 38.503906 33.578125 C 38.484375 33.050781 37.957031 33.136719 37.742188 33.121094 C 36.191406 33.007812 34.960938 32.199219 33.703125 31.421875 C 33.40625 31.238281 33.117188 31.078125 33.128906 30.671875 C 33.929688 30.484375 34.734375 30.296875 35.535156 30.109375 C 35.582031 30.246094 35.589844 30.457031 35.683594 30.515625 C 36.121094 30.773438 36.566406 31.097656 37.050781 31.203125 C 38.234375 31.457031 39.445312 31.578125 40.640625 31.222656 C 42.339844 30.722656 43.773438 29.820312 44.769531 28.332031 C 44.988281 28 45.257812 27.621094 45.175781 27.15625 "/>
<path style=" stroke:none;fill-rule:nonzero;fill:rgb(100%,100%,100%);fill-opacity:1;" d="M 21.078125 37.871094 C 19.90625 37.875 18.730469 37.875 17.558594 37.878906 C 17.503906 37.679688 17.492188 37.457031 17.390625 37.285156 C 16.382812 35.558594 15.597656 33.734375 14.992188 31.835938 C 14.972656 31.777344 15.109375 31.667969 15.175781 31.585938 C 16.21875 31.71875 17.257812 31.851562 18.296875 31.984375 C 18.242188 32.488281 18.355469 32.9375 18.632812 33.371094 C 18.84375 33.695312 18.992188 34.066406 19.160156 34.421875 C 19.59375 35.347656 20.054688 36.261719 20.699219 37.074219 C 20.875 37.296875 20.953125 37.601562 21.078125 37.871094 "/>
<path style=" stroke:none;fill-rule:nonzero;fill:rgb(100%,100%,100%);fill-opacity:1;" d="M 5.878906 35.109375 C 4.859375 34.707031 4.035156 34.039062 3.355469 33.191406 C 2.351562 31.933594 2.179688 30.445312 2.394531 28.933594 C 2.613281 27.390625 3.230469 25.957031 4.042969 24.621094 C 4.074219 24.574219 4.136719 24.542969 4.183594 24.503906 C 4.253906 24.796875 4.363281 25.082031 4.386719 25.378906 C 4.421875 25.835938 4.355469 26.308594 4.410156 26.765625 C 4.496094 27.480469 4.699219 28.183594 4.753906 28.902344 C 4.851562 30.199219 5.152344 31.457031 5.417969 32.722656 C 5.582031 33.515625 6.003906 34.261719 5.878906 35.109375 "/>
<path style=" stroke:none;fill-rule:nonzero;fill:rgb(100%,100%,100%);fill-opacity:1;" d="M 45.175781 27.15625 C 45.257812 27.621094 44.988281 28 44.769531 28.332031 C 43.773438 29.820312 42.339844 30.722656 40.640625 31.222656 C 39.445312 31.578125 38.234375 31.457031 37.050781 31.203125 C 36.566406 31.097656 36.121094 30.773438 35.683594 30.515625 C 35.589844 30.457031 35.582031 30.246094 35.535156 30.109375 C 36.667969 29.78125 37.804688 29.472656 38.929688 29.117188 C 40.78125 28.539062 42.628906 27.929688 44.476562 27.332031 C 44.589844 27.296875 44.707031 27.273438 44.820312 27.246094 C 44.878906 27.226562 44.933594 27.207031 44.988281 27.191406 C 45.050781 27.175781 45.113281 27.167969 45.175781 27.15625 "/>
<path style=" stroke:none;fill-rule:nonzero;fill:rgb(100%,100%,100%);fill-opacity:1;" d="M 5.878906 35.109375 C 6.003906 34.261719 5.582031 33.515625 5.417969 32.722656 C 5.152344 31.457031 4.851562 30.199219 4.753906 28.902344 C 4.699219 28.183594 4.496094 27.480469 4.410156 26.765625 C 4.355469 26.308594 4.421875 25.835938 4.386719 25.378906 C 4.363281 25.082031 4.253906 24.796875 4.183594 24.503906 C 4.613281 23.839844 5.050781 23.171875 5.480469 22.503906 C 5.683594 22.871094 5.96875 23.167969 5.78125 23.6875 C 5.636719 24.089844 5.429688 24.652344 6.078125 24.929688 C 6.074219 25.023438 6.089844 25.121094 6.0625 25.207031 C 5.8125 25.96875 5.890625 26.703125 6.246094 27.417969 C 6.28125 27.496094 6.265625 27.601562 6.273438 27.695312 C 6.023438 27.785156 5.808594 27.953125 5.894531 28.230469 C 6.113281 28.957031 6.128906 29.71875 6.285156 30.441406 C 6.582031 31.804688 6.8125 33.195312 7.332031 34.511719 C 7.492188 34.917969 7.480469 35.398438 7.546875 35.84375 C 6.992188 35.597656 6.433594 35.355469 5.878906 35.109375 "/>
<path style=" stroke:none;fill-rule:nonzero;fill:rgb(100%,100%,100%);fill-opacity:1;" d="M 21.078125 37.871094 C 20.953125 37.601562 20.875 37.296875 20.699219 37.074219 C 20.054688 36.261719 19.59375 35.347656 19.160156 34.421875 C 18.992188 34.066406 18.84375 33.695312 18.632812 33.371094 C 18.355469 32.9375 18.242188 32.488281 18.296875 31.984375 C 19.902344 31.992188 21.507812 31.996094 23.113281 32.003906 C 23.054688 32.054688 22.992188 32.105469 22.933594 32.15625 C 22.328125 32.15625 21.71875 32.15625 21.054688 32.15625 C 21.6875 34.300781 23.03125 35.890625 24.257812 37.542969 C 24.210938 37.582031 24.167969 37.648438 24.121094 37.652344 C 23.105469 37.730469 22.09375 37.800781 21.078125 37.871094 "/>
<path style=" stroke:none;fill-rule:nonzero;fill:rgb(100%,100%,100%);fill-opacity:1;" d="M 22.933594 32.15625 C 22.992188 32.105469 23.054688 32.054688 23.113281 32.003906 C 23.664062 31.988281 24.214844 31.972656 24.761719 31.960938 C 24.949219 31.96875 25.070312 32 25.179688 32.214844 C 25.945312 33.703125 26.925781 35.035156 28.152344 36.183594 C 28.3125 36.335938 28.382812 36.585938 28.496094 36.789062 C 27.882812 36.914062 27.269531 37.039062 26.65625 37.164062 C 26.175781 37.273438 25.910156 36.941406 25.664062 36.640625 C 25.007812 35.820312 24.308594 35.019531 23.757812 34.128906 C 23.386719 33.53125 22.949219 32.917969 22.933594 32.15625 "/>
<path style=" stroke:none;fill-rule:nonzero;fill:rgb(100%,100%,100%);fill-opacity:1;" d="M 28.496094 36.789062 C 28.382812 36.585938 28.3125 36.335938 28.152344 36.183594 C 26.925781 35.035156 25.945312 33.703125 25.179688 32.214844 C 25.070312 32 24.949219 31.96875 24.761719 31.960938 C 24.8125 31.925781 24.855469 31.863281 24.910156 31.859375 C 25.734375 31.777344 26.558594 31.707031 27.382812 31.632812 C 27.535156 31.992188 27.625 32.402344 27.859375 32.699219 C 28.859375 33.976562 29.96875 35.152344 31.324219 36.070312 C 30.378906 36.3125 29.4375 36.550781 28.496094 36.789062 "/>
<path style=" stroke:none;fill-rule:nonzero;fill:rgb(100%,100%,100%);fill-opacity:1;" d="M 7.546875 35.84375 C 7.480469 35.398438 7.492188 34.917969 7.332031 34.511719 C 6.8125 33.195312 6.582031 31.804688 6.285156 30.441406 C 6.128906 29.71875 6.113281 28.957031 5.894531 28.230469 C 5.808594 27.953125 6.023438 27.785156 6.273438 27.695312 C 6.699219 27.996094 7.128906 28.300781 7.554688 28.605469 C 7.675781 29.46875 7.730469 30.351562 7.929688 31.199219 C 8.273438 32.625 8.5 34.089844 9.175781 35.421875 C 9.332031 35.730469 9.316406 36.125 9.378906 36.476562 C 8.769531 36.265625 8.15625 36.054688 7.546875 35.84375 "/>
<path style=" stroke:none;fill-rule:nonzero;fill:rgb(100%,100%,100%);fill-opacity:1;" d="M 31.324219 36.070312 C 29.96875 35.152344 28.859375 33.976562 27.859375 32.699219 C 27.625 32.402344 27.535156 31.992188 27.382812 31.632812 C 28.125 31.523438 28.867188 31.410156 29.605469 31.300781 C 29.578125 31.644531 29.605469 31.957031 29.914062 32.199219 C 30.15625 32.382812 30.355469 32.617188 30.566406 32.839844 C 31.382812 33.691406 32.214844 34.515625 33.351562 34.953125 C 33.496094 35.007812 33.585938 35.210938 33.699219 35.34375 C 32.90625 35.585938 32.113281 35.828125 31.324219 36.070312 "/>
<path style=" stroke:none;fill-rule:nonzero;fill:rgb(100%,100%,100%);fill-opacity:1;" d="M 15.175781 31.585938 C 15.109375 31.667969 14.972656 31.777344 14.992188 31.835938 C 15.597656 33.734375 16.382812 35.558594 17.390625 37.285156 C 17.492188 37.457031 17.503906 37.679688 17.558594 37.878906 C 16.871094 37.898438 16.179688 37.984375 15.519531 37.710938 C 15.4375 37.421875 15.414062 37.105469 15.269531 36.855469 C 14.4375 35.378906 13.890625 33.789062 13.402344 32.179688 C 13.296875 31.84375 13.105469 31.492188 13.507812 31.214844 C 14.0625 31.335938 14.621094 31.460938 15.175781 31.585938 "/>
<path style=" stroke:none;fill-rule:nonzero;fill:rgb(100%,100%,100%);fill-opacity:1;" d="M 9.378906 36.476562 C 9.316406 36.125 9.332031 35.730469 9.175781 35.421875 C 8.5 34.089844 8.273438 32.625 7.929688 31.199219 C 7.730469 30.351562 7.675781 29.46875 7.554688 28.605469 C 7.617188 28.632812 7.675781 28.660156 7.734375 28.683594 C 7.777344 28.726562 7.816406 28.773438 7.859375 28.816406 C 8.390625 29.113281 8.921875 29.414062 9.453125 29.714844 C 9.308594 29.820312 9.167969 29.921875 9.023438 30.027344 C 9.097656 30.226562 9.179688 30.390625 9.207031 30.5625 C 9.492188 32.242188 9.949219 33.871094 10.582031 35.453125 C 10.773438 35.929688 10.933594 36.410156 10.882812 36.933594 C 10.382812 36.78125 9.878906 36.628906 9.378906 36.476562 "/>
<path style=" stroke:none;fill-rule:nonzero;fill:rgb(100%,100%,100%);fill-opacity:1;" d="M 33.699219 35.34375 C 33.585938 35.210938 33.496094 35.007812 33.351562 34.953125 C 32.214844 34.515625 31.382812 33.691406 30.566406 32.839844 C 30.355469 32.617188 30.15625 32.382812 29.914062 32.199219 C 29.605469 31.957031 29.578125 31.644531 29.605469 31.300781 C 30.214844 31.210938 30.820312 31.117188 31.421875 31.027344 C 31.878906 31.8125 32.464844 32.480469 33.261719 32.921875 C 34.179688 33.433594 35.132812 33.894531 36.078125 34.363281 C 36.175781 34.410156 36.320312 34.371094 36.441406 34.371094 C 35.527344 34.695312 34.613281 35.019531 33.699219 35.34375 "/>
<path style=" stroke:none;fill-rule:nonzero;fill:rgb(100%,100%,100%);fill-opacity:1;" d="M 22.933594 32.15625 C 22.949219 32.917969 23.386719 33.53125 23.757812 34.128906 C 24.308594 35.019531 25.007812 35.820312 25.664062 36.640625 C 25.910156 36.941406 26.175781 37.273438 26.65625 37.164062 C 25.878906 37.449219 25.078125 37.554688 24.257812 37.542969 C 23.03125 35.890625 21.6875 34.300781 21.054688 32.15625 C 21.71875 32.15625 22.328125 32.15625 22.933594 32.15625 "/>
<path style=" stroke:none;fill-rule:nonzero;fill:rgb(100%,100%,100%);fill-opacity:1;" d="M 13.507812 31.214844 C 13.105469 31.492188 13.296875 31.84375 13.402344 32.179688 C 13.890625 33.789062 14.4375 35.378906 15.269531 36.855469 C 15.414062 37.105469 15.4375 37.421875 15.519531 37.710938 C 14.960938 37.644531 14.40625 37.578125 13.847656 37.511719 C 13.835938 37.296875 13.894531 37.039062 13.792969 36.882812 C 13.171875 35.910156 12.878906 34.796875 12.441406 33.75 C 12.035156 32.765625 11.742188 31.71875 11.636719 30.636719 C 12.261719 30.828125 12.882812 31.023438 13.507812 31.214844 "/>
<path style=" stroke:none;fill-rule:nonzero;fill:rgb(100%,100%,100%);fill-opacity:1;" d="M 36.441406 34.371094 C 36.320312 34.371094 36.175781 34.410156 36.078125 34.363281 C 35.132812 33.894531 34.179688 33.433594 33.261719 32.921875 C 32.464844 32.480469 31.878906 31.8125 31.421875 31.027344 C 31.992188 30.90625 32.558594 30.789062 33.128906 30.671875 C 33.117188 31.078125 33.40625 31.238281 33.703125 31.421875 C 34.960938 32.199219 36.191406 33.007812 37.742188 33.121094 C 37.957031 33.136719 38.484375 33.050781 38.503906 33.578125 C 37.816406 33.839844 37.128906 34.105469 36.441406 34.371094 "/>
<path style=" stroke:none;fill-rule:nonzero;fill:rgb(100%,100%,100%);fill-opacity:1;" d="M 10.882812 36.933594 C 10.933594 36.410156 10.773438 35.929688 10.582031 35.453125 C 9.949219 33.871094 9.492188 32.242188 9.207031 30.5625 C 9.179688 30.390625 9.097656 30.226562 9.023438 30.027344 C 9.167969 29.921875 9.308594 29.820312 9.453125 29.714844 C 9.875 29.90625 10.296875 30.097656 10.722656 30.289062 C 10.300781 30.597656 10.5 31.007812 10.582031 31.359375 C 11.027344 33.226562 11.648438 35.039062 12.449219 36.785156 C 12.523438 36.945312 12.519531 37.136719 12.554688 37.3125 C 11.996094 37.183594 11.441406 37.058594 10.882812 36.933594 "/>
<path style=" stroke:none;fill-rule:nonzero;fill:rgb(100%,100%,100%);fill-opacity:1;" d="M 22.558594 30.460938 C 22.410156 30.261719 22.132812 30.1875 22.171875 29.820312 C 22.214844 29.429688 22.367188 28.949219 21.855469 28.691406 C 21.929688 28.03125 21.53125 27.320312 22.097656 26.714844 C 22.167969 26.640625 22.175781 26.492188 22.1875 26.375 C 22.257812 25.679688 22.261719 25.683594 22.851562 24.664062 C 22.921875 24.542969 22.875 24.355469 22.949219 24.234375 C 23.007812 24.132812 23.15625 24.085938 23.269531 24.011719 C 23.59375 24.304688 23.917969 24.601562 24.242188 24.894531 C 24.140625 25.078125 24.058594 25.277344 23.929688 25.441406 C 23.558594 25.921875 23.304688 26.546875 23.300781 27.066406 C 23.300781 27.710938 23.292969 28.355469 23.308594 29.003906 C 23.308594 29.175781 23.332031 29.472656 23.414062 29.5 C 23.832031 29.632812 23.542969 30.074219 23.804688 30.277344 C 24.0625 30.277344 24.335938 30.277344 24.605469 30.277344 C 24.671875 30.289062 24.738281 30.300781 24.804688 30.3125 C 24.070312 30.59375 23.308594 30.457031 22.558594 30.460938 "/>
<path style=" stroke:none;fill-rule:nonzero;fill:rgb(100%,100%,100%);fill-opacity:1;" d="M 12.554688 37.3125 C 12.519531 37.136719 12.523438 36.945312 12.449219 36.785156 C 11.648438 35.039062 11.027344 33.226562 10.582031 31.359375 C 10.5 31.007812 10.300781 30.597656 10.722656 30.289062 C 11.027344 30.40625 11.332031 30.523438 11.636719 30.636719 C 11.742188 31.71875 12.035156 32.765625 12.441406 33.75 C 12.878906 34.796875 13.171875 35.910156 13.792969 36.882812 C 13.894531 37.039062 13.835938 37.296875 13.847656 37.511719 C 13.417969 37.445312 12.984375 37.378906 12.554688 37.3125 "/>
<path style=" stroke:none;fill-rule:nonzero;fill:rgb(100%,100%,100%);fill-opacity:1;" d="M 47.394531 29.101562 C 47.269531 28.433594 47.738281 27.921875 47.871094 27.324219 C 47.964844 26.898438 48.050781 26.46875 48.140625 26.039062 C 49.066406 25.65625 49.988281 25.277344 50.914062 24.898438 C 50.917969 25.265625 51.011719 25.664062 50.898438 25.988281 C 50.773438 26.332031 50.828125 26.605469 50.917969 26.910156 C 49.742188 27.640625 48.570312 28.371094 47.394531 29.101562 "/>
<path style=" stroke:none;fill-rule:nonzero;fill:rgb(100%,100%,100%);fill-opacity:1;" d="M 29.972656 29.703125 C 28.800781 29.875 27.632812 30.042969 26.460938 30.214844 C 26.238281 29.929688 25.984375 29.664062 25.800781 29.359375 C 25.625 29.058594 25.566406 28.679688 25.363281 28.402344 C 25.070312 27.988281 25.101562 27.625 25.324219 27.214844 C 25.535156 26.8125 25.722656 26.394531 25.917969 25.984375 C 26.175781 26.117188 26.429688 26.25 26.683594 26.382812 C 26.0625 26.757812 25.808594 27.285156 25.890625 28.023438 C 25.984375 28.910156 26.644531 29.554688 27.546875 29.558594 C 27.792969 29.5625 28.042969 29.527344 28.28125 29.566406 C 28.886719 29.664062 29.199219 29.304688 29.484375 28.867188 C 29.75 28.464844 29.832031 28.035156 29.785156 27.566406 C 30.03125 27.636719 30.273438 27.710938 30.519531 27.78125 C 30.664062 28.515625 30.339844 29.113281 29.972656 29.703125 "/>
<path style=" stroke:none;fill-rule:nonzero;fill:rgb(100%,100%,100%);fill-opacity:1;" d="M 27.019531 26.523438 C 27.214844 26.609375 27.410156 26.695312 27.613281 26.777344 C 28.089844 26.96875 28.566406 27.15625 29.042969 27.347656 C 29.046875 27.621094 29.078125 27.902344 29.042969 28.171875 C 28.96875 28.777344 28.539062 29.167969 27.980469 29.1875 C 27.242188 29.214844 26.726562 28.910156 26.664062 28.261719 C 26.613281 27.769531 26.429688 27.183594 26.988281 26.789062 C 27.039062 26.753906 27.011719 26.613281 27.019531 26.523438 "/>
<path style=" stroke:none;fill-rule:nonzero;fill:rgb(100%,100%,100%);fill-opacity:1;" d="M 6.078125 24.929688 C 5.429688 24.652344 5.636719 24.089844 5.78125 23.6875 C 5.96875 23.167969 5.683594 22.871094 5.480469 22.503906 C 6.050781 21.777344 6.617188 21.046875 7.183594 20.320312 C 7.367188 20.777344 7.421875 21.242188 7.140625 21.773438 C 7.40625 21.773438 7.550781 21.773438 7.695312 21.773438 C 7.15625 22.824219 6.617188 23.878906 6.078125 24.929688 "/>
<path style=" stroke:none;fill-rule:nonzero;fill:rgb(100%,100%,100%);fill-opacity:1;" d="M 7.695312 21.773438 C 7.550781 21.773438 7.40625 21.773438 7.140625 21.773438 C 7.421875 21.242188 7.367188 20.777344 7.183594 20.320312 C 7.90625 19.496094 8.628906 18.675781 9.359375 17.84375 C 9.671875 18.109375 9.917969 18.324219 10.203125 18.5625 C 9.460938 19.472656 8.765625 20.320312 8.082031 21.171875 C 7.9375 21.359375 7.824219 21.570312 7.695312 21.773438 "/>
<path style=" stroke:none;fill-rule:nonzero;fill:rgb(100%,100%,100%);fill-opacity:1;" d="M 50.917969 26.910156 C 50.828125 26.605469 50.773438 26.332031 50.898438 25.988281 C 51.011719 25.664062 50.917969 25.265625 50.914062 24.898438 C 50.957031 24.855469 50.984375 24.792969 51.035156 24.773438 C 51.652344 24.507812 52.269531 24.242188 52.96875 23.945312 C 53.195312 24.300781 53.417969 24.648438 53.6875 25.066406 C 52.746094 25.691406 51.832031 26.300781 50.917969 26.910156 "/>
<path style=" stroke:none;fill-rule:nonzero;fill:rgb(100%,100%,100%);fill-opacity:1;" d="M 27.019531 26.523438 C 27.011719 26.613281 27.039062 26.753906 26.988281 26.789062 C 26.429688 27.183594 26.613281 27.769531 26.664062 28.261719 C 26.726562 28.910156 27.242188 29.214844 27.980469 29.1875 C 28.539062 29.167969 28.96875 28.777344 29.042969 28.171875 C 29.078125 27.902344 29.046875 27.621094 29.042969 27.347656 C 29.292969 27.421875 29.539062 27.492188 29.785156 27.566406 C 29.832031 28.035156 29.75 28.464844 29.484375 28.867188 C 29.199219 29.304688 28.886719 29.664062 28.28125 29.566406 C 28.042969 29.527344 27.792969 29.5625 27.546875 29.558594 C 26.644531 29.554688 25.984375 28.910156 25.890625 28.023438 C 25.808594 27.285156 26.0625 26.757812 26.683594 26.382812 C 26.796875 26.429688 26.90625 26.476562 27.019531 26.523438 "/>
<path style=" stroke:none;fill-rule:nonzero;fill:rgb(100%,100%,100%);fill-opacity:1;" d="M 24.605469 30.277344 C 24.335938 30.277344 24.0625 30.277344 23.804688 30.277344 C 23.542969 30.074219 23.832031 29.632812 23.414062 29.5 C 23.332031 29.472656 23.308594 29.175781 23.308594 29.003906 C 23.292969 28.355469 23.300781 27.710938 23.300781 27.066406 C 23.304688 26.546875 23.558594 25.921875 23.929688 25.441406 C 24.058594 25.277344 24.140625 25.078125 24.242188 24.894531 C 24.503906 25.082031 24.761719 25.269531 25.023438 25.457031 C 24.84375 25.476562 24.667969 25.5 24.480469 25.523438 C 24.429688 25.75 24.445312 26.0625 24.324219 26.132812 C 23.960938 26.335938 24.050781 26.640625 24.046875 26.929688 C 24.039062 27.300781 24.054688 27.671875 24.042969 28.042969 C 24.019531 28.71875 23.984375 29.390625 24.503906 29.9375 C 24.578125 30.015625 24.574219 30.160156 24.605469 30.277344 "/>
<path style=" stroke:none;fill-rule:nonzero;fill:rgb(100%,100%,100%);fill-opacity:1;" d="M 24.605469 30.277344 C 24.574219 30.160156 24.578125 30.015625 24.503906 29.9375 C 23.984375 29.390625 24.019531 28.71875 24.042969 28.042969 C 24.054688 27.671875 24.039062 27.300781 24.046875 26.929688 C 24.050781 26.640625 23.960938 26.335938 24.324219 26.132812 C 24.445312 26.0625 24.429688 25.75 24.480469 25.523438 C 24.667969 25.5 24.84375 25.476562 25.023438 25.457031 C 25.25 25.589844 25.476562 25.722656 25.707031 25.855469 C 25.554688 25.867188 25.324219 25.824219 25.273438 25.902344 C 25.078125 26.199219 24.816406 26.53125 24.8125 26.855469 C 24.796875 27.945312 24.507812 29.121094 25.484375 30.011719 C 25.535156 30.058594 25.515625 30.183594 25.53125 30.273438 C 25.289062 30.285156 25.046875 30.300781 24.804688 30.3125 C 24.738281 30.300781 24.671875 30.289062 24.605469 30.277344 "/>
<path style=" stroke:none;fill-rule:nonzero;fill:rgb(100%,100%,100%);fill-opacity:1;" d="M 25.53125 30.273438 C 25.515625 30.183594 25.535156 30.058594 25.484375 30.011719 C 24.507812 29.121094 24.796875 27.945312 24.8125 26.855469 C 24.816406 26.53125 25.078125 26.199219 25.273438 25.902344 C 25.324219 25.824219 25.554688 25.867188 25.707031 25.855469 C 25.777344 25.898438 25.847656 25.941406 25.917969 25.984375 C 25.722656 26.394531 25.535156 26.8125 25.324219 27.214844 C 25.101562 27.625 25.070312 27.988281 25.363281 28.402344 C 25.566406 28.679688 25.625 29.058594 25.800781 29.359375 C 25.984375 29.664062 26.238281 29.929688 26.460938 30.214844 C 26.148438 30.234375 25.839844 30.253906 25.53125 30.273438 "/>
<path style=" stroke:none;fill-rule:nonzero;fill:rgb(100%,100%,100%);fill-opacity:1;" d="M 29.972656 29.703125 C 30.339844 29.113281 30.664062 28.515625 30.519531 27.78125 C 30.894531 27.890625 31.269531 27.996094 31.644531 28.105469 C 31.640625 28.519531 31.640625 28.933594 31.640625 29.347656 C 31.085938 29.46875 30.53125 29.585938 29.972656 29.703125 "/>
<path style=" stroke:none;fill-rule:nonzero;fill:rgb(100%,100%,100%);fill-opacity:1;" d="M 7.859375 28.816406 C 7.816406 28.773438 7.777344 28.726562 7.734375 28.683594 C 7.777344 28.726562 7.816406 28.773438 7.859375 28.816406 "/>
<path style=" stroke:none;fill-rule:nonzero;fill:rgb(100%,100%,100%);fill-opacity:1;" d="M 44.988281 27.191406 C 44.933594 27.207031 44.878906 27.226562 44.820312 27.246094 C 44.878906 27.226562 44.933594 27.207031 44.988281 27.191406 "/>
</g>
</svg>
