<?xml version="1.0" encoding="UTF-8"?>
<svg xmlns="http://www.w3.org/2000/svg" xmlns:xlink="http://www.w3.org/1999/xlink" width="56pt" height="56pt" viewBox="0 0 56 56" version="1.1">
<g id="surface1">
<rect x="0" y="0" width="56" height="56" style="fill:rgb(90.99884%,12.109375%,15.718079%);fill-opacity:1;stroke:none;"/>
<path style=" stroke:none;fill-rule:nonzero;fill:rgb(100%,100%,100%);fill-opacity:1;" d="M 28.800781 37.367188 C 28.800781 35.929688 29.542969 35.667969 30.914062 36.433594 C 33.433594 37.84375 36.0625 39.300781 36.0625 39.300781 C 36.152344 38.496094 36.847656 37.8125 38.355469 38.164062 C 39.769531 38.496094 41.34375 38.84375 41.34375 38.84375 C 41.34375 38.84375 40.492188 36.929688 40.113281 36.089844 C 39.421875 34.550781 40.089844 33.808594 40.761719 33.59375 C 40.761719 33.59375 39.796875 32.9375 39.164062 32.496094 C 37.800781 31.550781 38.125 30.632812 39.445312 30.058594 C 41.25 29.289062 43.480469 28.285156 43.480469 28.285156 C 42.777344 27.867188 41.9375 26.699219 42.875 25.335938 C 43.800781 23.992188 45.179688 22.113281 45.179688 22.113281 C 45.179688 22.113281 42.738281 22.136719 41.109375 22.113281 C 39.632812 22.09375 39.269531 20.925781 39.289062 20.082031 C 39.289062 20.082031 36.882812 21.78125 35.164062 22.945312 C 33.710938 23.921875 32.402344 22.972656 32.613281 21.292969 C 32.960938 18.667969 33.269531 15.765625 33.269531 15.765625 C 32.375 16.378906 30.851562 16.347656 30.171875 14.894531 C 29.167969 12.726562 28.007812 10.191406 28.007812 10.191406 C 28.007812 10.191406 26.855469 12.726562 25.851562 14.894531 C 25.175781 16.347656 23.636719 16.378906 22.746094 15.765625 C 22.746094 15.765625 23.058594 18.667969 23.398438 21.292969 C 23.617188 22.972656 22.300781 23.921875 20.859375 22.945312 C 19.136719 21.78125 16.730469 20.082031 16.730469 20.082031 C 16.742188 20.925781 16.386719 22.09375 14.90625 22.113281 C 13.28125 22.136719 10.839844 22.113281 10.839844 22.113281 C 10.839844 22.113281 12.222656 23.992188 13.144531 25.335938 C 14.082031 26.699219 13.234375 27.867188 12.539062 28.285156 C 12.539062 28.285156 14.773438 29.289062 16.566406 30.058594 C 17.898438 30.632812 18.214844 31.550781 16.851562 32.496094 C 16.214844 32.9375 15.253906 33.59375 15.253906 33.59375 C 15.929688 33.808594 16.59375 34.550781 15.898438 36.089844 C 15.519531 36.929688 14.675781 38.84375 14.675781 38.84375 C 14.675781 38.84375 16.246094 38.496094 17.660156 38.164062 C 19.175781 37.8125 19.871094 38.496094 19.960938 39.300781 C 19.960938 39.300781 22.582031 37.84375 25.105469 36.433594 C 26.476562 35.667969 27.207031 35.929688 27.214844 37.367188 L 27.214844 40.894531 C 27.214844 42.925781 26.859375 45.160156 26.082031 46.347656 C 16.402344 45.289062 8.398438 37.554688 8.378906 27.339844 C 8.367188 16.824219 17.171875 8.300781 28.003906 8.300781 C 38.828125 8.300781 47.617188 16.824219 47.617188 27.339844 C 47.617188 37.167969 39.972656 45.203125 30.1875 46.257812 L 30.1875 48.835938 C 41.6875 47.789062 50.679688 38.5625 50.679688 27.339844 C 50.679688 15.414062 40.527344 5.742188 28.003906 5.742188 C 15.472656 5.742188 5.320312 15.414062 5.320312 27.339844 C 5.320312 37.835938 13.1875 46.570312 23.617188 48.523438 C 25.378906 48.855469 26.5 49.117188 27.425781 50.257812 C 28.539062 48.21875 28.800781 43.902344 28.800781 41.464844 C 28.800781 41.464844 28.800781 38.488281 28.800781 37.367188 "/>
</g>
</svg>
