<?xml version="1.0" encoding="UTF-8"?>
<svg xmlns="http://www.w3.org/2000/svg" xmlns:xlink="http://www.w3.org/1999/xlink" width="39.36pt" height="39.37pt" viewBox="0 0 39.36 39.37" version="1.1">
<defs>
<clipPath id="clip1">
  <path d="M 17 33 L 24 33 L 24 39.371094 L 17 39.371094 Z M 17 33 "/>
</clipPath>
<clipPath id="clip2">
  <path d="M 33 13 L 39.359375 13 L 39.359375 16 L 33 16 Z M 33 13 "/>
</clipPath>
<clipPath id="clip3">
  <path d="M 35 11 L 39.359375 11 L 39.359375 14 L 35 14 Z M 35 11 "/>
</clipPath>
<clipPath id="clip4">
  <path d="M 36 9 L 39.359375 9 L 39.359375 12 L 36 12 Z M 36 9 "/>
</clipPath>
</defs>
<g id="surface1">
<path style=" stroke:none;fill-rule:nonzero;fill:rgb(56.92749%,9.806824%,50.262451%);fill-opacity:1;" d="M 22.589844 26.019531 L 27.652344 26.019531 L 27.652344 29.140625 L 29.445312 29.140625 L 29.445312 30.4375 L 22.589844 30.4375 L 22.589844 26.019531 "/>
<path style=" stroke:none;fill-rule:nonzero;fill:rgb(77.253723%,10.090637%,58.346558%);fill-opacity:1;" d="M 15.625 23.253906 L 22.808594 23.253906 L 22.808594 28.984375 L 19.921875 28.984375 L 19.921875 30.4375 L 15.625 30.4375 L 15.625 23.253906 "/>
<path style=" stroke:none;fill-rule:nonzero;fill:rgb(56.863403%,67.791748%,81.018066%);fill-opacity:1;" d="M 25.074219 35.152344 L 23.277344 35.152344 L 23.277344 33.515625 L 20.625 33.515625 L 20.625 32.34375 L 25.074219 32.34375 L 25.074219 35.152344 "/>
<path style=" stroke:none;fill-rule:nonzero;fill:rgb(42.053223%,79.58374%,69.773865%);fill-opacity:1;" d="M 26.324219 32.34375 L 19.921875 32.34375 L 19.921875 28.984375 L 22.808594 28.984375 L 22.808594 30.4375 L 26.324219 30.4375 L 26.324219 32.34375 "/>
<g clip-path="url(#clip1)" clip-rule="nonzero">
<path style=" stroke:none;fill-rule:nonzero;fill:rgb(94.056702%,24.255371%,11.885071%);fill-opacity:1;" d="M 23.277344 33.515625 L 23.277344 39.371094 L 17.421875 39.371094 L 17.421875 33.515625 L 23.277344 33.515625 "/>
</g>
<path style=" stroke:none;fill-rule:nonzero;fill:rgb(96.916199%,61.218262%,5.722046%);fill-opacity:1;" d="M 26.402344 20.476562 L 32.960938 20.476562 L 32.960938 28.59375 L 27.648438 28.59375 L 27.648438 26.019531 L 22.808594 26.019531 L 22.808594 24.847656 L 26.402344 24.847656 L 26.402344 20.476562 "/>
<path style=" stroke:none;fill-rule:nonzero;fill:rgb(56.92749%,9.806824%,50.262451%);fill-opacity:1;" d="M 29.445312 29.140625 L 27.648438 29.140625 L 27.648438 26.019531 L 22.808594 26.019531 L 22.808594 30.4375 L 29.445312 30.4375 L 29.445312 29.140625 "/>
<path style=" stroke:none;fill-rule:nonzero;fill:rgb(92.980957%,11.471558%,14.03656%);fill-opacity:1;" d="M 29.445312 30.4375 L 26.324219 30.4375 L 26.324219 30.851562 L 29.445312 30.851562 Z M 29.445312 28.59375 L 27.652344 28.59375 L 27.652344 29.140625 L 29.445312 29.140625 L 29.445312 28.59375 "/>
<path style=" stroke:none;fill-rule:nonzero;fill:rgb(56.863403%,67.791748%,81.018066%);fill-opacity:1;" d="M 29.445312 29.570312 L 29.445312 28.59375 L 32.960938 28.59375 L 32.960938 29.570312 L 29.445312 29.570312 "/>
<path style=" stroke:none;fill-rule:nonzero;fill:rgb(77.774048%,84.507751%,85.757446%);fill-opacity:1;" d="M 32.960938 23.792969 L 32.960938 27.621094 L 34.222656 27.621094 L 34.222656 23.792969 L 32.960938 23.792969 "/>
<path style=" stroke:none;fill-rule:nonzero;fill:rgb(21.353149%,49.404907%,74.395752%);fill-opacity:1;" d="M 27.675781 15.199219 L 27.679688 20.476562 L 32.960938 20.476562 L 32.960938 23.792969 L 34.222656 23.792969 L 34.222656 24.628906 L 35.308594 24.628906 L 35.308594 18.480469 L 34.851562 18.480469 L 34.851562 16.898438 L 35.308594 16.898438 L 35.308594 15.199219 L 27.675781 15.199219 "/>
<path style=" stroke:none;fill-rule:nonzero;fill:rgb(14.830017%,28.062439%,62.571716%);fill-opacity:1;" d="M 22.808594 18.917969 L 22.808594 24.847656 L 26.402344 24.847656 L 26.402344 20.476562 L 27.679688 20.476562 L 27.679688 18.917969 L 22.808594 18.917969 "/>
<path style=" stroke:none;fill-rule:nonzero;fill:rgb(80.885315%,93.122864%,84.255981%);fill-opacity:1;" d="M 22.808594 14.046875 L 14.273438 14.046875 L 14.273438 18.933594 L 13.832031 18.933594 L 13.832031 23.253906 L 22.808594 23.253906 L 22.808594 14.046875 "/>
<path style=" stroke:none;fill-rule:nonzero;fill:rgb(22.644043%,45.231628%,47.216797%);fill-opacity:1;" d="M 14.273438 18.933594 L 8.289062 18.933594 L 8.289062 16.539062 L 8.644531 16.539062 L 8.644531 14.046875 L 14.273438 14.046875 L 14.273438 18.933594 "/>
<path style=" stroke:none;fill-rule:nonzero;fill:rgb(97.65625%,67.056274%,4.684448%);fill-opacity:1;" d="M 0 16.539062 L 0 13.371094 L 8.644531 13.371094 L 8.644531 16.539062 L 0 16.539062 "/>
<path style=" stroke:none;fill-rule:nonzero;fill:rgb(38.432312%,76.928711%,85.305786%);fill-opacity:1;" d="M 3.019531 3.554688 L 16.308594 3.554688 L 16.308594 14.046875 L 8.644531 14.046875 L 8.644531 13.371094 L 3.019531 13.371094 L 3.019531 3.554688 "/>
<path style=" stroke:none;fill-rule:nonzero;fill:rgb(29.545593%,29.089355%,65.089417%);fill-opacity:1;" d="M 22.808594 10.347656 L 26.582031 10.347656 L 26.582031 5.742188 L 20.449219 5.742188 L 20.449219 2.871094 L 14.316406 2.871094 L 14.316406 3.554688 L 16.308594 3.554688 L 16.308594 14.046875 L 22.808594 14.046875 L 22.808594 10.347656 "/>
<path style=" stroke:none;fill-rule:nonzero;fill:rgb(28.529358%,69.572449%,22.428894%);fill-opacity:1;" d="M 9.6875 0 L 9.6875 5.695312 L 14.316406 5.695312 L 14.316406 0 L 9.6875 0 "/>
<path style=" stroke:none;fill-rule:nonzero;fill:rgb(76.539612%,89.13269%,31.932068%);fill-opacity:1;" d="M 23.828125 0.242188 L 23.828125 5.742188 L 20.449219 5.742188 L 20.449219 0.242188 L 23.828125 0.242188 "/>
<path style=" stroke:none;fill-rule:nonzero;fill:rgb(69.458008%,88.369751%,61.567688%);fill-opacity:1;" d="M 22.808594 18.917969 L 27.679688 18.917969 L 27.679688 13.046875 L 26.582031 13.046875 L 26.582031 10.347656 L 22.808594 10.347656 L 22.808594 18.917969 "/>
<path style=" stroke:none;fill-rule:nonzero;fill:rgb(56.274414%,84.805298%,74.008179%);fill-opacity:1;" d="M 31.304688 5.742188 L 31.304688 13.046875 L 26.582031 13.046875 L 26.582031 5.742188 L 31.304688 5.742188 "/>
<path style=" stroke:none;fill-rule:nonzero;fill:rgb(29.545593%,29.089355%,65.089417%);fill-opacity:1;" d="M 26.582031 3.410156 L 26.582031 5.132812 L 24.542969 5.132812 L 24.542969 3.410156 L 26.582031 3.410156 "/>
<path style=" stroke:none;fill-rule:nonzero;fill:rgb(92.868042%,8.984375%,21.5271%);fill-opacity:1;" d="M 34.851562 18.480469 L 34.851562 16.898438 L 37.609375 16.898438 L 37.609375 18.480469 L 34.851562 18.480469 "/>
<path style=" stroke:none;fill-rule:nonzero;fill:rgb(56.787109%,83.654785%,47.08252%);fill-opacity:1;" d="M 38.722656 16.898438 L 38.722656 14.675781 L 35.308594 14.675781 L 35.308594 16.898438 L 38.722656 16.898438 "/>
<g clip-path="url(#clip2)" clip-rule="nonzero">
<path style=" stroke:none;fill-rule:nonzero;fill:rgb(56.996155%,78.385925%,83.836365%);fill-opacity:1;" d="M 39.359375 13.800781 L 35.527344 13.800781 L 35.527344 13.058594 L 33.167969 13.058594 L 33.167969 15.199219 L 35.308594 15.199219 L 35.308594 14.675781 L 38.722656 14.675781 L 38.722656 15.199219 L 39.359375 15.199219 L 39.359375 13.800781 "/>
</g>
<g clip-path="url(#clip3)" clip-rule="nonzero">
<path style=" stroke:none;fill-rule:nonzero;fill:rgb(97.666931%,84.933472%,2.062988%);fill-opacity:1;" d="M 35.527344 13.800781 L 35.527344 11.746094 L 39.359375 11.746094 L 39.359375 13.800781 L 35.527344 13.800781 "/>
</g>
<path style=" stroke:none;fill-rule:nonzero;fill:rgb(94.029236%,93.411255%,7.601929%);fill-opacity:1;" d="M 33.167969 13.058594 L 34.011719 13.058594 L 34.011719 7.101562 L 31.304688 7.101562 L 31.304688 13.046875 L 27.679688 13.046875 L 27.679688 15.199219 L 33.167969 15.199219 L 33.167969 13.058594 "/>
<path style=" stroke:none;fill-rule:nonzero;fill:rgb(93.777466%,16.722107%,59.133911%);fill-opacity:1;" d="M 35.527344 13.058594 L 34.011719 13.058594 L 34.011719 8.214844 L 37.039062 8.214844 L 37.039062 9.695312 L 36.367188 9.695312 L 36.367188 11.746094 L 35.527344 11.746094 L 35.527344 13.058594 "/>
<g clip-path="url(#clip4)" clip-rule="nonzero">
<path style=" stroke:none;fill-rule:nonzero;fill:rgb(41.110229%,12.937927%,47.70813%);fill-opacity:1;" d="M 39.058594 9.695312 L 39.058594 11.746094 L 36.367188 11.746094 L 36.367188 9.695312 L 39.058594 9.695312 "/>
</g>
</g>
</svg>
