<?xml version="1.0" encoding="UTF-8"?>
<svg xmlns="http://www.w3.org/2000/svg" xmlns:xlink="http://www.w3.org/1999/xlink" width="56pt" height="56pt" viewBox="0 0 56 56" version="1.1">
<g id="surface1">
<rect x="0" y="0" width="56" height="56" style="fill:rgb(85.148621%,11.749268%,14.660645%);fill-opacity:1;stroke:none;"/>
<path style=" stroke:none;fill-rule:nonzero;fill:rgb(100%,100%,100%);fill-opacity:1;" d="M 24.042969 43.804688 L 24.921875 43.59375 C 28.140625 43.097656 30.28125 40.9375 30.28125 40.9375 C 31.496094 40.027344 35.714844 35.628906 35.714844 35.628906 C 42.566406 27.882812 49.566406 29.269531 49.566406 29.269531 C 49.566406 29.269531 46.996094 46.074219 24.042969 43.804688 Z M 8.0625 22.136719 C 8.0625 22.136719 10.222656 17.597656 17.277344 14.351562 C 17.277344 14.351562 21.300781 16.21875 24.203125 19.484375 C 24.203125 19.484375 30.078125 25.765625 31.207031 26.339844 C 31.207031 26.339844 28.847656 28.054688 18.980469 18.6875 C 18.980469 18.6875 12.925781 23.003906 12.636719 27.617188 L 49.484375 27.617188 L 49.523438 28.382812 L 12.5625 28.382812 C 12.5625 28.382812 12.855469 32.078125 18.476562 37.320312 C 18.476562 37.320312 26.707031 30.160156 31.242188 29.476562 L 31.496094 29.488281 C 31.496094 29.488281 28.484375 32.058594 26.492188 34.320312 C 26.492188 34.320312 20.90625 40.144531 16.84375 41.542969 C 16.84375 41.542969 1.863281 35.160156 8.0625 22.136719 Z M 49.457031 26.9375 C 49.457031 26.9375 42.460938 28.359375 35.601562 20.4375 C 35.601562 20.4375 31.390625 15.941406 30.171875 15.015625 C 30.171875 15.015625 28.03125 12.804688 24.8125 12.296875 L 23.933594 12.085938 C 46.886719 9.765625 49.457031 26.9375 49.457031 26.9375 Z M 28 10.703125 C 15.472656 10.703125 5.320312 18.449219 5.320312 28 C 5.320312 37.550781 15.472656 45.296875 28 45.296875 C 40.523438 45.296875 50.679688 37.550781 50.679688 28 C 50.679688 18.449219 40.523438 10.703125 28 10.703125 "/>
</g>
</svg>
