<?xml version="1.0" encoding="UTF-8"?>
<svg xmlns="http://www.w3.org/2000/svg" xmlns:xlink="http://www.w3.org/1999/xlink" width="56pt" height="56pt" viewBox="0 0 56 56" version="1.1">
<g id="surface1">
<rect x="0" y="0" width="56" height="56" style="fill:rgb(95.66803%,95.779419%,96.777344%);fill-opacity:1;stroke:none;"/>
<rect x="0" y="0" width="56" height="56" style="fill:rgb(95.66803%,95.779419%,96.777344%);fill-opacity:1;stroke:none;"/>
<path style=" stroke:none;fill-rule:nonzero;fill:rgb(33.152771%,71.058655%,21.075439%);fill-opacity:1;" d="M 32.894531 24.890625 C 31.140625 24.71875 29.378906 24.605469 27.632812 24.363281 C 23.171875 23.734375 18.769531 22.792969 14.46875 21.4375 C 12.125 20.703125 9.824219 19.851562 7.625 18.75 C 7.480469 18.675781 7.339844 18.59375 7.230469 18.445312 C 7.332031 18.480469 7.4375 18.511719 7.539062 18.550781 C 11.363281 20.199219 15.371094 21.148438 19.472656 21.765625 C 23.726562 22.40625 28 22.585938 32.289062 22.441406 C 34.335938 22.367188 36.394531 22.257812 38.34375 21.53125 C 38.980469 21.289062 39.582031 20.941406 40.199219 20.644531 C 41.277344 19.992188 42.089844 19.125 42.289062 17.839844 C 42.519531 16.402344 41.996094 15.179688 41.09375 14.089844 C 39.535156 12.398438 37.578125 11.300781 35.511719 10.378906 C 32.074219 8.839844 28.472656 7.835938 24.800781 7.050781 C 21.269531 6.296875 17.691406 5.808594 14.101562 5.441406 C 13.851562 5.414062 13.601562 5.410156 13.351562 5.320312 C 13.539062 5.320312 13.730469 5.316406 13.917969 5.320312 C 19.835938 5.484375 25.722656 5.964844 31.53125 7.140625 C 35.722656 7.988281 39.824219 9.152344 43.714844 10.960938 C 45.839844 11.953125 47.859375 13.125 49.476562 14.863281 C 49.921875 15.339844 50.347656 15.855469 50.65625 16.421875 C 51.617188 18.171875 51.257812 20.070312 49.765625 21.398438 C 49.539062 21.597656 49.292969 21.773438 49.054688 21.960938 C 47.457031 23.148438 45.640625 23.832031 43.699219 24.15625 C 41.929688 24.449219 40.148438 24.65625 38.367188 24.867188 C 37.671875 24.949219 36.964844 24.964844 36.261719 24.964844 C 35.136719 24.960938 34.015625 24.917969 32.894531 24.890625 "/>
<path style=" stroke:none;fill-rule:nonzero;fill:rgb(33.152771%,71.058655%,21.075439%);fill-opacity:1;" d="M 42.613281 27.40625 C 42.601562 32.070312 41.691406 36.546875 39.878906 40.84375 C 38.875 43.222656 37.597656 45.449219 36.054688 47.519531 C 35.933594 47.679688 35.820312 47.84375 35.703125 48.011719 C 35.6875 48.035156 35.691406 48.074219 35.675781 48.15625 C 37.871094 48.625 40.171875 48.824219 42.019531 50.308594 C 42.113281 50.386719 42.175781 50.507812 42.304688 50.679688 C 34.777344 50.679688 27.335938 50.679688 19.898438 50.679688 C 19.878906 50.648438 19.859375 50.613281 19.839844 50.582031 C 20.082031 50.371094 20.3125 50.136719 20.578125 49.953125 C 21.949219 48.992188 23.515625 48.570312 25.152344 48.382812 C 25.683594 48.320312 26.222656 48.324219 26.757812 48.261719 C 26.957031 48.242188 27.160156 48.136719 27.328125 48.019531 C 27.507812 47.898438 27.671875 47.742188 27.800781 47.570312 C 28.269531 46.945312 28.917969 46.792969 29.652344 46.757812 C 30.507812 46.71875 31.355469 46.625 32.21875 46.472656 C 31.496094 46.351562 30.777344 46.230469 29.9375 46.089844 C 30.164062 45.839844 30.347656 45.664062 30.5 45.460938 C 31.039062 44.730469 31.765625 44.4375 32.660156 44.417969 C 33.289062 44.40625 33.914062 44.277344 34.546875 44.109375 C 33.859375 44.011719 33.175781 43.914062 32.484375 43.816406 C 32.714844 43.125 33.574219 42.464844 34.25 42.417969 C 34.863281 42.378906 35.472656 42.320312 36.082031 42.269531 C 36.085938 42.234375 36.085938 42.199219 36.085938 42.164062 C 35.4375 42.074219 34.785156 41.980469 34.046875 41.875 C 34.46875 41.339844 34.773438 40.824219 35.507812 40.792969 C 36.046875 40.769531 36.585938 40.640625 37.121094 40.558594 C 37.125 40.523438 37.125 40.488281 37.125 40.453125 C 36.613281 40.34375 36.101562 40.234375 35.496094 40.109375 C 35.777344 39.683594 35.980469 39.320312 36.238281 39 C 36.339844 38.882812 36.566406 38.84375 36.738281 38.820312 C 37.1875 38.757812 37.640625 38.722656 38.105469 38.585938 C 37.679688 38.484375 37.257812 38.382812 36.757812 38.265625 C 36.863281 38.054688 36.949219 37.882812 37.039062 37.714844 C 38.5 34.988281 39.617188 32.140625 40.121094 29.070312 C 40.191406 28.660156 40.203125 28.238281 40.238281 27.824219 C 41.03125 27.683594 41.824219 27.546875 42.613281 27.40625 "/>
<path style=" stroke:none;fill-rule:nonzero;fill:rgb(27.000427%,62.321472%,86.080933%);fill-opacity:1;" d="M 42.613281 27.40625 C 41.824219 27.546875 41.03125 27.683594 40.238281 27.824219 C 39.089844 27.953125 37.945312 28.152344 36.789062 28.191406 C 34.359375 28.277344 31.917969 28.382812 29.488281 28.289062 C 23.585938 28.054688 17.804688 27.125 12.289062 24.859375 C 9.929688 23.890625 7.542969 22.984375 5.335938 21.679688 C 5.152344 21.570312 4.96875 21.457031 4.808594 21.273438 C 9.679688 23.351562 14.71875 24.796875 19.964844 25.46875 C 25.214844 26.140625 30.457031 26.214844 35.660156 25.140625 C 35.660156 25.085938 35.660156 25.03125 35.660156 24.976562 C 35.222656 24.976562 34.78125 24.984375 34.34375 24.972656 C 33.859375 24.957031 33.375 24.917969 32.894531 24.890625 C 34.015625 24.917969 35.136719 24.960938 36.261719 24.964844 C 36.964844 24.964844 37.671875 24.949219 38.367188 24.867188 C 40.148438 24.65625 41.929688 24.449219 43.699219 24.15625 C 45.640625 23.832031 47.457031 23.148438 49.054688 21.960938 C 49.066406 23.277344 48.535156 24.28125 47.46875 25.085938 C 45.996094 26.191406 44.386719 26.953125 42.613281 27.40625 "/>
<path style=" stroke:none;fill-rule:nonzero;fill:rgb(27.000427%,62.321472%,86.080933%);fill-opacity:1;" d="M 41.09375 14.089844 C 41.996094 15.179688 42.519531 16.402344 42.289062 17.839844 C 42.089844 19.125 41.277344 19.992188 40.199219 20.644531 C 40.1875 18.832031 39.183594 17.558594 37.898438 16.460938 C 36.085938 14.910156 33.972656 13.882812 31.785156 12.996094 C 27.46875 11.246094 22.976562 10.140625 18.394531 9.363281 C 16.148438 8.984375 13.886719 8.691406 11.628906 8.332031 C 12.628906 8.378906 13.632812 8.398438 14.628906 8.472656 C 16.503906 8.613281 18.378906 8.753906 20.246094 8.957031 C 26.394531 9.621094 32.433594 10.769531 38.226562 13 C 39.042969 13.316406 39.832031 13.691406 40.640625 14.023438 C 40.777344 14.078125 40.941406 14.070312 41.09375 14.089844 "/>
</g>
</svg>
