<?xml version="1.0" encoding="UTF-8"?>
<svg xmlns="http://www.w3.org/2000/svg" xmlns:xlink="http://www.w3.org/1999/xlink" width="56pt" height="56pt" viewBox="0 0 56 56" version="1.1">
<g id="surface1">
<rect x="0" y="0" width="56" height="56" style="fill:rgb(95.66803%,95.779419%,96.777344%);fill-opacity:1;stroke:none;"/>
<path style=" stroke:none;fill-rule:nonzero;fill:rgb(84.669495%,11.772156%,14.668274%);fill-opacity:1;" d="M 4.28125 16.75 C 5.648438 17.863281 7.082031 18.875 8.699219 19.59375 C 10.308594 20.304688 11.96875 20.851562 13.734375 20.988281 C 14.679688 21.066406 15.625 21.144531 16.574219 21.160156 C 18.84375 21.195312 21.0625 20.800781 23.25 20.230469 C 24.648438 19.863281 26.03125 19.453125 27.417969 19.050781 C 29.023438 18.582031 30.660156 18.3125 32.316406 18.089844 C 33.953125 17.867188 35.589844 17.765625 37.238281 17.785156 C 38.96875 17.804688 40.679688 18.003906 42.394531 18.234375 C 45.132812 18.605469 47.78125 19.324219 50.398438 20.167969 C 51.609375 20.554688 52.78125 21.054688 53.949219 21.628906 C 53.679688 21.628906 53.414062 21.632812 53.144531 21.628906 C 51.242188 21.621094 49.339844 21.601562 47.433594 21.613281 C 45.316406 21.625 43.210938 21.835938 41.101562 22.078125 C 38.941406 22.328125 36.824219 22.761719 34.71875 23.296875 C 33.914062 23.503906 33.121094 23.765625 32.324219 24 C 32.046875 24.101562 31.773438 24.207031 31.496094 24.3125 C 31.171875 24.367188 30.847656 24.425781 30.523438 24.476562 C 29.601562 24.625 28.667969 24.726562 27.761719 24.925781 C 26.503906 25.203125 25.246094 25.480469 24.027344 25.882812 C 21.890625 26.585938 19.710938 26.769531 17.488281 26.660156 C 16.914062 26.632812 16.332031 26.570312 15.769531 26.445312 C 13.839844 26.003906 12.078125 25.179688 10.5 23.972656 C 10.386719 23.859375 10.273438 23.75 10.15625 23.636719 C 10.0625 23.410156 9.902344 23.285156 9.644531 23.3125 C 9.601562 23.285156 9.554688 23.257812 9.511719 23.230469 C 9.554688 23.257812 9.601562 23.285156 9.644531 23.3125 C 9.757812 23.480469 9.867188 23.652344 9.976562 23.820312 C 10.09375 23.984375 10.207031 24.148438 10.324219 24.308594 C 11.230469 25.703125 11.925781 27.199219 12.507812 28.757812 C 12.914062 29.847656 13.144531 30.984375 13.292969 32.117188 C 13.433594 33.21875 13.320312 34.347656 13.3125 35.464844 C 13.3125 35.539062 13.234375 35.609375 13.195312 35.683594 C 11.304688 37.324219 9.414062 38.964844 7.523438 40.597656 C 7.292969 40.796875 7.039062 40.96875 6.796875 41.15625 L 6.78125 41.109375 L 6.734375 41.109375 C 7.019531 40.386719 7.304688 39.664062 7.582031 38.941406 C 8.21875 37.277344 8.613281 35.554688 8.851562 33.789062 C 9.03125 32.421875 9.050781 31.058594 8.945312 29.699219 C 8.804688 27.875 8.417969 26.089844 7.828125 24.34375 C 6.933594 21.695312 5.640625 19.25 4.113281 16.921875 C 4.082031 16.875 4.070312 16.816406 4.050781 16.765625 C 4.128906 16.761719 4.207031 16.753906 4.28125 16.75 "/>
<path style=" stroke:none;fill-rule:nonzero;fill:rgb(11.279297%,23.532104%,18.605042%);fill-opacity:1;" d="M 10.5 23.972656 C 12.078125 25.179688 13.839844 26.003906 15.769531 26.445312 C 16.332031 26.570312 16.914062 26.632812 17.488281 26.660156 C 19.710938 26.769531 21.890625 26.585938 24.027344 25.882812 C 25.246094 25.480469 26.503906 25.203125 27.761719 24.925781 C 28.667969 24.726562 29.601562 24.625 30.523438 24.476562 C 30.847656 24.425781 31.171875 24.367188 31.496094 24.3125 C 31.777344 24.300781 32.058594 24.289062 32.339844 24.277344 C 33.09375 24.289062 33.847656 24.296875 34.601562 24.3125 C 36.703125 24.347656 38.757812 24.710938 40.765625 25.296875 C 42.417969 25.78125 44.046875 26.339844 45.664062 27 C 45.347656 27 45.027344 27 44.710938 27 C 42.976562 27.007812 41.238281 26.941406 39.507812 27.03125 C 34.421875 27.296875 29.546875 28.414062 25.039062 30.878906 C 22.757812 32.125 20.617188 33.59375 18.617188 35.246094 C 16.421875 37.058594 14.269531 38.925781 12.097656 40.765625 C 12.015625 40.835938 11.917969 40.886719 11.828125 40.945312 L 11.84375 40.964844 C 11.921875 40.648438 11.964844 40.316406 12.089844 40.023438 C 12.59375 38.867188 12.914062 37.664062 13.15625 36.433594 C 13.207031 36.191406 13.183594 35.933594 13.195312 35.683594 C 13.234375 35.609375 13.3125 35.539062 13.3125 35.464844 C 13.320312 34.347656 13.433594 33.21875 13.292969 32.117188 C 13.144531 30.984375 12.914062 29.847656 12.507812 28.757812 C 11.925781 27.199219 11.230469 25.703125 10.324219 24.308594 C 10.382812 24.199219 10.441406 24.085938 10.5 23.972656 "/>
<path style=" stroke:none;fill-rule:nonzero;fill:rgb(11.279297%,23.532104%,18.605042%);fill-opacity:1;" d="M 11.828125 40.945312 C 11.796875 40.984375 11.773438 41.027344 11.804688 40.976562 C 11.761719 40.992188 11.800781 40.980469 11.84375 40.964844 L 11.828125 40.945312 "/>
<path style=" stroke:none;fill-rule:nonzero;fill:rgb(87.043762%,23.074341%,35.601807%);fill-opacity:1;" d="M 6.796875 41.15625 C 6.753906 41.183594 6.710938 41.21875 6.667969 41.25 C 6.691406 41.203125 6.710938 41.15625 6.734375 41.109375 L 6.78125 41.109375 L 6.796875 41.15625 "/>
<path style=" stroke:none;fill-rule:nonzero;fill:rgb(27.989197%,23.725891%,21.807861%);fill-opacity:1;" d="M 10.5 23.972656 C 10.441406 24.085938 10.382812 24.199219 10.324219 24.308594 C 10.207031 24.148438 10.09375 23.984375 9.976562 23.820312 C 10.035156 23.761719 10.097656 23.699219 10.15625 23.636719 C 10.273438 23.75 10.386719 23.859375 10.5 23.972656 "/>
<path style=" stroke:none;fill-rule:nonzero;fill:rgb(59.887695%,17.6651%,23.908997%);fill-opacity:1;" d="M 10.15625 23.636719 C 10.097656 23.699219 10.035156 23.761719 9.976562 23.820312 C 9.867188 23.652344 9.757812 23.480469 9.644531 23.3125 C 9.902344 23.285156 10.0625 23.410156 10.15625 23.636719 "/>
<path style=" stroke:none;fill-rule:nonzero;fill:rgb(59.887695%,17.6651%,23.908997%);fill-opacity:1;" d="M 9.644531 23.3125 C 9.601562 23.285156 9.554688 23.257812 9.511719 23.230469 C 9.554688 23.257812 9.601562 23.285156 9.644531 23.3125 "/>
</g>
</svg>
