<?xml version="1.0" encoding="UTF-8"?>
<svg xmlns="http://www.w3.org/2000/svg" xmlns:xlink="http://www.w3.org/1999/xlink" width="56pt" height="56pt" viewBox="0 0 56 56" version="1.1">
<g id="surface1">
<rect x="0" y="0" width="56" height="56" style="fill:rgb(81.5979%,13.845825%,14.419556%);fill-opacity:1;stroke:none;"/>
<path style=" stroke:none;fill-rule:nonzero;fill:rgb(100%,100%,100%);fill-opacity:1;" d="M 15.78125 33.539062 C 15.78125 33.539062 14.648438 33.226562 14.152344 32.601562 L 9.644531 32.601562 C 7.675781 32.601562 7.09375 32.226562 6.46875 31.625 L 5.160156 31.625 L 5.429688 31.925781 C 6.351562 32.949219 7.273438 33.539062 9.296875 33.539062 Z M 13.816406 31.265625 C 13.816406 31.265625 12.679688 30.953125 12.183594 30.328125 L 7.675781 30.328125 C 5.335938 30.328125 4.957031 29.800781 4.136719 28.992188 L 18.613281 28.992188 C 18.675781 28.671875 18.757812 28.359375 18.851562 28.050781 L 2.042969 28.050781 L 3.460938 29.652344 C 4.382812 30.671875 5.304688 31.265625 7.328125 31.265625 Z M 20.785156 37.152344 L 13.578125 37.152344 C 11.609375 37.152344 11.027344 36.777344 10.402344 36.175781 L 9.09375 36.175781 L 9.363281 36.476562 C 10.285156 37.496094 11.207031 38.089844 13.230469 38.089844 L 21.726562 38.089844 C 21.394531 37.796875 21.078125 37.484375 20.785156 37.152344 Z M 17.75 35.816406 C 17.75 35.816406 16.613281 35.503906 16.117188 34.875 L 11.609375 34.875 C 9.640625 34.875 9.0625 34.5 8.4375 33.902344 L 7.128906 33.902344 L 7.394531 34.203125 C 8.316406 35.222656 9.238281 35.816406 11.265625 35.816406 Z M 42.421875 37.152344 L 35.210938 37.152344 C 34.917969 37.484375 34.605469 37.796875 34.273438 38.089844 L 42.769531 38.089844 C 44.792969 38.089844 45.714844 37.496094 46.636719 36.476562 L 46.902344 36.175781 L 45.59375 36.175781 C 44.96875 36.777344 44.390625 37.152344 42.421875 37.152344 Z M 44.390625 34.875 L 39.882812 34.875 C 39.386719 35.503906 38.25 35.816406 38.25 35.816406 L 44.734375 35.816406 C 46.761719 35.816406 47.683594 35.222656 48.605469 34.203125 L 48.871094 33.902344 L 47.5625 33.902344 C 46.9375 34.5 46.359375 34.875 44.390625 34.875 Z M 46.355469 32.601562 L 41.847656 32.601562 C 41.351562 33.226562 40.214844 33.539062 40.214844 33.539062 L 46.703125 33.539062 C 48.726562 33.539062 49.648438 32.949219 50.570312 31.925781 L 50.839844 31.625 L 49.53125 31.625 C 48.90625 32.226562 48.324219 32.601562 46.355469 32.601562 Z M 37.148438 28.050781 C 37.242188 28.359375 37.324219 28.671875 37.386719 28.992188 L 51.863281 28.992188 C 51.039062 29.800781 50.660156 30.328125 48.324219 30.328125 L 43.816406 30.328125 C 43.320312 30.953125 42.183594 31.265625 42.183594 31.265625 L 48.667969 31.265625 C 50.695312 31.265625 51.617188 30.671875 52.539062 29.652344 L 53.957031 28.050781 Z M 22.671875 20.847656 C 22.671875 20.847656 22.75 20.300781 22.203125 20.046875 C 21.847656 19.882812 21.453125 19.621094 21.222656 19.355469 C 20.996094 19.085938 20.832031 18.742188 20.828125 18.164062 C 20.828125 17.5625 21 17.175781 21.222656 16.929688 C 21.441406 16.683594 21.738281 16.535156 22.214844 16.53125 C 22.851562 16.53125 23.246094 16.925781 23.960938 17.472656 C 24.535156 17.917969 25.769531 18.011719 25.855469 17.207031 C 24.851562 17.234375 24.203125 16.710938 23.855469 16.382812 C 23.476562 15.949219 22.890625 15.601562 22.203125 15.605469 C 21.535156 15.601562 20.945312 15.855469 20.535156 16.324219 C 20.125 16.789062 19.914062 17.414062 19.914062 18.164062 C 19.910156 18.929688 20.191406 19.511719 20.558594 19.929688 C 20.921875 20.347656 21.628906 20.757812 22.671875 20.847656 Z M 23.371094 20.398438 C 23.613281 20.292969 23.863281 20.191406 24.117188 20.101562 C 23.75 18.964844 23.007812 19.292969 22.882812 19.667969 C 22.882812 19.667969 23.222656 19.785156 23.371094 20.398438 Z M 24.148438 18.992188 C 24.148438 18.992188 24.535156 19 24.824219 19.871094 C 25.09375 19.792969 25.367188 19.726562 25.644531 19.667969 C 25.261719 18.542969 24.507812 18.316406 24.148438 18.992188 Z M 26.007812 16.566406 C 26.675781 16.292969 27.085938 15.386719 26.644531 14.664062 C 26.523438 14.472656 26.28125 14.390625 26.0625 14.476562 C 25.820312 14.578125 25.699219 14.855469 25.800781 15.101562 C 25.867188 15.269531 26.023438 15.375 26.191406 15.394531 C 26.191406 15.394531 26.152344 15.632812 25.703125 15.816406 C 25.25 16 25.058594 15.855469 25.058594 15.855469 C 25.167969 15.722656 25.199219 15.539062 25.132812 15.375 C 25.03125 15.128906 24.753906 15.011719 24.507812 15.109375 C 24.292969 15.199219 24.175781 15.429688 24.222656 15.652344 C 24.414062 16.476562 25.339844 16.835938 26.007812 16.566406 Z M 33.058594 22.222656 L 33.058594 21.183594 C 31.542969 20.390625 29.824219 19.9375 28 19.9375 C 26.175781 19.9375 24.453125 20.390625 22.941406 21.183594 L 22.941406 22.222656 C 24.425781 21.351562 26.152344 20.851562 28 20.851562 C 29.84375 20.851562 31.574219 21.351562 33.058594 22.222656 Z M 28 14.980469 C 27.582031 14.980469 27.246094 15.316406 27.246094 15.730469 C 27.246094 16.148438 27.582031 16.484375 28 16.484375 C 28.414062 16.484375 28.753906 16.148438 28.753906 15.730469 C 28.753906 15.316406 28.414062 14.980469 28 14.980469 Z M 27.0625 14.894531 L 28 14.214844 L 28.933594 14.894531 L 28.578125 13.796875 L 29.511719 13.117188 L 28.355469 13.117188 L 28 12.015625 L 27.640625 13.117188 L 26.484375 13.117188 L 27.421875 13.796875 Z M 28.769531 19.453125 C 29.0625 19.46875 29.351562 19.5 29.636719 19.542969 C 29.902344 18.5 30.4375 18.375 30.4375 18.375 C 29.996094 17.605469 29.101562 18.023438 28.769531 19.453125 Z M 28 17.015625 C 27.601562 17.398438 27.414062 17.960938 27.414062 17.960938 C 27.679688 18.15625 28 18.808594 28 18.808594 C 28 18.808594 28.320312 18.15625 28.585938 17.960938 C 28.585938 17.960938 28.398438 17.398438 28 17.015625 Z M 26.363281 19.542969 C 26.648438 19.5 26.9375 19.46875 27.230469 19.453125 C 26.898438 18.023438 26.003906 17.605469 25.5625 18.375 C 25.5625 18.375 26.097656 18.5 26.363281 19.542969 Z M 33.117188 19.667969 C 32.992188 19.292969 32.25 18.964844 31.882812 20.101562 C 32.136719 20.191406 32.386719 20.292969 32.628906 20.398438 C 32.777344 19.785156 33.117188 19.667969 33.117188 19.667969 Z M 32.039062 17.472656 C 32.753906 16.925781 33.148438 16.53125 33.785156 16.53125 C 34.261719 16.535156 34.558594 16.683594 34.78125 16.929688 C 35 17.175781 35.171875 17.5625 35.171875 18.164062 C 35.167969 18.742188 35.003906 19.085938 34.777344 19.355469 C 34.546875 19.621094 34.152344 19.882812 33.796875 20.046875 C 33.25 20.300781 33.328125 20.847656 33.328125 20.847656 C 34.371094 20.757812 35.078125 20.347656 35.441406 19.929688 C 35.808594 19.511719 36.089844 18.929688 36.085938 18.164062 C 36.085938 17.414062 35.875 16.789062 35.464844 16.324219 C 35.054688 15.855469 34.464844 15.601562 33.796875 15.605469 C 33.105469 15.601562 32.523438 15.949219 32.144531 16.382812 C 31.796875 16.710938 31.148438 17.234375 30.144531 17.207031 C 30.234375 18.011719 31.464844 17.917969 32.039062 17.472656 Z M 31.851562 18.992188 C 31.492188 18.316406 30.738281 18.542969 30.355469 19.667969 C 30.632812 19.726562 30.90625 19.792969 31.175781 19.871094 C 31.464844 19 31.851562 18.992188 31.851562 18.992188 Z M 29.355469 14.664062 C 28.914062 15.386719 29.324219 16.292969 29.992188 16.566406 C 30.660156 16.835938 31.585938 16.476562 31.777344 15.652344 C 31.824219 15.429688 31.707031 15.199219 31.488281 15.109375 C 31.246094 15.011719 30.96875 15.128906 30.867188 15.375 C 30.796875 15.539062 30.835938 15.722656 30.941406 15.855469 C 30.941406 15.855469 30.75 16 30.296875 15.816406 C 29.847656 15.632812 29.808594 15.394531 29.808594 15.394531 C 29.976562 15.375 30.132812 15.269531 30.199219 15.101562 C 30.296875 14.855469 30.179688 14.578125 29.9375 14.476562 C 29.71875 14.390625 29.476562 14.472656 29.355469 14.664062 Z M 19.332031 28.050781 L 26.8125 33.488281 L 27.609375 32.90625 L 22.222656 28.992188 L 25.167969 28.992188 L 25.472656 28.054688 L 20.328125 28.050781 C 21.386719 25.167969 24.03125 23.042969 27.199219 22.734375 L 27.515625 21.765625 C 23.675781 21.96875 20.46875 24.542969 19.332031 28.050781 Z M 35.488281 27.59375 L 36.507812 27.59375 C 35.191406 24.179688 31.878906 21.753906 28 21.753906 L 25.140625 30.546875 L 25.941406 31.125 L 28 24.792969 L 28.910156 27.59375 L 29.898438 27.59375 L 28.308594 22.707031 C 31.519531 22.824219 34.265625 24.800781 35.488281 27.59375 Z M 37.113281 30.867188 C 37.113281 29.886719 36.957031 28.941406 36.667969 28.050781 L 27.421875 28.050781 L 27.117188 28.992188 L 33.777344 28.992188 L 31.394531 30.722656 L 31.699219 31.660156 L 35.863281 28.636719 C 36.066406 29.347656 36.175781 30.09375 36.175781 30.867188 C 36.175781 33.296875 35.109375 35.476562 33.425781 36.976562 L 33.742188 37.945312 C 35.796875 36.273438 37.113281 33.726562 37.113281 30.867188 Z M 30.121094 32.808594 L 29.816406 31.871094 L 24.429688 35.785156 L 25.339844 32.980469 L 24.539062 32.402344 L 22.953125 37.289062 C 21.050781 35.792969 19.824219 33.472656 19.824219 30.867188 C 19.824219 30.265625 19.890625 29.679688 20.015625 29.113281 L 19.191406 28.515625 C 18.992188 29.269531 18.886719 30.054688 18.886719 30.867188 C 18.886719 33.902344 20.367188 36.585938 22.644531 38.242188 Z M 29.511719 29.449219 L 31.570312 35.785156 L 29.1875 34.050781 L 28.390625 34.632812 L 32.546875 37.65625 C 31.246094 38.53125 29.683594 39.042969 28 39.042969 C 26.492188 39.042969 25.082031 38.632812 23.867188 37.917969 L 23.042969 38.515625 C 24.46875 39.441406 26.171875 39.984375 28 39.984375 C 30 39.984375 31.851562 39.335938 33.355469 38.242188 L 30.5 29.449219 L 29.511719 29.449219 "/>
</g>
</svg>
