<?xml version="1.0" encoding="UTF-8"?>
<svg xmlns="http://www.w3.org/2000/svg" xmlns:xlink="http://www.w3.org/1999/xlink" width="56pt" height="56pt" viewBox="0 0 56 56" version="1.1">
<g id="surface1">
<rect x="0" y="0" width="56" height="56" style="fill:rgb(4.315186%,8.227539%,37.646484%);fill-opacity:1;stroke:none;"/>
<path style=" stroke:none;fill-rule:nonzero;fill:rgb(100%,100%,100%);fill-opacity:1;" d="M 27.726562 15.863281 C 28.828125 15.28125 30.066406 14.976562 31.308594 15.007812 C 36.871094 15.003906 42.4375 15.027344 48 15 C 47.273438 16.609375 46.503906 18.730469 44.441406 18.917969 C 39.269531 19.0625 34.089844 18.90625 28.910156 18.988281 C 27.632812 18.96875 26.359375 19.640625 25.816406 20.832031 C 24.703125 23.015625 23.703125 25.257812 22.609375 27.453125 C 27.042969 27.449219 31.480469 27.457031 35.914062 27.449219 C 35.527344 28.203125 35.234375 29.039062 34.625 29.652344 C 33.882812 30.238281 32.871094 30.128906 31.988281 30.15625 C 28.550781 30.109375 25.113281 30.191406 21.679688 30.105469 C 20.441406 32.425781 19.398438 34.84375 18.199219 37.183594 C 17.65625 38.289062 16.464844 39.003906 15.230469 38.960938 C 12.820312 38.960938 10.40625 39.046875 8 38.882812 L 8 38.753906 C 8.042969 38.761719 8.128906 38.785156 8.171875 38.796875 C 10.253906 34.292969 12.429688 29.839844 14.582031 25.371094 C 15.640625 23.132812 17.449219 21.28125 19.628906 20.109375 C 22.3125 18.664062 25.027344 17.28125 27.726562 15.863281 "/>
</g>
</svg>
