<?xml version="1.0" encoding="UTF-8"?>
<svg xmlns="http://www.w3.org/2000/svg" xmlns:xlink="http://www.w3.org/1999/xlink" width="56pt" height="56pt" viewBox="0 0 56 56" version="1.1">
<g id="surface1">
<rect x="0" y="0" width="56" height="56" style="fill:rgb(95.66803%,95.779419%,96.777344%);fill-opacity:1;stroke:none;"/>
<rect x="0" y="0" width="56" height="56" style="fill:rgb(95.66803%,95.779419%,96.777344%);fill-opacity:1;stroke:none;"/>
<path style=" stroke:none;fill-rule:nonzero;fill:rgb(18.185425%,66.891479%,27.79541%);fill-opacity:1;" d="M 35.664062 44.507812 L 5.761719 44.527344 L 31.617188 11.492188 L 46.941406 11.472656 L 35.664062 44.507812 "/>
<path style=" stroke:none;fill-rule:nonzero;fill:rgb(93.824768%,21.791077%,12.295532%);fill-opacity:1;" d="M 48.050781 11.492188 L 50.238281 11.492188 L 38.855469 44.527344 L 36.6875 44.527344 L 48.050781 11.492188 "/>
<path style=" stroke:none;fill-rule:nonzero;fill:rgb(100%,100%,100%);fill-opacity:1;" d="M 24.816406 28.683594 C 25.097656 28.546875 25.375 28.40625 25.65625 28.269531 C 26.640625 27.796875 27.621094 27.324219 28.601562 26.855469 C 28.734375 26.796875 28.757812 26.734375 28.707031 26.597656 C 28.433594 25.847656 28.167969 25.089844 27.902344 24.335938 C 27.878906 24.265625 27.859375 24.195312 27.824219 24.066406 C 28.675781 24.347656 29.476562 24.613281 30.324219 24.894531 C 30.761719 23.066406 31.199219 21.25 31.632812 19.429688 C 31.65625 19.425781 31.679688 19.421875 31.703125 19.417969 C 32.183594 21.230469 32.609375 23.054688 33.085938 24.886719 C 33.878906 24.664062 34.652344 24.445312 35.464844 24.214844 C 35.414062 24.558594 35.375 24.855469 35.332031 25.152344 C 35.242188 25.707031 35.15625 26.261719 35.066406 26.816406 C 35.042969 26.9375 35.085938 27 35.207031 27.050781 C 36.320312 27.523438 37.429688 28 38.539062 28.476562 C 38.617188 28.511719 38.699219 28.546875 38.777344 28.582031 C 38.777344 28.605469 38.773438 28.632812 38.769531 28.65625 C 37.324219 28.847656 35.878906 29.039062 34.402344 29.238281 C 34.8125 30.027344 35.210938 30.789062 35.632812 31.601562 C 35.523438 31.582031 35.464844 31.578125 35.410156 31.558594 C 34.722656 31.351562 34.035156 31.144531 33.351562 30.925781 C 33.183594 30.871094 33.121094 30.910156 33.074219 31.082031 C 32.65625 32.554688 32.234375 34.027344 31.808594 35.496094 C 31.792969 35.5625 31.765625 35.621094 31.6875 35.683594 C 31.585938 35.347656 31.480469 35.011719 31.378906 34.671875 C 31.027344 33.503906 30.671875 32.335938 30.324219 31.164062 C 30.285156 31.027344 30.242188 30.972656 30.082031 30.992188 C 29.398438 31.078125 28.710938 31.136719 28.023438 31.207031 C 27.992188 31.210938 27.957031 31.203125 27.875 31.199219 C 28.230469 30.511719 28.570312 29.847656 28.9375 29.140625 C 27.542969 29.007812 26.183594 28.875 24.820312 28.746094 C 24.820312 28.726562 24.816406 28.703125 24.816406 28.683594 "/>
</g>
</svg>
