<?xml version="1.0" encoding="UTF-8"?>
<svg xmlns="http://www.w3.org/2000/svg" xmlns:xlink="http://www.w3.org/1999/xlink" width="56pt" height="56pt" viewBox="0 0 56 56" version="1.1">
<g id="surface1">
<rect x="0" y="0" width="56" height="56" style="fill:rgb(11.766052%,15.766907%,31.123352%);fill-opacity:1;stroke:none;"/>
<path style=" stroke:none;fill-rule:nonzero;fill:rgb(100%,100%,100%);fill-opacity:1;" d="M 28.742188 49.316406 C 28.746094 49.328125 28.75 49.339844 28.753906 49.351562 C 29.019531 49.351562 29.285156 49.355469 29.550781 49.347656 C 29.898438 49.335938 30.246094 49.34375 30.589844 49.292969 C 31.179688 49.207031 31.765625 49.101562 32.347656 48.980469 C 33.207031 48.800781 34.058594 48.582031 34.890625 48.296875 C 36.097656 47.878906 37.257812 47.359375 38.375 46.738281 C 39.097656 46.339844 39.792969 45.894531 40.46875 45.414062 C 41.242188 44.859375 41.976562 44.253906 42.671875 43.601562 C 43.269531 43.039062 43.835938 42.449219 44.363281 41.820312 C 45.085938 40.96875 45.734375 40.066406 46.320312 39.113281 C 46.902344 38.164062 47.398438 37.167969 47.824219 36.140625 C 48.246094 35.113281 48.589844 34.066406 48.851562 32.988281 C 49.054688 32.167969 49.199219 31.332031 49.292969 30.488281 C 49.382812 29.710938 49.441406 28.929688 49.429688 28.148438 C 49.421875 27.648438 49.394531 27.148438 49.359375 26.648438 C 49.324219 26.132812 49.273438 25.617188 49.226562 25.105469 C 49.15625 24.324219 49.03125 23.554688 48.851562 22.792969 C 48.765625 22.410156 48.660156 22.035156 48.480469 21.683594 C 48.445312 21.613281 48.402344 21.550781 48.359375 21.480469 C 48.308594 21.5 48.28125 21.507812 48.257812 21.519531 C 47.878906 21.6875 47.476562 21.792969 47.078125 21.894531 C 46.777344 21.972656 46.480469 22.058594 46.1875 22.15625 C 45.71875 22.304688 45.324219 22.558594 45.015625 22.949219 C 44.914062 23.074219 44.789062 23.179688 44.671875 23.296875 C 43.644531 23.289062 42.84375 22.855469 42.203125 22.042969 C 42.414062 21.855469 42.609375 21.667969 42.820312 21.496094 C 43.183594 21.203125 43.582031 20.964844 44.039062 20.84375 C 44.378906 20.757812 44.722656 20.730469 45.070312 20.734375 C 45.898438 20.746094 46.722656 20.773438 47.546875 20.734375 C 47.730469 20.726562 47.910156 20.699219 48.09375 20.679688 C 48.09375 20.640625 48.097656 20.621094 48.09375 20.597656 C 47.910156 19.789062 47.578125 19.03125 47.191406 18.300781 C 46.707031 17.386719 46.132812 16.53125 45.515625 15.703125 C 44.605469 14.488281 43.601562 13.355469 42.539062 12.28125 C 41.382812 11.113281 40.050781 10.179688 38.617188 9.382812 C 37.546875 8.789062 36.433594 8.28125 35.285156 7.859375 C 34.546875 7.585938 33.792969 7.34375 33.03125 7.152344 C 31.949219 6.882812 30.851562 6.691406 29.738281 6.613281 C 29.09375 6.566406 28.441406 6.550781 27.792969 6.554688 C 26.902344 6.5625 26.011719 6.621094 25.128906 6.773438 C 24.496094 6.878906 23.863281 6.976562 23.238281 7.113281 C 22.671875 7.238281 22.113281 7.40625 21.554688 7.570312 C 19.667969 8.128906 17.90625 8.960938 16.261719 10.042969 C 15.300781 10.675781 14.394531 11.386719 13.550781 12.171875 C 12.726562 12.945312 11.949219 13.765625 11.246094 14.652344 C 10.566406 15.515625 9.9375 16.414062 9.386719 17.371094 C 8.839844 18.328125 8.375 19.320312 7.976562 20.34375 C 7.636719 21.210938 7.363281 22.097656 7.152344 23 C 6.980469 23.726562 6.839844 24.457031 6.765625 25.199219 C 6.71875 25.707031 6.636719 26.210938 6.613281 26.71875 C 6.578125 27.691406 6.550781 28.664062 6.644531 29.636719 C 6.699219 30.214844 6.753906 30.796875 6.835938 31.371094 C 6.96875 32.269531 7.171875 33.152344 7.425781 34.023438 C 7.753906 35.136719 8.167969 36.214844 8.671875 37.257812 C 9.410156 38.796875 10.324219 40.21875 11.402344 41.535156 C 12.082031 42.363281 12.824219 43.136719 13.617188 43.855469 C 14.449219 44.613281 15.328125 45.308594 16.261719 45.933594 C 17.464844 46.738281 18.730469 47.425781 20.074219 47.972656 C 21.191406 48.421875 22.339844 48.769531 23.523438 48.988281 C 23.921875 49.058594 24.324219 49.113281 24.730469 49.175781 C 24.855469 48.964844 25.039062 48.847656 25.261719 48.800781 C 25.394531 48.769531 25.523438 48.753906 25.65625 48.734375 C 26.191406 48.664062 26.722656 48.59375 27.257812 48.519531 C 27.714844 48.460938 28.175781 48.394531 28.636719 48.339844 C 28.75 48.328125 28.875 48.351562 28.980469 48.386719 C 29.164062 48.449219 29.289062 48.6875 29.277344 48.886719 C 29.261719 49.085938 29.136719 49.21875 28.910156 49.273438 C 28.855469 49.285156 28.796875 49.300781 28.742188 49.316406 Z M 5.320312 28.929688 C 5.320312 28.222656 5.320312 27.511719 5.320312 26.804688 C 5.332031 26.75 5.355469 26.695312 5.359375 26.640625 C 5.417969 25.578125 5.542969 24.527344 5.75 23.484375 C 5.9375 22.519531 6.1875 21.574219 6.503906 20.644531 C 6.949219 19.34375 7.507812 18.097656 8.183594 16.898438 C 9.195312 15.109375 10.433594 13.488281 11.890625 12.039062 C 12.382812 11.546875 12.914062 11.085938 13.449219 10.632812 C 14.597656 9.652344 15.851562 8.824219 17.175781 8.105469 C 18.710938 7.273438 20.320312 6.621094 22.007812 6.160156 C 22.53125 6.019531 23.0625 5.882812 23.597656 5.78125 C 24.296875 5.652344 25.007812 5.550781 25.714844 5.460938 C 26.160156 5.402344 26.613281 5.394531 27.058594 5.359375 C 27.109375 5.355469 27.15625 5.332031 27.203125 5.320312 C 27.765625 5.320312 28.324219 5.320312 28.886719 5.320312 C 28.933594 5.332031 28.980469 5.355469 29.027344 5.359375 C 29.601562 5.40625 30.171875 5.445312 30.746094 5.496094 C 31.527344 5.570312 32.292969 5.714844 33.054688 5.890625 C 34.324219 6.175781 35.554688 6.574219 36.753906 7.078125 C 37.925781 7.570312 39.050781 8.148438 40.121094 8.828125 C 41.714844 9.835938 43.15625 11.023438 44.453125 12.390625 C 45.457031 13.457031 46.355469 14.605469 47.140625 15.839844 C 48.042969 17.265625 48.78125 18.773438 49.34375 20.359375 C 49.636719 21.179688 49.875 22.015625 50.078125 22.863281 C 50.253906 23.601562 50.382812 24.347656 50.484375 25.101562 C 50.558594 25.632812 50.585938 26.171875 50.632812 26.707031 C 50.640625 26.785156 50.664062 26.859375 50.679688 26.9375 C 50.679688 27.71875 50.679688 28.503906 50.679688 29.285156 C 50.664062 29.359375 50.644531 29.4375 50.636719 29.515625 C 50.574219 30.109375 50.527344 30.703125 50.453125 31.296875 C 50.363281 32.027344 50.214844 32.75 50.039062 33.46875 C 49.765625 34.59375 49.402344 35.691406 48.953125 36.757812 C 48.351562 38.191406 47.609375 39.546875 46.722656 40.824219 C 45.886719 42.035156 44.9375 43.152344 43.882812 44.179688 C 42.933594 45.105469 41.914062 45.941406 40.824219 46.691406 C 39.671875 47.480469 38.460938 48.167969 37.175781 48.726562 C 36.523438 49.007812 35.859375 49.28125 35.179688 49.507812 C 34.484375 49.738281 33.769531 49.917969 33.054688 50.101562 C 32.339844 50.285156 31.609375 50.402344 30.878906 50.492188 C 30.300781 50.5625 29.71875 50.589844 29.140625 50.640625 C 29.082031 50.644531 29.03125 50.667969 28.972656 50.679688 C 28.296875 50.679688 27.617188 50.679688 26.9375 50.679688 C 26.867188 50.667969 26.796875 50.644531 26.730469 50.636719 C 26.148438 50.585938 25.566406 50.5625 24.988281 50.488281 C 24.0625 50.367188 23.144531 50.1875 22.234375 49.953125 C 20.535156 49.511719 18.914062 48.878906 17.367188 48.054688 C 16.488281 47.585938 15.644531 47.0625 14.835938 46.476562 C 14.101562 45.941406 13.394531 45.375 12.726562 44.761719 C 11.679688 43.792969 10.722656 42.738281 9.871094 41.59375 C 8.960938 40.371094 8.183594 39.070312 7.527344 37.695312 C 6.964844 36.515625 6.507812 35.296875 6.160156 34.035156 C 6.019531 33.519531 5.886719 32.996094 5.789062 32.46875 C 5.65625 31.773438 5.550781 31.074219 5.460938 30.371094 C 5.402344 29.941406 5.394531 29.507812 5.359375 29.074219 C 5.355469 29.023438 5.332031 28.976562 5.320312 28.929688 "/>
<path style=" stroke:none;fill-rule:nonzero;fill:rgb(100%,100%,100%);fill-opacity:1;" d="M 35.941406 47.71875 C 35.941406 47.625 35.933594 47.550781 35.941406 47.480469 C 36.121094 46.101562 36.15625 44.714844 36.101562 43.328125 C 36.082031 42.886719 36.023438 42.445312 35.964844 42.007812 C 35.878906 41.390625 35.742188 40.777344 35.570312 40.171875 C 35.316406 39.296875 35.023438 38.429688 34.613281 37.609375 C 34.386719 37.15625 34.152344 36.703125 33.925781 36.246094 C 33.871094 36.144531 33.835938 36.035156 33.78125 35.894531 C 33.886719 35.894531 33.957031 35.894531 34.027344 35.894531 C 34.332031 35.894531 34.632812 35.898438 34.933594 35.898438 C 35.890625 35.894531 36.832031 35.792969 37.761719 35.570312 C 38.472656 35.398438 39.160156 35.152344 39.832031 34.863281 C 40.320312 34.65625 40.800781 34.4375 41.285156 34.222656 C 41.3125 34.214844 41.34375 34.207031 41.378906 34.195312 C 41.554688 34.324219 41.671875 34.503906 41.785156 34.679688 C 42.078125 35.121094 42.265625 35.605469 42.429688 36.105469 C 42.636719 36.738281 42.78125 37.386719 42.863281 38.042969 C 42.960938 38.785156 42.980469 39.527344 42.894531 40.273438 C 42.796875 41.097656 42.609375 41.894531 42.296875 42.664062 C 42.019531 43.359375 41.617188 43.984375 41.191406 44.597656 C 40.984375 44.890625 40.738281 45.113281 40.441406 45.300781 C 39.546875 45.863281 38.664062 46.433594 37.730469 46.925781 C 37.21875 47.195312 36.707031 47.449219 36.164062 47.644531 C 36.09375 47.667969 36.027344 47.6875 35.941406 47.71875 "/>
<path style=" stroke:none;fill-rule:nonzero;fill:rgb(100%,100%,100%);fill-opacity:1;" d="M 32.820312 48.679688 C 32.847656 48.53125 32.867188 48.410156 32.894531 48.289062 C 33.027344 47.707031 33.128906 47.117188 33.195312 46.523438 C 33.269531 45.847656 33.320312 45.171875 33.308594 44.492188 C 33.292969 43.824219 33.238281 43.15625 33.144531 42.488281 C 32.992188 41.433594 32.722656 40.410156 32.34375 39.417969 C 31.734375 37.808594 30.859375 36.355469 29.730469 35.058594 C 28.8125 34.007812 27.761719 33.113281 26.589844 32.355469 C 25.648438 31.746094 24.714844 31.125 23.792969 30.484375 C 23.359375 30.183594 22.953125 29.839844 22.546875 29.496094 C 22.324219 29.308594 22.160156 29.078125 22.070312 28.792969 C 21.867188 28.148438 22.253906 27.445312 22.914062 27.300781 C 23.324219 27.214844 23.691406 27.339844 24.015625 27.585938 C 24.308594 27.804688 24.589844 28.046875 24.878906 28.277344 C 25.621094 28.871094 26.394531 29.421875 27.203125 29.925781 C 28.214844 30.554688 29.175781 31.246094 30.0625 32.046875 C 30.972656 32.867188 31.792969 33.773438 32.515625 34.769531 C 33.121094 35.605469 33.65625 36.492188 34.097656 37.425781 C 34.554688 38.394531 34.917969 39.394531 35.1875 40.433594 C 35.367188 41.128906 35.5 41.828125 35.601562 42.535156 C 35.65625 42.898438 35.683594 43.269531 35.699219 43.636719 C 35.722656 44.160156 35.746094 44.683594 35.734375 45.207031 C 35.722656 45.707031 35.671875 46.207031 35.628906 46.707031 C 35.601562 47 35.558594 47.292969 35.523438 47.582031 C 35.488281 47.867188 35.316406 48.023438 35.050781 48.105469 C 34.601562 48.246094 34.15625 48.398438 33.703125 48.53125 C 33.5 48.59375 33.285156 48.625 33.078125 48.664062 C 33 48.679688 32.921875 48.675781 32.820312 48.679688 "/>
<path style=" stroke:none;fill-rule:nonzero;fill:rgb(100%,100%,100%);fill-opacity:1;" d="M 42.097656 19.097656 C 42.097656 19.960938 42.097656 20.78125 42.097656 21.625 C 42.039062 21.609375 41.984375 21.601562 41.933594 21.582031 C 41.011719 21.222656 40.054688 21.148438 39.082031 21.28125 C 38.273438 21.390625 37.496094 21.613281 36.78125 22.015625 C 36.433594 22.214844 36.105469 22.441406 35.84375 22.746094 C 35.699219 22.914062 35.574219 23.097656 35.429688 23.285156 C 34.847656 23.238281 34.246094 23.1875 33.648438 23.140625 C 33.609375 23.390625 33.816406 23.789062 34.242188 24.324219 C 34.175781 24.546875 34.042969 24.742188 33.914062 24.9375 C 33.570312 25.460938 33.214844 25.976562 32.953125 26.550781 C 32.566406 27.398438 32.234375 28.261719 32.011719 29.164062 C 31.828125 29.890625 31.699219 30.621094 31.632812 31.363281 C 31.59375 31.765625 31.574219 32.171875 31.546875 32.578125 C 31.542969 32.640625 31.535156 32.703125 31.53125 32.773438 C 31.152344 32.597656 29.375 30.9375 29.011719 30.417969 C 29.0625 30.175781 29.109375 29.914062 29.167969 29.65625 C 29.433594 28.507812 29.796875 27.386719 30.269531 26.304688 C 30.835938 25.015625 31.539062 23.808594 32.433594 22.714844 C 33.042969 21.96875 33.730469 21.304688 34.507812 20.734375 C 35.597656 19.933594 36.808594 19.386719 38.132812 19.113281 C 38.953125 18.941406 39.78125 18.875 40.617188 18.933594 C 41.101562 18.964844 41.582031 19.039062 42.097656 19.097656 "/>
<path style=" stroke:none;fill-rule:nonzero;fill:rgb(100%,100%,100%);fill-opacity:1;" d="M 34.511719 24.691406 C 34.65625 24.789062 34.792969 24.871094 34.921875 24.964844 C 35.058594 25.066406 35.191406 25.175781 35.316406 25.289062 C 35.722656 25.660156 36.214844 25.84375 36.746094 25.925781 C 36.789062 25.933594 36.835938 25.941406 36.878906 25.949219 C 36.898438 25.957031 36.917969 25.96875 36.953125 25.988281 C 36.960938 26.089844 36.976562 26.199219 36.980469 26.304688 C 36.992188 27.015625 37.027344 27.722656 37.132812 28.421875 C 37.21875 28.992188 37.339844 29.550781 37.601562 30.074219 C 37.8125 30.492188 38.121094 30.824219 38.503906 31.085938 C 38.835938 31.308594 39.164062 31.535156 39.433594 31.835938 C 39.539062 31.953125 39.636719 32.085938 39.757812 32.234375 C 39.582031 32.296875 39.441406 32.351562 39.296875 32.402344 C 38.652344 32.632812 38.007812 32.855469 37.339844 33.027344 C 36.78125 33.164062 36.21875 33.261719 35.644531 33.320312 C 34.828125 33.398438 34.007812 33.371094 33.191406 33.351562 C 32.84375 33.34375 32.5 33.277344 32.167969 33.171875 C 32.113281 33.15625 32.0625 33.125 32.003906 33.09375 C 31.960938 32.785156 31.949219 32.476562 31.960938 32.167969 C 31.996094 31.191406 32.15625 30.230469 32.402344 29.289062 C 32.664062 28.289062 32.992188 27.308594 33.496094 26.402344 C 33.710938 26.007812 33.960938 25.632812 34.191406 25.246094 C 34.292969 25.074219 34.390625 24.902344 34.511719 24.691406 "/>
<path style=" stroke:none;fill-rule:nonzero;fill:rgb(100%,100%,100%);fill-opacity:1;" d="M 43.398438 28.921875 C 43.160156 29.082031 42.910156 29.160156 42.648438 29.203125 C 42.261719 29.269531 41.867188 29.28125 41.476562 29.277344 C 41.027344 29.273438 40.578125 29.304688 40.136719 29.402344 C 39.84375 29.464844 39.574219 29.570312 39.304688 29.695312 C 39.09375 29.792969 38.871094 29.882812 38.65625 29.972656 C 38.617188 29.988281 38.570312 29.992188 38.511719 30.007812 C 38.425781 29.84375 38.339844 29.679688 38.265625 29.515625 C 38.019531 28.960938 37.820312 28.390625 37.773438 27.78125 C 37.746094 27.441406 37.753906 27.101562 37.746094 26.761719 C 37.742188 26.570312 37.746094 26.378906 37.746094 26.167969 C 37.941406 26.144531 38.113281 26.125 38.289062 26.101562 C 38.515625 26.070312 38.742188 26.050781 38.964844 26.003906 C 39.480469 25.898438 39.761719 25.570312 39.84375 25.050781 C 39.871094 24.867188 39.878906 24.6875 39.84375 24.503906 C 39.765625 24.082031 39.515625 23.804688 39.132812 23.640625 C 38.824219 23.503906 38.496094 23.4375 38.164062 23.433594 C 37.589844 23.421875 37.015625 23.425781 36.441406 23.421875 C 36.292969 23.417969 36.148438 23.402344 35.992188 23.390625 C 36.066406 23.121094 36.238281 22.953125 36.425781 22.796875 C 36.734375 22.542969 37.089844 22.359375 37.460938 22.214844 C 38.113281 21.953125 38.789062 21.785156 39.492188 21.703125 C 39.949219 21.648438 40.40625 21.648438 40.855469 21.722656 C 41.285156 21.796875 41.679688 21.964844 42.019531 22.238281 C 42.207031 22.394531 42.394531 22.550781 42.570312 22.71875 C 43.066406 23.191406 43.652344 23.449219 44.335938 23.488281 C 44.363281 23.488281 44.390625 23.496094 44.4375 23.507812 C 44.394531 23.824219 44.355469 24.132812 44.308594 24.46875 C 44.121094 24.386719 43.960938 24.320312 43.800781 24.25 C 43.496094 24.117188 43.1875 24.003906 42.855469 23.949219 C 42.359375 23.871094 41.886719 23.9375 41.433594 24.152344 C 41.382812 24.175781 41.332031 24.210938 41.285156 24.25 C 41.035156 24.460938 40.996094 24.695312 41.175781 24.972656 C 41.230469 25.058594 41.296875 25.136719 41.347656 25.203125 C 41.238281 25.453125 41.109375 25.679688 41.03125 25.921875 C 40.800781 26.671875 41.292969 27.082031 41.859375 27.148438 C 42.550781 27.234375 43.15625 27.027344 43.65625 26.535156 C 43.667969 26.523438 43.679688 26.519531 43.707031 26.503906 C 43.761719 26.566406 43.765625 26.644531 43.761719 26.722656 C 43.753906 27.394531 43.671875 28.058594 43.488281 28.710938 C 43.46875 28.785156 43.425781 28.859375 43.398438 28.921875 "/>
<path style=" stroke:none;fill-rule:nonzero;fill:rgb(100%,100%,100%);fill-opacity:1;" d="M 40.140625 32.460938 C 40.492188 32.917969 40.835938 33.367188 41.1875 33.832031 C 41.117188 33.894531 41.066406 33.941406 41.007812 33.984375 C 40.726562 34.191406 40.40625 34.328125 40.089844 34.460938 C 38.988281 34.921875 37.839844 35.199219 36.671875 35.425781 C 36.042969 35.550781 35.40625 35.621094 34.765625 35.652344 C 34.425781 35.667969 34.089844 35.644531 33.757812 35.566406 C 33.5625 35.519531 33.410156 35.417969 33.296875 35.246094 C 32.992188 34.785156 32.675781 34.332031 32.359375 33.878906 C 32.289062 33.777344 32.207031 33.683594 32.125 33.589844 C 32.257812 33.539062 32.433594 33.527344 32.660156 33.554688 C 33.527344 33.675781 34.394531 33.714844 35.265625 33.667969 C 36.164062 33.621094 37.046875 33.449219 37.902344 33.15625 C 38.515625 32.949219 39.132812 32.753906 39.75 32.554688 C 39.867188 32.515625 39.992188 32.496094 40.140625 32.460938 "/>
<path style=" stroke:none;fill-rule:nonzero;fill:rgb(100%,100%,100%);fill-opacity:1;" d="M 16.257812 26.34375 C 16.015625 26.296875 15.847656 26.171875 15.703125 26.007812 C 14.75 24.925781 13.882812 23.785156 13.148438 22.542969 C 12.675781 21.746094 12.21875 20.9375 11.875 20.070312 C 11.703125 19.632812 11.558594 19.183594 11.496094 18.714844 C 11.457031 18.425781 11.464844 18.140625 11.601562 17.871094 C 11.625 17.824219 11.644531 17.773438 11.679688 17.738281 C 11.925781 17.472656 12.214844 17.28125 12.59375 17.269531 C 12.777344 17.265625 12.921875 17.335938 13.046875 17.460938 C 13.21875 17.632812 13.339844 17.835938 13.421875 18.054688 C 13.550781 18.398438 13.671875 18.746094 13.78125 19.097656 C 14 19.816406 14.199219 20.542969 14.425781 21.257812 C 14.726562 22.195312 15.078125 23.117188 15.542969 23.992188 C 15.710938 24.304688 15.902344 24.601562 16.078125 24.90625 C 16.214844 25.144531 16.347656 25.382812 16.40625 25.65625 C 16.457031 25.902344 16.441406 26.136719 16.257812 26.34375 "/>
<path style=" stroke:none;fill-rule:nonzero;fill:rgb(100%,100%,100%);fill-opacity:1;" d="M 16.023438 27.507812 C 15.804688 27.480469 15.625 27.390625 15.445312 27.289062 C 15.085938 27.085938 14.769531 26.816406 14.460938 26.542969 C 13.917969 26.066406 13.371094 25.59375 12.84375 25.097656 C 12.148438 24.449219 11.503906 23.746094 10.882812 23.027344 C 10.421875 22.488281 9.957031 21.953125 9.566406 21.359375 C 9.4375 21.167969 9.34375 20.964844 9.292969 20.734375 C 9.230469 20.421875 9.277344 20.128906 9.476562 19.878906 C 9.609375 19.714844 9.761719 19.554688 9.929688 19.425781 C 10.308594 19.136719 10.632812 19.175781 10.96875 19.566406 C 11.140625 19.765625 11.285156 19.992188 11.414062 20.222656 C 11.761719 20.847656 12.09375 21.480469 12.433594 22.109375 C 12.96875 23.097656 13.558594 24.050781 14.253906 24.929688 C 14.589844 25.351562 14.960938 25.742188 15.324219 26.144531 C 15.527344 26.367188 15.75 26.574219 15.890625 26.84375 C 16 27.046875 16.074219 27.261719 16.023438 27.507812 "/>
<path style=" stroke:none;fill-rule:nonzero;fill:rgb(100%,100%,100%);fill-opacity:1;" d="M 16.894531 25.347656 C 16.796875 25.238281 16.699219 25.144531 16.617188 25.03125 C 16.351562 24.660156 16.136719 24.257812 15.929688 23.847656 C 15.304688 22.597656 14.804688 21.304688 14.421875 19.960938 C 14.234375 19.300781 14.097656 18.628906 14.058594 17.941406 C 14.042969 17.640625 14.078125 17.339844 14.160156 17.046875 C 14.273438 16.644531 14.558594 16.441406 14.945312 16.355469 C 15.40625 16.253906 15.664062 16.375 15.894531 16.792969 C 16.066406 17.101562 16.132812 17.445312 16.164062 17.789062 C 16.226562 18.476562 16.261719 19.167969 16.308594 19.859375 C 16.34375 20.351562 16.410156 20.84375 16.503906 21.328125 C 16.667969 22.183594 16.941406 23.007812 17.171875 23.84375 C 17.257812 24.144531 17.335938 24.441406 17.328125 24.753906 C 17.324219 25.042969 17.191406 25.226562 16.894531 25.347656 "/>
<path style=" stroke:none;fill-rule:nonzero;fill:rgb(100%,100%,100%);fill-opacity:1;" d="M 41.597656 32.257812 C 41.574219 32.242188 41.554688 32.238281 41.546875 32.226562 C 41.152344 31.777344 40.644531 31.503906 40.101562 31.269531 C 39.851562 31.164062 39.613281 31.03125 39.378906 30.894531 C 39.144531 30.75 38.964844 30.546875 38.796875 30.324219 C 38.890625 30.152344 39.046875 30.0625 39.199219 29.976562 C 39.429688 29.84375 39.6875 29.777344 39.949219 29.714844 C 40.464844 29.59375 40.996094 29.566406 41.527344 29.519531 C 42.125 29.464844 42.730469 29.449219 43.320312 29.292969 C 43.351562 29.28125 43.390625 29.289062 43.453125 29.289062 C 43.433594 30 43.429688 30.695312 43.871094 31.292969 C 43.800781 31.398438 43.695312 31.414062 43.605469 31.464844 C 43.429688 31.5625 43.257812 31.65625 43.144531 31.832031 C 43.097656 31.898438 43.058594 31.96875 43.035156 32.042969 C 42.882812 32.609375 43.285156 33.140625 43.863281 33.132812 C 44.152344 33.128906 44.347656 32.976562 44.460938 32.71875 C 44.558594 32.503906 44.550781 32.273438 44.519531 32.042969 C 44.515625 32 44.480469 31.957031 44.453125 31.902344 C 44.367188 31.949219 44.351562 32.019531 44.339844 32.089844 C 44.324219 32.214844 44.308594 32.339844 44.289062 32.464844 C 44.242188 32.726562 44.023438 32.878906 43.757812 32.839844 C 43.597656 32.820312 43.492188 32.726562 43.441406 32.59375 C 43.28125 32.199219 43.441406 31.890625 43.757812 31.738281 C 43.960938 31.640625 44.175781 31.59375 44.402344 31.65625 C 44.472656 31.675781 44.546875 31.691406 44.617188 31.714844 C 45.027344 31.851562 45.441406 31.980469 45.882812 32.042969 C 45.835938 32.472656 45.710938 32.859375 45.433594 33.183594 C 45.148438 33.527344 44.769531 33.695312 44.339844 33.742188 C 43.785156 33.804688 43.25 33.726562 42.734375 33.519531 C 42.480469 33.417969 42.273438 33.253906 42.105469 33.042969 C 41.898438 32.78125 41.839844 32.484375 41.960938 32.171875 C 42.007812 32.058594 42.097656 31.964844 42.175781 31.867188 C 42.238281 31.785156 42.324219 31.71875 42.375 31.632812 C 42.507812 31.398438 42.378906 30.878906 42.15625 30.726562 C 41.730469 30.433594 41.230469 30.636719 41.113281 31.175781 C 41.195312 31.121094 41.253906 31.078125 41.316406 31.035156 C 41.445312 30.949219 41.578125 30.871094 41.742188 30.871094 C 41.867188 30.871094 41.96875 30.917969 42.042969 31.027344 C 42.160156 31.195312 42.179688 31.378906 42.097656 31.570312 C 42.074219 31.621094 42.042969 31.671875 42.007812 31.71875 C 41.875 31.898438 41.738281 32.070312 41.597656 32.257812 "/>
<path style=" stroke:none;fill-rule:nonzero;fill:rgb(100%,100%,100%);fill-opacity:1;" d="M 16.148438 28.785156 C 16.070312 28.777344 16.011719 28.773438 15.957031 28.761719 C 15.453125 28.664062 14.984375 28.476562 14.523438 28.261719 C 13.238281 27.65625 12.039062 26.914062 10.871094 26.109375 C 10.257812 25.6875 9.65625 25.25 9.089844 24.765625 C 8.742188 24.472656 8.453125 24.132812 8.289062 23.699219 C 8.191406 23.445312 8.171875 23.1875 8.238281 22.917969 C 8.332031 22.527344 8.765625 22.140625 9.246094 22.191406 C 9.421875 22.210938 9.570312 22.273438 9.699219 22.390625 C 9.75 22.433594 9.796875 22.480469 9.835938 22.535156 C 10.375 23.261719 11.003906 23.902344 11.628906 24.550781 C 12.21875 25.160156 12.828125 25.746094 13.46875 26.300781 C 14.136719 26.875 14.8125 27.429688 15.554688 27.902344 C 15.617188 27.941406 15.679688 27.980469 15.746094 28.011719 C 15.976562 28.132812 16.09375 28.324219 16.121094 28.578125 C 16.128906 28.632812 16.136719 28.691406 16.148438 28.785156 "/>
<path style=" stroke:none;fill-rule:nonzero;fill:rgb(100%,100%,100%);fill-opacity:1;" d="M 18.820312 24.332031 C 18.488281 24.457031 18.140625 24.496094 17.800781 24.59375 C 17.660156 24.34375 17.585938 24.085938 17.507812 23.835938 C 17.222656 22.941406 17.019531 22.027344 16.859375 21.105469 C 16.765625 20.570312 16.703125 20.027344 16.65625 19.484375 C 16.617188 19.035156 16.613281 18.585938 16.609375 18.136719 C 16.609375 17.769531 16.667969 17.402344 16.792969 17.050781 C 16.824219 16.960938 16.863281 16.875 16.910156 16.789062 C 17.058594 16.523438 17.285156 16.359375 17.59375 16.320312 C 17.964844 16.265625 18.300781 16.328125 18.558594 16.625 C 18.703125 16.792969 18.773438 16.992188 18.792969 17.210938 C 18.835938 17.652344 18.75 18.078125 18.632812 18.496094 C 18.445312 19.191406 18.34375 19.898438 18.359375 20.617188 C 18.378906 21.40625 18.460938 22.191406 18.628906 22.964844 C 18.710938 23.335938 18.761719 23.71875 18.820312 24.097656 C 18.832031 24.167969 18.820312 24.242188 18.820312 24.332031 "/>
<path style=" stroke:none;fill-rule:nonzero;fill:rgb(100%,100%,100%);fill-opacity:1;" d="M 16.644531 29.933594 C 16.335938 29.960938 16.042969 29.914062 15.753906 29.875 C 14.511719 29.703125 13.300781 29.390625 12.105469 29.003906 C 11.359375 28.757812 10.609375 28.507812 9.894531 28.179688 C 9.53125 28.015625 9.179688 27.824219 8.875 27.5625 C 8.761719 27.464844 8.652344 27.351562 8.558594 27.226562 C 8.304688 26.886719 8.292969 26.519531 8.484375 26.144531 C 8.546875 26.027344 8.617188 25.914062 8.703125 25.816406 C 8.882812 25.597656 9.109375 25.542969 9.355469 25.679688 C 9.570312 25.804688 9.773438 25.953125 9.972656 26.105469 C 10.769531 26.707031 11.621094 27.214844 12.503906 27.683594 C 13.597656 28.265625 14.730469 28.757812 15.878906 29.226562 C 15.964844 29.261719 16.054688 29.296875 16.144531 29.328125 C 16.433594 29.417969 16.609375 29.601562 16.644531 29.933594 "/>
<path style=" stroke:none;fill-rule:nonzero;fill:rgb(100%,100%,100%);fill-opacity:1;" d="M 20.484375 24.457031 C 20.148438 24.421875 19.851562 24.367188 19.582031 24.226562 C 19.4375 24.148438 19.339844 24.015625 19.265625 23.867188 C 19.097656 23.535156 19.007812 23.175781 18.925781 22.820312 C 18.726562 21.953125 18.664062 21.070312 18.703125 20.179688 C 18.722656 19.679688 18.777344 19.179688 18.929688 18.699219 C 19.03125 18.378906 19.164062 18.078125 19.402344 17.835938 C 19.910156 17.3125 20.519531 17.496094 20.859375 17.9375 C 21.140625 18.300781 21.199219 18.71875 21.070312 19.152344 C 21.003906 19.378906 20.910156 19.597656 20.800781 19.804688 C 20.546875 20.3125 20.257812 20.804688 20.109375 21.355469 C 19.980469 21.84375 19.9375 22.332031 20.050781 22.824219 C 20.15625 23.28125 20.285156 23.734375 20.40625 24.191406 C 20.425781 24.269531 20.453125 24.34375 20.484375 24.457031 "/>
<path style=" stroke:none;fill-rule:nonzero;fill:rgb(100%,100%,100%);fill-opacity:1;" d="M 17.480469 30.957031 C 17.238281 30.988281 17.039062 31.027344 16.835938 31.042969 C 16.070312 31.105469 15.300781 31.113281 14.535156 31.089844 C 13.84375 31.070312 13.152344 31.019531 12.464844 30.933594 C 11.863281 30.855469 11.269531 30.75 10.695312 30.5625 C 10.351562 30.449219 10.019531 30.308594 9.742188 30.066406 C 9.355469 29.726562 9.371094 29.316406 9.589844 28.925781 C 9.664062 28.796875 9.769531 28.738281 9.917969 28.738281 C 10.136719 28.738281 10.339844 28.804688 10.539062 28.882812 C 10.894531 29.023438 11.246094 29.179688 11.605469 29.300781 C 12.332031 29.546875 13.078125 29.738281 13.832031 29.871094 C 14.308594 29.957031 14.792969 30.011719 15.273438 30.082031 C 15.804688 30.15625 16.339844 30.238281 16.839844 30.445312 C 17.054688 30.53125 17.257812 30.636719 17.40625 30.820312 C 17.425781 30.847656 17.441406 30.882812 17.480469 30.957031 "/>
<path style=" stroke:none;fill-rule:nonzero;fill:rgb(100%,100%,100%);fill-opacity:1;" d="M 34.292969 23.609375 C 34.605469 23.636719 34.890625 23.660156 35.175781 23.683594 C 35.609375 23.71875 36.042969 23.753906 36.472656 23.796875 C 37.078125 23.851562 37.683594 23.839844 38.289062 23.835938 C 38.464844 23.832031 38.644531 23.84375 38.816406 23.878906 C 39.308594 23.980469 39.480469 24.339844 39.511719 24.707031 C 39.523438 24.851562 39.5 25.003906 39.460938 25.144531 C 39.390625 25.378906 39.246094 25.554688 38.992188 25.632812 C 38.578125 25.757812 38.15625 25.796875 37.726562 25.777344 C 37.183594 25.746094 36.660156 25.644531 36.160156 25.425781 C 35.324219 25.0625 34.671875 24.4375 34.292969 23.609375 "/>
<path style=" stroke:none;fill-rule:nonzero;fill:rgb(100%,100%,100%);fill-opacity:1;" d="M 21.730469 29.210938 C 21.660156 29.210938 21.609375 29.214844 21.558594 29.210938 C 20.648438 29.167969 19.742188 29.054688 18.847656 28.859375 C 18.265625 28.730469 17.691406 28.574219 17.15625 28.308594 C 16.949219 28.207031 16.761719 28.078125 16.609375 27.902344 C 16.367188 27.621094 16.386719 27.328125 16.542969 27.0625 C 16.628906 26.917969 16.746094 26.789062 16.867188 26.675781 C 17.132812 26.4375 17.441406 26.398438 17.777344 26.523438 C 18.015625 26.613281 18.203125 26.78125 18.40625 26.925781 C 18.792969 27.195312 19.171875 27.472656 19.570312 27.726562 C 19.988281 27.992188 20.445312 28.1875 20.929688 28.289062 C 21.433594 28.394531 21.664062 28.703125 21.730469 29.210938 "/>
<path style=" stroke:none;fill-rule:nonzero;fill:rgb(100%,100%,100%);fill-opacity:1;" d="M 44.046875 25.871094 C 44.253906 25.976562 44.398438 26.132812 44.519531 26.308594 C 44.832031 26.746094 44.988281 27.238281 45.054688 27.765625 C 45.152344 28.519531 45.210938 29.277344 45.375 30.019531 C 45.480469 30.5 45.597656 30.980469 45.710938 31.460938 C 45.726562 31.535156 45.742188 31.613281 45.761719 31.6875 C 45.730469 31.703125 45.71875 31.71875 45.707031 31.71875 C 45.207031 31.671875 44.714844 31.585938 44.285156 31.289062 C 44.085938 31.152344 43.949219 30.960938 43.863281 30.734375 C 43.785156 30.527344 43.734375 30.316406 43.722656 30.089844 C 43.699219 29.457031 43.738281 28.824219 43.839844 28.195312 C 43.957031 27.46875 44.066406 26.738281 44.035156 25.996094 C 44.035156 25.960938 44.042969 25.925781 44.046875 25.871094 "/>
<path style=" stroke:none;fill-rule:nonzero;fill:rgb(100%,100%,100%);fill-opacity:1;" d="M 18.636719 31.859375 C 18.351562 32.007812 18.078125 32.074219 17.800781 32.113281 C 17.140625 32.210938 16.472656 32.296875 15.808594 32.390625 C 15.140625 32.480469 14.46875 32.582031 13.796875 32.664062 C 13.503906 32.703125 13.210938 32.734375 12.914062 32.730469 C 12.433594 32.722656 12.089844 32.488281 11.929688 32.023438 C 11.851562 31.808594 11.789062 31.589844 11.789062 31.332031 C 11.886719 31.328125 11.96875 31.324219 12.054688 31.324219 C 13.101562 31.34375 14.152344 31.363281 15.199219 31.371094 C 15.675781 31.378906 16.15625 31.378906 16.636719 31.351562 C 16.949219 31.335938 17.253906 31.332031 17.5625 31.367188 C 17.957031 31.417969 18.308594 31.574219 18.636719 31.859375 "/>
<path style=" stroke:none;fill-rule:nonzero;fill:rgb(100%,100%,100%);fill-opacity:1;" d="M 21.78125 27.453125 C 21.808594 27.644531 21.726562 27.808594 21.664062 27.964844 C 21.574219 28.050781 21.476562 28.054688 21.382812 28.027344 C 21.144531 27.957031 20.898438 27.894531 20.667969 27.800781 C 20.175781 27.601562 19.699219 27.371094 19.261719 27.0625 C 18.949219 26.839844 18.625 26.636719 18.3125 26.414062 C 18.199219 26.335938 18.097656 26.238281 18 26.136719 C 17.828125 25.957031 17.796875 25.742188 17.898438 25.523438 C 18.117188 25.027344 18.574219 24.769531 19.144531 24.90625 C 19.304688 24.941406 19.417969 25.046875 19.515625 25.167969 C 19.617188 25.296875 19.71875 25.425781 19.8125 25.554688 C 20.230469 26.128906 20.738281 26.601562 21.304688 27.023438 C 21.472656 27.152344 21.664062 27.257812 21.78125 27.453125 "/>
<path style=" stroke:none;fill-rule:nonzero;fill:rgb(100%,100%,100%);fill-opacity:1;" d="M 23.382812 35.449219 C 23.136719 35.4375 22.945312 35.316406 22.878906 35.117188 C 22.808594 34.902344 22.890625 34.652344 23.089844 34.511719 C 23.230469 34.414062 23.382812 34.355469 23.558594 34.335938 C 23.878906 34.296875 24.199219 34.246094 24.519531 34.195312 C 25.117188 34.097656 25.710938 34 26.304688 33.90625 C 26.773438 33.832031 27.238281 33.761719 27.703125 33.6875 C 27.949219 33.648438 28.144531 33.746094 28.238281 33.976562 C 28.277344 34.085938 28.300781 34.207031 28.296875 34.320312 C 28.289062 34.550781 28.167969 34.691406 27.941406 34.734375 C 27.683594 34.785156 27.417969 34.820312 27.15625 34.859375 C 26.628906 34.945312 26.097656 35.035156 25.566406 35.117188 C 24.964844 35.214844 24.359375 35.300781 23.753906 35.394531 C 23.632812 35.414062 23.507812 35.429688 23.382812 35.449219 "/>
<path style=" stroke:none;fill-rule:nonzero;fill:rgb(100%,100%,100%);fill-opacity:1;" d="M 24.558594 36.605469 C 24.503906 36.597656 24.398438 36.59375 24.304688 36.554688 C 23.996094 36.417969 23.925781 36.042969 24.152344 35.777344 C 24.300781 35.597656 24.5 35.535156 24.714844 35.5 C 25.464844 35.382812 26.214844 35.265625 26.964844 35.148438 C 27.589844 35.050781 28.21875 34.96875 28.84375 34.863281 C 29.359375 34.78125 29.539062 35.257812 29.4375 35.621094 C 29.386719 35.800781 29.25 35.894531 29.066406 35.921875 C 28.300781 36.039062 27.535156 36.160156 26.773438 36.277344 C 26.132812 36.378906 25.492188 36.480469 24.851562 36.578125 C 24.769531 36.59375 24.691406 36.59375 24.558594 36.605469 "/>
<path style=" stroke:none;fill-rule:nonzero;fill:rgb(100%,100%,100%);fill-opacity:1;" d="M 22.148438 34.300781 C 22.078125 34.285156 21.96875 34.277344 21.882812 34.234375 C 21.535156 34.058594 21.519531 33.589844 21.859375 33.359375 C 21.984375 33.277344 22.140625 33.21875 22.289062 33.195312 C 22.925781 33.085938 23.566406 32.988281 24.207031 32.890625 C 24.976562 32.773438 25.75 32.652344 26.519531 32.535156 C 26.707031 32.507812 26.851562 32.589844 26.953125 32.742188 C 27.046875 32.882812 27.082031 33.039062 27.058594 33.207031 C 27.023438 33.449219 26.898438 33.566406 26.632812 33.609375 C 26.40625 33.644531 26.179688 33.675781 25.957031 33.710938 C 25.496094 33.78125 25.039062 33.851562 24.582031 33.921875 C 23.90625 34.03125 23.230469 34.136719 22.550781 34.242188 C 22.429688 34.261719 22.304688 34.28125 22.148438 34.300781 "/>
<path style=" stroke:none;fill-rule:nonzero;fill:rgb(100%,100%,100%);fill-opacity:1;" d="M 25.042969 37.277344 C 25.054688 36.957031 25.359375 36.726562 25.6875 36.679688 C 26.167969 36.609375 26.648438 36.539062 27.128906 36.464844 C 27.796875 36.355469 28.464844 36.242188 29.132812 36.136719 C 29.394531 36.09375 29.65625 36.054688 29.917969 36.023438 C 30.160156 35.992188 30.351562 36.117188 30.425781 36.351562 C 30.46875 36.488281 30.484375 36.625 30.441406 36.765625 C 30.386719 36.957031 30.289062 37.050781 30.089844 37.082031 C 29.515625 37.167969 28.941406 37.253906 28.367188 37.34375 C 27.75 37.445312 27.132812 37.546875 26.515625 37.648438 C 26.253906 37.6875 25.988281 37.707031 25.730469 37.761719 C 25.398438 37.832031 25.046875 37.652344 25.042969 37.277344 "/>
<path style=" stroke:none;fill-rule:nonzero;fill:rgb(100%,100%,100%);fill-opacity:1;" d="M 30.863281 37.246094 C 31.164062 37.449219 31.222656 37.695312 31.171875 37.976562 C 31.136719 38.160156 31.027344 38.28125 30.835938 38.308594 C 30.332031 38.386719 29.828125 38.464844 29.328125 38.546875 C 28.773438 38.636719 28.222656 38.730469 27.671875 38.824219 C 27.351562 38.875 27.03125 38.925781 26.710938 38.972656 C 26.644531 38.984375 26.578125 38.984375 26.511719 38.984375 C 26.304688 38.992188 26.152344 38.902344 26.0625 38.71875 C 25.972656 38.53125 26 38.34375 26.125 38.179688 C 26.257812 38.007812 26.4375 37.914062 26.652344 37.882812 C 27.265625 37.789062 27.875 37.691406 28.484375 37.59375 C 29.117188 37.492188 29.75 37.394531 30.386719 37.296875 C 30.550781 37.269531 30.71875 37.261719 30.863281 37.246094 "/>
<path style=" stroke:none;fill-rule:nonzero;fill:rgb(100%,100%,100%);fill-opacity:1;" d="M 26.839844 39.753906 C 26.839844 39.460938 27.035156 39.226562 27.335938 39.164062 C 27.566406 39.117188 27.800781 39.078125 28.03125 39.039062 C 28.597656 38.945312 29.164062 38.847656 29.730469 38.753906 C 30.234375 38.667969 30.734375 38.585938 31.238281 38.503906 C 31.414062 38.472656 31.554688 38.542969 31.648438 38.699219 C 31.773438 38.910156 31.78125 39.132812 31.691406 39.355469 C 31.636719 39.492188 31.515625 39.546875 31.375 39.566406 C 31.113281 39.609375 30.851562 39.648438 30.589844 39.695312 C 30.03125 39.789062 29.472656 39.890625 28.914062 39.984375 C 28.417969 40.070312 27.925781 40.148438 27.429688 40.230469 C 27.394531 40.234375 27.355469 40.238281 27.320312 40.238281 C 27.023438 40.238281 26.835938 40.050781 26.839844 39.753906 "/>
<path style=" stroke:none;fill-rule:nonzero;fill:rgb(100%,100%,100%);fill-opacity:1;" d="M 16.171875 34.839844 C 16.015625 34.835938 15.863281 34.816406 15.722656 34.730469 C 15.460938 34.574219 15.421875 34.28125 15.65625 34.089844 C 15.785156 33.984375 15.949219 33.898438 16.105469 33.863281 C 16.496094 33.78125 16.890625 33.734375 17.285156 33.671875 C 17.910156 33.578125 18.535156 33.480469 19.164062 33.386719 C 19.433594 33.347656 19.703125 33.304688 19.972656 33.269531 C 20.117188 33.25 20.265625 33.242188 20.40625 33.308594 C 20.539062 33.367188 20.644531 33.449219 20.699219 33.59375 C 20.796875 33.847656 20.710938 34.078125 20.449219 34.160156 C 20.238281 34.222656 20.015625 34.25 19.800781 34.285156 C 19.347656 34.359375 18.898438 34.429688 18.445312 34.5 C 17.847656 34.589844 17.25 34.679688 16.652344 34.773438 C 16.492188 34.796875 16.332031 34.816406 16.171875 34.839844 "/>
<path style=" stroke:none;fill-rule:nonzero;fill:rgb(100%,100%,100%);fill-opacity:1;" d="M 17.53125 36.035156 C 17.40625 36.007812 17.269531 35.992188 17.148438 35.945312 C 16.832031 35.8125 16.785156 35.480469 17.042969 35.253906 C 17.222656 35.097656 17.449219 35.046875 17.675781 35.011719 C 18.421875 34.894531 19.171875 34.777344 19.921875 34.664062 C 20.417969 34.589844 20.914062 34.519531 21.410156 34.457031 C 21.652344 34.425781 21.882812 34.46875 22.027344 34.703125 C 22.1875 34.964844 22.097656 35.242188 21.8125 35.351562 C 21.703125 35.394531 21.582031 35.410156 21.46875 35.429688 C 20.703125 35.550781 19.941406 35.667969 19.175781 35.785156 C 18.679688 35.863281 18.183594 35.9375 17.691406 36.011719 C 17.640625 36.015625 17.585938 36.019531 17.535156 36.023438 C 17.535156 36.027344 17.535156 36.03125 17.53125 36.035156 "/>
<path style=" stroke:none;fill-rule:nonzero;fill:rgb(100%,100%,100%);fill-opacity:1;" d="M 18.667969 37.175781 C 18.578125 37.152344 18.445312 37.132812 18.328125 37.082031 C 18.023438 36.945312 17.980469 36.617188 18.242188 36.40625 C 18.332031 36.332031 18.441406 36.273438 18.550781 36.238281 C 18.738281 36.183594 18.9375 36.148438 19.132812 36.117188 C 19.773438 36.015625 20.414062 35.917969 21.054688 35.820312 C 21.585938 35.742188 22.117188 35.65625 22.652344 35.589844 C 22.90625 35.558594 23.15625 35.679688 23.257812 35.90625 C 23.359375 36.144531 23.289062 36.375 23.050781 36.476562 C 22.921875 36.53125 22.78125 36.558594 22.644531 36.578125 C 21.921875 36.691406 21.203125 36.796875 20.480469 36.90625 C 19.964844 36.984375 19.449219 37.066406 18.929688 37.148438 C 18.859375 37.15625 18.785156 37.164062 18.667969 37.175781 "/>
<path style=" stroke:none;fill-rule:nonzero;fill:rgb(100%,100%,100%);fill-opacity:1;" d="M 14.890625 33.746094 C 14.761719 33.71875 14.625 33.710938 14.503906 33.664062 C 14.160156 33.527344 14.121094 33.175781 14.410156 32.953125 C 14.632812 32.78125 14.894531 32.742188 15.15625 32.703125 C 15.8125 32.601562 16.46875 32.503906 17.121094 32.402344 C 17.640625 32.324219 18.15625 32.242188 18.675781 32.167969 C 18.820312 32.148438 18.96875 32.148438 19.109375 32.207031 C 19.265625 32.269531 19.367188 32.375 19.425781 32.527344 C 19.503906 32.746094 19.410156 32.976562 19.191406 33.050781 C 19.015625 33.109375 18.832031 33.140625 18.652344 33.167969 C 18.0625 33.261719 17.472656 33.347656 16.882812 33.441406 C 16.316406 33.527344 15.746094 33.617188 15.179688 33.707031 C 15.085938 33.71875 14.988281 33.722656 14.894531 33.730469 C 14.890625 33.734375 14.890625 33.742188 14.890625 33.746094 "/>
<path style=" stroke:none;fill-rule:nonzero;fill:rgb(100%,100%,100%);fill-opacity:1;" d="M 24.859375 32.507812 C 24.175781 32.613281 23.476562 32.71875 22.777344 32.828125 C 22.175781 32.917969 21.570312 33.015625 20.96875 33.113281 C 20.703125 33.15625 20.488281 33.074219 20.394531 32.886719 C 20.28125 32.664062 20.332031 32.375 20.539062 32.207031 C 20.640625 32.128906 20.765625 32.054688 20.890625 32.035156 C 21.8125 31.882812 22.738281 31.742188 23.660156 31.601562 C 23.894531 31.566406 24.125 31.53125 24.359375 31.5 C 24.710938 31.453125 24.921875 31.59375 25.019531 31.933594 C 25.03125 31.976562 25.039062 32.019531 25.046875 32.0625 C 25.085938 32.253906 25.039062 32.363281 24.859375 32.507812 "/>
<path style=" stroke:none;fill-rule:nonzero;fill:rgb(100%,100%,100%);fill-opacity:1;" d="M 22.460938 29.9375 C 22.28125 30 22.105469 30.078125 21.917969 30.113281 C 21.40625 30.214844 20.890625 30.296875 20.375 30.382812 C 20.023438 30.441406 19.675781 30.5 19.324219 30.539062 C 19.03125 30.578125 18.738281 30.609375 18.445312 30.605469 C 17.863281 30.601562 17.441406 30.332031 17.320312 29.667969 C 17.300781 29.558594 17.28125 29.449219 17.285156 29.339844 C 17.289062 29.164062 17.378906 29.066406 17.554688 29.042969 C 17.640625 29.03125 17.730469 29.035156 17.816406 29.054688 C 18.089844 29.117188 18.363281 29.175781 18.628906 29.261719 C 19.347656 29.492188 20.078125 29.589844 20.832031 29.59375 C 21.148438 29.59375 21.464844 29.613281 21.777344 29.652344 C 22.015625 29.679688 22.253906 29.738281 22.457031 29.875 C 22.457031 29.894531 22.457031 29.917969 22.460938 29.9375 "/>
<path style=" stroke:none;fill-rule:nonzero;fill:rgb(100%,100%,100%);fill-opacity:1;" d="M 19.8125 38.292969 C 19.710938 38.261719 19.566406 38.242188 19.445312 38.179688 C 19.164062 38.035156 19.132812 37.710938 19.375 37.507812 C 19.558594 37.351562 19.777344 37.296875 20.007812 37.265625 C 20.667969 37.171875 21.332031 37.074219 21.996094 36.976562 C 22.519531 36.90625 23.042969 36.835938 23.570312 36.769531 C 23.703125 36.75 23.832031 36.761719 23.957031 36.832031 C 24.148438 36.941406 24.257812 37.140625 24.222656 37.34375 C 24.191406 37.535156 24.054688 37.664062 23.824219 37.699219 C 23.300781 37.78125 22.777344 37.851562 22.253906 37.929688 C 21.757812 38.003906 21.261719 38.082031 20.769531 38.15625 C 20.460938 38.203125 20.15625 38.242188 19.8125 38.292969 "/>
<path style=" stroke:none;fill-rule:nonzero;fill:rgb(100%,100%,100%);fill-opacity:1;" d="M 27.046875 41.605469 C 27.214844 41.617188 27.367188 41.65625 27.496094 41.777344 C 27.636719 41.914062 27.679688 42.082031 27.628906 42.261719 C 27.582031 42.441406 27.433594 42.535156 27.253906 42.566406 C 26.957031 42.613281 26.65625 42.652344 26.359375 42.699219 C 25.871094 42.769531 25.382812 42.84375 24.894531 42.914062 C 24.378906 42.988281 23.859375 43.0625 23.34375 43.136719 C 23.1875 43.15625 23.035156 43.128906 22.890625 43.058594 C 22.582031 42.90625 22.542969 42.578125 22.808594 42.359375 C 22.949219 42.242188 23.117188 42.179688 23.292969 42.152344 C 23.726562 42.082031 24.164062 42.023438 24.601562 41.960938 C 25.078125 41.890625 25.550781 41.820312 26.023438 41.753906 C 26.367188 41.703125 26.707031 41.652344 27.046875 41.605469 "/>
<path style=" stroke:none;fill-rule:nonzero;fill:rgb(100%,100%,100%);fill-opacity:1;" d="M 21.191406 40.246094 C 21.242188 39.988281 21.417969 39.847656 21.648438 39.785156 C 21.855469 39.726562 22.066406 39.691406 22.277344 39.660156 C 22.84375 39.574219 23.414062 39.496094 23.984375 39.414062 C 24.507812 39.34375 25.03125 39.265625 25.558594 39.199219 C 25.773438 39.171875 25.96875 39.21875 26.109375 39.40625 C 26.332031 39.707031 26.199219 40.0625 25.832031 40.132812 C 25.558594 40.183594 25.28125 40.21875 25.003906 40.261719 C 24.238281 40.375 23.472656 40.488281 22.710938 40.601562 C 22.460938 40.640625 22.214844 40.679688 21.964844 40.703125 C 21.851562 40.714844 21.730469 40.707031 21.613281 40.683594 C 21.375 40.636719 21.21875 40.503906 21.191406 40.246094 "/>
<path style=" stroke:none;fill-rule:nonzero;fill:rgb(100%,100%,100%);fill-opacity:1;" d="M 27.0625 40.882812 C 26.988281 41.199219 26.882812 41.296875 26.601562 41.339844 C 26.078125 41.421875 25.554688 41.507812 25.03125 41.585938 C 24.550781 41.65625 24.066406 41.714844 23.585938 41.78125 C 23.367188 41.816406 23.152344 41.859375 22.933594 41.886719 C 22.71875 41.917969 22.507812 41.933594 22.304688 41.835938 C 21.972656 41.671875 21.941406 41.339844 22.234375 41.113281 C 22.359375 41.015625 22.503906 40.957031 22.65625 40.933594 C 23.253906 40.84375 23.851562 40.761719 24.449219 40.671875 C 24.894531 40.605469 25.335938 40.539062 25.78125 40.472656 C 26.015625 40.441406 26.25 40.410156 26.484375 40.394531 C 26.679688 40.378906 26.847656 40.460938 26.957031 40.625 C 27.011719 40.710938 27.035156 40.8125 27.0625 40.882812 "/>
<path style=" stroke:none;fill-rule:nonzero;fill:rgb(100%,100%,100%);fill-opacity:1;" d="M 21.089844 39.476562 C 20.847656 39.480469 20.679688 39.46875 20.53125 39.367188 C 20.300781 39.214844 20.273438 38.945312 20.46875 38.746094 C 20.617188 38.597656 20.804688 38.53125 21.003906 38.5 C 21.613281 38.40625 22.226562 38.320312 22.835938 38.230469 C 23.417969 38.148438 24.003906 38.066406 24.585938 37.976562 C 24.730469 37.957031 24.878906 37.957031 25.019531 38.007812 C 25.160156 38.058594 25.257812 38.15625 25.3125 38.292969 C 25.421875 38.566406 25.300781 38.824219 25.015625 38.894531 C 24.878906 38.929688 24.738281 38.949219 24.601562 38.96875 C 23.792969 39.089844 22.988281 39.210938 22.179688 39.328125 C 21.792969 39.382812 21.40625 39.433594 21.089844 39.476562 "/>
<path style=" stroke:none;fill-rule:nonzero;fill:rgb(100%,100%,100%);fill-opacity:1;" d="M 32.171875 40.339844 C 32.15625 40.636719 32.019531 40.792969 31.730469 40.84375 C 30.867188 40.988281 30.003906 41.136719 29.140625 41.277344 C 28.890625 41.320312 28.644531 41.351562 28.394531 41.390625 C 28.207031 41.417969 28.039062 41.375 27.921875 41.21875 C 27.800781 41.0625 27.785156 40.878906 27.863281 40.695312 C 27.953125 40.484375 28.117188 40.359375 28.34375 40.316406 C 28.582031 40.269531 28.824219 40.234375 29.0625 40.195312 C 29.476562 40.125 29.890625 40.054688 30.304688 39.984375 C 30.722656 39.917969 31.148438 39.851562 31.566406 39.78125 C 31.773438 39.75 31.957031 39.78125 32.054688 39.984375 C 32.109375 40.097656 32.132812 40.222656 32.171875 40.339844 "/>
<path style=" stroke:none;fill-rule:nonzero;fill:rgb(100%,100%,100%);fill-opacity:1;" d="M 23.316406 31.347656 C 22.503906 31.472656 21.679688 31.597656 20.859375 31.726562 C 20.539062 31.777344 20.21875 31.835938 19.898438 31.886719 C 19.8125 31.898438 19.722656 31.90625 19.636719 31.90625 C 19.308594 31.90625 19.09375 31.621094 19.175781 31.304688 C 19.253906 31.011719 19.464844 30.859375 19.742188 30.8125 C 20.289062 30.722656 20.835938 30.648438 21.382812 30.566406 C 21.878906 30.488281 22.371094 30.417969 22.867188 30.332031 C 23.09375 30.292969 23.25 30.378906 23.375 30.558594 C 23.484375 30.71875 23.519531 30.890625 23.5 31.082031 C 23.484375 31.191406 23.441406 31.277344 23.316406 31.347656 "/>
<path style=" stroke:none;fill-rule:nonzero;fill:rgb(100%,100%,100%);fill-opacity:1;" d="M 24.625 46.996094 C 24.546875 46.980469 24.441406 46.972656 24.34375 46.9375 C 24.015625 46.816406 23.949219 46.445312 24.214844 46.210938 C 24.355469 46.085938 24.53125 46.019531 24.714844 45.992188 C 25.691406 45.839844 26.664062 45.695312 27.640625 45.546875 C 27.800781 45.523438 27.960938 45.496094 28.121094 45.46875 C 28.398438 45.425781 28.636719 45.546875 28.742188 45.78125 C 28.867188 46.058594 28.722656 46.359375 28.425781 46.414062 C 28.035156 46.484375 27.640625 46.539062 27.246094 46.601562 C 26.796875 46.671875 26.34375 46.742188 25.894531 46.8125 C 25.5 46.875 25.109375 46.929688 24.714844 46.988281 C 24.691406 46.992188 24.671875 46.992188 24.625 46.996094 "/>
<path style=" stroke:none;fill-rule:nonzero;fill:rgb(100%,100%,100%);fill-opacity:1;" d="M 24.902344 48.3125 C 24.796875 48.289062 24.683594 48.277344 24.582031 48.242188 C 24.246094 48.125 24.167969 47.757812 24.441406 47.527344 C 24.554688 47.429688 24.707031 47.359375 24.851562 47.328125 C 25.210938 47.25 25.578125 47.203125 25.941406 47.144531 C 26.277344 47.09375 26.609375 47.046875 26.945312 46.996094 C 27.390625 46.925781 27.832031 46.855469 28.277344 46.789062 C 28.363281 46.777344 28.453125 46.773438 28.542969 46.78125 C 28.78125 46.800781 28.972656 46.976562 29.015625 47.210938 C 29.050781 47.429688 28.941406 47.632812 28.722656 47.695312 C 28.542969 47.746094 28.347656 47.769531 28.160156 47.800781 C 27.527344 47.898438 26.894531 48 26.261719 48.097656 C 25.863281 48.164062 25.460938 48.222656 25.0625 48.285156 C 25.011719 48.292969 24.957031 48.292969 24.90625 48.292969 C 24.90625 48.300781 24.90625 48.304688 24.902344 48.3125 "/>
<path style=" stroke:none;fill-rule:nonzero;fill:rgb(100%,100%,100%);fill-opacity:1;" d="M 24.324219 45.710938 C 24.234375 45.679688 24.089844 45.660156 23.976562 45.59375 C 23.742188 45.453125 23.71875 45.167969 23.902344 44.964844 C 24.042969 44.808594 24.230469 44.742188 24.429688 44.710938 C 25.0625 44.605469 25.695312 44.511719 26.328125 44.410156 C 26.84375 44.332031 27.363281 44.253906 27.878906 44.179688 C 28.152344 44.140625 28.402344 44.285156 28.484375 44.523438 C 28.585938 44.808594 28.449219 45.058594 28.152344 45.128906 C 28.042969 45.152344 27.933594 45.164062 27.824219 45.183594 C 27.191406 45.28125 26.558594 45.386719 25.925781 45.480469 C 25.4375 45.554688 24.949219 45.617188 24.460938 45.6875 C 24.429688 45.691406 24.402344 45.699219 24.324219 45.710938 "/>
<path style=" stroke:none;fill-rule:nonzero;fill:rgb(100%,100%,100%);fill-opacity:1;" d="M 23.996094 44.414062 C 23.851562 44.40625 23.714844 44.386719 23.589844 44.308594 C 23.363281 44.171875 23.3125 43.910156 23.476562 43.703125 C 23.609375 43.535156 23.789062 43.457031 23.988281 43.421875 C 24.25 43.375 24.511719 43.335938 24.773438 43.296875 C 25.523438 43.179688 26.273438 43.058594 27.023438 42.945312 C 27.203125 42.917969 27.386719 42.894531 27.570312 42.882812 C 27.808594 42.871094 27.976562 42.992188 28.078125 43.207031 C 28.191406 43.453125 28.089844 43.71875 27.832031 43.800781 C 27.660156 43.851562 27.472656 43.875 27.292969 43.902344 C 26.6875 44 26.085938 44.09375 25.480469 44.183594 C 24.984375 44.261719 24.492188 44.335938 23.996094 44.414062 "/>
<path style=" stroke:none;fill-rule:nonzero;fill:rgb(100%,100%,100%);fill-opacity:1;" d="M 32.105469 41.113281 C 32.316406 41.097656 32.453125 41.1875 32.527344 41.359375 C 32.570312 41.457031 32.59375 41.570312 32.59375 41.679688 C 32.59375 41.945312 32.464844 42.085938 32.207031 42.128906 C 31.675781 42.210938 31.148438 42.296875 30.617188 42.378906 C 30.027344 42.472656 29.4375 42.558594 28.847656 42.648438 C 28.605469 42.683594 28.394531 42.582031 28.3125 42.394531 C 28.214844 42.171875 28.28125 41.902344 28.492188 41.765625 C 28.605469 41.691406 28.742188 41.632812 28.875 41.609375 C 29.789062 41.460938 30.707031 41.320312 31.621094 41.175781 C 31.785156 41.152344 31.957031 41.132812 32.105469 41.113281 "/>
<path style=" stroke:none;fill-rule:nonzero;fill:rgb(100%,100%,100%);fill-opacity:1;" d="M 32.703125 43.367188 C 32.464844 43.40625 32.210938 43.445312 31.957031 43.488281 C 31.234375 43.601562 30.519531 43.722656 29.796875 43.835938 C 29.574219 43.871094 29.347656 43.914062 29.121094 43.925781 C 28.867188 43.941406 28.722656 43.851562 28.640625 43.683594 C 28.542969 43.492188 28.585938 43.253906 28.746094 43.09375 C 28.859375 42.984375 28.996094 42.914062 29.152344 42.890625 C 29.859375 42.78125 30.566406 42.675781 31.269531 42.570312 C 31.589844 42.523438 31.90625 42.46875 32.226562 42.414062 C 32.257812 42.410156 32.285156 42.40625 32.316406 42.402344 C 32.601562 42.367188 32.746094 42.425781 32.84375 42.617188 C 32.96875 42.859375 32.9375 43.125 32.769531 43.316406 C 32.761719 43.324219 32.746094 43.332031 32.703125 43.367188 "/>
<path style=" stroke:none;fill-rule:nonzero;fill:rgb(100%,100%,100%);fill-opacity:1;" d="M 29.550781 45.191406 C 29.242188 45.199219 29.0625 45.03125 29.050781 44.75 C 29.035156 44.433594 29.21875 44.210938 29.53125 44.164062 C 30.179688 44.074219 30.832031 43.988281 31.480469 43.902344 C 31.765625 43.863281 32.050781 43.820312 32.335938 43.78125 C 32.730469 43.734375 32.957031 43.953125 32.90625 44.355469 C 32.875 44.617188 32.824219 44.742188 32.5 44.785156 C 31.691406 44.894531 30.878906 45.015625 30.070312 45.128906 C 29.886719 45.152344 29.703125 45.171875 29.550781 45.191406 "/>
<path style=" stroke:none;fill-rule:nonzero;fill:rgb(100%,100%,100%);fill-opacity:1;" d="M 29.730469 46.472656 C 29.460938 46.476562 29.292969 46.324219 29.277344 46.074219 C 29.257812 45.753906 29.40625 45.546875 29.71875 45.492188 C 30.121094 45.425781 30.523438 45.378906 30.921875 45.320312 C 31.308594 45.269531 31.695312 45.21875 32.082031 45.164062 C 32.242188 45.144531 32.40625 45.121094 32.566406 45.101562 C 32.710938 45.085938 32.820312 45.140625 32.898438 45.265625 C 32.996094 45.425781 33.027344 45.597656 32.984375 45.777344 C 32.945312 45.941406 32.84375 46.042969 32.664062 46.070312 C 32.320312 46.113281 31.976562 46.160156 31.636719 46.210938 C 31.058594 46.292969 30.484375 46.375 29.90625 46.457031 C 29.84375 46.464844 29.777344 46.46875 29.730469 46.472656 "/>
<path style=" stroke:none;fill-rule:nonzero;fill:rgb(100%,100%,100%);fill-opacity:1;" d="M 32.667969 47.390625 C 32.230469 47.453125 31.792969 47.515625 31.355469 47.574219 C 31.007812 47.625 30.65625 47.671875 30.308594 47.722656 C 30.15625 47.742188 30.003906 47.769531 29.847656 47.789062 C 29.675781 47.808594 29.53125 47.71875 29.460938 47.558594 C 29.300781 47.195312 29.523438 46.828125 29.914062 46.78125 C 30.300781 46.738281 30.6875 46.679688 31.074219 46.625 C 31.449219 46.574219 31.820312 46.527344 32.191406 46.476562 C 32.273438 46.464844 32.351562 46.457031 32.429688 46.441406 C 32.578125 46.417969 32.683594 46.472656 32.765625 46.601562 C 32.914062 46.84375 32.886719 47.152344 32.667969 47.390625 "/>
<path style=" stroke:none;fill-rule:nonzero;fill:rgb(100%,100%,100%);fill-opacity:1;" d="M 43.625 26.253906 C 43.109375 26.78125 42.515625 27.089844 41.765625 26.964844 C 41.246094 26.878906 41.027344 26.46875 41.21875 25.976562 C 41.378906 25.558594 41.695312 25.324219 42.132812 25.273438 C 42.386719 25.242188 42.628906 25.335938 42.84375 25.46875 C 43.164062 25.660156 43.414062 25.929688 43.625 26.253906 "/>
<path style=" stroke:none;fill-rule:nonzero;fill:rgb(100%,100%,100%);fill-opacity:1;" d="M 29.636719 48.734375 C 29.640625 48.398438 29.773438 48.214844 30.050781 48.160156 C 30.328125 48.105469 30.605469 48.074219 30.882812 48.035156 C 31.277344 47.980469 31.671875 47.925781 32.066406 47.878906 C 32.28125 47.851562 32.382812 47.910156 32.453125 48.117188 C 32.484375 48.21875 32.511719 48.332031 32.503906 48.441406 C 32.492188 48.699219 32.382812 48.808594 32.128906 48.847656 C 31.476562 48.941406 30.832031 49.035156 30.179688 49.128906 C 29.902344 49.167969 29.765625 49.113281 29.679688 48.914062 C 29.648438 48.84375 29.644531 48.761719 29.636719 48.734375 "/>
<path style=" stroke:none;fill-rule:nonzero;fill:rgb(100%,100%,100%);fill-opacity:1;" d="M 22.871094 26.773438 C 22.707031 26.984375 22.515625 27.09375 22.273438 27.148438 C 21.207031 26.605469 20.433594 25.738281 19.703125 24.796875 C 19.75 24.78125 19.769531 24.769531 19.789062 24.769531 C 20.316406 24.832031 20.828125 24.933594 21.210938 25.347656 C 21.570312 25.738281 21.988281 26.066406 22.417969 26.378906 C 22.578125 26.492188 22.714844 26.636719 22.871094 26.773438 "/>
<path style=" stroke:none;fill-rule:nonzero;fill:rgb(100%,100%,100%);fill-opacity:1;" d="M 44.421875 24.90625 C 44.054688 24.832031 43.734375 24.636719 43.316406 24.601562 C 43.410156 24.675781 43.46875 24.734375 43.539062 24.773438 C 43.707031 24.871094 43.878906 24.957031 44.042969 25.050781 C 44.300781 25.195312 44.4375 25.359375 44.578125 25.671875 C 44.453125 25.640625 44.355469 25.585938 44.257812 25.53125 C 44.035156 25.40625 43.824219 25.277344 43.597656 25.167969 C 43.203125 24.980469 42.785156 24.910156 42.347656 24.972656 C 42.140625 25.003906 41.925781 25.019531 41.710938 25.03125 C 41.632812 25.039062 41.546875 25.027344 41.46875 25.011719 C 41.34375 24.980469 41.230469 24.921875 41.195312 24.78125 C 41.164062 24.652344 41.226562 24.546875 41.324219 24.472656 C 41.421875 24.394531 41.527344 24.316406 41.640625 24.277344 C 41.84375 24.207031 42.050781 24.144531 42.261719 24.121094 C 42.953125 24.039062 43.59375 24.175781 44.15625 24.617188 C 44.210938 24.660156 44.265625 24.714844 44.316406 24.769531 C 44.351562 24.808594 44.386719 24.859375 44.421875 24.90625 "/>
</g>
</svg>
