<?xml version="1.0" encoding="UTF-8"?>
<svg xmlns="http://www.w3.org/2000/svg" xmlns:xlink="http://www.w3.org/1999/xlink" width="56pt" height="56pt" viewBox="0 0 56 56" version="1.1">
<g id="surface1">
<rect x="0" y="0" width="56" height="56" style="fill:rgb(12.718201%,22.096252%,40.382385%);fill-opacity:1;stroke:none;"/>
<path style=" stroke:none;fill-rule:nonzero;fill:rgb(100%,100%,100%);fill-opacity:1;" d="M 46.871094 9.207031 C 46.871094 11.699219 46.871094 13.984375 46.871094 16.289062 C 46.144531 16.914062 45.28125 16.644531 44.492188 16.648438 C 37.210938 16.667969 29.925781 16.652344 22.644531 16.65625 C 21.652344 16.660156 20.644531 16.609375 19.671875 16.765625 C 17.828125 17.0625 16.511719 18.699219 16.597656 20.410156 C 16.683594 22.078125 18.21875 23.554688 20.105469 23.578125 C 24.90625 23.636719 29.707031 23.527344 34.503906 23.652344 C 36.375 23.699219 38.347656 23.894531 40.082031 24.542969 C 45.59375 26.597656 48.238281 31.433594 47.410156 37.402344 C 46.734375 42.269531 41.933594 46.394531 36.351562 46.789062 C 34.378906 46.929688 32.382812 46.851562 30.398438 46.851562 C 23.859375 46.859375 17.324219 46.863281 10.785156 46.855469 C 10.0625 46.855469 9.34375 46.785156 8.46875 46.738281 C 8.46875 44.222656 8.46875 41.859375 8.46875 39.28125 C 9.226562 39.226562 9.9375 39.132812 10.652344 39.132812 C 18.679688 39.132812 26.707031 39.132812 34.730469 39.175781 C 36.324219 39.183594 37.703125 38.796875 38.65625 37.492188 C 39.542969 36.277344 39.820312 34.898438 39.03125 33.53125 C 38.191406 32.070312 36.890625 31.300781 35.160156 31.316406 C 32.429688 31.332031 29.699219 31.332031 26.96875 31.335938 C 24.652344 31.335938 22.328125 31.417969 20.015625 31.308594 C 15.609375 31.105469 11.820312 29.433594 9.800781 25.386719 C 6.25 18.273438 9.855469 10.65625 18.296875 9.234375 C 19.023438 9.113281 19.78125 9.136719 20.523438 9.132812 C 28.800781 9.125 37.074219 9.128906 45.347656 9.128906 C 45.757812 9.128906 46.167969 9.167969 46.871094 9.207031 "/>
</g>
</svg>
