<?xml version="1.0" encoding="UTF-8"?>
<svg xmlns="http://www.w3.org/2000/svg" xmlns:xlink="http://www.w3.org/1999/xlink" width="56pt" height="56pt" viewBox="0 0 56 56" version="1.1">
<g id="surface1">
<rect x="0" y="0" width="56" height="56" style="fill:rgb(95.66803%,95.779419%,96.777344%);fill-opacity:1;stroke:none;"/>
<path style=" stroke:none;fill-rule:nonzero;fill:rgb(31.047058%,70.297241%,91.236877%);fill-opacity:1;" d="M 30.949219 50.679688 C 30.742188 50.640625 30.535156 50.601562 30.328125 50.558594 C 29.253906 50.34375 28.308594 49.867188 27.457031 49.195312 C 27.15625 48.957031 26.875 48.695312 26.597656 48.429688 C 26.054688 47.90625 25.59375 47.3125 25.164062 46.695312 C 24.515625 45.765625 23.96875 44.777344 23.484375 43.757812 C 23.015625 42.773438 22.609375 41.761719 22.230469 40.734375 C 21.777344 39.492188 21.386719 38.234375 21.015625 36.964844 C 20.871094 36.464844 20.75 35.953125 20.617188 35.445312 C 20.476562 34.898438 20.328125 34.347656 20.199219 33.796875 C 20.007812 32.976562 19.828125 32.15625 19.652344 31.335938 C 19.507812 30.652344 19.363281 29.964844 19.234375 29.277344 C 19.113281 28.617188 19 27.957031 18.914062 27.292969 C 18.863281 26.914062 18.851562 26.527344 18.867188 26.144531 C 18.882812 25.734375 18.949219 25.320312 19.195312 24.96875 C 19.363281 24.730469 19.59375 24.609375 19.886719 24.585938 C 20.382812 24.546875 20.855469 24.660156 21.316406 24.820312 C 22.304688 25.167969 23.25 25.625 24.210938 26.042969 C 24.886719 26.339844 25.570312 26.613281 26.25 26.898438 C 26.65625 27.070312 27.066406 27.242188 27.472656 27.414062 C 28.125 27.6875 28.78125 27.957031 29.433594 28.226562 C 29.953125 28.445312 30.46875 28.664062 30.984375 28.878906 C 31.601562 29.136719 32.226562 29.386719 32.84375 29.644531 C 33.300781 29.835938 33.753906 30.03125 34.210938 30.222656 C 34.808594 30.472656 35.410156 30.714844 36.011719 30.964844 C 36.96875 31.363281 37.929688 31.765625 38.890625 32.164062 C 39.597656 32.460938 40.304688 32.753906 41.015625 33.046875 C 41.722656 33.339844 42.429688 33.640625 43.136719 33.933594 C 43.851562 34.230469 44.566406 34.527344 45.28125 34.824219 C 45.882812 35.074219 46.480469 35.324219 47.078125 35.574219 C 47.160156 35.609375 47.246094 35.632812 47.328125 35.667969 C 47.40625 35.703125 47.480469 35.742188 47.589844 35.796875 C 47.511719 35.890625 47.453125 35.964844 47.390625 36.03125 C 46.535156 36.886719 45.679688 37.742188 44.828125 38.601562 C 43.59375 39.84375 42.367188 41.089844 41.140625 42.335938 C 40.082031 43.40625 39.023438 44.480469 37.96875 45.550781 C 36.921875 46.613281 35.875 47.671875 34.828125 48.734375 C 34.296875 49.277344 33.765625 49.820312 33.238281 50.367188 C 33.125 50.484375 33.003906 50.554688 32.839844 50.578125 C 32.652344 50.601562 32.464844 50.644531 32.28125 50.679688 C 31.835938 50.679688 31.394531 50.679688 30.949219 50.679688 "/>
<path style=" stroke:none;fill-rule:nonzero;fill:rgb(31.047058%,70.297241%,91.236877%);fill-opacity:1;" d="M 14.027344 5.320312 C 14.183594 5.359375 14.34375 5.394531 14.496094 5.4375 C 14.976562 5.574219 15.464844 5.703125 15.941406 5.847656 C 16.425781 6 16.90625 6.171875 17.386719 6.332031 C 18.121094 6.574219 18.855469 6.820312 19.59375 7.0625 C 20.570312 7.386719 21.550781 7.707031 22.53125 8.027344 C 23.519531 8.351562 24.507812 8.675781 25.496094 9 C 26.414062 9.300781 27.332031 9.59375 28.25 9.894531 C 28.824219 10.082031 29.398438 10.273438 29.96875 10.464844 C 30.03125 10.484375 30.085938 10.515625 30.171875 10.550781 C 30.113281 10.601562 30.082031 10.640625 30.039062 10.664062 C 29.277344 11.113281 28.515625 11.5625 27.753906 12.011719 C 26.890625 12.519531 26.027344 13.035156 25.164062 13.542969 C 23.863281 14.308594 22.554688 15.074219 21.253906 15.839844 C 20.445312 16.3125 19.640625 16.789062 18.835938 17.265625 C 18.46875 17.480469 18.085938 17.652344 17.671875 17.746094 C 17.039062 17.894531 16.445312 17.769531 15.902344 17.40625 C 15.386719 17.0625 15.023438 16.589844 14.707031 16.066406 C 14.285156 15.375 13.980469 14.632812 13.730469 13.867188 C 13.523438 13.222656 13.34375 12.566406 13.179688 11.910156 C 12.96875 11.074219 12.78125 10.230469 12.605469 9.386719 C 12.511719 8.933594 12.441406 8.472656 12.394531 8.011719 C 12.351562 7.609375 12.351562 7.203125 12.34375 6.796875 C 12.339844 6.484375 12.40625 6.179688 12.546875 5.902344 C 12.675781 5.648438 12.890625 5.480469 13.15625 5.382812 C 13.210938 5.363281 13.265625 5.339844 13.320312 5.320312 C 13.554688 5.320312 13.792969 5.320312 14.027344 5.320312 "/>
<path style=" stroke:none;fill-rule:nonzero;fill:rgb(35.63385%,34.461975%,34.753418%);fill-opacity:1;" d="M 23.929688 19.945312 C 24.328125 19.707031 24.683594 19.496094 25.035156 19.285156 C 26.101562 18.652344 27.164062 18.015625 28.230469 17.382812 C 29.464844 16.648438 30.703125 15.914062 31.941406 15.183594 C 32.613281 14.785156 33.289062 14.390625 33.976562 14.019531 C 34.46875 13.75 34.988281 13.539062 35.542969 13.421875 C 36.410156 13.246094 37.195312 13.433594 37.898438 13.96875 C 38.441406 14.371094 38.90625 14.859375 39.335938 15.371094 C 40.230469 16.441406 41.109375 17.523438 41.996094 18.597656 C 43.179688 20.035156 44.359375 21.46875 45.539062 22.90625 C 46.320312 23.851562 47.09375 24.800781 47.867188 25.746094 C 48.402344 26.398438 48.921875 27.058594 49.476562 27.691406 C 49.695312 27.9375 49.683594 28.175781 49.601562 28.445312 C 49.46875 28.90625 49.121094 29.15625 48.679688 29.28125 C 48.140625 29.433594 47.589844 29.425781 47.035156 29.363281 C 45.589844 29.203125 44.199219 28.804688 42.832031 28.335938 C 41.675781 27.9375 40.523438 27.515625 39.390625 27.058594 C 37.921875 26.46875 36.460938 25.847656 35.015625 25.207031 C 33.542969 24.554688 32.089844 23.871094 30.632812 23.191406 C 29.226562 22.53125 27.824219 21.851562 26.421875 21.179688 C 25.671875 20.820312 24.925781 20.445312 24.179688 20.078125 C 24.105469 20.042969 24.039062 20.003906 23.929688 19.945312 "/>
</g>
</svg>
