<?xml version="1.0" encoding="UTF-8"?>
<svg xmlns="http://www.w3.org/2000/svg" xmlns:xlink="http://www.w3.org/1999/xlink" width="56pt" height="56pt" viewBox="0 0 56 56" version="1.1">
<g id="surface1">
<rect x="0" y="0" width="56" height="56" style="fill:rgb(95.66803%,95.779419%,96.777344%);fill-opacity:1;stroke:none;"/>
<path style=" stroke:none;fill-rule:nonzero;fill:rgb(17.21344%,21.463013%,54.537964%);fill-opacity:1;" d="M 36.730469 20.15625 C 36.730469 20.171875 36.730469 20.1875 36.730469 20.207031 C 36.824219 20.277344 36.914062 20.34375 37.003906 20.410156 C 37.027344 20.507812 37.046875 20.597656 37.074219 20.710938 C 37.164062 20.621094 37.230469 20.566406 37.292969 20.503906 C 37.394531 20.558594 37.484375 20.605469 37.613281 20.675781 C 37.566406 20.558594 37.535156 20.480469 37.503906 20.394531 C 37.570312 20.316406 37.628906 20.242188 37.695312 20.160156 C 37.605469 20.132812 37.53125 20.113281 37.464844 20.09375 C 37.421875 20.007812 37.386719 19.9375 37.332031 19.828125 C 37.195312 20.074219 36.980469 20.148438 36.730469 20.15625 Z M 22.742188 30.265625 C 22.871094 30.320312 22.960938 30.359375 23.074219 30.410156 C 23.035156 30.300781 23.011719 30.226562 22.988281 30.15625 C 23.050781 30.074219 23.105469 29.996094 23.171875 29.910156 C 23.078125 29.886719 23.007812 29.871094 22.945312 29.859375 C 22.898438 29.777344 22.855469 29.703125 22.792969 29.59375 C 22.671875 29.875 22.425781 29.878906 22.171875 29.9375 C 22.285156 30.027344 22.386719 30.078125 22.445312 30.160156 C 22.503906 30.242188 22.523438 30.351562 22.566406 30.464844 C 22.636719 30.386719 22.6875 30.324219 22.742188 30.265625 Z M 24.320312 20.410156 C 24.207031 20.714844 23.945312 20.699219 23.691406 20.773438 C 23.804688 20.855469 23.910156 20.902344 23.964844 20.976562 C 24.027344 21.0625 24.046875 21.175781 24.085938 21.292969 C 24.164062 21.21875 24.234375 21.15625 24.296875 21.09375 C 24.40625 21.152344 24.5 21.203125 24.632812 21.273438 C 24.574219 21.148438 24.539062 21.070312 24.507812 20.996094 C 24.570312 20.910156 24.628906 20.835938 24.695312 20.75 C 24.601562 20.726562 24.53125 20.707031 24.472656 20.691406 C 24.425781 20.605469 24.382812 20.527344 24.320312 20.410156 Z M 43.382812 20.589844 C 43.339844 20.476562 43.3125 20.40625 43.285156 20.332031 C 43.347656 20.246094 43.410156 20.167969 43.484375 20.070312 C 43.386719 20.050781 43.316406 20.039062 43.246094 20.027344 C 43.203125 19.941406 43.164062 19.863281 43.101562 19.742188 C 42.984375 20.023438 42.746094 20.054688 42.460938 20.101562 C 42.683594 20.25 42.851562 20.378906 42.835938 20.652344 C 42.933594 20.5625 42.996094 20.503906 43.0625 20.4375 C 43.160156 20.484375 43.25 20.527344 43.382812 20.589844 Z M 29.613281 26.9375 C 29.5625 26.847656 29.519531 26.777344 29.46875 26.691406 C 29.382812 26.789062 29.316406 26.867188 29.261719 26.925781 C 29.113281 26.960938 28.980469 26.945312 28.847656 27.050781 C 29.082031 27.140625 29.1875 27.308594 29.21875 27.53125 C 29.238281 27.535156 29.257812 27.539062 29.273438 27.542969 C 29.320312 27.46875 29.363281 27.394531 29.40625 27.328125 C 29.539062 27.394531 29.632812 27.441406 29.757812 27.503906 C 29.707031 27.378906 29.675781 27.308594 29.648438 27.234375 C 29.71875 27.144531 29.78125 27.066406 29.859375 26.96875 C 29.765625 26.957031 29.695312 26.949219 29.613281 26.9375 Z M 33.425781 23.296875 C 33.566406 23.367188 33.65625 23.410156 33.78125 23.476562 C 33.742188 23.359375 33.714844 23.28125 33.691406 23.210938 C 33.753906 23.121094 33.808594 23.042969 33.875 22.953125 C 33.78125 22.933594 33.710938 22.917969 33.648438 22.90625 C 33.597656 22.824219 33.554688 22.753906 33.46875 22.613281 C 33.390625 22.976562 33.09375 22.894531 32.882812 23.007812 C 32.996094 23.09375 33.09375 23.164062 33.175781 23.222656 C 33.203125 23.332031 33.222656 23.414062 33.242188 23.496094 C 33.265625 23.507812 33.28125 23.519531 33.304688 23.527344 C 33.34375 23.449219 33.386719 23.367188 33.425781 23.296875 Z M 41.089844 22.683594 C 41.269531 22.835938 41.410156 22.976562 41.40625 23.242188 C 41.503906 23.144531 41.574219 23.082031 41.636719 23.019531 C 41.742188 23.078125 41.832031 23.121094 41.957031 23.1875 C 41.910156 23.066406 41.882812 22.984375 41.851562 22.902344 C 41.917969 22.824219 41.980469 22.75 42.058594 22.65625 C 41.957031 22.640625 41.882812 22.628906 41.808594 22.617188 C 41.769531 22.535156 41.734375 22.464844 41.6875 22.375 C 41.59375 22.460938 41.523438 22.554688 41.425781 22.601562 C 41.324219 22.652344 41.203125 22.660156 41.089844 22.683594 Z M 47.433594 20.460938 C 47.453125 20.558594 47.46875 20.648438 47.492188 20.765625 C 47.582031 20.679688 47.652344 20.609375 47.722656 20.542969 C 47.828125 20.601562 47.914062 20.648438 48.039062 20.714844 C 47.992188 20.59375 47.964844 20.511719 47.933594 20.441406 C 48.003906 20.347656 48.066406 20.269531 48.136719 20.175781 C 48.027344 20.15625 47.957031 20.144531 47.890625 20.132812 C 47.851562 20.054688 47.816406 19.984375 47.777344 19.902344 C 47.671875 19.984375 47.59375 20.082031 47.492188 20.132812 C 47.390625 20.183594 47.261719 20.167969 47.148438 20.242188 C 47.253906 20.324219 47.34375 20.390625 47.433594 20.460938 Z M 36.253906 24.265625 C 36.117188 24.550781 35.871094 24.5625 35.617188 24.613281 C 35.738281 24.707031 35.835938 24.78125 35.921875 24.851562 C 35.949219 24.949219 35.972656 25.035156 36.003906 25.148438 C 36.09375 25.0625 36.15625 25.003906 36.21875 24.941406 C 36.324219 24.996094 36.417969 25.042969 36.539062 25.109375 C 36.492188 24.988281 36.464844 24.90625 36.4375 24.832031 C 36.503906 24.746094 36.5625 24.671875 36.632812 24.582031 C 36.535156 24.5625 36.464844 24.546875 36.390625 24.535156 C 36.351562 24.460938 36.316406 24.386719 36.253906 24.265625 Z M 31.332031 20.28125 C 31.285156 20.195312 31.246094 20.121094 31.203125 20.039062 C 31.101562 20.128906 31.027344 20.222656 30.929688 20.269531 C 30.828125 20.320312 30.703125 20.328125 30.546875 20.363281 C 30.660156 20.445312 30.765625 20.492188 30.824219 20.574219 C 30.882812 20.65625 30.90625 20.765625 30.96875 20.925781 C 31.03125 20.816406 31.078125 20.738281 31.113281 20.671875 C 31.242188 20.730469 31.332031 20.773438 31.457031 20.832031 C 31.417969 20.714844 31.398438 20.648438 31.375 20.582031 C 31.441406 20.492188 31.496094 20.40625 31.566406 20.308594 C 31.46875 20.296875 31.398438 20.289062 31.332031 20.28125 Z M 8.585938 23.179688 C 9.464844 22.933594 10.339844 22.671875 11.21875 22.441406 C 12.527344 22.101562 13.839844 21.765625 15.15625 21.453125 C 16.144531 21.21875 17.144531 21.019531 18.140625 20.820312 C 18.957031 20.65625 19.773438 20.5 20.59375 20.363281 C 21.417969 20.226562 22.25 20.105469 23.082031 19.996094 C 23.929688 19.882812 24.78125 19.78125 25.628906 19.691406 C 26.335938 19.617188 27.039062 19.554688 27.75 19.511719 C 29.050781 19.429688 30.351562 19.367188 31.65625 19.304688 C 32.574219 19.261719 33.496094 19.230469 34.414062 19.199219 C 35.507812 19.164062 36.597656 19.117188 37.691406 19.109375 C 40.160156 19.089844 42.632812 19.078125 45.101562 19.082031 C 46.046875 19.085938 46.992188 19.140625 47.9375 19.175781 C 48.65625 19.203125 49.371094 19.230469 50.089844 19.273438 C 50.988281 19.328125 51.894531 19.398438 52.792969 19.460938 C 52.808594 19.460938 52.820312 19.476562 52.859375 19.496094 C 52.757812 19.5625 52.667969 19.625 52.574219 19.679688 C 51.21875 20.476562 49.875 21.292969 48.496094 22.054688 C 47.050781 22.855469 45.582031 23.621094 44.105469 24.363281 C 42.941406 24.949219 41.757812 25.492188 40.570312 26.03125 C 39.511719 26.515625 38.441406 26.980469 37.367188 27.425781 C 36.140625 27.933594 34.90625 28.425781 33.664062 28.898438 C 32.609375 29.304688 31.542969 29.691406 30.472656 30.0625 C 29.25 30.488281 28.023438 30.90625 26.789062 31.296875 C 25.476562 31.714844 24.164062 32.121094 22.839844 32.496094 C 21.097656 32.988281 19.351562 33.460938 17.601562 33.910156 C 16.230469 34.261719 14.847656 34.578125 13.464844 34.894531 C 12.257812 35.167969 11.046875 35.433594 9.835938 35.683594 C 8.574219 35.945312 7.3125 36.183594 6.046875 36.425781 C 5.152344 36.59375 4.25 36.753906 3.355469 36.910156 C 3.289062 36.921875 3.21875 36.917969 3.136719 36.878906 C 3.339844 36.800781 3.539062 36.71875 3.742188 36.644531 C 5.503906 35.992188 7.273438 35.347656 9.035156 34.683594 C 10.671875 34.066406 12.308594 33.449219 13.933594 32.792969 C 15.46875 32.171875 16.976562 31.496094 18.457031 30.753906 C 19.890625 30.035156 21.300781 29.269531 22.664062 28.421875 C 24.050781 27.558594 25.394531 26.636719 26.667969 25.613281 C 27.15625 25.222656 27.628906 24.808594 28.097656 24.394531 C 28.320312 24.199219 28.496094 23.964844 28.617188 23.691406 C 28.777344 23.320312 28.695312 23.027344 28.355469 22.804688 C 28.058594 22.605469 27.71875 22.515625 27.375 22.441406 C 26.703125 22.296875 26.023438 22.238281 25.339844 22.195312 C 23.953125 22.109375 22.566406 22.140625 21.183594 22.167969 C 20.230469 22.191406 19.277344 22.25 18.324219 22.308594 C 17.429688 22.363281 16.535156 22.433594 15.644531 22.507812 C 14.621094 22.59375 13.597656 22.6875 12.578125 22.792969 C 11.289062 22.929688 10.003906 23.078125 8.714844 23.21875 C 8.675781 23.226562 8.636719 23.222656 8.59375 23.222656 C 8.59375 23.207031 8.589844 23.191406 8.585938 23.179688 "/>
<path style=" stroke:none;fill-rule:nonzero;fill:rgb(18.241882%,63.659668%,25.257874%);fill-opacity:1;" d="M 7.890625 23.796875 C 8.140625 23.773438 8.390625 23.746094 8.640625 23.722656 C 9.339844 23.660156 10.035156 23.59375 10.734375 23.535156 C 11.226562 23.492188 11.722656 23.460938 12.21875 23.429688 C 13.179688 23.367188 14.136719 23.296875 15.097656 23.25 C 15.933594 23.207031 16.773438 23.199219 17.613281 23.167969 C 19.824219 23.078125 22.03125 23.117188 24.238281 23.144531 C 24.679688 23.148438 25.117188 23.191406 25.550781 23.246094 C 25.75 23.269531 25.949219 23.347656 26.128906 23.4375 C 26.527344 23.632812 26.621094 23.972656 26.375 24.347656 C 26.242188 24.550781 26.085938 24.75 25.898438 24.902344 C 25.003906 25.636719 24.078125 26.328125 23.105469 26.957031 C 22.234375 27.519531 21.363281 28.074219 20.476562 28.605469 C 19.226562 29.355469 17.933594 30.03125 16.628906 30.679688 C 14.941406 31.519531 13.230469 32.304688 11.503906 33.046875 C 10.058594 33.667969 8.609375 34.273438 7.160156 34.886719 C 6.285156 35.257812 5.410156 35.636719 4.535156 36.007812 C 4.453125 36.042969 4.371094 36.070312 4.273438 36.066406 C 4.339844 36.03125 4.402344 35.988281 4.472656 35.957031 C 6.386719 35 8.261719 33.960938 10.101562 32.863281 C 11.488281 32.035156 12.84375 31.160156 14.121094 30.171875 C 14.796875 29.648438 15.453125 29.097656 16.023438 28.453125 C 16.277344 28.164062 16.519531 27.863281 16.683594 27.515625 C 16.992188 26.855469 16.984375 26.488281 16.484375 25.902344 C 16.109375 25.464844 15.617188 25.191406 15.09375 24.980469 C 14.292969 24.660156 13.457031 24.488281 12.609375 24.359375 C 12.09375 24.277344 11.578125 24.21875 11.058594 24.160156 C 10.25 24.074219 9.441406 24 8.628906 23.917969 C 8.382812 23.894531 8.132812 23.875 7.886719 23.851562 C 7.886719 23.835938 7.890625 23.816406 7.890625 23.796875 "/>
<path style=" stroke:none;fill-rule:nonzero;fill:rgb(86.610413%,11.605835%,14.561462%);fill-opacity:1;" d="M 12.671875 25.425781 C 13.214844 25.433594 13.71875 25.484375 14.1875 25.679688 C 14.40625 25.769531 14.617188 25.886719 14.792969 26.035156 C 15.210938 26.390625 15.304688 26.882812 15.097656 27.390625 C 14.925781 27.808594 14.640625 28.140625 14.300781 28.425781 C 13.605469 29.015625 12.804688 29.398438 11.933594 29.65625 C 11.222656 29.863281 10.503906 29.980469 9.765625 29.96875 C 9.261719 29.957031 8.757812 29.886719 8.292969 29.660156 C 8.113281 29.570312 7.929688 29.46875 7.78125 29.332031 C 7.367188 28.945312 7.296875 28.460938 7.539062 27.925781 C 7.710938 27.546875 7.980469 27.242188 8.292969 26.976562 C 9.136719 26.265625 10.117188 25.851562 11.179688 25.605469 C 11.679688 25.488281 12.191406 25.4375 12.671875 25.425781 "/>
</g>
</svg>
