<?xml version="1.0" encoding="UTF-8"?>
<svg xmlns="http://www.w3.org/2000/svg" xmlns:xlink="http://www.w3.org/1999/xlink" width="56pt" height="56pt" viewBox="0 0 56 56" version="1.1">
<g id="surface1">
<rect x="0" y="0" width="56" height="56" style="fill:rgb(15.533447%,17.045593%,44.229126%);fill-opacity:1;stroke:none;"/>
<path style=" stroke:none;fill-rule:nonzero;fill:rgb(100%,100%,100%);fill-opacity:1;" d="M 53.808594 22.683594 C 53.726562 22.828125 53.664062 22.984375 53.566406 23.113281 C 52.148438 24.910156 50.300781 25.929688 48.019531 26.179688 C 45.863281 26.414062 43.78125 26.027344 41.738281 25.394531 C 39.988281 24.847656 38.261719 24.230469 36.457031 23.90625 C 32.253906 23.148438 28.761719 24.441406 25.96875 27.652344 C 25.894531 27.742188 25.820312 27.832031 25.746094 27.921875 C 25.742188 27.925781 25.734375 27.929688 25.671875 27.953125 C 26.511719 26.347656 27.6875 25.117188 29.175781 24.101562 C 28.996094 24.054688 28.867188 24.027344 28.738281 23.992188 C 27.738281 23.722656 26.894531 23.15625 26.046875 22.589844 C 25.363281 22.132812 24.6875 21.65625 23.957031 21.292969 C 23.035156 20.835938 22.042969 20.726562 21.035156 21.039062 C 20.933594 21.070312 20.835938 21.117188 20.734375 21.164062 C 20.6875 21.1875 20.648438 21.222656 20.59375 21.261719 C 20.625 21.289062 20.644531 21.316406 20.671875 21.328125 C 21.804688 21.902344 22.507812 22.847656 22.972656 24 C 23.394531 25.050781 23.558594 26.148438 23.617188 27.304688 C 23.574219 27.273438 23.546875 27.261719 23.535156 27.242188 C 22.675781 25.867188 21.390625 25.117188 19.847656 24.773438 C 18.003906 24.363281 16.171875 24.535156 14.367188 25.023438 C 13.5 25.261719 12.65625 25.582031 11.792969 25.832031 C 10.234375 26.28125 8.660156 26.457031 7.058594 26.074219 C 6.324219 25.902344 5.648438 25.597656 5.0625 25.113281 C 4.90625 24.984375 4.78125 24.816406 4.640625 24.664062 C 4.65625 24.644531 4.671875 24.621094 4.6875 24.601562 C 4.785156 24.644531 4.886719 24.683594 4.980469 24.738281 C 6.078125 25.394531 7.273438 25.59375 8.539062 25.5 C 10.015625 25.390625 11.40625 24.917969 12.792969 24.445312 C 13.769531 24.113281 14.746094 23.785156 15.777344 23.652344 C 17.726562 23.394531 19.566406 23.726562 21.28125 24.683594 C 21.734375 24.933594 22.152344 25.242188 22.589844 25.527344 C 22.585938 25.535156 22.601562 25.519531 22.597656 25.511719 C 22.203125 24.460938 21.71875 23.457031 20.9375 22.628906 C 20.171875 21.816406 19.21875 21.367188 18.117188 21.238281 C 17.695312 21.1875 17.269531 21.195312 16.84375 21.171875 C 16.78125 21.167969 16.714844 21.148438 16.652344 21.136719 C 16.675781 21.066406 16.675781 20.980469 16.722656 20.929688 C 17.101562 20.515625 17.5625 20.308594 18.140625 20.421875 C 18.4375 20.480469 18.738281 20.515625 19.035156 20.5625 C 19.371094 20.613281 19.6875 20.566406 20.019531 20.464844 C 20.585938 20.289062 21.164062 20.128906 21.753906 20.039062 C 22.769531 19.886719 23.730469 20.132812 24.613281 20.648438 C 25.246094 21.019531 25.855469 21.4375 26.46875 21.847656 C 27.390625 22.472656 28.351562 22.984375 29.476562 23.132812 C 30.15625 23.222656 30.828125 23.195312 31.480469 22.996094 C 34.226562 22.148438 36.925781 22.292969 39.597656 23.320312 C 40.960938 23.84375 42.328125 24.351562 43.710938 24.804688 C 45.109375 25.265625 46.554688 25.460938 48.03125 25.320312 C 49.890625 25.148438 51.503906 24.386719 52.957031 23.246094 C 53.21875 23.042969 53.472656 22.832031 53.726562 22.625 C 53.753906 22.644531 53.78125 22.664062 53.808594 22.683594 "/>
<path style=" stroke:none;fill-rule:nonzero;fill:rgb(100%,100%,100%);fill-opacity:1;" d="M 49.257812 35.847656 C 48.628906 35.847656 48.050781 35.847656 47.449219 35.847656 C 47.449219 33.523438 47.449219 31.199219 47.449219 28.832031 C 47.585938 28.832031 47.730469 28.832031 47.875 28.832031 C 48.269531 28.832031 48.664062 28.839844 49.0625 28.828125 C 49.222656 28.824219 49.308594 28.878906 49.394531 29.015625 C 50.195312 30.320312 51.003906 31.613281 51.808594 32.914062 C 51.84375 32.972656 51.882812 33.027344 51.96875 33.078125 C 51.976562 32.992188 51.984375 32.90625 51.984375 32.824219 C 51.988281 31.601562 51.988281 30.382812 51.988281 29.164062 C 51.988281 28.832031 51.988281 28.832031 52.332031 28.832031 C 52.726562 28.832031 53.121094 28.832031 53.519531 28.832031 C 53.601562 28.832031 53.683594 28.832031 53.78125 28.832031 C 53.78125 31.1875 53.78125 33.511719 53.78125 35.859375 C 53.214844 35.859375 52.664062 35.867188 52.113281 35.851562 C 52.042969 35.851562 51.957031 35.746094 51.90625 35.667969 C 51.089844 34.367188 50.277344 33.066406 49.460938 31.761719 C 49.40625 31.675781 49.347656 31.59375 49.257812 31.453125 C 49.257812 32.949219 49.257812 34.386719 49.257812 35.847656 "/>
<path style=" stroke:none;fill-rule:nonzero;fill:rgb(100%,100%,100%);fill-opacity:1;" d="M 20.695312 31.539062 C 21.140625 31.503906 21.558594 31.496094 21.96875 31.421875 C 22.261719 31.371094 22.402344 31.125 22.402344 30.839844 C 22.402344 30.539062 22.253906 30.296875 21.945312 30.246094 C 21.539062 30.179688 21.121094 30.175781 20.695312 30.144531 C 20.695312 30.628906 20.695312 31.050781 20.695312 31.539062 Z M 21.347656 32.863281 C 21.34375 32.871094 21.34375 32.878906 21.34375 32.886719 C 21.195312 32.886719 21.046875 32.894531 20.902344 32.886719 C 20.746094 32.875 20.679688 32.925781 20.683594 33.09375 C 20.691406 33.503906 20.691406 33.914062 20.683594 34.324219 C 20.679688 34.492188 20.746094 34.542969 20.902344 34.535156 C 21.164062 34.527344 21.433594 34.554688 21.691406 34.527344 C 21.933594 34.503906 22.191406 34.464844 22.40625 34.359375 C 22.746094 34.203125 22.773438 33.871094 22.738281 33.539062 C 22.707031 33.238281 22.542969 33.03125 22.242188 32.972656 C 21.949219 32.914062 21.644531 32.898438 21.347656 32.863281 Z M 23.277344 32.035156 C 23.378906 32.085938 23.4375 32.117188 23.496094 32.148438 C 24.910156 32.789062 24.761719 34.507812 23.90625 35.226562 C 23.398438 35.65625 22.796875 35.824219 22.160156 35.839844 C 21.121094 35.867188 20.082031 35.851562 19.042969 35.863281 C 18.832031 35.867188 18.875 35.726562 18.875 35.609375 C 18.875 34.082031 18.875 32.554688 18.875 31.023438 C 18.875 30.363281 18.875 29.707031 18.875 29.046875 C 18.875 28.933594 18.859375 28.828125 19.03125 28.832031 C 20.125 28.851562 21.21875 28.839844 22.3125 28.894531 C 22.902344 28.925781 23.449219 29.148438 23.832031 29.648438 C 24.40625 30.402344 24.226562 31.429688 23.429688 31.9375 C 23.394531 31.964844 23.351562 31.988281 23.277344 32.035156 "/>
<path style=" stroke:none;fill-rule:nonzero;fill:rgb(100%,100%,100%);fill-opacity:1;" d="M 25.652344 28.847656 C 26.257812 28.847656 26.851562 28.847656 27.472656 28.847656 C 27.476562 28.941406 27.484375 29.03125 27.484375 29.121094 C 27.488281 30.441406 27.484375 31.761719 27.488281 33.082031 C 27.488281 33.242188 27.496094 33.40625 27.519531 33.570312 C 27.53125 33.691406 27.558594 33.816406 27.605469 33.929688 C 27.78125 34.363281 28.25 34.589844 28.875 34.546875 C 29.449219 34.507812 29.820312 34.242188 29.925781 33.765625 C 29.972656 33.554688 29.988281 33.332031 29.992188 33.117188 C 29.996094 31.78125 30 30.445312 29.988281 29.109375 C 29.988281 28.886719 30.050781 28.816406 30.277344 28.828125 C 30.710938 28.84375 31.144531 28.832031 31.578125 28.832031 C 31.660156 28.832031 31.746094 28.839844 31.839844 28.84375 C 31.84375 28.921875 31.855469 28.980469 31.855469 29.042969 C 31.851562 30.503906 31.855469 31.960938 31.839844 33.421875 C 31.824219 34.976562 30.800781 35.765625 29.429688 35.953125 C 28.671875 36.058594 27.925781 36.015625 27.207031 35.734375 C 26.152344 35.320312 25.65625 34.503906 25.640625 33.398438 C 25.625 31.921875 25.636719 30.449219 25.640625 28.972656 C 25.640625 28.933594 25.648438 28.898438 25.652344 28.847656 "/>
<path style=" stroke:none;fill-rule:nonzero;fill:rgb(100%,100%,100%);fill-opacity:1;" d="M 38.628906 30.992188 C 38.066406 30.992188 37.519531 30.992188 36.960938 30.992188 C 36.945312 30.910156 36.949219 30.824219 36.914062 30.761719 C 36.820312 30.597656 36.742188 30.394531 36.597656 30.300781 C 36.179688 30.03125 35.722656 30.046875 35.292969 30.285156 C 34.921875 30.488281 34.921875 30.867188 35.300781 31.054688 C 35.660156 31.234375 36.050781 31.34375 36.425781 31.492188 C 36.894531 31.679688 37.371094 31.84375 37.824219 32.066406 C 39.230469 32.765625 39.089844 34.613281 38.074219 35.40625 C 37.507812 35.847656 36.84375 35.980469 36.152344 35.996094 C 35.421875 36.015625 34.710938 35.910156 34.074219 35.515625 C 33.460938 35.136719 33.117188 34.582031 33.003906 33.875 C 32.992188 33.816406 32.992188 33.753906 32.992188 33.691406 C 32.988281 33.652344 32.996094 33.613281 33.003906 33.5625 C 33.550781 33.5625 34.089844 33.5625 34.628906 33.5625 C 34.984375 34.457031 35.710938 34.800781 36.566406 34.480469 C 36.640625 34.453125 36.710938 34.421875 36.777344 34.378906 C 37.082031 34.175781 37.101562 33.863281 36.804688 33.65625 C 36.613281 33.527344 36.398438 33.433594 36.183594 33.34375 C 35.578125 33.089844 34.949219 32.878906 34.359375 32.585938 C 33.394531 32.105469 33.019531 31.285156 33.277344 30.292969 C 33.472656 29.546875 34.027344 29.140625 34.71875 28.898438 C 35.589844 28.597656 36.457031 28.625 37.308594 28.980469 C 38.152344 29.332031 38.640625 30.074219 38.628906 30.992188 "/>
<path style=" stroke:none;fill-rule:nonzero;fill:rgb(100%,100%,100%);fill-opacity:1;" d="M 43.664062 33.011719 C 43.421875 32.308594 43.195312 31.648438 42.96875 30.988281 C 42.945312 30.988281 42.921875 30.988281 42.902344 30.988281 C 42.675781 31.65625 42.449219 32.320312 42.214844 33.011719 C 42.71875 33.011719 43.167969 33.011719 43.664062 33.011719 Z M 39.320312 35.871094 C 39.652344 34.996094 39.964844 34.171875 40.28125 33.347656 C 40.832031 31.914062 41.386719 30.484375 41.929688 29.046875 C 41.992188 28.882812 42.074219 28.824219 42.246094 28.828125 C 42.71875 28.839844 43.195312 28.835938 43.667969 28.828125 C 43.789062 28.828125 43.863281 28.855469 43.914062 28.984375 C 44.769531 31.21875 45.632812 33.453125 46.492188 35.691406 C 46.511719 35.738281 46.519531 35.792969 46.539062 35.871094 C 45.925781 35.871094 45.328125 35.871094 44.734375 35.863281 C 44.683594 35.863281 44.617188 35.773438 44.597656 35.714844 C 44.46875 35.355469 44.34375 34.996094 44.230469 34.632812 C 44.1875 34.488281 44.109375 34.445312 43.964844 34.445312 C 43.28125 34.453125 42.597656 34.453125 41.914062 34.445312 C 41.757812 34.445312 41.683594 34.496094 41.636719 34.652344 C 41.53125 35.007812 41.410156 35.359375 41.28125 35.710938 C 41.257812 35.773438 41.179688 35.863281 41.121094 35.863281 C 40.535156 35.875 39.945312 35.871094 39.320312 35.871094 "/>
<path style=" stroke:none;fill-rule:nonzero;fill:rgb(100%,100%,100%);fill-opacity:1;" d="M 11.644531 30.824219 C 11.644531 31.214844 11.648438 31.601562 11.644531 31.988281 C 11.644531 32.105469 11.660156 32.191406 11.804688 32.183594 C 12.285156 32.167969 12.769531 32.1875 13.246094 32.132812 C 13.929688 32.058594 14.371094 31.550781 14.394531 30.882812 C 14.421875 30.175781 14.089844 29.707031 13.371094 29.582031 C 12.855469 29.488281 12.320312 29.511719 11.792969 29.480469 C 11.644531 29.472656 11.644531 29.582031 11.644531 29.683594 C 11.644531 30.066406 11.644531 30.445312 11.644531 30.824219 Z M 13.757812 32.738281 C 14.375 33.785156 14.976562 34.804688 15.601562 35.867188 C 15.285156 35.867188 15.007812 35.878906 14.734375 35.859375 C 14.667969 35.855469 14.597656 35.746094 14.554688 35.671875 C 14.042969 34.8125 13.53125 33.953125 13.03125 33.085938 C 12.929688 32.910156 12.816406 32.824219 12.609375 32.84375 C 12.382812 32.863281 12.15625 32.859375 11.933594 32.84375 C 11.714844 32.828125 11.636719 32.894531 11.640625 33.125 C 11.652344 33.933594 11.644531 34.742188 11.644531 35.546875 C 11.644531 35.640625 11.644531 35.734375 11.644531 35.847656 C 11.386719 35.847656 11.144531 35.847656 10.894531 35.847656 C 10.894531 33.519531 10.894531 31.191406 10.894531 28.863281 C 10.9375 28.851562 10.964844 28.835938 10.992188 28.835938 C 11.800781 28.851562 12.609375 28.835938 13.414062 28.890625 C 14.367188 28.957031 15.023438 29.550781 15.171875 30.410156 C 15.347656 31.414062 14.914062 32.222656 13.980469 32.636719 C 13.917969 32.664062 13.855469 32.695312 13.757812 32.738281 "/>
<path style=" stroke:none;fill-rule:nonzero;fill:rgb(100%,100%,100%);fill-opacity:1;" d="M 3.835938 33.308594 C 4.605469 33.308594 5.332031 33.308594 6.082031 33.308594 C 5.707031 32.136719 5.34375 30.992188 4.984375 29.851562 C 4.964844 29.851562 4.945312 29.851562 4.925781 29.851562 C 4.566406 30.992188 4.207031 32.132812 3.835938 33.308594 Z M 7.707031 35.871094 C 7.464844 35.871094 7.242188 35.882812 7.019531 35.863281 C 6.964844 35.855469 6.890625 35.769531 6.867188 35.703125 C 6.691406 35.207031 6.515625 34.707031 6.359375 34.203125 C 6.3125 34.050781 6.246094 33.992188 6.082031 33.996094 C 5.332031 34.003906 4.578125 34.003906 3.824219 33.996094 C 3.675781 33.996094 3.609375 34.046875 3.5625 34.191406 C 3.402344 34.683594 3.222656 35.171875 3.0625 35.664062 C 3.011719 35.828125 2.929688 35.886719 2.761719 35.875 C 2.585938 35.859375 2.40625 35.871094 2.191406 35.871094 C 2.316406 35.5 2.429688 35.152344 2.550781 34.804688 C 3.199219 32.90625 3.855469 31.007812 4.496094 29.105469 C 4.566406 28.902344 4.660156 28.789062 4.886719 28.828125 C 4.960938 28.84375 5.042969 28.839844 5.117188 28.832031 C 5.269531 28.8125 5.339844 28.878906 5.386719 29.015625 C 5.789062 30.207031 6.195312 31.394531 6.601562 32.585938 C 6.949219 33.609375 7.300781 34.640625 7.648438 35.667969 C 7.667969 35.722656 7.683594 35.78125 7.707031 35.871094 "/>
<path style=" stroke:none;fill-rule:nonzero;fill:rgb(100%,100%,100%);fill-opacity:1;" d="M 9.359375 28.832031 C 9.359375 28.953125 9.359375 29.042969 9.359375 29.136719 C 9.359375 31.277344 9.359375 33.421875 9.359375 35.566406 C 9.359375 35.863281 9.355469 35.863281 9.050781 35.863281 C 8.5625 35.863281 8.5625 35.863281 8.5625 35.371094 C 8.5625 33.332031 8.558594 31.289062 8.5625 29.246094 C 8.5625 28.757812 8.503906 28.839844 8.988281 28.832031 C 9.101562 28.828125 9.214844 28.832031 9.359375 28.832031 "/>
</g>
</svg>
