<?xml version="1.0" encoding="UTF-8"?>
<svg xmlns="http://www.w3.org/2000/svg" xmlns:xlink="http://www.w3.org/1999/xlink" width="56pt" height="56pt" viewBox="0 0 56 56" version="1.1">
<g id="surface1">
<rect x="0" y="0" width="56" height="56" style="fill:rgb(92.591858%,10.089111%,18.183899%);fill-opacity:1;stroke:none;"/>
<path style=" stroke:none;fill-rule:nonzero;fill:rgb(100%,100%,100%);fill-opacity:1;" d="M 6.484375 22.730469 L 17.308594 22.730469 C 18.367188 22.730469 19.167969 23.0625 19.484375 24.566406 C 19.832031 26.234375 19.6875 27.398438 17.800781 27.53125 L 14.40625 27.773438 C 16.90625 43.519531 31.53125 48.652344 39.492188 31.691406 C 40.8125 28.882812 41.242188 28.375 42.6875 28.730469 C 44.644531 29.214844 44.910156 30.21875 43.976562 33.046875 C 37.09375 53.957031 13.957031 56.050781 9.414062 28.128906 L 6.652344 28.328125 C 4.40625 28.488281 4.320312 26.597656 4.320312 25.550781 C 4.320312 23.472656 5.09375 22.730469 6.484375 22.730469 "/>
<path style=" stroke:none;fill-rule:nonzero;fill:rgb(100%,100%,100%);fill-opacity:1;" d="M 45.84375 12.617188 C 48.058594 12.617188 49.855469 14.410156 49.855469 16.621094 C 49.855469 18.832031 48.058594 20.621094 45.84375 20.621094 C 43.628906 20.621094 41.832031 18.832031 41.832031 16.621094 C 41.832031 14.410156 43.628906 12.617188 45.84375 12.617188 "/>
</g>
</svg>
