<?xml version="1.0" encoding="UTF-8"?>
<svg xmlns="http://www.w3.org/2000/svg" xmlns:xlink="http://www.w3.org/1999/xlink" width="56pt" height="56pt" viewBox="0 0 56 56" version="1.1">
<g id="surface1">
<rect x="0" y="0" width="56" height="56" style="fill:rgb(15.489197%,26.333618%,60.426331%);fill-opacity:1;stroke:none;"/>
<path style=" stroke:none;fill-rule:nonzero;fill:rgb(100%,100%,100%);fill-opacity:1;" d="M 28.054688 50.679688 C 27.875 50.65625 27.695312 50.613281 27.515625 50.605469 C 26.789062 50.585938 26.074219 50.507812 25.363281 50.375 C 24.769531 50.269531 24.171875 50.160156 23.585938 50.019531 C 22.480469 49.753906 21.410156 49.371094 20.386719 48.875 C 19.652344 48.519531 18.9375 48.117188 18.25 47.675781 C 17.210938 47.007812 16.226562 46.269531 15.316406 45.433594 C 14.453125 44.648438 13.648438 43.808594 12.914062 42.898438 C 12.027344 41.804688 11.25 40.644531 10.578125 39.410156 C 10.183594 38.683594 9.832031 37.9375 9.523438 37.171875 C 9.246094 36.472656 8.992188 35.765625 8.777344 35.042969 C 8.5 34.117188 8.285156 33.175781 8.140625 32.222656 C 8.046875 31.625 7.984375 31.023438 7.941406 30.421875 C 7.894531 29.78125 7.867188 29.140625 7.867188 28.5 C 7.871094 27.828125 7.898438 27.15625 7.960938 26.488281 C 8.023438 25.800781 8.140625 25.117188 8.242188 24.429688 C 8.394531 23.441406 8.644531 22.46875 8.929688 21.507812 C 9.246094 20.457031 9.640625 19.429688 10.097656 18.429688 C 10.464844 17.632812 10.871094 16.855469 11.328125 16.105469 C 11.855469 15.234375 12.433594 14.398438 13.078125 13.605469 C 14.089844 12.363281 15.21875 11.25 16.519531 10.308594 C 17.351562 9.703125 18.234375 9.1875 19.183594 8.785156 C 19.988281 8.445312 20.820312 8.203125 21.683594 8.078125 C 22.273438 7.996094 22.863281 7.980469 23.453125 8.03125 C 24.6875 8.136719 25.824219 8.539062 26.851562 9.234375 C 27.8125 9.882812 28.59375 10.710938 29.242188 11.664062 C 29.933594 12.675781 30.496094 13.746094 30.859375 14.917969 C 31.195312 15.992188 31.28125 17.085938 31.164062 18.199219 C 31.105469 18.734375 31.039062 19.269531 30.964844 19.800781 C 30.910156 20.179688 30.828125 20.554688 30.765625 20.933594 C 30.667969 21.484375 30.574219 22.035156 30.480469 22.585938 C 30.457031 22.738281 30.425781 22.890625 30.398438 23.050781 C 30.46875 23.066406 30.515625 23.082031 30.566406 23.082031 C 32.207031 23.132812 33.699219 23.660156 35.078125 24.53125 C 36.25 25.265625 37.238281 26.191406 38.050781 27.308594 C 38.667969 28.15625 39.136719 29.082031 39.414062 30.09375 C 39.652344 30.949219 39.71875 31.816406 39.636719 32.703125 C 39.589844 33.179688 39.523438 33.652344 39.40625 34.117188 C 39.15625 35.105469 38.714844 35.996094 38.074219 36.785156 C 37.410156 37.597656 36.59375 38.21875 35.675781 38.71875 C 34.929688 39.125 34.140625 39.4375 33.324219 39.664062 C 32.734375 39.828125 32.144531 39.984375 31.535156 40.0625 C 30.933594 40.140625 30.335938 40.230469 29.738281 40.296875 C 29.386719 40.335938 29.03125 40.347656 28.675781 40.355469 C 28.117188 40.363281 27.554688 40.371094 26.992188 40.351562 C 26.417969 40.335938 25.84375 40.292969 25.273438 40.238281 C 24.695312 40.1875 24.113281 40.128906 23.539062 40.042969 C 22.941406 39.953125 22.34375 39.855469 21.757812 39.710938 C 20.921875 39.503906 20.097656 39.261719 19.273438 39.011719 C 18.765625 38.855469 18.359375 38.542969 18.039062 38.078125 C 18.097656 38.089844 18.136719 38.089844 18.171875 38.101562 C 18.542969 38.226562 18.917969 38.324219 19.308594 38.375 C 19.6875 38.425781 20.066406 38.484375 20.445312 38.53125 C 20.671875 38.554688 20.902344 38.5625 21.128906 38.582031 C 21.941406 38.644531 22.753906 38.640625 23.5625 38.617188 C 24.167969 38.597656 24.773438 38.558594 25.371094 38.488281 C 26.140625 38.398438 26.90625 38.277344 27.667969 38.152344 C 28.636719 37.988281 29.582031 37.726562 30.507812 37.402344 C 31.679688 36.984375 32.789062 36.445312 33.769531 35.660156 C 34.679688 34.929688 35.363281 34.03125 35.773438 32.929688 C 35.984375 32.367188 36.039062 31.78125 35.980469 31.1875 C 35.921875 30.621094 35.714844 30.101562 35.414062 29.621094 C 35.011719 28.972656 34.472656 28.449219 33.863281 28 C 33.074219 27.417969 32.199219 26.992188 31.277344 26.671875 C 30.691406 26.472656 30.089844 26.328125 29.480469 26.210938 C 28.640625 26.046875 27.796875 26.011719 26.949219 26.050781 C 26.132812 26.089844 25.339844 26.246094 24.585938 26.570312 C 24.542969 26.585938 24.503906 26.601562 24.429688 26.632812 C 24.460938 26.542969 24.480469 26.476562 24.507812 26.414062 C 24.84375 25.574219 25.191406 24.734375 25.523438 23.894531 C 25.84375 23.074219 26.058594 22.222656 26.183594 21.351562 C 26.296875 20.558594 26.367188 19.757812 26.378906 18.953125 C 26.382812 18.496094 26.410156 18.039062 26.414062 17.582031 C 26.421875 16.304688 25.933594 15.230469 25.074219 14.308594 C 24.488281 13.679688 23.78125 13.242188 22.945312 13.023438 C 22.464844 12.894531 21.972656 12.859375 21.476562 12.90625 C 20.347656 13.011719 19.367188 13.476562 18.460938 14.128906 C 17.347656 14.929688 16.441406 15.9375 15.625 17.027344 C 14.976562 17.890625 14.390625 18.796875 13.890625 19.75 C 13.476562 20.546875 13.121094 21.375 12.832031 22.226562 C 12.574219 22.996094 12.363281 23.78125 12.210938 24.578125 C 12.070312 25.324219 11.964844 26.074219 11.933594 26.835938 C 11.910156 27.363281 11.886719 27.898438 11.898438 28.425781 C 11.90625 28.910156 11.953125 29.398438 12.003906 29.882812 C 12.054688 30.378906 12.117188 30.878906 12.199219 31.371094 C 12.257812 31.742188 12.34375 32.109375 12.429688 32.472656 C 12.636719 33.34375 12.902344 34.195312 13.222656 35.027344 C 13.707031 36.28125 14.308594 37.476562 15.027344 38.613281 C 15.535156 39.414062 16.089844 40.175781 16.699219 40.898438 C 17.320312 41.632812 17.988281 42.320312 18.707031 42.957031 C 19.554688 43.707031 20.464844 44.375 21.410156 44.992188 C 22.058594 45.414062 22.726562 45.804688 23.414062 46.160156 C 24.089844 46.507812 24.78125 46.824219 25.5 47.074219 C 26.136719 47.300781 26.785156 47.511719 27.4375 47.683594 C 28.121094 47.863281 28.820312 47.980469 29.519531 48.082031 C 31.242188 48.332031 32.976562 48.320312 34.710938 48.28125 C 35.402344 48.265625 36.09375 48.226562 36.789062 48.1875 C 37.316406 48.160156 37.84375 48.117188 38.40625 48.074219 C 37.925781 48.429688 37.4375 48.714844 36.929688 48.96875 C 35.90625 49.472656 34.839844 49.839844 33.730469 50.109375 C 32.925781 50.304688 32.113281 50.4375 31.292969 50.535156 C 30.972656 50.574219 30.644531 50.578125 30.324219 50.605469 C 30.128906 50.621094 29.933594 50.65625 29.738281 50.679688 C 29.175781 50.679688 28.617188 50.679688 28.054688 50.679688 "/>
<path style=" stroke:none;fill-rule:nonzero;fill:rgb(100%,100%,100%);fill-opacity:1;" d="M 35.007812 5.320312 C 35.097656 5.34375 35.1875 5.386719 35.28125 5.394531 C 36.429688 5.53125 37.460938 5.949219 38.359375 6.675781 C 39.058594 7.242188 39.574219 7.957031 39.925781 8.789062 C 40.167969 9.363281 40.328125 9.960938 40.402344 10.578125 C 40.492188 11.324219 40.507812 12.078125 40.425781 12.828125 C 40.40625 13.019531 40.398438 13.210938 40.371094 13.398438 C 40.296875 13.910156 40.207031 14.417969 40.148438 14.929688 C 40.101562 15.300781 40.09375 15.679688 40.070312 16.054688 C 40.066406 16.101562 40.089844 16.152344 40.101562 16.210938 C 40.242188 16.226562 40.371094 16.246094 40.503906 16.25 C 41.296875 16.265625 42.070312 16.417969 42.824219 16.664062 C 43.921875 17.019531 44.921875 17.558594 45.800781 18.3125 C 46.480469 18.894531 47.046875 19.566406 47.464844 20.363281 C 47.746094 20.90625 47.945312 21.480469 48.046875 22.089844 C 48.101562 22.40625 48.121094 22.71875 48.128906 23.039062 C 48.144531 23.617188 47.972656 24.160156 47.757812 24.6875 C 47.355469 25.675781 46.761719 26.542969 46.0625 27.339844 C 45.492188 27.988281 44.851562 28.546875 44.125 29.011719 C 43.570312 29.367188 42.972656 29.636719 42.328125 29.789062 C 42.160156 29.832031 41.984375 29.847656 41.816406 29.875 C 41.804688 29.859375 41.796875 29.847656 41.789062 29.832031 C 41.90625 29.671875 42.011719 29.507812 42.132812 29.355469 C 42.640625 28.710938 43.160156 28.078125 43.660156 27.429688 C 43.992188 27.003906 44.28125 26.550781 44.46875 26.039062 C 44.609375 25.664062 44.703125 25.285156 44.71875 24.878906 C 44.753906 24.066406 44.515625 23.324219 44.175781 22.601562 C 43.890625 21.996094 43.527344 21.445312 43.03125 20.988281 C 42.460938 20.472656 41.8125 20.085938 41.105469 19.789062 C 40.613281 19.585938 40.109375 19.425781 39.589844 19.304688 C 38.945312 19.15625 38.289062 19.042969 37.625 19.011719 C 37.066406 18.984375 36.507812 18.976562 35.945312 18.964844 C 35.800781 18.964844 35.652344 18.984375 35.503906 18.992188 C 35.449219 18.996094 35.390625 18.992188 35.320312 18.992188 C 35.332031 18.921875 35.335938 18.871094 35.351562 18.824219 C 35.582031 18.195312 35.824219 17.570312 36.035156 16.9375 C 36.238281 16.335938 36.382812 15.71875 36.433594 15.082031 C 36.507812 14.234375 36.496094 13.386719 36.460938 12.539062 C 36.425781 11.683594 36.320312 10.832031 36.066406 10.011719 C 35.847656 9.289062 35.53125 8.621094 34.96875 8.09375 C 34.578125 7.726562 34.113281 7.503906 33.589844 7.390625 C 32.9375 7.253906 32.285156 7.308594 31.632812 7.414062 C 30.984375 7.519531 30.367188 7.742188 29.726562 7.890625 C 29.347656 7.976562 28.960938 8.035156 28.578125 8.105469 C 28.550781 8.109375 28.523438 8.101562 28.460938 8.101562 C 28.527344 8.007812 28.574219 7.929688 28.632812 7.859375 C 29.132812 7.214844 29.753906 6.710938 30.457031 6.308594 C 31.261719 5.851562 32.125 5.566406 33.035156 5.417969 C 33.164062 5.394531 33.296875 5.386719 33.429688 5.367188 C 33.46875 5.359375 33.507812 5.335938 33.546875 5.320312 C 34.035156 5.320312 34.523438 5.320312 35.007812 5.320312 "/>
</g>
</svg>
