<?xml version="1.0" encoding="UTF-8"?>
<svg xmlns="http://www.w3.org/2000/svg" xmlns:xlink="http://www.w3.org/1999/xlink" width="56pt" height="56pt" viewBox="0 0 56 56" version="1.1">
<g id="surface1">
<rect x="0" y="0" width="56" height="56" style="fill:rgb(95.666504%,95.776367%,96.775818%);fill-opacity:1;stroke:none;"/>
<path style=" stroke:none;fill-rule:nonzero;fill:rgb(97.821045%,82.975769%,2.844238%);fill-opacity:1;" d="M 11.179688 18.554688 C 15.0625 15.742188 19.410156 14.320312 24.179688 13.855469 C 31.789062 13.113281 38.644531 15.019531 44.78125 19.449219 C 46.523438 20.707031 47.929688 22.4375 49.433594 24.011719 C 49.847656 24.445312 50.046875 25.085938 50.410156 25.753906 C 48.144531 26.261719 45.992188 26.558594 43.96875 27.246094 C 41.925781 27.933594 40.015625 29.007812 37.933594 29.964844 C 37.796875 29.808594 37.542969 29.605469 37.402344 29.34375 C 35.519531 25.84375 32.480469 23.640625 28.945312 22.144531 C 25.441406 20.664062 21.738281 19.878906 17.902344 20.117188 C 15.472656 20.273438 13.070312 20.625 10.832031 21.679688 C 9.46875 22.449219 8.105469 23.21875 6.714844 24.003906 C 6.679688 23.898438 6.625 23.726562 6.570312 23.554688 L 6.558594 23.574219 C 6.820312 23.183594 7.082031 22.792969 7.339844 22.402344 L 7.328125 22.417969 C 8.613281 21.128906 9.894531 19.839844 11.179688 18.554688 "/>
<path style=" stroke:none;fill-rule:nonzero;fill:rgb(95.700073%,93.94989%,7.881165%);fill-opacity:1;" d="M 5.738281 23.5625 C 6.148438 20.363281 7.574219 17.566406 9.359375 14.964844 C 13 9.65625 18.15625 6.429688 24.429688 5.59375 C 35.863281 4.070312 45.144531 9.632812 49.328125 19.988281 C 49.542969 20.519531 49.746094 21.050781 49.777344 21.769531 C 49.347656 21.375 48.886719 21.011719 48.492188 20.585938 C 43.933594 15.652344 38.21875 13.171875 31.625 12.332031 C 24.777344 11.457031 18.539062 12.980469 12.769531 16.640625 C 12.070312 17.082031 11.460938 17.667969 10.8125 18.1875 C 9.320312 19.324219 7.925781 20.542969 7.328125 22.417969 L 7.339844 22.402344 C 7.082031 22.792969 6.820312 23.183594 6.558594 23.574219 L 6.570312 23.554688 C 6.292969 23.558594 6.015625 23.5625 5.738281 23.5625 "/>
<path style=" stroke:none;fill-rule:nonzero;fill:rgb(18.540955%,25.177002%,30.236816%);fill-opacity:1;" d="M 12.269531 43.984375 C 12.59375 44.144531 12.933594 44.285156 13.25 44.46875 C 19.027344 47.78125 24.757812 47.367188 30.4375 44.226562 C 33.316406 42.632812 35.800781 40.511719 38.1875 38.265625 C 40.660156 35.9375 43.078125 33.550781 45.59375 31.273438 C 46.628906 30.332031 47.839844 29.578125 49 28.785156 C 49.40625 28.507812 49.902344 28.363281 50.363281 28.15625 C 52.09375 33.363281 46.492188 43.351562 39.726562 47.4375 C 30.671875 52.910156 18.695312 51.167969 12.269531 43.984375 "/>
<path style=" stroke:none;fill-rule:nonzero;fill:rgb(41.163635%,54.779053%,59.667969%);fill-opacity:1;" d="M 25.988281 39.175781 C 29.128906 38.3125 31.828125 36.386719 34.585938 34.640625 C 37.546875 32.765625 40.480469 30.832031 43.539062 29.148438 C 45.183594 28.246094 47.054688 27.800781 48.835938 27.1875 C 49.21875 27.054688 49.65625 27.101562 50.480469 27.027344 C 49.953125 27.402344 49.78125 27.558594 49.585938 27.652344 C 46.050781 29.351562 43.199219 32.019531 40.394531 34.777344 C 38.359375 36.78125 36.320312 38.800781 34.125 40.601562 C 30.863281 43.28125 27.140625 45.011719 22.992188 45.386719 C 19.386719 45.714844 14.105469 44.03125 11.363281 41.582031 C 9.605469 40.007812 7.773438 38.625 6.960938 36.261719 C 6.960938 36.261719 13.492188 42.621094 25.988281 39.175781 "/>
<path style=" stroke:none;fill-rule:nonzero;fill:rgb(97.738647%,69.230652%,4.821777%);fill-opacity:1;" d="M 11.210938 22.050781 C 13.679688 21.34375 16.171875 20.734375 18.765625 20.890625 C 24.433594 21.238281 29.566406 22.941406 33.691406 27.046875 C 34.792969 28.148438 35.59375 29.445312 36.242188 31.078125 C 33.371094 33.242188 30.300781 34.890625 26.621094 35.71875 C 26.480469 31.058594 25.128906 27.203125 20.917969 24.949219 C 17.1875 22.949219 13.320312 22.355469 9.277344 23.976562 C 8.886719 24.09375 8.496094 24.214844 8.105469 24.335938 L 8.09375 24.328125 C 9.132812 23.570312 10.171875 22.808594 11.210938 22.050781 "/>
<path style=" stroke:none;fill-rule:nonzero;fill:rgb(96.853638%,57.504272%,7.150269%);fill-opacity:1;" d="M 24.285156 36.246094 C 21.429688 36.292969 18.5625 36.625 15.722656 35.855469 C 14.191406 35.441406 12.902344 34.648438 11.925781 33.390625 C 10.699219 31.800781 10.847656 29.558594 12.242188 28.117188 C 14.402344 25.886719 18.601562 25.554688 21.503906 27.382812 C 24.347656 29.167969 25.699219 32.714844 24.671875 35.707031 C 24.632812 35.820312 24.527344 35.914062 24.285156 36.246094 "/>
<path style=" stroke:none;fill-rule:nonzero;fill:rgb(57.952881%,75.012207%,80.671692%);fill-opacity:1;" d="M 9.652344 24.347656 C 12.847656 23.546875 15.9375 23.761719 19.011719 25.210938 C 17.519531 25.308594 16.144531 25.300781 14.796875 25.511719 C 12.476562 25.875 10.332031 27.84375 10.042969 29.707031 C 9.601562 32.578125 10.769531 35.0625 13.398438 36.15625 C 14.960938 36.808594 16.691406 37.097656 18.371094 37.414062 C 20.910156 37.898438 23.441406 37.566406 25.941406 37.03125 C 27.054688 36.792969 28.140625 36.410156 29.558594 36 C 29.125 36.359375 28.914062 36.613281 28.644531 36.75 C 25.863281 38.125 22.984375 39.070312 19.824219 39 C 17.332031 38.949219 14.84375 39.097656 12.433594 38.191406 C 10.546875 37.480469 8.855469 36.542969 7.445312 35.078125 C 5.121094 32.660156 4.71875 30.425781 6.164062 27.40625 C 7.089844 26.117188 8.320312 25.171875 9.652344 24.347656 "/>
<path style=" stroke:none;fill-rule:nonzero;fill:rgb(60.212708%,59.489441%,59.669495%);fill-opacity:1;" d="M 6.960938 36.261719 C 6.914062 36.238281 6.867188 36.214844 6.820312 36.191406 C 6.859375 36.222656 6.898438 36.253906 6.9375 36.28125 L 6.960938 36.261719 "/>
<path style=" stroke:none;fill-rule:nonzero;fill:rgb(63.731384%,63.072205%,63.235474%);fill-opacity:1;" d="M 8.105469 24.335938 C 7.714844 24.714844 7.328125 25.097656 6.9375 25.476562 L 6.957031 25.496094 C 7.019531 24.796875 7.402344 24.410156 8.09375 24.328125 L 8.105469 24.335938 "/>
<path style=" stroke:none;fill-rule:nonzero;fill:rgb(63.731384%,63.072205%,63.235474%);fill-opacity:1;" d="M 6.9375 25.476562 C 6.910156 25.523438 6.886719 25.574219 6.855469 25.621094 C 6.890625 25.578125 6.921875 25.535156 6.957031 25.496094 L 6.9375 25.476562 "/>
</g>
</svg>
