<?xml version="1.0" encoding="UTF-8"?>
<svg xmlns="http://www.w3.org/2000/svg" xmlns:xlink="http://www.w3.org/1999/xlink" width="56pt" height="56pt" viewBox="0 0 56 56" version="1.1">
<g id="surface1">
<rect x="0" y="0" width="56" height="56" style="fill:rgb(35.528564%,13.284302%,42.726135%);fill-opacity:1;stroke:none;"/>
<path style=" stroke:none;fill-rule:evenodd;fill:rgb(100%,100%,100%);fill-opacity:1;" d="M 39.375 45.96875 L 39.375 45.964844 C 37.535156 45.921875 36.082031 44.398438 36.125 42.558594 C 36.125 42.480469 36.132812 42.402344 36.136719 42.324219 C 36.136719 38.609375 39.335938 35.863281 42.449219 34.355469 L 44.125 33.617188 C 45.457031 39.496094 44.148438 45.96875 39.375 45.96875 Z M 32.789062 43.152344 C 32.960938 45.847656 36.136719 47.128906 38.617188 47.128906 C 45.523438 47.128906 50.054688 41.335938 47.492188 32.425781 L 47.234375 31.59375 L 47.230469 31.582031 C 42.871094 21.277344 32.03125 21.363281 28.933594 25.222656 C 28.921875 25.234375 28.800781 25.417969 28.800781 25.417969 C 28.171875 26.464844 28.511719 27.824219 29.558594 28.453125 C 30.554688 29.050781 31.847656 28.773438 32.511719 27.820312 C 32.824219 27.382812 32.964844 26.847656 32.902344 26.316406 C 32.800781 23.460938 39.203125 22.78125 42.578125 29.273438 C 43.136719 30.378906 43.582031 31.53125 43.90625 32.726562 C 43.257812 33.042969 42.617188 33.355469 42.011719 33.652344 C 38.15625 35.523438 33.40625 38.152344 32.816406 42.140625 L 32.789062 43.152344 "/>
<path style=" stroke:none;fill-rule:evenodd;fill:rgb(100%,100%,100%);fill-opacity:1;" d="M 35.125 15.378906 C 32.46875 17.371094 34.929688 20.789062 37.484375 20.59375 C 39.234375 20.539062 40.628906 19.105469 40.632812 17.355469 C 40.300781 10.863281 33.855469 8.871094 28.730469 8.871094 C 15.585938 8.871094 7.78125 18.621094 7.78125 27.9375 C 8.039062 36.433594 15.082031 43.148438 23.585938 42.988281 C 26.234375 43.0625 28.84375 42.328125 31.066406 40.882812 L 31.066406 39.675781 C 28.324219 41.1875 26.773438 41.808594 23.542969 41.433594 C 15.253906 40.445312 12.320312 31.457031 14.226562 23.804688 C 16.132812 16.152344 20.308594 10.632812 28.726562 9.984375 C 32.773438 9.667969 39.667969 11.949219 35.121094 15.375 "/>
</g>
</svg>
