<?xml version="1.0" encoding="UTF-8"?>
<svg xmlns="http://www.w3.org/2000/svg" xmlns:xlink="http://www.w3.org/1999/xlink" width="56pt" height="56pt" viewBox="0 0 56 56" version="1.1">
<g id="surface1">
<rect x="0" y="0" width="56" height="56" style="fill:rgb(91.906738%,12.271118%,15.834045%);fill-opacity:1;stroke:none;"/>
<path style=" stroke:none;fill-rule:nonzero;fill:rgb(100%,100%,100%);fill-opacity:1;" d="M 43.398438 16.148438 L 43.417969 16.148438 C 43.4375 16.148438 43.4375 16.148438 43.4375 16.148438 C 46.007812 15.875 48.574219 13.5625 48.164062 10.835938 C 47.789062 8.347656 45.535156 6.777344 43.125 7.09375 C 41.753906 7.269531 40.105469 8.109375 39.417969 9.367188 C 38.773438 10.503906 38.675781 11.875 38.929688 13.128906 C 39.382812 15.226562 41.378906 16.207031 43.398438 16.148438 "/>
<path style=" stroke:none;fill-rule:nonzero;fill:rgb(100%,100%,100%);fill-opacity:1;" d="M 13.230469 27.832031 C 13.523438 25.285156 11.640625 24.109375 9.917969 23.65625 C 8.386719 23.304688 7.132812 23.109375 7.484375 21.929688 C 7.503906 21.894531 7.523438 21.851562 7.542969 21.8125 C 8.09375 20.636719 9.464844 20.03125 11.308594 19.539062 C 11.5625 19.480469 11.816406 19.402344 12.09375 19.34375 C 13.816406 18.953125 15.855469 18.796875 17.816406 18.441406 C 18.699219 18.285156 19.542969 18.089844 20.324219 17.816406 C 22.148438 17.011719 23.324219 15.246094 24.070312 13.464844 C 24.382812 12.738281 24.617188 11.992188 24.796875 11.304688 C 25.070312 10.226562 25.265625 9.289062 25.597656 8.601562 C 25.933594 7.972656 26.402344 7.5625 27.148438 7.445312 C 28.597656 7.289062 29.1875 8.875 29.65625 11.167969 C 30.207031 13.816406 30.128906 17.539062 31.402344 19.816406 C 32.089844 20.734375 33.402344 21.070312 34.96875 21.070312 C 36.832031 21.070312 39.046875 20.578125 41.027344 19.992188 C 43.496094 19.265625 45.652344 18.597656 47.027344 18.71875 C 47.730469 18.777344 48.242188 19.050781 48.496094 19.65625 C 48.554688 19.816406 48.574219 19.992188 48.574219 20.167969 C 48.28125 21.597656 45.789062 23.265625 42.613281 25.207031 C 38.597656 27.617188 33.519531 29.792969 31.460938 32.261719 C 31.105469 32.734375 30.890625 33.261719 30.8125 33.8125 C 30.246094 36.242188 32.207031 39.398438 34.480469 41.984375 C 36.65625 44.457031 38.675781 46.554688 38.578125 47.925781 C 38.496094 48.199219 38.300781 48.457031 37.96875 48.652344 C 37.636719 48.867188 37.222656 48.964844 36.773438 48.945312 C 34.96875 48.886719 32.285156 47.179688 29.34375 45.003906 C 25.636719 42.28125 22.148438 38.574219 19.34375 37.4375 C 19.089844 37.359375 18.835938 37.300781 18.582031 37.300781 C 16.523438 37.242188 14.71875 39.710938 13.5625 42.121094 C 12.523438 44.359375 11.738281 46.28125 10.855469 46.101562 C 10.679688 46.0625 10.503906 45.945312 10.308594 45.730469 C 9.820312 45.160156 9.660156 44.179688 9.699219 42.925781 C 9.757812 41.691406 10.035156 40.222656 10.386719 38.59375 C 11.054688 35.554688 12.308594 32.242188 12.914062 29.558594 C 13.050781 28.949219 13.171875 28.382812 13.230469 27.832031 "/>
</g>
</svg>
