<?xml version="1.0" encoding="UTF-8"?>
<svg xmlns="http://www.w3.org/2000/svg" xmlns:xlink="http://www.w3.org/1999/xlink" width="56pt" height="56pt" viewBox="0 0 56 56" version="1.1">
<g id="surface1">
<rect x="0" y="0" width="56" height="56" style="fill:rgb(11.155701%,11.036682%,11.209106%);fill-opacity:1;stroke:none;"/>
<path style=" stroke:none;fill-rule:nonzero;fill:rgb(75.582886%,55.589294%,10.600281%);fill-opacity:1;" d="M 35.164062 12.734375 C 35.164062 12.734375 44.855469 33.675781 30.878906 41.328125 L 2.320312 41.328125 L 2.320312 43.269531 L 45.214844 43.269531 L 45.214844 42.28125 C 50.183594 39.941406 50.546875 39.601562 53.679688 38.824219 C 53.679688 38.824219 48.738281 20.808594 35.15625 12.734375 "/>
<path style=" stroke:none;fill-rule:nonzero;fill:rgb(90.948486%,11.764526%,15.21759%);fill-opacity:1;" d="M 21.667969 30.285156 C 21.667969 34.15625 18.972656 37.304688 15.65625 37.304688 C 12.335938 37.304688 9.644531 34.15625 9.644531 30.285156 C 9.644531 26.410156 12.335938 23.273438 15.65625 23.273438 C 18.972656 23.273438 21.667969 26.414062 21.667969 30.285156 "/>
</g>
</svg>
