<?xml version="1.0" encoding="UTF-8"?>
<svg xmlns="http://www.w3.org/2000/svg" xmlns:xlink="http://www.w3.org/1999/xlink" width="56pt" height="56pt" viewBox="0 0 56 56" version="1.1">
<g id="surface1">
<rect x="0" y="0" width="56" height="56" style="fill:rgb(14.44397%,40.899658%,42.948914%);fill-opacity:1;stroke:none;"/>
<path style=" stroke:none;fill-rule:nonzero;fill:rgb(100%,100%,100%);fill-opacity:1;" d="M 47.878906 35.140625 C 47.699219 34.480469 45.765625 34.765625 44.171875 34.617188 C 42.722656 34.484375 40.867188 34.226562 38.632812 33.449219 C 36.542969 32.726562 34.523438 31.894531 32.757812 30.941406 C 32.757812 30.941406 32.046875 30.566406 31.96875 30.523438 C 31.824219 30.433594 31.707031 30.371094 31.5625 30.28125 C 31.476562 30.230469 31.34375 30.152344 31.25 30.109375 C 31.125 30.058594 31.042969 29.988281 30.9375 29.925781 C 30.828125 29.855469 30.679688 29.785156 30.566406 29.71875 C 30.40625 29.617188 30.304688 29.542969 30.152344 29.433594 C 30.058594 29.359375 30.011719 29.339844 29.882812 29.265625 C 29.808594 29.21875 29.667969 29.144531 29.601562 29.097656 C 29.460938 29.007812 29.371094 28.929688 29.226562 28.832031 C 29.140625 28.769531 29.078125 28.730469 28.972656 28.667969 C 28.871094 28.605469 28.773438 28.523438 28.683594 28.457031 C 28.636719 28.421875 28.5625 28.378906 28.519531 28.332031 C 28.414062 28.230469 28.308594 28.144531 28.203125 28.054688 C 28.101562 27.980469 28.007812 27.890625 27.910156 27.816406 C 27.847656 27.769531 27.742188 27.679688 27.679688 27.636719 C 27.523438 27.519531 27.421875 27.433594 27.261719 27.320312 C 27.160156 27.242188 27.074219 27.144531 26.972656 27.066406 C 26.859375 26.984375 26.753906 26.886719 26.636719 26.800781 C 26.558594 26.75 26.472656 26.683594 26.414062 26.621094 C 26.339844 26.53125 26.269531 26.46875 26.1875 26.378906 C 26.128906 26.3125 26.015625 26.242188 25.953125 26.175781 C 25.855469 26.050781 25.714844 25.917969 25.585938 25.820312 C 25.507812 25.75 25.484375 25.71875 25.453125 25.679688 C 25.429688 25.648438 25.402344 25.609375 25.339844 25.542969 C 25.277344 25.476562 25.253906 25.460938 25.230469 25.433594 C 25.199219 25.410156 25.167969 25.378906 25.082031 25.292969 C 25.054688 25.265625 25.007812 25.203125 24.964844 25.144531 C 24.925781 25.089844 24.890625 25.035156 24.863281 25.007812 C 24.785156 24.925781 24.734375 24.867188 24.679688 24.8125 C 24.640625 24.773438 24.597656 24.726562 24.546875 24.675781 C 24.515625 24.640625 24.492188 24.601562 24.464844 24.566406 C 24.441406 24.527344 24.417969 24.492188 24.390625 24.460938 C 24.34375 24.410156 24.308594 24.425781 24.296875 24.433594 C 24.269531 24.453125 24.261719 24.507812 24.289062 24.574219 C 24.332031 24.648438 24.390625 24.734375 24.425781 24.785156 C 24.4375 24.796875 24.441406 24.804688 24.449219 24.8125 C 24.460938 24.835938 24.476562 24.859375 24.488281 24.886719 C 24.511719 24.921875 24.53125 24.960938 24.558594 24.996094 C 24.617188 25.078125 24.679688 25.144531 24.742188 25.207031 C 24.765625 25.226562 24.785156 25.246094 24.804688 25.269531 C 24.847656 25.3125 24.878906 25.359375 24.910156 25.410156 C 24.945312 25.457031 24.980469 25.511719 25.027344 25.558594 C 25.046875 25.582031 25.066406 25.605469 25.085938 25.628906 C 25.105469 25.65625 25.125 25.683594 25.148438 25.707031 C 25.183594 25.742188 25.21875 25.777344 25.253906 25.8125 C 25.3125 25.875 25.375 25.9375 25.429688 25.984375 C 25.476562 26.023438 25.523438 26.074219 25.570312 26.117188 C 25.6875 26.257812 25.816406 26.398438 25.921875 26.535156 C 25.980469 26.609375 26.09375 26.667969 26.164062 26.71875 C 26.238281 26.777344 26.296875 26.875 26.359375 26.953125 C 26.40625 27.007812 26.507812 27.097656 26.554688 27.15625 C 26.671875 27.304688 26.753906 27.386719 26.910156 27.503906 C 27.003906 27.570312 27.074219 27.636719 27.148438 27.726562 C 27.191406 27.785156 27.328125 27.914062 27.378906 27.976562 C 27.503906 28.140625 27.5625 28.292969 27.542969 28.296875 C 27.457031 28.320312 27.246094 28.132812 27.117188 28.050781 C 27.015625 27.980469 26.996094 27.953125 26.898438 27.878906 C 26.875 27.859375 26.71875 27.75 26.664062 27.679688 C 26.621094 27.644531 26.507812 27.515625 26.46875 27.472656 C 26.292969 27.246094 26.234375 27.230469 26.027344 27.03125 C 25.878906 26.886719 25.695312 26.757812 25.550781 26.628906 C 25.507812 26.582031 25.464844 26.539062 25.421875 26.488281 C 25.375 26.441406 25.316406 26.398438 25.273438 26.347656 C 25.203125 26.265625 25.113281 26.097656 25.03125 26.035156 C 24.949219 25.972656 24.886719 25.910156 24.800781 25.847656 C 24.769531 25.828125 24.742188 25.789062 24.710938 25.761719 C 24.667969 25.734375 24.621094 25.699219 24.589844 25.660156 C 24.488281 25.53125 24.394531 25.402344 24.289062 25.277344 C 24.246094 25.214844 24.179688 25.167969 24.132812 25.101562 C 24.039062 24.96875 23.957031 24.828125 23.859375 24.699219 C 23.71875 24.519531 23.523438 24.390625 23.390625 24.210938 C 23.253906 24.023438 23.171875 23.808594 23.042969 23.613281 C 22.988281 23.53125 22.902344 23.46875 22.84375 23.390625 C 22.808594 23.34375 22.789062 23.289062 22.753906 23.238281 C 22.6875 23.132812 22.605469 23.03125 22.535156 22.933594 C 22.445312 22.796875 22.386719 22.65625 22.292969 22.511719 C 22.28125 22.492188 22.25 22.398438 22.191406 22.328125 C 22.136719 22.261719 22.089844 22.183594 22.027344 22.082031 C 21.964844 21.984375 21.933594 21.917969 21.890625 21.851562 C 21.84375 21.78125 21.816406 21.71875 21.785156 21.671875 C 21.757812 21.621094 21.691406 21.53125 21.667969 21.496094 C 21.585938 21.371094 21.5625 21.308594 21.476562 21.191406 C 21.421875 21.121094 21.363281 21.058594 21.316406 21.078125 C 21.277344 21.105469 21.292969 21.152344 21.300781 21.183594 C 21.339844 21.285156 21.339844 21.269531 21.378906 21.34375 C 21.449219 21.46875 21.472656 21.527344 21.546875 21.644531 C 21.582031 21.699219 21.640625 21.824219 21.691406 21.890625 C 21.734375 21.960938 21.785156 22.042969 21.816406 22.101562 C 21.855469 22.160156 21.90625 22.324219 21.957031 22.390625 C 21.992188 22.4375 22.042969 22.535156 22.082031 22.605469 C 22.152344 22.746094 22.242188 22.859375 22.316406 22.96875 C 22.367188 23.0625 22.414062 23.15625 22.464844 23.25 C 22.5625 23.398438 22.679688 23.535156 22.777344 23.6875 C 22.835938 23.792969 22.894531 23.902344 22.953125 24.007812 C 23.011719 24.09375 23.09375 24.167969 23.148438 24.257812 C 23.21875 24.363281 23.257812 24.480469 23.328125 24.585938 C 23.382812 24.667969 23.453125 24.746094 23.507812 24.828125 C 23.601562 24.96875 23.6875 25.105469 23.785156 25.238281 C 23.84375 25.3125 23.914062 25.371094 23.96875 25.449219 C 24.039062 25.546875 24.101562 25.667969 24.179688 25.753906 C 24.269531 25.839844 24.296875 25.890625 24.371094 25.972656 C 24.476562 26.105469 24.746094 26.484375 24.699219 26.488281 C 24.542969 26.511719 24.238281 26.164062 24.109375 26.039062 C 24.011719 25.941406 23.902344 25.871094 23.832031 25.777344 C 23.730469 25.640625 23.65625 25.488281 23.554688 25.355469 C 23.519531 25.304688 23.464844 25.269531 23.425781 25.222656 C 23.355469 25.132812 23.289062 25.035156 23.210938 24.957031 C 23.175781 24.925781 23.140625 24.894531 23.109375 24.859375 C 22.984375 24.699219 22.882812 24.53125 22.761719 24.363281 C 22.710938 24.296875 22.644531 24.238281 22.59375 24.171875 C 22.554688 24.117188 22.53125 24.058594 22.5 24 C 22.453125 23.925781 22.386719 23.855469 22.339844 23.78125 C 22.300781 23.726562 22.28125 23.671875 22.242188 23.613281 C 22.175781 23.515625 22.089844 23.429688 22.023438 23.328125 C 21.972656 23.246094 21.960938 23.140625 21.90625 23.058594 C 21.769531 22.851562 21.621094 22.640625 21.488281 22.433594 C 21.457031 22.378906 21.441406 22.320312 21.410156 22.265625 C 21.300781 22.097656 21.199219 21.914062 21.089844 21.746094 C 21.050781 21.683594 21.035156 21.613281 20.996094 21.550781 C 20.945312 21.476562 20.871094 21.414062 20.820312 21.34375 C 20.785156 21.285156 20.769531 21.21875 20.738281 21.15625 C 20.699219 21.066406 20.644531 20.980469 20.597656 20.898438 C 20.570312 20.84375 20.554688 20.792969 20.523438 20.746094 C 20.394531 20.542969 20.289062 20.328125 20.183594 20.105469 C 20.128906 19.988281 20.046875 19.882812 19.992188 19.765625 C 19.929688 19.632812 19.871094 19.503906 19.8125 19.375 C 19.78125 19.289062 19.75 19.207031 19.71875 19.117188 C 19.65625 18.984375 19.558594 18.871094 19.5 18.730469 C 19.457031 18.636719 19.433594 18.546875 19.394531 18.46875 C 19.371094 18.417969 19.324219 18.378906 19.289062 18.402344 C 19.257812 18.421875 19.253906 18.464844 19.273438 18.539062 C 19.316406 18.679688 19.394531 18.84375 19.429688 18.921875 C 19.503906 19.085938 19.542969 19.25 19.613281 19.414062 C 19.652344 19.507812 19.714844 19.59375 19.753906 19.679688 C 19.824219 19.835938 19.894531 19.992188 19.964844 20.136719 C 20.003906 20.222656 20.035156 20.308594 20.082031 20.390625 C 20.105469 20.429688 20.144531 20.480469 20.164062 20.527344 C 20.210938 20.628906 20.222656 20.742188 20.273438 20.839844 C 20.320312 20.945312 20.402344 21.03125 20.449219 21.128906 C 20.695312 21.65625 20.941406 22.152344 21.238281 22.617188 C 21.320312 22.746094 21.363281 22.90625 21.449219 23.03125 C 21.535156 23.167969 21.652344 23.269531 21.734375 23.402344 C 21.808594 23.511719 21.824219 23.660156 21.890625 23.777344 C 21.984375 23.953125 22.113281 24.101562 22.21875 24.265625 C 22.246094 24.3125 22.253906 24.363281 22.285156 24.410156 C 22.324219 24.472656 22.375 24.535156 22.414062 24.597656 C 22.46875 24.683594 22.496094 24.78125 22.554688 24.859375 C 22.617188 24.949219 22.710938 25.019531 22.773438 25.105469 C 22.847656 25.214844 22.902344 25.339844 22.984375 25.449219 C 23.039062 25.523438 23.128906 25.574219 23.183594 25.648438 C 23.277344 25.769531 23.589844 26.179688 23.679688 26.292969 C 23.816406 26.46875 24.0625 26.730469 24.175781 26.960938 C 24.214844 27.03125 24.335938 27.203125 24.308594 27.234375 C 24.246094 27.28125 23.933594 26.941406 23.882812 26.890625 C 23.753906 26.765625 23.640625 26.59375 23.527344 26.453125 C 23.5 26.417969 23.203125 26.128906 23.179688 26.097656 C 23.148438 26.058594 23.121094 26.019531 23.09375 25.980469 C 23.011719 25.855469 22.960938 25.707031 22.871094 25.589844 C 22.835938 25.542969 22.777344 25.507812 22.742188 25.457031 C 22.671875 25.367188 22.628906 25.265625 22.558594 25.171875 C 22.457031 25.027344 22.320312 24.898438 22.210938 24.757812 C 22.097656 24.597656 22.015625 24.410156 21.898438 24.253906 C 21.839844 24.175781 21.765625 24.109375 21.710938 24.023438 C 21.683594 23.988281 21.675781 23.953125 21.652344 23.914062 C 21.609375 23.851562 21.550781 23.777344 21.519531 23.707031 C 21.488281 23.640625 21.46875 23.578125 21.429688 23.519531 C 21.308594 23.328125 21.183594 23.125 21.066406 22.933594 C 21.007812 22.847656 20.976562 22.757812 20.921875 22.671875 C 20.832031 22.53125 20.714844 22.402344 20.625 22.261719 C 20.519531 22.089844 20.460938 21.886719 20.347656 21.71875 C 20.277344 21.605469 20.195312 21.503906 20.125 21.390625 C 20.046875 21.269531 20.007812 21.128906 19.9375 21.003906 C 19.875 20.890625 19.792969 20.789062 19.738281 20.675781 C 19.679688 20.554688 19.640625 20.433594 19.582031 20.308594 C 19.550781 20.242188 19.5 20.171875 19.472656 20.105469 C 19.433594 20.019531 19.425781 19.933594 19.382812 19.851562 C 19.28125 19.617188 19.121094 19.394531 19.011719 19.160156 C 18.933594 18.996094 18.863281 18.824219 18.796875 18.648438 C 18.761719 18.550781 18.746094 18.460938 18.703125 18.371094 C 18.605469 18.15625 18.484375 17.929688 18.394531 17.71875 C 18.351562 17.605469 18.3125 17.492188 18.269531 17.378906 C 18.261719 17.347656 18.257812 17.316406 18.246094 17.28125 C 18.203125 17.179688 18.144531 17.082031 18.101562 16.984375 C 18.066406 16.867188 18.03125 16.753906 17.992188 16.636719 C 17.84375 16.261719 17.707031 15.835938 17.566406 15.445312 C 17.546875 15.375 17.542969 15.285156 17.515625 15.207031 C 17.441406 15.007812 17.367188 14.804688 17.296875 14.605469 C 17.253906 14.503906 17.15625 14.535156 17.179688 14.640625 C 17.210938 14.777344 17.226562 14.8125 17.25 14.921875 C 17.261719 14.980469 17.273438 15.03125 17.28125 15.089844 C 17.300781 15.15625 17.335938 15.226562 17.351562 15.289062 C 17.390625 15.410156 17.394531 15.527344 17.433594 15.644531 C 17.492188 15.804688 17.550781 15.960938 17.605469 16.128906 C 17.617188 16.210938 17.636719 16.292969 17.652344 16.378906 C 17.675781 16.457031 17.710938 16.535156 17.738281 16.605469 C 17.820312 16.8125 17.902344 17.007812 17.972656 17.210938 C 18.003906 17.328125 18.03125 17.441406 18.058594 17.558594 C 18.089844 17.621094 18.136719 17.6875 18.164062 17.75 C 18.191406 17.808594 18.195312 17.859375 18.21875 17.917969 C 18.273438 18.046875 18.320312 18.179688 18.378906 18.3125 C 18.425781 18.421875 18.484375 18.53125 18.527344 18.644531 C 18.546875 18.703125 18.546875 18.75 18.570312 18.804688 C 18.695312 19.148438 18.828125 19.507812 18.976562 19.835938 C 19.015625 19.914062 19.023438 20 19.0625 20.082031 C 19.09375 20.152344 19.136719 20.222656 19.164062 20.289062 C 19.179688 20.335938 19.195312 20.378906 19.210938 20.421875 C 19.257812 20.519531 19.335938 20.597656 19.378906 20.695312 C 19.507812 20.960938 19.621094 21.214844 19.78125 21.441406 C 19.925781 21.65625 19.992188 21.933594 20.101562 22.1875 C 20.15625 22.304688 20.226562 22.40625 20.292969 22.511719 C 20.328125 22.566406 20.347656 22.628906 20.378906 22.6875 C 20.449219 22.820312 20.488281 22.933594 20.574219 23.050781 C 20.644531 23.144531 20.636719 23.164062 20.695312 23.300781 C 20.710938 23.339844 20.777344 23.589844 20.765625 23.589844 C 20.742188 23.605469 20.617188 23.53125 20.578125 23.484375 C 20.523438 23.421875 20.429688 23.335938 20.371094 23.199219 C 20.339844 23.132812 20.277344 23.015625 20.246094 22.949219 C 20.167969 22.78125 20.035156 22.640625 19.941406 22.488281 C 19.882812 22.398438 19.851562 22.300781 19.804688 22.207031 C 19.726562 22.03125 19.632812 21.851562 19.546875 21.667969 C 19.511719 21.59375 19.457031 21.523438 19.414062 21.453125 C 19.367188 21.386719 19.347656 21.308594 19.300781 21.238281 C 19.207031 21.085938 19.09375 20.914062 19.015625 20.746094 C 18.957031 20.621094 18.925781 20.5 18.871094 20.378906 C 18.851562 20.339844 18.824219 20.300781 18.796875 20.265625 C 18.757812 20.203125 18.742188 20.136719 18.707031 20.066406 C 18.664062 19.972656 18.597656 19.882812 18.554688 19.789062 C 18.464844 19.597656 18.414062 19.398438 18.328125 19.210938 C 18.285156 19.125 18.214844 19.046875 18.171875 18.960938 C 18.109375 18.828125 18.101562 18.660156 18.039062 18.519531 C 17.875 18.144531 17.683594 17.761719 17.542969 17.375 C 17.523438 17.308594 17.511719 17.234375 17.492188 17.164062 C 17.429688 16.996094 17.351562 16.839844 17.289062 16.671875 C 17.261719 16.597656 17.253906 16.527344 17.226562 16.449219 C 17.183594 16.339844 17.132812 16.21875 17.089844 16.101562 C 17.082031 16.066406 17.074219 16.023438 17.058594 15.984375 C 17.007812 15.878906 16.980469 15.75 16.929688 15.640625 C 16.902344 15.582031 16.863281 15.519531 16.839844 15.457031 C 16.800781 15.347656 16.8125 15.203125 16.769531 15.101562 C 16.714844 14.941406 16.648438 14.769531 16.589844 14.613281 C 16.554688 14.523438 16.550781 14.433594 16.515625 14.339844 C 16.480469 14.234375 16.441406 14.121094 16.402344 14.015625 C 16.363281 13.90625 16.363281 13.789062 16.328125 13.675781 C 16.300781 13.589844 16.265625 13.5 16.234375 13.417969 C 16.183594 13.265625 16.160156 13.105469 16.101562 12.960938 C 16.09375 12.9375 16.082031 12.910156 16.074219 12.882812 C 16.058594 12.84375 16.035156 12.804688 15.996094 12.820312 C 15.949219 12.832031 15.949219 12.886719 15.953125 12.925781 C 15.960938 13.039062 16.003906 13.140625 16.035156 13.230469 C 16.070312 13.328125 16.089844 13.429688 16.113281 13.523438 C 16.128906 13.582031 16.128906 13.648438 16.144531 13.710938 C 16.160156 13.800781 16.195312 13.886719 16.21875 13.972656 C 16.242188 14.0625 16.230469 14.148438 16.25 14.214844 C 16.308594 14.40625 16.371094 14.621094 16.433594 14.804688 C 16.460938 14.898438 16.464844 15.007812 16.496094 15.089844 C 16.53125 15.1875 16.566406 15.285156 16.601562 15.382812 C 16.632812 15.460938 16.636719 15.539062 16.671875 15.617188 C 16.707031 15.695312 16.75 15.78125 16.78125 15.871094 C 16.816406 15.992188 16.8125 16.105469 16.851562 16.21875 C 16.917969 16.402344 17.003906 16.574219 17.0625 16.746094 C 17.082031 16.808594 17.089844 16.878906 17.113281 16.941406 C 17.167969 17.09375 17.203125 17.253906 17.261719 17.40625 C 17.339844 17.621094 17.4375 17.832031 17.519531 18.042969 C 17.59375 18.253906 17.605469 18.507812 17.691406 18.703125 C 17.738281 18.800781 17.832031 18.859375 17.871094 18.953125 C 17.902344 19.011719 17.894531 19.082031 17.914062 19.152344 C 17.941406 19.234375 17.976562 19.316406 18.007812 19.390625 C 18.027344 19.457031 18.042969 19.523438 18.0625 19.589844 C 18.089844 19.667969 18.144531 19.75 18.179688 19.828125 C 18.238281 19.953125 18.269531 20.082031 18.335938 20.195312 C 18.394531 20.28125 18.464844 20.359375 18.507812 20.453125 C 18.558594 20.554688 18.574219 20.667969 18.621094 20.777344 C 18.695312 20.9375 18.777344 21.089844 18.839844 21.257812 C 18.894531 21.40625 18.914062 21.570312 18.988281 21.703125 C 19.058594 21.832031 19.148438 21.953125 19.21875 22.082031 C 19.265625 22.179688 19.308594 22.277344 19.355469 22.375 C 19.394531 22.453125 19.464844 22.523438 19.511719 22.605469 C 19.566406 22.703125 19.617188 22.808594 19.664062 22.90625 C 19.699219 22.984375 19.714844 23.058594 19.757812 23.125 C 19.820312 23.226562 19.867188 23.3125 19.9375 23.414062 C 19.992188 23.503906 20.058594 23.621094 20.101562 23.730469 C 20.132812 23.808594 20.167969 23.898438 20.214844 23.964844 C 20.265625 24.035156 20.328125 24.097656 20.371094 24.175781 C 20.414062 24.25 20.472656 24.496094 20.453125 24.507812 C 20.398438 24.527344 20.246094 24.382812 20.207031 24.332031 C 20.085938 24.1875 20.027344 23.992188 19.917969 23.839844 C 19.800781 23.671875 19.730469 23.578125 19.636719 23.386719 C 19.585938 23.28125 19.496094 23.082031 19.433594 22.984375 C 19.371094 22.890625 19.289062 22.808594 19.242188 22.707031 C 19.207031 22.621094 19.1875 22.519531 19.148438 22.433594 C 19.09375 22.3125 18.976562 22.234375 18.917969 22.105469 C 18.851562 21.96875 18.824219 21.824219 18.75 21.691406 C 18.714844 21.628906 18.671875 21.554688 18.640625 21.488281 C 18.597656 21.40625 18.582031 21.324219 18.542969 21.242188 C 18.460938 21.070312 18.339844 20.925781 18.261719 20.753906 C 18.179688 20.578125 18.132812 20.390625 18.046875 20.214844 C 18.003906 20.117188 17.925781 20.035156 17.878906 19.941406 C 17.820312 19.8125 17.789062 19.679688 17.730469 19.550781 C 17.691406 19.476562 17.640625 19.398438 17.601562 19.324219 C 17.550781 19.214844 17.53125 19.09375 17.480469 18.976562 C 17.363281 18.714844 17.242188 18.445312 17.128906 18.1875 C 17.082031 18.085938 17.074219 17.984375 17.027344 17.882812 C 16.984375 17.792969 16.941406 17.707031 16.894531 17.617188 C 16.792969 17.386719 16.757812 17.121094 16.65625 16.890625 C 16.601562 16.773438 16.539062 16.660156 16.488281 16.535156 C 16.417969 16.339844 16.390625 16.132812 16.316406 15.929688 C 16.207031 15.621094 16.117188 15.300781 16.007812 14.996094 C 15.972656 14.902344 15.96875 14.8125 15.933594 14.71875 C 15.902344 14.628906 15.867188 14.539062 15.835938 14.449219 C 15.8125 14.375 15.796875 14.273438 15.777344 14.179688 C 15.695312 13.917969 15.613281 13.65625 15.53125 13.394531 C 15.511719 13.332031 15.507812 13.21875 15.484375 13.140625 C 15.472656 13.09375 15.449219 13.039062 15.429688 13 C 15.410156 12.9375 15.410156 12.886719 15.394531 12.824219 C 15.332031 12.636719 15.28125 12.410156 15.21875 12.222656 C 15.203125 12.160156 15.195312 12.074219 15.175781 12.007812 C 15.09375 11.734375 15.050781 11.402344 14.941406 11.152344 C 14.921875 11.101562 14.890625 11.046875 14.84375 11.0625 C 14.792969 11.074219 14.804688 11.128906 14.808594 11.175781 C 14.824219 11.296875 14.871094 11.40625 14.890625 11.507812 C 14.898438 11.554688 14.898438 11.617188 14.902344 11.671875 C 14.90625 11.71875 14.914062 11.777344 14.929688 11.828125 C 14.980469 11.988281 15.039062 12.179688 15.085938 12.339844 C 15.101562 12.414062 15.085938 12.535156 15.109375 12.621094 C 15.179688 12.882812 15.230469 13.1875 15.324219 13.417969 C 15.410156 13.632812 15.425781 13.882812 15.484375 14.113281 C 15.503906 14.210938 15.511719 14.3125 15.523438 14.410156 C 15.539062 14.507812 15.59375 14.574219 15.621094 14.652344 C 15.644531 14.714844 15.640625 14.765625 15.664062 14.828125 C 15.714844 14.992188 15.753906 15.152344 15.8125 15.320312 C 15.851562 15.433594 15.914062 15.539062 15.957031 15.652344 C 15.972656 15.703125 15.96875 15.746094 15.980469 15.804688 C 16.007812 15.917969 16.027344 16.03125 16.058594 16.144531 C 16.140625 16.371094 16.21875 16.613281 16.296875 16.835938 C 16.34375 16.960938 16.359375 17.082031 16.402344 17.203125 C 16.582031 17.691406 16.761719 18.171875 16.9375 18.652344 C 16.964844 18.761719 16.996094 18.867188 17.023438 18.972656 C 17.0625 19.082031 17.128906 19.175781 17.171875 19.273438 C 17.230469 19.398438 17.246094 19.527344 17.296875 19.660156 C 17.351562 19.816406 17.425781 19.9375 17.484375 20.097656 C 17.511719 20.171875 17.539062 20.257812 17.574219 20.335938 C 17.601562 20.390625 17.648438 20.445312 17.675781 20.5 C 17.726562 20.59375 17.734375 20.714844 17.777344 20.8125 C 17.828125 20.910156 17.90625 20.988281 17.964844 21.078125 C 18.011719 21.160156 18.019531 21.265625 18.058594 21.359375 C 18.128906 21.507812 18.214844 21.644531 18.277344 21.800781 C 18.304688 21.863281 18.316406 21.921875 18.34375 21.984375 C 18.378906 22.058594 18.433594 22.125 18.464844 22.203125 C 18.464844 22.203125 18.46875 22.203125 18.472656 22.210938 C 18.472656 22.21875 18.480469 22.234375 18.480469 22.25 C 18.488281 22.277344 18.5 22.316406 18.511719 22.34375 C 18.527344 22.386719 18.570312 22.460938 18.589844 22.488281 C 18.601562 22.503906 18.636719 22.539062 18.664062 22.574219 C 18.675781 22.589844 18.6875 22.605469 18.703125 22.621094 C 18.765625 22.722656 18.773438 22.863281 18.824219 22.976562 C 18.875 23.082031 18.96875 23.167969 19.019531 23.28125 C 19.0625 23.367188 19.082031 23.578125 19.03125 23.585938 C 18.8125 23.585938 18.796875 23.28125 18.722656 23.121094 C 18.664062 22.996094 18.578125 22.890625 18.511719 22.773438 C 18.496094 22.75 18.476562 22.703125 18.464844 22.652344 C 18.449219 22.609375 18.429688 22.5625 18.414062 22.53125 C 18.386719 22.472656 18.386719 22.480469 18.367188 22.4375 C 18.347656 22.398438 18.285156 22.320312 18.269531 22.28125 C 18.265625 22.28125 18.265625 22.277344 18.265625 22.277344 C 18.179688 22.140625 18.125 21.953125 18.066406 21.859375 C 18.03125 21.808594 17.988281 21.757812 17.953125 21.707031 C 17.902344 21.621094 17.871094 21.515625 17.828125 21.421875 C 17.785156 21.335938 17.722656 21.25 17.679688 21.15625 C 17.632812 21.050781 17.628906 20.914062 17.578125 20.804688 C 17.550781 20.746094 17.503906 20.683594 17.476562 20.628906 C 17.414062 20.503906 17.378906 20.371094 17.316406 20.25 C 17.289062 20.191406 17.234375 20.136719 17.207031 20.074219 C 17.15625 19.96875 17.132812 19.859375 17.078125 19.765625 C 16.964844 19.558594 16.839844 19.328125 16.746094 19.109375 C 16.6875 18.980469 16.667969 18.851562 16.613281 18.726562 C 16.566406 18.621094 16.5 18.511719 16.453125 18.410156 C 16.417969 18.339844 16.410156 18.273438 16.382812 18.195312 C 16.335938 18.074219 16.28125 17.949219 16.234375 17.828125 C 16.210938 17.742188 16.1875 17.5625 16.160156 17.488281 C 16.128906 17.398438 16.082031 17.296875 16.042969 17.207031 C 15.980469 17.074219 15.964844 16.933594 15.90625 16.800781 C 15.855469 16.695312 15.804688 16.589844 15.769531 16.480469 C 15.734375 16.390625 15.726562 16.308594 15.691406 16.222656 C 15.664062 16.160156 15.625 16.089844 15.601562 16.023438 C 15.570312 15.945312 15.550781 15.816406 15.527344 15.710938 C 15.488281 15.59375 15.441406 15.484375 15.40625 15.371094 C 15.382812 15.285156 15.378906 15.089844 15.359375 15.039062 C 15.238281 14.6875 15.128906 14.308594 15.015625 13.957031 C 14.964844 13.792969 14.941406 13.632812 14.894531 13.472656 C 14.878906 13.40625 14.878906 13.328125 14.859375 13.265625 C 14.828125 13.160156 14.785156 13.058594 14.753906 12.953125 C 14.734375 12.882812 14.722656 12.808594 14.710938 12.738281 C 14.695312 12.664062 14.65625 12.589844 14.628906 12.515625 C 14.558594 12.304688 14.523438 12.078125 14.460938 11.871094 C 14.441406 11.785156 14.441406 11.671875 14.414062 11.59375 C 14.332031 11.335938 14.316406 11.039062 14.238281 10.769531 C 14.222656 10.691406 14.210938 10.613281 14.195312 10.539062 C 14.058594 10.035156 14 9.472656 13.855469 8.988281 C 13.828125 8.894531 13.863281 8.777344 13.839844 8.675781 C 13.808594 8.5625 13.777344 8.464844 13.746094 8.363281 C 13.730469 8.3125 13.726562 8.273438 13.71875 8.226562 C 13.695312 8.144531 13.65625 8.082031 13.613281 8.089844 C 13.558594 8.105469 13.570312 8.15625 13.570312 8.222656 C 13.578125 8.335938 13.589844 8.429688 13.609375 8.519531 C 13.628906 8.597656 13.617188 8.664062 13.640625 8.730469 C 13.683594 8.886719 13.699219 9.109375 13.726562 9.25 C 13.734375 9.308594 13.726562 9.390625 13.738281 9.457031 C 13.753906 9.53125 13.808594 9.625 13.824219 9.703125 C 13.839844 9.804688 13.839844 9.941406 13.855469 10.054688 C 13.875 10.148438 13.90625 10.242188 13.929688 10.328125 C 13.949219 10.40625 13.933594 10.480469 13.960938 10.550781 C 13.980469 10.625 14.019531 10.699219 14.035156 10.78125 C 14.046875 10.871094 14.03125 11 14.050781 11.078125 C 14.164062 11.523438 14.199219 12.046875 14.328125 12.46875 C 14.34375 12.53125 14.347656 12.597656 14.363281 12.65625 C 14.46875 13.03125 14.550781 13.425781 14.664062 13.796875 C 14.679688 13.851562 14.679688 13.910156 14.691406 13.976562 C 14.730469 14.105469 14.761719 14.246094 14.789062 14.375 C 14.800781 14.4375 14.800781 14.492188 14.816406 14.550781 C 14.855469 14.6875 14.902344 14.816406 14.949219 14.953125 C 14.964844 15.019531 14.96875 15.082031 14.980469 15.148438 C 14.992188 15.199219 15.019531 15.257812 15.035156 15.304688 C 15.058594 15.382812 15.050781 15.457031 15.074219 15.527344 C 15.09375 15.570312 15.125 15.613281 15.136719 15.660156 C 15.15625 15.738281 15.164062 15.816406 15.1875 15.894531 C 15.21875 15.988281 15.269531 16.082031 15.304688 16.171875 C 15.335938 16.25 15.335938 16.328125 15.363281 16.402344 C 15.417969 16.53125 15.472656 16.683594 15.523438 16.824219 C 15.566406 16.9375 15.570312 17.054688 15.609375 17.171875 C 15.640625 17.246094 15.675781 17.328125 15.703125 17.402344 C 15.71875 17.460938 15.730469 17.519531 15.75 17.582031 C 15.769531 17.636719 15.832031 17.722656 15.867188 17.796875 C 15.902344 17.878906 15.886719 17.984375 15.910156 18.074219 C 15.941406 18.160156 15.988281 18.234375 16.019531 18.316406 C 16.046875 18.398438 16.046875 18.488281 16.070312 18.570312 C 16.09375 18.636719 16.136719 18.699219 16.164062 18.761719 C 16.191406 18.832031 16.214844 18.902344 16.242188 18.972656 C 16.261719 19.019531 16.300781 19.070312 16.324219 19.113281 C 16.363281 19.195312 16.394531 19.285156 16.429688 19.371094 C 16.476562 19.488281 16.480469 19.640625 16.519531 19.777344 C 16.527344 19.820312 16.527344 19.914062 16.503906 19.925781 C 16.449219 19.933594 16.386719 19.84375 16.347656 19.792969 C 16.28125 19.699219 16.21875 19.597656 16.171875 19.484375 C 16.152344 19.445312 16.144531 19.40625 16.128906 19.359375 C 16.09375 19.269531 16.066406 19.164062 16.023438 19.070312 C 16 19.011719 15.960938 18.953125 15.941406 18.890625 C 15.910156 18.800781 15.925781 18.695312 15.890625 18.621094 C 15.859375 18.554688 15.808594 18.503906 15.777344 18.4375 C 15.757812 18.378906 15.746094 18.316406 15.722656 18.257812 C 15.691406 18.1875 15.648438 18.125 15.605469 18.054688 C 15.578125 17.988281 15.582031 17.925781 15.558594 17.847656 C 15.535156 17.757812 15.503906 17.667969 15.464844 17.585938 C 15.429688 17.5 15.378906 17.414062 15.339844 17.328125 C 15.324219 17.28125 15.316406 17.230469 15.300781 17.183594 C 15.277344 17.117188 15.242188 17.046875 15.21875 16.984375 C 15.203125 16.933594 15.191406 16.882812 15.171875 16.835938 C 15.140625 16.765625 15.101562 16.683594 15.074219 16.605469 C 15.050781 16.542969 15.046875 16.472656 15.023438 16.410156 C 14.984375 16.300781 14.949219 16.175781 14.90625 16.066406 C 14.886719 15.980469 14.878906 15.894531 14.851562 15.808594 C 14.820312 15.710938 14.777344 15.609375 14.738281 15.511719 C 14.710938 15.429688 14.703125 15.34375 14.679688 15.261719 C 14.644531 15.15625 14.589844 15.054688 14.550781 14.945312 C 14.53125 14.855469 14.527344 14.765625 14.507812 14.679688 C 14.445312 14.46875 14.378906 14.242188 14.3125 14.027344 C 14.238281 13.789062 14.230469 13.519531 14.164062 13.28125 C 14.113281 13.109375 14.050781 12.941406 14 12.773438 C 13.980469 12.683594 13.976562 12.601562 13.957031 12.519531 C 13.910156 12.328125 13.839844 12.078125 13.777344 11.878906 C 13.742188 11.773438 13.753906 11.667969 13.722656 11.554688 C 13.691406 11.441406 13.691406 11.304688 13.65625 11.1875 C 13.632812 11.113281 13.601562 11.058594 13.585938 10.964844 C 13.566406 10.871094 13.566406 10.757812 13.554688 10.6875 C 13.539062 10.617188 13.417969 10.199219 13.402344 10.117188 C 13.390625 10.042969 13.390625 9.898438 13.382812 9.847656 C 13.371094 9.8125 13.308594 9.632812 13.300781 9.585938 C 13.292969 9.539062 13.292969 9.484375 13.277344 9.390625 C 13.253906 9.296875 13.203125 9.09375 13.191406 9.03125 C 13.183594 8.972656 13.183594 8.851562 13.171875 8.789062 C 13.15625 8.730469 13.117188 8.589844 13.089844 8.492188 C 13.058594 8.371094 13.085938 8.246094 13.050781 8.132812 C 13.027344 8.046875 12.996094 7.964844 12.964844 7.886719 C 12.945312 7.816406 12.921875 7.722656 12.917969 7.679688 C 12.914062 7.613281 12.910156 7.484375 12.90625 7.433594 C 12.90625 7.367188 12.875 7.253906 12.871094 7.15625 C 12.859375 7.019531 12.832031 6.878906 12.808594 6.792969 C 12.796875 6.746094 12.800781 6.6875 12.792969 6.640625 C 12.757812 6.507812 12.726562 6.386719 12.660156 6.394531 C 12.609375 6.402344 12.589844 6.445312 12.613281 6.53125 C 12.636719 6.632812 12.648438 6.714844 12.675781 6.816406 C 12.6875 6.867188 12.691406 7.003906 12.691406 7.046875 C 12.695312 7.121094 12.699219 7.136719 12.707031 7.210938 C 12.710938 7.234375 12.722656 7.300781 12.734375 7.332031 C 12.742188 7.378906 12.757812 7.445312 12.757812 7.480469 C 12.757812 7.527344 12.753906 7.578125 12.753906 7.644531 C 12.753906 7.679688 12.757812 7.691406 12.769531 7.75 C 12.785156 7.808594 12.789062 7.820312 12.792969 7.867188 C 12.796875 7.910156 12.792969 7.953125 12.796875 7.988281 C 12.796875 8.035156 12.800781 8.082031 12.816406 8.121094 C 12.839844 8.210938 12.898438 8.332031 12.875 8.460938 C 12.847656 8.597656 12.890625 8.730469 12.921875 8.851562 C 12.9375 8.925781 12.921875 9.011719 12.9375 9.085938 C 12.964844 9.1875 12.992188 9.296875 13.019531 9.402344 C 13.039062 9.492188 13.027344 9.570312 13.046875 9.652344 C 13.078125 9.769531 13.160156 9.925781 13.171875 9.976562 C 13.179688 10.03125 13.179688 10.171875 13.191406 10.261719 C 13.210938 10.351562 13.230469 10.457031 13.238281 10.511719 C 13.242188 10.570312 13.234375 10.59375 13.242188 10.636719 C 13.246094 10.679688 13.304688 10.882812 13.3125 10.933594 C 13.324219 10.984375 13.320312 11.015625 13.332031 11.066406 C 13.34375 11.125 13.390625 11.34375 13.398438 11.410156 C 13.410156 11.484375 13.40625 11.523438 13.417969 11.59375 C 13.441406 11.703125 13.484375 11.792969 13.507812 11.898438 C 13.519531 11.976562 13.515625 12.023438 13.523438 12.085938 C 13.546875 12.179688 13.582031 12.269531 13.597656 12.359375 C 13.613281 12.433594 13.613281 12.503906 13.628906 12.578125 C 13.660156 12.734375 13.683594 12.890625 13.726562 13.046875 C 13.753906 13.140625 13.804688 13.222656 13.832031 13.3125 C 13.855469 13.394531 13.859375 13.480469 13.882812 13.5625 C 13.90625 13.632812 13.953125 13.695312 13.96875 13.769531 C 13.980469 13.832031 13.980469 13.898438 13.992188 13.964844 C 14.007812 14.035156 14.039062 14.109375 14.054688 14.183594 C 14.066406 14.242188 14.058594 14.296875 14.078125 14.355469 C 14.09375 14.421875 14.128906 14.480469 14.144531 14.546875 C 14.160156 14.625 14.160156 14.707031 14.179688 14.785156 C 14.203125 14.878906 14.242188 14.972656 14.273438 15.058594 C 14.300781 15.136719 14.285156 15.226562 14.308594 15.3125 C 14.363281 15.503906 14.425781 15.714844 14.488281 15.890625 C 14.515625 15.984375 14.511719 16.085938 14.546875 16.1875 C 14.570312 16.257812 14.601562 16.300781 14.628906 16.363281 C 14.652344 16.421875 14.632812 16.492188 14.652344 16.558594 C 14.679688 16.675781 14.699219 16.832031 14.738281 16.945312 C 14.785156 17.070312 14.859375 17.171875 14.902344 17.296875 C 14.949219 17.425781 14.949219 17.554688 14.992188 17.691406 C 15.035156 17.808594 15.09375 17.914062 15.136719 18.019531 C 15.171875 18.109375 15.160156 18.230469 15.195312 18.332031 C 15.234375 18.4375 15.308594 18.519531 15.351562 18.628906 C 15.398438 18.753906 15.429688 18.878906 15.464844 19.003906 C 15.480469 19.054688 15.488281 19.109375 15.5 19.160156 C 15.546875 19.324219 15.632812 19.460938 15.691406 19.613281 C 15.710938 19.683594 15.71875 19.746094 15.738281 19.8125 C 15.777344 19.925781 15.824219 20.039062 15.875 20.144531 C 15.917969 20.242188 15.980469 20.335938 16.023438 20.433594 C 16.0625 20.519531 16.070312 20.609375 16.109375 20.703125 C 16.144531 20.792969 16.1875 20.886719 16.21875 20.980469 C 16.242188 21.035156 16.242188 21.089844 16.269531 21.140625 C 16.378906 21.386719 16.511719 21.636719 16.625 21.875 C 16.6875 22.007812 16.714844 22.152344 16.78125 22.285156 C 16.828125 22.390625 16.886719 22.492188 16.933594 22.605469 C 16.964844 22.675781 16.972656 22.746094 17.003906 22.8125 C 17.066406 22.945312 17.152344 23.078125 17.210938 23.207031 C 17.226562 23.242188 17.273438 23.382812 17.253906 23.4375 C 17.25 23.445312 17.25 23.453125 17.242188 23.457031 C 17.199219 23.46875 17.117188 23.398438 17.074219 23.351562 C 16.914062 23.199219 16.890625 22.90625 16.78125 22.707031 C 16.75 22.648438 16.710938 22.585938 16.683594 22.527344 C 16.667969 22.484375 16.660156 22.445312 16.636719 22.402344 C 16.570312 22.273438 16.484375 22.15625 16.421875 22.019531 C 16.378906 21.921875 16.371094 21.808594 16.332031 21.714844 C 16.152344 21.328125 15.945312 20.957031 15.773438 20.566406 C 15.691406 20.390625 15.675781 20.191406 15.605469 20 C 15.566406 19.886719 15.496094 19.792969 15.449219 19.6875 C 15.410156 19.605469 15.402344 19.515625 15.363281 19.429688 C 15.316406 19.320312 15.242188 19.21875 15.199219 19.097656 C 15.175781 19.019531 15.164062 18.941406 15.136719 18.867188 C 15.097656 18.78125 15.042969 18.707031 15.003906 18.628906 C 14.949219 18.503906 14.941406 18.382812 14.902344 18.242188 C 14.878906 18.167969 14.847656 18.089844 14.824219 18.023438 C 14.804688 17.957031 14.796875 17.890625 14.777344 17.832031 C 14.722656 17.683594 14.636719 17.554688 14.582031 17.40625 C 14.542969 17.304688 14.550781 17.175781 14.507812 17.078125 C 14.472656 17 14.410156 16.933594 14.378906 16.851562 C 14.339844 16.761719 14.375 16.65625 14.34375 16.554688 C 14.320312 16.453125 14.277344 16.363281 14.246094 16.269531 C 14.226562 16.207031 14.222656 16.152344 14.207031 16.09375 C 14.160156 15.976562 14.117188 15.855469 14.074219 15.734375 C 14.050781 15.671875 14.050781 15.617188 14.027344 15.5625 C 13.992188 15.488281 13.941406 15.421875 13.914062 15.347656 C 13.886719 15.226562 13.875 15.105469 13.847656 14.992188 C 13.800781 14.839844 13.746094 14.714844 13.699219 14.570312 C 13.691406 14.523438 13.691406 14.476562 13.675781 14.425781 C 13.640625 14.292969 13.621094 14.144531 13.585938 14.015625 C 13.570312 13.953125 13.574219 13.898438 13.558594 13.835938 C 13.523438 13.710938 13.480469 13.585938 13.445312 13.46875 C 13.421875 13.390625 13.417969 13.3125 13.398438 13.238281 C 13.339844 13.046875 13.285156 12.816406 13.226562 12.628906 C 13.214844 12.574219 13.214844 12.523438 13.199219 12.464844 C 13.152344 12.316406 13.09375 12.136719 13.058594 11.984375 C 13.042969 11.894531 13.042969 11.808594 13.023438 11.726562 C 13 11.625 12.964844 11.523438 12.941406 11.421875 C 12.933594 11.375 12.941406 11.339844 12.9375 11.296875 C 12.929688 11.230469 12.921875 11.164062 12.910156 11.097656 C 12.84375 10.828125 12.738281 10.5 12.679688 10.230469 C 12.664062 10.136719 12.660156 10.035156 12.648438 9.941406 C 12.636719 9.875 12.632812 9.796875 12.613281 9.726562 C 12.59375 9.65625 12.5625 9.582031 12.550781 9.511719 C 12.535156 9.394531 12.535156 9.28125 12.519531 9.171875 C 12.519531 9.164062 12.515625 9.15625 12.511719 9.144531 C 12.488281 9.007812 12.421875 8.726562 12.40625 8.617188 C 12.386719 8.484375 12.371094 8.347656 12.355469 8.21875 C 12.351562 8.132812 12.335938 8.039062 12.328125 7.949219 C 12.304688 7.8125 12.273438 7.691406 12.257812 7.546875 C 12.246094 7.453125 12.253906 7.367188 12.242188 7.285156 C 12.234375 7.234375 12.230469 7.148438 12.167969 7.148438 C 12.101562 7.148438 12.113281 7.222656 12.109375 7.28125 C 12.097656 7.425781 12.128906 7.613281 12.140625 7.703125 C 12.15625 7.867188 12.144531 8.027344 12.160156 8.195312 C 12.171875 8.289062 12.203125 8.382812 12.210938 8.472656 C 12.234375 8.628906 12.25 8.792969 12.269531 8.945312 L 12.269531 8.953125 C 12.277344 9.023438 12.285156 9.09375 12.296875 9.160156 C 12.300781 9.167969 12.300781 9.175781 12.304688 9.179688 C 12.304688 9.183594 12.304688 9.1875 12.304688 9.191406 C 12.304688 9.195312 12.304688 9.195312 12.308594 9.203125 C 12.316406 9.234375 12.320312 9.265625 12.328125 9.296875 C 12.34375 9.355469 12.339844 9.40625 12.355469 9.46875 C 12.40625 9.652344 12.394531 9.851562 12.445312 10.027344 C 12.519531 10.292969 12.554688 10.589844 12.632812 10.851562 C 12.652344 10.929688 12.632812 11.007812 12.65625 11.089844 C 12.675781 11.175781 12.699219 11.253906 12.71875 11.339844 C 12.738281 11.4375 12.722656 11.539062 12.75 11.644531 C 12.773438 11.734375 12.800781 11.832031 12.828125 11.917969 C 12.855469 12.027344 12.859375 12.140625 12.890625 12.257812 C 12.921875 12.378906 12.964844 12.507812 12.984375 12.628906 C 13.007812 12.765625 13.023438 12.917969 13.046875 13.066406 C 13.070312 13.183594 13.136719 13.328125 13.164062 13.460938 C 13.171875 13.503906 13.167969 13.546875 13.175781 13.589844 C 13.191406 13.683594 13.222656 13.777344 13.242188 13.867188 C 13.25 13.910156 13.246094 13.945312 13.261719 13.992188 C 13.304688 14.164062 13.359375 14.382812 13.414062 14.550781 C 13.425781 14.597656 13.429688 14.648438 13.445312 14.699219 C 13.476562 14.820312 13.515625 14.910156 13.53125 14.976562 C 13.539062 15.03125 13.546875 15.101562 13.5625 15.164062 C 13.589844 15.257812 13.617188 15.339844 13.632812 15.421875 C 13.648438 15.484375 13.660156 15.539062 13.675781 15.605469 C 13.695312 15.683594 13.726562 15.753906 13.757812 15.828125 C 13.8125 15.984375 13.816406 16.148438 13.871094 16.300781 C 13.90625 16.390625 13.949219 16.476562 13.976562 16.570312 C 14.003906 16.65625 14.007812 16.765625 14.035156 16.863281 C 14.089844 17.011719 14.144531 17.183594 14.199219 17.332031 C 14.261719 17.511719 14.300781 17.707031 14.363281 17.875 C 14.386719 17.941406 14.382812 18.007812 14.40625 18.082031 C 14.457031 18.246094 14.515625 18.4375 14.570312 18.609375 C 14.597656 18.699219 14.597656 18.785156 14.632812 18.871094 C 14.691406 19.015625 14.773438 19.136719 14.828125 19.28125 C 14.871094 19.410156 14.882812 19.535156 14.929688 19.648438 C 14.992188 19.804688 15.0625 19.964844 15.125 20.128906 C 15.167969 20.242188 15.183594 20.355469 15.226562 20.460938 C 15.269531 20.550781 15.320312 20.648438 15.363281 20.738281 C 15.390625 20.820312 15.417969 20.898438 15.445312 20.980469 C 15.46875 21.042969 15.535156 21.148438 15.578125 21.230469 C 15.628906 21.34375 15.636719 21.464844 15.679688 21.585938 C 15.746094 21.769531 15.839844 21.953125 15.914062 22.125 C 15.945312 22.191406 15.949219 22.253906 15.976562 22.328125 C 16.023438 22.449219 16.101562 22.539062 16.152344 22.65625 C 16.203125 22.761719 16.214844 22.875 16.261719 22.980469 C 16.335938 23.132812 16.386719 23.210938 16.386719 23.429688 C 16.382812 23.449219 16.378906 23.464844 16.355469 23.472656 C 16.316406 23.488281 16.269531 23.417969 16.242188 23.394531 C 16.125 23.28125 16.109375 23.171875 16.035156 23.011719 C 15.921875 22.773438 15.78125 22.546875 15.671875 22.3125 C 15.613281 22.191406 15.589844 22.054688 15.535156 21.929688 C 15.5 21.851562 15.449219 21.777344 15.414062 21.699219 C 15.363281 21.589844 15.339844 21.476562 15.28125 21.375 C 15.199219 21.230469 15.136719 21.058594 15.070312 20.894531 C 15.042969 20.835938 15.042969 20.773438 15.015625 20.714844 C 14.988281 20.652344 14.941406 20.59375 14.914062 20.53125 C 14.871094 20.433594 14.84375 20.3125 14.804688 20.207031 C 14.714844 20.015625 14.617188 19.808594 14.539062 19.605469 C 14.472656 19.414062 14.441406 19.234375 14.371094 19.042969 C 14.34375 18.964844 14.304688 18.878906 14.277344 18.800781 C 14.253906 18.726562 14.253906 18.664062 14.226562 18.597656 C 14.164062 18.425781 14.085938 18.242188 14.011719 18.078125 C 13.972656 17.996094 13.964844 17.917969 13.933594 17.832031 C 13.894531 17.722656 13.847656 17.605469 13.808594 17.503906 C 13.757812 17.367188 13.757812 17.203125 13.707031 17.058594 C 13.59375 16.75 13.449219 16.421875 13.351562 16.097656 C 13.335938 16.019531 13.339844 15.941406 13.320312 15.867188 C 13.265625 15.703125 13.214844 15.523438 13.160156 15.347656 C 13.105469 15.152344 13.109375 14.949219 13.050781 14.757812 C 12.972656 14.511719 12.886719 14.257812 12.808594 14.015625 C 12.789062 13.941406 12.796875 13.863281 12.773438 13.785156 C 12.722656 13.601562 12.660156 13.378906 12.59375 13.207031 C 12.566406 13.117188 12.566406 13.023438 12.53125 12.941406 C 12.492188 12.839844 12.390625 12.878906 12.402344 12.988281 C 12.40625 13.09375 12.441406 13.222656 12.453125 13.273438 C 12.464844 13.34375 12.464844 13.414062 12.480469 13.488281 C 12.511719 13.617188 12.554688 13.726562 12.589844 13.847656 C 12.632812 13.972656 12.632812 14.089844 12.664062 14.214844 C 12.683594 14.277344 12.710938 14.347656 12.726562 14.40625 C 12.765625 14.535156 12.765625 14.671875 12.808594 14.789062 C 12.84375 14.878906 12.867188 14.992188 12.898438 15.089844 C 12.914062 15.152344 12.910156 15.203125 12.933594 15.269531 C 12.964844 15.386719 13.003906 15.5 13.039062 15.617188 C 13.058594 15.683594 13.050781 15.742188 13.066406 15.800781 C 13.089844 15.894531 13.113281 15.988281 13.140625 16.074219 C 13.160156 16.15625 13.160156 16.269531 13.1875 16.355469 C 13.238281 16.515625 13.300781 16.683594 13.351562 16.835938 C 13.414062 17.003906 13.417969 17.175781 13.480469 17.347656 C 13.589844 17.648438 13.6875 17.996094 13.796875 18.300781 C 13.824219 18.375 13.816406 18.457031 13.839844 18.539062 C 13.875 18.671875 13.90625 18.800781 13.949219 18.929688 C 13.972656 18.992188 14.011719 19.054688 14.039062 19.109375 C 14.074219 19.183594 14.082031 19.261719 14.117188 19.339844 C 14.144531 19.398438 14.183594 19.460938 14.207031 19.527344 C 14.238281 19.621094 14.226562 19.742188 14.265625 19.832031 C 14.292969 19.902344 14.332031 19.984375 14.363281 20.058594 C 14.394531 20.144531 14.394531 20.234375 14.425781 20.3125 C 14.457031 20.378906 14.503906 20.445312 14.535156 20.511719 C 14.570312 20.574219 14.574219 20.640625 14.597656 20.710938 C 14.628906 20.785156 14.667969 20.859375 14.699219 20.925781 C 14.730469 21.003906 14.730469 21.089844 14.769531 21.171875 C 14.796875 21.238281 14.84375 21.304688 14.871094 21.378906 C 14.898438 21.457031 14.902344 21.539062 14.929688 21.621094 C 14.976562 21.738281 15.046875 21.84375 15.097656 21.953125 C 15.136719 22.035156 15.140625 22.132812 15.179688 22.21875 C 15.222656 22.316406 15.28125 22.414062 15.328125 22.507812 C 15.382812 22.640625 15.429688 22.777344 15.484375 22.898438 C 15.582031 23.117188 15.617188 23.355469 15.714844 23.570312 C 15.789062 23.730469 15.890625 23.878906 15.960938 24.035156 C 16 24.125 16.011719 24.21875 16.050781 24.296875 C 16.097656 24.394531 16.175781 24.472656 16.21875 24.570312 C 16.253906 24.664062 16.28125 24.761719 16.324219 24.855469 C 16.378906 24.976562 16.457031 25.085938 16.511719 25.203125 C 16.542969 25.269531 16.558594 25.335938 16.589844 25.402344 C 16.648438 25.535156 16.75 25.644531 16.808594 25.773438 C 16.839844 25.855469 16.871094 25.941406 16.902344 26.027344 C 16.964844 26.167969 17.070312 26.285156 17.136719 26.425781 C 17.183594 26.527344 17.21875 26.636719 17.277344 26.730469 C 17.371094 26.878906 17.433594 26.972656 17.523438 27.125 C 17.585938 27.21875 17.664062 27.359375 17.714844 27.464844 C 17.761719 27.570312 17.839844 27.65625 17.886719 27.757812 C 17.933594 27.859375 17.996094 27.96875 18.050781 28.0625 C 18.113281 28.171875 18.171875 28.246094 18.242188 28.347656 C 18.347656 28.515625 18.417969 28.691406 18.527344 28.859375 C 18.597656 28.972656 18.683594 29.09375 18.765625 29.203125 C 18.988281 29.507812 19.300781 30.039062 19.433594 30.21875 C 19.542969 30.367188 19.636719 30.539062 19.738281 30.691406 C 19.816406 30.8125 19.914062 30.929688 20.003906 31.039062 C 20.074219 31.132812 20.128906 31.230469 20.195312 31.328125 L 20.253906 31.398438 C 23.050781 34.957031 25.925781 37.308594 28.359375 38.855469 C 29.644531 39.65625 30.335938 39.890625 30.335938 39.890625 C 30.496094 39.957031 30.386719 40.078125 30.300781 40.128906 L 15.863281 49.363281 C 15.820312 49.394531 15.707031 49.476562 15.753906 49.566406 C 15.785156 49.632812 15.933594 49.59375 15.972656 49.582031 C 27.558594 45.515625 35.96875 42.171875 41.109375 39.730469 C 46.320312 37.261719 48.070312 35.84375 47.878906 35.140625 M 17.058594 21.488281 C 17.027344 21.433594 16.996094 21.367188 16.972656 21.3125 C 16.949219 21.246094 16.945312 21.1875 16.917969 21.125 C 16.828125 20.921875 16.726562 20.699219 16.636719 20.5 C 16.59375 20.414062 16.542969 20.257812 16.582031 20.152344 C 16.585938 20.136719 16.617188 20.148438 16.628906 20.160156 C 16.660156 20.1875 16.679688 20.207031 16.707031 20.238281 C 16.726562 20.265625 16.730469 20.296875 16.753906 20.328125 C 16.796875 20.394531 16.855469 20.464844 16.890625 20.542969 C 16.964844 20.707031 16.984375 20.890625 17.0625 21.050781 C 17.109375 21.15625 17.191406 21.246094 17.246094 21.351562 C 17.273438 21.410156 17.289062 21.472656 17.304688 21.535156 C 17.320312 21.582031 17.316406 21.644531 17.320312 21.679688 C 17.320312 21.734375 17.3125 21.769531 17.292969 21.773438 C 17.152344 21.761719 17.109375 21.589844 17.058594 21.488281 M 17.660156 25.90625 C 17.652344 25.921875 17.640625 25.941406 17.617188 25.941406 C 17.464844 25.9375 17.417969 25.707031 17.351562 25.601562 C 17.292969 25.515625 17.246094 25.417969 17.1875 25.332031 C 17.148438 25.269531 17.097656 25.207031 17.0625 25.136719 C 17.019531 25.046875 17.003906 24.953125 16.949219 24.875 C 16.921875 24.832031 16.878906 24.792969 16.847656 24.757812 C 16.765625 24.640625 16.6875 24.523438 16.636719 24.378906 C 16.625 24.328125 16.609375 24.28125 16.597656 24.226562 C 16.566406 24.144531 16.527344 24.046875 16.496094 23.957031 C 16.480469 23.910156 16.472656 23.816406 16.480469 23.785156 C 16.488281 23.773438 16.492188 23.761719 16.507812 23.765625 C 16.625 23.78125 16.738281 24.070312 16.796875 24.175781 C 16.859375 24.285156 16.957031 24.378906 17.015625 24.492188 C 17.0625 24.597656 17.082031 24.730469 17.136719 24.832031 C 17.179688 24.910156 17.253906 24.972656 17.304688 25.050781 C 17.367188 25.148438 17.410156 25.273438 17.460938 25.382812 C 17.515625 25.503906 17.597656 25.597656 17.644531 25.71875 C 17.664062 25.765625 17.671875 25.851562 17.660156 25.90625 M 20.902344 25.25 C 20.828125 25.246094 20.796875 25.199219 20.753906 25.167969 C 20.632812 25.078125 20.53125 24.933594 20.53125 24.726562 C 20.527344 24.707031 20.535156 24.703125 20.550781 24.703125 C 20.695312 24.699219 20.839844 24.921875 20.894531 25.023438 C 20.910156 25.050781 20.945312 25.136719 20.941406 25.195312 C 20.941406 25.234375 20.921875 25.25 20.902344 25.25 M 21.878906 25.289062 C 21.78125 25.324219 21.546875 25.054688 21.480469 24.957031 C 21.359375 24.773438 21.238281 24.574219 21.109375 24.394531 C 20.988281 24.234375 20.855469 24.121094 20.828125 23.84375 C 20.824219 23.808594 20.804688 23.726562 20.824219 23.730469 C 20.953125 23.738281 21.078125 23.964844 21.144531 24.054688 C 21.191406 24.117188 21.246094 24.183594 21.289062 24.25 C 21.351562 24.347656 21.378906 24.464844 21.445312 24.554688 C 21.527344 24.667969 21.625 24.773438 21.714844 24.882812 C 21.757812 24.945312 21.820312 24.996094 21.851562 25.078125 C 21.863281 25.121094 21.90625 25.273438 21.878906 25.289062 M 25.285156 27.175781 C 25.144531 27.195312 24.984375 26.992188 24.917969 26.894531 C 24.898438 26.867188 24.820312 26.703125 24.839844 26.679688 C 24.871094 26.65625 25.03125 26.710938 25.074219 26.746094 C 25.179688 26.828125 25.261719 26.945312 25.316406 27.144531 C 25.316406 27.167969 25.296875 27.175781 25.285156 27.175781 "/>
</g>
</svg>
