<?xml version="1.0" encoding="UTF-8"?>
<svg xmlns="http://www.w3.org/2000/svg" xmlns:xlink="http://www.w3.org/1999/xlink" width="56pt" height="56pt" viewBox="0 0 56 56" version="1.1">
<g id="surface1">
<rect x="0" y="0" width="56" height="56" style="fill:rgb(95.66803%,95.779419%,96.777344%);fill-opacity:1;stroke:none;"/>
<path style=" stroke:none;fill-rule:nonzero;fill:rgb(13.851929%,19.415283%,40.132141%);fill-opacity:1;" d="M 48.65625 15.898438 C 48.363281 13.5625 47.777344 11.222656 46.390625 9.835938 C 45.003906 8.449219 42.59375 7.863281 40.253906 7.644531 C 37.988281 7.496094 35.433594 7.496094 32.585938 7.863281 C 33.242188 8.082031 33.753906 8.449219 34.191406 8.8125 C 35.582031 10.128906 36.238281 12.320312 36.53125 14.4375 C 36.75 16.042969 36.820312 17.722656 36.75 19.625 C 36.675781 22.617188 36.164062 26.050781 35.140625 29.996094 C 34.484375 32.480469 33.753906 34.742188 32.949219 36.714844 C 32.949219 36.789062 32.949219 36.789062 32.949219 36.789062 C 34.484375 37.738281 36.019531 38.46875 37.40625 39.125 C 39.378906 39.929688 41.644531 40.441406 43.394531 39.855469 C 43.980469 39.710938 44.492188 39.417969 45.003906 39.054688 L 45.074219 38.980469 C 45.734375 37.15625 46.316406 35.183594 46.902344 32.992188 C 47.777344 29.558594 48.363281 26.417969 48.582031 23.566406 C 48.875 20.71875 48.875 18.164062 48.65625 15.898438 "/>
<path style=" stroke:none;fill-rule:nonzero;fill:rgb(13.851929%,19.415283%,40.132141%);fill-opacity:1;" d="M 36.089844 42.195312 C 34.628906 41.609375 33.097656 40.878906 31.488281 39.855469 C 28.933594 38.25 26.230469 36.132812 23.308594 33.28125 C 21.480469 31.457031 19.875 29.703125 18.558594 27.949219 C 16.953125 28.828125 15.566406 29.703125 14.324219 30.652344 C 12.644531 31.96875 11.109375 33.574219 10.671875 35.472656 C 10.527344 36.058594 10.527344 36.644531 10.597656 37.300781 C 10.597656 37.375 10.597656 37.375 10.597656 37.375 C 11.839844 38.835938 13.226562 40.367188 14.835938 41.902344 C 17.390625 44.460938 19.875 46.503906 22.214844 48.109375 C 24.550781 49.792969 26.742188 51.03125 28.785156 51.980469 C 30.90625 52.933594 33.316406 53.589844 35.214844 53.078125 C 37.039062 52.492188 38.792969 50.742188 40.109375 48.839844 C 41.421875 46.941406 42.664062 44.75 43.835938 42.121094 C 43.25 42.488281 42.664062 42.851562 42.082031 42.996094 C 40.328125 43.582031 38.0625 43.070312 36.089844 42.195312 "/>
<path style=" stroke:none;fill-rule:nonzero;fill:rgb(13.851929%,19.415283%,40.132141%);fill-opacity:1;" d="M 12.277344 27.949219 C 13.519531 27 14.90625 26.050781 16.589844 25.175781 C 19.289062 23.785156 22.503906 22.472656 26.375 21.375 C 28.933594 20.644531 31.199219 20.207031 33.316406 19.914062 C 33.390625 19.914062 33.390625 19.914062 33.390625 19.914062 C 33.460938 18.089844 33.316406 16.410156 33.167969 14.875 C 32.878906 12.757812 32.21875 10.566406 30.832031 9.25 C 30.394531 8.886719 29.882812 8.59375 29.296875 8.300781 L 29.226562 8.300781 C 27.324219 8.667969 25.28125 9.105469 23.160156 9.691406 C 19.730469 10.640625 16.734375 11.734375 14.105469 12.976562 C 11.546875 14.144531 9.355469 15.386719 7.53125 16.703125 C 5.632812 18.089844 3.804688 19.84375 3.367188 21.742188 C 2.855469 23.640625 3.585938 26.050781 4.535156 28.167969 C 5.558594 30.214844 6.800781 32.40625 8.480469 34.671875 C 8.40625 34.011719 8.480469 33.355469 8.554688 32.773438 C 8.992188 30.945312 10.527344 29.265625 12.277344 27.949219 "/>
</g>
</svg>
