<?xml version="1.0" encoding="UTF-8"?>
<svg xmlns="http://www.w3.org/2000/svg" xmlns:xlink="http://www.w3.org/1999/xlink" width="56pt" height="56pt" viewBox="0 0 56 56" version="1.1">
<g id="surface1">
<rect x="0" y="0" width="56" height="56" style="fill:rgb(15.628052%,56.184387%,27.923584%);fill-opacity:1;stroke:none;"/>
<path style=" stroke:none;fill-rule:nonzero;fill:rgb(100%,100%,100%);fill-opacity:1;" d="M 21.824219 31.792969 C 21.871094 29.738281 21.144531 27.859375 20.082031 26.554688 C 18.441406 24.539062 15.859375 23.984375 13.738281 25.320312 C 12.914062 25.839844 12.269531 26.527344 11.777344 27.355469 C 10.566406 29.394531 10.320312 31.578125 10.824219 33.867188 C 11.15625 35.386719 11.851562 36.707031 13.027344 37.730469 C 14.683594 39.179688 16.738281 39.511719 18.734375 38.238281 C 19.347656 37.84375 19.859375 37.339844 20.285156 36.753906 C 21.363281 35.277344 21.847656 33.613281 21.824219 31.792969 Z M 5.320312 31.074219 C 5.410156 30.53125 5.507812 29.992188 5.597656 29.453125 C 6.082031 26.441406 7.339844 23.835938 9.652344 21.800781 C 11.246094 20.398438 13.128906 19.644531 15.253906 19.691406 C 17.269531 19.730469 19.058594 20.488281 20.558594 21.835938 C 21.128906 22.347656 21.613281 22.949219 22.125 23.515625 C 22.203125 23.601562 22.234375 23.722656 22.375 23.78125 C 22.484375 22.414062 22.480469 21.105469 22.480469 19.796875 C 22.480469 18.449219 22.480469 17.101562 22.480469 15.753906 C 22.480469 14.429688 22.480469 13.109375 22.480469 11.742188 C 24.332031 11.742188 26.136719 11.742188 27.964844 11.742188 C 27.957031 11.738281 27.976562 11.753906 27.992188 11.769531 C 28.007812 11.785156 28.027344 11.804688 28.03125 11.824219 C 28.039062 11.9375 28.054688 12.054688 28.054688 12.167969 C 28.058594 22.511719 28.058594 32.851562 28.058594 43.226562 C 26.203125 43.226562 24.378906 43.226562 22.480469 43.226562 C 22.480469 42.246094 22.480469 41.238281 22.480469 40.066406 C 22.253906 40.332031 22.132812 40.460938 22.023438 40.597656 C 20.910156 41.980469 19.597656 43.117188 17.914062 43.726562 C 15.398438 44.636719 12.980469 44.378906 10.71875 42.945312 C 8.703125 41.664062 7.378906 39.816406 6.46875 37.648438 C 5.878906 36.246094 5.542969 34.78125 5.445312 33.265625 C 5.433594 33.136719 5.363281 33.011719 5.320312 32.886719 C 5.320312 32.28125 5.320312 31.675781 5.320312 31.074219 "/>
<path style=" stroke:none;fill-rule:nonzero;fill:rgb(100%,100%,100%);fill-opacity:1;" d="M 44.324219 32.386719 C 44.246094 32.386719 44.195312 32.375 44.15625 32.390625 C 42.929688 32.910156 41.652344 33.191406 40.328125 33.339844 C 39.503906 33.429688 38.683594 33.625 37.894531 33.875 C 36.957031 34.171875 36.230469 34.785156 35.78125 35.683594 C 35.453125 36.328125 35.332031 36.992188 35.578125 37.703125 C 35.960938 38.8125 36.78125 39.445312 37.878906 39.71875 C 39.582031 40.148438 41.113281 39.675781 42.453125 38.644531 C 43.886719 37.539062 44.597656 35.992188 44.792969 34.214844 C 44.863281 33.554688 44.703125 32.929688 44.324219 32.386719 Z M 35.722656 27.574219 C 33.96875 27.539062 32.1875 27.507812 30.398438 27.476562 C 30.1875 26.863281 30.398438 26.320312 30.511719 25.796875 C 31.007812 23.511719 32.457031 22.003906 34.523438 21.027344 C 35.6875 20.476562 36.921875 20.164062 38.183594 19.949219 C 38.957031 19.820312 39.746094 19.707031 40.53125 19.691406 C 41.40625 19.671875 42.296875 19.722656 43.167969 19.832031 C 44.039062 19.945312 44.90625 20.125 45.753906 20.359375 C 47.488281 20.84375 48.933594 21.757812 49.851562 23.371094 C 50.375 24.296875 50.679688 25.28125 50.679688 26.355469 C 50.679688 31.746094 50.679688 37.140625 50.679688 42.53125 C 50.679688 42.738281 50.65625 42.941406 50.640625 43.230469 C 48.878906 43.246094 47.148438 43.226562 45.320312 43.242188 C 47.027344 41.105469 48.695312 39.023438 50.363281 36.941406 C 50.339844 36.917969 50.320312 36.894531 50.292969 36.871094 C 50.128906 37.019531 49.957031 37.15625 49.800781 37.3125 C 48.273438 38.8125 46.65625 40.203125 44.878906 41.40625 C 43.113281 42.597656 41.238281 43.535156 39.132812 43.960938 C 37.707031 44.246094 36.269531 44.304688 34.84375 43.992188 C 32.207031 43.421875 30.644531 41.722656 30.058594 39.136719 C 29.675781 37.429688 29.742188 35.726562 30.453125 34.085938 C 30.980469 32.863281 31.832031 31.949219 32.96875 31.289062 C 34.070312 30.648438 35.273438 30.292969 36.519531 30.121094 C 37.894531 29.929688 39.28125 29.824219 40.667969 29.714844 C 41.558594 29.648438 42.425781 29.496094 43.226562 29.109375 C 43.675781 28.890625 44.125 28.605469 44.476562 28.25 C 45.230469 27.488281 45.253906 26.535156 44.632812 25.65625 C 44.105469 24.902344 43.394531 24.417969 42.523438 24.140625 C 40.953125 23.640625 39.417969 23.628906 37.957031 24.496094 C 36.867188 25.144531 36.136719 26.0625 35.84375 27.308594 C 35.832031 27.375 35.789062 27.433594 35.722656 27.574219 "/>
</g>
</svg>
