<?xml version="1.0" encoding="UTF-8"?>
<svg xmlns="http://www.w3.org/2000/svg" xmlns:xlink="http://www.w3.org/1999/xlink" width="56pt" height="56pt" viewBox="0 0 56 56" version="1.1">
<defs>
<clipPath id="clip1">
  <path d="M 6.148438 6.714844 L 49.851562 6.714844 L 49.851562 49.285156 L 6.148438 49.285156 Z M 6.148438 6.714844 "/>
</clipPath>
</defs>
<g id="surface1">
<rect x="0" y="0" width="56" height="56" style="fill:rgb(95.666504%,95.776367%,96.775818%);fill-opacity:1;stroke:none;"/>
<g clip-path="url(#clip1)" clip-rule="nonzero">
<path style=" stroke:none;fill-rule:nonzero;fill:rgb(92.938232%,15.267944%,14.086914%);fill-opacity:1;" d="M 43.460938 43.996094 C 43.519531 44.0625 43.574219 44.132812 43.617188 44.207031 C 43.582031 44.085938 43.527344 44.03125 43.460938 43.996094 Z M 35.644531 9.898438 L 35.71875 9.914062 C 35.699219 9.894531 35.671875 9.890625 35.644531 9.898438 Z M 35.171875 10.179688 L 35.238281 10.121094 C 35.203125 10.136719 35.1875 10.15625 35.171875 10.179688 Z M 35.683594 10.058594 L 35.796875 9.933594 L 35.71875 9.914062 L 35.617188 10.058594 Z M 39.410156 9.785156 C 39.421875 9.761719 39.4375 9.734375 39.453125 9.707031 C 39.417969 9.734375 39.40625 9.761719 39.410156 9.785156 Z M 46.628906 31.59375 L 46.558594 31.636719 C 46.59375 31.667969 46.625 31.699219 46.65625 31.726562 C 46.644531 31.683594 46.636719 31.636719 46.628906 31.59375 Z M 32.269531 12.691406 C 32.277344 12.683594 32.28125 12.675781 32.28125 12.664062 L 32.195312 12.675781 Z M 33.054688 11.355469 C 33.203125 11.328125 33.308594 11.210938 33.417969 11.121094 L 33.230469 11.074219 Z M 46.820312 31.875 C 46.761719 31.824219 46.710938 31.777344 46.65625 31.726562 C 46.675781 31.808594 46.710938 31.871094 46.820312 31.875 Z M 28.65625 14.890625 C 28.667969 14.90625 28.6875 14.925781 28.710938 14.953125 C 28.710938 14.953125 28.714844 14.957031 28.71875 14.957031 C 28.683594 14.925781 28.664062 14.902344 28.65625 14.890625 Z M 33.082031 11.75 C 33.050781 11.769531 33.039062 11.789062 33.035156 11.8125 C 33.058594 11.796875 33.078125 11.777344 33.082031 11.75 Z M 33.421875 11.121094 C 33.457031 11.109375 33.46875 11.09375 33.46875 11.078125 C 33.453125 11.09375 33.433594 11.105469 33.417969 11.121094 Z M 11.058594 30.941406 L 11.269531 30.871094 L 11.632812 30.636719 Z M 13.761719 46.003906 L 13.675781 46.050781 C 13.707031 46.042969 13.734375 46.023438 13.761719 46.003906 Z M 14.675781 46.3125 L 15.148438 46.082031 L 14.324219 46.207031 Z M 14.453125 45.742188 C 14.417969 45.757812 14.386719 45.773438 14.355469 45.796875 C 14.386719 45.773438 14.417969 45.757812 14.453125 45.742188 Z M 28.65625 14.890625 C 28.636719 14.875 28.632812 14.871094 28.65625 14.890625 Z M 14.808594 45.375 L 14.570312 45.523438 L 14.777344 45.453125 Z M 14.222656 46.730469 C 14.300781 46.683594 14.535156 46.671875 14.488281 46.574219 L 14.195312 46.675781 Z M 49.675781 36.566406 C 49.636719 36.640625 49.585938 36.71875 49.539062 36.808594 C 49.65625 36.75 49.675781 36.660156 49.675781 36.566406 Z M 49.71875 36.203125 C 49.648438 36.308594 49.675781 36.445312 49.675781 36.566406 C 49.761719 36.417969 49.824219 36.308594 49.851562 36.269531 Z M 13.242188 46.730469 L 13.621094 46.828125 C 13.46875 46.859375 13.433594 46.933594 13.332031 47.082031 C 13.515625 47.039062 13.695312 46.914062 13.847656 46.949219 C 13.726562 47.054688 14.050781 47.101562 13.785156 47.191406 C 14 47.363281 13.964844 46.910156 14.257812 46.808594 L 13.90625 46.929688 L 14.019531 46.800781 C 13.851562 46.8125 13.664062 46.542969 13.242188 46.730469 Z M 31.367188 13.578125 C 31.351562 13.589844 31.332031 13.601562 31.316406 13.617188 L 31.320312 13.617188 C 31.351562 13.609375 31.367188 13.59375 31.367188 13.578125 Z M 33.070312 12.675781 L 33.136719 12.621094 C 33.101562 12.632812 33.085938 12.65625 33.070312 12.675781 Z M 12.707031 47.871094 L 12.46875 48.019531 L 12.675781 47.949219 Z M 42.664062 43.253906 C 42.664062 43.246094 42.664062 43.246094 42.664062 43.242188 L 42.667969 43.242188 C 42.667969 43.246094 42.664062 43.246094 42.664062 43.253906 Z M 42.160156 42.996094 C 41.957031 42.746094 41.597656 42.609375 41.542969 42.320312 C 41.300781 42.617188 41.226562 42.089844 40.960938 42.105469 L 40.90625 42.007812 C 40.996094 42.164062 41.503906 41.996094 41.328125 42.289062 C 41.496094 42.484375 42.257812 41.796875 41.964844 42.597656 L 42.023438 42.816406 C 42.09375 42.738281 42.15625 42.804688 42.234375 42.84375 Z M 39.660156 41.21875 C 39.617188 41.246094 39.589844 41.289062 39.585938 41.359375 C 38.96875 40.875 38.226562 40.320312 37.753906 39.941406 C 37.949219 39.808594 37.574219 39.777344 37.558594 39.539062 C 37.851562 39.875 38.210938 40.351562 38.730469 40.226562 C 38.457031 40.585938 39.027344 40.558594 39.050781 40.648438 L 39.125 40.492188 C 39.453125 40.574219 39.503906 41.09375 39.660156 41.21875 C 39.742188 41.15625 39.875 41.152344 39.949219 41.089844 C 39.8125 41.246094 39.726562 41.265625 39.660156 41.21875 Z M 35.851562 10.855469 L 35.769531 10.917969 C 35.789062 10.898438 35.816406 10.878906 35.851562 10.855469 L 36.019531 10.722656 L 35.90625 10.695312 L 36.105469 10.539062 C 36.273438 10.664062 36.007812 10.757812 35.851562 10.855469 Z M 35.15625 11.011719 C 35.136719 11.070312 35.105469 11.125 34.980469 11.121094 L 35.15625 11.011719 C 35.175781 10.925781 35.160156 10.832031 35.347656 10.886719 Z M 34.902344 11.546875 C 34.894531 11.535156 34.882812 11.527344 34.875 11.515625 L 34.921875 11.523438 Z M 34.316406 11.082031 C 34.277344 10.917969 34.644531 11.125 34.539062 10.894531 C 34.53125 10.808594 34.925781 10.914062 35.097656 10.765625 C 35.128906 10.722656 35.152344 10.679688 35.167969 10.636719 C 35.15625 10.695312 35.132812 10.734375 35.097656 10.765625 C 34.945312 10.96875 34.628906 11.140625 34.316406 11.082031 Z M 33.667969 12.460938 L 33.695312 12.429688 L 33.621094 12.410156 L 33.78125 12.289062 L 33.914062 12.355469 Z M 33.519531 12.871094 C 33.492188 12.882812 33.464844 12.886719 33.425781 12.886719 C 33.488281 12.78125 33.527344 12.648438 33.664062 12.707031 C 33.632812 12.773438 33.582031 12.824219 33.519531 12.871094 Z M 33.398438 12.445312 C 33.40625 12.441406 33.414062 12.4375 33.425781 12.433594 C 33.414062 12.441406 33.40625 12.445312 33.394531 12.453125 C 33.394531 12.449219 33.394531 12.449219 33.398438 12.445312 Z M 33.609375 12.421875 L 33.546875 12.511719 L 33.429688 12.5625 Z M 33.785156 12.167969 C 33.742188 12.191406 33.691406 12.207031 33.636719 12.214844 C 33.683594 12.171875 33.734375 12.160156 33.785156 12.167969 Z M 32.980469 12.316406 C 33.101562 12.230469 33.222656 12.144531 33.355469 12.085938 C 33.246094 12.207031 33.125 12.253906 32.980469 12.316406 Z M 33.195312 12.746094 C 33.144531 12.75 33.09375 12.742188 33.046875 12.71875 C 33.054688 12.707031 33.0625 12.691406 33.070312 12.675781 L 32.917969 12.804688 C 32.699219 12.820312 32.769531 12.667969 32.679688 12.628906 L 32.816406 12.617188 C 32.769531 12.589844 32.699219 12.59375 32.683594 12.550781 C 32.746094 12.5 32.8125 12.449219 32.878906 12.398438 C 32.914062 12.390625 32.949219 12.390625 32.972656 12.410156 L 32.941406 12.488281 C 33.03125 12.417969 33.164062 12.503906 33.265625 12.53125 C 33.171875 12.59375 33.128906 12.636719 33.300781 12.652344 C 33.265625 12.691406 33.230469 12.722656 33.195312 12.746094 Z M 32.570312 13.5 C 32.539062 13.476562 32.5 13.464844 32.457031 13.460938 C 32.457031 13.445312 32.449219 13.421875 32.4375 13.394531 C 32.429688 13.332031 32.609375 13.363281 32.78125 13.339844 Z M 32.460938 13.582031 C 32.410156 13.589844 32.363281 13.59375 32.3125 13.589844 L 32.480469 13.53125 C 32.476562 13.546875 32.46875 13.566406 32.460938 13.582031 Z M 32.5 13.160156 C 32.441406 13.195312 32.363281 13.21875 32.28125 13.246094 C 32.285156 13.167969 32.269531 13.113281 32.5 13.160156 Z M 30.414062 15.503906 L 30.480469 15.425781 C 30.480469 15.5 30.464844 15.53125 30.414062 15.503906 Z M 14.992188 46.601562 C 15.121094 46.5625 15.242188 46.515625 15.359375 46.464844 C 15.285156 46.644531 15.148438 46.625 14.992188 46.601562 Z M 48.761719 38.210938 C 48.792969 38.148438 49.222656 37.367188 49.539062 36.808594 C 49.53125 36.816406 49.523438 36.816406 49.515625 36.820312 C 49.59375 36.519531 49.007812 36.648438 49.40625 36.238281 C 48.980469 35.503906 48.96875 34.851562 48.40625 34.390625 L 48.644531 34.238281 C 48.628906 34.007812 48.484375 33.898438 48.398438 33.742188 L 48.292969 33.957031 C 48.136719 33.878906 48.253906 33.632812 48.230469 33.472656 C 47.765625 33.285156 47.21875 32.597656 46.964844 32.515625 C 46.804688 32.167969 46.539062 32.039062 46.527344 31.660156 L 46.558594 31.636719 C 45.382812 30.539062 44.5 29.640625 43.097656 28.816406 C 43.113281 28.519531 42.601562 28.417969 42.953125 28.175781 L 43.003906 28.199219 L 42.289062 27.585938 C 42.242188 27.679688 42.226562 27.78125 42.132812 27.773438 C 41.625 26.996094 40.84375 26.25 40.121094 25.574219 L 40.144531 25.542969 C 40.699219 24.792969 41.402344 24.007812 42.136719 23.199219 C 42.136719 23.199219 42.140625 23.195312 42.144531 23.191406 L 42.265625 23.054688 C 43.164062 22.0625 44.101562 21.035156 44.867188 20 C 47.304688 17.304688 49.734375 14.394531 48.167969 11.753906 C 46.160156 10.460938 42.886719 8.535156 39.480469 9.917969 C 39.460938 9.867188 39.414062 9.828125 39.410156 9.785156 C 38.972656 10.554688 39.195312 9.347656 38.480469 9.503906 C 38.183594 9.296875 37.738281 9.289062 37.597656 9.050781 C 37.03125 9.664062 37.117188 8.660156 36.476562 8.898438 L 36.378906 9.199219 C 36.351562 8.917969 36.15625 9.164062 35.84375 9.074219 C 35.851562 9.160156 35.980469 9.226562 35.859375 9.332031 C 35.558594 9.414062 35.878906 9.21875 35.628906 9.191406 C 35.503906 9.210938 35.480469 9.308594 35.40625 9.378906 C 35.433594 9.433594 35.429688 9.503906 35.53125 9.488281 C 35.351562 9.773438 35.140625 9.757812 34.851562 9.945312 C 34.910156 9.921875 35.019531 9.863281 35.074219 9.910156 L 35.042969 9.992188 C 35.191406 9.871094 35.476562 10.199219 35.496094 9.945312 C 35.550781 9.929688 35.601562 9.902344 35.644531 9.898438 C 35.796875 9.375 36.210938 9.910156 36.347656 9.917969 C 36.226562 9.925781 36.203125 10.015625 36.117188 10.046875 L 35.96875 9.941406 C 35.726562 10.15625 36.121094 9.980469 35.988281 10.132812 C 35.640625 10.183594 35.777344 10.492188 35.34375 10.355469 L 35.515625 10.140625 C 35.425781 10.238281 35.28125 10.285156 35.148438 10.222656 C 35.15625 10.210938 35.160156 10.195312 35.171875 10.179688 L 35.019531 10.308594 C 34.785156 10.320312 34.882812 10.15625 34.765625 10.128906 C 34.542969 10.160156 34.410156 10.316406 34.3125 10.394531 L 34.667969 10.429688 C 34.804688 10.804688 34.1875 10.640625 34.109375 10.996094 C 33.847656 11.089844 33.804688 10.769531 33.527344 10.976562 C 33.433594 10.988281 33.480469 11.039062 33.46875 11.082031 C 33.574219 11 33.683594 10.96875 33.820312 11.097656 L 33.714844 11.246094 C 32.996094 11.382812 33.636719 11.835938 33 11.929688 C 33.035156 11.898438 33.023438 11.851562 33.035156 11.8125 C 32.953125 11.859375 32.816406 11.867188 32.917969 11.941406 C 32.914062 11.941406 32.914062 11.941406 32.914062 11.941406 C 32.917969 11.945312 32.921875 11.945312 32.921875 11.949219 C 32.925781 11.949219 32.929688 11.953125 32.9375 11.957031 C 32.941406 11.957031 32.941406 11.957031 32.941406 11.957031 C 33.066406 12.011719 33.195312 11.945312 33.316406 11.894531 C 33.332031 11.945312 33.339844 12 33.425781 11.988281 C 33.40625 12.019531 33.390625 12.042969 33.367188 12.070312 C 33 12.207031 32.410156 12.359375 32.28125 12.667969 L 32.617188 12.636719 C 32.421875 12.683594 32.300781 12.820312 32.210938 12.894531 L 32.566406 12.925781 C 32.597656 13.015625 32.589844 13.074219 32.550781 13.117188 C 32.5 13.132812 32.4375 13.125 32.378906 13.078125 C 32.277344 13.15625 31.996094 13.210938 32.027344 13.421875 C 32.03125 13.421875 32.035156 13.417969 32.039062 13.417969 C 32.027344 13.441406 32.015625 13.464844 32.011719 13.496094 C 31.746094 13.585938 31.703125 13.265625 31.421875 13.472656 C 31.332031 13.488281 31.378906 13.535156 31.367188 13.578125 C 31.472656 13.503906 31.578125 13.472656 31.707031 13.589844 L 31.160156 13.828125 L 31.136719 13.769531 C 31.199219 13.722656 31.261719 13.667969 31.316406 13.617188 L 31.132812 13.574219 L 31.082031 13.652344 L 31.074219 13.636719 C 30.917969 13.664062 30.820312 13.746094 30.765625 13.851562 L 30.5 13.789062 C 30.4375 13.652344 30.75 13.589844 30.597656 13.484375 C 30.242188 13.519531 30.671875 13.574219 30.515625 13.671875 C 30.167969 13.8125 30.175781 13.519531 30.101562 13.433594 C 29.914062 13.445312 30.210938 14.328125 30.378906 14.9375 L 30.335938 14.953125 C 30.320312 14.847656 29.96875 14.898438 30.140625 14.75 C 30.042969 14.761719 29.953125 14.859375 29.851562 14.785156 C 29.871094 14.757812 29.882812 14.707031 29.980469 14.695312 L 29.9375 14.597656 C 29.46875 14.761719 29.777344 14.253906 29.667969 14.378906 L 29.496094 14.527344 L 29.347656 14.421875 C 29.34375 14.492188 29.207031 14.558594 29.261719 14.605469 C 29.359375 14.597656 29.371094 14.546875 29.394531 14.519531 L 29.65625 14.585938 L 29.515625 14.789062 C 29.476562 14.78125 29.40625 14.78125 29.421875 14.730469 L 29.128906 14.832031 L 29.394531 14.898438 L 29.320312 15.03125 C 29.191406 15.191406 28.976562 15.160156 28.8125 15.117188 C 28.828125 15.09375 28.765625 15.015625 28.710938 14.953125 C 27.722656 14.605469 28.066406 14.671875 27.433594 15.042969 L 27.75 15.589844 C 27.597656 15.667969 27.410156 15.699219 27.207031 15.707031 C 25.945312 14.53125 24.46875 13.105469 22.839844 11.347656 C 21.96875 11.035156 21.671875 10.171875 20.792969 9.894531 C 20.761719 8.214844 18.949219 8.160156 17.789062 7.519531 C 15.933594 6.351562 13.65625 7.054688 11.585938 7.667969 C 9.480469 8.222656 7.046875 9.378906 6.230469 11.851562 C 5.488281 17.007812 9.90625 19.242188 12.347656 22.359375 C 13.328125 23.523438 14.464844 24.507812 15.691406 25.390625 C 15.550781 25.496094 15.445312 25.617188 15.390625 25.660156 C 15.554688 26.027344 14.296875 26.390625 14.546875 26.640625 C 14.390625 26.667969 14.394531 26.757812 14.28125 26.796875 C 14.425781 26.78125 14.652344 26.679688 14.890625 26.597656 C 14.789062 26.703125 14.707031 26.792969 14.625 26.875 C 14.347656 26.949219 13.894531 27.296875 14.035156 27.300781 C 14.082031 27.273438 14.128906 27.265625 14.171875 27.265625 C 14.121094 27.300781 14.066406 27.339844 14.003906 27.375 L 13.960938 27.421875 C 13.902344 27.414062 13.839844 27.441406 13.742188 27.558594 L 13.804688 27.589844 L 13.785156 27.609375 L 13.894531 27.667969 L 13.742188 27.78125 C 13.746094 27.78125 13.753906 27.78125 13.757812 27.78125 C 13.527344 27.898438 13.367188 28.09375 13.289062 28.160156 C 13.332031 28.25 13.285156 28.339844 13.195312 28.425781 L 13.164062 28.445312 L 13.183594 28.4375 C 12.90625 28.703125 12.261719 28.949219 12.445312 29.136719 C 12.285156 29.167969 12.296875 29.253906 12.175781 29.292969 C 12.4375 29.269531 12.941406 28.964844 13.328125 28.988281 C 13.316406 29.039062 13.300781 29.089844 13.234375 29.089844 C 13.179688 29.140625 13.023438 29.175781 13.027344 29.242188 L 13.019531 29.25 C 13.011719 29.273438 12.996094 29.296875 12.980469 29.320312 L 12.691406 29.382812 C 12.523438 29.238281 11.757812 29.789062 11.929688 29.800781 C 12.148438 29.679688 12.324219 29.910156 12.402344 29.640625 L 12.59375 29.671875 C 12.445312 29.785156 12.3125 29.890625 12.277344 29.988281 C 12.234375 30 12.203125 30.019531 12.171875 30.035156 C 12.203125 30.035156 12.234375 30.023438 12.277344 30.003906 C 12.265625 30.03125 12.265625 30.054688 12.28125 30.082031 C 12.105469 30.160156 12.03125 30.273438 11.96875 30.382812 C 11.914062 30.402344 11.863281 30.414062 11.808594 30.421875 L 11.847656 30.359375 C 11.769531 30.410156 11.597656 30.402344 11.570312 30.5 C 11.703125 30.464844 11.832031 30.433594 11.949219 30.40625 C 11.878906 30.539062 11.804688 30.664062 11.59375 30.734375 L 11.679688 30.773438 C 11.34375 31.378906 10.492188 31.667969 10.175781 32.242188 C 9.726562 32.441406 9.636719 32.914062 9.285156 33.191406 L 9.511719 33.222656 C 9.507812 33.226562 9.5 33.230469 9.492188 33.234375 L 9.578125 33.269531 C 9.242188 33.871094 8.390625 34.164062 8.074219 34.738281 C 7.625 34.941406 7.53125 35.414062 7.183594 35.6875 L 7.730469 35.769531 C 7.625 35.914062 7.515625 36.042969 7.308594 36.113281 C 7.570312 36.089844 7.84375 35.953125 8.113281 35.949219 L 7.707031 36.464844 L 8.613281 36.15625 L 8.308594 36.527344 L 8.851562 36.296875 C 9.34375 36.195312 9 36.625 9.207031 36.707031 C 9.722656 36.578125 9.28125 37.171875 9.84375 37.070312 L 9.519531 37.402344 L 9.664062 37.351562 C 9.921875 37.621094 9.332031 38.109375 9.308594 38.363281 L 9.207031 38.355469 C 8.972656 38.589844 9.28125 38.59375 9.355469 38.679688 C 9.414062 38.816406 9.171875 38.875 9.082031 38.976562 L 9.398438 38.933594 C 9.214844 39.195312 9.085938 39.285156 8.84375 39.5 L 8.992188 39.453125 C 9.03125 39.460938 9.097656 39.460938 9.085938 39.507812 C 9.082031 39.578125 8.964844 39.613281 8.90625 39.636719 L 8.949219 39.730469 C 8.890625 39.753906 8.449219 39.746094 8.46875 39.941406 C 8.761719 40.0625 8.554688 39.6875 8.804688 39.78125 C 8.808594 40.089844 8.128906 40.390625 7.960938 40.757812 C 7.742188 41.101562 7.964844 41.289062 7.4375 41.628906 C 7.355469 41.742188 7.140625 42.015625 7.414062 41.945312 L 6.84375 42.78125 C 7.386719 42.710938 6.9375 43.21875 7.136719 43.285156 C 7.800781 43.324219 7.257812 43.996094 7.898438 43.914062 C 7.832031 44.070312 7.625 44.207031 7.765625 44.292969 C 8.050781 43.949219 8.214844 44.386719 8.589844 44.167969 C 8.683594 44.222656 8.59375 44.324219 8.53125 44.410156 L 8.96875 44.257812 C 9.175781 44.1875 9.214844 44.355469 9.339844 44.402344 L 9.148438 44.507812 L 9.488281 44.503906 C 9.433594 44.609375 9.316406 44.652344 9.253906 44.738281 C 9.449219 44.71875 9.519531 44.582031 9.652344 44.492188 C 9.957031 44.277344 10.46875 44.28125 10.75 44.226562 L 10.460938 44.484375 L 11.265625 44.164062 C 11.277344 44.273438 11.164062 44.398438 10.972656 44.417969 L 11.035156 44.554688 C 11.316406 44.433594 11.5 44.238281 11.824219 44.285156 C 11.730469 44.449219 11.582031 44.566406 11.429688 44.683594 C 11.59375 44.964844 11.433594 45.441406 11.191406 45.570312 L 11.601562 45.582031 L 11.503906 45.882812 C 11.886719 45.90625 11.96875 45.722656 12.261719 45.625 C 12.082031 46.042969 12.660156 45.976562 12.808594 45.925781 C 13.234375 45.828125 13.632812 45.511719 14.128906 45.632812 C 14.578125 45.5 14.519531 45.519531 14.84375 45.1875 L 14.996094 45.222656 C 15.042969 45.03125 15.496094 44.984375 15.546875 44.949219 L 15.433594 44.917969 C 15.722656 44.886719 15.542969 44.640625 15.910156 44.710938 L 15.914062 44.710938 L 15.875 44.769531 L 16.25 44.707031 C 16.335938 44.683594 16.40625 44.683594 16.46875 44.699219 C 16.019531 44.878906 15.347656 44.871094 15.128906 45.332031 L 15.4375 45.339844 C 15.292969 45.566406 14.949219 45.582031 14.652344 45.660156 C 15.050781 45.558594 15.402344 45.738281 15.644531 45.421875 C 15.4375 45.714844 15.359375 45.921875 14.882812 46.0625 L 15.308594 45.960938 C 15.058594 46.132812 15.003906 46.386719 14.964844 46.597656 C 14.792969 46.566406 14.605469 46.542969 14.488281 46.796875 L 14.78125 46.699219 C 14.707031 47.5 13.355469 47.136719 13.027344 47.828125 L 13.335938 47.835938 C 13.191406 48.0625 12.84375 48.078125 12.550781 48.160156 C 12.949219 48.054688 13.300781 48.234375 13.542969 47.921875 C 13.335938 48.210938 13.257812 48.417969 12.78125 48.558594 L 13.210938 48.457031 C 12.949219 48.632812 12.902344 48.894531 12.859375 49.109375 C 13.601562 48.878906 14.160156 48.464844 14.5 48.015625 C 14.984375 47.738281 15.523438 47.511719 15.757812 47.050781 C 15.613281 46.433594 17.019531 46.621094 17.230469 45.972656 C 16.875 45.78125 17.476562 45.464844 17.113281 45.410156 C 17.222656 45.351562 17.285156 45.417969 17.390625 45.425781 C 17.320312 45.34375 17.988281 45.246094 17.714844 45.09375 C 18.9375 44.433594 19.578125 43.527344 20.738281 42.792969 C 21.699219 41.78125 23.113281 40.71875 24.390625 39.726562 C 25.300781 39.28125 27.398438 37.453125 29.824219 35.214844 C 30.214844 35.527344 30.5625 35.902344 31.042969 36.097656 C 30.890625 37.417969 32.417969 37.109375 32.722656 37.824219 L 32.828125 37.609375 C 32.90625 38.0625 33.269531 38.054688 33.542969 38.222656 L 33.46875 38.378906 C 34.492188 38.761719 34.632812 40.230469 35.917969 40.476562 C 36.855469 42.789062 39.535156 43.078125 41.179688 44.675781 C 41.96875 44.339844 42.507812 44.980469 43.164062 45.113281 C 43.21875 44.460938 44.011719 45.1875 44.023438 44.964844 L 44 44.878906 L 44.609375 45.101562 C 44.464844 44.800781 43.945312 44.851562 43.882812 44.441406 C 43.589844 44.03125 42.84375 44.082031 42.667969 43.671875 C 42.707031 43.683594 42.769531 43.699219 42.78125 43.644531 L 42.695312 43.679688 C 42.683594 43.671875 42.671875 43.671875 42.664062 43.664062 C 42.640625 43.597656 42.628906 43.519531 42.632812 43.421875 C 42.671875 43.496094 42.769531 43.550781 42.78125 43.644531 L 42.902344 43.59375 C 42.980469 44.089844 43.265625 43.90625 43.460938 43.996094 C 43.253906 43.757812 42.992188 43.566406 42.761719 43.304688 L 42.738281 43.09375 L 43.132812 43.09375 L 42.960938 42.632812 C 43.367188 42.679688 43.917969 43.023438 44.113281 43.5 C 45.042969 43.347656 45.953125 44.167969 46.730469 44.585938 C 46.777344 44.496094 46.820312 44.402344 46.914062 44.410156 L 47.046875 44.742188 C 47.253906 44.652344 47.441406 45.011719 47.628906 45.023438 L 47.65625 44.773438 L 47.785156 44.835938 C 47.949219 44.578125 47.789062 44.496094 47.773438 44.265625 L 48.347656 44.355469 C 48.328125 44.269531 48.234375 44.1875 48.324219 44.078125 C 48.394531 43.996094 48.484375 44.082031 48.539062 44.109375 C 48.53125 43.917969 48.46875 43.242188 48.335938 42.910156 C 48.492188 42.988281 48.566406 42.234375 48.882812 42.460938 L 48.847656 42.332031 L 49.164062 42.21875 C 49.160156 42.292969 49.199219 42.351562 49.140625 42.398438 L 49.195312 42.425781 L 49.269531 42.273438 L 49.214844 42.246094 C 49.835938 42.058594 49.230469 41.609375 49.285156 41.296875 L 49.648438 41.359375 C 49.382812 40.96875 49.078125 40.78125 49.007812 40.257812 L 49.105469 40.1875 C 48.808594 40.195312 48.785156 39.769531 48.550781 39.578125 L 48.886719 39.363281 L 48.828125 39.148438 L 48.730469 39.214844 C 48.980469 38.769531 48.464844 38.742188 48.585938 38.234375 C 48.625 38.21875 48.683594 38.167969 48.761719 38.210938 Z M 13.761719 46.003906 L 14.191406 45.765625 C 14.019531 45.75 13.882812 45.914062 13.761719 46.003906 Z M 31.910156 13.195312 L 32.097656 13.085938 L 32.046875 13.058594 L 31.859375 13.167969 Z M 32.414062 12.265625 L 32.003906 12.472656 L 32.292969 12.371094 Z M 31.746094 13.027344 L 31.90625 12.859375 L 31.859375 12.835938 L 31.667969 13.011719 Z M 31.511719 12.042969 C 31.527344 12.03125 31.554688 12.007812 31.601562 11.964844 C 31.488281 12.003906 31.484375 12.027344 31.511719 12.042969 Z M 32.910156 11.785156 C 32.648438 11.804688 32.445312 12.03125 32.519531 12.1875 C 32.957031 12.035156 32.421875 11.90625 32.910156 11.785156 Z M 34.199219 10.589844 L 34.152344 10.5625 L 33.960938 10.667969 L 34.011719 10.699219 Z M 33.34375 10.949219 L 33.316406 10.890625 L 33.050781 10.980469 L 33.078125 11.039062 Z M 13.988281 27.386719 C 13.992188 27.382812 14 27.378906 14.003906 27.375 L 14.058594 27.316406 Z M 49.117188 34.546875 L 48.960938 34.394531 L 48.855469 34.609375 C 48.941406 34.574219 49.050781 34.476562 49.117188 34.546875 Z M 35.039062 9.457031 C 35.152344 9.4375 35.121094 9.367188 35.136719 9.3125 C 35.046875 9.363281 34.894531 9.367188 35.039062 9.457031 Z M 33.714844 10.644531 L 33.695312 10.605469 L 33.417969 10.746094 L 33.476562 10.792969 Z M 31.546875 12.140625 C 31.667969 12.085938 31.550781 12.070312 31.511719 12.042969 C 31.457031 12.089844 31.570312 12.011719 31.546875 12.140625 Z M 35.183594 9.253906 C 35.152344 9.269531 35.140625 9.289062 35.136719 9.3125 C 35.160156 9.296875 35.175781 9.277344 35.183594 9.253906 Z M 31.726562 12.390625 C 31.53125 12.410156 31.542969 12.585938 31.359375 12.46875 C 31.292969 12.476562 31.25 12.5 31.210938 12.523438 C 31.222656 12.609375 31.667969 12.628906 31.726562 12.390625 Z M 31.378906 13.042969 L 31.132812 13.238281 L 31.335938 13.167969 C 31.386719 13.128906 31.433594 13.089844 31.378906 13.042969 Z M 28.910156 14.726562 L 28.730469 14.855469 L 28.878906 14.804688 Z M 31.242188 13.445312 L 31.214844 13.386719 L 30.953125 13.476562 L 30.976562 13.535156 Z M 31.613281 13.140625 L 31.59375 13.101562 L 31.320312 13.242188 L 31.375 13.289062 Z M 31.417969 12.230469 L 31.066406 12.191406 L 31.09375 12.40625 Z M 31.210938 12.527344 C 31.160156 12.558594 31.121094 12.601562 31.054688 12.625 C 31.125 12.609375 31.191406 12.589844 31.210938 12.527344 Z M 26.324219 14.3125 C 26.265625 14.347656 26.203125 14.378906 26.136719 14.40625 C 26.207031 14.386719 26.292969 14.378906 26.324219 14.3125 Z M 26.328125 14.300781 C 26.324219 14.304688 26.324219 14.308594 26.324219 14.3125 C 26.328125 14.308594 26.335938 14.304688 26.339844 14.304688 Z M 11.640625 30.054688 L 11.820312 30.148438 L 11.640625 30.277344 C 11.949219 30.3125 12.019531 30.140625 12.171875 30.035156 C 11.945312 30.070312 11.898438 29.738281 11.640625 30.054688 Z M 12.347656 48.234375 C 12.316406 48.253906 12.28125 48.269531 12.253906 48.292969 C 12.285156 48.269531 12.316406 48.253906 12.347656 48.234375 Z M 31.210938 12.519531 C 31.210938 12.523438 31.210938 12.523438 31.210938 12.527344 C 31.210938 12.523438 31.210938 12.523438 31.210938 12.523438 Z M 30.964844 12.648438 C 31.003906 12.644531 31.027344 12.636719 31.054688 12.625 C 31.023438 12.632812 30.992188 12.640625 30.964844 12.648438 "/>
</g>
<path style=" stroke:none;fill-rule:nonzero;fill:rgb(100%,100%,100%);fill-opacity:1;" d="M 26.300781 18.496094 C 25.878906 18.574219 25.507812 18.96875 25.476562 19.375 C 25.445312 19.785156 25.761719 20.050781 26.183594 19.96875 C 26.609375 19.890625 26.976562 19.496094 27.011719 19.089844 C 27.039062 18.679688 26.726562 18.414062 26.300781 18.496094 "/>
<path style=" stroke:none;fill-rule:nonzero;fill:rgb(100%,100%,100%);fill-opacity:1;" d="M 21.738281 21.414062 C 21.277344 21.503906 20.792969 21.609375 20.296875 21.730469 C 21.152344 20.203125 22.105469 18.667969 22.988281 17.464844 C 22.550781 18.546875 22.105469 19.996094 21.738281 21.414062 Z M 29.289062 20.304688 C 29.113281 20.339844 28.910156 20.378906 28.121094 21.296875 C 28.316406 20.941406 28.378906 20.648438 28.140625 20.488281 C 27.894531 20.324219 27.464844 20.453125 27.222656 20.609375 C 27.074219 20.707031 27.074219 20.753906 27.046875 20.9375 C 27.027344 21.058594 26.914062 21.328125 26.839844 21.480469 L 26.597656 21.992188 C 25.691406 23.570312 25.1875 24.003906 25.035156 24.179688 C 24.886719 24.347656 24.757812 24.445312 24.667969 24.460938 C 24.601562 24.476562 24.574219 24.425781 24.582031 24.34375 C 24.59375 24.214844 24.640625 24.035156 24.742188 23.800781 C 24.914062 23.410156 25.1875 22.828125 25.402344 22.441406 C 25.519531 22.207031 25.820312 21.660156 25.820312 21.660156 C 26.105469 21.023438 25.566406 20.800781 25.25 20.847656 C 25.160156 20.863281 24.167969 20.976562 23.03125 21.171875 C 23.652344 18.574219 23.597656 18.960938 24.246094 17.296875 C 24.558594 16.484375 24.523438 16.296875 24.257812 15.988281 C 23.992188 15.683594 24.039062 15.34375 23.738281 15.316406 C 23.035156 15.253906 20.605469 18.765625 18.644531 22.175781 C 17.726562 22.453125 16.800781 22.78125 15.953125 23.167969 C 15.386719 23.425781 15.496094 23.894531 15.546875 24.136719 C 15.617188 24.472656 15.984375 24.625 16.273438 24.457031 C 16.714844 24.210938 17.222656 23.972656 17.761719 23.753906 C 17.746094 23.789062 17.738281 23.808594 17.746094 23.808594 C 17.003906 25.203125 16.171875 27.152344 15.898438 28.019531 C 15.746094 28.503906 15.988281 28.933594 16.40625 29.125 C 16.820312 29.3125 17.101562 29.109375 17.242188 28.464844 C 17.417969 27.65625 18.46875 25.15625 19.53125 23.136719 C 19.53125 23.136719 19.539062 23.125 19.546875 23.113281 C 20.1875 22.90625 20.839844 22.722656 21.449219 22.5625 C 21.074219 24.152344 20.980469 24.808594 20.984375 25.359375 C 20.988281 25.898438 21.1875 26.527344 21.777344 26.441406 C 22.367188 26.355469 22.269531 25.800781 22.335938 25.289062 C 22.484375 24.113281 22.507812 23.605469 22.785156 22.261719 C 22.792969 22.257812 22.800781 22.242188 22.808594 22.21875 C 23.464844 22.066406 24.023438 21.949219 24.410156 21.871094 C 24.355469 21.988281 24.292969 22.121094 24.226562 22.257812 C 23.96875 22.78125 23.691406 23.429688 23.515625 23.894531 C 23.34375 24.363281 23.253906 24.730469 23.226562 25.039062 C 23.171875 25.726562 23.464844 26.097656 23.980469 26.003906 C 24.367188 25.929688 24.957031 25.410156 25.621094 24.371094 C 25.542969 24.621094 25.5 24.824219 25.496094 24.949219 C 25.472656 25.484375 25.738281 25.925781 26.605469 25.339844 C 26.691406 25.28125 26.707031 25.195312 26.707031 25.027344 C 26.753906 24.445312 26.988281 23.675781 27.503906 22.890625 C 27.910156 22.285156 28.195312 21.941406 28.566406 21.78125 C 29.21875 21.496094 29.640625 21.585938 30.007812 21.140625 C 30.363281 20.710938 29.617188 20.242188 29.289062 20.304688 "/>
<path style=" stroke:none;fill-rule:nonzero;fill:rgb(100%,100%,100%);fill-opacity:1;" d="M 37.628906 30.691406 C 37.300781 31.125 36.996094 31.398438 36.816406 31.425781 C 36.707031 31.441406 36.644531 31.332031 36.664062 31.171875 C 36.714844 30.777344 37.355469 29.582031 37.835938 28.992188 C 38.15625 28.578125 38.5 28.289062 38.652344 28.269531 C 38.777344 28.25 38.824219 28.316406 38.800781 28.476562 C 38.757812 28.832031 38.070312 30.128906 37.628906 30.691406 Z M 40.285156 29.757812 C 40.097656 30.0625 39.925781 30.320312 39.6875 30.585938 C 39.46875 30.824219 39.292969 30.921875 39.199219 30.886719 C 38.949219 30.792969 39.09375 30.4375 39.347656 29.910156 C 39.46875 29.664062 39.636719 29.347656 39.792969 29.074219 C 40.011719 28.714844 40.058594 28.613281 40.074219 28.488281 C 40.097656 28.304688 39.980469 28.183594 39.640625 28.042969 C 39.425781 27.945312 39.40625 27.925781 39.316406 27.675781 C 39.195312 27.367188 38.929688 27.214844 38.609375 27.261719 C 38.121094 27.328125 37.355469 27.917969 36.679688 28.757812 C 36.429688 29.035156 35.589844 30.171875 35.484375 30.316406 L 35.351562 30.492188 C 34.984375 30.996094 34.882812 31.117188 34.71875 31.296875 C 34.554688 31.457031 34.425781 31.546875 34.335938 31.558594 C 34.269531 31.570312 34.242188 31.519531 34.253906 31.433594 C 34.269531 31.304688 34.328125 31.128906 34.441406 30.902344 C 34.632812 30.519531 34.933594 29.953125 35.164062 29.574219 C 35.292969 29.34375 35.515625 28.933594 35.53125 28.890625 L 35.65625 28.671875 C 35.976562 28.097656 35.484375 27.824219 35.117188 27.851562 C 34.972656 27.863281 34.730469 27.96875 34.613281 28.058594 C 34.519531 28.121094 34.507812 28.148438 34.476562 28.277344 C 34.445312 28.441406 34.226562 28.914062 34 29.335938 C 33.71875 29.847656 33.40625 30.476562 33.207031 30.9375 C 33.019531 31.394531 32.90625 31.757812 32.867188 32.070312 C 32.78125 32.75 33.050781 33.136719 33.574219 33.066406 C 33.960938 33.011719 34.375 32.640625 34.886719 32.050781 C 35.046875 31.863281 35.230469 31.609375 35.40625 31.34375 C 35.308594 32.105469 35.691406 32.632812 36.339844 32.539062 C 36.769531 32.480469 37.136719 32.164062 37.605469 31.648438 C 37.667969 31.585938 37.691406 31.558594 37.726562 31.554688 C 37.757812 31.546875 37.789062 31.578125 37.789062 31.640625 L 37.8125 31.710938 C 37.878906 32.058594 38.140625 32.222656 38.519531 32.167969 C 38.980469 32.105469 39.492188 31.761719 40.050781 31.050781 C 40.503906 30.496094 40.679688 30.089844 40.777344 29.835938 C 40.882812 29.542969 40.476562 29.441406 40.285156 29.757812 "/>
<path style=" stroke:none;fill-rule:nonzero;fill:rgb(100%,100%,100%);fill-opacity:1;" d="M 35.84375 27.121094 C 36.265625 27.042969 36.636719 26.648438 36.667969 26.238281 C 36.699219 25.832031 36.382812 25.566406 35.960938 25.644531 C 35.535156 25.722656 35.167969 26.117188 35.132812 26.527344 C 35.101562 26.933594 35.417969 27.203125 35.84375 27.121094 "/>
<path style=" stroke:none;fill-rule:nonzero;fill:rgb(100%,100%,100%);fill-opacity:1;" d="M 29.40625 25.191406 C 28.972656 26.269531 28.527344 27.71875 28.160156 29.128906 C 27.707031 29.21875 27.226562 29.320312 26.726562 29.441406 C 27.585938 27.917969 28.527344 26.390625 29.40625 25.191406 Z M 29.628906 28.875 C 29.570312 28.886719 29.511719 28.894531 29.449219 28.902344 C 30.074219 26.300781 30.019531 26.6875 30.664062 25.023438 C 30.980469 24.210938 30.945312 24.023438 30.675781 23.714844 C 30.414062 23.410156 30.460938 23.070312 30.160156 23.042969 C 29.457031 22.980469 27.035156 26.476562 25.082031 29.882812 C 24.160156 30.15625 23.238281 30.492188 22.394531 30.890625 C 21.863281 31.140625 21.972656 31.613281 22.023438 31.851562 C 22.09375 32.191406 22.4375 32.34375 22.710938 32.183594 C 23.148438 31.925781 23.652344 31.679688 24.195312 31.457031 C 24.167969 31.507812 22.707031 34.40625 22.320312 35.742188 C 22.175781 36.230469 22.410156 36.660156 22.828125 36.847656 C 23.242188 37.039062 23.523438 36.839844 23.664062 36.191406 C 23.835938 35.386719 25.226562 32.148438 25.988281 30.804688 C 26.628906 30.597656 27.273438 30.417969 27.875 30.257812 C 27.871094 30.269531 27.40625 32.136719 27.40625 33.085938 C 27.402344 33.625 27.605469 34.253906 28.195312 34.167969 C 28.789062 34.082031 28.691406 33.527344 28.753906 33.015625 C 28.90625 31.839844 28.929688 31.332031 29.207031 29.988281 C 29.214844 29.984375 29.226562 29.960938 29.238281 29.925781 C 29.394531 29.886719 29.542969 29.851562 29.679688 29.824219 C 30.414062 29.664062 30.625 29.667969 30.675781 29.09375 C 30.707031 28.734375 29.882812 28.835938 29.628906 28.875 "/>
<path style=" stroke:none;fill-rule:nonzero;fill:rgb(100%,100%,100%);fill-opacity:1;" d="M 30.566406 33.597656 C 30.183594 33.636719 29.351562 33.449219 29.214844 32.785156 C 29.164062 32.570312 29.480469 31.988281 29.542969 31.890625 C 29.65625 31.71875 29.832031 31.820312 29.890625 31.90625 C 30.019531 32.097656 30.71875 32.726562 31.125 32.320312 C 31.386719 32.058594 30.980469 31.71875 30.8125 31.441406 C 30.191406 30.410156 31.03125 29.21875 31.296875 28.957031 C 31.871094 28.390625 32.28125 28.339844 32.566406 28.332031 C 33.382812 28.304688 33.664062 28.769531 33.605469 29.039062 C 33.535156 29.34375 33.375 29.519531 33.265625 29.636719 C 33.1875 29.726562 32.957031 29.746094 32.882812 29.644531 C 32.710938 29.390625 32.609375 29.046875 32.101562 29.25 C 31.695312 29.414062 31.671875 29.96875 31.761719 30.238281 C 31.902344 30.667969 32.476562 30.992188 32.472656 31.617188 C 32.460938 33.222656 31.046875 33.546875 30.566406 33.597656 "/>
</g>
</svg>
