<?xml version="1.0" encoding="UTF-8"?>
<svg xmlns="http://www.w3.org/2000/svg" xmlns:xlink="http://www.w3.org/1999/xlink" width="56pt" height="56pt" viewBox="0 0 56 56" version="1.1">
<g id="surface1">
<rect x="0" y="0" width="56" height="56" style="fill:rgb(95.666504%,95.776367%,96.775818%);fill-opacity:1;stroke:none;"/>
<rect x="0" y="0" width="56" height="56" style="fill:rgb(78.878784%,11.755371%,15.0177%);fill-opacity:1;stroke:none;"/>
<path style=" stroke:none;fill-rule:nonzero;fill:rgb(100%,100%,100%);fill-opacity:1;" d="M 35.261719 25.683594 C 35.628906 26.207031 35.921875 26.816406 36.4375 27.074219 C 36.804688 27.339844 37.6875 27.597656 38.054688 27.339844 C 39.53125 26.472656 40.488281 25.867188 41.820312 24.914062 C 41.890625 24.828125 41.820312 24.570312 41.742188 24.394531 C 41.671875 24.308594 41.523438 24.21875 41.378906 24.21875 C 41.230469 24.21875 40.640625 24.136719 40.492188 24.222656 C 39.679688 24.828125 39.351562 25.078125 38.464844 25.597656 C 38.167969 25.769531 37.773438 25.984375 37.476562 25.894531 C 36.890625 25.71875 36.363281 25.6875 35.851562 25.421875 C 35.703125 25.335938 35.554688 25.160156 35.410156 25.160156 C 35.335938 25.160156 35.050781 25.308594 34.980469 25.394531 C 34.976562 25.566406 35.1875 25.507812 35.261719 25.683594 "/>
<path style=" stroke:none;fill-rule:nonzero;fill:rgb(100%,100%,100%);fill-opacity:1;" d="M 41.882812 22.699219 C 41.882812 22.550781 41.582031 22.246094 41.65625 22.101562 C 41.792969 21.957031 42.109375 21.703125 42.351562 21.660156 C 42.546875 21.625 42.722656 21.46875 42.859375 21.609375 C 43.070312 21.832031 43 22.191406 42.929688 22.410156 C 42.929688 22.554688 42.789062 22.699219 42.652344 22.773438 C 42.441406 22.84375 42.300781 22.988281 42.09375 22.988281 C 41.953125 22.988281 41.953125 22.769531 41.882812 22.699219 "/>
<path style=" stroke:none;fill-rule:nonzero;fill:rgb(100%,100%,100%);fill-opacity:1;" d="M 45.238281 22.351562 C 46.144531 21.773438 46.914062 21.050781 47.820312 20.542969 C 48.519531 20.109375 49.21875 19.824219 49.914062 19.53125 C 50.402344 19.390625 50.960938 19.320312 51.378906 19.101562 C 51.449219 19.101562 51.851562 18.496094 51.78125 18.496094 C 51.503906 18.347656 50.957031 18.351562 50.675781 18.351562 C 50.050781 18.425781 49.195312 18.734375 48.636719 18.949219 C 47.867188 19.238281 47.085938 19.714844 46.386719 20.148438 C 45.480469 20.652344 44.753906 21.335938 43.984375 21.984375 C 43.910156 22.058594 43.773438 22.203125 43.84375 22.203125 C 44.191406 22.347656 44.609375 22.351562 44.960938 22.351562 C 45.027344 22.351562 45.167969 22.421875 45.238281 22.351562 "/>
<path style=" stroke:none;fill-rule:nonzero;fill:rgb(13.931274%,22.099304%,43.315125%);fill-opacity:1;" d="M 37.355469 27.582031 C 34.105469 29.410156 10.394531 38.699219 7.246094 34.332031 C 4.464844 30.46875 9.679688 25.316406 10.929688 24.167969 L 9.304688 24.152344 C 8.125 25.09375 2.234375 29.996094 2.195312 34.34375 C 2.152344 39.175781 11.511719 41.007812 38.378906 27.992188 L 37.355469 27.582031 "/>
<path style=" stroke:none;fill-rule:nonzero;fill:rgb(13.931274%,22.099304%,43.315125%);fill-opacity:1;" d="M 53.640625 26.160156 C 53.511719 26.101562 51.515625 25.066406 49.980469 24.273438 C 50.191406 23.863281 50.117188 23.660156 49.8125 23.5 C 49.480469 23.324219 49.011719 23.390625 48.566406 23.539062 C 48.351562 23.425781 48.226562 23.359375 48.226562 23.359375 C 48.226562 23.359375 49.566406 22.511719 50.976562 21.445312 C 52.699219 20.148438 53.589844 18.933594 52.890625 18.503906 C 50.664062 17.132812 47.019531 19.070312 45.855469 20.015625 C 45.570312 20.222656 45.21875 20.476562 44.542969 20.957031 C 44.285156 21.121094 44.09375 21.25 43.921875 21.304688 C 43.296875 20.386719 42.402344 21.179688 42.382812 21.195312 C 42.316406 21.246094 42.25 21.300781 42.179688 21.355469 C 41.769531 21.675781 41.582031 21.695312 41.292969 21.695312 C 41.007812 21.695312 37.035156 21.136719 36.351562 21.019531 C 35.667969 20.902344 35.140625 20.785156 34.851562 20.96875 C 34.628906 21.113281 34.050781 21.507812 33.808594 21.671875 C 33.714844 21.734375 33.726562 21.757812 33.792969 21.785156 L 39.894531 24.242188 C 39.277344 24.675781 38.816406 24.992188 38.65625 25.09375 C 38.027344 25.492188 37.742188 25.613281 37.328125 25.5 C 36.898438 25.382812 35.628906 24.960938 35.449219 24.898438 C 35.34375 24.859375 35.316406 24.875 35.246094 24.925781 C 35.199219 24.960938 34.503906 25.4375 34.503906 25.4375 L 35.632812 26.84375 L 34.117188 26.660156 C 34.015625 26.648438 33.863281 26.695312 33.785156 26.765625 L 33.496094 27.03125 C 33.417969 27.101562 33.4375 27.183594 33.535156 27.214844 L 38.976562 28.917969 C 39.078125 28.953125 39.238281 28.945312 39.335938 28.90625 L 39.644531 28.78125 C 39.738281 28.738281 39.765625 28.640625 39.699219 28.554688 L 39.023438 27.707031 C 41.042969 26.859375 42.441406 26.34375 42.441406 26.34375 C 42.953125 26.089844 43.621094 26.085938 45.453125 26.0625 C 46.234375 26.050781 46.835938 25.984375 49.03125 26.375 C 51.496094 26.816406 52.238281 27.011719 52.351562 27.019531 C 52.445312 27.023438 52.609375 27.027344 52.871094 26.894531 C 53.1875 26.734375 53.515625 26.539062 53.679688 26.445312 C 53.84375 26.347656 53.863281 26.265625 53.640625 26.160156 M 40.808594 25.234375 C 40.808594 25.234375 40.242188 25.632812 38.839844 26.585938 C 37.5625 27.449219 36.648438 26.710938 36.648438 26.710938 L 35.0625 25.425781 C 35.0625 25.425781 35.195312 25.339844 35.289062 25.277344 C 35.371094 25.222656 35.410156 25.246094 35.5625 25.308594 C 35.679688 25.363281 37.03125 25.929688 37.15625 25.976562 C 37.300781 26.03125 37.457031 26.0625 37.605469 26.066406 C 37.839844 26.066406 38.054688 25.992188 38.253906 25.898438 C 38.453125 25.804688 38.648438 25.679688 38.886719 25.527344 C 38.980469 25.46875 39.132812 25.367188 39.34375 25.222656 C 39.671875 24.996094 40.441406 24.488281 40.441406 24.488281 C 41.183594 24.777344 41.355469 24.855469 40.808594 25.234375 M 42.011719 22.917969 C 42.011719 22.917969 41.585938 22.273438 41.949219 22.015625 C 42.3125 21.753906 42.605469 21.554688 42.605469 21.554688 C 42.605469 21.554688 42.625 22.054688 42.855469 22.363281 Z M 45.070312 22.242188 C 44.644531 22.183594 44.222656 22.125 43.792969 22.066406 C 44.710938 21.417969 45.757812 20.691406 46.113281 20.433594 C 46.523438 20.132812 47.269531 19.644531 48.148438 19.242188 C 49.027344 18.839844 50.039062 18.519531 50.960938 18.523438 C 51.164062 18.527344 51.429688 18.554688 51.558594 18.574219 C 51.683594 18.59375 51.742188 18.660156 51.277344 18.695312 C 49.382812 18.875 46.03125 21.488281 45.070312 22.242188 "/>
</g>
</svg>
