<?xml version="1.0" encoding="UTF-8"?>
<svg xmlns="http://www.w3.org/2000/svg" xmlns:xlink="http://www.w3.org/1999/xlink" width="56pt" height="56pt" viewBox="0 0 56 56" version="1.1">
<g id="surface1">
<rect x="0" y="0" width="56" height="56" style="fill:rgb(95.66803%,95.779419%,96.777344%);fill-opacity:1;stroke:none;"/>
<path style=" stroke:none;fill-rule:nonzero;fill:rgb(94.389343%,93.711853%,11.31897%);fill-opacity:1;" d="M 26.992188 29.113281 C 26.972656 29.132812 26.953125 29.132812 26.953125 29.148438 C 26.953125 29.132812 26.972656 29.113281 26.992188 29.113281 "/>
<path style=" stroke:none;fill-rule:nonzero;fill:rgb(28.865051%,39.033508%,66.984558%);fill-opacity:1;" d="M 27.238281 30.617188 C 27.828125 30.183594 28.050781 29.53125 28.105469 28.089844 C 28.160156 26.523438 28.011719 25.867188 27.449219 25.257812 C 27.058594 24.832031 26.980469 24.800781 26.15625 24.753906 C 25.308594 24.707031 24.84375 24.800781 24.664062 24.980469 C 24.480469 25.164062 24.519531 25.460938 24.519531 25.460938 L 24.519531 27.878906 C 24.519531 30.550781 24.492188 30.460938 25.355469 30.78125 C 25.949219 31.003906 26.816406 30.925781 27.238281 30.617188 Z M 26.003906 33.273438 C 25.691406 33.1875 25.1875 32.972656 24.882812 32.792969 L 24.332031 32.472656 L 24.109375 32.769531 C 23.902344 33.046875 23.804688 33.070312 22.710938 33.070312 L 21.53125 33.070312 L 21.53125 17.796875 L 22.003906 17.722656 C 22.585938 17.628906 23.695312 17.796875 23.960938 18.015625 C 24.449219 18.417969 24.519531 18.808594 24.519531 21.054688 C 24.519531 22.257812 24.550781 23.238281 24.59375 23.238281 C 24.632812 23.238281 24.816406 23.136719 24.996094 23.007812 C 25.585938 22.597656 26.234375 22.460938 27.363281 22.515625 C 28.617188 22.574219 29.347656 22.867188 30.050781 23.59375 C 31.09375 24.664062 31.363281 25.550781 31.359375 27.867188 C 31.355469 29.296875 31.316406 29.640625 31.054688 30.375 C 30.691406 31.40625 30.210938 32.03125 29.59375 32.574219 C 28.972656 33.117188 28.507812 33.171875 28.066406 33.242188 C 27.433594 33.34375 26.769531 33.476562 26.003906 33.273438 Z M 17.417969 26.109375 C 17.289062 25.304688 17.128906 25.027344 16.65625 24.78125 C 16.089844 24.488281 15.039062 24.597656 14.609375 24.992188 C 14.234375 25.339844 13.945312 25.957031 13.945312 26.40625 L 13.945312 26.722656 L 17.515625 26.722656 Z M 14.433594 33.222656 C 12.910156 32.808594 12.03125 32.042969 11.292969 30.480469 C 10.902344 29.664062 10.851562 27.96875 10.832031 27.792969 C 10.808594 27.617188 10.90625 26.011719 11.257812 25.296875 C 12.171875 23.4375 13.71875 22.496094 15.871094 22.496094 C 17.070312 22.492188 17.53125 22.609375 18.425781 23.144531 C 19.699219 23.90625 20.289062 25.210938 20.289062 27.269531 L 20.289062 28.464844 L 13.914062 28.464844 L 14.003906 28.925781 C 14.109375 29.488281 14.457031 30.195312 14.773438 30.480469 C 15.710938 31.328125 17.644531 31.246094 18.828125 30.3125 C 19.085938 30.109375 19.351562 29.980469 19.421875 30.023438 C 19.65625 30.167969 20.164062 31.316406 20.164062 31.707031 C 20.164062 32.21875 19.628906 32.71875 18.695312 33.078125 C 17.707031 33.460938 15.582031 33.53125 14.433594 33.222656 Z M 5.363281 33.25 C 3.390625 32.699219 2.125 31.132812 1.875 28.941406 C 1.425781 25.003906 3.488281 22.5 7.179688 22.496094 C 9.164062 22.492188 10.710938 23.277344 10.710938 24.292969 C 10.710938 24.777344 10.429688 25.496094 10.152344 25.726562 C 10.03125 25.824219 9.796875 25.742188 9.230469 25.40625 C 7.710938 24.5 6.117188 24.71875 5.402344 25.933594 C 5.070312 26.5 5 27.277344 5.054688 27.90625 C 5.054688 27.90625 5.210938 29.910156 5.816406 30.46875 C 6.238281 30.859375 6.839844 31.078125 7.492188 31.078125 C 8.085938 31.078125 9.15625 30.679688 9.542969 30.320312 C 9.90625 29.972656 10.082031 30.097656 10.453125 30.96875 C 10.90625 32.023438 10.699219 32.425781 9.398438 33.023438 C 8.769531 33.3125 8.460938 33.367188 7.351562 33.402344 C 6.449219 33.425781 5.832031 33.382812 5.363281 33.25 "/>
<path style=" stroke:none;fill-rule:nonzero;fill:rgb(23.054504%,54.759216%,44.035339%);fill-opacity:1;" d="M 50.097656 31.109375 C 51.175781 30.328125 51.425781 27.074219 50.492188 25.964844 C 49.707031 25.03125 48.457031 25.035156 47.640625 25.976562 C 47.191406 26.496094 47.050781 27.085938 47.054688 28.425781 C 47.058594 29.515625 47.097656 29.761719 47.367188 30.292969 C 47.917969 31.371094 49.203125 31.757812 50.097656 31.109375 Z M 47.609375 33.667969 C 46.078125 33.320312 44.804688 32.21875 44.25 30.761719 C 43.902344 29.847656 43.773438 27.902344 44 26.882812 C 44.199219 25.96875 44.8125 24.8125 45.414062 24.207031 C 45.679688 23.941406 46.265625 23.550781 46.722656 23.335938 C 47.519531 22.957031 48.390625 22.875 48.898438 22.878906 C 49.382812 22.878906 50.839844 22.96875 51.484375 23.273438 C 53.410156 24.175781 54.355469 26.136719 54.164062 28.84375 C 53.941406 31.941406 52.289062 33.636719 49.351562 33.773438 C 48.757812 33.800781 47.996094 33.757812 47.609375 33.667969 Z M 39.203125 31.046875 L 39.523438 30.835938 L 39.523438 25.746094 L 39.003906 25.480469 C 37.882812 24.910156 36.585938 25.460938 36.222656 26.667969 C 35.84375 27.933594 36.066406 30.105469 36.644531 30.765625 C 37.15625 31.351562 38.511719 31.5 39.203125 31.046875 Z M 34.507812 38.011719 C 34.039062 37.851562 33.515625 37.582031 33.34375 37.40625 C 32.832031 36.898438 32.945312 36.109375 33.660156 35.207031 L 33.898438 34.90625 L 34.503906 35.289062 C 35.214844 35.738281 36.253906 36.070312 36.964844 36.066406 C 38.617188 36.066406 39.523438 35.128906 39.523438 33.421875 L 39.523438 32.832031 L 38.871094 33.175781 C 38.289062 33.480469 38.089844 33.519531 37.035156 33.515625 C 36.074219 33.511719 35.734375 33.457031 35.203125 33.21875 C 33.65625 32.53125 32.804688 30.804688 32.804688 28.355469 C 32.804688 26.621094 33.328125 24.917969 34.125 24.0625 C 34.601562 23.613281 34.605469 23.613281 35.167969 23.320312 C 35.710938 23.035156 36.066406 22.949219 36.863281 22.90625 C 37.96875 22.84375 38.507812 22.96875 39.210938 23.449219 L 39.660156 23.75 L 40.007812 23.492188 C 40.484375 23.140625 41.203125 22.992188 41.988281 23.082031 L 42.652344 23.160156 L 42.601562 28.710938 C 42.546875 34.601562 42.527344 34.820312 41.914062 36.019531 C 41.054688 37.699219 39.738281 38.308594 36.980469 38.304688 C 35.613281 38.300781 35.222656 38.257812 34.507812 38.011719 "/>
</g>
</svg>
