<?xml version="1.0" encoding="UTF-8"?>
<svg xmlns="http://www.w3.org/2000/svg" xmlns:xlink="http://www.w3.org/1999/xlink" width="56pt" height="56pt" viewBox="0 0 56 56" version="1.1">
<g id="surface1">
<rect x="0" y="0" width="56" height="56" style="fill:rgb(95.66803%,95.779419%,96.777344%);fill-opacity:1;stroke:none;"/>
<path style=" stroke:none;fill-rule:nonzero;fill:rgb(25.869751%,15.409851%,43.161011%);fill-opacity:1;" d="M 15.371094 14.65625 C 15.371094 14.65625 15.199219 20.898438 23.546875 22.105469 C 23.546875 22.105469 12.75 25.933594 17.164062 36.042969 C 17.164062 36.042969 4.195312 24.832031 15.371094 14.65625 "/>
<path style=" stroke:none;fill-rule:nonzero;fill:rgb(25.869751%,15.409851%,43.161011%);fill-opacity:1;" d="M 44.949219 19.8125 C 44.949219 19.8125 38.429688 6.671875 25.183594 8.429688 C 25.183594 8.429688 19.828125 8.96875 17.578125 12.804688 C 17.015625 13.757812 16.820312 14.890625 17.078125 15.96875 C 17.382812 17.246094 18.355469 18.675781 21.191406 18.59375 C 21.265625 18.59375 21.339844 18.589844 21.414062 18.589844 C 21.820312 18.585938 23.75 18.394531 25.648438 15.171875 C 25.648438 15.171875 30.167969 7.757812 44.949219 19.8125 "/>
<path style=" stroke:none;fill-rule:nonzero;fill:rgb(11.398315%,15.338135%,21.507263%);fill-opacity:1;" d="M 30.789062 18.554688 C 30.789062 19.640625 29.910156 20.519531 28.824219 20.519531 C 27.738281 20.519531 26.855469 19.640625 26.855469 18.554688 C 26.855469 17.46875 27.738281 16.589844 28.824219 16.589844 C 29.910156 16.589844 30.789062 17.46875 30.789062 18.554688 "/>
<path style=" stroke:none;fill-rule:nonzero;fill:rgb(47.396851%,25.184631%,64.250183%);fill-opacity:1;" d="M 24.941406 22.605469 C 24.941406 22.605469 29.355469 23.398438 27.53125 31.296875 C 27.53125 31.296875 21.992188 33.730469 17.472656 31.796875 C 17.472656 31.796875 16.714844 25.796875 24.941406 22.605469 "/>
<path style=" stroke:none;fill-rule:nonzero;fill:rgb(54.125977%,81.50177%,39.63623%);fill-opacity:1;" d="M 28.703125 23.78125 C 28.703125 23.78125 33.632812 28.816406 31.980469 37.714844 C 30.324219 46.613281 22.21875 46.992188 21.597656 46.957031 C 21.597656 46.957031 32.304688 40.75 28.703125 23.78125 "/>
<path style=" stroke:none;fill-rule:nonzero;fill:rgb(93.566895%,27.389526%,14.678955%);fill-opacity:1;" d="M 31.011719 21.433594 C 31.011719 21.433594 38.117188 27.609375 38.222656 34.953125 C 38.324219 42.300781 31.960938 47.054688 30.640625 47.730469 C 30.640625 47.730469 39.117188 36.886719 31.011719 21.433594 "/>
<path style=" stroke:none;fill-rule:nonzero;fill:rgb(98.374939%,75.65918%,5.606079%);fill-opacity:1;" d="M 31.394531 18.398438 C 31.394531 18.398438 40.085938 21.089844 42.738281 29.78125 C 42.738281 29.78125 44.808594 35.957031 39.429688 44.542969 C 39.429688 44.542969 43.292969 29.589844 31.394531 18.398438 "/>
<path style=" stroke:none;fill-rule:nonzero;fill:rgb(43.16864%,81.240845%,87.278748%);fill-opacity:1;" d="M 29.324219 15.433594 C 29.324219 15.433594 47.363281 13.429688 44.949219 31.546875 C 44.949219 31.546875 43.292969 19.984375 29.324219 15.433594 "/>
</g>
</svg>
