<?xml version="1.0" encoding="UTF-8"?>
<svg xmlns="http://www.w3.org/2000/svg" xmlns:xlink="http://www.w3.org/1999/xlink" width="56pt" height="56pt" viewBox="0 0 56 56" version="1.1">
<g id="surface1">
<rect x="0" y="0" width="56" height="56" style="fill:rgb(25.022888%,58.908081%,82.894897%);fill-opacity:1;stroke:none;"/>
<path style=" stroke:none;fill-rule:nonzero;fill:rgb(100%,100%,100%);fill-opacity:1;" d="M 21.042969 23.273438 C 21.175781 20.96875 21.886719 19.140625 23.152344 17.804688 C 24.421875 16.464844 26.199219 15.785156 28.445312 15.796875 C 30.65625 15.796875 32.308594 16.421875 33.371094 17.707031 C 34.445312 18.980469 35.023438 20.832031 35.082031 23.273438 Z M 46.511719 26.101562 C 46.511719 20.386719 45.089844 15.988281 42.207031 12.921875 C 39.339844 9.851562 35.066406 8.316406 29.359375 8.320312 C 23.085938 8.320312 18.210938 10.128906 14.71875 13.753906 C 11.230469 17.375 9.488281 22.222656 9.488281 28.296875 C 9.488281 34.503906 11.363281 39.277344 15.097656 42.644531 C 18.839844 46 24.226562 47.667969 31.238281 47.679688 C 33.160156 47.679688 34.789062 47.574219 36.121094 47.398438 C 37.460938 47.210938 38.757812 46.949219 40.015625 46.621094 C 41.382812 46.289062 42.46875 45.957031 43.242188 45.644531 C 44.027344 45.324219 44.894531 44.972656 45.839844 44.597656 L 45.839844 35.023438 L 44.613281 35.023438 C 44.105469 35.398438 43.460938 35.824219 42.640625 36.3125 C 41.835938 36.796875 40.960938 37.246094 40.007812 37.671875 C 38.921875 38.15625 37.738281 38.546875 36.425781 38.847656 C 35.121094 39.144531 33.808594 39.289062 32.449219 39.292969 C 30.878906 39.292969 29.4375 39.144531 28.105469 38.847656 C 26.777344 38.546875 25.621094 38.042969 24.625 37.371094 C 23.605469 36.683594 22.792969 35.761719 22.171875 34.601562 C 21.550781 33.441406 21.199219 31.984375 21.078125 30.273438 L 46.511719 30.273438 L 46.511719 26.101562 "/>
</g>
</svg>
