<?xml version="1.0" encoding="UTF-8"?>
<svg xmlns="http://www.w3.org/2000/svg" xmlns:xlink="http://www.w3.org/1999/xlink" width="56pt" height="56pt" viewBox="0 0 56 56" version="1.1">
<g id="surface1">
<rect x="0" y="0" width="56" height="56" style="fill:rgb(18.104553%,34.611511%,68.286133%);fill-opacity:1;stroke:none;"/>
<path style=" stroke:none;fill-rule:nonzero;fill:rgb(100%,100%,100%);fill-opacity:1;" d="M 8.210938 31.46875 C 8.417969 31.515625 8.605469 31.585938 8.796875 31.601562 C 9.851562 31.6875 10.910156 31.761719 11.964844 31.835938 C 13.132812 31.917969 14.296875 32 15.460938 32.082031 C 16.910156 32.183594 18.363281 32.285156 19.8125 32.382812 C 21.148438 32.472656 22.289062 31.988281 23.238281 31.089844 C 24.15625 30.226562 24.617188 29.042969 25.269531 27.988281 C 25.359375 27.839844 25.277344 27.71875 25.105469 27.640625 C 25.03125 27.671875 24.949219 27.703125 24.871094 27.742188 C 23.699219 28.332031 22.539062 28.945312 21.359375 29.511719 C 19.417969 30.441406 17.53125 30.316406 15.738281 29.125 C 15.480469 28.957031 15.285156 28.917969 14.996094 29.015625 C 13.925781 29.371094 12.84375 29.699219 11.769531 30.039062 C 10.707031 30.378906 9.652344 30.722656 8.59375 31.058594 C 8.421875 31.113281 8.234375 31.140625 8.210938 31.46875 Z M 47.898438 31.316406 C 47.671875 31.203125 47.53125 31.109375 47.375 31.054688 C 46.371094 30.726562 45.359375 30.40625 44.351562 30.085938 C 43.191406 29.714844 42.027344 29.347656 40.867188 28.972656 C 40.695312 28.917969 40.5625 28.917969 40.417969 29.035156 C 39.648438 29.636719 38.765625 29.953125 37.796875 30.058594 C 37.054688 30.140625 36.3125 30.15625 35.613281 29.886719 C 34.847656 29.59375 34.105469 29.21875 33.363281 28.859375 C 32.617188 28.5 31.882812 28.125 31.148438 27.75 C 30.945312 27.648438 30.773438 27.601562 30.671875 27.90625 C 31.085938 28.601562 31.523438 29.304688 31.925781 30.027344 C 32.386719 30.859375 33.074219 31.429688 33.890625 31.890625 C 34.921875 32.464844 36.03125 32.433594 37.148438 32.355469 C 38.347656 32.269531 39.546875 32.15625 40.746094 32.066406 C 41.464844 32.011719 42.179688 31.980469 42.898438 31.929688 C 44.277344 31.832031 45.65625 31.722656 47.03125 31.617188 C 47.296875 31.597656 47.566406 31.589844 47.898438 31.316406 Z M 16.894531 27.640625 C 17.617188 27.402344 18.28125 27.179688 18.945312 26.96875 C 20.210938 26.566406 21.480469 26.171875 22.75 25.773438 C 23.347656 25.585938 23.945312 25.394531 24.546875 25.207031 C 24.648438 25.175781 24.761719 25.15625 24.851562 25.101562 C 24.992188 25.015625 25.25 25.074219 25.253906 24.816406 C 25.253906 24.519531 24.972656 24.566406 24.8125 24.511719 C 24.40625 24.371094 23.984375 24.273438 23.566406 24.164062 C 22.078125 23.761719 20.585938 23.355469 19.09375 22.957031 C 17.585938 22.554688 16.078125 22.160156 14.570312 21.753906 C 13.40625 21.441406 12.25 21.109375 11.089844 20.792969 C 9.375 20.328125 7.660156 19.867188 5.945312 19.40625 C 5.457031 19.273438 4.976562 19.132812 4.488281 19.015625 C 4.292969 18.96875 4.082031 18.984375 3.898438 18.972656 C 3.808594 19.222656 3.929688 19.300781 4.050781 19.390625 C 5 20.101562 5.949219 20.816406 6.894531 21.53125 C 9.527344 23.511719 12.15625 25.492188 14.789062 27.46875 C 15.363281 27.898438 15.917969 28.367188 16.539062 28.71875 C 17.960938 29.523438 19.4375 29.601562 20.921875 28.863281 C 22.402344 28.128906 23.882812 27.390625 25.363281 26.660156 C 25.71875 26.484375 26.082031 26.320312 26.449219 26.171875 C 26.914062 25.980469 27.167969 26.152344 27.199219 26.660156 C 27.238281 27.394531 27.273438 28.128906 27.308594 28.863281 C 27.382812 30.425781 27.453125 31.988281 27.53125 33.550781 C 27.601562 35.042969 27.671875 36.535156 27.746094 38.027344 C 27.753906 38.183594 27.777344 38.347656 27.828125 38.5 C 27.847656 38.566406 27.953125 38.644531 28.015625 38.644531 C 28.085938 38.640625 28.1875 38.570312 28.214844 38.5 C 28.257812 38.390625 28.261719 38.257812 28.265625 38.132812 C 28.3125 36.964844 28.351562 35.792969 28.398438 34.625 C 28.433594 33.816406 28.46875 33.007812 28.507812 32.199219 C 28.578125 30.671875 28.648438 29.144531 28.726562 27.617188 C 28.742188 27.277344 28.78125 26.9375 28.824219 26.597656 C 28.878906 26.128906 29.144531 25.976562 29.582031 26.179688 C 30.496094 26.601562 31.40625 27.035156 32.308594 27.476562 C 33.296875 27.960938 34.277344 28.453125 35.261719 28.945312 C 36.132812 29.378906 37.050781 29.433594 37.992188 29.269531 C 38.828125 29.125 39.554688 28.761719 40.222656 28.242188 C 41.804688 27.027344 43.398438 25.820312 44.992188 24.621094 C 47.265625 22.910156 49.539062 21.207031 51.808594 19.5 C 51.949219 19.394531 52.0625 19.261719 52.191406 19.136719 C 52.007812 18.847656 51.773438 18.953125 51.585938 19 C 50.679688 19.230469 49.78125 19.480469 48.878906 19.722656 C 47.648438 20.050781 46.414062 20.378906 45.183594 20.710938 C 44.023438 21.027344 42.867188 21.351562 41.707031 21.667969 C 40.199219 22.074219 38.6875 22.46875 37.179688 22.875 C 36.035156 23.183594 34.898438 23.507812 33.753906 23.820312 C 32.90625 24.050781 32.050781 24.261719 31.207031 24.507812 C 31.042969 24.554688 30.761719 24.515625 30.757812 24.800781 C 30.75 25.089844 31.035156 25.058594 31.195312 25.109375 C 33.367188 25.8125 35.542969 26.492188 37.71875 27.179688 C 38.164062 27.320312 38.605469 27.464844 39.113281 27.628906 C 38.664062 28.019531 38.25 28.171875 37.710938 27.996094 C 35.714844 27.351562 33.707031 26.726562 31.707031 26.09375 C 30.984375 25.867188 30.265625 25.644531 29.546875 25.414062 C 29.445312 25.382812 29.347656 25.335938 29.253906 25.28125 C 29.039062 25.160156 28.886719 25.011719 28.914062 24.726562 C 28.945312 24.441406 29.117188 24.324219 29.355469 24.246094 C 29.648438 24.15625 29.933594 24.046875 30.226562 23.96875 C 31.789062 23.546875 33.351562 23.136719 34.914062 22.71875 C 36.90625 22.183594 38.902344 21.648438 40.894531 21.109375 C 42.074219 20.792969 43.246094 20.460938 44.425781 20.140625 C 45.882812 19.746094 47.335938 19.355469 48.792969 18.964844 C 49.765625 18.703125 50.730469 18.425781 51.707031 18.183594 C 52.121094 18.082031 52.550781 18.019531 52.976562 17.988281 C 53.660156 17.9375 53.867188 18.589844 53.507812 19.003906 C 53.195312 19.367188 52.832031 19.703125 52.449219 19.992188 C 49.621094 22.128906 46.785156 24.25 43.953125 26.375 C 43.304688 26.859375 42.65625 27.34375 42.011719 27.835938 C 41.859375 27.949219 41.722656 28.085938 41.507812 28.269531 C 41.691406 28.371094 41.796875 28.457031 41.917969 28.496094 C 43.25 28.929688 44.585938 29.351562 45.917969 29.78125 C 46.808594 30.066406 47.699219 30.347656 48.582031 30.652344 C 48.796875 30.722656 49.011719 30.84375 49.1875 30.988281 C 49.589844 31.324219 49.566406 31.753906 49.105469 32 C 48.847656 32.140625 48.535156 32.222656 48.238281 32.253906 C 47.199219 32.347656 46.15625 32.402344 45.117188 32.484375 C 43.9375 32.582031 42.757812 32.691406 41.574219 32.789062 C 41.019531 32.832031 40.460938 32.855469 39.90625 32.890625 C 38.667969 32.972656 37.429688 33.082031 36.191406 33.140625 C 34.351562 33.222656 32.863281 32.496094 31.714844 31.082031 C 31.367188 30.65625 31.117188 30.144531 30.828125 29.667969 C 30.546875 29.207031 30.28125 28.738281 30 28.277344 C 29.925781 28.160156 29.828125 28.0625 29.75 27.96875 C 29.5 28.023438 29.46875 28.171875 29.464844 28.34375 C 29.429688 29.171875 29.398438 30 29.355469 30.824219 C 29.296875 31.972656 29.222656 33.121094 29.15625 34.269531 C 29.152344 34.359375 29.152344 34.449219 29.148438 34.539062 C 29.078125 35.992188 29.007812 37.449219 28.9375 38.90625 C 28.933594 38.976562 28.9375 39.046875 28.933594 39.121094 C 28.886719 40.359375 28.835938 41.601562 28.785156 42.84375 C 28.753906 43.597656 28.726562 44.351562 28.6875 45.105469 C 28.625 46.382812 28.558594 47.65625 28.484375 48.933594 C 28.476562 49.074219 28.433594 49.214844 28.386719 49.351562 C 28.328125 49.523438 28.242188 49.691406 28.015625 49.679688 C 27.789062 49.667969 27.652344 49.550781 27.613281 49.320312 C 27.59375 49.175781 27.542969 49.039062 27.535156 48.894531 C 27.488281 48.035156 27.453125 47.171875 27.40625 46.308594 C 27.34375 45.160156 27.265625 44.011719 27.214844 42.863281 C 27.15625 41.601562 27.125 40.34375 27.070312 39.082031 C 27.007812 37.535156 26.929688 35.992188 26.855469 34.449219 C 26.785156 32.992188 26.714844 31.539062 26.640625 30.082031 C 26.609375 29.492188 26.582031 28.898438 26.53125 28.308594 C 26.523438 28.203125 26.421875 28.109375 26.359375 28.007812 C 26.265625 28.070312 26.136719 28.109375 26.082031 28.199219 C 25.589844 28.992188 25.128906 29.808594 24.621094 30.59375 C 23.554688 32.265625 22.023438 33.152344 20.03125 33.136719 C 19.007812 33.128906 17.984375 33.007812 16.964844 32.933594 C 16.460938 32.902344 15.960938 32.851562 15.457031 32.820312 C 14.203125 32.738281 12.945312 32.671875 11.6875 32.582031 C 10.378906 32.484375 9.074219 32.375 7.765625 32.253906 C 7.488281 32.226562 7.191406 32.152344 6.945312 32.023438 C 6.464844 31.777344 6.433594 31.226562 6.890625 30.9375 C 7.21875 30.726562 7.59375 30.570312 7.964844 30.449219 C 9.898438 29.828125 11.835938 29.222656 13.769531 28.613281 C 13.890625 28.574219 14.007812 28.535156 14.125 28.488281 C 14.46875 28.355469 14.5 28.242188 14.226562 28.015625 C 13.90625 27.75 13.574219 27.507812 13.242188 27.257812 C 9.996094 24.816406 6.742188 22.375 3.496094 19.925781 C 3.210938 19.710938 2.921875 19.488281 2.675781 19.230469 C 2.457031 19.003906 2.21875 18.734375 2.363281 18.371094 C 2.523438 17.984375 2.882812 17.929688 3.230469 17.992188 C 3.847656 18.097656 4.460938 18.230469 5.066406 18.386719 C 6.320312 18.710938 7.566406 19.054688 8.8125 19.394531 C 10.269531 19.789062 11.722656 20.1875 13.179688 20.582031 C 14.375 20.90625 15.570312 21.226562 16.765625 21.550781 C 17.699219 21.804688 18.632812 22.066406 19.570312 22.3125 C 20.820312 22.644531 22.070312 22.964844 23.320312 23.300781 C 24.359375 23.582031 25.394531 23.875 26.433594 24.167969 C 26.550781 24.203125 26.664062 24.269531 26.78125 24.3125 C 26.988281 24.398438 27.089844 24.542969 27.082031 24.773438 C 27.074219 24.988281 27 25.164062 26.796875 25.253906 C 26.617188 25.335938 26.429688 25.402344 26.242188 25.460938 C 23.8125 26.234375 21.382812 27.007812 18.953125 27.777344 C 18.765625 27.839844 18.5625 27.871094 18.386719 27.953125 C 17.835938 28.21875 17.390625 28.03125 16.894531 27.640625 "/>
<path style=" stroke:none;fill-rule:nonzero;fill:rgb(100%,100%,100%);fill-opacity:1;" d="M 29.5625 23.230469 C 29.308594 23.328125 29.097656 23.410156 28.871094 23.496094 C 28.753906 23.171875 28.648438 22.871094 28.527344 22.578125 C 28.425781 22.339844 28.289062 22.09375 28.003906 22.097656 C 27.695312 22.101562 27.554688 22.382812 27.441406 22.621094 C 27.3125 22.890625 27.242188 23.191406 27.136719 23.503906 C 26.917969 23.414062 26.707031 23.332031 26.476562 23.238281 C 26.539062 22.707031 26.726562 22.230469 27.039062 21.808594 C 27.535156 21.140625 28.507812 21.179688 28.96875 21.820312 C 29.269531 22.242188 29.414062 22.710938 29.5625 23.230469 "/>
</g>
</svg>
