<?xml version="1.0" encoding="UTF-8"?>
<svg xmlns="http://www.w3.org/2000/svg" xmlns:xlink="http://www.w3.org/1999/xlink" width="56pt" height="56pt" viewBox="0 0 56 56" version="1.1">
<g id="surface1">
<rect x="0" y="0" width="56" height="56" style="fill:rgb(45.703125%,78.726196%,17.1875%);fill-opacity:1;stroke:none;"/>
<path style=" stroke:none;fill-rule:nonzero;fill:rgb(100%,100%,100%);fill-opacity:1;" d="M 43.980469 8.261719 C 43.707031 5.558594 40.820312 4.566406 37.636719 5.925781 C 36.128906 6.570312 34.804688 7.65625 33.867188 8.886719 C 34.015625 7.65625 33.664062 6.570312 32.78125 5.925781 C 31.035156 4.65625 27.855469 5.59375 25.683594 7.949219 C 24.933594 8.777344 22.46875 11.753906 22.339844 16.132812 C 22.285156 18.246094 23.222656 22.933594 26.3125 26.171875 C 34.546875 23.0625 38.980469 18.300781 40.671875 16.332031 C 42.621094 14.050781 43.449219 12.046875 43.796875 10.578125 C 44.054688 9.417969 44.019531 8.59375 43.980469 8.261719 Z M 23.203125 27.972656 C 22.082031 29.847656 19.011719 32.863281 16.585938 34.425781 C 11.527344 37.660156 7.886719 37.882812 6.066406 36.722656 C 5.84375 36.59375 5.660156 36.429688 5.496094 36.265625 C 4.082031 34.777344 4.320312 32.128906 5.976562 29.957031 C 6.78125 28.890625 7.832031 28.136719 8.84375 27.789062 C 8.050781 27.421875 7.519531 26.648438 7.410156 25.5625 C 7.1875 23.394531 8.824219 20.542969 11.085938 19.386719 C 13.070312 18.375 17.355469 17.363281 20.5 22.050781 C 21.730469 23.871094 22.835938 26.464844 23.203125 27.972656 Z M 51.152344 30.953125 C 50.214844 33.96875 47.089844 36.796875 43.339844 37.386719 C 43.945312 38.324219 44.21875 39.480469 44.074219 40.769531 C 43.667969 44.265625 40.324219 47.078125 36.734375 47.113281 C 34.308594 47.132812 31.019531 46.082031 28.703125 42.425781 C 26.625 39.167969 26.328125 34.003906 26.476562 32.441406 C 23.9375 35.03125 22.355469 37.550781 21.601562 39.296875 C 19.910156 43.253906 19.269531 48.070312 19.304688 50.332031 C 19.304688 50.332031 18.992188 50.625 18.699219 50.679688 C 17.761719 50.515625 16.953125 50.167969 16.34375 49.632812 C 15.609375 48.96875 15.445312 48.34375 15.445312 48.34375 C 16.566406 42.738281 18.347656 39.242188 21.015625 35.253906 C 24.601562 29.867188 30.136719 26.539062 36.699219 24.535156 C 41.445312 23.082031 46.371094 22.769531 49.753906 25.636719 C 51.574219 27.144531 51.683594 29.316406 51.152344 30.953125 "/>
<path style=" stroke:none;fill-rule:nonzero;fill:rgb(25.083923%,71.377563%,23.649597%);fill-opacity:1;" d="M 40.671875 16.332031 C 42.621094 14.050781 43.449219 12.046875 43.796875 10.578125 C 43.816406 10.503906 43.835938 10.429688 43.851562 10.339844 C 43.449219 11.976562 39.992188 16.203125 35.210938 19.808594 C 30.246094 23.539062 27.414062 25.417969 26.328125 26.152344 C 34.546875 23.0625 38.980469 18.300781 40.671875 16.332031 "/>
<path style=" stroke:none;fill-rule:nonzero;fill:rgb(25.083923%,71.377563%,23.649597%);fill-opacity:1;" d="M 16.585938 34.40625 C 19.011719 32.84375 22.082031 29.828125 23.203125 27.953125 C 21.035156 30.015625 17.835938 33.085938 12.335938 35.511719 C 9.613281 36.667969 6.949219 37.109375 6.066406 36.6875 C 7.886719 37.863281 11.527344 37.644531 16.585938 34.40625 "/>
<path style=" stroke:none;fill-rule:nonzero;fill:rgb(25.083923%,71.377563%,23.649597%);fill-opacity:1;" d="M 51.152344 30.953125 C 51.28125 30.546875 51.371094 30.125 51.410156 29.683594 C 51.152344 31.429688 49.976562 33.542969 48.101562 34.703125 C 46.445312 35.730469 44.53125 36.410156 42.363281 36.226562 C 42.714844 36.558594 42.988281 36.835938 43.339844 37.367188 C 47.089844 36.796875 50.214844 33.96875 51.152344 30.953125 "/>
<path style=" stroke:none;fill-rule:nonzero;fill:rgb(94.389343%,93.711853%,11.31897%);fill-opacity:1;" d="M 26.992188 29.113281 C 26.972656 29.132812 26.953125 29.132812 26.953125 29.148438 C 26.953125 29.132812 26.972656 29.113281 26.992188 29.113281 "/>
<path style=" stroke:none;fill-rule:nonzero;fill:rgb(25.083923%,71.377563%,23.649597%);fill-opacity:1;" d="M 26.953125 29.132812 C 21.050781 33.359375 19.046875 40.972656 18.71875 50.664062 C 19.011719 50.605469 19.324219 50.3125 19.324219 50.3125 C 19.285156 48.050781 19.929688 43.253906 21.621094 39.28125 C 22.375 37.535156 23.957031 35.015625 26.496094 32.421875 C 26.679688 30.695312 26.882812 29.683594 27.011719 29.113281 C 26.972656 29.113281 26.953125 29.132812 26.953125 29.132812 "/>
</g>
</svg>
