<?xml version="1.0" encoding="UTF-8"?>
<svg xmlns="http://www.w3.org/2000/svg" xmlns:xlink="http://www.w3.org/1999/xlink" width="56pt" height="56pt" viewBox="0 0 56 56" version="1.1">
<g id="surface1">
<rect x="0" y="0" width="56" height="56" style="fill:rgb(17.393494%,37.466431%,69.869995%);fill-opacity:1;stroke:none;"/>
<path style=" stroke:none;fill-rule:nonzero;fill:rgb(100%,100%,100%);fill-opacity:1;" d="M 45.21875 30.71875 C 44.871094 30.667969 42.402344 30.308594 37.722656 29.628906 C 35.125 29.25 34.875 29.140625 33.273438 27.660156 C 31.808594 26.308594 31.554688 26.195312 28.964844 25.734375 C 26.898438 25.367188 19.847656 24.097656 17.589844 23.683594 C 16.445312 23.472656 15.050781 23.21875 14.488281 23.121094 C 10.617188 22.441406 9.40625 22.167969 8.027344 21.675781 C 6.792969 21.234375 5.863281 20.710938 4.890625 19.910156 C 4.355469 19.472656 2.320312 17.425781 2.320312 17.328125 C 2.320312 17.230469 2.367188 17.238281 4.285156 17.667969 C 4.761719 17.777344 5.9375 18.035156 6.894531 18.242188 C 7.847656 18.449219 10.042969 18.929688 11.769531 19.304688 C 13.492188 19.683594 15.601562 20.140625 16.457031 20.328125 C 17.308594 20.511719 18.769531 20.832031 19.707031 21.035156 C 20.640625 21.242188 22.835938 21.722656 24.582031 22.105469 C 26.328125 22.488281 27.949219 22.878906 28.1875 22.972656 C 28.859375 23.246094 29.417969 23.65625 30.457031 24.644531 C 30.984375 25.152344 31.613281 25.695312 31.855469 25.851562 C 32.726562 26.429688 32.78125 26.445312 39.171875 27.582031 C 42.601562 28.195312 43.175781 28.378906 44.199219 29.195312 C 44.65625 29.558594 45.785156 30.65625 45.785156 30.734375 C 45.785156 30.800781 45.761719 30.800781 45.21875 30.71875 Z M 47.789062 34.914062 C 47.121094 34.859375 45.320312 34.726562 43.78125 34.617188 C 42.242188 34.507812 40.78125 34.382812 40.535156 34.339844 C 39.726562 34.195312 39.324219 33.949219 38.113281 32.851562 C 37.183594 32.015625 36.609375 31.773438 35.203125 31.628906 C 34.765625 31.582031 33.472656 31.445312 32.328125 31.320312 C 31.1875 31.199219 29.453125 31.011719 28.472656 30.90625 C 27.496094 30.800781 25.933594 30.632812 24.996094 30.53125 C 24.0625 30.429688 22.480469 30.261719 21.480469 30.15625 C 17.441406 29.726562 16.164062 29.542969 15.128906 29.242188 C 13.925781 28.898438 13.160156 28.503906 12.261719 27.765625 C 11.664062 27.277344 10.132812 25.753906 10.183594 25.703125 C 10.222656 25.664062 11.03125 25.777344 17.25 26.675781 C 19.410156 26.988281 23.917969 27.636719 27.265625 28.117188 C 30.609375 28.59375 33.535156 29.039062 33.765625 29.105469 C 34.441406 29.296875 34.996094 29.640625 35.730469 30.316406 C 36.105469 30.664062 36.621094 31.101562 36.871094 31.285156 C 37.707031 31.902344 37.832031 31.925781 42.535156 32.421875 C 46.46875 32.835938 47.074219 32.917969 47.5625 33.09375 C 48.15625 33.308594 48.800781 33.757812 49.535156 34.457031 L 50.132812 35.023438 L 49.566406 35.019531 C 49.253906 35.015625 48.453125 34.96875 47.789062 34.914062 Z M 44.726562 38.660156 C 43.953125 38.558594 43.144531 38.199219 42.761719 37.78125 C 42.28125 37.261719 41.6875 36.84375 41.226562 36.703125 C 40.703125 36.539062 40.839844 36.546875 31.007812 36.199219 C 22.109375 35.886719 21.648438 35.851562 20.386719 35.433594 C 19.609375 35.175781 19.074219 34.878906 18.371094 34.3125 C 17.652344 33.730469 16.707031 32.785156 16.777344 32.714844 C 16.808594 32.6875 17.621094 32.722656 18.589844 32.789062 C 19.554688 32.859375 20.808594 32.949219 21.367188 32.988281 C 22.261719 33.050781 31.273438 33.699219 33.957031 33.898438 C 34.496094 33.9375 35.703125 34.023438 36.640625 34.089844 C 39.195312 34.269531 39.363281 34.324219 40.578125 35.433594 C 41.832031 36.585938 41.792969 36.574219 45.824219 36.722656 C 50.894531 36.910156 51.058594 36.917969 51.5625 37.074219 C 51.816406 37.152344 52.191406 37.324219 52.394531 37.453125 C 52.851562 37.742188 53.734375 38.578125 53.679688 38.667969 C 53.632812 38.746094 45.332031 38.738281 44.726562 38.660156 "/>
</g>
</svg>
