<?xml version="1.0" encoding="UTF-8"?>
<svg xmlns="http://www.w3.org/2000/svg" xmlns:xlink="http://www.w3.org/1999/xlink" width="56pt" height="56pt" viewBox="0 0 56 56" version="1.1">
<g id="surface1">
<rect x="0" y="0" width="56" height="56" style="fill:rgb(17.349243%,21.052551%,56.666565%);fill-opacity:1;stroke:none;"/>
<path style=" stroke:none;fill-rule:nonzero;fill:rgb(100%,100%,100%);fill-opacity:1;" d="M 46.941406 40.351562 C 46.925781 40.40625 46.917969 40.464844 46.898438 40.515625 C 46.71875 40.925781 46.511719 41.324219 46.273438 41.703125 C 46.167969 41.871094 46.074219 42.046875 45.960938 42.210938 C 45.804688 42.441406 45.640625 42.664062 45.46875 42.890625 C 45.304688 43.105469 45.136719 43.324219 44.960938 43.535156 C 44.847656 43.671875 44.71875 43.796875 44.605469 43.933594 C 44.304688 44.296875 43.953125 44.609375 43.621094 44.941406 C 43.460938 45.105469 43.28125 45.246094 43.105469 45.398438 C 42.957031 45.523438 42.808594 45.652344 42.65625 45.773438 C 42.429688 45.957031 42.203125 46.136719 41.96875 46.3125 C 41.804688 46.4375 41.640625 46.558594 41.472656 46.675781 C 41.277344 46.808594 41.074219 46.9375 40.871094 47.066406 C 40.632812 47.214844 40.386719 47.355469 40.144531 47.5 C 39.730469 47.742188 39.308594 47.964844 38.878906 48.167969 C 38.605469 48.296875 38.339844 48.429688 38.066406 48.554688 C 37.613281 48.757812 37.152344 48.945312 36.683594 49.113281 C 36.382812 49.21875 36.085938 49.34375 35.78125 49.4375 C 35.226562 49.605469 34.675781 49.78125 34.109375 49.917969 C 33.828125 49.984375 33.542969 50.0625 33.261719 50.136719 C 33.074219 50.191406 32.875 50.21875 32.683594 50.257812 C 32.476562 50.300781 32.277344 50.347656 32.074219 50.386719 C 31.976562 50.40625 31.882812 50.40625 31.785156 50.425781 C 31.597656 50.464844 31.402344 50.472656 31.210938 50.503906 C 31.003906 50.539062 30.792969 50.550781 30.585938 50.578125 C 30.421875 50.601562 30.261719 50.582031 30.101562 50.609375 C 29.898438 50.644531 29.6875 50.617188 29.484375 50.644531 C 29.171875 50.691406 28.863281 50.664062 28.550781 50.671875 C 28.347656 50.679688 28.144531 50.6875 27.941406 50.667969 C 27.707031 50.644531 27.46875 50.65625 27.234375 50.632812 C 27.097656 50.617188 26.960938 50.613281 26.824219 50.605469 C 26.734375 50.597656 26.644531 50.582031 26.554688 50.570312 C 26.46875 50.5625 26.386719 50.5625 26.300781 50.542969 C 26.1875 50.515625 26.0625 50.523438 25.945312 50.507812 C 25.78125 50.484375 25.617188 50.464844 25.457031 50.4375 C 25.355469 50.417969 25.253906 50.421875 25.152344 50.398438 C 24.957031 50.355469 24.761719 50.328125 24.566406 50.300781 C 24.351562 50.269531 24.144531 50.222656 23.933594 50.183594 C 23.65625 50.132812 23.382812 50.0625 23.105469 50.003906 C 22.871094 49.957031 22.640625 49.882812 22.402344 49.832031 C 22.210938 49.792969 22.023438 49.722656 21.835938 49.664062 C 21.523438 49.570312 21.207031 49.488281 20.902344 49.382812 C 20.417969 49.214844 19.929688 49.058594 19.453125 48.871094 C 19.085938 48.730469 18.71875 48.578125 18.355469 48.429688 C 17.804688 48.199219 17.269531 47.9375 16.738281 47.671875 C 16.550781 47.578125 16.378906 47.457031 16.199219 47.351562 C 16.113281 47.300781 16.03125 47.25 15.945312 47.207031 C 15.761719 47.109375 15.574219 47.011719 15.386719 46.921875 C 15.054688 46.765625 14.707031 46.652344 14.351562 46.5625 C 14.15625 46.511719 13.957031 46.464844 13.761719 46.425781 C 13.585938 46.394531 13.410156 46.375 13.238281 46.351562 C 13.101562 46.332031 12.96875 46.308594 12.835938 46.277344 C 12.59375 46.226562 12.355469 46.167969 12.113281 46.105469 C 11.820312 46.03125 11.527344 45.957031 11.234375 45.875 C 10.898438 45.78125 10.5625 45.683594 10.230469 45.582031 C 10.007812 45.511719 9.78125 45.429688 9.566406 45.335938 C 9.203125 45.179688 8.828125 45.046875 8.480469 44.859375 C 8.253906 44.738281 8.035156 44.609375 7.816406 44.476562 C 7.511719 44.289062 7.222656 44.078125 6.933594 43.863281 C 6.785156 43.757812 6.648438 43.632812 6.507812 43.519531 C 6.394531 43.421875 6.277344 43.332031 6.160156 43.238281 C 5.992188 43.101562 5.824219 42.964844 5.652344 42.832031 C 5.5 42.714844 5.34375 42.605469 5.1875 42.488281 C 5.199219 42.476562 5.21875 42.453125 5.238281 42.449219 C 5.492188 42.425781 5.730469 42.339844 5.972656 42.261719 C 6.421875 42.113281 6.871094 41.96875 7.316406 41.816406 C 7.628906 41.707031 7.953125 41.628906 8.273438 41.546875 C 8.5 41.488281 8.742188 41.480469 8.976562 41.429688 C 9.125 41.398438 9.277344 41.421875 9.417969 41.394531 C 9.617188 41.355469 9.804688 41.398438 9.996094 41.410156 C 10.21875 41.421875 10.441406 41.480469 10.65625 41.542969 C 11.039062 41.65625 11.394531 41.832031 11.722656 42.0625 C 11.75 42.082031 11.78125 42.097656 11.804688 42.117188 C 12.09375 42.371094 12.417969 42.570312 12.753906 42.75 C 12.96875 42.867188 13.183594 42.984375 13.40625 43.089844 C 13.695312 43.222656 13.992188 43.34375 14.292969 43.460938 C 14.65625 43.601562 15.03125 43.699219 15.40625 43.792969 C 15.578125 43.839844 15.753906 43.84375 15.925781 43.878906 C 16.097656 43.914062 16.269531 43.898438 16.441406 43.917969 C 16.53125 43.929688 16.621094 43.957031 16.710938 43.941406 C 16.933594 43.90625 17.160156 43.933594 17.382812 43.90625 C 17.71875 43.859375 18.050781 43.808594 18.386719 43.746094 C 18.742188 43.679688 19.085938 43.578125 19.433594 43.484375 C 19.664062 43.425781 19.878906 43.324219 20.101562 43.25 C 20.476562 43.121094 20.828125 42.933594 21.183594 42.761719 C 21.4375 42.636719 21.691406 42.511719 21.949219 42.394531 C 22.207031 42.277344 22.46875 42.171875 22.726562 42.058594 C 22.929688 41.96875 23.128906 41.871094 23.332031 41.785156 C 23.570312 41.6875 23.8125 41.59375 24.054688 41.507812 C 24.324219 41.40625 24.59375 41.304688 24.863281 41.21875 C 25.339844 41.066406 25.816406 40.914062 26.296875 40.777344 C 26.515625 40.71875 26.734375 40.664062 26.953125 40.609375 C 27.207031 40.546875 27.464844 40.484375 27.722656 40.425781 C 28.0625 40.347656 28.363281 40.195312 28.617188 39.960938 C 28.769531 39.820312 28.859375 39.621094 28.914062 39.414062 C 28.957031 39.265625 28.972656 39.105469 28.996094 38.949219 C 29.023438 38.769531 29.039062 38.589844 29.015625 38.414062 C 28.96875 38.109375 28.984375 37.804688 28.992188 37.5 C 29 37.316406 29.011719 37.125 29.050781 36.941406 C 29.070312 36.847656 29.070312 36.75 29.089844 36.65625 C 29.121094 36.480469 29.128906 36.304688 29.164062 36.132812 C 29.210938 35.917969 29.273438 35.710938 29.328125 35.496094 C 29.390625 35.238281 29.46875 34.988281 29.5625 34.742188 C 29.71875 34.316406 29.90625 33.902344 30.144531 33.519531 C 30.265625 33.320312 30.417969 33.136719 30.578125 32.964844 C 30.746094 32.785156 30.929688 32.617188 31.121094 32.457031 C 31.269531 32.335938 31.433594 32.234375 31.597656 32.128906 C 31.953125 31.90625 32.351562 31.78125 32.738281 31.628906 C 33.257812 31.421875 33.753906 31.179688 34.246094 30.929688 C 34.789062 30.652344 35.308594 30.339844 35.804688 29.988281 C 36.09375 29.785156 36.386719 29.585938 36.644531 29.339844 C 36.746094 29.238281 36.855469 29.148438 36.964844 29.050781 C 37.058594 28.96875 37.160156 28.890625 37.246094 28.796875 C 37.457031 28.574219 37.65625 28.347656 37.859375 28.121094 C 37.898438 28.082031 37.9375 28.046875 37.96875 28.007812 C 38.113281 27.84375 38.257812 27.679688 38.394531 27.507812 C 38.492188 27.386719 38.585938 27.253906 38.679688 27.128906 C 38.851562 26.894531 39.03125 26.664062 39.195312 26.425781 C 39.421875 26.097656 39.640625 25.769531 39.847656 25.429688 C 40.03125 25.125 40.210938 24.8125 40.351562 24.484375 C 40.496094 24.160156 40.632812 23.835938 40.742188 23.496094 C 40.867188 23.101562 41.011719 22.710938 41.105469 22.308594 C 41.175781 22.019531 41.25 21.730469 41.296875 21.4375 C 41.335938 21.234375 41.355469 21.035156 41.398438 20.835938 C 41.4375 20.648438 41.453125 20.453125 41.476562 20.261719 C 41.488281 20.148438 41.484375 20.035156 41.507812 19.921875 C 41.542969 19.726562 41.515625 19.53125 41.542969 19.339844 C 41.597656 18.945312 41.574219 18.554688 41.566406 18.164062 C 41.558594 17.957031 41.554688 17.75 41.53125 17.542969 C 41.515625 17.425781 41.527344 17.300781 41.496094 17.1875 C 41.46875 17.074219 41.476562 16.953125 41.445312 16.835938 C 41.417969 16.742188 41.410156 16.636719 41.402344 16.535156 C 41.382812 16.34375 41.324219 16.15625 41.300781 15.96875 C 41.28125 15.773438 41.191406 15.589844 41.1875 15.390625 C 41.082031 15.109375 41.027344 14.816406 40.9375 14.535156 C 40.804688 14.109375 40.65625 13.691406 40.480469 13.289062 C 40.304688 12.894531 40.121094 12.507812 39.910156 12.132812 C 39.699219 11.761719 39.484375 11.398438 39.238281 11.050781 C 39.113281 10.875 38.984375 10.703125 38.851562 10.53125 C 38.667969 10.292969 38.46875 10.0625 38.269531 9.832031 C 38.046875 9.578125 37.804688 9.347656 37.566406 9.113281 C 37.371094 8.917969 37.164062 8.734375 36.949219 8.5625 C 36.6875 8.355469 36.421875 8.152344 36.148438 7.957031 C 35.734375 7.65625 35.300781 7.390625 34.867188 7.128906 C 34.433594 6.867188 33.984375 6.640625 33.527344 6.429688 C 33.109375 6.234375 32.691406 6.042969 32.25 5.90625 C 32.050781 5.84375 31.863281 5.75 31.667969 5.6875 C 31.277344 5.566406 30.886719 5.449219 30.488281 5.355469 C 30.46875 5.351562 30.445312 5.347656 30.421875 5.335938 C 30.519531 5.320312 30.609375 5.304688 30.703125 5.34375 C 30.71875 5.347656 30.734375 5.351562 30.753906 5.355469 C 31.050781 5.371094 31.34375 5.441406 31.640625 5.488281 C 32.136719 5.566406 32.613281 5.707031 33.101562 5.8125 C 33.289062 5.851562 33.464844 5.925781 33.648438 5.980469 C 33.882812 6.058594 34.117188 6.125 34.351562 6.207031 C 34.59375 6.292969 34.835938 6.382812 35.074219 6.480469 C 35.402344 6.613281 35.730469 6.746094 36.046875 6.902344 C 36.367188 7.054688 36.6875 7.210938 36.996094 7.386719 C 37.257812 7.53125 37.515625 7.691406 37.773438 7.84375 C 38.113281 8.042969 38.445312 8.261719 38.769531 8.488281 C 38.929688 8.605469 39.09375 8.71875 39.25 8.839844 C 39.472656 9.007812 39.699219 9.175781 39.90625 9.359375 C 40.148438 9.570312 40.402344 9.769531 40.628906 10.003906 C 40.832031 10.210938 41.054688 10.402344 41.261719 10.605469 C 41.449219 10.792969 41.632812 10.984375 41.804688 11.1875 C 41.992188 11.40625 42.160156 11.648438 42.355469 11.863281 C 42.539062 12.074219 42.703125 12.300781 42.867188 12.527344 C 43.011719 12.722656 43.148438 12.925781 43.28125 13.128906 C 43.386719 13.289062 43.480469 13.457031 43.582031 13.621094 C 43.644531 13.722656 43.710938 13.820312 43.765625 13.925781 C 43.933594 14.242188 44.105469 14.554688 44.253906 14.878906 C 44.429688 15.265625 44.601562 15.65625 44.753906 16.058594 C 44.875 16.382812 44.972656 16.71875 45.082031 17.046875 C 45.183594 17.359375 45.261719 17.683594 45.335938 18.007812 C 45.382812 18.21875 45.40625 18.441406 45.445312 18.65625 C 45.476562 18.839844 45.515625 19.019531 45.542969 19.203125 C 45.566406 19.34375 45.570312 19.488281 45.582031 19.628906 C 45.59375 19.730469 45.605469 19.832031 45.617188 19.933594 C 45.628906 20.035156 45.59375 20.140625 45.648438 20.242188 C 45.664062 20.273438 45.652344 20.320312 45.652344 20.363281 C 45.652344 20.804688 45.65625 21.246094 45.648438 21.6875 C 45.648438 21.914062 45.640625 22.148438 45.613281 22.375 C 45.582031 22.625 45.550781 22.878906 45.507812 23.132812 C 45.460938 23.378906 45.425781 23.632812 45.371094 23.878906 C 45.304688 24.175781 45.242188 24.472656 45.160156 24.761719 C 45.066406 25.109375 44.976562 25.457031 44.847656 25.792969 C 44.730469 26.113281 44.621094 26.441406 44.488281 26.757812 C 44.308594 27.183594 44.121094 27.605469 43.90625 28.015625 C 43.761719 28.285156 43.605469 28.550781 43.445312 28.808594 C 43.292969 29.054688 43.136719 29.300781 42.96875 29.535156 C 42.796875 29.777344 42.613281 30.011719 42.429688 30.242188 C 42.269531 30.445312 42.101562 30.640625 41.9375 30.835938 C 41.914062 30.863281 41.890625 30.886719 41.863281 30.910156 C 41.550781 31.222656 41.25 31.546875 40.925781 31.84375 C 40.695312 32.058594 40.46875 32.28125 40.210938 32.46875 C 39.96875 32.648438 39.738281 32.847656 39.5 33.03125 C 39.230469 33.234375 38.960938 33.433594 38.683594 33.625 C 38.421875 33.804688 38.15625 33.980469 37.890625 34.152344 C 37.730469 34.253906 37.566406 34.339844 37.40625 34.433594 C 37.175781 34.570312 36.953125 34.714844 36.714844 34.835938 C 36.367188 35.007812 36.03125 35.195312 35.675781 35.339844 C 35.492188 35.414062 35.308594 35.488281 35.128906 35.566406 C 34.941406 35.640625 34.769531 35.746094 34.703125 36.003906 C 34.710938 36.0625 34.726562 36.164062 34.738281 36.261719 C 34.984375 36.53125 35.292969 36.527344 35.628906 36.480469 C 35.785156 36.410156 35.960938 36.332031 36.136719 36.257812 C 36.441406 36.136719 36.738281 35.996094 37.03125 35.84375 C 37.480469 35.617188 37.914062 35.363281 38.347656 35.101562 C 38.613281 34.941406 38.878906 34.773438 39.136719 34.597656 C 39.425781 34.402344 39.714844 34.195312 39.992188 33.972656 C 40.238281 33.777344 40.496094 33.597656 40.722656 33.382812 C 40.894531 33.21875 41.074219 33.066406 41.257812 32.917969 C 41.613281 32.621094 41.925781 32.277344 42.253906 31.949219 C 42.464844 31.730469 42.640625 31.476562 42.847656 31.261719 C 43.042969 31.058594 43.191406 30.828125 43.371094 30.621094 C 43.488281 30.484375 43.59375 30.332031 43.695312 30.179688 C 43.921875 29.847656 44.148438 29.515625 44.363281 29.175781 C 44.488281 28.980469 44.597656 28.773438 44.710938 28.570312 C 44.847656 28.316406 44.984375 28.0625 45.109375 27.804688 C 45.230469 27.542969 45.34375 27.277344 45.457031 27.015625 C 45.644531 26.59375 45.792969 26.15625 45.9375 25.71875 C 46.058594 25.359375 46.164062 24.992188 46.242188 24.617188 C 46.296875 24.355469 46.363281 24.09375 46.414062 23.828125 C 46.449219 23.65625 46.460938 23.480469 46.488281 23.304688 C 46.523438 23.097656 46.539062 22.886719 46.5625 22.679688 C 46.601562 22.347656 46.605469 22.015625 46.636719 21.6875 C 46.664062 21.378906 46.652344 21.078125 46.660156 20.769531 C 46.660156 20.640625 46.636719 20.511719 46.628906 20.378906 C 46.621094 20.25 46.644531 20.121094 46.621094 19.996094 C 46.59375 19.859375 46.621094 19.71875 46.585938 19.589844 C 46.542969 19.441406 46.574219 19.292969 46.53125 19.148438 C 46.492188 19.027344 46.503906 18.890625 46.484375 18.761719 C 46.472656 18.65625 46.445312 18.550781 46.425781 18.445312 C 46.410156 18.363281 46.394531 18.28125 46.386719 18.195312 C 46.347656 17.875 46.269531 17.5625 46.195312 17.253906 C 46.136719 16.996094 46.066406 16.742188 46 16.488281 C 45.976562 16.40625 45.957031 16.324219 45.929688 16.246094 C 45.847656 15.992188 45.773438 15.742188 45.683594 15.492188 C 45.574219 15.1875 45.457031 14.886719 45.335938 14.582031 C 45.257812 14.390625 45.179688 14.195312 45.089844 14.007812 C 45.011719 13.839844 44.917969 13.679688 44.835938 13.515625 C 44.773438 13.390625 44.710938 13.265625 44.636719 13.113281 C 44.679688 13.140625 44.707031 13.144531 44.722656 13.164062 C 44.90625 13.335938 45.089844 13.511719 45.265625 13.6875 C 45.414062 13.832031 45.5625 13.976562 45.695312 14.136719 C 45.945312 14.433594 46.199219 14.726562 46.433594 15.035156 C 46.773438 15.472656 47.089844 15.921875 47.386719 16.382812 C 47.535156 16.617188 47.675781 16.855469 47.808594 17.097656 C 48.015625 17.464844 48.21875 17.832031 48.398438 18.210938 C 48.589844 18.617188 48.78125 19.027344 48.9375 19.449219 C 49.039062 19.734375 49.164062 20.011719 49.253906 20.300781 C 49.347656 20.609375 49.417969 20.917969 49.492188 21.230469 C 49.542969 21.445312 49.5625 21.664062 49.621094 21.875 C 49.648438 21.976562 49.644531 22.089844 49.660156 22.195312 C 49.6875 22.382812 49.679688 22.570312 49.726562 22.753906 C 49.730469 22.765625 49.726562 22.777344 49.730469 22.789062 C 49.742188 23.128906 49.757812 23.46875 49.765625 23.808594 C 49.769531 24.144531 49.777344 24.484375 49.757812 24.820312 C 49.746094 24.988281 49.746094 25.164062 49.722656 25.332031 C 49.695312 25.550781 49.6875 25.773438 49.65625 25.996094 C 49.609375 26.351562 49.539062 26.703125 49.429688 27.050781 C 49.335938 27.359375 49.25 27.675781 49.136719 27.980469 C 49.050781 28.210938 48.96875 28.445312 48.875 28.671875 C 48.625 29.273438 48.367188 29.871094 48.058594 30.445312 C 47.882812 30.765625 47.714844 31.09375 47.515625 31.402344 C 47.417969 31.550781 47.34375 31.710938 47.25 31.859375 C 47.105469 32.085938 46.960938 32.308594 46.804688 32.523438 C 46.574219 32.84375 46.339844 33.15625 46.101562 33.472656 C 45.898438 33.746094 45.683594 34.015625 45.449219 34.269531 C 45.339844 34.386719 45.226562 34.503906 45.125 34.628906 C 44.789062 35.027344 44.40625 35.382812 44.03125 35.742188 C 43.804688 35.960938 43.570312 36.171875 43.320312 36.367188 C 43.144531 36.507812 42.972656 36.648438 42.796875 36.78125 C 42.511719 37 42.214844 37.199219 41.914062 37.394531 C 41.554688 37.625 41.195312 37.851562 40.820312 38.054688 C 40.609375 38.164062 40.40625 38.28125 40.191406 38.382812 C 39.945312 38.496094 39.707031 38.632812 39.460938 38.746094 C 39.179688 38.871094 38.882812 38.972656 38.601562 39.105469 C 38.3125 39.242188 38.007812 39.339844 37.707031 39.457031 C 37.367188 39.59375 37.019531 39.703125 36.667969 39.800781 C 36.523438 39.839844 36.378906 39.894531 36.234375 39.9375 C 36.035156 39.996094 35.835938 40.058594 35.636719 40.109375 C 35.425781 40.164062 35.21875 40.203125 35.011719 40.253906 C 34.828125 40.296875 34.652344 40.355469 34.46875 40.386719 C 34.144531 40.441406 33.886719 40.601562 33.65625 40.875 C 33.644531 40.96875 33.628906 41.09375 33.613281 41.199219 C 33.703125 41.421875 33.859375 41.507812 34.066406 41.542969 C 34.1875 41.566406 34.304688 41.566406 34.421875 41.578125 C 34.660156 41.59375 34.886719 41.53125 35.109375 41.460938 C 35.441406 41.351562 35.769531 41.238281 36.097656 41.121094 C 36.421875 41.007812 36.742188 40.886719 37.066406 40.765625 C 37.328125 40.664062 37.589844 40.5625 37.851562 40.457031 C 37.976562 40.40625 38.097656 40.34375 38.21875 40.285156 C 38.484375 40.167969 38.75 40.054688 39.011719 39.929688 C 39.515625 39.6875 40.023438 39.449219 40.519531 39.1875 C 40.894531 38.988281 41.261719 38.777344 41.625 38.554688 C 41.964844 38.347656 42.304688 38.144531 42.632812 37.921875 C 42.96875 37.695312 43.296875 37.464844 43.617188 37.214844 C 43.898438 36.992188 44.167969 36.769531 44.4375 36.535156 C 44.835938 36.195312 45.195312 35.820312 45.550781 35.441406 C 45.738281 35.238281 45.933594 35.042969 46.09375 34.820312 C 46.238281 34.621094 46.40625 34.4375 46.554688 34.242188 C 46.785156 33.945312 47.003906 33.640625 47.214844 33.328125 C 47.390625 33.070312 47.558594 32.808594 47.722656 32.542969 C 47.835938 32.359375 47.945312 32.171875 48.042969 31.980469 C 48.277344 31.53125 48.507812 31.085938 48.730469 30.632812 C 48.84375 30.40625 48.929688 30.164062 49.035156 29.933594 C 49.195312 29.585938 49.324219 29.226562 49.457031 28.867188 C 49.582031 28.519531 49.707031 28.171875 49.800781 27.8125 C 49.871094 27.558594 49.949219 27.304688 50.015625 27.050781 C 50.066406 26.871094 50.105469 26.691406 50.148438 26.511719 C 50.191406 26.332031 50.222656 26.148438 50.265625 25.96875 C 50.289062 25.855469 50.320312 25.75 50.324219 25.632812 C 50.324219 25.605469 50.347656 25.574219 50.367188 25.523438 C 50.472656 25.875 50.550781 26.203125 50.605469 26.539062 C 50.632812 26.695312 50.65625 26.851562 50.675781 27.007812 C 50.707031 27.222656 50.722656 27.4375 50.75 27.652344 C 50.773438 27.855469 50.75 28.058594 50.78125 28.253906 C 50.824219 28.496094 50.820312 28.738281 50.804688 28.976562 C 50.789062 29.21875 50.792969 29.460938 50.769531 29.699219 C 50.757812 29.820312 50.761719 29.941406 50.738281 30.058594 C 50.695312 30.28125 50.703125 30.507812 50.640625 30.730469 C 50.613281 30.839844 50.617188 30.957031 50.597656 31.070312 C 50.582031 31.171875 50.554688 31.277344 50.53125 31.382812 C 50.484375 31.582031 50.445312 31.789062 50.398438 31.988281 C 50.351562 32.1875 50.289062 32.378906 50.234375 32.574219 C 50.113281 33.019531 49.960938 33.453125 49.78125 33.878906 C 49.667969 34.136719 49.5625 34.398438 49.445312 34.65625 C 49.308594 34.953125 49.167969 35.253906 49.015625 35.539062 C 48.8125 35.910156 48.597656 36.273438 48.382812 36.628906 C 48.210938 36.914062 48.035156 37.203125 47.839844 37.472656 C 47.625 37.777344 47.417969 38.082031 47.179688 38.367188 C 46.972656 38.613281 46.773438 38.863281 46.570312 39.113281 C 46.371094 39.355469 46.132812 39.550781 45.898438 39.75 C 45.804688 39.828125 45.714844 39.90625 45.621094 39.984375 C 45.390625 40.199219 45.144531 40.394531 44.890625 40.582031 C 44.652344 40.757812 44.425781 40.957031 44.191406 41.132812 C 43.96875 41.296875 43.734375 41.457031 43.507812 41.609375 C 43.191406 41.828125 42.878906 42.042969 42.554688 42.246094 C 42.226562 42.457031 41.894531 42.660156 41.554688 42.859375 C 41.167969 43.082031 40.777344 43.300781 40.382812 43.511719 C 40.097656 43.65625 39.800781 43.773438 39.519531 43.914062 C 39.273438 44.039062 39.015625 44.140625 38.765625 44.253906 C 38.539062 44.355469 38.304688 44.445312 38.074219 44.527344 C 37.667969 44.675781 37.257812 44.824219 36.847656 44.960938 C 36.464844 45.089844 36.085938 45.222656 35.695312 45.332031 C 35.183594 45.476562 34.671875 45.597656 34.15625 45.722656 C 33.863281 45.796875 33.566406 45.855469 33.273438 45.933594 C 33.019531 46.003906 32.769531 46.089844 32.589844 46.292969 C 32.527344 46.359375 32.484375 46.441406 32.441406 46.503906 C 32.441406 46.601562 32.441406 46.683594 32.441406 46.769531 C 32.542969 47 32.726562 47.105469 32.976562 47.117188 C 33.039062 47.121094 33.105469 47.105469 33.160156 47.148438 C 33.171875 47.15625 33.195312 47.152344 33.214844 47.148438 C 33.285156 47.140625 33.355469 47.128906 33.429688 47.117188 C 33.496094 47.109375 33.566406 47.105469 33.632812 47.09375 C 33.722656 47.082031 33.8125 47.0625 33.902344 47.050781 C 34.148438 47.015625 34.390625 46.960938 34.632812 46.914062 C 34.921875 46.859375 35.207031 46.800781 35.492188 46.730469 C 35.84375 46.648438 36.191406 46.5625 36.539062 46.46875 C 36.84375 46.382812 37.148438 46.300781 37.449219 46.207031 C 37.933594 46.054688 38.417969 45.890625 38.902344 45.71875 C 39.148438 45.628906 39.390625 45.515625 39.632812 45.40625 C 39.890625 45.292969 40.152344 45.183594 40.402344 45.050781 C 40.765625 44.859375 41.117188 44.65625 41.46875 44.449219 C 41.773438 44.273438 42.078125 44.097656 42.375 43.90625 C 42.652344 43.730469 42.921875 43.539062 43.195312 43.355469 C 43.363281 43.238281 43.53125 43.125 43.699219 43.003906 C 44.011719 42.777344 44.332031 42.554688 44.628906 42.304688 C 44.8125 42.152344 45.011719 42.019531 45.195312 41.867188 C 45.371094 41.726562 45.535156 41.578125 45.707031 41.429688 C 45.933594 41.238281 46.164062 41.046875 46.390625 40.851562 C 46.449219 40.796875 46.503906 40.734375 46.5625 40.679688 C 46.6875 40.574219 46.816406 40.464844 46.945312 40.355469 L 46.941406 40.351562 "/>
<path style=" stroke:none;fill-rule:nonzero;fill:rgb(100%,100%,100%);fill-opacity:1;" d="M 21.632812 36.179688 C 21.632812 36.101562 21.632812 36.039062 21.632812 35.972656 C 21.554688 35.746094 21.378906 35.617188 21.160156 35.546875 C 20.988281 35.488281 20.824219 35.417969 20.660156 35.339844 C 20.378906 35.195312 20.085938 35.066406 19.804688 34.921875 C 19.417969 34.71875 19.035156 34.511719 18.667969 34.273438 C 18.453125 34.136719 18.230469 34.011719 18.015625 33.871094 C 17.660156 33.636719 17.308594 33.398438 16.972656 33.136719 C 16.738281 32.953125 16.496094 32.78125 16.265625 32.59375 C 16.054688 32.425781 15.859375 32.238281 15.65625 32.0625 C 15.28125 31.746094 14.949219 31.394531 14.609375 31.042969 C 14.375 30.800781 14.15625 30.542969 13.9375 30.28125 C 13.660156 29.941406 13.398438 29.589844 13.148438 29.230469 C 12.984375 29 12.847656 28.75 12.710938 28.503906 C 12.535156 28.191406 12.359375 27.878906 12.203125 27.558594 C 12.027344 27.195312 11.871094 26.820312 11.726562 26.441406 C 11.601562 26.109375 11.476562 25.777344 11.371094 25.441406 C 11.257812 25.074219 11.152344 24.710938 11.070312 24.335938 C 11.027344 24.144531 10.972656 23.957031 10.933594 23.765625 C 10.902344 23.59375 10.894531 23.414062 10.855469 23.242188 C 10.816406 23.0625 10.804688 22.875 10.761719 22.695312 C 10.734375 22.585938 10.742188 22.46875 10.726562 22.355469 C 10.683594 22.003906 10.679688 21.652344 10.683594 21.300781 C 10.6875 21.027344 10.679688 20.753906 10.6875 20.480469 C 10.691406 20.257812 10.699219 20.03125 10.726562 19.8125 C 10.75 19.613281 10.765625 19.414062 10.796875 19.21875 C 10.828125 19.039062 10.855469 18.851562 10.886719 18.671875 C 10.921875 18.453125 10.96875 18.238281 11.003906 18.023438 C 11.046875 17.773438 11.117188 17.53125 11.1875 17.285156 C 11.292969 16.925781 11.402344 16.566406 11.527344 16.214844 C 11.621094 15.9375 11.738281 15.667969 11.851562 15.398438 C 11.992188 15.054688 12.148438 14.714844 12.324219 14.386719 C 12.519531 14.035156 12.699219 13.675781 12.925781 13.34375 C 13.089844 13.105469 13.238281 12.859375 13.40625 12.621094 C 13.566406 12.390625 13.742188 12.164062 13.914062 11.9375 C 14.039062 11.777344 14.167969 11.613281 14.296875 11.457031 C 14.371094 11.363281 14.453125 11.269531 14.535156 11.183594 C 14.839844 10.863281 15.136719 10.542969 15.449219 10.234375 C 15.691406 9.996094 15.949219 9.773438 16.203125 9.550781 C 16.351562 9.417969 16.515625 9.300781 16.671875 9.179688 C 16.746094 9.117188 16.824219 9.054688 16.894531 8.992188 C 17.070312 8.84375 17.253906 8.710938 17.441406 8.582031 C 17.652344 8.441406 17.859375 8.289062 18.070312 8.144531 C 18.410156 7.917969 18.757812 7.714844 19.117188 7.515625 C 19.273438 7.429688 19.425781 7.324219 19.589844 7.25 C 19.785156 7.164062 19.964844 7.046875 20.160156 6.960938 C 20.441406 6.839844 20.71875 6.71875 20.996094 6.597656 C 21.484375 6.386719 21.984375 6.199219 22.492188 6.042969 C 22.894531 5.917969 23.292969 5.792969 23.707031 5.703125 C 23.988281 5.640625 24.269531 5.5625 24.554688 5.496094 C 24.65625 5.476562 24.757812 5.472656 24.859375 5.460938 C 24.925781 5.449219 24.992188 5.4375 25.058594 5.425781 C 25.242188 5.386719 25.425781 5.367188 25.613281 5.351562 C 25.714844 5.339844 25.8125 5.304688 25.910156 5.328125 C 25.574219 5.425781 25.238281 5.53125 24.902344 5.621094 C 24.53125 5.71875 24.183594 5.882812 23.820312 5.988281 C 23.621094 6.046875 23.4375 6.15625 23.246094 6.234375 C 22.835938 6.398438 22.445312 6.597656 22.054688 6.800781 C 21.742188 6.964844 21.433594 7.128906 21.140625 7.324219 C 20.953125 7.449219 20.757812 7.5625 20.570312 7.6875 C 20.351562 7.832031 20.136719 7.980469 19.933594 8.148438 C 19.769531 8.28125 19.589844 8.402344 19.417969 8.535156 C 19.328125 8.605469 19.238281 8.679688 19.15625 8.757812 C 18.886719 9.015625 18.613281 9.269531 18.347656 9.53125 C 18.167969 9.710938 18.007812 9.910156 17.835938 10.097656 C 17.648438 10.308594 17.484375 10.535156 17.304688 10.75 C 17.15625 10.933594 17.023438 11.136719 16.894531 11.335938 C 16.566406 11.84375 16.273438 12.375 16.019531 12.925781 C 15.851562 13.296875 15.695312 13.679688 15.5625 14.066406 C 15.472656 14.320312 15.382812 14.574219 15.3125 14.832031 C 15.25 15.046875 15.1875 15.265625 15.140625 15.484375 C 15.105469 15.652344 15.066406 15.824219 15.023438 15.992188 C 15.003906 16.085938 14.992188 16.179688 14.972656 16.273438 C 14.957031 16.378906 14.933594 16.484375 14.914062 16.589844 C 14.914062 16.605469 14.90625 16.621094 14.90625 16.640625 C 14.894531 16.78125 14.886719 16.925781 14.867188 17.066406 C 14.824219 17.355469 14.824219 17.648438 14.792969 17.933594 C 14.746094 18.347656 14.765625 18.753906 14.773438 19.164062 C 14.777344 19.355469 14.78125 19.554688 14.804688 19.746094 C 14.832031 19.984375 14.835938 20.226562 14.875 20.460938 C 14.925781 20.773438 14.976562 21.082031 15.035156 21.394531 C 15.09375 21.691406 15.160156 21.988281 15.222656 22.285156 C 15.273438 22.519531 15.359375 22.746094 15.425781 22.976562 C 15.550781 23.394531 15.695312 23.796875 15.855469 24.199219 C 15.921875 24.363281 16.003906 24.519531 16.078125 24.675781 C 16.246094 25.050781 16.46875 25.390625 16.6875 25.734375 C 16.796875 25.910156 16.910156 26.089844 17.03125 26.261719 C 17.238281 26.554688 17.449219 26.84375 17.660156 27.128906 C 17.804688 27.324219 17.949219 27.511719 18.097656 27.699219 C 18.1875 27.8125 18.285156 27.914062 18.382812 28.023438 C 18.53125 28.195312 18.679688 28.375 18.835938 28.542969 C 18.941406 28.65625 19.0625 28.753906 19.175781 28.859375 C 19.214844 28.894531 19.253906 28.929688 19.289062 28.96875 C 19.566406 29.253906 19.878906 29.492188 20.191406 29.738281 C 20.375 29.886719 20.574219 30.007812 20.761719 30.148438 C 20.949219 30.289062 21.160156 30.402344 21.363281 30.527344 C 21.84375 30.8125 22.339844 31.0625 22.839844 31.296875 C 23.03125 31.386719 23.21875 31.46875 23.414062 31.542969 C 23.597656 31.613281 23.78125 31.6875 23.964844 31.765625 C 24.144531 31.839844 24.332031 31.902344 24.515625 31.976562 C 24.765625 32.085938 25.003906 32.21875 25.230469 32.363281 C 25.53125 32.554688 25.804688 32.78125 26.050781 33.042969 C 26.265625 33.273438 26.457031 33.519531 26.601562 33.800781 C 26.75 34.082031 26.914062 34.355469 27.050781 34.640625 C 27.210938 34.980469 27.363281 35.328125 27.496094 35.679688 C 27.648438 36.078125 27.753906 36.484375 27.863281 36.890625 C 27.90625 37.039062 27.90625 37.203125 27.945312 37.355469 C 27.996094 37.550781 27.988281 37.75 28.042969 37.941406 C 28.050781 37.964844 28.042969 37.988281 28.046875 38.011719 C 28.058594 38.171875 28.070312 38.332031 28.085938 38.488281 C 28.089844 38.527344 28.105469 38.566406 28.117188 38.59375 C 28.058594 38.796875 27.910156 38.921875 27.765625 39.042969 C 27.613281 39.167969 27.441406 39.273438 27.265625 39.367188 C 27.121094 39.445312 26.964844 39.492188 26.8125 39.554688 C 26.488281 39.679688 26.144531 39.746094 25.804688 39.832031 C 25.414062 39.933594 25.019531 40.027344 24.636719 40.15625 C 24.378906 40.246094 24.113281 40.328125 23.859375 40.429688 C 23.664062 40.507812 23.480469 40.609375 23.292969 40.707031 C 23.023438 40.84375 22.746094 40.980469 22.476562 41.121094 C 22.195312 41.269531 21.921875 41.425781 21.636719 41.574219 C 21.351562 41.71875 21.058594 41.859375 20.769531 41.992188 C 20.378906 42.171875 19.984375 42.339844 19.582031 42.488281 C 19.324219 42.585938 19.058594 42.664062 18.796875 42.742188 C 18.5 42.832031 18.207031 42.933594 17.898438 42.976562 C 17.6875 43.003906 17.480469 43.066406 17.269531 43.105469 C 17.109375 43.140625 16.464844 43.160156 16.320312 43.144531 C 16.085938 43.109375 15.847656 43.085938 15.617188 43.035156 C 15.457031 43 15.308594 42.929688 15.15625 42.867188 C 14.933594 42.773438 14.710938 42.675781 14.492188 42.574219 C 14.199219 42.433594 13.902344 42.300781 13.617188 42.152344 C 13.132812 41.894531 12.65625 41.613281 12.207031 41.296875 C 11.917969 41.09375 11.628906 40.894531 11.347656 40.679688 C 11.210938 40.578125 11.09375 40.441406 10.957031 40.335938 C 10.726562 40.160156 10.539062 39.941406 10.332031 39.738281 C 10.148438 39.558594 9.980469 39.363281 9.824219 39.164062 C 9.746094 39.070312 9.667969 38.976562 9.582031 38.890625 C 9.335938 38.644531 9.144531 38.347656 8.925781 38.078125 C 8.738281 37.847656 8.589844 37.59375 8.417969 37.351562 C 8.15625 36.984375 7.921875 36.605469 7.695312 36.21875 C 7.410156 35.734375 7.148438 35.238281 6.917969 34.722656 C 6.730469 34.304688 6.550781 33.878906 6.390625 33.445312 C 6.199219 32.917969 6.035156 32.390625 5.90625 31.847656 C 5.855469 31.621094 5.800781 31.398438 5.769531 31.171875 C 5.742188 30.996094 5.695312 30.828125 5.667969 30.65625 C 5.648438 30.527344 5.660156 30.390625 5.625 30.265625 C 5.574219 30.082031 5.632812 29.886719 5.5625 29.707031 C 5.558594 29.699219 5.5625 29.683594 5.5625 29.671875 C 5.550781 29.328125 5.53125 28.980469 5.53125 28.636719 C 5.527344 28.359375 5.554688 28.085938 5.570312 27.808594 C 5.578125 27.582031 5.597656 27.351562 5.636719 27.128906 C 5.683594 26.816406 5.730469 26.507812 5.796875 26.199219 C 5.847656 25.976562 5.90625 25.761719 5.957031 25.527344 C 5.984375 25.554688 6 25.570312 6 25.570312 C 6.03125 25.765625 6.054688 25.941406 6.089844 26.113281 C 6.128906 26.300781 6.175781 26.484375 6.222656 26.667969 C 6.285156 26.917969 6.351562 27.167969 6.414062 27.417969 C 6.535156 27.886719 6.695312 28.34375 6.855469 28.800781 C 6.949219 29.082031 7.058594 29.359375 7.171875 29.636719 C 7.453125 30.339844 7.78125 31.023438 8.136719 31.691406 C 8.316406 32.027344 8.496094 32.359375 8.707031 32.675781 C 8.8125 32.839844 8.90625 33.007812 9.011719 33.167969 C 9.128906 33.34375 9.246094 33.515625 9.371094 33.6875 C 9.550781 33.9375 9.734375 34.183594 9.921875 34.425781 C 9.996094 34.527344 10.078125 34.625 10.160156 34.71875 C 10.34375 34.941406 10.527344 35.160156 10.714844 35.378906 C 10.734375 35.40625 10.761719 35.425781 10.785156 35.453125 C 10.914062 35.59375 11.039062 35.734375 11.175781 35.871094 C 11.304688 36 11.449219 36.117188 11.578125 36.246094 C 11.816406 36.476562 12.0625 36.6875 12.324219 36.886719 C 12.492188 37.019531 12.65625 37.152344 12.824219 37.28125 C 13 37.414062 13.175781 37.546875 13.359375 37.675781 C 13.640625 37.867188 13.921875 38.054688 14.207031 38.246094 C 14.351562 38.347656 14.511719 38.40625 14.6875 38.445312 C 14.890625 38.488281 15.089844 38.46875 15.289062 38.46875 C 15.394531 38.46875 15.5 38.433594 15.59375 38.34375 C 15.601562 38.328125 15.617188 38.300781 15.632812 38.269531 C 15.628906 38.257812 15.628906 38.246094 15.625 38.238281 C 15.578125 38.144531 15.503906 38.074219 15.417969 38.015625 C 15.300781 37.933594 15.175781 37.867188 15.050781 37.796875 C 14.734375 37.621094 14.425781 37.429688 14.125 37.222656 C 13.835938 37.023438 13.550781 36.8125 13.277344 36.589844 C 13 36.363281 12.738281 36.125 12.46875 35.890625 C 12.101562 35.570312 11.769531 35.214844 11.425781 34.867188 C 11.242188 34.683594 11.074219 34.476562 10.898438 34.277344 C 10.753906 34.109375 10.601562 33.941406 10.460938 33.769531 C 10.265625 33.523438 10.078125 33.273438 9.890625 33.023438 C 9.617188 32.664062 9.371094 32.289062 9.128906 31.910156 C 8.996094 31.707031 8.871094 31.496094 8.75 31.285156 C 8.621094 31.074219 8.492188 30.859375 8.378906 30.636719 C 8.210938 30.304688 8.023438 29.980469 7.886719 29.632812 C 7.839844 29.507812 7.78125 29.386719 7.71875 29.261719 C 7.519531 28.851562 7.359375 28.425781 7.207031 27.996094 C 7.136719 27.8125 7.074219 27.625 7.019531 27.4375 C 6.914062 27.085938 6.804688 26.738281 6.742188 26.378906 C 6.714844 26.214844 6.679688 26.054688 6.675781 25.890625 C 6.671875 25.800781 6.652344 25.710938 6.644531 25.621094 C 6.632812 25.535156 6.636719 25.453125 6.613281 25.367188 C 6.589844 25.269531 6.617188 25.15625 6.605469 25.054688 C 6.546875 24.496094 6.570312 23.933594 6.578125 23.371094 C 6.582031 23.140625 6.585938 22.90625 6.640625 22.675781 C 6.644531 22.660156 6.640625 22.640625 6.640625 22.625 C 6.640625 22.429688 6.6875 22.238281 6.703125 22.046875 C 6.722656 21.859375 6.765625 21.679688 6.785156 21.492188 C 6.804688 21.328125 6.847656 21.160156 6.886719 20.996094 C 6.976562 20.644531 7.074219 20.292969 7.199219 19.953125 C 7.304688 19.675781 7.414062 19.40625 7.523438 19.136719 C 7.71875 18.660156 7.933594 18.195312 8.175781 17.738281 C 8.328125 17.449219 8.488281 17.164062 8.648438 16.878906 C 8.828125 16.558594 9.046875 16.261719 9.226562 15.941406 C 9.3125 15.789062 9.433594 15.65625 9.539062 15.515625 C 9.652344 15.359375 9.765625 15.203125 9.882812 15.050781 C 9.996094 14.90625 10.105469 14.757812 10.222656 14.621094 C 10.472656 14.335938 10.71875 14.042969 10.980469 13.769531 C 11.175781 13.5625 11.402344 13.382812 11.613281 13.1875 C 11.632812 13.167969 11.652344 13.148438 11.683594 13.136719 C 11.578125 13.347656 11.464844 13.554688 11.363281 13.765625 C 11.292969 13.90625 11.238281 14.050781 11.171875 14.195312 C 11.117188 14.324219 11.054688 14.449219 11.003906 14.582031 C 10.914062 14.796875 10.832031 15.019531 10.75 15.242188 C 10.675781 15.441406 10.597656 15.640625 10.535156 15.84375 C 10.441406 16.15625 10.332031 16.460938 10.265625 16.78125 C 10.234375 16.925781 10.175781 17.070312 10.140625 17.21875 C 10.097656 17.398438 10.0625 17.578125 10.023438 17.761719 C 9.976562 17.992188 9.949219 18.226562 9.890625 18.457031 C 9.867188 18.542969 9.875 18.632812 9.855469 18.726562 C 9.824219 18.851562 9.828125 18.984375 9.8125 19.117188 C 9.804688 19.183594 9.789062 19.25 9.78125 19.316406 C 9.773438 19.378906 9.792969 19.445312 9.75 19.5 C 9.742188 19.507812 9.746094 19.523438 9.746094 19.53125 C 9.734375 19.757812 9.722656 19.980469 9.710938 20.203125 C 9.699219 20.398438 9.683594 20.59375 9.675781 20.789062 C 9.671875 20.980469 9.667969 21.171875 9.675781 21.363281 C 9.6875 21.628906 9.707031 21.890625 9.71875 22.15625 C 9.726562 22.296875 9.730469 22.441406 9.75 22.582031 C 9.773438 22.777344 9.792969 22.976562 9.820312 23.171875 C 9.847656 23.34375 9.878906 23.519531 9.910156 23.6875 C 9.949219 23.898438 9.992188 24.109375 10.027344 24.320312 C 10.046875 24.464844 10.097656 24.601562 10.128906 24.746094 C 10.1875 25.0625 10.296875 25.363281 10.378906 25.671875 C 10.421875 25.851562 10.496094 26.023438 10.5625 26.195312 C 10.683594 26.523438 10.804688 26.847656 10.945312 27.167969 C 11.097656 27.523438 11.257812 27.871094 11.433594 28.214844 C 11.550781 28.449219 11.707031 28.667969 11.832031 28.90625 C 12.03125 29.300781 12.285156 29.664062 12.535156 30.03125 C 12.683594 30.246094 12.84375 30.453125 13.003906 30.660156 C 13.175781 30.886719 13.355469 31.109375 13.535156 31.332031 C 13.632812 31.449219 13.742188 31.558594 13.84375 31.679688 C 14.175781 32.066406 14.546875 32.414062 14.910156 32.773438 C 15.0625 32.921875 15.230469 33.054688 15.390625 33.191406 C 15.480469 33.269531 15.574219 33.351562 15.664062 33.429688 C 16.007812 33.722656 16.359375 34 16.726562 34.261719 C 17.039062 34.480469 17.347656 34.703125 17.671875 34.910156 C 17.886719 35.046875 18.109375 35.167969 18.328125 35.300781 C 18.777344 35.582031 19.242188 35.824219 19.722656 36.050781 C 20.042969 36.203125 20.371094 36.332031 20.699219 36.472656 C 20.808594 36.464844 20.914062 36.566406 21.03125 36.488281 C 21.054688 36.472656 21.097656 36.484375 21.132812 36.484375 C 21.359375 36.484375 21.527344 36.390625 21.632812 36.179688 "/>
</g>
</svg>
