<?xml version="1.0" encoding="UTF-8"?>
<svg xmlns="http://www.w3.org/2000/svg" xmlns:xlink="http://www.w3.org/1999/xlink" width="56pt" height="56pt" viewBox="0 0 56 56" version="1.1">
<g id="surface1">
<rect x="0" y="0" width="56" height="56" style="fill:rgb(29.670715%,72.932434%,67.111206%);fill-opacity:1;stroke:none;"/>
<path style=" stroke:none;fill-rule:nonzero;fill:rgb(100%,100%,100%);fill-opacity:1;" d="M 26.472656 37.652344 C 33.621094 37.941406 37.589844 32.441406 41.640625 36.058594 C 41.84375 32.242188 35.199219 31.882812 32.28125 31.933594 C 28.625 31.933594 27.699219 34.238281 23.179688 34.238281 C 18.660156 34.238281 16.875 33.960938 16.875 33.960938 C 16.875 33.960938 19.523438 37.652344 26.472656 37.652344 "/>
<path style=" stroke:none;fill-rule:nonzero;fill:rgb(100%,100%,100%);fill-opacity:1;" d="M 6.558594 11.828125 C 16.460938 10.890625 17.785156 24.300781 23.789062 30.40625 C 28.71875 35.335938 37.839844 31.417969 40.710938 34.285156 C 41.519531 35.097656 41.640625 36.058594 41.640625 36.058594 C 41.960938 34.742188 41.121094 32.484375 38.421875 31.84375 C 27.65625 30.136719 26.050781 3.390625 6.558594 11.828125 "/>
<path style=" stroke:none;fill-rule:nonzero;fill:rgb(100%,100%,100%);fill-opacity:1;" d="M 36.328125 29.714844 C 28.59375 22.277344 33.492188 12.484375 40.402344 10.394531 C 40.402344 10.394531 38.019531 12.296875 38.019531 13.417969 C 38.019531 13.417969 42.121094 10.160156 46.550781 10.160156 C 48.578125 10.160156 49.441406 11.113281 49.441406 11.113281 C 49.441406 11.113281 36.328125 10.515625 36.328125 29.714844 "/>
<path style=" stroke:none;fill-rule:nonzero;fill:rgb(100%,100%,100%);fill-opacity:1;" d="M 29.765625 8.320312 C 25.984375 8.320312 22.449219 9.386719 19.449219 11.234375 C 20.140625 11.535156 20.78125 11.875 21.386719 12.25 C 25.882812 9.746094 32.09375 9.476562 36.816406 11.613281 C 37.496094 11.121094 38.148438 10.742188 38.691406 10.457031 C 36.011719 9.089844 32.976562 8.320312 29.765625 8.320312 Z M 42.808594 13.269531 C 42.171875 12.703125 41.503906 12.179688 40.796875 11.703125 C 40.074219 12.0625 39.460938 12.433594 38.996094 12.734375 C 39.835938 13.242188 40.628906 13.820312 41.363281 14.453125 C 41.839844 13.996094 42.328125 13.601562 42.808594 13.269531 Z M 43.3125 13.726562 C 42.828125 14.058594 42.339844 14.445312 41.863281 14.894531 C 53.6875 25.050781 45.636719 46.394531 29.765625 45.828125 C 15.4375 46.285156 6.671875 28.441406 15.445312 17.359375 C 15.09375 16.886719 14.699219 16.402344 14.242188 15.898438 C 4.15625 28.035156 13.75 48.191406 29.765625 47.667969 C 47.144531 48.289062 56.117188 25.027344 43.3125 13.726562 Z M 39.394531 10.832031 C 38.882812 11.078125 38.21875 11.441406 37.503906 11.921875 C 37.816406 12.074219 38.125 12.234375 38.433594 12.40625 C 38.78125 11.902344 39.289062 11.386719 39.699219 11.003906 C 39.597656 10.949219 39.492188 10.890625 39.394531 10.832031 Z M 18.789062 11.664062 C 17.242188 12.703125 15.847656 13.960938 14.65625 15.390625 C 15.109375 15.882812 15.503906 16.359375 15.855469 16.828125 C 17.210938 15.148438 18.863281 13.714844 20.734375 12.617188 C 20.132812 12.265625 19.484375 11.945312 18.789062 11.664062 "/>
</g>
</svg>
