<?xml version="1.0" encoding="UTF-8"?>
<svg xmlns="http://www.w3.org/2000/svg" xmlns:xlink="http://www.w3.org/1999/xlink" width="56pt" height="56pt" viewBox="0 0 56 56" version="1.1">
<g id="surface1">
<path style=" stroke:none;fill-rule:nonzero;fill:rgb(95.666504%,95.776367%,96.775818%);fill-opacity:1;" d="M 50.679688 28 C 50.679688 40.527344 40.527344 50.679688 28 50.679688 C 15.472656 50.679688 5.320312 40.527344 5.320312 28 C 5.320312 15.472656 15.472656 5.320312 28 5.320312 C 40.527344 5.320312 50.679688 15.472656 50.679688 28 "/>
<rect x="0" y="0" width="56" height="56" style="fill:rgb(95.666504%,95.776367%,96.775818%);fill-opacity:1;stroke:none;"/>
<rect x="0" y="0" width="56" height="56" style="fill:rgb(96.951294%,58.676147%,6.09436%);fill-opacity:1;stroke:none;"/>
<path style=" stroke:none;fill-rule:nonzero;fill:rgb(100%,100%,100%);fill-opacity:1;" d="M 46.105469 25.164062 C 46.101562 26.003906 45.980469 26.585938 46.132812 27.085938 C 46.285156 27.597656 46.839844 27.6875 47.382812 27.75 C 47.667969 27.785156 47.914062 28.199219 48.164062 28.457031 C 48.308594 28.609375 48.515625 28.789062 48.527344 28.96875 C 48.566406 29.398438 48.503906 29.835938 48.480469 30.257812 C 47.53125 30.351562 47.90625 29.324219 47.386719 29.085938 C 46.722656 30.234375 47.640625 31.695312 46.644531 32.820312 C 46.539062 32.9375 47.070312 33.621094 47.269531 33.984375 C 46.441406 35.25 45.59375 36.476562 44.820312 37.753906 C 44.527344 38.238281 43.949219 38.832031 45.148438 39.175781 C 45.644531 39.320312 45.433594 40.089844 44.824219 40.417969 C 44.59375 40.542969 44.359375 40.652344 44.128906 40.769531 C 43.882812 40.496094 43.636719 40.222656 43.351562 39.910156 C 43.195312 40.203125 43.042969 40.480469 42.796875 40.929688 C 42.707031 40.316406 42.644531 39.863281 42.554688 39.246094 C 42.308594 39.703125 42.15625 39.980469 42 40.277344 C 41.816406 40.074219 41.667969 39.910156 41.476562 39.699219 C 41.605469 39.382812 41.707031 39.015625 41.90625 38.710938 C 41.988281 38.582031 42.285156 38.597656 42.476562 38.53125 C 42.796875 38.410156 43.195312 38.355469 43.410156 38.136719 C 44.636719 36.886719 45.320312 35.285156 46.042969 33.738281 C 46.253906 33.285156 45.851562 32.546875 45.742188 31.9375 C 45.589844 31.042969 45.445312 30.148438 45.222656 28.800781 C 45.132812 28.714844 44.566406 28.378906 44.328125 27.882812 C 43.882812 26.96875 43.398438 25.984375 44.304688 24.984375 C 44.710938 24.535156 45.117188 23.976562 45.238281 23.40625 C 45.507812 22.140625 45.351562 20.839844 44.519531 19.804688 C 44 19.15625 43.414062 18.550781 42.667969 18.050781 C 41.949219 17.570312 41.628906 16.503906 41.28125 15.554688 C 42.324219 16.113281 43.605469 16.238281 44.269531 17.195312 C 45.746094 19.320312 46.65625 21.652344 46.039062 24.449219 C 47.070312 24.652344 47.539062 25.101562 47.414062 26.082031 C 47.691406 25.851562 47.800781 25.757812 48.117188 25.492188 C 48.199219 25.804688 48.28125 26.140625 48.367188 26.472656 C 48.5 26.40625 48.632812 26.335938 48.765625 26.265625 C 48.628906 26.492188 48.527344 26.75 48.351562 26.941406 C 47.882812 27.457031 47.367188 27.449219 46.84375 26.992188 C 46.355469 26.570312 46.292969 26.164062 46.867188 25.765625 C 46.695312 25.632812 46.523438 25.496094 46.105469 25.164062 Z M 39.46875 44.246094 C 37.269531 45.609375 34.894531 46.398438 32.136719 45.636719 C 31.878906 46.65625 31.402344 47.101562 30.429688 46.925781 C 30.648438 47.214844 30.734375 47.328125 30.984375 47.65625 C 30.667969 47.722656 30.328125 47.789062 29.992188 47.859375 C 30.050781 47.992188 30.113281 48.128906 30.175781 48.261719 C 29.957031 48.117188 29.707031 48 29.527344 47.820312 C 29.035156 47.320312 29.070312 46.808594 29.550781 46.308594 C 30 45.84375 30.40625 45.800781 30.777344 46.394531 C 30.917969 46.230469 31.066406 46.066406 31.414062 45.664062 C 30.578125 45.617188 30.003906 45.46875 29.496094 45.59375 C 28.976562 45.71875 28.859375 46.269531 28.765625 46.808594 C 28.71875 47.089844 28.292969 47.316406 28.023438 47.550781 C 27.863281 47.6875 27.671875 47.882812 27.492188 47.886719 C 27.0625 47.902344 26.628906 47.820312 26.207031 47.773438 C 26.160156 46.824219 27.167969 47.25 27.433594 46.742188 C 26.320312 46.019531 24.816406 46.859375 23.746094 45.804688 C 23.628906 45.695312 22.917969 46.1875 22.546875 46.371094 C 21.328125 45.476562 20.144531 44.566406 18.910156 43.730469 C 18.441406 43.410156 17.878906 42.804688 17.472656 43.980469 C 17.304688 44.46875 16.546875 44.222656 16.246094 43.59375 C 16.136719 43.359375 16.039062 43.121094 15.9375 42.882812 C 16.222656 42.652344 16.507812 42.417969 16.835938 42.152344 C 16.550781 41.976562 16.28125 41.8125 15.84375 41.542969 C 16.464844 41.488281 16.914062 41.445312 17.535156 41.390625 C 17.097656 41.121094 16.824219 40.953125 16.539062 40.78125 C 16.75 40.609375 16.921875 40.46875 17.140625 40.289062 C 17.449219 40.433594 17.8125 40.554688 18.109375 40.769531 C 18.230469 40.859375 18.199219 41.15625 18.257812 41.347656 C 18.359375 41.675781 18.390625 42.074219 18.601562 42.300781 C 19.785156 43.589844 21.351562 44.355469 22.855469 45.15625 C 23.300781 45.394531 24.058594 45.027344 24.671875 44.953125 C 25.574219 44.84375 26.472656 44.746094 27.832031 44.59375 C 27.921875 44.511719 28.285156 43.964844 28.792969 43.75 C 29.730469 43.351562 30.734375 42.917969 31.691406 43.878906 C 32.113281 44.308594 32.652344 44.742188 33.214844 44.894531 C 34.46875 45.226562 35.773438 45.140625 36.851562 44.359375 C 37.527344 43.875 38.160156 43.324219 38.699219 42.601562 C 39.214844 41.910156 40.296875 41.644531 41.265625 41.34375 C 40.652344 42.359375 40.460938 43.632812 39.46875 44.246094 Z M 16.25 27.070312 C 15.96875 27.296875 15.753906 27.597656 15.515625 27.875 C 15.234375 28.203125 14.933594 28.515625 14.699219 28.875 C 14.519531 29.152344 14.445312 29.496094 14.304688 29.800781 C 14.136719 30.15625 13.945312 30.496094 13.664062 31.035156 C 13.804688 26.453125 16.171875 22.367188 21.136719 20.402344 C 18.335938 20.429688 16.433594 21.714844 14.308594 22.949219 C 14.40625 21.757812 15.503906 21.59375 15.980469 20.9375 C 16.488281 20.234375 17.28125 19.691406 18.042969 19.234375 C 18.785156 18.785156 19.625 18.476562 20.457031 18.214844 C 21.308594 17.945312 22.195312 17.691406 23.078125 17.640625 C 23.949219 17.589844 24.832031 17.800781 25.796875 17.910156 C 25.050781 17.09375 24.996094 17.296875 22.769531 16.671875 C 21.558594 16.335938 20.394531 16.730469 18.9375 16.296875 C 23.972656 14.578125 28.1875 15.273438 32.09375 19.09375 C 31.921875 18.523438 31.90625 18.1875 31.738281 17.96875 C 30.625 16.511719 29.421875 15.148438 27.710938 14.34375 C 27.414062 14.203125 27.191406 13.898438 27.039062 13.433594 C 27.449219 13.558594 27.871094 13.65625 28.265625 13.820312 C 29.988281 14.539062 31.769531 15.152344 33.050781 16.632812 C 34.171875 17.929688 35.628906 19.007812 35.695312 20.96875 C 35.703125 21.207031 36.121094 21.429688 36.671875 21.984375 C 36.375 20.351562 36.273438 19.101562 35.894531 17.941406 C 35.550781 16.890625 34.90625 15.941406 34.707031 14.746094 C 35.550781 15.84375 36.441406 16.917969 37.234375 18.050781 C 38.074219 19.242188 38.105469 20.753906 38.671875 22.058594 C 39.277344 23.46875 38.546875 24.90625 38.679688 26.679688 C 39.476562 24.757812 40.285156 23.238281 40.09375 21.433594 C 40.066406 21.160156 40.421875 20.84375 40.742188 20.3125 C 41.457031 24.691406 41.132812 28.554688 37.925781 31.988281 C 38.367188 31.90625 38.691406 31.9375 38.886719 31.792969 C 40.289062 30.730469 41.609375 29.582031 42.417969 27.578125 C 42.839844 29.289062 41.929688 30.246094 41.402344 31.335938 C 40.878906 32.421875 40.027344 33.222656 39.089844 33.84375 C 38.035156 34.535156 36.796875 34.949219 35.28125 35.652344 C 37.917969 35.535156 39.949219 34.730469 42.03125 33.371094 C 41.140625 34.921875 40.003906 35.8125 37.46875 37.117188 C 35.730469 38.011719 33.871094 38.457031 31.503906 38.558594 C 33.722656 39.625 35.671875 39.664062 37.929688 39.554688 C 35.804688 40.777344 33.769531 40.472656 31.828125 40.746094 C 29.902344 41.019531 28.472656 39.542969 26.292969 39.402344 C 27.992188 40.726562 29.292969 41.996094 31.230469 42.300781 C 29.972656 42.617188 28.863281 42.632812 27.601562 42.070312 C 26.394531 41.535156 25.1875 41.074219 24.214844 40.179688 C 23.277344 39.324219 22.398438 38.40625 21.429688 37.449219 C 21.035156 39.453125 22.597656 40.792969 23.542969 42.710938 C 19.320312 39.855469 17.851562 36.0625 17.691406 31.527344 C 17.503906 32.113281 17.1875 32.691406 17.160156 33.28125 C 17.128906 34.046875 17.070312 34.773438 16.863281 35.53125 C 16.691406 36.175781 16.902344 36.925781 16.96875 38.113281 C 15.496094 35.339844 15.9375 32.796875 15.652344 30.367188 C 16.269531 29.386719 16.089844 28.082031 16.941406 27.183594 C 17.105469 27.011719 17.144531 26.71875 17.289062 26.371094 C 16.609375 26.324219 16.527344 26.84375 16.25 27.070312 Z M 11.960938 39.351562 C 10.484375 37.226562 9.574219 34.894531 10.195312 32.101562 C 9.164062 31.898438 8.691406 31.445312 8.816406 30.464844 C 8.539062 30.699219 8.429688 30.789062 8.113281 31.054688 C 8.035156 30.742188 7.949219 30.40625 7.863281 30.074219 C 7.730469 30.144531 7.601562 30.214844 7.46875 30.28125 C 7.601562 30.054688 7.707031 29.796875 7.878906 29.605469 C 8.351562 29.09375 8.863281 29.097656 9.386719 29.554688 C 9.875 29.980469 9.9375 30.382812 9.363281 30.78125 C 9.539062 30.917969 9.707031 31.050781 10.128906 31.382812 C 10.128906 30.542969 10.253906 29.960938 10.101562 29.460938 C 9.945312 28.949219 9.394531 28.859375 8.847656 28.796875 C 8.5625 28.765625 8.316406 28.351562 8.070312 28.09375 C 7.921875 27.941406 7.71875 27.761719 7.703125 27.578125 C 7.667969 27.152344 7.726562 26.714844 7.75 26.292969 C 8.699219 26.195312 8.324219 27.222656 8.84375 27.460938 C 9.507812 26.3125 8.59375 24.855469 9.585938 23.730469 C 9.695312 23.609375 9.164062 22.925781 8.960938 22.566406 C 9.792969 21.300781 10.640625 20.070312 11.410156 18.796875 C 11.707031 18.308594 12.28125 17.71875 11.082031 17.371094 C 10.589844 17.230469 10.796875 16.460938 11.40625 16.128906 C 11.636719 16.003906 11.871094 15.894531 12.101562 15.78125 C 12.347656 16.054688 12.597656 16.328125 12.878906 16.640625 C 13.039062 16.347656 13.1875 16.070312 13.433594 15.617188 C 13.523438 16.234375 13.589844 16.683594 13.675781 17.300781 C 13.921875 16.847656 14.074219 16.566406 14.234375 16.273438 C 14.414062 16.472656 14.5625 16.636719 14.753906 16.847656 C 14.625 17.164062 14.523438 17.535156 14.328125 17.839844 C 14.242188 17.96875 13.945312 17.949219 13.753906 18.019531 C 13.433594 18.136719 13.039062 18.191406 12.820312 18.414062 C 11.597656 19.660156 10.910156 21.265625 10.191406 22.808594 C 9.976562 23.265625 10.382812 24 10.488281 24.613281 C 10.644531 25.503906 10.785156 26.402344 11.011719 27.746094 C 11.097656 27.832031 11.664062 28.167969 11.90625 28.664062 C 12.347656 29.582031 12.832031 30.5625 11.925781 31.566406 C 11.519531 32.011719 11.113281 32.570312 10.992188 33.140625 C 10.722656 34.410156 10.878906 35.707031 11.710938 36.746094 C 12.234375 37.394531 12.816406 37.996094 13.5625 38.496094 C 14.28125 38.976562 14.605469 40.046875 14.953125 40.996094 C 13.90625 40.433594 12.628906 40.3125 11.960938 39.351562 Z M 17.273438 11.558594 C 19.515625 10.265625 21.914062 9.554688 24.644531 10.40625 C 24.9375 9.394531 25.425781 8.964844 26.390625 9.171875 C 26.183594 8.875 26.101562 8.761719 25.863281 8.421875 C 26.179688 8.367188 26.523438 8.3125 26.859375 8.253906 C 26.804688 8.117188 26.746094 7.980469 26.6875 7.84375 C 26.902344 7.996094 27.148438 8.121094 27.324219 8.308594 C 27.800781 8.824219 27.75 9.332031 27.25 9.816406 C 26.785156 10.265625 26.378906 10.296875 26.03125 9.691406 C 25.882812 9.851562 25.730469 10.011719 25.367188 10.398438 C 26.203125 10.472656 26.773438 10.644531 27.285156 10.535156 C 27.808594 10.421875 27.941406 9.882812 28.050781 9.34375 C 28.109375 9.0625 28.539062 8.847656 28.820312 8.625 C 28.984375 8.492188 29.179688 8.304688 29.359375 8.304688 C 29.789062 8.304688 30.222656 8.402344 30.640625 8.457031 C 30.65625 9.414062 29.664062 8.953125 29.382812 9.453125 C 30.472656 10.210938 32.003906 9.417969 33.039062 10.503906 C 33.148438 10.621094 33.875 10.148438 34.253906 9.980469 C 35.445312 10.910156 36.597656 11.859375 37.800781 12.738281 C 38.261719 13.070312 38.804688 13.695312 39.25 12.53125 C 39.429688 12.046875 40.179688 12.320312 40.460938 12.957031 C 40.5625 13.195312 40.652344 13.4375 40.75 13.679688 C 40.457031 13.902344 40.164062 14.125 39.828125 14.378906 C 40.105469 14.5625 40.371094 14.738281 40.800781 15.019531 C 40.175781 15.054688 39.722656 15.082031 39.101562 15.121094 C 39.53125 15.402344 39.800781 15.578125 40.078125 15.761719 C 39.863281 15.925781 39.6875 16.058594 39.460938 16.230469 C 39.15625 16.078125 38.796875 15.945312 38.511719 15.722656 C 38.390625 15.628906 38.433594 15.332031 38.378906 15.136719 C 38.289062 14.808594 38.269531 14.410156 38.066406 14.171875 C 36.925781 12.847656 35.386719 12.03125 33.90625 11.183594 C 33.46875 10.933594 32.703125 11.273438 32.085938 11.328125 C 31.179688 11.410156 30.277344 11.476562 28.914062 11.585938 C 28.824219 11.664062 28.441406 12.203125 27.925781 12.398438 C 26.976562 12.765625 25.957031 13.164062 25.035156 12.175781 C 24.625 11.734375 24.101562 11.28125 23.542969 11.113281 C 22.300781 10.738281 20.996094 10.785156 19.890625 11.527344 C 19.203125 11.992188 18.550781 12.523438 17.988281 13.226562 C 17.449219 13.902344 16.359375 14.132812 15.382812 14.402344 C 16.03125 13.40625 16.261719 12.140625 17.273438 11.558594 Z M 50.644531 26.703125 C 49.925781 14.199219 39.207031 4.640625 26.703125 5.355469 C 14.199219 6.074219 4.640625 16.792969 5.355469 29.296875 C 6.074219 41.800781 16.792969 51.359375 29.296875 50.644531 C 41.800781 49.925781 51.359375 39.207031 50.644531 26.703125 "/>
</g>
</svg>
