<?xml version="1.0" encoding="UTF-8"?>
<svg xmlns="http://www.w3.org/2000/svg" xmlns:xlink="http://www.w3.org/1999/xlink" width="56pt" height="56pt" viewBox="0 0 56 56" version="1.1">
<g id="surface1">
<rect x="0" y="0" width="56" height="56" style="fill:rgb(76.115417%,58.383179%,10.270691%);fill-opacity:1;stroke:none;"/>
<path style=" stroke:none;fill-rule:evenodd;fill:rgb(100%,100%,100%);fill-opacity:1;" d="M 34.53125 23.453125 L 33.601562 24.386719 L 35.109375 25.878906 L 36.609375 24.371094 L 35.671875 23.433594 L 36.800781 22.246094 L 36.800781 16 C 36.800781 16 36.382812 16.953125 35.648438 17.429688 L 35.648438 17.480469 C 35.65625 17.628906 35.742188 17.691406 35.828125 17.742188 L 35.832031 17.742188 C 35.933594 17.8125 36.03125 17.875 36.035156 18.105469 C 36.046875 18.277344 36.035156 21.867188 36.035156 21.867188 L 35.101562 22.835938 L 34.164062 21.867188 L 34.164062 21.734375 C 34.164062 21.085938 34.15625 18.253906 34.164062 18.105469 C 34.171875 17.875 34.269531 17.8125 34.371094 17.742188 L 34.375 17.742188 C 34.453125 17.691406 34.539062 17.628906 34.554688 17.480469 L 34.554688 17.414062 C 33.898438 16.945312 33.402344 16.007812 33.402344 16.007812 L 33.402344 22.34375 Z M 35.734375 24.378906 L 35.109375 25.011719 L 34.476562 24.378906 L 35.109375 23.753906 Z M 37.933594 23.425781 L 37.933594 16.007812 L 38.089844 16.257812 C 38.089844 16.257812 38.203125 16.449219 38.679688 16.855469 C 38.957031 17.097656 39.113281 17.195312 39.191406 17.230469 L 39.203125 17.234375 C 39.277344 17.265625 39.339844 17.292969 39.339844 17.378906 L 39.339844 17.457031 C 39.320312 17.609375 39.207031 17.671875 39.101562 17.722656 L 39.089844 17.730469 C 38.972656 17.796875 38.859375 17.863281 38.851562 18.078125 C 38.835938 18.253906 38.851562 23.425781 38.851562 23.425781 Z M 30.199219 24.570312 C 30.007812 24.570312 29.878906 24.5 29.867188 24.492188 C 29.597656 24.386719 29.453125 24.09375 29.453125 23.675781 C 29.453125 23.609375 29.453125 23.566406 29.460938 23.539062 L 29.460938 23.425781 L 23.570312 23.425781 L 23.570312 18.125 C 23.570312 17.917969 23.445312 17.847656 23.332031 17.785156 L 23.300781 17.769531 C 23.195312 17.714844 23.09375 17.65625 23.066406 17.507812 L 23.066406 17.421875 C 23.882812 16.824219 24.46875 16.042969 24.46875 16.042969 L 24.46875 22.527344 L 29.46875 22.527344 L 29.46875 22.273438 C 29.460938 22.046875 29.445312 21.589844 28.351562 21.582031 C 28.351562 21.582031 27.839844 21.589844 27.328125 21.589844 C 27.042969 21.589844 26.757812 21.589844 26.566406 21.582031 C 26.253906 21.554688 26.082031 21.207031 26.074219 20.898438 C 26.074219 20.679688 26.160156 20.507812 26.296875 20.410156 L 26.375 20.359375 L 26.417969 20.4375 C 26.515625 20.628906 26.929688 20.714844 27.710938 20.714844 L 27.789062 20.714844 C 28.0625 20.714844 28.367188 20.707031 28.710938 20.699219 L 28.863281 20.695312 L 28.933594 20.695312 C 30.257812 20.695312 30.40625 21.847656 30.414062 22.34375 L 30.414062 22.535156 L 31.722656 22.535156 L 31.722656 20.574219 C 31.722656 20.574219 31.738281 20.429688 31.472656 20.28125 C 31.289062 20.175781 31.246094 19.96875 31.246094 19.96875 C 32.304688 19.207031 32.597656 18.546875 32.597656 18.546875 L 32.597656 23.425781 L 30.398438 23.425781 L 30.398438 23.496094 C 30.398438 23.789062 30.449219 24.171875 30.621094 24.300781 L 30.71875 24.378906 L 30.613281 24.441406 C 30.484375 24.527344 30.335938 24.570312 30.199219 24.570312 Z M 30.441406 16.945312 L 29.746094 17.648438 L 30.441406 18.339844 L 31.132812 17.636719 L 31.074219 17.585938 Z M 31.835938 16.945312 L 31.140625 17.648438 L 31.835938 18.339844 L 32.527344 17.648438 L 32.46875 17.585938 Z M 19.660156 23.425781 L 19.660156 24.160156 C 19.660156 24.160156 19.566406 24.941406 21.203125 24.933594 C 22.519531 24.933594 22.5625 24.117188 22.5625 24.109375 L 22.5625 21.058594 C 22.5625 20.886719 22.511719 20.324219 21.972656 20.316406 L 17.371094 20.316406 L 17.371094 19.984375 C 17.371094 19.921875 17.417969 19.890625 17.464844 19.863281 C 17.476562 19.859375 17.484375 19.851562 17.492188 19.847656 C 17.761719 19.671875 17.804688 19.527344 17.71875 19.472656 C 17.179688 19.164062 16.644531 18.496094 16.644531 18.496094 L 16.644531 21.15625 L 21.289062 21.15625 C 21.425781 21.15625 21.625 21.199219 21.625 21.492188 L 21.625 23.625 C 21.625 23.644531 21.625 24.085938 21.167969 24.085938 C 20.441406 24.085938 20.484375 23.710938 20.484375 23.710938 L 20.484375 22.515625 L 16.636719 22.515625 L 16.636719 23.425781 Z M 31.226562 32.90625 L 32.8125 31.199219 L 32.8125 27.828125 C 32.8125 27.800781 32.847656 27.777344 32.847656 27.777344 L 33.082031 27.664062 L 33.082031 27.472656 L 30.953125 27.472656 L 30.953125 27.664062 L 31.167969 27.800781 C 31.226562 27.835938 31.234375 27.863281 31.234375 27.890625 L 31.234375 29.820312 L 26.972656 29.820312 L 26.011719 31.042969 L 26.011719 27.898438 L 26.019531 27.835938 C 26.019531 27.835938 26.039062 27.820312 26.074219 27.800781 L 26.273438 27.671875 L 26.289062 27.664062 L 26.289062 27.472656 L 24.164062 27.472656 L 24.164062 27.664062 L 24.375 27.800781 C 24.394531 27.8125 24.40625 27.820312 24.414062 27.828125 C 24.417969 27.835938 24.421875 27.835938 24.425781 27.835938 L 24.425781 33.625 L 24.417969 33.703125 C 24.410156 33.71875 24.390625 33.730469 24.375 33.738281 L 24.164062 33.878906 L 24.164062 34.066406 L 26.289062 34.066406 L 26.289062 33.878906 L 26.0625 33.738281 L 26.011719 33.710938 L 26.011719 31.058594 L 26.238281 31.128906 L 26.53125 30.957031 C 26.582031 30.921875 26.636719 30.90625 26.660156 30.894531 C 26.679688 30.886719 26.714844 30.878906 26.78125 30.878906 L 31.226562 30.878906 Z M 52.171875 28.121094 C 53.046875 28.609375 53.617188 29.257812 53.871094 30.046875 C 53.949219 30.304688 53.980469 30.574219 54 30.851562 C 54 31.242188 53.921875 31.613281 53.757812 31.945312 C 53.539062 32.394531 53.167969 32.800781 52.640625 33.15625 C 52.128906 33.511719 51.515625 33.753906 50.828125 33.902344 C 50.328125 34.007812 49.613281 34.058594 48.707031 34.058594 L 43.972656 34.058594 L 43.972656 33.867188 L 43.992188 33.859375 L 44.183594 33.738281 L 44.226562 33.695312 L 44.234375 33.625 L 44.234375 28.980469 L 45.8125 28.980469 L 45.8125 33.027344 L 48.699219 33.027344 C 49.773438 33.027344 50.585938 32.890625 51.121094 32.609375 C 51.53125 32.394531 51.84375 32.136719 52.042969 31.824219 C 52.242188 31.511719 52.34375 31.164062 52.34375 30.773438 C 52.34375 30.003906 51.957031 29.40625 51.167969 28.945312 C 50.664062 28.652344 49.847656 28.503906 48.730469 28.503906 L 43.203125 28.503906 L 43.203125 27.820312 C 43.195312 27.820312 42.953125 27.65625 42.953125 27.65625 L 42.953125 27.464844 L 48.738281 27.464844 C 50.257812 27.464844 51.382812 27.679688 52.171875 28.121094 Z M 33.074219 33.804688 C 33.03125 33.796875 33.003906 33.789062 32.984375 33.78125 L 36.957031 29.65625 L 36.035156 28.675781 L 30.898438 34.046875 L 33.265625 34.046875 L 33.265625 33.824219 L 33.175781 33.824219 C 33.160156 33.820312 33.144531 33.816406 33.125 33.816406 C 33.109375 33.8125 33.089844 33.808594 33.074219 33.804688 Z M 37.476562 29.492188 L 36.460938 28.417969 L 37.371094 27.464844 L 43.636719 34.066406 L 41.273438 34.066406 L 41.273438 33.84375 L 41.347656 33.84375 C 41.53125 33.84375 41.566406 33.804688 41.566406 33.804688 L 39.476562 31.570312 L 36.28125 31.570312 C 36.269531 31.570312 36.253906 31.578125 36.238281 31.582031 L 36.234375 31.585938 L 36.21875 31.589844 L 35.992188 31.710938 L 35.785156 31.5625 L 36.757812 30.546875 L 38.523438 30.546875 Z M 21.28125 27.664062 L 21.488281 27.800781 C 21.539062 27.835938 21.566406 27.863281 21.566406 27.890625 L 21.566406 33.605469 L 21.550781 33.683594 C 21.53125 33.703125 21.507812 33.71875 21.488281 33.726562 L 21.273438 33.867188 L 21.273438 34.058594 L 23.386719 34.058594 L 23.386719 33.867188 L 23.195312 33.726562 C 23.167969 33.710938 23.152344 33.695312 23.152344 33.695312 L 23.144531 33.695312 L 23.144531 27.890625 L 23.152344 27.828125 L 23.203125 27.785156 L 23.394531 27.65625 L 23.394531 27.464844 L 21.28125 27.464844 Z M 12.148438 32.949219 L 12.425781 32.792969 L 12.660156 32.785156 L 12.746094 32.785156 L 11.695312 34.058594 L 7.304688 34.058594 C 6.507812 34.058594 5.875 34.023438 5.40625 33.945312 C 4.78125 33.851562 4.210938 33.652344 3.699219 33.375 C 2.574219 32.769531 2 31.917969 2 30.851562 C 1.992188 30.4375 2.078125 30.046875 2.242188 29.699219 C 2.539062 29.09375 3.039062 28.582031 3.761719 28.164062 C 4.203125 27.914062 4.660156 27.742188 5.136719 27.628906 C 5.320312 27.59375 5.5 27.558594 5.691406 27.53125 C 6.054688 27.488281 6.574219 27.464844 7.25 27.464844 L 10.15625 27.464844 L 9.113281 28.71875 L 8.914062 28.71875 L 8.941406 28.546875 C 8.941406 28.542969 8.9375 28.539062 8.9375 28.535156 C 8.9375 28.519531 8.933594 28.496094 8.8125 28.503906 L 6.375 28.503906 C 6.238281 28.503906 6.019531 28.511719 5.796875 28.554688 C 4.957031 28.710938 4.367188 29.117188 3.957031 29.71875 C 3.75 30.039062 3.648438 30.394531 3.648438 30.757812 C 3.648438 31.582031 4.046875 32.175781 4.859375 32.601562 C 5.40625 32.878906 6.21875 33.019531 7.304688 33.019531 L 12.027344 33.011719 C 12.035156 33.011719 12.070312 32.992188 12.148438 32.949219 Z M 10.328125 31.207031 L 11.351562 29.921875 L 4.460938 29.921875 L 3.769531 30.957031 L 9.980469 30.957031 C 10.09375 30.964844 10.136719 30.996094 10.148438 31.015625 L 10.121094 31.199219 L 10.328125 31.199219 Z M 10.101562 28.746094 L 9.902344 28.675781 L 10.863281 27.492188 L 20.820312 27.492188 L 19.773438 28.765625 L 19.582031 28.765625 L 19.582031 28.582031 C 19.582031 28.574219 19.566406 28.546875 19.433594 28.53125 L 16.054688 28.53125 L 16.054688 33.695312 L 16.105469 33.746094 L 16.324219 33.886719 L 16.324219 34.078125 L 14.199219 34.078125 L 14.199219 33.886719 L 14.417969 33.738281 C 14.425781 33.738281 14.445312 33.71875 14.460938 33.703125 L 14.476562 33.632812 L 14.476562 28.53125 L 10.683594 28.53125 C 10.597656 28.53125 10.519531 28.554688 10.429688 28.609375 L 10.128906 28.753906 L 10.101562 28.746094 "/>
</g>
</svg>
