<?xml version="1.0" encoding="UTF-8"?>
<svg xmlns="http://www.w3.org/2000/svg" xmlns:xlink="http://www.w3.org/1999/xlink" width="56pt" height="56pt" viewBox="0 0 56 56" version="1.1">
<g id="surface1">
<rect x="0" y="0" width="56" height="56" style="fill:rgb(95.66803%,95.779419%,96.777344%);fill-opacity:1;stroke:none;"/>
<path style=" stroke:none;fill-rule:nonzero;fill:rgb(13.729858%,12.159729%,12.548828%);fill-opacity:1;" d="M 24.160156 49.023438 C 23.59375 48.929688 23.027344 48.832031 22.457031 48.738281 C 20.125 48.375 17.925781 47.65625 15.949219 46.324219 C 14.886719 45.609375 13.308594 44.128906 12.671875 42.949219 C 14.660156 41.078125 16.660156 39.191406 18.710938 37.261719 C 18.792969 37.40625 18.855469 37.492188 18.898438 37.589844 C 19.894531 39.792969 21.535156 41.238281 23.898438 41.804688 C 26.195312 42.359375 28.484375 42.300781 30.730469 41.5625 C 32.207031 41.078125 33.363281 40.160156 34.128906 38.792969 C 35.394531 36.519531 34.65625 34.117188 32.339844 32.933594 C 31.3125 32.410156 30.214844 32.09375 29.113281 31.785156 C 27.992188 31.476562 26.863281 31.183594 25.691406 30.871094 C 25.886719 30.472656 26.199219 30.242188 26.464844 29.976562 C 28.957031 31.023438 31.980469 29.050781 31.171875 25.726562 C 31.640625 25.257812 32.117188 24.78125 32.628906 24.265625 C 33.023438 24.390625 33.417969 24.507812 33.808594 24.648438 C 35.511719 25.246094 37.164062 25.9375 38.601562 27.058594 C 41.132812 29.035156 42.5 31.632812 42.828125 34.824219 C 43.019531 36.6875 42.90625 38.511719 42.300781 40.277344 C 41.066406 43.871094 38.667969 46.363281 35.113281 47.726562 C 33.421875 48.375 31.664062 48.71875 29.867188 48.894531 C 29.691406 48.914062 29.519531 48.980469 29.34375 49.023438 C 27.617188 49.023438 25.886719 49.023438 24.160156 49.023438 "/>
<path style=" stroke:none;fill-rule:nonzero;fill:rgb(13.729858%,12.159729%,12.548828%);fill-opacity:1;" d="M 28.222656 6.976562 C 28.445312 7.019531 28.664062 7.085938 28.886719 7.105469 C 31.1875 7.296875 33.40625 7.785156 35.46875 8.859375 C 37.667969 10.007812 39.308594 11.707031 40.464844 13.972656 C 38.46875 15.851562 36.480469 17.714844 34.46875 19.601562 C 34.183594 19.628906 33.890625 19.65625 33.5625 19.6875 C 33.503906 19.464844 33.46875 19.285156 33.410156 19.109375 C 33.179688 18.402344 32.996094 17.671875 32.695312 16.996094 C 31.910156 15.253906 30.460938 14.335938 28.640625 14.007812 C 26.617188 13.644531 24.59375 13.652344 22.613281 14.269531 C 22.019531 14.453125 21.449219 14.742188 20.90625 15.050781 C 18.800781 16.238281 18.59375 19.152344 20.992188 20.589844 C 21.769531 21.050781 22.617188 21.433594 23.480469 21.695312 C 25.460938 22.304688 27.472656 22.816406 29.472656 23.367188 C 29.652344 23.417969 29.828125 23.46875 30.070312 23.539062 C 29.972656 23.65625 29.914062 23.742188 29.84375 23.816406 C 29.765625 23.898438 29.671875 23.96875 29.570312 24.054688 C 28.910156 23.90625 28.253906 23.714844 27.574219 23.921875 C 27.464844 23.957031 27.339844 23.960938 27.242188 24.015625 C 26.777344 24.257812 26.285156 24.367188 25.765625 24.371094 C 25.679688 24.371094 25.59375 24.429688 25.421875 24.496094 C 25.363281 24.84375 25.300781 25.226562 25.214844 25.746094 C 24.757812 26.496094 24.773438 27.4375 24.976562 28.453125 C 24.359375 29.015625 23.722656 29.589844 23.082031 30.175781 C 21.777344 29.886719 20.550781 29.445312 19.347656 28.941406 C 18.46875 28.574219 17.59375 28.164062 16.785156 27.664062 C 13.910156 25.890625 12.074219 23.347656 11.597656 19.976562 C 10.917969 15.199219 13.273438 11.039062 17.152344 8.953125 C 18.8125 8.058594 20.59375 7.527344 22.457031 7.261719 C 22.941406 7.191406 23.429688 7.15625 23.917969 7.09375 C 24.046875 7.078125 24.171875 7.015625 24.300781 6.976562 C 25.609375 6.976562 26.914062 6.976562 28.222656 6.976562 "/>
<path style=" stroke:none;fill-rule:nonzero;fill:rgb(13.729858%,12.159729%,12.548828%);fill-opacity:1;" d="M 21.160156 32.390625 C 21.101562 30.996094 21.695312 30.417969 23.035156 30.683594 C 23.753906 30 24.507812 29.28125 25.25 28.570312 C 25.039062 27.542969 25.015625 26.589844 25.457031 25.652344 C 25.578125 25.394531 25.535156 25.058594 25.566406 24.765625 C 25.601562 24.726562 25.632812 24.667969 25.664062 24.664062 C 26.339844 24.609375 26.96875 24.363281 27.621094 24.222656 C 28.289062 24.085938 28.960938 24.105469 29.597656 24.460938 C 30.40625 23.714844 31.191406 22.984375 31.953125 22.28125 C 31.882812 20.980469 32.5 20.394531 33.769531 20.566406 C 34.035156 20.332031 34.339844 20.078125 34.625 19.8125 C 37.484375 17.160156 40.339844 14.507812 43.199219 11.851562 C 43.847656 11.25 44.488281 10.636719 45.15625 10.050781 C 45.414062 9.824219 45.722656 9.648438 46.023438 9.476562 C 46.242188 9.355469 46.472656 9.355469 46.667969 9.589844 C 46.796875 9.894531 46.683594 10.183594 46.503906 10.425781 C 46.238281 10.777344 45.957031 11.128906 45.640625 11.429688 C 42.066406 14.824219 38.488281 18.207031 34.910156 21.59375 C 34.894531 21.609375 34.882812 21.632812 34.835938 21.695312 C 34.824219 22.179688 34.855469 22.722656 34.445312 23.15625 C 34.03125 23.585938 33.546875 23.59375 32.980469 23.425781 C 32.238281 24.117188 31.496094 24.816406 30.726562 25.535156 C 31.128906 26.859375 31.039062 28.09375 29.992188 29.089844 C 28.953125 30.074219 27.742188 30.234375 26.394531 29.65625 C 25.613281 30.375 24.828125 31.097656 24.0625 31.804688 C 23.96875 33.289062 23.648438 33.585938 22.121094 33.609375 C 20.914062 34.726562 19.679688 35.867188 18.445312 37.007812 C 15.929688 39.34375 13.414062 41.679688 10.894531 44.007812 C 10.675781 44.214844 10.421875 44.390625 10.167969 44.550781 C 9.925781 44.707031 9.65625 44.78125 9.359375 44.585938 C 9.175781 44.207031 9.328125 43.863281 9.550781 43.5625 C 9.757812 43.28125 10.003906 43.027344 10.257812 42.785156 C 13.695312 39.527344 17.136719 36.269531 20.578125 33.007812 C 20.765625 32.832031 20.929688 32.632812 21.160156 32.390625 "/>
<path style=" stroke:none;fill-rule:nonzero;fill:rgb(13.729858%,12.159729%,12.548828%);fill-opacity:1;" d="M 11.503906 40.953125 C 10.675781 39.066406 10.195312 37.199219 9.96875 35.175781 C 12.640625 34.910156 15.246094 34.652344 17.902344 34.390625 C 17.953125 34.644531 17.988281 34.839844 18.035156 35.058594 C 15.875 37.007812 13.734375 38.9375 11.503906 40.953125 "/>
<path style=" stroke:none;fill-rule:nonzero;fill:rgb(13.729858%,12.159729%,12.548828%);fill-opacity:1;" d="M 41.230469 16.09375 C 41.535156 17.195312 41.710938 18.246094 41.691406 19.394531 C 40.332031 19.433594 39.011719 19.472656 37.683594 19.511719 C 37.902344 19.125 40.078125 17.023438 41.230469 16.09375 "/>
</g>
</svg>
