<?xml version="1.0" encoding="UTF-8"?>
<svg xmlns="http://www.w3.org/2000/svg" xmlns:xlink="http://www.w3.org/1999/xlink" width="56pt" height="56pt" viewBox="0 0 56 56" version="1.1">
<g id="surface1">
<rect x="0" y="0" width="56" height="56" style="fill:rgb(75.440979%,87.580872%,7.704163%);fill-opacity:1;stroke:none;"/>
<path style=" stroke:none;fill-rule:nonzero;fill:rgb(100%,100%,100%);fill-opacity:1;" d="M 6.757812 30.847656 C 7.609375 30.847656 8.464844 30.867188 9.324219 30.84375 C 14.171875 30.691406 19.027344 30.628906 23.863281 30.332031 C 28.457031 30.046875 33.027344 29.460938 37.613281 29.113281 C 39.15625 28.996094 40.761719 29.027344 42.273438 29.316406 C 44.332031 29.710938 44.96875 30.71875 45 32.78125 C 45.035156 34.964844 44.367188 36.90625 43.195312 38.519531 C 38.195312 38.777344 33.375 39.011719 28.558594 39.28125 C 25.984375 39.425781 23.40625 39.578125 20.84375 39.84375 C 17.898438 40.152344 14.972656 40.621094 12.03125 40.960938 C 10.714844 41.113281 9.375 41.230469 8.058594 41.15625 C 6.628906 41.082031 5.621094 40.226562 5.484375 38.84375 C 5.21875 36.121094 5.054688 33.367188 6.757812 30.847656 "/>
<path style=" stroke:none;fill-rule:nonzero;fill:rgb(100%,100%,100%);fill-opacity:1;" d="M 12.351562 16.386719 C 12.566406 16.34375 12.789062 16.257812 13.011719 16.253906 C 18.964844 16.078125 24.921875 15.960938 30.871094 15.722656 C 33.128906 15.632812 35.367188 15.167969 37.625 15.054688 C 41.070312 14.886719 44.523438 14.820312 47.972656 14.820312 C 49.296875 14.820312 50.355469 15.8125 50.574219 17.128906 C 50.953125 19.378906 50.28125 21.464844 49.28125 23.453125 C 48.90625 24.199219 48.183594 24.214844 47.449219 24.214844 C 44.46875 24.226562 41.480469 24.167969 38.503906 24.316406 C 35.464844 24.46875 32.4375 24.832031 29.40625 25.101562 C 27.226562 25.296875 25.042969 25.453125 22.871094 25.695312 C 20.777344 25.925781 18.695312 26.25 16.609375 26.53125 C 16.53125 26.542969 16.453125 26.554688 16.375 26.558594 C 12.820312 26.773438 10.722656 26.6875 10.976562 21.78125 C 11.074219 19.863281 11.34375 18.070312 12.351562 16.386719 "/>
</g>
</svg>
