<?xml version="1.0" encoding="UTF-8"?>
<svg xmlns="http://www.w3.org/2000/svg" xmlns:xlink="http://www.w3.org/1999/xlink" width="56pt" height="56pt" viewBox="0 0 56 56" version="1.1">
<g id="surface1">
<rect x="0" y="0" width="56" height="56" style="fill:rgb(95.120239%,42.092896%,8.964539%);fill-opacity:1;stroke:none;"/>
<path style=" stroke:none;fill-rule:nonzero;fill:rgb(100%,100%,100%);fill-opacity:1;" d="M 47.679688 10.691406 C 47.65625 10.769531 47.609375 10.84375 47.605469 10.921875 C 47.589844 11.210938 47.476562 11.464844 47.359375 11.722656 C 47.191406 12.105469 46.957031 12.445312 46.679688 12.761719 C 46.636719 12.8125 46.589844 12.867188 46.539062 12.917969 C 45.660156 13.804688 44.777344 14.691406 43.894531 15.578125 C 42.519531 16.964844 41.144531 18.351562 39.769531 19.738281 C 38.820312 20.699219 37.871094 21.664062 36.917969 22.625 C 36.875 22.667969 36.832031 22.71875 36.777344 22.777344 C 38.613281 29.804688 40.449219 36.839844 42.285156 43.878906 C 42.070312 44.105469 41.859375 44.339844 41.644531 44.566406 C 41.074219 45.164062 40.5 45.757812 39.929688 46.355469 C 39.589844 46.71875 39.25 47.085938 38.90625 47.449219 C 38.878906 47.480469 38.84375 47.507812 38.804688 47.546875 C 38.609375 47.179688 38.421875 46.824219 38.230469 46.46875 C 37.871094 45.792969 37.507812 45.117188 37.152344 44.4375 C 36.800781 43.777344 36.457031 43.113281 36.109375 42.453125 C 35.894531 42.050781 35.675781 41.65625 35.460938 41.253906 C 35.265625 40.886719 35.078125 40.515625 34.882812 40.148438 C 34.507812 39.449219 34.136719 38.75 33.761719 38.050781 C 33.566406 37.683594 33.378906 37.3125 33.183594 36.945312 C 32.8125 36.25 32.441406 35.558594 32.074219 34.863281 C 31.769531 34.292969 31.472656 33.71875 31.171875 33.148438 C 30.910156 32.65625 30.644531 32.167969 30.382812 31.675781 C 30.191406 31.316406 30.003906 30.949219 29.8125 30.589844 C 29.699219 30.371094 29.585938 30.15625 29.472656 29.945312 C 29.453125 29.910156 29.429688 29.882812 29.414062 29.859375 C 29.394531 29.851562 29.390625 29.851562 29.382812 29.851562 C 29.378906 29.851562 29.367188 29.851562 29.363281 29.855469 C 28.34375 30.898438 27.320312 31.9375 26.300781 32.984375 C 25.011719 34.308594 23.726562 35.640625 22.453125 36.957031 C 22.472656 37.28125 22.492188 37.582031 22.515625 37.882812 C 22.539062 38.179688 22.570312 38.476562 22.597656 38.777344 C 22.621094 38.992188 22.644531 39.210938 22.664062 39.425781 C 22.703125 39.851562 22.742188 40.277344 22.773438 40.703125 C 22.796875 40.972656 22.800781 41.242188 22.824219 41.507812 C 22.851562 41.839844 22.890625 42.167969 22.921875 42.5 C 22.929688 42.550781 22.929688 42.601562 22.933594 42.667969 C 22.027344 43.585938 21.117188 44.503906 20.195312 45.441406 C 20.160156 45.390625 20.121094 45.351562 20.097656 45.304688 C 19.816406 44.785156 19.539062 44.269531 19.261719 43.753906 C 19.011719 43.28125 18.765625 42.8125 18.515625 42.34375 C 18.109375 41.59375 17.703125 40.847656 17.296875 40.097656 C 17.113281 39.761719 16.933594 39.421875 16.75 39.085938 C 16.742188 39.070312 16.730469 39.054688 16.710938 39.03125 C 14.660156 37.941406 12.597656 36.84375 10.519531 35.742188 C 10.558594 35.695312 10.589844 35.65625 10.621094 35.621094 C 10.78125 35.457031 10.945312 35.292969 11.105469 35.128906 C 11.765625 34.445312 12.421875 33.761719 13.078125 33.082031 C 13.125 33.035156 13.160156 32.980469 13.191406 32.941406 C 15.039062 33.167969 16.855469 33.394531 18.699219 33.621094 C 18.742188 33.585938 18.804688 33.542969 18.859375 33.492188 C 19.429688 32.925781 19.996094 32.363281 20.566406 31.796875 C 21.632812 30.746094 22.699219 29.691406 23.765625 28.640625 C 24.472656 27.941406 25.179688 27.246094 25.886719 26.546875 C 25.9375 26.5 25.980469 26.449219 26.042969 26.382812 C 25.980469 26.34375 25.9375 26.308594 25.886719 26.285156 C 25.398438 26.023438 24.90625 25.765625 24.414062 25.503906 C 23.644531 25.097656 22.875 24.6875 22.105469 24.28125 C 21.664062 24.046875 21.21875 23.824219 20.777344 23.589844 C 20.097656 23.234375 19.417969 22.875 18.742188 22.515625 C 18.25 22.253906 17.761719 21.988281 17.269531 21.730469 C 16.84375 21.503906 16.417969 21.289062 15.992188 21.066406 C 15.449219 20.777344 14.910156 20.484375 14.367188 20.199219 C 13.875 19.941406 13.378906 19.691406 12.886719 19.429688 C 12.214844 19.074219 11.542969 18.710938 10.871094 18.355469 C 10.503906 18.160156 10.136719 17.96875 9.765625 17.777344 C 9.292969 17.527344 8.816406 17.277344 8.320312 17.015625 C 9.519531 15.800781 10.710938 14.59375 11.894531 13.394531 C 12.257812 13.488281 12.597656 13.578125 12.933594 13.667969 C 13.429688 13.796875 13.921875 13.933594 14.414062 14.066406 C 15.265625 14.296875 16.117188 14.523438 16.96875 14.75 C 17.828125 14.980469 18.683594 15.214844 19.539062 15.441406 C 19.984375 15.558594 20.429688 15.671875 20.871094 15.789062 C 21.378906 15.921875 21.882812 16.066406 22.386719 16.203125 C 22.828125 16.324219 23.273438 16.445312 23.714844 16.5625 C 24.117188 16.671875 24.519531 16.773438 24.917969 16.882812 C 25.421875 17.015625 25.925781 17.152344 26.433594 17.289062 C 26.910156 17.417969 27.390625 17.550781 27.871094 17.679688 C 28.484375 17.84375 29.09375 18.003906 29.707031 18.164062 C 30.445312 18.359375 31.183594 18.554688 31.925781 18.753906 C 32.453125 18.898438 32.980469 19.042969 33.523438 19.191406 C 33.582031 19.140625 33.644531 19.097656 33.695312 19.042969 C 34.089844 18.648438 34.484375 18.253906 34.878906 17.859375 C 37.546875 15.195312 40.210938 12.527344 42.878906 9.863281 C 43.257812 9.484375 43.667969 9.152344 44.136719 8.894531 C 44.71875 8.570312 45.34375 8.386719 46.015625 8.476562 C 46.515625 8.542969 46.9375 8.777344 47.246094 9.1875 C 47.441406 9.445312 47.582031 9.730469 47.609375 10.058594 C 47.613281 10.117188 47.65625 10.171875 47.679688 10.230469 C 47.679688 10.386719 47.679688 10.539062 47.679688 10.691406 "/>
</g>
</svg>
