<?xml version="1.0" encoding="UTF-8"?>
<svg xmlns="http://www.w3.org/2000/svg" xmlns:xlink="http://www.w3.org/1999/xlink" width="56pt" height="56pt" viewBox="0 0 56 56" version="1.1">
<g id="surface1">
<rect x="0" y="0" width="56" height="56" style="fill:rgb(95.66803%,95.779419%,96.777344%);fill-opacity:1;stroke:none;"/>
<path style=" stroke:none;fill-rule:nonzero;fill:rgb(13.729858%,12.159729%,12.548828%);fill-opacity:1;" d="M 17.851562 47.015625 C 12.371094 47.042969 7.902344 42.511719 7.914062 37.054688 C 7.925781 31.613281 12.355469 27.09375 17.90625 27.117188 C 23.390625 27.136719 27.839844 31.59375 27.816406 37.105469 C 27.792969 42.65625 23.269531 47.054688 17.851562 47.015625 "/>
<path style=" stroke:none;fill-rule:nonzero;fill:rgb(13.729858%,12.159729%,12.548828%);fill-opacity:1;" d="M 27.445312 19.25 C 27.457031 19.347656 27.46875 19.515625 27.503906 19.675781 C 27.769531 20.8125 28.882812 21.300781 29.691406 21.152344 C 30.617188 20.976562 31.339844 20.210938 31.34375 19.167969 C 31.347656 18.722656 31.203125 18.304688 30.910156 17.957031 C 30.429688 17.382812 29.808594 17.109375 29.070312 17.234375 C 28.074219 17.40625 27.464844 18.191406 27.445312 19.25 Z M 34.78125 24.101562 C 33.644531 24.101562 32.515625 24.101562 31.367188 24.101562 C 31.367188 23.710938 31.367188 23.324219 31.367188 22.917969 C 31.328125 22.933594 31.304688 22.9375 31.292969 22.949219 C 30.777344 23.472656 30.148438 23.8125 29.441406 23.984375 C 28.253906 24.273438 27.121094 24.117188 26.082031 23.449219 C 25.347656 22.972656 24.871094 22.285156 24.578125 21.472656 C 24.371094 20.910156 24.25 20.328125 24.230469 19.726562 C 24.21875 19.488281 24.191406 19.25 24.199219 19.011719 C 24.238281 18.066406 24.417969 17.15625 24.902344 16.324219 C 25.496094 15.289062 26.367188 14.625 27.53125 14.351562 C 28.109375 14.214844 28.695312 14.21875 29.28125 14.289062 C 29.753906 14.34375 30.199219 14.46875 30.625 14.671875 C 31.042969 14.875 31.386719 15.164062 31.679688 15.519531 C 31.699219 15.542969 31.71875 15.566406 31.761719 15.617188 C 31.878906 15.148438 31.925781 14.695312 32.042969 14.253906 C 32.960938 14.253906 33.863281 14.253906 34.78125 14.253906 C 34.78125 17.53125 34.78125 20.804688 34.78125 24.101562 "/>
<path style=" stroke:none;fill-rule:nonzero;fill:rgb(13.729858%,12.159729%,12.548828%);fill-opacity:1;" d="M 17.664062 9.09375 C 17.664062 10.011719 17.664062 10.914062 17.664062 11.84375 C 17.558594 11.847656 17.464844 11.855469 17.371094 11.851562 C 16.988281 11.847656 16.609375 11.894531 16.246094 12.027344 C 15.65625 12.246094 15.292969 12.660156 15.152344 13.277344 C 15.082031 13.574219 15.105469 13.875 15.097656 14.171875 C 15.175781 14.238281 15.257812 14.210938 15.332031 14.214844 C 16.121094 14.214844 16.910156 14.214844 17.699219 14.214844 C 17.777344 14.214844 17.855469 14.214844 17.925781 14.214844 C 17.972656 14.414062 17.988281 16.597656 17.949219 17.074219 C 17.660156 17.09375 17.371094 17.082031 17.078125 17.082031 C 16.785156 17.085938 16.488281 17.082031 16.195312 17.082031 C 15.902344 17.082031 15.609375 17.082031 15.289062 17.082031 C 15.289062 19.429688 15.289062 21.761719 15.289062 24.101562 C 14.074219 24.101562 12.882812 24.101562 11.667969 24.101562 C 11.667969 21.769531 11.667969 19.4375 11.667969 17.085938 C 11.304688 17.085938 10.96875 17.085938 10.632812 17.085938 C 10.59375 16.882812 10.589844 14.464844 10.625 14.21875 C 10.960938 14.21875 11.300781 14.21875 11.664062 14.21875 C 11.664062 14.121094 11.660156 14.042969 11.664062 13.964844 C 11.679688 13.582031 11.667969 13.199219 11.714844 12.820312 C 11.816406 11.980469 12.140625 11.230469 12.714844 10.597656 C 13.371094 9.867188 14.207031 9.453125 15.148438 9.234375 C 15.570312 9.140625 15.992188 9.085938 16.425781 9.085938 C 16.78125 9.085938 17.140625 9.082031 17.5 9.082031 C 17.554688 9.082031 17.605469 9.089844 17.664062 9.09375 "/>
<path style=" stroke:none;fill-rule:nonzero;fill:rgb(13.729858%,12.159729%,12.548828%);fill-opacity:1;" d="M 22.878906 24.105469 C 21.675781 24.105469 20.484375 24.105469 19.28125 24.105469 C 19.28125 19.097656 19.28125 14.097656 19.28125 9.089844 C 20.484375 9.089844 21.675781 9.089844 22.878906 9.089844 C 22.878906 14.097656 22.878906 19.09375 22.878906 24.105469 "/>
<path style=" stroke:none;fill-rule:nonzero;fill:rgb(13.729858%,12.159729%,12.548828%);fill-opacity:1;" d="M 48.085938 14.210938 C 48.085938 15.40625 48.085938 16.574219 48.085938 17.742188 C 47.820312 17.742188 47.554688 17.730469 47.289062 17.746094 C 46.902344 17.765625 46.535156 17.871094 46.210938 18.082031 C 45.738281 18.386719 45.460938 18.828125 45.320312 19.363281 C 45.226562 19.726562 45.1875 20.097656 45.1875 20.46875 C 45.183594 21.585938 45.1875 22.699219 45.1875 23.816406 C 45.1875 23.902344 45.1875 23.988281 45.1875 24.074219 C 44.980469 24.113281 42.355469 24.128906 41.703125 24.09375 C 41.667969 23.863281 41.691406 23.625 41.6875 23.390625 C 41.679688 23.160156 41.683594 22.929688 41.683594 22.699219 C 41.683594 22.457031 41.683594 22.21875 41.683594 21.980469 C 41.683594 21.75 41.683594 21.519531 41.683594 21.289062 C 41.683594 21.046875 41.683594 20.808594 41.683594 20.570312 C 41.683594 20.339844 41.683594 20.109375 41.683594 19.878906 C 41.683594 19.640625 41.683594 19.402344 41.683594 19.160156 C 41.683594 18.929688 41.683594 18.699219 41.683594 18.46875 C 41.683594 18.230469 41.683594 17.992188 41.683594 17.75 C 41.683594 17.519531 41.683594 17.289062 41.683594 17.058594 C 41.683594 16.820312 41.683594 16.582031 41.683594 16.34375 C 41.683594 16.109375 41.683594 15.878906 41.683594 15.648438 C 41.683594 15.410156 41.683594 15.171875 41.683594 14.933594 C 41.683594 14.703125 41.683594 14.472656 41.683594 14.242188 C 41.867188 14.207031 44.292969 14.195312 44.621094 14.230469 C 44.714844 14.675781 44.808594 15.128906 44.90625 15.605469 C 45.023438 15.46875 45.117188 15.351562 45.214844 15.238281 C 45.613281 14.792969 46.113281 14.511719 46.691406 14.367188 C 47.136719 14.253906 47.597656 14.222656 48.085938 14.210938 "/>
<path style=" stroke:none;fill-rule:nonzero;fill:rgb(13.729858%,12.159729%,12.548828%);fill-opacity:1;" d="M 40.066406 24.09375 C 38.835938 24.09375 37.636719 24.09375 36.425781 24.09375 C 36.425781 20.800781 36.425781 17.519531 36.425781 14.242188 C 36.617188 14.203125 39.414062 14.1875 40.03125 14.222656 C 40.035156 14.226562 40.042969 14.230469 40.046875 14.238281 C 40.050781 14.242188 40.058594 14.25 40.058594 14.257812 C 40.0625 14.304688 40.066406 14.351562 40.066406 14.398438 C 40.066406 17.625 40.066406 20.851562 40.066406 24.09375 "/>
<path style=" stroke:none;fill-rule:nonzero;fill:rgb(13.729858%,12.159729%,12.548828%);fill-opacity:1;" d="M 38.261719 8.984375 C 39.34375 8.953125 40.324219 9.898438 40.304688 11.078125 C 40.285156 12.191406 39.355469 13.125 38.207031 13.109375 C 37.101562 13.09375 36.167969 12.15625 36.175781 11.015625 C 36.183594 9.933594 37.117188 8.941406 38.261719 8.984375 "/>
</g>
</svg>
