<?xml version="1.0" encoding="UTF-8"?>
<svg xmlns="http://www.w3.org/2000/svg" xmlns:xlink="http://www.w3.org/1999/xlink" width="56pt" height="56pt" viewBox="0 0 56 56" version="1.1">
<g id="surface1">
<rect x="0" y="0" width="56" height="56" style="fill:rgb(95.666504%,95.776367%,96.775818%);fill-opacity:1;stroke:none;"/>
<path style=" stroke:none;fill-rule:nonzero;fill:rgb(92.494202%,1.40686%,55.52063%);fill-opacity:1;" d="M 2.539062 29.191406 C 2.621094 28.121094 2.707031 27.050781 2.789062 25.980469 C 2.820312 25.570312 2.851562 25.160156 2.875 24.753906 C 2.914062 24.144531 2.945312 23.535156 2.980469 22.929688 C 3.011719 22.449219 3.042969 21.96875 3.078125 21.488281 C 3.082031 21.4375 3.113281 21.386719 3.125 21.339844 C 3.449219 21.273438 8.582031 21.253906 9.257812 21.316406 C 9.292969 21.855469 9.128906 22.390625 9.195312 22.972656 C 7.839844 22.972656 6.542969 22.972656 5.214844 22.972656 C 5.160156 23.597656 5.109375 24.1875 5.054688 24.816406 C 5.457031 24.882812 5.851562 24.839844 6.238281 24.847656 C 6.636719 24.855469 7.035156 24.851562 7.429688 24.851562 C 7.828125 24.851562 8.222656 24.851562 8.636719 24.851562 C 8.773438 25.40625 8.539062 25.917969 8.605469 26.480469 C 7.363281 26.480469 6.175781 26.480469 4.964844 26.480469 C 4.792969 27.699219 4.808594 28.902344 4.65625 30.109375 C 4.296875 30.199219 3.929688 30.144531 3.566406 30.148438 C 3.199219 30.15625 2.832031 30.140625 2.460938 30.136719 C 2.460938 30.050781 2.460938 29.964844 2.460938 29.882812 C 2.625 29.664062 2.523438 29.421875 2.539062 29.191406 "/>
<path style=" stroke:none;fill-rule:nonzero;fill:rgb(92.494202%,1.40686%,55.52063%);fill-opacity:1;" d="M 2.539062 29.191406 C 2.523438 29.421875 2.625 29.664062 2.460938 29.882812 C 2.460938 29.65625 2.460938 29.425781 2.460938 29.199219 C 2.488281 29.199219 2.511719 29.195312 2.539062 29.191406 "/>
<path style=" stroke:none;fill-rule:nonzero;fill:rgb(27.186584%,58.413696%,84.403992%);fill-opacity:1;" d="M 18.785156 29.648438 C 18.828125 28.972656 18.867188 28.296875 18.910156 27.640625 C 19.101562 27.539062 19.222656 27.640625 19.324219 27.722656 C 19.929688 28.21875 20.640625 28.488281 21.394531 28.648438 C 22.03125 28.78125 22.679688 28.753906 23.3125 28.589844 C 23.570312 28.523438 23.757812 28.347656 23.914062 28.113281 C 23.917969 28.058594 23.921875 27.988281 23.929688 27.917969 C 23.960938 27.570312 23.804688 27.34375 23.484375 27.234375 C 23.21875 27.140625 22.949219 27.054688 22.675781 26.988281 C 22.183594 26.867188 21.683594 26.777344 21.195312 26.640625 C 20.648438 26.484375 20.136719 26.253906 19.730469 25.824219 C 19.417969 25.488281 19.242188 25.101562 19.234375 24.644531 C 19.230469 24.160156 19.210938 23.6875 19.445312 23.234375 C 19.636719 22.871094 19.898438 22.582031 20.210938 22.335938 C 20.738281 21.910156 21.355469 21.660156 22.015625 21.539062 C 22.800781 21.398438 23.585938 21.410156 24.378906 21.515625 C 25.027344 21.597656 25.652344 21.75 26.300781 22.003906 C 26.261719 22.648438 26.222656 23.300781 26.1875 23.914062 C 25.984375 24.0625 25.886719 23.945312 25.769531 23.867188 C 25.246094 23.519531 24.699219 23.226562 24.078125 23.105469 C 23.464844 22.992188 22.847656 22.960938 22.242188 23.15625 C 21.96875 23.246094 21.71875 23.375 21.550781 23.660156 C 21.550781 23.789062 21.550781 23.945312 21.550781 24.105469 C 21.695312 24.386719 21.953125 24.527344 22.253906 24.59375 C 22.789062 24.714844 23.328125 24.816406 23.859375 24.949219 C 24.398438 25.082031 24.933594 25.246094 25.390625 25.558594 C 25.871094 25.886719 26.1875 26.328125 26.242188 26.953125 C 26.296875 27.550781 26.222656 28.105469 25.917969 28.617188 C 25.636719 29.085938 25.230469 29.445312 24.757812 29.71875 C 24.085938 30.105469 23.347656 30.285156 22.574219 30.304688 C 22.136719 30.316406 21.695312 30.328125 21.257812 30.300781 C 20.40625 30.246094 19.59375 30.039062 18.785156 29.648438 "/>
<path style=" stroke:none;fill-rule:nonzero;fill:rgb(92.494202%,1.40686%,55.52063%);fill-opacity:1;" d="M 13.117188 36.703125 C 13.074219 36.734375 13.03125 36.769531 12.96875 36.8125 C 12.375 36.429688 11.960938 35.859375 11.375 35.421875 C 12.21875 33.679688 13.054688 31.953125 13.898438 30.203125 C 13.246094 28.074219 12.59375 25.941406 11.933594 23.78125 C 12.636719 23.78125 13.308594 23.78125 14.035156 23.78125 C 14.421875 25.117188 14.808594 26.46875 15.195312 27.816406 C 15.21875 27.820312 15.242188 27.824219 15.269531 27.828125 C 15.816406 26.488281 16.367188 25.152344 16.910156 23.824219 C 17.238281 23.742188 18.527344 23.730469 18.96875 23.804688 C 18.9375 23.886719 18.914062 23.964844 18.878906 24.035156 C 18.183594 25.523438 17.480469 27.011719 16.785156 28.496094 C 16.011719 30.152344 15.242188 31.808594 14.472656 33.464844 C 14.304688 33.824219 14.136719 34.183594 13.96875 34.542969 C 13.785156 34.9375 13.605469 35.332031 13.425781 35.726562 C 13.300781 35.996094 13.175781 36.265625 13.066406 36.535156 C 13.046875 36.578125 13.097656 36.648438 13.117188 36.703125 "/>
<path style=" stroke:none;fill-rule:nonzero;fill:rgb(27.186584%,58.413696%,84.403992%);fill-opacity:1;" d="M 28.691406 28.527344 C 29.210938 29.109375 30.230469 29.074219 30.882812 28.492188 C 31.011719 28.066406 31.015625 27.636719 30.976562 27.15625 C 30.609375 27.195312 30.265625 27.21875 29.921875 27.273438 C 29.6875 27.308594 29.449219 27.359375 29.230469 27.449219 C 28.890625 27.582031 28.675781 27.832031 28.691406 28.226562 C 28.695312 28.324219 28.691406 28.421875 28.691406 28.527344 Z M 27.371094 25.441406 C 27.257812 24.910156 27.40625 24.414062 27.433594 23.859375 C 27.621094 23.820312 27.824219 23.765625 28.027344 23.734375 C 28.414062 23.675781 28.804688 23.621094 29.195312 23.574219 C 29.472656 23.542969 29.757812 23.488281 30.035156 23.503906 C 30.582031 23.539062 31.136719 23.570312 31.671875 23.691406 C 32.3125 23.832031 32.867188 24.15625 33.097656 24.828125 C 33.25 25.265625 33.230469 25.71875 33.179688 26.171875 C 33.171875 26.257812 33.136719 26.335938 33.132812 26.417969 C 33.097656 27.027344 33.074219 27.632812 33.03125 28.238281 C 32.988281 28.882812 32.929688 29.527344 32.875 30.191406 C 32.1875 30.191406 31.539062 30.191406 30.847656 30.191406 C 30.835938 29.992188 30.824219 29.789062 30.8125 29.5625 C 30.605469 29.691406 30.425781 29.800781 30.253906 29.921875 C 29.90625 30.164062 29.515625 30.246094 29.105469 30.320312 C 28.738281 30.386719 28.382812 30.382812 28.019531 30.308594 C 27.335938 30.167969 26.652344 29.558594 26.582031 28.914062 C 26.449219 27.738281 26.742188 26.933594 27.992188 26.414062 C 28.550781 26.179688 29.152344 26.078125 29.761719 26.042969 C 30.199219 26.015625 30.632812 25.964844 31.066406 25.921875 C 31.183594 25.632812 31.066406 25.28125 30.753906 25.175781 C 30.425781 25.0625 30.078125 24.988281 29.730469 24.953125 C 29.109375 24.882812 28.53125 25.089844 27.953125 25.269531 C 27.765625 25.324219 27.578125 25.378906 27.371094 25.441406 "/>
<path style=" stroke:none;fill-rule:nonzero;fill:rgb(27.186584%,58.413696%,84.403992%);fill-opacity:1;" d="M 42.480469 27.140625 C 41.960938 27.207031 41.496094 27.25 41.042969 27.335938 C 40.832031 27.378906 40.605469 27.46875 40.433594 27.597656 C 40.164062 27.796875 40.070312 28.097656 40.125 28.425781 C 40.175781 28.738281 40.441406 28.875 40.703125 28.921875 C 41.324219 29.027344 41.902344 28.886719 42.382812 28.480469 C 42.414062 28.039062 42.445312 27.621094 42.480469 27.140625 Z M 38.796875 25.410156 C 38.816406 24.863281 38.835938 24.386719 38.851562 23.921875 C 39.15625 23.699219 39.5 23.734375 39.808594 23.671875 C 40.238281 23.585938 40.671875 23.535156 41.105469 23.507812 C 41.699219 23.464844 42.289062 23.542969 42.875 23.644531 C 43.234375 23.707031 43.589844 23.800781 43.90625 24.007812 C 44.378906 24.320312 44.632812 24.761719 44.621094 25.324219 C 44.609375 26.183594 44.574219 27.046875 44.527344 27.90625 C 44.488281 28.597656 44.417969 29.285156 44.363281 29.972656 C 44.359375 30.027344 44.339844 30.082031 44.320312 30.179688 C 43.667969 30.253906 43.011719 30.203125 42.339844 30.214844 C 42.324219 29.972656 42.3125 29.78125 42.300781 29.546875 C 42.179688 29.625 42.082031 29.675781 41.996094 29.742188 C 41.464844 30.160156 40.839844 30.351562 40.183594 30.375 C 39.554688 30.398438 38.957031 30.242188 38.484375 29.757812 C 38.054688 29.3125 37.921875 28.777344 38.003906 28.199219 C 38.042969 27.898438 38.160156 27.59375 38.300781 27.324219 C 38.519531 26.886719 38.921875 26.640625 39.359375 26.460938 C 39.980469 26.210938 40.625 26.074219 41.292969 26.039062 C 41.699219 26.019531 42.105469 25.964844 42.515625 25.921875 C 42.609375 25.574219 42.53125 25.371094 42.234375 25.191406 C 41.90625 24.996094 41.535156 24.980469 41.171875 24.949219 C 40.671875 24.90625 40.195312 25.035156 39.71875 25.175781 C 39.476562 25.25 39.238281 25.335938 38.992188 25.40625 C 38.933594 25.425781 38.867188 25.410156 38.796875 25.410156 "/>
<path style=" stroke:none;fill-rule:nonzero;fill:rgb(92.494202%,1.40686%,55.52063%);fill-opacity:1;" d="M 51.515625 34.230469 C 50.753906 34.078125 49.996094 33.90625 49.234375 33.769531 C 48.429688 33.621094 47.621094 33.492188 46.8125 33.371094 C 46.03125 33.253906 45.246094 33.15625 44.460938 33.050781 C 44.15625 33.011719 43.84375 32.984375 43.535156 32.960938 C 43.085938 32.921875 42.632812 32.890625 42.179688 32.863281 C 41.320312 32.808594 40.460938 32.757812 39.597656 32.710938 C 39.484375 32.703125 39.371094 32.703125 39.257812 32.703125 C 38.050781 32.703125 36.847656 32.675781 35.640625 32.707031 C 34.410156 32.734375 33.179688 32.796875 31.953125 32.878906 C 30.992188 32.9375 30.035156 33.023438 29.082031 33.132812 C 28.074219 33.242188 27.066406 33.382812 26.0625 33.527344 C 25.097656 33.664062 24.132812 33.804688 23.175781 33.976562 C 22.148438 34.164062 21.125 34.375 20.105469 34.601562 C 19.019531 34.847656 17.941406 35.132812 16.859375 35.398438 C 17.03125 34.890625 17.203125 34.378906 17.386719 33.835938 C 17.261719 33.816406 17.183594 33.804688 17.101562 33.792969 C 17.550781 33.683594 17.996094 33.550781 18.449219 33.46875 C 19.738281 33.222656 21.03125 32.988281 22.328125 32.773438 C 23.246094 32.617188 24.167969 32.480469 25.09375 32.367188 C 25.804688 32.277344 26.527344 32.234375 27.246094 32.171875 C 28.144531 32.09375 29.046875 32.019531 29.949219 31.941406 C 29.988281 31.9375 30.03125 31.9375 30.078125 31.9375 C 31.777344 31.90625 33.476562 31.863281 35.175781 31.855469 C 35.996094 31.851562 36.820312 31.890625 37.640625 31.941406 C 38.710938 32.007812 39.785156 32.078125 40.851562 32.195312 C 42.101562 32.332031 43.34375 32.511719 44.589844 32.683594 C 46.183594 32.902344 47.765625 33.21875 49.332031 33.589844 C 50.113281 33.777344 50.894531 33.96875 51.679688 34.15625 C 51.621094 34.179688 51.570312 34.207031 51.515625 34.230469 "/>
<path style=" stroke:none;fill-rule:nonzero;fill:rgb(27.186584%,58.413696%,84.403992%);fill-opacity:1;" d="M 36.78125 21.1875 C 37.296875 21.1875 37.808594 21.1875 38.324219 21.1875 C 38.503906 21.203125 38.683594 21.21875 38.902344 21.234375 C 38.867188 21.746094 38.835938 22.21875 38.800781 22.734375 C 38.542969 22.6875 38.304688 22.664062 38.082031 22.601562 C 37.761719 22.511719 37.464844 22.59375 37.175781 22.707031 C 36.859375 22.828125 36.710938 23.175781 36.746094 23.660156 C 37.246094 23.660156 37.753906 23.660156 38.304688 23.660156 C 38.28125 23.933594 38.25 24.164062 38.238281 24.394531 C 38.226562 24.617188 38.238281 24.84375 38.238281 25.101562 C 37.710938 25.101562 37.234375 25.101562 36.789062 25.101562 C 36.605469 25.28125 36.628906 25.46875 36.617188 25.652344 C 36.589844 26.285156 36.5625 26.921875 36.523438 27.554688 C 36.472656 28.332031 36.414062 29.105469 36.351562 29.878906 C 36.34375 29.980469 36.316406 30.085938 36.296875 30.171875 C 35.589844 30.15625 34.933594 30.144531 34.242188 30.128906 C 34.242188 29.949219 34.234375 29.792969 34.246094 29.640625 C 34.261719 29.390625 34.292969 29.136719 34.316406 28.886719 C 34.371094 28.210938 34.425781 27.535156 34.476562 26.859375 C 34.511719 26.382812 34.539062 25.902344 34.566406 25.421875 C 34.574219 25.339844 34.570312 25.257812 34.570312 25.121094 C 34.285156 25.121094 34.027344 25.121094 33.746094 25.121094 C 33.683594 24.621094 33.726562 24.179688 33.832031 23.714844 C 34.070312 23.605469 34.347656 23.714844 34.636719 23.636719 C 34.671875 23.484375 34.714844 23.324219 34.738281 23.160156 C 34.910156 22.035156 35.558594 21.332031 36.78125 21.1875 "/>
<path style=" stroke:none;fill-rule:nonzero;fill:rgb(92.494202%,1.40686%,55.52063%);fill-opacity:1;" d="M 11.136719 30.222656 C 10.445312 30.332031 9.792969 30.300781 9.117188 30.257812 C 9.117188 29.984375 9.105469 29.773438 9.121094 29.5625 C 9.171875 28.789062 9.226562 28.011719 9.285156 27.238281 C 9.359375 26.28125 9.445312 25.324219 9.515625 24.367188 C 9.554688 23.863281 9.578125 23.351562 9.613281 22.84375 C 9.644531 22.339844 9.683594 21.835938 9.722656 21.292969 C 10.070312 21.261719 10.410156 21.28125 10.742188 21.277344 C 11.082031 21.273438 11.421875 21.277344 11.742188 21.277344 C 11.777344 21.324219 11.808594 21.347656 11.804688 21.367188 C 11.738281 22.28125 11.664062 23.195312 11.59375 24.109375 C 11.5625 24.53125 11.53125 24.957031 11.503906 25.378906 C 11.464844 26 11.4375 26.621094 11.398438 27.242188 C 11.34375 28.128906 11.28125 29.019531 11.21875 29.90625 C 11.214844 30 11.171875 30.09375 11.136719 30.222656 "/>
<path style=" stroke:none;fill-rule:nonzero;fill:rgb(27.186584%,58.413696%,84.403992%);fill-opacity:1;" d="M 50.484375 30.199219 C 49.765625 30.199219 49.089844 30.199219 48.378906 30.199219 C 48.402344 29.992188 48.4375 29.820312 48.449219 29.644531 C 48.484375 28.992188 48.503906 28.34375 48.546875 27.695312 C 48.585938 27.164062 48.648438 26.632812 48.699219 26.097656 C 48.707031 26.027344 48.703125 25.957031 48.707031 25.886719 C 48.738281 25.265625 48.769531 24.644531 48.804688 24.023438 C 48.808594 23.945312 48.84375 23.867188 48.871094 23.769531 C 49.546875 23.769531 50.207031 23.769531 50.898438 23.769531 C 50.898438 24.039062 50.898438 24.300781 50.898438 24.589844 C 51.058594 24.570312 51.164062 24.457031 51.285156 24.371094 C 51.957031 23.90625 52.640625 23.621094 53.535156 23.789062 C 53.519531 24.101562 53.503906 24.417969 53.476562 24.734375 C 53.453125 25.042969 53.417969 25.347656 53.386719 25.699219 C 53.21875 25.699219 53.0625 25.726562 52.917969 25.695312 C 52.1875 25.53125 51.492188 25.667969 50.78125 25.910156 C 50.773438 26.035156 50.765625 26.160156 50.757812 26.285156 C 50.703125 26.957031 50.648438 27.632812 50.59375 28.304688 C 50.585938 28.417969 50.59375 28.53125 50.585938 28.644531 C 50.554688 29.152344 50.523438 29.65625 50.484375 30.199219 "/>
<path style=" stroke:none;fill-rule:nonzero;fill:rgb(27.186584%,58.413696%,84.403992%);fill-opacity:1;" d="M 47.308594 30.15625 C 46.632812 30.15625 45.972656 30.15625 45.28125 30.15625 C 45.292969 29.753906 45.304688 29.335938 45.328125 28.921875 C 45.335938 28.738281 45.371094 28.558594 45.386719 28.375 C 45.441406 27.703125 45.492188 27.027344 45.546875 26.355469 C 45.550781 26.3125 45.550781 26.269531 45.550781 26.226562 C 45.585938 25.578125 45.609375 24.929688 45.652344 24.28125 C 45.664062 24.085938 45.714844 23.898438 45.753906 23.667969 C 46.09375 23.667969 46.417969 23.667969 46.738281 23.667969 C 47.066406 23.667969 47.390625 23.667969 47.730469 23.667969 C 47.816406 23.996094 47.765625 24.304688 47.753906 24.609375 C 47.746094 24.804688 47.707031 25 47.691406 25.195312 C 47.632812 25.871094 47.582031 26.542969 47.527344 27.21875 C 47.523438 27.261719 47.527344 27.300781 47.523438 27.34375 C 47.492188 27.992188 47.464844 28.644531 47.425781 29.289062 C 47.40625 29.554688 47.355469 29.820312 47.308594 30.15625 "/>
<path style=" stroke:none;fill-rule:nonzero;fill:rgb(27.186584%,58.413696%,84.403992%);fill-opacity:1;" d="M 45.710938 22.761719 C 45.753906 22.238281 45.792969 21.738281 45.835938 21.214844 C 46.558594 21.214844 47.261719 21.214844 48.007812 21.214844 C 48.085938 21.730469 47.886719 22.230469 47.929688 22.726562 C 47.585938 22.820312 46.324219 22.839844 45.710938 22.761719 "/>
<path style=" stroke:none;fill-rule:nonzero;fill:rgb(73.127747%,7.017517%,45.005798%);fill-opacity:1;" d="M 17.101562 33.792969 C 17.183594 33.804688 17.261719 33.816406 17.386719 33.835938 C 17.203125 34.378906 17.03125 34.890625 16.859375 35.398438 C 16.347656 35.546875 15.835938 35.699219 15.324219 35.847656 C 15.34375 35.753906 15.347656 35.652344 15.378906 35.5625 C 15.515625 35.164062 15.65625 34.773438 15.800781 34.378906 C 15.839844 34.273438 15.847656 34.1875 15.734375 34.128906 C 16.191406 34.019531 16.644531 33.90625 17.101562 33.792969 "/>
<path style=" stroke:none;fill-rule:nonzero;fill:rgb(64.785767%,8.360291%,39.080811%);fill-opacity:1;" d="M 15.734375 34.128906 C 15.847656 34.1875 15.839844 34.273438 15.800781 34.378906 C 15.65625 34.773438 15.515625 35.164062 15.378906 35.5625 C 15.347656 35.652344 15.34375 35.753906 15.324219 35.847656 C 14.902344 35.992188 14.476562 36.140625 14.054688 36.289062 C 14.078125 36.167969 14.09375 36.042969 14.132812 35.929688 C 14.253906 35.589844 14.386719 35.257812 14.507812 34.917969 C 14.5625 34.761719 14.628906 34.597656 14.453125 34.46875 C 14.878906 34.355469 15.304688 34.242188 15.734375 34.128906 "/>
<path style=" stroke:none;fill-rule:nonzero;fill:rgb(53.781128%,8.320618%,31.047058%);fill-opacity:1;" d="M 14.453125 34.46875 C 14.628906 34.597656 14.5625 34.761719 14.507812 34.917969 C 14.386719 35.257812 14.253906 35.589844 14.132812 35.929688 C 14.09375 36.042969 14.078125 36.167969 14.054688 36.289062 C 13.742188 36.425781 13.429688 36.566406 13.117188 36.703125 C 13.097656 36.648438 13.046875 36.578125 13.066406 36.535156 C 13.175781 36.265625 13.300781 35.996094 13.425781 35.726562 C 13.605469 35.332031 13.785156 34.9375 13.96875 34.542969 C 14.019531 34.546875 14.066406 34.554688 14.117188 34.558594 C 14.179688 34.539062 14.238281 34.519531 14.300781 34.496094 C 14.351562 34.484375 14.402344 34.476562 14.453125 34.46875 "/>
<path style=" stroke:none;fill-rule:nonzero;fill:rgb(92.494202%,1.40686%,55.52063%);fill-opacity:1;" d="M 14.300781 34.496094 C 14.238281 34.519531 14.179688 34.539062 14.117188 34.558594 C 14.179688 34.539062 14.238281 34.519531 14.300781 34.496094 "/>
</g>
</svg>
