<?xml version="1.0" encoding="UTF-8"?>
<svg xmlns="http://www.w3.org/2000/svg" xmlns:xlink="http://www.w3.org/1999/xlink" width="56pt" height="56pt" viewBox="0 0 56 56" version="1.1">
<g id="surface1">
<rect x="0" y="0" width="56" height="56" style="fill:rgb(87.510681%,9.54895%,22.375488%);fill-opacity:1;stroke:none;"/>
<path style=" stroke:none;fill-rule:nonzero;fill:rgb(100%,100%,100%);fill-opacity:1;" d="M 52.421875 14.160156 C 52.71875 14.140625 43.265625 13.691406 40.234375 14.285156 C 37.195312 14.867188 34.335938 15.261719 31.539062 19.296875 C 28.742188 23.304688 26.214844 27.355469 24.546875 29.675781 C 19.292969 36.96875 19.292969 38.132812 13.457031 38.652344 C 10.328125 38.929688 9.492188 38.769531 8.703125 38.402344 C 7.734375 37.933594 7.277344 37.40625 5.933594 38.472656 C 4.390625 39.710938 2.265625 39.40625 2.320312 39.59375 L 46.878906 39.59375 C 46.878906 39.59375 49.039062 39.667969 49.800781 38.300781 L 48.691406 37.890625 C 48.691406 37.890625 48.449219 39.308594 44.019531 38.886719 C 39.597656 38.472656 33.816406 37.378906 33.816406 37.378906 L 47.535156 18.015625 C 48.386719 16.957031 49.550781 15.851562 50.660156 14.867188 C 50.660156 14.867188 45.121094 15.449219 42.789062 18.828125 C 40.421875 22.261719 29.917969 36.671875 29.917969 36.671875 L 29.199219 36.554688 L 42.621094 17.898438 C 42.628906 17.890625 44.59375 14.742188 52.421875 14.160156 M 6.667969 38.878906 C 6.667969 38.878906 7.007812 38.472656 7.296875 38.472656 C 7.609375 38.472656 7.886719 38.878906 7.886719 38.878906 L 6.667969 38.878906 "/>
<path style=" stroke:none;fill-rule:nonzero;fill:rgb(100%,100%,100%);fill-opacity:1;" d="M 7.285156 36.617188 C 6.5 36.617188 5.851562 37.632812 5.851562 37.632812 L 8.746094 37.632812 C 8.738281 37.640625 8.074219 36.617188 7.285156 36.617188 "/>
</g>
</svg>
