<?xml version="1.0" encoding="UTF-8"?>
<svg xmlns="http://www.w3.org/2000/svg" xmlns:xlink="http://www.w3.org/1999/xlink" width="56pt" height="56pt" viewBox="0 0 56 56" version="1.1">
<defs>
<clipPath id="clip1">
  <path d="M 6 11 L 44 11 L 44 48 L 6 48 Z M 6 11 "/>
</clipPath>
<clipPath id="clip2">
  <path d="M 28.894531 31.890625 C 28.878906 31.890625 28.863281 31.863281 28.851562 31.851562 C 28.867188 31.835938 28.878906 31.816406 28.898438 31.808594 C 28.910156 31.808594 28.925781 31.828125 28.949219 31.84375 C 28.925781 31.867188 28.910156 31.890625 28.894531 31.890625 Z M 43.554688 25.117188 C 43.546875 24.90625 43.515625 24.695312 43.488281 24.484375 C 43.457031 24.246094 43.417969 24.007812 43.378906 23.769531 C 43.300781 23.351562 43.226562 22.933594 43.132812 22.523438 C 43.074219 22.257812 42.992188 21.996094 42.90625 21.738281 C 42.8125 21.449219 42.703125 21.167969 42.601562 20.882812 C 42.402344 20.441406 42.222656 19.988281 42.003906 19.558594 C 41.78125 19.128906 41.53125 18.714844 41.265625 18.308594 C 41.019531 17.933594 40.761719 17.566406 40.46875 17.230469 C 40.082031 16.785156 39.65625 16.371094 39.242188 15.949219 C 39.128906 15.832031 38.984375 15.738281 38.855469 15.636719 C 38.738281 15.539062 38.625 15.441406 38.503906 15.347656 C 38.371094 15.246094 38.242188 15.144531 38.105469 15.050781 C 37.902344 14.90625 37.683594 14.78125 37.480469 14.632812 C 37.023438 14.292969 36.535156 14.007812 36.023438 13.757812 C 35.617188 13.5625 35.210938 13.378906 34.796875 13.207031 C 34.425781 13.050781 34.050781 12.898438 33.667969 12.777344 C 33.214844 12.628906 32.75 12.515625 32.292969 12.382812 C 31.679688 12.203125 31.054688 12.09375 30.425781 11.980469 C 30.160156 11.933594 29.886719 11.917969 29.617188 11.871094 C 29.253906 11.804688 28.886719 11.765625 28.511719 11.75 C 28.234375 11.738281 27.957031 11.707031 27.675781 11.691406 C 27.292969 11.664062 26.90625 11.621094 26.519531 11.621094 C 25.929688 11.621094 25.335938 11.644531 24.746094 11.664062 C 24.464844 11.675781 24.183594 11.695312 23.90625 11.71875 C 23.589844 11.742188 23.273438 11.769531 22.957031 11.800781 C 22.820312 11.8125 22.6875 11.832031 22.550781 11.847656 C 22.453125 11.859375 22.355469 11.875 22.257812 11.886719 C 22.042969 11.917969 21.828125 11.949219 21.609375 11.980469 C 21.519531 11.996094 21.425781 12.011719 21.332031 12.027344 C 21.199219 12.042969 21.0625 12.058594 20.925781 12.078125 C 20.800781 12.09375 20.664062 12.089844 20.546875 12.136719 C 20.257812 12.257812 19.941406 12.242188 19.644531 12.332031 C 19.214844 12.464844 18.757812 12.523438 18.316406 12.613281 C 18.261719 12.621094 18.210938 12.628906 18.160156 12.644531 C 17.863281 12.726562 17.566406 12.8125 17.269531 12.894531 C 16.96875 12.980469 16.671875 13.058594 16.371094 13.148438 C 16.152344 13.214844 15.933594 13.300781 15.710938 13.375 C 15.445312 13.460938 15.171875 13.535156 14.910156 13.632812 C 14.378906 13.832031 13.851562 14.042969 13.324219 14.25 C 13.113281 14.332031 12.898438 14.40625 12.691406 14.503906 C 12.113281 14.769531 11.539062 15.042969 10.964844 15.316406 C 10.828125 15.492188 10.695312 15.667969 10.558594 15.84375 C 10.523438 15.894531 10.484375 15.9375 10.449219 15.988281 C 9.699219 17.085938 9.050781 18.242188 8.523438 19.460938 C 8.300781 19.980469 8.117188 20.519531 7.914062 21.050781 C 7.871094 21.175781 7.828125 21.300781 7.785156 21.425781 C 7.777344 21.441406 7.777344 21.453125 7.78125 21.464844 C 7.628906 21.980469 7.464844 22.488281 7.332031 23.007812 C 7.214844 23.46875 7.125 23.9375 7.042969 24.40625 C 6.984375 24.71875 6.957031 25.03125 6.914062 25.347656 C 6.894531 25.488281 6.863281 25.628906 6.851562 25.773438 C 6.824219 26.148438 6.804688 26.527344 6.78125 26.90625 C 6.734375 27.617188 6.71875 28.335938 6.78125 29.046875 C 6.804688 29.449219 6.824219 29.847656 6.855469 30.246094 C 6.863281 30.367188 6.894531 30.484375 6.914062 30.601562 C 6.929688 30.710938 6.945312 30.820312 6.957031 30.929688 C 6.960938 30.957031 6.960938 30.984375 6.964844 31.011719 C 7.007812 31.273438 7.050781 31.535156 7.09375 31.796875 C 7.089844 31.808594 7.089844 31.820312 7.09375 31.835938 C 7.15625 32.136719 7.21875 32.441406 7.28125 32.746094 C 7.34375 32.976562 7.402344 33.207031 7.460938 33.433594 C 7.460938 33.449219 7.460938 33.464844 7.46875 33.476562 C 7.511719 33.632812 7.554688 33.785156 7.597656 33.941406 C 7.59375 33.953125 7.59375 33.964844 7.601562 33.976562 C 7.660156 34.160156 7.722656 34.34375 7.78125 34.53125 C 7.78125 34.542969 7.78125 34.558594 7.789062 34.570312 C 7.953125 35.027344 8.117188 35.484375 8.285156 35.941406 C 8.449219 36.320312 8.605469 36.707031 8.777344 37.082031 C 9.242188 38.105469 9.816406 39.070312 10.445312 39.996094 C 10.492188 40.066406 10.550781 40.125 10.601562 40.191406 C 10.636719 40.234375 10.667969 40.28125 10.699219 40.332031 C 10.742188 40.390625 10.785156 40.453125 10.828125 40.511719 C 10.914062 40.632812 10.996094 40.757812 11.089844 40.875 C 11.292969 41.132812 11.503906 41.386719 11.707031 41.640625 C 11.75 41.691406 11.792969 41.738281 11.835938 41.785156 C 11.863281 41.832031 11.886719 41.878906 11.921875 41.917969 C 12.109375 42.125 12.292969 42.335938 12.484375 42.535156 C 13.265625 43.355469 14.09375 44.128906 14.992188 44.820312 C 15.699219 45.359375 16.425781 45.867188 17.195312 46.3125 C 17.667969 46.589844 18.15625 46.832031 18.636719 47.089844 C 18.679688 47.050781 18.714844 46.996094 18.761719 46.980469 C 19.171875 46.863281 19.585938 46.75 20 46.644531 C 20.324219 46.5625 20.652344 46.460938 20.980469 46.433594 C 21.339844 46.40625 21.6875 46.308594 22.050781 46.285156 C 22.257812 46.273438 22.464844 46.261719 22.671875 46.25 C 22.730469 46.246094 22.785156 46.21875 22.847656 46.207031 C 22.941406 46.1875 23.039062 46.171875 23.136719 46.164062 C 23.21875 46.15625 23.300781 46.167969 23.382812 46.164062 C 24.011719 46.148438 24.640625 46.121094 25.269531 46.117188 C 25.699219 46.117188 26.132812 46.144531 26.5625 46.164062 C 26.621094 46.167969 26.679688 46.1875 26.738281 46.203125 C 26.792969 46.21875 26.851562 46.25 26.910156 46.25 C 27.058594 46.246094 27.222656 46.1875 27.359375 46.230469 C 27.507812 46.28125 27.652344 46.292969 27.800781 46.300781 C 27.898438 46.304688 27.996094 46.328125 28.09375 46.34375 C 28 46.273438 27.910156 46.203125 27.820312 46.140625 C 27.519531 45.933594 27.214844 45.734375 26.921875 45.519531 C 26.589844 45.273438 26.253906 45.019531 25.9375 44.75 C 25.625 44.488281 25.320312 44.207031 25.082031 43.875 C 24.824219 43.515625 24.609375 43.128906 24.464844 42.699219 C 24.347656 42.351562 24.355469 42 24.292969 41.652344 C 24.273438 41.53125 24.347656 41.398438 24.34375 41.269531 C 24.335938 40.933594 24.453125 40.632812 24.582031 40.335938 C 24.742188 39.964844 24.960938 39.628906 25.214844 39.316406 C 25.300781 39.238281 25.386719 39.167969 25.464844 39.085938 C 25.789062 38.761719 26.167969 38.519531 26.574219 38.316406 C 26.96875 38.113281 27.386719 37.988281 27.816406 37.902344 C 27.800781 37.828125 27.785156 37.757812 27.769531 37.683594 C 27.753906 37.636719 27.738281 37.585938 27.722656 37.535156 C 27.582031 37.328125 27.578125 37.085938 27.542969 36.847656 C 27.546875 36.835938 27.542969 36.820312 27.539062 36.804688 C 27.511719 36.675781 27.464844 36.546875 27.453125 36.414062 C 27.4375 36.226562 27.449219 36.039062 27.445312 35.847656 C 27.449219 35.660156 27.4375 35.46875 27.453125 35.28125 C 27.464844 35.152344 27.511719 35.023438 27.539062 34.890625 C 27.542969 34.859375 27.542969 34.832031 27.542969 34.800781 C 27.589844 34.601562 27.632812 34.40625 27.675781 34.207031 C 27.707031 34.128906 27.738281 34.046875 27.769531 33.96875 C 27.800781 33.878906 27.832031 33.792969 27.859375 33.703125 C 27.875 33.671875 27.890625 33.636719 27.90625 33.601562 C 27.925781 33.488281 27.929688 33.367188 28.046875 33.292969 C 27.957031 33.136719 27.957031 33.136719 28.078125 32.949219 C 28.121094 32.957031 28.171875 32.964844 28.222656 32.972656 C 28.289062 32.851562 28.355469 32.730469 28.421875 32.609375 C 28.714844 32.210938 29.035156 31.832031 29.414062 31.511719 C 29.484375 31.441406 29.46875 31.371094 29.398438 31.3125 C 29.5 31.261719 29.539062 31.332031 29.589844 31.371094 C 29.605469 31.355469 29.625 31.34375 29.644531 31.328125 C 29.632812 31.265625 29.625 31.203125 29.617188 31.136719 C 29.710938 31.074219 29.761719 31.171875 29.832031 31.199219 C 29.84375 31.195312 29.859375 31.191406 29.867188 31.179688 C 30 31.105469 30.132812 31.03125 30.261719 30.953125 C 30.804688 30.628906 31.398438 30.4375 32.015625 30.34375 C 32.476562 30.273438 32.949219 30.242188 33.421875 30.304688 C 33.722656 30.347656 34.023438 30.375 34.316406 30.453125 C 34.378906 30.46875 34.421875 30.480469 34.386719 30.554688 C 34.394531 30.59375 34.414062 30.636719 34.414062 30.679688 C 34.410156 30.820312 34.398438 30.964844 34.390625 31.105469 C 34.414062 30.988281 34.453125 30.871094 34.457031 30.75 C 34.464844 30.453125 34.628906 30.222656 34.785156 29.988281 C 34.855469 29.882812 34.9375 29.785156 35.015625 29.679688 C 34.761719 29.613281 34.503906 29.546875 34.246094 29.484375 C 34.191406 29.46875 34.128906 29.460938 34.070312 29.460938 C 33.445312 29.449219 32.828125 29.457031 32.207031 29.542969 C 31.8125 29.59375 31.410156 29.617188 31.011719 29.648438 C 30.527344 29.679688 30.042969 29.734375 29.558594 29.722656 C 28.371094 29.699219 27.226562 29.460938 26.15625 28.9375 C 25.863281 28.792969 25.589844 28.617188 25.304688 28.457031 C 25.246094 28.421875 25.183594 28.398438 25.125 28.367188 C 24.582031 28.015625 24.109375 27.578125 23.671875 27.109375 C 23.242188 26.652344 22.855469 26.160156 22.574219 25.589844 C 22.527344 25.492188 22.457031 25.398438 22.394531 25.304688 C 22.300781 25.085938 22.203125 24.867188 22.109375 24.648438 C 22.074219 24.566406 22.050781 24.480469 22.019531 24.394531 C 21.910156 24.277344 21.90625 24.125 21.886719 23.980469 C 21.871094 23.933594 21.855469 23.890625 21.839844 23.847656 C 21.792969 23.648438 21.746094 23.449219 21.703125 23.25 C 21.703125 23.207031 21.699219 23.160156 21.699219 23.117188 C 21.671875 23.054688 21.625 23 21.617188 22.9375 C 21.59375 22.710938 21.582031 22.476562 21.5625 22.25 C 21.539062 22.222656 21.492188 22.195312 21.492188 22.167969 C 21.484375 22.019531 21.480469 21.871094 21.488281 21.722656 C 21.488281 21.699219 21.535156 21.679688 21.566406 21.65625 C 21.578125 21.609375 21.59375 21.566406 21.609375 21.519531 C 21.539062 21.398438 21.539062 21.277344 21.609375 21.15625 C 21.625 21.125 21.640625 21.09375 21.65625 21.0625 C 21.667969 21.046875 21.683594 21.03125 21.699219 21.019531 C 21.847656 20.261719 22.105469 19.546875 22.476562 18.871094 C 22.726562 18.417969 23.003906 17.984375 23.328125 17.582031 C 23.476562 17.394531 23.59375 17.179688 23.785156 17.027344 C 23.816406 17 23.828125 16.949219 23.851562 16.910156 C 23.828125 16.914062 23.808594 16.917969 23.765625 16.925781 C 23.824219 16.851562 23.871094 16.785156 23.925781 16.730469 C 23.984375 16.671875 24.054688 16.621094 24.136719 16.554688 C 24.128906 16.597656 24.125 16.617188 24.121094 16.640625 C 24.332031 16.484375 24.542969 16.332031 24.753906 16.179688 C 24.75 16.152344 24.738281 16.121094 24.742188 16.097656 C 24.746094 16.082031 24.777344 16.074219 24.796875 16.0625 C 24.796875 16.089844 24.800781 16.113281 24.804688 16.140625 C 24.957031 16.046875 25.109375 15.953125 25.265625 15.863281 C 25.589844 15.714844 25.910156 15.558594 26.238281 15.421875 C 26.832031 15.175781 27.449219 15.039062 28.082031 14.941406 C 28.710938 14.839844 29.339844 14.839844 29.96875 14.871094 C 30.429688 14.894531 30.890625 14.96875 31.34375 15.046875 C 31.761719 15.121094 32.175781 15.214844 32.585938 15.328125 C 32.988281 15.441406 33.382812 15.585938 33.777344 15.71875 C 33.90625 15.761719 34.03125 15.8125 34.160156 15.859375 C 34.269531 15.90625 34.375 15.949219 34.480469 15.992188 C 34.566406 15.921875 34.628906 15.996094 34.699219 16.03125 C 34.671875 16.035156 34.644531 16.039062 34.617188 16.042969 C 34.722656 16.089844 34.828125 16.136719 34.933594 16.179688 C 35.089844 16.132812 35.214844 16.214844 35.335938 16.292969 C 35.335938 16.292969 35.3125 16.339844 35.300781 16.363281 C 35.753906 16.609375 36.207031 16.851562 36.65625 17.105469 C 37.664062 17.671875 38.574219 18.375 39.40625 19.175781 C 39.578125 19.335938 39.730469 19.515625 39.886719 19.691406 C 40.113281 19.953125 40.339844 20.21875 40.558594 20.488281 C 40.710938 20.675781 40.851562 20.871094 41 21.066406 C 41.011719 21.09375 41.015625 21.125 41.03125 21.148438 C 41.457031 21.796875 41.839844 22.472656 42.136719 23.1875 C 42.332031 23.65625 42.523438 24.128906 42.6875 24.609375 C 42.945312 25.367188 43.140625 26.140625 43.289062 26.921875 C 43.378906 27.398438 43.441406 27.878906 43.515625 28.359375 C 43.53125 28.324219 43.554688 28.292969 43.554688 28.257812 C 43.574219 28.023438 43.601562 27.789062 43.601562 27.554688 C 43.59375 26.742188 43.578125 25.929688 43.554688 25.117188 Z M 43.554688 25.117188 "/>
</clipPath>
<clipPath id="clip3">
  <path d="M 28.894531 31.890625 C 28.878906 31.890625 28.863281 31.863281 28.851562 31.851562 C 28.867188 31.835938 28.878906 31.816406 28.898438 31.808594 C 28.910156 31.808594 28.925781 31.828125 28.949219 31.84375 C 28.925781 31.867188 28.910156 31.890625 28.894531 31.890625 Z M 43.554688 25.117188 C 43.546875 24.90625 43.515625 24.695312 43.488281 24.484375 C 43.457031 24.246094 43.417969 24.007812 43.378906 23.769531 C 43.300781 23.351562 43.226562 22.933594 43.132812 22.523438 C 43.074219 22.257812 42.992188 21.996094 42.90625 21.738281 C 42.8125 21.449219 42.703125 21.167969 42.601562 20.882812 C 42.402344 20.441406 42.222656 19.988281 42.003906 19.558594 C 41.78125 19.128906 41.53125 18.714844 41.265625 18.308594 C 41.019531 17.933594 40.761719 17.566406 40.46875 17.230469 C 40.082031 16.785156 39.65625 16.371094 39.242188 15.949219 C 39.128906 15.832031 38.984375 15.738281 38.855469 15.636719 C 38.738281 15.539062 38.625 15.441406 38.503906 15.347656 C 38.371094 15.246094 38.242188 15.144531 38.105469 15.050781 C 37.902344 14.90625 37.683594 14.78125 37.480469 14.632812 C 37.023438 14.292969 36.535156 14.007812 36.023438 13.757812 C 35.617188 13.5625 35.210938 13.378906 34.796875 13.207031 C 34.425781 13.050781 34.050781 12.898438 33.667969 12.777344 C 33.214844 12.628906 32.75 12.515625 32.292969 12.382812 C 31.679688 12.203125 31.054688 12.09375 30.425781 11.980469 C 30.160156 11.933594 29.886719 11.917969 29.617188 11.871094 C 29.253906 11.804688 28.886719 11.765625 28.511719 11.75 C 28.234375 11.738281 27.957031 11.707031 27.675781 11.691406 C 27.292969 11.664062 26.90625 11.621094 26.519531 11.621094 C 25.929688 11.621094 25.335938 11.644531 24.746094 11.664062 C 24.464844 11.675781 24.183594 11.695312 23.90625 11.71875 C 23.589844 11.742188 23.273438 11.769531 22.957031 11.800781 C 22.820312 11.8125 22.6875 11.832031 22.550781 11.847656 C 22.453125 11.859375 22.355469 11.875 22.257812 11.886719 C 22.042969 11.917969 21.828125 11.949219 21.609375 11.980469 C 21.519531 11.996094 21.425781 12.011719 21.332031 12.027344 C 21.199219 12.042969 21.0625 12.058594 20.925781 12.078125 C 20.800781 12.09375 20.664062 12.089844 20.546875 12.136719 C 20.257812 12.257812 19.941406 12.242188 19.644531 12.332031 C 19.214844 12.464844 18.757812 12.523438 18.316406 12.613281 C 18.261719 12.621094 18.210938 12.628906 18.160156 12.644531 C 17.863281 12.726562 17.566406 12.8125 17.269531 12.894531 C 16.96875 12.980469 16.671875 13.058594 16.371094 13.148438 C 16.152344 13.214844 15.933594 13.300781 15.710938 13.375 C 15.445312 13.460938 15.171875 13.535156 14.910156 13.632812 C 14.378906 13.832031 13.851562 14.042969 13.324219 14.25 C 13.113281 14.332031 12.898438 14.40625 12.691406 14.503906 C 12.113281 14.769531 11.539062 15.042969 10.964844 15.316406 C 10.828125 15.492188 10.695312 15.667969 10.558594 15.84375 C 10.523438 15.894531 10.484375 15.9375 10.449219 15.988281 C 9.699219 17.085938 9.050781 18.242188 8.523438 19.460938 C 8.300781 19.980469 8.117188 20.519531 7.914062 21.050781 C 7.871094 21.175781 7.828125 21.300781 7.785156 21.425781 C 7.777344 21.441406 7.777344 21.453125 7.78125 21.464844 C 7.628906 21.980469 7.464844 22.488281 7.332031 23.007812 C 7.214844 23.46875 7.125 23.9375 7.042969 24.40625 C 6.984375 24.71875 6.957031 25.03125 6.914062 25.347656 C 6.894531 25.488281 6.863281 25.628906 6.851562 25.773438 C 6.824219 26.148438 6.804688 26.527344 6.78125 26.90625 C 6.734375 27.617188 6.71875 28.335938 6.78125 29.046875 C 6.804688 29.449219 6.824219 29.847656 6.855469 30.246094 C 6.863281 30.367188 6.894531 30.484375 6.914062 30.601562 C 6.929688 30.710938 6.945312 30.820312 6.957031 30.929688 C 6.960938 30.957031 6.960938 30.984375 6.964844 31.011719 C 7.007812 31.273438 7.050781 31.535156 7.09375 31.796875 C 7.089844 31.808594 7.089844 31.820312 7.09375 31.835938 C 7.15625 32.136719 7.21875 32.441406 7.28125 32.746094 C 7.34375 32.976562 7.402344 33.207031 7.460938 33.433594 C 7.460938 33.449219 7.460938 33.464844 7.46875 33.476562 C 7.511719 33.632812 7.554688 33.785156 7.597656 33.941406 C 7.59375 33.953125 7.59375 33.964844 7.601562 33.976562 C 7.660156 34.160156 7.722656 34.34375 7.78125 34.53125 C 7.78125 34.542969 7.78125 34.558594 7.789062 34.570312 C 7.953125 35.027344 8.117188 35.484375 8.285156 35.941406 C 8.449219 36.320312 8.605469 36.707031 8.777344 37.082031 C 9.242188 38.105469 9.816406 39.070312 10.445312 39.996094 C 10.492188 40.066406 10.550781 40.125 10.601562 40.191406 C 10.636719 40.234375 10.667969 40.28125 10.699219 40.332031 C 10.742188 40.390625 10.785156 40.453125 10.828125 40.511719 C 10.914062 40.632812 10.996094 40.757812 11.089844 40.875 C 11.292969 41.132812 11.503906 41.386719 11.707031 41.640625 C 11.75 41.691406 11.792969 41.738281 11.835938 41.785156 C 11.863281 41.832031 11.886719 41.878906 11.921875 41.917969 C 12.109375 42.125 12.292969 42.335938 12.484375 42.535156 C 13.265625 43.355469 14.09375 44.128906 14.992188 44.820312 C 15.699219 45.359375 16.425781 45.867188 17.195312 46.3125 C 17.667969 46.589844 18.15625 46.832031 18.636719 47.089844 C 18.679688 47.050781 18.714844 46.996094 18.761719 46.980469 C 19.171875 46.863281 19.585938 46.75 20 46.644531 C 20.324219 46.5625 20.652344 46.460938 20.980469 46.433594 C 21.339844 46.40625 21.6875 46.308594 22.050781 46.285156 C 22.257812 46.273438 22.464844 46.261719 22.671875 46.25 C 22.730469 46.246094 22.785156 46.21875 22.847656 46.207031 C 22.941406 46.1875 23.039062 46.171875 23.136719 46.164062 C 23.21875 46.15625 23.300781 46.167969 23.382812 46.164062 C 24.011719 46.148438 24.640625 46.121094 25.269531 46.117188 C 25.699219 46.117188 26.132812 46.144531 26.5625 46.164062 C 26.621094 46.167969 26.679688 46.1875 26.738281 46.203125 C 26.792969 46.21875 26.851562 46.25 26.910156 46.25 C 27.058594 46.246094 27.222656 46.1875 27.359375 46.230469 C 27.507812 46.28125 27.652344 46.292969 27.800781 46.300781 C 27.898438 46.304688 27.996094 46.328125 28.09375 46.34375 C 28 46.273438 27.910156 46.203125 27.820312 46.140625 C 27.519531 45.933594 27.214844 45.734375 26.921875 45.519531 C 26.589844 45.273438 26.253906 45.019531 25.9375 44.75 C 25.625 44.488281 25.320312 44.207031 25.082031 43.875 C 24.824219 43.515625 24.609375 43.128906 24.464844 42.699219 C 24.347656 42.351562 24.355469 42 24.292969 41.652344 C 24.273438 41.53125 24.347656 41.398438 24.34375 41.269531 C 24.335938 40.933594 24.453125 40.632812 24.582031 40.335938 C 24.742188 39.964844 24.960938 39.628906 25.214844 39.316406 C 25.300781 39.238281 25.386719 39.167969 25.464844 39.085938 C 25.789062 38.761719 26.167969 38.519531 26.574219 38.316406 C 26.96875 38.113281 27.386719 37.988281 27.816406 37.902344 C 27.800781 37.828125 27.785156 37.757812 27.769531 37.683594 C 27.753906 37.636719 27.738281 37.585938 27.722656 37.535156 C 27.582031 37.328125 27.578125 37.085938 27.542969 36.847656 C 27.546875 36.835938 27.542969 36.820312 27.539062 36.804688 C 27.511719 36.675781 27.464844 36.546875 27.453125 36.414062 C 27.4375 36.226562 27.449219 36.039062 27.445312 35.847656 C 27.449219 35.660156 27.4375 35.46875 27.453125 35.28125 C 27.464844 35.152344 27.511719 35.023438 27.539062 34.890625 C 27.542969 34.859375 27.542969 34.832031 27.542969 34.800781 C 27.589844 34.601562 27.632812 34.40625 27.675781 34.207031 C 27.707031 34.128906 27.738281 34.046875 27.769531 33.96875 C 27.800781 33.878906 27.832031 33.792969 27.859375 33.703125 C 27.875 33.671875 27.890625 33.636719 27.90625 33.601562 C 27.925781 33.488281 27.929688 33.367188 28.046875 33.292969 C 27.957031 33.136719 27.957031 33.136719 28.078125 32.949219 C 28.121094 32.957031 28.171875 32.964844 28.222656 32.972656 C 28.289062 32.851562 28.355469 32.730469 28.421875 32.609375 C 28.714844 32.210938 29.035156 31.832031 29.414062 31.511719 C 29.484375 31.441406 29.46875 31.371094 29.398438 31.3125 C 29.5 31.261719 29.539062 31.332031 29.589844 31.371094 C 29.605469 31.355469 29.625 31.34375 29.644531 31.328125 C 29.632812 31.265625 29.625 31.203125 29.617188 31.136719 C 29.710938 31.074219 29.761719 31.171875 29.832031 31.199219 C 29.84375 31.195312 29.859375 31.191406 29.867188 31.179688 C 30 31.105469 30.132812 31.03125 30.261719 30.953125 C 30.804688 30.628906 31.398438 30.4375 32.015625 30.34375 C 32.476562 30.273438 32.949219 30.242188 33.421875 30.304688 C 33.722656 30.347656 34.023438 30.375 34.316406 30.453125 C 34.378906 30.46875 34.421875 30.480469 34.386719 30.554688 C 34.394531 30.59375 34.414062 30.636719 34.414062 30.679688 C 34.410156 30.820312 34.398438 30.964844 34.390625 31.105469 C 34.414062 30.988281 34.453125 30.871094 34.457031 30.75 C 34.464844 30.453125 34.628906 30.222656 34.785156 29.988281 C 34.855469 29.882812 34.9375 29.785156 35.015625 29.679688 C 34.761719 29.613281 34.503906 29.546875 34.246094 29.484375 C 34.191406 29.46875 34.128906 29.460938 34.070312 29.460938 C 33.445312 29.449219 32.828125 29.457031 32.207031 29.542969 C 31.8125 29.59375 31.410156 29.617188 31.011719 29.648438 C 30.527344 29.679688 30.042969 29.734375 29.558594 29.722656 C 28.371094 29.699219 27.226562 29.460938 26.15625 28.9375 C 25.863281 28.792969 25.589844 28.617188 25.304688 28.457031 C 25.246094 28.421875 25.183594 28.398438 25.125 28.367188 C 24.582031 28.015625 24.109375 27.578125 23.671875 27.109375 C 23.242188 26.652344 22.855469 26.160156 22.574219 25.589844 C 22.527344 25.492188 22.457031 25.398438 22.394531 25.304688 C 22.300781 25.085938 22.203125 24.867188 22.109375 24.648438 C 22.074219 24.566406 22.050781 24.480469 22.019531 24.394531 C 21.910156 24.277344 21.90625 24.125 21.886719 23.980469 C 21.871094 23.933594 21.855469 23.890625 21.839844 23.847656 C 21.792969 23.648438 21.746094 23.449219 21.703125 23.25 C 21.703125 23.207031 21.699219 23.160156 21.699219 23.117188 C 21.671875 23.054688 21.625 23 21.617188 22.9375 C 21.59375 22.710938 21.582031 22.476562 21.5625 22.25 C 21.539062 22.222656 21.492188 22.195312 21.492188 22.167969 C 21.484375 22.019531 21.480469 21.871094 21.488281 21.722656 C 21.488281 21.699219 21.535156 21.679688 21.566406 21.65625 C 21.578125 21.609375 21.59375 21.566406 21.609375 21.519531 C 21.539062 21.398438 21.539062 21.277344 21.609375 21.15625 C 21.625 21.125 21.640625 21.09375 21.65625 21.0625 C 21.667969 21.046875 21.683594 21.03125 21.699219 21.019531 C 21.847656 20.261719 22.105469 19.546875 22.476562 18.871094 C 22.726562 18.417969 23.003906 17.984375 23.328125 17.582031 C 23.476562 17.394531 23.59375 17.179688 23.785156 17.027344 C 23.816406 17 23.828125 16.949219 23.851562 16.910156 C 23.828125 16.914062 23.808594 16.917969 23.765625 16.925781 C 23.824219 16.851562 23.871094 16.785156 23.925781 16.730469 C 23.984375 16.671875 24.054688 16.621094 24.136719 16.554688 C 24.128906 16.597656 24.125 16.617188 24.121094 16.640625 C 24.332031 16.484375 24.542969 16.332031 24.753906 16.179688 C 24.75 16.152344 24.738281 16.121094 24.742188 16.097656 C 24.746094 16.082031 24.777344 16.074219 24.796875 16.0625 C 24.796875 16.089844 24.800781 16.113281 24.804688 16.140625 C 24.957031 16.046875 25.109375 15.953125 25.265625 15.863281 C 25.589844 15.714844 25.910156 15.558594 26.238281 15.421875 C 26.832031 15.175781 27.449219 15.039062 28.082031 14.941406 C 28.710938 14.839844 29.339844 14.839844 29.96875 14.871094 C 30.429688 14.894531 30.890625 14.96875 31.34375 15.046875 C 31.761719 15.121094 32.175781 15.214844 32.585938 15.328125 C 32.988281 15.441406 33.382812 15.585938 33.777344 15.71875 C 33.90625 15.761719 34.03125 15.8125 34.160156 15.859375 C 34.269531 15.90625 34.375 15.949219 34.480469 15.992188 C 34.566406 15.921875 34.628906 15.996094 34.699219 16.03125 C 34.671875 16.035156 34.644531 16.039062 34.617188 16.042969 C 34.722656 16.089844 34.828125 16.136719 34.933594 16.179688 C 35.089844 16.132812 35.214844 16.214844 35.335938 16.292969 C 35.335938 16.292969 35.3125 16.339844 35.300781 16.363281 C 35.753906 16.609375 36.207031 16.851562 36.65625 17.105469 C 37.664062 17.671875 38.574219 18.375 39.40625 19.175781 C 39.578125 19.335938 39.730469 19.515625 39.886719 19.691406 C 40.113281 19.953125 40.339844 20.21875 40.558594 20.488281 C 40.710938 20.675781 40.851562 20.871094 41 21.066406 C 41.011719 21.09375 41.015625 21.125 41.03125 21.148438 C 41.457031 21.796875 41.839844 22.472656 42.136719 23.1875 C 42.332031 23.65625 42.523438 24.128906 42.6875 24.609375 C 42.945312 25.367188 43.140625 26.140625 43.289062 26.921875 C 43.378906 27.398438 43.441406 27.878906 43.515625 28.359375 C 43.53125 28.324219 43.554688 28.292969 43.554688 28.257812 C 43.574219 28.023438 43.601562 27.789062 43.601562 27.554688 C 43.59375 26.742188 43.578125 25.929688 43.554688 25.117188 "/>
</clipPath>
<linearGradient id="linear0" gradientUnits="userSpaceOnUse" x1="0.0000101497" y1="0" x2="1.000034" y2="0" gradientTransform="matrix(0,-35.4691,35.4691,0,25.1699,47.0902)">
<stop offset="0" style="stop-color:rgb(35.643005%,37.57019%,38.136292%);stop-opacity:1;"/>
<stop offset="0.015625" style="stop-color:rgb(35.716248%,37.649536%,38.311768%);stop-opacity:1;"/>
<stop offset="0.03125" style="stop-color:rgb(35.862732%,37.809753%,38.572693%);stop-opacity:1;"/>
<stop offset="0.046875" style="stop-color:rgb(36.146545%,37.985229%,38.729858%);stop-opacity:1;"/>
<stop offset="0.0625" style="stop-color:rgb(36.351013%,38.179016%,38.922119%);stop-opacity:1;"/>
<stop offset="0.078125" style="stop-color:rgb(36.546326%,38.375854%,39.118958%);stop-opacity:1;"/>
<stop offset="0.09375" style="stop-color:rgb(36.831665%,38.552856%,39.361572%);stop-opacity:1;"/>
<stop offset="0.109375" style="stop-color:rgb(36.979675%,38.81073%,39.656067%);stop-opacity:1;"/>
<stop offset="0.125" style="stop-color:rgb(37.173462%,39.016724%,39.863586%);stop-opacity:1;"/>
<stop offset="0.140625" style="stop-color:rgb(37.373352%,39.213562%,40.144348%);stop-opacity:1;"/>
<stop offset="0.15625" style="stop-color:rgb(37.518311%,39.474487%,40.444946%);stop-opacity:1;"/>
<stop offset="0.171875" style="stop-color:rgb(37.722778%,39.596558%,40.550232%);stop-opacity:1;"/>
<stop offset="0.1875" style="stop-color:rgb(37.930298%,39.779663%,40.72876%);stop-opacity:1;"/>
<stop offset="0.203125" style="stop-color:rgb(38.078308%,40.039062%,41.015625%);stop-opacity:1;"/>
<stop offset="0.21875" style="stop-color:rgb(38.342285%,40.235901%,41.279602%);stop-opacity:1;"/>
<stop offset="0.25" style="stop-color:rgb(38.737488%,40.505981%,41.624451%);stop-opacity:1;"/>
<stop offset="0.265625" style="stop-color:rgb(39.053345%,40.797424%,41.934204%);stop-opacity:1;"/>
<stop offset="0.28125" style="stop-color:rgb(39.228821%,41.075134%,42.237854%);stop-opacity:1;"/>
<stop offset="0.296875" style="stop-color:rgb(39.41803%,41.30249%,42.474365%);stop-opacity:1;"/>
<stop offset="0.3125" style="stop-color:rgb(39.627075%,41.506958%,42.680359%);stop-opacity:1;"/>
<stop offset="0.328125" style="stop-color:rgb(39.787292%,41.764832%,42.962646%);stop-opacity:1;"/>
<stop offset="0.34375" style="stop-color:rgb(39.985657%,41.921997%,43.112183%);stop-opacity:1;"/>
<stop offset="0.359375" style="stop-color:rgb(40.202332%,42.094421%,43.275452%);stop-opacity:1;"/>
<stop offset="0.375" style="stop-color:rgb(40.367126%,42.350769%,43.554688%);stop-opacity:1;"/>
<stop offset="0.390625" style="stop-color:rgb(40.560913%,42.51709%,43.780518%);stop-opacity:1;"/>
<stop offset="0.40625" style="stop-color:rgb(40.78064%,42.683411%,43.977356%);stop-opacity:1;"/>
<stop offset="0.421875" style="stop-color:rgb(40.950012%,42.939758%,44.25354%);stop-opacity:1;"/>
<stop offset="0.4375" style="stop-color:rgb(41.140747%,43.115234%,44.490051%);stop-opacity:1;"/>
<stop offset="0.453125" style="stop-color:rgb(41.369629%,43.214417%,44.664001%);stop-opacity:1;"/>
<stop offset="0.46875" style="stop-color:rgb(41.633606%,43.424988%,44.914246%);stop-opacity:1;"/>
<stop offset="0.484375" style="stop-color:rgb(41.888428%,43.682861%,45.172119%);stop-opacity:1;"/>
<stop offset="0.5" style="stop-color:rgb(42.102051%,43.896484%,45.39032%);stop-opacity:1;"/>
<stop offset="0.515625" style="stop-color:rgb(42.36145%,44.158936%,45.652771%);stop-opacity:1;"/>
<stop offset="0.53125" style="stop-color:rgb(42.546082%,44.412231%,45.927429%);stop-opacity:1;"/>
<stop offset="0.546875" style="stop-color:rgb(42.681885%,44.621277%,46.153259%);stop-opacity:1;"/>
<stop offset="0.5625" style="stop-color:rgb(42.903137%,44.841003%,46.376038%);stop-opacity:1;"/>
<stop offset="0.578125" style="stop-color:rgb(43.054199%,45.054626%,46.601868%);stop-opacity:1;"/>
<stop offset="0.59375" style="stop-color:rgb(43.191528%,45.21637%,46.818542%);stop-opacity:1;"/>
<stop offset="0.609375" style="stop-color:rgb(43.42041%,45.367432%,46.972656%);stop-opacity:1;"/>
<stop offset="0.625" style="stop-color:rgb(43.582153%,45.585632%,47.138977%);stop-opacity:1;"/>
<stop offset="0.640625" style="stop-color:rgb(43.710327%,45.750427%,47.357178%);stop-opacity:1;"/>
<stop offset="0.65625" style="stop-color:rgb(43.972778%,45.930481%,47.589111%);stop-opacity:1;"/>
<stop offset="0.671875" style="stop-color:rgb(44.248962%,46.214294%,47.877502%);stop-opacity:1;"/>
<stop offset="0.6875" style="stop-color:rgb(44.473267%,46.437073%,48.101807%);stop-opacity:1;"/>
<stop offset="0.703125" style="stop-color:rgb(44.697571%,46.665955%,48.33374%);stop-opacity:1;"/>
<stop offset="0.71875" style="stop-color:rgb(44.923401%,46.891785%,48.55957%);stop-opacity:1;"/>
<stop offset="0.75" style="stop-color:rgb(45.167542%,47.145081%,48.84491%);stop-opacity:1;"/>
<stop offset="0.765625" style="stop-color:rgb(45.457458%,47.436523%,49.224854%);stop-opacity:1;"/>
<stop offset="0.78125" style="stop-color:rgb(45.681763%,47.666931%,49.455261%);stop-opacity:1;"/>
<stop offset="0.8125" style="stop-color:rgb(45.96405%,47.892761%,49.697876%);stop-opacity:1;"/>
<stop offset="0.828125" style="stop-color:rgb(46.398926%,48.110962%,49.958801%);stop-opacity:1;"/>
<stop offset="0.84375" style="stop-color:rgb(46.626282%,48.344421%,50.195312%);stop-opacity:1;"/>
<stop offset="0.859375" style="stop-color:rgb(46.861267%,48.577881%,50.430298%);stop-opacity:1;"/>
<stop offset="0.875" style="stop-color:rgb(47.067261%,48.809814%,50.68512%);stop-opacity:1;"/>
<stop offset="0.890625" style="stop-color:rgb(47.158813%,49.01123%,51.029968%);stop-opacity:1;"/>
<stop offset="0.90625" style="stop-color:rgb(47.40448%,49.134827%,51.226807%);stop-opacity:1;"/>
<stop offset="0.9375" style="stop-color:rgb(47.639465%,49.388123%,51.480103%);stop-opacity:1;"/>
<stop offset="0.953125" style="stop-color:rgb(47.943115%,49.829102%,51.847839%);stop-opacity:1;"/>
<stop offset="0.96875" style="stop-color:rgb(48.176575%,50.059509%,52.087402%);stop-opacity:1;"/>
<stop offset="0.984375" style="stop-color:rgb(48.428345%,50.17395%,52.285767%);stop-opacity:1;"/>
<stop offset="1" style="stop-color:rgb(48.670959%,50.283813%,52.485657%);stop-opacity:1;"/>
</linearGradient>
</defs>
<g id="surface1">
<rect x="0" y="0" width="56" height="56" style="fill:rgb(95.66803%,95.779419%,96.777344%);fill-opacity:1;stroke:none;"/>
<path style=" stroke:none;fill-rule:nonzero;fill:rgb(99.656677%,99.650574%,99.6521%);fill-opacity:1;" d="M 6.914062 30.601562 C 6.929688 30.710938 6.945312 30.820312 6.957031 30.929688 C 6.960938 30.957031 6.960938 30.984375 6.964844 31.011719 C 7.007812 31.273438 7.050781 31.535156 7.09375 31.796875 C 7.089844 31.808594 7.089844 31.820312 7.09375 31.835938 C 7.15625 32.136719 7.21875 32.441406 7.28125 32.746094 C 7.34375 32.976562 7.402344 33.207031 7.460938 33.433594 C 7.460938 33.449219 7.460938 33.464844 7.46875 33.476562 C 7.511719 33.632812 7.554688 33.785156 7.597656 33.941406 C 7.59375 33.953125 7.59375 33.964844 7.601562 33.976562 C 7.660156 34.160156 7.722656 34.34375 7.78125 34.53125 C 7.78125 34.542969 7.78125 34.558594 7.789062 34.570312 C 7.953125 35.027344 8.117188 35.484375 8.285156 35.941406 C 8.449219 36.320312 8.605469 36.707031 8.777344 37.082031 C 9.242188 38.105469 9.816406 39.070312 10.445312 39.996094 C 10.492188 40.066406 10.550781 40.125 10.601562 40.191406 C 10.636719 40.234375 10.667969 40.28125 10.699219 40.332031 C 10.742188 40.390625 10.785156 40.453125 10.828125 40.511719 C 10.914062 40.632812 10.996094 40.757812 11.089844 40.875 C 11.292969 41.132812 11.503906 41.386719 11.707031 41.640625 C 11.75 41.691406 11.792969 41.738281 11.835938 41.785156 C 11.863281 41.832031 11.886719 41.878906 11.921875 41.917969 C 12.109375 42.125 12.292969 42.335938 12.484375 42.535156 C 13.265625 43.355469 14.09375 44.128906 14.992188 44.820312 C 15.699219 45.359375 16.425781 45.867188 17.195312 46.3125 C 17.667969 46.589844 18.15625 46.832031 18.636719 47.089844 C 19.15625 47.324219 19.664062 47.578125 20.195312 47.789062 C 21.398438 48.261719 22.632812 48.621094 23.902344 48.871094 C 25.152344 49.113281 26.410156 49.25 27.679688 49.261719 C 28.339844 49.269531 29 49.246094 29.660156 49.207031 C 30.179688 49.175781 30.703125 49.101562 31.21875 49.027344 C 31.609375 48.972656 31.992188 48.882812 32.378906 48.808594 C 32.503906 48.78125 32.628906 48.75 32.753906 48.726562 C 33.5 48.582031 34.222656 48.359375 34.941406 48.109375 C 35.957031 47.761719 36.9375 47.335938 37.886719 46.835938 C 38.734375 46.386719 39.546875 45.886719 40.332031 45.335938 C 41.265625 44.675781 42.132812 43.9375 42.945312 43.140625 C 43.332031 42.761719 43.6875 42.355469 44.046875 41.957031 C 44.785156 41.136719 45.433594 40.242188 46.019531 39.3125 C 46.511719 38.535156 46.957031 37.730469 47.339844 36.894531 C 47.6875 36.125 47.996094 35.34375 48.253906 34.535156 C 48.648438 33.304688 48.929688 32.046875 49.097656 30.765625 C 49.1875 30.054688 49.257812 29.34375 49.261719 28.632812 C 49.265625 27.828125 49.25 27.019531 49.210938 26.21875 C 49.183594 25.757812 49.113281 25.296875 49.035156 24.839844 C 48.917969 24.152344 48.800781 23.464844 48.636719 22.785156 C 48.476562 22.144531 48.265625 21.519531 48.058594 20.890625 C 47.816406 20.148438 47.503906 19.429688 47.160156 18.726562 C 46.679688 17.738281 46.128906 16.796875 45.503906 15.894531 C 44.878906 14.992188 44.191406 14.144531 43.441406 13.351562 C 42.785156 12.660156 42.085938 12.023438 41.34375 11.421875 C 40.222656 10.519531 39.023438 9.730469 37.738281 9.078125 C 37.152344 8.777344 36.542969 8.523438 35.9375 8.257812 C 35.175781 7.925781 34.386719 7.675781 33.585938 7.460938 C 32.65625 7.214844 31.714844 7.003906 30.75 6.90625 C 30.132812 6.84375 29.515625 6.761719 28.894531 6.742188 C 28.179688 6.722656 27.464844 6.769531 26.753906 6.773438 C 26.074219 6.777344 25.40625 6.875 24.738281 6.972656 C 23.691406 7.125 22.664062 7.371094 21.65625 7.6875 C 20.542969 8.035156 19.46875 8.46875 18.429688 8.996094 C 17.390625 9.523438 16.390625 10.117188 15.460938 10.820312 C 14.863281 11.277344 14.28125 11.753906 13.714844 12.242188 C 13.351562 12.554688 13.035156 12.914062 12.691406 13.25 C 12.160156 13.765625 11.703125 14.339844 11.234375 14.910156 C 11.132812 15.035156 11.054688 15.179688 10.964844 15.316406 C 10.828125 15.492188 10.695312 15.667969 10.558594 15.84375 C 10.523438 15.894531 10.484375 15.9375 10.449219 15.988281 C 9.699219 17.085938 9.050781 18.242188 8.523438 19.460938 C 8.300781 19.980469 8.117188 20.519531 7.914062 21.050781 C 7.871094 21.175781 7.828125 21.300781 7.785156 21.425781 C 7.777344 21.441406 7.777344 21.453125 7.78125 21.464844 C 7.628906 21.980469 7.464844 22.488281 7.332031 23.007812 C 7.214844 23.46875 7.125 23.9375 7.042969 24.40625 C 6.984375 24.71875 6.957031 25.03125 6.914062 25.347656 C 6.894531 25.488281 6.863281 25.628906 6.851562 25.773438 C 6.824219 26.148438 6.804688 26.527344 6.78125 26.90625 C 6.734375 27.617188 6.71875 28.335938 6.78125 29.046875 C 6.804688 29.449219 6.824219 29.847656 6.855469 30.246094 C 6.863281 30.367188 6.894531 30.484375 6.914062 30.601562 Z M 5.320312 26.949219 C 5.332031 26.921875 5.355469 26.898438 5.359375 26.871094 C 5.378906 26.636719 5.390625 26.402344 5.410156 26.167969 C 5.433594 25.882812 5.457031 25.59375 5.492188 25.308594 C 5.550781 24.851562 5.609375 24.390625 5.6875 23.9375 C 5.75 23.570312 5.835938 23.210938 5.917969 22.847656 C 5.988281 22.535156 6.066406 22.226562 6.144531 21.917969 C 6.199219 21.714844 6.261719 21.511719 6.324219 21.308594 C 6.566406 20.53125 6.84375 19.765625 7.167969 19.023438 C 7.460938 18.347656 7.78125 17.679688 8.148438 17.042969 C 8.375 16.65625 8.582031 16.257812 8.828125 15.882812 C 9.175781 15.351562 9.542969 14.828125 9.921875 14.316406 C 10.226562 13.902344 10.558594 13.507812 10.886719 13.109375 C 11.042969 12.914062 11.214844 12.730469 11.390625 12.550781 C 11.675781 12.257812 11.972656 11.972656 12.261719 11.679688 C 12.664062 11.269531 13.09375 10.882812 13.546875 10.527344 C 13.945312 10.214844 14.34375 9.898438 14.75 9.589844 C 15.300781 9.175781 15.882812 8.800781 16.480469 8.457031 C 16.980469 8.167969 17.484375 7.882812 18.003906 7.632812 C 18.539062 7.371094 19.09375 7.136719 19.652344 6.914062 C 20.183594 6.699219 20.726562 6.5 21.277344 6.328125 C 21.789062 6.164062 22.316406 6.042969 22.835938 5.914062 C 23.207031 5.824219 23.578125 5.742188 23.949219 5.675781 C 24.3125 5.605469 24.679688 5.550781 25.046875 5.503906 C 25.453125 5.453125 25.859375 5.40625 26.265625 5.371094 C 26.5625 5.34375 26.855469 5.324219 27.152344 5.324219 C 27.828125 5.320312 28.503906 5.316406 29.179688 5.34375 C 29.695312 5.359375 30.210938 5.398438 30.71875 5.464844 C 31.296875 5.539062 31.871094 5.644531 32.445312 5.746094 C 33.390625 5.914062 34.3125 6.175781 35.21875 6.480469 C 35.945312 6.726562 36.660156 7.003906 37.359375 7.316406 C 38.65625 7.902344 39.894531 8.601562 41.050781 9.433594 C 41.589844 9.816406 42.097656 10.238281 42.613281 10.648438 C 43.214844 11.125 43.777344 11.648438 44.300781 12.207031 C 44.730469 12.664062 45.152344 13.136719 45.542969 13.625 C 45.996094 14.183594 46.4375 14.757812 46.84375 15.351562 C 47.199219 15.867188 47.515625 16.417969 47.828125 16.964844 C 48.09375 17.433594 48.339844 17.914062 48.566406 18.402344 C 48.808594 18.925781 49.019531 19.464844 49.234375 19.996094 C 49.53125 20.738281 49.765625 21.5 49.960938 22.273438 C 50.074219 22.714844 50.175781 23.160156 50.261719 23.605469 C 50.363281 24.132812 50.453125 24.664062 50.53125 25.195312 C 50.570312 25.433594 50.566406 25.679688 50.589844 25.921875 C 50.609375 26.167969 50.640625 26.417969 50.664062 26.664062 C 50.671875 26.742188 50.675781 26.816406 50.675781 26.890625 C 50.679688 27.613281 50.683594 28.335938 50.675781 29.058594 C 50.667969 29.34375 50.625 29.632812 50.597656 29.917969 C 50.578125 30.113281 50.566406 30.308594 50.542969 30.507812 C 50.492188 30.910156 50.457031 31.320312 50.382812 31.722656 C 50.277344 32.3125 50.160156 32.898438 50.023438 33.480469 C 49.925781 33.902344 49.796875 34.316406 49.671875 34.730469 C 49.445312 35.496094 49.164062 36.242188 48.84375 36.972656 C 48.527344 37.714844 48.183594 38.441406 47.761719 39.128906 C 47.457031 39.628906 47.179688 40.144531 46.847656 40.625 C 46.429688 41.226562 45.972656 41.808594 45.527344 42.390625 C 45.164062 42.867188 44.757812 43.308594 44.328125 43.730469 C 43.964844 44.085938 43.617188 44.457031 43.246094 44.800781 C 42.925781 45.101562 42.585938 45.382812 42.238281 45.652344 C 41.738281 46.042969 41.230469 46.429688 40.707031 46.792969 C 40.234375 47.113281 39.75 47.414062 39.253906 47.691406 C 38.691406 48.007812 38.117188 48.304688 37.535156 48.574219 C 36.925781 48.855469 36.304688 49.101562 35.683594 49.339844 C 35.019531 49.597656 34.335938 49.804688 33.640625 49.972656 C 33.015625 50.121094 32.378906 50.238281 31.746094 50.359375 C 31.382812 50.429688 31.015625 50.480469 30.648438 50.53125 C 30.4375 50.558594 30.226562 50.570312 30.015625 50.585938 C 29.765625 50.605469 29.515625 50.621094 29.265625 50.640625 C 29.238281 50.644531 29.210938 50.667969 29.183594 50.679688 C 28.410156 50.679688 27.632812 50.679688 26.859375 50.679688 C 26.75 50.613281 26.644531 50.613281 26.539062 50.679688 C 26.523438 50.679688 26.507812 50.679688 26.492188 50.679688 C 26.390625 50.574219 26.253906 50.601562 26.128906 50.589844 C 25.75 50.550781 25.371094 50.539062 24.996094 50.484375 C 24.488281 50.410156 23.980469 50.3125 23.476562 50.21875 C 22.667969 50.066406 21.875 49.863281 21.097656 49.597656 C 20.402344 49.363281 19.707031 49.113281 19.027344 48.828125 C 18.488281 48.605469 17.96875 48.335938 17.445312 48.070312 C 17.070312 47.875 16.699219 47.667969 16.335938 47.445312 C 15.90625 47.183594 15.484375 46.914062 15.074219 46.628906 C 14.507812 46.230469 13.945312 45.832031 13.433594 45.367188 C 13.109375 45.070312 12.757812 44.800781 12.445312 44.496094 C 12.019531 44.082031 11.605469 43.65625 11.210938 43.21875 C 10.785156 42.742188 10.371094 42.257812 9.980469 41.757812 C 9.613281 41.277344 9.273438 40.773438 8.9375 40.265625 C 8.695312 39.898438 8.46875 39.519531 8.257812 39.132812 C 7.945312 38.554688 7.621094 37.972656 7.347656 37.375 C 7.074219 36.765625 6.851562 36.136719 6.609375 35.511719 C 6.292969 34.695312 6.070312 33.847656 5.878906 32.996094 C 5.636719 31.917969 5.453125 30.828125 5.40625 29.71875 C 5.398438 29.519531 5.378906 29.324219 5.363281 29.128906 C 5.359375 29.085938 5.332031 29.042969 5.320312 29.003906 C 5.320312 28.320312 5.320312 27.632812 5.320312 26.949219 "/>
<path style=" stroke:none;fill-rule:nonzero;fill:rgb(92.585754%,92.449951%,92.483521%);fill-opacity:1;" d="M 26.539062 50.679688 C 26.644531 50.613281 26.75 50.613281 26.859375 50.679688 C 26.75 50.679688 26.644531 50.679688 26.539062 50.679688 "/>
<path style=" stroke:none;fill-rule:nonzero;fill:rgb(98.321533%,75.117493%,9.388733%);fill-opacity:1;" d="M 10.964844 15.316406 C 11.054688 15.179688 11.132812 15.035156 11.234375 14.910156 C 11.703125 14.339844 12.160156 13.765625 12.691406 13.25 C 13.035156 12.914062 13.351562 12.554688 13.714844 12.242188 C 14.28125 11.753906 14.863281 11.277344 15.460938 10.820312 C 16.390625 10.117188 17.390625 9.523438 18.429688 8.996094 C 19.46875 8.46875 20.542969 8.035156 21.65625 7.6875 C 22.664062 7.371094 23.691406 7.125 24.738281 6.972656 C 25.40625 6.875 26.074219 6.777344 26.753906 6.773438 C 27.464844 6.769531 28.179688 6.722656 28.894531 6.742188 C 29.515625 6.761719 30.132812 6.84375 30.75 6.90625 C 31.714844 7.003906 32.65625 7.214844 33.585938 7.460938 C 34.386719 7.675781 35.175781 7.925781 35.9375 8.257812 C 36.542969 8.523438 37.152344 8.777344 37.738281 9.078125 C 39.023438 9.730469 40.222656 10.519531 41.34375 11.421875 C 42.085938 12.023438 42.785156 12.660156 43.441406 13.351562 C 44.191406 14.144531 44.878906 14.992188 45.503906 15.894531 C 46.128906 16.796875 46.679688 17.738281 47.160156 18.726562 C 47.503906 19.429688 47.816406 20.148438 48.058594 20.890625 C 48.265625 21.519531 48.476562 22.144531 48.636719 22.785156 C 48.800781 23.464844 48.917969 24.152344 49.035156 24.839844 C 49.113281 25.296875 49.183594 25.757812 49.210938 26.21875 C 49.25 27.019531 49.265625 27.828125 49.261719 28.632812 C 49.257812 29.34375 49.1875 30.054688 49.097656 30.765625 C 48.929688 32.046875 48.648438 33.304688 48.253906 34.535156 C 47.996094 35.34375 47.6875 36.125 47.339844 36.894531 C 46.957031 37.730469 46.511719 38.535156 46.019531 39.3125 C 45.433594 40.242188 44.785156 41.136719 44.046875 41.957031 C 43.6875 42.355469 43.332031 42.761719 42.945312 43.140625 C 42.132812 43.9375 41.265625 44.675781 40.332031 45.335938 C 39.546875 45.886719 38.734375 46.386719 37.886719 46.835938 C 36.9375 47.335938 35.957031 47.761719 34.941406 48.109375 C 34.222656 48.359375 33.5 48.582031 32.753906 48.726562 C 32.628906 48.75 32.503906 48.78125 32.378906 48.808594 C 32.433594 48.777344 32.484375 48.746094 32.558594 48.707031 C 31.992188 48.417969 31.453125 48.144531 30.914062 47.875 C 30.53125 47.679688 30.140625 47.496094 29.765625 47.289062 C 29.367188 47.070312 28.980469 46.828125 28.589844 46.601562 C 28.425781 46.507812 28.257812 46.429688 28.09375 46.34375 C 28 46.273438 27.910156 46.203125 27.820312 46.140625 C 27.519531 45.933594 27.214844 45.734375 26.921875 45.519531 C 26.589844 45.273438 26.253906 45.019531 25.9375 44.75 C 25.625 44.488281 25.320312 44.207031 25.082031 43.875 C 24.824219 43.515625 24.609375 43.128906 24.464844 42.699219 C 24.347656 42.351562 24.355469 42 24.292969 41.652344 C 24.273438 41.53125 24.347656 41.398438 24.34375 41.269531 C 24.335938 40.933594 24.453125 40.632812 24.582031 40.335938 C 24.742188 39.964844 24.960938 39.628906 25.214844 39.316406 C 25.300781 39.238281 25.386719 39.167969 25.464844 39.085938 C 25.789062 38.761719 26.167969 38.519531 26.574219 38.316406 C 26.96875 38.113281 27.386719 37.988281 27.816406 37.902344 C 27.832031 37.902344 27.847656 37.902344 27.859375 37.902344 C 28.15625 38.351562 28.464844 38.792969 28.835938 39.191406 C 29.578125 39.984375 30.453125 40.578125 31.472656 40.96875 C 32.054688 41.195312 32.660156 41.324219 33.273438 41.4375 C 33.371094 41.457031 33.445312 41.425781 33.519531 41.359375 C 33.859375 41.066406 34.15625 40.738281 34.425781 40.375 C 35.042969 39.542969 35.3125 38.601562 35.332031 37.585938 C 35.339844 37.148438 35.277344 36.707031 35.195312 36.277344 C 35.074219 35.621094 34.855469 34.988281 34.597656 34.371094 C 34.378906 33.839844 34.175781 33.300781 34.042969 32.742188 C 33.945312 32.316406 33.890625 31.886719 33.953125 31.453125 C 34 31.109375 34.105469 30.789062 34.386719 30.554688 C 34.394531 30.59375 34.414062 30.636719 34.414062 30.679688 C 34.410156 30.820312 34.398438 30.964844 34.390625 31.105469 C 34.371094 31.601562 34.402344 32.09375 34.5 32.582031 C 34.652344 33.324219 34.945312 34.015625 35.246094 34.703125 C 35.691406 35.699219 36.082031 36.707031 36.1875 37.804688 C 36.265625 38.597656 36.179688 39.367188 35.886719 40.109375 C 35.582031 40.878906 35.09375 41.523438 34.519531 42.105469 C 33.882812 42.753906 33.175781 43.320312 32.429688 43.832031 C 32.335938 43.898438 32.242188 43.96875 32.125 44.054688 C 32.183594 44.070312 32.203125 44.082031 32.222656 44.082031 C 32.679688 44.066406 33.136719 44.054688 33.589844 44.03125 C 34.527344 43.976562 35.445312 43.816406 36.351562 43.582031 C 37.199219 43.355469 38.015625 43.050781 38.789062 42.644531 C 39.90625 42.058594 40.886719 41.296875 41.699219 40.332031 C 42.558594 39.304688 43.160156 38.136719 43.546875 36.855469 C 43.890625 35.714844 44.054688 34.542969 44.070312 33.351562 C 44.078125 32.636719 44.066406 31.921875 43.972656 31.214844 C 43.90625 30.664062 43.828125 30.113281 43.738281 29.570312 C 43.679688 29.222656 43.59375 28.886719 43.515625 28.546875 C 43.515625 28.484375 43.515625 28.421875 43.515625 28.359375 C 43.53125 28.324219 43.554688 28.292969 43.554688 28.257812 C 43.574219 28.023438 43.601562 27.789062 43.601562 27.554688 C 43.59375 26.742188 43.578125 25.929688 43.554688 25.117188 C 43.546875 24.90625 43.515625 24.695312 43.488281 24.484375 C 43.457031 24.246094 43.417969 24.007812 43.378906 23.769531 C 43.300781 23.351562 43.226562 22.933594 43.132812 22.523438 C 43.074219 22.257812 42.992188 21.996094 42.90625 21.738281 C 42.8125 21.449219 42.703125 21.167969 42.601562 20.882812 C 42.402344 20.441406 42.222656 19.988281 42.003906 19.558594 C 41.78125 19.128906 41.53125 18.714844 41.265625 18.308594 C 41.019531 17.933594 40.761719 17.566406 40.46875 17.230469 C 40.082031 16.785156 39.65625 16.371094 39.242188 15.949219 C 39.128906 15.832031 38.984375 15.738281 38.855469 15.636719 C 38.738281 15.539062 38.625 15.441406 38.503906 15.347656 C 38.371094 15.246094 38.242188 15.144531 38.105469 15.050781 C 37.902344 14.90625 37.683594 14.78125 37.480469 14.632812 C 37.023438 14.292969 36.535156 14.007812 36.023438 13.757812 C 35.617188 13.5625 35.210938 13.378906 34.796875 13.207031 C 34.425781 13.050781 34.050781 12.898438 33.667969 12.777344 C 33.214844 12.628906 32.75 12.515625 32.292969 12.382812 C 31.679688 12.203125 31.054688 12.09375 30.425781 11.980469 C 30.160156 11.933594 29.886719 11.917969 29.617188 11.871094 C 29.253906 11.804688 28.886719 11.765625 28.511719 11.75 C 28.234375 11.738281 27.957031 11.707031 27.675781 11.691406 C 27.292969 11.664062 26.90625 11.621094 26.519531 11.621094 C 25.929688 11.621094 25.335938 11.644531 24.746094 11.664062 C 24.464844 11.675781 24.183594 11.695312 23.90625 11.71875 C 23.589844 11.742188 23.273438 11.769531 22.957031 11.800781 C 22.820312 11.8125 22.6875 11.832031 22.550781 11.847656 C 22.453125 11.859375 22.355469 11.875 22.257812 11.886719 C 22.042969 11.917969 21.828125 11.949219 21.609375 11.980469 C 21.519531 11.996094 21.425781 12.011719 21.332031 12.027344 C 21.199219 12.042969 21.0625 12.058594 20.925781 12.078125 C 20.800781 12.09375 20.664062 12.089844 20.546875 12.136719 C 20.257812 12.257812 19.941406 12.242188 19.644531 12.332031 C 19.214844 12.464844 18.757812 12.523438 18.316406 12.613281 C 18.261719 12.621094 18.210938 12.628906 18.160156 12.644531 C 17.863281 12.726562 17.566406 12.8125 17.269531 12.894531 C 16.96875 12.980469 16.671875 13.058594 16.371094 13.148438 C 16.152344 13.214844 15.933594 13.300781 15.710938 13.375 C 15.445312 13.460938 15.171875 13.535156 14.910156 13.632812 C 14.378906 13.832031 13.851562 14.042969 13.324219 14.25 C 13.113281 14.332031 12.898438 14.40625 12.691406 14.503906 C 12.113281 14.769531 11.539062 15.042969 10.964844 15.316406 "/>
<path style=" stroke:none;fill-rule:nonzero;fill:rgb(53.326416%,52.476501%,52.687073%);fill-opacity:1;" d="M 18.636719 47.089844 C 18.679688 47.050781 18.714844 46.996094 18.761719 46.980469 C 19.171875 46.863281 19.585938 46.75 20 46.644531 C 20.324219 46.5625 20.652344 46.460938 20.980469 46.433594 C 21.339844 46.40625 21.6875 46.308594 22.050781 46.285156 C 22.257812 46.273438 22.464844 46.261719 22.671875 46.25 C 22.730469 46.246094 22.785156 46.21875 22.847656 46.207031 C 22.941406 46.1875 23.039062 46.171875 23.136719 46.164062 C 23.21875 46.15625 23.300781 46.167969 23.382812 46.164062 C 24.011719 46.148438 24.640625 46.121094 25.269531 46.117188 C 25.699219 46.117188 26.132812 46.144531 26.5625 46.164062 C 26.621094 46.167969 26.679688 46.1875 26.738281 46.203125 C 26.792969 46.21875 26.851562 46.25 26.910156 46.25 C 27.058594 46.246094 27.222656 46.1875 27.359375 46.230469 C 27.507812 46.28125 27.652344 46.292969 27.800781 46.300781 C 27.898438 46.304688 27.996094 46.328125 28.09375 46.34375 C 28.257812 46.429688 28.425781 46.507812 28.589844 46.601562 C 28.980469 46.828125 29.367188 47.070312 29.765625 47.289062 C 30.140625 47.496094 30.53125 47.679688 30.914062 47.875 C 31.453125 48.144531 31.992188 48.417969 32.558594 48.707031 C 32.484375 48.746094 32.433594 48.777344 32.378906 48.808594 C 31.992188 48.882812 31.609375 48.972656 31.21875 49.027344 C 30.703125 49.101562 30.179688 49.175781 29.660156 49.207031 C 29 49.246094 28.339844 49.269531 27.679688 49.261719 C 26.410156 49.25 25.152344 49.113281 23.902344 48.871094 C 22.632812 48.621094 21.398438 48.261719 20.195312 47.789062 C 19.664062 47.578125 19.15625 47.324219 18.636719 47.089844 "/>
<path style=" stroke:none;fill-rule:nonzero;fill:rgb(14.065552%,12.503052%,12.890625%);fill-opacity:1;" d="M 34.390625 31.105469 C 34.414062 30.988281 34.453125 30.871094 34.457031 30.75 C 34.464844 30.453125 34.628906 30.222656 34.785156 29.988281 C 34.855469 29.882812 34.9375 29.785156 35.015625 29.679688 C 35.078125 29.617188 35.140625 29.550781 35.207031 29.492188 C 35.519531 29.214844 35.867188 29.011719 36.289062 28.980469 C 36.476562 28.964844 36.664062 28.992188 36.851562 29 C 37.058594 29.089844 37.277344 29.160156 37.476562 29.269531 C 37.828125 29.464844 38.113281 29.734375 38.378906 30.03125 C 38.5 30.164062 38.621094 30.308594 38.765625 30.417969 C 39.402344 30.898438 40.121094 31.054688 40.898438 30.875 C 41.847656 30.65625 42.332031 29.945312 42.425781 29.210938 C 42.457031 28.964844 42.503906 28.730469 42.601562 28.507812 C 42.636719 28.472656 42.667969 28.441406 42.699219 28.410156 C 42.882812 28.230469 43.082031 28.207031 43.296875 28.351562 C 43.378906 28.40625 43.445312 28.480469 43.515625 28.546875 C 43.59375 28.886719 43.679688 29.222656 43.738281 29.570312 C 43.828125 30.113281 43.90625 30.664062 43.972656 31.214844 C 44.066406 31.921875 44.078125 32.636719 44.070312 33.351562 C 44.054688 34.542969 43.890625 35.714844 43.546875 36.855469 C 43.160156 38.136719 42.558594 39.304688 41.699219 40.332031 C 40.886719 41.296875 39.90625 42.058594 38.789062 42.644531 C 38.015625 43.050781 37.199219 43.355469 36.351562 43.582031 C 35.445312 43.816406 34.527344 43.976562 33.589844 44.03125 C 33.136719 44.054688 32.679688 44.066406 32.222656 44.082031 C 32.203125 44.082031 32.183594 44.070312 32.125 44.054688 C 32.242188 43.96875 32.335938 43.898438 32.429688 43.832031 C 33.175781 43.320312 33.882812 42.753906 34.519531 42.105469 C 35.09375 41.523438 35.582031 40.878906 35.886719 40.109375 C 36.179688 39.367188 36.265625 38.597656 36.1875 37.804688 C 36.082031 36.707031 35.691406 35.699219 35.246094 34.703125 C 34.945312 34.015625 34.652344 33.324219 34.5 32.582031 C 34.402344 32.09375 34.371094 31.601562 34.390625 31.105469 "/>
<path style=" stroke:none;fill-rule:nonzero;fill:rgb(14.065552%,12.503052%,12.890625%);fill-opacity:1;" d="M 29.589844 31.371094 C 29.605469 31.355469 29.625 31.34375 29.644531 31.328125 C 29.707031 31.285156 29.769531 31.242188 29.832031 31.199219 C 29.84375 31.195312 29.859375 31.191406 29.867188 31.179688 C 30 31.105469 30.132812 31.03125 30.261719 30.953125 C 30.804688 30.628906 31.398438 30.4375 32.015625 30.34375 C 32.476562 30.273438 32.949219 30.242188 33.421875 30.304688 C 33.722656 30.347656 34.023438 30.375 34.316406 30.453125 C 34.378906 30.46875 34.421875 30.480469 34.386719 30.554688 C 34.105469 30.789062 34 31.109375 33.953125 31.453125 C 33.890625 31.886719 33.945312 32.316406 34.042969 32.742188 C 34.175781 33.300781 34.378906 33.839844 34.597656 34.371094 C 34.855469 34.988281 35.074219 35.621094 35.195312 36.277344 C 35.277344 36.707031 35.339844 37.148438 35.332031 37.585938 C 35.3125 38.601562 35.042969 39.542969 34.425781 40.375 C 34.15625 40.738281 33.859375 41.066406 33.519531 41.359375 C 33.445312 41.425781 33.371094 41.457031 33.273438 41.4375 C 32.660156 41.324219 32.054688 41.195312 31.472656 40.96875 C 30.453125 40.578125 29.578125 39.984375 28.835938 39.191406 C 28.464844 38.792969 28.15625 38.351562 27.859375 37.902344 C 27.832031 37.828125 27.800781 37.757812 27.769531 37.683594 C 27.753906 37.636719 27.738281 37.585938 27.722656 37.535156 C 27.664062 37.304688 27.601562 37.078125 27.542969 36.847656 C 27.546875 36.835938 27.542969 36.820312 27.539062 36.804688 C 27.542969 36.753906 27.550781 36.699219 27.539062 36.648438 C 27.460938 36.257812 27.492188 35.867188 27.496094 35.472656 C 27.5 35.28125 27.523438 35.085938 27.539062 34.890625 C 27.542969 34.859375 27.542969 34.832031 27.542969 34.800781 C 27.589844 34.601562 27.632812 34.40625 27.675781 34.207031 C 27.707031 34.128906 27.738281 34.046875 27.769531 33.96875 C 27.800781 33.878906 27.832031 33.792969 27.859375 33.703125 C 27.875 33.671875 27.890625 33.636719 27.90625 33.601562 C 27.953125 33.5 28 33.398438 28.046875 33.292969 C 28.105469 33.1875 28.164062 33.082031 28.222656 32.972656 C 28.289062 32.851562 28.355469 32.730469 28.421875 32.609375 C 28.714844 32.210938 29.035156 31.832031 29.414062 31.511719 C 29.472656 31.464844 29.53125 31.417969 29.589844 31.371094 "/>
<path style=" stroke:none;fill-rule:nonzero;fill:rgb(80.181885%,79.820251%,79.910278%);fill-opacity:1;" d="M 36.851562 29 C 36.664062 28.992188 36.476562 28.964844 36.289062 28.980469 C 35.867188 29.011719 35.519531 29.214844 35.207031 29.492188 C 35.140625 29.550781 35.078125 29.617188 35.015625 29.679688 C 34.761719 29.613281 34.503906 29.546875 34.246094 29.484375 C 34.191406 29.46875 34.128906 29.460938 34.070312 29.460938 C 33.445312 29.449219 32.828125 29.457031 32.207031 29.542969 C 31.8125 29.59375 31.410156 29.617188 31.011719 29.648438 C 30.527344 29.679688 30.042969 29.734375 29.558594 29.722656 C 28.371094 29.699219 27.226562 29.460938 26.15625 28.9375 C 25.863281 28.792969 25.589844 28.617188 25.304688 28.457031 C 25.246094 28.421875 25.183594 28.398438 25.125 28.367188 C 24.582031 28.015625 24.109375 27.578125 23.671875 27.109375 C 23.242188 26.652344 22.855469 26.160156 22.574219 25.589844 C 22.527344 25.492188 22.457031 25.398438 22.394531 25.304688 C 22.300781 25.085938 22.203125 24.867188 22.109375 24.648438 C 22.074219 24.566406 22.050781 24.480469 22.019531 24.394531 C 21.976562 24.257812 21.929688 24.117188 21.886719 23.980469 C 21.871094 23.933594 21.855469 23.890625 21.839844 23.847656 C 21.832031 23.640625 21.800781 23.4375 21.703125 23.25 C 21.703125 23.207031 21.699219 23.160156 21.699219 23.117188 C 21.667969 22.730469 21.621094 22.347656 21.617188 21.964844 C 21.617188 21.648438 21.671875 21.332031 21.699219 21.019531 C 21.847656 20.261719 22.105469 19.546875 22.476562 18.871094 C 22.726562 18.417969 23.003906 17.984375 23.328125 17.582031 C 23.476562 17.394531 23.59375 17.179688 23.785156 17.027344 C 23.816406 17 23.828125 16.949219 23.851562 16.910156 C 23.941406 16.820312 24.03125 16.730469 24.121094 16.640625 C 24.332031 16.484375 24.542969 16.332031 24.753906 16.179688 C 24.773438 16.164062 24.789062 16.152344 24.804688 16.140625 C 24.957031 16.046875 25.109375 15.953125 25.265625 15.863281 C 25.589844 15.714844 25.910156 15.558594 26.238281 15.421875 C 26.832031 15.175781 27.449219 15.039062 28.082031 14.941406 C 28.710938 14.839844 29.339844 14.839844 29.96875 14.871094 C 30.429688 14.894531 30.890625 14.96875 31.34375 15.046875 C 31.761719 15.121094 32.175781 15.214844 32.585938 15.328125 C 32.988281 15.441406 33.382812 15.585938 33.777344 15.71875 C 33.90625 15.761719 34.03125 15.8125 34.160156 15.859375 C 34.269531 15.90625 34.375 15.949219 34.480469 15.992188 C 34.527344 16.011719 34.570312 16.027344 34.617188 16.042969 C 34.722656 16.089844 34.828125 16.136719 34.933594 16.179688 C 35.054688 16.242188 35.179688 16.300781 35.300781 16.363281 C 35.753906 16.609375 36.207031 16.851562 36.65625 17.105469 C 37.664062 17.671875 38.574219 18.375 39.40625 19.175781 C 39.578125 19.335938 39.730469 19.515625 39.886719 19.691406 C 40.113281 19.953125 40.339844 20.21875 40.558594 20.488281 C 40.710938 20.675781 40.851562 20.871094 41 21.066406 C 41.011719 21.09375 41.015625 21.125 41.03125 21.148438 C 41.457031 21.796875 41.839844 22.472656 42.136719 23.1875 C 42.332031 23.65625 42.523438 24.128906 42.6875 24.609375 C 42.945312 25.367188 43.140625 26.140625 43.289062 26.921875 C 43.378906 27.398438 43.441406 27.878906 43.515625 28.359375 C 43.515625 28.421875 43.515625 28.484375 43.515625 28.546875 C 43.445312 28.480469 43.378906 28.40625 43.296875 28.351562 C 43.082031 28.207031 42.882812 28.230469 42.699219 28.410156 C 42.667969 28.441406 42.636719 28.472656 42.601562 28.507812 C 42.636719 28.449219 42.671875 28.394531 42.699219 28.332031 C 42.726562 28.28125 42.761719 28.222656 42.757812 28.171875 C 42.738281 27.96875 42.71875 27.761719 42.671875 27.5625 C 42.585938 27.164062 42.492188 26.765625 42.386719 26.371094 C 42.0625 25.195312 41.578125 24.082031 40.980469 23.019531 C 40.804688 22.707031 40.597656 22.417969 40.414062 22.113281 C 40.089844 21.570312 39.6875 21.085938 39.28125 20.605469 C 38.964844 20.226562 38.609375 19.882812 38.261719 19.53125 C 37.703125 18.960938 37.074219 18.472656 36.417969 18.019531 C 35.722656 17.539062 34.996094 17.117188 34.21875 16.78125 C 33.808594 16.605469 33.394531 16.433594 32.96875 16.300781 C 32.484375 16.148438 31.984375 16.035156 31.492188 15.925781 C 30.988281 15.8125 30.472656 15.738281 29.957031 15.742188 C 29.308594 15.746094 28.660156 15.75 28.015625 15.886719 C 27.574219 15.980469 27.144531 16.085938 26.722656 16.230469 C 25.929688 16.511719 25.226562 16.9375 24.605469 17.496094 C 24.125 17.9375 23.734375 18.453125 23.449219 19.035156 C 23.289062 19.363281 23.144531 19.699219 23.042969 20.046875 C 22.925781 20.46875 22.832031 20.902344 22.839844 21.347656 C 22.84375 21.765625 22.851562 22.179688 22.925781 22.59375 C 23.035156 23.222656 23.230469 23.816406 23.523438 24.378906 C 23.941406 25.175781 24.480469 25.886719 25.125 26.519531 C 25.8125 27.1875 26.613281 27.671875 27.523438 27.96875 C 28.261719 28.207031 29.027344 28.3125 29.804688 28.324219 C 30.371094 28.332031 30.925781 28.273438 31.480469 28.1875 C 31.863281 28.128906 32.242188 28.050781 32.621094 27.988281 C 33.039062 27.917969 33.460938 27.886719 33.886719 27.90625 C 34.753906 27.945312 35.511719 28.253906 36.183594 28.78125 C 36.304688 28.875 36.410156 28.921875 36.554688 28.914062 C 36.664062 28.90625 36.769531 28.914062 36.851562 29 "/>
<path style=" stroke:none;fill-rule:nonzero;fill:rgb(53.833008%,52.992249%,53.201294%);fill-opacity:1;" d="M 27.769531 37.683594 C 27.800781 37.757812 27.832031 37.828125 27.859375 37.902344 C 27.847656 37.902344 27.832031 37.902344 27.816406 37.902344 C 27.800781 37.828125 27.785156 37.757812 27.769531 37.683594 "/>
<path style=" stroke:none;fill-rule:nonzero;fill:rgb(49.450684%,48.530579%,48.75946%);fill-opacity:1;" d="M 21.609375 11.980469 C 21.519531 11.996094 21.425781 12.011719 21.332031 12.027344 C 21.425781 12.011719 21.519531 11.996094 21.609375 11.980469 "/>
<path style=" stroke:none;fill-rule:nonzero;fill:rgb(52.484131%,51.620483%,51.834106%);fill-opacity:1;" d="M 21.699219 21.019531 C 21.671875 21.332031 21.617188 21.648438 21.617188 21.964844 C 21.621094 22.347656 21.667969 22.730469 21.699219 23.117188 C 21.671875 23.054688 21.625 23 21.617188 22.9375 C 21.59375 22.710938 21.582031 22.476562 21.5625 22.25 C 21.5625 22.050781 21.5625 21.855469 21.566406 21.65625 C 21.578125 21.609375 21.59375 21.566406 21.609375 21.519531 C 21.609375 21.398438 21.609375 21.277344 21.609375 21.15625 C 21.625 21.125 21.640625 21.09375 21.65625 21.0625 C 21.667969 21.046875 21.683594 21.03125 21.699219 21.019531 "/>
<path style=" stroke:none;fill-rule:nonzero;fill:rgb(47.93396%,46.986389%,47.221375%);fill-opacity:1;" d="M 24.121094 16.640625 C 24.03125 16.730469 23.941406 16.820312 23.851562 16.910156 C 23.828125 16.914062 23.808594 16.917969 23.765625 16.925781 C 23.824219 16.851562 23.871094 16.785156 23.925781 16.730469 C 23.984375 16.671875 24.054688 16.621094 24.136719 16.554688 C 24.128906 16.597656 24.125 16.617188 24.121094 16.640625 "/>
<path style=" stroke:none;fill-rule:nonzero;fill:rgb(47.93396%,46.986389%,47.221375%);fill-opacity:1;" d="M 24.804688 16.140625 C 24.789062 16.152344 24.773438 16.164062 24.753906 16.179688 C 24.75 16.152344 24.738281 16.121094 24.742188 16.097656 C 24.746094 16.082031 24.777344 16.074219 24.796875 16.0625 C 24.796875 16.089844 24.800781 16.113281 24.804688 16.140625 "/>
<path style=" stroke:none;fill-rule:nonzero;fill:rgb(53.833008%,52.992249%,53.201294%);fill-opacity:1;" d="M 27.539062 34.890625 C 27.523438 35.085938 27.5 35.28125 27.496094 35.472656 C 27.492188 35.867188 27.460938 36.257812 27.539062 36.648438 C 27.550781 36.699219 27.542969 36.753906 27.539062 36.804688 C 27.511719 36.675781 27.464844 36.546875 27.453125 36.414062 C 27.4375 36.226562 27.449219 36.039062 27.445312 35.847656 C 27.449219 35.660156 27.4375 35.46875 27.453125 35.28125 C 27.464844 35.152344 27.511719 35.023438 27.539062 34.890625 "/>
<path style=" stroke:none;fill-rule:nonzero;fill:rgb(53.833008%,52.992249%,53.201294%);fill-opacity:1;" d="M 27.542969 36.847656 C 27.601562 37.078125 27.664062 37.304688 27.722656 37.535156 C 27.582031 37.328125 27.578125 37.085938 27.542969 36.847656 "/>
<path style=" stroke:none;fill-rule:nonzero;fill:rgb(53.833008%,52.992249%,53.201294%);fill-opacity:1;" d="M 28.222656 32.972656 C 28.164062 33.082031 28.105469 33.1875 28.046875 33.292969 C 27.957031 33.136719 27.957031 33.136719 28.078125 32.949219 C 28.121094 32.957031 28.171875 32.964844 28.222656 32.972656 "/>
<path style=" stroke:none;fill-rule:nonzero;fill:rgb(53.833008%,52.992249%,53.201294%);fill-opacity:1;" d="M 27.675781 34.207031 C 27.632812 34.40625 27.589844 34.601562 27.542969 34.800781 C 27.589844 34.601562 27.632812 34.40625 27.675781 34.207031 "/>
<path style=" stroke:none;fill-rule:nonzero;fill:rgb(53.833008%,52.992249%,53.201294%);fill-opacity:1;" d="M 28.046875 33.292969 C 28 33.398438 27.953125 33.5 27.90625 33.601562 C 27.925781 33.488281 27.929688 33.367188 28.046875 33.292969 "/>
<path style=" stroke:none;fill-rule:nonzero;fill:rgb(53.833008%,52.992249%,53.201294%);fill-opacity:1;" d="M 27.859375 33.703125 C 27.832031 33.792969 27.800781 33.878906 27.769531 33.96875 C 27.800781 33.878906 27.832031 33.792969 27.859375 33.703125 "/>
<path style=" stroke:none;fill-rule:nonzero;fill:rgb(49.450684%,48.530579%,48.75946%);fill-opacity:1;" d="M 21.566406 21.65625 C 21.5625 21.855469 21.5625 22.050781 21.5625 22.25 C 21.539062 22.222656 21.492188 22.195312 21.492188 22.167969 C 21.484375 22.019531 21.480469 21.871094 21.488281 21.722656 C 21.488281 21.699219 21.535156 21.679688 21.566406 21.65625 "/>
<path style=" stroke:none;fill-rule:nonzero;fill:rgb(52.484131%,51.620483%,51.834106%);fill-opacity:1;" d="M 21.703125 23.25 C 21.800781 23.4375 21.832031 23.640625 21.839844 23.847656 C 21.792969 23.648438 21.746094 23.449219 21.703125 23.25 "/>
<path style=" stroke:none;fill-rule:nonzero;fill:rgb(52.484131%,51.620483%,51.834106%);fill-opacity:1;" d="M 21.886719 23.980469 C 21.929688 24.117188 21.976562 24.257812 22.019531 24.394531 C 21.910156 24.277344 21.90625 24.125 21.886719 23.980469 "/>
<path style=" stroke:none;fill-rule:nonzero;fill:rgb(49.450684%,48.530579%,48.75946%);fill-opacity:1;" d="M 21.609375 21.15625 C 21.609375 21.277344 21.609375 21.398438 21.609375 21.519531 C 21.539062 21.398438 21.539062 21.277344 21.609375 21.15625 "/>
<g clip-path="url(#clip1)" clip-rule="nonzero">
<g clip-path="url(#clip2)" clip-rule="nonzero">
<g clip-path="url(#clip3)" clip-rule="nonzero">
<path style=" stroke:none;fill-rule:nonzero;fill:url(#linear0);" d="M 6.71875 47.089844 L 43.601562 47.089844 L 43.601562 11.621094 L 6.71875 11.621094 Z M 6.71875 47.089844 "/>
</g>
</g>
</g>
<path style=" stroke:none;fill-rule:nonzero;fill:rgb(53.833008%,52.992249%,53.201294%);fill-opacity:1;" d="M 29.832031 31.199219 C 29.769531 31.242188 29.707031 31.285156 29.644531 31.328125 C 29.632812 31.265625 29.625 31.203125 29.617188 31.136719 C 29.710938 31.074219 29.761719 31.171875 29.832031 31.199219 "/>
<path style=" stroke:none;fill-rule:nonzero;fill:rgb(53.833008%,52.992249%,53.201294%);fill-opacity:1;" d="M 29.589844 31.371094 C 29.53125 31.417969 29.472656 31.464844 29.414062 31.511719 C 29.484375 31.441406 29.46875 31.371094 29.398438 31.3125 C 29.5 31.261719 29.539062 31.332031 29.589844 31.371094 "/>
<path style=" stroke:none;fill-rule:nonzero;fill:rgb(53.833008%,52.992249%,53.201294%);fill-opacity:1;" d="M 28.949219 31.84375 C 28.925781 31.867188 28.910156 31.890625 28.894531 31.890625 C 28.878906 31.890625 28.863281 31.863281 28.851562 31.851562 C 28.867188 31.835938 28.878906 31.816406 28.898438 31.808594 C 28.910156 31.808594 28.925781 31.828125 28.949219 31.84375 "/>
<path style=" stroke:none;fill-rule:nonzero;fill:rgb(90.353394%,90.177917%,90.222168%);fill-opacity:1;" d="M 41.070312 28.507812 C 41.46875 28.507812 41.792969 28.199219 41.796875 27.816406 C 41.796875 27.433594 41.476562 27.125 41.074219 27.125 C 40.664062 27.125 40.351562 27.421875 40.351562 27.808594 C 40.351562 28.199219 40.667969 28.507812 41.070312 28.507812 Z M 26.15625 21.820312 C 26.175781 22.035156 26.191406 22.253906 26.214844 22.472656 C 26.289062 23.128906 26.535156 23.71875 26.886719 24.269531 C 27.179688 24.734375 27.53125 25.15625 27.976562 25.480469 C 28.289062 25.710938 28.605469 25.9375 28.949219 26.113281 C 29.429688 26.367188 29.949219 26.554688 30.488281 26.644531 C 30.707031 26.683594 30.925781 26.714844 31.144531 26.730469 C 31.484375 26.75 31.828125 26.785156 32.164062 26.753906 C 32.625 26.710938 33.082031 26.628906 33.523438 26.484375 C 33.960938 26.347656 34.378906 26.160156 34.769531 25.925781 C 35.210938 25.667969 35.59375 25.335938 35.945312 24.964844 C 36.3125 24.578125 36.59375 24.140625 36.808594 23.660156 C 37.011719 23.21875 37.128906 22.75 37.183594 22.261719 C 37.226562 21.886719 37.214844 21.519531 37.15625 21.152344 C 37.058594 20.554688 36.859375 19.992188 36.535156 19.476562 C 36.210938 18.957031 35.800781 18.511719 35.324219 18.132812 C 34.925781 17.8125 34.480469 17.5625 34.011719 17.363281 C 33.542969 17.164062 33.050781 17.023438 32.542969 16.960938 C 31.910156 16.882812 31.277344 16.886719 30.640625 16.996094 C 29.777344 17.148438 28.976562 17.457031 28.257812 17.96875 C 27.707031 18.359375 27.234375 18.832031 26.875 19.402344 C 26.414062 20.136719 26.15625 20.9375 26.15625 21.820312 Z M 36.851562 29 C 36.769531 28.914062 36.664062 28.90625 36.554688 28.914062 C 36.410156 28.921875 36.304688 28.875 36.183594 28.78125 C 35.511719 28.253906 34.753906 27.945312 33.886719 27.90625 C 33.460938 27.886719 33.039062 27.917969 32.621094 27.988281 C 32.242188 28.050781 31.863281 28.128906 31.480469 28.1875 C 30.925781 28.273438 30.371094 28.332031 29.804688 28.324219 C 29.027344 28.3125 28.261719 28.207031 27.523438 27.96875 C 26.613281 27.671875 25.8125 27.1875 25.125 26.519531 C 24.480469 25.886719 23.941406 25.175781 23.523438 24.378906 C 23.230469 23.816406 23.035156 23.222656 22.925781 22.59375 C 22.851562 22.179688 22.84375 21.765625 22.839844 21.347656 C 22.832031 20.902344 22.925781 20.46875 23.042969 20.046875 C 23.144531 19.699219 23.289062 19.363281 23.449219 19.035156 C 23.734375 18.453125 24.125 17.9375 24.605469 17.496094 C 25.226562 16.9375 25.929688 16.511719 26.722656 16.230469 C 27.144531 16.085938 27.574219 15.980469 28.015625 15.886719 C 28.660156 15.75 29.308594 15.746094 29.957031 15.742188 C 30.472656 15.738281 30.988281 15.8125 31.492188 15.925781 C 31.984375 16.035156 32.484375 16.148438 32.96875 16.300781 C 33.394531 16.433594 33.808594 16.605469 34.21875 16.78125 C 34.996094 17.117188 35.722656 17.539062 36.417969 18.019531 C 37.074219 18.472656 37.703125 18.960938 38.261719 19.53125 C 38.609375 19.882812 38.964844 20.226562 39.28125 20.605469 C 39.6875 21.085938 40.089844 21.570312 40.414062 22.113281 C 40.597656 22.417969 40.804688 22.707031 40.980469 23.019531 C 41.578125 24.082031 42.0625 25.195312 42.386719 26.371094 C 42.492188 26.765625 42.585938 27.164062 42.671875 27.5625 C 42.71875 27.761719 42.738281 27.96875 42.757812 28.171875 C 42.761719 28.222656 42.726562 28.28125 42.699219 28.332031 C 42.671875 28.394531 42.636719 28.449219 42.601562 28.507812 C 42.503906 28.730469 42.457031 28.964844 42.425781 29.210938 C 42.332031 29.945312 41.847656 30.65625 40.898438 30.875 C 40.121094 31.054688 39.402344 30.898438 38.765625 30.417969 C 38.621094 30.308594 38.5 30.164062 38.378906 30.03125 C 38.113281 29.734375 37.828125 29.464844 37.476562 29.269531 C 37.277344 29.160156 37.058594 29.089844 36.851562 29 "/>
<path style=" stroke:none;fill-rule:nonzero;fill:rgb(47.93396%,46.986389%,47.221375%);fill-opacity:1;" d="M 34.933594 16.179688 C 35.089844 16.132812 35.214844 16.214844 35.335938 16.292969 C 35.335938 16.292969 35.3125 16.339844 35.300781 16.363281 C 35.179688 16.300781 35.054688 16.242188 34.933594 16.179688 "/>
<path style=" stroke:none;fill-rule:nonzero;fill:rgb(47.93396%,46.986389%,47.221375%);fill-opacity:1;" d="M 34.480469 15.992188 C 34.566406 15.921875 34.628906 15.996094 34.699219 16.03125 C 34.671875 16.035156 34.644531 16.039062 34.617188 16.042969 C 34.570312 16.027344 34.527344 16.011719 34.480469 15.992188 "/>
<path style=" stroke:none;fill-rule:nonzero;fill:rgb(99.534607%,99.525452%,99.528503%);fill-opacity:1;" d="M 29.679688 20.015625 C 29.644531 20.710938 29.925781 21.285156 30.429688 21.726562 C 31.117188 22.324219 31.921875 22.492188 32.789062 22.195312 C 33.863281 21.828125 34.535156 20.84375 34.320312 19.613281 C 34.164062 18.710938 33.570312 18.113281 32.699219 17.84375 C 32.164062 17.675781 31.617188 17.71875 31.078125 17.9375 C 30.25 18.273438 29.613281 19.203125 29.679688 20.015625 Z M 26.15625 21.820312 C 26.15625 20.9375 26.414062 20.136719 26.875 19.402344 C 27.234375 18.832031 27.707031 18.359375 28.257812 17.96875 C 28.976562 17.457031 29.777344 17.148438 30.640625 16.996094 C 31.277344 16.886719 31.910156 16.882812 32.542969 16.960938 C 33.050781 17.023438 33.542969 17.164062 34.011719 17.363281 C 34.480469 17.5625 34.925781 17.8125 35.324219 18.132812 C 35.800781 18.511719 36.210938 18.957031 36.535156 19.476562 C 36.859375 19.992188 37.058594 20.554688 37.15625 21.152344 C 37.214844 21.519531 37.226562 21.886719 37.183594 22.261719 C 37.128906 22.75 37.011719 23.21875 36.808594 23.660156 C 36.59375 24.140625 36.3125 24.578125 35.945312 24.964844 C 35.59375 25.335938 35.210938 25.667969 34.769531 25.925781 C 34.378906 26.160156 33.960938 26.347656 33.523438 26.484375 C 33.082031 26.628906 32.625 26.710938 32.164062 26.753906 C 31.828125 26.785156 31.484375 26.75 31.144531 26.730469 C 30.925781 26.714844 30.707031 26.683594 30.488281 26.644531 C 29.949219 26.554688 29.429688 26.367188 28.949219 26.113281 C 28.605469 25.9375 28.289062 25.710938 27.976562 25.480469 C 27.53125 25.15625 27.179688 24.734375 26.886719 24.269531 C 26.535156 23.71875 26.289062 23.128906 26.214844 22.472656 C 26.191406 22.253906 26.175781 22.035156 26.15625 21.820312 "/>
<path style=" stroke:none;fill-rule:nonzero;fill:rgb(14.234924%,12.67395%,13.061523%);fill-opacity:1;" d="M 41.070312 28.507812 C 40.667969 28.507812 40.351562 28.199219 40.351562 27.808594 C 40.351562 27.421875 40.664062 27.125 41.074219 27.125 C 41.476562 27.125 41.796875 27.433594 41.796875 27.816406 C 41.792969 28.199219 41.46875 28.507812 41.070312 28.507812 "/>
<path style=" stroke:none;fill-rule:nonzero;fill:rgb(98.321533%,75.117493%,9.388733%);fill-opacity:1;" d="M 32.054688 18.902344 C 31.453125 18.84375 30.832031 19.355469 30.835938 20.070312 C 30.839844 20.734375 31.371094 21.238281 32.039062 21.238281 C 32.710938 21.238281 33.238281 20.726562 33.25 20.074219 C 33.261719 19.425781 32.726562 18.90625 32.054688 18.902344 Z M 29.679688 20.015625 C 29.613281 19.203125 30.25 18.273438 31.078125 17.9375 C 31.617188 17.71875 32.164062 17.675781 32.699219 17.84375 C 33.570312 18.113281 34.164062 18.710938 34.320312 19.613281 C 34.535156 20.84375 33.863281 21.828125 32.789062 22.195312 C 31.921875 22.492188 31.117188 22.324219 30.429688 21.726562 C 29.925781 21.285156 29.644531 20.710938 29.679688 20.015625 "/>
<path style=" stroke:none;fill-rule:nonzero;fill:rgb(14.065552%,12.503052%,12.890625%);fill-opacity:1;" d="M 32.054688 18.902344 C 32.726562 18.90625 33.261719 19.425781 33.25 20.074219 C 33.238281 20.726562 32.710938 21.238281 32.039062 21.238281 C 31.371094 21.238281 30.839844 20.734375 30.835938 20.070312 C 30.832031 19.355469 31.453125 18.84375 32.054688 18.902344 "/>
</g>
</svg>
