<?xml version="1.0" encoding="UTF-8"?>
<svg xmlns="http://www.w3.org/2000/svg" xmlns:xlink="http://www.w3.org/1999/xlink" width="56pt" height="56pt" viewBox="0 0 56 56" version="1.1">
<g id="surface1">
<rect x="0" y="0" width="56" height="56" style="fill:rgb(31.455994%,60.842896%,85.552979%);fill-opacity:1;stroke:none;"/>
<path style=" stroke:none;fill-rule:evenodd;fill:rgb(100%,100%,100%);fill-opacity:1;" d="M 28.207031 27.121094 C 26.445312 29.195312 24.15625 31.46875 21.539062 32.660156 C 21.785156 36.972656 39.535156 36.957031 45.253906 37.105469 C 28.871094 38.609375 18.453125 37.839844 18.695312 31.648438 C 20.808594 30.875 24.167969 28.597656 26.378906 26.414062 L 28.207031 27.121094 "/>
<path style=" stroke:none;fill-rule:evenodd;fill:rgb(100%,100%,100%);fill-opacity:1;" d="M 3.074219 36.996094 C 2.207031 36.050781 1.445312 34.734375 3.871094 33.679688 C 10.171875 30.925781 15.078125 27.039062 17.867188 25.902344 C 20.90625 24.679688 22.867188 25.167969 25.238281 25.980469 C 25.0625 26.132812 23.964844 27.148438 23.816406 27.324219 C 20.972656 26.617188 19.144531 26.863281 15.945312 29.492188 L 20.1875 29.492188 L 17.664062 31.078125 L 13.195312 31.078125 C 10.363281 32.703125 7.367188 34.382812 4.320312 35.535156 C 4.0625 35.535156 3.179688 36.660156 3.074219 36.996094 "/>
<path style=" stroke:none;fill-rule:evenodd;fill:rgb(100%,100%,100%);fill-opacity:1;" d="M 34.101562 26.847656 C 40.808594 20.65625 44.65625 18.625 52.53125 18.949219 C 44.738281 16.632812 38.925781 20.113281 34.101562 26.847656 "/>
<path style=" stroke:none;fill-rule:evenodd;fill:rgb(100%,100%,100%);fill-opacity:1;" d="M 21.230469 28.679688 C 21.515625 28.679688 21.757812 28.449219 21.757812 28.152344 C 21.757812 27.867188 21.527344 27.621094 21.230469 27.621094 C 20.945312 27.621094 20.699219 27.851562 20.699219 28.152344 C 20.699219 28.433594 20.929688 28.679688 21.230469 28.679688 "/>
<path style=" stroke:none;fill-rule:evenodd;fill:rgb(100%,100%,100%);fill-opacity:1;" d="M 23.355469 33.460938 C 24.847656 34.246094 27.921875 35.222656 30.878906 35.277344 C 40.117188 27.554688 40.359375 21.171875 53.761719 20.996094 C 41.132812 19.019531 41.226562 23.3125 33.085938 30.902344 C 29.5625 27.28125 35.496094 22.851562 39.628906 19.234375 C 31.308594 23.339844 27.773438 27.484375 31.636719 32.203125 C 30.144531 33.707031 25.890625 33.460938 23.355469 33.460938 "/>
</g>
</svg>
