<?xml version="1.0" encoding="UTF-8"?>
<svg xmlns="http://www.w3.org/2000/svg" xmlns:xlink="http://www.w3.org/1999/xlink" width="56pt" height="56pt" viewBox="0 0 56 56" version="1.1">
<g id="surface1">
<rect x="0" y="0" width="56" height="56" style="fill:rgb(21.043396%,29.969788%,65.769958%);fill-opacity:1;stroke:none;"/>
<path style=" stroke:none;fill-rule:evenodd;fill:rgb(94.564819%,78.733826%,11.99646%);fill-opacity:1;" d="M 35.40625 14.894531 C 37.636719 15.640625 39.992188 16.210938 42.398438 16.484375 L 44.078125 16.5 L 44.128906 16.453125 C 44.777344 16.472656 45.316406 16.292969 45.882812 16.109375 C 46.1875 16.007812 46.503906 15.902344 46.847656 15.828125 L 46.855469 15.824219 C 46.964844 15.796875 47.207031 15.742188 47.3125 15.882812 C 47.359375 16.066406 47.285156 16.269531 47.074219 16.410156 C 45.878906 17.324219 44.457031 18.003906 43.113281 18.492188 L 43.113281 18.464844 C 42.789062 18.527344 42.453125 18.644531 42.113281 18.761719 C 41.988281 18.804688 41.863281 18.847656 41.742188 18.890625 C 40.089844 19.390625 38.207031 19.703125 36.425781 19.578125 C 34.882812 19.496094 33.441406 19.203125 32.050781 18.921875 C 30.367188 18.578125 28.757812 18.25 27.113281 18.328125 C 24.15625 18.15625 21.347656 19.285156 19.773438 21.511719 C 18.96875 22.679688 18.324219 23.90625 18.125 25.261719 C 18.179688 25.988281 18.804688 26.449219 19.441406 26.917969 C 19.878906 27.234375 20.316406 27.558594 20.578125 27.96875 C 20.820312 28.371094 20.980469 28.796875 21.144531 29.222656 C 21.226562 29.449219 21.3125 29.671875 21.40625 29.890625 L 21.464844 29.992188 C 22.160156 31.238281 22.851562 32.480469 23.707031 33.65625 L 23.683594 33.679688 C 24.199219 34.484375 25.015625 35.183594 25.984375 35.65625 C 27.238281 36.554688 28.347656 37.679688 29.007812 38.886719 L 28.972656 38.90625 C 29.484375 39.722656 29.839844 40.558594 30.199219 41.402344 C 30.363281 41.78125 30.527344 42.164062 30.703125 42.546875 C 30.808594 42.851562 30.914062 43.140625 31.023438 43.425781 C 31.179688 43.847656 31.335938 44.265625 31.464844 44.703125 C 31.515625 44.75 31.53125 44.808594 31.550781 44.875 C 31.558594 44.910156 31.570312 44.945312 31.585938 44.980469 C 31.644531 45.152344 31.703125 45.328125 31.761719 45.507812 C 31.898438 45.921875 32.035156 46.34375 32.210938 46.722656 C 32.148438 46.769531 32.183594 46.800781 32.21875 46.832031 C 32.25 46.855469 32.28125 46.882812 32.269531 46.917969 C 32.273438 47.007812 32.300781 47.113281 32.332031 47.21875 C 32.402344 47.496094 32.480469 47.792969 32.175781 47.953125 C 31.695312 47.527344 31.394531 46.949219 31.125 46.441406 C 31.046875 46.292969 30.972656 46.148438 30.898438 46.019531 C 30.164062 44.742188 29.328125 43.507812 28.425781 42.292969 L 28.453125 42.269531 C 28.375 42.171875 28.296875 42.074219 28.21875 41.972656 C 27.726562 41.355469 27.199219 40.691406 26.652344 40.070312 C 25.21875 38.484375 23.425781 37.238281 21.628906 35.988281 C 20.074219 34.910156 18.519531 33.828125 17.191406 32.527344 L 17.164062 32.550781 C 17 32.40625 16.875 32.226562 16.753906 32.050781 C 16.691406 31.960938 16.628906 31.875 16.5625 31.789062 L 16.582031 31.761719 C 16.398438 31.503906 16.253906 31.226562 16.109375 30.953125 C 15.976562 30.703125 15.847656 30.453125 15.6875 30.214844 L 15.707031 30.191406 C 14.820312 28.867188 13.964844 27.464844 13.390625 26.074219 C 13.347656 25.859375 13.296875 25.652344 13.242188 25.449219 C 13.144531 25.066406 13.042969 24.679688 13.015625 24.21875 L 12.949219 23.988281 C 12.960938 23.753906 12.757812 23.554688 12.539062 23.339844 C 12.148438 22.960938 11.703125 22.519531 12.265625 21.734375 C 12.480469 21.5 12.933594 21.25 13.453125 20.960938 C 14.265625 20.507812 15.238281 19.964844 15.683594 19.28125 C 15.6875 19.265625 15.6875 19.25 15.691406 19.234375 C 15.707031 19.078125 15.726562 18.902344 15.59375 18.765625 C 15.59375 18.671875 15.523438 18.578125 15.449219 18.480469 C 15.425781 18.453125 15.40625 18.421875 15.386719 18.394531 C 15.210938 18.175781 14.902344 18.128906 14.613281 18.082031 C 14.238281 18.023438 13.890625 17.964844 13.902344 17.546875 C 13.960938 17.542969 13.957031 17.511719 13.953125 17.476562 C 13.949219 17.449219 13.945312 17.417969 13.980469 17.398438 C 13.917969 17.03125 13.894531 16.789062 13.996094 16.480469 C 14.21875 15.871094 14.433594 15.171875 14.390625 14.558594 C 14.433594 14.328125 14.667969 14.1875 14.898438 14.097656 C 15.355469 13.984375 15.753906 13.921875 16.199219 13.863281 L 16.257812 13.910156 C 17.289062 13.824219 18.527344 13.898438 19.214844 14.710938 C 19.492188 15.285156 19.308594 15.957031 19.148438 16.550781 C 19.136719 16.589844 19.125 16.632812 19.113281 16.675781 C 19.089844 16.824219 19.011719 16.960938 18.929688 17.09375 C 18.820312 17.289062 18.707031 17.476562 18.761719 17.699219 C 18.898438 17.835938 19.179688 17.828125 19.363281 17.75 C 20.921875 16.804688 22.28125 15.496094 23.417969 14.171875 C 24.464844 13.191406 26.003906 12.851562 27.421875 13.054688 C 29.417969 13.210938 31.199219 13.722656 33 14.238281 C 33.789062 14.46875 34.582031 14.695312 35.398438 14.894531 Z M 28.003906 20.078125 C 28.296875 20.464844 28.097656 20.820312 27.902344 21.164062 C 27.828125 21.296875 27.753906 21.429688 27.707031 21.5625 C 26.570312 23.269531 25.933594 25.128906 25.292969 26.992188 C 24.988281 27.890625 24.679688 28.789062 24.316406 29.667969 C 24.234375 29.761719 24.066406 29.789062 23.945312 29.753906 C 23.648438 29.539062 23.648438 29.191406 23.683594 28.882812 C 23.90625 25.945312 24.683594 23.1875 25.933594 20.5625 C 26.226562 20.140625 26.726562 19.664062 27.367188 19.765625 C 27.609375 19.816406 27.828125 19.898438 28.003906 20.078125 Z M 32.003906 22.707031 C 32.300781 22.113281 32.597656 21.523438 32.445312 20.84375 C 32.140625 20.449219 31.589844 20.40625 31.039062 20.464844 C 30.890625 20.507812 30.828125 20.574219 30.75 20.652344 C 30.710938 20.695312 30.664062 20.738281 30.601562 20.789062 C 29.019531 23.519531 27.890625 26.523438 26.957031 29.460938 C 26.597656 30.78125 26.222656 32.230469 26.550781 33.621094 C 26.585938 33.71875 26.703125 33.789062 26.839844 33.75 C 26.96875 33.703125 27.035156 33.550781 27.082031 33.441406 C 27.820312 30.785156 29.132812 28.296875 30.4375 25.824219 C 30.851562 25.039062 31.265625 24.253906 31.660156 23.464844 C 31.753906 23.207031 31.878906 22.957031 32.003906 22.707031 Z M 37.1875 21.007812 C 37.628906 21.339844 37.402344 21.96875 37.226562 22.359375 C 36.457031 24.066406 35.492188 25.679688 34.535156 27.289062 C 33.101562 29.6875 31.675781 32.074219 30.90625 34.746094 C 30.675781 35.359375 30.496094 35.992188 30.316406 36.617188 C 30.222656 36.953125 30.128906 37.289062 30.023438 37.621094 C 29.972656 37.792969 29.722656 37.796875 29.542969 37.757812 C 29.402344 37.425781 29.410156 37.019531 29.417969 36.644531 C 29.417969 36.5625 29.421875 36.480469 29.421875 36.402344 C 29.828125 32.816406 30.683594 29.332031 32.4375 26.210938 C 33.230469 24.652344 34.003906 23.25 34.839844 21.726562 C 35.074219 21.296875 35.46875 20.90625 36.042969 20.765625 C 36.464844 20.742188 36.871094 20.839844 37.1875 21.007812 Z M 42.410156 22.527344 C 42.550781 22.105469 42.703125 21.648438 42.449219 21.226562 C 42.085938 20.835938 41.625 20.617188 41.011719 20.707031 C 40.402344 20.878906 40.007812 21.4375 39.808594 21.894531 C 38.988281 23.957031 37.949219 25.929688 36.914062 27.894531 C 36.136719 29.375 35.359375 30.851562 34.683594 32.355469 C 34.605469 32.542969 34.53125 32.730469 34.457031 32.917969 C 33.269531 35.871094 32.070312 38.84375 31.875 42.117188 C 31.890625 42.1875 31.902344 42.261719 31.910156 42.332031 C 31.941406 42.558594 31.96875 42.785156 32.171875 42.957031 C 32.199219 42.949219 32.230469 42.953125 32.261719 42.953125 C 32.320312 42.953125 32.375 42.957031 32.398438 42.902344 C 32.652344 42.445312 32.800781 41.949219 32.953125 41.449219 C 33.066406 41.074219 33.175781 40.703125 33.332031 40.347656 C 33.394531 40.175781 33.457031 40.011719 33.523438 39.839844 C 34.503906 37.222656 35.5 34.570312 36.976562 32.167969 C 37.539062 31.21875 38.140625 30.292969 38.742188 29.371094 C 40.109375 27.269531 41.472656 25.179688 42.320312 22.804688 C 42.347656 22.714844 42.378906 22.621094 42.410156 22.527344 "/>
</g>
</svg>
