<?xml version="1.0" encoding="UTF-8"?>
<svg xmlns="http://www.w3.org/2000/svg" xmlns:xlink="http://www.w3.org/1999/xlink" width="56pt" height="56pt" viewBox="0 0 56 56" version="1.1">
<g id="surface1">
<rect x="0" y="0" width="56" height="56" style="fill:rgb(95.66803%,95.779419%,96.777344%);fill-opacity:1;stroke:none;"/>
<path style=" stroke:none;fill-rule:nonzero;fill:rgb(16.156006%,28.630066%,50.396729%);fill-opacity:1;" d="M 19.703125 16.097656 C 18.875 16.085938 18.050781 16.0625 17.222656 16.066406 C 16.21875 16.066406 15.207031 16.027344 14.214844 16.125 C 12.933594 16.253906 12.023438 16.96875 11.570312 18.1875 C 11.457031 18.492188 11.4375 18.839844 11.417969 19.167969 C 11.390625 19.609375 11.414062 20.054688 11.402344 20.496094 C 11.394531 20.746094 11.476562 20.847656 11.742188 20.84375 C 13.035156 20.824219 14.289062 21.046875 15.484375 21.566406 C 16.609375 22.050781 17.585938 22.757812 18.460938 23.609375 C 18.660156 23.804688 18.628906 23.957031 18.449219 24.132812 C 17.421875 25.140625 16.257812 25.925781 14.890625 26.394531 C 13.886719 26.742188 12.855469 26.929688 11.789062 26.882812 C 11.433594 26.867188 11.386719 26.921875 11.386719 27.324219 C 11.386719 30.335938 11.390625 33.347656 11.390625 36.363281 C 11.390625 36.519531 11.390625 36.671875 11.390625 36.878906 C 11.234375 36.839844 11.132812 36.824219 11.039062 36.785156 C 7.984375 35.503906 6.15625 33.214844 5.53125 29.976562 C 5.394531 29.257812 5.351562 28.511719 5.347656 27.777344 C 5.324219 24.792969 5.292969 21.804688 5.351562 18.824219 C 5.402344 16.050781 6.582031 13.785156 8.75 12.0625 C 10.503906 10.667969 12.515625 9.984375 14.777344 10.015625 C 17.367188 10.046875 19.957031 10.027344 22.546875 10.03125 C 22.386719 10.226562 22.242188 10.4375 22.066406 10.617188 C 21.28125 11.417969 20.65625 12.332031 20.222656 13.363281 C 19.859375 14.238281 19.582031 15.136719 19.699219 16.105469 L 19.703125 16.097656 "/>
<path style=" stroke:none;fill-rule:nonzero;fill:rgb(71.609497%,11.534119%,13.990784%);fill-opacity:1;" d="M 35.21875 34.539062 C 34.257812 35.328125 33.222656 36.007812 32.039062 36.433594 C 30.230469 37.09375 28.398438 37.105469 26.554688 36.617188 C 22.910156 35.652344 20.800781 33.207031 19.867188 29.648438 C 19.761719 29.242188 19.714844 28.808594 19.714844 28.390625 C 19.699219 24.292969 19.703125 20.195312 19.703125 16.097656 L 19.699219 16.105469 C 21.703125 16.101562 23.707031 16.101562 25.710938 16.101562 C 25.722656 16.226562 25.738281 16.355469 25.738281 16.480469 C 25.738281 20.207031 25.730469 23.929688 25.734375 27.652344 C 25.734375 29.300781 26.8125 30.566406 28.4375 30.855469 C 30.207031 31.167969 32.054688 29.714844 32.113281 27.914062 C 32.15625 26.394531 32.449219 24.949219 33.191406 23.605469 C 33.65625 22.761719 34.28125 22.042969 34.957031 21.363281 C 35.113281 21.203125 35.242188 21.203125 35.40625 21.355469 C 36.941406 22.8125 37.890625 24.570312 38.144531 26.679688 C 38.214844 27.246094 38.246094 27.816406 38.296875 28.386719 C 38.265625 28.496094 38.207031 28.605469 38.199219 28.71875 C 38.152344 29.65625 37.890625 30.535156 37.515625 31.386719 C 36.976562 32.601562 36.15625 33.609375 35.21875 34.539062 "/>
<path style=" stroke:none;fill-rule:nonzero;fill:rgb(88.031006%,30.143738%,11.77063%);fill-opacity:1;" d="M 35.21875 34.539062 C 36.15625 33.609375 36.976562 32.601562 37.515625 31.386719 C 37.890625 30.535156 38.152344 29.65625 38.199219 28.71875 C 38.207031 28.605469 38.265625 28.496094 38.296875 28.386719 C 38.625 29.4375 39.25 30.222656 40.292969 30.652344 C 42.085938 31.394531 44.1875 30.359375 44.554688 28.519531 C 44.664062 27.972656 44.648438 27.402344 44.699219 26.84375 C 44.875 24.875 45.695312 23.203125 47.050781 21.78125 C 47.1875 21.636719 47.335938 21.503906 47.464844 21.355469 C 47.601562 21.203125 47.714844 21.214844 47.859375 21.355469 C 49.316406 22.800781 50.25 24.519531 50.554688 26.554688 C 50.640625 27.097656 50.671875 27.652344 50.671875 28.203125 C 50.683594 31.226562 50.675781 34.25 50.679688 37.273438 C 50.6875 41.039062 48.441406 44.417969 44.964844 45.878906 C 44.878906 45.914062 44.785156 45.9375 44.640625 45.984375 C 44.640625 45.8125 44.640625 45.6875 44.640625 45.566406 C 44.640625 42.640625 44.640625 39.714844 44.640625 36.785156 C 44.640625 36.367188 44.640625 36.371094 44.238281 36.488281 C 40.882812 37.457031 37.878906 36.792969 35.21875 34.539062 "/>
<path style=" stroke:none;fill-rule:nonzero;fill:rgb(11.122131%,13.955688%,29.025269%);fill-opacity:1;" d="M 25.710938 16.101562 C 23.707031 16.101562 21.703125 16.101562 19.699219 16.105469 C 19.582031 15.136719 19.859375 14.238281 20.222656 13.363281 C 20.65625 12.332031 21.28125 11.417969 22.066406 10.617188 C 22.242188 10.4375 22.386719 10.226562 22.546875 10.03125 C 22.683594 10.09375 22.847656 10.132812 22.953125 10.234375 C 24.386719 11.597656 25.375 13.21875 25.707031 15.191406 C 25.757812 15.484375 25.714844 15.796875 25.710938 16.101562 "/>
<path style=" stroke:none;fill-rule:nonzero;fill:rgb(77.94342%,16.221619%,13.983154%);fill-opacity:1;" d="M 35.074219 21.253906 C 35.074219 21.253906 38.148438 23.914062 38.148438 27.402344 C 38.148438 30.886719 37.203125 32.542969 35.25 34.550781 C 32.117188 32.304688 32.117188 28.640625 32.117188 27.28125 C 32.117188 26.21875 32.589844 23.734375 35.074219 21.253906 "/>
</g>
</svg>
