<?xml version="1.0" encoding="UTF-8"?>
<svg xmlns="http://www.w3.org/2000/svg" xmlns:xlink="http://www.w3.org/1999/xlink" width="56pt" height="56pt" viewBox="0 0 56 56" version="1.1">
<g id="surface1">
<rect x="0" y="0" width="56" height="56" style="fill:rgb(95.66803%,95.779419%,96.777344%);fill-opacity:1;stroke:none;"/>
<path style=" stroke:none;fill-rule:nonzero;fill:rgb(98.582458%,90.919495%,95.820618%);fill-opacity:1;" d="M 11.8125 9.0625 C 12.589844 9.183594 13.332031 9.300781 14.074219 9.417969 C 15.316406 9.617188 15.992188 10.25 16.183594 11.492188 C 16.289062 12.167969 16.34375 12.855469 16.34375 13.535156 C 16.355469 22.550781 16.355469 31.566406 16.355469 40.582031 C 16.355469 41.265625 16.347656 41.953125 16.300781 42.636719 C 16.199219 44.078125 15.585938 45.160156 14.128906 45.625 C 13.945312 45.683594 13.773438 45.769531 13.574219 45.847656 C 13.574219 46.34375 13.574219 46.824219 13.574219 47.363281 C 13.871094 47.363281 14.136719 47.363281 14.398438 47.363281 C 19.347656 47.363281 24.296875 47.363281 29.246094 47.363281 C 30.859375 47.363281 32.46875 47.328125 34.074219 47.082031 C 35.78125 46.816406 37.40625 46.347656 38.90625 45.472656 C 40.539062 44.523438 41.816406 43.230469 42.550781 41.480469 C 43.546875 39.101562 43.796875 36.613281 43.34375 34.082031 C 43.023438 32.273438 42.128906 30.734375 40.820312 29.457031 C 39.628906 28.296875 38.207031 27.492188 36.664062 26.898438 C 36.417969 26.804688 36.171875 26.703125 35.910156 26.597656 C 35.921875 26.386719 35.929688 26.222656 35.933594 26.140625 C 36.992188 25.488281 38.019531 24.917969 38.980469 24.253906 C 40.394531 23.28125 41.472656 21.996094 42.226562 20.441406 C 42.984375 18.882812 43.191406 17.226562 43.113281 15.519531 C 42.957031 12.175781 41.347656 9.679688 38.082031 8.488281 C 36.195312 7.800781 34.246094 7.515625 32.261719 7.507812 C 25.574219 7.476562 18.886719 7.488281 12.195312 7.488281 C 12.078125 7.488281 11.964844 7.5 11.8125 7.507812 C 11.8125 8.027344 11.8125 8.507812 11.8125 9.0625 Z M 14.207031 47.832031 C 13.871094 47.804688 13.53125 47.78125 13.148438 47.753906 C 13.148438 47.019531 13.148438 46.296875 13.148438 45.515625 C 13.796875 45.046875 14.816406 45.101562 15.40625 44.144531 C 15.472656 43.984375 15.601562 43.671875 15.730469 43.363281 C 15.96875 38.285156 15.871094 33.203125 15.890625 28.117188 C 15.90625 23.027344 15.894531 17.933594 15.890625 12.84375 C 15.890625 12.535156 15.679688 11.375 15.59375 11.179688 C 15.484375 10.574219 15.125 10.117188 14.554688 9.980469 C 13.855469 9.816406 13.117188 9.804688 12.394531 9.726562 C 12.054688 9.613281 11.71875 9.496094 11.398438 9.390625 C 11.261719 8.25 11.296875 7.441406 11.53125 6.921875 C 11.738281 6.921875 11.976562 6.921875 12.21875 6.921875 C 18.484375 6.921875 24.75 6.917969 31.015625 6.925781 C 31.617188 6.925781 32.222656 7.015625 32.824219 7.066406 C 33.402344 7.113281 33.976562 7.183594 34.554688 7.207031 C 35.578125 7.25 36.554688 7.457031 37.523438 7.785156 C 38.457031 8.105469 39.375 8.449219 40.199219 8.996094 C 41.210938 9.664062 42.03125 10.515625 42.5625 11.613281 C 42.816406 12.132812 43.011719 12.679688 43.230469 13.210938 C 43.277344 13.367188 43.324219 13.523438 43.371094 13.679688 C 43.445312 14.480469 43.566406 15.28125 43.582031 16.085938 C 43.632812 18.964844 42.65625 21.441406 40.601562 23.476562 C 39.550781 24.519531 38.335938 25.332031 37.027344 26.011719 C 36.871094 26.09375 36.726562 26.195312 36.519531 26.324219 C 37.054688 26.558594 37.492188 26.765625 37.941406 26.945312 C 38.066406 26.996094 38.21875 26.96875 38.359375 26.976562 C 38.441406 27.089844 38.5 27.257812 38.613281 27.3125 C 39.640625 27.808594 40.515625 28.5 41.320312 29.316406 C 42.339844 30.347656 43.042969 31.558594 43.539062 32.90625 C 43.546875 32.929688 43.546875 32.953125 43.550781 32.976562 C 43.628906 33.261719 43.703125 33.539062 43.78125 33.824219 C 44.058594 35.402344 44.058594 36.984375 43.832031 38.570312 C 43.625 40.011719 43.210938 41.382812 42.464844 42.640625 C 41.1875 44.789062 39.234375 46.074219 36.933594 46.875 C 34.855469 47.597656 32.691406 47.796875 30.507812 47.800781 C 25.34375 47.816406 20.179688 47.808594 15.015625 47.8125 C 14.746094 47.8125 14.476562 47.824219 14.207031 47.832031 "/>
<path style=" stroke:none;fill-rule:nonzero;fill:rgb(13.076782%,18.391418%,36.479187%);fill-opacity:1;" d="M 14.207031 47.832031 C 14.476562 47.824219 14.746094 47.8125 15.015625 47.8125 C 20.179688 47.808594 25.34375 47.816406 30.507812 47.800781 C 32.691406 47.796875 34.855469 47.597656 36.933594 46.875 C 39.234375 46.074219 41.1875 44.789062 42.464844 42.640625 C 43.210938 41.382812 43.625 40.011719 43.832031 38.570312 C 44.058594 36.984375 44.058594 35.402344 43.78125 33.824219 C 43.84375 33.820312 43.902344 33.820312 43.964844 33.820312 C 44.667969 35.484375 44.769531 37.230469 44.621094 39.003906 C 44.527344 40.152344 44.316406 41.277344 43.917969 42.363281 C 42.96875 44.957031 41.125 46.671875 38.632812 47.75 C 36.972656 48.46875 35.222656 48.792969 33.4375 48.917969 C 32.195312 49.007812 30.945312 49.039062 29.699219 49.042969 C 24.878906 49.058594 20.054688 49.050781 15.234375 49.050781 C 14.964844 49.050781 14.699219 49.070312 14.429688 49.082031 C 14.386719 49.0625 14.339844 49.054688 14.289062 49.0625 C 14.261719 48.652344 14.234375 48.242188 14.207031 47.832031 "/>
<path style=" stroke:none;fill-rule:nonzero;fill:rgb(13.319397%,18.39447%,36.97052%);fill-opacity:1;" d="M 38.359375 26.976562 C 38.21875 26.96875 38.066406 26.996094 37.941406 26.945312 C 37.492188 26.765625 37.054688 26.558594 36.519531 26.324219 C 36.726562 26.195312 36.871094 26.09375 37.027344 26.011719 C 38.335938 25.332031 39.550781 24.519531 40.601562 23.476562 C 42.65625 21.441406 43.632812 18.964844 43.582031 16.085938 C 43.566406 15.28125 43.445312 14.480469 43.371094 13.679688 C 43.417969 13.683594 43.464844 13.6875 43.511719 13.683594 C 44.292969 15.386719 44.40625 17.183594 44.183594 19 C 43.792969 22.210938 42.027344 24.542969 39.40625 26.304688 C 39.0625 26.535156 38.710938 26.753906 38.359375 26.976562 "/>
<path style=" stroke:none;fill-rule:nonzero;fill:rgb(43.037415%,25.569153%,51.464844%);fill-opacity:1;" d="M 43.964844 33.820312 C 43.902344 33.820312 43.84375 33.820312 43.78125 33.824219 C 43.703125 33.539062 43.628906 33.261719 43.550781 32.976562 C 43.6875 33.257812 43.828125 33.539062 43.964844 33.820312 "/>
<path style=" stroke:none;fill-rule:nonzero;fill:rgb(43.037415%,25.569153%,51.464844%);fill-opacity:1;" d="M 43.511719 13.683594 C 43.464844 13.6875 43.417969 13.683594 43.371094 13.679688 C 43.324219 13.523438 43.277344 13.367188 43.230469 13.210938 C 43.324219 13.371094 43.417969 13.527344 43.511719 13.683594 "/>
<path style=" stroke:none;fill-rule:nonzero;fill:rgb(92.747498%,3.631592%,48.361206%);fill-opacity:1;" d="M 23.871094 24.675781 C 24.023438 24.683594 24.140625 24.699219 24.257812 24.699219 C 25.703125 24.695312 27.148438 24.722656 28.589844 24.671875 C 29.339844 24.648438 30.101562 24.558594 30.828125 24.371094 C 33.082031 23.792969 34.625 22.40625 35.289062 20.15625 C 35.820312 18.371094 35.886719 16.539062 35.535156 14.71875 C 35.207031 13.03125 34.308594 11.703125 32.746094 10.890625 C 31.714844 10.351562 30.59375 10.082031 29.445312 10.042969 C 27.878906 9.988281 26.3125 10.035156 24.746094 10.050781 C 24.460938 10.054688 24.175781 10.121094 23.871094 10.164062 C 23.871094 15 23.871094 19.789062 23.871094 24.675781 Z M 23.863281 44.875 C 24.40625 44.875 24.875 44.84375 25.335938 44.882812 C 27.316406 45.035156 29.292969 45.035156 31.25 44.671875 C 32.855469 44.375 34.277344 43.71875 35.308594 42.386719 C 36.273438 41.140625 36.671875 39.683594 36.75 38.152344 C 36.816406 36.855469 36.804688 35.554688 36.742188 34.261719 C 36.707031 33.511719 36.566406 32.753906 36.363281 32.03125 C 35.867188 30.234375 34.71875 28.890625 33.246094 27.808594 C 31.964844 26.867188 30.53125 26.40625 28.925781 26.453125 C 27.433594 26.496094 25.941406 26.472656 24.445312 26.480469 C 24.257812 26.484375 24.070312 26.503906 23.863281 26.515625 C 23.863281 32.628906 23.863281 38.691406 23.863281 44.875 Z M 11.8125 9.0625 C 11.8125 8.507812 11.8125 8.027344 11.8125 7.507812 C 11.964844 7.5 12.078125 7.488281 12.195312 7.488281 C 18.886719 7.488281 25.574219 7.476562 32.261719 7.507812 C 34.246094 7.515625 36.195312 7.800781 38.082031 8.488281 C 41.347656 9.679688 42.957031 12.175781 43.113281 15.519531 C 43.191406 17.226562 42.984375 18.882812 42.226562 20.441406 C 41.472656 21.996094 40.394531 23.28125 38.980469 24.253906 C 38.019531 24.917969 36.992188 25.488281 35.933594 26.140625 C 35.929688 26.222656 35.921875 26.386719 35.910156 26.597656 C 36.171875 26.703125 36.417969 26.804688 36.664062 26.898438 C 38.207031 27.492188 39.628906 28.296875 40.820312 29.457031 C 42.128906 30.734375 43.023438 32.273438 43.34375 34.082031 C 43.796875 36.613281 43.546875 39.101562 42.550781 41.480469 C 41.816406 43.230469 40.539062 44.523438 38.90625 45.472656 C 37.40625 46.347656 35.78125 46.816406 34.074219 47.082031 C 32.46875 47.328125 30.859375 47.363281 29.246094 47.363281 C 24.296875 47.363281 19.347656 47.363281 14.398438 47.363281 C 14.136719 47.363281 13.871094 47.363281 13.574219 47.363281 C 13.574219 46.824219 13.574219 46.34375 13.574219 45.847656 C 13.773438 45.769531 13.945312 45.683594 14.128906 45.625 C 15.585938 45.160156 16.199219 44.078125 16.300781 42.636719 C 16.347656 41.953125 16.355469 41.265625 16.355469 40.582031 C 16.355469 31.566406 16.355469 22.550781 16.34375 13.535156 C 16.34375 12.855469 16.289062 12.167969 16.183594 11.492188 C 15.992188 10.25 15.316406 9.617188 14.074219 9.417969 C 13.332031 9.300781 12.589844 9.183594 11.8125 9.0625 "/>
<path style=" stroke:none;fill-rule:nonzero;fill:rgb(98.356628%,92.739868%,96.310425%);fill-opacity:1;" d="M 34.707031 29.84375 L 34.71875 29.855469 C 34.667969 29.804688 34.613281 29.75 34.5625 29.699219 L 34.574219 29.707031 C 34.535156 29.65625 34.496094 29.605469 34.460938 29.554688 C 32.96875 27.8125 31.152344 26.792969 28.785156 26.898438 C 27.394531 26.957031 26.003906 26.953125 24.613281 26.980469 C 24.347656 26.898438 24.25 26.988281 24.332031 27.257812 C 24.34375 27.570312 24.351562 27.878906 24.359375 28.191406 C 24.335938 28.679688 24.292969 29.167969 24.292969 29.65625 C 24.292969 34.335938 24.300781 39.015625 24.304688 43.695312 C 24.304688 43.910156 24.304688 44.128906 24.304688 44.386719 C 24.480469 44.386719 24.59375 44.386719 24.710938 44.386719 C 24.800781 44.390625 24.886719 44.390625 24.976562 44.394531 C 26.25 44.398438 27.523438 44.402344 28.796875 44.40625 C 30.183594 44.414062 31.527344 44.191406 32.832031 43.6875 C 33.976562 43.246094 34.785156 42.445312 35.378906 41.429688 C 35.992188 40.371094 36.257812 39.164062 36.304688 37.96875 C 36.371094 36.222656 36.441406 34.46875 36.039062 32.738281 C 35.8125 31.75 35.488281 30.816406 34.867188 30 C 34.816406 29.949219 34.761719 29.898438 34.707031 29.84375 Z M 23.863281 44.875 C 23.863281 38.691406 23.863281 32.628906 23.863281 26.515625 C 24.070312 26.503906 24.257812 26.484375 24.445312 26.480469 C 25.941406 26.472656 27.433594 26.496094 28.925781 26.453125 C 30.53125 26.40625 31.964844 26.867188 33.246094 27.808594 C 34.71875 28.890625 35.867188 30.234375 36.363281 32.03125 C 36.566406 32.753906 36.707031 33.511719 36.742188 34.261719 C 36.804688 35.554688 36.816406 36.855469 36.75 38.152344 C 36.671875 39.683594 36.273438 41.140625 35.308594 42.386719 C 34.277344 43.71875 32.855469 44.375 31.25 44.671875 C 29.292969 45.035156 27.316406 45.035156 25.335938 44.882812 C 24.875 44.84375 24.40625 44.875 23.863281 44.875 "/>
<path style=" stroke:none;fill-rule:nonzero;fill:rgb(98.582458%,90.919495%,95.820618%);fill-opacity:1;" d="M 34.265625 12.941406 L 34.277344 12.953125 C 34.226562 12.851562 34.179688 12.75 34.132812 12.652344 C 33.65625 11.96875 33.015625 11.5 32.265625 11.15625 C 31.222656 10.683594 30.109375 10.492188 28.984375 10.464844 C 27.613281 10.429688 26.242188 10.484375 24.871094 10.511719 C 24.6875 10.515625 24.503906 10.566406 24.335938 10.59375 C 24.335938 15.171875 24.335938 19.695312 24.335938 24.242188 C 24.574219 24.242188 24.765625 24.242188 24.960938 24.242188 C 26.542969 24.335938 28.121094 24.265625 29.695312 24.105469 C 30.308594 24.042969 30.917969 23.855469 31.507812 23.660156 C 32.402344 23.367188 33.09375 22.765625 33.738281 22.09375 C 34.277344 21.527344 34.628906 20.832031 34.8125 20.132812 C 35.039062 19.285156 35.246094 18.402344 35.160156 17.488281 C 35.113281 17.003906 35.171875 16.511719 35.148438 16.023438 C 35.125 15.566406 35.128906 15.085938 34.984375 14.664062 C 34.800781 14.132812 34.851562 13.507812 34.394531 13.082031 C 34.347656 13.035156 34.304688 12.988281 34.265625 12.941406 Z M 23.871094 24.675781 C 23.871094 19.789062 23.871094 15 23.871094 10.164062 C 24.175781 10.121094 24.460938 10.054688 24.746094 10.050781 C 26.3125 10.035156 27.878906 9.988281 29.445312 10.042969 C 30.59375 10.082031 31.714844 10.351562 32.746094 10.890625 C 34.308594 11.703125 35.207031 13.03125 35.535156 14.71875 C 35.886719 16.539062 35.820312 18.371094 35.289062 20.15625 C 34.625 22.40625 33.082031 23.792969 30.828125 24.371094 C 30.101562 24.558594 29.339844 24.648438 28.589844 24.671875 C 27.148438 24.722656 25.703125 24.695312 24.257812 24.699219 C 24.140625 24.699219 24.023438 24.683594 23.871094 24.675781 "/>
<path style=" stroke:none;fill-rule:nonzero;fill:rgb(16.996765%,22.471619%,41.722107%);fill-opacity:1;" d="M 34.25 29.582031 C 33.472656 29.082031 32.703125 28.558594 31.78125 28.355469 C 31.335938 28.253906 30.878906 28.117188 30.421875 28.117188 C 28.671875 28.113281 26.917969 28.160156 25.167969 28.1875 C 25.109375 28.253906 25.054688 28.316406 25 28.382812 C 24.980469 28.597656 24.941406 28.8125 24.941406 29.027344 C 24.9375 30.886719 24.941406 32.746094 24.9375 34.605469 C 24.9375 34.871094 24.917969 35.140625 24.90625 35.410156 C 24.566406 35.574219 24.71875 35.882812 24.71875 36.125 C 24.707031 38.59375 24.710938 41.0625 24.710938 43.53125 C 24.710938 43.691406 24.6875 43.847656 24.675781 44.007812 C 24.640625 44.003906 24.605469 44.003906 24.570312 44.003906 C 24.570312 43.761719 24.570312 43.519531 24.570312 43.28125 C 24.570312 38.535156 24.570312 33.789062 24.570312 29.046875 C 24.570312 28.851562 24.589844 28.652344 24.554688 28.460938 C 24.539062 28.363281 24.425781 28.28125 24.359375 28.191406 C 24.351562 27.878906 24.34375 27.570312 24.332031 27.257812 C 24.425781 27.164062 24.519531 27.070312 24.613281 26.980469 C 26.003906 26.953125 27.394531 26.957031 28.785156 26.898438 C 31.152344 26.792969 32.96875 27.8125 34.460938 29.554688 C 34.390625 29.5625 34.320312 29.570312 34.25 29.582031 "/>
<path style=" stroke:none;fill-rule:nonzero;fill:rgb(11.654663%,14.608765%,30.383301%);fill-opacity:1;" d="M 24.359375 28.191406 C 24.425781 28.28125 24.539062 28.363281 24.554688 28.460938 C 24.589844 28.652344 24.570312 28.851562 24.570312 29.046875 C 24.570312 33.789062 24.570312 38.535156 24.570312 43.28125 C 24.570312 43.519531 24.570312 43.761719 24.570312 44.003906 C 24.605469 44.003906 24.640625 44.003906 24.675781 44.007812 C 24.6875 43.847656 24.710938 43.691406 24.710938 43.53125 C 24.710938 41.0625 24.707031 38.59375 24.71875 36.125 C 24.71875 35.882812 24.566406 35.574219 24.90625 35.410156 C 24.917969 38.355469 24.929688 41.300781 24.941406 44.25 C 24.863281 44.292969 24.789062 44.34375 24.710938 44.386719 C 24.59375 44.386719 24.480469 44.386719 24.304688 44.386719 C 24.304688 44.128906 24.304688 43.910156 24.304688 43.695312 C 24.300781 39.015625 24.292969 34.335938 24.292969 29.65625 C 24.292969 29.167969 24.335938 28.679688 24.359375 28.191406 "/>
<path style=" stroke:none;fill-rule:nonzero;fill:rgb(11.654663%,14.608765%,30.383301%);fill-opacity:1;" d="M 24.613281 26.980469 C 24.519531 27.070312 24.425781 27.164062 24.332031 27.257812 C 24.25 26.988281 24.347656 26.898438 24.613281 26.980469 "/>
<path style=" stroke:none;fill-rule:nonzero;fill:rgb(43.037415%,25.569153%,51.464844%);fill-opacity:1;" d="M 34.25 29.582031 C 34.320312 29.570312 34.390625 29.5625 34.460938 29.554688 C 34.496094 29.605469 34.535156 29.65625 34.574219 29.707031 C 34.464844 29.664062 34.355469 29.621094 34.25 29.582031 "/>
<path style=" stroke:none;fill-rule:nonzero;fill:rgb(16.996765%,22.471619%,41.722107%);fill-opacity:1;" d="M 24.710938 44.386719 C 24.789062 44.34375 24.863281 44.292969 24.941406 44.25 C 24.953125 44.296875 24.964844 44.34375 24.976562 44.394531 C 24.886719 44.390625 24.800781 44.390625 24.710938 44.386719 "/>
<path style=" stroke:none;fill-rule:nonzero;fill:rgb(43.037415%,25.569153%,51.464844%);fill-opacity:1;" d="M 34.71875 29.855469 C 34.667969 29.804688 34.613281 29.75 34.5625 29.699219 C 34.613281 29.75 34.667969 29.804688 34.71875 29.855469 "/>
<path style=" stroke:none;fill-rule:nonzero;fill:rgb(43.037415%,25.569153%,51.464844%);fill-opacity:1;" d="M 34.867188 30 C 34.816406 29.949219 34.761719 29.898438 34.707031 29.84375 C 34.761719 29.898438 34.816406 29.949219 34.867188 30 "/>
<path style=" stroke:none;fill-rule:nonzero;fill:rgb(14.297485%,20.1828%,38.926697%);fill-opacity:1;" d="M 25.011719 12.066406 C 25.003906 12.652344 24.988281 13.238281 24.988281 13.824219 C 24.984375 17.027344 24.984375 20.230469 24.984375 23.4375 C 24.984375 23.707031 24.96875 23.972656 24.960938 24.242188 C 24.765625 24.242188 24.574219 24.242188 24.335938 24.242188 C 24.335938 19.695312 24.335938 15.171875 24.335938 10.59375 C 24.503906 10.566406 24.6875 10.515625 24.871094 10.511719 C 26.242188 10.484375 27.613281 10.429688 28.984375 10.464844 C 30.109375 10.492188 31.222656 10.683594 32.265625 11.15625 C 33.015625 11.5 33.65625 11.96875 34.132812 12.652344 C 34.128906 12.714844 34.125 12.78125 34.121094 12.847656 C 32.617188 11.917969 30.9375 11.671875 29.222656 11.640625 C 27.910156 11.617188 26.597656 11.710938 25.285156 11.765625 C 25.191406 11.769531 25.105469 11.867188 25.015625 11.917969 C 25.015625 11.96875 25.011719 12.015625 25.011719 12.066406 "/>
<path style=" stroke:none;fill-rule:nonzero;fill:rgb(43.037415%,25.569153%,51.464844%);fill-opacity:1;" d="M 34.121094 12.847656 C 34.125 12.78125 34.128906 12.714844 34.132812 12.652344 C 34.179688 12.75 34.226562 12.851562 34.277344 12.953125 C 34.222656 12.917969 34.171875 12.882812 34.121094 12.847656 "/>
<path style=" stroke:none;fill-rule:nonzero;fill:rgb(43.037415%,25.569153%,51.464844%);fill-opacity:1;" d="M 34.394531 13.082031 C 34.347656 13.035156 34.304688 12.988281 34.265625 12.941406 C 34.304688 12.988281 34.347656 13.035156 34.394531 13.082031 "/>
<path style=" stroke:none;fill-rule:nonzero;fill:rgb(98.356628%,92.739868%,96.310425%);fill-opacity:1;" d="M 25 28.382812 C 25.054688 28.316406 25.109375 28.253906 25.167969 28.1875 C 25.109375 28.253906 25.054688 28.316406 25 28.382812 "/>
<path style=" stroke:none;fill-rule:nonzero;fill:rgb(98.582458%,90.919495%,95.820618%);fill-opacity:1;" d="M 25.011719 12.066406 C 25.011719 12.015625 25.015625 11.96875 25.015625 11.917969 C 25.050781 11.945312 25.085938 11.96875 25.117188 11.996094 C 25.082031 12.019531 25.046875 12.039062 25.011719 12.066406 "/>
</g>
</svg>
