<?xml version="1.0" encoding="UTF-8"?>
<svg xmlns="http://www.w3.org/2000/svg" xmlns:xlink="http://www.w3.org/1999/xlink" width="56pt" height="56pt" viewBox="0 0 56 56" version="1.1">
<g id="surface1">
<rect x="0" y="0" width="56" height="56" style="fill:rgb(95.666504%,95.776367%,96.775818%);fill-opacity:1;stroke:none;"/>
<path style=" stroke:none;fill-rule:nonzero;fill:rgb(96.643066%,54.989624%,8.389282%);fill-opacity:1;" d="M 51.859375 39.433594 L 41.011719 37.761719 L 50.933594 32.742188 C 51.078125 32.667969 51.148438 32.503906 51.097656 32.351562 C 51.050781 32.199219 50.898438 32.101562 50.738281 32.128906 L 39.71875 33.84375 L 47.632812 26.011719 C 47.75 25.898438 47.761719 25.71875 47.667969 25.589844 C 47.574219 25.460938 47.398438 25.417969 47.253906 25.492188 L 37.375 30.554688 L 42.351562 20.71875 C 42.425781 20.578125 42.382812 20.402344 42.253906 20.308594 C 42.121094 20.214844 41.941406 20.226562 41.832031 20.34375 L 34.015625 28.25 L 35.851562 17.246094 C 35.878906 17.089844 35.78125 16.933594 35.632812 16.882812 C 35.480469 16.835938 35.3125 16.902344 35.238281 17.042969 L 30.125 27.03125 L 28.441406 16.167969 C 28.417969 16.011719 28.28125 15.894531 28.121094 15.894531 C 27.960938 15.894531 27.820312 16.011719 27.796875 16.167969 L 26.09375 27.023438 L 21.03125 17 C 20.957031 16.855469 20.789062 16.785156 20.636719 16.835938 C 20.484375 16.882812 20.394531 17.039062 20.417969 17.199219 L 22.242188 28.34375 L 14.328125 20.242188 C 14.214844 20.128906 14.035156 20.113281 13.902344 20.207031 C 13.773438 20.300781 13.730469 20.476562 13.800781 20.621094 L 18.957031 30.675781 L 8.863281 25.457031 C 8.722656 25.382812 8.546875 25.425781 8.449219 25.554688 C 8.355469 25.683594 8.371094 25.867188 8.484375 25.980469 L 16.589844 33.890625 L 5.378906 32.070312 C 5.21875 32.042969 5.066406 32.136719 5.015625 32.289062 C 4.964844 32.445312 5.035156 32.609375 5.175781 32.683594 L 15.253906 37.738281 L 4.140625 39.433594 C 3.972656 39.460938 3.851562 39.613281 3.867188 39.78125 C 3.878906 39.953125 4.019531 40.082031 4.191406 40.082031 L 51.808594 40.082031 C 51.976562 40.082031 52.121094 39.953125 52.132812 39.78125 C 52.148438 39.613281 52.027344 39.460938 51.859375 39.433594 "/>
<path style=" stroke:none;fill-rule:nonzero;fill:rgb(97.462463%,91.387939%,4.240417%);fill-opacity:1;" d="M 38.546875 40.105469 C 38.554688 39.976562 38.492188 39.898438 38.40625 39.882812 L 33.761719 39.167969 L 38.011719 37.023438 C 38.085938 36.980469 38.121094 36.898438 38.09375 36.820312 C 38.070312 36.738281 37.988281 36.6875 37.90625 36.699219 L 33.191406 37.433594 L 36.578125 34.082031 C 36.636719 34.023438 36.644531 33.925781 36.59375 33.859375 C 36.546875 33.789062 36.457031 33.769531 36.382812 33.808594 L 32.148438 35.976562 L 34.28125 31.765625 C 34.320312 31.691406 34.296875 31.601562 34.226562 31.550781 C 34.160156 31.503906 34.066406 31.511719 34.007812 31.570312 L 30.660156 34.953125 L 31.449219 30.246094 C 31.464844 30.164062 31.414062 30.082031 31.335938 30.054688 C 31.257812 30.027344 31.167969 30.066406 31.132812 30.140625 L 28.941406 34.417969 L 28.21875 29.765625 C 28.207031 29.683594 28.136719 29.621094 28.050781 29.621094 C 27.96875 29.621094 27.898438 29.683594 27.882812 29.765625 L 27.15625 34.414062 L 24.988281 30.121094 C 24.945312 30.046875 24.859375 30.011719 24.78125 30.035156 C 24.703125 30.0625 24.652344 30.140625 24.664062 30.226562 L 25.449219 34.992188 L 22.0625 31.523438 C 22.003906 31.464844 21.90625 31.457031 21.839844 31.507812 C 21.773438 31.554688 21.75 31.648438 21.789062 31.71875 L 23.992188 36.027344 L 19.671875 33.792969 C 19.597656 33.757812 19.507812 33.777344 19.457031 33.84375 C 19.40625 33.914062 19.414062 34.007812 19.472656 34.066406 L 22.945312 37.453125 L 18.144531 36.675781 C 18.0625 36.664062 17.980469 36.710938 17.953125 36.789062 C 17.929688 36.871094 17.964844 36.957031 18.039062 36.996094 L 22.351562 39.15625 L 17.597656 39.882812 C 17.507812 39.898438 17.445312 39.976562 17.453125 40.105469 L 38.546875 40.105469 "/>
</g>
</svg>
