<?xml version="1.0" encoding="UTF-8"?>
<svg xmlns="http://www.w3.org/2000/svg" xmlns:xlink="http://www.w3.org/1999/xlink" width="56pt" height="56pt" viewBox="0 0 56 56" version="1.1">
<defs>
<clipPath id="clip1">
  <path d="M 17 20 L 22 20 L 22 26 L 17 26 Z M 17 20 "/>
</clipPath>
<clipPath id="clip2">
  <path d="M 28 5.320312 C 40.527344 5.320312 50.679688 15.472656 50.679688 28 C 50.679688 40.527344 40.527344 50.679688 28 50.679688 C 15.472656 50.679688 5.320312 40.527344 5.320312 28 C 5.320312 15.472656 15.472656 5.320312 28 5.320312 Z M 28 5.320312 "/>
</clipPath>
<clipPath id="clip3">
  <path d="M 27 32 L 36 32 L 36 39 L 27 39 Z M 27 32 "/>
</clipPath>
<clipPath id="clip4">
  <path d="M 28 5.320312 C 40.527344 5.320312 50.679688 15.472656 50.679688 28 C 50.679688 40.527344 40.527344 50.679688 28 50.679688 C 15.472656 50.679688 5.320312 40.527344 5.320312 28 C 5.320312 15.472656 15.472656 5.320312 28 5.320312 Z M 28 5.320312 "/>
</clipPath>
<clipPath id="clip5">
  <path d="M 5 5 L 51 5 L 51 51 L 5 51 Z M 5 5 "/>
</clipPath>
<clipPath id="clip6">
  <path d="M 28 5.320312 C 40.527344 5.320312 50.679688 15.472656 50.679688 28 C 50.679688 40.527344 40.527344 50.679688 28 50.679688 C 15.472656 50.679688 5.320312 40.527344 5.320312 28 C 5.320312 15.472656 15.472656 5.320312 28 5.320312 Z M 28 5.320312 "/>
</clipPath>
<clipPath id="clip7">
  <path d="M 11 11 L 45 11 L 45 45 L 11 45 Z M 11 11 "/>
</clipPath>
<clipPath id="clip8">
  <path d="M 28 5.320312 C 40.527344 5.320312 50.679688 15.472656 50.679688 28 C 50.679688 40.527344 40.527344 50.679688 28 50.679688 C 15.472656 50.679688 5.320312 40.527344 5.320312 28 C 5.320312 15.472656 15.472656 5.320312 28 5.320312 Z M 28 5.320312 "/>
</clipPath>
</defs>
<g id="surface1">
<rect x="0" y="0" width="56" height="56" style="fill:rgb(95.66803%,95.779419%,96.777344%);fill-opacity:1;stroke:none;"/>
<g clip-path="url(#clip1)" clip-rule="nonzero">
<g clip-path="url(#clip2)" clip-rule="nonzero">
<path style=" stroke:none;fill-rule:nonzero;fill:rgb(92.079163%,91.984558%,91.575623%);fill-opacity:1;" d="M 17.992188 20.449219 C 19.511719 22.09375 20.84375 23.695312 21.320312 25.304688 L 17.992188 20.449219 "/>
</g>
</g>
<g clip-path="url(#clip3)" clip-rule="nonzero">
<g clip-path="url(#clip4)" clip-rule="nonzero">
<path style=" stroke:none;fill-rule:nonzero;fill:rgb(92.079163%,91.984558%,91.575623%);fill-opacity:1;" d="M 35.664062 38.714844 L 27.464844 32.289062 C 32.007812 33.171875 33.601562 36.007812 35.664062 38.714844 "/>
</g>
</g>
<g clip-path="url(#clip5)" clip-rule="nonzero">
<g clip-path="url(#clip6)" clip-rule="nonzero">
<path style=" stroke:none;fill-rule:nonzero;fill:rgb(77.26593%,76.660156%,75.932312%);fill-opacity:1;" d="M 50.679688 50.679688 C 50.679688 50.679688 48.082031 50.679688 47.097656 50.679688 L 5.320312 50.679688 L 5.320312 8.902344 C 5.320312 7.917969 5.320312 5.320312 5.320312 5.320312 L 11.910156 11.933594 C 12.035156 12.523438 12.25 13.101562 12.523438 13.671875 C 13.683594 16.082031 16.003906 18.300781 17.992188 20.449219 C 19.511719 22.09375 20.84375 23.695312 21.320312 25.304688 C 21.496094 25.910156 21.550781 26.511719 21.453125 27.121094 C 21.210938 28.652344 19.410156 29.921875 15.792969 30.664062 C 16.234375 31.488281 18.191406 32.582031 20.589844 32.273438 C 23.46875 31.898438 25.691406 31.945312 27.464844 32.289062 C 32.007812 33.171875 33.601562 36.007812 35.664062 38.714844 C 37.085938 40.574219 38.722656 42.378906 41.683594 43.449219 C 42.402344 43.710938 43.1875 43.925781 44.070312 44.089844 L 44.078125 44.089844 L 50.679688 50.679688 "/>
<path style=" stroke:none;fill-rule:nonzero;fill:rgb(95.533752%,95.425415%,95.309448%);fill-opacity:1;" d="M 8.898438 5.320312 C 7.914062 5.320312 5.320312 5.320312 5.320312 5.320312 L 6.230469 6.234375 L 11.910156 11.933594 C 11.910156 11.921875 11.90625 11.917969 11.90625 11.910156 C 11.910156 11.910156 11.917969 11.914062 11.921875 11.914062 C 18.011719 14.21875 23.296875 17.734375 24.324219 19.652344 C 25.355469 21.574219 23.613281 27.5 27.207031 26.789062 C 29.886719 26.253906 31.761719 27.375 32.304688 28.386719 C 30.203125 28.570312 28.585938 29.292969 29.574219 29.957031 C 30.695312 30.847656 35.199219 30.742188 36.503906 31.867188 C 39.535156 34.46875 41.480469 40.550781 44.082031 44.078125 C 44.082031 44.078125 44.089844 44.089844 44.09375 44.09375 C 44.089844 44.089844 44.085938 44.089844 44.078125 44.089844 L 44.070312 44.089844 L 49.566406 49.574219 L 49.574219 49.582031 L 50.679688 50.679688 C 50.679688 50.679688 50.679688 48.085938 50.679688 47.101562 L 50.679688 5.320312 L 8.898438 5.320312 "/>
</g>
</g>
<g clip-path="url(#clip7)" clip-rule="nonzero">
<g clip-path="url(#clip8)" clip-rule="nonzero">
<path style=" stroke:none;fill-rule:nonzero;fill:rgb(92.880249%,8.433533%,26.173401%);fill-opacity:1;" d="M 44.09375 44.09375 C 44.089844 44.089844 44.085938 44.089844 44.078125 44.089844 L 44.070312 44.089844 C 43.1875 43.925781 42.402344 43.710938 41.683594 43.449219 C 38.722656 42.378906 37.085938 40.574219 35.664062 38.714844 C 33.601562 36.007812 32.007812 33.171875 27.464844 32.289062 C 25.691406 31.945312 23.46875 31.898438 20.589844 32.273438 C 18.191406 32.582031 16.234375 31.488281 15.792969 30.664062 C 19.410156 29.921875 21.210938 28.652344 21.453125 27.121094 C 21.550781 26.511719 21.496094 25.910156 21.320312 25.304688 C 20.84375 23.695312 19.511719 22.09375 17.992188 20.449219 C 16.003906 18.300781 13.683594 16.082031 12.523438 13.671875 C 12.25 13.101562 12.035156 12.523438 11.910156 11.933594 C 11.910156 11.921875 11.90625 11.917969 11.90625 11.910156 C 11.910156 11.910156 11.917969 11.914062 11.921875 11.914062 C 18.011719 14.21875 23.296875 17.734375 24.324219 19.652344 C 25.355469 21.574219 23.613281 27.5 27.207031 26.789062 C 29.886719 26.253906 31.761719 27.375 32.304688 28.386719 C 30.203125 28.570312 28.585938 29.292969 29.574219 29.957031 C 30.695312 30.847656 35.199219 30.742188 36.503906 31.867188 C 39.535156 34.46875 41.480469 40.550781 44.082031 44.078125 C 44.082031 44.078125 44.089844 44.089844 44.09375 44.09375 "/>
</g>
</g>
</g>
</svg>
