<?xml version="1.0" encoding="UTF-8"?>
<svg xmlns="http://www.w3.org/2000/svg" xmlns:xlink="http://www.w3.org/1999/xlink" width="56pt" height="56pt" viewBox="0 0 56 56" version="1.1">
<g id="surface1">
<rect x="0" y="0" width="56" height="56" style="fill:rgb(14.094543%,27.301025%,52.270508%);fill-opacity:1;stroke:none;"/>
<path style=" stroke:none;fill-rule:evenodd;fill:rgb(19.979858%,54.629517%,61.120605%);fill-opacity:1;" d="M 6.914062 26.761719 L 13.113281 26.761719 C 13.113281 26.761719 20.800781 26.773438 23.832031 27.507812 C 26.308594 28.109375 29.554688 29.777344 31.308594 31.113281 C 33.066406 32.449219 40.066406 37.519531 40.066406 37.519531 C 40.066406 37.519531 39.191406 38.53125 37.761719 38.53125 C 36.703125 38.53125 36.3125 38.132812 36.011719 37.980469 L 28.054688 32.253906 C 25.847656 30.664062 23.550781 29.3125 21.121094 28.464844 C 18.6875 27.617188 16.113281 27.269531 13.34375 27.269531 L 7.207031 27.269531 Z M 9.46875 31.203125 L 12.46875 31.203125 C 16.054688 31.175781 17.996094 31.328125 20.898438 32.394531 C 23.550781 33.367188 25.835938 34.980469 28.109375 36.609375 L 32.960938 40.085938 C 32.960938 40.085938 33.789062 40.8125 34.617188 40.8125 C 35.628906 40.8125 36.316406 40.261719 37.105469 39.738281 L 30.609375 34.984375 C 30.609375 34.984375 27.796875 32.878906 24.34375 31.738281 C 20.511719 30.472656 14.164062 30.695312 14.164062 30.695312 L 9.175781 30.695312 Z M 14.285156 35.058594 L 11.683594 35.058594 L 11.394531 34.550781 L 14.679688 34.550781 C 14.679688 34.550781 20.847656 34.535156 23.734375 35.492188 C 25.722656 36.148438 27.742188 37.289062 29.605469 38.636719 C 31.472656 39.984375 34.097656 41.871094 34.097656 41.871094 C 33.414062 42.421875 32.890625 42.976562 31.933594 42.976562 C 31.171875 42.976562 30.414062 42.5625 30.414062 42.5625 L 23.878906 37.851562 C 22.113281 36.578125 20.09375 35.683594 17.929688 35.320312 C 16.722656 35.113281 15.503906 35.109375 14.285156 35.058594 "/>
<path style=" stroke:none;fill-rule:evenodd;fill:rgb(100%,100%,100%);fill-opacity:1;" d="M 43.113281 27.722656 C 42.40625 27.710938 41.914062 27.664062 41.269531 27.507812 C 40.214844 27.257812 39.785156 26.457031 39.785156 26.457031 C 39.398438 27.238281 40.441406 28.175781 40.949219 28.539062 L 46.054688 32.179688 C 46.824219 32.621094 47.269531 32.273438 47.269531 32.273438 C 47.269531 32.273438 48.597656 31.574219 49.296875 31.410156 C 50 31.246094 52.003906 31.175781 52.261719 31.222656 C 52.519531 31.269531 53.496094 31.898438 53.496094 31.898438 C 53.800781 29.636719 52.332031 29.425781 51.398438 29.285156 C 50.464844 29.148438 49.179688 29.050781 49.179688 29.050781 L 47.480469 29.519531 L 46.476562 28.75 C 46.476562 28.75 48.503906 28.914062 49.039062 28.9375 C 49.578125 28.960938 49.4375 28.726562 49.179688 28.214844 C 48.925781 27.699219 48.34375 27.722656 48.34375 27.722656 Z M 2.730469 19.492188 L 12.117188 19.492188 C 12.117188 19.492188 17.347656 19.703125 19.832031 20.257812 C 23.746094 21.164062 27.171875 22.996094 30.597656 25.441406 L 41.742188 33.398438 C 42.667969 34.082031 43.886719 34.523438 44.871094 33.980469 C 45.304688 33.742188 45.65625 33.441406 46.023438 33.121094 L 33.226562 23.910156 C 31.113281 22.386719 28.53125 21.292969 26.402344 20.652344 C 23.460938 19.761719 20.109375 19.023438 14.003906 19.023438 L 2.460938 19.023438 Z M 14.367188 22.90625 C 20.492188 22.90625 24.238281 23.574219 27.109375 24.660156 C 29.296875 25.492188 31.144531 26.671875 33.015625 28.015625 L 43.164062 35.300781 C 43.164062 35.300781 42.726562 35.738281 42.140625 36.0625 C 41.148438 36.617188 39.804688 36.386719 38.742188 35.578125 L 29.296875 28.863281 C 26.429688 26.828125 23.636719 25.121094 20.175781 24.171875 C 17.640625 23.476562 12.757812 23.414062 12.757812 23.414062 L 4.988281 23.414062 L 4.699219 22.90625 L 14.367188 22.90625 "/>
</g>
</svg>
