<?xml version="1.0" encoding="UTF-8"?>
<svg xmlns="http://www.w3.org/2000/svg" xmlns:xlink="http://www.w3.org/1999/xlink" width="56pt" height="56pt" viewBox="0 0 56 56" version="1.1">
<g id="surface1">
<rect x="0" y="0" width="56" height="56" style="fill:rgb(11.047363%,18.421936%,30.664062%);fill-opacity:1;stroke:none;"/>
<path style=" stroke:none;fill-rule:nonzero;fill:rgb(100%,100%,100%);fill-opacity:1;" d="M 5.710938 28.839844 C 5.113281 29.011719 4.828125 29.238281 4.828125 29.753906 C 4.792969 30.257812 5.175781 30.691406 5.679688 30.722656 C 5.71875 30.722656 5.757812 30.722656 5.796875 30.722656 C 6.707031 30.722656 7.335938 30.152344 7.335938 29.296875 L 7.335938 28.355469 C 6.90625 28.640625 6.308594 28.667969 5.710938 28.839844 M 7.5625 32.175781 C 7.5 31.902344 7.453125 31.628906 7.421875 31.347656 C 6.757812 32.0625 5.828125 32.464844 4.855469 32.460938 C 3.261719 32.460938 2.320312 31.519531 2.320312 30.066406 C 2.320312 28.699219 3.03125 27.871094 4.457031 27.558594 C 6.335938 27.101562 7.335938 27.246094 7.335938 26.617188 L 7.335938 26.417969 C 7.335938 25.933594 6.964844 25.707031 6.28125 25.707031 C 5.511719 25.707031 5.082031 26.019531 4.96875 26.617188 L 2.519531 26.617188 C 2.773438 24.765625 4.03125 23.910156 6.335938 23.910156 C 7.761719 23.910156 8.761719 24.253906 9.300781 24.964844 C 9.816406 25.621094 9.84375 26.445312 9.84375 27.558594 L 9.84375 30.636719 C 9.84375 31.347656 9.957031 31.777344 10.242188 31.917969 L 10.242188 32.230469 L 7.5625 32.230469 L 7.5625 32.175781 "/>
<path style=" stroke:none;fill-rule:nonzero;fill:rgb(100%,100%,100%);fill-opacity:1;" d="M 18.421875 32.175781 L 15.828125 32.175781 L 15.828125 31.066406 C 15.304688 31.90625 14.371094 32.40625 13.378906 32.375 C 11.582031 32.375 10.671875 31.464844 10.671875 29.640625 L 10.671875 24.050781 L 13.320312 24.050781 L 13.320312 28.585938 C 13.320312 29.78125 13.550781 30.351562 14.433594 30.351562 C 15.402344 30.351562 15.773438 29.722656 15.773438 28.386719 L 15.773438 24.050781 L 18.421875 24.050781 L 18.421875 32.175781 "/>
<path style=" stroke:none;fill-rule:nonzero;fill:rgb(100%,100%,100%);fill-opacity:1;" d="M 19.105469 24.050781 L 21.644531 24.050781 L 21.644531 25.476562 C 22.214844 24.367188 23.011719 23.882812 24.324219 23.851562 L 24.324219 26.476562 C 24.105469 26.445312 23.886719 26.425781 23.667969 26.417969 C 22.871094 26.417969 22.328125 26.648438 22.015625 27.160156 C 21.757812 27.558594 21.730469 28.300781 21.730469 29.410156 L 21.730469 32.117188 L 19.078125 32.117188 L 19.078125 24.050781 L 19.105469 24.050781 "/>
<path style=" stroke:none;fill-rule:nonzero;fill:rgb(100%,100%,100%);fill-opacity:1;" d="M 24.863281 24.050781 L 27.515625 24.050781 L 27.515625 32.148438 L 24.863281 32.148438 L 24.863281 24.050781 "/>
<path style=" stroke:none;fill-rule:nonzero;fill:rgb(100%,100%,100%);fill-opacity:1;" d="M 32.332031 30.152344 C 33.332031 30.152344 33.929688 29.410156 33.929688 28.070312 C 33.929688 26.648438 33.386719 25.90625 32.390625 25.90625 C 31.390625 25.90625 30.820312 26.648438 30.820312 28.070312 C 30.820312 29.382812 31.417969 30.152344 32.332031 30.152344 M 31.191406 32.917969 C 31.335938 33.402344 31.734375 33.574219 32.417969 33.574219 C 33.644531 33.574219 33.984375 33.03125 33.984375 31.804688 L 33.984375 30.949219 C 33.453125 31.8125 32.488281 32.316406 31.476562 32.261719 C 29.539062 32.261719 28.085938 30.636719 28.085938 28.101562 C 28.085938 25.5625 29.511719 23.851562 31.507812 23.851562 C 32.53125 23.804688 33.507812 24.304688 34.070312 25.164062 L 34.070312 24.082031 L 36.550781 24.082031 L 36.550781 30.78125 C 36.550781 32.175781 36.523438 33.203125 36.066406 33.945312 C 35.441406 34.910156 34.214844 35.480469 32.503906 35.480469 C 30.050781 35.480469 28.796875 34.683594 28.542969 32.917969 C 29.402344 32.917969 30.402344 32.917969 31.191406 32.917969 "/>
<path style=" stroke:none;fill-rule:nonzero;fill:rgb(100%,100%,100%);fill-opacity:1;" d="M 37.292969 24.050781 L 39.886719 24.050781 L 39.886719 25.164062 C 40.390625 24.300781 41.339844 23.792969 42.335938 23.851562 C 44.304688 23.851562 45.042969 24.824219 45.042969 26.902344 L 45.042969 32.175781 L 42.394531 32.175781 L 42.394531 28.101562 C 42.394531 26.617188 42.335938 25.875 41.28125 25.875 C 40.3125 25.875 39.941406 26.503906 39.941406 27.84375 L 39.941406 32.175781 L 37.292969 32.175781 L 37.292969 24.050781 "/>
<path style=" stroke:none;fill-rule:nonzero;fill:rgb(100%,100%,100%);fill-opacity:1;" d="M 49.0625 35.253906 C 48.550781 35.480469 47.839844 35.480469 46.953125 35.480469 L 46.242188 35.480469 L 46.242188 33.371094 L 46.753906 33.371094 C 47.640625 33.371094 48.035156 33.230469 48.035156 32.546875 C 47.976562 32.089844 47.839844 31.648438 47.640625 31.234375 L 44.902344 24.050781 L 47.753906 24.050781 L 49.289062 29.582031 L 50.859375 24.050781 L 53.679688 24.050781 L 50.429688 33.058594 C 50.003906 34.226562 49.691406 34.96875 49.0625 35.253906 "/>
<path style=" stroke:none;fill-rule:nonzero;fill:rgb(100%,100%,100%);fill-opacity:1;" d="M 27.65625 21.972656 C 27.65625 22.773438 27.007812 23.425781 26.203125 23.425781 C 25.402344 23.425781 24.75 22.773438 24.75 21.972656 C 24.75 21.167969 25.402344 20.519531 26.203125 20.519531 C 26.992188 20.503906 27.640625 21.128906 27.65625 21.914062 C 27.65625 21.933594 27.65625 21.953125 27.65625 21.972656 "/>
</g>
</svg>
