<?xml version="1.0" encoding="UTF-8"?>
<svg xmlns="http://www.w3.org/2000/svg" xmlns:xlink="http://www.w3.org/1999/xlink" width="56pt" height="56pt" viewBox="0 0 56 56" version="1.1">
<g id="surface1">
<rect x="0" y="0" width="56" height="56" style="fill:rgb(65.292358%,39.48822%,13.116455%);fill-opacity:1;stroke:none;"/>
<path style=" stroke:none;fill-rule:evenodd;fill:rgb(100%,100%,100%);fill-opacity:1;" d="M 40.007812 16.925781 C 39.875 16.761719 39.632812 16.734375 39.46875 16.867188 L 38.304688 17.785156 L 33.535156 17.785156 L 38.109375 15.433594 C 38.296875 15.335938 38.371094 15.109375 38.273438 14.921875 C 38.171875 14.738281 37.941406 14.664062 37.753906 14.761719 L 31.871094 17.785156 L 29.425781 17.785156 C 29.214844 17.785156 29.042969 17.953125 29.042969 18.164062 C 29.042969 18.371094 29.214844 18.539062 29.425781 18.539062 L 31.871094 18.539062 L 37.753906 21.5625 C 37.808594 21.59375 37.871094 21.605469 37.929688 21.605469 C 38.070312 21.605469 38.203125 21.53125 38.273438 21.402344 C 38.371094 21.214844 38.296875 20.988281 38.109375 20.890625 L 33.535156 18.539062 L 38.304688 18.539062 L 39.46875 19.460938 C 39.539062 19.515625 39.625 19.542969 39.707031 19.542969 C 39.820312 19.542969 39.933594 19.492188 40.007812 19.398438 C 40.140625 19.234375 40.113281 18.996094 39.949219 18.867188 L 39.054688 18.164062 L 39.949219 17.457031 C 40.113281 17.328125 40.140625 17.089844 40.007812 16.925781 Z M 30.777344 21.144531 L 37.101562 23.109375 C 37.304688 23.171875 37.417969 23.382812 37.355469 23.582031 C 37.289062 23.78125 37.078125 23.894531 36.871094 23.832031 L 31.953125 22.304688 L 35.324219 25.628906 L 36.804688 25.789062 C 37.019531 25.8125 37.167969 26 37.144531 26.207031 C 37.121094 26.414062 36.929688 26.566406 36.722656 26.542969 L 35.585938 26.417969 L 35.710938 27.539062 C 35.734375 27.746094 35.582031 27.933594 35.371094 27.957031 C 35.355469 27.960938 35.34375 27.960938 35.328125 27.960938 C 35.136719 27.960938 34.96875 27.816406 34.945312 27.625 L 34.78125 26.164062 L 31.40625 22.839844 L 32.957031 27.6875 C 33.023438 27.886719 32.910156 28.101562 32.707031 28.164062 C 32.667969 28.175781 32.628906 28.179688 32.589844 28.179688 C 32.425781 28.179688 32.277344 28.078125 32.222656 27.914062 L 30.234375 21.679688 L 28.503906 19.976562 C 28.355469 19.832031 28.355469 19.589844 28.503906 19.441406 C 28.65625 19.292969 28.898438 19.292969 29.046875 19.441406 Z M 27.589844 22.761719 L 27.589844 20.351562 C 27.589844 20.140625 27.417969 19.972656 27.207031 19.972656 C 26.992188 19.972656 26.824219 20.140625 26.824219 20.351562 L 26.824219 22.761719 L 23.757812 28.554688 C 23.65625 28.742188 23.730469 28.96875 23.917969 29.066406 C 23.976562 29.09375 24.035156 29.109375 24.097656 29.109375 C 24.234375 29.109375 24.367188 29.035156 24.4375 28.90625 L 26.824219 24.398438 L 26.824219 29.097656 L 25.890625 30.246094 C 25.757812 30.410156 25.785156 30.648438 25.949219 30.777344 C 26.023438 30.835938 26.105469 30.859375 26.191406 30.859375 C 26.304688 30.859375 26.414062 30.8125 26.492188 30.71875 L 26.824219 30.308594 L 26.824219 51.8125 C 26.824219 52.023438 26.992188 52.191406 27.207031 52.191406 C 27.417969 52.191406 27.589844 52.023438 27.589844 51.8125 L 27.589844 30.308594 L 27.921875 30.71875 C 28.054688 30.882812 28.296875 30.910156 28.460938 30.777344 C 28.628906 30.648438 28.65625 30.410156 28.523438 30.246094 L 27.589844 29.097656 L 27.589844 24.398438 L 29.976562 28.90625 C 30.074219 29.09375 30.304688 29.164062 30.492188 29.066406 C 30.679688 28.96875 30.753906 28.742188 30.65625 28.554688 Z M 25.90625 19.441406 C 26.058594 19.589844 26.058594 19.832031 25.90625 19.976562 L 24.179688 21.679688 L 22.1875 27.914062 C 22.136719 28.078125 21.984375 28.179688 21.820312 28.179688 C 21.78125 28.179688 21.746094 28.175781 21.707031 28.164062 C 21.503906 28.101562 21.390625 27.886719 21.457031 27.691406 L 23.003906 22.839844 L 19.628906 26.164062 L 19.464844 27.625 C 19.445312 27.816406 19.277344 27.960938 19.085938 27.960938 C 19.070312 27.960938 19.054688 27.960938 19.042969 27.957031 C 18.832031 27.933594 18.679688 27.746094 18.703125 27.539062 L 18.828125 26.417969 L 17.691406 26.542969 C 17.480469 26.566406 17.289062 26.414062 17.265625 26.207031 C 17.242188 26 17.394531 25.8125 17.605469 25.789062 L 19.085938 25.628906 L 22.460938 22.304688 L 17.539062 23.832031 C 17.335938 23.894531 17.121094 23.78125 17.058594 23.582031 C 16.992188 23.382812 17.105469 23.171875 17.308594 23.109375 L 23.636719 21.144531 L 25.363281 19.441406 C 25.515625 19.292969 25.757812 19.292969 25.90625 19.441406 Z M 24.984375 18.539062 C 25.199219 18.539062 25.367188 18.371094 25.367188 18.164062 C 25.367188 17.953125 25.199219 17.785156 24.984375 17.785156 L 22.539062 17.785156 L 16.660156 14.761719 C 16.46875 14.664062 16.238281 14.738281 16.140625 14.921875 C 16.042969 15.109375 16.117188 15.335938 16.304688 15.433594 L 20.878906 17.785156 L 16.109375 17.785156 L 14.945312 16.867188 C 14.777344 16.734375 14.535156 16.761719 14.40625 16.925781 C 14.273438 17.089844 14.296875 17.328125 14.464844 17.457031 L 15.359375 18.164062 L 14.464844 18.867188 C 14.296875 18.996094 14.273438 19.234375 14.40625 19.398438 C 14.480469 19.492188 14.59375 19.542969 14.703125 19.542969 C 14.789062 19.542969 14.875 19.515625 14.945312 19.457031 L 16.109375 18.539062 L 20.878906 18.539062 L 16.304688 20.890625 C 16.117188 20.988281 16.042969 21.214844 16.140625 21.402344 C 16.210938 21.53125 16.34375 21.605469 16.480469 21.605469 C 16.542969 21.605469 16.601562 21.59375 16.660156 21.5625 L 22.539062 18.539062 Z M 23.636719 15.179688 L 17.308594 13.21875 C 17.105469 13.15625 16.992188 12.941406 17.058594 12.742188 C 17.121094 12.542969 17.335938 12.433594 17.539062 12.496094 L 22.460938 14.019531 L 19.085938 10.695312 L 17.605469 10.535156 C 17.394531 10.511719 17.242188 10.324219 17.265625 10.117188 C 17.289062 9.910156 17.480469 9.757812 17.691406 9.78125 L 18.828125 9.90625 L 18.703125 8.785156 C 18.679688 8.578125 18.832031 8.390625 19.042969 8.367188 C 19.25 8.34375 19.441406 8.492188 19.464844 8.703125 L 19.628906 10.160156 L 23.003906 13.484375 L 21.457031 8.636719 C 21.390625 8.4375 21.503906 8.222656 21.707031 8.160156 C 21.90625 8.097656 22.125 8.210938 22.1875 8.410156 L 24.179688 14.644531 L 25.90625 16.347656 C 26.058594 16.496094 26.058594 16.734375 25.90625 16.882812 C 25.832031 16.957031 25.734375 16.992188 25.636719 16.992188 C 25.535156 16.992188 25.4375 16.957031 25.363281 16.882812 Z M 26.824219 15.972656 L 26.824219 13.566406 L 23.757812 7.769531 C 23.65625 7.582031 23.730469 7.355469 23.917969 7.257812 C 24.105469 7.160156 24.339844 7.234375 24.4375 7.417969 L 26.824219 11.925781 L 26.824219 7.226562 L 25.890625 6.078125 C 25.757812 5.914062 25.785156 5.675781 25.949219 5.546875 C 26.117188 5.414062 26.359375 5.441406 26.492188 5.605469 L 27.207031 6.488281 L 27.921875 5.605469 C 28.054688 5.441406 28.296875 5.414062 28.460938 5.546875 C 28.628906 5.675781 28.65625 5.914062 28.523438 6.078125 L 27.589844 7.226562 L 27.589844 11.925781 L 29.972656 7.417969 C 30.074219 7.234375 30.304688 7.160156 30.492188 7.257812 C 30.679688 7.355469 30.753906 7.582031 30.65625 7.769531 L 27.589844 13.566406 L 27.589844 15.972656 C 27.589844 16.183594 27.417969 16.351562 27.207031 16.351562 C 26.992188 16.351562 26.824219 16.183594 26.824219 15.972656 Z M 41.023438 3.917969 C 41.171875 3.773438 41.417969 3.773438 41.566406 3.917969 C 41.71875 4.066406 41.71875 4.308594 41.566406 4.453125 L 39.839844 6.15625 L 37.847656 12.394531 C 37.796875 12.554688 37.644531 12.65625 37.480469 12.65625 C 37.445312 12.65625 37.40625 12.652344 37.367188 12.640625 C 37.164062 12.578125 37.050781 12.363281 37.113281 12.164062 L 38.664062 7.316406 L 35.289062 10.640625 L 35.125 12.101562 C 35.101562 12.292969 34.9375 12.4375 34.742188 12.4375 C 34.730469 12.4375 34.714844 12.4375 34.703125 12.433594 C 34.488281 12.410156 34.339844 12.222656 34.363281 12.015625 L 34.488281 10.894531 L 33.351562 11.019531 C 33.140625 11.042969 32.949219 10.894531 32.925781 10.683594 C 32.902344 10.476562 33.054688 10.289062 33.265625 10.265625 L 34.746094 10.105469 L 38.121094 6.78125 L 33.199219 8.304688 C 32.996094 8.371094 32.78125 8.257812 32.71875 8.058594 C 32.652344 7.859375 32.765625 7.648438 32.96875 7.585938 L 39.296875 5.621094 L 41.023438 3.917969 "/>
</g>
</svg>
