<?xml version="1.0" encoding="UTF-8"?>
<svg xmlns="http://www.w3.org/2000/svg" xmlns:xlink="http://www.w3.org/1999/xlink" width="56pt" height="56pt" viewBox="0 0 56 56" version="1.1">
<g id="surface1">
<rect x="0" y="0" width="56" height="56" style="fill:rgb(90.324402%,11.289978%,14.355469%);fill-opacity:1;stroke:none;"/>
<path style=" stroke:none;fill-rule:nonzero;fill:rgb(100%,100%,100%);fill-opacity:1;" d="M 2.398438 34.820312 C 2.464844 34.359375 2.519531 33.898438 2.597656 33.441406 C 3.035156 30.9375 3.761719 28.519531 4.800781 26.199219 C 5.925781 23.679688 7.296875 21.304688 8.953125 19.097656 C 9.761719 18.023438 10.632812 17.007812 11.636719 16.109375 C 12.605469 15.238281 13.734375 14.863281 15.027344 15.125 C 15.933594 15.308594 16.304688 16.128906 15.886719 16.945312 C 15.804688 17.105469 15.703125 17.179688 15.496094 17.183594 C 15.316406 17.183594 15.085938 17.253906 14.960938 17.375 C 14.480469 17.847656 14.011719 18.332031 13.582031 18.851562 C 12.371094 20.324219 11.449219 21.988281 10.523438 23.644531 C 9.414062 25.621094 8.398438 27.644531 7.589844 29.765625 C 7.132812 30.957031 6.710938 32.15625 6.632812 33.449219 C 6.617188 33.695312 6.628906 33.949219 6.667969 34.195312 C 6.789062 34.984375 7.386719 35.382812 8.21875 35.261719 C 8.9375 35.15625 9.589844 34.871094 10.238281 34.5625 C 11.648438 33.886719 12.917969 32.980469 14.191406 32.085938 C 14.53125 31.84375 14.867188 31.59375 15.222656 31.382812 C 15.546875 31.183594 15.785156 30.921875 15.976562 30.597656 C 16.195312 30.230469 16.421875 29.863281 16.613281 29.457031 C 16.328125 29.574219 16.042969 29.710938 15.75 29.808594 C 14.96875 30.066406 14.183594 30.316406 13.394531 30.542969 C 13.15625 30.609375 12.898438 30.613281 12.652344 30.609375 C 11.863281 30.597656 11.445312 29.847656 11.820312 29.148438 C 12.003906 28.808594 12.300781 28.589844 12.632812 28.433594 C 14.21875 27.703125 15.800781 26.957031 17.40625 26.265625 C 19.242188 25.476562 21.121094 24.804688 23.0625 24.3125 C 23.925781 24.09375 24.800781 23.914062 25.703125 23.988281 C 25.898438 24.003906 26.097656 24.050781 26.28125 24.121094 C 26.628906 24.253906 26.757812 24.546875 26.65625 24.90625 C 26.546875 25.304688 26.265625 25.582031 25.921875 25.75 C 25.234375 26.082031 24.527344 26.378906 23.820312 26.667969 C 22.660156 27.144531 21.484375 27.59375 20.324219 28.070312 C 19.59375 28.371094 19.132812 28.953125 18.867188 29.671875 C 18.613281 30.347656 18.421875 31.046875 18.195312 31.734375 C 17.671875 33.324219 17.144531 34.910156 16.617188 36.496094 C 16.257812 37.589844 15.90625 38.679688 15.53125 39.765625 C 15.441406 40.03125 15.308594 40.289062 15.160156 40.523438 C 14.949219 40.855469 14.605469 40.96875 14.230469 40.957031 C 14.148438 40.953125 14.027344 40.855469 14.003906 40.78125 C 13.90625 40.429688 13.792969 40.074219 13.769531 39.714844 C 13.679688 38.402344 13.925781 37.125 14.277344 35.867188 C 14.542969 34.921875 14.859375 33.992188 15.410156 33.164062 C 15.417969 33.15625 15.410156 33.136719 15.410156 33.085938 C 15.113281 33.285156 14.835938 33.472656 14.558594 33.667969 C 12.777344 34.914062 10.996094 36.15625 9.082031 37.195312 C 8.023438 37.765625 6.945312 38.300781 5.757812 38.535156 C 5.273438 38.628906 4.757812 38.675781 4.273438 38.613281 C 3.261719 38.488281 2.769531 37.78125 2.546875 36.847656 C 2.484375 36.59375 2.445312 36.332031 2.398438 36.070312 C 2.398438 35.652344 2.398438 35.234375 2.398438 34.820312 "/>
<path style=" stroke:none;fill-rule:nonzero;fill:rgb(100%,100%,100%);fill-opacity:1;" d="M 53.601562 25.417969 C 52.933594 26.554688 51.855469 27.234375 50.773438 27.890625 C 47.925781 29.617188 44.925781 31.03125 41.757812 32.074219 C 39.511719 32.808594 37.21875 33.269531 34.835938 33.140625 C 33.707031 33.078125 32.601562 32.875 31.597656 32.316406 C 30.464844 31.6875 29.773438 30.761719 29.703125 29.429688 C 29.691406 29.191406 29.664062 28.953125 29.640625 28.664062 C 29.550781 28.738281 29.492188 28.789062 29.433594 28.839844 C 28.027344 30.136719 26.527344 31.3125 24.902344 32.316406 C 24.105469 32.808594 23.265625 33.214844 22.332031 33.371094 C 22.089844 33.414062 21.832031 33.410156 21.589844 33.371094 C 21.121094 33.296875 20.871094 32.976562 20.78125 32.53125 C 20.644531 31.878906 20.640625 31.84375 21.21875 31.515625 C 22.015625 31.066406 22.832031 30.652344 23.644531 30.230469 C 24.96875 29.539062 26.128906 28.621094 27.234375 27.628906 C 28.097656 26.855469 28.972656 26.09375 29.695312 25.183594 C 30.082031 24.699219 30.429688 24.191406 30.625 23.597656 C 30.980469 22.515625 30.589844 21.769531 29.496094 21.449219 C 28.75 21.230469 27.984375 21.214844 27.214844 21.285156 C 26.683594 21.332031 26.15625 21.410156 25.628906 21.457031 C 25.199219 21.496094 25.0625 21.464844 24.753906 21.273438 C 25.164062 21.105469 25.527344 20.929688 25.90625 20.804688 C 27.476562 20.296875 29.082031 20.160156 30.71875 20.410156 C 31.660156 20.554688 32.269531 21.078125 32.542969 21.996094 C 32.609375 22.21875 32.675781 22.4375 32.757812 22.695312 C 33.074219 22.476562 33.363281 22.277344 33.65625 22.078125 C 34.832031 21.257812 36.042969 20.496094 37.394531 19.980469 C 38.039062 19.734375 38.707031 19.558594 39.402344 19.496094 C 39.425781 19.496094 39.453125 19.488281 39.472656 19.492188 C 39.617188 19.53125 39.761719 19.570312 39.90625 19.609375 C 39.789062 19.667969 39.679688 19.746094 39.554688 19.78125 C 38.75 20.019531 38.054688 20.464844 37.40625 20.976562 C 35.910156 22.152344 34.664062 23.550781 33.714844 25.203125 C 33.359375 25.816406 33.082031 26.464844 32.929688 27.164062 C 32.59375 28.726562 33.300781 29.804688 34.882812 30.132812 C 35.980469 30.359375 37.089844 30.3125 38.1875 30.152344 C 41.59375 29.648438 44.84375 28.605469 48.007812 27.269531 C 49.554688 26.617188 51.109375 25.980469 52.667969 25.347656 C 52.960938 25.230469 53.265625 25.0625 53.601562 25.21875 C 53.601562 25.285156 53.601562 25.351562 53.601562 25.417969 "/>
</g>
</svg>
