<?xml version="1.0" encoding="UTF-8"?>
<svg xmlns="http://www.w3.org/2000/svg" xmlns:xlink="http://www.w3.org/1999/xlink" width="56pt" height="56pt" viewBox="0 0 56 56" version="1.1">
<g id="surface1">
<rect x="0" y="0" width="56" height="56" style="fill:rgb(95.66803%,95.779419%,96.777344%);fill-opacity:1;stroke:none;"/>
<path style=" stroke:none;fill-rule:nonzero;fill:rgb(19.71283%,40.748596%,73.295593%);fill-opacity:1;" d="M 20.46875 19.773438 C 20.621094 19.648438 20.765625 19.515625 20.925781 19.402344 C 21.617188 18.914062 22.363281 18.523438 23.136719 18.179688 C 23.417969 18.054688 23.730469 17.992188 24.023438 17.882812 C 24.414062 17.738281 24.816406 17.65625 25.21875 17.582031 C 25.496094 17.527344 25.773438 17.484375 26.050781 17.445312 C 26.730469 17.351562 27.414062 17.386719 28.09375 17.402344 C 28.375 17.410156 28.65625 17.457031 28.933594 17.503906 C 29.378906 17.574219 29.824219 17.664062 30.257812 17.796875 C 30.761719 17.953125 31.269531 18.097656 31.753906 18.304688 C 32.40625 18.582031 33.050781 18.886719 33.679688 19.222656 C 34.261719 19.535156 34.820312 19.898438 35.378906 20.25 C 36.066406 20.683594 36.710938 21.175781 37.351562 21.675781 C 37.972656 22.15625 38.59375 22.644531 39.203125 23.136719 C 39.644531 23.492188 40.070312 23.863281 40.507812 24.222656 C 41.082031 24.695312 41.664062 25.160156 42.246094 25.628906 C 42.808594 26.078125 43.371094 26.53125 43.945312 26.96875 C 44.539062 27.417969 45.140625 27.859375 45.742188 28.296875 C 46.445312 28.808594 47.167969 29.296875 47.921875 29.726562 C 48.351562 29.972656 48.796875 30.195312 49.246094 30.410156 C 49.570312 30.570312 49.902344 30.710938 50.238281 30.84375 C 50.496094 30.945312 50.769531 31.019531 51.027344 31.121094 C 51.609375 31.347656 52.21875 31.503906 52.78125 31.789062 C 52.992188 31.898438 53.222656 31.972656 53.445312 32.066406 C 53.46875 32.078125 53.496094 32.089844 53.578125 32.121094 C 53.480469 32.140625 53.445312 32.152344 53.410156 32.152344 C 53.097656 32.136719 52.800781 32.230469 52.5 32.269531 C 52.425781 32.277344 52.351562 32.292969 52.28125 32.296875 C 51.824219 32.3125 51.367188 32.289062 50.914062 32.21875 C 50.6875 32.179688 50.453125 32.183594 50.222656 32.152344 C 49.921875 32.109375 49.617188 32.058594 49.320312 31.996094 C 48.996094 31.929688 48.675781 31.855469 48.359375 31.765625 C 48.003906 31.667969 47.648438 31.5625 47.296875 31.445312 C 46.617188 31.222656 45.953125 30.949219 45.308594 30.636719 C 44.589844 30.289062 43.890625 29.894531 43.210938 29.46875 C 42.375 28.949219 41.574219 28.375 40.789062 27.78125 C 40.34375 27.449219 39.914062 27.09375 39.484375 26.742188 C 38.90625 26.269531 38.332031 25.792969 37.761719 25.3125 C 37.335938 24.953125 36.925781 24.578125 36.496094 24.21875 C 35.996094 23.796875 35.488281 23.386719 34.972656 22.976562 C 34.523438 22.613281 34.066406 22.257812 33.601562 21.910156 C 33.011719 21.46875 32.398438 21.054688 31.761719 20.683594 C 31.105469 20.296875 30.429688 19.957031 29.71875 19.679688 C 29.261719 19.503906 28.804688 19.339844 28.332031 19.234375 C 28.003906 19.15625 27.671875 19.09375 27.339844 19.039062 C 26.65625 18.921875 25.964844 18.914062 25.277344 18.941406 C 24.8125 18.957031 24.347656 18.988281 23.886719 19.035156 C 23.492188 19.074219 23.097656 19.125 22.710938 19.199219 C 22.445312 19.246094 22.183594 19.335938 21.925781 19.414062 C 21.53125 19.539062 21.144531 19.671875 20.75 19.796875 C 20.667969 19.824219 20.578125 19.828125 20.492188 19.84375 C 20.484375 19.820312 20.476562 19.796875 20.46875 19.773438 "/>
<path style=" stroke:none;fill-rule:nonzero;fill:rgb(89.802551%,6.764221%,31.982422%);fill-opacity:1;" d="M 35.703125 36.113281 C 35.519531 36.347656 35.265625 36.492188 35.019531 36.644531 C 34.351562 37.058594 33.636719 37.382812 32.90625 37.667969 C 32.148438 37.964844 31.378906 38.195312 30.59375 38.382812 C 30.238281 38.464844 29.882812 38.527344 29.523438 38.574219 C 29.164062 38.617188 28.808594 38.621094 28.453125 38.613281 C 27.921875 38.609375 27.398438 38.535156 26.875 38.4375 C 26.28125 38.324219 25.707031 38.164062 25.136719 37.964844 C 24.65625 37.792969 24.1875 37.59375 23.722656 37.382812 C 23.15625 37.125 22.609375 36.835938 22.074219 36.519531 C 21.5625 36.21875 21.0625 35.894531 20.566406 35.566406 C 19.734375 35.019531 18.9375 34.425781 18.15625 33.808594 C 17.28125 33.113281 16.398438 32.417969 15.527344 31.714844 C 15.140625 31.402344 14.773438 31.066406 14.390625 30.746094 C 14 30.414062 13.601562 30.089844 13.203125 29.761719 C 12.898438 29.515625 12.597656 29.273438 12.289062 29.035156 C 11.703125 28.585938 11.121094 28.128906 10.523438 27.699219 C 9.976562 27.3125 9.414062 26.945312 8.84375 26.589844 C 8.105469 26.132812 7.339844 25.71875 6.539062 25.378906 C 5.96875 25.140625 5.398438 24.902344 4.820312 24.679688 C 4.277344 24.472656 3.71875 24.289062 3.167969 24.089844 C 2.929688 24.003906 2.695312 23.902344 2.457031 23.808594 C 2.445312 23.800781 2.4375 23.78125 2.421875 23.761719 C 2.46875 23.753906 2.507812 23.746094 2.546875 23.746094 C 3.40625 23.75 4.265625 23.738281 5.125 23.757812 C 5.652344 23.769531 6.175781 23.84375 6.699219 23.933594 C 7.488281 24.074219 8.253906 24.296875 9.011719 24.550781 C 9.554688 24.734375 10.078125 24.960938 10.59375 25.195312 C 11.460938 25.589844 12.285156 26.058594 13.085938 26.574219 C 13.789062 27.027344 14.472656 27.507812 15.121094 28.035156 C 15.769531 28.558594 16.414062 29.082031 17.050781 29.609375 C 17.613281 30.078125 18.160156 30.5625 18.722656 31.03125 C 19.351562 31.558594 19.988281 32.078125 20.625 32.597656 C 21.464844 33.285156 22.339844 33.929688 23.257812 34.511719 C 23.707031 34.792969 24.164062 35.0625 24.628906 35.316406 C 25.0625 35.550781 25.507812 35.765625 25.953125 35.976562 C 26.65625 36.3125 27.394531 36.554688 28.140625 36.757812 C 28.578125 36.878906 29.027344 36.960938 29.476562 37.015625 C 30.035156 37.082031 30.597656 37.152344 31.164062 37.109375 C 31.527344 37.082031 31.886719 37.015625 32.246094 36.980469 C 32.875 36.921875 33.472656 36.726562 34.078125 36.566406 C 34.324219 36.496094 34.5625 36.40625 34.800781 36.324219 C 35.03125 36.246094 35.253906 36.160156 35.480469 36.089844 C 35.550781 36.066406 35.628906 36.070312 35.703125 36.066406 C 35.699219 36.082031 35.699219 36.097656 35.703125 36.113281 "/>
<path style=" stroke:none;fill-rule:nonzero;fill:rgb(24.606323%,70.736694%,66.418457%);fill-opacity:1;" d="M 47.058594 32.136719 C 47.011719 32.140625 46.964844 32.152344 46.921875 32.152344 C 46.394531 32.152344 45.867188 32.164062 45.34375 32.144531 C 44.992188 32.128906 44.640625 32.0625 44.289062 32.015625 C 44.027344 31.980469 43.765625 31.949219 43.507812 31.902344 C 43.0625 31.820312 42.617188 31.734375 42.175781 31.632812 C 41.816406 31.550781 41.460938 31.453125 41.105469 31.347656 C 40.433594 31.152344 39.78125 30.898438 39.167969 30.554688 C 38.589844 30.230469 38.039062 29.867188 37.511719 29.46875 C 36.996094 29.082031 36.488281 28.683594 35.980469 28.285156 C 35.746094 28.097656 35.523438 27.898438 35.292969 27.707031 C 35.003906 27.464844 34.710938 27.21875 34.417969 26.972656 C 34.265625 26.84375 34.117188 26.710938 33.96875 26.578125 C 33.566406 26.214844 33.171875 25.847656 32.765625 25.488281 C 32.277344 25.054688 31.773438 24.632812 31.289062 24.195312 C 30.765625 23.71875 30.21875 23.277344 29.644531 22.867188 C 29.203125 22.550781 28.730469 22.28125 28.246094 22.027344 C 27.703125 21.742188 27.121094 21.570312 26.535156 21.414062 C 26.3125 21.355469 26.085938 21.316406 25.855469 21.292969 C 25.417969 21.25 24.980469 21.207031 24.542969 21.199219 C 24.191406 21.199219 23.835938 21.25 23.480469 21.28125 C 23.25 21.300781 23.019531 21.308594 22.789062 21.339844 C 22.457031 21.386719 22.121094 21.445312 21.789062 21.507812 C 21.507812 21.558594 21.226562 21.628906 20.945312 21.683594 C 20.910156 21.691406 20.875 21.675781 20.796875 21.664062 C 20.90625 21.574219 20.988281 21.507812 21.070312 21.441406 C 21.375 21.199219 21.671875 20.949219 22.015625 20.761719 C 22.160156 20.683594 22.3125 20.617188 22.46875 20.558594 C 22.894531 20.40625 23.324219 20.269531 23.765625 20.167969 C 24.019531 20.105469 24.285156 20.089844 24.546875 20.046875 C 25.007812 19.976562 25.476562 19.992188 25.941406 20.007812 C 26.195312 20.015625 26.449219 20.074219 26.703125 20.085938 C 27.09375 20.109375 27.46875 20.207031 27.84375 20.300781 C 28.488281 20.460938 29.117188 20.679688 29.730469 20.941406 C 30.164062 21.125 30.589844 21.332031 31.003906 21.554688 C 31.695312 21.921875 32.359375 22.34375 32.984375 22.816406 C 33.492188 23.203125 33.988281 23.601562 34.464844 24.03125 C 34.855469 24.390625 35.261719 24.734375 35.660156 25.085938 C 36.089844 25.464844 36.515625 25.847656 36.949219 26.222656 C 37.910156 27.046875 38.886719 27.851562 39.925781 28.582031 C 40.632812 29.074219 41.355469 29.539062 42.082031 29.992188 C 42.328125 30.148438 42.589844 30.277344 42.84375 30.410156 C 43.570312 30.789062 44.316406 31.117188 45.089844 31.378906 C 45.6875 31.582031 46.28125 31.800781 46.878906 32.011719 C 46.945312 32.035156 47.003906 32.070312 47.066406 32.097656 C 47.0625 32.109375 47.058594 32.121094 47.058594 32.136719 "/>
<path style=" stroke:none;fill-rule:nonzero;fill:rgb(92.526245%,42.08374%,9.454346%);fill-opacity:1;" d="M 35.148438 34.246094 C 34.859375 34.523438 34.582031 34.804688 34.226562 34.988281 C 34.03125 35.089844 33.820312 35.171875 33.613281 35.25 C 33.039062 35.457031 32.457031 35.625 31.859375 35.746094 C 31.648438 35.785156 31.429688 35.792969 31.21875 35.808594 C 30.992188 35.828125 30.769531 35.859375 30.546875 35.847656 C 29.914062 35.816406 29.28125 35.78125 28.648438 35.675781 C 27.648438 35.503906 26.699219 35.1875 25.785156 34.757812 C 25.015625 34.394531 24.289062 33.957031 23.601562 33.449219 C 23.144531 33.109375 22.679688 32.773438 22.238281 32.414062 C 21.824219 32.085938 21.429688 31.722656 21.027344 31.375 C 20.703125 31.09375 20.375 30.8125 20.046875 30.53125 C 19.871094 30.378906 19.703125 30.21875 19.527344 30.066406 C 19.089844 29.679688 18.664062 29.285156 18.214844 28.917969 C 17.527344 28.359375 16.835938 27.796875 16.117188 27.28125 C 15.304688 26.699219 14.453125 26.171875 13.566406 25.707031 C 12.6875 25.246094 11.78125 24.847656 10.851562 24.519531 C 10.308594 24.328125 9.746094 24.195312 9.191406 24.035156 C 9.101562 24.011719 9.007812 23.976562 8.917969 23.898438 C 9.070312 23.851562 9.222656 23.789062 9.382812 23.761719 C 9.707031 23.707031 10.03125 23.660156 10.363281 23.640625 C 10.929688 23.605469 11.484375 23.671875 12.039062 23.742188 C 12.738281 23.828125 13.414062 24.003906 14.085938 24.210938 C 14.738281 24.40625 15.375 24.652344 15.988281 24.949219 C 16.464844 25.175781 16.921875 25.4375 17.371094 25.714844 C 18.097656 26.160156 18.785156 26.664062 19.460938 27.183594 C 19.914062 27.53125 20.347656 27.910156 20.78125 28.28125 C 21.40625 28.816406 22.027344 29.355469 22.648438 29.894531 C 23.140625 30.324219 23.636719 30.757812 24.132812 31.183594 C 24.6875 31.65625 25.234375 32.140625 25.804688 32.597656 C 26.320312 33.015625 26.871094 33.382812 27.449219 33.707031 C 27.933594 33.980469 28.433594 34.207031 28.960938 34.375 C 29.324219 34.488281 29.691406 34.566406 30.066406 34.632812 C 30.753906 34.75 31.445312 34.707031 32.132812 34.703125 C 32.550781 34.703125 32.976562 34.660156 33.394531 34.613281 C 33.945312 34.546875 34.488281 34.453125 35.003906 34.246094 C 35.039062 34.234375 35.082031 34.230469 35.121094 34.226562 C 35.125 34.226562 35.132812 34.234375 35.148438 34.246094 "/>
<path style=" stroke:none;fill-rule:nonzero;fill:rgb(40.214539%,75.971985%,18.812561%);fill-opacity:1;" d="M 20.9375 23.019531 C 21.023438 22.960938 21.0625 22.917969 21.109375 22.90625 C 21.453125 22.824219 21.796875 22.746094 22.144531 22.675781 C 22.464844 22.609375 22.789062 22.558594 23.113281 22.5 C 23.378906 22.453125 23.648438 22.410156 23.914062 22.363281 C 23.957031 22.355469 23.996094 22.351562 24.039062 22.355469 C 24.316406 22.367188 24.59375 22.296875 24.871094 22.347656 C 25.074219 22.386719 25.277344 22.414062 25.480469 22.449219 C 25.917969 22.523438 26.335938 22.664062 26.75 22.828125 C 27.195312 23.007812 27.617188 23.226562 28.027344 23.472656 C 28.371094 23.679688 28.710938 23.90625 29.046875 24.128906 C 29.5 24.433594 29.929688 24.769531 30.34375 25.125 C 30.832031 25.546875 31.316406 25.976562 31.8125 26.390625 C 32.398438 26.878906 32.996094 27.347656 33.585938 27.832031 C 33.847656 28.046875 34.09375 28.28125 34.363281 28.492188 C 34.785156 28.824219 35.210938 29.152344 35.652344 29.457031 C 36.078125 29.753906 36.519531 30.027344 36.964844 30.292969 C 37.480469 30.605469 38.011719 30.882812 38.566406 31.121094 C 39.15625 31.378906 39.773438 31.542969 40.386719 31.722656 C 40.628906 31.792969 40.875 31.867188 41.082031 32.027344 C 41.113281 32.046875 41.136719 32.082031 41.183594 32.136719 C 40.738281 32.191406 40.335938 32.320312 39.910156 32.304688 C 39.628906 32.296875 39.34375 32.316406 39.0625 32.296875 C 38.75 32.277344 38.4375 32.242188 38.128906 32.183594 C 37.816406 32.125 37.503906 32.050781 37.199219 31.953125 C 36.792969 31.824219 36.390625 31.683594 35.996094 31.519531 C 35.085938 31.136719 34.230469 30.636719 33.429688 30.058594 C 32.925781 29.695312 32.4375 29.316406 31.953125 28.925781 C 31.519531 28.578125 31.105469 28.210938 30.683594 27.851562 C 30.667969 27.839844 30.660156 27.828125 30.648438 27.816406 C 30.21875 27.40625 29.800781 26.988281 29.359375 26.59375 C 28.804688 26.097656 28.269531 25.574219 27.691406 25.101562 C 27.195312 24.699219 26.691406 24.3125 26.128906 24.007812 C 25.566406 23.703125 24.972656 23.464844 24.335938 23.339844 C 24.167969 23.304688 24 23.269531 23.828125 23.238281 C 23.644531 23.203125 23.457031 23.164062 23.269531 23.144531 C 22.558594 23.074219 21.847656 23.015625 21.132812 23.039062 C 21.089844 23.039062 21.042969 23.03125 20.9375 23.019531 "/>
<path style=" stroke:none;fill-rule:nonzero;fill:rgb(95.960999%,73.016357%,4.216003%);fill-opacity:1;" d="M 14.992188 23.75 C 15.171875 23.730469 15.300781 23.707031 15.429688 23.707031 C 15.875 23.699219 16.316406 23.691406 16.757812 23.707031 C 17.203125 23.722656 17.65625 23.738281 18.09375 23.816406 C 18.605469 23.90625 19.117188 24.046875 19.605469 24.246094 C 20.195312 24.484375 20.769531 24.753906 21.328125 25.054688 C 22.09375 25.46875 22.824219 25.933594 23.492188 26.492188 C 23.949219 26.878906 24.382812 27.289062 24.835938 27.675781 C 25.324219 28.097656 25.796875 28.542969 26.3125 28.933594 C 26.652344 29.1875 26.9375 29.507812 27.25 29.789062 C 27.46875 29.984375 27.6875 30.171875 27.910156 30.355469 C 28.179688 30.578125 28.453125 30.792969 28.71875 31.015625 C 29.304688 31.503906 29.910156 31.960938 30.601562 32.292969 C 31.105469 32.539062 31.640625 32.710938 32.191406 32.8125 C 32.644531 32.898438 33.09375 32.980469 33.550781 33.054688 C 33.769531 33.089844 33.992188 33.09375 34.21875 33.117188 C 34.414062 33.132812 34.609375 33.152344 34.808594 33.175781 C 34.835938 33.179688 34.859375 33.210938 34.914062 33.246094 C 34.40625 33.257812 33.96875 33.4375 33.511719 33.523438 C 33.300781 33.5625 33.089844 33.585938 32.875 33.601562 C 32.710938 33.617188 32.539062 33.605469 32.375 33.605469 C 31.894531 33.613281 31.421875 33.542969 30.945312 33.472656 C 30.546875 33.410156 30.15625 33.320312 29.769531 33.203125 C 28.976562 32.964844 28.238281 32.59375 27.542969 32.148438 C 27.054688 31.839844 26.589844 31.496094 26.140625 31.132812 C 25.582031 30.675781 25.015625 30.234375 24.457031 29.78125 C 24.292969 29.652344 24.148438 29.503906 23.996094 29.363281 C 23.589844 28.996094 23.191406 28.621094 22.78125 28.265625 C 22.367188 27.90625 21.953125 27.546875 21.519531 27.214844 C 20.910156 26.742188 20.292969 26.285156 19.632812 25.894531 C 19.269531 25.679688 18.921875 25.441406 18.550781 25.25 C 18.128906 25.027344 17.695312 24.832031 17.253906 24.648438 C 16.832031 24.472656 16.386719 24.347656 15.941406 24.234375 C 15.617188 24.148438 15.304688 24.011719 14.992188 23.75 "/>
<path style=" stroke:none;fill-rule:nonzero;fill:rgb(61.750793%,82.897949%,12.052917%);fill-opacity:1;" d="M 35.847656 32.289062 C 35.738281 32.308594 35.632812 32.335938 35.519531 32.351562 C 35.292969 32.386719 35.066406 32.433594 34.835938 32.445312 C 34.457031 32.460938 34.074219 32.476562 33.691406 32.417969 C 33.25 32.351562 32.824219 32.246094 32.402344 32.105469 C 31.773438 31.898438 31.191406 31.59375 30.621094 31.257812 C 29.964844 30.867188 29.382812 30.382812 28.789062 29.90625 C 28.574219 29.738281 28.378906 29.542969 28.175781 29.355469 C 27.8125 29.015625 27.457031 28.664062 27.085938 28.328125 C 26.855469 28.117188 26.601562 27.929688 26.359375 27.730469 C 26.183594 27.582031 26.015625 27.417969 25.835938 27.269531 C 25.425781 26.917969 25.015625 26.574219 24.601562 26.226562 C 24.476562 26.117188 24.34375 26.015625 24.226562 25.902344 C 23.949219 25.625 23.617188 25.417969 23.296875 25.199219 C 23.042969 25.027344 22.789062 24.855469 22.519531 24.71875 C 22.09375 24.507812 21.652344 24.320312 21.179688 24.238281 C 20.878906 24.183594 20.585938 24.105469 20.289062 24.039062 C 20.253906 24.03125 20.222656 24 20.175781 23.972656 C 20.21875 23.945312 20.246094 23.921875 20.273438 23.910156 C 20.296875 23.902344 20.324219 23.90625 20.347656 23.90625 C 20.820312 23.890625 21.292969 23.863281 21.765625 23.863281 C 22.148438 23.859375 22.53125 23.878906 22.910156 23.90625 C 23.082031 23.921875 23.253906 23.964844 23.414062 24.019531 C 24.25 24.300781 25.011719 24.722656 25.726562 25.230469 C 26.15625 25.539062 26.570312 25.875 26.972656 26.214844 C 27.359375 26.542969 27.726562 26.894531 28.097656 27.234375 C 28.382812 27.496094 28.65625 27.761719 28.9375 28.019531 C 29.460938 28.503906 29.984375 28.988281 30.523438 29.457031 C 30.871094 29.757812 31.242188 30.039062 31.621094 30.300781 C 31.992188 30.558594 32.394531 30.769531 32.800781 30.972656 C 33.375 31.261719 33.964844 31.515625 34.558594 31.757812 C 34.980469 31.933594 35.414062 32.082031 35.84375 32.242188 C 35.847656 32.257812 35.847656 32.273438 35.847656 32.289062 "/>
<path style=" stroke:none;fill-rule:nonzero;fill:rgb(91.513062%,29.953003%,59.718323%);fill-opacity:1;" d="M 35.703125 36.113281 C 35.699219 36.097656 35.699219 36.082031 35.703125 36.066406 C 35.710938 36.050781 35.71875 36.039062 35.722656 36.03125 C 35.734375 36.039062 35.742188 36.046875 35.753906 36.054688 C 35.734375 36.074219 35.71875 36.09375 35.703125 36.113281 "/>
</g>
</svg>
