<?xml version="1.0" encoding="UTF-8"?>
<svg xmlns="http://www.w3.org/2000/svg" xmlns:xlink="http://www.w3.org/1999/xlink" width="56pt" height="56pt" viewBox="0 0 56 56" version="1.1">
<g id="surface1">
<rect x="0" y="0" width="56" height="56" style="fill:rgb(15.46936%,26.301575%,58.198547%);fill-opacity:1;stroke:none;"/>
<path style=" stroke:none;fill-rule:nonzero;fill:rgb(100%,100%,100%);fill-opacity:1;" d="M 18.867188 23.816406 C 18.574219 23.980469 18.253906 24.148438 17.902344 24.042969 C 16.058594 23.730469 14.210938 23.378906 12.367188 23.039062 C 12.011719 23.007812 11.605469 22.824219 11.273438 23.039062 C 9.75 23.878906 8.25 24.757812 6.738281 25.617188 C 18.171875 32.027344 29.617188 38.414062 41.078125 44.773438 C 41.105469 42.101562 41.09375 39.425781 41.089844 36.75 C 38.476562 36.269531 35.863281 35.804688 33.253906 35.304688 C 35.839844 33.84375 38.441406 32.402344 41.054688 30.988281 C 41.109375 28.386719 41.066406 25.78125 41.078125 23.179688 C 37.054688 25.46875 33.046875 27.78125 29.011719 30.050781 C 27.929688 29.417969 26.828125 28.816406 25.753906 28.164062 C 30.878906 25.207031 36.082031 22.386719 41.230469 19.472656 C 41.226562 16.726562 41.234375 13.976562 41.226562 11.230469 C 33.777344 15.425781 26.320312 19.613281 18.867188 23.816406 Z M 25.050781 5.628906 C 30.023438 4.972656 35.207031 6.007812 39.523438 8.570312 C 44.132812 11.265625 47.738281 15.640625 49.464844 20.695312 C 51.304688 26.003906 51.050781 32.007812 48.742188 37.132812 C 46.617188 41.953125 42.730469 45.953125 38.003906 48.261719 C 32.910156 50.769531 26.863281 51.246094 21.433594 49.601562 C 16.246094 48.058594 11.660156 44.585938 8.78125 40 C 6.511719 36.410156 5.257812 32.167969 5.320312 27.914062 C 5.289062 22.132812 7.679688 16.414062 11.710938 12.289062 C 15.242188 8.652344 20.023438 6.261719 25.050781 5.628906 "/>
</g>
</svg>
