<?xml version="1.0" encoding="UTF-8"?>
<svg xmlns="http://www.w3.org/2000/svg" xmlns:xlink="http://www.w3.org/1999/xlink" width="56pt" height="56pt" viewBox="0 0 56 56" version="1.1">
<g id="surface1">
<rect x="0" y="0" width="56" height="56" style="fill:rgb(16.342163%,21.06781%,28.126526%);fill-opacity:1;stroke:none;"/>
<path style=" stroke:none;fill-rule:nonzero;fill:rgb(96.672058%,55.331421%,9.178162%);fill-opacity:1;" d="M 37.296875 26.910156 L 34.617188 43.082031 C 34.476562 43.796875 34.808594 44.179688 35.480469 44.179688 L 40.648438 44.179688 C 41.316406 44.179688 41.699219 43.796875 41.84375 43.082031 L 44.714844 25.761719 C 44.859375 24.996094 44.476562 24.660156 43.757812 24.804688 L 38.445312 25.761719 C 37.824219 25.855469 37.441406 26.238281 37.296875 26.910156 M 34.476562 18.152344 C 34.617188 17.433594 34.285156 17.050781 33.613281 17.050781 L 27.730469 17.050781 C 27.058594 17.050781 26.675781 17.433594 26.53125 18.152344 L 24.953125 27.578125 L 22.226562 27.578125 C 21.558594 27.578125 21.125 27.960938 20.984375 28.679688 L 20.027344 34.371094 C 19.929688 35.089844 20.21875 35.472656 20.886719 35.472656 L 23.613281 35.472656 L 22.324219 43.128906 C 22.179688 43.84375 22.515625 44.226562 23.183594 44.226562 L 29.070312 44.226562 C 29.738281 44.226562 30.121094 43.84375 30.265625 43.128906 Z M 20.410156 18.199219 C 20.550781 17.433594 20.167969 17.050781 19.453125 17.195312 L 13.421875 18.25 C 12.800781 18.390625 12.371094 18.773438 12.324219 19.445312 L 8.351562 43.082031 C 8.207031 43.796875 8.542969 44.179688 9.214844 44.179688 L 15.050781 44.179688 C 15.71875 44.179688 16.101562 43.796875 16.246094 43.082031 L 20.410156 18.199219 "/>
<path style=" stroke:none;fill-rule:nonzero;fill:rgb(96.673584%,55.361938%,8.892822%);fill-opacity:1;" d="M 44.953125 17.484375 C 44.953125 17.484375 44.285156 17.53125 43.660156 17.769531 C 40.839844 18.964844 40.742188 21.597656 40.980469 21.835938 C 41.269531 22.078125 41.460938 21.886719 41.652344 21.886719 C 42.324219 21.886719 42.992188 21.40625 43.46875 20.976562 C 44.140625 20.355469 44.570312 19.636719 44.808594 18.726562 C 44.90625 18.34375 44.953125 17.433594 44.953125 17.484375 "/>
<path style=" stroke:none;fill-rule:nonzero;fill:rgb(100%,100%,100%);fill-opacity:1;" d="M 44.953125 16.144531 C 44.285156 14.707031 43.136719 13.703125 41.84375 12.84375 C 41.078125 12.316406 40.265625 11.886719 39.308594 11.789062 C 38.015625 11.644531 37.347656 12.363281 37.679688 13.558594 C 37.824219 14.039062 38.0625 14.46875 38.351562 14.898438 C 38.492188 15.089844 38.78125 15.472656 38.925781 15.664062 C 39.261719 16.09375 39.164062 15.664062 38.78125 15.042969 C 38.492188 14.566406 38.015625 13.894531 37.917969 13.175781 C 37.824219 12.507812 38.207031 12.078125 38.925781 12.125 C 39.402344 12.125 39.882812 12.269531 40.3125 12.507812 C 41.460938 13.035156 42.515625 13.796875 43.375 14.707031 C 43.996094 15.378906 44.523438 16.09375 44.714844 17.003906 C 44.808594 17.484375 44.808594 17.867188 44.714844 18.296875 C 44.523438 19.207031 44.140625 20.066406 43.46875 20.785156 C 43.039062 21.261719 42.273438 21.644531 41.796875 21.695312 C 41.460938 21.742188 41.316406 21.695312 41.316406 21.835938 C 41.316406 22.027344 41.414062 22.078125 41.605469 22.078125 C 42.082031 22.078125 42.515625 21.933594 42.945312 21.742188 C 44.476562 20.878906 45.910156 18.152344 44.953125 16.144531 "/>
<path style=" stroke:none;fill-rule:nonzero;fill:rgb(16.342163%,21.06781%,28.126526%);fill-opacity:1;" d="M 40.742188 20.6875 C 40.648438 21.597656 41.078125 22.410156 40.933594 22.269531 C 40.597656 21.835938 40.503906 21.359375 40.550781 20.785156 C 40.597656 19.492188 41.316406 18.535156 42.226562 17.769531 C 42.847656 17.339844 43.136719 17.050781 44.042969 16.8125 C 44.332031 16.765625 44.667969 16.574219 44.523438 16.957031 C 44.476562 17.101562 44.425781 17.148438 44.140625 17.242188 C 42.753906 17.578125 41.84375 18.34375 41.125 19.539062 C 40.933594 19.875 40.789062 20.257812 40.742188 20.6875 "/>
<path style=" stroke:none;fill-rule:nonzero;fill:rgb(96.673584%,55.361938%,8.892822%);fill-opacity:1;" d="M 47.679688 15.28125 C 47.585938 14.898438 46.773438 15.089844 46.675781 15.089844 C 46.054688 15.1875 45.574219 15.953125 45.71875 16.335938 C 45.910156 16.476562 46.101562 16.910156 46.53125 16.859375 C 47.011719 16.8125 47.34375 16.429688 47.394531 16 C 47.394531 15.808594 47.296875 15.570312 47.441406 15.378906 C 47.535156 15.234375 47.632812 15.234375 47.679688 15.28125 "/>
<path style=" stroke:none;fill-rule:nonzero;fill:rgb(100%,100%,100%);fill-opacity:1;" d="M 42.132812 19.0625 C 42.609375 19.398438 43.039062 19.828125 43.566406 20.164062 C 43.660156 20.210938 43.710938 20.304688 43.613281 20.402344 C 43.519531 20.546875 43.421875 20.449219 43.328125 20.402344 C 42.847656 20.019531 42.417969 19.636719 42.132812 19.0625 "/>
<path style=" stroke:none;fill-rule:nonzero;fill:rgb(100%,100%,100%);fill-opacity:1;" d="M 43.136719 18.152344 C 43.519531 18.390625 43.851562 18.726562 44.234375 18.964844 C 44.285156 19.015625 44.378906 19.0625 44.332031 19.15625 C 44.285156 19.253906 44.140625 19.253906 44.09375 19.207031 C 43.660156 18.917969 43.328125 18.632812 43.136719 18.152344 "/>
<path style=" stroke:none;fill-rule:nonzero;fill:rgb(100%,100%,100%);fill-opacity:1;" d="M 41.414062 20.210938 C 41.796875 20.449219 42.132812 20.785156 42.515625 21.023438 C 42.5625 21.070312 42.65625 21.117188 42.609375 21.214844 C 42.5625 21.308594 42.417969 21.308594 42.371094 21.261719 C 41.941406 20.976562 41.605469 20.640625 41.414062 20.210938 "/>
</g>
</svg>
