<?xml version="1.0" encoding="UTF-8"?>
<svg xmlns="http://www.w3.org/2000/svg" xmlns:xlink="http://www.w3.org/1999/xlink" width="56pt" height="56pt" viewBox="0 0 56 56" version="1.1">
<g id="surface1">
<rect x="0" y="0" width="56" height="56" style="fill:rgb(95.66803%,95.779419%,96.777344%);fill-opacity:1;stroke:none;"/>
<path style=" stroke:none;fill-rule:nonzero;fill:rgb(15.609741%,29.057312%,64.183044%);fill-opacity:1;" d="M 30.804688 25.296875 C 30.941406 25.117188 31.082031 24.945312 31.214844 24.765625 C 31.671875 24.140625 32.132812 23.515625 32.589844 22.890625 C 32.640625 22.824219 32.667969 22.75 32.710938 22.675781 C 33.09375 22.140625 33.476562 21.605469 33.871094 21.054688 C 33.757812 20.839844 33.65625 20.628906 33.535156 20.429688 C 32.898438 19.386719 32.25 18.351562 31.613281 17.308594 C 31.085938 16.445312 30.558594 15.578125 30.179688 14.632812 C 30.058594 14.328125 29.960938 13.996094 29.933594 13.667969 C 29.867188 12.894531 30.191406 12.414062 30.828125 12.148438 C 30.96875 12.089844 31.109375 12.039062 31.25 11.980469 C 31.332031 11.949219 31.40625 11.90625 31.523438 11.84375 C 31.417969 11.761719 31.359375 11.691406 31.28125 11.652344 C 30.960938 11.488281 30.652344 11.285156 30.316406 11.183594 C 29.078125 10.808594 27.976562 11.054688 27.078125 12.011719 C 26.816406 12.289062 26.582031 12.601562 26.371094 12.921875 C 25.757812 13.867188 25.160156 14.828125 24.550781 15.78125 C 23.65625 17.171875 22.753906 18.5625 21.855469 19.957031 C 21.777344 20.074219 21.710938 20.199219 21.636719 20.324219 C 21.691406 20.40625 21.738281 20.476562 21.785156 20.542969 C 22.179688 21.105469 22.574219 21.667969 22.96875 22.226562 C 23.148438 22.496094 23.328125 22.761719 23.515625 23.027344 C 23.890625 23.5625 24.273438 24.097656 24.652344 24.632812 C 24.722656 24.722656 24.804688 24.804688 24.882812 24.890625 C 24.925781 24.941406 24.96875 24.992188 25.011719 25.042969 C 25.964844 26.363281 26.917969 27.683594 27.871094 29.007812 C 27.917969 29.070312 27.972656 29.128906 28.03125 29.199219 C 28.089844 29.132812 28.132812 29.09375 28.164062 29.042969 C 28.574219 28.457031 28.984375 27.867188 29.398438 27.277344 C 29.863281 26.617188 30.335938 25.957031 30.804688 25.296875 Z M 2.320312 32.632812 C 2.546875 32.273438 2.777344 31.914062 3.007812 31.554688 C 4 29.984375 4.992188 28.414062 5.992188 26.847656 C 7.226562 24.914062 8.46875 22.988281 9.703125 21.054688 C 10.578125 19.691406 11.449219 18.320312 12.324219 16.949219 C 12.738281 16.300781 13.148438 15.652344 13.570312 15.007812 C 13.671875 14.855469 13.800781 14.722656 13.921875 14.582031 C 14.757812 13.621094 16.527344 13.550781 17.410156 14.667969 C 17.945312 15.339844 18.441406 16.042969 18.953125 16.738281 C 19.285156 17.191406 19.609375 17.648438 19.941406 18.097656 C 19.996094 18.179688 20.074219 18.246094 20.160156 18.339844 C 20.253906 18.234375 20.339844 18.160156 20.402344 18.066406 C 20.875 17.34375 21.34375 16.621094 21.808594 15.894531 C 22.902344 14.179688 23.988281 12.464844 25.085938 10.75 C 25.21875 10.539062 25.378906 10.34375 25.53125 10.144531 C 26.21875 9.242188 27.167969 8.808594 28.257812 8.667969 C 29.882812 8.457031 31.292969 8.972656 32.546875 9.984375 C 33.40625 10.675781 34.164062 11.464844 34.730469 12.417969 C 34.835938 12.59375 34.917969 12.785156 35.035156 13.015625 C 34.914062 13.023438 34.839844 13.027344 34.761719 13.03125 C 34.351562 13.050781 33.941406 13.050781 33.53125 13.097656 C 33.289062 13.121094 33.039062 13.195312 32.808594 13.289062 C 32.382812 13.460938 32.222656 13.8125 32.367188 14.246094 C 32.457031 14.496094 32.570312 14.746094 32.710938 14.96875 C 33.402344 16.085938 34.105469 17.195312 34.8125 18.304688 C 34.933594 18.492188 35.070312 18.671875 35.199219 18.859375 C 35.238281 18.914062 35.269531 18.972656 35.320312 19.058594 C 35.546875 18.757812 35.726562 18.519531 35.90625 18.277344 C 36.671875 17.222656 37.425781 16.15625 38.207031 15.109375 C 38.417969 14.824219 38.667969 14.554688 38.945312 14.332031 C 39.824219 13.621094 41.152344 13.6875 41.957031 14.476562 C 42.246094 14.761719 42.511719 15.082031 42.730469 15.425781 C 44.714844 18.539062 46.683594 21.660156 48.660156 24.777344 C 49.574219 26.21875 50.492188 27.65625 51.410156 29.097656 C 51.433594 29.140625 51.46875 29.175781 51.503906 29.214844 C 51.570312 29.316406 51.636719 29.417969 51.699219 29.519531 C 51.765625 29.621094 51.828125 29.71875 51.894531 29.820312 C 51.976562 29.957031 52.066406 30.09375 52.152344 30.230469 C 52.179688 30.277344 52.214844 30.324219 52.242188 30.371094 C 52.347656 30.539062 52.453125 30.707031 52.554688 30.871094 C 52.570312 30.894531 52.582031 30.910156 52.59375 30.929688 C 52.648438 31.015625 52.703125 31.097656 52.753906 31.183594 C 52.785156 31.230469 52.820312 31.28125 52.851562 31.328125 C 52.902344 31.414062 52.957031 31.496094 53.007812 31.582031 C 53.101562 31.730469 53.199219 31.882812 53.296875 32.035156 C 53.320312 32.066406 53.339844 32.097656 53.359375 32.132812 C 53.457031 32.28125 53.550781 32.433594 53.648438 32.589844 C 53.65625 32.628906 53.664062 32.664062 53.679688 32.730469 C 53.605469 32.714844 53.546875 32.710938 53.5 32.683594 C 51.773438 31.761719 50.15625 30.695312 48.988281 29.082031 C 48.488281 28.390625 48.054688 27.652344 47.597656 26.929688 C 45.855469 24.152344 44.113281 21.371094 42.367188 18.59375 C 42.128906 18.210938 41.863281 17.84375 41.636719 17.453125 C 41.160156 16.640625 40.140625 16.609375 39.527344 17.214844 C 39.296875 17.445312 39.09375 17.703125 38.90625 17.96875 C 37.574219 19.855469 36.257812 21.753906 34.925781 23.644531 C 33.378906 25.839844 31.820312 28.027344 30.265625 30.21875 C 30.023438 30.558594 29.785156 30.902344 29.535156 31.257812 C 29.984375 32.035156 30.523438 32.730469 31.058594 33.421875 C 31.097656 33.496094 31.132812 33.574219 31.175781 33.640625 C 31.652344 34.332031 32.128906 35.023438 32.613281 35.707031 C 32.707031 35.835938 32.84375 35.933594 32.964844 36.046875 C 34.660156 38.402344 36.359375 40.757812 38.058594 43.113281 C 38.929688 44.3125 39.804688 45.503906 40.675781 46.703125 C 40.789062 46.855469 40.886719 47.019531 41.019531 47.230469 C 40.90625 47.222656 40.839844 47.234375 40.785156 47.210938 C 40.324219 47.023438 39.847656 46.859375 39.402344 46.632812 C 37.871094 45.859375 36.503906 44.855469 35.359375 43.578125 C 34.78125 42.929688 34.242188 42.238281 33.738281 41.53125 C 32.183594 39.371094 30.652344 37.195312 29.121094 35.019531 C 28.339844 33.910156 27.585938 32.785156 26.800781 31.679688 C 25.535156 29.898438 24.25 28.132812 22.984375 26.351562 C 21.964844 24.917969 20.964844 23.472656 19.953125 22.039062 C 18.898438 20.550781 17.839844 19.066406 16.78125 17.578125 C 16.707031 17.476562 16.625 17.378906 16.550781 17.28125 C 16.039062 16.617188 14.992188 16.640625 14.519531 17.277344 C 14.386719 17.449219 14.261719 17.625 14.144531 17.808594 C 12.363281 20.636719 10.589844 23.464844 8.808594 26.289062 C 8.265625 27.152344 7.710938 28.011719 7.167969 28.875 C 6.769531 29.515625 6.261719 30.050781 5.691406 30.539062 C 4.855469 31.253906 3.980469 31.914062 3.007812 32.425781 C 2.785156 32.542969 2.546875 32.632812 2.320312 32.730469 C 2.320312 32.699219 2.320312 32.664062 2.320312 32.632812 "/>
<path style=" stroke:none;fill-rule:nonzero;fill:rgb(94.662476%,31.225586%,17.739868%);fill-opacity:1;" d="M 23.015625 36.195312 C 23.085938 36.097656 23.019531 36.023438 22.96875 35.949219 C 22.675781 35.507812 22.390625 35.066406 22.085938 34.636719 C 20.710938 32.6875 19.328125 30.742188 17.949219 28.796875 C 17.273438 27.847656 16.601562 26.898438 15.929688 25.953125 C 15.847656 25.835938 15.757812 25.730469 15.648438 25.589844 C 15.503906 25.761719 15.363281 25.894531 15.261719 26.050781 C 14.902344 26.617188 14.550781 27.1875 14.203125 27.761719 C 13.734375 28.542969 13.246094 29.308594 12.691406 30.039062 C 11.859375 31.136719 10.746094 31.804688 9.460938 32.230469 C 8.449219 32.566406 7.402344 32.742188 6.335938 32.792969 C 5.644531 32.828125 4.949219 32.855469 4.253906 32.867188 C 3.882812 32.871094 3.507812 32.839844 3.132812 32.824219 C 3.128906 32.804688 3.125 32.785156 3.117188 32.765625 C 3.207031 32.734375 3.289062 32.695312 3.378906 32.675781 C 3.878906 32.578125 4.382812 32.492188 4.878906 32.378906 C 5.546875 32.222656 6.207031 32.03125 6.839844 31.765625 C 7.734375 31.390625 8.425781 30.769531 8.957031 29.972656 C 9.625 28.972656 10.28125 27.960938 10.925781 26.945312 C 11.835938 25.519531 12.734375 24.085938 13.640625 22.660156 C 14.046875 22.015625 14.457031 21.375 14.871094 20.738281 C 14.945312 20.628906 15.042969 20.527344 15.140625 20.441406 C 15.339844 20.273438 15.53125 20.261719 15.734375 20.425781 C 15.871094 20.535156 15.996094 20.660156 16.097656 20.800781 C 16.671875 21.605469 17.234375 22.417969 17.800781 23.226562 C 19.175781 25.1875 20.546875 27.148438 21.921875 29.109375 C 23.214844 30.960938 24.511719 32.808594 25.808594 34.660156 C 26.671875 35.894531 27.53125 37.132812 28.398438 38.363281 C 29.21875 39.535156 30.046875 40.707031 30.878906 41.871094 C 31.246094 42.386719 31.605469 42.914062 32.015625 43.402344 C 32.644531 44.148438 33.476562 44.644531 34.328125 45.09375 C 35.472656 45.703125 36.679688 46.148438 37.921875 46.503906 C 38.621094 46.703125 39.328125 46.878906 40.027344 47.074219 C 40.195312 47.117188 40.347656 47.199219 40.507812 47.261719 C 40.503906 47.285156 40.5 47.308594 40.496094 47.332031 C 40.417969 47.332031 40.34375 47.332031 40.265625 47.332031 C 39.996094 47.324219 39.730469 47.316406 39.460938 47.3125 C 38.449219 47.292969 37.4375 47.246094 36.433594 47.117188 C 35.742188 47.03125 35.050781 46.960938 34.371094 46.832031 C 33.050781 46.585938 31.761719 46.238281 30.570312 45.589844 C 29.746094 45.144531 29.050781 44.558594 28.546875 43.757812 C 28.398438 43.519531 28.207031 43.308594 28.007812 43.046875 C 27.875 43.210938 27.777344 43.328125 27.683594 43.449219 C 27.519531 43.671875 27.355469 43.894531 27.191406 44.117188 C 26.632812 44.894531 25.867188 45.410156 25.003906 45.789062 C 23.996094 46.230469 22.945312 46.523438 21.871094 46.769531 C 20.949219 46.976562 20.015625 47.136719 19.078125 47.230469 C 18.203125 47.316406 17.324219 47.359375 16.449219 47.378906 C 16.042969 47.386719 15.636719 47.300781 15.230469 47.253906 C 15.285156 47.152344 15.367188 47.09375 15.492188 47.105469 C 15.539062 47.121094 15.589844 47.15625 15.636719 47.148438 C 15.910156 47.109375 16.183594 47.074219 16.453125 47.007812 C 17.542969 46.75 18.609375 46.40625 19.652344 45.988281 C 20.730469 45.554688 21.785156 45.066406 22.757812 44.417969 C 23.441406 43.96875 24.050781 43.445312 24.515625 42.761719 C 25.003906 42.039062 25.503906 41.328125 25.996094 40.609375 C 26.035156 40.546875 26.0625 40.480469 26.113281 40.386719 C 25.628906 39.667969 25.175781 38.929688 24.59375 38.273438 C 24.539062 38.3125 24.507812 38.339844 24.476562 38.363281 C 24.445312 38.242188 24.449219 38.105469 24.382812 38.011719 C 24.003906 37.457031 23.609375 36.910156 23.214844 36.367188 C 23.164062 36.300781 23.082031 36.253906 23.015625 36.195312 "/>
<path style=" stroke:none;fill-rule:nonzero;fill:rgb(94.662476%,31.225586%,17.739868%);fill-opacity:1;" d="M 32.964844 36.046875 C 32.84375 35.933594 32.707031 35.835938 32.613281 35.707031 C 32.128906 35.023438 31.652344 34.332031 31.175781 33.640625 C 31.132812 33.574219 31.097656 33.496094 31.058594 33.421875 C 31.117188 33.367188 31.183594 33.316406 31.230469 33.253906 C 32.332031 31.671875 33.433594 30.09375 34.53125 28.515625 C 35.652344 26.90625 36.773438 25.300781 37.894531 23.695312 C 38.574219 22.71875 39.253906 21.742188 39.933594 20.769531 C 39.996094 20.679688 40.066406 20.59375 40.144531 20.519531 C 40.433594 20.234375 40.722656 20.242188 40.984375 20.550781 C 41.136719 20.730469 41.265625 20.925781 41.394531 21.125 C 42.601562 22.976562 43.804688 24.828125 45.007812 26.683594 C 45.597656 27.59375 46.21875 28.492188 46.773438 29.425781 C 47.585938 30.800781 48.785156 31.648438 50.28125 32.089844 C 50.980469 32.296875 51.699219 32.421875 52.40625 32.585938 C 52.644531 32.640625 52.882812 32.691406 53.117188 32.746094 C 53.179688 32.761719 53.238281 32.792969 53.324219 32.828125 C 53.277344 32.847656 53.257812 32.863281 53.238281 32.867188 C 52.667969 32.886719 52.101562 32.921875 51.53125 32.917969 C 50.242188 32.90625 48.957031 32.820312 47.695312 32.519531 C 46.5625 32.253906 45.488281 31.835938 44.546875 31.128906 C 43.929688 30.664062 43.46875 30.0625 43.074219 29.40625 C 42.308594 28.125 41.539062 26.847656 40.769531 25.574219 C 40.71875 25.488281 40.640625 25.417969 40.546875 25.308594 C 40.40625 25.480469 40.292969 25.613281 40.195312 25.753906 C 39.539062 26.683594 38.886719 27.617188 38.230469 28.546875 C 37.070312 30.195312 35.90625 31.84375 34.742188 33.492188 C 34.207031 34.253906 33.667969 35.011719 33.136719 35.769531 C 33.074219 35.859375 33.019531 35.953125 32.964844 36.046875 "/>
<path style=" stroke:none;fill-rule:nonzero;fill:rgb(15.609741%,29.057312%,64.183044%);fill-opacity:1;" d="M 23.015625 36.195312 C 23.082031 36.253906 23.164062 36.300781 23.214844 36.367188 C 23.609375 36.910156 24.003906 37.457031 24.382812 38.011719 C 24.449219 38.105469 24.445312 38.242188 24.476562 38.363281 C 24.332031 38.585938 24.195312 38.820312 24.039062 39.035156 C 23.296875 40.074219 22.542969 41.105469 21.800781 42.148438 C 21.21875 42.96875 20.574219 43.730469 19.824219 44.40625 C 18.648438 45.460938 17.375 46.363281 15.894531 46.957031 C 15.773438 47 15.652344 47.050781 15.53125 47.097656 C 15.519531 47.101562 15.503906 47.105469 15.492188 47.105469 C 15.367188 47.09375 15.285156 47.152344 15.230469 47.253906 C 15.175781 47.246094 15.117188 47.238281 15.019531 47.222656 C 15.09375 47.105469 15.148438 47.003906 15.210938 46.914062 C 16.15625 45.597656 17.105469 44.28125 18.054688 42.96875 C 19.476562 40.996094 20.902344 39.027344 22.328125 37.058594 C 22.542969 36.761719 22.785156 36.484375 23.015625 36.195312 "/>
<path style=" stroke:none;fill-rule:nonzero;fill:rgb(94.662476%,31.225586%,17.739868%);fill-opacity:1;" d="M 22.96875 22.226562 C 23.101562 22.277344 23.125 22.152344 23.167969 22.089844 C 23.378906 21.777344 23.585938 21.464844 23.785156 21.144531 C 24.617188 19.789062 25.441406 18.433594 26.273438 17.082031 C 26.492188 16.722656 26.734375 16.382812 27.058594 16.109375 C 27.421875 15.800781 27.742188 15.78125 28.128906 16.054688 C 28.484375 16.308594 28.71875 16.667969 28.949219 17.027344 C 29.9375 18.566406 30.917969 20.113281 31.90625 21.65625 C 32.128906 22.007812 32.359375 22.359375 32.59375 22.71875 C 32.636719 22.703125 32.671875 22.691406 32.710938 22.675781 C 32.667969 22.75 32.640625 22.824219 32.589844 22.890625 C 32.132812 23.515625 31.671875 24.140625 31.214844 24.765625 C 31.082031 24.945312 30.941406 25.117188 30.804688 25.296875 C 30.820312 25.242188 30.832031 25.183594 30.835938 25.179688 C 30.273438 24.289062 29.734375 23.433594 29.191406 22.582031 C 28.761719 21.90625 28.320312 21.234375 27.882812 20.5625 C 27.839844 20.496094 27.785156 20.4375 27.707031 20.34375 C 27.519531 20.636719 27.351562 20.894531 27.1875 21.152344 C 26.464844 22.277344 25.742188 23.402344 25.027344 24.53125 C 24.960938 24.640625 24.929688 24.769531 24.882812 24.890625 C 24.804688 24.804688 24.722656 24.722656 24.652344 24.632812 C 24.273438 24.097656 23.890625 23.5625 23.515625 23.027344 C 23.328125 22.761719 23.148438 22.496094 22.96875 22.226562 "/>
<path style=" stroke:none;fill-rule:nonzero;fill:rgb(52.653503%,51.791382%,52.005005%);fill-opacity:1;" d="M 15.894531 46.957031 C 15.773438 47 15.652344 47.050781 15.53125 47.097656 C 15.652344 47.050781 15.773438 47 15.894531 46.957031 "/>
</g>
</svg>
