<?xml version="1.0" encoding="UTF-8"?>
<svg xmlns="http://www.w3.org/2000/svg" xmlns:xlink="http://www.w3.org/1999/xlink" width="56pt" height="56pt" viewBox="0 0 56 56" version="1.1">
<g id="surface1">
<rect x="0" y="0" width="56" height="56" style="fill:rgb(6.266785%,5.734253%,5.047607%);fill-opacity:1;stroke:none;"/>
<path style=" stroke:none;fill-rule:nonzero;fill:rgb(100%,100%,100%);fill-opacity:1;" d="M 7.988281 26.378906 L 2.0625 35.472656 L 4.066406 35.363281 L 5.71875 32.855469 L 9.1875 32.511719 L 9.824219 34.9375 L 11.746094 34.859375 L 9.507812 26.136719 L 7.988281 26.378906 M 6.691406 31.296875 L 8.328125 28.527344 L 8.847656 31.054688 L 6.691406 31.296875 "/>
<path style=" stroke:none;fill-rule:nonzero;fill:rgb(100%,100%,100%);fill-opacity:1;" d="M 13.707031 34.808594 L 15.535156 34.679688 L 17.234375 25.101562 L 15.441406 25.382812 L 13.707031 34.808594 "/>
<path style=" stroke:none;fill-rule:nonzero;fill:rgb(100%,100%,100%);fill-opacity:1;" d="M 26.40625 25.730469 C 25.753906 23.894531 23.535156 24.339844 23.535156 24.339844 L 19.90625 24.828125 L 18.171875 34.582031 L 20.007812 34.476562 L 21.425781 26.203125 L 22.871094 26.023438 C 22.871094 26.023438 23.230469 25.976562 23.628906 26.046875 C 24.246094 26.144531 24.953125 26.519531 24.558594 27.75 C 24.1875 29.402344 21.148438 29.503906 21.148438 29.503906 L 24.074219 34.179688 L 26.332031 34.039062 L 23.96875 30.453125 C 23.96875 30.453125 27.0625 29.339844 26.40625 25.730469 "/>
<path style=" stroke:none;fill-rule:nonzero;fill:rgb(100%,100%,100%);fill-opacity:1;" d="M 37.832031 22.363281 C 37.832031 22.363281 36.992188 22.328125 35.996094 22.476562 C 35.003906 22.628906 32.898438 22.925781 32.898438 22.925781 L 31.351562 33.714844 L 34.570312 33.5 C 34.570312 33.5 37.957031 33.507812 39.753906 30.878906 C 40.070312 30.496094 42.125 27.050781 40.339844 23.796875 C 40.339844 23.796875 39.308594 22.320312 37.832031 22.363281 M 37.03125 30.960938 C 35.828125 31.746094 33.632812 31.691406 33.632812 31.691406 L 34.578125 24.578125 C 34.578125 24.578125 35.988281 24.351562 36.261719 24.320312 C 36.53125 24.285156 37.136719 24.28125 37.480469 24.359375 C 38.757812 24.433594 39.007812 25.964844 39.007812 25.964844 C 39.007812 25.964844 39.730469 29.042969 37.03125 30.960938 "/>
<path style=" stroke:none;fill-rule:nonzero;fill:rgb(100%,100%,100%);fill-opacity:1;" d="M 50.140625 20.539062 C 45.53125 20.269531 43.519531 25.191406 43.34375 25.839844 C 41.765625 30.640625 45.058594 32.914062 46.796875 33.089844 C 51.328125 33.492188 53.355469 28.9375 53.679688 27.445312 C 54.921875 22.007812 51.292969 20.597656 50.140625 20.539062 M 51.648438 27.710938 C 51.28125 29.144531 49.507812 31.515625 47.054688 30.949219 C 46.65625 30.914062 43.648438 29.503906 45.601562 25.234375 C 45.601562 25.234375 46.949219 22.488281 49.59375 22.722656 C 50.625 22.800781 52.757812 24.113281 51.648438 27.710938 "/>
</g>
</svg>
