<?xml version="1.0" encoding="UTF-8"?>
<svg xmlns="http://www.w3.org/2000/svg" xmlns:xlink="http://www.w3.org/1999/xlink" width="56pt" height="56pt" viewBox="0 0 56 56" version="1.1">
<g id="surface1">
<rect x="0" y="0" width="56" height="56" style="fill:rgb(92.980957%,11.471558%,14.03656%);fill-opacity:1;stroke:none;"/>
<path style=" stroke:none;fill-rule:nonzero;fill:rgb(100%,100%,100%);fill-opacity:1;" d="M 21.292969 35.898438 C 21.070312 35.816406 20.84375 35.726562 20.617188 35.648438 C 19.214844 35.152344 18.152344 34.226562 17.363281 32.992188 C 16.425781 31.53125 16.046875 29.910156 16.222656 28.195312 C 16.414062 26.273438 17.140625 24.550781 18.324219 23.011719 C 19.496094 21.492188 21.058594 20.636719 22.890625 20.207031 C 22.960938 20.1875 23.027344 20.136719 23.09375 20.101562 C 24.195312 20.101562 25.292969 20.101562 26.394531 20.101562 C 26.605469 20.171875 26.820312 20.246094 27.03125 20.3125 C 27.925781 20.601562 28.785156 20.949219 29.425781 21.675781 C 29.90625 22.222656 30.238281 22.851562 30.484375 23.527344 C 30.703125 24.121094 30.890625 24.71875 30.925781 25.386719 C 29.871094 25.386719 28.8125 25.386719 27.746094 25.386719 C 27.664062 25.101562 27.597656 24.8125 27.496094 24.535156 C 27.109375 23.472656 26.328125 22.933594 25.222656 22.78125 C 24.195312 22.644531 23.234375 22.828125 22.335938 23.308594 C 21.292969 23.867188 20.621094 24.769531 20.199219 25.851562 C 19.878906 26.675781 19.726562 27.542969 19.691406 28.429688 C 19.65625 29.191406 19.617188 29.960938 19.792969 30.714844 C 20.125 32.132812 20.925781 32.980469 22.464844 33.214844 C 23.574219 33.386719 24.585938 33.171875 25.476562 32.503906 C 26.230469 31.9375 26.867188 31.261719 27.132812 30.316406 C 27.175781 30.164062 27.1875 30.003906 27.222656 29.804688 C 26.101562 29.804688 25.042969 29.804688 23.941406 29.804688 C 24.074219 29.023438 24.203125 28.28125 24.335938 27.519531 C 26.378906 27.519531 28.402344 27.519531 30.484375 27.519531 C 29.949219 30.253906 29.40625 32.972656 28.851562 35.699219 C 28.308594 35.699219 27.792969 35.699219 27.265625 35.699219 C 27.042969 35.40625 27.128906 35.035156 27.046875 34.703125 C 26.972656 34.386719 26.941406 34.054688 26.886719 33.683594 C 26.605469 34 26.367188 34.277344 26.117188 34.539062 C 25.507812 35.175781 24.78125 35.625 23.90625 35.8125 C 23.863281 35.820312 23.832031 35.867188 23.792969 35.898438 C 22.960938 35.898438 22.128906 35.898438 21.292969 35.898438 "/>
<path style=" stroke:none;fill-rule:nonzero;fill:rgb(100%,100%,100%);fill-opacity:1;" d="M 41.707031 20.234375 C 42.789062 20.234375 43.820312 20.234375 44.867188 20.234375 C 44.902344 20.476562 44.949219 20.703125 44.960938 20.929688 C 45.007812 21.8125 45.035156 22.691406 45.082031 23.574219 C 45.136719 24.601562 45.203125 25.628906 45.261719 26.65625 C 45.265625 26.707031 45.265625 26.757812 45.265625 26.808594 C 45.308594 27.855469 45.347656 28.902344 45.398438 29.949219 C 45.417969 30.410156 45.46875 30.871094 45.558594 31.351562 C 47.015625 27.675781 48.46875 24.003906 49.925781 20.3125 C 51.078125 20.3125 52.21875 20.3125 53.433594 20.3125 C 50.988281 25.496094 48.574219 30.628906 46.152344 35.769531 C 45.109375 35.769531 44.082031 35.769531 43.011719 35.769531 C 42.976562 35.519531 42.929688 35.261719 42.910156 35.003906 C 42.871094 34.40625 42.839844 33.808594 42.808594 33.214844 C 42.765625 32.214844 42.726562 31.21875 42.679688 30.222656 C 42.617188 28.960938 42.546875 27.699219 42.472656 26.4375 C 42.449219 25.976562 42.398438 25.515625 42.351562 24.949219 C 40.722656 28.613281 39.140625 32.191406 37.546875 35.773438 C 36.46875 35.773438 35.40625 35.773438 34.289062 35.773438 C 34.261719 35.589844 34.21875 35.398438 34.207031 35.210938 C 34.128906 33.914062 34.058594 32.621094 33.980469 31.328125 C 33.917969 30.332031 33.851562 29.339844 33.78125 28.34375 C 33.699219 27.167969 33.601562 25.992188 33.515625 24.816406 C 33.472656 24.1875 33.441406 23.558594 33.402344 22.925781 C 33.351562 22.066406 33.304688 21.207031 33.253906 20.328125 C 34.320312 20.328125 35.378906 20.328125 36.472656 20.328125 C 36.480469 20.4375 36.492188 20.53125 36.492188 20.625 C 36.53125 23.671875 36.566406 26.71875 36.609375 29.765625 C 36.613281 30.15625 36.660156 30.550781 36.691406 31.058594 C 38.398438 27.382812 40.046875 23.816406 41.707031 20.234375 "/>
<path style=" stroke:none;fill-rule:nonzero;fill:rgb(100%,100%,100%);fill-opacity:1;" d="M 9.9375 20.230469 C 11.25 20.230469 12.511719 20.230469 13.808594 20.230469 C 11.898438 24.378906 10.003906 28.492188 8.105469 32.617188 C 8.261719 32.746094 8.433594 32.691406 8.585938 32.691406 C 10.484375 32.695312 12.382812 32.695312 14.28125 32.695312 C 14.441406 32.695312 14.601562 32.695312 14.828125 32.695312 C 14.644531 33.757812 14.472656 34.761719 14.300781 35.769531 C 10.378906 35.769531 6.503906 35.769531 2.566406 35.769531 C 2.675781 35.527344 2.761719 35.320312 2.855469 35.117188 C 4.011719 32.6875 5.167969 30.261719 6.320312 27.832031 C 7.46875 25.417969 8.609375 23.003906 9.753906 20.585938 C 9.8125 20.46875 9.875 20.351562 9.9375 20.230469 "/>
</g>
</svg>
