<?xml version="1.0" encoding="UTF-8"?>
<svg xmlns="http://www.w3.org/2000/svg" xmlns:xlink="http://www.w3.org/1999/xlink" width="56pt" height="56pt" viewBox="0 0 56 56" version="1.1">
<g id="surface1">
<rect x="0" y="0" width="56" height="56" style="fill:rgb(61.647034%,8.616638%,36.599731%);fill-opacity:1;stroke:none;"/>
<path style=" stroke:none;fill-rule:nonzero;fill:rgb(92.359924%,93.035889%,10.552979%);fill-opacity:1;" d="M 28 10.703125 C 18.40625 10.703125 10.597656 18.460938 10.597656 28 C 10.597656 37.539062 18.40625 45.296875 28 45.296875 C 37.59375 45.296875 45.402344 37.539062 45.402344 28 C 45.402344 18.460938 37.59375 10.703125 28 10.703125 Z M 28 47.679688 C 17.148438 47.679688 8.320312 38.851562 8.320312 28 C 8.320312 17.148438 17.148438 8.320312 28 8.320312 C 38.851562 8.320312 47.679688 17.148438 47.679688 28 C 47.679688 38.851562 38.851562 47.679688 28 47.679688 "/>
<path style=" stroke:none;fill-rule:evenodd;fill:rgb(92.359924%,93.035889%,10.552979%);fill-opacity:1;" d="M 28.808594 16.316406 C 29.835938 16.710938 30.625 17.023438 31.554688 16.746094 C 31.425781 16.375 31.320312 16.070312 31.210938 15.757812 C 31.503906 15.527344 31.738281 15.339844 32.046875 15.101562 C 30.65625 14.605469 29.914062 15.578125 28.808594 16.316406 Z M 33.742188 27.328125 C 34.15625 27.175781 34.484375 27.058594 34.96875 26.886719 C 34.347656 26.488281 33.933594 26.523438 33.554688 26.886719 C 33.253906 27.175781 33.15625 27.542969 33.3125 27.964844 C 33.484375 28.425781 33.8125 28.691406 34.265625 28.703125 C 34.585938 28.710938 34.929688 28.648438 35.226562 28.519531 C 35.574219 28.371094 35.871094 28.113281 36.199219 27.910156 C 36.265625 27.871094 36.359375 27.882812 36.527344 27.855469 C 36.683594 27.996094 36.882812 28.179688 37.179688 28.453125 C 36.75 28.660156 36.445312 28.808594 36.085938 28.980469 C 36.511719 29.453125 36.886719 29.40625 37.230469 29.058594 C 37.578125 28.707031 37.597656 28.285156 37.328125 27.863281 C 37.03125 27.390625 36.445312 27.230469 35.871094 27.519531 C 35.574219 27.667969 35.328125 27.933594 35.035156 28.09375 C 34.421875 28.425781 34.078125 28.238281 33.742188 27.328125 Z M 42.011719 21.628906 C 42.398438 21.582031 42.539062 21.878906 42.609375 22.171875 C 42.683594 22.457031 42.746094 22.792969 42.667969 23.058594 C 42.476562 23.6875 42.179688 24.242188 41.613281 24.636719 C 40.21875 25.605469 38.660156 26.0625 37.042969 26.363281 C 36.789062 26.410156 36.539062 26.503906 36.117188 26.621094 C 36.40625 26.78125 36.503906 26.890625 36.597656 26.886719 C 38.566406 26.78125 40.371094 26.140625 41.984375 24.972656 C 42.691406 24.460938 43.152344 23.726562 43.207031 22.773438 C 43.285156 21.4375 42 20.421875 40.835938 20.914062 C 40.394531 21.101562 40.195312 21.4375 40.199219 21.933594 C 40.203125 22.449219 40.472656 22.753906 40.902344 22.910156 C 41.628906 23.179688 42.023438 22.710938 42.035156 21.597656 Z M 25.339844 24.015625 C 26.246094 24.546875 25.957031 25.5625 26.1875 26.386719 C 26.921875 26.78125 27.65625 26.621094 28.445312 26.476562 C 29.320312 24.597656 30.972656 24.152344 32.757812 24.082031 C 34.476562 24.015625 36.203125 24.070312 37.925781 24.246094 C 36.542969 24.246094 35.160156 24.195312 33.78125 24.261719 C 32.523438 24.320312 31.28125 24.492188 30.238281 25.40625 C 28.988281 26.5 29.011719 28.132812 30.398438 29.011719 C 31.117188 29.46875 31.9375 29.609375 32.828125 29.257812 C 32.632812 29.175781 32.441406 29.078125 32.238281 29.011719 C 31.761719 28.863281 31.242188 28.804688 30.800781 28.578125 C 29.664062 27.976562 29.53125 26.808594 30.445312 25.898438 C 31.371094 24.976562 32.53125 24.847656 33.722656 24.785156 C 35.273438 24.703125 36.832031 24.652344 38.378906 24.503906 C 39.207031 24.425781 40.015625 24.171875 40.660156 23.378906 C 40.40625 23.195312 40.195312 23.066406 40.011719 22.90625 C 39.535156 22.492188 39.402344 21.949219 39.617188 21.363281 C 39.816406 20.8125 40.140625 20.386719 40.785156 20.300781 C 42.25 20.109375 43.371094 20.597656 43.851562 21.777344 C 44.363281 23.035156 43.972656 24.644531 42.824219 25.550781 C 41.609375 26.511719 40.277344 27.25 38.789062 27.65625 C 38.632812 27.699219 38.476562 27.757812 38.066406 27.894531 C 38.476562 28.054688 38.683594 28.21875 38.84375 28.179688 C 39.335938 28.066406 39.804688 27.863281 40.285156 27.703125 C 41.386719 27.332031 42.269531 27.617188 42.902344 28.601562 C 43.960938 30.238281 43.902344 32.640625 41.359375 33.417969 C 40.363281 33.722656 39.292969 33.90625 38.257812 33.90625 C 33.878906 33.90625 29.5 33.8125 25.125 33.769531 C 22.933594 33.746094 20.742188 33.714844 18.554688 33.78125 C 17.777344 33.800781 16.960938 33.996094 16.242188 34.3125 C 15.382812 34.691406 14.875 35.476562 14.875 36.503906 C 14.878906 37.507812 15.453125 38.199219 16.277344 38.507812 C 17.011719 38.78125 17.574219 39.269531 18.203125 39.679688 C 20.589844 41.238281 23.171875 41.46875 25.855469 40.8125 C 26.234375 40.71875 26.605469 40.40625 26.890625 40.101562 C 27.285156 39.683594 27.242188 38.894531 26.886719 38.53125 C 26.554688 38.191406 26.289062 38.277344 25.644531 38.957031 C 25.726562 39.171875 25.816406 39.410156 25.910156 39.644531 C 25.855469 39.703125 25.808594 39.804688 25.75 39.816406 C 25.003906 39.953125 24.683594 39.761719 24.429688 39.03125 C 24.183594 38.332031 24.359375 37.613281 24.9375 37.296875 C 25.761719 36.847656 26.636719 36.730469 27.464844 37.277344 C 28.226562 37.777344 28.484375 38.523438 28.289062 39.445312 C 28.257812 39.589844 28.304688 39.753906 28.324219 40.023438 C 29.148438 38.683594 28.800781 37.21875 27.539062 36.738281 C 26.847656 36.476562 26.0625 36.496094 25.320312 36.390625 L 25.351562 36.421875 C 27.265625 35.546875 28.535156 36.136719 29.472656 38.304688 C 30.582031 37.4375 31.703125 36.5625 32.851562 35.664062 C 32.753906 35.621094 32.65625 35.535156 32.554688 35.535156 C 28.144531 35.460938 23.734375 35.382812 19.324219 35.335938 C 18.65625 35.328125 17.988281 35.441406 17.324219 35.519531 C 16.824219 35.578125 16.402344 35.824219 16.351562 36.382812 C 16.292969 37.046875 16.746094 37.28125 17.371094 37.359375 C 17.597656 37.101562 17.84375 36.820312 18.109375 36.515625 C 18.21875 36.546875 18.382812 36.539062 18.4375 36.617188 C 18.890625 37.234375 18.820312 37.652344 18.234375 37.996094 C 17.292969 38.546875 15.871094 38.0625 15.425781 37.039062 C 15.121094 36.335938 15.542969 35.292969 16.320312 34.804688 C 16.996094 34.378906 17.734375 34.300781 18.507812 34.304688 C 23.800781 34.332031 29.101562 34.347656 34.398438 34.363281 C 36.035156 34.367188 37.671875 34.394531 39.308594 34.335938 C 40.394531 34.296875 41.480469 34.15625 42.441406 33.503906 C 43.773438 32.601562 44.222656 31.554688 43.9375 29.921875 C 43.882812 29.621094 43.847656 29.316406 43.804688 29.011719 L 43.773438 29.042969 C 44.632812 30 44.867188 31.761719 44.242188 32.910156 C 43.617188 34.066406 42.738281 34.894531 41.4375 35.136719 C 40.371094 35.335938 39.308594 35.546875 38.148438 35.773438 C 38.332031 35.929688 38.492188 36.066406 38.65625 36.203125 C 39.660156 37.03125 39.910156 38.539062 39.210938 39.621094 C 38.917969 40.074219 38.558594 40.433594 37.972656 40.363281 L 38 40.402344 C 38.054688 40.332031 38.097656 40.257812 38.15625 40.199219 C 39.527344 38.835938 39.269531 37.121094 37.542969 36.308594 C 35.9375 35.550781 34.308594 35.648438 32.808594 36.53125 C 31.90625 37.058594 31.125 37.828125 30.34375 38.550781 C 29.808594 39.042969 29.371094 39.644531 28.890625 40.199219 C 27.800781 41.453125 26.429688 42.222656 24.851562 42.429688 C 21.78125 42.839844 18.890625 42.347656 16.417969 40.214844 C 15.996094 39.851562 15.554688 39.511719 15.175781 39.101562 C 14.300781 38.164062 14.0625 37.070312 14.554688 35.835938 C 14.617188 35.675781 14.652344 35.511719 14.726562 35.265625 C 14.3125 35.097656 13.929688 34.949219 13.554688 34.785156 C 11.957031 34.082031 11.144531 32.484375 11.480469 30.722656 C 11.667969 29.738281 12.695312 28.761719 13.796875 28.554688 C 14.160156 28.488281 14.539062 28.503906 14.9375 28.625 C 14.503906 28.742188 14.019531 28.765625 13.65625 29 C 13.210938 29.289062 12.769531 29.699219 12.511719 30.167969 C 12.277344 30.589844 12.164062 31.179688 12.21875 31.667969 C 12.363281 33.039062 13.53125 34.027344 15.023438 33.933594 C 14.496094 33.648438 14.136719 33.480469 13.804688 33.265625 C 12.449219 32.394531 12.339844 30.597656 13.566406 29.613281 C 14.164062 29.136719 15.714844 29.152344 16.320312 29.644531 C 16.835938 30.0625 16.796875 30.484375 16.148438 31.152344 C 15.8125 30.960938 15.460938 30.753906 15.125 30.558594 C 14.402344 31.054688 14.320312 31.363281 14.789062 31.847656 C 15.265625 32.34375 15.855469 32.472656 16.523438 32.46875 C 19.089844 32.4375 21.65625 32.433594 24.222656 32.4375 C 28.433594 32.441406 32.640625 32.46875 36.851562 32.453125 C 37.601562 32.453125 38.363281 32.363281 39.097656 32.203125 C 39.507812 32.109375 39.867188 31.78125 40.207031 31.585938 C 40.183594 30.789062 39.804688 30.453125 39.285156 30.320312 C 38.761719 30.1875 38.210938 30.097656 37.671875 30.09375 C 34.894531 30.066406 32.117188 30.070312 29.339844 30.070312 C 29.152344 30.070312 28.960938 30.144531 28.707031 30.199219 C 28.929688 30.695312 29.292969 30.625 29.601562 30.625 C 31.875 30.632812 34.148438 30.628906 36.417969 30.628906 C 37.09375 30.628906 37.765625 30.644531 38.441406 30.648438 C 38.914062 30.65625 39.300781 30.824219 39.703125 31.371094 C 37.371094 30.882812 35.199219 31.21875 33.03125 31.132812 C 30.425781 31.03125 27.804688 31.085938 25.226562 30.78125 C 23.503906 30.582031 21.777344 30.054688 20.371094 28.8125 C 17.875 26.613281 17.949219 22.910156 20.582031 20.90625 C 21.1875 20.449219 21.90625 20.160156 22.574219 19.792969 C 22.8125 19.660156 23.050781 19.519531 23.386719 19.328125 C 21.5 18.925781 18.679688 21.378906 18.203125 23.679688 C 17.457031 27.269531 19.527344 29.859375 24.035156 31.070312 C 21.859375 31.054688 19.78125 30.628906 18.316406 28.773438 C 16.035156 25.882812 16.683594 23.011719 18.820312 20.160156 C 17.089844 20.117188 15.839844 20.730469 14.832031 21.875 C 14.605469 22.132812 14.527344 22.585938 14.488281 22.960938 C 14.457031 23.332031 14.664062 23.710938 15.058594 23.671875 C 15.265625 23.652344 15.59375 23.328125 15.613281 23.117188 C 15.65625 22.601562 15.804688 22.382812 16.300781 22.519531 C 16.5 23.523438 16.300781 24.070312 15.582031 24.519531 C 14.964844 24.90625 14.148438 24.796875 13.59375 24.261719 C 12.992188 23.675781 12.820312 22.851562 13.277344 22.113281 C 13.613281 21.574219 14.046875 21.066406 14.535156 20.679688 C 16.007812 19.511719 17.695312 18.882812 19.542969 18.734375 C 19.742188 18.71875 19.9375 18.652344 20.4375 18.539062 C 19.972656 18.34375 19.773438 18.175781 19.589844 18.195312 C 17.269531 18.429688 15.15625 19.207031 13.46875 20.949219 C 12.792969 21.644531 12.394531 22.503906 12.644531 23.570312 C 12.902344 24.644531 13.574219 25.214844 14.65625 25.128906 C 15.191406 25.085938 15.71875 24.921875 16.253906 24.8125 L 16.222656 24.78125 C 15.570312 25.730469 14.65625 25.703125 13.753906 25.398438 C 12.847656 25.089844 12.296875 24.40625 12.226562 23.347656 C 12.144531 22.125 12.519531 21.039062 13.34375 20.234375 C 14.707031 18.90625 16.246094 17.847656 18.167969 17.570312 C 18.53125 17.515625 18.878906 17.355469 19.234375 17.246094 C 19.234375 16.539062 19.234375 15.921875 19.234375 15.304688 C 19.304688 15.300781 19.378906 15.296875 19.453125 15.289062 C 19.46875 15.429688 19.484375 15.570312 19.5 15.707031 C 19.648438 17.050781 20.191406 17.691406 21.449219 17.90625 C 22.761719 18.125 24.066406 17.976562 25.28125 17.425781 C 26.511719 16.867188 27.695312 16.203125 28.894531 15.574219 C 29.195312 15.417969 29.472656 15.21875 29.769531 15.054688 C 30.9375 14.40625 32.101562 13.957031 33.292969 15.203125 C 33.257812 15.03125 33.277344 14.8125 33.179688 14.691406 C 32.53125 13.867188 31.652344 13.644531 30.554688 14.140625 C 29.554688 14.59375 28.617188 15.203125 27.625 15.683594 C 26.488281 16.234375 25.351562 16.824219 24.152344 17.1875 C 23.332031 17.4375 22.40625 17.378906 21.53125 17.359375 C 20.847656 17.347656 20.328125 16.960938 20.128906 16.238281 C 19.941406 15.542969 20.042969 14.929688 20.660156 14.492188 C 21.136719 14.152344 21.609375 13.808594 22.136719 13.429688 C 22.378906 13.78125 22.542969 14.019531 22.722656 14.273438 C 22.445312 14.535156 22.199219 14.757812 22.003906 14.941406 C 21.871094 15.476562 22.261719 16.003906 22.757812 15.976562 C 23.132812 15.957031 23.503906 15.835938 23.871094 15.75 C 25.371094 15.398438 26.625 14.460938 28.011719 13.84375 C 28.933594 13.4375 29.871094 13.039062 30.832031 12.757812 C 31.339844 12.609375 31.921875 12.660156 32.457031 12.738281 C 33.601562 12.902344 34.402344 13.527344 34.628906 14.785156 C 34.664062 14.996094 34.699219 15.210938 34.734375 15.425781 C 35.542969 15.90625 36.410156 15.765625 37.230469 15.835938 C 38.316406 15.929688 39.152344 16.460938 39.796875 17.324219 C 40.53125 18.304688 40.335938 19.765625 39.414062 20.519531 C 38.734375 21.078125 38.050781 20.960938 37.3125 20.101562 C 37.695312 19.921875 38.042969 19.757812 38.480469 19.554688 C 38.375 19.296875 38.34375 18.972656 38.183594 18.875 C 37.230469 18.300781 36.199219 18.328125 35.140625 18.453125 C 35.511719 20.652344 35.207031 21.601562 33.992188 21.824219 C 33.433594 21.925781 32.832031 21.816406 32.261719 21.714844 C 32.117188 21.691406 32.023438 21.339844 31.796875 20.957031 C 32.183594 21.011719 32.375 21.007812 32.546875 21.066406 C 32.980469 21.214844 33.328125 21.109375 33.433594 20.632812 C 33.535156 20.175781 33.265625 19.847656 32.855469 19.753906 C 32.414062 19.65625 31.941406 19.578125 31.496094 19.632812 C 30.160156 19.796875 29.042969 20.496094 27.996094 21.335938 C 27.597656 21.652344 27.203125 22.03125 26.746094 22.195312 C 26.351562 22.339844 25.816406 22.34375 25.433594 22.179688 C 24.535156 21.792969 24.53125 21.058594 25.335938 20.304688 L 25.3125 20.273438 C 25.296875 20.398438 25.308594 20.546875 25.257812 20.652344 C 25.007812 21.144531 25.167969 21.539062 25.570312 21.777344 C 25.957031 22.007812 26.382812 21.972656 26.738281 21.636719 C 27.078125 21.3125 27.226562 20.945312 27.054688 20.457031 C 26.671875 19.382812 25.3125 19.183594 24.601562 20.160156 C 24.324219 20.546875 24.238281 21.085938 23.964844 21.824219 C 23.636719 22.121094 23.0625 22.621094 22.503906 23.144531 C 22.0625 23.558594 21.957031 24.101562 21.988281 24.703125 C 22.015625 25.328125 22.226562 25.855469 22.8125 26.050781 C 23.429688 26.253906 23.980469 26.105469 24.328125 25.25 C 24.070312 24.964844 23.773438 24.636719 23.414062 24.242188 C 23.464844 24.164062 23.558594 23.882812 23.683594 23.867188 C 23.953125 23.828125 24.367188 23.824219 24.492188 23.992188 C 24.820312 24.421875 25.148438 24.925781 25.242188 25.449219 C 25.449219 26.570312 24.761719 27.644531 23.675781 27.960938 C 23.015625 28.152344 22.3125 28.167969 21.40625 28.289062 C 21.777344 28.492188 21.96875 28.660156 22.175781 28.699219 C 24.546875 29.125 26.335938 26.847656 25.496094 24.484375 C 25.441406 24.324219 25.410156 24.152344 25.371094 23.984375 L 25.339844 24.015625 "/>
<path style=" stroke:none;fill-rule:evenodd;fill:rgb(92.359924%,93.035889%,10.552979%);fill-opacity:1;" d="M 35.769531 38.558594 C 36.285156 38.730469 36.746094 39.21875 37.171875 38.585938 C 36.925781 37.703125 36.742188 37.429688 36.050781 37.511719 C 35.367188 37.59375 34.617188 37.765625 34.054688 38.152344 C 32.695312 39.089844 31.386719 40.125 30.128906 41.210938 C 27.972656 43.066406 25.535156 43.640625 22.71875 43.191406 C 23.566406 43.074219 24.304688 42.945312 25.050781 42.871094 C 26.984375 42.683594 28.375 41.507812 29.664062 40.144531 C 30.34375 39.421875 30.957031 38.636719 31.65625 37.9375 C 33.074219 36.519531 34.800781 36.148438 36.679688 36.53125 C 37.148438 36.628906 37.628906 36.921875 37.996094 37.253906 C 38.625 37.8125 38.664062 38.941406 38.171875 39.53125 C 37.691406 40.101562 36.378906 40.351562 35.828125 39.972656 C 35.496094 39.75 35.480469 39.535156 35.769531 38.558594 "/>
</g>
</svg>
