<?xml version="1.0" encoding="UTF-8"?>
<svg xmlns="http://www.w3.org/2000/svg" xmlns:xlink="http://www.w3.org/1999/xlink" width="56pt" height="56pt" viewBox="0 0 56 56" version="1.1">
<g id="surface1">
<rect x="0" y="0" width="56" height="56" style="fill:rgb(93.252563%,15.379333%,14.109802%);fill-opacity:1;stroke:none;"/>
<path style=" stroke:none;fill-rule:nonzero;fill:rgb(100%,100%,100%);fill-opacity:1;" d="M 19.453125 22.035156 C 18.78125 22.160156 18.195312 22.785156 18.144531 23.433594 C 18.09375 24.082031 18.59375 24.503906 19.269531 24.378906 C 19.941406 24.25 20.527344 23.625 20.578125 22.980469 C 20.628906 22.332031 20.125 21.910156 19.453125 22.035156 "/>
<path style=" stroke:none;fill-rule:nonzero;fill:rgb(100%,100%,100%);fill-opacity:1;" d="M 24.195312 24.910156 C 23.914062 24.960938 23.59375 25.019531 22.34375 26.480469 C 22.652344 25.917969 22.75 25.457031 22.375 25.203125 C 21.980469 24.9375 21.296875 25.140625 20.917969 25.390625 C 20.683594 25.542969 20.675781 25.621094 20.636719 25.914062 C 20.601562 26.105469 20.425781 26.535156 20.304688 26.777344 L 19.925781 27.585938 C 18.488281 30.089844 17.6875 30.773438 17.449219 31.058594 C 17.207031 31.324219 17.003906 31.480469 16.863281 31.507812 C 16.761719 31.527344 16.714844 31.449219 16.726562 31.3125 C 16.742188 31.109375 16.816406 30.828125 16.980469 30.460938 C 17.253906 29.835938 17.6875 28.914062 18.03125 28.296875 C 18.214844 27.925781 18.695312 27.054688 18.695312 27.054688 C 19.144531 26.046875 18.289062 25.699219 17.785156 25.769531 C 17.640625 25.792969 16.066406 25.972656 14.261719 26.28125 C 15.25 22.160156 15.167969 22.773438 16.191406 20.132812 C 16.691406 18.84375 16.636719 18.546875 16.210938 18.0625 C 15.789062 17.574219 15.863281 17.035156 15.386719 16.992188 C 14.273438 16.890625 10.414062 22.464844 7.308594 27.878906 C 5.84375 28.316406 4.382812 28.839844 3.03125 29.453125 C 2.132812 29.859375 2.308594 30.605469 2.386719 30.988281 C 2.5 31.523438 3.082031 31.761719 3.542969 31.5 C 4.242188 31.101562 5.046875 30.730469 5.90625 30.382812 C 5.878906 30.4375 5.867188 30.46875 5.878906 30.464844 C 4.703125 32.679688 3.378906 35.773438 2.949219 37.148438 C 2.707031 37.914062 3.089844 38.601562 3.75 38.902344 C 4.410156 39.199219 4.859375 38.882812 5.082031 37.851562 C 5.355469 36.574219 7.027344 32.605469 8.714844 29.398438 C 8.714844 29.398438 8.722656 29.386719 8.738281 29.363281 C 9.757812 29.039062 10.785156 28.746094 11.757812 28.488281 C 11.160156 31.015625 11.011719 32.058594 11.019531 32.925781 C 11.027344 33.78125 11.339844 34.777344 12.273438 34.644531 C 13.210938 34.507812 13.054688 33.628906 13.160156 32.816406 C 13.398438 30.953125 13.433594 30.144531 13.875 28.011719 C 13.886719 28.007812 13.898438 27.984375 13.914062 27.949219 C 14.953125 27.703125 15.835938 27.515625 16.457031 27.390625 C 16.367188 27.582031 16.269531 27.789062 16.164062 28.007812 C 15.753906 28.839844 15.3125 29.863281 15.03125 30.605469 C 14.765625 31.34375 14.617188 31.925781 14.578125 32.421875 C 14.488281 33.515625 14.953125 34.101562 15.773438 33.949219 C 16.382812 33.835938 17.320312 33.007812 18.375 31.363281 C 18.253906 31.753906 18.183594 32.078125 18.175781 32.277344 C 18.140625 33.128906 18.5625 33.832031 19.9375 32.898438 C 20.078125 32.804688 20.09375 32.667969 20.097656 32.398438 C 20.171875 31.476562 20.542969 30.257812 21.363281 29.011719 C 22.007812 28.050781 22.460938 27.507812 23.046875 27.25 C 24.089844 26.800781 24.75 26.941406 25.332031 26.238281 C 25.902344 25.550781 24.71875 24.8125 24.195312 24.910156 Z M 12.210938 26.664062 C 11.484375 26.8125 10.714844 26.980469 9.925781 27.171875 C 11.285156 24.746094 12.792969 22.3125 14.199219 20.402344 C 13.5 22.117188 12.796875 24.417969 12.210938 26.664062 "/>
<path style=" stroke:none;fill-rule:nonzero;fill:rgb(100%,100%,100%);fill-opacity:1;" d="M 52.871094 27.644531 C 52.574219 28.132812 52.304688 28.542969 51.921875 28.960938 C 51.574219 29.339844 51.296875 29.492188 51.148438 29.4375 C 50.753906 29.292969 50.976562 28.726562 51.386719 27.890625 C 51.578125 27.5 51.84375 26.992188 52.09375 26.558594 C 52.441406 25.992188 52.511719 25.832031 52.539062 25.628906 C 52.574219 25.339844 52.390625 25.148438 51.851562 24.921875 C 51.507812 24.773438 51.476562 24.742188 51.339844 24.34375 C 51.140625 23.855469 50.722656 23.613281 50.214844 23.683594 C 49.441406 23.789062 48.222656 24.730469 47.152344 26.058594 C 46.757812 26.503906 45.417969 28.304688 45.253906 28.535156 L 45.042969 28.8125 C 44.460938 29.609375 44.296875 29.800781 44.035156 30.085938 C 43.78125 30.339844 43.570312 30.484375 43.429688 30.503906 C 43.324219 30.519531 43.285156 30.441406 43.300781 30.304688 C 43.328125 30.101562 43.414062 29.824219 43.597656 29.464844 C 43.902344 28.855469 44.378906 27.957031 44.746094 27.351562 C 44.949219 26.992188 45.300781 26.335938 45.328125 26.265625 L 45.527344 25.921875 C 46.03125 25.015625 45.257812 24.574219 44.671875 24.621094 C 44.445312 24.640625 44.0625 24.808594 43.871094 24.949219 C 43.71875 25.054688 43.699219 25.089844 43.65625 25.296875 C 43.605469 25.554688 43.261719 26.308594 42.898438 26.976562 C 42.449219 27.789062 41.960938 28.789062 41.640625 29.519531 C 41.34375 30.242188 41.164062 30.820312 41.101562 31.308594 C 40.964844 32.398438 41.394531 33.007812 42.21875 32.890625 C 42.835938 32.804688 43.496094 32.21875 44.304688 31.289062 C 44.5625 30.988281 44.851562 30.585938 45.125 30.160156 C 44.976562 31.371094 45.582031 32.207031 46.609375 32.0625 C 47.296875 31.96875 47.875 31.464844 48.617188 30.640625 C 48.71875 30.542969 48.757812 30.507812 48.808594 30.5 C 48.863281 30.492188 48.90625 30.535156 48.914062 30.636719 L 48.949219 30.746094 C 49.050781 31.296875 49.46875 31.558594 50.066406 31.476562 C 50.804688 31.375 51.613281 30.824219 52.5 29.703125 C 53.21875 28.820312 53.503906 28.171875 53.652344 27.769531 C 53.824219 27.308594 53.175781 27.144531 52.871094 27.644531 Z M 48.65625 29.128906 C 48.136719 29.820312 47.652344 30.253906 47.371094 30.292969 C 47.195312 30.316406 47.09375 30.148438 47.128906 29.890625 C 47.207031 29.265625 48.222656 27.367188 48.980469 26.429688 C 49.496094 25.773438 50.039062 25.316406 50.285156 25.28125 C 50.476562 25.257812 50.550781 25.363281 50.519531 25.617188 C 50.445312 26.175781 49.359375 28.230469 48.65625 29.128906 "/>
<path style=" stroke:none;fill-rule:nonzero;fill:rgb(100%,100%,100%);fill-opacity:1;" d="M 45.820312 23.460938 C 46.492188 23.335938 47.082031 22.710938 47.132812 22.0625 C 47.183594 21.417969 46.679688 20.996094 46.007812 21.121094 C 45.335938 21.246094 44.75 21.871094 44.699219 22.519531 C 44.648438 23.164062 45.148438 23.585938 45.820312 23.460938 "/>
<path style=" stroke:none;fill-rule:nonzero;fill:rgb(100%,100%,100%);fill-opacity:1;" d="M 35.964844 26.246094 C 35.871094 26.261719 35.773438 26.273438 35.675781 26.289062 C 36.664062 22.160156 36.582031 22.777344 37.605469 20.132812 C 38.105469 18.84375 38.050781 18.546875 37.628906 18.0625 C 37.207031 17.574219 37.28125 17.035156 36.804688 16.992188 C 35.691406 16.890625 31.847656 22.4375 28.746094 27.84375 C 27.289062 28.28125 25.824219 28.808594 24.480469 29.445312 C 23.640625 29.84375 23.8125 30.589844 23.890625 30.972656 C 24.003906 31.507812 24.550781 31.75 24.984375 31.496094 C 25.675781 31.085938 26.480469 30.699219 27.339844 30.34375 C 27.300781 30.425781 24.980469 35.027344 24.363281 37.148438 C 24.140625 37.917969 24.507812 38.601562 25.167969 38.902344 C 25.824219 39.199219 26.273438 38.882812 26.496094 37.851562 C 26.773438 36.574219 28.980469 31.441406 30.183594 29.308594 C 31.207031 28.980469 32.226562 28.691406 33.175781 28.441406 C 33.175781 28.460938 32.4375 31.417969 32.433594 32.925781 C 32.433594 33.78125 32.757812 34.777344 33.691406 34.644531 C 34.625 34.507812 34.472656 33.628906 34.578125 32.816406 C 34.816406 30.953125 34.851562 30.144531 35.289062 28.011719 C 35.304688 28.007812 35.324219 27.96875 35.34375 27.910156 C 35.589844 27.851562 35.824219 27.800781 36.042969 27.753906 C 37.210938 27.496094 37.542969 27.507812 37.621094 26.589844 C 37.667969 26.023438 36.367188 26.183594 35.964844 26.246094 Z M 35.613281 20.402344 C 34.914062 22.113281 34.214844 24.410156 33.632812 26.652344 C 32.914062 26.792969 32.152344 26.953125 31.355469 27.144531 C 32.714844 24.726562 34.214844 22.304688 35.613281 20.402344 "/>
<path style=" stroke:none;fill-rule:nonzero;fill:rgb(100%,100%,100%);fill-opacity:1;" d="M 37.445312 33.738281 C 36.84375 33.804688 35.523438 33.503906 35.304688 32.449219 C 35.226562 32.105469 35.722656 31.191406 35.828125 31.03125 C 36.007812 30.757812 36.28125 30.917969 36.375 31.058594 C 36.582031 31.363281 37.695312 32.355469 38.339844 31.714844 C 38.75 31.300781 38.109375 30.757812 37.84375 30.316406 C 36.851562 28.683594 38.1875 26.792969 38.609375 26.375 C 39.523438 25.476562 40.164062 25.394531 40.617188 25.382812 C 41.917969 25.339844 42.367188 26.074219 42.273438 26.511719 C 42.164062 26.988281 41.90625 27.269531 41.734375 27.457031 C 41.605469 27.59375 41.242188 27.632812 41.125 27.464844 C 40.851562 27.058594 40.6875 26.519531 39.886719 26.84375 C 39.242188 27.101562 39.207031 27.980469 39.34375 28.40625 C 39.570312 29.09375 40.480469 29.609375 40.472656 30.597656 C 40.453125 33.148438 38.214844 33.65625 37.445312 33.738281 "/>
</g>
</svg>
