<?xml version="1.0" encoding="UTF-8"?>
<svg xmlns="http://www.w3.org/2000/svg" xmlns:xlink="http://www.w3.org/1999/xlink" width="56pt" height="56pt" viewBox="0 0 56 56" version="1.1">
<g id="surface1">
<rect x="0" y="0" width="56" height="56" style="fill:rgb(30.938721%,57.38678%,82.492065%);fill-opacity:1;stroke:none;"/>
<path style=" stroke:none;fill-rule:nonzero;fill:rgb(85.826111%,11.677551%,14.805603%);fill-opacity:1;" d="M 6.101562 45.058594 C 8.984375 37.492188 18.59375 30.027344 27.359375 29.675781 L 30.722656 27.285156 L 30.722656 30.046875 C 30.722656 30.046875 44.777344 31.726562 43.9375 46.140625 C 43.9375 46.140625 37.8125 34.789062 32.34375 34.910156 C 28.5625 34.429688 26.339844 42.71875 25.800781 45.660156 C 25.800781 45.660156 25.980469 40.738281 25.039062 41.15625 C 23.277344 41.941406 22.136719 44.460938 20.15625 47.042969 C 21.625 44.261719 25.582031 35.992188 24.296875 35.390625 C 18.53125 33.710938 6.101562 45.058594 6.101562 45.058594 "/>
<path style=" stroke:none;fill-rule:nonzero;fill:rgb(92.079163%,91.984558%,91.577148%);fill-opacity:1;" d="M 49.898438 10.9375 C 47.015625 18.507812 37.40625 25.972656 28.640625 26.324219 L 25.277344 28.714844 L 25.277344 25.953125 C 25.277344 25.953125 11.222656 24.273438 12.0625 9.859375 C 12.0625 9.859375 18.1875 21.210938 23.65625 21.089844 C 27.4375 21.570312 29.660156 13.28125 30.199219 10.339844 C 30.199219 10.339844 30.019531 15.261719 30.964844 14.84375 C 32.722656 14.058594 33.863281 11.539062 35.84375 8.957031 C 34.371094 11.738281 30.417969 20.007812 31.703125 20.609375 C 37.46875 22.289062 49.898438 10.9375 49.898438 10.9375 "/>
</g>
</svg>
