<?xml version="1.0" encoding="UTF-8"?>
<svg xmlns="http://www.w3.org/2000/svg" xmlns:xlink="http://www.w3.org/1999/xlink" width="56pt" height="56pt" viewBox="0 0 56 56" version="1.1">
<g id="surface1">
<rect x="0" y="0" width="56" height="56" style="fill:rgb(95.666504%,95.776367%,96.775818%);fill-opacity:1;stroke:none;"/>
<path style=" stroke:none;fill-rule:nonzero;fill:rgb(16.143799%,34.811401%,66.363525%);fill-opacity:1;" d="M 30.855469 39.347656 C 30.855469 37.476562 28.546875 37.039062 28.546875 34.726562 C 28.546875 32.417969 33.445312 29.574219 33.445312 29.574219 L 33.570312 29.703125 L 13.527344 9.441406 L 8.007812 9.441406 L 8.007812 45.382812 L 23.796875 45.382812 C 23.796875 45.382812 30.855469 42.816406 30.855469 39.347656 "/>
<path style=" stroke:none;fill-rule:nonzero;fill:rgb(96.542358%,90.089417%,15.344238%);fill-opacity:1;" d="M 23.820312 45.382812 C 23.820312 45.382812 30.878906 42.816406 30.878906 39.347656 C 30.878906 37.476562 28.570312 37.039062 28.570312 34.726562 C 28.570312 32.417969 33.464844 29.574219 33.464844 29.574219 L 34.296875 30.410156 C 34.296875 30.410156 31.648438 31.238281 31.648438 34.214844 C 31.648438 36.140625 34.984375 35.5 34.984375 38.195312 C 34.984375 40.890625 26.128906 45.382812 26.128906 45.382812 L 23.820312 45.382812 "/>
<path style=" stroke:none;fill-rule:nonzero;fill:rgb(100%,100%,100%);fill-opacity:1;" d="M 13.140625 16.875 L 13.914062 19.644531 L 16.269531 20.835938 L 14.59375 21.167969 L 15.390625 24.203125 L 13.277344 21.59375 L 11.539062 22.660156 L 11.988281 20.539062 L 10.285156 17.78125 L 12.273438 18.828125 L 13.140625 16.875 "/>
<path style=" stroke:none;fill-rule:nonzero;fill:rgb(100%,100%,100%);fill-opacity:1;" d="M 24.78125 23.6875 L 25.179688 25.117188 L 26.398438 25.734375 L 25.53125 25.90625 L 25.941406 27.472656 L 24.851562 26.125 L 23.953125 26.679688 L 24.183594 25.582031 L 23.304688 24.15625 L 24.332031 24.695312 L 24.78125 23.6875 "/>
<path style=" stroke:none;fill-rule:nonzero;fill:rgb(100%,100%,100%);fill-opacity:1;" d="M 20.28125 26.148438 L 20.796875 28.007812 L 22.378906 28.808594 L 21.253906 29.03125 L 21.789062 31.070312 L 20.371094 29.316406 L 19.203125 30.035156 L 19.503906 28.609375 L 18.363281 26.757812 L 19.695312 27.460938 L 20.28125 26.148438 "/>
<path style=" stroke:none;fill-rule:nonzero;fill:rgb(100%,100%,100%);fill-opacity:1;" d="M 14.167969 29.582031 L 14.847656 31.671875 L 17.050781 31.671875 L 15.269531 32.96875 L 15.949219 35.0625 L 14.167969 33.769531 L 12.390625 35.0625 L 13.070312 32.96875 L 11.289062 31.671875 L 13.488281 31.671875 L 14.167969 29.582031 "/>
<path style=" stroke:none;fill-rule:nonzero;fill:rgb(100%,100%,100%);fill-opacity:1;" d="M 25.035156 31.84375 L 25.21875 33.140625 L 26.515625 33.308594 L 25.339844 33.882812 L 25.582031 35.167969 L 24.671875 34.226562 L 23.523438 34.851562 L 24.136719 33.699219 L 23.1875 32.800781 L 24.476562 33.027344 L 25.035156 31.84375 "/>
<path style=" stroke:none;fill-rule:nonzero;fill:rgb(17.233276%,63.124084%,26.818848%);fill-opacity:1;" d="M 34.09375 30.226562 L 34.273438 30.410156 C 34.273438 30.410156 31.628906 31.238281 31.628906 34.214844 C 31.628906 36.140625 34.964844 35.5 34.964844 38.195312 C 34.964844 40.890625 26.105469 45.382812 26.105469 45.382812 L 49.085938 45.382812 L 34.09375 30.226562 "/>
</g>
</svg>
