<?xml version="1.0" encoding="UTF-8"?>
<svg xmlns="http://www.w3.org/2000/svg" xmlns:xlink="http://www.w3.org/1999/xlink" width="56pt" height="56pt" viewBox="0 0 56 56" version="1.1">
<g id="surface1">
<rect x="0" y="0" width="56" height="56" style="fill:rgb(95.66803%,95.779419%,96.777344%);fill-opacity:1;stroke:none;"/>
<path style=" stroke:none;fill-rule:nonzero;fill:rgb(25.541687%,33.570862%,67.434692%);fill-opacity:1;" d="M 28 5.320312 C 15.445312 5.320312 5.289062 15.460938 5.289062 28 C 5.289062 40.539062 15.445312 50.679688 28 50.679688 C 40.554688 50.679688 50.710938 40.539062 50.710938 28 C 50.710938 15.542969 40.554688 5.320312 28 5.320312 Z M 28 7.636719 C 39.277344 7.636719 48.390625 16.738281 48.390625 28 C 48.390625 39.261719 39.277344 48.363281 28 48.363281 C 16.722656 48.363281 7.609375 39.261719 7.609375 28 C 7.609375 16.738281 16.722656 7.636719 28 7.636719 "/>
<path style=" stroke:none;fill-rule:nonzero;fill:rgb(94.107056%,75.242615%,19.53125%);fill-opacity:1;" d="M 41.515625 38.859375 L 32.558594 30.714844 C 32.398438 30.554688 32.160156 30.554688 32 30.714844 L 31.839844 30.875 C 31.839844 30.875 31.839844 30.875 31.757812 30.957031 C 31.679688 30.957031 31.597656 31.035156 31.519531 31.035156 C 31.4375 31.035156 31.359375 31.035156 31.277344 31.035156 C 31.199219 31.035156 31.199219 31.035156 31.117188 30.957031 L 31.039062 30.875 C 30.960938 30.792969 30.960938 30.792969 30.960938 30.714844 C 30.960938 30.636719 30.878906 30.636719 30.878906 30.554688 C 30.878906 30.476562 30.878906 30.394531 30.878906 30.316406 C 30.878906 30.234375 30.960938 30.15625 30.960938 30.15625 C 30.960938 30.15625 30.960938 30.15625 31.039062 30.078125 L 31.199219 29.917969 C 31.359375 29.757812 31.359375 29.519531 31.199219 29.355469 L 30.320312 28.480469 C 30.160156 28.320312 29.917969 28.320312 29.757812 28.480469 L 27.359375 30.875 C 26.722656 31.433594 25.921875 32.074219 25.203125 32.632812 C 24.480469 33.191406 23.84375 33.667969 23.121094 34.148438 C 22.960938 34.230469 22.882812 34.46875 22.960938 34.628906 C 23.441406 35.746094 23.921875 36.863281 24.480469 37.980469 C 24.5625 38.144531 24.480469 38.300781 24.402344 38.382812 L 23.84375 38.941406 C 23.84375 38.941406 23.761719 39.019531 23.601562 39.019531 C 23.523438 39.019531 23.441406 38.941406 23.441406 38.941406 L 22.082031 37.582031 C 21.921875 37.421875 21.683594 37.421875 21.523438 37.582031 L 21.28125 37.824219 C 21.121094 37.980469 20.882812 37.980469 20.722656 37.824219 C 20.242188 37.421875 19.765625 36.945312 19.203125 36.386719 C 18.722656 35.90625 18.242188 35.347656 17.765625 34.867188 C 17.605469 34.707031 17.605469 34.46875 17.765625 34.308594 L 18.003906 34.070312 C 18.164062 33.910156 18.164062 33.667969 18.003906 33.511719 L 16.886719 32.394531 C 16.804688 32.3125 16.722656 32.152344 16.804688 32.074219 C 16.804688 31.992188 16.886719 31.914062 16.886719 31.832031 C 16.886719 31.832031 16.886719 31.832031 16.964844 31.753906 L 17.285156 31.433594 C 17.363281 31.355469 17.523438 31.273438 17.683594 31.355469 L 21.203125 32.792969 C 21.363281 32.871094 21.601562 32.792969 21.683594 32.632812 C 22.164062 31.992188 22.644531 31.273438 23.203125 30.554688 C 23.761719 29.835938 24.320312 29.117188 24.882812 28.480469 L 27.28125 26.082031 C 27.441406 25.921875 27.441406 25.683594 27.28125 25.523438 L 26.402344 24.644531 C 26.242188 24.484375 26 24.484375 25.839844 24.644531 L 25.761719 24.726562 C 25.679688 24.804688 25.601562 24.886719 25.519531 24.886719 C 25.441406 24.886719 25.359375 24.964844 25.359375 24.964844 C 25.203125 25.042969 25.042969 24.964844 24.960938 24.886719 C 24.882812 24.804688 24.800781 24.644531 24.882812 24.484375 C 24.882812 24.40625 24.960938 24.40625 24.960938 24.328125 C 25.042969 24.246094 25.042969 24.167969 25.121094 24.085938 L 25.203125 24.007812 C 25.359375 23.847656 25.359375 23.605469 25.203125 23.449219 C 22.402344 20.414062 19.601562 17.378906 16.804688 14.34375 C 16.804688 14.34375 16.804688 14.34375 16.722656 14.265625 C 16.484375 13.945312 16.566406 13.464844 16.804688 13.144531 C 17.125 12.828125 17.523438 12.746094 17.925781 12.984375 C 17.925781 12.984375 17.925781 12.984375 18.003906 12.984375 C 21.203125 15.460938 24.402344 18.015625 27.679688 20.492188 C 27.839844 20.652344 28.082031 20.574219 28.160156 20.492188 L 29.199219 19.453125 C 29.199219 19.453125 29.199219 19.453125 29.28125 19.453125 C 29.359375 19.375 29.441406 19.375 29.519531 19.292969 C 29.597656 19.214844 29.757812 19.214844 29.839844 19.136719 C 29.917969 19.136719 30.160156 19.136719 30.398438 19.292969 C 30.640625 19.535156 30.640625 19.855469 30.558594 19.933594 C 30.558594 20.09375 30.480469 20.171875 30.480469 20.253906 C 30.398438 20.414062 30.320312 20.492188 30.238281 20.492188 L 29.199219 21.53125 C 29.039062 21.691406 29.039062 21.929688 29.199219 22.089844 L 29.917969 22.808594 C 30.078125 22.96875 30.320312 22.96875 30.480469 22.808594 L 33.675781 19.613281 C 34.078125 19.292969 34.636719 18.894531 35.277344 18.578125 C 35.675781 18.335938 36.71875 17.9375 37.035156 17.9375 C 37.195312 17.9375 37.355469 17.9375 37.515625 18.015625 C 37.757812 18.175781 37.757812 18.734375 37.515625 19.375 C 37.4375 19.613281 37.355469 19.855469 37.195312 20.09375 C 36.878906 20.8125 36.476562 21.453125 36.078125 21.929688 L 32.796875 25.203125 C 32.636719 25.363281 32.636719 25.605469 32.796875 25.765625 L 33.597656 26.5625 C 33.757812 26.722656 33.996094 26.722656 34.15625 26.5625 L 35.199219 25.523438 C 35.277344 25.445312 35.355469 25.445312 35.4375 25.363281 C 35.515625 25.285156 35.675781 25.285156 35.757812 25.203125 C 35.757812 25.203125 36.078125 25.042969 36.316406 25.285156 C 36.554688 25.445312 36.636719 25.683594 36.476562 26.003906 C 36.476562 26.082031 36.398438 26.164062 36.398438 26.242188 C 36.316406 26.402344 36.238281 26.480469 36.238281 26.5625 C 36.238281 26.5625 36.238281 26.5625 36.15625 26.640625 C 35.835938 26.960938 35.515625 27.28125 35.117188 27.679688 C 34.957031 27.839844 34.957031 28.082031 35.117188 28.238281 C 37.597656 31.355469 39.996094 34.46875 42.472656 37.664062 C 42.792969 37.980469 42.792969 38.542969 42.554688 38.859375 C 42.554688 39.101562 41.992188 39.179688 41.515625 38.859375 Z M 28 7.636719 C 16.722656 7.636719 7.609375 16.738281 7.609375 28 C 7.609375 39.261719 16.722656 48.363281 28 48.363281 C 39.277344 48.363281 48.390625 39.261719 48.390625 28 C 48.472656 16.738281 39.277344 7.636719 28 7.636719 "/>
<path style=" stroke:none;fill-rule:nonzero;fill:rgb(25.541687%,33.570862%,67.434692%);fill-opacity:1;" d="M 20.242188 37.421875 C 18.164062 39.417969 16.085938 41.417969 14.085938 43.492188 C 13.527344 43.015625 13.046875 42.457031 12.484375 41.976562 C 14.566406 39.980469 16.566406 37.980469 18.644531 35.90625 C 19.125 36.464844 19.683594 36.945312 20.242188 37.421875 "/>
</g>
</svg>
