<?xml version="1.0" encoding="UTF-8"?>
<svg xmlns="http://www.w3.org/2000/svg" xmlns:xlink="http://www.w3.org/1999/xlink" width="56pt" height="56pt" viewBox="0 0 56 56" version="1.1">
<g id="surface1">
<rect x="0" y="0" width="56" height="56" style="fill:rgb(95.986938%,57.920837%,9.291077%);fill-opacity:1;stroke:none;"/>
<path style=" stroke:none;fill-rule:nonzero;fill:rgb(100%,100%,100%);fill-opacity:1;" d="M 21.707031 25.101562 L 20.707031 25.101562 C 18.710938 25.101562 17.511719 24.101562 17.511719 21.90625 L 17.511719 20.507812 C 17.511719 18.308594 18.710938 17.109375 20.707031 17.109375 L 21.90625 17.109375 L 21.90625 11.515625 C 21.90625 9.316406 23.105469 8.320312 25.101562 8.320312 L 28.5 8.320312 C 30.699219 8.320312 31.898438 9.316406 31.898438 11.515625 L 31.898438 17.109375 L 34.894531 17.109375 C 36.890625 17.109375 38.089844 18.308594 38.089844 20.507812 L 38.089844 21.90625 C 38.089844 24.101562 36.890625 25.101562 34.894531 25.101562 L 31.898438 25.101562 L 31.898438 34.492188 C 31.898438 37.089844 33.492188 38.089844 35.292969 38.488281 C 37.691406 38.6875 38.488281 39.488281 38.488281 41.6875 L 38.488281 44.484375 C 38.488281 46.878906 36.890625 47.679688 34.292969 47.679688 C 29.898438 47.679688 21.707031 45.484375 21.707031 36.488281 L 21.707031 25.101562 "/>
</g>
</svg>
