<?xml version="1.0" encoding="UTF-8"?>
<svg xmlns="http://www.w3.org/2000/svg" xmlns:xlink="http://www.w3.org/1999/xlink" width="56pt" height="56pt" viewBox="0 0 56 56" version="1.1">
<g id="surface1">
<rect x="0" y="0" width="56" height="56" style="fill:rgb(85.646057%,14.735413%,14.271545%);fill-opacity:1;stroke:none;"/>
<path style=" stroke:none;fill-rule:nonzero;fill:rgb(100%,100%,100%);fill-opacity:1;" d="M 42.191406 30.710938 C 42.742188 30.734375 43.359375 30.605469 43.730469 30.164062 C 43.21875 30.34375 42.707031 30.535156 42.191406 30.710938 Z M 43.957031 29.273438 C 43.996094 29.585938 43.9375 29.910156 43.734375 30.160156 C 44.253906 29.957031 44.769531 29.753906 45.277344 29.539062 C 45.308594 29.28125 45.285156 29.023438 45.230469 28.769531 C 44.808594 28.941406 44.386719 29.109375 43.957031 29.273438 M 39.683594 24.640625 C 40.175781 24.082031 40.925781 23.835938 41.652344 23.785156 C 42.542969 23.722656 43.507812 23.847656 44.234375 24.414062 C 44.703125 24.769531 44.902344 25.359375 44.996094 25.917969 C 44.574219 25.980469 44.148438 26.042969 43.71875 26.101562 C 43.664062 25.746094 43.519531 25.386719 43.222656 25.164062 C 42.816406 24.855469 42.28125 24.828125 41.789062 24.855469 C 41.382812 24.882812 40.933594 24.972656 40.640625 25.285156 C 40.382812 25.546875 40.347656 26.011719 40.59375 26.292969 C 40.753906 26.488281 40.996094 26.574219 41.226562 26.652344 C 42.03125 26.917969 42.867188 27.085938 43.671875 27.351562 C 43.992188 27.460938 44.320312 27.570312 44.585938 27.785156 C 44.90625 28.027344 45.132812 28.382812 45.234375 28.769531 C 46.039062 28.441406 46.832031 28.085938 47.617188 27.71875 C 47.871094 27.828125 48.128906 27.953125 48.402344 27.996094 C 48.507812 27.976562 48.59375 27.910156 48.683594 27.859375 C 49.101562 27.613281 49.523438 27.363281 49.925781 27.089844 L 49.949219 27.152344 C 49.949219 27.089844 49.949219 27.027344 49.953125 26.960938 L 49.933594 27.039062 C 49.722656 26.980469 49.511719 26.925781 49.300781 26.867188 C 49.886719 26.546875 50.460938 26.214844 51.023438 25.855469 C 50.933594 25.589844 50.796875 25.328125 50.5625 25.160156 C 50.167969 24.863281 49.648438 24.828125 49.175781 24.855469 C 48.773438 24.878906 48.339844 24.953125 48.035156 25.242188 C 47.792969 25.457031 47.710938 25.828125 47.839844 26.125 C 47.925781 26.332031 48.117188 26.476562 48.324219 26.558594 C 48.640625 26.683594 48.972656 26.773438 49.296875 26.871094 C 48.742188 27.164062 48.179688 27.445312 47.617188 27.71875 C 47.375 27.582031 47.144531 27.417969 46.96875 27.199219 C 46.375 26.484375 46.410156 25.339844 47.027344 24.652344 C 47.449219 24.167969 48.078125 23.90625 48.707031 23.820312 C 49.363281 23.734375 50.046875 23.753906 50.683594 23.949219 C 51.25 24.125 51.792969 24.464844 52.070312 25.003906 C 52.074219 25.066406 52.074219 25.128906 52.078125 25.191406 L 52.039062 25.160156 C 51.710938 25.410156 51.363281 25.632812 51.019531 25.859375 C 51.035156 25.941406 51.054688 26.023438 51.074219 26.101562 C 51.167969 26.089844 51.269531 26.074219 51.367188 26.0625 C 51.039062 26.316406 50.707031 26.558594 50.367188 26.796875 C 50.238281 26.882812 50.117188 26.984375 49.964844 27.015625 C 50.558594 27.253906 51.210938 27.339844 51.769531 27.667969 C 52.199219 27.929688 52.515625 28.371094 52.605469 28.871094 C 52.714844 29.488281 52.601562 30.160156 52.21875 30.667969 C 51.742188 31.324219 50.949219 31.664062 50.160156 31.753906 C 49.242188 31.851562 48.242188 31.789062 47.453125 31.265625 C 46.800781 30.832031 46.445312 30.078125 46.316406 29.324219 C 46.742188 29.261719 47.167969 29.203125 47.59375 29.140625 C 47.648438 29.464844 47.742188 29.789062 47.945312 30.050781 C 48.414062 30.675781 49.28125 30.78125 50.007812 30.691406 C 50.386719 30.644531 50.777344 30.5 51.039062 30.210938 C 51.300781 29.941406 51.394531 29.515625 51.253906 29.160156 C 51.148438 28.914062 50.914062 28.757812 50.667969 28.671875 C 50.015625 28.425781 49.324219 28.304688 48.660156 28.09375 C 48.578125 28.070312 48.492188 28.039062 48.40625 28.03125 C 48.28125 28.066406 48.171875 28.144531 48.054688 28.207031 C 47.15625 28.695312 46.226562 29.132812 45.285156 29.535156 C 45.242188 29.972656 45.089844 30.40625 44.808594 30.75 C 44.328125 31.34375 43.574219 31.660156 42.828125 31.75 C 41.953125 31.851562 41.019531 31.789062 40.238281 31.34375 C 38.152344 31.972656 36.054688 32.570312 33.941406 33.113281 C 29.40625 34.273438 24.835938 35.398438 20.164062 35.824219 C 18.144531 36.003906 16.117188 36.160156 14.089844 36.25 L 10.839844 36.25 C 9.070312 36.171875 7.300781 35.960938 5.574219 35.558594 C 4.539062 35.296875 3.464844 34.867188 2.816406 33.972656 C 3.253906 34.273438 3.742188 34.488281 4.238281 34.664062 C 5.175781 34.988281 6.148438 35.1875 7.125 35.332031 C 8.722656 35.554688 10.339844 35.621094 11.953125 35.613281 C 15.359375 35.582031 18.757812 35.214844 22.121094 34.691406 C 24.652344 34.296875 27.167969 33.816406 29.671875 33.269531 C 31.777344 32.816406 33.863281 32.296875 35.953125 31.785156 C 37.167969 31.480469 38.375 31.136719 39.574219 30.773438 C 39.765625 30.996094 39.988281 31.1875 40.238281 31.34375 C 40.886719 31.140625 41.527344 30.929688 42.167969 30.71875 C 41.722656 30.710938 41.269531 30.609375 40.898438 30.355469 C 40.457031 30.488281 40.015625 30.632812 39.574219 30.773438 C 39.246094 30.351562 39.054688 29.84375 38.964844 29.324219 C 39.390625 29.261719 39.816406 29.203125 40.242188 29.140625 C 40.308594 29.605469 40.507812 30.070312 40.894531 30.355469 C 41.917969 30.023438 42.933594 29.652344 43.953125 29.285156 C 43.839844 28.882812 43.4375 28.683594 43.066406 28.582031 C 42.34375 28.355469 41.601562 28.207031 40.886719 27.964844 C 40.59375 27.863281 40.292969 27.757812 40.035156 27.582031 C 39.652344 27.320312 39.359375 26.921875 39.25 26.46875 C 39.101562 25.835938 39.238281 25.125 39.683594 24.640625 "/>
<path style=" stroke:none;fill-rule:nonzero;fill:rgb(100%,100%,100%);fill-opacity:1;" d="M 52.09375 25.144531 C 52.664062 24.699219 53.230469 24.25 53.757812 23.75 C 53.238281 24.277344 52.738281 24.824219 52.203125 25.335938 C 52.175781 25.289062 52.121094 25.191406 52.09375 25.144531 "/>
<path style=" stroke:none;fill-rule:nonzero;fill:rgb(100%,100%,100%);fill-opacity:1;" d="M 4.382812 25.382812 C 3.910156 25.792969 3.679688 26.421875 3.644531 27.039062 C 5.066406 27.039062 6.488281 27.039062 7.910156 27.039062 C 7.863281 26.566406 7.765625 26.078125 7.488281 25.683594 C 7.226562 25.328125 6.851562 25.050781 6.421875 24.929688 C 5.726562 24.734375 4.917969 24.878906 4.382812 25.382812 Z M 4.238281 24.101562 C 4.933594 23.777344 5.730469 23.703125 6.480469 23.828125 C 7.445312 23.992188 8.3125 24.621094 8.773438 25.480469 C 9.199219 26.28125 9.292969 27.214844 9.257812 28.113281 C 7.359375 28.113281 5.464844 28.109375 3.566406 28.113281 C 3.601562 28.605469 3.691406 29.109375 3.925781 29.550781 C 4.222656 30.128906 4.792969 30.5625 5.433594 30.679688 C 5.957031 30.773438 6.53125 30.707031 6.980469 30.402344 C 7.429688 30.105469 7.707031 29.617188 7.886719 29.121094 C 8.328125 29.179688 8.769531 29.242188 9.210938 29.300781 C 9.015625 30.027344 8.625 30.726562 8.003906 31.167969 C 7.199219 31.746094 6.15625 31.875 5.195312 31.746094 C 4.3125 31.628906 3.472656 31.15625 2.949219 30.429688 C 2.460938 29.761719 2.28125 28.925781 2.242188 28.113281 L 2.242188 27.566406 C 2.277344 26.945312 2.375 26.316406 2.632812 25.742188 C 2.945312 25.027344 3.535156 24.4375 4.238281 24.101562 "/>
<path style=" stroke:none;fill-rule:nonzero;fill:rgb(100%,100%,100%);fill-opacity:1;" d="M 21.164062 24.828125 C 20.605469 24.9375 20.15625 25.355469 19.859375 25.824219 C 19.425781 26.550781 19.367188 27.425781 19.414062 28.25 C 19.457031 28.964844 19.644531 29.730469 20.199219 30.222656 C 20.632812 30.636719 21.277344 30.816406 21.859375 30.667969 C 22.339844 30.550781 22.742188 30.214844 23.015625 29.8125 C 23.34375 29.320312 23.453125 28.722656 23.492188 28.144531 C 23.519531 27.558594 23.496094 26.960938 23.339844 26.390625 C 23.21875 25.953125 22.984375 25.542969 22.636719 25.246094 C 22.242188 24.894531 21.6875 24.734375 21.164062 24.828125 Z M 20.363281 24.058594 C 20.898438 23.769531 21.53125 23.722656 22.125 23.8125 C 22.886719 23.925781 23.597656 24.351562 24.042969 24.980469 C 24.59375 25.722656 24.816406 26.660156 24.828125 27.574219 C 24.847656 28.515625 24.699219 29.5 24.171875 30.300781 C 23.609375 31.15625 22.648438 31.777344 21.605469 31.792969 C 20.800781 31.835938 20.007812 31.445312 19.503906 30.820312 C 19.503906 32.066406 19.507812 33.3125 19.503906 34.558594 C 19.078125 34.558594 18.652344 34.558594 18.222656 34.558594 C 18.222656 31.019531 18.222656 27.476562 18.222656 23.933594 C 18.621094 23.933594 19.019531 23.933594 19.414062 23.933594 C 19.414062 24.273438 19.414062 24.609375 19.414062 24.949219 C 19.667969 24.59375 19.972656 24.265625 20.363281 24.058594 "/>
<path style=" stroke:none;fill-rule:nonzero;fill:rgb(100%,100%,100%);fill-opacity:1;" d="M 28.726562 23.851562 C 29.339844 23.644531 30.003906 23.863281 30.535156 24.179688 C 30.390625 24.585938 30.25 24.992188 30.097656 25.398438 C 29.769531 25.203125 29.378906 25.082031 28.992188 25.132812 C 28.539062 25.1875 28.121094 25.496094 27.960938 25.925781 C 27.757812 26.46875 27.679688 27.050781 27.679688 27.628906 C 27.675781 28.957031 27.679688 30.28125 27.679688 31.609375 C 27.253906 31.609375 26.828125 31.609375 26.402344 31.609375 C 26.398438 29.050781 26.402344 26.492188 26.398438 23.9375 C 26.789062 23.929688 27.175781 23.933594 27.566406 23.933594 C 27.566406 24.324219 27.566406 24.714844 27.566406 25.109375 C 27.855469 24.617188 28.160156 24.054688 28.726562 23.851562 "/>
<path style=" stroke:none;fill-rule:nonzero;fill:rgb(100%,100%,100%);fill-opacity:1;" d="M 32.957031 25.398438 C 32.496094 25.8125 32.269531 26.429688 32.238281 27.039062 C 33.660156 27.039062 35.082031 27.039062 36.503906 27.035156 C 36.445312 26.464844 36.304688 25.851562 35.875 25.441406 C 35.121094 24.660156 33.738281 24.652344 32.957031 25.398438 Z M 33.585938 23.851562 C 34.277344 23.714844 35.011719 23.742188 35.675781 23.996094 C 36.457031 24.296875 37.117188 24.90625 37.460938 25.667969 C 37.808594 26.429688 37.886719 27.285156 37.847656 28.113281 C 35.953125 28.113281 34.054688 28.109375 32.160156 28.113281 C 32.195312 28.609375 32.289062 29.117188 32.523438 29.5625 C 32.828125 30.136719 33.398438 30.570312 34.039062 30.679688 C 34.574219 30.777344 35.15625 30.699219 35.605469 30.378906 C 36.035156 30.078125 36.300781 29.601562 36.480469 29.121094 C 36.921875 29.179688 37.363281 29.242188 37.804688 29.300781 C 37.609375 30.035156 37.210938 30.738281 36.582031 31.179688 C 35.765625 31.761719 34.703125 31.882812 33.734375 31.738281 C 32.785156 31.597656 31.902344 31.042969 31.402344 30.21875 C 30.960938 29.492188 30.828125 28.621094 30.835938 27.78125 C 30.84375 26.960938 30.980469 26.109375 31.40625 25.394531 C 31.875 24.609375 32.683594 24.03125 33.585938 23.851562 "/>
<path style=" stroke:none;fill-rule:nonzero;fill:rgb(100%,100%,100%);fill-opacity:1;" d="M 10.257812 23.933594 C 10.785156 23.929688 11.308594 23.933594 11.835938 23.929688 C 12.414062 24.796875 12.996094 25.664062 13.542969 26.550781 C 14.152344 25.679688 14.757812 24.804688 15.367188 23.933594 C 15.886719 23.933594 16.40625 23.933594 16.925781 23.933594 C 16.066406 25.136719 15.203125 26.339844 14.339844 27.542969 C 15.277344 28.898438 16.21875 30.253906 17.15625 31.609375 C 16.632812 31.609375 16.105469 31.609375 15.578125 31.609375 C 14.914062 30.597656 14.246094 29.59375 13.585938 28.582031 C 12.921875 29.589844 12.257812 30.601562 11.589844 31.609375 C 11.070312 31.609375 10.546875 31.609375 10.027344 31.609375 C 10.953125 30.277344 11.878906 28.945312 12.804688 27.613281 C 11.957031 26.386719 11.109375 25.160156 10.257812 23.933594 "/>
<path style=" stroke:none;fill-rule:nonzero;fill:rgb(100%,100%,100%);fill-opacity:1;" d="M 51.375 26.058594 C 51.664062 25.835938 51.933594 25.585938 52.203125 25.339844 C 52.261719 25.53125 52.308594 25.722656 52.347656 25.917969 C 52.023438 25.96875 51.699219 26.011719 51.375 26.058594 "/>
</g>
</svg>
