<?xml version="1.0" encoding="UTF-8"?>
<svg xmlns="http://www.w3.org/2000/svg" xmlns:xlink="http://www.w3.org/1999/xlink" width="56pt" height="56pt" viewBox="0 0 56 56" version="1.1">
<g id="surface1">
<rect x="0" y="0" width="56" height="56" style="fill:rgb(95.666504%,95.776367%,96.775818%);fill-opacity:1;stroke:none;"/>
<path style=" stroke:none;fill-rule:nonzero;fill:rgb(9.455872%,11.604309%,20.603943%);fill-opacity:1;" d="M 32.878906 17.054688 C 32.628906 17.277344 32.449219 17.433594 32.261719 17.601562 C 27.835938 15.441406 23.351562 15.167969 18.832031 17.050781 C 14.855469 18.710938 12.015625 21.585938 10.382812 25.578125 C 7.171875 33.429688 10.867188 42.429688 18.578125 45.828125 C 26.632812 49.375 36.617188 45.609375 39.847656 36.410156 C 40.078125 36.410156 40.332031 36.410156 40.601562 36.410156 C 39.59375 40.933594 34.792969 46.828125 27.367188 47.863281 C 19.335938 48.988281 12.5625 44.710938 9.632812 37.898438 C 6.78125 31.257812 8.644531 23.324219 14.550781 18.558594 C 20.160156 14.035156 27.824219 13.953125 32.878906 17.054688 "/>
<path style=" stroke:none;fill-rule:nonzero;fill:rgb(26.409912%,46.607971%,70.675659%);fill-opacity:1;" d="M 22.535156 30.425781 C 31.0625 24.8125 39.34375 18.894531 46.953125 12.015625 C 46.660156 13.488281 46.722656 14.949219 45.316406 16.097656 C 39.367188 20.953125 33.007812 25.148438 26.171875 28.632812 C 25.046875 29.207031 23.921875 29.785156 22.796875 30.359375 C 22.71875 30.398438 22.621094 30.40625 22.535156 30.425781 "/>
<path style=" stroke:none;fill-rule:nonzero;fill:rgb(26.409912%,46.607971%,70.675659%);fill-opacity:1;" d="M 44.820312 7.957031 C 45.800781 7.957031 46.632812 7.957031 47.679688 7.957031 C 40.753906 16.125 32.699219 22.683594 23.957031 28.460938 C 31.429688 22.148438 38.640625 15.578125 44.820312 7.957031 "/>
<path style=" stroke:none;fill-rule:nonzero;fill:rgb(39.498901%,67.111206%,79.917908%);fill-opacity:1;" d="M 45.710938 17.453125 C 45.730469 17.710938 45.769531 17.835938 45.742188 17.945312 C 45.585938 18.652344 45.414062 19.355469 45.234375 20.117188 C 37.695312 24.894531 29.921875 29.171875 21.359375 31.886719 C 29.789062 27.667969 37.882812 22.882812 45.710938 17.453125 "/>
<path style=" stroke:none;fill-rule:nonzero;fill:rgb(26.409912%,46.607971%,70.675659%);fill-opacity:1;" d="M 42.644531 31.8125 C 42.476562 32.613281 42.355469 33.179688 42.222656 33.828125 C 33.273438 35.976562 24.238281 36.890625 15.070312 36.558594 C 24.289062 35.574219 33.429688 34.121094 42.644531 31.8125 "/>
<path style=" stroke:none;fill-rule:nonzero;fill:rgb(26.409912%,46.607971%,70.675659%);fill-opacity:1;" d="M 16.5 35.554688 C 25.566406 34.027344 34.429688 31.71875 43.347656 28.746094 C 43.15625 29.558594 43.011719 30.15625 42.847656 30.832031 C 34.257812 33.546875 25.539062 35.429688 16.5 35.554688 "/>
<path style=" stroke:none;fill-rule:nonzero;fill:rgb(39.498901%,67.111206%,79.917908%);fill-opacity:1;" d="M 17.792969 34.546875 C 26.660156 32.285156 35.242188 29.179688 43.914062 25.738281 C 43.785156 26.492188 43.691406 27.0625 43.582031 27.722656 C 35.234375 31 26.742188 33.617188 17.792969 34.546875 "/>
<path style=" stroke:none;fill-rule:nonzero;fill:rgb(60.067749%,76.339722%,78.189087%);fill-opacity:1;" d="M 19.523438 33.28125 C 28.300781 30.460938 36.566406 26.492188 44.765625 21.945312 C 44.59375 22.804688 44.457031 23.5 44.296875 24.296875 C 36.386719 28.203125 28.34375 31.796875 19.523438 33.28125 "/>
</g>
</svg>
