<?xml version="1.0" encoding="UTF-8"?>
<svg xmlns="http://www.w3.org/2000/svg" xmlns:xlink="http://www.w3.org/1999/xlink" width="56pt" height="56pt" viewBox="0 0 56 56" version="1.1">
<g id="surface1">
<rect x="0" y="0" width="56" height="56" style="fill:rgb(95.666504%,95.776367%,96.775818%);fill-opacity:1;stroke:none;"/>
<path style=" stroke:none;fill-rule:nonzero;fill:rgb(12.080383%,20.306396%,35.079956%);fill-opacity:1;" d="M 17.828125 28.117188 C 17.878906 28.023438 17.878906 27.882812 17.925781 27.738281 C 18.113281 26.886719 18.683594 26.414062 19.488281 26.175781 C 20.007812 26.035156 20.53125 25.984375 21.097656 26.035156 C 21.667969 26.082031 22.1875 26.175781 22.710938 26.367188 C 22.804688 26.414062 22.804688 26.414062 22.804688 26.507812 C 22.710938 26.933594 22.660156 27.40625 22.613281 27.835938 C 22.425781 27.785156 22.1875 27.738281 22 27.691406 C 21.476562 27.550781 20.910156 27.503906 20.386719 27.550781 C 20.199219 27.550781 20.054688 27.597656 19.867188 27.691406 C 19.535156 27.882812 19.441406 28.402344 19.773438 28.6875 C 19.960938 28.828125 20.199219 28.921875 20.433594 29.019531 C 20.910156 29.207031 21.382812 29.300781 21.808594 29.539062 C 22.1875 29.730469 22.566406 29.964844 22.804688 30.34375 C 23.039062 30.675781 23.089844 31.054688 23.136719 31.433594 C 23.136719 32.003906 22.992188 32.523438 22.660156 32.996094 C 22.28125 33.425781 21.808594 33.710938 21.289062 33.804688 C 21.097656 33.851562 20.910156 33.898438 20.671875 33.898438 L 19.914062 33.898438 C 19.773438 33.851562 19.675781 33.851562 19.535156 33.851562 C 19.015625 33.757812 18.492188 33.613281 17.972656 33.378906 C 17.925781 33.332031 17.878906 33.332031 17.878906 33.234375 C 17.972656 32.761719 18.019531 32.335938 18.066406 31.859375 C 18.113281 31.859375 18.160156 31.90625 18.207031 31.90625 C 18.871094 32.238281 19.628906 32.429688 20.386719 32.382812 C 20.578125 32.382812 20.816406 32.335938 21.003906 32.238281 C 21.382812 32.050781 21.574219 31.578125 21.335938 31.246094 C 21.242188 31.101562 21.097656 31.007812 20.957031 30.914062 C 20.625 30.722656 20.292969 30.628906 19.960938 30.535156 C 19.535156 30.394531 19.109375 30.203125 18.730469 29.964844 C 18.492188 29.824219 18.304688 29.585938 18.160156 29.398438 C 18.066406 29.257812 18.019531 29.113281 17.972656 28.921875 C 17.925781 28.640625 17.878906 28.402344 17.878906 28.117188 C 17.878906 28.214844 17.878906 28.164062 17.828125 28.117188 "/>
<path style=" stroke:none;fill-rule:nonzero;fill:rgb(68.174744%,12.408447%,16.186523%);fill-opacity:1;" d="M 9.632812 22.054688 C 10.011719 22.195312 10.203125 22.480469 10.15625 22.859375 L 10.011719 24.28125 C 9.964844 24.800781 9.917969 25.324219 9.824219 25.796875 C 9.777344 26.222656 9.730469 26.699219 9.679688 27.125 C 9.632812 27.597656 9.539062 28.070312 9.492188 28.542969 C 9.445312 29.066406 9.347656 29.585938 9.160156 30.109375 C 8.96875 30.773438 8.6875 31.386719 8.210938 31.90625 C 7.597656 32.570312 6.886719 32.902344 5.984375 32.855469 C 5.132812 32.808594 4.375 32.570312 3.710938 32.097656 C 3.046875 31.625 2.667969 30.960938 2.527344 30.15625 C 2.480469 29.964844 2.480469 29.777344 2.574219 29.636719 C 2.71875 29.398438 3.046875 29.257812 3.332031 29.351562 C 3.523438 29.398438 3.617188 29.539062 3.664062 29.730469 C 3.710938 29.871094 3.710938 30.015625 3.757812 30.109375 C 3.949219 30.722656 4.421875 31.152344 5.039062 31.386719 C 5.371094 31.53125 5.796875 31.625 6.222656 31.578125 C 6.792969 31.53125 7.21875 31.199219 7.5 30.722656 C 7.785156 30.296875 7.976562 29.777344 8.023438 29.257812 C 8.164062 28.402344 8.261719 27.597656 8.355469 26.746094 C 8.402344 26.222656 8.449219 25.703125 8.542969 25.179688 C 8.589844 24.566406 8.636719 23.996094 8.734375 23.382812 C 8.734375 23.144531 8.78125 22.90625 8.78125 22.671875 C 8.828125 22.339844 9.019531 22.148438 9.300781 22.054688 L 9.632812 22.054688 "/>
<path style=" stroke:none;fill-rule:nonzero;fill:rgb(12.080383%,20.306396%,35.079956%);fill-opacity:1;" d="M 53.503906 26.222656 C 53.410156 26.601562 53.316406 27.027344 53.21875 27.40625 C 53.171875 27.503906 53.171875 27.597656 53.171875 27.691406 C 53.171875 27.738281 53.125 27.785156 53.078125 27.785156 L 51.324219 27.785156 C 51.230469 27.785156 51.230469 27.785156 51.230469 27.882812 L 51.230469 33.804688 C 51.230469 33.898438 51.230469 33.898438 51.136719 33.898438 L 49.617188 33.898438 C 49.523438 33.898438 49.523438 33.898438 49.523438 33.804688 L 49.523438 27.882812 C 49.523438 27.785156 49.523438 27.785156 49.429688 27.785156 L 47.722656 27.785156 C 47.675781 27.785156 47.628906 27.785156 47.628906 27.691406 C 47.535156 27.21875 47.394531 26.746094 47.296875 26.320312 C 47.296875 26.222656 47.296875 26.222656 47.34375 26.222656 L 52.175781 26.222656 C 52.554688 26.175781 53.03125 26.175781 53.503906 26.222656 C 53.503906 26.175781 53.503906 26.222656 53.503906 26.222656 "/>
<path style=" stroke:none;fill-rule:nonzero;fill:rgb(12.080383%,20.306396%,35.079956%);fill-opacity:1;" d="M 30.527344 29.113281 C 30.480469 29.113281 30.480469 29.160156 30.480469 29.207031 C 29.910156 30.773438 29.246094 32.285156 28.679688 33.804688 C 28.632812 33.851562 28.632812 33.898438 28.535156 33.898438 L 27.542969 33.898438 C 27.496094 33.898438 27.449219 33.898438 27.449219 33.851562 C 26.925781 32.476562 26.355469 31.101562 25.835938 29.730469 C 25.742188 29.539062 25.695312 29.351562 25.597656 29.160156 C 25.550781 29.207031 25.597656 29.257812 25.597656 29.351562 L 25.597656 33.851562 C 25.597656 33.898438 25.597656 33.945312 25.503906 33.945312 L 24.132812 33.945312 C 24.082031 33.945312 24.035156 33.945312 24.035156 33.851562 L 24.035156 26.320312 C 24.035156 26.269531 24.035156 26.222656 24.132812 26.222656 L 25.882812 26.222656 C 25.929688 26.222656 25.976562 26.222656 25.976562 26.320312 C 26.640625 28.023438 27.351562 29.730469 28.015625 31.433594 C 28.015625 31.433594 28.015625 31.480469 28.0625 31.480469 L 28.109375 31.433594 C 28.679688 29.871094 29.34375 28.308594 29.957031 26.746094 C 30.007812 26.601562 30.101562 26.414062 30.148438 26.269531 C 30.148438 26.222656 30.195312 26.222656 30.242188 26.222656 L 31.996094 26.222656 C 32.089844 26.222656 32.089844 26.269531 32.089844 26.320312 L 32.089844 33.851562 C 32.089844 33.898438 32.089844 33.898438 32.042969 33.898438 L 30.621094 33.898438 C 30.574219 33.898438 30.527344 33.898438 30.527344 33.804688 L 30.527344 29.113281 "/>
<path style=" stroke:none;fill-rule:nonzero;fill:rgb(12.080383%,20.306396%,35.079956%);fill-opacity:1;" d="M 45.023438 29.160156 C 44.929688 29.539062 44.691406 29.730469 44.3125 29.777344 L 42.941406 29.777344 C 42.84375 29.777344 42.84375 29.730469 42.84375 29.679688 L 42.84375 28.6875 C 42.84375 28.355469 42.84375 28.023438 42.941406 27.738281 C 42.941406 27.644531 42.984375 27.644531 43.035156 27.644531 L 44.121094 27.644531 C 44.265625 27.644531 44.359375 27.644531 44.503906 27.691406 C 44.785156 27.785156 44.976562 27.976562 45.023438 28.261719 C 45.070312 28.59375 45.070312 28.875 45.023438 29.160156 Z M 45.496094 30.675781 C 46.113281 30.488281 46.492188 30.015625 46.679688 29.351562 C 46.824219 28.828125 46.824219 28.308594 46.730469 27.785156 C 46.539062 27.125 46.160156 26.648438 45.496094 26.367188 C 45.070312 26.222656 44.644531 26.128906 44.171875 26.128906 L 41.1875 26.128906 C 41.09375 26.128906 41.09375 26.128906 41.09375 26.222656 L 41.09375 33.757812 C 41.09375 33.851562 41.140625 33.851562 41.1875 33.851562 L 42.75 33.851562 C 42.84375 33.851562 42.84375 33.851562 42.84375 33.757812 L 42.84375 31.054688 C 42.84375 30.960938 42.84375 30.960938 42.941406 30.960938 L 43.839844 30.960938 C 43.886719 30.960938 43.886719 31.007812 43.933594 31.054688 C 44.359375 32.003906 44.785156 32.902344 45.214844 33.804688 C 45.261719 33.898438 45.308594 33.898438 45.355469 33.898438 L 47.296875 33.898438 C 46.679688 32.808594 46.113281 31.765625 45.496094 30.675781 "/>
<path style=" stroke:none;fill-rule:nonzero;fill:rgb(12.080383%,20.306396%,35.079956%);fill-opacity:1;" d="M 37.539062 30.960938 C 37.492188 31.007812 37.394531 30.960938 37.300781 30.960938 L 35.59375 30.960938 C 35.878906 29.777344 36.257812 28.640625 36.589844 27.503906 C 36.636719 27.691406 36.683594 27.882812 36.78125 28.070312 C 37.015625 28.972656 37.253906 29.824219 37.492188 30.722656 C 37.492188 30.820312 37.585938 30.914062 37.539062 30.960938 Z M 38.769531 29.445312 C 38.4375 28.402344 38.058594 27.3125 37.679688 26.269531 C 37.632812 26.222656 37.632812 26.222656 37.585938 26.222656 L 35.644531 26.222656 C 35.59375 26.222656 35.546875 26.222656 35.546875 26.269531 C 35.453125 26.601562 35.3125 26.933594 35.21875 27.265625 C 34.554688 29.300781 33.84375 31.339844 33.132812 33.378906 C 33.085938 33.519531 32.988281 33.710938 32.941406 33.898438 L 34.695312 33.898438 C 34.789062 33.898438 34.789062 33.898438 34.789062 33.851562 C 34.933594 33.378906 35.027344 32.953125 35.167969 32.476562 C 35.167969 32.382812 35.21875 32.382812 35.265625 32.382812 L 37.871094 32.382812 C 37.917969 32.382812 37.964844 32.429688 37.964844 32.476562 C 38.105469 32.902344 38.203125 33.378906 38.34375 33.804688 C 38.34375 33.851562 38.390625 33.898438 38.4375 33.898438 L 40.285156 33.898438 L 40.285156 33.804688 C 39.8125 32.382812 39.289062 30.914062 38.769531 29.445312 "/>
<path style=" stroke:none;fill-rule:nonzero;fill:rgb(68.174744%,12.408447%,16.186523%);fill-opacity:1;" d="M 11.292969 28.261719 C 11.386719 27.929688 11.527344 27.550781 11.8125 27.3125 C 11.90625 27.21875 12.003906 27.21875 12.097656 27.171875 C 12.191406 27.171875 12.238281 27.171875 12.285156 27.265625 C 12.335938 27.359375 12.382812 27.503906 12.335938 27.644531 C 12.238281 28.023438 11.8125 28.402344 11.433594 28.402344 C 11.292969 28.402344 11.292969 28.402344 11.292969 28.261719 Z M 18.492188 24.566406 C 18.351562 24.46875 18.207031 24.46875 18.066406 24.46875 L 16.03125 24.46875 C 15.933594 24.46875 15.933594 24.46875 15.933594 24.375 C 15.933594 24.234375 15.980469 24.089844 15.980469 23.949219 C 15.980469 23.761719 16.03125 23.570312 16.03125 23.332031 C 16.03125 23.097656 15.792969 22.859375 15.554688 22.859375 C 15.273438 22.859375 15.035156 23.050781 14.988281 23.285156 L 14.703125 24.421875 C 14.703125 24.46875 14.703125 24.46875 14.65625 24.46875 L 12.570312 24.46875 C 12.335938 24.46875 12.144531 24.707031 12.144531 24.945312 C 12.144531 25.226562 12.382812 25.417969 12.617188 25.417969 L 14.511719 25.417969 C 14.609375 25.417969 14.609375 25.417969 14.609375 25.511719 C 14.511719 25.984375 14.464844 26.414062 14.371094 26.886719 C 14.277344 27.457031 14.179688 28.023438 14.179688 28.59375 C 14.179688 28.640625 14.132812 28.640625 14.132812 28.6875 C 13.898438 28.972656 13.707031 29.257812 13.421875 29.492188 C 13.042969 29.777344 12.664062 30.015625 12.144531 29.964844 C 11.71875 29.917969 11.480469 29.679688 11.339844 29.300781 C 11.339844 29.257812 11.339844 29.257812 11.386719 29.257812 C 11.90625 29.207031 12.335938 28.972656 12.664062 28.59375 C 13.09375 28.164062 13.28125 27.644531 13.234375 27.027344 C 13.1875 26.507812 12.808594 26.175781 12.285156 26.175781 C 11.859375 26.175781 11.480469 26.367188 11.148438 26.699219 C 10.769531 27.078125 10.535156 27.597656 10.390625 28.117188 C 10.390625 28.214844 10.34375 28.214844 10.296875 28.261719 C 9.964844 28.449219 9.917969 28.921875 10.25 29.113281 C 10.296875 29.113281 10.296875 29.160156 10.296875 29.207031 C 10.296875 29.445312 10.34375 29.636719 10.4375 29.824219 C 10.769531 30.722656 11.578125 31.152344 12.523438 30.960938 C 13.042969 30.867188 13.472656 30.582031 13.898438 30.25 L 14.277344 29.871094 C 14.324219 30.015625 14.417969 30.15625 14.464844 30.296875 C 14.703125 30.722656 15.035156 31.007812 15.554688 31.101562 C 16.03125 31.199219 16.503906 31.101562 16.929688 30.820312 C 17.449219 30.535156 17.828125 30.058594 18.113281 29.539062 C 18.066406 29.398438 17.972656 29.257812 17.925781 29.066406 C 17.828125 28.78125 17.78125 28.542969 17.828125 28.261719 C 17.828125 28.214844 17.878906 28.164062 17.828125 28.117188 C 17.78125 28.261719 17.734375 28.355469 17.6875 28.542969 C 17.449219 28.972656 17.214844 29.398438 16.882812 29.730469 C 16.691406 29.917969 16.457031 30.109375 16.171875 30.15625 C 15.839844 30.203125 15.652344 30.109375 15.507812 29.824219 C 15.507812 29.777344 15.460938 29.730469 15.460938 29.679688 C 15.273438 29.160156 15.222656 28.6875 15.273438 28.070312 C 15.414062 27.21875 15.601562 26.367188 15.746094 25.511719 C 15.792969 25.417969 15.792969 25.417969 15.886719 25.417969 L 17.878906 25.417969 C 18.066406 25.417969 18.257812 25.417969 18.445312 25.324219 C 18.636719 25.226562 18.730469 25.132812 18.730469 24.945312 C 18.730469 24.800781 18.636719 24.660156 18.492188 24.566406 "/>
</g>
</svg>
