<?xml version="1.0" encoding="UTF-8"?>
<svg xmlns="http://www.w3.org/2000/svg" xmlns:xlink="http://www.w3.org/1999/xlink" width="56pt" height="56pt" viewBox="0 0 56 56" version="1.1">
<g id="surface1">
<rect x="0" y="0" width="56" height="56" style="fill:rgb(95.666504%,95.776367%,96.775818%);fill-opacity:1;stroke:none;"/>
<path style=" stroke:none;fill-rule:nonzero;fill:rgb(90.632629%,91.094971%,6.082153%);fill-opacity:1;" d="M 8.320312 44.601562 C 23.917969 38.214844 32.945312 30.554688 47.359375 11.398438 L 37.507812 11.398438 C 26.464844 33.867188 8.320312 44.601562 8.320312 44.601562 "/>
<path style=" stroke:none;fill-rule:nonzero;fill:rgb(84.194946%,11.984253%,14.689636%);fill-opacity:1;" d="M 11.21875 44.601562 C 18.535156 42.777344 29.449219 38.582031 45.351562 27.542969 L 47.679688 12.492188 C 30.484375 36.480469 11.21875 44.601562 11.21875 44.601562 "/>
<path style=" stroke:none;fill-rule:nonzero;fill:rgb(84.194946%,11.984253%,14.689636%);fill-opacity:1;" d="M 16.136719 44.601562 C 23.1875 43.6875 33.5 41.347656 43.4375 38.488281 L 44.933594 28.738281 C 33.21875 37.484375 16.136719 44.601562 16.136719 44.601562 "/>
<path style=" stroke:none;fill-rule:nonzero;fill:rgb(84.194946%,11.984253%,14.689636%);fill-opacity:1;" d="M 20.914062 44.601562 L 42.34375 44.601562 L 43.160156 39.765625 C 43.160156 39.765625 25.660156 44.054688 20.914062 44.601562 "/>
<path style=" stroke:none;fill-rule:nonzero;fill:rgb(100%,100%,100%);fill-opacity:1;" d="M 39.179688 16.941406 L 39.457031 21.945312 L 41.316406 22.21875 L 39.457031 22.496094 L 39.179688 28 L 38.902344 22.496094 L 37.042969 22.21875 L 38.902344 21.945312 L 39.179688 16.941406 "/>
<path style=" stroke:none;fill-rule:nonzero;fill:rgb(100%,100%,100%);fill-opacity:1;" d="M 32.671875 31.140625 L 32.914062 35.5 L 34.535156 35.742188 L 32.914062 35.980469 L 32.671875 40.78125 L 32.433594 35.980469 L 30.808594 35.742188 L 32.433594 35.5 L 32.671875 31.140625 "/>
</g>
</svg>
