<?xml version="1.0" encoding="UTF-8"?>
<svg xmlns="http://www.w3.org/2000/svg" xmlns:xlink="http://www.w3.org/1999/xlink" width="56pt" height="56pt" viewBox="0 0 56 56" version="1.1">
<g id="surface1">
<rect x="0" y="0" width="56" height="56" style="fill:rgb(88.223267%,2.198792%,50.901794%);fill-opacity:1;stroke:none;"/>
<path style=" stroke:none;fill-rule:nonzero;fill:rgb(100%,100%,100%);fill-opacity:1;" d="M 14.847656 46.078125 C 15.121094 44.925781 15.398438 43.777344 15.695312 42.515625 C 18.445312 42.515625 21.234375 42.515625 24.035156 42.515625 C 25.808594 40.167969 26.792969 37.585938 27.28125 34.785156 C 28.328125 28.8125 29.394531 22.84375 30.425781 16.867188 C 30.621094 15.746094 30.6875 14.601562 30.828125 13.335938 C 28.570312 13.335938 26.472656 13.335938 24.21875 13.335938 C 24.152344 11.128906 24.015625 9.035156 24.734375 7.011719 C 25.058594 6.085938 25.90625 5.703125 26.800781 5.546875 C 27.628906 5.40625 28.480469 5.3125 29.320312 5.320312 C 33.007812 5.34375 36.695312 5.414062 40.382812 5.472656 C 40.570312 5.472656 40.757812 5.515625 41.128906 5.566406 C 41.128906 6.007812 41.183594 6.457031 41.121094 6.886719 C 40.589844 10.492188 40.078125 14.101562 39.476562 17.695312 C 38.515625 23.449219 37.558594 29.207031 36.460938 34.933594 C 36 37.335938 35.347656 39.726562 34.496094 42.015625 C 32.867188 46.378906 29.875 49.246094 25.089844 50.050781 C 22.734375 50.445312 20.398438 50.824219 18 50.628906 C 16.671875 50.519531 15.535156 50.082031 14.847656 48.84375 C 14.847656 47.921875 14.847656 47 14.847656 46.078125 "/>
</g>
</svg>
