<?xml version="1.0" encoding="UTF-8"?>
<svg xmlns="http://www.w3.org/2000/svg" xmlns:xlink="http://www.w3.org/1999/xlink" width="56pt" height="56pt" viewBox="0 0 56 56" version="1.1">
<g id="surface1">
<rect x="0" y="0" width="56" height="56" style="fill:rgb(19.068909%,23.153687%,60.494995%);fill-opacity:1;stroke:none;"/>
<path style=" stroke:none;fill-rule:nonzero;fill:rgb(100%,100%,100%);fill-opacity:1;" d="M 53.453125 21.023438 C 53.007812 21.648438 52.558594 22.269531 52.121094 22.898438 C 50.265625 25.566406 48.421875 28.242188 46.5625 30.90625 C 45.804688 31.988281 44.878906 32.886719 43.574219 33.273438 C 43.183594 33.390625 42.773438 33.46875 42.371094 33.46875 C 40.425781 33.488281 38.480469 33.480469 36.53125 33.472656 C 36.449219 33.472656 36.367188 33.394531 36.285156 33.347656 C 36.351562 33.292969 36.414062 33.195312 36.488281 33.183594 C 38 32.953125 39.140625 32.109375 40.023438 30.925781 C 40.957031 29.671875 41.820312 28.363281 42.710938 27.078125 C 44.078125 25.105469 45.441406 23.136719 46.800781 21.160156 C 46.898438 21.019531 47.003906 20.976562 47.167969 20.976562 C 49.132812 20.980469 51.097656 20.980469 53.0625 20.980469 C 53.191406 20.980469 53.320312 20.972656 53.453125 20.96875 C 53.453125 20.988281 53.453125 21.007812 53.453125 21.023438 "/>
<path style=" stroke:none;fill-rule:nonzero;fill:rgb(100%,100%,100%);fill-opacity:1;" d="M 23.265625 31.085938 C 23.574219 31.039062 23.894531 31.019531 24.195312 30.941406 C 26.140625 30.429688 27.339844 28.632812 27.03125 26.644531 C 26.800781 25.175781 25.949219 24.15625 24.566406 23.648438 C 23.15625 23.125 21.859375 23.421875 20.710938 24.390625 C 20.5625 24.511719 20.527344 24.617188 20.601562 24.808594 C 21.238281 26.417969 21.242188 28.039062 20.605469 29.648438 C 20.53125 29.835938 20.550781 29.949219 20.703125 30.078125 C 21.441406 30.710938 22.285156 31.050781 23.265625 31.085938 Z M 18.945312 22.414062 C 22.464844 19.34375 27.960938 20.777344 29.453125 25.320312 C 29.539062 25.046875 29.605469 24.816406 29.683594 24.585938 C 30.554688 21.945312 33.332031 20.320312 36.078125 20.84375 C 38.527344 21.308594 40.34375 23.152344 40.679688 25.628906 C 40.800781 26.515625 40.734375 27.425781 40.75 28.324219 C 40.75 28.394531 40.71875 28.46875 40.679688 28.53125 C 40.039062 29.519531 39.386719 30.5 38.519531 31.308594 C 38.34375 31.476562 38.136719 31.609375 37.886719 31.796875 C 37.886719 31.625 37.886719 31.535156 37.886719 31.445312 C 37.886719 29.777344 37.890625 28.109375 37.886719 26.4375 C 37.878906 24.261719 35.539062 22.894531 33.660156 23.984375 C 32.761719 24.503906 32.253906 25.300781 32.246094 26.351562 C 32.226562 28.601562 32.238281 30.855469 32.238281 33.109375 C 32.238281 33.21875 32.238281 33.328125 32.238281 33.460938 C 31.277344 33.460938 30.335938 33.460938 29.371094 33.460938 C 29.371094 32.15625 29.371094 30.851562 29.371094 29.550781 C 28.445312 31.578125 26.976562 32.964844 24.792969 33.492188 C 22.617188 34.019531 20.671875 33.488281 18.945312 32.050781 C 17.234375 33.480469 15.285156 34.023438 13.097656 33.496094 C 10.914062 32.964844 9.441406 31.582031 8.539062 29.523438 C 8.425781 31.5625 7.75 33.296875 5.9375 34.40625 C 4.910156 35.035156 3.765625 35.257812 2.550781 35.253906 C 2.550781 34.3125 2.550781 33.390625 2.550781 32.453125 C 2.832031 32.414062 3.113281 32.378906 3.394531 32.339844 C 4.996094 32.097656 5.582031 30.957031 5.65625 29.707031 C 5.679688 29.296875 5.664062 28.890625 5.664062 28.480469 C 5.667969 26.097656 5.664062 23.714844 5.664062 21.332031 C 5.664062 21.222656 5.664062 21.117188 5.664062 20.992188 C 6.621094 20.992188 7.546875 20.992188 8.507812 20.992188 C 8.507812 22.292969 8.507812 23.59375 8.507812 24.894531 C 8.53125 24.90625 8.550781 24.914062 8.570312 24.925781 C 9.453125 22.878906 10.917969 21.492188 13.101562 20.96875 C 15.277344 20.449219 17.222656 20.980469 18.945312 22.414062 "/>
</g>
</svg>
