<?xml version="1.0" encoding="UTF-8"?>
<svg xmlns="http://www.w3.org/2000/svg" xmlns:xlink="http://www.w3.org/1999/xlink" width="56pt" height="56pt" viewBox="0 0 56 56" version="1.1">
<g id="surface1">
<rect x="0" y="0" width="56" height="56" style="fill:rgb(95.66803%,95.779419%,96.777344%);fill-opacity:1;stroke:none;"/>
<path style=" stroke:none;fill-rule:nonzero;fill:rgb(12.573242%,21.472168%,37.750244%);fill-opacity:1;" d="M 29.5 49.5625 C 27.609375 49.21875 25.78125 48.671875 24.027344 47.878906 C 20.863281 46.449219 18.21875 44.375 16.183594 41.550781 C 13.902344 38.386719 12.71875 34.808594 12.285156 30.960938 C 12.257812 30.699219 12.226562 30.4375 12.199219 30.175781 C 12.179688 30.175781 12.164062 30.175781 12.144531 30.175781 C 12.128906 30.453125 12.113281 30.730469 12.097656 31.007812 C 11.964844 33.414062 12.207031 35.777344 12.917969 38.082031 C 13.097656 38.671875 13.351562 39.238281 13.570312 39.820312 C 13.894531 39.945312 13.84375 40.222656 13.839844 40.480469 C 13.871094 40.539062 13.902344 40.597656 13.933594 40.65625 C 13.949219 40.4375 13.957031 40.21875 13.984375 40.003906 C 13.992188 39.925781 14.039062 39.855469 14.066406 39.78125 C 14.121094 39.84375 14.195312 39.894531 14.226562 39.96875 C 14.304688 40.15625 14.363281 40.351562 14.449219 40.609375 C 14.539062 40.34375 14.605469 40.136719 14.683594 39.933594 C 14.707031 39.875 14.773438 39.832031 14.816406 39.78125 C 14.847656 39.839844 14.898438 39.898438 14.902344 39.957031 C 14.910156 40.210938 14.90625 40.460938 14.90625 40.714844 C 14.871094 40.714844 14.835938 40.71875 14.800781 40.71875 C 14.789062 40.503906 14.777344 40.289062 14.761719 40.019531 C 14.65625 40.296875 14.570312 40.523438 14.484375 40.746094 C 14.457031 40.746094 14.429688 40.746094 14.402344 40.746094 C 14.316406 40.523438 14.230469 40.296875 14.148438 40.089844 C 14.105469 40.335938 14.058594 40.585938 14.011719 40.839844 C 14.085938 40.972656 14.160156 41.109375 14.230469 41.242188 C 15.574219 43.726562 17.433594 45.734375 19.785156 47.285156 C 22.722656 49.226562 25.988281 50.214844 29.46875 50.558594 C 29.882812 50.597656 30.289062 50.640625 30.699219 50.679688 C 31.515625 50.679688 32.328125 50.679688 33.140625 50.679688 C 33.585938 50.652344 34.027344 50.621094 34.46875 50.59375 C 36.046875 50.457031 37.605469 50.222656 39.144531 49.847656 C 38.78125 49.851562 38.425781 49.875 38.070312 49.90625 C 35.199219 50.160156 32.339844 50.082031 29.5 49.5625 "/>
<path style=" stroke:none;fill-rule:nonzero;fill:rgb(12.573242%,21.472168%,37.750244%);fill-opacity:1;" d="M 27.457031 12.523438 C 27.65625 12.960938 27.757812 13.441406 27.902344 13.902344 C 28.117188 14.96875 27.921875 15.996094 27.628906 17.050781 C 27.824219 17.039062 28.011719 17.023438 28.15625 16.9375 C 28.640625 16.65625 29.101562 16.328125 29.59375 16.0625 C 31.621094 14.964844 33.808594 14.457031 36.097656 14.359375 C 37.480469 14.300781 38.859375 14.414062 40.226562 14.640625 C 40.402344 14.667969 40.578125 14.691406 40.753906 14.714844 C 40.414062 14.546875 40.070312 14.429688 39.722656 14.3125 C 37.890625 13.683594 36.058594 13.054688 34.226562 12.433594 C 32.402344 11.8125 30.574219 11.199219 28.75 10.578125 C 28.597656 10.527344 28.449219 10.46875 28.296875 10.417969 C 27.214844 10.046875 26.132812 9.679688 25.050781 9.3125 C 24.835938 9.238281 24.621094 9.167969 24.40625 9.097656 C 24.59375 9.292969 24.800781 9.441406 25 9.601562 C 26.011719 10.410156 26.914062 11.324219 27.457031 12.523438 "/>
<path style=" stroke:none;fill-rule:nonzero;fill:rgb(12.573242%,21.472168%,37.750244%);fill-opacity:1;" d="M 19.621094 30.566406 C 20.207031 29.726562 20.765625 28.875 21.371094 28.058594 C 22.933594 25.96875 24.742188 24.117188 26.820312 22.535156 C 28.921875 20.929688 31.226562 19.675781 33.683594 18.699219 C 36.929688 17.40625 40.3125 16.613281 43.742188 15.988281 C 43.617188 15.980469 43.496094 15.960938 43.378906 15.964844 C 43.054688 15.96875 42.734375 15.980469 42.414062 15.992188 C 41.703125 16.035156 40.992188 16.074219 40.28125 16.117188 C 39.894531 16.160156 39.503906 16.203125 39.113281 16.25 C 37.691406 16.429688 36.277344 16.675781 34.902344 17.078125 C 34.011719 17.339844 33.140625 17.660156 32.265625 17.960938 C 31.878906 18.09375 31.488281 18.226562 31.109375 18.390625 C 28.140625 19.683594 25.558594 21.515625 23.425781 23.96875 C 21.796875 25.84375 20.550781 27.949219 19.613281 30.246094 C 19.550781 30.394531 19.488281 30.546875 19.429688 30.699219 C 19.449219 30.710938 19.46875 30.722656 19.484375 30.734375 C 19.53125 30.675781 19.582031 30.625 19.621094 30.566406 "/>
<path style=" stroke:none;fill-rule:nonzero;fill:rgb(12.573242%,21.472168%,37.750244%);fill-opacity:1;" d="M 33.804688 50.679688 C 34.027344 50.652344 34.25 50.621094 34.46875 50.59375 C 34.027344 50.621094 33.585938 50.652344 33.140625 50.679688 C 33.363281 50.679688 33.585938 50.679688 33.804688 50.679688 "/>
<path style=" stroke:none;fill-rule:nonzero;fill:rgb(96.647644%,70.46051%,4.421997%);fill-opacity:1;" d="M 31.359375 17.671875 C 31.378906 17.53125 31.386719 17.386719 31.414062 17.242188 C 31.386719 17.386719 31.378906 17.53125 31.359375 17.671875 Z M 27.46875 17.09375 C 27.460938 17.085938 27.453125 17.082031 27.445312 17.082031 C 27.453125 17.082031 27.460938 17.085938 27.46875 17.09375 Z M 43.191406 15.410156 C 40.265625 13.539062 37.339844 11.671875 34.414062 9.800781 C 32.511719 8.582031 30.605469 7.363281 28.703125 6.148438 C 28.566406 6.074219 28.433594 6 28.300781 5.929688 C 28.214844 5.863281 28.128906 5.800781 28.042969 5.734375 C 28.007812 5.710938 27.972656 5.6875 27.9375 5.660156 C 27.757812 5.546875 27.574219 5.433594 27.394531 5.320312 C 27.378906 5.335938 27.367188 5.347656 27.351562 5.363281 C 27.417969 5.476562 27.480469 5.589844 27.546875 5.703125 C 27.574219 5.761719 27.601562 5.820312 27.628906 5.878906 C 27.800781 6.277344 27.988281 6.671875 28.144531 7.074219 C 28.542969 8.117188 28.789062 9.191406 28.835938 10.308594 C 28.839844 10.398438 28.777344 10.488281 28.75 10.578125 C 30.574219 11.199219 32.402344 11.8125 34.226562 12.433594 C 36.058594 13.054688 37.890625 13.683594 39.722656 14.3125 C 40.070312 14.429688 40.414062 14.546875 40.753906 14.714844 C 40.578125 14.691406 40.402344 14.667969 40.226562 14.640625 C 38.859375 14.414062 37.480469 14.300781 36.097656 14.359375 C 33.808594 14.457031 31.621094 14.964844 29.59375 16.0625 C 29.101562 16.328125 28.640625 16.65625 28.15625 16.9375 C 28.011719 17.023438 27.824219 17.039062 27.628906 17.050781 C 27.921875 15.996094 28.117188 14.96875 27.902344 13.902344 C 27.773438 13.980469 27.652344 14.078125 27.511719 14.128906 C 24.980469 15.050781 22.613281 16.273438 20.488281 17.933594 C 18.585938 19.421875 17 21.183594 15.832031 23.308594 C 14.996094 24.832031 14.441406 26.449219 14.199219 28.171875 C 14.183594 28.28125 14.191406 28.390625 14.191406 28.496094 C 14.164062 28.675781 14.140625 28.855469 14.113281 29.035156 C 14.097656 29.203125 14.078125 29.371094 14.0625 29.539062 C 13.941406 30.851562 13.9375 32.164062 14.054688 33.480469 C 14.199219 35.03125 14.542969 36.53125 15.128906 37.96875 C 16.332031 40.929688 18.375 43.171875 21.050781 44.863281 C 22.851562 46 24.800781 46.804688 26.839844 47.398438 C 28.582031 47.90625 30.355469 48.25 32.15625 48.472656 C 32.53125 48.519531 32.902344 48.558594 33.273438 48.601562 C 32.921875 48.457031 32.566406 48.351562 32.207031 48.246094 C 29.957031 47.578125 27.777344 46.730469 25.707031 45.613281 C 23.636719 44.5 21.738281 43.15625 20.128906 41.429688 C 18.230469 39.398438 16.960938 37.046875 16.472656 34.292969 C 16.164062 32.535156 16.214844 30.808594 16.792969 29.105469 C 17.433594 27.222656 18.523438 25.621094 19.898438 24.203125 C 21.835938 22.203125 24.132812 20.707031 26.640625 19.535156 C 27.875 18.957031 29.167969 18.5 30.433594 17.988281 C 30.425781 17.945312 30.417969 17.902344 30.410156 17.859375 C 30.417969 17.902344 30.425781 17.945312 30.433594 17.988281 C 30.507812 17.960938 30.582031 17.933594 30.65625 17.90625 C 30.816406 17.855469 30.976562 17.804688 31.136719 17.757812 C 31.136719 17.734375 31.136719 17.710938 31.140625 17.691406 C 31.136719 17.710938 31.136719 17.734375 31.136719 17.757812 C 31.226562 17.730469 31.320312 17.703125 31.410156 17.675781 C 31.542969 17.636719 31.675781 17.59375 31.8125 17.550781 C 31.871094 17.535156 31.929688 17.519531 31.988281 17.503906 C 32.136719 17.457031 32.285156 17.414062 32.433594 17.371094 C 32.839844 17.265625 33.246094 17.160156 33.65625 17.058594 C 35.136719 16.699219 36.632812 16.421875 38.148438 16.246094 C 38.855469 16.164062 39.570312 16.105469 40.28125 16.035156 C 40.535156 16.019531 40.785156 16 41.039062 15.984375 C 40.785156 16 40.535156 16.019531 40.28125 16.035156 C 40.339844 16.039062 40.394531 16.042969 40.476562 16.046875 C 40.398438 16.078125 40.339844 16.097656 40.28125 16.117188 C 40.992188 16.074219 41.703125 16.035156 42.414062 15.992188 C 42.734375 15.980469 43.054688 15.96875 43.378906 15.964844 C 43.496094 15.960938 43.617188 15.980469 43.742188 15.988281 C 43.804688 15.976562 43.871094 15.964844 43.9375 15.949219 C 43.695312 15.734375 43.445312 15.570312 43.191406 15.410156 "/>
<path style=" stroke:none;fill-rule:nonzero;fill:rgb(12.573242%,21.472168%,37.750244%);fill-opacity:1;" d="M 14.816406 39.78125 C 14.773438 39.832031 14.707031 39.875 14.683594 39.933594 C 14.605469 40.136719 14.539062 40.34375 14.449219 40.609375 C 14.363281 40.351562 14.304688 40.15625 14.226562 39.96875 C 14.195312 39.894531 14.121094 39.84375 14.066406 39.78125 C 14.039062 39.855469 13.992188 39.925781 13.984375 40.003906 C 13.957031 40.21875 13.949219 40.4375 13.933594 40.65625 C 13.960938 40.714844 13.984375 40.777344 14.011719 40.839844 C 14.058594 40.585938 14.105469 40.335938 14.148438 40.089844 C 14.230469 40.296875 14.316406 40.523438 14.402344 40.746094 C 14.429688 40.746094 14.457031 40.746094 14.484375 40.746094 C 14.570312 40.523438 14.65625 40.296875 14.761719 40.019531 C 14.777344 40.289062 14.789062 40.503906 14.800781 40.71875 C 14.835938 40.71875 14.871094 40.714844 14.90625 40.714844 C 14.90625 40.460938 14.910156 40.210938 14.902344 39.957031 C 14.898438 39.898438 14.847656 39.839844 14.816406 39.78125 "/>
<path style=" stroke:none;fill-rule:nonzero;fill:rgb(12.573242%,21.472168%,37.750244%);fill-opacity:1;" d="M 13.570312 39.820312 C 13.660156 40.039062 13.75 40.261719 13.839844 40.480469 C 13.84375 40.222656 13.894531 39.945312 13.570312 39.820312 "/>
</g>
</svg>
