<?xml version="1.0" encoding="UTF-8"?>
<svg xmlns="http://www.w3.org/2000/svg" xmlns:xlink="http://www.w3.org/1999/xlink" width="56pt" height="56pt" viewBox="0 0 56 56" version="1.1">
<g id="surface1">
<rect x="0" y="0" width="56" height="56" style="fill:rgb(95.666504%,95.776367%,96.775818%);fill-opacity:1;stroke:none;"/>
<path style=" stroke:none;fill-rule:nonzero;fill:rgb(83.332825%,29.911804%,16.033936%);fill-opacity:1;" d="M 20.6875 29.335938 C 19.753906 30.28125 20.03125 31.9375 20.15625 32.40625 C 20.34375 33.113281 20.9375 34.457031 22.566406 33.847656 C 24.203125 33.242188 23.75 31.683594 23.546875 31.21875 C 23.382812 30.84375 21.753906 28.257812 20.6875 29.335938 "/>
<path style=" stroke:none;fill-rule:nonzero;fill:rgb(83.332825%,29.911804%,16.033936%);fill-opacity:1;" d="M 23.601562 24.78125 C 22.46875 25.230469 22.53125 26.800781 22.902344 27.980469 C 23.273438 29.15625 23.996094 30.03125 25.410156 29.484375 C 26.820312 28.941406 26.328125 27.050781 25.855469 26.175781 C 25.390625 25.292969 24.488281 24.433594 23.601562 24.78125 "/>
<path style=" stroke:none;fill-rule:nonzero;fill:rgb(83.332825%,29.911804%,16.033936%);fill-opacity:1;" d="M 27.574219 21.769531 C 26.6875 22.066406 26.328125 23.246094 26.742188 25.117188 C 27.15625 26.984375 28.46875 27.394531 29.496094 27 C 30.523438 26.605469 30.914062 24.964844 30.195312 23.496094 C 29.476562 22.03125 28.472656 21.464844 27.574219 21.769531 "/>
<path style=" stroke:none;fill-rule:nonzero;fill:rgb(83.332825%,29.911804%,16.033936%);fill-opacity:1;" d="M 32.054688 21.09375 C 31.222656 21.519531 31.566406 23.484375 31.863281 24.707031 C 32.160156 25.925781 32.644531 27.675781 34.199219 27.175781 C 35.753906 26.671875 35.761719 24.875 35.484375 24.121094 C 34.792969 22.253906 32.984375 20.621094 32.054688 21.09375 "/>
<path style=" stroke:none;fill-rule:nonzero;fill:rgb(83.332825%,29.911804%,16.033936%);fill-opacity:1;" d="M 38.09375 25.179688 C 36.953125 24.925781 36.597656 25.890625 36.445312 27.183594 C 36.289062 28.472656 36.828125 29.230469 37.800781 29.382812 C 38.773438 29.53125 39.273438 28.710938 39.460938 27.652344 C 39.652344 26.59375 39.058594 25.394531 38.09375 25.179688 "/>
<path style=" stroke:none;fill-rule:nonzero;fill:rgb(83.332825%,29.911804%,16.033936%);fill-opacity:1;" d="M 31.613281 39.796875 C 34.914062 37.515625 38.042969 35.539062 38.65625 33.730469 C 39.019531 32.667969 38.542969 31.050781 34.222656 30.035156 C 32.988281 29.742188 31.851562 28.621094 30.867188 28.636719 C 28.96875 28.667969 27.980469 30.648438 27.371094 31.398438 C 26.082031 32.972656 23.433594 34.582031 23.933594 36.996094 C 24.332031 38.945312 28.597656 41.878906 31.613281 39.796875 "/>
<path style=" stroke:none;fill-rule:nonzero;fill:rgb(83.332825%,29.911804%,16.033936%);fill-opacity:1;" d="M 19.070312 27.160156 C 19.070312 26.828125 19.339844 26.558594 19.675781 26.558594 C 20.007812 26.558594 20.28125 26.828125 20.28125 27.160156 C 20.28125 27.496094 20.007812 27.765625 19.675781 27.765625 C 19.339844 27.765625 19.070312 27.496094 19.070312 27.160156 "/>
<path style=" stroke:none;fill-rule:nonzero;fill:rgb(83.332825%,29.911804%,16.033936%);fill-opacity:1;" d="M 21.4375 22.730469 C 21.4375 22.402344 21.707031 22.132812 22.042969 22.132812 C 22.375 22.132812 22.644531 22.402344 22.644531 22.730469 C 22.644531 23.066406 22.375 23.335938 22.042969 23.335938 C 21.707031 23.335938 21.4375 23.066406 21.4375 22.730469 "/>
<path style=" stroke:none;fill-rule:nonzero;fill:rgb(83.332825%,29.911804%,16.033936%);fill-opacity:1;" d="M 25.511719 20.167969 C 25.511719 19.832031 25.78125 19.5625 26.113281 19.5625 C 26.449219 19.5625 26.71875 19.832031 26.71875 20.167969 C 26.71875 20.5 26.449219 20.773438 26.113281 20.773438 C 25.78125 20.773438 25.511719 20.5 25.511719 20.167969 "/>
<path style=" stroke:none;fill-rule:nonzero;fill:rgb(83.332825%,29.911804%,16.033936%);fill-opacity:1;" d="M 30.59375 19.464844 C 30.59375 19.128906 30.863281 18.859375 31.199219 18.859375 C 31.53125 18.859375 31.800781 19.128906 31.800781 19.464844 C 31.800781 19.796875 31.53125 20.066406 31.199219 20.066406 C 30.863281 20.066406 30.59375 19.796875 30.59375 19.464844 "/>
<path style=" stroke:none;fill-rule:nonzero;fill:rgb(83.332825%,29.911804%,16.033936%);fill-opacity:1;" d="M 37.1875 23.386719 C 37.1875 23.054688 37.457031 22.78125 37.789062 22.78125 C 38.125 22.78125 38.398438 23.054688 38.398438 23.386719 C 38.398438 23.71875 38.125 23.992188 37.789062 23.992188 C 37.457031 23.992188 37.1875 23.71875 37.1875 23.386719 "/>
<path style=" stroke:none;fill-rule:nonzero;fill:rgb(46.864319%,7.292175%,17.03186%);fill-opacity:1;" d="M 36.925781 37.871094 C 35.886719 38.621094 34.671875 39.40625 33.371094 40.296875 L 32.328125 41.015625 C 30.753906 42.101562 28.765625 42.253906 26.734375 41.4375 C 24.671875 40.609375 22.847656 38.960938 22.519531 37.429688 C 22.316406 36.480469 22.363281 35.90625 22.433594 35.175781 C 21.585938 35.34375 20.9375 35.15625 20.515625 34.941406 C 19.714844 34.523438 19.113281 33.695312 18.832031 32.605469 C 18.792969 32.472656 18.644531 31.683594 18.644531 30.910156 C 18.644531 30.34375 18.726562 29.691406 18.984375 29.070312 C 18.117188 28.65625 17.511719 27.769531 17.511719 26.742188 C 17.511719 25.320312 18.671875 24.160156 20.09375 24.160156 C 20.164062 24.160156 20.234375 24.164062 20.304688 24.171875 C 20.082031 23.796875 19.953125 23.363281 19.953125 22.898438 C 19.953125 21.511719 21.078125 20.386719 22.460938 20.386719 C 22.761719 20.386719 23.046875 20.445312 23.3125 20.542969 C 23.324219 20.34375 23.355469 20.152344 23.40625 19.964844 C 20.613281 16.789062 16.808594 13.382812 12.589844 13.382812 L 9.332031 13.382812 L 18.417969 46.300781 L 43.175781 46.300781 C 41.085938 43.480469 38.949219 40.601562 36.925781 37.871094 "/>
<path style=" stroke:none;fill-rule:nonzero;fill:rgb(83.332825%,29.911804%,16.033936%);fill-opacity:1;" d="M 24.171875 18.660156 C 24.726562 18.105469 25.496094 17.757812 26.359375 17.757812 C 26.386719 17.757812 26.40625 17.761719 26.429688 17.761719 C 23.582031 14.273438 19.25 9.699219 14.359375 9.699219 C 14.359375 9.699219 10.488281 9.699219 8.320312 9.699219 L 8.9375 11.941406 L 12.589844 11.941406 C 17.207031 11.941406 21.214844 15.371094 24.171875 18.660156 "/>
<path style=" stroke:none;fill-rule:nonzero;fill:rgb(83.332825%,29.911804%,16.033936%);fill-opacity:1;" d="M 39.585938 35.382812 C 39.21875 35.933594 38.699219 36.460938 38.066406 36.988281 L 44.972656 46.300781 L 47.679688 46.300781 C 45.0625 42.773438 42.25 38.972656 39.585938 35.382812 "/>
</g>
</svg>
