<?xml version="1.0" encoding="UTF-8"?>
<svg xmlns="http://www.w3.org/2000/svg" xmlns:xlink="http://www.w3.org/1999/xlink" width="56pt" height="56pt" viewBox="0 0 56 56" version="1.1">
<g id="surface1">
<rect x="0" y="0" width="56" height="56" style="fill:rgb(95.666504%,95.776367%,96.775818%);fill-opacity:1;stroke:none;"/>
<path style=" stroke:none;fill-rule:nonzero;fill:rgb(98.455811%,78.450012%,2.806091%);fill-opacity:1;" d="M 13.804688 31.875 C 9.214844 31.585938 8.511719 32.214844 8.457031 33.039062 C 8.410156 33.863281 9.027344 34.574219 13.617188 34.863281 C 18.4375 35.164062 25.847656 34.957031 25.902344 34.132812 C 25.953125 33.304688 18.625 32.175781 13.804688 31.875 "/>
<path style=" stroke:none;fill-rule:nonzero;fill:rgb(98.455811%,78.450012%,2.806091%);fill-opacity:1;" d="M 28.617188 36.09375 C 27.855469 35.769531 24.320312 42.28125 22.414062 46.714844 C 20.746094 50.585938 20.796875 51.75 21.710938 52.140625 C 22.46875 52.46875 23.347656 52.125 25.164062 47.898438 C 27.074219 43.46875 29.375 36.421875 28.617188 36.09375 "/>
<path style=" stroke:none;fill-rule:nonzero;fill:rgb(98.455811%,78.450012%,2.806091%);fill-opacity:1;" d="M 43.046875 37.890625 C 38.515625 36.230469 31.347656 34.320312 31.066406 35.09375 C 30.78125 35.871094 37.484375 39.042969 42.015625 40.703125 C 46.332031 42.285156 47.1875 41.886719 47.472656 41.109375 C 47.757812 40.335938 47.363281 39.476562 43.046875 37.890625 "/>
<path style=" stroke:none;fill-rule:nonzero;fill:rgb(32.102966%,68.647766%,90.150452%);fill-opacity:1;" d="M 33.558594 11.902344 C 32.703125 14.445312 29.785156 24.496094 28.925781 30.132812 C 27.507812 25.507812 24.109375 18.113281 22.773438 15.628906 C 20.097656 10.664062 18.550781 8.8125 16.902344 9.71875 C 15.449219 10.515625 15.714844 12.855469 18.457031 17.953125 C 20.464844 21.679688 26.230469 31.917969 28.5 33.753906 C 28.914062 34.089844 29.296875 34.042969 29.605469 33.753906 C 31.757812 31.75 36.109375 19.679688 38.203125 13.464844 C 40.214844 7.496094 40.769531 4.457031 38.976562 3.855469 C 37.019531 3.195312 35.457031 6.273438 33.558594 11.902344 "/>
</g>
</svg>
