<?xml version="1.0" encoding="UTF-8"?>
<svg xmlns="http://www.w3.org/2000/svg" xmlns:xlink="http://www.w3.org/1999/xlink" width="56pt" height="56pt" viewBox="0 0 56 56" version="1.1">
<g id="surface1">
<rect x="0" y="0" width="56" height="56" style="fill:rgb(79.586792%,8.843994%,28.237915%);fill-opacity:1;stroke:none;"/>
<path style=" stroke:none;fill-rule:nonzero;fill:rgb(100%,100%,100%);fill-opacity:1;" d="M 47.679688 45.417969 C 44.1875 45.417969 41.503906 45.417969 38.582031 45.417969 C 34.355469 41.605469 29.765625 37.941406 25.769531 33.71875 C 21.453125 29.160156 16.707031 26.589844 10.332031 27.730469 C 9.796875 27.828125 9.226562 27.742188 8.320312 27.742188 C 8.605469 27.046875 8.730469 26.566406 8.984375 26.175781 C 9.285156 25.714844 9.699219 25.335938 10.140625 24.832031 C 15.433594 24.832031 20.710938 24.796875 25.984375 24.84375 C 29.445312 24.878906 31.78125 26.960938 33.882812 29.410156 C 37.320312 33.421875 40.765625 37.421875 44.210938 41.421875 C 45.21875 42.59375 46.238281 43.757812 47.679688 45.417969 "/>
<path style=" stroke:none;fill-rule:nonzero;fill:rgb(100%,100%,100%);fill-opacity:1;" d="M 31.328125 23.988281 C 27.453125 23.617188 24.046875 23.292969 20.0625 22.910156 C 26.027344 18.636719 31.632812 14.617188 37.269531 10.582031 C 39.515625 10.582031 41.75 10.582031 44.539062 10.582031 C 39.910156 15.28125 35.570312 19.683594 31.328125 23.988281 "/>
</g>
</svg>
