<?xml version="1.0" encoding="UTF-8"?>
<svg xmlns="http://www.w3.org/2000/svg" xmlns:xlink="http://www.w3.org/1999/xlink" width="56pt" height="56pt" viewBox="0 0 56 56" version="1.1">
<g id="surface1">
<rect x="0" y="0" width="56" height="56" style="fill:rgb(92.33551%,11.239624%,15.208435%);fill-opacity:1;stroke:none;"/>
<path style=" stroke:none;fill-rule:evenodd;fill:rgb(100%,100%,100%);fill-opacity:1;" d="M 41.894531 35.8125 C 40.289062 38.285156 37.445312 37 37.496094 34.886719 C 37.554688 32.484375 38.882812 30.785156 41.894531 30.28125 Z M 50.207031 37.890625 L 48.230469 38.179688 C 47.019531 38.355469 47.011719 37.140625 47.011719 36.375 L 47.011719 26.675781 C 47.011719 24.855469 47.277344 21.71875 41.960938 22.492188 C 34.378906 23.59375 33.414062 26.554688 33.0625 27.574219 C 32.796875 28.351562 32.929688 28.546875 33.484375 28.171875 L 36.683594 27.039062 C 37.171875 26.867188 37.285156 25.988281 37.414062 25.339844 C 37.730469 23.746094 41.925781 23.449219 41.925781 25.886719 L 41.925781 29.730469 C 34.304688 31.238281 32.164062 33.941406 32.515625 37.1875 C 32.925781 41.003906 38.148438 41.191406 41.925781 36.636719 L 41.925781 38.179688 C 41.925781 39.542969 43.222656 40.308594 44.929688 39.832031 C 46.726562 39.332031 48.527344 38.863281 50.328125 38.378906 C 50.835938 37.984375 50.796875 37.824219 50.207031 37.890625 "/>
<path style=" stroke:none;fill-rule:evenodd;fill:rgb(100%,100%,100%);fill-opacity:1;" d="M 21.3125 37.710938 C 20.890625 37.988281 20.378906 38.179688 19.871094 38.179688 L 14.671875 38.179688 C 14.074219 38.179688 13.6875 38.222656 13.6875 37.589844 L 13.6875 17.824219 C 21.003906 17.683594 25.609375 21.636719 25.753906 27.523438 C 25.859375 31.976562 24.671875 35.464844 21.3125 37.710938 Z M 19.582031 15.878906 L 12.941406 15.878906 C 10.414062 15.878906 7.476562 16.578125 5.894531 17.335938 C 5.183594 17.671875 5.074219 18.058594 5.894531 18.019531 C 6.613281 17.984375 7.4375 18.019531 8.15625 18.019531 L 8.15625 39.972656 C 23.699219 41.117188 31.269531 35.496094 31.269531 27.96875 C 31.269531 19.921875 25.488281 15.878906 19.582031 15.878906 "/>
</g>
</svg>
