<?xml version="1.0" encoding="UTF-8"?>
<svg xmlns="http://www.w3.org/2000/svg" xmlns:xlink="http://www.w3.org/1999/xlink" width="56pt" height="56pt" viewBox="0 0 56 56" version="1.1">
<g id="surface1">
<rect x="0" y="0" width="56" height="56" style="fill:rgb(93.295288%,13.708496%,25.228882%);fill-opacity:1;stroke:none;"/>
<path style=" stroke:none;fill-rule:nonzero;fill:rgb(100%,100%,100%);fill-opacity:1;" d="M 29.441406 46.140625 L 39.566406 46.140625 C 41.226562 46.140625 42.984375 46.1875 44.0625 45.75 C 45.140625 45.359375 45.675781 44.917969 46.359375 44.085938 C 47.144531 43.109375 47.484375 41.644531 47.484375 40.519531 C 47.484375 39.199219 47.242188 37.925781 46.261719 36.851562 C 46.066406 36.605469 45.96875 36.359375 46.066406 36.019531 C 46.164062 35.675781 47.144531 35.1875 47.679688 34.992188 C 39.808594 35.335938 34.136719 36.070312 29.492188 36.996094 Z M 34.089844 38.316406 C 34.089844 38.316406 38.046875 37.78125 39.320312 37.730469 C 41.617188 37.632812 42.742188 38.5625 42.742188 40.273438 C 42.742188 41.933594 41.617188 42.621094 39.320312 42.621094 L 34.089844 42.621094 L 34.089844 38.316406 "/>
<path style=" stroke:none;fill-rule:nonzero;fill:rgb(100%,100%,100%);fill-opacity:1;" d="M 26.558594 39.734375 C 26.507812 39.539062 26.363281 39.097656 26.507812 38.5625 C 26.703125 37.972656 27.730469 37.386719 27.925781 37.289062 C 27.878906 37.289062 27.242188 37.4375 27.195312 37.4375 C 25.921875 37.730469 25.628906 37.78125 24.652344 38.023438 C 23.136719 38.414062 16.386719 39.980469 10.570312 43.207031 C 10.570312 43.207031 10.371094 43.695312 10.371094 43.746094 C 9.589844 45.699219 8.320312 46.140625 8.320312 46.140625 L 14.234375 46.140625 L 15.214844 43.351562 C 15.410156 42.914062 16.144531 42.179688 17.023438 42.082031 L 22.597656 41.398438 L 24.210938 46.1875 L 28.855469 46.1875 L 26.558594 39.734375 "/>
<path style=" stroke:none;fill-rule:nonzero;fill:rgb(100%,100%,100%);fill-opacity:1;" d="M 33.695312 26.582031 L 27.632812 26.582031 L 27.632812 26.679688 C 28.414062 27.023438 29.441406 27.953125 29.441406 29.613281 L 29.441406 34.453125 C 31.15625 34.308594 32.179688 34.210938 34.089844 34.0625 L 34.089844 29.90625 L 38.148438 29.90625 C 40.296875 29.90625 41.421875 30.640625 41.421875 32.105469 C 41.421875 32.988281 40.542969 33.425781 39.367188 33.769531 C 40.003906 33.769531 40.738281 33.71875 41.371094 33.71875 C 43.328125 33.574219 44.503906 33.527344 45.480469 32.300781 C 46.3125 31.277344 46.261719 29.90625 45.722656 29.027344 C 45.335938 28.390625 44.941406 27.953125 44.304688 27.558594 C 43.621094 27.121094 42.203125 26.777344 40.6875 26.632812 C 39.660156 26.632812 34.917969 26.582031 33.695312 26.582031 "/>
<path style=" stroke:none;fill-rule:nonzero;fill:rgb(100%,100%,100%);fill-opacity:1;" d="M 19.175781 31.082031 L 20.738281 35.773438 C 22.109375 35.480469 23.527344 35.285156 24.945312 35.089844 L 21.960938 26.632812 L 14.675781 26.632812 L 14.675781 26.777344 C 15.214844 27.023438 16.191406 27.753906 15.605469 29.660156 L 12.621094 37.78125 C 13.894531 37.386719 16.191406 36.800781 17.558594 36.507812 L 19.175781 31.082031 "/>
<path style=" stroke:none;fill-rule:nonzero;fill:rgb(100%,100%,100%);fill-opacity:1;" d="M 24.015625 16.605469 C 23.332031 16.167969 22.058594 15.335938 21.179688 13.722656 C 21.082031 15.335938 20.347656 16.558594 19.90625 17.195312 C 20.25 17.292969 20.542969 17.339844 20.933594 17.339844 C 22.207031 17.488281 23.183594 17.195312 24.015625 16.605469 "/>
<path style=" stroke:none;fill-rule:nonzero;fill:rgb(100%,100%,100%);fill-opacity:1;" d="M 35.015625 17.339844 C 35.359375 17.292969 35.703125 17.242188 36.042969 17.195312 C 35.601562 16.558594 34.871094 15.335938 34.773438 13.722656 C 33.890625 15.335938 32.574219 16.214844 31.9375 16.605469 C 32.769531 17.195312 33.792969 17.488281 35.015625 17.339844 "/>
<path style=" stroke:none;fill-rule:nonzero;fill:rgb(100%,100%,100%);fill-opacity:1;" d="M 27.976562 21.644531 C 31.59375 21.644531 34.871094 22.328125 37.363281 23.453125 L 37.410156 23.453125 C 38.292969 21.105469 41.8125 13.085938 41.8125 13.085938 C 41.277344 13.625 38.929688 17.878906 34.773438 18.21875 C 30.664062 18.5625 29.003906 14.457031 27.976562 9.808594 C 26.949219 14.40625 25.335938 18.5625 21.179688 18.21875 C 17.070312 17.878906 14.722656 13.625 14.1875 13.085938 C 14.1875 13.085938 17.707031 21.105469 18.585938 23.453125 C 21.03125 22.328125 24.355469 21.644531 27.976562 21.644531 "/>
</g>
</svg>
