<?xml version="1.0" encoding="UTF-8"?>
<svg xmlns="http://www.w3.org/2000/svg" xmlns:xlink="http://www.w3.org/1999/xlink" width="56pt" height="56pt" viewBox="0 0 56 56" version="1.1">
<g id="surface1">
<rect x="0" y="0" width="56" height="56" style="fill:rgb(82.275391%,11.917114%,15.328979%);fill-opacity:1;stroke:none;"/>
<path style=" stroke:none;fill-rule:nonzero;fill:rgb(100%,100%,100%);fill-opacity:1;" d="M 4.191406 29.308594 C 3.886719 29.308594 3.308594 29.308594 3.308594 28.824219 C 3.308594 28.414062 3.699219 28.355469 4.191406 28.355469 C 4.851562 28.355469 5.300781 28.386719 5.300781 28.765625 C 5.300781 29.230469 5.039062 29.308594 4.191406 29.308594 Z M 4.378906 25.675781 C 2.933594 25.675781 1.53125 25.667969 1.53125 27.058594 L 3.554688 27.058594 C 3.554688 26.65625 3.875 26.570312 4.378906 26.570312 C 5.261719 26.570312 5.300781 26.835938 5.300781 27.253906 L 5.300781 27.960938 L 5.207031 27.960938 C 4.980469 27.449219 4.097656 27.457031 3.519531 27.457031 C 2.058594 27.457031 1.28125 27.789062 1.28125 28.867188 C 1.28125 30.011719 2.105469 30.257812 3.519531 30.257812 C 4.226562 30.257812 5.144531 30.152344 5.300781 29.539062 L 5.367188 29.539062 L 5.300781 30.207031 L 7.324219 30.207031 L 7.324219 27.40625 C 7.324219 25.863281 6.453125 25.675781 4.378906 25.675781 "/>
<path style=" stroke:none;fill-rule:nonzero;fill:rgb(100%,100%,100%);fill-opacity:1;" d="M 11.433594 28.601562 C 11.410156 28.90625 11.433594 29.179688 10.90625 29.179688 C 10.527344 29.179688 10.457031 29.070312 10.445312 28.804688 L 10.445312 26.800781 L 12.789062 26.800781 L 12.789062 25.726562 L 10.445312 25.726562 L 10.445312 24.777344 L 8.417969 24.777344 L 8.417969 25.726562 L 7.667969 25.726562 L 7.667969 26.800781 L 8.417969 26.800781 L 8.417969 29.011719 C 8.417969 30.136719 9.492188 30.257812 10.789062 30.257812 C 12.4375 30.257812 13.058594 29.984375 13.058594 28.765625 L 13.058594 28.363281 L 11.445312 28.363281 L 11.433594 28.601562 "/>
<path style=" stroke:none;fill-rule:nonzero;fill:rgb(100%,100%,100%);fill-opacity:1;" d="M 13.4375 30.207031 L 15.464844 30.207031 L 15.464844 23.808594 L 13.4375 23.808594 L 13.4375 30.207031 "/>
<path style=" stroke:none;fill-rule:nonzero;fill:rgb(100%,100%,100%);fill-opacity:1;" d="M 18.832031 29.308594 C 18.523438 29.308594 17.949219 29.308594 17.949219 28.824219 C 17.949219 28.414062 18.335938 28.355469 18.832031 28.355469 C 19.492188 28.355469 19.9375 28.386719 19.9375 28.765625 C 19.9375 29.230469 19.679688 29.308594 18.832031 29.308594 Z M 19.019531 25.675781 C 17.570312 25.675781 16.167969 25.667969 16.167969 27.058594 L 18.195312 27.058594 C 18.195312 26.65625 18.511719 26.570312 19.019531 26.570312 C 19.902344 26.570312 19.9375 26.835938 19.9375 27.253906 L 19.9375 27.960938 L 19.84375 27.960938 C 19.621094 27.449219 18.738281 27.457031 18.160156 27.457031 C 16.699219 27.457031 15.921875 27.789062 15.921875 28.867188 C 15.921875 30.011719 16.746094 30.257812 18.160156 30.257812 C 18.867188 30.257812 19.785156 30.152344 19.9375 29.539062 L 20.007812 29.539062 L 19.9375 30.207031 L 21.964844 30.207031 L 21.964844 27.40625 C 21.964844 25.863281 21.09375 25.675781 19.019531 25.675781 "/>
<path style=" stroke:none;fill-rule:nonzero;fill:rgb(100%,100%,100%);fill-opacity:1;" d="M 25.542969 27.371094 C 24.507812 27.355469 24.484375 27.203125 24.484375 26.980469 C 24.484375 26.714844 24.484375 26.621094 25.542969 26.621094 C 25.863281 26.621094 26.296875 26.621094 26.367188 26.996094 L 28.277344 26.996094 L 28.277344 26.785156 C 28.277344 25.683594 26.675781 25.675781 25.542969 25.675781 C 23.824219 25.675781 22.519531 25.703125 22.519531 27.144531 C 22.519531 28.054688 22.976562 28.472656 25.542969 28.472656 C 26.25 28.472656 26.605469 28.472656 26.605469 28.917969 C 26.605469 29.265625 26.464844 29.308594 25.542969 29.308594 C 25.050781 29.308594 24.542969 29.308594 24.542969 28.804688 L 22.519531 28.804688 C 22.519531 30.28125 23.941406 30.257812 25.542969 30.257812 C 27.167969 30.257812 28.570312 30.058594 28.570312 28.746094 C 28.570312 27.492188 27.640625 27.40625 25.542969 27.371094 "/>
<path style=" stroke:none;fill-rule:nonzero;fill:rgb(100%,100%,100%);fill-opacity:1;" d="M 33.082031 29.214844 C 32.847656 29.542969 32.324219 29.710938 31.515625 29.710938 C 30.707031 29.710938 30.203125 29.554688 29.996094 29.242188 C 29.878906 29.070312 29.820312 28.648438 29.820312 27.96875 C 29.820312 27.28125 29.886719 26.84375 30.019531 26.65625 C 30.230469 26.367188 30.730469 26.222656 31.515625 26.222656 C 32.300781 26.222656 32.804688 26.359375 33.035156 26.632812 C 33.214844 26.839844 33.304688 27.289062 33.304688 27.96875 C 33.304688 28.589844 33.230469 29.003906 33.082031 29.214844 Z M 33.304688 26.289062 L 33.28125 26.296875 C 33 25.882812 32.335938 25.675781 31.292969 25.675781 C 30.292969 25.675781 29.625 25.871094 29.277344 26.265625 C 28.996094 26.582031 28.855469 27.152344 28.855469 27.96875 C 28.855469 28.789062 29.011719 29.359375 29.324219 29.683594 C 29.679688 30.066406 30.335938 30.257812 31.292969 30.257812 C 32.429688 30.257812 33.09375 30.054688 33.28125 29.652344 L 33.304688 29.652344 L 33.304688 30.683594 C 33.304688 31.085938 33.144531 31.355469 32.824219 31.492188 C 32.589844 31.59375 32.152344 31.648438 31.515625 31.648438 C 30.949219 31.648438 30.570312 31.601562 30.371094 31.511719 C 30.105469 31.390625 29.972656 31.132812 29.972656 30.734375 L 29.042969 30.734375 C 29.003906 31.324219 29.222656 31.730469 29.703125 31.953125 C 30.0625 32.113281 30.667969 32.191406 31.515625 32.191406 C 32.363281 32.191406 33.003906 32.097656 33.4375 31.910156 C 33.96875 31.675781 34.238281 31.285156 34.238281 30.734375 L 34.238281 25.726562 L 33.304688 25.726562 L 33.304688 26.289062 "/>
<path style=" stroke:none;fill-rule:nonzero;fill:rgb(100%,100%,100%);fill-opacity:1;" d="M 34.847656 30.207031 L 35.78125 30.207031 L 35.78125 23.808594 L 34.847656 23.808594 L 34.847656 30.207031 "/>
<path style=" stroke:none;fill-rule:nonzero;fill:rgb(100%,100%,100%);fill-opacity:1;" d="M 40.484375 29.429688 C 40.300781 29.617188 39.800781 29.710938 38.980469 29.710938 C 38.164062 29.710938 37.664062 29.617188 37.480469 29.429688 C 37.296875 29.242188 37.203125 28.753906 37.203125 27.96875 C 37.203125 27.179688 37.296875 26.691406 37.480469 26.503906 C 37.664062 26.316406 38.164062 26.222656 38.980469 26.222656 C 39.800781 26.222656 40.300781 26.316406 40.484375 26.503906 C 40.667969 26.691406 40.761719 27.179688 40.761719 27.96875 C 40.761719 28.753906 40.667969 29.242188 40.484375 29.429688 Z M 41.214844 26.109375 C 40.871094 25.820312 40.128906 25.675781 38.980469 25.675781 C 37.835938 25.675781 37.09375 25.820312 36.75 26.109375 C 36.410156 26.402344 36.238281 27.019531 36.238281 27.96875 C 36.238281 28.914062 36.410156 29.53125 36.75 29.820312 C 37.09375 30.109375 37.835938 30.257812 38.980469 30.257812 C 40.128906 30.257812 40.871094 30.109375 41.214844 29.820312 C 41.554688 29.53125 41.726562 28.914062 41.726562 27.96875 C 41.726562 27.019531 41.554688 26.402344 41.214844 26.109375 "/>
<path style=" stroke:none;fill-rule:nonzero;fill:rgb(100%,100%,100%);fill-opacity:1;" d="M 46.355469 29.300781 C 46.144531 29.574219 45.652344 29.710938 44.882812 29.710938 C 44.191406 29.710938 43.730469 29.597656 43.5 29.378906 C 43.269531 29.15625 43.152344 28.6875 43.152344 27.96875 C 43.152344 27.269531 43.238281 26.820312 43.410156 26.613281 C 43.632812 26.351562 44.121094 26.222656 44.882812 26.222656 C 45.621094 26.222656 46.089844 26.328125 46.289062 26.542969 C 46.492188 26.753906 46.59375 27.230469 46.59375 27.96875 C 46.59375 28.660156 46.511719 29.101562 46.355469 29.300781 Z M 45.144531 25.675781 C 44.035156 25.675781 43.371094 25.886719 43.152344 26.304688 L 43.128906 26.304688 L 43.128906 23.808594 L 42.199219 23.808594 L 42.199219 30.207031 L 43.128906 30.207031 L 43.128906 29.675781 L 43.152344 29.65625 C 43.433594 30.054688 44.097656 30.257812 45.144531 30.257812 C 46.140625 30.257812 46.8125 30.054688 47.15625 29.65625 C 47.421875 29.347656 47.554688 28.785156 47.554688 27.96875 C 47.554688 27.179688 47.417969 26.621094 47.144531 26.296875 C 46.800781 25.882812 46.132812 25.675781 45.144531 25.675781 "/>
<path style=" stroke:none;fill-rule:nonzero;fill:rgb(100%,100%,100%);fill-opacity:1;" d="M 51.609375 29.597656 C 51.363281 29.671875 50.9375 29.710938 50.324219 29.710938 C 49.71875 29.710938 49.328125 29.667969 49.148438 29.582031 C 48.894531 29.46875 48.769531 29.214844 48.769531 28.816406 C 48.769531 28.472656 48.890625 28.253906 49.136719 28.160156 C 49.324219 28.078125 49.71875 28.039062 50.324219 28.039062 C 51.03125 28.039062 51.492188 28.074219 51.703125 28.140625 C 52.03125 28.25 52.199219 28.492188 52.199219 28.875 C 52.199219 29.238281 52 29.480469 51.609375 29.597656 Z M 52.398438 25.898438 C 52.027344 25.75 51.386719 25.675781 50.464844 25.675781 C 49.625 25.675781 49.039062 25.734375 48.710938 25.855469 C 48.230469 26.027344 47.992188 26.371094 47.992188 26.894531 L 47.992188 26.988281 L 48.960938 26.988281 L 48.960938 26.835938 C 48.960938 26.5625 49.136719 26.382812 49.488281 26.296875 C 49.699219 26.246094 50.0625 26.222656 50.574219 26.222656 C 51.167969 26.222656 51.574219 26.265625 51.785156 26.359375 C 52.074219 26.484375 52.21875 26.734375 52.21875 27.117188 L 52.21875 27.945312 L 52.160156 27.945312 C 52.070312 27.644531 51.417969 27.492188 50.21875 27.492188 C 49.363281 27.492188 48.769531 27.574219 48.441406 27.730469 C 48.015625 27.9375 47.804688 28.328125 47.804688 28.902344 C 47.804688 29.441406 48.023438 29.8125 48.464844 30.019531 C 48.808594 30.175781 49.375 30.257812 50.160156 30.257812 C 50.6875 30.257812 51.078125 30.230469 51.339844 30.179688 C 51.753906 30.105469 52.039062 29.957031 52.199219 29.726562 L 52.21875 29.742188 L 52.21875 30.207031 L 53.152344 30.207031 L 53.152344 27.152344 C 53.152344 26.53125 52.902344 26.113281 52.398438 25.898438 "/>
<path style=" stroke:none;fill-rule:nonzero;fill:rgb(100%,100%,100%);fill-opacity:1;" d="M 53.785156 23.808594 L 53.785156 30.207031 L 54.71875 30.207031 L 54.71875 23.808594 L 53.785156 23.808594 "/>
</g>
</svg>
