<?xml version="1.0" encoding="UTF-8"?>
<svg xmlns="http://www.w3.org/2000/svg" xmlns:xlink="http://www.w3.org/1999/xlink" width="56pt" height="56pt" viewBox="0 0 56 56" version="1.1">
<g id="surface1">
<rect x="0" y="0" width="56" height="56" style="fill:rgb(95.666504%,95.776367%,96.775818%);fill-opacity:1;stroke:none;"/>
<path style=" stroke:none;fill-rule:nonzero;fill:rgb(92.936707%,10.89325%,14.437866%);fill-opacity:1;" d="M 4.609375 44.371094 C 4.609375 44.371094 11.292969 43.371094 19.3125 34.015625 C 27.332031 24.660156 38.359375 11.628906 38.359375 11.628906 L 51.390625 11.628906 L 41.699219 44.371094 L 4.609375 44.371094 "/>
<path style=" stroke:none;fill-rule:nonzero;fill:rgb(99.21875%,99.74823%,99.949646%);fill-opacity:1;" d="M 30.847656 38.355469 C 30.671875 38.933594 30.273438 39.707031 29.632812 40.476562 C 28.21875 42.160156 26.527344 41.6875 25.320312 39.027344 C 24.289062 36.773438 24.027344 34.367188 24.375 32.386719 C 24.597656 30.988281 25.101562 29.859375 25.855469 28.960938 C 26.4375 28.269531 26.988281 28 27.222656 28 L 27.707031 30.117188 C 27.480469 30.15625 27.050781 30.394531 26.589844 30.945312 C 26.128906 31.492188 25.8125 32.285156 25.71875 33.179688 C 25.578125 34.40625 25.816406 35.898438 26.457031 37.300781 C 27.183594 38.898438 28.152344 39.40625 29.097656 38.277344 C 29.46875 37.832031 29.789062 37.269531 29.964844 36.738281 L 30.847656 38.355469 "/>
<path style=" stroke:none;fill-rule:nonzero;fill:rgb(99.21875%,99.74823%,99.949646%);fill-opacity:1;" d="M 29.144531 25.292969 L 31.195312 31.789062 C 31.3125 32.179688 31.480469 32.601562 31.683594 33.046875 C 32.050781 33.855469 32.597656 34.167969 33.113281 33.554688 C 33.710938 32.84375 33.769531 31.621094 33.109375 29.53125 L 31.050781 23.019531 L 32.195312 21.65625 L 34.21875 28.066406 C 35.296875 31.480469 35.25 33.796875 33.792969 35.53125 C 32.691406 36.847656 31.53125 36.59375 30.554688 34.445312 C 30.355469 34.011719 30.164062 33.480469 29.992188 32.945312 L 28 26.65625 L 29.144531 25.292969 "/>
<path style=" stroke:none;fill-rule:nonzero;fill:rgb(99.21875%,99.74823%,99.949646%);fill-opacity:1;" d="M 37.703125 24.046875 L 36.613281 22.007812 C 36.339844 21.480469 35.941406 20.714844 35.636719 20.128906 L 35.621094 20.148438 C 35.765625 20.921875 35.96875 21.878906 36.089844 22.632812 L 36.542969 25.433594 Z M 36.957031 27.472656 L 37.511719 30.84375 L 36.296875 32.292969 L 34.320312 19.121094 L 35.789062 17.367188 L 41 26.683594 L 39.800781 28.113281 L 38.5 25.636719 L 36.957031 27.472656 "/>
<path style=" stroke:none;fill-rule:nonzero;fill:rgb(99.21875%,99.74823%,99.949646%);fill-opacity:1;" d="M 29.476562 44.371094 C 29.476562 44.371094 33.320312 43.28125 38.40625 36.1875 C 41.445312 31.949219 46.542969 28 46.542969 28 L 45.816406 30.457031 C 45.816406 30.457031 42.671875 31.664062 39 36.429688 C 35.332031 41.199219 34.320312 44.371094 34.320312 44.371094 "/>
</g>
</svg>
