<?xml version="1.0" encoding="UTF-8"?>
<svg xmlns="http://www.w3.org/2000/svg" xmlns:xlink="http://www.w3.org/1999/xlink" width="56pt" height="56pt" viewBox="0 0 56 56" version="1.1">
<g id="surface1">
<rect x="0" y="0" width="56" height="56" style="fill:rgb(95.666504%,95.776367%,96.775818%);fill-opacity:1;stroke:none;"/>
<path style=" stroke:none;fill-rule:nonzero;fill:rgb(17.225647%,8.073425%,7.788086%);fill-opacity:1;" d="M 37.136719 14.933594 C 37.632812 15.003906 37.898438 15.34375 38.113281 15.742188 C 38.621094 16.703125 39.128906 17.664062 39.636719 18.621094 C 40.296875 19.859375 40.957031 21.09375 41.625 22.328125 C 41.71875 22.503906 41.863281 22.660156 42.007812 22.800781 C 42.417969 23.1875 42.839844 23.5625 43.257812 23.941406 C 43.355469 24.035156 43.460938 24.121094 43.566406 24.214844 C 44.421875 24.023438 45.265625 23.839844 46.105469 23.640625 C 46.378906 23.578125 46.644531 23.46875 46.957031 23.363281 C 46.980469 23.410156 47.050781 23.484375 47.058594 23.5625 C 47.085938 23.839844 47.070312 24.109375 46.984375 24.378906 C 46.230469 26.714844 44.804688 28.511719 42.679688 29.75 C 42.621094 29.785156 42.5625 29.820312 42.503906 29.855469 C 42.492188 29.863281 42.484375 29.871094 42.429688 29.921875 C 42.40625 30.539062 42.382812 31.195312 42.355469 31.851562 C 42.347656 32.070312 42.34375 32.292969 42.347656 32.511719 C 42.363281 33.226562 41.988281 33.726562 41.410156 34.046875 C 40.960938 34.296875 40.683594 34.640625 40.570312 35.109375 C 40.296875 36.21875 39.890625 37.28125 39.496094 38.347656 C 39.160156 39.25 38.804688 40.144531 38.324219 40.980469 C 38.058594 41.441406 37.746094 41.882812 37.429688 42.3125 C 37.210938 42.621094 36.886719 42.816406 36.542969 42.96875 C 35.8125 43.304688 35.027344 43.433594 34.230469 43.496094 C 33.664062 43.539062 33.257812 43.273438 32.953125 42.816406 C 32.359375 41.925781 32.019531 40.957031 32.039062 39.875 C 32.042969 39.804688 32.039062 39.738281 32.039062 39.644531 C 31.59375 38.90625 31.136719 38.15625 30.554688 37.492188 C 30.386719 37.300781 30.316406 37.109375 30.320312 36.863281 C 30.332031 36.148438 30.320312 35.429688 30.328125 34.714844 C 30.332031 34.554688 30.386719 34.398438 30.421875 34.238281 C 30.441406 34.160156 30.476562 34.085938 30.511719 34.007812 C 30.722656 33.5 30.644531 33.0625 30.265625 32.644531 C 29.84375 32.171875 29.492188 31.640625 29.246094 31.050781 C 29.121094 30.746094 29.003906 30.433594 29.148438 30.066406 C 28.597656 29.5625 28.5625 28.96875 28.925781 28.332031 C 28.867188 27.867188 28.675781 27.488281 28.234375 27.21875 C 27.8125 27.269531 27.414062 27.082031 27.003906 26.894531 C 26.855469 26.992188 26.707031 27.09375 26.519531 27.21875 C 26.054688 27.1875 25.546875 27.171875 25.042969 27.113281 C 24.335938 27.035156 23.636719 26.894531 22.9375 26.75 C 22.105469 26.574219 21.5 26.121094 21.085938 25.425781 C 20.53125 24.492188 20.03125 23.53125 19.527344 22.570312 C 19.316406 22.167969 19.15625 21.742188 19.167969 21.273438 C 19.179688 20.878906 19.285156 20.511719 19.4375 20.15625 C 19.664062 19.628906 19.933594 19.121094 20.269531 18.644531 C 20.796875 17.90625 21.28125 17.140625 21.804688 16.398438 C 22.160156 15.894531 22.539062 15.402344 23.023438 15.003906 C 23.101562 14.9375 23.152344 14.832031 23.210938 14.742188 C 23.539062 14.246094 23.984375 14.019531 24.582031 14.125 C 24.71875 14.148438 24.855469 14.152344 24.992188 14.148438 C 25.265625 14.136719 25.539062 14.109375 25.8125 14.097656 C 26.34375 14.074219 26.839844 13.945312 27.28125 13.632812 C 27.675781 13.355469 28.089844 13.109375 28.488281 12.84375 C 29.117188 12.425781 29.789062 12.40625 30.457031 12.691406 C 31.3125 13.054688 32.148438 13.476562 32.996094 13.867188 C 33.644531 14.167969 34.285156 14.496094 34.953125 14.746094 C 35.640625 15 36.363281 15.070312 37.136719 14.933594 "/>
<path style=" stroke:none;fill-rule:nonzero;fill:rgb(96.261597%,50.474548%,7.606506%);fill-opacity:1;" d="M 39.152344 15.1875 C 38.917969 14.90625 38.703125 14.644531 38.460938 14.355469 C 38.636719 14.238281 38.816406 14.214844 39.003906 14.199219 C 40.730469 14.066406 42.460938 14.09375 44.191406 14.128906 C 44.894531 14.148438 45.609375 14.175781 46.304688 14.339844 C 46.621094 14.414062 46.960938 14.394531 47.28125 14.453125 C 48.667969 14.703125 50.035156 15.035156 51.292969 15.695312 C 52.152344 16.148438 52.894531 16.75 53.402344 17.601562 C 53.566406 17.871094 53.667969 18.167969 53.675781 18.488281 C 53.683594 19.078125 53.710938 19.667969 53.496094 20.234375 C 53.269531 20.828125 52.960938 21.371094 52.566406 21.867188 C 51.960938 22.640625 51.238281 23.289062 50.445312 23.859375 C 50.214844 24.027344 49.980469 24.195312 49.71875 24.378906 C 49.539062 24.144531 49.378906 23.929688 49.203125 23.695312 C 49.273438 23.613281 49.339844 23.53125 49.410156 23.453125 C 49.84375 22.992188 50.289062 22.546875 50.703125 22.070312 C 51.160156 21.546875 51.496094 20.945312 51.652344 20.269531 C 51.789062 19.664062 51.753906 19.070312 51.382812 18.511719 C 50.964844 17.890625 50.429688 17.410156 49.8125 17.023438 C 48.652344 16.300781 47.382812 15.859375 46.042969 15.59375 C 45.265625 15.4375 44.488281 15.320312 43.699219 15.253906 C 42.644531 15.164062 41.59375 15.09375 40.539062 15.113281 C 40.171875 15.125 39.804688 15.164062 39.433594 15.183594 C 39.351562 15.191406 39.273438 15.1875 39.152344 15.1875 "/>
<path style=" stroke:none;fill-rule:nonzero;fill:rgb(96.261597%,50.474548%,7.606506%);fill-opacity:1;" d="M 20.117188 17.152344 C 19.992188 17.507812 19.898438 17.769531 19.824219 17.96875 C 18.328125 18.464844 16.898438 18.917969 15.480469 19.410156 C 14.617188 19.710938 13.773438 20.0625 12.925781 20.410156 C 12.089844 20.75 11.253906 21.09375 10.4375 21.472656 C 9.65625 21.835938 8.894531 22.246094 8.128906 22.636719 C 7.007812 23.214844 5.933594 23.871094 4.902344 24.59375 C 4.476562 24.890625 4.0625 25.207031 3.664062 25.5 C 3.214844 25.5 2.792969 25.5 2.320312 25.5 C 2.382812 25.421875 2.414062 25.367188 2.460938 25.332031 C 3.679688 24.421875 4.949219 23.59375 6.25 22.808594 C 6.847656 22.445312 7.46875 22.128906 8.085938 21.796875 C 8.554688 21.546875 9.019531 21.28125 9.5 21.058594 C 10.503906 20.589844 11.519531 20.140625 12.53125 19.695312 C 13.972656 19.066406 15.453125 18.535156 16.953125 18.070312 C 17.96875 17.757812 18.992188 17.476562 20.117188 17.152344 "/>
<path style=" stroke:none;fill-rule:nonzero;fill:rgb(17.225647%,8.073425%,7.788086%);fill-opacity:1;" d="M 42.089844 36.429688 C 43.753906 35.300781 43.582031 35.441406 44.316406 34.394531 C 44.621094 34.972656 44.75 35.578125 44.671875 36.222656 C 44.664062 36.289062 44.640625 36.355469 44.613281 36.417969 C 44.207031 37.453125 43.890625 38.511719 43.660156 39.597656 C 43.640625 39.707031 43.609375 39.816406 43.570312 39.914062 C 43.449219 40.21875 43.28125 40.484375 42.914062 40.519531 C 42.496094 40.558594 42.152344 40.421875 41.925781 40.058594 C 41.710938 39.707031 41.671875 39.308594 41.722656 38.90625 C 41.785156 38.445312 41.902344 37.992188 42.097656 37.570312 C 42.191406 37.371094 42.203125 37.179688 42.15625 36.96875 C 42.117188 36.796875 42.109375 36.617188 42.089844 36.429688 "/>
<path style=" stroke:none;fill-rule:nonzero;fill:rgb(17.225647%,8.073425%,7.788086%);fill-opacity:1;" d="M 17.378906 23.421875 C 17.238281 23.347656 17.089844 23.265625 16.949219 23.191406 C 16.9375 22.972656 16.925781 22.796875 16.917969 22.644531 C 16.769531 22.496094 16.640625 22.363281 16.515625 22.238281 C 16.601562 21.890625 16.796875 21.707031 17.121094 21.597656 C 17.488281 21.679688 17.851562 21.832031 18.136719 22.121094 C 18.363281 22.355469 18.375 22.542969 18.214844 22.828125 C 18.0625 23.097656 17.898438 23.21875 17.378906 23.421875 "/>
</g>
</svg>
