<?xml version="1.0" encoding="UTF-8"?>
<svg xmlns="http://www.w3.org/2000/svg" xmlns:xlink="http://www.w3.org/1999/xlink" width="56pt" height="56pt" viewBox="0 0 56 56" version="1.1">
<g id="surface1">
<rect x="0" y="0" width="56" height="56" style="fill:rgb(95.66803%,95.779419%,96.777344%);fill-opacity:1;stroke:none;"/>
<path style=" stroke:none;fill-rule:nonzero;fill:rgb(14.840698%,26.86615%,55.343628%);fill-opacity:1;" d="M 17.445312 22.03125 L 10.371094 31.027344 C 10.371094 31.027344 8.789062 32.933594 12.355469 35.222656 L 15.164062 31.605469 L 15.757812 32.039062 L 13.066406 35.789062 L 15.722656 37.707031 L 13.695312 40.28125 C 13.695312 40.28125 12.613281 41.722656 13.882812 43.25 L 13.898438 43.320312 L 10.015625 48.636719 C 10.015625 48.636719 9.699219 49.050781 9.660156 49.226562 C 9.625 49.402344 9.589844 49.558594 9.660156 49.617188 C 9.738281 49.667969 9.90625 49.75 10.242188 49.425781 C 10.570312 49.089844 14.980469 44.75 14.980469 44.75 C 14.980469 44.75 15.144531 44.414062 15.683594 44.691406 C 16.222656 44.964844 16.726562 45.28125 17.878906 44.34375 C 19.027344 43.40625 21.316406 40.078125 21.316406 40.078125 L 21.5 40.101562 L 21.820312 44.558594 L 27.894531 44.578125 L 36 50.679688 L 37.128906 50.625 L 23.949219 40.257812 L 24.40625 39.78125 L 27.375 42.078125 L 24.828125 22.066406 L 17.445312 22.03125 "/>
<path style=" stroke:none;fill-rule:nonzero;fill:rgb(24.723816%,59.890747%,22.45636%);fill-opacity:1;" d="M 31.234375 38.050781 L 28.046875 38.144531 L 28.714844 42.855469 C 31.042969 42.253906 33.179688 39.996094 33.179688 39.996094 Z M 33.335938 34.921875 L 31.785156 37.386719 L 33.757812 39.207031 C 35.144531 37.679688 35.644531 34.921875 35.644531 34.921875 Z M 18.445312 34.132812 L 15.617188 37.628906 C 17.734375 39.195312 18.960938 37.351562 18.960938 37.351562 C 20.289062 35.75 18.445312 34.132812 18.445312 34.132812 Z M 27.257812 32.460938 L 27.953125 37.292969 L 31.207031 37.230469 L 32.847656 34.496094 L 31.085938 32.585938 Z M 35.035156 29.300781 L 32.757812 29.394531 L 31.539062 32.035156 L 33.335938 34.074219 L 35.855469 34.074219 C 36.214844 31.226562 35.035156 29.300781 35.035156 29.300781 Z M 26.40625 26.597656 L 27.132812 31.609375 L 30.628906 31.792969 L 31.964844 29.027344 L 29.808594 26.628906 Z M 31.207031 24.441406 L 30.597656 26.261719 L 32.605469 28.601562 L 34.882812 28.542969 C 34.882812 28.542969 33.859375 25.753906 31.207031 24.441406 Z M 25.890625 22.527344 L 26.3125 25.714844 L 29.808594 25.808594 L 30.414062 23.953125 C 30.414062 23.953125 28.40625 22.542969 25.890625 22.527344 Z M 18.71875 11.769531 C 16.054688 11.738281 14.492188 11.980469 14.492188 11.980469 C 12.65625 12.222656 12 12.742188 12 12.742188 C 9.949219 14.019531 10.179688 17.148438 10.179688 17.148438 L 12.214844 17.085938 L 12.246094 17.421875 C 12.382812 18.742188 13.671875 18.726562 13.671875 18.726562 C 16.058594 18.511719 16.679688 18.847656 16.679688 18.847656 C 17.527344 19.015625 17.53125 19.761719 17.53125 19.761719 L 24.765625 19.699219 C 24.765625 19.699219 24.386719 14.207031 23.578125 13.015625 C 22.914062 12.046875 21.726562 11.890625 21.726562 11.890625 C 20.613281 11.800781 19.605469 11.78125 18.71875 11.769531 "/>
<path style=" stroke:none;fill-rule:nonzero;fill:rgb(77.087402%,10.951233%,18.315125%);fill-opacity:1;" d="M 22.152344 45.40625 C 21.988281 45.40625 21.929688 45.617188 21.878906 45.773438 L 21.847656 50.054688 L 21.878906 50.175781 L 21.878906 50.207031 L 21.96875 50.269531 L 24.671875 50.300781 C 24.800781 50.300781 24.902344 50.199219 24.945312 50.085938 C 24.902344 49.691406 24.921875 49.296875 25.035156 48.902344 L 25.097656 48.902344 C 25.621094 49.644531 26.445312 50.070312 27.285156 50.300781 L 31.175781 50.359375 L 31.328125 50.269531 L 31.386719 50.023438 C 31.429688 49.570312 31.453125 49.082031 31.417969 48.625 C 31.472656 48.484375 31.371094 48.375 31.234375 48.324219 C 31.058594 48.261719 30.863281 48.332031 30.691406 48.324219 C 30.167969 48.277344 29.636719 48.117188 29.199219 47.804688 C 28.71875 47.472656 28.304688 47.007812 28.105469 46.4375 C 28 46.175781 27.972656 45.902344 27.925781 45.617188 L 27.800781 45.5 Z M 21.269531 27.78125 L 24.640625 32.949219 C 24.640625 32.949219 25.621094 31.433594 24.398438 29.484375 C 24.398438 29.484375 23.320312 27.839844 21.269531 27.78125 Z M 20.964844 27.78125 C 18.722656 27.675781 17.804688 29.210938 17.804688 29.210938 C 16.695312 31.179688 17.867188 32.613281 17.867188 32.613281 Z M 20.054688 26.109375 L 20.417969 26.691406 L 21.785156 26.691406 L 22.089844 26.109375 Z M 19.171875 24.742188 L 19.660156 25.414062 L 22.515625 25.472656 L 22.972656 24.742188 Z M 18.171875 23.285156 L 18.65625 24.015625 L 23.546875 24.078125 L 23.914062 23.347656 Z M 18.59375 5.328125 C 12.863281 5.441406 8.78125 9.398438 8.78125 9.398438 L 12.335938 12.832031 C 13.941406 11.757812 20.722656 12.253906 20.722656 12.253906 C 23.195312 12.160156 23.425781 13.53125 23.425781 13.53125 C 23.976562 14.75 24.523438 19.671875 24.523438 19.671875 L 17.257812 19.699219 C 16.769531 20.945312 17.441406 22.039062 17.441406 22.039062 L 27.710938 22.101562 L 27.863281 22.101562 C 28.199219 22.0625 28.878906 21.503906 29.199219 21.371094 C 29.882812 21.089844 30.558594 20.664062 30.992188 20.03125 C 31.09375 19.882812 31.167969 19.734375 31.296875 19.609375 C 31.71875 19.183594 32.332031 18.96875 32.90625 18.941406 C 33.753906 18.890625 34.558594 19.277344 35.398438 19.335938 C 36.09375 19.382812 36.816406 19.296875 37.433594 18.941406 C 38.070312 18.574219 38.558594 17.980469 38.921875 17.300781 C 39.105469 16.945312 39.199219 16.519531 39.441406 16.207031 C 39.582031 16.015625 39.75 15.847656 39.957031 15.75 C 40.308594 15.589844 40.710938 15.59375 41.082031 15.6875 C 41.605469 16 42.164062 16.246094 42.753906 16.328125 C 43.191406 16.386719 43.632812 16.34375 44.027344 16.144531 C 44.230469 16.039062 44.433594 15.867188 44.578125 15.6875 C 44.78125 15.445312 44.863281 15.121094 44.941406 14.804688 L 45.457031 11.523438 C 45.507812 11.21875 45.609375 10.9375 45.699219 10.644531 C 45.8125 10.277344 45.871094 9.898438 46.035156 9.550781 C 46.351562 8.90625 46.769531 8.332031 47.21875 7.789062 L 47.21875 7.695312 C 46.972656 7.636719 46.714844 7.660156 46.460938 7.667969 C 45.644531 7.695312 44.828125 7.832031 44.027344 8 C 42.453125 8.355469 40.929688 9 39.65625 10.066406 C 39.433594 10.25 39.222656 10.472656 39.015625 10.675781 L 38.773438 10.855469 C 37.753906 11.105469 36.824219 11.722656 36.191406 12.617188 C 36.035156 12.832031 35.882812 13.050781 35.765625 13.289062 C 35.695312 13.421875 35.667969 13.5625 35.609375 13.714844 C 35.5 14.003906 35.359375 14.292969 35.246094 14.59375 C 35.109375 14.933594 34.851562 15.238281 34.546875 15.414062 C 34.269531 15.570312 33.917969 15.617188 33.605469 15.660156 C 32.800781 15.769531 31.996094 15.753906 31.175781 15.6875 C 30.363281 15.753906 29.527344 15.984375 28.835938 16.480469 C 28.582031 16.664062 28.351562 16.898438 28.136719 17.148438 C 27.769531 17.570312 27.539062 18.113281 27.105469 18.453125 C 25.632812 19.613281 25.429688 19.703125 25.070312 19.671875 L 25.007812 19.09375 L 31.144531 12.679688 L 31.023438 12.652344 C 29.574219 13.726562 29.109375 11.738281 29.109375 11.738281 C 28.507812 9.441406 26.433594 7.789062 26.433594 7.789062 C 23.46875 5.058594 18.59375 5.328125 18.59375 5.328125 "/>
<path style=" stroke:none;fill-rule:nonzero;fill:rgb(14.840698%,26.86615%,55.343628%);fill-opacity:1;" d="M 14.949219 13.804688 C 14.949219 13.804688 13.804688 13.742188 13.703125 14.988281 L 16.316406 14.960938 C 16.316406 14.960938 16.1875 13.761719 14.949219 13.804688 Z M 18.230469 11.433594 C 15.847656 11.433594 14.476562 11.644531 14.460938 11.648438 C 12.578125 11.894531 11.859375 12.460938 11.820312 12.496094 C 10.933594 13.066406 10.433594 13.953125 10.179688 14.777344 C 9.917969 15.613281 9.875 16.40625 9.875 16.84375 C 9.875 17.050781 9.875 17.171875 9.875 17.175781 L 9.90625 17.480469 L 11.941406 17.390625 L 11.972656 17.449219 C 12.046875 18.222656 12.480469 18.660156 12.882812 18.847656 C 13.289062 19.046875 13.648438 19.03125 13.671875 19.03125 L 13.703125 19.03125 C 14.300781 18.980469 14.777344 18.96875 15.160156 18.96875 C 15.730469 18.96875 16.105469 19.019531 16.316406 19.0625 L 16.5 19.121094 L 16.589844 19.121094 L 16.621094 19.152344 C 16.960938 19.222656 17.058594 19.382812 17.136719 19.519531 L 17.226562 19.699219 L 17.226562 19.761719 L 17.835938 19.761719 C 17.835938 19.730469 17.824219 19.492188 17.683594 19.214844 C 17.554688 18.945312 17.269531 18.652344 16.800781 18.542969 C 16.738281 18.515625 16.359375 18.332031 15.160156 18.332031 C 14.753906 18.332031 14.253906 18.371094 13.640625 18.421875 C 13.542969 18.417969 13.265625 18.351562 13.035156 18.210938 C 12.8125 18.0625 12.609375 17.847656 12.546875 17.390625 C 12.625 17.390625 12.644531 17.390625 12.792969 17.390625 C 13.269531 17.390625 14.054688 17.363281 14.796875 17.269531 C 15.167969 17.222656 15.519531 17.152344 15.832031 17.054688 C 16.136719 16.953125 16.398438 16.835938 16.589844 16.601562 L 16.132812 16.207031 C 16.089844 16.273438 15.90625 16.367188 15.648438 16.449219 C 14.867188 16.703125 13.480469 16.753906 12.792969 16.753906 C 12.523438 16.753906 12.367188 16.753906 12.367188 16.753906 L 10.484375 16.84375 C 10.484375 16.453125 10.519531 15.703125 10.757812 14.960938 C 10.988281 14.214844 11.410156 13.480469 12.152344 13.015625 L 12.183594 13.015625 C 12.222656 12.984375 12.871094 12.507812 14.554688 12.285156 L 14.796875 12.253906 C 15.285156 12.199219 16.472656 12.070312 18.230469 12.070312 C 19.222656 12.070312 20.40625 12.121094 21.726562 12.222656 L 21.753906 12.222656 C 21.953125 12.253906 22.84375 12.460938 23.335938 13.199219 C 23.488281 13.410156 23.648438 13.960938 23.792969 14.625 C 24.011719 15.621094 24.195312 16.914062 24.308594 17.9375 C 24.414062 18.957031 24.457031 19.699219 24.460938 19.699219 L 25.070312 19.671875 C 25.070312 19.664062 24.964844 18.277344 24.765625 16.753906 C 24.664062 15.984375 24.554688 15.171875 24.398438 14.472656 C 24.246094 13.777344 24.070312 13.210938 23.824219 12.832031 C 23.054688 11.730469 21.816406 11.59375 21.785156 11.585938 L 21.753906 11.585938 C 20.421875 11.480469 19.234375 11.433594 18.230469 11.433594 "/>
</g>
</svg>
