<?xml version="1.0" encoding="UTF-8"?>
<svg xmlns="http://www.w3.org/2000/svg" xmlns:xlink="http://www.w3.org/1999/xlink" width="56pt" height="56pt" viewBox="0 0 56 56" version="1.1">
<g id="surface1">
<rect x="0" y="0" width="56" height="56" style="fill:rgb(20.462036%,22.950745%,50.70343%);fill-opacity:1;stroke:none;"/>
<path style=" stroke:none;fill-rule:nonzero;fill:rgb(100%,100%,100%);fill-opacity:1;" d="M 7.671875 27.144531 L 7.671875 37.042969 L 2.5 37.042969 L 2.5 18.957031 L 7.363281 18.957031 C 7.363281 18.957031 8.039062 18.96875 8.800781 19.460938 C 9.453125 19.886719 9.675781 20.375 9.675781 20.375 L 13.929688 28.226562 C 13.929688 28.226562 13.957031 28.304688 13.984375 28.394531 C 14.039062 28.5625 14.097656 28.730469 14.097656 28.730469 L 14.097656 18.957031 L 19.265625 18.957031 L 19.265625 37.042969 L 14.527344 37.042969 C 14.527344 37.042969 13.773438 37.015625 13.183594 36.640625 C 12.386719 36.136719 12.117188 35.613281 12.117188 35.613281 L 7.90625 27.835938 C 7.90625 27.835938 7.828125 27.6875 7.792969 27.609375 C 7.753906 27.535156 7.671875 27.144531 7.671875 27.144531 "/>
<path style=" stroke:none;fill-rule:nonzero;fill:rgb(100%,100%,100%);fill-opacity:1;" d="M 48.363281 24.105469 L 48.363281 27.964844 L 43.863281 27.964844 C 43.863281 27.964844 44.367188 26.082031 45.316406 25.1875 C 46.570312 24.007812 48.363281 24.105469 48.363281 24.105469 M 38.882812 35.039062 C 39.835938 34.085938 40.5625 33.105469 40.5625 33.105469 L 48.363281 33.105469 L 48.363281 37.042969 L 53.5 37.042969 L 53.5 18.957031 L 47.566406 18.957031 C 47.566406 18.957031 43.128906 18.925781 40.355469 23.078125 C 39.535156 24.308594 39.257812 26.0625 37.558594 28.507812 C 36.15625 30.527344 34.742188 31.808594 34.742188 31.808594 L 26.03125 31.808594 C 26.03125 31.808594 25.761719 30.617188 25.761719 28.003906 C 25.761719 25.375 26.03125 24.097656 26.03125 24.097656 L 37.128906 24.097656 L 37.128906 18.957031 L 23.992188 18.957031 C 23.992188 18.957031 22.210938 19.03125 21.539062 20.46875 C 21.03125 21.550781 20.59375 24.570312 20.59375 28.003906 C 20.59375 31.644531 21.144531 34.738281 21.539062 35.441406 C 22.425781 37.015625 23.980469 36.949219 23.980469 36.949219 L 36.683594 36.949219 C 36.683594 36.949219 37.832031 36.089844 38.882812 35.039062 "/>
</g>
</svg>
