<?xml version="1.0" encoding="UTF-8"?>
<svg xmlns="http://www.w3.org/2000/svg" xmlns:xlink="http://www.w3.org/1999/xlink" width="56pt" height="56pt" viewBox="0 0 56 56" version="1.1">
<g id="surface1">
<rect x="0" y="0" width="56" height="56" style="fill:rgb(95.666504%,95.776367%,96.775818%);fill-opacity:1;stroke:none;"/>
<path style=" stroke:none;fill-rule:nonzero;fill:rgb(100%,99.995422%,99.925232%);fill-opacity:1;" d="M 36.324219 38.710938 L 36.320312 38.707031 C 36.21875 38.589844 36.113281 38.472656 36.007812 38.351562 C 35.265625 37.535156 34.335938 37.019531 33.3125 36.640625 C 33.1875 36.402344 33.066406 36.164062 32.941406 35.929688 C 32.828125 35.71875 32.714844 35.503906 32.601562 35.292969 C 32.492188 35.089844 32.386719 34.890625 32.28125 34.6875 C 32.597656 34.65625 32.914062 34.625 33.230469 34.59375 C 33.945312 34.644531 34.183594 35.285156 34.59375 35.710938 C 35.195312 36.332031 35.601562 37.179688 36.574219 37.355469 C 37.289062 37.84375 38.007812 38.328125 38.847656 38.898438 C 39.796875 37.355469 40.65625 35.964844 41.585938 34.457031 C 41.175781 34.351562 40.964844 34.296875 40.757812 34.246094 C 40.757812 33.949219 40.757812 33.652344 40.757812 33.28125 C 40.316406 33.28125 40.011719 33.28125 39.710938 33.28125 C 39.191406 33.207031 38.679688 33.28125 38.15625 32.992188 C 37.628906 32.699219 36.949219 32.6875 36.335938 32.554688 C 35.996094 31.707031 35.261719 31.921875 34.605469 31.914062 C 34.507812 31.910156 34.410156 31.902344 34.308594 31.894531 C 34.296875 31.792969 34.289062 31.695312 34.289062 31.597656 C 34.484375 30.941406 35.054688 31.109375 35.402344 31.246094 C 37.308594 31.980469 39.4375 31.875 41.285156 32.828125 C 41.59375 32.984375 42.023438 32.910156 42.519531 32.957031 C 43.179688 31.316406 43.816406 29.734375 44.449219 28.15625 C 44.328125 27.503906 43.804688 27.941406 43.492188 27.804688 C 43.46875 27.597656 43.453125 27.390625 43.421875 27.109375 C 42.308594 27.109375 41.296875 27.109375 40.289062 27.109375 C 40.84375 26.558594 41.582031 26.507812 42.273438 26.511719 C 43.316406 26.511719 44.355469 26.648438 45.496094 26.734375 C 46.71875 24.683594 47.976562 22.585938 49.230469 20.484375 C 48.972656 20.332031 48.753906 20.203125 48.539062 20.074219 C 49.34375 18.550781 49.34375 18.550781 49.035156 17.347656 C 49.414062 17.289062 49.789062 17.230469 50.207031 17.167969 C 50.359375 15.789062 50.523438 14.464844 50.648438 13.136719 C 50.683594 12.765625 50.785156 12.316406 50.25 12.160156 C 50.03125 11.929688 49.816406 11.703125 49.597656 11.472656 C 49.574219 11.269531 49.550781 11.070312 49.519531 10.785156 C 49.054688 10.820312 48.65625 10.851562 48.273438 10.882812 C 48.257812 11.152344 48.246094 11.3125 48.238281 11.476562 C 47.804688 11.769531 47.371094 12.066406 46.921875 12.371094 C 46.890625 12.722656 46.851562 13.085938 46.828125 13.335938 C 46.4375 13.5625 46.164062 13.71875 45.894531 13.878906 C 45.765625 13.882812 45.640625 13.886719 45.511719 13.894531 C 45.511719 13.574219 45.511719 13.253906 45.511719 12.984375 C 44.457031 13.050781 43.507812 13.09375 42.558594 13.179688 C 42.398438 13.195312 42.25 13.390625 42.09375 13.503906 C 40.144531 14.996094 38.988281 17.191406 37.339844 18.945312 C 37.117188 18.957031 36.894531 18.96875 36.671875 18.980469 C 36.417969 18.96875 36.164062 18.960938 35.910156 18.949219 C 36.292969 18.554688 36.675781 18.15625 37.0625 17.765625 C 37.851562 16.96875 38.003906 15.917969 38.441406 14.679688 C 37.898438 14.941406 37.621094 15.074219 37.34375 15.210938 C 37.300781 14.871094 37.253906 14.53125 37.1875 14.023438 C 36.652344 14.339844 36.578125 15.035156 35.980469 14.886719 C 35.742188 14.882812 35.5 14.875 35.257812 14.867188 C 35.273438 14.648438 35.289062 14.425781 35.304688 14.203125 C 35.410156 13.972656 35.515625 13.746094 35.617188 13.515625 C 35.804688 13.097656 36.273438 12.734375 35.902344 12.242188 C 35.578125 12.34375 35.273438 12.4375 34.96875 12.53125 C 35.082031 12.234375 35.21875 11.945312 35.292969 11.640625 C 35.328125 11.503906 35.234375 11.332031 35.207031 11.21875 C 34.777344 11.359375 34.375 11.488281 33.972656 11.621094 C 33.949219 11.789062 33.929688 11.953125 33.90625 12.121094 C 33.199219 11.871094 33.386719 12.800781 32.917969 12.867188 C 32.417969 12.894531 32.613281 13.253906 32.601562 13.515625 C 32.132812 14.535156 31.664062 15.550781 31.195312 16.566406 C 31.058594 16.429688 30.925781 16.292969 30.792969 16.15625 C 31.097656 15.378906 31.375 14.585938 31.722656 13.832031 C 31.929688 13.382812 32.003906 12.988281 31.726562 12.574219 C 31.546875 12.535156 31.378906 12.496094 31.214844 12.460938 C 30.660156 11.902344 30.105469 11.339844 29.574219 10.804688 C 28.785156 10.804688 28.058594 10.804688 27.238281 10.804688 C 26.765625 11.375 26.089844 11.910156 25.808594 12.605469 C 25.492188 13.394531 25.511719 14.320312 25.421875 15.191406 C 25.273438 16.617188 25.160156 18.046875 25.015625 19.472656 C 25.007812 19.53125 24.84375 19.570312 24.753906 19.617188 C 24.457031 17.726562 24.160156 15.832031 23.851562 13.863281 C 23.613281 13.863281 23.34375 13.863281 23.070312 13.863281 C 23.0625 13.746094 23.050781 13.625 23.042969 13.507812 C 23.046875 13.402344 23.050781 13.300781 23.054688 13.199219 C 23.421875 12.890625 23.785156 12.585938 24.242188 12.199219 C 23.738281 11.742188 23.386719 11.429688 23.035156 11.117188 L 23.046875 11.109375 C 23.144531 10.570312 22.859375 10.394531 22.375 10.410156 C 22.207031 10.199219 22.039062 9.984375 21.828125 9.722656 C 21.167969 10.339844 20.550781 10.9375 19.90625 11.503906 C 19.433594 11.917969 19.898438 12.832031 19.015625 13.070312 C 18.871094 13.109375 18.898438 13.773438 18.847656 14.132812 C 18.625 14.171875 18.460938 14.199219 18.296875 14.230469 C 18.089844 14.230469 17.882812 14.230469 17.507812 14.230469 C 17.726562 14.960938 17.402344 15.609375 17.738281 16.230469 C 18.066406 16.230469 18.339844 16.230469 18.617188 16.230469 C 19.421875 17.113281 20.222656 17.992188 20.929688 18.765625 C 20.929688 19.351562 20.929688 19.789062 20.929688 20.429688 C 20.476562 20.257812 20.089844 20.203125 19.824219 19.996094 C 18.835938 19.21875 17.890625 18.386719 16.925781 17.578125 C 16.902344 17.375 16.878906 17.175781 16.847656 16.902344 C 16.351562 16.949219 15.957031 16.988281 15.578125 17.027344 C 15.578125 17.304688 15.578125 17.46875 15.578125 17.628906 C 15.367188 18.054688 15.15625 18.484375 14.839844 19.132812 C 14.855469 19.347656 14.894531 19.820312 14.933594 20.277344 C 15.207031 20.308594 15.371094 20.328125 15.535156 20.34375 C 15.535156 20.511719 15.535156 20.675781 15.535156 20.875 C 16.667969 21.386719 17.792969 21.894531 18.921875 22.398438 C 18.894531 22.605469 18.867188 22.808594 18.84375 23.019531 C 18.191406 23.019531 17.636719 23.019531 17.101562 23.019531 C 16.964844 22.800781 16.851562 22.621094 16.679688 22.351562 C 16.238281 22.351562 15.738281 22.351562 15.238281 22.351562 C 15.023438 21.910156 14.722656 21.605469 14.175781 21.722656 C 13.839844 21.707031 13.507812 21.691406 13.171875 21.675781 C 12.945312 21.429688 12.714844 21.1875 12.324219 20.765625 C 12.234375 21.238281 12.191406 21.46875 12.148438 21.695312 C 11.257812 21.941406 11.546875 23.074219 10.828125 23.484375 C 10.710938 23.554688 10.847656 24.066406 10.863281 24.367188 C 11.140625 24.386719 11.304688 24.398438 11.46875 24.410156 C 11.507812 24.671875 11.316406 25.050781 11.808594 25.082031 C 11.96875 25.199219 12.117188 25.398438 12.289062 25.417969 C 13.816406 25.601562 15.347656 25.753906 16.878906 25.914062 C 16.984375 26.058594 17.089844 26.203125 17.292969 26.476562 C 15.21875 26.476562 13.339844 26.476562 11.457031 26.476562 C 10.890625 26.480469 10.324219 26.480469 9.757812 26.484375 C 9.453125 26.484375 9.148438 26.484375 8.742188 26.484375 C 8.742188 27.113281 8.742188 27.636719 8.742188 28.160156 C 8.730469 28.269531 8.71875 28.382812 8.710938 28.492188 C 8.183594 28.445312 7.980469 28.679688 8.085938 29.195312 L 8.058594 29.1875 C 7.855469 29.210938 7.652344 29.226562 7.363281 29.257812 C 7.402344 29.726562 7.433594 30.121094 7.464844 30.53125 C 7.738281 30.53125 7.898438 30.53125 8.0625 30.53125 C 8.171875 30.539062 8.28125 30.550781 8.390625 30.570312 C 8.390625 30.785156 8.335938 31.027344 8.40625 31.21875 C 8.453125 31.335938 8.6875 31.386719 8.839844 31.46875 C 9.476562 31.4375 10.113281 31.410156 10.753906 31.382812 C 10.757812 31.554688 10.765625 31.726562 10.769531 31.898438 C 10.546875 31.90625 10.328125 31.910156 10.105469 31.917969 C 9.1875 31.917969 8.273438 31.921875 7.355469 31.925781 L 7.351562 31.917969 C 7.273438 31.699219 7.222656 31.300781 7.109375 31.28125 C 6.597656 31.199219 6.71875 31.621094 6.703125 31.917969 C 6.054688 32.324219 6.019531 32.964844 6.03125 33.632812 C 6.039062 34.136719 6.03125 34.640625 6.03125 35.046875 C 5.746094 35.40625 5.542969 35.664062 5.351562 35.90625 C 5.730469 36.792969 5.066406 37.636719 5.4375 38.53125 C 5.816406 38.882812 6.269531 39.296875 6.722656 39.714844 C 6.582031 39.972656 6.480469 40.160156 6.324219 40.445312 C 6.707031 41.035156 7.0625 41.703125 7.792969 42.054688 C 7.976562 42.308594 8.160156 42.566406 8.394531 42.894531 C 9.488281 42.421875 10.539062 41.882812 11.746094 42.148438 C 11.796875 42.160156 11.859375 42.140625 11.910156 42.121094 C 13.117188 41.664062 14.328125 41.207031 15.535156 40.75 C 16.0625 40.820312 16.191406 41.628906 16.847656 41.457031 C 16.988281 41.78125 17.128906 42.105469 17.269531 42.429688 C 17.394531 43.148438 17.9375 42.683594 18.28125 42.785156 C 18.515625 42.800781 18.753906 42.8125 18.992188 42.828125 C 18.992188 43.136719 18.992188 43.445312 18.992188 43.78125 C 19.785156 43.78125 20.449219 43.78125 21.421875 43.78125 C 21.984375 43.078125 22.683594 42.203125 23.234375 41.511719 C 23.953125 41.472656 24.339844 41.453125 24.726562 41.433594 C 25.222656 41.425781 25.066406 41.054688 25.089844 40.785156 C 25.304688 40.789062 25.523438 40.792969 25.738281 40.796875 C 25.738281 41.511719 25.738281 42.222656 25.738281 43.066406 C 26.042969 43.207031 26.367188 43.355469 26.691406 43.507812 C 27.140625 44.601562 27.289062 44.664062 28.453125 44.257812 C 28.480469 44.664062 28.511719 45.074219 28.542969 45.488281 C 28.894531 45.511719 29.15625 45.53125 29.414062 45.546875 C 29.488281 45.78125 29.558594 46.011719 29.644531 46.277344 C 30.4375 45.714844 30.4375 45.714844 30.613281 44.890625 C 30.757812 44.890625 30.902344 44.890625 31.042969 44.894531 C 31.136719 45.207031 31.226562 45.519531 31.34375 45.90625 C 31.644531 45.855469 31.898438 45.816406 32.332031 45.746094 C 32.070312 44.355469 31.761719 43.121094 30.878906 42.089844 L 30.902344 42.117188 C 30.777344 41.027344 30.351562 40.089844 29.515625 39.363281 L 29.542969 39.394531 C 29.527344 39.101562 29.644531 38.742188 29.179688 38.679688 L 29.207031 38.703125 C 29.183594 38.414062 29.292969 38.058594 28.835938 38 L 28.863281 38.023438 C 28.84375 37.484375 28.792969 36.945312 28.816406 36.410156 C 28.824219 36.265625 29.042969 36.128906 29.167969 35.988281 L 29.160156 36.03125 C 29.097656 36.53125 29.34375 36.726562 29.820312 36.691406 C 29.84375 37.015625 29.871094 37.339844 29.894531 37.660156 C 30 37.777344 30.105469 37.890625 30.210938 38.007812 C 30.882812 39.265625 31.535156 40.539062 32.242188 41.78125 C 32.464844 42.167969 32.539062 42.625 33.046875 42.90625 C 33.445312 43.125 33.164062 44.015625 33.886719 44.167969 C 34.050781 44.394531 34.214844 44.617188 34.503906 45.011719 C 35.511719 43.300781 36.457031 41.695312 37.535156 39.871094 C 37.238281 39.671875 36.964844 39.488281 36.691406 39.304688 C 36.675781 39.21875 36.667969 39.132812 36.664062 39.042969 C 36.550781 38.933594 36.4375 38.824219 36.324219 38.710938 "/>
<path style=" stroke:none;fill-rule:nonzero;fill:rgb(90.942383%,74.078369%,5.300903%);fill-opacity:1;" d="M 19.628906 32.589844 L 19.632812 32.578125 C 19.617188 32.371094 19.601562 32.164062 19.589844 32.015625 C 19.425781 31.949219 19.371094 31.898438 19.332031 31.910156 C 18.980469 32.03125 18.402344 31.554688 18.292969 32.304688 C 17.875 32.636719 17.492188 33.042969 17.027344 33.289062 C 15.832031 33.917969 14.832031 34.875 13.53125 35.324219 C 13.109375 35.324219 12.691406 35.324219 12.207031 35.324219 C 12.179688 35.585938 12.160156 35.789062 12.140625 35.992188 C 11.945312 36.007812 11.75 36.027344 11.511719 36.046875 C 11.492188 36.285156 11.476562 36.480469 11.460938 36.675781 C 11.015625 36.980469 10.566406 37.285156 10.121094 37.585938 C 10.039062 38.152344 9.980469 38.710938 10.605469 38.992188 C 10.773438 38.804688 10.933594 38.617188 11.09375 38.433594 C 11.355469 38.929688 11.726562 38.789062 12.0625 38.558594 C 12.21875 38.453125 12.347656 38.058594 12.402344 38.074219 C 13.28125 38.339844 13.5625 37.441406 14.167969 37.195312 C 14.515625 37.054688 14.839844 36.855469 15.160156 36.660156 C 15.492188 36.457031 15.800781 36.214844 16.128906 35.996094 C 17.027344 35.398438 18.109375 35.015625 18.59375 33.921875 L 18.585938 33.933594 C 18.894531 33.933594 19.203125 33.933594 19.574219 33.933594 C 19.59375 33.660156 19.609375 33.460938 19.625 33.257812 L 19.609375 33.25 C 19.902344 33.234375 20.332031 33.378906 20.253906 32.859375 C 20.238281 32.742188 19.847656 32.679688 19.628906 32.589844 Z M 40.289062 27.109375 C 41.296875 27.109375 42.308594 27.109375 43.421875 27.109375 C 43.453125 27.390625 43.46875 27.597656 43.492188 27.804688 C 43.28125 27.730469 43.066406 27.65625 42.808594 27.5625 C 42.808594 28.039062 42.808594 28.460938 42.808594 28.878906 C 42.8125 28.980469 42.800781 29.082031 42.773438 29.179688 C 42.578125 29.203125 42.378906 29.222656 42.117188 29.253906 C 42.117188 29.730469 42.117188 30.144531 42.117188 30.558594 L 42.113281 30.546875 C 41.917969 30.5625 41.722656 30.574219 41.476562 30.589844 C 41.457031 30.835938 41.441406 31.03125 41.425781 31.226562 C 41.410156 31.519531 41.523438 31.878906 41.050781 31.925781 C 39.851562 31.59375 38.660156 31.222656 37.453125 30.933594 C 36.207031 30.640625 34.941406 30.429688 33.738281 30.195312 C 33.53125 30.632812 33.398438 30.925781 33.261719 31.21875 C 33.273438 31.421875 33.289062 31.621094 33.308594 31.894531 C 33.6875 31.894531 33.996094 31.894531 34.308594 31.894531 C 34.410156 31.902344 34.507812 31.910156 34.605469 31.914062 C 35.042969 32.5 35.644531 32.65625 36.335938 32.554688 C 36.949219 32.6875 37.628906 32.699219 38.15625 32.992188 C 38.679688 33.28125 39.191406 33.207031 39.710938 33.28125 C 39.832031 33.625 39.953125 33.964844 40.078125 34.304688 C 39.742188 34.871094 39.40625 35.441406 39.074219 36.007812 C 38.5625 36.011719 38.730469 36.398438 38.699219 36.667969 L 38.699219 36.671875 C 38.527344 36.679688 38.359375 36.691406 38.3125 36.695312 C 38.03125 36.976562 37.816406 37.191406 37.601562 37.410156 C 37.261719 37.390625 36.917969 37.371094 36.574219 37.355469 C 35.601562 37.179688 35.195312 36.332031 34.59375 35.710938 C 34.183594 35.285156 33.945312 34.644531 33.230469 34.59375 C 33.234375 34.378906 33.242188 34.164062 33.25 33.949219 C 33.234375 33.742188 33.222656 33.535156 33.207031 33.261719 C 32.605469 33.261719 32.105469 33.230469 31.613281 33.277344 C 31.472656 33.292969 31.359375 33.53125 31.230469 33.664062 C 31.449219 33.996094 31.667969 34.332031 31.882812 34.664062 C 31.828125 35.128906 32.058594 35.402344 32.441406 35.621094 C 32.515625 35.46875 32.558594 35.382812 32.601562 35.292969 C 32.714844 35.503906 32.828125 35.71875 32.941406 35.929688 C 32.84375 36.148438 32.75 36.363281 32.628906 36.640625 C 32.898438 36.640625 33.105469 36.640625 33.3125 36.640625 C 34.335938 37.019531 35.265625 37.535156 36.007812 38.351562 C 36.113281 38.472656 36.21875 38.589844 36.320312 38.707031 L 36.324219 38.710938 C 36.4375 38.824219 36.550781 38.933594 36.664062 39.042969 C 36.667969 39.132812 36.675781 39.21875 36.691406 39.304688 C 36.554688 39.335938 36.421875 39.363281 36.289062 39.390625 C 36.191406 39.523438 36.09375 39.652344 35.996094 39.78125 C 35.730469 40.316406 35.4375 40.839844 35.210938 41.386719 C 34.816406 42.339844 33.902344 43.042969 33.886719 44.167969 C 33.164062 44.015625 33.445312 43.125 33.046875 42.90625 C 32.539062 42.625 32.464844 42.167969 32.242188 41.78125 C 31.535156 40.539062 30.882812 39.265625 30.210938 38.007812 C 30.105469 37.890625 30 37.777344 29.894531 37.660156 C 29.871094 37.339844 29.84375 37.015625 29.820312 36.691406 C 29.820312 36.496094 29.820312 36.300781 29.820312 36.03125 C 29.546875 36.03125 29.355469 36.03125 29.160156 36.03125 L 29.167969 35.988281 C 29.15625 35.675781 29.140625 35.367188 29.128906 35.054688 C 28.757812 34.460938 28.246094 34.453125 27.832031 35.039062 C 27.828125 35.570312 27.824219 36.097656 27.824219 36.628906 C 27.722656 36.824219 27.621094 37.015625 27.527344 37.191406 C 27.683594 37.460938 27.84375 37.738281 28.007812 38.023438 C 28.179688 38.023438 28.347656 38.023438 28.515625 38.023438 C 28.632812 38.023438 28.746094 38.023438 28.863281 38.023438 L 28.835938 38 C 28.847656 38.292969 28.683594 38.679688 29.207031 38.703125 L 29.179688 38.679688 C 29.175781 38.980469 29.023438 39.355469 29.542969 39.394531 L 29.515625 39.363281 C 29.691406 40.425781 30.054688 41.394531 30.902344 42.117188 L 30.878906 42.089844 C 30.945312 42.558594 31.046875 43.027344 31.074219 43.496094 C 31.101562 43.960938 31.054688 44.425781 31.042969 44.894531 C 30.902344 44.890625 30.757812 44.890625 30.613281 44.890625 C 30.269531 44.140625 29.882812 44.664062 29.507812 44.855469 C 29.390625 44.707031 29.179688 44.5625 29.167969 44.402344 C 29.121094 43.902344 29.152344 43.398438 29.152344 42.582031 C 28.917969 42.992188 28.867188 43.082031 28.820312 43.167969 C 28.707031 43.140625 28.589844 43.113281 28.476562 43.085938 C 28.097656 42.503906 27.617188 42.859375 27.160156 42.910156 C 27.148438 43.117188 27.132812 43.285156 27.121094 43.453125 C 26.980469 43.472656 26.835938 43.488281 26.691406 43.507812 C 26.367188 43.355469 26.042969 43.207031 25.738281 43.066406 C 25.738281 42.222656 25.738281 41.511719 25.738281 40.796875 C 25.738281 40.421875 25.738281 40.046875 25.738281 39.566406 C 25.566406 39.429688 25.328125 39.242188 25.089844 39.050781 C 25.082031 38.941406 25.074219 38.828125 25.058594 38.714844 C 25.070312 38.492188 25.078125 38.269531 25.089844 38.042969 C 25.292969 38.023438 25.496094 38 25.734375 37.972656 C 25.734375 37.21875 25.734375 36.5625 25.734375 35.90625 C 25.734375 35.636719 25.734375 35.363281 25.734375 35.023438 C 25.316406 35.023438 24.945312 35.023438 24.59375 35.023438 C 24.421875 35.375 24.261719 35.695312 24.097656 36.015625 C 23.679688 36.011719 23.710938 36.292969 23.714844 36.585938 C 23.722656 37.707031 23.71875 38.828125 23.71875 40.007812 C 23.21875 40.0625 22.800781 40.109375 22.390625 40.15625 C 22.378906 40.425781 22.371094 40.59375 22.359375 40.765625 C 22.132812 40.992188 21.902344 41.21875 21.671875 41.445312 C 21.480469 41.457031 21.285156 41.472656 21.042969 41.492188 C 21.023438 41.734375 21.007812 41.929688 20.992188 42.125 C 20.511719 42.886719 19.734375 42.8125 18.992188 42.828125 C 18.753906 42.8125 18.515625 42.800781 18.28125 42.785156 C 18.269531 42.449219 18.261719 42.105469 18.25 41.769531 C 18.367188 41.542969 18.484375 41.316406 18.597656 41.09375 C 18.652344 41.175781 18.703125 41.261719 18.753906 41.347656 C 18.796875 41.34375 18.839844 41.339844 18.882812 41.335938 C 18.800781 40.71875 19.914062 40.808594 19.625 40.070312 C 19.628906 39.847656 19.632812 39.625 19.636719 39.402344 C 19.800781 39.390625 19.96875 39.378906 20.023438 39.375 C 20.335938 38.90625 20.605469 38.496094 20.972656 37.949219 C 20.972656 37.765625 20.972656 37.378906 20.972656 36.992188 L 20.96875 36.992188 C 21.078125 36.875 21.1875 36.761719 21.292969 36.644531 L 21.296875 36.636719 C 21.839844 36.675781 21.628906 36.253906 21.695312 36 C 21.894531 35.980469 22.09375 35.964844 22.289062 35.945312 C 22.324219 35.519531 22.59375 35.117188 22.019531 34.96875 C 22.011719 34.742188 22.007812 34.519531 22 34.296875 C 22.101562 34.222656 22.203125 34.152344 22.507812 33.933594 C 21.835938 34.089844 21.300781 33.589844 20.988281 34.257812 C 20.65625 34.734375 20.324219 35.214844 19.988281 35.691406 C 19.917969 35.578125 19.847656 35.464844 19.640625 35.136719 C 19.640625 35.707031 19.640625 36.03125 19.640625 36.355469 C 19.082031 37.414062 18.613281 38.542969 17.933594 39.515625 C 17.496094 40.140625 17.675781 41.082031 16.847656 41.457031 C 16.191406 41.628906 16.0625 40.820312 15.535156 40.75 C 15.269531 40.40625 15.007812 40.066406 14.785156 39.777344 C 13.289062 40.335938 11.886719 40.855469 10.414062 41.402344 C 10.207031 41.3125 9.914062 41.183594 9.542969 41.023438 C 8.964844 41.363281 8.378906 41.710938 7.792969 42.054688 C 7.0625 41.703125 6.707031 41.035156 6.324219 40.445312 C 6.480469 40.160156 6.582031 39.972656 6.722656 39.714844 C 6.269531 39.296875 5.816406 38.882812 5.4375 38.53125 C 5.066406 37.636719 5.730469 36.792969 5.351562 35.90625 C 5.542969 35.664062 5.746094 35.40625 6.03125 35.046875 C 6.03125 34.640625 6.039062 34.136719 6.03125 33.632812 C 6.019531 32.964844 6.054688 32.324219 6.703125 31.917969 C 6.921875 31.917969 7.136719 31.917969 7.351562 31.917969 L 7.355469 31.925781 C 7.378906 32.132812 7.398438 32.339844 7.40625 32.414062 C 8.394531 32.449219 9.425781 32.925781 10.105469 31.917969 C 10.328125 31.910156 10.546875 31.90625 10.769531 31.898438 C 11.75 31.949219 12.707031 31.914062 13.511719 31.234375 C 13.839844 31.222656 14.171875 31.214844 14.503906 31.203125 C 15.195312 31.285156 15.800781 31.148438 16.226562 30.535156 C 16.558594 30.539062 16.898438 30.585938 17.21875 30.527344 C 17.363281 30.503906 17.46875 30.273438 17.59375 30.136719 C 17.828125 29.957031 18.058594 29.773438 18.378906 29.523438 C 18.140625 29.273438 17.957031 29.078125 17.886719 29.003906 C 16.585938 29.191406 15.390625 29.359375 14.199219 29.53125 C 13.851562 29.628906 13.367188 29.234375 13.160156 29.824219 C 12.71875 29.847656 12.28125 29.867188 11.839844 29.890625 C 11.398438 29.878906 10.949219 29.835938 10.511719 29.875 C 10.371094 29.886719 10.25 30.113281 10.121094 30.242188 C 9.777344 30.824219 9.191406 30.390625 8.753906 30.574219 C 8.632812 30.570312 8.511719 30.570312 8.390625 30.570312 C 8.28125 30.550781 8.171875 30.539062 8.0625 30.53125 C 8.0625 30.085938 8.058594 29.636719 8.058594 29.1875 L 8.085938 29.195312 C 8.503906 29.195312 8.917969 29.195312 9.355469 29.195312 C 9.355469 28.90625 9.355469 28.761719 9.355469 28.558594 C 9.121094 28.535156 8.914062 28.515625 8.710938 28.492188 C 8.71875 28.382812 8.730469 28.269531 8.742188 28.160156 C 8.96875 27.890625 9.226562 27.644531 9.40625 27.351562 C 9.570312 27.089844 9.644531 26.777344 9.757812 26.484375 C 10.324219 26.480469 10.890625 26.480469 11.457031 26.476562 C 12.042969 26.769531 13.347656 27.132812 13.855469 27.136719 C 15.039062 27.140625 16.222656 27.136719 17.332031 27.136719 C 17.84375 26.542969 18.300781 26.003906 18.777344 25.449219 C 18.855469 25.597656 18.90625 25.691406 18.953125 25.78125 C 18.960938 26.132812 18.96875 26.488281 18.976562 26.839844 C 18.972656 27.15625 18.96875 27.472656 18.96875 27.789062 C 18.960938 28.113281 18.914062 28.441406 18.960938 28.757812 C 18.984375 28.910156 19.179688 29.039062 19.296875 29.175781 C 19.992188 29.535156 19.363281 30.28125 19.808594 30.800781 C 19.933594 30.828125 20.136719 30.871094 20.335938 30.914062 C 20.785156 31.464844 21.234375 32.015625 21.683594 32.566406 C 21.722656 32.804688 21.761719 33.039062 21.796875 33.261719 C 22.171875 33.261719 22.433594 33.261719 22.699219 33.261719 C 22.714844 33.464844 22.734375 33.667969 22.753906 33.921875 C 23.132812 33.921875 23.449219 33.921875 23.761719 33.921875 C 24.875 33.921875 25.988281 33.921875 27.101562 33.921875 C 27.882812 34.003906 28.640625 34 29.164062 33.265625 C 29.382812 33.253906 29.601562 33.242188 29.820312 33.230469 C 30.03125 33.207031 30.269531 33.230469 30.449219 33.140625 C 30.917969 32.90625 31.363281 32.613281 31.886719 32.304688 C 31.886719 32.121094 31.886719 31.84375 31.886719 31.566406 C 32.011719 31.222656 32.136719 30.878906 32.261719 30.535156 C 32.363281 30.3125 32.46875 30.089844 32.574219 29.863281 C 32.777344 29.84375 32.976562 29.820312 33.210938 29.792969 C 33.242188 29.105469 33.273438 28.484375 33.304688 27.859375 C 33.558594 27.84375 33.71875 27.835938 33.878906 27.828125 C 34.582031 27.851562 35.285156 27.871094 35.992188 27.894531 C 36.003906 28.054688 36.019531 28.214844 36.035156 28.433594 C 36.636719 28.433594 37.222656 28.433594 37.863281 28.433594 C 37.9375 28.292969 38.03125 28.109375 38.128906 27.925781 C 38.460938 27.558594 39.15625 28.207031 39.363281 27.488281 C 39.671875 27.363281 39.980469 27.234375 40.289062 27.109375 "/>
<path style=" stroke:none;fill-rule:nonzero;fill:rgb(90.942383%,74.078369%,5.300903%);fill-opacity:1;" d="M 13.824219 22.480469 C 13.71875 22.484375 13.609375 22.492188 13.503906 22.496094 C 13.535156 22.671875 13.570312 22.851562 13.601562 23.03125 C 13.652344 23.027344 13.703125 23.027344 13.753906 23.027344 C 13.777344 22.84375 13.800781 22.664062 13.824219 22.480469 Z M 37.992188 23.367188 C 38.28125 23.371094 38.648438 23.53125 38.695312 23.03125 L 38.679688 23.042969 C 39.136719 23.042969 39.59375 23.042969 40.050781 23.042969 C 40.246094 23.03125 40.445312 23.019531 40.699219 23.003906 C 40.710938 22.753906 40.722656 22.558594 40.730469 22.359375 L 40.730469 22.371094 C 41.40625 22.339844 42.097656 22.460938 42.75 22.253906 C 42.769531 22.007812 42.78125 21.847656 42.792969 21.6875 C 42.882812 21.667969 42.972656 21.660156 43.0625 21.664062 C 43.417969 21.644531 43.773438 21.625 44.082031 21.605469 C 44.082031 21.125 44.082031 20.765625 44.082031 20.421875 C 43.351562 20.199219 43.511719 20.71875 43.449219 21.042969 C 43.296875 20.839844 43.144531 20.636719 43.03125 20.484375 C 41.476562 20.890625 39.929688 21.292969 38.382812 21.699219 C 37.816406 21.699219 37.253906 21.699219 36.699219 21.699219 C 36.679688 22.027344 36.667969 22.183594 36.65625 22.34375 C 35.539062 22.667969 34.421875 22.992188 33.296875 23.320312 C 33.148438 23.855469 33.371094 24.140625 33.933594 24.183594 C 34.414062 24.453125 34.890625 24.6875 35.292969 24.0625 C 35.734375 23.949219 36.179688 23.835938 36.621094 23.71875 C 36.949219 23.722656 37.28125 23.769531 37.601562 23.714844 C 37.75 23.691406 37.867188 23.484375 38 23.359375 Z M 35.980469 14.886719 C 36.578125 15.035156 36.652344 14.339844 37.1875 14.023438 C 37.253906 14.53125 37.300781 14.871094 37.34375 15.210938 C 37.035156 15.757812 36.730469 16.308594 36.558594 16.609375 C 36.011719 17.042969 35.652344 17.324219 35.296875 17.605469 C 34.8125 17.542969 34.539062 17.703125 34.613281 18.242188 C 33.640625 19.128906 32.660156 20.015625 31.6875 20.898438 C 31.746094 21.003906 31.832031 21.144531 31.914062 21.289062 C 32.320312 21.847656 32.769531 21.855469 33.238281 21.3125 C 33.582031 20.984375 33.929688 20.65625 34.273438 20.328125 C 34.546875 20.328125 34.820312 20.328125 35.117188 20.328125 C 35.214844 20.132812 35.304688 19.945312 35.425781 19.703125 C 35.800781 19.660156 36.214844 19.609375 36.609375 19.566406 C 36.636719 19.308594 36.652344 19.144531 36.671875 18.980469 C 36.894531 18.96875 37.117188 18.957031 37.339844 18.945312 C 38.988281 17.191406 40.144531 14.996094 42.09375 13.503906 C 42.996094 13.523438 43.902344 13.542969 44.785156 13.5625 C 44.8125 13.859375 44.828125 14.023438 44.839844 14.183594 C 44.746094 14.261719 44.648438 14.339844 44.363281 14.566406 C 45.011719 14.519531 45.414062 14.488281 45.804688 14.460938 C 45.84375 14.199219 45.867188 14.039062 45.894531 13.878906 C 46.164062 13.71875 46.4375 13.5625 46.828125 13.335938 C 46.851562 13.085938 46.890625 12.722656 46.921875 12.371094 C 47.371094 12.066406 47.804688 11.769531 48.238281 11.476562 C 48.691406 11.472656 49.144531 11.472656 49.597656 11.472656 C 49.816406 11.703125 50.03125 11.929688 50.25 12.160156 C 50.085938 12.179688 49.917969 12.203125 49.769531 12.226562 C 49.578125 13.582031 49.390625 14.925781 49.210938 16.214844 C 48.785156 16.273438 48.523438 16.3125 48.328125 16.339844 C 48.070312 17.054688 48.582031 17.789062 47.953125 18.320312 C 47.839844 18.449219 47.722656 18.578125 47.605469 18.707031 C 47.78125 19.082031 47.953125 19.460938 48.128906 19.84375 C 47.257812 21.328125 46.347656 22.871094 45.445312 24.417969 C 44.839844 24.320312 44.785156 24.679688 44.847656 25.136719 C 44.804688 25.34375 44.765625 25.550781 44.71875 25.773438 C 42.996094 25.773438 41.355469 25.773438 39.738281 25.773438 C 39.28125 26.015625 38.839844 26.242188 38.398438 26.472656 C 37.941406 26.472656 37.488281 26.472656 37.035156 26.472656 C 36.59375 26.472656 36.152344 26.472656 35.503906 26.472656 C 35.789062 26.667969 35.902344 26.742188 36.015625 26.816406 C 35.847656 26.917969 35.6875 27.097656 35.515625 27.113281 C 34.96875 27.152344 34.421875 27.128906 33.875 27.128906 C 33.710938 27.113281 33.542969 27.101562 33.316406 27.085938 C 33.273438 26.65625 33.226562 26.230469 33.183594 25.816406 C 32.921875 25.796875 32.753906 25.785156 32.585938 25.773438 C 32.574219 25.550781 32.5625 25.332031 32.550781 25.109375 C 32.550781 24.664062 32.550781 24.214844 32.550781 23.789062 C 32.230469 23.746094 32.074219 23.726562 31.917969 23.710938 C 31.902344 23.496094 31.882812 23.285156 31.863281 23.070312 C 31.863281 22.875 31.863281 22.679688 31.863281 22.425781 C 31.589844 22.410156 31.394531 22.398438 31.195312 22.386719 C 30.761719 22.398438 30.480469 22.242188 30.5 21.753906 C 30.5 21.546875 30.5 21.339844 30.5 21.066406 C 30.242188 21.046875 30.039062 21.03125 29.835938 21.015625 C 29.609375 20.90625 29.386719 20.792969 29.160156 20.679688 C 29.023438 20.558594 28.898438 20.351562 28.75 20.335938 C 28.328125 20.289062 27.894531 20.324219 27.46875 20.328125 C 26.621094 20.332031 25.773438 20.296875 24.933594 20.347656 C 24.449219 20.378906 23.980469 20.5625 23.5 20.648438 C 22.035156 20.921875 21.15625 21.953125 20.328125 23.058594 C 20.089844 23.101562 19.855469 23.144531 19.644531 23.179688 C 19.644531 23.566406 19.644531 23.832031 19.644531 24.101562 C 19.613281 24.433594 19.585938 24.765625 19.558594 25.097656 C 18.902344 25.097656 18.25 25.097656 17.59375 25.097656 C 16.222656 25.089844 14.84375 25.160156 13.503906 24.757812 C 13.359375 24.640625 13.226562 24.433594 13.078125 24.421875 C 12.542969 24.382812 12.003906 24.410156 11.46875 24.410156 C 11.304688 24.398438 11.140625 24.386719 10.863281 24.367188 C 10.847656 24.066406 10.710938 23.554688 10.828125 23.484375 C 11.546875 23.074219 11.257812 21.941406 12.148438 21.695312 C 12.488281 21.691406 12.828125 21.683594 13.171875 21.675781 C 13.507812 21.691406 13.839844 21.707031 14.175781 21.722656 C 14.191406 21.917969 14.207031 22.113281 14.226562 22.351562 C 14.625 22.351562 14.929688 22.351562 15.238281 22.351562 C 15.738281 22.351562 16.238281 22.351562 16.679688 22.351562 C 16.851562 22.621094 16.964844 22.800781 17.101562 23.019531 C 17.636719 23.019531 18.191406 23.019531 18.84375 23.019531 C 18.867188 22.808594 18.894531 22.605469 18.921875 22.398438 C 18.921875 22.230469 18.921875 22.066406 18.921875 21.808594 C 17.8125 21.328125 16.671875 20.835938 15.535156 20.34375 C 15.371094 20.328125 15.207031 20.308594 14.933594 20.277344 C 14.894531 19.820312 14.855469 19.347656 14.839844 19.132812 C 15.15625 18.484375 15.367188 18.054688 15.578125 17.628906 C 16.027344 17.613281 16.476562 17.59375 16.925781 17.578125 C 17.890625 18.386719 18.835938 19.21875 19.824219 19.996094 C 20.089844 20.203125 20.476562 20.257812 20.929688 20.429688 C 20.929688 19.789062 20.929688 19.351562 20.929688 18.765625 C 20.222656 17.992188 19.421875 17.113281 18.617188 16.230469 C 18.144531 15.621094 18.269531 14.917969 18.296875 14.230469 C 18.460938 14.199219 18.625 14.171875 18.847656 14.132812 C 18.898438 13.773438 18.871094 13.109375 19.015625 13.070312 C 19.898438 12.832031 19.433594 11.917969 19.90625 11.503906 C 20.550781 10.9375 21.167969 10.339844 21.828125 9.722656 C 22.039062 9.984375 22.207031 10.199219 22.375 10.410156 C 22.597656 10.644531 22.824219 10.875 23.046875 11.109375 L 23.035156 11.117188 C 22.71875 11.476562 22.402344 11.839844 22.085938 12.199219 C 21.777344 12.140625 21.65625 12.265625 21.71875 12.570312 C 21.828125 12.777344 21.933594 12.988281 22.039062 13.195312 C 22.214844 13.820312 22.714844 13.394531 23.042969 13.507812 C 23.050781 13.625 23.0625 13.746094 23.070312 13.863281 C 23.066406 14.191406 23.0625 14.515625 23.058594 14.839844 C 23.050781 15.621094 23.023438 16.40625 23.046875 17.191406 C 23.050781 17.324219 23.292969 17.449219 23.425781 17.574219 C 23.867188 18.257812 24.308594 18.9375 24.753906 19.617188 C 24.84375 19.570312 25.007812 19.53125 25.015625 19.472656 C 25.160156 18.046875 25.273438 16.617188 25.421875 15.191406 C 25.511719 14.320312 25.492188 13.394531 25.808594 12.605469 C 26.089844 11.910156 26.765625 11.375 27.238281 10.804688 C 28.058594 10.804688 28.785156 10.804688 29.574219 10.804688 C 30.105469 11.339844 30.660156 11.902344 31.214844 12.460938 C 31.121094 12.515625 30.988281 12.550781 30.945312 12.632812 C 30.304688 13.777344 29.964844 15.050781 29.242188 16.183594 C 28.585938 17.214844 28.28125 18.472656 27.820312 19.628906 C 28.132812 20.113281 28.414062 20.125 28.824219 19.671875 C 28.921875 19.644531 29.019531 19.625 29.117188 19.621094 C 29.328125 19.621094 29.53125 19.621094 29.835938 19.621094 C 29.835938 19.109375 29.835938 18.683594 29.835938 18.257812 C 29.851562 18.042969 29.871094 17.832031 29.886719 17.617188 C 29.972656 17.613281 30.058594 17.609375 30.144531 17.605469 C 30.496094 17.257812 30.84375 16.914062 31.195312 16.566406 C 31.664062 15.550781 32.132812 14.535156 32.601562 13.515625 C 32.707031 13.300781 32.8125 13.085938 32.917969 12.867188 C 33.386719 12.800781 33.199219 11.871094 33.90625 12.121094 C 34.109375 12.144531 34.3125 12.167969 34.558594 12.199219 C 34.585938 12.445312 34.605469 12.648438 34.625 12.847656 C 34.617188 13.070312 34.609375 13.289062 34.601562 13.507812 C 34.507812 13.519531 34.410156 13.53125 34.316406 13.542969 C 33.816406 13.902344 33.796875 14.398438 34.269531 14.878906 C 34.492188 14.984375 34.71875 15.089844 34.945312 15.199219 C 35.171875 15.847656 35.570312 15.527344 35.945312 15.40625 C 35.957031 15.210938 35.96875 15.050781 35.980469 14.886719 "/>
<path style=" stroke:none;fill-rule:nonzero;fill:rgb(10.940552%,8.84552%,7.841492%);fill-opacity:1;" d="M 45.445312 24.417969 C 46.347656 22.871094 47.257812 21.328125 48.128906 19.84375 C 47.953125 19.460938 47.78125 19.082031 47.605469 18.707031 C 47.722656 18.578125 47.839844 18.449219 47.953125 18.320312 C 48.582031 17.789062 48.070312 17.054688 48.328125 16.339844 C 48.523438 16.3125 48.785156 16.273438 49.210938 16.214844 C 49.390625 14.925781 49.578125 13.582031 49.769531 12.226562 C 49.917969 12.203125 50.085938 12.179688 50.25 12.160156 C 50.785156 12.316406 50.683594 12.765625 50.648438 13.136719 C 50.523438 14.464844 50.359375 15.789062 50.207031 17.167969 C 49.789062 17.230469 49.414062 17.289062 49.035156 17.347656 C 49.34375 18.550781 49.34375 18.550781 48.539062 20.074219 C 48.753906 20.203125 48.972656 20.332031 49.230469 20.484375 C 47.976562 22.585938 46.71875 24.683594 45.496094 26.734375 C 44.355469 26.648438 43.316406 26.511719 42.273438 26.511719 C 41.582031 26.507812 40.84375 26.558594 40.289062 27.109375 C 39.980469 27.234375 39.671875 27.363281 39.363281 27.488281 C 38.191406 27.210938 37.128906 27.867188 35.992188 27.894531 C 35.285156 27.871094 34.582031 27.851562 33.878906 27.828125 C 33.878906 27.59375 33.875 27.359375 33.875 27.128906 C 34.421875 27.128906 34.96875 27.152344 35.515625 27.113281 C 35.6875 27.097656 35.847656 26.917969 36.015625 26.816406 C 36.371094 26.753906 36.832031 26.992188 37.035156 26.472656 C 37.488281 26.472656 37.941406 26.472656 38.398438 26.472656 C 38.839844 26.242188 39.28125 26.015625 39.738281 25.773438 C 41.355469 25.773438 42.996094 25.773438 44.71875 25.773438 C 44.765625 25.550781 44.804688 25.34375 44.847656 25.136719 C 45.046875 24.898438 45.242188 24.65625 45.445312 24.417969 "/>
<path style=" stroke:none;fill-rule:nonzero;fill:rgb(10.940552%,8.84552%,7.841492%);fill-opacity:1;" d="M 42.773438 29.179688 C 42.800781 29.082031 42.8125 28.980469 42.808594 28.878906 C 42.988281 28.648438 43.164062 28.414062 43.363281 28.15625 C 43.714844 28.15625 44.082031 28.15625 44.449219 28.15625 C 43.816406 29.734375 43.179688 31.316406 42.519531 32.957031 C 42.023438 32.910156 41.59375 32.984375 41.285156 32.828125 C 39.4375 31.875 37.308594 31.980469 35.402344 31.246094 C 35.054688 31.109375 34.484375 30.941406 34.289062 31.597656 C 33.945312 31.46875 33.601562 31.34375 33.261719 31.21875 C 33.398438 30.925781 33.53125 30.632812 33.738281 30.195312 C 34.941406 30.429688 36.207031 30.640625 37.453125 30.933594 C 38.660156 31.222656 39.851562 31.59375 41.050781 31.925781 C 41.257812 32.015625 41.464844 32.101562 41.722656 32.214844 C 41.761719 31.769531 41.785156 31.511719 41.808594 31.25 C 41.910156 31.015625 42.015625 30.78125 42.113281 30.546875 L 42.117188 30.558594 C 42.59375 30.21875 42.753906 29.734375 42.773438 29.179688 "/>
<path style=" stroke:none;fill-rule:nonzero;fill:rgb(10.940552%,8.84552%,7.841492%);fill-opacity:1;" d="M 24.097656 36.015625 C 24.261719 35.695312 24.421875 35.375 24.59375 35.023438 C 24.945312 35.023438 25.316406 35.023438 25.734375 35.023438 C 25.734375 35.363281 25.734375 35.636719 25.734375 35.90625 C 25.425781 36.507812 25.117188 37.109375 24.808594 37.714844 C 24.800781 38.039062 24.792969 38.367188 24.785156 38.695312 C 24.765625 39.605469 24.746094 40.519531 24.726562 41.433594 C 24.339844 41.453125 23.953125 41.472656 23.234375 41.511719 C 22.683594 42.203125 21.984375 43.078125 21.421875 43.78125 C 20.449219 43.78125 19.785156 43.78125 18.992188 43.78125 C 18.992188 43.445312 18.992188 43.136719 18.992188 42.828125 C 19.734375 42.8125 20.511719 42.886719 20.992188 42.125 C 21.21875 41.898438 21.445312 41.667969 21.671875 41.445312 C 21.902344 41.21875 22.132812 40.992188 22.359375 40.765625 C 22.90625 40.734375 23.457031 40.707031 24.097656 40.675781 C 24.097656 39.050781 24.097656 37.53125 24.097656 36.015625 "/>
<path style=" stroke:none;fill-rule:nonzero;fill:rgb(10.940552%,8.84552%,7.841492%);fill-opacity:1;" d="M 19.988281 35.691406 C 20.324219 35.214844 20.65625 34.734375 20.988281 34.257812 C 21.324219 34.269531 21.664062 34.28125 22 34.296875 C 22.007812 34.519531 22.011719 34.742188 22.019531 34.96875 C 21.894531 35.164062 21.773438 35.363281 21.652344 35.5625 C 21.144531 35.792969 21.335938 36.253906 21.296875 36.636719 L 21.292969 36.644531 C 21.1875 36.761719 21.078125 36.875 20.96875 36.992188 L 20.972656 36.992188 C 20.167969 37.449219 20.050781 38.347656 19.628906 39.054688 C 19.484375 39.382812 19.339844 39.707031 19.195312 40.03125 C 18.839844 40.296875 18.546875 40.597656 18.597656 41.09375 C 18.484375 41.316406 18.367188 41.542969 18.25 41.769531 C 18.144531 41.863281 17.957031 41.949219 17.945312 42.054688 C 17.894531 42.53125 17.589844 42.476562 17.269531 42.429688 C 17.128906 42.105469 16.988281 41.78125 16.847656 41.457031 C 17.675781 41.082031 17.496094 40.140625 17.933594 39.515625 C 18.613281 38.542969 19.082031 37.414062 19.640625 36.355469 C 19.757812 36.132812 19.871094 35.910156 19.988281 35.691406 "/>
<path style=" stroke:none;fill-rule:nonzero;fill:rgb(10.940552%,8.84552%,7.841492%);fill-opacity:1;" d="M 34.273438 20.328125 C 33.929688 20.65625 33.582031 20.984375 33.238281 21.3125 C 32.796875 21.304688 32.355469 21.296875 31.914062 21.289062 C 31.832031 21.144531 31.746094 21.003906 31.6875 20.898438 C 32.660156 20.015625 33.640625 19.128906 34.613281 18.242188 C 34.84375 18.03125 35.070312 17.816406 35.296875 17.605469 C 35.652344 17.324219 36.011719 17.042969 36.558594 16.609375 C 36.730469 16.308594 37.035156 15.757812 37.34375 15.210938 C 37.621094 15.074219 37.898438 14.941406 38.441406 14.679688 C 38.003906 15.917969 37.851562 16.96875 37.0625 17.765625 C 36.675781 18.15625 36.292969 18.554688 35.910156 18.949219 C 35.09375 19.085938 34.71875 19.746094 34.273438 20.328125 "/>
<path style=" stroke:none;fill-rule:nonzero;fill:rgb(10.940552%,8.84552%,7.841492%);fill-opacity:1;" d="M 11.839844 29.890625 C 12.28125 29.867188 12.71875 29.847656 13.160156 29.824219 C 13.519531 29.777344 13.988281 30.105469 14.199219 29.53125 C 15.390625 29.359375 16.585938 29.191406 17.886719 29.003906 C 17.957031 29.078125 18.140625 29.273438 18.378906 29.523438 C 18.058594 29.773438 17.828125 29.957031 17.59375 30.136719 C 17.144531 30.191406 16.691406 30.242188 16.242188 30.296875 C 15.53125 30.472656 14.820312 30.648438 14.105469 30.820312 C 13.683594 30.859375 13.257812 30.898438 12.832031 30.933594 C 12.140625 31.085938 11.445312 31.234375 10.753906 31.382812 C 10.113281 31.410156 9.476562 31.4375 8.839844 31.46875 C 8.8125 31.167969 8.78125 30.871094 8.753906 30.574219 C 9.191406 30.390625 9.777344 30.824219 10.121094 30.242188 C 10.679688 30.066406 11.371094 30.515625 11.839844 29.890625 "/>
<path style=" stroke:none;fill-rule:nonzero;fill:rgb(10.940552%,8.84552%,7.841492%);fill-opacity:1;" d="M 29.117188 19.621094 C 29.019531 19.625 28.921875 19.644531 28.824219 19.671875 C 28.488281 19.660156 28.15625 19.644531 27.820312 19.628906 C 28.28125 18.472656 28.585938 17.214844 29.242188 16.183594 C 29.964844 15.050781 30.304688 13.777344 30.945312 12.632812 C 30.988281 12.550781 31.121094 12.515625 31.214844 12.460938 C 31.378906 12.496094 31.546875 12.535156 31.726562 12.574219 C 32.003906 12.988281 31.929688 13.382812 31.722656 13.832031 C 31.375 14.585938 31.097656 15.378906 30.792969 16.15625 C 30.578125 16.636719 30.359375 17.121094 30.144531 17.605469 C 30.058594 17.609375 29.972656 17.613281 29.886719 17.617188 C 29.652344 17.699219 29.417969 17.78125 29.183594 17.863281 C 29.300781 18.007812 29.417969 18.152344 29.535156 18.300781 C 29.398438 18.738281 29.257812 19.179688 29.117188 19.621094 "/>
<path style=" stroke:none;fill-rule:nonzero;fill:rgb(10.940552%,8.84552%,7.841492%);fill-opacity:1;" d="M 7.792969 42.054688 C 8.378906 41.710938 8.964844 41.363281 9.542969 41.023438 C 9.914062 41.183594 10.207031 41.3125 10.414062 41.402344 C 11.886719 40.855469 13.289062 40.335938 14.785156 39.777344 C 15.007812 40.066406 15.269531 40.40625 15.535156 40.75 C 14.328125 41.207031 13.117188 41.664062 11.910156 42.121094 C 11.859375 42.140625 11.796875 42.160156 11.746094 42.148438 C 10.539062 41.882812 9.488281 42.421875 8.394531 42.894531 C 8.160156 42.566406 7.976562 42.308594 7.792969 42.054688 "/>
<path style=" stroke:none;fill-rule:nonzero;fill:rgb(10.940552%,8.84552%,7.841492%);fill-opacity:1;" d="M 36.574219 37.355469 C 36.917969 37.371094 37.261719 37.390625 37.601562 37.410156 C 38.273438 37.808594 38.476562 37.671875 38.699219 36.671875 L 38.699219 36.667969 C 38.824219 36.449219 38.949219 36.226562 39.074219 36.007812 C 39.40625 35.441406 39.742188 34.871094 40.078125 34.304688 C 40.300781 34.285156 40.53125 34.265625 40.757812 34.246094 C 40.964844 34.296875 41.175781 34.351562 41.585938 34.457031 C 40.65625 35.964844 39.796875 37.355469 38.847656 38.898438 C 38.007812 38.328125 37.289062 37.84375 36.574219 37.355469 "/>
<path style=" stroke:none;fill-rule:nonzero;fill:rgb(10.940552%,8.84552%,7.841492%);fill-opacity:1;" d="M 33.886719 44.167969 C 33.902344 43.042969 34.816406 42.339844 35.210938 41.386719 C 35.4375 40.839844 35.730469 40.316406 35.996094 39.78125 C 36.09375 39.652344 36.191406 39.523438 36.289062 39.390625 C 36.421875 39.363281 36.554688 39.335938 36.691406 39.304688 C 36.964844 39.488281 37.238281 39.671875 37.535156 39.871094 C 36.457031 41.695312 35.511719 43.300781 34.503906 45.011719 C 34.214844 44.617188 34.050781 44.394531 33.886719 44.167969 "/>
<path style=" stroke:none;fill-rule:nonzero;fill:rgb(86.730957%,74.954224%,13.952637%);fill-opacity:1;" d="M 17.59375 25.097656 C 18.25 25.097656 18.902344 25.097656 19.558594 25.097656 C 19.609375 25.378906 19.691406 25.671875 19.296875 25.78125 C 19.179688 25.78125 19.066406 25.78125 18.953125 25.78125 C 18.90625 25.691406 18.855469 25.597656 18.777344 25.449219 C 18.300781 26.003906 17.84375 26.542969 17.332031 27.136719 C 16.222656 27.136719 15.039062 27.140625 13.855469 27.136719 C 13.347656 27.132812 12.042969 26.769531 11.457031 26.476562 C 13.339844 26.476562 15.21875 26.476562 17.292969 26.476562 C 17.089844 26.203125 16.984375 26.058594 16.878906 25.914062 C 17.285156 25.792969 17.742188 25.710938 17.59375 25.097656 "/>
<path style=" stroke:none;fill-rule:nonzero;fill:rgb(10.940552%,8.84552%,7.841492%);fill-opacity:1;" d="M 24.753906 19.617188 C 24.308594 18.9375 23.867188 18.257812 23.425781 17.574219 C 23.410156 16.824219 23.410156 16.070312 23.359375 15.320312 C 23.347656 15.152344 23.164062 14.996094 23.058594 14.839844 C 23.0625 14.515625 23.066406 14.191406 23.070312 13.863281 C 23.34375 13.863281 23.613281 13.863281 23.851562 13.863281 C 24.160156 15.832031 24.457031 17.726562 24.753906 19.617188 "/>
<path style=" stroke:none;fill-rule:nonzero;fill:rgb(10.940552%,8.84552%,7.841492%);fill-opacity:1;" d="M 17.59375 25.097656 C 17.742188 25.710938 17.285156 25.792969 16.878906 25.914062 C 15.347656 25.753906 13.816406 25.601562 12.289062 25.417969 C 12.117188 25.398438 11.96875 25.199219 11.808594 25.082031 C 11.949219 24.964844 12.078125 24.765625 12.226562 24.75 C 12.648438 24.710938 13.078125 24.75 13.503906 24.757812 C 14.84375 25.160156 16.222656 25.089844 17.59375 25.097656 "/>
<path style=" stroke:none;fill-rule:nonzero;fill:rgb(10.940552%,8.84552%,7.841492%);fill-opacity:1;" d="M 22.039062 13.195312 C 21.933594 12.988281 21.828125 12.777344 21.71875 12.570312 C 21.84375 12.445312 21.964844 12.324219 22.085938 12.199219 C 22.402344 11.839844 22.71875 11.476562 23.035156 11.117188 C 23.386719 11.429688 23.738281 11.742188 24.242188 12.199219 C 23.785156 12.585938 23.421875 12.890625 23.054688 13.199219 C 22.71875 13.199219 22.378906 13.195312 22.039062 13.195312 "/>
<path style=" stroke:none;fill-rule:nonzero;fill:rgb(10.940552%,8.84552%,7.841492%);fill-opacity:1;" d="M 28.863281 38.023438 C 28.746094 38.023438 28.632812 38.023438 28.515625 38.023438 C 28.511719 37.910156 28.488281 37.800781 28.453125 37.691406 C 28.355469 37.570312 28.253906 37.445312 28.15625 37.320312 C 28.042969 37.089844 27.933594 36.859375 27.824219 36.628906 C 27.824219 36.097656 27.828125 35.570312 27.832031 35.039062 C 28.265625 35.042969 28.695312 35.050781 29.128906 35.054688 C 29.140625 35.367188 29.15625 35.675781 29.167969 35.988281 C 29.042969 36.128906 28.824219 36.265625 28.816406 36.410156 C 28.792969 36.945312 28.84375 37.484375 28.863281 38.023438 "/>
<path style=" stroke:none;fill-rule:nonzero;fill:rgb(10.940552%,8.84552%,7.841492%);fill-opacity:1;" d="M 31.042969 44.894531 C 31.054688 44.425781 31.101562 43.960938 31.074219 43.496094 C 31.046875 43.027344 30.945312 42.558594 30.878906 42.089844 C 31.761719 43.121094 32.070312 44.355469 32.332031 45.746094 C 31.898438 45.816406 31.644531 45.855469 31.34375 45.90625 C 31.226562 45.519531 31.136719 45.207031 31.042969 44.894531 "/>
<path style=" stroke:none;fill-rule:nonzero;fill:rgb(10.940552%,8.84552%,7.841492%);fill-opacity:1;" d="M 28.476562 43.085938 C 28.589844 43.113281 28.707031 43.140625 28.820312 43.167969 C 28.804688 43.566406 29.011719 44.042969 28.453125 44.257812 C 27.289062 44.664062 27.140625 44.601562 26.691406 43.507812 C 26.835938 43.488281 26.980469 43.472656 27.121094 43.453125 C 27.574219 43.332031 28.023438 43.207031 28.476562 43.085938 "/>
<path style=" stroke:none;fill-rule:nonzero;fill:rgb(10.940552%,8.84552%,7.841492%);fill-opacity:1;" d="M 15.535156 20.34375 C 16.671875 20.835938 17.8125 21.328125 18.921875 21.808594 C 18.921875 22.066406 18.921875 22.230469 18.921875 22.398438 C 17.792969 21.894531 16.667969 21.386719 15.535156 20.875 C 15.535156 20.675781 15.535156 20.511719 15.535156 20.34375 "/>
<path style=" stroke:none;fill-rule:nonzero;fill:rgb(92.047119%,86.569214%,48.492432%);fill-opacity:1;" d="M 44.839844 14.183594 C 44.828125 14.023438 44.8125 13.859375 44.785156 13.5625 C 43.902344 13.542969 42.996094 13.523438 42.09375 13.503906 C 42.25 13.390625 42.398438 13.195312 42.558594 13.179688 C 43.507812 13.09375 44.457031 13.050781 45.511719 12.984375 C 45.511719 13.253906 45.511719 13.574219 45.511719 13.894531 C 45.289062 13.988281 45.066406 14.089844 44.839844 14.183594 "/>
<path style=" stroke:none;fill-rule:nonzero;fill:rgb(92.047119%,86.569214%,48.492432%);fill-opacity:1;" d="M 10.753906 31.382812 C 11.445312 31.234375 12.140625 31.085938 12.832031 30.933594 C 13.058594 31.035156 13.285156 31.136719 13.511719 31.234375 C 12.707031 31.914062 11.75 31.949219 10.769531 31.898438 C 10.765625 31.726562 10.757812 31.554688 10.753906 31.382812 "/>
<path style=" stroke:none;fill-rule:nonzero;fill:rgb(10.940552%,8.84552%,7.841492%);fill-opacity:1;" d="M 33.25 33.949219 C 33.242188 34.164062 33.234375 34.378906 33.230469 34.59375 C 32.914062 34.625 32.597656 34.65625 32.28125 34.6875 C 32.148438 34.679688 32.015625 34.671875 31.882812 34.664062 C 31.667969 34.332031 31.449219 33.996094 31.230469 33.664062 C 31.925781 33.601562 32.628906 33.484375 33.25 33.949219 "/>
<path style=" stroke:none;fill-rule:nonzero;fill:rgb(92.047119%,86.569214%,48.492432%);fill-opacity:1;" d="M 34.273438 20.328125 C 34.71875 19.746094 35.09375 19.085938 35.910156 18.949219 C 36.164062 18.960938 36.417969 18.96875 36.671875 18.980469 C 36.652344 19.144531 36.636719 19.308594 36.609375 19.566406 C 36.214844 19.609375 35.800781 19.660156 35.425781 19.703125 C 35.304688 19.945312 35.214844 20.132812 35.117188 20.328125 C 34.820312 20.328125 34.546875 20.328125 34.273438 20.328125 "/>
<path style=" stroke:none;fill-rule:nonzero;fill:rgb(92.047119%,86.569214%,48.492432%);fill-opacity:1;" d="M 28.453125 44.257812 C 29.011719 44.042969 28.804688 43.566406 28.820312 43.167969 C 28.867188 43.082031 28.917969 42.992188 29.152344 42.582031 C 29.152344 43.398438 29.121094 43.902344 29.167969 44.402344 C 29.179688 44.5625 29.390625 44.707031 29.507812 44.855469 C 29.476562 45.085938 29.445312 45.316406 29.414062 45.546875 C 29.15625 45.53125 28.894531 45.511719 28.542969 45.488281 C 28.511719 45.074219 28.480469 44.664062 28.453125 44.257812 "/>
<path style=" stroke:none;fill-rule:nonzero;fill:rgb(92.047119%,86.569214%,48.492432%);fill-opacity:1;" d="M 10.105469 31.917969 C 9.425781 32.925781 8.394531 32.449219 7.40625 32.414062 C 7.398438 32.339844 7.378906 32.132812 7.355469 31.925781 C 8.273438 31.921875 9.1875 31.917969 10.105469 31.917969 "/>
<path style=" stroke:none;fill-rule:nonzero;fill:rgb(10.940552%,8.84552%,7.841492%);fill-opacity:1;" d="M 29.414062 45.546875 C 29.445312 45.316406 29.476562 45.085938 29.507812 44.855469 C 29.882812 44.664062 30.269531 44.140625 30.613281 44.890625 C 30.4375 45.714844 30.4375 45.714844 29.644531 46.277344 C 29.558594 46.011719 29.488281 45.78125 29.414062 45.546875 "/>
<path style=" stroke:none;fill-rule:nonzero;fill:rgb(92.047119%,86.569214%,48.492432%);fill-opacity:1;" d="M 18.296875 14.230469 C 18.269531 14.917969 18.144531 15.621094 18.617188 16.230469 C 18.339844 16.230469 18.066406 16.230469 17.738281 16.230469 C 17.402344 15.609375 17.726562 14.960938 17.507812 14.230469 C 17.882812 14.230469 18.089844 14.230469 18.296875 14.230469 "/>
<path style=" stroke:none;fill-rule:nonzero;fill:rgb(10.940552%,8.84552%,7.841492%);fill-opacity:1;" d="M 30.902344 42.117188 C 30.054688 41.394531 29.691406 40.425781 29.515625 39.363281 C 30.351562 40.089844 30.777344 41.027344 30.902344 42.117188 "/>
<path style=" stroke:none;fill-rule:nonzero;fill:rgb(92.047119%,86.569214%,48.492432%);fill-opacity:1;" d="M 34.625 12.847656 C 34.605469 12.648438 34.585938 12.445312 34.558594 12.199219 C 34.3125 12.167969 34.109375 12.144531 33.90625 12.121094 C 33.929688 11.953125 33.949219 11.789062 33.972656 11.621094 C 34.375 11.488281 34.777344 11.359375 35.207031 11.21875 C 35.234375 11.332031 35.328125 11.503906 35.292969 11.640625 C 35.21875 11.945312 35.082031 12.234375 34.96875 12.53125 C 34.855469 12.636719 34.738281 12.742188 34.625 12.847656 "/>
<path style=" stroke:none;fill-rule:nonzero;fill:rgb(10.940552%,8.84552%,7.841492%);fill-opacity:1;" d="M 34.625 12.847656 C 34.738281 12.742188 34.855469 12.636719 34.96875 12.53125 C 35.273438 12.4375 35.578125 12.34375 35.902344 12.242188 C 36.273438 12.734375 35.804688 13.097656 35.617188 13.515625 C 35.289062 13.519531 34.960938 13.527344 34.628906 13.53125 L 34.601562 13.507812 C 34.609375 13.289062 34.617188 13.070312 34.625 12.847656 "/>
<path style=" stroke:none;fill-rule:nonzero;fill:rgb(86.730957%,74.954224%,13.952637%);fill-opacity:1;" d="M 9.757812 26.484375 C 9.644531 26.777344 9.570312 27.089844 9.40625 27.351562 C 9.226562 27.644531 8.96875 27.890625 8.742188 28.160156 C 8.742188 27.636719 8.742188 27.113281 8.742188 26.484375 C 9.148438 26.484375 9.453125 26.484375 9.757812 26.484375 "/>
<path style=" stroke:none;fill-rule:nonzero;fill:rgb(10.940552%,8.84552%,7.841492%);fill-opacity:1;" d="M 34.945312 15.199219 C 34.71875 15.089844 34.492188 14.984375 34.269531 14.878906 C 34.28125 14.433594 34.300781 13.988281 34.316406 13.542969 C 34.410156 13.53125 34.507812 13.519531 34.601562 13.507812 L 34.628906 13.53125 C 34.640625 13.722656 34.652344 13.914062 34.664062 14.148438 C 34.917969 14.167969 35.113281 14.1875 35.304688 14.203125 C 35.289062 14.425781 35.273438 14.648438 35.257812 14.867188 C 35.152344 14.980469 35.046875 15.089844 34.945312 15.199219 "/>
<path style=" stroke:none;fill-rule:nonzero;fill:rgb(86.730957%,74.954224%,13.952637%);fill-opacity:1;" d="M 25.089844 39.050781 C 25.328125 39.242188 25.566406 39.429688 25.738281 39.566406 C 25.738281 40.046875 25.738281 40.421875 25.738281 40.796875 C 25.523438 40.792969 25.304688 40.789062 25.089844 40.785156 C 25.089844 40.210938 25.089844 39.632812 25.089844 39.050781 "/>
<path style=" stroke:none;fill-rule:nonzero;fill:rgb(86.730957%,74.954224%,13.952637%);fill-opacity:1;" d="M 8.710938 28.492188 C 8.914062 28.515625 9.121094 28.535156 9.355469 28.558594 C 9.355469 28.761719 9.355469 28.90625 9.355469 29.195312 C 8.917969 29.195312 8.503906 29.195312 8.085938 29.195312 C 7.980469 28.679688 8.183594 28.445312 8.710938 28.492188 "/>
<path style=" stroke:none;fill-rule:nonzero;fill:rgb(92.047119%,86.569214%,48.492432%);fill-opacity:1;" d="M 49.597656 11.472656 C 49.144531 11.472656 48.691406 11.472656 48.238281 11.476562 C 48.246094 11.3125 48.257812 11.152344 48.273438 10.882812 C 48.65625 10.851562 49.054688 10.820312 49.519531 10.785156 C 49.550781 11.070312 49.574219 11.269531 49.597656 11.472656 "/>
<path style=" stroke:none;fill-rule:nonzero;fill:rgb(72.724915%,65.196228%,18.589783%);fill-opacity:1;" d="M 44.449219 28.15625 C 44.082031 28.15625 43.714844 28.15625 43.363281 28.15625 C 43.164062 28.414062 42.988281 28.648438 42.808594 28.878906 C 42.808594 28.460938 42.808594 28.039062 42.808594 27.5625 C 43.066406 27.65625 43.28125 27.730469 43.492188 27.804688 C 43.804688 27.941406 44.328125 27.503906 44.449219 28.15625 "/>
<path style=" stroke:none;fill-rule:nonzero;fill:rgb(92.047119%,86.569214%,48.492432%);fill-opacity:1;" d="M 8.058594 29.1875 C 8.058594 29.636719 8.0625 30.085938 8.0625 30.53125 C 7.898438 30.53125 7.738281 30.53125 7.464844 30.53125 C 7.433594 30.121094 7.402344 29.726562 7.363281 29.257812 C 7.652344 29.226562 7.855469 29.210938 8.058594 29.1875 "/>
<path style=" stroke:none;fill-rule:nonzero;fill:rgb(92.047119%,86.569214%,48.492432%);fill-opacity:1;" d="M 16.925781 17.578125 C 16.476562 17.59375 16.027344 17.613281 15.578125 17.628906 C 15.578125 17.46875 15.578125 17.304688 15.578125 17.027344 C 15.957031 16.988281 16.351562 16.949219 16.847656 16.902344 C 16.878906 17.175781 16.902344 17.375 16.925781 17.578125 "/>
<path style=" stroke:none;fill-rule:nonzero;fill:rgb(64.456177%,63.328552%,72.851562%);fill-opacity:1;" d="M 25.089844 39.050781 C 25.089844 39.632812 25.089844 40.210938 25.089844 40.785156 C 25.066406 41.054688 25.222656 41.425781 24.726562 41.433594 C 24.746094 40.519531 24.765625 39.605469 24.785156 38.695312 L 24.921875 38.71875 L 25.058594 38.714844 C 25.074219 38.828125 25.082031 38.941406 25.089844 39.050781 "/>
<path style=" stroke:none;fill-rule:nonzero;fill:rgb(92.047119%,86.569214%,48.492432%);fill-opacity:1;" d="M 40.757812 34.246094 C 40.53125 34.265625 40.300781 34.285156 40.078125 34.304688 C 39.953125 33.964844 39.832031 33.625 39.710938 33.28125 C 40.011719 33.28125 40.316406 33.28125 40.757812 33.28125 C 40.757812 33.652344 40.757812 33.949219 40.757812 34.246094 "/>
<path style=" stroke:none;fill-rule:nonzero;fill:rgb(72.724915%,65.196228%,18.589783%);fill-opacity:1;" d="M 13.503906 24.757812 C 13.078125 24.75 12.648438 24.710938 12.226562 24.75 C 12.078125 24.765625 11.949219 24.964844 11.808594 25.082031 C 11.316406 25.050781 11.507812 24.671875 11.46875 24.410156 C 12.003906 24.410156 12.542969 24.382812 13.078125 24.421875 C 13.226562 24.433594 13.359375 24.640625 13.503906 24.757812 "/>
<path style=" stroke:none;fill-rule:nonzero;fill:rgb(92.047119%,86.569214%,48.492432%);fill-opacity:1;" d="M 36.335938 32.554688 C 35.644531 32.65625 35.042969 32.5 34.605469 31.914062 C 35.261719 31.921875 35.996094 31.707031 36.335938 32.554688 "/>
<path style=" stroke:none;fill-rule:nonzero;fill:rgb(8.805847%,8.99353%,11.891174%);fill-opacity:1;" d="M 35.304688 14.203125 C 35.113281 14.1875 34.917969 14.167969 34.664062 14.148438 C 34.652344 13.914062 34.640625 13.722656 34.628906 13.53125 C 34.960938 13.527344 35.289062 13.519531 35.617188 13.515625 C 35.515625 13.746094 35.410156 13.972656 35.304688 14.203125 "/>
<path style=" stroke:none;fill-rule:nonzero;fill:rgb(92.047119%,86.569214%,48.492432%);fill-opacity:1;" d="M 34.945312 15.199219 C 35.046875 15.089844 35.152344 14.980469 35.257812 14.867188 C 35.5 14.875 35.742188 14.882812 35.980469 14.886719 C 35.96875 15.050781 35.957031 15.210938 35.945312 15.40625 C 35.570312 15.527344 35.171875 15.847656 34.945312 15.199219 "/>
<path style=" stroke:none;fill-rule:nonzero;fill:rgb(92.047119%,86.569214%,48.492432%);fill-opacity:1;" d="M 30.144531 17.605469 C 30.359375 17.121094 30.578125 16.636719 30.792969 16.15625 C 30.925781 16.292969 31.058594 16.429688 31.195312 16.566406 C 30.84375 16.914062 30.496094 17.257812 30.144531 17.605469 "/>
<path style=" stroke:none;fill-rule:nonzero;fill:rgb(51.370239%,36.203003%,11.470032%);fill-opacity:1;" d="M 44.839844 14.183594 C 45.066406 14.089844 45.289062 13.988281 45.511719 13.894531 C 45.640625 13.886719 45.765625 13.882812 45.894531 13.878906 C 45.867188 14.039062 45.84375 14.199219 45.804688 14.460938 C 45.414062 14.488281 45.011719 14.519531 44.363281 14.566406 C 44.648438 14.339844 44.746094 14.261719 44.839844 14.183594 "/>
<path style=" stroke:none;fill-rule:nonzero;fill:rgb(92.047119%,86.569214%,48.492432%);fill-opacity:1;" d="M 13.171875 21.675781 C 12.828125 21.683594 12.488281 21.691406 12.148438 21.695312 C 12.191406 21.46875 12.234375 21.238281 12.324219 20.765625 C 12.714844 21.1875 12.945312 21.429688 13.171875 21.675781 "/>
<path style=" stroke:none;fill-rule:nonzero;fill:rgb(74.401855%,70.809937%,59.991455%);fill-opacity:1;" d="M 17.269531 42.429688 C 17.589844 42.476562 17.894531 42.53125 17.945312 42.054688 C 17.957031 41.949219 18.144531 41.863281 18.25 41.769531 C 18.261719 42.105469 18.269531 42.449219 18.28125 42.785156 C 17.9375 42.683594 17.394531 43.148438 17.269531 42.429688 "/>
<path style=" stroke:none;fill-rule:nonzero;fill:rgb(86.730957%,74.954224%,13.952637%);fill-opacity:1;" d="M 15.238281 22.351562 C 14.929688 22.351562 14.625 22.351562 14.226562 22.351562 C 14.207031 22.113281 14.191406 21.917969 14.175781 21.722656 C 14.722656 21.605469 15.023438 21.910156 15.238281 22.351562 "/>
<path style=" stroke:none;fill-rule:nonzero;fill:rgb(92.047119%,86.569214%,48.492432%);fill-opacity:1;" d="M 7.351562 31.917969 C 7.136719 31.917969 6.921875 31.917969 6.703125 31.917969 C 6.71875 31.621094 6.597656 31.199219 7.109375 31.28125 C 7.222656 31.300781 7.273438 31.699219 7.351562 31.917969 "/>
<path style=" stroke:none;fill-rule:nonzero;fill:rgb(72.724915%,65.196228%,18.589783%);fill-opacity:1;" d="M 33.261719 31.21875 C 33.601562 31.34375 33.945312 31.46875 34.289062 31.597656 C 34.289062 31.695312 34.296875 31.792969 34.308594 31.894531 C 33.996094 31.894531 33.6875 31.894531 33.308594 31.894531 C 33.289062 31.621094 33.273438 31.421875 33.261719 31.21875 "/>
<path style=" stroke:none;fill-rule:nonzero;fill:rgb(92.047119%,86.569214%,48.492432%);fill-opacity:1;" d="M 29.160156 36.03125 C 29.355469 36.03125 29.546875 36.03125 29.820312 36.03125 C 29.820312 36.300781 29.820312 36.496094 29.820312 36.691406 C 29.34375 36.726562 29.097656 36.53125 29.160156 36.03125 "/>
<path style=" stroke:none;fill-rule:nonzero;fill:rgb(72.724915%,65.196228%,18.589783%);fill-opacity:1;" d="M 31.882812 34.664062 C 32.015625 34.671875 32.148438 34.679688 32.28125 34.6875 C 32.386719 34.890625 32.492188 35.089844 32.601562 35.292969 C 32.558594 35.382812 32.515625 35.46875 32.441406 35.621094 C 32.058594 35.402344 31.828125 35.128906 31.882812 34.664062 "/>
<path style=" stroke:none;fill-rule:nonzero;fill:rgb(72.724915%,65.196228%,18.589783%);fill-opacity:1;" d="M 23.046875 11.109375 C 22.824219 10.875 22.597656 10.644531 22.375 10.410156 C 22.859375 10.394531 23.144531 10.570312 23.046875 11.109375 "/>
<path style=" stroke:none;fill-rule:nonzero;fill:rgb(92.047119%,86.569214%,48.492432%);fill-opacity:1;" d="M 22.039062 13.195312 C 22.378906 13.195312 22.71875 13.199219 23.054688 13.199219 C 23.050781 13.300781 23.046875 13.402344 23.042969 13.507812 C 22.714844 13.394531 22.214844 13.820312 22.039062 13.195312 "/>
<path style=" stroke:none;fill-rule:nonzero;fill:rgb(64.456177%,63.328552%,72.851562%);fill-opacity:1;" d="M 8.753906 30.574219 C 8.78125 30.871094 8.8125 31.167969 8.839844 31.46875 C 8.6875 31.386719 8.453125 31.335938 8.40625 31.21875 C 8.335938 31.027344 8.390625 30.785156 8.390625 30.570312 C 8.511719 30.570312 8.632812 30.570312 8.753906 30.574219 "/>
<path style=" stroke:none;fill-rule:nonzero;fill:rgb(72.724915%,65.196228%,18.589783%);fill-opacity:1;" d="M 33.3125 36.640625 C 33.105469 36.640625 32.898438 36.640625 32.628906 36.640625 C 32.75 36.363281 32.84375 36.148438 32.941406 35.929688 C 33.066406 36.164062 33.1875 36.402344 33.3125 36.640625 "/>
<path style=" stroke:none;fill-rule:nonzero;fill:rgb(86.730957%,74.954224%,13.952637%);fill-opacity:1;" d="M 32.917969 12.867188 C 32.8125 13.085938 32.707031 13.300781 32.601562 13.515625 C 32.613281 13.253906 32.417969 12.894531 32.917969 12.867188 "/>
<path style=" stroke:none;fill-rule:nonzero;fill:rgb(10.940552%,8.84552%,7.841492%);fill-opacity:1;" d="M 29.542969 39.394531 C 29.023438 39.355469 29.175781 38.980469 29.179688 38.679688 C 29.644531 38.742188 29.527344 39.101562 29.542969 39.394531 "/>
<path style=" stroke:none;fill-rule:nonzero;fill:rgb(10.940552%,8.84552%,7.841492%);fill-opacity:1;" d="M 29.207031 38.703125 C 28.683594 38.679688 28.847656 38.292969 28.835938 38 C 29.292969 38.058594 29.183594 38.414062 29.207031 38.703125 "/>
<path style=" stroke:none;fill-rule:nonzero;fill:rgb(92.047119%,86.569214%,48.492432%);fill-opacity:1;" d="M 29.894531 37.660156 C 30 37.777344 30.105469 37.890625 30.210938 38.007812 C 30.105469 37.890625 30 37.777344 29.894531 37.660156 "/>
<path style=" stroke:none;fill-rule:nonzero;fill:rgb(92.047119%,86.569214%,48.492432%);fill-opacity:1;" d="M 36.320312 38.707031 C 36.21875 38.589844 36.113281 38.472656 36.007812 38.351562 C 36.113281 38.472656 36.21875 38.589844 36.320312 38.707031 "/>
<path style=" stroke:none;fill-rule:nonzero;fill:rgb(92.047119%,86.569214%,48.492432%);fill-opacity:1;" d="M 36.664062 39.042969 C 36.550781 38.933594 36.4375 38.824219 36.324219 38.710938 C 36.4375 38.824219 36.550781 38.933594 36.664062 39.042969 "/>
<path style=" stroke:none;fill-rule:nonzero;fill:rgb(10.940552%,8.84552%,7.841492%);fill-opacity:1;" d="M 19.296875 25.78125 C 19.691406 25.671875 19.609375 25.378906 19.558594 25.097656 C 19.585938 24.765625 19.613281 24.433594 19.644531 24.101562 C 19.871094 23.753906 20.101562 23.40625 20.328125 23.058594 C 21.15625 21.953125 22.035156 20.921875 23.5 20.648438 C 23.980469 20.5625 24.449219 20.378906 24.933594 20.347656 C 25.773438 20.296875 26.621094 20.332031 27.46875 20.328125 C 27.613281 20.433594 27.753906 20.613281 27.910156 20.632812 C 28.320312 20.6875 28.742188 20.671875 29.160156 20.679688 C 29.386719 20.792969 29.609375 20.90625 29.835938 21.015625 C 29.835938 21.15625 29.835938 21.300781 29.832031 21.441406 C 29.15625 21.398438 28.480469 21.351562 27.804688 21.308594 C 27.632812 21.222656 27.40625 21.015625 27.296875 21.066406 C 26.507812 21.425781 25.679688 21.28125 24.867188 21.347656 C 24.6875 21.363281 24.523438 21.539062 24.351562 21.640625 C 23.207031 21.621094 22.527344 22.4375 21.75 23.082031 C 21.503906 23.148438 21.261719 23.210938 21.015625 23.277344 C 21.121094 23.429688 21.226562 23.582031 21.335938 23.734375 C 21.214844 24.042969 21.09375 24.351562 20.972656 24.660156 C 20.84375 25.027344 20.710938 25.394531 20.582031 25.761719 C 20.40625 26.339844 20.230469 26.921875 20.054688 27.503906 C 20.042969 27.996094 19.988281 28.492188 20.035156 28.984375 C 20.09375 29.628906 20.230469 30.269531 20.335938 30.914062 C 20.136719 30.871094 19.933594 30.828125 19.808594 30.800781 C 19.363281 30.28125 19.992188 29.535156 19.296875 29.175781 C 19.183594 28.714844 19.585938 28.128906 18.96875 27.789062 C 18.96875 27.472656 18.972656 27.15625 18.976562 26.839844 C 19.523438 26.617188 19.222656 26.144531 19.296875 25.78125 "/>
<path style=" stroke:none;fill-rule:nonzero;fill:rgb(10.940552%,8.84552%,7.841492%);fill-opacity:1;" d="M 32.261719 30.535156 C 32.136719 30.878906 32.011719 31.222656 31.886719 31.566406 C 31.199219 32.003906 30.515625 32.4375 29.828125 32.875 C 29.398438 33.066406 28.792969 32.660156 28.484375 33.265625 C 28.023438 33.28125 27.566406 33.300781 27.109375 33.320312 C 25.855469 33.164062 24.585938 33.046875 23.742188 31.910156 C 24.503906 31.996094 25.304688 31.769531 26.027344 32.257812 C 26.21875 32.386719 26.660156 32.375 26.847656 32.242188 C 27.359375 31.878906 27.921875 31.988281 28.46875 31.921875 C 29.457031 31.804688 30.835938 30.769531 31.210938 29.867188 C 31.300781 29.816406 31.46875 29.765625 31.46875 29.714844 C 31.457031 28.613281 31.84375 27.480469 31.226562 26.429688 C 31.285156 25.507812 31.222656 24.601562 30.878906 23.734375 C 31.109375 23.957031 31.34375 24.179688 31.574219 24.40625 C 31.777344 24.769531 31.980469 25.132812 32.183594 25.496094 C 32.21875 26.488281 32.257812 27.484375 32.292969 28.476562 C 32.28125 29.164062 32.269531 29.847656 32.261719 30.535156 "/>
<path style=" stroke:none;fill-rule:nonzero;fill:rgb(100%,99.995422%,99.925232%);fill-opacity:1;" d="M 23.742188 31.910156 C 24.585938 33.046875 25.855469 33.164062 27.109375 33.320312 C 27.105469 33.519531 27.101562 33.71875 27.101562 33.921875 C 25.988281 33.921875 24.875 33.921875 23.761719 33.921875 C 23.722656 33.714844 23.683594 33.507812 23.640625 33.261719 C 23.257812 33.261719 22.980469 33.261719 22.699219 33.261719 C 22.558594 32.742188 22.179688 32.566406 21.683594 32.566406 C 21.234375 32.015625 20.785156 31.464844 20.335938 30.914062 C 20.230469 30.269531 20.09375 29.628906 20.035156 28.984375 C 19.988281 28.492188 20.042969 27.996094 20.054688 27.503906 C 20.363281 27.609375 20.671875 27.71875 20.980469 27.828125 C 21.136719 28.53125 21.847656 29.007812 21.792969 29.800781 C 22.753906 30.214844 23.011719 31.28125 23.742188 31.910156 "/>
<path style=" stroke:none;fill-rule:nonzero;fill:rgb(10.940552%,8.84552%,7.841492%);fill-opacity:1;" d="M 11.09375 38.433594 C 10.933594 38.617188 10.773438 38.804688 10.605469 38.992188 C 9.980469 38.710938 10.039062 38.152344 10.121094 37.585938 C 10.566406 37.285156 11.015625 36.980469 11.460938 36.675781 C 11.972656 36.710938 12.308594 36.46875 12.5 36.003906 C 12.992188 36.003906 13.34375 35.78125 13.53125 35.324219 C 14.832031 34.875 15.832031 33.917969 17.027344 33.289062 C 17.492188 33.042969 17.875 32.636719 18.292969 32.304688 C 18.792969 32.144531 19.21875 32.332031 19.632812 32.578125 L 19.628906 32.589844 C 19.621094 32.808594 19.617188 33.03125 19.609375 33.25 L 19.625 33.257812 C 19.113281 33.230469 18.78125 33.476562 18.585938 33.933594 L 18.59375 33.921875 C 18.386719 33.980469 18.148438 33.992188 17.96875 34.101562 C 15.671875 35.539062 13.382812 36.988281 11.09375 38.433594 "/>
<path style=" stroke:none;fill-rule:nonzero;fill:rgb(92.047119%,86.569214%,48.492432%);fill-opacity:1;" d="M 11.09375 38.433594 C 13.382812 36.988281 15.671875 35.539062 17.96875 34.101562 C 18.148438 33.992188 18.386719 33.980469 18.59375 33.921875 C 18.109375 35.015625 17.027344 35.398438 16.128906 35.996094 C 15.800781 36.214844 15.492188 36.457031 15.160156 36.660156 C 14.839844 36.855469 14.515625 37.054688 14.167969 37.195312 C 13.5625 37.441406 13.28125 38.339844 12.402344 38.074219 C 12.347656 38.058594 12.21875 38.453125 12.0625 38.558594 C 11.726562 38.789062 11.355469 38.929688 11.09375 38.433594 "/>
<path style=" stroke:none;fill-rule:nonzero;fill:rgb(86.730957%,74.954224%,13.952637%);fill-opacity:1;" d="M 33.875 27.128906 C 33.875 27.359375 33.878906 27.59375 33.878906 27.828125 C 33.71875 27.835938 33.558594 27.84375 33.304688 27.859375 C 33.273438 28.484375 33.242188 29.105469 33.210938 29.792969 C 32.976562 29.820312 32.777344 29.84375 32.574219 29.863281 C 32.574219 29.414062 32.574219 28.964844 32.578125 28.515625 C 32.683594 28.410156 32.902344 28.238281 32.882812 28.210938 C 32.429688 27.4375 32.582031 26.597656 32.585938 25.773438 C 32.753906 25.785156 32.921875 25.796875 33.183594 25.816406 C 33.226562 26.230469 33.273438 26.65625 33.316406 27.085938 C 33.542969 27.101562 33.710938 27.113281 33.875 27.128906 "/>
<path style=" stroke:none;fill-rule:nonzero;fill:rgb(72.724915%,65.196228%,18.589783%);fill-opacity:1;" d="M 24.097656 36.015625 C 24.097656 37.53125 24.097656 39.050781 24.097656 40.675781 C 23.457031 40.707031 22.90625 40.734375 22.359375 40.765625 C 22.371094 40.59375 22.378906 40.425781 22.390625 40.15625 C 22.800781 40.109375 23.21875 40.0625 23.71875 40.007812 C 23.71875 38.828125 23.722656 37.707031 23.714844 36.585938 C 23.710938 36.292969 23.679688 36.011719 24.097656 36.015625 "/>
<path style=" stroke:none;fill-rule:nonzero;fill:rgb(92.047119%,86.569214%,48.492432%);fill-opacity:1;" d="M 35.992188 27.894531 C 37.128906 27.867188 38.191406 27.210938 39.363281 27.488281 C 39.15625 28.207031 38.460938 27.558594 38.128906 27.925781 C 38.03125 28.109375 37.9375 28.292969 37.863281 28.433594 C 37.222656 28.433594 36.636719 28.433594 36.035156 28.433594 C 36.019531 28.214844 36.003906 28.054688 35.992188 27.894531 "/>
<path style=" stroke:none;fill-rule:nonzero;fill:rgb(92.047119%,86.569214%,48.492432%);fill-opacity:1;" d="M 19.628906 39.054688 C 20.050781 38.347656 20.167969 37.449219 20.972656 36.992188 C 20.972656 37.378906 20.972656 37.765625 20.972656 37.949219 C 20.605469 38.496094 20.335938 38.90625 20.023438 39.375 C 19.96875 39.378906 19.800781 39.390625 19.636719 39.402344 C 19.632812 39.285156 19.632812 39.171875 19.628906 39.054688 "/>
<path style=" stroke:none;fill-rule:nonzero;fill:rgb(92.047119%,86.569214%,48.492432%);fill-opacity:1;" d="M 29.828125 32.875 C 30.515625 32.4375 31.199219 32.003906 31.886719 31.566406 C 31.886719 31.84375 31.886719 32.121094 31.886719 32.304688 C 31.363281 32.613281 30.917969 32.90625 30.449219 33.140625 C 30.269531 33.230469 30.03125 33.207031 29.820312 33.230469 C 29.824219 33.113281 29.828125 32.992188 29.828125 32.875 "/>
<path style=" stroke:none;fill-rule:nonzero;fill:rgb(92.047119%,86.569214%,48.492432%);fill-opacity:1;" d="M 24.808594 37.714844 C 25.117188 37.109375 25.425781 36.507812 25.734375 35.90625 C 25.734375 36.5625 25.734375 37.21875 25.734375 37.972656 C 25.496094 38 25.292969 38.023438 25.089844 38.042969 C 24.996094 37.933594 24.902344 37.824219 24.808594 37.714844 "/>
<path style=" stroke:none;fill-rule:nonzero;fill:rgb(92.047119%,86.569214%,48.492432%);fill-opacity:1;" d="M 14.105469 30.820312 C 14.820312 30.648438 15.53125 30.472656 16.242188 30.296875 C 16.234375 30.378906 16.226562 30.457031 16.226562 30.535156 C 15.800781 31.148438 15.195312 31.285156 14.503906 31.203125 C 14.371094 31.078125 14.238281 30.949219 14.105469 30.820312 "/>
<path style=" stroke:none;fill-rule:nonzero;fill:rgb(92.047119%,86.569214%,48.492432%);fill-opacity:1;" d="M 27.101562 33.921875 C 27.101562 33.71875 27.105469 33.519531 27.109375 33.320312 C 27.566406 33.300781 28.023438 33.28125 28.484375 33.265625 C 28.710938 33.265625 28.9375 33.265625 29.164062 33.265625 C 28.640625 34 27.882812 34.003906 27.101562 33.921875 "/>
<path style=" stroke:none;fill-rule:nonzero;fill:rgb(86.730957%,74.954224%,13.952637%);fill-opacity:1;" d="M 33.25 33.949219 C 32.628906 33.484375 31.925781 33.601562 31.230469 33.664062 C 31.359375 33.53125 31.472656 33.292969 31.613281 33.277344 C 32.105469 33.230469 32.605469 33.261719 33.207031 33.261719 C 33.222656 33.535156 33.234375 33.742188 33.25 33.949219 "/>
<path style=" stroke:none;fill-rule:nonzero;fill:rgb(86.730957%,74.954224%,13.952637%);fill-opacity:1;" d="M 18.597656 41.09375 C 18.546875 40.597656 18.839844 40.296875 19.195312 40.03125 C 19.339844 40.042969 19.480469 40.058594 19.625 40.070312 C 19.914062 40.808594 18.800781 40.71875 18.882812 41.335938 C 18.839844 41.339844 18.796875 41.34375 18.753906 41.347656 C 18.703125 41.261719 18.652344 41.175781 18.597656 41.09375 "/>
<path style=" stroke:none;fill-rule:nonzero;fill:rgb(86.730957%,74.954224%,13.952637%);fill-opacity:1;" d="M 13.53125 35.324219 C 13.34375 35.78125 12.992188 36.003906 12.5 36.003906 C 12.378906 36 12.257812 35.996094 12.140625 35.992188 C 12.160156 35.789062 12.179688 35.585938 12.207031 35.324219 C 12.691406 35.324219 13.109375 35.324219 13.53125 35.324219 "/>
<path style=" stroke:none;fill-rule:nonzero;fill:rgb(72.724915%,65.196228%,18.589783%);fill-opacity:1;" d="M 38.699219 36.671875 C 38.476562 37.671875 38.273438 37.808594 37.601562 37.410156 C 37.816406 37.191406 38.03125 36.976562 38.3125 36.695312 C 38.359375 36.691406 38.527344 36.679688 38.699219 36.671875 "/>
<path style=" stroke:none;fill-rule:nonzero;fill:rgb(86.730957%,74.954224%,13.952637%);fill-opacity:1;" d="M 27.824219 36.628906 C 27.933594 36.859375 28.042969 37.089844 28.15625 37.320312 C 28.253906 37.445312 28.355469 37.570312 28.453125 37.691406 C 28.488281 37.800781 28.511719 37.910156 28.515625 38.023438 C 28.347656 38.023438 28.179688 38.023438 28.007812 38.023438 C 27.84375 37.738281 27.683594 37.460938 27.527344 37.191406 C 27.621094 37.015625 27.722656 36.824219 27.824219 36.628906 "/>
<path style=" stroke:none;fill-rule:nonzero;fill:rgb(86.730957%,74.954224%,13.952637%);fill-opacity:1;" d="M 21.652344 35.5625 C 21.773438 35.363281 21.894531 35.164062 22.019531 34.96875 C 22.59375 35.117188 22.324219 35.519531 22.289062 35.945312 C 22.09375 35.964844 21.894531 35.980469 21.695312 36 C 21.679688 35.851562 21.664062 35.707031 21.652344 35.5625 "/>
<path style=" stroke:none;fill-rule:nonzero;fill:rgb(74.401855%,70.809937%,59.991455%);fill-opacity:1;" d="M 32.578125 28.515625 C 32.574219 28.964844 32.574219 29.414062 32.574219 29.863281 C 32.46875 30.089844 32.363281 30.3125 32.261719 30.535156 C 32.269531 29.847656 32.28125 29.164062 32.292969 28.476562 C 32.386719 28.496094 32.480469 28.507812 32.578125 28.515625 "/>
<path style=" stroke:none;fill-rule:nonzero;fill:rgb(72.724915%,65.196228%,18.589783%);fill-opacity:1;" d="M 42.773438 29.179688 C 42.753906 29.734375 42.59375 30.21875 42.117188 30.558594 C 42.117188 30.144531 42.117188 29.730469 42.117188 29.253906 C 42.378906 29.222656 42.578125 29.203125 42.773438 29.179688 "/>
<path style=" stroke:none;fill-rule:nonzero;fill:rgb(86.730957%,74.954224%,13.952637%);fill-opacity:1;" d="M 22.699219 33.261719 C 22.980469 33.261719 23.257812 33.261719 23.640625 33.261719 C 23.683594 33.507812 23.722656 33.714844 23.761719 33.921875 C 23.449219 33.921875 23.132812 33.921875 22.753906 33.921875 C 22.734375 33.667969 22.714844 33.464844 22.699219 33.261719 "/>
<path style=" stroke:none;fill-rule:nonzero;fill:rgb(86.730957%,74.954224%,13.952637%);fill-opacity:1;" d="M 28.476562 43.085938 C 28.023438 43.207031 27.574219 43.332031 27.121094 43.453125 C 27.132812 43.285156 27.148438 43.117188 27.160156 42.910156 C 27.617188 42.859375 28.097656 42.503906 28.476562 43.085938 "/>
<path style=" stroke:none;fill-rule:nonzero;fill:rgb(92.047119%,86.569214%,48.492432%);fill-opacity:1;" d="M 18.585938 33.933594 C 18.78125 33.476562 19.113281 33.230469 19.625 33.257812 C 19.609375 33.460938 19.59375 33.660156 19.574219 33.933594 C 19.203125 33.933594 18.894531 33.933594 18.585938 33.933594 "/>
<path style=" stroke:none;fill-rule:nonzero;fill:rgb(86.730957%,74.954224%,13.952637%);fill-opacity:1;" d="M 21.683594 32.566406 C 22.179688 32.566406 22.558594 32.742188 22.699219 33.261719 C 22.433594 33.261719 22.171875 33.261719 21.796875 33.261719 C 21.761719 33.039062 21.722656 32.804688 21.683594 32.566406 "/>
<path style=" stroke:none;fill-rule:nonzero;fill:rgb(72.724915%,65.196228%,18.589783%);fill-opacity:1;" d="M 12.140625 35.992188 C 12.257812 35.996094 12.378906 36 12.5 36.003906 C 12.308594 36.46875 11.972656 36.710938 11.460938 36.675781 C 11.476562 36.480469 11.492188 36.285156 11.511719 36.046875 C 11.75 36.027344 11.945312 36.007812 12.140625 35.992188 "/>
<path style=" stroke:none;fill-rule:nonzero;fill:rgb(72.724915%,65.196228%,18.589783%);fill-opacity:1;" d="M 11.839844 29.890625 C 11.371094 30.515625 10.679688 30.066406 10.121094 30.242188 C 10.25 30.113281 10.371094 29.886719 10.511719 29.875 C 10.949219 29.835938 11.398438 29.878906 11.839844 29.890625 "/>
<path style=" stroke:none;fill-rule:nonzero;fill:rgb(86.730957%,74.954224%,13.952637%);fill-opacity:1;" d="M 19.632812 32.578125 C 19.21875 32.332031 18.792969 32.144531 18.292969 32.304688 C 18.402344 31.554688 18.980469 32.03125 19.332031 31.910156 C 19.371094 31.898438 19.425781 31.949219 19.589844 32.015625 C 19.601562 32.164062 19.617188 32.371094 19.632812 32.578125 "/>
<path style=" stroke:none;fill-rule:nonzero;fill:rgb(100%,99.995422%,99.925232%);fill-opacity:1;" d="M 14.105469 30.820312 C 14.238281 30.949219 14.371094 31.078125 14.503906 31.203125 C 14.171875 31.214844 13.839844 31.222656 13.511719 31.234375 C 13.285156 31.136719 13.058594 31.035156 12.832031 30.933594 C 13.257812 30.898438 13.683594 30.859375 14.105469 30.820312 "/>
<path style=" stroke:none;fill-rule:nonzero;fill:rgb(100%,99.995422%,99.925232%);fill-opacity:1;" d="M 16.226562 30.535156 C 16.226562 30.457031 16.234375 30.378906 16.242188 30.296875 C 16.691406 30.242188 17.144531 30.191406 17.59375 30.136719 C 17.46875 30.273438 17.363281 30.503906 17.21875 30.527344 C 16.898438 30.585938 16.558594 30.539062 16.226562 30.535156 "/>
<path style=" stroke:none;fill-rule:nonzero;fill:rgb(86.730957%,74.954224%,13.952637%);fill-opacity:1;" d="M 42.113281 30.546875 C 42.015625 30.78125 41.910156 31.015625 41.808594 31.25 C 41.683594 31.242188 41.554688 31.234375 41.425781 31.226562 C 41.441406 31.03125 41.457031 30.835938 41.476562 30.589844 C 41.722656 30.574219 41.917969 30.5625 42.113281 30.546875 "/>
<path style=" stroke:none;fill-rule:nonzero;fill:rgb(72.724915%,65.196228%,18.589783%);fill-opacity:1;" d="M 41.425781 31.226562 C 41.554688 31.234375 41.683594 31.242188 41.808594 31.25 C 41.785156 31.511719 41.761719 31.769531 41.722656 32.214844 C 41.464844 32.101562 41.257812 32.015625 41.050781 31.925781 C 41.523438 31.878906 41.410156 31.519531 41.425781 31.226562 "/>
<path style=" stroke:none;fill-rule:nonzero;fill:rgb(72.724915%,65.196228%,18.589783%);fill-opacity:1;" d="M 19.609375 33.25 C 19.617188 33.03125 19.621094 32.808594 19.628906 32.589844 C 19.847656 32.679688 20.238281 32.742188 20.253906 32.859375 C 20.332031 33.378906 19.902344 33.234375 19.609375 33.25 "/>
<path style=" stroke:none;fill-rule:nonzero;fill:rgb(86.730957%,74.954224%,13.952637%);fill-opacity:1;" d="M 29.128906 35.054688 C 28.695312 35.050781 28.265625 35.042969 27.832031 35.039062 C 28.246094 34.453125 28.757812 34.460938 29.128906 35.054688 "/>
<path style=" stroke:none;fill-rule:nonzero;fill:rgb(72.724915%,65.196228%,18.589783%);fill-opacity:1;" d="M 22 34.296875 C 21.664062 34.28125 21.324219 34.269531 20.988281 34.257812 C 21.300781 33.589844 21.835938 34.089844 22.507812 33.933594 C 22.203125 34.152344 22.101562 34.222656 22 34.296875 "/>
<path style=" stroke:none;fill-rule:nonzero;fill:rgb(72.724915%,65.196228%,18.589783%);fill-opacity:1;" d="M 18.96875 27.789062 C 19.585938 28.128906 19.183594 28.714844 19.296875 29.175781 C 19.179688 29.039062 18.984375 28.910156 18.960938 28.757812 C 18.914062 28.441406 18.960938 28.113281 18.96875 27.789062 "/>
<path style=" stroke:none;fill-rule:nonzero;fill:rgb(100%,99.995422%,99.925232%);fill-opacity:1;" d="M 29.164062 33.265625 C 28.9375 33.265625 28.710938 33.265625 28.484375 33.265625 C 28.792969 32.660156 29.398438 33.066406 29.828125 32.875 C 29.828125 32.992188 29.824219 33.113281 29.820312 33.230469 C 29.601562 33.242188 29.382812 33.253906 29.164062 33.265625 "/>
<path style=" stroke:none;fill-rule:nonzero;fill:rgb(72.724915%,65.196228%,18.589783%);fill-opacity:1;" d="M 21.671875 41.445312 C 21.445312 41.667969 21.21875 41.898438 20.992188 42.125 C 21.007812 41.929688 21.023438 41.734375 21.042969 41.492188 C 21.285156 41.472656 21.480469 41.457031 21.671875 41.445312 "/>
<path style=" stroke:none;fill-rule:nonzero;fill:rgb(72.724915%,65.196228%,18.589783%);fill-opacity:1;" d="M 19.296875 25.78125 C 19.222656 26.144531 19.523438 26.617188 18.976562 26.839844 C 18.96875 26.488281 18.960938 26.132812 18.953125 25.78125 C 19.066406 25.78125 19.179688 25.78125 19.296875 25.78125 "/>
<path style=" stroke:none;fill-rule:nonzero;fill:rgb(72.724915%,65.196228%,18.589783%);fill-opacity:1;" d="M 14.199219 29.53125 C 13.988281 30.105469 13.519531 29.777344 13.160156 29.824219 C 13.367188 29.234375 13.851562 29.628906 14.199219 29.53125 "/>
<path style=" stroke:none;fill-rule:nonzero;fill:rgb(86.730957%,74.954224%,13.952637%);fill-opacity:1;" d="M 19.988281 35.691406 C 19.871094 35.910156 19.757812 36.132812 19.640625 36.355469 C 19.640625 36.03125 19.640625 35.707031 19.640625 35.136719 C 19.847656 35.464844 19.917969 35.578125 19.988281 35.691406 "/>
<path style=" stroke:none;fill-rule:nonzero;fill:rgb(92.047119%,86.569214%,48.492432%);fill-opacity:1;" d="M 21.652344 35.5625 C 21.664062 35.707031 21.679688 35.851562 21.695312 36 C 21.628906 36.253906 21.839844 36.675781 21.296875 36.636719 C 21.335938 36.253906 21.144531 35.792969 21.652344 35.5625 "/>
<path style=" stroke:none;fill-rule:nonzero;fill:rgb(74.401855%,70.809937%,59.991455%);fill-opacity:1;" d="M 19.625 40.070312 C 19.480469 40.058594 19.339844 40.042969 19.195312 40.03125 C 19.339844 39.707031 19.484375 39.382812 19.628906 39.054688 C 19.632812 39.171875 19.632812 39.285156 19.636719 39.402344 C 19.632812 39.625 19.628906 39.847656 19.625 40.070312 "/>
<path style=" stroke:none;fill-rule:nonzero;fill:rgb(100%,99.995422%,99.925232%);fill-opacity:1;" d="M 24.808594 37.714844 C 24.902344 37.824219 24.996094 37.933594 25.089844 38.042969 C 25.078125 38.269531 25.070312 38.492188 25.058594 38.714844 L 24.921875 38.71875 L 24.785156 38.695312 C 24.792969 38.367188 24.800781 38.039062 24.808594 37.714844 "/>
<path style=" stroke:none;fill-rule:nonzero;fill:rgb(72.724915%,65.196228%,18.589783%);fill-opacity:1;" d="M 39.074219 36.007812 C 38.949219 36.226562 38.824219 36.449219 38.699219 36.667969 C 38.730469 36.398438 38.5625 36.011719 39.074219 36.007812 "/>
<path style=" stroke:none;fill-rule:nonzero;fill:rgb(92.047119%,86.569214%,48.492432%);fill-opacity:1;" d="M 20.96875 36.992188 C 21.078125 36.875 21.1875 36.761719 21.292969 36.644531 C 21.1875 36.761719 21.078125 36.875 20.96875 36.992188 "/>
<path style=" stroke:none;fill-rule:nonzero;fill:rgb(92.047119%,86.569214%,48.492432%);fill-opacity:1;" d="M 36.289062 39.390625 C 36.191406 39.523438 36.09375 39.652344 35.996094 39.78125 C 36.09375 39.652344 36.191406 39.523438 36.289062 39.390625 "/>
<path style=" stroke:none;fill-rule:nonzero;fill:rgb(10.940552%,8.84552%,7.841492%);fill-opacity:1;" d="M 43.0625 21.664062 C 42.972656 21.660156 42.882812 21.667969 42.792969 21.6875 C 42.105469 21.921875 41.332031 21.878906 40.730469 22.371094 L 40.730469 22.359375 C 40.503906 22.386719 40.277344 22.410156 40.050781 22.4375 C 39.59375 22.640625 39.136719 22.84375 38.679688 23.042969 L 38.695312 23.03125 C 38.460938 23.144531 38.226562 23.257812 37.992188 23.367188 L 38 23.359375 C 37.535156 23.46875 36.957031 23.117188 36.621094 23.71875 C 36.179688 23.835938 35.734375 23.949219 35.292969 24.0625 C 34.839844 24.101562 34.386719 24.144531 33.933594 24.183594 C 33.371094 24.140625 33.148438 23.855469 33.296875 23.320312 C 34.421875 22.992188 35.539062 22.667969 36.65625 22.34375 C 37.273438 22.238281 37.902344 22.167969 38.382812 21.699219 C 39.929688 21.292969 41.476562 20.890625 43.03125 20.484375 C 43.144531 20.636719 43.296875 20.839844 43.449219 21.042969 C 43.320312 21.25 43.191406 21.457031 43.0625 21.664062 "/>
<path style=" stroke:none;fill-rule:nonzero;fill:rgb(100%,99.995422%,99.925232%);fill-opacity:1;" d="M 31.574219 24.40625 C 31.34375 24.179688 31.109375 23.957031 30.878906 23.734375 C 30.464844 23.289062 30.050781 22.839844 29.636719 22.394531 C 28.816406 22.703125 28.511719 21.683594 27.808594 21.683594 C 27.808594 21.558594 27.808594 21.433594 27.804688 21.308594 C 28.480469 21.351562 29.15625 21.398438 29.832031 21.441406 L 29.855469 21.433594 C 29.960938 21.519531 30.058594 21.605469 30.164062 21.691406 C 30.277344 21.710938 30.386719 21.730469 30.5 21.753906 C 30.480469 22.242188 30.761719 22.398438 31.195312 22.386719 C 31.136719 22.890625 31.367188 23.109375 31.863281 23.070312 C 31.882812 23.285156 31.902344 23.496094 31.917969 23.710938 C 31.804688 23.941406 31.691406 24.171875 31.574219 24.40625 "/>
<path style=" stroke:none;fill-rule:nonzero;fill:rgb(100%,99.995422%,99.925232%);fill-opacity:1;" d="M 32.578125 28.515625 C 32.480469 28.507812 32.386719 28.496094 32.292969 28.476562 C 32.257812 27.484375 32.21875 26.488281 32.183594 25.496094 C 32.308594 25.367188 32.429688 25.238281 32.550781 25.109375 C 32.5625 25.332031 32.574219 25.550781 32.585938 25.773438 C 32.582031 26.597656 32.429688 27.4375 32.882812 28.210938 C 32.902344 28.238281 32.683594 28.410156 32.578125 28.515625 "/>
<path style=" stroke:none;fill-rule:nonzero;fill:rgb(92.047119%,86.569214%,48.492432%);fill-opacity:1;" d="M 32.550781 25.109375 C 32.429688 25.238281 32.308594 25.367188 32.183594 25.496094 C 31.980469 25.132812 31.777344 24.769531 31.574219 24.40625 C 31.691406 24.171875 31.804688 23.941406 31.917969 23.710938 C 32.074219 23.726562 32.230469 23.746094 32.550781 23.789062 C 32.550781 24.214844 32.550781 24.664062 32.550781 25.109375 "/>
<path style=" stroke:none;fill-rule:nonzero;fill:rgb(86.730957%,74.954224%,13.952637%);fill-opacity:1;" d="M 43.0625 21.664062 C 43.191406 21.457031 43.320312 21.25 43.449219 21.042969 C 43.511719 20.71875 43.351562 20.199219 44.082031 20.421875 C 44.082031 20.765625 44.082031 21.125 44.082031 21.605469 C 43.773438 21.625 43.417969 21.644531 43.0625 21.664062 "/>
<path style=" stroke:none;fill-rule:nonzero;fill:rgb(72.724915%,65.196228%,18.589783%);fill-opacity:1;" d="M 23.058594 14.839844 C 23.164062 14.996094 23.347656 15.152344 23.359375 15.320312 C 23.410156 16.070312 23.410156 16.824219 23.425781 17.574219 C 23.292969 17.449219 23.050781 17.324219 23.046875 17.191406 C 23.023438 16.40625 23.050781 15.621094 23.058594 14.839844 "/>
<path style=" stroke:none;fill-rule:nonzero;fill:rgb(92.047119%,86.569214%,48.492432%);fill-opacity:1;" d="M 40.730469 22.371094 C 41.332031 21.878906 42.105469 21.921875 42.792969 21.6875 C 42.78125 21.847656 42.769531 22.007812 42.75 22.253906 C 42.097656 22.460938 41.40625 22.339844 40.730469 22.371094 "/>
<path style=" stroke:none;fill-rule:nonzero;fill:rgb(86.730957%,74.954224%,13.952637%);fill-opacity:1;" d="M 38.382812 21.699219 C 37.902344 22.167969 37.273438 22.238281 36.65625 22.34375 C 36.667969 22.183594 36.679688 22.027344 36.699219 21.699219 C 37.253906 21.699219 37.816406 21.699219 38.382812 21.699219 "/>
<path style=" stroke:none;fill-rule:nonzero;fill:rgb(72.724915%,65.196228%,18.589783%);fill-opacity:1;" d="M 29.117188 19.621094 C 29.257812 19.179688 29.398438 18.738281 29.535156 18.300781 C 29.636719 18.292969 29.734375 18.28125 29.835938 18.257812 C 29.835938 18.683594 29.835938 19.109375 29.835938 19.621094 C 29.53125 19.621094 29.328125 19.621094 29.117188 19.621094 "/>
<path style=" stroke:none;fill-rule:nonzero;fill:rgb(92.047119%,86.569214%,48.492432%);fill-opacity:1;" d="M 38.679688 23.042969 C 39.136719 22.84375 39.59375 22.640625 40.050781 22.4375 C 40.050781 22.640625 40.050781 22.839844 40.050781 23.042969 C 39.59375 23.042969 39.136719 23.042969 38.679688 23.042969 "/>
<path style=" stroke:none;fill-rule:nonzero;fill:rgb(72.724915%,65.196228%,18.589783%);fill-opacity:1;" d="M 29.160156 20.679688 C 28.742188 20.671875 28.320312 20.6875 27.910156 20.632812 C 27.753906 20.613281 27.613281 20.433594 27.46875 20.328125 C 27.894531 20.324219 28.328125 20.289062 28.75 20.335938 C 28.898438 20.351562 29.023438 20.558594 29.160156 20.679688 "/>
<path style=" stroke:none;fill-rule:nonzero;fill:rgb(8.805847%,8.99353%,11.891174%);fill-opacity:1;" d="M 29.835938 18.257812 C 29.734375 18.28125 29.636719 18.292969 29.535156 18.300781 C 29.417969 18.152344 29.300781 18.007812 29.183594 17.863281 C 29.417969 17.78125 29.652344 17.699219 29.886719 17.617188 C 29.871094 17.832031 29.851562 18.042969 29.835938 18.257812 "/>
<path style=" stroke:none;fill-rule:nonzero;fill:rgb(72.724915%,65.196228%,18.589783%);fill-opacity:1;" d="M 34.316406 13.542969 C 34.300781 13.988281 34.28125 14.433594 34.269531 14.878906 C 33.796875 14.398438 33.816406 13.902344 34.316406 13.542969 "/>
<path style=" stroke:none;fill-rule:nonzero;fill:rgb(86.730957%,74.954224%,13.952637%);fill-opacity:1;" d="M 20.328125 23.058594 C 20.101562 23.40625 19.871094 23.753906 19.644531 24.101562 C 19.644531 23.832031 19.644531 23.566406 19.644531 23.179688 C 19.855469 23.144531 20.089844 23.101562 20.328125 23.058594 "/>
<path style=" stroke:none;fill-rule:nonzero;fill:rgb(86.730957%,74.954224%,13.952637%);fill-opacity:1;" d="M 40.050781 23.042969 C 40.050781 22.839844 40.050781 22.640625 40.050781 22.4375 C 40.277344 22.410156 40.503906 22.386719 40.730469 22.359375 C 40.722656 22.558594 40.710938 22.753906 40.699219 23.003906 C 40.445312 23.019531 40.246094 23.03125 40.050781 23.042969 "/>
<path style=" stroke:none;fill-rule:nonzero;fill:rgb(92.047119%,86.569214%,48.492432%);fill-opacity:1;" d="M 31.863281 23.070312 C 31.367188 23.109375 31.136719 22.890625 31.195312 22.386719 C 31.394531 22.398438 31.589844 22.410156 31.863281 22.425781 C 31.863281 22.679688 31.863281 22.875 31.863281 23.070312 "/>
<path style=" stroke:none;fill-rule:nonzero;fill:rgb(92.047119%,86.569214%,48.492432%);fill-opacity:1;" d="M 36.621094 23.71875 C 36.957031 23.117188 37.535156 23.46875 38 23.359375 C 37.867188 23.484375 37.75 23.691406 37.601562 23.714844 C 37.28125 23.769531 36.949219 23.722656 36.621094 23.71875 "/>
<path style=" stroke:none;fill-rule:nonzero;fill:rgb(72.724915%,65.196228%,18.589783%);fill-opacity:1;" d="M 33.933594 24.183594 C 34.386719 24.144531 34.839844 24.101562 35.292969 24.0625 C 34.890625 24.6875 34.414062 24.453125 33.933594 24.183594 "/>
<path style=" stroke:none;fill-rule:nonzero;fill:rgb(86.730957%,74.954224%,13.952637%);fill-opacity:1;" d="M 31.914062 21.289062 C 32.355469 21.296875 32.796875 21.304688 33.238281 21.3125 C 32.769531 21.855469 32.320312 21.847656 31.914062 21.289062 "/>
<path style=" stroke:none;fill-rule:nonzero;fill:rgb(86.730957%,74.954224%,13.952637%);fill-opacity:1;" d="M 37.035156 26.472656 C 36.832031 26.992188 36.371094 26.753906 36.015625 26.816406 C 35.902344 26.742188 35.789062 26.667969 35.503906 26.472656 C 36.152344 26.472656 36.59375 26.472656 37.035156 26.472656 "/>
<path style=" stroke:none;fill-rule:nonzero;fill:rgb(86.730957%,74.954224%,13.952637%);fill-opacity:1;" d="M 45.445312 24.417969 C 45.242188 24.65625 45.046875 24.898438 44.847656 25.136719 C 44.785156 24.679688 44.839844 24.320312 45.445312 24.417969 "/>
<path style=" stroke:none;fill-rule:nonzero;fill:rgb(72.724915%,65.196228%,18.589783%);fill-opacity:1;" d="M 30.5 21.753906 C 30.386719 21.730469 30.277344 21.710938 30.164062 21.691406 C 30.058594 21.605469 29.960938 21.519531 29.855469 21.433594 L 29.832031 21.441406 C 29.835938 21.300781 29.835938 21.15625 29.835938 21.015625 C 30.039062 21.03125 30.242188 21.046875 30.5 21.066406 C 30.5 21.339844 30.5 21.546875 30.5 21.753906 "/>
<path style=" stroke:none;fill-rule:nonzero;fill:rgb(86.730957%,74.954224%,13.952637%);fill-opacity:1;" d="M 35.296875 17.605469 C 35.070312 17.816406 34.84375 18.03125 34.613281 18.242188 C 34.539062 17.703125 34.8125 17.542969 35.296875 17.605469 "/>
<path style=" stroke:none;fill-rule:nonzero;fill:rgb(72.724915%,65.196228%,18.589783%);fill-opacity:1;" d="M 27.820312 19.628906 C 28.15625 19.644531 28.488281 19.660156 28.824219 19.671875 C 28.414062 20.125 28.132812 20.113281 27.820312 19.628906 "/>
<path style=" stroke:none;fill-rule:nonzero;fill:rgb(92.047119%,86.569214%,48.492432%);fill-opacity:1;" d="M 37.992188 23.367188 C 38.226562 23.257812 38.460938 23.144531 38.695312 23.03125 C 38.648438 23.53125 38.28125 23.371094 37.992188 23.367188 "/>
<path style=" stroke:none;fill-rule:nonzero;fill:rgb(86.730957%,74.954224%,13.952637%);fill-opacity:1;" d="M 13.824219 22.480469 C 13.800781 22.664062 13.777344 22.84375 13.753906 23.027344 C 13.703125 23.027344 13.652344 23.027344 13.601562 23.03125 C 13.570312 22.851562 13.535156 22.671875 13.503906 22.496094 C 13.609375 22.492188 13.71875 22.484375 13.824219 22.480469 "/>
<path style=" stroke:none;fill-rule:nonzero;fill:rgb(72.724915%,65.196228%,18.589783%);fill-opacity:1;" d="M 22.085938 12.199219 C 21.964844 12.324219 21.84375 12.445312 21.71875 12.570312 C 21.65625 12.265625 21.777344 12.140625 22.085938 12.199219 "/>
<path style=" stroke:none;fill-rule:nonzero;fill:rgb(72.724915%,65.196228%,18.589783%);fill-opacity:1;" d="M 47.953125 18.320312 C 47.839844 18.449219 47.722656 18.578125 47.605469 18.707031 C 47.722656 18.578125 47.839844 18.449219 47.953125 18.320312 "/>
<path style=" stroke:none;fill-rule:nonzero;fill:rgb(90.942383%,74.078369%,5.300903%);fill-opacity:1;" d="M 28.453125 37.691406 C 28.355469 37.570312 28.253906 37.445312 28.15625 37.320312 C 28.253906 37.445312 28.355469 37.570312 28.453125 37.691406 "/>
<path style=" stroke:none;fill-rule:nonzero;fill:rgb(92.047119%,86.569214%,48.492432%);fill-opacity:1;" d="M 21.75 23.082031 C 22.527344 22.4375 23.207031 21.621094 24.351562 21.640625 L 24.40625 21.699219 C 24.394531 21.867188 24.378906 22.039062 24.351562 22.292969 C 23.941406 22.34375 23.515625 22.394531 23.148438 22.4375 C 23.042969 22.667969 23.011719 22.851562 22.902344 22.953125 C 22.746094 23.089844 22.535156 23.15625 22.351562 23.253906 C 22.351562 23.570312 22.351562 23.855469 22.351562 24.230469 C 21.71875 24.21875 21.769531 25.214844 21.015625 25.113281 C 21 24.964844 20.984375 24.8125 20.972656 24.660156 C 21.09375 24.351562 21.214844 24.042969 21.335938 23.734375 C 21.472656 23.519531 21.613281 23.300781 21.75 23.082031 "/>
<path style=" stroke:none;fill-rule:nonzero;fill:rgb(92.047119%,86.569214%,48.492432%);fill-opacity:1;" d="M 20.980469 27.828125 C 20.671875 27.71875 20.363281 27.609375 20.054688 27.503906 C 20.230469 26.921875 20.40625 26.339844 20.582031 25.761719 C 20.710938 25.757812 20.839844 25.757812 20.96875 25.757812 C 20.972656 26.449219 20.976562 27.136719 20.980469 27.828125 "/>
<path style=" stroke:none;fill-rule:nonzero;fill:rgb(92.047119%,86.569214%,48.492432%);fill-opacity:1;" d="M 27.804688 21.308594 C 27.808594 21.433594 27.808594 21.558594 27.808594 21.683594 C 26.675781 21.6875 25.542969 21.695312 24.40625 21.699219 L 24.351562 21.640625 C 24.523438 21.539062 24.6875 21.363281 24.867188 21.347656 C 25.679688 21.28125 26.507812 21.425781 27.296875 21.066406 C 27.40625 21.015625 27.632812 21.222656 27.804688 21.308594 "/>
<path style=" stroke:none;fill-rule:nonzero;fill:rgb(8.805847%,8.99353%,11.891174%);fill-opacity:1;" d="M 21.75 23.082031 C 21.613281 23.300781 21.472656 23.519531 21.335938 23.734375 C 21.226562 23.582031 21.121094 23.429688 21.015625 23.277344 C 21.261719 23.210938 21.503906 23.148438 21.75 23.082031 "/>
<path style=" stroke:none;fill-rule:nonzero;fill:rgb(100%,99.995422%,99.925232%);fill-opacity:1;" d="M 20.96875 25.757812 C 20.839844 25.757812 20.710938 25.757812 20.582031 25.761719 C 20.710938 25.394531 20.84375 25.027344 20.972656 24.660156 C 20.984375 24.8125 21 24.964844 21.015625 25.113281 C 21 25.328125 20.984375 25.542969 20.96875 25.757812 "/>
<path style=" stroke:none;fill-rule:nonzero;fill:rgb(90.942383%,74.078369%,5.300903%);fill-opacity:1;" d="M 20.96875 25.757812 C 20.984375 25.542969 21 25.328125 21.015625 25.113281 C 21.769531 25.214844 21.71875 24.21875 22.351562 24.230469 C 22.351562 23.855469 22.351562 23.570312 22.351562 23.253906 C 22.535156 23.15625 22.746094 23.089844 22.902344 22.953125 C 23.011719 22.851562 23.042969 22.667969 23.148438 22.4375 C 23.515625 22.394531 23.941406 22.34375 24.351562 22.292969 C 24.378906 22.039062 24.394531 21.867188 24.40625 21.699219 C 25.542969 21.695312 26.675781 21.6875 27.808594 21.683594 C 28.511719 21.683594 28.816406 22.703125 29.636719 22.394531 C 30.050781 22.839844 30.464844 23.289062 30.878906 23.734375 C 31.222656 24.601562 31.285156 25.507812 31.226562 26.429688 C 31.222656 27.574219 31.21875 28.722656 31.210938 29.867188 C 30.835938 30.769531 29.457031 31.804688 28.46875 31.921875 C 27.921875 31.988281 27.359375 31.878906 26.847656 32.242188 C 26.660156 32.375 26.21875 32.386719 26.027344 32.257812 C 25.304688 31.769531 24.503906 31.996094 23.742188 31.910156 C 23.011719 31.28125 22.753906 30.214844 21.792969 29.800781 C 21.847656 29.007812 21.136719 28.53125 20.980469 27.828125 C 20.976562 27.136719 20.972656 26.449219 20.96875 25.757812 "/>
<path style=" stroke:none;fill-rule:nonzero;fill:rgb(72.724915%,65.196228%,18.589783%);fill-opacity:1;" d="M 31.210938 29.867188 C 31.21875 28.722656 31.222656 27.574219 31.226562 26.429688 C 31.84375 27.480469 31.457031 28.613281 31.46875 29.714844 C 31.46875 29.765625 31.300781 29.816406 31.210938 29.867188 "/>
<path style=" stroke:none;fill-rule:nonzero;fill:rgb(90.942383%,74.078369%,5.300903%);fill-opacity:1;" d="M 29.855469 21.433594 C 29.960938 21.519531 30.058594 21.605469 30.164062 21.691406 C 30.058594 21.605469 29.960938 21.519531 29.855469 21.433594 "/>
</g>
</svg>
