<?xml version="1.0" encoding="UTF-8"?>
<svg xmlns="http://www.w3.org/2000/svg" xmlns:xlink="http://www.w3.org/1999/xlink" width="56pt" height="56pt" viewBox="0 0 56 56" version="1.1">
<g id="surface1">
<rect x="0" y="0" width="56" height="56" style="fill:rgb(25.325012%,68.6203%,75.40741%);fill-opacity:1;stroke:none;"/>
<path style=" stroke:none;fill-rule:nonzero;fill:rgb(100%,100%,100%);fill-opacity:1;" d="M 32.207031 10.273438 L 11.34375 35.371094 C 11.128906 35.605469 11.046875 35.886719 11.144531 36.105469 C 11.242188 36.34375 11.457031 36.488281 11.757812 36.488281 L 44 36.492188 C 44.285156 36.492188 44.488281 36.246094 44.488281 35.972656 C 44.488281 35.691406 44.355469 35.527344 44.074219 35.460938 C 42.914062 35.183594 36.585938 33.816406 32.035156 32.4375 C 29.21875 31.585938 28.113281 29.164062 28.851562 25.933594 C 29.660156 22.351562 33.097656 10.839844 33.109375 10.804688 C 33.191406 10.570312 33.136719 10.273438 32.890625 10.152344 C 32.613281 10.007812 32.378906 10.074219 32.207031 10.273438 "/>
<path style=" stroke:none;fill-rule:nonzero;fill:rgb(100%,100%,100%);fill-opacity:1;" d="M 28.039062 8.082031 C 17.019531 8.082031 8.089844 17.015625 8.089844 28.054688 C 8.089844 39.058594 17.019531 47.996094 28.039062 47.996094 C 39.054688 47.996094 47.996094 39.058594 47.996094 28.054688 C 47.996094 16.929688 39.054688 8.082031 28.039062 8.082031 M 28.039062 5.304688 C 40.523438 5.304688 50.679688 15.46875 50.679688 28.050781 C 50.679688 40.515625 40.523438 50.695312 28.039062 50.695312 C 15.472656 50.695312 5.320312 40.515625 5.320312 28.050781 C 5.320312 15.476562 15.472656 5.304688 28.039062 5.304688 "/>
</g>
</svg>
