<?xml version="1.0" encoding="UTF-8"?>
<svg xmlns="http://www.w3.org/2000/svg" xmlns:xlink="http://www.w3.org/1999/xlink" width="56pt" height="56pt" viewBox="0 0 56 56" version="1.1">
<g id="surface1">
<rect x="0" y="0" width="56" height="56" style="fill:rgb(77.612305%,89.057922%,23.657227%);fill-opacity:1;stroke:none;"/>
<path style=" stroke:none;fill-rule:nonzero;fill:rgb(46.981812%,8.007812%,27.549744%);fill-opacity:1;" d="M 30.011719 25.539062 C 29.742188 23.222656 29.496094 21.054688 29.210938 18.589844 C 29.957031 18.113281 30.964844 17.441406 32 16.824219 C 35.578125 14.691406 39.21875 12.683594 43.261719 11.554688 C 44.996094 11.074219 46.71875 10.425781 48.574219 11.269531 C 49.476562 11.683594 50.082031 12.125 50.285156 13.171875 C 50.882812 16.28125 50.894531 19.355469 50.335938 22.484375 C 50.09375 23.828125 49.871094 25.132812 49.441406 26.445312 C 48.664062 28.804688 47.3125 30.597656 45.222656 31.914062 C 44.089844 32.628906 42.816406 32.839844 41.578125 33.046875 C 40.9375 33.15625 40.09375 32.738281 39.503906 32.324219 C 36.511719 30.21875 33.574219 28.039062 30.613281 25.890625 C 30.371094 25.714844 30.097656 25.589844 30.011719 25.539062 "/>
<path style=" stroke:none;fill-rule:nonzero;fill:rgb(46.981812%,8.007812%,27.549744%);fill-opacity:1;" d="M 29.511719 39.355469 C 30.464844 39.25 31.039062 39.183594 31.96875 39.082031 C 30.8125 38.164062 29.921875 37.457031 28.8125 36.578125 C 29.03125 34.496094 29.269531 32.253906 29.53125 29.792969 C 30.1875 30.007812 30.742188 30.15625 31.277344 30.363281 C 34.085938 31.457031 36.925781 32.480469 39.679688 33.703125 C 41.257812 34.40625 41.882812 36.046875 42.238281 37.601562 C 42.742188 39.796875 42.273438 41.855469 40.589844 43.511719 C 38.773438 45.300781 37.105469 45.613281 34.828125 44.453125 C 33.402344 43.726562 32.046875 42.878906 31.175781 41.433594 C 30.789062 40.792969 30.238281 40.253906 29.511719 39.355469 "/>
<path style=" stroke:none;fill-rule:nonzero;fill:rgb(32.102966%,68.647766%,90.150452%);fill-opacity:1;" d="M 25.988281 25.539062 C 26.253906 23.222656 26.503906 21.054688 26.789062 18.589844 C 26.042969 18.113281 25.035156 17.441406 24 16.824219 C 20.421875 14.691406 16.78125 12.683594 12.738281 11.554688 C 11.003906 11.074219 9.28125 10.425781 7.425781 11.269531 C 6.519531 11.683594 5.917969 12.125 5.714844 13.171875 C 5.117188 16.28125 5.105469 19.355469 5.664062 22.484375 C 5.90625 23.828125 6.128906 25.132812 6.558594 26.445312 C 7.335938 28.804688 8.6875 30.597656 10.777344 31.914062 C 11.910156 32.628906 13.183594 32.839844 14.421875 33.046875 C 15.0625 33.15625 15.90625 32.738281 16.496094 32.324219 C 19.488281 30.21875 22.425781 28.039062 25.386719 25.890625 C 25.628906 25.714844 25.902344 25.589844 25.988281 25.539062 "/>
<path style=" stroke:none;fill-rule:nonzero;fill:rgb(32.102966%,68.647766%,90.150452%);fill-opacity:1;" d="M 26.488281 39.355469 C 25.539062 39.25 24.960938 39.183594 24.03125 39.082031 C 25.1875 38.164062 26.078125 37.457031 27.1875 36.578125 C 26.964844 34.496094 26.730469 32.253906 26.46875 29.792969 C 25.8125 30.007812 25.257812 30.15625 24.722656 30.363281 C 21.914062 31.457031 19.074219 32.480469 16.320312 33.703125 C 14.742188 34.40625 14.117188 36.046875 13.761719 37.601562 C 13.257812 39.796875 13.726562 41.855469 15.410156 43.511719 C 17.226562 45.300781 18.894531 45.613281 21.171875 44.453125 C 22.597656 43.726562 23.953125 42.878906 24.824219 41.433594 C 25.210938 40.792969 25.761719 40.253906 26.488281 39.355469 "/>
</g>
</svg>
