<?xml version="1.0" encoding="UTF-8"?>
<svg xmlns="http://www.w3.org/2000/svg" xmlns:xlink="http://www.w3.org/1999/xlink" width="56pt" height="56pt" viewBox="0 0 56 56" version="1.1">
<g id="surface1">
<rect x="0" y="0" width="56" height="56" style="fill:rgb(69.670105%,11.413574%,13.801575%);fill-opacity:1;stroke:none;"/>
<path style=" stroke:none;fill-rule:nonzero;fill:rgb(100%,100%,100%);fill-opacity:1;" d="M 19.046875 22.636719 C 18.816406 22.75 18.648438 22.808594 18.503906 22.90625 C 17.289062 23.730469 16.335938 24.792969 15.644531 26.089844 C 15.039062 27.226562 15.027344 28.382812 15.566406 29.539062 C 16.277344 31.066406 17.347656 32.320312 18.589844 33.4375 C 18.628906 33.472656 18.703125 33.46875 18.800781 33.492188 C 19.117188 32.84375 19.378906 32.152344 19.769531 31.546875 C 20.183594 30.910156 20.691406 30.328125 21.214844 29.773438 C 21.714844 29.242188 22.285156 28.777344 22.816406 28.292969 C 21.980469 27.460938 21.15625 26.683594 20.378906 25.863281 C 19.554688 24.984375 19.320312 23.828125 19.046875 22.636719 Z M 9.273438 27.597656 C 9.945312 25.96875 11.261719 24.996094 12.753906 24.222656 C 14.367188 23.390625 16.050781 22.738281 17.804688 22.265625 C 18.1875 22.164062 18.566406 22.042969 18.902344 21.945312 C 18.976562 21.851562 19.035156 21.8125 19.046875 21.757812 C 19.796875 19.046875 21.710938 17.332031 24.035156 16.007812 C 28.703125 13.355469 33.675781 11.457031 38.867188 10.117188 C 41.152344 9.527344 43.4375 8.945312 45.722656 8.363281 C 45.921875 8.3125 46.132812 8.296875 46.359375 8.359375 C 45.4375 8.75 44.511719 9.132812 43.59375 9.535156 C 40.078125 11.070312 36.621094 12.726562 33.382812 14.796875 C 31.882812 15.757812 30.429688 16.792969 29.261719 18.160156 C 27.820312 19.84375 27.277344 21.734375 28.050781 23.886719 C 28.203125 24.304688 28.457031 24.6875 28.691406 25.148438 C 34.589844 22.792969 40.53125 20.90625 46.652344 19.648438 C 46.675781 19.714844 46.703125 19.78125 46.726562 19.847656 C 45.449219 20.40625 44.171875 20.980469 42.886719 21.527344 C 39.921875 22.785156 37 24.136719 34.226562 25.789062 C 33.492188 26.226562 32.796875 26.738281 32.101562 27.238281 C 31.808594 27.449219 31.5625 27.722656 31.289062 27.976562 C 31.507812 28.515625 31.910156 28.816406 32.308594 29.074219 C 33.695312 29.980469 35.070312 30.910156 36.515625 31.710938 C 38.929688 33.046875 41.394531 34.289062 43.839844 35.570312 C 44.191406 35.753906 44.535156 35.949219 44.851562 36.238281 C 42.066406 35.535156 39.289062 34.808594 36.492188 34.144531 C 33.710938 33.480469 31.121094 32.273438 28.417969 31.28125 C 27.789062 32.101562 27.71875 33.019531 27.742188 33.925781 C 27.773438 34.988281 28.136719 35.964844 28.699219 36.867188 C 29.550781 38.246094 30.714844 39.339844 31.964844 40.335938 C 34.855469 42.644531 38.070312 44.433594 41.375 46.066406 C 42.449219 46.59375 43.535156 47.085938 44.613281 47.679688 C 44.375 47.636719 44.136719 47.59375 43.898438 47.546875 C 39.820312 46.789062 35.839844 45.675781 31.957031 44.214844 C 29.492188 43.28125 27.003906 42.390625 24.722656 41.039062 C 22.457031 39.699219 20.621094 37.929688 19.441406 35.542969 C 19.234375 35.128906 18.917969 34.882812 18.515625 34.699219 C 17.511719 34.242188 16.496094 33.804688 15.507812 33.320312 C 14.488281 32.820312 13.476562 32.300781 12.496094 31.734375 C 11.1875 30.980469 10.007812 30.074219 9.273438 28.703125 C 9.273438 28.335938 9.273438 27.96875 9.273438 27.597656 "/>
</g>
</svg>
