<?xml version="1.0" encoding="UTF-8"?>
<svg xmlns="http://www.w3.org/2000/svg" xmlns:xlink="http://www.w3.org/1999/xlink" width="56pt" height="56pt" viewBox="0 0 56 56" version="1.1">
<g id="surface1">
<rect x="0" y="0" width="56" height="56" style="fill:rgb(95.252991%,95.86792%,96.788025%);fill-opacity:1;stroke:none;"/>
<path style=" stroke:none;fill-rule:nonzero;fill:rgb(90.280151%,11.291504%,14.355469%);fill-opacity:1;" d="M 30.429688 9 L 48.222656 9 C 45.472656 19.988281 42.828125 31.011719 40.070312 42 L 4 42 L 4 41.65625 L 4.003906 41.992188 C 12.789062 30.976562 21.605469 19.984375 30.429688 9 Z M 28.433594 15.359375 C 28.441406 17.722656 28.429688 20.089844 28.441406 22.453125 C 26.085938 22.460938 23.730469 22.449219 21.375 22.460938 C 21.386719 24.488281 21.386719 26.511719 21.375 28.539062 C 23.730469 28.554688 26.085938 28.539062 28.441406 28.546875 C 28.429688 30.910156 28.441406 33.277344 28.433594 35.640625 C 30.480469 35.652344 32.523438 35.648438 34.570312 35.644531 C 34.558594 33.277344 34.570312 30.910156 34.5625 28.542969 C 36.925781 28.542969 39.289062 28.546875 41.65625 28.542969 C 41.652344 26.515625 41.652344 24.484375 41.65625 22.453125 C 39.292969 22.453125 36.929688 22.453125 34.5625 22.457031 C 34.570312 20.089844 34.558594 17.722656 34.570312 15.355469 C 32.523438 15.351562 30.480469 15.34375 28.433594 15.359375 "/>
<path style=" stroke:none;fill-rule:nonzero;fill:rgb(100%,100%,100%);fill-opacity:1;" d="M 28.433594 15.359375 C 30.480469 15.347656 32.523438 15.351562 34.570312 15.355469 C 34.558594 17.722656 34.570312 20.089844 34.5625 22.457031 C 36.925781 22.453125 39.289062 22.453125 41.65625 22.453125 C 41.652344 24.484375 41.652344 26.515625 41.65625 28.542969 C 39.292969 28.546875 36.929688 28.542969 34.5625 28.542969 C 34.570312 30.910156 34.558594 33.277344 34.570312 35.644531 C 32.523438 35.648438 30.480469 35.652344 28.433594 35.640625 C 28.441406 33.277344 28.429688 30.910156 28.441406 28.546875 C 26.085938 28.539062 23.730469 28.554688 21.375 28.539062 C 21.386719 26.511719 21.386719 24.488281 21.375 22.457031 C 23.730469 22.449219 26.085938 22.457031 28.441406 22.453125 C 28.429688 20.089844 28.441406 17.722656 28.433594 15.359375 "/>
</g>
</svg>
