<?xml version="1.0" encoding="UTF-8"?>
<svg xmlns="http://www.w3.org/2000/svg" xmlns:xlink="http://www.w3.org/1999/xlink" width="56pt" height="56pt" viewBox="0 0 56 56" version="1.1">
<g id="surface1">
<rect x="0" y="0" width="56" height="56" style="fill:rgb(22.186279%,24.871826%,60.098267%);fill-opacity:1;stroke:none;"/>
<path style=" stroke:none;fill-rule:nonzero;fill:rgb(100%,100%,100%);fill-opacity:1;" d="M 5.488281 42.664062 C 10.359375 42.207031 27.554688 8.425781 27.554688 8.425781 L 27.523438 31.332031 C 27.523438 31.332031 30.597656 25.417969 34.859375 25.417969 C 39.117188 25.417969 52.511719 25.46875 52.511719 25.46875 L 48.707031 31.554688 L 35.617188 31.554688 L 34.859375 32.921875 L 48.097656 32.773438 L 44.902344 38.25 L 31.816406 38.097656 C 31.816406 38.097656 28.773438 40.683594 28.316406 43.421875 C 25.070312 43.421875 21.011719 43.578125 21.011719 43.578125 L 20.859375 32.011719 C 20.859375 32.011719 15.988281 42.664062 12.945312 42.664062 C 9.902344 42.664062 5.488281 42.664062 5.488281 42.664062 "/>
</g>
</svg>
