<?xml version="1.0" encoding="UTF-8"?>
<svg xmlns="http://www.w3.org/2000/svg" xmlns:xlink="http://www.w3.org/1999/xlink" width="56pt" height="56pt" viewBox="0 0 56 56" version="1.1">
<g id="surface1">
<rect x="0" y="0" width="56" height="56" style="fill:rgb(95.66803%,95.779419%,96.777344%);fill-opacity:1;stroke:none;"/>
<path style=" stroke:none;fill-rule:nonzero;fill:rgb(17.0578%,34.840393%,68.730164%);fill-opacity:1;" d="M 16.210938 48.015625 C 16.277344 47.753906 17.453125 44.996094 18.824219 41.886719 C 20.195312 38.777344 22.355469 33.847656 23.632812 30.929688 C 24.90625 28.011719 26.035156 25.621094 26.140625 25.621094 C 26.242188 25.621094 28.390625 26.90625 30.90625 28.46875 C 33.421875 30.035156 35.617188 31.390625 35.78125 31.484375 C 36.371094 31.8125 35.59375 31.035156 34.460938 30.160156 C 33.066406 29.085938 30.804688 26.449219 30.027344 24.996094 C 29.234375 23.503906 28.988281 22.210938 29.390625 21.636719 C 29.664062 21.242188 29.816406 21.214844 31.121094 21.316406 C 32.078125 21.386719 32.875 21.585938 33.523438 21.910156 C 35.503906 22.914062 39.890625 24.128906 43.023438 24.546875 C 43.566406 24.621094 44.074219 24.71875 44.152344 24.761719 C 44.226562 24.804688 43.082031 28.429688 41.605469 32.816406 C 39.730469 38.40625 38.730469 41.09375 38.273438 41.789062 C 36.253906 44.84375 32.957031 46.894531 28.539062 47.835938 C 26.921875 48.183594 25.601562 48.28125 21.324219 48.375 L 16.089844 48.488281 L 16.210938 48.015625 "/>
<path style=" stroke:none;fill-rule:nonzero;fill:rgb(17.0578%,34.840393%,68.730164%);fill-opacity:1;" d="M 42.226562 23.761719 C 39.378906 22.71875 36.179688 20.976562 36.519531 20.648438 C 36.800781 20.371094 39.960938 19.871094 42.257812 19.742188 C 43.496094 19.667969 44.484375 19.582031 44.449219 19.546875 C 44.1875 19.285156 39.25 19.085938 37.265625 19.261719 C 35.175781 19.441406 34.859375 19.421875 33.644531 19.046875 C 31.15625 18.28125 30.03125 17.480469 30.03125 16.476562 C 30.03125 15.808594 30.457031 15.359375 31.566406 14.871094 C 33.394531 14.0625 34.789062 13.925781 41.386719 13.921875 C 44.847656 13.921875 47.679688 13.988281 47.679688 14.070312 C 47.675781 14.527344 44.375 24.3125 44.210938 24.355469 C 44.101562 24.386719 43.210938 24.117188 42.226562 23.761719 "/>
<path style=" stroke:none;fill-rule:nonzero;fill:rgb(30.856323%,69.056702%,90.519714%);fill-opacity:1;" d="M 12.203125 34.121094 C 14.339844 29.78125 17.03125 24.292969 18.1875 21.917969 C 19.34375 19.546875 20.351562 17.605469 20.433594 17.605469 C 20.515625 17.605469 20.671875 17.714844 20.78125 17.851562 C 21.816406 19.140625 22.277344 19.574219 22.828125 19.796875 C 23.183594 19.9375 23.503906 20.074219 23.539062 20.097656 C 23.574219 20.125 23.417969 20.507812 23.191406 20.949219 C 22.964844 21.390625 22.78125 22.085938 22.78125 22.488281 C 22.78125 23.101562 22.929688 23.367188 23.671875 24.078125 L 24.558594 24.929688 L 22.011719 30.738281 C 20.605469 33.933594 18.933594 37.753906 18.285156 39.222656 L 17.113281 41.902344 L 12.71875 41.957031 L 8.320312 42.007812 L 12.203125 34.121094 "/>
<path style=" stroke:none;fill-rule:nonzero;fill:rgb(30.856323%,69.056702%,90.519714%);fill-opacity:1;" d="M 20.597656 17.257812 C 20.597656 17.175781 21.257812 15.769531 22.0625 14.132812 C 23.667969 10.871094 24.578125 9.777344 26.484375 8.8125 C 28.589844 7.742188 29.300781 7.65625 36.714844 7.542969 C 41.230469 7.476562 43.605469 7.507812 43.605469 7.640625 C 43.605469 7.746094 43.21875 8.941406 42.738281 10.289062 L 41.867188 12.746094 L 39.117188 12.871094 C 37.605469 12.9375 34.441406 13.003906 32.089844 13.019531 C 28.804688 13.035156 27.5625 13.117188 26.746094 13.359375 C 25.414062 13.753906 24.367188 14.730469 24.367188 15.578125 C 24.367188 16.148438 24.332031 16.167969 23.289062 16.257812 C 22.523438 16.320312 22.015625 16.5 21.519531 16.875 C 20.796875 17.425781 20.597656 17.507812 20.597656 17.257812 "/>
</g>
</svg>
