<?xml version="1.0" encoding="UTF-8"?>
<svg xmlns="http://www.w3.org/2000/svg" xmlns:xlink="http://www.w3.org/1999/xlink" width="56pt" height="56pt" viewBox="0 0 56 56" version="1.1">
<g id="surface1">
<rect x="0" y="0" width="56" height="56" style="fill:rgb(19.056702%,20.428467%,57.424927%);fill-opacity:1;stroke:none;"/>
<path style=" stroke:none;fill-rule:nonzero;fill:rgb(100%,100%,100%);fill-opacity:1;" d="M 29.074219 8.476562 C 29.535156 9.835938 30.050781 11 30.902344 11.957031 C 31.660156 12.816406 32.484375 13.617188 33.269531 14.453125 C 34.496094 15.75 35.789062 16.996094 36.917969 18.375 C 38.765625 20.628906 38.78125 23.945312 37.078125 26.492188 C 36.304688 27.644531 35.449219 28.742188 34.667969 29.890625 C 34.316406 30.410156 33.988281 30.96875 33.777344 31.554688 C 33.464844 32.421875 33.757812 33.273438 34.535156 33.742188 C 36.105469 34.6875 37.738281 35.410156 39.632812 35.550781 C 40.96875 35.652344 42.210938 35.523438 43.429688 34.996094 C 45.238281 34.21875 47.082031 34.46875 48.914062 34.890625 C 49.414062 35.003906 49.902344 35.171875 50.375 35.367188 C 50.773438 35.53125 51.140625 35.765625 51.640625 36.03125 C 51.375 36.246094 51.230469 36.417969 51.046875 36.507812 C 49.425781 37.257812 47.800781 37.96875 45.945312 37.945312 C 45.085938 37.933594 44.300781 37.707031 43.527344 37.40625 C 41.207031 36.507812 39.027344 36.792969 36.953125 38.121094 C 36.785156 38.226562 36.613281 38.332031 36.464844 38.457031 C 35.210938 39.492188 33.765625 39.648438 32.21875 39.453125 C 31.226562 39.328125 30.28125 39.089844 29.347656 38.730469 C 28.996094 38.59375 28.570312 38.621094 28.175781 38.621094 C 23.003906 38.609375 17.828125 38.644531 12.65625 38.582031 C 10.800781 38.558594 8.945312 38.351562 7.097656 38.140625 C 6.449219 38.066406 5.824219 37.742188 5.195312 37.511719 C 5.015625 37.445312 4.816406 37.328125 4.714844 37.175781 C 4.527344 36.898438 4.195312 36.613281 4.460938 36.222656 C 4.71875 35.84375 5.097656 35.921875 5.425781 36.085938 C 7.085938 36.894531 8.851562 36.960938 10.652344 36.972656 C 12.511719 36.988281 14.371094 37.136719 16.40625 37.234375 C 16.269531 36.835938 16.179688 36.570312 16.085938 36.292969 C 20.054688 36.917969 21.859375 35.75 23.867188 33.304688 C 21.949219 33.917969 20.15625 34.378906 18.21875 33.683594 C 18.574219 33.433594 18.894531 33.210938 19.296875 32.929688 C 18.308594 32.875 17.363281 33.082031 16.464844 32.410156 C 16.742188 32.199219 16.996094 32.007812 17.257812 31.804688 C 17.21875 31.78125 17.175781 31.722656 17.125 31.71875 C 16.304688 31.679688 15.46875 31.851562 14.609375 31.558594 C 14.847656 30.90625 15.601562 30.894531 15.984375 30.238281 C 14.589844 30.671875 13.316406 30.492188 12.054688 30.164062 C 11.847656 30.109375 11.671875 29.953125 11.277344 29.722656 C 11.992188 29.492188 12.5 29.332031 13.128906 29.136719 C 11.484375 29.027344 9.890625 29.050781 8.863281 27.398438 C 9.683594 27.332031 10.410156 27.230469 11.140625 27.21875 C 12.671875 27.195312 14.085938 26.648438 15.546875 26.300781 C 16.238281 26.136719 16.941406 26.03125 17.644531 25.925781 C 19.195312 25.6875 20.554688 26.21875 21.777344 27.097656 C 22.738281 27.792969 23.632812 28.582031 24.542969 29.34375 C 24.875 29.617188 25.167969 29.9375 25.480469 30.238281 C 26.199219 29.992188 26.046875 29.460938 25.96875 29.027344 C 25.828125 28.210938 25.59375 27.410156 25.429688 26.597656 C 25.359375 26.265625 25.378906 25.917969 25.34375 25.390625 C 26.234375 25.984375 26.378906 27.03125 27.449219 27.398438 C 26.445312 26.167969 25.890625 24.921875 25.800781 23.320312 C 26.164062 23.578125 26.398438 23.75 26.683594 23.957031 C 26.667969 23.816406 26.683594 23.699219 26.640625 23.609375 C 26.222656 22.753906 25.933594 21.863281 25.777344 20.707031 C 26.171875 21.023438 26.414062 21.238281 26.679688 21.421875 C 26.9375 21.59375 27.222656 21.730469 27.570312 21.832031 C 26.320312 20.351562 25.519531 18.722656 25.582031 16.585938 C 26.21875 17.152344 26.730469 17.605469 27.414062 18.214844 C 27.007812 16.542969 26.242188 15.175781 26.601562 13.492188 C 27.121094 13.996094 27.566406 14.433594 28.160156 15.011719 C 27.953125 14.292969 27.8125 13.746094 27.640625 13.214844 C 27.457031 12.640625 27.398438 12.070312 27.570312 11.304688 C 28.035156 11.835938 28.40625 12.261719 28.933594 12.863281 C 28.609375 11.304688 28.160156 9.953125 29.074219 8.476562 "/>
</g>
</svg>
