<?xml version="1.0" encoding="UTF-8"?>
<svg xmlns="http://www.w3.org/2000/svg" xmlns:xlink="http://www.w3.org/1999/xlink" width="56pt" height="56pt" viewBox="0 0 56 56" version="1.1">
<g id="surface1">
<rect x="0" y="0" width="56" height="56" style="fill:rgb(13.723755%,18.122864%,38.972473%);fill-opacity:1;stroke:none;"/>
<path style=" stroke:none;fill-rule:nonzero;fill:rgb(100%,100%,100%);fill-opacity:1;" d="M 9.199219 8.089844 L 9.65625 8.089844 C 9.863281 8.171875 10.078125 8.222656 10.292969 8.292969 C 10.296875 8.296875 10.304688 8.296875 10.3125 8.300781 C 10.492188 8.351562 10.675781 8.402344 10.859375 8.453125 C 10.867188 8.457031 10.882812 8.460938 10.890625 8.460938 C 11.070312 8.511719 11.25 8.5625 11.429688 8.617188 C 11.4375 8.621094 11.453125 8.625 11.460938 8.625 C 11.867188 8.734375 12.261719 8.882812 12.660156 9.023438 C 12.664062 9.027344 12.671875 9.03125 12.679688 9.03125 C 12.730469 9.050781 12.835938 9.085938 12.890625 9.105469 C 12.902344 9.109375 12.925781 9.117188 12.941406 9.121094 C 12.988281 9.140625 13.082031 9.171875 13.128906 9.1875 C 13.140625 9.191406 13.167969 9.199219 13.179688 9.207031 C 13.308594 9.25 13.429688 9.296875 13.554688 9.347656 C 13.5625 9.347656 13.570312 9.351562 13.578125 9.355469 C 15.59375 10.101562 17.523438 11.070312 19.347656 12.203125 C 19.351562 12.203125 19.359375 12.210938 19.367188 12.214844 C 19.605469 12.367188 19.847656 12.523438 20.082031 12.6875 C 20.085938 12.691406 20.097656 12.699219 20.101562 12.703125 C 20.15625 12.738281 20.269531 12.816406 20.324219 12.851562 C 20.332031 12.855469 20.339844 12.863281 20.347656 12.867188 C 21.433594 13.660156 22.527344 14.460938 23.515625 15.382812 C 23.972656 15.820312 24.382812 16.300781 24.8125 16.769531 C 24.816406 16.773438 24.820312 16.78125 24.824219 16.785156 C 25.742188 17.871094 26.628906 18.992188 27.671875 19.957031 C 28.703125 20.847656 29.875 21.640625 31.222656 21.933594 C 32.652344 22.203125 34.148438 21.832031 35.558594 22.25 C 36.6875 22.78125 37.609375 23.660156 38.441406 24.574219 C 37.449219 24.550781 36.453125 24.570312 35.46875 24.722656 C 34.4375 24.816406 33.386719 25.066406 32.515625 25.660156 C 33.273438 26.390625 34.070312 27.082031 34.78125 27.863281 C 35.410156 28.5625 36.058594 29.257812 36.5625 30.058594 C 36.566406 30.0625 36.570312 30.074219 36.574219 30.078125 C 39.648438 35.144531 42.078125 40.574219 45.289062 45.558594 C 45.289062 45.5625 45.296875 45.570312 45.300781 45.578125 C 45.558594 45.984375 45.824219 46.386719 46.101562 46.78125 C 46.105469 46.789062 46.109375 46.796875 46.113281 46.800781 C 46.152344 46.855469 46.226562 46.96875 46.265625 47.023438 C 46.269531 47.03125 46.277344 47.039062 46.277344 47.042969 C 46.410156 47.230469 46.539062 47.421875 46.667969 47.609375 C 46.671875 47.613281 46.679688 47.625 46.683594 47.625 L 46.78125 47.726562 L 46.460938 47.726562 C 44.039062 46.949219 41.925781 45.464844 39.941406 43.914062 C 38.492188 42.800781 37.234375 41.464844 36.089844 40.046875 C 33.128906 36.378906 30.988281 32.117188 27.9375 28.515625 C 27.417969 27.875 26.796875 27.304688 26.429688 26.558594 C 26.792969 26.609375 27.160156 26.71875 27.445312 26.960938 C 28.269531 27.621094 28.945312 28.445312 29.621094 29.25 C 30.582031 30.40625 31.457031 31.628906 32.308594 32.863281 C 34.519531 36.082031 36.660156 39.425781 39.601562 42.042969 C 39.769531 42.167969 39.894531 42.363281 40.101562 42.421875 C 40.097656 42.320312 40.035156 42.238281 39.972656 42.164062 C 38.851562 40.824219 37.789062 39.4375 36.773438 38.015625 C 35.457031 36.203125 34.273438 34.304688 33.054688 32.425781 C 32.355469 31.34375 31.660156 30.257812 30.84375 29.257812 C 30.039062 28.253906 29.125 27.328125 28.105469 26.539062 C 26.808594 25.519531 25.082031 25.179688 23.464844 25.351562 C 21.796875 25.542969 20.179688 26.054688 18.648438 26.738281 C 18.066406 26.03125 17.9375 25.046875 17.28125 24.394531 C 16.28125 23.382812 14.910156 22.910156 13.730469 22.160156 C 13.011719 21.726562 12.320312 21.113281 12.113281 20.265625 C 13.328125 20.625 14.546875 21.007812 15.800781 21.210938 C 16.9375 21.421875 18.074219 21.660156 19.234375 21.703125 C 21.074219 21.863281 22.925781 21.957031 24.769531 21.777344 C 23.476562 20.601562 22.246094 19.367188 21.058594 18.089844 C 19.925781 16.882812 18.792969 15.675781 17.679688 14.449219 C 16.621094 13.300781 15.480469 12.21875 14.175781 11.347656 C 14.054688 11.269531 13.921875 11.210938 13.785156 11.167969 C 14.226562 11.738281 14.777344 12.210938 15.253906 12.75 C 17.414062 15.101562 19.421875 17.59375 21.730469 19.804688 C 22.242188 20.304688 22.808594 20.75 23.320312 21.246094 C 22.601562 21.179688 22.023438 20.703125 21.441406 20.320312 C 18.125 17.953125 15.714844 14.609375 13.015625 11.613281 C 11.867188 10.3125 10.640625 9.0625 9.199219 8.089844 "/>
</g>
</svg>
