<?xml version="1.0" encoding="UTF-8"?>
<svg xmlns="http://www.w3.org/2000/svg" xmlns:xlink="http://www.w3.org/1999/xlink" width="56pt" height="56pt" viewBox="0 0 56 56" version="1.1">
<g id="surface1">
<rect x="0" y="0" width="56" height="56" style="fill:rgb(95.666504%,95.776367%,96.775818%);fill-opacity:1;stroke:none;"/>
<path style=" stroke:none;fill-rule:nonzero;fill:rgb(84.552002%,8.250427%,46.003723%);fill-opacity:1;" d="M 24.542969 22.347656 C 26.3125 21.761719 28.023438 21.042969 29.660156 20.148438 C 31.945312 18.894531 34.128906 17.484375 36.148438 15.824219 C 37.109375 15.03125 38.085938 14.257812 39.09375 13.449219 C 39.871094 14.445312 40.269531 15.652344 40.566406 16.886719 C 40.714844 17.523438 40.746094 18.1875 40.824219 18.839844 C 40.898438 19.492188 41.058594 20.152344 41.019531 20.796875 C 40.824219 23.648438 40.566406 26.5 39.632812 29.230469 C 38.914062 31.320312 38.039062 33.347656 37.019531 35.308594 C 36.953125 35.394531 36.882812 35.476562 36.8125 35.566406 C 36.820312 35.632812 36.824219 35.699219 36.832031 35.765625 C 36.414062 36.4375 36.015625 37.121094 35.582031 37.78125 C 34.789062 39 33.949219 40.191406 33.191406 41.429688 C 32.960938 41.808594 32.523438 42.101562 32.558594 42.625 C 31.125 42.46875 29.921875 41.726562 28.742188 41.003906 C 26.09375 39.367188 23.960938 37.175781 22.179688 34.625 C 20.636719 32.417969 19.46875 30.046875 18.601562 27.496094 C 18.054688 25.890625 17.296875 24.359375 16.640625 22.792969 C 16.582031 22.65625 16.558594 22.5 16.523438 22.351562 C 16.457031 22.269531 16.390625 22.183594 16.320312 22.101562 C 16.292969 22.027344 16.285156 21.949219 16.289062 21.871094 C 16.363281 21.824219 16.460938 21.722656 16.507812 21.742188 C 16.9375 21.90625 17.363281 22.089844 17.78125 22.273438 C 18.53125 22.601562 19.296875 22.824219 20.125 22.8125 C 20.949219 22.800781 21.773438 22.820312 22.597656 22.804688 C 23.277344 22.796875 23.925781 22.632812 24.542969 22.347656 "/>
<path style=" stroke:none;fill-rule:nonzero;fill:rgb(20.571899%,42.16156%,71.350098%);fill-opacity:1;" d="M 32.558594 42.625 C 32.523438 42.101562 32.960938 41.808594 33.191406 41.429688 C 33.949219 40.191406 34.789062 39 35.582031 37.78125 C 36.015625 37.121094 36.414062 36.4375 36.832031 35.765625 C 40.421875 37.191406 44.011719 38.617188 47.679688 40.074219 C 45.914062 41.316406 44.046875 42.039062 42.105469 42.554688 C 40.035156 43.105469 37.929688 43.519531 35.777344 43.300781 C 34.6875 43.191406 33.566406 43.15625 32.558594 42.625 "/>
<path style=" stroke:none;fill-rule:nonzero;fill:rgb(20.571899%,42.16156%,71.350098%);fill-opacity:1;" d="M 24.542969 22.347656 C 23.925781 22.632812 23.277344 22.796875 22.597656 22.804688 C 21.773438 22.820312 20.949219 22.800781 20.125 22.8125 C 19.296875 22.824219 18.53125 22.601562 17.78125 22.273438 C 17.363281 22.089844 16.9375 21.90625 16.507812 21.742188 C 16.460938 21.722656 16.363281 21.824219 16.289062 21.871094 C 16.042969 21.441406 15.785156 21.019531 15.558594 20.582031 C 14.40625 18.378906 12.882812 16.460938 11.003906 14.847656 C 10.1875 14.152344 9.238281 13.613281 8.320312 12.984375 C 9.289062 12.488281 10.296875 12.636719 11.292969 12.769531 C 13.65625 13.082031 15.535156 14.417969 17.363281 15.78125 C 19.25 17.1875 20.886719 18.867188 22.355469 20.710938 C 22.71875 21.167969 23.117188 21.59375 23.464844 22.0625 C 23.761719 22.464844 24.171875 22.308594 24.542969 22.347656 "/>
<path style=" stroke:none;fill-rule:nonzero;fill:rgb(51.977539%,51.10321%,51.321411%);fill-opacity:1;" d="M 16.320312 22.101562 C 16.390625 22.183594 16.457031 22.269531 16.523438 22.351562 C 16.457031 22.269531 16.390625 22.183594 16.320312 22.101562 "/>
<path style=" stroke:none;fill-rule:nonzero;fill:rgb(51.977539%,51.10321%,51.321411%);fill-opacity:1;" d="M 36.8125 35.566406 C 36.882812 35.476562 36.953125 35.394531 37.019531 35.308594 C 36.953125 35.394531 36.882812 35.476562 36.8125 35.566406 "/>
</g>
</svg>
