<?xml version="1.0" encoding="UTF-8"?>
<svg xmlns="http://www.w3.org/2000/svg" xmlns:xlink="http://www.w3.org/1999/xlink" width="56pt" height="56pt" viewBox="0 0 56 56" version="1.1">
<g id="surface1">
<rect x="0" y="0" width="56" height="56" style="fill:rgb(76.869202%,11.808777%,14.448547%);fill-opacity:1;stroke:none;"/>
<path style=" stroke:none;fill-rule:evenodd;fill:rgb(100%,100%,100%);fill-opacity:1;" d="M 24.234375 32.605469 C 25.714844 32.402344 28.785156 32.25 30.675781 32.605469 C 32.566406 32.964844 36.195312 34.039062 42.636719 31.28125 C 44.019531 30.769531 48.722656 29.847656 49.949219 32.046875 C 49.847656 31.433594 49.539062 29.902344 45.195312 28.113281 C 43.558594 27.5 42.128906 27.601562 40.644531 27.703125 C 39.160156 27.804688 32.875 28.164062 28.679688 25.964844 C 24.53125 23.792969 20.03125 21.21875 13.695312 23.347656 C 15.042969 23.027344 19.175781 24.21875 19.988281 24.6875 C 20.789062 25.148438 27.761719 29.339844 29.855469 29.339844 C 29.140625 29.953125 24.847656 31.074219 22.085938 31.332031 C 19.328125 31.585938 10.683594 32.964844 0 32.761719 C 5.042969 33.515625 15.695312 33.886719 24.234375 32.605469 "/>
<path style=" stroke:none;fill-rule:evenodd;fill:rgb(100%,100%,100%);fill-opacity:1;" d="M 44.636719 27.265625 C 45.8125 26.765625 51.742188 23.644531 56 25.726562 C 54.28125 24.773438 51.199219 22.554688 44.816406 24.367188 C 41.734375 25.363281 38.476562 26.675781 38.339844 27.039062 C 38.339844 27.039062 42.550781 26.585938 44.636719 27.265625 "/>
</g>
</svg>
