<?xml version="1.0" encoding="UTF-8"?>
<svg xmlns="http://www.w3.org/2000/svg" xmlns:xlink="http://www.w3.org/1999/xlink" width="56pt" height="56pt" viewBox="0 0 56 56" version="1.1">
<g id="surface1">
<rect x="0" y="0" width="56" height="56" style="fill:rgb(54.678345%,9.817505%,55.627441%);fill-opacity:1;stroke:none;"/>
<path style=" stroke:none;fill-rule:nonzero;fill:rgb(100%,100%,100%);fill-opacity:1;" d="M 20.125 34.394531 C 20.914062 34.96875 21.476562 35.457031 22.117188 35.789062 C 22.320312 35.894531 22.742188 35.582031 23.0625 35.460938 C 22.894531 35.105469 22.773438 34.488281 22.546875 34.445312 C 21.84375 34.308594 21.097656 34.394531 20.125 34.394531 Z M 28.402344 24.675781 C 28.050781 24.910156 27.054688 25.238281 26.6875 25.910156 C 26.21875 26.773438 27.128906 27.355469 27.851562 27.796875 C 28.558594 28.226562 29.226562 28.757812 29.988281 29.050781 C 30.976562 29.433594 31.820312 28.765625 31.898438 27.691406 C 32.019531 26.109375 30.691406 24.765625 28.402344 24.675781 Z M 30.667969 50.085938 C 30.074219 50.246094 29.476562 50.570312 28.890625 50.542969 C 20.539062 50.175781 13.710938 47.007812 9.265625 39.625 C 7.105469 36.035156 5.898438 32.152344 6.03125 27.917969 C 6.078125 26.359375 6.773438 25.566406 7.957031 25.847656 C 8.488281 25.972656 8.96875 26.535156 9.34375 27.003906 C 9.46875 27.164062 9.179688 27.648438 9.078125 27.980469 C 8.835938 27.90625 8.578125 27.855469 8.347656 27.753906 C 7.984375 27.59375 7.636719 27.402344 7.28125 27.222656 C 7.070312 27.699219 6.625 28.214844 6.695312 28.648438 C 6.875 29.734375 7.226562 30.808594 7.632812 31.839844 C 7.890625 32.492188 8.292969 33.132812 8.769531 33.644531 C 9.457031 34.378906 10.09375 33.886719 10.710938 33.398438 C 10.785156 33.34375 11.242188 33.582031 11.316406 33.765625 C 11.390625 33.945312 11.265625 34.324219 11.101562 34.445312 C 10.816406 34.652344 10.445312 34.761719 10.09375 34.847656 C 9.75 34.933594 9.386719 34.9375 8.804688 35.003906 C 9.015625 35.566406 9.109375 36 9.328125 36.351562 C 10.371094 38.039062 10.703125 38.046875 12.1875 36.578125 C 12.402344 36.363281 12.753906 36.285156 13.039062 36.144531 C 13.09375 36.5625 13.347656 37.15625 13.160156 37.367188 C 12.628906 37.976562 11.917969 38.429688 11.199219 39.007812 C 11.957031 40.742188 13.253906 41.84375 15.105469 42.144531 C 16.085938 42.304688 17.230469 42.417969 17.394531 40.847656 C 17.417969 40.617188 18.183594 40.199219 18.378906 40.300781 C 19.050781 40.65625 19.273438 41.445312 18.707031 41.933594 C 17.890625 42.640625 16.863281 43.105469 15.84375 43.722656 C 17.300781 44.933594 19.003906 45.71875 21.070312 45.554688 C 22.710938 45.425781 23.332031 44.320312 22.609375 42.824219 C 21.101562 39.695312 18.191406 38.363281 14.75 39.21875 C 14.589844 39.257812 14.402344 39.191406 14.230469 39.171875 C 14.632812 34.921875 18.4375 31.863281 22.484375 32.742188 C 25.011719 33.292969 27.46875 34.175781 30.089844 34.949219 C 29.269531 32.289062 27.707031 29.96875 25.371094 28.265625 C 21.628906 25.539062 17.535156 23.972656 12.792969 25.207031 C 11.777344 25.472656 10.957031 25.082031 10.328125 24.261719 C 9.601562 23.308594 10.457031 22.738281 10.921875 21.875 C 11.757812 22.277344 12.574219 22.664062 13.386719 23.058594 C 14.226562 23.46875 15.058594 23.945312 16.101562 23.207031 C 15.707031 22.050781 15.007812 21.335938 13.699219 21.332031 C 13.042969 21.332031 12.3125 21.496094 11.753906 21.261719 C 11.25 21.050781 10.636719 20.402344 10.625 19.9375 C 10.617188 19.480469 11.257812 18.6875 11.707031 18.613281 C 12.589844 18.472656 13.617188 18.527344 14.441406 18.859375 C 16.78125 19.789062 19.050781 20.882812 21.339844 21.945312 C 22.527344 22.492188 23.667969 23.136719 24.863281 23.675781 C 25.253906 23.851562 25.859375 24.03125 26.148438 23.851562 C 26.742188 23.492188 27.398438 22.960938 27.605469 22.351562 C 27.71875 22.027344 27.054688 21.171875 26.566406 20.949219 C 24.484375 20.011719 22.601562 18.828125 21.140625 17.058594 C 20.609375 16.417969 20.074219 15.730469 19.773438 14.96875 C 19.558594 14.421875 19.644531 13.707031 19.765625 13.101562 C 19.820312 12.832031 20.277344 12.496094 20.582031 12.464844 C 20.871094 12.4375 21.316406 12.691406 21.480469 12.953125 C 23.113281 15.503906 24.09375 16.078125 26.207031 15.617188 C 28.289062 15.160156 29.914062 13.195312 30.183594 10.730469 C 30.28125 9.824219 30.273438 8.90625 30.335938 7.425781 C 31.121094 8.207031 31.609375 8.558594 31.917969 9.027344 C 32.816406 10.375 32.773438 11.984375 32.425781 13.386719 C 31.757812 16.09375 30.847656 17.402344 25.476562 18.191406 C 31.84375 20.363281 34.890625 14.800781 34.652344 10.585938 C 34.578125 9.34375 34.003906 8.3125 32.769531 7.675781 C 31.003906 6.773438 29.167969 6.308594 26.765625 6.121094 C 28.414062 7.90625 29.332031 9.585938 27.925781 11.515625 C 27.113281 12.628906 24.941406 12.769531 23.253906 11.941406 C 21.558594 11.109375 21.132812 10.015625 21.585938 7.40625 C 19.277344 8.5625 17.039062 9.550781 15.96875 12.082031 C 15.746094 12.605469 15.078125 13.179688 14.539062 13.269531 C 14.023438 13.355469 13.40625 12.84375 12.464844 12.433594 C 13.503906 11.402344 14.242188 10.433594 15.195312 9.765625 C 21.789062 5.140625 28.863281 4.167969 36.40625 7.1875 C 36.835938 7.355469 37.296875 7.488281 37.667969 7.746094 C 39.679688 9.140625 39.671875 9.980469 37.699219 11.457031 C 37.421875 11.664062 37.214844 11.960938 36.941406 12.25 C 38.882812 13.074219 39.132812 13.003906 39.777344 11.539062 C 40.0625 10.886719 40.347656 10.226562 40.734375 9.339844 C 41.40625 9.929688 41.992188 10.269531 42.324219 10.777344 C 43.128906 12 42.554688 13.363281 41.101562 13.402344 C 39.59375 13.441406 38.367188 14.042969 37.210938 14.804688 C 35.558594 15.894531 34.988281 17.546875 35.367188 19.457031 C 35.460938 19.929688 35.890625 20.5 36.316406 20.699219 C 37.003906 21.015625 37.570312 20.535156 37.914062 19.917969 C 38.28125 19.265625 38.574219 18.570312 38.933594 17.914062 C 40.324219 15.375 43.589844 14.199219 46.179688 15.292969 C 47.046875 15.65625 47.324219 16.464844 46.863281 17.371094 C 46.652344 17.792969 46.386719 18.191406 45.996094 18.855469 C 44.910156 17.335938 44.003906 16.410156 42.519531 16.921875 C 41.125 17.402344 40.066406 18.238281 39.523438 19.667969 C 38.785156 21.601562 39.46875 23.457031 41.371094 24.335938 C 42.1875 24.714844 43.089844 24.917969 44.164062 25.269531 C 44.222656 24.238281 44.1875 23.414062 44.335938 22.617188 C 44.71875 20.550781 46.328125 19.277344 48.0625 19.703125 C 48.449219 19.796875 48.714844 20.390625 49.035156 20.753906 C 48.65625 20.917969 48.175781 21.324219 47.914062 21.214844 C 46.996094 20.828125 46.710938 21.296875 46.566406 22.011719 C 46.328125 23.203125 46.691406 24.132812 47.589844 25.027344 C 50.191406 27.621094 50.488281 30.753906 49.339844 34.09375 C 48.882812 35.417969 48.644531 35.527344 46.800781 35.90625 C 46.921875 35.339844 46.992188 34.820312 47.136719 34.324219 C 48.042969 31.257812 47.097656 28.867188 44.285156 27.632812 C 42.15625 26.695312 39.953125 25.921875 37.753906 25.15625 C 36.976562 24.886719 36.117188 24.777344 35.292969 24.757812 C 34.933594 24.75 34.285156 25.121094 34.257812 25.378906 C 34.199219 25.855469 34.34375 26.617188 34.675781 26.832031 C 35.523438 27.371094 36.492188 27.800781 37.46875 28.042969 C 38.726562 28.355469 40.035156 28.472656 41.328125 28.625 C 43.144531 28.835938 44.460938 29.789062 45.371094 31.316406 C 46.113281 32.554688 46.050781 32.710938 44.4375 34.253906 C 43.984375 33.550781 43.464844 32.933594 43.152344 32.226562 C 42.382812 30.492188 41.179688 29.578125 39.21875 29.730469 C 38.191406 29.8125 37.152344 29.722656 36.125 29.792969 C 35.582031 29.832031 35.023438 29.984375 34.519531 30.203125 C 32.179688 31.222656 31.773438 32.796875 33.667969 34.492188 C 36.128906 36.691406 38.996094 38.285156 42.339844 38.753906 C 43.851562 38.964844 45.328125 38.765625 46.65625 37.886719 C 46.832031 37.769531 47.324219 37.789062 47.382812 37.902344 C 47.539062 38.199219 47.703125 38.65625 47.582031 38.910156 C 46.597656 40.9375 44.933594 42.289062 42.890625 43.089844 C 42.003906 43.433594 41.503906 43.726562 41.464844 44.78125 C 41.425781 45.742188 40.710938 46.390625 39.902344 46.96875 C 38.09375 48.265625 36.148438 49.023438 33.90625 48.945312 C 32.519531 48.894531 31.324219 48.375 30.527344 47.25 C 30.285156 46.910156 30.394531 46.230469 30.542969 45.773438 C 30.585938 45.644531 31.351562 45.679688 31.761719 45.769531 C 31.996094 45.820312 32.152344 46.171875 32.390625 46.308594 C 33.496094 46.9375 34.460938 46.546875 34.671875 45.3125 C 34.910156 43.902344 34.894531 42.457031 33.945312 41.28125 C 32.359375 39.328125 30.667969 37.472656 28.023438 36.691406 C 27.34375 37.675781 27.328125 39.085938 26.019531 39.613281 C 25.839844 39.683594 25.796875 40.464844 25.917969 40.847656 C 26.46875 42.617188 27.191406 44.339844 27.675781 46.125 C 28.125 47.789062 29 48.976562 30.859375 49.40625 C 30.796875 49.632812 30.730469 49.859375 30.667969 50.085938 "/>
</g>
</svg>
