<?xml version="1.0" encoding="UTF-8"?>
<svg xmlns="http://www.w3.org/2000/svg" xmlns:xlink="http://www.w3.org/1999/xlink" width="56pt" height="56pt" viewBox="0 0 56 56" version="1.1">
<defs>
<clipPath id="clip1">
  <path d="M 4 10 L 49 10 L 49 49 L 4 49 Z M 4 10 "/>
</clipPath>
<clipPath id="clip2">
  <path d="M 19.632812 32.089844 C 19.566406 32.160156 19.503906 32.234375 19.4375 32.308594 C 19.535156 31.964844 19.605469 31.648438 19.71875 31.347656 C 19.867188 29.972656 20.699219 28.601562 21.800781 27.351562 C 22.570312 26.222656 23.4375 25.167969 24.394531 24.1875 C 24.980469 23.582031 25.601562 23.011719 26.222656 22.445312 C 26.597656 22.101562 26.996094 21.78125 27.390625 21.464844 C 28.0625 20.929688 28.71875 20.375 29.417969 19.882812 C 31.121094 18.683594 32.886719 17.582031 34.726562 16.605469 C 36.257812 15.792969 37.8125 15.035156 39.40625 14.363281 C 41.308594 13.566406 43.238281 12.84375 45.207031 12.21875 C 45.648438 12.082031 46.085938 11.949219 46.527344 11.820312 C 47.167969 11.632812 47.804688 11.449219 48.449219 11.269531 C 48.617188 11.222656 48.785156 11.191406 48.832031 10.984375 C 48.738281 10.820312 48.585938 10.863281 48.445312 10.859375 C 47.15625 10.820312 27.457031 10.582031 27.15625 10.589844 C 26.539062 10.605469 25.914062 10.625 25.300781 10.6875 C 24.730469 10.742188 24.183594 10.898438 23.675781 11.175781 C 23.003906 11.542969 22.507812 12.09375 22.046875 12.6875 C 21.679688 13.160156 21.351562 13.667969 20.992188 14.152344 C 20.566406 14.726562 20.117188 15.285156 19.695312 15.859375 C 18.667969 17.269531 17.640625 18.679688 16.621094 20.09375 C 16.039062 20.90625 15.480469 21.734375 14.894531 22.542969 C 13.945312 23.855469 12.988281 25.164062 12.027344 26.464844 C 11.542969 27.117188 10.902344 27.457031 10.066406 27.445312 C 8.5 27.421875 6.933594 27.433594 5.371094 27.433594 C 5.21875 27.433594 5.050781 27.378906 4.882812 27.519531 C 4.996094 27.867188 5.09375 28.230469 5.230469 28.582031 C 5.714844 29.824219 6.199219 31.066406 6.707031 32.296875 C 7.023438 33.058594 7.398438 33.796875 7.726562 34.558594 C 8.332031 35.976562 9.085938 37.320312 9.851562 38.65625 C 10.390625 39.59375 10.957031 40.515625 11.617188 41.371094 C 12.234375 42.175781 12.84375 42.992188 13.515625 43.753906 C 14.15625 44.476562 14.886719 45.125 15.644531 45.738281 C 16.949219 46.792969 18.398438 47.554688 19.976562 48.097656 C 21.234375 48.53125 22.550781 48.667969 23.863281 48.683594 C 27.167969 48.726562 30.472656 48.699219 33.777344 48.699219 C 33.914062 48.699219 34.054688 48.683594 34.171875 48.675781 C 34.261719 48.453125 34.117188 48.40625 34.003906 48.371094 C 33.761719 48.296875 33.507812 48.253906 33.265625 48.179688 C 31.007812 47.484375 28.863281 46.550781 26.867188 45.28125 C 25.453125 44.382812 24.128906 43.390625 22.945312 42.199219 C 22.113281 41.363281 21.355469 40.480469 20.710938 39.488281 C 20.160156 38.640625 19.71875 37.753906 19.433594 36.785156 C 19.351562 36.503906 19.210938 36.230469 19.269531 35.953125 C 19.355469 36.066406 19.441406 36.183594 19.527344 36.300781 C 19.199219 35.058594 19.410156 33.878906 19.632812 32.089844 Z M 19.632812 32.089844 "/>
</clipPath>
<clipPath id="clip3">
  <path d="M 19.632812 32.089844 C 19.566406 32.160156 19.503906 32.234375 19.4375 32.308594 C 19.535156 31.964844 19.605469 31.648438 19.71875 31.347656 C 19.867188 29.972656 20.699219 28.601562 21.800781 27.351562 C 22.570312 26.222656 23.4375 25.167969 24.394531 24.1875 C 24.980469 23.582031 25.601562 23.011719 26.222656 22.445312 C 26.597656 22.101562 26.996094 21.78125 27.390625 21.464844 C 28.0625 20.929688 28.71875 20.375 29.417969 19.882812 C 31.121094 18.683594 32.886719 17.582031 34.726562 16.605469 C 36.257812 15.792969 37.8125 15.035156 39.40625 14.363281 C 41.308594 13.566406 43.238281 12.84375 45.207031 12.21875 C 45.648438 12.082031 46.085938 11.949219 46.527344 11.820312 C 47.167969 11.632812 47.804688 11.449219 48.449219 11.269531 C 48.617188 11.222656 48.785156 11.191406 48.832031 10.984375 C 48.738281 10.820312 48.585938 10.863281 48.445312 10.859375 C 47.15625 10.820312 27.457031 10.582031 27.15625 10.589844 C 26.539062 10.605469 25.914062 10.625 25.300781 10.6875 C 24.730469 10.742188 24.183594 10.898438 23.675781 11.175781 C 23.003906 11.542969 22.507812 12.09375 22.046875 12.6875 C 21.679688 13.160156 21.351562 13.667969 20.992188 14.152344 C 20.566406 14.726562 20.117188 15.285156 19.695312 15.859375 C 18.667969 17.269531 17.640625 18.679688 16.621094 20.09375 C 16.039062 20.90625 15.480469 21.734375 14.894531 22.542969 C 13.945312 23.855469 12.988281 25.164062 12.027344 26.464844 C 11.542969 27.117188 10.902344 27.457031 10.066406 27.445312 C 8.5 27.421875 6.933594 27.433594 5.371094 27.433594 C 5.21875 27.433594 5.050781 27.378906 4.882812 27.519531 C 4.996094 27.867188 5.09375 28.230469 5.230469 28.582031 C 5.714844 29.824219 6.199219 31.066406 6.707031 32.296875 C 7.023438 33.058594 7.398438 33.796875 7.726562 34.558594 C 8.332031 35.976562 9.085938 37.320312 9.851562 38.65625 C 10.390625 39.59375 10.957031 40.515625 11.617188 41.371094 C 12.234375 42.175781 12.84375 42.992188 13.515625 43.753906 C 14.15625 44.476562 14.886719 45.125 15.644531 45.738281 C 16.949219 46.792969 18.398438 47.554688 19.976562 48.097656 C 21.234375 48.53125 22.550781 48.667969 23.863281 48.683594 C 27.167969 48.726562 30.472656 48.699219 33.777344 48.699219 C 33.914062 48.699219 34.054688 48.683594 34.171875 48.675781 C 34.261719 48.453125 34.117188 48.40625 34.003906 48.371094 C 33.761719 48.296875 33.507812 48.253906 33.265625 48.179688 C 31.007812 47.484375 28.863281 46.550781 26.867188 45.28125 C 25.453125 44.382812 24.128906 43.390625 22.945312 42.199219 C 22.113281 41.363281 21.355469 40.480469 20.710938 39.488281 C 20.160156 38.640625 19.71875 37.753906 19.433594 36.785156 C 19.351562 36.503906 19.210938 36.230469 19.269531 35.953125 C 19.355469 36.066406 19.441406 36.183594 19.527344 36.300781 C 19.199219 35.058594 19.410156 33.878906 19.632812 32.089844 "/>
</clipPath>
<linearGradient id="linear0" gradientUnits="userSpaceOnUse" x1="0.02214" y1="0" x2="1.022802" y2="0" gradientTransform="matrix(0,-38.1193,38.1193,0,26.8577,49.5713)">
<stop offset="0" style="stop-color:rgb(64.34021%,10.134888%,19.696045%);stop-opacity:1;"/>
<stop offset="0.00390625" style="stop-color:rgb(64.846802%,10.067749%,19.374084%);stop-opacity:1;"/>
<stop offset="0.0078125" style="stop-color:rgb(65.351868%,9.999084%,19.049072%);stop-opacity:1;"/>
<stop offset="0.0117188" style="stop-color:rgb(65.911865%,10.098267%,18.690491%);stop-opacity:1;"/>
<stop offset="0.015625" style="stop-color:rgb(66.473389%,10.197449%,18.325806%);stop-opacity:1;"/>
<stop offset="0.0195312" style="stop-color:rgb(67.051697%,10.350037%,17.944336%);stop-opacity:1;"/>
<stop offset="0.0234375" style="stop-color:rgb(67.633057%,10.50415%,17.555237%);stop-opacity:1;"/>
<stop offset="0.0273437" style="stop-color:rgb(68.11676%,10.614014%,17.253113%);stop-opacity:1;"/>
<stop offset="0.03125" style="stop-color:rgb(68.60199%,10.725403%,16.946411%);stop-opacity:1;"/>
<stop offset="0.0351562" style="stop-color:rgb(69.055176%,10.821533%,16.668701%);stop-opacity:1;"/>
<stop offset="0.0390625" style="stop-color:rgb(69.508362%,10.919189%,16.387939%);stop-opacity:1;"/>
<stop offset="0.0429688" style="stop-color:rgb(70.00885%,11.004639%,16.122437%);stop-opacity:1;"/>
<stop offset="0.046875" style="stop-color:rgb(70.509338%,11.091614%,15.853882%);stop-opacity:1;"/>
<stop offset="0.0507812" style="stop-color:rgb(71.029663%,11.174011%,15.591431%);stop-opacity:1;"/>
<stop offset="0.0546875" style="stop-color:rgb(71.551514%,11.257935%,15.324402%);stop-opacity:1;"/>
<stop offset="0.0585937" style="stop-color:rgb(71.943665%,11.340332%,15.075684%);stop-opacity:1;"/>
<stop offset="0.0625" style="stop-color:rgb(72.337341%,11.424255%,14.825439%);stop-opacity:1;"/>
<stop offset="0.0664063" style="stop-color:rgb(72.669983%,11.508179%,14.582825%);stop-opacity:1;"/>
<stop offset="0.0703125" style="stop-color:rgb(73.001099%,11.590576%,14.337158%);stop-opacity:1;"/>
<stop offset="0.0742188" style="stop-color:rgb(73.416138%,11.634827%,14.276123%);stop-opacity:1;"/>
<stop offset="0.078125" style="stop-color:rgb(73.831177%,11.680603%,14.215088%);stop-opacity:1;"/>
<stop offset="0.0820312" style="stop-color:rgb(74.291992%,11.701965%,14.253235%);stop-opacity:1;"/>
<stop offset="0.0859375" style="stop-color:rgb(74.752808%,11.724854%,14.291382%);stop-opacity:1;"/>
<stop offset="0.0898438" style="stop-color:rgb(75.17395%,11.738586%,14.320374%);stop-opacity:1;"/>
<stop offset="0.09375" style="stop-color:rgb(75.596619%,11.753845%,14.349365%);stop-opacity:1;"/>
<stop offset="0.0976562" style="stop-color:rgb(75.994873%,11.763%,14.372253%);stop-opacity:1;"/>
<stop offset="0.101562" style="stop-color:rgb(76.391602%,11.772156%,14.395142%);stop-opacity:1;"/>
<stop offset="0.105469" style="stop-color:rgb(76.753235%,11.785889%,14.421082%);stop-opacity:1;"/>
<stop offset="0.109375" style="stop-color:rgb(77.114868%,11.801147%,14.448547%);stop-opacity:1;"/>
<stop offset="0.113281" style="stop-color:rgb(77.452087%,11.819458%,14.477539%);stop-opacity:1;"/>
<stop offset="0.117187" style="stop-color:rgb(77.787781%,11.836243%,14.508057%);stop-opacity:1;"/>
<stop offset="0.125" style="stop-color:rgb(78.048706%,11.84082%,14.520264%);stop-opacity:1;"/>
<stop offset="0.132813" style="stop-color:rgb(78.511047%,11.837769%,14.533997%);stop-opacity:1;"/>
<stop offset="0.136719" style="stop-color:rgb(79.020691%,11.833191%,14.544678%);stop-opacity:1;"/>
<stop offset="0.140625" style="stop-color:rgb(79.330444%,11.833191%,14.555359%);stop-opacity:1;"/>
<stop offset="0.144531" style="stop-color:rgb(79.737854%,11.84082%,14.576721%);stop-opacity:1;"/>
<stop offset="0.148438" style="stop-color:rgb(80.145264%,11.84845%,14.598083%);stop-opacity:1;"/>
<stop offset="0.152344" style="stop-color:rgb(80.485535%,11.856079%,14.616394%);stop-opacity:1;"/>
<stop offset="0.15625" style="stop-color:rgb(80.827332%,11.860657%,14.633179%);stop-opacity:1;"/>
<stop offset="0.164062" style="stop-color:rgb(81.10199%,11.86676%,14.648438%);stop-opacity:1;"/>
<stop offset="0.167969" style="stop-color:rgb(81.64978%,11.865234%,14.665222%);stop-opacity:1;"/>
<stop offset="0.171875" style="stop-color:rgb(81.922913%,11.860657%,14.668274%);stop-opacity:1;"/>
<stop offset="0.175781" style="stop-color:rgb(82.196045%,11.843872%,14.660645%);stop-opacity:1;"/>
<stop offset="0.179688" style="stop-color:rgb(82.469177%,11.825562%,14.651489%);stop-opacity:1;"/>
<stop offset="0.183594" style="stop-color:rgb(82.713318%,11.813354%,14.646912%);stop-opacity:1;"/>
<stop offset="0.1875" style="stop-color:rgb(82.957458%,11.801147%,14.640808%);stop-opacity:1;"/>
<stop offset="0.195312" style="stop-color:rgb(83.163452%,11.793518%,14.640808%);stop-opacity:1;"/>
<stop offset="0.203125" style="stop-color:rgb(83.547974%,11.781311%,14.640808%);stop-opacity:1;"/>
<stop offset="0.210938" style="stop-color:rgb(83.866882%,11.779785%,14.649963%);stop-opacity:1;"/>
<stop offset="0.21875" style="stop-color:rgb(84.169006%,11.772156%,14.651489%);stop-opacity:1;"/>
<stop offset="0.222656" style="stop-color:rgb(84.536743%,11.734009%,14.624023%);stop-opacity:1;"/>
<stop offset="0.226563" style="stop-color:rgb(84.742737%,11.705017%,14.601135%);stop-opacity:1;"/>
<stop offset="0.230469" style="stop-color:rgb(84.94873%,11.683655%,14.584351%);stop-opacity:1;"/>
<stop offset="0.234375" style="stop-color:rgb(85.154724%,11.660767%,14.569092%);stop-opacity:1;"/>
<stop offset="0.242188" style="stop-color:rgb(85.36377%,11.653137%,14.567566%);stop-opacity:1;"/>
<stop offset="0.25" style="stop-color:rgb(85.757446%,11.633301%,14.561462%);stop-opacity:1;"/>
<stop offset="0.257813" style="stop-color:rgb(86.079407%,11.602783%,14.538574%);stop-opacity:1;"/>
<stop offset="0.265625" style="stop-color:rgb(86.355591%,11.57074%,14.51416%);stop-opacity:1;"/>
<stop offset="0.28125" style="stop-color:rgb(86.756897%,11.557007%,14.51416%);stop-opacity:1;"/>
<stop offset="0.296875" style="stop-color:rgb(87.159729%,11.53717%,14.508057%);stop-opacity:1;"/>
<stop offset="0.3125" style="stop-color:rgb(87.44812%,11.500549%,14.479065%);stop-opacity:1;"/>
<stop offset="0.328125" style="stop-color:rgb(87.872314%,11.485291%,14.476013%);stop-opacity:1;"/>
<stop offset="0.34375" style="stop-color:rgb(88.28125%,11.465454%,14.46991%);stop-opacity:1;"/>
<stop offset="0.351563" style="stop-color:rgb(88.48877%,11.436462%,14.447021%);stop-opacity:1;"/>
<stop offset="0.359375" style="stop-color:rgb(88.633728%,11.416626%,14.430237%);stop-opacity:1;"/>
<stop offset="0.367188" style="stop-color:rgb(88.845825%,11.386108%,14.405823%);stop-opacity:1;"/>
<stop offset="0.375" style="stop-color:rgb(89.123535%,11.347961%,14.375305%);stop-opacity:1;"/>
<stop offset="0.40625" style="stop-color:rgb(89.543152%,11.332703%,14.373779%);stop-opacity:1;"/>
<stop offset="0.4375" style="stop-color:rgb(89.964294%,11.314392%,14.369202%);stop-opacity:1;"/>
<stop offset="0.46875" style="stop-color:rgb(90.235901%,11.276245%,14.338684%);stop-opacity:1;"/>
<stop offset="0.5" style="stop-color:rgb(90.374756%,11.256409%,14.321899%);stop-opacity:1;"/>
<stop offset="0.515625" style="stop-color:rgb(90.509033%,11.236572%,14.306641%);stop-opacity:1;"/>
<stop offset="0.53125" style="stop-color:rgb(90.65094%,11.216736%,14.289856%);stop-opacity:1;"/>
<stop offset="0.5625" style="stop-color:rgb(90.783691%,11.198425%,14.274597%);stop-opacity:1;"/>
<stop offset="0.625" style="stop-color:rgb(90.924072%,11.178589%,14.259338%);stop-opacity:1;"/>
<stop offset="0.75" style="stop-color:rgb(90.943909%,11.175537%,14.256287%);stop-opacity:1;"/>
<stop offset="1" style="stop-color:rgb(90.943909%,11.175537%,14.256287%);stop-opacity:1;"/>
</linearGradient>
</defs>
<g id="surface1">
<rect x="0" y="0" width="56" height="56" style="fill:rgb(95.666504%,95.776367%,96.775818%);fill-opacity:1;stroke:none;"/>
<g clip-path="url(#clip1)" clip-rule="nonzero">
<g clip-path="url(#clip2)" clip-rule="nonzero">
<g clip-path="url(#clip3)" clip-rule="nonzero">
<path style=" stroke:none;fill-rule:nonzero;fill:url(#linear0);" d="M 4.882812 48.726562 L 48.832031 48.726562 L 48.832031 10.582031 L 4.882812 10.582031 Z M 4.882812 48.726562 "/>
</g>
</g>
</g>
</g>
</svg>
