<?xml version="1.0" encoding="UTF-8"?>
<svg xmlns="http://www.w3.org/2000/svg" xmlns:xlink="http://www.w3.org/1999/xlink" width="56pt" height="56pt" viewBox="0 0 56 56" version="1.1">
<g id="surface1">
<rect x="0" y="0" width="56" height="56" style="fill:rgb(95.66803%,95.779419%,96.777344%);fill-opacity:1;stroke:none;"/>
<path style="fill:none;stroke-width:3.43;stroke-linecap:butt;stroke-linejoin:miter;stroke:rgb(15.164185%,30.148315%,63.140869%);stroke-opacity:1;stroke-miterlimit:3.864;" d="M 383.007812 225.9375 L 382.34375 225.429688 C 382.34375 225.429688 325.234375 209.6875 288.632812 213.945312 C 262.96875 216.953125 224.960938 232.421875 224.960938 232.421875 C 224.960938 232.421875 266.914062 220.039062 294.570312 218.007812 C 329.101562 215.429688 383.007812 225.9375 383.007812 225.9375 Z M 383.007812 225.9375 " transform="matrix(0.1,0,0,-0.1,0,56)"/>
<path style=" stroke:none;fill-rule:nonzero;fill:rgb(15.164185%,30.148315%,63.140869%);fill-opacity:1;" d="M 15.382812 30.730469 C 15.546875 30.730469 15.675781 30.859375 15.675781 31.023438 C 15.675781 31.183594 15.546875 31.316406 15.382812 31.316406 C 15.222656 31.316406 15.089844 31.183594 15.089844 31.023438 C 15.089844 30.859375 15.222656 30.730469 15.382812 30.730469 "/>
<path style=" stroke:none;fill-rule:evenodd;fill:rgb(15.164185%,30.148315%,63.140869%);fill-opacity:1;" d="M 19.015625 36.023438 C 19.015625 36.023438 16.566406 37.148438 15.699219 38.511719 C 13.933594 41.289062 17.679688 46.714844 17.679688 46.714844 C 17.679688 46.714844 15.71875 41.84375 16.851562 39.066406 C 17.398438 37.71875 19.015625 36.023438 19.015625 36.023438 "/>
<path style="fill:none;stroke-width:2.59;stroke-linecap:butt;stroke-linejoin:miter;stroke:rgb(15.164185%,30.148315%,63.140869%);stroke-opacity:1;stroke-miterlimit:3.864;" d="M 190.15625 199.765625 C 190.15625 199.765625 165.664062 188.515625 156.992188 174.882812 C 139.335938 147.109375 176.796875 92.851562 176.796875 92.851562 C 176.796875 92.851562 157.1875 141.5625 168.515625 169.335938 C 173.984375 182.8125 190.15625 199.765625 190.15625 199.765625 Z M 190.15625 199.765625 " transform="matrix(0.1,0,0,-0.1,0,56)"/>
<path style=" stroke:none;fill-rule:evenodd;fill:rgb(15.164185%,30.148315%,63.140869%);fill-opacity:1;" d="M 44.40625 8.511719 C 44.40625 8.511719 30.675781 15.238281 26.757812 22.105469 C 25.140625 24.941406 28.6875 28.039062 26.507812 30.46875 C 25.097656 32.039062 21.542969 32.621094 21.542969 32.621094 C 21.542969 32.621094 26.707031 32.546875 28.277344 30.246094 C 29.84375 27.949219 27.015625 25.703125 28.046875 23.121094 C 30.628906 16.667969 44.40625 8.511719 44.40625 8.511719 "/>
<path style="fill:none;stroke-width:2.59;stroke-linecap:butt;stroke-linejoin:miter;stroke:rgb(15.164185%,30.148315%,63.140869%);stroke-opacity:1;stroke-miterlimit:3.864;" d="M 444.0625 474.882812 C 444.0625 474.882812 306.757812 407.617188 267.578125 338.945312 C 251.40625 310.585938 286.875 279.609375 265.078125 255.3125 C 250.976562 239.609375 215.429688 233.789062 215.429688 233.789062 C 215.429688 233.789062 267.070312 234.53125 282.773438 257.539062 C 298.4375 280.507812 270.15625 302.96875 280.46875 328.789062 C 306.289062 393.320312 444.0625 474.882812 444.0625 474.882812 Z M 444.0625 474.882812 " transform="matrix(0.1,0,0,-0.1,0,56)"/>
<path style=" stroke:none;fill-rule:evenodd;fill:rgb(15.164185%,30.148315%,63.140869%);fill-opacity:1;" d="M 12.574219 32.273438 C 12.574219 32.273438 14.105469 31.925781 15.089844 32.015625 C 17.503906 32.230469 18.023438 34.582031 20.304688 35.402344 C 23.527344 36.554688 25.910156 34.25 29.078125 35.539062 C 31.703125 36.605469 34.675781 40.160156 34.675781 40.160156 L 34.699219 40.210938 C 34.699219 40.210938 31.1875 36.722656 28.285156 35.992188 C 25.410156 35.273438 23.542969 37.515625 20.714844 36.636719 C 18.109375 35.832031 17.835938 32.9375 15.164062 32.386719 C 14.171875 32.179688 12.574219 32.277344 12.574219 32.277344 L 12.574219 32.273438 "/>
<path style="fill:none;stroke-width:2.59;stroke-linecap:butt;stroke-linejoin:miter;stroke:rgb(15.164185%,30.148315%,63.140869%);stroke-opacity:1;stroke-miterlimit:3.864;" d="M 125.742188 237.265625 C 125.742188 237.265625 141.054688 240.742188 150.898438 239.84375 C 175.039062 237.695312 180.234375 214.179688 203.046875 205.976562 C 235.273438 194.453125 259.101562 217.5 290.78125 204.609375 C 317.03125 193.945312 346.757812 158.398438 346.757812 158.398438 L 346.992188 157.890625 C 346.992188 157.890625 311.875 192.773438 282.851562 200.078125 C 254.101562 207.265625 235.429688 184.84375 207.148438 193.632812 C 181.09375 201.679688 178.359375 230.625 151.640625 236.132812 C 141.71875 238.203125 125.742188 237.226562 125.742188 237.226562 Z M 125.742188 237.265625 " transform="matrix(0.1,0,0,-0.1,0,56)"/>
<path style=" stroke:none;fill-rule:evenodd;fill:rgb(15.164185%,30.148315%,63.140869%);fill-opacity:1;" d="M 44.824219 6.347656 C 44.824219 6.347656 24.414062 13.605469 19.9375 21.691406 C 18.664062 23.992188 22.484375 25.472656 21.957031 28.003906 C 21.714844 29.160156 21.550781 29.957031 20.679688 30.757812 C 18.992188 32.304688 16.789062 29 14.832031 30.191406 C 14.332031 30.496094 13.679688 31.164062 13.679688 31.164062 C 13.679688 31.164062 14.722656 30.554688 15.460938 30.390625 C 17.515625 29.925781 18.609375 32.855469 20.582031 32.113281 C 22.46875 31.402344 23.09375 29.730469 23.324219 27.726562 C 23.578125 25.492188 19.863281 24.246094 21.132812 22.386719 C 26.070312 15.140625 44.824219 6.347656 44.824219 6.347656 "/>
<path style="fill:none;stroke-width:2.59;stroke-linecap:butt;stroke-linejoin:miter;stroke:rgb(15.164185%,30.148315%,63.140869%);stroke-opacity:1;stroke-miterlimit:3.864;" d="M 448.242188 496.523438 C 448.242188 496.523438 244.140625 423.945312 199.375 343.085938 C 186.640625 320.078125 224.84375 305.273438 219.570312 279.960938 C 217.148438 268.398438 215.507812 260.429688 206.796875 252.421875 C 189.921875 236.953125 167.890625 270 148.320312 258.085938 C 143.320312 255.039062 136.796875 248.359375 136.796875 248.359375 C 136.796875 248.359375 147.226562 254.453125 154.609375 256.09375 C 175.15625 260.742188 186.09375 231.445312 205.820312 238.867188 C 224.6875 245.976562 230.9375 262.695312 233.242188 282.734375 C 235.78125 305.078125 198.632812 317.539062 211.328125 336.132812 C 260.703125 408.59375 448.242188 496.523438 448.242188 496.523438 Z M 448.242188 496.523438 " transform="matrix(0.1,0,0,-0.1,0,56)"/>
<path style=" stroke:none;fill-rule:evenodd;fill:rgb(15.164185%,30.148315%,63.140869%);fill-opacity:1;" d="M 18.410156 34.449219 C 18.410156 34.449219 11.386719 36.066406 11.183594 39.496094 C 11.042969 41.910156 13.195312 42.707031 14.300781 44.859375 C 15.238281 46.6875 16.496094 49.65625 16.496094 49.65625 C 16.496094 49.65625 15.734375 46.574219 15.007812 44.6875 C 14.246094 42.710938 12.539062 41.90625 12.65625 39.789062 C 12.820312 36.730469 18.410156 34.449219 18.410156 34.449219 "/>
<path style="fill:none;stroke-width:2.59;stroke-linecap:butt;stroke-linejoin:miter;stroke:rgb(15.164185%,30.148315%,63.140869%);stroke-opacity:1;stroke-miterlimit:3.864;" d="M 184.101562 215.507812 C 184.101562 215.507812 113.867188 199.335938 111.835938 165.039062 C 110.429688 140.898438 131.953125 132.929688 143.007812 111.40625 C 152.382812 93.125 164.960938 63.4375 164.960938 63.4375 C 164.960938 63.4375 157.34375 94.257812 150.078125 113.125 C 142.460938 132.890625 125.390625 140.9375 126.5625 162.109375 C 128.203125 192.695312 184.101562 215.507812 184.101562 215.507812 Z M 184.101562 215.507812 " transform="matrix(0.1,0,0,-0.1,0,56)"/>
<path style=" stroke:none;fill-rule:evenodd;fill:rgb(31.443787%,66.673279%,89.042664%);fill-opacity:1;" d="M 44.683594 7.082031 C 44.683594 7.082031 27.3125 14.6875 22.519531 22.382812 C 21.195312 24.503906 25.242188 26.378906 24.394531 28.878906 C 23.789062 30.667969 21.089844 32.429688 21.089844 32.429688 C 21.089844 32.429688 24.519531 31.722656 25.789062 30.125 C 27.691406 27.730469 24.550781 24.335938 25.558594 22.292969 C 28.738281 15.839844 44.683594 7.082031 44.683594 7.082031 "/>
<path style="fill:none;stroke-width:2.59;stroke-linecap:butt;stroke-linejoin:miter;stroke:rgb(31.443787%,66.673279%,89.042664%);stroke-opacity:1;stroke-miterlimit:3.864;" d="M 446.835938 489.179688 C 446.835938 489.179688 273.125 413.125 225.195312 336.171875 C 211.953125 314.960938 252.421875 296.210938 243.945312 271.210938 C 237.890625 253.320312 210.898438 235.703125 210.898438 235.703125 C 210.898438 235.703125 245.195312 242.773438 257.890625 258.75 C 276.914062 282.695312 245.507812 316.640625 255.585938 337.070312 C 287.382812 401.601562 446.835938 489.179688 446.835938 489.179688 Z M 446.835938 489.179688 " transform="matrix(0.1,0,0,-0.1,0,56)"/>
<path style=" stroke:none;fill-rule:evenodd;fill:rgb(31.443787%,66.673279%,89.042664%);fill-opacity:1;" d="M 18.449219 35.527344 C 18.449219 35.527344 14.382812 36.578125 13.625 38.695312 C 12.519531 41.78125 15.972656 44.363281 15.972656 44.363281 C 15.972656 44.363281 14.359375 41.550781 14.683594 39.480469 C 15.011719 37.375 18.449219 35.527344 18.449219 35.527344 "/>
<path style="fill:none;stroke-width:2.59;stroke-linecap:butt;stroke-linejoin:miter;stroke:rgb(31.443787%,66.673279%,89.042664%);stroke-opacity:1;stroke-miterlimit:3.864;" d="M 184.492188 204.726562 C 184.492188 204.726562 143.828125 194.21875 136.25 173.046875 C 125.195312 142.1875 159.726562 116.367188 159.726562 116.367188 C 159.726562 116.367188 143.59375 144.492188 146.835938 165.195312 C 150.117188 186.25 184.492188 204.726562 184.492188 204.726562 Z M 184.492188 204.726562 " transform="matrix(0.1,0,0,-0.1,0,56)"/>
<path style=" stroke:none;fill-rule:evenodd;fill:rgb(31.443787%,66.673279%,89.042664%);fill-opacity:1;" d="M 35.238281 39.847656 C 35.238281 39.847656 34.65625 37.765625 33.71875 36.851562 C 32.515625 35.6875 29.671875 35.410156 29.671875 35.410156 C 29.671875 35.410156 31.371094 36.234375 32.335938 36.945312 C 33.625 37.894531 35.238281 39.847656 35.238281 39.847656 Z M 37.933594 34.238281 L 38.003906 33.949219 C 38.003906 33.949219 34.863281 34.859375 32.792969 35.007812 C 31.414062 35.109375 29.246094 34.964844 29.246094 34.964844 C 29.246094 34.964844 32.527344 35.945312 34.59375 35.5625 C 35.96875 35.308594 37.933594 34.238281 37.933594 34.238281 "/>
</g>
</svg>
