<?xml version="1.0" encoding="UTF-8"?>
<svg xmlns="http://www.w3.org/2000/svg" xmlns:xlink="http://www.w3.org/1999/xlink" width="56pt" height="56pt" viewBox="0 0 56 56" version="1.1">
<defs>
<clipPath id="clip1">
  <path d="M 7 15 L 45 15 L 45 42 L 7 42 Z M 7 15 "/>
</clipPath>
<clipPath id="clip2">
  <path d="M 12.21875 40.453125 C 13.207031 40.667969 14.09375 40.980469 14.992188 41.027344 C 15.882812 41.074219 16.789062 40.851562 17.695312 40.832031 C 14.53125 42.074219 11.339844 42.511719 8.042969 41.144531 C 7.589844 39.84375 8.039062 38.582031 8.375 37.382812 C 9.027344 35.082031 10.207031 33.03125 11.710938 31.15625 C 15.710938 26.164062 21.007812 23.019531 26.753906 20.507812 C 30.21875 18.988281 33.824219 17.921875 37.53125 17.226562 C 38.996094 16.949219 40.484375 16.820312 42.074219 16.613281 C 42.050781 16.214844 42.03125 15.800781 42.007812 15.375 C 42.828125 15.335938 42.667969 16.003906 42.9375 16.386719 C 43.230469 16.457031 43.550781 16.535156 44.273438 16.703125 C 42.941406 16.976562 42.890625 17.886719 42.550781 18.695312 C 41.867188 18.285156 42.402344 17.539062 41.949219 17.15625 C 37.132812 17.917969 32.574219 19.523438 28.234375 21.742188 C 24.109375 23.847656 20.28125 26.378906 17.078125 29.785156 C 14.652344 32.367188 12.992188 35.335938 12.273438 38.8125 C 12.230469 39.015625 12.230469 39.222656 12.222656 39.429688 C 12.214844 39.691406 12.21875 39.949219 12.21875 40.453125 Z M 12.21875 40.453125 "/>
</clipPath>
<clipPath id="clip3">
  <path d="M 12.21875 40.453125 C 13.207031 40.667969 14.09375 40.980469 14.992188 41.027344 C 15.882812 41.074219 16.789062 40.851562 17.695312 40.832031 C 14.53125 42.074219 11.339844 42.511719 8.042969 41.144531 C 7.589844 39.84375 8.039062 38.582031 8.375 37.382812 C 9.027344 35.082031 10.207031 33.03125 11.710938 31.15625 C 15.710938 26.164062 21.007812 23.019531 26.753906 20.507812 C 30.21875 18.988281 33.824219 17.921875 37.53125 17.226562 C 38.996094 16.949219 40.484375 16.820312 42.074219 16.613281 C 42.050781 16.214844 42.03125 15.800781 42.007812 15.375 C 42.828125 15.335938 42.667969 16.003906 42.9375 16.386719 C 43.230469 16.457031 43.550781 16.535156 44.273438 16.703125 C 42.941406 16.976562 42.890625 17.886719 42.550781 18.695312 C 41.867188 18.285156 42.402344 17.539062 41.949219 17.15625 C 37.132812 17.917969 32.574219 19.523438 28.234375 21.742188 C 24.109375 23.847656 20.28125 26.378906 17.078125 29.785156 C 14.652344 32.367188 12.992188 35.335938 12.273438 38.8125 C 12.230469 39.015625 12.230469 39.222656 12.222656 39.429688 C 12.214844 39.691406 12.21875 39.949219 12.21875 40.453125 "/>
</clipPath>
<linearGradient id="linear0" gradientUnits="userSpaceOnUse" x1="0.0626548" y1="0" x2="1.749322" y2="0" gradientTransform="matrix(23.2182,-13.6052,13.6052,23.2182,4.60104,40.75)">
<stop offset="0" style="stop-color:rgb(95.516968%,41.621399%,8.963013%);stop-opacity:1;"/>
<stop offset="0.00390625" style="stop-color:rgb(95.49408%,41.348267%,9.008789%);stop-opacity:1;"/>
<stop offset="0.0078125" style="stop-color:rgb(95.471191%,41.073608%,9.056091%);stop-opacity:1;"/>
<stop offset="0.0117188" style="stop-color:rgb(95.448303%,40.800476%,9.101868%);stop-opacity:1;"/>
<stop offset="0.015625" style="stop-color:rgb(95.425415%,40.52887%,9.147644%);stop-opacity:1;"/>
<stop offset="0.0195312" style="stop-color:rgb(95.402527%,40.255737%,9.19342%);stop-opacity:1;"/>
<stop offset="0.0234375" style="stop-color:rgb(95.379639%,39.981079%,9.239197%);stop-opacity:1;"/>
<stop offset="0.0273438" style="stop-color:rgb(95.352173%,39.660645%,9.326172%);stop-opacity:1;"/>
<stop offset="0.03125" style="stop-color:rgb(95.324707%,39.34021%,9.410095%);stop-opacity:1;"/>
<stop offset="0.0351562" style="stop-color:rgb(95.292664%,38.955688%,9.571838%);stop-opacity:1;"/>
<stop offset="0.0390625" style="stop-color:rgb(95.26062%,38.568115%,9.733582%);stop-opacity:1;"/>
<stop offset="0.046875" style="stop-color:rgb(95.248413%,38.421631%,9.854126%);stop-opacity:1;"/>
<stop offset="0.0507812" style="stop-color:rgb(95.204163%,37.879944%,10.134888%);stop-opacity:1;"/>
<stop offset="0.0546875" style="stop-color:rgb(95.172119%,37.481689%,10.293579%);stop-opacity:1;"/>
<stop offset="0.0585938" style="stop-color:rgb(95.144653%,37.159729%,10.440063%);stop-opacity:1;"/>
<stop offset="0.0625" style="stop-color:rgb(95.117188%,36.834717%,10.586548%);stop-opacity:1;"/>
<stop offset="0.0664062" style="stop-color:rgb(95.088196%,36.482239%,10.73761%);stop-opacity:1;"/>
<stop offset="0.0703125" style="stop-color:rgb(95.059204%,36.129761%,10.88562%);stop-opacity:1;"/>
<stop offset="0.0742188" style="stop-color:rgb(95.031738%,35.794067%,11.003113%);stop-opacity:1;"/>
<stop offset="0.078125" style="stop-color:rgb(95.002747%,35.456848%,11.120605%);stop-opacity:1;"/>
<stop offset="0.0859375" style="stop-color:rgb(94.99054%,35.307312%,11.143494%);stop-opacity:1;"/>
<stop offset="0.0898438" style="stop-color:rgb(94.955444%,34.883118%,11.209106%);stop-opacity:1;"/>
<stop offset="0.09375" style="stop-color:rgb(94.932556%,34.608459%,11.251831%);stop-opacity:1;"/>
<stop offset="0.0976562" style="stop-color:rgb(94.909668%,34.333801%,11.29303%);stop-opacity:1;"/>
<stop offset="0.101562" style="stop-color:rgb(94.88678%,34.060669%,11.335754%);stop-opacity:1;"/>
<stop offset="0.105469" style="stop-color:rgb(94.871521%,33.888245%,11.299133%);stop-opacity:1;"/>
<stop offset="0.109375" style="stop-color:rgb(94.856262%,33.714294%,11.264038%);stop-opacity:1;"/>
<stop offset="0.113281" style="stop-color:rgb(94.839478%,33.522034%,11.203003%);stop-opacity:1;"/>
<stop offset="0.117188" style="stop-color:rgb(94.822693%,33.329773%,11.143494%);stop-opacity:1;"/>
<stop offset="0.121094" style="stop-color:rgb(94.801331%,33.06427%,11.11908%);stop-opacity:1;"/>
<stop offset="0.125" style="stop-color:rgb(94.778442%,32.798767%,11.097717%);stop-opacity:1;"/>
<stop offset="0.128906" style="stop-color:rgb(94.755554%,32.525635%,11.134338%);stop-opacity:1;"/>
<stop offset="0.132812" style="stop-color:rgb(94.732666%,32.252502%,11.170959%);stop-opacity:1;"/>
<stop offset="0.136719" style="stop-color:rgb(94.709778%,31.990051%,11.125183%);stop-opacity:1;"/>
<stop offset="0.140625" style="stop-color:rgb(94.68689%,31.7276%,11.077881%);stop-opacity:1;"/>
<stop offset="0.144531" style="stop-color:rgb(94.664001%,31.455994%,11.109924%);stop-opacity:1;"/>
<stop offset="0.148438" style="stop-color:rgb(94.641113%,31.184387%,11.143494%);stop-opacity:1;"/>
<stop offset="0.152344" style="stop-color:rgb(94.618225%,30.903625%,11.247253%);stop-opacity:1;"/>
<stop offset="0.15625" style="stop-color:rgb(94.595337%,30.621338%,11.349487%);stop-opacity:1;"/>
<stop offset="0.160156" style="stop-color:rgb(94.566345%,30.273438%,11.49292%);stop-opacity:1;"/>
<stop offset="0.164062" style="stop-color:rgb(94.537354%,29.924011%,11.634827%);stop-opacity:1;"/>
<stop offset="0.167969" style="stop-color:rgb(94.508362%,29.574585%,11.753845%);stop-opacity:1;"/>
<stop offset="0.171875" style="stop-color:rgb(94.47937%,29.223633%,11.872864%);stop-opacity:1;"/>
<stop offset="0.179688" style="stop-color:rgb(94.467163%,29.078674%,11.90033%);stop-opacity:1;"/>
<stop offset="0.183594" style="stop-color:rgb(94.432068%,28.648376%,12.057495%);stop-opacity:1;"/>
<stop offset="0.1875" style="stop-color:rgb(94.407654%,28.361511%,12.185669%);stop-opacity:1;"/>
<stop offset="0.191406" style="stop-color:rgb(94.384766%,28.085327%,12.242126%);stop-opacity:1;"/>
<stop offset="0.195312" style="stop-color:rgb(94.361877%,27.809143%,12.297058%);stop-opacity:1;"/>
<stop offset="0.199219" style="stop-color:rgb(94.346619%,27.630615%,12.271118%);stop-opacity:1;"/>
<stop offset="0.203125" style="stop-color:rgb(94.33136%,27.452087%,12.245178%);stop-opacity:1;"/>
<stop offset="0.207031" style="stop-color:rgb(94.314575%,27.262878%,12.228394%);stop-opacity:1;"/>
<stop offset="0.210938" style="stop-color:rgb(94.299316%,27.073669%,12.210083%);stop-opacity:1;"/>
<stop offset="0.214844" style="stop-color:rgb(94.277954%,26.831055%,12.24823%);stop-opacity:1;"/>
<stop offset="0.21875" style="stop-color:rgb(94.258118%,26.58844%,12.286377%);stop-opacity:1;"/>
<stop offset="0.226562" style="stop-color:rgb(94.245911%,26.448059%,12.309265%);stop-opacity:1;"/>
<stop offset="0.230469" style="stop-color:rgb(94.210815%,26.03302%,12.373352%);stop-opacity:1;"/>
<stop offset="0.234375" style="stop-color:rgb(94.187927%,25.759888%,12.416077%);stop-opacity:1;"/>
<stop offset="0.238281" style="stop-color:rgb(94.165039%,25.485229%,12.458801%);stop-opacity:1;"/>
<stop offset="0.242188" style="stop-color:rgb(94.142151%,25.210571%,12.503052%);stop-opacity:1;"/>
<stop offset="0.246094" style="stop-color:rgb(94.119263%,24.937439%,12.545776%);stop-opacity:1;"/>
<stop offset="0.25" style="stop-color:rgb(94.096375%,24.662781%,12.588501%);stop-opacity:1;"/>
<stop offset="0.253906" style="stop-color:rgb(94.073486%,24.389648%,12.631226%);stop-opacity:1;"/>
<stop offset="0.257812" style="stop-color:rgb(94.050598%,24.11499%,12.67395%);stop-opacity:1;"/>
<stop offset="0.261719" style="stop-color:rgb(94.02771%,23.84491%,12.69989%);stop-opacity:1;"/>
<stop offset="0.265625" style="stop-color:rgb(94.004822%,23.573303%,12.72583%);stop-opacity:1;"/>
<stop offset="0.269531" style="stop-color:rgb(93.981934%,23.313904%,12.689209%);stop-opacity:1;"/>
<stop offset="0.273437" style="stop-color:rgb(93.959045%,23.054504%,12.652588%);stop-opacity:1;"/>
<stop offset="0.28125" style="stop-color:rgb(93.948364%,22.917175%,12.67395%);stop-opacity:1;"/>
<stop offset="0.285156" style="stop-color:rgb(93.916321%,22.544861%,12.670898%);stop-opacity:1;"/>
<stop offset="0.289062" style="stop-color:rgb(93.896484%,22.309875%,12.646484%);stop-opacity:1;"/>
<stop offset="0.292969" style="stop-color:rgb(93.881226%,22.132874%,12.599182%);stop-opacity:1;"/>
<stop offset="0.296875" style="stop-color:rgb(93.864441%,21.954346%,12.55188%);stop-opacity:1;"/>
<stop offset="0.304688" style="stop-color:rgb(93.85376%,21.833801%,12.493896%);stop-opacity:1;"/>
<stop offset="0.3125" style="stop-color:rgb(93.829346%,21.560669%,12.400818%);stop-opacity:1;"/>
<stop offset="0.316406" style="stop-color:rgb(93.79425%,21.138%,12.409973%);stop-opacity:1;"/>
<stop offset="0.320312" style="stop-color:rgb(93.771362%,20.863342%,12.45575%);stop-opacity:1;"/>
<stop offset="0.324219" style="stop-color:rgb(93.748474%,20.59021%,12.501526%);stop-opacity:1;"/>
<stop offset="0.328125" style="stop-color:rgb(93.72406%,20.317078%,12.548828%);stop-opacity:1;"/>
<stop offset="0.332031" style="stop-color:rgb(93.710327%,20.150757%,12.576294%);stop-opacity:1;"/>
<stop offset="0.335938" style="stop-color:rgb(93.696594%,19.98291%,12.60376%);stop-opacity:1;"/>
<stop offset="0.339844" style="stop-color:rgb(93.678284%,19.760132%,12.684631%);stop-opacity:1;"/>
<stop offset="0.34375" style="stop-color:rgb(93.659973%,19.535828%,12.763977%);stop-opacity:1;"/>
<stop offset="0.347656" style="stop-color:rgb(93.640137%,19.303894%,12.849426%);stop-opacity:1;"/>
<stop offset="0.351563" style="stop-color:rgb(93.621826%,19.068909%,12.934875%);stop-opacity:1;"/>
<stop offset="0.359375" style="stop-color:rgb(93.609619%,18.933105%,12.957764%);stop-opacity:1;"/>
<stop offset="0.367188" style="stop-color:rgb(93.586731%,18.661499%,13.002014%);stop-opacity:1;"/>
<stop offset="0.375" style="stop-color:rgb(93.563843%,18.386841%,13.047791%);stop-opacity:1;"/>
<stop offset="0.382812" style="stop-color:rgb(93.540955%,18.113708%,13.093567%);stop-opacity:1;"/>
<stop offset="0.390625" style="stop-color:rgb(93.518066%,17.840576%,13.137817%);stop-opacity:1;"/>
<stop offset="0.394531" style="stop-color:rgb(93.490601%,17.520142%,13.191223%);stop-opacity:1;"/>
<stop offset="0.398437" style="stop-color:rgb(93.475342%,17.33551%,13.221741%);stop-opacity:1;"/>
<stop offset="0.402344" style="stop-color:rgb(93.453979%,17.079163%,13.273621%);stop-opacity:1;"/>
<stop offset="0.40625" style="stop-color:rgb(93.432617%,16.822815%,13.3255%);stop-opacity:1;"/>
<stop offset="0.414062" style="stop-color:rgb(93.42041%,16.670227%,13.421631%);stop-opacity:1;"/>
<stop offset="0.421875" style="stop-color:rgb(93.395996%,16.363525%,13.612366%);stop-opacity:1;"/>
<stop offset="0.425781" style="stop-color:rgb(93.363953%,15.969849%,13.763428%);stop-opacity:1;"/>
<stop offset="0.429688" style="stop-color:rgb(93.344116%,15.72876%,13.821411%);stop-opacity:1;"/>
<stop offset="0.433594" style="stop-color:rgb(93.327332%,15.518188%,13.891602%);stop-opacity:1;"/>
<stop offset="0.4375" style="stop-color:rgb(93.310547%,15.306091%,13.960266%);stop-opacity:1;"/>
<stop offset="0.445312" style="stop-color:rgb(93.29834%,15.159607%,14.030457%);stop-opacity:1;"/>
<stop offset="0.453125" style="stop-color:rgb(93.273926%,14.874268%,14.122009%);stop-opacity:1;"/>
<stop offset="0.460938" style="stop-color:rgb(93.251038%,14.599609%,14.164734%);stop-opacity:1;"/>
<stop offset="0.46875" style="stop-color:rgb(93.228149%,14.326477%,14.207458%);stop-opacity:1;"/>
<stop offset="0.476563" style="stop-color:rgb(93.205261%,14.051819%,14.250183%);stop-opacity:1;"/>
<stop offset="0.484375" style="stop-color:rgb(93.128967%,13.853455%,14.289856%);stop-opacity:1;"/>
<stop offset="0.492188" style="stop-color:rgb(92.973328%,13.717651%,14.352417%);stop-opacity:1;"/>
<stop offset="0.496094" style="stop-color:rgb(92.860413%,13.365173%,14.498901%);stop-opacity:1;"/>
<stop offset="0.5" style="stop-color:rgb(92.83905%,13.087463%,14.601135%);stop-opacity:1;"/>
<stop offset="0.507812" style="stop-color:rgb(92.826843%,12.950134%,14.622498%);stop-opacity:1;"/>
<stop offset="0.515625" style="stop-color:rgb(92.909241%,12.663269%,14.651489%);stop-opacity:1;"/>
<stop offset="0.523437" style="stop-color:rgb(93.029785%,12.359619%,14.723206%);stop-opacity:1;"/>
<stop offset="0.53125" style="stop-color:rgb(92.991638%,12.133789%,14.839172%);stop-opacity:1;"/>
<stop offset="0.539062" style="stop-color:rgb(92.840576%,12.028503%,14.926147%);stop-opacity:1;"/>
<stop offset="0.546875" style="stop-color:rgb(92.739868%,11.845398%,15.045166%);stop-opacity:1;"/>
<stop offset="0.5625" style="stop-color:rgb(92.713928%,11.535645%,15.150452%);stop-opacity:1;"/>
<stop offset="0.625" style="stop-color:rgb(92.701721%,11.380005%,15.17334%);stop-opacity:1;"/>
<stop offset="0.75" style="stop-color:rgb(92.701721%,11.380005%,15.17334%);stop-opacity:1;"/>
<stop offset="1" style="stop-color:rgb(92.701721%,11.380005%,15.17334%);stop-opacity:1;"/>
</linearGradient>
</defs>
<g id="surface1">
<rect x="0" y="0" width="56" height="56" style="fill:rgb(95.666504%,95.776367%,96.775818%);fill-opacity:1;stroke:none;"/>
<g clip-path="url(#clip1)" clip-rule="nonzero">
<g clip-path="url(#clip2)" clip-rule="nonzero">
<g clip-path="url(#clip3)" clip-rule="nonzero">
<path style=" stroke:none;fill-rule:nonzero;fill:url(#linear0);" d="M -4.265625 22.28125 L 16.964844 58.515625 L 56.125 35.566406 L 34.894531 -0.664062 Z M -4.265625 22.28125 "/>
</g>
</g>
</g>
<path style=" stroke:none;fill-rule:nonzero;fill:rgb(92.700195%,11.358643%,15.148926%);fill-opacity:1;" d="M 25.605469 20.167969 C 25.183594 20.390625 24.867188 20.554688 24.550781 20.726562 C 20.828125 17.121094 16.609375 15.402344 11.417969 17.089844 C 11.089844 18.179688 11.523438 19.121094 11.75 20.035156 C 11.964844 20.90625 12.464844 21.707031 12.722656 22.582031 C 10.011719 19.882812 8.699219 16.636719 8.824219 12.832031 C 13.796875 10.648438 22.101562 13.570312 25.605469 20.167969 "/>
<path style=" stroke:none;fill-rule:nonzero;fill:rgb(92.700195%,11.358643%,15.148926%);fill-opacity:1;" d="M 52.148438 28.78125 C 47.695312 34.800781 37.996094 35.1875 33.492188 31.78125 C 36.234375 32.464844 38.972656 32.671875 41.683594 31.726562 C 43.109375 31.226562 44.464844 30.5625 45.585938 29.539062 C 46.300781 28.886719 46.917969 28.125 47.625 27.367188 C 46.414062 25.382812 44.621094 24.410156 42.695312 23.628906 C 40.78125 22.851562 38.753906 22.917969 36.429688 23 C 42.703125 21.144531 50.167969 24.464844 52.148438 28.78125 "/>
<path style=" stroke:none;fill-rule:nonzero;fill:rgb(92.700195%,11.358643%,15.148926%);fill-opacity:1;" d="M 26.183594 34.226562 C 26.183594 37.921875 27.246094 41.121094 29.871094 43.699219 C 31.257812 45.054688 32.742188 46.210938 34.78125 46.453125 C 36.847656 43.820312 36.785156 40.792969 36.621094 37.746094 C 38.101562 42.5 37.726562 46.953125 34.589844 51.0625 C 31.996094 50.253906 30.03125 48.722656 28.460938 46.675781 C 26.09375 43.59375 25.089844 40.09375 25.292969 36.222656 C 25.332031 35.453125 25.53125 34.816406 26.183594 34.226562 "/>
<path style=" stroke:none;fill-rule:nonzero;fill:rgb(92.700195%,11.358643%,15.148926%);fill-opacity:1;" d="M 26.664062 14.972656 C 28.179688 10.011719 31.199219 6.476562 36.292969 4.9375 C 38.359375 7.398438 39.445312 12.171875 38.160156 16.292969 C 37.773438 16.417969 37.347656 16.589844 36.90625 16.695312 C 36.515625 16.792969 36.113281 16.816406 35.632812 16.886719 C 35.65625 14.03125 35.109375 11.347656 33.078125 9.0625 C 30.09375 10.132812 28.046875 12.167969 26.664062 14.972656 "/>
<path style=" stroke:none;fill-rule:nonzero;fill:rgb(92.700195%,11.358643%,15.148926%);fill-opacity:1;" d="M 27.621094 25.144531 C 28.832031 25.152344 29.855469 26.109375 29.855469 27.234375 C 29.859375 28.472656 28.8125 29.542969 27.605469 29.535156 C 26.371094 29.53125 25.316406 28.492188 25.328125 27.292969 C 25.34375 25.957031 26.21875 25.136719 27.621094 25.144531 "/>
<path style=" stroke:none;fill-rule:nonzero;fill:rgb(92.700195%,11.358643%,15.148926%);fill-opacity:1;" d="M 37.222656 18.863281 C 36.554688 20.902344 35.296875 22.195312 34.128906 23.539062 C 33.9375 23.757812 33.535156 23.792969 33.058594 23.980469 C 33.820312 22.472656 34.476562 21.164062 35.269531 19.59375 C 35.648438 19.449219 36.304688 19.207031 37.222656 18.863281 "/>
</g>
</svg>
