<?xml version="1.0" encoding="UTF-8"?>
<svg xmlns="http://www.w3.org/2000/svg" xmlns:xlink="http://www.w3.org/1999/xlink" width="56pt" height="56pt" viewBox="0 0 56 56" version="1.1">
<g id="surface1">
<rect x="0" y="0" width="56" height="56" style="fill:rgb(13.464355%,17.54303%,23.985291%);fill-opacity:1;stroke:none;"/>
<path style=" stroke:none;fill-rule:nonzero;fill:rgb(100%,100%,100%);fill-opacity:1;" d="M 16.640625 22.785156 L 16.601562 22.789062 C 14.949219 22.8125 13.664062 24.117188 13.675781 25.757812 C 13.6875 27.417969 14.980469 28.671875 16.679688 28.671875 L 16.734375 28.671875 C 18.320312 28.648438 19.59375 27.300781 19.574219 25.667969 C 19.558594 24.078125 18.242188 22.785156 16.640625 22.785156 M 16.609375 27.117188 L 16.585938 27.113281 C 16.238281 27.109375 15.898438 26.953125 15.648438 26.6875 C 15.394531 26.421875 15.257812 26.066406 15.269531 25.710938 C 15.292969 25.007812 15.914062 24.410156 16.621094 24.410156 L 16.65625 24.414062 C 16.996094 24.421875 17.335938 24.582031 17.589844 24.855469 C 17.839844 25.121094 17.972656 25.464844 17.957031 25.796875 C 17.925781 26.511719 17.308594 27.117188 16.609375 27.117188 "/>
<path style=" stroke:none;fill-rule:nonzero;fill:rgb(100%,100%,100%);fill-opacity:1;" d="M 28.222656 29.738281 C 28.269531 29.710938 28.320312 29.675781 28.371094 29.640625 C 29.339844 28.964844 29.945312 27.832031 29.996094 26.605469 C 30.046875 25.289062 29.316406 23.945312 28.167969 23.25 C 27.667969 22.992188 27.078125 22.851562 26.359375 22.820312 C 26.335938 22.816406 26.3125 22.816406 26.289062 22.816406 C 26.257812 22.816406 26.21875 22.816406 26.1875 22.8125 C 26.152344 22.808594 26.054688 22.800781 24.105469 22.800781 C 22.75 22.800781 21.140625 22.800781 21.140625 22.800781 L 21.140625 33.214844 L 23.722656 33.210938 L 23.722656 30.289062 C 24.039062 30.289062 25.230469 30.289062 25.5625 30.289062 C 25.820312 30.667969 26.761719 32.101562 27.300781 32.808594 C 27.496094 33.066406 27.773438 33.214844 28.070312 33.214844 L 30.796875 33.214844 L 30.40625 32.691406 C 30.394531 32.667969 28.855469 30.613281 28.222656 29.738281 M 26.308594 27.914062 L 26.304688 27.914062 C 25.9375 27.914062 24.382812 27.914062 23.726562 27.914062 C 23.726562 27.871094 23.726562 25.199219 23.726562 25.199219 C 24.183594 25.199219 26.363281 25.199219 26.371094 25.199219 C 27.011719 25.214844 27.570312 25.882812 27.539062 26.589844 C 27.511719 27.324219 26.949219 27.929688 26.308594 27.914062 "/>
<path style=" stroke:none;fill-rule:nonzero;fill:rgb(100%,100%,100%);fill-opacity:1;" d="M 9.550781 22.796875 L 9.554688 27.417969 C 9.558594 27.855469 9.570312 28.320312 9.601562 28.683594 L 9.554688 28.628906 L 9.554688 28.632812 C 9.265625 28.3125 5.214844 23.824219 4.550781 23.085938 C 4.386719 22.902344 4.167969 22.800781 3.941406 22.800781 L 2.105469 22.800781 L 2.105469 33.214844 L 4.71875 33.210938 C 4.71875 33.210938 4.722656 30.835938 4.722656 29.21875 L 4.722656 28.578125 C 4.722656 28.085938 4.707031 27.515625 4.671875 27.085938 L 4.804688 27.234375 L 4.808594 27.238281 C 5.9375 28.496094 9.074219 31.953125 9.324219 32.207031 L 10.015625 32.941406 C 10.179688 33.113281 10.390625 33.210938 10.613281 33.210938 L 12.171875 33.210938 L 12.167969 22.796875 L 9.550781 22.796875 "/>
<path style=" stroke:none;fill-rule:nonzero;fill:rgb(100%,100%,100%);fill-opacity:1;" d="M 41.308594 32.691406 C 41.292969 32.667969 39.753906 30.613281 39.121094 29.738281 C 39.167969 29.710938 39.21875 29.675781 39.269531 29.640625 C 40.238281 28.964844 40.84375 27.832031 40.894531 26.605469 C 40.949219 25.289062 40.21875 23.945312 39.070312 23.25 C 38.566406 22.992188 37.976562 22.851562 37.261719 22.820312 C 37.234375 22.816406 37.214844 22.816406 37.191406 22.816406 C 37.15625 22.816406 37.121094 22.816406 37.085938 22.8125 C 37.050781 22.808594 36.953125 22.800781 35.003906 22.800781 C 33.652344 22.800781 32.039062 22.800781 32.039062 22.800781 L 32.039062 33.214844 L 34.621094 33.210938 L 34.621094 30.289062 C 34.941406 30.289062 36.132812 30.289062 36.464844 30.289062 C 36.71875 30.667969 37.660156 32.101562 38.199219 32.808594 C 38.394531 33.066406 38.671875 33.214844 38.96875 33.214844 L 41.699219 33.214844 Z M 37.207031 27.914062 C 36.835938 27.914062 35.28125 27.914062 34.625 27.914062 C 34.625 27.871094 34.625 25.199219 34.625 25.199219 C 35.082031 25.199219 37.261719 25.199219 37.269531 25.199219 C 37.90625 25.214844 38.46875 25.882812 38.441406 26.589844 C 38.410156 27.324219 37.847656 27.929688 37.207031 27.914062 "/>
<path style=" stroke:none;fill-rule:nonzero;fill:rgb(100%,100%,100%);fill-opacity:1;" d="M 45.609375 31.589844 L 50.34375 31.59375 C 50.554688 32.09375 51 33.210938 51 33.210938 L 53.894531 33.214844 C 53.894531 33.214844 49.542969 23.027344 49.445312 22.796875 L 46.492188 22.796875 C 46.390625 23.050781 42.046875 33.210938 42.046875 33.210938 L 44.953125 33.210938 Z M 47.804688 26.164062 L 47.808594 26.15625 L 47.816406 26.132812 C 47.867188 25.992188 47.902344 25.890625 47.96875 25.636719 C 48.035156 25.886719 48.070312 25.996094 48.117188 26.132812 L 48.132812 26.164062 L 49.355469 29.15625 L 46.597656 29.160156 L 47.804688 26.164062 "/>
</g>
</svg>
