<?xml version="1.0" encoding="UTF-8"?>
<svg xmlns="http://www.w3.org/2000/svg" xmlns:xlink="http://www.w3.org/1999/xlink" width="56pt" height="56pt" viewBox="0 0 56 56" version="1.1">
<g id="surface1">
<rect x="0" y="0" width="56" height="56" style="fill:rgb(92.868042%,10.969543%,14.10675%);fill-opacity:1;stroke:none;"/>
<path style=" stroke:none;fill-rule:nonzero;fill:rgb(92.868042%,10.969543%,14.10675%);fill-opacity:1;" d="M 50.679688 28 C 50.679688 40.527344 40.527344 50.679688 28 50.679688 C 15.472656 50.679688 5.320312 40.527344 5.320312 28 C 5.320312 15.472656 15.472656 5.320312 28 5.320312 C 40.527344 5.320312 50.679688 15.472656 50.679688 28 "/>
<path style=" stroke:none;fill-rule:nonzero;fill:rgb(100%,100%,100%);fill-opacity:1;" d="M 28 5.320312 C 15.472656 5.320312 5.320312 15.472656 5.320312 28 C 5.320312 40.527344 15.472656 50.679688 28 50.679688 C 40.527344 50.679688 50.679688 40.527344 50.679688 28 C 50.679688 15.472656 40.527344 5.320312 28 5.320312 Z M 28 6.832031 C 39.671875 6.832031 49.167969 16.328125 49.167969 28 C 49.167969 39.671875 39.671875 49.167969 28 49.167969 C 16.328125 49.167969 6.832031 39.671875 6.832031 28 C 6.832031 16.328125 16.328125 6.832031 28 6.832031 "/>
<path style=" stroke:none;fill-rule:nonzero;fill:rgb(100%,100%,100%);fill-opacity:1;" d="M 42.371094 11.894531 L 38.855469 9.601562 L 38.074219 23.605469 L 19.722656 11.894531 L 15.234375 11.503906 L 13.769531 44.300781 L 17.28125 46.394531 L 18.0625 32.585938 L 36.414062 44.300781 L 40.90625 44.691406 L 42.371094 11.894531 "/>
</g>
</svg>
