<?xml version="1.0" encoding="UTF-8"?>
<svg xmlns="http://www.w3.org/2000/svg" xmlns:xlink="http://www.w3.org/1999/xlink" width="56pt" height="56pt" viewBox="0 0 56 56" version="1.1">
<g id="surface1">
<rect x="0" y="0" width="56" height="56" style="fill:rgb(41.345215%,39.781189%,12.844849%);fill-opacity:1;stroke:none;"/>
<path style=" stroke:none;fill-rule:nonzero;fill:rgb(100%,100%,100%);fill-opacity:1;" d="M 20.273438 45.496094 C 16.355469 45.726562 13.996094 43.792969 11.753906 41.855469 C 10.0625 40.398438 8.625 38.628906 7.195312 36.898438 C 6.164062 35.652344 5.304688 34.285156 3.320312 34.628906 C 4.3125 31.988281 6.707031 30.703125 9.550781 31.464844 C 11.375 31.953125 13.066406 32.96875 14.773438 33.839844 C 15.753906 34.339844 16.644531 35.027344 17.578125 35.628906 C 17.765625 35.40625 17.953125 35.179688 18.140625 34.957031 C 17.402344 34.140625 16.640625 33.34375 15.929688 32.507812 C 13.402344 29.53125 13.699219 26.988281 17.140625 25.199219 C 20.738281 23.335938 24.515625 21.796875 28.265625 20.242188 C 32.808594 18.359375 37.480469 16.765625 41.957031 14.738281 C 44.347656 13.65625 46.445312 11.921875 48.675781 10.484375 C 48.84375 13.835938 44.6875 19.9375 40.0625 22.167969 C 35.570312 24.335938 30.800781 25.921875 25.722656 27.933594 C 32.570312 26.824219 38.660156 24.9375 44.121094 20.960938 C 43.800781 25.609375 40.910156 29.566406 36.84375 30.613281 C 34.167969 31.304688 31.378906 31.546875 28.628906 31.917969 C 27.679688 32.046875 26.699219 31.980469 25.734375 31.96875 C 22.863281 31.929688 20.703125 32.835938 20.175781 36.019531 C 20.125 36.308594 19.875 36.5625 19.515625 37.191406 C 18.386719 36.824219 17.246094 36.292969 16.054688 36.117188 C 15.078125 35.96875 13.816406 35.910156 13.085938 36.410156 C 11.980469 37.160156 12.753906 38.339844 13.222656 39.296875 C 14.375 41.628906 16.359375 43.429688 20.273438 45.496094 "/>
</g>
</svg>
