<?xml version="1.0" encoding="UTF-8"?>
<svg xmlns="http://www.w3.org/2000/svg" xmlns:xlink="http://www.w3.org/1999/xlink" width="56pt" height="56pt" viewBox="0 0 56 56" version="1.1">
<g id="surface1">
<rect x="0" y="0" width="56" height="56" style="fill:rgb(17.115784%,21.884155%,54.794312%);fill-opacity:1;stroke:none;"/>
<path style=" stroke:none;fill-rule:nonzero;fill:rgb(100%,100%,100%);fill-opacity:1;" d="M 26.101562 8.347656 C 27.742188 9.839844 29.398438 11.308594 31.289062 12.492188 C 34.15625 14.292969 37.25 15.46875 40.582031 16.046875 C 42.199219 16.328125 43.824219 16.46875 45.464844 16.472656 C 46.082031 16.472656 46.707031 16.519531 47.324219 16.601562 C 47.695312 16.65625 48.054688 16.820312 48.339844 16.90625 C 48.6875 17.566406 48.542969 18.074219 48.160156 18.464844 C 47.476562 19.164062 46.769531 19.847656 46.007812 20.460938 C 45.375 20.96875 44.644531 21.363281 43.96875 21.824219 C 43.683594 22.015625 43.429688 22.25 43.207031 22.429688 C 43.324219 22.945312 43.640625 22.960938 43.929688 22.925781 C 44.675781 22.84375 45.414062 22.699219 46.164062 22.628906 C 46.945312 22.558594 47.730469 22.488281 48.511719 22.519531 C 49.617188 22.566406 49.992188 23.347656 49.394531 24.28125 C 49.203125 24.582031 48.945312 24.84375 48.710938 25.117188 C 48.21875 25.6875 47.726562 26.257812 47.230469 26.828125 C 45.828125 28.429688 45.28125 30.351562 45.167969 32.429688 C 44.992188 35.671875 45.613281 38.8125 46.417969 41.925781 C 46.820312 43.476562 47.253906 45.019531 47.679688 46.597656 C 47.011719 47.542969 46.097656 47.773438 44.925781 47.597656 C 44.820312 47.34375 44.679688 47.09375 44.601562 46.824219 C 44.101562 45.125 43.476562 43.472656 42.589844 41.929688 C 40.207031 37.777344 36.605469 35.363281 31.925781 34.476562 C 30.179688 34.144531 28.421875 34.050781 26.648438 34.09375 C 26.195312 34.105469 25.742188 34.097656 25.242188 33.9375 C 25.457031 33.839844 25.660156 33.710938 25.882812 33.652344 C 30.679688 32.363281 35.289062 32.765625 39.644531 35.246094 C 40.71875 35.859375 41.730469 36.578125 42.863281 37.308594 C 42.90625 36.6875 42.804688 36.128906 42.753906 35.566406 C 42.539062 33.304688 42.546875 31.058594 43.195312 28.847656 C 43.683594 27.179688 44.507812 25.714844 45.785156 24.523438 C 45.953125 24.367188 46.15625 24.253906 46.34375 24.121094 C 46.304688 24.058594 46.269531 23.996094 46.230469 23.933594 C 46.03125 23.941406 45.828125 23.949219 45.628906 23.960938 C 44.746094 24.003906 43.867188 24.082031 42.984375 24.085938 C 42.367188 24.09375 42.367188 24.050781 41.734375 23.59375 C 41.472656 23.003906 41.613281 22.425781 41.933594 21.917969 C 42.457031 21.089844 43.035156 20.296875 43.601562 19.496094 C 43.800781 19.210938 44.027344 18.949219 44.359375 18.527344 C 41.496094 18.214844 38.820312 17.839844 36.222656 17.058594 C 33.652344 16.285156 31.171875 15.28125 28.679688 13.890625 C 28.714844 14.265625 28.722656 14.46875 28.753906 14.671875 C 28.957031 16.128906 29.292969 17.578125 29.347656 19.039062 C 29.492188 23.058594 28.242188 26.632812 25.664062 29.742188 C 23.820312 31.96875 21.558594 33.675781 19.089844 35.136719 C 15.511719 37.246094 11.664062 38.707031 7.699219 39.890625 C 7.253906 40.019531 6.816406 40.09375 6.320312 39.9375 C 6.5625 39.429688 7.039062 39.363281 7.449219 39.191406 C 9.765625 38.199219 12.125 37.300781 14.382812 36.191406 C 17.246094 34.78125 19.851562 32.96875 22.050781 30.617188 C 25.71875 26.699219 26.992188 22.089844 26.03125 16.839844 C 25.617188 14.574219 24.847656 12.417969 23.882812 10.332031 C 23.773438 10.097656 23.667969 9.855469 23.582031 9.609375 C 23.546875 9.523438 23.574219 9.417969 23.574219 9.339844 C 23.71875 8.714844 24.363281 8.699219 24.722656 8.347656 C 25.183594 8.347656 25.640625 8.347656 26.101562 8.347656 "/>
</g>
</svg>
