<?xml version="1.0" encoding="UTF-8"?>
<svg xmlns="http://www.w3.org/2000/svg" xmlns:xlink="http://www.w3.org/1999/xlink" width="56pt" height="56pt" viewBox="0 0 56 56" version="1.1">
<g id="surface1">
<rect x="0" y="0" width="56" height="56" style="fill:rgb(6.266785%,5.734253%,5.047607%);fill-opacity:1;stroke:none;"/>
<path style=" stroke:none;fill-rule:nonzero;fill:rgb(100%,100%,100%);fill-opacity:1;" d="M 4.273438 27.238281 C 4.273438 27.238281 9.742188 20.054688 20.109375 9.433594 C 23.019531 6.425781 28.152344 2.316406 33.691406 2.316406 C 39.703125 2.316406 43.441406 6.699219 43.441406 10.765625 C 43.441406 14.804688 40.851562 18.96875 35.277344 18.96875 C 32.371094 18.96875 29.886719 16.890625 29.886719 14.011719 C 29.886719 12.59375 30.988281 10.503906 33.597656 10.503906 C 36.105469 10.503906 36.71875 13.257812 36.515625 14.261719 C 36.515625 14.261719 38.414062 13.582031 38.414062 11.226562 C 38.414062 8.859375 36.355469 7.109375 33.691406 7.109375 C 29.632812 7.109375 25.648438 10.878906 24.125 12.375 C 18.070312 18.378906 15.234375 22.382812 15.234375 22.382812 L 52.515625 22.382812 L 50.433594 27.238281 L 4.273438 27.238281 "/>
<path style=" stroke:none;fill-rule:nonzero;fill:rgb(100%,100%,100%);fill-opacity:1;" d="M 10.796875 34.667969 L 47.265625 34.667969 L 49.34375 29.804688 L 3.484375 29.804688 "/>
<path style=" stroke:none;fill-rule:nonzero;fill:rgb(100%,100%,100%);fill-opacity:1;" d="M 9.109375 44.125 C 11.832031 50.078125 16.339844 53.6875 21.847656 53.6875 C 27.03125 53.6875 30.554688 49.53125 30.554688 45.574219 C 30.554688 41.089844 27.285156 38.140625 23.429688 38.140625 C 19.304688 38.140625 18.449219 41.40625 18.449219 42.226562 C 18.449219 44.125 19.945312 45.867188 21.847656 45.867188 C 24.859375 45.867188 25.085938 43.351562 25.085938 43.351562 C 25.085938 43.351562 26.007812 43.960938 26.007812 45.574219 C 26.007812 47.113281 24.761719 49.09375 21.847656 49.09375 C 19.53125 49.09375 16.117188 47.804688 13.765625 42.589844 C 11 36.472656 10.796875 34.667969 10.796875 34.667969 "/>
</g>
</svg>
