<?xml version="1.0" encoding="UTF-8"?>
<svg xmlns="http://www.w3.org/2000/svg" xmlns:xlink="http://www.w3.org/1999/xlink" width="56pt" height="56pt" viewBox="0 0 56 56" version="1.1">
<g id="surface1">
<rect x="0" y="0" width="56" height="56" style="fill:rgb(95.66803%,95.779419%,96.777344%);fill-opacity:1;stroke:none;"/>
<path style=" stroke:none;fill-rule:nonzero;fill:rgb(31.8573%,67.721558%,89.625549%);fill-opacity:1;" d="M 0 38.226562 C 0.046875 38.203125 0.101562 38.191406 0.140625 38.160156 C 0.496094 37.890625 0.84375 37.621094 1.195312 37.347656 C 1.652344 36.996094 2.109375 36.640625 2.566406 36.289062 C 2.960938 35.984375 3.359375 35.6875 3.753906 35.386719 C 4.140625 35.085938 4.527344 34.785156 4.914062 34.488281 C 5.148438 34.304688 5.386719 34.125 5.625 33.945312 C 6.148438 33.542969 6.675781 33.144531 7.199219 32.746094 C 7.800781 32.285156 8.40625 31.828125 9.011719 31.363281 C 9.847656 30.714844 10.679688 30.0625 11.519531 29.417969 C 12.246094 28.863281 12.976562 28.316406 13.699219 27.761719 C 14.367188 27.25 15.03125 26.730469 15.699219 26.21875 C 16.355469 25.710938 17.023438 25.214844 17.683594 24.707031 C 18.214844 24.300781 18.738281 23.882812 19.265625 23.472656 C 19.820312 23.046875 20.375 22.628906 20.925781 22.203125 C 21.394531 21.847656 21.855469 21.488281 22.324219 21.132812 C 22.820312 20.753906 23.320312 20.378906 23.8125 20 C 24.414062 19.539062 25.015625 19.070312 25.613281 18.601562 C 26.007812 18.300781 26.402344 17.996094 26.796875 17.695312 C 27.386719 17.246094 27.980469 16.796875 28.570312 16.351562 C 29.179688 15.886719 29.789062 15.417969 30.398438 14.953125 C 30.90625 14.558594 31.410156 14.160156 31.921875 13.769531 C 32.59375 13.25 33.273438 12.738281 33.949219 12.222656 C 34.574219 11.746094 35.195312 11.269531 35.820312 10.789062 C 36.601562 10.191406 37.382812 9.589844 38.164062 8.988281 C 38.953125 8.382812 39.742188 7.777344 40.53125 7.171875 C 41.140625 6.707031 41.753906 6.242188 42.363281 5.773438 C 43.027344 5.261719 43.691406 4.742188 44.359375 4.230469 C 44.875 3.832031 45.394531 3.441406 45.910156 3.046875 C 46.511719 2.582031 47.109375 2.109375 47.710938 1.648438 C 48.269531 1.21875 48.839844 0.800781 49.398438 0.371094 C 49.546875 0.257812 49.679688 0.125 49.820312 0 C 51.878906 0 53.941406 0 56 0 C 56 5.304688 56 10.609375 56 15.914062 C 55.941406 15.933594 55.878906 15.949219 55.824219 15.976562 C 55.027344 16.417969 54.230469 16.863281 53.4375 17.308594 C 53.050781 17.523438 52.667969 17.742188 52.28125 17.960938 C 51.769531 18.242188 51.257812 18.527344 50.742188 18.808594 C 50.21875 19.09375 49.695312 19.375 49.175781 19.660156 C 48.417969 20.082031 47.664062 20.507812 46.90625 20.929688 C 46.492188 21.160156 46.066406 21.382812 45.648438 21.613281 C 44.828125 22.066406 44.007812 22.519531 43.1875 22.976562 C 42.53125 23.339844 41.882812 23.707031 41.226562 24.070312 C 40.730469 24.34375 40.234375 24.617188 39.734375 24.894531 C 39.082031 25.257812 38.425781 25.621094 37.773438 25.980469 C 37.363281 26.210938 36.949219 26.433594 36.539062 26.660156 C 35.800781 27.074219 35.058594 27.492188 34.320312 27.902344 C 33.71875 28.234375 33.113281 28.558594 32.515625 28.890625 C 31.890625 29.234375 31.269531 29.585938 30.648438 29.929688 C 30.175781 30.195312 29.707031 30.460938 29.234375 30.722656 C 28.894531 30.910156 28.554688 31.097656 28.214844 31.285156 C 27.757812 31.535156 27.296875 31.785156 26.84375 32.039062 C 26.414062 32.273438 25.992188 32.515625 25.566406 32.75 C 25.132812 32.988281 24.699219 33.222656 24.265625 33.464844 C 23.871094 33.683594 23.476562 33.90625 23.082031 34.125 C 22.671875 34.351562 22.257812 34.570312 21.847656 34.796875 C 21.035156 35.246094 20.222656 35.699219 19.410156 36.152344 C 19.050781 36.355469 18.691406 36.5625 18.328125 36.765625 C 17.816406 37.050781 17.308594 37.339844 16.792969 37.621094 C 16.273438 37.90625 15.746094 38.179688 15.226562 38.46875 C 14.507812 38.863281 13.792969 39.273438 13.078125 39.667969 C 12.621094 39.921875 12.15625 40.167969 11.699219 40.421875 C 10.742188 40.949219 9.789062 41.480469 8.835938 42.007812 C 8.433594 42.230469 8.03125 42.453125 7.628906 42.675781 C 6.878906 43.09375 6.132812 43.515625 5.382812 43.929688 C 4.949219 44.167969 4.511719 44.402344 4.078125 44.640625 C 3.28125 45.085938 2.484375 45.53125 1.691406 45.972656 C 1.34375 46.167969 1.003906 46.375 0.65625 46.558594 C 0.441406 46.667969 0.246094 46.824219 0 46.867188 C 0 43.988281 0 41.105469 0 38.226562 "/>
<path style=" stroke:none;fill-rule:nonzero;fill:rgb(24.237061%,73.867798%,59.060669%);fill-opacity:1;" d="M 56 19.414062 C 56 25.210938 56 31.007812 56 36.804688 C 55.804688 36.867188 55.605469 36.921875 55.410156 36.992188 C 54.558594 37.304688 53.710938 37.625 52.855469 37.933594 C 52.199219 38.175781 51.53125 38.394531 50.875 38.632812 C 49.96875 38.960938 49.070312 39.296875 48.167969 39.628906 C 47.484375 39.878906 46.800781 40.128906 46.113281 40.375 C 45.644531 40.546875 45.164062 40.703125 44.695312 40.875 C 43.730469 41.226562 42.773438 41.589844 41.808594 41.941406 C 41.167969 42.175781 40.523438 42.394531 39.882812 42.628906 C 39.230469 42.863281 38.585938 43.113281 37.933594 43.347656 C 36.785156 43.765625 35.632812 44.167969 34.480469 44.585938 C 33.417969 44.972656 32.359375 45.375 31.296875 45.761719 C 30.644531 46 29.988281 46.210938 29.339844 46.449219 C 28.113281 46.894531 26.890625 47.347656 25.667969 47.792969 C 25.035156 48.023438 24.398438 48.238281 23.765625 48.46875 C 23.15625 48.691406 22.554688 48.929688 21.949219 49.152344 C 21.148438 49.445312 20.339844 49.71875 19.539062 50.007812 C 18.472656 50.394531 17.414062 50.792969 16.347656 51.179688 C 15.554688 51.46875 14.757812 51.742188 13.960938 52.03125 C 13.058594 52.359375 12.15625 52.695312 11.253906 53.023438 C 10.332031 53.363281 9.414062 53.695312 8.492188 54.027344 C 7.757812 54.292969 7.023438 54.558594 6.285156 54.824219 C 5.382812 55.152344 4.476562 55.472656 3.574219 55.804688 C 3.433594 55.855469 3.304688 55.933594 3.171875 56 C 2.113281 56 1.058594 56 0 56 C 0 54.140625 0 52.28125 0 50.421875 C 0.0664062 50.398438 0.136719 50.378906 0.199219 50.347656 C 0.8125 50.007812 1.425781 49.664062 2.042969 49.324219 C 2.496094 49.070312 2.957031 48.816406 3.414062 48.5625 C 3.972656 48.253906 4.53125 47.941406 5.09375 47.632812 C 5.664062 47.316406 6.234375 47.007812 6.800781 46.691406 C 7.457031 46.332031 8.113281 45.964844 8.769531 45.601562 C 9.171875 45.378906 9.578125 45.160156 9.980469 44.9375 C 10.671875 44.546875 11.363281 44.152344 12.054688 43.765625 C 12.796875 43.355469 13.542969 42.949219 14.285156 42.542969 C 14.980469 42.160156 15.675781 41.773438 16.371094 41.390625 C 16.785156 41.164062 17.199219 40.941406 17.605469 40.710938 C 18.300781 40.324219 18.988281 39.929688 19.683594 39.542969 C 20.164062 39.277344 20.65625 39.023438 21.136719 38.757812 C 21.894531 38.335938 22.648438 37.90625 23.40625 37.484375 C 23.761719 37.289062 24.117188 37.097656 24.472656 36.902344 C 25.121094 36.542969 25.765625 36.179688 26.414062 35.820312 C 26.832031 35.589844 27.253906 35.363281 27.671875 35.132812 C 28.4375 34.707031 29.199219 34.277344 29.964844 33.851562 C 30.382812 33.621094 30.804688 33.394531 31.222656 33.160156 C 31.917969 32.777344 32.605469 32.382812 33.300781 31.996094 C 33.820312 31.710938 34.347656 31.433594 34.867188 31.148438 C 35.328125 30.898438 35.785156 30.636719 36.242188 30.382812 C 36.769531 30.089844 37.300781 29.800781 37.828125 29.507812 C 38.417969 29.179688 39.007812 28.847656 39.597656 28.519531 C 40.308594 28.125 41.019531 27.730469 41.730469 27.339844 C 42.230469 27.0625 42.726562 26.789062 43.222656 26.511719 C 43.878906 26.148438 44.535156 25.789062 45.191406 25.425781 C 45.59375 25.203125 45.996094 24.984375 46.398438 24.757812 C 47.125 24.355469 47.84375 23.945312 48.570312 23.539062 C 49.195312 23.195312 49.824219 22.859375 50.449219 22.515625 C 51.097656 22.15625 51.742188 21.796875 52.390625 21.4375 C 52.816406 21.199219 53.238281 20.96875 53.664062 20.730469 C 54.09375 20.496094 54.519531 20.257812 54.945312 20.019531 C 55.296875 19.820312 55.648438 19.617188 56 19.414062 "/>
<path style=" stroke:none;fill-rule:nonzero;fill:rgb(18.078613%,19.831848%,44.313049%);fill-opacity:1;" d="M 56 40.195312 C 56 45.464844 56 50.730469 56 56 C 41.488281 56 26.980469 56 12.46875 56 C 12.527344 55.964844 12.578125 55.917969 12.640625 55.894531 C 13.191406 55.695312 13.738281 55.5 14.289062 55.304688 C 15.101562 55.007812 15.914062 54.710938 16.726562 54.414062 C 17.167969 54.253906 17.609375 54.101562 18.046875 53.941406 C 18.476562 53.785156 18.90625 53.625 19.339844 53.464844 C 19.855469 53.277344 20.371094 53.09375 20.890625 52.90625 C 21.835938 52.5625 22.78125 52.214844 23.730469 51.871094 C 24.246094 51.683594 24.761719 51.5 25.277344 51.3125 C 26.09375 51.019531 26.902344 50.71875 27.71875 50.421875 C 28.351562 50.195312 28.988281 49.972656 29.625 49.742188 C 30.453125 49.441406 31.28125 49.132812 32.109375 48.832031 C 32.742188 48.601562 33.378906 48.375 34.015625 48.144531 C 34.613281 47.925781 35.207031 47.695312 35.808594 47.476562 C 37.019531 47.039062 38.230469 46.605469 39.441406 46.167969 C 40.332031 45.847656 41.21875 45.519531 42.109375 45.199219 C 42.871094 44.921875 43.632812 44.652344 44.398438 44.378906 C 44.949219 44.175781 45.496094 43.976562 46.046875 43.773438 C 46.75 43.515625 47.449219 43.253906 48.152344 43 C 48.753906 42.78125 49.355469 42.578125 49.957031 42.359375 C 50.609375 42.125 51.257812 41.875 51.90625 41.640625 C 53.210938 41.167969 54.515625 40.699219 55.820312 40.230469 C 55.875 40.210938 55.941406 40.207031 56 40.195312 "/>
</g>
</svg>
