<?xml version="1.0" encoding="UTF-8"?>
<svg xmlns="http://www.w3.org/2000/svg" xmlns:xlink="http://www.w3.org/1999/xlink" width="56pt" height="56pt" viewBox="0 0 56 56" version="1.1">
<g id="surface1">
<rect x="0" y="0" width="56" height="56" style="fill:rgb(92.1875%,9.637451%,19.509888%);fill-opacity:1;stroke:none;"/>
<path style=" stroke:none;fill-rule:nonzero;fill:rgb(100%,100%,100%);fill-opacity:1;" d="M 2.320312 34.699219 L 6.027344 34.699219 L 6.902344 30.832031 L 9.753906 30.832031 C 13.347656 30.832031 15.496094 28.097656 15.496094 25.398438 C 15.496094 22.640625 13.578125 21.300781 10.703125 21.300781 L 5.359375 21.300781 Z M 7.605469 27.769531 L 8.367188 24.441406 L 10.097656 24.441406 C 10.988281 24.441406 11.714844 24.707031 11.714844 25.855469 C 11.714844 26.851562 10.988281 27.773438 9.488281 27.773438 Z M 14.546875 34.699219 L 23.046875 34.699219 L 23.804688 31.445312 L 18.996094 31.445312 L 21.296875 21.300781 L 17.589844 21.300781 Z M 22.628906 26.585938 C 24.261719 27.332031 25.726562 27.847656 27.34375 28.191406 L 30.710938 21.300781 L 36.015625 21.300781 L 37.25 28.132812 C 38.503906 27.851562 39.714844 27.402344 40.84375 26.792969 L 37.554688 21.300781 L 40.121094 21.300781 C 40.273438 21.292969 40.421875 21.339844 40.539062 21.4375 L 44.402344 24.535156 C 45.601562 23.632812 46.738281 22.648438 47.804688 21.589844 C 48.03125 21.359375 48.183594 21.300781 48.507812 21.300781 L 53.679688 21.300781 C 48.546875 26.71875 44.078125 29.933594 38.792969 31.253906 L 37.859375 31.484375 L 38.449219 34.699219 L 34.570312 34.699219 L 34.191406 31.921875 C 32.675781 32.007812 31.152344 31.949219 29.648438 31.753906 L 28.316406 34.699219 L 24.152344 34.699219 L 26.128906 30.660156 L 25.859375 30.511719 C 24.335938 29.648438 23.183594 28.246094 22.628906 26.585938 Z M 31.03125 28.6875 C 31.933594 28.746094 32.835938 28.726562 33.734375 28.628906 L 33.105469 24.070312 Z M 40.75 34.699219 L 44.496094 34.699219 L 45.695312 29.4375 C 44.386719 30.3125 42.96875 31.007812 41.472656 31.503906 L 40.75 34.699219 "/>
</g>
</svg>
