<?xml version="1.0" encoding="UTF-8"?>
<svg xmlns="http://www.w3.org/2000/svg" xmlns:xlink="http://www.w3.org/1999/xlink" width="56pt" height="56pt" viewBox="0 0 56 56" version="1.1">
<g id="surface1">
<rect x="0" y="0" width="56" height="56" style="fill:rgb(95.66803%,95.779419%,96.777344%);fill-opacity:1;stroke:none;"/>
<path style=" stroke:none;fill-rule:nonzero;fill:rgb(23.112488%,23.268127%,59.844971%);fill-opacity:1;" d="M 11.886719 46.75 C 11.855469 46.523438 11.816406 46.292969 11.796875 46.066406 C 11.667969 44.738281 11.539062 43.40625 11.414062 42.078125 C 11.332031 41.199219 11.257812 40.316406 11.171875 39.433594 C 11.074219 38.371094 10.964844 37.308594 10.863281 36.246094 C 10.78125 35.363281 10.703125 34.484375 10.621094 33.601562 C 10.539062 32.730469 10.449219 31.859375 10.367188 30.988281 C 10.285156 30.117188 10.207031 29.246094 10.125 28.375 C 10.042969 27.496094 9.953125 26.613281 9.867188 25.734375 C 9.789062 24.863281 9.710938 23.992188 9.628906 23.121094 C 9.542969 22.238281 9.457031 21.359375 9.375 20.480469 C 9.292969 19.617188 9.210938 18.753906 9.132812 17.894531 C 9.046875 17.003906 8.960938 16.113281 8.875 15.222656 C 8.8125 14.554688 8.753906 13.886719 8.6875 13.214844 C 8.605469 12.328125 8.519531 11.4375 8.433594 10.546875 C 8.394531 10.128906 8.359375 9.707031 8.320312 9.261719 C 8.402344 9.257812 8.472656 9.246094 8.542969 9.253906 C 11.476562 9.5 14.371094 9.96875 17.175781 10.90625 C 19.347656 11.636719 21.390625 12.621094 23.214844 14.023438 C 24.402344 14.929688 25.445312 15.980469 26.320312 17.191406 C 32.109375 25.1875 37.898438 33.183594 43.6875 41.179688 C 44.964844 42.941406 46.238281 44.703125 47.511719 46.46875 C 47.578125 46.554688 47.625 46.65625 47.679688 46.75 C 35.75 46.75 23.816406 46.75 11.886719 46.75 "/>
<path style=" stroke:none;fill-rule:nonzero;fill:rgb(23.112488%,23.268127%,59.844971%);fill-opacity:1;" d="M 30.550781 32.386719 C 30.667969 32.414062 30.765625 32.429688 30.863281 32.457031 C 31.105469 32.511719 31.347656 32.578125 31.589844 32.628906 C 31.730469 32.660156 31.832031 32.601562 31.882812 32.488281 C 31.9375 32.359375 31.875 32.273438 31.78125 32.203125 C 31.730469 32.164062 31.671875 32.132812 31.617188 32.101562 C 31.304688 31.921875 30.996094 31.730469 30.675781 31.570312 C 30.492188 31.476562 30.414062 31.34375 30.378906 31.148438 C 30.210938 30.328125 29.890625 29.5625 29.417969 28.871094 C 28.066406 26.894531 26.15625 25.863281 23.800781 25.609375 C 23.636719 25.59375 23.511719 25.546875 23.390625 25.429688 C 23.007812 25.050781 22.582031 24.730469 22.078125 24.527344 C 21.792969 24.414062 21.660156 24.488281 21.617188 24.792969 C 21.589844 24.984375 21.566406 25.175781 21.554688 25.371094 C 21.523438 25.820312 21.542969 25.726562 21.183594 25.820312 C 20.386719 26.027344 19.632812 26.34375 18.933594 26.789062 C 18.179688 27.273438 17.542969 27.875 17.003906 28.589844 C 16.941406 28.667969 16.871094 28.765625 16.785156 28.789062 C 16.382812 28.914062 15.972656 29.015625 15.566406 29.121094 C 15.203125 29.21875 14.835938 29.308594 14.476562 29.414062 C 14.371094 29.445312 14.269531 29.5 14.183594 29.566406 C 14.007812 29.695312 14.023438 29.878906 14.207031 29.992188 C 14.238281 30.011719 14.269531 30.027344 14.304688 30.039062 C 14.691406 30.214844 15.078125 30.382812 15.464844 30.558594 C 15.617188 30.625 15.761719 30.699219 15.929688 30.78125 C 15.492188 32.550781 15.695312 34.230469 16.609375 35.804688 C 17.523438 37.375 18.886719 38.410156 20.605469 39.027344 C 20.554688 39.121094 20.515625 39.203125 20.472656 39.28125 C 19.984375 40.128906 19.460938 40.953125 18.871094 41.734375 C 18.488281 42.242188 18.082031 42.730469 17.6875 43.230469 C 17.519531 43.441406 17.539062 43.585938 17.769531 43.722656 C 17.964844 43.839844 18.175781 43.863281 18.382812 43.796875 C 18.601562 43.726562 18.816406 43.636719 19.011719 43.519531 C 19.449219 43.257812 19.804688 42.890625 20.144531 42.511719 C 20.796875 41.78125 21.355469 40.980469 21.886719 40.160156 C 22.050781 39.90625 22.214844 39.652344 22.347656 39.441406 C 22.976562 39.410156 23.558594 39.421875 24.132812 39.351562 C 25.925781 39.128906 27.464844 38.371094 28.703125 37.046875 C 29.769531 35.90625 30.386719 34.554688 30.5 32.984375 C 30.515625 32.792969 30.53125 32.601562 30.550781 32.386719 "/>
<path style=" stroke:none;fill-rule:nonzero;fill:rgb(100%,100%,100%);fill-opacity:1;" d="M 21.914062 24.738281 C 21.890625 24.828125 21.863281 24.886719 21.859375 24.949219 C 21.828125 25.359375 21.785156 25.773438 21.777344 26.1875 C 21.761719 27.03125 21.851562 27.863281 22.140625 28.664062 C 22.195312 28.816406 22.277344 28.933594 22.417969 29.027344 C 22.910156 29.355469 23.332031 29.769531 23.699219 30.234375 C 23.753906 30.304688 23.8125 30.367188 23.886719 30.453125 C 24.167969 29.699219 24.476562 29.003906 25.164062 28.566406 C 25.148438 28.507812 25.140625 28.460938 25.121094 28.421875 C 24.703125 27.546875 24.210938 26.714844 23.566406 25.980469 C 23.207031 25.570312 22.804688 25.203125 22.324219 24.9375 C 22.199219 24.867188 22.0625 24.808594 21.914062 24.738281 Z M 21.292969 39.507812 L 21.289062 39.5 C 21.253906 39.585938 21.234375 39.675781 21.183594 39.746094 C 20.933594 40.136719 20.6875 40.523438 20.417969 40.898438 C 20.03125 41.449219 19.601562 41.96875 19.089844 42.410156 C 18.882812 42.589844 18.660156 42.765625 18.417969 42.890625 C 18.164062 43.023438 18.027344 43.234375 17.855469 43.460938 C 17.925781 43.492188 17.972656 43.523438 18.023438 43.53125 C 18.230469 43.578125 18.421875 43.527344 18.609375 43.441406 C 18.976562 43.269531 19.277344 43.011719 19.5625 42.734375 C 20.167969 42.148438 20.675781 41.480469 21.152344 40.789062 C 22.066406 39.460938 22.894531 38.078125 23.609375 36.628906 C 23.675781 36.496094 23.753906 36.417969 23.90625 36.375 C 24.082031 36.328125 24.257812 36.242188 24.394531 36.128906 C 24.710938 35.859375 25.035156 35.59375 25.300781 35.28125 C 26.214844 34.191406 26.570312 32.957031 26.183594 31.523438 C 26.25 31.464844 26.34375 31.40625 26.417969 31.328125 C 26.546875 31.183594 26.683594 31.179688 26.867188 31.222656 C 28.011719 31.507812 29.15625 31.78125 30.300781 32.054688 C 30.648438 32.136719 30.992188 32.21875 31.335938 32.296875 C 31.273438 32.210938 31.199219 32.160156 31.121094 32.117188 C 29.859375 31.394531 28.597656 30.664062 27.332031 29.949219 C 27.1875 29.863281 27.09375 29.765625 27.039062 29.605469 C 26.945312 29.324219 26.789062 29.074219 26.570312 28.863281 C 26.320312 28.625 26.023438 28.542969 25.679688 28.589844 C 25.199219 28.65625 24.863281 28.949219 24.582031 29.320312 C 24.332031 29.652344 24.167969 30.03125 24.019531 30.421875 C 23.992188 30.492188 23.957031 30.5625 23.925781 30.632812 C 23.886719 30.613281 23.863281 30.609375 23.855469 30.59375 C 23.800781 30.53125 23.75 30.464844 23.699219 30.402344 C 23.25 29.832031 22.726562 29.34375 22.09375 28.980469 C 21.28125 28.511719 20.414062 28.328125 19.488281 28.5 C 18.800781 28.628906 18.117188 28.777344 17.433594 28.921875 C 16.992188 29.015625 16.554688 29.117188 16.078125 29.222656 C 16.140625 29.253906 16.164062 29.269531 16.1875 29.273438 C 16.242188 29.285156 16.296875 29.292969 16.351562 29.300781 C 17.109375 29.417969 17.84375 29.628906 18.539062 29.953125 C 19.234375 30.28125 19.847656 30.710938 20.332031 31.308594 C 20.480469 31.496094 20.617188 31.691406 20.761719 31.882812 C 20.695312 31.878906 20.65625 31.851562 20.625 31.820312 C 20.582031 31.777344 20.535156 31.726562 20.5 31.671875 C 20.023438 30.980469 19.375 30.492188 18.621094 30.128906 C 17.886719 29.773438 17.101562 29.582031 16.300781 29.441406 C 15.699219 29.339844 15.128906 29.414062 14.574219 29.65625 C 14.511719 29.679688 14.457031 29.71875 14.363281 29.773438 C 14.527344 29.847656 14.652344 29.90625 14.777344 29.964844 C 16.214844 30.609375 17.644531 31.265625 19.007812 32.058594 C 19.601562 32.40625 20.175781 32.753906 20.601562 33.34375 C 20.96875 33.851562 21.546875 34.132812 22.179688 34.238281 C 22.359375 34.265625 22.539062 34.28125 22.746094 34.300781 C 22.730469 34.429688 22.710938 34.542969 22.703125 34.660156 C 22.691406 34.789062 22.679688 34.917969 22.683594 35.046875 C 22.691406 35.285156 22.628906 35.5 22.539062 35.714844 C 21.527344 38.113281 20.257812 40.359375 18.675781 42.429688 C 18.632812 42.488281 18.59375 42.550781 18.554688 42.613281 C 18.574219 42.628906 18.59375 42.640625 18.609375 42.65625 C 18.832031 42.464844 19.0625 42.28125 19.273438 42.078125 C 19.984375 41.386719 20.554688 40.585938 21.089844 39.753906 C 21.148438 39.664062 21.226562 39.589844 21.292969 39.507812 Z M 30.550781 32.386719 C 30.53125 32.601562 30.515625 32.792969 30.5 32.984375 C 30.386719 34.554688 29.769531 35.90625 28.703125 37.046875 C 27.464844 38.371094 25.925781 39.128906 24.132812 39.351562 C 23.558594 39.421875 22.976562 39.410156 22.347656 39.441406 C 22.214844 39.652344 22.050781 39.90625 21.886719 40.160156 C 21.355469 40.980469 20.796875 41.78125 20.144531 42.511719 C 19.804688 42.890625 19.449219 43.257812 19.011719 43.519531 C 18.816406 43.636719 18.601562 43.726562 18.382812 43.796875 C 18.175781 43.863281 17.964844 43.839844 17.769531 43.722656 C 17.539062 43.585938 17.519531 43.441406 17.6875 43.230469 C 18.082031 42.730469 18.488281 42.242188 18.871094 41.734375 C 19.460938 40.953125 19.984375 40.128906 20.472656 39.28125 C 20.515625 39.203125 20.554688 39.121094 20.605469 39.027344 C 18.886719 38.410156 17.523438 37.375 16.609375 35.804688 C 15.695312 34.230469 15.492188 32.550781 15.929688 30.78125 C 15.761719 30.699219 15.617188 30.625 15.464844 30.558594 C 15.078125 30.382812 14.691406 30.214844 14.304688 30.039062 C 14.269531 30.027344 14.238281 30.011719 14.207031 29.992188 C 14.023438 29.878906 14.007812 29.695312 14.183594 29.566406 C 14.269531 29.5 14.371094 29.445312 14.476562 29.414062 C 14.835938 29.308594 15.203125 29.21875 15.566406 29.121094 C 15.972656 29.015625 16.382812 28.914062 16.785156 28.789062 C 16.871094 28.765625 16.941406 28.667969 17.003906 28.589844 C 17.542969 27.875 18.179688 27.273438 18.933594 26.789062 C 19.632812 26.34375 20.386719 26.027344 21.183594 25.820312 C 21.542969 25.726562 21.523438 25.820312 21.554688 25.371094 C 21.566406 25.175781 21.589844 24.984375 21.617188 24.792969 C 21.660156 24.488281 21.792969 24.414062 22.078125 24.527344 C 22.582031 24.730469 23.007812 25.050781 23.390625 25.429688 C 23.511719 25.546875 23.636719 25.59375 23.800781 25.609375 C 26.15625 25.863281 28.066406 26.894531 29.417969 28.871094 C 29.890625 29.5625 30.210938 30.328125 30.378906 31.148438 C 30.414062 31.34375 30.492188 31.476562 30.675781 31.570312 C 30.996094 31.730469 31.304688 31.921875 31.617188 32.101562 C 31.671875 32.132812 31.730469 32.164062 31.78125 32.203125 C 31.875 32.273438 31.9375 32.359375 31.882812 32.488281 C 31.832031 32.601562 31.730469 32.660156 31.589844 32.628906 C 31.347656 32.578125 31.105469 32.511719 30.863281 32.457031 C 30.765625 32.429688 30.667969 32.414062 30.550781 32.386719 "/>
<path style=" stroke:none;fill-rule:nonzero;fill:rgb(23.112488%,23.268127%,59.844971%);fill-opacity:1;" d="M 20.960938 32.046875 C 20.949219 32.058594 20.941406 32.074219 20.933594 32.089844 C 20.976562 32.117188 21.023438 32.148438 21.066406 32.179688 C 21.074219 32.167969 21.082031 32.15625 21.085938 32.148438 C 21.042969 32.113281 21.003906 32.078125 20.960938 32.046875 Z M 26.460938 29.636719 C 26.347656 29.5625 26.289062 29.496094 26.222656 29.488281 C 26.132812 29.476562 26.058594 29.550781 26.082031 29.644531 C 26.09375 29.695312 26.171875 29.769531 26.21875 29.769531 C 26.28125 29.769531 26.34375 29.707031 26.460938 29.636719 Z M 21.292969 39.507812 C 21.226562 39.589844 21.148438 39.664062 21.089844 39.753906 C 20.554688 40.585938 19.984375 41.386719 19.273438 42.078125 C 19.0625 42.28125 18.832031 42.464844 18.609375 42.65625 C 18.59375 42.640625 18.574219 42.628906 18.554688 42.613281 C 18.59375 42.550781 18.632812 42.488281 18.675781 42.429688 C 20.257812 40.359375 21.527344 38.113281 22.539062 35.714844 C 22.628906 35.5 22.691406 35.285156 22.683594 35.046875 C 22.679688 34.917969 22.691406 34.789062 22.703125 34.660156 C 22.710938 34.542969 22.730469 34.429688 22.746094 34.300781 C 22.539062 34.28125 22.359375 34.265625 22.179688 34.238281 C 21.546875 34.132812 20.96875 33.851562 20.601562 33.34375 C 20.175781 32.753906 19.601562 32.40625 19.007812 32.058594 C 17.644531 31.265625 16.214844 30.609375 14.777344 29.964844 C 14.652344 29.90625 14.527344 29.847656 14.363281 29.773438 C 14.457031 29.71875 14.511719 29.679688 14.574219 29.65625 C 15.128906 29.414062 15.699219 29.339844 16.300781 29.441406 C 17.101562 29.582031 17.886719 29.773438 18.621094 30.128906 C 19.375 30.492188 20.023438 30.980469 20.5 31.671875 C 20.535156 31.726562 20.582031 31.777344 20.625 31.820312 C 20.65625 31.851562 20.695312 31.878906 20.761719 31.882812 C 20.617188 31.691406 20.480469 31.496094 20.332031 31.308594 C 19.847656 30.710938 19.234375 30.28125 18.539062 29.953125 C 17.84375 29.628906 17.109375 29.417969 16.351562 29.300781 C 16.296875 29.292969 16.242188 29.285156 16.1875 29.273438 C 16.164062 29.269531 16.140625 29.253906 16.078125 29.222656 C 16.554688 29.117188 16.992188 29.015625 17.433594 28.921875 C 18.117188 28.777344 18.800781 28.628906 19.488281 28.5 C 20.414062 28.328125 21.28125 28.511719 22.09375 28.980469 C 22.726562 29.34375 23.25 29.832031 23.699219 30.402344 C 23.75 30.464844 23.800781 30.53125 23.855469 30.59375 C 23.863281 30.609375 23.886719 30.613281 23.925781 30.632812 C 23.957031 30.5625 23.992188 30.492188 24.019531 30.421875 C 24.167969 30.03125 24.332031 29.652344 24.582031 29.320312 C 24.863281 28.949219 25.199219 28.65625 25.679688 28.589844 C 26.023438 28.542969 26.320312 28.625 26.570312 28.863281 C 26.789062 29.074219 26.945312 29.324219 27.039062 29.605469 C 27.09375 29.765625 27.1875 29.863281 27.332031 29.949219 C 28.597656 30.664062 29.859375 31.394531 31.121094 32.117188 C 31.199219 32.160156 31.273438 32.210938 31.335938 32.296875 C 30.992188 32.21875 30.648438 32.136719 30.300781 32.054688 C 29.15625 31.78125 28.011719 31.507812 26.867188 31.222656 C 26.683594 31.179688 26.546875 31.183594 26.417969 31.328125 C 26.34375 31.40625 26.25 31.464844 26.183594 31.523438 C 26.570312 32.957031 26.214844 34.191406 25.300781 35.28125 C 25.035156 35.59375 24.710938 35.859375 24.394531 36.128906 C 24.257812 36.242188 24.082031 36.328125 23.90625 36.375 C 23.753906 36.417969 23.675781 36.496094 23.609375 36.628906 C 22.894531 38.078125 22.066406 39.460938 21.152344 40.789062 C 20.675781 41.480469 20.167969 42.148438 19.5625 42.734375 C 19.277344 43.011719 18.976562 43.269531 18.609375 43.441406 C 18.421875 43.527344 18.230469 43.578125 18.023438 43.53125 C 17.972656 43.523438 17.925781 43.492188 17.855469 43.460938 C 18.027344 43.234375 18.164062 43.023438 18.417969 42.890625 C 18.660156 42.765625 18.882812 42.589844 19.089844 42.410156 C 19.601562 41.96875 20.03125 41.449219 20.417969 40.898438 C 20.6875 40.523438 20.933594 40.136719 21.183594 39.746094 C 21.234375 39.675781 21.253906 39.585938 21.289062 39.5 C 21.398438 39.4375 21.460938 39.34375 21.449219 39.214844 C 21.566406 39.183594 21.570312 39.085938 21.558594 38.980469 C 21.523438 39.0625 21.488281 39.140625 21.453125 39.21875 C 21.402344 39.316406 21.347656 39.410156 21.292969 39.507812 "/>
<path style=" stroke:none;fill-rule:nonzero;fill:rgb(23.112488%,23.268127%,59.844971%);fill-opacity:1;" d="M 22.425781 26.914062 C 22.523438 27.617188 22.753906 28.277344 23.136719 28.878906 C 22.902344 28.222656 22.664062 27.570312 22.425781 26.914062 Z M 21.914062 24.738281 C 22.0625 24.808594 22.199219 24.867188 22.324219 24.9375 C 22.804688 25.203125 23.207031 25.570312 23.566406 25.980469 C 24.210938 26.714844 24.703125 27.546875 25.121094 28.421875 C 25.140625 28.460938 25.148438 28.507812 25.164062 28.566406 C 24.476562 29.003906 24.167969 29.699219 23.886719 30.453125 C 23.8125 30.367188 23.753906 30.304688 23.699219 30.234375 C 23.332031 29.769531 22.910156 29.355469 22.417969 29.027344 C 22.277344 28.933594 22.195312 28.816406 22.140625 28.664062 C 21.851562 27.863281 21.761719 27.03125 21.777344 26.1875 C 21.785156 25.773438 21.828125 25.359375 21.859375 24.949219 C 21.863281 24.886719 21.890625 24.828125 21.914062 24.738281 "/>
<path style=" stroke:none;fill-rule:nonzero;fill:rgb(100%,100%,100%);fill-opacity:1;" d="M 26.460938 29.636719 C 26.34375 29.707031 26.28125 29.769531 26.21875 29.769531 C 26.171875 29.769531 26.09375 29.695312 26.082031 29.644531 C 26.058594 29.550781 26.132812 29.476562 26.222656 29.488281 C 26.289062 29.496094 26.347656 29.5625 26.460938 29.636719 "/>
<path style=" stroke:none;fill-rule:nonzero;fill:rgb(100%,100%,100%);fill-opacity:1;" d="M 21.453125 39.21875 C 21.488281 39.140625 21.523438 39.0625 21.558594 38.980469 C 21.570312 39.085938 21.566406 39.183594 21.449219 39.214844 L 21.453125 39.21875 "/>
<path style=" stroke:none;fill-rule:nonzero;fill:rgb(100%,100%,100%);fill-opacity:1;" d="M 21.449219 39.214844 C 21.460938 39.34375 21.398438 39.4375 21.289062 39.5 L 21.292969 39.507812 C 21.347656 39.410156 21.402344 39.316406 21.453125 39.21875 L 21.449219 39.214844 "/>
<path style=" stroke:none;fill-rule:nonzero;fill:rgb(100%,100%,100%);fill-opacity:1;" d="M 20.960938 32.046875 C 21.003906 32.078125 21.042969 32.113281 21.085938 32.148438 C 21.082031 32.15625 21.074219 32.167969 21.066406 32.179688 C 21.023438 32.148438 20.976562 32.117188 20.933594 32.089844 C 20.941406 32.074219 20.949219 32.058594 20.960938 32.046875 "/>
<path style=" stroke:none;fill-rule:nonzero;fill:rgb(100%,100%,100%);fill-opacity:1;" d="M 22.425781 26.914062 C 22.664062 27.570312 22.902344 28.222656 23.136719 28.878906 C 22.753906 28.277344 22.523438 27.617188 22.425781 26.914062 "/>
</g>
</svg>
