<?xml version="1.0" encoding="UTF-8"?>
<svg xmlns="http://www.w3.org/2000/svg" xmlns:xlink="http://www.w3.org/1999/xlink" width="56pt" height="56pt" viewBox="0 0 56 56" version="1.1">
<g id="surface1">
<rect x="0" y="0" width="56" height="56" style="fill:rgb(92.591858%,10.089111%,18.183899%);fill-opacity:1;stroke:none;"/>
<path style=" stroke:none;fill-rule:nonzero;fill:rgb(100%,100%,100%);fill-opacity:1;" d="M 6.105469 20.605469 L 17.269531 20.605469 C 18.363281 20.605469 19.1875 20.949219 19.511719 22.503906 C 19.875 24.230469 19.726562 25.429688 17.78125 25.570312 L 14.273438 25.820312 C 16.855469 42.101562 31.9375 47.410156 40.152344 29.871094 C 41.511719 26.96875 41.957031 26.441406 43.445312 26.808594 C 45.464844 27.3125 45.738281 28.347656 44.777344 31.273438 C 37.675781 52.894531 13.8125 55.058594 9.128906 26.191406 L 6.28125 26.394531 C 3.964844 26.558594 3.871094 24.609375 3.871094 23.523438 C 3.871094 21.375 4.667969 20.605469 6.105469 20.605469 "/>
<path style=" stroke:none;fill-rule:nonzero;fill:rgb(100%,100%,100%);fill-opacity:1;" d="M 46.703125 10.148438 C 48.988281 10.148438 50.839844 12.003906 50.839844 14.289062 C 50.839844 16.574219 48.988281 18.425781 46.703125 18.425781 C 44.414062 18.425781 42.5625 16.574219 42.5625 14.289062 C 42.5625 12.003906 44.414062 10.148438 46.703125 10.148438 "/>
</g>
</svg>
