<?xml version="1.0" encoding="UTF-8"?>
<svg xmlns="http://www.w3.org/2000/svg" xmlns:xlink="http://www.w3.org/1999/xlink" width="56pt" height="56pt" viewBox="0 0 56 56" version="1.1">
<g id="surface1">
<rect x="0" y="0" width="56" height="56" style="fill:rgb(91.641235%,11.369324%,15.115356%);fill-opacity:1;stroke:none;"/>
<path style=" stroke:none;fill-rule:nonzero;fill:rgb(100%,100%,100%);fill-opacity:1;" d="M 7.605469 21.214844 C 8.726562 21.074219 9.78125 21.046875 10.839844 21.171875 C 11.6875 21.277344 12.550781 21.289062 13.398438 21.402344 C 14.511719 21.550781 15.617188 21.742188 16.71875 21.945312 C 17.507812 22.09375 18.296875 22.253906 19.070312 22.472656 C 20.960938 23.011719 22.660156 23.957031 24.320312 24.988281 C 25.511719 25.726562 26.59375 26.613281 27.703125 27.460938 C 29.820312 29.070312 31.925781 30.699219 34.054688 32.289062 C 35.1875 33.132812 36.375 33.902344 37.625 34.570312 C 37.667969 34.59375 37.707031 34.625 37.820312 34.707031 C 37.640625 34.722656 37.554688 34.734375 37.46875 34.734375 C 34.011719 34.734375 30.554688 34.734375 27.097656 34.734375 C 26.628906 34.734375 26.199219 34.589844 25.8125 34.34375 C 25.417969 34.089844 25.035156 33.808594 24.679688 33.503906 C 23.0625 32.101562 21.453125 30.695312 19.851562 29.277344 C 19.21875 28.71875 18.632812 28.117188 17.996094 27.5625 C 15.460938 25.351562 12.71875 23.445312 9.644531 22.042969 C 9.097656 21.792969 8.523438 21.597656 7.964844 21.375 C 7.863281 21.335938 7.761719 21.285156 7.605469 21.214844 "/>
<path style=" stroke:none;fill-rule:nonzero;fill:rgb(100%,100%,100%);fill-opacity:1;" d="M 30.03125 28.105469 C 31.089844 27.261719 32.125 26.570312 33.207031 25.953125 C 35.535156 24.625 37.992188 23.605469 40.601562 22.964844 C 41.511719 22.742188 42.433594 22.574219 43.355469 22.40625 C 44.199219 22.257812 45.042969 22.121094 45.890625 22.023438 C 46.757812 21.917969 47.632812 21.886719 48.5 21.78125 C 49.660156 21.644531 50.820312 21.683594 51.980469 21.707031 C 52.511719 21.71875 53.050781 21.753906 53.609375 21.925781 C 53.386719 22.320312 53.101562 22.554688 52.667969 22.589844 C 50.792969 22.742188 49.007812 23.203125 47.296875 23.996094 C 46.03125 24.589844 44.796875 25.238281 43.632812 26.011719 C 43.074219 26.382812 42.5625 26.828125 42.039062 27.253906 C 40.800781 28.265625 39.578125 29.300781 38.460938 30.449219 C 38.152344 30.769531 37.921875 31.121094 37.769531 31.546875 C 37.542969 32.164062 37.785156 32.828125 38.230469 33.183594 C 38.835938 33.664062 39.503906 33.964844 40.308594 33.957031 C 42.199219 33.9375 44.085938 33.949219 46.011719 33.949219 C 46.285156 33.773438 46.582031 33.585938 46.878906 33.394531 C 47.550781 32.964844 48.335938 33.03125 48.972656 33.519531 C 49.34375 33.800781 49.765625 34.023438 50.175781 34.246094 C 50.300781 34.316406 50.464844 34.328125 50.613281 34.332031 C 50.984375 34.339844 51.355469 34.332031 51.726562 34.332031 C 51.980469 34.335938 52.21875 34.386719 52.375 34.636719 C 52.171875 34.882812 51.894531 34.902344 51.636719 34.90625 C 51.234375 34.914062 50.832031 34.878906 50.429688 34.859375 C 50.34375 34.855469 50.261719 34.851562 50.175781 34.847656 C 48.828125 34.839844 47.476562 34.832031 46.128906 34.8125 C 44.191406 34.785156 42.257812 34.75 40.320312 34.710938 C 39.847656 34.699219 39.402344 34.585938 38.96875 34.378906 C 36.660156 33.277344 34.550781 31.871094 32.566406 30.273438 C 31.84375 29.695312 31.160156 29.070312 30.457031 28.464844 C 30.328125 28.355469 30.199219 28.25 30.03125 28.105469 "/>
<path style=" stroke:none;fill-rule:nonzero;fill:rgb(100%,100%,100%);fill-opacity:1;" d="M 2.390625 34.855469 C 2.621094 34.410156 2.917969 34.164062 3.292969 34.054688 C 3.601562 33.964844 3.894531 33.875 4.175781 33.710938 C 4.617188 33.449219 5.074219 33.46875 5.519531 33.730469 C 5.648438 33.804688 5.773438 33.890625 5.925781 33.980469 C 6.425781 34 6.945312 34.035156 7.464844 34.035156 C 10.367188 34.046875 13.269531 34.046875 16.171875 34.050781 C 16.390625 34.050781 16.609375 34.039062 16.828125 34.042969 C 17.058594 34.042969 17.253906 33.96875 17.421875 33.777344 C 16.914062 33.445312 16.328125 33.664062 15.777344 33.535156 C 15.773438 33.453125 15.765625 33.382812 15.761719 33.285156 C 16.042969 33.285156 16.289062 33.273438 16.539062 33.285156 C 17.875 33.351562 19.195312 33.25 20.496094 32.9375 C 21.105469 32.792969 21.679688 32.558594 22.230469 32.210938 C 22.863281 33.316406 23.945312 33.855469 25.0625 34.53125 C 24.773438 34.53125 24.59375 34.53125 24.417969 34.53125 C 18.359375 34.53125 12.304688 34.53125 6.25 34.535156 C 5.964844 34.535156 5.683594 34.59375 5.398438 34.617188 C 5.03125 34.65625 4.664062 34.6875 4.292969 34.71875 C 3.855469 34.753906 3.421875 34.78125 2.984375 34.8125 C 2.820312 34.828125 2.65625 34.835938 2.390625 34.855469 "/>
</g>
</svg>
