<?xml version="1.0" encoding="UTF-8"?>
<svg xmlns="http://www.w3.org/2000/svg" xmlns:xlink="http://www.w3.org/1999/xlink" width="56pt" height="56pt" viewBox="0 0 56 56" version="1.1">
<g id="surface1">
<rect x="0" y="0" width="56" height="56" style="fill:rgb(35.916138%,25.527954%,63.742065%);fill-opacity:1;stroke:none;"/>
<path style=" stroke:none;fill-rule:nonzero;fill:rgb(100%,100%,100%);fill-opacity:1;" d="M 7.085938 14.84375 C 7.515625 14.757812 7.855469 14.671875 8.199219 14.625 C 9.726562 14.425781 11.246094 14.359375 12.710938 14.949219 C 14.03125 15.480469 14.972656 16.359375 15.445312 17.761719 C 16.6875 21.4375 17.980469 25.097656 19.257812 28.761719 C 19.359375 29.054688 19.453125 29.355469 19.605469 29.621094 C 19.894531 30.132812 20.351562 30.136719 20.660156 29.636719 C 20.792969 29.410156 20.886719 29.164062 20.988281 28.921875 C 22.648438 24.996094 24.339844 21.082031 25.957031 17.140625 C 26.601562 15.570312 27.765625 14.804688 29.355469 14.558594 C 31.039062 14.300781 33.183594 14.445312 34.996094 14.902344 C 34.765625 15.078125 34.558594 15.226562 34.355469 15.382812 C 32.921875 16.460938 31.9375 17.863281 31.390625 19.570312 C 31.027344 20.699219 31.121094 21.859375 31.484375 22.945312 C 32.03125 24.5625 32.710938 26.136719 33.355469 27.71875 C 33.59375 28.292969 33.882812 28.84375 34.195312 29.378906 C 34.308594 29.578125 34.578125 29.855469 34.734375 29.832031 C 34.957031 29.792969 35.222656 29.554688 35.328125 29.332031 C 36.769531 26.273438 38.171875 23.199219 39.609375 20.140625 C 40.035156 19.234375 40.441406 18.304688 41.011719 17.496094 C 42.277344 15.679688 44.101562 14.789062 46.300781 14.699219 C 47.125 14.667969 47.953125 14.726562 48.914062 14.746094 C 48.597656 15.488281 48.359375 16.074219 48.101562 16.644531 C 44.796875 23.960938 41.503906 31.277344 38.164062 38.574219 C 37.820312 39.335938 37.320312 40.089844 36.71875 40.664062 C 35.246094 42.074219 33.203125 41.808594 32.148438 40.058594 C 31.472656 38.945312 30.984375 37.71875 30.445312 36.527344 C 29.566406 34.597656 28.710938 32.660156 27.84375 30.726562 C 27.8125 30.660156 27.792969 30.582031 27.746094 30.535156 C 27.539062 30.332031 27.324219 30.132812 27.113281 29.933594 C 26.933594 30.136719 26.683594 30.308594 26.582031 30.546875 C 25.832031 32.246094 25.109375 33.957031 24.378906 35.664062 C 23.84375 36.910156 23.335938 38.171875 22.769531 39.40625 C 22.070312 40.933594 20.382812 41.769531 18.820312 41.402344 C 17.867188 41.179688 17.207031 40.617188 16.847656 39.703125 C 15.949219 37.421875 15.046875 35.140625 14.148438 32.859375 C 11.925781 27.210938 9.703125 21.558594 7.480469 15.90625 C 7.359375 15.601562 7.25 15.289062 7.085938 14.84375 "/>
</g>
</svg>
