<?xml version="1.0" encoding="UTF-8"?>
<svg xmlns="http://www.w3.org/2000/svg" xmlns:xlink="http://www.w3.org/1999/xlink" width="56pt" height="56pt" viewBox="0 0 56 56" version="1.1">
<g id="surface1">
<rect x="0" y="0" width="56" height="56" style="fill:rgb(10.725403%,17.240906%,31.044006%);fill-opacity:1;stroke:none;"/>
<path style=" stroke:none;fill-rule:nonzero;fill:rgb(100%,100%,100%);fill-opacity:1;" d="M 7.136719 23.71875 C 5.214844 23.71875 4.175781 25.183594 4.175781 27.527344 C 4.175781 29.894531 5.15625 31.628906 7.113281 31.628906 C 8.191406 31.628906 8.886719 31.078125 9.273438 30.546875 C 9.84375 29.773438 9.972656 28.632812 9.972656 27.671875 C 9.972656 26.59375 9.886719 23.71875 7.136719 23.71875 Z M 2.320312 23.164062 C 2.320312 22.902344 2.402344 22.246094 3.257812 22.246094 C 3.339844 22.246094 3.542969 22.246094 3.75 22.347656 C 4.214844 22.574219 4.214844 22.964844 4.214844 23.574219 C 5.03125 22.59375 6.050781 22.148438 7.359375 22.148438 C 9.972656 22.148438 11.90625 24.144531 11.90625 27.632812 C 11.90625 30.160156 10.804688 33.140625 7.585938 33.140625 C 5.886719 33.140625 5.09375 32.46875 4.214844 31.691406 L 4.214844 35.953125 C 4.214844 36.21875 4.136719 36.890625 3.257812 36.890625 C 3.09375 36.890625 2.929688 36.851562 2.789062 36.789062 C 2.382812 36.566406 2.320312 36.257812 2.320312 35.953125 L 2.320312 23.164062 "/>
<path style=" stroke:none;fill-rule:nonzero;fill:rgb(100%,100%,100%);fill-opacity:1;" d="M 20.292969 30.527344 C 21.003906 29.609375 21.046875 28.304688 21.046875 27.671875 C 21.046875 25.695312 20.390625 23.71875 17.90625 23.71875 C 17.351562 23.71875 16.273438 23.796875 15.5 24.878906 C 14.964844 25.65625 14.800781 26.734375 14.800781 27.695312 C 14.800781 28.730469 14.984375 29.855469 15.554688 30.589844 C 15.964844 31.097656 16.761719 31.628906 17.921875 31.628906 C 18.84375 31.628906 19.738281 31.265625 20.292969 30.527344 Z M 21.636719 31.652344 C 20.390625 33.015625 18.863281 33.140625 17.886719 33.140625 C 16.824219 33.140625 15.351562 32.996094 14.191406 31.710938 C 12.929688 30.324219 12.886719 28.445312 12.886719 27.695312 C 12.886719 26.714844 12.984375 25 14.148438 23.675781 C 15.414062 22.269531 17.109375 22.148438 17.984375 22.148438 C 20.984375 22.148438 22.984375 24.066406 22.984375 27.550781 C 22.984375 28.46875 22.882812 30.261719 21.636719 31.652344 "/>
<path style=" stroke:none;fill-rule:nonzero;fill:rgb(100%,100%,100%);fill-opacity:1;" d="M 25.976562 24.164062 C 26.363281 23.003906 27.53125 22.246094 28.734375 22.246094 C 28.957031 22.246094 29.855469 22.246094 29.855469 23.164062 C 29.855469 23.878906 29.285156 24.003906 28.996094 24.042969 C 28.488281 24.121094 27.957031 24.207031 27.40625 24.550781 C 26.0625 25.492188 26.0625 26.917969 26.0625 28.144531 L 26.0625 32.199219 C 26.0625 32.527344 25.996094 33.054688 25.125 33.054688 C 24.285156 33.054688 24.203125 32.484375 24.203125 32.199219 L 24.203125 23.105469 C 24.203125 22.859375 24.285156 22.246094 25.101562 22.246094 C 25.898438 22.246094 25.976562 22.859375 25.976562 23.105469 L 25.976562 24.164062 "/>
<path style=" stroke:none;fill-rule:nonzero;fill:rgb(100%,100%,100%);fill-opacity:1;" d="M 32.523438 23.960938 L 31.441406 23.960938 C 31.21875 23.960938 30.667969 23.878906 30.667969 23.164062 C 30.667969 22.433594 31.21875 22.371094 31.441406 22.371094 L 32.546875 22.371094 L 32.546875 19.984375 C 32.546875 19.71875 32.625 19.109375 33.460938 19.109375 C 34.339844 19.109375 34.398438 19.699219 34.398438 19.984375 L 34.398438 22.371094 L 35.664062 22.371094 C 35.910156 22.371094 36.441406 22.433594 36.441406 23.164062 C 36.441406 23.878906 35.890625 23.960938 35.664062 23.960938 L 34.398438 23.960938 L 34.398438 29.140625 C 34.398438 30.363281 34.417969 30.507812 34.480469 30.75 C 34.625 31.34375 35.011719 31.445312 35.566406 31.488281 C 36.050781 31.507812 36.566406 31.546875 36.566406 32.261719 C 36.566406 32.976562 35.910156 33.054688 35.359375 33.054688 C 32.527344 33.054688 32.527344 31.527344 32.527344 29.9375 L 32.527344 23.960938 "/>
<path style=" stroke:none;fill-rule:nonzero;fill:rgb(100%,100%,100%);fill-opacity:1;" d="M 44.78125 26.632812 C 44.703125 25.285156 43.96875 23.796875 42.03125 23.796875 C 41.601562 23.796875 40.761719 23.835938 40.050781 24.46875 C 39.234375 25.183594 39.050781 26.164062 38.949219 26.632812 Z M 38.929688 28.160156 C 38.96875 29.078125 39.171875 29.894531 39.726562 30.570312 C 40.417969 31.425781 41.257812 31.566406 42.074219 31.566406 C 43.683594 31.566406 44.253906 30.730469 44.621094 30.160156 C 44.945312 29.609375 45.050781 29.40625 45.5 29.40625 C 45.945312 29.40625 46.558594 29.671875 46.558594 30.261719 C 46.558594 30.34375 46.558594 30.40625 46.535156 30.464844 C 46.457031 30.855469 46.105469 31.304688 45.886719 31.546875 C 44.480469 33.140625 42.644531 33.140625 42.074219 33.140625 C 40.742188 33.140625 39.398438 32.875 38.355469 31.710938 C 37.441406 30.671875 37.011719 29.203125 37.011719 27.734375 C 37.011719 25.164062 38.398438 22.164062 42.007812 22.164062 C 42.460938 22.164062 42.910156 22.207031 43.332031 22.308594 C 44.253906 22.53125 45.050781 22.980469 45.683594 23.835938 C 46.351562 24.777344 46.703125 26.101562 46.703125 27.242188 C 46.703125 28.097656 46.050781 28.160156 45.78125 28.160156 L 38.929688 28.160156 "/>
<path style=" stroke:none;fill-rule:nonzero;fill:rgb(100%,100%,100%);fill-opacity:1;" d="M 49.800781 24.164062 C 50.195312 23.003906 51.355469 22.246094 52.558594 22.246094 C 52.78125 22.246094 53.679688 22.246094 53.679688 23.164062 C 53.679688 23.878906 53.109375 24.003906 52.824219 24.042969 C 52.316406 24.121094 51.785156 24.207031 51.230469 24.550781 C 49.886719 25.492188 49.886719 26.917969 49.886719 28.144531 L 49.886719 32.199219 C 49.886719 32.527344 49.824219 33.054688 48.949219 33.054688 C 48.113281 33.054688 48.027344 32.484375 48.027344 32.199219 L 48.027344 23.105469 C 48.027344 22.859375 48.113281 22.246094 48.929688 22.246094 C 49.722656 22.246094 49.800781 22.859375 49.800781 23.105469 L 49.800781 24.164062 "/>
</g>
</svg>
