<?xml version="1.0" encoding="UTF-8"?>
<svg xmlns="http://www.w3.org/2000/svg" xmlns:xlink="http://www.w3.org/1999/xlink" width="56pt" height="56pt" viewBox="0 0 56 56" version="1.1">
<g id="surface1">
<rect x="0" y="0" width="56" height="56" style="fill:rgb(10.362244%,9.680176%,9.335327%);fill-opacity:1;stroke:none;"/>
<path style=" stroke:none;fill-rule:nonzero;fill:rgb(100%,100%,100%);fill-opacity:1;" d="M 39.640625 11.589844 C 42.90625 11.046875 45.421875 11.734375 46.359375 13.695312 C 46.890625 14.777344 46.425781 16.15625 45.316406 17.609375 C 47.632812 17.53125 49.378906 18.246094 50.117188 19.78125 C 50.910156 21.445312 49.339844 23.800781 46.441406 26.15625 C 46.507812 26.804688 46.53125 27.453125 46.53125 28.113281 C 46.53125 39.402344 37.390625 48.542969 26.117188 48.542969 C 14.820312 48.53125 5.675781 39.386719 5.675781 28.101562 C 5.675781 16.816406 14.820312 7.671875 26.105469 7.671875 C 26.542969 7.671875 26.992188 7.6875 27.441406 7.714844 C 29.464844 7.210938 31.117188 7.433594 31.835938 8.492188 C 32.230469 8.601562 32.628906 8.730469 33.011719 8.863281 C 36.148438 8.097656 38.632812 8.574219 39.492188 10.359375 C 39.679688 10.742188 39.707031 11.152344 39.640625 11.589844 Z M 26.804688 21.183594 C 22.464844 22.929688 18.3125 23.777344 15.257812 23.800781 C 15.203125 23.800781 15.148438 23.75 15.136719 23.695312 L 15.125 23.5625 C 15.109375 23.511719 15.164062 23.457031 15.203125 23.445312 C 17.175781 23.019531 19.265625 22.398438 21.433594 21.539062 C 29.453125 18.335938 34.941406 13.601562 33.988281 11.019531 C 33.277344 10.691406 32.5625 10.453125 31.820312 10.265625 C 30.882812 12.117188 27.46875 14.527344 23.234375 16.207031 C 20.679688 17.226562 19.039062 17.542969 16.765625 17.714844 C 16.710938 17.714844 16.65625 17.675781 16.644531 17.609375 L 16.644531 17.492188 C 16.632812 17.453125 16.683594 17.398438 16.722656 17.386719 C 17.625 17.148438 18.179688 16.988281 19.609375 16.417969 C 24.582031 14.421875 28.078125 11.5625 28.207031 9.765625 C 26.210938 9.683594 24.171875 9.949219 22.175781 10.597656 C 13.074219 13.535156 8.097656 23.324219 11.0625 32.425781 C 14.011719 41.542969 23.789062 46.519531 32.90625 43.554688 C 40.144531 41.199219 44.785156 34.53125 44.894531 27.320312 C 42.296875 29.160156 39.03125 31.027344 35.285156 32.519531 C 30.128906 34.585938 25.125 35.601562 21.539062 35.617188 C 21.488281 35.617188 21.433594 35.5625 21.421875 35.511719 L 21.40625 35.378906 C 21.40625 35.324219 21.449219 35.273438 21.488281 35.261719 C 23.800781 34.730469 26.84375 33.871094 29.425781 32.839844 C 38.277344 29.292969 44.414062 24.660156 43.808594 21.078125 C 43.675781 20.71875 43.199219 19.910156 43.117188 19.84375 C 40.246094 22.359375 35.816406 24.980469 30.628906 27.042969 C 25.179688 29.226562 20.496094 30.152344 16.671875 30.273438 C 16.617188 30.273438 16.566406 30.21875 16.566406 30.164062 L 16.550781 30.03125 C 16.539062 29.980469 16.59375 29.925781 16.632812 29.914062 C 19.078125 29.371094 21.277344 28.632812 24 27.546875 C 33.738281 23.65625 40.527344 17.925781 39.652344 14.671875 C 39.296875 14.316406 38.964844 13.945312 38.582031 13.628906 C 36.597656 16.101562 32.136719 19.050781 26.804688 21.183594 "/>
</g>
</svg>
