<?xml version="1.0" encoding="UTF-8"?>
<svg xmlns="http://www.w3.org/2000/svg" xmlns:xlink="http://www.w3.org/1999/xlink" width="56pt" height="56pt" viewBox="0 0 56 56" version="1.1">
<g id="surface1">
<rect x="0" y="0" width="56" height="56" style="fill:rgb(14.169312%,29.499817%,59.022522%);fill-opacity:1;stroke:none;"/>
<path style=" stroke:none;fill-rule:nonzero;fill:rgb(100%,100%,100%);fill-opacity:1;" d="M 3.058594 33.769531 C 3.058594 33.769531 6.484375 30.738281 6.75 27.707031 C 7.011719 24.671875 8.199219 20.324219 10.175781 18.871094 C 12.15625 17.421875 16.902344 15.839844 19.40625 15.972656 C 21.910156 16.105469 26.128906 18.082031 27.445312 18.082031 C 28.765625 18.082031 29.6875 18.609375 30.347656 18.214844 C 31.007812 17.816406 30.609375 17.027344 31.796875 17.027344 C 32.984375 17.027344 34.167969 17.027344 35.09375 16.894531 C 36.015625 16.761719 38.125 16.761719 39.3125 16.632812 C 40.496094 16.5 43.398438 14.917969 45.242188 15.179688 C 47.089844 15.445312 48.277344 16.105469 49.726562 16.761719 C 51.175781 17.421875 53.679688 18.34375 53.679688 19.136719 C 53.679688 19.925781 51.835938 21.246094 51.042969 21.773438 C 50.253906 22.300781 46.695312 24.777344 46.296875 24.460938 C 45.902344 24.144531 43.265625 27.574219 42.082031 27.441406 C 40.894531 27.308594 40.234375 27.707031 40.234375 27.707031 C 40.234375 27.707031 41.550781 32.320312 43.792969 32.582031 C 46.035156 32.847656 46.695312 34.957031 46.695312 34.957031 C 46.695312 34.957031 48.144531 38.78125 48.933594 39.304688 C 49.726562 39.832031 49.59375 40.492188 49.59375 40.492188 C 49.59375 40.492188 45.660156 41 43.371094 38.332031 C 41 35.5625 38.125 36.144531 37.730469 36.144531 C 37.335938 36.144531 35.488281 33.769531 35.488281 33.769531 L 34.699219 36.667969 C 34.699219 36.667969 35.09375 39.304688 36.410156 39.4375 C 37.730469 39.570312 39.179688 40.929688 37.730469 40.84375 C 36.28125 40.757812 33.113281 40.847656 33.113281 40.847656 C 33.113281 40.847656 29.953125 38.382812 29.953125 36.933594 C 29.953125 35.484375 31.664062 32.453125 30.476562 31.921875 C 29.292969 31.398438 25.734375 32.453125 20.855469 30.472656 C 19.425781 29.894531 18.480469 32.847656 18.480469 32.847656 L 18.746094 36.933594 C 18.746094 36.933594 19.40625 39.171875 20.855469 39.042969 C 22.304688 38.910156 23.753906 40.226562 22.703125 40.226562 C 21.648438 40.226562 15.054688 39.832031 15.054688 39.832031 C 15.054688 39.832031 13.339844 38.648438 12.945312 36.144531 C 12.550781 33.636719 11.363281 34.558594 12.417969 33.769531 C 13.472656 32.976562 7.277344 35.351562 7.277344 35.351562 C 7.277344 35.351562 5.828125 37.460938 7.539062 38.78125 C 9.253906 40.097656 7.277344 39.703125 7.277344 39.703125 C 7.277344 39.703125 5.828125 39.964844 5.300781 39.304688 C 4.773438 38.648438 3.980469 36.011719 3.058594 35.613281 C 2.136719 35.21875 2.011719 34.832031 3.058594 33.769531 "/>
</g>
</svg>
