<?xml version="1.0" encoding="UTF-8"?>
<svg xmlns="http://www.w3.org/2000/svg" xmlns:xlink="http://www.w3.org/1999/xlink" width="56pt" height="56pt" viewBox="0 0 56 56" version="1.1">
<g id="surface1">
<rect x="0" y="0" width="56" height="56" style="fill:rgb(95.66803%,95.779419%,96.777344%);fill-opacity:1;stroke:none;"/>
<path style=" stroke:none;fill-rule:nonzero;fill:rgb(16.946411%,19.369507%,53.27301%);fill-opacity:1;" d="M 45.371094 9.421875 C 44.945312 9.769531 44.507812 10.109375 44.085938 10.46875 C 43.15625 11.261719 42.230469 12.070312 41.304688 12.871094 C 41.203125 12.964844 41.09375 13.046875 40.976562 13.140625 C 37.621094 13.140625 34.265625 13.140625 30.808594 13.140625 C 30.945312 13 31.003906 12.894531 31.089844 12.851562 C 33.125 11.925781 35.171875 11.035156 37.359375 10.519531 C 39.132812 10.097656 40.910156 9.730469 42.726562 9.554688 C 43.003906 9.554688 43.28125 9.558594 43.5625 9.558594 C 43.792969 9.5 44.074219 9.707031 44.261719 9.421875 C 44.632812 9.421875 45.003906 9.421875 45.371094 9.421875 "/>
<path style=" stroke:none;fill-rule:nonzero;fill:rgb(16.860962%,19.262695%,52.722168%);fill-opacity:1;" d="M 41.042969 46.136719 C 40.769531 46.28125 40.496094 46.429688 40.222656 46.578125 C 39.234375 46.472656 38.246094 46.375 37.265625 46.261719 C 35.914062 46.101562 34.566406 45.921875 33.21875 45.757812 C 32.28125 45.640625 31.339844 45.542969 30.402344 45.425781 C 29.050781 45.261719 27.707031 45.078125 26.359375 44.914062 C 25.464844 44.800781 24.570312 44.714844 23.679688 44.601562 C 22.285156 44.429688 20.894531 44.242188 19.5 44.074219 C 18.535156 43.957031 17.574219 43.863281 16.609375 43.753906 C 15.394531 43.609375 14.183594 43.460938 12.96875 43.308594 C 11.964844 43.183594 10.960938 43.050781 9.957031 42.917969 C 9.242188 42.824219 8.527344 42.726562 7.707031 42.613281 C 8 42.355469 8.242188 42.429688 8.453125 42.425781 C 10.792969 42.421875 13.132812 42.425781 15.472656 42.421875 C 18.738281 42.417969 22.007812 42.40625 25.273438 42.40625 C 25.570312 42.40625 25.867188 42.453125 26.164062 42.476562 C 26.214844 42.535156 26.265625 42.59375 26.320312 42.652344 C 26.367188 42.59375 26.417969 42.535156 26.46875 42.476562 C 27.15625 42.476562 27.839844 42.476562 28.527344 42.476562 C 28.660156 42.828125 28.964844 42.65625 29.179688 42.65625 C 34.941406 42.664062 40.699219 42.664062 46.457031 42.664062 C 46.683594 42.664062 46.910156 42.664062 47.136719 42.664062 C 47.15625 42.78125 47.167969 42.847656 47.183594 42.914062 C 46.328125 43.238281 45.464844 43.542969 44.617188 43.890625 C 43.507812 44.34375 42.460938 44.929688 41.496094 45.648438 C 41.320312 45.777344 41.191406 45.972656 41.042969 46.136719 "/>
<path style=" stroke:none;fill-rule:nonzero;fill:rgb(16.662598%,19.15741%,52.058411%);fill-opacity:1;" d="M 24.359375 18.269531 C 24.417969 18.152344 24.449219 18.003906 24.539062 17.921875 C 25.796875 16.828125 27.097656 15.792969 28.53125 14.933594 C 28.773438 14.789062 29.09375 14.710938 29.382812 14.707031 C 32.855469 14.695312 36.332031 14.699219 39.808594 14.699219 C 39.828125 14.699219 39.847656 14.71875 39.921875 14.757812 C 39.761719 15.214844 39.335938 15.484375 39.082031 15.871094 C 38.796875 16.289062 38.46875 16.683594 38.164062 17.089844 C 37.875 17.476562 37.589844 17.871094 37.300781 18.261719 C 37.234375 18.25 37.164062 18.230469 37.097656 18.230469 C 32.964844 18.226562 28.832031 18.226562 24.699219 18.226562 C 24.585938 18.226562 24.472656 18.253906 24.359375 18.269531 "/>
<path style=" stroke:none;fill-rule:nonzero;fill:rgb(16.719055%,19.093323%,52.052307%);fill-opacity:1;" d="M 34.121094 24.726562 C 34.054688 25.066406 34.015625 25.410156 33.921875 25.742188 C 33.785156 26.226562 33.609375 26.699219 33.449219 27.195312 C 28.378906 27.195312 23.339844 27.195312 18.207031 27.195312 C 18.542969 26.171875 18.867188 25.207031 19.507812 24.382812 C 19.761719 24.390625 20.011719 24.410156 20.265625 24.410156 C 24.582031 24.410156 28.894531 24.410156 33.207031 24.410156 C 33.460938 24.410156 33.714844 24.425781 33.96875 24.4375 C 34.019531 24.53125 34.070312 24.628906 34.121094 24.726562 "/>
<path style=" stroke:none;fill-rule:nonzero;fill:rgb(92.99469%,11.634827%,14.009094%);fill-opacity:1;" d="M 36.410156 19.722656 C 35.917969 20.691406 35.484375 21.546875 35.03125 22.445312 C 30.277344 22.445312 25.488281 22.445312 20.695312 22.445312 C 20.898438 21.871094 21.929688 20.519531 22.792969 19.71875 C 27.246094 19.726562 31.777344 19.699219 36.410156 19.722656 "/>
<path style=" stroke:none;fill-rule:nonzero;fill:rgb(17.01355%,19.317627%,53.300476%);fill-opacity:1;" d="M 33.050781 29.785156 C 33.015625 30.292969 32.980469 30.804688 32.949219 31.308594 C 32.136719 31.433594 17.765625 31.40625 17.210938 31.273438 C 17.238281 31.039062 17.261719 30.796875 17.296875 30.554688 C 17.335938 30.304688 17.386719 30.058594 17.433594 29.820312 C 17.949219 29.699219 32.023438 29.664062 33.050781 29.785156 "/>
<path style=" stroke:none;fill-rule:nonzero;fill:rgb(16.662598%,19.15741%,52.058411%);fill-opacity:1;" d="M 32.972656 35.011719 C 32.976562 35.105469 32.984375 35.199219 32.988281 35.292969 C 27.734375 35.289062 22.484375 35.289062 17.234375 35.289062 C 17.203125 35.011719 17.167969 34.734375 17.136719 34.457031 C 17.183594 34.40625 17.226562 34.355469 17.273438 34.304688 C 17.332031 34.273438 17.386719 34.214844 17.445312 34.214844 C 18.15625 34.230469 18.871094 34.277344 19.585938 34.277344 C 23.871094 34.28125 28.15625 34.277344 32.441406 34.277344 C 32.53125 34.277344 32.621094 34.292969 32.714844 34.300781 C 32.714844 34.527344 32.714844 34.75 32.714844 34.972656 C 32.839844 34.992188 32.90625 35.003906 32.972656 35.011719 "/>
<path style=" stroke:none;fill-rule:nonzero;fill:rgb(17.424011%,19.674683%,55.122375%);fill-opacity:1;" d="M 31.316406 40.121094 C 28.261719 40.121094 25.210938 40.121094 22.15625 40.121094 C 20.898438 40.121094 19.640625 40.121094 18.378906 40.121094 C 18.25 39.894531 18.121094 39.667969 17.957031 39.378906 C 23.304688 39.378906 28.566406 39.378906 33.902344 39.378906 C 33.964844 39.53125 34.042969 39.726562 34.136719 39.957031 C 34 40.011719 33.917969 40.046875 33.835938 40.078125 C 33.496094 40.085938 33.15625 40.09375 32.816406 40.101562 C 32.316406 40.109375 31.816406 40.113281 31.316406 40.121094 "/>
<path style=" stroke:none;fill-rule:nonzero;fill:rgb(16.131592%,18.391418%,49.281311%);fill-opacity:1;" d="M 47.183594 42.914062 C 47.167969 42.847656 47.15625 42.78125 47.136719 42.664062 C 46.910156 42.664062 46.683594 42.664062 46.457031 42.664062 C 40.699219 42.664062 34.941406 42.664062 29.179688 42.65625 C 28.964844 42.65625 28.660156 42.828125 28.527344 42.476562 C 34.3125 42.449219 40.097656 42.421875 45.886719 42.398438 C 46.6875 42.394531 47.488281 42.417969 48.289062 42.429688 C 48.289062 42.5 48.289062 42.574219 48.292969 42.644531 C 48.089844 42.726562 47.890625 42.804688 47.691406 42.890625 C 47.519531 42.898438 47.351562 42.90625 47.183594 42.914062 "/>
<path style=" stroke:none;fill-rule:nonzero;fill:rgb(16.131592%,18.391418%,49.281311%);fill-opacity:1;" d="M 17.234375 35.289062 C 22.484375 35.289062 27.734375 35.289062 32.988281 35.292969 C 32.976562 35.355469 32.96875 35.417969 32.957031 35.5 C 27.730469 35.5 22.519531 35.5 17.296875 35.5 C 17.273438 35.414062 17.253906 35.351562 17.234375 35.289062 "/>
<path style=" stroke:none;fill-rule:nonzero;fill:rgb(16.131592%,18.391418%,49.281311%);fill-opacity:1;" d="M 32.972656 35.011719 C 32.90625 35.003906 32.839844 34.992188 32.714844 34.972656 C 32.714844 34.75 32.714844 34.527344 32.714844 34.300781 C 32.882812 34.289062 32.964844 34.378906 32.972656 34.539062 C 32.976562 34.699219 32.972656 34.855469 32.972656 35.011719 "/>
<path style=" stroke:none;fill-rule:nonzero;fill:rgb(16.131592%,18.391418%,49.281311%);fill-opacity:1;" d="M 33.96875 24.4375 C 34.0625 24.433594 34.15625 24.433594 34.25 24.433594 C 34.207031 24.53125 34.164062 24.628906 34.121094 24.726562 C 34.070312 24.628906 34.019531 24.53125 33.96875 24.4375 "/>
<path style=" stroke:none;fill-rule:nonzero;fill:rgb(16.131592%,18.391418%,49.281311%);fill-opacity:1;" d="M 26.46875 42.476562 C 26.417969 42.535156 26.367188 42.59375 26.320312 42.652344 C 26.265625 42.59375 26.214844 42.535156 26.164062 42.476562 C 26.265625 42.476562 26.367188 42.476562 26.46875 42.476562 "/>
<path style=" stroke:none;fill-rule:nonzero;fill:rgb(16.131592%,18.391418%,49.281311%);fill-opacity:1;" d="M 17.273438 34.304688 C 17.226562 34.355469 17.183594 34.40625 17.136719 34.457031 C 17.183594 34.40625 17.226562 34.355469 17.273438 34.304688 "/>
</g>
</svg>
