<?xml version="1.0" encoding="UTF-8"?>
<svg xmlns="http://www.w3.org/2000/svg" xmlns:xlink="http://www.w3.org/1999/xlink" width="56pt" height="56pt" viewBox="0 0 56 56" version="1.1">
<g id="surface1">
<rect x="0" y="0" width="56" height="56" style="fill:rgb(10.215759%,28.916931%,16.453552%);fill-opacity:1;stroke:none;"/>
<path style=" stroke:none;fill-rule:nonzero;fill:rgb(64.445496%,57.18689%,12.115479%);fill-opacity:1;" d="M 40.378906 13.046875 C 40.503906 12.921875 40.480469 12.871094 40.277344 12.871094 L 36.082031 12.644531 C 35.90625 12.617188 35.757812 12.644531 35.628906 12.71875 L 33.59375 14.152344 C 33.417969 14.378906 33.492188 14.476562 33.820312 14.402344 L 34.828125 13.949219 C 35.003906 13.851562 35.226562 13.800781 35.503906 13.824219 L 37.890625 13.976562 C 38.117188 14.078125 38.117188 14.253906 37.914062 14.527344 L 35.351562 16.941406 C 35.226562 17.066406 35.175781 17.242188 35.203125 17.46875 L 35.050781 22.066406 C 35.027344 22.191406 34.925781 22.34375 34.726562 22.519531 C 34.625 22.667969 34.625 22.746094 34.75 22.71875 C 35.453125 22.191406 36.082031 21.613281 36.660156 21.011719 C 36.835938 20.910156 36.910156 20.761719 36.910156 20.558594 L 37.035156 15.9375 C 37.035156 15.761719 37.113281 15.660156 37.289062 15.585938 L 40.378906 13.046875 "/>
<path style=" stroke:none;fill-rule:nonzero;fill:rgb(64.445496%,57.18689%,12.115479%);fill-opacity:1;" d="M 31.257812 13.523438 C 31.03125 13.347656 30.832031 13.347656 30.65625 13.523438 C 30.027344 14.226562 29.199219 14.753906 28.191406 15.105469 C 27.386719 15.433594 26.808594 15.257812 26.457031 14.578125 C 26.230469 14.027344 26.382812 13.296875 26.886719 12.417969 C 26.359375 12.441406 25.882812 12.796875 25.453125 13.421875 C 24.925781 14.351562 24.902344 15.207031 25.328125 15.9375 C 25.753906 16.664062 26.105469 16.941406 26.332031 16.765625 C 26.910156 16.210938 27.5625 15.761719 28.292969 15.410156 C 28.71875 15.132812 29.148438 15.105469 29.574219 15.308594 C 30.503906 16.085938 31.054688 17.140625 31.207031 18.5 C 31.359375 19.832031 30.503906 21.113281 28.621094 22.292969 L 27.136719 23.246094 C 27.035156 23.398438 27.0625 23.523438 27.238281 23.597656 C 31.585938 24.882812 34.222656 26.238281 35.128906 27.644531 C 35.757812 28.5 35.832031 29.351562 35.351562 30.183594 C 34.828125 31.164062 33.921875 31.992188 32.613281 32.671875 C 30.578125 33.550781 28.167969 34.050781 25.402344 34.128906 C 23.820312 34.175781 22.289062 34.152344 20.753906 34.078125 C 16.609375 33.925781 13.71875 33.347656 12.058594 32.320312 C 11.355469 31.914062 10.929688 31.515625 10.78125 31.136719 C 10.578125 30.710938 10.578125 30.132812 10.753906 29.40625 L 24.875 29.351562 C 25.554688 29.378906 26.132812 29.226562 26.558594 28.953125 C 27.589844 28.324219 28.46875 27.695312 29.246094 27.066406 C 29.371094 26.839844 29.222656 26.765625 28.84375 26.890625 L 28.167969 27.140625 C 27.890625 27.269531 27.4375 27.34375 26.808594 27.34375 L 9.449219 27.320312 C 8.367188 27.367188 7.613281 27.21875 7.238281 26.867188 C 6.757812 26.390625 6.707031 25.8125 7.085938 25.132812 C 7.914062 24.203125 8.519531 23.726562 8.894531 23.648438 L 13.921875 23.699219 C 14.195312 23.675781 14.398438 23.574219 14.546875 23.398438 C 15.378906 22.667969 16.132812 21.964844 16.859375 21.238281 C 16.835938 21.085938 16.710938 21.085938 16.457031 21.238281 L 15.90625 21.589844 C 15.578125 21.839844 15.101562 21.941406 14.496094 21.914062 L 10.503906 21.867188 C 9.976562 21.992188 9.546875 22.191406 9.222656 22.46875 C 8.089844 23.398438 7.011719 24.378906 5.953125 25.359375 C 5.476562 25.785156 5.277344 26.214844 5.328125 26.691406 C 5.375 27.417969 5.703125 27.996094 6.304688 28.398438 C 7.0625 29.003906 8.039062 29.328125 9.269531 29.40625 L 10.476562 29.40625 C 9.699219 30.585938 9.398438 31.691406 9.574219 32.71875 C 9.75 33.777344 10.175781 34.554688 10.878906 35.058594 C 11.835938 35.8125 13.117188 36.289062 14.75 36.515625 C 16.230469 36.765625 17.6875 36.890625 19.121094 36.867188 C 18.792969 37.445312 18.617188 37.972656 18.570312 38.5 C 18.46875 40.132812 18.894531 41.289062 19.851562 41.96875 C 20.832031 42.796875 22.210938 43.296875 23.945312 43.527344 C 26.835938 43.75 30.078125 43.296875 33.617188 42.167969 C 37.539062 40.886719 40.605469 39.050781 42.789062 36.664062 C 43.746094 35.6875 44.324219 34.453125 44.523438 32.921875 C 44.597656 32.09375 44.523438 31.289062 44.324219 30.484375 C 43.644531 28.648438 42.539062 27.34375 41.007812 26.515625 C 40.730469 26.238281 40.707031 25.9375 40.929688 25.660156 L 43.242188 23.046875 C 43.71875 22.621094 43.949219 22.21875 43.921875 21.890625 C 43.46875 19.929688 42.839844 18.675781 42.0625 18.148438 C 41.761719 17.945312 41.511719 17.921875 41.335938 18.046875 C 40.980469 18.222656 40.65625 18.449219 40.328125 18.726562 C 39.902344 19.027344 39.449219 19.300781 38.972656 19.53125 C 38.871094 19.554688 38.796875 19.605469 38.71875 19.628906 C 38.621094 19.855469 38.667969 19.90625 38.871094 19.832031 C 38.898438 19.804688 38.945312 19.78125 38.996094 19.78125 C 39.097656 19.730469 39.246094 19.679688 39.421875 19.628906 C 39.851562 19.554688 40.554688 20.257812 41.511719 21.714844 C 42.089844 22.621094 42.113281 23.5 41.609375 24.328125 C 40.65625 25.410156 39.597656 26.464844 38.417969 27.496094 C 38.09375 27.746094 38.144531 27.921875 38.519531 28.046875 C 41.257812 29.226562 42.816406 30.234375 43.195312 31.113281 C 43.71875 32.042969 43.820312 32.996094 43.445312 33.976562 C 43.019531 35.207031 41.835938 36.390625 39.953125 37.570312 C 37.691406 38.675781 35.253906 39.40625 32.613281 39.757812 C 27.890625 40.308594 24.472656 40.285156 22.386719 39.65625 C 20.453125 39.050781 19.496094 38.121094 19.523438 36.867188 C 20.125 36.84375 20.730469 36.792969 21.332031 36.714844 C 24.121094 36.613281 26.960938 36.089844 29.875 35.105469 C 30.804688 34.78125 31.585938 34.378906 32.261719 33.925781 C 33.820312 33.148438 35.027344 32.117188 35.882812 30.859375 C 36.535156 30.132812 36.835938 29.152344 36.785156 27.972656 C 36.835938 27.117188 36.511719 26.261719 35.804688 25.433594 C 34.324219 24.050781 32.488281 23.023438 30.300781 22.34375 C 30.128906 22.117188 30.078125 21.914062 30.152344 21.738281 L 31.785156 19.957031 C 32.914062 19.027344 33.242188 17.71875 32.765625 15.984375 C 32.539062 14.957031 32.035156 14.152344 31.257812 13.523438 "/>
<path style=" stroke:none;fill-rule:nonzero;fill:rgb(64.445496%,57.18689%,12.115479%);fill-opacity:1;" d="M 45.78125 23.953125 L 44.523438 25.359375 L 45.804688 26.714844 L 46.960938 25.484375 L 48.292969 25.460938 L 49.449219 26.765625 L 50.679688 25.335938 L 49.472656 23.976562 L 48.292969 25.105469 L 46.9375 25.15625 L 45.78125 23.953125 "/>
<path style=" stroke:none;fill-rule:nonzero;fill:rgb(64.445496%,57.18689%,12.115479%);fill-opacity:1;" d="M 25.804688 18.976562 C 25.832031 18.800781 25.90625 18.675781 26.03125 18.597656 L 26.308594 18.347656 C 26.359375 18.246094 26.359375 18.171875 26.332031 18.097656 C 26.207031 18.023438 26.082031 18.023438 25.980469 18.097656 L 24.070312 19.730469 C 23.945312 19.855469 23.894531 20.058594 23.921875 20.28125 L 23.820312 25.082031 C 23.792969 25.234375 23.667969 25.410156 23.492188 25.585938 C 23.367188 25.710938 23.367188 25.785156 23.492188 25.785156 C 24.222656 25.257812 24.851562 24.679688 25.429688 24.050781 C 25.605469 23.976562 25.679688 23.824219 25.679688 23.597656 L 25.804688 18.976562 "/>
<path style=" stroke:none;fill-rule:nonzero;fill:rgb(64.445496%,57.18689%,12.115479%);fill-opacity:1;" d="M 47.589844 29.832031 L 48.71875 28.523438 L 47.488281 27.292969 L 46.410156 28.5 L 47.589844 29.832031 "/>
</g>
</svg>
