<?xml version="1.0" encoding="UTF-8"?>
<svg xmlns="http://www.w3.org/2000/svg" xmlns:xlink="http://www.w3.org/1999/xlink" width="56pt" height="56pt" viewBox="0 0 56 56" version="1.1">
<g id="surface1">
<rect x="0" y="0" width="56" height="56" style="fill:rgb(19.758606%,27.19574%,59.541321%);fill-opacity:1;stroke:none;"/>
<path style=" stroke:none;fill-rule:nonzero;fill:rgb(100%,100%,100%);fill-opacity:1;" d="M 13.394531 11.472656 C 18.367188 11.472656 22.398438 15.503906 22.398438 20.476562 C 22.398438 25.449219 18.367188 29.480469 13.394531 29.480469 C 8.425781 29.480469 4.394531 25.449219 4.394531 20.476562 C 4.394531 15.503906 8.425781 11.472656 13.394531 11.472656 "/>
<path style=" stroke:none;fill-rule:nonzero;fill:rgb(100%,100%,100%);fill-opacity:1;" d="M 22.996094 29.480469 C 27.152344 29.480469 30.519531 32.847656 30.519531 37.003906 C 30.519531 41.15625 27.152344 44.527344 22.996094 44.527344 C 18.839844 44.527344 15.472656 41.15625 15.472656 37.003906 C 15.472656 32.847656 18.839844 29.480469 22.996094 29.480469 "/>
<path style=" stroke:none;fill-rule:nonzero;fill:rgb(100%,100%,100%);fill-opacity:1;" d="M 31.011719 16.394531 C 34.621094 16.394531 37.546875 19.320312 37.546875 22.929688 C 37.546875 26.539062 34.621094 29.46875 31.011719 29.46875 C 27.402344 29.46875 24.472656 26.539062 24.472656 22.929688 C 24.472656 19.320312 27.402344 16.394531 31.011719 16.394531 "/>
<path style=" stroke:none;fill-rule:nonzero;fill:rgb(100%,100%,100%);fill-opacity:1;" d="M 42.5625 23.4375 C 44.265625 23.4375 45.648438 24.816406 45.648438 26.519531 C 45.648438 28.222656 44.265625 29.601562 42.5625 29.601562 C 40.859375 29.601562 39.480469 28.222656 39.480469 26.519531 C 39.480469 24.816406 40.859375 23.4375 42.5625 23.4375 "/>
<path style=" stroke:none;fill-rule:nonzero;fill:rgb(100%,100%,100%);fill-opacity:1;" d="M 37.496094 29.363281 C 39.761719 29.363281 41.597656 31.199219 41.597656 33.464844 C 41.597656 35.726562 39.761719 37.566406 37.496094 37.566406 C 35.230469 37.566406 33.398438 35.726562 33.398438 33.464844 C 33.398438 31.199219 35.230469 29.363281 37.496094 29.363281 "/>
<path style=" stroke:none;fill-rule:nonzero;fill:rgb(100%,100%,100%);fill-opacity:1;" d="M 46.539062 29.433594 C 47.679688 29.433594 48.605469 30.355469 48.605469 31.496094 C 48.605469 32.640625 47.679688 33.5625 46.539062 33.5625 C 45.398438 33.5625 44.472656 32.640625 44.472656 31.496094 C 44.472656 30.355469 45.398438 29.433594 46.539062 29.433594 "/>
<path style=" stroke:none;fill-rule:nonzero;fill:rgb(100%,100%,100%);fill-opacity:1;" d="M 50.035156 26.347656 C 50.902344 26.347656 51.605469 27.054688 51.605469 27.921875 C 51.605469 28.789062 50.902344 29.492188 50.035156 29.492188 C 49.164062 29.492188 48.460938 28.789062 48.460938 27.921875 C 48.460938 27.054688 49.164062 26.347656 50.035156 26.347656 "/>
</g>
</svg>
