<?xml version="1.0" encoding="UTF-8"?>
<svg xmlns="http://www.w3.org/2000/svg" xmlns:xlink="http://www.w3.org/1999/xlink" width="56pt" height="56pt" viewBox="0 0 56 56" version="1.1">
<g id="surface1">
<rect x="0" y="0" width="56" height="56" style="fill:rgb(91.213989%,11.169434%,14.260864%);fill-opacity:1;stroke:none;"/>
<path style=" stroke:none;fill-rule:nonzero;fill:rgb(100%,100%,100%);fill-opacity:1;" d="M 49.875 28.949219 C 48.640625 28.898438 47.554688 28.875 46.472656 28.792969 C 45.707031 28.738281 44.949219 28.539062 44.183594 28.527344 C 43.253906 28.515625 42.320312 28.644531 41.386719 28.695312 C 40.558594 28.738281 39.726562 28.777344 38.898438 28.789062 C 37.792969 28.804688 36.683594 28.792969 35.574219 28.933594 C 37.933594 29.191406 40.304688 29.082031 42.671875 29.261719 C 40.566406 29.71875 38.425781 29.328125 36.292969 29.71875 C 34.277344 30.085938 32.121094 29.632812 30.171875 30.683594 C 31.859375 30.503906 33.546875 30.324219 35.238281 30.144531 C 35.246094 30.222656 35.261719 30.300781 35.269531 30.378906 C 34.230469 30.574219 33.191406 30.769531 32.152344 30.964844 C 33.304688 31.042969 34.453125 31.367188 35.578125 30.894531 C 35.628906 30.871094 35.679688 30.84375 35.734375 30.84375 C 38.9375 30.804688 42.125 30.179688 45.351562 30.71875 C 45.011719 30.75 44.671875 30.796875 44.332031 30.8125 C 42.011719 30.929688 39.683594 30.96875 37.367188 31.171875 C 35.410156 31.34375 33.46875 31.703125 31.394531 31.996094 C 33.320312 32.507812 35.09375 31.515625 37.253906 31.972656 C 36.464844 32.097656 36.007812 32.167969 35.550781 32.238281 C 35.546875 32.292969 35.542969 32.347656 35.542969 32.402344 C 36.371094 32.449219 37.199219 32.5 38.023438 32.546875 C 38.023438 32.621094 38.023438 32.695312 38.023438 32.765625 C 36.921875 32.800781 35.816406 32.785156 34.71875 32.882812 C 33.574219 32.988281 32.4375 33.199219 31.296875 33.371094 C 30.246094 33.53125 29.191406 33.699219 28.160156 34.113281 C 28.816406 34.113281 29.480469 34.183594 30.125 34.097656 C 31.207031 33.953125 32.269531 33.609375 33.355469 33.519531 C 35.445312 33.339844 37.542969 33.277344 39.640625 33.167969 C 39.855469 33.160156 40.070312 33.191406 40.292969 33.417969 C 39.300781 33.453125 38.308594 33.445312 37.320312 33.535156 C 36.289062 33.632812 35.265625 33.820312 34.234375 34.03125 C 36.933594 34.261719 39.65625 34.050781 42.359375 34.472656 C 41.097656 34.484375 39.828125 34.40625 38.574219 34.519531 C 35.769531 34.769531 32.9375 34.664062 30.148438 35.140625 C 29.117188 35.316406 28.066406 35.421875 27.023438 35.472656 C 24.253906 35.609375 21.578125 36.277344 18.914062 36.921875 C 15.328125 37.792969 11.886719 39.132812 8.511719 40.613281 C 7.472656 41.070312 6.519531 41.71875 5.320312 42.039062 C 5.714844 41.414062 6.019531 40.707031 6.519531 40.179688 C 8.742188 37.847656 10.90625 35.457031 13.628906 33.65625 C 17.300781 31.230469 21.285156 29.652344 25.597656 28.722656 C 28.761719 28.046875 31.914062 27.691406 35.136719 27.742188 C 35.621094 27.75 36.109375 27.59375 36.597656 27.546875 C 36.925781 27.515625 37.261719 27.515625 37.585938 27.542969 C 38.242188 27.597656 38.898438 27.746094 39.550781 27.75 C 42.265625 27.75 44.964844 27.890625 47.632812 28.445312 C 48.058594 28.53125 48.53125 28.425781 48.964844 28.496094 C 49.246094 28.546875 49.503906 28.757812 49.875 28.949219 "/>
<path style=" stroke:none;fill-rule:nonzero;fill:rgb(100%,100%,100%);fill-opacity:1;" d="M 35.617188 18.636719 C 34.65625 17.71875 33.765625 16.894531 32.902344 16.039062 C 32.488281 15.628906 32.050781 15.265625 31.445312 15.40625 C 31.101562 15.484375 30.671875 15.648438 30.496094 15.914062 C 30.21875 16.339844 30.417969 16.757812 30.960938 17.007812 C 31.292969 16.683594 31.640625 16.351562 32.113281 15.894531 C 32.351562 16.410156 32.78125 16.941406 32.660156 17.140625 C 32.085938 18.097656 32.875 18.230469 33.382812 18.363281 C 34.105469 18.550781 34.828125 19.003906 35.617188 18.636719 Z M 26.03125 21.78125 C 26.242188 21.820312 26.476562 21.824219 26.667969 21.910156 C 27.875 22.472656 29.085938 22.609375 30.40625 21.910156 C 30.09375 21.734375 29.84375 21.5625 29.566406 21.445312 C 28.808594 21.121094 28.039062 20.820312 27.277344 20.511719 C 27.125 20.449219 26.972656 20.378906 26.820312 20.316406 C 25.65625 19.835938 25.121094 19.980469 24.164062 21.035156 C 23.773438 20.390625 23.773438 20.390625 23.800781 19.457031 C 24.734375 19.40625 25.714844 19.300781 25.714844 17.757812 C 25.460938 18.035156 25.351562 18.21875 25.191406 18.332031 C 24.492188 18.816406 24.078125 18.773438 23.628906 18.199219 C 23.175781 17.617188 23.199219 16.613281 23.746094 16.246094 C 24.289062 15.886719 24.867188 15.496094 25.574219 16.007812 C 26.015625 16.328125 26.550781 16.523438 26.992188 16.847656 C 27.976562 17.558594 29.089844 17.964844 30.289062 18.265625 C 29.628906 17.691406 28.96875 17.113281 28.128906 16.382812 C 29.144531 15.964844 29.71875 15.355469 30.269531 14.691406 C 31.128906 13.648438 32.296875 13.945312 33.355469 14.214844 C 34.628906 14.539062 35.867188 15.003906 37.109375 15.433594 C 39.113281 16.125 41.085938 15.953125 43.046875 15.28125 C 43.203125 15.226562 43.347656 15.15625 43.503906 15.113281 C 43.542969 15.101562 43.597656 15.152344 43.777344 15.242188 C 42.914062 16.128906 42.078125 16.988281 41.152344 17.933594 C 42.789062 18.4375 44.363281 18.886719 46.003906 18.679688 C 47.5625 18.484375 49.09375 18.101562 50.679688 17.789062 C 48.09375 20.257812 44.566406 21.023438 41.429688 20.722656 C 40.460938 20.628906 39.496094 20.304688 38.570312 19.980469 C 38.070312 19.804688 37.648438 19.707031 37.136719 19.894531 C 34.574219 20.820312 32.039062 20.464844 29.527344 19.65625 C 29.371094 19.609375 29.226562 19.523438 29.070312 19.46875 C 29.027344 19.453125 28.96875 19.480469 28.917969 19.488281 C 29.902344 20.609375 31.042969 20.976562 35.476562 21.566406 C 32.855469 22.949219 30.277344 23.613281 27.480469 22.757812 C 26.921875 22.585938 26.285156 22.429688 26.054688 21.753906 L 26.03125 21.78125 "/>
<path style=" stroke:none;fill-rule:nonzero;fill:rgb(100%,100%,100%);fill-opacity:1;" d="M 48.027344 20.527344 C 45.835938 22.296875 43.25 22.929688 40.550781 23.378906 C 41.257812 23.414062 41.964844 23.445312 42.667969 23.480469 C 42.667969 23.527344 42.667969 23.574219 42.667969 23.621094 C 41.742188 23.820312 40.816406 24.023438 39.890625 24.226562 C 39.890625 24.285156 39.890625 24.34375 39.890625 24.402344 C 40.796875 24.402344 41.710938 24.402344 42.617188 24.402344 C 42.625 24.484375 42.632812 24.566406 42.636719 24.652344 C 41.511719 24.851562 40.390625 25.054688 39.074219 25.292969 C 39.609375 25.40625 39.976562 25.480469 40.347656 25.554688 C 37.964844 26.011719 35.617188 26.621094 32.863281 26.351562 C 33.976562 25.359375 35.105469 24.828125 35.980469 23.996094 C 36.863281 23.160156 37.675781 22.253906 38.660156 21.234375 C 41.714844 22.175781 44.898438 21.8125 48.027344 20.527344 "/>
<path style=" stroke:none;fill-rule:nonzero;fill:rgb(100%,100%,100%);fill-opacity:1;" d="M 24.511719 23.472656 C 24.699219 23.492188 24.855469 23.460938 24.902344 23.519531 C 25.824219 24.632812 26.933594 24.59375 28.210938 24.226562 C 29.148438 23.960938 30.152344 23.902344 31.136719 23.820312 C 31.410156 23.796875 31.707031 24.027344 31.984375 24.25 C 30.476562 24.40625 29.15625 25.03125 27.800781 25.5625 C 26.160156 26.203125 24.808594 25.609375 24.40625 24.0625 C 24.359375 23.886719 24.472656 23.664062 24.511719 23.472656 "/>
<path style=" stroke:none;fill-rule:nonzero;fill:rgb(100%,100%,100%);fill-opacity:1;" d="M 40.640625 31.738281 C 39.71875 31.738281 38.800781 31.738281 37.878906 31.738281 C 37.878906 31.683594 37.878906 31.628906 37.878906 31.574219 C 38.785156 31.574219 39.695312 31.574219 40.601562 31.574219 C 40.613281 31.628906 40.625 31.683594 40.640625 31.738281 "/>
<path style=" stroke:none;fill-rule:nonzero;fill:rgb(100%,100%,100%);fill-opacity:1;" d="M 26.054688 21.753906 C 25.96875 21.703125 25.878906 21.65625 25.792969 21.609375 C 25.871094 21.664062 25.953125 21.722656 26.03125 21.78125 L 26.054688 21.753906 "/>
</g>
</svg>
