<?xml version="1.0" encoding="UTF-8"?>
<svg xmlns="http://www.w3.org/2000/svg" xmlns:xlink="http://www.w3.org/1999/xlink" width="56pt" height="56pt" viewBox="0 0 56 56" version="1.1">
<g id="surface1">
<rect x="0" y="0" width="56" height="56" style="fill:rgb(95.666504%,95.776367%,96.775818%);fill-opacity:1;stroke:none;"/>
<path style=" stroke:none;fill-rule:nonzero;fill:rgb(14.593506%,28.192139%,57.522583%);fill-opacity:1;" d="M 29.769531 9.265625 C 34.289062 9.710938 38.457031 11.796875 41.519531 15.039062 L 47.390625 16.230469 C 44.542969 11.550781 40.050781 7.984375 34.71875 6.332031 L 29.769531 9.265625 "/>
<path style=" stroke:none;fill-rule:nonzero;fill:rgb(14.593506%,28.192139%,57.522583%);fill-opacity:1;" d="M 46.535156 29.34375 C 46.171875 33.796875 44.214844 37.929688 41.128906 41.027344 L 40.292969 47.054688 C 44.847656 44.109375 48.277344 39.582031 49.800781 34.242188 L 46.535156 29.34375 "/>
<path style=" stroke:none;fill-rule:nonzero;fill:rgb(14.593506%,28.192139%,57.522583%);fill-opacity:1;" d="M 15.542969 13.890625 C 17.878906 11.8125 24.648438 9.222656 28 9.222656 C 29.546875 9.222656 27.070312 9.140625 28.550781 9.1875 L 33.546875 6.003906 C 31.769531 5.558594 29.914062 5.320312 28 5.320312 C 23.90625 5.320312 20.066406 6.410156 16.75 8.308594 L 15.542969 13.890625 "/>
<path style=" stroke:none;fill-rule:nonzero;fill:rgb(14.593506%,28.192139%,57.522583%);fill-opacity:1;" d="M 47.992188 17.289062 L 42.324219 15.953125 C 44.175781 18.195312 46.65625 24.765625 46.65625 27.878906 C 46.65625 29.3125 46.609375 26.75 46.589844 28.125 L 50.105469 33.0625 C 50.476562 31.433594 50.679688 29.742188 50.679688 28 C 50.679688 24.125 49.707031 20.480469 47.992188 17.289062 "/>
<path style=" stroke:none;fill-rule:nonzero;fill:rgb(14.593506%,28.192139%,57.522583%);fill-opacity:1;" d="M 14.660156 14.730469 L 15.707031 8.941406 C 11.152344 11.886719 7.722656 16.417969 6.195312 21.757812 L 9.324219 26.558594 C 9.632812 22.058594 11.566406 17.871094 14.660156 14.730469 "/>
<path style=" stroke:none;fill-rule:nonzero;fill:rgb(14.593506%,28.192139%,57.522583%);fill-opacity:1;" d="M 40.238281 41.859375 C 37.917969 43.898438 35.0625 45.390625 31.828125 46.082031 C 30.335938 46.398438 28.847656 46.523438 27.390625 46.480469 L 22.453125 49.996094 C 24.230469 50.441406 26.085938 50.679688 28 50.679688 C 32.09375 50.679688 35.933594 49.589844 39.25 47.691406 L 40.238281 41.859375 "/>
<path style=" stroke:none;fill-rule:nonzero;fill:rgb(14.593506%,28.192139%,57.522583%);fill-opacity:1;" d="M 9.691406 31.722656 C 9.410156 30.402344 9.277344 29.082031 9.28125 27.777344 L 5.894531 22.9375 C 5.523438 24.566406 5.320312 26.257812 5.320312 28 C 5.320312 31.875 6.292969 35.519531 8.007812 38.710938 L 13.6875 39.878906 C 11.765625 37.605469 10.355469 34.839844 9.691406 31.722656 "/>
<path style=" stroke:none;fill-rule:nonzero;fill:rgb(14.593506%,28.192139%,57.522583%);fill-opacity:1;" d="M 26.171875 46.410156 C 21.699219 45.984375 17.570312 43.953125 14.507812 40.78125 L 8.609375 39.769531 C 11.457031 44.449219 15.945312 48.015625 21.28125 49.667969 L 26.171875 46.410156 "/>
<path style=" stroke:none;fill-rule:nonzero;fill:rgb(14.593506%,28.192139%,57.522583%);fill-opacity:1;" d="M 42.722656 27.9375 C 42.722656 19.804688 36.132812 13.214844 28 13.214844 C 19.867188 13.214844 13.277344 19.804688 13.277344 27.9375 C 13.277344 36.070312 19.867188 42.660156 28 42.660156 C 36.132812 42.660156 42.722656 36.070312 42.722656 27.9375 "/>
<path style=" stroke:none;fill-rule:nonzero;fill:rgb(100%,100%,100%);fill-opacity:1;" d="M 22.214844 25.835938 C 22.878906 25.996094 23.71875 26.058594 24.734375 26.058594 C 28.410156 26.058594 30.652344 24.429688 30.652344 21.464844 C 30.652344 18.625 28.445312 17.253906 25.082031 17.253906 C 23.753906 17.253906 22.738281 17.347656 22.214844 17.476562 Z M 19.167969 15.46875 C 20.636719 15.242188 22.5625 15.054688 25.015625 15.054688 C 28.023438 15.054688 30.230469 15.691406 31.628906 16.839844 C 32.925781 17.859375 33.695312 19.421875 33.695312 21.335938 C 33.695312 23.285156 33.066406 24.816406 31.875 25.929688 C 30.265625 27.492188 27.640625 28.292969 24.664062 28.292969 C 23.753906 28.292969 22.914062 28.261719 22.214844 28.101562 L 22.214844 36.714844 L 19.167969 36.714844 L 19.167969 15.46875 "/>
</g>
</svg>
