<?xml version="1.0" encoding="UTF-8"?>
<svg xmlns="http://www.w3.org/2000/svg" xmlns:xlink="http://www.w3.org/1999/xlink" width="56pt" height="56pt" viewBox="0 0 56 56" version="1.1">
<g id="surface1">
<rect x="0" y="0" width="56" height="56" style="fill:rgb(14.094543%,23.867798%,46.447754%);fill-opacity:1;stroke:none;"/>
<path style=" stroke:none;fill-rule:nonzero;fill:rgb(100%,100%,100%);fill-opacity:1;" d="M 27.953125 5.300781 C 15.449219 5.328125 5.328125 15.519531 5.351562 28.015625 C 5.390625 40.550781 15.554688 50.699219 28.054688 50.664062 C 40.566406 50.628906 50.683594 40.425781 50.652344 27.902344 C 50.613281 15.398438 40.449219 5.261719 27.953125 5.300781 M 43.089844 43.578125 C 39.21875 47.335938 33.921875 49.679688 28.09375 49.703125 C 16.101562 49.738281 6.386719 40.027344 6.34375 28.050781 C 6.324219 16.058594 15.996094 6.324219 27.988281 6.296875 C 33.808594 6.269531 39.121094 8.5625 43.007812 12.335938 C 45.371094 14.558594 47.199219 17.332031 48.371094 20.449219 L 43.03125 20.460938 L 18.121094 20.535156 L 18.128906 24.921875 C 20.425781 25.441406 22.695312 26.152344 24.855469 27.101562 C 20.875 26.019531 16.699219 25.582031 11.964844 25.597656 L 11.796875 25.597656 L 11.800781 31.230469 L 13.101562 29.914062 C 24.789062 30.164062 35.351562 35.015625 43.082031 42.714844 C 43.25 42.859375 43.398438 42.988281 43.535156 43.128906 C 43.398438 43.308594 43.257812 43.4375 43.089844 43.578125 M 43.84375 42.820312 L 43.824219 38.496094 C 43.824219 38.421875 43.859375 38.421875 43.859375 38.421875 C 43.824219 38.421875 43.824219 38.390625 43.824219 38.390625 L 43.824219 38.355469 C 43.578125 37.972656 43.347656 37.605469 43.070312 37.226562 C 39.558594 32.1875 34.953125 27.941406 29.570312 24.890625 L 43.042969 24.867188 L 49.480469 24.847656 C 49.617188 25.882812 49.683594 26.875 49.683594 27.941406 C 49.710938 33.667969 47.496094 38.898438 43.84375 42.820312 "/>
</g>
</svg>
