<?xml version="1.0" encoding="UTF-8"?>
<svg xmlns="http://www.w3.org/2000/svg" xmlns:xlink="http://www.w3.org/1999/xlink" width="56pt" height="56pt" viewBox="0 0 56 56" version="1.1">
<g id="surface1">
<rect x="0" y="0" width="56" height="56" style="fill:rgb(21.429443%,32.383728%,13.294983%);fill-opacity:1;stroke:none;"/>
<path style=" stroke:none;fill-rule:evenodd;fill:rgb(92.651367%,65.351868%,6.715393%);fill-opacity:1;" d="M 32.996094 13.324219 C 33.398438 13.597656 33.796875 13.871094 34.199219 14.144531 C 34.242188 14.171875 34.292969 14.199219 34.34375 14.207031 C 35.335938 14.394531 36.320312 14.648438 37.339844 14.660156 C 38.691406 14.671875 40.042969 14.664062 41.394531 14.679688 C 41.652344 14.683594 41.90625 14.761719 42.160156 14.800781 C 42.402344 14.835938 42.644531 14.863281 42.949219 14.898438 C 43.203125 15.03125 43.507812 15.191406 43.859375 15.371094 C 44.363281 16.113281 44.890625 16.90625 45.429688 17.683594 C 45.527344 17.816406 45.671875 17.929688 45.820312 18.007812 C 46.183594 18.199219 46.554688 18.363281 46.960938 18.46875 C 47.65625 18.648438 48.351562 18.855469 49.03125 19.101562 C 49.558594 19.292969 50.058594 19.566406 50.617188 19.824219 C 50.210938 20.09375 49.804688 20.242188 49.382812 20.316406 C 48.988281 20.382812 48.582031 20.441406 48.1875 20.421875 C 47.402344 20.386719 46.664062 20.613281 45.914062 20.761719 C 45.46875 20.847656 45.019531 20.917969 44.566406 20.953125 C 43.710938 21.015625 43.054688 21.367188 42.710938 22.183594 C 42.367188 22.988281 42.042969 23.800781 41.707031 24.605469 C 41.628906 24.792969 41.601562 24.972656 41.734375 25.195312 C 41.992188 25.085938 42.242188 24.980469 42.484375 24.867188 C 43.027344 24.617188 43.570312 24.367188 44.101562 24.101562 C 44.285156 24.011719 44.449219 23.871094 44.640625 23.738281 C 44.933594 23.683594 45.257812 23.738281 45.574219 23.554688 C 45.742188 23.457031 46.046875 23.5625 46.285156 23.605469 C 46.453125 23.636719 46.609375 23.71875 46.789062 23.78125 C 46.828125 23.921875 46.871094 24.070312 46.925781 24.273438 C 46.789062 24.46875 46.664062 24.699219 46.492188 24.886719 C 46.027344 25.394531 45.644531 25.941406 45.355469 26.574219 C 44.964844 27.429688 44.492188 28.253906 44.066406 29.09375 C 43.910156 29.40625 43.761719 29.722656 43.648438 30.050781 C 43.5 30.484375 43.246094 30.761719 42.789062 30.878906 C 42.160156 31.039062 41.585938 31.324219 41.007812 31.632812 C 40.210938 32.054688 39.367188 32.410156 38.539062 32.777344 C 37.785156 33.105469 37.023438 33.410156 36.265625 33.726562 C 36.152344 33.777344 36.03125 33.824219 35.941406 33.902344 C 35.050781 34.679688 33.984375 35.183594 32.976562 35.773438 C 32.78125 35.890625 32.59375 36.019531 32.410156 36.15625 C 32.25 36.269531 32.097656 36.296875 31.933594 36.179688 C 31.816406 35.582031 32.089844 34.886719 32.84375 33.867188 C 33.390625 33.738281 33.957031 34.066406 34.480469 33.800781 C 34.644531 33.578125 34.828125 33.382812 34.949219 33.15625 C 35.121094 32.828125 35.429688 32.703125 35.730469 32.585938 C 36.195312 32.410156 36.636719 32.183594 37.089844 32.015625 C 37.539062 31.851562 37.984375 31.660156 38.441406 31.515625 C 38.8125 31.398438 39.171875 31.238281 39.535156 31.105469 C 39.792969 31.011719 40.0625 30.9375 40.320312 30.832031 C 40.769531 30.652344 41.203125 30.414062 41.535156 30.0625 C 41.902344 29.671875 42.324219 29.351562 42.65625 28.910156 C 43 28.457031 43.363281 28.015625 43.679688 27.539062 C 43.910156 27.195312 44.121094 26.835938 44.296875 26.460938 C 44.382812 26.285156 44.371094 26.0625 44.398438 25.90625 C 44.210938 25.652344 44.03125 25.644531 43.800781 25.691406 C 43.355469 25.78125 42.988281 26 42.617188 26.242188 C 42.109375 26.574219 41.691406 26.980469 41.5 27.582031 C 41.171875 28.601562 40.417969 29.230469 39.523438 29.71875 C 38.675781 30.183594 37.800781 30.582031 36.851562 30.792969 C 36.410156 30.890625 35.957031 30.949219 35.503906 30.964844 C 33.976562 31.019531 32.453125 31.050781 30.925781 31.074219 C 30.050781 31.089844 29.179688 31.136719 28.3125 31.269531 C 27.832031 31.34375 27.46875 31.582031 27.109375 31.863281 C 26.546875 32.300781 25.992188 32.757812 25.40625 33.160156 C 24.902344 33.507812 24.339844 33.753906 23.730469 33.878906 C 22.875 34.050781 22.011719 34.152344 21.148438 34.265625 C 19.835938 34.4375 18.527344 34.464844 17.210938 34.433594 C 16.25 34.414062 15.398438 34.734375 14.578125 35.199219 C 13.730469 35.675781 13.03125 36.339844 12.289062 36.953125 C 11.484375 37.621094 10.609375 38.207031 9.765625 38.832031 C 9.300781 39.175781 8.839844 39.519531 8.386719 39.878906 C 8.15625 40.066406 7.945312 40.28125 7.738281 40.496094 C 7.257812 41.003906 6.792969 41.527344 6.300781 42.023438 C 6.058594 42.269531 5.765625 42.460938 5.496094 42.675781 C 5.289062 42.691406 5.433594 42.53125 5.390625 42.464844 C 5.75 41.84375 5.988281 41.171875 6.136719 40.472656 C 6.210938 40.136719 6.367188 39.902344 6.675781 39.746094 C 6.894531 39.636719 7.089844 39.476562 7.3125 39.375 C 8.5625 38.796875 9.539062 37.871094 10.484375 36.910156 C 11.441406 35.933594 12.398438 34.960938 13.347656 33.984375 C 13.839844 33.476562 14.476562 33.234375 15.109375 32.988281 C 15.792969 32.71875 16.488281 32.480469 17.160156 32.183594 C 17.742188 31.929688 18.179688 31.527344 18.277344 30.839844 C 18.382812 30.085938 18.007812 29.75 17.320312 30.042969 C 16.664062 30.324219 16.027344 30.316406 15.390625 30.03125 C 14.839844 29.785156 14.507812 29.355469 14.464844 28.742188 C 14.398438 27.839844 14.855469 27.113281 15.644531 26.769531 C 16.289062 26.484375 16.8125 26.804688 16.769531 27.488281 C 16.765625 27.558594 16.769531 27.628906 16.769531 27.703125 C 16.398438 28.265625 15.941406 28.808594 16.253906 29.570312 C 16.855469 29.777344 17.363281 29.644531 17.746094 29.199219 C 18.027344 28.871094 18.246094 28.480469 18.457031 28.101562 C 18.824219 27.4375 19.320312 26.898438 20 26.578125 C 20.523438 26.332031 21.105469 26.265625 21.683594 26.25 C 22.613281 26.222656 23.53125 26.328125 24.457031 26.429688 C 25.707031 26.570312 26.953125 26.757812 28.222656 26.683594 C 29.488281 26.609375 30.714844 26.363281 31.933594 26.050781 C 33 25.773438 34.042969 25.429688 35.042969 24.972656 C 35.660156 24.691406 36.261719 24.363281 36.835938 24.003906 C 38.535156 22.949219 40.101562 21.71875 41.523438 20.304688 C 41.839844 19.992188 42.085938 19.640625 42.183594 19.195312 C 42.316406 18.613281 42.085938 18.152344 41.519531 18.035156 C 40.988281 17.925781 40.453125 17.847656 39.910156 17.804688 C 38.082031 17.648438 36.261719 17.429688 34.539062 16.730469 C 33.902344 16.472656 33.433594 16.003906 32.96875 15.53125 C 32.792969 15.351562 32.644531 15.148438 32.480469 14.957031 C 32.507812 14.929688 32.53125 14.90625 32.550781 14.878906 C 32.621094 14.917969 32.695312 14.945312 32.761719 14.992188 C 33.085938 15.226562 33.402344 15.480469 33.734375 15.703125 C 34.640625 16.304688 35.671875 16.574219 36.726562 16.75 C 37.636719 16.90625 38.566406 16.972656 39.484375 17.082031 C 39.953125 17.140625 40.417969 17.203125 40.886719 17.261719 C 40.957031 17.273438 41.027344 17.277344 41.097656 17.28125 C 41.785156 17.320312 41.984375 17.167969 42.152344 16.480469 C 42.09375 15.855469 41.683594 15.476562 40.769531 15.394531 C 39.6875 15.296875 38.605469 15.246094 37.523438 15.167969 C 36.421875 15.089844 35.328125 14.949219 34.285156 14.589844 C 33.691406 14.382812 33.203125 13.972656 32.996094 13.324219 "/>
</g>
</svg>
