<?xml version="1.0" encoding="UTF-8"?>
<svg xmlns="http://www.w3.org/2000/svg" xmlns:xlink="http://www.w3.org/1999/xlink" width="56pt" height="56pt" viewBox="0 0 56 56" version="1.1">
<defs>
<clipPath id="clip1">
  <path d="M 3 7 L 53 7 L 53 49 L 3 49 Z M 3 7 "/>
</clipPath>
<clipPath id="clip2">
  <path d="M 29.136719 41.511719 C 32.203125 40.082031 33.71875 38.253906 33.765625 35.421875 C 33.8125 32.429688 33.96875 29.425781 33.761719 26.449219 C 33.363281 20.753906 35.734375 17.414062 41.878906 15.46875 C 41.316406 17.25 40.546875 19.003906 40.253906 20.835938 C 39.964844 22.636719 40.199219 24.515625 40.132812 26.359375 C 40.050781 28.582031 40.050781 30.824219 39.742188 33.023438 C 38.96875 38.542969 35.761719 41.65625 30.277344 42.433594 C 29.992188 42.472656 29.703125 42.46875 29.273438 42.496094 C 29.222656 43.261719 29.144531 44.019531 29.136719 44.777344 C 29.128906 45.414062 29.203125 46.058594 29.261719 47.011719 C 31.5625 44.929688 34.097656 44.15625 36.777344 43.539062 C 43.097656 42.078125 46.171875 38.613281 46.714844 32.269531 C 46.882812 30.285156 46.433594 28.234375 46.179688 26.226562 C 46.027344 25 45.699219 23.792969 45.414062 22.402344 C 46.773438 22.117188 47.570312 22.859375 48.328125 23.507812 C 51.824219 26.488281 52.898438 30.394531 52.304688 34.789062 C 51.695312 39.304688 49.269531 42.53125 44.90625 44.027344 C 42.902344 44.714844 40.796875 45.273438 38.699219 45.480469 C 35.757812 45.773438 32.945312 46.417969 30.316406 47.699219 C 28.683594 48.492188 27.273438 48.558594 25.644531 47.691406 C 23.136719 46.355469 20.410156 45.742188 17.558594 45.519531 C 14.546875 45.28125 11.648438 44.570312 8.953125 43.066406 C 2.335938 39.382812 1.65625 28.164062 7.632812 23.488281 C 8.355469 22.921875 9.222656 22.539062 10.585938 21.742188 C 10.25 23.691406 9.960938 24.984375 9.820312 26.289062 C 9.59375 28.402344 9.257812 30.535156 9.34375 32.644531 C 9.546875 37.761719 12.382812 41.414062 17.304688 42.96875 C 20.421875 43.953125 23.753906 44.304688 26.648438 46.808594 C 26.648438 45.136719 26.648438 43.996094 26.648438 42.714844 C 25.433594 42.417969 24.078125 42.273438 22.882812 41.757812 C 18.765625 39.984375 16.542969 36.761719 16.234375 32.300781 C 16.09375 30.273438 16.148438 28.226562 16.164062 26.1875 C 16.195312 22.523438 16.5 18.820312 14.140625 15.503906 C 16.890625 16.214844 19.09375 17.488281 20.824219 19.515625 C 21.890625 20.757812 22.230469 22.21875 22.210938 23.84375 C 22.160156 27.433594 22.175781 31.027344 22.191406 34.621094 C 22.207031 37.609375 23.59375 39.738281 26.507812 41.324219 C 26.621094 40.457031 26.769531 39.847656 26.769531 39.242188 C 26.78125 30.988281 26.785156 22.734375 26.769531 14.476562 C 26.765625 12.164062 26.296875 11.359375 24.523438 11.03125 C 23.738281 10.886719 22.753906 11.039062 22.050781 11.414062 C 21.136719 11.902344 20.714844 12.890625 21.324219 13.90625 C 21.808594 14.714844 22.59375 15.105469 23.566406 14.652344 C 24.152344 14.378906 24.714844 14.070312 25.382812 13.730469 C 25 16.023438 24.148438 16.886719 22.363281 16.921875 C 20.492188 16.960938 18.949219 15.785156 18.59375 13.933594 C 18.195312 11.875 18.707031 10.066406 20.414062 8.738281 C 22.058594 7.460938 24.308594 7.378906 26.144531 8.554688 C 26.78125 8.964844 27.304688 9.554688 27.820312 10.011719 C 28.96875 9.324219 30.03125 8.523438 31.21875 8.015625 C 33.175781 7.179688 34.839844 8.007812 36.214844 9.394531 C 37.460938 10.652344 37.796875 13.304688 37.050781 14.867188 C 36.441406 16.144531 34.917969 17.003906 33.457031 16.898438 C 31.832031 16.78125 31.050781 16.042969 30.347656 13.71875 C 31.101562 14.078125 31.667969 14.3125 32.199219 14.613281 C 33.304688 15.234375 34.082031 14.78125 34.613281 13.824219 C 35.167969 12.835938 34.675781 11.722656 33.554688 11.210938 C 31.398438 10.222656 29.179688 11.59375 29.15625 14.046875 C 29.105469 20.164062 29.136719 26.285156 29.136719 32.402344 C 29.136719 35.300781 29.136719 38.203125 29.136719 41.511719 Z M 29.136719 41.511719 "/>
</clipPath>
<clipPath id="clip3">
  <path d="M 29.136719 41.511719 C 32.203125 40.082031 33.71875 38.253906 33.765625 35.421875 C 33.8125 32.429688 33.96875 29.425781 33.761719 26.449219 C 33.363281 20.753906 35.734375 17.414062 41.878906 15.46875 C 41.316406 17.25 40.546875 19.003906 40.253906 20.835938 C 39.964844 22.636719 40.199219 24.515625 40.132812 26.359375 C 40.050781 28.582031 40.050781 30.824219 39.742188 33.023438 C 38.96875 38.542969 35.761719 41.65625 30.277344 42.433594 C 29.992188 42.472656 29.703125 42.46875 29.273438 42.496094 C 29.222656 43.261719 29.144531 44.019531 29.136719 44.777344 C 29.128906 45.414062 29.203125 46.058594 29.261719 47.011719 C 31.5625 44.929688 34.097656 44.15625 36.777344 43.539062 C 43.097656 42.078125 46.171875 38.613281 46.714844 32.269531 C 46.882812 30.285156 46.433594 28.234375 46.179688 26.226562 C 46.027344 25 45.699219 23.792969 45.414062 22.402344 C 46.773438 22.117188 47.570312 22.859375 48.328125 23.507812 C 51.824219 26.488281 52.898438 30.394531 52.304688 34.789062 C 51.695312 39.304688 49.269531 42.53125 44.90625 44.027344 C 42.902344 44.714844 40.796875 45.273438 38.699219 45.480469 C 35.757812 45.773438 32.945312 46.417969 30.316406 47.699219 C 28.683594 48.492188 27.273438 48.558594 25.644531 47.691406 C 23.136719 46.355469 20.410156 45.742188 17.558594 45.519531 C 14.546875 45.28125 11.648438 44.570312 8.953125 43.066406 C 2.335938 39.382812 1.65625 28.164062 7.632812 23.488281 C 8.355469 22.921875 9.222656 22.539062 10.585938 21.742188 C 10.25 23.691406 9.960938 24.984375 9.820312 26.289062 C 9.59375 28.402344 9.257812 30.535156 9.34375 32.644531 C 9.546875 37.761719 12.382812 41.414062 17.304688 42.96875 C 20.421875 43.953125 23.753906 44.304688 26.648438 46.808594 C 26.648438 45.136719 26.648438 43.996094 26.648438 42.714844 C 25.433594 42.417969 24.078125 42.273438 22.882812 41.757812 C 18.765625 39.984375 16.542969 36.761719 16.234375 32.300781 C 16.09375 30.273438 16.148438 28.226562 16.164062 26.1875 C 16.195312 22.523438 16.5 18.820312 14.140625 15.503906 C 16.890625 16.214844 19.09375 17.488281 20.824219 19.515625 C 21.890625 20.757812 22.230469 22.21875 22.210938 23.84375 C 22.160156 27.433594 22.175781 31.027344 22.191406 34.621094 C 22.207031 37.609375 23.59375 39.738281 26.507812 41.324219 C 26.621094 40.457031 26.769531 39.847656 26.769531 39.242188 C 26.78125 30.988281 26.785156 22.734375 26.769531 14.476562 C 26.765625 12.164062 26.296875 11.359375 24.523438 11.03125 C 23.738281 10.886719 22.753906 11.039062 22.050781 11.414062 C 21.136719 11.902344 20.714844 12.890625 21.324219 13.90625 C 21.808594 14.714844 22.59375 15.105469 23.566406 14.652344 C 24.152344 14.378906 24.714844 14.070312 25.382812 13.730469 C 25 16.023438 24.148438 16.886719 22.363281 16.921875 C 20.492188 16.960938 18.949219 15.785156 18.59375 13.933594 C 18.195312 11.875 18.707031 10.066406 20.414062 8.738281 C 22.058594 7.460938 24.308594 7.378906 26.144531 8.554688 C 26.78125 8.964844 27.304688 9.554688 27.820312 10.011719 C 28.96875 9.324219 30.03125 8.523438 31.21875 8.015625 C 33.175781 7.179688 34.839844 8.007812 36.214844 9.394531 C 37.460938 10.652344 37.796875 13.304688 37.050781 14.867188 C 36.441406 16.144531 34.917969 17.003906 33.457031 16.898438 C 31.832031 16.78125 31.050781 16.042969 30.347656 13.71875 C 31.101562 14.078125 31.667969 14.3125 32.199219 14.613281 C 33.304688 15.234375 34.082031 14.78125 34.613281 13.824219 C 35.167969 12.835938 34.675781 11.722656 33.554688 11.210938 C 31.398438 10.222656 29.179688 11.59375 29.15625 14.046875 C 29.105469 20.164062 29.136719 26.285156 29.136719 32.402344 C 29.136719 35.300781 29.136719 38.203125 29.136719 41.511719 "/>
</clipPath>
<radialGradient id="radial0" gradientUnits="userSpaceOnUse" cx="0" cy="0" fx="0" fy="0" r="59.6446" gradientTransform="matrix(1,0,0,1,29.1658,61.4191)">
<stop offset="0" style="stop-color:rgb(15.809631%,16.749573%,40.081787%);stop-opacity:1;"/>
<stop offset="0.25" style="stop-color:rgb(15.809631%,16.749573%,40.081787%);stop-opacity:1;"/>
<stop offset="0.273438" style="stop-color:rgb(15.872192%,16.716003%,40.040588%);stop-opacity:1;"/>
<stop offset="0.292969" style="stop-color:rgb(16.19873%,16.53595%,39.81781%);stop-opacity:1;"/>
<stop offset="0.296875" style="stop-color:rgb(16.725159%,16.242981%,39.453125%);stop-opacity:1;"/>
<stop offset="0.300781" style="stop-color:rgb(17.298889%,15.959167%,39.093018%);stop-opacity:1;"/>
<stop offset="0.304688" style="stop-color:rgb(18.016052%,15.698242%,38.739014%);stop-opacity:1;"/>
<stop offset="0.308594" style="stop-color:rgb(18.826294%,15.452576%,38.389587%);stop-opacity:1;"/>
<stop offset="0.3125" style="stop-color:rgb(19.602966%,15.231323%,38.041687%);stop-opacity:1;"/>
<stop offset="0.316406" style="stop-color:rgb(20.321655%,15.052795%,37.692261%);stop-opacity:1;"/>
<stop offset="0.320312" style="stop-color:rgb(21.005249%,14.901733%,37.34436%);stop-opacity:1;"/>
<stop offset="0.324219" style="stop-color:rgb(21.697998%,14.73999%,36.975098%);stop-opacity:1;"/>
<stop offset="0.328125" style="stop-color:rgb(22.40448%,14.562988%,36.573792%);stop-opacity:1;"/>
<stop offset="0.332031" style="stop-color:rgb(23.112488%,14.382935%,36.160278%);stop-opacity:1;"/>
<stop offset="0.335938" style="stop-color:rgb(23.851013%,14.21051%,35.766602%);stop-opacity:1;"/>
<stop offset="0.339844" style="stop-color:rgb(24.641418%,14.047241%,35.401917%);stop-opacity:1;"/>
<stop offset="0.34375" style="stop-color:rgb(25.439453%,13.891602%,35.047913%);stop-opacity:1;"/>
<stop offset="0.347656" style="stop-color:rgb(26.210022%,13.755798%,34.736633%);stop-opacity:1;"/>
<stop offset="0.351562" style="stop-color:rgb(26.954651%,13.642883%,34.477234%);stop-opacity:1;"/>
<stop offset="0.355469" style="stop-color:rgb(27.688599%,13.537598%,34.22699%);stop-opacity:1;"/>
<stop offset="0.359375" style="stop-color:rgb(28.463745%,13.400269%,33.940125%);stop-opacity:1;"/>
<stop offset="0.363281" style="stop-color:rgb(29.28009%,13.22937%,33.618164%);stop-opacity:1;"/>
<stop offset="0.367188" style="stop-color:rgb(30.09491%,13.059998%,33.294678%);stop-opacity:1;"/>
<stop offset="0.371094" style="stop-color:rgb(30.975342%,12.867737%,32.965088%);stop-opacity:1;"/>
<stop offset="0.375" style="stop-color:rgb(31.913757%,12.657166%,32.63092%);stop-opacity:1;"/>
<stop offset="0.378906" style="stop-color:rgb(32.835388%,12.45575%,32.304382%);stop-opacity:1;"/>
<stop offset="0.382812" style="stop-color:rgb(33.706665%,12.294006%,32.014465%);stop-opacity:1;"/>
<stop offset="0.386719" style="stop-color:rgb(34.536743%,12.165833%,31.752014%);stop-opacity:1;"/>
<stop offset="0.390625" style="stop-color:rgb(35.359192%,12.051392%,31.488037%);stop-opacity:1;"/>
<stop offset="0.394531" style="stop-color:rgb(36.175537%,11.978149%,31.219482%);stop-opacity:1;"/>
<stop offset="0.398438" style="stop-color:rgb(36.985779%,11.930847%,30.944824%);stop-opacity:1;"/>
<stop offset="0.402344" style="stop-color:rgb(37.788391%,11.857605%,30.679321%);stop-opacity:1;"/>
<stop offset="0.40625" style="stop-color:rgb(38.581848%,11.71875%,30.438232%);stop-opacity:1;"/>
<stop offset="0.410156" style="stop-color:rgb(39.373779%,11.543274%,30.207825%);stop-opacity:1;"/>
<stop offset="0.414062" style="stop-color:rgb(40.162659%,11.390686%,29.962158%);stop-opacity:1;"/>
<stop offset="0.417969" style="stop-color:rgb(40.948486%,11.279297%,29.689026%);stop-opacity:1;"/>
<stop offset="0.421875" style="stop-color:rgb(41.734314%,11.186218%,29.405212%);stop-opacity:1;"/>
<stop offset="0.425781" style="stop-color:rgb(42.512512%,11.131287%,29.164124%);stop-opacity:1;"/>
<stop offset="0.429688" style="stop-color:rgb(43.284607%,11.125183%,28.982544%);stop-opacity:1;"/>
<stop offset="0.433594" style="stop-color:rgb(44.056702%,11.135864%,28.816223%);stop-opacity:1;"/>
<stop offset="0.4375" style="stop-color:rgb(44.8349%,11.09314%,28.594971%);stop-opacity:1;"/>
<stop offset="0.441406" style="stop-color:rgb(45.622253%,10.983276%,28.309631%);stop-opacity:1;"/>
<stop offset="0.445312" style="stop-color:rgb(46.409607%,10.861206%,28.010559%);stop-opacity:1;"/>
<stop offset="0.449219" style="stop-color:rgb(47.160339%,10.760498%,27.742004%);stop-opacity:1;"/>
<stop offset="0.453125" style="stop-color:rgb(47.871399%,10.682678%,27.502441%);stop-opacity:1;"/>
<stop offset="0.457031" style="stop-color:rgb(48.583984%,10.606384%,27.26593%);stop-opacity:1;"/>
<stop offset="0.460938" style="stop-color:rgb(49.295044%,10.540771%,27.073669%);stop-opacity:1;"/>
<stop offset="0.464844" style="stop-color:rgb(50.009155%,10.487366%,26.924133%);stop-opacity:1;"/>
<stop offset="0.46875" style="stop-color:rgb(50.727844%,10.43396%,26.763916%);stop-opacity:1;"/>
<stop offset="0.472656" style="stop-color:rgb(51.449585%,10.385132%,26.559448%);stop-opacity:1;"/>
<stop offset="0.476562" style="stop-color:rgb(52.177429%,10.343933%,26.318359%);stop-opacity:1;"/>
<stop offset="0.480469" style="stop-color:rgb(52.882385%,10.299683%,26.074219%);stop-opacity:1;"/>
<stop offset="0.484375" style="stop-color:rgb(53.507996%,10.249329%,25.827026%);stop-opacity:1;"/>
<stop offset="0.488281" style="stop-color:rgb(54.083252%,10.194397%,25.579834%);stop-opacity:1;"/>
<stop offset="0.492188" style="stop-color:rgb(54.675293%,10.169983%,25.344849%);stop-opacity:1;"/>
<stop offset="0.496094" style="stop-color:rgb(55.31311%,10.214233%,25.141907%);stop-opacity:1;"/>
<stop offset="0.5" style="stop-color:rgb(55.976868%,10.298157%,24.954224%);stop-opacity:1;"/>
<stop offset="0.503906" style="stop-color:rgb(56.620789%,10.350037%,24.768066%);stop-opacity:1;"/>
<stop offset="0.507812" style="stop-color:rgb(57.225037%,10.342407%,24.591064%);stop-opacity:1;"/>
<stop offset="0.511719" style="stop-color:rgb(57.8125%,10.308838%,24.41864%);stop-opacity:1;"/>
<stop offset="0.515625" style="stop-color:rgb(58.432007%,10.249329%,24.269104%);stop-opacity:1;"/>
<stop offset="0.519531" style="stop-color:rgb(59.098816%,10.148621%,24.153137%);stop-opacity:1;"/>
<stop offset="0.523438" style="stop-color:rgb(59.779358%,10.035706%,24.047852%);stop-opacity:1;"/>
<stop offset="0.527344" style="stop-color:rgb(60.429382%,9.963989%,23.927307%);stop-opacity:1;"/>
<stop offset="0.53125" style="stop-color:rgb(61.039734%,9.945679%,23.794556%);stop-opacity:1;"/>
<stop offset="0.535156" style="stop-color:rgb(61.645508%,9.938049%,23.654175%);stop-opacity:1;"/>
<stop offset="0.539062" style="stop-color:rgb(62.213135%,9.921265%,23.492432%);stop-opacity:1;"/>
<stop offset="0.542969" style="stop-color:rgb(62.738037%,9.896851%,23.309326%);stop-opacity:1;"/>
<stop offset="0.546875" style="stop-color:rgb(63.265991%,9.872437%,23.124695%);stop-opacity:1;"/>
<stop offset="0.550781" style="stop-color:rgb(63.839722%,9.855652%,22.955322%);stop-opacity:1;"/>
<stop offset="0.554688" style="stop-color:rgb(64.456177%,9.844971%,22.801208%);stop-opacity:1;"/>
<stop offset="0.558594" style="stop-color:rgb(65.049744%,9.851074%,22.648621%);stop-opacity:1;"/>
<stop offset="0.5625" style="stop-color:rgb(65.515137%,9.951782%,22.511292%);stop-opacity:1;"/>
<stop offset="0.566406" style="stop-color:rgb(65.873718%,10.128784%,22.387695%);stop-opacity:1;"/>
<stop offset="0.570312" style="stop-color:rgb(66.262817%,10.287476%,22.25647%);stop-opacity:1;"/>
<stop offset="0.574219" style="stop-color:rgb(66.738892%,10.386658%,22.111511%);stop-opacity:1;"/>
<stop offset="0.578125" style="stop-color:rgb(67.276001%,10.444641%,21.955872%);stop-opacity:1;"/>
<stop offset="0.582031" style="stop-color:rgb(67.797852%,10.487366%,21.798706%);stop-opacity:1;"/>
<stop offset="0.585938" style="stop-color:rgb(68.275452%,10.487366%,21.640015%);stop-opacity:1;"/>
<stop offset="0.589844" style="stop-color:rgb(68.728638%,10.467529%,21.482849%);stop-opacity:1;"/>
<stop offset="0.59375" style="stop-color:rgb(69.181824%,10.440063%,21.350098%);stop-opacity:1;"/>
<stop offset="0.597656" style="stop-color:rgb(69.636536%,10.400391%,21.264648%);stop-opacity:1;"/>
<stop offset="0.601562" style="stop-color:rgb(70.091248%,10.35614%,21.19751%);stop-opacity:1;"/>
<stop offset="0.605469" style="stop-color:rgb(70.578003%,10.310364%,21.112061%);stop-opacity:1;"/>
<stop offset="0.609375" style="stop-color:rgb(71.112061%,10.261536%,20.996094%);stop-opacity:1;"/>
<stop offset="0.613281" style="stop-color:rgb(71.661377%,10.212708%,20.869446%);stop-opacity:1;"/>
<stop offset="0.617188" style="stop-color:rgb(72.177124%,10.206604%,20.74585%);stop-opacity:1;"/>
<stop offset="0.621094" style="stop-color:rgb(72.650146%,10.258484%,20.625305%);stop-opacity:1;"/>
<stop offset="0.625" style="stop-color:rgb(73.117065%,10.321045%,20.503235%);stop-opacity:1;"/>
<stop offset="0.628906" style="stop-color:rgb(73.539734%,10.418701%,20.387268%);stop-opacity:1;"/>
<stop offset="0.632812" style="stop-color:rgb(73.919678%,10.552979%,20.278931%);stop-opacity:1;"/>
<stop offset="0.636719" style="stop-color:rgb(74.293518%,10.688782%,20.169067%);stop-opacity:1;"/>
<stop offset="0.640625" style="stop-color:rgb(74.621582%,10.78186%,20.063782%);stop-opacity:1;"/>
<stop offset="0.644531" style="stop-color:rgb(74.905396%,10.83374%,19.961548%);stop-opacity:1;"/>
<stop offset="0.648438" style="stop-color:rgb(75.205994%,10.873413%,19.862366%);stop-opacity:1;"/>
<stop offset="0.652344" style="stop-color:rgb(75.596619%,10.842896%,19.779968%);stop-opacity:1;"/>
<stop offset="0.65625" style="stop-color:rgb(76.063538%,10.754395%,19.711304%);stop-opacity:1;"/>
<stop offset="0.660156" style="stop-color:rgb(76.519775%,10.687256%,19.619751%);stop-opacity:1;"/>
<stop offset="0.664062" style="stop-color:rgb(76.933289%,10.694885%,19.45343%);stop-opacity:1;"/>
<stop offset="0.667969" style="stop-color:rgb(77.316284%,10.757446%,19.235229%);stop-opacity:1;"/>
<stop offset="0.671875" style="stop-color:rgb(77.700806%,10.818481%,19.026184%);stop-opacity:1;"/>
<stop offset="0.675781" style="stop-color:rgb(78.083801%,10.873413%,18.840027%);stop-opacity:1;"/>
<stop offset="0.679688" style="stop-color:rgb(78.468323%,10.925293%,18.667603%);stop-opacity:1;"/>
<stop offset="0.683594" style="stop-color:rgb(78.852844%,10.971069%,18.522644%);stop-opacity:1;"/>
<stop offset="0.6875" style="stop-color:rgb(79.238892%,11.004639%,18.42804%);stop-opacity:1;"/>
<stop offset="0.691406" style="stop-color:rgb(79.621887%,11.032104%,18.354797%);stop-opacity:1;"/>
<stop offset="0.695312" style="stop-color:rgb(79.975891%,11.050415%,18.292236%);stop-opacity:1;"/>
<stop offset="0.699219" style="stop-color:rgb(80.281067%,11.054993%,18.240356%);stop-opacity:1;"/>
<stop offset="0.703125" style="stop-color:rgb(80.569458%,11.054993%,18.19458%);stop-opacity:1;"/>
<stop offset="0.707031" style="stop-color:rgb(80.821228%,11.064148%,18.130493%);stop-opacity:1;"/>
<stop offset="0.710938" style="stop-color:rgb(81.025696%,11.088562%,18.045044%);stop-opacity:1;"/>
<stop offset="0.714844" style="stop-color:rgb(81.222534%,11.116028%,17.953491%);stop-opacity:1;"/>
<stop offset="0.71875" style="stop-color:rgb(81.417847%,11.143494%,17.863464%);stop-opacity:1;"/>
<stop offset="0.722656" style="stop-color:rgb(81.613159%,11.169434%,17.771912%);stop-opacity:1;"/>
<stop offset="0.726562" style="stop-color:rgb(81.811523%,11.196899%,17.678833%);stop-opacity:1;"/>
<stop offset="0.730469" style="stop-color:rgb(82.058716%,11.224365%,17.555237%);stop-opacity:1;"/>
<stop offset="0.734375" style="stop-color:rgb(82.351685%,11.250305%,17.398071%);stop-opacity:1;"/>
<stop offset="0.738281" style="stop-color:rgb(82.644653%,11.276245%,17.247009%);stop-opacity:1;"/>
<stop offset="0.742188" style="stop-color:rgb(82.939148%,11.294556%,17.120361%);stop-opacity:1;"/>
<stop offset="0.746094" style="stop-color:rgb(83.232117%,11.308289%,17.016602%);stop-opacity:1;"/>
<stop offset="0.75" style="stop-color:rgb(83.526611%,11.31897%,16.928101%);stop-opacity:1;"/>
<stop offset="0.753906" style="stop-color:rgb(83.81958%,11.314392%,16.891479%);stop-opacity:1;"/>
<stop offset="0.757812" style="stop-color:rgb(84.112549%,11.302185%,16.893005%);stop-opacity:1;"/>
<stop offset="0.761719" style="stop-color:rgb(84.387207%,11.288452%,16.879272%);stop-opacity:1;"/>
<stop offset="0.765625" style="stop-color:rgb(84.608459%,11.273193%,16.827393%);stop-opacity:1;"/>
<stop offset="0.769531" style="stop-color:rgb(84.803772%,11.25946%,16.751099%);stop-opacity:1;"/>
<stop offset="0.773438" style="stop-color:rgb(84.999084%,11.251831%,16.685486%);stop-opacity:1;"/>
<stop offset="0.777344" style="stop-color:rgb(85.197449%,11.25946%,16.636658%);stop-opacity:1;"/>
<stop offset="0.78125" style="stop-color:rgb(85.395813%,11.274719%,16.593933%);stop-opacity:1;"/>
<stop offset="0.785156" style="stop-color:rgb(85.562134%,11.288452%,16.526794%);stop-opacity:1;"/>
<stop offset="0.789062" style="stop-color:rgb(85.678101%,11.302185%,16.421509%);stop-opacity:1;"/>
<stop offset="0.792969" style="stop-color:rgb(85.775757%,11.315918%,16.30249%);stop-opacity:1;"/>
<stop offset="0.796875" style="stop-color:rgb(85.874939%,11.323547%,16.203308%);stop-opacity:1;"/>
<stop offset="0.800781" style="stop-color:rgb(85.972595%,11.323547%,16.133118%);stop-opacity:1;"/>
<stop offset="0.804688" style="stop-color:rgb(86.070251%,11.323547%,16.067505%);stop-opacity:1;"/>
<stop offset="0.808594" style="stop-color:rgb(86.218262%,11.375427%,16.030884%);stop-opacity:1;"/>
<stop offset="0.8125" style="stop-color:rgb(86.418152%,11.480713%,16.02478%);stop-opacity:1;"/>
<stop offset="0.816406" style="stop-color:rgb(86.671448%,11.590576%,15.988159%);stop-opacity:1;"/>
<stop offset="0.824219" style="stop-color:rgb(86.920166%,11.645508%,15.887451%);stop-opacity:1;"/>
<stop offset="0.832031" style="stop-color:rgb(87.117004%,11.645508%,15.756226%);stop-opacity:1;"/>
<stop offset="0.839844" style="stop-color:rgb(87.313843%,11.645508%,15.623474%);stop-opacity:1;"/>
<stop offset="0.847656" style="stop-color:rgb(87.530518%,11.645508%,15.507507%);stop-opacity:1;"/>
<stop offset="0.855469" style="stop-color:rgb(87.850952%,11.64856%,15.466309%);stop-opacity:1;"/>
<stop offset="0.863281" style="stop-color:rgb(88.174438%,11.650085%,15.428162%);stop-opacity:1;"/>
<stop offset="0.871094" style="stop-color:rgb(88.395691%,11.647034%,15.332031%);stop-opacity:1;"/>
<stop offset="0.878906" style="stop-color:rgb(88.600159%,11.584473%,15.2771%);stop-opacity:1;"/>
<stop offset="0.890625" style="stop-color:rgb(88.74054%,11.401367%,15.283203%);stop-opacity:1;"/>
<stop offset="0.902344" style="stop-color:rgb(88.873291%,11.262512%,15.283203%);stop-opacity:1;"/>
<stop offset="0.914062" style="stop-color:rgb(88.977051%,11.247253%,15.272522%);stop-opacity:1;"/>
<stop offset="0.921875" style="stop-color:rgb(89.117432%,11.227417%,15.255737%);stop-opacity:1;"/>
<stop offset="0.941406" style="stop-color:rgb(89.260864%,11.341858%,15.222168%);stop-opacity:1;"/>
<stop offset="0.953125" style="stop-color:rgb(89.399719%,11.485291%,15.184021%);stop-opacity:1;"/>
<stop offset="0.976562" style="stop-color:rgb(89.543152%,11.49292%,15.164185%);stop-opacity:1;"/>
<stop offset="1" style="stop-color:rgb(89.553833%,11.491394%,15.162659%);stop-opacity:1;"/>
</radialGradient>
</defs>
<g id="surface1">
<rect x="0" y="0" width="56" height="56" style="fill:rgb(95.66803%,95.779419%,96.777344%);fill-opacity:1;stroke:none;"/>
<g clip-path="url(#clip1)" clip-rule="nonzero">
<g clip-path="url(#clip2)" clip-rule="nonzero">
<g clip-path="url(#clip3)" clip-rule="nonzero">
<path style=" stroke:none;fill-rule:nonzero;fill:url(#radial0);" d="M 1.65625 7.179688 L 1.65625 48.558594 L 52.898438 48.558594 L 52.898438 7.179688 Z M 1.65625 7.179688 "/>
</g>
</g>
</g>
</g>
</svg>
