<?xml version="1.0" encoding="UTF-8"?>
<svg xmlns="http://www.w3.org/2000/svg" xmlns:xlink="http://www.w3.org/1999/xlink" width="56pt" height="56pt" viewBox="0 0 56 56" version="1.1">
<g id="surface1">
<rect x="0" y="0" width="56" height="56" style="fill:rgb(36.637878%,6.851196%,21.853638%);fill-opacity:1;stroke:none;"/>
<path style=" stroke:none;fill-rule:nonzero;fill:rgb(100%,100%,100%);fill-opacity:1;" d="M 56.414062 27.007812 C 56.449219 27.847656 56.441406 28.683594 56.398438 29.503906 C 48.214844 29.828125 40.460938 30.320312 40.460938 30.875 C 40.460938 31.417969 48.042969 31.90625 56.128906 32.226562 C 55.988281 33.160156 55.804688 34.082031 55.582031 34.976562 C 47.609375 35.300781 40.210938 35.785156 40.210938 36.324219 C 40.210938 36.84375 47.117188 37.308594 54.765625 37.636719 C 54.417969 38.613281 54.019531 39.558594 53.570312 40.46875 C 47.003906 40.785156 41.574219 41.210938 41.574219 41.667969 C 41.574219 42.101562 46.320312 42.492188 52.296875 42.800781 C 51.960938 43.347656 51.613281 43.882812 51.242188 44.390625 C 50.855469 44.941406 50.433594 45.488281 49.980469 46.023438 C 46.246094 46.308594 43.683594 46.628906 43.683594 46.972656 C 43.683594 47.273438 45.519531 47.550781 48.347656 47.796875 C 46.804688 49.328125 44.980469 50.753906 42.828125 52 C 42.828125 52 40.292969 49.820312 38.203125 47.269531 C 36.335938 44.996094 32.378906 39.007812 31.449219 37.664062 C 30.515625 36.324219 29.902344 35.929688 28.8125 36.320312 C 27.351562 36.839844 25.65625 37.09375 25.132812 37.09375 C 24.613281 37.09375 24.328125 36.894531 25.203125 36.546875 C 26.074219 36.195312 29.519531 34.566406 31.21875 31.203125 C 33.121094 27.414062 31.449219 22.183594 31.449219 22.183594 C 30.808594 24.976562 29.351562 26.023438 29.351562 26.023438 C 29.824219 23.429688 29.3125 21.070312 28.027344 19.417969 L 27.316406 22.703125 C 27.316406 22.703125 26.863281 22.683594 25.761719 23.613281 C 24.652344 24.546875 24.347656 25.90625 24.347656 25.90625 C 25.21875 26.257812 26.265625 25.382812 26.265625 25.382812 C 24.929688 30.390625 23.011719 34.460938 21.613281 36.617188 C 20.214844 38.773438 19.0625 39.585938 17.660156 40.152344 C 16.476562 40.628906 16.089844 40.074219 16.089844 40.074219 C 15.054688 39.175781 14.28125 38.363281 13.476562 37.390625 C 13.476562 37.390625 13.414062 37.273438 13.632812 37.28125 C 14.210938 37.285156 15.230469 36.304688 15.457031 35.894531 C 15.714844 35.429688 15.6875 35.070312 15.554688 35.042969 C 15.429688 35.023438 15.207031 35.394531 14.101562 36.09375 C 12.996094 36.792969 12.488281 36.308594 12.121094 35.917969 C 11.839844 35.609375 12.113281 35.226562 12.296875 34.984375 C 12.460938 34.773438 18.304688 23.878906 33.761719 12.433594 C 54.023438 -2.566406 66.960938 -6.613281 67.699219 -6.90625 C 68.1875 -7.101562 68.988281 -7.351562 69.167969 -7.171875 C 69.371094 -6.960938 69.472656 -6.789062 69.441406 -6.546875 C 69.417969 -6.300781 69.285156 -6.175781 68.351562 -5.761719 C 60.570312 -2.335938 51.492188 3.371094 46.339844 6.695312 C 39.996094 9.785156 33.9375 14.199219 33.71875 14.308594 C 33.230469 14.609375 33.589844 15.046875 33.886719 14.863281 C 44.59375 7.738281 57.15625 2.886719 71.027344 -1.085938 C 71.695312 -1.277344 72.054688 -1.277344 72.167969 -1.132812 C 72.292969 -0.96875 72.34375 -0.78125 72.363281 -0.578125 C 72.386719 -0.324219 72.171875 -0.191406 71.605469 0.0351562 C 56.695312 5.574219 45.707031 10.71875 38.640625 15.46875 C 38.640625 15.46875 37.90625 15.914062 37.894531 16.421875 C 37.894531 16.613281 38.285156 16.640625 38.285156 16.640625 C 41.832031 16.707031 46.558594 16.910156 48.804688 17.042969 C 48.804688 17.042969 48.488281 18.183594 46.335938 19.101562 C 44.667969 19.8125 43.132812 19.699219 41.605469 19.710938 C 41.265625 19.707031 40.976562 20.046875 41.25 20.414062 C 41.386719 20.59375 44.628906 25.816406 56.414062 27.007812 "/>
</g>
</svg>
