<?xml version="1.0" encoding="UTF-8"?>
<svg xmlns="http://www.w3.org/2000/svg" xmlns:xlink="http://www.w3.org/1999/xlink" width="56pt" height="56pt" viewBox="0 0 56 56" version="1.1">
<g id="surface1">
<rect x="0" y="0" width="56" height="56" style="fill:rgb(95.66803%,95.779419%,96.777344%);fill-opacity:1;stroke:none;"/>
<path style=" stroke:none;fill-rule:nonzero;fill:rgb(14.823914%,28.233337%,61.044312%);fill-opacity:1;" d="M 21.984375 46.660156 C 22.777344 45.90625 23.570312 45.15625 24.363281 44.40625 C 24.824219 43.964844 25.277344 43.519531 25.746094 43.085938 C 27.421875 41.539062 29.117188 40.019531 30.773438 38.453125 C 33.085938 36.257812 35.371094 34.023438 37.332031 31.492188 C 37.996094 30.636719 38.632812 29.742188 38.988281 28.691406 C 39.1875 28.101562 39.195312 27.539062 38.929688 26.972656 C 38.421875 25.894531 37.714844 24.945312 36.960938 24.035156 C 35.242188 21.960938 33.390625 20.015625 31.449219 18.152344 C 29.554688 16.339844 27.628906 14.566406 25.695312 12.796875 C 24.390625 11.597656 23.042969 10.441406 21.714844 9.265625 C 21.765625 9.214844 21.820312 9.164062 21.871094 9.117188 C 22.75 9.625 23.65625 10.09375 24.511719 10.648438 C 27.730469 12.730469 30.9375 14.828125 34.136719 16.941406 C 36.367188 18.417969 38.585938 19.910156 40.792969 21.421875 C 42.726562 22.742188 44.613281 24.128906 46.296875 25.761719 C 46.925781 26.367188 47.441406 27.089844 48.011719 27.757812 C 48.011719 27.851562 48.011719 27.941406 48.011719 28.03125 C 47.046875 29.195312 45.9375 30.207031 44.769531 31.15625 C 41.128906 34.109375 37.320312 36.832031 33.421875 39.433594 C 29.867188 41.804688 26.289062 44.136719 22.714844 46.484375 C 22.488281 46.632812 22.242188 46.75 22.003906 46.882812 C 21.996094 46.808594 21.992188 46.734375 21.984375 46.660156 "/>
<path style=" stroke:none;fill-rule:nonzero;fill:rgb(20.727539%,52.574158%,67.657471%);fill-opacity:1;" d="M 15.5625 11.582031 C 16.203125 11.914062 16.875 12.203125 17.484375 12.585938 C 19.847656 14.0625 22.207031 15.546875 24.539062 17.078125 C 28.066406 19.394531 31.492188 21.855469 34.835938 24.429688 C 35.773438 25.148438 36.660156 25.933594 37.539062 26.722656 C 37.925781 27.070312 38.234375 27.496094 38.578125 27.882812 C 38.457031 28.378906 38.152344 28.734375 37.839844 29.042969 C 37.046875 29.828125 36.234375 30.597656 35.386719 31.3125 C 33.351562 33.027344 31.144531 34.507812 28.957031 36.015625 C 27.726562 36.859375 26.445312 37.640625 25.207031 38.480469 C 22.804688 40.109375 20.421875 41.765625 18.019531 43.402344 C 17.496094 43.757812 16.9375 44.0625 16.390625 44.382812 C 16.308594 44.429688 16.199219 44.433594 15.964844 44.492188 C 16.148438 44.261719 16.226562 44.132812 16.335938 44.03125 C 16.902344 43.46875 17.46875 42.90625 18.046875 42.355469 C 18.902344 41.535156 19.777344 40.734375 20.621094 39.90625 C 23.097656 37.476562 25.574219 35.050781 28.019531 32.59375 C 28.847656 31.757812 29.621094 30.855469 30.15625 29.789062 C 30.511719 29.089844 30.777344 28.34375 30.570312 27.566406 C 30.40625 26.960938 30.160156 26.355469 29.828125 25.828125 C 29.410156 25.160156 28.902344 24.535156 28.371094 23.949219 C 27.535156 23.015625 26.660156 22.113281 25.769531 21.234375 C 24.347656 19.820312 22.921875 18.40625 21.445312 17.046875 C 19.6875 15.433594 17.871094 13.882812 16.085938 12.292969 C 15.871094 12.101562 15.707031 11.859375 15.515625 11.636719 C 15.53125 11.617188 15.546875 11.601562 15.5625 11.582031 "/>
<path style=" stroke:none;fill-rule:nonzero;fill:rgb(27.923584%,61.483765%,86.231995%);fill-opacity:1;" d="M 8.425781 43.367188 C 9.203125 42.640625 9.984375 41.910156 10.765625 41.183594 C 10.863281 41.09375 10.972656 41.011719 11.070312 40.917969 C 13.0625 38.972656 15.089844 37.070312 17.023438 35.074219 C 18.382812 33.671875 19.625 32.160156 20.898438 30.675781 C 21.25 30.269531 21.523438 29.785156 21.820312 29.332031 C 22.359375 28.515625 22.359375 27.671875 21.859375 26.847656 C 21.449219 26.171875 21.027344 25.492188 20.53125 24.882812 C 19.238281 23.285156 17.8125 21.8125 16.320312 20.40625 C 14.648438 18.832031 12.945312 17.289062 11.253906 15.734375 C 10.347656 14.902344 9.4375 14.078125 8.539062 13.242188 C 8.34375 13.058594 8.183594 12.835938 7.988281 12.609375 C 8.3125 12.484375 8.511719 12.679688 8.707031 12.800781 C 10.265625 13.765625 11.828125 14.726562 13.367188 15.722656 C 15.589844 17.160156 17.808594 18.605469 20.011719 20.078125 C 22.273438 21.59375 24.503906 23.148438 26.59375 24.902344 C 27.339844 25.53125 28.074219 26.175781 28.777344 26.851562 C 29.097656 27.164062 29.335938 27.5625 29.597656 27.929688 C 29.65625 28.015625 29.660156 28.144531 29.695312 28.28125 C 29.128906 28.996094 28.46875 29.628906 27.777344 30.214844 C 26.8125 31.039062 25.792969 31.800781 24.789062 32.574219 C 22.851562 34.070312 20.816406 35.429688 18.785156 36.792969 C 16.074219 38.605469 13.382812 40.449219 10.675781 42.265625 C 9.945312 42.753906 9.175781 43.179688 8.425781 43.640625 C 8.425781 43.546875 8.425781 43.460938 8.425781 43.367188 "/>
</g>
</svg>
