<?xml version="1.0" encoding="UTF-8"?>
<svg xmlns="http://www.w3.org/2000/svg" xmlns:xlink="http://www.w3.org/1999/xlink" width="56pt" height="56pt" viewBox="0 0 56 56" version="1.1">
<g id="surface1">
<rect x="0" y="0" width="56" height="56" style="fill:rgb(16.203308%,23.764038%,56.243896%);fill-opacity:1;stroke:none;"/>
<path style=" stroke:none;fill-rule:evenodd;fill:rgb(100%,100%,100%);fill-opacity:1;" d="M 52.351562 29.902344 C 52.585938 29.808594 53.105469 29.484375 53.90625 28.925781 L 54 29.632812 C 53.96875 29.65625 53.941406 29.675781 53.910156 29.699219 C 53.742188 29.832031 53.601562 29.941406 53.492188 30.019531 C 53.367188 30.121094 53.234375 30.21875 53.09375 30.3125 L 51.960938 31.078125 C 51.546875 31.34375 51.1875 31.542969 50.886719 31.675781 C 50.589844 31.8125 50.351562 31.878906 50.179688 31.878906 C 49.96875 31.878906 49.785156 31.785156 49.636719 31.605469 C 49.480469 31.433594 49.402344 31.226562 49.402344 30.992188 L 49.402344 30.796875 C 49.402344 30.71875 49.429688 30.597656 49.484375 30.445312 C 49.53125 30.285156 49.601562 30.132812 49.699219 29.984375 C 49.300781 30.34375 48.859375 30.714844 48.367188 31.09375 C 47.867188 31.464844 47.398438 31.652344 46.957031 31.652344 C 46.746094 31.652344 46.578125 31.636719 46.453125 31.605469 C 46.328125 31.578125 46.195312 31.5 46.050781 31.386719 C 45.902344 31.265625 45.792969 31.078125 45.730469 30.820312 L 45.71875 30.667969 C 45.71875 30.472656 45.78125 30.257812 45.898438 30.019531 C 45.921875 29.960938 45.949219 29.90625 45.980469 29.859375 C 45.84375 29.988281 45.738281 30.089844 45.671875 30.152344 C 45.53125 30.28125 45.308594 30.476562 45.011719 30.738281 C 44.707031 30.996094 44.390625 31.242188 44.058594 31.476562 C 43.726562 31.722656 43.371094 31.84375 42.984375 31.84375 C 42.742188 31.84375 42.558594 31.78125 42.445312 31.652344 C 42.316406 31.527344 42.238281 31.4375 42.207031 31.371094 C 42.183594 31.332031 42.167969 31.292969 42.152344 31.261719 C 42.144531 31.246094 42.140625 31.230469 42.132812 31.21875 L 42.089844 30.832031 L 42.089844 30.597656 L 42.132812 30.277344 L 42.230469 29.949219 L 42.40625 29.558594 L 42.371094 29.527344 L 41.734375 30.195312 C 41.648438 30.28125 41.542969 30.382812 41.425781 30.488281 C 41.308594 30.601562 41.175781 30.714844 41.039062 30.832031 C 40.652344 31.214844 40.273438 31.40625 39.90625 31.40625 C 39.585938 31.40625 39.304688 31.253906 39.082031 30.941406 C 38.867188 30.617188 38.761719 30.273438 38.761719 29.910156 C 38.761719 29.839844 38.765625 29.769531 38.769531 29.699219 L 38.015625 30.277344 L 36.707031 31.207031 C 36.226562 31.542969 35.804688 31.710938 35.433594 31.710938 C 35.1875 31.710938 35.015625 31.644531 34.910156 31.511719 C 34.808594 31.386719 34.742188 31.273438 34.714844 31.171875 C 34.675781 31.070312 34.65625 30.957031 34.65625 30.832031 C 34.65625 30.535156 34.699219 30.292969 34.785156 30.113281 C 34.878906 29.878906 35.003906 29.636719 35.152344 29.382812 L 35.773438 28.375 L 35.753906 28.351562 L 33.320312 30.570312 C 33.1875 30.703125 33.058594 30.832031 32.929688 30.949219 C 32.804688 31.066406 32.660156 31.1875 32.496094 31.3125 C 32.332031 31.445312 32.132812 31.511719 31.894531 31.511719 C 31.699219 31.511719 31.542969 31.453125 31.421875 31.335938 C 31.296875 31.21875 31.234375 31.070312 31.234375 30.890625 C 31.234375 30.65625 31.304688 30.398438 31.445312 30.113281 L 31.824219 29.375 L 32.214844 28.785156 L 32.601562 28.152344 L 32.660156 28.042969 C 32.660156 27.996094 32.628906 27.957031 32.554688 27.925781 C 32.507812 27.925781 32.394531 28.007812 32.214844 28.160156 L 31.585938 28.796875 L 30.609375 29.839844 L 29.726562 30.867188 L 29.261719 31.359375 C 29.195312 31.40625 29.085938 31.441406 28.933594 31.46875 C 28.628906 31.46875 28.390625 31.269531 28.226562 30.878906 C 28.0625 30.496094 27.980469 30.113281 27.980469 29.726562 C 27.980469 29.664062 27.980469 29.601562 27.984375 29.542969 L 23.921875 34.003906 L 23.417969 34.582031 C 23.328125 34.691406 23.21875 34.753906 23.082031 34.773438 C 22.957031 34.773438 22.855469 34.652344 22.769531 34.417969 C 22.679688 34.183594 22.636719 33.96875 22.636719 33.773438 C 22.636719 33.628906 22.683594 33.46875 22.777344 33.285156 L 23.050781 32.84375 L 25.09375 29.40625 L 25.070312 29.375 L 23.390625 30.6875 C 23.167969 30.855469 22.988281 30.984375 22.835938 31.078125 C 22.679688 31.171875 22.566406 31.226562 22.507812 31.242188 C 22.269531 31.242188 22.007812 31.074219 21.726562 30.734375 C 21.480469 30.445312 21.34375 30.085938 21.3125 29.652344 L 19.675781 31.054688 C 19.078125 31.554688 18.519531 31.808594 18.003906 31.808594 C 17.679688 31.808594 17.351562 31.683594 17.015625 31.445312 C 16.722656 31.199219 16.324219 30.691406 15.820312 29.925781 L 15.628906 30.113281 L 15.371094 30.40625 L 15.066406 30.867188 C 15.046875 30.898438 15.019531 30.953125 14.984375 31.03125 C 14.9375 31.105469 14.902344 31.160156 14.875 31.183594 C 14.859375 31.222656 14.816406 31.277344 14.746094 31.347656 C 14.695312 31.371094 14.601562 31.390625 14.464844 31.40625 C 14.195312 31.40625 14.019531 31.148438 13.933594 30.628906 C 13.882812 30.367188 13.847656 30.144531 13.824219 29.964844 C 13.53125 30.476562 10.09375 32.898438 9.640625 31.027344 C 9.386719 29.988281 9.972656 29.101562 10.511719 28.28125 C 10.753906 27.917969 10.984375 27.566406 11.128906 27.222656 C 8.980469 29.253906 6.402344 31.019531 4.117188 31.761719 C 3.382812 32 2.503906 31.847656 2.066406 31.285156 C 1.554688 30.632812 4.15625 28.707031 5.003906 28.949219 C 5.285156 28.933594 5.4375 29.046875 5.59375 29.167969 C 5.835938 29.351562 6.082031 29.542969 6.839844 29.21875 C 7.933594 28.746094 9.289062 27.894531 10.285156 27.085938 C 10.398438 26.976562 10.578125 26.753906 10.503906 26.800781 C 9.59375 27.425781 7.332031 28.675781 6.339844 27.78125 C 3.929688 25.589844 7.335938 22.570312 8.804688 21.925781 C 10.855469 21.023438 11.460938 20.953125 12.925781 21.019531 C 13.066406 21.023438 13.476562 21.078125 13.828125 21.226562 C 14.273438 21.414062 14.664062 21.710938 14.710938 21.792969 C 15.074219 22.394531 14.316406 22.839844 13.734375 23.183594 C 13.605469 23.257812 13.488281 23.324219 13.394531 23.390625 C 12.636719 23.898438 12.53125 23.5 12.570312 23.179688 C 12.582031 23.082031 12.621094 22.992188 12.648438 22.9375 C 12.667969 22.898438 12.679688 22.878906 12.660156 22.882812 C 10.648438 22.476562 8.21875 23.902344 7.40625 25.175781 C 6.363281 26.828125 7.363281 27.816406 10.792969 25.765625 C 10.902344 25.734375 11.292969 25.378906 11.738281 24.972656 C 12.242188 24.511719 12.820312 23.984375 13.132812 23.800781 C 14.671875 24.511719 13.777344 26.144531 13.441406 26.519531 C 13.191406 26.796875 11.300781 29.585938 11.636719 29.902344 C 11.964844 30.207031 13.648438 28.980469 13.984375 28.621094 C 13.992188 28.609375 14.007812 28.601562 14.015625 28.597656 C 14.125 28.34375 14.269531 28.074219 14.449219 27.785156 C 14.890625 27.097656 15.265625 26.660156 15.574219 26.472656 C 15.871094 26.285156 16.070312 26.175781 16.171875 26.152344 L 16.550781 26.105469 L 16.964844 26.082031 C 17.15625 26.082031 17.292969 26.101562 17.378906 26.152344 C 17.445312 26.167969 17.480469 26.257812 17.480469 26.421875 C 17.480469 26.523438 17.417969 26.65625 17.292969 26.808594 L 16.953125 27.191406 L 16.070312 27.960938 C 15.847656 28.144531 15.636719 28.328125 15.433594 28.515625 C 15.21875 28.710938 15.046875 28.882812 14.914062 29.03125 L 14.886719 29.445312 C 15.070312 29.277344 15.289062 29.085938 15.546875 28.867188 C 15.808594 28.648438 16.035156 28.457031 16.230469 28.292969 L 17.421875 27.34375 L 18.449219 26.632812 C 18.558594 26.5625 18.707031 26.472656 18.886719 26.363281 C 19.066406 26.253906 19.230469 26.160156 19.367188 26.082031 C 19.496094 26.027344 19.609375 25.980469 19.703125 25.953125 C 19.796875 25.929688 19.894531 25.910156 19.996094 25.894531 C 20.230469 25.894531 20.425781 26.011719 20.574219 26.242188 C 20.714844 26.480469 20.785156 26.730469 20.785156 27 C 20.785156 27.101562 20.652344 27.238281 20.386719 27.410156 C 20.105469 27.582031 19.851562 27.667969 19.617188 27.667969 C 19.515625 27.667969 19.457031 27.636719 19.441406 27.574219 C 19.441406 27.527344 19.375 27.480469 19.238281 27.433594 C 18.949219 27.433594 18.507812 27.621094 17.917969 28 C 17.328125 28.375 16.917969 28.71875 16.695312 29.03125 C 16.898438 29.082031 17.09375 29.1875 17.28125 29.359375 L 17.695312 29.808594 L 17.90625 30.101562 L 18.132812 30.335938 C 18.226562 30.429688 18.410156 30.476562 18.6875 30.476562 C 18.890625 30.476562 19.164062 30.378906 19.511719 30.183594 C 19.847656 30 20.472656 29.546875 21.394531 28.820312 C 21.554688 28.234375 21.941406 27.621094 22.554688 26.976562 C 23.386719 26.097656 23.96875 25.65625 24.289062 25.65625 C 24.378906 25.65625 24.503906 25.742188 24.667969 25.90625 C 24.824219 26.070312 24.914062 26.222656 24.941406 26.363281 C 24.941406 26.632812 24.738281 26.976562 24.335938 27.398438 C 23.925781 27.820312 23.609375 28.132812 23.390625 28.335938 C 23.164062 28.550781 22.9375 28.746094 22.707031 28.925781 C 22.511719 29.195312 22.410156 29.484375 22.410156 29.808594 C 22.859375 29.746094 23.195312 29.632812 23.417969 29.46875 C 23.628906 29.300781 23.839844 29.128906 24.050781 28.941406 C 24.265625 28.75 24.507812 28.53125 24.785156 28.28125 L 26.402344 26.753906 C 26.949219 26.242188 27.300781 25.96875 27.449219 25.929688 C 27.46875 25.921875 27.484375 25.917969 27.5 25.917969 C 27.59375 25.917969 27.671875 25.996094 27.734375 26.152344 C 27.816406 26.347656 27.855469 26.527344 27.855469 26.695312 C 27.855469 26.824219 27.847656 26.914062 27.84375 26.960938 C 27.824219 27.019531 27.792969 27.09375 27.746094 27.191406 L 27.570312 27.492188 C 27.554688 27.546875 27.445312 27.722656 27.238281 28.023438 L 24.972656 31.371094 L 24.996094 31.398438 L 28.207031 28.566406 C 28.316406 28.292969 28.46875 28.027344 28.660156 27.777344 C 29.109375 27.1875 29.472656 26.792969 29.746094 26.597656 C 30.023438 26.410156 30.289062 26.316406 30.546875 26.316406 C 30.601562 26.324219 30.652344 26.328125 30.695312 26.332031 C 30.789062 26.339844 30.851562 26.347656 30.894531 26.351562 C 30.941406 26.367188 30.996094 26.390625 31.070312 26.421875 C 31.15625 26.421875 31.210938 26.5 31.234375 26.65625 C 31.234375 26.765625 31.179688 26.90625 31.070312 27.082031 L 30.5625 27.703125 L 29.78125 28.574219 L 29.488281 28.960938 C 29.386719 29.085938 29.335938 29.222656 29.335938 29.363281 L 29.382812 29.457031 L 29.441406 29.503906 L 29.558594 29.417969 L 30.488281 28.476562 C 30.773438 28.1875 31.082031 27.894531 31.410156 27.597656 C 31.738281 27.300781 32.207031 26.921875 32.800781 26.457031 C 33.390625 25.996094 33.859375 25.765625 34.207031 25.765625 C 34.394531 25.765625 34.546875 25.828125 34.664062 25.953125 C 34.777344 26.085938 34.832031 26.257812 34.832031 26.472656 C 34.832031 26.738281 34.660156 27.121094 34.324219 27.625 L 33.40625 28.960938 L 33.4375 29 L 36.824219 26.328125 L 37.214844 26.058594 C 37.300781 25.996094 37.414062 25.945312 37.558594 25.894531 L 37.628906 25.964844 C 37.640625 25.972656 37.664062 26.003906 37.699219 26.058594 L 37.871094 26.328125 L 38.042969 26.636719 L 38.144531 26.941406 C 38.144531 27.058594 38.082031 27.207031 37.945312 27.386719 L 37.304688 28.140625 L 36.90625 28.585938 L 36.621094 28.949219 L 36.460938 29.300781 L 36.363281 29.621094 C 36.363281 29.707031 36.402344 29.800781 36.484375 29.910156 C 36.542969 29.976562 36.632812 30.007812 36.742188 30.007812 C 36.894531 29.976562 36.980469 29.957031 37.011719 29.949219 C 37.042969 29.941406 37.09375 29.921875 37.164062 29.890625 C 37.230469 29.867188 37.285156 29.839844 37.335938 29.808594 C 37.378906 29.785156 37.429688 29.757812 37.488281 29.722656 L 37.496094 29.71875 L 38.972656 28.734375 C 39.082031 28.441406 39.226562 28.144531 39.410156 27.847656 C 39.835938 27.148438 40.207031 26.699219 40.519531 26.492188 C 40.824219 26.289062 41.039062 26.175781 41.167969 26.152344 L 41.542969 26.105469 L 41.957031 26.082031 C 42.148438 26.082031 42.285156 26.101562 42.371094 26.152344 C 42.441406 26.167969 42.476562 26.257812 42.476562 26.421875 C 42.476562 26.523438 42.414062 26.65625 42.285156 26.808594 L 41.828125 27.328125 L 41.359375 27.808594 C 41.320312 27.863281 41.136719 28.003906 40.816406 28.230469 C 40.484375 28.46875 40.242188 28.691406 40.09375 28.90625 C 39.945312 29.113281 39.871094 29.359375 39.871094 29.632812 C 39.871094 29.773438 39.910156 29.84375 39.988281 29.855469 C 40.105469 29.855469 40.351562 29.753906 40.71875 29.546875 C 41.082031 29.351562 41.449219 29.101562 41.828125 28.789062 L 43.339844 27.421875 C 43.417969 27.34375 43.550781 27.214844 43.738281 27.03125 C 43.917969 26.859375 44.070312 26.71875 44.191406 26.609375 L 44.203125 26.597656 C 44.308594 26.496094 44.484375 26.363281 44.71875 26.199219 C 45.121094 25.863281 45.386719 25.695312 45.519531 25.695312 C 45.582031 25.695312 45.65625 25.734375 45.742188 25.808594 C 45.839844 25.867188 45.886719 26.105469 45.886719 26.527344 C 45.886719 26.632812 45.871094 26.710938 45.839844 26.765625 C 45.832031 26.820312 45.804688 26.878906 45.773438 26.941406 C 45.722656 27.011719 45.679688 27.070312 45.640625 27.117188 C 45.59375 27.164062 45.53125 27.21875 45.449219 27.28125 C 45.367188 27.351562 45.273438 27.449219 45.15625 27.574219 C 44.945312 27.761719 44.691406 28.042969 44.402344 28.40625 C 44.109375 28.785156 43.925781 29.0625 43.847656 29.246094 C 43.757812 29.433594 43.703125 29.617188 43.679688 29.796875 C 43.679688 30.015625 43.808594 30.125 44.070312 30.125 C 44.289062 30.125 44.574219 30.015625 44.921875 29.796875 L 45.683594 29.253906 L 46.414062 28.6875 L 46.511719 29.351562 L 46.214844 29.636719 C 46.242188 29.621094 46.269531 29.613281 46.296875 29.605469 L 46.628906 29.546875 C 46.730469 29.546875 46.832031 29.582031 46.925781 29.644531 C 47.007812 29.730469 47.066406 29.859375 47.089844 30.042969 L 47.101562 30.375 C 47.101562 30.425781 47.144531 30.46875 47.230469 30.488281 C 47.664062 30.488281 48.074219 30.355469 48.457031 30.09375 C 48.769531 29.847656 49.109375 29.554688 49.472656 29.210938 L 49.292969 29.300781 L 49.058594 29.382812 L 48.621094 29.457031 C 48.324219 29.457031 48.050781 29.359375 47.796875 29.171875 C 47.570312 28.984375 47.453125 28.753906 47.453125 28.476562 C 47.453125 28.394531 47.460938 28.339844 47.476562 28.316406 C 47.53125 27.6875 47.90625 27.109375 48.601562 26.585938 C 49.28125 26.058594 49.765625 25.777344 50.039062 25.742188 L 50.640625 25.695312 C 50.929688 25.695312 51.179688 25.742188 51.394531 25.835938 C 51.488281 25.855469 51.582031 25.894531 51.675781 25.953125 C 51.765625 26.015625 51.84375 26.082031 51.914062 26.152344 C 52.015625 26.027344 52.148438 25.941406 52.300781 25.894531 C 52.324219 25.910156 52.34375 25.921875 52.363281 25.929688 C 52.371094 25.945312 52.402344 25.988281 52.457031 26.058594 L 52.621094 26.328125 L 52.796875 26.632812 L 52.902344 26.9375 C 52.902344 27.039062 52.835938 27.191406 52.703125 27.386719 L 52.070312 28.113281 L 51.664062 28.585938 L 51.394531 28.984375 L 51.207031 29.359375 C 51.160156 29.476562 51.136719 29.625 51.136719 29.796875 C 51.136719 29.875 51.164062 29.953125 51.21875 30.03125 C 51.273438 30.109375 51.363281 30.152344 51.488281 30.152344 Z M 50.652344 27.871094 L 50.933594 27.304688 L 51.027344 26.878906 C 51.027344 26.820312 51.007812 26.753906 50.972656 26.695312 C 50.925781 26.628906 50.882812 26.578125 50.851562 26.542969 L 50.6875 26.515625 L 50.367188 26.550781 L 49.71875 26.847656 C 49.445312 26.984375 49.222656 27.195312 49.058594 27.464844 C 48.90625 27.742188 48.835938 28.023438 48.835938 28.304688 L 48.847656 28.476562 C 48.863281 28.613281 48.976562 28.695312 49.1875 28.726562 C 49.390625 28.726562 49.648438 28.644531 49.957031 28.480469 C 50.261719 28.316406 50.492188 28.109375 50.652344 27.871094 Z M 30.03125 25.847656 L 30.136719 25.847656 L 30.304688 25.824219 C 30.460938 25.730469 30.59375 25.667969 30.703125 25.636719 C 30.75 25.621094 30.804688 25.605469 30.867188 25.585938 C 30.949219 25.5625 31.042969 25.535156 31.152344 25.503906 C 31.332031 25.453125 31.609375 25.402344 31.988281 25.363281 C 32.21875 25.316406 32.359375 25.289062 32.414062 25.28125 C 32.46875 25.28125 32.695312 25.257812 33.097656 25.214844 L 34.109375 25.175781 L 35.683594 25.117188 C 35.832031 25.117188 36.074219 25.117188 36.402344 25.109375 C 36.730469 25.101562 36.984375 25.09375 37.167969 25.09375 L 38.25 25.058594 L 39.078125 24.988281 C 39.226562 24.96875 39.300781 24.921875 39.300781 24.855469 C 39.25 24.742188 39.109375 24.601562 38.886719 24.433594 L 38.207031 23.945312 C 38.03125 23.832031 37.863281 23.777344 37.699219 23.777344 C 37.621094 23.753906 37.527344 23.742188 37.425781 23.742188 L 37.214844 23.742188 L 35.53125 23.800781 L 35.429688 23.816406 C 34.925781 23.878906 34.597656 23.917969 34.441406 23.945312 C 34.277344 23.96875 33.90625 24.027344 33.335938 24.128906 C 32.761719 24.230469 32.171875 24.378906 31.574219 24.574219 C 30.972656 24.78125 30.417969 25.058594 29.914062 25.402344 L 29.867188 25.574219 L 29.84375 25.695312 C 29.867188 25.796875 29.929688 25.847656 30.03125 25.847656 Z M 26.078125 23.890625 L 26.101562 23.890625 Z M 26.078125 23.890625 "/>
</g>
</svg>
