<?xml version="1.0" encoding="UTF-8"?>
<svg xmlns="http://www.w3.org/2000/svg" xmlns:xlink="http://www.w3.org/1999/xlink" width="56pt" height="56pt" viewBox="0 0 56 56" version="1.1">
<g id="surface1">
<rect x="0" y="0" width="56" height="56" style="fill:rgb(17.843628%,30.081177%,64.91394%);fill-opacity:1;stroke:none;"/>
<path style=" stroke:none;fill-rule:evenodd;fill:rgb(100%,100%,100%);fill-opacity:1;" d="M 29.632812 29.460938 L 32.566406 30.691406 C 33.324219 29.460938 33.324219 29.460938 34.550781 29.933594 C 43.917969 33.621094 50.921875 33.339844 54.894531 29.460938 C 51.675781 31.070312 48.460938 31.636719 45.148438 31.351562 C 45.339844 30.5 45.339844 29.554688 45.339844 28.703125 C 45.339844 19.527344 38.527344 11.863281 29.632812 10.824219 C 28.972656 10.726562 28.214844 10.632812 27.457031 10.632812 C 22.445312 10.632812 17.902344 12.714844 14.589844 15.933594 C 13.644531 15.269531 12.605469 14.890625 11.277344 15.078125 C 15.347656 16.972656 17.144531 22.269531 21.683594 21.039062 C 19.132812 20.09375 17.429688 18.296875 15.820312 16.972656 C 18.847656 14.039062 22.914062 12.148438 27.457031 12.148438 C 28.214844 12.148438 28.972656 12.242188 29.632812 12.335938 C 37.675781 13.472656 43.917969 20.378906 43.917969 28.703125 C 43.917969 29.554688 43.824219 30.40625 43.730469 31.164062 C 39.945312 30.691406 36.160156 28.988281 32.28125 26.90625 C 31.242188 26.339844 30.292969 26.148438 29.632812 26.527344 C 28.972656 26.808594 28.5 27.570312 28.308594 28.796875 Z M 29.632812 34.09375 L 32.28125 31.542969 L 30.292969 30.5 L 29.632812 31.164062 L 29.347656 31.449219 C 29.53125 31.535156 29.625 31.800781 29.632812 31.988281 L 29.632812 32.035156 C 29.621094 32.503906 29.246094 32.960938 28.78125 32.960938 C 28.5 32.960938 28.214844 32.769531 28.121094 32.582031 L 26.984375 33.527344 L 28.972656 34.757812 Z M 29.632812 44.976562 C 28.972656 45.164062 28.214844 45.164062 27.457031 45.164062 C 18.375 45.164062 10.902344 37.785156 10.902344 28.703125 C 10.902344 25.488281 11.84375 22.460938 13.457031 20 C 16.101562 22.648438 17.996094 25.582031 19.699219 28.421875 C 20.835938 30.59375 22.347656 31.351562 24.335938 32.296875 C 24.429688 32.109375 24.617188 32.015625 24.804688 32.015625 C 25.09375 32.015625 25.28125 32.296875 25.28125 32.582031 C 25.28125 32.582031 25.28125 32.675781 25.28125 32.769531 C 25.566406 32.960938 25.941406 33.148438 26.324219 33.339844 L 29.441406 30.40625 C 28.972656 30.21875 28.5 30.027344 28.121094 29.839844 C 28.023438 30.027344 27.835938 30.121094 27.644531 30.121094 C 27.363281 30.121094 27.175781 29.933594 27.175781 29.652344 C 27.175781 29.554688 27.175781 29.554688 27.175781 29.460938 C 23.480469 27.664062 20.742188 25.394531 18.46875 23.027344 C 15.441406 19.808594 13.171875 16.5 9.292969 14.417969 L 5.320312 14.417969 C 8.0625 15.742188 10.332031 17.253906 12.222656 18.863281 C 10.425781 21.703125 9.386719 25.105469 9.386719 28.703125 C 9.386719 38.636719 17.523438 46.679688 27.457031 46.679688 C 28.214844 46.679688 28.972656 46.679688 29.632812 46.585938 C 34.363281 46.019531 38.621094 43.558594 41.460938 39.964844 C 41.835938 40.246094 42.214844 40.527344 42.6875 40.8125 L 44.960938 39.300781 L 34.742188 35.421875 L 45.71875 38.542969 L 49.21875 36.464844 C 43.824219 36.367188 38.808594 35.800781 35.214844 34 C 40.226562 35.140625 45.621094 35.421875 51.207031 35.328125 L 55.273438 32.394531 C 47.894531 33.90625 40.605469 33.71875 33.132812 31.542969 L 29.632812 35.230469 C 33.035156 37.5 36.539062 37.5 40.039062 39.207031 C 37.484375 42.328125 33.796875 44.40625 29.632812 44.976562 "/>
</g>
</svg>
