<?xml version="1.0" encoding="UTF-8"?>
<svg xmlns="http://www.w3.org/2000/svg" xmlns:xlink="http://www.w3.org/1999/xlink" width="56pt" height="56pt" viewBox="0 0 56 56" version="1.1">
<g id="surface1">
<rect x="0" y="0" width="56" height="56" style="fill:rgb(95.666504%,95.776367%,96.775818%);fill-opacity:1;stroke:none;"/>
<path style=" stroke:none;fill-rule:evenodd;fill:rgb(16.018677%,35.144043%,65.567017%);fill-opacity:1;" d="M 20.125 30.261719 C 20.125 30.261719 15.394531 28.140625 15.464844 26.9375 C 15.464844 26.796875 15.535156 26.65625 15.605469 26.585938 C 15.605469 26.585938 18.148438 23.832031 22.949219 21.925781 C 26.835938 20.371094 27.753906 20.511719 27.753906 20.511719 C 27.683594 22.277344 28.8125 23.691406 30.648438 24.328125 C 30.648438 24.328125 37.921875 21.996094 42.019531 21.644531 C 47.03125 21.289062 48.796875 23.125 48.796875 23.125 C 48.796875 23.125 52.894531 23.339844 54.304688 24.183594 C 54.304688 24.183594 54.449219 24.328125 54.449219 24.398438 C 54.449219 24.398438 54.449219 24.46875 54.375 24.46875 C 54.164062 24.46875 53.386719 24.257812 52.257812 24.398438 C 49.644531 24.679688 44.910156 25.242188 43.5 26.019531 C 43.5 26.019531 35.875 38.167969 1.554688 37.957031 C 1.554688 37.957031 12.148438 35.625 20.125 30.261719 "/>
<path style=" stroke:none;fill-rule:evenodd;fill:rgb(92.037964%,19.294739%,16.125488%);fill-opacity:1;" d="M 28.386719 18.464844 C 28.671875 18.394531 29.449219 18.535156 29.589844 18.960938 C 29.589844 18.960938 28.460938 18.253906 14.335938 22.773438 C 9.957031 24.183594 3.316406 19.523438 1.554688 18.039062 C 1.554688 18.039062 6.917969 19.453125 28.386719 18.464844 "/>
</g>
</svg>
