<?xml version="1.0" encoding="UTF-8"?>
<svg xmlns="http://www.w3.org/2000/svg" xmlns:xlink="http://www.w3.org/1999/xlink" width="56pt" height="56pt" viewBox="0 0 56 56" version="1.1">
<g id="surface1">
<rect x="0" y="0" width="56" height="56" style="fill:rgb(95.66803%,95.779419%,96.777344%);fill-opacity:1;stroke:none;"/>
<path style=" stroke:none;fill-rule:nonzero;fill:rgb(12.3703%,17.056274%,29.042053%);fill-opacity:1;" d="M 33.367188 41.707031 C 33.324219 41.734375 33.277344 41.78125 33.234375 41.78125 C 31.304688 41.785156 29.378906 41.785156 27.410156 41.785156 C 27.390625 41.644531 27.363281 41.511719 27.363281 41.375 C 27.359375 32.511719 27.359375 23.644531 27.367188 14.777344 C 27.367188 14.617188 27.25 14.40625 27.480469 14.289062 C 27.511719 14.324219 27.542969 14.359375 27.574219 14.394531 C 27.589844 14.359375 27.601562 14.324219 27.617188 14.289062 C 29.421875 14.289062 31.226562 14.289062 33.03125 14.289062 C 33.058594 14.324219 33.089844 14.359375 33.117188 14.398438 C 33.132812 14.363281 33.148438 14.332031 33.164062 14.300781 C 33.398438 14.417969 33.273438 14.628906 33.273438 14.785156 C 33.28125 17.332031 33.28125 19.875 33.28125 22.417969 C 33.28125 23.300781 33.28125 24.183594 33.28125 25.066406 C 33.28125 25.203125 33.28125 25.34375 33.28125 25.511719 C 33.457031 25.511719 33.59375 25.511719 33.777344 25.511719 C 34.460938 24.644531 35.167969 23.746094 35.875 22.84375 C 37.78125 20.414062 39.6875 17.980469 41.597656 15.554688 C 41.9375 15.121094 42.296875 14.710938 42.652344 14.289062 C 42.707031 14.335938 42.757812 14.421875 42.816406 14.425781 C 43 14.445312 43.183594 14.433594 43.371094 14.433594 C 45.15625 14.433594 46.941406 14.429688 48.726562 14.441406 C 48.882812 14.441406 49.105469 14.3125 49.203125 14.574219 C 48.332031 15.660156 47.464844 16.75 46.589844 17.832031 C 45.582031 19.074219 44.558594 20.304688 43.546875 21.542969 C 42.175781 23.226562 40.804688 24.910156 39.433594 26.597656 C 39.265625 26.800781 39.105469 27.011719 38.917969 27.253906 C 42.765625 32.050781 46.601562 36.84375 50.488281 41.691406 C 50.308594 41.710938 50.195312 41.722656 50.082031 41.738281 C 50.007812 41.679688 49.9375 41.578125 49.863281 41.578125 C 48.636719 41.570312 47.410156 41.570312 46.179688 41.578125 C 46.109375 41.578125 46.039062 41.683594 45.96875 41.738281 C 44.980469 41.738281 44 41.738281 42.949219 41.738281 C 42.808594 41.601562 42.609375 41.453125 42.464844 41.265625 C 39.667969 37.636719 36.878906 34.007812 34.082031 30.382812 C 33.945312 30.203125 33.851562 29.917969 33.535156 29.960938 C 33.246094 30.089844 33.308594 30.351562 33.308594 30.582031 C 33.328125 34.289062 33.347656 38 33.367188 41.707031 "/>
<path style=" stroke:none;fill-rule:nonzero;fill:rgb(96.302795%,66.665649%,21.272278%);fill-opacity:1;" d="M 24.261719 32.105469 C 24.261719 35.339844 24.261719 38.539062 24.261719 41.773438 C 18.035156 41.773438 11.824219 41.773438 5.609375 41.773438 C 5.507812 41.316406 5.46875 33.410156 5.566406 32.105469 C 11.777344 32.105469 17.988281 32.105469 24.261719 32.105469 "/>
<path style=" stroke:none;fill-rule:nonzero;fill:rgb(23.236084%,27.111816%,39.634705%);fill-opacity:1;" d="M 49.203125 14.574219 C 49.105469 14.3125 48.882812 14.441406 48.726562 14.441406 C 46.941406 14.429688 45.15625 14.433594 43.371094 14.433594 C 43.183594 14.433594 43 14.445312 42.816406 14.425781 C 42.757812 14.421875 42.707031 14.335938 42.652344 14.289062 C 42.71875 14.257812 42.789062 14.207031 42.855469 14.207031 C 44.984375 14.203125 47.113281 14.203125 49.238281 14.207031 C 49.296875 14.207031 49.355469 14.226562 49.484375 14.257812 C 49.371094 14.382812 49.289062 14.480469 49.203125 14.574219 "/>
<path style=" stroke:none;fill-rule:nonzero;fill:rgb(8.828735%,13.168335%,23.605347%);fill-opacity:1;" d="M 45.96875 41.738281 C 46.039062 41.683594 46.109375 41.578125 46.179688 41.578125 C 47.410156 41.570312 48.636719 41.570312 49.863281 41.578125 C 49.9375 41.578125 50.007812 41.679688 50.082031 41.738281 C 50.027344 41.757812 49.96875 41.796875 49.914062 41.796875 C 48.65625 41.796875 47.394531 41.796875 46.132812 41.792969 C 46.078125 41.792969 46.023438 41.757812 45.96875 41.738281 "/>
<path style=" stroke:none;fill-rule:nonzero;fill:rgb(8.828735%,13.168335%,23.605347%);fill-opacity:1;" d="M 27.617188 14.289062 C 27.601562 14.324219 27.589844 14.359375 27.574219 14.394531 C 27.542969 14.359375 27.511719 14.324219 27.480469 14.289062 C 27.527344 14.289062 27.574219 14.289062 27.617188 14.289062 "/>
<path style=" stroke:none;fill-rule:nonzero;fill:rgb(8.828735%,13.168335%,23.605347%);fill-opacity:1;" d="M 33.164062 14.300781 C 33.148438 14.332031 33.132812 14.363281 33.117188 14.398438 C 33.089844 14.359375 33.058594 14.324219 33.03125 14.289062 C 33.078125 14.292969 33.121094 14.296875 33.164062 14.300781 "/>
</g>
</svg>
