<?xml version="1.0" encoding="UTF-8"?>
<svg xmlns="http://www.w3.org/2000/svg" xmlns:xlink="http://www.w3.org/1999/xlink" width="56pt" height="56pt" viewBox="0 0 56 56" version="1.1">
<g id="surface1">
<rect x="0" y="0" width="56" height="56" style="fill:rgb(95.66803%,95.779419%,96.777344%);fill-opacity:1;stroke:none;"/>
<path style=" stroke:none;fill-rule:nonzero;fill:rgb(74.385071%,70.9198%,58.618164%);fill-opacity:1;" d="M 31.550781 47.832031 C 31.273438 47.886719 31.011719 47.816406 30.742188 47.839844 C 30.738281 47.871094 30.734375 47.890625 30.734375 47.910156 C 26.988281 47.910156 23.242188 47.910156 19.496094 47.910156 C 19.496094 45.707031 19.496094 43.503906 19.496094 41.296875 C 21.097656 41.179688 22.808594 41.292969 24.433594 41.296875 C 25.015625 41.375 25.703125 41.34375 26.3125 41.300781 C 26.84375 41.34375 27.375 41.363281 27.90625 41.304688 C 28.660156 41.351562 29.429688 41.332031 30.1875 41.335938 C 30.238281 41.324219 30.308594 41.375 30.34375 41.296875 C 30.449219 41.285156 30.550781 41.273438 30.65625 41.261719 C 30.671875 41.273438 30.6875 41.289062 30.714844 41.316406 C 30.726562 41.269531 30.730469 41.246094 30.734375 41.222656 C 35.117188 40.730469 36.203125 37.007812 35.984375 33.160156 C 36.011719 27.550781 35.933594 22.015625 35.910156 16.410156 C 38.183594 16.492188 40.5 16.386719 42.789062 16.449219 C 42.824219 16.367188 42.914062 16.511719 42.945312 16.410156 C 42.988281 16.429688 43.035156 16.445312 43.097656 16.46875 C 43.007812 23.464844 43.289062 30.476562 42.976562 37.460938 C 42.808594 38.699219 42.5625 39.929688 42.089844 41.089844 C 40.410156 45.46875 36.121094 47.515625 31.667969 47.832031 C 31.628906 47.769531 31.589844 47.765625 31.550781 47.832031 "/>
<path style=" stroke:none;fill-rule:nonzero;fill:rgb(13.946533%,32.783508%,54.73175%);fill-opacity:1;" d="M 40.917969 12.136719 C 39.605469 10.796875 38.253906 9.472656 36.996094 8.089844 C 39.238281 8.089844 41.480469 8.089844 43.722656 8.089844 C 43.71875 10.371094 43.730469 12.652344 43.71875 14.933594 C 43.539062 14.917969 43.441406 14.683594 43.304688 14.578125 C 42.992188 14.253906 42.675781 13.925781 42.359375 13.605469 C 41.886719 13.109375 41.375 12.644531 40.917969 12.136719 "/>
<path style=" stroke:none;fill-rule:nonzero;fill:rgb(82.777405%,80.239868%,73.08197%);fill-opacity:1;" d="M 30.734375 47.910156 C 30.734375 47.890625 30.738281 47.871094 30.742188 47.839844 C 30.867188 47.84375 31 47.792969 31.121094 47.871094 C 31.121094 47.882812 31.121094 47.894531 31.121094 47.910156 C 30.992188 47.910156 30.863281 47.910156 30.734375 47.910156 "/>
<path style=" stroke:none;fill-rule:nonzero;fill:rgb(74.385071%,70.9198%,58.618164%);fill-opacity:1;" d="M 35.941406 16.410156 C 33.84375 16.375 31.707031 16.378906 29.585938 16.375 C 27.945312 16.367188 26.316406 16.292969 24.675781 16.378906 C 24.671875 16.410156 24.667969 16.429688 24.664062 16.449219 C 20.207031 16.953125 19.207031 20.800781 19.421875 24.679688 C 19.429688 30.191406 19.515625 35.707031 19.496094 41.222656 C 17.128906 41.335938 14.710938 41.222656 12.3125 41.261719 C 12.367188 34.265625 12.136719 27.253906 12.425781 20.269531 C 12.566406 19.226562 12.746094 18.179688 13.101562 17.1875 C 14.117188 13.9375 16.847656 11.453125 20.101562 10.53125 C 21.148438 10.203125 22.238281 9.996094 23.328125 9.875 C 27.496094 9.601562 31.710938 9.835938 35.898438 9.761719 C 36.027344 11.964844 35.90625 14.199219 35.941406 16.410156 "/>
<path style=" stroke:none;fill-rule:nonzero;fill:rgb(85.48584%,83.744812%,78.610229%);fill-opacity:1;" d="M 35.941406 16.410156 C 35.945312 16.398438 35.945312 16.386719 35.945312 16.375 C 38.265625 16.410156 40.664062 16.304688 42.945312 16.410156 C 42.914062 16.511719 42.824219 16.367188 42.789062 16.449219 C 40.511719 16.386719 38.207031 16.492188 35.941406 16.410156 "/>
<path style=" stroke:none;fill-rule:nonzero;fill:rgb(85.105896%,82.933044%,77.282715%);fill-opacity:1;" d="M 19.417969 41.261719 C 19.445312 41.246094 19.46875 41.234375 19.496094 41.222656 C 19.507812 41.234375 19.523438 41.246094 19.535156 41.261719 C 19.523438 41.273438 19.507812 41.285156 19.496094 41.296875 C 19.46875 41.285156 19.445312 41.273438 19.417969 41.261719 "/>
<path style=" stroke:none;fill-rule:nonzero;fill:rgb(82.777405%,80.239868%,73.08197%);fill-opacity:1;" d="M 31.550781 47.832031 C 31.589844 47.765625 31.628906 47.769531 31.667969 47.832031 C 31.628906 47.894531 31.589844 47.894531 31.550781 47.832031 "/>
<path style=" stroke:none;fill-rule:nonzero;fill:rgb(57.15332%,70.233154%,77.061462%);fill-opacity:1;" d="M 37.496094 8.636719 C 37.515625 8.65625 37.53125 8.679688 37.546875 8.699219 C 37.492188 8.710938 37.503906 8.667969 37.496094 8.636719 "/>
<path style=" stroke:none;fill-rule:nonzero;fill:rgb(57.15332%,70.233154%,77.061462%);fill-opacity:1;" d="M 37.632812 8.78125 C 37.652344 8.796875 37.667969 8.816406 37.691406 8.832031 C 37.660156 8.828125 37.617188 8.835938 37.632812 8.78125 "/>
<path style=" stroke:none;fill-rule:nonzero;fill:rgb(61.288452%,72.659302%,78.717041%);fill-opacity:1;" d="M 39.363281 10.542969 C 39.382812 10.566406 39.398438 10.589844 39.410156 10.609375 C 39.359375 10.613281 39.367188 10.574219 39.363281 10.542969 "/>
<path style=" stroke:none;fill-rule:nonzero;fill:rgb(57.15332%,70.233154%,77.061462%);fill-opacity:1;" d="M 40.917969 12.136719 C 40.9375 12.160156 40.953125 12.179688 40.96875 12.203125 C 40.914062 12.207031 40.921875 12.167969 40.917969 12.136719 "/>
<path style=" stroke:none;fill-rule:nonzero;fill:rgb(57.15332%,70.233154%,77.061462%);fill-opacity:1;" d="M 41.007812 12.246094 C 41.03125 12.261719 41.050781 12.277344 41.070312 12.292969 C 41.050781 12.277344 41.03125 12.261719 41.007812 12.246094 "/>
<path style=" stroke:none;fill-rule:nonzero;fill:rgb(57.15332%,70.233154%,77.061462%);fill-opacity:1;" d="M 37.554688 8.707031 C 37.5625 8.714844 37.574219 8.726562 37.585938 8.738281 C 37.574219 8.726562 37.5625 8.714844 37.554688 8.707031 "/>
<path style=" stroke:none;fill-rule:nonzero;fill:rgb(57.15332%,70.233154%,77.061462%);fill-opacity:1;" d="M 37.59375 8.746094 C 37.601562 8.753906 37.613281 8.765625 37.625 8.777344 C 37.613281 8.765625 37.601562 8.753906 37.59375 8.746094 "/>
<path style=" stroke:none;fill-rule:nonzero;fill:rgb(61.288452%,72.659302%,78.717041%);fill-opacity:1;" d="M 39.414062 10.613281 C 39.425781 10.625 39.4375 10.636719 39.453125 10.652344 C 39.4375 10.636719 39.425781 10.625 39.414062 10.613281 "/>
<path style=" stroke:none;fill-rule:nonzero;fill:rgb(57.15332%,70.233154%,77.061462%);fill-opacity:1;" d="M 40.96875 12.207031 C 40.980469 12.21875 40.992188 12.230469 41.007812 12.242188 C 40.992188 12.230469 40.980469 12.21875 40.96875 12.207031 "/>
<path style=" stroke:none;fill-rule:nonzero;fill:rgb(57.15332%,70.233154%,77.061462%);fill-opacity:1;" d="M 41.085938 12.320312 C 41.097656 12.335938 41.109375 12.347656 41.121094 12.359375 C 41.109375 12.347656 41.097656 12.335938 41.085938 12.320312 "/>
<path style=" stroke:none;fill-rule:nonzero;fill:rgb(25.283813%,47.164917%,63.883972%);fill-opacity:1;" d="M 43.675781 14.9375 C 43.691406 14.9375 43.703125 14.933594 43.71875 14.933594 C 43.714844 14.945312 43.714844 14.953125 43.710938 14.964844 C 43.699219 14.957031 43.6875 14.949219 43.675781 14.9375 "/>
<path style=" stroke:none;fill-rule:nonzero;fill:rgb(85.105896%,82.933044%,77.282715%);fill-opacity:1;" d="M 24.433594 41.296875 C 24.929688 41.175781 25.464844 41.335938 25.972656 41.257812 C 25.980469 41.285156 25.984375 41.308594 25.992188 41.335938 C 25.484375 41.320312 24.90625 41.378906 24.433594 41.296875 "/>
<path style=" stroke:none;fill-rule:nonzero;fill:rgb(81.019592%,78.744507%,70.013428%);fill-opacity:1;" d="M 35.945312 22.90625 C 35.914062 22.851562 35.914062 22.722656 35.945312 22.671875 C 36 22.757812 36 22.820312 35.945312 22.90625 "/>
<path style=" stroke:none;fill-rule:nonzero;fill:rgb(85.105896%,82.933044%,77.282715%);fill-opacity:1;" d="M 30.1875 41.335938 C 30.191406 41.316406 30.195312 41.296875 30.199219 41.273438 C 30.25 41.265625 30.304688 41.222656 30.34375 41.296875 C 30.308594 41.375 30.238281 41.324219 30.1875 41.335938 "/>
<path style=" stroke:none;fill-rule:nonzero;fill:rgb(85.105896%,82.933044%,77.282715%);fill-opacity:1;" d="M 30.65625 41.261719 C 30.683594 41.246094 30.710938 41.234375 30.734375 41.222656 C 30.730469 41.246094 30.726562 41.269531 30.714844 41.316406 C 30.6875 41.289062 30.671875 41.273438 30.65625 41.261719 "/>
<path style=" stroke:none;fill-rule:nonzero;fill:rgb(85.975647%,84.262085%,79.159546%);fill-opacity:1;" d="M 24.785156 16.378906 C 24.78125 16.394531 24.78125 16.414062 24.773438 16.449219 C 24.738281 16.449219 24.703125 16.449219 24.664062 16.449219 C 24.667969 16.429688 24.671875 16.410156 24.675781 16.378906 C 24.714844 16.378906 24.75 16.378906 24.785156 16.378906 "/>
</g>
</svg>
