<?xml version="1.0" encoding="UTF-8"?>
<svg xmlns="http://www.w3.org/2000/svg" xmlns:xlink="http://www.w3.org/1999/xlink" width="56pt" height="56pt" viewBox="0 0 56 56" version="1.1">
<g id="surface1">
<rect x="0" y="0" width="56" height="56" style="fill:rgb(95.666504%,95.776367%,96.775818%);fill-opacity:1;stroke:none;"/>
<path style=" stroke:none;fill-rule:nonzero;fill:rgb(34.179688%,36.289978%,38.83667%);fill-opacity:1;" d="M 26.59375 16.84375 C 26.59375 16.84375 25.714844 16.824219 25.136719 17.109375 C 25.136719 17.109375 27.175781 17.65625 28.160156 20.015625 C 29.152344 17.65625 31.175781 17.109375 31.175781 17.109375 C 30.636719 16.824219 29.71875 16.84375 29.71875 16.84375 C 29.628906 16.535156 29.289062 16.292969 29.289062 16.292969 C 29.554688 15.96875 30.089844 15.617188 30.089844 15.617188 L 28.160156 11.035156 L 26.238281 15.617188 C 26.238281 15.617188 26.765625 15.96875 27.027344 16.292969 C 27.027344 16.292969 26.679688 16.535156 26.59375 16.84375 M 14.394531 44.074219 C 14.449219 44.726562 14.472656 45.328125 14.472656 45.328125 L 41.761719 45.328125 C 41.761719 45.328125 41.785156 44.757812 41.84375 44.15625 C 41.902344 43.492188 41.976562 42.976562 41.976562 42.976562 L 14.253906 42.976562 C 14.253906 42.976562 14.339844 43.523438 14.394531 44.074219 M 49.792969 28.402344 C 50.722656 28.089844 50.613281 27.0625 50.613281 27.0625 C 50.414062 25.859375 49.152344 26.03125 49.152344 26.03125 C 49.953125 25.09375 49.320312 24.367188 49.320312 24.367188 C 48.703125 23.597656 47.726562 24.09375 47.726562 24.09375 C 48.171875 23.105469 47.585938 22.609375 47.585938 22.609375 C 46.808594 21.921875 45.996094 22.632812 45.996094 22.632812 C 45.96875 21.667969 45.273438 21.445312 45.273438 21.445312 C 44.453125 21.089844 43.851562 21.828125 43.851562 21.828125 C 43.25 20.171875 42.066406 21.023438 41.785156 21.136719 C 41.503906 21.304688 41.476562 21.136719 41.476562 21.136719 C 41.425781 19.136719 39.71875 19.890625 39.71875 19.890625 C 40.183594 18.890625 39.375 18.324219 39.375 18.324219 C 38.5 17.785156 37.773438 18.542969 37.773438 18.542969 C 37.679688 17.21875 36.707031 17.613281 36.394531 17.730469 C 36.097656 17.796875 35.457031 17.820312 35.457031 17.820312 C 33.4375 17.570312 32.6875 17.6875 32.6875 17.6875 C 30.230469 17.636719 28.15625 21.714844 28.15625 21.714844 L 28.15625 21.75 L 28.121094 21.714844 C 28.121094 21.714844 26.019531 17.636719 23.566406 17.6875 C 23.566406 17.6875 22.816406 17.570312 20.804688 17.820312 C 20.804688 17.820312 20.175781 17.796875 19.863281 17.730469 C 19.554688 17.613281 18.574219 17.21875 18.503906 18.542969 C 18.503906 18.542969 17.769531 17.785156 16.890625 18.324219 C 16.890625 18.324219 16.085938 18.890625 16.546875 19.890625 C 16.546875 19.890625 14.835938 19.136719 14.78125 21.136719 C 14.78125 21.136719 14.773438 21.304688 14.46875 21.136719 C 14.199219 21.023438 13.019531 20.171875 12.417969 21.828125 C 12.417969 21.828125 11.804688 21.089844 10.992188 21.445312 C 10.992188 21.445312 10.289062 21.667969 10.261719 22.632812 C 10.261719 22.632812 9.445312 21.921875 8.660156 22.609375 C 8.660156 22.609375 8.074219 23.105469 8.503906 24.09375 C 8.503906 24.09375 7.554688 23.597656 6.960938 24.367188 C 6.960938 24.367188 6.316406 25.09375 7.125 26.03125 C 7.125 26.03125 5.832031 25.859375 5.652344 27.0625 C 5.652344 27.0625 5.550781 28.089844 6.457031 28.402344 C 6.457031 28.402344 5.394531 28.898438 5.585938 29.753906 C 5.585938 29.753906 5.652344 30.601562 6.753906 30.765625 C 6.753906 30.765625 5.832031 31.378906 6.210938 32.234375 C 6.210938 32.234375 6.582031 33.234375 7.761719 32.945312 C 7.761719 32.945312 7.316406 33.980469 8.003906 34.4375 C 8.003906 34.4375 8.648438 34.988281 9.445312 34.449219 C 9.445312 34.449219 9.863281 34.292969 10.039062 34.59375 C 10.039062 34.59375 10.339844 35.078125 9.710938 35.785156 C 9.710938 35.785156 13.140625 35.496094 14.066406 41.03125 L 42.148438 41.03125 C 43.078125 35.496094 46.558594 35.785156 46.558594 35.785156 C 45.914062 35.078125 46.226562 34.59375 46.226562 34.59375 C 46.382812 34.292969 46.804688 34.449219 46.804688 34.449219 C 47.605469 34.988281 48.269531 34.4375 48.269531 34.4375 C 48.929688 33.980469 48.5 32.945312 48.5 32.945312 C 49.691406 33.234375 50.070312 32.234375 50.070312 32.234375 C 50.414062 31.378906 49.507812 30.765625 49.507812 30.765625 C 50.613281 30.601562 50.65625 29.753906 50.65625 29.753906 C 50.851562 28.898438 49.792969 28.402344 49.792969 28.402344 M 13.601562 36.644531 C 13.273438 36.410156 13.390625 36.148438 13.390625 36.148438 C 14.214844 35.273438 14.289062 34.773438 14.289062 34.773438 C 13.566406 34.226562 11.808594 34.371094 11.808594 34.371094 C 12.097656 33.148438 12.914062 32.316406 12.914062 32.316406 C 10.410156 31.144531 10.480469 28.585938 10.480469 28.585938 C 10.480469 23.972656 14.816406 24.042969 14.816406 24.042969 C 14.542969 24.949219 14.71875 25.804688 14.851562 26.171875 C 14.992188 26.511719 15.28125 26.886719 15.820312 28.535156 C 16.34375 30.167969 15.980469 31.765625 15.980469 31.765625 C 17.835938 32.277344 18.648438 33.339844 18.648438 33.339844 C 17.59375 34.074219 17.59375 34.828125 17.59375 34.828125 C 18.484375 35.261719 19.652344 35.027344 19.652344 35.027344 C 19.566406 36.160156 18.359375 36.289062 18.359375 36.289062 C 16.863281 36.488281 15.734375 35.160156 15.734375 35.160156 C 15.679688 36.964844 13.964844 36.863281 13.601562 36.644531 M 17.796875 40.191406 L 15.417969 39.3125 L 17.835938 38.214844 L 20.324219 39.050781 Z M 23.042969 39.84375 C 22.554688 39.84375 22.113281 39.445312 22.113281 38.929688 C 22.113281 38.445312 22.554688 38.039062 23.042969 38.039062 C 23.546875 38.039062 23.925781 38.445312 23.925781 38.929688 C 23.925781 39.445312 23.546875 39.84375 23.042969 39.84375 M 24.058594 34.457031 C 24.058594 34.457031 23.515625 35.90625 22.074219 35.988281 C 22.074219 35.988281 20.839844 36.046875 20.539062 34.847656 C 20.539062 34.847656 21.585938 34.578125 21.96875 33.847656 C 21.96875 33.847656 21.566406 33.019531 20.066406 33.019531 C 20.066406 33.019531 20.054688 32.234375 21.882812 30.496094 C 21.882812 30.496094 20.65625 29.996094 19.492188 27.394531 C 18.332031 24.753906 19.257812 22.648438 19.566406 22.210938 C 19.871094 21.777344 20.554688 20.945312 21.53125 20.378906 C 21.53125 20.378906 22.257812 19.945312 23.085938 19.855469 C 23.085938 19.855469 23.675781 19.765625 24.277344 20.496094 C 24.855469 21.238281 25.550781 22.085938 25.902344 23.835938 C 25.902344 23.835938 26.234375 25.792969 26.042969 27.0625 C 25.863281 28.296875 25.65625 29.046875 24.925781 29.800781 C 24.925781 29.800781 26.765625 30.496094 27.644531 31.867188 C 27.644531 31.867188 26.191406 32.339844 25.902344 33.1875 C 25.902344 33.1875 26.246094 33.671875 27.570312 33.941406 C 27.570312 33.941406 27.515625 34.988281 26.265625 35.265625 C 26.265625 35.261719 24.78125 35.414062 24.058594 34.457031 M 28.160156 39.84375 L 25.730469 38.867188 L 28.160156 37.882812 L 30.636719 38.867188 Z M 33.28125 39.84375 C 32.773438 39.84375 32.359375 39.445312 32.359375 38.929688 C 32.359375 38.40625 32.773438 38.011719 33.28125 38.011719 C 33.773438 38.011719 34.179688 38.40625 34.179688 38.929688 C 34.179688 39.445312 33.773438 39.84375 33.28125 39.84375 M 34.246094 35.988281 C 32.789062 35.90625 32.261719 34.457031 32.261719 34.457031 C 31.53125 35.414062 30.027344 35.261719 30.027344 35.261719 C 28.820312 34.988281 28.734375 33.9375 28.734375 33.9375 C 30.066406 33.671875 30.40625 33.183594 30.40625 33.183594 C 30.101562 32.335938 28.664062 31.867188 28.664062 31.867188 C 29.53125 30.496094 31.390625 29.800781 31.390625 29.800781 C 30.664062 29.046875 30.457031 28.296875 30.269531 27.0625 C 30.078125 25.792969 30.40625 23.835938 30.40625 23.835938 C 30.785156 22.085938 31.445312 21.238281 32.015625 20.496094 C 32.628906 19.765625 33.238281 19.851562 33.238281 19.851562 C 34.046875 19.945312 34.78125 20.378906 34.78125 20.378906 C 35.75 20.945312 36.4375 21.773438 36.753906 22.210938 C 37.042969 22.648438 37.980469 24.753906 36.816406 27.394531 C 35.640625 29.996094 34.441406 30.496094 34.441406 30.496094 C 36.246094 32.234375 36.238281 33.019531 36.238281 33.019531 C 34.746094 33.019531 34.34375 33.847656 34.34375 33.847656 C 34.714844 34.578125 35.78125 34.847656 35.78125 34.847656 C 35.472656 36.046875 34.246094 35.988281 34.246094 35.988281 M 38.511719 40.191406 L 35.972656 39.03125 L 38.46875 38.214844 L 40.863281 39.304688 Z M 43.386719 32.234375 C 43.386719 32.234375 44.207031 33.097656 44.503906 34.292969 C 44.503906 34.292969 42.722656 34.152344 42.015625 34.703125 C 42.015625 34.703125 42.066406 35.203125 42.894531 36.085938 C 42.894531 36.085938 43.042969 36.347656 42.683594 36.578125 C 42.34375 36.796875 40.617188 36.910156 40.554688 35.09375 C 40.554688 35.09375 39.449219 36.445312 37.929688 36.242188 C 37.929688 36.242188 36.734375 36.097656 36.65625 34.96875 C 36.65625 34.96875 37.804688 35.199219 38.722656 34.769531 C 38.722656 34.769531 38.6875 34.027344 37.640625 33.289062 C 37.640625 33.289062 38.460938 32.226562 40.324219 31.722656 C 40.324219 31.722656 39.960938 30.109375 40.488281 28.480469 C 41.035156 26.839844 41.304688 26.453125 41.441406 26.09375 C 41.59375 25.753906 41.761719 24.898438 41.488281 23.988281 C 41.488281 23.988281 45.816406 23.902344 45.832031 28.535156 C 45.835938 28.535156 45.875 31.113281 43.386719 32.234375 "/>
<path style=" stroke:none;fill-rule:nonzero;fill:rgb(62.734985%,49.549866%,24.024963%);fill-opacity:1;" d="M 26.347656 16.476562 C 26.347656 16.476562 25.46875 16.460938 24.890625 16.746094 C 24.890625 16.746094 26.929688 17.289062 27.914062 19.652344 C 28.90625 17.289062 30.933594 16.746094 30.933594 16.746094 C 30.390625 16.460938 29.476562 16.476562 29.476562 16.476562 C 29.386719 16.167969 29.039062 15.925781 29.039062 15.925781 C 29.3125 15.605469 29.84375 15.25 29.84375 15.25 L 27.914062 10.671875 L 25.992188 15.25 C 25.992188 15.25 26.519531 15.605469 26.785156 15.925781 C 26.785156 15.925781 26.429688 16.167969 26.347656 16.476562 M 14.148438 43.707031 C 14.207031 44.359375 14.222656 44.960938 14.222656 44.960938 L 41.519531 44.960938 C 41.519531 44.960938 41.542969 44.390625 41.597656 43.785156 C 41.660156 43.132812 41.730469 42.605469 41.730469 42.605469 L 14.011719 42.605469 C 14.011719 42.605469 14.097656 43.160156 14.148438 43.707031 M 49.550781 28.035156 C 50.472656 27.722656 50.363281 26.695312 50.363281 26.695312 C 50.164062 25.492188 48.910156 25.664062 48.910156 25.664062 C 49.707031 24.730469 49.074219 24.003906 49.074219 24.003906 C 48.457031 23.230469 47.484375 23.726562 47.484375 23.726562 C 47.925781 22.738281 47.34375 22.242188 47.34375 22.242188 C 46.558594 21.554688 45.75 22.265625 45.75 22.265625 C 45.726562 21.300781 45.03125 21.082031 45.03125 21.082031 C 44.207031 20.726562 43.605469 21.464844 43.605469 21.464844 C 43.007812 19.808594 41.824219 20.65625 41.542969 20.773438 C 41.261719 20.9375 41.234375 20.773438 41.234375 20.773438 C 41.179688 18.773438 39.472656 19.523438 39.472656 19.523438 C 39.941406 18.523438 39.136719 17.960938 39.136719 17.960938 C 38.257812 17.417969 37.527344 18.175781 37.527344 18.175781 C 37.441406 16.855469 36.457031 17.25 36.148438 17.363281 C 35.851562 17.429688 35.210938 17.453125 35.210938 17.453125 C 33.191406 17.203125 32.445312 17.320312 32.445312 17.320312 C 29.984375 17.273438 27.914062 21.347656 27.914062 21.347656 L 27.914062 21.382812 L 27.878906 21.347656 C 27.878906 21.347656 25.777344 17.273438 23.324219 17.320312 C 23.324219 17.320312 22.574219 17.203125 20.558594 17.453125 C 20.558594 17.453125 19.933594 17.429688 19.621094 17.363281 C 19.308594 17.246094 18.332031 16.855469 18.261719 18.175781 C 18.261719 18.175781 17.523438 17.417969 16.644531 17.960938 C 16.644531 17.960938 15.839844 18.523438 16.300781 19.523438 C 16.300781 19.523438 14.59375 18.773438 14.535156 20.773438 C 14.535156 20.773438 14.527344 20.9375 14.222656 20.773438 C 13.957031 20.65625 12.777344 19.808594 12.175781 21.464844 C 12.175781 21.464844 11.5625 20.726562 10.75 21.082031 C 10.75 21.082031 10.042969 21.300781 10.019531 22.265625 C 10.019531 22.265625 9.203125 21.554688 8.417969 22.242188 C 8.417969 22.242188 7.824219 22.738281 8.261719 23.726562 C 8.261719 23.726562 7.3125 23.230469 6.714844 24.003906 C 6.714844 24.003906 6.074219 24.730469 6.886719 25.664062 C 6.886719 25.664062 5.585938 25.492188 5.40625 26.695312 C 5.40625 26.695312 5.304688 27.722656 6.210938 28.035156 C 6.210938 28.035156 5.148438 28.53125 5.34375 29.386719 C 5.34375 29.386719 5.40625 30.234375 6.507812 30.402344 C 6.507812 30.402344 5.585938 31.015625 5.964844 31.867188 C 5.964844 31.867188 6.332031 32.871094 7.515625 32.582031 C 7.515625 32.582031 7.074219 33.609375 7.757812 34.074219 C 7.757812 34.074219 8.40625 34.625 9.203125 34.082031 C 9.203125 34.082031 9.621094 33.929688 9.796875 34.226562 C 9.796875 34.226562 10.097656 34.710938 9.460938 35.421875 C 9.460938 35.421875 12.898438 35.125 13.824219 40.664062 L 41.90625 40.664062 C 42.839844 35.125 46.316406 35.421875 46.316406 35.421875 C 45.667969 34.710938 45.984375 34.226562 45.984375 34.226562 C 46.140625 33.929688 46.558594 34.082031 46.558594 34.082031 C 47.363281 34.625 48.027344 34.074219 48.027344 34.074219 C 48.691406 33.609375 48.253906 32.582031 48.253906 32.582031 C 49.449219 32.871094 49.828125 31.867188 49.828125 31.867188 C 50.167969 31.015625 49.265625 30.402344 49.265625 30.402344 C 50.363281 30.234375 50.414062 29.386719 50.414062 29.386719 C 50.605469 28.53125 49.550781 28.035156 49.550781 28.035156 M 13.355469 36.28125 C 13.03125 36.039062 13.140625 35.78125 13.140625 35.78125 C 13.96875 34.910156 14.042969 34.410156 14.042969 34.410156 C 13.324219 33.855469 11.5625 34 11.5625 34 C 11.855469 32.777344 12.667969 31.949219 12.667969 31.949219 C 10.167969 30.777344 10.234375 28.21875 10.234375 28.21875 C 10.234375 23.605469 14.574219 23.675781 14.574219 23.675781 C 14.300781 24.582031 14.472656 25.4375 14.609375 25.804688 C 14.746094 26.144531 15.039062 26.519531 15.574219 28.167969 C 16.097656 29.800781 15.734375 31.394531 15.734375 31.394531 C 17.585938 31.910156 18.402344 32.972656 18.402344 32.972656 C 17.347656 33.710938 17.347656 34.460938 17.347656 34.460938 C 18.238281 34.894531 19.40625 34.660156 19.40625 34.660156 C 19.324219 35.796875 18.117188 35.929688 18.117188 35.929688 C 16.617188 36.125 15.484375 34.796875 15.484375 34.796875 C 15.4375 36.601562 13.71875 36.5 13.355469 36.28125 M 17.550781 39.832031 L 15.171875 38.949219 L 17.585938 37.847656 L 20.078125 38.683594 Z M 22.796875 39.476562 C 22.304688 39.476562 21.867188 39.074219 21.867188 38.570312 C 21.867188 38.078125 22.304688 37.675781 22.796875 37.675781 C 23.300781 37.675781 23.683594 38.078125 23.683594 38.570312 C 23.683594 39.074219 23.300781 39.476562 22.796875 39.476562 M 23.8125 34.09375 C 23.8125 34.09375 23.273438 35.535156 21.824219 35.625 C 21.824219 35.625 20.597656 35.683594 20.296875 34.480469 C 20.296875 34.480469 21.339844 34.210938 21.722656 33.484375 C 21.722656 33.484375 21.328125 32.652344 19.824219 32.652344 C 19.824219 32.652344 19.804688 31.871094 21.640625 30.128906 C 21.640625 30.128906 20.410156 29.632812 19.25 27.027344 C 18.085938 24.390625 19.011719 22.285156 19.324219 21.847656 C 19.628906 21.410156 20.3125 20.578125 21.285156 20.011719 C 21.285156 20.011719 22.011719 19.578125 22.839844 19.488281 C 22.839844 19.488281 23.429688 19.402344 24.039062 20.128906 C 24.609375 20.871094 25.308594 21.722656 25.65625 23.472656 C 25.65625 23.472656 25.992188 25.425781 25.800781 26.695312 C 25.621094 27.933594 25.414062 28.679688 24.683594 29.4375 C 24.683594 29.4375 26.523438 30.128906 27.402344 31.5 C 27.402344 31.5 25.949219 31.972656 25.65625 32.824219 C 25.65625 32.824219 26.003906 33.304688 27.328125 33.574219 C 27.328125 33.574219 27.269531 34.625 26.015625 34.894531 C 26.015625 34.894531 24.542969 35.046875 23.8125 34.09375 M 27.914062 39.476562 L 25.484375 38.5 L 27.914062 37.519531 L 30.390625 38.5 Z M 33.039062 39.476562 C 32.53125 39.476562 32.117188 39.074219 32.117188 38.570312 C 32.117188 38.042969 32.53125 37.648438 33.039062 37.648438 C 33.527344 37.648438 33.929688 38.042969 33.929688 38.570312 C 33.929688 39.074219 33.527344 39.476562 33.039062 39.476562 M 33.996094 35.625 C 32.542969 35.535156 32.011719 34.09375 32.011719 34.09375 C 31.285156 35.046875 29.78125 34.894531 29.78125 34.894531 C 28.574219 34.625 28.492188 33.574219 28.492188 33.574219 C 29.824219 33.304688 30.164062 32.824219 30.164062 32.824219 C 29.859375 31.972656 28.414062 31.5 28.414062 31.5 C 29.285156 30.125 31.144531 29.433594 31.144531 29.433594 C 30.417969 28.679688 30.210938 27.933594 30.027344 26.695312 C 29.835938 25.425781 30.164062 23.472656 30.164062 23.472656 C 30.535156 21.722656 31.203125 20.871094 31.773438 20.128906 C 32.386719 19.402344 32.996094 19.488281 32.996094 19.488281 C 33.804688 19.578125 34.535156 20.011719 34.535156 20.011719 C 35.5 20.578125 36.191406 21.410156 36.507812 21.84375 C 36.796875 22.28125 37.738281 24.386719 36.566406 27.027344 C 35.398438 29.628906 34.195312 30.125 34.195312 30.125 C 36.003906 31.867188 35.992188 32.652344 35.992188 32.652344 C 34.5 32.652344 34.101562 33.484375 34.101562 33.484375 C 34.46875 34.210938 35.539062 34.480469 35.539062 34.480469 C 35.230469 35.683594 33.996094 35.625 33.996094 35.625 M 38.261719 39.832031 L 35.730469 38.664062 L 38.226562 37.847656 L 40.613281 38.9375 Z M 43.140625 31.867188 C 43.140625 31.867188 43.960938 32.730469 44.257812 33.929688 C 44.257812 33.929688 42.480469 33.789062 41.769531 34.339844 C 41.769531 34.339844 41.824219 34.832031 42.648438 35.71875 C 42.648438 35.71875 42.800781 35.980469 42.4375 36.214844 C 42.097656 36.433594 40.375 36.546875 40.3125 34.734375 C 40.3125 34.734375 39.199219 36.082031 37.683594 35.882812 C 37.683594 35.882812 36.484375 35.730469 36.410156 34.609375 C 36.410156 34.609375 37.5625 34.832031 38.480469 34.40625 C 38.480469 34.40625 38.441406 33.660156 37.398438 32.925781 C 37.398438 32.925781 38.214844 31.863281 40.078125 31.359375 C 40.078125 31.359375 39.710938 29.746094 40.246094 28.113281 C 40.789062 26.476562 41.058594 26.085938 41.199219 25.730469 C 41.351562 25.390625 41.519531 24.535156 41.242188 23.625 C 41.242188 23.625 45.574219 23.535156 45.589844 28.167969 C 45.589844 28.167969 45.632812 30.75 43.140625 31.867188 "/>
</g>
</svg>
