<?xml version="1.0" encoding="UTF-8"?>
<svg xmlns="http://www.w3.org/2000/svg" xmlns:xlink="http://www.w3.org/1999/xlink" width="56pt" height="56pt" viewBox="0 0 56 56" version="1.1">
<g id="surface1">
<rect x="0" y="0" width="56" height="56" style="fill:rgb(17.796326%,26.217651%,48.036194%);fill-opacity:1;stroke:none;"/>
<path style=" stroke:none;fill-rule:nonzero;fill:rgb(100%,100%,100%);fill-opacity:1;" d="M 34.472656 10.433594 C 36.988281 11.273438 39.648438 11.917969 42.359375 12.222656 L 44.25 12.242188 L 44.308594 12.191406 C 45.441406 12.222656 46.277344 11.726562 47.375 11.484375 C 47.492188 11.457031 47.777344 11.382812 47.898438 11.542969 C 47.953125 11.753906 47.867188 11.984375 47.628906 12.140625 C 46.28125 13.167969 44.675781 13.9375 43.164062 14.488281 L 43.164062 14.457031 C 42.664062 14.550781 42.136719 14.765625 41.617188 14.9375 C 39.753906 15.5 37.628906 15.855469 35.625 15.710938 C 31.78125 15.515625 28.515625 14.140625 25.121094 14.304688 C 21.792969 14.109375 18.625 15.382812 16.851562 17.894531 C 15.941406 19.207031 15.21875 20.59375 14.992188 22.121094 C 15.089844 23.5 17.03125 24.03125 17.753906 25.171875 C 18.171875 25.863281 18.378906 26.621094 18.691406 27.339844 C 19.496094 28.78125 20.296875 30.226562 21.285156 31.585938 L 21.257812 31.613281 C 21.839844 32.519531 22.761719 33.308594 23.851562 33.84375 C 25.269531 34.851562 26.515625 36.121094 27.261719 37.484375 L 27.222656 37.503906 C 28.054688 38.839844 28.527344 40.21875 29.171875 41.609375 C 29.464844 42.460938 29.78125 43.210938 30.03125 44.042969 C 30.117188 44.117188 30.117188 44.242188 30.167969 44.351562 C 30.394531 45.011719 30.589844 45.710938 30.871094 46.320312 C 30.75 46.410156 30.964844 46.445312 30.9375 46.535156 C 30.953125 46.902344 31.3125 47.457031 30.832031 47.703125 C 30.136719 47.085938 29.769531 46.179688 29.390625 45.523438 C 28.566406 44.085938 27.621094 42.695312 26.601562 41.324219 L 26.632812 41.296875 C 26.011719 40.511719 25.320312 39.628906 24.605469 38.816406 C 21.59375 35.484375 17.171875 33.480469 13.9375 30.308594 L 13.90625 30.339844 C 13.628906 30.089844 13.453125 29.765625 13.230469 29.480469 L 13.253906 29.449219 C 12.859375 28.898438 12.625 28.269531 12.242188 27.703125 L 12.265625 27.675781 C 11.265625 26.1875 10.300781 24.605469 9.65625 23.035156 C 9.519531 22.34375 9.28125 21.746094 9.230469 20.949219 L 9.152344 20.683594 C 9.195312 19.957031 7.390625 19.535156 8.382812 18.140625 C 9.007812 17.46875 11.417969 16.640625 12.238281 15.378906 C 12.257812 15.191406 12.300781 14.964844 12.140625 14.792969 C 12.140625 14.660156 12 14.519531 11.902344 14.378906 C 11.445312 13.8125 10.207031 14.257812 10.226562 13.421875 C 10.355469 13.414062 10.234375 13.304688 10.316406 13.257812 C 10.25 12.84375 10.21875 12.570312 10.335938 12.222656 C 10.585938 11.535156 10.828125 10.742188 10.78125 10.050781 C 10.832031 9.792969 11.089844 9.636719 11.355469 9.535156 C 11.867188 9.40625 12.316406 9.335938 12.820312 9.269531 L 12.882812 9.320312 C 14.046875 9.226562 15.445312 9.308594 16.21875 10.222656 C 16.550781 10.917969 16.292969 11.738281 16.105469 12.4375 C 16.046875 12.839844 15.605469 13.167969 15.707031 13.59375 C 15.859375 13.75 16.179688 13.738281 16.386719 13.652344 C 18.144531 12.589844 19.679688 11.109375 20.957031 9.617188 C 22.136719 8.511719 23.875 8.132812 25.472656 8.359375 C 28.710938 8.609375 31.445312 9.695312 34.464844 10.429688 L 34.472656 10.433594 "/>
<path style=" stroke:none;fill-rule:nonzero;fill:rgb(100%,100%,100%);fill-opacity:1;" d="M 26.128906 16.273438 C 26.585938 16.882812 25.976562 17.414062 25.792969 17.949219 C 23.894531 20.800781 23.230469 24.035156 21.972656 27.089844 C 21.878906 27.195312 21.691406 27.226562 21.554688 27.183594 C 21.21875 26.945312 21.21875 26.550781 21.257812 26.203125 C 21.511719 22.890625 22.386719 19.78125 23.796875 16.820312 C 24.125 16.347656 24.6875 15.808594 25.414062 15.921875 C 25.6875 15.980469 25.929688 16.074219 26.128906 16.273438 "/>
<path style=" stroke:none;fill-rule:nonzero;fill:rgb(100%,100%,100%);fill-opacity:1;" d="M 31.136719 17.140625 C 31.378906 18.226562 30.597656 19.121094 30.253906 20.097656 C 28.402344 23.785156 26.183594 27.398438 25.089844 31.34375 C 25.039062 31.46875 24.964844 31.636719 24.816406 31.691406 C 24.660156 31.734375 24.53125 31.65625 24.488281 31.546875 C 24.117188 29.976562 24.546875 28.347656 24.949219 26.855469 C 26 23.542969 27.277344 20.15625 29.054688 17.078125 C 29.265625 16.921875 29.296875 16.785156 29.554688 16.714844 C 30.171875 16.648438 30.792969 16.695312 31.136719 17.140625 "/>
<path style=" stroke:none;fill-rule:nonzero;fill:rgb(100%,100%,100%);fill-opacity:1;" d="M 36.484375 17.324219 C 36.980469 17.699219 36.722656 18.410156 36.53125 18.847656 C 34.363281 23.644531 30.855469 27.78125 29.402344 32.8125 C 29 33.878906 28.742188 34.980469 28.40625 36.054688 C 28.347656 36.25 28.066406 36.253906 27.863281 36.207031 C 27.671875 35.75 27.726562 35.171875 27.726562 34.679688 C 28.183594 30.636719 29.152344 26.710938 31.128906 23.191406 C 32.023438 21.433594 32.894531 19.851562 33.835938 18.136719 C 34.101562 17.652344 34.546875 17.210938 35.195312 17.050781 C 35.671875 17.023438 36.128906 17.136719 36.484375 17.324219 "/>
<path style=" stroke:none;fill-rule:nonzero;fill:rgb(100%,100%,100%);fill-opacity:1;" d="M 42.417969 17.574219 C 42.765625 18.152344 42.429688 18.792969 42.273438 19.351562 C 40.894531 23.207031 38.316406 26.394531 36.246094 29.90625 C 34.472656 32.792969 33.316406 35.996094 32.136719 39.128906 C 31.726562 40.070312 31.582031 41.113281 31.085938 42.007812 C 31.042969 42.105469 30.917969 42.046875 30.832031 42.074219 C 30.527344 41.816406 30.566406 41.449219 30.492188 41.125 C 30.726562 37.203125 32.238281 33.660156 33.660156 30.121094 C 35.433594 26.171875 37.820312 22.40625 39.4375 18.324219 C 39.664062 17.808594 40.109375 17.179688 40.796875 16.984375 C 41.484375 16.882812 42.007812 17.132812 42.417969 17.574219 "/>
</g>
</svg>
