<?xml version="1.0" encoding="UTF-8"?>
<svg xmlns="http://www.w3.org/2000/svg" xmlns:xlink="http://www.w3.org/1999/xlink" width="56pt" height="56pt" viewBox="0 0 56 56" version="1.1">
<g id="surface1">
<rect x="0" y="0" width="56" height="56" style="fill:rgb(16.308594%,23.667908%,59.5047%);fill-opacity:1;stroke:none;"/>
<path style=" stroke:none;fill-rule:evenodd;fill:rgb(100%,100%,100%);fill-opacity:1;" d="M 3.527344 28.160156 C 4.113281 27.460938 4.984375 27.015625 5.957031 26.988281 L 9.25 30.28125 L 11.507812 30.28125 L 6.957031 25.730469 L 6.867188 25.730469 C 4.398438 25.730469 2.375 27.707031 2.320312 30.179688 L 2.320312 30.28125 L 2.75 30.28125 L 2.757812 30.148438 C 2.800781 29.332031 3.476562 28.695312 4.292969 28.695312 L 7.355469 28.695312 L 6.511719 27.847656 L 4.703125 27.847656 C 4.277344 27.847656 3.875 27.960938 3.527344 28.160156 "/>
<path style=" stroke:none;fill-rule:nonzero;fill:rgb(100%,100%,100%);fill-opacity:1;" d="M 15.609375 27.847656 L 11.941406 27.847656 L 11.941406 26.988281 L 15.609375 26.988281 C 15.847656 26.988281 16.039062 27.179688 16.039062 27.417969 C 16.039062 27.65625 15.847656 27.847656 15.609375 27.847656 Z M 16.039062 28.691406 C 16.859375 28.691406 17.519531 28.03125 17.519531 27.210938 C 17.519531 26.394531 16.859375 25.730469 16.039062 25.730469 L 10.910156 25.730469 L 10.910156 29.367188 L 11.820312 30.28125 L 12.632812 30.28125 L 12.632812 28.699219 L 13.78125 28.695312 L 15.367188 30.28125 L 17.628906 30.28125 L 16.039062 28.691406 "/>
<path style=" stroke:none;fill-rule:evenodd;fill:rgb(100%,100%,100%);fill-opacity:1;" d="M 9.050781 25.730469 L 10.542969 25.730469 L 10.542969 29 L 9.050781 27.511719 L 9.050781 25.730469 "/>
<path style=" stroke:none;fill-rule:evenodd;fill:rgb(100%,100%,100%);fill-opacity:1;" d="M 45.511719 27.886719 L 45.511719 28.472656 L 44.644531 27.605469 L 44.644531 25.730469 L 45.632812 25.730469 L 50.179688 30.28125 L 47.90625 30.28125 L 45.511719 27.886719 "/>
<path style=" stroke:none;fill-rule:evenodd;fill:rgb(100%,100%,100%);fill-opacity:1;" d="M 50.136719 29.945312 L 50.136719 25.75 L 48.65625 25.75 L 48.65625 28.464844 L 50.136719 29.945312 "/>
<path style=" stroke:none;fill-rule:evenodd;fill:rgb(100%,100%,100%);fill-opacity:1;" d="M 39.046875 28.160156 C 39.636719 27.460938 40.507812 27.015625 41.480469 26.988281 L 44.769531 30.28125 L 47.03125 30.28125 L 42.480469 25.730469 L 42.390625 25.730469 C 39.917969 25.730469 37.898438 27.707031 37.84375 30.179688 L 37.839844 30.28125 L 38.273438 30.28125 L 38.277344 30.148438 C 38.324219 29.332031 38.996094 28.695312 39.8125 28.695312 L 40.75 28.695312 L 40.75 27.847656 L 40.226562 27.847656 C 39.796875 27.847656 39.398438 27.960938 39.046875 28.160156 "/>
<path style=" stroke:none;fill-rule:evenodd;fill:rgb(100%,100%,100%);fill-opacity:1;" d="M 40.984375 27.847656 L 42.050781 27.847656 L 42.898438 28.691406 L 40.984375 28.691406 L 40.984375 27.847656 "/>
<path style=" stroke:none;fill-rule:evenodd;fill:rgb(85.871887%,11.650085%,14.582825%);fill-opacity:1;" d="M 4.527344 25.71875 L 2.34375 25.71875 L 2.34375 26.488281 L 3.46875 26.488281 C 3.789062 26.191406 4.140625 25.929688 4.527344 25.71875 "/>
<path style=" stroke:none;fill-rule:evenodd;fill:rgb(16.308594%,23.667908%,59.5047%);fill-opacity:1;" d="M 3.46875 26.488281 L 2.34375 26.488281 L 2.34375 27.261719 L 2.800781 27.261719 C 2.996094 26.984375 3.222656 26.726562 3.46875 26.488281 "/>
<path style=" stroke:none;fill-rule:evenodd;fill:rgb(93.948364%,63.024902%,6.135559%);fill-opacity:1;" d="M 2.800781 27.261719 L 2.34375 27.261719 L 2.34375 28.035156 C 2.472656 27.765625 2.625 27.507812 2.800781 27.261719 "/>
<path style=" stroke:none;fill-rule:evenodd;fill:rgb(100%,100%,100%);fill-opacity:1;" d="M 27.007812 25.730469 L 28.5 25.730469 L 28.5 30.28125 L 27.007812 30.28125 L 27.007812 25.730469 "/>
<path style=" stroke:none;fill-rule:evenodd;fill:rgb(100%,100%,100%);fill-opacity:1;" d="M 32.96875 25.730469 L 34.460938 25.730469 L 34.460938 30.28125 L 32.96875 30.28125 L 32.96875 25.730469 "/>
<path style=" stroke:none;fill-rule:nonzero;fill:rgb(100%,100%,100%);fill-opacity:1;" d="M 30.820312 29.183594 L 32.140625 29.183594 L 32.136719 30.265625 L 29.308594 30.265625 L 29.34375 25.714844 L 30.816406 25.714844 L 30.820312 29.183594 "/>
<path style=" stroke:none;fill-rule:nonzero;fill:rgb(100%,100%,100%);fill-opacity:1;" d="M 35.289062 30.265625 L 35.285156 29.1875 L 36.109375 29.1875 L 36.109375 25.730469 L 37.523438 25.730469 L 37.523438 29.703125 C 37.523438 30.03125 37.289062 30.265625 36.960938 30.265625 L 35.289062 30.265625 "/>
<path style=" stroke:none;fill-rule:nonzero;fill:rgb(100%,100%,100%);fill-opacity:1;" d="M 24.925781 25.742188 L 20.683594 25.742188 L 19.800781 25.746094 L 20.683594 26.613281 L 24.085938 26.613281 L 24.085938 29.164062 C 24.085938 29.414062 23.878906 29.621094 23.625 29.621094 L 22.355469 29.621094 L 22.355469 26.851562 L 20.683594 26.851562 L 20.683594 30.265625 L 24.925781 30.265625 C 25.710938 30.265625 26.21875 29.757812 26.21875 28.96875 L 26.21875 27.035156 C 26.21875 26.320312 25.640625 25.742188 24.925781 25.742188 "/>
<path style=" stroke:none;fill-rule:evenodd;fill:rgb(100%,100%,100%);fill-opacity:1;" d="M 52.003906 26.777344 L 51.1875 25.949219 C 51.300781 25.808594 51.46875 25.75 51.71875 25.726562 L 53.394531 25.726562 L 53.394531 26.792969 L 52.003906 26.777344 "/>
<path style=" stroke:none;fill-rule:evenodd;fill:rgb(100%,100%,100%);fill-opacity:1;" d="M 50.699219 27.527344 C 50.375 27.113281 50.476562 26.433594 51.03125 26.050781 L 53.398438 28.445312 C 54.0625 29.105469 53.472656 30.328125 52.496094 30.285156 L 50.511719 30.285156 L 50.515625 29.199219 L 52.308594 29.183594 L 50.699219 27.527344 "/>
</g>
</svg>
