<?xml version="1.0" encoding="UTF-8"?>
<svg xmlns="http://www.w3.org/2000/svg" xmlns:xlink="http://www.w3.org/1999/xlink" width="56pt" height="56pt" viewBox="0 0 56 56" version="1.1">
<g id="surface1">
<rect x="0" y="0" width="56" height="56" style="fill:rgb(96.182251%,49.473572%,11.201477%);fill-opacity:1;stroke:none;"/>
<path style=" stroke:none;fill-rule:nonzero;fill:rgb(16.661072%,31.340027%,65.771484%);fill-opacity:1;" d="M 13.9375 43.515625 C 13.9375 43.515625 9.253906 32.128906 18.515625 25.023438 C 16.847656 24.734375 16.277344 23.175781 15.082031 22.1875 C 16.433594 22.289062 19.398438 19.84375 21.324219 22.082031 C 22.882812 18.753906 30.0625 10.015625 42.859375 12.511719 C 42.859375 12.511719 29.644531 14.070312 26.316406 23.121094 C 25.796875 24.164062 33.859375 27.855469 37.96875 29.15625 C 34.5 28.636719 33.390625 28.117188 33.183594 28.636719 C 32.972656 29.15625 36.617188 31.132812 36.617188 31.132812 C 36.617188 31.132812 31.613281 29.167969 30.878906 29.105469 C 24.636719 28.589844 22.46875 26.554688 21.84375 27.179688 C 21.21875 27.804688 14.246094 31.65625 13.9375 43.515625 "/>
<path style=" stroke:none;fill-rule:nonzero;fill:rgb(16.661072%,31.340027%,65.771484%);fill-opacity:1;" d="M 13.9375 43.515625 L 42.183594 43.515625 L 42.183594 43.929688 L 13.9375 43.929688 L 13.9375 43.515625 "/>
<path style=" stroke:none;fill-rule:nonzero;fill:rgb(16.661072%,31.340027%,65.771484%);fill-opacity:1;" d="M 36.097656 31.238281 L 49.050781 31.238281 L 49.050781 30.769531 L 36.097656 30.769531 L 36.097656 31.238281 "/>
<path style=" stroke:none;fill-rule:nonzero;fill:rgb(16.661072%,31.340027%,65.771484%);fill-opacity:1;" d="M 49.414062 29.210938 L 38.074219 29.210938 L 38.074219 29.675781 L 49.414062 29.675781 L 49.414062 29.210938 "/>
</g>
</svg>
