<?xml version="1.0" encoding="UTF-8"?>
<svg xmlns="http://www.w3.org/2000/svg" xmlns:xlink="http://www.w3.org/1999/xlink" width="56pt" height="56pt" viewBox="0 0 56 56" version="1.1">
<g id="surface1">
<rect x="0" y="0" width="56" height="56" style="fill:rgb(24.151611%,28.846741%,51.249695%);fill-opacity:1;stroke:none;"/>
<path style=" stroke:none;fill-rule:evenodd;fill:rgb(89.508057%,11.357117%,14.398193%);fill-opacity:1;" d="M 46.339844 29.539062 C 46.707031 25.613281 45.730469 21.921875 43.820312 18.875 C 44.765625 17.542969 45.679688 16.253906 46.558594 15.015625 C 49.46875 10.910156 49.8125 11.230469 49.503906 10.855469 C 49.175781 10.460938 45.128906 9.566406 41.65625 13.027344 C 41.132812 13.546875 40.613281 14.09375 40.089844 14.652344 L 40.082031 14.660156 L 40.015625 14.730469 L 40.015625 14.734375 L 39.949219 14.804688 L 39.941406 14.816406 L 39.882812 14.878906 L 39.863281 14.898438 L 39.8125 14.953125 L 39.746094 15.03125 L 39.71875 15.066406 L 39.675781 15.105469 L 39.640625 15.148438 L 39.609375 15.179688 L 39.566406 15.234375 L 39.539062 15.257812 L 39.484375 15.316406 L 39.46875 15.332031 L 39.40625 15.402344 L 39.402344 15.410156 L 39.261719 15.566406 L 39.253906 15.574219 L 39.191406 15.644531 L 39.175781 15.660156 L 39.121094 15.722656 L 39.097656 15.746094 L 39.050781 15.800781 L 39.023438 15.835938 L 38.980469 15.878906 L 38.910156 15.957031 L 38.835938 16.039062 L 38.78125 16.09375 L 38.765625 16.117188 L 38.707031 16.183594 L 38.695312 16.199219 L 38.628906 16.273438 L 38.621094 16.277344 L 38.546875 16.359375 L 38.542969 16.363281 L 38.476562 16.441406 L 38.46875 16.453125 L 38.40625 16.519531 L 38.386719 16.539062 L 38.335938 16.601562 L 38.304688 16.632812 L 38.261719 16.683594 L 38.226562 16.722656 L 38.1875 16.765625 L 38.0625 16.90625 L 38.042969 16.925781 L 37.984375 16.992188 L 37.96875 17.011719 L 37.902344 17.085938 L 37.894531 17.09375 L 37.820312 17.175781 L 37.820312 17.179688 L 37.746094 17.261719 L 37.738281 17.273438 L 37.671875 17.34375 L 37.65625 17.363281 L 37.574219 17.457031 L 37.527344 17.511719 L 37.488281 17.546875 L 37.453125 17.59375 L 37.40625 17.640625 L 37.378906 17.679688 L 37.328125 17.734375 L 37.304688 17.765625 L 37.242188 17.832031 L 37.230469 17.84375 L 37.164062 17.921875 L 37.15625 17.929688 L 37.082031 18.015625 L 37.078125 18.015625 L 37.003906 18.101562 L 36.996094 18.109375 L 36.929688 18.1875 L 36.914062 18.207031 L 36.855469 18.273438 L 36.832031 18.296875 L 36.78125 18.359375 L 36.746094 18.390625 L 36.707031 18.445312 L 36.664062 18.488281 L 36.628906 18.527344 L 36.578125 18.582031 L 36.554688 18.613281 L 36.496094 18.679688 L 36.476562 18.699219 L 36.410156 18.773438 L 36.40625 18.785156 L 36.332031 18.867188 L 36.328125 18.871094 L 36.253906 18.957031 L 36.246094 18.964844 L 36.175781 19.042969 L 36.164062 19.0625 L 36.097656 19.132812 L 36.082031 19.15625 L 36.027344 19.21875 L 35.996094 19.25 L 35.953125 19.300781 L 35.910156 19.347656 L 35.871094 19.386719 L 35.828125 19.445312 L 35.796875 19.476562 L 35.742188 19.535156 L 35.722656 19.5625 L 35.660156 19.632812 L 35.644531 19.648438 L 35.417969 19.910156 L 35.40625 19.921875 L 35.371094 19.964844 L 35.332031 20.011719 L 35.320312 20.023438 L 35.308594 20.039062 L 35.296875 20.050781 L 35.285156 20.066406 L 34.90625 20.5 L 34.605469 20.839844 L 34.523438 20.9375 C 34.261719 21.238281 33.996094 21.535156 33.734375 21.832031 L 33.722656 21.84375 L 33.652344 21.929688 C 32.414062 23.324219 31.160156 24.699219 29.871094 26.003906 L 29.859375 26.015625 C 22.15625 33.980469 16.378906 34.601562 13.402344 34.878906 C 11.132812 35.089844 8.734375 34.949219 6.675781 34.222656 C 7.171875 36.921875 8.300781 39.414062 9.914062 41.53125 C 10.554688 42.371094 11.300781 43.082031 12.113281 43.660156 C 16.390625 43.828125 20.199219 43.070312 20.199219 43.070312 C 19.34375 43.851562 17.355469 44.617188 15.339844 45.183594 C 17.738281 45.835938 20.378906 45.617188 22.789062 44.484375 C 26.785156 42.613281 28.773438 39.6875 31.265625 36.292969 C 33.484375 33.273438 35.9375 29.886719 38.394531 26.464844 C 39.140625 28.671875 39.449219 31.074219 39.21875 33.546875 C 38.894531 36.992188 37.574219 40.105469 35.570312 42.628906 C 35.390625 42.851562 35.386719 43.167969 35.566406 43.402344 C 35.746094 43.628906 36.050781 43.703125 36.320312 43.585938 C 41.75 41.125 45.746094 35.898438 46.335938 29.539062 Z M 13.523438 27.019531 C 13.207031 22.925781 15.472656 18.75 18.585938 15.535156 C 24.359375 14.253906 30.296875 15.738281 34.433594 19.992188 L 34.5625 20.125 C 36.105469 18.046875 37.605469 15.546875 38.03125 13.210938 C 35.164062 11.496094 31.757812 10.597656 28.140625 10.828125 C 24.410156 11.070312 20.960938 12.515625 18.222656 14.816406 C 11.925781 16.878906 7.128906 22.515625 6.476562 29.53125 C 6.4375 29.949219 6.410156 30.355469 6.40625 30.765625 C 9.546875 34.261719 17.492188 33.695312 19.1875 33.175781 L 19.191406 33.175781 C 16.167969 33.6875 13.90625 32.023438 13.523438 27.019531 "/>
</g>
</svg>
