<?xml version="1.0" encoding="UTF-8"?>
<svg xmlns="http://www.w3.org/2000/svg" xmlns:xlink="http://www.w3.org/1999/xlink" width="56pt" height="56pt" viewBox="0 0 56 56" version="1.1">
<g id="surface1">
<rect x="0" y="0" width="56" height="56" style="fill:rgb(20.556641%,28.501892%,60.890198%);fill-opacity:1;stroke:none;"/>
<path style=" stroke:none;fill-rule:nonzero;fill:rgb(100%,100%,100%);fill-opacity:1;" d="M 28.6875 16.355469 C 30.140625 17.234375 31.5625 18.222656 32.9375 19.296875 C 30.828125 20.003906 28.824219 20.980469 26.949219 22.195312 C 25.351562 21.34375 23.359375 20.675781 20.914062 20.371094 C 23.316406 18.558594 25.929688 17.179688 28.6875 16.355469 Z M 32.59375 12.644531 C 20.023438 12.644531 8.917969 22.074219 2.320312 36.863281 L 9.167969 36.863281 C 11.242188 31.398438 14.660156 26.320312 18.246094 22.726562 C 20.34375 22.582031 22.359375 22.929688 24.800781 23.605469 C 20.710938 26.925781 17.121094 31.859375 14.902344 37.355469 L 21.085938 37.355469 C 22.660156 32.289062 25.472656 27.929688 28.710938 24.875 C 29.78125 25.261719 30.609375 26.046875 31.800781 26.515625 C 31.34375 25.820312 30.652344 24.980469 29.699219 24.132812 C 31.261719 22.835938 32.964844 21.730469 34.785156 20.800781 C 36.496094 22.273438 38.136719 23.855469 39.703125 25.527344 C 38.53125 23.75 37.230469 22.011719 35.816406 20.308594 C 37.972656 19.3125 40.285156 18.542969 42.710938 17.988281 C 39.882812 17.847656 37.144531 18.160156 34.546875 18.847656 C 33.605469 17.785156 32.617188 16.742188 31.5625 15.710938 C 32.667969 15.539062 33.796875 15.433594 34.9375 15.433594 C 42.050781 15.433594 48.5625 18.707031 53.617188 24.582031 L 53.679688 24.300781 C 49.003906 15.976562 40.851562 12.644531 32.59375 12.644531 "/>
</g>
</svg>
