<?xml version="1.0" encoding="UTF-8"?>
<svg xmlns="http://www.w3.org/2000/svg" xmlns:xlink="http://www.w3.org/1999/xlink" width="56pt" height="56pt" viewBox="0 0 56 56" version="1.1">
<g id="surface1">
<rect x="0" y="0" width="56" height="56" style="fill:rgb(95.66803%,95.779419%,96.777344%);fill-opacity:1;stroke:none;"/>
<path style=" stroke:none;fill-rule:nonzero;fill:rgb(92.271423%,12.553406%,17.129517%);fill-opacity:1;" d="M 34.34375 50.722656 C 34.386719 50.25 34.816406 50.144531 35.128906 50.007812 C 35.941406 49.648438 36.789062 49.371094 37.726562 49.019531 C 37.660156 49.226562 37.660156 49.394531 37.578125 49.464844 C 37.195312 49.785156 36.792969 50.082031 36.394531 50.378906 C 36.226562 50.503906 36.039062 50.609375 35.863281 50.722656 C 35.355469 50.722656 34.851562 50.722656 34.34375 50.722656 "/>
<path style=" stroke:none;fill-rule:nonzero;fill:rgb(92.292786%,12.117004%,15.568542%);fill-opacity:1;" d="M 19.355469 48.695312 C 19.417969 48.667969 19.386719 48.679688 19.355469 48.695312 C 19.390625 48.6875 19.421875 48.679688 19.355469 48.695312 Z M 16.585938 9.734375 C 16.570312 9.691406 16.550781 9.652344 16.53125 9.609375 C 16.441406 9.65625 16.347656 9.699219 16.253906 9.742188 C 16.269531 9.777344 16.285156 9.816406 16.304688 9.855469 C 16.398438 9.816406 16.492188 9.773438 16.585938 9.734375 Z M 15.980469 10.121094 C 15.953125 10.082031 15.925781 10.039062 15.898438 10 C 15.8125 10.0625 15.726562 10.125 15.644531 10.183594 C 15.667969 10.222656 15.695312 10.261719 15.722656 10.296875 C 15.808594 10.238281 15.894531 10.179688 15.980469 10.121094 Z M 11.996094 13.539062 C 12.039062 13.578125 12.082031 13.617188 12.128906 13.65625 C 12.199219 13.535156 12.269531 13.414062 12.339844 13.292969 C 12.304688 13.273438 12.269531 13.25 12.234375 13.226562 C 12.15625 13.332031 12.078125 13.4375 11.996094 13.539062 Z M 47.453125 34.078125 C 47.773438 33.878906 47.773438 33.734375 47.453125 33.496094 C 47.453125 33.730469 47.453125 33.871094 47.453125 34.078125 Z M 49.214844 29.398438 C 49.535156 28.933594 49.535156 28.933594 49.28125 28.691406 C 49.265625 28.886719 49.246094 29.050781 49.214844 29.398438 Z M 14.832031 10.726562 C 15.382812 10.734375 15.382812 10.734375 15.425781 10.257812 C 15.214844 10.421875 15.054688 10.550781 14.832031 10.726562 Z M 47.242188 34.421875 C 47.175781 34.496094 47.082031 34.554688 47.042969 34.640625 C 46.609375 35.613281 46.183594 36.589844 45.753906 37.570312 C 45.996094 37.644531 46.199219 37.703125 46.433594 37.773438 C 46.71875 37.285156 47.035156 36.804688 47.289062 36.289062 C 47.835938 35.175781 48.628906 34.171875 48.792969 32.882812 C 48.894531 32.09375 49.0625 31.3125 49.203125 30.53125 C 49.25 30.199219 49.296875 29.863281 49.347656 29.53125 C 49.070312 29.828125 48.894531 30.140625 48.945312 30.527344 C 48.839844 31.015625 48.734375 31.503906 48.628906 31.992188 C 48.367188 33.167969 48.039062 34.324219 47.414062 35.367188 C 47.351562 35.472656 47.253906 35.554688 47.058594 35.769531 C 47.15625 35.28125 47.21875 34.964844 47.28125 34.652344 C 47.421875 34.425781 47.421875 34.425781 47.292969 34.21875 C 47.277344 34.296875 47.261719 34.359375 47.242188 34.421875 Z M 14.597656 11.078125 C 14.121094 11.097656 13.867188 11.472656 13.542969 11.734375 C 13.21875 12 12.757812 12.167969 12.765625 12.882812 C 13.417969 12.308594 13.960938 11.832031 14.496094 11.34375 C 14.558594 11.289062 14.566406 11.167969 14.597656 11.078125 C 14.632812 11.054688 14.671875 11.03125 14.597656 11.078125 C 14.636719 11 14.617188 11.039062 14.597656 11.078125 Z M 44.757812 39.796875 C 44.761719 39.847656 44.769531 39.894531 44.777344 39.945312 C 44.84375 39.894531 44.914062 39.847656 44.980469 39.800781 C 45.378906 39.300781 45.820312 38.832031 46.019531 38.269531 C 45.863281 38.105469 45.753906 37.988281 45.621094 37.847656 C 45.335938 38.488281 45.046875 39.144531 44.757812 39.796875 Z M 17.585938 9.050781 C 17.503906 9.09375 17.425781 9.136719 17.34375 9.175781 C 17.363281 9.207031 17.378906 9.242188 17.398438 9.273438 C 17.488281 9.226562 17.578125 9.179688 17.667969 9.132812 C 17.707031 9.089844 17.746094 9.042969 17.785156 9 C 17.765625 8.980469 17.746094 8.960938 17.726562 8.941406 C 17.679688 8.976562 17.632812 9.015625 17.585938 9.050781 Z M 32.84375 5.28125 C 33.042969 5.285156 33.242188 5.285156 33.441406 5.285156 C 35.480469 5.632812 37.324219 6.5 39.097656 7.492188 C 41.308594 8.726562 43.292969 10.277344 45.050781 12.117188 C 47.195312 14.359375 48.726562 16.945312 49.578125 19.9375 C 49.933594 21.199219 50.226562 22.464844 50.300781 23.777344 C 50.355469 24.757812 50.445312 25.738281 50.414062 26.71875 C 50.339844 29.476562 49.8125 32.15625 48.851562 34.738281 C 48.40625 35.933594 47.832031 37.085938 47.332031 38.265625 C 47.226562 38.507812 47.175781 38.777344 47.097656 39.03125 L 47.109375 39.019531 C 47.054688 39.074219 47 39.128906 46.945312 39.183594 L 46.957031 39.171875 C 46.761719 39.203125 46.765625 39.339844 46.792969 39.488281 L 46.804688 39.476562 C 46.582031 39.765625 46.355469 40.046875 46.144531 40.34375 C 45.78125 40.855469 45.441406 41.390625 45.0625 41.894531 C 44.628906 42.480469 44.164062 43.042969 43.707031 43.628906 C 43.578125 43.550781 43.496094 43.503906 43.382812 43.433594 C 42.699219 43.855469 42.207031 44.496094 41.644531 45.070312 C 41.113281 45.605469 40.574219 46.136719 39.894531 46.488281 C 39.792969 46.542969 39.6875 46.578125 39.566406 46.628906 C 39.554688 46.519531 39.53125 46.457031 39.550781 46.433594 C 39.921875 46.054688 40.308594 45.6875 40.664062 45.296875 C 41.070312 44.851562 41.445312 44.386719 41.832031 43.929688 C 41.871094 43.820312 41.910156 43.707031 41.949219 43.59375 C 41.976562 43.5625 42.007812 43.53125 42.039062 43.503906 C 42.027344 43.492188 42.015625 43.480469 42 43.46875 C 41.976562 43.507812 41.957031 43.542969 41.933594 43.578125 C 41.859375 43.660156 41.785156 43.738281 41.714844 43.820312 C 41.507812 43.953125 41.277344 44.0625 41.097656 44.222656 C 39.140625 45.960938 36.957031 47.296875 34.480469 48.175781 C 32.671875 48.8125 30.84375 49.289062 28.921875 49.371094 C 27.789062 49.417969 26.65625 49.464844 25.527344 49.507812 C 25.328125 49.511719 25.132812 49.488281 24.757812 49.46875 C 25.078125 49.246094 25.269531 49.113281 25.496094 48.957031 C 22.171875 48.773438 19.109375 47.824219 16.273438 46.136719 C 15.890625 45.84375 15.558594 45.457031 15.046875 45.347656 C 15.351562 45.800781 15.722656 46.171875 16.242188 46.371094 C 18.082031 47.632812 20.058594 48.574219 22.304688 48.980469 C 22.3125 49.0625 22.320312 49.15625 22.332031 49.261719 C 22.242188 49.289062 22.167969 49.339844 22.105469 49.324219 C 21.5 49.171875 20.894531 49.007812 20.289062 48.851562 C 20.078125 48.796875 19.867188 48.75 19.601562 48.683594 C 19.707031 49.066406 19.992188 49.117188 20.195312 49.171875 C 21.144531 49.414062 22.09375 49.65625 23.054688 49.808594 C 24.042969 49.96875 25.046875 50.023438 26.15625 50.136719 C 25.308594 50.550781 24.511719 50.617188 23.703125 50.523438 C 21.570312 50.273438 19.542969 49.617188 17.550781 48.855469 C 17.214844 48.730469 16.9375 48.683594 16.652344 48.925781 C 15.519531 48.324219 14.484375 47.617188 13.507812 46.816406 C 11.347656 45.046875 9.695312 42.863281 8.414062 40.40625 C 7.402344 38.46875 6.71875 36.402344 6.21875 34.261719 C 5.574219 31.476562 5.46875 28.660156 5.675781 25.84375 C 6.019531 21.175781 7.558594 16.921875 10.460938 13.203125 C 11.929688 11.320312 13.820312 9.957031 15.898438 8.824219 C 15.957031 8.789062 16.042969 8.796875 16.117188 8.789062 C 16.144531 8.925781 16.167969 9.058594 16.210938 9.257812 C 16.359375 9.148438 16.476562 9.0625 16.675781 8.917969 C 16.410156 8.863281 16.257812 8.832031 16.105469 8.796875 C 16.421875 8.582031 16.742188 8.359375 17.070312 8.132812 C 17.160156 8.308594 17.214844 8.417969 17.273438 8.535156 C 17.953125 8.289062 18.625 8.046875 19.300781 7.800781 C 19.304688 7.882812 19.308594 7.964844 19.3125 8.046875 C 18.84375 8.316406 18.378906 8.582031 17.910156 8.851562 C 18.667969 8.898438 19.234375 8.289062 20.085938 8.351562 C 19.929688 8.488281 19.84375 8.582031 19.738281 8.648438 C 18.0625 9.726562 16.472656 10.917969 14.957031 12.210938 C 14.59375 12.519531 14.300781 12.910156 13.996094 13.277344 C 13.117188 14.320312 12.195312 15.324219 11.394531 16.421875 C 9.824219 18.566406 8.9375 21 8.480469 23.613281 C 8.1875 25.269531 8.128906 26.929688 8.238281 28.589844 C 8.375 30.675781 8.84375 32.710938 9.605469 34.660156 C 10.695312 37.4375 12.25 39.917969 14.425781 41.988281 C 16.796875 44.238281 19.558594 45.753906 22.753906 46.480469 C 24.460938 46.867188 26.191406 47.019531 27.929688 46.90625 C 30.734375 46.726562 33.4375 46.117188 35.960938 44.820312 C 38.601562 43.453125 40.820312 41.589844 42.558594 39.171875 C 43.132812 38.378906 43.667969 37.558594 44.21875 36.75 C 44.277344 36.742188 44.335938 36.738281 44.394531 36.730469 C 44.300781 36.960938 44.207031 37.1875 44.113281 37.414062 C 43.980469 37.734375 43.851562 38.054688 43.71875 38.375 C 43.683594 38.421875 43.648438 38.472656 43.613281 38.519531 C 43.632812 38.535156 43.652344 38.550781 43.671875 38.566406 C 43.710938 38.527344 43.746094 38.484375 43.785156 38.441406 C 44.394531 37.855469 44.71875 37.078125 45.085938 36.347656 C 46.074219 34.355469 46.652344 32.226562 46.910156 30.03125 C 47.066406 28.683594 47.039062 27.320312 46.851562 25.957031 C 46.65625 24.511719 46.335938 23.101562 45.886719 21.71875 C 45.367188 20.109375 44.710938 18.566406 43.457031 17.359375 C 43.371094 17.277344 43.257812 17.21875 43.15625 17.148438 C 43.128906 17.113281 43.101562 17.078125 43.175781 17.171875 C 43.066406 17.121094 43.105469 17.140625 43.148438 17.160156 C 43.226562 17.414062 43.265625 17.691406 43.386719 17.921875 C 44.007812 19.125 44.675781 20.296875 45.023438 21.628906 C 45.21875 22.390625 45.308594 23.15625 45.300781 23.9375 C 45.300781 24.039062 45.234375 24.144531 45.152344 24.386719 C 44.867188 23.425781 44.679688 22.589844 44.375 21.796875 C 44.070312 21.003906 43.683594 20.234375 43.261719 19.496094 C 42.828125 18.734375 42.351562 17.988281 41.8125 17.296875 C 41.269531 16.605469 40.667969 15.949219 40.019531 15.355469 C 39.390625 14.785156 38.691406 14.277344 37.976562 13.8125 C 37.246094 13.339844 36.460938 12.957031 35.542969 12.449219 C 35.90625 12.363281 36.101562 12.316406 36.324219 12.261719 C 36.070312 12.042969 35.675781 12.117188 35.542969 11.683594 C 35.773438 11.714844 35.96875 11.71875 36.148438 11.769531 C 37.101562 12.03125 37.964844 12.480469 38.789062 13.019531 C 38.910156 13.101562 39.050781 13.160156 39.179688 13.230469 C 39.265625 13.273438 39.34375 13.320312 39.425781 13.367188 C 39.445312 13.335938 39.460938 13.300781 39.480469 13.269531 C 39.40625 13.226562 39.332031 13.179688 39.257812 13.136719 C 39.140625 12.953125 39.019531 12.769531 38.84375 12.503906 C 39.140625 12.546875 39.375 12.582031 39.742188 12.640625 C 39.285156 12.152344 38.820312 11.910156 38.347656 11.722656 C 37.71875 11.476562 37.066406 11.289062 36.40625 11.128906 C 35.941406 11.011719 35.464844 11.070312 34.992188 11.214844 C 34.640625 11.320312 34.257812 11.398438 33.890625 11.375 C 33.050781 11.320312 32.238281 11.378906 31.429688 11.644531 C 30.816406 11.851562 30.171875 11.96875 29.683594 12.089844 C 28.617188 12.039062 28.261719 11.429688 28.046875 10.640625 C 27.367188 8.125 28.871094 5.769531 31.148438 5.289062 C 31.34375 5.285156 31.542969 5.28125 31.742188 5.277344 C 32.109375 5.277344 32.476562 5.28125 32.84375 5.28125 "/>
<path style=" stroke:none;fill-rule:nonzero;fill:rgb(92.268372%,12.286377%,15.550232%);fill-opacity:1;" d="M 12.460938 35.402344 C 11.90625 35.339844 11.484375 35.078125 11.171875 34.609375 C 10.867188 34.15625 10.523438 33.726562 10.214844 33.273438 C 10.121094 33.140625 10.089844 32.964844 10.03125 32.808594 L 10.042969 32.792969 C 10.175781 32.855469 10.339844 32.890625 10.429688 32.988281 C 10.929688 33.539062 11.582031 33.65625 12.273438 33.726562 C 13.898438 33.886719 15.335938 33.402344 16.730469 32.609375 C 19.066406 31.289062 21.167969 29.648438 23.277344 28.007812 C 25.265625 26.460938 27.25 24.90625 29.453125 23.664062 C 30.746094 22.933594 32.058594 22.253906 33.46875 21.78125 C 33.847656 21.65625 34.253906 21.601562 34.644531 21.515625 C 34.648438 21.582031 34.648438 21.644531 34.652344 21.710938 C 32.925781 22.570312 31.453125 23.769531 30.03125 25.046875 C 29.296875 25.703125 28.582031 26.375 27.851562 27.035156 C 26.808594 27.984375 25.6875 28.859375 24.730469 29.890625 C 23.347656 31.378906 21.765625 32.597656 20.105469 33.742188 C 18.882812 34.585938 17.601562 35.308594 16.125 35.597656 C 15.566406 35.710938 14.984375 35.828125 14.425781 35.792969 C 13.765625 35.746094 13.113281 35.539062 12.460938 35.402344 "/>
<path style=" stroke:none;fill-rule:nonzero;fill:rgb(92.247009%,12.477112%,15.449524%);fill-opacity:1;" d="M 10.21875 28.820312 C 10.03125 28.613281 9.824219 28.421875 9.671875 28.195312 C 9.503906 27.949219 9.363281 27.675781 9.492188 27.304688 C 9.605469 27.324219 9.734375 27.320312 9.832031 27.371094 C 11.878906 28.519531 13.953125 28.335938 15.988281 27.390625 C 17.46875 26.703125 18.902344 25.917969 20.347656 25.160156 C 21.640625 24.484375 22.949219 23.84375 24.335938 23.386719 C 25.433594 23.027344 26.550781 22.738281 27.703125 22.625 C 28.203125 22.574219 28.703125 22.53125 29.203125 22.492188 C 29.292969 22.488281 29.386719 22.523438 29.652344 22.574219 C 29.304688 22.738281 29.101562 22.832031 28.902344 22.925781 C 28.761719 22.96875 28.609375 22.992188 28.480469 23.058594 C 27.679688 23.472656 26.859375 23.851562 26.09375 24.320312 C 23.746094 25.757812 21.417969 27.222656 19.089844 28.691406 C 17.75 29.535156 16.371094 30.199219 14.757812 30.417969 C 13.480469 30.59375 12.386719 30.371094 11.359375 29.65625 C 10.972656 29.386719 10.597656 29.097656 10.21875 28.820312 "/>
<path style=" stroke:none;fill-rule:nonzero;fill:rgb(92.247009%,12.477112%,15.449524%);fill-opacity:1;" d="M 17.648438 37.691406 C 17.355469 37.648438 17.0625 37.601562 16.746094 37.554688 C 16.746094 37.378906 16.746094 37.261719 16.746094 37.207031 C 17.511719 37.03125 18.253906 36.910156 18.964844 36.683594 C 20.203125 36.289062 21.261719 35.550781 22.277344 34.761719 C 24.554688 32.984375 26.589844 30.964844 28.390625 28.699219 C 29.210938 27.671875 30.078125 26.679688 31.214844 25.988281 C 31.578125 25.765625 31.980469 25.617188 32.363281 25.433594 C 32.367188 25.507812 32.367188 25.582031 32.367188 25.65625 L 32.363281 25.675781 C 32.316406 25.722656 32.265625 25.769531 32.21875 25.816406 L 32.222656 25.808594 C 32.167969 25.910156 32.113281 26.011719 32.054688 26.109375 L 32.058594 26.105469 C 31.539062 26.203125 31.285156 26.628906 31.015625 27.003906 C 30.179688 28.164062 29.46875 29.402344 28.816406 30.667969 C 27.964844 32.316406 27.074219 33.9375 25.855469 35.359375 C 25.085938 36.257812 24.164062 36.898438 23.097656 37.371094 C 22.210938 37.769531 21.257812 37.792969 20.328125 37.941406 C 20.082031 37.976562 19.820312 37.960938 19.570312 37.933594 C 18.929688 37.863281 18.289062 37.773438 17.648438 37.691406 "/>
<path style=" stroke:none;fill-rule:nonzero;fill:rgb(92.253113%,12.394714%,15.779114%);fill-opacity:1;" d="M 42.574219 33.734375 C 42.132812 34.613281 41.402344 35.230469 40.640625 35.808594 C 39.738281 36.496094 38.78125 37.082031 37.660156 37.355469 C 36.535156 37.632812 35.421875 37.597656 34.332031 37.203125 C 33.128906 36.773438 32.054688 36.148438 31.269531 35.113281 C 30.660156 34.316406 30.296875 33.425781 30.238281 32.414062 C 30.191406 31.5 30.296875 30.613281 30.621094 29.753906 C 30.691406 29.574219 30.691406 29.363281 30.722656 29.167969 L 30.707031 29.164062 C 30.925781 29.144531 30.898438 29.003906 30.863281 28.855469 L 30.863281 28.863281 C 31.019531 28.683594 31.1875 28.515625 31.332031 28.328125 C 31.707031 27.84375 32.03125 27.316406 32.675781 26.957031 C 32.625 27.453125 32.335938 27.75 32.199219 28.105469 C 31.566406 29.175781 31.683594 30.285156 32.058594 31.398438 C 32.363281 32.320312 33.003906 32.996094 33.71875 33.601562 C 34.609375 34.355469 35.65625 34.835938 36.796875 35.058594 C 37.703125 35.238281 38.621094 35.316406 39.546875 35.09375 C 40.382812 34.898438 41.183594 34.664062 41.8125 34.039062 C 42.035156 33.910156 42.257812 33.785156 42.480469 33.65625 C 42.515625 33.679688 42.542969 33.707031 42.574219 33.734375 "/>
<path style=" stroke:none;fill-rule:nonzero;fill:rgb(92.848206%,93.104553%,8.894348%);fill-opacity:1;" d="M 12.460938 35.402344 C 13.113281 35.539062 13.765625 35.746094 14.425781 35.792969 C 14.984375 35.828125 15.566406 35.710938 16.125 35.597656 C 17.601562 35.308594 18.882812 34.585938 20.105469 33.742188 C 21.765625 32.597656 23.347656 31.378906 24.730469 29.890625 C 25.6875 28.859375 26.808594 27.984375 27.851562 27.035156 C 28.582031 26.375 29.296875 25.703125 30.03125 25.046875 C 31.453125 23.769531 32.925781 22.570312 34.652344 21.710938 C 34.761719 21.710938 34.867188 21.707031 34.972656 21.703125 C 34.335938 22.304688 33.707031 22.917969 33.050781 23.503906 C 32.457031 24.039062 31.800781 24.519531 31.222656 25.070312 C 29.632812 26.582031 28.054688 28.109375 26.496094 29.65625 C 25.53125 30.613281 24.632812 31.636719 23.660156 32.589844 C 22.546875 33.679688 21.285156 34.605469 19.917969 35.34375 C 18.984375 35.851562 17.957031 36.199219 16.871094 36.296875 C 16.402344 36.339844 15.929688 36.394531 15.457031 36.4375 C 14.585938 36.527344 13.78125 36.238281 12.976562 35.972656 C 12.699219 35.878906 12.480469 35.726562 12.460938 35.402344 "/>
<path style=" stroke:none;fill-rule:nonzero;fill:rgb(92.848206%,93.104553%,8.894348%);fill-opacity:1;" d="M 10.21875 28.820312 C 10.597656 29.097656 10.972656 29.386719 11.359375 29.65625 C 12.386719 30.371094 13.480469 30.59375 14.757812 30.417969 C 16.371094 30.199219 17.75 29.535156 19.089844 28.691406 C 21.417969 27.222656 23.746094 25.757812 26.09375 24.320312 C 26.859375 23.851562 27.679688 23.472656 28.480469 23.058594 C 28.609375 22.992188 28.761719 22.96875 28.902344 22.925781 C 28.714844 23.472656 28.191406 23.691406 27.777344 23.980469 C 26.714844 24.730469 25.59375 25.402344 24.519531 26.136719 C 23.300781 26.96875 22.101562 27.835938 20.898438 28.691406 C 19.53125 29.667969 18.144531 30.605469 16.617188 31.332031 C 15.730469 31.753906 14.828125 31.964844 13.851562 31.882812 C 13.289062 31.835938 12.792969 31.601562 12.3125 31.335938 C 11.382812 30.820312 10.699219 30.074219 10.253906 29.109375 C 10.21875 29.027344 10.230469 28.917969 10.21875 28.820312 "/>
<path style=" stroke:none;fill-rule:nonzero;fill:rgb(92.848206%,93.104553%,8.894348%);fill-opacity:1;" d="M 17.648438 37.691406 C 18.289062 37.773438 18.929688 37.863281 19.570312 37.933594 C 19.820312 37.960938 20.082031 37.976562 20.328125 37.941406 C 21.257812 37.792969 22.210938 37.769531 23.097656 37.371094 C 24.164062 36.898438 25.085938 36.257812 25.855469 35.359375 C 27.074219 33.9375 27.964844 32.316406 28.816406 30.667969 C 29.46875 29.402344 30.179688 28.164062 31.015625 27.003906 C 31.285156 26.628906 31.539062 26.203125 32.058594 26.105469 C 31.90625 26.441406 31.761719 26.777344 31.597656 27.105469 C 31.375 27.550781 31.125 27.980469 30.910156 28.429688 C 30.851562 28.550781 30.878906 28.71875 30.863281 28.863281 L 30.863281 28.855469 C 30.632812 28.867188 30.683594 29.023438 30.707031 29.164062 L 30.722656 29.167969 C 30.390625 29.253906 30.402344 29.585938 30.300781 29.808594 C 29.757812 30.984375 29.269531 32.183594 28.71875 33.355469 C 28.140625 34.585938 27.441406 35.75 26.417969 36.667969 C 25.261719 37.707031 23.929688 38.355469 22.359375 38.601562 C 21.234375 38.777344 20.167969 38.652344 19.097656 38.398438 C 18.574219 38.269531 18.035156 38.121094 17.648438 37.691406 "/>
<path style=" stroke:none;fill-rule:nonzero;fill:rgb(92.237854%,12.564087%,15.760803%);fill-opacity:1;" d="M 35.238281 26.722656 C 34.96875 26.664062 34.695312 26.621094 34.433594 26.542969 C 34.109375 26.449219 33.75 26.386719 33.546875 26.015625 C 33.878906 25.910156 34.167969 25.992188 34.460938 26.039062 C 35.277344 26.167969 36.078125 26.328125 36.917969 26.140625 C 38.425781 25.800781 39.425781 24.921875 39.90625 23.46875 C 40.144531 22.753906 39.75 21.972656 38.992188 21.714844 C 38.429688 21.523438 37.832031 21.441406 37.230469 21.304688 C 37.304688 20.816406 37.734375 21.0625 38 20.972656 C 38.632812 20.964844 39.265625 20.917969 39.894531 20.960938 C 40.253906 20.984375 40.632812 21.097656 40.953125 21.269531 C 42.277344 21.984375 42.472656 23.171875 42.152344 24.589844 C 41.867188 25.851562 40.941406 26.582031 39.707031 26.875 C 38.746094 27.101562 37.777344 27.113281 36.800781 26.902344 C 36.289062 26.789062 35.757812 26.777344 35.238281 26.722656 "/>
<path style=" stroke:none;fill-rule:nonzero;fill:rgb(92.256165%,12.446594%,16.897583%);fill-opacity:1;" d="M 47.097656 39.03125 C 47.1875 38.960938 47.316406 38.90625 47.363281 38.8125 C 48.050781 37.414062 48.726562 36.011719 49.414062 34.609375 C 49.488281 34.460938 49.613281 34.335938 49.777344 34.105469 C 49.90625 34.820312 49.730469 35.390625 49.597656 35.957031 C 49.207031 37.578125 48.546875 39.097656 47.746094 40.554688 C 46.761719 42.347656 45.613281 44.035156 44.160156 45.492188 C 43.28125 46.371094 42.292969 47.113281 41.246094 47.777344 C 41.101562 47.871094 40.933594 47.933594 40.769531 48 C 40.734375 48.015625 40.679688 47.988281 40.566406 47.96875 C 40.613281 47.855469 40.628906 47.71875 40.703125 47.667969 C 41.914062 46.808594 42.890625 45.710938 43.742188 44.519531 C 44.75 43.105469 45.667969 41.628906 46.605469 40.167969 C 46.726562 39.972656 46.738281 39.710938 46.804688 39.476562 L 46.792969 39.488281 C 47.050781 39.484375 47.011719 39.332031 46.957031 39.171875 L 46.945312 39.183594 C 47 39.128906 47.054688 39.074219 47.109375 39.019531 L 47.097656 39.03125 "/>
<path style=" stroke:none;fill-rule:nonzero;fill:rgb(93.115234%,93.147278%,8.058167%);fill-opacity:1;" d="M 41.8125 34.039062 C 41.183594 34.664062 40.382812 34.898438 39.546875 35.09375 C 38.621094 35.316406 37.703125 35.238281 36.796875 35.058594 C 35.65625 34.835938 34.609375 34.355469 33.71875 33.601562 C 33.003906 32.996094 32.363281 32.320312 32.058594 31.398438 C 31.683594 30.285156 31.566406 29.175781 32.199219 28.105469 C 32.207031 28.332031 32.234375 28.558594 32.222656 28.785156 C 32.171875 29.707031 32.457031 30.523438 33.027344 31.226562 C 33.859375 32.253906 34.859375 33.066406 36.109375 33.578125 C 37.28125 34.054688 38.476562 34.390625 39.746094 34.324219 C 40.289062 34.296875 40.828125 34.15625 41.371094 34.074219 C 41.515625 34.050781 41.664062 34.050781 41.8125 34.039062 "/>
<path style=" stroke:none;fill-rule:nonzero;fill:rgb(93.161011%,93.183899%,8.996582%);fill-opacity:1;" d="M 35.238281 26.722656 C 35.757812 26.777344 36.289062 26.789062 36.800781 26.902344 C 37.777344 27.113281 38.746094 27.101562 39.707031 26.875 C 40.941406 26.582031 41.867188 25.851562 42.152344 24.589844 C 42.472656 23.171875 42.277344 21.984375 40.953125 21.269531 C 40.632812 21.097656 40.253906 20.984375 39.894531 20.960938 C 39.265625 20.917969 38.632812 20.964844 38 20.972656 C 38.570312 20.480469 39.265625 20.433594 39.953125 20.527344 C 40.726562 20.628906 41.425781 20.9375 42.070312 21.402344 C 42.957031 22.042969 43.457031 22.917969 43.578125 23.96875 C 43.667969 24.773438 43.269531 25.472656 42.777344 26.089844 C 42.085938 26.957031 41.132812 27.300781 40.058594 27.5 C 38.710938 27.75 37.429688 27.511719 36.148438 27.167969 C 35.828125 27.082031 35.539062 26.875 35.238281 26.722656 "/>
<path style=" stroke:none;fill-rule:nonzero;fill:rgb(92.625427%,82.807922%,83.843994%);fill-opacity:1;" d="M 16.242188 46.371094 C 15.722656 46.171875 15.351562 45.800781 15.046875 45.347656 C 15.558594 45.457031 15.890625 45.84375 16.273438 46.136719 C 16.265625 46.214844 16.253906 46.292969 16.242188 46.371094 "/>
<path style=" stroke:none;fill-rule:nonzero;fill:rgb(92.271423%,12.553406%,17.129517%);fill-opacity:1;" d="M 39.933594 47.453125 C 39.832031 47.820312 39.761719 48.152344 39.289062 48.128906 C 39.273438 47.636719 39.273438 47.636719 39.933594 47.453125 "/>
<path style=" stroke:none;fill-rule:nonzero;fill:rgb(92.680359%,25.27771%,34.57489%);fill-opacity:1;" d="M 34.972656 21.703125 C 34.867188 21.707031 34.761719 21.710938 34.652344 21.710938 C 34.648438 21.644531 34.648438 21.582031 34.644531 21.515625 C 34.925781 21.304688 35.226562 21.40625 35.675781 21.425781 C 35.347656 21.554688 35.160156 21.628906 34.972656 21.703125 "/>
<path style=" stroke:none;fill-rule:nonzero;fill:rgb(92.271423%,12.553406%,17.129517%);fill-opacity:1;" d="M 38.183594 47.988281 C 38.421875 47.914062 38.546875 47.875 38.769531 47.804688 C 38.722656 48.023438 38.695312 48.152344 38.644531 48.378906 C 38.476562 48.238281 38.371094 48.148438 38.183594 47.988281 "/>
<path style=" stroke:none;fill-rule:nonzero;fill:rgb(92.451477%,59.910583%,65.226746%);fill-opacity:1;" d="M 44.546875 36.453125 C 44.574219 36.1875 44.582031 36.109375 44.589844 36.03125 C 44.660156 36.058594 44.730469 36.085938 44.804688 36.113281 C 44.757812 36.175781 44.710938 36.238281 44.546875 36.453125 "/>
<path style=" stroke:none;fill-rule:nonzero;fill:rgb(92.680359%,25.27771%,34.57489%);fill-opacity:1;" d="M 32.367188 25.65625 C 32.367188 25.582031 32.367188 25.507812 32.363281 25.433594 C 32.457031 25.40625 32.546875 25.378906 32.65625 25.34375 C 32.707031 25.667969 32.53125 25.65625 32.367188 25.65625 "/>
<path style=" stroke:none;fill-rule:nonzero;fill:rgb(92.680359%,25.27771%,34.57489%);fill-opacity:1;" d="M 19.3125 8.046875 C 19.308594 7.964844 19.304688 7.882812 19.300781 7.800781 C 19.378906 7.777344 19.460938 7.75 19.539062 7.722656 C 19.554688 7.753906 19.574219 7.785156 19.59375 7.816406 C 19.5 7.890625 19.40625 7.96875 19.3125 8.046875 "/>
<path style=" stroke:none;fill-rule:nonzero;fill:rgb(92.848206%,93.104553%,8.894348%);fill-opacity:1;" d="M 32.054688 26.109375 C 32.113281 26.011719 32.167969 25.910156 32.222656 25.808594 C 32.167969 25.910156 32.113281 26.011719 32.054688 26.109375 "/>
<path style=" stroke:none;fill-rule:nonzero;fill:rgb(92.253113%,12.394714%,15.779114%);fill-opacity:1;" d="M 42.480469 33.65625 C 42.554688 33.574219 42.628906 33.492188 42.703125 33.410156 L 42.691406 33.398438 C 42.652344 33.511719 42.613281 33.621094 42.574219 33.734375 C 42.542969 33.707031 42.515625 33.679688 42.480469 33.65625 "/>
<path style=" stroke:none;fill-rule:nonzero;fill:rgb(92.680359%,25.27771%,34.57489%);fill-opacity:1;" d="M 44.394531 36.730469 C 44.335938 36.738281 44.277344 36.742188 44.21875 36.75 C 44.261719 36.691406 44.304688 36.632812 44.347656 36.574219 C 44.367188 36.59375 44.386719 36.613281 44.40625 36.632812 C 44.398438 36.664062 44.394531 36.699219 44.394531 36.730469 "/>
<path style=" stroke:none;fill-rule:nonzero;fill:rgb(92.848206%,93.104553%,8.894348%);fill-opacity:1;" d="M 32.21875 25.816406 C 32.265625 25.769531 32.316406 25.722656 32.363281 25.675781 C 32.316406 25.722656 32.265625 25.769531 32.21875 25.816406 "/>
<path style=" stroke:none;fill-rule:nonzero;fill:rgb(92.680359%,25.27771%,34.57489%);fill-opacity:1;" d="M 44.347656 36.574219 C 44.375 36.535156 44.402344 36.5 44.429688 36.464844 C 44.445312 36.46875 44.460938 36.476562 44.476562 36.484375 C 44.457031 36.53125 44.429688 36.582031 44.40625 36.632812 C 44.386719 36.613281 44.367188 36.59375 44.347656 36.574219 "/>
<path style=" stroke:none;fill-rule:nonzero;fill:rgb(92.253113%,12.394714%,15.779114%);fill-opacity:1;" d="M 42.703125 33.410156 C 42.726562 33.375 42.75 33.339844 42.71875 33.386719 C 42.761719 33.367188 42.726562 33.382812 42.691406 33.398438 L 42.703125 33.410156 "/>
<path style=" stroke:none;fill-rule:nonzero;fill:rgb(92.451477%,59.910583%,65.226746%);fill-opacity:1;" d="M 49.203125 30.53125 C 49.117188 30.527344 49.03125 30.527344 48.945312 30.527344 C 48.894531 30.140625 49.070312 29.828125 49.347656 29.53125 C 49.296875 29.863281 49.25 30.199219 49.203125 30.53125 "/>
<path style=" stroke:none;fill-rule:nonzero;fill:rgb(92.625427%,82.807922%,83.843994%);fill-opacity:1;" d="M 16.105469 8.796875 C 16.257812 8.832031 16.410156 8.863281 16.675781 8.917969 C 16.476562 9.0625 16.359375 9.148438 16.210938 9.257812 C 16.167969 9.058594 16.144531 8.925781 16.117188 8.789062 L 16.105469 8.796875 "/>
<path style=" stroke:none;fill-rule:nonzero;fill:rgb(92.451477%,59.910583%,65.226746%);fill-opacity:1;" d="M 49.214844 29.398438 C 49.246094 29.050781 49.265625 28.886719 49.28125 28.691406 C 49.535156 28.933594 49.535156 28.933594 49.214844 29.398438 "/>
<path style=" stroke:none;fill-rule:nonzero;fill:rgb(92.451477%,59.910583%,65.226746%);fill-opacity:1;" d="M 47.453125 34.078125 C 47.453125 33.871094 47.453125 33.730469 47.453125 33.496094 C 47.773438 33.734375 47.773438 33.878906 47.453125 34.078125 "/>
<path style=" stroke:none;fill-rule:nonzero;fill:rgb(92.625427%,82.807922%,83.843994%);fill-opacity:1;" d="M 16.585938 9.734375 C 16.492188 9.773438 16.398438 9.816406 16.304688 9.855469 C 16.285156 9.816406 16.269531 9.777344 16.253906 9.742188 C 16.347656 9.699219 16.441406 9.65625 16.53125 9.609375 C 16.550781 9.652344 16.570312 9.691406 16.585938 9.734375 "/>
<path style=" stroke:none;fill-rule:nonzero;fill:rgb(92.451477%,59.910583%,65.226746%);fill-opacity:1;" d="M 47.28125 34.652344 C 47.269531 34.574219 47.257812 34.5 47.242188 34.421875 C 47.261719 34.359375 47.277344 34.296875 47.292969 34.21875 C 47.421875 34.425781 47.421875 34.425781 47.28125 34.652344 "/>
<path style=" stroke:none;fill-rule:nonzero;fill:rgb(92.381287%,91.888428%,91.595459%);fill-opacity:1;" d="M 41.949219 43.59375 C 41.910156 43.707031 41.871094 43.820312 41.832031 43.929688 C 41.792969 43.894531 41.753906 43.855469 41.714844 43.820312 C 41.785156 43.738281 41.859375 43.660156 41.933594 43.578125 L 41.949219 43.59375 "/>
<path style=" stroke:none;fill-rule:nonzero;fill:rgb(92.381287%,91.888428%,91.595459%);fill-opacity:1;" d="M 46.957031 39.171875 C 47.011719 39.332031 47.050781 39.484375 46.792969 39.488281 C 46.765625 39.339844 46.761719 39.203125 46.957031 39.171875 "/>
<path style=" stroke:none;fill-rule:nonzero;fill:rgb(92.381287%,91.888428%,91.595459%);fill-opacity:1;" d="M 17.667969 9.132812 C 17.578125 9.179688 17.488281 9.226562 17.398438 9.273438 C 17.378906 9.242188 17.363281 9.207031 17.34375 9.175781 C 17.425781 9.136719 17.503906 9.09375 17.585938 9.050781 C 17.613281 9.078125 17.640625 9.105469 17.667969 9.132812 "/>
<path style=" stroke:none;fill-rule:nonzero;fill:rgb(92.680359%,25.27771%,34.57489%);fill-opacity:1;" d="M 44.757812 39.796875 C 44.832031 39.800781 44.90625 39.800781 44.980469 39.800781 C 44.914062 39.847656 44.84375 39.894531 44.777344 39.945312 C 44.769531 39.894531 44.761719 39.847656 44.757812 39.796875 "/>
<path style=" stroke:none;fill-rule:nonzero;fill:rgb(92.381287%,91.888428%,91.595459%);fill-opacity:1;" d="M 39.257812 13.136719 C 39.332031 13.179688 39.40625 13.226562 39.480469 13.269531 C 39.460938 13.300781 39.445312 13.335938 39.425781 13.367188 C 39.34375 13.320312 39.265625 13.273438 39.179688 13.230469 C 39.210938 13.199219 39.234375 13.167969 39.257812 13.136719 "/>
<path style=" stroke:none;fill-rule:nonzero;fill:rgb(92.381287%,91.888428%,91.595459%);fill-opacity:1;" d="M 17.585938 9.050781 C 17.632812 9.015625 17.679688 8.976562 17.726562 8.941406 C 17.746094 8.960938 17.765625 8.980469 17.785156 9 C 17.746094 9.042969 17.707031 9.089844 17.667969 9.132812 C 17.640625 9.105469 17.613281 9.078125 17.585938 9.050781 "/>
<path style=" stroke:none;fill-rule:nonzero;fill:rgb(92.381287%,91.888428%,91.595459%);fill-opacity:1;" d="M 47.109375 39.019531 C 47.054688 39.074219 47 39.128906 46.945312 39.183594 C 47 39.128906 47.054688 39.074219 47.109375 39.019531 "/>
<path style=" stroke:none;fill-rule:nonzero;fill:rgb(92.381287%,91.888428%,91.595459%);fill-opacity:1;" d="M 43.785156 38.441406 C 43.746094 38.484375 43.710938 38.527344 43.671875 38.566406 C 43.652344 38.550781 43.632812 38.535156 43.613281 38.519531 C 43.648438 38.472656 43.683594 38.421875 43.71875 38.375 C 43.738281 38.398438 43.761719 38.417969 43.785156 38.441406 "/>
<path style=" stroke:none;fill-rule:nonzero;fill:rgb(92.381287%,91.888428%,91.595459%);fill-opacity:1;" d="M 41.933594 43.578125 C 41.957031 43.542969 41.976562 43.507812 42 43.46875 C 42.015625 43.480469 42.027344 43.492188 42.039062 43.503906 C 42.007812 43.53125 41.976562 43.5625 41.949219 43.59375 L 41.933594 43.578125 "/>
<path style=" stroke:none;fill-rule:nonzero;fill:rgb(92.381287%,91.888428%,91.595459%);fill-opacity:1;" d="M 43.148438 17.160156 C 43.105469 17.140625 43.066406 17.121094 43.175781 17.171875 C 43.101562 17.078125 43.128906 17.113281 43.15625 17.148438 L 43.148438 17.160156 "/>
<path style=" stroke:none;fill-rule:nonzero;fill:rgb(92.381287%,91.888428%,91.595459%);fill-opacity:1;" d="M 19.355469 48.695312 C 19.421875 48.679688 19.390625 48.6875 19.355469 48.695312 C 19.386719 48.679688 19.417969 48.667969 19.355469 48.695312 "/>
<path style=" stroke:none;fill-rule:nonzero;fill:rgb(92.381287%,91.888428%,91.595459%);fill-opacity:1;" d="M 30.707031 29.164062 C 30.683594 29.023438 30.632812 28.867188 30.863281 28.855469 C 30.898438 29.003906 30.925781 29.144531 30.707031 29.164062 "/>
</g>
</svg>
