<?xml version="1.0" encoding="UTF-8"?>
<svg xmlns="http://www.w3.org/2000/svg" xmlns:xlink="http://www.w3.org/1999/xlink" width="56pt" height="56pt" viewBox="0 0 56 56" version="1.1">
<g id="surface1">
<rect x="0" y="0" width="56" height="56" style="fill:rgb(95.666504%,95.776367%,96.775818%);fill-opacity:1;stroke:none;"/>
<path style=" stroke:none;fill-rule:nonzero;fill:rgb(90.145874%,19.363403%,13.128662%);fill-opacity:1;" d="M 25.195312 20.601562 C 25.15625 20.625 25.117188 20.648438 25.078125 20.667969 C 25.222656 21.21875 25.269531 21.304688 25.648438 21.625 C 25.46875 21.21875 25.332031 20.910156 25.195312 20.601562 Z M 39.140625 18.582031 C 40.738281 17.988281 42.359375 17.507812 44.066406 17.332031 C 46.09375 17.125 47.890625 17.734375 49.558594 18.824219 C 49.753906 18.949219 49.929688 19.121094 50.085938 19.296875 C 50.675781 19.957031 50.765625 20.628906 50.378906 21.425781 C 50.335938 21.515625 50.285156 21.601562 50.207031 21.746094 C 50.585938 22.066406 50.96875 22.394531 51.390625 22.753906 C 50.894531 23.21875 50.410156 23.671875 49.921875 24.132812 C 50.0625 24.394531 50.15625 24.585938 50.265625 24.769531 C 50.953125 25.992188 51.636719 27.21875 52.34375 28.429688 C 52.539062 28.765625 52.574219 29.085938 52.488281 29.449219 C 52.113281 31.074219 51.230469 32.378906 50.007812 33.46875 C 48.75 34.59375 47.28125 35.347656 45.710938 35.929688 C 45.402344 36.042969 45.175781 35.945312 44.929688 35.820312 C 42.371094 34.527344 39.808594 33.238281 37.253906 31.949219 C 36.988281 31.816406 36.722656 31.683594 36.394531 31.617188 C 36.503906 31.726562 36.609375 31.84375 36.726562 31.949219 C 38.136719 33.199219 39.445312 34.539062 40.550781 36.070312 C 41.246094 37.035156 41.84375 38.058594 42.226562 39.195312 C 42.792969 40.851562 42.65625 42.414062 41.667969 43.894531 C 41.128906 44.707031 40.550781 45.480469 39.726562 46.03125 C 38.886719 46.59375 37.972656 46.824219 36.964844 46.574219 C 36.445312 46.445312 36.03125 46.214844 35.78125 45.695312 C 35.53125 45.179688 35.210938 44.703125 34.914062 44.210938 C 34.828125 44.0625 34.71875 43.925781 34.582031 43.71875 C 34.164062 44.417969 33.789062 45.058594 33.382812 45.746094 C 33.210938 45.65625 33.035156 45.601562 32.914062 45.496094 C 32.488281 45.132812 32.054688 45.175781 31.542969 45.324219 C 29.53125 45.910156 27.507812 46.449219 25.484375 46.992188 C 25.144531 47.085938 24.789062 47.140625 24.4375 47.175781 C 23.734375 47.25 23.632812 47.179688 23.425781 46.484375 C 23.320312 46.125 23.238281 45.757812 23.183594 45.386719 C 22.839844 42.964844 22.921875 40.574219 23.710938 38.238281 C 23.828125 37.886719 23.980469 37.546875 24.148438 37.125 C 24.007812 37.175781 23.933594 37.1875 23.875 37.222656 C 21.394531 38.742188 19.152344 40.542969 17.390625 42.882812 C 16.820312 43.636719 16.386719 44.484375 15.871094 45.285156 C 15.566406 45.765625 15.277344 46.269531 14.894531 46.683594 C 14.28125 47.335938 13.484375 47.578125 12.617188 47.304688 C 12.078125 47.136719 11.519531 46.917969 11.078125 46.582031 C 10.371094 46.046875 9.757812 45.394531 9.105469 44.796875 C 8.839844 44.554688 8.800781 44.269531 8.875 43.933594 C 8.96875 43.496094 9.03125 43.050781 9.109375 42.59375 C 8.988281 42.554688 8.914062 42.503906 8.84375 42.511719 C 7.984375 42.578125 7.21875 42.234375 6.4375 41.964844 C 5.953125 41.792969 5.472656 41.613281 4.980469 41.46875 C 4.640625 41.367188 4.460938 41.171875 4.367188 40.832031 C 3.917969 39.207031 3.597656 37.566406 3.5 35.878906 C 3.414062 34.425781 3.496094 32.996094 3.871094 31.585938 C 4.234375 30.21875 4.886719 29.015625 5.925781 28.042969 C 6.847656 27.175781 7.777344 26.324219 8.785156 25.390625 C 8.574219 24.90625 8.332031 24.335938 8.058594 23.703125 C 8.742188 23.617188 9.339844 23.886719 10.027344 23.894531 C 10.105469 23.695312 10.191406 23.484375 10.28125 23.273438 C 10.878906 21.894531 11.453125 20.507812 12.089844 19.148438 C 12.308594 18.671875 12.644531 18.234375 12.992188 17.835938 C 13.4375 17.328125 13.769531 17.332031 14.230469 17.835938 C 14.605469 18.242188 14.953125 18.679688 15.261719 19.136719 C 16.226562 20.5625 17.15625 22.007812 18.117188 23.433594 C 18.980469 24.714844 19.878906 25.972656 20.984375 27.058594 C 21.460938 27.527344 21.988281 27.949219 22.527344 28.34375 C 23.066406 28.742188 23.699219 28.910156 24.363281 28.9375 C 24.570312 28.949219 24.777344 28.890625 24.957031 28.867188 C 25.078125 28.503906 24.890625 28.300781 24.734375 28.109375 C 24.378906 27.683594 24.003906 27.277344 23.632812 26.871094 C 23.273438 26.476562 22.910156 26.082031 22.539062 25.695312 C 21.625 24.738281 21.070312 23.628906 20.890625 22.292969 C 20.609375 20.230469 20.382812 18.175781 20.621094 16.09375 C 20.746094 15.007812 20.972656 13.949219 21.425781 12.945312 C 22.125 11.417969 23.25 10.394531 24.898438 9.960938 C 26.222656 9.609375 27.554688 9.34375 28.933594 9.429688 C 29.59375 9.472656 30.226562 9.605469 30.8125 9.921875 C 31.449219 10.269531 31.917969 10.742188 31.96875 11.527344 C 31.988281 11.835938 32.066406 12.140625 32.128906 12.519531 C 32.6875 12.269531 33.183594 12.046875 33.753906 11.792969 C 33.898438 12.554688 34.035156 13.261719 34.175781 13.988281 C 34.335938 13.988281 34.46875 13.992188 34.601562 13.988281 C 35.351562 13.972656 36.101562 13.925781 36.851562 13.949219 C 37.195312 13.957031 37.558594 14.058594 37.878906 14.199219 C 38.425781 14.4375 38.605469 14.941406 38.34375 15.476562 C 38.21875 15.738281 38.027344 15.992188 37.804688 16.171875 C 37.292969 16.574219 36.761719 16.953125 36.207031 17.292969 C 35.09375 17.976562 33.941406 18.59375 32.847656 19.300781 C 32.035156 19.824219 31.265625 20.417969 30.523438 21.035156 C 29.789062 21.648438 29.199219 22.394531 28.789062 23.269531 C 28.683594 23.5 28.605469 23.742188 28.582031 24.058594 C 28.726562 23.980469 28.871094 23.910156 29.007812 23.828125 C 31.585938 22.195312 34.234375 20.703125 37.019531 19.457031 C 37.289062 19.335938 37.566406 19.234375 37.84375 19.125 C 37.722656 19.304688 37.617188 19.5 37.480469 19.664062 C 35.207031 22.40625 32.816406 25.039062 30.191406 27.445312 C 29.835938 27.769531 29.449219 28.066406 29.015625 28.425781 C 27.933594 26.378906 26.898438 24.410156 25.859375 22.441406 C 25.9375 23.730469 26.085938 24.984375 26.195312 26.242188 C 26.289062 27.324219 26.34375 28.40625 26.410156 29.492188 C 26.425781 29.785156 26.425781 30.085938 26.425781 30.382812 C 26.425781 30.640625 26.296875 30.789062 26.027344 30.785156 C 25.867188 30.785156 25.710938 30.78125 25.550781 30.761719 C 24.984375 30.703125 24.414062 30.625 23.84375 30.574219 C 23.480469 30.539062 23.109375 30.53125 22.71875 30.515625 C 22.71875 30.800781 22.738281 31.035156 22.714844 31.265625 C 22.660156 31.785156 22.378906 31.960938 21.898438 31.769531 C 21.660156 31.675781 21.4375 31.546875 21.214844 31.417969 C 20.769531 31.160156 20.339844 30.875 19.886719 30.632812 C 19.402344 30.367188 18.90625 30.113281 18.398438 29.90625 C 18.15625 29.804688 17.800781 29.703125 17.644531 29.996094 C 17.480469 30.296875 17.785156 30.496094 18 30.660156 C 18.375 30.945312 18.773438 31.203125 19.160156 31.480469 C 19.296875 31.578125 19.480469 31.648438 19.425781 31.96875 C 18.25 31.800781 17.128906 32.070312 16.039062 32.488281 C 14.972656 32.902344 13.925781 33.351562 12.910156 34.023438 C 13.027344 34.070312 13.046875 34.082031 13.066406 34.082031 C 15.53125 33.761719 17.992188 33.398438 20.46875 33.132812 C 21.640625 33.007812 22.835938 33.070312 24.019531 33.046875 C 24.257812 33.042969 24.433594 33.128906 24.542969 33.355469 C 24.78125 33.84375 25.199219 34.152344 25.695312 34.328125 C 26.15625 34.492188 26.640625 34.613281 27.121094 34.710938 C 27.695312 34.828125 27.847656 34.71875 28.050781 34.171875 C 28.140625 33.929688 28.203125 33.675781 28.324219 33.453125 C 28.480469 33.160156 28.695312 33.121094 28.957031 33.324219 C 29.078125 33.417969 29.1875 33.542969 29.265625 33.679688 C 29.523438 34.121094 29.800781 34.558594 30 35.03125 C 30.4375 36.046875 30.828125 37.082031 31.242188 38.109375 C 31.300781 38.25 31.378906 38.386719 31.449219 38.523438 C 31.511719 36.558594 31.140625 34.667969 30.894531 32.640625 C 31.03125 32.796875 31.082031 32.855469 31.132812 32.914062 C 31.542969 33.414062 31.933594 33.941406 32.375 34.417969 C 32.734375 34.800781 33.132812 34.777344 33.527344 34.429688 C 34.28125 33.769531 34.335938 32.429688 33.617188 31.734375 C 33.378906 31.503906 33.097656 31.308594 32.832031 31.105469 C 32.628906 30.953125 32.398438 30.824219 32.207031 30.65625 C 31.800781 30.308594 31.789062 29.925781 32.148438 29.527344 C 32.632812 28.988281 33.253906 28.835938 33.929688 28.945312 C 34.53125 29.042969 35.128906 29.199219 35.714844 29.363281 C 36.402344 29.554688 37.066406 29.816406 37.753906 29.996094 C 38.46875 30.183594 38.804688 29.828125 38.546875 29.128906 C 38.34375 28.582031 38.019531 28.074219 37.742188 27.554688 C 37.644531 27.371094 37.519531 27.199219 37.351562 26.9375 C 38.535156 26.488281 39.644531 26.078125 40.738281 25.644531 C 41.835938 25.207031 42.96875 24.871094 44.027344 24.320312 C 43.695312 24.277344 43.382812 24.28125 43.074219 24.324219 C 41.03125 24.621094 39.054688 25.195312 37.105469 25.84375 C 35.53125 26.371094 33.976562 26.964844 32.414062 27.519531 C 32.246094 27.582031 32.078125 27.738281 31.867188 27.59375 C 31.886719 27.515625 31.886719 27.453125 31.917969 27.40625 C 32.144531 27.058594 32.367188 26.707031 32.609375 26.371094 C 34.261719 24.074219 36.070312 21.902344 37.914062 19.761719 C 38.28125 19.335938 38.589844 18.824219 39.140625 18.582031 "/>
<path style=" stroke:none;fill-rule:nonzero;fill:rgb(96.34552%,70.561218%,4.47998%);fill-opacity:1;" d="M 39.140625 18.582031 C 38.589844 18.824219 38.28125 19.335938 37.914062 19.761719 C 36.070312 21.902344 34.261719 24.074219 32.609375 26.371094 C 32.367188 26.707031 32.144531 27.058594 31.917969 27.40625 C 31.886719 27.453125 31.886719 27.515625 31.867188 27.59375 C 32.078125 27.738281 32.246094 27.582031 32.414062 27.519531 C 33.976562 26.964844 35.53125 26.371094 37.105469 25.84375 C 39.054688 25.195312 41.03125 24.621094 43.074219 24.324219 C 43.382812 24.28125 43.695312 24.277344 44.027344 24.320312 C 42.96875 24.871094 41.835938 25.207031 40.738281 25.644531 C 39.644531 26.078125 38.535156 26.488281 37.351562 26.9375 C 37.519531 27.199219 37.644531 27.371094 37.742188 27.554688 C 38.019531 28.074219 38.34375 28.582031 38.546875 29.128906 C 38.804688 29.828125 38.46875 30.183594 37.753906 29.996094 C 37.066406 29.816406 36.402344 29.554688 35.714844 29.363281 C 35.128906 29.199219 34.53125 29.042969 33.929688 28.945312 C 33.253906 28.835938 32.632812 28.988281 32.148438 29.527344 C 31.789062 29.925781 31.800781 30.308594 32.207031 30.65625 C 32.398438 30.824219 32.628906 30.953125 32.832031 31.105469 C 33.097656 31.308594 33.378906 31.503906 33.617188 31.734375 C 34.335938 32.429688 34.28125 33.769531 33.527344 34.429688 C 33.132812 34.777344 32.734375 34.800781 32.375 34.417969 C 31.933594 33.941406 31.542969 33.414062 31.132812 32.914062 C 31.082031 32.855469 31.03125 32.796875 30.894531 32.640625 C 31.140625 34.667969 31.511719 36.558594 31.449219 38.523438 C 31.378906 38.386719 31.300781 38.25 31.242188 38.109375 C 30.828125 37.082031 30.4375 36.046875 30 35.03125 C 29.800781 34.558594 29.523438 34.121094 29.265625 33.679688 C 29.1875 33.542969 29.078125 33.417969 28.957031 33.324219 C 28.695312 33.121094 28.480469 33.160156 28.324219 33.453125 C 28.203125 33.675781 28.140625 33.929688 28.050781 34.171875 C 27.847656 34.71875 27.695312 34.828125 27.121094 34.710938 C 26.640625 34.613281 26.15625 34.492188 25.695312 34.328125 C 25.199219 34.152344 24.78125 33.84375 24.542969 33.355469 C 24.433594 33.128906 24.257812 33.042969 24.019531 33.046875 C 22.835938 33.070312 21.640625 33.007812 20.46875 33.132812 C 17.992188 33.398438 15.53125 33.761719 13.066406 34.082031 C 13.046875 34.082031 13.027344 34.070312 12.910156 34.023438 C 13.925781 33.351562 14.972656 32.902344 16.039062 32.488281 C 17.128906 32.070312 18.25 31.800781 19.425781 31.96875 C 19.480469 31.648438 19.296875 31.578125 19.160156 31.480469 C 18.773438 31.203125 18.375 30.945312 18 30.660156 C 17.785156 30.496094 17.480469 30.296875 17.644531 29.996094 C 17.800781 29.703125 18.15625 29.804688 18.398438 29.90625 C 18.90625 30.113281 19.402344 30.367188 19.886719 30.632812 C 20.339844 30.875 20.769531 31.160156 21.214844 31.417969 C 21.4375 31.546875 21.660156 31.675781 21.898438 31.769531 C 22.378906 31.960938 22.660156 31.785156 22.714844 31.265625 C 22.738281 31.035156 22.71875 30.800781 22.71875 30.515625 C 23.109375 30.53125 23.480469 30.539062 23.84375 30.574219 C 24.414062 30.625 24.984375 30.703125 25.550781 30.761719 C 25.710938 30.78125 25.867188 30.785156 26.027344 30.785156 C 26.296875 30.789062 26.425781 30.640625 26.425781 30.382812 C 26.425781 30.085938 26.425781 29.785156 26.410156 29.492188 C 26.34375 28.40625 26.289062 27.324219 26.195312 26.242188 C 26.085938 24.984375 25.9375 23.730469 25.859375 22.441406 C 26.898438 24.410156 27.933594 26.378906 29.015625 28.425781 C 29.449219 28.066406 29.835938 27.769531 30.191406 27.445312 C 32.816406 25.039062 35.207031 22.40625 37.480469 19.664062 C 37.617188 19.5 37.722656 19.304688 37.84375 19.125 C 38.140625 18.78125 38.457031 18.457031 38.726562 18.09375 C 40.121094 16.203125 41.507812 14.304688 42.894531 12.402344 C 43.058594 12.171875 43.261719 11.941406 43.171875 11.546875 C 43.023438 11.683594 42.917969 11.796875 42.796875 11.886719 C 42.574219 12.046875 42.347656 12.214844 42.105469 12.339844 C 41.746094 12.523438 41.34375 12.667969 41 12.351562 C 40.679688 12.050781 40.773438 11.65625 40.90625 11.292969 C 41.226562 10.421875 41.804688 9.765625 42.628906 9.34375 C 43.359375 8.96875 43.753906 9.125 44.066406 9.886719 C 44.386719 9.621094 44.6875 9.339844 45.015625 9.09375 C 45.398438 8.808594 45.816406 8.585938 46.316406 8.582031 C 46.933594 8.578125 47.257812 8.945312 47.164062 9.578125 C 47.078125 10.199219 46.800781 10.75 46.40625 11.226562 C 46.175781 11.5 46.035156 11.75 46.132812 12.125 C 46.183594 12.320312 46.136719 12.566406 46.066406 12.765625 C 45.726562 13.699219 45.105469 14.390625 44.199219 14.800781 C 44.039062 14.875 43.855469 14.894531 43.679688 14.917969 C 43.234375 14.972656 43.058594 14.660156 42.917969 14.261719 C 42.796875 14.351562 42.699219 14.40625 42.625 14.484375 C 41.578125 15.636719 40.523438 16.792969 39.488281 17.957031 C 39.332031 18.132812 39.050781 18.261719 39.140625 18.582031 "/>
<path style=" stroke:none;fill-rule:nonzero;fill:rgb(96.34552%,70.561218%,4.47998%);fill-opacity:1;" d="M 25.195312 20.601562 C 25.332031 20.910156 25.46875 21.21875 25.648438 21.625 C 25.269531 21.304688 25.222656 21.21875 25.078125 20.667969 C 25.117188 20.648438 25.15625 20.625 25.195312 20.601562 "/>
</g>
</svg>
