<?xml version="1.0" encoding="UTF-8"?>
<svg xmlns="http://www.w3.org/2000/svg" xmlns:xlink="http://www.w3.org/1999/xlink" width="56pt" height="56pt" viewBox="0 0 56 56" version="1.1">
<g id="surface1">
<rect x="0" y="0" width="56" height="56" style="fill:rgb(16.246033%,16.25061%,41.474915%);fill-opacity:1;stroke:none;"/>
<path style=" stroke:none;fill-rule:nonzero;fill:rgb(66.122437%,60.877991%,78.9505%);fill-opacity:1;" d="M 36.023438 41.730469 C 36.023438 41.730469 36.144531 41.597656 36.332031 41.367188 C 36.148438 41.617188 36.023438 41.730469 36.023438 41.730469 "/>
<path style=" stroke:none;fill-rule:nonzero;fill:rgb(100%,100%,100%);fill-opacity:1;" d="M 46.394531 14.734375 C 46.003906 14.195312 45.589844 13.675781 45.15625 13.171875 C 41.679688 16.117188 38.425781 19.257812 38.183594 20.878906 C 37.644531 24.449219 38.367188 31.925781 37.929688 36.203125 C 37.617188 39.238281 36.789062 40.746094 36.332031 41.367188 C 37.132812 40.40625 39.214844 37.691406 39.457031 35.347656 C 40.363281 26.53125 38.34375 22.972656 41.265625 19.46875 C 42.539062 17.9375 44.40625 16.289062 46.394531 14.734375 "/>
<path style=" stroke:none;fill-rule:nonzero;fill:rgb(66.122437%,60.877991%,78.9505%);fill-opacity:1;" d="M 29.53125 40.929688 C 29.53125 40.929688 29.636719 40.785156 29.804688 40.535156 C 29.648438 40.808594 29.53125 40.929688 29.53125 40.929688 "/>
<path style=" stroke:none;fill-rule:nonzero;fill:rgb(100%,100%,100%);fill-opacity:1;" d="M 45.527344 34.054688 C 45.527344 40.929688 37.964844 45.058594 37.964844 45.058594 L 15.113281 45.054688 C 15.113281 45.054688 24.5625 38.695312 24.5625 34.226562 C 24.5625 22.890625 23.1875 25.636719 23.1875 18.59375 C 23.1875 11.546875 32.015625 5.679688 32.019531 5.679688 C 30.714844 5.449219 29.371094 5.320312 28 5.320312 C 15.472656 5.320312 5.320312 15.472656 5.320312 28 C 5.320312 40.527344 15.472656 50.679688 28 50.679688 C 40.527344 50.679688 50.679688 40.527344 50.679688 28 C 50.679688 25.679688 50.332031 23.441406 49.683594 21.332031 C 46.625 21.332031 45.527344 27.183594 45.527344 34.054688 "/>
<path style=" stroke:none;fill-rule:nonzero;fill:rgb(100%,100%,100%);fill-opacity:1;" d="M 41.046875 9.453125 C 40.410156 9.003906 39.75 8.585938 39.070312 8.203125 C 34.992188 12.15625 29.652344 17.738281 29.546875 19.96875 C 29.375 23.574219 30.863281 30.941406 30.863281 35.234375 C 30.863281 38.289062 30.195312 39.871094 29.804688 40.535156 C 30.5 39.496094 32.296875 36.585938 32.296875 34.226562 C 32.296875 25.367188 29.921875 22.035156 32.46875 18.25 C 34.386719 15.398438 38.003906 12.035156 41.046875 9.453125 "/>
</g>
</svg>
