<?xml version="1.0" encoding="UTF-8"?>
<svg xmlns="http://www.w3.org/2000/svg" xmlns:xlink="http://www.w3.org/1999/xlink" width="56pt" height="56pt" viewBox="0 0 56 56" version="1.1">
<g id="surface1">
<rect x="0" y="0" width="56" height="56" style="fill:rgb(16.90979%,17.344666%,47.463989%);fill-opacity:1;stroke:none;"/>
<path style=" stroke:none;fill-rule:nonzero;fill:rgb(100%,100%,100%);fill-opacity:1;" d="M 47.070312 33.507812 L 12.871094 33.507812 L 22.070312 27.554688 L 18.339844 24.539062 L 2.320312 21.464844 L 22.941406 21.464844 L 39.742188 32.929688 L 43.128906 30.488281 L 47.070312 33.507812 "/>
<path style=" stroke:none;fill-rule:nonzero;fill:rgb(100%,100%,100%);fill-opacity:1;" d="M 28.246094 23.964844 L 33.210938 27.484375 L 36.445312 25.691406 L 53.679688 20.890625 L 32.917969 20.890625 L 28.246094 23.964844 "/>
<path style=" stroke:none;fill-rule:nonzero;fill:rgb(100%,100%,100%);fill-opacity:1;" d="M 15.320312 26.195312 L 18.441406 27.539062 C 18.46875 26.785156 18.578125 26.042969 18.757812 25.335938 L 15.320312 26.195312 "/>
<path style=" stroke:none;fill-rule:nonzero;fill:rgb(100%,100%,100%);fill-opacity:1;" d="M 18.425781 27.816406 L 15.320312 28.988281 C 15.320312 28.988281 17.613281 29.84375 18.703125 30.285156 C 18.53125 29.523438 18.425781 28.726562 18.425781 27.910156 C 18.425781 27.878906 18.425781 27.847656 18.425781 27.816406 "/>
<path style=" stroke:none;fill-rule:nonzero;fill:rgb(100%,100%,100%);fill-opacity:1;" d="M 20.503906 34.152344 L 19.019531 37.410156 L 22.054688 35.792969 C 21.480469 35.316406 20.960938 34.757812 20.503906 34.152344 "/>
<path style=" stroke:none;fill-rule:nonzero;fill:rgb(100%,100%,100%);fill-opacity:1;" d="M 22.070312 39.554688 L 24.46875 37.285156 C 23.816406 37 23.191406 36.644531 22.613281 36.226562 L 22.070312 39.554688 "/>
<path style=" stroke:none;fill-rule:nonzero;fill:rgb(100%,100%,100%);fill-opacity:1;" d="M 26.09375 40.917969 L 27.679688 38.023438 C 26.882812 37.984375 26.109375 37.851562 25.382812 37.621094 L 26.09375 40.917969 "/>
<path style=" stroke:none;fill-rule:nonzero;fill:rgb(100%,100%,100%);fill-opacity:1;" d="M 30.402344 40.816406 L 30.835938 37.652344 C 30.109375 37.867188 29.351562 38 28.566406 38.03125 L 30.402344 40.816406 "/>
<path style=" stroke:none;fill-rule:nonzero;fill:rgb(100%,100%,100%);fill-opacity:1;" d="M 33.96875 39.738281 L 33.730469 36.242188 C 33.109375 36.695312 32.421875 37.0625 31.703125 37.355469 L 33.96875 39.738281 "/>
<path style=" stroke:none;fill-rule:nonzero;fill:rgb(100%,100%,100%);fill-opacity:1;" d="M 34.277344 35.820312 L 36.839844 37.269531 L 35.570312 34.515625 C 35.171875 34.984375 34.746094 35.425781 34.277344 35.820312 "/>
<path style=" stroke:none;fill-rule:nonzero;fill:rgb(100%,100%,100%);fill-opacity:1;" d="M 40.539062 29.777344 L 37.914062 28.367188 C 37.878906 29.042969 37.792969 29.695312 37.644531 30.332031 C 38.441406 30.214844 40.539062 29.777344 40.539062 29.777344 "/>
<path style=" stroke:none;fill-rule:nonzero;fill:rgb(100%,100%,100%);fill-opacity:1;" d="M 40.863281 26.40625 L 37.46875 24.824219 C 37.746094 25.730469 37.90625 26.691406 37.921875 27.691406 C 38.90625 27.289062 40.863281 26.40625 40.863281 26.40625 "/>
<path style=" stroke:none;fill-rule:nonzero;fill:rgb(100%,100%,100%);fill-opacity:1;" d="M 30.039062 17.960938 L 28.964844 15.082031 L 27.71875 17.796875 C 27.878906 17.789062 28.027344 17.773438 28.175781 17.773438 C 28.816406 17.773438 29.429688 17.84375 30.039062 17.960938 "/>
<path style=" stroke:none;fill-rule:nonzero;fill:rgb(100%,100%,100%);fill-opacity:1;" d="M 25.953125 15.222656 L 25.234375 18.246094 C 25.890625 18.03125 26.574219 17.890625 27.277344 17.820312 L 25.953125 15.222656 "/>
<path style=" stroke:none;fill-rule:nonzero;fill:rgb(100%,100%,100%);fill-opacity:1;" d="M 22.648438 16.160156 L 22.996094 19.339844 C 23.5625 18.96875 24.167969 18.652344 24.800781 18.410156 L 22.648438 16.160156 "/>
<path style=" stroke:none;fill-rule:nonzero;fill:rgb(100%,100%,100%);fill-opacity:1;" d="M 22.425781 19.734375 L 19.707031 18.085938 L 21.039062 21.023438 C 21.457031 20.550781 21.929688 20.117188 22.425781 19.734375 "/>
<path style=" stroke:none;fill-rule:nonzero;fill:rgb(100%,100%,100%);fill-opacity:1;" d="M 35.183594 16.949219 L 32.796875 18.984375 C 33.441406 19.339844 34.03125 19.78125 34.574219 20.277344 L 35.183594 16.949219 "/>
<path style=" stroke:none;fill-rule:nonzero;fill:rgb(100%,100%,100%);fill-opacity:1;" d="M 32.238281 15.515625 L 30.351562 18.03125 C 31.046875 18.199219 31.710938 18.441406 32.335938 18.746094 L 32.238281 15.515625 "/>
</g>
</svg>
