<?xml version="1.0" encoding="UTF-8"?>
<svg xmlns="http://www.w3.org/2000/svg" xmlns:xlink="http://www.w3.org/1999/xlink" width="56pt" height="56pt" viewBox="0 0 56 56" version="1.1">
<g id="surface1">
<rect x="0" y="0" width="56" height="56" style="fill:rgb(19.38324%,42.658997%,73.220825%);fill-opacity:1;stroke:none;"/>
<path style=" stroke:none;fill-rule:nonzero;fill:rgb(100%,100%,100%);fill-opacity:1;" d="M 13.164062 27.972656 C 11.34375 26.140625 9.574219 24.363281 7.808594 22.589844 C 7.238281 22.015625 6.648438 21.460938 6.097656 20.875 C 4.898438 19.605469 4.984375 17.53125 6.265625 16.363281 C 7.636719 15.117188 9.613281 15.339844 10.695312 16.421875 C 12.867188 18.601562 15.050781 20.777344 17.226562 22.957031 C 17.375 23.105469 17.488281 23.289062 17.628906 23.472656 C 17.835938 23.285156 17.964844 23.175781 18.085938 23.058594 C 20.308594 20.867188 22.53125 18.675781 24.746094 16.476562 C 25.164062 16.0625 25.648438 15.789062 26.210938 15.632812 C 27.945312 15.148438 29.714844 16.226562 30.117188 17.851562 C 30.421875 19.085938 30.140625 20.144531 29.234375 21.042969 C 27.085938 23.1875 24.9375 25.339844 22.789062 27.488281 C 22.644531 27.636719 22.503906 27.789062 22.335938 27.964844 C 22.515625 28.148438 22.675781 28.316406 22.839844 28.480469 C 24.960938 30.597656 27.070312 32.722656 29.199219 34.832031 C 29.992188 35.617188 30.347656 36.554688 30.21875 37.648438 C 30.070312 38.960938 28.957031 40.195312 27.597656 40.375 C 26.371094 40.539062 25.378906 40.148438 24.523438 39.285156 C 22.457031 37.203125 20.378906 35.136719 18.304688 33.0625 C 18.140625 32.898438 17.96875 32.742188 17.765625 32.542969 C 17.59375 32.699219 17.433594 32.832031 17.289062 32.972656 C 15.183594 35.074219 13.070312 37.164062 10.980469 39.28125 C 10.289062 39.980469 9.480469 40.40625 8.523438 40.433594 C 7.855469 40.457031 7.183594 40.292969 6.621094 39.871094 C 4.820312 38.515625 4.902344 36.210938 6.246094 34.878906 C 8.390625 32.757812 10.519531 30.621094 12.65625 28.488281 C 12.820312 28.324219 12.980469 28.160156 13.164062 27.972656 "/>
<path style=" stroke:none;fill-rule:nonzero;fill:rgb(100%,100%,100%);fill-opacity:1;" d="M 46.382812 39.039062 C 45.398438 39.039062 44.597656 38.238281 44.597656 37.253906 C 44.597656 36.269531 45.398438 35.46875 46.382812 35.46875 C 47.367188 35.46875 48.167969 36.269531 48.167969 37.253906 C 48.167969 38.238281 47.367188 39.039062 46.382812 39.039062 Z M 50.734375 36.996094 C 50.527344 35.054688 48.988281 34 47.382812 34.019531 C 45.070312 34.042969 42.753906 34.027344 40.433594 34.023438 C 39.617188 34.023438 39.011719 33.585938 38.785156 32.808594 C 38.703125 32.53125 38.671875 32.226562 38.667969 31.9375 C 38.664062 27.472656 38.644531 23.011719 38.675781 18.550781 C 38.6875 17.261719 37.632812 15.800781 36.054688 15.554688 C 33.828125 15.207031 32.246094 16.949219 32.289062 18.753906 C 32.34375 21.027344 32.300781 23.300781 32.300781 25.574219 C 32.300781 27.785156 32.292969 29.992188 32.308594 32.203125 C 32.316406 32.769531 32.34375 33.351562 32.46875 33.902344 C 32.84375 35.5 33.605469 36.902344 34.78125 38.050781 C 36.484375 39.71875 38.585938 40.433594 40.929688 40.46875 C 42.988281 40.503906 45.050781 40.488281 47.113281 40.46875 C 47.742188 40.460938 48.371094 40.386719 48.957031 40.105469 C 49.363281 39.90625 49.703125 39.636719 49.976562 39.324219 C 50.550781 38.660156 50.824219 37.796875 50.734375 36.996094 "/>
</g>
</svg>
