<?xml version="1.0" encoding="UTF-8"?>
<svg xmlns="http://www.w3.org/2000/svg" xmlns:xlink="http://www.w3.org/1999/xlink" width="56pt" height="56pt" viewBox="0 0 56 56" version="1.1">
<g id="surface1">
<rect x="0" y="0" width="56" height="56" style="fill:rgb(14.134216%,24.650574%,47.83783%);fill-opacity:1;stroke:none;"/>
<path style=" stroke:none;fill-rule:nonzero;fill:rgb(100%,100%,100%);fill-opacity:1;" d="M 28 5.320312 C 15.472656 5.320312 5.320312 15.472656 5.320312 28 C 5.320312 33.988281 7.652344 39.4375 11.445312 43.503906 C 31.363281 42.710938 33.082031 39.21875 33.082031 39.21875 C 36.875 35.714844 27.191406 32.871094 27.191406 32.871094 C 16.839844 30.421875 9.945312 26.085938 9.945312 26.085938 C 3.042969 21.972656 10.0625 17.296875 10.0625 17.296875 C 21.078125 12.25 30.742188 12.957031 30.742188 12.957031 L 28.851562 11.507812 L 30.972656 11.398438 L 30.972656 10.832031 L 31.859375 10.949219 L 32.410156 11.628906 L 35.636719 11.507812 L 33.863281 12.84375 L 33.082031 14.519531 L 31.746094 13.519531 C 19.84375 15.625 17.070312 18.183594 17.070312 18.183594 C 11.617188 23.523438 22.066406 26.308594 22.066406 26.308594 C 28.984375 27.898438 40.421875 32.535156 40.421875 32.535156 C 47.613281 35.789062 42.425781 40.878906 42.425781 40.878906 C 38.761719 45.136719 29.300781 48.945312 25.066406 50.488281 C 26.027344 50.605469 27.003906 50.679688 28 50.679688 C 40.535156 50.679688 50.679688 40.535156 50.679688 28 C 50.679688 15.472656 40.535156 5.320312 28 5.320312 "/>
</g>
</svg>
