<?xml version="1.0" encoding="UTF-8"?>
<svg xmlns="http://www.w3.org/2000/svg" xmlns:xlink="http://www.w3.org/1999/xlink" width="56pt" height="56pt" viewBox="0 0 56 56" version="1.1">
<g id="surface1">
<rect x="0" y="0" width="56" height="56" style="fill:rgb(16.287231%,17.141724%,44.897461%);fill-opacity:1;stroke:none;"/>
<path style=" stroke:none;fill-rule:nonzero;fill:rgb(72.198486%,63.244629%,10.740662%);fill-opacity:1;" d="M 33.492188 20.457031 C 32.519531 21.285156 31.691406 21.996094 30.835938 22.722656 C 30.394531 22.28125 29.988281 21.875 29.4375 21.328125 C 30.230469 20.554688 30.910156 19.890625 31.632812 19.1875 C 32.257812 19.613281 32.800781 19.984375 33.492188 20.457031 Z M 32.21875 26.574219 C 31.710938 27.066406 31.285156 27.476562 30.800781 27.949219 C 30.277344 27.453125 29.816406 27.019531 29.242188 26.476562 C 29.78125 25.976562 30.21875 25.570312 30.714844 25.109375 C 31.175781 25.558594 31.632812 26.003906 32.21875 26.574219 Z M 28 31.449219 C 27.46875 30.769531 26.953125 30.113281 26.324219 29.308594 C 26.953125 28.679688 27.449219 28.179688 27.988281 27.640625 C 28.53125 28.179688 29.050781 28.695312 29.660156 29.304688 C 29.066406 30.070312 28.570312 30.714844 28 31.449219 Z M 23.738281 26.609375 C 24.332031 26.019531 24.765625 25.589844 25.25 25.105469 C 25.71875 25.539062 26.179688 25.960938 26.734375 26.476562 C 26.191406 26.996094 25.753906 27.414062 25.226562 27.917969 C 24.792969 27.539062 24.332031 27.132812 23.738281 26.609375 Z M 22.488281 20.453125 C 23.203125 19.96875 23.769531 19.589844 24.355469 19.199219 C 25.050781 19.878906 25.71875 20.523438 26.519531 21.300781 C 26.015625 21.832031 25.605469 22.261719 25.15625 22.730469 C 24.296875 21.996094 23.46875 21.289062 22.488281 20.453125 Z M 29.46875 23.871094 C 28.949219 24.421875 28.511719 24.882812 28.023438 25.402344 C 27.546875 24.945312 27.085938 24.503906 26.484375 23.925781 C 27.054688 23.34375 27.484375 22.90625 27.96875 22.414062 C 28.4375 22.867188 28.894531 23.3125 29.46875 23.871094 Z M 27.980469 16.589844 C 28.6875 17.09375 29.40625 17.609375 30.25 18.214844 C 29.433594 18.957031 28.730469 19.601562 27.992188 20.273438 C 27.269531 19.613281 26.5625 18.976562 25.730469 18.222656 C 26.546875 17.632812 27.238281 17.128906 27.980469 16.589844 Z M 25.707031 12.804688 C 26.53125 12.046875 27.230469 11.410156 27.984375 10.722656 C 28.710938 11.378906 29.433594 12.027344 30.292969 12.800781 C 29.429688 13.425781 28.71875 13.941406 27.988281 14.46875 C 27.214844 13.90625 26.527344 13.40625 25.707031 12.804688 Z M 40.195312 18.621094 C 40.636719 19.273438 40.71875 19.894531 39.964844 20.421875 C 39.207031 20.953125 37.925781 20.835938 36.429688 20.171875 C 37.226562 19.484375 39.546875 17.671875 40.195312 18.621094 Z M 38.261719 27.253906 C 38.367188 28.226562 35.785156 27.773438 34.726562 26.683594 C 36.179688 25.261719 38.152344 26.277344 38.261719 27.253906 Z M 17.996094 27.09375 C 18.097656 25.480469 20.273438 26.707031 20.871094 26.851562 C 19.933594 28.011719 17.9375 28.613281 17.996094 27.09375 Z M 16.351562 20.675781 C 16.066406 20.53125 15.0625 19.410156 15.976562 18.84375 C 16.808594 18.335938 18.21875 19.445312 19.039062 19.980469 C 18.292969 20.367188 17.097656 21.050781 16.351562 20.675781 Z M 49.796875 14.46875 C 49.328125 13.375 48.65625 12.628906 47.90625 12.070312 C 45.796875 10.5 43.5625 10.054688 41.269531 10.628906 C 38.5 11.316406 35.980469 13.070312 33.546875 15.113281 C 32.894531 15.660156 32.253906 16.242188 31.5625 16.84375 C 30.988281 16.390625 30.417969 15.941406 29.738281 15.40625 C 30.90625 14.542969 31.945312 13.78125 33.109375 12.925781 C 32.003906 11.945312 31.023438 11.09375 30.050781 10.210938 C 29.441406 9.65625 28.84375 9.054688 28.242188 8.472656 C 28.074219 8.472656 27.910156 8.472656 27.742188 8.472656 C 27.140625 9.054688 26.542969 9.65625 25.933594 10.210938 C 24.960938 11.09375 23.980469 11.945312 22.882812 12.914062 C 24.046875 13.785156 25.09375 14.566406 26.25 15.429688 C 25.546875 15.96875 24.984375 16.398438 24.394531 16.847656 C 24.109375 16.589844 23.859375 16.335938 23.589844 16.125 C 22.089844 14.953125 20.613281 13.6875 19.070312 12.652344 C 16.828125 11.144531 14.492188 10.105469 11.984375 10.46875 C 10.222656 10.726562 8.542969 11.359375 7.101562 13.015625 C 5.351562 15.023438 5.15625 18.109375 6.601562 20.613281 C 6.785156 20.929688 6.988281 21.222656 7.207031 21.476562 C 9.761719 24.414062 12.59375 24.976562 15.625 23.671875 C 15.84375 23.578125 16.042969 23.414062 16.253906 23.28125 C 15.699219 23.082031 15.175781 23.125 14.65625 23.078125 C 13.011719 22.925781 11.40625 22.503906 9.960938 21.203125 C 9.082031 20.410156 8.394531 19.339844 7.964844 17.910156 C 7.683594 16.976562 7.722656 16.074219 8.136719 15.292969 C 8.390625 14.8125 8.71875 14.375 9.066406 14.066406 C 10.683594 12.621094 12.449219 12.265625 14.28125 12.652344 C 17.21875 13.269531 19.839844 15.148438 22.34375 17.460938 C 22.476562 17.582031 22.582031 17.769531 22.785156 18.039062 C 22.121094 18.449219 21.542969 18.804688 21.144531 19.046875 C 19.863281 18.355469 18.785156 17.667969 17.671875 17.207031 C 16.726562 16.816406 15.738281 16.761719 14.894531 17.789062 C 13.980469 18.910156 14.027344 20.480469 15.007812 21.453125 C 15.652344 22.09375 16.382812 22.316406 17.140625 22.386719 C 18.40625 22.511719 19.613281 22.082031 20.824219 21.398438 C 21.792969 22.25 22.761719 23.09375 23.859375 24.054688 C 23.242188 24.621094 22.777344 25.050781 22.34375 25.445312 C 21.8125 25.273438 21.355469 25.09375 20.890625 24.984375 C 19.851562 24.730469 18.800781 24.5 17.761719 24.980469 C 16.890625 25.378906 16.375 26.492188 16.464844 27.714844 C 16.546875 28.835938 17.101562 29.460938 18.105469 29.542969 C 19.230469 29.632812 20.308594 29.289062 21.359375 28.691406 C 21.769531 28.457031 22.171875 28.1875 22.59375 27.921875 C 22.980469 28.304688 23.347656 28.667969 23.800781 29.117188 C 22.550781 30.558594 21.246094 30.914062 19.859375 30.453125 C 20.074219 31.523438 21.839844 32.53125 23.226562 31.640625 C 23.835938 31.25 24.445312 30.859375 25.109375 30.421875 C 25.738281 31.226562 26.367188 32.03125 27.007812 32.855469 C 26.871094 33.28125 26.742188 33.605469 26.65625 33.957031 C 26.261719 35.609375 25.800781 37.246094 25.503906 38.945312 C 25.175781 40.828125 25.121094 42.773438 25.550781 44.675781 C 25.894531 46.195312 26.542969 47.214844 27.609375 47.449219 C 28.378906 47.621094 29.148438 47.53125 29.898438 47.007812 C 28.71875 46.707031 27.480469 46.53125 26.871094 44.570312 C 26.738281 44 26.667969 43.589844 26.632812 43.390625 C 26.402344 39.949219 26.882812 37.308594 27.847656 34.398438 C 29.945312 36.613281 28.019531 43.460938 28.019531 43.460938 C 28.191406 43.289062 28.363281 43.117188 28.527344 42.929688 C 29.761719 41.515625 30.410156 38.472656 30.03125 36.105469 C 29.839844 34.925781 29.769531 35.054688 29.53125 33.894531 C 29.464844 33.582031 29.125 33.191406 29.03125 32.800781 C 29.65625 31.992188 30.261719 31.210938 30.886719 30.40625 C 34.476562 32.21875 35.765625 31.269531 36.070312 30.464844 C 34.691406 30.917969 33.414062 30.535156 32.1875 29.117188 C 32.660156 28.65625 33.046875 28.277344 33.417969 27.914062 C 33.726562 28.121094 33.976562 28.300781 34.234375 28.457031 C 35.53125 29.261719 36.871094 29.78125 38.285156 29.46875 C 39.476562 29.207031 39.957031 27.351562 39.160156 25.96875 C 38.875 25.46875 38.3125 24.933594 37.886719 24.753906 C 37.269531 24.492188 36.667969 24.265625 36.097656 24.34375 C 35.21875 24.464844 34.726562 24.597656 33.550781 25.390625 C 33.152344 25.003906 32.707031 24.566406 32.152344 24.027344 C 33.242188 23.074219 34.199219 22.242188 35.148438 21.417969 C 35.394531 21.535156 35.605469 21.625 35.816406 21.734375 C 36.824219 22.265625 37.859375 22.488281 38.921875 22.378906 C 39.707031 22.300781 40.464844 22.046875 41.105469 21.316406 C 41.894531 20.425781 41.953125 19.125 41.273438 18.050781 C 40.847656 17.382812 40.324219 17.070312 39.714844 17.015625 C 38.839844 16.933594 38.003906 17.199219 37.195312 17.671875 C 36.449219 18.113281 35.71875 18.605469 34.925781 19.113281 C 34.398438 18.78125 33.84375 18.429688 33.203125 18.027344 C 33.421875 17.746094 33.546875 17.515625 33.710938 17.394531 C 35.269531 16.222656 36.804688 14.945312 38.410156 13.9375 C 40.003906 12.933594 41.691406 12.402344 43.441406 12.535156 C 44.824219 12.644531 46.121094 13.199219 47.265625 14.398438 C 48.253906 15.429688 48.441406 16.757812 47.867188 18.355469 C 47.195312 20.230469 46.113281 21.355469 44.828125 22.066406 C 43.457031 22.816406 42.035156 23.128906 40.582031 23.09375 C 40.304688 23.089844 40.027344 23.09375 39.753906 23.09375 C 42.59375 25.261719 46.640625 24.402344 48.964844 21.226562 C 49.367188 20.675781 49.71875 19.976562 49.976562 19.253906 C 50.5625 17.632812 50.460938 16.015625 49.796875 14.46875 "/>
</g>
</svg>
