<?xml version="1.0" encoding="UTF-8"?>
<svg xmlns="http://www.w3.org/2000/svg" xmlns:xlink="http://www.w3.org/1999/xlink" width="56pt" height="56pt" viewBox="0 0 56 56" version="1.1">
<g id="surface1">
<rect x="0" y="0" width="56" height="56" style="fill:rgb(14.825439%,30.064392%,64.233398%);fill-opacity:1;stroke:none;"/>
<path style=" stroke:none;fill-rule:evenodd;fill:rgb(100%,100%,100%);fill-opacity:1;" d="M 27.238281 31.144531 L 23.21875 31.144531 C 23.21875 31.144531 23.195312 31.152344 23.175781 31.125 C 23.164062 31.101562 23.191406 31.066406 23.191406 31.066406 L 28.53125 24.21875 C 28.53125 24.21875 28.570312 24.164062 28.613281 24.164062 C 28.65625 24.164062 28.640625 24.222656 28.640625 24.222656 L 27.300781 31.09375 C 27.300781 31.09375 27.296875 31.117188 27.285156 31.132812 C 27.273438 31.144531 27.238281 31.144531 27.238281 31.144531 Z M 35.976562 18.988281 C 33.949219 18.988281 31.167969 18.988281 30.792969 18.988281 C 30.53125 18.988281 30.421875 19.140625 30.421875 19.140625 L 16.132812 36.867188 C 16.050781 36.96875 16.066406 37.074219 16.210938 37.074219 C 16.539062 37.074219 17.859375 37.074219 18.328125 37.070312 C 18.539062 37.070312 18.558594 37.015625 18.597656 36.960938 L 21.640625 33.058594 C 21.640625 33.058594 21.6875 32.988281 21.75 32.988281 C 21.800781 32.988281 26.855469 32.988281 26.855469 32.988281 C 26.855469 32.988281 26.933594 32.984375 26.917969 33.058594 C 26.902344 33.140625 26.171875 36.886719 26.171875 36.886719 C 26.164062 36.933594 26.179688 37.070312 26.355469 37.070312 C 27.023438 37.070312 31.824219 37.070312 32.527344 37.070312 C 32.613281 37.070312 32.648438 37.039062 32.664062 36.957031 L 36.140625 19.175781 C 36.140625 19.175781 36.203125 18.988281 35.976562 18.988281 "/>
<path style=" stroke:none;fill-rule:evenodd;fill:rgb(100%,100%,100%);fill-opacity:1;" d="M 2.332031 34.8125 C 2.28125 35.023438 2.394531 35.203125 2.78125 35.519531 C 3.5 36.113281 5.644531 37.410156 9.050781 37.40625 C 15.175781 37.40625 17.398438 33.445312 16.625 30.089844 C 16.414062 29.191406 15.265625 24.550781 15.101562 23.894531 C 14.617188 21.992188 15.542969 20.625 17.355469 20.621094 C 18.90625 20.621094 19.875 21.207031 20.722656 21.742188 C 20.882812 21.839844 21 21.898438 21.042969 21.710938 C 21.066406 21.601562 21.34375 20.15625 21.34375 20.15625 C 21.34375 20.15625 21.429688 19.878906 21.0625 19.6875 C 20.5 19.394531 19.097656 18.597656 16.144531 18.597656 C 10.648438 18.59375 8.308594 22.121094 9.265625 25.945312 C 9.570312 27.167969 10.796875 31.75 10.800781 32.632812 C 10.800781 32.972656 10.980469 35.308594 8.164062 35.308594 C 5.550781 35.308594 3.75 33.523438 3.140625 32.90625 C 3.039062 32.800781 2.90625 32.859375 2.84375 33.082031 C 2.8125 33.199219 2.332031 34.8125 2.332031 34.8125 "/>
<path style=" stroke:none;fill-rule:evenodd;fill:rgb(100%,100%,100%);fill-opacity:1;" d="M 34.828125 34.90625 C 34.777344 35.117188 34.894531 35.296875 35.277344 35.613281 C 36 36.210938 37.972656 37.40625 41.378906 37.402344 C 47.503906 37.402344 49.726562 33.441406 48.949219 30.082031 C 48.742188 29.1875 47.59375 24.542969 47.425781 23.886719 C 46.945312 21.988281 47.871094 20.617188 49.683594 20.613281 C 51.234375 20.613281 52.203125 21.203125 53.050781 21.734375 C 53.210938 21.835938 53.328125 21.890625 53.367188 21.707031 C 53.394531 21.597656 53.671875 20.152344 53.671875 20.152344 C 53.671875 20.152344 53.757812 19.871094 53.390625 19.679688 C 52.828125 19.386719 51.421875 18.59375 48.472656 18.59375 C 42.976562 18.589844 40.636719 22.117188 41.59375 25.941406 C 41.902344 27.164062 43.125 31.742188 43.128906 32.628906 C 43.128906 32.964844 43.308594 35.300781 40.492188 35.300781 C 37.875 35.300781 36.152344 33.578125 35.535156 32.964844 C 35.402344 32.832031 35.199219 32.882812 35.171875 33.078125 C 35.15625 33.199219 34.828125 34.90625 34.828125 34.90625 "/>
</g>
</svg>
