<?xml version="1.0" encoding="UTF-8"?>
<svg xmlns="http://www.w3.org/2000/svg" xmlns:xlink="http://www.w3.org/1999/xlink" width="56pt" height="56pt" viewBox="0 0 56 56" version="1.1">
<g id="surface1">
<rect x="0" y="0" width="56" height="56" style="fill:rgb(80.628967%,15.356445%,19.036865%);fill-opacity:1;stroke:none;"/>
<path style=" stroke:none;fill-rule:nonzero;fill:rgb(100%,100%,100%);fill-opacity:1;" d="M 43.082031 16.921875 C 43.222656 16.921875 43.34375 17.042969 43.34375 17.1875 C 43.34375 17.332031 43.222656 17.453125 43.082031 17.453125 C 42.9375 17.453125 42.835938 17.332031 42.835938 17.1875 C 42.835938 17.042969 42.9375 16.921875 43.082031 16.921875 Z M 42.816406 16.34375 C 43.007812 16.332031 43.183594 16.351562 43.308594 16.359375 C 43.558594 16.378906 44.199219 16.722656 43.433594 16.675781 C 42.667969 16.632812 42.570312 16.625 42.378906 17.222656 C 42.183594 17.820312 42.0625 16.785156 42.304688 16.519531 C 42.429688 16.386719 42.628906 16.351562 42.816406 16.34375 Z M 35.324219 13.652344 C 35.410156 13.644531 35.496094 13.644531 35.585938 13.652344 C 36.175781 13.6875 36.71875 14.023438 36.710938 14.320312 C 36.703125 14.792969 35.390625 14.214844 35.304688 14.863281 C 35.21875 15.515625 34.894531 16.222656 34.671875 16.097656 C 34.449219 15.96875 33.847656 14.648438 34.582031 13.96875 C 34.789062 13.777344 35.054688 13.675781 35.324219 13.652344 Z M 32.242188 9.640625 C 31.332031 9.660156 32.898438 11.261719 31.679688 11.363281 C 30.464844 11.46875 27.539062 12.15625 26.457031 11.679688 C 25.371094 11.207031 25.984375 12.902344 25.839844 13.792969 C 25.695312 14.683594 20.910156 13.199219 21.84375 14.8125 C 22.777344 16.429688 22.863281 17.144531 22.953125 18.03125 C 23.042969 18.917969 22.046875 17.074219 21.792969 18.769531 C 21.5 20.738281 25.332031 28.628906 26.964844 29.855469 C 28.542969 28.324219 30.699219 27.375 33.070312 27.375 C 37.90625 27.375 41.832031 31.300781 41.832031 36.136719 C 41.832031 40.96875 37.90625 44.878906 33.070312 44.878906 L 33.035156 45.460938 C 35.605469 46.074219 43.199219 42.941406 44.046875 36.839844 C 44.101562 36.449219 45.023438 36.910156 45.035156 36.136719 C 45.046875 35.363281 43.921875 35.621094 43.800781 33.742188 C 43.683594 31.863281 45.003906 32.433594 44.71875 31.527344 C 44.429688 30.617188 42.703125 30.316406 42.464844 29.730469 C 42.226562 29.148438 42.183594 27.503906 42.148438 27.390625 C 42.113281 27.28125 44 27.007812 44.59375 26.8125 C 45.1875 26.613281 47.183594 25.53125 46.054688 24.824219 L 43.75 24.71875 C 43.554688 24.773438 42.15625 23.761719 43.0625 22.027344 C 43.96875 20.292969 45.515625 19.703125 46.546875 20.476562 C 46.546875 20.476562 46.765625 21.9375 47.09375 21.585938 C 47.382812 21.261719 47.222656 20.785156 47.355469 20.371094 C 47.488281 19.960938 47.648438 20.394531 47.953125 20.144531 C 48.53125 19.675781 48.378906 17.363281 48.007812 17.117188 C 47.761719 16.953125 44.703125 16.609375 44.523438 16.554688 C 44.34375 16.5 44.433594 15.554688 43.589844 14.761719 C 42.75 13.964844 42.195312 14.214844 40.898438 13.195312 C 39.605469 12.175781 38.632812 10.652344 38.332031 10.835938 C 38.027344 11.019531 38.90625 11.714844 37.996094 11.804688 C 37.085938 11.894531 33.15625 9.621094 32.242188 9.640625 "/>
<path style=" stroke:none;fill-rule:nonzero;fill:rgb(100%,100%,100%);fill-opacity:1;" d="M 40.273438 36.101562 C 40.273438 40.003906 37.0625 43.164062 33.097656 43.164062 C 29.136719 43.164062 25.921875 40.003906 25.921875 36.101562 C 25.921875 32.203125 29.136719 29.042969 33.097656 29.042969 C 37.0625 29.042969 40.273438 32.203125 40.273438 36.101562 "/>
<path style=" stroke:none;fill-rule:nonzero;fill:rgb(100%,100%,100%);fill-opacity:1;" d="M 14.214844 11.132812 C 14.757812 3.757812 21.019531 2.726562 19.492188 10.269531 C 17.96875 17.816406 20.296875 21.34375 22.578125 25.144531 C 25.742188 30.417969 27.539062 32.382812 28.105469 32.257812 L 26.898438 33.230469 C 17.503906 28.074219 13.667969 18.507812 14.214844 11.132812 "/>
<path style=" stroke:none;fill-rule:nonzero;fill:rgb(100%,100%,100%);fill-opacity:1;" d="M 9.613281 21.636719 C 7.746094 15.773438 12.261719 13.035156 13.425781 19.332031 C 14.585938 25.632812 17.480469 27.632812 20.417969 29.859375 C 24.496094 32.949219 26.492188 33.90625 26.890625 33.636719 L 26.261719 34.761719 C 17.410156 33.695312 11.480469 27.496094 9.613281 21.636719 "/>
<path style=" stroke:none;fill-rule:nonzero;fill:rgb(100%,100%,100%);fill-opacity:1;" d="M 9.652344 33.121094 C 5.847656 29.535156 8.074219 25.644531 11.53125 29.839844 C 14.992188 34.035156 21.183594 35.246094 23.417969 35.75 C 25.652344 36.25 31.097656 37.726562 31.097656 37.726562 C 31.097656 37.726562 12.996094 37.335938 9.652344 33.121094 C 6.308594 28.90625 9.652344 33.121094 9.652344 33.121094 "/>
<path style=" stroke:none;fill-rule:nonzero;fill:rgb(100%,100%,100%);fill-opacity:1;" d="M 12.640625 41.457031 C 7.875 39.699219 8.386719 35.367188 13.074219 37.808594 C 17.761719 40.25 23.761719 38.980469 25.949219 38.582031 C 28.136719 38.179688 33.570312 37.429688 33.570312 37.429688 C 33.570312 37.429688 17.230469 43.957031 12.640625 41.457031 C 8.046875 38.957031 12.640625 41.457031 12.640625 41.457031 "/>
<path style=" stroke:none;fill-rule:nonzero;fill:rgb(100%,100%,100%);fill-opacity:1;" d="M 17.90625 46.726562 C 13.929688 46.875 13.003906 43.585938 17.132812 43.953125 C 21.257812 44.320312 25.226562 41.601562 26.691406 40.65625 C 28.15625 39.714844 31.871094 37.546875 31.871094 37.546875 C 31.871094 37.546875 21.980469 47.164062 17.90625 46.726562 C 13.832031 46.289062 17.90625 46.726562 17.90625 46.726562 "/>
<path style=" stroke:none;fill-rule:nonzero;fill:rgb(100%,100%,100%);fill-opacity:1;" d="M 23.457031 49.546875 C 20.324219 50.832031 18.621094 48.480469 22.023438 47.5625 C 25.421875 46.644531 27.792969 43.3125 28.683594 42.132812 C 29.578125 40.949219 31.90625 38.128906 31.90625 38.128906 C 31.90625 38.128906 26.835938 48.699219 23.457031 49.546875 C 20.074219 50.394531 23.457031 49.546875 23.457031 49.546875 "/>
<path style=" stroke:none;fill-rule:nonzero;fill:rgb(100%,100%,100%);fill-opacity:1;" d="M 28.089844 50.121094 C 25.96875 51.855469 24.097656 50.429688 26.511719 48.921875 C 28.929688 47.414062 29.980469 44.277344 30.394531 43.152344 C 30.804688 42.027344 31.945312 39.296875 31.945312 39.296875 C 31.945312 39.296875 30.503906 48.671875 28.089844 50.121094 C 25.671875 51.570312 28.089844 50.121094 28.089844 50.121094 "/>
<path style=" stroke:none;fill-rule:nonzero;fill:rgb(100%,100%,100%);fill-opacity:1;" d="M 32.429688 49.164062 C 31.304688 50.765625 29.742188 50.152344 31.113281 48.644531 C 32.480469 47.136719 32.59375 44.777344 32.660156 43.921875 C 32.726562 43.070312 32.980469 40.972656 32.980469 40.972656 C 32.980469 40.972656 33.808594 47.699219 32.429688 49.164062 C 31.046875 50.628906 32.429688 49.164062 32.429688 49.164062 "/>
</g>
</svg>
