<?xml version="1.0" encoding="UTF-8"?>
<svg xmlns="http://www.w3.org/2000/svg" xmlns:xlink="http://www.w3.org/1999/xlink" width="56pt" height="56pt" viewBox="0 0 56 56" version="1.1">
<g id="surface1">
<rect x="0" y="0" width="56" height="56" style="fill:rgb(95.66803%,95.779419%,96.777344%);fill-opacity:1;stroke:none;"/>
<path style=" stroke:none;fill-rule:nonzero;fill:rgb(86.184692%,65.879822%,32.226562%);fill-opacity:1;" d="M 4.234375 36.542969 C 4.5 36.242188 4.765625 35.945312 5.023438 35.636719 C 5.992188 34.472656 6.957031 33.304688 7.921875 32.136719 C 9.242188 30.542969 10.5625 28.945312 11.886719 27.351562 C 13.386719 25.542969 14.894531 23.742188 16.394531 21.933594 C 17.804688 20.230469 19.207031 18.523438 20.617188 16.820312 C 21.800781 15.394531 22.992188 13.96875 24.175781 12.542969 C 25.160156 11.351562 26.140625 10.15625 27.125 8.96875 C 27.53125 8.476562 27.933594 7.988281 28.34375 7.507812 C 28.386719 7.457031 28.488281 7.457031 28.558594 7.433594 C 28.542969 7.523438 28.515625 7.613281 28.515625 7.703125 C 28.527344 8.175781 28.546875 8.644531 28.566406 9.117188 C 28.597656 9.894531 28.628906 10.675781 28.65625 11.453125 C 28.675781 11.957031 28.683594 12.457031 28.707031 12.960938 C 28.761719 14.261719 28.828125 15.566406 28.882812 16.871094 C 28.921875 17.773438 28.949219 18.675781 28.980469 19.578125 C 29.039062 21.042969 29.101562 22.511719 29.160156 23.976562 C 29.183594 24.617188 29.195312 25.257812 29.21875 25.898438 C 29.257812 26.761719 29.308594 27.625 29.34375 28.488281 C 29.371094 29.222656 29.378906 29.957031 29.40625 30.691406 C 29.464844 32.078125 29.527344 33.464844 29.585938 34.855469 C 29.621094 35.65625 29.644531 36.460938 29.679688 37.261719 C 29.734375 38.558594 29.800781 39.851562 29.855469 41.148438 C 29.894531 42.066406 29.921875 42.984375 29.953125 43.902344 C 30.003906 45.324219 30.046875 46.742188 30.101562 48.164062 C 30.105469 48.296875 30.152344 48.429688 30.179688 48.566406 C 30.121094 48.5625 30.058594 48.574219 30.007812 48.550781 C 29.503906 48.320312 28.996094 48.085938 28.492188 47.851562 C 27.210938 47.253906 25.929688 46.65625 24.648438 46.0625 C 23.578125 45.5625 22.503906 45.070312 21.429688 44.574219 C 20.667969 44.21875 19.90625 43.855469 19.140625 43.503906 C 18.230469 43.082031 17.316406 42.667969 16.40625 42.246094 C 15.394531 41.777344 14.394531 41.296875 13.382812 40.828125 C 11.820312 40.105469 10.253906 39.390625 8.6875 38.664062 C 7.203125 37.976562 5.71875 37.28125 4.234375 36.589844 C 4.234375 36.574219 4.234375 36.558594 4.234375 36.542969 "/>
<path style=" stroke:none;fill-rule:nonzero;fill:rgb(48.765564%,31.155396%,15.867615%);fill-opacity:1;" d="M 30.179688 48.566406 C 30.152344 48.429688 30.105469 48.296875 30.101562 48.164062 C 30.046875 46.742188 30.003906 45.324219 29.953125 43.902344 C 29.921875 42.984375 29.894531 42.066406 29.855469 41.148438 C 29.800781 39.851562 29.734375 38.558594 29.679688 37.261719 C 29.644531 36.460938 29.621094 35.65625 29.585938 34.855469 C 29.527344 33.464844 29.464844 32.078125 29.40625 30.691406 C 29.378906 29.957031 29.371094 29.222656 29.34375 28.488281 C 29.308594 27.625 29.257812 26.761719 29.21875 25.898438 C 29.195312 25.257812 29.183594 24.617188 29.160156 23.976562 C 29.101562 22.511719 29.039062 21.042969 28.980469 19.578125 C 28.949219 18.675781 28.921875 17.773438 28.882812 16.871094 C 28.828125 15.566406 28.761719 14.261719 28.707031 12.960938 C 28.683594 12.457031 28.675781 11.957031 28.65625 11.453125 C 28.628906 10.675781 28.597656 9.894531 28.566406 9.117188 C 28.546875 8.644531 28.527344 8.175781 28.515625 7.703125 C 28.515625 7.613281 28.542969 7.523438 28.558594 7.433594 C 30.4375 9.96875 32.316406 12.5 34.191406 15.035156 C 35.792969 17.203125 37.394531 19.375 38.996094 21.542969 C 40.457031 23.511719 41.917969 25.476562 43.375 27.449219 C 45.433594 30.230469 47.492188 33.015625 49.550781 35.796875 C 50.285156 36.789062 51.027344 37.78125 51.765625 38.773438 C 51.765625 38.785156 51.765625 38.800781 51.765625 38.820312 C 51.417969 38.96875 51.070312 39.117188 50.726562 39.273438 C 48.828125 40.128906 46.929688 40.984375 45.03125 41.84375 C 43.070312 42.734375 41.109375 43.625 39.148438 44.515625 C 37.277344 45.363281 35.40625 46.207031 33.535156 47.054688 C 32.417969 47.558594 31.300781 48.0625 30.179688 48.566406 "/>
</g>
</svg>
