<?xml version="1.0" encoding="UTF-8"?>
<svg xmlns="http://www.w3.org/2000/svg" xmlns:xlink="http://www.w3.org/1999/xlink" width="56pt" height="56pt" viewBox="0 0 56 56" version="1.1">
<g id="surface1">
<rect x="0" y="0" width="56" height="56" style="fill:rgb(13.848877%,18.508911%,39.51416%);fill-opacity:1;stroke:none;"/>
<path style=" stroke:none;fill-rule:evenodd;fill:rgb(90.020752%,51.823425%,8.54187%);fill-opacity:1;" d="M 18.53125 46.832031 C 18.53125 46.832031 24.625 37.90625 25.0625 37.035156 C 25.714844 35.730469 25.714844 33.984375 25.277344 33.117188 C 24.84375 32.679688 15.699219 18.3125 15.699219 18.3125 C 15.046875 16.785156 15.265625 15.699219 15.699219 14.828125 C 16.570312 13.523438 18.09375 11.125 18.09375 11.125 C 18.09375 11.125 29.199219 28.542969 29.632812 29.414062 C 30.9375 31.371094 30.503906 33.332031 29.632812 34.855469 C 28.761719 36.382812 21.578125 46.832031 21.578125 46.832031 L 18.53125 46.832031 "/>
<path style=" stroke:none;fill-rule:evenodd;fill:rgb(90.020752%,51.823425%,8.54187%);fill-opacity:1;" d="M 16.570312 47.921875 C 16.570312 47.921875 23.539062 37.6875 23.972656 36.816406 C 24.625 35.730469 24.625 34.203125 23.972656 33.332031 C 23.753906 32.898438 13.957031 17.441406 13.957031 17.441406 C 13.957031 17.441406 12.214844 20.054688 11.5625 20.921875 C 11.128906 21.792969 10.910156 22.664062 11.78125 24.40625 C 11.78125 24.40625 18.746094 35.292969 18.964844 35.945312 C 19.617188 36.816406 19.617188 38.34375 18.964844 39.429688 C 18.53125 40.300781 11.128906 50.75 11.128906 50.75 C 11.128906 50.75 30.070312 50.75 32.027344 50.75 C 34.207031 50.75 35.292969 50.097656 36.382812 48.574219 C 37.253906 47.265625 40.734375 42.261719 41.171875 41.605469 C 41.824219 40.734375 42.695312 40.300781 43.347656 40.300781 C 43.785156 40.300781 44.871094 40.300781 44.871094 40.300781 L 41.605469 35.292969 C 41.605469 35.292969 37.6875 35.292969 36.601562 35.292969 C 35.726562 35.292969 34.421875 36.164062 33.769531 37.253906 C 33.335938 37.90625 29.851562 43.128906 29.199219 44 C 28.761719 44.65625 28.109375 44.433594 27.671875 44.433594 C 27.890625 44 33.769531 35.511719 34.855469 33.769531 C 36.164062 31.371094 36.601562 28.324219 34.855469 25.496094 C 34.207031 24.40625 22.230469 5.25 22.230469 5.25 C 22.230469 5.25 20.488281 7.644531 19.835938 8.515625 C 19.402344 9.386719 19.183594 10.472656 20.054688 11.996094 C 20.054688 11.996094 30.070312 28.109375 30.722656 28.980469 C 31.808594 30.71875 31.59375 33.332031 30.722656 34.855469 C 29.851562 36.382812 22.664062 46.832031 22.664062 46.832031 C 22.664062 46.832031 27.890625 46.832031 28.328125 46.832031 C 30.285156 46.832031 30.9375 46.179688 31.375 45.527344 C 32.027344 44.871094 35.074219 40.300781 35.292969 39.863281 C 35.726562 39.429688 36.601562 38.121094 37.6875 38.121094 C 38.34375 38.121094 41.390625 38.121094 41.390625 38.121094 C 40.519531 38.34375 39.867188 38.777344 39.210938 39.429688 C 38.777344 40.300781 35.074219 45.742188 34.640625 46.394531 C 33.988281 47.046875 33.335938 47.921875 31.808594 47.921875 C 30.9375 47.921875 16.570312 47.921875 16.570312 47.921875 "/>
</g>
</svg>
