<?xml version="1.0" encoding="UTF-8"?>
<svg xmlns="http://www.w3.org/2000/svg" xmlns:xlink="http://www.w3.org/1999/xlink" width="56pt" height="56pt" viewBox="0 0 56 56" version="1.1">
<g id="surface1">
<rect x="0" y="0" width="56" height="56" style="fill:rgb(17.070007%,17.906189%,45.117188%);fill-opacity:1;stroke:none;"/>
<path style=" stroke:none;fill-rule:evenodd;fill:rgb(100%,100%,100%);fill-opacity:1;" d="M 7.804688 35.785156 L 2.863281 33.515625 L 23.328125 30.859375 C 23.695312 31.492188 24.039062 32.046875 24.457031 32.617188 Z M 62.738281 35.785156 L 67.671875 33.378906 L 47.316406 30.800781 C 47.136719 31.492188 46.597656 32.046875 46.234375 32.617188 Z M 59.765625 36.160156 L 53.570312 38.351562 L 44.757812 35.519531 L 43.988281 35.261719 C 44.285156 35.015625 44.523438 34.777344 44.757812 34.449219 C 45.117188 34.128906 45.421875 33.703125 45.765625 33.378906 Z M 76.125 30.042969 L 70.464844 32.820312 L 47.84375 30.042969 C 48.035156 29.476562 48.21875 28.902344 48.382812 28.335938 Z M 78.144531 29.214844 L 85.539062 24.246094 L 45.535156 24.246094 C 45.535156 26.019531 45.289062 27.527344 44.757812 28.855469 C 43.210938 33.066406 39.351562 35.085938 35.476562 35.015625 C 31.667969 34.90625 27.792969 32.820312 26.078125 28.972656 C 25.464844 27.570312 25.109375 26.089844 25.109375 24.246094 L -15 24.246094 L -7.671875 29.214844 L 22.972656 27.527344 C 23.554688 29.847656 24.644531 31.878906 26.078125 33.378906 C 28.519531 36.089844 32.027344 37.605469 35.476562 37.605469 C 38.871094 37.675781 42.3125 36.347656 44.757812 33.457031 C 46.066406 31.9375 47.074219 29.988281 47.667969 27.648438 Z M 44.757812 42.085938 L 45.535156 43.59375 L 44.757812 43.984375 L 42.671875 44.980469 L 40.308594 39.988281 C 38.8125 40.554688 37.144531 40.882812 35.476562 40.929688 C 33.679688 41.015625 31.84375 40.746094 30.242188 40.191406 L 28.214844 44.980469 C 27.558594 45.039062 26.648438 44.980469 26.078125 44.542969 C 25.777344 44.347656 25.464844 44.03125 25.359375 43.59375 L 26.078125 42.324219 L 27.792969 39.042969 C 27.253906 38.675781 26.78125 38.414062 26.304688 37.914062 L 27.742188 36.089844 C 30.1875 37.675781 32.851562 38.535156 35.476562 38.535156 C 38.089844 38.617188 40.710938 37.726562 43.148438 35.90625 L 44.757812 36.402344 L 45.421875 36.664062 C 45.171875 36.851562 45 37.023438 44.757812 37.226562 C 44.285156 37.726562 43.863281 38.238281 43.09375 38.675781 Z M 44.757812 16.289062 C 46.296875 18.25 47.441406 20.652344 48.035156 23.417969 L 45.476562 23.417969 C 45.289062 22.597656 45.0625 21.789062 44.757812 21.039062 C 43.039062 16.234375 39.519531 12.832031 35.476562 10.003906 C 34.945312 9.675781 34.460938 9.308594 33.925781 9 C 34.460938 9.183594 34.945312 9.363281 35.476562 9.5625 C 39.164062 11.125 42.4375 13.28125 44.757812 16.289062 Z M 37.839844 34.066406 C 38.519531 33.960938 39.519531 33.550781 40.308594 32.941406 L 36.25 24.425781 L 40.472656 22.292969 L 36.90625 19.015625 L 35.476562 19.714844 L 29.335938 22.65625 L 31.136719 26.949219 L 34.039062 25.566406 Z M 26.78125 35.261719 C 26.546875 35.085938 26.304688 34.84375 26.078125 34.636719 C 25.59375 34.199219 25.179688 33.761719 24.871094 33.300781 L 10.90625 36.109375 L 16.847656 38.238281 Z M 22.972656 30.042969 C 22.738281 29.476562 22.566406 28.902344 22.378906 28.335938 L -5.589844 30.042969 L 0.0664062 32.941406 L 22.972656 30.042969 "/>
</g>
</svg>
