<?xml version="1.0" encoding="UTF-8"?>
<svg xmlns="http://www.w3.org/2000/svg" xmlns:xlink="http://www.w3.org/1999/xlink" width="56pt" height="56pt" viewBox="0 0 56 56" version="1.1">
<g id="surface1">
<rect x="0" y="0" width="56" height="56" style="fill:rgb(95.666504%,95.776367%,96.775818%);fill-opacity:1;stroke:none;"/>
<rect x="0" y="0" width="56" height="56" style="fill:rgb(95.666504%,95.776367%,96.775818%);fill-opacity:1;stroke:none;"/>
<path style=" stroke:none;fill-rule:nonzero;fill:rgb(95.648193%,93.943787%,8.088684%);fill-opacity:1;" d="M 11 13.382812 C 13.648438 11.53125 16.84375 10.464844 20.078125 10.386719 C 23.144531 10.292969 26.230469 11.070312 28.886719 12.609375 C 31.847656 14.3125 34.265625 16.921875 35.777344 19.980469 C 37.535156 23.5 38.042969 27.59375 37.328125 31.453125 C 36.34375 31.691406 35.328125 31.355469 34.523438 30.792969 C 32.070312 29.15625 29.824219 27.214844 27.800781 25.070312 C 26.585938 23.816406 25.5625 22.375 24.824219 20.796875 C 24.734375 20.621094 24.648438 20.421875 24.449219 20.355469 C 21.769531 19.195312 19.089844 18.027344 16.402344 16.882812 C 17.28125 19.1875 18.925781 21.15625 20.925781 22.578125 C 19.285156 22.195312 17.703125 21.59375 16.191406 20.84375 C 13.507812 19.457031 11.003906 17.753906 8.453125 16.136719 C 9.015625 17.996094 9.785156 19.792969 10.707031 21.503906 C 11.703125 23.410156 12.777344 25.308594 14.277344 26.867188 C 15.722656 28.433594 17.429688 29.777344 19.347656 30.71875 C 22.179688 32.136719 25.152344 33.257812 28.183594 34.160156 C 26.871094 35.109375 25.320312 35.644531 23.761719 36.019531 C 22.246094 36.375 20.714844 36.632812 19.195312 36.9375 C 17.5625 37.257812 15.921875 37.546875 14.285156 37.859375 C 13.773438 37.96875 13.238281 38.074219 12.804688 38.386719 C 12.558594 38.5625 12.683594 38.941406 12.902344 39.085938 C 13.527344 39.542969 14.363281 39.515625 15.085938 39.34375 C 16.4375 39.007812 17.761719 38.566406 19.113281 38.238281 C 21.203125 37.710938 23.347656 37.4375 25.5 37.359375 C 27.40625 37.28125 29.332031 37.304688 31.210938 36.910156 C 33.207031 36.429688 34.898438 35.210938 36.585938 34.09375 C 36.03125 35.703125 35.199219 37.207031 34.222656 38.59375 C 33.707031 38.601562 33.78125 39.863281 33.265625 39.867188 C 32.632812 40.972656 31.410156 40.808594 30.789062 41.921875 C 30.675781 42.121094 30.539062 42.308594 30.347656 42.441406 C 28.199219 43.992188 25.675781 45.03125 23.054688 45.429688 C 20.363281 45.8125 17.578125 45.582031 15.011719 44.671875 C 11.898438 43.574219 9.128906 41.53125 7.128906 38.90625 C 5.226562 36.425781 4.007812 33.429688 3.609375 30.332031 C 3.226562 27.222656 3.605469 24.007812 4.8125 21.113281 C 6.085938 18.023438 8.246094 15.285156 11 13.382812 "/>
<path style=" stroke:none;fill-rule:nonzero;fill:rgb(13.513184%,27.165222%,50.17395%);fill-opacity:1;" d="M 37.421875 31.453125 C 36.441406 31.691406 35.425781 31.355469 34.617188 30.792969 C 32.164062 29.15625 29.917969 27.21875 27.898438 25.074219 C 26.683594 23.820312 25.65625 22.378906 24.917969 20.796875 C 24.832031 20.625 24.746094 20.421875 24.546875 20.355469 C 21.863281 19.199219 19.1875 18.03125 16.5 16.886719 C 17.378906 19.191406 19.023438 21.160156 21.023438 22.582031 C 19.382812 22.199219 17.796875 21.59375 16.289062 20.847656 C 13.601562 19.460938 11.097656 17.757812 8.550781 16.136719 C 9.113281 18 9.882812 19.792969 10.804688 21.507812 C 11.796875 23.410156 12.871094 25.308594 14.371094 26.867188 C 15.820312 28.4375 17.527344 29.777344 19.445312 30.722656 C 22.273438 32.136719 25.246094 33.257812 28.28125 34.164062 C 26.96875 35.109375 25.414062 35.648438 23.855469 36.019531 C 22.34375 36.378906 20.8125 36.636719 19.289062 36.941406 C 17.65625 37.257812 16.019531 37.550781 14.382812 37.859375 C 13.871094 37.96875 13.335938 38.078125 12.902344 38.386719 C 12.65625 38.5625 12.78125 38.945312 12.996094 39.089844 C 13.621094 39.542969 14.460938 39.519531 15.179688 39.347656 C 16.535156 39.011719 17.855469 38.566406 19.210938 38.238281 C 21.296875 37.710938 23.445312 37.441406 25.597656 37.359375 C 27.503906 37.28125 29.429688 37.304688 31.304688 36.910156 C 33.304688 36.429688 34.992188 35.210938 36.679688 34.097656 C 36.128906 35.707031 35.296875 37.207031 34.320312 38.59375 C 33.800781 38.605469 31.507812 40.808594 30.886719 41.921875 C 30.773438 42.121094 30.636719 42.3125 30.445312 42.441406 C 28.292969 43.992188 25.773438 45.03125 23.148438 45.429688 C 20.460938 45.816406 17.671875 45.585938 15.109375 44.671875 C 11.992188 43.574219 9.226562 41.53125 7.226562 38.90625 C 5.320312 36.425781 4.101562 33.429688 3.707031 30.332031 C 3.324219 27.222656 3.703125 24.011719 4.90625 21.113281 C 6.183594 18.023438 8.339844 15.285156 11.097656 13.382812 C 13.742188 11.53125 16.941406 10.46875 20.171875 10.390625 C 23.242188 10.292969 26.328125 11.074219 28.984375 12.613281 C 31.941406 14.316406 34.359375 16.925781 35.875 19.984375 C 37.632812 23.503906 38.140625 27.597656 37.421875 31.453125 Z M 51.949219 27.355469 C 51.023438 26.789062 49.878906 26.703125 48.832031 26.898438 C 47.839844 27.066406 46.925781 27.503906 46.023438 27.917969 C 45.113281 28.320312 44.195312 28.703125 43.300781 29.132812 C 41.632812 29.898438 39.921875 30.574219 38.203125 31.214844 C 38.925781 26.980469 38.183594 22.492188 36.050781 18.753906 C 34.511719 16.027344 32.265625 13.703125 29.578125 12.097656 C 26.59375 10.285156 23.046875 9.453125 19.570312 9.660156 C 16.324219 9.847656 13.152344 10.992188 10.511719 12.890625 C 7.644531 14.933594 5.402344 17.835938 4.125 21.117188 C 3.195312 23.484375 2.753906 26.046875 2.839844 28.585938 C 2.949219 32.699219 4.457031 36.761719 7.09375 39.921875 C 9.019531 42.25 11.527344 44.097656 14.34375 45.1875 C 17.324219 46.34375 20.621094 46.667969 23.761719 46.089844 C 25.542969 45.761719 26.320312 45.71875 28.859375 44.292969 C 31.402344 42.875 34.058594 40.523438 35.214844 38.589844 C 36.371094 36.65625 37.140625 35.253906 37.675781 33.40625 C 39.070312 32.574219 40.585938 31.984375 42.0625 31.320312 C 43.386719 30.730469 44.679688 30.078125 45.996094 29.46875 C 46.589844 29.207031 47.175781 28.917969 47.804688 28.746094 C 48.8125 28.464844 49.859375 28.382812 50.894531 28.335938 C 51.65625 28.296875 52.410156 28.40625 53.167969 28.429688 C 52.796875 28.035156 52.410156 27.648438 51.949219 27.355469 "/>
</g>
</svg>
