<?xml version="1.0" encoding="UTF-8"?>
<svg xmlns="http://www.w3.org/2000/svg" xmlns:xlink="http://www.w3.org/1999/xlink" width="56pt" height="56pt" viewBox="0 0 56 56" version="1.1">
<g id="surface1">
<rect x="0" y="0" width="56" height="56" style="fill:rgb(95.666504%,95.776367%,96.775818%);fill-opacity:1;stroke:none;"/>
<rect x="0" y="0" width="56" height="56" style="fill:rgb(95.666504%,95.776367%,96.775818%);fill-opacity:1;stroke:none;"/>
<path style=" stroke:none;fill-rule:nonzero;fill:rgb(97.73407%,69.230652%,4.823303%);fill-opacity:1;" d="M 21.40625 47.273438 C 18.902344 46.144531 18.105469 43.363281 19.128906 39.308594 C 19.796875 36.648438 20.390625 36.855469 20.390625 39.753906 C 20.390625 42.628906 21 44.117188 22.4375 44.773438 C 23.960938 45.46875 24.660156 45.382812 25.660156 44.382812 C 27.339844 42.703125 26.511719 39.46875 23.894531 37.46875 C 22.53125 36.429688 21.171875 35.898438 16.304688 34.503906 C 7.789062 32.0625 4.148438 29.066406 4.148438 24.488281 C 4.148438 18.449219 13.003906 16.890625 20.460938 21.617188 C 22.527344 22.921875 23.253906 23.902344 22.761719 24.703125 C 22.605469 24.949219 21.96875 24.636719 21.289062 23.988281 C 20.632812 23.355469 19.070312 22.453125 17.824219 21.976562 C 11.148438 19.441406 5.195312 22.945312 8.832031 27.269531 C 10.542969 29.304688 12.742188 30.542969 17.695312 32.265625 C 22.777344 34.035156 24.589844 34.890625 26.03125 36.203125 C 27.6875 37.707031 28.734375 40.183594 28.734375 42.601562 C 28.734375 44.386719 28.503906 45.066406 27.527344 46.15625 C 26.078125 47.777344 23.546875 48.238281 21.40625 47.273438 "/>
<path style=" stroke:none;fill-rule:nonzero;fill:rgb(97.73407%,69.230652%,4.823303%);fill-opacity:1;" d="M 36.339844 43.066406 C 32.851562 41.324219 28.609375 37.046875 26.992188 33.644531 C 25.882812 31.308594 24.34375 25.445312 24.34375 23.546875 C 24.34375 23.175781 24.609375 22.871094 24.929688 22.871094 C 25.285156 22.871094 25.734375 23.832031 26.0625 25.292969 C 27.382812 31.199219 32.460938 38.183594 37.15625 40.5625 C 40.203125 42.101562 41.992188 42.109375 43.1875 40.589844 C 45.105469 38.152344 43.707031 35.214844 39.652344 33.15625 C 37.5625 32.097656 36.972656 31.054688 37.925781 30.09375 C 38.152344 29.863281 39.359375 27.402344 40.601562 24.628906 C 42.421875 20.570312 42.914062 18.96875 43.097656 16.46875 C 43.320312 13.449219 43.289062 13.332031 42.066406 12.367188 C 41.09375 11.601562 40.425781 11.421875 39.152344 11.59375 C 34.046875 12.273438 29.175781 17.304688 28.445312 22.65625 C 27.984375 26.011719 27.265625 24.964844 27.539062 21.339844 C 28.128906 13.535156 33.144531 8.242188 39.960938 8.226562 C 44.84375 8.214844 46.980469 10.410156 46.910156 15.371094 C 46.867188 18.59375 45.273438 23.132812 42.558594 27.765625 C 41.714844 29.203125 41.023438 30.464844 41.023438 30.570312 C 41.023438 30.671875 41.785156 31.144531 42.714844 31.617188 C 44.816406 32.6875 46.917969 35.042969 47.589844 37.074219 C 48.289062 39.203125 47.546875 41.792969 45.8125 43.253906 C 43.8125 44.933594 39.925781 44.859375 36.339844 43.066406 "/>
</g>
</svg>
