<?xml version="1.0" encoding="UTF-8"?>
<svg xmlns="http://www.w3.org/2000/svg" xmlns:xlink="http://www.w3.org/1999/xlink" width="56pt" height="56pt" viewBox="0 0 56 56" version="1.1">
<g id="surface1">
<rect x="0" y="0" width="56" height="56" style="fill:rgb(95.666504%,95.776367%,96.775818%);fill-opacity:1;stroke:none;"/>
<rect x="0" y="0" width="56" height="56" style="fill:rgb(95.666504%,95.776367%,96.775818%);fill-opacity:1;stroke:none;"/>
<path style=" stroke:none;fill-rule:nonzero;fill:rgb(94.638062%,43.048096%,15.42511%);fill-opacity:1;" d="M 46.160156 46.160156 L 44.527344 39.199219 C 46.691406 36.011719 47.957031 32.164062 47.960938 28.023438 L 53.679688 28 L 47.59375 24.226562 C 46.832031 20.238281 44.890625 16.667969 42.132812 13.902344 L 46.160156 9.839844 L 39.199219 11.476562 C 36.011719 9.3125 32.167969 8.042969 28.027344 8.039062 L 28 2.320312 L 24.226562 8.40625 C 20.238281 9.167969 16.667969 11.109375 13.902344 13.867188 L 9.839844 9.839844 L 11.472656 16.800781 C 9.3125 19.988281 8.042969 23.835938 8.039062 27.972656 L 2.320312 28 L 8.40625 31.773438 C 9.167969 35.761719 11.109375 39.332031 13.867188 42.097656 L 9.839844 46.160156 L 16.800781 44.527344 C 19.988281 46.691406 23.832031 47.957031 27.976562 47.964844 L 28 53.679688 L 31.769531 47.597656 C 35.761719 46.832031 39.332031 44.890625 42.097656 42.132812 L 46.160156 46.160156 "/>
<path style=" stroke:none;fill-rule:nonzero;fill:rgb(100%,100%,100%);fill-opacity:1;" d="M 28 2.320312 L 31.4375 24.617188 L 46.160156 9.839844 L 32.824219 28.039062 L 53.679688 28 L 31.386719 31.4375 L 46.160156 46.160156 L 27.964844 32.824219 L 28 53.679688 L 24.5625 31.386719 L 9.839844 46.160156 L 23.175781 27.964844 L 2.320312 28 L 24.617188 24.5625 L 9.839844 9.839844 L 28.035156 23.175781 L 28 2.320312 "/>
<path style=" stroke:none;fill-rule:nonzero;fill:rgb(100%,100%,100%);fill-opacity:1;" d="M 34.917969 12.890625 L 31.804688 25.042969 L 44.074219 22.414062 L 33.28125 28.808594 L 43.816406 35.621094 L 31.660156 32.511719 L 34.289062 44.78125 L 27.898438 33.980469 L 21.082031 44.519531 L 24.195312 32.363281 L 11.925781 34.992188 L 22.722656 28.601562 L 12.1875 21.785156 L 24.339844 24.898438 L 21.710938 12.628906 L 28.105469 23.425781 L 34.917969 12.890625 "/>
<path style=" stroke:none;fill-rule:nonzero;fill:rgb(16.426086%,29.64325%,57.633972%);fill-opacity:1;" d="M 26.429688 22.8125 C 26.460938 23.328125 26.53125 23.378906 26.644531 23.464844 C 27.09375 23.800781 28.269531 24.148438 29.359375 24.445312 C 30.320312 24.699219 31.140625 24.914062 31.894531 25.230469 L 29.507812 22.671875 C 28.972656 22.140625 28.460938 21.789062 27.710938 21.789062 C 27.273438 21.789062 26.449219 22.003906 26.429688 22.8125 Z M 25.300781 34.023438 C 26.054688 35.113281 26.722656 35.710938 28.066406 35.710938 C 29.128906 35.710938 29.347656 34.964844 29.347656 34.339844 C 29.347656 33.683594 29.210938 33.328125 26.101562 32.371094 C 25.535156 32.203125 24.539062 31.90625 23.503906 31.363281 C 23.519531 31.386719 23.535156 31.414062 23.550781 31.441406 Z M 27.039062 40.078125 C 24.34375 40.078125 21.835938 39.140625 20.992188 38.507812 C 20.363281 38.035156 20.253906 37.382812 20.199219 37.066406 L 19.601562 32.640625 L 19.601562 32.550781 C 19.601562 31.742188 20.117188 31.089844 20.917969 30.878906 L 21.691406 30.667969 C 21.847656 30.617188 22.007812 30.59375 22.164062 30.59375 C 22.199219 30.59375 22.242188 30.59375 22.289062 30.601562 C 20.890625 29.546875 19.691406 27.925781 19.691406 25.394531 C 19.691406 22.65625 20.632812 20.632812 22.566406 19.207031 C 24.730469 17.636719 26.304688 17.332031 28.289062 17.332031 C 30.363281 17.332031 32.144531 17.691406 33.578125 18.40625 C 34.53125 18.855469 34.996094 19.410156 35.128906 20.25 L 35.75 23.53125 C 35.910156 24.335938 35.570312 25.039062 34.84375 25.402344 L 34.816406 25.414062 L 34.046875 25.757812 C 33.816406 25.882812 33.558594 25.949219 33.296875 25.949219 C 33.273438 25.949219 33.242188 25.945312 33.21875 25.945312 C 33.671875 26.253906 34.121094 26.640625 34.585938 27.132812 C 36.089844 28.644531 36.398438 30.125 36.398438 31.878906 C 36.398438 36.707031 32.550781 40.078125 27.039062 40.078125 "/>
<path style=" stroke:none;fill-rule:nonzero;fill:rgb(94.638062%,43.048096%,15.42511%);fill-opacity:1;" d="M 27.519531 34.285156 C 27.464844 34.269531 27.414062 34.246094 27.359375 34.222656 C 27.414062 34.242188 27.46875 34.265625 27.519531 34.285156 Z M 28.289062 15.972656 C 25.683594 15.972656 23.917969 16.550781 21.78125 18.101562 L 21.769531 18.105469 L 21.761719 18.113281 C 19.488281 19.789062 18.335938 22.238281 18.335938 25.394531 C 18.335938 27.128906 18.796875 28.648438 19.71875 29.925781 C 18.8125 30.476562 18.246094 31.441406 18.246094 32.550781 L 18.246094 32.730469 L 18.269531 32.914062 L 18.851562 37.207031 L 18.855469 37.246094 L 18.863281 37.289062 C 18.929688 37.703125 19.113281 38.792969 20.179688 39.59375 C 21.371094 40.484375 24.175781 41.433594 27.039062 41.433594 C 30.070312 41.433594 32.703125 40.535156 34.652344 38.839844 C 36.652344 37.09375 37.757812 34.621094 37.757812 31.878906 C 37.757812 30.144531 37.511719 28.289062 35.785156 26.421875 C 36.824219 25.742188 37.328125 24.542969 37.082031 23.273438 L 36.464844 20.015625 C 36.160156 18.152344 34.699219 17.429688 34.164062 17.183594 C 32.542969 16.382812 30.570312 15.972656 28.289062 15.972656 Z M 28.289062 18.6875 C 30.707031 18.6875 32.179688 19.222656 32.984375 19.628906 C 33.65625 19.941406 33.746094 20.164062 33.789062 20.476562 L 34.417969 23.785156 C 34.460938 24.007812 34.417969 24.097656 34.238281 24.1875 L 33.433594 24.546875 C 33.386719 24.574219 33.34375 24.589844 33.296875 24.589844 C 33.203125 24.589844 33.105469 24.53125 32.984375 24.410156 L 30.480469 21.726562 C 29.902344 21.148438 29.050781 20.433594 27.710938 20.433594 C 26.367188 20.433594 25.070312 21.324219 25.070312 22.847656 C 25.160156 24.410156 25.699219 24.859375 29.007812 25.753906 C 31.199219 26.335938 32.269531 26.648438 33.609375 28.078125 C 34.773438 29.238281 35.042969 30.3125 35.042969 31.878906 C 35.042969 35.855469 31.910156 38.71875 27.039062 38.71875 C 24.535156 38.71875 22.34375 37.824219 21.804688 37.421875 C 21.628906 37.289062 21.585938 37.109375 21.539062 36.84375 L 20.957031 32.550781 C 20.957031 32.324219 21.09375 32.234375 21.269531 32.191406 L 22.074219 31.96875 C 22.105469 31.957031 22.136719 31.953125 22.164062 31.953125 C 22.253906 31.953125 22.320312 32.011719 22.390625 32.148438 L 24.175781 34.785156 C 24.980469 35.945312 26.011719 37.066406 28.066406 37.066406 C 29.722656 37.066406 30.707031 35.902344 30.707031 34.339844 C 30.707031 32.550781 29.410156 31.96875 26.503906 31.074219 C 23.328125 30.136719 21.046875 28.613281 21.046875 25.394531 C 21.046875 23.292969 21.671875 21.550781 23.371094 20.296875 C 25.160156 19 26.414062 18.6875 28.289062 18.6875 "/>
</g>
</svg>
