<?xml version="1.0" encoding="UTF-8"?>
<svg xmlns="http://www.w3.org/2000/svg" xmlns:xlink="http://www.w3.org/1999/xlink" width="56pt" height="56pt" viewBox="0 0 56 56" version="1.1">
<g id="surface1">
<rect x="0" y="0" width="56" height="56" style="fill:rgb(95.666504%,95.776367%,96.775818%);fill-opacity:1;stroke:none;"/>
<path style=" stroke:none;fill-rule:nonzero;fill:rgb(44.677734%,70.355225%,89.94751%);fill-opacity:1;" d="M 8.71875 30.4375 C 10.90625 27.335938 13.890625 25.429688 17.539062 24.53125 C 26.878906 22.222656 50.875 16.390625 53.679688 15.957031 C 53.15625 16.40625 52.660156 16.894531 52.101562 17.292969 C 47.738281 20.371094 43.136719 23.015625 38.039062 24.664062 C 35.886719 25.359375 16.703125 28.898438 15.617188 29.097656 C 13.996094 29.394531 12.714844 30.191406 11.722656 31.539062 C 10.375 33.367188 9.007812 35.1875 7.535156 36.914062 C 6.152344 38.535156 4.347656 39.527344 2.320312 40.042969 C 2.230469 39.90625 8.015625 31.441406 8.71875 30.4375 "/>
<path style=" stroke:none;fill-rule:nonzero;fill:rgb(97.833252%,84.32312%,5.184937%);fill-opacity:1;" d="M 10.867188 34.855469 C 12.308594 32.796875 13.324219 30.84375 15.933594 30.4375 C 21.277344 29.601562 33.085938 27.621094 33.863281 27.566406 C 33.613281 27.929688 26.875 32.910156 22.957031 33.460938 C 19.035156 34.007812 13.109375 34.664062 10.867188 34.855469 "/>
<path style=" stroke:none;fill-rule:nonzero;fill:rgb(31.515503%,28.826904%,29.551697%);fill-opacity:1;" d="M 21.207031 35.441406 C 16.773438 39.746094 11.511719 40.082031 5.863281 39.960938 C 6.121094 39.585938 7.28125 39.621094 10.261719 36.136719 C 12.636719 36.007812 20.148438 35.441406 21.207031 35.441406 "/>
</g>
</svg>
