<?xml version="1.0" encoding="UTF-8"?>
<svg xmlns="http://www.w3.org/2000/svg" xmlns:xlink="http://www.w3.org/1999/xlink" width="56pt" height="56pt" viewBox="0 0 56 56" version="1.1">
<g id="surface1">
<rect x="0" y="0" width="56" height="56" style="fill:rgb(92.591858%,10.089111%,18.183899%);fill-opacity:1;stroke:none;"/>
<path style=" stroke:none;fill-rule:nonzero;fill:rgb(100%,100%,100%);fill-opacity:1;" d="M 6.589844 20.019531 L 17.3125 20.019531 C 18.363281 20.019531 19.15625 20.351562 19.46875 21.84375 C 19.8125 23.5 19.671875 24.65625 17.800781 24.785156 L 14.4375 25.027344 C 16.914062 40.664062 31.402344 45.761719 39.289062 28.917969 C 40.59375 26.132812 41.023438 25.625 42.453125 25.980469 C 44.390625 26.460938 44.65625 27.457031 43.730469 30.265625 C 36.910156 51.027344 13.992188 53.109375 9.492188 25.382812 L 6.757812 25.578125 C 4.535156 25.738281 4.445312 23.863281 4.445312 22.820312 C 4.445312 20.757812 5.210938 20.019531 6.589844 20.019531 "/>
<path style=" stroke:none;fill-rule:nonzero;fill:rgb(100%,100%,100%);fill-opacity:1;" d="M 45.578125 9.976562 C 47.773438 9.976562 49.554688 11.757812 49.554688 13.953125 C 49.554688 16.148438 47.773438 17.925781 45.578125 17.925781 C 43.382812 17.925781 41.605469 16.148438 41.605469 13.953125 C 41.605469 11.757812 43.382812 9.976562 45.578125 9.976562 "/>
</g>
</svg>
