<?xml version="1.0" encoding="UTF-8"?>
<svg xmlns="http://www.w3.org/2000/svg" xmlns:xlink="http://www.w3.org/1999/xlink" width="56pt" height="56pt" viewBox="0 0 56 56" version="1.1">
<g id="surface1">
<rect x="0" y="0" width="56" height="56" style="fill:rgb(95.66803%,95.779419%,96.777344%);fill-opacity:1;stroke:none;"/>
<path style=" stroke:none;fill-rule:nonzero;fill:rgb(6.886292%,6.340027%,5.696106%);fill-opacity:1;" d="M 40.238281 10.359375 C 39.730469 11.488281 39.21875 12.621094 38.703125 13.765625 C 38.976562 14.476562 39.25 15.203125 39.53125 15.925781 C 39.816406 16.648438 40.09375 17.371094 40.367188 18.097656 C 40.355469 18.109375 40.34375 18.117188 40.332031 18.128906 C 39.359375 17.335938 38.390625 16.539062 37.398438 15.730469 C 36.214844 17.4375 35.039062 19.125 33.859375 20.824219 C 33 20.535156 32.148438 20.25 31.273438 19.957031 C 31.335938 19.921875 31.382812 19.890625 31.433594 19.871094 C 31.902344 19.703125 32.371094 19.535156 32.839844 19.363281 C 32.902344 19.34375 32.960938 19.308594 33.023438 19.28125 C 34.011719 17.894531 35 16.507812 36.007812 15.097656 C 34.761719 14.507812 33.546875 13.925781 32.304688 13.335938 C 32.355469 13.320312 32.375 13.308594 32.394531 13.308594 C 32.910156 13.292969 33.425781 13.277344 33.941406 13.261719 C 34.34375 13.246094 34.746094 13.234375 35.148438 13.21875 C 35.523438 13.207031 35.894531 13.195312 36.265625 13.179688 C 36.617188 13.164062 36.96875 13.148438 37.335938 13.128906 C 37.398438 13.042969 37.46875 12.949219 37.535156 12.851562 C 38.027344 12.160156 38.507812 11.457031 39.011719 10.773438 C 39.339844 10.332031 39.683594 9.898438 40.054688 9.488281 C 40.234375 9.289062 40.484375 9.152344 40.703125 8.984375 C 40.738281 8.957031 40.769531 8.929688 40.800781 8.902344 C 40.820312 8.914062 40.839844 8.929688 40.84375 8.933594 C 40.832031 9.003906 40.824219 9.046875 40.8125 9.09375 C 40.703125 9.34375 40.59375 9.59375 40.480469 9.84375 C 40.40625 9.851562 40.390625 9.894531 40.421875 9.957031 C 40.378906 10.054688 40.339844 10.152344 40.296875 10.246094 C 40.226562 10.257812 40.214844 10.300781 40.238281 10.359375 "/>
<path style=" stroke:none;fill-rule:nonzero;fill:rgb(6.886292%,6.340027%,5.696106%);fill-opacity:1;" d="M 19.546875 24.921875 C 19.464844 24.609375 19.386719 24.292969 19.292969 23.980469 C 19.210938 23.699219 19.117188 23.417969 19.011719 23.140625 C 18.871094 22.789062 18.628906 22.523438 18.304688 22.328125 C 17.960938 22.117188 17.617188 21.910156 17.273438 21.703125 C 16.558594 21.28125 15.878906 20.816406 15.210938 20.328125 C 15.074219 20.226562 14.933594 20.125 14.773438 20.007812 C 14.210938 21.285156 13.65625 22.539062 13.078125 23.847656 C 13.058594 23.722656 13.046875 23.648438 13.035156 23.578125 C 13.023438 23.503906 13.011719 23.429688 13.003906 23.355469 C 12.976562 23.109375 12.941406 22.867188 12.925781 22.621094 C 12.886719 22.011719 12.855469 21.402344 12.828125 20.789062 C 12.8125 20.476562 12.816406 20.164062 12.800781 19.851562 C 12.789062 19.621094 12.777344 19.390625 12.734375 19.164062 C 12.671875 18.832031 12.488281 18.554688 12.253906 18.320312 C 12.007812 18.074219 11.75 17.835938 11.476562 17.613281 C 10.898438 17.132812 10.308594 16.664062 9.722656 16.191406 C 9.394531 15.929688 9.066406 15.671875 8.738281 15.414062 C 8.707031 15.386719 8.675781 15.355469 8.65625 15.296875 C 8.695312 15.308594 8.734375 15.316406 8.765625 15.332031 C 9.691406 15.78125 10.609375 16.238281 11.535156 16.6875 C 11.996094 16.90625 12.46875 17.109375 12.933594 17.324219 C 13.148438 17.425781 13.363281 17.414062 13.589844 17.367188 C 14.132812 17.257812 14.640625 17.050781 15.152344 16.84375 C 15.984375 16.503906 16.808594 16.152344 17.640625 15.808594 C 17.761719 15.761719 17.890625 15.722656 18.027344 15.699219 C 17.621094 16.226562 17.179688 16.710938 16.753906 17.210938 C 16.320312 17.71875 15.886719 18.214844 15.453125 18.714844 C 15.550781 18.835938 16.851562 19.679688 18.03125 20.414062 C 18.902344 20.957031 19.761719 21.523438 20.640625 22.085938 C 20.285156 23.035156 19.933594 23.980469 19.582031 24.921875 C 19.570312 24.921875 19.558594 24.921875 19.546875 24.921875 "/>
<path style=" stroke:none;fill-rule:nonzero;fill:rgb(6.886292%,6.340027%,5.696106%);fill-opacity:1;" d="M 31.515625 43.570312 C 31.980469 43.40625 32.398438 43.199219 32.828125 43.023438 C 33.253906 42.84375 33.671875 42.65625 34.097656 42.476562 C 34.527344 42.292969 34.957031 42.117188 35.417969 41.921875 C 35.390625 41.96875 35.378906 42 35.355469 42.023438 C 34.828125 42.628906 34.292969 43.230469 33.765625 43.839844 C 33.402344 44.257812 33.054688 44.6875 32.6875 45.101562 C 32.335938 45.496094 32.1875 45.976562 32.148438 46.484375 C 32.101562 47.042969 32.113281 47.601562 32.207031 48.160156 C 32.277344 48.5625 32.300781 48.972656 32.351562 49.375 C 32.390625 49.714844 32.441406 50.054688 32.476562 50.394531 C 32.488281 50.480469 32.480469 50.570312 32.480469 50.679688 C 32.441406 50.644531 32.398438 50.625 32.382812 50.589844 C 32.121094 49.992188 31.839844 49.40625 31.652344 48.777344 C 31.429688 48.050781 31.199219 47.332031 30.855469 46.65625 C 30.753906 46.457031 30.636719 46.265625 30.503906 46.089844 C 30.34375 45.878906 30.136719 45.714844 29.882812 45.628906 C 29.582031 45.527344 29.28125 45.417969 28.972656 45.339844 C 28.308594 45.167969 27.667969 44.933594 27.0625 44.617188 C 26.769531 44.46875 26.488281 44.300781 26.203125 44.144531 C 26.171875 44.125 26.152344 44.09375 26.101562 44.042969 C 26.59375 44.042969 27.046875 44.042969 27.5 44.042969 C 27.949219 44.042969 28.398438 44.039062 28.847656 44.039062 C 29.300781 44.039062 29.753906 44.035156 30.222656 44.035156 C 29.8125 41.882812 29.40625 39.761719 29 37.628906 C 29.824219 37.242188 30.632812 36.859375 31.449219 36.476562 C 31.496094 36.585938 31.433594 36.65625 31.398438 36.722656 C 31.21875 37.066406 31.03125 37.402344 30.839844 37.738281 C 30.695312 37.996094 30.597656 38.257812 30.597656 38.5625 C 30.59375 38.96875 30.675781 39.359375 30.757812 39.753906 C 30.871094 40.289062 30.992188 40.824219 31.105469 41.359375 C 31.207031 41.839844 31.304688 42.320312 31.398438 42.800781 C 31.429688 42.96875 31.441406 43.140625 31.464844 43.308594 C 31.476562 43.386719 31.492188 43.464844 31.515625 43.570312 "/>
<path style=" stroke:none;fill-rule:nonzero;fill:rgb(7.067871%,6.533813%,5.905151%);fill-opacity:1;" d="M 23.480469 5.320312 C 23.503906 5.371094 23.535156 5.410156 23.546875 5.457031 C 23.652344 5.996094 23.832031 6.515625 23.996094 7.035156 C 24.261719 7.871094 24.554688 8.695312 24.898438 9.5 C 24.988281 9.710938 25.09375 9.914062 25.195312 10.121094 C 25.25 10.230469 25.328125 10.320312 25.4375 10.378906 C 25.730469 10.53125 26.019531 10.703125 26.324219 10.839844 C 27.03125 11.164062 27.742188 11.476562 28.453125 11.785156 C 28.910156 11.984375 29.367188 12.167969 29.855469 12.371094 C 29.792969 12.382812 29.746094 12.394531 29.703125 12.394531 C 28.460938 12.398438 27.21875 12.398438 25.976562 12.402344 C 25.898438 12.402344 25.816406 12.402344 25.738281 12.402344 C 25.722656 12.539062 25.847656 13.277344 25.9375 13.683594 C 26.03125 14.109375 26.113281 14.539062 26.195312 14.964844 C 26.273438 15.390625 26.347656 15.8125 26.425781 16.238281 C 26.507812 16.667969 26.589844 17.097656 26.671875 17.527344 C 26.753906 17.949219 26.835938 18.371094 26.921875 18.8125 C 26.097656 19.179688 25.277344 19.542969 24.457031 19.910156 C 24.445312 19.902344 24.433594 19.890625 24.425781 19.878906 C 24.511719 19.703125 24.601562 19.527344 24.691406 19.351562 C 24.8125 19.121094 24.945312 18.898438 25.0625 18.664062 C 25.28125 18.230469 25.316406 17.777344 25.246094 17.296875 C 25.136719 16.523438 24.957031 15.765625 24.835938 14.996094 C 24.769531 14.585938 24.6875 14.179688 24.5625 13.78125 C 24.472656 13.503906 24.375 13.222656 24.273438 12.921875 C 23.074219 13.441406 21.90625 13.980469 20.695312 14.5 C 20.714844 14.367188 20.769531 14.289062 20.816406 14.210938 C 21.042969 13.859375 21.292969 13.523438 21.578125 13.21875 C 21.984375 12.777344 22.390625 12.339844 22.792969 11.902344 C 23.027344 11.648438 23.253906 11.390625 23.484375 11.136719 C 23.675781 10.921875 23.757812 10.660156 23.792969 10.382812 C 23.824219 10.15625 23.84375 9.921875 23.832031 9.695312 C 23.800781 9.210938 23.746094 8.730469 23.695312 8.25 C 23.644531 7.824219 23.589844 7.394531 23.523438 6.96875 C 23.4375 6.4375 23.429688 5.902344 23.445312 5.367188 C 23.445312 5.355469 23.460938 5.34375 23.480469 5.320312 "/>
<path style=" stroke:none;fill-rule:nonzero;fill:rgb(6.886292%,6.340027%,5.696106%);fill-opacity:1;" d="M 35.371094 34.121094 C 35.710938 33.296875 36.039062 32.488281 36.390625 31.636719 C 36.445312 31.816406 36.492188 31.949219 36.53125 32.082031 C 36.640625 32.453125 36.738281 32.824219 36.851562 33.191406 C 36.953125 33.503906 37.164062 33.738281 37.425781 33.917969 C 37.9375 34.269531 38.453125 34.605469 38.972656 34.941406 C 39.570312 35.324219 40.171875 35.695312 40.769531 36.074219 C 40.914062 36.164062 41.058594 36.257812 41.203125 36.347656 C 41.246094 36.375 41.292969 36.394531 41.359375 36.421875 C 41.855469 35.148438 42.351562 33.886719 42.84375 32.625 C 42.859375 32.628906 42.875 32.628906 42.890625 32.628906 C 42.894531 32.667969 42.90625 32.707031 42.90625 32.742188 C 42.910156 33.078125 42.910156 33.414062 42.917969 33.753906 C 42.933594 34.355469 42.933594 34.964844 42.972656 35.566406 C 43.015625 36.179688 43.074219 36.792969 43.261719 37.390625 C 43.40625 37.84375 43.648438 38.214844 44.019531 38.496094 C 44.5625 38.90625 45.109375 39.308594 45.648438 39.71875 C 46.148438 40.101562 46.625 40.511719 47.050781 40.972656 C 47.066406 40.988281 47.078125 41.007812 47.113281 41.066406 C 47.007812 41.03125 46.929688 41.015625 46.863281 40.984375 C 46.269531 40.691406 45.675781 40.394531 45.082031 40.097656 C 44.425781 39.773438 43.78125 39.417969 43.089844 39.160156 C 42.957031 39.113281 42.820312 39.070312 42.683594 39.039062 C 42.492188 39 42.308594 39.042969 42.136719 39.109375 C 41.714844 39.261719 41.296875 39.414062 40.882812 39.582031 C 40.386719 39.78125 39.898438 39.996094 39.40625 40.199219 C 39.054688 40.34375 38.703125 40.480469 38.347656 40.613281 C 38.203125 40.667969 38.054688 40.710938 37.859375 40.769531 C 37.902344 40.703125 37.910156 40.679688 37.929688 40.664062 C 38.367188 40.246094 38.816406 39.839844 39.242188 39.40625 C 39.675781 38.96875 40.09375 38.511719 40.421875 37.980469 C 40.480469 37.886719 40.535156 37.789062 40.597656 37.6875 C 38.785156 36.59375 37.035156 35.425781 35.371094 34.121094 "/>
<path style=" stroke:none;fill-rule:nonzero;fill:rgb(6.886292%,6.340027%,5.696106%);fill-opacity:1;" d="M 14.320312 35.667969 C 14.160156 35.527344 13.996094 35.390625 13.835938 35.25 C 13.253906 34.738281 12.667969 34.226562 12.085938 33.714844 C 11.726562 33.402344 11.359375 33.09375 11.007812 32.769531 C 10.753906 32.53125 10.445312 32.445312 10.117188 32.394531 C 9.5 32.296875 8.886719 32.367188 8.273438 32.457031 C 7.90625 32.511719 7.535156 32.558594 7.167969 32.605469 C 6.738281 32.660156 6.3125 32.71875 5.882812 32.761719 C 5.632812 32.785156 5.378906 32.78125 5.125 32.792969 C 5.125 32.777344 5.121094 32.761719 5.121094 32.746094 C 5.15625 32.734375 5.191406 32.722656 5.226562 32.714844 C 6.15625 32.445312 7.074219 32.148438 7.976562 31.804688 C 8.46875 31.617188 8.957031 31.425781 9.449219 31.234375 C 9.503906 31.214844 9.554688 31.183594 9.609375 31.164062 C 9.96875 31.03125 10.183594 30.78125 10.332031 30.425781 C 10.734375 29.46875 11.15625 28.523438 11.578125 27.570312 C 11.753906 27.171875 11.945312 26.773438 12.132812 26.371094 C 12.222656 26.414062 12.195312 26.476562 12.195312 26.53125 C 12.199219 27.773438 12.199219 29.015625 12.199219 30.257812 C 12.199219 30.324219 12.199219 30.390625 12.199219 30.480469 C 12.753906 30.402344 13.277344 30.277344 13.804688 30.183594 C 14.339844 30.09375 14.867188 29.980469 15.402344 29.878906 C 15.933594 29.773438 16.464844 29.671875 16.996094 29.566406 C 17.527344 29.464844 18.058594 29.359375 18.609375 29.253906 C 18.972656 30.085938 19.335938 30.914062 19.710938 31.773438 C 19.644531 31.757812 19.601562 31.75 19.566406 31.738281 C 19.257812 31.617188 18.972656 31.464844 18.695312 31.285156 C 18.515625 31.167969 18.328125 31.0625 18.132812 30.96875 C 17.90625 30.859375 17.65625 30.84375 17.410156 30.882812 C 16.890625 30.96875 16.371094 31.070312 15.851562 31.160156 C 15.464844 31.230469 15.074219 31.285156 14.6875 31.363281 C 14.089844 31.476562 13.496094 31.609375 12.933594 31.855469 C 12.867188 31.886719 12.804688 31.925781 12.71875 31.972656 C 12.980469 32.597656 13.269531 33.207031 13.539062 33.824219 C 13.808594 34.429688 14.082031 35.039062 14.351562 35.648438 C 14.339844 35.652344 14.332031 35.660156 14.320312 35.667969 "/>
<path style=" stroke:none;fill-rule:nonzero;fill:rgb(6.886292%,6.340027%,5.696106%);fill-opacity:1;" d="M 15.078125 47.574219 C 15.109375 47.476562 15.132812 47.375 15.179688 47.28125 C 15.429688 46.761719 15.683594 46.238281 15.945312 45.71875 C 16.273438 45.0625 16.613281 44.410156 16.941406 43.75 C 17.023438 43.59375 17.070312 43.417969 17.132812 43.25 C 17.226562 43.007812 17.175781 42.765625 17.117188 42.527344 C 16.992188 42.019531 16.800781 41.535156 16.597656 41.058594 C 16.246094 40.222656 15.902344 39.386719 15.558594 38.546875 C 15.515625 38.441406 15.484375 38.328125 15.476562 38.195312 C 16.519531 39.097656 17.558594 40.007812 18.617188 40.929688 C 19.800781 39.15625 20.96875 37.410156 22.144531 35.652344 C 22.996094 35.9375 23.820312 36.25 24.691406 36.558594 C 24.386719 36.738281 24.109375 36.84375 23.820312 36.921875 C 23.582031 36.988281 23.34375 37.050781 23.105469 37.089844 C 22.804688 37.144531 22.585938 37.316406 22.40625 37.539062 C 22.183594 37.808594 21.976562 38.09375 21.78125 38.382812 C 21.371094 38.988281 20.96875 39.59375 20.578125 40.210938 C 20.320312 40.621094 20.085938 41.046875 19.84375 41.464844 C 19.832031 41.480469 19.828125 41.503906 19.816406 41.542969 C 21.0625 42.078125 22.308594 42.609375 23.554688 43.140625 C 23.554688 43.152344 23.554688 43.164062 23.554688 43.179688 C 23.523438 43.183594 23.492188 43.199219 23.464844 43.199219 C 22.703125 43.253906 21.945312 43.308594 21.183594 43.3125 C 20.734375 43.3125 20.285156 43.332031 19.839844 43.351562 C 19.398438 43.378906 18.96875 43.453125 18.578125 43.675781 C 18.265625 43.855469 17.988281 44.085938 17.75 44.355469 C 17.441406 44.707031 17.117188 45.050781 16.824219 45.417969 C 16.265625 46.109375 15.722656 46.8125 15.175781 47.511719 C 15.144531 47.546875 15.125 47.585938 15.070312 47.570312 L 15.078125 47.574219 "/>
<path style=" stroke:none;fill-rule:nonzero;fill:rgb(58.285522%,59.844971%,60.472107%);fill-opacity:1;" d="M 36.226562 24.667969 C 36.304688 24.707031 36.382812 24.746094 36.460938 24.785156 C 36.769531 24.957031 37.074219 25.132812 37.390625 25.296875 C 37.652344 25.433594 37.9375 25.484375 38.230469 25.53125 C 38.605469 25.59375 38.957031 25.5 39.316406 25.4375 C 39.617188 25.386719 39.925781 25.347656 40.226562 25.296875 C 40.429688 25.261719 40.628906 25.214844 40.828125 25.175781 C 40.945312 25.152344 41.058594 25.140625 41.175781 25.121094 C 41.347656 25.089844 41.523438 25.066406 41.695312 25.027344 C 41.984375 24.957031 42.285156 24.902344 42.558594 24.792969 C 42.773438 24.710938 43.015625 24.65625 43.195312 24.460938 C 42.6875 23.296875 42.175781 22.132812 41.652344 20.941406 C 41.707031 20.957031 41.738281 20.960938 41.761719 20.976562 C 41.996094 21.195312 42.226562 21.414062 42.464844 21.632812 C 42.808594 21.949219 43.15625 22.261719 43.5 22.582031 C 43.789062 22.847656 44.074219 23.125 44.363281 23.394531 C 44.667969 23.675781 44.976562 23.957031 45.289062 24.230469 C 45.558594 24.472656 45.859375 24.558594 46.238281 24.503906 C 46.652344 24.445312 47.03125 24.300781 47.417969 24.179688 C 47.792969 24.0625 48.167969 23.941406 48.546875 23.835938 C 48.730469 23.78125 48.921875 23.757812 49.109375 23.730469 C 49.511719 23.667969 49.914062 23.621094 50.324219 23.640625 C 50.367188 23.640625 50.414062 23.636719 50.457031 23.640625 C 50.59375 23.660156 50.726562 23.683594 50.878906 23.710938 C 50.8125 23.808594 50.71875 23.761719 50.652344 23.785156 C 50.324219 23.894531 49.992188 23.984375 49.667969 24.089844 C 49.328125 24.199219 48.988281 24.3125 48.652344 24.429688 C 48.128906 24.613281 47.601562 24.792969 47.082031 24.984375 C 46.742188 25.109375 46.414062 25.253906 46.085938 25.398438 C 45.945312 25.457031 45.847656 25.566406 45.769531 25.699219 C 45.441406 26.265625 45.175781 26.863281 44.929688 27.46875 C 44.792969 27.808594 44.636719 28.144531 44.492188 28.480469 C 44.367188 28.777344 44.253906 29.078125 44.128906 29.375 C 44.027344 29.617188 43.910156 29.855469 43.773438 30.089844 C 43.773438 30.015625 43.773438 29.945312 43.773438 29.871094 C 43.769531 29.363281 43.777344 28.855469 43.769531 28.347656 C 43.757812 27.566406 43.742188 26.78125 43.726562 25.992188 C 43.636719 25.957031 43.550781 25.96875 43.464844 25.988281 C 43.25 26.042969 43.039062 26.097656 42.816406 26.113281 C 42.695312 26.121094 42.578125 26.171875 42.457031 26.195312 C 42.195312 26.242188 41.9375 26.28125 41.675781 26.332031 C 41.339844 26.398438 41.003906 26.46875 40.667969 26.535156 C 40.460938 26.574219 40.25 26.605469 40.042969 26.648438 C 39.597656 26.734375 39.15625 26.828125 38.710938 26.910156 C 38.34375 26.976562 37.972656 27.03125 37.605469 27.097656 C 37.511719 27.113281 37.421875 27.132812 37.3125 27.15625 C 37.265625 27.046875 37.226562 26.953125 37.183594 26.863281 C 37.066406 26.601562 36.941406 26.347656 36.820312 26.085938 C 36.621094 25.652344 36.429688 25.214844 36.234375 24.78125 C 36.222656 24.75 36.230469 24.707031 36.226562 24.667969 "/>
<path style=" stroke:none;fill-rule:nonzero;fill:rgb(29.890442%,30.215454%,30.717468%);fill-opacity:1;" d="M 40.8125 9.09375 C 40.824219 9.046875 40.832031 9.003906 40.84375 8.933594 C 40.839844 8.929688 40.820312 8.914062 40.800781 8.902344 C 40.851562 8.847656 40.902344 8.792969 40.953125 8.742188 C 40.929688 8.878906 40.929688 9.011719 40.8125 9.09375 "/>
<path style=" stroke:none;fill-rule:nonzero;fill:rgb(29.890442%,30.215454%,30.717468%);fill-opacity:1;" d="M 40.421875 9.957031 C 40.390625 9.894531 40.40625 9.851562 40.480469 9.84375 C 40.460938 9.882812 40.441406 9.917969 40.421875 9.957031 "/>
<path style=" stroke:none;fill-rule:nonzero;fill:rgb(29.890442%,30.215454%,30.717468%);fill-opacity:1;" d="M 40.238281 10.359375 C 40.214844 10.300781 40.226562 10.257812 40.296875 10.246094 C 40.320312 10.304688 40.285156 10.335938 40.238281 10.359375 "/>
<path style=" stroke:none;fill-rule:nonzero;fill:rgb(6.886292%,6.340027%,5.696106%);fill-opacity:1;" d="M 15.070312 47.570312 C 15.066406 47.59375 15.066406 47.617188 15.0625 47.644531 C 15.054688 47.636719 15.046875 47.632812 15.039062 47.628906 C 15.050781 47.613281 15.0625 47.59375 15.078125 47.574219 L 15.070312 47.570312 "/>
<path style=" stroke:none;fill-rule:nonzero;fill:rgb(58.285522%,59.844971%,60.472107%);fill-opacity:1;" d="M 36.226562 24.667969 C 36.214844 24.664062 36.203125 24.65625 36.226562 24.667969 C 36.214844 24.648438 36.21875 24.660156 36.226562 24.667969 "/>
</g>
</svg>
