<?xml version="1.0" encoding="UTF-8"?>
<svg xmlns="http://www.w3.org/2000/svg" xmlns:xlink="http://www.w3.org/1999/xlink" width="56pt" height="56pt" viewBox="0 0 56 56" version="1.1">
<g id="surface1">
<rect x="0" y="0" width="56" height="56" style="fill:rgb(35.9375%,78.605652%,79.252625%);fill-opacity:1;stroke:none;"/>
<path style=" stroke:none;fill-rule:nonzero;fill:rgb(100%,100%,100%);fill-opacity:1;" d="M 50.878906 34.375 C 50.03125 33.003906 49.457031 32.347656 49.117188 32.054688 C 47.542969 30.695312 46.046875 30.117188 44.816406 29.585938 C 44.601562 29.492188 44.34375 29.382812 43.820312 29.160156 C 40.667969 27.816406 38.226562 27.59375 36.648438 27.507812 L 36.644531 27.507812 C 36.070312 27.476562 35.246094 27.566406 34.890625 27.613281 C 34.707031 27.640625 34.464844 27.671875 34.183594 27.78125 C 34.039062 27.835938 33.839844 27.921875 33.613281 28.046875 C 33.75 27.941406 33.957031 27.800781 34.222656 27.671875 C 34.59375 27.488281 34.84375 27.425781 34.84375 27.425781 C 34.84375 27.425781 34.882812 27.414062 34.882812 27.414062 C 34.882812 27.417969 39.929688 26.113281 44.890625 23.3125 C 47.488281 21.84375 49.65625 20.621094 49.484375 19.289062 C 49.304688 17.890625 46.582031 16.707031 44.308594 16.902344 C 43.464844 16.976562 42.859375 17.222656 42.214844 17.484375 C 40.628906 18.136719 40.234375 18.753906 37.769531 20.664062 C 35.566406 22.371094 35.0625 22.511719 33.957031 23.722656 C 33.238281 24.511719 32.570312 25.589844 32.410156 25.746094 C 32.253906 25.902344 31.648438 26.414062 31.816406 26.699219 C 31.886719 26.820312 32.148438 26.800781 32.367188 27.042969 C 32.445312 27.128906 32.59375 27.472656 32.722656 27.570312 C 32.910156 27.746094 33.003906 27.648438 33.050781 27.820312 C 33.078125 27.910156 33.003906 27.988281 33.046875 28.109375 C 33.101562 28.257812 33.113281 28.253906 33.164062 28.398438 C 33.183594 28.449219 33.15625 28.605469 33.058594 28.683594 C 32.957031 28.769531 32.789062 28.695312 32.558594 28.839844 C 32.433594 28.921875 32.371094 29.035156 32.371094 29.191406 C 32.367188 29.289062 32.421875 29.445312 32.597656 29.503906 C 32.597656 29.503906 32.664062 29.515625 32.957031 29.582031 C 33.324219 29.660156 33.613281 30.046875 33.695312 30.164062 C 33.707031 30.179688 33.714844 30.1875 33.714844 30.191406 C 36.191406 33.824219 45.882812 36.859375 45.882812 36.859375 C 46.328125 37.023438 50.503906 38.152344 51.46875 36.714844 C 51.84375 36.023438 51.175781 34.855469 50.878906 34.375 "/>
<path style=" stroke:none;fill-rule:nonzero;fill:rgb(100%,100%,100%);fill-opacity:1;" d="M 35.507812 32.707031 C 35.207031 32.015625 35.023438 31.78125 34.835938 31.601562 C 34.566406 31.34375 34.375 31.289062 34.101562 31.003906 C 34.078125 30.972656 34.054688 30.945312 34.03125 30.917969 C 33.878906 30.734375 33.828125 30.632812 33.589844 30.359375 C 33.460938 30.21875 33.367188 30.113281 33.285156 30.035156 C 33.195312 29.941406 33.117188 29.878906 33.027344 29.835938 C 32.796875 29.722656 32.480469 29.671875 32.179688 29.746094 C 31.867188 29.824219 31.761719 29.996094 31.558594 29.933594 C 31.414062 29.890625 31.410156 29.796875 31.234375 29.675781 C 30.972656 29.496094 30.792969 29.546875 30.546875 29.460938 C 30.242188 29.351562 30.023438 28.9375 29.953125 28.644531 C 29.855469 28.265625 29.851562 27.957031 30.027344 27.609375 C 30.105469 27.449219 30.261719 27.253906 30.382812 27.15625 C 30.546875 27.027344 30.816406 26.914062 31.011719 26.867188 C 31.15625 26.832031 31.296875 26.738281 31.375 26.609375 C 31.4375 26.507812 31.433594 26.40625 31.488281 26.277344 C 31.496094 26.261719 31.550781 26.148438 31.644531 26.03125 C 31.792969 25.84375 31.914062 25.824219 32.140625 25.644531 C 32.238281 25.5625 32.300781 25.492188 32.433594 25.351562 C 33.089844 24.636719 33.902344 22.914062 33.902344 22.914062 C 34.121094 22.363281 34.472656 21.511719 34.941406 20.488281 C 36.90625 16.191406 37.695312 15.925781 38.25 13.738281 C 38.484375 12.796875 39.105469 10.195312 37.882812 7.554688 C 37.425781 6.566406 36.839844 5.855469 36.410156 5.40625 C 36.351562 5.347656 36.230469 5.3125 36.121094 5.320312 C 36.121094 5.320312 35.917969 5.324219 35.675781 5.523438 C 33.53125 7.308594 31.5625 12.734375 31.5625 12.734375 C 30.324219 16.140625 29.765625 17.257812 29.144531 19.78125 C 28.820312 21.089844 28.539062 22.523438 28.9375 24.175781 C 29.164062 25.121094 29.554688 25.902344 29.527344 25.929688 C 29.34375 25.671875 28.59375 24.113281 27.863281 22.4375 C 27.398438 21.363281 27.292969 21.039062 26.644531 19.472656 C 26.277344 18.585938 25.941406 17.773438 25.230469 16.152344 C 22.6875 10.328125 21.800781 9.21875 21.179688 8.542969 C 20.300781 7.582031 19.421875 6.652344 18.375 6.789062 C 16.941406 6.976562 16.222656 9.035156 16.117188 9.335938 C 16 9.675781 15.921875 10.015625 15.878906 10.34375 C 15.644531 12.117188 16.363281 13.699219 16.695312 14.425781 C 16.796875 14.65625 16.917969 14.878906 17.066406 15.117188 C 17.394531 15.644531 17.855469 16.257812 18.5625 17.1875 C 19.539062 18.484375 21.261719 20.558594 21.90625 21.226562 C 21.984375 21.3125 22.261719 21.601562 22.589844 22.039062 C 22.671875 22.148438 22.75 22.265625 22.871094 22.453125 C 23.082031 22.777344 23.316406 23.152344 23.605469 23.539062 C 23.976562 24.035156 24.429688 24.558594 25.027344 25.027344 C 25.75 25.601562 26.488281 25.972656 27.007812 26.199219 C 26.425781 25.980469 25.429688 25.582031 23.839844 24.882812 C 22.304688 24.207031 20.59375 23.457031 18.382812 22.328125 C 15.511719 20.867188 13.191406 19.488281 10.28125 18.503906 C 10.199219 18.476562 8.996094 18.078125 7.378906 18.082031 C 6.5625 18.082031 5.710938 18.089844 5.152344 18.402344 C 4.957031 18.507812 4.796875 18.644531 4.683594 18.828125 C 3.875 20.132812 5.113281 21.972656 5.828125 23.03125 C 6.789062 24.445312 7.925781 25.683594 9.328125 26.671875 C 12.390625 28.828125 16.15625 29.789062 19.796875 30.414062 C 23.828125 31.101562 26.734375 30.542969 26.757812 30.535156 C 26.78125 30.53125 27.691406 30.3125 27.6875 30.289062 C 27.6875 30.289062 27.707031 30.46875 27.472656 30.535156 C 26.960938 30.6875 26.921875 30.714844 26.695312 30.761719 C 25.917969 30.925781 25.46875 31.132812 23.765625 31.929688 C 23.0625 32.21875 22.105469 32.609375 20.734375 33.183594 C 17.726562 34.433594 17.691406 34.519531 16.273438 35.316406 C 13.519531 36.863281 13.03125 37.386719 12.605469 37.726562 C 11.421875 38.664062 9.476562 40.992188 9.398438 42.703125 C 9.378906 43.101562 9.523438 43.25 9.757812 43.46875 C 10.867188 44.492188 13.273438 44.433594 14.195312 44.386719 C 17.292969 44.226562 18.898438 43.371094 20.207031 42.605469 C 21.542969 41.832031 22.816406 40.84375 23.027344 40.675781 C 23.457031 40.34375 23.808594 40.046875 24.851562 39.117188 C 25.398438 38.636719 26.828125 37.21875 27.347656 36.675781 C 29.542969 34.382812 29.625 33.976562 29.972656 33.511719 C 30.007812 33.460938 30.042969 33.414062 30.078125 33.367188 C 30.199219 33.199219 30.308594 33.007812 30.628906 32.605469 C 30.835938 32.347656 31.023438 32.035156 31.039062 31.996094 C 31.035156 32.039062 31.003906 32.40625 30.769531 32.75 C 30.699219 32.859375 30.65625 32.941406 30.585938 33.035156 C 30.457031 33.207031 30.253906 33.589844 30.074219 33.949219 C 29.476562 35.15625 29.605469 35.867188 29.691406 36.242188 C 30.546875 39.914062 31.144531 45.367188 34.429688 48.910156 C 35.730469 50.3125 37.105469 51.050781 38.484375 50.492188 C 38.84375 50.347656 39.398438 48.046875 39.511719 44.800781 C 39.660156 40.476562 37.230469 36.523438 35.976562 33.953125 C 35.859375 33.59375 35.707031 33.164062 35.507812 32.707031 "/>
</g>
</svg>
