<?xml version="1.0" encoding="UTF-8"?>
<svg xmlns="http://www.w3.org/2000/svg" xmlns:xlink="http://www.w3.org/1999/xlink" width="56pt" height="56pt" viewBox="0 0 56 56" version="1.1">
<g id="surface1">
<rect x="0" y="0" width="56" height="56" style="fill:rgb(95.666504%,95.776367%,96.775818%);fill-opacity:1;stroke:none;"/>
<path style=" stroke:none;fill-rule:nonzero;fill:rgb(21.977234%,44.490051%,75.575256%);fill-opacity:1;" d="M 18.453125 17.890625 C 8.78125 20.722656 2.152344 27.910156 3.679688 33.132812 C 5.207031 38.355469 14.792969 40.636719 24.464844 37.804688 C 34.140625 34.976562 40.289062 28.089844 38.761719 22.867188 C 37.234375 17.644531 28.125 15.058594 18.453125 17.890625 Z M 24.335938 38.648438 C 14.058594 41.65625 4.296875 39.328125 2.578125 33.457031 C 0.859375 27.585938 7.824219 20.359375 18.105469 17.351562 C 28.382812 14.34375 38.144531 16.671875 39.863281 22.542969 C 41.582031 28.414062 34.617188 35.640625 24.335938 38.648438 "/>
<path style=" stroke:none;fill-rule:nonzero;fill:rgb(21.977234%,44.490051%,75.575256%);fill-opacity:1;" d="M 13.351562 21.941406 C 13.351562 21.941406 13.476562 22.015625 13.710938 22.144531 C 13.949219 22.269531 14.304688 22.429688 14.757812 22.621094 C 15.214844 22.804688 15.773438 23.003906 16.417969 23.1875 C 17.066406 23.367188 17.796875 23.546875 18.605469 23.671875 C 19.414062 23.792969 20.285156 23.902344 21.21875 23.929688 C 21.679688 23.964844 22.160156 23.941406 22.644531 23.953125 C 22.851562 23.953125 23.148438 23.945312 23.398438 23.9375 C 23.636719 23.921875 23.871094 23.917969 24.125 23.894531 C 25.125 23.828125 26.136719 23.675781 27.136719 23.433594 C 28.140625 23.183594 29.132812 22.847656 30.152344 22.425781 C 31.175781 22.03125 32.246094 21.53125 33.480469 21.222656 C 34.089844 21.066406 34.734375 20.960938 35.378906 20.941406 L 35.496094 20.9375 L 35.65625 20.9375 L 35.863281 20.949219 C 35.917969 20.949219 36.023438 20.957031 36.117188 20.96875 L 36.398438 20.996094 C 36.726562 21.050781 37.039062 21.117188 37.328125 21.203125 C 37.902344 21.375 38.402344 21.5625 38.867188 21.742188 C 39.332031 21.914062 39.761719 22.0625 40.1875 22.179688 C 40.609375 22.292969 41.027344 22.378906 41.441406 22.429688 L 41.460938 22.433594 C 41.425781 22.433594 41.460938 22.433594 41.460938 22.433594 L 41.503906 22.4375 L 41.589844 22.441406 L 41.757812 22.449219 C 41.855469 22.449219 41.949219 22.453125 42.042969 22.453125 C 42.234375 22.453125 42.433594 22.441406 42.621094 22.421875 C 43.386719 22.347656 44.089844 22.132812 44.691406 21.875 C 45.292969 21.613281 45.804688 21.316406 46.207031 21.039062 C 46.605469 20.761719 46.914062 20.519531 47.113281 20.339844 C 47.316406 20.164062 47.417969 20.0625 47.417969 20.0625 C 47.417969 20.0625 47.359375 20.195312 47.21875 20.425781 C 47.074219 20.65625 46.855469 20.996094 46.523438 21.386719 C 46.183594 21.773438 45.746094 22.234375 45.152344 22.667969 C 44.5625 23.105469 43.808594 23.523438 42.902344 23.789062 C 42.675781 23.855469 42.441406 23.910156 42.195312 23.957031 C 42.066406 23.976562 41.9375 23.996094 41.808594 24.015625 L 41.640625 24.035156 L 41.554688 24.042969 L 41.511719 24.050781 L 41.445312 24.054688 C 40.941406 24.101562 40.40625 24.109375 39.867188 24.0625 C 38.789062 23.980469 37.707031 23.652344 36.789062 23.488281 C 36.554688 23.449219 36.339844 23.425781 36.132812 23.40625 L 36.011719 23.40625 C 35.96875 23.40625 35.9375 23.402344 35.855469 23.40625 L 35.652344 23.414062 L 35.601562 23.417969 C 35.585938 23.417969 35.683594 23.414062 35.640625 23.417969 L 35.605469 23.417969 L 35.523438 23.429688 C 35.070312 23.476562 34.617188 23.554688 34.148438 23.695312 C 33.21875 23.972656 32.210938 24.421875 31.132812 24.867188 C 30.042969 25.296875 28.878906 25.703125 27.699219 25.933594 C 26.519531 26.1875 25.332031 26.277344 24.203125 26.28125 C 23.921875 26.285156 23.628906 26.265625 23.347656 26.257812 C 23.214844 26.25 23.085938 26.242188 22.957031 26.234375 L 22.761719 26.222656 L 22.714844 26.21875 C 22.664062 26.214844 22.671875 26.214844 22.648438 26.210938 L 22.546875 26.203125 C 22.007812 26.140625 21.484375 26.082031 20.980469 25.980469 C 19.964844 25.804688 19.027344 25.523438 18.1875 25.21875 C 17.347656 24.910156 16.613281 24.535156 15.988281 24.175781 C 15.363281 23.804688 14.859375 23.425781 14.464844 23.097656 C 13.675781 22.433594 13.351562 21.941406 13.351562 21.941406 "/>
<path style=" stroke:none;fill-rule:nonzero;fill:rgb(91.685486%,70.715332%,10.38208%);fill-opacity:1;" d="M 6.992188 27.296875 C 6.992188 27.296875 7.128906 27.441406 7.441406 27.601562 C 7.753906 27.761719 8.234375 27.9375 8.871094 28.058594 C 9.507812 28.1875 10.289062 28.269531 11.195312 28.292969 C 12.097656 28.316406 13.117188 28.316406 14.234375 28.238281 C 14.757812 28.207031 15.398438 28.1875 15.988281 28.148438 C 16.285156 28.121094 16.585938 28.097656 16.890625 28.074219 C 17.199219 28.042969 17.515625 28.011719 17.835938 27.980469 C 19.113281 27.839844 20.460938 27.636719 21.871094 27.425781 C 23.28125 27.210938 24.757812 26.992188 26.289062 26.839844 C 27.820312 26.691406 29.40625 26.628906 30.988281 26.707031 C 31.386719 26.71875 31.78125 26.757812 32.179688 26.792969 C 32.382812 26.816406 32.554688 26.824219 32.789062 26.855469 C 32.972656 26.878906 33.160156 26.90625 33.386719 26.945312 C 34.226562 27.085938 35.003906 27.324219 35.757812 27.59375 C 37.261719 28.144531 38.59375 28.867188 39.847656 29.480469 C 41.101562 30.097656 42.292969 30.609375 43.46875 30.847656 C 43.761719 30.914062 44.050781 30.953125 44.339844 30.988281 C 44.476562 31 44.613281 31.011719 44.75 31.023438 C 44.90625 31.027344 45.054688 31.027344 45.207031 31.03125 C 45.734375 31.03125 46.3125 30.96875 46.835938 30.871094 C 47.898438 30.671875 48.871094 30.347656 49.714844 30.011719 C 50.554688 29.664062 51.28125 29.316406 51.867188 29.003906 C 53.039062 28.382812 53.679688 27.953125 53.679688 27.953125 C 53.679688 27.953125 53.550781 28.097656 53.292969 28.347656 C 53.03125 28.59375 52.644531 28.960938 52.113281 29.382812 C 51.585938 29.800781 50.921875 30.300781 50.101562 30.785156 C 49.28125 31.273438 48.3125 31.777344 47.15625 32.144531 C 46.570312 32.324219 45.96875 32.46875 45.265625 32.546875 C 45.09375 32.570312 44.953125 32.574219 44.792969 32.589844 C 44.582031 32.59375 44.4375 32.597656 44.257812 32.597656 C 43.90625 32.589844 43.554688 32.574219 43.199219 32.53125 C 41.777344 32.371094 40.363281 31.875 39.019531 31.308594 C 37.671875 30.738281 36.363281 30.113281 35.03125 29.660156 C 34.371094 29.441406 33.683594 29.261719 33.027344 29.152344 C 32.878906 29.125 32.6875 29.101562 32.496094 29.078125 C 32.351562 29.058594 32.144531 29.046875 31.96875 29.03125 C 31.605469 29 31.242188 28.964844 30.878906 28.957031 C 27.957031 28.789062 25 29.179688 22.152344 29.515625 C 20.726562 29.6875 19.332031 29.832031 17.996094 29.910156 C 17.664062 29.929688 17.332031 29.945312 17.007812 29.964844 C 16.675781 29.96875 16.351562 29.976562 16.03125 29.980469 C 15.710938 29.992188 15.417969 29.976562 15.117188 29.976562 C 14.96875 29.976562 14.820312 29.972656 14.675781 29.972656 C 14.5 29.96875 14.367188 29.953125 14.21875 29.941406 C 11.875 29.773438 9.921875 29.277344 8.664062 28.664062 C 8.035156 28.355469 7.585938 28.023438 7.328125 27.753906 C 7.0625 27.484375 6.992188 27.296875 6.992188 27.296875 "/>
<path style=" stroke:none;fill-rule:nonzero;fill:rgb(70.051575%,12.173462%,14.61792%);fill-opacity:1;" d="M 11.347656 35.90625 C 11.777344 35.371094 12.28125 34.890625 12.816406 34.449219 C 13.085938 34.226562 13.355469 34.007812 13.648438 33.816406 C 13.933594 33.613281 14.238281 33.433594 14.542969 33.25 C 14.851562 33.085938 15.164062 32.902344 15.496094 32.769531 C 15.820312 32.613281 16.164062 32.5 16.503906 32.375 L 17.03125 32.226562 C 17.207031 32.175781 17.386719 32.136719 17.570312 32.105469 C 17.75 32.074219 17.933594 32.039062 18.117188 32.011719 L 18.675781 31.96875 C 18.777344 31.964844 18.847656 31.953125 18.972656 31.949219 L 19.226562 31.945312 C 19.398438 31.945312 19.5625 31.941406 19.738281 31.941406 C 20.101562 31.957031 20.46875 31.964844 20.824219 32 C 21.183594 32.023438 21.542969 32.070312 21.898438 32.128906 C 22.257812 32.183594 22.613281 32.257812 22.964844 32.339844 C 23.667969 32.503906 24.339844 32.726562 24.957031 32.894531 C 25.265625 32.976562 25.5625 33.0625 25.855469 33.113281 C 26.144531 33.175781 26.433594 33.210938 26.726562 33.234375 L 26.410156 33.253906 C 26.808594 33.160156 27.203125 33.066406 27.601562 32.949219 L 28.863281 32.5625 C 29.3125 32.433594 29.792969 32.316406 30.28125 32.238281 C 30.773438 32.160156 31.265625 32.121094 31.75 32.117188 L 32.109375 32.117188 C 32.382812 32.128906 32.316406 32.121094 32.558594 32.15625 C 32.652344 32.167969 32.746094 32.1875 32.839844 32.207031 L 33.0625 32.269531 C 33.210938 32.308594 33.335938 32.359375 33.46875 32.410156 C 33.984375 32.621094 34.40625 32.886719 34.808594 33.152344 C 35.605469 33.691406 36.28125 34.285156 36.960938 34.859375 C 37.628906 35.441406 38.277344 36.015625 38.9375 36.539062 C 39.269531 36.796875 39.597656 37.046875 39.933594 37.257812 C 40.273438 37.464844 40.613281 37.636719 40.9375 37.722656 C 41.015625 37.746094 41.105469 37.757812 41.164062 37.769531 L 41.496094 37.789062 C 41.71875 37.800781 41.890625 37.804688 42.101562 37.796875 C 42.515625 37.789062 42.921875 37.722656 43.328125 37.625 C 43.734375 37.53125 44.136719 37.386719 44.515625 37.191406 C 44.890625 36.992188 45.261719 36.757812 45.539062 36.40625 C 45.46875 36.621094 45.34375 36.820312 45.203125 36.996094 C 45.058594 37.175781 44.90625 37.347656 44.730469 37.5 C 44.382812 37.804688 43.992188 38.066406 43.574219 38.277344 C 43.152344 38.484375 42.703125 38.648438 42.238281 38.753906 C 42.015625 38.808594 41.75 38.855469 41.53125 38.886719 L 41.203125 38.925781 C 41.039062 38.933594 40.910156 38.9375 40.769531 38.925781 C 40.21875 38.882812 39.730469 38.71875 39.285156 38.523438 C 38.835938 38.328125 38.421875 38.101562 38.027344 37.863281 C 37.234375 37.386719 36.503906 36.855469 35.785156 36.347656 C 35.078125 35.835938 34.371094 35.332031 33.683594 34.917969 C 33.339844 34.714844 32.992188 34.535156 32.683594 34.425781 C 32.609375 34.40625 32.53125 34.371094 32.464844 34.359375 L 32.367188 34.335938 C 32.351562 34.335938 32.335938 34.332031 32.324219 34.328125 C 32.347656 34.320312 32.0625 34.3125 32.113281 34.3125 L 31.816406 34.324219 C 31.011719 34.363281 30.285156 34.480469 29.492188 34.726562 C 28.695312 34.960938 27.773438 35.257812 26.84375 35.429688 L 26.660156 35.460938 L 26.527344 35.445312 C 26.144531 35.398438 25.761719 35.339844 25.390625 35.25 C 25.015625 35.164062 24.664062 35.058594 24.324219 34.945312 C 23.644531 34.710938 23.039062 34.480469 22.429688 34.289062 C 22.128906 34.191406 21.824219 34.105469 21.519531 34.03125 C 21.210938 33.960938 20.902344 33.886719 20.585938 33.832031 C 20.269531 33.769531 19.960938 33.730469 19.648438 33.6875 L 19.144531 33.632812 L 18.890625 33.601562 L 18.675781 33.59375 L 18.21875 33.570312 L 17.757812 33.585938 C 17.601562 33.585938 17.445312 33.597656 17.289062 33.621094 L 16.820312 33.675781 C 16.511719 33.738281 16.195312 33.78125 15.882812 33.875 C 15.570312 33.949219 15.261719 34.046875 14.945312 34.144531 C 14.640625 34.253906 14.328125 34.359375 14.023438 34.496094 C 13.71875 34.625 13.414062 34.761719 13.113281 34.90625 C 12.515625 35.207031 11.921875 35.53125 11.347656 35.90625 "/>
</g>
</svg>
