<?xml version="1.0" encoding="UTF-8"?>
<svg xmlns="http://www.w3.org/2000/svg" xmlns:xlink="http://www.w3.org/1999/xlink" width="56pt" height="56pt" viewBox="0 0 56 56" version="1.1">
<defs>
<clipPath id="clip1">
  <path d="M 8 12 L 47 12 L 47 51 L 8 51 Z M 8 12 "/>
</clipPath>
<clipPath id="clip2">
  <path d="M 8.910156 31.617188 C 8.910156 42.007812 17.332031 50.429688 27.71875 50.429688 C 38.113281 50.429688 46.53125 42.007812 46.53125 31.617188 C 46.53125 21.226562 38.113281 12.804688 27.71875 12.804688 C 17.332031 12.804688 8.910156 21.226562 8.910156 31.617188 "/>
</clipPath>
<clipPath id="clip3">
  <path d="M 8 12 L 47 12 L 47 14 L 8 14 Z M 8 12 "/>
</clipPath>
<clipPath id="clip4">
  <path d="M 8.910156 31.617188 C 8.910156 42.007812 17.332031 50.429688 27.71875 50.429688 C 38.113281 50.429688 46.53125 42.007812 46.53125 31.617188 C 46.53125 21.226562 38.113281 12.804688 27.71875 12.804688 C 17.332031 12.804688 8.910156 21.226562 8.910156 31.617188 "/>
</clipPath>
<clipPath id="clip5">
  <path d="M 8 13 L 47 13 L 47 14 L 8 14 Z M 8 13 "/>
</clipPath>
<clipPath id="clip6">
  <path d="M 8.910156 31.617188 C 8.910156 42.007812 17.332031 50.429688 27.71875 50.429688 C 38.113281 50.429688 46.53125 42.007812 46.53125 31.617188 C 46.53125 21.226562 38.113281 12.804688 27.71875 12.804688 C 17.332031 12.804688 8.910156 21.226562 8.910156 31.617188 "/>
</clipPath>
<clipPath id="clip7">
  <path d="M 8 13 L 47 13 L 47 15 L 8 15 Z M 8 13 "/>
</clipPath>
<clipPath id="clip8">
  <path d="M 8.910156 31.617188 C 8.910156 42.007812 17.332031 50.429688 27.71875 50.429688 C 38.113281 50.429688 46.53125 42.007812 46.53125 31.617188 C 46.53125 21.226562 38.113281 12.804688 27.71875 12.804688 C 17.332031 12.804688 8.910156 21.226562 8.910156 31.617188 "/>
</clipPath>
<clipPath id="clip9">
  <path d="M 8 14 L 47 14 L 47 15 L 8 15 Z M 8 14 "/>
</clipPath>
<clipPath id="clip10">
  <path d="M 8.910156 31.617188 C 8.910156 42.007812 17.332031 50.429688 27.71875 50.429688 C 38.113281 50.429688 46.53125 42.007812 46.53125 31.617188 C 46.53125 21.226562 38.113281 12.804688 27.71875 12.804688 C 17.332031 12.804688 8.910156 21.226562 8.910156 31.617188 "/>
</clipPath>
<clipPath id="clip11">
  <path d="M 8 14 L 47 14 L 47 16 L 8 16 Z M 8 14 "/>
</clipPath>
<clipPath id="clip12">
  <path d="M 8.910156 31.617188 C 8.910156 42.007812 17.332031 50.429688 27.71875 50.429688 C 38.113281 50.429688 46.53125 42.007812 46.53125 31.617188 C 46.53125 21.226562 38.113281 12.804688 27.71875 12.804688 C 17.332031 12.804688 8.910156 21.226562 8.910156 31.617188 "/>
</clipPath>
<clipPath id="clip13">
  <path d="M 8 15 L 47 15 L 47 16 L 8 16 Z M 8 15 "/>
</clipPath>
<clipPath id="clip14">
  <path d="M 8.910156 31.617188 C 8.910156 42.007812 17.332031 50.429688 27.71875 50.429688 C 38.113281 50.429688 46.53125 42.007812 46.53125 31.617188 C 46.53125 21.226562 38.113281 12.804688 27.71875 12.804688 C 17.332031 12.804688 8.910156 21.226562 8.910156 31.617188 "/>
</clipPath>
<clipPath id="clip15">
  <path d="M 8 15 L 47 15 L 47 17 L 8 17 Z M 8 15 "/>
</clipPath>
<clipPath id="clip16">
  <path d="M 8.910156 31.617188 C 8.910156 42.007812 17.332031 50.429688 27.71875 50.429688 C 38.113281 50.429688 46.53125 42.007812 46.53125 31.617188 C 46.53125 21.226562 38.113281 12.804688 27.71875 12.804688 C 17.332031 12.804688 8.910156 21.226562 8.910156 31.617188 "/>
</clipPath>
<clipPath id="clip17">
  <path d="M 8 16 L 47 16 L 47 17 L 8 17 Z M 8 16 "/>
</clipPath>
<clipPath id="clip18">
  <path d="M 8.910156 31.617188 C 8.910156 42.007812 17.332031 50.429688 27.71875 50.429688 C 38.113281 50.429688 46.53125 42.007812 46.53125 31.617188 C 46.53125 21.226562 38.113281 12.804688 27.71875 12.804688 C 17.332031 12.804688 8.910156 21.226562 8.910156 31.617188 "/>
</clipPath>
<clipPath id="clip19">
  <path d="M 8 16 L 47 16 L 47 18 L 8 18 Z M 8 16 "/>
</clipPath>
<clipPath id="clip20">
  <path d="M 8.910156 31.617188 C 8.910156 42.007812 17.332031 50.429688 27.71875 50.429688 C 38.113281 50.429688 46.53125 42.007812 46.53125 31.617188 C 46.53125 21.226562 38.113281 12.804688 27.71875 12.804688 C 17.332031 12.804688 8.910156 21.226562 8.910156 31.617188 "/>
</clipPath>
<clipPath id="clip21">
  <path d="M 8 17 L 47 17 L 47 18 L 8 18 Z M 8 17 "/>
</clipPath>
<clipPath id="clip22">
  <path d="M 8.910156 31.617188 C 8.910156 42.007812 17.332031 50.429688 27.71875 50.429688 C 38.113281 50.429688 46.53125 42.007812 46.53125 31.617188 C 46.53125 21.226562 38.113281 12.804688 27.71875 12.804688 C 17.332031 12.804688 8.910156 21.226562 8.910156 31.617188 "/>
</clipPath>
<clipPath id="clip23">
  <path d="M 8 17 L 47 17 L 47 19 L 8 19 Z M 8 17 "/>
</clipPath>
<clipPath id="clip24">
  <path d="M 8.910156 31.617188 C 8.910156 42.007812 17.332031 50.429688 27.71875 50.429688 C 38.113281 50.429688 46.53125 42.007812 46.53125 31.617188 C 46.53125 21.226562 38.113281 12.804688 27.71875 12.804688 C 17.332031 12.804688 8.910156 21.226562 8.910156 31.617188 "/>
</clipPath>
<clipPath id="clip25">
  <path d="M 8 18 L 47 18 L 47 19 L 8 19 Z M 8 18 "/>
</clipPath>
<clipPath id="clip26">
  <path d="M 8.910156 31.617188 C 8.910156 42.007812 17.332031 50.429688 27.71875 50.429688 C 38.113281 50.429688 46.53125 42.007812 46.53125 31.617188 C 46.53125 21.226562 38.113281 12.804688 27.71875 12.804688 C 17.332031 12.804688 8.910156 21.226562 8.910156 31.617188 "/>
</clipPath>
<clipPath id="clip27">
  <path d="M 8 18 L 47 18 L 47 20 L 8 20 Z M 8 18 "/>
</clipPath>
<clipPath id="clip28">
  <path d="M 8.910156 31.617188 C 8.910156 42.007812 17.332031 50.429688 27.71875 50.429688 C 38.113281 50.429688 46.53125 42.007812 46.53125 31.617188 C 46.53125 21.226562 38.113281 12.804688 27.71875 12.804688 C 17.332031 12.804688 8.910156 21.226562 8.910156 31.617188 "/>
</clipPath>
<clipPath id="clip29">
  <path d="M 8 19 L 47 19 L 47 20 L 8 20 Z M 8 19 "/>
</clipPath>
<clipPath id="clip30">
  <path d="M 8.910156 31.617188 C 8.910156 42.007812 17.332031 50.429688 27.71875 50.429688 C 38.113281 50.429688 46.53125 42.007812 46.53125 31.617188 C 46.53125 21.226562 38.113281 12.804688 27.71875 12.804688 C 17.332031 12.804688 8.910156 21.226562 8.910156 31.617188 "/>
</clipPath>
<clipPath id="clip31">
  <path d="M 8 19 L 47 19 L 47 21 L 8 21 Z M 8 19 "/>
</clipPath>
<clipPath id="clip32">
  <path d="M 8.910156 31.617188 C 8.910156 42.007812 17.332031 50.429688 27.71875 50.429688 C 38.113281 50.429688 46.53125 42.007812 46.53125 31.617188 C 46.53125 21.226562 38.113281 12.804688 27.71875 12.804688 C 17.332031 12.804688 8.910156 21.226562 8.910156 31.617188 "/>
</clipPath>
<clipPath id="clip33">
  <path d="M 8 20 L 47 20 L 47 21 L 8 21 Z M 8 20 "/>
</clipPath>
<clipPath id="clip34">
  <path d="M 8.910156 31.617188 C 8.910156 42.007812 17.332031 50.429688 27.71875 50.429688 C 38.113281 50.429688 46.53125 42.007812 46.53125 31.617188 C 46.53125 21.226562 38.113281 12.804688 27.71875 12.804688 C 17.332031 12.804688 8.910156 21.226562 8.910156 31.617188 "/>
</clipPath>
<clipPath id="clip35">
  <path d="M 8 21 L 47 21 L 47 22 L 8 22 Z M 8 21 "/>
</clipPath>
<clipPath id="clip36">
  <path d="M 8.910156 31.617188 C 8.910156 42.007812 17.332031 50.429688 27.71875 50.429688 C 38.113281 50.429688 46.53125 42.007812 46.53125 31.617188 C 46.53125 21.226562 38.113281 12.804688 27.71875 12.804688 C 17.332031 12.804688 8.910156 21.226562 8.910156 31.617188 "/>
</clipPath>
<clipPath id="clip37">
  <path d="M 8 22 L 47 22 L 47 23 L 8 23 Z M 8 22 "/>
</clipPath>
<clipPath id="clip38">
  <path d="M 8.910156 31.617188 C 8.910156 42.007812 17.332031 50.429688 27.71875 50.429688 C 38.113281 50.429688 46.53125 42.007812 46.53125 31.617188 C 46.53125 21.226562 38.113281 12.804688 27.71875 12.804688 C 17.332031 12.804688 8.910156 21.226562 8.910156 31.617188 "/>
</clipPath>
<clipPath id="clip39">
  <path d="M 8 50 L 47 50 L 47 51 L 8 51 Z M 8 50 "/>
</clipPath>
<clipPath id="clip40">
  <path d="M 8.910156 31.617188 C 8.910156 42.007812 17.332031 50.429688 27.71875 50.429688 C 38.113281 50.429688 46.53125 42.007812 46.53125 31.617188 C 46.53125 21.226562 38.113281 12.804688 27.71875 12.804688 C 17.332031 12.804688 8.910156 21.226562 8.910156 31.617188 "/>
</clipPath>
<clipPath id="clip41">
  <path d="M 8 49 L 47 49 L 47 50 L 8 50 Z M 8 49 "/>
</clipPath>
<clipPath id="clip42">
  <path d="M 8.910156 31.617188 C 8.910156 42.007812 17.332031 50.429688 27.71875 50.429688 C 38.113281 50.429688 46.53125 42.007812 46.53125 31.617188 C 46.53125 21.226562 38.113281 12.804688 27.71875 12.804688 C 17.332031 12.804688 8.910156 21.226562 8.910156 31.617188 "/>
</clipPath>
<clipPath id="clip43">
  <path d="M 8 48 L 47 48 L 47 49 L 8 49 Z M 8 48 "/>
</clipPath>
<clipPath id="clip44">
  <path d="M 8.910156 31.617188 C 8.910156 42.007812 17.332031 50.429688 27.71875 50.429688 C 38.113281 50.429688 46.53125 42.007812 46.53125 31.617188 C 46.53125 21.226562 38.113281 12.804688 27.71875 12.804688 C 17.332031 12.804688 8.910156 21.226562 8.910156 31.617188 "/>
</clipPath>
<clipPath id="clip45">
  <path d="M 8 47 L 47 47 L 47 49 L 8 49 Z M 8 47 "/>
</clipPath>
<clipPath id="clip46">
  <path d="M 8.910156 31.617188 C 8.910156 42.007812 17.332031 50.429688 27.71875 50.429688 C 38.113281 50.429688 46.53125 42.007812 46.53125 31.617188 C 46.53125 21.226562 38.113281 12.804688 27.71875 12.804688 C 17.332031 12.804688 8.910156 21.226562 8.910156 31.617188 "/>
</clipPath>
<clipPath id="clip47">
  <path d="M 8 47 L 47 47 L 47 48 L 8 48 Z M 8 47 "/>
</clipPath>
<clipPath id="clip48">
  <path d="M 8.910156 31.617188 C 8.910156 42.007812 17.332031 50.429688 27.71875 50.429688 C 38.113281 50.429688 46.53125 42.007812 46.53125 31.617188 C 46.53125 21.226562 38.113281 12.804688 27.71875 12.804688 C 17.332031 12.804688 8.910156 21.226562 8.910156 31.617188 "/>
</clipPath>
<clipPath id="clip49">
  <path d="M 8 46 L 47 46 L 47 48 L 8 48 Z M 8 46 "/>
</clipPath>
<clipPath id="clip50">
  <path d="M 8.910156 31.617188 C 8.910156 42.007812 17.332031 50.429688 27.71875 50.429688 C 38.113281 50.429688 46.53125 42.007812 46.53125 31.617188 C 46.53125 21.226562 38.113281 12.804688 27.71875 12.804688 C 17.332031 12.804688 8.910156 21.226562 8.910156 31.617188 "/>
</clipPath>
<clipPath id="clip51">
  <path d="M 8 46 L 47 46 L 47 47 L 8 47 Z M 8 46 "/>
</clipPath>
<clipPath id="clip52">
  <path d="M 8.910156 31.617188 C 8.910156 42.007812 17.332031 50.429688 27.71875 50.429688 C 38.113281 50.429688 46.53125 42.007812 46.53125 31.617188 C 46.53125 21.226562 38.113281 12.804688 27.71875 12.804688 C 17.332031 12.804688 8.910156 21.226562 8.910156 31.617188 "/>
</clipPath>
<clipPath id="clip53">
  <path d="M 8 45 L 47 45 L 47 46 L 8 46 Z M 8 45 "/>
</clipPath>
<clipPath id="clip54">
  <path d="M 8.910156 31.617188 C 8.910156 42.007812 17.332031 50.429688 27.71875 50.429688 C 38.113281 50.429688 46.53125 42.007812 46.53125 31.617188 C 46.53125 21.226562 38.113281 12.804688 27.71875 12.804688 C 17.332031 12.804688 8.910156 21.226562 8.910156 31.617188 "/>
</clipPath>
<clipPath id="clip55">
  <path d="M 8 44 L 47 44 L 47 45 L 8 45 Z M 8 44 "/>
</clipPath>
<clipPath id="clip56">
  <path d="M 8.910156 31.617188 C 8.910156 42.007812 17.332031 50.429688 27.71875 50.429688 C 38.113281 50.429688 46.53125 42.007812 46.53125 31.617188 C 46.53125 21.226562 38.113281 12.804688 27.71875 12.804688 C 17.332031 12.804688 8.910156 21.226562 8.910156 31.617188 "/>
</clipPath>
<clipPath id="clip57">
  <path d="M 8 43 L 47 43 L 47 44 L 8 44 Z M 8 43 "/>
</clipPath>
<clipPath id="clip58">
  <path d="M 8.910156 31.617188 C 8.910156 42.007812 17.332031 50.429688 27.71875 50.429688 C 38.113281 50.429688 46.53125 42.007812 46.53125 31.617188 C 46.53125 21.226562 38.113281 12.804688 27.71875 12.804688 C 17.332031 12.804688 8.910156 21.226562 8.910156 31.617188 "/>
</clipPath>
<clipPath id="clip59">
  <path d="M 8 42 L 47 42 L 47 44 L 8 44 Z M 8 42 "/>
</clipPath>
<clipPath id="clip60">
  <path d="M 8.910156 31.617188 C 8.910156 42.007812 17.332031 50.429688 27.71875 50.429688 C 38.113281 50.429688 46.53125 42.007812 46.53125 31.617188 C 46.53125 21.226562 38.113281 12.804688 27.71875 12.804688 C 17.332031 12.804688 8.910156 21.226562 8.910156 31.617188 "/>
</clipPath>
<clipPath id="clip61">
  <path d="M 8 42 L 47 42 L 47 43 L 8 43 Z M 8 42 "/>
</clipPath>
<clipPath id="clip62">
  <path d="M 8.910156 31.617188 C 8.910156 42.007812 17.332031 50.429688 27.71875 50.429688 C 38.113281 50.429688 46.53125 42.007812 46.53125 31.617188 C 46.53125 21.226562 38.113281 12.804688 27.71875 12.804688 C 17.332031 12.804688 8.910156 21.226562 8.910156 31.617188 "/>
</clipPath>
<clipPath id="clip63">
  <path d="M 8 41 L 47 41 L 47 43 L 8 43 Z M 8 41 "/>
</clipPath>
<clipPath id="clip64">
  <path d="M 8.910156 31.617188 C 8.910156 42.007812 17.332031 50.429688 27.71875 50.429688 C 38.113281 50.429688 46.53125 42.007812 46.53125 31.617188 C 46.53125 21.226562 38.113281 12.804688 27.71875 12.804688 C 17.332031 12.804688 8.910156 21.226562 8.910156 31.617188 "/>
</clipPath>
<clipPath id="clip65">
  <path d="M 8 41 L 47 41 L 47 42 L 8 42 Z M 8 41 "/>
</clipPath>
<clipPath id="clip66">
  <path d="M 8.910156 31.617188 C 8.910156 42.007812 17.332031 50.429688 27.71875 50.429688 C 38.113281 50.429688 46.53125 42.007812 46.53125 31.617188 C 46.53125 21.226562 38.113281 12.804688 27.71875 12.804688 C 17.332031 12.804688 8.910156 21.226562 8.910156 31.617188 "/>
</clipPath>
<clipPath id="clip67">
  <path d="M 8 40 L 47 40 L 47 41 L 8 41 Z M 8 40 "/>
</clipPath>
<clipPath id="clip68">
  <path d="M 8.910156 31.617188 C 8.910156 42.007812 17.332031 50.429688 27.71875 50.429688 C 38.113281 50.429688 46.53125 42.007812 46.53125 31.617188 C 46.53125 21.226562 38.113281 12.804688 27.71875 12.804688 C 17.332031 12.804688 8.910156 21.226562 8.910156 31.617188 "/>
</clipPath>
<clipPath id="clip69">
  <path d="M 8 39 L 47 39 L 47 40 L 8 40 Z M 8 39 "/>
</clipPath>
<clipPath id="clip70">
  <path d="M 8.910156 31.617188 C 8.910156 42.007812 17.332031 50.429688 27.71875 50.429688 C 38.113281 50.429688 46.53125 42.007812 46.53125 31.617188 C 46.53125 21.226562 38.113281 12.804688 27.71875 12.804688 C 17.332031 12.804688 8.910156 21.226562 8.910156 31.617188 "/>
</clipPath>
<clipPath id="clip71">
  <path d="M 8 38 L 47 38 L 47 39 L 8 39 Z M 8 38 "/>
</clipPath>
<clipPath id="clip72">
  <path d="M 8.910156 31.617188 C 8.910156 42.007812 17.332031 50.429688 27.71875 50.429688 C 38.113281 50.429688 46.53125 42.007812 46.53125 31.617188 C 46.53125 21.226562 38.113281 12.804688 27.71875 12.804688 C 17.332031 12.804688 8.910156 21.226562 8.910156 31.617188 "/>
</clipPath>
<clipPath id="clip73">
  <path d="M 8 37 L 47 37 L 47 39 L 8 39 Z M 8 37 "/>
</clipPath>
<clipPath id="clip74">
  <path d="M 8.910156 31.617188 C 8.910156 42.007812 17.332031 50.429688 27.71875 50.429688 C 38.113281 50.429688 46.53125 42.007812 46.53125 31.617188 C 46.53125 21.226562 38.113281 12.804688 27.71875 12.804688 C 17.332031 12.804688 8.910156 21.226562 8.910156 31.617188 "/>
</clipPath>
<clipPath id="clip75">
  <path d="M 8 37 L 47 37 L 47 38 L 8 38 Z M 8 37 "/>
</clipPath>
<clipPath id="clip76">
  <path d="M 8.910156 31.617188 C 8.910156 42.007812 17.332031 50.429688 27.71875 50.429688 C 38.113281 50.429688 46.53125 42.007812 46.53125 31.617188 C 46.53125 21.226562 38.113281 12.804688 27.71875 12.804688 C 17.332031 12.804688 8.910156 21.226562 8.910156 31.617188 "/>
</clipPath>
<clipPath id="clip77">
  <path d="M 8 36 L 47 36 L 47 38 L 8 38 Z M 8 36 "/>
</clipPath>
<clipPath id="clip78">
  <path d="M 8.910156 31.617188 C 8.910156 42.007812 17.332031 50.429688 27.71875 50.429688 C 38.113281 50.429688 46.53125 42.007812 46.53125 31.617188 C 46.53125 21.226562 38.113281 12.804688 27.71875 12.804688 C 17.332031 12.804688 8.910156 21.226562 8.910156 31.617188 "/>
</clipPath>
<clipPath id="clip79">
  <path d="M 8 36 L 47 36 L 47 37 L 8 37 Z M 8 36 "/>
</clipPath>
<clipPath id="clip80">
  <path d="M 8.910156 31.617188 C 8.910156 42.007812 17.332031 50.429688 27.71875 50.429688 C 38.113281 50.429688 46.53125 42.007812 46.53125 31.617188 C 46.53125 21.226562 38.113281 12.804688 27.71875 12.804688 C 17.332031 12.804688 8.910156 21.226562 8.910156 31.617188 "/>
</clipPath>
<clipPath id="clip81">
  <path d="M 8 35 L 47 35 L 47 37 L 8 37 Z M 8 35 "/>
</clipPath>
<clipPath id="clip82">
  <path d="M 8.910156 31.617188 C 8.910156 42.007812 17.332031 50.429688 27.71875 50.429688 C 38.113281 50.429688 46.53125 42.007812 46.53125 31.617188 C 46.53125 21.226562 38.113281 12.804688 27.71875 12.804688 C 17.332031 12.804688 8.910156 21.226562 8.910156 31.617188 "/>
</clipPath>
<clipPath id="clip83">
  <path d="M 8 35 L 47 35 L 47 36 L 8 36 Z M 8 35 "/>
</clipPath>
<clipPath id="clip84">
  <path d="M 8.910156 31.617188 C 8.910156 42.007812 17.332031 50.429688 27.71875 50.429688 C 38.113281 50.429688 46.53125 42.007812 46.53125 31.617188 C 46.53125 21.226562 38.113281 12.804688 27.71875 12.804688 C 17.332031 12.804688 8.910156 21.226562 8.910156 31.617188 "/>
</clipPath>
<clipPath id="clip85">
  <path d="M 8 34 L 47 34 L 47 35 L 8 35 Z M 8 34 "/>
</clipPath>
<clipPath id="clip86">
  <path d="M 8.910156 31.617188 C 8.910156 42.007812 17.332031 50.429688 27.71875 50.429688 C 38.113281 50.429688 46.53125 42.007812 46.53125 31.617188 C 46.53125 21.226562 38.113281 12.804688 27.71875 12.804688 C 17.332031 12.804688 8.910156 21.226562 8.910156 31.617188 "/>
</clipPath>
<clipPath id="clip87">
  <path d="M 8 33 L 47 33 L 47 34 L 8 34 Z M 8 33 "/>
</clipPath>
<clipPath id="clip88">
  <path d="M 8.910156 31.617188 C 8.910156 42.007812 17.332031 50.429688 27.71875 50.429688 C 38.113281 50.429688 46.53125 42.007812 46.53125 31.617188 C 46.53125 21.226562 38.113281 12.804688 27.71875 12.804688 C 17.332031 12.804688 8.910156 21.226562 8.910156 31.617188 "/>
</clipPath>
<clipPath id="clip89">
  <path d="M 8 32 L 47 32 L 47 33 L 8 33 Z M 8 32 "/>
</clipPath>
<clipPath id="clip90">
  <path d="M 8.910156 31.617188 C 8.910156 42.007812 17.332031 50.429688 27.71875 50.429688 C 38.113281 50.429688 46.53125 42.007812 46.53125 31.617188 C 46.53125 21.226562 38.113281 12.804688 27.71875 12.804688 C 17.332031 12.804688 8.910156 21.226562 8.910156 31.617188 "/>
</clipPath>
<clipPath id="clip91">
  <path d="M 8 31 L 47 31 L 47 33 L 8 33 Z M 8 31 "/>
</clipPath>
<clipPath id="clip92">
  <path d="M 8.910156 31.617188 C 8.910156 42.007812 17.332031 50.429688 27.71875 50.429688 C 38.113281 50.429688 46.53125 42.007812 46.53125 31.617188 C 46.53125 21.226562 38.113281 12.804688 27.71875 12.804688 C 17.332031 12.804688 8.910156 21.226562 8.910156 31.617188 "/>
</clipPath>
<clipPath id="clip93">
  <path d="M 8 31 L 47 31 L 47 32 L 8 32 Z M 8 31 "/>
</clipPath>
<clipPath id="clip94">
  <path d="M 8.910156 31.617188 C 8.910156 42.007812 17.332031 50.429688 27.71875 50.429688 C 38.113281 50.429688 46.53125 42.007812 46.53125 31.617188 C 46.53125 21.226562 38.113281 12.804688 27.71875 12.804688 C 17.332031 12.804688 8.910156 21.226562 8.910156 31.617188 "/>
</clipPath>
<clipPath id="clip95">
  <path d="M 8 30 L 47 30 L 47 32 L 8 32 Z M 8 30 "/>
</clipPath>
<clipPath id="clip96">
  <path d="M 8.910156 31.617188 C 8.910156 42.007812 17.332031 50.429688 27.71875 50.429688 C 38.113281 50.429688 46.53125 42.007812 46.53125 31.617188 C 46.53125 21.226562 38.113281 12.804688 27.71875 12.804688 C 17.332031 12.804688 8.910156 21.226562 8.910156 31.617188 "/>
</clipPath>
<clipPath id="clip97">
  <path d="M 8 30 L 47 30 L 47 31 L 8 31 Z M 8 30 "/>
</clipPath>
<clipPath id="clip98">
  <path d="M 8.910156 31.617188 C 8.910156 42.007812 17.332031 50.429688 27.71875 50.429688 C 38.113281 50.429688 46.53125 42.007812 46.53125 31.617188 C 46.53125 21.226562 38.113281 12.804688 27.71875 12.804688 C 17.332031 12.804688 8.910156 21.226562 8.910156 31.617188 "/>
</clipPath>
<clipPath id="clip99">
  <path d="M 8 29 L 47 29 L 47 30 L 8 30 Z M 8 29 "/>
</clipPath>
<clipPath id="clip100">
  <path d="M 8.910156 31.617188 C 8.910156 42.007812 17.332031 50.429688 27.71875 50.429688 C 38.113281 50.429688 46.53125 42.007812 46.53125 31.617188 C 46.53125 21.226562 38.113281 12.804688 27.71875 12.804688 C 17.332031 12.804688 8.910156 21.226562 8.910156 31.617188 "/>
</clipPath>
<clipPath id="clip101">
  <path d="M 8 28 L 47 28 L 47 29 L 8 29 Z M 8 28 "/>
</clipPath>
<clipPath id="clip102">
  <path d="M 8.910156 31.617188 C 8.910156 42.007812 17.332031 50.429688 27.71875 50.429688 C 38.113281 50.429688 46.53125 42.007812 46.53125 31.617188 C 46.53125 21.226562 38.113281 12.804688 27.71875 12.804688 C 17.332031 12.804688 8.910156 21.226562 8.910156 31.617188 "/>
</clipPath>
<clipPath id="clip103">
  <path d="M 8 27 L 47 27 L 47 28 L 8 28 Z M 8 27 "/>
</clipPath>
<clipPath id="clip104">
  <path d="M 8.910156 31.617188 C 8.910156 42.007812 17.332031 50.429688 27.71875 50.429688 C 38.113281 50.429688 46.53125 42.007812 46.53125 31.617188 C 46.53125 21.226562 38.113281 12.804688 27.71875 12.804688 C 17.332031 12.804688 8.910156 21.226562 8.910156 31.617188 "/>
</clipPath>
<clipPath id="clip105">
  <path d="M 8 26 L 47 26 L 47 28 L 8 28 Z M 8 26 "/>
</clipPath>
<clipPath id="clip106">
  <path d="M 8.910156 31.617188 C 8.910156 42.007812 17.332031 50.429688 27.71875 50.429688 C 38.113281 50.429688 46.53125 42.007812 46.53125 31.617188 C 46.53125 21.226562 38.113281 12.804688 27.71875 12.804688 C 17.332031 12.804688 8.910156 21.226562 8.910156 31.617188 "/>
</clipPath>
<clipPath id="clip107">
  <path d="M 8 26 L 47 26 L 47 27 L 8 27 Z M 8 26 "/>
</clipPath>
<clipPath id="clip108">
  <path d="M 8.910156 31.617188 C 8.910156 42.007812 17.332031 50.429688 27.71875 50.429688 C 38.113281 50.429688 46.53125 42.007812 46.53125 31.617188 C 46.53125 21.226562 38.113281 12.804688 27.71875 12.804688 C 17.332031 12.804688 8.910156 21.226562 8.910156 31.617188 "/>
</clipPath>
<clipPath id="clip109">
  <path d="M 8 25 L 47 25 L 47 27 L 8 27 Z M 8 25 "/>
</clipPath>
<clipPath id="clip110">
  <path d="M 8.910156 31.617188 C 8.910156 42.007812 17.332031 50.429688 27.71875 50.429688 C 38.113281 50.429688 46.53125 42.007812 46.53125 31.617188 C 46.53125 21.226562 38.113281 12.804688 27.71875 12.804688 C 17.332031 12.804688 8.910156 21.226562 8.910156 31.617188 "/>
</clipPath>
<clipPath id="clip111">
  <path d="M 8 25 L 47 25 L 47 26 L 8 26 Z M 8 25 "/>
</clipPath>
<clipPath id="clip112">
  <path d="M 8.910156 31.617188 C 8.910156 42.007812 17.332031 50.429688 27.71875 50.429688 C 38.113281 50.429688 46.53125 42.007812 46.53125 31.617188 C 46.53125 21.226562 38.113281 12.804688 27.71875 12.804688 C 17.332031 12.804688 8.910156 21.226562 8.910156 31.617188 "/>
</clipPath>
<clipPath id="clip113">
  <path d="M 8 24 L 47 24 L 47 25 L 8 25 Z M 8 24 "/>
</clipPath>
<clipPath id="clip114">
  <path d="M 8.910156 31.617188 C 8.910156 42.007812 17.332031 50.429688 27.71875 50.429688 C 38.113281 50.429688 46.53125 42.007812 46.53125 31.617188 C 46.53125 21.226562 38.113281 12.804688 27.71875 12.804688 C 17.332031 12.804688 8.910156 21.226562 8.910156 31.617188 "/>
</clipPath>
<clipPath id="clip115">
  <path d="M 8 23 L 47 23 L 47 24 L 8 24 Z M 8 23 "/>
</clipPath>
<clipPath id="clip116">
  <path d="M 8.910156 31.617188 C 8.910156 42.007812 17.332031 50.429688 27.71875 50.429688 C 38.113281 50.429688 46.53125 42.007812 46.53125 31.617188 C 46.53125 21.226562 38.113281 12.804688 27.71875 12.804688 C 17.332031 12.804688 8.910156 21.226562 8.910156 31.617188 "/>
</clipPath>
<clipPath id="clip117">
  <path d="M 8 22 L 47 22 L 47 23 L 8 23 Z M 8 22 "/>
</clipPath>
<clipPath id="clip118">
  <path d="M 8.910156 31.617188 C 8.910156 42.007812 17.332031 50.429688 27.71875 50.429688 C 38.113281 50.429688 46.53125 42.007812 46.53125 31.617188 C 46.53125 21.226562 38.113281 12.804688 27.71875 12.804688 C 17.332031 12.804688 8.910156 21.226562 8.910156 31.617188 "/>
</clipPath>
<clipPath id="clip119">
  <path d="M 8 12 L 47 12 L 47 51 L 8 51 Z M 8 12 "/>
</clipPath>
<clipPath id="clip120">
  <path d="M 46.3125 31.664062 C 46.3125 42.023438 37.910156 50.425781 27.550781 50.425781 C 17.1875 50.425781 8.789062 42.023438 8.789062 31.664062 C 8.789062 21.300781 17.1875 12.902344 27.550781 12.902344 C 37.910156 12.902344 46.3125 21.300781 46.3125 31.664062 Z M 46.3125 31.664062 "/>
</clipPath>
<clipPath id="clip121">
  <path d="M 46.3125 31.664062 C 46.3125 42.023438 37.910156 50.425781 27.550781 50.425781 C 17.1875 50.425781 8.789062 42.023438 8.789062 31.664062 C 8.789062 21.300781 17.1875 12.902344 27.550781 12.902344 C 37.910156 12.902344 46.3125 21.300781 46.3125 31.664062 "/>
</clipPath>
<linearGradient id="linear0" gradientUnits="userSpaceOnUse" x1="-0.00000799514" y1="0" x2="0.999998" y2="0" gradientTransform="matrix(0,37.5228,-37.5228,0,27.55,12.9011)">
<stop offset="0" style="stop-color:rgb(96.078491%,94.064331%,7.798767%);stop-opacity:1;"/>
<stop offset="0.00390625" style="stop-color:rgb(96.176147%,94.068909%,7.295227%);stop-opacity:1;"/>
<stop offset="0.0078125" style="stop-color:rgb(96.272278%,94.073486%,6.791687%);stop-opacity:1;"/>
<stop offset="0.0117187" style="stop-color:rgb(96.368408%,94.07959%,6.288147%);stop-opacity:1;"/>
<stop offset="0.015625" style="stop-color:rgb(96.464539%,94.082642%,5.783081%);stop-opacity:1;"/>
<stop offset="0.0195312" style="stop-color:rgb(96.455383%,93.910217%,5.418396%);stop-opacity:1;"/>
<stop offset="0.0234375" style="stop-color:rgb(96.447754%,93.736267%,5.053711%);stop-opacity:1;"/>
<stop offset="0.0273438" style="stop-color:rgb(96.435547%,93.557739%,4.696655%);stop-opacity:1;"/>
<stop offset="0.03125" style="stop-color:rgb(96.42334%,93.377686%,4.338074%);stop-opacity:1;"/>
<stop offset="0.0351562" style="stop-color:rgb(96.502686%,93.231201%,4.043579%);stop-opacity:1;"/>
<stop offset="0.0390625" style="stop-color:rgb(96.582031%,93.081665%,3.749084%);stop-opacity:1;"/>
<stop offset="0.0429687" style="stop-color:rgb(96.665955%,92.936707%,3.459167%);stop-opacity:1;"/>
<stop offset="0.046875" style="stop-color:rgb(96.749878%,92.790222%,3.16925%);stop-opacity:1;"/>
<stop offset="0.0507812" style="stop-color:rgb(96.740723%,92.555237%,3.088379%);stop-opacity:1;"/>
<stop offset="0.0546875" style="stop-color:rgb(96.733093%,92.320251%,3.007507%);stop-opacity:1;"/>
<stop offset="0.0585938" style="stop-color:rgb(96.714783%,92.074585%,2.949524%);stop-opacity:1;"/>
<stop offset="0.0625" style="stop-color:rgb(96.696472%,91.830444%,2.891541%);stop-opacity:1;"/>
<stop offset="0.0664062" style="stop-color:rgb(96.763611%,91.607666%,2.726746%);stop-opacity:1;"/>
<stop offset="0.0703125" style="stop-color:rgb(96.829224%,91.383362%,2.561951%);stop-opacity:1;"/>
<stop offset="0.0742187" style="stop-color:rgb(96.905518%,91.160583%,2.383423%);stop-opacity:1;"/>
<stop offset="0.078125" style="stop-color:rgb(96.983337%,90.939331%,2.204895%);stop-opacity:1;"/>
<stop offset="0.0820312" style="stop-color:rgb(97.05658%,90.658569%,2.194214%);stop-opacity:1;"/>
<stop offset="0.0859375" style="stop-color:rgb(97.128296%,90.376282%,2.185059%);stop-opacity:1;"/>
<stop offset="0.0898437" style="stop-color:rgb(97.198486%,90.081787%,2.206421%);stop-opacity:1;"/>
<stop offset="0.09375" style="stop-color:rgb(97.268677%,89.788818%,2.227783%);stop-opacity:1;"/>
<stop offset="0.0976562" style="stop-color:rgb(97.261047%,89.46991%,2.198792%);stop-opacity:1;"/>
<stop offset="0.101562" style="stop-color:rgb(97.254944%,89.149475%,2.168274%);stop-opacity:1;"/>
<stop offset="0.105469" style="stop-color:rgb(97.23053%,88.825989%,2.127075%);stop-opacity:1;"/>
<stop offset="0.109375" style="stop-color:rgb(97.206116%,88.500977%,2.087402%);stop-opacity:1;"/>
<stop offset="0.113281" style="stop-color:rgb(97.186279%,88.240051%,2.037048%);stop-opacity:1;"/>
<stop offset="0.117188" style="stop-color:rgb(97.166443%,87.9776%,1.986694%);stop-opacity:1;"/>
<stop offset="0.121094" style="stop-color:rgb(97.148132%,87.733459%,1.934814%);stop-opacity:1;"/>
<stop offset="0.125" style="stop-color:rgb(97.129822%,87.489319%,1.882935%);stop-opacity:1;"/>
<stop offset="0.128906" style="stop-color:rgb(97.105408%,87.188721%,1.908875%);stop-opacity:1;"/>
<stop offset="0.132812" style="stop-color:rgb(97.08252%,86.886597%,1.933289%);stop-opacity:1;"/>
<stop offset="0.136719" style="stop-color:rgb(97.058105%,86.567688%,1.985168%);stop-opacity:1;"/>
<stop offset="0.140625" style="stop-color:rgb(97.033691%,86.247253%,2.038574%);stop-opacity:1;"/>
<stop offset="0.144531" style="stop-color:rgb(97.013855%,85.984802%,2.081299%);stop-opacity:1;"/>
<stop offset="0.148437" style="stop-color:rgb(96.992493%,85.720825%,2.124023%);stop-opacity:1;"/>
<stop offset="0.152344" style="stop-color:rgb(96.974182%,85.481262%,2.163696%);stop-opacity:1;"/>
<stop offset="0.15625" style="stop-color:rgb(96.955872%,85.240173%,2.203369%);stop-opacity:1;"/>
<stop offset="0.160156" style="stop-color:rgb(96.998596%,84.963989%,2.293396%);stop-opacity:1;"/>
<stop offset="0.164062" style="stop-color:rgb(97.038269%,84.687805%,2.383423%);stop-opacity:1;"/>
<stop offset="0.167969" style="stop-color:rgb(97.106934%,84.394836%,2.497864%);stop-opacity:1;"/>
<stop offset="0.171875" style="stop-color:rgb(97.174072%,84.101868%,2.610779%);stop-opacity:1;"/>
<stop offset="0.175781" style="stop-color:rgb(97.181702%,83.790588%,2.685547%);stop-opacity:1;"/>
<stop offset="0.179687" style="stop-color:rgb(97.189331%,83.477783%,2.758789%);stop-opacity:1;"/>
<stop offset="0.183594" style="stop-color:rgb(97.163391%,83.157349%,2.810669%);stop-opacity:1;"/>
<stop offset="0.1875" style="stop-color:rgb(97.138977%,82.835388%,2.862549%);stop-opacity:1;"/>
<stop offset="0.191406" style="stop-color:rgb(97.117615%,82.563782%,2.905273%);stop-opacity:1;"/>
<stop offset="0.195312" style="stop-color:rgb(97.096252%,82.292175%,2.949524%);stop-opacity:1;"/>
<stop offset="0.199219" style="stop-color:rgb(97.077942%,82.051086%,2.989197%);stop-opacity:1;"/>
<stop offset="0.203125" style="stop-color:rgb(97.058105%,81.809998%,3.027344%);stop-opacity:1;"/>
<stop offset="0.207031" style="stop-color:rgb(97.036743%,81.523132%,3.074646%);stop-opacity:1;"/>
<stop offset="0.210937" style="stop-color:rgb(97.013855%,81.234741%,3.120422%);stop-opacity:1;"/>
<stop offset="0.214844" style="stop-color:rgb(96.987915%,80.914307%,3.172302%);stop-opacity:1;"/>
<stop offset="0.21875" style="stop-color:rgb(96.963501%,80.592346%,3.224182%);stop-opacity:1;"/>
<stop offset="0.222656" style="stop-color:rgb(96.994019%,80.326843%,3.205872%);stop-opacity:1;"/>
<stop offset="0.226562" style="stop-color:rgb(97.02301%,80.06134%,3.187561%);stop-opacity:1;"/>
<stop offset="0.230469" style="stop-color:rgb(97.096252%,79.840088%,3.114319%);stop-opacity:1;"/>
<stop offset="0.234375" style="stop-color:rgb(97.167969%,79.618835%,3.042603%);stop-opacity:1;"/>
<stop offset="0.238281" style="stop-color:rgb(97.189331%,79.345703%,3.08075%);stop-opacity:1;"/>
<stop offset="0.242188" style="stop-color:rgb(97.210693%,79.074097%,3.118896%);stop-opacity:1;"/>
<stop offset="0.246094" style="stop-color:rgb(97.184753%,78.753662%,3.256226%);stop-opacity:1;"/>
<stop offset="0.25" style="stop-color:rgb(97.158813%,78.434753%,3.393555%);stop-opacity:1;"/>
<stop offset="0.253906" style="stop-color:rgb(97.135925%,78.152466%,3.485107%);stop-opacity:1;"/>
<stop offset="0.257812" style="stop-color:rgb(97.114563%,77.871704%,3.573608%);stop-opacity:1;"/>
<stop offset="0.261719" style="stop-color:rgb(97.094727%,77.629089%,3.611755%);stop-opacity:1;"/>
<stop offset="0.265625" style="stop-color:rgb(97.076416%,77.388%,3.651428%);stop-opacity:1;"/>
<stop offset="0.269531" style="stop-color:rgb(97.053528%,77.110291%,3.697205%);stop-opacity:1;"/>
<stop offset="0.273437" style="stop-color:rgb(97.032166%,76.832581%,3.741455%);stop-opacity:1;"/>
<stop offset="0.277344" style="stop-color:rgb(97.006226%,76.51062%,3.793335%);stop-opacity:1;"/>
<stop offset="0.28125" style="stop-color:rgb(96.980286%,76.18866%,3.846741%);stop-opacity:1;"/>
<stop offset="0.285156" style="stop-color:rgb(96.916199%,75.857544%,3.874207%);stop-opacity:1;"/>
<stop offset="0.289062" style="stop-color:rgb(96.852112%,75.526428%,3.900146%);stop-opacity:1;"/>
<stop offset="0.292969" style="stop-color:rgb(96.737671%,75.184631%,3.894043%);stop-opacity:1;"/>
<stop offset="0.296875" style="stop-color:rgb(96.621704%,74.841309%,3.889465%);stop-opacity:1;"/>
<stop offset="0.300781" style="stop-color:rgb(96.578979%,74.516296%,3.898621%);stop-opacity:1;"/>
<stop offset="0.304687" style="stop-color:rgb(96.534729%,74.189758%,3.904724%);stop-opacity:1;"/>
<stop offset="0.308594" style="stop-color:rgb(96.598816%,73.887634%,3.933716%);stop-opacity:1;"/>
<stop offset="0.3125" style="stop-color:rgb(96.662903%,73.58551%,3.961182%);stop-opacity:1;"/>
<stop offset="0.316406" style="stop-color:rgb(96.694946%,73.275757%,3.999329%);stop-opacity:1;"/>
<stop offset="0.320312" style="stop-color:rgb(96.725464%,72.967529%,4.03595%);stop-opacity:1;"/>
<stop offset="0.324219" style="stop-color:rgb(96.699524%,72.645569%,4.089355%);stop-opacity:1;"/>
<stop offset="0.328125" style="stop-color:rgb(96.673584%,72.323608%,4.142761%);stop-opacity:1;"/>
<stop offset="0.332031" style="stop-color:rgb(96.650696%,72.029114%,4.191589%);stop-opacity:1;"/>
<stop offset="0.335938" style="stop-color:rgb(96.627808%,71.734619%,4.240417%);stop-opacity:1;"/>
<stop offset="0.339844" style="stop-color:rgb(96.607971%,71.49353%,4.28009%);stop-opacity:1;"/>
<stop offset="0.34375" style="stop-color:rgb(96.589661%,71.252441%,4.319763%);stop-opacity:1;"/>
<stop offset="0.347656" style="stop-color:rgb(96.568298%,70.986938%,4.364014%);stop-opacity:1;"/>
<stop offset="0.351562" style="stop-color:rgb(96.546936%,70.721436%,4.406738%);stop-opacity:1;"/>
<stop offset="0.355469" style="stop-color:rgb(96.520996%,70.399475%,4.460144%);stop-opacity:1;"/>
<stop offset="0.359375" style="stop-color:rgb(96.496582%,70.077515%,4.51355%);stop-opacity:1;"/>
<stop offset="0.363281" style="stop-color:rgb(96.496582%,69.78302%,4.556274%);stop-opacity:1;"/>
<stop offset="0.367188" style="stop-color:rgb(96.496582%,69.487%,4.598999%);stop-opacity:1;"/>
<stop offset="0.371094" style="stop-color:rgb(96.565247%,69.264221%,4.615784%);stop-opacity:1;"/>
<stop offset="0.375" style="stop-color:rgb(96.633911%,69.039917%,4.632568%);stop-opacity:1;"/>
<stop offset="0.378906" style="stop-color:rgb(96.679688%,68.791199%,4.658508%);stop-opacity:1;"/>
<stop offset="0.382812" style="stop-color:rgb(96.725464%,68.544006%,4.682922%);stop-opacity:1;"/>
<stop offset="0.386719" style="stop-color:rgb(96.699524%,68.22052%,4.737854%);stop-opacity:1;"/>
<stop offset="0.390625" style="stop-color:rgb(96.673584%,67.89856%,4.79126%);stop-opacity:1;"/>
<stop offset="0.394531" style="stop-color:rgb(96.630859%,67.590332%,4.846191%);stop-opacity:1;"/>
<stop offset="0.398437" style="stop-color:rgb(96.589661%,67.280579%,4.901123%);stop-opacity:1;"/>
<stop offset="0.402344" style="stop-color:rgb(96.482849%,67.024231%,4.963684%);stop-opacity:1;"/>
<stop offset="0.40625" style="stop-color:rgb(96.376038%,66.766357%,5.027771%);stop-opacity:1;"/>
<stop offset="0.410156" style="stop-color:rgb(96.299744%,66.514587%,5.081177%);stop-opacity:1;"/>
<stop offset="0.414062" style="stop-color:rgb(96.22345%,66.262817%,5.136108%);stop-opacity:1;"/>
<stop offset="0.417969" style="stop-color:rgb(96.292114%,66.038513%,5.152893%);stop-opacity:1;"/>
<stop offset="0.421875" style="stop-color:rgb(96.359253%,65.812683%,5.171204%);stop-opacity:1;"/>
<stop offset="0.425781" style="stop-color:rgb(96.412659%,65.571594%,5.194092%);stop-opacity:1;"/>
<stop offset="0.429687" style="stop-color:rgb(96.46759%,65.332031%,5.21698%);stop-opacity:1;"/>
<stop offset="0.433594" style="stop-color:rgb(96.44165%,65.010071%,5.270386%);stop-opacity:1;"/>
<stop offset="0.4375" style="stop-color:rgb(96.41571%,64.68811%,5.323792%);stop-opacity:1;"/>
<stop offset="0.441406" style="stop-color:rgb(96.400452%,64.375305%,5.37262%);stop-opacity:1;"/>
<stop offset="0.445312" style="stop-color:rgb(96.383667%,64.064026%,5.422974%);stop-opacity:1;"/>
<stop offset="0.449219" style="stop-color:rgb(96.452332%,63.838196%,5.439758%);stop-opacity:1;"/>
<stop offset="0.453125" style="stop-color:rgb(96.517944%,63.61084%,5.458069%);stop-opacity:1;"/>
<stop offset="0.457031" style="stop-color:rgb(96.577454%,63.381958%,5.479431%);stop-opacity:1;"/>
<stop offset="0.460937" style="stop-color:rgb(96.636963%,63.153076%,5.499268%);stop-opacity:1;"/>
<stop offset="0.464844" style="stop-color:rgb(96.617126%,62.911987%,5.53894%);stop-opacity:1;"/>
<stop offset="0.46875" style="stop-color:rgb(96.59729%,62.669373%,5.580139%);stop-opacity:1;"/>
<stop offset="0.472656" style="stop-color:rgb(96.582031%,62.423706%,5.619812%);stop-opacity:1;"/>
<stop offset="0.476562" style="stop-color:rgb(96.565247%,62.17804%,5.659485%);stop-opacity:1;"/>
<stop offset="0.480469" style="stop-color:rgb(96.626282%,61.868286%,5.691528%);stop-opacity:1;"/>
<stop offset="0.484375" style="stop-color:rgb(96.684265%,61.558533%,5.723572%);stop-opacity:1;"/>
<stop offset="0.488281" style="stop-color:rgb(96.742249%,61.248779%,5.757141%);stop-opacity:1;"/>
<stop offset="0.492187" style="stop-color:rgb(96.798706%,60.939026%,5.79071%);stop-opacity:1;"/>
<stop offset="0.496094" style="stop-color:rgb(96.772766%,60.61554%,5.844116%);stop-opacity:1;"/>
<stop offset="0.5" style="stop-color:rgb(96.7453%,60.292053%,5.899048%);stop-opacity:1;"/>
<stop offset="0.503906" style="stop-color:rgb(96.71936%,59.968567%,5.952454%);stop-opacity:1;"/>
<stop offset="0.507812" style="stop-color:rgb(96.691895%,59.645081%,6.007385%);stop-opacity:1;"/>
<stop offset="0.511719" style="stop-color:rgb(96.672058%,59.402466%,6.048584%);stop-opacity:1;"/>
<stop offset="0.515625" style="stop-color:rgb(96.652222%,59.158325%,6.088257%);stop-opacity:1;"/>
<stop offset="0.519531" style="stop-color:rgb(96.630859%,58.91571%,6.129456%);stop-opacity:1;"/>
<stop offset="0.523438" style="stop-color:rgb(96.611023%,58.673096%,6.170654%);stop-opacity:1;"/>
<stop offset="0.527344" style="stop-color:rgb(96.591187%,58.432007%,6.210327%);stop-opacity:1;"/>
<stop offset="0.53125" style="stop-color:rgb(96.57135%,58.187866%,6.251526%);stop-opacity:1;"/>
<stop offset="0.535156" style="stop-color:rgb(96.551514%,57.945251%,6.291199%);stop-opacity:1;"/>
<stop offset="0.539062" style="stop-color:rgb(96.530151%,57.702637%,6.332397%);stop-opacity:1;"/>
<stop offset="0.542969" style="stop-color:rgb(96.504211%,57.38678%,6.385803%);stop-opacity:1;"/>
<stop offset="0.546875" style="stop-color:rgb(96.478271%,57.069397%,6.439209%);stop-opacity:1;"/>
<stop offset="0.550781" style="stop-color:rgb(96.450806%,56.747437%,6.492615%);stop-opacity:1;"/>
<stop offset="0.554688" style="stop-color:rgb(96.424866%,56.42395%,6.547546%);stop-opacity:1;"/>
<stop offset="0.558594" style="stop-color:rgb(96.473694%,56.109619%,6.582642%);stop-opacity:1;"/>
<stop offset="0.5625" style="stop-color:rgb(96.520996%,55.795288%,6.619263%);stop-opacity:1;"/>
<stop offset="0.566406" style="stop-color:rgb(96.577454%,55.482483%,6.654358%);stop-opacity:1;"/>
<stop offset="0.570312" style="stop-color:rgb(96.633911%,55.169678%,6.689453%);stop-opacity:1;"/>
<stop offset="0.574219" style="stop-color:rgb(96.62323%,54.916382%,6.729126%);stop-opacity:1;"/>
<stop offset="0.578125" style="stop-color:rgb(96.614075%,54.663086%,6.768799%);stop-opacity:1;"/>
<stop offset="0.582031" style="stop-color:rgb(96.594238%,54.418945%,6.809998%);stop-opacity:1;"/>
<stop offset="0.585938" style="stop-color:rgb(96.572876%,54.176331%,6.851196%);stop-opacity:1;"/>
<stop offset="0.589844" style="stop-color:rgb(96.546936%,53.868103%,6.903076%);stop-opacity:1;"/>
<stop offset="0.59375" style="stop-color:rgb(96.520996%,53.55835%,6.954956%);stop-opacity:1;"/>
<stop offset="0.597656" style="stop-color:rgb(96.49353%,53.233337%,7.009888%);stop-opacity:1;"/>
<stop offset="0.601562" style="stop-color:rgb(96.466064%,52.909851%,7.064819%);stop-opacity:1;"/>
<stop offset="0.605469" style="stop-color:rgb(96.444702%,52.650452%,7.107544%);stop-opacity:1;"/>
<stop offset="0.609375" style="stop-color:rgb(96.42334%,52.389526%,7.151794%);stop-opacity:1;"/>
<stop offset="0.613281" style="stop-color:rgb(96.401978%,52.148438%,7.192993%);stop-opacity:1;"/>
<stop offset="0.617188" style="stop-color:rgb(96.382141%,51.904297%,7.232666%);stop-opacity:1;"/>
<stop offset="0.621094" style="stop-color:rgb(96.356201%,51.599121%,7.284546%);stop-opacity:1;"/>
<stop offset="0.625" style="stop-color:rgb(96.330261%,51.295471%,7.336426%);stop-opacity:1;"/>
<stop offset="0.628906" style="stop-color:rgb(96.304321%,50.970459%,7.389832%);stop-opacity:1;"/>
<stop offset="0.632813" style="stop-color:rgb(96.276855%,50.646973%,7.444763%);stop-opacity:1;"/>
<stop offset="0.636719" style="stop-color:rgb(96.244812%,50.263977%,7.50885%);stop-opacity:1;"/>
<stop offset="0.640625" style="stop-color:rgb(96.211243%,49.879456%,7.574463%);stop-opacity:1;"/>
<stop offset="0.644531" style="stop-color:rgb(96.177673%,49.475098%,7.641602%);stop-opacity:1;"/>
<stop offset="0.648438" style="stop-color:rgb(96.144104%,49.07074%,7.710266%);stop-opacity:1;"/>
<stop offset="0.652344" style="stop-color:rgb(96.115112%,48.722839%,7.76825%);stop-opacity:1;"/>
<stop offset="0.65625" style="stop-color:rgb(96.084595%,48.374939%,7.827759%);stop-opacity:1;"/>
<stop offset="0.660156" style="stop-color:rgb(96.058655%,48.049927%,7.881165%);stop-opacity:1;"/>
<stop offset="0.664063" style="stop-color:rgb(96.031189%,47.72644%,7.936096%);stop-opacity:1;"/>
<stop offset="0.667969" style="stop-color:rgb(96.008301%,47.45636%,7.981873%);stop-opacity:1;"/>
<stop offset="0.671875" style="stop-color:rgb(95.985413%,47.186279%,8.027649%);stop-opacity:1;"/>
<stop offset="0.675781" style="stop-color:rgb(95.965576%,46.943665%,8.067322%);stop-opacity:1;"/>
<stop offset="0.679688" style="stop-color:rgb(95.944214%,46.70105%,8.108521%);stop-opacity:1;"/>
<stop offset="0.683594" style="stop-color:rgb(95.924377%,46.456909%,8.149719%);stop-opacity:1;"/>
<stop offset="0.6875" style="stop-color:rgb(95.903015%,46.214294%,8.190918%);stop-opacity:1;"/>
<stop offset="0.691406" style="stop-color:rgb(95.883179%,45.97168%,8.232117%);stop-opacity:1;"/>
<stop offset="0.695313" style="stop-color:rgb(95.863342%,45.729065%,8.27179%);stop-opacity:1;"/>
<stop offset="0.699219" style="stop-color:rgb(95.837402%,45.436096%,8.322144%);stop-opacity:1;"/>
<stop offset="0.703125" style="stop-color:rgb(95.812988%,45.144653%,8.370972%);stop-opacity:1;"/>
<stop offset="0.707031" style="stop-color:rgb(95.785522%,44.821167%,8.425903%);stop-opacity:1;"/>
<stop offset="0.710938" style="stop-color:rgb(95.759583%,44.496155%,8.479309%);stop-opacity:1;"/>
<stop offset="0.714844" style="stop-color:rgb(95.732117%,44.172668%,8.534241%);stop-opacity:1;"/>
<stop offset="0.71875" style="stop-color:rgb(95.704651%,43.849182%,8.589172%);stop-opacity:1;"/>
<stop offset="0.722656" style="stop-color:rgb(95.677185%,43.52417%,8.642578%);stop-opacity:1;"/>
<stop offset="0.726563" style="stop-color:rgb(95.649719%,43.200684%,8.69751%);stop-opacity:1;"/>
<stop offset="0.730469" style="stop-color:rgb(95.622253%,42.877197%,8.752441%);stop-opacity:1;"/>
<stop offset="0.734375" style="stop-color:rgb(95.594788%,42.553711%,8.807373%);stop-opacity:1;"/>
<stop offset="0.738281" style="stop-color:rgb(95.568848%,42.228699%,8.860779%);stop-opacity:1;"/>
<stop offset="0.742188" style="stop-color:rgb(95.541382%,41.905212%,8.91571%);stop-opacity:1;"/>
<stop offset="0.746094" style="stop-color:rgb(95.52002%,41.662598%,8.956909%);stop-opacity:1;"/>
<stop offset="0.75" style="stop-color:rgb(95.500183%,41.421509%,8.996582%);stop-opacity:1;"/>
<stop offset="0.757812" style="stop-color:rgb(95.48645%,41.259766%,9.024048%);stop-opacity:1;"/>
<stop offset="0.761719" style="stop-color:rgb(95.452881%,40.858459%,9.091187%);stop-opacity:1;"/>
<stop offset="0.765625" style="stop-color:rgb(95.433044%,40.618896%,9.132385%);stop-opacity:1;"/>
<stop offset="0.769531" style="stop-color:rgb(95.405579%,40.29541%,9.187317%);stop-opacity:1;"/>
<stop offset="0.773437" style="stop-color:rgb(95.378113%,39.971924%,9.240723%);stop-opacity:1;"/>
<stop offset="0.777344" style="stop-color:rgb(95.353699%,39.683533%,9.289551%);stop-opacity:1;"/>
<stop offset="0.78125" style="stop-color:rgb(95.329285%,39.395142%,9.338379%);stop-opacity:1;"/>
<stop offset="0.785156" style="stop-color:rgb(95.309448%,39.152527%,9.379578%);stop-opacity:1;"/>
<stop offset="0.789062" style="stop-color:rgb(95.289612%,38.909912%,9.41925%);stop-opacity:1;"/>
<stop offset="0.792969" style="stop-color:rgb(95.26825%,38.667297%,9.460449%);stop-opacity:1;"/>
<stop offset="0.796875" style="stop-color:rgb(95.248413%,38.423157%,9.501648%);stop-opacity:1;"/>
<stop offset="0.800781" style="stop-color:rgb(95.227051%,38.180542%,9.542847%);stop-opacity:1;"/>
<stop offset="0.804687" style="stop-color:rgb(95.207214%,37.937927%,9.58252%);stop-opacity:1;"/>
<stop offset="0.808594" style="stop-color:rgb(95.184326%,37.663269%,9.629822%);stop-opacity:1;"/>
<stop offset="0.8125" style="stop-color:rgb(95.161438%,37.390137%,9.675598%);stop-opacity:1;"/>
<stop offset="0.816406" style="stop-color:rgb(95.133972%,37.06665%,9.73053%);stop-opacity:1;"/>
<stop offset="0.820312" style="stop-color:rgb(95.106506%,36.741638%,9.783936%);stop-opacity:1;"/>
<stop offset="0.824219" style="stop-color:rgb(95.082092%,36.445618%,9.83429%);stop-opacity:1;"/>
<stop offset="0.828125" style="stop-color:rgb(95.056152%,36.151123%,9.884644%);stop-opacity:1;"/>
<stop offset="0.832031" style="stop-color:rgb(95.036316%,35.908508%,9.924316%);stop-opacity:1;"/>
<stop offset="0.835937" style="stop-color:rgb(95.016479%,35.664368%,9.965515%);stop-opacity:1;"/>
<stop offset="0.839844" style="stop-color:rgb(94.995117%,35.421753%,10.006714%);stop-opacity:1;"/>
<stop offset="0.84375" style="stop-color:rgb(94.975281%,35.179138%,10.047913%);stop-opacity:1;"/>
<stop offset="0.847656" style="stop-color:rgb(94.955444%,34.936523%,10.087585%);stop-opacity:1;"/>
<stop offset="0.851562" style="stop-color:rgb(94.934082%,34.692383%,10.128784%);stop-opacity:1;"/>
<stop offset="0.855469" style="stop-color:rgb(94.915771%,34.474182%,10.165405%);stop-opacity:1;"/>
<stop offset="0.859375" style="stop-color:rgb(94.897461%,34.254456%,10.203552%);stop-opacity:1;"/>
<stop offset="0.867187" style="stop-color:rgb(94.883728%,34.092712%,10.231018%);stop-opacity:1;"/>
<stop offset="0.871094" style="stop-color:rgb(94.854736%,33.747864%,10.289001%);stop-opacity:1;"/>
<stop offset="0.875" style="stop-color:rgb(94.839478%,33.564758%,10.319519%);stop-opacity:1;"/>
<stop offset="0.878906" style="stop-color:rgb(94.818115%,33.322144%,10.360718%);stop-opacity:1;"/>
<stop offset="0.882812" style="stop-color:rgb(94.798279%,33.078003%,10.400391%);stop-opacity:1;"/>
<stop offset="0.886719" style="stop-color:rgb(94.778442%,32.836914%,10.441589%);stop-opacity:1;"/>
<stop offset="0.890625" style="stop-color:rgb(94.75708%,32.592773%,10.482788%);stop-opacity:1;"/>
<stop offset="0.894531" style="stop-color:rgb(94.737244%,32.350159%,10.523987%);stop-opacity:1;"/>
<stop offset="0.898438" style="stop-color:rgb(94.715881%,32.106018%,10.565186%);stop-opacity:1;"/>
<stop offset="0.902344" style="stop-color:rgb(94.696045%,31.864929%,10.604858%);stop-opacity:1;"/>
<stop offset="0.90625" style="stop-color:rgb(94.676208%,31.620789%,10.646057%);stop-opacity:1;"/>
<stop offset="0.910156" style="stop-color:rgb(94.654846%,31.378174%,10.687256%);stop-opacity:1;"/>
<stop offset="0.914062" style="stop-color:rgb(94.63501%,31.134033%,10.728455%);stop-opacity:1;"/>
<stop offset="0.917969" style="stop-color:rgb(94.613647%,30.879211%,10.771179%);stop-opacity:1;"/>
<stop offset="0.921875" style="stop-color:rgb(94.592285%,30.62439%,10.813904%);stop-opacity:1;"/>
<stop offset="0.925781" style="stop-color:rgb(94.564819%,30.299377%,10.868835%);stop-opacity:1;"/>
<stop offset="0.929688" style="stop-color:rgb(94.537354%,29.975891%,10.922241%);stop-opacity:1;"/>
<stop offset="0.933594" style="stop-color:rgb(94.511414%,29.672241%,10.974121%);stop-opacity:1;"/>
<stop offset="0.9375" style="stop-color:rgb(94.487%,29.368591%,11.024475%);stop-opacity:1;"/>
<stop offset="0.945312" style="stop-color:rgb(94.473267%,29.206848%,11.051941%);stop-opacity:1;"/>
<stop offset="0.953125" style="stop-color:rgb(94.445801%,28.883362%,11.106873%);stop-opacity:1;"/>
<stop offset="0.960938" style="stop-color:rgb(94.418335%,28.559875%,11.161804%);stop-opacity:1;"/>
<stop offset="0.964844" style="stop-color:rgb(94.390869%,28.230286%,11.216736%);stop-opacity:1;"/>
<stop offset="0.96875" style="stop-color:rgb(94.377136%,28.062439%,11.244202%);stop-opacity:1;"/>
<stop offset="0.972656" style="stop-color:rgb(94.355774%,27.819824%,11.2854%);stop-opacity:1;"/>
<stop offset="0.976562" style="stop-color:rgb(94.335938%,27.575684%,11.326599%);stop-opacity:1;"/>
<stop offset="0.980469" style="stop-color:rgb(94.314575%,27.334595%,11.367798%);stop-opacity:1;"/>
<stop offset="0.984375" style="stop-color:rgb(94.294739%,27.090454%,11.408997%);stop-opacity:1;"/>
<stop offset="0.988281" style="stop-color:rgb(94.274902%,26.847839%,11.448669%);stop-opacity:1;"/>
<stop offset="0.992188" style="stop-color:rgb(94.25354%,26.603699%,11.489868%);stop-opacity:1;"/>
<stop offset="0.996094" style="stop-color:rgb(94.233704%,26.36261%,11.531067%);stop-opacity:1;"/>
<stop offset="1" style="stop-color:rgb(94.212341%,26.118469%,11.572266%);stop-opacity:1;"/>
</linearGradient>
</defs>
<g id="surface1">
<rect x="0" y="0" width="56" height="56" style="fill:rgb(95.666504%,95.776367%,96.775818%);fill-opacity:1;stroke:none;"/>
<g clip-path="url(#clip1)" clip-rule="nonzero">
<g clip-path="url(#clip2)" clip-rule="nonzero">
<path style=" stroke:none;fill-rule:nonzero;fill:rgb(100%,100%,100%);fill-opacity:1;" d="M 47.003906 12.050781 L 7.292969 12.050781 L 7.292969 11.8125 L 47.003906 11.8125 Z M 47.007812 12.558594 L 7.292969 12.558594 L 7.292969 12.324219 L 47.007812 12.324219 Z M 47.003906 50.902344 L 7.292969 50.902344 L 7.292969 50.664062 L 47.003906 50.664062 L 47.003906 50.902344 "/>
</g>
</g>
<g clip-path="url(#clip3)" clip-rule="nonzero">
<g clip-path="url(#clip4)" clip-rule="nonzero">
<path style=" stroke:none;fill-rule:nonzero;fill:rgb(100%,100%,100%);fill-opacity:1;" d="M 47.007812 13.074219 L 7.292969 13.074219 L 7.292969 12.835938 L 47.007812 12.835938 L 47.007812 13.074219 "/>
</g>
</g>
<g clip-path="url(#clip5)" clip-rule="nonzero">
<g clip-path="url(#clip6)" clip-rule="nonzero">
<path style=" stroke:none;fill-rule:nonzero;fill:rgb(100%,100%,100%);fill-opacity:1;" d="M 47.011719 13.582031 L 7.296875 13.582031 L 7.296875 13.347656 L 47.011719 13.347656 L 47.011719 13.582031 "/>
</g>
</g>
<g clip-path="url(#clip7)" clip-rule="nonzero">
<g clip-path="url(#clip8)" clip-rule="nonzero">
<path style=" stroke:none;fill-rule:nonzero;fill:rgb(100%,100%,100%);fill-opacity:1;" d="M 47.011719 14.09375 L 7.296875 14.09375 L 7.296875 13.859375 L 47.011719 13.859375 L 47.011719 14.09375 "/>
</g>
</g>
<g clip-path="url(#clip9)" clip-rule="nonzero">
<g clip-path="url(#clip10)" clip-rule="nonzero">
<path style=" stroke:none;fill-rule:nonzero;fill:rgb(100%,100%,100%);fill-opacity:1;" d="M 47.011719 14.605469 L 7.300781 14.605469 L 7.300781 14.367188 L 47.011719 14.367188 L 47.011719 14.605469 "/>
</g>
</g>
<g clip-path="url(#clip11)" clip-rule="nonzero">
<g clip-path="url(#clip12)" clip-rule="nonzero">
<path style=" stroke:none;fill-rule:nonzero;fill:rgb(100%,100%,100%);fill-opacity:1;" d="M 47.011719 15.117188 L 7.300781 15.117188 L 7.300781 14.878906 L 47.011719 14.878906 L 47.011719 15.117188 "/>
</g>
</g>
<g clip-path="url(#clip13)" clip-rule="nonzero">
<g clip-path="url(#clip14)" clip-rule="nonzero">
<path style=" stroke:none;fill-rule:nonzero;fill:rgb(100%,100%,100%);fill-opacity:1;" d="M 47.015625 15.628906 L 7.300781 15.628906 L 7.300781 15.394531 L 47.015625 15.394531 L 47.015625 15.628906 "/>
</g>
</g>
<g clip-path="url(#clip15)" clip-rule="nonzero">
<g clip-path="url(#clip16)" clip-rule="nonzero">
<path style=" stroke:none;fill-rule:nonzero;fill:rgb(100%,100%,100%);fill-opacity:1;" d="M 47.015625 16.140625 L 7.300781 16.140625 L 7.300781 15.902344 L 47.015625 15.902344 L 47.015625 16.140625 "/>
</g>
</g>
<g clip-path="url(#clip17)" clip-rule="nonzero">
<g clip-path="url(#clip18)" clip-rule="nonzero">
<path style=" stroke:none;fill-rule:nonzero;fill:rgb(100%,100%,100%);fill-opacity:1;" d="M 47.015625 16.652344 L 7.304688 16.652344 L 7.304688 16.414062 L 47.015625 16.414062 L 47.015625 16.652344 "/>
</g>
</g>
<g clip-path="url(#clip19)" clip-rule="nonzero">
<g clip-path="url(#clip20)" clip-rule="nonzero">
<path style=" stroke:none;fill-rule:nonzero;fill:rgb(100%,100%,100%);fill-opacity:1;" d="M 47.015625 17.160156 L 7.304688 17.160156 L 7.304688 16.925781 L 47.015625 16.925781 L 47.015625 17.160156 "/>
</g>
</g>
<g clip-path="url(#clip21)" clip-rule="nonzero">
<g clip-path="url(#clip22)" clip-rule="nonzero">
<path style=" stroke:none;fill-rule:nonzero;fill:rgb(100%,100%,100%);fill-opacity:1;" d="M 47.019531 17.671875 L 7.304688 17.671875 L 7.304688 17.4375 L 47.019531 17.4375 L 47.019531 17.671875 "/>
</g>
</g>
<g clip-path="url(#clip23)" clip-rule="nonzero">
<g clip-path="url(#clip24)" clip-rule="nonzero">
<path style=" stroke:none;fill-rule:nonzero;fill:rgb(100%,100%,100%);fill-opacity:1;" d="M 47.019531 18.183594 L 7.304688 18.183594 L 7.304688 17.945312 L 47.019531 17.945312 L 47.019531 18.183594 "/>
</g>
</g>
<g clip-path="url(#clip25)" clip-rule="nonzero">
<g clip-path="url(#clip26)" clip-rule="nonzero">
<path style=" stroke:none;fill-rule:nonzero;fill:rgb(100%,100%,100%);fill-opacity:1;" d="M 47.019531 18.695312 L 7.304688 18.695312 L 7.304688 18.457031 L 47.019531 18.457031 L 47.019531 18.695312 "/>
</g>
</g>
<g clip-path="url(#clip27)" clip-rule="nonzero">
<g clip-path="url(#clip28)" clip-rule="nonzero">
<path style=" stroke:none;fill-rule:nonzero;fill:rgb(100%,100%,100%);fill-opacity:1;" d="M 47.023438 19.207031 L 7.308594 19.207031 L 7.308594 18.96875 L 47.023438 18.96875 L 47.023438 19.207031 "/>
</g>
</g>
<g clip-path="url(#clip29)" clip-rule="nonzero">
<g clip-path="url(#clip30)" clip-rule="nonzero">
<path style=" stroke:none;fill-rule:nonzero;fill:rgb(100%,100%,100%);fill-opacity:1;" d="M 47.023438 19.71875 L 7.308594 19.71875 L 7.308594 19.480469 L 47.023438 19.480469 L 47.023438 19.71875 "/>
</g>
</g>
<g clip-path="url(#clip31)" clip-rule="nonzero">
<g clip-path="url(#clip32)" clip-rule="nonzero">
<path style=" stroke:none;fill-rule:nonzero;fill:rgb(100%,100%,100%);fill-opacity:1;" d="M 47.023438 20.226562 L 7.3125 20.226562 L 7.3125 19.992188 L 47.023438 19.992188 L 47.023438 20.226562 "/>
</g>
</g>
<g clip-path="url(#clip33)" clip-rule="nonzero">
<g clip-path="url(#clip34)" clip-rule="nonzero">
<path style=" stroke:none;fill-rule:nonzero;fill:rgb(100%,100%,100%);fill-opacity:1;" d="M 47.023438 20.738281 L 7.3125 20.738281 L 7.3125 20.503906 L 47.023438 20.503906 L 47.023438 20.738281 "/>
</g>
</g>
<g clip-path="url(#clip35)" clip-rule="nonzero">
<g clip-path="url(#clip36)" clip-rule="nonzero">
<path style=" stroke:none;fill-rule:nonzero;fill:rgb(100%,100%,100%);fill-opacity:1;" d="M 47.023438 21.25 L 7.3125 21.25 L 7.3125 21.015625 L 47.023438 21.015625 L 47.023438 21.25 "/>
<path style=" stroke:none;fill-rule:nonzero;fill:rgb(100%,100%,100%);fill-opacity:1;" d="M 47.027344 21.761719 L 7.3125 21.761719 L 7.3125 21.523438 L 47.027344 21.523438 L 47.027344 21.761719 "/>
</g>
</g>
<g clip-path="url(#clip37)" clip-rule="nonzero">
<g clip-path="url(#clip38)" clip-rule="nonzero">
<path style=" stroke:none;fill-rule:nonzero;fill:rgb(100%,100%,100%);fill-opacity:1;" d="M 47.027344 22.273438 L 7.316406 22.273438 L 7.316406 22.035156 L 47.027344 22.035156 L 47.027344 22.273438 "/>
</g>
</g>
<g clip-path="url(#clip39)" clip-rule="nonzero">
<g clip-path="url(#clip40)" clip-rule="nonzero">
<path style=" stroke:none;fill-rule:nonzero;fill:rgb(100%,100%,100%);fill-opacity:1;" d="M 47.003906 50.351562 L 7.292969 50.351562 L 7.292969 50.113281 L 47.003906 50.113281 L 47.003906 50.351562 "/>
</g>
</g>
<g clip-path="url(#clip41)" clip-rule="nonzero">
<g clip-path="url(#clip42)" clip-rule="nonzero">
<path style=" stroke:none;fill-rule:nonzero;fill:rgb(100%,100%,100%);fill-opacity:1;" d="M 47.007812 49.800781 L 7.292969 49.800781 L 7.292969 49.5625 L 47.007812 49.5625 L 47.007812 49.800781 "/>
<path style=" stroke:none;fill-rule:nonzero;fill:rgb(100%,100%,100%);fill-opacity:1;" d="M 47.007812 49.25 L 7.292969 49.25 L 7.292969 49.011719 L 47.007812 49.011719 L 47.007812 49.25 "/>
</g>
</g>
<g clip-path="url(#clip43)" clip-rule="nonzero">
<g clip-path="url(#clip44)" clip-rule="nonzero">
<path style=" stroke:none;fill-rule:nonzero;fill:rgb(100%,100%,100%);fill-opacity:1;" d="M 47.007812 48.699219 L 7.292969 48.699219 L 7.292969 48.460938 L 47.007812 48.460938 L 47.007812 48.699219 "/>
</g>
</g>
<g clip-path="url(#clip45)" clip-rule="nonzero">
<g clip-path="url(#clip46)" clip-rule="nonzero">
<path style=" stroke:none;fill-rule:nonzero;fill:rgb(100%,100%,100%);fill-opacity:1;" d="M 47.007812 48.144531 L 7.292969 48.144531 L 7.292969 47.910156 L 47.007812 47.910156 L 47.007812 48.144531 "/>
</g>
</g>
<g clip-path="url(#clip47)" clip-rule="nonzero">
<g clip-path="url(#clip48)" clip-rule="nonzero">
<path style=" stroke:none;fill-rule:nonzero;fill:rgb(100%,100%,100%);fill-opacity:1;" d="M 47.011719 47.59375 L 7.296875 47.59375 L 7.296875 47.355469 L 47.011719 47.355469 L 47.011719 47.59375 "/>
</g>
</g>
<g clip-path="url(#clip49)" clip-rule="nonzero">
<g clip-path="url(#clip50)" clip-rule="nonzero">
<path style=" stroke:none;fill-rule:nonzero;fill:rgb(100%,100%,100%);fill-opacity:1;" d="M 47.011719 47.042969 L 7.296875 47.042969 L 7.296875 46.804688 L 47.011719 46.804688 L 47.011719 47.042969 "/>
</g>
</g>
<g clip-path="url(#clip51)" clip-rule="nonzero">
<g clip-path="url(#clip52)" clip-rule="nonzero">
<path style=" stroke:none;fill-rule:nonzero;fill:rgb(100%,100%,100%);fill-opacity:1;" d="M 47.011719 46.488281 L 7.296875 46.488281 L 7.296875 46.253906 L 47.011719 46.253906 L 47.011719 46.488281 "/>
</g>
</g>
<g clip-path="url(#clip53)" clip-rule="nonzero">
<g clip-path="url(#clip54)" clip-rule="nonzero">
<path style=" stroke:none;fill-rule:nonzero;fill:rgb(100%,100%,100%);fill-opacity:1;" d="M 47.011719 45.941406 L 7.296875 45.941406 L 7.296875 45.703125 L 47.011719 45.703125 L 47.011719 45.941406 "/>
<path style=" stroke:none;fill-rule:nonzero;fill:rgb(100%,100%,100%);fill-opacity:1;" d="M 47.011719 45.390625 L 7.296875 45.390625 L 7.296875 45.152344 L 47.011719 45.152344 L 47.011719 45.390625 "/>
</g>
</g>
<g clip-path="url(#clip55)" clip-rule="nonzero">
<g clip-path="url(#clip56)" clip-rule="nonzero">
<path style=" stroke:none;fill-rule:nonzero;fill:rgb(100%,100%,100%);fill-opacity:1;" d="M 47.011719 44.835938 L 7.300781 44.835938 L 7.300781 44.601562 L 47.011719 44.601562 L 47.011719 44.835938 "/>
<path style=" stroke:none;fill-rule:nonzero;fill:rgb(100%,100%,100%);fill-opacity:1;" d="M 47.011719 44.285156 L 7.300781 44.285156 L 7.300781 44.050781 L 47.011719 44.050781 L 47.011719 44.285156 "/>
</g>
</g>
<g clip-path="url(#clip57)" clip-rule="nonzero">
<g clip-path="url(#clip58)" clip-rule="nonzero">
<path style=" stroke:none;fill-rule:nonzero;fill:rgb(100%,100%,100%);fill-opacity:1;" d="M 47.011719 43.734375 L 7.300781 43.734375 L 7.300781 43.5 L 47.011719 43.5 L 47.011719 43.734375 "/>
</g>
</g>
<g clip-path="url(#clip59)" clip-rule="nonzero">
<g clip-path="url(#clip60)" clip-rule="nonzero">
<path style=" stroke:none;fill-rule:nonzero;fill:rgb(100%,100%,100%);fill-opacity:1;" d="M 47.011719 43.179688 L 7.300781 43.179688 L 7.300781 42.945312 L 47.011719 42.945312 L 47.011719 43.179688 "/>
</g>
</g>
<g clip-path="url(#clip61)" clip-rule="nonzero">
<g clip-path="url(#clip62)" clip-rule="nonzero">
<path style=" stroke:none;fill-rule:nonzero;fill:rgb(100%,100%,100%);fill-opacity:1;" d="M 47.011719 42.632812 L 7.300781 42.632812 L 7.300781 42.394531 L 47.011719 42.394531 L 47.011719 42.632812 "/>
</g>
</g>
<g clip-path="url(#clip63)" clip-rule="nonzero">
<g clip-path="url(#clip64)" clip-rule="nonzero">
<path style=" stroke:none;fill-rule:nonzero;fill:rgb(100%,100%,100%);fill-opacity:1;" d="M 47.015625 42.082031 L 7.300781 42.082031 L 7.300781 41.84375 L 47.015625 41.84375 L 47.015625 42.082031 "/>
</g>
</g>
<g clip-path="url(#clip65)" clip-rule="nonzero">
<g clip-path="url(#clip66)" clip-rule="nonzero">
<path style=" stroke:none;fill-rule:nonzero;fill:rgb(100%,100%,100%);fill-opacity:1;" d="M 47.015625 41.527344 L 7.300781 41.527344 L 7.300781 41.292969 L 47.015625 41.292969 L 47.015625 41.527344 "/>
</g>
</g>
<g clip-path="url(#clip67)" clip-rule="nonzero">
<g clip-path="url(#clip68)" clip-rule="nonzero">
<path style=" stroke:none;fill-rule:nonzero;fill:rgb(100%,100%,100%);fill-opacity:1;" d="M 47.015625 40.976562 L 7.300781 40.976562 L 7.300781 40.742188 L 47.015625 40.742188 L 47.015625 40.976562 "/>
<path style=" stroke:none;fill-rule:nonzero;fill:rgb(100%,100%,100%);fill-opacity:1;" d="M 47.015625 40.425781 L 7.300781 40.425781 L 7.300781 40.191406 L 47.015625 40.191406 L 47.015625 40.425781 "/>
</g>
</g>
<g clip-path="url(#clip69)" clip-rule="nonzero">
<g clip-path="url(#clip70)" clip-rule="nonzero">
<path style=" stroke:none;fill-rule:nonzero;fill:rgb(100%,100%,100%);fill-opacity:1;" d="M 47.015625 39.875 L 7.300781 39.875 L 7.300781 39.636719 L 47.015625 39.636719 L 47.015625 39.875 "/>
<path style=" stroke:none;fill-rule:nonzero;fill:rgb(100%,100%,100%);fill-opacity:1;" d="M 47.015625 39.324219 L 7.300781 39.324219 L 7.300781 39.085938 L 47.015625 39.085938 L 47.015625 39.324219 "/>
</g>
</g>
<g clip-path="url(#clip71)" clip-rule="nonzero">
<g clip-path="url(#clip72)" clip-rule="nonzero">
<path style=" stroke:none;fill-rule:nonzero;fill:rgb(100%,100%,100%);fill-opacity:1;" d="M 47.015625 38.773438 L 7.304688 38.773438 L 7.304688 38.535156 L 47.015625 38.535156 L 47.015625 38.773438 "/>
</g>
</g>
<g clip-path="url(#clip73)" clip-rule="nonzero">
<g clip-path="url(#clip74)" clip-rule="nonzero">
<path style=" stroke:none;fill-rule:nonzero;fill:rgb(100%,100%,100%);fill-opacity:1;" d="M 47.015625 38.21875 L 7.304688 38.21875 L 7.304688 37.984375 L 47.015625 37.984375 L 47.015625 38.21875 "/>
</g>
</g>
<g clip-path="url(#clip75)" clip-rule="nonzero">
<g clip-path="url(#clip76)" clip-rule="nonzero">
<path style=" stroke:none;fill-rule:nonzero;fill:rgb(100%,100%,100%);fill-opacity:1;" d="M 47.015625 37.667969 L 7.304688 37.667969 L 7.304688 37.433594 L 47.015625 37.433594 L 47.015625 37.667969 "/>
</g>
</g>
<g clip-path="url(#clip77)" clip-rule="nonzero">
<g clip-path="url(#clip78)" clip-rule="nonzero">
<path style=" stroke:none;fill-rule:nonzero;fill:rgb(100%,100%,100%);fill-opacity:1;" d="M 47.015625 37.117188 L 7.304688 37.117188 L 7.304688 36.882812 L 47.015625 36.882812 L 47.015625 37.117188 "/>
</g>
</g>
<g clip-path="url(#clip79)" clip-rule="nonzero">
<g clip-path="url(#clip80)" clip-rule="nonzero">
<path style=" stroke:none;fill-rule:nonzero;fill:rgb(100%,100%,100%);fill-opacity:1;" d="M 47.015625 36.566406 L 7.304688 36.566406 L 7.304688 36.332031 L 47.015625 36.332031 L 47.015625 36.566406 "/>
</g>
</g>
<g clip-path="url(#clip81)" clip-rule="nonzero">
<g clip-path="url(#clip82)" clip-rule="nonzero">
<path style=" stroke:none;fill-rule:nonzero;fill:rgb(100%,100%,100%);fill-opacity:1;" d="M 47.019531 36.015625 L 7.304688 36.015625 L 7.304688 35.78125 L 47.019531 35.78125 L 47.019531 36.015625 "/>
</g>
</g>
<g clip-path="url(#clip83)" clip-rule="nonzero">
<g clip-path="url(#clip84)" clip-rule="nonzero">
<path style=" stroke:none;fill-rule:nonzero;fill:rgb(100%,100%,100%);fill-opacity:1;" d="M 47.019531 35.464844 L 7.304688 35.464844 L 7.304688 35.226562 L 47.019531 35.226562 L 47.019531 35.464844 "/>
</g>
</g>
<g clip-path="url(#clip85)" clip-rule="nonzero">
<g clip-path="url(#clip86)" clip-rule="nonzero">
<path style=" stroke:none;fill-rule:nonzero;fill:rgb(100%,100%,100%);fill-opacity:1;" d="M 47.019531 34.914062 L 7.304688 34.914062 L 7.304688 34.675781 L 47.019531 34.675781 L 47.019531 34.914062 "/>
<path style=" stroke:none;fill-rule:nonzero;fill:rgb(100%,100%,100%);fill-opacity:1;" d="M 47.019531 34.359375 L 7.304688 34.359375 L 7.304688 34.125 L 47.019531 34.125 L 47.019531 34.359375 "/>
</g>
</g>
<g clip-path="url(#clip87)" clip-rule="nonzero">
<g clip-path="url(#clip88)" clip-rule="nonzero">
<path style=" stroke:none;fill-rule:nonzero;fill:rgb(100%,100%,100%);fill-opacity:1;" d="M 47.019531 33.808594 L 7.304688 33.808594 L 7.304688 33.574219 L 47.019531 33.574219 L 47.019531 33.808594 "/>
<path style=" stroke:none;fill-rule:nonzero;fill:rgb(100%,100%,100%);fill-opacity:1;" d="M 47.019531 33.257812 L 7.304688 33.257812 L 7.304688 33.023438 L 47.019531 33.023438 L 47.019531 33.257812 "/>
</g>
</g>
<g clip-path="url(#clip89)" clip-rule="nonzero">
<g clip-path="url(#clip90)" clip-rule="nonzero">
<path style=" stroke:none;fill-rule:nonzero;fill:rgb(100%,100%,100%);fill-opacity:1;" d="M 47.019531 32.707031 L 7.308594 32.707031 L 7.308594 32.46875 L 47.019531 32.46875 L 47.019531 32.707031 "/>
</g>
</g>
<g clip-path="url(#clip91)" clip-rule="nonzero">
<g clip-path="url(#clip92)" clip-rule="nonzero">
<path style=" stroke:none;fill-rule:nonzero;fill:rgb(100%,100%,100%);fill-opacity:1;" d="M 47.023438 32.15625 L 7.308594 32.15625 L 7.308594 31.917969 L 47.023438 31.917969 L 47.023438 32.15625 "/>
</g>
</g>
<g clip-path="url(#clip93)" clip-rule="nonzero">
<g clip-path="url(#clip94)" clip-rule="nonzero">
<path style=" stroke:none;fill-rule:nonzero;fill:rgb(100%,100%,100%);fill-opacity:1;" d="M 47.023438 31.605469 L 7.308594 31.605469 L 7.308594 31.367188 L 47.023438 31.367188 L 47.023438 31.605469 "/>
</g>
</g>
<g clip-path="url(#clip95)" clip-rule="nonzero">
<g clip-path="url(#clip96)" clip-rule="nonzero">
<path style=" stroke:none;fill-rule:nonzero;fill:rgb(100%,100%,100%);fill-opacity:1;" d="M 47.023438 31.050781 L 7.3125 31.050781 L 7.3125 30.816406 L 47.023438 30.816406 L 47.023438 31.050781 "/>
</g>
</g>
<g clip-path="url(#clip97)" clip-rule="nonzero">
<g clip-path="url(#clip98)" clip-rule="nonzero">
<path style=" stroke:none;fill-rule:nonzero;fill:rgb(100%,100%,100%);fill-opacity:1;" d="M 47.023438 30.503906 L 7.308594 30.503906 L 7.308594 30.265625 L 47.023438 30.265625 L 47.023438 30.503906 "/>
</g>
</g>
<g clip-path="url(#clip99)" clip-rule="nonzero">
<g clip-path="url(#clip100)" clip-rule="nonzero">
<path style=" stroke:none;fill-rule:nonzero;fill:rgb(100%,100%,100%);fill-opacity:1;" d="M 47.023438 29.953125 L 7.308594 29.953125 L 7.308594 29.714844 L 47.023438 29.714844 L 47.023438 29.953125 "/>
<path style=" stroke:none;fill-rule:nonzero;fill:rgb(100%,100%,100%);fill-opacity:1;" d="M 47.023438 29.398438 L 7.3125 29.398438 L 7.3125 29.160156 L 47.023438 29.160156 L 47.023438 29.398438 "/>
</g>
</g>
<g clip-path="url(#clip101)" clip-rule="nonzero">
<g clip-path="url(#clip102)" clip-rule="nonzero">
<path style=" stroke:none;fill-rule:nonzero;fill:rgb(100%,100%,100%);fill-opacity:1;" d="M 47.023438 28.847656 L 7.3125 28.847656 L 7.3125 28.613281 L 47.023438 28.613281 L 47.023438 28.847656 "/>
<path style=" stroke:none;fill-rule:nonzero;fill:rgb(100%,100%,100%);fill-opacity:1;" d="M 47.023438 28.296875 L 7.3125 28.296875 L 7.3125 28.058594 L 47.023438 28.058594 L 47.023438 28.296875 "/>
</g>
</g>
<g clip-path="url(#clip103)" clip-rule="nonzero">
<g clip-path="url(#clip104)" clip-rule="nonzero">
<path style=" stroke:none;fill-rule:nonzero;fill:rgb(100%,100%,100%);fill-opacity:1;" d="M 47.023438 27.746094 L 7.3125 27.746094 L 7.3125 27.507812 L 47.023438 27.507812 L 47.023438 27.746094 "/>
</g>
</g>
<g clip-path="url(#clip105)" clip-rule="nonzero">
<g clip-path="url(#clip106)" clip-rule="nonzero">
<path style=" stroke:none;fill-rule:nonzero;fill:rgb(100%,100%,100%);fill-opacity:1;" d="M 47.023438 27.195312 L 7.3125 27.195312 L 7.3125 26.957031 L 47.023438 26.957031 L 47.023438 27.195312 "/>
</g>
</g>
<g clip-path="url(#clip107)" clip-rule="nonzero">
<g clip-path="url(#clip108)" clip-rule="nonzero">
<path style=" stroke:none;fill-rule:nonzero;fill:rgb(100%,100%,100%);fill-opacity:1;" d="M 47.027344 26.644531 L 7.3125 26.644531 L 7.3125 26.40625 L 47.027344 26.40625 L 47.027344 26.644531 "/>
</g>
</g>
<g clip-path="url(#clip109)" clip-rule="nonzero">
<g clip-path="url(#clip110)" clip-rule="nonzero">
<path style=" stroke:none;fill-rule:nonzero;fill:rgb(100%,100%,100%);fill-opacity:1;" d="M 47.027344 26.089844 L 7.3125 26.089844 L 7.3125 25.855469 L 47.027344 25.855469 L 47.027344 26.089844 "/>
</g>
</g>
<g clip-path="url(#clip111)" clip-rule="nonzero">
<g clip-path="url(#clip112)" clip-rule="nonzero">
<path style=" stroke:none;fill-rule:nonzero;fill:rgb(100%,100%,100%);fill-opacity:1;" d="M 47.027344 25.539062 L 7.3125 25.539062 L 7.3125 25.304688 L 47.027344 25.304688 L 47.027344 25.539062 "/>
</g>
</g>
<g clip-path="url(#clip113)" clip-rule="nonzero">
<g clip-path="url(#clip114)" clip-rule="nonzero">
<path style=" stroke:none;fill-rule:nonzero;fill:rgb(100%,100%,100%);fill-opacity:1;" d="M 47.027344 24.988281 L 7.3125 24.988281 L 7.3125 24.753906 L 47.027344 24.753906 L 47.027344 24.988281 "/>
<path style=" stroke:none;fill-rule:nonzero;fill:rgb(100%,100%,100%);fill-opacity:1;" d="M 47.027344 24.4375 L 7.316406 24.4375 L 7.316406 24.199219 L 47.027344 24.199219 L 47.027344 24.4375 "/>
</g>
</g>
<g clip-path="url(#clip115)" clip-rule="nonzero">
<g clip-path="url(#clip116)" clip-rule="nonzero">
<path style=" stroke:none;fill-rule:nonzero;fill:rgb(100%,100%,100%);fill-opacity:1;" d="M 47.027344 23.886719 L 7.316406 23.886719 L 7.316406 23.648438 L 47.027344 23.648438 L 47.027344 23.886719 "/>
<path style=" stroke:none;fill-rule:nonzero;fill:rgb(100%,100%,100%);fill-opacity:1;" d="M 47.027344 23.335938 L 7.316406 23.335938 L 7.316406 23.097656 L 47.027344 23.097656 L 47.027344 23.335938 "/>
</g>
</g>
<g clip-path="url(#clip117)" clip-rule="nonzero">
<g clip-path="url(#clip118)" clip-rule="nonzero">
<path style=" stroke:none;fill-rule:nonzero;fill:rgb(100%,100%,100%);fill-opacity:1;" d="M 47.027344 22.78125 L 7.316406 22.78125 L 7.316406 22.546875 L 47.027344 22.546875 L 47.027344 22.78125 "/>
</g>
</g>
<path style=" stroke:none;fill-rule:nonzero;fill:rgb(100%,100%,100%);fill-opacity:1;" d="M 20.910156 20.742188 C 20.910156 23.824219 25.574219 21.929688 26.957031 23.683594 L 27.074219 24.292969 C 25.1875 23.492188 22.9375 25.21875 21.21875 23.613281 C 20.878906 24.015625 20.707031 24.472656 20.820312 24.988281 C 22.191406 26.703125 26.03125 24.15625 26.988281 26.453125 C 25.335938 26.859375 23.28125 26.359375 21.335938 26.476562 C 20.984375 26.574219 20.746094 26.691406 20.675781 27.011719 C 20.632812 27.425781 20.734375 27.679688 20.933594 28.019531 C 22.996094 27.273438 25.054688 28.191406 27.113281 28.308594 C 25.738281 29.910156 22.824219 28.476562 21.046875 29.507812 C 20.65625 29.894531 20.53125 30.652344 20.820312 31.164062 C 22.421875 30.824219 24.523438 30.203125 26.347656 30.410156 C 26.121094 33.210938 22.539062 32.882812 20.820312 33.914062 C 22.023438 35.34375 24.253906 34.085938 25.855469 34.484375 C 25.109375 35.800781 24.308594 37.058594 23.96875 38.601562 C 25.609375 40.035156 27.011719 39.835938 27.371094 39.835938 C 27.730469 39.835938 29.410156 39.933594 30.660156 38.71875 C 30.375 37.171875 29.800781 35.742188 28.886719 34.484375 C 30.601562 33.972656 32.949219 35.460938 33.980469 33.914062 C 33.121094 33.457031 32.089844 33.457031 31.234375 33.113281 C 29.691406 32.941406 29.402344 31.410156 28.601562 30.4375 C 30.601562 29.980469 32.433594 30.996094 34.09375 31.164062 C 34.210938 27.164062 29.574219 30.421875 27.800781 28.308594 C 29.917969 28.191406 32.035156 27.273438 34.09375 28.019531 C 34.035156 27.621094 34.320312 26.988281 33.863281 26.761719 C 31.804688 26.246094 29.980469 27.128906 27.863281 26.4375 C 29.179688 24.78125 31.34375 26.246094 33.289062 25.789062 C 34.09375 25.730469 34.214844 24.628906 34.101562 23.941406 C 32.59375 25.5 29.859375 23.628906 27.914062 24.300781 C 28.027344 24.128906 28.027344 23.902344 28.199219 23.730469 C 29.59375 21.960938 34.359375 23.933594 34.277344 20.742188 L 20.910156 20.742188 "/>
<path style=" stroke:none;fill-rule:nonzero;fill:rgb(100%,100%,100%);fill-opacity:1;" d="M 24.097656 38.558594 C 25.007812 39.335938 25.980469 39.726562 26.996094 39.726562 C 27.09375 39.726562 27.179688 39.722656 27.246094 39.71875 C 27.296875 39.71875 27.339844 39.71875 27.371094 39.71875 L 27.597656 39.71875 C 28.792969 39.71875 29.804688 39.359375 30.53125 38.679688 C 30.234375 37.121094 29.648438 35.734375 28.789062 34.554688 C 28.769531 34.523438 28.761719 34.484375 28.773438 34.449219 C 28.785156 34.410156 28.816406 34.382812 28.851562 34.371094 C 29.117188 34.292969 29.414062 34.253906 29.757812 34.253906 C 30.214844 34.253906 30.691406 34.324219 31.152344 34.390625 C 31.597656 34.457031 32.023438 34.519531 32.414062 34.519531 C 33.0625 34.519531 33.496094 34.34375 33.804688 33.957031 C 33.363281 33.746094 32.871094 33.644531 32.398438 33.546875 C 31.996094 33.464844 31.582031 33.378906 31.207031 33.226562 C 30.058594 33.09375 29.578125 32.253906 29.109375 31.4375 C 28.925781 31.117188 28.738281 30.789062 28.511719 30.511719 C 28.484375 30.480469 28.476562 30.4375 28.488281 30.398438 C 28.503906 30.359375 28.535156 30.332031 28.574219 30.324219 C 28.929688 30.242188 29.289062 30.203125 29.671875 30.203125 C 30.605469 30.203125 31.492188 30.441406 32.347656 30.667969 C 32.914062 30.824219 33.453125 30.96875 33.976562 31.035156 C 33.976562 30.363281 33.835938 29.894531 33.546875 29.59375 C 33.242188 29.28125 32.761719 29.140625 31.992188 29.140625 C 31.691406 29.140625 31.382812 29.15625 31.054688 29.179688 C 30.71875 29.199219 30.378906 29.21875 30.039062 29.21875 C 29.28125 29.21875 28.332031 29.125 27.710938 28.382812 C 27.679688 28.347656 27.671875 28.300781 27.691406 28.261719 C 27.710938 28.21875 27.75 28.191406 27.792969 28.1875 C 28.480469 28.152344 29.179688 28.027344 29.855469 27.90625 C 30.667969 27.761719 31.507812 27.613281 32.328125 27.613281 C 32.925781 27.613281 33.464844 27.691406 33.96875 27.851562 C 33.96875 27.765625 33.980469 27.675781 33.988281 27.585938 C 34.027344 27.21875 34.035156 26.988281 33.824219 26.871094 C 33.367188 26.757812 32.898438 26.707031 32.34375 26.707031 C 31.917969 26.707031 31.484375 26.738281 31.066406 26.769531 C 30.644531 26.800781 30.207031 26.832031 29.765625 26.832031 C 29.035156 26.832031 28.417969 26.742188 27.828125 26.550781 C 27.789062 26.539062 27.761719 26.507812 27.75 26.472656 C 27.738281 26.433594 27.746094 26.394531 27.773438 26.363281 C 28.238281 25.777344 28.851562 25.507812 29.703125 25.507812 C 30.125 25.507812 30.558594 25.566406 31.019531 25.632812 C 31.476562 25.695312 31.957031 25.761719 32.421875 25.761719 C 32.730469 25.761719 33.007812 25.734375 33.265625 25.671875 C 33.472656 25.65625 33.628906 25.578125 33.746094 25.421875 C 33.980469 25.128906 34.046875 24.621094 34.011719 24.183594 C 33.59375 24.535156 33.074219 24.699219 32.394531 24.699219 C 31.84375 24.699219 31.242188 24.589844 30.667969 24.484375 C 30.085938 24.378906 29.480469 24.265625 28.921875 24.265625 C 28.554688 24.265625 28.234375 24.316406 27.953125 24.414062 C 27.90625 24.429688 27.851562 24.414062 27.820312 24.371094 C 27.789062 24.332031 27.789062 24.277344 27.816406 24.234375 C 27.855469 24.175781 27.878906 24.105469 27.90625 24.027344 C 27.949219 23.90625 27.996094 23.765625 28.117188 23.644531 C 28.722656 22.871094 29.941406 22.785156 31.117188 22.703125 C 32.671875 22.59375 34.136719 22.488281 34.160156 20.859375 L 21.03125 20.859375 C 21.101562 22.417969 22.535156 22.527344 24.054688 22.644531 C 25.226562 22.734375 26.433594 22.828125 27.050781 23.609375 C 27.0625 23.625 27.070312 23.640625 27.074219 23.660156 L 27.191406 24.273438 C 27.199219 24.316406 27.183594 24.359375 27.148438 24.386719 C 27.117188 24.414062 27.070312 24.421875 27.03125 24.402344 C 26.6875 24.257812 26.300781 24.1875 25.851562 24.1875 C 25.414062 24.1875 24.957031 24.253906 24.515625 24.316406 C 24.070312 24.378906 23.605469 24.445312 23.160156 24.445312 C 22.371094 24.445312 21.757812 24.234375 21.234375 23.785156 C 20.953125 24.152344 20.851562 24.539062 20.929688 24.933594 C 21.257812 25.332031 21.753906 25.511719 22.527344 25.511719 C 22.933594 25.511719 23.378906 25.460938 23.808594 25.410156 C 24.242188 25.363281 24.691406 25.3125 25.105469 25.3125 C 25.820312 25.3125 26.691406 25.4375 27.097656 26.40625 C 27.109375 26.4375 27.109375 26.476562 27.09375 26.507812 C 27.078125 26.535156 27.050781 26.558594 27.015625 26.566406 C 26.554688 26.679688 26.042969 26.734375 25.402344 26.734375 C 24.859375 26.734375 24.3125 26.695312 23.726562 26.65625 C 23.148438 26.617188 22.550781 26.578125 21.964844 26.578125 C 21.75 26.578125 21.546875 26.582031 21.355469 26.59375 C 21.027344 26.6875 20.847656 26.785156 20.792969 27.035156 C 20.757812 27.371094 20.828125 27.589844 20.988281 27.875 C 21.511719 27.699219 22.070312 27.613281 22.6875 27.613281 C 23.503906 27.613281 24.324219 27.761719 25.121094 27.90625 C 25.777344 28.027344 26.457031 28.152344 27.121094 28.1875 C 27.164062 28.191406 27.203125 28.21875 27.222656 28.261719 C 27.238281 28.300781 27.230469 28.347656 27.203125 28.382812 C 26.554688 29.140625 25.59375 29.246094 24.648438 29.246094 C 24.394531 29.246094 24.136719 29.238281 23.878906 29.230469 C 23.621094 29.222656 23.363281 29.214844 23.105469 29.214844 C 22.460938 29.214844 21.722656 29.261719 21.121094 29.605469 C 20.785156 29.945312 20.683594 30.585938 20.886719 31.03125 C 21.140625 30.976562 21.410156 30.914062 21.6875 30.847656 C 22.902344 30.570312 24.277344 30.25 25.585938 30.25 C 25.855469 30.25 26.117188 30.265625 26.359375 30.289062 C 26.425781 30.296875 26.46875 30.355469 26.464844 30.417969 C 26.300781 32.421875 24.476562 32.898438 22.867188 33.316406 C 22.175781 33.496094 21.519531 33.667969 21.007812 33.945312 C 21.382812 34.328125 21.875 34.5 22.585938 34.5 C 22.980469 34.5 23.410156 34.445312 23.824219 34.394531 C 24.246094 34.339844 24.683594 34.285156 25.09375 34.285156 C 25.394531 34.285156 25.652344 34.3125 25.882812 34.371094 C 25.917969 34.378906 25.949219 34.40625 25.964844 34.4375 C 25.976562 34.472656 25.976562 34.511719 25.957031 34.542969 C 25.863281 34.710938 25.765625 34.878906 25.671875 35.042969 C 25.019531 36.183594 24.398438 37.261719 24.097656 38.558594 Z M 26.996094 39.964844 C 25.902344 39.964844 24.855469 39.535156 23.890625 38.691406 C 23.855469 38.664062 23.84375 38.617188 23.851562 38.578125 C 24.15625 37.210938 24.820312 36.050781 25.46875 34.925781 C 25.535156 34.804688 25.605469 34.6875 25.671875 34.566406 C 25.175781 34.476562 24.488281 34.546875 23.851562 34.628906 C 23.429688 34.679688 22.996094 34.734375 22.585938 34.734375 C 21.746094 34.734375 21.160156 34.496094 20.730469 33.988281 C 20.707031 33.964844 20.699219 33.925781 20.703125 33.894531 C 20.710938 33.859375 20.730469 33.828125 20.761719 33.8125 C 21.316406 33.476562 22.039062 33.289062 22.808594 33.089844 C 24.382812 32.675781 26.011719 32.253906 26.21875 30.515625 C 26.015625 30.492188 25.804688 30.484375 25.585938 30.484375 C 24.304688 30.484375 22.941406 30.800781 21.742188 31.078125 C 21.429688 31.152344 21.128906 31.21875 20.84375 31.28125 C 20.792969 31.292969 20.742188 31.269531 20.71875 31.222656 C 20.414062 30.679688 20.527344 29.855469 20.964844 29.425781 C 20.972656 29.417969 20.980469 29.410156 20.988281 29.40625 C 21.640625 29.027344 22.425781 28.976562 23.105469 28.976562 C 23.363281 28.976562 23.625 28.984375 23.886719 28.992188 C 24.144531 29.003906 24.398438 29.011719 24.648438 29.011719 C 25.453125 29.011719 26.269531 28.933594 26.851562 28.40625 C 26.257812 28.355469 25.660156 28.246094 25.078125 28.140625 C 24.292969 27.996094 23.480469 27.847656 22.6875 27.847656 C 22.058594 27.847656 21.5 27.941406 20.976562 28.132812 C 20.921875 28.152344 20.863281 28.128906 20.832031 28.078125 C 20.621094 27.71875 20.511719 27.441406 20.558594 27 C 20.652344 26.582031 20.976562 26.457031 21.300781 26.363281 C 21.308594 26.359375 21.320312 26.359375 21.328125 26.359375 C 21.53125 26.34375 21.738281 26.339844 21.964844 26.339844 C 22.558594 26.339844 23.160156 26.382812 23.746094 26.421875 C 24.324219 26.460938 24.867188 26.496094 25.402344 26.496094 C 25.960938 26.496094 26.414062 26.457031 26.820312 26.371094 C 26.53125 25.804688 25.996094 25.550781 25.105469 25.550781 C 24.707031 25.550781 24.265625 25.597656 23.835938 25.648438 C 23.398438 25.695312 22.949219 25.746094 22.527344 25.746094 C 21.988281 25.746094 21.21875 25.675781 20.726562 25.0625 C 20.71875 25.046875 20.710938 25.03125 20.707031 25.011719 C 20.589844 24.496094 20.734375 24 21.128906 23.539062 C 21.152344 23.511719 21.179688 23.496094 21.214844 23.496094 C 21.246094 23.496094 21.277344 23.507812 21.300781 23.527344 C 21.796875 23.992188 22.386719 24.207031 23.160156 24.207031 C 23.589844 24.207031 24.042969 24.144531 24.480469 24.082031 C 24.929688 24.019531 25.398438 23.953125 25.851562 23.953125 C 26.25 23.953125 26.601562 24.003906 26.917969 24.109375 L 26.847656 23.734375 C 26.289062 23.054688 25.144531 22.964844 24.039062 22.882812 C 22.441406 22.757812 20.792969 22.628906 20.792969 20.738281 C 20.792969 20.675781 20.847656 20.621094 20.910156 20.621094 L 34.277344 20.621094 C 34.34375 20.621094 34.394531 20.671875 34.398438 20.738281 C 34.449219 22.707031 32.765625 22.824219 31.136719 22.9375 C 30.007812 23.019531 28.84375 23.101562 28.292969 23.800781 C 28.203125 23.894531 28.167969 23.996094 28.128906 24.105469 C 28.128906 24.109375 28.128906 24.113281 28.125 24.117188 C 28.367188 24.058594 28.632812 24.03125 28.921875 24.03125 C 29.503906 24.03125 30.117188 24.144531 30.710938 24.25 C 31.300781 24.359375 31.863281 24.460938 32.394531 24.460938 C 33.101562 24.460938 33.617188 24.269531 34.015625 23.859375 C 34.046875 23.828125 34.09375 23.816406 34.136719 23.828125 C 34.179688 23.84375 34.210938 23.878906 34.21875 23.921875 C 34.300781 24.410156 34.273438 25.136719 33.933594 25.570312 C 33.769531 25.777344 33.558594 25.890625 33.300781 25.90625 C 33.042969 25.96875 32.75 26 32.421875 26 C 31.941406 26 31.453125 25.929688 30.984375 25.863281 C 30.535156 25.800781 30.109375 25.742188 29.703125 25.742188 C 28.988281 25.742188 28.476562 25.941406 28.070312 26.378906 C 28.585938 26.527344 29.128906 26.597656 29.765625 26.597656 C 30.195312 26.597656 30.632812 26.566406 31.050781 26.535156 C 31.472656 26.503906 31.90625 26.472656 32.34375 26.472656 C 32.925781 26.472656 33.417969 26.527344 33.894531 26.644531 C 33.902344 26.648438 33.910156 26.652344 33.914062 26.65625 C 34.304688 26.847656 34.261719 27.273438 34.222656 27.609375 C 34.210938 27.742188 34.199219 27.867188 34.207031 27.972656 C 34.210938 27.988281 34.214844 28.003906 34.214844 28.019531 C 34.214844 28.085938 34.164062 28.136719 34.097656 28.136719 C 34.097656 28.136719 34.09375 28.136719 34.09375 28.136719 C 34.078125 28.136719 34.066406 28.136719 34.050781 28.132812 C 33.527344 27.941406 32.964844 27.847656 32.328125 27.847656 C 31.527344 27.847656 30.699219 27.996094 29.898438 28.140625 C 29.296875 28.246094 28.675781 28.355469 28.058594 28.40625 C 28.617188 28.914062 29.402344 28.984375 30.039062 28.984375 C 30.367188 28.984375 30.710938 28.964844 31.039062 28.941406 C 31.371094 28.921875 31.683594 28.902344 31.992188 28.902344 C 32.554688 28.902344 33.265625 28.964844 33.714844 29.429688 C 34.074219 29.792969 34.234375 30.363281 34.210938 31.167969 C 34.210938 31.203125 34.195312 31.234375 34.167969 31.253906 C 34.144531 31.277344 34.113281 31.285156 34.082031 31.28125 C 33.5 31.222656 32.910156 31.066406 32.285156 30.898438 C 31.445312 30.671875 30.578125 30.4375 29.671875 30.4375 C 29.371094 30.4375 29.089844 30.464844 28.8125 30.515625 C 28.996094 30.769531 29.160156 31.046875 29.316406 31.320312 C 29.777344 32.121094 30.210938 32.878906 31.246094 32.992188 C 31.257812 32.996094 31.269531 32.996094 31.277344 33.003906 C 31.640625 33.148438 32.03125 33.226562 32.445312 33.316406 C 32.980469 33.425781 33.535156 33.542969 34.035156 33.808594 C 34.066406 33.824219 34.085938 33.851562 34.09375 33.882812 C 34.101562 33.914062 34.097656 33.949219 34.078125 33.976562 C 33.722656 34.511719 33.195312 34.757812 32.414062 34.757812 C 32.003906 34.757812 31.574219 34.691406 31.117188 34.625 C 30.664062 34.558594 30.199219 34.488281 29.757812 34.488281 C 29.507812 34.488281 29.285156 34.511719 29.082031 34.554688 C 29.917969 35.75 30.488281 37.144531 30.777344 38.699219 C 30.785156 38.738281 30.773438 38.777344 30.742188 38.804688 C 29.96875 39.558594 28.878906 39.957031 27.597656 39.957031 L 27.371094 39.953125 C 27.339844 39.953125 27.304688 39.957031 27.257812 39.957031 C 27.1875 39.960938 27.097656 39.964844 26.996094 39.964844 "/>
<g clip-path="url(#clip119)" clip-rule="nonzero">
<g clip-path="url(#clip120)" clip-rule="nonzero">
<g clip-path="url(#clip121)" clip-rule="nonzero">
<path style=" stroke:none;fill-rule:nonzero;fill:url(#linear0);" d="M 46.3125 12.902344 L 8.789062 12.902344 L 8.789062 50.425781 L 46.3125 50.425781 Z M 46.3125 12.902344 "/>
</g>
</g>
</g>
<path style=" stroke:none;fill-rule:nonzero;fill:rgb(12.860107%,11.213684%,11.195374%);fill-opacity:1;" d="M 35.007812 37.425781 C 35.410156 38.511719 34.386719 39.113281 33.644531 39.742188 C 31.332031 41.121094 30.808594 41.902344 27.589844 42.558594 C 24.316406 41.953125 21.914062 40.257812 19.910156 38.65625 C 19.738281 38.308594 19.738281 37.851562 19.738281 37.398438 C 26.007812 40.824219 28.964844 40.914062 35.007812 37.425781 "/>
<path style=" stroke:none;fill-rule:nonzero;fill:rgb(12.860107%,11.213684%,11.195374%);fill-opacity:1;" d="M 31.117188 41.863281 C 32.777344 43.980469 34.050781 46.550781 33.992188 49.355469 C 30.011719 50.917969 24.34375 50.726562 20.566406 49.007812 C 20.453125 46.207031 22.078125 44.039062 23.566406 41.863281 C 25.683594 43.238281 28.941406 43.238281 31.117188 41.863281 "/>
<path style=" stroke:none;fill-rule:nonzero;fill:rgb(12.860107%,11.213684%,11.195374%);fill-opacity:1;" d="M 27.394531 1.628906 C 27.476562 5.496094 26.992188 8.941406 26.820312 12.605469 C 26.269531 13.890625 22.792969 14.535156 21.878906 16.765625 C 21.25 18.425781 21.382812 17.980469 20.996094 19.941406 C 20.9375 20.238281 20.890625 20.484375 20.890625 20.71875 C 20.890625 23.800781 25.59375 21.929688 26.976562 23.683594 L 27.082031 24.308594 C 25.195312 23.507812 22.917969 25.238281 21.203125 23.632812 C 20.859375 24.035156 20.722656 24.472656 20.839844 24.984375 C 22.210938 26.703125 26.019531 24.148438 26.976562 26.441406 C 25.324219 26.847656 23.304688 26.378906 21.359375 26.492188 C 21.007812 26.59375 20.753906 26.691406 20.683594 27.015625 C 20.640625 27.429688 20.742188 27.660156 20.941406 28.003906 C 23.003906 27.257812 25.074219 28.199219 27.132812 28.316406 C 25.761719 29.917969 22.820312 28.480469 21.046875 29.511719 C 20.65625 29.898438 20.550781 30.664062 20.839844 31.175781 C 22.4375 30.835938 24.53125 30.191406 26.351562 30.398438 C 26.125 33.199219 22.554688 32.902344 20.839844 33.933594 C 22.042969 35.363281 24.230469 34.105469 25.832031 34.507812 C 25.089844 35.820312 24.304688 37.070312 23.960938 38.613281 C 25.605469 40.046875 27.035156 39.8125 27.394531 39.8125 C 27.75 39.8125 29.417969 39.933594 30.671875 38.71875 C 30.382812 37.171875 29.816406 35.765625 28.902344 34.507812 C 30.617188 33.992188 32.96875 35.480469 34 33.933594 C 33.140625 33.476562 32.101562 33.445312 31.242188 33.101562 C 29.699219 32.929688 29.390625 31.417969 28.589844 30.449219 C 30.59375 29.988281 32.445312 31.003906 34.105469 31.175781 C 34.21875 27.171875 29.585938 30.429688 27.808594 28.316406 C 29.929688 28.199219 32.046875 27.257812 34.105469 28.003906 C 34.046875 27.601562 34.300781 26.984375 33.84375 26.753906 C 31.785156 26.238281 29.976562 27.132812 27.863281 26.441406 C 29.179688 24.78125 31.328125 26.222656 33.273438 25.765625 C 34.074219 25.710938 34.21875 24.632812 34.105469 23.945312 C 32.59375 25.503906 29.859375 23.636719 27.914062 24.308594 C 28.027344 24.140625 28.003906 23.910156 28.171875 23.738281 C 29.570312 21.96875 34.34375 23.914062 34.261719 20.71875 C 34.253906 20.503906 34.261719 20.304688 34.210938 20.042969 C 33.824219 18.082031 33.902344 18.527344 33.273438 16.871094 C 32.359375 14.640625 28.929688 13.941406 28.382812 12.65625 C 28.039062 9.050781 27.894531 7.0625 27.914062 1.628906 L 27.394531 1.628906 "/>
</g>
</svg>
