<?xml version="1.0" encoding="UTF-8"?>
<svg xmlns="http://www.w3.org/2000/svg" xmlns:xlink="http://www.w3.org/1999/xlink" width="56pt" height="56pt" viewBox="0 0 56 56" version="1.1">
<g id="surface1">
<rect x="0" y="0" width="56" height="56" style="fill:rgb(95.666504%,95.776367%,96.775818%);fill-opacity:1;stroke:none;"/>
<path style=" stroke:none;fill-rule:nonzero;fill:rgb(14.328003%,19.334412%,40.420532%);fill-opacity:1;" d="M 26.601562 37.113281 C 26.523438 37.28125 26.449219 37.453125 26.359375 37.617188 C 25.226562 39.699219 23.824219 41.578125 22.09375 43.210938 C 22.078125 43.222656 22.0625 43.242188 22.035156 43.273438 C 22.097656 43.355469 22.160156 43.445312 22.226562 43.523438 C 23.257812 44.78125 24.464844 45.847656 25.773438 46.800781 C 27.585938 48.125 29.539062 49.1875 31.664062 49.914062 C 32.429688 50.171875 33.21875 50.363281 33.996094 50.585938 C 34.023438 50.59375 34.046875 50.605469 34.074219 50.613281 C 33.992188 50.613281 33.914062 50.613281 33.835938 50.613281 C 33.476562 50.582031 33.117188 50.550781 32.757812 50.519531 C 31.25 50.394531 29.757812 50.179688 28.277344 49.890625 C 27.730469 49.78125 27.183594 49.652344 26.640625 49.53125 C 26.09375 49.179688 25.542969 48.835938 25.007812 48.46875 C 24.5 48.117188 24.003906 47.757812 23.515625 47.378906 C 22.816406 46.832031 22.15625 46.246094 21.542969 45.597656 C 21.085938 45.113281 20.671875 44.601562 20.289062 44.066406 C 20.214844 43.957031 20.21875 43.902344 20.339844 43.828125 C 21.339844 43.21875 22.257812 42.507812 23.09375 41.691406 C 23.472656 41.320312 23.855469 40.945312 24.199219 40.542969 C 24.597656 40.074219 24.957031 39.574219 25.335938 39.085938 C 25.710938 38.496094 26.085938 37.90625 26.460938 37.320312 C 26.503906 37.25 26.554688 37.183594 26.601562 37.113281 "/>
<path style=" stroke:none;fill-rule:nonzero;fill:rgb(14.328003%,19.334412%,40.420532%);fill-opacity:1;" d="M 22.929688 34.941406 C 22.738281 31.542969 21.539062 28.5625 19.210938 26.0625 C 17.867188 24.625 16.261719 23.566406 14.433594 22.839844 C 14.554688 22.847656 14.675781 22.859375 14.796875 22.871094 C 14.84375 22.894531 14.886719 22.921875 14.933594 22.933594 C 15.683594 23.132812 16.441406 23.304688 17.179688 23.53125 C 17.800781 23.722656 18.410156 23.953125 19.007812 24.207031 C 19.609375 24.46875 20.183594 24.792969 20.707031 25.195312 C 21.199219 25.574219 21.695312 25.949219 22.160156 26.359375 C 22.585938 26.734375 22.984375 27.144531 23.371094 27.566406 C 23.667969 27.890625 23.9375 28.242188 24.195312 28.597656 C 24.464844 28.980469 24.707031 29.382812 24.960938 29.777344 C 25.21875 30.339844 25.496094 30.894531 25.730469 31.46875 C 25.902344 31.890625 26.015625 32.335938 26.152344 32.769531 C 26.195312 32.957031 26.234375 33.144531 26.277344 33.328125 C 26.308594 33.449219 26.277344 33.519531 26.152344 33.558594 C 26.015625 33.605469 25.882812 33.667969 25.746094 33.722656 C 25.25 33.960938 24.75 34.199219 24.25 34.433594 C 23.828125 34.675781 23.40625 34.917969 22.980469 35.167969 C 22.960938 35.085938 22.945312 35.015625 22.929688 34.941406 "/>
<path style=" stroke:none;fill-rule:nonzero;fill:rgb(93.278503%,15.214539%,15.551758%);fill-opacity:1;" d="M 25.335938 39.085938 C 24.957031 39.574219 24.597656 40.074219 24.199219 40.542969 C 23.855469 40.945312 23.472656 41.320312 23.09375 41.691406 C 22.257812 42.507812 21.339844 43.21875 20.339844 43.828125 C 20.21875 43.902344 20.214844 43.957031 20.289062 44.066406 C 20.671875 44.601562 21.085938 45.113281 21.542969 45.597656 C 22.15625 46.246094 22.816406 46.832031 23.515625 47.378906 C 24.003906 47.757812 24.5 48.117188 25.007812 48.46875 C 25.542969 48.835938 26.09375 49.179688 26.640625 49.53125 C 26.949219 49.722656 27.253906 49.914062 27.566406 50.097656 C 27.839844 50.253906 28.117188 50.402344 28.382812 50.585938 C 28.089844 50.519531 27.800781 50.453125 27.511719 50.382812 C 25.300781 49.839844 23.136719 49.167969 21.046875 48.257812 C 19.863281 47.738281 18.714844 47.152344 17.699219 46.335938 C 17.378906 46.082031 17.09375 45.789062 16.804688 45.503906 C 16.746094 45.445312 16.710938 45.324219 16.71875 45.234375 C 16.746094 44.953125 16.800781 44.675781 16.84375 44.394531 C 16.933594 44.347656 17.019531 44.285156 17.113281 44.253906 C 17.804688 44.011719 18.503906 43.777344 19.195312 43.535156 C 19.824219 43.320312 20.429688 43.058594 20.964844 42.65625 C 21.398438 42.328125 21.6875 41.910156 21.757812 41.363281 C 21.789062 41.097656 21.789062 40.824219 21.804688 40.554688 C 22.792969 39.605469 24.050781 39.320312 25.335938 39.085938 "/>
<path style=" stroke:none;fill-rule:nonzero;fill:rgb(14.328003%,19.334412%,40.420532%);fill-opacity:1;" d="M 15.519531 20.878906 C 16.332031 20.625 17.085938 20.253906 17.722656 19.679688 C 18.320312 19.140625 18.777344 18.507812 18.953125 17.710938 C 19.011719 17.445312 18.992188 17.160156 18.972656 16.886719 C 18.964844 16.773438 18.875 16.648438 18.792969 16.550781 C 18.683594 16.425781 18.648438 16.296875 18.710938 16.148438 C 18.746094 16.054688 18.738281 15.988281 18.671875 15.90625 C 18.53125 15.726562 18.53125 15.527344 18.664062 15.339844 C 18.703125 15.285156 18.746094 15.226562 18.800781 15.191406 C 19.15625 14.972656 19.234375 14.621094 19.199219 14.261719 C 19.148438 13.742188 19.039062 13.234375 18.957031 12.71875 C 18.941406 12.625 18.894531 12.597656 18.804688 12.621094 C 18.070312 12.792969 17.507812 13.175781 17.242188 13.914062 C 17.128906 14.222656 17.160156 14.339844 17.410156 14.550781 C 17.820312 14.898438 17.746094 15.429688 17.25 15.640625 C 16.867188 15.804688 16.46875 15.78125 16.066406 15.71875 C 15.800781 15.675781 15.53125 15.679688 15.261719 15.660156 C 15.191406 15.65625 15.125 15.636719 15.054688 15.621094 C 15.066406 15.558594 15.070312 15.488281 15.09375 15.433594 C 15.320312 14.972656 15.652344 14.625 16.136719 14.4375 C 16.222656 14.40625 16.304688 14.371094 16.386719 14.328125 C 16.558594 14.238281 16.589844 14.140625 16.496094 13.96875 C 16.355469 13.707031 16.125 13.542969 15.878906 13.398438 C 15.785156 13.339844 15.683594 13.289062 15.535156 13.203125 C 15.789062 13.015625 16.007812 12.824219 16.25 12.683594 C 18.078125 11.613281 20.800781 12.207031 21.691406 14.675781 C 21.84375 15.097656 21.914062 15.550781 22.003906 15.996094 C 22.121094 16.582031 22.332031 17.113281 22.832031 17.484375 C 22.949219 17.574219 23.050781 17.683594 23.15625 17.785156 C 23.121094 17.839844 23.089844 17.902344 23.046875 17.949219 C 22.4375 18.574219 21.695312 19.007812 20.914062 19.375 C 19.96875 19.816406 18.976562 20.132812 17.96875 20.398438 C 17.355469 20.535156 16.746094 20.679688 16.132812 20.808594 C 15.929688 20.847656 15.722656 20.855469 15.519531 20.878906 "/>
<path style=" stroke:none;fill-rule:nonzero;fill:rgb(53.857422%,81.149292%,14.474487%);fill-opacity:1;" d="M 26.152344 32.769531 C 26.015625 32.335938 25.902344 31.890625 25.730469 31.46875 C 25.496094 30.894531 25.21875 30.339844 24.960938 29.777344 C 24.984375 29.722656 25 29.65625 25.039062 29.613281 C 25.234375 29.394531 25.433594 29.183594 25.632812 28.96875 C 25.683594 28.914062 25.757812 28.863281 25.769531 28.800781 C 25.816406 28.523438 25.886719 28.242188 25.867188 27.964844 C 25.835938 27.46875 25.734375 26.980469 25.539062 26.519531 C 25.535156 26.460938 25.546875 26.394531 25.523438 26.34375 C 25.460938 26.226562 25.394531 26.105469 25.308594 26.003906 C 25.183594 25.855469 25.089844 25.695312 24.929688 25.5625 C 24.464844 25.183594 23.921875 25.050781 23.355469 24.945312 C 23.039062 24.886719 22.71875 24.835938 22.414062 24.742188 C 21.871094 24.578125 21.511719 24.230469 21.417969 23.652344 C 21.398438 23.542969 21.378906 23.429688 21.359375 23.320312 C 21.375 23.117188 21.367188 22.914062 21.402344 22.71875 C 21.46875 22.351562 21.492188 21.96875 21.734375 21.65625 C 21.851562 21.445312 22.027344 21.308594 22.257812 21.246094 C 22.355469 21.222656 22.453125 21.203125 22.550781 21.179688 C 22.785156 21.230469 23.023438 21.269531 23.253906 21.339844 C 23.757812 21.488281 24.1875 21.777344 24.554688 22.136719 C 24.9375 22.503906 25.300781 22.90625 25.605469 23.339844 C 25.929688 23.804688 26.179688 24.320312 26.460938 24.816406 C 26.515625 24.945312 26.589844 25.066406 26.628906 25.199219 C 26.71875 25.488281 26.78125 25.78125 26.867188 26.070312 C 26.894531 26.15625 26.960938 26.234375 27.007812 26.316406 C 27.132812 27.011719 27.15625 27.710938 27.144531 28.414062 C 27.101562 28.632812 27.054688 28.84375 27.015625 29.0625 C 26.882812 29.777344 26.984375 30.464844 27.320312 31.101562 C 27.535156 31.523438 27.804688 31.917969 28.050781 32.324219 C 28.054688 32.347656 28.054688 32.375 28.058594 32.398438 C 28 32.769531 27.941406 33.140625 27.878906 33.511719 C 27.855469 33.660156 27.8125 33.808594 27.777344 33.957031 C 27.71875 33.929688 27.660156 33.894531 27.597656 33.875 C 27.234375 33.78125 26.929688 33.589844 26.675781 33.3125 C 26.507812 33.128906 26.328125 32.949219 26.152344 32.769531 "/>
<path style=" stroke:none;fill-rule:nonzero;fill:rgb(93.278503%,15.214539%,15.551758%);fill-opacity:1;" d="M 25.539062 26.519531 C 25.734375 26.980469 25.835938 27.46875 25.867188 27.964844 C 25.886719 28.242188 25.816406 28.523438 25.769531 28.800781 C 25.757812 28.863281 25.683594 28.914062 25.632812 28.96875 C 25.433594 29.183594 25.234375 29.394531 25.039062 29.613281 C 25 29.65625 24.984375 29.722656 24.960938 29.777344 C 24.707031 29.382812 24.464844 28.980469 24.195312 28.597656 C 23.9375 28.242188 23.667969 27.890625 23.371094 27.566406 C 22.984375 27.144531 22.585938 26.734375 22.160156 26.359375 C 21.695312 25.949219 21.199219 25.574219 20.707031 25.195312 C 20.183594 24.792969 19.609375 24.46875 19.007812 24.207031 C 18.410156 23.953125 17.800781 23.722656 17.179688 23.53125 C 16.441406 23.304688 15.683594 23.132812 14.933594 22.933594 C 14.886719 22.921875 14.84375 22.894531 14.796875 22.871094 C 14.582031 22.597656 14.445312 22.285156 14.375 21.945312 C 14.320312 21.667969 14.273438 21.390625 14.394531 21.117188 C 14.769531 21.039062 15.144531 20.960938 15.519531 20.878906 C 15.722656 20.855469 15.929688 20.847656 16.132812 20.808594 C 16.746094 20.679688 17.355469 20.535156 17.96875 20.398438 C 18.046875 20.492188 18.128906 20.585938 18.207031 20.683594 C 18.441406 20.960938 18.675781 21.242188 18.910156 21.523438 C 19.003906 21.652344 19.097656 21.777344 19.191406 21.902344 C 19.4375 22.21875 19.683594 22.53125 19.929688 22.847656 C 19.9375 22.867188 19.945312 22.890625 19.957031 22.910156 C 20.414062 23.503906 20.863281 24.109375 21.332031 24.695312 C 21.875 25.378906 22.554688 25.878906 23.375 26.1875 C 24.074219 26.449219 24.800781 26.527344 25.539062 26.519531 "/>
<path style=" stroke:none;fill-rule:nonzero;fill:rgb(97.045898%,59.899902%,20.144653%);fill-opacity:1;" d="M 26.152344 32.769531 C 26.328125 32.949219 26.507812 33.128906 26.675781 33.3125 C 26.929688 33.589844 27.234375 33.78125 27.597656 33.875 C 27.660156 33.894531 27.71875 33.929688 27.777344 33.957031 C 27.617188 34.703125 27.371094 35.421875 27.0625 36.117188 C 26.953125 36.367188 26.855469 36.621094 26.746094 36.867188 C 26.710938 36.953125 26.652344 37.03125 26.601562 37.113281 C 26.554688 37.183594 26.503906 37.25 26.460938 37.320312 C 26.085938 37.90625 25.710938 38.496094 25.335938 39.085938 C 24.050781 39.320312 22.792969 39.605469 21.804688 40.554688 C 21.726562 40.640625 21.648438 40.730469 21.5625 40.808594 C 21.261719 41.097656 20.859375 41.300781 20.792969 41.773438 C 20.789062 41.785156 20.78125 41.796875 20.773438 41.804688 C 20.554688 42.023438 20.347656 42.257812 20.109375 42.457031 C 19.6875 42.804688 19.171875 42.90625 18.640625 42.933594 C 18.648438 42.890625 18.667969 42.84375 18.660156 42.804688 C 18.652344 42.761719 18.597656 42.734375 18.589844 42.691406 C 18.503906 42.402344 18.398438 42.109375 18.351562 41.8125 C 18.277344 41.304688 18.382812 40.835938 18.761719 40.453125 C 19.117188 40.09375 19.597656 39.953125 20.011719 39.695312 C 20.03125 39.683594 20.058594 39.679688 20.078125 39.683594 C 20.234375 39.695312 20.328125 39.621094 20.347656 39.511719 C 20.402344 39.535156 20.464844 39.585938 20.511719 39.574219 C 21.011719 39.441406 21.511719 39.296875 22.011719 39.15625 C 22.757812 38.976562 23.496094 38.761719 24.191406 38.417969 C 24.808594 38.117188 25.335938 37.714844 25.613281 37.050781 C 25.808594 36.589844 25.890625 36.105469 25.910156 35.613281 C 25.921875 35.390625 25.894531 35.164062 25.882812 34.941406 C 25.855469 34.617188 25.828125 34.292969 25.796875 33.972656 C 25.789062 33.890625 25.765625 33.808594 25.746094 33.722656 C 25.882812 33.667969 26.015625 33.605469 26.152344 33.558594 C 26.277344 33.519531 26.308594 33.449219 26.277344 33.328125 C 26.234375 33.144531 26.195312 32.957031 26.152344 32.769531 "/>
<path style=" stroke:none;fill-rule:nonzero;fill:rgb(14.328003%,19.334412%,40.420532%);fill-opacity:1;" d="M 39.820312 10.207031 C 39.820312 10.125 39.816406 10.058594 39.820312 9.992188 C 39.933594 8.71875 39.847656 7.457031 39.65625 6.199219 C 39.636719 6.066406 39.667969 6.011719 39.796875 5.96875 C 40.292969 5.8125 40.78125 5.625 41.28125 5.476562 C 42.457031 5.125 43.660156 5.816406 43.953125 6.996094 C 44.238281 8.167969 43.492188 9.320312 42.296875 9.589844 C 41.515625 9.761719 40.738281 9.976562 39.960938 10.171875 C 39.917969 10.183594 39.878906 10.191406 39.820312 10.207031 "/>
<path style=" stroke:none;fill-rule:nonzero;fill:rgb(30.844116%,53.726196%,81.278992%);fill-opacity:1;" d="M 22.011719 39.15625 C 21.511719 39.296875 21.011719 39.441406 20.511719 39.574219 C 20.464844 39.585938 20.402344 39.535156 20.347656 39.511719 C 20.328125 39.621094 20.234375 39.695312 20.078125 39.683594 C 20.058594 39.679688 20.03125 39.683594 20.011719 39.695312 C 19.597656 39.953125 19.117188 40.09375 18.761719 40.453125 C 18.382812 40.835938 18.277344 41.304688 18.351562 41.8125 C 18.398438 42.109375 18.503906 42.402344 18.589844 42.691406 C 18.597656 42.734375 18.652344 42.761719 18.660156 42.804688 C 18.667969 42.84375 18.648438 42.890625 18.640625 42.933594 C 18.382812 42.980469 18.121094 43.019531 17.867188 43.078125 C 17.609375 43.132812 17.335938 43.128906 17.113281 43.304688 C 17.335938 42.683594 17.519531 42.046875 17.78125 41.441406 C 18.570312 39.59375 19.710938 37.988281 21.191406 36.636719 C 21.65625 36.214844 22.152344 35.828125 22.648438 35.445312 C 22.828125 35.308594 22.972656 35.1875 22.929688 34.941406 C 22.945312 35.015625 22.960938 35.085938 22.980469 35.167969 C 23.40625 34.917969 23.828125 34.675781 24.25 34.433594 C 24.230469 34.691406 24.203125 34.945312 24.191406 35.199219 C 24.191406 35.246094 24.25 35.296875 24.28125 35.347656 C 23.007812 36.308594 22.378906 37.65625 22.011719 39.15625 "/>
<path style=" stroke:none;fill-rule:nonzero;fill:rgb(30.844116%,53.726196%,81.278992%);fill-opacity:1;" d="M 18.910156 21.523438 C 18.675781 21.242188 18.441406 20.960938 18.207031 20.683594 C 18.128906 20.585938 18.046875 20.492188 17.96875 20.398438 C 18.976562 20.132812 19.96875 19.816406 20.914062 19.375 C 21.695312 19.007812 22.4375 18.574219 23.046875 17.949219 C 23.089844 17.902344 23.121094 17.839844 23.15625 17.785156 C 23.617188 18.28125 24.078125 18.777344 24.535156 19.273438 C 24.558594 19.300781 24.578125 19.339844 24.597656 19.375 C 24.554688 19.402344 24.496094 19.421875 24.46875 19.464844 C 24.101562 19.992188 23.667969 20.453125 23.171875 20.859375 C 23.011719 20.988281 22.859375 21.175781 22.605469 21.140625 C 22.589844 21.140625 22.570312 21.164062 22.550781 21.179688 C 22.453125 21.203125 22.355469 21.222656 22.257812 21.246094 C 22.027344 21.308594 21.851562 21.445312 21.734375 21.65625 C 21.710938 21.644531 21.679688 21.621094 21.667969 21.628906 C 21.335938 21.804688 20.972656 21.757812 20.628906 21.742188 C 20.113281 21.722656 19.601562 21.648438 19.109375 21.46875 C 19.054688 21.449219 18.976562 21.503906 18.910156 21.523438 "/>
<path style=" stroke:none;fill-rule:nonzero;fill:rgb(14.328003%,19.334412%,40.420532%);fill-opacity:1;" d="M 34.675781 8.378906 C 35.621094 7.867188 36.535156 7.375 37.484375 6.863281 C 37.632812 7.183594 37.769531 7.453125 37.886719 7.734375 C 38.25 8.613281 38.484375 9.535156 38.691406 10.464844 C 38.710938 10.550781 38.71875 10.617188 38.605469 10.660156 C 37.675781 11.027344 36.785156 11.46875 35.9375 11.996094 C 35.917969 12.007812 35.898438 12.011719 35.855469 12.027344 C 35.765625 10.730469 35.382812 9.53125 34.675781 8.378906 "/>
<path style=" stroke:none;fill-rule:nonzero;fill:rgb(14.328003%,19.334412%,40.420532%);fill-opacity:1;" d="M 33.140625 9.605469 C 33.882812 10.542969 34.476562 11.546875 34.976562 12.59375 C 34.335938 13.160156 33.699219 13.71875 33.054688 14.285156 C 32.507812 13.414062 31.929688 12.542969 31.035156 11.910156 C 31.65625 11.0625 32.351562 10.308594 33.140625 9.605469 "/>
<path style=" stroke:none;fill-rule:nonzero;fill:rgb(97.045898%,59.899902%,20.144653%);fill-opacity:1;" d="M 22.550781 21.179688 C 22.570312 21.164062 22.589844 21.140625 22.605469 21.140625 C 22.859375 21.175781 23.011719 20.988281 23.171875 20.859375 C 23.667969 20.453125 24.101562 19.992188 24.46875 19.464844 C 24.496094 19.421875 24.554688 19.402344 24.597656 19.375 C 24.871094 19.738281 25.164062 20.09375 25.421875 20.472656 C 26.226562 21.652344 26.863281 22.921875 27.328125 24.273438 C 27.339844 24.308594 27.363281 24.34375 27.382812 24.378906 C 27.378906 24.398438 27.378906 24.417969 27.378906 24.441406 C 27.335938 24.472656 27.296875 24.527344 27.25 24.535156 C 27.074219 24.570312 26.890625 24.609375 26.714844 24.605469 C 26.546875 24.601562 26.457031 24.640625 26.460938 24.816406 C 26.179688 24.320312 25.929688 23.804688 25.605469 23.339844 C 25.300781 22.90625 24.9375 22.503906 24.554688 22.136719 C 24.1875 21.777344 23.757812 21.488281 23.253906 21.339844 C 23.023438 21.269531 22.785156 21.230469 22.550781 21.179688 "/>
<path style=" stroke:none;fill-rule:nonzero;fill:rgb(14.328003%,19.334412%,40.420532%);fill-opacity:1;" d="M 32.203125 15.34375 C 31.917969 15.777344 31.648438 16.183594 31.371094 16.609375 C 30.660156 16.125 29.917969 15.707031 29.035156 15.476562 C 29.378906 14.765625 29.710938 14.074219 30.054688 13.355469 C 30.886719 13.941406 31.582031 14.597656 32.203125 15.34375 "/>
<path style=" stroke:none;fill-rule:nonzero;fill:rgb(14.328003%,19.334412%,40.420532%);fill-opacity:1;" d="M 27.378906 24.441406 C 27.378906 24.417969 27.378906 24.398438 27.382812 24.378906 C 27.765625 24.410156 28.117188 24.546875 28.449219 24.734375 C 28.664062 24.851562 28.863281 24.992188 29.070312 25.117188 C 29.15625 25.171875 29.183594 25.234375 29.167969 25.34375 C 28.929688 26.945312 28.703125 28.550781 28.460938 30.15625 C 28.355469 30.859375 28.230469 31.5625 28.113281 32.265625 C 28.105469 32.308594 28.078125 32.351562 28.058594 32.398438 C 28.054688 32.375 28.054688 32.347656 28.050781 32.324219 C 28.214844 31.085938 28.28125 29.84375 28.1875 28.597656 C 28.179688 28.4375 28.179688 28.28125 28.160156 28.125 C 28.058594 27.449219 27.953125 26.777344 27.847656 26.101562 C 27.832031 26.03125 27.816406 25.960938 27.796875 25.886719 C 27.65625 25.40625 27.519531 24.921875 27.378906 24.441406 "/>
<path style=" stroke:none;fill-rule:nonzero;fill:rgb(30.844116%,53.726196%,81.278992%);fill-opacity:1;" d="M 14.394531 21.117188 C 14.273438 21.390625 14.320312 21.667969 14.375 21.945312 C 14.445312 22.285156 14.582031 22.597656 14.796875 22.871094 C 14.675781 22.859375 14.554688 22.847656 14.433594 22.839844 C 12.246094 22.183594 10.0625 21.519531 7.988281 20.539062 C 8.320312 20.617188 8.652344 20.699219 8.988281 20.777344 C 10.421875 21.101562 11.875 21.261719 13.347656 21.207031 C 13.699219 21.195312 14.046875 21.148438 14.394531 21.117188 "/>
<path style=" stroke:none;fill-rule:nonzero;fill:rgb(14.328003%,19.334412%,40.420532%);fill-opacity:1;" d="M 28.476562 17.128906 C 28.808594 17.238281 29.121094 17.300781 29.402344 17.441406 C 29.78125 17.632812 30.136719 17.878906 30.503906 18.101562 C 30.597656 18.160156 30.609375 18.230469 30.570312 18.34375 C 30.40625 18.792969 30.257812 19.25 30.09375 19.722656 C 29.441406 19.402344 28.746094 19.203125 27.980469 19.144531 C 28.148438 18.46875 28.308594 17.820312 28.476562 17.128906 "/>
<path style=" stroke:none;fill-rule:nonzero;fill:rgb(14.328003%,19.334412%,40.420532%);fill-opacity:1;" d="M 29.429688 23.3125 C 28.808594 23.082031 28.167969 22.9375 27.46875 22.9375 C 27.554688 22.152344 27.640625 21.386719 27.726562 20.601562 C 28.085938 20.660156 28.390625 20.777344 28.667969 20.949219 C 28.996094 21.148438 29.304688 21.378906 29.617188 21.601562 C 29.660156 21.632812 29.703125 21.703125 29.695312 21.75 C 29.621094 22.253906 29.539062 22.757812 29.460938 23.257812 C 29.457031 23.273438 29.445312 23.285156 29.429688 23.3125 "/>
<path style=" stroke:none;fill-rule:nonzero;fill:rgb(53.857422%,81.149292%,14.474487%);fill-opacity:1;" d="M 17.113281 43.304688 C 17.335938 43.128906 17.609375 43.132812 17.867188 43.078125 C 18.121094 43.019531 18.382812 42.980469 18.640625 42.933594 C 19.171875 42.90625 19.6875 42.804688 20.109375 42.457031 C 20.347656 42.257812 20.554688 42.023438 20.773438 41.804688 C 20.78125 41.796875 20.789062 41.785156 20.792969 41.773438 C 20.859375 41.300781 21.261719 41.097656 21.5625 40.808594 C 21.648438 40.730469 21.726562 40.640625 21.804688 40.554688 C 21.789062 40.824219 21.789062 41.097656 21.757812 41.363281 C 21.6875 41.910156 21.398438 42.328125 20.964844 42.65625 C 20.429688 43.058594 19.824219 43.320312 19.195312 43.535156 C 18.503906 43.777344 17.804688 44.011719 17.113281 44.253906 C 17.019531 44.285156 16.933594 44.347656 16.84375 44.394531 C 16.933594 44.03125 17.023438 43.667969 17.113281 43.304688 "/>
<path style=" stroke:none;fill-rule:nonzero;fill:rgb(14.328003%,19.334412%,40.420532%);fill-opacity:1;" d="M 15.113281 17.335938 C 14.699219 17.265625 14.285156 17.210938 13.878906 17.121094 C 13.640625 17.070312 13.445312 16.921875 13.441406 16.652344 C 13.4375 16.519531 13.484375 16.367188 13.558594 16.261719 C 13.695312 16.078125 13.867188 15.917969 14.035156 15.757812 C 14.070312 15.71875 14.15625 15.6875 14.191406 15.707031 C 14.230469 15.722656 14.246094 15.804688 14.253906 15.859375 C 14.261719 15.90625 14.242188 15.960938 14.238281 16.011719 C 14.207031 16.308594 14.300781 16.492188 14.585938 16.59375 C 14.925781 16.71875 15.273438 16.816406 15.617188 16.925781 C 15.660156 16.941406 15.714844 16.9375 15.746094 16.964844 C 15.792969 17.011719 15.867188 17.082031 15.855469 17.125 C 15.84375 17.183594 15.769531 17.261719 15.710938 17.269531 C 15.515625 17.296875 15.316406 17.296875 15.117188 17.304688 C 15.117188 17.316406 15.113281 17.324219 15.113281 17.335938 "/>
<path style=" stroke:none;fill-rule:nonzero;fill:rgb(53.857422%,81.149292%,14.474487%);fill-opacity:1;" d="M 24.28125 35.347656 C 24.25 35.296875 24.191406 35.246094 24.191406 35.199219 C 24.203125 34.945312 24.230469 34.691406 24.25 34.433594 C 24.75 34.199219 25.25 33.960938 25.746094 33.722656 C 25.765625 33.808594 25.789062 33.890625 25.796875 33.972656 C 25.828125 34.292969 25.855469 34.617188 25.882812 34.941406 C 25.535156 34.9375 25.191406 34.949219 24.867188 35.082031 C 24.667969 35.160156 24.476562 35.261719 24.28125 35.347656 "/>
<path style=" stroke:none;fill-rule:nonzero;fill:rgb(30.844116%,53.726196%,81.278992%);fill-opacity:1;" d="M 25.539062 26.519531 C 24.800781 26.527344 24.074219 26.449219 23.375 26.1875 C 22.554688 25.878906 21.875 25.378906 21.332031 24.695312 C 20.863281 24.109375 20.414062 23.503906 19.957031 22.910156 C 19.945312 22.890625 19.9375 22.867188 19.929688 22.847656 C 19.933594 22.808594 19.9375 22.773438 19.941406 22.730469 C 20.253906 22.871094 20.558594 23.015625 20.871094 23.148438 C 21.03125 23.21875 21.199219 23.265625 21.359375 23.320312 C 21.378906 23.429688 21.398438 23.542969 21.417969 23.652344 C 21.511719 24.230469 21.871094 24.578125 22.414062 24.742188 C 22.71875 24.835938 23.039062 24.886719 23.355469 24.945312 C 23.921875 25.050781 24.464844 25.183594 24.929688 25.5625 C 25.089844 25.695312 25.183594 25.855469 25.308594 26.003906 C 25.394531 26.105469 25.460938 26.226562 25.523438 26.34375 C 25.546875 26.394531 25.535156 26.460938 25.539062 26.519531 "/>
<path style=" stroke:none;fill-rule:nonzero;fill:rgb(30.844116%,53.726196%,81.278992%);fill-opacity:1;" d="M 28.1875 28.597656 C 28.28125 29.84375 28.214844 31.085938 28.050781 32.324219 C 27.804688 31.917969 27.535156 31.523438 27.320312 31.101562 C 26.984375 30.464844 26.882812 29.777344 27.015625 29.0625 C 27.054688 28.84375 27.101562 28.632812 27.144531 28.414062 C 27.226562 28.425781 27.3125 28.425781 27.394531 28.441406 C 27.660156 28.492188 27.921875 28.542969 28.1875 28.597656 "/>
<path style=" stroke:none;fill-rule:nonzero;fill:rgb(97.045898%,59.899902%,20.144653%);fill-opacity:1;" d="M 21.359375 23.320312 C 21.199219 23.265625 21.03125 23.21875 20.871094 23.148438 C 20.558594 23.015625 20.253906 22.871094 19.941406 22.730469 C 19.9375 22.773438 19.933594 22.808594 19.929688 22.847656 C 19.683594 22.53125 19.4375 22.21875 19.191406 21.902344 C 19.097656 21.777344 19.003906 21.652344 18.910156 21.523438 C 18.976562 21.503906 19.054688 21.449219 19.109375 21.46875 C 19.601562 21.648438 20.113281 21.722656 20.628906 21.742188 C 20.972656 21.757812 21.335938 21.804688 21.667969 21.628906 C 21.679688 21.621094 21.710938 21.644531 21.734375 21.65625 C 21.492188 21.96875 21.46875 22.351562 21.402344 22.71875 C 21.367188 22.914062 21.375 23.117188 21.359375 23.320312 "/>
<path style=" stroke:none;fill-rule:nonzero;fill:rgb(93.278503%,15.214539%,15.551758%);fill-opacity:1;" d="M 28.1875 28.597656 C 27.921875 28.542969 27.660156 28.492188 27.394531 28.441406 C 27.3125 28.425781 27.226562 28.425781 27.144531 28.414062 C 27.15625 27.710938 27.132812 27.011719 27.007812 26.316406 C 27.289062 26.242188 27.570312 26.171875 27.847656 26.101562 C 27.953125 26.777344 28.058594 27.449219 28.160156 28.125 C 28.179688 28.28125 28.179688 28.4375 28.1875 28.597656 "/>
<path style=" stroke:none;fill-rule:nonzero;fill:rgb(30.844116%,53.726196%,81.278992%);fill-opacity:1;" d="M 27.847656 26.101562 C 27.570312 26.171875 27.289062 26.242188 27.007812 26.316406 C 26.960938 26.234375 26.894531 26.15625 26.867188 26.070312 C 26.78125 25.78125 26.71875 25.488281 26.628906 25.199219 C 26.589844 25.066406 26.515625 24.945312 26.460938 24.816406 C 26.457031 24.640625 26.546875 24.601562 26.714844 24.605469 C 26.890625 24.609375 27.074219 24.570312 27.25 24.535156 C 27.296875 24.527344 27.335938 24.472656 27.378906 24.441406 C 27.519531 24.921875 27.65625 25.40625 27.796875 25.886719 C 27.816406 25.960938 27.832031 26.03125 27.847656 26.101562 "/>
<path style=" stroke:none;fill-rule:nonzero;fill:rgb(93.278503%,15.214539%,15.551758%);fill-opacity:1;" d="M 24.28125 35.347656 C 24.476562 35.261719 24.667969 35.160156 24.867188 35.082031 C 25.191406 34.949219 25.535156 34.9375 25.882812 34.941406 C 25.894531 35.164062 25.921875 35.390625 25.910156 35.613281 C 25.890625 36.105469 25.808594 36.589844 25.613281 37.050781 C 25.335938 37.714844 24.808594 38.117188 24.191406 38.417969 C 23.496094 38.761719 22.757812 38.976562 22.011719 39.15625 C 22.378906 37.65625 23.007812 36.308594 24.28125 35.347656 "/>
</g>
</svg>
