<?xml version="1.0" encoding="UTF-8"?>
<svg xmlns="http://www.w3.org/2000/svg" xmlns:xlink="http://www.w3.org/1999/xlink" width="56pt" height="56pt" viewBox="0 0 56 56" version="1.1">
<g id="surface1">
<rect x="0" y="0" width="56" height="56" style="fill:rgb(95.66803%,95.779419%,96.777344%);fill-opacity:1;stroke:none;"/>
<path style=" stroke:none;fill-rule:evenodd;fill:rgb(77.418518%,62.541199%,10.931396%);fill-opacity:1;" d="M 5.054688 34.054688 C 5.054688 34.054688 4.46875 30.492188 8.144531 30.761719 C 8.144531 30.761719 10.355469 31.027344 12.507812 32.886719 C 12.507812 32.886719 14.503906 34.539062 16.285156 30.707031 C 16.285156 30.707031 18.210938 22.898438 20.441406 19.960938 C 22.117188 17.742188 27.199219 13.523438 33.050781 14.480469 C 33.050781 14.480469 22.390625 20.003906 23.015625 32.523438 C 23.546875 34.574219 25.191406 37.835938 27.144531 39.695312 C 27.144531 39.695312 20.214844 47.832031 12.5625 39.90625 L 8.410156 34.535156 C 8.410156 34.535156 7.296875 32.859375 5.746094 33.632812 L 5.054688 34.054688 "/>
<path style=" stroke:none;fill-rule:evenodd;fill:rgb(73.439026%,73.887634%,74.09668%);fill-opacity:1;" d="M 18.6875 31.769531 C 18.6875 31.769531 18.816406 28.527344 21.097656 28.527344 C 23.375 28.527344 24.777344 31.464844 27.539062 31.464844 C 30.296875 31.464844 31.042969 25.375 31.4375 23.753906 C 31.832031 22.128906 34.414062 12.625 46.160156 12.625 C 46.160156 12.625 36.871094 18.058594 36.871094 29.097656 C 36.871094 40.140625 49.625 42.683594 50.976562 42.683594 C 50.976562 42.683594 48.085938 43.03125 45.941406 43.03125 C 43.792969 43.03125 39.28125 42.464844 36.167969 39.835938 C 33.058594 37.207031 29.246094 37.46875 27.539062 38.695312 C 27.539062 38.695312 22.503906 28.480469 18.6875 31.769531 "/>
</g>
</svg>
