<?xml version="1.0" encoding="UTF-8"?>
<svg xmlns="http://www.w3.org/2000/svg" xmlns:xlink="http://www.w3.org/1999/xlink" width="56pt" height="56pt" viewBox="0 0 56 56" version="1.1">
<g id="surface1">
<rect x="0" y="0" width="56" height="56" style="fill:rgb(89.437866%,10.655212%,17.276001%);fill-opacity:1;stroke:none;"/>
<path style=" stroke:none;fill-rule:nonzero;fill:rgb(100%,100%,100%);fill-opacity:1;" d="M 25.554688 20.066406 C 26.054688 20.324219 26.550781 20.585938 27.039062 20.847656 C 34.816406 25.011719 41.425781 29.640625 45.019531 33.683594 C 48.035156 33.507812 50 33.324219 50 33.324219 C 48.570312 33.738281 47.136719 34.125 45.695312 34.484375 C 44.542969 34.769531 43.394531 35.035156 42.242188 35.285156 C 42.195312 35.296875 42.148438 35.304688 42.097656 35.316406 C 43.292969 35.058594 44.496094 34.78125 45.695312 34.484375 C 47.964844 37.308594 48.636719 39.800781 47.03125 41.574219 C 42.800781 46.242188 29.632812 45.183594 29.632812 45.183594 C 29.632812 45.183594 39.726562 43.160156 38.953125 38.023438 C 38.859375 37.410156 38.632812 36.753906 38.292969 36.066406 C 32.632812 37.078125 27.167969 37.601562 22.398438 37.601562 C 17.046875 37.601562 12.566406 36.945312 9.648438 35.574219 C 11.097656 34.128906 12.917969 32.359375 14.933594 30.507812 C 18.152344 33.296875 27.058594 33.988281 35.089844 33.988281 C 35.734375 33.988281 36.371094 33.984375 37 33.976562 C 34.320312 30.304688 29.347656 26.085938 24.597656 22.496094 C 23.492188 21.660156 22.398438 20.859375 21.347656 20.105469 C 16.574219 16.691406 12.703125 14.285156 12.703125 14.285156 C 16.128906 15.597656 19.542969 17.09375 22.816406 18.691406 C 28.46875 13.382812 33.789062 10 37.347656 10 C 38.605469 10 39.640625 10.421875 40.394531 11.332031 C 45.152344 17.0625 39.828125 28.460938 39.828125 28.460938 C 39.828125 28.460938 39.800781 18.167969 34.609375 17.929688 C 34.535156 17.925781 34.460938 17.925781 34.386719 17.925781 C 32.425781 17.925781 29.84375 19.082031 27.042969 20.847656 C 26.550781 20.585938 26.054688 20.324219 25.554688 20.066406 "/>
<path style=" stroke:none;fill-rule:nonzero;fill:rgb(100%,100%,100%);fill-opacity:1;" d="M 21.347656 20.105469 C 18.808594 22.613281 16.230469 25.480469 13.738281 28.574219 C 12.800781 24.675781 17.820312 18.984375 17.820312 18.984375 C 17.820312 18.984375 5.320312 24.949219 6.027344 31.421875 C 6.195312 32.957031 7.191406 34.191406 8.832031 35.144531 C 7.9375 36.4375 7.066406 37.753906 6.230469 39.078125 C 6.230469 39.078125 7.550781 37.664062 9.648438 35.574219 C 11.097656 34.128906 12.917969 32.359375 14.9375 30.503906 C 17.917969 27.761719 21.328125 24.839844 24.597656 22.496094 C 23.492188 21.660156 22.398438 20.859375 21.347656 20.105469 "/>
</g>
</svg>
