<?xml version="1.0" encoding="UTF-8"?>
<svg xmlns="http://www.w3.org/2000/svg" xmlns:xlink="http://www.w3.org/1999/xlink" width="56pt" height="56pt" viewBox="0 0 56 56" version="1.1">
<defs>
<clipPath id="clip1">
  <path d="M 3 16 L 53 16 L 53 40 L 3 40 Z M 3 16 "/>
</clipPath>
<clipPath id="clip2">
  <path d="M 52.769531 16.84375 C 52.679688 16.878906 52.597656 16.933594 52.507812 16.953125 C 50.613281 17.304688 48.722656 17.652344 46.832031 18.011719 C 45.90625 18.183594 44.984375 18.382812 44.0625 18.574219 C 43.078125 18.746094 42.089844 18.90625 41.105469 19.09375 C 40.273438 19.25 39.445312 19.433594 38.617188 19.605469 C 37.878906 19.726562 37.136719 19.832031 36.398438 19.96875 C 35.441406 20.148438 34.484375 20.351562 33.527344 20.542969 C 32.519531 20.734375 31.511719 20.925781 30.503906 21.117188 C 30.242188 21.15625 29.980469 21.191406 29.722656 21.238281 C 28.710938 21.429688 27.703125 21.625 26.695312 21.820312 C 25.882812 21.957031 25.070312 22.089844 24.257812 22.238281 C 23.640625 22.355469 23.023438 22.5 22.40625 22.628906 C 21.898438 22.710938 21.382812 22.777344 20.875 22.875 C 19.953125 23.050781 19.035156 23.246094 18.117188 23.429688 C 17.375 23.554688 16.636719 23.667969 15.898438 23.804688 C 14.972656 23.980469 14.050781 24.175781 13.128906 24.363281 C 12.773438 24.414062 12.410156 24.457031 12.054688 24.523438 C 9.378906 25.019531 6.707031 25.519531 4.035156 26.019531 C 3.6875 26.085938 3.34375 26.167969 3 26.242188 C 3.3125 26.363281 3.617188 26.410156 3.921875 26.449219 C 6.234375 26.746094 8.550781 27.035156 10.863281 27.335938 C 11.898438 27.46875 12.925781 27.613281 13.957031 27.75 C 14.085938 27.785156 14.214844 27.828125 14.34375 27.851562 C 15.398438 28.046875 16.453125 28.238281 17.511719 28.429688 C 17.753906 28.472656 18 28.507812 18.246094 28.542969 C 19.792969 28.929688 21.335938 29.316406 22.882812 29.699219 C 23.402344 29.886719 23.925781 30.058594 24.441406 30.261719 C 25.203125 30.5625 25.957031 30.886719 26.714844 31.203125 C 26.890625 31.308594 27.066406 31.421875 27.246094 31.523438 C 28.179688 32.050781 29.035156 32.675781 29.707031 33.527344 C 31.078125 35.453125 30.535156 37.308594 29.472656 39.15625 C 29.628906 39.082031 29.746094 38.992188 29.84375 38.890625 C 30.617188 38.03125 31.394531 37.171875 32.164062 36.3125 C 32.78125 35.625 33.398438 34.933594 34.015625 34.246094 C 34.183594 34.089844 34.355469 33.933594 34.519531 33.769531 C 35.492188 32.78125 36.464844 31.785156 37.433594 30.792969 C 37.984375 30.230469 38.535156 29.664062 39.085938 29.097656 C 39.234375 28.980469 39.394531 28.871094 39.53125 28.738281 C 40.738281 27.605469 41.949219 26.472656 43.152344 25.335938 C 43.65625 24.863281 44.15625 24.386719 44.660156 23.910156 C 45.273438 23.386719 45.890625 22.867188 46.503906 22.347656 C 48.132812 20.972656 49.761719 19.597656 51.386719 18.222656 C 51.925781 17.765625 52.464844 17.304688 53 16.84375 C 52.921875 16.84375 52.84375 16.84375 52.769531 16.84375 Z M 52.769531 16.84375 "/>
</clipPath>
<clipPath id="clip3">
  <path d="M 52.769531 16.84375 C 52.679688 16.878906 52.597656 16.933594 52.507812 16.953125 C 50.613281 17.304688 48.722656 17.652344 46.832031 18.011719 C 45.90625 18.183594 44.984375 18.382812 44.0625 18.574219 C 43.078125 18.746094 42.089844 18.90625 41.105469 19.09375 C 40.273438 19.25 39.445312 19.433594 38.617188 19.605469 C 37.878906 19.726562 37.136719 19.832031 36.398438 19.96875 C 35.441406 20.148438 34.484375 20.351562 33.527344 20.542969 C 32.519531 20.734375 31.511719 20.925781 30.503906 21.117188 C 30.242188 21.15625 29.980469 21.191406 29.722656 21.238281 C 28.710938 21.429688 27.703125 21.625 26.695312 21.820312 C 25.882812 21.957031 25.070312 22.089844 24.257812 22.238281 C 23.640625 22.355469 23.023438 22.5 22.40625 22.628906 C 21.898438 22.710938 21.382812 22.777344 20.875 22.875 C 19.953125 23.050781 19.035156 23.246094 18.117188 23.429688 C 17.375 23.554688 16.636719 23.667969 15.898438 23.804688 C 14.972656 23.980469 14.050781 24.175781 13.128906 24.363281 C 12.773438 24.414062 12.410156 24.457031 12.054688 24.523438 C 9.378906 25.019531 6.707031 25.519531 4.035156 26.019531 C 3.6875 26.085938 3.34375 26.167969 3 26.242188 C 3.3125 26.363281 3.617188 26.410156 3.921875 26.449219 C 6.234375 26.746094 8.550781 27.035156 10.863281 27.335938 C 11.898438 27.46875 12.925781 27.613281 13.957031 27.75 C 14.085938 27.785156 14.214844 27.828125 14.34375 27.851562 C 15.398438 28.046875 16.453125 28.238281 17.511719 28.429688 C 17.753906 28.472656 18 28.507812 18.246094 28.542969 C 19.792969 28.929688 21.335938 29.316406 22.882812 29.699219 C 23.402344 29.886719 23.925781 30.058594 24.441406 30.261719 C 25.203125 30.5625 25.957031 30.886719 26.714844 31.203125 C 26.890625 31.308594 27.066406 31.421875 27.246094 31.523438 C 28.179688 32.050781 29.035156 32.675781 29.707031 33.527344 C 31.078125 35.453125 30.535156 37.308594 29.472656 39.15625 C 29.628906 39.082031 29.746094 38.992188 29.84375 38.890625 C 30.617188 38.03125 31.394531 37.171875 32.164062 36.3125 C 32.78125 35.625 33.398438 34.933594 34.015625 34.246094 C 34.183594 34.089844 34.355469 33.933594 34.519531 33.769531 C 35.492188 32.78125 36.464844 31.785156 37.433594 30.792969 C 37.984375 30.230469 38.535156 29.664062 39.085938 29.097656 C 39.234375 28.980469 39.394531 28.871094 39.53125 28.738281 C 40.738281 27.605469 41.949219 26.472656 43.152344 25.335938 C 43.65625 24.863281 44.15625 24.386719 44.660156 23.910156 C 45.273438 23.386719 45.890625 22.867188 46.503906 22.347656 C 48.132812 20.972656 49.761719 19.597656 51.386719 18.222656 C 51.925781 17.765625 52.464844 17.304688 53 16.84375 C 52.921875 16.84375 52.84375 16.84375 52.769531 16.84375 "/>
</clipPath>
<linearGradient id="linear0" gradientUnits="userSpaceOnUse" x1="-0.000000000000000007" y1="0" x2="1" y2="0" gradientTransform="matrix(50,0,0,50,3,28)">
<stop offset="0" style="stop-color:rgb(94.801331%,32.859802%,14.569092%);stop-opacity:1;"/>
<stop offset="0.015625" style="stop-color:rgb(94.815063%,33.024597%,14.550781%);stop-opacity:1;"/>
<stop offset="0.03125" style="stop-color:rgb(94.841003%,33.340454%,14.622498%);stop-opacity:1;"/>
<stop offset="0.046875" style="stop-color:rgb(94.854736%,33.485413%,14.820862%);stop-opacity:1;"/>
<stop offset="0.0625" style="stop-color:rgb(94.866943%,33.634949%,14.918518%);stop-opacity:1;"/>
<stop offset="0.0703125" style="stop-color:rgb(94.892883%,33.938599%,14.938354%);stop-opacity:1;"/>
<stop offset="0.078125" style="stop-color:rgb(94.918823%,34.246826%,15.008545%);stop-opacity:1;"/>
<stop offset="0.0859375" style="stop-color:rgb(94.940186%,34.498596%,15.045166%);stop-opacity:1;"/>
<stop offset="0.09375" style="stop-color:rgb(94.955444%,34.675598%,15.036011%);stop-opacity:1;"/>
<stop offset="0.109375" style="stop-color:rgb(94.975281%,34.922791%,15.008545%);stop-opacity:1;"/>
<stop offset="0.125" style="stop-color:rgb(94.99054%,35.10437%,14.990234%);stop-opacity:1;"/>
<stop offset="0.132812" style="stop-color:rgb(95.002747%,35.246277%,14.974976%);stop-opacity:1;"/>
<stop offset="0.140625" style="stop-color:rgb(95.025635%,35.534668%,14.944458%);stop-opacity:1;"/>
<stop offset="0.148438" style="stop-color:rgb(95.048523%,35.803223%,14.915466%);stop-opacity:1;"/>
<stop offset="0.15625" style="stop-color:rgb(95.063782%,35.992432%,14.89563%);stop-opacity:1;"/>
<stop offset="0.171875" style="stop-color:rgb(95.085144%,36.239624%,14.86969%);stop-opacity:1;"/>
<stop offset="0.1875" style="stop-color:rgb(95.11261%,36.569214%,14.834595%);stop-opacity:1;"/>
<stop offset="0.195312" style="stop-color:rgb(95.137024%,36.86676%,14.804077%);stop-opacity:1;"/>
<stop offset="0.203125" style="stop-color:rgb(95.161438%,37.164307%,14.772034%);stop-opacity:1;"/>
<stop offset="0.210938" style="stop-color:rgb(95.185852%,37.445068%,14.743042%);stop-opacity:1;"/>
<stop offset="0.21875" style="stop-color:rgb(95.201111%,37.644958%,14.72168%);stop-opacity:1;"/>
<stop offset="0.234375" style="stop-color:rgb(95.222473%,37.892151%,14.69574%);stop-opacity:1;"/>
<stop offset="0.25" style="stop-color:rgb(95.249939%,38.221741%,14.660645%);stop-opacity:1;"/>
<stop offset="0.265625" style="stop-color:rgb(95.277405%,38.549805%,14.625549%);stop-opacity:1;"/>
<stop offset="0.28125" style="stop-color:rgb(95.304871%,38.887024%,14.506531%);stop-opacity:1;"/>
<stop offset="0.296875" style="stop-color:rgb(95.332336%,39.227295%,14.350891%);stop-opacity:1;"/>
<stop offset="0.304688" style="stop-color:rgb(95.355225%,39.509583%,14.286804%);stop-opacity:1;"/>
<stop offset="0.3125" style="stop-color:rgb(95.379639%,39.788818%,14.256287%);stop-opacity:1;"/>
<stop offset="0.320312" style="stop-color:rgb(95.404053%,40.087891%,14.224243%);stop-opacity:1;"/>
<stop offset="0.328125" style="stop-color:rgb(95.422363%,40.304565%,14.201355%);stop-opacity:1;"/>
<stop offset="0.34375" style="stop-color:rgb(95.4422%,40.551758%,14.173889%);stop-opacity:1;"/>
<stop offset="0.359375" style="stop-color:rgb(95.469666%,40.881348%,14.138794%);stop-opacity:1;"/>
<stop offset="0.375" style="stop-color:rgb(95.497131%,41.203308%,14.178467%);stop-opacity:1;"/>
<stop offset="0.382812" style="stop-color:rgb(95.518494%,41.459656%,14.273071%);stop-opacity:1;"/>
<stop offset="0.390625" style="stop-color:rgb(95.541382%,41.722107%,14.291382%);stop-opacity:1;"/>
<stop offset="0.398438" style="stop-color:rgb(95.567322%,42.033386%,14.27002%);stop-opacity:1;"/>
<stop offset="0.40625" style="stop-color:rgb(95.585632%,42.25769%,14.318848%);stop-opacity:1;"/>
<stop offset="0.421875" style="stop-color:rgb(95.605469%,42.495728%,14.405823%);stop-opacity:1;"/>
<stop offset="0.4375" style="stop-color:rgb(95.632935%,42.816162%,14.491272%);stop-opacity:1;"/>
<stop offset="0.453125" style="stop-color:rgb(95.658875%,43.136597%,14.584351%);stop-opacity:1;"/>
<stop offset="0.460938" style="stop-color:rgb(95.680237%,43.386841%,14.613342%);stop-opacity:1;"/>
<stop offset="0.46875" style="stop-color:rgb(95.701599%,43.641663%,14.587402%);stop-opacity:1;"/>
<stop offset="0.476562" style="stop-color:rgb(95.729065%,43.966675%,14.558411%);stop-opacity:1;"/>
<stop offset="0.484375" style="stop-color:rgb(95.748901%,44.204712%,14.598083%);stop-opacity:1;"/>
<stop offset="0.5" style="stop-color:rgb(95.768738%,44.439697%,14.761353%);stop-opacity:1;"/>
<stop offset="0.515625" style="stop-color:rgb(95.794678%,44.75708%,14.918518%);stop-opacity:1;"/>
<stop offset="0.53125" style="stop-color:rgb(95.822144%,45.079041%,15.010071%);stop-opacity:1;"/>
<stop offset="0.546875" style="stop-color:rgb(95.849609%,45.401001%,15.107727%);stop-opacity:1;"/>
<stop offset="0.5625" style="stop-color:rgb(95.875549%,45.722961%,15.202332%);stop-opacity:1;"/>
<stop offset="0.570312" style="stop-color:rgb(95.896912%,45.96405%,15.299988%);stop-opacity:1;"/>
<stop offset="0.578125" style="stop-color:rgb(95.915222%,46.195984%,15.350342%);stop-opacity:1;"/>
<stop offset="0.585938" style="stop-color:rgb(95.942688%,46.514893%,15.332031%);stop-opacity:1;"/>
<stop offset="0.59375" style="stop-color:rgb(95.96405%,46.769714%,15.414429%);stop-opacity:1;"/>
<stop offset="0.601562" style="stop-color:rgb(95.977783%,46.936035%,15.632629%);stop-opacity:1;"/>
<stop offset="0.609375" style="stop-color:rgb(95.98999%,47.088623%,15.82489%);stop-opacity:1;"/>
<stop offset="0.617188" style="stop-color:rgb(96.003723%,47.245789%,15.953064%);stop-opacity:1;"/>
<stop offset="0.625" style="stop-color:rgb(96.022034%,47.471619%,16.014099%);stop-opacity:1;"/>
<stop offset="0.632812" style="stop-color:rgb(96.047974%,47.781372%,16.003418%);stop-opacity:1;"/>
<stop offset="0.640625" style="stop-color:rgb(96.070862%,48.051453%,15.982056%);stop-opacity:1;"/>
<stop offset="0.65625" style="stop-color:rgb(96.09375%,48.323059%,15.960693%);stop-opacity:1;"/>
<stop offset="0.664062" style="stop-color:rgb(96.113586%,48.571777%,15.940857%);stop-opacity:1;"/>
<stop offset="0.671875" style="stop-color:rgb(96.131897%,48.791504%,15.966797%);stop-opacity:1;"/>
<stop offset="0.679688" style="stop-color:rgb(96.156311%,49.08905%,16.05072%);stop-opacity:1;"/>
<stop offset="0.6875" style="stop-color:rgb(96.179199%,49.362183%,16.119385%);stop-opacity:1;"/>
<stop offset="0.703125" style="stop-color:rgb(96.202087%,49.641418%,16.120911%);stop-opacity:1;"/>
<stop offset="0.710938" style="stop-color:rgb(96.22345%,49.890137%,16.1026%);stop-opacity:1;"/>
<stop offset="0.71875" style="stop-color:rgb(96.240234%,50.10376%,16.085815%);stop-opacity:1;"/>
<stop offset="0.726562" style="stop-color:rgb(96.264648%,50.39978%,16.062927%);stop-opacity:1;"/>
<stop offset="0.734375" style="stop-color:rgb(96.289062%,50.686646%,16.040039%);stop-opacity:1;"/>
<stop offset="0.742188" style="stop-color:rgb(96.305847%,50.891113%,16.02478%);stop-opacity:1;"/>
<stop offset="0.75" style="stop-color:rgb(96.322632%,51.097107%,16.007996%);stop-opacity:1;"/>
<stop offset="0.757812" style="stop-color:rgb(96.347046%,51.38855%,15.985107%);stop-opacity:1;"/>
<stop offset="0.765625" style="stop-color:rgb(96.37146%,51.681519%,15.962219%);stop-opacity:1;"/>
<stop offset="0.78125" style="stop-color:rgb(96.395874%,51.972961%,15.939331%);stop-opacity:1;"/>
<stop offset="0.796875" style="stop-color:rgb(96.42334%,52.304077%,15.942383%);stop-opacity:1;"/>
<stop offset="0.804688" style="stop-color:rgb(96.443176%,52.549744%,16.018677%);stop-opacity:1;"/>
<stop offset="0.8125" style="stop-color:rgb(96.458435%,52.742004%,16.113281%);stop-opacity:1;"/>
<stop offset="0.820312" style="stop-color:rgb(96.482849%,53.02124%,16.134644%);stop-opacity:1;"/>
<stop offset="0.828125" style="stop-color:rgb(96.507263%,53.323364%,16.111755%);stop-opacity:1;"/>
<stop offset="0.84375" style="stop-color:rgb(96.531677%,53.627014%,16.088867%);stop-opacity:1;"/>
<stop offset="0.859375" style="stop-color:rgb(96.559143%,53.959656%,16.064453%);stop-opacity:1;"/>
<stop offset="0.875" style="stop-color:rgb(96.586609%,54.290771%,16.056824%);stop-opacity:1;"/>
<stop offset="0.890625" style="stop-color:rgb(96.614075%,54.61731%,16.172791%);stop-opacity:1;"/>
<stop offset="0.90625" style="stop-color:rgb(96.641541%,54.945374%,16.271973%);stop-opacity:1;"/>
<stop offset="0.914062" style="stop-color:rgb(96.661377%,55.194092%,16.253662%);stop-opacity:1;"/>
<stop offset="0.921875" style="stop-color:rgb(96.676636%,55.37262%,16.241455%);stop-opacity:1;"/>
<stop offset="0.929688" style="stop-color:rgb(96.697998%,55.636597%,16.221619%);stop-opacity:1;"/>
<stop offset="0.9375" style="stop-color:rgb(96.725464%,55.957031%,16.19873%);stop-opacity:1;"/>
<stop offset="0.953125" style="stop-color:rgb(96.751404%,56.278992%,16.175842%);stop-opacity:1;"/>
<stop offset="0.960938" style="stop-color:rgb(96.772766%,56.529236%,16.157532%);stop-opacity:1;"/>
<stop offset="0.96875" style="stop-color:rgb(96.786499%,56.700134%,16.145325%);stop-opacity:1;"/>
<stop offset="0.976562" style="stop-color:rgb(96.807861%,56.954956%,16.127014%);stop-opacity:1;"/>
<stop offset="0.984375" style="stop-color:rgb(96.835327%,57.284546%,16.1026%);stop-opacity:1;"/>
<stop offset="1" style="stop-color:rgb(96.861267%,57.614136%,16.079712%);stop-opacity:1;"/>
</linearGradient>
</defs>
<g id="surface1">
<rect x="0" y="0" width="56" height="56" style="fill:rgb(95.66803%,95.779419%,96.777344%);fill-opacity:1;stroke:none;"/>
<g clip-path="url(#clip1)" clip-rule="nonzero">
<g clip-path="url(#clip2)" clip-rule="nonzero">
<g clip-path="url(#clip3)" clip-rule="nonzero">
<path style=" stroke:none;fill-rule:nonzero;fill:url(#linear0);" d="M 3 16.84375 L 3 39.15625 L 53 39.15625 L 53 16.84375 Z M 3 16.84375 "/>
</g>
</g>
</g>
</g>
</svg>
