<?xml version="1.0" encoding="UTF-8"?>
<svg xmlns="http://www.w3.org/2000/svg" xmlns:xlink="http://www.w3.org/1999/xlink" width="56pt" height="56pt" viewBox="0 0 56 56" version="1.1">
<g id="surface1">
<rect x="0" y="0" width="56" height="56" style="fill:rgb(57.559204%,8.258057%,29.910278%);fill-opacity:1;stroke:none;"/>
<path style=" stroke:none;fill-rule:nonzero;fill:rgb(97.706604%,67.993164%,4.533386%);fill-opacity:1;" d="M 27.402344 32.226562 C 27.296875 32.238281 27.210938 32.304688 27.175781 32.402344 L 24.71875 42.019531 C 24.636719 42.328125 24.683594 42.65625 24.851562 42.925781 C 25.0625 43.21875 25.488281 43.394531 26.117188 43.445312 C 26.523438 43.523438 26.945312 43.441406 27.289062 43.21875 C 27.519531 43.003906 27.566406 42.609375 27.566406 42.042969 L 27.652344 32.53125 C 27.65625 32.382812 27.546875 32.25 27.398438 32.226562 Z M 16.660156 38.195312 C 16.980469 38.203125 17.292969 38.078125 17.519531 37.851562 L 24.632812 30.898438 C 24.683594 30.824219 24.691406 30.726562 24.652344 30.644531 C 24.542969 30.523438 24.359375 30.5 24.226562 30.59375 L 24.148438 30.640625 L 16.066406 35.40625 C 15.574219 35.6875 15.253906 35.921875 15.183594 36.230469 C 15.160156 36.640625 15.296875 37.046875 15.566406 37.355469 C 15.9375 37.878906 16.300781 38.160156 16.660156 38.195312 Z M 16.660156 17.800781 C 16.300781 17.835938 15.9375 18.117188 15.582031 18.644531 C 15.3125 18.953125 15.175781 19.359375 15.199219 19.769531 C 15.269531 20.078125 15.582031 20.3125 16.078125 20.59375 L 24.257812 25.425781 C 24.3125 25.453125 24.371094 25.464844 24.429688 25.464844 C 24.519531 25.472656 24.601562 25.429688 24.648438 25.359375 C 24.695312 25.265625 24.675781 25.152344 24.605469 25.074219 L 17.511719 18.140625 C 17.304688 17.941406 17.035156 17.824219 16.75 17.800781 Z M 28.722656 43.222656 C 28.976562 43.40625 29.289062 43.488281 29.597656 43.457031 C 29.691406 43.457031 29.789062 43.457031 29.898438 43.457031 C 30.527344 43.40625 30.957031 43.234375 31.164062 42.941406 C 31.332031 42.667969 31.378906 42.335938 31.292969 42.023438 L 28.832031 32.371094 C 28.792969 32.289062 28.710938 32.238281 28.621094 32.230469 C 28.480469 32.230469 28.359375 32.390625 28.359375 32.574219 L 28.359375 32.664062 L 28.445312 42.042969 C 28.449219 42.613281 28.511719 43.007812 28.722656 43.222656 Z M 39.339844 38.199219 C 39.699219 38.164062 40.0625 37.882812 40.417969 37.359375 C 40.6875 37.050781 40.824219 36.644531 40.800781 36.234375 C 40.730469 35.925781 40.417969 35.691406 39.921875 35.40625 L 31.765625 30.574219 C 31.707031 30.546875 31.648438 30.53125 31.585938 30.53125 C 31.5 30.527344 31.417969 30.566406 31.367188 30.640625 C 31.324219 30.734375 31.34375 30.847656 31.410156 30.921875 L 38.507812 37.859375 C 38.730469 38.085938 39.039062 38.207031 39.359375 38.195312 Z M 38.191406 16.652344 C 38.15625 16.292969 37.875 15.929688 37.351562 15.570312 C 37.070312 15.34375 36.726562 15.199219 36.363281 15.160156 C 36.320312 15.15625 36.273438 15.15625 36.222656 15.160156 C 35.917969 15.230469 35.679688 15.542969 35.398438 16.039062 L 30.582031 24.246094 C 30.507812 24.375 30.539062 24.535156 30.652344 24.628906 C 30.746094 24.671875 30.855469 24.65625 30.933594 24.585938 L 37.867188 17.503906 C 38.089844 17.277344 38.214844 16.96875 38.203125 16.652344 Z M 5.320312 28 L 5.363281 28.09375 C 5.75 28.953125 6.203125 29.78125 6.722656 30.574219 C 7.574219 31.84375 8.375 32.519531 9.050781 32.519531 C 9.125 32.519531 9.203125 32.511719 9.28125 32.492188 L 12.378906 31.699219 C 11.945312 31.222656 11.699219 30.601562 11.691406 29.957031 C 11.625 29.121094 11.777344 28.519531 12.144531 28.121094 C 12.1875 28.078125 12.226562 28.039062 12.273438 28 C 12.226562 27.964844 12.183594 27.921875 12.144531 27.882812 C 11.765625 27.5 11.625 26.878906 11.691406 26.046875 C 11.699219 25.402344 11.941406 24.777344 12.375 24.300781 L 9.273438 23.507812 C 9.203125 23.492188 9.125 23.480469 9.050781 23.480469 C 8.375 23.480469 7.570312 24.15625 6.71875 25.429688 C 6.203125 26.21875 5.75 27.046875 5.363281 27.90625 Z M 35.414062 39.945312 C 35.695312 40.4375 35.933594 40.757812 36.238281 40.824219 C 36.285156 40.828125 36.335938 40.828125 36.382812 40.824219 C 36.742188 40.785156 37.085938 40.644531 37.367188 40.414062 C 37.890625 40.054688 38.167969 39.695312 38.207031 39.339844 C 38.214844 39.015625 38.09375 38.707031 37.863281 38.476562 L 30.90625 31.375 C 30.832031 31.324219 30.734375 31.316406 30.65625 31.355469 C 30.59375 31.394531 30.554688 31.453125 30.546875 31.523438 C 30.535156 31.613281 30.554688 31.707031 30.601562 31.785156 L 30.644531 31.855469 Z M 27.289062 12.777344 C 26.945312 12.554688 26.523438 12.476562 26.117188 12.558594 C 25.488281 12.605469 25.058594 12.777344 24.851562 13.074219 C 24.683594 13.347656 24.636719 13.679688 24.71875 13.992188 L 27.183594 23.632812 C 27.222656 23.714844 27.300781 23.769531 27.394531 23.777344 C 27.535156 23.777344 27.652344 23.621094 27.652344 23.433594 L 27.652344 23.335938 L 27.570312 13.953125 C 27.570312 13.386719 27.523438 12.992188 27.289062 12.777344 Z M 39.359375 17.804688 C 39.035156 17.792969 38.722656 17.917969 38.496094 18.148438 L 31.386719 25.097656 C 31.335938 25.171875 31.328125 25.269531 31.363281 25.351562 C 31.476562 25.472656 31.660156 25.496094 31.792969 25.402344 L 31.871094 25.355469 L 39.957031 20.59375 C 40.445312 20.3125 40.765625 20.078125 40.835938 19.769531 C 40.859375 19.359375 40.71875 18.953125 40.453125 18.644531 C 40.082031 18.117188 39.71875 17.839844 39.359375 17.800781 Z M 28.617188 23.773438 C 28.71875 23.765625 28.808594 23.695312 28.84375 23.597656 L 31.300781 13.984375 C 31.382812 13.671875 31.332031 13.34375 31.167969 13.074219 C 30.957031 12.777344 30.53125 12.605469 29.902344 12.558594 C 29.796875 12.558594 29.699219 12.558594 29.605469 12.558594 C 29.296875 12.527344 28.984375 12.613281 28.730469 12.792969 C 28.5 13.007812 28.453125 13.402344 28.453125 13.96875 L 28.367188 23.476562 C 28.371094 23.621094 28.472656 23.746094 28.617188 23.773438 Z M 16.601562 47.539062 L 16.683594 47.644531 L 16.722656 47.644531 C 17.367188 47.710938 18.011719 47.742188 18.660156 47.742188 C 18.988281 47.742188 19.304688 47.742188 19.601562 47.710938 C 20.800781 47.636719 22.277344 47.355469 22.554688 46.457031 L 23.417969 43.378906 C 22.789062 43.515625 22.128906 43.414062 21.566406 43.097656 C 20.800781 42.734375 20.363281 42.308594 20.203125 41.789062 C 20.1875 41.730469 20.171875 41.675781 20.160156 41.617188 C 20.105469 41.640625 20.050781 41.65625 19.992188 41.667969 C 19.460938 41.792969 18.871094 41.617188 18.175781 41.144531 C 17.617188 40.816406 17.203125 40.292969 17.003906 39.675781 L 14.769531 41.972656 C 14.128906 42.652344 14.628906 44.074219 15.152344 45.144531 C 15.566406 45.976562 16.042969 46.78125 16.585938 47.542969 Z M 7.429688 35.601562 C 7.570312 34.539062 7.898438 33.75 8.410156 33.246094 C 7.71875 33.070312 7.039062 32.546875 6.386719 31.71875 C 6.179688 32.429688 6.019531 33.15625 5.898438 33.886719 L 5.898438 33.925781 L 5.921875 33.957031 C 6.394531 34.53125 6.894531 35.085938 7.429688 35.601562 Z M 11.816406 44.1875 L 11.851562 44.1875 C 12.550781 44.457031 13.261719 44.6875 13.984375 44.875 C 13.574219 43.886719 13.464844 43.039062 13.65625 42.34375 C 12.96875 42.535156 12.128906 42.425781 11.125 42.019531 C 11.308594 42.738281 11.53125 43.453125 11.796875 44.152344 Z M 42.925781 31.15625 C 43.214844 30.949219 43.390625 30.519531 43.441406 29.894531 C 43.484375 29.324219 43.410156 28.929688 43.214844 28.71875 C 43.019531 28.507812 42.605469 28.441406 42.042969 28.441406 L 32.53125 28.355469 C 32.378906 28.347656 32.246094 28.460938 32.222656 28.609375 C 32.230469 28.714844 32.300781 28.804688 32.398438 28.835938 L 42.027344 31.285156 C 42.335938 31.363281 42.660156 31.316406 42.9375 31.152344 Z M 36.425781 47.722656 C 36.722656 47.742188 37.046875 47.753906 37.378906 47.753906 C 38.023438 47.753906 38.667969 47.722656 39.3125 47.65625 L 39.351562 47.65625 L 39.371094 47.625 L 39.457031 47.507812 C 39.988281 46.761719 40.460938 45.976562 40.875 45.164062 C 41.40625 44.089844 41.90625 42.664062 41.257812 41.980469 L 39.023438 39.691406 C 38.824219 40.304688 38.410156 40.828125 37.851562 41.15625 C 37.160156 41.632812 36.570312 41.800781 36.03125 41.679688 C 35.976562 41.667969 35.917969 41.652344 35.863281 41.632812 C 35.851562 41.6875 35.839844 41.742188 35.824219 41.796875 C 35.660156 42.324219 35.214844 42.75 34.457031 43.109375 C 33.894531 43.425781 33.234375 43.527344 32.605469 43.390625 L 33.480469 46.46875 C 33.753906 47.363281 35.234375 47.648438 36.425781 47.722656 Z M 47.640625 39.335938 L 47.640625 39.296875 C 47.742188 38.339844 47.765625 37.378906 47.714844 36.421875 C 47.632812 35.21875 47.355469 33.746094 46.460938 33.464844 L 43.417969 32.609375 C 43.554688 33.242188 43.457031 33.902344 43.140625 34.464844 C 42.777344 35.226562 42.347656 35.664062 41.828125 35.824219 C 41.773438 35.84375 41.71875 35.855469 41.660156 35.867188 C 41.679688 35.921875 41.695312 35.976562 41.710938 36.035156 C 41.828125 36.566406 41.660156 37.160156 41.183594 37.855469 C 40.855469 38.410156 40.335938 38.828125 39.71875 39.023438 L 42.011719 41.261719 C 42.550781 41.765625 43.65625 41.644531 45.195312 40.878906 C 46.042969 40.441406 46.855469 39.933594 47.621094 39.367188 Z M 44.183594 11.8125 L 44.148438 11.8125 C 43.453125 11.546875 42.738281 11.320312 42.015625 11.140625 C 42.421875 12.128906 42.535156 12.976562 42.339844 13.664062 C 42.570312 13.601562 42.808594 13.574219 43.046875 13.574219 C 43.675781 13.59375 44.296875 13.738281 44.871094 13.992188 C 44.6875 13.269531 44.464844 12.558594 44.199219 11.859375 Z M 5.917969 22.042969 L 5.894531 22.074219 L 5.894531 22.113281 C 6.011719 22.851562 6.175781 23.582031 6.378906 24.300781 C 7.03125 23.453125 7.710938 22.929688 8.402344 22.75 C 7.898438 22.265625 7.570312 21.457031 7.429688 20.394531 C 6.894531 20.914062 6.390625 21.464844 5.917969 22.042969 Z M 48.589844 20.394531 C 48.535156 21.265625 48.195312 22.09375 47.621094 22.746094 C 48.316406 22.925781 48.996094 23.449219 49.648438 24.277344 C 49.851562 23.558594 50.015625 22.832031 50.128906 22.09375 L 50.128906 22.054688 L 50.105469 22.027344 C 49.632812 21.453125 49.128906 20.910156 48.589844 20.398438 Z M 47.65625 16.65625 L 47.628906 16.632812 L 47.507812 16.53125 C 46.761719 16 45.976562 15.523438 45.160156 15.109375 C 43.632812 14.347656 42.527344 14.214844 41.984375 14.726562 L 39.691406 16.964844 C 40.308594 17.160156 40.832031 17.578125 41.160156 18.132812 C 41.636719 18.828125 41.808594 19.433594 41.691406 19.972656 C 41.675781 20.027344 41.660156 20.082031 41.640625 20.136719 L 41.808594 20.179688 C 42.332031 20.339844 42.761719 20.785156 43.121094 21.542969 C 43.4375 22.105469 43.535156 22.765625 43.398438 23.398438 L 46.476562 22.527344 C 47.371094 22.253906 47.648438 20.78125 47.730469 19.585938 C 47.78125 18.621094 47.757812 17.65625 47.65625 16.695312 Z M 8.363281 16.65625 L 8.363281 16.691406 C 8.257812 17.65625 8.234375 18.625 8.285156 19.589844 C 8.367188 20.78125 8.644531 22.265625 9.539062 22.535156 L 12.621094 23.398438 C 12.484375 22.765625 12.582031 22.105469 12.898438 21.542969 C 13.261719 20.78125 13.691406 20.34375 14.210938 20.179688 L 14.378906 20.136719 C 14.359375 20.082031 14.34375 20.027344 14.328125 19.972656 C 14.207031 19.441406 14.378906 18.84375 14.851562 18.15625 C 15.179688 17.601562 15.703125 17.183594 16.320312 16.988281 L 14.027344 14.75 C 13.488281 14.246094 12.386719 14.367188 10.851562 15.132812 C 9.988281 15.570312 9.164062 16.074219 8.382812 16.640625 Z M 50.679688 28 L 50.679688 27.964844 C 50.289062 27.085938 49.824219 26.234375 49.296875 25.425781 C 48.34375 24.003906 47.460938 23.335938 46.742188 23.515625 L 43.644531 24.308594 C 44.078125 24.785156 44.324219 25.40625 44.328125 26.054688 C 44.394531 26.890625 44.242188 27.492188 43.871094 27.890625 C 43.835938 27.929688 43.789062 27.96875 43.746094 28.007812 C 43.792969 28.046875 43.835938 28.085938 43.871094 28.128906 C 44.253906 28.511719 44.394531 29.132812 44.328125 29.964844 C 44.320312 30.609375 44.078125 31.230469 43.644531 31.707031 L 46.742188 32.5 C 46.816406 32.515625 46.894531 32.527344 46.96875 32.527344 C 47.640625 32.527344 48.445312 31.851562 49.300781 30.582031 C 49.800781 29.8125 50.242188 29.011719 50.621094 28.175781 Z M 19.59375 8.277344 C 19.292969 8.277344 18.96875 8.246094 18.636719 8.246094 C 17.988281 8.246094 17.34375 8.277344 16.699219 8.34375 L 16.660156 8.34375 L 16.601562 8.425781 C 16.050781 9.191406 15.558594 10 15.132812 10.84375 C 14.605469 11.917969 14.105469 13.339844 14.75 14.019531 L 16.984375 16.316406 C 17.183594 15.699219 17.597656 15.179688 18.15625 14.851562 C 18.847656 14.375 19.441406 14.203125 19.972656 14.328125 C 20.03125 14.339844 20.089844 14.355469 20.144531 14.375 C 20.152344 14.320312 20.167969 14.261719 20.183594 14.207031 C 20.34375 13.6875 20.792969 13.261719 21.546875 12.898438 C 22.109375 12.582031 22.769531 12.480469 23.398438 12.617188 L 22.535156 9.535156 C 22.265625 8.640625 20.785156 8.355469 19.59375 8.277344 Z M 50.097656 33.960938 L 50.121094 33.929688 L 50.121094 33.890625 C 50.003906 33.15625 49.84375 32.425781 49.640625 31.707031 C 48.988281 32.554688 48.304688 33.078125 47.613281 33.238281 C 48.128906 33.738281 48.457031 34.53125 48.597656 35.59375 C 49.128906 35.078125 49.632812 34.53125 50.097656 33.957031 Z M 23.515625 9.269531 L 24.304688 12.367188 C 24.78125 11.933594 25.402344 11.6875 26.046875 11.679688 C 26.890625 11.617188 27.484375 11.765625 27.886719 12.136719 C 27.929688 12.175781 27.96875 12.21875 28.007812 12.261719 L 28.125 12.136719 C 28.527344 11.753906 29.121094 11.617188 29.960938 11.679688 C 30.605469 11.6875 31.226562 11.929688 31.707031 12.367188 L 32.5 9.269531 C 32.714844 8.359375 31.570312 7.359375 30.582031 6.707031 C 29.851562 6.226562 29.085938 5.800781 28.289062 5.433594 L 28.019531 5.308594 L 27.929688 5.351562 C 27.070312 5.738281 26.242188 6.191406 25.453125 6.703125 C 24.445312 7.359375 23.300781 8.355469 23.515625 9.269531 Z M 32.167969 41.785156 C 32.246094 42.097656 32.457031 42.367188 32.742188 42.527344 C 32.863281 42.578125 32.992188 42.601562 33.125 42.601562 C 33.460938 42.585938 33.789062 42.496094 34.085938 42.339844 C 34.601562 42.089844 34.90625 41.832031 34.988281 41.574219 C 35.074219 41.316406 34.925781 40.90625 34.640625 40.425781 L 29.96875 32.105469 C 29.910156 32.011719 29.808594 31.949219 29.695312 31.941406 C 29.660156 31.941406 29.625 31.949219 29.59375 31.96875 C 29.511719 32.027344 29.46875 32.132812 29.488281 32.234375 Z M 11.816406 11.8125 L 11.816406 11.851562 C 11.550781 12.546875 11.324219 13.257812 11.140625 13.984375 C 12.132812 13.574219 12.984375 13.464844 13.671875 13.65625 C 13.480469 12.964844 13.589844 12.125 14 11.125 C 13.277344 11.304688 12.566406 11.53125 11.867188 11.796875 Z M 33.261719 8.398438 C 33.761719 7.886719 34.554688 7.558594 35.617188 7.414062 C 35.09375 6.875 34.542969 6.363281 33.964844 5.886719 L 33.933594 5.863281 L 33.898438 5.863281 C 33.160156 5.980469 32.429688 6.144531 31.714844 6.34375 C 32.5625 7.027344 33.097656 7.710938 33.261719 8.402344 Z M 37.378906 8.246094 C 37.050781 8.246094 36.730469 8.246094 36.433594 8.277344 C 35.238281 8.351562 33.757812 8.636719 33.484375 9.53125 L 32.617188 12.609375 C 33.25 12.472656 33.910156 12.574219 34.472656 12.890625 C 35.238281 13.253906 35.671875 13.679688 35.835938 14.199219 C 35.851562 14.257812 35.867188 14.3125 35.875 14.367188 C 35.929688 14.347656 35.988281 14.332031 36.042969 14.320312 C 36.15625 14.292969 36.269531 14.28125 36.382812 14.28125 C 36.917969 14.316406 37.433594 14.511719 37.859375 14.84375 C 38.414062 15.171875 38.832031 15.691406 39.03125 16.308594 L 41.265625 14.015625 C 41.90625 13.332031 41.410156 11.910156 40.882812 10.839844 C 40.449219 9.980469 39.945312 9.152344 39.378906 8.371094 L 39.355469 8.339844 L 39.253906 8.339844 C 38.980469 8.308594 38.246094 8.246094 37.378906 8.246094 Z M 20.402344 7.417969 C 21.464844 7.5625 22.257812 7.890625 22.757812 8.402344 C 22.933594 7.710938 23.453125 7.03125 24.285156 6.375 C 23.570312 6.171875 22.839844 6.011719 22.105469 5.894531 L 22.066406 5.894531 L 22.035156 5.921875 C 21.460938 6.390625 20.917969 6.890625 20.402344 7.417969 Z M 35.613281 48.582031 C 34.738281 48.523438 33.910156 48.175781 33.257812 47.597656 C 33.078125 48.289062 32.558594 48.96875 31.710938 49.625 C 32.425781 49.828125 33.15625 49.988281 33.894531 50.105469 L 33.929688 50.105469 L 33.960938 50.082031 C 34.539062 49.613281 35.09375 49.113281 35.613281 48.582031 Z M 41.546875 21.011719 C 41.488281 20.992188 41.425781 20.984375 41.363281 20.984375 C 41.015625 21.035156 40.683594 21.164062 40.394531 21.367188 L 32.113281 26.039062 C 31.976562 26.109375 31.914062 26.277344 31.972656 26.421875 C 32.03125 26.507812 32.140625 26.550781 32.242188 26.527344 L 41.796875 23.851562 C 42.105469 23.769531 42.363281 23.5625 42.515625 23.28125 C 42.664062 22.953125 42.601562 22.5 42.328125 21.929688 C 42.054688 21.359375 41.820312 21.09375 41.546875 21.011719 Z M 32.5 46.730469 L 31.710938 43.628906 C 31.230469 44.066406 30.609375 44.308594 29.964844 44.316406 C 29.125 44.378906 28.53125 44.234375 28.128906 43.859375 C 28.085938 43.820312 28.046875 43.777344 28.011719 43.734375 C 27.972656 43.777344 27.933594 43.820312 27.890625 43.859375 C 27.507812 44.242188 26.894531 44.378906 26.050781 44.316406 C 25.40625 44.308594 24.785156 44.066406 24.304688 43.632812 L 23.515625 46.730469 C 23.300781 47.640625 24.449219 48.640625 25.449219 49.292969 L 25.640625 49.421875 C 26.316406 49.847656 27.015625 50.230469 27.742188 50.570312 L 28.011719 50.691406 L 28.101562 50.648438 C 28.960938 50.261719 29.789062 49.808594 30.578125 49.292969 C 31.570312 48.640625 32.714844 47.644531 32.5 46.730469 Z M 10.859375 40.875 C 12.386719 41.640625 13.492188 41.769531 14.03125 41.257812 L 16.324219 39.019531 C 15.707031 38.824219 15.1875 38.40625 14.855469 37.851562 C 14.367188 37.171875 14.207031 36.566406 14.328125 36.027344 C 14.339844 35.96875 14.355469 35.914062 14.375 35.859375 L 14.207031 35.816406 C 13.683594 35.65625 13.253906 35.210938 12.894531 34.453125 C 12.578125 33.890625 12.480469 33.230469 12.617188 32.597656 L 9.535156 33.460938 C 8.632812 33.734375 8.367188 35.222656 8.285156 36.410156 C 8.230469 37.371094 8.253906 38.339844 8.355469 39.300781 L 8.355469 39.339844 L 8.589844 39.511719 C 9.3125 40.019531 10.070312 40.476562 10.859375 40.875 Z M 22.777344 47.597656 C 22.277344 48.109375 21.484375 48.4375 20.421875 48.582031 C 20.941406 49.121094 21.492188 49.632812 22.074219 50.109375 L 22.105469 50.132812 L 22.140625 50.132812 C 22.871094 50.007812 23.59375 49.835938 24.304688 49.628906 C 23.453125 48.96875 22.933594 48.289062 22.777344 47.597656 Z M 44.183594 44.1875 L 44.183594 44.152344 C 44.449219 43.453125 44.675781 42.742188 44.859375 42.019531 C 44.074219 42.402344 43.183594 42.515625 42.328125 42.34375 C 42.519531 43.03125 42.414062 43.871094 42.003906 44.871094 C 42.726562 44.691406 43.441406 44.464844 44.136719 44.199219 Z M 29.480469 23.796875 C 29.472656 23.886719 29.515625 23.972656 29.589844 24.023438 C 29.738281 24.070312 29.902344 23.996094 29.96875 23.851562 L 30.039062 23.796875 L 34.652344 15.613281 C 34.933594 15.125 35.09375 14.757812 35 14.46875 C 34.910156 14.175781 34.617188 13.933594 34.097656 13.703125 C 33.578125 13.472656 33.070312 13.367188 32.746094 13.515625 C 32.464844 13.671875 32.257812 13.933594 32.171875 14.242188 Z M 17.808594 39.347656 C 17.84375 39.707031 18.125 40.070312 18.648438 40.429688 C 18.960938 40.699219 19.363281 40.835938 19.777344 40.8125 C 20.082031 40.742188 20.320312 40.429688 20.601562 39.933594 L 25.453125 31.75 C 25.527344 31.625 25.5 31.464844 25.386719 31.367188 C 25.355469 31.347656 25.324219 31.339844 25.289062 31.339844 C 25.222656 31.34375 25.15625 31.363281 25.105469 31.40625 L 18.152344 38.496094 C 17.925781 38.722656 17.800781 39.03125 17.808594 39.347656 Z M 28.011719 24.480469 C 26.066406 24.480469 24.492188 26.054688 24.492188 27.996094 C 24.492188 29.9375 26.066406 31.511719 28.011719 31.511719 C 29.949219 31.511719 31.523438 29.941406 31.527344 28 C 31.527344 26.058594 29.953125 24.480469 28.011719 24.480469 Z M 40.394531 34.648438 C 40.683594 34.847656 41.015625 34.980469 41.363281 35.03125 C 41.425781 35.03125 41.488281 35.019531 41.546875 35.003906 C 41.820312 34.917969 42.082031 34.621094 42.3125 34.101562 C 42.546875 33.582031 42.648438 33.078125 42.5 32.742188 C 42.34375 32.464844 42.085938 32.257812 41.773438 32.171875 L 32.195312 29.496094 C 32.101562 29.488281 32.015625 29.53125 31.960938 29.605469 C 31.914062 29.757812 31.988281 29.921875 32.132812 29.988281 L 32.210938 30.03125 Z M 43.453125 26.113281 C 43.402344 25.484375 43.230469 25.058594 42.9375 24.851562 C 42.660156 24.683594 42.332031 24.636719 42.019531 24.714844 L 32.382812 27.179688 C 32.300781 27.21875 32.246094 27.296875 32.242188 27.390625 C 32.242188 27.53125 32.394531 27.648438 32.585938 27.648438 L 32.675781 27.648438 L 42.058594 27.566406 C 42.621094 27.566406 43.015625 27.519531 43.230469 27.285156 C 43.457031 26.9375 43.535156 26.515625 43.453125 26.113281 Z M 26.535156 32.207031 C 26.539062 32.113281 26.496094 32.027344 26.421875 31.976562 C 26.269531 31.929688 26.109375 32.003906 26.039062 32.148438 L 25.996094 32.222656 L 21.367188 40.386719 C 21.082031 40.875 20.925781 41.242188 21.019531 41.53125 C 21.109375 41.824219 21.402344 42.066406 21.925781 42.296875 C 22.222656 42.453125 22.546875 42.542969 22.882812 42.558594 C 23.015625 42.558594 23.144531 42.535156 23.265625 42.484375 C 23.546875 42.328125 23.753906 42.066406 23.839844 41.757812 Z M 15.625 21.355469 C 15.210938 21.121094 14.785156 20.914062 14.476562 21.011719 C 14.171875 21.113281 13.941406 21.394531 13.714844 21.914062 C 13.484375 22.433594 13.378906 22.941406 13.527344 23.269531 C 13.679688 23.550781 13.941406 23.757812 14.253906 23.839844 L 23.832031 26.515625 C 23.917969 26.523438 24.003906 26.480469 24.054688 26.410156 C 24.085938 26.347656 24.085938 26.273438 24.054688 26.210938 C 24.019531 26.128906 23.957031 26.058594 23.878906 26.011719 L 23.800781 25.96875 Z M 23.847656 14.214844 C 23.761719 13.90625 23.558594 13.648438 23.277344 13.492188 C 23.15625 13.441406 23.027344 13.414062 22.894531 13.417969 C 22.558594 13.433594 22.230469 13.523438 21.933594 13.679688 C 21.417969 13.929688 21.113281 14.191406 21.03125 14.445312 C 20.945312 14.703125 21.09375 15.109375 21.378906 15.59375 L 26.042969 23.894531 C 26.117188 24.03125 26.28125 24.089844 26.425781 24.035156 C 26.511719 23.976562 26.550781 23.871094 26.53125 23.773438 Z M 13.082031 31.175781 C 13.355469 31.332031 13.679688 31.371094 13.984375 31.285156 L 23.625 28.820312 C 23.707031 28.78125 23.765625 28.703125 23.769531 28.609375 C 23.769531 28.46875 23.613281 28.351562 23.425781 28.351562 L 23.339844 28.351562 L 13.953125 28.433594 C 13.390625 28.433594 12.996094 28.480469 12.78125 28.714844 C 12.554688 29.0625 12.476562 29.484375 12.558594 29.890625 C 12.613281 30.519531 12.789062 30.949219 13.082031 31.152344 Z M 14.46875 35 C 14.53125 35.015625 14.59375 35.027344 14.652344 35.027344 C 15.003906 34.976562 15.335938 34.84375 15.625 34.644531 L 23.90625 29.960938 C 24.042969 29.886719 24.101562 29.722656 24.046875 29.578125 C 23.996094 29.507812 23.910156 29.464844 23.824219 29.472656 L 23.777344 29.472656 L 14.222656 32.148438 C 13.914062 32.230469 13.65625 32.4375 13.503906 32.71875 C 13.355469 33.046875 13.414062 33.5 13.691406 34.070312 C 13.964844 34.640625 14.199219 34.902344 14.46875 34.992188 Z M 13.667969 24.679688 C 13.460938 24.667969 13.253906 24.726562 13.082031 24.84375 C 12.789062 25.050781 12.613281 25.476562 12.566406 26.109375 C 12.484375 26.511719 12.5625 26.933594 12.789062 27.28125 C 13.003906 27.515625 13.394531 27.558594 13.960938 27.558594 L 23.46875 27.648438 C 23.621094 27.65625 23.757812 27.542969 23.78125 27.390625 C 23.773438 27.289062 23.703125 27.199219 23.605469 27.167969 L 13.984375 24.714844 C 13.878906 24.691406 13.773438 24.679688 13.667969 24.679688 Z M 25.371094 24.144531 L 25.414062 24.214844 C 25.460938 24.292969 25.480469 24.386719 25.46875 24.476562 C 25.460938 24.546875 25.421875 24.609375 25.359375 24.648438 C 25.277344 24.683594 25.183594 24.675781 25.109375 24.625 L 18.15625 17.507812 C 17.925781 17.28125 17.800781 16.972656 17.808594 16.652344 C 17.84375 16.292969 18.125 15.929688 18.648438 15.570312 C 18.960938 15.300781 19.363281 15.164062 19.777344 15.1875 C 20.082031 15.257812 20.320312 15.570312 20.601562 16.066406 L 25.371094 24.144531 "/>
</g>
</svg>
