<?xml version="1.0" encoding="UTF-8"?>
<svg xmlns="http://www.w3.org/2000/svg" xmlns:xlink="http://www.w3.org/1999/xlink" width="56pt" height="56pt" viewBox="0 0 56 56" version="1.1">
<g id="surface1">
<rect x="0" y="0" width="56" height="56" style="fill:rgb(77.233887%,11.763%,14.411926%);fill-opacity:1;stroke:none;"/>
<path style=" stroke:none;fill-rule:nonzero;fill:rgb(100%,100%,100%);fill-opacity:1;" d="M 51.765625 33.773438 C 51.570312 33.871094 51.480469 33.945312 51.382812 33.964844 C 50.488281 34.167969 49.589844 34.359375 48.691406 34.5625 C 47.023438 34.933594 45.355469 35.304688 43.691406 35.683594 C 42.710938 35.90625 41.734375 36.15625 40.757812 36.378906 C 39.09375 36.757812 37.421875 37.125 35.757812 37.503906 C 34.796875 37.722656 33.84375 37.957031 32.886719 38.175781 C 31.363281 38.519531 29.839844 38.855469 28.320312 39.199219 C 27.402344 39.40625 26.488281 39.628906 25.574219 39.839844 C 24.097656 40.183594 22.621094 40.53125 21.144531 40.871094 C 20.5 41.019531 19.851562 41.164062 19.15625 41.320312 C 19.359375 41.644531 19.683594 41.746094 19.941406 41.886719 C 22.285156 43.15625 24.722656 44.203125 27.339844 44.789062 C 28.300781 45.003906 29.269531 45.164062 30.238281 45.324219 C 31.9375 45.601562 33.636719 45.597656 35.335938 45.527344 C 36.382812 45.484375 37.429688 45.328125 38.457031 45.125 C 39.863281 44.847656 41.238281 44.457031 42.5625 43.882812 C 44.03125 43.246094 45.453125 42.542969 46.691406 41.515625 C 47.234375 41.058594 47.796875 40.621094 48.300781 40.121094 C 49.425781 39.007812 50.347656 37.738281 51.03125 36.304688 C 51.128906 36.101562 51.238281 35.90625 51.417969 35.726562 C 51.359375 35.945312 51.324219 36.171875 51.238281 36.382812 C 50.59375 37.988281 49.707031 39.445312 48.597656 40.785156 C 47.160156 42.527344 45.398438 43.863281 43.449219 44.945312 C 41.898438 45.800781 40.234375 46.425781 38.503906 46.875 C 37.214844 47.207031 35.902344 47.363281 34.601562 47.609375 C 34.582031 47.613281 34.558594 47.613281 34.535156 47.613281 C 33.332031 47.65625 32.117188 47.78125 30.917969 47.71875 C 29.765625 47.660156 28.609375 47.570312 27.460938 47.40625 C 25.265625 47.089844 23.140625 46.527344 21.074219 45.761719 C 18.894531 44.949219 16.816406 43.917969 14.894531 42.605469 C 14.652344 42.4375 14.4375 42.402344 14.171875 42.464844 C 12.339844 42.886719 10.507812 43.304688 8.675781 43.730469 C 8.15625 43.851562 7.636719 43.984375 7.117188 44.097656 C 7 44.125 6.867188 44.101562 6.730469 44.035156 C 8.875 43.195312 11.023438 42.355469 13.246094 41.488281 C 12.738281 41.042969 12.257812 40.664062 11.820312 40.238281 C 11 39.441406 10.167969 38.652344 9.410156 37.800781 C 8.753906 37.0625 8.175781 36.253906 7.59375 35.453125 C 6.882812 34.472656 6.292969 33.417969 5.828125 32.304688 C 5.433594 31.359375 5.113281 30.382812 4.808594 29.402344 C 4.570312 28.625 4.394531 27.828125 4.355469 27.007812 C 4.324219 26.363281 4.257812 25.722656 4.238281 25.078125 C 4.191406 23.40625 4.488281 21.789062 5.027344 20.210938 C 5.667969 18.339844 6.644531 16.667969 7.917969 15.148438 C 9.832031 12.863281 12.257812 11.304688 14.949219 10.136719 C 16.5625 9.433594 18.257812 8.964844 19.992188 8.675781 C 20.921875 8.519531 21.859375 8.40625 22.808594 8.351562 C 23.582031 8.3125 24.355469 8.234375 25.132812 8.273438 C 26.117188 8.320312 27.101562 8.417969 28.085938 8.503906 C 30.445312 8.714844 32.71875 9.304688 34.941406 10.085938 C 36.832031 10.75 38.628906 11.617188 40.355469 12.625 C 40.402344 12.652344 40.425781 12.710938 40.5625 12.875 C 40.242188 12.726562 40.054688 12.644531 39.871094 12.550781 C 38.621094 11.9375 37.332031 11.40625 36.011719 10.960938 C 34.792969 10.546875 33.550781 10.222656 32.296875 9.972656 C 31.519531 9.820312 30.71875 9.792969 29.9375 9.667969 C 28.667969 9.46875 27.394531 9.566406 26.121094 9.558594 C 25.066406 9.550781 24.03125 9.746094 22.992188 9.902344 C 21.96875 10.058594 20.984375 10.34375 19.996094 10.617188 C 19.402344 10.78125 18.816406 11.011719 18.253906 11.265625 C 16.480469 12.070312 14.8125 13.03125 13.359375 14.359375 C 12.363281 15.269531 11.488281 16.261719 10.765625 17.390625 C 9.824219 18.867188 9.152344 20.46875 8.816406 22.1875 C 8.632812 23.132812 8.492188 24.097656 8.546875 25.070312 C 8.625 26.523438 8.8125 27.960938 9.25 29.367188 C 9.539062 30.292969 9.886719 31.191406 10.3125 32.050781 C 10.953125 33.34375 11.707031 34.574219 12.625 35.695312 C 13.308594 36.53125 13.992188 37.363281 14.796875 38.089844 C 15.417969 38.652344 16.070312 39.183594 16.699219 39.742188 C 16.945312 39.957031 17.175781 39.953125 17.460938 39.839844 C 18.65625 39.363281 19.851562 38.902344 21.050781 38.4375 C 22.332031 37.941406 23.613281 37.457031 24.890625 36.957031 C 26.027344 36.515625 27.160156 36.050781 28.292969 35.601562 C 29.988281 34.933594 31.683594 34.269531 33.378906 33.605469 C 35.449219 32.796875 37.523438 31.996094 39.621094 31.179688 C 39.582031 31.058594 39.570312 30.972656 39.527344 30.910156 C 39.46875 30.820312 39.382812 30.746094 39.308594 30.667969 C 38.386719 29.695312 37.460938 28.726562 36.542969 27.75 C 35.242188 26.367188 33.941406 24.980469 32.648438 23.589844 C 31.765625 22.640625 30.898438 21.6875 30.023438 20.734375 C 29.976562 20.691406 29.921875 20.65625 29.832031 20.585938 C 29.710938 20.753906 29.570312 20.910156 29.46875 21.085938 C 28.808594 22.269531 28.160156 23.457031 27.496094 24.636719 C 26.609375 26.210938 25.710938 27.777344 24.824219 29.347656 C 24.148438 30.546875 23.488281 31.757812 22.820312 32.957031 C 22.339844 33.820312 21.855469 34.679688 21.320312 35.519531 C 21.425781 34.613281 21.753906 33.769531 21.957031 32.894531 C 22.164062 32 22.449219 31.125 22.703125 30.242188 C 22.957031 29.359375 23.21875 28.476562 23.472656 27.59375 C 23.726562 26.714844 23.980469 25.832031 24.230469 24.945312 C 24.476562 24.0625 24.722656 23.175781 24.96875 22.289062 C 25.214844 21.402344 25.460938 20.515625 25.707031 19.632812 C 25.957031 18.746094 26.207031 17.863281 26.460938 16.980469 C 26.714844 16.097656 26.976562 15.214844 27.226562 14.332031 C 27.476562 13.453125 27.71875 12.570312 27.988281 11.59375 C 28.148438 11.734375 28.238281 11.808594 28.324219 11.890625 C 29.511719 13.023438 30.695312 14.160156 31.890625 15.289062 C 33.132812 16.457031 34.386719 17.613281 35.632812 18.78125 C 36.992188 20.046875 38.347656 21.316406 39.703125 22.585938 C 41.027344 23.828125 42.351562 25.066406 43.679688 26.304688 C 45.003906 27.542969 46.332031 28.785156 47.65625 30.023438 C 48.855469 31.140625 50.058594 32.257812 51.265625 33.375 C 51.40625 33.503906 51.566406 33.613281 51.765625 33.773438 "/>
</g>
</svg>
