<?xml version="1.0" encoding="UTF-8"?>
<svg xmlns="http://www.w3.org/2000/svg" xmlns:xlink="http://www.w3.org/1999/xlink" width="56pt" height="56pt" viewBox="0 0 56 56" version="1.1">
<g id="surface1">
<rect x="0" y="0" width="56" height="56" style="fill:rgb(95.666504%,95.776367%,96.775818%);fill-opacity:1;stroke:none;"/>
<path style=" stroke:none;fill-rule:evenodd;fill:rgb(15.789795%,17.652893%,41.537476%);fill-opacity:1;" d="M 33.507812 28.679688 C 32.847656 30.226562 32.15625 31.765625 31.539062 33.328125 C 30.382812 36.28125 29.265625 39.253906 28.132812 42.214844 C 28.105469 42.277344 28.082031 42.339844 28.015625 42.496094 C 27.828125 42.027344 27.675781 41.640625 27.519531 41.253906 C 25.914062 37.238281 24.265625 33.246094 22.386719 29.347656 C 22.335938 29.246094 22.28125 29.144531 22.226562 29.042969 C 21.675781 27.945312 21.121094 26.851562 20.566406 25.753906 C 19.898438 24.5 19.207031 23.261719 18.316406 22.152344 C 18.039062 21.808594 17.726562 21.492188 17.40625 21.191406 C 17.019531 20.828125 16.542969 20.761719 16.074219 20.992188 C 15.699219 21.175781 15.335938 21.40625 15.023438 21.675781 C 14.1875 22.402344 13.597656 23.324219 13.039062 24.269531 C 11.90625 26.1875 10.996094 28.214844 10.128906 30.257812 C 8.503906 34.082031 7.03125 37.964844 5.605469 41.863281 C 5.539062 42.039062 5.441406 42.203125 5.324219 42.4375 C 5.324219 39.023438 5.328125 35.6875 5.320312 32.351562 C 5.320312 32.0625 5.425781 31.832031 5.566406 31.601562 C 7.058594 29.125 8.550781 26.648438 10.042969 24.167969 C 12.066406 20.800781 14.085938 17.433594 16.105469 14.0625 C 16.507812 13.390625 16.503906 13.386719 16.90625 14.03125 C 18.632812 16.816406 20.359375 19.601562 22.085938 22.386719 C 22.164062 22.515625 22.253906 22.640625 22.339844 22.765625 C 22.867188 23.617188 23.398438 24.46875 23.925781 25.316406 C 24.257812 25.875 24.582031 26.4375 24.917969 26.988281 C 25.871094 28.53125 26.828125 30.074219 27.789062 31.613281 C 28.003906 31.960938 28.023438 31.960938 28.226562 31.628906 C 28.78125 30.714844 29.328125 29.792969 29.882812 28.878906 C 30.554688 27.765625 31.230469 26.660156 31.90625 25.550781 C 31.945312 25.589844 32 25.625 32.027344 25.671875 C 32.515625 26.597656 33.003906 27.523438 33.484375 28.457031 C 33.519531 28.515625 33.5 28.605469 33.507812 28.679688 "/>
<path style=" stroke:none;fill-rule:evenodd;fill:rgb(96.200562%,53.35083%,8.151245%);fill-opacity:1;" d="M 23.925781 25.316406 C 23.398438 24.46875 22.867188 23.617188 22.339844 22.765625 C 22.921875 21.828125 23.511719 20.894531 24.078125 19.949219 C 25.289062 17.941406 26.488281 15.925781 27.695312 13.914062 C 27.753906 13.816406 27.820312 13.71875 27.882812 13.625 C 27.96875 13.488281 28.058594 13.507812 28.144531 13.625 C 28.214844 13.714844 28.277344 13.8125 28.335938 13.90625 C 29.550781 15.871094 30.765625 17.832031 31.976562 19.796875 C 32.488281 20.621094 33 21.453125 33.515625 22.277344 C 33.5625 22.351562 33.652344 22.398438 33.722656 22.457031 C 33.734375 22.53125 33.726562 22.617188 33.761719 22.679688 C 34.207031 23.410156 34.660156 24.136719 35.117188 24.859375 C 35.152344 24.914062 35.238281 24.9375 35.304688 24.972656 C 35.433594 25.246094 35.539062 25.535156 35.695312 25.789062 C 36.90625 27.757812 38.132812 29.71875 39.34375 31.683594 C 39.4375 31.839844 39.507812 32.039062 39.507812 32.21875 C 39.515625 35.519531 39.515625 38.816406 39.511719 42.117188 C 39.511719 42.167969 39.488281 42.222656 39.460938 42.347656 C 39.15625 41.605469 38.882812 40.921875 38.597656 40.238281 C 37.789062 38.28125 37.003906 36.316406 36.164062 34.378906 C 35.398438 32.609375 34.570312 30.867188 33.769531 29.113281 C 33.699219 28.964844 33.59375 28.824219 33.507812 28.679688 C 33.5 28.605469 33.519531 28.515625 33.484375 28.457031 C 33.003906 27.523438 32.515625 26.597656 32.027344 25.671875 C 32 25.625 31.945312 25.589844 31.90625 25.550781 C 31.882812 25.460938 31.875 25.359375 31.832031 25.28125 C 31.59375 24.867188 31.351562 24.457031 31.109375 24.046875 C 30.554688 23.109375 29.945312 22.21875 29.183594 21.421875 C 28.515625 20.730469 27.796875 20.769531 27.078125 21.230469 C 26.40625 21.664062 25.886719 22.25 25.449219 22.898438 C 24.914062 23.6875 24.429688 24.507812 23.925781 25.316406 "/>
<path style=" stroke:none;fill-rule:evenodd;fill:rgb(15.768433%,17.518616%,41.442871%);fill-opacity:1;" d="M 35.304688 24.972656 C 35.238281 24.9375 35.152344 24.914062 35.117188 24.859375 C 34.660156 24.136719 34.207031 23.410156 33.761719 22.679688 C 33.726562 22.617188 33.734375 22.53125 33.722656 22.457031 C 34.988281 20.355469 36.257812 18.257812 37.523438 16.15625 C 38.007812 15.351562 38.476562 14.539062 38.964844 13.734375 C 39.148438 13.429688 39.195312 13.425781 39.386719 13.734375 C 40.230469 15.082031 41.066406 16.433594 41.902344 17.785156 C 44.210938 21.515625 46.519531 25.25 48.828125 28.980469 C 49.382812 29.875 49.945312 30.765625 50.488281 31.667969 C 50.59375 31.839844 50.671875 32.058594 50.671875 32.253906 C 50.683594 35.535156 50.679688 38.816406 50.675781 42.097656 C 50.675781 42.152344 50.660156 42.210938 50.636719 42.359375 C 50.40625 41.796875 50.203125 41.308594 50.011719 40.820312 C 48.648438 37.363281 47.199219 33.949219 45.636719 30.578125 C 44.636719 28.421875 43.597656 26.285156 42.386719 24.238281 C 41.949219 23.5 41.445312 22.796875 40.945312 22.09375 C 40.761719 21.828125 40.523438 21.597656 40.285156 21.375 C 39.660156 20.777344 39.183594 20.714844 38.414062 21.128906 C 37.722656 21.503906 37.199219 22.066406 36.757812 22.699219 C 36.242188 23.433594 35.785156 24.210938 35.304688 24.972656 "/>
<path style=" stroke:none;fill-rule:evenodd;fill:rgb(96.247864%,53.726196%,8.502197%);fill-opacity:1;" d="M 20.566406 25.753906 C 21.121094 26.851562 21.675781 27.945312 22.226562 29.042969 C 22.011719 29.484375 21.769531 29.917969 21.585938 30.371094 C 20.710938 32.546875 19.835938 34.71875 18.988281 36.90625 C 18.347656 38.554688 17.746094 40.222656 17.125 41.882812 C 17.058594 42.054688 16.960938 42.214844 16.828125 42.472656 C 16.828125 41.847656 16.828125 41.332031 16.828125 40.8125 C 16.828125 38.089844 16.835938 35.363281 16.820312 32.640625 C 16.816406 32.195312 16.925781 31.828125 17.15625 31.457031 C 18.257812 29.644531 19.339844 27.824219 20.429688 26.003906 C 20.480469 25.921875 20.523438 25.835938 20.566406 25.753906 "/>
</g>
</svg>
