<?xml version="1.0" encoding="UTF-8"?>
<svg xmlns="http://www.w3.org/2000/svg" xmlns:xlink="http://www.w3.org/1999/xlink" width="56pt" height="56pt" viewBox="0 0 56 56" version="1.1">
<g id="surface1">
<rect x="0" y="0" width="56" height="56" style="fill:rgb(95.666504%,95.776367%,96.775818%);fill-opacity:1;stroke:none;"/>
<path style=" stroke:none;fill-rule:evenodd;fill:rgb(15.991211%,57.977295%,24.993896%);fill-opacity:1;" d="M 12.375 39.300781 C 19.257812 38.925781 26.402344 35.558594 29.339844 29.308594 C 31.183594 25.390625 33.71875 22.710938 36.828125 21.617188 C 32.625 22.625 30.433594 23.863281 28.417969 25.792969 C 25.421875 28.644531 26.144531 29.480469 22.226562 33.714844 C 18.421875 37.660156 13.699219 38.871094 12.375 39.300781 "/>
<path style=" stroke:none;fill-rule:evenodd;fill:rgb(93.589783%,30.526733%,11.935425%);fill-opacity:1;" d="M 30.347656 40.769531 C 34.234375 38.726562 36.480469 37.085938 38.441406 33.773438 C 40.367188 30.488281 39.824219 26.484375 42.355469 23.433594 C 40.800781 29.019531 43.480469 31.640625 40.054688 36.535156 C 36.710938 41.289062 30.347656 40.769531 30.347656 40.769531 "/>
<path style=" stroke:none;fill-rule:evenodd;fill:rgb(85.06012%,9.185791%,25.119019%);fill-opacity:1;" d="M 49.097656 12.890625 C 49.269531 12.890625 49.386719 13.035156 49.386719 13.179688 C 49.386719 13.351562 49.269531 13.46875 49.097656 13.46875 L 49.097656 15.769531 C 49.15625 15.570312 49.183594 15.367188 49.214844 15.164062 C 49.527344 12.976562 50.019531 12.167969 50.679688 11.566406 C 50.105469 11.625 49.527344 11.96875 49.097656 12.402344 Z M 49.097656 13.46875 C 48.925781 13.46875 48.808594 13.351562 48.808594 13.179688 C 48.808594 13.035156 48.925781 12.890625 49.097656 12.890625 L 49.097656 12.402344 C 48.808594 12.6875 48.578125 13.007812 48.433594 13.292969 C 47.945312 13.292969 47.226562 13.695312 46.964844 14.503906 C 46.824219 14.992188 46.476562 15.195312 46.476562 15.195312 C 46.476562 15.195312 47.339844 15.109375 47.597656 14.332031 C 47.742188 13.871094 48.089844 13.554688 48.378906 13.46875 C 47.6875 14.792969 47.886719 17.09375 44.285156 19.109375 C 39.652344 21.417969 34.8125 21.472656 31.988281 26.65625 C 30.722656 28.992188 29.742188 31.84375 27.554688 34.207031 C 21.246094 41.058594 12.316406 43.507812 5.320312 44.429688 C 14.246094 44.542969 25.421875 42.554688 33.113281 37.054688 C 37.546875 33.859375 38.296875 30.429688 39.679688 26.371094 C 41.378906 21.417969 47.6875 21.589844 49.097656 15.769531 L 49.097656 13.46875 "/>
</g>
</svg>
