<?xml version="1.0" encoding="UTF-8"?>
<svg xmlns="http://www.w3.org/2000/svg" xmlns:xlink="http://www.w3.org/1999/xlink" width="56pt" height="56pt" viewBox="0 0 56 56" version="1.1">
<g id="surface1">
<rect x="0" y="0" width="56" height="56" style="fill:rgb(15.563965%,22.109985%,43.809509%);fill-opacity:1;stroke:none;"/>
<path style=" stroke:none;fill-rule:nonzero;fill:rgb(90.26947%,11.74469%,15.065002%);fill-opacity:1;" d="M 34.875 19.117188 C 36.9375 16.996094 38.925781 14.792969 41.085938 12.777344 C 43.058594 10.929688 45.296875 9.609375 48.519531 10.90625 C 46.605469 13.625 44.855469 16.113281 43.175781 18.503906 C 47.589844 30.523438 44.632812 39.558594 34.75 43.667969 C 36.683594 40.40625 37.707031 38.222656 38.449219 35.519531 C 39.179688 32.863281 38.898438 30.074219 37.371094 26.859375 C 35.917969 28.789062 34.75 30.328125 33.597656 31.871094 C 31.582031 34.585938 29.65625 37.375 27.53125 40.003906 C 24.558594 43.675781 20.835938 45.953125 15.289062 45.570312 C 16.976562 45.082031 18.59375 44.273438 19.332031 43.167969 C 17.21875 43.554688 12.355469 44.972656 10.160156 42.851562 C 7.996094 40.757812 6.53125 38.222656 5.957031 34.824219 C 5.957031 34.824219 8.128906 35.089844 9.183594 35.152344 C 14.769531 35.488281 20.054688 33.878906 24.195312 30.058594 C 27.90625 26.632812 31.261719 22.824219 34.769531 19.179688 L 34.875 19.117188 "/>
<path style=" stroke:none;fill-rule:nonzero;fill:rgb(90.26947%,11.74469%,15.065002%);fill-opacity:1;" d="M 17.332031 15.105469 C 16.65625 16.160156 15.492188 17.144531 14.773438 18.167969 C 11.734375 22.480469 11.433594 28.679688 16.15625 34.308594 C 12.417969 34.21875 9.25 33.207031 7.472656 32.191406 C 6.382812 31.566406 5.460938 30.820312 5.480469 29.304688 C 5.5625 23.15625 11.300781 16.292969 17.386719 15.164062 L 17.332031 15.105469 "/>
<path style=" stroke:none;fill-rule:nonzero;fill:rgb(90.26947%,11.74469%,15.065002%);fill-opacity:1;" d="M 37.074219 12.96875 C 35.214844 11.695312 33.53125 11.34375 31.808594 11.0625 C 26.414062 10.191406 21.328125 10.757812 17.386719 15.164062 L 17.332031 15.105469 C 17.75 15.132812 18.554688 14.757812 18.964844 14.710938 C 24.039062 14.125 28.191406 14.746094 32.273438 18.09375 C 32.808594 18.53125 34.035156 19.949219 34.035156 19.949219 L 37.074219 12.96875 "/>
</g>
</svg>
