<?xml version="1.0" encoding="UTF-8"?>
<svg xmlns="http://www.w3.org/2000/svg" xmlns:xlink="http://www.w3.org/1999/xlink" width="56pt" height="56pt" viewBox="0 0 56 56" version="1.1">
<g id="surface1">
<rect x="0" y="0" width="56" height="56" style="fill:rgb(12.664795%,18.699646%,36.265564%);fill-opacity:1;stroke:none;"/>
<path style=" stroke:none;fill-rule:nonzero;fill:rgb(100%,100%,100%);fill-opacity:1;" d="M 29.261719 29.496094 C 28.765625 28.199219 28.332031 27.066406 27.894531 25.929688 C 27.46875 24.824219 27.210938 23.644531 26.484375 22.457031 C 25.601562 24.898438 24.789062 27.160156 23.945312 29.496094 C 25.707031 29.496094 27.347656 29.496094 29.261719 29.496094 Z M 22.363281 34.085938 C 21.933594 35.164062 21.5 36.246094 21.066406 37.339844 C 19.714844 37.339844 18.417969 37.339844 16.957031 37.339844 C 17.230469 36.554688 17.453125 35.851562 17.71875 35.167969 C 19.746094 29.957031 21.785156 24.746094 23.8125 19.535156 C 23.933594 19.222656 23.988281 18.886719 24.078125 18.558594 C 24.246094 18.292969 24.417969 18.027344 24.558594 17.808594 C 25.976562 17.808594 27.308594 17.808594 28.613281 17.808594 C 28.757812 17.992188 28.882812 18.144531 29.003906 18.296875 C 29.105469 18.660156 29.179688 19.035156 29.320312 19.382812 C 31 23.558594 32.691406 27.730469 34.371094 31.90625 C 35.078125 33.660156 35.761719 35.417969 36.453125 37.179688 C 35.582031 37.441406 33.613281 37.472656 32.222656 37.25 C 31.664062 35.828125 31.085938 34.351562 30.515625 32.886719 C 27.894531 32.886719 25.351562 32.886719 22.765625 32.886719 C 22.683594 33.136719 22.605469 33.367188 22.53125 33.601562 C 22.476562 33.761719 22.417969 33.921875 22.363281 34.085938 "/>
<path style=" stroke:none;fill-rule:nonzero;fill:rgb(100%,100%,100%);fill-opacity:1;" d="M 19.484375 17.816406 C 17.148438 24.386719 14.851562 30.84375 12.542969 37.339844 C 11.128906 37.339844 9.742188 37.339844 8.257812 37.339844 C 5.945312 30.875 3.628906 24.402344 1.277344 17.832031 C 2.78125 17.832031 4.125 17.832031 5.601562 17.832031 C 7.183594 22.453125 8.789062 27.136719 10.46875 32.054688 C 11.453125 29.574219 12.144531 27.210938 12.910156 24.875 C 13.679688 22.527344 14.460938 20.179688 15.242188 17.816406 C 16.652344 17.816406 18 17.816406 19.484375 17.816406 "/>
<path style=" stroke:none;fill-rule:nonzero;fill:rgb(100%,100%,100%);fill-opacity:1;" d="M 43.300781 34.160156 C 46.398438 34.160156 49.492188 34.160156 52.640625 34.160156 C 52.640625 35.308594 52.640625 36.355469 52.640625 37.542969 C 52.265625 37.578125 51.90625 37.632812 51.546875 37.632812 C 47.421875 37.636719 43.296875 37.636719 39.164062 37.636719 C 38.664062 37.277344 38.777344 36.738281 38.777344 36.246094 C 38.773438 31.738281 38.773438 27.230469 38.773438 22.722656 C 38.773438 22.09375 38.773438 21.46875 38.773438 20.738281 C 40.367188 21.0625 41.425781 22.101562 42.796875 22.648438 C 42.796875 23.027344 42.796875 23.359375 42.796875 23.691406 C 42.796875 26.921875 42.792969 30.15625 42.808594 33.386719 C 42.808594 33.636719 42.589844 34.003906 43.039062 34.132812 C 43.125 34.140625 43.214844 34.152344 43.300781 34.160156 "/>
</g>
</svg>
