<?xml version="1.0" encoding="UTF-8"?>
<svg xmlns="http://www.w3.org/2000/svg" xmlns:xlink="http://www.w3.org/1999/xlink" width="56pt" height="56pt" viewBox="0 0 56 56" version="1.1">
<g id="surface1">
<rect x="0" y="0" width="56" height="56" style="fill:rgb(95.666504%,95.776367%,96.775818%);fill-opacity:1;stroke:none;"/>
<path style=" stroke:none;fill-rule:nonzero;fill:rgb(88.008118%,9.629822%,21.806335%);fill-opacity:1;" d="M 36.554688 10.890625 L 28 19.445312 L 19.449219 10.890625 L 28 2.339844 L 36.554688 10.890625 "/>
<path style=" stroke:none;fill-rule:nonzero;fill:rgb(88.008118%,9.629822%,21.806335%);fill-opacity:1;" d="M 19.449219 28 L 10.894531 36.554688 L 2.339844 28 L 10.894531 19.445312 L 19.449219 28 "/>
<path style=" stroke:none;fill-rule:nonzero;fill:rgb(88.008118%,9.629822%,21.806335%);fill-opacity:1;" d="M 25.152344 16.574219 L 25.152344 22.320312 L 26.125 21.347656 L 26.125 17.546875 L 25.152344 16.574219 "/>
<path style=" stroke:none;fill-rule:nonzero;fill:rgb(88.008118%,9.629822%,21.806335%);fill-opacity:1;" d="M 16.113281 14.25 L 15 15.363281 L 15 23.53125 L 16.113281 24.644531 L 16.113281 14.25 "/>
<path style=" stroke:none;fill-rule:nonzero;fill:rgb(88.008118%,9.629822%,21.806335%);fill-opacity:1;" d="M 20.980469 26.492188 L 22.09375 25.378906 L 22.09375 13.515625 L 20.980469 12.402344 L 20.980469 26.492188 "/>
<path style=" stroke:none;fill-rule:nonzero;fill:rgb(88.008118%,9.629822%,21.806335%);fill-opacity:1;" d="M 24.175781 15.597656 L 23.066406 14.488281 L 23.066406 24.40625 L 24.175781 23.292969 L 24.175781 15.597656 "/>
<path style=" stroke:none;fill-rule:nonzero;fill:rgb(88.008118%,9.629822%,21.806335%);fill-opacity:1;" d="M 17.085938 13.277344 L 17.085938 25.617188 L 18.058594 26.589844 L 18.058594 12.304688 L 17.085938 13.277344 "/>
<path style=" stroke:none;fill-rule:nonzero;fill:rgb(88.008118%,9.629822%,21.806335%);fill-opacity:1;" d="M 27.097656 20.371094 L 28.023438 19.445312 L 27.097656 18.519531 Z M 27.097656 20.371094 "/>
<path style=" stroke:none;fill-rule:nonzero;fill:rgb(88.008118%,9.629822%,21.806335%);fill-opacity:1;" d="M 12.914062 21.445312 L 14.027344 22.554688 L 14.027344 16.335938 L 12.914062 17.449219 L 12.914062 21.445312 "/>
<path style=" stroke:none;fill-rule:nonzero;fill:rgb(88.008118%,9.629822%,21.806335%);fill-opacity:1;" d="M 20.007812 11.429688 L 19.46875 10.890625 L 19.03125 11.328125 L 19.03125 27.5625 L 19.46875 28 L 20.007812 27.464844 L 20.007812 11.429688 "/>
<path style=" stroke:none;fill-rule:nonzero;fill:rgb(88.008118%,9.629822%,21.806335%);fill-opacity:1;" d="M 11.941406 18.421875 L 10.917969 19.445312 L 11.941406 20.472656 Z M 11.941406 18.421875 "/>
<path style=" stroke:none;fill-rule:nonzero;fill:rgb(88.008118%,9.629822%,21.806335%);fill-opacity:1;" d="M 53.664062 28 L 45.109375 36.554688 L 36.554688 28 L 45.109375 19.445312 L 53.664062 28 "/>
<path style=" stroke:none;fill-rule:nonzero;fill:rgb(88.008118%,9.629822%,21.806335%);fill-opacity:1;" d="M 36.554688 45.105469 L 28 53.660156 L 19.449219 45.105469 L 28 36.554688 L 36.554688 45.105469 "/>
<path style=" stroke:none;fill-rule:nonzero;fill:rgb(88.008118%,9.629822%,21.806335%);fill-opacity:1;" d="M 42.253906 33.679688 L 42.253906 39.425781 L 43.226562 38.453125 L 43.226562 34.65625 L 42.253906 33.679688 "/>
<path style=" stroke:none;fill-rule:nonzero;fill:rgb(88.008118%,9.629822%,21.806335%);fill-opacity:1;" d="M 33.214844 31.355469 L 32.101562 32.46875 L 32.101562 40.636719 L 33.214844 41.75 L 33.214844 31.355469 "/>
<path style=" stroke:none;fill-rule:nonzero;fill:rgb(88.008118%,9.629822%,21.806335%);fill-opacity:1;" d="M 38.082031 43.597656 L 39.195312 42.484375 L 39.195312 30.621094 L 38.082031 29.507812 L 38.082031 43.597656 "/>
<path style=" stroke:none;fill-rule:nonzero;fill:rgb(88.008118%,9.629822%,21.806335%);fill-opacity:1;" d="M 41.28125 32.707031 L 40.167969 31.59375 L 40.167969 41.511719 L 41.28125 40.402344 L 41.28125 32.707031 "/>
<path style=" stroke:none;fill-rule:nonzero;fill:rgb(88.008118%,9.629822%,21.806335%);fill-opacity:1;" d="M 34.1875 30.382812 L 34.1875 42.722656 L 35.160156 43.699219 L 35.160156 29.410156 L 34.1875 30.382812 "/>
<path style=" stroke:none;fill-rule:nonzero;fill:rgb(88.008118%,9.629822%,21.806335%);fill-opacity:1;" d="M 44.199219 37.480469 L 45.128906 36.554688 L 44.199219 35.628906 Z M 44.199219 37.480469 "/>
<path style=" stroke:none;fill-rule:nonzero;fill:rgb(88.008118%,9.629822%,21.806335%);fill-opacity:1;" d="M 30.019531 38.550781 L 31.128906 39.664062 L 31.128906 33.445312 L 30.019531 34.554688 L 30.019531 38.550781 "/>
<path style=" stroke:none;fill-rule:nonzero;fill:rgb(88.008118%,9.629822%,21.806335%);fill-opacity:1;" d="M 37.109375 28.535156 L 36.574219 28 L 36.136719 28.4375 L 36.136719 44.667969 L 36.574219 45.105469 L 37.109375 44.574219 L 37.109375 28.535156 "/>
<path style=" stroke:none;fill-rule:nonzero;fill:rgb(88.008118%,9.629822%,21.806335%);fill-opacity:1;" d="M 29.042969 35.527344 L 28.019531 36.554688 L 29.042969 37.578125 Z M 29.042969 35.527344 "/>
<path style=" stroke:none;fill-rule:nonzero;fill:rgb(88.008118%,9.629822%,21.806335%);fill-opacity:1;" d="M 42.253906 16.574219 L 42.253906 22.320312 L 43.226562 21.347656 L 43.226562 17.546875 L 42.253906 16.574219 "/>
<path style=" stroke:none;fill-rule:nonzero;fill:rgb(88.008118%,9.629822%,21.806335%);fill-opacity:1;" d="M 33.214844 14.25 L 32.101562 15.363281 L 32.101562 23.53125 L 33.214844 24.644531 L 33.214844 14.25 "/>
<path style=" stroke:none;fill-rule:nonzero;fill:rgb(88.008118%,9.629822%,21.806335%);fill-opacity:1;" d="M 38.082031 26.492188 L 39.195312 25.378906 L 39.195312 13.515625 L 38.082031 12.402344 L 38.082031 26.492188 "/>
<path style=" stroke:none;fill-rule:nonzero;fill:rgb(88.008118%,9.629822%,21.806335%);fill-opacity:1;" d="M 41.28125 15.597656 L 40.167969 14.488281 L 40.167969 24.40625 L 41.28125 23.292969 L 41.28125 15.597656 "/>
<path style=" stroke:none;fill-rule:nonzero;fill:rgb(88.008118%,9.629822%,21.806335%);fill-opacity:1;" d="M 34.1875 13.277344 L 34.1875 25.617188 L 35.160156 26.589844 L 35.160156 12.304688 L 34.1875 13.277344 "/>
<path style=" stroke:none;fill-rule:nonzero;fill:rgb(88.008118%,9.629822%,21.806335%);fill-opacity:1;" d="M 44.199219 20.371094 L 45.128906 19.445312 L 44.199219 18.519531 Z M 44.199219 20.371094 "/>
<path style=" stroke:none;fill-rule:nonzero;fill:rgb(88.008118%,9.629822%,21.806335%);fill-opacity:1;" d="M 30.019531 21.445312 L 31.128906 22.554688 L 31.128906 16.335938 L 30.019531 17.449219 L 30.019531 21.445312 "/>
<path style=" stroke:none;fill-rule:nonzero;fill:rgb(88.008118%,9.629822%,21.806335%);fill-opacity:1;" d="M 37.109375 11.429688 L 36.574219 10.890625 L 36.136719 11.328125 L 36.136719 27.5625 L 36.574219 28 L 37.109375 27.464844 L 37.109375 11.429688 "/>
<path style=" stroke:none;fill-rule:nonzero;fill:rgb(88.008118%,9.629822%,21.806335%);fill-opacity:1;" d="M 29.042969 18.421875 L 28.019531 19.445312 L 29.042969 20.472656 Z M 29.042969 18.421875 "/>
<path style=" stroke:none;fill-rule:nonzero;fill:rgb(88.008118%,9.629822%,21.806335%);fill-opacity:1;" d="M 25.152344 33.679688 L 25.152344 39.425781 L 26.125 38.453125 L 26.125 34.65625 L 25.152344 33.679688 "/>
<path style=" stroke:none;fill-rule:nonzero;fill:rgb(88.008118%,9.629822%,21.806335%);fill-opacity:1;" d="M 16.113281 31.355469 L 15 32.46875 L 15 40.636719 L 16.113281 41.75 L 16.113281 31.355469 "/>
<path style=" stroke:none;fill-rule:nonzero;fill:rgb(88.008118%,9.629822%,21.806335%);fill-opacity:1;" d="M 20.980469 43.597656 L 22.09375 42.484375 L 22.09375 30.621094 L 20.980469 29.507812 L 20.980469 43.597656 "/>
<path style=" stroke:none;fill-rule:nonzero;fill:rgb(88.008118%,9.629822%,21.806335%);fill-opacity:1;" d="M 24.175781 32.707031 L 23.066406 31.59375 L 23.066406 41.511719 L 24.175781 40.402344 L 24.175781 32.707031 "/>
<path style=" stroke:none;fill-rule:nonzero;fill:rgb(88.008118%,9.629822%,21.806335%);fill-opacity:1;" d="M 17.085938 30.382812 L 17.085938 42.722656 L 18.058594 43.699219 L 18.058594 29.410156 L 17.085938 30.382812 "/>
<path style=" stroke:none;fill-rule:nonzero;fill:rgb(88.008118%,9.629822%,21.806335%);fill-opacity:1;" d="M 27.097656 37.480469 L 28.023438 36.554688 L 27.097656 35.628906 Z M 27.097656 37.480469 "/>
<path style=" stroke:none;fill-rule:nonzero;fill:rgb(88.008118%,9.629822%,21.806335%);fill-opacity:1;" d="M 12.914062 38.550781 L 14.027344 39.664062 L 14.027344 33.445312 L 12.914062 34.554688 L 12.914062 38.550781 "/>
<path style=" stroke:none;fill-rule:nonzero;fill:rgb(88.008118%,9.629822%,21.806335%);fill-opacity:1;" d="M 20.007812 28.535156 L 19.46875 28 L 19.03125 28.4375 L 19.03125 44.667969 L 19.46875 45.105469 L 20.007812 44.574219 L 20.007812 28.535156 "/>
<path style=" stroke:none;fill-rule:nonzero;fill:rgb(88.008118%,9.629822%,21.806335%);fill-opacity:1;" d="M 11.941406 35.527344 L 10.917969 36.554688 L 11.941406 37.578125 Z M 11.941406 35.527344 "/>
</g>
</svg>
