<?xml version="1.0" encoding="UTF-8"?>
<svg xmlns="http://www.w3.org/2000/svg" xmlns:xlink="http://www.w3.org/1999/xlink" width="56pt" height="56pt" viewBox="0 0 56 56" version="1.1">
<g id="surface1">
<rect x="0" y="0" width="56" height="56" style="fill:rgb(95.66803%,95.779419%,96.777344%);fill-opacity:1;stroke:none;"/>
<path style=" stroke:none;fill-rule:nonzero;fill:rgb(16.712952%,25.253296%,60.818481%);fill-opacity:1;" d="M 39.304688 8.429688 L 38.101562 13.632812 L 21.496094 13.632812 C 21.496094 13.632812 17.09375 15.03125 16.292969 18.433594 L 37.902344 18.433594 L 36.503906 24.238281 L 15.492188 24.238281 C 15.492188 24.238281 14.695312 28.039062 18.894531 29.441406 L 35.703125 29.441406 L 34.902344 34.640625 L 10.691406 34.640625 C 10.691406 34.640625 4.488281 31.839844 4.488281 26.839844 L 6.488281 16.433594 C 6.488281 16.433594 8.089844 10.230469 14.894531 8.230469 L 39.304688 8.429688 "/>
<path style=" stroke:none;fill-rule:nonzero;fill:rgb(95.269775%,38.679504%,9.458923%);fill-opacity:1;" d="M 15.792969 47.769531 L 18.898438 28.328125 C 18.898438 28.328125 20.898438 22.324219 27.300781 21.527344 L 51.511719 21.527344 L 50.710938 26.925781 L 33.902344 26.925781 C 33.902344 26.925781 29.402344 27.429688 28.800781 32.03125 L 49.910156 32.03125 L 49.210938 37.230469 L 27.902344 37.230469 L 26.300781 47.769531 L 15.792969 47.769531 "/>
</g>
</svg>
