<?xml version="1.0" encoding="UTF-8"?>
<svg xmlns="http://www.w3.org/2000/svg" xmlns:xlink="http://www.w3.org/1999/xlink" width="56pt" height="56pt" viewBox="0 0 56 56" version="1.1">
<g id="surface1">
<rect x="0" y="0" width="56" height="56" style="fill:rgb(95.66803%,95.779419%,96.777344%);fill-opacity:1;stroke:none;"/>
<path style=" stroke:none;fill-rule:nonzero;fill:rgb(94.389343%,93.711853%,11.31897%);fill-opacity:1;" d="M 26.992188 29.113281 C 26.972656 29.132812 26.953125 29.132812 26.953125 29.148438 C 26.953125 29.132812 26.972656 29.113281 26.992188 29.113281 "/>
<path style=" stroke:none;fill-rule:nonzero;fill:rgb(11.08551%,12.521362%,29.638672%);fill-opacity:1;" d="M 47.007812 40.023438 C 46.992188 38.253906 45.546875 36.976562 44.050781 37.410156 C 43.027344 37.707031 42.292969 38.773438 42.273438 39.996094 C 42.25 41.25 42.972656 42.351562 44.03125 42.671875 C 45.558594 43.136719 47.023438 41.832031 47.007812 40.023438 Z M 52.042969 38.011719 C 51.976562 38.261719 51.90625 38.511719 51.84375 38.765625 C 50.914062 42.851562 47.496094 46.015625 43.429688 46.5625 C 40.289062 46.984375 37.445312 46.253906 35.015625 44.125 C 30.429688 40.101562 30.453125 33.292969 35.023438 29.246094 C 39.660156 25.144531 46.996094 26.132812 50.457031 31.328125 C 51.160156 32.386719 51.617188 33.550781 51.882812 34.804688 C 51.917969 34.976562 51.988281 35.144531 52.042969 35.316406 C 52.042969 36.214844 52.042969 37.109375 52.042969 38.011719 "/>
<path style=" stroke:none;fill-rule:nonzero;fill:rgb(97.509766%,91.435242%,5.937195%);fill-opacity:1;" d="M 12.796875 34.578125 C 12.398438 34.710938 11.972656 34.789062 11.601562 34.984375 C 10.125 35.757812 9.597656 37.777344 10.210938 39.375 C 10.679688 40.605469 11.792969 41.398438 12.988281 41.332031 C 14.230469 41.265625 15.039062 40.554688 15.550781 39.40625 C 16.449219 37.378906 15.089844 34.492188 12.796875 34.578125 Z M 16.671875 46.425781 C 13.125 46.476562 10.109375 45.230469 7.597656 42.789062 C 5.636719 40.878906 4.425781 38.507812 4.066406 35.691406 C 3.578125 31.863281 4.71875 28.578125 7.234375 25.84375 C 9.632812 23.234375 12.648438 21.925781 16.152344 21.820312 C 18.519531 21.75 20.746094 22.214844 22.832031 23.398438 C 26.40625 25.433594 28.613281 28.476562 29.144531 32.714844 C 29.644531 36.699219 28.332031 40.078125 25.605469 42.796875 C 23.125 45.269531 20.078125 46.488281 16.671875 46.425781 "/>
<path style=" stroke:none;fill-rule:nonzero;fill:rgb(78.982544%,11.801147%,14.509583%);fill-opacity:1;" d="M 32.9375 15.210938 C 32.929688 16.402344 33.761719 17.382812 34.789062 17.398438 C 35.824219 17.414062 36.6875 16.449219 36.695312 15.265625 C 36.699219 14.058594 35.894531 13.109375 34.839844 13.089844 C 33.796875 13.066406 32.945312 14.015625 32.9375 15.210938 Z M 31.730469 25.191406 C 29.261719 25.082031 26.765625 23.769531 25.203125 20.910156 C 23.402344 17.621094 24.269531 13.59375 27.191406 11.183594 C 30.660156 8.320312 35.855469 8.816406 38.761719 12.285156 C 41.839844 15.960938 40.839844 21.601562 36.679688 24.035156 C 35.34375 24.820312 33.914062 25.210938 31.730469 25.191406 "/>
</g>
</svg>
