<?xml version="1.0" encoding="UTF-8"?>
<svg xmlns="http://www.w3.org/2000/svg" xmlns:xlink="http://www.w3.org/1999/xlink" width="56pt" height="56pt" viewBox="0 0 56 56" version="1.1">
<g id="surface1">
<rect x="0" y="0" width="56" height="56" style="fill:rgb(25.209045%,67.385864%,25.701904%);fill-opacity:1;stroke:none;"/>
<path style=" stroke:none;fill-rule:nonzero;fill:rgb(100%,100%,100%);fill-opacity:1;" d="M 7.425781 46.402344 C 8.296875 44.410156 9.019531 42.707031 9.777344 41.019531 C 12.746094 34.378906 15.730469 27.746094 18.699219 21.101562 C 20.191406 17.757812 21.683594 14.410156 23.117188 11.039062 C 23.5625 9.992188 24.15625 9.515625 25.347656 9.578125 C 27.257812 9.679688 29.179688 9.632812 31.097656 9.59375 C 31.929688 9.574219 32.3125 9.890625 32.660156 10.671875 C 36.539062 19.421875 40.472656 28.148438 44.390625 36.882812 C 45.773438 39.972656 47.140625 43.074219 48.574219 46.300781 C 45.527344 46.300781 42.605469 46.300781 39.617188 46.300781 C 35.773438 37.039062 31.941406 27.808594 28.03125 18.382812 C 27.804688 18.746094 27.621094 18.96875 27.519531 19.21875 C 24.753906 25.828125 21.996094 32.4375 19.238281 39.046875 C 18.375 41.113281 17.488281 43.175781 16.660156 45.257812 C 16.335938 46.070312 15.886719 46.449219 14.953125 46.425781 C 12.550781 46.359375 10.152344 46.402344 7.425781 46.402344 "/>
</g>
</svg>
