<?xml version="1.0" encoding="UTF-8"?>
<svg xmlns="http://www.w3.org/2000/svg" xmlns:xlink="http://www.w3.org/1999/xlink" width="56pt" height="56pt" viewBox="0 0 56 56" version="1.1">
<g id="surface1">
<rect x="0" y="0" width="56" height="56" style="fill:rgb(21.115112%,51.93634%,68.560791%);fill-opacity:1;stroke:none;"/>
<path style=" stroke:none;fill-rule:nonzero;fill:rgb(79.434204%,58.572388%,10.069275%);fill-opacity:1;" d="M 27.996094 39.316406 C 27.589844 39.539062 24.667969 42.023438 18.847656 42.023438 C 13.949219 42.023438 8.714844 39.527344 7.074219 39.574219 C 6.496094 39.554688 6.03125 39.667969 5.667969 39.828125 C 4.984375 40.113281 4.535156 39.660156 4.597656 39.273438 C 4.660156 38.886719 5.21875 38.164062 5.628906 37.644531 C 6.125 37.003906 6.90625 36.285156 7.738281 35.722656 C 10.058594 34.136719 12.210938 34.105469 13.164062 34.273438 C 13.3125 34.300781 13.726562 34.320312 14.386719 34.960938 C 15.96875 36.480469 18.824219 38.394531 21.023438 38.789062 C 21.253906 38.816406 22.25 38.910156 22.265625 38.628906 C 22.277344 38.460938 22 38.394531 21.90625 38.375 C 18.378906 37.578125 16.339844 35.851562 14.398438 34.078125 C 12.820312 32.640625 11.613281 30.855469 10.710938 29.109375 C 9.992188 27.722656 8.988281 24.984375 7.164062 24.070312 C 6.757812 23.871094 6.746094 23.125 7.59375 22.929688 C 8.191406 22.785156 11.789062 22.449219 16.078125 24.761719 C 17.765625 25.679688 18.308594 26.695312 18.375 26.949219 C 18.375 26.949219 18.472656 27.007812 18.5 27.445312 C 18.726562 33.621094 21.445312 35.695312 22.761719 36.648438 C 23.292969 37.0625 23.957031 37.238281 24.140625 37.054688 C 24.222656 36.964844 24.007812 36.769531 23.863281 36.675781 C 20.070312 34.179688 19.339844 30.921875 19.136719 27.429688 C 18.9375 23.957031 20.398438 20.9375 21.328125 18.472656 C 21.460938 18.121094 21.996094 16.535156 21.589844 15.1875 C 21.320312 14.273438 21.605469 14.058594 22.109375 13.984375 C 22.621094 13.910156 23.394531 14.960938 23.664062 15.285156 C 23.871094 15.53125 24.554688 16.328125 25.578125 18.363281 C 27.605469 22.382812 27.621094 26.832031 27.621094 27.34375 C 27.585938 30.238281 27.050781 30.414062 25.671875 31.082031 C 24.523438 31.53125 23.878906 32.453125 23.878906 33.351562 C 23.878906 34.269531 24.5625 34.945312 25.804688 35.472656 C 25.886719 35.496094 26.035156 35.542969 26.097656 35.554688 C 26.644531 35.695312 27.101562 35.570312 27.101562 35.359375 C 27.101562 35.175781 26.5625 35.109375 26.5625 35.109375 C 25.347656 34.808594 24.507812 34.125 24.507812 33.347656 C 24.507812 32.285156 25.996094 31.210938 27.902344 31.210938 L 27.996094 31.210938 L 28.101562 31.207031 C 30.003906 31.207031 31.488281 32.28125 31.488281 33.34375 C 31.488281 34.125 30.652344 34.808594 29.441406 35.105469 C 29.441406 35.105469 28.898438 35.175781 28.898438 35.359375 C 28.902344 35.570312 29.351562 35.691406 29.902344 35.554688 C 29.96875 35.542969 30.109375 35.496094 30.199219 35.46875 C 31.445312 34.941406 32.117188 34.261719 32.117188 33.347656 C 32.117188 32.453125 31.480469 31.53125 30.328125 31.082031 C 28.949219 30.414062 28.425781 30.230469 28.382812 27.339844 C 28.375 26.832031 28.398438 22.382812 30.414062 18.363281 C 31.445312 16.324219 32.125 15.53125 32.335938 15.285156 C 32.601562 14.960938 33.378906 13.910156 33.894531 13.980469 C 34.398438 14.058594 34.675781 14.273438 34.40625 15.183594 C 34.003906 16.535156 34.535156 18.121094 34.671875 18.46875 C 35.589844 20.9375 37.0625 23.957031 36.859375 27.429688 C 36.660156 30.921875 35.929688 34.179688 32.136719 36.671875 C 31.984375 36.769531 31.78125 36.960938 31.863281 37.054688 C 32.039062 37.238281 32.707031 37.0625 33.238281 36.648438 C 34.550781 35.695312 37.269531 33.621094 37.496094 27.441406 C 37.527344 27.007812 37.632812 26.945312 37.632812 26.945312 C 37.695312 26.695312 38.230469 25.675781 39.917969 24.761719 C 44.21875 22.441406 47.8125 22.785156 48.40625 22.925781 C 49.257812 23.125 49.242188 23.871094 48.839844 24.066406 C 47.007812 24.984375 46.007812 27.722656 45.292969 29.105469 C 44.390625 30.855469 43.183594 32.640625 41.601562 34.078125 C 39.660156 35.851562 37.621094 37.574219 34.09375 38.375 C 34.003906 38.394531 33.722656 38.457031 33.734375 38.628906 C 33.746094 38.910156 34.742188 38.8125 34.984375 38.789062 C 37.175781 38.394531 40.023438 36.480469 41.617188 34.960938 C 42.28125 34.320312 42.691406 34.300781 42.84375 34.273438 C 43.785156 34.105469 45.9375 34.136719 48.265625 35.722656 C 49.101562 36.28125 49.878906 37 50.367188 37.644531 C 50.777344 38.164062 51.339844 38.886719 51.40625 39.273438 C 51.464844 39.660156 51.019531 40.109375 50.332031 39.824219 C 49.96875 39.667969 49.503906 39.550781 48.925781 39.574219 C 47.285156 39.527344 42.050781 42.023438 37.148438 42.019531 C 31.335938 42.019531 28.410156 39.539062 27.996094 39.316406 "/>
</g>
</svg>
