<?xml version="1.0" encoding="UTF-8"?>
<svg xmlns="http://www.w3.org/2000/svg" xmlns:xlink="http://www.w3.org/1999/xlink" width="56pt" height="56pt" viewBox="0 0 56 56" version="1.1">
<g id="surface1">
<rect x="0" y="0" width="56" height="56" style="fill:rgb(92.332458%,11.239624%,15.208435%);fill-opacity:1;stroke:none;"/>
<path style=" stroke:none;fill-rule:evenodd;fill:rgb(100%,100%,100%);fill-opacity:1;" d="M 38.109375 32.28125 C 41.054688 32.425781 44.011719 32.304688 46.960938 32.320312 C 46.667969 34.933594 45.140625 35.726562 43.734375 35.78125 C 38.753906 35.980469 33.894531 36.167969 28.910156 36.292969 C 27.296875 36.335938 26.394531 35.785156 27.457031 33.445312 C 29.019531 30.015625 32.492188 24.34375 36.503906 20.703125 C 38.707031 18.703125 39.554688 18.796875 41.902344 18.703125 C 44.582031 18.59375 47.136719 18.761719 49.800781 19.050781 C 53.910156 19.5 54.164062 20.144531 53.238281 22.179688 C 52.257812 24.332031 51.214844 26.339844 49.875 27.890625 C 48.261719 29.769531 47.0625 29.867188 45.445312 29.777344 L 41.390625 29.550781 C 40.789062 29.519531 37.976562 29.320312 38.933594 26.308594 C 38.988281 26.132812 40.710938 23.765625 40.910156 23.421875 L 43.144531 23.523438 C 42.960938 24.039062 41.5625 27.082031 44.234375 27.078125 C 45.289062 27.078125 45.832031 27.488281 46.75 25.039062 C 47.015625 24.332031 49.003906 20.871094 44.824219 20.761719 L 41.496094 20.671875 C 40.257812 20.640625 39.1875 21.441406 38.566406 22.121094 C 37.253906 23.554688 35.152344 26.574219 34.742188 28.878906 C 34.230469 31.757812 35.34375 32.144531 38.109375 32.28125 "/>
<path style=" stroke:none;fill-rule:evenodd;fill:rgb(100%,100%,100%);fill-opacity:1;" d="M 23.132812 21.898438 L 15.777344 21.027344 C 16.09375 18.199219 17.820312 18.261719 19.34375 18.1875 C 22.683594 18.023438 23.839844 18 29.214844 18.464844 C 30.957031 18.617188 32.253906 19.8125 31.101562 22.34375 C 29.414062 26.058594 25.34375 32.195312 20.90625 36.023438 C 19.929688 36.863281 18.792969 37.457031 16.25 37.558594 C 13.351562 37.675781 9.402344 38.125 6.515625 37.808594 C 2.070312 37.324219 1.796875 36.628906 2.796875 34.425781 C 3.859375 32.09375 7.183594 28.109375 8.636719 26.425781 C 10.382812 24.398438 13.070312 23.867188 14.824219 23.90625 L 19.214844 24.003906 C 19.863281 24.019531 22.421875 23.882812 21.390625 27.144531 C 21.332031 27.332031 19.6875 30.117188 19.472656 30.484375 L 16.824219 30.355469 C 17.027344 29.796875 18.949219 26.640625 15.464844 26.644531 C 14.324219 26.644531 13.410156 26.738281 12.117188 29.253906 C 11.144531 31.144531 9.191406 32.839844 13.460938 33.441406 L 17.023438 33.945312 C 18.351562 34.132812 19.523438 33.113281 20.195312 32.378906 C 21.613281 30.824219 22.472656 29.5 23.773438 27.324219 C 25.441406 24.539062 26.105469 22.253906 23.132812 21.898438 "/>
</g>
</svg>
