<?xml version="1.0" encoding="UTF-8"?>
<svg xmlns="http://www.w3.org/2000/svg" xmlns:xlink="http://www.w3.org/1999/xlink" width="56pt" height="56pt" viewBox="0 0 56 56" version="1.1">
<g id="surface1">
<rect x="0" y="0" width="56" height="56" style="fill:rgb(14.427185%,23.608398%,46.934509%);fill-opacity:1;stroke:none;"/>
<path style=" stroke:none;fill-rule:nonzero;fill:rgb(100%,100%,100%);fill-opacity:1;" d="M 43.914062 8.320312 L 41.5625 8.320312 C 40.648438 8.359375 39.734375 8.703125 39.089844 9.421875 L 30.109375 19.050781 L 9.191406 41.367188 C 8.621094 41.980469 8.320312 42.78125 8.28125 43.578125 L 8.28125 43.886719 C 8.320312 44.867188 8.773438 45.863281 9.578125 46.617188 C 11.097656 48.03125 13.457031 48.03125 14.828125 46.585938 L 30.113281 30.226562 L 38.632812 21.097656 C 39.773438 19.996094 40.074219 21.445312 40.074219 21.933594 L 40.074219 44.105469 C 40.074219 46.089844 41.792969 47.679688 43.914062 47.679688 C 46.015625 47.679688 47.71875 46.089844 47.71875 44.105469 L 47.71875 11.929688 C 47.71875 9.957031 46.015625 8.320312 43.914062 8.320312 "/>
<path style=" stroke:none;fill-rule:nonzero;fill:rgb(100%,100%,100%);fill-opacity:1;" d="M 35.398438 39.960938 L 24.824219 39.960938 C 22.84375 39.960938 21.214844 41.710938 21.214844 43.804688 C 21.214844 45.898438 22.84375 47.648438 24.824219 47.648438 L 35.398438 47.648438 C 37.375 47.648438 38.96875 45.898438 38.96875 43.804688 C 38.972656 41.710938 37.375 39.960938 35.398438 39.960938 "/>
</g>
</svg>
