<?xml version="1.0" encoding="UTF-8"?>
<svg xmlns="http://www.w3.org/2000/svg" xmlns:xlink="http://www.w3.org/1999/xlink" width="56pt" height="56pt" viewBox="0 0 56 56" version="1.1">
<g id="surface1">
<rect x="0" y="0" width="56" height="56" style="fill:rgb(95.66803%,95.779419%,96.777344%);fill-opacity:1;stroke:none;"/>
<path style=" stroke:none;fill-rule:nonzero;fill:rgb(88.008118%,9.371948%,22.941589%);fill-opacity:1;" d="M 43.589844 27.042969 C 43.238281 27.269531 42.832031 27.402344 42.433594 27.527344 C 41.554688 27.804688 40.757812 28.164062 39.945312 28.601562 C 39.128906 29.035156 38.289062 29.429688 37.496094 29.910156 C 36.765625 30.351562 36.035156 30.789062 35.296875 31.214844 C 34.976562 31.398438 34.710938 31.640625 34.390625 31.816406 C 34.203125 31.921875 34.015625 32.042969 33.851562 32.1875 C 33.71875 32.304688 33.511719 32.425781 33.398438 32.554688 C 33.179688 32.800781 33.40625 33.148438 33.28125 33.40625 C 33.238281 33.484375 33.277344 33.460938 33.304688 33.515625 C 33.335938 33.570312 33.28125 33.65625 33.265625 33.707031 C 33.21875 33.851562 33.253906 34.148438 33.257812 34.304688 C 33.261719 34.445312 33.285156 34.582031 33.28125 34.722656 C 33.273438 34.863281 33.199219 35.019531 33.265625 35.15625 C 33.289062 35.339844 33.214844 35.519531 33.222656 35.703125 C 33.230469 35.898438 33.246094 36.078125 33.242188 36.273438 C 33.242188 36.367188 33.25 36.460938 33.285156 36.546875 C 33.257812 36.582031 33.203125 36.609375 33.183594 36.65625 C 33.128906 36.785156 33.257812 36.785156 33.265625 36.863281 C 33.246094 36.894531 33.21875 36.90625 33.183594 36.898438 C 33.234375 36.988281 33.289062 37.101562 33.234375 37.195312 C 33.195312 37.261719 33.148438 37.328125 33.210938 37.402344 C 33.183594 37.472656 33.320312 37.53125 33.289062 37.59375 C 33.265625 37.644531 33.21875 37.6875 33.199219 37.738281 C 33.164062 37.832031 33.316406 37.855469 33.222656 37.9375 C 33.160156 37.996094 33.21875 38.039062 33.261719 38.085938 C 33.335938 38.167969 33.226562 38.175781 33.238281 38.273438 C 33.261719 38.464844 33.382812 38.636719 33.378906 38.832031 C 33.378906 39.023438 33.226562 39.179688 33.40625 39.300781 C 33.5 39.367188 33.605469 39.875 33.394531 39.808594 C 33.492188 39.839844 33.386719 39.972656 33.398438 40.035156 C 33.414062 40.144531 33.621094 40.121094 33.628906 40.265625 C 33.628906 40.335938 33.5625 40.378906 33.507812 40.402344 C 33.53125 40.46875 33.550781 40.53125 33.582031 40.59375 C 33.625 40.679688 33.710938 40.792969 33.652344 40.902344 C 33.632812 40.9375 33.589844 40.949219 33.601562 41 C 33.632812 41.125 33.582031 41.070312 33.527344 41.195312 C 33.457031 41.363281 33.285156 41.488281 33.117188 41.550781 C 32.730469 41.699219 32.304688 41.519531 32.113281 41.160156 C 31.917969 40.796875 31.976562 40.335938 31.992188 39.941406 C 32.011719 39.417969 32.046875 38.902344 32.050781 38.382812 C 32.058594 37.558594 32.105469 36.71875 32.070312 35.890625 C 32.0625 35.410156 32.0625 34.929688 32.070312 34.453125 C 32.070312 34.210938 32.078125 33.972656 32.085938 33.730469 C 32.085938 33.652344 32.15625 33.445312 32.019531 33.496094 C 31.632812 33.640625 31.28125 34.011719 30.96875 34.269531 C 29.964844 35.101562 28.964844 35.9375 27.933594 36.738281 C 27.605469 36.996094 27.316406 37.285156 27.027344 37.582031 C 26.71875 37.902344 26.347656 38.164062 26.058594 38.5 C 25.78125 38.8125 25.5 39.109375 25.214844 39.414062 C 24.914062 39.734375 24.632812 40.125 24.285156 40.398438 C 24.148438 40.496094 24.019531 40.609375 23.90625 40.734375 C 23.800781 40.851562 23.539062 40.875 23.386719 40.851562 C 23.042969 40.796875 22.726562 40.472656 22.757812 40.109375 C 22.789062 39.769531 23.074219 39.496094 23.300781 39.269531 C 23.632812 38.929688 23.964844 38.589844 24.316406 38.269531 C 25.671875 37.035156 27.082031 35.859375 28.507812 34.714844 C 29.238281 34.125 30.019531 33.605469 30.769531 33.042969 C 31.148438 32.757812 31.523438 32.457031 31.914062 32.183594 C 32.140625 32.027344 32.105469 31.6875 32.089844 31.4375 C 32.078125 31.234375 31.710938 31.511719 31.632812 31.59375 C 31.5625 31.664062 31.285156 31.742188 31.191406 31.761719 C 30.96875 31.808594 30.707031 31.875 30.484375 31.855469 C 30.273438 31.835938 29.820312 31.667969 29.742188 31.429688 C 29.679688 31.226562 29.582031 31.023438 29.59375 30.796875 C 29.601562 30.585938 29.628906 30.375 29.628906 30.164062 C 29.628906 29.976562 29.566406 29.796875 29.574219 29.613281 C 29.582031 29.394531 29.628906 29.183594 29.636719 28.964844 C 29.65625 28.546875 29.714844 28.109375 29.898438 27.730469 C 30.148438 27.046875 30.609375 26.410156 31.308594 26.140625 C 31.621094 26.019531 31.96875 26.074219 31.890625 26.480469 C 31.828125 26.796875 31.609375 26.957031 31.445312 27.210938 C 31.4375 27.289062 31.351562 27.34375 31.3125 27.402344 C 31.261719 27.484375 31.226562 27.574219 31.195312 27.664062 C 31.140625 27.828125 31.054688 27.960938 31.023438 28.128906 C 30.996094 28.269531 30.921875 28.394531 30.90625 28.535156 C 30.890625 28.714844 30.917969 28.894531 30.902344 29.085938 C 30.863281 29.453125 30.667969 30.164062 31.011719 30.445312 C 31.21875 30.617188 31.5625 30.484375 31.734375 30.320312 C 31.960938 30.105469 32.085938 29.773438 32.101562 29.464844 C 32.128906 28.941406 32.277344 28.433594 32.28125 27.910156 C 32.285156 27.386719 32.347656 26.867188 32.375 26.34375 C 32.398438 25.917969 32.527344 25.523438 32.980469 25.402344 C 33.421875 25.285156 33.6875 25.582031 33.683594 26.003906 C 33.675781 26.730469 33.5625 27.445312 33.519531 28.175781 C 33.457031 29.195312 33.355469 30.191406 33.359375 31.21875 C 33.449219 31.292969 34.234375 30.695312 34.324219 30.632812 C 34.84375 30.285156 35.371094 29.953125 35.90625 29.625 C 36.71875 29.246094 37.449219 28.710938 38.246094 28.308594 C 38.648438 28.101562 39.03125 27.863281 39.421875 27.636719 C 39.535156 27.574219 40.285156 27.242188 40.054688 27.101562 C 39.746094 26.917969 39.789062 26.441406 39.816406 26.140625 C 39.847656 25.742188 39.828125 25.34375 39.832031 24.949219 C 39.839844 24.578125 40.207031 23.316406 39.441406 23.523438 C 39.277344 23.566406 39.167969 23.671875 39.046875 23.78125 C 38.9375 23.882812 38.90625 24.0625 38.726562 24.085938 C 38.675781 24.195312 38.746094 24.183594 38.625 24.292969 C 38.660156 24.390625 38.546875 24.609375 38.527344 24.714844 C 38.511719 24.785156 38.554688 24.84375 38.484375 24.882812 C 38.421875 24.914062 38.421875 24.941406 38.472656 25 C 38.566406 25.105469 38.375 25.078125 38.40625 25.175781 C 38.453125 25.34375 38.421875 25.367188 38.359375 25.515625 C 38.300781 25.648438 38.425781 25.738281 38.4375 25.863281 C 38.433594 25.859375 38.328125 25.847656 38.328125 25.84375 C 38.300781 26.011719 38.25 26.265625 38.304688 26.425781 C 38.320312 26.476562 38.371094 26.546875 38.34375 26.601562 C 38.316406 26.648438 38.277344 26.710938 38.300781 26.765625 C 38.328125 26.828125 38.390625 26.847656 38.355469 26.925781 C 38.332031 26.972656 38.265625 27.039062 38.285156 27.101562 C 38.304688 27.175781 38.289062 27.246094 38.296875 27.324219 C 38.304688 27.390625 38.214844 27.421875 38.203125 27.480469 C 38.167969 27.617188 38.171875 27.660156 38.050781 27.769531 C 37.964844 27.84375 37.890625 27.914062 37.789062 27.964844 C 37.585938 28.070312 37.273438 28.148438 37.082031 27.976562 C 36.835938 27.753906 36.953125 27.195312 36.972656 26.90625 C 37.011719 26.40625 37.023438 25.902344 37.050781 25.402344 C 37.089844 24.707031 36.957031 23.609375 37.722656 23.257812 C 38.007812 23.128906 38.34375 23.109375 38.648438 23.171875 C 38.929688 23.289062 39.222656 22.917969 39.378906 22.734375 C 39.703125 22.355469 40.664062 21.71875 41.027344 22.417969 C 41.097656 22.550781 41.109375 22.707031 41.144531 22.851562 C 41.160156 22.929688 41.183594 23.007812 41.21875 23.082031 C 41.167969 23.117188 41.117188 23.160156 41.113281 23.226562 C 41.109375 23.300781 41.261719 23.792969 41.195312 23.835938 C 41.066406 23.921875 41.132812 24.015625 41.121094 24.175781 C 41.109375 24.328125 41.023438 24.609375 41.113281 24.746094 C 41.167969 24.824219 41.113281 24.839844 41.097656 24.925781 C 41.078125 25.015625 41.152344 25.117188 41.148438 25.214844 C 41.144531 25.371094 41.195312 25.644531 41.113281 25.785156 C 41.109375 25.890625 41.25 26.015625 41.1875 26.082031 C 41.121094 26.15625 41.3125 26.316406 41.359375 26.382812 C 41.53125 26.625 42.203125 26.175781 42.363281 26.085938 C 42.703125 25.902344 43.101562 25.640625 43.503906 25.671875 C 43.910156 25.699219 44.011719 25.804688 44.175781 26.179688 C 44.15625 26.507812 43.847656 26.871094 43.589844 27.042969 Z M 25.140625 27.449219 C 25.066406 27.460938 24.796875 27.484375 24.789062 27.363281 C 24.78125 27.292969 24.691406 27.21875 24.683594 27.117188 C 24.679688 27.007812 24.714844 26.894531 24.753906 26.792969 C 24.863281 26.515625 25.035156 26.433594 25.246094 26.25 C 25.375 26.140625 25.699219 25.925781 25.875 26.046875 C 25.972656 26.113281 26.128906 26.390625 26.0625 26.507812 C 26.054688 26.519531 26.113281 26.417969 26.0625 26.507812 C 26.007812 26.605469 26 26.742188 25.945312 26.828125 C 25.855469 26.976562 25.734375 27.058594 25.605469 27.160156 C 25.46875 27.269531 25.320312 27.421875 25.140625 27.449219 Z M 25.476562 29.894531 C 25.542969 30.078125 25.394531 30.371094 25.398438 30.566406 C 25.402344 30.777344 25.347656 31.011719 25.328125 31.222656 C 25.300781 31.488281 25.257812 31.738281 25.21875 32.003906 C 25.1875 32.253906 25.171875 32.503906 25.144531 32.753906 C 25.113281 32.988281 25.136719 33.246094 25.078125 33.472656 C 25.039062 33.621094 24.984375 33.785156 24.988281 33.941406 C 24.988281 34.019531 25.035156 33.9375 25.074219 33.957031 C 25.125 33.984375 25.015625 34.175781 24.980469 34.046875 C 24.953125 34.070312 24.96875 34.132812 24.933594 34.148438 C 24.859375 34.179688 24.839844 34.160156 24.769531 34.242188 C 24.664062 34.363281 24.433594 34.492188 24.289062 34.554688 C 23.792969 34.773438 23.800781 34.113281 23.789062 33.832031 C 23.765625 33.203125 23.90625 32.535156 23.886719 31.921875 C 23.882812 31.761719 23.921875 31.59375 23.945312 31.433594 C 23.964844 31.28125 23.941406 31.160156 23.941406 31.019531 C 23.941406 30.703125 23.976562 30.257812 24.101562 29.972656 C 24.273438 29.578125 24.515625 29.230469 24.945312 29.101562 C 25.085938 29.054688 25.28125 29.050781 25.367188 29.199219 C 25.410156 29.269531 25.410156 29.589844 25.519531 29.589844 C 25.519531 29.597656 25.511719 29.601562 25.507812 29.601562 C 25.480469 29.617188 25.417969 29.617188 25.414062 29.671875 C 25.40625 29.757812 25.449219 29.820312 25.476562 29.894531 Z M 22.691406 30.929688 C 22.660156 31.023438 22.613281 31.105469 22.601562 31.203125 C 22.589844 31.304688 22.621094 31.378906 22.585938 31.480469 C 22.550781 31.574219 22.53125 31.644531 22.523438 31.742188 C 22.507812 31.945312 22.4375 32.136719 22.410156 32.335938 C 22.402344 32.402344 22.371094 32.527344 22.414062 32.589844 C 22.449219 32.648438 22.5 32.679688 22.484375 32.761719 C 22.445312 32.984375 22.324219 33.167969 22.28125 33.390625 C 22.257812 33.507812 22.175781 33.820312 22.238281 33.929688 C 22.296875 34.035156 22.183594 34.28125 22.140625 34.425781 C 22.042969 34.753906 21.984375 35.15625 21.964844 35.496094 C 21.941406 35.925781 21.839844 36.339844 21.808594 36.769531 C 21.769531 37.324219 21.726562 37.9375 21.597656 38.480469 C 21.546875 38.707031 21.460938 38.972656 21.25 39.097656 C 21.046875 39.21875 20.722656 39.222656 20.5625 39.035156 C 20.320312 38.761719 20.296875 38.289062 20.226562 37.949219 C 20.128906 37.5 20.109375 37.042969 20.007812 36.597656 C 19.96875 36.433594 20 36.15625 19.886719 36.027344 C 19.851562 35.984375 19.816406 35.746094 19.808594 35.683594 C 19.796875 35.566406 19.828125 35.464844 19.804688 35.335938 C 19.78125 35.21875 19.75 35.105469 19.71875 34.988281 C 19.621094 34.59375 19.5625 34.148438 19.519531 33.742188 C 19.480469 33.34375 19.386719 32.957031 19.351562 32.554688 C 19.308594 32.101562 19.203125 31.660156 19.152344 31.207031 C 19.109375 30.820312 19.121094 30.402344 18.976562 30.039062 C 18.933594 29.9375 18.886719 29.835938 18.886719 29.722656 C 18.882812 29.683594 18.933594 29.566406 18.914062 29.53125 C 18.878906 29.460938 18.808594 29.5625 18.800781 29.453125 C 18.777344 29.113281 18.433594 29.546875 18.464844 29.6875 C 18.359375 29.597656 18.382812 29.796875 18.382812 29.847656 C 18.386719 29.9375 18.273438 30.054688 18.238281 30.140625 C 18.097656 30.464844 18.046875 30.835938 17.914062 31.171875 C 17.800781 31.460938 17.683594 31.777344 17.433594 31.972656 C 17.179688 32.171875 16.796875 32.113281 16.640625 31.816406 C 16.476562 31.503906 16.707031 31.132812 16.804688 30.835938 C 16.917969 30.480469 17 30.097656 17.164062 29.765625 C 17.332031 29.425781 17.421875 29.03125 17.539062 28.679688 C 17.746094 28.054688 17.960938 27.429688 18.140625 26.796875 C 18.289062 26.269531 18.617188 25.476562 19.300781 25.863281 C 19.628906 26.050781 19.664062 26.417969 19.722656 26.761719 C 19.792969 27.15625 19.855469 27.550781 19.921875 27.949219 C 20.011719 28.460938 20.101562 28.921875 20.152344 29.445312 C 20.175781 29.675781 20.253906 29.902344 20.324219 30.121094 C 20.382812 30.300781 20.394531 30.515625 20.464844 30.6875 C 20.511719 30.792969 20.488281 30.929688 20.515625 31.058594 C 20.5625 31.246094 20.574219 31.4375 20.636719 31.625 C 20.703125 31.828125 20.574219 32.015625 20.640625 32.199219 C 20.695312 32.351562 20.800781 32.578125 20.765625 32.742188 C 20.730469 32.902344 20.800781 33.035156 20.796875 33.199219 C 20.789062 33.34375 20.894531 33.425781 20.855469 33.585938 C 20.824219 33.734375 21 33.761719 21.039062 33.59375 C 21.070312 33.472656 21.074219 33.34375 21.078125 33.21875 C 21.09375 32.859375 21.152344 32.5 21.21875 32.148438 C 21.40625 31.191406 21.53125 30.222656 21.722656 29.265625 C 22.089844 27.429688 22.632812 25.652344 23.09375 23.847656 C 23.195312 23.449219 23.375 23.078125 23.496094 22.6875 C 23.644531 22.222656 23.820312 21.769531 23.988281 21.316406 C 24.335938 20.363281 24.679688 19.410156 25.042969 18.464844 C 25.289062 17.820312 25.632812 16.9375 26.445312 16.886719 C 27.136719 16.839844 27.675781 17.609375 27.46875 18.253906 C 27.414062 18.425781 27.289062 18.546875 27.199219 18.695312 C 27.175781 18.734375 27.183594 18.792969 27.171875 18.835938 C 27.148438 18.933594 27.097656 18.902344 27.035156 18.957031 C 26.765625 19.191406 26.492188 19.445312 26.300781 19.746094 C 25.886719 20.386719 25.652344 21.101562 25.320312 21.792969 C 25.222656 21.988281 25.214844 22.214844 25.121094 22.417969 C 25.046875 22.578125 24.933594 22.730469 24.886719 22.902344 C 24.78125 23.296875 24.585938 23.660156 24.472656 24.050781 C 24.40625 24.285156 24.410156 24.527344 24.289062 24.75 C 24.25 24.820312 24.289062 24.90625 24.261719 24.980469 C 24.210938 25.027344 24.183594 25.109375 24.164062 25.171875 C 24.054688 25.542969 23.910156 25.917969 23.886719 26.308594 C 23.875 26.539062 23.835938 26.632812 23.714844 26.8125 C 23.628906 26.949219 23.621094 27.132812 23.554688 27.28125 C 23.382812 27.664062 23.269531 28.085938 23.15625 28.492188 C 23.097656 28.699219 23.070312 28.917969 23.03125 29.128906 C 23 29.308594 22.933594 29.476562 22.933594 29.664062 C 22.929688 29.859375 22.875 29.953125 22.808594 30.125 C 22.75 30.28125 22.804688 30.449219 22.761719 30.605469 C 22.78125 30.585938 22.789062 30.585938 22.742188 30.675781 C 22.660156 30.75 22.71875 30.84375 22.691406 30.929688 Z M 28.167969 27.75 C 28.15625 27.691406 28.589844 27.550781 28.648438 27.535156 C 28.730469 27.511719 28.84375 27.527344 28.925781 27.542969 C 29.113281 27.585938 29.085938 27.664062 29.140625 27.808594 C 29.199219 27.96875 29.214844 28 29.179688 28.179688 C 29.148438 28.328125 29.105469 28.460938 28.964844 28.542969 C 28.800781 28.675781 28.632812 28.8125 28.46875 28.945312 C 28.304688 29.078125 28.171875 29.234375 28.070312 29.417969 C 28.011719 29.527344 28.023438 29.644531 27.976562 29.742188 C 27.867188 29.988281 27.882812 30.246094 27.847656 30.503906 C 27.78125 31.066406 27.835938 31.640625 27.761719 32.195312 C 27.707031 32.632812 27.230469 33.1875 26.738281 33.15625 C 26.347656 33.125 26.347656 32.652344 26.355469 32.355469 C 26.359375 32.179688 26.394531 32.019531 26.410156 31.847656 C 26.429688 31.667969 26.386719 31.542969 26.425781 31.363281 C 26.453125 31.25 26.394531 31.125 26.417969 30.996094 C 26.429688 30.925781 26.433594 30.875 26.449219 30.808594 C 26.496094 30.589844 26.503906 30.359375 26.523438 30.136719 C 26.558594 29.632812 26.507812 29.105469 26.644531 28.617188 C 26.707031 28.394531 26.878906 28.242188 27.058594 28.105469 C 27.148438 28.046875 27.402344 28.039062 27.457031 27.957031 C 27.675781 28.015625 27.996094 27.804688 28.203125 27.757812 C 28.199219 27.734375 28.183594 27.730469 28.167969 27.75 Z M 34.550781 28.179688 C 34.558594 27.863281 34.640625 27.558594 34.648438 27.238281 C 34.660156 26.707031 34.757812 26.230469 34.792969 25.714844 C 34.816406 25.421875 34.847656 25.039062 35.003906 24.792969 C 35.140625 24.578125 35.230469 24.378906 35.480469 24.273438 C 35.582031 24.226562 35.722656 24.222656 35.832031 24.230469 C 36.050781 24.253906 35.90625 24.414062 36 24.515625 C 36.007812 24.5 36.023438 24.496094 36.039062 24.503906 C 36.039062 24.535156 36.039062 24.566406 36.039062 24.597656 C 36.148438 24.609375 36.03125 24.75 36.035156 24.832031 C 36.054688 25.011719 36.039062 25.179688 35.953125 25.347656 C 35.976562 25.351562 35.996094 25.355469 36.019531 25.351562 C 36.019531 25.359375 36.003906 25.40625 36 25.410156 C 35.9375 25.453125 35.949219 25.46875 35.957031 25.59375 C 35.960938 25.660156 36 25.804688 35.949219 25.859375 C 35.941406 25.871094 35.9375 26.0625 35.945312 26.09375 C 35.953125 26.140625 35.9375 26.4375 35.941406 26.445312 C 35.957031 26.4375 35.964844 26.429688 35.972656 26.417969 C 35.960938 26.417969 35.992188 26.808594 35.960938 26.84375 C 35.921875 26.890625 35.871094 26.941406 35.882812 27.011719 C 35.886719 27.039062 35.988281 27.246094 35.957031 27.261719 C 35.925781 27.28125 35.90625 27.199219 35.894531 27.199219 C 35.847656 27.199219 35.96875 27.367188 35.957031 27.382812 C 35.933594 27.414062 35.867188 27.269531 35.84375 27.390625 C 35.816406 27.507812 35.835938 27.636719 35.839844 27.753906 C 35.847656 27.855469 35.835938 27.949219 35.832031 28.054688 C 35.824219 28.226562 35.890625 28.445312 35.808594 28.605469 C 35.625 28.980469 34.800781 29.566406 34.527344 29.003906 C 34.558594 29.070312 34.609375 29.179688 34.523438 28.996094 C 34.5 28.949219 34.507812 28.960938 34.519531 28.988281 C 34.414062 28.746094 34.546875 28.429688 34.550781 28.179688 Z M 35.996094 21.773438 C 36.15625 21.753906 36.285156 21.726562 36.445312 21.75 C 36.65625 21.777344 36.667969 22.089844 36.609375 22.246094 C 36.515625 22.5 36.21875 22.84375 35.984375 22.984375 C 35.882812 23.050781 35.769531 23 35.652344 23.007812 C 35.472656 23.015625 35.363281 22.824219 35.304688 22.679688 C 35.378906 22.859375 35.183594 22.390625 35.304688 22.679688 C 35.171875 22.359375 35.691406 21.804688 35.996094 21.773438 Z M 32.164062 13.492188 C 31.019531 12.523438 30.109375 12.257812 28.589844 12.257812 L 5.398438 12.257812 L 20.59375 42.109375 C 21.175781 43.261719 21.941406 43.742188 23.027344 43.742188 L 42.824219 43.742188 C 43.742188 43.742188 44.289062 43.265625 44.664062 42.429688 L 47.378906 36.347656 L 50.601562 29.121094 L 32.164062 13.492188 "/>
</g>
</svg>
