<?xml version="1.0" encoding="UTF-8"?>
<svg xmlns="http://www.w3.org/2000/svg" xmlns:xlink="http://www.w3.org/1999/xlink" width="56pt" height="56pt" viewBox="0 0 56 56" version="1.1">
<g id="surface1">
<rect x="0" y="0" width="56" height="56" style="fill:rgb(90.428162%,15.280151%,16.249084%);fill-opacity:1;stroke:none;"/>
<path style=" stroke:none;fill-rule:nonzero;fill:rgb(100%,100%,100%);fill-opacity:1;" d="M 0.800781 23.375 L 3.019531 23.375 L 3.394531 30.191406 L 6.5625 23.375 L 8.890625 23.375 L 3.828125 33.300781 L 1.828125 33.300781 L 0.800781 23.375 "/>
<path style=" stroke:none;fill-rule:nonzero;fill:rgb(100%,100%,100%);fill-opacity:1;" d="M 9.214844 23.402344 L 11.433594 23.402344 L 9.835938 31.164062 L 7.617188 31.164062 L 9.214844 23.402344 "/>
<path style=" stroke:none;fill-rule:nonzero;fill:rgb(100%,100%,100%);fill-opacity:1;" d="M 48.027344 23.191406 L 50.246094 23.191406 L 48.652344 30.953125 L 46.429688 30.953125 L 48.027344 23.191406 "/>
<path style=" stroke:none;fill-rule:nonzero;fill:rgb(100%,100%,100%);fill-opacity:1;" d="M 16.207031 26.539062 C 16.316406 26.253906 16.8125 24.511719 15.476562 24.511719 C 14.667969 24.511719 14.175781 24.890625 13.800781 25.632812 C 13.636719 26.039062 13.554688 26.308594 13.488281 26.539062 Z M 17.945312 28 L 13.40625 28 C 13.351562 28.242188 13.222656 29.730469 14.976562 29.730469 C 16.125 29.730469 16.464844 29.597656 17.003906 29.328125 L 17.25 30.625 C 16.519531 31.058594 15.816406 31.140625 15.03125 31.21875 C 12.75 31.21875 11.324219 30.542969 11.351562 28 C 11.390625 23.988281 14.792969 23.195312 15.679688 23.210938 C 19.820312 23.292969 17.945312 28 17.945312 28 "/>
<path style=" stroke:none;fill-rule:nonzero;fill:rgb(100%,100%,100%);fill-opacity:1;" d="M 31.140625 26.539062 C 31.25 26.253906 31.746094 24.511719 30.410156 24.511719 C 29.601562 24.511719 29.109375 24.890625 28.734375 25.632812 C 28.570312 26.039062 28.488281 26.308594 28.421875 26.539062 Z M 32.882812 28 L 28.339844 28 C 28.285156 28.242188 28.15625 29.730469 29.910156 29.730469 C 31.058594 29.730469 31.398438 29.597656 31.9375 29.328125 L 32.183594 30.625 C 31.453125 31.058594 30.746094 31.140625 29.964844 31.21875 C 27.683594 31.21875 26.257812 30.542969 26.285156 28 C 26.328125 23.988281 29.726562 23.195312 30.613281 23.210938 C 34.753906 23.292969 32.882812 28 32.882812 28 "/>
<path style=" stroke:none;fill-rule:nonzero;fill:rgb(100%,100%,100%);fill-opacity:1;" d="M 20.058594 22.226562 C 20.058594 22.226562 20.324219 21.820312 21.113281 21.628906 C 21.90625 21.4375 22.484375 21.59375 22.484375 21.59375 L 22.058594 23.414062 L 23.203125 23.414062 L 22.941406 24.816406 L 21.671875 24.84375 L 20.878906 28.832031 C 20.851562 28.972656 20.648438 30.089844 22.046875 29.703125 C 22.046875 29.703125 21.449219 31.519531 19.734375 31.164062 C 19.171875 31.046875 18.394531 30.433594 18.558594 29.371094 L 20.058594 22.226562 "/>
<path style=" stroke:none;fill-rule:nonzero;fill:rgb(100%,100%,100%);fill-opacity:1;" d="M 35.03125 22.226562 C 35.03125 22.226562 35.296875 21.820312 36.089844 21.628906 C 36.878906 21.4375 37.457031 21.59375 37.457031 21.59375 L 37.03125 23.414062 L 38.175781 23.414062 L 37.914062 24.816406 L 36.648438 24.84375 L 35.855469 28.832031 C 35.824219 28.972656 35.621094 30.089844 37.023438 29.703125 C 37.023438 29.703125 36.421875 31.519531 34.707031 31.164062 C 34.148438 31.046875 33.367188 30.433594 33.53125 29.371094 L 35.03125 22.226562 "/>
<path style=" stroke:none;fill-rule:nonzero;fill:rgb(100%,100%,100%);fill-opacity:1;" d="M 24.214844 23.390625 L 26.359375 23.390625 L 24.878906 30.839844 C 24.410156 33.050781 22.289062 35.160156 19.5 34.25 C 18.507812 33.925781 17.835938 32.929688 17.980469 31.9375 C 17.980469 31.9375 18.824219 32.667969 20.070312 32.726562 C 21.792969 32.808594 22.574219 31.070312 22.6875 30.535156 L 24.214844 23.390625 "/>
<path style=" stroke:none;fill-rule:nonzero;fill:rgb(100%,100%,100%);fill-opacity:1;" d="M 43.910156 29.535156 L 43.910156 25.460938 L 41.625 29.535156 Z M 43.914062 30.953125 L 40.914062 30.953125 L 39.589844 33.171875 L 37.421875 33.171875 L 43.402344 23.195312 L 45.726562 23.195312 L 46.105469 33.171875 L 43.914062 33.171875 L 43.914062 30.953125 "/>
<path style=" stroke:none;fill-rule:nonzero;fill:rgb(100%,100%,100%);fill-opacity:1;" d="M 54.683594 24.601562 C 54.328125 24.511719 53.546875 24.453125 53.191406 24.601562 L 51.871094 30.972656 L 49.671875 30.972656 L 51.195312 23.660156 C 52.472656 22.910156 54.066406 22.898438 55.199219 23.0625 L 54.683594 24.601562 "/>
</g>
</svg>
