<?xml version="1.0" encoding="UTF-8"?>
<svg xmlns="http://www.w3.org/2000/svg" xmlns:xlink="http://www.w3.org/1999/xlink" width="56pt" height="56pt" viewBox="0 0 56 56" version="1.1">
<g id="surface1">
<rect x="0" y="0" width="56" height="56" style="fill:rgb(50.085449%,58.642578%,65.682983%);fill-opacity:1;stroke:none;"/>
<path style=" stroke:none;fill-rule:evenodd;fill:rgb(100%,100%,100%);fill-opacity:1;" d="M 15.648438 41.878906 C 15.667969 41.601562 15.671875 41.324219 15.707031 41.046875 C 15.789062 40.417969 15.933594 39.804688 16.148438 39.207031 C 16.316406 38.746094 16.503906 38.292969 16.761719 37.871094 C 17.027344 37.445312 17.15625 36.964844 17.230469 36.464844 C 17.285156 36.101562 17.292969 35.738281 17.261719 35.378906 C 17.207031 34.824219 17.078125 34.28125 16.890625 33.753906 C 16.585938 32.90625 16.148438 32.125 15.640625 31.382812 C 14.8125 30.171875 13.804688 29.117188 12.730469 28.132812 C 12.152344 27.597656 11.53125 27.109375 10.933594 26.601562 C 10.667969 26.378906 10.402344 26.152344 10.144531 25.921875 C 9.433594 25.289062 8.753906 24.628906 8.105469 23.933594 C 7.636719 23.433594 7.195312 22.90625 6.8125 22.335938 C 6.519531 21.898438 6.25 21.449219 6.105469 20.9375 C 6.09375 20.890625 6.085938 20.84375 6.0625 20.746094 C 6.367188 20.941406 6.585938 21.171875 6.828125 21.363281 C 7.082031 21.566406 7.320312 21.78125 7.566406 21.988281 C 7.804688 22.191406 8.042969 22.394531 8.28125 22.597656 C 8.527344 22.804688 8.769531 23.015625 9.015625 23.222656 C 9.261719 23.429688 9.503906 23.632812 9.78125 23.859375 C 9.757812 23.675781 9.742188 23.535156 9.71875 23.34375 C 9.636719 23.273438 9.53125 23.179688 9.425781 23.082031 C 8.925781 22.621094 8.429688 22.164062 7.9375 21.695312 C 7.320312 21.113281 6.707031 20.53125 6.097656 19.941406 C 5.894531 19.742188 5.699219 19.527344 5.507812 19.324219 C 5.492188 18.953125 5.472656 18.597656 5.453125 18.191406 C 6.816406 19.582031 8.136719 20.929688 9.488281 22.316406 C 9.464844 22.222656 9.453125 22.167969 9.433594 22.121094 C 9.289062 21.765625 9.097656 21.441406 8.835938 21.15625 C 8.355469 20.628906 7.894531 20.089844 7.421875 19.558594 C 7.105469 19.203125 6.789062 18.851562 6.472656 18.496094 C 6.050781 18.023438 5.632812 17.546875 5.214844 17.078125 C 5.199219 16.753906 5.261719 16.09375 5.335938 15.917969 C 6.621094 17.503906 7.898438 19.078125 9.207031 20.6875 C 9.195312 20.515625 9.183594 20.390625 9.175781 20.234375 C 9.007812 20.019531 8.824219 19.789062 8.644531 19.550781 C 7.945312 18.609375 7.238281 17.667969 6.542969 16.71875 C 6.144531 16.171875 5.773438 15.605469 5.457031 15.007812 C 5.425781 14.945312 5.398438 14.886719 5.363281 14.828125 C 5.300781 14.722656 5.300781 14.621094 5.332031 14.507812 C 5.402344 14.230469 5.46875 13.953125 5.539062 13.65625 C 5.570312 13.699219 5.597656 13.726562 5.613281 13.761719 C 6.292969 15.0625 7.082031 16.289062 7.949219 17.472656 C 8.421875 18.125 8.929688 18.746094 9.457031 19.355469 C 10.023438 20.011719 10.617188 20.636719 11.25 21.226562 C 12.015625 21.945312 12.824219 22.613281 13.691406 23.210938 C 14.328125 23.648438 14.984375 24.046875 15.671875 24.390625 C 16.695312 24.90625 17.761719 25.300781 18.871094 25.574219 C 19.820312 25.808594 20.757812 26.09375 21.703125 26.339844 C 22.4375 26.53125 23.179688 26.6875 23.914062 26.882812 C 24.441406 27.019531 24.902344 27.28125 25.253906 27.703125 C 25.621094 28.140625 25.695312 28.636719 25.539062 29.179688 C 25.417969 29.582031 25.207031 29.9375 24.949219 30.261719 C 24.121094 31.300781 23.289062 32.339844 22.460938 33.382812 C 21.78125 34.234375 21.109375 35.09375 20.429688 35.949219 C 19.683594 36.890625 18.929688 37.832031 18.183594 38.769531 C 17.371094 39.789062 16.558594 40.8125 15.75 41.832031 C 15.734375 41.851562 15.722656 41.875 15.710938 41.898438 C 15.691406 41.890625 15.667969 41.882812 15.648438 41.878906 "/>
<path style=" stroke:none;fill-rule:evenodd;fill:rgb(100%,100%,100%);fill-opacity:1;" d="M 16.207031 42.316406 C 16.347656 42.148438 16.484375 41.976562 16.628906 41.808594 C 17.328125 40.980469 18.035156 40.15625 18.734375 39.332031 C 19.441406 38.496094 20.144531 37.660156 20.847656 36.828125 C 21.566406 35.980469 22.289062 35.140625 23.007812 34.292969 C 23.695312 33.476562 24.378906 32.660156 25.070312 31.84375 C 25.660156 31.148438 26.253906 30.453125 26.84375 29.753906 C 26.921875 29.664062 26.988281 29.566406 27.0625 29.472656 C 27.4375 29.019531 27.914062 28.703125 28.441406 28.460938 C 29.21875 28.101562 30.046875 27.960938 30.902344 27.933594 C 31.523438 27.914062 32.148438 27.851562 32.769531 27.800781 C 33.164062 27.773438 33.558594 27.734375 33.957031 27.691406 C 34.289062 27.652344 34.625 27.601562 34.960938 27.558594 C 35.261719 27.519531 35.5625 27.484375 35.863281 27.441406 C 36.253906 27.386719 36.648438 27.332031 37.039062 27.273438 C 37.414062 27.214844 37.789062 27.152344 38.160156 27.085938 C 38.777344 26.976562 39.390625 26.867188 40.003906 26.757812 C 41.46875 26.488281 42.871094 25.996094 44.28125 25.539062 C 45.976562 24.988281 47.652344 24.390625 49.304688 23.722656 C 50.222656 23.355469 51.128906 22.957031 52.003906 22.492188 C 52.261719 22.351562 52.511719 22.195312 52.785156 22.066406 C 52.757812 22.097656 52.730469 22.132812 52.699219 22.160156 C 52.226562 22.558594 51.757812 22.960938 51.28125 23.355469 C 50.851562 23.710938 50.34375 23.917969 49.832031 24.125 C 49.050781 24.449219 48.277344 24.785156 47.492188 25.09375 C 46.402344 25.523438 45.304688 25.941406 44.207031 26.355469 C 43.941406 26.457031 43.65625 26.519531 43.402344 26.597656 C 43.21875 26.773438 43.046875 26.9375 42.878906 27.101562 C 44.835938 26.53125 46.789062 25.964844 48.714844 25.28125 C 48.503906 25.441406 48.292969 25.601562 48.082031 25.761719 C 47.910156 25.886719 47.734375 26.003906 47.574219 26.140625 C 47.441406 26.253906 47.289062 26.316406 47.125 26.363281 C 45.910156 26.71875 44.699219 27.078125 43.484375 27.433594 C 43.03125 27.5625 42.574219 27.679688 42.117188 27.800781 C 41.992188 27.835938 41.882812 27.886719 41.789062 27.984375 C 41.65625 28.121094 41.511719 28.253906 41.371094 28.390625 C 41.34375 28.417969 41.324219 28.449219 41.269531 28.519531 C 42.828125 28.082031 44.34375 27.65625 45.855469 27.230469 C 45.867188 27.25 45.882812 27.265625 45.898438 27.285156 C 45.855469 27.308594 45.808594 27.332031 45.769531 27.359375 C 45.460938 27.597656 45.15625 27.839844 44.84375 28.070312 C 44.757812 28.132812 44.652344 28.175781 44.546875 28.203125 C 43.25 28.542969 41.953125 28.878906 40.65625 29.214844 C 40.535156 29.242188 40.433594 29.296875 40.347656 29.378906 C 40.230469 29.484375 40.105469 29.589844 39.953125 29.722656 C 40.03125 29.722656 40.078125 29.730469 40.121094 29.71875 C 41.117188 29.464844 42.113281 29.210938 43.109375 28.953125 C 43.351562 28.890625 43.597656 28.828125 43.855469 28.792969 C 43.601562 28.945312 43.355469 29.101562 43.101562 29.25 C 41.492188 30.195312 39.867188 31.125 38.191406 31.949219 C 37.414062 32.328125 36.636719 32.699219 35.808594 32.953125 C 35.300781 33.105469 34.789062 33.246094 34.277344 33.382812 C 33.257812 33.652344 32.242188 33.929688 31.21875 34.175781 C 30.285156 34.40625 29.34375 34.609375 28.402344 34.804688 C 27.941406 34.902344 27.46875 34.945312 27.003906 35.023438 C 26.0625 35.179688 25.203125 35.527344 24.441406 36.113281 C 24.070312 36.398438 23.738281 36.726562 23.402344 37.042969 C 22.984375 37.429688 22.558594 37.804688 22.140625 38.183594 C 21.894531 38.40625 21.648438 38.632812 21.40625 38.851562 C 20.410156 39.761719 19.390625 40.640625 18.265625 41.386719 C 17.757812 41.71875 17.230469 42.03125 16.652344 42.226562 C 16.515625 42.273438 16.375 42.304688 16.238281 42.34375 C 16.226562 42.335938 16.21875 42.328125 16.207031 42.316406 "/>
</g>
</svg>
