<?xml version="1.0" encoding="UTF-8"?>
<svg xmlns="http://www.w3.org/2000/svg" xmlns:xlink="http://www.w3.org/1999/xlink" width="56pt" height="56pt" viewBox="0 0 56 56" version="1.1">
<g id="surface1">
<rect x="0" y="0" width="56" height="56" style="fill:rgb(10.263062%,26.461792%,26.171875%);fill-opacity:1;stroke:none;"/>
<path style=" stroke:none;fill-rule:nonzero;fill:rgb(100%,100%,100%);fill-opacity:1;" d="M 12.117188 23.894531 L 12.941406 20.402344 C 13.183594 19.667969 13.792969 19.191406 14.714844 19.21875 L 17.542969 19.289062 C 18.566406 19.320312 19.171875 20.488281 18.929688 21.644531 L 18.722656 22.996094 C 18.523438 24.441406 17.644531 25.476562 16.171875 26.128906 C 10.140625 28.207031 5.988281 30.960938 6.625 35.605469 C 7.257812 40.265625 14.3125 40.8125 18.277344 35.246094 L 27.480469 22.332031 C 30.914062 17.515625 36.105469 15.324219 42.179688 14.621094 L 50.339844 13.867188 C 48.984375 18.339844 46.101562 21.441406 41.660156 22.265625 C 33.941406 23.675781 28.277344 25.234375 25.171875 28.78125 L 22.214844 32.203125 L 17.757812 37.769531 C 15.757812 40.265625 12.851562 41.171875 9.59375 40.582031 C 6.726562 39.933594 5.050781 38.042969 5.253906 34.050781 C 5.453125 30.050781 8.296875 25.640625 12.117188 23.894531 "/>
<path style=" stroke:none;fill-rule:nonzero;fill:rgb(100%,100%,100%);fill-opacity:1;" d="M 15.949219 40.523438 C 17.566406 39.199219 18.097656 39.109375 20.132812 36.039062 C 22.164062 32.96875 26.476562 28.421875 29.148438 26.835938 C 31.816406 25.25 34.351562 24.71875 37.265625 24.140625 L 41.550781 23.273438 C 40.902344 27.484375 37.671875 29.632812 33.179688 30.152344 C 28.714844 30.683594 25.253906 31.652344 23.046875 34.207031 L 19.253906 38.5625 C 18.34375 39.617188 17.21875 40.265625 15.949219 40.523438 "/>
<path style=" stroke:none;fill-rule:nonzero;fill:rgb(100%,100%,100%);fill-opacity:1;" d="M 22.964844 41.066406 C 20.394531 40.402344 20.25 37.144531 23.570312 34.964844 C 26.871094 32.773438 31.355469 32.800781 33.039062 36.191406 C 30.921875 35.410156 29.640625 34.996094 28.503906 37.171875 C 27.363281 39.351562 25.515625 41.726562 22.964844 41.066406 "/>
</g>
</svg>
