<?xml version="1.0" encoding="UTF-8"?>
<svg xmlns="http://www.w3.org/2000/svg" xmlns:xlink="http://www.w3.org/1999/xlink" width="56pt" height="56pt" viewBox="0 0 56 56" version="1.1">
<g id="surface1">
<rect x="0" y="0" width="56" height="56" style="fill:rgb(95.666504%,95.776367%,96.775818%);fill-opacity:1;stroke:none;"/>
<path style=" stroke:none;fill-rule:evenodd;fill:rgb(96.453857%,87.467957%,2.015686%);fill-opacity:1;" d="M 39.523438 12.921875 L 34.867188 20.433594 L 41.6875 15.074219 L 35.875 21.75 L 43.253906 17.792969 L 36.542969 23.339844 L 44.160156 20.957031 L 36.84375 25.132812 L 44.367188 24.425781 L 36.765625 27.050781 L 43.859375 28.054688 L 36.304688 29.011719 L 42.667969 31.679688 L 35.488281 30.925781 L 40.839844 35.144531 L 34.347656 32.714844 L 38.457031 38.296875 L 32.941406 34.296875 L 35.621094 41 L 31.320312 35.601562 L 32.457031 43.136719 L 29.554688 36.578125 L 29.101562 44.605469 L 27.734375 37.175781 L 25.707031 45.351562 L 25.925781 37.375 L 22.414062 45.34375 L 24.214844 37.164062 L 19.371094 44.574219 L 22.671875 36.550781 L 16.714844 43.078125 L 21.371094 35.566406 L 14.550781 40.925781 L 20.363281 34.253906 L 12.984375 38.207031 L 19.695312 32.660156 L 12.078125 35.042969 L 19.394531 30.867188 L 11.871094 31.570312 L 19.472656 28.949219 L 12.375 27.945312 L 19.933594 26.988281 L 13.570312 24.320312 L 20.75 25.074219 L 15.398438 20.855469 L 21.886719 23.285156 L 17.78125 17.703125 L 23.296875 21.703125 L 20.617188 15 L 24.917969 20.398438 L 23.78125 12.867188 L 26.679688 19.421875 L 27.136719 11.394531 L 28.503906 18.824219 L 30.53125 10.648438 L 30.3125 18.625 L 33.824219 10.65625 L 32.023438 18.835938 L 36.863281 11.425781 L 33.566406 19.449219 L 39.523438 12.921875 "/>
<path style=" stroke:none;fill-rule:nonzero;fill:rgb(100%,100%,100%);fill-opacity:1;" d="M 32.308594 22.464844 C 29.960938 20.6875 26.171875 21.726562 23.859375 24.78125 C 21.550781 27.832031 21.582031 31.761719 23.929688 33.535156 C 26.277344 35.3125 30.066406 34.273438 32.375 31.21875 C 34.683594 28.167969 34.65625 24.238281 32.308594 22.464844 Z M 23.527344 34.074219 C 20.953125 32.125 20.917969 27.816406 23.449219 24.46875 C 25.984375 21.121094 30.140625 19.980469 32.714844 21.925781 C 35.285156 23.875 35.320312 28.183594 32.789062 31.53125 C 30.253906 34.882812 26.101562 36.019531 23.527344 34.074219 "/>
<path style=" stroke:none;fill-rule:nonzero;fill:rgb(29.542542%,63.098145%,87.072754%);fill-opacity:1;" d="M 9.742188 28 C 17.34375 2.875 38.132812 9.917969 38.132812 9.917969 C 38.132812 9.917969 15.328125 0.355469 2.855469 28 L 9.742188 28 "/>
<path style=" stroke:none;fill-rule:nonzero;fill:rgb(52.537537%,80.12085%,17.655945%);fill-opacity:1;" d="M 46.257812 28 C 38.65625 53.125 17.867188 46.082031 17.867188 46.082031 C 17.867188 46.082031 40.671875 55.644531 53.144531 28 L 46.257812 28 "/>
</g>
</svg>
