<?xml version="1.0" encoding="UTF-8"?>
<svg xmlns="http://www.w3.org/2000/svg" xmlns:xlink="http://www.w3.org/1999/xlink" width="56pt" height="56pt" viewBox="0 0 56 56" version="1.1">
<g id="surface1">
<rect x="0" y="0" width="56" height="56" style="fill:rgb(93.055725%,39.295959%,10.484314%);fill-opacity:1;stroke:none;"/>
<path style=" stroke:none;fill-rule:nonzero;fill:rgb(100%,100%,100%);fill-opacity:1;" d="M 34.164062 10.691406 C 31.632812 11.957031 29.164062 13.394531 26.824219 15.105469 C 25.191406 16.304688 23.273438 17.734375 22.296875 19.773438 C 21.316406 21.839844 22.207031 24.480469 24.144531 25.140625 C 29.910156 27.082031 37.304688 25.984375 42.402344 28.667969 C 42.6875 28.816406 42.960938 29 43.226562 29.183594 C 43.296875 29.238281 43.351562 29.273438 43.394531 29.292969 C 43.425781 29.332031 43.464844 29.371094 43.523438 29.4375 C 43.742188 29.664062 43.757812 29.675781 43.835938 29.976562 C 43.898438 30.210938 43.875 30.457031 43.78125 30.972656 C 43.625 31.773438 43.410156 32.289062 43.109375 32.9375 C 41.984375 35.339844 40.019531 36.863281 37.582031 38.183594 C 32.566406 40.898438 25.863281 40.964844 20.464844 39.277344 C 17.988281 38.503906 15.664062 37.195312 14.015625 35.28125 C 13.390625 34.5625 12.734375 33.34375 12.527344 32.675781 C 12.050781 31.125 12.078125 30.535156 12.230469 28.761719 C 12.402344 26.777344 10.695312 25.113281 9.144531 25.113281 C 7.332031 25.113281 6.222656 26.785156 6.054688 28.761719 C 5.378906 36.683594 10.246094 42.433594 16.042969 45.203125 C 22.28125 48.1875 29.574219 48.320312 36.058594 46.4375 C 42.066406 44.691406 48.746094 39.917969 49.867188 32.097656 C 51.285156 22.191406 41.597656 20.523438 35.535156 19.742188 C 34.652344 19.625 33.765625 19.535156 32.878906 19.433594 C 33.578125 19.003906 34.277344 18.585938 34.988281 18.191406 C 36.566406 17.304688 38.199219 16.574219 39.875 16.007812 C 40.199219 15.902344 40.523438 15.816406 40.851562 15.726562 C 41.382812 15.589844 41.296875 15.605469 41.304688 15.617188 C 41.304688 15.625 41.320312 15.628906 41.386719 15.625 C 43.421875 17.820312 47.53125 15.867188 46.480469 12.074219 C 45.695312 9.246094 43.851562 8.320312 41.738281 8.320312 C 39.136719 8.320312 36.128906 9.714844 34.164062 10.691406 "/>
</g>
</svg>
