<?xml version="1.0" encoding="UTF-8"?>
<svg xmlns="http://www.w3.org/2000/svg" xmlns:xlink="http://www.w3.org/1999/xlink" width="56pt" height="56pt" viewBox="0 0 56 56" version="1.1">
<g id="surface1">
<rect x="0" y="0" width="56" height="56" style="fill:rgb(81.34613%,11.808777%,15.072632%);fill-opacity:1;stroke:none;"/>
<path style=" stroke:none;fill-rule:nonzero;fill:rgb(100%,100%,100%);fill-opacity:1;" d="M 39.421875 13.027344 C 36.089844 13.027344 36.089844 16.8125 36.089844 18.113281 L 36.089844 38.453125 C 36.089844 39.074219 35.523438 40.148438 34.394531 40.148438 C 33.265625 40.148438 32.699219 39.019531 32.699219 38.453125 L 32.699219 13.054688 L 22.53125 13.054688 L 22.53125 38.453125 C 22.53125 39.019531 21.964844 40.148438 20.835938 40.148438 C 19.707031 40.148438 19.140625 39.019531 19.140625 38.453125 L 19.140625 18.113281 C 19.140625 16.984375 19.140625 13.027344 15.75 13.027344 L 6.144531 13.027344 L 6.144531 13.59375 C 6.144531 13.59375 8.96875 13.226562 8.96875 15.851562 L 8.96875 36.191406 C 8.96875 37.324219 10.101562 42.972656 15.183594 42.972656 L 40.042969 42.972656 C 45.128906 42.972656 46.261719 37.324219 46.261719 36.191406 L 46.261719 16.984375 C 46.261719 14.1875 48.519531 14.15625 48.519531 14.15625 L 49.855469 14.15625 L 49.855469 13.035156 C 44.394531 13.03125 40.042969 13.027344 39.421875 13.027344 "/>
</g>
</svg>
