<?xml version="1.0" encoding="UTF-8"?>
<svg xmlns="http://www.w3.org/2000/svg" xmlns:xlink="http://www.w3.org/1999/xlink" width="56pt" height="56pt" viewBox="0 0 56 56" version="1.1">
<g id="surface1">
<rect x="0" y="0" width="56" height="56" style="fill:rgb(95.66803%,95.779419%,96.777344%);fill-opacity:1;stroke:none;"/>
<path style=" stroke:none;fill-rule:nonzero;fill:rgb(93.29834%,13.983154%,23.226929%);fill-opacity:1;" d="M 50.550781 33.628906 C 50.554688 33.699219 50.558594 33.773438 50.558594 33.84375 C 50.558594 33.945312 50.550781 34.042969 50.554688 34.144531 C 50.554688 34.164062 50.582031 34.183594 50.597656 34.207031 C 50.601562 34.320312 50.609375 34.433594 50.613281 34.550781 C 50.566406 34.894531 50.601562 35.230469 50.660156 35.570312 C 50.664062 35.574219 50.671875 35.574219 50.679688 35.578125 C 50.679688 36.140625 50.679688 36.703125 50.679688 37.261719 C 50.664062 37.277344 50.640625 37.289062 50.640625 37.304688 C 50.621094 37.582031 50.605469 37.863281 50.59375 38.144531 C 50.59375 38.171875 50.613281 38.203125 50.625 38.234375 C 50.613281 38.398438 50.605469 38.558594 50.59375 38.722656 C 50.507812 38.789062 50.558594 38.878906 50.558594 38.957031 C 50.554688 39.085938 50.550781 39.214844 50.546875 39.34375 C 50.460938 39.394531 50.515625 39.46875 50.515625 39.53125 C 50.511719 39.601562 50.507812 39.671875 50.503906 39.742188 C 50.445312 39.769531 50.441406 39.796875 50.5 39.832031 C 50.496094 39.917969 50.492188 40.003906 50.488281 40.089844 C 50.402344 40.140625 50.394531 40.175781 50.453125 40.273438 C 50.445312 40.359375 50.441406 40.445312 50.4375 40.53125 C 50.324219 40.570312 50.378906 40.65625 50.378906 40.726562 C 50.375 40.851562 50.367188 40.972656 50.359375 41.105469 C 50.316406 41.105469 50.289062 41.109375 50.261719 41.097656 C 49.820312 40.957031 49.378906 40.808594 48.9375 40.660156 C 48.6875 40.578125 48.441406 40.488281 48.195312 40.402344 C 47.820312 40.265625 47.441406 40.132812 47.066406 39.992188 C 46.59375 39.8125 46.128906 39.632812 45.660156 39.445312 C 45.03125 39.1875 44.40625 38.929688 43.785156 38.660156 C 43.371094 38.480469 42.96875 38.277344 42.5625 38.078125 C 42.101562 37.855469 41.636719 37.640625 41.183594 37.398438 C 40.636719 37.105469 40.101562 36.789062 39.558594 36.488281 C 38.972656 36.160156 38.414062 35.785156 37.855469 35.410156 C 37.324219 35.046875 36.808594 34.65625 36.304688 34.257812 C 35.539062 33.65625 34.832031 32.988281 34.164062 32.28125 C 33.808594 31.902344 33.476562 31.496094 33.164062 31.082031 C 32.878906 30.699219 32.601562 30.3125 32.359375 29.90625 C 32.117188 29.503906 31.890625 29.097656 31.691406 28.671875 C 31.476562 28.222656 31.289062 27.765625 31.132812 27.296875 C 30.996094 26.890625 30.898438 26.472656 30.796875 26.054688 C 30.722656 25.75 30.671875 25.441406 30.625 25.128906 C 30.59375 24.941406 30.585938 24.753906 30.570312 24.5625 C 30.515625 23.976562 30.511719 23.386719 30.53125 22.796875 C 30.53125 22.652344 30.554688 22.507812 30.570312 22.34375 C 30.757812 22.320312 30.953125 22.316406 31.136719 22.34375 C 31.488281 22.398438 31.839844 22.472656 32.183594 22.554688 C 32.625 22.660156 33.050781 22.808594 33.464844 22.992188 C 33.910156 23.191406 34.359375 23.394531 34.792969 23.613281 C 35.363281 23.898438 35.917969 24.210938 36.453125 24.554688 C 36.820312 24.792969 37.199219 25.019531 37.566406 25.261719 C 37.847656 25.445312 38.121094 25.640625 38.394531 25.835938 C 38.765625 26.097656 39.136719 26.359375 39.503906 26.625 C 39.855469 26.886719 40.207031 27.152344 40.554688 27.417969 C 40.898438 27.683594 41.238281 27.949219 41.578125 28.214844 C 41.929688 28.492188 42.277344 28.773438 42.625 29.054688 C 42.949219 29.320312 43.273438 29.582031 43.59375 29.851562 C 43.867188 30.082031 44.136719 30.320312 44.40625 30.554688 C 44.457031 30.597656 44.511719 30.632812 44.5625 30.667969 C 44.640625 30.773438 44.71875 30.878906 44.890625 30.933594 C 44.832031 30.800781 44.769531 30.71875 44.675781 30.660156 C 44.632812 30.589844 44.59375 30.511719 44.546875 30.445312 C 44 29.675781 43.464844 28.898438 42.898438 28.144531 C 42.492188 27.601562 42.042969 27.09375 41.613281 26.574219 C 41.03125 25.871094 40.382812 25.226562 39.714844 24.601562 C 39.320312 24.230469 38.894531 23.890625 38.464844 23.558594 C 38.042969 23.230469 37.609375 22.921875 37.164062 22.621094 C 36.851562 22.410156 36.523438 22.21875 36.1875 22.039062 C 35.742188 21.800781 35.289062 21.578125 34.832031 21.363281 C 34.378906 21.152344 33.90625 20.980469 33.425781 20.824219 C 32.777344 20.609375 32.121094 20.425781 31.449219 20.292969 C 30.996094 20.207031 30.550781 20.105469 30.089844 20.066406 C 29.808594 20.042969 29.527344 19.988281 29.246094 19.949219 C 29.21875 19.945312 29.1875 19.949219 29.15625 19.945312 C 28.347656 19.875 27.539062 19.890625 26.730469 19.890625 C 26.40625 19.890625 26.078125 19.886719 25.753906 19.902344 C 25.207031 19.921875 24.65625 19.957031 24.105469 19.988281 C 23.902344 20 23.695312 20.007812 23.492188 20.035156 C 22.984375 20.097656 22.472656 20.097656 21.96875 20.195312 C 21.777344 20.234375 21.574219 20.226562 21.378906 20.25 C 21.082031 20.285156 20.785156 20.332031 20.488281 20.371094 C 20.324219 20.394531 20.15625 20.402344 19.988281 20.429688 C 19.476562 20.511719 18.96875 20.59375 18.457031 20.679688 C 18.113281 20.738281 17.769531 20.804688 17.425781 20.871094 C 17.054688 20.941406 16.679688 21.011719 16.3125 21.09375 C 15.847656 21.191406 15.386719 21.296875 14.925781 21.40625 C 14.550781 21.496094 14.179688 21.597656 13.808594 21.699219 C 13.175781 21.867188 12.539062 22.03125 11.910156 22.210938 C 11.507812 22.324219 11.109375 22.46875 10.707031 22.59375 C 10.261719 22.734375 9.816406 22.867188 9.371094 23.011719 C 9.226562 23.058594 9.085938 23.121094 8.945312 23.179688 C 8.457031 23.371094 7.949219 23.457031 7.425781 23.445312 C 7.003906 23.441406 6.613281 23.34375 6.246094 23.152344 C 5.789062 22.910156 5.46875 22.5625 5.351562 22.046875 C 5.351562 22.035156 5.332031 22.03125 5.320312 22.023438 C 5.320312 21.84375 5.320312 21.667969 5.320312 21.492188 C 5.332031 21.484375 5.351562 21.476562 5.351562 21.46875 C 5.464844 20.917969 5.8125 20.53125 6.234375 20.191406 C 6.5625 19.929688 6.929688 19.746094 7.324219 19.601562 C 8.195312 19.28125 9.058594 18.953125 9.925781 18.636719 C 10.386719 18.46875 10.847656 18.320312 11.3125 18.167969 C 11.75 18.027344 12.1875 17.898438 12.625 17.765625 C 13.035156 17.636719 13.441406 17.5 13.855469 17.382812 C 14.414062 17.222656 14.980469 17.078125 15.542969 16.929688 C 15.851562 16.847656 16.164062 16.769531 16.472656 16.691406 C 16.785156 16.617188 17.101562 16.554688 17.414062 16.484375 C 17.605469 16.441406 17.796875 16.390625 17.988281 16.351562 C 18.335938 16.277344 18.683594 16.199219 19.035156 16.128906 C 19.460938 16.042969 19.890625 15.957031 20.320312 15.878906 C 20.628906 15.820312 20.941406 15.78125 21.25 15.730469 C 21.539062 15.6875 21.828125 15.640625 22.113281 15.59375 C 22.316406 15.566406 22.519531 15.535156 22.71875 15.507812 C 22.9375 15.476562 23.15625 15.449219 23.371094 15.421875 C 23.574219 15.394531 23.777344 15.359375 23.976562 15.335938 C 24.296875 15.300781 24.617188 15.273438 24.941406 15.242188 C 25.40625 15.199219 25.871094 15.15625 26.339844 15.109375 C 26.820312 15.0625 27.304688 15.046875 27.785156 15.011719 C 28.492188 14.964844 29.199219 14.960938 29.902344 14.921875 C 30.558594 14.890625 31.210938 14.886719 31.867188 14.902344 C 32.386719 14.914062 32.90625 14.929688 33.421875 15.015625 C 33.632812 15.050781 33.84375 15.050781 34.054688 15.074219 C 34.273438 15.097656 34.492188 15.128906 34.707031 15.167969 C 35.113281 15.246094 35.519531 15.332031 35.921875 15.425781 C 36.234375 15.496094 36.546875 15.578125 36.851562 15.667969 C 37.5 15.847656 38.125 16.089844 38.742188 16.347656 C 39.90625 16.832031 40.996094 17.460938 42.023438 18.191406 C 42.535156 18.554688 43.042969 18.9375 43.496094 19.378906 C 44.015625 19.878906 44.546875 20.371094 45.042969 20.894531 C 45.574219 21.453125 46.054688 22.054688 46.511719 22.679688 C 46.796875 23.066406 47.082031 23.453125 47.320312 23.871094 C 47.523438 24.230469 47.734375 24.589844 47.941406 24.949219 C 48.046875 25.136719 48.144531 25.328125 48.246094 25.519531 C 48.234375 25.578125 48.265625 25.609375 48.316406 25.625 C 48.371094 25.75 48.425781 25.875 48.480469 26.003906 C 48.453125 26.070312 48.484375 26.097656 48.546875 26.105469 C 48.566406 26.160156 48.585938 26.214844 48.605469 26.269531 C 48.585938 26.332031 48.617188 26.363281 48.675781 26.375 C 48.730469 26.515625 48.785156 26.65625 48.839844 26.796875 C 48.808594 26.863281 48.835938 26.894531 48.898438 26.90625 C 48.96875 27.085938 49.03125 27.269531 49.101562 27.453125 C 49.140625 27.5625 49.183594 27.671875 49.222656 27.777344 C 49.207031 27.835938 49.234375 27.867188 49.285156 27.882812 C 49.304688 27.953125 49.328125 28.023438 49.34375 28.09375 C 49.273438 28.160156 49.335938 28.171875 49.386719 28.1875 C 49.394531 28.226562 49.402344 28.269531 49.40625 28.308594 C 49.386719 28.367188 49.414062 28.398438 49.46875 28.414062 C 49.492188 28.511719 49.515625 28.609375 49.539062 28.707031 C 49.542969 28.789062 49.554688 28.871094 49.621094 28.933594 C 49.628906 28.960938 49.632812 28.988281 49.636719 29.015625 C 49.636719 29.148438 49.679688 29.265625 49.753906 29.378906 C 49.757812 29.402344 49.761719 29.429688 49.765625 29.457031 C 49.75 29.5 49.742188 29.539062 49.800781 29.554688 C 49.808594 29.59375 49.816406 29.636719 49.824219 29.675781 C 49.777344 29.761719 49.835938 29.808594 49.886719 29.863281 C 49.886719 29.890625 49.890625 29.917969 49.894531 29.945312 C 49.882812 29.988281 49.875 30.027344 49.933594 30.039062 C 49.9375 30.082031 49.941406 30.125 49.945312 30.164062 C 49.914062 30.226562 49.941406 30.261719 50.003906 30.273438 C 50.007812 30.296875 50.007812 30.324219 50.011719 30.351562 C 49.984375 30.414062 50.003906 30.492188 50.0625 30.574219 C 50.066406 30.613281 50.070312 30.65625 50.074219 30.699219 C 50.054688 30.765625 50.046875 30.828125 50.132812 30.851562 C 50.136719 30.890625 50.140625 30.929688 50.144531 30.972656 C 50.117188 31.03125 50.132812 31.101562 50.191406 31.195312 C 50.199219 31.234375 50.203125 31.277344 50.207031 31.320312 C 50.203125 31.367188 50.164062 31.429688 50.242188 31.460938 C 50.246094 31.5 50.246094 31.542969 50.253906 31.585938 C 50.246094 31.65625 50.195312 31.746094 50.316406 31.777344 C 50.316406 31.820312 50.320312 31.859375 50.320312 31.902344 C 50.289062 31.988281 50.304688 32.09375 50.375 32.210938 C 50.375 32.253906 50.378906 32.296875 50.378906 32.339844 C 50.378906 32.390625 50.367188 32.441406 50.378906 32.488281 C 50.382812 32.519531 50.417969 32.546875 50.445312 32.578125 C 50.445312 32.632812 50.449219 32.6875 50.449219 32.742188 C 50.4375 32.8125 50.425781 32.878906 50.414062 32.945312 C 50.453125 32.960938 50.472656 32.96875 50.492188 32.972656 C 50.496094 33.042969 50.5 33.113281 50.503906 33.1875 C 50.445312 33.21875 50.453125 33.25 50.507812 33.273438 C 50.511719 33.300781 50.511719 33.332031 50.515625 33.355469 C 50.519531 33.449219 50.460938 33.550781 50.550781 33.628906 "/>
<path style=" stroke:none;fill-rule:nonzero;fill:rgb(93.29834%,13.983154%,23.226929%);fill-opacity:1;" d="M 50.679688 35.578125 C 50.671875 35.574219 50.664062 35.574219 50.660156 35.570312 C 50.601562 35.230469 50.566406 34.894531 50.613281 34.550781 C 50.636719 34.550781 50.65625 34.554688 50.679688 34.558594 C 50.679688 34.898438 50.679688 35.238281 50.679688 35.578125 "/>
<path style=" stroke:none;fill-rule:nonzero;fill:rgb(93.29834%,13.983154%,23.226929%);fill-opacity:1;" d="M 50.625 38.234375 C 50.613281 38.203125 50.59375 38.171875 50.59375 38.144531 C 50.605469 37.863281 50.621094 37.582031 50.640625 37.304688 C 50.640625 37.289062 50.664062 37.277344 50.679688 37.261719 C 50.679688 37.585938 50.679688 37.910156 50.679688 38.234375 C 50.660156 38.234375 50.644531 38.234375 50.625 38.234375 "/>
<path style=" stroke:none;fill-rule:nonzero;fill:rgb(52.632141%,8.465576%,16.639709%);fill-opacity:1;" d="M 28.011719 22.066406 C 27.625 23.355469 27.789062 24.601562 28.1875 25.84375 C 28.058594 25.898438 27.933594 25.859375 27.8125 25.863281 C 27.726562 25.863281 27.640625 25.835938 27.554688 25.835938 C 26.640625 25.820312 25.726562 25.800781 24.8125 25.800781 C 24.414062 25.800781 24.019531 25.84375 23.625 25.867188 C 23.589844 25.867188 23.550781 25.867188 23.515625 25.867188 C 22.976562 25.878906 22.445312 25.929688 21.914062 25.996094 C 21.511719 26.046875 21.109375 26.082031 20.710938 26.140625 C 20.167969 26.21875 19.628906 26.316406 19.089844 26.402344 C 18.300781 26.527344 17.527344 26.707031 16.753906 26.898438 C 16.195312 27.035156 15.640625 27.199219 15.082031 27.347656 C 14.800781 27.421875 14.523438 27.523438 14.234375 27.570312 C 13.558594 27.6875 12.914062 27.585938 12.359375 27.152344 C 11.96875 26.84375 11.726562 26.4375 11.75 25.917969 C 11.769531 25.566406 11.921875 25.269531 12.152344 25.011719 C 12.367188 24.765625 12.625 24.585938 12.929688 24.453125 C 13.597656 24.164062 14.273438 23.910156 14.964844 23.695312 C 15.46875 23.539062 15.972656 23.394531 16.484375 23.265625 C 17.027344 23.128906 17.578125 23.003906 18.128906 22.890625 C 18.523438 22.808594 18.921875 22.753906 19.320312 22.6875 C 19.664062 22.632812 20.011719 22.570312 20.355469 22.519531 C 20.625 22.480469 20.894531 22.453125 21.164062 22.425781 C 21.832031 22.363281 22.496094 22.304688 23.160156 22.242188 C 23.703125 22.191406 24.246094 22.175781 24.785156 22.144531 C 25.800781 22.082031 26.820312 22.070312 27.835938 22.066406 C 27.878906 22.0625 27.921875 22.066406 28.011719 22.066406 "/>
<path style=" stroke:none;fill-rule:nonzero;fill:rgb(52.632141%,8.465576%,16.639709%);fill-opacity:1;" d="M 28.78125 28.050781 C 28.808594 28.386719 28.902344 28.679688 29.015625 28.964844 C 29.191406 29.410156 29.425781 29.824219 29.664062 30.234375 C 29.855469 30.566406 30.042969 30.898438 30.230469 31.230469 C 30.246094 31.261719 30.257812 31.296875 30.28125 31.359375 C 30.179688 31.359375 30.101562 31.363281 30.023438 31.359375 C 29.761719 31.335938 29.496094 31.304688 29.234375 31.289062 C 28.765625 31.265625 28.292969 31.25 27.824219 31.230469 C 27.132812 31.203125 26.441406 31.167969 25.753906 31.140625 C 25.339844 31.125 24.925781 31.105469 24.515625 31.113281 C 24.039062 31.128906 23.5625 31.15625 23.085938 31.199219 C 22.605469 31.242188 22.125 31.296875 21.648438 31.375 C 21.128906 31.457031 20.613281 31.570312 20.09375 31.660156 C 19.789062 31.710938 19.492188 31.796875 19.191406 31.839844 C 18.460938 31.9375 17.757812 31.613281 17.488281 30.878906 C 17.234375 30.171875 17.484375 29.425781 18.257812 29.121094 C 18.855469 28.882812 19.464844 28.671875 20.09375 28.523438 C 20.589844 28.40625 21.089844 28.296875 21.597656 28.230469 C 22.171875 28.148438 22.746094 28.070312 23.324219 28.046875 C 23.640625 28.035156 23.957031 28.019531 24.273438 27.996094 C 25.246094 27.925781 26.21875 27.964844 27.191406 27.96875 C 27.660156 27.972656 28.132812 27.996094 28.601562 28.015625 C 28.660156 28.015625 28.714844 28.039062 28.78125 28.050781 "/>
<path style=" stroke:none;fill-rule:nonzero;fill:rgb(52.632141%,8.465576%,16.639709%);fill-opacity:1;" d="M 35.246094 36.550781 C 35.050781 36.53125 34.855469 36.511719 34.660156 36.488281 C 34.433594 36.46875 34.210938 36.441406 33.984375 36.421875 C 33.511719 36.378906 33.035156 36.335938 32.558594 36.292969 C 32.539062 36.292969 32.515625 36.292969 32.492188 36.292969 C 32.007812 36.273438 31.523438 36.265625 31.039062 36.230469 C 30.035156 36.160156 29.035156 36.195312 28.035156 36.191406 C 27.738281 36.1875 27.445312 36.195312 27.148438 36.203125 C 26.945312 36.207031 26.738281 36.226562 26.535156 36.234375 C 25.996094 36.261719 25.484375 36.132812 25.003906 35.90625 C 24.65625 35.746094 24.363281 35.503906 24.175781 35.167969 C 23.898438 34.679688 23.9375 34.089844 24.496094 33.664062 C 24.738281 33.476562 25.019531 33.375 25.316406 33.316406 C 25.613281 33.257812 25.910156 33.246094 26.214844 33.230469 C 27.574219 33.152344 28.9375 33.179688 30.300781 33.195312 C 30.765625 33.199219 31.222656 33.246094 31.714844 33.277344 C 32.765625 34.480469 33.976562 35.53125 35.265625 36.503906 C 35.257812 36.519531 35.253906 36.535156 35.246094 36.550781 "/>
<path style=" stroke:none;fill-rule:nonzero;fill:rgb(93.29834%,13.983154%,23.226929%);fill-opacity:1;" d="M 50.558594 38.957031 C 50.558594 38.878906 50.507812 38.789062 50.59375 38.722656 C 50.65625 38.839844 50.648438 38.886719 50.558594 38.957031 "/>
<path style=" stroke:none;fill-rule:nonzero;fill:rgb(93.29834%,13.983154%,23.226929%);fill-opacity:1;" d="M 50.515625 39.53125 C 50.515625 39.46875 50.460938 39.394531 50.546875 39.34375 C 50.609375 39.445312 50.605469 39.472656 50.515625 39.53125 "/>
<path style=" stroke:none;fill-rule:nonzero;fill:rgb(93.29834%,13.983154%,23.226929%);fill-opacity:1;" d="M 50.453125 40.273438 C 50.394531 40.175781 50.402344 40.140625 50.488281 40.089844 C 50.492188 40.15625 50.539062 40.226562 50.453125 40.273438 "/>
<path style=" stroke:none;fill-rule:nonzero;fill:rgb(93.29834%,13.983154%,23.226929%);fill-opacity:1;" d="M 50.378906 40.726562 C 50.378906 40.65625 50.324219 40.570312 50.4375 40.53125 C 50.453125 40.605469 50.5 40.691406 50.378906 40.726562 "/>
<path style=" stroke:none;fill-rule:nonzero;fill:rgb(93.29834%,13.983154%,23.226929%);fill-opacity:1;" d="M 50.5 39.832031 C 50.441406 39.796875 50.445312 39.769531 50.503906 39.742188 C 50.558594 39.773438 50.554688 39.804688 50.5 39.832031 "/>
<path style=" stroke:none;fill-rule:nonzero;fill:rgb(93.29834%,13.983154%,23.226929%);fill-opacity:1;" d="M 50.597656 34.207031 C 50.582031 34.183594 50.554688 34.164062 50.554688 34.144531 C 50.550781 34.042969 50.558594 33.945312 50.558594 33.84375 C 50.582031 33.851562 50.597656 33.855469 50.632812 33.867188 C 50.617188 33.980469 50.675781 34.097656 50.597656 34.207031 "/>
<path style=" stroke:none;fill-rule:nonzero;fill:rgb(93.29834%,13.983154%,23.226929%);fill-opacity:1;" d="M 49.753906 29.378906 C 49.679688 29.265625 49.636719 29.148438 49.636719 29.015625 C 49.742188 29.109375 49.761719 29.238281 49.773438 29.367188 C 49.773438 29.371094 49.761719 29.375 49.753906 29.378906 "/>
<path style=" stroke:none;fill-rule:nonzero;fill:rgb(93.29834%,13.983154%,23.226929%);fill-opacity:1;" d="M 50.375 32.210938 C 50.304688 32.09375 50.289062 31.988281 50.320312 31.902344 C 50.375 32 50.464844 32.089844 50.375 32.210938 "/>
<path style=" stroke:none;fill-rule:nonzero;fill:rgb(93.29834%,13.983154%,23.226929%);fill-opacity:1;" d="M 50.550781 33.628906 C 50.460938 33.550781 50.519531 33.449219 50.515625 33.355469 C 50.53125 33.363281 50.554688 33.371094 50.585938 33.378906 C 50.578125 33.460938 50.632812 33.550781 50.550781 33.628906 "/>
<path style=" stroke:none;fill-rule:nonzero;fill:rgb(93.29834%,13.983154%,23.226929%);fill-opacity:1;" d="M 50.445312 32.578125 C 50.417969 32.546875 50.382812 32.519531 50.378906 32.488281 C 50.367188 32.441406 50.378906 32.390625 50.378906 32.339844 C 50.398438 32.34375 50.417969 32.351562 50.460938 32.359375 C 50.453125 32.429688 50.449219 32.503906 50.445312 32.578125 "/>
<path style=" stroke:none;fill-rule:nonzero;fill:rgb(93.29834%,13.983154%,23.226929%);fill-opacity:1;" d="M 50.492188 32.972656 C 50.472656 32.96875 50.453125 32.960938 50.414062 32.945312 C 50.425781 32.878906 50.4375 32.8125 50.449219 32.742188 C 50.550781 32.804688 50.488281 32.894531 50.492188 32.972656 "/>
<path style=" stroke:none;fill-rule:nonzero;fill:rgb(93.29834%,13.983154%,23.226929%);fill-opacity:1;" d="M 49.621094 28.933594 C 49.554688 28.871094 49.542969 28.789062 49.539062 28.707031 C 49.652344 28.707031 49.59375 28.828125 49.652344 28.867188 C 49.65625 28.871094 49.632812 28.910156 49.621094 28.933594 "/>
<path style=" stroke:none;fill-rule:nonzero;fill:rgb(93.29834%,13.983154%,23.226929%);fill-opacity:1;" d="M 50.191406 31.195312 C 50.132812 31.101562 50.117188 31.03125 50.144531 30.972656 C 50.210938 31.046875 50.226562 31.136719 50.191406 31.195312 "/>
<path style=" stroke:none;fill-rule:nonzero;fill:rgb(93.29834%,13.983154%,23.226929%);fill-opacity:1;" d="M 50.0625 30.574219 C 50.003906 30.492188 49.984375 30.414062 50.011719 30.351562 C 50.074219 30.425781 50.09375 30.515625 50.0625 30.574219 "/>
<path style=" stroke:none;fill-rule:nonzero;fill:rgb(93.29834%,13.983154%,23.226929%);fill-opacity:1;" d="M 50.316406 31.777344 C 50.195312 31.746094 50.246094 31.65625 50.253906 31.585938 C 50.375 31.613281 50.316406 31.707031 50.316406 31.777344 "/>
<path style=" stroke:none;fill-rule:nonzero;fill:rgb(93.29834%,13.983154%,23.226929%);fill-opacity:1;" d="M 49.886719 29.863281 C 49.835938 29.808594 49.777344 29.761719 49.824219 29.675781 C 49.914062 29.757812 49.925781 29.792969 49.886719 29.863281 "/>
<path style=" stroke:none;fill-rule:nonzero;fill:rgb(93.29834%,13.983154%,23.226929%);fill-opacity:1;" d="M 50.132812 30.851562 C 50.046875 30.828125 50.054688 30.765625 50.074219 30.699219 C 50.175781 30.71875 50.152344 30.785156 50.132812 30.851562 "/>
<path style=" stroke:none;fill-rule:nonzero;fill:rgb(93.29834%,13.983154%,23.226929%);fill-opacity:1;" d="M 50.242188 31.460938 C 50.164062 31.429688 50.203125 31.367188 50.207031 31.320312 C 50.296875 31.363281 50.300781 31.378906 50.242188 31.460938 "/>
<path style=" stroke:none;fill-rule:nonzero;fill:rgb(93.29834%,13.983154%,23.226929%);fill-opacity:1;" d="M 48.316406 25.625 C 48.265625 25.609375 48.234375 25.578125 48.246094 25.519531 C 48.320312 25.523438 48.34375 25.554688 48.316406 25.625 "/>
<path style=" stroke:none;fill-rule:nonzero;fill:rgb(93.29834%,13.983154%,23.226929%);fill-opacity:1;" d="M 48.546875 26.105469 C 48.484375 26.097656 48.453125 26.070312 48.480469 26.003906 C 48.539062 26.011719 48.566406 26.046875 48.546875 26.105469 "/>
<path style=" stroke:none;fill-rule:nonzero;fill:rgb(93.29834%,13.983154%,23.226929%);fill-opacity:1;" d="M 48.675781 26.375 C 48.617188 26.363281 48.585938 26.332031 48.605469 26.269531 C 48.671875 26.277344 48.699219 26.308594 48.675781 26.375 "/>
<path style=" stroke:none;fill-rule:nonzero;fill:rgb(93.29834%,13.983154%,23.226929%);fill-opacity:1;" d="M 48.898438 26.90625 C 48.835938 26.894531 48.808594 26.863281 48.839844 26.796875 C 48.898438 26.8125 48.917969 26.847656 48.898438 26.90625 "/>
<path style=" stroke:none;fill-rule:nonzero;fill:rgb(93.29834%,13.983154%,23.226929%);fill-opacity:1;" d="M 49.285156 27.882812 C 49.234375 27.867188 49.207031 27.835938 49.222656 27.777344 C 49.296875 27.78125 49.320312 27.816406 49.285156 27.882812 "/>
<path style=" stroke:none;fill-rule:nonzero;fill:rgb(93.29834%,13.983154%,23.226929%);fill-opacity:1;" d="M 49.386719 28.1875 C 49.335938 28.171875 49.273438 28.160156 49.34375 28.09375 C 49.402344 28.105469 49.398438 28.144531 49.386719 28.1875 "/>
<path style=" stroke:none;fill-rule:nonzero;fill:rgb(93.29834%,13.983154%,23.226929%);fill-opacity:1;" d="M 49.46875 28.414062 C 49.414062 28.398438 49.386719 28.367188 49.40625 28.308594 C 49.476562 28.316406 49.496094 28.351562 49.46875 28.414062 "/>
<path style=" stroke:none;fill-rule:nonzero;fill:rgb(93.29834%,13.983154%,23.226929%);fill-opacity:1;" d="M 49.800781 29.554688 C 49.742188 29.539062 49.75 29.5 49.765625 29.457031 C 49.816406 29.472656 49.875 29.488281 49.800781 29.554688 "/>
<path style=" stroke:none;fill-rule:nonzero;fill:rgb(93.29834%,13.983154%,23.226929%);fill-opacity:1;" d="M 50.507812 33.273438 C 50.453125 33.25 50.445312 33.21875 50.503906 33.1875 C 50.554688 33.210938 50.566406 33.242188 50.507812 33.273438 "/>
<path style=" stroke:none;fill-rule:nonzero;fill:rgb(93.29834%,13.983154%,23.226929%);fill-opacity:1;" d="M 50.003906 30.273438 C 49.941406 30.261719 49.914062 30.226562 49.945312 30.164062 C 50.007812 30.175781 50.027344 30.214844 50.003906 30.273438 "/>
<path style=" stroke:none;fill-rule:nonzero;fill:rgb(93.29834%,13.983154%,23.226929%);fill-opacity:1;" d="M 49.933594 30.039062 C 49.875 30.027344 49.882812 29.988281 49.894531 29.945312 C 49.945312 29.960938 50.011719 29.96875 49.933594 30.039062 "/>
</g>
</svg>
