<?xml version="1.0" encoding="UTF-8"?>
<svg xmlns="http://www.w3.org/2000/svg" xmlns:xlink="http://www.w3.org/1999/xlink" width="56pt" height="56pt" viewBox="0 0 56 56" version="1.1">
<g id="surface1">
<rect x="0" y="0" width="56" height="56" style="fill:rgb(95.666504%,95.776367%,96.775818%);fill-opacity:1;stroke:none;"/>
<path style=" stroke:none;fill-rule:nonzero;fill:rgb(17.381287%,15.525818%,12.992859%);fill-opacity:1;" d="M 8.308594 31.296875 L 10.175781 31.296875 L 12.757812 24.203125 L 10.890625 24.203125 L 8.308594 31.296875 "/>
<path style=" stroke:none;fill-rule:nonzero;fill:rgb(59.944153%,47.886658%,35.321045%);fill-opacity:1;" d="M 47.113281 24.203125 L 39.320312 24.203125 L 36.738281 31.296875 L 44.519531 31.296875 L 45.066406 29.800781 L 39.148438 29.800781 L 39.660156 28.394531 L 44.386719 28.394531 L 44.855469 27.101562 L 40.132812 27.101562 L 40.644531 25.695312 L 49.441406 25.695312 L 47.402344 31.296875 L 49.351562 31.296875 L 51.390625 25.695312 L 54.933594 25.695312 L 55.476562 24.203125 L 47.113281 24.203125 "/>
<path style=" stroke:none;fill-rule:nonzero;fill:rgb(17.381287%,15.525818%,12.992859%);fill-opacity:1;" d="M 33.101562 24.199219 L 29.988281 24.199219 L 25.398438 27.160156 L 23.105469 24.199219 L 13.8125 24.203125 L 13.269531 25.695312 L 16.8125 25.695312 L 14.777344 31.296875 L 16.722656 31.296875 L 18.761719 25.695312 L 21.476562 25.695312 L 24.007812 28.765625 L 23.089844 31.296875 L 24.957031 31.296875 L 25.78125 29.035156 L 33.101562 24.199219 "/>
<path style=" stroke:none;fill-rule:nonzero;fill:rgb(45.77179%,8.273315%,13.305664%);fill-opacity:1;" d="M 38.226562 24.207031 L 34.539062 24.207031 L 32.371094 25.699219 L 35.949219 25.699219 L 34.523438 28.976562 L 36.757812 27.585938 L 38.230469 24.207031 L 38.226562 24.207031 "/>
<path style=" stroke:none;fill-rule:nonzero;fill:rgb(17.381287%,15.525818%,12.992859%);fill-opacity:1;" d="M 7.222656 31.292969 L 7.886719 29.480469 C 7.507812 29.644531 7.089844 29.773438 6.640625 29.863281 C 4.601562 30.277344 2.757812 29.664062 2.519531 28.492188 C 2.285156 27.320312 3.746094 26.039062 5.785156 25.625 C 7.128906 25.355469 8.386719 25.53125 9.160156 26.015625 L 9.792969 24.273438 C 8.457031 23.871094 7.035156 23.839844 5.464844 24.070312 C 2.09375 24.566406 0.222656 26.882812 0.5625 28.886719 C 0.894531 30.84375 2.792969 32.046875 6.941406 31.351562 C 7.039062 31.339844 7.128906 31.316406 7.222656 31.292969 "/>
<path style=" stroke:none;fill-rule:nonzero;fill:rgb(59.944153%,47.886658%,35.321045%);fill-opacity:1;" d="M 32.703125 30.480469 C 32.378906 30.585938 31.734375 30.640625 31.476562 30.632812 C 30.84375 30.613281 30.242188 30.46875 29.722656 30.179688 L 28.425781 31.035156 L 28.414062 31.042969 C 28.414062 31.046875 28.417969 31.046875 28.417969 31.046875 C 28.425781 31.054688 28.433594 31.058594 28.445312 31.066406 C 28.996094 31.480469 29.636719 31.78125 30.335938 31.945312 C 30.363281 31.953125 30.398438 31.960938 30.429688 31.964844 C 30.566406 31.996094 30.703125 32.019531 30.839844 32.035156 C 30.910156 32.042969 30.980469 32.050781 31.050781 32.054688 C 31.089844 32.058594 31.125 32.0625 31.160156 32.066406 C 31.269531 32.070312 31.371094 32.074219 31.476562 32.074219 C 31.867188 32.074219 32.246094 32.03125 32.609375 31.949219 C 33.085938 31.839844 33.53125 31.664062 33.945312 31.433594 C 34.285156 31.246094 34.601562 31.019531 34.886719 30.757812 C 34.890625 30.753906 34.894531 30.75 34.898438 30.746094 C 35.21875 30.453125 35.503906 30.117188 35.738281 29.75 C 35.742188 29.75 35.742188 29.746094 35.742188 29.746094 C 35.921875 29.464844 36.078125 29.164062 36.199219 28.851562 C 36.402344 28.421875 36.5625 28.039062 36.5625 28.039062 L 34.34375 29.417969 C 34.34375 29.417969 33.84375 30.109375 32.703125 30.480469 "/>
</g>
</svg>
