<?xml version="1.0" encoding="UTF-8"?>
<svg xmlns="http://www.w3.org/2000/svg" xmlns:xlink="http://www.w3.org/1999/xlink" width="56pt" height="56pt" viewBox="0 0 56 56" version="1.1">
<g id="surface1">
<rect x="0" y="0" width="56" height="56" style="fill:rgb(95.666504%,95.776367%,96.775818%);fill-opacity:1;stroke:none;"/>
<path style=" stroke:none;fill-rule:nonzero;fill:rgb(53.83606%,55.218506%,54.708862%);fill-opacity:1;" d="M 40.617188 35.601562 C 40.101562 36.242188 39.324219 36.617188 38.5 36.617188 L 36.613281 36.617188 L 49.582031 20.402344 C 50.101562 19.757812 50.882812 19.382812 51.710938 19.382812 L 53.679688 19.382812 L 40.617188 35.601562 "/>
<path style=" stroke:none;fill-rule:nonzero;fill:rgb(76.745605%,12.670898%,17.088318%);fill-opacity:1;" d="M 20.269531 35.457031 L 19.210938 36.613281 L 24.191406 36.613281 L 22.710938 34.113281 C 22.691406 34.078125 22.65625 34.054688 22.617188 34.042969 C 22.578125 34.035156 22.535156 34.042969 22.503906 34.0625 Z M 17.253906 19.382812 C 18.300781 20.121094 19.082031 21.378906 19.082031 21.378906 L 22.898438 27.957031 C 22.933594 28.019531 22.996094 28.0625 23.070312 28.070312 L 26.019531 28.394531 C 26.265625 28.421875 26.519531 28.429688 26.773438 28.414062 C 28.308594 28.328125 34.007812 28.015625 34.695312 28.03125 C 35.46875 28.046875 35.914062 29.285156 35.914062 29.285156 L 27.894531 31.058594 L 25.566406 32.292969 C 25.53125 32.3125 25.507812 32.347656 25.492188 32.386719 C 25.480469 32.421875 25.488281 32.464844 25.507812 32.5 L 27.039062 35.230469 C 27.039062 35.230469 27.164062 34.804688 27.265625 34.738281 C 27.367188 34.671875 28.226562 34.136719 28.386719 34.179688 C 28.546875 34.21875 28.808594 34.53125 29.214844 35.308594 C 29.433594 35.71875 29.613281 36.183594 29.746094 36.617188 L 33.121094 36.617188 C 33.949219 36.617188 34.730469 36.242188 35.246094 35.597656 L 48.210938 19.382812 Z M 18.53125 33.175781 C 18.675781 32.960938 18.804688 32.726562 18.910156 32.488281 L 20.09375 29.789062 C 20.121094 29.722656 20.117188 29.644531 20.082031 29.582031 L 16.289062 22.992188 C 16.289062 22.992188 15.523438 21.554688 15.464844 20.21875 L 2.320312 36.617188 L 16.261719 36.617188 C 17.160156 35.238281 18.113281 33.804688 18.53125 33.175781 "/>
</g>
</svg>
