<?xml version="1.0" encoding="UTF-8"?>
<svg xmlns="http://www.w3.org/2000/svg" xmlns:xlink="http://www.w3.org/1999/xlink" width="56pt" height="56pt" viewBox="0 0 56 56" version="1.1">
<g id="surface1">
<rect x="0" y="0" width="56" height="56" style="fill:rgb(95.666504%,95.776367%,96.775818%);fill-opacity:1;stroke:none;"/>
<path style=" stroke:none;fill-rule:nonzero;fill:rgb(15.362549%,25.674438%,55.026245%);fill-opacity:1;" d="M 33.878906 36.070312 C 26.089844 36.640625 15.316406 38.351562 7.574219 37.933594 C 8.394531 39.589844 9.414062 41.148438 10.617188 42.574219 C 11.292969 43.363281 12.019531 44.121094 12.804688 44.824219 C 17.011719 48.601562 22.417969 50.679688 28.035156 50.679688 C 33.6875 50.679688 39.09375 48.632812 43.253906 44.921875 C 44.972656 43.390625 46.367188 41.742188 47.472656 39.933594 C 48.222656 38.710938 48.839844 37.410156 49.335938 36.023438 C 46.003906 35.359375 40.296875 35.597656 33.878906 36.070312 "/>
<path style=" stroke:none;fill-rule:nonzero;fill:rgb(15.362549%,25.674438%,55.026245%);fill-opacity:1;" d="M 15.503906 9.191406 C 15.359375 9.15625 15.210938 9.1875 15.09375 9.269531 C 14.683594 9.554688 14.269531 9.859375 13.871094 10.175781 C 13.667969 10.335938 13.613281 10.621094 13.742188 10.839844 L 17.601562 17.527344 L 17.800781 17.792969 L 17.789062 17.808594 L 17.523438 17.605469 L 10.832031 13.746094 C 10.613281 13.617188 10.328125 13.667969 10.167969 13.871094 C 9.851562 14.269531 9.550781 14.683594 9.265625 15.097656 C 9.183594 15.214844 9.15625 15.363281 9.1875 15.503906 C 9.21875 15.644531 9.308594 15.765625 9.433594 15.839844 L 20.847656 22.425781 L 21.105469 22.492188 C 21.25 22.492188 21.390625 22.433594 21.492188 22.316406 C 21.75 22.023438 22.027344 21.746094 22.316406 21.492188 C 22.503906 21.328125 22.546875 21.058594 22.421875 20.84375 L 15.835938 9.4375 C 15.765625 9.308594 15.644531 9.222656 15.503906 9.191406 "/>
<path style=" stroke:none;fill-rule:nonzero;fill:rgb(15.362549%,25.674438%,55.026245%);fill-opacity:1;" d="M 46.8125 15.5 C 46.84375 15.363281 46.816406 15.214844 46.734375 15.09375 C 46.449219 14.679688 46.144531 14.269531 45.824219 13.867188 C 45.667969 13.667969 45.382812 13.613281 45.164062 13.742188 L 38.476562 17.601562 L 38.207031 17.796875 L 38.199219 17.792969 L 38.398438 17.523438 L 42.257812 10.832031 C 42.386719 10.609375 42.332031 10.324219 42.128906 10.167969 C 41.730469 9.851562 41.320312 9.550781 40.90625 9.265625 C 40.789062 9.183594 40.640625 9.152344 40.5 9.1875 C 40.359375 9.21875 40.238281 9.304688 40.164062 9.429688 L 33.578125 20.84375 L 33.507812 21.101562 C 33.507812 21.246094 33.574219 21.390625 33.6875 21.492188 C 33.980469 21.746094 34.261719 22.023438 34.511719 22.316406 C 34.671875 22.5 34.945312 22.546875 35.160156 22.421875 L 46.570312 15.835938 C 46.691406 15.761719 46.78125 15.644531 46.8125 15.5 "/>
<path style=" stroke:none;fill-rule:nonzero;fill:rgb(15.362549%,25.674438%,55.026245%);fill-opacity:1;" d="M 38.042969 7.769531 C 38 7.632812 37.902344 7.519531 37.773438 7.457031 C 37.316406 7.242188 36.847656 7.039062 36.371094 6.851562 C 36.132812 6.757812 35.863281 6.851562 35.734375 7.070312 L 31.875 13.757812 L 31.738281 14.066406 L 31.726562 14.058594 L 31.765625 13.730469 L 31.765625 6.003906 C 31.765625 5.746094 31.578125 5.527344 31.320312 5.492188 C 30.820312 5.417969 30.308594 5.363281 29.8125 5.324219 C 29.667969 5.3125 29.523438 5.363281 29.417969 5.460938 C 29.3125 5.554688 29.253906 5.695312 29.253906 5.839844 L 29.253906 19.015625 L 29.324219 19.273438 C 29.394531 19.398438 29.519531 19.492188 29.671875 19.523438 C 30.050781 19.597656 30.433594 19.699219 30.796875 19.824219 C 31.03125 19.902344 31.289062 19.804688 31.410156 19.589844 L 37.996094 8.183594 C 38.070312 8.054688 38.089844 7.90625 38.042969 7.769531 "/>
<path style=" stroke:none;fill-rule:nonzero;fill:rgb(15.362549%,25.674438%,55.026245%);fill-opacity:1;" d="M 50.542969 26.585938 C 50.644531 26.476562 50.691406 26.335938 50.679688 26.191406 C 50.640625 25.691406 50.582031 25.179688 50.507812 24.675781 C 50.46875 24.421875 50.253906 24.234375 49.996094 24.234375 L 42.273438 24.234375 L 41.941406 24.273438 L 41.941406 24.257812 L 42.246094 24.128906 L 48.933594 20.265625 C 49.15625 20.132812 49.253906 19.863281 49.15625 19.621094 C 48.96875 19.152344 48.761719 18.683594 48.546875 18.230469 C 48.484375 18.101562 48.371094 18 48.234375 17.960938 C 48.09375 17.917969 47.949219 17.933594 47.824219 18.003906 L 36.410156 24.59375 L 36.222656 24.785156 C 36.152344 24.90625 36.128906 25.0625 36.179688 25.210938 C 36.304688 25.578125 36.410156 25.957031 36.480469 26.335938 C 36.53125 26.578125 36.746094 26.75 36.988281 26.75 L 50.164062 26.75 C 50.308594 26.75 50.445312 26.691406 50.542969 26.585938 "/>
<path style=" stroke:none;fill-rule:nonzero;fill:rgb(15.362549%,25.674438%,55.026245%);fill-opacity:1;" d="M 7.769531 17.957031 C 7.628906 18 7.515625 18.101562 7.453125 18.230469 C 7.238281 18.683594 7.035156 19.152344 6.847656 19.628906 C 6.75 19.867188 6.847656 20.136719 7.070312 20.265625 L 13.757812 24.125 L 14.0625 24.257812 L 14.054688 24.273438 L 13.726562 24.234375 L 6.003906 24.234375 C 5.746094 24.234375 5.527344 24.421875 5.492188 24.679688 C 5.417969 25.179688 5.359375 25.6875 5.320312 26.191406 C 5.3125 26.335938 5.359375 26.476562 5.457031 26.582031 C 5.554688 26.683594 5.691406 26.75 5.835938 26.75 L 19.011719 26.746094 L 19.273438 26.675781 C 19.394531 26.601562 19.488281 26.480469 19.523438 26.328125 C 19.59375 25.945312 19.695312 25.570312 19.820312 25.203125 C 19.902344 24.96875 19.800781 24.710938 19.589844 24.585938 L 8.179688 18 C 8.054688 17.929688 7.90625 17.914062 7.769531 17.957031 "/>
<path style=" stroke:none;fill-rule:nonzero;fill:rgb(15.362549%,25.674438%,55.026245%);fill-opacity:1;" d="M 26.578125 5.460938 C 26.472656 5.363281 26.328125 5.316406 26.183594 5.324219 C 25.683594 5.367188 25.175781 5.425781 24.671875 5.5 C 24.417969 5.539062 24.230469 5.753906 24.230469 6.011719 L 24.226562 13.730469 L 24.265625 14.0625 L 24.253906 14.066406 L 24.121094 13.761719 L 20.257812 7.070312 C 20.132812 6.847656 19.855469 6.753906 19.617188 6.851562 C 19.148438 7.039062 18.675781 7.242188 18.226562 7.457031 C 18.097656 7.519531 17.992188 7.632812 17.953125 7.773438 C 17.910156 7.90625 17.929688 8.054688 18 8.183594 L 24.589844 19.59375 L 24.777344 19.785156 C 24.90625 19.855469 25.054688 19.875 25.203125 19.828125 C 25.574219 19.699219 25.949219 19.597656 26.328125 19.523438 C 26.574219 19.472656 26.746094 19.261719 26.746094 19.015625 L 26.746094 5.839844 C 26.746094 5.695312 26.683594 5.554688 26.578125 5.460938 "/>
<path style=" stroke:none;fill-rule:nonzero;fill:rgb(93.336487%,29.283142%,14.112854%);fill-opacity:1;" d="M 49.238281 29.597656 C 44.484375 29.597656 40.839844 30.753906 31.394531 32.761719 C 18.03125 35.597656 8.539062 33.253906 6.363281 32.972656 C 6.039062 32.933594 5.824219 33.097656 5.933594 33.464844 C 6.167969 34.550781 6.976562 36.878906 7.582031 37.933594 C 15.320312 38.351562 26.097656 36.640625 33.882812 36.070312 C 40.300781 35.597656 46.007812 35.359375 49.339844 36.023438 C 49.882812 34.507812 50.277344 32.886719 50.539062 31.136719 C 50.691406 30.132812 50.570312 29.597656 49.238281 29.597656 "/>
<path style=" stroke:none;fill-rule:nonzero;fill:rgb(93.336487%,29.283142%,14.112854%);fill-opacity:1;" d="M 5.789062 31.21875 C 6.234375 31.398438 12.414062 33.5 22.003906 33.636719 C 24.726562 33.675781 28.199219 33.273438 30.273438 32.820312 C 29.183594 32.992188 26.867188 33.339844 23.996094 33.332031 C 18.472656 33.308594 10.089844 31.371094 6.109375 29.597656 C 5.945312 29.523438 5.753906 29.550781 5.605469 29.65625 C 5.460938 29.765625 5.378906 29.941406 5.394531 30.121094 C 5.417969 30.378906 5.441406 30.632812 5.46875 30.886719 C 5.492188 31.011719 5.53125 31.117188 5.789062 31.21875 "/>
</g>
</svg>
