<?xml version="1.0" encoding="UTF-8"?>
<svg xmlns="http://www.w3.org/2000/svg" xmlns:xlink="http://www.w3.org/1999/xlink" width="56pt" height="56pt" viewBox="0 0 56 56" version="1.1">
<g id="surface1">
<rect x="0" y="0" width="56" height="56" style="fill:rgb(95.666504%,95.776367%,96.775818%);fill-opacity:1;stroke:none;"/>
<path style=" stroke:none;fill-rule:nonzero;fill:rgb(18.907166%,57.516479%,49.19281%);fill-opacity:1;" d="M 11.695312 12.542969 C 14.4375 15.359375 16.945312 17.796875 19.726562 20.71875 L 24.835938 25.929688 L 24.761719 26.042969 C 21.382812 30.84375 17.433594 35.570312 12.992188 39.453125 C 11.621094 40.660156 10.167969 41.921875 8.796875 42.953125 L 8.796875 42.964844 C 11.464844 39.210938 14.273438 35.589844 17.667969 32.324219 L 17.667969 32.25 C 14.457031 29.003906 11.621094 26.023438 8.410156 22.792969 L 8.320312 7.867188 C 8.859375 9.746094 10.285156 11.097656 11.695312 12.542969 "/>
<path style=" stroke:none;fill-rule:nonzero;fill:rgb(15.283203%,31.465149%,64.961243%);fill-opacity:1;" d="M 24.019531 33.894531 C 19.527344 38.90625 14.292969 43.367188 9.023438 47.425781 C 15.519531 38.261719 23.605469 30.046875 32.574219 23.28125 C 30.027344 26.871094 27.105469 30.589844 24.019531 33.894531 "/>
<path style=" stroke:none;fill-rule:nonzero;fill:rgb(18.907166%,57.516479%,49.19281%);fill-opacity:1;" d="M 30.769531 32 L 35.445312 36.796875 L 38.671875 40.082031 L 43.890625 45.421875 C 45.070312 46.59375 46.234375 47.664062 47.679688 48.132812 L 40.496094 48.132812 L 33.097656 48.023438 L 27.84375 42.660156 C 26.492188 41.21875 25.265625 39.917969 23.859375 38.566406 C 21.890625 40.515625 19.796875 42.519531 17.703125 44.304688 C 16.277344 45.40625 14.816406 46.578125 13.390625 47.585938 C 17 42.714844 21.511719 37.933594 26.277344 34.125 C 27.503906 33.167969 28.773438 32.09375 30.023438 31.210938 L 30.769531 32 "/>
</g>
</svg>
