<?xml version="1.0" encoding="UTF-8"?>
<svg xmlns="http://www.w3.org/2000/svg" xmlns:xlink="http://www.w3.org/1999/xlink" width="56pt" height="56pt" viewBox="0 0 56 56" version="1.1">
<g id="surface1">
<rect x="0" y="0" width="56" height="56" style="fill:rgb(95.66803%,95.779419%,96.777344%);fill-opacity:1;stroke:none;"/>
<path style=" stroke:none;fill-rule:nonzero;fill:rgb(98.222351%,79.463196%,2.891541%);fill-opacity:1;" d="M 15.496094 34.523438 C 16.378906 33.980469 17.339844 33.503906 18.28125 32.828125 L 24.65625 28.238281 C 29.96875 24.648438 35.273438 21.472656 40.503906 21.492188 L 40.503906 25.152344 C 37.453125 25.152344 32.421875 27.082031 27.699219 30.480469 L 19.921875 36.085938 L 27.699219 41.691406 C 32.421875 45.09375 37.453125 47.019531 40.503906 47.019531 L 40.503906 50.679688 C 35.273438 50.699219 29.96875 47.523438 24.65625 43.9375 L 18.28125 39.347656 C 17.339844 38.667969 16.378906 38.195312 15.496094 37.652344 L 15.496094 34.523438 "/>
<path style=" stroke:none;fill-rule:nonzero;fill:rgb(28.738403%,16.398621%,56.762695%);fill-opacity:1;" d="M 15.496094 26.488281 C 16.378906 25.945312 17.339844 25.46875 18.28125 24.792969 L 24.65625 20.203125 C 29.96875 16.617188 35.273438 13.441406 40.503906 13.460938 L 40.503906 17.117188 C 37.453125 17.117188 32.421875 19.046875 27.699219 22.449219 L 19.921875 28.054688 L 27.699219 33.660156 C 32.421875 37.058594 37.453125 38.988281 40.503906 38.988281 L 40.503906 42.648438 C 35.273438 42.667969 29.96875 39.488281 24.65625 35.902344 L 18.28125 31.3125 C 17.339844 30.636719 16.378906 30.160156 15.496094 29.617188 L 15.496094 26.488281 "/>
<path style=" stroke:none;fill-rule:nonzero;fill:rgb(30.665588%,77.076721%,82.318115%);fill-opacity:1;" d="M 15.496094 18.347656 C 16.378906 17.804688 17.339844 17.332031 18.28125 16.652344 L 24.65625 12.0625 C 29.96875 8.476562 35.273438 5.300781 40.503906 5.320312 L 40.503906 8.976562 C 37.453125 8.976562 32.421875 10.90625 27.699219 14.308594 L 19.921875 19.914062 L 27.699219 25.519531 C 32.421875 28.917969 37.453125 30.847656 40.503906 30.847656 L 40.503906 34.507812 C 35.273438 34.527344 29.96875 31.351562 24.65625 27.761719 L 18.28125 23.171875 C 17.339844 22.496094 16.378906 22.019531 15.496094 21.476562 L 15.496094 18.347656 "/>
</g>
</svg>
