<?xml version="1.0" encoding="UTF-8"?>
<svg xmlns="http://www.w3.org/2000/svg" xmlns:xlink="http://www.w3.org/1999/xlink" width="56pt" height="56pt" viewBox="0 0 56 56" version="1.1">
<g id="surface1">
<rect x="0" y="0" width="56" height="56" style="fill:rgb(91.40625%,12.882996%,16.416931%);fill-opacity:1;stroke:none;"/>
<path style=" stroke:none;fill-rule:nonzero;fill:rgb(100%,100%,100%);fill-opacity:1;" d="M 43.65625 15.949219 L 43.675781 15.949219 C 43.695312 15.949219 43.695312 15.949219 43.695312 15.949219 C 46.308594 15.671875 48.917969 13.320312 48.5 10.550781 C 48.121094 8.019531 45.828125 6.421875 43.378906 6.742188 C 41.980469 6.921875 40.308594 7.777344 39.609375 9.054688 C 38.953125 10.210938 38.851562 11.605469 39.113281 12.882812 C 39.570312 15.015625 41.601562 16.011719 43.65625 15.949219 "/>
<path style=" stroke:none;fill-rule:nonzero;fill:rgb(100%,100%,100%);fill-opacity:1;" d="M 12.980469 27.828125 C 13.28125 25.238281 11.367188 24.042969 9.613281 23.585938 C 8.058594 23.226562 6.785156 23.027344 7.144531 21.832031 C 7.164062 21.789062 7.183594 21.75 7.203125 21.710938 C 7.761719 20.515625 9.15625 19.898438 11.027344 19.398438 C 11.289062 19.339844 11.546875 19.257812 11.828125 19.199219 C 13.582031 18.800781 15.652344 18.640625 17.644531 18.28125 C 18.542969 18.121094 19.402344 17.921875 20.199219 17.644531 C 22.050781 16.828125 23.246094 15.035156 24.003906 13.21875 C 24.324219 12.480469 24.5625 11.726562 24.742188 11.027344 C 25.019531 9.929688 25.21875 8.972656 25.558594 8.277344 C 25.898438 7.640625 26.375 7.21875 27.132812 7.101562 C 28.609375 6.941406 29.207031 8.554688 29.683594 10.886719 C 30.242188 13.578125 30.164062 17.367188 31.460938 19.675781 C 32.15625 20.613281 33.492188 20.953125 35.085938 20.953125 C 36.980469 20.953125 39.230469 20.457031 41.246094 19.855469 C 43.757812 19.121094 45.949219 18.441406 47.34375 18.5625 C 48.0625 18.621094 48.582031 18.902344 48.839844 19.519531 C 48.898438 19.675781 48.917969 19.855469 48.917969 20.035156 C 48.617188 21.492188 46.089844 23.183594 42.859375 25.160156 C 38.773438 27.609375 33.609375 29.824219 31.519531 32.335938 C 31.160156 32.8125 30.941406 33.351562 30.859375 33.910156 C 30.28125 36.378906 32.277344 39.589844 34.589844 42.21875 C 36.800781 44.730469 38.851562 46.863281 38.753906 48.261719 C 38.671875 48.539062 38.472656 48.796875 38.136719 48.996094 C 37.796875 49.214844 37.378906 49.316406 36.917969 49.296875 C 35.085938 49.238281 32.355469 47.5 29.367188 45.289062 C 25.597656 42.519531 22.050781 38.753906 19.199219 37.59375 C 18.941406 37.515625 18.683594 37.457031 18.421875 37.457031 C 16.332031 37.398438 14.496094 39.90625 13.320312 42.359375 C 12.265625 44.632812 11.46875 46.585938 10.570312 46.40625 C 10.390625 46.367188 10.210938 46.246094 10.011719 46.027344 C 9.515625 45.449219 9.355469 44.453125 9.394531 43.175781 C 9.453125 41.921875 9.734375 40.425781 10.09375 38.773438 C 10.769531 35.683594 12.046875 32.316406 12.664062 29.585938 C 12.800781 28.964844 12.921875 28.386719 12.980469 27.828125 "/>
</g>
</svg>
