<?xml version="1.0" encoding="UTF-8"?>
<svg xmlns="http://www.w3.org/2000/svg" xmlns:xlink="http://www.w3.org/1999/xlink" width="56pt" height="56pt" viewBox="0 0 56 56" version="1.1">
<g id="surface1">
<rect x="0" y="0" width="56" height="56" style="fill:rgb(69.146729%,85.421753%,9.707642%);fill-opacity:1;stroke:none;"/>
<path style=" stroke:none;fill-rule:nonzero;fill:rgb(100%,100%,100%);fill-opacity:1;" d="M 25.96875 13.390625 C 21.558594 13.390625 18.695312 13.636719 16.625 14.402344 C 13.144531 15.761719 10.742188 18.601562 10.742188 22.335938 C 10.742188 25.445312 12.191406 27.699219 16.382812 30.289062 C 20.851562 33 21.746094 33.894531 21.746094 35.53125 C 21.746094 37.316406 19.992188 39.351562 15.484375 39.351562 C 13.914062 39.351562 11.542969 39.136719 10.03125 38.765625 L 9.308594 38.582031 C 8.90625 39.664062 7.988281 42.21875 7.710938 43.144531 L 8.425781 43.355469 C 9.789062 43.789062 13.019531 44.128906 15.335938 44.128906 C 23.039062 44.128906 27.636719 39.476562 27.636719 34.601562 C 27.636719 31.605469 26.277344 29.332031 21.679688 26.464844 C 19.375 25.046875 18.203125 24.125 17.488281 23.414062 C 16.910156 22.671875 16.84375 22.117188 16.84375 21.535156 C 16.84375 20.976562 16.96875 20.335938 17.335938 19.863281 C 17.734375 19.28125 18.464844 18.910156 19.453125 18.605469 C 20.464844 18.269531 22.347656 18.257812 25.273438 18.257812 L 28 18.257812 L 29.949219 13.390625 Z M 46.570312 13.390625 L 32.871094 13.390625 L 30.925781 18.257812 L 35.464844 18.257812 C 38.523438 18.257812 39.109375 18.191406 39.875 18.191406 C 38.769531 20.726562 32.09375 37.738281 32.09375 37.738281 L 37.742188 37.738281 C 37.742188 37.738281 46.195312 16.5625 47.089844 14.34375 C 47.339844 13.847656 47.214844 13.390625 46.570312 13.390625 "/>
</g>
</svg>
