<?xml version="1.0" encoding="UTF-8"?>
<svg xmlns="http://www.w3.org/2000/svg" xmlns:xlink="http://www.w3.org/1999/xlink" width="56pt" height="56pt" viewBox="0 0 56 56" version="1.1">
<g id="surface1">
<rect x="0" y="0" width="56" height="56" style="fill:rgb(24.316406%,71.095276%,65.847778%);fill-opacity:1;stroke:none;"/>
<path style=" stroke:none;fill-rule:nonzero;fill:rgb(100%,100%,100%);fill-opacity:1;" d="M 54.441406 29.902344 L 54.441406 29.929688 C 54.441406 31.953125 52.953125 33.203125 50.558594 33.203125 C 49.132812 33.203125 47.714844 32.753906 46.574219 31.929688 C 46.3125 31.742188 46.152344 31.417969 46.152344 31.078125 C 46.152344 30.492188 46.613281 30.035156 47.210938 30.035156 C 47.453125 30.035156 47.660156 30.101562 47.859375 30.242188 C 48.746094 30.894531 49.648438 31.210938 50.613281 31.210938 C 51.605469 31.210938 52.191406 30.824219 52.191406 30.164062 L 52.191406 30.136719 C 52.191406 29.480469 51.722656 29.183594 50.011719 28.746094 C 48.027344 28.242188 46.503906 27.679688 46.503906 25.523438 L 46.503906 25.496094 C 46.503906 23.621094 48.027344 22.320312 50.207031 22.320312 C 51.460938 22.320312 52.585938 22.636719 53.578125 23.261719 C 53.820312 23.40625 54.074219 23.710938 54.074219 24.160156 C 54.074219 24.746094 53.609375 25.203125 53.015625 25.203125 C 52.808594 25.203125 52.636719 25.15625 52.441406 25.039062 C 51.617188 24.554688 50.878906 24.320312 50.179688 24.320312 C 49.320312 24.320312 48.769531 24.699219 48.769531 25.289062 L 48.769531 25.316406 C 48.769531 26.054688 49.265625 26.285156 51.097656 26.753906 C 53.097656 27.261719 54.441406 28 54.441406 29.902344 "/>
<path style=" stroke:none;fill-rule:nonzero;fill:rgb(100%,100%,100%);fill-opacity:1;" d="M 28.53125 22.328125 C 25.683594 22.332031 23.539062 24.683594 23.539062 27.785156 L 23.539062 32.039062 C 23.539062 32.667969 24.050781 33.175781 24.675781 33.175781 C 25.304688 33.175781 25.808594 32.664062 25.808594 32.039062 L 25.808594 27.785156 C 25.808594 25.917969 26.929688 24.601562 28.53125 24.601562 C 30.136719 24.609375 31.257812 25.917969 31.257812 27.785156 L 31.257812 32.039062 C 31.257812 32.667969 31.761719 33.175781 32.390625 33.175781 C 33.019531 33.175781 33.523438 32.664062 33.523438 32.039062 L 33.523438 27.785156 C 33.523438 24.679688 31.378906 22.332031 28.53125 22.328125 "/>
<path style=" stroke:none;fill-rule:nonzero;fill:rgb(100%,100%,100%);fill-opacity:1;" d="M 22.730469 22.375 C 22.171875 22.097656 21.484375 22.328125 21.210938 22.886719 L 18.242188 28.898438 L 15.265625 22.886719 C 14.988281 22.328125 14.304688 22.097656 13.742188 22.375 C 13.183594 22.652344 12.949219 23.335938 13.230469 23.898438 L 16.972656 31.46875 L 15.382812 34.691406 C 15.105469 35.25 15.335938 35.9375 15.902344 36.214844 C 16.0625 36.289062 16.234375 36.332031 16.402344 36.332031 C 16.816406 36.332031 17.222656 36.09375 17.417969 35.695312 L 23.242188 23.898438 C 23.519531 23.335938 23.292969 22.660156 22.730469 22.375 "/>
<path style=" stroke:none;fill-rule:nonzero;fill:rgb(100%,100%,100%);fill-opacity:1;" d="M 5.648438 24.839844 C 5.023438 24.839844 4.511719 25.34375 4.511719 25.972656 C 4.511719 26.601562 5.019531 27.105469 5.648438 27.105469 C 6.269531 27.105469 6.78125 26.601562 6.78125 25.972656 C 6.78125 25.34375 6.269531 24.839844 5.648438 24.839844 "/>
<path style=" stroke:none;fill-rule:nonzero;fill:rgb(100%,100%,100%);fill-opacity:1;" d="M 7.355469 19.703125 C 7.265625 19.703125 7.171875 19.699219 7.082031 19.691406 C 6.921875 19.683594 6.742188 19.667969 6.546875 19.667969 C 3.558594 19.667969 1.71875 21.53125 1.566406 24.671875 C 1.558594 24.71875 1.558594 24.777344 1.558594 24.824219 L 1.558594 32 C 1.558594 32.628906 2.0625 33.132812 2.695312 33.132812 C 3.324219 33.132812 3.828125 32.628906 3.828125 32 L 3.828125 25.109375 C 3.828125 22.269531 5.386719 21.945312 6.546875 21.945312 C 6.671875 21.945312 6.804688 21.953125 6.949219 21.960938 C 7.066406 21.964844 7.175781 21.972656 7.292969 21.980469 C 7.925781 22 8.445312 21.503906 8.464844 20.878906 C 8.476562 20.242188 7.988281 19.722656 7.355469 19.703125 "/>
<path style=" stroke:none;fill-rule:nonzero;fill:rgb(100%,100%,100%);fill-opacity:1;" d="M 10.714844 19.730469 C 10.082031 19.730469 9.578125 20.238281 9.578125 20.867188 L 9.578125 32 C 9.578125 32.628906 10.082031 33.132812 10.714844 33.132812 C 11.34375 33.132812 11.847656 32.628906 11.847656 32 L 11.847656 20.867188 C 11.847656 20.242188 11.335938 19.730469 10.714844 19.730469 "/>
<path style=" stroke:none;fill-rule:nonzero;fill:rgb(100%,100%,100%);fill-opacity:1;" d="M 39.84375 22.328125 C 36.886719 22.332031 34.652344 24.628906 34.597656 27.675781 C 34.597656 27.6875 34.597656 27.710938 34.597656 27.722656 L 34.597656 27.785156 C 34.597656 27.800781 34.597656 27.820312 34.597656 27.835938 C 34.652344 30.894531 36.886719 33.183594 39.84375 33.183594 C 40.292969 33.183594 40.695312 33.148438 40.886719 33.105469 C 41.503906 32.988281 41.910156 32.394531 41.792969 31.777344 C 41.675781 31.160156 41.082031 30.761719 40.472656 30.878906 C 40.421875 30.886719 40.1875 30.914062 39.84375 30.914062 C 38.097656 30.914062 36.875 29.617188 36.859375 27.757812 C 36.875 25.902344 38.097656 24.609375 39.835938 24.601562 C 41.59375 24.609375 42.816406 25.917969 42.816406 27.785156 L 42.816406 32.039062 C 42.816406 32.667969 43.324219 33.175781 43.953125 33.175781 C 44.582031 33.175781 45.085938 32.667969 45.085938 32.039062 L 45.085938 27.785156 C 45.101562 24.679688 42.84375 22.332031 39.84375 22.328125 "/>
</g>
</svg>
