<?xml version="1.0" encoding="UTF-8"?>
<svg xmlns="http://www.w3.org/2000/svg" xmlns:xlink="http://www.w3.org/1999/xlink" width="56pt" height="56pt" viewBox="0 0 56 56" version="1.1">
<g id="surface1">
<rect x="0" y="0" width="56" height="56" style="fill:rgb(32.226562%,76.800537%,93.774414%);fill-opacity:1;stroke:none;"/>
<path style=" stroke:none;fill-rule:nonzero;fill:rgb(100%,100%,100%);fill-opacity:1;" d="M 42.183594 10.925781 L 47.179688 10.925781 L 47.179688 15.917969 L 42.183594 15.917969 Z M 48.832031 17.527344 C 48.832031 14.660156 48.832031 12.019531 48.832031 9.324219 C 46.054688 9.324219 43.40625 9.324219 40.492188 9.324219 C 40.492188 12.050781 40.492188 17.355469 40.492188 17.355469 L 32.199219 17.355469 L 32.199219 9.316406 L 23.796875 9.316406 L 23.796875 17.359375 L 15.542969 17.359375 L 15.542969 9.316406 L 7.261719 9.316406 C 7.261719 9.316406 7.128906 27.242188 7.183594 35.46875 C 7.191406 36.84375 7.414062 38.238281 7.730469 39.578125 C 9.046875 45.109375 14.867188 47.199219 20.109375 46.347656 C 20.109375 44.089844 20.109375 41.816406 20.109375 39.585938 C 16.0625 38.378906 15.542969 37.667969 15.539062 33.453125 L 15.667969 25.355469 L 24.035156 25.355469 C 24.035156 25.355469 23.785156 35.679688 24.394531 39.097656 C 25.351562 44.460938 31.257812 47.765625 36.792969 46.359375 L 36.703125 39.347656 C 33.1875 38.902344 32.34375 37.125 32.203125 34.453125 C 32.0625 31.777344 32.164062 25.398438 32.164062 25.398438 L 40.550781 25.398438 C 40.550781 25.398438 40.550781 39.46875 40.550781 46.515625 C 43.429688 46.515625 48.777344 46.515625 48.777344 46.515625 L 48.777344 25.085938 L 40.78125 25.085938 L 40.78125 17.527344 C 40.78125 17.527344 46.164062 17.527344 48.832031 17.527344 "/>
</g>
</svg>
