<?xml version="1.0" encoding="UTF-8"?>
<svg xmlns="http://www.w3.org/2000/svg" xmlns:xlink="http://www.w3.org/1999/xlink" width="56pt" height="56pt" viewBox="0 0 56 56" version="1.1">
<g id="surface1">
<rect x="0" y="0" width="56" height="56" style="fill:rgb(95.66803%,95.779419%,96.777344%);fill-opacity:1;stroke:none;"/>
<path style=" stroke:none;fill-rule:nonzero;fill:rgb(93.191528%,13.809204%,14.770508%);fill-opacity:1;" d="M 28.855469 49.929688 C 28.742188 49.9375 28.628906 49.949219 28.511719 49.957031 C 28.507812 49.949219 28.507812 49.9375 28.5 49.9375 C 28.230469 49.894531 27.96875 49.957031 27.707031 49.988281 C 27.703125 49.988281 27.699219 50 27.699219 50.007812 C 27.222656 50.007812 26.75 50.007812 26.277344 50.007812 C 26.257812 49.996094 26.238281 49.972656 26.214844 49.96875 C 26.085938 49.953125 25.957031 49.933594 25.828125 49.929688 C 25.75 49.925781 25.664062 49.894531 25.589844 49.957031 C 25.449219 49.949219 25.304688 49.9375 25.160156 49.925781 C 25.109375 49.84375 25.042969 49.886719 24.980469 49.898438 C 24.882812 49.894531 24.785156 49.886719 24.6875 49.882812 C 24.652344 49.808594 24.597656 49.84375 24.550781 49.855469 C 24.085938 49.789062 23.617188 49.734375 23.15625 49.652344 C 22.78125 49.585938 22.40625 49.492188 22.035156 49.402344 C 21.273438 49.210938 20.519531 48.980469 19.777344 48.714844 C 19.203125 48.507812 18.640625 48.277344 18.085938 48.015625 C 17.746094 47.855469 17.414062 47.683594 17.078125 47.519531 C 17.09375 47.5 17.109375 47.484375 17.125 47.46875 C 17.152344 47.46875 17.179688 47.472656 17.207031 47.476562 C 17.234375 47.488281 17.265625 47.5 17.292969 47.515625 C 17.320312 47.570312 17.355469 47.613281 17.425781 47.589844 C 17.441406 47.59375 17.457031 47.59375 17.472656 47.597656 C 17.5 47.613281 17.527344 47.625 17.554688 47.636719 C 17.578125 47.640625 17.605469 47.644531 17.632812 47.648438 C 17.660156 47.664062 17.695312 47.675781 17.722656 47.691406 C 17.851562 47.746094 17.980469 47.808594 18.113281 47.855469 C 18.289062 47.925781 18.46875 47.980469 18.648438 48.042969 C 18.832031 48.109375 19.015625 48.183594 19.203125 48.242188 C 19.570312 48.351562 19.945312 48.449219 20.316406 48.550781 C 20.578125 48.625 20.839844 48.699219 21.105469 48.761719 C 21.359375 48.816406 21.617188 48.855469 21.871094 48.902344 C 21.984375 48.921875 22.09375 48.941406 22.203125 48.960938 C 22.382812 48.996094 22.5625 49.035156 22.742188 49.058594 C 22.9375 49.085938 23.144531 49.066406 23.332031 49.117188 C 23.636719 49.199219 23.949219 49.183594 24.257812 49.226562 C 24.609375 49.273438 24.964844 49.269531 25.320312 49.277344 C 25.890625 49.285156 26.460938 49.289062 27.03125 49.238281 C 27.207031 49.222656 27.390625 49.246094 27.566406 49.230469 C 27.859375 49.199219 28.152344 49.140625 28.445312 49.113281 C 28.742188 49.082031 29.035156 49.070312 29.324219 48.988281 C 29.417969 48.957031 29.519531 48.941406 29.613281 48.9375 C 29.90625 48.933594 30.175781 48.828125 30.460938 48.773438 C 30.679688 48.734375 30.898438 48.6875 31.113281 48.632812 C 31.296875 48.585938 31.472656 48.523438 31.65625 48.46875 C 31.714844 48.449219 31.789062 48.496094 31.832031 48.417969 C 31.859375 48.417969 31.890625 48.421875 31.917969 48.414062 C 32.125 48.347656 32.332031 48.28125 32.535156 48.210938 C 32.742188 48.140625 32.945312 48.066406 33.152344 47.992188 C 33.199219 47.988281 33.261719 48.011719 33.289062 47.945312 L 33.304688 47.945312 L 33.324219 47.941406 C 33.4375 47.929688 33.558594 47.929688 33.628906 47.816406 C 33.757812 47.78125 33.882812 47.746094 34.007812 47.707031 C 34.03125 47.699219 34.042969 47.664062 34.058594 47.644531 C 34.207031 47.625 34.351562 47.59375 34.457031 47.476562 C 34.464844 47.476562 34.476562 47.472656 34.484375 47.46875 C 34.53125 47.464844 34.59375 47.496094 34.617188 47.421875 C 34.683594 47.433594 34.726562 47.40625 34.75 47.34375 L 34.746094 47.34375 C 34.890625 47.320312 35.035156 47.300781 35.132812 47.171875 C 35.269531 47.15625 35.378906 47.089844 35.476562 47 C 35.585938 47.003906 35.675781 46.96875 35.734375 46.871094 C 35.804688 46.851562 35.871094 46.832031 35.941406 46.8125 C 35.945312 46.785156 35.949219 46.765625 35.953125 46.746094 C 36 46.738281 36.054688 46.765625 36.078125 46.699219 C 36.15625 46.683594 36.238281 46.675781 36.261719 46.574219 C 36.273438 46.574219 36.28125 46.574219 36.292969 46.570312 C 36.320312 46.554688 36.351562 46.542969 36.378906 46.523438 L 36.378906 46.527344 C 36.472656 46.519531 36.546875 46.480469 36.601562 46.398438 C 36.621094 46.394531 36.648438 46.394531 36.664062 46.386719 C 37.191406 46.042969 37.722656 45.707031 38.246094 45.359375 C 38.46875 45.210938 38.6875 45.050781 38.902344 44.886719 C 39.167969 44.675781 39.429688 44.457031 39.6875 44.234375 C 40.023438 43.949219 40.359375 43.660156 40.679688 43.359375 C 41.25 42.828125 41.78125 42.257812 42.289062 41.667969 C 42.445312 41.492188 42.59375 41.308594 42.738281 41.125 C 42.992188 40.792969 43.246094 40.464844 43.492188 40.125 C 43.71875 39.808594 43.941406 39.488281 44.148438 39.160156 C 44.34375 38.851562 44.53125 38.53125 44.707031 38.210938 C 44.835938 37.976562 44.949219 37.734375 45.066406 37.496094 C 45.257812 37.105469 45.449219 36.714844 45.605469 36.304688 C 45.726562 35.980469 45.886719 35.675781 46.003906 35.351562 C 46.15625 34.925781 46.285156 34.488281 46.421875 34.054688 C 46.488281 33.839844 46.550781 33.625 46.605469 33.40625 C 46.710938 33 46.808594 32.589844 46.90625 32.179688 C 46.921875 32.105469 46.941406 32.03125 46.953125 31.953125 C 46.992188 31.738281 47.027344 31.527344 47.0625 31.308594 C 47.085938 31.164062 47.109375 31.019531 47.125 30.871094 C 47.148438 30.6875 47.128906 30.492188 47.183594 30.324219 C 47.28125 30.019531 47.246094 29.707031 47.289062 29.398438 C 47.339844 29.046875 47.339844 28.6875 47.339844 28.332031 C 47.335938 27.699219 47.316406 27.0625 47.300781 26.429688 C 47.292969 26.160156 47.269531 25.890625 47.253906 25.621094 C 47.253906 25.613281 47.253906 25.605469 47.253906 25.597656 C 47.144531 25.246094 47.15625 24.875 47.089844 24.511719 C 47.050781 24.285156 46.988281 24.058594 46.953125 23.832031 C 46.933594 23.671875 46.917969 23.515625 46.886719 23.359375 C 46.863281 23.253906 46.820312 23.152344 46.78125 23.050781 C 46.785156 23.039062 46.785156 23.027344 46.78125 23.019531 C 46.78125 22.925781 46.796875 22.832031 46.730469 22.757812 C 46.730469 22.726562 46.738281 22.695312 46.730469 22.671875 C 46.652344 22.402344 46.570312 22.136719 46.488281 21.867188 C 46.414062 21.613281 46.335938 21.359375 46.265625 21.105469 C 46.253906 21.054688 46.238281 21.027344 46.183594 21.035156 C 46.203125 20.90625 46.144531 20.800781 46.09375 20.691406 C 46.066406 20.601562 46.042969 20.507812 46.007812 20.414062 C 45.925781 20.207031 45.835938 20 45.746094 19.789062 C 45.707031 19.683594 45.667969 19.574219 45.621094 19.464844 C 45.601562 19.425781 45.566406 19.394531 45.535156 19.359375 L 45.539062 19.359375 C 45.542969 19.34375 45.542969 19.332031 45.535156 19.316406 C 45.511719 19.230469 45.515625 19.128906 45.410156 19.085938 C 45.40625 19.066406 45.40625 19.046875 45.40625 19.027344 C 45.390625 19.007812 45.378906 18.988281 45.363281 18.972656 C 45.371094 18.859375 45.324219 18.773438 45.238281 18.707031 C 45.230469 18.664062 45.226562 18.621094 45.207031 18.585938 C 45.03125 18.242188 44.851562 17.902344 44.671875 17.5625 C 44.65625 17.539062 44.621094 17.527344 44.59375 17.507812 L 44.59375 17.511719 C 44.578125 17.480469 44.5625 17.453125 44.546875 17.425781 C 44.519531 17.378906 44.492188 17.332031 44.464844 17.285156 C 44.347656 17.09375 44.242188 16.894531 44.117188 16.707031 C 43.910156 16.378906 43.707031 16.046875 43.472656 15.738281 C 43.1875 15.355469 42.914062 14.96875 42.589844 14.617188 C 42.320312 14.324219 42.070312 14.011719 41.804688 13.71875 C 41.625 13.523438 41.4375 13.335938 41.246094 13.152344 C 40.9375 12.855469 40.628906 12.558594 40.308594 12.269531 C 40.09375 12.078125 39.863281 11.898438 39.636719 11.71875 C 39.410156 11.539062 39.179688 11.355469 38.945312 11.191406 C 38.429688 10.824219 37.890625 10.5 37.347656 10.183594 C 36.902344 9.925781 36.449219 9.683594 35.992188 9.453125 C 35.671875 9.289062 35.34375 9.148438 35.011719 9.003906 C 34.730469 8.882812 34.441406 8.765625 34.152344 8.65625 C 33.65625 8.464844 33.15625 8.28125 32.644531 8.136719 C 32.367188 8.054688 32.09375 7.964844 31.820312 7.886719 C 31.652344 7.839844 31.480469 7.796875 31.308594 7.757812 C 31.007812 7.691406 30.707031 7.625 30.40625 7.558594 C 30.300781 7.539062 30.199219 7.527344 30.09375 7.507812 C 29.90625 7.476562 29.71875 7.441406 29.53125 7.410156 C 29.371094 7.386719 29.210938 7.382812 29.050781 7.351562 C 28.730469 7.285156 28.410156 7.234375 28.082031 7.238281 C 28.070312 7.222656 28.054688 7.203125 28.039062 7.199219 C 27.769531 7.148438 27.496094 7.148438 27.222656 7.160156 C 27.179688 7.160156 27.136719 7.160156 27.09375 7.160156 C 27.066406 7.144531 27.039062 7.113281 27.011719 7.113281 C 26.351562 7.113281 25.691406 7.113281 25.027344 7.113281 C 25 7.117188 24.972656 7.144531 24.949219 7.160156 C 24.917969 7.160156 24.890625 7.160156 24.859375 7.160156 C 24.667969 7.160156 24.476562 7.152344 24.285156 7.160156 C 24.214844 7.164062 24.148438 7.207031 24.078125 7.234375 C 24.050781 7.234375 24.027344 7.234375 24 7.234375 C 23.992188 7.226562 23.980469 7.207031 23.976562 7.207031 C 23.738281 7.234375 23.503906 7.261719 23.269531 7.289062 C 23.15625 7.277344 23.050781 7.273438 22.960938 7.359375 C 22.933594 7.363281 22.910156 7.363281 22.882812 7.363281 C 22.796875 7.363281 22.710938 7.363281 22.625 7.367188 C 22.59375 7.371094 22.566406 7.394531 22.539062 7.410156 C 22.285156 7.402344 22.050781 7.492188 21.808594 7.535156 C 21.722656 7.554688 21.625 7.492188 21.550781 7.582031 C 21.363281 7.554688 21.199219 7.660156 21.015625 7.683594 C 20.761719 7.714844 20.515625 7.792969 20.269531 7.875 C 20.21875 7.894531 20.15625 7.882812 20.101562 7.898438 C 19.832031 7.976562 19.566406 8.054688 19.296875 8.140625 C 19.035156 8.21875 18.773438 8.296875 18.519531 8.394531 C 18.058594 8.5625 17.601562 8.742188 17.144531 8.921875 C 16.917969 9.011719 16.691406 9.109375 16.46875 9.21875 C 16.101562 9.394531 15.734375 9.574219 15.378906 9.769531 C 14.859375 10.050781 14.335938 10.335938 13.835938 10.648438 C 13.351562 10.949219 12.886719 11.289062 12.417969 11.613281 C 12.25 11.730469 12.085938 11.855469 11.921875 11.976562 C 11.910156 11.988281 11.898438 12 11.886719 12.011719 L 11.882812 12.015625 C 11.648438 12.199219 11.40625 12.371094 11.183594 12.5625 C 10.9375 12.773438 10.703125 13 10.460938 13.21875 C 10.316406 13.359375 10.171875 13.5 10.03125 13.644531 C 10.015625 13.65625 10 13.671875 9.988281 13.6875 L 9.984375 13.683594 C 9.972656 13.699219 9.957031 13.714844 9.945312 13.726562 L 9.941406 13.726562 C 9.878906 13.722656 9.851562 13.75 9.855469 13.8125 C 9.839844 13.828125 9.828125 13.839844 9.8125 13.855469 C 9.796875 13.871094 9.785156 13.882812 9.769531 13.898438 C 9.742188 13.902344 9.714844 13.90625 9.6875 13.910156 C 9.683594 13.890625 9.679688 13.867188 9.675781 13.847656 C 9.800781 13.679688 9.917969 13.511719 10.050781 13.351562 C 10.53125 12.769531 11.039062 12.207031 11.589844 11.683594 C 12.113281 11.1875 12.65625 10.71875 13.230469 10.277344 C 13.785156 9.855469 14.355469 9.457031 14.953125 9.09375 C 15.707031 8.632812 16.480469 8.222656 17.289062 7.863281 C 17.769531 7.648438 18.253906 7.449219 18.75 7.277344 C 19.25 7.097656 19.753906 6.929688 20.265625 6.792969 C 20.894531 6.625 21.53125 6.472656 22.167969 6.351562 C 22.65625 6.257812 23.148438 6.167969 23.644531 6.148438 C 23.695312 6.15625 23.75 6.191406 23.785156 6.121094 C 23.894531 6.113281 24.007812 6.105469 24.117188 6.101562 C 24.167969 6.113281 24.222656 6.148438 24.257812 6.078125 C 24.417969 6.066406 24.574219 6.054688 24.730469 6.042969 C 24.734375 6.050781 24.738281 6.0625 24.742188 6.0625 C 25.011719 6.101562 25.273438 6.027344 25.539062 6.011719 C 25.542969 6.011719 25.542969 5.996094 25.546875 5.992188 C 25.976562 5.992188 26.40625 5.992188 26.835938 5.992188 C 26.851562 6.003906 26.863281 6.03125 26.878906 6.03125 C 26.988281 6.046875 27.097656 6.074219 27.207031 6.070312 C 27.355469 6.066406 27.507812 6.117188 27.652344 6.042969 C 27.8125 6.050781 27.96875 6.0625 28.125 6.074219 C 28.164062 6.140625 28.207031 6.136719 28.253906 6.085938 C 28.386719 6.097656 28.515625 6.109375 28.644531 6.121094 C 28.667969 6.167969 28.695312 6.183594 28.726562 6.128906 C 29.207031 6.179688 29.683594 6.25 30.160156 6.332031 C 31.019531 6.480469 31.867188 6.675781 32.707031 6.925781 C 33.175781 7.066406 33.640625 7.21875 34.097656 7.382812 C 34.839844 7.652344 35.566406 7.960938 36.277344 8.304688 C 37.140625 8.722656 37.976562 9.191406 38.78125 9.714844 C 39.441406 10.140625 40.078125 10.597656 40.675781 11.101562 C 41.082031 11.445312 41.472656 11.800781 41.847656 12.171875 C 42.277344 12.59375 42.695312 13.023438 43.09375 13.472656 C 43.527344 13.957031 43.921875 14.46875 44.304688 14.996094 C 44.847656 15.746094 45.339844 16.527344 45.78125 17.339844 C 46.226562 18.15625 46.621094 19.003906 46.949219 19.875 C 47.09375 20.253906 47.242188 20.628906 47.363281 21.015625 C 47.523438 21.542969 47.667969 22.078125 47.804688 22.613281 C 47.953125 23.203125 48.070312 23.804688 48.160156 24.40625 C 48.226562 24.878906 48.289062 25.351562 48.335938 25.824219 C 48.433594 26.800781 48.441406 27.78125 48.410156 28.757812 C 48.390625 29.363281 48.355469 29.96875 48.253906 30.566406 C 48.183594 30.996094 48.136719 31.425781 48.066406 31.855469 C 48.019531 32.148438 47.960938 32.441406 47.890625 32.730469 C 47.703125 33.53125 47.484375 34.324219 47.214844 35.101562 C 46.925781 35.925781 46.597656 36.734375 46.214844 37.519531 C 45.890625 38.183594 45.554688 38.84375 45.152344 39.464844 C 44.738281 40.097656 44.289062 40.703125 43.824219 41.296875 C 43.339844 41.925781 42.820312 42.523438 42.28125 43.105469 C 41.773438 43.65625 41.226562 44.171875 40.667969 44.675781 C 40.175781 45.121094 39.660156 45.539062 39.132812 45.941406 C 38.453125 46.449219 37.742188 46.910156 37.007812 47.335938 C 36.484375 47.636719 35.949219 47.914062 35.402344 48.171875 C 34.796875 48.457031 34.179688 48.703125 33.546875 48.925781 C 32.871094 49.164062 32.179688 49.347656 31.488281 49.523438 C 31.417969 49.542969 31.34375 49.539062 31.277344 49.546875 C 31.234375 49.535156 31.195312 49.523438 31.179688 49.582031 C 31.140625 49.585938 31.101562 49.589844 31.0625 49.59375 C 31 49.578125 30.9375 49.554688 30.910156 49.644531 C 30.871094 49.648438 30.832031 49.652344 30.792969 49.65625 C 30.753906 49.601562 30.726562 49.617188 30.707031 49.671875 C 30.59375 49.6875 30.484375 49.707031 30.375 49.722656 C 30.324219 49.714844 30.265625 49.675781 30.234375 49.757812 C 30.179688 49.761719 30.128906 49.765625 30.074219 49.769531 C 30.015625 49.75 29.953125 49.722656 29.921875 49.816406 C 29.785156 49.828125 29.652344 49.839844 29.515625 49.851562 C 29.449219 49.84375 29.378906 49.800781 29.332031 49.882812 C 29.25 49.886719 29.167969 49.890625 29.085938 49.894531 C 29.007812 49.890625 28.921875 49.839844 28.855469 49.929688 "/>
<path style=" stroke:none;fill-rule:nonzero;fill:rgb(73.171997%,54.998779%,10.83374%);fill-opacity:1;" d="M 15.273438 17.9375 C 15.5625 17.796875 15.851562 17.644531 16.148438 17.515625 C 16.445312 17.386719 16.753906 17.277344 17.058594 17.160156 C 17.59375 16.960938 18.152344 16.832031 18.710938 16.707031 C 19.019531 16.636719 19.339844 16.613281 19.65625 16.5625 C 20.007812 16.507812 20.359375 16.476562 20.71875 16.472656 C 21.074219 16.46875 21.429688 16.441406 21.785156 16.449219 C 22.085938 16.453125 22.382812 16.492188 22.679688 16.515625 C 22.863281 16.53125 23.046875 16.542969 23.230469 16.570312 C 23.460938 16.597656 23.691406 16.644531 23.921875 16.679688 C 24.425781 16.757812 24.914062 16.902344 25.402344 17.042969 C 25.679688 17.121094 25.957031 17.214844 26.226562 17.320312 C 26.589844 17.464844 26.945312 17.621094 27.300781 17.78125 C 27.75 17.988281 28.183594 18.230469 28.605469 18.492188 C 29.214844 18.863281 29.785156 19.28125 30.324219 19.746094 C 30.746094 20.113281 31.148438 20.5 31.53125 20.90625 C 32.136719 21.550781 32.683594 22.242188 33.160156 22.988281 C 33.363281 23.304688 33.558594 23.628906 33.757812 23.949219 C 33.769531 23.96875 33.785156 23.988281 33.824219 24.035156 C 33.832031 23.96875 33.84375 23.933594 33.835938 23.902344 C 33.679688 23.398438 33.535156 22.886719 33.363281 22.386719 C 33.117188 21.660156 32.816406 20.957031 32.453125 20.28125 C 32.039062 19.511719 31.570312 18.773438 31.015625 18.09375 C 30.695312 17.699219 30.363281 17.320312 30 16.964844 C 29.484375 16.460938 28.9375 15.996094 28.347656 15.578125 C 27.601562 15.050781 26.816406 14.597656 25.992188 14.210938 C 25.160156 13.816406 24.296875 13.503906 23.417969 13.226562 C 23.175781 13.152344 22.925781 13.101562 22.679688 13.035156 C 22.605469 13.015625 22.539062 12.972656 22.472656 12.914062 C 22.648438 12.925781 22.824219 12.9375 23 12.945312 C 23.132812 12.953125 23.269531 12.953125 23.40625 12.953125 C 23.769531 12.953125 24.132812 12.980469 24.492188 13.03125 C 24.675781 13.058594 24.859375 13.0625 25.042969 13.085938 C 25.289062 13.113281 25.535156 13.140625 25.78125 13.183594 C 26.152344 13.246094 26.519531 13.316406 26.886719 13.390625 C 27.128906 13.441406 27.367188 13.496094 27.605469 13.5625 C 27.988281 13.671875 28.367188 13.78125 28.742188 13.902344 C 29.773438 14.230469 30.761719 14.652344 31.714844 15.15625 C 32.65625 15.65625 33.550781 16.238281 34.386719 16.90625 C 34.949219 17.355469 35.492188 17.832031 35.988281 18.355469 C 36.371094 18.757812 36.730469 19.179688 37.074219 19.621094 C 37.492188 20.152344 37.863281 20.714844 38.203125 21.296875 C 38.492188 21.792969 38.75 22.304688 38.980469 22.832031 C 39.175781 23.277344 39.355469 23.730469 39.511719 24.195312 C 39.671875 24.683594 39.800781 25.183594 39.921875 25.683594 C 40.011719 26.058594 40.078125 26.433594 40.148438 26.808594 C 40.226562 27.203125 40.253906 27.609375 40.292969 28.011719 C 40.316406 28.253906 40.3125 28.496094 40.34375 28.734375 C 40.40625 29.265625 40.378906 29.792969 40.375 30.320312 C 40.371094 30.707031 40.355469 31.089844 40.328125 31.472656 C 40.296875 31.886719 40.265625 32.296875 40.195312 32.703125 C 40.136719 33.027344 40.027344 33.34375 39.929688 33.664062 C 39.722656 34.359375 39.476562 35.046875 39.210938 35.722656 C 39.019531 36.210938 38.804688 36.6875 38.585938 37.164062 C 38.40625 37.546875 38.214844 37.929688 38.015625 38.300781 C 37.652344 38.972656 37.257812 39.621094 36.808594 40.234375 C 36.546875 40.589844 36.289062 40.953125 36 41.28125 C 35.640625 41.695312 35.253906 42.09375 34.863281 42.476562 C 34.105469 43.21875 33.261719 43.84375 32.34375 44.375 C 31.695312 44.753906 31.015625 45.070312 30.3125 45.335938 C 29.835938 45.515625 29.351562 45.664062 28.863281 45.804688 C 28.289062 45.972656 27.710938 46.085938 27.121094 46.183594 C 26.652344 46.257812 26.183594 46.332031 25.710938 46.355469 C 25.453125 46.371094 25.195312 46.378906 24.941406 46.40625 C 24.207031 46.476562 23.46875 46.4375 22.734375 46.433594 C 22.425781 46.433594 22.121094 46.414062 21.816406 46.390625 C 21.363281 46.355469 20.910156 46.320312 20.457031 46.265625 C 19.972656 46.207031 19.492188 46.128906 19.007812 46.058594 C 18.691406 46.011719 18.371094 45.980469 18.0625 45.917969 C 17.625 45.832031 17.1875 45.757812 16.753906 45.644531 C 16.304688 45.523438 15.859375 45.394531 15.417969 45.242188 C 14.441406 44.90625 13.515625 44.46875 12.636719 43.921875 C 11.992188 43.523438 11.382812 43.082031 10.839844 42.550781 C 10.546875 42.261719 10.25 41.972656 9.972656 41.667969 C 9.574219 41.21875 9.226562 40.734375 8.921875 40.21875 C 8.539062 39.570312 8.226562 38.890625 8 38.167969 C 7.859375 37.730469 7.765625 37.28125 7.675781 36.832031 C 7.632812 36.617188 7.648438 36.390625 7.613281 36.171875 C 7.5625 35.851562 7.574219 35.53125 7.582031 35.210938 C 7.59375 34.6875 7.664062 34.167969 7.777344 33.652344 C 7.9375 32.910156 8.214844 32.21875 8.578125 31.554688 C 8.777344 31.1875 9.023438 30.84375 9.296875 30.523438 C 9.511719 30.269531 9.742188 30.023438 9.988281 29.792969 C 10.394531 29.410156 10.855469 29.113281 11.394531 28.9375 C 11.804688 28.808594 12.214844 28.675781 12.605469 28.484375 C 13.152344 28.210938 13.585938 27.835938 13.867188 27.289062 C 14.070312 26.894531 14.132812 26.46875 14.058594 26.042969 C 13.972656 25.542969 13.691406 25.148438 13.09375 24.992188 C 12.527344 24.84375 11.960938 24.699219 11.402344 24.515625 C 10.972656 24.378906 10.542969 24.234375 10.132812 24.042969 C 9.765625 23.871094 9.414062 23.667969 9.109375 23.398438 C 8.972656 23.277344 8.847656 23.140625 8.761719 22.953125 C 8.828125 22.941406 8.875 22.929688 8.917969 22.929688 C 9.390625 22.910156 9.863281 22.898438 10.332031 22.878906 C 10.675781 22.867188 11.015625 22.851562 11.359375 22.835938 C 11.621094 22.824219 11.886719 22.824219 12.148438 22.792969 C 12.570312 22.738281 12.984375 22.660156 13.332031 22.375 C 13.457031 22.273438 13.558594 22.160156 13.640625 22.027344 C 13.816406 21.753906 14.011719 21.503906 14.28125 21.3125 C 14.699219 21.019531 15.15625 20.929688 15.65625 21.03125 C 15.914062 21.082031 16.175781 21.09375 16.441406 21.085938 C 16.738281 21.074219 16.980469 20.96875 17.140625 20.703125 C 17.148438 20.6875 17.167969 20.671875 17.183594 20.660156 C 17.1875 20.65625 17.195312 20.65625 17.210938 20.648438 C 17.425781 20.804688 17.542969 21.042969 17.699219 21.246094 C 18.203125 21.070312 18.589844 20.761719 18.875 20.300781 C 19.0625 20.449219 19.101562 20.679688 19.210938 20.878906 C 19.707031 20.613281 20.128906 20.269531 20.511719 19.863281 C 20.714844 20.265625 20.625 20.691406 20.21875 21.296875 C 20.371094 21.570312 20.304688 21.84375 20.191406 22.109375 C 20.164062 22.175781 20.136719 22.246094 20.09375 22.300781 C 19.921875 22.519531 19.851562 22.773438 19.796875 23.039062 C 19.738281 23.351562 19.554688 23.578125 19.296875 23.75 C 19.082031 23.890625 18.875 24.042969 18.753906 24.28125 C 18.71875 24.347656 18.695312 24.421875 18.667969 24.496094 C 18.589844 24.722656 18.511719 24.949219 18.429688 25.171875 C 18.339844 25.417969 18.34375 25.667969 18.378906 25.914062 C 18.402344 26.089844 18.5 26.246094 18.621094 26.382812 C 18.800781 26.589844 19.027344 26.734375 19.265625 26.859375 C 19.246094 27.222656 18.851562 27.636719 18.210938 27.972656 C 18.144531 28.691406 18.410156 29.09375 19.207031 29.46875 C 19.128906 29.585938 19.066406 29.714844 18.96875 29.816406 C 18.84375 29.949219 18.707031 30.074219 18.558594 30.183594 C 18.359375 30.332031 18.191406 30.496094 18.097656 30.730469 C 17.984375 31.023438 18.09375 31.316406 18.375 31.484375 C 18.585938 31.605469 18.820312 31.628906 19.050781 31.652344 C 19.105469 31.660156 19.160156 31.660156 19.238281 31.664062 C 19.019531 32.050781 18.707031 32.332031 18.398438 32.628906 C 18.453125 32.863281 18.5 33.097656 18.5625 33.328125 C 18.675781 33.746094 18.800781 34.15625 18.960938 34.558594 C 19.207031 35.160156 19.507812 35.722656 19.914062 36.234375 C 20.238281 36.640625 20.621094 36.976562 21.0625 37.246094 C 21.347656 37.417969 21.65625 37.539062 21.980469 37.636719 C 22.519531 37.792969 23.070312 37.828125 23.628906 37.796875 C 24.058594 37.773438 24.484375 37.699219 24.90625 37.605469 C 25.464844 37.488281 26 37.316406 26.527344 37.105469 C 26.992188 36.917969 27.441406 36.6875 27.871094 36.425781 C 28.519531 36.03125 29.113281 35.566406 29.636719 35.019531 C 30.152344 34.480469 30.585938 33.882812 30.921875 33.21875 C 31.121094 32.820312 31.273438 32.402344 31.414062 31.976562 C 31.527344 31.632812 31.605469 31.28125 31.683594 30.933594 C 31.742188 30.675781 31.761719 30.414062 31.78125 30.152344 C 31.816406 29.761719 31.867188 29.371094 31.851562 28.980469 C 31.835938 28.535156 31.84375 28.085938 31.75 27.644531 C 31.683594 27.339844 31.664062 27.027344 31.605469 26.722656 C 31.453125 25.949219 31.214844 25.203125 30.914062 24.472656 C 30.710938 23.984375 30.472656 23.507812 30.210938 23.042969 C 29.902344 22.492188 29.546875 21.96875 29.15625 21.46875 C 28.777344 20.976562 28.355469 20.519531 27.894531 20.101562 C 27.347656 19.609375 26.757812 19.175781 26.121094 18.808594 C 25.613281 18.515625 25.082031 18.265625 24.527344 18.0625 C 24.0625 17.886719 23.59375 17.738281 23.109375 17.628906 C 22.835938 17.566406 22.558594 17.511719 22.277344 17.46875 C 21.871094 17.40625 21.464844 17.355469 21.058594 17.300781 C 21.023438 17.296875 20.984375 17.296875 20.949219 17.296875 C 20.347656 17.296875 19.746094 17.285156 19.144531 17.304688 C 18.820312 17.3125 18.496094 17.371094 18.171875 17.414062 C 17.941406 17.441406 17.710938 17.46875 17.480469 17.511719 C 17.105469 17.582031 16.730469 17.65625 16.359375 17.742188 C 16.070312 17.808594 15.785156 17.898438 15.5 17.976562 C 15.445312 17.992188 15.386719 17.992188 15.332031 18 C 15.3125 17.976562 15.292969 17.957031 15.273438 17.9375 "/>
<path style=" stroke:none;fill-rule:nonzero;fill:rgb(20.542908%,64.286804%,24.465942%);fill-opacity:1;" d="M 10.460938 13.476562 C 10.425781 13.488281 10.390625 13.503906 10.355469 13.519531 C 10.363281 13.480469 10.367188 13.4375 10.371094 13.414062 C 10.425781 13.351562 10.464844 13.304688 10.507812 13.257812 C 10.53125 13.25 10.5625 13.242188 10.585938 13.226562 C 10.949219 12.9375 11.316406 12.644531 11.679688 12.351562 C 11.738281 12.304688 11.789062 12.246094 11.839844 12.195312 C 11.871094 12.179688 11.90625 12.167969 11.933594 12.148438 C 12.1875 11.976562 12.433594 11.792969 12.6875 11.628906 C 12.957031 11.453125 13.230469 11.289062 13.503906 11.128906 C 13.863281 10.917969 14.222656 10.699219 14.589844 10.507812 C 15.054688 10.265625 15.53125 10.039062 16.007812 9.820312 C 16.378906 9.648438 16.757812 9.492188 17.140625 9.351562 C 17.535156 9.203125 17.945312 9.089844 18.34375 8.945312 C 18.828125 8.765625 19.328125 8.652344 19.824219 8.527344 C 20.207031 8.433594 20.59375 8.351562 20.980469 8.273438 C 21.167969 8.234375 21.355469 8.210938 21.546875 8.179688 C 21.683594 8.15625 21.824219 8.128906 21.960938 8.109375 C 22.230469 8.074219 22.496094 8.039062 22.761719 8.011719 C 22.96875 7.992188 23.171875 7.980469 23.378906 7.964844 C 23.710938 7.9375 24.042969 7.894531 24.375 7.890625 C 25.132812 7.878906 25.890625 7.863281 26.648438 7.925781 C 26.84375 7.945312 27.042969 7.953125 27.242188 7.972656 C 27.574219 8.011719 27.902344 8.050781 28.230469 8.097656 C 28.601562 8.152344 28.972656 8.203125 29.339844 8.273438 C 29.757812 8.351562 30.171875 8.429688 30.582031 8.539062 C 31.089844 8.671875 31.597656 8.828125 32.097656 8.992188 C 32.773438 9.21875 33.441406 9.46875 34.085938 9.769531 C 34.34375 9.890625 34.601562 10.003906 34.851562 10.132812 C 35.109375 10.261719 35.363281 10.402344 35.613281 10.550781 C 35.988281 10.769531 36.363281 10.980469 36.71875 11.222656 C 37.195312 11.550781 37.648438 11.902344 38.105469 12.246094 C 38.546875 12.578125 38.957031 12.941406 39.347656 13.328125 C 39.753906 13.730469 40.152344 14.140625 40.539062 14.5625 C 40.792969 14.839844 41.039062 15.128906 41.265625 15.429688 C 41.726562 16.039062 42.167969 16.667969 42.574219 17.316406 C 42.960938 17.9375 43.304688 18.578125 43.617188 19.234375 C 43.890625 19.808594 44.136719 20.394531 44.355469 20.992188 C 44.613281 21.6875 44.839844 22.390625 45.015625 23.109375 C 45.160156 23.6875 45.292969 24.261719 45.371094 24.851562 C 45.429688 25.277344 45.527344 25.699219 45.539062 26.132812 C 45.546875 26.308594 45.570312 26.488281 45.585938 26.664062 C 45.609375 26.9375 45.652344 27.214844 45.65625 27.488281 C 45.664062 28.179688 45.683594 28.875 45.621094 29.566406 C 45.601562 29.792969 45.597656 30.023438 45.574219 30.246094 C 45.539062 30.578125 45.492188 30.90625 45.449219 31.234375 C 45.417969 31.46875 45.398438 31.703125 45.351562 31.929688 C 45.28125 32.289062 45.183594 32.644531 45.113281 33 C 45.015625 33.5 44.875 33.984375 44.726562 34.472656 C 44.589844 34.929688 44.4375 35.386719 44.261719 35.832031 C 44.101562 36.230469 43.941406 36.632812 43.773438 37.027344 C 43.675781 37.253906 43.574219 37.480469 43.457031 37.695312 C 43.273438 38.03125 43.078125 38.359375 42.871094 38.683594 C 42.589844 39.132812 42.308594 39.585938 42 40.019531 C 41.636719 40.527344 41.261719 41.027344 40.839844 41.492188 C 40.484375 41.882812 40.140625 42.28125 39.773438 42.65625 C 39.449219 42.984375 39.109375 43.296875 38.765625 43.601562 C 38.402344 43.921875 38.035156 44.242188 37.648438 44.53125 C 37.199219 44.871094 36.726562 45.191406 36.257812 45.507812 C 35.738281 45.855469 35.195312 46.160156 34.640625 46.445312 C 33.9375 46.8125 33.214844 47.132812 32.472656 47.414062 C 31.789062 47.667969 31.101562 47.890625 30.398438 48.074219 C 29.761719 48.238281 29.121094 48.375 28.472656 48.476562 C 28.125 48.53125 27.773438 48.574219 27.425781 48.628906 C 27.148438 48.667969 26.863281 48.691406 26.582031 48.710938 C 26.289062 48.734375 25.996094 48.746094 25.707031 48.757812 C 25 48.789062 24.292969 48.726562 23.585938 48.714844 C 23.5625 48.714844 23.542969 48.714844 23.519531 48.710938 C 23.296875 48.6875 23.070312 48.660156 22.847656 48.636719 C 22.648438 48.617188 22.449219 48.613281 22.253906 48.582031 C 21.9375 48.539062 21.628906 48.476562 21.316406 48.421875 C 20.960938 48.359375 20.601562 48.320312 20.25 48.234375 C 19.59375 48.078125 18.9375 47.917969 18.292969 47.714844 C 18.136719 47.667969 17.976562 47.636719 17.820312 47.59375 C 17.777344 47.527344 17.714844 47.507812 17.640625 47.519531 C 17.59375 47.503906 17.550781 47.488281 17.507812 47.472656 C 17.46875 47.457031 17.425781 47.441406 17.382812 47.425781 C 17.121094 47.328125 16.863281 47.230469 16.605469 47.132812 C 16.636719 47.105469 16.664062 47.078125 16.695312 47.054688 C 16.722656 47.0625 16.753906 47.074219 16.78125 47.082031 C 16.800781 47.09375 16.816406 47.101562 16.835938 47.113281 C 16.875 47.117188 16.914062 47.121094 16.949219 47.125 C 16.96875 47.183594 17.007812 47.171875 17.050781 47.160156 C 17.132812 47.179688 17.21875 47.191406 17.296875 47.21875 C 17.871094 47.417969 18.457031 47.566406 19.042969 47.722656 C 19.117188 47.742188 19.195312 47.757812 19.269531 47.773438 C 19.359375 47.851562 19.46875 47.800781 19.570312 47.820312 C 19.773438 47.925781 20 47.941406 20.21875 47.980469 C 20.550781 48.039062 20.890625 48.078125 21.226562 48.121094 C 21.375 48.140625 21.527344 48.144531 21.671875 48.167969 C 22.148438 48.257812 22.632812 48.273438 23.117188 48.28125 C 23.75 48.292969 24.386719 48.3125 25.023438 48.246094 C 25.199219 48.226562 25.378906 48.21875 25.554688 48.203125 C 25.667969 48.195312 25.78125 48.175781 25.890625 48.164062 C 26.195312 48.125 26.5 48.097656 26.800781 48.050781 C 27.128906 47.996094 27.453125 47.917969 27.777344 47.863281 C 28.15625 47.800781 28.523438 47.699219 28.890625 47.601562 C 29.15625 47.53125 29.421875 47.457031 29.6875 47.378906 C 29.941406 47.300781 30.195312 47.210938 30.449219 47.125 C 30.664062 47.042969 30.882812 46.957031 31.097656 46.871094 C 31.378906 46.757812 31.660156 46.652344 31.9375 46.523438 C 32.34375 46.332031 32.75 46.128906 33.152344 45.925781 C 33.730469 45.636719 34.285156 45.304688 34.824219 44.949219 C 35.363281 44.589844 35.886719 44.210938 36.390625 43.804688 C 36.992188 43.324219 37.566406 42.8125 38.109375 42.269531 C 38.515625 41.859375 38.894531 41.421875 39.273438 40.988281 C 39.679688 40.519531 40.058594 40.03125 40.402344 39.511719 C 40.695312 39.070312 40.988281 38.625 41.261719 38.167969 C 41.492188 37.777344 41.707031 37.375 41.902344 36.96875 C 42.109375 36.535156 42.304688 36.09375 42.476562 35.648438 C 42.667969 35.160156 42.832031 34.664062 42.996094 34.167969 C 43.089844 33.886719 43.152344 33.597656 43.226562 33.3125 C 43.308594 33.011719 43.394531 32.714844 43.464844 32.410156 C 43.511719 32.207031 43.527344 31.992188 43.566406 31.78125 C 43.621094 31.449219 43.652344 31.105469 43.707031 30.773438 C 43.757812 30.464844 43.777344 30.152344 43.800781 29.84375 C 43.839844 29.378906 43.828125 28.90625 43.824219 28.433594 C 43.820312 27.886719 43.828125 27.335938 43.769531 26.785156 C 43.738281 26.488281 43.734375 26.1875 43.675781 25.898438 C 43.570312 25.363281 43.429688 24.839844 43.300781 24.3125 C 43.226562 24.023438 43.152344 23.738281 43.054688 23.457031 C 42.917969 23.054688 42.820312 22.640625 42.667969 22.246094 C 42.453125 21.679688 42.234375 21.113281 41.980469 20.5625 C 41.644531 19.828125 41.277344 19.113281 40.859375 18.417969 C 40.613281 18.011719 40.355469 17.613281 40.085938 17.222656 C 39.554688 16.449219 38.964844 15.730469 38.324219 15.054688 C 37.78125 14.480469 37.214844 13.941406 36.59375 13.453125 C 36.210938 13.148438 35.820312 12.847656 35.417969 12.566406 C 35.0625 12.320312 34.695312 12.089844 34.324219 11.867188 C 33.90625 11.617188 33.480469 11.375 33.035156 11.171875 C 32.65625 10.996094 32.285156 10.804688 31.890625 10.660156 C 31.546875 10.535156 31.214844 10.382812 30.871094 10.257812 C 30.605469 10.160156 30.332031 10.089844 30.058594 10.011719 C 29.640625 9.890625 29.21875 9.761719 28.796875 9.65625 C 28.46875 9.578125 28.128906 9.53125 27.796875 9.46875 C 27.671875 9.449219 27.546875 9.414062 27.421875 9.402344 C 27.167969 9.378906 26.921875 9.289062 26.664062 9.300781 C 26.640625 9.289062 26.621094 9.265625 26.597656 9.265625 C 26.414062 9.246094 26.230469 9.246094 26.050781 9.207031 C 25.9375 9.179688 25.832031 9.175781 25.71875 9.191406 C 25.664062 9.1875 25.605469 9.1875 25.550781 9.183594 C 25.464844 9.167969 25.378906 9.144531 25.289062 9.140625 C 25.207031 9.136719 25.113281 9.097656 25.035156 9.164062 C 24.511719 9.152344 23.992188 9.121094 23.472656 9.136719 C 22.929688 9.152344 22.386719 9.160156 21.851562 9.246094 C 21.683594 9.269531 21.511719 9.277344 21.34375 9.296875 C 21.085938 9.324219 20.832031 9.347656 20.578125 9.386719 C 20.277344 9.433594 19.980469 9.496094 19.679688 9.546875 C 18.929688 9.679688 18.195312 9.867188 17.464844 10.078125 C 16.695312 10.300781 15.9375 10.5625 15.199219 10.871094 C 14.183594 11.292969 13.1875 11.769531 12.242188 12.335938 C 11.671875 12.675781 11.117188 13.035156 10.574219 13.414062 C 10.558594 13.425781 10.535156 13.425781 10.515625 13.433594 C 10.496094 13.449219 10.480469 13.460938 10.460938 13.476562 "/>
<path style=" stroke:none;fill-rule:nonzero;fill:rgb(24.113464%,30.540466%,66.343689%);fill-opacity:1;" d="M 25.550781 9.183594 C 25.605469 9.1875 25.664062 9.1875 25.71875 9.191406 C 25.777344 9.210938 25.832031 9.25 25.890625 9.253906 C 26.148438 9.277344 26.40625 9.289062 26.664062 9.300781 C 26.921875 9.289062 27.167969 9.378906 27.421875 9.402344 C 27.546875 9.414062 27.671875 9.449219 27.796875 9.46875 C 28.128906 9.53125 28.46875 9.578125 28.796875 9.65625 C 29.21875 9.761719 29.640625 9.890625 30.058594 10.011719 C 30.332031 10.089844 30.605469 10.160156 30.871094 10.257812 C 31.214844 10.382812 31.546875 10.535156 31.890625 10.660156 C 32.285156 10.804688 32.65625 10.996094 33.035156 11.171875 C 33.480469 11.375 33.90625 11.617188 34.324219 11.867188 C 34.695312 12.089844 35.0625 12.320312 35.417969 12.566406 C 35.820312 12.847656 36.210938 13.148438 36.59375 13.453125 C 37.214844 13.941406 37.78125 14.480469 38.324219 15.054688 C 38.964844 15.730469 39.554688 16.449219 40.085938 17.222656 C 40.355469 17.613281 40.613281 18.011719 40.859375 18.417969 C 41.277344 19.113281 41.644531 19.828125 41.980469 20.5625 C 42.234375 21.113281 42.453125 21.679688 42.667969 22.246094 C 42.820312 22.640625 42.917969 23.054688 43.054688 23.457031 C 43.152344 23.738281 43.226562 24.023438 43.300781 24.3125 C 43.429688 24.839844 43.570312 25.363281 43.675781 25.898438 C 43.734375 26.1875 43.738281 26.488281 43.769531 26.785156 C 43.828125 27.335938 43.820312 27.886719 43.824219 28.433594 C 43.828125 28.90625 43.839844 29.378906 43.800781 29.84375 C 43.777344 30.152344 43.757812 30.464844 43.707031 30.773438 C 43.652344 31.105469 43.621094 31.449219 43.566406 31.78125 C 43.527344 31.992188 43.511719 32.207031 43.464844 32.410156 C 43.394531 32.714844 43.308594 33.011719 43.226562 33.3125 C 43.152344 33.597656 43.089844 33.886719 42.996094 34.167969 C 42.832031 34.664062 42.667969 35.160156 42.476562 35.648438 C 42.304688 36.09375 42.109375 36.535156 41.902344 36.96875 C 41.707031 37.375 41.492188 37.777344 41.261719 38.167969 C 40.988281 38.625 40.695312 39.070312 40.402344 39.511719 C 40.058594 40.03125 39.679688 40.519531 39.273438 40.988281 C 38.894531 41.421875 38.515625 41.859375 38.109375 42.269531 C 37.566406 42.8125 36.992188 43.324219 36.390625 43.804688 C 35.886719 44.210938 35.363281 44.589844 34.824219 44.949219 C 34.285156 45.304688 33.730469 45.636719 33.152344 45.925781 C 32.75 46.128906 32.34375 46.332031 31.9375 46.523438 C 31.660156 46.652344 31.378906 46.757812 31.097656 46.871094 C 30.882812 46.957031 30.664062 47.042969 30.449219 47.125 C 30.195312 47.210938 29.941406 47.300781 29.6875 47.378906 C 29.421875 47.457031 29.15625 47.53125 28.890625 47.601562 C 28.523438 47.699219 28.15625 47.800781 27.777344 47.863281 C 27.453125 47.917969 27.128906 47.996094 26.800781 48.050781 C 26.5 48.097656 26.195312 48.125 25.890625 48.164062 C 25.78125 48.175781 25.667969 48.195312 25.554688 48.203125 C 25.378906 48.21875 25.199219 48.226562 25.023438 48.246094 C 24.386719 48.3125 23.75 48.292969 23.117188 48.28125 C 22.632812 48.273438 22.148438 48.257812 21.671875 48.167969 C 21.527344 48.144531 21.375 48.140625 21.226562 48.121094 C 20.890625 48.078125 20.550781 48.039062 20.21875 47.980469 C 20 47.941406 19.773438 47.925781 19.570312 47.820312 C 19.851562 47.851562 20.132812 47.878906 20.414062 47.910156 C 20.632812 47.9375 20.851562 47.976562 21.070312 47.984375 C 21.65625 48.007812 22.242188 48.03125 22.828125 48.023438 C 23.304688 48.019531 23.78125 47.988281 24.257812 47.9375 C 25.019531 47.851562 25.777344 47.738281 26.527344 47.574219 C 27.277344 47.414062 28.015625 47.21875 28.746094 46.988281 C 29.535156 46.730469 30.3125 46.4375 31.070312 46.097656 C 31.597656 45.859375 32.125 45.605469 32.636719 45.328125 C 33.480469 44.871094 34.292969 44.355469 35.0625 43.78125 C 35.65625 43.34375 36.214844 42.871094 36.757812 42.371094 C 37.253906 41.90625 37.71875 41.410156 38.15625 40.894531 C 38.722656 40.234375 39.226562 39.523438 39.675781 38.78125 C 40.003906 38.238281 40.300781 37.679688 40.566406 37.105469 C 40.847656 36.503906 41.085938 35.890625 41.300781 35.269531 C 41.5625 34.511719 41.757812 33.734375 41.917969 32.949219 C 42.003906 32.53125 42.039062 32.105469 42.109375 31.683594 C 42.175781 31.257812 42.207031 30.824219 42.238281 30.390625 C 42.316406 29.417969 42.28125 28.445312 42.261719 27.472656 C 42.253906 27.003906 42.195312 26.535156 42.140625 26.070312 C 42.082031 25.582031 42.011719 25.097656 41.917969 24.617188 C 41.800781 24.019531 41.671875 23.421875 41.480469 22.84375 C 41.320312 22.335938 41.152344 21.832031 40.972656 21.332031 C 40.886719 21.09375 40.78125 20.855469 40.671875 20.628906 C 40.472656 20.210938 40.269531 19.796875 40.050781 19.394531 C 39.667969 18.675781 39.222656 18 38.738281 17.347656 C 38.035156 16.398438 37.230469 15.535156 36.367188 14.726562 C 35.785156 14.1875 35.175781 13.683594 34.539062 13.210938 C 33.992188 12.800781 33.429688 12.414062 32.84375 12.058594 C 32.089844 11.601562 31.3125 11.191406 30.507812 10.828125 C 29.910156 10.554688 29.304688 10.316406 28.6875 10.097656 C 28.078125 9.886719 27.460938 9.703125 26.832031 9.554688 C 26.40625 9.453125 25.976562 9.355469 25.546875 9.257812 C 25.546875 9.230469 25.550781 9.210938 25.550781 9.183594 "/>
<path style=" stroke:none;fill-rule:nonzero;fill:rgb(88.188171%,78.601074%,11.836243%);fill-opacity:1;" d="M 16.605469 47.132812 C 16.863281 47.230469 17.121094 47.328125 17.382812 47.425781 C 17.382812 47.441406 17.382812 47.457031 17.382812 47.46875 C 17.324219 47.460938 17.265625 47.367188 17.207031 47.476562 C 17.179688 47.472656 17.152344 47.46875 17.125 47.46875 C 17.035156 47.398438 16.941406 47.34375 16.824219 47.335938 C 16.703125 47.257812 16.585938 47.171875 16.429688 47.171875 C 16.308594 47.152344 16.222656 47.074219 16.136719 46.996094 C 16.183594 47.007812 16.230469 47.015625 16.273438 47.027344 C 16.386719 47.0625 16.496094 47.097656 16.605469 47.132812 "/>
<path style=" stroke:none;fill-rule:nonzero;fill:rgb(37.226868%,73.091125%,19.80896%);fill-opacity:1;" d="M 16.605469 47.132812 C 16.496094 47.097656 16.386719 47.0625 16.273438 47.027344 C 16.230469 47.015625 16.183594 47.007812 16.136719 46.996094 C 16.078125 46.976562 16.023438 46.953125 15.953125 46.925781 C 16.0625 46.875 16.148438 46.878906 16.335938 46.9375 C 16.457031 46.972656 16.574219 47.015625 16.695312 47.054688 C 16.664062 47.078125 16.636719 47.105469 16.605469 47.132812 "/>
<path style=" stroke:none;fill-rule:nonzero;fill:rgb(29.574585%,70.443726%,22.117615%);fill-opacity:1;" d="M 10.214844 13.652344 C 10.214844 13.660156 10.210938 13.667969 10.207031 13.671875 C 10.046875 13.816406 9.882812 13.953125 9.691406 14.050781 C 9.691406 14.03125 9.6875 14.007812 9.6875 13.988281 L 9.683594 13.980469 C 9.710938 13.953125 9.742188 13.925781 9.769531 13.898438 C 9.785156 13.882812 9.796875 13.871094 9.8125 13.855469 C 9.828125 13.839844 9.839844 13.828125 9.855469 13.8125 C 9.886719 13.785156 9.914062 13.757812 9.941406 13.726562 L 9.945312 13.726562 C 9.957031 13.714844 9.972656 13.699219 9.984375 13.683594 L 9.988281 13.6875 C 10 13.671875 10.015625 13.65625 10.03125 13.644531 C 10.074219 13.628906 10.113281 13.613281 10.15625 13.597656 C 10.175781 13.617188 10.195312 13.636719 10.214844 13.652344 "/>
<path style=" stroke:none;fill-rule:nonzero;fill:rgb(79.815674%,73.495483%,14.251709%);fill-opacity:1;" d="M 10.15625 13.597656 C 10.113281 13.613281 10.074219 13.628906 10.03125 13.644531 C 10.171875 13.5 10.316406 13.359375 10.460938 13.21875 C 10.476562 13.230469 10.492188 13.246094 10.507812 13.257812 C 10.464844 13.304688 10.425781 13.351562 10.371094 13.414062 C 10.367188 13.4375 10.363281 13.480469 10.355469 13.519531 L 10.351562 13.519531 C 10.339844 13.503906 10.328125 13.488281 10.3125 13.464844 C 10.257812 13.511719 10.207031 13.554688 10.15625 13.597656 "/>
<path style=" stroke:none;fill-rule:nonzero;fill:rgb(29.391479%,39.570618%,72.473145%);fill-opacity:1;" d="M 25.550781 9.183594 C 25.550781 9.210938 25.546875 9.230469 25.546875 9.257812 C 25.367188 9.28125 25.203125 9.214844 25.035156 9.164062 C 25.113281 9.097656 25.207031 9.136719 25.289062 9.140625 C 25.378906 9.144531 25.464844 9.167969 25.550781 9.183594 "/>
<path style=" stroke:none;fill-rule:nonzero;fill:rgb(79.211426%,66.793823%,21.942139%);fill-opacity:1;" d="M 15.273438 17.9375 C 15.292969 17.957031 15.3125 17.976562 15.332031 18 C 15.324219 18.011719 15.320312 18.03125 15.3125 18.035156 C 15.191406 18.078125 15.066406 18.113281 14.945312 18.152344 C 14.933594 18.15625 14.917969 18.148438 14.894531 18.140625 C 15.011719 18.042969 15.132812 17.976562 15.273438 17.9375 "/>
<path style=" stroke:none;fill-rule:nonzero;fill:rgb(94.230652%,25.376892%,23.529053%);fill-opacity:1;" d="M 9.675781 13.847656 C 9.679688 13.867188 9.683594 13.890625 9.6875 13.910156 C 9.6875 13.933594 9.683594 13.960938 9.683594 13.980469 L 9.6875 13.988281 C 9.597656 14.070312 9.511719 14.15625 9.425781 14.242188 C 9.410156 14.242188 9.394531 14.242188 9.378906 14.242188 C 9.429688 14.074219 9.546875 13.953125 9.675781 13.847656 "/>
<path style=" stroke:none;fill-rule:nonzero;fill:rgb(94.953918%,33.784485%,33.102417%);fill-opacity:1;" d="M 16.429688 47.171875 C 16.585938 47.171875 16.703125 47.257812 16.824219 47.335938 C 16.824219 47.355469 16.820312 47.371094 16.820312 47.390625 C 16.664062 47.367188 16.546875 47.265625 16.429688 47.171875 "/>
<path style=" stroke:none;fill-rule:nonzero;fill:rgb(53.692627%,77.906799%,27.154541%);fill-opacity:1;" d="M 9.425781 14.242188 C 9.511719 14.15625 9.597656 14.070312 9.6875 13.988281 C 9.6875 14.007812 9.691406 14.03125 9.691406 14.050781 C 9.636719 14.167969 9.542969 14.238281 9.425781 14.28125 C 9.425781 14.269531 9.425781 14.253906 9.425781 14.242188 "/>
<path style=" stroke:none;fill-rule:nonzero;fill:rgb(94.230652%,25.376892%,23.529053%);fill-opacity:1;" d="M 16.820312 47.390625 C 16.820312 47.371094 16.824219 47.355469 16.824219 47.335938 C 16.941406 47.34375 17.035156 47.398438 17.125 47.46875 C 17.109375 47.484375 17.09375 47.5 17.078125 47.519531 C 16.992188 47.476562 16.90625 47.433594 16.820312 47.390625 "/>
<path style=" stroke:none;fill-rule:nonzero;fill:rgb(20.542908%,64.286804%,24.465942%);fill-opacity:1;" d="M 10.15625 13.597656 C 10.207031 13.554688 10.257812 13.511719 10.3125 13.464844 C 10.328125 13.488281 10.339844 13.503906 10.351562 13.519531 C 10.34375 13.53125 10.339844 13.546875 10.339844 13.558594 C 10.324219 13.574219 10.304688 13.589844 10.289062 13.605469 C 10.265625 13.621094 10.242188 13.636719 10.214844 13.652344 C 10.195312 13.636719 10.175781 13.617188 10.15625 13.597656 "/>
<path style=" stroke:none;fill-rule:nonzero;fill:rgb(24.113464%,30.540466%,66.343689%);fill-opacity:1;" d="M 19.570312 47.820312 C 19.46875 47.800781 19.359375 47.851562 19.269531 47.773438 C 19.367188 47.792969 19.480469 47.730469 19.570312 47.820312 "/>
<path style=" stroke:none;fill-rule:nonzero;fill:rgb(95.487976%,40.115356%,45.588684%);fill-opacity:1;" d="M 23.785156 6.121094 C 23.75 6.191406 23.695312 6.15625 23.644531 6.148438 C 23.699219 6.066406 23.710938 6.0625 23.785156 6.121094 "/>
<path style=" stroke:none;fill-rule:nonzero;fill:rgb(37.226868%,73.091125%,19.80896%);fill-opacity:1;" d="M 17.050781 47.160156 C 17.007812 47.171875 16.96875 47.183594 16.949219 47.125 C 17.011719 47.054688 17.027344 47.117188 17.050781 47.160156 "/>
<path style=" stroke:none;fill-rule:nonzero;fill:rgb(87.261963%,57.553101%,19.599915%);fill-opacity:1;" d="M 9.425781 14.242188 C 9.425781 14.253906 9.425781 14.269531 9.425781 14.28125 C 9.398438 14.296875 9.371094 14.3125 9.34375 14.328125 L 9.34375 14.332031 C 9.355469 14.300781 9.367188 14.273438 9.378906 14.242188 C 9.394531 14.242188 9.410156 14.242188 9.425781 14.242188 "/>
<path style=" stroke:none;fill-rule:nonzero;fill:rgb(29.574585%,70.443726%,22.117615%);fill-opacity:1;" d="M 10.289062 13.605469 C 10.304688 13.589844 10.324219 13.574219 10.339844 13.558594 C 10.324219 13.574219 10.304688 13.589844 10.289062 13.605469 "/>
<path style=" stroke:none;fill-rule:nonzero;fill:rgb(29.574585%,70.443726%,22.117615%);fill-opacity:1;" d="M 10.460938 13.476562 C 10.480469 13.460938 10.496094 13.449219 10.515625 13.433594 C 10.496094 13.449219 10.480469 13.460938 10.460938 13.476562 "/>
<path style=" stroke:none;fill-rule:nonzero;fill:rgb(37.226868%,73.091125%,19.80896%);fill-opacity:1;" d="M 16.835938 47.113281 C 16.816406 47.101562 16.800781 47.09375 16.78125 47.082031 C 16.800781 47.09375 16.816406 47.101562 16.835938 47.113281 "/>
<path style=" stroke:none;fill-rule:nonzero;fill:rgb(87.261963%,57.553101%,19.599915%);fill-opacity:1;" d="M 9.34375 14.328125 C 9.335938 14.339844 9.328125 14.351562 9.339844 14.332031 C 9.320312 14.34375 9.332031 14.335938 9.34375 14.332031 L 9.34375 14.328125 "/>
<path style=" stroke:none;fill-rule:nonzero;fill:rgb(94.91272%,32.969666%,39.138794%);fill-opacity:1;" d="M 28.253906 6.085938 C 28.207031 6.136719 28.164062 6.140625 28.125 6.074219 C 28.175781 6.023438 28.21875 6.015625 28.253906 6.085938 "/>
<path style=" stroke:none;fill-rule:nonzero;fill:rgb(94.989014%,33.879089%,40.995789%);fill-opacity:1;" d="M 30.910156 49.644531 C 30.9375 49.554688 31 49.578125 31.0625 49.59375 C 31.035156 49.675781 30.976562 49.667969 30.910156 49.644531 "/>
<path style=" stroke:none;fill-rule:nonzero;fill:rgb(94.91272%,32.969666%,39.138794%);fill-opacity:1;" d="M 28.726562 6.128906 C 28.695312 6.183594 28.667969 6.167969 28.644531 6.121094 C 28.675781 6.066406 28.707031 6.070312 28.726562 6.128906 "/>
<path style=" stroke:none;fill-rule:nonzero;fill:rgb(94.989014%,33.879089%,40.995789%);fill-opacity:1;" d="M 30.707031 49.671875 C 30.726562 49.617188 30.753906 49.601562 30.792969 49.65625 C 30.769531 49.707031 30.742188 49.726562 30.707031 49.671875 "/>
<path style=" stroke:none;fill-rule:nonzero;fill:rgb(94.989014%,33.879089%,40.995789%);fill-opacity:1;" d="M 31.179688 49.582031 C 31.195312 49.523438 31.234375 49.535156 31.277344 49.546875 C 31.257812 49.59375 31.238281 49.652344 31.179688 49.582031 "/>
<path style=" stroke:none;fill-rule:nonzero;fill:rgb(94.856262%,87.802124%,5.348206%);fill-opacity:1;" d="M 17.207031 47.476562 C 17.265625 47.367188 17.324219 47.460938 17.382812 47.46875 C 17.421875 47.472656 17.464844 47.472656 17.507812 47.472656 C 17.550781 47.488281 17.59375 47.503906 17.640625 47.519531 C 17.6875 47.574219 17.742188 47.609375 17.820312 47.59375 C 17.976562 47.636719 18.136719 47.667969 18.292969 47.714844 C 18.9375 47.917969 19.59375 48.078125 20.25 48.234375 C 20.601562 48.320312 20.960938 48.359375 21.316406 48.421875 C 21.628906 48.476562 21.9375 48.539062 22.253906 48.582031 C 22.449219 48.613281 22.648438 48.617188 22.847656 48.636719 C 23.070312 48.660156 23.296875 48.6875 23.519531 48.710938 C 23.542969 48.714844 23.5625 48.714844 23.585938 48.714844 C 24.292969 48.726562 25 48.789062 25.707031 48.757812 C 25.996094 48.746094 26.289062 48.734375 26.582031 48.710938 C 26.863281 48.691406 27.148438 48.667969 27.425781 48.628906 C 27.773438 48.574219 28.125 48.53125 28.472656 48.476562 C 29.121094 48.375 29.761719 48.238281 30.398438 48.074219 C 31.101562 47.890625 31.789062 47.667969 32.472656 47.414062 C 33.214844 47.132812 33.9375 46.8125 34.640625 46.445312 C 35.195312 46.160156 35.738281 45.855469 36.257812 45.507812 C 36.726562 45.191406 37.199219 44.871094 37.648438 44.53125 C 38.035156 44.242188 38.402344 43.921875 38.765625 43.601562 C 39.109375 43.296875 39.449219 42.984375 39.773438 42.65625 C 40.140625 42.28125 40.484375 41.882812 40.839844 41.492188 C 41.261719 41.027344 41.636719 40.527344 42 40.019531 C 42.308594 39.585938 42.589844 39.132812 42.871094 38.683594 C 43.078125 38.359375 43.273438 38.03125 43.457031 37.695312 C 43.574219 37.480469 43.675781 37.253906 43.773438 37.027344 C 43.941406 36.632812 44.101562 36.230469 44.261719 35.832031 C 44.4375 35.386719 44.589844 34.929688 44.726562 34.472656 C 44.875 33.984375 45.015625 33.5 45.113281 33 C 45.183594 32.644531 45.28125 32.289062 45.351562 31.929688 C 45.398438 31.703125 45.417969 31.46875 45.449219 31.234375 C 45.492188 30.90625 45.539062 30.578125 45.574219 30.246094 C 45.597656 30.023438 45.601562 29.792969 45.621094 29.566406 C 45.683594 28.875 45.664062 28.179688 45.65625 27.488281 C 45.652344 27.214844 45.609375 26.9375 45.585938 26.664062 C 45.570312 26.488281 45.546875 26.308594 45.539062 26.132812 C 45.527344 25.699219 45.429688 25.277344 45.371094 24.851562 C 45.292969 24.261719 45.160156 23.6875 45.015625 23.109375 C 44.839844 22.390625 44.613281 21.6875 44.355469 20.992188 C 44.136719 20.394531 43.890625 19.808594 43.617188 19.234375 C 43.304688 18.578125 42.960938 17.9375 42.574219 17.316406 C 42.167969 16.667969 41.726562 16.039062 41.265625 15.429688 C 41.039062 15.128906 40.792969 14.839844 40.539062 14.5625 C 40.152344 14.140625 39.753906 13.730469 39.347656 13.328125 C 38.957031 12.941406 38.546875 12.578125 38.105469 12.246094 C 37.648438 11.902344 37.195312 11.550781 36.71875 11.222656 C 36.363281 10.980469 35.988281 10.769531 35.613281 10.550781 C 35.363281 10.402344 35.109375 10.261719 34.851562 10.132812 C 34.601562 10.003906 34.34375 9.890625 34.085938 9.769531 C 33.441406 9.46875 32.773438 9.21875 32.097656 8.992188 C 31.597656 8.828125 31.089844 8.671875 30.582031 8.539062 C 30.171875 8.429688 29.757812 8.351562 29.339844 8.273438 C 28.972656 8.203125 28.601562 8.152344 28.230469 8.097656 C 27.902344 8.050781 27.574219 8.011719 27.242188 7.972656 C 27.042969 7.953125 26.84375 7.945312 26.648438 7.925781 C 25.890625 7.863281 25.132812 7.878906 24.375 7.890625 C 24.042969 7.894531 23.710938 7.9375 23.378906 7.964844 C 23.171875 7.980469 22.96875 7.992188 22.761719 8.011719 C 22.496094 8.039062 22.230469 8.074219 21.960938 8.109375 C 21.824219 8.128906 21.683594 8.15625 21.546875 8.179688 C 21.355469 8.210938 21.167969 8.234375 20.980469 8.273438 C 20.59375 8.351562 20.207031 8.433594 19.824219 8.527344 C 19.328125 8.652344 18.828125 8.765625 18.34375 8.945312 C 17.945312 9.089844 17.535156 9.203125 17.140625 9.351562 C 16.757812 9.492188 16.378906 9.648438 16.007812 9.820312 C 15.53125 10.039062 15.054688 10.265625 14.589844 10.507812 C 14.222656 10.699219 13.863281 10.917969 13.503906 11.128906 C 13.230469 11.289062 12.957031 11.453125 12.6875 11.628906 C 12.433594 11.792969 12.1875 11.976562 11.933594 12.148438 C 11.90625 12.167969 11.871094 12.179688 11.839844 12.195312 C 11.855469 12.136719 11.867188 12.074219 11.882812 12.015625 L 11.886719 12.011719 C 11.898438 12 11.910156 11.988281 11.921875 11.976562 C 12.085938 11.855469 12.25 11.730469 12.417969 11.613281 C 12.886719 11.289062 13.351562 10.949219 13.835938 10.648438 C 14.335938 10.335938 14.859375 10.050781 15.378906 9.769531 C 15.734375 9.574219 16.101562 9.394531 16.46875 9.21875 C 16.691406 9.109375 16.917969 9.011719 17.144531 8.921875 C 17.601562 8.742188 18.058594 8.5625 18.519531 8.394531 C 18.773438 8.296875 19.035156 8.21875 19.296875 8.140625 C 19.566406 8.054688 19.832031 7.976562 20.101562 7.898438 C 20.15625 7.882812 20.21875 7.894531 20.269531 7.875 C 20.515625 7.792969 20.761719 7.714844 21.015625 7.683594 C 21.199219 7.660156 21.363281 7.554688 21.550781 7.582031 C 21.613281 7.582031 21.671875 7.585938 21.734375 7.582031 C 21.761719 7.578125 21.785156 7.550781 21.808594 7.535156 C 22.050781 7.492188 22.285156 7.402344 22.539062 7.410156 C 22.628906 7.410156 22.714844 7.414062 22.804688 7.40625 C 22.832031 7.40625 22.855469 7.378906 22.882812 7.363281 C 22.910156 7.363281 22.933594 7.363281 22.960938 7.359375 C 23.035156 7.363281 23.109375 7.363281 23.183594 7.363281 C 23.320312 7.347656 23.464844 7.355469 23.59375 7.316406 C 23.71875 7.28125 23.839844 7.289062 23.960938 7.277344 C 23.976562 7.277344 23.988281 7.25 24 7.234375 C 24.027344 7.234375 24.050781 7.234375 24.078125 7.234375 C 24.226562 7.234375 24.375 7.234375 24.527344 7.238281 C 24.644531 7.238281 24.753906 7.210938 24.859375 7.160156 C 24.890625 7.160156 24.917969 7.160156 24.949219 7.160156 C 24.96875 7.171875 24.992188 7.195312 25.015625 7.195312 C 25.683594 7.195312 26.355469 7.195312 27.027344 7.195312 C 27.050781 7.195312 27.070312 7.171875 27.09375 7.160156 C 27.136719 7.160156 27.179688 7.160156 27.222656 7.160156 C 27.347656 7.1875 27.472656 7.222656 27.597656 7.234375 C 27.761719 7.246094 27.921875 7.238281 28.082031 7.238281 C 28.410156 7.234375 28.730469 7.285156 29.050781 7.351562 C 29.210938 7.382812 29.371094 7.386719 29.53125 7.410156 C 29.71875 7.441406 29.90625 7.476562 30.09375 7.507812 C 30.199219 7.527344 30.300781 7.539062 30.40625 7.558594 C 30.707031 7.625 31.007812 7.691406 31.308594 7.757812 C 31.480469 7.796875 31.652344 7.839844 31.820312 7.886719 C 32.09375 7.964844 32.367188 8.054688 32.644531 8.136719 C 33.15625 8.28125 33.65625 8.464844 34.152344 8.65625 C 34.441406 8.765625 34.730469 8.882812 35.011719 9.003906 C 35.34375 9.148438 35.671875 9.289062 35.992188 9.453125 C 36.449219 9.683594 36.902344 9.925781 37.347656 10.183594 C 37.890625 10.5 38.429688 10.824219 38.945312 11.191406 C 39.179688 11.355469 39.410156 11.539062 39.636719 11.71875 C 39.863281 11.898438 40.09375 12.078125 40.308594 12.269531 C 40.628906 12.558594 40.9375 12.855469 41.246094 13.152344 C 41.4375 13.335938 41.625 13.523438 41.804688 13.71875 C 42.070312 14.011719 42.320312 14.324219 42.589844 14.617188 C 42.914062 14.96875 43.1875 15.355469 43.472656 15.738281 C 43.707031 16.046875 43.910156 16.378906 44.117188 16.707031 C 44.242188 16.894531 44.347656 17.09375 44.464844 17.285156 C 44.464844 17.324219 44.464844 17.363281 44.464844 17.414062 C 44.496094 17.417969 44.523438 17.421875 44.546875 17.425781 C 44.546875 17.460938 44.535156 17.503906 44.59375 17.511719 L 44.59375 17.507812 C 44.605469 17.660156 44.695312 17.777344 44.765625 17.90625 C 44.894531 18.152344 45.015625 18.402344 45.144531 18.648438 C 45.167969 18.691406 45.203125 18.722656 45.234375 18.761719 C 45.253906 18.832031 45.277344 18.898438 45.296875 18.96875 C 45.324219 18.96875 45.34375 18.972656 45.363281 18.972656 C 45.378906 18.988281 45.390625 19.007812 45.40625 19.027344 C 45.40625 19.046875 45.40625 19.066406 45.410156 19.085938 C 45.410156 19.171875 45.382812 19.269531 45.488281 19.320312 C 45.507812 19.332031 45.523438 19.34375 45.539062 19.359375 L 45.535156 19.359375 C 45.515625 19.511719 45.609375 19.636719 45.640625 19.777344 C 45.664062 19.78125 45.683594 19.785156 45.703125 19.792969 C 45.710938 19.832031 45.714844 19.875 45.726562 19.914062 C 45.777344 20.035156 45.832031 20.15625 45.878906 20.277344 C 45.925781 20.402344 45.96875 20.527344 46.011719 20.648438 C 46.023438 20.664062 46.035156 20.679688 46.050781 20.695312 C 46.054688 20.824219 46.050781 20.957031 46.183594 21.035156 C 46.203125 21.144531 46.207031 21.257812 46.238281 21.363281 C 46.324219 21.648438 46.425781 21.925781 46.511719 22.210938 C 46.566406 22.390625 46.609375 22.574219 46.65625 22.753906 C 46.675781 22.839844 46.695312 22.921875 46.714844 23.003906 C 46.742188 23.011719 46.761719 23.015625 46.78125 23.019531 C 46.785156 23.027344 46.785156 23.039062 46.78125 23.050781 C 46.761719 23.300781 46.875 23.535156 46.890625 23.78125 C 46.890625 23.796875 46.929688 23.8125 46.953125 23.832031 C 46.988281 24.058594 47.050781 24.285156 47.089844 24.511719 C 47.15625 24.875 47.144531 25.246094 47.253906 25.597656 C 47.253906 25.605469 47.253906 25.613281 47.253906 25.621094 C 47.269531 25.890625 47.292969 26.160156 47.300781 26.429688 C 47.316406 27.0625 47.335938 27.699219 47.339844 28.332031 C 47.339844 28.6875 47.339844 29.046875 47.289062 29.398438 C 47.246094 29.707031 47.28125 30.019531 47.183594 30.324219 C 47.128906 30.492188 47.148438 30.6875 47.125 30.871094 C 47.109375 31.019531 47.085938 31.164062 47.0625 31.308594 C 47.027344 31.527344 46.992188 31.738281 46.953125 31.953125 C 46.941406 32.03125 46.921875 32.105469 46.90625 32.179688 C 46.808594 32.589844 46.710938 33 46.605469 33.40625 C 46.550781 33.625 46.488281 33.839844 46.421875 34.054688 C 46.285156 34.488281 46.15625 34.925781 46.003906 35.351562 C 45.886719 35.675781 45.726562 35.980469 45.605469 36.304688 C 45.449219 36.714844 45.257812 37.105469 45.066406 37.496094 C 44.949219 37.734375 44.835938 37.976562 44.707031 38.210938 C 44.53125 38.53125 44.34375 38.851562 44.148438 39.160156 C 43.941406 39.488281 43.71875 39.808594 43.492188 40.125 C 43.246094 40.464844 42.992188 40.792969 42.738281 41.125 C 42.59375 41.308594 42.445312 41.492188 42.289062 41.667969 C 41.78125 42.257812 41.25 42.828125 40.679688 43.359375 C 40.359375 43.660156 40.023438 43.949219 39.6875 44.234375 C 39.429688 44.457031 39.167969 44.675781 38.902344 44.886719 C 38.6875 45.050781 38.46875 45.210938 38.246094 45.359375 C 37.722656 45.707031 37.191406 46.042969 36.664062 46.386719 C 36.648438 46.394531 36.621094 46.394531 36.601562 46.398438 C 36.5 46.394531 36.40625 46.40625 36.378906 46.527344 L 36.378906 46.523438 C 36.351562 46.542969 36.320312 46.554688 36.292969 46.570312 C 36.28125 46.574219 36.273438 46.574219 36.261719 46.574219 C 36.175781 46.578125 36.089844 46.582031 36.078125 46.699219 C 36.035156 46.707031 35.96875 46.667969 35.953125 46.746094 C 35.851562 46.734375 35.761719 46.75 35.734375 46.871094 C 35.652344 46.886719 35.566406 46.90625 35.484375 46.925781 C 35.480469 46.957031 35.480469 46.980469 35.476562 47 C 35.363281 47.03125 35.25 47.066406 35.140625 47.097656 C 35.136719 47.132812 35.136719 47.152344 35.132812 47.171875 C 35.007812 47.203125 34.878906 47.238281 34.753906 47.269531 C 34.75 47.304688 34.75 47.324219 34.746094 47.34375 L 34.75 47.34375 C 34.703125 47.351562 34.644531 47.316406 34.617188 47.386719 C 34.578125 47.386719 34.535156 47.394531 34.496094 47.394531 C 34.492188 47.429688 34.488281 47.449219 34.484375 47.46875 C 34.476562 47.472656 34.464844 47.476562 34.457031 47.476562 C 34.324219 47.507812 34.195312 47.539062 34.066406 47.570312 C 34.0625 47.605469 34.058594 47.625 34.058594 47.644531 C 33.917969 47.675781 33.773438 47.707031 33.636719 47.738281 C 33.632812 47.777344 33.632812 47.796875 33.628906 47.816406 C 33.53125 47.832031 33.433594 47.851562 33.339844 47.867188 C 33.332031 47.902344 33.328125 47.921875 33.324219 47.941406 L 33.304688 47.945312 L 33.289062 47.945312 C 33.238281 47.953125 33.175781 47.917969 33.152344 47.992188 C 32.945312 48.066406 32.742188 48.140625 32.535156 48.210938 C 32.332031 48.28125 32.125 48.347656 31.917969 48.414062 C 31.890625 48.421875 31.859375 48.417969 31.832031 48.417969 C 31.773438 48.4375 31.691406 48.367188 31.65625 48.46875 C 31.472656 48.523438 31.296875 48.585938 31.113281 48.632812 C 30.898438 48.6875 30.679688 48.734375 30.460938 48.773438 C 30.175781 48.828125 29.90625 48.933594 29.613281 48.9375 C 29.519531 48.941406 29.417969 48.957031 29.324219 48.988281 C 29.035156 49.070312 28.742188 49.082031 28.445312 49.113281 C 28.152344 49.140625 27.859375 49.199219 27.566406 49.230469 C 27.390625 49.246094 27.207031 49.222656 27.03125 49.238281 C 26.460938 49.289062 25.890625 49.285156 25.320312 49.277344 C 24.964844 49.269531 24.609375 49.273438 24.257812 49.226562 C 23.949219 49.183594 23.636719 49.199219 23.332031 49.117188 C 23.144531 49.066406 22.9375 49.085938 22.742188 49.058594 C 22.5625 49.035156 22.382812 48.996094 22.203125 48.960938 C 22.09375 48.941406 21.984375 48.921875 21.871094 48.902344 C 21.617188 48.855469 21.359375 48.816406 21.105469 48.761719 C 20.839844 48.699219 20.578125 48.625 20.316406 48.550781 C 19.945312 48.449219 19.570312 48.351562 19.203125 48.242188 C 19.015625 48.183594 18.832031 48.109375 18.648438 48.042969 C 18.46875 47.980469 18.289062 47.925781 18.113281 47.855469 C 17.980469 47.808594 17.851562 47.746094 17.722656 47.691406 C 17.714844 47.632812 17.667969 47.644531 17.632812 47.648438 C 17.605469 47.644531 17.578125 47.640625 17.554688 47.636719 C 17.527344 47.625 17.5 47.613281 17.472656 47.597656 C 17.457031 47.59375 17.441406 47.59375 17.425781 47.589844 C 17.417969 47.566406 17.410156 47.542969 17.402344 47.515625 C 17.359375 47.515625 17.328125 47.515625 17.292969 47.515625 C 17.265625 47.5 17.234375 47.488281 17.207031 47.476562 "/>
<path style=" stroke:none;fill-rule:nonzero;fill:rgb(89.131165%,81.686401%,10.484314%);fill-opacity:1;" d="M 11.882812 12.015625 C 11.867188 12.074219 11.855469 12.136719 11.839844 12.195312 C 11.789062 12.246094 11.738281 12.304688 11.679688 12.351562 C 11.316406 12.644531 10.949219 12.9375 10.585938 13.226562 C 10.5625 13.242188 10.53125 13.25 10.507812 13.257812 C 10.492188 13.246094 10.476562 13.230469 10.460938 13.21875 C 10.703125 13 10.9375 12.773438 11.183594 12.5625 C 11.40625 12.371094 11.648438 12.199219 11.882812 12.015625 "/>
<path style=" stroke:none;fill-rule:nonzero;fill:rgb(95.960999%,68.908691%,19.58313%);fill-opacity:1;" d="M 27.09375 7.160156 C 27.070312 7.171875 27.050781 7.195312 27.027344 7.195312 C 26.355469 7.195312 25.683594 7.195312 25.015625 7.195312 C 24.992188 7.195312 24.96875 7.171875 24.949219 7.160156 C 24.972656 7.144531 25 7.117188 25.027344 7.113281 C 25.691406 7.113281 26.351562 7.113281 27.011719 7.113281 C 27.039062 7.113281 27.066406 7.144531 27.09375 7.160156 "/>
<path style=" stroke:none;fill-rule:nonzero;fill:rgb(94.58313%,64.833069%,43.371582%);fill-opacity:1;" d="M 46.65625 22.753906 C 46.609375 22.574219 46.566406 22.390625 46.511719 22.210938 C 46.425781 21.925781 46.324219 21.648438 46.238281 21.363281 C 46.207031 21.257812 46.203125 21.144531 46.183594 21.035156 C 46.238281 21.027344 46.253906 21.054688 46.265625 21.105469 C 46.335938 21.359375 46.414062 21.613281 46.488281 21.867188 C 46.570312 22.136719 46.652344 22.402344 46.730469 22.671875 C 46.738281 22.695312 46.730469 22.726562 46.730469 22.757812 C 46.707031 22.753906 46.679688 22.753906 46.65625 22.753906 "/>
<path style=" stroke:none;fill-rule:nonzero;fill:rgb(94.400024%,66.247559%,38.839722%);fill-opacity:1;" d="M 45.234375 18.761719 C 45.203125 18.722656 45.167969 18.691406 45.144531 18.648438 C 45.015625 18.402344 44.894531 18.152344 44.765625 17.90625 C 44.695312 17.777344 44.605469 17.660156 44.59375 17.507812 C 44.621094 17.527344 44.65625 17.539062 44.671875 17.5625 C 44.851562 17.902344 45.03125 18.242188 45.207031 18.585938 C 45.226562 18.621094 45.230469 18.664062 45.238281 18.707031 C 45.238281 18.722656 45.234375 18.742188 45.234375 18.761719 "/>
<path style=" stroke:none;fill-rule:nonzero;fill:rgb(93.34259%,69.538879%,50.706482%);fill-opacity:1;" d="M 46.011719 20.648438 C 45.96875 20.527344 45.925781 20.402344 45.878906 20.277344 C 45.832031 20.15625 45.777344 20.035156 45.726562 19.914062 C 45.714844 19.875 45.710938 19.832031 45.703125 19.792969 C 45.71875 19.789062 45.734375 19.789062 45.746094 19.789062 C 45.835938 20 45.925781 20.207031 46.007812 20.414062 C 46.042969 20.507812 46.066406 20.601562 46.09375 20.691406 C 46.078125 20.695312 46.066406 20.695312 46.050781 20.695312 C 46.035156 20.679688 46.023438 20.664062 46.011719 20.648438 "/>
<path style=" stroke:none;fill-rule:nonzero;fill:rgb(95.960999%,68.908691%,19.58313%);fill-opacity:1;" d="M 24.859375 7.160156 C 24.753906 7.210938 24.644531 7.238281 24.527344 7.238281 C 24.375 7.234375 24.226562 7.234375 24.078125 7.234375 C 24.148438 7.207031 24.214844 7.164062 24.285156 7.160156 C 24.476562 7.152344 24.667969 7.160156 24.859375 7.160156 "/>
<path style=" stroke:none;fill-rule:nonzero;fill:rgb(95.960999%,68.908691%,19.58313%);fill-opacity:1;" d="M 28.082031 7.238281 C 27.921875 7.238281 27.761719 7.246094 27.597656 7.234375 C 27.472656 7.222656 27.347656 7.1875 27.222656 7.160156 C 27.496094 7.148438 27.769531 7.148438 28.039062 7.199219 C 28.054688 7.203125 28.070312 7.222656 28.082031 7.238281 "/>
<path style=" stroke:none;fill-rule:nonzero;fill:rgb(95.960999%,68.908691%,19.58313%);fill-opacity:1;" d="M 24 7.234375 C 23.988281 7.25 23.976562 7.277344 23.960938 7.277344 C 23.839844 7.289062 23.71875 7.28125 23.59375 7.316406 C 23.464844 7.355469 23.320312 7.347656 23.183594 7.363281 C 23.210938 7.339844 23.238281 7.3125 23.269531 7.289062 C 23.503906 7.261719 23.738281 7.234375 23.976562 7.207031 C 23.980469 7.207031 23.992188 7.226562 24 7.234375 "/>
<path style=" stroke:none;fill-rule:nonzero;fill:rgb(94.58313%,64.833069%,43.371582%);fill-opacity:1;" d="M 45.746094 19.789062 C 45.734375 19.789062 45.71875 19.789062 45.703125 19.792969 C 45.683594 19.785156 45.664062 19.78125 45.640625 19.777344 C 45.609375 19.636719 45.515625 19.511719 45.535156 19.359375 C 45.566406 19.394531 45.601562 19.425781 45.621094 19.464844 C 45.667969 19.574219 45.707031 19.683594 45.746094 19.789062 "/>
<path style=" stroke:none;fill-rule:nonzero;fill:rgb(95.314026%,67.61322%,33.702087%);fill-opacity:1;" d="M 33.628906 47.816406 C 33.632812 47.796875 33.632812 47.777344 33.636719 47.738281 C 33.773438 47.707031 33.917969 47.675781 34.058594 47.644531 C 34.042969 47.664062 34.03125 47.699219 34.007812 47.707031 C 33.882812 47.746094 33.757812 47.78125 33.628906 47.816406 "/>
<path style=" stroke:none;fill-rule:nonzero;fill:rgb(95.66803%,62.437439%,31.19812%);fill-opacity:1;" d="M 34.746094 47.34375 C 34.75 47.324219 34.75 47.304688 34.753906 47.269531 C 34.878906 47.238281 35.007812 47.203125 35.132812 47.171875 C 35.035156 47.300781 34.890625 47.320312 34.746094 47.34375 "/>
<path style=" stroke:none;fill-rule:nonzero;fill:rgb(95.314026%,67.61322%,33.702087%);fill-opacity:1;" d="M 34.058594 47.644531 C 34.058594 47.625 34.0625 47.605469 34.066406 47.570312 C 34.195312 47.539062 34.324219 47.507812 34.457031 47.476562 C 34.351562 47.59375 34.207031 47.625 34.058594 47.644531 "/>
<path style=" stroke:none;fill-rule:nonzero;fill:rgb(91.827393%,82.524109%,48.64502%);fill-opacity:1;" d="M 46.050781 20.695312 C 46.066406 20.695312 46.078125 20.695312 46.09375 20.691406 C 46.144531 20.800781 46.203125 20.90625 46.183594 21.035156 C 46.050781 20.957031 46.054688 20.824219 46.050781 20.695312 "/>
<path style=" stroke:none;fill-rule:nonzero;fill:rgb(95.66803%,62.437439%,31.19812%);fill-opacity:1;" d="M 35.132812 47.171875 C 35.136719 47.152344 35.136719 47.132812 35.140625 47.097656 C 35.25 47.066406 35.363281 47.03125 35.476562 47 C 35.378906 47.089844 35.269531 47.15625 35.132812 47.171875 "/>
<path style=" stroke:none;fill-rule:nonzero;fill:rgb(95.314026%,67.61322%,33.702087%);fill-opacity:1;" d="M 33.324219 47.941406 C 33.328125 47.921875 33.332031 47.902344 33.339844 47.867188 C 33.433594 47.851562 33.53125 47.832031 33.628906 47.816406 C 33.558594 47.929688 33.4375 47.929688 33.324219 47.941406 "/>
<path style=" stroke:none;fill-rule:nonzero;fill:rgb(93.34259%,69.538879%,50.706482%);fill-opacity:1;" d="M 45.488281 19.320312 C 45.382812 19.269531 45.410156 19.171875 45.410156 19.085938 C 45.515625 19.128906 45.511719 19.230469 45.535156 19.316406 C 45.523438 19.316406 45.507812 19.320312 45.488281 19.320312 "/>
<path style=" stroke:none;fill-rule:nonzero;fill:rgb(94.58313%,64.833069%,43.371582%);fill-opacity:1;" d="M 45.234375 18.761719 C 45.234375 18.742188 45.238281 18.722656 45.238281 18.707031 C 45.324219 18.773438 45.371094 18.859375 45.363281 18.972656 C 45.34375 18.972656 45.324219 18.96875 45.296875 18.96875 C 45.277344 18.898438 45.253906 18.832031 45.234375 18.761719 "/>
<path style=" stroke:none;fill-rule:nonzero;fill:rgb(95.66803%,62.437439%,31.19812%);fill-opacity:1;" d="M 35.476562 47 C 35.480469 46.980469 35.480469 46.957031 35.484375 46.925781 C 35.566406 46.90625 35.652344 46.886719 35.734375 46.871094 C 35.675781 46.96875 35.585938 47.003906 35.476562 47 "/>
<path style=" stroke:none;fill-rule:nonzero;fill:rgb(95.66803%,62.437439%,31.19812%);fill-opacity:1;" d="M 35.734375 46.871094 C 35.761719 46.75 35.851562 46.734375 35.953125 46.746094 C 35.949219 46.765625 35.945312 46.785156 35.941406 46.8125 C 35.871094 46.832031 35.804688 46.851562 35.734375 46.871094 "/>
<path style=" stroke:none;fill-rule:nonzero;fill:rgb(95.314026%,67.61322%,33.702087%);fill-opacity:1;" d="M 23.269531 7.289062 C 23.238281 7.3125 23.210938 7.339844 23.183594 7.363281 C 23.109375 7.363281 23.035156 7.363281 22.960938 7.359375 C 23.050781 7.273438 23.15625 7.277344 23.269531 7.289062 "/>
<path style=" stroke:none;fill-rule:nonzero;fill:rgb(95.66803%,62.437439%,31.19812%);fill-opacity:1;" d="M 36.378906 46.527344 C 36.40625 46.40625 36.5 46.394531 36.601562 46.398438 C 36.546875 46.480469 36.472656 46.519531 36.378906 46.527344 "/>
<path style=" stroke:none;fill-rule:nonzero;fill:rgb(95.314026%,67.61322%,33.702087%);fill-opacity:1;" d="M 22.882812 7.363281 C 22.855469 7.378906 22.832031 7.40625 22.804688 7.40625 C 22.714844 7.414062 22.628906 7.410156 22.539062 7.410156 C 22.566406 7.394531 22.59375 7.371094 22.625 7.367188 C 22.710938 7.363281 22.796875 7.363281 22.882812 7.363281 "/>
<path style=" stroke:none;fill-rule:nonzero;fill:rgb(95.66803%,62.437439%,31.19812%);fill-opacity:1;" d="M 36.078125 46.699219 C 36.089844 46.582031 36.175781 46.578125 36.261719 46.574219 C 36.238281 46.675781 36.15625 46.683594 36.078125 46.699219 "/>
<path style=" stroke:none;fill-rule:nonzero;fill:rgb(95.198059%,77.565002%,29.428101%);fill-opacity:1;" d="M 21.808594 7.535156 C 21.785156 7.550781 21.761719 7.578125 21.734375 7.582031 C 21.671875 7.585938 21.613281 7.582031 21.550781 7.582031 C 21.625 7.492188 21.722656 7.554688 21.808594 7.535156 "/>
<path style=" stroke:none;fill-rule:nonzero;fill:rgb(95.314026%,67.61322%,33.702087%);fill-opacity:1;" d="M 34.484375 47.46875 C 34.488281 47.449219 34.492188 47.429688 34.496094 47.394531 C 34.535156 47.394531 34.578125 47.386719 34.617188 47.386719 C 34.617188 47.398438 34.617188 47.410156 34.617188 47.421875 C 34.59375 47.496094 34.53125 47.464844 34.484375 47.46875 "/>
<path style=" stroke:none;fill-rule:nonzero;fill:rgb(95.66803%,62.437439%,31.19812%);fill-opacity:1;" d="M 34.617188 47.421875 C 34.617188 47.410156 34.617188 47.398438 34.617188 47.386719 C 34.644531 47.316406 34.703125 47.351562 34.75 47.34375 C 34.726562 47.40625 34.683594 47.433594 34.617188 47.421875 "/>
<path style=" stroke:none;fill-rule:nonzero;fill:rgb(95.960999%,68.908691%,19.58313%);fill-opacity:1;" d="M 17.292969 47.515625 C 17.328125 47.515625 17.359375 47.515625 17.402344 47.515625 C 17.410156 47.542969 17.417969 47.566406 17.425781 47.589844 C 17.355469 47.613281 17.320312 47.570312 17.292969 47.515625 "/>
<path style=" stroke:none;fill-rule:nonzero;fill:rgb(95.198059%,77.565002%,29.428101%);fill-opacity:1;" d="M 44.546875 17.425781 C 44.523438 17.421875 44.496094 17.417969 44.464844 17.414062 C 44.464844 17.363281 44.464844 17.324219 44.464844 17.285156 C 44.492188 17.332031 44.519531 17.378906 44.546875 17.425781 "/>
<path style=" stroke:none;fill-rule:nonzero;fill:rgb(94.400024%,66.247559%,38.839722%);fill-opacity:1;" d="M 31.65625 48.46875 C 31.691406 48.367188 31.773438 48.4375 31.832031 48.417969 C 31.789062 48.496094 31.714844 48.449219 31.65625 48.46875 "/>
<path style=" stroke:none;fill-rule:nonzero;fill:rgb(87.261963%,57.553101%,19.599915%);fill-opacity:1;" d="M 9.941406 13.726562 C 9.914062 13.757812 9.886719 13.785156 9.855469 13.8125 C 9.851562 13.75 9.878906 13.722656 9.941406 13.726562 "/>
<path style=" stroke:none;fill-rule:nonzero;fill:rgb(93.34259%,69.538879%,50.706482%);fill-opacity:1;" d="M 33.152344 47.992188 C 33.175781 47.917969 33.238281 47.953125 33.289062 47.945312 C 33.261719 48.011719 33.199219 47.988281 33.152344 47.992188 "/>
<path style=" stroke:none;fill-rule:nonzero;fill:rgb(95.66803%,62.437439%,31.19812%);fill-opacity:1;" d="M 35.953125 46.746094 C 35.96875 46.667969 36.035156 46.707031 36.078125 46.699219 C 36.054688 46.765625 36 46.738281 35.953125 46.746094 "/>
<path style=" stroke:none;fill-rule:nonzero;fill:rgb(87.261963%,57.553101%,19.599915%);fill-opacity:1;" d="M 9.683594 13.980469 C 9.683594 13.960938 9.6875 13.933594 9.6875 13.910156 C 9.714844 13.90625 9.742188 13.902344 9.769531 13.898438 C 9.742188 13.925781 9.710938 13.953125 9.683594 13.980469 "/>
<path style=" stroke:none;fill-rule:nonzero;fill:rgb(95.66803%,62.437439%,31.19812%);fill-opacity:1;" d="M 36.292969 46.570312 C 36.320312 46.554688 36.351562 46.542969 36.378906 46.523438 C 36.351562 46.542969 36.320312 46.554688 36.292969 46.570312 "/>
<path style=" stroke:none;fill-rule:nonzero;fill:rgb(95.960999%,68.908691%,19.58313%);fill-opacity:1;" d="M 17.472656 47.597656 C 17.5 47.613281 17.527344 47.625 17.554688 47.636719 C 17.527344 47.625 17.5 47.613281 17.472656 47.597656 "/>
<path style=" stroke:none;fill-rule:nonzero;fill:rgb(95.960999%,68.908691%,19.58313%);fill-opacity:1;" d="M 17.632812 47.648438 C 17.667969 47.644531 17.714844 47.632812 17.722656 47.691406 C 17.695312 47.675781 17.660156 47.664062 17.632812 47.648438 "/>
<path style=" stroke:none;fill-rule:nonzero;fill:rgb(95.198059%,77.565002%,29.428101%);fill-opacity:1;" d="M 44.59375 17.511719 C 44.535156 17.503906 44.546875 17.460938 44.546875 17.425781 C 44.5625 17.453125 44.578125 17.480469 44.59375 17.511719 "/>
<path style=" stroke:none;fill-rule:nonzero;fill:rgb(87.261963%,57.553101%,19.599915%);fill-opacity:1;" d="M 9.855469 13.8125 C 9.839844 13.828125 9.828125 13.839844 9.8125 13.855469 C 9.828125 13.839844 9.839844 13.828125 9.855469 13.8125 "/>
<path style=" stroke:none;fill-rule:nonzero;fill:rgb(94.58313%,64.833069%,43.371582%);fill-opacity:1;" d="M 45.488281 19.320312 C 45.507812 19.320312 45.523438 19.316406 45.535156 19.316406 C 45.542969 19.332031 45.542969 19.34375 45.539062 19.359375 C 45.523438 19.34375 45.507812 19.332031 45.488281 19.320312 "/>
<path style=" stroke:none;fill-rule:nonzero;fill:rgb(87.261963%,57.553101%,19.599915%);fill-opacity:1;" d="M 9.984375 13.683594 C 9.972656 13.699219 9.957031 13.714844 9.945312 13.726562 C 9.957031 13.714844 9.972656 13.699219 9.984375 13.683594 "/>
<path style=" stroke:none;fill-rule:nonzero;fill:rgb(79.815674%,73.495483%,14.251709%);fill-opacity:1;" d="M 10.03125 13.644531 C 10.015625 13.65625 10 13.671875 9.988281 13.6875 C 10 13.671875 10.015625 13.65625 10.03125 13.644531 "/>
<path style=" stroke:none;fill-rule:nonzero;fill:rgb(89.131165%,81.686401%,10.484314%);fill-opacity:1;" d="M 11.921875 11.976562 C 11.910156 11.988281 11.898438 12 11.886719 12.011719 C 11.898438 12 11.910156 11.988281 11.921875 11.976562 "/>
<path style=" stroke:none;fill-rule:nonzero;fill:rgb(94.58313%,64.833069%,43.371582%);fill-opacity:1;" d="M 45.40625 19.027344 C 45.390625 19.007812 45.378906 18.988281 45.363281 18.972656 C 45.378906 18.988281 45.390625 19.007812 45.40625 19.027344 "/>
<path style=" stroke:none;fill-rule:nonzero;fill:rgb(87.261963%,57.553101%,19.599915%);fill-opacity:1;" d="M 9.8125 13.855469 C 9.796875 13.871094 9.785156 13.882812 9.769531 13.898438 C 9.785156 13.882812 9.796875 13.871094 9.8125 13.855469 "/>
<path style=" stroke:none;fill-rule:nonzero;fill:rgb(29.391479%,39.570618%,72.473145%);fill-opacity:1;" d="M 26.664062 9.300781 C 26.40625 9.289062 26.148438 9.277344 25.890625 9.253906 C 25.832031 9.25 25.777344 9.210938 25.71875 9.191406 C 25.832031 9.175781 25.9375 9.179688 26.050781 9.207031 C 26.230469 9.246094 26.414062 9.246094 26.597656 9.265625 C 26.621094 9.265625 26.640625 9.289062 26.664062 9.300781 "/>
<path style=" stroke:none;fill-rule:nonzero;fill:rgb(89.131165%,81.686401%,10.484314%);fill-opacity:1;" d="M 17.820312 47.59375 C 17.742188 47.609375 17.6875 47.574219 17.640625 47.519531 C 17.714844 47.507812 17.777344 47.527344 17.820312 47.59375 "/>
<path style=" stroke:none;fill-rule:nonzero;fill:rgb(79.815674%,73.495483%,14.251709%);fill-opacity:1;" d="M 17.507812 47.472656 C 17.464844 47.472656 17.421875 47.472656 17.382812 47.46875 C 17.382812 47.457031 17.382812 47.441406 17.382812 47.425781 C 17.425781 47.441406 17.46875 47.457031 17.507812 47.472656 "/>
<path style=" stroke:none;fill-rule:nonzero;fill:rgb(91.827393%,82.524109%,48.64502%);fill-opacity:1;" d="M 46.011719 20.648438 C 46.023438 20.664062 46.035156 20.679688 46.050781 20.695312 C 46.035156 20.679688 46.023438 20.664062 46.011719 20.648438 "/>
</g>
</svg>
