<?xml version="1.0" encoding="UTF-8"?>
<svg xmlns="http://www.w3.org/2000/svg" xmlns:xlink="http://www.w3.org/1999/xlink" width="56pt" height="56pt" viewBox="0 0 56 56" version="1.1">
<g id="surface1">
<rect x="0" y="0" width="56" height="56" style="fill:rgb(83.877563%,17.755127%,20.454407%);fill-opacity:1;stroke:none;"/>
<path style=" stroke:none;fill-rule:nonzero;fill:rgb(100%,100%,100%);fill-opacity:1;" d="M 30.871094 30.417969 L 24.71875 30.417969 C 24.71875 30.417969 22.53125 30.023438 23.625 27.652344 C 24.71875 25.28125 27.09375 20.097656 27.09375 20.097656 C 27.09375 20.097656 27.179688 18.332031 29.777344 18.332031 C 32.375 18.332031 36.066406 18.332031 36.066406 18.332031 Z M 47 15.914062 C 47 15.914062 33.96875 15.914062 27.542969 15.914062 C 21.121094 15.914062 20.574219 18.480469 20.574219 18.480469 C 20.574219 18.480469 16.519531 26.15625 15.152344 29.164062 C 13.785156 32.171875 19.113281 33.203125 19.113281 33.203125 L 15.289062 37.667969 L 9 37.667969 L 9 40.085938 L 21.832031 40.085938 L 22.566406 37.667969 L 21.601562 37.667969 L 24.308594 32.835938 L 29.140625 32.835938 L 27.191406 37.667969 L 25.8125 37.667969 L 24.949219 40.085938 L 38.007812 40.085938 L 38.007812 37.667969 L 36.441406 37.667969 L 47 15.914062 "/>
</g>
</svg>
