<?xml version="1.0" encoding="UTF-8"?>
<svg xmlns="http://www.w3.org/2000/svg" xmlns:xlink="http://www.w3.org/1999/xlink" width="56pt" height="56pt" viewBox="0 0 56 56" version="1.1">
<g id="surface1">
<rect x="0" y="0" width="56" height="56" style="fill:rgb(95.666504%,95.776367%,96.775818%);fill-opacity:1;stroke:none;"/>
<path style=" stroke:none;fill-rule:nonzero;fill:rgb(85.60791%,14.093018%,14.341736%);fill-opacity:1;" d="M 28.230469 47.25 C 26.636719 46.503906 25.773438 44.917969 25.988281 43.117188 C 26.140625 41.8125 26.898438 40.679688 27.984375 40.128906 C 31.425781 38.371094 35.070312 41.964844 33.332031 45.402344 C 32.433594 47.175781 29.976562 48.066406 28.230469 47.25 "/>
<path style=" stroke:none;fill-rule:nonzero;fill:rgb(85.60791%,14.093018%,14.341736%);fill-opacity:1;" d="M 33.695312 39.558594 C 33.5 39.34375 33.402344 39.070312 33.476562 38.953125 C 33.707031 38.578125 36.445312 36.289062 36.542969 36.386719 C 36.671875 36.519531 34.441406 39.949219 34.222656 39.949219 C 34.128906 39.949219 33.890625 39.773438 33.695312 39.558594 "/>
<path style=" stroke:none;fill-rule:nonzero;fill:rgb(85.60791%,14.093018%,14.341736%);fill-opacity:1;" d="M 35.128906 41.671875 C 35.066406 41.507812 35.078125 41.339844 35.15625 41.289062 C 35.445312 41.121094 39.152344 39.988281 39.835938 39.867188 L 40.542969 39.738281 L 39.738281 40.175781 C 38.867188 40.652344 35.683594 41.96875 35.410156 41.96875 C 35.316406 41.96875 35.191406 41.835938 35.128906 41.671875 "/>
<path style=" stroke:none;fill-rule:nonzero;fill:rgb(85.60791%,14.093018%,14.341736%);fill-opacity:1;" d="M 35.355469 45.261719 C 35.085938 45.1875 35.035156 45.027344 35.132812 44.527344 C 35.199219 44.171875 35.289062 43.84375 35.328125 43.796875 C 35.476562 43.628906 39.546875 44.664062 40.140625 45.023438 L 40.746094 45.390625 L 38.222656 45.371094 C 36.835938 45.359375 35.546875 45.308594 35.355469 45.261719 "/>
<path style=" stroke:none;fill-rule:nonzero;fill:rgb(85.60791%,14.093018%,14.341736%);fill-opacity:1;" d="M 36.132812 49.519531 C 35.035156 48.6875 33.957031 47.910156 33.734375 47.792969 C 33.339844 47.582031 33.34375 47.5625 33.859375 47.046875 C 34.320312 46.585938 34.421875 46.554688 34.660156 46.816406 C 36.410156 48.714844 38.410156 51.042969 38.285156 51.039062 C 38.195312 51.035156 37.226562 50.351562 36.132812 49.519531 "/>
<path style=" stroke:none;fill-rule:nonzero;fill:rgb(85.60791%,14.093018%,14.341736%);fill-opacity:1;" d="M 29.847656 51.851562 C 29.734375 51.132812 29.71875 50.507812 29.808594 50.46875 C 30.121094 50.335938 30.175781 50.589844 30.113281 51.878906 L 30.050781 53.164062 L 29.847656 51.851562 "/>
<path style=" stroke:none;fill-rule:nonzero;fill:rgb(85.60791%,14.093018%,14.341736%);fill-opacity:1;" d="M 25.3125 51.585938 C 25.3125 51.550781 25.457031 51.101562 25.628906 50.589844 C 25.839844 49.980469 26.039062 49.695312 26.214844 49.761719 C 26.414062 49.835938 26.359375 50.074219 25.980469 50.757812 C 25.546875 51.53125 25.3125 51.824219 25.3125 51.585938 "/>
<path style=" stroke:none;fill-rule:nonzero;fill:rgb(14.346313%,26.38092%,51.148987%);fill-opacity:1;" d="M 21.5 42.339844 C 21.371094 42.191406 20.925781 41.570312 20.511719 40.964844 C 20.046875 40.285156 19.25 39.507812 18.449219 38.953125 C 16.996094 37.949219 16.691406 37.609375 16.195312 36.425781 C 15.566406 34.933594 15.667969 34.820312 17.035156 35.511719 C 17.699219 35.84375 18.445312 36.117188 18.699219 36.117188 C 19.074219 36.117188 18.863281 35.84375 17.570312 34.664062 C 16.695312 33.863281 15.855469 32.921875 15.710938 32.574219 C 15.378906 31.78125 15.105469 29.257812 15.347656 29.265625 C 15.449219 29.265625 16.203125 29.855469 17.023438 30.574219 C 17.847656 31.292969 18.652344 31.882812 18.816406 31.882812 C 19.152344 31.882812 19.144531 31.871094 17.636719 30.066406 C 15.988281 28.089844 15.707031 27.398438 15.800781 25.5625 L 15.832031 24.992188 L 16.511719 25.5625 C 16.882812 25.875 17.792969 26.667969 18.53125 27.320312 C 19.269531 27.972656 19.921875 28.460938 19.984375 28.402344 C 20.042969 28.339844 19.679688 27.652344 19.179688 26.871094 C 18.25 25.417969 17.195312 23.425781 16.96875 22.703125 C 16.894531 22.460938 17.007812 22.027344 17.257812 21.621094 L 17.667969 20.941406 L 18.644531 22.203125 C 19.578125 23.414062 21.128906 24.820312 21.523438 24.820312 C 21.628906 24.820312 21.183594 23.84375 20.539062 22.652344 C 19.898438 21.460938 19.160156 20.050781 18.902344 19.523438 L 18.4375 18.5625 L 18.835938 17.65625 C 19.058594 17.160156 19.308594 16.753906 19.402344 16.753906 C 19.488281 16.757812 20.054688 17.542969 20.65625 18.503906 C 22 20.640625 22.816406 21.59375 23.304688 21.59375 C 23.617188 21.59375 23.515625 21.28125 22.621094 19.507812 C 21.269531 16.839844 20.5625 14.789062 20.746094 14.066406 C 20.820312 13.765625 21.144531 13.226562 21.464844 12.867188 L 22.046875 12.214844 L 22.40625 13.121094 C 23.027344 14.699219 24.722656 17.914062 25.125 18.277344 C 25.496094 18.613281 25.515625 18.613281 25.515625 18.261719 C 25.515625 18.058594 25.113281 16.660156 24.621094 15.152344 C 24.132812 13.648438 23.644531 11.945312 23.542969 11.367188 L 23.355469 10.320312 L 24.230469 9.460938 C 24.753906 8.949219 25.175781 8.675781 25.277344 8.792969 C 25.367188 8.898438 25.78125 10.160156 26.195312 11.597656 C 26.996094 14.375 27.671875 15.957031 28.125 16.109375 C 28.34375 16.179688 28.367188 16.019531 28.25 15.316406 C 28.039062 14.042969 27.75 9.683594 27.742188 7.652344 L 27.734375 5.914062 L 28.839844 5.179688 C 29.449219 4.777344 29.984375 4.445312 30.03125 4.445312 C 30.078125 4.445312 30.148438 6.621094 30.183594 9.277344 C 30.234375 12.671875 30.328125 14.179688 30.496094 14.351562 C 30.820312 14.671875 30.882812 14.371094 31.34375 10.195312 C 31.648438 7.429688 31.847656 6.445312 32.359375 5.121094 C 32.707031 4.214844 33.128906 3.359375 33.292969 3.222656 C 33.460938 3.085938 34.046875 2.929688 34.597656 2.878906 C 35.507812 2.789062 35.601562 2.820312 35.601562 3.195312 C 35.601562 3.425781 35.519531 3.828125 35.417969 4.09375 C 35.046875 5.066406 34.003906 10.089844 33.476562 13.421875 C 32.988281 16.527344 32.945312 17.195312 33.046875 20.484375 C 33.109375 22.480469 33.347656 25.738281 33.574219 27.726562 C 34.238281 33.53125 34.128906 35.027344 32.953125 36.316406 C 32.355469 36.96875 32.296875 36.988281 32.15625 36.617188 C 32.070312 36.398438 31.992188 35.78125 31.984375 35.246094 C 31.972656 34.429688 31.910156 34.28125 31.617188 34.339844 C 31.328125 34.394531 31.253906 34.664062 31.203125 35.84375 L 31.144531 37.28125 L 30.316406 37.410156 C 29.855469 37.484375 29.40625 37.46875 29.308594 37.371094 C 29.214844 37.277344 28.960938 36.578125 28.742188 35.816406 C 28.523438 35.054688 28.261719 34.34375 28.15625 34.242188 C 27.804688 33.890625 27.53125 34.320312 27.625 35.070312 C 27.964844 37.796875 27.992188 37.617188 27.105469 38.332031 L 26.289062 38.988281 L 25.398438 38.347656 C 24.371094 37.609375 24.316406 37.695312 25.019531 38.921875 L 25.527344 39.8125 L 25.066406 40.300781 C 24.71875 40.671875 24.445312 40.773438 23.949219 40.714844 C 23.164062 40.621094 23.117188 40.796875 23.800781 41.242188 C 24.289062 41.5625 24.460938 42.050781 24.152344 42.238281 C 24.070312 42.289062 23.492188 42.394531 22.867188 42.472656 C 22.027344 42.578125 21.675781 42.542969 21.5 42.339844 "/>
<path style=" stroke:none;fill-rule:nonzero;fill:rgb(14.346313%,26.38092%,51.148987%);fill-opacity:1;" d="M 22.5625 45.261719 C 22.386719 44.835938 22.121094 44.191406 21.96875 43.824219 L 21.695312 43.160156 L 22.949219 43.21875 L 24.203125 43.28125 L 24.386719 44.027344 C 24.59375 44.867188 24.472656 45.097656 23.507812 45.664062 L 22.882812 46.03125 L 22.5625 45.261719 "/>
<path style=" stroke:none;fill-rule:nonzero;fill:rgb(14.346313%,26.38092%,51.148987%);fill-opacity:1;" d="M 24.378906 47.808594 L 22.941406 46.40625 L 23.8125 46.40625 C 24.617188 46.40625 24.746094 46.480469 25.402344 47.34375 C 26.164062 48.339844 26.164062 48.339844 25.953125 48.867188 C 25.84375 49.148438 25.554688 48.953125 24.378906 47.808594 "/>
<path style=" stroke:none;fill-rule:nonzero;fill:rgb(14.346313%,26.38092%,51.148987%);fill-opacity:1;" d="M 27.808594 49.988281 C 26.78125 49.789062 26.777344 49.78125 27.164062 49.394531 C 27.460938 49.101562 27.625 49.054688 27.824219 49.222656 C 27.972656 49.34375 28.367188 49.464844 28.703125 49.488281 C 29.144531 49.519531 29.304688 49.628906 29.285156 49.886719 C 29.257812 50.273438 29.285156 50.269531 27.808594 49.988281 "/>
<path style=" stroke:none;fill-rule:nonzero;fill:rgb(85.995483%,14.073181%,14.321899%);fill-opacity:1;" d="M 28.261719 47.15625 C 25.445312 45.835938 25.320312 41.75 28.046875 40.226562 C 28.714844 39.855469 28.96875 39.792969 29.828125 39.796875 C 31.402344 39.804688 32.585938 40.542969 33.277344 41.949219 C 34.175781 43.789062 33.503906 45.859375 31.648438 46.945312 C 30.78125 47.457031 29.113281 47.558594 28.261719 47.15625 "/>
<path style=" stroke:none;fill-rule:nonzero;fill:rgb(85.995483%,14.073181%,14.321899%);fill-opacity:1;" d="M 33.847656 39.59375 C 33.71875 39.449219 33.613281 39.226562 33.613281 39.101562 C 33.613281 38.878906 35.980469 36.71875 36.226562 36.71875 C 36.394531 36.71875 35.203125 38.617188 34.421875 39.605469 C 34.171875 39.914062 34.140625 39.914062 33.847656 39.59375 "/>
<path style=" stroke:none;fill-rule:nonzero;fill:rgb(85.995483%,14.073181%,14.321899%);fill-opacity:1;" d="M 33.847656 39.59375 C 33.484375 39.191406 33.558594 38.941406 34.21875 38.339844 C 35.191406 37.449219 36.179688 36.671875 36.253906 36.742188 C 36.3125 36.800781 34.878906 39.046875 34.425781 39.605469 C 34.171875 39.914062 34.140625 39.914062 33.847656 39.59375 "/>
<path style=" stroke:none;fill-rule:nonzero;fill:rgb(85.995483%,14.073181%,14.321899%);fill-opacity:1;" d="M 35.414062 45.171875 C 35.191406 45.117188 35.164062 45.015625 35.242188 44.519531 C 35.292969 44.195312 35.367188 43.902344 35.40625 43.863281 C 35.507812 43.761719 39.085938 44.675781 39.777344 44.984375 L 40.390625 45.253906 L 38.035156 45.25 C 36.738281 45.246094 35.5625 45.210938 35.414062 45.171875 "/>
<path style=" stroke:none;fill-rule:nonzero;fill:rgb(85.995483%,14.073181%,14.321899%);fill-opacity:1;" d="M 35.679688 49.109375 C 34.738281 48.40625 33.886719 47.78125 33.785156 47.722656 C 33.546875 47.578125 33.679688 47.265625 34.109375 46.949219 L 34.449219 46.703125 L 35.921875 48.355469 C 38.160156 50.875 38.140625 50.941406 35.679688 49.109375 "/>
</g>
</svg>
