<?xml version="1.0" encoding="UTF-8"?>
<svg xmlns="http://www.w3.org/2000/svg" xmlns:xlink="http://www.w3.org/1999/xlink" width="56pt" height="56pt" viewBox="0 0 56 56" version="1.1">
<g id="surface1">
<rect x="0" y="0" width="56" height="56" style="fill:rgb(95.66803%,95.779419%,96.777344%);fill-opacity:1;stroke:none;"/>
<path style=" stroke:none;fill-rule:nonzero;fill:rgb(18.186951%,66.912842%,28.189087%);fill-opacity:1;" d="M 34.867188 21.957031 C 34.023438 22.328125 33.171875 22.699219 32.378906 23.015625 C 30.578125 23.8125 28.828125 24.660156 27.078125 25.558594 C 26.972656 25.613281 26.867188 25.613281 26.761719 25.613281 C 26.285156 25.664062 25.753906 25.71875 25.277344 25.773438 C 24.269531 25.929688 23.316406 26.035156 22.308594 26.25 C 20.773438 26.515625 19.238281 26.777344 17.699219 27.097656 C 15.367188 27.625 13.035156 28.15625 10.652344 28.738281 C 10.546875 28.738281 10.492188 28.792969 10.386719 28.792969 C 10.070312 28.84375 9.855469 28.738281 9.75 28.421875 C 9.644531 28.101562 9.699219 27.839844 10.015625 27.679688 C 10.441406 27.46875 10.863281 27.308594 11.289062 27.148438 C 14.359375 25.984375 17.488281 24.921875 20.667969 24.023438 C 22.945312 23.386719 25.277344 22.855469 27.609375 22.484375 C 29.09375 22.222656 30.578125 22.0625 32.058594 21.957031 C 32.960938 21.902344 33.863281 21.902344 34.761719 21.851562 C 34.761719 21.902344 34.816406 21.902344 34.867188 21.957031 C 34.867188 21.902344 34.867188 21.957031 34.867188 21.957031 "/>
<path style=" stroke:none;fill-rule:nonzero;fill:rgb(18.186951%,66.912842%,28.189087%);fill-opacity:1;" d="M 53.308594 26.621094 C 52.832031 26.515625 52.355469 26.460938 51.878906 26.355469 C 49.917969 26.035156 47.957031 25.71875 45.945312 25.453125 C 44.9375 25.292969 43.878906 25.292969 42.816406 25.1875 C 42.550781 25.1875 42.605469 25.136719 42.550781 25.082031 C 41.96875 24.234375 41.386719 23.441406 40.804688 22.59375 C 40.75 22.539062 40.699219 22.378906 40.644531 22.273438 C 44.988281 23.28125 49.28125 24.660156 53.308594 26.566406 C 53.308594 26.621094 53.308594 26.621094 53.308594 26.621094 "/>
<path style=" stroke:none;fill-rule:nonzero;fill:rgb(18.186951%,66.912842%,28.189087%);fill-opacity:1;" d="M 38.046875 23.441406 C 38.417969 23.96875 38.789062 24.445312 39.214844 24.976562 C 37.730469 24.976562 36.140625 24.976562 34.65625 24.976562 L 34.761719 24.921875 C 35.824219 24.445312 36.933594 23.917969 38.046875 23.441406 "/>
<path style=" stroke:none;fill-rule:nonzero;fill:rgb(15.791321%,35.246277%,64.318848%);fill-opacity:1;" d="M 37.996094 23.441406 C 38.898438 23.070312 39.796875 22.699219 40.699219 22.378906 C 41.121094 23.015625 41.546875 23.597656 41.96875 24.183594 C 43.507812 26.300781 44.617188 28.632812 45.625 31.019531 C 46.421875 32.871094 47.003906 34.726562 47.535156 36.636719 C 47.535156 36.6875 47.585938 36.742188 47.585938 36.847656 C 47.640625 37.164062 47.535156 37.429688 47.214844 37.535156 C 46.898438 37.640625 46.632812 37.589844 46.472656 37.269531 C 46.210938 36.792969 45.996094 36.265625 45.730469 35.734375 C 43.929688 32.023438 41.808594 28.472656 39.320312 25.1875 C 38.898438 24.660156 38.527344 24.128906 38.101562 23.597656 C 38.101562 23.546875 38.046875 23.546875 37.996094 23.441406 "/>
<path style=" stroke:none;fill-rule:nonzero;fill:rgb(15.791321%,35.246277%,64.318848%);fill-opacity:1;" d="M 37.996094 19.09375 C 37.359375 19.042969 36.722656 18.9375 36.089844 18.882812 C 35.453125 18.832031 34.816406 18.777344 34.179688 18.722656 C 34.023438 18.722656 33.914062 18.671875 33.808594 18.566406 C 32.90625 17.664062 32.007812 16.710938 31.054688 15.808594 C 28.988281 13.796875 26.761719 11.886719 24.535156 10.085938 C 24.429688 10.03125 24.324219 9.925781 24.269531 9.820312 C 24.058594 9.554688 24.058594 9.292969 24.269531 9.078125 C 24.484375 8.816406 24.746094 8.761719 25.066406 8.921875 C 25.332031 9.078125 25.59375 9.238281 25.859375 9.398438 C 28.296875 11.039062 30.734375 12.734375 33.066406 14.589844 C 34.65625 15.863281 36.195312 17.238281 37.570312 18.671875 C 37.730469 18.832031 37.835938 18.988281 37.996094 19.09375 "/>
<path style=" stroke:none;fill-rule:nonzero;fill:rgb(98.458862%,78.45459%,2.978516%);fill-opacity:1;" d="M 40.964844 22.328125 C 40.378906 22.539062 39.320312 22.964844 38.738281 23.226562 C 33.96875 25.082031 29.515625 27.519531 25.171875 30.277344 C 21.9375 32.34375 18.761719 34.570312 15.6875 36.953125 C 13.144531 38.96875 10.597656 41.03125 8.054688 43.046875 C 6.519531 44.320312 5.035156 45.644531 3.5 46.914062 C 3.390625 47.019531 3.234375 47.074219 3.074219 47.125 C 2.808594 47.234375 2.597656 47.125 2.4375 46.914062 C 2.28125 46.703125 2.28125 46.492188 2.4375 46.28125 C 2.648438 46.015625 2.914062 45.75 3.179688 45.484375 C 5.566406 42.886719 7.949219 40.289062 10.546875 37.851562 C 14.679688 33.933594 19.078125 30.382812 23.898438 27.359375 C 27.183594 25.292969 30.734375 23.597656 34.339844 22.167969 C 34.761719 22.007812 35.1875 21.796875 35.609375 21.691406 C 35.71875 21.640625 36.300781 21.480469 36.351562 21.480469 C 37.675781 21.691406 38.578125 21.902344 39.957031 22.167969 C 40.113281 22.167969 40.804688 22.328125 40.964844 22.328125 "/>
<path style=" stroke:none;fill-rule:nonzero;fill:rgb(98.458862%,78.45459%,2.978516%);fill-opacity:1;" d="M 41.175781 20.046875 C 41.652344 19.941406 42.179688 19.730469 42.605469 19.625 C 44.195312 19.253906 45.785156 18.882812 47.375 18.566406 C 48.753906 18.300781 50.132812 18.089844 51.507812 17.875 C 51.667969 17.875 51.828125 17.875 51.984375 17.875 C 52.25 17.929688 52.460938 18.089844 52.460938 18.351562 C 52.515625 18.617188 52.410156 18.832031 52.144531 18.9375 C 51.667969 19.09375 51.242188 19.199219 50.765625 19.304688 C 48.859375 19.835938 46.898438 20.367188 44.988281 20.898438 C 44.726562 20.949219 44.515625 20.949219 44.300781 20.898438 C 43.347656 20.578125 42.394531 20.367188 41.492188 20.046875 C 41.441406 20.101562 41.28125 20.101562 41.175781 20.046875 "/>
<path style=" stroke:none;fill-rule:nonzero;fill:rgb(92.700195%,11.358643%,15.148926%);fill-opacity:1;" d="M 23.742188 20.472656 C 22.628906 20.472656 21.460938 20.472656 20.347656 20.472656 C 20.242188 20.472656 20.085938 20.472656 19.976562 20.417969 C 19.765625 20.367188 19.605469 20.207031 19.554688 19.941406 C 19.5 19.675781 19.605469 19.464844 19.871094 19.359375 C 20.085938 19.304688 20.296875 19.253906 20.507812 19.199219 C 21.410156 19.09375 22.363281 18.9375 23.265625 18.882812 C 24.007812 18.777344 24.800781 18.722656 25.542969 18.671875 C 26.550781 18.617188 27.554688 18.511719 28.5625 18.460938 C 29.78125 18.40625 31.054688 18.40625 32.273438 18.460938 C 33.4375 18.511719 34.550781 18.617188 35.664062 18.722656 C 37.09375 18.882812 38.527344 19.09375 39.957031 19.414062 C 41.492188 19.730469 42.921875 20.207031 44.40625 20.738281 C 46.421875 21.480469 48.382812 22.433594 50.234375 23.546875 C 51.296875 24.183594 52.300781 24.816406 53.308594 25.453125 C 53.363281 25.507812 53.414062 25.558594 53.46875 25.558594 C 53.679688 25.773438 53.734375 25.984375 53.628906 26.25 C 53.523438 26.515625 53.363281 26.621094 53.042969 26.566406 C 52.886719 26.566406 52.726562 26.515625 52.621094 26.460938 C 50.605469 25.453125 48.488281 24.660156 46.367188 23.917969 C 44.355469 23.226562 42.339844 22.644531 40.273438 22.167969 C 38.898438 21.851562 37.570312 21.640625 36.195312 21.375 C 35.238281 21.214844 34.234375 21.054688 33.226562 20.949219 C 32.429688 20.84375 31.691406 20.789062 30.894531 20.738281 C 29.886719 20.632812 28.882812 20.578125 27.925781 20.527344 C 26.707031 20.472656 25.542969 20.472656 24.324219 20.417969 C 24.21875 20.472656 24.007812 20.472656 23.742188 20.472656 "/>
</g>
</svg>
