<?xml version="1.0" encoding="UTF-8"?>
<svg xmlns="http://www.w3.org/2000/svg" xmlns:xlink="http://www.w3.org/1999/xlink" width="56pt" height="56pt" viewBox="0 0 56 56" version="1.1">
<defs>
<clipPath id="clip1">
  <path d="M 0 18 L 50 18 L 50 31 L 0 31 Z M 0 18 "/>
</clipPath>
<clipPath id="clip2">
  <path d="M 0.914062 24.730469 C 0.992188 24.535156 1.070312 24.339844 1.152344 24.144531 C 1.523438 23.269531 2.171875 22.652344 2.996094 22.203125 C 3.769531 21.785156 4.59375 21.554688 5.464844 21.449219 C 7.164062 21.246094 8.867188 21.222656 10.570312 21.371094 C 10.683594 21.382812 10.800781 21.382812 10.925781 21.390625 C 10.644531 21.042969 8.980469 20.5 8.035156 20.382812 C 7.011719 20.253906 5.996094 20.289062 4.980469 20.503906 C 4.96875 20.480469 4.957031 20.457031 4.941406 20.429688 C 5.195312 20.21875 5.429688 19.988281 5.699219 19.796875 C 6.839844 18.980469 8.097656 18.824219 9.4375 19.160156 C 10.761719 19.496094 11.945312 20.136719 13.035156 20.929688 C 14.550781 22.035156 16.015625 23.203125 17.496094 24.351562 C 18.675781 25.265625 19.847656 26.191406 21.167969 26.910156 C 22.015625 27.371094 22.929688 27.589844 23.867188 27.742188 C 24.910156 27.914062 25.960938 27.917969 27.011719 27.804688 C 27.097656 27.792969 27.183594 27.769531 27.285156 27.703125 C 27.199219 27.664062 27.109375 27.625 27.023438 27.589844 C 26.085938 27.214844 25.210938 26.738281 24.503906 26.003906 C 23.730469 25.199219 23.308594 24.246094 23.429688 23.117188 C 23.535156 22.101562 24.019531 21.257812 24.753906 20.558594 C 25.804688 19.5625 27.074219 19.089844 28.511719 19.074219 C 29.640625 19.0625 30.679688 19.414062 31.667969 19.953125 C 32.964844 20.65625 34.136719 21.539062 35.300781 22.429688 C 37.015625 23.742188 38.71875 25.066406 40.453125 26.347656 C 41.484375 27.113281 42.59375 27.765625 43.769531 28.289062 C 44.90625 28.792969 46.082031 29.179688 47.347656 29.117188 C 47.855469 29.09375 48.359375 28.960938 48.859375 28.875 C 48.917969 28.867188 48.976562 28.847656 49.03125 28.835938 C 49.046875 28.855469 49.0625 28.871094 49.078125 28.890625 C 48.882812 29.070312 48.699219 29.269531 48.488281 29.425781 C 47.558594 30.121094 46.507812 30.320312 45.375 30.183594 C 44.066406 30.03125 42.855469 29.5625 41.679688 29.003906 C 40.183594 28.289062 38.8125 27.359375 37.425781 26.457031 C 35.960938 25.503906 34.496094 24.542969 33.003906 23.628906 C 32.050781 23.046875 31.042969 22.546875 29.921875 22.394531 C 29.421875 22.324219 28.890625 22.328125 28.398438 22.425781 C 27.578125 22.59375 27.039062 23.34375 26.953125 24.253906 C 26.882812 24.996094 27.300781 25.714844 28.027344 26.082031 C 28.511719 26.328125 29.023438 26.4375 29.5625 26.429688 C 30.914062 26.40625 32.269531 26.386719 33.621094 26.367188 C 33.71875 26.367188 33.8125 26.367188 33.957031 26.367188 C 33.890625 26.445312 33.867188 26.492188 33.828125 26.515625 C 32.695312 27.203125 31.578125 27.921875 30.417969 28.5625 C 28.765625 29.472656 26.96875 29.882812 25.085938 29.8125 C 23.964844 29.773438 22.847656 29.648438 21.730469 29.542969 C 20 29.378906 18.421875 28.722656 16.910156 27.921875 C 15.238281 27.035156 13.605469 26.082031 11.945312 25.171875 C 10.867188 24.578125 9.78125 24 8.597656 23.640625 C 7.332031 23.257812 6.035156 23.148438 4.71875 23.28125 C 3.351562 23.421875 2.136719 23.925781 1.070312 24.789062 C 1.023438 24.832031 0.96875 24.855469 0.914062 24.890625 C 0.914062 24.835938 0.914062 24.785156 0.914062 24.730469 Z M 0.914062 24.730469 "/>
</clipPath>
<clipPath id="clip3">
  <path d="M 0.914062 24.730469 C 0.992188 24.535156 1.070312 24.339844 1.152344 24.144531 C 1.523438 23.269531 2.171875 22.652344 2.996094 22.203125 C 3.769531 21.785156 4.59375 21.554688 5.464844 21.449219 C 7.164062 21.246094 8.867188 21.222656 10.570312 21.371094 C 10.683594 21.382812 10.800781 21.382812 10.925781 21.390625 C 10.644531 21.042969 8.980469 20.5 8.035156 20.382812 C 7.011719 20.253906 5.996094 20.289062 4.980469 20.503906 C 4.96875 20.480469 4.957031 20.457031 4.941406 20.429688 C 5.195312 20.21875 5.429688 19.988281 5.699219 19.796875 C 6.839844 18.980469 8.097656 18.824219 9.4375 19.160156 C 10.761719 19.496094 11.945312 20.136719 13.035156 20.929688 C 14.550781 22.035156 16.015625 23.203125 17.496094 24.351562 C 18.675781 25.265625 19.847656 26.191406 21.167969 26.910156 C 22.015625 27.371094 22.929688 27.589844 23.867188 27.742188 C 24.910156 27.914062 25.960938 27.917969 27.011719 27.804688 C 27.097656 27.792969 27.183594 27.769531 27.285156 27.703125 C 27.199219 27.664062 27.109375 27.625 27.023438 27.589844 C 26.085938 27.214844 25.210938 26.738281 24.503906 26.003906 C 23.730469 25.199219 23.308594 24.246094 23.429688 23.117188 C 23.535156 22.101562 24.019531 21.257812 24.753906 20.558594 C 25.804688 19.5625 27.074219 19.089844 28.511719 19.074219 C 29.640625 19.0625 30.679688 19.414062 31.667969 19.953125 C 32.964844 20.65625 34.136719 21.539062 35.300781 22.429688 C 37.015625 23.742188 38.71875 25.066406 40.453125 26.347656 C 41.484375 27.113281 42.59375 27.765625 43.769531 28.289062 C 44.90625 28.792969 46.082031 29.179688 47.347656 29.117188 C 47.855469 29.09375 48.359375 28.960938 48.859375 28.875 C 48.917969 28.867188 48.976562 28.847656 49.03125 28.835938 C 49.046875 28.855469 49.0625 28.871094 49.078125 28.890625 C 48.882812 29.070312 48.699219 29.269531 48.488281 29.425781 C 47.558594 30.121094 46.507812 30.320312 45.375 30.183594 C 44.066406 30.03125 42.855469 29.5625 41.679688 29.003906 C 40.183594 28.289062 38.8125 27.359375 37.425781 26.457031 C 35.960938 25.503906 34.496094 24.542969 33.003906 23.628906 C 32.050781 23.046875 31.042969 22.546875 29.921875 22.394531 C 29.421875 22.324219 28.890625 22.328125 28.398438 22.425781 C 27.578125 22.59375 27.039062 23.34375 26.953125 24.253906 C 26.882812 24.996094 27.300781 25.714844 28.027344 26.082031 C 28.511719 26.328125 29.023438 26.4375 29.5625 26.429688 C 30.914062 26.40625 32.269531 26.386719 33.621094 26.367188 C 33.71875 26.367188 33.8125 26.367188 33.957031 26.367188 C 33.890625 26.445312 33.867188 26.492188 33.828125 26.515625 C 32.695312 27.203125 31.578125 27.921875 30.417969 28.5625 C 28.765625 29.472656 26.96875 29.882812 25.085938 29.8125 C 23.964844 29.773438 22.847656 29.648438 21.730469 29.542969 C 20 29.378906 18.421875 28.722656 16.910156 27.921875 C 15.238281 27.035156 13.605469 26.082031 11.945312 25.171875 C 10.867188 24.578125 9.78125 24 8.597656 23.640625 C 7.332031 23.257812 6.035156 23.148438 4.71875 23.28125 C 3.351562 23.421875 2.136719 23.925781 1.070312 24.789062 C 1.023438 24.832031 0.96875 24.855469 0.914062 24.890625 C 0.914062 24.835938 0.914062 24.785156 0.914062 24.730469 "/>
</clipPath>
<linearGradient id="linear0" gradientUnits="userSpaceOnUse" x1="-0.00000103818" y1="0" x2="1" y2="0" gradientTransform="matrix(48.1613,0,0,48.1613,0.914894,24.6091)">
<stop offset="0" style="stop-color:rgb(26.351929%,53.759766%,81.562805%);stop-opacity:1;"/>
<stop offset="0.0078125" style="stop-color:rgb(26.289368%,53.631592%,81.486511%);stop-opacity:1;"/>
<stop offset="0.015625" style="stop-color:rgb(26.161194%,53.373718%,81.332397%);stop-opacity:1;"/>
<stop offset="0.0234375" style="stop-color:rgb(26.034546%,53.117371%,81.178284%);stop-opacity:1;"/>
<stop offset="0.03125" style="stop-color:rgb(25.907898%,52.861023%,81.02417%);stop-opacity:1;"/>
<stop offset="0.0351562" style="stop-color:rgb(25.793457%,52.552795%,80.834961%);stop-opacity:1;"/>
<stop offset="0.0390625" style="stop-color:rgb(25.741577%,52.371216%,80.723572%);stop-opacity:1;"/>
<stop offset="0.0429687" style="stop-color:rgb(25.691223%,52.186584%,80.609131%);stop-opacity:1;"/>
<stop offset="0.046875" style="stop-color:rgb(25.640869%,52.001953%,80.496216%);stop-opacity:1;"/>
<stop offset="0.0507812" style="stop-color:rgb(25.579834%,51.870728%,80.415344%);stop-opacity:1;"/>
<stop offset="0.0546875" style="stop-color:rgb(25.517273%,51.737976%,80.335999%);stop-opacity:1;"/>
<stop offset="0.0625" style="stop-color:rgb(25.456238%,51.612854%,80.259705%);stop-opacity:1;"/>
<stop offset="0.0664062" style="stop-color:rgb(25.343323%,51.31073%,80.073547%);stop-opacity:1;"/>
<stop offset="0.0703125" style="stop-color:rgb(25.289917%,51.135254%,79.96521%);stop-opacity:1;"/>
<stop offset="0.0742187" style="stop-color:rgb(25.241089%,50.953674%,79.850769%);stop-opacity:1;"/>
<stop offset="0.078125" style="stop-color:rgb(25.192261%,50.770569%,79.737854%);stop-opacity:1;"/>
<stop offset="0.0820312" style="stop-color:rgb(25.143433%,50.590515%,79.624939%);stop-opacity:1;"/>
<stop offset="0.0859375" style="stop-color:rgb(25.093079%,50.40741%,79.512024%);stop-opacity:1;"/>
<stop offset="0.0898437" style="stop-color:rgb(25.045776%,50.227356%,79.397583%);stop-opacity:1;"/>
<stop offset="0.09375" style="stop-color:rgb(24.996948%,50.045776%,79.284668%);stop-opacity:1;"/>
<stop offset="0.0976562" style="stop-color:rgb(24.937439%,49.911499%,79.202271%);stop-opacity:1;"/>
<stop offset="0.101562" style="stop-color:rgb(24.87793%,49.777222%,79.118347%);stop-opacity:1;"/>
<stop offset="0.109375" style="stop-color:rgb(24.81842%,49.653625%,79.042053%);stop-opacity:1;"/>
<stop offset="0.117188" style="stop-color:rgb(24.630737%,49.398804%,78.887939%);stop-opacity:1;"/>
<stop offset="0.125" style="stop-color:rgb(24.356079%,49.136353%,78.730774%);stop-opacity:1;"/>
<stop offset="0.132812" style="stop-color:rgb(24.127197%,48.880005%,78.57666%);stop-opacity:1;"/>
<stop offset="0.140625" style="stop-color:rgb(23.983765%,48.632812%,78.424072%);stop-opacity:1;"/>
<stop offset="0.144531" style="stop-color:rgb(23.934937%,48.358154%,78.24707%);stop-opacity:1;"/>
<stop offset="0.148437" style="stop-color:rgb(23.945618%,48.202515%,78.146362%);stop-opacity:1;"/>
<stop offset="0.152344" style="stop-color:rgb(23.985291%,48.036194%,78.036499%);stop-opacity:1;"/>
<stop offset="0.15625" style="stop-color:rgb(24.023438%,47.868347%,77.926636%);stop-opacity:1;"/>
<stop offset="0.160156" style="stop-color:rgb(23.937988%,47.72644%,77.838135%);stop-opacity:1;"/>
<stop offset="0.164062" style="stop-color:rgb(23.851013%,47.584534%,77.749634%);stop-opacity:1;"/>
<stop offset="0.171875" style="stop-color:rgb(23.706055%,47.45636%,77.671814%);stop-opacity:1;"/>
<stop offset="0.175781" style="stop-color:rgb(23.48175%,47.169495%,77.494812%);stop-opacity:1;"/>
<stop offset="0.179687" style="stop-color:rgb(23.400879%,47.010803%,77.394104%);stop-opacity:1;"/>
<stop offset="0.183594" style="stop-color:rgb(23.355103%,46.836853%,77.282715%);stop-opacity:1;"/>
<stop offset="0.1875" style="stop-color:rgb(23.309326%,46.662903%,77.1698%);stop-opacity:1;"/>
<stop offset="0.191406" style="stop-color:rgb(23.257446%,46.522522%,77.079773%);stop-opacity:1;"/>
<stop offset="0.195312" style="stop-color:rgb(23.202515%,46.383667%,76.991272%);stop-opacity:1;"/>
<stop offset="0.203125" style="stop-color:rgb(23.144531%,46.266174%,76.916504%);stop-opacity:1;"/>
<stop offset="0.207031" style="stop-color:rgb(23.036194%,45.99762%,76.74408%);stop-opacity:1;"/>
<stop offset="0.210938" style="stop-color:rgb(22.98584%,45.848083%,76.646423%);stop-opacity:1;"/>
<stop offset="0.214844" style="stop-color:rgb(22.941589%,45.675659%,76.535034%);stop-opacity:1;"/>
<stop offset="0.21875" style="stop-color:rgb(22.897339%,45.503235%,76.423645%);stop-opacity:1;"/>
<stop offset="0.222656" style="stop-color:rgb(22.853088%,45.332336%,76.312256%);stop-opacity:1;"/>
<stop offset="0.226562" style="stop-color:rgb(22.808838%,45.159912%,76.200867%);stop-opacity:1;"/>
<stop offset="0.230469" style="stop-color:rgb(22.764587%,44.989014%,76.089478%);stop-opacity:1;"/>
<stop offset="0.234375" style="stop-color:rgb(22.720337%,44.818115%,75.978088%);stop-opacity:1;"/>
<stop offset="0.238281" style="stop-color:rgb(22.669983%,44.677734%,75.88501%);stop-opacity:1;"/>
<stop offset="0.242188" style="stop-color:rgb(22.618103%,44.534302%,75.793457%);stop-opacity:1;"/>
<stop offset="0.25" style="stop-color:rgb(22.561646%,44.419861%,75.718689%);stop-opacity:1;"/>
<stop offset="0.253906" style="stop-color:rgb(22.45636%,44.161987%,75.550842%);stop-opacity:1;"/>
<stop offset="0.257812" style="stop-color:rgb(22.40448%,44.020081%,75.457764%);stop-opacity:1;"/>
<stop offset="0.261719" style="stop-color:rgb(22.361755%,43.852234%,75.346375%);stop-opacity:1;"/>
<stop offset="0.265625" style="stop-color:rgb(22.320557%,43.682861%,75.234985%);stop-opacity:1;"/>
<stop offset="0.269531" style="stop-color:rgb(22.277832%,43.513489%,75.123596%);stop-opacity:1;"/>
<stop offset="0.273437" style="stop-color:rgb(22.233582%,43.345642%,75.012207%);stop-opacity:1;"/>
<stop offset="0.277344" style="stop-color:rgb(22.192383%,43.177795%,74.902344%);stop-opacity:1;"/>
<stop offset="0.28125" style="stop-color:rgb(22.149658%,43.009949%,74.790955%);stop-opacity:1;"/>
<stop offset="0.285156" style="stop-color:rgb(22.102356%,42.866516%,74.69635%);stop-opacity:1;"/>
<stop offset="0.289062" style="stop-color:rgb(22.053528%,42.723083%,74.60022%);stop-opacity:1;"/>
<stop offset="0.296875" style="stop-color:rgb(21.998596%,42.610168%,74.526978%);stop-opacity:1;"/>
<stop offset="0.300781" style="stop-color:rgb(21.861267%,42.36145%,74.362183%);stop-opacity:1;"/>
<stop offset="0.304687" style="stop-color:rgb(21.777344%,42.225647%,74.272156%);stop-opacity:1;"/>
<stop offset="0.308594" style="stop-color:rgb(21.653748%,42.056274%,74.160767%);stop-opacity:1;"/>
<stop offset="0.3125" style="stop-color:rgb(21.528625%,41.886902%,74.047852%);stop-opacity:1;"/>
<stop offset="0.316406" style="stop-color:rgb(21.435547%,41.720581%,73.936462%);stop-opacity:1;"/>
<stop offset="0.320312" style="stop-color:rgb(21.340942%,41.552734%,73.825073%);stop-opacity:1;"/>
<stop offset="0.324219" style="stop-color:rgb(21.30127%,41.389465%,73.71521%);stop-opacity:1;"/>
<stop offset="0.328125" style="stop-color:rgb(21.261597%,41.226196%,73.605347%);stop-opacity:1;"/>
<stop offset="0.332031" style="stop-color:rgb(21.21582%,41.079712%,73.50769%);stop-opacity:1;"/>
<stop offset="0.335937" style="stop-color:rgb(21.170044%,40.934753%,73.408508%);stop-opacity:1;"/>
<stop offset="0.34375" style="stop-color:rgb(21.116638%,40.82489%,73.335266%);stop-opacity:1;"/>
<stop offset="0.347656" style="stop-color:rgb(21.014404%,40.589905%,73.176575%);stop-opacity:1;"/>
<stop offset="0.351562" style="stop-color:rgb(20.96405%,40.464783%,73.091125%);stop-opacity:1;"/>
<stop offset="0.355469" style="stop-color:rgb(20.924377%,40.30304%,72.981262%);stop-opacity:1;"/>
<stop offset="0.359375" style="stop-color:rgb(20.88623%,40.141296%,72.871399%);stop-opacity:1;"/>
<stop offset="0.363281" style="stop-color:rgb(20.846558%,39.979553%,72.761536%);stop-opacity:1;"/>
<stop offset="0.367187" style="stop-color:rgb(20.806885%,39.819336%,72.651672%);stop-opacity:1;"/>
<stop offset="0.371094" style="stop-color:rgb(20.768738%,39.657593%,72.541809%);stop-opacity:1;"/>
<stop offset="0.375" style="stop-color:rgb(20.730591%,39.497375%,72.431946%);stop-opacity:1;"/>
<stop offset="0.378906" style="stop-color:rgb(20.687866%,39.349365%,72.331238%);stop-opacity:1;"/>
<stop offset="0.382812" style="stop-color:rgb(20.646667%,39.202881%,72.23053%);stop-opacity:1;"/>
<stop offset="0.390625" style="stop-color:rgb(20.593262%,39.096069%,72.157288%);stop-opacity:1;"/>
<stop offset="0.394531" style="stop-color:rgb(20.491028%,38.871765%,72.003174%);stop-opacity:1;"/>
<stop offset="0.398438" style="stop-color:rgb(20.4422%,38.754272%,71.920776%);stop-opacity:1;"/>
<stop offset="0.402344" style="stop-color:rgb(20.404053%,38.595581%,71.812439%);stop-opacity:1;"/>
<stop offset="0.40625" style="stop-color:rgb(20.365906%,38.43689%,71.702576%);stop-opacity:1;"/>
<stop offset="0.410156" style="stop-color:rgb(20.314026%,38.278198%,71.592712%);stop-opacity:1;"/>
<stop offset="0.414062" style="stop-color:rgb(20.262146%,38.121033%,71.482849%);stop-opacity:1;"/>
<stop offset="0.417969" style="stop-color:rgb(20.144653%,37.962341%,71.372986%);stop-opacity:1;"/>
<stop offset="0.421875" style="stop-color:rgb(20.025635%,37.805176%,71.263123%);stop-opacity:1;"/>
<stop offset="0.425781" style="stop-color:rgb(19.918823%,37.64801%,71.153259%);stop-opacity:1;"/>
<stop offset="0.429688" style="stop-color:rgb(19.813538%,37.492371%,71.043396%);stop-opacity:1;"/>
<stop offset="0.433594" style="stop-color:rgb(19.778442%,37.335205%,70.935059%);stop-opacity:1;"/>
<stop offset="0.4375" style="stop-color:rgb(19.740295%,37.179565%,70.825195%);stop-opacity:1;"/>
<stop offset="0.441406" style="stop-color:rgb(19.703674%,37.031555%,70.721436%);stop-opacity:1;"/>
<stop offset="0.445312" style="stop-color:rgb(19.665527%,36.882019%,70.61615%);stop-opacity:1;"/>
<stop offset="0.453125" style="stop-color:rgb(19.615173%,36.779785%,70.542908%);stop-opacity:1;"/>
<stop offset="0.457031" style="stop-color:rgb(19.514465%,36.569214%,70.394897%);stop-opacity:1;"/>
<stop offset="0.460938" style="stop-color:rgb(19.465637%,36.462402%,70.318604%);stop-opacity:1;"/>
<stop offset="0.464844" style="stop-color:rgb(19.430542%,36.308289%,70.210266%);stop-opacity:1;"/>
<stop offset="0.46875" style="stop-color:rgb(19.393921%,36.155701%,70.101929%);stop-opacity:1;"/>
<stop offset="0.472656" style="stop-color:rgb(19.360352%,36.000061%,69.992065%);stop-opacity:1;"/>
<stop offset="0.476562" style="stop-color:rgb(19.326782%,35.844421%,69.882202%);stop-opacity:1;"/>
<stop offset="0.480469" style="stop-color:rgb(19.306946%,35.641479%,69.737244%);stop-opacity:1;"/>
<stop offset="0.484375" style="stop-color:rgb(19.287109%,35.437012%,69.592285%);stop-opacity:1;"/>
<stop offset="0.488281" style="stop-color:rgb(19.267273%,35.235596%,69.448853%);stop-opacity:1;"/>
<stop offset="0.492187" style="stop-color:rgb(19.248962%,35.03418%,69.306946%);stop-opacity:1;"/>
<stop offset="0.5" style="stop-color:rgb(19.200134%,34.934998%,69.235229%);stop-opacity:1;"/>
<stop offset="0.507812" style="stop-color:rgb(19.100952%,34.735107%,69.090271%);stop-opacity:1;"/>
<stop offset="0.511719" style="stop-color:rgb(18.940735%,34.487915%,68.910217%);stop-opacity:1;"/>
<stop offset="0.515625" style="stop-color:rgb(18.82782%,34.341431%,68.80188%);stop-opacity:1;"/>
<stop offset="0.519531" style="stop-color:rgb(18.714905%,34.196472%,68.693542%);stop-opacity:1;"/>
<stop offset="0.523437" style="stop-color:rgb(18.60199%,34.049988%,68.585205%);stop-opacity:1;"/>
<stop offset="0.527344" style="stop-color:rgb(18.565369%,33.901978%,68.476868%);stop-opacity:1;"/>
<stop offset="0.53125" style="stop-color:rgb(18.528748%,33.753967%,68.370056%);stop-opacity:1;"/>
<stop offset="0.535156" style="stop-color:rgb(18.496704%,33.605957%,68.261719%);stop-opacity:1;"/>
<stop offset="0.539062" style="stop-color:rgb(18.464661%,33.457947%,68.154907%);stop-opacity:1;"/>
<stop offset="0.542969" style="stop-color:rgb(18.417358%,33.357239%,68.080139%);stop-opacity:1;"/>
<stop offset="0.546875" style="stop-color:rgb(18.370056%,33.256531%,68.005371%);stop-opacity:1;"/>
<stop offset="0.554687" style="stop-color:rgb(18.322754%,33.1604%,67.933655%);stop-opacity:1;"/>
<stop offset="0.558594" style="stop-color:rgb(18.173218%,32.925415%,67.758179%);stop-opacity:1;"/>
<stop offset="0.5625" style="stop-color:rgb(18.069458%,32.789612%,67.654419%);stop-opacity:1;"/>
<stop offset="0.566406" style="stop-color:rgb(17.959595%,32.649231%,67.547607%);stop-opacity:1;"/>
<stop offset="0.570312" style="stop-color:rgb(17.848206%,32.507324%,67.440796%);stop-opacity:1;"/>
<stop offset="0.574219" style="stop-color:rgb(17.807007%,32.363892%,67.333984%);stop-opacity:1;"/>
<stop offset="0.578125" style="stop-color:rgb(17.764282%,32.220459%,67.225647%);stop-opacity:1;"/>
<stop offset="0.582031" style="stop-color:rgb(17.733765%,32.0755%,67.118835%);stop-opacity:1;"/>
<stop offset="0.585937" style="stop-color:rgb(17.704773%,31.932068%,67.012024%);stop-opacity:1;"/>
<stop offset="0.589844" style="stop-color:rgb(17.674255%,31.788635%,66.905212%);stop-opacity:1;"/>
<stop offset="0.59375" style="stop-color:rgb(17.642212%,31.645203%,66.798401%);stop-opacity:1;"/>
<stop offset="0.597656" style="stop-color:rgb(17.61322%,31.50177%,66.691589%);stop-opacity:1;"/>
<stop offset="0.601562" style="stop-color:rgb(17.584229%,31.359863%,66.584778%);stop-opacity:1;"/>
<stop offset="0.605469" style="stop-color:rgb(17.492676%,31.222534%,66.477966%);stop-opacity:1;"/>
<stop offset="0.609375" style="stop-color:rgb(17.401123%,31.085205%,66.371155%);stop-opacity:1;"/>
<stop offset="0.613281" style="stop-color:rgb(17.294312%,30.949402%,66.265869%);stop-opacity:1;"/>
<stop offset="0.617187" style="stop-color:rgb(17.185974%,30.815125%,66.159058%);stop-opacity:1;"/>
<stop offset="0.621094" style="stop-color:rgb(17.066956%,30.717468%,66.079712%);stop-opacity:1;"/>
<stop offset="0.625" style="stop-color:rgb(16.947937%,30.621338%,66.000366%);stop-opacity:1;"/>
<stop offset="0.632812" style="stop-color:rgb(16.825867%,30.537415%,65.930176%);stop-opacity:1;"/>
<stop offset="0.640625" style="stop-color:rgb(16.636658%,30.36499%,65.789795%);stop-opacity:1;"/>
<stop offset="0.648437" style="stop-color:rgb(16.526794%,30.186462%,65.647888%);stop-opacity:1;"/>
<stop offset="0.652344" style="stop-color:rgb(16.398621%,29.978943%,65.454102%);stop-opacity:1;"/>
<stop offset="0.65625" style="stop-color:rgb(16.313171%,29.86145%,65.332031%);stop-opacity:1;"/>
<stop offset="0.660156" style="stop-color:rgb(16.210938%,29.73175%,65.187073%);stop-opacity:1;"/>
<stop offset="0.664062" style="stop-color:rgb(16.108704%,29.603577%,65.042114%);stop-opacity:1;"/>
<stop offset="0.667969" style="stop-color:rgb(15.995789%,29.508972%,64.92157%);stop-opacity:1;"/>
<stop offset="0.671875" style="stop-color:rgb(15.882874%,29.412842%,64.7995%);stop-opacity:1;"/>
<stop offset="0.679687" style="stop-color:rgb(15.765381%,29.335022%,64.691162%);stop-opacity:1;"/>
<stop offset="0.683594" style="stop-color:rgb(15.588379%,29.142761%,64.477539%);stop-opacity:1;"/>
<stop offset="0.6875" style="stop-color:rgb(15.52887%,29.02832%,64.370728%);stop-opacity:1;"/>
<stop offset="0.691406" style="stop-color:rgb(15.50293%,28.894043%,64.265442%);stop-opacity:1;"/>
<stop offset="0.695312" style="stop-color:rgb(15.478516%,28.759766%,64.160156%);stop-opacity:1;"/>
<stop offset="0.699219" style="stop-color:rgb(15.454102%,28.627014%,64.033508%);stop-opacity:1;"/>
<stop offset="0.703125" style="stop-color:rgb(15.429688%,28.494263%,63.905334%);stop-opacity:1;"/>
<stop offset="0.707031" style="stop-color:rgb(15.406799%,28.363037%,63.761902%);stop-opacity:1;"/>
<stop offset="0.710937" style="stop-color:rgb(15.385437%,28.230286%,63.618469%);stop-opacity:1;"/>
<stop offset="0.714844" style="stop-color:rgb(15.361023%,28.09906%,63.497925%);stop-opacity:1;"/>
<stop offset="0.71875" style="stop-color:rgb(15.338135%,27.966309%,63.37738%);stop-opacity:1;"/>
<stop offset="0.722656" style="stop-color:rgb(15.313721%,27.835083%,63.273621%);stop-opacity:1;"/>
<stop offset="0.726562" style="stop-color:rgb(15.289307%,27.702332%,63.169861%);stop-opacity:1;"/>
<stop offset="0.730469" style="stop-color:rgb(15.257263%,27.598572%,63.064575%);stop-opacity:1;"/>
<stop offset="0.734375" style="stop-color:rgb(15.22522%,27.493286%,62.957764%);stop-opacity:1;"/>
<stop offset="0.742187" style="stop-color:rgb(15.185547%,27.410889%,62.852478%);stop-opacity:1;"/>
<stop offset="0.75" style="stop-color:rgb(15.148926%,27.23999%,62.619019%);stop-opacity:1;"/>
<stop offset="0.757812" style="stop-color:rgb(15.190125%,27.062988%,62.347412%);stop-opacity:1;"/>
<stop offset="0.761719" style="stop-color:rgb(15.255737%,26.890564%,62.028503%);stop-opacity:1;"/>
<stop offset="0.765625" style="stop-color:rgb(15.281677%,26.809692%,61.854553%);stop-opacity:1;"/>
<stop offset="0.769531" style="stop-color:rgb(15.292358%,26.742554%,61.650085%);stop-opacity:1;"/>
<stop offset="0.773437" style="stop-color:rgb(15.30304%,26.673889%,61.445618%);stop-opacity:1;"/>
<stop offset="0.777344" style="stop-color:rgb(15.325928%,26.596069%,61.268616%);stop-opacity:1;"/>
<stop offset="0.78125" style="stop-color:rgb(15.348816%,26.51825%,61.091614%);stop-opacity:1;"/>
<stop offset="0.789062" style="stop-color:rgb(15.388489%,26.426697%,60.948181%);stop-opacity:1;"/>
<stop offset="0.796875" style="stop-color:rgb(15.46936%,26.246643%,60.662842%);stop-opacity:1;"/>
<stop offset="0.804687" style="stop-color:rgb(15.550232%,26.065063%,60.377502%);stop-opacity:1;"/>
<stop offset="0.8125" style="stop-color:rgb(15.629578%,25.883484%,60.107422%);stop-opacity:1;"/>
<stop offset="0.820312" style="stop-color:rgb(15.705872%,25.700378%,59.873962%);stop-opacity:1;"/>
<stop offset="0.828125" style="stop-color:rgb(15.782166%,25.517273%,59.65271%);stop-opacity:1;"/>
<stop offset="0.835937" style="stop-color:rgb(15.861511%,25.335693%,59.394836%);stop-opacity:1;"/>
<stop offset="0.84375" style="stop-color:rgb(15.940857%,25.154114%,59.124756%);stop-opacity:1;"/>
<stop offset="0.851562" style="stop-color:rgb(16.017151%,24.972534%,58.892822%);stop-opacity:1;"/>
<stop offset="0.859375" style="stop-color:rgb(16.08429%,24.795532%,58.679199%);stop-opacity:1;"/>
<stop offset="0.867187" style="stop-color:rgb(16.116333%,24.642944%,58.44574%);stop-opacity:1;"/>
<stop offset="0.875" style="stop-color:rgb(16.131592%,24.494934%,58.180237%);stop-opacity:1;"/>
<stop offset="0.882812" style="stop-color:rgb(16.165161%,24.302673%,57.844543%);stop-opacity:1;"/>
<stop offset="0.890625" style="stop-color:rgb(16.210938%,24.087524%,57.467651%);stop-opacity:1;"/>
<stop offset="0.898437" style="stop-color:rgb(16.238403%,23.919678%,57.124329%);stop-opacity:1;"/>
<stop offset="0.90625" style="stop-color:rgb(16.255188%,23.79303%,56.819153%);stop-opacity:1;"/>
<stop offset="0.914062" style="stop-color:rgb(16.287231%,23.687744%,56.565857%);stop-opacity:1;"/>
<stop offset="0.917969" style="stop-color:rgb(16.329956%,23.599243%,56.344604%);stop-opacity:1;"/>
<stop offset="0.921875" style="stop-color:rgb(16.351318%,23.553467%,56.227112%);stop-opacity:1;"/>
<stop offset="0.925781" style="stop-color:rgb(16.360474%,23.48938%,56.034851%);stop-opacity:1;"/>
<stop offset="0.929687" style="stop-color:rgb(16.371155%,23.425293%,55.84259%);stop-opacity:1;"/>
<stop offset="0.933594" style="stop-color:rgb(16.383362%,23.358154%,55.662537%);stop-opacity:1;"/>
<stop offset="0.9375" style="stop-color:rgb(16.397095%,23.28949%,55.482483%);stop-opacity:1;"/>
<stop offset="0.945312" style="stop-color:rgb(16.433716%,23.200989%,55.383301%);stop-opacity:1;"/>
<stop offset="0.953125" style="stop-color:rgb(16.506958%,23.019409%,55.177307%);stop-opacity:1;"/>
<stop offset="0.960937" style="stop-color:rgb(16.567993%,22.816467%,54.882812%);stop-opacity:1;"/>
<stop offset="0.96875" style="stop-color:rgb(16.61377%,22.599792%,54.51355%);stop-opacity:1;"/>
<stop offset="0.976562" style="stop-color:rgb(16.642761%,22.43042%,54.177856%);stop-opacity:1;"/>
<stop offset="0.984375" style="stop-color:rgb(16.654968%,22.302246%,53.874207%);stop-opacity:1;"/>
<stop offset="1" style="stop-color:rgb(16.662598%,22.103882%,53.556824%);stop-opacity:1;"/>
</linearGradient>
<clipPath id="clip4">
  <path d="M 1 24 L 56 24 L 56 38 L 1 38 Z M 1 24 "/>
</clipPath>
<clipPath id="clip5">
  <path d="M 55.042969 33.964844 C 54.871094 33.921875 54.703125 33.882812 54.53125 33.835938 C 52.734375 33.320312 50.90625 32.980469 49.046875 32.785156 C 47.214844 32.59375 45.378906 32.527344 43.539062 32.589844 C 42.417969 32.628906 41.296875 32.71875 40.175781 32.78125 C 39.292969 32.828125 38.410156 32.871094 37.527344 32.894531 C 35.855469 32.9375 34.1875 33 32.515625 32.988281 C 30.359375 32.972656 28.203125 32.886719 26.066406 32.589844 C 24.671875 32.394531 23.289062 32.144531 21.90625 31.921875 C 21.84375 31.914062 21.785156 31.914062 21.726562 31.90625 C 21.710938 31.925781 21.699219 31.945312 21.683594 31.960938 C 21.847656 32.109375 22.003906 32.265625 22.171875 32.402344 C 23.851562 33.792969 25.78125 34.683594 27.890625 35.191406 C 29.539062 35.589844 31.210938 35.792969 32.90625 35.785156 C 33.0625 35.78125 33.222656 35.785156 33.378906 35.785156 C 33.386719 35.800781 33.390625 35.820312 33.398438 35.839844 C 33.34375 35.867188 33.292969 35.910156 33.238281 35.929688 C 31.082031 36.71875 28.855469 37.105469 26.554688 36.984375 C 24.511719 36.875 22.558594 36.367188 20.671875 35.589844 C 18.15625 34.554688 15.859375 33.132812 13.660156 31.546875 C 11.59375 30.058594 9.558594 28.527344 7.507812 27.023438 C 6.488281 26.277344 5.355469 25.765625 4.148438 25.421875 C 3.503906 25.238281 2.839844 25.113281 2.1875 24.960938 C 2.105469 24.941406 2.023438 24.921875 1.941406 24.902344 C 1.941406 24.878906 1.9375 24.851562 1.9375 24.828125 C 2.332031 24.757812 2.726562 24.667969 3.121094 24.621094 C 5.113281 24.386719 7 24.816406 8.847656 25.535156 C 9.90625 25.953125 10.824219 26.597656 11.730469 27.253906 C 13.160156 28.28125 14.5625 29.34375 15.988281 30.371094 C 17.238281 31.273438 18.535156 32.09375 19.945312 32.734375 C 20.015625 32.765625 20.085938 32.792969 20.175781 32.800781 C 18.773438 31.585938 17.566406 30.21875 16.6875 28.582031 C 16.703125 28.566406 16.71875 28.546875 16.734375 28.53125 C 16.8125 28.578125 16.890625 28.625 16.96875 28.675781 C 18.28125 29.546875 19.683594 30.234375 21.230469 30.578125 C 21.910156 30.726562 22.605469 30.847656 23.296875 30.859375 C 25.128906 30.898438 26.960938 30.90625 28.789062 30.863281 C 31.015625 30.816406 33.242188 30.683594 35.46875 30.625 C 37.738281 30.570312 40.011719 30.546875 42.28125 30.53125 C 43.824219 30.519531 45.347656 30.722656 46.867188 30.988281 C 48.316406 31.238281 49.742188 31.574219 51.128906 32.0625 C 52.433594 32.519531 53.6875 33.085938 54.867188 33.8125 C 54.933594 33.851562 54.984375 33.914062 55.039062 33.96875 Z M 55.042969 33.964844 "/>
</clipPath>
<clipPath id="clip6">
  <path d="M 55.042969 33.964844 C 54.871094 33.921875 54.703125 33.882812 54.53125 33.835938 C 52.734375 33.320312 50.90625 32.980469 49.046875 32.785156 C 47.214844 32.59375 45.378906 32.527344 43.539062 32.589844 C 42.417969 32.628906 41.296875 32.71875 40.175781 32.78125 C 39.292969 32.828125 38.410156 32.871094 37.527344 32.894531 C 35.855469 32.9375 34.1875 33 32.515625 32.988281 C 30.359375 32.972656 28.203125 32.886719 26.066406 32.589844 C 24.671875 32.394531 23.289062 32.144531 21.90625 31.921875 C 21.84375 31.914062 21.785156 31.914062 21.726562 31.90625 C 21.710938 31.925781 21.699219 31.945312 21.683594 31.960938 C 21.847656 32.109375 22.003906 32.265625 22.171875 32.402344 C 23.851562 33.792969 25.78125 34.683594 27.890625 35.191406 C 29.539062 35.589844 31.210938 35.792969 32.90625 35.785156 C 33.0625 35.78125 33.222656 35.785156 33.378906 35.785156 C 33.386719 35.800781 33.390625 35.820312 33.398438 35.839844 C 33.34375 35.867188 33.292969 35.910156 33.238281 35.929688 C 31.082031 36.71875 28.855469 37.105469 26.554688 36.984375 C 24.511719 36.875 22.558594 36.367188 20.671875 35.589844 C 18.15625 34.554688 15.859375 33.132812 13.660156 31.546875 C 11.59375 30.058594 9.558594 28.527344 7.507812 27.023438 C 6.488281 26.277344 5.355469 25.765625 4.148438 25.421875 C 3.503906 25.238281 2.839844 25.113281 2.1875 24.960938 C 2.105469 24.941406 2.023438 24.921875 1.941406 24.902344 C 1.941406 24.878906 1.9375 24.851562 1.9375 24.828125 C 2.332031 24.757812 2.726562 24.667969 3.121094 24.621094 C 5.113281 24.386719 7 24.816406 8.847656 25.535156 C 9.90625 25.953125 10.824219 26.597656 11.730469 27.253906 C 13.160156 28.28125 14.5625 29.34375 15.988281 30.371094 C 17.238281 31.273438 18.535156 32.09375 19.945312 32.734375 C 20.015625 32.765625 20.085938 32.792969 20.175781 32.800781 C 18.773438 31.585938 17.566406 30.21875 16.6875 28.582031 C 16.703125 28.566406 16.71875 28.546875 16.734375 28.53125 C 16.8125 28.578125 16.890625 28.625 16.96875 28.675781 C 18.28125 29.546875 19.683594 30.234375 21.230469 30.578125 C 21.910156 30.726562 22.605469 30.847656 23.296875 30.859375 C 25.128906 30.898438 26.960938 30.90625 28.789062 30.863281 C 31.015625 30.816406 33.242188 30.683594 35.46875 30.625 C 37.738281 30.570312 40.011719 30.546875 42.28125 30.53125 C 43.824219 30.519531 45.347656 30.722656 46.867188 30.988281 C 48.316406 31.238281 49.742188 31.574219 51.128906 32.0625 C 52.433594 32.519531 53.6875 33.085938 54.867188 33.8125 C 54.933594 33.851562 54.984375 33.914062 55.039062 33.96875 L 55.042969 33.964844 "/>
</clipPath>
<linearGradient id="linear1" gradientUnits="userSpaceOnUse" x1="0.00000715566" y1="0" x2="0.999998" y2="0" gradientTransform="matrix(53.1048,0,0,53.1048,1.93829,30.7821)">
<stop offset="0" style="stop-color:rgb(71.395874%,84.663391%,9.155273%);stop-opacity:1;"/>
<stop offset="0.0078125" style="stop-color:rgb(71.206665%,84.538269%,9.222412%);stop-opacity:1;"/>
<stop offset="0.015625" style="stop-color:rgb(70.825195%,84.288025%,9.355164%);stop-opacity:1;"/>
<stop offset="0.0234375" style="stop-color:rgb(70.535278%,84.130859%,9.45282%);stop-opacity:1;"/>
<stop offset="0.03125" style="stop-color:rgb(70.341492%,84.072876%,9.513855%);stop-opacity:1;"/>
<stop offset="0.0390625" style="stop-color:rgb(70.062256%,83.926392%,9.606934%);stop-opacity:1;"/>
<stop offset="0.046875" style="stop-color:rgb(69.68689%,83.683777%,9.736633%);stop-opacity:1;"/>
<stop offset="0.0546875" style="stop-color:rgb(69.392395%,83.522034%,9.835815%);stop-opacity:1;"/>
<stop offset="0.0625" style="stop-color:rgb(69.194031%,83.457947%,9.898376%);stop-opacity:1;"/>
<stop offset="0.078125" style="stop-color:rgb(68.908691%,83.247375%,9.999084%);stop-opacity:1;"/>
<stop offset="0.0859375" style="stop-color:rgb(68.545532%,83.000183%,10.127258%);stop-opacity:1;"/>
<stop offset="0.09375" style="stop-color:rgb(68.179321%,82.884216%,10.240173%);stop-opacity:1;"/>
<stop offset="0.101562" style="stop-color:rgb(67.874146%,82.797241%,10.334778%);stop-opacity:1;"/>
<stop offset="0.109375" style="stop-color:rgb(67.6651%,82.737732%,10.398865%);stop-opacity:1;"/>
<stop offset="0.125" style="stop-color:rgb(67.381287%,82.53479%,10.499573%);stop-opacity:1;"/>
<stop offset="0.140625" style="stop-color:rgb(67.004395%,82.286072%,10.629272%);stop-opacity:1;"/>
<stop offset="0.148438" style="stop-color:rgb(66.651917%,82.118225%,10.745239%);stop-opacity:1;"/>
<stop offset="0.15625" style="stop-color:rgb(66.300964%,81.90155%,10.864258%);stop-opacity:1;"/>
<stop offset="0.164062" style="stop-color:rgb(65.988159%,81.723022%,10.969543%);stop-opacity:1;"/>
<stop offset="0.171875" style="stop-color:rgb(65.768433%,81.637573%,11.039734%);stop-opacity:1;"/>
<stop offset="0.1875" style="stop-color:rgb(65.486145%,81.445312%,11.13739%);stop-opacity:1;"/>
<stop offset="0.195312" style="stop-color:rgb(65.1474%,81.210327%,11.254883%);stop-opacity:1;"/>
<stop offset="0.203125" style="stop-color:rgb(64.802551%,81.086731%,11.36322%);stop-opacity:1;"/>
<stop offset="0.210938" style="stop-color:rgb(64.479065%,80.953979%,11.465454%);stop-opacity:1;"/>
<stop offset="0.21875" style="stop-color:rgb(64.256287%,80.784607%,11.5448%);stop-opacity:1;"/>
<stop offset="0.234375" style="stop-color:rgb(63.978577%,80.502319%,11.650085%);stop-opacity:1;"/>
<stop offset="0.25" style="stop-color:rgb(63.606262%,80.229187%,11.779785%);stop-opacity:1;"/>
<stop offset="0.257812" style="stop-color:rgb(63.278198%,80.072021%,11.886597%);stop-opacity:1;"/>
<stop offset="0.265625" style="stop-color:rgb(62.950134%,79.879761%,11.994934%);stop-opacity:1;"/>
<stop offset="0.273438" style="stop-color:rgb(62.620544%,79.684448%,12.106323%);stop-opacity:1;"/>
<stop offset="0.28125" style="stop-color:rgb(62.380981%,79.579163%,12.182617%);stop-opacity:1;"/>
<stop offset="0.296875" style="stop-color:rgb(62.101746%,79.405212%,12.277222%);stop-opacity:1;"/>
<stop offset="0.304688" style="stop-color:rgb(61.785889%,79.182434%,12.385559%);stop-opacity:1;"/>
<stop offset="0.3125" style="stop-color:rgb(61.46698%,79.052734%,12.486267%);stop-opacity:1;"/>
<stop offset="0.320312" style="stop-color:rgb(61.123657%,78.93219%,12.593079%);stop-opacity:1;"/>
<stop offset="0.328125" style="stop-color:rgb(60.879517%,78.773499%,12.675476%);stop-opacity:1;"/>
<stop offset="0.34375" style="stop-color:rgb(60.606384%,78.49884%,12.776184%);stop-opacity:1;"/>
<stop offset="0.351562" style="stop-color:rgb(60.30426%,78.234863%,12.884521%);stop-opacity:1;"/>
<stop offset="0.359375" style="stop-color:rgb(59.996033%,78.102112%,12.982178%);stop-opacity:1;"/>
<stop offset="0.367188" style="stop-color:rgb(59.643555%,78.004456%,13.088989%);stop-opacity:1;"/>
<stop offset="0.375" style="stop-color:rgb(59.385681%,77.934265%,13.168335%);stop-opacity:1;"/>
<stop offset="0.390625" style="stop-color:rgb(59.106445%,77.775574%,13.259888%);stop-opacity:1;"/>
<stop offset="0.398438" style="stop-color:rgb(58.811951%,77.560425%,13.360596%);stop-opacity:1;"/>
<stop offset="0.40625" style="stop-color:rgb(58.514404%,77.426147%,13.4552%);stop-opacity:1;"/>
<stop offset="0.414063" style="stop-color:rgb(58.152771%,77.314758%,13.565063%);stop-opacity:1;"/>
<stop offset="0.421875" style="stop-color:rgb(57.891846%,77.166748%,13.650513%);stop-opacity:1;"/>
<stop offset="0.429688" style="stop-color:rgb(57.698059%,76.991272%,13.720703%);stop-opacity:1;"/>
<stop offset="0.4375" style="stop-color:rgb(57.406616%,76.855469%,13.812256%);stop-opacity:1;"/>
<stop offset="0.445312" style="stop-color:rgb(57.038879%,76.747131%,13.923645%);stop-opacity:1;"/>
<stop offset="0.453125" style="stop-color:rgb(56.771851%,76.602173%,14.01062%);stop-opacity:1;"/>
<stop offset="0.46875" style="stop-color:rgb(56.498718%,76.402283%,14.103699%);stop-opacity:1;"/>
<stop offset="0.484375" style="stop-color:rgb(56.132507%,76.173401%,14.225769%);stop-opacity:1;"/>
<stop offset="0.492188" style="stop-color:rgb(55.857849%,75.967407%,14.318848%);stop-opacity:1;"/>
<stop offset="0.5" style="stop-color:rgb(55.586243%,75.762939%,14.4104%);stop-opacity:1;"/>
<stop offset="0.507812" style="stop-color:rgb(55.220032%,75.534058%,14.530945%);stop-opacity:1;"/>
<stop offset="0.515625" style="stop-color:rgb(54.942322%,75.392151%,14.619446%);stop-opacity:1;"/>
<stop offset="0.523437" style="stop-color:rgb(54.753113%,75.341797%,14.677429%);stop-opacity:1;"/>
<stop offset="0.53125" style="stop-color:rgb(54.481506%,75.205994%,14.764404%);stop-opacity:1;"/>
<stop offset="0.539062" style="stop-color:rgb(54.119873%,74.983215%,14.881897%);stop-opacity:1;"/>
<stop offset="0.546875" style="stop-color:rgb(53.837585%,74.838257%,14.971924%);stop-opacity:1;"/>
<stop offset="0.5625" style="stop-color:rgb(53.555298%,74.699402%,15.061951%);stop-opacity:1;"/>
<stop offset="0.578125" style="stop-color:rgb(53.196716%,74.41864%,15.182495%);stop-opacity:1;"/>
<stop offset="0.59375" style="stop-color:rgb(52.841187%,74.121094%,15.304565%);stop-opacity:1;"/>
<stop offset="0.601562" style="stop-color:rgb(52.566528%,73.971558%,15.391541%);stop-opacity:1;"/>
<stop offset="0.609375" style="stop-color:rgb(52.310181%,73.852539%,15.472412%);stop-opacity:1;"/>
<stop offset="0.617188" style="stop-color:rgb(51.965332%,73.648071%,15.583801%);stop-opacity:1;"/>
<stop offset="0.625" style="stop-color:rgb(51.675415%,73.443604%,15.679932%);stop-opacity:1;"/>
<stop offset="0.632812" style="stop-color:rgb(51.480103%,73.265076%,15.74707%);stop-opacity:1;"/>
<stop offset="0.640625" style="stop-color:rgb(51.205444%,73.027039%,15.817261%);stop-opacity:1;"/>
<stop offset="0.648438" style="stop-color:rgb(50.794983%,72.705078%,15.899658%);stop-opacity:1;"/>
<stop offset="0.65625" style="stop-color:rgb(50.379944%,72.40448%,15.995789%);stop-opacity:1;"/>
<stop offset="0.664062" style="stop-color:rgb(50.007629%,72.164917%,16.105652%);stop-opacity:1;"/>
<stop offset="0.671875" style="stop-color:rgb(49.707031%,72.003174%,16.200256%);stop-opacity:1;"/>
<stop offset="0.679688" style="stop-color:rgb(49.493408%,71.925354%,16.264343%);stop-opacity:1;"/>
<stop offset="0.6875" style="stop-color:rgb(49.252319%,71.82312%,16.339111%);stop-opacity:1;"/>
<stop offset="0.695313" style="stop-color:rgb(48.925781%,71.636963%,16.442871%);stop-opacity:1;"/>
<stop offset="0.703125" style="stop-color:rgb(48.623657%,71.434021%,16.540527%);stop-opacity:1;"/>
<stop offset="0.71875" style="stop-color:rgb(48.327637%,71.205139%,16.638184%);stop-opacity:1;"/>
<stop offset="0.734375" style="stop-color:rgb(47.967529%,71.02356%,16.749573%);stop-opacity:1;"/>
<stop offset="0.742188" style="stop-color:rgb(47.689819%,70.951843%,16.83197%);stop-opacity:1;"/>
<stop offset="0.75" style="stop-color:rgb(47.459412%,70.860291%,16.902161%);stop-opacity:1;"/>
<stop offset="0.757812" style="stop-color:rgb(47.146606%,70.687866%,16.999817%);stop-opacity:1;"/>
<stop offset="0.765625" style="stop-color:rgb(46.83075%,70.51239%,17.098999%);stop-opacity:1;"/>
<stop offset="0.78125" style="stop-color:rgb(46.513367%,70.370483%,17.195129%);stop-opacity:1;"/>
<stop offset="0.796875" style="stop-color:rgb(46.162415%,70.13092%,17.308044%);stop-opacity:1;"/>
<stop offset="0.804687" style="stop-color:rgb(45.909119%,69.880676%,17.393494%);stop-opacity:1;"/>
<stop offset="0.8125" style="stop-color:rgb(45.68634%,69.706726%,17.454529%);stop-opacity:1;"/>
<stop offset="0.820312" style="stop-color:rgb(45.326233%,69.506836%,17.523193%);stop-opacity:1;"/>
<stop offset="0.828125" style="stop-color:rgb(44.929504%,69.302368%,17.59491%);stop-opacity:1;"/>
<stop offset="0.84375" style="stop-color:rgb(44.586182%,69.039917%,17.683411%);stop-opacity:1;"/>
<stop offset="0.859375" style="stop-color:rgb(44.250488%,68.728638%,17.7948%);stop-opacity:1;"/>
<stop offset="0.875" style="stop-color:rgb(43.890381%,68.505859%,17.900085%);stop-opacity:1;"/>
<stop offset="0.890625" style="stop-color:rgb(43.463135%,68.17627%,17.973328%);stop-opacity:1;"/>
<stop offset="0.90625" style="stop-color:rgb(43.048096%,67.86499%,18.049622%);stop-opacity:1;"/>
<stop offset="0.914062" style="stop-color:rgb(42.784119%,67.727661%,18.130493%);stop-opacity:1;"/>
<stop offset="0.921875" style="stop-color:rgb(42.597961%,67.553711%,18.186951%);stop-opacity:1;"/>
<stop offset="0.929688" style="stop-color:rgb(42.285156%,67.298889%,18.251038%);stop-opacity:1;"/>
<stop offset="0.9375" style="stop-color:rgb(41.882324%,66.98761%,18.321228%);stop-opacity:1;"/>
<stop offset="0.953125" style="stop-color:rgb(41.525269%,66.682434%,18.408203%);stop-opacity:1;"/>
<stop offset="0.960938" style="stop-color:rgb(41.268921%,66.505432%,18.487549%);stop-opacity:1;"/>
<stop offset="0.96875" style="stop-color:rgb(41.082764%,66.456604%,18.54248%);stop-opacity:1;"/>
<stop offset="0.976563" style="stop-color:rgb(40.814209%,66.32843%,18.621826%);stop-opacity:1;"/>
<stop offset="0.984375" style="stop-color:rgb(40.472412%,66.127014%,18.725586%);stop-opacity:1;"/>
<stop offset="1" style="stop-color:rgb(40.049744%,65.866089%,18.792725%);stop-opacity:1;"/>
</linearGradient>
</defs>
<g id="surface1">
<rect x="0" y="0" width="56" height="56" style="fill:rgb(95.66803%,95.779419%,96.777344%);fill-opacity:1;stroke:none;"/>
<g clip-path="url(#clip1)" clip-rule="nonzero">
<g clip-path="url(#clip2)" clip-rule="nonzero">
<g clip-path="url(#clip3)" clip-rule="nonzero">
<path style=" stroke:none;fill-rule:nonzero;fill:url(#linear0);" d="M 0.914062 18.824219 L 0.914062 30.320312 L 49.078125 30.320312 L 49.078125 18.824219 Z M 0.914062 18.824219 "/>
</g>
</g>
</g>
<g clip-path="url(#clip4)" clip-rule="nonzero">
<g clip-path="url(#clip5)" clip-rule="nonzero">
<g clip-path="url(#clip6)" clip-rule="nonzero">
<path style=" stroke:none;fill-rule:nonzero;fill:url(#linear1);" d="M 1.9375 24.386719 L 1.9375 37.105469 L 55.042969 37.105469 L 55.042969 24.386719 Z M 1.9375 24.386719 "/>
</g>
</g>
</g>
<path style=" stroke:none;fill-rule:nonzero;fill:rgb(13.729858%,12.159729%,12.548828%);fill-opacity:1;" d="M 55.039062 33.96875 C 55.054688 33.96875 55.070312 33.972656 55.085938 33.976562 C 55.070312 33.972656 55.054688 33.96875 55.042969 33.964844 L 55.039062 33.96875 "/>
</g>
</svg>
