<?xml version="1.0" encoding="UTF-8"?>
<svg xmlns="http://www.w3.org/2000/svg" xmlns:xlink="http://www.w3.org/1999/xlink" width="56pt" height="56pt" viewBox="0 0 56 56" version="1.1">
<g id="surface1">
<rect x="0" y="0" width="56" height="56" style="fill:rgb(95.66803%,95.779419%,96.777344%);fill-opacity:1;stroke:none;"/>
<path style=" stroke:none;fill-rule:evenodd;fill:rgb(89.466858%,12.22229%,14.851379%);fill-opacity:1;" d="M 28 5.320312 C 40.527344 5.320312 50.679688 15.472656 50.679688 28 C 50.679688 40.527344 40.527344 50.679688 28 50.679688 C 15.472656 50.679688 5.320312 40.527344 5.320312 28 C 5.320312 15.472656 15.472656 5.320312 28 5.320312 "/>
<path style=" stroke:none;fill-rule:evenodd;fill:rgb(7.008362%,6.510925%,6.420898%);fill-opacity:1;" d="M 27.21875 38.707031 C 20.816406 41.824219 15.457031 42.296875 11.152344 43.1875 C 12.148438 44.277344 13.238281 45.285156 14.425781 46.164062 C 20.402344 44.289062 25.226562 42.785156 27.21875 38.707031 "/>
<path style=" stroke:none;fill-rule:evenodd;fill:rgb(7.008362%,6.510925%,6.420898%);fill-opacity:1;" d="M 42.226562 12.789062 C 35.898438 23.246094 20.660156 22.046875 12.621094 28.890625 C 10.582031 30.609375 8.046875 33.953125 7.179688 37.023438 C 10.75 34.011719 13.394531 33.0625 17.816406 31.996094 C 27.726562 29.589844 38.257812 29.316406 42.226562 12.789062 "/>
<path style=" stroke:none;fill-rule:evenodd;fill:rgb(7.008362%,6.510925%,6.420898%);fill-opacity:1;" d="M 34.203125 29.066406 C 22.984375 35.113281 17.007812 31.542969 8.164062 39.003906 C 8.664062 39.902344 9.21875 40.757812 9.835938 41.574219 C 13.085938 41.019531 30.207031 39.570312 34.203125 29.066406 "/>
</g>
</svg>
