<?xml version="1.0" encoding="UTF-8"?>
<svg xmlns="http://www.w3.org/2000/svg" xmlns:xlink="http://www.w3.org/1999/xlink" width="56pt" height="56pt" viewBox="0 0 56 56" version="1.1">
<g id="surface1">
<rect x="0" y="0" width="56" height="56" style="fill:rgb(82.553101%,9.42688%,27.6474%);fill-opacity:1;stroke:none;"/>
<path style=" stroke:none;fill-rule:nonzero;fill:rgb(100%,100%,100%);fill-opacity:1;" d="M 49.996094 24.785156 C 49.570312 24.753906 48.832031 24.6875 48.273438 24.632812 C 33.636719 23.09375 29.898438 21.972656 28.863281 3.289062 C 28.863281 3.289062 28.792969 2.320312 28 2.320312 C 27.199219 2.320312 27.132812 3.289062 27.132812 3.289062 C 26.101562 21.972656 22.359375 23.09375 7.71875 24.632812 C 7.167969 24.6875 6.429688 24.753906 5.996094 24.785156 C 5.539062 24.820312 5.046875 25.007812 5.046875 25.34375 C 5.046875 25.714844 5.507812 25.902344 5.996094 25.960938 C 22.148438 27.960938 25.761719 29.34375 27.167969 52.644531 C 27.183594 53.160156 27.421875 53.679688 28 53.679688 C 28.570312 53.679688 28.808594 53.160156 28.832031 52.644531 C 30.234375 29.34375 33.84375 27.960938 49.996094 25.960938 C 50.480469 25.902344 50.953125 25.714844 50.953125 25.34375 C 50.953125 25.007812 50.453125 24.820312 49.996094 24.785156 "/>
</g>
</svg>
