<?xml version="1.0" encoding="UTF-8"?>
<svg xmlns="http://www.w3.org/2000/svg" xmlns:xlink="http://www.w3.org/1999/xlink" width="56pt" height="56pt" viewBox="0 0 56 56" version="1.1">
<g id="surface1">
<rect x="0" y="0" width="56" height="56" style="fill:rgb(74.485779%,12.425232%,17.06543%);fill-opacity:1;stroke:none;"/>
<path style=" stroke:none;fill-rule:evenodd;fill:rgb(100%,100%,100%);fill-opacity:1;" d="M 15.257812 48.402344 C 15.535156 47.964844 15.785156 47.570312 16.050781 47.148438 C 16.285156 47.167969 16.503906 47.171875 16.714844 47.203125 C 17.855469 47.378906 18.847656 47.125 19.675781 46.28125 C 20.214844 45.734375 20.671875 45.132812 21.09375 44.5 C 24.160156 39.910156 27.226562 35.316406 30.289062 30.726562 C 30.769531 30.007812 31.246094 29.292969 31.722656 28.574219 C 31.777344 28.496094 31.820312 28.414062 31.902344 28.273438 C 31.304688 28.367188 30.804688 28.5625 30.335938 28.820312 C 29.8125 29.105469 29.382812 29.492188 29.046875 30.003906 C 26.820312 33.386719 24.582031 36.761719 22.34375 40.140625 C 21.503906 41.40625 20.671875 42.675781 19.808594 43.925781 C 19.25 44.742188 18.53125 45.40625 17.675781 45.914062 C 17.054688 46.28125 16.382812 46.46875 15.667969 46.542969 C 14.269531 46.675781 12.96875 46.300781 11.691406 45.785156 C 11.628906 45.761719 11.574219 45.71875 11.519531 45.679688 C 11.496094 45.660156 11.476562 45.628906 11.421875 45.554688 C 11.535156 45.363281 11.652344 45.144531 11.78125 44.9375 C 11.90625 44.738281 12.042969 44.546875 12.183594 44.335938 C 12.371094 44.335938 12.5625 44.304688 12.738281 44.34375 C 14.21875 44.65625 15.363281 44.101562 16.234375 42.945312 C 17.003906 41.917969 17.714844 40.847656 18.425781 39.785156 C 20.304688 36.976562 22.171875 34.164062 24.042969 31.351562 C 24.132812 31.214844 24.222656 31.074219 24.371094 30.839844 C 24.007812 30.933594 23.757812 31.039062 23.515625 31.164062 C 22.574219 31.636719 21.808594 32.296875 21.226562 33.183594 C 19.617188 35.617188 17.992188 38.042969 16.375 40.472656 C 15.894531 41.195312 15.375 41.878906 14.726562 42.453125 C 13.773438 43.304688 12.679688 43.777344 11.382812 43.8125 C 10.066406 43.84375 8.863281 43.445312 7.675781 42.9375 C 7.632812 42.917969 7.59375 42.882812 7.554688 42.855469 C 7.570312 42.761719 7.5625 42.683594 7.59375 42.632812 C 7.800781 42.285156 8.011719 41.941406 8.230469 41.578125 C 8.371094 41.574219 8.503906 41.558594 8.636719 41.558594 C 8.769531 41.558594 8.90625 41.558594 9.039062 41.578125 C 10.433594 41.769531 11.441406 41.113281 12.300781 40.109375 C 13.210938 39.042969 13.988281 37.875 14.765625 36.710938 C 16.042969 34.804688 17.320312 32.894531 18.574219 30.972656 C 19 30.316406 19.554688 29.804688 20.238281 29.457031 C 21.503906 28.820312 22.765625 28.171875 24.066406 27.617188 C 25.425781 27.035156 26.820312 26.519531 28.222656 26.039062 C 30.039062 25.421875 31.886719 24.886719 33.777344 24.53125 C 34.898438 24.324219 36.023438 24.082031 37.15625 23.96875 C 38.417969 23.84375 39.679688 23.859375 40.90625 24.300781 C 42.296875 24.804688 43.160156 25.726562 43.40625 27.207031 C 43.457031 27.523438 43.449219 27.808594 43.257812 28.140625 C 42.332031 28.414062 41.367188 28.703125 40.398438 28.980469 C 40.277344 29.015625 40.136719 28.984375 39.992188 28.984375 C 39.933594 28.855469 39.867188 28.753906 39.835938 28.644531 C 39.515625 27.535156 38.519531 27.144531 37.421875 27.425781 C 36.722656 27.605469 36.230469 28.046875 35.84375 28.617188 C 34.910156 29.984375 33.996094 31.363281 33.078125 32.738281 C 31.003906 35.855469 28.929688 38.976562 26.855469 42.097656 C 26.007812 43.378906 25.164062 44.664062 24.308594 45.9375 C 23.839844 46.644531 23.328125 47.308594 22.707031 47.890625 C 21.734375 48.800781 20.609375 49.328125 19.265625 49.394531 C 17.914062 49.457031 16.667969 49.109375 15.460938 48.558594 C 15.402344 48.53125 15.355469 48.480469 15.257812 48.402344 "/>
<path style=" stroke:none;fill-rule:evenodd;fill:rgb(100%,100%,100%);fill-opacity:1;" d="M 45.421875 12.292969 C 45.070312 11.910156 44.640625 11.828125 44.21875 11.746094 C 42.707031 11.453125 41.273438 11.761719 39.863281 12.289062 C 39.34375 12.484375 38.828125 12.695312 38.296875 12.863281 C 37.78125 13.03125 37.246094 13.125 36.710938 12.949219 C 36.46875 12.871094 36.222656 12.785156 36.023438 12.640625 C 35.4375 12.210938 35.285156 11.507812 35.710938 10.992188 C 36.484375 11.570312 37.367188 11.5625 38.257812 11.40625 C 38.632812 11.339844 39.003906 11.203125 39.359375 11.0625 C 39.949219 10.824219 39.78125 10.25 39.425781 10.03125 C 39.125 9.839844 38.792969 9.730469 38.429688 9.707031 C 37.792969 9.664062 37.1875 9.804688 36.59375 10.003906 C 35.234375 10.457031 33.882812 10.925781 32.53125 11.394531 C 31.699219 11.679688 30.855469 11.941406 29.980469 12.011719 C 28.191406 12.15625 26.554688 11.714844 25.230469 10.449219 C 24.472656 9.726562 24.042969 8.824219 24.121094 7.691406 C 24.257812 7.742188 24.363281 7.777344 24.464844 7.820312 C 25.34375 8.167969 26.242188 8.449219 27.195312 8.519531 C 27.699219 8.558594 28.203125 8.605469 28.707031 8.609375 C 29.742188 8.621094 30.75 8.40625 31.75 8.167969 C 33.042969 7.859375 34.328125 7.503906 35.617188 7.183594 C 36.613281 6.9375 37.621094 6.75 38.648438 6.660156 C 39.242188 6.605469 39.824219 6.542969 40.40625 6.691406 C 40.996094 6.84375 41.523438 7.109375 41.839844 7.652344 C 41.980469 7.894531 42.054688 8.175781 42.128906 8.359375 C 42.078125 8.859375 41.886719 9.183594 41.46875 9.519531 C 41.859375 9.464844 42.125 9.425781 42.394531 9.390625 C 44.082031 9.164062 45.628906 9.5 46.929688 10.632812 C 47.859375 11.445312 48.347656 12.507812 48.429688 13.742188 C 48.464844 14.210938 48.4375 14.679688 48.4375 15.179688 C 46.90625 14.71875 45.453125 14.996094 44.015625 15.328125 C 42.007812 15.792969 40.082031 16.515625 38.203125 17.359375 C 36.863281 17.964844 35.550781 18.621094 34.316406 19.417969 C 33.890625 19.691406 33.480469 19.988281 33.0625 20.277344 C 32.96875 20.339844 32.863281 20.398438 32.765625 20.460938 C 32.792969 20.5 32.824219 20.542969 32.855469 20.582031 C 32.992188 20.546875 33.136719 20.523438 33.269531 20.476562 C 34.269531 20.117188 35.28125 19.804688 36.332031 19.628906 C 37.011719 19.515625 37.699219 19.445312 38.382812 19.355469 C 39.15625 19.257812 39.929688 19.304688 40.703125 19.367188 C 42.699219 19.523438 44.488281 20.203125 45.941406 21.613281 C 47.257812 22.886719 48.042969 24.429688 48.253906 26.273438 C 48.441406 27.914062 48.125 29.433594 47.285156 30.835938 C 46.402344 32.316406 45.050781 33.203125 43.394531 33.613281 C 41.894531 33.988281 40.417969 33.886719 39.003906 33.226562 C 37.886719 32.707031 37.078125 31.878906 36.550781 30.769531 C 36.46875 30.589844 36.441406 30.417969 36.558594 30.183594 C 37.566406 29.785156 38.660156 29.527344 39.785156 29.152344 C 39.886719 29.28125 39.976562 29.398438 40.074219 29.519531 C 40.648438 30.246094 41.433594 30.429688 42.300781 30.296875 C 43.664062 30.085938 44.46875 29.117188 44.609375 27.851562 C 44.882812 25.4375 43.3125 23.925781 41.789062 23.308594 C 41.085938 23.023438 40.351562 22.832031 39.589844 22.789062 C 38.863281 22.746094 38.132812 22.664062 37.414062 22.722656 C 36.429688 22.800781 35.441406 22.953125 34.46875 23.148438 C 32.023438 23.640625 29.628906 24.316406 27.265625 25.117188 C 25.425781 25.738281 23.625 26.449219 21.882812 27.304688 C 21.648438 27.417969 21.425781 27.605469 21.105469 27.542969 C 20.972656 27.269531 21.15625 27.070312 21.296875 26.875 C 21.726562 26.308594 22.144531 25.734375 22.601562 25.195312 C 23.382812 24.285156 24.164062 23.375 24.996094 22.511719 C 26.109375 21.355469 27.339844 20.324219 28.625 19.355469 C 30.785156 17.722656 33.089844 16.324219 35.542969 15.175781 C 37.652344 14.183594 39.824219 13.363281 42.101562 12.839844 C 43.101562 12.609375 44.105469 12.398438 45.140625 12.355469 C 45.21875 12.351562 45.292969 12.324219 45.421875 12.292969 "/>
</g>
</svg>
