<?xml version="1.0" encoding="UTF-8"?>
<svg xmlns="http://www.w3.org/2000/svg" xmlns:xlink="http://www.w3.org/1999/xlink" width="56pt" height="56pt" viewBox="0 0 56 56" version="1.1">
<g id="surface1">
<rect x="0" y="0" width="56" height="56" style="fill:rgb(92.889404%,10.246277%,16.822815%);fill-opacity:1;stroke:none;"/>
<path style=" stroke:none;fill-rule:nonzero;fill:rgb(100%,100%,100%);fill-opacity:1;" d="M 28.761719 37.59375 C 28.761719 36.070312 29.417969 35.851562 30.945312 36.722656 C 33.5625 38.25 36.175781 39.558594 36.175781 39.558594 C 36.175781 38.6875 37.050781 38.03125 38.578125 38.46875 C 40.101562 38.90625 41.628906 39.121094 41.628906 39.121094 C 41.628906 39.121094 40.757812 37.160156 40.324219 36.285156 C 39.667969 34.761719 40.324219 33.890625 40.976562 33.667969 C 40.976562 33.667969 40.101562 33.015625 39.449219 32.582031 C 38.140625 31.707031 38.359375 30.617188 39.667969 30.179688 C 41.410156 29.308594 43.8125 28.4375 43.8125 28.4375 C 43.15625 28 42.285156 26.910156 43.15625 25.382812 C 44.03125 24.074219 45.554688 22.113281 45.554688 22.113281 C 45.554688 22.113281 43.15625 22.113281 41.410156 22.113281 C 39.886719 22.113281 39.449219 20.804688 39.449219 19.929688 C 39.449219 19.929688 37.050781 21.675781 35.304688 22.765625 C 33.78125 23.855469 32.46875 22.765625 32.6875 21.023438 C 33.125 18.40625 33.34375 15.351562 33.34375 15.351562 C 32.46875 16.222656 30.945312 16.003906 30.074219 14.695312 C 28.980469 12.515625 27.890625 9.898438 27.890625 9.898438 C 27.890625 9.898438 26.800781 12.515625 25.710938 14.695312 C 25.054688 16.003906 23.53125 16.222656 22.65625 15.570312 C 22.65625 15.570312 22.875 18.621094 23.3125 21.238281 C 23.53125 22.765625 22.21875 23.855469 20.695312 22.765625 C 18.949219 21.675781 16.332031 19.929688 16.332031 19.929688 C 16.332031 20.804688 15.898438 21.894531 14.371094 22.113281 C 12.625 22.113281 10.226562 22.113281 10.226562 22.113281 C 10.226562 22.113281 11.753906 24.074219 12.625 25.382812 C 13.496094 26.691406 12.625 28 11.96875 28.4375 C 11.96875 28.4375 14.152344 29.527344 16.113281 30.179688 C 17.421875 30.835938 17.859375 31.707031 16.332031 32.582031 C 15.898438 33.015625 14.804688 33.667969 14.804688 33.667969 C 15.679688 33.890625 16.332031 34.761719 15.679688 36.285156 C 15.242188 37.160156 14.371094 39.121094 14.371094 39.121094 C 14.371094 39.121094 15.898438 38.6875 17.421875 38.46875 C 18.949219 38.03125 19.601562 38.90625 19.820312 39.558594 C 19.820312 39.558594 22.4375 38.03125 25.054688 36.722656 C 26.363281 35.851562 27.238281 36.285156 27.238281 37.59375 L 27.238281 41.300781 C 27.238281 43.484375 26.800781 45.664062 26.148438 46.972656 C 16.332031 45.882812 8.046875 38.03125 8.046875 27.5625 C 8.046875 16.878906 16.988281 8.15625 28.109375 8.15625 C 39.230469 8.15625 48.171875 16.878906 48.171875 27.5625 C 48.171875 37.59375 40.324219 45.882812 30.289062 46.972656 L 30.289062 49.589844 C 42.066406 48.5 51.226562 39.121094 51.226562 27.5625 C 51.226562 15.132812 40.757812 5.320312 27.890625 5.320312 C 15.242188 5.320312 4.773438 15.132812 4.773438 27.34375 C 4.773438 38.03125 12.84375 46.972656 23.53125 48.9375 C 25.273438 49.371094 26.363281 49.589844 27.453125 50.679688 C 28.546875 48.5 28.761719 44.140625 28.761719 41.738281 L 28.761719 37.59375 "/>
</g>
</svg>
