<svg width="56" height="56" viewBox="0 0 56 56" fill="none" xmlns="http://www.w3.org/2000/svg">
<g clip-path="url(#clip0_88_5974)">
<path d="M31.4016 34.9002C32.1016 30.6002 30.2016 26.4002 26.9016 23.6002C24.4016 21.5002 21.5016 20.0002 18.3016 19.5002C15.8016 19.2002 12.5016 19.8002 10.9016 21.9002C10.8016 22.1002 10.8016 22.1002 11.0016 22.0002C11.9016 21.7002 12.7016 21.6002 13.6016 21.8002C16.3016 22.4002 18.1016 24.6002 18.7016 27.2002C18.9016 28.3002 19.1016 29.1002 19.1016 29.7002C19.2016 30.9002 19.2016 32.2002 19.2016 33.6002C19.1016 37.4002 22.6016 40.3002 26.3016 39.7002C28.8016 39.4002 30.9016 37.5002 31.4016 34.9002Z" stroke="#7FDCE3" stroke-width="2"/>
<path d="M27.1992 0.300781H28.7992C32.3992 0.400781 35.7992 1.20078 38.9992 2.60078C43.9992 4.80078 48.0992 8.20078 51.0992 12.8008C53.8992 17.0008 55.3992 21.8008 55.5992 27.1008V29.0008C55.3992 34.3008 53.8992 39.0008 50.9992 43.3008C47.9992 47.9008 43.8992 51.3008 38.6992 53.5008C35.5992 54.8008 32.2992 55.6008 28.6992 55.7008H27.0992C21.5992 55.5008 16.5992 53.9008 12.1992 50.8008C6.99922 47.2008 3.49922 42.4008 1.49922 36.3008C0.799219 34.0008 0.299219 31.5008 0.199219 28.8008V27.1008C0.199219 26.8008 0.199219 26.4008 0.299219 26.1008C0.299219 25.1008 0.499219 24.1008 0.699219 23.0008C0.799219 22.5008 0.899219 21.9008 0.999219 21.4008C1.19922 20.7008 1.39922 19.9008 1.59922 19.2008C3.79922 13.2008 7.39922 8.40078 12.4992 5.00078C16.8992 2.00078 21.7992 0.400781 27.1992 0.300781ZM54.6992 28.0008C54.6992 13.2008 42.6992 1.30078 27.9992 1.30078C13.2992 1.30078 1.39922 13.2008 1.39922 28.0008C1.39922 42.7008 13.2992 54.6008 27.9992 54.6008C42.6992 54.6008 54.6992 42.7008 54.6992 28.0008Z" fill="#33485B"/>
<path d="M35.0999 23.0992C34.6999 23.9992 34.3999 24.8992 34.2999 25.6992C34.1999 26.2992 34.0999 26.8992 33.9999 27.4992C33.8999 28.0992 33.8999 28.6992 33.8999 29.2992C33.8999 30.6992 33.7999 31.9992 33.6999 33.2992C33.5999 34.0992 33.4999 34.8992 33.1999 35.7992C32.5999 37.9992 31.2999 39.5992 29.3999 40.7992C26.1999 42.6992 22.1999 42.0992 19.5999 39.5992C16.5999 36.6992 16.6999 32.1992 17.7999 28.3992C17.8999 28.1992 17.8999 28.1992 17.8999 28.3992C18.0999 29.4992 18.1999 30.5992 18.1999 31.7992C18.1999 32.4992 18.1999 33.2992 18.1999 34.0992C18.1999 38.0992 21.7999 41.1992 25.6999 40.8992C28.9999 40.5992 31.6999 38.2992 32.1999 34.9992C32.4999 33.0992 32.2999 31.1992 31.6999 29.2992C30.3999 24.9992 26.9999 21.8992 23.0999 19.9992C23.0999 19.9992 22.9999 19.8992 23.0999 19.8992C25.7999 17.2992 28.9999 15.4992 32.7999 14.5992C34.4999 14.1992 36.1999 14.0992 37.8999 14.2992C39.0999 14.3992 40.1999 14.6992 41.3999 15.2992C43.1999 16.0992 44.5999 17.1992 45.2999 19.0992C45.2999 19.1992 45.2999 19.1992 45.1999 19.1992C44.7999 18.9992 44.4999 18.7992 43.9999 18.5992C43.1999 18.2992 42.3999 18.1992 41.6999 18.1992C38.7999 18.2992 36.2999 20.3992 35.0999 23.0992Z" fill="#33485B"/>
<path d="M26.9016 23.4999C30.2016 26.2999 32.1016 30.4999 31.4016 34.7999C31.0016 37.3999 28.8016 39.3999 26.3016 39.6999C22.6016 40.2999 19.1016 37.3999 19.2016 33.5999C19.2016 32.1999 19.2016 30.8999 19.1016 29.6999C19.1016 29.0999 18.9016 28.2999 18.7016 27.1999C18.1016 24.6999 16.3016 22.3999 13.6016 21.7999C12.7016 21.5999 11.9016 21.6999 11.0016 21.9999C10.8016 22.0999 10.8016 21.9999 10.9016 21.8999C12.5016 19.7999 15.8016 19.0999 18.3016 19.4999C21.5016 19.8999 24.4016 21.3999 26.9016 23.4999Z" fill="#00BAC6"/>
</g>
<defs>
<clipPath id="clip0_88_5974">
<rect width="56" height="56" fill="white"/>
</clipPath>
</defs>
</svg>
